<?xml version="1.0" encoding="UTF-8"?>
<!DOCTYPE svg PUBLIC "-//W3C//DTD SVG 1.1//EN" "http://www.w3.org/Graphics/SVG/1.1/DTD/svg11.dtd">
<!-- Creator: CorelDRAW X8 -->
<svg xmlns="http://www.w3.org/2000/svg" xml:space="preserve" width="40mm" height="60mm" version="1.1" style="shape-rendering:geometricPrecision; text-rendering:geometricPrecision; image-rendering:optimizeQuality; fill-rule:evenodd; clip-rule:evenodd"
viewBox="0 0 4000 6000"
 xmlns:xlink="http://www.w3.org/1999/xlink">
 <defs>
  <style type="text/css">
   <![CDATA[
    .str0 {stroke:black;stroke-width:7.62}
    .fil0 {fill:none}
   ]]>
  </style>
 </defs>
 <g id="图层_x0020_1">
  <metadata id="CorelCorpID_0Corel-Layer"/>
  <path class="fil0 str0" d="M1765 1171c-1,-11 -11,-21 -31,-23 -72,0 -130,59 -130,131 0,72 58,130 130,130 72,0 131,-58 131,-130 0,-72 -59,-131 -131,-131m569 23c-1,-11 -11,-21 -31,-23 -72,0 -131,59 -131,131 0,72 59,130 131,130 72,0 130,-58 130,-130 0,-72 -58,-131 -130,-131m-709 420c-1,-11 -10,-21 -31,-23 -72,0 -130,59 -130,131 0,72 58,130 130,130 72,0 131,-58 131,-130 0,-72 -59,-131 -131,-131m387 43c-44,12 -76,28 -76,104l0 2c0,88 66,151 153,151l15 0c87,0 151,-63 151,-151l0 -58c0,-87 -60,-153 -148,-153l-21 0c-87,0 -150,66 -150,153l0 56m665 -138c-1,-11 -11,-22 -31,-23 -72,0 -130,58 -130,130 0,72 58,131 130,131 72,0 131,-59 131,-131 0,-72 -59,-130 -131,-130m-461 585c-3,-13 -8,-23 -31,-23l-19 0c-26,0 -48,21 -48,48l0 0c0,26 22,48 48,48l96 0c26,0 48,-22 48,-48l0 0c0,-27 -22,-48 -48,-48l-77 0m17 -1067c353,0 638,286 638,638 0,352 -285,638 -638,638 -352,0 -638,-286 -638,-638 0,-352 286,-638 638,-638zm0 -49c385,0 696,311 696,696 0,384 -311,696 -696,696 -384,0 -696,-312 -696,-696 0,-385 312,-696 696,-696zm-1067 4327l1925 0c139,0 254,-114 254,-253l39 0c8,0 14,-7 14,-15l0 -4118c0,-8 -6,-14 -14,-14l-39 0c0,-140 -115,-254 -254,-254l-1726 0c-139,0 -253,114 -253,254l-34 0c-8,0 -14,6 -14,14l0 859c0,11 9,20 20,20l42 0c8,0 15,7 15,15l0 1026c0,8 -7,15 -15,15l-42 0c-11,0 -20,9 -20,20l0 2163c0,8 6,15 14,15l34 0c0,139 114,253 253,253l72 0c130,0 207,23 240,46"/>
 </g>
</svg>
