<?xml version="1.0" encoding="UTF-8"?>
<!DOCTYPE svg PUBLIC "-//W3C//DTD SVG 1.1//EN" "http://www.w3.org/Graphics/SVG/1.1/DTD/svg11.dtd">
<!-- Creator: CorelDRAW X8 -->
<svg xmlns="http://www.w3.org/2000/svg" xml:space="preserve" width="40mm" height="60mm" version="1.1" style="shape-rendering:geometricPrecision; text-rendering:geometricPrecision; image-rendering:optimizeQuality; fill-rule:evenodd; clip-rule:evenodd"
viewBox="0 0 4000 6000"
 xmlns:xlink="http://www.w3.org/1999/xlink">
 <defs>
  <style type="text/css">
   <![CDATA[
    .str0 {stroke:black;stroke-width:7.62}
    .fil0 {fill:none}
   ]]>
  </style>
 </defs>
 <g id="图层_x0020_1">
  <metadata id="CorelCorpID_0Corel-Layer"/>
  <path class="fil0 str0" d="M802 786c-1,-13 -12,-25 -36,-27 -83,0 -150,68 -150,151 0,83 67,150 150,150 83,0 151,-67 151,-150 0,-83 -68,-151 -151,-151m10 413c-3,-12 -7,-20 -27,-20l-17 0c-23,0 -42,19 -42,42l0 0c0,23 19,42 42,42l75 0c24,0 43,-19 43,-42l0 0c0,-23 -19,-42 -43,-42l-58 0m-30 4198c-10,-12 -21,-22 -44,-22l-26 0c-90,0 -164,-74 -164,-164l0 -4350c0,-90 74,-164 164,-164l2702 0c90,0 164,74 164,164l0 4350c0,90 -74,164 -164,164l-2786 0"/>
 </g>
</svg>
