<?xml version="1.0" encoding="UTF-8"?>
<!DOCTYPE svg PUBLIC "-//W3C//DTD SVG 1.1//EN" "http://www.w3.org/Graphics/SVG/1.1/DTD/svg11.dtd">
<!-- Creator: CorelDRAW X8 -->
<svg xmlns="http://www.w3.org/2000/svg" xml:space="preserve" width="40mm" height="60mm" version="1.1" style="shape-rendering:geometricPrecision; text-rendering:geometricPrecision; image-rendering:optimizeQuality; fill-rule:evenodd; clip-rule:evenodd"
viewBox="0 0 4000 6000"
 xmlns:xlink="http://www.w3.org/1999/xlink">
 <defs>
  <style type="text/css">
   <![CDATA[
    .fil0 {fill:#332C2B;fill-rule:nonzero}
   ]]>
  </style>
 </defs>
 <g id="图层_x0020_1">
  <metadata id="CorelCorpID_0Corel-Layer"/>
  <g>
   <path class="fil0" d="M939 643c4,-3 10,-4 14,0 4,4 4,10 0,14l-14 -14zm-204 72l0 -20 0 0 10 0 10 0 9 -1 10 -1 9 0 9 -1 8 -1 9 -1 8 -1 8 -1 8 -1 7 -2 7 -1 7 -2 7 -1 6 -2 7 -1 6 -2 6 -2 5 -2 5 -2 6 -2 4 -2 5 -3 4 -2 4 -2 4 -3 4 -2 3 -3 4 -2 2 -3 3 -3 14 14 -3 3 -4 3 -4 4 -4 3 -4 3 -5 2 -4 3 -5 3 -5 2 -6 3 -5 2 -6 2 -6 2 -6 2 -7 2 -7 2 -7 2 -7 1 -7 2 -8 1 -7 2 -8 1 -9 1 -8 1 -9 1 -9 1 -9 1 -9 1 -10 0 -9 1 -10 0 -11 1 0 0zm0 0c-5,0 -9,-4 -10,-10 0,-5 4,-9 10,-10l0 20zm-66 68l-19 0 0 0 -1 -5 1 -5 0 -6 0 -5 1 -4 1 -5 1 -4 1 -5 1 -4 2 -4 1 -4 2 -3 2 -4 3 -3 2 -3 3 -3 3 -3 3 -2 3 -2 4 -2 3 -2 4 -2 4 -1 4 -2 4 -1 4 -1 5 -1 4 0 5 -1 5 0 5 0 5 -1 0 20 -4 0 -5 0 -4 0 -4 1 -4 0 -4 1 -3 1 -4 1 -3 1 -3 1 -2 1 -3 1 -2 2 -3 1 -2 2 -2 2 -1 2 -2 2 -2 2 -1 2 -1 3 -2 3 -1 3 -1 3 -1 3 0 4 -1 3 -1 4 0 5 0 4 0 5 0 5 0 0zm0 0c0,5 -4,10 -10,10 -5,0 -9,-4 -9,-10l19 0zm-16 4492l-20 0 0 0 1 -38 1 -59 0 -79 1 -96 1 -113 1 -128 0 -142 1 -154 1 -165 1 -174 0 -183 1 -189 1 -194 0 -198 1 -200 1 -201 0 -201 1 -199 1 -195 0 -191 1 -184 0 -177 1 -167 0 -157 0 -145 0 -132 1 -117 0 -101 0 -83 0 -64 0 -44 0 -22 19 0 0 22 0 44 0 64 0 83 0 101 0 117 -1 132 0 145 0 157 -1 168 0 176 -1 184 0 191 -1 195 0 199 -1 201 -1 201 0 200 -1 198 -1 194 0 189 -1 183 -1 174 -1 165 0 154 -1 142 -1 128 -1 113 0 97 -1 78 -1 59 0 38 0 0zm0 0c0,6 -5,10 -10,10 -5,0 -10,-5 -10,-10l20 0zm33 49l1 19 0 0 -4 0 -4 0 -3 -1 -4 -1 -3 -1 -3 -1 -3 -1 -3 -2 -3 -2 -2 -1 -3 -3 -2 -2 -2 -2 -2 -3 -1 -2 -2 -3 -1 -2 -2 -3 -1 -3 -1 -2 -1 -3 0 -3 -1 -3 -1 -3 0 -2 -1 -3 0 -3 0 -3 0 -2 -1 -3 0 -3 0 -2 20 0 0 2 0 2 0 3 0 2 0 2 0 2 1 2 0 3 1 2 0 2 1 2 0 2 1 2 1 2 1 2 1 2 1 2 1 1 1 2 1 1 2 1 1 2 1 1 2 1 1 1 2 0 2 1 2 1 2 0 2 0 3 1 2 0 0 0zm0 0c6,-1 10,4 10,9 0,5 -4,10 -9,10l-1 -19zm2623 16l0 20 0 0 -28 0 -39 -1 -51 0 -60 0 -69 -1 -78 0 -85 -1 -92 0 -98 -1 -103 -1 -107 0 -111 -1 -113 -1 -115 -1 -117 -1 -116 0 -116 -1 -115 -1 -113 -1 -109 -1 -106 0 -101 -1 -96 -1 -89 0 -83 -1 -74 0 -66 -1 -57 0 -46 0 -35 0 -24 0 -10 0 -1 -19 11 -1 24 1 35 0 46 0 57 0 66 1 74 0 83 1 89 0 96 1 101 0 106 1 110 1 112 1 115 1 116 0 116 1 117 1 115 1 113 1 111 0 107 1 103 1 98 1 92 0 85 1 78 0 69 1 60 0 51 0 39 0 28 0 0 0zm0 0c5,0 10,5 10,10 0,5 -5,10 -10,10l0 -20zm66 -72l19 1 0 0 0 4 -1 5 0 5 -1 4 -1 5 -1 4 -1 5 -2 4 -1 4 -2 4 -2 4 -3 3 -2 4 -2 3 -3 4 -3 3 -3 3 -3 2 -3 3 -3 3 -4 2 -3 2 -4 2 -4 2 -4 1 -4 2 -4 1 -4 1 -4 1 -4 0 -5 1 -4 0 0 -20 3 0 4 0 3 0 3 -1 4 -1 3 -1 3 -1 3 -1 2 -1 3 -2 3 -1 3 -2 2 -2 3 -2 2 -2 2 -2 2 -3 2 -2 2 -3 2 -3 2 -3 1 -3 2 -3 1 -3 1 -3 1 -4 1 -3 1 -4 1 -4 0 -4 0 -4 1 -4 0 0zm0 0c0,-5 4,-9 9,-9 6,0 10,4 10,10l-19 -1zm17 -4478l19 0 0 0 0 18 0 40 0 63 0 83 -1 102 0 119 -1 134 0 149 -1 162 0 172 -1 182 -1 190 -1 196 0 201 -1 204 -1 206 -1 206 -1 205 0 202 -1 197 -1 191 -1 183 0 175 -1 163 -1 151 0 138 -1 122 0 105 0 86 -1 67 0 45 0 22 -19 -1 0 -21 0 -45 0 -67 1 -86 0 -105 1 -122 0 -138 1 -151 0 -163 1 -175 1 -183 1 -191 0 -198 1 -201 1 -205 1 -206 1 -206 0 -204 1 -201 1 -196 1 -190 0 -182 1 -173 1 -161 0 -149 1 -134 0 -119 0 -102 1 -83 0 -63 0 -40 0 -18 0 0zm0 0c0,-5 5,-9 10,-9 5,0 10,4 9,9l-19 0zm-74 -66l0 -19 0 0 5 0 5 0 5 0 5 1 5 0 5 1 4 1 5 1 4 1 4 2 4 1 4 2 4 2 3 3 4 2 3 3 3 2 3 3 2 4 3 3 2 3 2 4 2 4 2 4 1 4 1 5 1 4 1 5 1 5 0 5 0 5 0 5 -19 0 0 -4 0 -5 0 -4 -1 -4 -1 -4 0 -3 -1 -4 -2 -3 -1 -3 -1 -3 -2 -3 -1 -2 -2 -3 -2 -2 -2 -2 -2 -2 -2 -2 -2 -1 -3 -2 -3 -1 -3 -2 -3 -1 -3 -1 -3 -1 -4 -1 -4 -1 -4 0 -4 -1 -4 0 -5 -1 -4 0 -5 0 0 0zm0 0c-5,0 -10,-4 -10,-9 0,-6 4,-10 10,-10l0 19zm-2583 -9l0 -20 0 0 34 0 44 0 53 0 62 0 70 0 77 0 83 0 89 0 95 1 99 0 102 1 106 0 108 1 109 0 111 1 110 0 110 1 109 1 108 0 104 1 101 0 98 1 92 0 88 1 81 0 74 0 67 1 59 0 50 0 41 0 30 0 19 0 0 19 -19 0 -30 0 -41 0 -50 0 -59 0 -67 0 -74 -1 -81 0 -88 0 -92 -1 -98 0 -101 -1 -105 -1 -107 0 -109 -1 -110 0 -111 -1 -110 0 -109 -1 -108 -1 -106 0 -102 -1 -99 0 -95 0 -89 -1 -83 0 -77 0 -70 0 -62 0 -53 0 -44 0 -34 1 0 0zm0 0c-5,0 -9,-4 -10,-10 0,-5 5,-9 10,-10l0 20zm-143 -53l12 -15 4 3 4 3 3 3 4 2 4 3 4 2 4 3 4 2 4 2 3 2 4 2 4 2 4 2 4 2 4 2 5 1 4 2 4 1 4 1 4 1 4 1 4 1 5 1 4 1 4 1 5 1 4 0 4 1 5 0 4 0 5 0 4 0 0 20 -5 0 -5 -1 -5 0 -4 0 -5 -1 -5 0 -5 -1 -4 -1 -5 -1 -5 -1 -4 -1 -5 -1 -5 -1 -4 -2 -5 -1 -4 -2 -5 -2 -4 -1 -4 -2 -5 -2 -4 -2 -4 -3 -5 -2 -4 -2 -4 -3 -4 -2 -5 -3 -4 -3 -4 -3 -4 -3 -4 -3 -4 -3zm0 0c-4,-3 -5,-9 -1,-14 3,-4 9,-4 13,-1l-12 15z"/>
  </g>
 </g>
</svg>
