<?xml version="1.0" encoding="UTF-8"?>
<!DOCTYPE svg PUBLIC "-//W3C//DTD SVG 1.1//EN" "http://www.w3.org/Graphics/SVG/1.1/DTD/svg11.dtd">
<!-- Creator: CorelDRAW 2020 (64-Bit) -->
<svg xmlns="http://www.w3.org/2000/svg" xml:space="preserve" width="40mm" height="60mm" version="1.1" style="shape-rendering:geometricPrecision; text-rendering:geometricPrecision; image-rendering:optimizeQuality; fill-rule:evenodd; clip-rule:evenodd"
viewBox="0 0 4000 6000"
 xmlns:xlink="http://www.w3.org/1999/xlink"
 xmlns:xodm="http://www.corel.com/coreldraw/odm/2003">
 <defs>
  <style type="text/css">
   <![CDATA[
    .str0 {stroke:#332C2B;stroke-width:20;stroke-miterlimit:22.9256}
    .fil0 {fill:none}
   ]]>
  </style>
   <clipPath id="id0">
    <rect x="-39489.73" y="-4595.64" width="7404.9" height="15406.99"/>
   </clipPath>
 </defs>
 <g id="图层_x0020_1">
  <metadata id="CorelCorpID_0Corel-Layer"/>
  <g style="clip-path:url(#id0)">
   <image x="-39489.73" y="-4595.64" width="7404.9" height="15407" xlink:href="Camon IN5 -11i（背膜）_Images\Camon IN5 -11i（背膜）_ImgID1.png"/>
  </g>
  <rect class="fil0 str0" x="-39341.07" y="-4485.84" width="7170" height="15220"/>
  <rect class="fil0 str0" x="-39295.93" y="-4424.99" width="7079.72" height="15104.44" rx="1000" ry="1125.64"/>
  <rect class="fil0 str0" x="-38770.09" y="-4041.92" width="1114.56" height="2190.08" rx="600" ry="602.98"/>
  <path class="fil0 str0" d="M-35753.11 -1032.9c356.91,0 646.24,289.33 646.24,646.24 0,356.91 -289.33,646.24 -646.24,646.24 -356.91,0 -646.24,-289.33 -646.24,-646.24 0,-356.91 289.33,-646.24 646.24,-646.24z"/>
  <path class="fil0 str0" d="M-2178.32 5816.81l0 -5643.3c0,-549.99 -450.01,-999.99 -999.99,-999.99l-13104.46 0c-550,0 -999.99,449.99 -999.99,999.99l0 5079.74c0,550 449.99,999.99 999.99,999.99l13104.46 0c549.99,0 999.99,-449.99 999.99,-999.99 0,-550 78.48,-887.69 188.28,-1021.31"/>
  <path class="fil0 str0" d="M-16899.7 5170.13c0,306.51 250.77,557.28 557.28,557.28l1075.52 0c306.51,0 557.28,-250.77 557.28,-557.28l0 0c0,-306.51 -250.77,-557.28 -557.28,-557.28l-1075.52 0c-306.51,0 -557.28,250.77 -557.28,557.28 0,306.51 306.99,432.72 519.98,355.99"/>
  <path class="fil0 str0" d="M-13890.68 2710.43c0,356.91 289.33,646.24 646.24,646.24 356.91,0 646.24,-289.33 646.24,-646.24 0,-356.91 -289.33,-646.24 -646.24,-646.24 -356.91,0 -646.24,289.33 -646.24,646.24 0,356.91 380.7,478.1 597.66,390.79"/>
  <g id="_2009605489056">
   <path class="fil0 str0" d="M1039.61 5297.8l1734.38 0c169.03,0 307.34,-138.3 307.34,-307.33l0 -4027.47c0,-169.03 -138.3,-307.33 -307.34,-307.33l-1561.18 0c-169.04,0 -307.34,138.3 -307.34,307.33l0 4027.47c0,169.03 138.3,307.33 307.34,307.33 169.03,0 272.82,24.12 313.88,57.87"/>
   <path class="fil0 str0" d="M1238.35 773.4c-94.2,0 -171.27,77.07 -171.27,171.27l0 330.55c0,94.2 77.07,171.27 171.27,171.27l0 0c94.2,0 171.28,-77.07 171.28,-171.27l0 -330.55c0,-94.2 -77.08,-171.27 -171.28,-171.27 -94.2,0 -132.99,94.35 -109.41,159.81"/>
   <path class="fil0 str0" d="M1994.31 1698.18c-109.69,0 -198.62,88.92 -198.62,198.61 0,109.69 88.93,198.61 198.62,198.61 109.69,0 198.61,-88.92 198.61,-198.61 0,-109.69 -88.92,-198.61 -198.61,-198.61 -109.69,0 -146.94,117 -120.11,183.68"/>
  </g>
 </g>
</svg>
