<?xml version="1.0" encoding="UTF-8"?>
<!DOCTYPE svg PUBLIC "-//W3C//DTD SVG 1.1//EN" "http://www.w3.org/Graphics/SVG/1.1/DTD/svg11.dtd">
<!-- Creator: CorelDRAW X8 -->
<svg xmlns="http://www.w3.org/2000/svg" xml:space="preserve" width="40mm" height="60mm" version="1.1" style="shape-rendering:geometricPrecision; text-rendering:geometricPrecision; image-rendering:optimizeQuality; fill-rule:evenodd; clip-rule:evenodd"
viewBox="0 0 4000 6000"
 xmlns:xlink="http://www.w3.org/1999/xlink">
 <defs>
  <style type="text/css">
   <![CDATA[
    .str0 {stroke:#332C2B;stroke-width:19.4}
    .fil0 {fill:none;fill-rule:nonzero}
   ]]>
  </style>
 </defs>
 <g id="图层_x0020_1">
  <metadata id="CorelCorpID_0Corel-Layer"/>
  <g id="_2366762467920">
   <g>
    <line class="fil0 str0" x1="3107" y1="651" x2="3107" y2= "681" />
    <line class="fil0 str0" x1="1002" y1="5300" x2="1002" y2= "5309" />
    <path class="fil0 str0" d="M1002 5309c5,-1 8,-4 9,-9"/>
    <line class="fil0 str0" x1="1011" y1="5300" x2="2890" y2= "5300" />
    <path class="fil0 str0" d="M2890 5300c78,-5 152,-56 189,-130 23,-48 28,-70 28,-133"/>
    <line class="fil0 str0" x1="3107" y1="5037" x2="3117" y2= "2975" />
    <path class="fil0 str0" d="M3117 2975c2,-439 3,-879 3,-1318 -1,-635 -3,-735 -17,-806 -21,-109 -113,-195 -211,-200 -468,-1 -351,-1 -819,-1 -562,0 -421,0 -984,1 -65,7 -136,53 -169,111 -21,35 -38,87 -40,116"/>
    <polyline class="fil0 str0" points="880,878 885,5037 882,5078 "/>
    <path class="fil0 str0" d="M882 5078c0,1 0,2 0,3 0,30 27,97 52,129 46,58 93,82 180,90 31,5 35,7 93,50"/>
    <line class="fil0 str0" x1="1260" y1="811" x2="1268" y2= "816" />
    <path class="fil0 str0" d="M1268 816c0,-1 1,-2 1,-2"/>
    <line class="fil0 str0" x1="1269" y1="814" x2="1269" y2= "812" />
    <path class="fil0 str0" d="M1269 812c85,6 147,71 147,154 0,86 -70,156 -156,156 -86,0 -156,-69 -156,-155 0,-86 69,-156 153,-156 10,0 19,1 43,4"/>
    <path class="fil0 str0" d="M1265 1188c40,3 68,31 68,68 0,38 -30,68 -68,68 -38,0 -68,-30 -68,-68 0,-37 30,-67 67,-67 6,0 8,0 23,2"/>
   </g>
  </g>
 </g>
</svg>
