<?xml version="1.0" encoding="UTF-8"?>
<!DOCTYPE svg PUBLIC "-//W3C//DTD SVG 1.1//EN" "http://www.w3.org/Graphics/SVG/1.1/DTD/svg11.dtd">
<!-- Creator: CorelDRAW X8 -->
<svg xmlns="http://www.w3.org/2000/svg" xml:space="preserve" width="40mm" height="60mm" version="1.1" style="shape-rendering:geometricPrecision; text-rendering:geometricPrecision; image-rendering:optimizeQuality; fill-rule:evenodd; clip-rule:evenodd"
viewBox="0 0 4000 6000"
 xmlns:xlink="http://www.w3.org/1999/xlink">
 <defs>
  <style type="text/css">
   <![CDATA[
    .str1 {stroke:#222222;stroke-width:20}
    .str0 {stroke:#222222;stroke-width:10}
    .fil0 {fill:none}
   ]]>
  </style>
 </defs>
 <g id="图层_x0020_1">
  <metadata id="CorelCorpID_0Corel-Layer"/>
  <g id="_1576121558688">
   <path class="fil0 str0" d="M966 5214l1830 0c131,0 238,-107 238,-238l0 -4088c0,-131 -107,-238 -238,-238l-1586 0c-131,0 -238,107 -238,238l0 4088c0,131 107,238 238,238 130,0 236,89 236,136"/>
   <path class="fil0 str0" d="M1269 814l591 0c55,0 101,46 101,101l0 788c0,56 -46,101 -101,101l-591 0c-56,0 -101,-45 -101,-101l0 -788c0,-55 45,-101 101,-101z"/>
   <path class="fil0 str0" d="M1378 1702c0,-31 -55,-63 -78,-63 -23,0 -42,19 -42,42l0 0c0,23 19,42 42,42l159 0c23,0 42,-19 42,-42l0 0c0,-23 -19,-42 -42,-42l-159 0"/>
   <path class="fil0 str0" d="M1294 1582l536 0c52,0 94,43 94,95l0 9c0,52 -42,94 -94,94l-536 0c-52,0 -95,-42 -95,-94l0 -9c0,-52 43,-95 95,-95z"/>
   <path class="fil0 str0" d="M1290 836l548 0c56,0 102,46 102,102l0 520c0,55 -46,101 -102,101l-548 0c-55,0 -101,-46 -101,-101l0 -520c0,-56 46,-102 101,-102z"/>
   <path class="fil0 str0" d="M1260 1056c0,-40 26,-207 121,-207 95,0 172,76 172,171 0,95 -77,172 -172,172 -95,0 -171,-77 -171,-172 0,-95 76,-171 171,-171"/>
   <path class="fil0 str0" d="M1627 1060c0,-44 27,-211 122,-211 94,0 171,76 171,171 0,95 -77,172 -171,172 -95,0 -172,-77 -172,-172 0,-95 77,-171 172,-171"/>
   <path class="fil0 str0" d="M1257 1420c0,-52 29,-216 124,-216 95,0 172,77 172,172 0,94 -77,171 -172,171 -95,0 -171,-77 -171,-171 0,-95 76,-172 171,-172"/>
   <path class="fil0 str0" d="M1621 1424c0,-40 33,-220 128,-220 94,0 171,77 171,172 0,94 -77,171 -171,171 -95,0 -172,-77 -172,-171 0,-95 77,-172 172,-172"/>
  </g>
  <path class="fil0 str1" d="M-1414 6933l0 -6328c0,-453 -370,-823 -823,-823l-14135 0c-453,0 -823,370 -823,823l0 5486c0,453 370,823 823,823l14135 0c453,0 823,-370 823,-823 0,-453 310,-817 472,-817"/>
  <path class="fil0 str1" d="M-16627 5886l0 -2042c0,-193 157,-350 350,-350l2724 0c193,0 350,157 350,350l0 2042c0,193 -157,350 -350,350l-2724 0c-193,0 -350,-157 -350,-350z"/>
  <path class="fil0 str1" d="M-13556 5509c-109,0 -219,190 -219,270 0,79 65,144 145,144l0 0c79,0 144,-65 144,-144l0 -550c0,-80 -65,-145 -144,-145l0 0c-80,0 -145,65 -145,145l0 550"/>
  <path class="fil0 str1" d="M-13971 5801l0 -1856c0,-179 147,-325 326,-325l32 0c179,0 326,146 326,325l0 1856c0,179 -147,326 -326,326l-32 0c-179,0 -326,-147 -326,-326z"/>
  <path class="fil0 str1" d="M-16550 5812l0 -1895c0,-193 157,-350 350,-350l1798 0c192,0 350,157 350,350l0 1895c0,192 -158,350 -350,350l-1798 0c-193,0 -350,-158 -350,-350z"/>
  <path class="fil0 str1" d="M-15790 5917c-139,0 -718,-92 -718,-419 0,-328 265,-593 593,-593 328,0 593,265 593,593 0,327 -265,593 -593,593 -328,0 -593,-266 -593,-593"/>
  <path class="fil0 str1" d="M-15777 4649c-153,0 -731,-95 -731,-422 0,-328 265,-594 593,-594 328,0 593,266 593,594 0,327 -265,593 -593,593 -328,0 -593,-266 -593,-593"/>
  <path class="fil0 str1" d="M-14533 5929c-178,0 -746,-104 -746,-431 0,-328 265,-593 593,-593 328,0 593,265 593,593 0,327 -265,593 -593,593 -328,0 -593,-266 -593,-593"/>
  <path class="fil0 str1" d="M-14517 4667c-139,0 -762,-113 -762,-440 0,-328 265,-594 593,-594 328,0 593,266 593,594 0,327 -265,593 -593,593 -328,0 -593,-266 -593,-593"/>
 </g>
</svg>
