<?xml version="1.0" encoding="UTF-8"?>
<!DOCTYPE svg PUBLIC "-//W3C//DTD SVG 1.1//EN" "http://www.w3.org/Graphics/SVG/1.1/DTD/svg11.dtd">
<!-- Creator: CorelDRAW 2020 (64-Bit) -->
<svg xmlns="http://www.w3.org/2000/svg" xml:space="preserve" width="40mm" height="60mm" version="1.1" style="shape-rendering:geometricPrecision; text-rendering:geometricPrecision; image-rendering:optimizeQuality; fill-rule:evenodd; clip-rule:evenodd"
viewBox="0 0 4000 6000"
 xmlns:xlink="http://www.w3.org/1999/xlink"
 xmlns:xodm="http://www.corel.com/coreldraw/odm/2003">
 <defs>
  <style type="text/css">
   <![CDATA[
    .str3 {stroke:#222222;stroke-width:7.06;stroke-miterlimit:22.9256}
    .str2 {stroke:#332C2B;stroke-width:20;stroke-miterlimit:22.9256}
    .str1 {stroke:#E72D28;stroke-width:20;stroke-miterlimit:22.9256}
    .str0 {stroke:#E62B28;stroke-width:20;stroke-miterlimit:22.9256}
    .fil0 {fill:none}
   ]]>
  </style>
   <clipPath id="id0">
    <rect x="-58770.67" y="-6499.28" width="8960.56" height="18030.74"/>
   </clipPath>
 </defs>
 <g id="图层_x0020_1">
  <metadata id="CorelCorpID_0Corel-Layer"/>
  <g style="clip-path:url(#id0)">
   <image x="-58770.67" y="-6499.28" width="8960.56" height="18030.74" xlink:href="S80-11i（背膜）_Images\S80-11i（背膜）_ImgID1.png"/>
  </g>
  <rect class="fil0 str0" x="-58428.18" y="-6086.19" width="8250" height="17200"/>
  <polygon class="fil0 str0" points="-57460.78,-4793.88 -55943.8,-5179.72 -52614.45,-5179.72 -51145.58,-4789.47 -51145.58,-4339.67 -51145.58,-3133.62 -51502.77,-2619.35 -51500.44,5944.17 -51145.58,6360.55 -51145.58,8519.11 -50893.13,10344.7 -51961.79,10798.9 -56336.24,10798.9 -57670.25,10342.49 -57460.78,8572.03 -57460.78,6371.57 -57095.05,5886.8 -57094.77,-2619.88 -57460.78,-3122.59 -57460.78,-4427.87 "/>
  <polygon class="fil0 str1" points="-56808.6,-4295.41 -55957.52,-4543.46 -52614.95,-4543.46 -51728.6,-4298.72 -51728.6,-4190.69 -51728.6,-2062.99 -52319.5,-975.99 -52420.92,-975.99 -56081,-975.99 -56235.33,-975.99 -56808.6,-2058.58 -56808.6,-4203.92 "/>
  <rect class="fil0 str1" x="-55598.12" y="-4127.8" width="2634.82" height="1331.74" rx="51.39" ry="50"/>
  <path class="fil0 str2" d="M-55097.61 -3809.19c-186.92,0 -338.45,151.53 -338.45,338.45 0,186.92 151.53,338.45 338.45,338.45 186.92,0 338.45,-151.53 338.45,-338.45 0,-186.92 -151.53,-338.45 -338.45,-338.45 -186.92,0 -278.92,220.52 -278.92,312.02"/>
  <path class="fil0 str2" d="M-54266.48 -3809.19c-186.92,0 -338.45,151.53 -338.45,338.45 0,186.92 151.53,338.45 338.45,338.45 186.92,0 338.45,-151.53 338.45,-338.45 0,-186.92 -151.53,-338.45 -338.45,-338.45 -186.92,0 -278.92,220.52 -278.92,312.02"/>
  <path class="fil0 str2" d="M-53388.94 -3809.19c-186.92,0 -338.45,151.53 -338.45,338.45 0,186.92 151.53,338.45 338.45,338.45 186.92,0 338.45,-151.53 338.45,-338.45 0,-186.92 -151.53,-338.45 -338.45,-338.45 -186.92,0 -278.92,220.52 -278.92,312.02"/>
  <polygon class="fil0 str0" points="-56116.37,7547.09 -55462.36,7346.44 -53043.49,7346.44 -52235.75,7553.69 -52235.75,7641.89 -52235.75,8614.24 -56116.37,8614.24 -56116.37,7597.8 "/>
  <path class="fil0 str2" d="M-56356.65 9410.14l1391.26 0 0 -564.44 -1459.62 0 0 564.44 68.36 0c0,0 326.31,-9.91 326.31,-102.52"/>
  <path class="fil0 str2" d="M-53312.4 9410.14l1391.26 0 0 -564.44 -1459.62 0 0 564.44 68.36 0c0,0 326.31,-9.91 326.31,-102.52"/>
  <path class="fil0 str2" d="M-54744.8 -2466.9c-55,0 -100,45 -100,100l0 997.25c0,55 45,100 100,100l955.35 0c55,0 100,-45 100,-100l0 -997.25c0,-55 -45,-100 -100,-100l-955.35 0c0,0 374.05,30.88 374.05,231.52"/>
  <path class="fil0 str3" d="M-3624.89 5381.17l0 -4802.55 -454.2 -1068.66 -1825.59 252.45 -2158.56 0 -416.38 354.86 -8563.52 2.33 -514.27 -357.19 -1206.05 0 -449.8 0 -390.25 1468.87 0 3329.35 385.84 1516.98 366.01 0 1305.28 0 502.71 -366.01 8506.68 0.28 484.77 365.73 2200.46 0 1770.46 209.47 456.41 -1334.01 0 -184.85c0,0 32.33,-474.05 177.85,-474.05"/>
  <polygon class="fil0 str3" points="-18719.2,5425.43 -18967.25,4574.35 -18967.25,1231.78 -18722.51,345.43 -18614.48,345.43 -16486.78,345.43 -15399.78,936.33 -15399.78,1037.75 -15399.78,4697.83 -15399.78,4852.16 -16482.37,5425.43 -18627.71,5425.43 "/>
  <rect class="fil0 str3" transform="matrix(2.62647E-14 -0.991701 0.964854 2.55537E-14 -18551.6 4214.95)" width="2656.87" height="1380.25" rx="51.82" ry="51.82"/>
  <path class="fil0 str3" d="M-18232.98 3714.44c0,186.92 151.53,338.45 338.45,338.45 186.92,0 338.45,-151.53 338.45,-338.45 0,-186.92 -151.53,-338.45 -338.45,-338.45 -186.92,0 -338.45,151.53 -338.45,338.45 0,186.92 220.52,278.92 312.02,278.92"/>
  <path class="fil0 str3" d="M-18232.98 2883.31c0,186.92 151.53,338.45 338.45,338.45 186.92,0 338.45,-151.53 338.45,-338.45 0,-186.92 -151.53,-338.45 -338.45,-338.45 -186.92,0 -338.45,151.53 -338.45,338.45 0,186.92 220.52,278.92 312.02,278.92"/>
  <path class="fil0 str3" d="M-18232.98 2005.77c0,186.92 151.53,338.45 338.45,338.45 186.92,0 338.45,-151.53 338.45,-338.45 0,-186.92 -151.53,-338.45 -338.45,-338.45 -186.92,0 -338.45,151.53 -338.45,338.45 0,186.92 220.52,278.92 312.02,278.92"/>
  <polygon class="fil0 str3" points="-6876.7,4733.2 -7077.35,4079.19 -7077.35,1660.32 -6870.1,852.58 -6781.9,852.58 -5809.55,852.58 -5809.55,4733.2 -6825.99,4733.2 "/>
  <path class="fil0 str3" d="M-5013.65 4973.48l0 -1391.26 -564.44 0 0 1459.62 564.44 0 0 -68.36c0,0 -9.91,-326.31 -102.52,-326.31"/>
  <path class="fil0 str3" d="M-5013.65 1929.23l0 -1391.26 -564.44 0 0 1459.62 564.44 0 0 -68.36c0,0 -9.91,-326.31 -102.52,-326.31"/>
  <path class="fil0 str3" d="M-16890.69 3361.63c0,55 45,100 100,100l997.25 0c55,0 100,-45 100,-100l0 -955.35c0,-55 -45,-100 -100,-100l-997.25 0c-55,0 -100,45 -100,100l0 955.35c0,0 30.88,-374.05 231.52,-374.05"/>
  <g id="_1274037596048">
   <polygon class="fil0 str3" points="1058.29,769.16 1504.5,655.67 2483.81,655.67 2915.86,770.46 2915.86,902.76 2915.86,1257.52 2810.8,1408.79 2811.48,3927.68 2915.86,4050.16 2915.86,4685.09 2990.12,5222.07 2675.78,5355.67 1389.07,5355.67 996.68,5221.42 1058.29,4700.65 1058.29,4053.4 1165.87,3910.81 1165.95,1408.63 1058.29,1260.76 1058.29,876.82 "/>
   <polygon class="fil0 str3" points="1250.13,915.78 1500.47,842.82 2483.66,842.82 2744.37,914.81 2744.37,946.59 2744.37,1572.43 2570.56,1892.17 2540.73,1892.17 1464.15,1892.17 1418.75,1892.17 1250.13,1573.73 1250.13,942.69 "/>
   <rect class="fil0 str3" x="1606.18" y="965.08" width="775.01" height="391.72" rx="15.12" ry="14.71"/>
   <path class="fil0 str3" d="M1753.4 1058.8c-54.98,0 -99.55,44.57 -99.55,99.55 0,54.99 44.57,99.56 99.55,99.56 54.98,0 99.56,-44.57 99.56,-99.56 0,-54.98 -44.58,-99.55 -99.56,-99.55 -54.98,0 -82.04,64.87 -82.04,91.78"/>
   <path class="fil0 str3" d="M1997.87 1058.8c-54.98,0 -99.55,44.57 -99.55,99.55 0,54.99 44.57,99.56 99.55,99.56 54.99,0 99.56,-44.57 99.56,-99.56 0,-54.98 -44.57,-99.55 -99.56,-99.55 -54.98,0 -82.04,64.87 -82.04,91.78"/>
   <path class="fil0 str3" d="M2256 1058.8c-54.99,0 -99.56,44.57 -99.56,99.55 0,54.99 44.57,99.56 99.56,99.56 54.98,0 99.55,-44.57 99.55,-99.56 0,-54.98 -44.57,-99.55 -99.55,-99.55 -54.99,0 -82.05,64.87 -82.05,91.78"/>
   <polygon class="fil0 str3" points="1453.74,4399.17 1646.11,4340.15 2357.61,4340.15 2595.2,4401.11 2595.2,4427.06 2595.2,4713.07 1453.74,4713.07 1453.74,4414.09 "/>
   <path class="fil0 str3" d="M1383.07 4947.18l409.22 0 0 -166.03 -429.33 0 0 166.03 20.11 0c0,0 95.98,-2.92 95.98,-30.16"/>
   <path class="fil0 str3" d="M2278.51 4947.18l409.23 0 0 -166.03 -429.34 0 0 166.03 20.11 0c0,0 95.98,-2.92 95.98,-30.16"/>
   <path class="fil0 str3" d="M1857.18 1453.63c-16.18,0 -29.41,13.23 -29.41,29.41l0 293.34c0,16.17 13.23,29.41 29.41,29.41l281.01 0c16.18,0 29.41,-13.24 29.41,-29.41l0 -293.34c0,-16.18 -13.23,-29.41 -29.41,-29.41l-281.01 0c0,0 110.02,9.08 110.02,68.1"/>
  </g>
 </g>
</svg>
