<?xml version="1.0" encoding="UTF-8"?>
<!DOCTYPE svg PUBLIC "-//W3C//DTD SVG 1.1//EN" "http://www.w3.org/Graphics/SVG/1.1/DTD/svg11.dtd">
<!-- Creator: CorelDRAW X8 -->
<svg xmlns="http://www.w3.org/2000/svg" xml:space="preserve" width="40mm" height="60mm" version="1.1" style="shape-rendering:geometricPrecision; text-rendering:geometricPrecision; image-rendering:optimizeQuality; fill-rule:evenodd; clip-rule:evenodd"
viewBox="0 0 4000 6000"
 xmlns:xlink="http://www.w3.org/1999/xlink">
 <defs>
  <style type="text/css">
   <![CDATA[
    .str0 {stroke:#332C2B;stroke-width:7.62}
    .fil0 {fill:none}
   ]]>
  </style>
 </defs>
 <g id="图层_x0020_1">
  <metadata id="CorelCorpID_0Corel-Layer"/>
  <path class="fil0 str0" d="M-11320 15282c0,-137 297,-458 764,-458 468,0 850,-382 850,-848l0 -22319c0,-466 -382,-848 -850,-848l-13396 0c-468,0 -850,382 -850,848l0 10786c0,68 41,101 127,101l166 0c146,0 265,119 265,265l0 0c0,146 -119,265 -265,265l-174 0c-95,0 -119,32 -119,121l0 10781c0,466 382,848 850,848l14272 0"/>
  <path class="fil0 str0" d="M3137 5350c0,-26 57,-88 147,-88 90,0 163,-73 163,-163l0 -4286c0,-90 -73,-163 -163,-163l-2573 0c-90,0 -163,73 -163,163l0 2071c0,13 8,20 24,20l32 0c28,0 51,23 51,51l0 0c0,28 -23,51 -51,51l-33 0c-19,0 -23,6 -23,23l0 2070c0,90 73,163 163,163l2741 0"/>
 </g>
</svg>
