<?xml version="1.0" encoding="UTF-8"?>
<!DOCTYPE svg PUBLIC "-//W3C//DTD SVG 1.1//EN" "http://www.w3.org/Graphics/SVG/1.1/DTD/svg11.dtd">
<!-- Creator: CorelDRAW X8 -->
<svg xmlns="http://www.w3.org/2000/svg" xml:space="preserve" width="40mm" height="60mm" version="1.1" style="shape-rendering:geometricPrecision; text-rendering:geometricPrecision; image-rendering:optimizeQuality; fill-rule:evenodd; clip-rule:evenodd"
viewBox="0 0 4000 6000"
 xmlns:xlink="http://www.w3.org/1999/xlink">
 <defs>
  <style type="text/css">
   <![CDATA[
    .str0 {stroke:black;stroke-width:7.62}
    .fil0 {fill:none}
   ]]>
  </style>
 </defs>
 <g id="图层_x0020_1">
  <metadata id="CorelCorpID_0Corel-Layer"/>
  <path class="fil0 str0" d="M1589 692c0,-6 -5,-11 -14,-11 -35,0 -63,27 -63,62 0,34 28,62 63,62 34,0 62,-28 62,-62 0,-35 -28,-62 -62,-62m390 62c-5,-18 -14,-32 -58,-32l-38 0c-19,0 -35,16 -35,36l0 0c0,20 16,36 35,36l271 0c20,0 36,-16 36,-36l0 0c0,-20 -16,-36 -36,-36l-233 0m442 -7c0,-4 -3,-7 -11,-8 -25,0 -46,21 -46,47 0,26 21,47 46,47 26,0 47,-21 47,-47 0,-26 -21,-47 -47,-47m-1309 4623l1861 0c84,0 153,-69 153,-153l0 -4363c0,-84 -69,-153 -153,-153l-1780 0c-84,0 -153,69 -153,153l0 4363c0,84 69,153 153,153l42 0c93,2 148,13 164,31"/>
 </g>
</svg>
