<?xml version="1.0" encoding="utf-8"?>
<!-- Generator: Adobe Illustrator 16.0.0, SVG Export Plug-In . SVG Version: 6.00 Build 0)  -->
<!DOCTYPE svg PUBLIC "-//W3C//DTD SVG 1.1//EN" "http://www.w3.org/Graphics/SVG/1.1/DTD/svg11.dtd">
<svg version="1.1" id="图层_1" xmlns="http://www.w3.org/2000/svg" xmlns:xlink="http://www.w3.org/1999/xlink" x="0px" y="0px"
	 width="113.386px" height="170.079px" viewBox="0 0 113.386 170.079" enable-background="new 0 0 113.386 170.079"
	 xml:space="preserve">
<g>
	<path fill-rule="evenodd" clip-rule="evenodd" d="M-459.231,17.112c0-40.754,0-81.507,0-122.261
		c0.022-0.086,0.054-0.17,0.066-0.258c0.348-2.491,2.129-4.462,4.576-5.049c0.327-0.079,0.661-0.129,0.991-0.191
		c15.931,0,31.861,0,47.792,0c0.086,0.021,0.172,0.052,0.26,0.062c1.279,0.13,2.402,0.623,3.354,1.48
		c1.4,1.262,2.031,2.848,2.031,4.734c-0.008,40.231-0.006,80.462-0.006,120.692c0,0.125-0.002,0.249-0.002,0.374
		c-0.014,1.113-0.316,2.147-0.926,3.074c-1.25,1.896-3.031,2.812-5.297,2.811c-15.533-0.001-31.066,0-46.6,0
		c-0.067,0-0.136,0-0.203-0.001c-2.854-0.054-5.185-1.886-5.857-4.609C-459.122,17.688-459.171,17.398-459.231,17.112z
		 M-400.936-44.013c0-20.07,0-40.141-0.004-60.211c0-0.417-0.006-0.843-0.08-1.25c-0.482-2.62-2.594-4.365-5.268-4.365
		c-15.59-0.001-31.18-0.001-46.77,0c-3.104,0-5.375,2.268-5.375,5.375c-0.002,40.299-0.001,80.598,0.001,120.896
		c0,0.282,0,0.568,0.045,0.846c0.438,2.707,2.566,4.517,5.31,4.52c2.24,0.002,4.48,0.001,6.721,0.001
		c13.339,0,26.678-0.002,40.016,0.002c1.229,0,2.35-0.318,3.322-1.073c1.443-1.119,2.086-2.614,2.084-4.429
		C-400.938-3.805-400.936-23.909-400.936-44.013z"/>
	<path fill-rule="evenodd" clip-rule="evenodd" d="M-432.291-106.506c0.005-1.485,1.191-2.658,2.681-2.65
		c1.467,0.007,2.639,1.187,2.643,2.656c0.002,1.478-1.193,2.678-2.666,2.674C-431.111-103.829-432.295-105.023-432.291-106.506z
		 M-429.615-104.604c1.023-0.009,1.875-0.864,1.877-1.888c0.004-1.034-0.873-1.903-1.906-1.892
		c-1.028,0.012-1.876,0.864-1.877,1.888C-431.523-105.461-430.652-104.597-429.615-104.604z"/>
</g>
<g>
	<path fill-rule="evenodd" clip-rule="evenodd" d="M26.809,67.336c0-14.127,0-28.253,0-42.38c0.021-0.084,0.054-0.167,0.063-0.252
		c0.173-1.548,0.79-2.896,1.855-4.025c1.454-1.541,3.254-2.254,5.373-2.253c15.067,0.009,30.135,0.005,45.202,0.005
		c0.154,0,0.31,0.003,0.465,0.007c1.376,0.038,2.638,0.449,3.753,1.248c2.067,1.48,3.057,3.515,3.057,6.052
		c-0.002,39.534-0.001,79.067-0.001,118.601c0,0.145,0.001,0.289-0.005,0.432c-0.077,1.885-0.761,3.512-2.107,4.838
		c-1.437,1.414-3.181,2.047-5.195,2.045c-15.045-0.01-30.09-0.005-45.135-0.006c-0.155,0-0.311-0.002-0.465-0.006
		c-3.123-0.098-5.783-2.201-6.598-5.228c-0.113-0.424-0.176-0.862-0.263-1.293c0-19.729,0-39.457,0-59.187
		c0.394-0.919,0.514-1.886,0.513-2.877c-0.004-4.337-0.007-8.674,0.003-13.011C27.326,69.104,27.183,68.201,26.809,67.336z
		 M85.803,85.034c0-19.771,0-39.542-0.005-59.314c0-0.462-0.019-0.934-0.107-1.386c-0.608-3.066-3.146-5.148-6.279-5.149
		c-15.144-0.004-30.288-0.003-45.432,0.005c-0.483,0-0.978,0.048-1.448,0.155c-2.918,0.659-4.924,3.159-4.934,6.149
		c-0.011,3.819-0.003,7.638-0.003,11.458c0,9.952-0.001,19.904,0.005,29.856c0,0.26,0.06,0.521,0.108,0.779
		c0.114,0.594,0.341,1.185,0.344,1.779c0.027,4.804,0.026,9.609-0.001,14.413c-0.003,0.607-0.205,1.214-0.313,1.821
		c-0.049,0.269-0.137,0.539-0.137,0.808c-0.006,19.339-0.006,38.679-0.005,58.019c0,0.266-0.006,0.533,0.024,0.797
		c0.39,3.305,3.035,5.668,6.368,5.669c15.144,0.005,30.288,0.005,45.432-0.008c0.58-0.001,1.176-0.077,1.735-0.228
		c2.799-0.754,4.646-3.229,4.646-6.176C85.803,124.665,85.803,104.851,85.803,85.034z"/>
	<path fill-rule="evenodd" clip-rule="evenodd" d="M35.692,45.633c-2.359-1.133-3.73-2.964-3.741-5.602
		c-0.011-2.625,1.332-4.463,3.703-5.634c-1.496-0.678-2.602-1.731-3.237-3.232c-0.636-1.505-0.657-3.036-0.068-4.559
		c0.958-2.479,3.364-3.986,6.082-3.833c2.498,0.14,4.705,1.991,5.391,4.468c0.615,2.223-0.11,5.604-3.461,7.155
		c0.457,0.287,0.913,0.584,1.384,0.859c0.104,0.062,0.255,0.062,0.384,0.063c1.361,0.004,2.724,0,4.085,0.003
		c1.244,0.003,2.057,0.809,2.062,2.056c0.006,1.771,0.005,3.542,0.001,5.313c-0.004,1.276-0.791,2.077-2.066,2.087
		c-1.383,0.011-2.768-0.006-4.15,0.012c-0.216,0.002-0.444,0.097-0.642,0.198c-0.382,0.195-0.745,0.426-1.15,0.662
		c1.478,0.652,2.583,1.682,3.235,3.157c0.655,1.484,0.701,3.005,0.154,4.527c-0.906,2.516-3.362,4.108-6.065,3.959
		c-2.623-0.144-4.877-2.059-5.501-4.671C31.487,50.104,32.607,46.989,35.692,45.633z M47.524,40.043c0-0.863,0.002-1.727-0.001-2.59
		c-0.003-0.902-0.466-1.363-1.376-1.365c-1.339-0.002-2.679,0.01-4.018-0.01c-0.276-0.004-0.574-0.073-0.822-0.194
		c-0.475-0.232-0.918-0.527-1.378-0.788c-0.449-0.255-0.577-0.816-0.236-1.182c0.13-0.139,0.32-0.23,0.498-0.314
		c2.128-0.998,3.384-3.249,3.008-5.551c-0.354-2.168-1.602-3.661-3.716-4.288c-2.109-0.625-3.992-0.094-5.449,1.559
		c-1.466,1.663-1.725,3.592-0.867,5.634c0.528,1.257,1.475,2.134,2.714,2.696c0.457,0.207,0.643,0.52,0.55,0.936
		c-0.074,0.327-0.322,0.475-0.607,0.604c-2.428,1.099-3.668,3.783-2.901,6.323c0.479,1.586,1.51,2.699,3.022,3.37
		c0.438,0.194,0.631,0.508,0.55,0.906c-0.069,0.341-0.32,0.499-0.62,0.63c-2.291,1.007-3.564,3.448-3.076,5.875
		c0.493,2.449,2.625,4.21,5.129,4.239c3.313,0.038,5.86-2.974,5.241-6.212c-0.352-1.84-1.409-3.139-3.109-3.91
		c-0.353-0.16-0.611-0.375-0.609-0.781c0.002-0.406,0.263-0.619,0.615-0.779c0.341-0.154,0.646-0.385,0.986-0.54
		c0.283-0.129,0.593-0.271,0.893-0.277c1.405-0.029,2.812-0.012,4.218-0.013c0.873-0.001,1.358-0.483,1.362-1.353
		C47.527,41.792,47.524,40.917,47.524,40.043z"/>
</g>
</svg>
