<?xml version="1.0" encoding="UTF-8"?>
<!DOCTYPE svg PUBLIC "-//W3C//DTD SVG 1.1//EN" "http://www.w3.org/Graphics/SVG/1.1/DTD/svg11.dtd">
<!-- Creator: CorelDRAW 2020 (64-Bit) -->
<svg xmlns="http://www.w3.org/2000/svg" xml:space="preserve" width="40mm" height="60mm" version="1.1" style="shape-rendering:geometricPrecision; text-rendering:geometricPrecision; image-rendering:optimizeQuality; fill-rule:evenodd; clip-rule:evenodd"
viewBox="0 0 4000 6000"
 xmlns:xlink="http://www.w3.org/1999/xlink"
 xmlns:xodm="http://www.corel.com/coreldraw/odm/2003">
 <defs>
  <style type="text/css">
   <![CDATA[
    .str0 {stroke:black;stroke-width:7.62;stroke-miterlimit:22.9256}
    .fil0 {fill:none}
   ]]>
  </style>
 </defs>
 <g id="图层_x0020_1">
  <metadata id="CorelCorpID_0Corel-Layer"/>
  <path class="fil0 str0" d="M2022.54 766.34c3.59,-23.05 -15.79,-39.21 -25.41,-39.95 -34.21,0 -61.94,27.73 -61.94,61.94 0,34.21 27.73,61.94 61.94,61.94 34.21,0 61.94,-27.73 61.94,-61.94 0,-34.21 -27.73,-61.94 -61.94,-61.94m-992.36 4604.13l1888.93 0c87.2,0 158.54,-71.35 158.54,-158.54l0 -4357.77c0,-87.2 -71.34,-158.54 -158.54,-158.54l-1800.6 0c-87.2,0 -158.54,71.34 -158.54,158.54l0 4357.77c0,87.2 71.34,158.54 158.54,158.54l34.09 0c51.2,0 80.47,9.94 92.19,25.15"/>
 </g>
</svg>
