<?xml version="1.0" encoding="UTF-8"?>
<!DOCTYPE svg PUBLIC "-//W3C//DTD SVG 1.1//EN" "http://www.w3.org/Graphics/SVG/1.1/DTD/svg11.dtd">
<!-- Creator: CorelDRAW 2020 (64-Bit) -->
<svg xmlns="http://www.w3.org/2000/svg" xml:space="preserve" width="40mm" height="60mm" version="1.1" style="shape-rendering:geometricPrecision; text-rendering:geometricPrecision; image-rendering:optimizeQuality; fill-rule:evenodd; clip-rule:evenodd"
viewBox="0 0 4000 6000"
 xmlns:xlink="http://www.w3.org/1999/xlink"
 xmlns:xodm="http://www.corel.com/coreldraw/odm/2003">
 <defs>
  <style type="text/css">
   <![CDATA[
    .str1 {stroke:#332C2B;stroke-width:20;stroke-miterlimit:22.9256}
    .str0 {stroke:#E62129;stroke-width:20;stroke-miterlimit:22.9256}
    .fil0 {fill:none}
   ]]>
  </style>
   <clipPath id="id0">
    <rect x="-45778.71" y="-4068.9" width="13806.05" height="17081.12"/>
   </clipPath>
 </defs>
 <g id="图层_x0020_1">
  <metadata id="CorelCorpID_0Corel-Layer"/>
  <g style="clip-path:url(#id0)">
   <image x="-45778.71" y="-4068.9" width="13806.05" height="17081.12" xlink:href="红魔 8 Pro+ -11i（背膜）_Images\红魔 8 Pro+ -11i（背膜）_ImgID1.png"/>
  </g>
  <rect class="fil0 str0" x="-45516.1" y="-3764.58" width="7640" height="16400"/>
  <rect class="fil0 str0" x="-45373.28" y="-3640.53" width="7354.36" height="16130.35" rx="300" ry="295.27"/>
  <path class="fil0 str0" d="M-41686.25 -3292.54c-117.63,0 -212.99,95.36 -212.99,212.99 0,117.63 95.36,212.99 212.99,212.99 117.63,0 212.99,-95.36 212.99,-212.99 0,-117.63 -95.36,-212.99 -212.99,-212.99 -117.63,0 -161.4,139.58 -162.06,188.52"/>
  <path class="fil0 str0" d="M-41692.27 -2670.12c-299.65,0 -542.57,242.92 -542.57,542.57 0,299.65 242.92,542.57 542.57,542.57 299.65,0 542.57,-242.92 542.57,-542.57 0,-299.65 -242.92,-542.57 -542.57,-542.57 -299.65,0 -452,375.67 -457.21,511.14"/>
  <path class="fil0 str0" d="M-41692.27 -1508.76c-299.65,0 -542.57,242.92 -542.57,542.57 0,299.65 242.92,542.57 542.57,542.57 299.65,0 542.57,-242.92 542.57,-542.57 0,-299.65 -242.92,-542.57 -542.57,-542.57 -299.65,0 -452,375.67 -457.21,511.14"/>
  <path class="fil0 str0" d="M-41692.27 -351.77c-277.64,0 -502.71,225.07 -502.71,502.71 0,277.64 225.07,502.71 502.71,502.71 277.64,0 502.71,-225.07 502.71,-502.71 0,-277.64 -225.07,-502.71 -502.71,-502.71 -277.64,0 -418.79,348.07 -423.62,473.59"/>
  <path class="fil0 str1" d="M-2143.86 7083.84l0 -6937.58c0,-164.98 -135.02,-300 -300,-300l-15530.35 0c-165,0 -300,135 -300,300l0 6754.36c0,165 135,300 300,300l15530.35 0c165,0 300,-135 300,-300 0,-165 9.32,-335.11 60.26,-420.44"/>
  <path class="fil0 str1" d="M-17926.22 3513.59c0,117.63 95.36,212.99 212.99,212.99 117.63,0 212.99,-95.36 212.99,-212.99 0,-117.63 -95.36,-212.99 -212.99,-212.99 -117.63,0 -212.99,95.36 -212.99,212.99 0,117.63 139.58,161.4 188.52,162.06"/>
  <path class="fil0 str1" d="M-17303.8 3519.61c0,299.65 242.92,542.57 542.57,542.57 299.65,0 542.57,-242.92 542.57,-542.57 0,-299.65 -242.92,-542.57 -542.57,-542.57 -299.65,0 -542.57,242.92 -542.57,542.57 0,299.65 375.67,452 511.14,457.21"/>
  <path class="fil0 str1" d="M-16142.44 3519.61c0,299.65 242.92,542.57 542.57,542.57 299.65,0 542.57,-242.92 542.57,-542.57 0,-299.65 -242.92,-542.57 -542.57,-542.57 -299.65,0 -542.57,242.92 -542.57,542.57 0,299.65 375.67,452 511.14,457.21"/>
  <path class="fil0 str1" d="M-14985.45 3519.61c0,277.64 225.07,502.71 502.71,502.71 277.64,0 502.71,-225.07 502.71,-502.71 0,-277.64 -225.07,-502.71 -502.71,-502.71 -277.64,0 -502.71,225.07 -502.71,502.71 0,277.64 348.07,418.79 473.59,423.62"/>
  <g id="_2398580446448">
   <path class="fil0 str1" d="M959.85 5338.18l2013.92 0c47.89,0 87.09,-39.2 87.09,-87.09l0 -4508.33c0,-47.9 -39.19,-87.09 -87.09,-87.09l-1960.74 0c-47.9,0 -87.09,39.19 -87.09,87.09l0 4508.33c0,47.9 39.19,87.09 87.09,87.09 47.9,0 97.28,2.7 122.05,17.49"/>
   <path class="fil0 str1" d="M1996.26 756.69c-34.15,0 -61.83,27.68 -61.83,61.83 0,34.15 27.68,61.83 61.83,61.83 34.15,0 61.83,-27.68 61.83,-61.83 0,-34.15 -27.68,-61.83 -61.83,-61.83 -34.15,0 -46.85,40.52 -47.05,54.73"/>
   <path class="fil0 str1" d="M1994.51 937.37c-86.98,0 -157.5,70.52 -157.5,157.51 0,86.98 70.52,157.5 157.5,157.5 86.99,0 157.51,-70.52 157.51,-157.5 0,-86.99 -70.52,-157.51 -157.51,-157.51 -86.98,0 -131.21,109.06 -132.72,148.38"/>
   <path class="fil0 str1" d="M1994.51 1274.51c-86.98,0 -157.5,70.51 -157.5,157.5 0,86.99 70.52,157.5 157.5,157.5 86.99,0 157.51,-70.51 157.51,-157.5 0,-86.99 -70.52,-157.5 -157.51,-157.5 -86.98,0 -131.21,109.05 -132.72,148.38"/>
   <path class="fil0 str1" d="M1994.51 1610.37c-80.59,0 -145.93,65.34 -145.93,145.93 0,80.6 65.34,145.94 145.93,145.94 80.6,0 145.93,-65.34 145.93,-145.94 0,-80.59 -65.33,-145.93 -145.93,-145.93 -80.59,0 -121.57,101.04 -122.97,137.48"/>
  </g>
 </g>
</svg>
