<?xml version="1.0" encoding="UTF-8"?>
<!DOCTYPE svg PUBLIC "-//W3C//DTD SVG 1.1//EN" "http://www.w3.org/Graphics/SVG/1.1/DTD/svg11.dtd">
<!-- Creator: CorelDRAW X8 -->
<svg xmlns="http://www.w3.org/2000/svg" xml:space="preserve" width="40mm" height="60mm" version="1.1" style="shape-rendering:geometricPrecision; text-rendering:geometricPrecision; image-rendering:optimizeQuality; fill-rule:evenodd; clip-rule:evenodd"
viewBox="0 0 4000 6000"
 xmlns:xlink="http://www.w3.org/1999/xlink">
 <defs>
  <style type="text/css">
   <![CDATA[
    .str0 {stroke:#332C2B;stroke-width:7.62}
    .fil0 {fill:none}
   ]]>
  </style>
 </defs>
 <g id="图层_x0020_1">
  <metadata id="CorelCorpID_0Corel-Layer"/>
  <path class="fil0 str0" d="M814 969c30,-8 52,-19 52,-70l0 -42c0,-59 -48,-108 -107,-108l0 0c-59,0 -107,49 -107,108l0 399c0,59 48,107 107,107l0 0c59,0 107,-48 107,-107l0 -357m-14 4451c-22,-23 -100,-42 -147,-42 -86,0 -156,-70 -156,-156l0 -4346c0,-86 70,-156 156,-156l2590 0c86,0 156,70 156,156l0 4346c0,86 -70,156 -156,156l-2678 0"/>
 </g>
</svg>
