<?xml version="1.0" encoding="UTF-8"?>
<!DOCTYPE svg PUBLIC "-//W3C//DTD SVG 1.1//EN" "http://www.w3.org/Graphics/SVG/1.1/DTD/svg11.dtd">
<!-- Creator: CorelDRAW 2020 (64-Bit) -->
<svg xmlns="http://www.w3.org/2000/svg" xml:space="preserve" width="40mm" height="60mm" version="1.1" style="shape-rendering:geometricPrecision; text-rendering:geometricPrecision; image-rendering:optimizeQuality; fill-rule:evenodd; clip-rule:evenodd"
viewBox="0 0 4000 6000"
 xmlns:xlink="http://www.w3.org/1999/xlink"
 xmlns:xodm="http://www.corel.com/coreldraw/odm/2003">
 <defs>
  <style type="text/css">
   <![CDATA[
    .str0 {stroke:#332C2B;stroke-width:20;stroke-miterlimit:22.9256}
    .fil0 {fill:none}
   ]]>
  </style>
   <clipPath id="id0">
    <rect x="-63641.57" y="-5945.22" width="16923.18" height="17129.57"/>
   </clipPath>
 </defs>
 <g id="图层_x0020_1">
  <metadata id="CorelCorpID_0Corel-Layer"/>
  <g style="clip-path:url(#id0)">
   <image x="-63641.57" y="-5945.22" width="16923.18" height="17129.57" xlink:href="Blade V40s -11i（前膜带壳）_Images\Blade V40s -11i（前膜带壳）_ImgID1.png"/>
  </g>
  <rect class="fil0 str0" x="-63262.25" y="-5454.81" width="7580" height="16350"/>
  <rect class="fil0 str0" x="-63088.31" y="-5264.3" width="7232.12" height="15922.17" rx="700" ry="735.6"/>
  <circle class="fil0 str0" cx="-59458.81" cy="-4810.34" r="230.23"/>
  <path class="fil0 str0" d="M-8439.6 6038.45l0 -6158.92c0,-379.67 -313.03,-690.32 -695.6,-690.32l-14430.99 0c-382.58,0 -695.6,310.64 -695.6,690.32l0 5751.46c0,379.68 313.02,690.32 695.6,690.32l14430.99 0c382.58,0 695.6,-310.64 695.6,-690.32 0,-379.68 39.56,-546.62 116.95,-653.11"/>
  <path class="fil0 str0" d="M-24088.05 2741.83c0,127.15 103.08,230.23 230.23,230.23 127.15,0 230.23,-103.08 230.23,-230.23 0,-127.15 -103.08,-230.23 -230.23,-230.23 -127.15,0 -230.23,103.08 -230.23,230.23 0,127.15 130.69,160.73 169.72,170.32"/>
  <g id="_2005873864336">
   <path class="fil0 str0" d="M1022.13 5321.56l1826.21 0c112.95,0 205.36,-92.41 205.36,-205.36l0 -4260.31c0,-112.95 -92.41,-205.36 -205.36,-205.36l-1710.94 0c-112.95,0 -205.36,92.41 -205.36,205.36l0 4260.31c0,112.95 92.41,205.36 205.36,205.36 112.94,0 151.42,9.18 179.17,28.97"/>
   <path class="fil0 str0" d="M1996.81 716.16c-37.3,0 -67.54,30.24 -67.54,67.55 0,37.3 30.24,67.54 67.54,67.54 37.3,0 67.54,-30.24 67.54,-67.54 0,-37.31 -30.24,-67.55 -67.54,-67.55 -37.3,0 -47.15,38.34 -49.97,49.79"/>
  </g>
 </g>
</svg>
