<?xml version="1.0" encoding="UTF-8"?>
<!DOCTYPE svg PUBLIC "-//W3C//DTD SVG 1.1//EN" "http://www.w3.org/Graphics/SVG/1.1/DTD/svg11.dtd">
<!-- Creator: CorelDRAW 2020 (64-Bit) -->
<svg xmlns="http://www.w3.org/2000/svg" xml:space="preserve" width="40mm" height="60mm" version="1.1" style="shape-rendering:geometricPrecision; text-rendering:geometricPrecision; image-rendering:optimizeQuality; fill-rule:evenodd; clip-rule:evenodd"
viewBox="0 0 4000 6000"
 xmlns:xlink="http://www.w3.org/1999/xlink"
 xmlns:xodm="http://www.corel.com/coreldraw/odm/2003">
 <defs>
  <style type="text/css">
   <![CDATA[
    .str0 {stroke:#332C2B;stroke-width:20;stroke-miterlimit:22.9256}
    .fil0 {fill:none}
   ]]>
  </style>
 </defs>
 <g id="图层_x0020_1">
  <metadata id="CorelCorpID_0Corel-Layer"/>
  <path class="fil0 str0" d="M-24001.3 8986.5l0 -615.48 0.17 0c440.01,0 800.01,-360 800.01,-800l0 -5517c0,-440 -360,-800 -800.01,-800l-0.17 0 0 -550c0,-27.5 -22.44,-50 -49.97,-50l-7932.59 0 0 402.92c0,55 -45,100 -100,100l-1421.9 0c-55,0 -100,-45 -100,-100l0 -402.92 -4452.57 0c-27.53,0 -49.97,22.5 -49.97,50l0 550 -0.42 0c-440,0 -800,360 -800,800l0 1880.88c0,36.82 66.78,59.84 66.78,97.57l0 1537.23c0,37.73 -66.78,58.28 -66.78,108.98l0 1892.34c0,440 359.99,800 800,800l0.42 0 0 549.99c0,27.51 22.44,50.01 49.97,50.01l325.06 0 0 -395.7c0,-55 45,-100 100,-100l1789.66 0c55,0 100,45 100,100l0 395.7 1280.6 0 0 -395.7c0,-55 45,-100 99.99,-100l2259.17 0c54.99,0 99.99,45 99.99,100l0 395.7 7952.59 0c27.53,0 49.97,-22.5 49.97,-50.01 0,-27.51 2.49,-123.13 33.09,-145.45"/>
  <path class="fil0 str0" d="M-38475.01 7521.79c0,110.51 89.58,200.09 200.09,200.09 110.51,0 200.09,-89.58 200.09,-200.09 0,-110.51 -89.58,-200.09 -200.09,-200.09 -110.51,0 -200.09,89.58 -200.09,200.09 0,110.51 127.28,149.21 153.41,153.84"/>
  <g id="_2402182455616">
   <path class="fil0 str0" d="M746.26 5111.1l184.16 0 0 0.05c0,131.66 107.72,239.38 239.37,239.38l1650.79 0c131.66,0 239.37,-107.72 239.37,-239.38l0 -0.05 164.57 0c8.23,0 14.96,-6.71 14.96,-14.95l0 -2373.58 -120.56 0c-16.45,0 -29.92,-13.46 -29.92,-29.92l0 -425.46c0,-16.45 13.47,-29.92 29.92,-29.92l120.56 0 0 -1332.29c0,-8.24 -6.73,-14.95 -14.96,-14.95l-164.57 0 0 -0.13c0,-131.65 -107.71,-239.37 -239.37,-239.37l-562.79 0c-11.02,0 -17.91,19.98 -29.2,19.98l-459.97 0c-11.29,0 -17.43,-19.98 -32.6,-19.98l-566.23 0c-131.65,0 -239.37,107.72 -239.37,239.37l0 0.13 -164.57 0c-8.23,0 -14.96,6.71 -14.96,14.95l0 97.27 118.4 0c16.45,0 29.92,13.46 29.92,29.92l0 535.5c0,16.45 -13.47,29.92 -29.92,29.92l-118.4 0 0 383.18 118.4 0c16.45,0 29.92,13.46 29.92,29.92l0 675.98c0,16.46 -13.47,29.92 -29.92,29.92l-118.4 0 0 2379.56c0,8.24 6.73,14.95 14.96,14.95 8.23,0 36.84,0.75 43.52,9.9"/>
   <path class="fil0 str0" d="M1184.52 780.3c-33.06,0 -59.87,26.81 -59.87,59.87 0,33.07 26.81,59.88 59.87,59.88 33.07,0 59.87,-26.81 59.87,-59.88 0,-33.06 -26.8,-59.87 -59.87,-59.87 -33.06,0 -44.64,38.09 -46.03,45.91"/>
  </g>
 </g>
</svg>
