<?xml version="1.0" encoding="UTF-8"?>
<!DOCTYPE svg PUBLIC "-//W3C//DTD SVG 1.1//EN" "http://www.w3.org/Graphics/SVG/1.1/DTD/svg11.dtd">
<!-- Creator: CorelDRAW 2020 (64-Bit) -->
<svg xmlns="http://www.w3.org/2000/svg" xml:space="preserve" width="40mm" height="60mm" version="1.1" style="shape-rendering:geometricPrecision; text-rendering:geometricPrecision; image-rendering:optimizeQuality; fill-rule:evenodd; clip-rule:evenodd"
viewBox="0 0 4000 6000"
 xmlns:xlink="http://www.w3.org/1999/xlink"
 xmlns:xodm="http://www.corel.com/coreldraw/odm/2003">
 <defs>
  <style type="text/css">
   <![CDATA[
    .str0 {stroke:#222222;stroke-width:7.62;stroke-miterlimit:22.9256}
    .fil0 {fill:none}
   ]]>
  </style>
 </defs>
 <g id="图层_x0020_1">
  <metadata id="CorelCorpID_0Corel-Layer"/>
  <path class="fil0 str0" d="M3245.12 1123.56c-28.67,0 -52.12,23.45 -52.12,52.12l0 544.06c0,28.67 23.45,52.12 52.12,52.12l0 0c28.67,0 52.12,-23.45 52.12,-52.12l0 -544.06c0,-28.67 -23.45,-52.12 -52.12,-52.12 -28.67,0 -41.63,28.6 -41.63,39.34m35.83 881.19c-28.67,0 -52.12,23.45 -52.12,52.12l0 669.89c0,28.67 23.45,52.12 52.12,52.12l0 0c28.67,0 52.12,-23.45 52.12,-52.12l0 -669.89c0,-28.67 -23.45,-52.12 -52.12,-52.12 -28.67,0 -43.5,32.43 -44.65,43.94m-51.84 2968.92l0 -4135.26c0,-7.57 6.19,-13.76 13.76,-13.76l165.14 0c7.57,0 13.76,6.19 13.76,13.76l0 4135.26c0,7.57 -6.19,13.76 -13.76,13.76l-165.14 0c-7.57,0 -13.76,-6.19 -13.76,-13.76zm-1666.98 -4152.3c-1.46,-19.45 -18.59,-37.63 -54.15,-40.38 -126.5,0 -229.04,102.55 -229.04,229.05 0,126.49 102.54,229.04 229.04,229.04 126.5,0 229.04,-102.55 229.04,-229.04 0,-126.5 -102.54,-229.05 -229.04,-229.05m54.15 686.59c-1.46,-19.44 -18.59,-37.63 -54.15,-40.37 -126.5,0 -229.04,102.54 -229.04,229.04 0,126.5 102.54,229.04 229.04,229.04 126.5,0 229.04,-102.54 229.04,-229.04 0,-126.5 -102.54,-229.04 -229.04,-229.04m-203.25 -680.73l469.24 0c2.96,0 5.37,2.42 5.37,5.37l0 1200.62c0,2.96 -2.41,5.37 -5.37,5.37l-469.24 0c-42.71,0 -77.65,-34.94 -77.65,-77.65l0 -1056.05c0,-42.72 34.94,-77.66 77.65,-77.66zm580.53 284.86c-12.88,3.45 -22.33,8.14 -22.33,30.24l0 18.31c0,25.52 20.87,46.39 46.38,46.39l0.01 0c25.5,0 46.39,-20.87 46.39,-46.39l0 -139.17c0,-25.52 -20.87,-46.39 -46.39,-46.39l-0.01 0c-25.51,0 -46.38,20.89 -46.38,46.39l0 120.86m-44.96 -318.61l125.6 0c32.84,0 59.7,26.86 59.7,59.7l0 1100.29c0,32.84 -26.86,59.7 -59.7,59.7l-125.6 0c-2.97,0 -5.39,-2.43 -5.39,-5.39l0 -1208.91c0,-2.97 2.42,-5.39 5.39,-5.39zm-524.34 -33.68l637.62 0c55.91,0 101.64,45.73 101.64,101.64l0 1082.43c0,55.91 -45.73,101.64 -101.64,101.64l-637.62 0c-55.91,0 -101.64,-45.73 -101.64,-101.64l0 -1082.43c0,-55.91 45.73,-101.64 101.64,-101.64zm-205.43 4530.93l1795.16 0c139.01,0 252.75,-113.74 252.75,-252.75l0 -4162.33c0,-139.01 -113.74,-252.75 -252.75,-252.75l-1596.48 0c-139,0 -252.74,113.74 -252.74,252.75l0 4162.33c0,139.01 113.74,252.75 252.74,252.75 139.01,0 218.66,7.63 266.22,32.17m-721.93 -3021.91c-41.49,0 -75.43,33.95 -75.43,75.44l0 345.19c0,41.49 33.94,75.43 75.43,75.43l0 0c41.49,0 75.44,-33.94 75.44,-75.43l0 -345.19c0,-41.49 -33.95,-75.44 -75.44,-75.44 -41.49,0 -55.18,38.87 -55.95,54.21m-37.64 2668.98l0 -4135.26c0,-7.57 6.19,-13.76 13.76,-13.76l165.14 0c7.57,0 13.76,6.19 13.76,13.76l0 4135.26c0,7.57 -6.19,13.76 -13.76,13.76l-165.14 0c-7.57,0 -13.76,-6.19 -13.76,-13.76z"/>
 </g>
</svg>
