<?xml version="1.0" encoding="UTF-8"?>
<!DOCTYPE svg PUBLIC "-//W3C//DTD SVG 1.1//EN" "http://www.w3.org/Graphics/SVG/1.1/DTD/svg11.dtd">
<!-- Creator: CorelDRAW 2020 (64-Bit) -->
<svg xmlns="http://www.w3.org/2000/svg" xml:space="preserve" width="40mm" height="60mm" version="1.1" style="shape-rendering:geometricPrecision; text-rendering:geometricPrecision; image-rendering:optimizeQuality; fill-rule:evenodd; clip-rule:evenodd"
viewBox="0 0 4000 6000"
 xmlns:xlink="http://www.w3.org/1999/xlink"
 xmlns:xodm="http://www.corel.com/coreldraw/odm/2003">
 <defs>
  <style type="text/css">
   <![CDATA[
    .str0 {stroke:black;stroke-width:7.62;stroke-miterlimit:22.9256}
    .fil0 {fill:none}
   ]]>
  </style>
 </defs>
 <g id="图层_x0020_1">
  <metadata id="CorelCorpID_0Corel-Layer"/>
  <path class="fil0 str0" d="M1074.43 5333.06l1724.07 0c122.48,0 222.73,-100.25 222.73,-222.73l0 -4231.93c0,-122.47 -100.22,-222.73 -222.73,-222.73l-437.25 0 -259.96 0c-19.68,0 -35.75,16.06 -35.75,35.75l0 12.65c0,39.68 -32.46,72.14 -72.14,72.14l0 0c-39.68,0 -72.14,-32.49 -72.14,-72.14l0 -12.65c0,-19.65 -16.07,-35.75 -35.75,-35.75l-259.96 0 -437.26 0c-122.5,0 -222.72,100.23 -222.72,222.73l0 4231.93c0,122.5 100.25,222.73 222.72,222.73l28.03 0c54.68,0 86.05,11.48 95.57,22.61"/>
 </g>
</svg>
