<?xml version="1.0" encoding="UTF-8"?>
<!DOCTYPE svg PUBLIC "-//W3C//DTD SVG 1.1//EN" "http://www.w3.org/Graphics/SVG/1.1/DTD/svg11.dtd">
<!-- Creator: CorelDRAW -->
<svg xmlns="http://www.w3.org/2000/svg" xml:space="preserve" width="40mm" height="60mm" style="shape-rendering:geometricPrecision; text-rendering:geometricPrecision; image-rendering:optimizeQuality; fill-rule:evenodd; clip-rule:evenodd"
viewBox="0 0 40 60"
 xmlns:xlink="http://www.w3.org/1999/xlink">
 <defs>
  <style type="text/css">
   <![CDATA[
    .str0 {stroke:#1F1A17;stroke-width:0.194}
    .fil0 {fill:none}
   ]]>
  </style>
 </defs>
 <g id="图层_x0020_4">
  <metadata id="CorelCorpID_0Corel-Layer"/>
  <g id="_88092536">
   <g id="_166186280">
    <g id="_164389208">
     <path id="_89125296" class="fil0 str0" d="M16.8287 41.2519l0.3468 0.0303c0.131,0.0195 0.2432,0.0403 0.3555,0.0611 2.9885,0.5739 5.1509,3.1806 5.1509,6.2096 0,3.5312 -2.8358,6.3716 -6.3612,6.3716 -3.4941,0 -6.3391,-2.8508 -6.3391,-6.3519 0,-3.4976 2.8392,-6.345 6.3264,-6.345 0.1747,0 0.3483,0.0081 0.5207,0.0243z"/>
     <path id="_165239384" class="fil0 str0" d="M32.7668 41.2519l0.3468 0.0303c0.1311,0.0195 0.2433,0.0403 0.3555,0.0611 2.9885,0.5739 5.1509,3.1806 5.1509,6.2096 0,3.5312 -2.8358,6.3716 -6.3611,6.3716 -3.4941,0 -6.3392,-2.8508 -6.3392,-6.3519 0,-3.4976 2.8393,-6.345 6.3265,-6.345 0.1747,0 0.3482,0.0081 0.5206,0.0243z"/>
     <path id="_163756328" class="fil0 str0" d="M32.7668 24.0596l0.3468 0.0302c0.1311,0.0196 0.2433,0.0404 0.3555,0.0612 2.9885,0.5739 5.1509,3.1806 5.1509,6.2096 0,3.5311 -2.8358,6.3716 -6.3611,6.3716 -3.4941,0 -6.3392,-2.8509 -6.3392,-6.3519 0,-3.4976 2.8393,-6.345 6.3265,-6.345 0.1747,0 0.3482,0.0081 0.5206,0.0243z"/>
     <path id="_164892736" class="fil0 str0" d="M16.8287 24.0596l0.3468 0.0302c0.131,0.0196 0.2432,0.0404 0.3555,0.0612 2.9885,0.5739 5.1509,3.1806 5.1509,6.2096 0,3.5311 -2.8358,6.3716 -6.3612,6.3716 -3.4941,0 -6.3391,-2.8509 -6.3391,-6.3519 0,-3.4976 2.8392,-6.345 6.3264,-6.345 0.1747,0 0.3483,0.0081 0.5207,0.0243z"/>
     <path id="_164680728" class="fil0 str0" d="M16.8287 6.9488l0.3468 0.0302c0.131,0.0196 0.2432,0.0404 0.3555,0.0612 2.9885,0.5739 5.1509,3.1806 5.1509,6.2096 0,3.5311 -2.8358,6.3716 -6.3612,6.3716 -3.4941,0 -6.3391,-2.8509 -6.3391,-6.3519 0,-3.4977 2.8392,-6.345 6.3264,-6.345 0.1747,0 0.3483,0.0081 0.5207,0.0243z"/>
     <path id="_88095504" class="fil0 str0" d="M32.7419 6.9488l0.3468 0.0302c0.1311,0.0196 0.2433,0.0404 0.3555,0.0612 2.9885,0.5739 5.151,3.1806 5.151,6.2096 0,3.5311 -2.8358,6.3716 -6.3612,6.3716 -3.4941,0 -6.3392,-2.8509 -6.3392,-6.3519 0,-3.4977 2.8393,-6.345 6.3265,-6.345 0.1747,0 0.3482,0.0081 0.5206,0.0243z"/>
    </g>
   </g>
  </g>
 </g>
</svg>
