<?xml version="1.0" encoding="UTF-8"?>
<!DOCTYPE svg PUBLIC "-//W3C//DTD SVG 1.1//EN" "http://www.w3.org/Graphics/SVG/1.1/DTD/svg11.dtd">
<!-- Creator: CorelDRAW X8 -->
<svg xmlns="http://www.w3.org/2000/svg" xml:space="preserve" width="40mm" height="60mm" version="1.1" style="shape-rendering:geometricPrecision; text-rendering:geometricPrecision; image-rendering:optimizeQuality; fill-rule:evenodd; clip-rule:evenodd"
viewBox="0 0 4000 6000"
 xmlns:xlink="http://www.w3.org/1999/xlink">
 <defs>
  <style type="text/css">
   <![CDATA[
    .fil0 {fill:black;fill-rule:nonzero}
   ]]>
  </style>
 </defs>
 <g id="图层_x0020_1">
  <metadata id="CorelCorpID_0Corel-Layer"/>
  <g>
   <path class="fil0" d="M1153 693l16 11 0 1 -4 6 -5 5 -5 6 -4 5 -5 5 -4 5 -5 4 -5 5 -4 4 -5 4 -5 4 -5 3 -4 4 -5 3 -5 3 -4 3 -5 2 -5 3 -4 2 -5 2 -4 2 -5 2 -4 2 -4 1 -4 1 -5 1 -4 1 -4 1 -4 1 -4 0 -3 1 -4 0 -1 -20 3 0 3 -1 3 0 4 -1 3 0 4 -1 3 -1 4 -1 4 -1 3 -2 4 -1 4 -2 4 -2 4 -2 4 -2 4 -2 5 -3 4 -3 4 -3 4 -3 5 -3 4 -4 4 -3 5 -4 4 -4 4 -4 5 -5 4 -5 4 -4 5 -5 4 -6 4 -5 0 0zm16 11l0 0 0 1 0 -1zm72 -48l0 20 0 0 -4 0 -3 0 -4 0 -3 0 -3 0 -3 0 -3 0 -2 1 -3 0 -3 0 -2 0 -2 1 -3 0 -2 1 -2 0 -2 1 -2 1 -1 0 -2 1 -2 1 -2 1 -1 1 -2 2 -2 1 -1 1 -2 2 -2 2 -2 2 -1 2 -2 2 -2 3 -2 2 -16 -11 2 -3 2 -3 2 -3 2 -2 3 -3 2 -2 2 -2 2 -2 3 -2 2 -2 3 -2 2 -1 3 -2 2 -1 3 -1 3 -1 3 -1 2 -1 3 0 3 -1 3 0 3 -1 3 0 3 0 3 -1 3 0 3 0 4 0 3 0 3 0 4 0 4 0 0 0zm796 50l-2 19 0 0 -19 -2 -20 -2 -21 -2 -22 -2 -22 -2 -23 -2 -24 -2 -25 -2 -25 -2 -25 -3 -26 -2 -26 -2 -27 -2 -27 -2 -27 -2 -27 -2 -27 -2 -28 -1 -27 -2 -27 -2 -27 -1 -27 -2 -27 -1 -26 -1 -26 -1 -25 -1 -25 -1 -25 0 -24 -1 -23 0 -23 0 -21 0 0 -20 22 0 22 0 24 0 24 1 24 0 25 1 26 1 26 1 26 1 27 1 27 2 27 1 27 2 28 2 27 1 27 2 28 2 27 2 27 2 26 2 27 2 25 3 26 2 25 2 25 2 23 2 24 2 22 2 22 2 21 3 20 2 19 2 0 0zm704 102l-3 19 0 0 -16 -3 -18 -3 -18 -3 -20 -3 -20 -3 -21 -4 -22 -3 -22 -4 -23 -3 -24 -4 -24 -4 -24 -3 -24 -4 -25 -4 -25 -4 -25 -3 -25 -4 -25 -3 -25 -4 -24 -3 -25 -4 -24 -3 -23 -3 -23 -3 -23 -3 -21 -3 -22 -3 -20 -2 -19 -3 -19 -2 -18 -2 -16 -2 2 -19 17 1 17 2 19 2 19 3 21 2 21 3 22 3 23 3 23 3 23 3 24 3 24 4 25 3 25 4 25 3 25 4 25 4 25 3 25 4 24 4 24 4 24 3 24 4 23 4 22 3 22 4 21 3 21 3 19 4 18 3 18 3 16 3 0 0zm0 0l0 0 2 0 -2 0zm252 279l-20 1 0 0 -1 -17 -1 -15 -2 -15 -1 -14 -2 -13 -3 -13 -3 -12 -3 -12 -4 -11 -4 -10 -4 -10 -5 -10 -5 -8 -6 -9 -6 -8 -7 -7 -7 -7 -7 -7 -8 -6 -9 -6 -9 -6 -9 -5 -10 -5 -11 -5 -12 -5 -11 -4 -13 -4 -13 -4 -14 -3 -14 -4 -15 -3 -16 -3 3 -19 17 3 15 3 15 3 14 4 14 4 13 4 13 5 12 4 11 5 11 6 11 6 9 6 10 7 9 7 8 7 8 8 7 9 7 9 7 9 5 10 6 10 5 11 4 11 4 12 4 13 3 13 2 13 2 14 2 15 2 15 1 16 1 17 0 0zm29 1882l-20 0 0 0 0 -45 0 -48 0 -51 -1 -52 0 -55 0 -56 -1 -59 0 -60 -1 -61 -1 -62 0 -64 -1 -64 -1 -65 -1 -65 -1 -66 -1 -66 -1 -66 -1 -66 -1 -66 -1 -65 -1 -64 -2 -64 -1 -62 -1 -62 -2 -60 -1 -58 -1 -57 -2 -55 -1 -53 -2 -50 -1 -49 -1 -45 20 -1 1 46 1 48 2 51 1 53 2 55 1 56 1 59 2 60 1 61 1 63 2 63 1 65 1 65 1 66 1 65 1 66 1 67 1 65 1 66 1 65 1 64 0 64 1 62 1 61 0 60 1 58 0 57 0 55 1 52 0 51 0 48 0 45 0 0zm-3 1934l-20 -1 0 0 2 -43 2 -45 2 -49 1 -52 1 -54 1 -56 1 -59 0 -60 1 -63 0 -63 0 -66 0 -66 0 -67 0 -68 -1 -69 0 -69 0 -69 -1 -69 -1 -69 0 -68 -1 -68 0 -66 -1 -66 -1 -64 0 -63 -1 -61 0 -60 -1 -57 0 -55 0 -52 0 -50 0 -47 20 0 0 47 0 50 0 52 0 55 1 57 0 60 1 61 0 63 1 64 1 66 0 66 1 68 0 68 1 69 1 69 0 69 0 69 1 69 0 68 0 67 0 66 0 66 0 64 -1 62 0 61 -1 58 -1 57 -1 54 -1 52 -2 48 -2 46 -2 43 0 0zm-194 258l-4 -19 0 0 10 -3 11 -3 10 -3 10 -3 9 -4 9 -3 9 -4 8 -4 8 -5 7 -5 7 -5 7 -5 7 -5 6 -6 6 -6 5 -7 5 -7 5 -7 5 -8 4 -8 4 -9 4 -9 3 -10 4 -10 3 -10 2 -12 3 -11 2 -13 1 -13 2 -13 1 -14 1 -15 20 1 -1 15 -1 15 -2 14 -2 13 -2 13 -2 13 -3 12 -3 11 -4 11 -3 10 -4 10 -5 10 -5 9 -5 8 -5 9 -6 7 -6 8 -7 7 -7 7 -7 6 -8 6 -8 5 -8 5 -9 5 -9 5 -9 4 -10 4 -10 4 -10 3 -10 3 -11 3 -12 3 0 0zm-762 130l-3 -20 0 0 18 -2 20 -3 19 -3 21 -3 21 -3 22 -3 22 -3 23 -4 24 -3 23 -3 25 -4 24 -4 25 -4 25 -3 25 -4 26 -4 26 -5 25 -4 26 -4 26 -4 26 -5 25 -4 26 -5 25 -5 26 -5 25 -4 24 -5 25 -5 23 -5 24 -6 23 -5 23 -5 4 19 -22 6 -24 5 -23 5 -24 5 -25 5 -25 5 -25 5 -25 5 -25 5 -26 4 -26 5 -26 4 -25 5 -26 4 -26 4 -26 4 -25 4 -26 4 -25 4 -25 4 -24 4 -25 3 -24 4 -23 3 -23 4 -22 3 -22 3 -21 3 -21 3 -20 3 -19 2 -18 3 0 0zm-779 69l-1 -20 0 0 23 -1 23 -1 24 -1 24 -1 25 -1 24 -2 25 -1 25 -2 26 -2 25 -1 26 -2 26 -2 25 -2 26 -2 26 -3 26 -2 26 -2 25 -3 26 -2 25 -3 25 -2 25 -3 24 -3 24 -2 24 -3 24 -3 23 -3 22 -2 22 -3 22 -3 21 -3 20 -3 3 20 -21 3 -21 3 -21 3 -22 2 -23 3 -23 3 -24 3 -23 3 -25 2 -24 3 -25 3 -25 2 -25 3 -26 2 -26 3 -25 2 -26 2 -26 3 -26 2 -26 2 -26 2 -25 2 -26 1 -25 2 -26 2 -25 1 -24 1 -25 2 -24 1 -24 1 -23 1 -23 1 0 0zm0 0l0 0 0 0 0 0zm-109 -47l15 -13 0 0 4 4 3 4 3 3 3 4 3 3 2 2 3 3 2 2 3 2 2 2 2 1 3 2 2 1 2 1 2 1 2 1 2 1 3 1 2 0 3 1 2 0 3 0 3 1 3 0 3 0 3 0 4 0 4 0 4 0 4 0 5 0 4 0 1 20 -5 0 -4 0 -5 0 -4 0 -4 0 -4 0 -3 0 -4 0 -4 0 -3 -1 -4 0 -3 -1 -3 0 -3 -1 -4 -1 -3 -1 -3 -1 -3 -2 -3 -1 -3 -2 -3 -2 -3 -2 -3 -2 -3 -3 -3 -3 -3 -2 -3 -4 -3 -3 -3 -3 -3 -4 -4 -4 -3 -4 0 0zm-75 -94l17 -11 0 0 1 2 2 2 2 3 2 2 2 3 2 3 2 3 2 3 3 3 2 3 3 3 2 3 3 3 2 4 3 3 3 3 2 3 3 4 2 3 3 3 3 3 2 3 3 3 2 3 3 3 2 3 2 3 2 3 2 2 3 3 1 2 2 2 -15 13 -2 -2 -2 -3 -2 -2 -2 -3 -2 -2 -3 -3 -2 -3 -2 -3 -3 -3 -2 -3 -3 -3 -2 -3 -3 -3 -3 -4 -2 -3 -3 -3 -3 -4 -2 -3 -3 -3 -2 -3 -3 -3 -3 -4 -2 -3 -2 -3 -3 -3 -2 -3 -2 -3 -2 -3 -2 -2 -2 -3 -2 -3 -2 -2 0 0zm17 -11l0 0 1 2 -1 -2zm-116 -364l20 -1 0 0 0 15 1 15 0 15 1 14 0 13 1 13 1 13 1 13 1 12 2 12 1 11 2 12 2 11 2 11 2 11 3 10 2 11 3 10 4 10 3 10 4 10 4 10 4 10 4 10 5 10 5 10 6 10 5 11 6 10 7 10 7 11 7 11 -17 11 -7 -11 -7 -11 -7 -11 -6 -10 -6 -11 -6 -10 -5 -11 -5 -10 -5 -11 -4 -10 -4 -11 -4 -10 -4 -11 -3 -10 -3 -11 -3 -11 -2 -11 -3 -11 -2 -12 -2 -11 -2 -12 -1 -12 -2 -12 -1 -13 -1 -12 -1 -13 -1 -14 0 -14 -1 -14 0 -14 -1 -15 0 -15 0 0zm-31 -3771l20 0 0 0 0 89 1 95 0 100 1 104 1 109 0 113 1 117 1 119 1 123 0 125 1 128 1 129 1 131 1 131 1 133 1 133 1 133 1 133 1 132 1 131 2 130 1 128 1 125 1 124 1 120 2 118 1 114 1 109 1 106 2 101 1 96 1 91 -20 1 -1 -91 -1 -96 -2 -102 -1 -105 -1 -110 -1 -114 -2 -118 -1 -120 -1 -123 -1 -126 -1 -128 -2 -130 -1 -131 -1 -132 -1 -133 -1 -133 -1 -133 -1 -132 -1 -132 -1 -131 -1 -129 -1 -128 0 -125 -1 -123 -1 -119 -1 -117 0 -113 -1 -109 -1 -104 0 -100 -1 -95 0 -89 0 0zm49 -189l17 11 0 0 -4 5 -3 6 -4 5 -2 5 -3 5 -3 5 -2 5 -3 5 -2 5 -2 5 -2 5 -2 5 -2 5 -1 5 -1 5 -2 5 -1 6 -1 5 -1 6 -1 5 -1 6 0 5 -1 6 -1 6 0 6 0 6 -1 7 0 6 0 7 0 6 0 7 0 7 -20 0 0 -7 0 -7 0 -7 0 -7 0 -6 1 -7 0 -6 1 -6 0 -7 1 -6 0 -6 1 -6 1 -6 1 -6 1 -5 2 -6 1 -6 2 -6 1 -5 2 -6 2 -5 2 -6 3 -5 2 -6 3 -5 2 -6 3 -5 3 -5 3 -6 4 -5 3 -6 4 -5 0 0zm134 -191l16 11 0 0 -4 6 -4 6 -4 6 -4 6 -4 6 -4 6 -4 6 -5 6 -4 7 -4 6 -5 6 -4 6 -4 7 -5 6 -4 6 -4 6 -5 6 -4 7 -5 6 -4 6 -4 6 -4 6 -5 6 -4 6 -4 6 -4 5 -4 6 -4 6 -4 5 -4 6 -4 5 -3 5 -17 -11 4 -5 4 -6 4 -5 4 -6 4 -5 4 -6 4 -6 4 -6 4 -6 4 -6 5 -6 4 -6 4 -6 5 -6 4 -6 4 -6 5 -6 4 -7 4 -6 5 -6 4 -6 4 -7 5 -6 4 -6 4 -6 4 -6 5 -6 4 -6 4 -6 4 -6 4 -6 4 -6 0 0zm0 0l0 0 0 0 0 0zm24 -41l20 -4 0 2 0 2 0 1 0 1 -1 2 0 1 0 2 -1 1 0 1 -1 2 0 1 -1 2 -1 1 0 2 -1 1 -1 2 -1 2 -1 1 -1 2 -1 2 -1 2 -1 2 -1 2 -2 2 -1 2 -1 2 -2 2 -1 2 -2 2 -1 3 -2 2 -2 2 -16 -11 2 -2 1 -3 2 -2 1 -2 2 -2 1 -2 1 -2 1 -2 2 -2 1 -2 1 -2 1 -1 1 -2 1 -1 0 -2 1 -1 1 -2 1 -1 0 -1 1 -1 0 -1 1 -1 0 -1 0 -1 0 -1 1 -1 0 0 0 0 0 -1 0 0 0 0 0 1z"/>
  </g>
 </g>
</svg>
