<?xml version="1.0" encoding="UTF-8"?>
<!DOCTYPE svg PUBLIC "-//W3C//DTD SVG 1.1//EN" "http://www.w3.org/Graphics/SVG/1.1/DTD/svg11.dtd">
<!-- Creator: CorelDRAW X8 -->
<svg xmlns="http://www.w3.org/2000/svg" xml:space="preserve" width="40mm" height="60mm" version="1.1" style="shape-rendering:geometricPrecision; text-rendering:geometricPrecision; image-rendering:optimizeQuality; fill-rule:evenodd; clip-rule:evenodd"
viewBox="0 0 4000 6000"
 xmlns:xlink="http://www.w3.org/1999/xlink">
 <defs>
  <style type="text/css">
   <![CDATA[
    .str0 {stroke:black;stroke-width:7.62;stroke-linejoin:bevel}
    .fil0 {fill:none}
   ]]>
  </style>
 </defs>
 <g id="图层_x0020_1">
  <metadata id="CorelCorpID_0Corel-Layer"/>
  <path class="fil0 str0" d="M3204 5088c0,18 -1,37 -3,55 -7,70 -54,131 -120,155 -29,11 -59,18 -89,21 -330,21 -661,31 -992,31 -326,0 -651,-10 -977,-30 -34,-2 -68,-10 -100,-22 -46,-17 -83,-51 -104,-95 -15,-33 -23,-68 -23,-104l0 -4198c0,-36 8,-71 23,-104 21,-44 58,-78 104,-95 32,-12 66,-20 100,-22 326,-20 651,-30 977,-30 331,0 662,10 992,31 30,3 60,10 89,21 66,24 113,85 120,155 2,18 3,37 3,55l0 4176zm-1940 94c0,-29 -25,-53 -54,-53 -30,0 -54,24 -54,53 0,30 24,54 54,54 29,0 54,-24 54,-54zm-91 -4304c0,-36 -30,-66 -66,-66 -37,0 -66,30 -66,66 0,37 29,66 66,66 36,0 66,-29 66,-66zm212 87l101 0c32,0 61,-17 77,-44 16,-28 16,-62 0,-89 -16,-27 -45,-44 -77,-44l-101 0c-32,0 -61,17 -77,44 -16,27 -16,61 0,89 16,27 45,44 77,44zm935 -157c-214,-10 -430,-11 -644,-1 -27,8 -43,35 -36,62 7,26 9,42 36,36 215,8 430,8 645,0 27,-9 41,-38 32,-65 -9,-27 -6,-41 -33,-32z"/>
 </g>
</svg>
