<?xml version="1.0" encoding="UTF-8"?>
<!DOCTYPE svg PUBLIC "-//W3C//DTD SVG 1.1//EN" "http://www.w3.org/Graphics/SVG/1.1/DTD/svg11.dtd">
<!-- Creator: CorelDRAW 2020 (64-Bit) -->
<svg xmlns="http://www.w3.org/2000/svg" xml:space="preserve" width="40mm" height="60mm" version="1.1" style="shape-rendering:geometricPrecision; text-rendering:geometricPrecision; image-rendering:optimizeQuality; fill-rule:evenodd; clip-rule:evenodd"
viewBox="0 0 4000 6000"
 xmlns:xlink="http://www.w3.org/1999/xlink"
 xmlns:xodm="http://www.corel.com/coreldraw/odm/2003">
 <defs>
  <style type="text/css">
   <![CDATA[
    .str1 {stroke:#332C2B;stroke-width:20;stroke-miterlimit:22.9256}
    .str0 {stroke:#E62129;stroke-width:20;stroke-miterlimit:22.9256}
    .fil0 {fill:none}
   ]]>
  </style>
   <clipPath id="id0">
    <rect x="-31940.39" y="-3236.87" width="4439.78" height="6689.27"/>
   </clipPath>
 </defs>
 <g id="图层_x0020_1">
  <metadata id="CorelCorpID_0Corel-Layer"/>
  <g style="clip-path:url(#id0)">
   <image x="-31940.39" y="-3236.87" width="4439.78" height="6689.27" xlink:href="GSW5 Pro -11i（手表）_Images\GSW5 Pro -11i（手表）_ImgID1.png"/>
  </g>
  <rect class="fil0 str0" x="-31479.29" y="-2048.82" width="3378.05" height="4150"/>
  <rect class="fil0 str0" x="-31372.8" y="-1911.88" width="3165.07" height="3916.12" rx="850" ry="866.4"/>
  <path class="fil0 str1" d="M-16004.38 5234.6l0 -1941.32c0,-467.48 -382.52,-850 -850,-850l-2216.12 0c-467.5,0 -850,382.5 -850,850l0 1465.07c0,467.5 382.5,850 850,850l2216.12 0c467.5,0 850,-382.5 850,-850 0,-467.5 55.17,-679.35 119.99,-789.15m-119.99 -2967.94l0 -1941.32c0,-467.48 -382.52,-850 -850,-850l-2216.12 0c-467.5,0 -850,382.5 -850,850l0 1465.07c0,467.5 382.5,850 850,850l2216.12 0c467.5,0 850,-382.5 850,-850 0,-467.5 55.17,-679.35 119.99,-789.15m4219.19 5498.74l0 -1941.32c0,-467.48 -382.52,-850 -850,-850l-2216.12 0c-467.5,0 -850,382.5 -850,850l0 1465.07c0,467.5 382.5,850 850,850l2216.12 0c467.5,0 850,-382.5 850,-850 0,-467.5 55.17,-679.35 119.99,-789.15m4219.19 1265.4l0 -1941.32c0,-467.48 -382.52,-850 -850,-850l-2216.12 0c-467.5,0 -850,382.5 -850,850l0 1465.07c0,467.5 382.5,850 850,850l2216.12 0c467.5,0 850,-382.5 850,-850 0,-467.5 55.17,-679.35 119.99,-789.15m-4459.17 -2967.94l0 -1941.32c0,-467.48 -382.52,-850 -850,-850l-2216.12 0c-467.5,0 -850,382.5 -850,850l0 1465.07c0,467.5 382.5,850 850,850l2216.12 0c467.5,0 850,-382.5 850,-850 0,-467.5 55.17,-679.35 119.99,-789.15m4219.19 1265.4l0 -1941.32c0,-467.48 -382.52,-850 -850,-850l-2216.12 0c-467.5,0 -850,382.5 -850,850l0 1465.07c0,467.5 382.5,850 850,850l2216.12 0c467.5,0 850,-382.5 850,-850 0,-467.5 55.17,-679.35 119.99,-789.15"/>
  <path class="fil0 str1" d="M763.59 2098.15l717.62 0c172.81,0 314.21,-141.4 314.21,-314.21l0 -819.2c0,-172.82 -141.39,-314.21 -314.21,-314.21l-541.57 0c-172.82,0 -314.21,141.39 -314.21,314.21l0 819.2c0,172.82 141.39,314.21 314.21,314.21 172.81,0 251.12,20.4 291.71,44.36m1097.12 -44.36l717.63 0c172.81,0 314.21,-141.4 314.21,-314.21l0 -819.2c0,-172.82 -141.4,-314.21 -314.21,-314.21l-541.58 0c-172.81,0 -314.2,141.39 -314.2,314.21l0 819.2c0,172.82 141.39,314.21 314.2,314.21 172.82,0 251.13,20.4 291.72,44.36m-2032.65 1559.65l717.62 0c172.81,0 314.21,-141.4 314.21,-314.21l0 -819.2c0,-172.82 -141.39,-314.21 -314.21,-314.21l-541.57 0c-172.82,0 -314.21,141.39 -314.21,314.21l0 819.2c0,172.82 141.39,314.21 314.21,314.21 172.81,0 251.12,20.4 291.71,44.36m-467.76 1559.65l717.62 0c172.81,0 314.21,-141.4 314.21,-314.21l0 -819.2c0,-172.82 -141.39,-314.21 -314.21,-314.21l-541.57 0c-172.82,0 -314.21,141.39 -314.21,314.21l0 819.2c0,172.82 141.39,314.21 314.21,314.21 172.81,0 251.12,20.4 291.71,44.36m1097.12 -1648.37l717.63 0c172.81,0 314.21,-141.4 314.21,-314.21l0 -819.2c0,-172.82 -141.4,-314.21 -314.21,-314.21l-541.58 0c-172.81,0 -314.2,141.39 -314.2,314.21l0 819.2c0,172.82 141.39,314.21 314.2,314.21 172.82,0 251.13,20.4 291.72,44.36m-467.77 1559.65l717.63 0c172.81,0 314.21,-141.4 314.21,-314.21l0 -819.2c0,-172.82 -141.4,-314.21 -314.21,-314.21l-541.58 0c-172.81,0 -314.2,141.39 -314.2,314.21l0 819.2c0,172.82 141.39,314.21 314.2,314.21 172.82,0 251.13,20.4 291.72,44.36"/>
 </g>
</svg>
