<?xml version="1.0" encoding="UTF-8"?>
<!DOCTYPE svg PUBLIC "-//W3C//DTD SVG 1.1//EN" "http://www.w3.org/Graphics/SVG/1.1/DTD/svg11.dtd">
<!-- Creator: CorelDRAW X8 -->
<svg xmlns="http://www.w3.org/2000/svg" xml:space="preserve" width="40mm" height="60mm" version="1.1" style="shape-rendering:geometricPrecision; text-rendering:geometricPrecision; image-rendering:optimizeQuality; fill-rule:evenodd; clip-rule:evenodd"
viewBox="0 0 4000 6000"
 xmlns:xlink="http://www.w3.org/1999/xlink">
 <defs>
  <style type="text/css">
   <![CDATA[
    .str0 {stroke:black;stroke-width:7.62}
    .fil0 {fill:none}
   ]]>
  </style>
 </defs>
 <g id="图层_x0020_1">
  <metadata id="CorelCorpID_0Corel-Layer"/>
  <path class="fil0 str0" d="M1756 739c-1,-3 -3,-5 -7,-5 -16,0 -29,12 -29,28 0,16 13,29 29,29 16,0 28,-13 28,-29 0,-16 -12,-28 -28,-28m-267 7c0,-3 -2,-5 -6,-5 -14,0 -26,12 -26,26 0,14 12,26 26,26 15,0 26,-12 26,-26 0,-14 -11,-26 -26,-26m271 639c-13,4 -23,8 -23,31l0 18c0,26 21,47 47,47l0 0c26,0 47,-21 47,-47l0 -107c0,-25 -21,-46 -47,-46l0 0c-26,0 -47,21 -47,46l0 89m67 352c-1,-6 -7,-12 -19,-13 -43,0 -78,35 -78,78 0,43 35,78 78,78 43,0 78,-35 78,-78 0,-43 -35,-78 -78,-78m-266 -526c-1,-16 -15,-31 -44,-33 -104,0 -189,84 -189,188 0,104 85,189 189,189 104,0 188,-85 188,-189 0,-104 -84,-188 -188,-188m44 484c-1,-16 -15,-31 -44,-33 -104,0 -189,84 -189,188 0,104 85,189 189,189 104,0 188,-85 188,-189 0,-104 -84,-188 -188,-188m-211 -524l1492 0c14,0 26,11 26,26l0 902c0,14 -12,26 -26,26l-1492 0c-14,0 -26,-12 -26,-26l0 -902c0,-15 12,-26 26,-26zm-21 -64l1521 0c29,0 52,24 52,52l0 980c0,29 -23,52 -52,52l-1521 0c-28,0 -52,-23 -52,-52l0 -980c0,-28 24,-52 52,-52zm106 4183c-3,-10 -7,-18 -25,-18l-16 0c-21,0 -39,17 -39,39l0 0c0,21 18,39 39,39l294 0c22,0 39,-18 39,-39l0 0c0,-22 -17,-39 -39,-39l-278 0m657 5c-3,-13 -8,-22 -30,-22l-18 0c-25,0 -45,20 -45,45l0 0c0,25 20,46 45,46l162 0c25,0 45,-21 45,-46l0 0c0,-25 -20,-45 -45,-45l-144 0m272 44c-8,2 -13,4 -13,17l0 10c0,14 12,26 26,26l0 0c14,0 26,-12 26,-26l0 -29c0,-14 -12,-26 -26,-26l0 0c-14,0 -26,12 -26,26l0 19m228 -34c-3,-13 -7,-22 -29,-22l-18 0c-25,0 -46,20 -46,45l0 0c0,25 21,46 46,46l327 0c25,0 46,-21 46,-46l0 0c0,-25 -21,-45 -46,-45l-309 0m-1481 80c95,11 177,68 260,68l1644 0c56,0 177,-68 252,-81 4,0 8,-3 8,-7l0 -60c0,-4 -4,-8 -8,-8 -74,-6 -180,-73 -227,-73l0 -2c84,-11 150,-81 157,-167l85 0c7,0 13,-6 13,-13l0 -3874c0,-7 -6,-13 -13,-13l-85 0c-7,-86 -73,-155 -157,-167l0 -6c47,0 153,-67 227,-73 4,0 8,-4 8,-8l0 -60c0,-4 -4,-7 -8,-7 -75,-13 -196,-81 -252,-81l-1644 0c-83,0 -165,57 -260,68 -4,0 -7,3 -7,7l0 65c0,5 3,8 7,8 99,10 174,66 234,78l0 10c-80,15 -143,83 -149,166l-86 0c-7,0 -13,6 -13,13l0 954c0,6 4,9 12,9l32 0c16,0 29,13 29,29l0 888c0,16 -13,29 -29,29l-33 0c-7,0 -11,2 -11,9l0 1956c0,7 6,13 13,13l86 0c6,84 69,152 149,166l0 6c-60,12 -135,68 -234,78 -4,0 -7,3 -7,8l0 65c0,4 3,7 7,7z"/>
 </g>
</svg>
