<?xml version="1.0" encoding="UTF-8"?>
<!DOCTYPE svg PUBLIC "-//W3C//DTD SVG 1.1//EN" "http://www.w3.org/Graphics/SVG/1.1/DTD/svg11.dtd">
<!-- Creator: CorelDRAW X8 -->
<svg xmlns="http://www.w3.org/2000/svg" xml:space="preserve" width="40mm" height="60mm" version="1.1" style="shape-rendering:geometricPrecision; text-rendering:geometricPrecision; image-rendering:optimizeQuality; fill-rule:evenodd; clip-rule:evenodd"
viewBox="0 0 4000 6000"
 xmlns:xlink="http://www.w3.org/1999/xlink">
 <defs>
  <style type="text/css">
   <![CDATA[
    .str1 {stroke:#222222;stroke-width:7.62}
    .str0 {stroke:#222222;stroke-width:7.62;stroke-linecap:round;stroke-linejoin:round}
    .fil0 {fill:none;fill-rule:nonzero}
   ]]>
  </style>
 </defs>
 <g id="图层_x0020_1">
  <metadata id="CorelCorpID_0Corel-Layer"/>
  <path class="fil0 str0" d="M-31419 10210c0,-199 -345,-606 -757,-606 -411,0 -745,-334 -745,-745l0 -22630c0,-412 334,-745 745,-745l12347 0c54,0 104,28 130,75 27,46 77,75 130,75l2265 0c53,0 103,-29 130,-75 27,-47 76,-75 130,-75l458 0c412,0 745,333 745,745l0 8065c0,108 -87,195 -195,195l-499 0c-169,0 -305,136 -305,305l0 5500c0,168 136,305 305,305l499 0c108,0 195,87 195,195l0 8065c0,411 -333,745 -745,745l-458 0c-54,0 -103,-29 -130,-75 -27,-47 -77,-75 -130,-75l-2265 0c-53,0 -103,28 -130,75 -26,46 -76,75 -130,75l-13290 0"/>
  <g>
   <path class="fil0 str1" d="M681 5350c0,-38 -66,-115 -144,-115 -78,0 -141,-64 -141,-142l0 -4301c0,-79 63,-142 141,-142l2347 0c10,0 20,5 25,14 5,9 14,15 25,15l430 0c10,0 20,-6 25,-15 5,-9 14,-14 24,-14l88 0c78,0 141,63 141,142l0 1533c0,20 -16,37 -37,37l-95 0c-32,0 -58,26 -58,58l0 1045c0,32 26,58 58,58l95 0c21,0 37,17 37,37l0 1533c0,78 -63,142 -141,142l-88 0c-10,0 -19,-6 -24,-14 -5,-9 -15,-15 -25,-15l-430 0c-11,0 -20,6 -25,15 -5,8 -15,14 -25,14l-2526 0"/>
  </g>
 </g>
</svg>
