<?xml version="1.0" encoding="UTF-8"?>
<!DOCTYPE svg PUBLIC "-//W3C//DTD SVG 1.1//EN" "http://www.w3.org/Graphics/SVG/1.1/DTD/svg11.dtd">
<!-- Creator: CorelDRAW X8 -->
<svg xmlns="http://www.w3.org/2000/svg" xml:space="preserve" width="40mm" height="60mm" version="1.1" style="shape-rendering:geometricPrecision; text-rendering:geometricPrecision; image-rendering:optimizeQuality; fill-rule:evenodd; clip-rule:evenodd"
viewBox="0 0 4000 6000"
 xmlns:xlink="http://www.w3.org/1999/xlink">
 <defs>
  <style type="text/css">
   <![CDATA[
    .str0 {stroke:#332C2B;stroke-width:7.62}
    .fil0 {fill:none}
   ]]>
  </style>
 </defs>
 <g id="图层_x0020_1">
  <metadata id="CorelCorpID_0Corel-Layer"/>
  <path class="fil0 str0" d="M966 5350l1922 0c119,0 217,-97 217,-216l0 -4268c0,-119 -98,-216 -217,-216l-1776 0c-119,0 -216,97 -216,216l0 4268c0,119 97,216 216,216l297 0m285 -4640c1,-23 -26,-40 -36,-41 -34,0 -62,28 -62,62 0,35 28,63 62,63 35,0 63,-28 63,-63 0,-34 -28,-62 -63,-62m281 57c-3,-14 -11,-25 -45,-25l-30 0c-16,0 -28,13 -28,28l0 0c0,16 12,29 28,29l292 0c15,0 28,-13 28,-29l0 0c0,-15 -13,-28 -28,-28l-262 0m409 18c0,-17 -20,-31 -27,-31 -26,0 -47,21 -47,47 0,26 21,47 47,47 26,0 47,-21 47,-47 0,-26 -21,-47 -47,-47m157 28c0,-20 -23,-36 -32,-36 -30,0 -54,24 -54,55 0,30 24,54 54,54 31,0 55,-24 55,-54 0,-31 -24,-55 -55,-55"/>
 </g>
</svg>
