<?xml version="1.0" encoding="UTF-8"?>
<!DOCTYPE svg PUBLIC "-//W3C//DTD SVG 1.1//EN" "http://www.w3.org/Graphics/SVG/1.1/DTD/svg11.dtd">
<!-- Creator: CorelDRAW X8 -->
<svg xmlns="http://www.w3.org/2000/svg" xml:space="preserve" width="40mm" height="60mm" version="1.1" style="shape-rendering:geometricPrecision; text-rendering:geometricPrecision; image-rendering:optimizeQuality; fill-rule:evenodd; clip-rule:evenodd"
viewBox="0 0 4000 6000"
 xmlns:xlink="http://www.w3.org/1999/xlink">
 <defs>
  <style type="text/css">
   <![CDATA[
    .str0 {stroke:black;stroke-width:7.62}
    .fil0 {fill:none}
   ]]>
  </style>
 </defs>
 <g id="图层_x0020_1">
  <metadata id="CorelCorpID_0Corel-Layer"/>
  <path class="fil0 str0" d="M2019 836c-1,-5 -5,-9 -14,-10 -31,0 -56,25 -56,56 0,31 25,57 56,57 32,0 57,-26 57,-57 0,-31 -25,-56 -57,-56m-743 4524c-15,-25 -48,-52 -72,-52 -27,0 -37,-3 -57,-23l-146 -138c-13,-12 -15,-19 -15,-38l0 -4252c0,-24 2,-29 17,-44l144 -136c14,-14 24,-17 46,-17l488 0c2,0 4,1 5,2l7 6c3,1 3,2 6,2l629 0c3,0 4,-1 7,-2l6 -6c2,-2 4,-2 6,-2l517 0c18,0 29,5 42,17l123 123c12,11 13,16 13,35l0 4306c0,14 -3,22 -12,31l-126 119c-15,14 -22,17 -42,17l-1769 0"/>
 </g>
</svg>
