<?xml version="1.0" encoding="UTF-8"?>
<!DOCTYPE svg PUBLIC "-//W3C//DTD SVG 1.1//EN" "http://www.w3.org/Graphics/SVG/1.1/DTD/svg11.dtd">
<!-- Creator: CorelDRAW X8 -->
<svg xmlns="http://www.w3.org/2000/svg" xml:space="preserve" width="40mm" height="60mm" version="1.1" style="shape-rendering:geometricPrecision; text-rendering:geometricPrecision; image-rendering:optimizeQuality; fill-rule:evenodd; clip-rule:evenodd"
viewBox="0 0 4000 6000"
 xmlns:xlink="http://www.w3.org/1999/xlink">
 <defs>
  <style type="text/css">
   <![CDATA[
    .str0 {stroke:#332C2B;stroke-width:10}
    .fil0 {fill:none}
   ]]>
  </style>
 </defs>
 <g id="图层_x0020_1">
  <metadata id="CorelCorpID_0Corel-Layer"/>
  <path class="fil0 str0" d="M2053 1105c2,-33 -37,-58 -51,-59 -50,0 -90,40 -90,90 0,49 40,90 90,90 50,0 90,-41 90,-90 0,-50 -40,-90 -90,-90m51 401c1,-29 -34,-53 -46,-54 -46,0 -82,37 -82,82 0,45 36,82 82,82 45,0 81,-37 81,-82 0,-45 -36,-82 -81,-82m-9 -394l0 0c70,0 127,58 127,128l0 360c0,70 -57,127 -127,127l0 0c-71,0 -128,-57 -128,-127l0 -360c0,-70 57,-128 128,-128zm0 -36l0 0c90,0 163,74 163,164l0 360c0,90 -73,163 -163,163l0 0c-91,0 -164,-73 -164,-163l0 -360c0,-90 73,-164 164,-164zm-974 4387l1827 0c144,0 262,-137 262,-281l0 -4157c0,-144 -118,-262 -262,-262l-1702 0c-144,0 -262,118 -262,262l0 4157c0,144 118,281 262,281l268 0"/>
 </g>
</svg>
