<?xml version="1.0" encoding="UTF-8"?>
<!DOCTYPE svg PUBLIC "-//W3C//DTD SVG 1.1//EN" "http://www.w3.org/Graphics/SVG/1.1/DTD/svg11.dtd">
<!-- Creator: CorelDRAW X8 -->
<svg xmlns="http://www.w3.org/2000/svg" xml:space="preserve" width="40mm" height="60mm" version="1.1" style="shape-rendering:geometricPrecision; text-rendering:geometricPrecision; image-rendering:optimizeQuality; fill-rule:evenodd; clip-rule:evenodd"
viewBox="0 0 4000 6000"
 xmlns:xlink="http://www.w3.org/1999/xlink">
 <defs>
  <style type="text/css">
   <![CDATA[
    .str0 {stroke:#332C2B;stroke-width:10;stroke-linecap:round;stroke-linejoin:round}
    .fil0 {fill:none;fill-rule:nonzero}
   ]]>
  </style>
 </defs>
 <g id="图层_x0020_1">
  <metadata id="CorelCorpID_0Corel-Layer"/>
  <g id="_2965617028144">
   <g>
    <line class="fil0 str0" x1="3079" y1="650" x2="3079" y2= "682" />
    <line class="fil0 str0" x1="2012" y1="650" x2="2012" y2= "660" />
    <path class="fil0 str0" d="M2012 660c-7,0 -9,-3 -11,-10 -271,0 -543,0 -815,0 -118,3 -187,38 -237,122 -16,29 -18,199 -25,2231 -6,1977 -4,2180 22,2224 50,74 89,101 168,117 25,6 30,6 81,6"/>
    <line class="fil0 str0" x1="1195" y1="5350" x2="2870" y2= "5350" />
    <path class="fil0 str0" d="M2870 5350c70,-4 146,-41 182,-91 23,-31 24,-36 26,-85"/>
    <line class="fil0 str0" x1="3078" y1="5174" x2="3072" y2= "803" />
    <path class="fil0 str0" d="M3072 803c0,-23 -1,-27 -5,-35 -37,-68 -111,-112 -198,-117"/>
    <line class="fil0 str0" x1="2869" y1="651" x2="1969" y2= "650" />
    <polyline class="fil0 str0" points="1961,755 1950,755 1952,762 1957,766 1965,766 1970,762 1972,756 "/>
    <path class="fil0 str0" d="M1972 756c36,9 58,36 58,69 0,41 -31,73 -71,73 -39,0 -72,-33 -72,-72 0,-39 32,-71 71,-71 6,0 12,1 28,3"/>
    <polyline class="fil0 str0" points="1420,970 1431,971 1430,964 1426,960 1421,960 "/>
    <path class="fil0 str0" d="M1421 960c-2,0 -4,0 -7,1"/>
    <polyline class="fil0 str0" points="1414,961 1410,970 1298,970 "/>
    <path class="fil0 str0" d="M1298 970c-52,1 -64,-1 -90,-12 -54,-22 -89,-74 -89,-132 0,-72 58,-136 130,-142 16,-2 88,-3 171,-3 122,0 161,2 191,7 30,6 44,14 70,42 24,27 38,61 38,96 0,68 -48,126 -116,141 -17,4 -21,4 -65,4"/>
    <line class="fil0 str0" x1="1538" y1="971" x2="1378" y2= "970" />
    <polyline class="fil0 str0" points="1809,849 1799,848 1799,849 1799,847 1789,845 "/>
    <path class="fil0 str0" d="M1789 845c1,-2 1,-2 1,-3"/>
    <polyline class="fil0 str0" points="1790,842 1791,841 1791,840 1791,841 1784,837 "/>
    <path class="fil0 str0" d="M1784 837c0,-2 1,-2 1,-3"/>
    <polyline class="fil0 str0" points="1785,834 1786,834 1787,833 1782,826 1784,825 1786,825 1784,816 1788,816 1790,807 1789,807 1792,807 "/>
    <path class="fil0 str0" d="M1792 807c0,1 1,1 2,2"/>
    <polyline class="fil0 str0" points="1794,809 1799,801 1800,802 1800,802 1802,804 1809,798 1809,799 1810,800 1810,801 1811,801 1811,803 1820,801 1820,806 1829,807 1829,806 1829,809 "/>
    <path class="fil0 str0" d="M1829 809c-1,1 -1,1 -1,3"/>
    <polyline class="fil0 str0" points="1828,812 1835,817 1834,818 1833,818 1831,820 1836,827 1836,828 1835,828 1835,829 1832,829 1834,837 1829,837 1830,837 1828,846 1828,846 "/>
    <path class="fil0 str0" d="M1828 846c-2,-1 -2,-1 -3,-1"/>
    <polyline class="fil0 str0" points="1825,845 1825,845 1824,845 1824,845 1824,845 1820,852 "/>
    <path class="fil0 str0" d="M1820 852c-2,-1 -2,-1 -3,-2"/>
    <polyline class="fil0 str0" points="1817,850 1817,849 1816,848 1809,853 1808,852 1808,849 1799,851 1799,846 1799,847 1789,845 "/>
    <polyline class="fil0 str0" points="1420,707 1410,704 1410,703 1410,707 1308,706 "/>
    <path class="fil0 str0" d="M1308 706c-62,0 -70,1 -91,10 -44,20 -72,63 -72,111 0,69 51,117 128,119 29,1 83,1 142,1 125,0 156,0 181,-4 15,-2 25,-5 34,-9 7,-4 12,-8 24,-19 25,-23 39,-54 39,-88 0,-57 -39,-106 -93,-118"/>
    <line class="fil0 str0" x1="1600" y1="709" x2="1597" y2= "709" />
    <path class="fil0 str0" d="M1597 709c-10,-3 -10,-3 -79,-3"/>
    <line class="fil0 str0" x1="1518" y1="706" x2="1378" y2= "706" />
    <polyline class="fil0 str0" points="1268,890 1258,890 1258,886 1258,889 "/>
    <path class="fil0 str0" d="M1258 889c-25,0 -51,-31 -51,-62 0,-35 28,-63 63,-63 35,0 64,29 64,64 0,35 -29,63 -63,63 -5,0 -8,0 -26,-3"/>
    <polyline class="fil0 str0" points="1570,898 1560,897 1560,898 1560,896 "/>
    <path class="fil0 str0" d="M1560 896c-32,-2 -60,-34 -60,-69 0,-39 33,-72 72,-72 39,0 71,33 71,72 0,39 -31,71 -69,71 -6,0 -12,-1 -29,-3"/>
   </g>
  </g>
 </g>
</svg>
