<?xml version="1.0" encoding="UTF-8"?>
<!DOCTYPE svg PUBLIC "-//W3C//DTD SVG 1.1//EN" "http://www.w3.org/Graphics/SVG/1.1/DTD/svg11.dtd">
<!-- Creator: CorelDRAW -->
<svg xmlns="http://www.w3.org/2000/svg" xml:space="preserve" width="40mm" height="60mm" style="shape-rendering:geometricPrecision; text-rendering:geometricPrecision; image-rendering:optimizeQuality; fill-rule:evenodd; clip-rule:evenodd"
viewBox="0 0 40 60"
 xmlns:xlink="http://www.w3.org/1999/xlink">
 <defs>
  <style type="text/css">
   <![CDATA[
    .str0 {stroke:#1F1A17;stroke-width:0.194}
    .str1 {stroke:#1F1A17;stroke-width:0.2}
    .fil1 {fill:none}
    .fil0 {fill:none;fill-rule:nonzero}
   ]]>
  </style>
 </defs>
 <g id="图层_x0020_1">
  <metadata id="CorelCorpID_0Corel-Layer"/>
  <path class="fil0 str0" d="M19.9786 7.8792c0.4084,-0.0045 0.8168,-0.0079 1.2251,-0.0101 0.665,-0.0022 0.8536,0.1004 0.8536,0.4664 0,0.3002 -0.1584,0.4318 -0.54,0.4519 -0.2879,0.0156 -0.8859,0.0246 -1.5565,0.0246 -1.2564,0 -1.7072,-0.0145 -1.9404,-0.0647 -0.2343,-0.0503 -0.3046,-0.1462 -0.3046,-0.4151 0,-0.3604 0.1897,-0.4642 0.8424,-0.4609"/>
  <line class="fil0 str0" x1="18.5582" y1="7.8713" x2="20.1761" y2= "7.8792" />
  <path class="fil0 str0" d="M15.7252 7.7843c0.0524,-0.0011 0.1004,-0.0011 0.1428,-0.0011 0.4407,0 0.5356,0.0245 0.6884,0.183 0.1172,0.1227 0.183,0.28 0.183,0.4418 0,0.1998 -0.0993,0.3883 -0.2689,0.5133 -0.1372,0.1004 -0.251,0.1172 -0.8234,0.1172 -0.3047,0 -0.462,-0.0145 -0.5769,-0.0525 -0.1138,-0.039 -0.1897,-0.1026 -0.2778,-0.2354 -0.0692,-0.1038 -0.106,-0.2243 -0.106,-0.3459 0,-0.3537 0.2644,-0.6092 0.6427,-0.6215"/>
  <line class="fil0 str0" x1="15.3291" y1="7.7832" x2="16.0253" y2= "7.7843" />
  <path class="fil0 str0" d="M31.4145 43.817c0.0256,4.1363 0.0256,3.1031 0.0011,7.2394 -0.0179,0.7029 -0.0525,0.9518 -0.1864,1.3535 -0.1785,0.5355 -0.733,0.9819 -1.272,1.0231 -9.3627,0.048 -7.0218,0.0402 -16.3855,0.0592"/>
  <line class="fil0 str0" x1="13.5717" y1="53.4922" x2="9.9152" y2= "53.5" />
  <path class="fil0 str0" d="M9.9152 53.5c-0.5881,-0.048 -1.1504,-0.6494 -1.2654,-1.3524"/>
  <polyline class="fil0 str0" points="8.6498,52.1476 8.6331,51.621 8.5662,7.8948 "/>
  <path class="fil0 str0" d="M8.5662 7.8948c0,-0.5613 0.723,-1.2185 1.3869,-1.2609"/>
  <path class="fil0 str0" d="M9.9531 6.6339l10.0969 -0.0759c3.2135,-0.0189 6.427,-0.0379 9.6405,-0.058 0.443,0.0101 0.6617,0.0848 0.9184,0.3136 0.3113,0.2778 0.5512,0.7855 0.5779,1.2273l0.2277 35.7761"/>
  <ellipse class="fil1 str1" cx="13.2775" cy="8.4263" rx="0.77" ry="0.7529"/>
 </g>
</svg>
