<?xml version="1.0" encoding="UTF-8"?>
<!DOCTYPE svg PUBLIC "-//W3C//DTD SVG 1.1//EN" "http://www.w3.org/Graphics/SVG/1.1/DTD/svg11.dtd">
<!-- Creator: CorelDRAW X8 -->
<svg xmlns="http://www.w3.org/2000/svg" xml:space="preserve" width="40mm" height="60mm" version="1.1" style="shape-rendering:geometricPrecision; text-rendering:geometricPrecision; image-rendering:optimizeQuality; fill-rule:evenodd; clip-rule:evenodd"
viewBox="0 0 4000 6000"
 xmlns:xlink="http://www.w3.org/1999/xlink">
 <defs>
  <style type="text/css">
   <![CDATA[
    .fil0 {fill:black;fill-rule:nonzero}
   ]]>
  </style>
 </defs>
 <g id="图层_x0020_1">
  <metadata id="CorelCorpID_0Corel-Layer"/>
  <g>
   <path class="fil0" d="M1076 830l0 20 0 0 -9 1 -8 0 -8 1 -8 2 -8 1 -7 3 -8 2 -7 3 -7 3 -7 4 -7 4 -7 4 -6 5 -6 4 -6 5 -6 6 -5 5 -5 6 -5 6 -5 7 -4 6 -4 7 -3 7 -4 7 -2 8 -3 7 -2 8 -2 8 -1 8 -1 8 -1 8 0 8 -20 0 0 -9 1 -9 1 -9 1 -9 2 -9 3 -9 3 -8 3 -8 4 -8 4 -8 4 -8 5 -7 5 -7 5 -7 6 -7 6 -6 6 -6 7 -6 7 -5 7 -6 7 -4 8 -5 8 -4 8 -3 8 -4 9 -2 8 -3 9 -2 9 -2 9 -1 9 0 10 -1 0 0zm182 182l-20 0 0 0 0 -8 -1 -8 -1 -8 -1 -8 -2 -8 -2 -8 -3 -7 -3 -8 -3 -7 -4 -7 -4 -7 -4 -6 -4 -6 -5 -7 -5 -6 -6 -5 -5 -6 -6 -5 -6 -4 -7 -5 -6 -4 -7 -4 -7 -4 -7 -3 -7 -3 -8 -2 -8 -3 -8 -1 -7 -2 -9 -1 -8 0 -8 -1 0 -20 9 1 9 0 10 1 9 2 8 2 9 3 8 2 9 4 8 3 8 4 7 5 8 4 7 6 7 5 6 6 7 6 6 6 5 7 6 7 5 7 5 7 4 8 4 8 4 8 3 8 3 8 2 9 2 9 2 9 1 9 1 9 0 9 0 0zm-182 182l0 -20 0 0 8 0 8 0 9 -1 7 -2 8 -2 8 -2 8 -2 7 -3 7 -3 7 -4 7 -4 6 -4 7 -5 6 -4 6 -6 5 -5 6 -6 5 -5 5 -7 4 -6 4 -7 4 -6 4 -7 3 -7 3 -8 3 -7 2 -8 2 -8 1 -8 1 -8 1 -8 0 -9 20 0 0 10 -1 9 -1 9 -2 9 -2 9 -2 9 -3 8 -3 8 -4 8 -4 8 -4 8 -5 7 -5 7 -6 7 -5 7 -6 6 -7 6 -6 6 -7 5 -7 5 -8 5 -7 5 -8 4 -8 3 -9 3 -8 3 -9 3 -9 2 -8 1 -10 2 -9 0 -9 0 0 0zm0 -20l0 0 0 0 0 0zm-182 -162l20 0 0 0 0 9 1 8 1 8 1 8 2 8 2 8 3 7 2 8 4 7 3 7 4 6 4 7 5 6 5 6 5 6 5 6 6 5 6 5 6 5 6 5 7 4 7 4 7 3 7 4 7 3 8 2 7 2 8 2 8 2 8 1 8 0 9 0 0 20 -10 0 -9 0 -9 -2 -9 -1 -9 -2 -8 -3 -9 -3 -8 -3 -8 -3 -8 -5 -8 -4 -7 -5 -7 -5 -7 -5 -7 -6 -6 -6 -6 -6 -6 -7 -5 -7 -5 -7 -5 -7 -4 -8 -4 -8 -4 -8 -3 -8 -3 -8 -3 -9 -2 -9 -1 -9 -1 -9 -1 -9 0 -10 0 0zm-179 -352l0 20 -1 0 -4 0 -4 -1 -5 0 -4 0 -4 -1 -4 0 -4 -1 -3 0 -4 -1 -4 0 -4 -1 -3 0 -4 -1 -3 0 -4 -1 -3 -1 -3 0 -4 -1 -3 -1 -3 0 -3 -1 -3 -1 -3 -1 -3 -1 -3 0 -2 -1 -3 -1 -3 -1 -2 -1 -3 -1 -3 -1 -2 -1 8 -18 2 1 2 0 2 1 3 1 2 1 2 1 3 0 3 1 2 1 3 1 3 0 3 1 3 1 3 0 3 1 3 1 3 0 3 1 4 0 3 1 3 0 4 1 4 0 3 1 4 0 4 1 3 0 4 1 4 0 4 0 4 1 5 0 -1 0zm0 20l-1 0 0 0 1 0zm2607 -39l0 20 0 0 -87 1 -86 1 -85 1 -86 1 -84 1 -85 1 -84 1 -84 1 -83 0 -83 1 -83 1 -82 0 -82 1 -82 0 -82 1 -81 0 -81 1 -80 0 -81 1 -80 0 -80 1 -80 0 -79 1 -79 0 -79 0 -79 1 -79 0 -79 1 -78 0 -78 0 -78 1 -78 0 0 -20 78 0 78 -1 78 0 78 0 79 -1 79 0 79 -1 79 0 79 0 79 -1 80 0 80 -1 80 0 81 -1 80 0 81 -1 81 0 82 -1 82 0 82 -1 82 0 83 -1 83 -1 83 0 84 -1 84 -1 84 -1 85 -1 85 -1 86 -1 86 -1 87 -1 0 0zm66 73l-20 0 0 0 0 -4 0 -4 -1 -4 0 -3 0 -4 0 -3 -1 -3 0 -3 -1 -2 -1 -2 0 -3 -1 -2 -1 -1 -1 -2 -1 -1 -1 -2 -1 -1 -1 -1 -1 -1 -2 -1 -1 -1 -2 -1 -2 0 -2 -1 -2 -1 -3 0 -3 -1 -3 0 -3 0 -3 -1 -4 0 -4 0 0 -20 4 0 4 0 4 1 4 0 4 0 4 1 3 1 4 1 3 1 3 1 3 1 3 2 3 2 2 2 3 2 2 3 2 2 1 3 2 3 1 3 2 3 1 3 0 3 1 3 1 4 0 4 1 3 0 4 0 4 1 4 0 4 0 5 0 0zm11 4524l-20 0 0 0 0 -123 0 -125 -1 -128 0 -130 0 -133 -1 -135 0 -137 0 -139 0 -140 0 -142 -1 -143 0 -144 0 -146 0 -146 -1 -147 0 -148 0 -148 0 -149 -1 -148 0 -149 0 -148 -1 -148 0 -148 -1 -147 0 -146 -1 -145 0 -144 -1 -143 0 -141 -1 -140 0 -138 -1 -136 20 0 1 136 0 138 1 140 0 141 1 143 0 144 1 145 0 146 1 147 0 148 1 148 0 148 0 149 1 148 0 149 0 148 0 147 1 148 0 146 0 146 0 144 1 143 0 142 0 140 0 139 0 137 1 135 0 132 0 131 1 128 0 125 0 123 0 0zm-77 77l-1 -20 0 0 5 0 4 0 4 -1 4 0 4 -1 3 -1 3 0 3 -1 3 -1 2 -1 3 -1 2 -1 2 -2 2 -1 1 -1 2 -2 1 -1 2 -2 1 -2 1 -2 1 -2 1 -2 1 -2 0 -3 1 -3 1 -3 0 -3 1 -3 0 -4 0 -3 0 -4 0 -4 20 0 0 4 0 5 0 4 -1 4 0 4 -1 4 0 4 -1 3 -1 4 -2 3 -1 4 -2 3 -1 3 -2 3 -2 3 -3 2 -2 3 -3 2 -3 2 -3 2 -3 2 -4 1 -3 2 -4 1 -4 1 -4 1 -4 1 -4 1 -5 0 -4 1 -5 0 -5 0 0 0zm-2577 45l0 -20 0 0 67 0 70 -1 73 0 74 -1 77 -1 78 0 80 -1 82 -1 83 -1 84 -1 85 -1 86 -1 87 -2 87 -1 88 -1 87 -2 88 -1 87 -2 88 -1 86 -2 86 -2 85 -1 85 -2 83 -2 81 -2 80 -2 79 -2 76 -2 75 -2 72 -2 70 -3 67 -2 1 20 -68 2 -70 3 -72 2 -74 2 -77 2 -78 2 -80 2 -82 2 -83 2 -84 2 -85 1 -86 2 -87 2 -87 1 -88 2 -87 1 -88 2 -88 1 -87 1 -87 2 -86 1 -85 1 -84 1 -83 1 -82 1 -80 1 -78 0 -77 1 -74 1 -73 0 -70 1 -67 0 0 0zm-72 -67l20 0 0 0 0 3 1 4 0 4 0 3 0 3 1 3 0 3 1 2 1 2 0 3 1 1 1 2 1 2 0 1 1 1 1 1 2 1 1 1 1 1 2 1 2 1 2 0 2 1 2 1 3 0 3 1 3 0 4 0 3 1 4 0 4 0 5 0 0 20 -5 0 -4 0 -5 0 -4 -1 -4 0 -4 0 -4 -1 -3 -1 -4 -1 -3 -1 -3 -1 -3 -1 -3 -2 -3 -1 -2 -2 -2 -3 -3 -2 -2 -2 -1 -3 -2 -3 -1 -3 -2 -3 -1 -3 -1 -3 0 -3 -1 -4 0 -3 -1 -4 0 -4 0 -4 -1 -4 0 -4 0 0zm-47 -4552l20 0 0 0 1 140 2 142 1 144 2 145 1 146 1 146 2 148 1 148 1 149 1 149 2 150 1 149 1 150 2 149 1 149 1 149 2 148 1 147 2 146 1 145 1 145 2 142 2 142 1 140 2 138 1 136 2 134 2 132 2 130 1 127 2 125 2 122 -20 0 -2 -122 -2 -125 -1 -127 -2 -130 -2 -132 -2 -134 -1 -136 -2 -138 -1 -140 -2 -141 -2 -143 -1 -144 -1 -146 -2 -146 -1 -147 -2 -148 -1 -149 -1 -149 -2 -149 -1 -150 -1 -149 -2 -150 -1 -149 -1 -149 -1 -148 -2 -147 -1 -147 -1 -146 -2 -145 -1 -143 -2 -143 -1 -140 0 0zm88 -81l1 20 0 0 -5 0 -5 0 -5 1 -4 0 -5 0 -3 1 -4 1 -4 0 -3 1 -3 1 -3 1 -3 1 -2 1 -2 2 -2 1 -2 2 -2 1 -1 2 -2 2 -1 2 -1 2 -1 2 -1 3 -1 2 -1 3 -1 4 -1 3 0 4 -1 4 0 4 0 5 0 5 -20 0 0 -6 0 -5 1 -5 0 -4 1 -5 0 -4 1 -4 1 -4 2 -4 1 -4 2 -4 2 -3 2 -3 3 -3 2 -3 3 -3 3 -2 3 -2 4 -2 3 -2 4 -2 4 -1 4 -1 4 -1 4 -1 4 -1 5 0 5 -1 5 0 5 -1 5 0 6 0 -1 0zm1 20l0 0 0 0 0 0zm110 -39l9 18 -2 1 -2 1 -2 1 -3 1 -3 1 -2 1 -3 1 -3 1 -3 1 -3 0 -3 1 -3 1 -3 1 -4 0 -3 1 -4 1 -4 0 -4 1 -4 0 -4 1 -4 1 -4 0 -5 1 -4 0 -5 1 -4 0 -5 0 -5 1 -5 0 -5 0 -5 1 -6 0 -1 -20 5 0 6 0 5 -1 4 0 5 -1 5 0 4 0 5 -1 4 0 4 -1 5 0 4 -1 3 0 4 -1 4 0 3 -1 4 -1 3 0 3 -1 3 -1 3 0 3 -1 3 -1 3 0 2 -1 2 -1 3 -1 2 -1 2 0 2 -1 1 -1 2 -1z"/>
  </g>
 </g>
</svg>
