<?xml version="1.0" encoding="UTF-8"?>
<!DOCTYPE svg PUBLIC "-//W3C//DTD SVG 1.1//EN" "http://www.w3.org/Graphics/SVG/1.1/DTD/svg11.dtd">
<!-- Creator: CorelDRAW -->
<svg xmlns="http://www.w3.org/2000/svg" xml:space="preserve" width="40mm" height="60mm" style="shape-rendering:geometricPrecision; text-rendering:geometricPrecision; image-rendering:optimizeQuality; fill-rule:evenodd; clip-rule:evenodd"
viewBox="0 0 40 60"
 xmlns:xlink="http://www.w3.org/1999/xlink">
 <defs>
  <style type="text/css">
   <![CDATA[
    .str0 {stroke:#1F1A17;stroke-width:0.194}
    .fil0 {fill:none;fill-rule:nonzero}
   ]]>
  </style>
 </defs>
 <g id="图层_x0020_2">
  <metadata id="CorelCorpID_0Corel-Layer"/>
  <path class="fil0 str0" d="M9.0566 50.6925c-0.0011,0.0124 -0.0011,0.0259 -0.0011,0.0406 0,0.3467 0.2994,1.0648 0.6067,1.4555 0.5133,0.6494 1.138,0.9567 2.0981,1.031 3.7957,0.0068 6.0919,-0.0056 9.8874,-0.0079m-12.609 -44.0286l0.0472 41.0671 -0.0293 0.4423m2.4156 -44.4675c-1.0637,0.0956 -2.0115,0.9421 -2.347,2.0959 -0.0742,0.2566 -0.0865,0.3816 -0.0865,0.8622m2.4335 -2.9581l16.7829 -0.0034c0.4694,0.0147 1.084,0.2747 1.5219,0.6439 0.6123,0.5167 0.9905,1.3575 1.0423,2.3165 0.0202,6.8438 0.0214,13.6887 0.0022,20.5324m-0.0585 20.923l0.0585 -20.923m-0.0585 20.923c-0.0507,1.2844 -1.2505,2.5056 -2.5281,2.5709l-6.5872 0.0034m-3.0341 -46.0109l2.61 0c0.2768,0 0.5032,0.2265 0.5032,0.5033l0 0c0,0.2768 -0.2264,0.5033 -0.5032,0.5033l-2.61 0c-0.2768,0 -0.5033,-0.2265 -0.5033,-0.5033l0 0c0,-0.2768 0.2265,-0.5033 0.5033,-0.5033zm-1.82 -0.2226c0.3835,0 0.6944,0.2926 0.6944,0.6533 0,0.3607 -0.3109,0.6533 -0.6944,0.6533 -0.3834,0 -0.6943,-0.2926 -0.6943,-0.6533 0,-0.3607 0.3109,-0.6533 0.6943,-0.6533z"/>
 </g>
</svg>
