<?xml version="1.0" encoding="UTF-8"?>
<!DOCTYPE svg PUBLIC "-//W3C//DTD SVG 1.1//EN" "http://www.w3.org/Graphics/SVG/1.1/DTD/svg11.dtd">
<!-- Creator: CorelDRAW -->
<svg xmlns="http://www.w3.org/2000/svg" xml:space="preserve" width="40mm" height="60mm" style="shape-rendering:geometricPrecision; text-rendering:geometricPrecision; image-rendering:optimizeQuality; fill-rule:evenodd; clip-rule:evenodd"
viewBox="0 0 40 60"
 xmlns:xlink="http://www.w3.org/1999/xlink">
 <defs>
  <style type="text/css">
   <![CDATA[
    .str0 {stroke:#1F1A17;stroke-width:0.2}
    .fil0 {fill:none}
    .fil1 {fill:#1F1A17;fill-rule:nonzero}
   ]]>
  </style>
 </defs>
 <g id="图层_x0020_1">
  <metadata id="CorelCorpID_0Corel-Layer"/>
  <g id="_173322976">
   <path id="_173323592" class="fil0 str0" d="M13.933 7.61c-0.0386,-0.0324 -0.0871,-0.2824 0.0406,-0.2814 0.1012,-0.0003 0.1835,0.0812 0.1839,0.182 0.0003,0.1009 -0.0815,0.183 -0.1829,0.1833 -0.1013,0.0004 -0.1837,-0.0811 -0.1841,-0.182 -0.0003,-0.1009 0.0815,-0.183 0.1829,-0.1833"/>
   <path id="_173315304" class="fil0 str0" d="M12.0691 8.6258c-1.1937,0.0029 -2.2489,-0.3642 -3.4543,-0.3593l-0.0013 -1.7569c7.6121,-0.0424 15.1614,0.0711 22.7738,0.0445l0.0028 1.7196 -3.4861 0.357c0.918,-0.0035 1.732,0.9908 1.7713,2.2249l1.5314 0c0.1259,0 0.2289,0.0984 0.2289,0.2188l0 37.8834c0,0.1204 -0.103,0.2189 -0.2289,0.2189l-1.5307 0c-0.0295,1.2451 -0.8476,2.2521 -1.7715,2.2486l3.5559 0.2994 0 1.7741 -22.9208 0.0012 0.011 -1.7683 3.5132 -0.304c-0.9546,0.0011 -1.7727,-1.0059 -1.8022,-2.251l-1.4856 0c-0.1259,0 -0.2289,-0.0985 -0.2289,-0.2189l0 -37.8834c0,-0.1204 0.103,-0.2188 0.2289,-0.2188l1.4863 0c0.0393,-1.2341 0.8532,-2.2284 1.8068,-2.2298z"/>
   <rect id="_173323928" class="fil0 str0" transform="matrix(7.21656E-015 0.272482 -0.272482 7.21657E-015 9.56307 23.4324)" width="13.2762" height="2.0601" rx="1.03" ry="1.03"/>
   <path id="_173328968" class="fil0 str0" d="M31.0008 21.9969l0 2.702c0,0.1543 -0.1267,0.2806 -0.2807,0.2806l0 0c-0.154,0 -0.2807,-0.1266 -0.2807,-0.2806l0 -2.702c0,-0.154 0.1263,-0.2807 0.2807,-0.2807l0 0c0.1544,0 0.2807,0.1263 0.2807,0.2807z"/>
   <path id="_173328744" class="fil0 str0" d="M31.0008 25.683l0 2.7019c0,0.1544 -0.1267,0.2807 -0.2807,0.2807l0 0c-0.154,0 -0.2807,-0.1266 -0.2807,-0.2807l0 -2.7019c0,-0.1541 0.1263,-0.2807 0.2807,-0.2807l0 0c0.1544,0 0.2807,0.1263 0.2807,0.2807z"/>
   <rect id="_121156624" class="fil0 str0" transform="matrix(7.03684E-015 0.265696 -0.233205 6.17634E-015 30.9428 13.3095)" width="19.6596" height="2.8194" rx="1.332" ry="1.332"/>
   <circle id="_121168384" class="fil0 str0" transform="matrix(7.21656E-015 0.272482 -0.272482 7.21657E-015 13.638 11.8521)" r="3.2046"/>
   <circle id="_173320624" class="fil0 str0" transform="matrix(7.21656E-015 0.272482 -0.272482 7.21657E-015 13.638 14.6591)" r="3.2046"/>
   <circle id="_175977336" class="fil0 str0" transform="matrix(5.95682E-015 0.224917 -0.224917 5.95683E-015 13.638 17.7113)" r="3.2046"/>
   <circle id="_84335304" class="fil0 str0" transform="matrix(5.95682E-015 0.224917 -0.224917 5.95683E-015 13.638 19.7149)" r="3.2046"/>
   <circle id="_84335192" class="fil0 str0" transform="matrix(5.14793E-015 0.194375 -0.194375 5.14793E-015 16.2482 19.7149)" r="3.2046"/>
   <circle id="_84335360" class="fil0 str0" transform="matrix(5.14793E-015 0.194375 -0.194375 5.14793E-015 16.2482 11.8042)" r="3.2046"/>
   <rect id="_84334912" class="fil0 str0" transform="matrix(7.14388E-015 0.269738 -0.272482 7.21657E-015 14.8018 10.7548)" width="37.8333" height="8.4963" rx="3.8862" ry="3.8862"/>
   <rect id="_84334688" class="fil0 str0" transform="matrix(7.14685E-015 0.26985 -0.265556 7.03314E-015 15.3969 10.2158)" width="41.8124" height="13.1999" rx="6.2159" ry="6.2159"/>
   <g>
    <path id="_84334352" class="fil1" d="M19.2576 52.7897l0 0 1.501 0 0 0.2 -1.501 0 0 -0.2zm-0.5037 -0.3037l0.2 0 0 0 0.0001 0.016 0.0012 0.0149 0.0022 0.0156 0.0024 0.0147 0.0034 0.0144 0.0042 0.0144 0.0049 0.0141 0.0052 0.0136 0.0062 0.0135 0.007 0.0135 0.007 0.0123 0.0078 0.0124 0.0086 0.012 0.0093 0.0113 0.0095 0.0112 0.0103 0.0105 0.0105 0.0103 0.0112 0.0095 0.0113 0.0093 0.012 0.0086 0.0124 0.0078 0.0123 0.007 0.0135 0.007 0.0135 0.0062 0.0136 0.0052 0.0141 0.0049 0.0144 0.0042 0.0144 0.0034 0.0147 0.0024 0.0156 0.0022 0.0149 0.0012 0.016 0.0001 0 0.2 -0.0254 -0.0009 -0.0259 -0.002 -0.0248 -0.003 -0.0249 -0.0046 -0.0246 -0.0058 -0.0238 -0.0066 -0.0235 -0.0079 -0.023 -0.0092 -0.0221 -0.0102 -0.0213 -0.0108 -0.0217 -0.0124 -0.0202 -0.0134 -0.0198 -0.014 -0.0191 -0.0147 -0.0182 -0.0159 -0.0175 -0.0165 -0.0165 -0.0175 -0.0159 -0.0182 -0.0147 -0.0191 -0.014 -0.0198 -0.0134 -0.0202 -0.0124 -0.0217 -0.0108 -0.0213 -0.0102 -0.0221 -0.0092 -0.023 -0.0079 -0.0235 -0.0066 -0.0238 -0.0058 -0.0246 -0.0046 -0.0249 -0.003 -0.0248 -0.002 -0.0259 -0.0009 -0.0254 0 0zm0.2 0l-0.1 0 0 0 0 0 0 0 0.1 0zm0.3037 -0.5037l0 0.2 0 0 -0.016 0.0001 -0.0149 0.0012 -0.0156 0.0022 -0.0147 0.0024 -0.0144 0.0034 -0.0144 0.0042 -0.0141 0.0049 -0.0136 0.0052 -0.0135 0.0062 -0.0135 0.007 -0.0123 0.007 -0.0124 0.0078 -0.012 0.0086 -0.0113 0.0093 -0.0112 0.0095 -0.0105 0.0103 -0.0103 0.0105 -0.0095 0.0112 -0.0093 0.0113 -0.0086 0.012 -0.0078 0.0124 -0.007 0.0123 -0.007 0.0135 -0.0062 0.0135 -0.0052 0.0136 -0.0049 0.0141 -0.0042 0.0144 -0.0034 0.0144 -0.0024 0.0147 -0.0022 0.0156 -0.0012 0.0149 -0.0001 0.016 -0.2 0 0.0009 -0.0254 0.002 -0.0259 0.003 -0.0248 0.0046 -0.0249 0.0058 -0.0246 0.0066 -0.0238 0.0079 -0.0235 0.0092 -0.023 0.0102 -0.0221 0.0108 -0.0213 0.0124 -0.0217 0.0134 -0.0202 0.014 -0.0198 0.0147 -0.0191 0.0159 -0.0182 0.0165 -0.0175 0.0175 -0.0165 0.0182 -0.0159 0.0191 -0.0147 0.0198 -0.014 0.0202 -0.0134 0.0217 -0.0124 0.0213 -0.0108 0.0221 -0.0102 0.023 -0.0092 0.0235 -0.0079 0.0238 -0.0066 0.0246 -0.0058 0.0249 -0.0046 0.0248 -0.003 0.0259 -0.002 0.0254 -0.0009 0 0zm1.501 0.2l0 0 -1.501 0 0 -0.2 1.501 0 0 0.2zm0.5037 0.3037l-0.2 0 0 0 -0.0001 -0.016 -0.0012 -0.0149 -0.0022 -0.0156 -0.0024 -0.0147 -0.0034 -0.0144 -0.0042 -0.0144 -0.0049 -0.0141 -0.0053 -0.0136 -0.0061 -0.0135 -0.0066 -0.0131 -0.0075 -0.0127 -0.0077 -0.0124 -0.0086 -0.012 -0.0093 -0.0113 -0.0095 -0.0112 -0.0103 -0.0105 -0.0105 -0.0103 -0.0108 -0.0095 -0.0118 -0.0093 -0.0119 -0.0086 -0.0125 -0.0078 -0.0126 -0.007 -0.0131 -0.007 -0.0136 -0.0062 -0.0136 -0.0052 -0.014 -0.0049 -0.0144 -0.0042 -0.0144 -0.0034 -0.0147 -0.0024 -0.0156 -0.0022 -0.0149 -0.0012 -0.016 -0.0001 0 -0.2 0.0254 0.0009 0.0259 0.002 0.0248 0.003 0.0249 0.0046 0.0246 0.0058 0.0238 0.0066 0.0234 0.0079 0.023 0.0092 0.0222 0.0102 0.0217 0.0108 0.0212 0.0124 0.0203 0.0134 0.0197 0.014 0.0188 0.0147 0.0186 0.0159 0.0175 0.0165 0.0165 0.0175 0.0159 0.0182 0.0147 0.0191 0.014 0.0198 0.0133 0.0202 0.0121 0.0213 0.0112 0.0217 0.0101 0.0221 0.0093 0.023 0.0079 0.0235 0.0066 0.0238 0.0058 0.0246 0.0046 0.0249 0.003 0.0248 0.002 0.0259 0.0009 0.0254 0 0zm-0.2 0l0.1 0 0 0 0 0 0 0 -0.1 0zm-0.3037 0.5037l0 -0.2 0 0 0.016 -0.0001 0.0149 -0.0012 0.0156 -0.0022 0.0147 -0.0024 0.0144 -0.0034 0.0144 -0.0042 0.014 -0.0049 0.0136 -0.0052 0.0136 -0.0062 0.0131 -0.007 0.0126 -0.007 0.0125 -0.0078 0.0119 -0.0086 0.0118 -0.0093 0.0108 -0.0095 0.0105 -0.0103 0.0103 -0.0105 0.0095 -0.0112 0.0093 -0.0113 0.0086 -0.012 0.0077 -0.0124 0.0075 -0.0127 0.0066 -0.0131 0.0061 -0.0135 0.0053 -0.0136 0.0049 -0.0141 0.0042 -0.0144 0.0034 -0.0144 0.0024 -0.0147 0.0022 -0.0156 0.0012 -0.0149 0.0001 -0.016 0.2 0 -0.0009 0.0254 -0.002 0.0259 -0.003 0.0248 -0.0046 0.0249 -0.0058 0.0246 -0.0066 0.0238 -0.0079 0.0235 -0.0093 0.023 -0.0101 0.0221 -0.0112 0.0217 -0.0121 0.0213 -0.0133 0.0202 -0.014 0.0198 -0.0147 0.0191 -0.0159 0.0182 -0.0165 0.0175 -0.0175 0.0165 -0.0186 0.0159 -0.0188 0.0147 -0.0197 0.014 -0.0203 0.0134 -0.0212 0.0124 -0.0217 0.0108 -0.0222 0.0102 -0.023 0.0092 -0.0234 0.0079 -0.0238 0.0066 -0.0246 0.0058 -0.0249 0.0046 -0.0248 0.003 -0.0259 0.002 -0.0254 0.0009 0 0z"/>
   </g>
   <g>
    <path class="fil1" d="M25.7223 53.0869l0 -0.2 0 0 0.0244 -0.0003 0.0237 -0.0018 0.0233 -0.0032 0.0227 -0.0039 0.0227 -0.0051 0.0222 -0.0064 0.0212 -0.0074 0.0214 -0.0082 0.0203 -0.0093 0.0201 -0.0106 0.0194 -0.0109 0.0191 -0.0124 0.0183 -0.013 0.0174 -0.0137 0.0171 -0.0146 0.0161 -0.0157 0.0157 -0.0161 0.0146 -0.0167 0.0137 -0.0179 0.013 -0.0182 0.0124 -0.0191 0.0109 -0.0194 0.0106 -0.0197 0.0093 -0.0208 0.0082 -0.0214 0.0074 -0.0216 0.0064 -0.0217 0.0051 -0.0227 0.0039 -0.0228 0.0032 -0.0233 0.0018 -0.0237 0.0003 -0.0244 0.2 0 -0.0011 0.0338 -0.0026 0.0339 -0.004 0.0333 -0.0061 0.033 -0.0075 0.0321 -0.0088 0.0319 -0.0104 0.031 -0.0122 0.03 -0.0133 0.0294 -0.0144 0.0291 -0.0163 0.028 -0.0172 0.0269 -0.0184 0.026 -0.0199 0.0249 -0.021 0.0245 -0.0219 0.0231 -0.0231 0.0219 -0.0241 0.021 -0.0252 0.0199 -0.0261 0.0184 -0.0269 0.0172 -0.028 0.0163 -0.0287 0.0144 -0.0297 0.0133 -0.03 0.0122 -0.0314 0.0104 -0.0316 0.0088 -0.0321 0.0075 -0.0329 0.0061 -0.0333 0.004 -0.0339 0.0026 -0.0338 0.0011 0 0zm-0.666 -0.666l0.2 0 0 0 0.0003 0.0244 0.0018 0.0237 0.0032 0.0233 0.0039 0.0228 0.0051 0.0227 0.0064 0.0217 0.0074 0.0216 0.0082 0.0214 0.0093 0.0208 0.0106 0.0197 0.0109 0.0194 0.0124 0.0191 0.013 0.0182 0.0137 0.0179 0.0146 0.0167 0.0157 0.0161 0.0161 0.0157 0.0167 0.0146 0.0179 0.0137 0.0182 0.013 0.0191 0.0124 0.0194 0.0109 0.0197 0.0106 0.0208 0.0093 0.0214 0.0082 0.0216 0.0074 0.0217 0.0064 0.0227 0.0051 0.0228 0.0039 0.0233 0.0032 0.0237 0.0018 0.0244 0.0003 0 0.2 -0.0338 -0.0011 -0.0339 -0.0026 -0.0333 -0.004 -0.033 -0.0061 -0.0321 -0.0075 -0.0319 -0.0088 -0.031 -0.0104 -0.03 -0.0122 -0.0294 -0.0133 -0.0291 -0.0144 -0.028 -0.0163 -0.0269 -0.0172 -0.026 -0.0184 -0.0249 -0.0199 -0.0245 -0.021 -0.0231 -0.0219 -0.0219 -0.0231 -0.021 -0.0245 -0.0199 -0.0249 -0.0184 -0.026 -0.0172 -0.0269 -0.0163 -0.028 -0.0144 -0.0291 -0.0133 -0.0294 -0.0122 -0.03 -0.0104 -0.031 -0.0088 -0.0319 -0.0075 -0.0321 -0.0061 -0.033 -0.004 -0.0333 -0.0026 -0.0339 -0.0011 -0.0338 0 0zm0.666 -0.6659l0 0.2 0 0 -0.0244 0.0003 -0.0237 0.0018 -0.0233 0.0032 -0.0228 0.0039 -0.0227 0.0051 -0.0217 0.0064 -0.0216 0.0074 -0.0214 0.0082 -0.0208 0.0093 -0.0197 0.0106 -0.0194 0.0109 -0.0191 0.0124 -0.0182 0.013 -0.0179 0.0137 -0.0167 0.0146 -0.0161 0.0157 -0.0157 0.0161 -0.0146 0.0171 -0.0137 0.0174 -0.013 0.0183 -0.0124 0.0191 -0.0109 0.0194 -0.0106 0.0201 -0.0093 0.0203 -0.0082 0.0214 -0.0074 0.0212 -0.0064 0.0222 -0.0051 0.0227 -0.0039 0.0227 -0.0032 0.0233 -0.0018 0.0237 -0.0003 0.0244 -0.2 0 0.0011 -0.0338 0.0026 -0.0339 0.004 -0.0333 0.0061 -0.0329 0.0075 -0.0321 0.0088 -0.0316 0.0104 -0.0314 0.0122 -0.03 0.0133 -0.0297 0.0144 -0.0287 0.0163 -0.028 0.0172 -0.0269 0.0184 -0.0261 0.0199 -0.0252 0.021 -0.0241 0.0219 -0.0231 0.0231 -0.0219 0.0245 -0.021 0.0249 -0.0199 0.026 -0.0184 0.0269 -0.0172 0.028 -0.0163 0.0291 -0.0144 0.0294 -0.0133 0.03 -0.0122 0.031 -0.0104 0.0319 -0.0088 0.0321 -0.0075 0.033 -0.0061 0.0333 -0.004 0.0339 -0.0026 0.0338 -0.0011 0 0zm0.6659 0.6659l-0.2 0 0 0 -0.0003 -0.0244 -0.0018 -0.0237 -0.0032 -0.0233 -0.0039 -0.0227 -0.0051 -0.0227 -0.0064 -0.0222 -0.0074 -0.0212 -0.0082 -0.0214 -0.0093 -0.0203 -0.0106 -0.0201 -0.0109 -0.0194 -0.0124 -0.0191 -0.013 -0.0183 -0.0137 -0.0174 -0.0146 -0.0171 -0.0157 -0.0161 -0.0161 -0.0157 -0.0171 -0.0146 -0.0174 -0.0137 -0.0183 -0.013 -0.0191 -0.0124 -0.0194 -0.0109 -0.0201 -0.0106 -0.0203 -0.0093 -0.0214 -0.0082 -0.0212 -0.0074 -0.0222 -0.0064 -0.0227 -0.0051 -0.0227 -0.0039 -0.0233 -0.0032 -0.0237 -0.0018 -0.0244 -0.0003 0 -0.2 0.0338 0.0011 0.0339 0.0026 0.0333 0.004 0.0329 0.0061 0.0321 0.0075 0.0316 0.0088 0.0314 0.0104 0.03 0.0122 0.0297 0.0133 0.0287 0.0144 0.028 0.0163 0.0269 0.0172 0.0261 0.0184 0.0252 0.0199 0.0241 0.021 0.0231 0.0219 0.0219 0.0231 0.021 0.0241 0.0199 0.0252 0.0184 0.0261 0.0172 0.0269 0.0163 0.028 0.0144 0.0287 0.0133 0.0297 0.0122 0.03 0.0104 0.0314 0.0088 0.0316 0.0075 0.0321 0.0061 0.0329 0.004 0.0333 0.0026 0.0339 0.0011 0.0338 0 0z"/>
   </g>
   <g>
    <path class="fil1" d="M22.3387 52.8025l0 -0.2 0 0 0.0055 0.0001 0.005 -0.0003 0.0049 -0.0009 0.005 -0.0006 0.0045 -0.001 0.0043 -0.0015 0.0045 -0.0015 0.0043 -0.0017 0.0049 -0.002 0.0042 -0.0024 0.0036 -0.0021 0.0042 -0.0028 0.0039 -0.0024 0.0035 -0.0032 0.0037 -0.003 0.0034 -0.0035 0.0035 -0.0034 0.003 -0.0037 0.0032 -0.0035 0.0024 -0.0039 0.0028 -0.0042 0.0021 -0.0036 0.0024 -0.0042 0.002 -0.0049 0.0017 -0.0043 0.0015 -0.0045 0.0015 -0.0043 0.001 -0.0045 0.0006 -0.005 0.0009 -0.0049 0.0003 -0.005 -0.0001 -0.0055 0.2 0 -0.0007 0.0149 -0.0011 0.0152 -0.0017 0.0149 -0.0028 0.0144 -0.0034 0.0147 -0.0039 0.0145 -0.0047 0.0139 -0.0055 0.0137 -0.006 0.0127 -0.0062 0.0128 -0.0075 0.013 -0.0076 0.012 -0.0086 0.0117 -0.0086 0.0113 -0.0094 0.0107 -0.0097 0.0104 -0.0104 0.0097 -0.0107 0.0094 -0.0113 0.0086 -0.0117 0.0086 -0.012 0.0076 -0.013 0.0075 -0.0128 0.0062 -0.0127 0.006 -0.0137 0.0055 -0.0139 0.0047 -0.0145 0.0039 -0.0147 0.0034 -0.0144 0.0028 -0.0149 0.0017 -0.0152 0.0011 -0.0149 0.0007 0 0zm-0.2982 -0.2983l0.2 0 0 0 -0.0001 0.0055 0.0003 0.005 0.0009 0.0049 0.0006 0.005 0.001 0.0045 0.0015 0.0043 0.0015 0.0045 0.0017 0.0043 0.0024 0.0049 0.002 0.0043 0.0021 0.0036 0.0024 0.0041 0.0032 0.0039 0.0028 0.004 0.003 0.0033 0.0031 0.0034 0.0038 0.0034 0.0041 0.0035 0.0031 0.0028 0.0039 0.0024 0.0038 0.0025 0.004 0.0023 0.0046 0.0025 0.0045 0.002 0.0043 0.0017 0.0041 0.0015 0.0047 0.0014 0.0053 0.0011 0.0042 0.0006 0.0049 0.0009 0.005 0.0003 0.0055 -0.0001 0 0.2 -0.0149 -0.0007 -0.0152 -0.0011 -0.0149 -0.0017 -0.0152 -0.0028 -0.0139 -0.0035 -0.0141 -0.0038 -0.0143 -0.0047 -0.0137 -0.0055 -0.0131 -0.006 -0.0124 -0.0063 -0.0126 -0.0071 -0.0124 -0.0079 -0.0117 -0.0086 -0.0117 -0.009 -0.0103 -0.0091 -0.01 -0.0096 -0.0101 -0.0104 -0.0094 -0.0111 -0.009 -0.011 -0.0078 -0.0117 -0.008 -0.0119 -0.0075 -0.013 -0.0066 -0.0129 -0.0056 -0.0127 -0.0055 -0.0137 -0.0047 -0.0139 -0.0039 -0.0145 -0.0034 -0.0147 -0.0028 -0.0144 -0.0017 -0.0149 -0.0011 -0.0152 -0.0007 -0.0149 0 0zm0.2982 -0.2982l0 0.2 0 0 -0.0055 -0.0001 -0.005 0.0003 -0.0049 0.0009 -0.005 0.0006 -0.0045 0.001 -0.0043 0.0015 -0.0045 0.0015 -0.0043 0.0017 -0.0049 0.002 -0.0042 0.0024 -0.0036 0.0021 -0.0042 0.0028 -0.0039 0.0024 -0.0035 0.0032 -0.0037 0.003 -0.0034 0.0035 -0.0035 0.0034 -0.003 0.0037 -0.0032 0.0035 -0.0024 0.0039 -0.0028 0.0042 -0.0021 0.0036 -0.0024 0.0042 -0.002 0.0049 -0.0017 0.0043 -0.0015 0.0045 -0.0015 0.0043 -0.001 0.0045 -0.0006 0.005 -0.0009 0.0049 -0.0003 0.005 0.0001 0.0055 -0.2 0 0.0007 -0.0149 0.0011 -0.0152 0.0017 -0.0149 0.0028 -0.0144 0.0034 -0.0147 0.0039 -0.0145 0.0047 -0.0139 0.0055 -0.0137 0.006 -0.0127 0.0062 -0.0128 0.0075 -0.013 0.0076 -0.012 0.0086 -0.0117 0.0086 -0.0113 0.0094 -0.0107 0.0097 -0.0104 0.0104 -0.0097 0.0107 -0.0094 0.0113 -0.0086 0.0117 -0.0086 0.012 -0.0076 0.013 -0.0075 0.0128 -0.0062 0.0127 -0.006 0.0137 -0.0055 0.0139 -0.0047 0.0145 -0.0039 0.0147 -0.0034 0.0144 -0.0028 0.0149 -0.0017 0.0152 -0.0011 0.0149 -0.0007 0 0zm0.2982 0.2983l-0.2 0 0 0 0.0001 -0.0055 -0.0003 -0.005 -0.0009 -0.0049 -0.0006 -0.005 -0.001 -0.0045 -0.0015 -0.0043 -0.0015 -0.0045 -0.0017 -0.0043 -0.0024 -0.0049 -0.002 -0.0043 -0.0021 -0.0036 -0.0024 -0.0041 -0.0032 -0.0039 -0.0028 -0.004 -0.003 -0.0033 -0.0031 -0.0034 -0.0038 -0.0034 -0.0041 -0.0035 -0.0031 -0.0028 -0.0039 -0.0024 -0.0038 -0.0025 -0.004 -0.0023 -0.0046 -0.0025 -0.0045 -0.002 -0.0043 -0.0017 -0.0041 -0.0015 -0.0047 -0.0014 -0.0053 -0.0011 -0.0042 -0.0006 -0.0049 -0.0009 -0.005 -0.0003 -0.0055 0.0001 0 -0.2 0.0149 0.0007 0.0152 0.0011 0.0149 0.0017 0.0152 0.0028 0.0139 0.0035 0.0141 0.0038 0.0143 0.0047 0.0137 0.0055 0.0131 0.006 0.0124 0.0063 0.0126 0.0071 0.0124 0.0079 0.0117 0.0086 0.0117 0.009 0.0103 0.0091 0.01 0.0096 0.0101 0.0104 0.0094 0.0111 0.009 0.011 0.0078 0.0117 0.008 0.0119 0.0075 0.013 0.0066 0.0129 0.0056 0.0127 0.0055 0.0137 0.0047 0.0139 0.0039 0.0145 0.0034 0.0147 0.0028 0.0144 0.0017 0.0149 0.0011 0.0152 0.0007 0.0149 0 0z"/>
   </g>
   <path class="fil0 str0" d="M13.337 52.2827l0.4555 0c0.106,0 0.1926,0.0796 0.1926,0.1768l0 0c0,0.0973 -0.0867,0.1768 -0.1926,0.1768l-0.4555 0c-0.1059,0 -0.1926,-0.0795 -0.1926,-0.1768l0 0c0,-0.0972 0.0867,-0.1768 0.1926,-0.1768z"/>
   <path class="fil0 str0" d="M14.392 52.2827l0.4556 0c0.1059,0 0.1925,0.0796 0.1925,0.1768l0 0c0,0.0973 -0.0867,0.1768 -0.1925,0.1768l-0.4556 0c-0.1058,0 -0.1925,-0.0795 -0.1925,-0.1768l0 0c0,-0.0972 0.0866,-0.1768 0.1925,-0.1768z"/>
   <path class="fil0 str0" d="M15.447 52.2827l0.4556 0c0.1059,0 0.1925,0.0796 0.1925,0.1768l0 0c0,0.0973 -0.0867,0.1768 -0.1925,0.1768l-0.4556 0c-0.1058,0 -0.1925,-0.0795 -0.1925,-0.1768l0 0c0,-0.0972 0.0866,-0.1768 0.1925,-0.1768z"/>
  </g>
 </g>
</svg>
