<?xml version="1.0" encoding="UTF-8"?>
<!DOCTYPE svg PUBLIC "-//W3C//DTD SVG 1.1//EN" "http://www.w3.org/Graphics/SVG/1.1/DTD/svg11.dtd">
<!-- Creator: CorelDRAW X8 -->
<svg xmlns="http://www.w3.org/2000/svg" xml:space="preserve" width="40mm" height="60mm" version="1.1" style="shape-rendering:geometricPrecision; text-rendering:geometricPrecision; image-rendering:optimizeQuality; fill-rule:evenodd; clip-rule:evenodd"
viewBox="0 0 4000 6000"
 xmlns:xlink="http://www.w3.org/1999/xlink">
 <defs>
  <style type="text/css">
   <![CDATA[
    .str0 {stroke:#332C2B;stroke-width:7.62}
    .fil0 {fill:none}
   ]]>
  </style>
 </defs>
 <g id="图层_x0020_1">
  <metadata id="CorelCorpID_0Corel-Layer"/>
  <path class="fil0 str0" d="M887 5350l2153 0c76,0 139,-63 139,-140l0 -4420c0,-77 -63,-140 -139,-140l-2080 0c-76,0 -139,63 -139,140l0 4420c0,77 63,140 139,140l131 0m853 -4547c-6,-22 -18,-39 -72,-39l-45 0c-24,0 -44,19 -44,43l0 0c0,24 20,44 44,44l344 0c24,0 44,-20 44,-44l0 0c0,-24 -20,-43 -44,-43l-299 0m620 39c-7,-26 6,-47 -58,-47l-13 0c-28,0 -52,24 -52,52l0 0c0,29 24,53 52,53l96 0c28,0 52,-24 52,-53l0 0c0,-28 -24,-52 -52,-52l-83 0m347 22c1,-22 -25,-40 -35,-40 -34,0 -61,27 -61,61 0,34 27,61 61,61 34,0 61,-27 61,-61 0,-34 -27,-61 -61,-61"/>
 </g>
</svg>
