<?xml version="1.0" encoding="UTF-8"?>
<!DOCTYPE svg PUBLIC "-//W3C//DTD SVG 1.1//EN" "http://www.w3.org/Graphics/SVG/1.1/DTD/svg11.dtd">
<!-- Creator: CorelDRAW X8 -->
<svg xmlns="http://www.w3.org/2000/svg" xml:space="preserve" width="40mm" height="60mm" version="1.1" style="shape-rendering:geometricPrecision; text-rendering:geometricPrecision; image-rendering:optimizeQuality; fill-rule:evenodd; clip-rule:evenodd"
viewBox="0 0 4000 6000"
 xmlns:xlink="http://www.w3.org/1999/xlink">
 <defs>
  <style type="text/css">
   <![CDATA[
    .str0 {stroke:#222222;stroke-width:20}
    .fil0 {fill:none}
   ]]>
  </style>
 </defs>
 <g id="图层_x0020_1">
  <metadata id="CorelCorpID_0Corel-Layer"/>
  <g id="_2822952303984">
   <path class="fil0 str0" d="M882 5201l1946 0c159,0 290,-131 290,-290l0 -3972c0,-159 -131,-289 -290,-289l-1652 0c-159,0 -289,130 -289,289l0 3972c0,159 130,290 289,290 160,0 259,75 259,149"/>
   <path class="fil0 str0" d="M1890 1156c0,-77 5,-258 117,-258 113,0 204,91 204,203 0,112 -91,203 -204,203 -112,0 -203,-91 -203,-203 0,-112 91,-203 203,-203"/>
   <path class="fil0 str0" d="M1959 1434c0,-18 7,-84 48,-84 42,0 76,34 76,76 0,42 -34,76 -76,76 -41,0 -75,-34 -75,-76 0,-42 34,-76 75,-76"/>
   <path class="fil0 str0" d="M1540 1111c0,-11 3,-33 19,-33 16,0 28,12 28,28 0,16 -12,28 -28,28 -16,0 -28,-12 -28,-28 0,-16 12,-28 28,-28"/>
   <path class="fil0 str0" d="M1911 4725c0,-34 -62,-46 -78,-46 -16,0 -30,13 -30,29l0 0c0,16 14,30 30,30l342 0c16,0 30,-14 30,-30l0 0c0,-16 -14,-29 -30,-29l-342 0"/>
  </g>
  <path class="fil0 str0" d="M-1007 6828l0 -6055c0,-495 -405,-900 -900,-900l-12358 0c-495,0 -900,405 -900,900l0 5140c0,495 405,900 900,900l12358 0c495,0 900,-405 900,-900 0,-495 234,-805 465,-805"/>
  <path class="fil0 str0" d="M-13591 3693c-238,0 -804,-16 -804,-366 0,-349 284,-633 633,-633 350,0 633,284 633,633 0,350 -283,633 -633,633 -349,0 -633,-283 -633,-633"/>
  <path class="fil0 str0" d="M-12725 3478c-56,0 -261,-20 -261,-151 0,-130 105,-236 236,-236 130,0 236,106 236,236 0,131 -106,236 -236,236 -131,0 -236,-105 -236,-236"/>
  <path class="fil0 str0" d="M-13731 4782c-35,0 -104,-10 -104,-59 0,-49 40,-89 89,-89 48,0 88,40 88,89 0,49 -40,88 -88,88 -49,0 -89,-39 -89,-88"/>
  <path class="fil0 str0" d="M-2488 3628c-105,0 -143,192 -143,243 0,50 41,91 92,91l0 0c50,0 91,-41 91,-91l0 -1065c0,-51 -41,-92 -91,-92l0 0c-51,0 -92,41 -92,92l0 1065"/>
 </g>
</svg>
