<?xml version="1.0" encoding="UTF-8"?>
<!DOCTYPE svg PUBLIC "-//W3C//DTD SVG 1.1//EN" "http://www.w3.org/Graphics/SVG/1.1/DTD/svg11.dtd">
<!-- Creator: CorelDRAW X8 -->
<svg xmlns="http://www.w3.org/2000/svg" xml:space="preserve" width="40mm" height="60mm" version="1.1" style="shape-rendering:geometricPrecision; text-rendering:geometricPrecision; image-rendering:optimizeQuality; fill-rule:evenodd; clip-rule:evenodd"
viewBox="0 0 4000 6000"
 xmlns:xlink="http://www.w3.org/1999/xlink">
 <defs>
  <style type="text/css">
   <![CDATA[
    .str0 {stroke:#332C2B;stroke-width:20}
    .fil0 {fill:none}
   ]]>
  </style>
 </defs>
 <g id="图层_x0020_1">
  <metadata id="CorelCorpID_0Corel-Layer"/>
  <path class="fil0 str0" d="M1181 650c-125,0 -227,102 -227,227l0 4246c0,125 102,227 227,227l1638 0c125,0 227,-102 227,-227l0 -4246c0,-125 -102,-227 -227,-227l-746 0c-1,4 -2,8 -2,13 0,13 0,27 0,41 0,39 -32,71 -71,71l0 0c-39,0 -71,-32 -71,-71l0 -41c0,-5 -1,-9 -3,-13l-745 0z"/>
 </g>
</svg>
