<?xml version="1.0" encoding="UTF-8"?>
<!DOCTYPE svg PUBLIC "-//W3C//DTD SVG 1.1//EN" "http://www.w3.org/Graphics/SVG/1.1/DTD/svg11.dtd">
<!-- Creator: CorelDRAW 2020 (64-Bit) -->
<svg xmlns="http://www.w3.org/2000/svg" xml:space="preserve" width="40mm" height="60mm" version="1.1" style="shape-rendering:geometricPrecision; text-rendering:geometricPrecision; image-rendering:optimizeQuality; fill-rule:evenodd; clip-rule:evenodd"
viewBox="0 0 4000 6000"
 xmlns:xlink="http://www.w3.org/1999/xlink"
 xmlns:xodm="http://www.corel.com/coreldraw/odm/2003">
 <defs>
  <style type="text/css">
   <![CDATA[
    .str0 {stroke:black;stroke-width:7.62;stroke-linejoin:bevel;stroke-miterlimit:22.9256}
    .fil0 {fill:none}
   ]]>
  </style>
 </defs>
 <g id="图层_x0020_1">
  <metadata id="CorelCorpID_0Corel-Layer"/>
  <path class="fil0 str0" d="M1837.07 1477.29c0,-17.99 -9.6,-34.62 -25.18,-43.61 -15.58,-9 -34.77,-9 -50.35,0 -15.58,8.99 -25.18,25.62 -25.18,43.61l0 139.36c0,27.81 22.54,50.35 50.35,50.35 27.81,0.01 50.36,-22.54 50.36,-50.35l0 -139.36zm-0.85 394.25c0,-20.96 -11.18,-40.33 -29.34,-50.81 -18.15,-10.49 -40.52,-10.49 -58.68,0 -18.15,10.48 -29.34,29.85 -29.34,50.81l0 871.03c0,32.41 26.28,58.68 58.68,58.68 32.41,0 58.68,-26.27 58.68,-58.68l0 -871.03zm0 1434.36c0,-20.96 -11.18,-40.33 -29.34,-50.81 -18.15,-10.49 -40.52,-10.49 -58.68,0 -18.15,10.48 -29.34,29.85 -29.34,50.81l0 506.12c0,32.4 26.28,58.68 58.68,58.68 32.41,0 58.68,-26.27 58.68,-58.68l0 -506.12zm-201.71 -2463.09l271.39 0 0 4512.86 -271.39 0 0 -4512.86zm-426.95 3704.56l271.23 0.25c0.06,-1038.6 0.15,-2077.19 0.15,-3115.79l-271.39 0 0.01 3115.54zm-239.93 -2064.83l0 -247.55c0,-24.31 -19.7,-44.01 -44.01,-44.01 -24.3,0 -44.01,19.7 -44.01,44.01l0 247.55c0,15.73 8.39,30.25 22.01,38.12 13.61,7.86 30.39,7.86 44.01,0 13.61,-7.87 22,-22.39 22,-38.12zm-44.01 141.2c-22.28,0 -40.34,18.06 -40.34,40.34 0,22.28 18.06,40.35 40.34,40.35 22.28,0 40.34,-18.07 40.34,-40.35 0,-22.28 -18.06,-40.34 -40.34,-40.34zm-44.92 380.5c0,16.06 8.56,30.89 22.46,38.91 13.9,8.03 31.03,8.03 44.93,0 13.9,-8.02 22.46,-22.85 22.46,-38.91l0 -210.88c0,-24.81 -20.12,-44.92 -44.93,-44.92 -24.81,0 -44.92,20.11 -44.92,44.92l0 210.88zm44.92 88.94c-22.28,0 -40.34,18.06 -40.34,40.34 0,22.28 18.06,40.35 40.34,40.35 22.28,0 40.34,-18.07 40.34,-40.35 0,-22.28 -18.06,-40.34 -40.34,-40.34zm-44.01 634.48c0,15.72 8.39,30.25 22.01,38.11 13.61,7.86 30.39,7.86 44.01,0 13.61,-7.86 22,-22.39 22,-38.11l0 -412.6c0,-24.3 -19.7,-44.01 -44.01,-44.01 -24.3,0 -44.01,19.71 -44.01,44.01l0 412.6zm-99.02 754.05l271.39 0 0 -3137.55 -271.39 0 0 2444.39 0 693.16zm-371.94 -1933.25c0,38.49 31.2,69.69 69.68,69.69 38.49,0 69.68,-31.2 69.68,-69.69l0 -561.12c0,-24.9 -13.28,-47.9 -34.84,-60.35 -21.56,-12.45 -48.12,-12.45 -69.68,0 -21.56,12.45 -34.84,35.45 -34.84,60.35l0 561.12zm-55.02 -1892.79l271.4 0 0 4512.86 -271.4 0 0 -4512.86zm3210.69 821.62c0,-17.99 -9.59,-34.62 -25.17,-43.61 -15.58,-9 -34.77,-9 -50.35,0 -15.58,8.99 -25.18,25.62 -25.18,43.61l0 139.36c0,27.81 22.54,50.35 50.35,50.35 27.81,0.01 50.35,-22.54 50.35,-50.35l0 -139.36zm-0.84 394.25c0,-20.96 -11.18,-40.33 -29.34,-50.81 -18.15,-10.49 -40.52,-10.49 -58.68,0 -18.15,10.48 -29.34,29.85 -29.34,50.81l0 871.03c0,32.41 26.27,58.68 58.68,58.68 32.41,0 58.68,-26.27 58.68,-58.68l0 -871.03zm0 1434.36c0,-20.96 -11.18,-40.33 -29.34,-50.81 -18.15,-10.49 -40.52,-10.49 -58.68,0 -18.15,10.48 -29.34,29.85 -29.34,50.81l0 506.12c0,32.4 26.27,58.68 58.68,58.68 32.41,0 58.68,-26.27 58.68,-58.68l0 -506.12zm-201.71 -2463.09l271.39 0 0 4512.86 -271.39 0 0 -4512.86zm-426.95 3704.56l271.23 0.25c0.06,-1038.6 0.15,-2077.19 0.15,-3115.79l-271.4 0 0.02 3115.54zm-239.93 -2064.83l0 -247.55c0,-24.31 -19.7,-44.01 -44.01,-44.01 -24.3,0 -44.01,19.7 -44.01,44.01l0 247.55c0,15.73 8.39,30.25 22.01,38.12 13.61,7.86 30.39,7.86 44.01,0 13.61,-7.87 22,-22.39 22,-38.12zm-44.01 141.2c-22.28,0 -40.34,18.06 -40.34,40.34 0,22.28 18.06,40.35 40.34,40.35 22.28,0 40.34,-18.07 40.34,-40.35 0,-22.28 -18.06,-40.34 -40.34,-40.34zm-44.93 380.5c0,16.06 8.57,30.89 22.47,38.91 13.9,8.03 31.02,8.03 44.92,0 13.9,-8.02 22.47,-22.85 22.47,-38.91l0 -210.88c0,-24.81 -20.12,-44.92 -44.93,-44.92 -24.81,0 -44.93,20.11 -44.93,44.92l0 210.88zm44.93 88.94c-22.28,0 -40.34,18.06 -40.34,40.34 0,22.28 18.06,40.35 40.34,40.35 22.28,0 40.34,-18.07 40.34,-40.35 0,-22.28 -18.06,-40.34 -40.34,-40.34zm-44.01 634.48c0,15.72 8.39,30.25 22.01,38.11 13.61,7.86 30.39,7.86 44.01,0 13.61,-7.86 22,-22.39 22,-38.11l0 -412.6c0,-24.3 -19.7,-44.01 -44.01,-44.01 -24.3,0 -44.01,19.71 -44.01,44.01l0 412.6zm-99.02 754.05l271.39 0 0 -3137.55 -271.39 0 0 2444.39 0 693.16zm-371.95 -1933.25c0,38.49 31.2,69.69 69.69,69.69 38.48,0 69.68,-31.2 69.68,-69.69l0 -561.12c0,-24.9 -13.28,-47.9 -34.84,-60.35 -21.56,-12.45 -48.12,-12.45 -69.68,0 -21.56,12.45 -34.85,35.45 -34.85,60.35l0 561.12zm-55.01 -1892.79l271.4 0 0 4512.86 -271.4 0 0 -4512.86z"/>
 </g>
</svg>
