<?xml version="1.0" encoding="UTF-8"?>
<!DOCTYPE svg PUBLIC "-//W3C//DTD SVG 1.1//EN" "http://www.w3.org/Graphics/SVG/1.1/DTD/svg11.dtd">
<!-- Creator: CorelDRAW -->
<svg xmlns="http://www.w3.org/2000/svg" xml:space="preserve" width="40mm" height="60mm" style="shape-rendering:geometricPrecision; text-rendering:geometricPrecision; image-rendering:optimizeQuality; fill-rule:evenodd; clip-rule:evenodd"
viewBox="0 0 40 60"
 xmlns:xlink="http://www.w3.org/1999/xlink">
 <defs>
  <style type="text/css">
   <![CDATA[
    .str0 {stroke:#1F1A17;stroke-width:0.194}
    .fil0 {fill:none;fill-rule:nonzero}
   ]]>
  </style>
 </defs>
 <g id="图层_x0020_1">
  <metadata id="CorelCorpID_0Corel-Layer"/>
  <path class="fil0 str0" d="M29.5929 53.0046l0 0.0975m1.1249 -2.416c-0.3738,1.3909 -1.3542,2.2279 -2.6969,2.299 -0.758,0.0402 -0.9598,0.1468 -0.9793,0.5149m3.6762 -2.8139l0.0619 -0.1869 -0.0333 -41.4926c-0.2144,-1.3233 -1.2716,-2.3415 -2.5627,-2.4688 -0.2121,-0.0206 -1.1914,-0.0355 -2.3289,-0.0355 -1.1925,0 -2.1889,0.016 -2.3231,0.0378m-0.0974 -0.008l0.016 0.0172 0.0642 -0.0493 0.0092 0.008 0 0.008 0.008 0.0081 0 0.016m-0.8348 0.4403c0.3521,-0.0023 0.5321,-0.1123 0.7374,-0.4483m-2.361 0.4621l1.6236 -0.0138m-1.8931 0.4736c0.0035,-0.1674 0.0081,-0.219 0.0241,-0.2752 0.031,-0.1089 0.1067,-0.1663 0.2454,-0.1846m-0.2809 0.962l0.0114 -0.5022m-1.2716 0.5951c0.0688,0.2821 0.3245,0.4793 0.6215,0.4793 0.3337,0 0.6009,-0.2385 0.6387,-0.5722m-1.2866 -0.3164l0.0035 0.2006 0.0229 0.2087m-0.0459 -0.8485c0.0127,0.039 0.0127,0.039 0.0195,0.4392m-0.0275 -0.461l0.008 0.0218m-0.7625 -0.2167c0.6582,-0.0012 0.7006,0.0103 0.7545,0.1949m-1.8312 -0.1949l1.0767 0m-1.7016 -0.297c0.2052,0.2465 0.2993,0.2901 0.6249,0.297m-0.673 -0.3624l0.0641 0.0493 -0.016 0.0161m-0.0321 -0.0894c-0.0046,0.0034 -0.0103,0.0114 -0.016,0.024m0.016 -0.0321l0 -0.016 0 0.0241m-7.764 10.321c-0.0183,-6.3502 0,-7.3203 0.1525,-8.0793 0.2523,-1.2533 1.4058,-2.244 2.69,-2.3105 0.3154,-0.0161 1.2384,-0.0276 2.275,-0.0276 1.9069,0 2.4069,0.0172 2.6465,0.0883m-7.686 38.6673l-0.078 -28.3382m0.1342 33.7045c-0.0413,-0.0974 -0.0413,-0.0974 -0.0562,-5.3663m0.078 5.4328l-0.0218 -0.0665m2.6912 2.3759c-1.2774,-0.0642 -2.3724,-1.0114 -2.6694,-2.3094m20.1134 2.3151l-17.444 -0.0057m17.5414 0.1032c-0.055,-0.0241 -0.0745,-0.0436 -0.0974,-0.0975"/>
 </g>
</svg>
