<?xml version="1.0" encoding="UTF-8"?>
<!DOCTYPE svg PUBLIC "-//W3C//DTD SVG 1.1//EN" "http://www.w3.org/Graphics/SVG/1.1/DTD/svg11.dtd">
<!-- Creator: CorelDRAW X8 -->
<svg xmlns="http://www.w3.org/2000/svg" xml:space="preserve" width="40mm" height="60mm" version="1.1" style="shape-rendering:geometricPrecision; text-rendering:geometricPrecision; image-rendering:optimizeQuality; fill-rule:evenodd; clip-rule:evenodd"
viewBox="0 0 4000 6000"
 xmlns:xlink="http://www.w3.org/1999/xlink">
 <defs>
  <style type="text/css">
   <![CDATA[
    .str0 {stroke:#332C2B;stroke-width:10}
    .fil0 {fill:none}
   ]]>
  </style>
 </defs>
 <g id="图层_x0020_1">
  <metadata id="CorelCorpID_0Corel-Layer"/>
  <path class="fil0 str0" d="M1122 5350l1756 0c124,0 226,-99 226,-220l0 -4260c0,-121 -102,-220 -226,-220l-1756 0c-124,0 -226,99 -226,220l0 764c0,33 -3,36 29,68 29,29 43,72 43,116l0 1317c0,47 -17,90 -48,121 -23,23 -24,30 -24,57l0 1817c0,121 102,220 226,220zm146 -4612l298 0c73,0 132,60 132,132l0 1040c0,72 -59,132 -132,132l-298 0c-73,0 -132,-60 -132,-132l0 -1040c0,-72 59,-132 132,-132zm1 24l294 0c59,0 108,49 108,109l0 1036c0,60 -49,109 -108,109l-294 0c-60,0 -109,-49 -109,-109l0 -1036c0,-60 49,-109 109,-109zm147 92c85,0 154,69 154,154 0,86 -69,155 -154,155 -86,0 -155,-69 -155,-155 0,-85 69,-154 155,-154zm0 392c85,0 154,70 154,155 0,85 -69,154 -154,154 -86,0 -155,-69 -155,-154 0,-85 69,-155 155,-155zm-103 542c43,0 78,35 78,78 0,43 -35,78 -78,78 -43,0 -78,-35 -78,-78 0,-43 35,-78 78,-78zm239 7l0 0c23,0 42,19 42,42l0 67c0,23 -19,41 -42,41l0 0c-22,0 -41,-18 -41,-41l0 -67c0,-23 19,-42 41,-42z"/>
 </g>
</svg>
