<?xml version="1.0" encoding="UTF-8"?>
<!DOCTYPE svg PUBLIC "-//W3C//DTD SVG 1.1//EN" "http://www.w3.org/Graphics/SVG/1.1/DTD/svg11.dtd">
<!-- Creator: CorelDRAW X8 -->
<svg xmlns="http://www.w3.org/2000/svg" xml:space="preserve" width="40mm" height="60mm" version="1.1" style="shape-rendering:geometricPrecision; text-rendering:geometricPrecision; image-rendering:optimizeQuality; fill-rule:evenodd; clip-rule:evenodd"
viewBox="0 0 4000 6000"
 xmlns:xlink="http://www.w3.org/1999/xlink">
 <defs>
  <style type="text/css">
   <![CDATA[
    .str0 {stroke:#332C2B;stroke-width:7.62}
    .fil0 {fill:none}
   ]]>
  </style>
 </defs>
 <g id="图层_x0020_1">
  <metadata id="CorelCorpID_0Corel-Layer"/>
  <path class="fil0 str0" d="M3072 656l150 0c8,0 14,7 14,14l0 4658c0,8 -6,14 -14,14l-150 0c-8,0 -14,-6 -14,-14l0 -385c-3,134 -109,243 -242,250l0 143c0,8 -6,14 -14,14l-1605 0c-7,0 -14,-6 -14,-14l0 -143c-128,-7 -232,-110 -241,-238l0 373c0,8 -6,14 -14,14l-150 0c-8,0 -14,-6 -14,-14l0 -4658c0,-7 6,-14 14,-14l150 0c8,0 14,7 14,14l0 375c9,-128 113,-231 241,-238l0 -143c0,-8 7,-14 14,-14l1605 0c8,0 14,6 14,14l0 143c133,7 239,116 242,250l0 -387c0,-7 6,-14 14,-14zm-1579 4558c1,-23 -27,-41 -37,-42 -35,0 -63,29 -63,64 0,35 28,64 63,64 36,0 64,-29 64,-64 0,-35 -28,-64 -64,-64m976 82c-4,-14 -12,-25 -47,-25l-29 0c-16,0 -29,13 -29,28l0 0c0,16 13,29 29,29l294 0c16,0 29,-13 29,-29l0 0c0,-15 -13,-28 -29,-28l-265 0m-1506 -2754c-17,4 -29,13 -29,53l0 61c0,18 14,33 32,33l0 0c18,0 33,-15 33,-33l0 -308c0,-18 -15,-33 -33,-33l0 0c-18,0 -32,15 -32,33l0 247m2283 -371c-18,5 -32,15 -32,58l0 23c0,20 16,36 35,36l0 0c20,0 36,-16 36,-36l0 -254c0,-20 -16,-36 -36,-36l0 0c-19,0 -35,16 -35,36l0 231m30 -675c-24,7 -44,20 -44,81l0 154c0,27 22,50 50,50l0 0c27,0 49,-23 49,-50l0 -478c0,-27 -22,-50 -49,-50l0 0c-28,0 -50,23 -50,50l0 324m-1229 -483c1,-20 -23,-37 -32,-37 -31,0 -57,25 -57,57 0,31 26,56 57,56 32,0 57,-25 57,-56 0,-32 -25,-57 -57,-57m-186 33c0,-23 -27,-41 -37,-42 -35,0 -64,28 -64,64 0,35 29,64 64,64 35,0 64,-29 64,-64 0,-36 -29,-64 -64,-64m-212 35c1,-28 -33,-51 -45,-52 -43,0 -78,35 -78,78 0,44 35,79 78,79 43,0 78,-35 78,-79 0,-43 -35,-78 -78,-78m7 -40l255 0c59,0 108,48 108,108l0 11c0,59 -49,108 -108,108l-255 0c-60,0 -108,-49 -108,-108l0 -11c0,-60 48,-108 108,-108zm-1 -20l256 0c78,0 142,64 142,142l0 0c0,78 -64,142 -142,142l-256 0c-78,0 -142,-64 -142,-142l0 0c0,-78 64,-142 142,-142zm729 4221c-8,-29 -23,-51 -93,-51l-56 0c-32,0 -57,25 -57,57l0 0c0,31 25,56 57,56l137 0c31,0 57,-25 57,-56l0 0c0,-32 -26,-57 -57,-57l-81 0"/>
 </g>
</svg>
