<?xml version="1.0" encoding="UTF-8"?>
<!DOCTYPE svg PUBLIC "-//W3C//DTD SVG 1.1//EN" "http://www.w3.org/Graphics/SVG/1.1/DTD/svg11.dtd">
<!-- Creator: CorelDRAW X8 -->
<svg xmlns="http://www.w3.org/2000/svg" xml:space="preserve" width="40mm" height="60mm" version="1.1" style="shape-rendering:geometricPrecision; text-rendering:geometricPrecision; image-rendering:optimizeQuality; fill-rule:evenodd; clip-rule:evenodd"
viewBox="0 0 4000 6000"
 xmlns:xlink="http://www.w3.org/1999/xlink">
 <defs>
  <style type="text/css">
   <![CDATA[
    .str0 {stroke:black;stroke-width:7.62;stroke-linejoin:bevel}
    .fil0 {fill:none}
   ]]>
  </style>
 </defs>
 <g id="图层_x0020_1">
  <metadata id="CorelCorpID_0Corel-Layer"/>
  <g id="_2182322163952">
   <path class="fil0 str0" d="M2099 758c0,0 0,394 0,394 0,277 225,502 502,502 277,0 502,-225 502,-502 0,-277 -225,-502 -502,-502 -277,0 -502,225 -502,502"/>
   <path class="fil0 str0" d="M2099 1990c0,0 0,394 0,394 0,277 225,502 502,502 277,0 502,-225 502,-502 0,-277 -225,-502 -502,-502 -277,0 -502,225 -502,502"/>
   <path class="fil0 str0" d="M2099 3222c0,0 0,394 0,394 0,277 225,502 502,502 277,0 502,-225 502,-502 0,-277 -225,-502 -502,-502 -277,0 -502,225 -502,502"/>
   <path class="fil0 str0" d="M2099 4454c0,0 0,394 0,394 0,277 225,502 502,502 277,0 502,-225 502,-502 0,-277 -225,-502 -502,-502 -277,0 -502,225 -502,502"/>
   <path class="fil0 str0" d="M897 758c0,0 0,394 0,394 0,277 225,502 502,502 277,0 502,-225 502,-502 0,-277 -225,-502 -502,-502 -277,0 -502,225 -502,502"/>
   <path class="fil0 str0" d="M897 1990c0,0 0,394 0,394 0,277 225,502 502,502 277,0 502,-225 502,-502 0,-277 -225,-502 -502,-502 -277,0 -502,225 -502,502"/>
   <path class="fil0 str0" d="M897 3222c0,0 0,394 0,394 0,277 225,502 502,502 277,0 502,-225 502,-502 0,-277 -225,-502 -502,-502 -277,0 -502,225 -502,502"/>
   <path class="fil0 str0" d="M897 4454c0,0 0,394 0,394 0,277 225,502 502,502 277,0 502,-225 502,-502 0,-277 -225,-502 -502,-502 -277,0 -502,225 -502,502"/>
  </g>
 </g>
</svg>
