<?xml version="1.0" encoding="UTF-8"?>
<!DOCTYPE svg PUBLIC "-//W3C//DTD SVG 1.1//EN" "http://www.w3.org/Graphics/SVG/1.1/DTD/svg11.dtd">
<!-- Creator: CorelDRAW X8 -->
<svg xmlns="http://www.w3.org/2000/svg" xml:space="preserve" width="40mm" height="60mm" version="1.1" style="shape-rendering:geometricPrecision; text-rendering:geometricPrecision; image-rendering:optimizeQuality; fill-rule:evenodd; clip-rule:evenodd"
viewBox="0 0 4000 6000"
 xmlns:xlink="http://www.w3.org/1999/xlink">
 <defs>
  <style type="text/css">
   <![CDATA[
    .str0 {stroke:black;stroke-width:7.62}
    .fil0 {fill:none}
   ]]>
  </style>
 </defs>
 <g id="图层_x0020_1">
  <metadata id="CorelCorpID_0Corel-Layer"/>
  <path class="fil0 str0" d="M935 5350l2005 0c111,0 202,-91 202,-202l0 -4296c0,-111 -91,-202 -202,-202l-1880 0c-111,0 -202,91 -202,202l0 4296c0,111 91,202 202,202l89 0m1167 -4572c-1,-5 -5,-10 -14,-10 -32,0 -57,25 -57,57 0,31 25,57 57,57 32,0 57,-26 57,-57 0,-32 -25,-57 -57,-57m-334 47c-5,-19 -16,-35 -64,-35l-41 0c-21,0 -39,18 -39,39l0 0c0,22 18,39 39,39l280 0c22,0 40,-17 40,-39l0 0c0,-21 -18,-39 -40,-39l-239 0m-470 50c-12,3 -20,7 -20,27l0 16c0,22 18,41 41,41l0 0c22,0 41,-19 41,-41l0 -95c0,-23 -19,-41 -41,-41l0 0c-23,0 -41,18 -41,41l0 79m269 -86c0,-5 -4,-9 -13,-10 -32,0 -57,26 -57,57 0,32 25,58 57,58 31,0 57,-26 57,-58 0,-31 -26,-57 -57,-57"/>
 </g>
</svg>
