<?xml version="1.0" encoding="UTF-8"?>
<!DOCTYPE svg PUBLIC "-//W3C//DTD SVG 1.1//EN" "http://www.w3.org/Graphics/SVG/1.1/DTD/svg11.dtd">
<!-- Creator: CorelDRAW X8 -->
<svg xmlns="http://www.w3.org/2000/svg" xml:space="preserve" width="40mm" height="60mm" version="1.1" style="shape-rendering:geometricPrecision; text-rendering:geometricPrecision; image-rendering:optimizeQuality; fill-rule:evenodd; clip-rule:evenodd"
viewBox="0 0 4000 6000"
 xmlns:xlink="http://www.w3.org/1999/xlink">
 <defs>
  <style type="text/css">
   <![CDATA[
    .str0 {stroke:black;stroke-width:7.62}
    .fil0 {fill:none}
   ]]>
  </style>
 </defs>
 <g id="图层_x0020_1">
  <metadata id="CorelCorpID_0Corel-Layer"/>
  <path class="fil0 str0" d="M1201 758c-1,-7 -7,-14 -20,-15 -45,0 -81,37 -81,82 0,45 36,81 81,81 45,0 82,-36 82,-81 0,-45 -37,-82 -82,-82m-137 4588l1782 0c124,0 226,-101 226,-226l0 -4229c0,-124 -102,-226 -226,-226l-476 0c-2,0 -4,0 -5,2l-11 8c-2,2 -4,3 -7,3l-635 0c-3,0 -5,-1 -7,-3l-9 -8c-2,-1 -4,-2 -7,-2l-495 0c-124,0 -226,102 -226,226l0 4229c0,125 102,226 226,226l33 0c24,0 46,12 57,19"/>
 </g>
</svg>
