<?xml version="1.0" encoding="UTF-8"?>
<!DOCTYPE svg PUBLIC "-//W3C//DTD SVG 1.1//EN" "http://www.w3.org/Graphics/SVG/1.1/DTD/svg11.dtd">
<!-- Creator: CorelDRAW 2020 (64-Bit) -->
<svg xmlns="http://www.w3.org/2000/svg" xml:space="preserve" width="40mm" height="60mm" version="1.1" style="shape-rendering:geometricPrecision; text-rendering:geometricPrecision; image-rendering:optimizeQuality; fill-rule:evenodd; clip-rule:evenodd"
viewBox="0 0 4000 6000"
 xmlns:xlink="http://www.w3.org/1999/xlink"
 xmlns:xodm="http://www.corel.com/coreldraw/odm/2003">
 <defs>
  <style type="text/css">
   <![CDATA[
    .str0 {stroke:#222222;stroke-width:7.62;stroke-miterlimit:22.9256}
    .fil0 {fill:none}
   ]]>
  </style>
 </defs>
 <g id="图层_x0020_1">
  <metadata id="CorelCorpID_0Corel-Layer"/>
  <path class="fil0 str0" d="M-8777.91 4717.07l0 -6119.49c0,-406.81 -335.43,-739.68 -745.38,-739.68l-14629.44 0c-409.96,0 -745.38,332.86 -745.38,739.68l0 5690.64c0,406.82 335.42,739.68 745.38,739.68l14629.44 0c409.96,0 745.38,-332.86 745.38,-739.68 0,-406.82 65.87,-662.82 134.22,-779.68"/>
  <path class="fil0 str0" d="M-21193.52 1841.39c-115.75,0 -670.52,-57.63 -670.52,-388.24 0,-330.61 268.01,-598.62 598.62,-598.62 330.61,0 598.62,268.01 598.62,598.62 0,330.61 -268.01,598.62 -598.62,598.62 -330.61,0 -598.62,-268.01 -598.62,-598.62"/>
  <path class="fil0 str0" d="M-10012.04 -818.5c-115.76,0 -237.33,279.11 -237.33,334.11 0,55 45,100 100,100l266.33 0c55,0 100,-45 100,-100l0 -537.53c0,-55 -45,-100 -100,-100l-266.33 0c-55,0 -100,45 -100,100l0 537.53"/>
  <path class="fil0 str0" d="M-24424.71 4247.02l0 -931.48c0,-275 225,-500 500,-500l2439.59 0c275,0 500,225 500,500l0 931.48c0,275 -225,500 -500,500l-2439.59 0c-275,0 -500,-225 -500,-500z"/>
  <path class="fil0 str0" d="M-24355.26 4210.36l0 -858.16c0,-253.35 207.28,-460.63 460.63,-460.63l2386.02 0c253.35,0 460.63,207.28 460.63,460.63l0 858.16c0,253.35 -207.28,460.63 -460.63,460.63l-2386.02 0c-253.35,0 -460.63,-207.28 -460.63,-460.63z"/>
  <path class="fil0 str0" d="M-23754.18 4453.37c-51.26,0 -451.45,-52.67 -451.45,-273.68 0,-221.01 179.17,-400.18 400.18,-400.18 221.01,0 400.18,179.17 400.18,400.18 0,221.01 -179.17,400.18 -400.18,400.18 -221.01,0 -400.18,-179.17 -400.18,-400.18"/>
  <path class="fil0 str0" d="M-22737.18 4431.83c-36.38,0 -476.26,-31.13 -476.26,-252.14 0,-221.01 179.17,-400.18 400.18,-400.18 221.01,0 400.18,179.17 400.18,400.18 0,221.01 -179.17,400.18 -400.18,400.18 -221.01,0 -400.18,-179.17 -400.18,-400.18"/>
  <path class="fil0 str0" d="M-21749.95 4435.1c-61.18,0 -458.07,-34.4 -458.07,-255.41 0,-221.01 179.17,-400.18 400.18,-400.18 221.01,0 400.18,179.17 400.18,400.18 0,221.01 -179.17,400.18 -400.18,400.18 -221.01,0 -400.18,-179.17 -400.18,-400.18"/>
  <g id="_2329244736800">
   <path class="fil0 str0" d="M1053.27 5311.19l1769.46 0c117.63,0 213.88,-96.99 213.88,-215.53l0 -4230.13c0,-118.54 -96.25,-215.53 -213.88,-215.53l-1645.46 0c-117.63,0 -213.88,96.99 -213.88,215.53l0 4230.13c0,118.54 96.25,215.53 213.88,215.53 117.63,0 191.66,19.05 225.45,38.81"/>
   <path class="fil0 str0" d="M1884.78 1721.19c0,-33.47 16.66,-193.88 112.26,-193.88 95.59,0 173.09,77.49 173.09,173.09 0,95.6 -77.5,173.09 -173.09,173.09 -95.6,0 -173.1,-77.49 -173.1,-173.09 0,-95.6 77.5,-173.09 173.1,-173.09"/>
   <path class="fil0 str0" d="M2653.89 4954.34c0,-33.47 -80.71,-68.63 -96.61,-68.63 -15.9,0 -28.92,13.02 -28.92,28.92l0 77.01c0,15.9 13.02,28.91 28.92,28.91l155.43 0c15.9,0 28.91,-13.01 28.91,-28.91l0 -77.01c0,-15.9 -13.01,-28.92 -28.91,-28.92l-155.43 0"/>
   <path class="fil0 str0" d="M1189.18 786.88l269.34 0c79.52,0 144.58,65.06 144.58,144.58l0 705.41c0,79.52 -65.06,144.58 -144.58,144.58l-269.34 0c-79.51,0 -144.57,-65.06 -144.57,-144.58l0 -705.41c0,-79.52 65.06,-144.58 144.57,-144.58z"/>
   <path class="fil0 str0" d="M1199.78 806.97l248.14 0c73.26,0 133.19,59.93 133.19,133.19l0 689.92c0,73.26 -59.93,133.19 -133.19,133.19l-248.14 0c-73.25,0 -133.19,-59.93 -133.19,-133.19l0 -689.92c0,-73.26 59.94,-133.19 133.19,-133.19z"/>
   <path class="fil0 str0" d="M1129.52 980.77c0,-14.82 15.23,-130.54 79.13,-130.54 63.91,0 115.71,51.81 115.71,115.71 0,63.91 -51.8,115.72 -115.71,115.72 -63.9,0 -115.71,-51.81 -115.71,-115.72 0,-63.9 51.81,-115.71 115.71,-115.71"/>
   <path class="fil0 str0" d="M1135.74 1274.84c0,-10.52 9.01,-137.71 72.91,-137.71 63.91,0 115.71,51.8 115.71,115.71 0,63.9 -51.8,115.71 -115.71,115.71 -63.9,0 -115.71,-51.81 -115.71,-115.71 0,-63.91 51.81,-115.71 115.71,-115.71"/>
   <path class="fil0 str0" d="M1134.8 1560.3c0,-17.69 9.95,-132.45 73.85,-132.45 63.91,0 115.71,51.8 115.71,115.71 0,63.9 -51.8,115.71 -115.71,115.71 -63.9,0 -115.71,-51.81 -115.71,-115.71 0,-63.91 51.81,-115.71 115.71,-115.71"/>
  </g>
 </g>
</svg>
