<?xml version="1.0" encoding="UTF-8"?>
<!DOCTYPE svg PUBLIC "-//W3C//DTD SVG 1.1//EN" "http://www.w3.org/Graphics/SVG/1.1/DTD/svg11.dtd">
<!-- Creator: CorelDRAW X8 -->
<svg xmlns="http://www.w3.org/2000/svg" xml:space="preserve" width="40mm" height="60mm" version="1.1" style="shape-rendering:geometricPrecision; text-rendering:geometricPrecision; image-rendering:optimizeQuality; fill-rule:evenodd; clip-rule:evenodd"
viewBox="0 0 4000 6000"
 xmlns:xlink="http://www.w3.org/1999/xlink">
 <defs>
  <style type="text/css">
   <![CDATA[
    .str0 {stroke:#332C2B;stroke-width:20}
    .fil0 {fill:none}
   ]]>
  </style>
 </defs>
 <g id="图层_x0020_1">
  <metadata id="CorelCorpID_0Corel-Layer"/>
  <g id="_2752348742624">
   <path class="fil0 str0" d="M920 5163l1906 0c140,0 254,-115 254,-254l0 -4005c0,-140 -114,-254 -254,-254l-1564 0c-139,0 -254,114 -254,254l0 4005c0,139 115,254 254,254 140,0 325,61 325,187"/>
   <path class="fil0 str0" d="M1240 805c-8,-15 6,-88 45,-88 40,0 72,32 72,72 0,39 -32,71 -72,71 -39,0 -72,-32 -72,-71 0,-40 33,-72 72,-72"/>
  </g>
 </g>
</svg>
