<?xml version="1.0" encoding="UTF-8"?>
<!DOCTYPE svg PUBLIC "-//W3C//DTD SVG 1.1//EN" "http://www.w3.org/Graphics/SVG/1.1/DTD/svg11.dtd">
<!-- Creator: CorelDRAW -->
<svg xmlns="http://www.w3.org/2000/svg" xml:space="preserve" width="40mm" height="60mm" style="shape-rendering:geometricPrecision; text-rendering:geometricPrecision; image-rendering:optimizeQuality; fill-rule:evenodd; clip-rule:evenodd"
viewBox="0 0 40 60"
 xmlns:xlink="http://www.w3.org/1999/xlink">
 <defs>
  <style type="text/css">
   <![CDATA[
    .str0 {stroke:#1F1A17;stroke-width:0.194}
    .str1 {stroke:#1F1A17;stroke-width:0.2}
    .fil0 {fill:none}
   ]]>
  </style>
 </defs>
 <g id="图层_x0020_1">
  <metadata id="CorelCorpID_0Corel-Layer"/>
  <path id="_120883320" class="fil0 str0" d="M29.6413 8.0343l0.0067 -0.0934 0 0.1802m-0.0067 -0.0868z"/>
  <path id="_120883824" class="fil0 str0" d="M29.648 8.1211c0.0132,0.3027 0.0499,0.4272 0.3083,1.0412 0.2189,0.5206 0.2509,0.6725 0.3396,1.6326"/>
  <path id="_120876544" class="fil0 str0" d="M30.2695 10.6138c-0.2443,-1.128 -1.0082,-1.84 -1.9986,-1.8627"/>
  <line id="_120900008" class="fil0 str0" x1="28.2709" y1="8.7511" x2="27.8031" y2= "8.7492" />
  <line id="_120854088" class="fil0 str0" x1="27.8899" y1="8.6558" x2="27.8899" y2= "6.6507" />
  <path id="_120911544" class="fil0 str0" d="M27.8163 6.6837l-0.0132 0.0538 -15.773 0.0066m15.7862 -0.0604z"/>
  <line id="_120909472" class="fil0 str0" x1="12.1169" y1="6.8308" x2="12.1169" y2= "8.836" />
  <path id="_120860136" class="fil0 str0" d="M12.0301 8.7492c-0.0292,0 -0.0575,0 -0.0849,0 -0.8356,0 -1.3279,0.233 -1.7806,0.8432 -0.3132,0.4207 -0.4188,0.7498 -0.4603,1.4364"/>
  <path id="_164806232" class="fil0 str0" d="M9.7175 10.8477c0,-0.7875 0.0773,-1.1657 0.3867,-1.8787"/>
  <line id="_166358520" class="fil0 str0" x1="10.1042" y1="8.969" x2="10.2627" y2= "8.5568" />
  <path id="_167884000" class="fil0 str0" d="M10.2627 8.5568c0.0669,-0.2216 0.0811,-0.3339 0.1094,-0.8573"/>
  <line id="_169215176" class="fil0 str0" x1="10.2787" y1="7.7938" x2="8.2735" y2= "7.7938" />
  <line id="_165002920" class="fil0 str0" x1="8.3603" y1="7.8806" x2="8.3603" y2= "52.1326" />
  <line id="_169163376" class="fil0 str0" x1="8.4537" y1="52.0459" x2="10.4588" y2= "52.0459" />
  <path id="_168984280" class="fil0 str0" d="M10.3655 51.9525c-0.0406,-0.5602 -0.0528,-0.6055 -0.3556,-1.311 -0.0217,-0.049 -0.0406,-0.0952 -0.0566,-0.1396 -0.1632,-0.43 -0.1679,-0.4602 -0.2424,-1.3902"/>
  <path id="_167852864" class="fil0 str0" d="M9.7373 49.2919c0.1085,1.0582 0.9385,1.9259 1.876,1.9636"/>
  <line id="_167884560" class="fil0 str0" x1="11.6133" y1="51.2555" x2="12.2103" y2= "51.2574" />
  <line id="_164347792" class="fil0 str0" x1="12.1169" y1="51.3442" x2="12.1169" y2= "53.3493" />
  <line id="_164848848" class="fil0 str0" x1="12.2103" y1="53.2625" x2="27.9833" y2= "53.2625" />
  <line id="_165023864" class="fil0 str0" x1="27.8899" y1="53.1692" x2="27.8899" y2= "51.164" />
  <path id="_165023640" class="fil0 str0" d="M27.9833 51.2574c0.0434,0 0.0839,0 0.1207,0 0.8092,0 1.2874,-0.2348 1.7486,-0.8592 0.2396,-0.3254 0.3188,-0.5263 0.4499,-1.1393"/>
  <path id="_120882480" class="fil0 str0" d="M30.2025 49.406l0.067 0.033 -0.0208 0.2235m-0.0462 -0.2565z"/>
  <path id="_113197192" class="fil0 str0" d="M30.2487 49.6625c-0.0405,0.4395 -0.0405,0.4395 -0.3055,1.1007"/>
  <line id="_119917184" class="fil0 str0" x1="29.9432" y1="50.7632" x2="29.8102" y2= "51.0961" />
  <path id="_166476272" class="fil0 str0" d="M29.8102 51.0961c-0.1396,0.348 -0.1588,0.3837 -0.1787,0.9779 0.0585,-0.0038 0,0.008 0.09,0.0058"/>
  <line id="_119932976" class="fil0 str0" x1="29.7215" y1="52.0798" x2="31.7265" y2= "52.0864" />
  <line id="_165006840" class="fil0 str0" x1="31.6332" y1="51.9921" x2="31.6332" y2= "7.74" />
  <line id="_119932472" class="fil0 str0" x1="31.5465" y1="7.8334" x2="29.5414" y2= "7.8334" />
  <line id="_119883584" class="fil0 str0" x1="29.6347" y1="7.9202" x2="29.6677" y2= "8.2277" />
  <line id="_120859296" class="fil0 str0" x1="8.6892" y1="44.0804" x2="8.7833" y2= "44.0937" />
  <path id="_164541096" class="fil0 str0" d="M8.9285 25.8091l0.0139 -0.0989 -0.0139 0 -0.0049 -0.8953m0.0049 0.9942z"/>
  <path id="_113198200" class="fil0 str0" d="M8.9236 24.8149c-0.004,-0.5303 0.0514,-0.6401 0.3185,-0.6401"/>
  <line id="_82954888" class="fil0 str0" x1="9.2421" y1="24.1748" x2="9.2451" y2= "24.1748" />
  <path id="_165111472" class="fil0 str0" d="M9.2451 24.1748c0.1049,0 0.1385,0.005 0.1731,0.0248 0.0436,0.0267 0.0713,0.0791 0.0891,0.1751 0.0326,0.1681 0.0386,0.3848 0.0386,1.3978"/>
  <line id="_164980072" class="fil0 str0" x1="9.5459" y1="25.7725" x2="9.5459" y2= "25.7844" />
  <path id="_113197584" class="fil0 str0" d="M9.5459 25.7844c0,0.9754 -0.009,1.2861 -0.0386,1.4434 -0.0297,0.1573 -0.0881,0.1998 -0.2701,0.1998 -0.1623,0 -0.2266,-0.0336 -0.2661,-0.1415 -0.0396,-0.1078 -0.0525,-0.2839 -0.0525,-0.7291 0,-0.3423 0.007,-0.7251 0.0169,-0.9655"/>
  <path id="_82956960" class="fil0 str0" d="M8.9285 19.2393l0.007 -0.098 -0.007 0 -0.0128 -2.1773m0.0128 2.2753z"/>
  <path id="_164793408" class="fil0 str0" d="M8.9157 16.964c-0.003,-0.4679 0.0089,-0.6559 0.0494,-0.7706 0.0406,-0.1148 0.1069,-0.1514 0.2731,-0.1514 0.1029,0 0.1949,0.0376 0.2335,0.0969"/>
  <line id="_164983040" class="fil0 str0" x1="9.4717" y1="16.1389" x2="9.4806" y2= "16.1518" />
  <path id="_113197416" class="fil0 str0" d="M9.4806 16.1518c0.0653,0.1019 0.0653,0.1019 0.0672,2.7076"/>
  <line id="_165034896" class="fil0 str0" x1="9.5478" y1="18.8594" x2="9.5478" y2= "19.2007" />
  <path id="_164805616" class="fil0 str0" d="M9.5478 19.2007c0.001,2.2655 -0.0029,2.7255 -0.0247,2.954 -0.0227,0.2285 -0.0673,0.2711 -0.2849,0.2711 -0.3087,0 -0.3235,-0.0525 -0.3235,-1.1397 0,-0.8171 0.0039,-1.2109 0.0208,-2.2635"/>
  <path class="fil0 str1" d="M30.6887 14.3237l0.0001 0c0.292,0 0.5288,0.2073 0.5288,0.4628l0 4.9469c0,0.2556 -0.2368,0.4629 -0.5288,0.4629l-0.0001 0c-0.292,0 -0.5289,-0.2073 -0.5289,-0.4629l0 -4.9469c0,-0.2555 0.2369,-0.4628 0.5289,-0.4628z"/>
  <path id="_119898704" class="fil0 str0" d="M19.8988 19.2282l0 0.0922 -0.0281 0 0.0211 0m0.007 -0.0922z"/>
  <line id="_164326960" class="fil0 str0" x1="19.9219" y1="19.0475" x2="19.9219" y2= "19.0516" />
  <path id="_164343032" class="fil0 str0" d="M19.9219 19.0516c0,0.0842 0,0.0842 -0.0291,0.3612"/>
  <line id="_119882408" class="fil0 str0" x1="19.8928" y1="19.4128" x2="19.8918" y2= "19.4268" />
  <path id="_164308704" class="fil0 str0" d="M21.2565 18.2758c-0.1305,0.7896 -0.8146,1.3661 -1.6204,1.3661 -0.9076,-0.0009 -1.6463,-0.7387 -1.6463,-1.6443 0.001,-0.9047 0.7397,-1.6435 1.6463,-1.6444 0.9805,-0.001 1.7547,0.8606 1.6367,1.8218 -0.0067,0.0518 -0.0125,0.0912 -0.0298,0.2092"/>
  <path id="_164317272" class="fil0 str0" d="M17.9777 10.9751l0.0067 -0.096 -0.0547 0.0144 -0.0336 0.0336m0.0816 0.048z"/>
  <path id="_120889704" class="fil0 str0" d="M17.8961 10.9271c-0.0019,0.0202 -0.0028,0.0326 -0.0028,0.0422 0,0.0163 0.0019,0.0298 0.0095,0.0595"/>
  <line id="_164349192" class="fil0 str0" x1="17.9028" y1="11.0288" x2="17.971" y2= "11.0634" />
  <path id="_164332896" class="fil0 str0" d="M17.971 11.0634c-0.0835,0.3338 -0.2802,0.5007 -0.5901,0.5007 -0.3367,0 -0.6005,-0.2647 -0.6005,-0.6025 0.0009,-0.3319 0.2676,-0.5986 0.6005,-0.5986 0.3301,0 0.5968,0.2648 0.5968,0.5929 0,0.0479 -0.002,0.0691 -0.0202,0.2293"/>
  <path id="_164833336" class="fil0 str0" d="M13.389 11.1382c-0.047,0.5535 -0.5325,0.9968 -1.0928,0.9958 -0.6073,0 -1.1013,-0.495 -1.1013,-1.1023 0,-0.6169 0.4844,-1.1014 1.1013,-1.1014 0.6332,0 1.1177,0.5094 1.1004,1.1561"/>
  <line id="_165027000" class="fil0 str0" x1="13.3966" y1="11.0864" x2="13.3813" y2= "11.3281" />
  <path id="_164300024" class="fil0 str0" d="M15.8296 11.1382l0 0.0882 -0.0278 0 0.0211 0m0.0067 -0.0882z"/>
  <path id="_164848792" class="fil0 str0" d="M15.8229 11.2264c-0.1429,0.5191 -0.5641,0.8596 -1.0649,0.8596 -0.614,0 -1.1119,-0.494 -1.1119,-1.1033 0,-0.7348 0.3674,-1.1023 1.1013,-1.1023 0.6275,0.001 1.0985,0.4826 1.0985,1.1244"/>
  <line id="_164331944" class="fil0 str0" x1="15.8459" y1="11.0048" x2="15.8459" y2= "11.0154" />
  <path id="_164315648" class="fil0 str0" d="M15.8459 11.0154c0,0.046 0,0.046 -0.0192,0.2609"/>
  <line id="_164314080" class="fil0 str0" x1="15.8267" y1="11.2763" x2="15.8229" y2= "11.3281" />
  <ellipse id="_164304336" class="fil0 str1" cx="19.2234" cy="7.869" rx="0.280799" ry="0.362099"/>
  <path id="_164340568" class="fil0 str0" d="M12.9077 52.0254l0.0201 0.0882 -0.0412 0m0.0211 -0.0882z"/>
  <path id="_165021064" class="fil0 str0" d="M12.8866 52.1136c-0.0451,0.1104 -0.142,0.1785 -0.2552,0.1785 -0.1574,0 -0.2792,-0.1238 -0.2792,-0.283 -0.001,-0.1593 0.1237,-0.284 0.283,-0.284 0.2015,0 0.3099,0.1659 0.2552,0.3895 -0.0057,0.0221 -0.0269,0.0988 -0.0307,0.1084"/>
  <path id="_164350984" class="fil0 str0" d="M14.151 52.0254l-0.0201 0.0882 -0.0681 -0.0882 0.0748 0.0882m0.0134 -0.0882z"/>
  <path id="_165004488" class="fil0 str0" d="M14.1376 52.1136c-0.0451,0.1123 -0.142,0.1785 -0.2609,0.1785 -0.1564,0 -0.2812,-0.1248 -0.2812,-0.2821 0,-0.1602 0.1257,-0.2849 0.2869,-0.2849 0.1679,0 0.2715,0.1084 0.2715,0.284 0,0.0489 -0.0182,0.1535 -0.0364,0.2139"/>
  <path id="_164991272" class="fil0 str0" d="M13.5255 52.0254c-0.0288,0.1938 -0.1218,0.2868 -0.2859,0.2868 -0.1573,0 -0.282,-0.1247 -0.282,-0.283 0,-0.1583 0.1266,-0.284 0.2868,-0.284 0.1669,0 0.2715,0.1084 0.2715,0.2821 0,0.0547 -0.0038,0.0902 -0.024,0.1957"/>
  <path id="_164315088" class="fil0 str0" d="M15.4088 52.0254l-0.0135 0.0882 -0.0748 -0.0882 0.0681 0.0882m0.0202 -0.0882z"/>
  <path id="_120853584" class="fil0 str0" d="M15.3886 52.1136c-0.0451,0.1113 -0.142,0.1785 -0.2552,0.1785 -0.1573,0 -0.2791,-0.1238 -0.2801,-0.283 0,-0.1593 0.1247,-0.284 0.283,-0.284 0.2024,0 0.3108,0.1659 0.2562,0.3895 -0.0058,0.0221 -0.0278,0.0988 -0.0307,0.1084"/>
  <path id="_120886176" class="fil0 str0" d="M14.7842 52.0254c-0.0393,0.1909 -0.1362,0.2868 -0.2916,0.2868 -0.1555,0 -0.2782,-0.1247 -0.2782,-0.283 0,-0.1602 0.1237,-0.284 0.2829,-0.284 0.166,0 0.2706,0.1104 0.2706,0.284 0,0.0508 -0.0048,0.0806 -0.0316,0.1938"/>
  <line id="_119920600" class="fil0 str0" x1="25.8727" y1="51.7941" x2="25.9408" y2= "51.8287" />
  <path id="_164302208" class="fil0 str0" d="M25.9408 51.8287c-0.0729,0.2926 -0.2936,0.4797 -0.5651,0.4797 -0.33,0 -0.591,-0.2581 -0.591,-0.5852 -0.0009,-0.3253 0.2581,-0.5833 0.5824,-0.5814 0.3281,0.0009 0.5804,0.2513 0.5804,0.5747 0,0.0498 -0.0019,0.069 -0.0211,0.2273"/>
  <ellipse id="_119939752" class="fil0 str1" cx="16.9813" cy="52.0469" rx="0.356199" ry="0.388499"/>
  <path class="fil0 str1" d="M19.2668 51.3661l1.3922 0c0.2905,-0.0001 0.5261,0.2355 0.5261,0.526l0 0.0002c0,0.2904 -0.2356,0.526 -0.5261,0.526l-1.3922 0.0001c-0.2904,-0.0001 -0.526,-0.2357 -0.526,-0.5262l-0.0001 0c0.0001,-0.2906 0.2357,-0.5262 0.5262,-0.5262z"/>
 </g>
</svg>
