<?xml version="1.0" encoding="UTF-8"?>
<!DOCTYPE svg PUBLIC "-//W3C//DTD SVG 1.1//EN" "http://www.w3.org/Graphics/SVG/1.1/DTD/svg11.dtd">
<!-- Creator: CorelDRAW 2020 (64-Bit) -->
<svg xmlns="http://www.w3.org/2000/svg" xml:space="preserve" width="40mm" height="60mm" version="1.1" style="shape-rendering:geometricPrecision; text-rendering:geometricPrecision; image-rendering:optimizeQuality; fill-rule:evenodd; clip-rule:evenodd"
viewBox="0 0 4000 6000"
 xmlns:xlink="http://www.w3.org/1999/xlink"
 xmlns:xodm="http://www.corel.com/coreldraw/odm/2003">
 <defs>
  <style type="text/css">
   <![CDATA[
    .str0 {stroke:#332C2B;stroke-width:7.62;stroke-miterlimit:22.9256}
    .fil0 {fill:none}
   ]]>
  </style>
 </defs>
 <g id="图层_x0020_1">
  <metadata id="CorelCorpID_0Corel-Layer"/>
  <path class="fil0 str0" d="M744.61 977.52c0,5.87 0,207.11 0,207.14 0.15,291.82 236.8,528.32 528.65,528.32 291.97,0 528.66,-236.68 528.66,-528.65 0,-291.98 -236.69,-528.66 -528.66,-528.66 -291.96,0 -528.65,236.68 -528.65,528.66 0,0.05 0,0.1 0,0.16m1440.27 -206.97c0,5.87 0,207.11 0,207.14 0.15,291.82 236.8,528.32 528.66,528.32 291.96,0 528.65,-236.68 528.65,-528.65 0,-291.98 -236.69,-528.66 -528.65,-528.66 -291.97,0 -528.66,236.68 -528.66,528.66 0,0.05 0,0.1 0,0.16m-1440.27 1639.54c0,5.87 0,207.11 0,207.14 0.15,291.81 236.8,528.32 528.65,528.32 291.97,0 528.66,-236.69 528.66,-528.66 0,-291.97 -236.69,-528.65 -528.66,-528.65 -291.96,0 -528.65,236.68 -528.65,528.65 0,0.06 0,0.11 0,0.17m1440.27 -206.97c0,5.87 0,207.11 0,207.14 0.15,291.81 236.8,528.32 528.66,528.32 291.96,0 528.65,-236.69 528.65,-528.66 0,-291.97 -236.69,-528.65 -528.65,-528.65 -291.97,0 -528.66,236.68 -528.66,528.65 0,0.06 0,0.11 0,0.17m-1440.27 1589.22c0,5.86 0,207.11 0,207.13 0.15,291.82 236.8,528.32 528.65,528.32 291.97,0 528.66,-236.68 528.66,-528.65 0,-291.97 -236.69,-528.65 -528.66,-528.65 -291.96,0 -528.65,236.68 -528.65,528.65 0,0.05 0,0.11 0,0.16m1440.27 -206.96c0,5.86 0,207.11 0,207.13 0.15,291.82 236.8,528.32 528.66,528.32 291.96,0 528.65,-236.68 528.65,-528.65 0,-291.97 -236.69,-528.65 -528.65,-528.65 -291.97,0 -528.66,236.68 -528.66,528.65 0,0.05 0,0.11 0,0.16"/>
 </g>
</svg>
