<?xml version="1.0" encoding="UTF-8"?>
<!DOCTYPE svg PUBLIC "-//W3C//DTD SVG 1.1//EN" "http://www.w3.org/Graphics/SVG/1.1/DTD/svg11.dtd">
<!-- Creator: CorelDRAW X8 -->
<svg xmlns="http://www.w3.org/2000/svg" xml:space="preserve" width="40mm" height="60mm" version="1.1" style="shape-rendering:geometricPrecision; text-rendering:geometricPrecision; image-rendering:optimizeQuality; fill-rule:evenodd; clip-rule:evenodd"
viewBox="0 0 4000 6000"
 xmlns:xlink="http://www.w3.org/1999/xlink">
 <defs>
  <style type="text/css">
   <![CDATA[
    .str0 {stroke:black;stroke-width:17.64}
    .fil0 {fill:none}
   ]]>
  </style>
 </defs>
 <g id="图层_x0020_1">
  <metadata id="CorelCorpID_0Corel-Layer"/>
  <path class="fil0 str0" d="M925 1433c-1,-12 -11,-21 -23,-21m0 0l0 0m0 0c-13,0 -23,10 -23,23m163 3883l1760 0c175,0 319,-143 319,-319l0 -4030c0,-175 -144,-319 -319,-319l-1124 0c-10,0 -19,9 -19,19l0 7c0,10 8,18 18,19 144,9 258,130 258,276l0 441c0,152 -124,276 -276,276l-459 0c-145,0 -265,-113 -275,-255m-46 2l0 3564c0,176 144,319 319,319l86 0c91,0 145,16 162,32"/>
 </g>
</svg>
