<?xml version="1.0" encoding="UTF-8"?>
<!DOCTYPE svg PUBLIC "-//W3C//DTD SVG 1.1//EN" "http://www.w3.org/Graphics/SVG/1.1/DTD/svg11.dtd">
<!-- Creator: CorelDRAW X8 -->
<svg xmlns="http://www.w3.org/2000/svg" xml:space="preserve" width="40mm" height="60mm" version="1.1" style="shape-rendering:geometricPrecision; text-rendering:geometricPrecision; image-rendering:optimizeQuality; fill-rule:evenodd; clip-rule:evenodd"
viewBox="0 0 4000 6000"
 xmlns:xlink="http://www.w3.org/1999/xlink">
 <defs>
  <style type="text/css">
   <![CDATA[
    .str0 {stroke:black;stroke-width:7.62}
    .fil0 {fill:none}
   ]]>
  </style>
 </defs>
 <g id="图层_x0020_1">
  <metadata id="CorelCorpID_0Corel-Layer"/>
  <path class="fil0 str0" d="M930 5350l1982 0c136,0 248,-111 248,-247l0 -4206c0,-136 -112,-247 -248,-247l-672 0c-10,0 -13,2 -13,13l0 646c0,121 -100,220 -221,220l0 0c-121,0 -221,-99 -221,-220l0 -637c0,-16 -5,-22 -17,-22l-680 0c-136,0 -248,111 -248,247l0 4206c0,136 112,247 248,247l90 0m522 -4351c-1,-6 -6,-11 -16,-12 -36,0 -66,30 -66,66 0,37 30,66 66,66 37,0 66,-29 66,-66 0,-36 -29,-66 -66,-66m-96 4032c-6,-23 -19,-41 -75,-41l-48 0c-26,0 -46,21 -46,46l0 0c0,25 20,46 46,46l244 0c25,0 46,-21 46,-46l0 0c0,-25 -21,-46 -46,-46l-196 0"/>
 </g>
</svg>
