<?xml version="1.0" encoding="UTF-8"?>
<!DOCTYPE svg PUBLIC "-//W3C//DTD SVG 1.1//EN" "http://www.w3.org/Graphics/SVG/1.1/DTD/svg11.dtd">
<!-- Creator: CorelDRAW X8 -->
<svg xmlns="http://www.w3.org/2000/svg" xml:space="preserve" width="40mm" height="60mm" version="1.1" style="shape-rendering:geometricPrecision; text-rendering:geometricPrecision; image-rendering:optimizeQuality; fill-rule:evenodd; clip-rule:evenodd"
viewBox="0 0 4000 6000"
 xmlns:xlink="http://www.w3.org/1999/xlink">
 <defs>
  <style type="text/css">
   <![CDATA[
    .str0 {stroke:black;stroke-width:7.62}
    .fil0 {fill:none}
   ]]>
  </style>
 </defs>
 <g id="图层_x0020_1">
  <metadata id="CorelCorpID_0Corel-Layer"/>
  <path class="fil0 str0" d="M652 756l0 4287c0,149 124,266 272,274 359,21 716,31 1075,31 360,0 719,10 1079,-12 148,-9 270,-144 270,-293l0 -4075c0,-149 -122,-272 -270,-281 -359,-23 -719,-37 -1078,-37 -360,0 -721,2 -1078,25 -148,10 -270,144 -270,293l0 86m1115 -322c0,-4 -4,-7 -11,-8 -25,0 -45,21 -45,46 0,25 20,45 45,45 26,0 46,-20 46,-45 0,-25 -20,-46 -46,-46m160 4459c-5,-19 -12,-33 -44,-33l-27 0c-38,0 -69,31 -69,69l0 0c0,37 31,68 69,68l320 0c37,0 68,-31 68,-68l0 0c0,-38 -31,-69 -68,-69l-293 0m418 -4416c0,-3 -4,-7 -11,-8 -25,0 -45,21 -45,46 0,25 20,46 45,46 26,0 46,-21 46,-46 0,-25 -20,-46 -46,-46"/>
 </g>
</svg>
