<?xml version="1.0" encoding="UTF-8"?>
<!DOCTYPE svg PUBLIC "-//W3C//DTD SVG 1.1//EN" "http://www.w3.org/Graphics/SVG/1.1/DTD/svg11.dtd">
<!-- Creator: CorelDRAW 2020 (64-Bit) -->
<svg xmlns="http://www.w3.org/2000/svg" xml:space="preserve" width="40mm" height="60mm" version="1.1" style="shape-rendering:geometricPrecision; text-rendering:geometricPrecision; image-rendering:optimizeQuality; fill-rule:evenodd; clip-rule:evenodd"
viewBox="0 0 4000 6000"
 xmlns:xlink="http://www.w3.org/1999/xlink"
 xmlns:xodm="http://www.corel.com/coreldraw/odm/2003">
 <defs>
  <style type="text/css">
   <![CDATA[
    .str1 {stroke:#332C2B;stroke-width:20;stroke-miterlimit:22.9256}
    .str2 {stroke:#332C2B;stroke-width:20;stroke-miterlimit:22.9256}
    .str0 {stroke:#E62129;stroke-width:20;stroke-miterlimit:22.9256}
    .fil0 {fill:none}
   ]]>
  </style>
   <clipPath id="id0">
    <rect x="-47012.79" y="-4841.96" width="12895.64" height="17086.68"/>
   </clipPath>
 </defs>
 <g id="图层_x0020_1">
  <metadata id="CorelCorpID_0Corel-Layer"/>
  <g style="clip-path:url(#id0)">
   <image x="-47012.79" y="-4841.96" width="12895.64" height="17086.68" xlink:href="Hot 20S -11i（背膜）_Images\Hot 20S -11i（背膜）_ImgID1.png"/>
  </g>
  <rect class="fil0 str0" x="-46935.48" y="-4743.62" width="7680" height="16870"/>
  <rect class="fil0 str0" x="-46855" y="-4707.16" width="7519.04" height="16786.81" rx="850" ry="1009.61"/>
  <path class="fil0 str1" d="M-45504.21 -4356.97c-549.44,0 -994.84,445.4 -994.84,994.84 0,549.44 445.4,994.84 994.84,994.84 549.44,0 994.84,-445.4 994.84,-994.84 0,-549.44 -445.4,-994.84 -994.84,-994.84 -549.44,0 -682.64,597.96 -685.28,629.71"/>
  <path class="fil0 str1" d="M-45504.21 -1171.38c-549.44,0 -994.84,445.4 -994.84,994.84 0,549.44 445.4,994.84 994.84,994.84 549.44,0 994.84,-445.4 994.84,-994.84 0,-549.44 -445.4,-994.84 -994.84,-994.84 -549.44,0 -682.64,597.96 -685.28,629.71"/>
  <path class="fil0 str1" d="M-45504.21 -2293.2c-284.95,0 -515.94,230.99 -515.94,515.94 0,284.95 230.99,515.94 515.94,515.94 284.95,0 515.94,-230.99 515.94,-515.94 0,-284.95 -230.99,-515.94 -515.94,-515.94 -284.95,0 -354.03,310.11 -355.4,326.58"/>
  <rect class="fil0 str1" x="-44549.65" y="-2339.33" width="420.69" height="1222.35" rx="300" ry="307.31"/>
  <path class="fil0 str2" d="M-3443.87 6378.5l0 -6274.13c0,-467.49 -382.51,-850 -850,-850l-15086.81 0c-467.5,0 -850,382.5 -850,850l0 5819.04c0,467.5 382.5,850 850,850l15086.81 0c467.5,0 850,-382.5 850,-850 0,-467.5 101.23,-740.29 263.95,-975.77"/>
  <path class="fil0 str2" d="M-19880.49 5422.62c0,549.44 445.4,994.84 994.84,994.84 549.44,0 994.84,-445.4 994.84,-994.84 0,-549.44 -445.4,-994.84 -994.84,-994.84 -549.44,0 -994.84,445.4 -994.84,994.84 0,549.44 597.96,682.64 629.71,685.28"/>
  <path class="fil0 str2" d="M-16694.9 5422.62c0,549.44 445.4,994.84 994.84,994.84 549.44,0 994.84,-445.4 994.84,-994.84 0,-549.44 -445.4,-994.84 -994.84,-994.84 -549.44,0 -994.84,445.4 -994.84,994.84 0,549.44 597.96,682.64 629.71,685.28"/>
  <path class="fil0 str2" d="M-17816.72 5422.62c0,284.95 230.99,515.94 515.94,515.94 284.95,0 515.94,-230.99 515.94,-515.94 0,-284.95 -230.99,-515.94 -515.94,-515.94 -284.95,0 -515.94,230.99 -515.94,515.94 0,284.95 310.11,354.03 326.58,355.4"/>
  <path class="fil0 str2" d="M-17862.84 4257.72c0,115.69 94.65,210.34 210.34,210.34l801.67 0c115.69,0 210.34,-94.65 210.34,-210.34l0 -0.01c0,-115.69 -94.65,-210.34 -210.34,-210.34l-801.67 0c-115.7,0 -210.34,94.65 -210.34,210.35 0,115.7 153.3,144.9 196.96,144.9"/>
  <g id="_2146969849008">
   <path class="fil0 str2" d="M1065.96 5282.91l1729.44 0c128.86,0 234.3,-105.43 234.3,-234.3l0 -4158.64c0,-128.86 -105.43,-234.3 -234.3,-234.3l-1604 0c-128.87,0 -234.3,105.44 -234.3,234.3l0 4158.64c0,128.87 105.43,234.3 234.3,234.3 128.86,0 204.06,27.91 268.97,72.76"/>
   <path class="fil0 str2" d="M1329.44 752.2c-151.45,0 -274.22,122.77 -274.22,274.22 0,151.46 122.77,274.23 274.22,274.23 151.45,0 274.23,-122.77 274.23,-274.23 0,-151.45 -122.78,-274.22 -274.23,-274.22 -151.45,0 -188.17,164.83 -188.89,173.58"/>
   <path class="fil0 str2" d="M1329.44 1630.3c-151.45,0 -274.22,122.77 -274.22,274.22 0,151.46 122.77,274.23 274.22,274.23 151.45,0 274.23,-122.77 274.23,-274.23 0,-151.45 -122.78,-274.22 -274.23,-274.22 -151.45,0 -188.17,164.83 -188.89,173.58"/>
   <path class="fil0 str2" d="M1329.44 1321.07c-78.54,0 -142.22,63.67 -142.22,142.22 0,78.54 63.68,142.22 142.22,142.22 78.55,0 142.22,-63.68 142.22,-142.22 0,-78.55 -63.67,-142.22 -142.22,-142.22 -78.54,0 -97.59,85.48 -97.96,90.02"/>
   <path class="fil0 str2" d="M1650.54 1308.36c-31.89,0 -57.98,26.09 -57.98,57.98l0 220.98c0,31.89 26.09,57.98 57.98,57.98l0 0c31.89,0 57.98,-26.09 57.98,-57.98l0 -220.98c0,-31.89 -26.09,-57.98 -57.98,-57.98 -31.89,0 -39.94,42.26 -39.94,54.29"/>
  </g>
 </g>
</svg>
