<?xml version="1.0" encoding="UTF-8"?>
<!DOCTYPE svg PUBLIC "-//W3C//DTD SVG 1.1//EN" "http://www.w3.org/Graphics/SVG/1.1/DTD/svg11.dtd">
<!-- Creator: CorelDRAW -->
<svg xmlns="http://www.w3.org/2000/svg" xml:space="preserve" width="40mm" height="60mm" style="shape-rendering:geometricPrecision; text-rendering:geometricPrecision; image-rendering:optimizeQuality; fill-rule:evenodd; clip-rule:evenodd"
viewBox="0 0 40 60"
 xmlns:xlink="http://www.w3.org/1999/xlink">
 <defs>
  <style type="text/css">
   <![CDATA[
    .str0 {stroke:#1F1A17;stroke-width:0.0762;stroke-linejoin:bevel}
    .fil0 {fill:none}
   ]]>
  </style>
 </defs>
 <g id="图层_x0020_1">
  <metadata id="CorelCorpID_0Corel-Layer"/>
  <path class="fil0 str0" d="M11.9283 52.5899l7.5085 0c0.1656,0 0.3109,-0.1103 0.3554,-0.2698l0.0021 -0.008c0.0391,-0.1591 -0.0281,-0.323 -0.1666,-0.4067 -0.6774,-0.4096 -0.9989,-1.2202 -0.7863,-1.9827 0.2127,-0.7625 0.9072,-1.2898 1.6988,-1.2898 0.7915,0 1.4861,0.5273 1.6987,1.2898 0.2126,0.7625 -0.1089,1.5731 -0.7863,1.9827 -0.1416,0.0857 -0.2089,0.2552 -0.1644,0.4147 0.0444,0.1595 0.1897,0.2698 0.3553,0.2698l7.5076 0c1.426,0 2.5821,-1.156 2.5821,-2.5742 -0.0002,-13.954 -0.0002,-27.908 -0.0002,-41.8621 0.0002,-0.6664 -0.2719,-1.3232 -0.7561,-1.8074 -0.4842,-0.4843 -1.1411,-0.7563 -1.808,-0.7561l-17.2407 -0.0002c-0.6848,0 -1.3416,0.272 -1.8258,0.7563 -0.4843,0.4842 -0.7562,1.141 -0.7562,1.8232l0.0004 41.87c-0.0004,0.6532 0.2715,1.3101 0.7558,1.7942 0.4842,0.4843 1.141,0.7563 1.8258,0.7563"/>
  <path class="fil0 str0" d="M22.8475 7.376c0,0 0.4585,-0.167 0.5548,-0.167 0.0975,0 0.1712,0.0394 0.2244,0.1212 0.0531,0.0817 0.0574,0.186 0.0111,0.2719 -0.0463,0.0857 -0.1358,0.1394 -0.2334,0.1401l-4.0677 -0.0003c-0.0973,0.0068 -0.1709,-0.0408 -0.2235,-0.123 -0.0524,-0.0822 -0.0559,-0.1864 -0.0089,-0.2719 0.0471,-0.0854 0.137,-0.1384 0.2346,-0.138l4.0634 0"/>
  <path class="fil0 str0" d="M16.6017 7.4285c0,-0.2088 0.128,-0.4466 0.3826,-0.4466 0.2546,0 0.4611,0.2065 0.4611,0.4611 0,0.2547 -0.2065,0.4611 -0.4611,0.4611 -0.2546,0 -0.4611,-0.2065 -0.4611,-0.4611 0,-0.2546 0.2065,-0.4611 0.4611,-0.4611"/>
 </g>
</svg>
