<?xml version="1.0" encoding="UTF-8"?>
<!DOCTYPE svg PUBLIC "-//W3C//DTD SVG 1.1//EN" "http://www.w3.org/Graphics/SVG/1.1/DTD/svg11.dtd">
<!-- Creator: CorelDRAW X8 -->
<svg xmlns="http://www.w3.org/2000/svg" xml:space="preserve" width="40mm" height="60mm" version="1.1" style="shape-rendering:geometricPrecision; text-rendering:geometricPrecision; image-rendering:optimizeQuality; fill-rule:evenodd; clip-rule:evenodd"
viewBox="0 0 4000 6000"
 xmlns:xlink="http://www.w3.org/1999/xlink">
 <defs>
  <style type="text/css">
   <![CDATA[
    .str0 {stroke:black;stroke-width:7.62}
    .fil0 {fill:none}
   ]]>
  </style>
 </defs>
 <g id="图层_x0020_1">
  <metadata id="CorelCorpID_0Corel-Layer"/>
  <path class="fil0 str0" d="M1008 5350l1828 0c115,0 209,-94 209,-209l0 -4282c0,-115 -94,-209 -209,-209 -562,0 -1110,0 -1672,0 -115,0 -209,94 -209,209l0 4282c0,115 94,209 209,209l280 0m-260 -4617c-1,-7 -7,-13 -20,-14 -46,0 -83,37 -83,83 0,46 37,83 83,83 46,0 84,-37 84,-83 0,-46 -38,-83 -84,-83"/>
 </g>
</svg>
