<?xml version="1.0" encoding="UTF-8"?>
<!DOCTYPE svg PUBLIC "-//W3C//DTD SVG 1.1//EN" "http://www.w3.org/Graphics/SVG/1.1/DTD/svg11.dtd">
<!-- Creator: CorelDRAW X8 -->
<svg xmlns="http://www.w3.org/2000/svg" xml:space="preserve" width="40mm" height="60mm" version="1.1" style="shape-rendering:geometricPrecision; text-rendering:geometricPrecision; image-rendering:optimizeQuality; fill-rule:evenodd; clip-rule:evenodd"
viewBox="0 0 4000 6000"
 xmlns:xlink="http://www.w3.org/1999/xlink">
 <defs>
  <style type="text/css">
   <![CDATA[
    .str0 {stroke:black;stroke-width:7.62}
    .fil0 {fill:none}
   ]]>
  </style>
 </defs>
 <g id="图层_x0020_1">
  <metadata id="CorelCorpID_0Corel-Layer"/>
  <path class="fil0 str0" d="M1151 5350l1658 0c7,0 13,-6 13,-14l0 -176c111,-1 201,-92 201,-203l0 11c0,163 -40,206 -67,285 -4,12 -4,20 12,20l129 5c8,0 14,-6 14,-13l0 -4519c0,-7 -6,-14 -14,-13 -43,0 -86,1 -130,2 -3,0 -9,7 -5,14 53,94 77,192 61,294l0 0c0,-112 -92,-203 -204,-203l-9 0 0 -176c0,-8 -6,-14 -14,-14l-1592 0c-8,0 -14,6 -14,14l0 176 -9 0c-112,0 -204,91 -204,203l0 0c-16,-102 8,-200 61,-294 5,-7 -2,-14 -5,-14 -44,-1 -87,-2 -130,-2 -8,-1 -14,6 -14,13l0 1242 47 0c7,0 13,7 13,14l0 528c0,8 -6,14 -13,14l-47 0 0 181 53 0c4,0 7,3 7,7l0 262c0,4 -3,7 -7,7l-53 0 0 2264c0,7 6,13 14,13l129 -5c16,0 16,-8 12,-20 -27,-79 -67,-122 -67,-285l0 -11c0,112 92,203 204,203l8 0 0 176c0,8 6,14 13,14l75 0m170 -4244c-1,-11 -11,-22 -32,-24 -75,0 -136,61 -136,136 0,74 61,135 136,135 75,0 135,-61 135,-135 0,-75 -60,-136 -135,-136m845 4154c0,-2 -1,-3 -5,-3 -11,0 -20,9 -20,20 0,11 9,20 20,20 12,0 21,-9 21,-20 0,-11 -9,-20 -21,-20m-859 23c-2,-11 -8,-20 -35,-20l-22 0c-12,0 -22,10 -22,22l0 0c0,12 10,22 22,22l299 0c12,0 22,-10 22,-22l0 0c0,-12 -10,-22 -22,-22l-277 0m630 -10c-3,-12 -7,-21 -28,-21l-17 0c-24,0 -43,19 -43,43l0 0c0,24 19,44 43,44l154 0c24,0 44,-20 44,-44l0 0c0,-24 -20,-43 -44,-43l-137 0m-211 -4506c-1,-5 -5,-9 -13,-10 -30,0 -54,25 -54,55 0,30 24,54 54,54 30,0 54,-24 54,-54 0,-30 -24,-55 -54,-55m805 40c0,-2 -1,-3 -4,-4 -12,0 -21,10 -21,21 0,11 9,20 21,20 11,0 20,-9 20,-20 0,-11 -9,-21 -20,-21m-1093 904c0,-10 -9,-19 -27,-20 -63,0 -115,51 -115,115 0,64 52,115 115,115 64,0 115,-51 115,-115 0,-64 -51,-115 -115,-115m30 304c-1,-10 -9,-19 -27,-21 -64,0 -115,52 -115,116 0,63 51,115 115,115 63,0 115,-52 115,-115 0,-64 -52,-116 -115,-116m-87 -452l163 0c15,0 27,12 27,27l0 40c0,15 -12,28 -27,28l-163 0c-14,0 -27,-13 -27,-28l0 -40c0,-15 13,-27 27,-27zm-34 -447l225 0c60,0 109,49 109,108l0 1011c0,59 -49,108 -109,108l-225 0c-59,0 -108,-49 -108,-108l0 -1011c0,-59 49,-108 108,-108zm16 27l199 0c45,0 81,36 81,81l0 994c0,45 -36,82 -81,82l-199 0c-45,0 -81,-37 -81,-82l0 -994c0,-45 36,-81 81,-81zm1084 4214c-3,-12 -7,-21 -28,-21l-17 0c-24,0 -43,20 -43,43l0 0c0,24 19,44 43,44l349 0c24,0 44,-20 44,-44l0 0c0,-23 -20,-43 -44,-43l-332 0"/>
 </g>
</svg>
