<?xml version="1.0" encoding="UTF-8"?>
<!DOCTYPE svg PUBLIC "-//W3C//DTD SVG 1.1//EN" "http://www.w3.org/Graphics/SVG/1.1/DTD/svg11.dtd">
<!-- Creator: CorelDRAW 2021 (64-Bit) -->
<svg xmlns="http://www.w3.org/2000/svg" xml:space="preserve" width="40mm" height="60mm" version="1.1" style="shape-rendering:geometricPrecision; text-rendering:geometricPrecision; image-rendering:optimizeQuality; fill-rule:evenodd; clip-rule:evenodd"
viewBox="0 0 4000 6000"
 xmlns:xlink="http://www.w3.org/1999/xlink"
 xmlns:xodm="http://www.corel.com/coreldraw/odm/2003">
 <defs>
  <style type="text/css">
   <![CDATA[
    .str0 {stroke:#332C2B;stroke-width:7.62;stroke-linecap:round;stroke-linejoin:round;stroke-miterlimit:22.9256}
    .fil0 {fill:none}
   ]]>
  </style>
 </defs>
 <g id="图层_x0020_1">
  <metadata id="CorelCorpID_0Corel-Layer"/>
  <path class="fil0 str0" d="M914.1 5282.42l1967.89 0c104.89,0 190.71,-85.82 190.71,-190.7l0 -4245.35c0,-104.87 -85.82,-190.7 -190.71,-190.7l-709.28 0 -23.33 23.33 -310.19 0 -23.33 -23.33 -706.53 0c-104.89,0 -190.7,85.82 -190.7,190.7l0 4245.35c0,104.89 85.81,190.7 190.7,190.7 104.88,0 186.48,27.36 188.03,73.25m680.13 -4520.15c-27.67,-15.97 -12.72,-76.17 17.16,-76.17 29.89,0 54.12,24.23 54.12,54.12 0,29.89 -24.23,54.11 -54.12,54.11 -29.88,0 -54.11,-24.22 -54.11,-54.11 0,-29.89 24.23,-54.12 54.11,-54.12"/>
 </g>
</svg>
