<?xml version="1.0" encoding="UTF-8"?>
<!DOCTYPE svg PUBLIC "-//W3C//DTD SVG 1.1//EN" "http://www.w3.org/Graphics/SVG/1.1/DTD/svg11.dtd">
<!-- Creator: CorelDRAW X8 -->
<svg xmlns="http://www.w3.org/2000/svg" xml:space="preserve" width="40mm" height="60mm" version="1.1" style="shape-rendering:geometricPrecision; text-rendering:geometricPrecision; image-rendering:optimizeQuality; fill-rule:evenodd; clip-rule:evenodd"
viewBox="0 0 4000 6000"
 xmlns:xlink="http://www.w3.org/1999/xlink">
 <defs>
  <style type="text/css">
   <![CDATA[
    .str0 {stroke:black;stroke-width:7.62}
    .fil0 {fill:none}
   ]]>
  </style>
 </defs>
 <g id="图层_x0020_1">
  <metadata id="CorelCorpID_0Corel-Layer"/>
  <path class="fil0 str0" d="M3184 1576c-19,5 -34,16 -34,62l0 40c0,21 17,38 38,38l0 0c21,0 38,-17 38,-38l0 -491c0,-21 -17,-39 -38,-39l0 0c-21,0 -38,18 -38,39l0 451m-1220 136c-37,10 -64,23 -64,86l0 17c0,73 60,133 132,133l0 0c73,0 133,-60 133,-133l0 -82c0,-73 -60,-132 -133,-132l0 0c-72,0 -132,59 -132,132l0 65m-1073 649c-14,4 -26,12 -26,48l0 31c0,16 13,29 29,29l0 0c16,0 30,-13 30,-29l0 -264c0,-16 -14,-29 -30,-29l0 0c-16,0 -29,13 -29,29l0 233m26 -585c-14,4 -26,12 -26,48l0 31c0,16 13,29 29,29l0 0c16,0 30,-13 30,-29l0 -555c0,-16 -14,-29 -30,-29l0 0c-16,0 -29,13 -29,29l0 524m475 -589c-1,-8 -9,-16 -24,-17 -55,0 -100,45 -100,100 0,55 45,100 100,100 55,0 100,-45 100,-100 0,-55 -45,-100 -100,-100m24 -243c-1,-8 -9,-16 -24,-18 -55,0 -100,45 -100,100 0,55 45,100 100,100 55,0 100,-45 100,-100 0,-55 -45,-100 -100,-100m27 -251c-1,-8 -8,-17 -24,-18 -57,0 -103,46 -103,103 0,57 46,103 103,103 57,0 103,-46 103,-103 0,-57 -46,-103 -103,-103m279 55c-1,-5 -5,-10 -14,-11 -32,0 -59,27 -59,59 0,32 27,59 59,59 32,0 59,-27 59,-59 0,-32 -27,-59 -59,-59m-267 -81l0 0c77,0 141,64 141,141l0 527c0,77 -64,141 -141,141l0 0c-78,0 -141,-64 -141,-141l0 -527c0,-77 63,-141 141,-141zm-261 4426l1914 0c114,0 234,-102 234,-219l0 -98 163 0 0 -4049 -163 0 -1 -46c0,-77 -124,-211 -233,-211l-1748 0c-95,0 -223,111 -223,211l0 46 -170 0 0 4049 168 0 0 94c0,117 108,223 225,223l81 0c68,0 187,29 225,77"/>
 </g>
</svg>
