<?xml version="1.0" encoding="UTF-8"?>
<!DOCTYPE svg PUBLIC "-//W3C//DTD SVG 1.1//EN" "http://www.w3.org/Graphics/SVG/1.1/DTD/svg11.dtd">
<!-- Creator: CorelDRAW X8 -->
<svg xmlns="http://www.w3.org/2000/svg" xml:space="preserve" width="40mm" height="60mm" version="1.1" style="shape-rendering:geometricPrecision; text-rendering:geometricPrecision; image-rendering:optimizeQuality; fill-rule:evenodd; clip-rule:evenodd"
viewBox="0 0 4000 6000"
 xmlns:xlink="http://www.w3.org/1999/xlink">
 <defs>
  <style type="text/css">
   <![CDATA[
    .str0 {stroke:black;stroke-width:7.62}
    .fil0 {fill:none}
   ]]>
  </style>
 </defs>
 <g id="图层_x0020_1">
  <metadata id="CorelCorpID_0Corel-Layer"/>
  <path class="fil0 str0" d="M905 5350l2007 0c136,0 247,-109 247,-242l0 -4216c0,-133 -111,-242 -247,-242l-482 0c-10,0 -17,5 -17,13l0 163c0,32 -27,58 -59,58l-714 0c-33,0 -59,-26 -59,-58l0 -156c0,-11 -11,-20 -24,-20l-469 0c-136,0 -247,109 -247,242l0 4216c0,133 111,242 247,242l215 0"/>
 </g>
</svg>
