<?xml version="1.0" encoding="UTF-8"?>
<!DOCTYPE svg PUBLIC "-//W3C//DTD SVG 1.1//EN" "http://www.w3.org/Graphics/SVG/1.1/DTD/svg11.dtd">
<!-- Creator: CorelDRAW X8 -->
<svg xmlns="http://www.w3.org/2000/svg" xml:space="preserve" width="40mm" height="60mm" version="1.1" style="shape-rendering:geometricPrecision; text-rendering:geometricPrecision; image-rendering:optimizeQuality; fill-rule:evenodd; clip-rule:evenodd"
viewBox="0 0 4000 6000"
 xmlns:xlink="http://www.w3.org/1999/xlink">
 <defs>
  <style type="text/css">
   <![CDATA[
    .str0 {stroke:black;stroke-width:10}
    .fil0 {fill:none}
   ]]>
  </style>
 </defs>
 <g id="图层_x0020_1">
  <metadata id="CorelCorpID_0Corel-Layer"/>
  <g id="_2508865251424">
   <rect class="fil0 str0" x="910" y="650" width="2180" height="4700" rx="250" ry="261"/>
   <path class="fil0 str0" d="M2045 1818c-1,-16 -15,-31 -45,-34 -105,0 -191,86 -191,191 0,106 86,191 191,191 105,0 191,-85 191,-191 0,-105 -86,-191 -191,-191"/>
   <g>
    <circle class="fil0 str0" cx="2000" cy="1244" r="414"/>
    <circle class="fil0 str0" cx="2000" cy="1244" r="382"/>
    <g>
     <path class="fil0 str0" d="M1919 1344c2,-40 -45,-71 -62,-73 -61,0 -111,50 -111,111 0,60 50,110 111,110 60,0 110,-50 110,-110 0,-61 -50,-111 -110,-111"/>
     <path class="fil0 str0" d="M2206 1344c2,-40 -46,-71 -63,-73 -60,0 -110,50 -110,111 0,60 50,110 110,110 61,0 111,-50 111,-110 0,-61 -50,-111 -111,-111"/>
     <path class="fil0 str0" d="M1919 1070c2,-40 -45,-72 -62,-73 -61,0 -111,49 -111,110 0,61 50,110 111,110 60,0 110,-49 110,-110 0,-61 -50,-110 -110,-110"/>
     <path class="fil0 str0" d="M2206 1070c2,-40 -46,-72 -63,-73 -60,0 -110,49 -110,110 0,61 50,110 110,110 61,0 111,-49 111,-110 0,-61 -50,-110 -111,-110"/>
    </g>
    <path class="fil0 str0" d="M2002 1223c-3,-11 -7,-20 -27,-20l-16 0c-23,0 -41,19 -41,41l0 0c0,23 18,41 41,41l82 0c23,0 41,-18 41,-41l0 0c0,-22 -18,-41 -41,-41l-66 0"/>
   </g>
  </g>
 </g>
</svg>
