<?xml version="1.0" encoding="UTF-8"?>
<!DOCTYPE svg PUBLIC "-//W3C//DTD SVG 1.1//EN" "http://www.w3.org/Graphics/SVG/1.1/DTD/svg11.dtd">
<!-- Creator: CorelDRAW X8 -->
<svg xmlns="http://www.w3.org/2000/svg" xml:space="preserve" width="40mm" height="60mm" version="1.1" style="shape-rendering:geometricPrecision; text-rendering:geometricPrecision; image-rendering:optimizeQuality; fill-rule:evenodd; clip-rule:evenodd"
viewBox="0 0 4000 6000"
 xmlns:xlink="http://www.w3.org/1999/xlink">
 <defs>
  <style type="text/css">
   <![CDATA[
    .str0 {stroke:black;stroke-width:20}
    .fil0 {fill:none}
   ]]>
  </style>
 </defs>
 <g id="图层_x0020_1">
  <metadata id="CorelCorpID_0Corel-Layer"/>
  <path class="fil0 str0" d="M1066 650l1868 0c125,0 227,102 227,227l0 4246c0,125 -102,227 -227,227l-1868 0c-125,0 -227,-102 -227,-227l0 -4246c0,-125 102,-227 227,-227zm144 49c87,0 158,71 158,158 0,87 -71,158 -158,158 -87,0 -158,-71 -158,-158 0,-87 71,-158 158,-158zm404 87c40,0 72,32 72,71 0,40 -32,71 -72,71 -39,0 -71,-31 -71,-71 0,-39 32,-71 71,-71zm485 4251l412 0c22,0 39,17 39,39l0 0c0,21 -17,39 -39,39l-412 0c-21,0 -39,-18 -39,-39l0 0c0,-22 18,-39 39,-39z"/>
 </g>
</svg>
