<?xml version="1.0" encoding="UTF-8"?>
<!DOCTYPE svg PUBLIC "-//W3C//DTD SVG 1.1//EN" "http://www.w3.org/Graphics/SVG/1.1/DTD/svg11.dtd">
<!-- Creator: CorelDRAW X8 -->
<svg xmlns="http://www.w3.org/2000/svg" xml:space="preserve" width="40mm" height="60mm" version="1.1" style="shape-rendering:geometricPrecision; text-rendering:geometricPrecision; image-rendering:optimizeQuality; fill-rule:evenodd; clip-rule:evenodd"
viewBox="0 0 4000 6000"
 xmlns:xlink="http://www.w3.org/1999/xlink">
 <defs>
  <style type="text/css">
   <![CDATA[
    .str0 {stroke:#332C2B;stroke-width:20}
    .fil0 {fill:none}
   ]]>
  </style>
 </defs>
 <g id="图层_x0020_1">
  <metadata id="CorelCorpID_0Corel-Layer"/>
  <g id="_1292050306192">
   <path class="fil0 str0" d="M957 5189l1831 0c140,0 255,-115 255,-255l0 -4030c0,-140 -115,-254 -255,-254l-1526 0c-140,0 -254,114 -254,254l0 4030c0,140 114,255 254,255 140,0 321,68 321,161"/>
   <path class="fil0 str0" d="M1326 783l279 0c93,0 170,77 170,170l0 746c0,94 -77,170 -170,170l-279 0c-93,0 -169,-76 -169,-170l0 -746c0,-93 76,-170 169,-170z"/>
   <path class="fil0 str0" d="M1328 821l276 0c73,0 133,59 133,132l0 750c0,73 -60,132 -133,132l-276 0c-73,0 -133,-59 -133,-132l0 -750c0,-73 60,-132 133,-132z"/>
   <path class="fil0 str0" d="M1329 841l273 0c62,0 113,51 113,113l0 124c0,62 -51,113 -113,113l-273 0c-62,0 -113,-51 -113,-113l0 -124c0,-62 51,-113 113,-113z"/>
   <path class="fil0 str0" d="M1284 1027c0,-16 19,-146 95,-146 75,0 136,61 136,136 0,75 -61,136 -136,136 -76,0 -137,-61 -137,-136 0,-75 61,-136 137,-136"/>
   <path class="fil0 str0" d="M1280 1396c0,-17 22,-160 96,-160 73,0 133,60 133,133 0,74 -60,133 -133,133 -74,0 -133,-59 -133,-133 0,-73 59,-133 133,-133"/>
   <path class="fil0 str0" d="M1289 1690c0,-15 19,-150 87,-150 67,0 122,55 122,123 0,67 -55,122 -122,122 -68,0 -122,-55 -122,-122 0,-68 54,-123 122,-123"/>
  </g>
  <path class="fil0 str0" d="M-7222 6588l0 -6482c0,-495 -405,-900 -900,-900l-14264 0c-495,0 -900,405 -900,900l0 5403c0,495 405,900 900,900l14264 0c495,0 900,-405 900,-900 0,-495 241,-1136 572,-1136"/>
  <path class="fil0 str0" d="M-22814 5281l0 -987c0,-330 270,-600 600,-600l2643 0c330,0 600,270 600,600l0 987c0,330 -270,600 -600,600l-2643 0c-330,0 -600,-270 -600,-600z"/>
  <path class="fil0 str0" d="M-22682 5276l0 -977c0,-259 212,-470 470,-470l2652 0c259,0 470,211 470,470l0 977c0,259 -211,470 -470,470l-2652 0c-258,0 -470,-211 -470,-470z"/>
  <path class="fil0 str0" d="M-22610 5270l0 -964c0,-220 180,-400 400,-400l438 0c220,0 400,180 400,400l0 964c0,220 -180,400 -400,400l-438 0c-220,0 -400,-180 -400,-400z"/>
  <path class="fil0 str0" d="M-21952 5430c-57,0 -518,-67 -518,-334 0,-266 217,-483 483,-483 267,0 483,217 483,483 0,267 -216,483 -483,483 -266,0 -483,-216 -483,-483"/>
  <path class="fil0 str0" d="M-20644 5445c-62,0 -568,-78 -568,-339 0,-260 211,-472 472,-472 260,0 472,212 472,472 0,261 -212,472 -472,472 -261,0 -472,-211 -472,-472"/>
  <path class="fil0 str0" d="M-19604 5412c-54,0 -530,-67 -530,-306 0,-239 194,-432 432,-432 239,0 432,193 432,432 0,239 -193,432 -432,432 -238,0 -432,-193 -432,-432"/>
 </g>
</svg>
