<?xml version="1.0" encoding="UTF-8"?>
<!DOCTYPE svg PUBLIC "-//W3C//DTD SVG 1.1//EN" "http://www.w3.org/Graphics/SVG/1.1/DTD/svg11.dtd">
<!-- Creator: CorelDRAW 2020 (64-Bit) -->
<svg xmlns="http://www.w3.org/2000/svg" xml:space="preserve" width="40mm" height="60mm" version="1.1" style="shape-rendering:geometricPrecision; text-rendering:geometricPrecision; image-rendering:optimizeQuality; fill-rule:evenodd; clip-rule:evenodd"
viewBox="0 0 4000 6000"
 xmlns:xlink="http://www.w3.org/1999/xlink"
 xmlns:xodm="http://www.corel.com/coreldraw/odm/2003">
 <defs>
  <style type="text/css">
   <![CDATA[
    .str1 {stroke:#332C2B;stroke-width:20;stroke-miterlimit:22.9256}
    .str0 {stroke:#E72D28;stroke-width:20;stroke-miterlimit:22.9256}
    .str2 {stroke:#222222;stroke-width:20;stroke-miterlimit:22.9256}
    .fil0 {fill:none}
   ]]>
  </style>
   <clipPath id="id0">
    <rect x="-27889.54" y="-4486.43" width="12688.07" height="11597.87"/>
   </clipPath>
 </defs>
 <g id="图层_x0020_1">
  <metadata id="CorelCorpID_0Corel-Layer"/>
  <g style="clip-path:url(#id0)">
   <image x="-27889.54" y="-4486.43" width="12688.07" height="11597.87" xlink:href="Galaxy Pocket 2-11i（前膜全屏）_Images\Galaxy Pocket 2-11i（前膜全屏）_ImgID1.png"/>
  </g>
  <rect class="fil0 str0" x="-27630.64" y="-4141.42" width="6080" height="10990"/>
  <path class="fil0 str0" d="M-26366.2 -3908.59c566.12,-54.22 1185.12,-60.85 1777.68,-60.85 591.15,0 1244.43,-1.3 1773.45,64.83 599.62,74.96 1075,448.73 1074.92,1053.69l-1.32 8419.35c-0.08,604.96 -483.95,993.27 -1084.86,1057.02 -548.42,58.18 -1179.42,60.18 -1774.1,60.18 -589.03,0 -1183.37,-13.25 -1772.38,-58.2 -602.52,-45.99 -1076.06,-454 -1076.24,-1059l-2.64 -8419.35c-0.18,-605 483.96,-1000.06 1085.49,-1057.67z"/>
  <path class="fil0 str1" d="M-25157.18 5326.42c-165,0 -300,135 -300,300l0 31.56c0,165 135,300 300,300l1088.49 0c165,0 300,-135 300,-300l0 -31.56c0,-165 -135,-300 -300,-300l-1088.49 0c0,0 556.54,26.61 740.43,189.34"/>
  <path class="fil0 str1" d="M-25225.57 -3593.22c-59.8,0 -108.71,48.91 -108.71,108.71l0 11.45c0,59.8 48.91,108.71 108.71,108.71l1231.19 0c59.8,0 108.71,-48.91 108.71,-108.71l0 -11.45c0,-59.8 -48.91,-108.71 -108.71,-108.71l-1231.19 0c0,0 290.22,19.19 389.44,92.62"/>
  <path class="fil0 str2" d="M-1731.91 6010.73l-9000.06 2.58c-605,0.16 -1000.06,-483.97 -1057.67,-1085.49 -54.21,-566.12 -60.85,-1185.12 -60.85,-1777.68 0,-591.15 -1.3,-1244.43 64.83,-1773.45 74.96,-599.62 448.73,-1075 1053.69,-1074.92l8419.35 1.32c604.96,0.08 993.27,483.95 1057.02,1084.86 58.18,548.42 60.18,1179.42 60.18,1774.1 0,589.03 -13.25,1183.37 -58.2,1772.38 -45.99,602.52 -454,1076.06 -1059,1076.24l-202.46 0.06c0,0 -441.86,20.2 -518.59,205.41"/>
  <path class="fil0 str1" d="M-2554.63 3718.8c0,165 135,300 300,300l31.56 0c165,0 300,-135 300,-300l0 -1088.49c0,-165 -135,-300 -300,-300l-31.56 0c-165,0 -300,135 -300,300l0 1088.49c0,0 26.61,-556.54 189.34,-740.43"/>
  <path class="fil0 str1" d="M-11474.27 3787.19c0,59.8 48.91,108.71 108.71,108.71l11.45 0c59.8,0 108.71,-48.91 108.71,-108.71l0 -1231.19c0,-59.8 -48.91,-108.71 -108.71,-108.71l-11.45 0c-59.8,0 -108.71,48.91 -108.71,108.71l0 1231.19c0,0 19.19,-290.22 92.62,-389.44"/>
  <g id="_3045195785200">
   <path class="fil0 str2" d="M779.57 5119.03l-1.14 -3969.96c-0.07,-266.87 213.48,-441.13 478.81,-466.54 249.72,-23.92 522.77,-26.85 784.15,-26.85 260.76,0 548.92,-0.57 782.27,28.6 264.5,33.07 474.19,197.94 474.16,464.79l-0.59 3713.81c-0.03,266.85 -213.47,438.13 -478.53,466.25 -241.91,25.67 -520.25,26.55 -782.57,26.55 -259.82,0 -521.99,-5.84 -781.8,-25.67 -265.78,-20.29 -474.66,-200.26 -474.74,-467.13l-0.02 -89.31c0,0 -8.91,-194.9 -90.61,-228.75"/>
   <path class="fil0 str1" d="M1790.55 4756.13c-72.78,0 -132.33,59.55 -132.33,132.33l0 13.92c0,72.78 59.55,132.33 132.33,132.33l480.14 0c72.78,0 132.33,-59.55 132.33,-132.33l0 -13.92c0,-72.78 -59.55,-132.33 -132.33,-132.33l-480.14 0c0,0 245.49,11.73 326.61,83.52"/>
   <path class="fil0 str1" d="M1760.38 821.64c-26.38,0 -47.95,21.57 -47.95,47.95l0 5.05c0,26.38 21.57,47.95 47.95,47.95l543.08 0c26.38,0 47.96,-21.57 47.96,-47.95l0 -5.05c0,-26.38 -21.58,-47.95 -47.96,-47.95l-543.08 0c0,0 128.02,8.46 171.78,40.85"/>
  </g>
 </g>
</svg>
