<?xml version="1.0" encoding="UTF-8"?>
<!DOCTYPE svg PUBLIC "-//W3C//DTD SVG 1.1//EN" "http://www.w3.org/Graphics/SVG/1.1/DTD/svg11.dtd">
<!-- Creator: CorelDRAW -->
<svg xmlns="http://www.w3.org/2000/svg" xml:space="preserve" width="40mm" height="60mm" style="shape-rendering:geometricPrecision; text-rendering:geometricPrecision; image-rendering:optimizeQuality; fill-rule:evenodd; clip-rule:evenodd"
viewBox="0 0 40 60"
 xmlns:xlink="http://www.w3.org/1999/xlink">
 <defs>
  <style type="text/css">
   <![CDATA[
    .str0 {stroke:#1F1A17;stroke-width:0.2}
    .fil0 {fill:none}
   ]]>
  </style>
 </defs>
 <g id="图层_x0020_14">
  <metadata id="CorelCorpID_0Corel-Layer"/>
  <path class="fil0 str0" d="M19.9149 18.934c0.8931,0 1.6173,0.7338 1.6173,1.6387 0,0.9049 -0.7242,1.6387 -1.6173,1.6387 -0.893,0 -1.6173,-0.7338 -1.6173,-1.6387 0,-0.9049 0.7243,-1.6387 1.6173,-1.6387zm0.0127 -9.6956l0.4999 0.0165m-0.1752 -0.0072c2.3591,0.2339 4.0669,2.0746 4.0669,4.3812 0,2.4343 -1.9737,4.4101 -4.4049,4.4101 -2.4343,0 -4.4008,-1.9696 -4.4008,-4.408 0,-2.4344 1.9675,-4.3926 4.4141,-4.3926m-10.5124 42.4497c0,0.3742 0.404,1.0492 0.8245,1.3759 0.3649,0.2835 0.5555,0.3494 1.2615,0.436m-2.1087 -45.1572l-0.0144 0.474 0.0484 42.3581 -0.0113 0.5132m1.8552 -45.185c-0.4082,0.0361 -0.9606,0.3154 -1.2688,0.641 -0.2886,0.3061 -0.5802,0.8792 -0.6091,1.1987m19.1513 -1.8428l-17.2734 0.0031m19.3295 23.4892c0.0227,-4.474 0.0278,-8.948 0.0155,-13.423 -0.0186,-6.7733 -0.0248,-7.3742 -0.0835,-8.0328 -0.0917,-1.0265 -1.0503,-2.0076 -1.9881,-2.0365m1.9479 44.678l0.1082 -21.1857m-19.0987 23.5077l17.0271 -0.0072c0.605,-0.0206 1.2698,-0.4277 1.6119,-0.9863 0.301,-0.4906 0.3484,-0.6689 0.3515,-1.3285"/>
 </g>
</svg>
