<?xml version="1.0" encoding="UTF-8"?>
<!DOCTYPE svg PUBLIC "-//W3C//DTD SVG 1.1//EN" "http://www.w3.org/Graphics/SVG/1.1/DTD/svg11.dtd">
<!-- Creator: CorelDRAW X8 -->
<svg xmlns="http://www.w3.org/2000/svg" xml:space="preserve" width="40mm" height="60mm" version="1.1" style="shape-rendering:geometricPrecision; text-rendering:geometricPrecision; image-rendering:optimizeQuality; fill-rule:evenodd; clip-rule:evenodd"
viewBox="0 0 4000 6000"
 xmlns:xlink="http://www.w3.org/1999/xlink">
 <defs>
  <style type="text/css">
   <![CDATA[
    .str0 {stroke:#332C2B;stroke-width:7.62}
    .fil0 {fill:none}
   ]]>
  </style>
 </defs>
 <g id="图层_x0020_1">
  <metadata id="CorelCorpID_0Corel-Layer"/>
  <path class="fil0 str0" d="M883 5350l2034 0c110,0 200,-90 200,-199l0 -4302c0,-109 -90,-199 -200,-199l-1685 0c-110,0 -199,90 -199,199l0 4302c0,109 89,199 199,199l231 0m-133 -4565c-5,-17 -11,-29 -40,-29l-24 0c-33,0 -61,27 -61,61l0 0c0,33 28,61 61,61l188 0c33,0 61,-28 61,-61l0 0c0,-34 -28,-61 -61,-61l-164 0"/>
 </g>
</svg>
