<?xml version="1.0" encoding="UTF-8"?>
<!DOCTYPE svg PUBLIC "-//W3C//DTD SVG 1.1//EN" "http://www.w3.org/Graphics/SVG/1.1/DTD/svg11.dtd">
<!-- Creator: CorelDRAW X8 -->
<svg xmlns="http://www.w3.org/2000/svg" xml:space="preserve" width="40mm" height="60mm" version="1.1" style="shape-rendering:geometricPrecision; text-rendering:geometricPrecision; image-rendering:optimizeQuality; fill-rule:evenodd; clip-rule:evenodd"
viewBox="0 0 4000 6000"
 xmlns:xlink="http://www.w3.org/1999/xlink">
 <defs>
  <style type="text/css">
   <![CDATA[
    .str0 {stroke:black;stroke-width:20}
    .fil0 {fill:none}
   ]]>
  </style>
 </defs>
 <g id="图层_x0020_1">
  <metadata id="CorelCorpID_0Corel-Layer"/>
  <path class="fil0 str0" d="M1023 5350l1867 0c106,0 192,-87 192,-193l0 -4314c0,-106 -86,-193 -192,-193l-1780 0c-106,0 -192,87 -192,193l0 4314c0,106 86,193 192,193l47 0m303 -4411c-1,-14 -14,-27 -39,-29 -90,0 -163,73 -163,163 0,90 73,163 163,163 90,0 163,-73 163,-163 0,-90 -73,-163 -163,-163m-123 387c-1,-12 -12,-23 -34,-25 -78,0 -141,63 -141,141 0,78 63,141 141,141 78,0 141,-63 141,-141 0,-78 -63,-141 -141,-141m356 25c-1,-12 -12,-23 -34,-25 -78,0 -141,63 -141,141 0,78 63,141 141,141 78,0 141,-63 141,-141 0,-78 -63,-141 -141,-141m-444 -421l557 0c26,0 47,21 47,47l0 730c0,26 -21,47 -47,47l-557 0c-27,0 -48,-21 -48,-47l0 -730c0,-26 21,-47 48,-47zm21 914l196 0c9,0 15,7 15,15l0 52c0,8 -6,15 -15,15l-196 0c-8,0 -15,-7 -15,-15l0 -52c0,-8 7,-15 15,-15zm-96 -43l712 0 0 608c0,41 -33,74 -74,74l-564 0c-40,0 -74,-33 -74,-74l0 -608zm73 -915l572 0c51,0 92,41 92,91l0 1448c0,50 -41,91 -92,91l-572 0c-51,0 -92,-41 -92,-91l0 -1448c0,-50 41,-91 92,-91z"/>
 </g>
</svg>
