<?xml version="1.0" encoding="UTF-8"?>
<!DOCTYPE svg PUBLIC "-//W3C//DTD SVG 1.1//EN" "http://www.w3.org/Graphics/SVG/1.1/DTD/svg11.dtd">
<!-- Creator: CorelDRAW 2020 (64-Bit) -->
<svg xmlns="http://www.w3.org/2000/svg" xml:space="preserve" width="40mm" height="60mm" version="1.1" style="shape-rendering:geometricPrecision; text-rendering:geometricPrecision; image-rendering:optimizeQuality; fill-rule:evenodd; clip-rule:evenodd"
viewBox="0 0 4000 6000"
 xmlns:xlink="http://www.w3.org/1999/xlink"
 xmlns:xodm="http://www.corel.com/coreldraw/odm/2003">
 <defs>
  <style type="text/css">
   <![CDATA[
    .str0 {stroke:black;stroke-width:7.62;stroke-miterlimit:22.9256}
    .fil0 {fill:none}
   ]]>
  </style>
 </defs>
 <g id="图层_x0020_1">
  <metadata id="CorelCorpID_0Corel-Layer"/>
  <path class="fil0 str0" d="M1041.83 5322.44l1774.86 0c120.41,0 218.92,-98.52 218.92,-218.92l0 -4228.94c0,-120.39 -98.52,-218.91 -218.92,-218.91l-548.65 0c-2.39,0 -4.45,0.86 -6.14,2.54l-3.6 3.6c-1.69,1.69 -3.75,2.54 -6.14,2.54l-158.38 0c-15.95,0 -28.95,13.01 -28.95,28.96l0 45.31c0,39.81 -32.57,72.38 -72.38,72.38l0 0c-39.8,0 -72.37,-32.57 -72.37,-72.38l0 -45.31c0,-15.95 -13.01,-28.96 -28.95,-28.96l-158.38 0c-2.39,0 -4.46,-0.85 -6.15,-2.54l-3.59 -3.6c-1.69,-1.69 -3.76,-2.54 -6.14,-2.54l-546.76 0c-120.4,0 -218.92,98.52 -218.92,218.91l0 4228.94c0,120.4 98.51,218.92 218.92,218.92l89.07 0c119.91,0 186.62,15.31 194.36,33.23"/>
 </g>
</svg>
