<?xml version="1.0" encoding="UTF-8"?>
<!DOCTYPE svg PUBLIC "-//W3C//DTD SVG 1.1//EN" "http://www.w3.org/Graphics/SVG/1.1/DTD/svg11.dtd">
<!-- Creator: CorelDRAW 2020 (64-Bit) -->
<svg xmlns="http://www.w3.org/2000/svg" xml:space="preserve" width="40mm" height="60mm" version="1.1" style="shape-rendering:geometricPrecision; text-rendering:geometricPrecision; image-rendering:optimizeQuality; fill-rule:evenodd; clip-rule:evenodd"
viewBox="0 0 4000 6000"
 xmlns:xlink="http://www.w3.org/1999/xlink"
 xmlns:xodm="http://www.corel.com/coreldraw/odm/2003">
 <defs>
  <style type="text/css">
   <![CDATA[
    .str0 {stroke:#332C2B;stroke-width:20;stroke-miterlimit:22.9256}
    .str1 {stroke:#332C2B;stroke-width:20;stroke-miterlimit:22.9256}
    .fil0 {fill:none}
   ]]>
  </style>
   <clipPath id="id0">
    <rect x="-48436.28" y="-5628.61" width="16291.43" height="16928.05"/>
   </clipPath>
 </defs>
 <g id="图层_x0020_1">
  <metadata id="CorelCorpID_0Corel-Layer"/>
  <g style="clip-path:url(#id0)">
   <image x="-48436.28" y="-5628.61" width="16291.43" height="16928.05" xlink:href="60 — 11i（前膜全屏）2_Images\60 — 11i（前膜全屏）2_ImgID1.png"/>
  </g>
  <rect class="fil0 str0" x="-48022.4" y="-5251.45" width="7330" height="16140"/>
  <path class="fil0 str0" d="M-47465.97 -5103.28l1735.68 0c32.21,0 86.42,39.59 113.84,39.59l964.25 0c70.1,0 61.09,73.59 61.09,115.4l0 308.9c0,130.43 106.7,237.13 237.13,237.13l0 0c130.43,0 237.13,-106.7 237.13,-237.13l0 -308.9c0,-41.82 -4.39,-115.4 63.73,-115.4l960.82 0c27.42,0 75.66,-39.59 114.16,-39.59l1729.31 0c275,0 500,225.02 500,500l0 14844.49c0,275 -225,500 -500,500l-6217.14 0c-275,0 -500,-225 -500,-500l0 -14844.49c0,-275 225,-500 500,-500z"/>
  <path class="fil0 str1" d="M-8244.12 6295.64l0 -6539.93c0,-274.99 -225.01,-500 -500,-500l-14844.49 0c-274.98,0 -500,225 -500,500l0 1729.31c0,38.5 39.59,86.74 39.59,114.16l0 960.82c0,68.12 73.58,63.73 115.4,63.73l308.9 0c130.43,0 237.13,106.7 237.13,237.13l0 0c0,130.43 -106.7,237.13 -237.13,237.13l-308.9 0c-41.81,0 -115.4,-9.01 -115.4,61.09l0 964.25c0,27.42 -39.59,81.63 -39.59,113.84l0 1735.68c0,275 225,500 500,500l14844.49 0c275,0 500,-225 500,-500 0,-275 37.72,-537.91 90.63,-655.66"/>
  <path class="fil0 str1" d="M980.8 5323.8l1928.93 0c81.11,0 147.47,-66.37 147.47,-147.47l0 -4378.33c0,-81.1 -66.36,-147.47 -147.47,-147.47l-510.05 0c-11.36,0 -25.59,11.68 -33.67,11.68l-283.39 0c-20.1,0 -18.8,21.7 -18.8,34.03l0 91.11c0,38.47 -31.47,69.94 -69.94,69.94l0 0c-38.47,0 -69.94,-31.47 -69.94,-69.94l0 -91.11c0,-12.33 2.66,-34.03 -18.02,-34.03l-284.4 0c-8.09,0 -24.08,-11.68 -33.58,-11.68l-511.93 0c-81.11,0 -147.47,66.36 -147.47,147.47l0 4378.33c0,81.11 66.36,147.47 147.47,147.47 81.11,0 158.65,11.12 193.38,26.73"/>
 </g>
</svg>
