<?xml version="1.0" encoding="UTF-8"?>
<!DOCTYPE svg PUBLIC "-//W3C//DTD SVG 1.1//EN" "http://www.w3.org/Graphics/SVG/1.1/DTD/svg11.dtd">
<!-- Creator: CorelDRAW X8 -->
<svg xmlns="http://www.w3.org/2000/svg" xml:space="preserve" width="40mm" height="60mm" version="1.1" style="shape-rendering:geometricPrecision; text-rendering:geometricPrecision; image-rendering:optimizeQuality; fill-rule:evenodd; clip-rule:evenodd"
viewBox="0 0 4000 6000"
 xmlns:xlink="http://www.w3.org/1999/xlink">
 <defs>
  <style type="text/css">
   <![CDATA[
    .fil0 {fill:black;fill-rule:nonzero}
   ]]>
  </style>
 </defs>
 <g id="图层_x0020_1">
  <metadata id="CorelCorpID_0Corel-Layer"/>
  <g>
   <path class="fil0" d="M1561 860c-5,0 -9,-5 -9,-10 0,-6 5,-10 11,-10l-2 20zm10 -29l18 9 -1 1 -1 1 0 1 -1 1 -1 1 0 1 -1 1 -1 1 0 1 -1 0 -1 1 0 1 -1 1 -1 0 -1 1 0 1 -1 1 -1 0 -1 1 -1 0 0 1 -1 0 -1 1 -1 0 -1 1 -1 0 -1 1 -1 0 -1 0 -1 0 -1 0 -1 0 -2 0 2 -20 -1 0 0 0 0 0 0 0 0 0 0 0 0 0 0 0 0 0 1 0 0 0 0 0 0 0 0 0 1 -1 0 0 0 0 1 0 0 -1 0 0 1 -1 0 0 1 -1 0 0 1 -1 0 0 1 -1 0 -1 1 0 0 -1 1 -1 0 -1 0 1zm0 -1c3,-5 9,-6 14,-3 5,3 6,9 3,14l-17 -11zm69 -89l15 13 0 0 -3 3 -2 3 -3 3 -2 3 -3 2 -2 3 -3 3 -2 3 -3 3 -2 3 -2 3 -3 3 -2 3 -3 3 -2 3 -2 3 -2 3 -2 2 -3 3 -2 3 -2 3 -2 2 -1 3 -2 3 -2 2 -2 2 -1 3 -2 2 -1 2 -1 2 -1 2 -1 2 -18 -9 1 -2 2 -3 1 -2 1 -3 2 -2 2 -3 1 -2 2 -3 2 -3 2 -2 2 -3 2 -3 2 -3 3 -3 2 -3 2 -3 2 -3 3 -3 2 -3 3 -3 2 -3 3 -3 2 -3 3 -3 2 -3 3 -3 2 -3 3 -2 2 -3 3 -3 2 -3 3 -3 0 0zm0 0c3,-4 10,-5 14,-1 4,4 4,10 1,14l-15 -13zm63 -37l4 19 0 0 -2 1 -1 0 -2 1 -2 0 -2 1 -1 0 -2 1 -2 0 -1 1 -2 0 -1 1 -2 0 -2 1 -1 1 -2 1 -1 1 -2 0 -1 1 -2 1 -2 1 -1 1 -2 2 -1 1 -2 1 -2 1 -1 2 -2 1 -2 2 -1 2 -2 1 -2 2 -1 2 -15 -13 2 -2 2 -2 2 -2 2 -2 1 -2 2 -2 2 -2 2 -1 2 -2 2 -1 2 -2 2 -1 2 -2 2 -1 2 -1 2 -1 2 -1 2 -1 2 -1 2 -1 2 -1 2 -1 2 0 2 -1 2 -1 2 0 2 -1 2 0 2 -1 2 0 2 -1 2 0 0 0zm0 0c6,-1 11,2 12,8 1,5 -2,10 -8,11l-4 -19zm587 -63l1 20 0 0 -12 1 -13 1 -14 1 -16 1 -16 2 -18 1 -18 2 -20 1 -20 2 -20 2 -21 2 -21 2 -22 2 -22 2 -22 2 -22 2 -22 3 -22 2 -22 2 -22 3 -21 2 -20 2 -20 3 -19 2 -19 2 -18 3 -16 2 -16 2 -14 2 -13 2 -12 3 -11 1 -4 -19 11 -2 12 -2 14 -2 14 -3 16 -2 17 -2 18 -2 18 -3 19 -2 20 -3 21 -2 21 -2 22 -3 21 -2 22 -2 23 -2 22 -3 22 -2 22 -2 22 -2 21 -2 21 -2 21 -2 20 -2 19 -1 18 -2 18 -1 17 -2 15 -1 15 -1 13 -1 12 -1 0 0zm0 0c5,0 10,4 10,10 1,5 -3,10 -9,10l-1 -20zm110 47l-17 11 0 0 -3 -4 -2 -4 -3 -4 -3 -3 -3 -3 -3 -3 -3 -2 -3 -2 -3 -2 -3 -2 -3 -2 -3 -1 -3 -2 -2 -1 -3 -1 -3 0 -3 -1 -3 -1 -3 0 -3 0 -3 -1 -3 0 -3 0 -3 0 -2 0 -3 0 -3 0 -3 0 -3 1 -3 0 -2 0 -3 0 -1 -20 2 0 3 0 3 0 3 -1 3 0 3 0 3 0 3 0 4 0 3 0 4 0 3 1 4 0 3 1 4 0 4 1 3 1 4 1 4 2 4 2 4 1 3 3 4 2 4 2 4 3 3 3 4 4 3 4 4 3 3 5 4 4 3 5 0 0zm0 0c3,5 2,11 -3,14 -4,3 -11,2 -14,-3l17 -11zm69 248l-20 0 0 0 0 -7 0 -8 -1 -8 0 -7 0 -8 -1 -7 -1 -8 -1 -8 -1 -7 -1 -8 -1 -8 -1 -7 -2 -8 -1 -7 -2 -8 -2 -7 -2 -8 -2 -7 -3 -8 -2 -7 -3 -8 -2 -7 -3 -7 -3 -7 -4 -8 -3 -7 -4 -7 -3 -7 -4 -7 -4 -7 -4 -7 -5 -7 17 -11 5 7 4 8 4 7 4 7 4 8 4 7 4 8 3 8 3 7 3 8 3 8 3 7 2 8 3 8 2 8 2 8 2 7 2 8 2 8 1 8 2 8 1 8 1 8 1 8 1 8 1 8 0 8 1 8 0 8 1 7 0 8 0 8 0 0zm0 0c0,6 -4,10 -10,10 -5,0 -10,-4 -10,-10l20 0zm-7 2397l-20 0 0 1 0 -34 -1 -41 0 -48 0 -54 -1 -61 0 -66 0 -71 1 -76 0 -79 0 -84 0 -86 1 -90 0 -91 1 -93 0 -94 1 -96 0 -95 1 -95 0 -95 1 -93 0 -92 1 -89 0 -87 1 -84 0 -81 0 -76 1 -72 0 -67 0 -61 0 -56 0 -49 0 -42 20 0 0 42 0 49 0 56 0 61 0 67 -1 72 0 76 0 81 -1 84 0 87 -1 89 0 92 -1 93 0 95 -1 95 0 95 -1 96 0 94 -1 93 0 92 -1 89 0 86 0 84 0 79 -1 76 0 71 0 66 1 61 0 54 0 48 1 41 0 33 0 0zm0 0c0,6 -4,10 -10,10 -5,1 -10,-4 -10,-9l20 -1zm3 1591l-20 0 0 0 0 -16 0 -22 0 -26 0 -31 0 -34 0 -39 0 -43 0 -45 0 -49 0 -52 0 -53 0 -57 0 -57 0 -60 -1 -61 0 -61 0 -63 0 -63 0 -63 0 -62 0 -63 -1 -61 0 -61 0 -59 0 -57 0 -56 0 -53 0 -51 -1 -48 0 -45 0 -42 0 -38 20 0 0 38 0 42 0 45 1 48 0 51 0 53 0 56 0 57 0 59 0 61 1 61 0 62 0 63 0 63 0 63 0 63 0 61 1 61 0 60 0 57 0 57 0 53 0 52 0 49 0 45 0 43 0 39 0 34 0 31 0 26 0 22 0 16 0 0zm0 0c-1,6 -5,10 -11,10 -5,0 -10,-4 -9,-10l20 0zm-47 375l-19 -7 0 0 4 -10 3 -11 4 -10 3 -10 3 -11 2 -11 3 -11 2 -11 3 -11 2 -12 2 -11 1 -12 2 -11 1 -12 2 -12 1 -12 1 -11 1 -12 1 -12 1 -12 0 -12 1 -12 0 -12 1 -12 0 -12 1 -12 0 -12 0 -12 0 -12 0 -12 0 -11 1 -12 20 0 -1 12 0 12 0 11 0 12 0 12 0 12 -1 12 0 12 -1 12 0 13 -1 12 0 12 -1 12 -1 12 -1 12 -1 12 -1 12 -2 12 -1 12 -2 12 -2 12 -2 12 -2 11 -2 12 -3 11 -2 12 -3 11 -3 11 -3 11 -4 11 -3 10 -4 11 0 0zm0 0c-2,5 -8,7 -13,6 -5,-2 -8,-8 -6,-13l19 7zm-100 61l0 -20 0 0 5 0 5 -1 4 0 5 0 4 -1 4 -1 4 -1 3 -1 4 -1 3 -1 3 -1 3 -1 3 -2 2 -1 3 -2 2 -2 2 -1 2 -2 2 -2 2 -2 2 -2 2 -2 1 -2 2 -2 1 -2 2 -2 1 -2 1 -2 1 -3 1 -2 1 -2 1 -2 19 7 -1 3 -1 2 -2 3 -1 3 -2 3 -1 2 -2 3 -2 3 -2 3 -2 2 -2 3 -2 2 -3 3 -2 2 -3 2 -3 3 -3 2 -3 2 -4 2 -3 2 -4 1 -4 2 -4 1 -4 2 -5 1 -4 1 -5 1 -5 0 -5 1 -5 0 -5 1 -6 0 0 0zm0 0c-5,0 -10,-5 -10,-10 0,-6 4,-10 10,-10l0 20zm-632 -7l0 -20 0 0 7 0 9 0 12 0 13 0 15 0 17 1 18 0 20 0 21 0 22 1 22 0 24 1 25 0 25 0 25 1 26 0 25 0 26 1 26 0 25 0 25 1 24 0 24 0 22 0 22 1 20 0 20 0 18 0 16 0 14 0 13 0 11 0 0 20 -11 0 -13 0 -14 0 -16 0 -18 0 -20 0 -20 0 -22 -1 -23 0 -23 0 -24 0 -25 -1 -26 0 -25 0 -26 -1 -26 0 -25 0 -26 -1 -25 0 -24 0 -24 -1 -23 0 -22 -1 -21 0 -19 0 -19 0 -16 -1 -15 0 -14 0 -11 0 -9 0 -7 0 0 0zm0 0c-6,0 -10,-5 -10,-10 0,-6 4,-10 10,-10l0 20zm-84 -67l19 -6 0 0 1 4 2 3 1 4 1 3 2 3 1 3 2 3 1 3 2 2 1 3 2 2 1 2 2 2 2 1 2 2 1 2 2 1 2 1 2 1 2 1 3 1 2 1 2 1 3 1 2 0 3 1 2 0 3 1 3 0 3 0 4 1 3 0 0 20 -4 0 -4 -1 -3 0 -4 0 -4 -1 -3 0 -3 -1 -4 -1 -3 -1 -3 -1 -3 -1 -3 -2 -3 -1 -3 -2 -3 -2 -3 -2 -2 -2 -3 -2 -2 -3 -3 -2 -2 -3 -2 -3 -2 -3 -2 -3 -2 -3 -2 -3 -1 -4 -2 -4 -2 -4 -1 -4 -2 -4 -1 -4 0 0zm0 0c-2,-5 1,-11 6,-13 6,-1 11,2 13,7l-19 6zm-39 -226l20 0 0 0 0 7 0 7 1 7 0 8 0 7 1 7 0 7 1 7 1 6 1 7 0 7 1 7 1 7 1 7 2 7 1 6 1 7 1 7 2 7 1 6 2 7 1 7 2 7 1 6 2 7 2 7 2 7 2 7 2 6 2 7 2 7 2 7 -19 6 -2 -7 -2 -7 -2 -7 -2 -7 -2 -7 -2 -7 -2 -7 -2 -7 -2 -7 -1 -6 -2 -7 -1 -7 -2 -7 -1 -7 -2 -7 -1 -7 -1 -7 -1 -7 -1 -7 -1 -7 -1 -7 -1 -7 -1 -7 -1 -8 0 -7 -1 -7 -1 -7 0 -7 0 -8 -1 -7 0 -7 0 -8 0 0zm0 0c0,-5 4,-10 10,-10 5,0 10,4 10,10l-20 0zm-17 -1997l20 -1 0 1 1 56 1 59 1 63 1 66 0 69 1 71 1 73 0 75 1 76 1 77 0 78 1 78 1 79 0 78 1 78 0 76 1 76 0 74 1 72 0 70 0 68 1 65 0 61 1 58 0 55 0 50 1 46 0 41 0 35 0 31 1 24 0 19 -20 0 0 -18 -1 -25 0 -30 0 -36 0 -41 -1 -46 0 -50 0 -54 -1 -59 0 -61 -1 -65 0 -67 0 -70 -1 -73 0 -74 -1 -75 0 -77 -1 -78 0 -78 -1 -79 -1 -78 0 -78 -1 -77 -1 -76 0 -75 -1 -73 -1 -71 0 -69 -1 -66 -1 -62 -1 -60 -1 -56 0 0zm0 0c0,-5 5,-10 10,-10 6,0 10,4 10,10l-20 0zm-15 -590l20 0 0 0 0 22 0 22 0 22 0 21 0 22 0 21 1 21 0 21 0 20 1 21 0 20 1 20 0 20 1 19 0 19 1 19 0 19 1 18 1 19 0 17 1 18 1 17 0 17 1 16 1 16 0 16 1 15 1 15 0 15 1 14 1 14 0 13 -20 1 0 -13 -1 -14 -1 -14 0 -15 -1 -15 -1 -15 0 -16 -1 -16 -1 -16 0 -17 -1 -17 -1 -18 0 -18 -1 -18 -1 -18 0 -19 -1 -19 0 -19 -1 -20 0 -19 -1 -20 0 -21 -1 -20 0 -21 0 -21 -1 -21 0 -21 0 -22 0 -21 0 -22 0 -22 0 -22 0 0zm0 0c0,-5 4,-10 10,-10 6,0 10,5 10,10l-20 0zm23 -1565l20 1 0 -1 0 15 0 18 -1 22 0 25 -1 29 -1 32 0 35 -1 38 -1 40 -1 43 -1 46 -1 47 -1 50 0 52 -1 53 -1 55 -1 56 -1 58 -1 58 -1 60 -1 61 -1 61 -1 61 -1 62 -1 62 0 62 -1 62 0 62 -1 61 0 61 -1 59 0 59 -20 0 0 -59 1 -59 0 -61 1 -61 0 -62 1 -62 0 -62 1 -62 1 -62 1 -62 1 -61 1 -60 1 -60 1 -59 1 -57 1 -57 1 -54 1 -54 0 -51 1 -50 1 -48 1 -45 1 -43 1 -41 1 -37 0 -35 1 -32 1 -29 0 -25 1 -22 0 -19 0 -14 0 0zm0 0c0,-6 5,-10 11,-10 5,0 9,5 9,10l-20 0zm17 -78l17 11 1 -1 -1 2 -1 2 -1 2 -1 1 -1 2 -1 2 0 1 -1 2 -1 1 0 2 -1 1 0 2 0 1 -1 2 0 2 -1 1 0 2 0 2 -1 2 0 2 0 2 0 2 -1 3 0 2 0 3 0 2 -1 3 0 3 0 4 0 3 0 4 -1 4 -20 -1 1 -4 0 -4 0 -3 0 -4 0 -3 1 -3 0 -3 0 -3 0 -2 1 -3 0 -3 0 -2 1 -2 0 -3 0 -2 1 -2 0 -2 1 -2 0 -2 1 -2 0 -2 1 -2 1 -2 0 -2 1 -2 1 -1 1 -2 1 -2 1 -2 1 -2 1 -2 1 -2 0 -1zm0 1c3,-5 9,-7 13,-4 5,2 7,8 5,13l-18 -9zm11 -34l20 0 0 2 0 1 0 2 -1 1 0 2 0 1 0 2 0 1 -1 1 0 2 0 1 0 2 -1 1 0 2 -1 1 0 1 0 2 -1 1 0 2 -1 1 0 1 -1 2 -1 1 0 1 -1 1 -1 2 0 1 -1 1 -1 2 0 1 -1 1 -1 1 -17 -11 1 -1 1 -1 0 -1 1 -1 0 -1 1 -1 0 -1 1 -1 0 0 1 -1 0 -1 0 -1 1 -1 0 -1 1 -1 0 -1 0 -2 1 -1 0 -1 0 -1 0 -1 1 -1 0 -1 0 -1 0 -1 0 -1 0 -2 0 -1 1 -1 0 -1 0 -1 0 -1zm0 0c0,-6 4,-10 10,-10 5,0 10,4 10,10l-20 0z"/>
  </g>
 </g>
</svg>
