<?xml version="1.0" encoding="UTF-8"?>
<!DOCTYPE svg PUBLIC "-//W3C//DTD SVG 1.1//EN" "http://www.w3.org/Graphics/SVG/1.1/DTD/svg11.dtd">
<!-- Creator: CorelDRAW X8 -->
<svg xmlns="http://www.w3.org/2000/svg" xml:space="preserve" width="40mm" height="60mm" version="1.1" style="shape-rendering:geometricPrecision; text-rendering:geometricPrecision; image-rendering:optimizeQuality; fill-rule:evenodd; clip-rule:evenodd"
viewBox="0 0 4000 6000"
 xmlns:xlink="http://www.w3.org/1999/xlink">
 <defs>
  <style type="text/css">
   <![CDATA[
    .str0 {stroke:black;stroke-width:7.62}
    .fil0 {fill:none}
   ]]>
  </style>
 </defs>
 <g id="图层_x0020_1">
  <metadata id="CorelCorpID_0Corel-Layer"/>
  <path class="fil0 str0" d="M2017 738c-1,-4 -5,-9 -14,-10 -33,0 -59,26 -59,59 0,32 26,58 59,58 32,0 58,-26 58,-58 0,-33 -26,-59 -58,-59m-1023 4592l1891 0c104,0 190,-86 190,-190l0 -45 190 0c8,0 15,-8 15,-16l0 -2361c0,-10 -5,-14 -13,-14l-74 0c-9,0 -16,-7 -16,-15l0 -314c0,-9 7,-16 16,-16l76 0c9,0 11,-2 11,-11l0 -346c0,-16 -4,-20 -20,-20l-67 0c-9,0 -16,-7 -16,-15l0 -607c0,-9 7,-16 16,-16l71 0c11,0 16,-5 16,-15l0 -418c0,-9 -7,-16 -15,-16l-190 0 0 -45c0,-105 -86,-190 -190,-190l-429 0c-4,0 -4,12 -8,12l-859 0c-4,0 -3,-12 -8,-12l-438 0c-104,0 -190,85 -190,190l0 45 -190 0c-8,0 -15,7 -15,16l0 4168c0,8 7,16 15,16l190 0 0 45c0,104 86,190 190,190 23,0 67,9 82,30"/>
 </g>
</svg>
