<?xml version="1.0" encoding="UTF-8"?>
<!DOCTYPE svg PUBLIC "-//W3C//DTD SVG 1.1//EN" "http://www.w3.org/Graphics/SVG/1.1/DTD/svg11.dtd">
<!-- Creator: CorelDRAW X8 -->
<svg xmlns="http://www.w3.org/2000/svg" xml:space="preserve" width="40mm" height="60mm" version="1.1" style="shape-rendering:geometricPrecision; text-rendering:geometricPrecision; image-rendering:optimizeQuality; fill-rule:evenodd; clip-rule:evenodd"
viewBox="0 0 4000 6000"
 xmlns:xlink="http://www.w3.org/1999/xlink">
 <defs>
  <style type="text/css">
   <![CDATA[
    .str0 {stroke:black;stroke-width:7.62}
    .fil0 {fill:none}
   ]]>
  </style>
 </defs>
 <g id="图层_x0020_1">
  <metadata id="CorelCorpID_0Corel-Layer"/>
  <path class="fil0 str0" d="M1065 5350l1726 0c172,0 312,-140 312,-312l0 -4076c0,-172 -140,-312 -312,-312l-1582 0c-172,0 -312,140 -312,312l0 4076c0,172 140,312 312,312l49 0m131 -193l1238 0c9,0 17,7 17,16l0 83c0,9 -8,16 -17,16l-1238 0c-9,0 -17,-7 -17,-16l0 -83c0,-9 8,-16 17,-16zm-2 -4387l863 0c9,0 17,7 17,17l0 82c0,9 -8,17 -17,17l-863 0c-10,0 -17,-8 -17,-17l0 -82c0,-10 7,-17 17,-17zm1168 -20c-1,-8 -8,-16 -22,-17 -51,0 -93,42 -93,93 0,51 42,93 93,93 51,0 93,-42 93,-93 0,-51 -42,-93 -93,-93m-217 117c-9,2 -16,6 -16,22l0 13c0,19 15,34 33,34l0 0c19,0 34,-15 34,-34l0 -122c0,-19 -15,-34 -34,-34l0 0c-18,0 -33,15 -33,34l0 109"/>
 </g>
</svg>
