<?xml version="1.0" encoding="UTF-8"?>
<!DOCTYPE svg PUBLIC "-//W3C//DTD SVG 1.1//EN" "http://www.w3.org/Graphics/SVG/1.1/DTD/svg11.dtd">
<!-- Creator: CorelDRAW X8 -->
<svg xmlns="http://www.w3.org/2000/svg" xml:space="preserve" width="40mm" height="60mm" version="1.1" style="shape-rendering:geometricPrecision; text-rendering:geometricPrecision; image-rendering:optimizeQuality; fill-rule:evenodd; clip-rule:evenodd"
viewBox="0 0 4000 6000"
 xmlns:xlink="http://www.w3.org/1999/xlink">
 <defs>
  <style type="text/css">
   <![CDATA[
    .str1 {stroke:#222222;stroke-width:20}
    .str0 {stroke:#222222;stroke-width:10}
    .fil0 {fill:none}
   ]]>
  </style>
 </defs>
 <g id="图层_x0020_1">
  <metadata id="CorelCorpID_0Corel-Layer"/>
  <g id="_2603554756960">
   <path class="fil0 str0" d="M1098 2023c379,0 686,-308 686,-687 0,-379 -307,-686 -686,-686 -379,0 -687,307 -687,686 0,379 308,687 687,687 379,0 510,0 510,0"/>
   <path class="fil0 str0" d="M1098 3686c379,0 686,-307 686,-686 0,-379 -307,-686 -686,-686 -379,0 -687,307 -687,686 0,379 308,686 687,686 379,0 510,0 510,0"/>
   <path class="fil0 str0" d="M1098 5350c379,0 686,-307 686,-686 0,-379 -307,-687 -686,-687 -379,0 -687,308 -687,687 0,379 308,686 687,686 379,0 510,0 510,0"/>
   <path class="fil0 str0" d="M2902 2023c379,0 687,-308 687,-687 0,-379 -308,-686 -687,-686 -379,0 -686,307 -686,686 0,379 307,687 686,687 379,0 511,0 511,0"/>
   <path class="fil0 str0" d="M2902 3686c379,0 687,-307 687,-686 0,-379 -308,-686 -687,-686 -379,0 -686,307 -686,686 0,379 307,686 686,686 379,0 511,0 511,0"/>
   <path class="fil0 str0" d="M2902 5350c379,0 687,-307 687,-686 0,-379 -308,-687 -687,-687 -379,0 -686,308 -686,687 0,379 307,686 686,686 379,0 511,0 511,0"/>
  </g>
  <g id="_2603554753536">
   <path class="fil0 str1" d="M-9734 5170c0,-912 -739,-1650 -1650,-1650 -911,0 -1650,738 -1650,1650 0,911 739,1650 1650,1650 911,0 1650,-739 1650,-1650 0,-912 0,-1228 0,-1228"/>
   <path class="fil0 str1" d="M-5734 5170c0,-912 -739,-1650 -1650,-1650 -911,0 -1650,738 -1650,1650 0,911 739,1650 1650,1650 911,0 1650,-739 1650,-1650 0,-912 0,-1228 0,-1228"/>
   <path class="fil0 str1" d="M-1734 5170c0,-912 -739,-1650 -1650,-1650 -911,0 -1650,738 -1650,1650 0,911 739,1650 1650,1650 911,0 1650,-739 1650,-1650 0,-912 0,-1228 0,-1228"/>
   <path class="fil0 str1" d="M-9734 830c0,-911 -739,-1650 -1650,-1650 -911,0 -1650,739 -1650,1650 0,912 739,1650 1650,1650 911,0 1650,-738 1650,-1650 0,-911 0,-1227 0,-1227"/>
   <path class="fil0 str1" d="M-5734 830c0,-911 -739,-1650 -1650,-1650 -911,0 -1650,739 -1650,1650 0,912 739,1650 1650,1650 911,0 1650,-738 1650,-1650 0,-911 0,-1227 0,-1227"/>
   <path class="fil0 str1" d="M-1734 830c0,-911 -739,-1650 -1650,-1650 -911,0 -1650,739 -1650,1650 0,912 739,1650 1650,1650 911,0 1650,-738 1650,-1650 0,-911 0,-1227 0,-1227"/>
  </g>
 </g>
</svg>
