<?xml version="1.0" encoding="UTF-8"?>
<!DOCTYPE svg PUBLIC "-//W3C//DTD SVG 1.1//EN" "http://www.w3.org/Graphics/SVG/1.1/DTD/svg11.dtd">
<!-- Creator: CorelDRAW X7 -->
<svg xmlns="http://www.w3.org/2000/svg" xml:space="preserve" width="40mm" height="60mm" version="1.1" style="shape-rendering:geometricPrecision; text-rendering:geometricPrecision; image-rendering:optimizeQuality; fill-rule:evenodd; clip-rule:evenodd"
viewBox="0 0 4000 6000"
 xmlns:xlink="http://www.w3.org/1999/xlink">
 <defs>
  <style type="text/css">
   <![CDATA[
    .str0 {stroke:black;stroke-width:17.64}
    .fil0 {fill:none}
   ]]>
  </style>
 </defs>
 <g id="图层_x0020_1">
  <metadata id="CorelCorpID_0Corel-Layer"/>
  <g id="_2757228768640">
   <path class="fil0 str0" d="M1905 720c0,-22 -87,-30 -87,-30l376 0c21,0 38,22 38,49l0 0c0,26 -17,48 -38,48l-376 0c-21,0 -39,-22 -39,-48l0 0c0,-27 18,-49 39,-49"/>
   <path class="fil0 str0" d="M2583 822c0,-22 5,-68 39,-68 34,0 62,28 62,63 0,35 -28,63 -62,63 -34,0 -62,-28 -62,-63 0,-35 28,-63 62,-63"/>
   <path class="fil0 str0" d="M1376 5350c0,-21 -102,-57 -258,-63 -157,-6 -286,-152 -286,-245l0 -4086c0,-159 129,-283 286,-289 589,-22 1178,-23 1764,0 157,6 286,130 286,289l0 4086c0,75 -121,239 -285,245 -588,20 -1185,19 -1765,0 -112,-4 -247,-41 -247,-41"/>
   <path class="fil0 str0" d="M2737 806c0,-14 24,-43 24,-43l29 0c27,0 49,23 49,50l0 0c0,27 -22,49 -49,49l-29 0c-26,0 -48,-22 -48,-49l0 0c0,-27 22,-50 48,-50"/>
   <path class="fil0 str0" d="M1526 787c0,-25 44,-77 44,-77l66 0c40,0 72,33 72,74l0 0c0,40 -32,73 -72,73l-66 0c-40,0 -73,-33 -73,-73l0 0c0,-41 33,-74 73,-74"/>
  </g>
 </g>
</svg>
