<?xml version="1.0" encoding="UTF-8"?>
<!DOCTYPE svg PUBLIC "-//W3C//DTD SVG 1.1//EN" "http://www.w3.org/Graphics/SVG/1.1/DTD/svg11.dtd">
<!-- Creator: CorelDRAW 2020 (64-Bit) -->
<svg xmlns="http://www.w3.org/2000/svg" xml:space="preserve" width="40mm" height="60mm" version="1.1" style="shape-rendering:geometricPrecision; text-rendering:geometricPrecision; image-rendering:optimizeQuality; fill-rule:evenodd; clip-rule:evenodd"
viewBox="0 0 4000 6000"
 xmlns:xlink="http://www.w3.org/1999/xlink"
 xmlns:xodm="http://www.corel.com/coreldraw/odm/2003">
 <defs>
  <style type="text/css">
   <![CDATA[
    .str0 {stroke:#332C2B;stroke-width:20;stroke-miterlimit:22.9256}
    .fil0 {fill:none}
   ]]>
  </style>
   <clipPath id="id0">
    <rect x="-55066.97" y="-6704.36" width="15107.11" height="17151.2"/>
   </clipPath>
 </defs>
 <g id="图层_x0020_1">
  <metadata id="CorelCorpID_0Corel-Layer"/>
  <g style="clip-path:url(#id0)">
   <image x="-55066.97" y="-6704.36" width="15107.11" height="17151.2" xlink:href="Y02 -11i（背膜）_Images\Y02 -11i（背膜）_ImgID1.png"/>
  </g>
  <rect class="fil0 str0" x="-54801.09" y="-6174.05" width="7560" height="16400"/>
  <rect class="fil0 str0" x="-54730.79" y="-6134.36" width="7419.4" height="16299.22" rx="900" ry="727.35"/>
  <rect class="fil0 str0" x="-54423.2" y="-5794.81" width="3459.43" height="4785.01" rx="600" ry="601.59"/>
  <rect class="fil0 str0" x="-54334.02" y="-5730.88" width="3281.07" height="4647.05" rx="569.07" ry="584.25"/>
  <path class="fil0 str0" d="M-52711.86 -5526.16c-832.2,0 -1506.83,674.63 -1506.83,1506.83 0,832.2 674.63,1506.83 1506.83,1506.83 832.2,0 1506.83,-674.63 1506.83,-1506.83 0,-832.2 -674.63,-1506.83 -1506.83,-1506.83 -832.2,0 -972.3,973.7 -996.11,1166.85"/>
  <path class="fil0 str0" d="M-4055.18 5471.28l0 -6177.68c0,-494.99 -405.01,-900 -900,-900l-14499.22 0c-495,0 -900,405 -900,900l0 5619.4c0,494.99 405,900 900,900l14499.22 0c495,0 900,-405.01 900,-900 0,-494.99 58.35,-659.49 176.09,-805.01"/>
  <path class="fil0 str0" d="M-20014.85 4905.41l0 -2259.43c0,-330 270,-600 600,-600l3585.01 0c330,0 600,270 600,600l0 2259.43c0,330 -270,600 -600,600l-3585.01 0c-330,0 -600,-270 -600,-600z"/>
  <path class="fil0 str0" d="M-19950.92 4847.17l0 -2142.95c0,-312.99 256.07,-569.06 569.06,-569.06l3508.94 0c312.98,0 569.05,256.07 569.05,569.06l0 2142.95c0,312.99 -256.07,569.06 -569.05,569.06l-3508.94 0c-312.99,0 -569.06,-256.07 -569.06,-569.06z"/>
  <path class="fil0 str0" d="M-19746.2 3794.07c0,832.2 674.63,1506.83 1506.83,1506.83 832.2,0 1506.83,-674.63 1506.83,-1506.83 0,-832.2 -674.63,-1506.83 -1506.83,-1506.83 -832.2,0 -1506.83,674.63 -1506.83,1506.83 0,832.2 973.7,972.3 1166.85,996.11"/>
  <g id="_1242116018864">
   <path class="fil0 str0" d="M1032.6 5305.43l1762.34 0c141.21,0 256.75,-115.53 256.75,-256.74l0 -4136.27c0,-141.21 -115.54,-256.75 -256.75,-256.75l-1603.08 0c-141.21,0 -256.75,115.54 -256.75,256.75l0 4136.27c0,141.21 115.54,256.74 256.75,256.74 141.21,0 188.14,16.65 229.65,50.24"/>
   <path class="fil0 str0" d="M1194.03 752.53l644.56 0c94.14,0 171.16,77.03 171.16,171.17l0 1022.71c0,94.14 -77.02,171.17 -171.16,171.17l-644.56 0c-94.14,0 -171.17,-77.03 -171.17,-171.17l0 -1022.71c0,-94.14 77.03,-171.17 171.17,-171.17z"/>
   <path class="fil0 str0" d="M1210.64 770.77l611.33 0c89.29,0 162.34,73.05 162.34,162.34l0 1001.01c0,89.29 -73.05,162.34 -162.34,162.34l-611.33 0c-89.29,0 -162.34,-73.05 -162.34,-162.34l0 -1001.01c0,-89.29 73.05,-162.34 162.34,-162.34z"/>
   <path class="fil0 str0" d="M1511.07 829.17c-237.41,0 -429.87,192.46 -429.87,429.86 0,237.41 192.46,429.87 429.87,429.87 237.4,0 429.86,-192.46 429.86,-429.87 0,-237.4 -192.46,-429.86 -429.86,-429.86 -237.41,0 -277.38,277.78 -284.17,332.88"/>
  </g>
 </g>
</svg>
