<?xml version="1.0" encoding="UTF-8"?>
<!DOCTYPE svg PUBLIC "-//W3C//DTD SVG 1.1//EN" "http://www.w3.org/Graphics/SVG/1.1/DTD/svg11.dtd">
<!-- Creator: CorelDRAW X8 -->
<svg xmlns="http://www.w3.org/2000/svg" xml:space="preserve" width="40mm" height="60mm" version="1.1" style="shape-rendering:geometricPrecision; text-rendering:geometricPrecision; image-rendering:optimizeQuality; fill-rule:evenodd; clip-rule:evenodd"
viewBox="0 0 4000 6000"
 xmlns:xlink="http://www.w3.org/1999/xlink">
 <defs>
  <style type="text/css">
   <![CDATA[
    .str0 {stroke:#332C2B;stroke-width:7.62}
    .fil0 {fill:none}
   ]]>
  </style>
 </defs>
 <g id="图层_x0020_1">
  <metadata id="CorelCorpID_0Corel-Layer"/>
  <path class="fil0 str0" d="M-24406 14887l525 0c65,0 150,27 157,95 54,417 412,742 844,742 255,0 232,193 234,325l0 325 14796 0 0 -446c0,-125 27,-204 161,-204 36,0 72,0 109,0 411,0 757,-296 834,-686 22,-112 68,-151 186,-151l380 0 0 -22840 -390 0c-54,0 -144,-30 -174,-126 -73,-395 -421,-697 -836,-697 -30,0 -59,0 -88,0 -143,0 -244,-97 -244,-243l0 -407 -13980 0c0,158 0,316 0,473 0,115 -85,177 -210,177l-778 0c-406,0 -747,288 -831,669 -11,86 -16,154 -141,154l-428 0 0 22933"/>
  <path class="fil0 str0" d="M-15159 -9112c1,-45 -52,-81 -71,-82 -69,0 -125,55 -125,125 0,69 56,125 125,125 69,0 125,-56 125,-125 0,-70 -56,-125 -125,-125"/>
  <path class="fil0 str0" d="M-15159 -8104c1,-45 -52,-81 -71,-82 -69,0 -125,56 -125,125 0,69 56,125 125,125 69,0 125,-56 125,-125 0,-69 -56,-125 -125,-125"/>
  <path class="fil0 str0" d="M-15244 16039c-22,-80 -65,-143 -261,-143l-55 0c-88,0 -160,72 -160,160l0 0c0,88 72,160 160,160l624 0c88,0 160,-72 160,-160l0 0c0,-88 -72,-160 -160,-160l-569 0"/>
  <path class="fil0 str0" d="M-12626 16044c-15,-58 -46,-103 -187,-103l-120 0c-64,0 -115,52 -115,115l0 0c0,63 51,115 115,115l2367 0c63,0 115,-52 115,-115l0 0c0,-63 -52,-115 -115,-115l-2247 0"/>
  <path class="fil0 str0" d="M-19632 16044c-15,-58 -46,-103 -187,-103l-120 0c-64,0 -115,52 -115,115l0 0c0,63 51,115 115,115l2367 0c63,0 115,-52 115,-115l0 0c0,-63 -52,-115 -115,-115l-2247 0"/>
  <path class="fil0 str0" d="M-23929 -6769c79,-21 142,-65 142,-260l0 -56c0,-88 -72,-160 -160,-160l0 0c-88,0 -160,72 -160,160l0 2153c0,88 72,160 160,160l0 0c88,0 160,-72 160,-160l0 -2097"/>
  <path class="fil0 str0" d="M-6435 3381c87,-23 156,-71 156,-285l0 -60c0,-96 -79,-175 -175,-175l0 0c-96,0 -175,79 -175,175l0 862c0,96 79,175 175,175l0 0c96,0 175,-79 175,-175l0 -802"/>
  <path class="fil0 str0" d="M-22722 -8159c5,-118 -134,-211 -185,-214 -179,0 -325,145 -325,325 0,179 146,325 325,325 180,0 325,-146 325,-325 0,-180 -145,-325 -325,-325"/>
  <g id="_2361291945712">
   <path class="fil0 str0" d="M340 5079l96 0c11,0 27,5 28,17 10,76 75,136 154,136 46,0 42,35 42,59l0 59 2696 0 0 -81c0,-23 5,-37 29,-37 7,0 13,0 20,0 75,0 138,-54 152,-126 4,-20 12,-27 34,-27l69 0 0 -4161 -71 0c-10,0 -26,-5 -32,-23 -13,-72 -76,-127 -152,-127 -5,0 -11,0 -16,0 -26,0 -44,-17 -44,-44l0 -74 -2547 0c0,29 0,57 0,86 0,21 -16,32 -38,32l-142 0c-74,0 -136,53 -151,122 -2,16 -3,28 -26,28l-78 0 0 4178"/>
   <path class="fil0 str0" d="M2024 707c1,-8 -9,-15 -13,-15 -12,0 -22,10 -22,23 0,12 10,23 22,23 13,0 23,-11 23,-23 0,-13 -10,-23 -23,-23"/>
   <path class="fil0 str0" d="M2024 891c1,-8 -9,-15 -13,-15 -12,0 -22,10 -22,23 0,12 10,22 22,22 13,0 23,-10 23,-22 0,-13 -10,-23 -23,-23"/>
   <path class="fil0 str0" d="M2009 5289c-4,-15 -12,-26 -48,-26l-10 0c-16,0 -29,13 -29,29l0 0c0,16 13,29 29,29l114 0c16,0 29,-13 29,-29l0 0c0,-16 -13,-29 -29,-29l-104 0"/>
   <path class="fil0 str0" d="M2486 5290c-3,-11 -9,-19 -34,-19l-22 0c-12,0 -21,9 -21,21l0 0c0,11 9,21 21,21l431 0c12,0 21,-10 21,-21l0 0c0,-12 -9,-21 -21,-21l-409 0"/>
   <path class="fil0 str0" d="M1210 5290c-3,-11 -9,-19 -35,-19l-21 0c-12,0 -21,9 -21,21l0 0c0,11 9,21 21,21l431 0c11,0 21,-10 21,-21l0 0c0,-12 -10,-21 -21,-21l-410 0"/>
   <path class="fil0 str0" d="M427 1134c14,-4 26,-12 26,-48l0 -10c0,-16 -13,-29 -29,-29l0 0c-16,0 -30,13 -30,29l0 393c0,16 14,29 30,29l0 0c16,0 29,-13 29,-29l0 -383"/>
   <path class="fil0 str0" d="M3614 2983c16,-4 28,-13 28,-52l0 -11c0,-17 -14,-32 -32,-32l0 0c-17,0 -32,15 -32,32l0 157c0,18 15,32 32,32l0 0c18,0 32,-14 32,-32l0 -146"/>
   <path class="fil0 str0" d="M647 881c1,-22 -25,-39 -34,-39 -33,0 -59,26 -59,59 0,33 26,59 59,59 33,0 59,-26 59,-59 0,-33 -26,-59 -59,-59"/>
  </g>
 </g>
</svg>
