<?xml version="1.0" encoding="UTF-8"?>
<!DOCTYPE svg PUBLIC "-//W3C//DTD SVG 1.1//EN" "http://www.w3.org/Graphics/SVG/1.1/DTD/svg11.dtd">
<!-- Creator: CorelDRAW -->
<svg xmlns="http://www.w3.org/2000/svg" xml:space="preserve" width="40mm" height="60mm" style="shape-rendering:geometricPrecision; text-rendering:geometricPrecision; image-rendering:optimizeQuality; fill-rule:evenodd; clip-rule:evenodd"
viewBox="0 0 40 60"
 xmlns:xlink="http://www.w3.org/1999/xlink">
 <defs>
  <style type="text/css">
   <![CDATA[
    .str0 {stroke:#1F1A17;stroke-width:0.0762}
    .fil0 {fill:none;fill-rule:nonzero}
   ]]>
  </style>
 </defs>
 <g id="图层_x0020_1">
  <metadata id="CorelCorpID_0Corel-Layer"/>
  <line class="fil0 str0" x1="-86.0247" y1="-77.3707" x2="-86.0564" y2= "-77.3389" />
  <path class="fil0 str0" d="M30.2241 8.7472l-0.0543 42.4989c0,0.5035 -0.0011,0.5261 -0.0294,0.62 -0.301,1.015 -1.0659,1.6045 -2.1193,1.6339l-16.1602 -0.0027 -0.1332 -0.0165c-0.5386,-0.0543 -0.9946,-0.2591 -1.3375,-0.6008 -0.2466,-0.2467 -0.5374,-0.7615 -0.5804,-1.0331l-0.0339 -43.0964c0,-0.431 0.0045,-0.525 0.0339,-0.6189 0.2919,-0.9561 1.0647,-1.6011 1.9518,-1.6316l16.1781 0.0102c0.7083,0.0011 1.0998,0.138 1.5444,0.5442 0.4708,0.4278 0.7072,0.9686 0.74,1.6928z"/>
 </g>
</svg>
