<?xml version="1.0" encoding="UTF-8"?>
<!DOCTYPE svg PUBLIC "-//W3C//DTD SVG 1.1//EN" "http://www.w3.org/Graphics/SVG/1.1/DTD/svg11.dtd">
<!-- Creator: CorelDRAW X8 -->
<svg xmlns="http://www.w3.org/2000/svg" xml:space="preserve" width="40mm" height="60mm" version="1.1" style="shape-rendering:geometricPrecision; text-rendering:geometricPrecision; image-rendering:optimizeQuality; fill-rule:evenodd; clip-rule:evenodd"
viewBox="0 0 4000 6000"
 xmlns:xlink="http://www.w3.org/1999/xlink">
 <defs>
  <style type="text/css">
   <![CDATA[
    .str0 {stroke:black;stroke-width:20}
    .fil0 {fill:none}
   ]]>
  </style>
 </defs>
 <g id="图层_x0020_1">
  <metadata id="CorelCorpID_0Corel-Layer"/>
  <path class="fil0 str0" d="M974 5350l1856 0c128,0 233,-105 233,-233l0 -4234c0,-128 -105,-233 -233,-233l-509 0c-8,0 -14,5 -14,14 0,20 0,41 0,62 0,73 -60,133 -133,133l-348 0c-73,0 -133,-60 -133,-133l0 -64c0,-6 -2,-12 -9,-12 -172,0 -343,0 -514,0 -128,0 -233,105 -233,233l0 4234c0,128 105,233 233,233l54 0"/>
 </g>
</svg>
