<?xml version="1.0" encoding="UTF-8"?>
<!DOCTYPE svg PUBLIC "-//W3C//DTD SVG 1.1//EN" "http://www.w3.org/Graphics/SVG/1.1/DTD/svg11.dtd">
<!-- Creator: CorelDRAW X8 -->
<svg xmlns="http://www.w3.org/2000/svg" xml:space="preserve" width="40mm" height="60mm" version="1.1" style="shape-rendering:geometricPrecision; text-rendering:geometricPrecision; image-rendering:optimizeQuality; fill-rule:evenodd; clip-rule:evenodd"
viewBox="0 0 4000 6000"
 xmlns:xlink="http://www.w3.org/1999/xlink">
 <defs>
  <style type="text/css">
   <![CDATA[
    .str0 {stroke:black;stroke-width:20}
    .fil0 {fill:none}
   ]]>
  </style>
 </defs>
 <g id="图层_x0020_1">
  <metadata id="CorelCorpID_0Corel-Layer"/>
  <path class="fil0 str0" d="M921 5350l1932 0c154,0 279,-126 279,-279l0 -4142c0,-153 -125,-279 -279,-279l-1706 0c-154,0 -279,126 -279,279l0 4142c0,153 125,279 279,279l93 0m763 -3902l0 0c85,0 155,69 155,155l0 104c0,86 -70,155 -155,155l0 0c-85,0 -155,-69 -155,-155l0 -104c0,-86 70,-155 155,-155zm-744 -679l0 0c94,0 171,77 171,171l0 388c0,93 -77,170 -171,170l0 0c-94,0 -170,-77 -170,-170l0 -388c0,-94 76,-171 170,-171zm0 39l0 0c77,0 140,63 140,140l0 372c0,77 -63,139 -140,139l0 0c-77,0 -139,-62 -139,-139l0 -372c0,-77 62,-140 139,-140zm3 59c54,0 97,43 97,97 0,53 -43,96 -97,96 -53,0 -96,-43 -96,-96 0,-54 43,-97 96,-97zm0 372c54,0 97,44 97,97 0,53 -43,96 -97,96 -53,0 -96,-43 -96,-96 0,-53 43,-97 96,-97zm0 -149c35,0 62,28 62,62 0,35 -27,62 -62,62 -34,0 -62,-27 -62,-62 0,-34 28,-62 62,-62z"/>
 </g>
</svg>
