<?xml version="1.0" encoding="UTF-8"?>
<!DOCTYPE svg PUBLIC "-//W3C//DTD SVG 1.1//EN" "http://www.w3.org/Graphics/SVG/1.1/DTD/svg11.dtd">
<!-- Creator: CorelDRAW 2020 (64-Bit) -->
<svg xmlns="http://www.w3.org/2000/svg" xml:space="preserve" width="40mm" height="60mm" version="1.1" style="shape-rendering:geometricPrecision; text-rendering:geometricPrecision; image-rendering:optimizeQuality; fill-rule:evenodd; clip-rule:evenodd"
viewBox="0 0 4000 6000"
 xmlns:xlink="http://www.w3.org/1999/xlink"
 xmlns:xodm="http://www.corel.com/coreldraw/odm/2003">
 <defs>
  <style type="text/css">
   <![CDATA[
    .str0 {stroke:#E72D28;stroke-width:20;stroke-miterlimit:22.9256}
    .str1 {stroke:#222222;stroke-width:20;stroke-miterlimit:22.9256}
    .fil0 {fill:none}
   ]]>
  </style>
   <clipPath id="id0">
    <rect x="-29404.59" y="-5576.31" width="7839.61" height="16308.92"/>
   </clipPath>
 </defs>
 <g id="图层_x0020_1">
  <metadata id="CorelCorpID_0Corel-Layer"/>
  <g style="clip-path:url(#id0)">
   <image x="-29404.59" y="-5576.31" width="7839.61" height="16308.92" xlink:href="6061L Slim-11i（前膜带壳）_Images\6061L Slim-11i（前膜带壳）_ImgID1.png"/>
  </g>
  <rect class="fil0 str0" x="-29168.55" y="-5309.22" width="7400" height="15600"/>
  <path class="fil0 str0" d="M-28294.01 -5098.13l1492.24 0c87.5,0 116.7,135.94 189.01,135.94l668.76 0c138.71,0 133.02,130.03 133.02,207.12 0,199.1 161.4,360.5 360.5,360.5 199.1,0 360.5,-161.4 360.5,-360.5 0,-77.09 -12.3,-207.12 155.51,-207.12l721.5 0c72.31,0 106.45,-135.94 179.09,-135.94l1390.79 0c385,0 700,315.02 700,700l0 13819.23c0,385 -315,700 -700,700l-5650.92 0c-385,0 -700,-315 -700,-700l0 -13819.23c0,-385 315,-700 700,-700z"/>
  <path class="fil0 str1" d="M-2253.74 6455.05l0 -6020.56c0,-379.53 -312.93,-690.07 -695.39,-690.07l-13728.41 0c-382.45,0 -695.4,310.53 -695.4,690.07l0 1371.06c0,71.61 135.05,105.27 135.05,176.55l0 711.27c0,165.43 129.18,153.3 205.76,153.3 197.79,0 358.13,159.11 358.13,355.39 0,196.27 -160.34,355.38 -358.13,355.38 -76.58,0 -205.76,-5.61 -205.76,131.14l0 659.27c0,71.28 -135.05,100.07 -135.05,186.33l0 1471.07c0,379.54 312.93,690.07 695.4,690.07l13728.41 0c382.47,0 695.39,-310.53 695.39,-690.07 0,-379.54 88.88,-1176.72 303.19,-1454.53"/>
  <path class="fil0 str1" d="M1012.19 5297.59l1843.41 0c117.55,0 213.74,-96.19 213.74,-213.74l0 -4219.58c0,-117.55 -96.18,-213.74 -213.74,-213.74l-424.67 0c-22.18,0 -32.6,41.51 -54.68,41.51l-220.3 0c-51.24,0 -47.49,39.7 -47.49,63.24 0,60.79 -49.28,110.07 -110.07,110.07 -60.8,0 -110.08,-49.28 -110.08,-110.07 0,-23.54 1.74,-63.24 -40.61,-63.24l-204.21 0c-22.07,0 -30.99,-41.51 -57.71,-41.51l-455.64 0c-117.56,0 -213.74,96.18 -213.74,213.74l0 4219.58c0,117.56 96.18,213.74 213.74,213.74 117.56,0 228.01,14.97 283.75,52.94"/>
 </g>
</svg>
