<?xml version="1.0" encoding="UTF-8"?>
<!DOCTYPE svg PUBLIC "-//W3C//DTD SVG 1.1//EN" "http://www.w3.org/Graphics/SVG/1.1/DTD/svg11.dtd">
<!-- Creator: CorelDRAW 2020 (64-Bit) -->
<svg xmlns="http://www.w3.org/2000/svg" xml:space="preserve" width="40mm" height="60mm" version="1.1" style="shape-rendering:geometricPrecision; text-rendering:geometricPrecision; image-rendering:optimizeQuality; fill-rule:evenodd; clip-rule:evenodd"
viewBox="0 0 4000 6000"
 xmlns:xlink="http://www.w3.org/1999/xlink"
 xmlns:xodm="http://www.corel.com/coreldraw/odm/2003">
 <defs>
  <style type="text/css">
   <![CDATA[
    .str0 {stroke:#332C2B;stroke-width:7.06;stroke-miterlimit:22.9256}
    .fil0 {fill:none}
   ]]>
  </style>
 </defs>
 <g id="图层_x0020_1">
  <metadata id="CorelCorpID_0Corel-Layer"/>
  <g id="_1741698408992">
   <path class="fil0 str0" d="M896.55 860.38l0 4290.58c0,64.89 27.48,127.42 63.61,154.94 18.39,14 14.42,15.11 44.2,30.49 18.35,9.48 52.18,19.28 80.3,19.28l1820.25 0c98.07,0 185.34,-89.61 185.34,-177.05l0 -4351.44c0,-59.53 -50.96,-127 -108.74,-154.06 -16.16,-7.57 -48.74,-17.45 -71.07,-17.45l-1831.31 0c-58.99,0 -122.25,40.03 -152.04,88.64 -21.4,34.94 -30.54,69.94 -30.54,116.07z"/>
   <path class="fil0 str0" d="M1834.34 771.86c0,20.86 16.28,44.26 35.96,44.26l248.97 0c16.85,0 35.96,-19.59 35.96,-41.5 0,-21.63 -18.35,-44.26 -38.73,-44.26l-243.43 0c-18.98,0 -38.73,22.05 -38.73,41.5z"/>
   <path class="fil0 str0" d="M1665.59 832.72c59.4,0 80.03,-81.1 26.41,-106.63 -57.46,-27.35 -106.14,43.67 -65.96,88.08 6.47,7.15 27.92,18.55 39.55,18.55z"/>
  </g>
 </g>
</svg>
