<?xml version="1.0" encoding="UTF-8"?>
<!DOCTYPE svg PUBLIC "-//W3C//DTD SVG 1.1//EN" "http://www.w3.org/Graphics/SVG/1.1/DTD/svg11.dtd">
<!-- Creator: CorelDRAW 2020 (64-Bit) -->
<svg xmlns="http://www.w3.org/2000/svg" xml:space="preserve" width="40mm" height="60mm" version="1.1" style="shape-rendering:geometricPrecision; text-rendering:geometricPrecision; image-rendering:optimizeQuality; fill-rule:evenodd; clip-rule:evenodd"
viewBox="0 0 4000 6000"
 xmlns:xlink="http://www.w3.org/1999/xlink"
 xmlns:xodm="http://www.corel.com/coreldraw/odm/2003">
 <defs>
  <style type="text/css">
   <![CDATA[
    .str0 {stroke:#332C2B;stroke-width:20;stroke-miterlimit:22.9256}
    .fil0 {fill:none}
   ]]>
  </style>
 </defs>
 <g id="图层_x0020_1">
  <metadata id="CorelCorpID_0Corel-Layer"/>
  <g id="_1497977894640">
   <path class="fil0 str0" d="M821.78 684.96l0 166.73c0,28.03 28.28,24.78 47.32,24.78 9.14,0 13.14,-4.76 18.02,-9.01 12.68,8.5 20.63,9.01 36.05,9.01 10.24,0 11.75,-4.81 18.03,-9.01 18.05,12.09 15.77,9.01 38.3,9.01 4.01,0 12.53,-6.84 15.77,-9.01 15.49,10.37 14.52,9.01 33.8,9.01 10.23,0 11.75,-4.81 18.02,-9.01 16.01,10.73 10.13,9.15 36.04,9.02 15.02,-0.07 30.06,-0.01 45.08,-0.01 -6.23,9.3 -31.85,24.72 -42.28,34.34 -8.02,7.4 -11.16,12.37 -18.06,20.24 -29.87,34.08 -56.83,85.72 -56.83,139.19l-150.96 0c-25.43,0 -38.3,12.87 -38.3,38.31l0 759.3c0,21.75 10.67,38.3 33.8,38.3l112.65 0 0 1173.87 -117.16 0c-16.22,0 -29.29,16.38 -29.29,33.8l0 1791.23c0,19.38 11.6,33.6 31.4,33.94 30.69,0.52 127.86,-2.66 149.08,-0.38 13.9,1.5 8.29,14.86 13.43,38.39 7.51,34.3 23.97,66.11 42.34,90.6 14.31,19.08 29.71,35.85 48.9,50.24 6.13,4.6 15.46,9.91 19.02,14.77l-69.85 0c-2.65,5.02 -3.75,6.79 -6.75,11.27 -15.58,-10.43 -40,-19.22 -54.08,0 -20.97,-14.05 -33.1,-14.05 -54.07,0 -20.98,-14.05 -33.1,-14.05 -54.08,0 -14.33,-19.57 -65.34,-15.16 -65.34,15.77l0 166.73c0,28.34 20.69,29.26 40.86,29.29l1.95 0c15.98,0 15.83,-5.27 24.78,-11.26 4.41,6.57 10.44,10.03 17.05,11.26l12.5 0c7.96,-1.28 15.89,-4.74 22.28,-9.01 6.38,4.27 14.31,7.72 22.27,9.01l12.5 0c6.62,-1.23 12.64,-4.68 17.05,-11.26 13.63,9.12 13.81,11.26 33.8,11.26 10.6,0 16.14,-6.99 22.53,-11.26 2.27,6.27 8.47,11.26 18.02,11.26l1838.54 0 0.27 0c5.48,-0.02 6.21,-0.65 10.32,-2.94 0.04,-0.02 3.52,-2.58 3.84,-2.91 3.42,-3.48 1.77,-0.36 3.6,-5.41 12.01,8.04 15.6,11.26 31.54,11.26 15.98,0 15.84,-5.27 24.79,-11.26 4.5,6.72 10.79,10.14 17.69,11.26l11.15 0c8.24,-1.17 16.48,-4.66 22.98,-9.01 6.38,4.27 14.31,7.72 22.27,9.01l12.5 0c6.62,-1.23 12.64,-4.68 17.05,-11.26 10.94,7.32 14.61,10.23 19.76,11.26l34.31 0c14.55,0 27.04,-8.44 27.04,-22.53l0 -180.25c0,-15.56 -21.33,-20.28 -33.8,-20.28 -15.72,0 -36.18,-0.85 -45.06,11.27 -20.97,-14.05 -33.1,-14.05 -54.07,0 -20.97,-14.05 -33.1,-14.05 -54.08,0 -14.28,-19.5 -37,-9.93 -51.82,0 -23.88,-16 -33.31,-11.27 -63.09,-11.27 2.57,-3.5 37.84,-29.5 50.24,-44.39 3.58,-4.29 6.32,-6.08 9.94,-10.34 5.83,-6.85 11.14,-14.71 16,-22.31 10.3,-16.11 18.54,-31.8 25.52,-51.08 5.53,-15.28 13.21,-44.74 13.21,-65.65l159.97 0c13.54,0 27.04,-13.5 27.04,-27.03l0 -3812.28c0,-16.22 -16.38,-29.29 -33.8,-29.29l-153.21 0c0,-47.4 -25.51,-104.24 -55.78,-137.98l-19.48 -21.08c-8.76,-6.85 -11.94,-11.17 -20.62,-17.68l-23.53 -17.03c12.79,0 25.58,-0.05 38.36,0.07 22.77,0.21 16.17,-0.33 29.23,-9.08 15.49,10.37 14.52,9.01 33.8,9.01 8.52,0 15.03,-5.49 20.28,-9.01 7.45,10.18 21.65,9.01 33.79,9.01 10.24,0 11.76,-4.81 18.03,-9.01 18.05,12.09 15.78,9.01 38.3,9.01 4.01,0 12.53,-6.84 15.77,-9.01 20.36,13.63 16.71,9.01 56.33,9.01 11.33,0 22.53,-11.2 22.53,-22.53l0 -175.74c0,-15.2 -11.05,-20.74 -24.35,-22.53l-36.48 0c-11.32,0 -13.07,6.44 -20.28,11.26 -2.44,-9.12 -11.7,-10.96 -20.94,-11.26l-10.07 0 -0.53 0c-8.52,0 -15.03,5.5 -20.28,9.01 -12.03,-8.05 -16.96,-8.98 -33.02,-9.01l-0.78 0 -0.29 0c-6.13,0.05 -9.93,1.56 -14.14,5.85 -3.42,3.48 -1.76,0.36 -3.59,5.41 -13.07,-8.74 -13.36,-10.84 -19.63,-11.26l-15.25 0 -1.17 0c-10.24,0 -11.75,4.81 -18.03,9.01 -5.25,-3.51 -11.76,-9.01 -20.28,-9.01l-1838.54 0c-8.32,0 -15.85,3.13 -18.02,11.26 -13.07,-8.74 -13.36,-10.84 -19.63,-11.26l-15.25 0 -1.17 0c-11.32,0 -13.08,6.44 -20.28,11.26 -2.44,-9.12 -11.7,-10.96 -20.94,-11.26l-10.07 0 -0.54 0c-8.51,0 -15.02,5.5 -20.27,9.01 -12.03,-8.05 -16.96,-8.98 -33.03,-9.01l-0.77 0c-7.61,0 -15.42,4.07 -18.03,11.26 -11.29,-7.56 -13.41,-10.35 -17.18,-11.26l-25.63 0c-15.77,0 -24.78,13 -24.78,29.29z"/>
   <path class="fil0 str0" d="M1155.24 1113.05l0 680.44c0,15.66 8.55,39.82 14.22,51.13 21.69,43.28 70.88,79.55 120.97,79.55l502.44 0c70.07,0 135.19,-66.12 135.19,-146.45l0 -655.66c0,-78.82 -65.25,-144.19 -144.2,-144.19l-486.67 0c-75.18,0 -141.95,66.01 -141.95,135.18z"/>
   <path class="fil0 str0" d="M1202.56 1169.38l0 570.04c0,16.38 8.95,40.84 14.97,52.62 22.35,43.79 72.08,82.57 124.72,82.57l394.3 0c44.02,0 78.29,-24.48 105.32,-54.65 20.13,-22.46 34.37,-59.9 34.37,-91.81l0 -552.01c0,-56.77 -36.48,-107.25 -84.84,-131.46 -14.87,-7.44 -35.99,-14.99 -57.11,-14.99l-392.04 0c-68.28,0 -139.69,68.26 -139.69,139.69z"/>
   <path class="fil0 str0" d="M1249.87 1649.29c0,71.8 41.5,134.72 105.12,165.26 116.14,55.75 257.64,-28.73 257.64,-165.26 0,-157.82 -193.69,-239.95 -308.18,-127.92 -31.55,30.86 -54.58,82.37 -54.58,127.92z"/>
   <path class="fil0 str0" d="M1249.87 1248.24c0,27.3 8,54.19 16.06,74.07 4.82,11.9 9.25,17.92 16.37,28.69 5.62,8.51 13.09,18.22 19.9,25.17 11.6,11.85 36.51,30.21 52.9,37.22 133.33,56.95 257.53,-40.73 257.53,-165.15 0,-157.45 -194.16,-241.85 -309.27,-126.76 -13.16,13.17 -29.06,34.68 -36.79,53.34 -8.89,21.46 -16.7,49.34 -16.7,73.42z"/>
   <path class="fil0 str0" d="M2191.68 743.54c0,36.37 -5.55,61.29 11.71,78.41 5.56,5.51 16.55,13.97 26.59,13.97l495.68 0c47.11,0 42.81,-58.67 42.81,-83.37 0,-34.12 -21.73,-51.82 -56.33,-51.82l-466.39 0c-28.65,0 -54.07,14.41 -54.07,42.81z"/>
   <path class="fil0 str0" d="M1261.14 5224.99l0 31.54c0,15.49 20.56,36.05 36.05,36.05l333.46 0c47.58,0 51.41,-73.11 26.6,-96.44 -6.78,-6.37 -16.46,-11.71 -28.85,-11.71l-324.45 0c-22.14,0 -42.81,18.28 -42.81,40.56z"/>
   <path class="fil0 str0" d="M1684.72 1182.9l0 123.92c0,91.72 146.46,103.82 146.46,-11.26l0 -96.89c0,-123.34 -146.46,-103.83 -146.46,-15.77z"/>
   <path class="fil0 str0" d="M1849.2 5229.5c0,23.46 -2.86,45.15 9.84,62.26 5.11,6.89 17.94,16.59 28.46,16.59l184.76 0c56.18,0 47.82,-97.04 30.98,-116.6 -8.62,-10.01 -22.16,-16.33 -39.99,-16.33l-164.48 0c-32.55,0 -49.57,21.13 -49.57,54.08z"/>
   <path class="fil0 str0" d="M2455.29 5238.51c0,42.26 35.01,78.86 76.61,78.86 42.06,0 78.85,-33.05 78.85,-74.35 0,-24.35 -5.61,-43.21 -23.54,-59.82 -51.76,-47.95 -131.92,-9.06 -131.92,55.31z"/>
   <path class="fil0 str0" d="M2302.08 5236.26c0,76.17 101.39,64.78 101.39,9.01 0,-17.37 0.2,-26.94 -12.9,-41.18 -29.36,-31.92 -88.49,-10.47 -88.49,32.17z"/>
  </g>
 </g>
</svg>
