<?xml version="1.0" encoding="UTF-8"?>
<!DOCTYPE svg PUBLIC "-//W3C//DTD SVG 1.1//EN" "http://www.w3.org/Graphics/SVG/1.1/DTD/svg11.dtd">
<!-- Creator: CorelDRAW X8 -->
<svg xmlns="http://www.w3.org/2000/svg" xml:space="preserve" width="40mm" height="60mm" version="1.1" style="shape-rendering:geometricPrecision; text-rendering:geometricPrecision; image-rendering:optimizeQuality; fill-rule:evenodd; clip-rule:evenodd"
viewBox="0 0 4000 6000"
 xmlns:xlink="http://www.w3.org/1999/xlink">
 <defs>
  <style type="text/css">
   <![CDATA[
    .str0 {stroke:#332C2B;stroke-width:7.62}
    .fil0 {fill:none}
   ]]>
  </style>
 </defs>
 <g id="图层_x0020_1">
  <metadata id="CorelCorpID_0Corel-Layer"/>
  <g id="_2117931808880">
   <rect class="fil0 str0" x="859" y="650" width="2282" height="4700" rx="263" ry="261"/>
   <path class="fil0 str0" d="M1367 748c-1,-5 -5,-10 -14,-11 -32,0 -57,26 -57,58 0,32 25,58 57,58 32,0 58,-26 58,-58 0,-32 -26,-58 -58,-58"/>
   <path class="fil0 str0" d="M1889 788c-5,-19 -15,-34 -62,-34l-39 0c-21,0 -42,20 -42,41l0 0c0,21 21,41 42,41l424 0c21,0 42,-20 42,-41l0 0c0,-21 -21,-41 -42,-41l-385 0"/>
  </g>
 </g>
</svg>
