<?xml version="1.0" encoding="UTF-8"?>
<!DOCTYPE svg PUBLIC "-//W3C//DTD SVG 1.1//EN" "http://www.w3.org/Graphics/SVG/1.1/DTD/svg11.dtd">
<!-- Creator: CorelDRAW 2020 (64-Bit) -->
<svg xmlns="http://www.w3.org/2000/svg" xml:space="preserve" width="40mm" height="60mm" version="1.1" style="shape-rendering:geometricPrecision; text-rendering:geometricPrecision; image-rendering:optimizeQuality; fill-rule:evenodd; clip-rule:evenodd"
viewBox="0 0 4000 6000"
 xmlns:xlink="http://www.w3.org/1999/xlink"
 xmlns:xodm="http://www.corel.com/coreldraw/odm/2003">
 <defs>
  <style type="text/css">
   <![CDATA[
    .str0 {stroke:#332C2B;stroke-width:7.62;stroke-miterlimit:22.9256}
    .fil0 {fill:none}
   ]]>
  </style>
 </defs>
 <g id="图层_x0020_1">
  <metadata id="CorelCorpID_0Corel-Layer"/>
  <path class="fil0 str0" d="M1036.47 5324.15l1791.09 0c108.2,0 196.73,-88.53 196.73,-196.73l0 -4275.02c0,-108.2 -88.52,-196.73 -196.73,-196.73l-717.82 0c-19.46,0 -35.34,15.88 -35.34,35.34l0 26.59c0,44.55 -36.45,81 -81,81l0 0c-44.55,0 -81,-36.45 -81,-81l0 -26.59c0,-19.46 -15.88,-35.34 -35.34,-35.34l-717.82 0c-108.21,0 -196.73,88.53 -196.73,196.73l0 4275.02c0,108.2 88.52,196.73 196.73,196.73l35.05 0c93.47,0 118.8,15.63 150.5,31.52"/>
 </g>
</svg>
