<?xml version="1.0" encoding="UTF-8"?>
<!DOCTYPE svg PUBLIC "-//W3C//DTD SVG 1.1//EN" "http://www.w3.org/Graphics/SVG/1.1/DTD/svg11.dtd">
<!-- Creator: CorelDRAW -->
<svg xmlns="http://www.w3.org/2000/svg" xml:space="preserve" width="40mm" height="60mm" style="shape-rendering:geometricPrecision; text-rendering:geometricPrecision; image-rendering:optimizeQuality; fill-rule:evenodd; clip-rule:evenodd"
viewBox="0 0 40 60"
 xmlns:xlink="http://www.w3.org/1999/xlink">
 <defs>
  <style type="text/css">
   <![CDATA[
    .str0 {stroke:#1F1A17;stroke-width:0.0762}
    .fil0 {fill:none}
   ]]>
  </style>
 </defs>
 <g id="图层_x0020_1">
  <metadata id="CorelCorpID_0Corel-Layer"/>
  <g id="_131622040">
   <path id="_131624536" class="fil0 str0" d="M12.6174 8.3114c0.3974,0 0.7197,0.3222 0.7197,0.7196 0,0.3974 -0.3223,0.7197 -0.7197,0.7197 -0.3974,0 -0.7197,-0.3223 -0.7197,-0.7197 0,-0.3974 0.3223,-0.7196 0.7197,-0.7196z"/>
   <path id="_47665328" class="fil0 str0" d="M12.6174 12.0173c0.3974,0 0.7197,0.3223 0.7197,0.7197 0,0.3974 -0.3223,0.7196 -0.7197,0.7196 -0.3974,0 -0.7197,-0.3222 -0.7197,-0.7196 0,-0.3974 0.3223,-0.7197 0.7197,-0.7197z"/>
   <path id="_47665568" class="fil0 str0" d="M12.6174 15.7008c0.3108,0 0.5629,0.2521 0.5629,0.5629 0,0.3108 -0.2521,0.5629 -0.5629,0.5629 -0.3108,0 -0.5629,-0.2521 -0.5629,-0.5629 0,-0.3108 0.2521,-0.5629 0.5629,-0.5629z"/>
   <path id="_159343848" class="fil0 str0" d="M12.6174 18.1548c0.3108,0 0.5629,0.252 0.5629,0.5629 0,0.3108 -0.2521,0.5629 -0.5629,0.5629 -0.3108,0 -0.5629,-0.2521 -0.5629,-0.5629 0,-0.3109 0.2521,-0.5629 0.5629,-0.5629z"/>
   <path id="_159344544" class="fil0 str0" d="M15.2521 15.5607c0.3887,0 0.704,0.3153 0.704,0.704 0,0.3888 -0.3153,0.704 -0.704,0.704 -0.3887,0 -0.704,-0.3152 -0.704,-0.704 0,-0.3887 0.3153,-0.704 0.704,-0.704z"/>
   <path id="_159230992" class="fil0 str0" d="M11.2183 6.5l17.5635 0c1.2077,0 2.1954,0.5353 2.1954,1.1899l0 44.6203c0,0.6545 -0.9877,1.1898 -2.1954,1.1898l-17.5635 0c-1.2078,0 -2.1955,-0.5353 -2.1955,-1.1898l0 -44.6203c0,-0.6546 0.9877,-1.1899 2.1955,-1.1899z"/>
   <path id="_131622856" class="fil0 str0" d="M12.6186 7.4458l0 0c0.9057,0 1.6467,0.7335 1.6467,1.63l0 9.6172c0,0.8965 -0.741,1.63 -1.6467,1.63l0 0c-0.9057,0 -1.6467,-0.7335 -1.6467,-1.63l0 -9.6172c0,-0.8965 0.741,-1.63 1.6467,-1.63z"/>
   <path id="_131621800" class="fil0 str0" d="M12.6045 7.8988l0 0c0.6711,0 1.2202,0.6831 1.2202,1.518l0 8.9563c0,0.8349 -0.5491,1.518 -1.2202,1.518l0 0c-0.6712,0 -1.2203,-0.6831 -1.2203,-1.518l0 -8.9563c0,-0.8349 0.5491,-1.518 1.2203,-1.518z"/>
  </g>
 </g>
</svg>
