<?xml version="1.0" encoding="UTF-8"?>
<!DOCTYPE svg PUBLIC "-//W3C//DTD SVG 1.1//EN" "http://www.w3.org/Graphics/SVG/1.1/DTD/svg11.dtd">
<!-- Creator: CorelDRAW X8 -->
<svg xmlns="http://www.w3.org/2000/svg" xml:space="preserve" width="40mm" height="60mm" version="1.1" style="shape-rendering:geometricPrecision; text-rendering:geometricPrecision; image-rendering:optimizeQuality; fill-rule:evenodd; clip-rule:evenodd"
viewBox="0 0 4000 6000"
 xmlns:xlink="http://www.w3.org/1999/xlink">
 <defs>
  <style type="text/css">
   <![CDATA[
    .str0 {stroke:black;stroke-width:7.62}
    .fil0 {fill:none}
   ]]>
  </style>
 </defs>
 <g id="图层_x0020_1">
  <metadata id="CorelCorpID_0Corel-Layer"/>
  <path class="fil0 str0" d="M3156 723c0,-9 -8,-17 -24,-18 -57,0 -103,46 -103,103 0,57 46,103 103,103 57,0 103,-46 103,-103 0,-57 -46,-103 -103,-103m24 416c0,-8 -8,-17 -24,-18 -57,0 -103,46 -103,104 0,57 46,103 103,103 57,0 103,-46 103,-103 0,-58 -46,-104 -103,-104m-178 -220c12,-9 16,-35 16,-48l0 -17c0,-93 76,-168 168,-168l0 0c92,0 167,75 167,168l0 390c0,92 -75,168 -167,168l0 0c-92,0 -168,-76 -168,-168l0 -466m-379 -19c0,-9 -8,-17 -24,-18 -57,0 -103,46 -103,103 0,57 46,103 103,103 57,0 103,-46 103,-103 0,-57 -46,-103 -103,-103m24 416c0,-8 -8,-17 -24,-18 -57,0 -103,46 -103,104 0,57 46,103 103,103 57,0 103,-46 103,-103 0,-58 -46,-104 -103,-104m-178 -220c12,-9 16,-35 16,-48l0 -17c0,-93 76,-168 168,-168l0 0c92,0 167,75 167,168l0 390c0,92 -75,168 -167,168l0 0c-92,0 -168,-76 -168,-168l0 -466m-378 -19c-1,-9 -9,-17 -25,-18 -57,0 -103,46 -103,103 0,57 46,103 103,103 57,0 103,-46 103,-103 0,-57 -46,-103 -103,-103m25 416c-1,-8 -9,-17 -25,-18 -57,0 -103,46 -103,104 0,57 46,103 103,103 57,0 103,-46 103,-103 0,-58 -46,-104 -103,-104m-178 -220c12,-9 17,-35 17,-48l0 -17c0,-93 75,-168 167,-168l0 0c92,0 168,75 168,168l0 390c0,92 -76,168 -168,168l0 0c-92,0 -167,-76 -167,-168l0 -466m-379 -19c-1,-9 -9,-17 -25,-18 -57,0 -103,46 -103,103 0,57 46,103 103,103 57,0 104,-46 104,-103 0,-57 -47,-103 -104,-103m25 416c-1,-8 -9,-17 -25,-18 -57,0 -103,46 -103,104 0,57 46,103 103,103 57,0 104,-46 104,-103 0,-58 -47,-104 -104,-104m-177 -220c11,-9 16,-35 16,-48l0 -17c0,-93 75,-168 167,-168l0 0c92,0 168,75 168,168l0 390c0,92 -76,168 -168,168l0 0c-92,0 -167,-76 -167,-168l0 -466m-379 -19c-1,-9 -9,-17 -25,-18 -57,0 -103,46 -103,103 0,57 46,103 103,103 57,0 104,-46 104,-103 0,-57 -47,-103 -104,-103m25 416c-1,-8 -9,-17 -25,-18 -57,0 -103,46 -103,104 0,57 46,103 103,103 57,0 104,-46 104,-103 0,-58 -47,-104 -104,-104m-177 -220c11,-9 16,-35 16,-48l0 -17c0,-93 75,-168 167,-168l0 0c92,0 168,75 168,168l0 390c0,92 -76,168 -168,168l0 0c-92,0 -167,-76 -167,-168l0 -466m2445 1972c0,-9 -8,-17 -24,-19 -57,0 -103,47 -103,104 0,57 46,103 103,103 57,0 103,-46 103,-103 0,-57 -46,-104 -103,-104m24 417c0,-9 -8,-17 -24,-18 -57,0 -103,46 -103,103 0,57 46,104 103,104 57,0 103,-47 103,-104 0,-57 -46,-103 -103,-103m-178 -220c12,-9 16,-35 16,-48l0 -18c0,-92 76,-167 168,-167l0 0c92,0 167,75 167,167l0 391c0,92 -75,168 -167,168l0 0c-92,0 -168,-76 -168,-168l0 -466m-379 -19c0,-9 -8,-17 -24,-19 -57,0 -103,47 -103,104 0,57 46,103 103,103 57,0 103,-46 103,-103 0,-57 -46,-104 -103,-104m24 417c0,-9 -8,-17 -24,-18 -57,0 -103,46 -103,103 0,57 46,104 103,104 57,0 103,-47 103,-104 0,-57 -46,-103 -103,-103m-178 -220c12,-9 16,-35 16,-48l0 -18c0,-92 76,-167 168,-167l0 0c92,0 167,75 167,167l0 391c0,92 -75,168 -167,168l0 0c-92,0 -168,-76 -168,-168l0 -466m-378 -19c-1,-9 -9,-17 -25,-19 -57,0 -103,47 -103,104 0,57 46,103 103,103 57,0 103,-46 103,-103 0,-57 -46,-104 -103,-104m25 417c-1,-9 -9,-17 -25,-18 -57,0 -103,46 -103,103 0,57 46,104 103,104 57,0 103,-47 103,-104 0,-57 -46,-103 -103,-103m-178 -220c12,-9 17,-35 17,-48l0 -18c0,-92 75,-167 167,-167l0 0c92,0 168,75 168,167l0 391c0,92 -76,168 -168,168l0 0c-92,0 -167,-76 -167,-168l0 -466m-379 -19c-1,-9 -9,-17 -25,-19 -57,0 -103,47 -103,104 0,57 46,103 103,103 57,0 104,-46 104,-103 0,-57 -47,-104 -104,-104m25 417c-1,-9 -9,-17 -25,-18 -57,0 -103,46 -103,103 0,57 46,104 103,104 57,0 104,-47 104,-104 0,-57 -47,-103 -104,-103m-177 -220c11,-9 16,-35 16,-48l0 -18c0,-92 75,-167 167,-167l0 0c92,0 168,75 168,167l0 391c0,92 -76,168 -168,168l0 0c-92,0 -167,-76 -167,-168l0 -466m-379 -19c-1,-9 -9,-17 -25,-19 -57,0 -103,47 -103,104 0,57 46,103 103,103 57,0 104,-46 104,-103 0,-57 -47,-104 -104,-104m25 417c-1,-9 -9,-17 -25,-18 -57,0 -103,46 -103,103 0,57 46,104 103,104 57,0 104,-47 104,-104 0,-57 -47,-103 -104,-103m-177 -220c11,-9 16,-35 16,-48l0 -18c0,-92 75,-167 167,-167l0 0c92,0 168,75 168,167l0 391c0,92 -76,168 -168,168l0 0c-92,0 -167,-76 -167,-168l0 -466m2445 1964c0,-9 -8,-17 -24,-18 -57,0 -103,46 -103,103 0,57 46,103 103,103 57,0 103,-46 103,-103 0,-57 -46,-103 -103,-103m24 417c0,-9 -8,-17 -24,-19 -57,0 -103,47 -103,104 0,57 46,103 103,103 57,0 103,-46 103,-103 0,-57 -46,-104 -103,-104m-178 -220c12,-9 16,-35 16,-47l0 -18c0,-92 76,-168 168,-168l0 0c92,0 167,76 167,168l0 390c0,93 -75,168 -167,168l0 0c-92,0 -168,-75 -168,-168l0 -466m-379 -19c0,-9 -8,-17 -24,-18 -57,0 -103,46 -103,103 0,57 46,103 103,103 57,0 103,-46 103,-103 0,-57 -46,-103 -103,-103m24 417c0,-9 -8,-17 -24,-19 -57,0 -103,47 -103,104 0,57 46,103 103,103 57,0 103,-46 103,-103 0,-57 -46,-104 -103,-104m-178 -220c12,-9 16,-35 16,-47l0 -18c0,-92 76,-168 168,-168l0 0c92,0 167,76 167,168l0 390c0,93 -75,168 -167,168l0 0c-92,0 -168,-75 -168,-168l0 -466m-378 -19c-1,-9 -9,-17 -25,-18 -57,0 -103,46 -103,103 0,57 46,103 103,103 57,0 103,-46 103,-103 0,-57 -46,-103 -103,-103m25 417c-1,-9 -9,-17 -25,-19 -57,0 -103,47 -103,104 0,57 46,103 103,103 57,0 103,-46 103,-103 0,-57 -46,-104 -103,-104m-178 -220c12,-9 17,-35 17,-47l0 -18c0,-92 75,-168 167,-168l0 0c92,0 168,76 168,168l0 390c0,93 -76,168 -168,168l0 0c-92,0 -167,-75 -167,-168l0 -466m-379 -19c-1,-9 -9,-17 -25,-18 -57,0 -103,46 -103,103 0,57 46,103 103,103 57,0 104,-46 104,-103 0,-57 -47,-103 -104,-103m25 417c-1,-9 -9,-17 -25,-19 -57,0 -103,47 -103,104 0,57 46,103 103,103 57,0 104,-46 104,-103 0,-57 -47,-104 -104,-104m-177 -220c11,-9 16,-35 16,-47l0 -18c0,-92 75,-168 167,-168l0 0c92,0 168,76 168,168l0 390c0,93 -76,168 -168,168l0 0c-92,0 -167,-75 -167,-168l0 -466m-379 -19c-1,-9 -9,-17 -25,-18 -57,0 -103,46 -103,103 0,57 46,103 103,103 57,0 104,-46 104,-103 0,-57 -47,-103 -104,-103m25 417c-1,-9 -9,-17 -25,-19 -57,0 -103,47 -103,104 0,57 46,103 103,103 57,0 104,-46 104,-103 0,-57 -47,-104 -104,-104m-177 -220c11,-9 16,-35 16,-47l0 -18c0,-92 75,-168 167,-168l0 0c92,0 168,76 168,168l0 390c0,93 -76,168 -168,168l0 0c-92,0 -167,-75 -167,-168l0 -466"/>
 </g>
</svg>
