<?xml version="1.0" encoding="utf-8"?>
<!-- Generator: Adobe Illustrator 16.0.0, SVG Export Plug-In . SVG Version: 6.00 Build 0)  -->
<!DOCTYPE svg PUBLIC "-//W3C//DTD SVG 1.1//EN" "http://www.w3.org/Graphics/SVG/1.1/DTD/svg11.dtd">
<svg version="1.1" id="图层_1" xmlns="http://www.w3.org/2000/svg" xmlns:xlink="http://www.w3.org/1999/xlink" x="0px" y="0px"
	 width="113.386px" height="170.079px" viewBox="0 0 113.386 170.079" enable-background="new 0 0 113.386 170.079"
	 xml:space="preserve">
<path fill-rule="evenodd" clip-rule="evenodd" d="M112.557,148.931c-0.027,0.094-0.061,0.185-0.078,0.278
	c-0.268,1.382-1.445,2.39-2.854,2.44c-0.135,0.005-0.268,0.004-0.402,0.004c-13.459,0-26.92,0-40.379-0.001
	c-0.207,0-0.418,0.006-0.619-0.03c-0.545-0.099-0.955-0.6-1.002-1.201c-0.01-0.146-0.004-0.293-0.004-0.439
	c0-43.268,0-86.536-0.012-129.805c0-0.855,0.244-1.468,1.092-1.751c13.826,0,27.652,0,41.477,0c0.068,0.022,0.135,0.055,0.205,0.066
	c1.303,0.229,2.252,1.156,2.502,2.443c0.014,0.067,0.049,0.131,0.074,0.197C112.557,63.731,112.557,106.331,112.557,148.931z
	 M68.07,85.073c0,21.663,0,43.326,0,64.99c0,0.665,0.096,0.762,0.756,0.762c13.484,0,26.967,0,40.451,0
	c1.52-0.001,2.408-0.89,2.408-2.404c0-6.998,0-13.995,0-20.993c0-35.22,0-70.439,0-105.659c0-0.231,0.008-0.468-0.035-0.692
	c-0.211-1.101-1.096-1.78-2.297-1.78c-13.496,0-26.992,0-40.486,0c-0.732,0-0.797,0.063-0.797,0.787
	C68.07,41.746,68.07,63.41,68.07,85.073z"/>
<path fill-rule="evenodd" clip-rule="evenodd" d="M61.422,18.426c0.076,0.031,0.152,0.065,0.23,0.094
	c0.521,0.191,0.848,0.638,0.865,1.193c0.004,0.134,0.002,0.269,0.002,0.402c0,43.302,0,86.604,0,129.906
	c0,0.146,0.004,0.293-0.004,0.438c-0.035,0.623-0.52,1.127-1.137,1.183c-0.133,0.012-0.268,0.011-0.402,0.011
	c-14.361,0-28.722,0-43.083,0c-0.134,0-0.269,0.001-0.402-0.01c-0.599-0.049-1.067-0.495-1.141-1.096
	c-0.021-0.181-0.021-0.364-0.021-0.547c-0.001-43.29-0.001-86.58,0.002-129.869c0-0.277,0.012-0.566,0.086-0.83
	c0.145-0.51,0.575-0.723,1.039-0.876C32.112,18.426,46.767,18.426,61.422,18.426z M17.165,85.034c0,21.665,0,43.33,0,64.996
	c0,0.701,0.095,0.795,0.805,0.795c14.313,0,28.627,0,42.941,0c0.674,0,0.773-0.095,0.773-0.749c0-43.343,0-86.686,0-130.028
	c0-0.668-0.086-0.751-0.766-0.751c-14.325,0-28.651,0-42.976,0c-0.098,0-0.195-0.002-0.293,0.002
	c-0.311,0.01-0.464,0.184-0.481,0.483c-0.008,0.134-0.003,0.269-0.003,0.402C17.165,41.801,17.165,63.418,17.165,85.034z"/>
<path fill-rule="evenodd" clip-rule="evenodd" d="M0.831,85.184c0-21.532,0-43.063,0-64.595c0-0.183-0.005-0.366,0.005-0.549
	c0.036-0.745,0.545-1.248,1.296-1.251c1.804-0.008,3.608-0.003,5.413-0.003c1.085,0,2.17-0.006,3.255,0.002
	c1.286,0.01,2.182,0.904,2.199,2.184C13,21.094,13,21.216,13,21.338c0,42.6,0,85.198-0.004,127.798c0,0.326-0.009,0.665-0.093,0.977
	c-0.239,0.882-1.062,1.515-1.975,1.519c-2.938,0.011-5.876,0.009-8.814,0.002c-0.722-0.001-1.238-0.515-1.277-1.233
	c-0.011-0.183-0.006-0.366-0.006-0.549C0.831,128.295,0.831,106.738,0.831,85.184z M12.169,32.716c0-0.105,0-0.21,0-0.315
	c0-3.73,0-7.461-0.001-11.191c0-1.096-0.493-1.593-1.579-1.593c-2.719-0.002-5.438-0.001-8.156-0.001
	c-0.666,0-0.772,0.104-0.772,0.755c0,43.23,0,86.461,0,129.691c0,0.633,0.103,0.732,0.75,0.732c2.719,0.001,5.438,0.001,8.156,0
	c1.128,0,1.602-0.473,1.602-1.598c0.001-29.15,0.001-58.3,0.001-87.449c0-0.116,0-0.232,0-0.349
	c-0.814,1.201-1.873,1.999-3.303,2.225c-1.452,0.229-2.734-0.173-3.804-1.179c-1.783-1.677-1.87-4.5-0.21-6.29
	c0.796-0.858,1.784-1.358,2.952-1.432c1.881-0.117,3.295,0.706,4.335,2.342c0-2.679,0-5.263,0-7.893
	c-1.84,2.944-5.186,2.716-6.86,1.29c-1.842-1.567-2.163-4.318-0.665-6.211c0.994-1.256,2.317-1.84,3.912-1.716
	c1.584,0.124,2.757,0.958,3.619,2.354c0-2.763,0-5.425,0-8.204c-0.794,1.421-1.894,2.279-3.413,2.5
	c-1.539,0.224-2.872-0.244-3.944-1.373c-1.801-1.896-1.562-4.937,0.492-6.582C7.229,29.67,10.525,29.891,12.169,32.716z
	 M11.711,34.757c0.004-2.014-1.627-3.653-3.638-3.657c-2.01-0.003-3.646,1.633-3.647,3.646c-0.001,2.017,1.626,3.651,3.638,3.654
	C10.078,38.403,11.707,36.775,11.711,34.757z M8.137,50.647c2.013,0.011,3.655-1.611,3.671-3.626
	c0.016-1.986-1.616-3.646-3.599-3.659c-2.045-0.014-3.696,1.602-3.704,3.624C4.499,49.002,6.12,50.636,8.137,50.647z M8.193,55.55
	c-1.988-0.03-3.658,1.587-3.687,3.57c-0.029,2.004,1.573,3.688,3.538,3.717c2.072,0.032,3.728-1.554,3.763-3.604
	C11.842,57.239,10.213,55.579,8.193,55.55z"/>
<path fill-rule="evenodd" clip-rule="evenodd" d="M11.792,84.238c0,1.206,0.003,2.412,0,3.618c-0.004,1.487-0.879,2.365-2.362,2.372
	c-0.95,0.004-1.9,0.006-2.851-0.001c-1.456-0.009-2.336-0.896-2.338-2.36c-0.003-2.424-0.002-4.848,0-7.272
	c0.002-1.483,0.883-2.367,2.363-2.372c0.95-0.004,1.9-0.005,2.851,0c1.438,0.008,2.325,0.893,2.337,2.325c0,0.012,0,0.024,0,0.036
	C11.792,81.803,11.792,83.021,11.792,84.238z M10.949,84.239c0-1.231,0.002-2.462,0-3.692c-0.002-0.946-0.528-1.478-1.465-1.479
	c-0.975-0.002-1.95-0.002-2.925,0c-0.942,0.002-1.469,0.528-1.47,1.472c-0.001,2.462-0.002,4.923,0,7.385
	c0.001,0.922,0.53,1.458,1.444,1.462c0.987,0.003,1.974,0.003,2.961,0c0.916-0.003,1.451-0.539,1.453-1.455
	C10.951,86.7,10.949,85.47,10.949,84.239z"/>
<path fill-rule="evenodd" clip-rule="evenodd" d="M7.877,28.587c-0.535,0-1.071,0.008-1.607-0.001
	c-1.158-0.02-2.059-0.928-2.065-2.074c-0.007-1.153,0.872-2.07,2.039-2.091c1.083-0.019,2.168-0.018,3.252,0
	c1.168,0.02,2.05,0.931,2.047,2.082c-0.003,1.163-0.91,2.068-2.094,2.083C8.925,28.593,8.402,28.588,7.877,28.587z M7.875,27.74
	c0.499,0,0.998,0,1.498-0.001c0.024,0,0.049,0,0.073,0c0.709-0.024,1.24-0.53,1.267-1.206c0.025-0.659-0.489-1.252-1.195-1.274
	c-1.096-0.033-2.193-0.034-3.288,0c-0.706,0.022-1.222,0.617-1.194,1.276c0.027,0.676,0.558,1.187,1.269,1.201
	C6.827,27.748,7.35,27.739,7.875,27.74z"/>
<path fill-rule="evenodd" clip-rule="evenodd" d="M481.723,99.685"/>
</svg>
