<?xml version="1.0" encoding="UTF-8"?>
<!DOCTYPE svg PUBLIC "-//W3C//DTD SVG 1.1//EN" "http://www.w3.org/Graphics/SVG/1.1/DTD/svg11.dtd">
<!-- Creator: CorelDRAW X8 -->
<svg xmlns="http://www.w3.org/2000/svg" xml:space="preserve" width="40mm" height="60mm" version="1.1" style="shape-rendering:geometricPrecision; text-rendering:geometricPrecision; image-rendering:optimizeQuality; fill-rule:evenodd; clip-rule:evenodd"
viewBox="0 0 4000 6000"
 xmlns:xlink="http://www.w3.org/1999/xlink">
 <defs>
  <style type="text/css">
   <![CDATA[
    .str0 {stroke:#332C2B;stroke-width:7.62}
    .fil0 {fill:none}
   ]]>
  </style>
 </defs>
 <g id="图层_x0020_1">
  <metadata id="CorelCorpID_0Corel-Layer"/>
  <path class="fil0 str0" d="M827 5234l1482 0c6,0 8,2 9,-7 4,-24 25,-43 49,-43 25,0 46,19 49,43 2,8 4,7 8,7l551 0c109,0 198,-89 198,-198l0 -4188c0,-109 -89,-198 -198,-198l-700 0c-15,0 -12,-1 -23,10l-19 19c-15,15 -11,12 -32,12l-328 0c-18,0 -14,2 -27,-12l-19 -19c-12,-12 -8,-10 -24,-10l-703 0c-109,0 -198,89 -198,198l0 4188c0,109 89,198 198,198 109,0 235,53 235,116m-221 -4579c-14,-15 -9,-54 15,-54 23,0 42,19 42,42 0,24 -19,43 -42,43 -24,0 -42,-19 -42,-43 0,-23 18,-42 42,-42"/>
 </g>
</svg>
