<?xml version="1.0" encoding="UTF-8"?>
<!DOCTYPE svg PUBLIC "-//W3C//DTD SVG 1.1//EN" "http://www.w3.org/Graphics/SVG/1.1/DTD/svg11.dtd">
<!-- Creator: CorelDRAW X8 -->
<svg xmlns="http://www.w3.org/2000/svg" xml:space="preserve" width="40mm" height="60mm" version="1.1" style="shape-rendering:geometricPrecision; text-rendering:geometricPrecision; image-rendering:optimizeQuality; fill-rule:evenodd; clip-rule:evenodd"
viewBox="0 0 4000 6000"
 xmlns:xlink="http://www.w3.org/1999/xlink">
 <defs>
  <style type="text/css">
   <![CDATA[
    .fil0 {fill:#332C2B;fill-rule:nonzero}
   ]]>
  </style>
 </defs>
 <g id="Katman_x0020_1">
  <metadata id="CorelCorpID_0Corel-Layer"/>
  <g id="_2200101204480">
   <g>
    <path class="fil0" d="M1195 1279l3 0 0 0 0 3 0 4 1 4 1 3 0 4 1 3 2 4 1 3 2 3 1 3 2 4 2 2 2 3 3 3 2 3 2 2 3 3 3 2 3 2 3 2 3 2 3 2 4 2 3 1 3 1 4 1 4 1 3 1 4 1 4 0 4 1 4 0 0 2 -4 0 -4 0 -4 -1 -4 0 -4 -1 -4 -1 -3 -1 -4 -2 -4 -1 -3 -2 -3 -2 -4 -2 -3 -2 -3 -2 -3 -2 -2 -3 -3 -2 -2 -3 -3 -3 -2 -3 -2 -3 -2 -3 -2 -4 -1 -3 -2 -3 -1 -4 -1 -3 -1 -4 -1 -4 0 -4 -1 -3 0 -4 0 0zm80 -76l0 3 0 0 -4 0 -4 0 -4 1 -4 0 -3 1 -4 1 -4 1 -3 1 -3 2 -4 2 -3 1 -3 2 -3 2 -3 2 -3 3 -3 2 -2 3 -2 2 -3 3 -2 3 -2 3 -2 3 -1 3 -2 3 -1 4 -2 3 -1 3 0 4 -1 4 -1 3 0 4 0 4 -3 0 0 -4 1 -4 0 -4 1 -4 1 -3 1 -4 1 -3 2 -4 1 -3 2 -3 2 -4 2 -3 2 -3 3 -2 2 -3 3 -3 2 -2 3 -3 3 -2 3 -2 4 -2 3 -2 3 -1 4 -2 4 -1 3 -1 4 -2 4 0 4 -1 4 -1 4 0 4 0 0 0zm79 76l-2 0 0 0 0 -4 0 -4 -1 -3 -1 -4 -1 -4 -1 -3 -1 -3 -1 -4 -2 -3 -1 -3 -2 -3 -2 -3 -2 -3 -3 -3 -2 -2 -3 -3 -2 -2 -3 -3 -3 -2 -3 -2 -3 -2 -3 -1 -4 -2 -3 -2 -4 -1 -3 -1 -4 -1 -4 -1 -3 0 -4 -1 -4 0 -4 0 0 -3 4 0 4 0 4 1 4 1 4 0 4 2 3 1 4 1 3 2 4 1 3 2 3 2 3 2 3 2 3 3 3 2 3 3 2 3 3 2 2 3 2 3 2 4 2 3 1 3 2 4 1 3 1 4 1 3 1 4 0 4 0 4 0 4 0 0zm-79 75l0 -2 0 0 4 0 4 -1 4 0 3 -1 4 -1 4 -1 3 -1 4 -1 3 -1 4 -2 3 -2 3 -2 3 -2 3 -2 3 -2 2 -3 3 -2 2 -3 3 -3 2 -3 2 -2 2 -4 1 -3 2 -3 1 -3 1 -4 1 -3 1 -4 1 -3 1 -4 0 -4 0 -3 2 0 0 4 0 3 0 4 -1 4 -1 4 -1 3 -1 4 -2 3 -1 3 -2 4 -2 3 -2 3 -2 3 -3 3 -2 3 -3 2 -3 3 -3 2 -3 2 -3 2 -3 2 -3 2 -4 2 -3 1 -4 2 -3 1 -4 1 -4 1 -4 0 -4 1 -4 0 -4 0 0 0zm0 72l0 3 0 0 -3 0 -4 0 -3 1 -3 0 -3 1 -3 1 -3 1 -3 1 -3 1 -2 1 -3 2 -3 1 -2 2 -3 2 -2 2 -2 2 -2 2 -2 2 -2 2 -2 3 -2 2 -1 3 -2 2 -1 3 -1 3 -1 3 -1 2 -1 3 0 3 0 3 -1 3 0 3 -2 0 0 -3 0 -3 0 -3 1 -3 1 -3 1 -3 1 -3 1 -3 1 -3 2 -3 1 -2 2 -3 2 -2 2 -3 2 -2 2 -2 2 -2 3 -2 2 -2 3 -2 3 -1 2 -2 3 -1 3 -2 3 -1 3 -1 3 -1 4 0 3 -1 3 0 3 0 4 -1 0 0zm66 63l-2 0 0 0 0 -3 -1 -3 0 -3 -1 -3 0 -3 -1 -2 -1 -3 -1 -3 -2 -3 -1 -2 -2 -3 -1 -2 -2 -3 -2 -2 -2 -2 -2 -2 -2 -2 -3 -2 -2 -2 -2 -2 -3 -1 -3 -2 -2 -1 -3 -1 -3 -1 -3 -1 -3 -1 -3 -1 -3 0 -4 -1 -3 0 -3 0 0 -3 3 1 4 0 3 0 3 1 3 0 4 1 3 1 3 1 3 2 2 1 3 2 3 1 3 2 2 2 2 2 3 2 2 2 2 2 2 3 2 2 2 3 1 2 2 3 1 3 1 3 1 3 1 3 1 3 1 3 0 3 0 3 0 3 0 0zm-66 64l0 -3 0 0 3 0 3 0 4 -1 3 0 3 -1 3 -1 3 -1 3 -1 3 -1 2 -1 3 -2 3 -1 2 -2 2 -2 3 -2 2 -2 2 -2 2 -2 2 -2 2 -3 1 -2 2 -3 1 -2 2 -3 1 -3 1 -3 1 -2 0 -3 1 -3 0 -3 1 -3 0 -4 2 0 0 4 0 3 0 3 -1 3 -1 3 -1 3 -1 3 -1 3 -1 3 -2 3 -1 2 -2 3 -2 2 -2 3 -2 2 -2 2 -3 2 -2 2 -2 2 -3 2 -3 1 -3 2 -2 1 -3 2 -3 1 -3 1 -4 1 -3 0 -3 1 -3 0 -4 0 -3 1 0 0zm-66 -64l2 0 0 0 0 4 1 3 0 3 0 3 1 3 1 2 1 3 1 3 1 3 2 2 1 3 2 2 2 3 2 2 2 2 2 2 2 2 2 2 3 2 2 2 3 1 3 2 2 1 3 1 3 1 3 1 3 1 3 1 3 0 3 1 4 0 3 0 0 3 -4 -1 -3 0 -3 0 -3 -1 -4 0 -3 -1 -3 -1 -3 -1 -3 -2 -3 -1 -2 -2 -3 -1 -3 -2 -2 -2 -3 -2 -2 -2 -2 -2 -2 -2 -2 -3 -2 -2 -2 -3 -1 -2 -2 -3 -1 -3 -1 -3 -1 -3 -1 -3 -1 -3 -1 -3 0 -3 0 -3 0 -4 0 0zm-7 211l2 0 0 0 0 4 1 3 0 4 1 3 1 3 1 3 1 3 1 3 1 3 2 3 2 3 1 3 2 2 2 3 3 2 2 3 2 2 3 2 3 2 2 2 3 2 3 1 3 2 3 1 4 1 3 1 3 1 4 1 3 0 4 1 3 0 4 0 0 3 -4 0 -4 -1 -3 0 -4 -1 -3 0 -4 -1 -3 -1 -4 -2 -3 -1 -3 -2 -3 -1 -3 -2 -3 -2 -3 -2 -2 -2 -3 -2 -2 -3 -2 -2 -3 -3 -2 -3 -2 -3 -1 -2 -2 -3 -1 -4 -2 -3 -1 -3 -1 -3 -1 -4 0 -3 -1 -4 0 -3 0 -4 0 0zm73 -69l0 2 0 0 -4 0 -3 1 -4 0 -3 1 -4 0 -3 1 -3 1 -4 2 -3 1 -3 1 -3 2 -3 2 -2 2 -3 2 -3 2 -2 2 -2 2 -3 3 -2 2 -2 3 -1 3 -2 2 -2 3 -1 3 -1 3 -1 3 -1 4 -1 3 -1 3 0 4 -1 3 0 3 -2 0 0 -3 0 -4 1 -3 0 -4 1 -3 1 -3 1 -4 2 -3 1 -3 2 -3 1 -3 2 -3 2 -2 3 -3 2 -2 2 -3 3 -2 2 -2 3 -2 3 -2 3 -2 3 -2 3 -1 3 -2 4 -1 3 -1 4 -1 3 -1 4 0 3 -1 4 0 4 0 0 0zm73 69l-2 0 0 0 -1 -3 0 -3 0 -4 -1 -3 -1 -3 -1 -4 -1 -3 -1 -3 -1 -3 -2 -3 -2 -2 -2 -3 -1 -3 -3 -2 -2 -3 -2 -2 -3 -2 -2 -2 -3 -2 -3 -2 -2 -2 -3 -2 -3 -1 -4 -1 -3 -2 -3 -1 -3 -1 -4 0 -3 -1 -4 0 -3 -1 -4 0 0 -2 4 0 3 0 4 1 4 0 3 1 4 1 3 1 3 1 4 2 3 1 3 2 3 2 3 2 2 2 3 2 3 2 2 3 2 2 3 3 2 2 1 3 2 3 2 3 1 3 2 3 1 4 1 3 1 3 0 4 1 3 0 4 0 3 0 0zm-73 70l0 -3 0 0 4 0 3 0 4 0 3 -1 4 -1 3 -1 3 -1 3 -1 4 -1 3 -2 3 -1 2 -2 3 -2 3 -2 2 -2 3 -2 2 -3 2 -2 3 -3 1 -2 2 -3 2 -3 2 -3 1 -3 1 -3 1 -3 1 -3 1 -3 1 -3 0 -4 0 -3 1 -4 2 0 0 4 0 3 -1 4 0 3 -1 4 -1 3 -1 3 -2 3 -1 4 -2 3 -2 2 -1 3 -2 3 -3 3 -2 2 -2 3 -3 2 -3 2 -2 2 -3 2 -3 2 -3 1 -3 2 -4 1 -3 2 -3 1 -4 1 -3 0 -4 1 -4 0 -3 1 -4 0 0 0zm-152 -491l-3 0 0 0 0 -8 1 -8 1 -7 1 -8 2 -7 2 -8 2 -7 3 -6 3 -7 3 -7 4 -6 4 -6 4 -6 5 -6 4 -6 5 -5 6 -5 5 -5 6 -4 6 -5 6 -4 7 -3 7 -4 6 -3 8 -2 7 -3 7 -2 8 -2 8 -1 8 -1 8 0 8 -1 0 3 -8 0 -8 1 -8 1 -8 1 -7 2 -7 2 -8 2 -7 3 -6 3 -7 3 -6 4 -6 4 -6 4 -6 4 -6 5 -5 5 -5 5 -4 5 -5 6 -4 6 -4 6 -3 6 -4 7 -3 6 -2 7 -3 7 -2 7 -1 8 -1 7 -1 7 -1 8 0 8 0 0zm-3 426l0 -426 3 0 0 426 0 0 -3 0zm155 150l0 2 0 0 -8 0 -8 0 -8 -1 -8 -2 -8 -1 -7 -3 -7 -2 -8 -3 -6 -3 -7 -3 -7 -4 -6 -4 -6 -4 -6 -5 -5 -4 -6 -5 -5 -6 -4 -5 -5 -6 -4 -6 -4 -6 -4 -6 -3 -7 -3 -7 -3 -7 -2 -7 -2 -7 -2 -7 -1 -8 -1 -8 -1 -7 0 -8 3 0 0 8 1 7 1 8 1 7 1 7 2 7 3 7 2 7 3 7 4 6 3 7 4 6 4 6 5 5 4 6 5 5 5 5 6 5 6 4 6 4 6 4 6 4 7 3 6 3 7 3 8 2 7 2 7 2 8 1 8 1 8 1 8 0 0 0zm152 -150l2 0 0 0 0 8 0 7 -1 8 -2 8 -1 7 -2 7 -3 7 -2 7 -3 7 -4 7 -3 6 -4 6 -4 6 -5 6 -5 5 -5 6 -5 5 -5 4 -6 5 -6 4 -7 4 -6 4 -7 3 -7 3 -7 3 -7 2 -7 3 -8 1 -8 2 -8 1 -8 0 -8 0 0 -2 8 0 8 -1 8 -1 7 -1 8 -2 7 -2 7 -2 7 -3 7 -3 7 -3 6 -4 6 -4 6 -4 6 -4 5 -5 6 -5 5 -5 4 -6 5 -5 4 -6 4 -6 3 -7 3 -6 3 -7 3 -7 2 -7 2 -7 2 -7 1 -7 1 -8 1 -7 0 -8 0 0zm2 -426l0 426 -2 0 0 -426 0 0 2 0zm-154 -150l0 -3 0 0 8 1 8 0 8 1 8 1 8 2 7 2 7 3 7 2 7 3 7 4 6 3 7 4 6 5 6 4 5 5 5 5 5 5 5 6 5 6 4 6 4 6 3 6 4 7 3 6 2 7 3 7 2 8 1 7 2 8 1 7 0 8 0 8 -2 0 0 -8 -1 -8 -1 -7 -1 -7 -2 -8 -2 -7 -2 -7 -3 -7 -3 -6 -3 -7 -3 -6 -4 -6 -4 -6 -5 -6 -4 -5 -5 -5 -6 -5 -5 -5 -6 -4 -6 -4 -6 -4 -6 -4 -7 -3 -7 -3 -7 -3 -7 -2 -7 -2 -8 -2 -7 -1 -8 -1 -8 -1 -8 0 0 0z"/>
   </g>
   <g>
    <path class="fil0" d="M3067 1057l124 0 0 2 -124 0 0 0 0 -2zm-9 -1l3 0 0 -1 0 0 0 0 0 0 0 0 0 0 0 0 0 0 0 0 0 0 0 0 0 0 0 0 0 0 0 1 1 0 0 0 0 0 0 0 0 0 1 0 0 0 0 0 0 0 1 0 0 1 0 0 1 0 0 0 1 0 0 0 1 0 0 0 0 2 0 0 -1 0 -1 0 0 0 -1 0 0 0 0 0 -1 0 0 0 -1 0 0 0 0 -1 -1 0 0 0 0 0 0 0 -1 0 0 0 0 0 0 -1 0 0 -1 0 0 0 0 0 0 0 0 0 0 0 0 0 0 -1 0 0 0 0 0 0 -1 0zm1 0l-1 0 0 0 1 0zm2 -3l0 3 -3 0 0 -3 3 0 0 0zm0 0l0 0 0 0 0 0zm-223 -204l2 1 -1 -2 11 1 11 1 10 2 10 3 10 3 10 3 10 4 9 4 9 4 9 5 8 6 9 5 8 6 7 7 8 7 7 7 7 7 6 7 7 8 6 8 6 8 5 9 5 8 5 9 5 9 4 9 4 9 4 9 3 9 4 9 2 9 3 10 -3 0 -2 -9 -3 -9 -3 -9 -3 -9 -4 -9 -4 -9 -4 -9 -5 -9 -5 -8 -5 -9 -6 -8 -5 -8 -6 -8 -7 -8 -6 -7 -7 -8 -7 -7 -7 -6 -8 -6 -8 -6 -8 -6 -8 -5 -9 -5 -9 -5 -9 -4 -10 -4 -9 -3 -10 -3 -10 -2 -11 -2 -10 -1 -11 -1 -1 -2zm1 2l-3 0 2 -2 1 2zm262 -66l0 3 0 0 -4 0 -4 0 -5 1 -7 0 -7 1 -7 1 -9 1 -8 1 -10 1 -10 2 -10 2 -10 1 -11 2 -11 2 -11 2 -11 2 -11 2 -11 3 -11 2 -11 3 -10 2 -10 3 -9 2 -9 3 -8 3 -8 3 -7 3 -6 3 -5 3 -5 3 -3 3 -2 2 -2 -1 2 -3 4 -3 4 -4 6 -3 6 -3 7 -2 8 -3 8 -3 9 -3 10 -3 10 -2 10 -3 10 -2 11 -3 11 -2 11 -2 11 -3 11 -2 11 -1 11 -2 11 -2 10 -2 10 -1 9 -1 9 -2 8 -1 8 -1 7 0 6 -1 6 0 4 -1 4 0 0 0zm65 3l-65 0 0 -3 65 0 1 2 -1 1zm1 -1l0 1 -1 0 1 -1zm1 -16l-1 16 -3 0 2 -16 2 0 0 0zm0 0l0 0 0 0 0 0zm-3 -90l3 0 0 -1 0 4 0 3 1 4 0 3 0 3 0 3 0 2 1 3 0 3 0 3 0 2 0 3 0 2 0 3 0 2 0 3 0 2 0 3 0 2 0 3 0 2 0 3 0 2 0 3 0 3 -1 3 0 3 0 3 0 3 0 3 -1 3 0 4 -2 0 0 -4 0 -3 0 -3 1 -4 0 -3 0 -2 0 -3 0 -3 0 -3 0 -2 1 -3 0 -2 0 -3 0 -2 0 -3 0 -2 0 -3 0 -2 0 -3 0 -2 -1 -3 0 -2 0 -3 0 -3 0 -2 0 -3 0 -3 -1 -3 0 -3 0 -4 0 -3 -1 -3 0 0zm0 0l0 0 0 0 0 0zm2 -31l1 31 -3 0 -1 -31 1 -1 2 1zm-2 -1l2 0 0 1 -2 -1zm-2328 0l2328 0 0 2 -2328 0 -1 -1 1 -1zm-1 1l0 -1 1 0 -1 1zm-4 73l4 -73 3 0 -4 73 0 0 -3 0zm3 0l0 0 0 0 0 0zm0 42l-3 0 0 0 0 -2 0 -1 0 -2 0 -2 0 -1 -1 -2 0 -1 0 -1 0 -1 0 -2 0 -1 0 -1 0 -1 0 -1 0 -1 0 -1 0 -1 0 -1 0 -1 0 -1 0 -1 0 -1 0 -2 0 -1 0 -1 0 -2 0 -1 1 -1 0 -2 0 -2 0 -1 0 -2 3 0 0 2 -1 2 0 1 0 2 0 1 0 2 0 1 0 1 0 2 0 1 0 1 0 1 -1 1 0 1 0 1 0 1 0 1 0 1 1 1 0 1 0 1 0 1 0 1 0 2 0 1 0 1 0 2 0 1 0 2 1 1 0 2 0 2 0 0zm-3 0l0 0 0 0 0 0zm4 25l-4 -25 3 0 4 24 -2 2 -1 -1zm1 1l-1 0 0 -1 1 1zm48 0l-48 0 0 -3 48 0 0 0 0 3zm267 61l-1 -2 0 2 -5 -2 -6 -3 -7 -2 -7 -2 -8 -3 -9 -3 -8 -2 -10 -3 -9 -2 -10 -3 -10 -2 -10 -3 -11 -2 -10 -3 -11 -2 -10 -3 -11 -2 -10 -2 -10 -2 -10 -2 -10 -2 -9 -2 -9 -1 -9 -2 -8 -1 -7 -2 -7 -1 -7 0 -5 -1 -5 -1 -4 0 -4 0 0 -3 4 0 4 1 5 0 6 1 6 1 7 1 8 1 8 1 8 2 9 2 10 1 9 2 10 2 10 2 11 3 10 2 11 2 10 3 11 2 10 3 10 2 11 3 9 2 10 3 9 2 9 3 8 3 8 2 8 3 6 2 7 2 5 3 0 2zm0 -2l4 2 -4 0 0 -2zm-210 206l-3 0 0 -1 3 -10 3 -10 4 -10 3 -10 4 -10 4 -9 5 -9 4 -9 5 -8 5 -8 5 -8 6 -8 6 -7 6 -7 6 -7 6 -7 7 -6 7 -6 7 -6 8 -6 7 -5 8 -5 8 -5 9 -4 8 -4 9 -4 9 -4 10 -3 10 -3 10 -3 10 -2 10 -2 1 2 -11 2 -10 3 -10 3 -9 2 -10 4 -9 3 -9 4 -8 4 -8 5 -9 4 -7 5 -8 5 -7 6 -7 6 -7 6 -7 6 -6 6 -6 7 -6 7 -6 8 -5 7 -6 8 -5 8 -4 9 -5 8 -4 9 -4 9 -4 10 -4 10 -3 9 -3 11 -3 10 0 0zm-3 0l0 0 0 -1 0 1zm0 3l0 -3 3 0 0 3 -1 0 -2 0zm3 0l0 0 -1 0 1 0zm-9 3l0 -2 0 0 0 0 1 0 0 0 1 0 0 0 1 -1 0 0 0 0 1 0 0 0 0 0 0 0 1 0 0 0 0 0 0 0 0 0 1 -1 0 0 0 0 0 0 0 0 0 0 0 0 0 0 0 0 0 0 0 0 0 0 0 0 0 0 0 0 2 1 0 0 0 0 0 0 0 0 0 1 0 0 0 0 0 0 0 0 0 0 0 0 -1 0 0 1 0 0 0 0 0 0 -1 0 0 0 0 0 -1 0 0 1 0 0 -1 0 0 0 0 0 -1 0 0 0 -1 0 0 0 -1 0 0 0 -1 0 0 0zm-124 -2l124 0 0 2 -124 0 0 0 0 -2zm-8 9l-2 0 0 0 0 0 0 -1 0 0 0 -1 0 0 0 -1 0 0 1 0 0 -1 0 0 0 -1 1 0 0 0 0 -1 0 0 1 -1 0 0 0 0 1 0 0 -1 1 0 0 0 0 0 1 -1 0 0 1 0 0 0 1 0 0 0 1 0 0 0 1 0 0 2 -1 0 0 0 0 0 -1 0 0 0 -1 1 0 0 0 0 0 0 -1 0 0 0 0 0 -1 1 0 0 0 0 0 0 -1 1 0 0 0 0 0 0 -1 1 0 0 0 0 0 1 0 0 0 0 0 1 0 0 0 0 -1 1 0 0 0 0 0 0zm-2 3862l0 -3862 2 0 0 3862 0 0 -2 0zm10 7l0 2 0 0 -1 0 0 0 -1 0 0 0 -1 0 0 0 -1 0 0 -1 -1 0 0 0 0 0 -1 0 0 -1 -1 0 0 0 0 -1 -1 0 0 0 0 -1 0 0 -1 0 0 -1 0 0 0 -1 -1 0 0 -1 0 0 0 0 0 -1 0 0 0 -1 0 0 2 0 0 0 1 0 0 1 0 0 0 0 0 1 0 0 0 0 0 1 0 0 1 0 0 0 0 1 0 0 0 0 1 0 0 1 0 0 0 0 1 0 0 1 0 0 1 0 0 0 0 0 0 0 1 0 0 0 1 0 0 1 0 0 1 0 0 0zm0 0l0 0 0 0 0 0zm128 4l-128 -2 0 -2 128 2 0 2 0 0zm0 0l0 0 0 0 0 0zm9 2l-2 0 0 0 0 0 0 0 0 0 0 0 0 0 0 0 0 0 0 0 0 0 -1 0 0 0 0 0 0 0 0 0 0 0 0 -1 0 0 -1 0 0 0 0 0 0 0 -1 0 0 0 0 0 -1 0 0 0 0 0 -1 0 0 -1 -1 0 0 0 -1 0 0 -2 1 0 1 0 0 0 1 0 0 0 1 0 0 0 0 0 1 0 0 0 0 1 1 0 0 0 0 0 1 0 0 0 0 0 0 0 1 1 0 0 0 0 0 0 0 0 0 0 1 0 0 1 0 0 0 0 0 0 0 0 0 0 0 0 0 1zm0 -1l0 0 0 1 0 -1zm-2 3l0 -2 2 0 0 2 -2 1 0 -1zm0 1l0 -1 0 0 0 1zm200 196l-1 -2 0 2 -10 -2 -10 -3 -9 -3 -9 -3 -9 -3 -9 -4 -9 -4 -8 -4 -8 -4 -8 -4 -7 -5 -8 -5 -7 -5 -7 -5 -7 -6 -6 -6 -6 -6 -6 -6 -6 -7 -5 -7 -5 -7 -5 -7 -5 -8 -4 -8 -5 -8 -4 -9 -3 -9 -4 -9 -3 -9 -3 -10 -2 -10 -2 -10 2 -1 2 10 3 10 3 10 3 9 3 9 4 9 4 9 4 8 4 8 5 7 5 8 5 7 5 7 6 6 6 7 6 6 6 5 7 6 7 5 7 5 7 5 7 5 8 4 8 4 9 4 8 4 9 3 9 3 9 4 9 2 10 3 10 3 0 2zm0 -2l3 0 -3 2 0 -2zm-303 69l-2 0 1 -1 8 -1 9 -1 8 -1 9 0 9 -1 9 -2 10 -1 9 -1 10 -1 9 -2 10 -2 10 -1 9 -2 10 -2 10 -2 10 -2 10 -2 10 -2 10 -3 10 -2 10 -3 9 -2 10 -3 10 -3 10 -3 9 -3 10 -3 9 -3 10 -4 9 -3 9 -4 9 -3 1 2 -9 4 -9 3 -10 4 -9 3 -9 3 -10 4 -10 3 -9 3 -10 2 -10 3 -10 3 -10 2 -10 3 -10 2 -10 3 -10 2 -9 2 -10 2 -10 2 -10 1 -10 2 -9 2 -10 1 -10 1 -9 2 -9 1 -9 1 -9 1 -9 1 -9 1 -9 1 -8 0 1 -1zm-2 0l0 -1 1 0 -1 1zm-5 25l5 -25 2 0 -5 25 -2 0 0 0zm0 0l0 0 0 0 0 0zm2 75l-2 1 0 0 0 -2 -1 -2 0 -2 0 -3 0 -2 0 -2 0 -3 -1 -2 0 -2 0 -3 0 -2 0 -3 0 -2 0 -3 0 -3 0 -2 0 -3 0 -2 0 -3 0 -3 0 -2 0 -3 0 -2 0 -2 1 -3 0 -2 0 -3 0 -2 0 -2 0 -2 1 -2 0 -2 2 0 0 2 0 2 0 2 0 2 -1 3 0 2 0 2 0 3 0 2 0 3 0 2 0 3 0 2 0 3 0 2 0 3 0 2 0 3 0 3 0 2 0 3 0 2 0 3 0 2 0 2 0 3 0 2 1 2 0 2 0 2 0 2 0 2 0 0zm3 40l-5 -39 2 -1 5 40 -1 1 -1 -1zm1 1l-1 0 0 -1 1 1zm2323 0l-2323 0 0 -2 2323 0 1 1 -1 1zm1 -1l0 1 -1 0 1 -1zm2 -16l-2 16 -2 0 1 -16 3 0 0 0zm0 0l0 0 0 1 0 -1zm-2 -109l2 -1 0 0 0 3 1 4 0 3 0 3 0 3 0 4 0 3 1 4 0 3 0 4 0 3 0 4 0 3 0 4 0 4 0 3 0 4 0 4 0 3 0 4 0 3 -1 4 0 3 0 4 0 3 0 4 0 3 0 4 -1 3 0 3 0 3 0 3 -3 0 0 -3 1 -3 0 -3 0 -4 0 -3 0 -3 1 -4 0 -3 0 -4 0 -3 0 -4 0 -3 0 -4 0 -3 0 -4 0 -4 0 -3 0 -4 0 -4 0 -3 0 -4 0 -3 0 -4 0 -3 0 -4 0 -3 0 -3 -1 -4 0 -3 0 -3 0 -3 0 -4 0 1zm2 -1l0 0 0 0 0 0zm-2 -14l2 14 -2 1 -2 -14 1 -2 1 1zm-1 -1l1 0 0 1 -1 -1zm-76 -11l76 11 0 3 -77 -12 1 -2 0 0zm0 0l0 0 0 0 0 0zm-236 -57l1 3 0 -3 8 3 8 3 8 2 8 3 8 2 9 3 8 3 9 2 9 3 8 2 9 2 9 3 8 2 9 2 8 2 9 2 8 2 8 2 8 2 8 1 7 2 7 1 7 2 7 1 6 1 6 1 6 1 5 0 5 1 4 0 4 0 4 1 0 2 -4 0 -4 0 -4 -1 -5 0 -6 -1 -5 -1 -6 -1 -7 -1 -6 -1 -7 -1 -7 -2 -8 -1 -8 -2 -7 -2 -9 -1 -8 -2 -8 -2 -9 -2 -8 -3 -9 -2 -9 -2 -8 -3 -9 -2 -9 -2 -8 -3 -9 -2 -8 -3 -9 -3 -8 -2 -8 -3 -8 -3 -8 -2 0 -3zm0 3l-5 -2 5 -1 0 3zm210 -201l2 0 0 0 -2 12 -3 12 -4 11 -4 11 -4 11 -5 10 -5 10 -6 9 -5 9 -6 9 -7 8 -6 8 -7 7 -7 7 -7 7 -8 6 -7 6 -8 5 -8 5 -8 5 -8 5 -8 4 -8 4 -8 3 -8 3 -8 3 -8 3 -8 2 -8 2 -7 1 -8 2 -7 1 -1 -3 8 -1 7 -1 8 -2 8 -2 7 -2 8 -2 8 -3 8 -3 8 -4 8 -3 8 -4 8 -5 8 -5 8 -5 7 -5 8 -6 7 -6 7 -7 7 -7 7 -7 6 -8 7 -8 6 -8 5 -9 6 -9 5 -10 4 -10 5 -10 4 -11 3 -12 3 -11 3 -12 0 0zm2 0l0 0 0 0 0 0zm0 -3l0 3 -2 0 0 -3 2 -1 0 1zm0 -1l0 1 0 0 0 -1zm4 -3l0 3 0 0 -1 0 0 0 -1 0 0 0 0 0 -1 0 0 0 0 0 0 0 -1 0 0 0 0 1 0 0 0 0 0 0 0 0 0 0 0 0 0 0 0 0 0 -1 0 1 0 -1 0 0 0 0 0 0 0 1 0 -1 0 0 0 0 0 1 0 -1 -2 2 0 -1 0 1 0 0 0 -1 0 0 0 0 0 0 0 0 0 0 0 0 0 -1 0 0 0 0 0 0 0 -1 0 0 0 0 0 0 1 0 0 -1 0 0 0 0 1 0 0 0 0 0 1 0 0 0 1 0 0 -1 1 0 0 0 1 0 0 0zm0 0l0 0 0 0 0 0zm124 4l-124 -1 0 -3 124 2 0 2 0 0zm0 0l0 0 0 0 0 0zm8 -9l2 0 0 0 0 0 0 1 0 0 0 1 0 0 0 0 0 1 -1 0 0 1 0 0 0 1 -1 0 0 0 0 1 0 0 -1 0 0 1 0 0 -1 0 0 1 -1 0 0 0 0 0 -1 0 0 1 -1 0 0 0 -1 0 0 0 -1 0 0 0 -1 0 0 -2 1 0 0 0 0 -1 1 0 0 0 1 0 0 0 0 0 1 0 0 0 0 0 0 -1 1 0 0 0 0 0 0 -1 1 0 0 0 0 0 0 -1 1 0 0 0 0 0 0 -1 0 0 0 0 0 -1 0 0 0 0 1 -1 0 0 0 0 0 0zm2 -3865l0 3865 -2 0 0 -3865 2 0zm-10 -7l0 -2 0 0 1 0 0 0 1 0 0 0 1 0 0 0 1 0 0 1 1 0 0 0 0 0 1 0 0 1 1 0 0 0 0 1 1 0 0 0 0 1 0 0 1 0 0 1 0 0 0 1 1 0 0 0 0 1 0 0 0 1 0 0 0 1 0 0 -2 0 0 0 0 0 -1 -1 0 0 0 0 0 -1 0 0 0 0 0 -1 0 0 0 0 -1 -1 0 0 0 0 0 0 0 -1 -1 0 0 0 0 0 -1 0 0 -1 0 0 0 0 -1 0 0 0 0 0 -1 0 0 0 0 -1 -1 0 0 0 -1 0 0 0zm0 -2l0 0 0 0 0 0z"/>
   </g>
   <g>
    <path class="fil0" d="M871 2724l0 -3 0 0 1 0 1 0 2 0 1 0 1 -1 1 0 2 -1 1 0 1 -1 1 0 1 -1 1 0 1 -1 1 -1 1 -1 1 -1 1 0 1 -1 1 -1 1 -1 0 -1 1 -1 1 -2 0 -1 1 -1 0 -1 0 -1 1 -2 0 -1 0 -1 0 -1 0 -2 3 0 0 2 0 1 -1 2 0 1 0 1 -1 2 0 1 -1 1 0 2 -1 1 -1 1 0 1 -1 1 -1 1 -1 1 -1 1 -1 1 -1 1 -1 1 -1 1 -1 1 -2 0 -1 1 -1 0 -1 1 -2 0 -1 1 -2 0 -1 0 -1 0 -2 1 -1 0 0 0zm0 0l0 0 0 0 0 0zm-30 -29l3 0 0 0 0 2 0 1 0 1 1 1 0 2 0 1 1 1 0 1 1 1 0 2 1 1 1 1 0 1 1 1 1 1 1 0 1 1 1 1 1 1 1 1 1 0 1 1 1 0 1 1 1 0 2 1 1 0 1 1 2 0 1 0 1 0 2 0 0 3 -2 0 -1 -1 -2 0 -1 0 -2 0 -1 -1 -1 0 -2 -1 -1 0 -1 -1 -1 0 -2 -1 -1 -1 -1 -1 -1 -1 -1 -1 -1 -1 -1 -1 -1 -1 -1 -1 0 -1 -1 -1 -1 -1 0 -2 -1 -1 0 -1 -1 -2 0 -1 0 -1 0 -2 0 -1 -1 -2 0 0zm3 -224l0 224 -3 0 1 -224 2 0zm27 -28l0 3 0 0 -2 0 -1 0 -1 0 -2 0 -1 0 -1 1 -2 0 -1 1 -1 0 -1 1 -1 0 -1 1 -1 1 -1 0 -1 1 -1 1 -1 1 -1 1 -1 1 0 1 -1 1 -1 1 0 1 -1 1 0 1 -1 2 0 1 0 1 -1 1 0 2 0 1 0 1 -2 0 0 -1 0 -2 0 -1 0 -1 0 -2 1 -1 0 -1 1 -2 0 -1 1 -1 1 -1 0 -2 1 -1 1 -1 1 -1 1 -1 1 -1 1 -1 1 0 1 -1 2 -1 1 -1 1 0 1 -1 2 0 1 -1 1 0 2 0 1 -1 2 0 1 0 2 0 0 0zm0 3l0 0 0 0 0 0zm20 5l-2 2 0 0 0 0 -1 -1 0 0 -1 -1 0 0 -1 0 0 -1 -1 0 0 0 -1 -1 0 0 -1 0 0 -1 -1 0 0 0 -1 0 -1 -1 0 0 -1 0 -1 0 0 0 -1 -1 0 0 -1 0 -1 0 0 0 -1 0 -1 0 0 0 -1 0 -1 0 0 0 0 -3 0 0 1 0 1 0 1 0 0 0 1 0 1 0 0 1 1 0 1 0 1 0 0 0 1 0 1 1 0 0 1 0 1 0 0 1 1 0 0 0 1 1 1 0 0 0 1 1 0 0 1 1 1 0 0 0 1 1 0 0 1 1 0 0 0 0zm-2 2l0 0 0 0 0 0zm11 18l-3 0 0 0 0 0 0 -1 0 -1 0 0 0 -1 0 -1 0 0 0 -1 -1 -1 0 0 0 -1 0 0 0 -1 0 -1 -1 0 0 -1 0 0 0 -1 -1 0 0 -1 0 -1 -1 0 0 -1 0 0 -1 -1 0 0 -1 -1 0 0 0 -1 -1 0 0 0 -1 -1 2 -2 1 1 0 0 1 1 0 0 0 1 1 0 0 1 1 0 0 1 0 1 1 0 0 1 1 0 0 1 0 1 0 0 1 1 0 1 0 0 0 1 1 1 0 0 0 1 0 1 0 0 0 1 0 1 1 0 0 1 0 1 0 1 0 0 0 0zm-3 224l0 -224 3 0 0 224 0 0 -3 0z"/>
   </g>
   <g>
    <path class="fil0" d="M872 2286l0 -2 0 0 2 0 1 -1 1 0 1 0 2 0 1 -1 1 0 1 0 1 -1 1 0 1 -1 1 -1 1 0 1 -1 1 -1 1 0 1 -1 0 -1 1 -1 1 -1 1 -1 0 -1 1 -1 0 -1 1 -1 0 -1 0 -1 1 -2 0 -1 0 -1 0 -1 0 -1 3 0 0 1 0 1 -1 2 0 1 0 1 -1 2 0 1 0 1 -1 1 -1 1 0 1 -1 1 -1 2 -1 1 0 0 -1 1 -1 1 -1 1 -1 1 -1 1 -1 0 -2 1 -1 1 -1 0 -1 1 -1 0 -2 0 -1 1 -1 0 -2 0 -1 0 -2 0 0 0zm0 0l0 0 0 0 0 0zm-3 -2l3 0 0 2 -3 0 0 -2zm0 0l0 0 0 0 0 0zm-28 -24l3 0 0 0 0 1 0 1 0 1 1 1 0 2 0 1 1 1 0 1 0 1 1 1 1 1 0 1 1 1 1 1 0 1 1 1 1 0 1 1 1 1 1 0 1 1 1 1 1 0 1 1 1 0 1 0 2 1 1 0 1 0 1 0 1 1 2 0 0 2 -2 0 -1 0 -1 0 -2 0 -1 -1 -1 0 -2 0 -1 -1 -1 0 -1 -1 -1 -1 -1 0 -2 -1 -1 -1 -1 -1 0 -1 -1 -1 -1 0 -1 -1 -1 -1 -1 -2 0 -1 -1 -1 0 -1 -1 -1 0 -1 -1 -2 0 -1 0 -1 0 -2 0 -1 -1 -1 0 0zm3 -561l0 561 -3 0 1 -561 2 0zm25 -26l0 2 0 0 -2 0 -1 0 -1 0 -1 1 -1 0 -2 0 -1 1 -1 0 -1 1 -1 0 -1 1 -1 0 -1 1 -1 1 -1 0 -1 1 -1 1 0 1 -1 1 -1 1 0 1 -1 1 0 1 -1 1 0 1 -1 1 0 1 0 1 -1 1 0 2 0 1 0 1 -2 0 0 -1 0 -2 0 -1 0 -1 0 -2 1 -1 0 -1 1 -1 0 -1 1 -2 0 -1 1 -1 1 -1 1 -1 1 -1 0 -1 1 -1 1 0 1 -1 2 -1 1 -1 1 0 1 -1 1 0 1 -1 2 0 1 -1 1 0 2 0 1 0 1 0 2 0 0 0zm0 2l0 0 0 0 0 0zm4 0l-4 0 0 -2 4 0 0 0 0 2zm0 -2l0 0 0 0 0 0zm27 26l-3 0 0 0 0 -1 0 -1 0 -2 0 -1 -1 -1 0 -1 0 -1 -1 -1 0 -1 -1 -1 0 -1 -1 -1 -1 -1 -1 -1 0 -1 -1 -1 -1 -1 -1 0 -1 -1 -1 -1 -1 0 -1 -1 -1 -1 -1 0 -1 0 -1 -1 -1 0 -2 0 -1 -1 -1 0 -1 0 -1 0 0 -2 1 0 1 0 2 0 1 0 1 0 2 1 1 0 1 1 1 0 1 1 2 0 1 1 1 1 1 1 1 0 1 1 1 1 0 1 1 1 1 1 1 1 0 1 1 2 1 1 0 1 0 1 1 1 0 2 0 1 1 1 0 2 0 1 0 0zm-3 561l0 -561 3 0 0 561 0 0 -3 0z"/>
   </g>
   <g>
    <path class="fil0" d="M1249 5243l3 0 0 0 0 2 0 1 0 2 0 1 1 2 0 1 1 1 0 2 1 1 0 1 1 2 1 1 1 1 1 1 1 1 1 1 1 1 1 1 1 1 1 1 1 0 2 1 1 1 1 0 2 1 1 0 1 1 2 0 1 0 2 1 1 0 2 0 0 2 -2 0 -1 0 -2 0 -2 0 -1 -1 -2 0 -1 -1 -2 0 -1 -1 -2 -1 -1 0 -1 -1 -2 -1 -1 -1 -1 -1 -1 -1 -1 -1 -1 -1 -1 -2 -1 -1 -1 -1 -1 -1 -1 -2 0 -1 -1 -2 0 -1 -1 -2 0 -1 0 -2 -1 -1 0 -2 0 -2 0 0zm33 -32l0 3 0 0 -2 0 -1 0 -2 0 -1 0 -2 1 -1 0 -1 1 -2 0 -1 1 -1 0 -2 1 -1 1 -1 1 -1 1 -1 0 -1 1 -1 1 -1 2 -1 1 -1 1 -1 1 -1 1 0 2 -1 1 0 1 -1 2 0 1 -1 1 0 2 0 1 0 2 0 1 -3 0 0 -1 0 -2 1 -2 0 -1 0 -2 1 -1 0 -2 1 -1 0 -2 1 -1 1 -1 1 -2 1 -1 1 -1 1 -1 1 -1 1 -1 1 -1 1 -1 2 -1 1 -1 1 -1 2 -1 1 0 2 -1 1 0 2 -1 1 0 2 0 2 -1 1 0 2 0 0 0zm33 32l-3 0 0 0 0 -1 0 -2 0 -1 0 -2 -1 -1 0 -1 -1 -2 0 -1 -1 -1 0 -2 -1 -1 -1 -1 -1 -1 -1 -1 -1 -2 -1 -1 -1 -1 -1 0 -1 -1 -1 -1 -1 -1 -2 -1 -1 0 -1 -1 -2 0 -1 -1 -1 0 -2 -1 -1 0 -2 0 -1 0 -2 0 0 -3 2 0 1 0 2 1 2 0 1 0 2 1 1 0 2 1 1 0 2 1 1 1 1 1 2 1 1 1 1 1 1 1 1 1 1 1 1 1 1 1 1 2 1 1 1 1 0 2 1 1 0 2 1 1 0 2 0 1 1 2 0 2 0 1 0 0zm-33 32l0 -2 0 0 2 0 1 0 2 -1 1 0 2 0 1 -1 1 0 2 -1 1 0 1 -1 2 -1 1 0 1 -1 1 -1 1 -1 1 -1 1 -1 1 -1 1 -1 1 -1 1 -1 1 -2 0 -1 1 -1 0 -2 1 -1 0 -1 1 -2 0 -1 0 -2 0 -1 0 -2 3 0 0 2 0 2 -1 1 0 2 0 1 -1 2 0 1 -1 2 0 1 -1 2 -1 1 -1 1 -1 1 -1 2 -1 1 -1 1 -1 1 -1 1 -1 1 -2 1 -1 1 -1 0 -2 1 -1 1 -2 0 -1 1 -2 0 -1 1 -2 0 -2 0 -1 0 -2 0 0 0z"/>
   </g>
   <g>
    <path class="fil0" d="M1336 5243l3 0 0 0 0 2 0 1 0 2 1 1 0 2 0 1 1 1 0 2 1 1 1 1 0 2 1 1 1 1 1 1 1 1 1 1 1 1 1 1 1 1 1 1 2 0 1 1 1 1 1 0 2 1 1 0 2 1 1 0 2 0 1 1 2 0 1 0 0 2 -1 0 -2 0 -2 0 -1 0 -2 -1 -2 0 -1 -1 -2 0 -1 -1 -1 -1 -2 0 -1 -1 -1 -1 -2 -1 -1 -1 -1 -1 -1 -1 -1 -1 -1 -2 -1 -1 -1 -1 -1 -1 0 -2 -1 -1 -1 -2 0 -1 -1 -2 0 -1 0 -2 0 -1 -1 -2 0 -2 0 0zm33 -32l0 3 0 0 -1 0 -2 0 -1 0 -2 0 -1 1 -2 0 -1 1 -2 0 -1 1 -1 0 -1 1 -2 1 -1 1 -1 1 -1 0 -1 1 -1 1 -1 2 -1 1 -1 1 -1 1 0 1 -1 2 -1 1 0 1 -1 2 0 1 0 1 -1 2 0 1 0 2 0 1 -3 0 0 -1 1 -2 0 -2 0 -1 0 -2 1 -1 0 -2 1 -1 1 -2 0 -1 1 -1 1 -2 1 -1 1 -1 1 -1 1 -1 1 -1 1 -1 2 -1 1 -1 1 -1 2 -1 1 -1 1 0 2 -1 1 0 2 -1 2 0 1 0 2 -1 2 0 1 0 0 0zm33 32l-3 0 0 0 0 -1 0 -2 0 -1 0 -2 -1 -1 0 -1 0 -2 -1 -1 -1 -1 0 -2 -1 -1 -1 -1 -1 -1 0 -1 -1 -2 -1 -1 -1 -1 -2 0 -1 -1 -1 -1 -1 -1 -1 -1 -2 0 -1 -1 -1 0 -2 -1 -1 0 -2 -1 -1 0 -2 0 -1 0 -2 0 0 -3 2 0 2 0 1 1 2 0 1 0 2 1 1 0 2 1 1 0 2 1 1 1 2 1 1 1 1 1 1 1 1 1 1 1 1 1 1 1 1 1 1 2 1 1 1 1 0 2 1 1 0 2 1 1 0 2 1 1 0 2 0 2 0 1 0 0zm-33 32l0 -2 0 0 2 0 1 0 2 -1 1 0 2 0 1 -1 2 0 1 -1 1 0 2 -1 1 -1 1 0 1 -1 1 -1 2 -1 1 -1 1 -1 1 -1 0 -1 1 -1 1 -1 1 -2 0 -1 1 -1 1 -2 0 -1 0 -1 1 -2 0 -1 0 -2 0 -1 0 -2 3 0 0 2 0 2 0 1 -1 2 0 1 -1 2 0 1 -1 2 0 1 -1 2 -1 1 -1 1 -1 1 -1 2 -1 1 -1 1 -1 1 -1 1 -1 1 -1 1 -2 1 -1 0 -2 1 -1 1 -2 0 -1 1 -2 0 -1 1 -2 0 -1 0 -2 0 -2 0 0 0z"/>
   </g>
   <g>
    <path class="fil0" d="M1097 1705l2 0 0 0 0 9 1 9 1 8 2 9 2 8 2 8 3 8 3 8 3 8 4 7 4 7 4 7 5 7 5 6 6 7 6 6 6 5 6 6 6 5 7 5 7 4 8 4 7 4 8 4 8 3 8 2 9 3 9 2 8 1 9 1 10 1 9 0 0 3 -10 0 -9 -1 -9 -1 -9 -2 -9 -2 -8 -2 -9 -3 -8 -3 -8 -3 -7 -4 -8 -5 -7 -4 -7 -5 -7 -5 -6 -6 -6 -5 -6 -7 -6 -6 -5 -7 -5 -6 -4 -7 -4 -8 -4 -7 -4 -8 -3 -8 -3 -8 -2 -8 -2 -9 -1 -8 -1 -9 -1 -9 0 -9 0 0zm2 -426l0 426 -2 0 0 -426 2 0zm176 -175l0 2 0 0 -9 1 -10 0 -9 1 -8 2 -9 2 -9 2 -8 3 -8 3 -8 3 -7 4 -8 4 -7 5 -7 5 -6 5 -6 5 -6 6 -6 6 -6 6 -5 7 -5 6 -4 7 -4 8 -4 7 -3 8 -3 8 -3 8 -2 8 -2 8 -2 9 -1 8 -1 9 0 9 -2 0 0 -9 1 -9 1 -9 1 -8 2 -9 2 -8 3 -8 3 -8 4 -8 4 -8 4 -7 4 -7 5 -7 5 -6 6 -7 6 -6 6 -6 6 -5 7 -5 7 -5 7 -5 8 -4 7 -4 8 -3 8 -4 9 -2 8 -3 9 -2 9 -1 9 -1 9 -1 10 0 0 0zm178 175l-2 0 0 0 -1 -9 0 -9 -1 -8 -2 -9 -2 -8 -2 -8 -3 -8 -3 -8 -3 -8 -4 -7 -4 -8 -5 -7 -4 -6 -6 -7 -5 -6 -6 -6 -6 -6 -6 -5 -7 -5 -7 -5 -7 -5 -7 -4 -8 -4 -7 -3 -8 -3 -9 -3 -8 -2 -9 -2 -9 -2 -9 -1 -9 0 -9 -1 0 -2 9 0 10 1 9 1 9 1 8 2 9 3 8 2 9 4 7 3 8 4 8 4 7 5 7 5 7 5 6 5 6 6 6 6 5 7 6 6 4 7 5 7 4 7 4 8 4 8 3 8 2 8 3 8 2 9 1 8 1 9 1 9 0 9 0 0zm-2 426l0 -426 2 0 0 426 0 0 -2 0zm-176 175l0 -3 0 0 9 0 9 -1 9 -1 9 -1 9 -2 8 -3 9 -2 8 -3 7 -4 8 -4 7 -4 7 -4 7 -5 7 -5 6 -6 6 -5 6 -6 5 -7 6 -6 4 -7 5 -7 4 -7 4 -7 3 -8 3 -8 3 -8 2 -8 2 -8 2 -9 1 -9 0 -8 1 -9 2 0 0 9 -1 9 -1 8 -1 9 -2 9 -3 8 -2 8 -3 8 -4 8 -4 7 -4 8 -5 7 -4 6 -6 7 -5 6 -6 7 -6 5 -6 6 -7 5 -7 5 -7 4 -8 5 -8 4 -7 3 -9 3 -8 3 -9 2 -8 2 -9 2 -9 1 -10 1 -9 0 0 0z"/>
   </g>
   <g>
    <path class="fil0" d="M1424 5243l3 0 0 0 0 2 0 1 0 2 0 1 0 2 1 1 0 1 1 2 0 1 1 1 1 2 1 1 1 1 0 1 1 1 1 1 1 1 1 1 2 1 1 1 1 0 1 1 2 1 1 0 1 1 2 0 1 1 2 0 1 0 2 1 1 0 2 0 0 2 -2 0 -2 0 -1 0 -2 0 -1 -1 -2 0 -2 -1 -1 0 -1 -1 -2 -1 -1 0 -2 -1 -1 -1 -1 -1 -1 -1 -1 -1 -2 -1 -1 -1 -1 -2 0 -1 -1 -1 -1 -1 -1 -2 0 -1 -1 -2 -1 -1 0 -2 0 -1 -1 -2 0 -1 0 -2 0 -2 0 0zm33 -32l0 3 0 0 -2 0 -1 0 -2 0 -1 0 -2 1 -1 0 -2 1 -1 0 -1 1 -2 0 -1 1 -1 1 -1 1 -2 1 -1 0 -1 1 -1 1 -1 2 -1 1 0 1 -1 1 -1 1 -1 2 0 1 -1 1 0 2 -1 1 0 1 0 2 0 1 0 2 0 1 -3 0 0 -1 0 -2 0 -2 1 -1 0 -2 0 -1 1 -2 1 -1 0 -2 1 -1 1 -1 1 -2 0 -1 1 -1 1 -1 2 -1 1 -1 1 -1 1 -1 1 -1 2 -1 1 -1 2 -1 1 0 1 -1 2 0 2 -1 1 0 2 0 1 -1 2 0 2 0 0 0zm32 32l-2 0 0 0 0 -1 0 -2 0 -1 -1 -2 0 -1 -1 -1 0 -2 -1 -1 0 -1 -1 -2 -1 -1 0 -1 -1 -1 -1 -1 -1 -2 -1 -1 -1 -1 -1 0 -1 -1 -1 -1 -2 -1 -1 -1 -1 0 -2 -1 -1 0 -1 -1 -2 0 -1 -1 -2 0 -1 0 -2 0 -1 0 0 -3 1 0 2 0 2 1 1 0 2 0 1 1 2 0 1 1 2 0 1 1 2 1 1 1 1 1 1 1 2 1 1 1 1 1 1 1 1 1 1 1 1 2 0 1 1 1 1 2 0 1 1 2 0 1 1 2 0 1 0 2 0 2 0 1 0 0zm-32 32l0 -2 0 0 1 0 2 0 1 -1 2 0 1 0 2 -1 1 0 1 -1 2 0 1 -1 1 -1 2 0 1 -1 1 -1 1 -1 1 -1 1 -1 1 -1 1 -1 1 -1 0 -1 1 -2 1 -1 0 -1 1 -2 0 -1 1 -1 0 -2 1 -1 0 -2 0 -1 0 -2 2 0 0 2 0 2 0 1 0 2 -1 1 0 2 -1 1 0 2 -1 1 -1 2 0 1 -1 1 -1 1 -1 2 -1 1 -1 1 -1 1 -2 1 -1 1 -1 1 -1 1 -2 0 -1 1 -2 1 -1 0 -2 1 -1 0 -2 1 -1 0 -2 0 -2 0 -1 0 0 0z"/>
   </g>
   <g>
    <path class="fil0" d="M1512 5243l2 0 0 0 0 2 1 1 0 2 0 1 0 2 1 1 0 1 1 2 0 1 1 1 1 2 1 1 0 1 1 1 1 1 1 1 1 1 1 1 2 1 1 1 1 0 1 1 2 1 1 0 1 1 2 0 1 1 2 0 1 0 2 1 1 0 2 0 0 2 -2 0 -2 0 -1 0 -2 0 -2 -1 -1 0 -2 -1 -1 0 -2 -1 -1 -1 -1 0 -2 -1 -1 -1 -1 -1 -1 -1 -2 -1 -1 -1 -1 -1 -1 -2 -1 -1 0 -1 -1 -1 -1 -2 -1 -1 0 -2 -1 -1 0 -2 -1 -1 0 -2 0 -1 0 -2 0 -2 0 0zm33 -32l0 3 0 0 -2 0 -1 0 -2 0 -1 0 -2 1 -1 0 -2 1 -1 0 -1 1 -2 0 -1 1 -1 1 -1 1 -2 1 -1 0 -1 1 -1 1 -1 2 -1 1 0 1 -1 1 -1 1 -1 2 0 1 -1 1 0 2 -1 1 0 1 0 2 0 1 -1 2 0 1 -2 0 0 -1 0 -2 0 -2 0 -1 1 -2 0 -1 1 -2 0 -1 1 -2 1 -1 1 -1 0 -2 1 -1 1 -1 1 -1 1 -1 2 -1 1 -1 1 -1 1 -1 2 -1 1 -1 1 -1 2 0 1 -1 2 0 1 -1 2 0 2 0 1 -1 2 0 2 0 0 0zm32 32l-2 0 0 0 0 -1 0 -2 -1 -1 0 -2 0 -1 -1 -1 0 -2 -1 -1 0 -1 -1 -2 -1 -1 0 -1 -1 -1 -1 -1 -1 -2 -1 -1 -1 -1 -1 0 -1 -1 -2 -1 -1 -1 -1 -1 -1 0 -2 -1 -1 0 -1 -1 -2 0 -1 -1 -2 0 -1 0 -2 0 -1 0 0 -3 1 0 2 0 2 1 1 0 2 0 1 1 2 0 1 1 2 0 1 1 2 1 1 1 1 1 1 1 2 1 1 1 1 1 1 1 1 1 1 1 1 2 0 1 1 1 1 2 0 1 1 2 0 1 1 2 0 1 0 2 0 2 0 1 0 0zm-32 32l0 -2 0 0 1 0 2 0 1 -1 2 0 1 0 2 -1 1 0 1 -1 2 0 1 -1 1 -1 1 0 2 -1 1 -1 1 -1 1 -1 1 -1 1 -1 1 -1 1 -1 0 -1 1 -2 1 -1 0 -1 1 -2 0 -1 1 -1 0 -2 0 -1 1 -2 0 -1 0 -2 2 0 0 2 0 2 0 1 0 2 -1 1 0 2 -1 1 0 2 -1 1 -1 2 0 1 -1 1 -1 1 -1 2 -1 1 -1 1 -1 1 -2 1 -1 1 -1 1 -1 1 -2 0 -1 1 -2 1 -1 0 -2 1 -1 0 -2 1 -1 0 -2 0 -2 0 -1 0 0 0z"/>
   </g>
   <g>
    <path class="fil0" d="M1595 5243l3 0 0 0 0 2 0 1 0 2 0 1 1 2 0 1 0 1 1 2 1 1 0 1 1 2 1 1 1 1 1 1 1 1 1 1 1 1 1 1 1 1 1 1 1 0 1 1 2 1 1 0 1 1 2 0 1 1 2 0 1 0 2 1 1 0 2 0 0 2 -2 0 -1 0 -2 0 -2 0 -1 -1 -2 0 -1 -1 -2 0 -1 -1 -2 -1 -1 0 -1 -1 -2 -1 -1 -1 -1 -1 -1 -1 -1 -1 -1 -1 -1 -2 -1 -1 -1 -1 -1 -1 -1 -2 0 -1 -1 -2 0 -1 -1 -2 0 -1 -1 -2 0 -1 0 -2 0 -2 0 0zm33 -32l0 3 0 0 -2 0 -1 0 -2 0 -1 0 -2 1 -1 0 -2 1 -1 0 -1 1 -2 0 -1 1 -1 1 -1 1 -1 1 -1 0 -1 1 -1 1 -1 2 -1 1 -1 1 -1 1 -1 1 0 2 -1 1 0 1 -1 2 0 1 -1 1 0 2 0 1 0 2 0 1 -3 0 0 -1 0 -2 0 -2 1 -1 0 -2 1 -1 0 -2 1 -1 0 -2 1 -1 1 -1 1 -2 1 -1 1 -1 1 -1 1 -1 1 -1 1 -1 1 -1 2 -1 1 -1 1 -1 2 -1 1 0 2 -1 1 0 2 -1 1 0 2 0 2 -1 1 0 2 0 0 0zm33 32l-3 0 0 0 0 -1 0 -2 0 -1 -1 -2 0 -1 0 -1 -1 -2 0 -1 -1 -1 -1 -2 0 -1 -1 -1 -1 -1 -1 -1 -1 -2 -1 -1 -1 -1 -1 0 -1 -1 -1 -1 -1 -1 -2 -1 -1 0 -1 -1 -2 0 -1 -1 -2 0 -1 -1 -2 0 -1 0 -2 0 -1 0 0 -3 2 0 1 0 2 1 1 0 2 0 2 1 1 0 2 1 1 0 1 1 2 1 1 1 1 1 2 1 1 1 1 1 1 1 1 1 1 1 1 1 1 2 1 1 0 1 1 2 1 1 0 2 1 1 0 2 0 1 0 2 1 2 0 1 0 0zm-33 32l0 -2 0 0 1 0 2 0 1 -1 2 0 1 0 2 -1 1 0 2 -1 1 0 1 -1 2 -1 1 0 1 -1 1 -1 1 -1 1 -1 1 -1 1 -1 1 -1 1 -1 1 -1 0 -2 1 -1 1 -1 0 -2 1 -1 0 -1 0 -2 1 -1 0 -2 0 -1 0 -2 3 0 0 2 -1 2 0 1 0 2 0 1 -1 2 0 1 -1 2 -1 1 0 2 -1 1 -1 1 -1 1 -1 2 -1 1 -1 1 -1 1 -1 1 -2 1 -1 1 -1 1 -2 0 -1 1 -1 1 -2 0 -1 1 -2 0 -2 1 -1 0 -2 0 -1 0 -2 0 0 0z"/>
   </g>
   <g>
    <path class="fil0" d="M1546 768l2 0 0 0 0 3 1 3 0 3 0 3 1 3 1 3 1 2 1 3 1 3 2 2 1 3 2 2 1 3 2 2 2 2 2 2 2 2 2 2 2 2 3 2 2 1 3 2 2 1 3 1 3 1 3 1 2 1 3 1 3 0 3 1 3 0 4 0 0 3 -4 -1 -3 0 -3 0 -3 -1 -3 0 -3 -1 -3 -1 -3 -1 -3 -2 -2 -1 -3 -2 -3 -1 -2 -2 -2 -2 -3 -2 -2 -2 -2 -2 -2 -2 -2 -3 -2 -2 -1 -3 -2 -2 -1 -3 -1 -3 -2 -3 -1 -3 0 -3 -1 -3 -1 -3 0 -3 0 -3 0 -3 0 0zm63 -63l0 2 0 0 -4 0 -3 1 -3 0 -3 0 -3 1 -2 1 -3 1 -3 1 -3 1 -2 2 -3 1 -2 2 -3 1 -2 2 -2 2 -2 2 -2 2 -2 2 -2 3 -1 2 -2 2 -1 3 -2 2 -1 3 -1 3 -1 3 -1 3 -1 2 0 3 0 3 -1 4 0 3 -2 0 0 -4 0 -3 0 -3 1 -3 1 -3 0 -3 1 -3 2 -3 1 -3 1 -2 2 -3 1 -3 2 -2 2 -2 2 -3 2 -2 2 -2 3 -2 2 -2 2 -2 3 -1 3 -2 2 -1 3 -1 3 -2 3 -1 3 0 3 -1 3 -1 3 0 3 0 4 0 0 0zm63 63l-3 0 0 0 0 -3 0 -4 -1 -3 0 -3 -1 -2 -1 -3 -1 -3 -1 -3 -1 -3 -1 -2 -2 -3 -1 -2 -2 -2 -2 -3 -2 -2 -2 -2 -2 -2 -2 -2 -2 -2 -3 -1 -2 -2 -3 -1 -2 -2 -3 -1 -3 -1 -2 -1 -3 -1 -3 -1 -3 0 -3 0 -3 -1 -3 0 0 -2 3 0 3 0 3 0 3 1 3 1 3 0 3 1 3 2 3 1 3 1 2 2 3 1 2 2 3 2 2 2 2 2 2 2 2 3 2 2 2 2 1 3 2 3 1 2 2 3 1 3 1 3 1 3 0 3 1 3 0 3 0 3 1 4 0 0zm-63 63l0 -3 0 0 3 0 3 0 3 -1 3 0 3 -1 3 -1 2 -1 3 -1 3 -1 2 -1 3 -2 2 -1 3 -2 2 -2 2 -2 2 -2 2 -2 2 -2 2 -2 2 -3 1 -2 2 -3 1 -2 1 -3 1 -3 1 -2 1 -3 1 -3 0 -3 1 -3 0 -3 0 -3 3 0 -1 3 0 3 0 3 -1 3 0 3 -1 3 -1 3 -1 3 -2 3 -1 3 -2 2 -1 3 -2 2 -2 3 -2 2 -2 2 -2 2 -2 2 -3 2 -2 2 -3 1 -2 2 -3 1 -3 2 -3 1 -3 1 -3 1 -3 0 -3 1 -3 0 -3 0 -3 1 0 0z"/>
   </g>
   <g>
    <path class="fil0" d="M2105 5256l-1 -1 0 0 0 -1 0 0 0 0 0 0 0 0 0 0 0 0 0 0 0 -1 1 0 0 0 0 0 0 0 0 0 0 -1 0 0 0 0 0 0 0 0 0 0 0 -1 0 0 0 0 0 0 0 0 1 0 0 -1 0 0 0 0 0 0 0 0 0 0 2 0 0 0 0 0 0 0 0 1 0 0 0 0 0 0 0 0 0 1 0 0 0 0 0 0 0 1 0 0 0 0 -1 0 0 1 0 0 0 0 0 0 0 0 0 1 0 0 0 0 -1 0 0 0 0 1 0 0 0 0 0 0 -1 0 0 0 0 0zm0 0l0 0 0 0 0 0zm-20 17l19 -18 1 1 -18 19 0 0 -2 -2zm2 2l0 0 0 0 0 0zm-7 3l0 -3 0 0 0 0 0 0 0 0 0 0 1 0 0 0 0 0 0 0 0 0 0 0 1 0 0 0 0 0 0 0 0 -1 0 0 1 0 0 0 0 0 0 0 0 0 0 0 1 0 0 0 0 0 0 0 0 -1 0 0 0 0 1 0 0 0 0 0 2 2 -1 0 0 0 0 0 0 0 0 0 0 1 -1 0 0 0 0 0 0 0 0 0 -1 0 0 0 0 1 0 0 -1 0 0 0 0 0 0 0 0 0 -1 0 0 0 0 0 0 0 -1 0 0 0 0 0 0 0 -1 0 0 1 0 0 0 0 0 0zm-158 -3l158 0 0 3 -158 0 0 -3zm-7 0l2 -2 0 0 0 0 0 0 0 0 1 0 0 0 0 1 0 0 0 0 0 0 0 0 1 0 0 0 0 0 0 0 0 0 0 0 1 0 0 1 0 0 0 0 0 0 0 0 1 0 0 0 0 0 0 0 0 0 0 0 1 0 0 0 0 0 0 0 0 3 0 0 0 0 -1 -1 0 0 0 0 0 0 -1 0 0 0 0 0 0 0 0 0 -1 0 0 0 0 0 0 0 -1 0 0 0 0 0 0 -1 0 0 -1 0 0 0 0 0 0 0 0 0 -1 0 0 -1 0 0 0 0 0 0 -1 0 0 0 0 0zm0 0l0 0 0 0 0 0zm-17 -20l19 18 -2 2 -18 -19 0 0 1 -1zm-1 1l0 0 0 0 0 0zm-3 -6l2 0 0 0 0 0 0 0 0 0 0 0 0 0 0 1 0 0 0 0 0 0 0 0 1 0 0 1 0 0 0 0 0 0 0 0 0 0 0 1 0 0 0 0 0 0 0 0 0 0 0 1 1 0 0 0 0 0 0 0 0 0 0 0 0 0 0 1 -1 1 -1 0 0 0 0 0 0 0 0 0 0 -1 -1 0 0 0 0 0 0 0 0 -1 0 0 0 0 0 0 0 0 -1 -1 0 0 0 0 0 0 0 -1 0 0 0 0 0 0 0 -1 0 0 0 0 0 0 0 0 0 -1 0 0 0 0 0 0 0 0zm2 -33l0 33 -2 0 0 -33 2 0zm14 -17l0 3 0 0 0 0 -1 0 -1 0 0 0 -1 0 -1 1 0 0 -1 0 -1 0 0 1 -1 0 -1 0 0 1 -1 0 0 1 -1 0 0 1 -1 0 0 1 0 0 -1 1 0 0 0 1 -1 0 0 1 0 1 0 0 0 1 -1 1 0 0 0 1 0 1 -2 0 0 -1 0 -1 0 -1 0 0 0 -1 0 -1 1 -1 0 -1 0 0 1 -1 0 -1 1 0 0 -1 1 -1 0 0 1 -1 0 0 1 -1 0 0 1 -1 1 0 0 -1 1 0 1 0 1 -1 0 0 1 0 1 0 1 0 1 0 0 -1 1 0 0 0zm182 3l-182 0 0 -3 182 0 0 0 0 3zm16 14l-2 0 0 0 0 -1 0 -1 -1 0 0 -1 0 -1 0 0 0 -1 0 -1 -1 0 0 -1 0 0 -1 -1 0 0 -1 -1 0 0 -1 -1 0 0 -1 -1 0 0 -1 -1 0 0 -1 0 0 -1 -1 0 -1 0 0 0 -1 -1 -1 0 0 0 -1 0 -1 0 0 0 0 -3 0 0 1 1 1 0 1 0 1 0 0 0 1 0 1 1 1 0 0 0 1 1 1 0 0 1 1 0 1 1 0 0 1 1 0 0 1 1 0 1 1 0 0 1 1 1 0 0 0 1 0 1 1 1 0 1 0 0 0 1 0 1 0 1 0 0zm-2 33l0 -33 2 0 0 33 0 0 -2 0z"/>
   </g>
   <g>
    <path class="fil0" d="M1831 1957l3 0 0 0 0 8 1 8 1 8 1 8 2 8 2 7 3 8 3 7 3 7 4 7 4 7 4 6 5 6 5 6 5 6 6 6 6 5 6 5 6 5 7 4 7 4 7 4 7 4 7 3 8 3 8 2 8 3 8 1 8 2 9 1 8 0 9 1 0 2 -9 0 -8 -1 -9 -1 -8 -1 -9 -2 -8 -2 -8 -3 -7 -3 -8 -3 -7 -3 -8 -4 -7 -5 -6 -4 -7 -5 -6 -5 -6 -5 -6 -6 -5 -6 -5 -6 -5 -6 -4 -7 -4 -7 -4 -7 -4 -7 -3 -7 -2 -8 -3 -8 -1 -8 -2 -8 -1 -8 -1 -8 0 -8 0 0zm171 -169l0 3 0 0 -9 0 -8 1 -9 1 -8 1 -8 2 -8 3 -8 2 -8 3 -7 4 -7 4 -7 4 -7 4 -7 5 -6 5 -6 5 -6 6 -6 6 -5 6 -5 6 -5 6 -4 7 -4 7 -4 7 -3 8 -3 7 -3 8 -2 7 -2 8 -1 8 -1 8 -1 9 0 8 -3 0 0 -9 1 -8 1 -8 2 -8 1 -8 3 -8 2 -8 3 -7 4 -8 4 -7 4 -7 4 -7 5 -7 5 -6 5 -6 6 -6 6 -6 6 -5 7 -5 6 -5 7 -5 8 -4 7 -4 7 -3 8 -3 8 -3 8 -2 9 -2 8 -2 9 -1 8 0 9 -1 0 0zm171 169l-3 0 0 0 0 -8 0 -9 -2 -8 -1 -8 -2 -8 -2 -7 -3 -8 -3 -7 -3 -8 -4 -7 -4 -7 -4 -7 -5 -6 -5 -6 -5 -6 -6 -6 -6 -6 -6 -5 -6 -5 -7 -5 -7 -4 -7 -4 -7 -4 -7 -4 -8 -3 -8 -2 -8 -3 -8 -2 -8 -1 -9 -1 -8 -1 -9 0 0 -3 9 1 9 0 8 1 9 2 8 2 8 2 8 3 8 3 7 3 8 4 7 4 7 5 6 5 7 5 6 5 6 6 6 6 5 6 5 6 5 7 4 7 4 7 4 7 4 8 3 7 2 8 3 8 1 8 2 8 1 8 1 8 0 9 0 0zm-171 162l0 -2 0 0 9 -1 8 0 9 -1 8 -2 8 -1 8 -3 8 -2 8 -3 7 -3 7 -4 7 -4 7 -4 7 -4 6 -5 6 -5 6 -5 6 -6 5 -6 5 -6 5 -6 4 -6 4 -7 4 -7 3 -7 3 -7 3 -8 2 -7 2 -8 1 -8 2 -8 0 -8 0 -8 3 0 0 8 -1 8 -1 8 -2 8 -1 8 -3 8 -2 8 -3 7 -4 7 -4 7 -4 7 -4 7 -5 6 -5 6 -5 6 -6 6 -6 5 -6 5 -7 5 -6 4 -7 5 -7 4 -8 3 -7 3 -8 3 -8 3 -8 2 -8 2 -9 1 -8 1 -9 1 -9 0 0 0z"/>
   </g>
   <g>
    <path class="fil0" d="M2323 5243l2 0 0 0 1 2 0 1 0 2 0 1 0 2 1 1 0 1 1 2 0 1 1 1 1 2 1 1 0 1 1 1 1 1 1 1 1 1 1 1 2 1 1 1 1 0 1 1 2 1 1 0 1 1 2 0 1 1 2 0 1 0 2 1 1 0 2 0 0 2 -2 0 -2 0 -1 0 -2 0 -2 -1 -1 0 -2 -1 -1 0 -2 -1 -1 -1 -1 0 -2 -1 -1 -1 -1 -1 -1 -1 -1 -1 -2 -1 -1 -1 -1 -2 0 -1 -1 -1 -1 -1 -1 -2 -1 -1 0 -2 -1 -1 0 -2 0 -1 -1 -2 0 -1 0 -2 0 -2 0 0zm33 -32l0 3 0 0 -2 0 -1 0 -2 0 -1 0 -2 1 -1 0 -2 1 -1 0 -1 1 -2 0 -1 1 -1 1 -1 1 -2 1 -1 0 -1 1 -1 1 -1 2 -1 1 0 1 -1 1 -1 1 -1 2 0 1 -1 1 0 2 -1 1 0 1 0 2 0 1 0 2 -1 1 -2 0 0 -1 0 -2 0 -2 1 -1 0 -2 0 -1 1 -2 0 -1 1 -2 1 -1 1 -1 1 -2 0 -1 1 -1 1 -1 2 -1 1 -1 1 -1 1 -1 1 -1 2 -1 1 -1 1 -1 2 0 1 -1 2 0 1 -1 2 0 2 0 1 -1 2 0 2 0 0 0zm33 32l-3 0 0 0 0 -1 0 -2 0 -1 -1 -2 0 -1 0 -1 -1 -2 0 -1 -1 -1 -1 -2 0 -1 -1 -1 -1 -1 -1 -1 -1 -2 -1 -1 -1 -1 -1 0 -1 -1 -1 -1 -2 -1 -1 -1 -1 0 -2 -1 -1 0 -1 -1 -2 0 -1 -1 -2 0 -1 0 -2 0 -1 0 0 -3 1 0 2 0 2 1 1 0 2 0 1 1 2 0 1 1 2 0 1 1 2 1 1 1 1 1 2 1 1 1 1 1 1 1 1 1 1 1 1 1 1 2 1 1 0 1 1 2 1 1 0 2 0 1 1 2 0 1 0 2 0 2 1 1 0 0zm-33 32l0 -2 0 0 1 0 2 0 1 -1 2 0 1 0 2 -1 1 0 1 -1 2 0 1 -1 1 -1 2 0 1 -1 1 -1 1 -1 1 -1 1 -1 1 -1 1 -1 1 -1 1 -1 0 -2 1 -1 1 -1 0 -2 1 -1 0 -1 0 -2 1 -1 0 -2 0 -1 0 -2 3 0 -1 2 0 2 0 1 0 2 -1 1 0 2 0 1 -1 2 -1 1 0 2 -1 1 -1 1 -1 1 -1 2 -1 1 -1 1 -1 1 -1 1 -2 1 -1 1 -1 1 -2 0 -1 1 -2 1 -1 0 -2 1 -1 0 -2 1 -1 0 -2 0 -2 0 -1 0 0 0z"/>
   </g>
   <g>
    <path class="fil0" d="M2410 5243l3 0 0 0 0 2 0 1 0 2 0 1 1 2 0 1 1 1 0 2 1 1 0 1 1 2 1 1 1 1 1 1 1 1 1 1 1 1 1 1 1 1 1 1 1 0 2 1 1 1 1 0 2 1 1 0 1 1 2 0 1 0 2 1 1 0 2 0 0 2 -2 0 -1 0 -2 0 -2 0 -1 -1 -2 0 -1 -1 -2 0 -1 -1 -2 -1 -1 0 -1 -1 -2 -1 -1 -1 -1 -1 -1 -1 -1 -1 -1 -1 -1 -2 -1 -1 -1 -1 -1 -1 -1 -2 0 -1 -1 -2 0 -1 -1 -2 0 -1 0 -2 -1 -1 0 -2 0 -2 0 0zm33 -32l0 3 0 0 -2 0 -1 0 -2 0 -1 0 -2 1 -1 0 -1 1 -2 0 -1 1 -1 0 -2 1 -1 1 -1 1 -1 1 -1 0 -1 1 -1 1 -1 2 -1 1 -1 1 -1 1 -1 1 0 2 -1 1 0 1 -1 2 0 1 -1 1 0 2 0 1 0 2 0 1 -3 0 0 -1 0 -2 1 -2 0 -1 0 -2 1 -1 0 -2 1 -1 0 -2 1 -1 1 -1 1 -2 1 -1 1 -1 1 -1 1 -1 1 -1 1 -1 1 -1 2 -1 1 -1 1 -1 2 -1 1 0 2 -1 1 0 2 -1 1 0 2 0 2 -1 1 0 2 0 0 0zm33 32l-3 0 0 0 0 -1 0 -2 0 -1 0 -2 -1 -1 0 -1 -1 -2 0 -1 -1 -1 -1 -2 0 -1 -1 -1 -1 -1 -1 -1 -1 -2 -1 -1 -1 -1 -1 0 -1 -1 -1 -1 -1 -1 -2 -1 -1 0 -1 -1 -2 0 -1 -1 -2 0 -1 -1 -1 0 -2 0 -2 0 -1 0 0 -3 2 0 1 0 2 1 2 0 1 0 2 1 1 0 2 1 1 0 2 1 1 1 1 1 2 1 1 1 1 1 1 1 1 1 1 1 1 1 1 1 1 2 1 1 0 1 1 2 1 1 0 2 1 1 0 2 0 1 1 2 0 2 0 1 0 0zm-33 32l0 -2 0 0 1 0 2 0 2 -1 1 0 1 0 2 -1 1 0 2 -1 1 0 1 -1 2 -1 1 0 1 -1 1 -1 1 -1 1 -1 1 -1 1 -1 1 -1 1 -1 1 -1 0 -2 1 -1 1 -1 0 -2 1 -1 0 -1 1 -2 0 -1 0 -2 0 -1 0 -2 3 0 0 2 0 2 -1 1 0 2 0 1 -1 2 0 1 -1 2 -1 1 0 2 -1 1 -1 1 -1 1 -1 2 -1 1 -1 1 -1 1 -1 1 -1 1 -2 1 -1 1 -1 0 -2 1 -1 1 -2 0 -1 1 -2 0 -1 1 -2 0 -2 0 -1 0 -2 0 0 0z"/>
   </g>
   <g>
    <path class="fil0" d="M2498 5243l2 0 0 0 0 2 0 1 0 2 1 1 0 2 1 1 0 1 1 2 0 1 1 1 1 2 0 1 1 1 1 1 1 1 1 1 1 1 1 1 1 1 1 1 2 0 1 1 1 1 2 0 1 1 1 0 2 1 1 0 2 0 1 1 2 0 1 0 0 2 -1 0 -2 0 -2 0 -1 0 -2 -1 -1 0 -2 -1 -1 0 -2 -1 -1 -1 -2 0 -1 -1 -1 -1 -1 -1 -2 -1 -1 -1 -1 -1 -1 -1 -1 -2 -1 -1 -1 -1 0 -1 -1 -2 -1 -1 0 -2 -1 -1 0 -2 -1 -1 0 -2 0 -1 0 -2 0 -2 0 0zm32 -32l0 3 0 0 -1 0 -2 0 -1 0 -2 0 -1 1 -2 0 -1 1 -1 0 -2 1 -1 0 -1 1 -2 1 -1 1 -1 1 -1 0 -1 1 -1 1 -1 2 -1 1 -1 1 0 1 -1 1 -1 2 0 1 -1 1 0 2 -1 1 0 1 -1 2 0 1 0 2 0 1 -2 0 0 -1 0 -2 0 -2 0 -1 1 -2 0 -1 1 -2 0 -1 1 -2 1 -1 0 -1 1 -2 1 -1 1 -1 1 -1 1 -1 1 -1 2 -1 1 -1 1 -1 1 -1 2 -1 1 -1 2 0 1 -1 2 0 1 -1 2 0 1 0 2 -1 2 0 1 0 0 0zm33 32l-2 0 0 0 -1 -1 0 -2 0 -1 0 -2 0 -1 -1 -1 0 -2 -1 -1 0 -1 -1 -2 -1 -1 -1 -1 0 -1 -1 -1 -1 -2 -1 -1 -1 -1 -1 0 -2 -1 -1 -1 -1 -1 -1 -1 -2 0 -1 -1 -1 0 -2 -1 -1 0 -2 -1 -1 0 -2 0 -1 0 -2 0 0 -3 2 0 2 0 1 1 2 0 2 0 1 1 2 0 1 1 2 0 1 1 1 1 2 1 1 1 1 1 1 1 2 1 1 1 1 1 1 1 0 1 1 2 1 1 1 1 1 2 0 1 1 2 0 1 0 2 1 1 0 2 0 2 0 1 0 0zm-33 32l0 -2 0 0 2 0 1 0 2 -1 1 0 2 0 1 -1 2 0 1 -1 1 0 2 -1 1 -1 1 0 1 -1 2 -1 1 -1 1 -1 1 -1 1 -1 1 -1 0 -1 1 -1 1 -2 1 -1 0 -1 1 -2 0 -1 1 -1 0 -2 0 -1 0 -2 0 -1 1 -2 2 0 0 2 0 2 0 1 -1 2 0 1 0 2 -1 1 0 2 -1 1 -1 2 -1 1 -1 1 0 1 -1 2 -1 1 -1 1 -2 1 -1 1 -1 1 -1 1 -2 1 -1 0 -1 1 -2 1 -1 0 -2 1 -1 0 -2 1 -2 0 -1 0 -2 0 -2 0 0 0z"/>
   </g>
   <g>
    <path class="fil0" d="M2522 724l3 0 0 0 0 1 0 1 0 1 0 1 0 1 1 1 0 1 0 1 1 1 0 1 1 1 0 0 1 1 0 1 1 1 1 0 0 1 1 1 1 0 1 1 1 0 0 1 1 0 1 1 1 0 1 1 1 0 1 0 1 0 1 0 1 0 1 0 0 3 -1 0 -1 0 -1 0 -1 0 -2 -1 -1 0 -1 0 -1 -1 -1 0 -1 -1 -1 0 -1 -1 -1 -1 -1 0 0 -1 -1 -1 -1 -1 -1 0 0 -1 -1 -1 -1 -1 0 -1 -1 -1 0 -1 -1 -1 0 -1 0 -1 -1 -1 0 -2 0 -1 0 -1 0 -1 0 0zm23 -23l0 2 0 0 -1 0 -1 1 -1 0 -1 0 -1 0 -1 0 -1 1 -1 0 -1 0 -1 1 0 0 -1 1 -1 0 -1 1 -1 1 0 0 -1 1 -1 1 0 1 -1 0 0 1 -1 1 0 1 -1 1 0 1 0 1 -1 1 0 1 0 1 0 1 0 1 0 1 -3 0 0 -1 0 -1 0 -2 0 -1 1 -1 0 -1 0 -1 1 -1 0 -1 1 -1 0 -1 1 -1 1 -1 0 -1 1 -1 1 0 1 -1 0 -1 1 -1 1 0 1 -1 1 0 1 -1 1 0 1 -1 1 0 1 0 2 -1 1 0 1 0 1 0 1 0 0 0zm23 23l-2 0 0 0 0 -1 0 -1 -1 -1 0 -1 0 -1 0 -1 -1 -1 0 -1 0 -1 -1 -1 0 -1 -1 -1 0 0 -1 -1 -1 -1 0 -1 -1 0 -1 -1 -1 0 0 -1 -1 -1 -1 0 -1 -1 -1 0 -1 0 -1 -1 -1 0 -1 0 -1 0 -1 0 -1 -1 -1 0 0 -2 1 0 2 0 1 0 1 0 1 1 1 0 1 0 1 1 1 0 1 1 1 0 1 1 1 0 1 1 1 1 0 1 1 0 1 1 1 1 0 1 1 1 0 1 1 1 0 1 1 1 0 1 1 1 0 1 0 1 0 2 0 1 0 1 0 0zm-23 23l0 -3 0 0 1 0 1 0 1 0 1 0 1 0 1 0 1 -1 1 0 1 -1 1 0 1 0 1 -1 0 -1 1 0 1 -1 1 -1 0 0 1 -1 1 -1 0 -1 1 0 0 -1 1 -1 0 -1 0 -1 1 -1 0 -1 0 -1 0 -1 1 -1 0 -1 0 -1 2 0 0 1 0 1 0 1 0 2 0 1 -1 1 0 1 -1 1 0 1 -1 1 0 1 -1 1 0 1 -1 1 -1 0 -1 1 0 1 -1 1 -1 0 -1 1 -1 1 -1 0 -1 1 -1 0 -1 1 -1 0 -1 0 -1 1 -1 0 -1 0 -2 0 -1 0 0 0z"/>
   </g>
   <g>
    <path class="fil0" d="M2586 5243l2 0 0 0 0 2 0 1 0 2 1 1 0 2 1 1 0 1 1 2 0 1 1 1 1 2 0 1 1 1 1 1 1 1 1 1 1 1 1 1 1 1 1 1 2 0 1 1 1 1 2 0 1 1 1 0 2 1 1 0 2 0 1 1 2 0 1 0 0 2 -1 0 -2 0 -2 0 -1 0 -2 -1 -1 0 -2 -1 -1 0 -2 -1 -1 -1 -2 0 -1 -1 -1 -1 -1 -1 -2 -1 -1 -1 -1 -1 -1 -1 -1 -2 -1 -1 -1 -1 0 -1 -1 -2 -1 -1 0 -2 -1 -1 0 -2 -1 -1 0 -2 0 -1 0 -2 0 -2 0 0zm32 -32l0 3 0 0 -1 0 -2 0 -1 0 -2 0 -1 1 -2 0 -1 1 -1 0 -2 1 -1 0 -1 1 -2 1 -1 1 -1 1 -1 0 -1 1 -1 1 -1 2 -1 1 -1 1 0 1 -1 1 -1 2 0 1 -1 1 0 2 -1 1 0 1 -1 2 0 1 0 2 0 1 -2 0 0 -1 0 -2 0 -2 0 -1 1 -2 0 -1 1 -2 0 -1 1 -2 1 -1 0 -1 1 -2 1 -1 1 -1 1 -1 1 -1 1 -1 2 -1 1 -1 1 -1 1 -1 2 -1 1 -1 2 0 1 -1 2 0 1 -1 2 0 1 0 2 -1 2 0 1 0 0 0zm33 32l-2 0 0 0 -1 -1 0 -2 0 -1 0 -2 0 -1 -1 -1 0 -2 -1 -1 0 -1 -1 -2 -1 -1 -1 -1 0 -1 -1 -1 -1 -2 -1 -1 -1 -1 -1 0 -2 -1 -1 -1 -1 -1 -1 -1 -2 0 -1 -1 -1 0 -2 -1 -1 0 -2 -1 -1 0 -2 0 -1 0 -2 0 0 -3 2 0 2 0 1 1 2 0 2 0 1 1 2 0 1 1 2 0 1 1 1 1 2 1 1 1 1 1 1 1 1 1 2 1 1 1 1 1 0 1 1 2 1 1 1 1 1 2 0 1 1 2 0 1 0 2 1 1 0 2 0 2 0 1 0 0zm-33 32l0 -2 0 0 2 0 1 0 2 -1 1 0 2 0 1 -1 2 0 1 -1 1 0 2 -1 1 -1 1 0 1 -1 2 -1 1 -1 1 -1 1 -1 1 -1 1 -1 0 -1 1 -1 1 -2 1 -1 0 -1 1 -2 0 -1 1 -1 0 -2 0 -1 0 -2 0 -1 1 -2 2 0 0 2 0 2 0 1 -1 2 0 1 0 2 -1 1 0 2 -1 1 -1 2 -1 1 -1 1 0 1 -1 2 -1 1 -2 1 -1 1 -1 1 -1 1 -1 1 -2 1 -1 0 -1 1 -2 1 -1 0 -2 1 -1 0 -2 1 -2 0 -1 0 -2 0 -2 0 0 0z"/>
   </g>
   <g>
    <path class="fil0" d="M2660 689l0 3 0 0 -2 0 -1 0 -2 0 -2 1 -1 0 -2 1 -1 0 -2 1 -1 0 -1 1 -2 1 -1 1 -1 0 -1 1 -2 1 -1 1 -1 1 -1 2 -1 1 -1 1 0 1 -1 2 -1 1 -1 2 0 1 -1 1 0 2 0 1 -1 2 0 2 0 1 0 2 -3 0 0 -2 1 -2 0 -1 0 -2 0 -2 1 -1 0 -2 1 -1 1 -2 1 -1 0 -2 1 -1 1 -2 1 -1 1 -1 1 -1 2 -2 1 -1 1 -1 2 -1 1 -1 1 0 2 -1 1 -1 2 0 2 -1 1 0 2 -1 2 0 1 0 2 0 2 -1 0 0zm0 3l0 0 0 0 0 0zm34 32l-2 0 0 0 0 -2 -1 -1 0 -2 0 -2 0 -1 -1 -2 0 -1 -1 -1 0 -2 -1 -1 -1 -2 -1 -1 -1 -1 -1 -1 -1 -2 -1 -1 -1 -1 -1 -1 -1 -1 -1 0 -2 -1 -1 -1 -1 -1 -2 0 -1 -1 -2 -1 -1 0 -2 0 -1 -1 -2 0 -2 0 -1 0 0 -3 2 1 1 0 2 0 2 0 1 1 2 0 2 1 1 0 2 1 1 1 2 0 1 1 1 1 2 1 1 1 1 2 1 1 1 1 1 1 1 2 1 1 1 2 1 1 1 2 0 1 1 2 0 1 1 2 0 2 0 1 0 2 0 2 0 0zm-34 34l0 -2 0 0 1 0 2 0 2 -1 1 0 2 0 1 -1 2 0 1 -1 2 0 1 -1 1 -1 2 -1 1 -1 1 -1 1 -1 1 -1 1 -1 1 -1 1 -1 1 -1 1 -2 1 -1 1 -1 0 -2 1 -1 0 -2 1 -1 0 -2 0 -1 0 -2 1 -1 0 -2 2 0 0 2 0 1 0 2 0 2 -1 2 0 1 -1 2 0 1 -1 2 -1 1 -1 2 -1 1 -1 2 -1 1 -1 1 -1 1 -1 1 -1 1 -2 1 -1 1 -1 1 -2 1 -1 1 -2 1 -1 0 -2 1 -2 0 -1 1 -2 0 -2 0 -1 0 -2 0 0 0zm0 0l0 0 0 0 0 0zm-35 -34l3 0 0 0 0 2 0 1 0 2 1 1 0 2 0 1 1 2 0 1 1 2 1 1 1 1 0 2 1 1 1 1 1 1 1 1 1 1 2 1 1 1 1 1 1 1 2 1 1 1 1 0 2 1 1 0 2 1 1 0 2 0 2 1 1 0 2 0 0 2 -2 0 -2 0 -1 0 -2 0 -2 -1 -1 0 -2 -1 -2 0 -1 -1 -2 -1 -1 -1 -1 -1 -2 -1 -1 -1 -1 -1 -2 -1 -1 -1 -1 -1 -1 -1 -1 -2 -1 -1 0 -2 -1 -1 -1 -2 -1 -1 0 -2 -1 -1 0 -2 0 -2 0 -2 -1 -1 0 -2 0 0z"/>
   </g>
   <g>
    <path class="fil0" d="M2672 5243l2 0 0 0 0 2 0 1 1 2 0 1 0 2 1 1 0 1 1 2 0 1 1 1 1 2 0 1 1 1 1 1 1 1 1 1 1 1 1 1 1 1 2 1 1 0 1 1 1 1 2 0 1 1 2 0 1 1 1 0 2 0 1 1 2 0 2 0 0 2 -2 0 -2 0 -1 0 -2 0 -2 -1 -1 0 -2 -1 -1 0 -2 -1 -1 -1 -1 0 -2 -1 -1 -1 -1 -1 -1 -1 -2 -1 -1 -1 -1 -1 -1 -2 -1 -1 0 -1 -1 -1 -1 -2 -1 -1 0 -2 -1 -1 0 -2 -1 -1 0 -2 0 -1 0 -2 0 -2 0 0zm32 -32l0 3 0 0 -1 0 -2 0 -1 0 -2 0 -1 1 -1 0 -2 1 -1 0 -2 1 -1 0 -1 1 -1 1 -2 1 -1 1 -1 0 -1 1 -1 1 -1 2 -1 1 -1 1 0 1 -1 1 -1 2 0 1 -1 1 0 2 -1 1 0 1 0 2 -1 1 0 2 0 1 -2 0 0 -1 0 -2 0 -2 0 -1 1 -2 0 -1 1 -2 0 -1 1 -2 1 -1 0 -1 1 -2 1 -1 1 -1 1 -1 1 -1 1 -1 2 -1 1 -1 1 -1 2 -1 1 -1 1 -1 2 0 1 -1 2 0 1 -1 2 0 2 0 1 -1 2 0 1 0 0 0zm33 32l-2 0 0 0 0 -1 0 -2 -1 -1 0 -2 0 -1 -1 -1 0 -2 -1 -1 0 -1 -1 -2 -1 -1 0 -1 -1 -1 -1 -1 -1 -2 -1 -1 -1 -1 -1 0 -1 -1 -2 -1 -1 -1 -1 -1 -1 0 -2 -1 -1 0 -2 -1 -1 0 -1 -1 -2 0 -1 0 -2 0 -2 0 0 -3 2 0 2 0 1 1 2 0 2 0 1 1 2 0 1 1 2 0 1 1 1 1 2 1 1 1 1 1 1 1 2 1 1 1 1 1 1 1 1 1 0 2 1 1 1 1 1 2 0 1 1 2 0 1 1 2 0 1 0 2 0 2 0 1 0 0zm-32 32l0 -2 0 0 1 0 2 0 1 -1 2 0 1 0 1 -1 2 0 1 -1 2 0 1 -1 1 -1 1 0 2 -1 1 -1 1 -1 1 -1 1 -1 1 -1 1 -1 1 -1 0 -1 1 -2 1 -1 0 -1 1 -2 0 -1 1 -1 0 -2 0 -1 1 -2 0 -1 0 -2 2 0 0 2 0 2 0 1 0 2 -1 1 0 2 -1 1 0 2 -1 1 -1 2 -1 1 0 1 -1 1 -1 2 -1 1 -1 1 -2 1 -1 1 -1 1 -1 1 -2 1 -1 0 -1 1 -2 1 -1 0 -2 1 -1 0 -2 1 -2 0 -1 0 -2 0 -1 0 0 0z"/>
   </g>
   <g>
    <path class="fil0" d="M3103 1593l3 0 0 0 0 1 0 1 0 1 0 1 0 1 1 1 0 1 0 1 1 1 0 1 1 1 0 1 1 0 1 1 0 1 1 1 1 0 1 1 0 1 1 0 1 1 1 0 1 1 1 0 1 1 1 0 1 0 1 1 1 0 1 0 1 0 2 0 0 3 -2 0 -1 -1 -1 0 -1 0 -1 0 -2 0 -1 -1 -1 0 -1 -1 -1 0 -1 -1 -1 0 -1 -1 -1 -1 -1 -1 -1 0 -1 -1 0 -1 -1 -1 -1 -1 0 -1 -1 -1 0 -1 -1 -1 0 -1 -1 -1 0 -1 0 -2 -1 -1 0 -1 0 -1 0 -1 0 0zm25 -24l0 2 0 0 -2 0 -1 0 -1 1 -1 0 -1 0 -1 0 -1 1 -1 0 -1 0 -1 1 -1 0 -1 1 -1 1 0 0 -1 1 -1 1 -1 0 0 1 -1 1 -1 1 0 1 -1 0 0 1 -1 1 0 1 0 1 -1 1 0 1 0 1 0 1 0 2 0 1 -3 0 0 -2 0 -1 0 -1 1 -1 0 -1 0 -1 1 -2 0 -1 1 -1 0 -1 1 -1 0 -1 1 -1 1 -1 0 0 1 -1 1 -1 1 -1 1 -1 1 0 1 -1 1 0 1 -1 1 0 1 -1 1 0 2 0 1 -1 1 0 1 0 1 0 2 0 0 0zm24 24l-3 0 0 0 0 -1 0 -2 0 -1 0 -1 0 -1 -1 -1 0 -1 0 -1 -1 -1 0 -1 -1 0 0 -1 -1 -1 -1 -1 0 -1 -1 0 -1 -1 -1 -1 0 0 -1 -1 -1 -1 -1 0 -1 -1 -1 0 -1 0 -1 -1 -1 0 -1 0 -1 0 -1 -1 -1 0 -1 0 0 -2 1 0 1 0 1 0 2 0 1 1 1 0 1 0 1 1 1 0 1 1 1 0 1 1 1 0 1 1 1 1 1 1 1 1 0 0 1 1 1 1 0 1 1 1 1 1 0 1 1 1 0 2 0 1 1 1 0 1 0 1 0 1 0 2 0 0zm-24 24l0 -3 0 0 1 0 1 0 1 0 1 0 1 -1 1 0 1 0 1 -1 1 0 1 -1 1 0 1 -1 1 0 0 -1 1 -1 1 0 1 -1 0 -1 1 -1 1 0 0 -1 1 -1 0 -1 1 -1 0 -1 0 -1 1 -1 0 -1 0 -1 0 -1 0 -1 0 -1 3 0 0 1 0 1 0 1 0 1 -1 2 0 1 0 1 -1 1 0 1 -1 1 -1 1 0 1 -1 1 -1 1 0 1 -1 1 -1 0 -1 1 -1 1 -1 1 -1 0 -1 1 -1 0 -1 1 -1 0 -1 1 -1 0 -1 0 -2 0 -1 0 -1 1 -1 0 0 0z"/>
   </g>
   <g>
    <path class="fil0" d="M3128 1566l0 -2 0 0 1 0 2 -1 1 0 2 0 1 0 1 -1 2 0 1 -1 1 0 2 -1 1 -1 1 0 1 -1 1 -1 1 -1 1 -1 1 -1 1 -1 1 -1 1 -1 1 -2 0 -1 1 -1 1 -1 0 -2 1 -1 0 -1 0 -2 1 -1 0 -2 0 -1 0 -2 3 0 0 2 -1 1 0 2 0 2 0 1 -1 2 0 1 -1 2 -1 1 0 1 -1 2 -1 1 -1 1 -1 2 -1 1 -1 1 -1 1 -1 1 -1 1 -2 1 -1 1 -1 0 -2 1 -1 1 -1 0 -2 1 -1 0 -2 1 -2 0 -1 0 -2 0 -1 0 0 0zm-32 -32l2 0 0 0 0 2 0 1 1 2 0 1 0 2 1 1 0 1 1 2 0 1 1 1 1 1 0 2 1 1 1 1 1 1 1 1 1 1 1 1 1 1 1 1 1 0 2 1 1 1 1 0 2 1 1 0 1 1 2 0 1 0 2 0 1 1 2 0 0 2 -2 0 -2 0 -1 0 -2 0 -1 -1 -2 0 -1 -1 -2 0 -1 -1 -2 -1 -1 0 -1 -1 -1 -1 -2 -1 -1 -1 -1 -1 -1 -1 -1 -1 -1 -2 -1 -1 -1 -1 0 -2 -1 -1 -1 -1 0 -2 -1 -1 0 -2 -1 -1 0 -2 0 -1 0 -2 0 -2 0 0zm2 -425l0 425 -2 0 0 -425 0 0 2 0zm30 -32l0 3 0 0 -2 0 -1 0 -2 0 -1 0 -2 1 -1 0 -1 0 -2 1 -1 1 -1 0 -2 1 -1 1 -1 1 -1 0 -1 1 -1 1 -1 1 -1 1 -1 1 -1 2 0 1 -1 1 -1 1 0 2 -1 1 0 1 -1 2 0 1 0 2 -1 1 0 2 0 1 -2 0 0 -2 0 -1 0 -2 0 -1 1 -2 0 -1 1 -2 0 -1 1 -2 1 -1 0 -2 1 -1 1 -1 1 -1 1 -1 1 -2 1 -1 1 -1 2 -1 1 0 1 -1 1 -1 2 -1 1 0 2 -1 1 0 2 -1 1 0 2 -1 1 0 2 0 2 0 0 0zm32 32l-3 0 0 0 0 -1 0 -2 0 -1 -1 -2 0 -1 0 -2 -1 -1 0 -1 -1 -2 -1 -1 0 -1 -1 -1 -1 -2 -1 -1 -1 -1 -1 -1 -1 -1 -1 -1 -1 0 -1 -1 -1 -1 -1 -1 -2 0 -1 -1 -1 -1 -2 0 -1 0 -1 -1 -2 0 -1 0 -2 0 -1 0 0 -3 1 0 2 0 1 0 2 1 2 0 1 1 2 0 1 1 1 0 2 1 1 1 1 1 2 0 1 1 1 1 1 1 1 2 1 1 1 1 1 1 1 1 1 2 0 1 1 2 1 1 0 2 1 1 0 2 0 1 0 2 1 1 0 2 0 0zm-3 425l0 -425 3 0 0 425 0 0 -3 0z"/>
   </g>
  </g>
 </g>
</svg>
