<?xml version="1.0" encoding="UTF-8"?>
<!DOCTYPE svg PUBLIC "-//W3C//DTD SVG 1.1//EN" "http://www.w3.org/Graphics/SVG/1.1/DTD/svg11.dtd">
<!-- Creator: CorelDRAW X8 -->
<svg xmlns="http://www.w3.org/2000/svg" xml:space="preserve" width="40mm" height="60mm" version="1.1" style="shape-rendering:geometricPrecision; text-rendering:geometricPrecision; image-rendering:optimizeQuality; fill-rule:evenodd; clip-rule:evenodd"
viewBox="0 0 4000 6000"
 xmlns:xlink="http://www.w3.org/1999/xlink">
 <defs>
  <style type="text/css">
   <![CDATA[
    .str0 {stroke:#332C2B;stroke-width:7.62}
    .fil0 {fill:none}
   ]]>
  </style>
 </defs>
 <g id="图层_x0020_1">
  <metadata id="CorelCorpID_0Corel-Layer"/>
  <path class="fil0 str0" d="M918 5249l1905 0c143,0 259,-116 259,-259l0 -4081c0,-142 -116,-259 -259,-259l-1611 0c-142,0 -259,117 -259,259l0 4081c0,143 117,259 259,259 143,0 261,41 261,101m-178 -4297l1455 0c48,0 88,39 88,87l0 157c0,48 -40,88 -88,88l-1455 0c-48,0 -87,-40 -87,-88l0 -157c0,-48 39,-87 87,-87zm6 53l1450 0c24,0 43,20 43,43l0 145c0,24 -19,43 -43,43l-1450 0c-23,0 -43,-19 -43,-43l0 -145c0,-23 20,-43 43,-43zm54 118c-41,24 -64,-24 -64,-48 0,-24 20,-44 44,-44l0 0c24,0 43,20 43,44l0 84c0,24 -19,44 -43,44l0 0c-24,0 -44,-20 -44,-44l0 -84m1447 54c-41,24 -63,-24 -63,-48 0,-24 19,-43 43,-43l0 0c24,0 44,19 44,43l0 84c0,24 -20,44 -44,44l0 0c-24,0 -43,-20 -43,-44l0 -84m-1104 56c-86,-23 -52,-113 0,-113 52,0 94,42 94,94 0,52 -42,94 -94,94 -52,0 -94,-42 -94,-94 0,-52 42,-94 94,-94m303 113c-85,-23 -52,-113 0,-113 52,0 94,42 94,94 0,52 -42,94 -94,94 -52,0 -94,-42 -94,-94 0,-52 42,-94 94,-94m304 115c-85,-23 -52,-113 0,-113 52,0 95,42 95,94 0,52 -43,94 -95,94 -52,0 -94,-42 -94,-94 0,-52 42,-94 94,-94m304 113c-86,-23 -52,-113 0,-113 52,0 94,42 94,94 0,52 -42,94 -94,94 -52,0 -95,-42 -95,-94 0,-52 43,-94 95,-94m-437 775c47,-81 -63,-178 -103,-178 -40,0 -73,33 -73,73l0 155c0,40 33,73 73,73l162 0c40,0 73,-33 73,-73l0 -155c0,-40 -33,-73 -73,-73l-162 0"/>
 </g>
</svg>
