<?xml version="1.0" encoding="UTF-8"?>
<!DOCTYPE svg PUBLIC "-//W3C//DTD SVG 1.1//EN" "http://www.w3.org/Graphics/SVG/1.1/DTD/svg11.dtd">
<!-- Creator: CorelDRAW 2020 (64-Bit) -->
<svg xmlns="http://www.w3.org/2000/svg" xml:space="preserve" width="40mm" height="60mm" version="1.1" style="shape-rendering:geometricPrecision; text-rendering:geometricPrecision; image-rendering:optimizeQuality; fill-rule:evenodd; clip-rule:evenodd"
viewBox="0 0 4000 6000"
 xmlns:xlink="http://www.w3.org/1999/xlink"
 xmlns:xodm="http://www.corel.com/coreldraw/odm/2003">
 <defs>
  <style type="text/css">
   <![CDATA[
    .str0 {stroke:black;stroke-width:7.62;stroke-miterlimit:22.9256}
    .fil0 {fill:none}
   ]]>
  </style>
 </defs>
 <g id="图层_x0020_1">
  <metadata id="CorelCorpID_0Corel-Layer"/>
  <path class="fil0 str0" d="M2833.4 740.74c3.07,-19.73 -13.52,-33.56 -21.75,-34.2 -29.29,0 -53.03,23.74 -53.03,53.03 0,29.28 23.74,53.03 53.03,53.03 29.28,0 53.02,-23.75 53.02,-53.03 0,-29.29 -23.74,-53.03 -53.02,-53.03m-892.91 50.98c-3.62,-13.48 -10.98,-24.18 -44.13,-24.18l-28.37 0c-14.9,0 -27.1,12.19 -27.1,27.1l0 0c0,14.9 12.2,27.1 27.1,27.1l304.04 0c14.9,0 27.1,-12.19 27.1,-27.1l0 0c0,-14.91 -12.21,-27.1 -27.1,-27.1l-275.67 0m-1217.4 4612.32l2587.2 0c63.76,0 115.93,-52.16 115.93,-115.92l0 -4458.15c0,-63.76 -52.17,-115.92 -115.93,-115.92l-2502.02 0c-63.76,0 -115.93,52.16 -115.93,115.92l0 4458.15c0,63.76 52.17,115.92 115.93,115.92l13.04 0c37.84,0 56.59,5.73 65.99,10.01"/>
 </g>
</svg>
