<?xml version="1.0" encoding="UTF-8"?>
<!DOCTYPE svg PUBLIC "-//W3C//DTD SVG 1.1//EN" "http://www.w3.org/Graphics/SVG/1.1/DTD/svg11.dtd">
<!-- Creator: CorelDRAW -->
<svg xmlns="http://www.w3.org/2000/svg" xml:space="preserve" width="40mm" height="60mm" style="shape-rendering:geometricPrecision; text-rendering:geometricPrecision; image-rendering:optimizeQuality; fill-rule:evenodd; clip-rule:evenodd"
viewBox="0 0 40 60"
 xmlns:xlink="http://www.w3.org/1999/xlink">
 <defs>
  <style type="text/css">
   <![CDATA[
    .str0 {stroke:#1F1A17;stroke-width:0.0762;stroke-linejoin:bevel}
    .str1 {stroke:#1F1A17;stroke-width:0.0762;stroke-linejoin:bevel}
    .fil0 {fill:none}
   ]]>
  </style>
 </defs>
 <g id="图层_x0020_1">
  <metadata id="CorelCorpID_0Corel-Layer"/>
  <g id="_176215936">
   <path id="_176213848" class="fil0 str0" d="M28.6242 8.8059c0.2743,0 0.5277,-0.1463 0.6648,-0.3838 0.1371,-0.2375 0.1371,-0.5301 0,-0.7676 -0.1371,-0.2375 -0.3905,-0.3838 -0.6648,-0.3838l-2.0961 0c-0.2742,0 -0.5276,0.1463 -0.6647,0.3838 -0.1371,0.2375 -0.1371,0.5301 0,0.7676 0.1371,0.2375 0.3905,0.3838 0.6647,0.3838l2.0961 0z"/>
   <path id="_176214448" class="fil0 str1" d="M19.5899 6.5l-7.7225 0c-0.3716,0 -0.7419,0.0426 -1.1037,0.1271 -0.5795,0.1354 -1.0363,0.5796 -1.187,1.1552 -0.0886,0.3377 -0.1375,0.6845 -0.1458,1.0336l0 42.6006c0.0097,0.2343 0.0374,0.4675 0.0831,0.6975 0.1048,0.5284 0.4826,0.9607 0.9924,1.1348 0.4868,0.1663 0.9977,0.2512 1.5122,0.2512l15.9628 0c0.5145,0 1.0254,-0.0848 1.5122,-0.2512 0.5097,-0.1743 0.8878,-0.6064 0.9924,-1.1348 0.0457,-0.23 0.0734,-0.4632 0.0831,-0.6975l0 -42.6006c-0.0083,-0.3491 -0.0572,-0.6959 -0.1458,-1.0336 -0.151,-0.5756 -0.6075,-1.0201 -1.187,-1.1552 -0.3618,-0.0845 -0.7321,-0.1271 -1.1037,-0.1271l-7.0434 0c-0.1056,0 -0.203,0.0563 -0.2557,0.1476 -0.0527,0.0913 -0.1503,0.1476 -0.2557,0.1476l-0.4765 0c-0.1055,0.0001 -0.203,-0.0563 -0.2557,-0.1476 -0.0528,-0.0913 -0.1502,-0.1476 -0.2557,-0.1476z"/>
  </g>
 </g>
</svg>
