<?xml version="1.0" encoding="UTF-8"?>
<!DOCTYPE svg PUBLIC "-//W3C//DTD SVG 1.1//EN" "http://www.w3.org/Graphics/SVG/1.1/DTD/svg11.dtd">
<!-- Creator: CorelDRAW -->
<svg xmlns="http://www.w3.org/2000/svg" xml:space="preserve" width="40mm" height="60mm" style="shape-rendering:geometricPrecision; text-rendering:geometricPrecision; image-rendering:optimizeQuality; fill-rule:evenodd; clip-rule:evenodd"
viewBox="0 0 40 60"
 xmlns:xlink="http://www.w3.org/1999/xlink">
 <defs>
  <style type="text/css">
   <![CDATA[
    .str0 {stroke:#1F1A17;stroke-width:0.194}
    .fil0 {fill:none;fill-rule:nonzero}
   ]]>
  </style>
 </defs>
 <g id="图层_x0020_1">
  <metadata id="CorelCorpID_0Corel-Layer"/>
  <path class="fil0 str0" d="M31.1574 21.1438c0.0267,-7.6643 -0.0011,-11.8134 -0.0832,-12.2973 -0.0755,-0.4462 -0.4573,-0.9346 -1.4197,-1.8182 -0.5583,-0.5117 -0.6371,-0.5283 -2.524,-0.5283 -1.3864,0 -1.4652,0.0067 -1.615,0.1454 -0.0766,0.071 -0.1188,0.0977 -0.1754,0.1088 -0.1776,0.0344 -2.544,0.061 -5.4055,0.061 -2.8515,0 -5.2201,-0.0266 -5.4221,-0.061l-0.2764 -0.1854c-0.0855,-0.0566 -0.1532,-0.0599 -1.4307,-0.0632 -1.7382,-0.0034 -1.8903,0.0144 -2.261,0.273 -0.2875,0.2009 -1.2366,1.1444 -1.4585,1.4507 -0.2198,0.3042 -0.2531,0.4351 -0.2531,0.9968l0.0311 41.7601c-0.0045,0.1088 -0.0067,0.1876 -0.0067,0.2364 0,0.3641 0.2764,0.7149 1.3919,1.7682 0.3879,0.3656 0.5591,0.4443 1.1515,0.4951l10.0047 0.0133c2.3453,0.0022 4.6907,0 7.0361,-0.0078 0.6692,-0.02 0.8302,-0.111 1.6704,-0.9457 0.8813,-0.8757 0.938,-0.9834 0.9413,-1.7515l0.1043 -29.6504z"/>
 </g>
</svg>
