<?xml version="1.0" encoding="UTF-8"?>
<!DOCTYPE svg PUBLIC "-//W3C//DTD SVG 1.1//EN" "http://www.w3.org/Graphics/SVG/1.1/DTD/svg11.dtd">
<!-- Creator: CorelDRAW X8 -->
<svg xmlns="http://www.w3.org/2000/svg" xml:space="preserve" width="40mm" height="60mm" version="1.1" style="shape-rendering:geometricPrecision; text-rendering:geometricPrecision; image-rendering:optimizeQuality; fill-rule:evenodd; clip-rule:evenodd"
viewBox="0 0 4000 6000"
 xmlns:xlink="http://www.w3.org/1999/xlink">
 <defs>
  <style type="text/css">
   <![CDATA[
    .str1 {stroke:#332C2B;stroke-width:20}
    .str0 {stroke:#332C2B;stroke-width:10}
    .fil0 {fill:none}
   ]]>
  </style>
 </defs>
 <g id="图层_x0020_1">
  <metadata id="CorelCorpID_0Corel-Layer"/>
  <g id="_2211216431232">
   <path class="fil0 str0" d="M1231 5350l-62 -38 -224 -148 0 -4366 224 -148 239 0c9,31 37,53 71,53l277 0c1,19 16,34 35,34l431 0c10,0 19,-5 26,-12 6,-7 23,-11 23,17l0 23c0,19 16,35 35,35l106 0c20,0 36,-16 36,-35l0 -62 93 0c33,0 62,-22 71,-53l233 0 241 148 0 4366 -242 148 -226 0c-10,-30 -39,-53 -72,-53l-1059 0c-34,0 -62,23 -72,53l-501 0"/>
   <path class="fil0 str0" d="M1972 886c0,-22 5,-86 39,-86 33,0 60,27 60,60 0,34 -27,61 -60,61 -34,0 -61,-27 -61,-61 0,-33 27,-60 61,-60"/>
  </g>
  <path class="fil0 str1" d="M-1069 5385l-128 211 -500 757 -14764 0 -500 -758 0 -807c103,-30 180,-127 180,-240l0 -937c62,-4 113,-56 113,-120l0 -1457c0,-34 -15,-65 -39,-87 -23,-22 -39,-78 58,-78l75 0c66,0 120,-54 120,-120l0 -358c0,-66 -54,-120 -120,-120l-207 0 0 -315c0,-113 -77,-209 -180,-240l0 -787 500 -815 14764 0 500 816 0 766c-103,33 -179,130 -179,244l0 3579c0,114 76,212 179,245l0 1692"/>
  <path class="fil0 str1" d="M-16164 2878c-73,0 -291,-16 -291,-129 0,-113 91,-204 204,-204 113,0 204,91 204,204 0,113 -91,204 -204,204 -113,0 -204,-91 -204,-204"/>
 </g>
</svg>
