<?xml version="1.0" encoding="UTF-8"?>
<!DOCTYPE svg PUBLIC "-//W3C//DTD SVG 1.1//EN" "http://www.w3.org/Graphics/SVG/1.1/DTD/svg11.dtd">
<!-- Creator: CorelDRAW 2020 (64-Bit) -->
<svg xmlns="http://www.w3.org/2000/svg" xml:space="preserve" width="40mm" height="60mm" version="1.1" style="shape-rendering:geometricPrecision; text-rendering:geometricPrecision; image-rendering:optimizeQuality; fill-rule:evenodd; clip-rule:evenodd"
viewBox="0 0 4000 6000"
 xmlns:xlink="http://www.w3.org/1999/xlink"
 xmlns:xodm="http://www.corel.com/coreldraw/odm/2003">
 <defs>
  <style type="text/css">
   <![CDATA[
    .str0 {stroke:black;stroke-width:7.62;stroke-miterlimit:22.9256}
    .fil0 {fill:none}
   ]]>
  </style>
 </defs>
 <g id="图层_x0020_1">
  <metadata id="CorelCorpID_0Corel-Layer"/>
  <path class="fil0 str0" d="M2397.4 713.68c-0.32,-4.3 -4.11,-8.31 -11.96,-8.92 -27.93,0 -50.58,22.65 -50.58,50.58 0,27.93 22.65,50.57 50.58,50.57 27.93,0 50.58,-22.64 50.58,-50.57 0,-27.93 -22.65,-50.58 -50.58,-50.58m-394.75 46.32c-5.2,-19.41 -15.8,-34.82 -63.53,-34.82l-40.83 0c-21.45,0 -39.01,17.55 -39.01,39.01l0 0.01c0,21.44 17.56,39.01 39.01,39.01l228.7 0c21.46,0 39.01,-17.55 39.01,-39.01l0 -0.01c0,-21.46 -17.56,-39.01 -39.01,-39.01l-187.87 0m-913.57 4586.72l1770.41 0c145,0 263.65,-118.64 263.65,-263.64l0 -4125.7c0,-145 -118.64,-263.64 -263.65,-263.64l-1568 0c-145.01,0 -263.65,118.64 -263.65,263.64l0 4125.7c0,145 118.64,263.64 263.65,263.64l33.1 0c170.42,0 234.4,23.83 269.93,47.02"/>
 </g>
</svg>
