<?xml version="1.0" encoding="UTF-8"?>
<!DOCTYPE svg PUBLIC "-//W3C//DTD SVG 1.1//EN" "http://www.w3.org/Graphics/SVG/1.1/DTD/svg11.dtd">
<!-- Creator: CorelDRAW 2020 (64-Bit) -->
<svg xmlns="http://www.w3.org/2000/svg" xml:space="preserve" width="40mm" height="60mm" version="1.1" style="shape-rendering:geometricPrecision; text-rendering:geometricPrecision; image-rendering:optimizeQuality; fill-rule:evenodd; clip-rule:evenodd"
viewBox="0 0 4000 6000"
 xmlns:xlink="http://www.w3.org/1999/xlink"
 xmlns:xodm="http://www.corel.com/coreldraw/odm/2003">
 <defs>
  <style type="text/css">
   <![CDATA[
    .str0 {stroke:#332C2B;stroke-width:20;stroke-miterlimit:22.9256}
    .fil0 {fill:none}
   ]]>
  </style>
 </defs>
 <g id="图层_x0020_1">
  <metadata id="CorelCorpID_0Corel-Layer"/>
  <path class="fil0 str0" d="M-29546.18 8981.64l0 -675.8 0.05 0c493.67,0 897.57,-403.91 897.57,-897.56l0 -5525.52c0,-493.66 -403.9,-897.57 -897.57,-897.57l-0.05 0 0 -639.25c0,-27.5 -22.46,-50 -50.17,-50l-7210.96 0 0 349.22c0,55 -45,100 -100,100l-1723.53 0c-55,0 -100,-45 -100,-100l0 -349.22 -4545.36 0c-27.71,0 -50.17,22.5 -50.17,50l0 639.25 -0.62 0c-493.65,0 -897.57,403.91 -897.57,897.57l0 1671.67c0,27.16 25.12,59.5 25.12,78.84l0 2045.25c0,19.34 -25.12,44.73 -25.12,73.54l0 1656.22c0,493.65 403.9,897.56 897.57,897.56l0.62 0 0 639.25c0,27.5 22.46,50 50.17,50l3164.24 0 0 -344.47c0,-55 45,-100 100,-100l2885.05 0c55,0 100,45 100,100l0 344.47 7430.56 0c27.71,0 50.17,-22.5 50.17,-50 0,-27.5 1,-86.7 20.68,-106.71"/>
  <path class="fil0 str0" d="M-43813.21 7328.45c0,123.11 99.8,222.91 222.91,222.91 123.11,0 222.91,-99.8 222.91,-222.91 0,-123.11 -99.8,-222.91 -222.91,-222.91 -123.11,0 -222.91,99.8 -222.91,222.91 0,123.11 139.28,172.19 188.89,174.84"/>
  <g id="_1950842174432">
   <path class="fil0 str0" d="M684.46 5079.68l203.92 0 0 0.01c0,148.96 121.88,270.84 270.83,270.84l1667.31 0c148.96,0 270.84,-121.88 270.84,-270.84l0 -0.01 192.89 0c8.3,0 15.09,-6.78 15.09,-15.14l0 -2175.88 -105.38 0c-16.59,0 -30.17,-13.58 -30.17,-30.18l0 -520.07c0,-16.59 13.58,-30.17 30.17,-30.17l105.38 0 0 -1371.55c0,-8.36 -6.79,-15.13 -15.09,-15.13l-192.89 0 0 -0.19c0,-148.96 -121.88,-270.84 -270.84,-270.84l-504.42 0c-8.2,0 -17.95,7.58 -23.79,7.58l-617.15 0c-5.83,0 -13.49,-7.58 -22.19,-7.58l-499.76 0c-148.95,0 -270.83,121.88 -270.83,270.84l0 0.19 -192.89 0c-8.3,0 -15.09,6.77 -15.09,15.13l0 954.8 103.94 0c16.6,0 30.18,13.58 30.18,30.18l0 870.55c0,16.6 -13.58,30.17 -30.18,30.17l-103.94 0 0 2242.15c0,8.36 6.79,15.14 15.09,15.14 8.29,0 26.16,0.3 32.2,6.24"/>
   <path class="fil0 str0" d="M1183.3 774.65c-37.15,0 -67.26,30.12 -67.26,67.27 0,37.14 30.11,67.26 67.26,67.26 37.15,0 67.26,-30.12 67.26,-67.26 0,-37.15 -30.11,-67.27 -67.26,-67.27 -37.15,0 -51.96,42.03 -52.76,57"/>
  </g>
 </g>
</svg>
