<?xml version="1.0" encoding="UTF-8"?>
<!DOCTYPE svg PUBLIC "-//W3C//DTD SVG 1.1//EN" "http://www.w3.org/Graphics/SVG/1.1/DTD/svg11.dtd">
<!-- Creator: CorelDRAW X8 -->
<svg xmlns="http://www.w3.org/2000/svg" xml:space="preserve" width="40mm" height="60mm" version="1.1" style="shape-rendering:geometricPrecision; text-rendering:geometricPrecision; image-rendering:optimizeQuality; fill-rule:evenodd; clip-rule:evenodd"
viewBox="0 0 4000 6000"
 xmlns:xlink="http://www.w3.org/1999/xlink">
 <defs>
  <style type="text/css">
   <![CDATA[
    .str0 {stroke:black;stroke-width:10}
    .fil0 {fill:none}
   ]]>
  </style>
 </defs>
 <g id="图层_x0020_1">
  <metadata id="CorelCorpID_0Corel-Layer"/>
  <path class="fil0 str0" d="M921 5350l1993 0c122,0 221,-99 221,-221l0 -4258c0,-122 -99,-221 -221,-221l-1828 0c-122,0 -221,99 -221,221l0 4258c0,122 99,221 221,221l102 0m1099 -4554c0,-5 -4,-10 -14,-10 -33,0 -61,27 -61,61 0,33 28,60 61,60 34,0 61,-27 61,-60 0,-34 -27,-61 -61,-61m-292 51c-5,-18 -15,-32 -60,-32l-39 0c-20,0 -36,16 -36,36l0 0c0,21 16,37 36,37l237 0c20,0 37,-16 37,-37l0 0c0,-20 -17,-36 -37,-36l-198 0"/>
 </g>
</svg>
