<?xml version="1.0" encoding="UTF-8"?>
<!DOCTYPE svg PUBLIC "-//W3C//DTD SVG 1.1//EN" "http://www.w3.org/Graphics/SVG/1.1/DTD/svg11.dtd">
<!-- Creator: CorelDRAW 2020 (64-Bit) -->
<svg xmlns="http://www.w3.org/2000/svg" xml:space="preserve" width="40mm" height="60mm" version="1.1" style="shape-rendering:geometricPrecision; text-rendering:geometricPrecision; image-rendering:optimizeQuality; fill-rule:evenodd; clip-rule:evenodd"
viewBox="0 0 4000 6000"
 xmlns:xlink="http://www.w3.org/1999/xlink"
 xmlns:xodm="http://www.corel.com/coreldraw/odm/2003">
 <defs>
  <style type="text/css">
   <![CDATA[
    .str0 {stroke:black;stroke-width:7.62;stroke-miterlimit:22.9256}
    .fil0 {fill:none}
   ]]>
  </style>
 </defs>
 <g id="图层_x0020_1">
  <metadata id="CorelCorpID_0Corel-Layer"/>
  <path class="fil0 str0" d="M1059.13 5335.63l1768.01 0c106.32,0 193.35,-87.02 193.35,-193.36l0 -4293.24c0,-106.34 -87.01,-193.36 -193.35,-193.36l-717.63 0c-21.32,0 -38.71,17.39 -38.71,38.7l0 22.75c0,40.94 -33.49,74.43 -74.42,74.43l0 0c-40.94,0 -74.43,-33.5 -74.43,-74.43l0 -22.75c0,-21.3 -17.39,-38.7 -38.7,-38.7l-723.59 0c-106.34,0 -193.35,87.01 -193.35,193.36l0 4293.24c0,106.35 87.02,193.36 193.35,193.36l29.11 0c61.37,0 96.81,10.77 100.42,20.04"/>
 </g>
</svg>
