<?xml version="1.0" encoding="UTF-8"?>
<!DOCTYPE svg PUBLIC "-//W3C//DTD SVG 1.1//EN" "http://www.w3.org/Graphics/SVG/1.1/DTD/svg11.dtd">
<!-- Creator: CorelDRAW 2020 (64-Bit) -->
<svg xmlns="http://www.w3.org/2000/svg" xml:space="preserve" width="40mm" height="60mm" version="1.1" style="shape-rendering:geometricPrecision; text-rendering:geometricPrecision; image-rendering:optimizeQuality; fill-rule:evenodd; clip-rule:evenodd"
viewBox="0 0 4000 6000"
 xmlns:xlink="http://www.w3.org/1999/xlink"
 xmlns:xodm="http://www.corel.com/coreldraw/odm/2003">
 <defs>
  <style type="text/css">
   <![CDATA[
    .str0 {stroke:#332C2B;stroke-width:7.62;stroke-miterlimit:22.9256}
    .fil0 {fill:none}
   ]]>
  </style>
 </defs>
 <g id="图层_x0020_1">
  <metadata id="CorelCorpID_0Corel-Layer"/>
  <path class="fil0 str0" d="M992.39 5327.74l1826.84 0c169.49,0 308.17,-138.68 308.17,-308.16l0 -4055.74c0,-169.49 -138.67,-308.17 -308.17,-308.17l-593.72 0c-2.49,0 -4.65,0.89 -6.41,2.66l-3.76 3.75c-1.77,1.77 -3.92,2.66 -6.42,2.66l-115.69 0c-19.98,0 -36.28,16.3 -36.28,36.29l0 53.32c0,37.42 -30.62,68.04 -68.04,68.04l-0.01 0c-37.42,0 -68.03,-30.62 -68.03,-68.04l0 -53.32c0,-19.99 -16.31,-36.29 -36.29,-36.29l-115.69 0c-2.5,0 -4.65,-0.89 -6.42,-2.66l-3.75 -3.75c-1.77,-1.77 -3.92,-2.66 -6.42,-2.66l-584.73 0c-169.5,0 -308.17,138.67 -308.17,308.17l0 4055.74c0,169.49 138.68,308.16 308.17,308.16l48.85 0c97.61,0 126.28,15.32 140.02,27.93"/>
 </g>
</svg>
