<?xml version="1.0" encoding="UTF-8"?>
<!DOCTYPE svg PUBLIC "-//W3C//DTD SVG 1.1//EN" "http://www.w3.org/Graphics/SVG/1.1/DTD/svg11.dtd">
<!-- Creator: CorelDRAW 2020 (64-Bit) -->
<svg xmlns="http://www.w3.org/2000/svg" xml:space="preserve" width="40mm" height="60mm" version="1.1" style="shape-rendering:geometricPrecision; text-rendering:geometricPrecision; image-rendering:optimizeQuality; fill-rule:evenodd; clip-rule:evenodd"
viewBox="0 0 4000 6000"
 xmlns:xlink="http://www.w3.org/1999/xlink"
 xmlns:xodm="http://www.corel.com/coreldraw/odm/2003">
 <defs>
  <style type="text/css">
   <![CDATA[
    .str0 {stroke:#332C2B;stroke-width:20;stroke-miterlimit:22.9256}
    .fil0 {fill:none}
   ]]>
  </style>
 </defs>
 <g id="图层_x0020_1">
  <metadata id="CorelCorpID_0Corel-Layer"/>
  <path class="fil0 str0" d="M-43791.65 6409.97l0 -283.23c439.94,-0.09 799.84,-360.05 799.84,-800l0 -5671.67c0,-439.95 -359.9,-799.92 -799.84,-800.01l0 -220.1c0,-27.49 -22.47,-50 -49.99,-50l-8259.57 0 0 92.64c0,55 -44.98,99.99 -100,99.99l-2334.42 0c-55.02,0 -100,-44.99 -100,-99.99l0 -92.64 -3596.43 0c-27.52,0 -49.99,22.51 -49.99,50l0 220.11c-439.8,0.25 -799.55,360.15 -799.55,800l0 5671.67c0,439.85 359.75,799.74 799.55,799.99l0 220.12c0,27.5 22.47,49.99 49.99,49.99l4760.59 0 0 -95.95c0,-55 44.99,-99.99 99.99,-99.99l1149.4 0c55,0 99.99,44.99 99.99,99.99l0 95.95 8280.45 0c27.52,0 49.99,-22.49 49.99,-49.99 0,-27.5 7.05,-94.99 28.14,-112.77"/>
  <path class="fil0 str0" d="M-58482.14 4600.81c0,549.53 445.49,995.02 995.02,995.02 549.53,0 995.02,-445.49 995.02,-995.02 0,-549.53 -445.49,-995.02 -995.02,-995.02 -549.53,0 -995.02,445.49 -995.02,995.02 0,549.53 450.14,588.6 496.44,591.25"/>
  <path class="fil0 str0" d="M-56305.13 4600.81c0,549.53 445.49,995.02 995.02,995.02 549.53,0 995.02,-445.49 995.02,-995.02 0,-549.53 -445.49,-995.02 -995.02,-995.02 -549.53,0 -995.02,445.49 -995.02,995.02 0,549.53 450.14,588.6 496.44,591.25"/>
  <path class="fil0 str0" d="M-57917.6 2836.86c0,237.47 192.51,429.98 429.98,429.98 237.47,0 429.98,-192.51 429.98,-429.98 0,-237.47 -192.51,-429.98 -429.98,-429.98 -237.47,0 -429.98,192.51 -429.98,429.98 0,237.47 194.52,254.35 214.53,255.5"/>
  <path class="fil0 str0" d="M-55740.06 2836.86c0,238.19 193.09,431.28 431.28,431.28 238.19,0 431.28,-193.09 431.28,-431.28 0,-238.19 -193.09,-431.28 -431.28,-431.28 -238.19,0 -431.28,193.09 -431.28,431.28 0,238.19 195.11,255.12 215.18,256.27"/>
  <g id="_2382777495616">
   <path class="fil0 str0" d="M850.51 5122.03l82.74 0c0.02,128.51 105.17,233.64 233.69,233.64l1656.75 0c128.52,0 233.67,-105.13 233.69,-233.64l64.3 0c8.03,0 14.6,-6.57 14.6,-14.61l0 -2412.7 -27.06 0c-16.06,0 -29.21,-13.14 -29.21,-29.22l0 -681.9c0,-16.08 13.15,-29.22 29.21,-29.22l27.06 0 0 -1050.55c0,-8.04 -6.57,-14.6 -14.6,-14.6l-64.3 0c-0.07,-128.47 -105.2,-233.56 -233.69,-233.56l-1656.75 0c-128.49,0 -233.62,105.09 -233.69,233.56l-64.3 0c-8.03,0 -14.6,6.56 -14.6,14.6l0 1390.62 28.03 0c16.06,0 29.21,13.14 29.21,29.21l0 335.75c0,16.06 -13.15,29.21 -29.21,29.21l-28.03 0 0 2418.8c0,8.04 6.57,14.61 14.6,14.61 8.03,0 27.75,2.06 32.94,8.22"/>
   <path class="fil0 str0" d="M1378.99 830.78c-160.52,0 -290.66,130.13 -290.66,290.65 0,160.53 130.14,290.66 290.66,290.66 160.52,0 290.65,-130.13 290.65,-290.66 0,-160.52 -130.13,-290.65 -290.65,-290.65 -160.52,0 -171.94,131.49 -172.71,145.01"/>
   <path class="fil0 str0" d="M1378.99 1466.71c-160.52,0 -290.66,130.13 -290.66,290.65 0,160.52 130.14,290.66 290.66,290.66 160.52,0 290.65,-130.14 290.65,-290.66 0,-160.52 -130.13,-290.65 -290.65,-290.65 -160.52,0 -171.94,131.49 -172.71,145.01"/>
   <path class="fil0 str0" d="M1894.26 995.69c-69.37,0 -125.6,56.23 -125.6,125.6 0,69.36 56.23,125.6 125.6,125.6 69.37,0 125.6,-56.24 125.6,-125.6 0,-69.37 -56.23,-125.6 -125.6,-125.6 -69.37,0 -74.3,56.82 -74.64,62.66"/>
   <path class="fil0 str0" d="M1894.26 1631.77c-69.58,0 -125.98,56.4 -125.98,125.98 0,69.58 56.4,125.98 125.98,125.98 69.57,0 125.98,-56.4 125.98,-125.98 0,-69.58 -56.41,-125.98 -125.98,-125.98 -69.58,0 -74.53,56.99 -74.86,62.85"/>
  </g>
 </g>
</svg>
