<?xml version="1.0" encoding="UTF-8"?>
<!DOCTYPE svg PUBLIC "-//W3C//DTD SVG 1.1//EN" "http://www.w3.org/Graphics/SVG/1.1/DTD/svg11.dtd">
<!-- Creator: CorelDRAW X8 -->
<svg xmlns="http://www.w3.org/2000/svg" xml:space="preserve" width="40mm" height="60mm" version="1.1" style="shape-rendering:geometricPrecision; text-rendering:geometricPrecision; image-rendering:optimizeQuality; fill-rule:evenodd; clip-rule:evenodd"
viewBox="0 0 4000 6000"
 xmlns:xlink="http://www.w3.org/1999/xlink">
 <defs>
  <style type="text/css">
   <![CDATA[
    .str0 {stroke:black;stroke-width:7.62}
    .fil0 {fill:none}
   ]]>
  </style>
 </defs>
 <g id="Capa_x0020_1">
  <metadata id="CorelCorpID_0Corel-Layer"/>
  <path class="fil0 str0" d="M2049 710l0 -4 0 4zm0 -4l0 -33c0,-11 10,-23 21,-23l667 0c311,0 328,150 328,333l0 4034c0,183 -14,333 -328,333l-1474 0c-317,0 -328,-150 -328,-333l0 -4034c0,-183 14,-333 328,-333m0 0c224,0 444,0 668,0 11,0 21,10 21,22l0 38c0,25 22,46 49,46 26,0 48,-21 48,-46l0 -4 0 0m-97 4c0,25 22,46 49,46 26,0 48,-21 48,-46l0 -4"/>
 </g>
</svg>
