<?xml version="1.0" encoding="UTF-8"?>
<!DOCTYPE svg PUBLIC "-//W3C//DTD SVG 1.1//EN" "http://www.w3.org/Graphics/SVG/1.1/DTD/svg11.dtd">
<!-- Creator: CorelDRAW -->
<svg xmlns="http://www.w3.org/2000/svg" xml:space="preserve" width="40mm" height="60mm" style="shape-rendering:geometricPrecision; text-rendering:geometricPrecision; image-rendering:optimizeQuality; fill-rule:evenodd; clip-rule:evenodd"
viewBox="0 0 40 60"
 xmlns:xlink="http://www.w3.org/1999/xlink">
 <defs>
  <style type="text/css">
   <![CDATA[
    .str0 {stroke:#1F1A17;stroke-width:0.2}
    .fil0 {fill:none}
   ]]>
  </style>
 </defs>
 <g id="图层_x0020_2">
  <metadata id="CorelCorpID_0Corel-Layer"/>
  <path class="fil0 str0" d="M10.5248 6.6961l1.2515 -0.0134c0.4049,-0.0044 0.4313,-0.0851 0.5484,0.3035l0.257 0.8528c0.1019,0.3382 0.074,0.3084 0.4273,0.3051l8.7632 -0.0809c0.3245,-0.003 0.2904,0.0165 0.3642,-0.2995l0.2135 -0.9145c0.0717,-0.3073 0.0449,-0.2461 0.3604,-0.2512l6.0785 -0.098c1.2709,-0.0205 2.5595,1.467 2.5724,2.7358l0.4249 41.757c0.0129,1.2695 -1.4,2.5072 -2.6704,2.5072l-18.5255 -0.0001c-1.2685,0 -2.0732,-1.236 -2.0822,-2.5071l-0.2941 -41.757c-0.0089,-1.271 1.04,-2.5261 2.3109,-2.5397z"/>
 </g>
</svg>
