<?xml version="1.0" encoding="UTF-8"?>
<!DOCTYPE svg PUBLIC "-//W3C//DTD SVG 1.1//EN" "http://www.w3.org/Graphics/SVG/1.1/DTD/svg11.dtd">
<!-- Creator: CorelDRAW X8 -->
<svg xmlns="http://www.w3.org/2000/svg" xml:space="preserve" width="40mm" height="60mm" version="1.1" style="shape-rendering:geometricPrecision; text-rendering:geometricPrecision; image-rendering:optimizeQuality; fill-rule:evenodd; clip-rule:evenodd"
viewBox="0 0 4000 6000"
 xmlns:xlink="http://www.w3.org/1999/xlink">
 <defs>
  <style type="text/css">
   <![CDATA[
    .str0 {stroke:#332C2B;stroke-width:7.62}
    .fil0 {fill:none}
   ]]>
  </style>
 </defs>
 <g id="图层_x0020_1">
  <metadata id="CorelCorpID_0Corel-Layer"/>
  <path class="fil0 str0" d="M788 4853l167 0 0 19c0,148 121,269 269,269 13,0 13,15 1,17 -78,12 -155,25 -232,38l-239 39 0 115 2492 0 0 -115 -471 -77c-11,-2 -12,-17 1,-17 148,0 269,-121 269,-269l0 -19 115 0 0 -2710c0,-8 -5,-12 -13,-12 -13,0 -38,0 -50,0l0 0c-17,0 -31,-14 -31,-31l0 -435c0,-17 14,-31 31,-31 0,0 0,0 0,0 0,0 0,0 0,0 10,0 34,0 45,0 13,0 18,-11 18,-21 0,-156 0,-311 0,-466l-115 0 0 -19c0,-148 -121,-269 -269,-269 -14,0 -12,-15 1,-17 156,-26 313,-51 469,-77l0 -115 -2492 0 0 115 239 39 228 38c11,1 18,17 3,17 -148,0 -269,121 -269,269l0 19 -115 0 0 3706 31 0m1154 -3712c-1,-9 -9,-18 -25,-19 -58,0 -105,47 -105,105 0,58 47,105 105,105 58,0 105,-47 105,-105 0,-58 -47,-105 -105,-105m148 105l0 787c0,81 -67,148 -148,148l0 0c-81,0 -148,-67 -148,-148l0 -787c0,-82 67,-148 148,-148l0 0c81,0 148,66 148,148zm-22 787l0 -787c0,-70 -57,-127 -126,-127l0 0c-69,0 -126,57 -126,127l0 787c0,69 57,126 126,126l0 0c69,0 126,-57 126,-126zm256 -790l0 255c0,47 -39,86 -86,86 -47,0 -86,-39 -86,-86l0 -255c0,-47 39,-86 86,-86 47,0 86,39 86,86zm-22 25l0 -25c0,-35 -29,-64 -64,-64l0 0c-35,0 -65,29 -65,64l0 255c0,35 29,64 65,64l0 0c35,0 64,-29 64,-64l0 -230zm-336 151c-1,-9 -8,-17 -24,-18 -56,0 -101,45 -101,101 0,56 45,101 101,101 56,0 101,-45 101,-101 0,-56 -45,-101 -101,-101m24 271c-1,-8 -8,-16 -24,-18 -56,0 -101,45 -101,101 0,56 45,101 101,101 56,0 101,-45 101,-101 0,-56 -45,-101 -101,-101m25 289c0,-9 -8,-17 -25,-19 -59,0 -107,48 -107,108 0,59 48,107 107,107 59,0 107,-48 107,-107 0,-60 -48,-108 -107,-108m305 -717c0,-4 -3,-7 -10,-8 -24,0 -44,20 -44,44 0,25 20,44 44,44 24,0 44,-19 44,-44 0,-24 -20,-44 -44,-44m10 261c0,-3 -3,-7 -10,-7 -24,0 -44,19 -44,44 0,24 20,44 44,44 24,0 44,-20 44,-44 0,-25 -20,-44 -44,-44m-1390 505c15,-4 28,-12 28,-50l0 -32c0,-17 -14,-31 -31,-31l0 0c-17,0 -31,14 -31,31l0 492c0,17 14,31 31,31l0 0c17,0 31,-14 31,-31l0 -460m-28 718c15,-4 28,-12 28,-50l0 -32c0,-17 -14,-31 -31,-31l0 0c-17,0 -31,14 -31,31l0 215c0,17 14,31 31,31l0 0c17,0 31,-14 31,-31l0 -183m877 -1854c1,-17 -19,-30 -27,-31 -26,0 -47,21 -47,47 0,26 21,47 47,47 26,0 47,-21 47,-47 0,-26 -21,-47 -47,-47m-311 43c0,-9 -12,-17 -16,-17 -15,0 -27,12 -27,27 0,14 12,26 27,26 15,0 27,-12 27,-26 0,-15 -12,-27 -27,-27m1144 4520c1,-23 -25,-40 -35,-41 -34,0 -62,27 -62,62 0,34 28,61 62,61 34,0 62,-27 62,-61 0,-35 -28,-62 -62,-62m-1145 60c-5,-18 -15,-33 -60,-33l-44 0c-20,0 -37,17 -37,37l0 0c0,21 17,37 37,37l308 0c20,0 37,-16 37,-37l0 0c0,-20 -17,-37 -37,-37l-264 0m629 12c-4,-15 -9,-26 -35,-26l-21 0c-30,0 -54,24 -54,54l0 0c0,29 24,54 54,54l137 0c29,0 54,-24 54,-54l0 0c0,-30 -25,-54 -54,-54l-116 0m425 59c-4,-16 -12,-28 -50,-28l-25 0c-16,0 -30,14 -30,31l0 0c0,17 14,31 30,31l83 0c17,0 31,-14 31,-31l0 0c0,-17 -14,-31 -31,-31l-58 0"/>
 </g>
</svg>
