<?xml version="1.0" encoding="UTF-8"?>
<!DOCTYPE svg PUBLIC "-//W3C//DTD SVG 1.1//EN" "http://www.w3.org/Graphics/SVG/1.1/DTD/svg11.dtd">
<!-- Creator: CorelDRAW X8 -->
<svg xmlns="http://www.w3.org/2000/svg" xml:space="preserve" width="40mm" height="60mm" version="1.1" style="shape-rendering:geometricPrecision; text-rendering:geometricPrecision; image-rendering:optimizeQuality; fill-rule:evenodd; clip-rule:evenodd"
viewBox="0 0 4000 6000"
 xmlns:xlink="http://www.w3.org/1999/xlink">
 <defs>
  <style type="text/css">
   <![CDATA[
    .str0 {stroke:black;stroke-width:18;stroke-linejoin:bevel}
    .fil0 {fill:none}
   ]]>
  </style>
 </defs>
 <g id="图层_x0020_1">
  <metadata id="CorelCorpID_0Corel-Layer"/>
  <path class="fil0 str0" d="M883 5350c483,0 1428,0 1910,0 183,0 332,-149 332,-333 0,0 0,-1 0,-1 0,-16 14,-29 30,-29 0,0 163,0 163,0 16,0 30,-14 30,-30 0,0 0,-1659 0,-1659 0,-16 -14,-30 -30,-30 0,0 -47,0 -47,0 -33,0 -60,-26 -60,-59 0,0 0,-415 0,-415 0,-33 27,-59 60,-59 0,0 47,0 47,0 16,0 30,-14 30,-30 0,0 0,-91 0,-91 0,-16 -14,-29 -30,-29 0,0 -53,0 -53,0 -33,0 -60,-27 -60,-60 0,0 0,-1008 0,-1008 0,-32 27,-59 60,-59 0,0 53,0 53,0 16,0 30,-13 30,-30 0,0 0,-55 0,-55 0,0 0,-330 0,-330 0,-17 -14,-30 -30,-30 0,0 -163,0 -163,0 -16,0 -30,-13 -30,-29 0,0 0,-1 0,-1 0,-184 -149,-333 -332,-333 0,0 -7,0 -7,0l-1572 0c0,0 -7,0 -7,0 -183,0 -332,149 -332,333 0,0 0,1 0,1 0,16 -14,29 -30,29 0,0 -163,0 -163,0 -16,0 -30,13 -30,30 0,0 0,802 0,802 0,0 0,6 0,6 0,16 14,30 30,30 0,0 53,0 53,0 33,0 60,26 60,59 0,0 0,480 0,480 0,33 -27,60 -60,60 0,0 -53,0 -53,0 -16,0 -30,13 -30,29 0,0 0,82 0,82 0,0 0,2366 0,2366 0,16 14,30 30,30 0,0 163,0 163,0 16,0 30,13 30,29 0,0 0,1 0,1 0,184 149,333 332,333 47,0 93,0 139,0m-113 -3490c0,0 549,0 549,0 156,0 282,-125 282,-278 0,0 0,-601 0,-601 0,-153 -126,-278 -282,-278 0,0 -549,0 -549,0 -155,0 -281,125 -281,278 0,0 0,601 0,601 0,153 126,278 281,278z"/>
 </g>
</svg>
