<?xml version="1.0" encoding="UTF-8"?>
<!DOCTYPE svg PUBLIC "-//W3C//DTD SVG 1.1//EN" "http://www.w3.org/Graphics/SVG/1.1/DTD/svg11.dtd">
<!-- Creator: CorelDRAW 2020 (64-Bit) -->
<svg xmlns="http://www.w3.org/2000/svg" xml:space="preserve" width="40mm" height="60mm" version="1.1" style="shape-rendering:geometricPrecision; text-rendering:geometricPrecision; image-rendering:optimizeQuality; fill-rule:evenodd; clip-rule:evenodd"
viewBox="0 0 4000 6000"
 xmlns:xlink="http://www.w3.org/1999/xlink"
 xmlns:xodm="http://www.corel.com/coreldraw/odm/2003">
 <defs>
  <style type="text/css">
   <![CDATA[
    .str0 {stroke:#332C2B;stroke-width:20;stroke-miterlimit:22.9256}
    .str1 {stroke:#E62129;stroke-width:20;stroke-miterlimit:22.9256}
    .fil0 {fill:none}
   ]]>
  </style>
   <clipPath id="id0">
    <rect x="-95933.11" y="-10635.48" width="32373.27" height="25755.55"/>
   </clipPath>
 </defs>
 <g id="图层_x0020_1">
  <metadata id="CorelCorpID_0Corel-Layer"/>
  <g style="clip-path:url(#id0)">
   <image x="-95933.11" y="-10635.48" width="32373.27" height="25755.55" xlink:href="联想小新por 13.3  -11i（背膜）_Images\联想小新por 13.3  -11i（背膜）_ImgID1.png"/>
  </g>
  <path class="fil0 str0" d="M-28294.67 16877.35l21374.45 0c274.99,0 500,-225.02 500,-500l0 -29940c0,-275 -225,-500 -500,-500l-20839.99 0c-275.01,0 -500.01,225 -500.01,500l0 29940c0,274.99 225,500 500.01,500 275.01,0 365.72,60.37 429.22,131.81"/>
  <rect class="fil0 str1" x="-94801.02" y="-9192.85" width="30280.68" height="19112.04" rx="102.61" ry="99.99"/>
  <path class="fil0 str0" d="M339.01 5335.73l3233.15 0c41.6,0 75.63,-34.04 75.63,-75.63l0 -4528.8c0,-41.6 -34.03,-75.63 -75.63,-75.63l-3152.31 0c-41.59,0 -75.63,34.03 -75.63,75.63l0 4528.8c0,41.6 34.04,75.63 75.63,75.63 41.6,0 55.32,9.13 64.93,19.94"/>
 </g>
</svg>
