<?xml version="1.0" encoding="UTF-8"?>
<!DOCTYPE svg PUBLIC "-//W3C//DTD SVG 1.1//EN" "http://www.w3.org/Graphics/SVG/1.1/DTD/svg11.dtd">
<!-- Creator: CorelDRAW X8 -->
<svg xmlns="http://www.w3.org/2000/svg" xml:space="preserve" width="40mm" height="60mm" version="1.1" style="shape-rendering:geometricPrecision; text-rendering:geometricPrecision; image-rendering:optimizeQuality; fill-rule:evenodd; clip-rule:evenodd"
viewBox="0 0 4000 6000"
 xmlns:xlink="http://www.w3.org/1999/xlink">
 <defs>
  <style type="text/css">
   <![CDATA[
    .str0 {stroke:#332C2B;stroke-width:19.4}
    .fil0 {fill:none;fill-rule:nonzero}
   ]]>
  </style>
 </defs>
 <g id="图层_x0020_1">
  <metadata id="CorelCorpID_0Corel-Layer"/>
  <g id="_2125327550368">
   <g>
    <line class="fil0 str0" x1="3028" y1="650" x2="3028" y2= "679" />
    <line class="fil0 str0" x1="964" y1="5251" x2="964" y2= "5261" />
    <path class="fil0 str0" d="M964 5261c6,-1 9,-3 10,-10"/>
    <line class="fil0 str0" x1="974" y1="5251" x2="2837" y2= "5251" />
    <path class="fil0 str0" d="M2837 5251c61,-3 124,-41 157,-95 29,-47 34,-64 35,-128"/>
    <line class="fil0 str0" x1="3029" y1="5028" x2="3035" y2= "2950" />
    <path class="fil0 str0" d="M3035 2950c2,-693 2,-1385 -1,-2077 -4,-71 -29,-128 -75,-170 -43,-39 -82,-52 -149,-52"/>
    <line class="fil0 str0" x1="2810" y1="651" x2="1159" y2= "650" />
    <path class="fil0 str0" d="M1159 650c-82,8 -161,80 -181,167"/>
    <line class="fil0 str0" x1="978" y1="817" x2="979" y2= "5086" />
    <path class="fil0 str0" d="M979 5086c4,26 32,78 56,103 35,37 83,58 140,62"/>
    <line class="fil0 str0" x1="1175" y1="5251" x2="1217" y2= "5254" />
    <path class="fil0 str0" d="M1217 5254c87,9 140,33 209,96"/>
    <polyline class="fil0 str0" points="2001,748 2009,755 2010,753 "/>
    <path class="fil0 str0" d="M2010 753c0,-1 0,-2 1,-4 39,5 67,37 67,76 0,44 -35,79 -78,79 -53,0 -79,-26 -79,-78 0,-43 35,-78 78,-78 6,0 8,0 28,2"/>
   </g>
  </g>
 </g>
</svg>
