<?xml version="1.0" encoding="UTF-8"?>
<!DOCTYPE svg PUBLIC "-//W3C//DTD SVG 1.1//EN" "http://www.w3.org/Graphics/SVG/1.1/DTD/svg11.dtd">
<!-- Creator: CorelDRAW -->
<svg xmlns="http://www.w3.org/2000/svg" xml:space="preserve" width="40mm" height="60mm" style="shape-rendering:geometricPrecision; text-rendering:geometricPrecision; image-rendering:optimizeQuality; fill-rule:evenodd; clip-rule:evenodd"
viewBox="0 0 40 60"
 xmlns:xlink="http://www.w3.org/1999/xlink">
 <defs>
  <style type="text/css">
   <![CDATA[
    .str0 {stroke:#1F1A17;stroke-width:0.194}
    .fil0 {fill:none}
   ]]>
  </style>
 </defs>
 <g id="图层_x0020_1">
  <metadata id="CorelCorpID_0Corel-Layer"/>
  <g id="_555272456">
   <path id="_556448816" class="fil0 str0" d="M30.2602 52.6387c-6.1682,0 -12.3363,0.0011 -18.5044,0.0022 -0.4853,-0.0159 -0.7603,-0.0988 -1.108,-0.3329 -0.4136,-0.2807 -0.7568,-0.7682 -0.8443,-1.1978"/>
   <line id="_556257968" class="fil0 str0" x1="9.8035" y1="51.1102" x2="9.708" y2= "22.557" />
   <path id="_557472960" class="fil0 str0" d="M9.708 22.557c-0.0398,-12.3478 -0.0284,-14.1955 0.0932,-14.5273 0.2364,-0.6454 0.4841,-0.9739 0.9466,-1.2545"/>
   <line id="_557472528" class="fil0 str0" x1="10.7478" y1="6.7752" x2="10.7807" y2= "6.7547" />
   <path id="_557472696" class="fil0 str0" d="M10.7807 6.7547c0.4205,-0.2545 0.4205,-0.2545 4.0671,-0.2545"/>
   <line id="_557472984" class="fil0 str0" x1="14.8478" y1="6.5002" x2="15.1353" y2= "6.5002" />
   <path id="_555274832" class="fil0 str0" d="M15.1353 6.5002c2.1818,0 2.8,0.0045 3.1295,0.025 0.3296,0.0193 0.4534,0.059 0.6262,0.1988 0.2431,0.1978 0.3125,0.35 0.3852,0.85"/>
   <path id="_557472720" class="fil0 str0" d="M19.2762 7.574l-0.008 0.008 0 0.0079 0.008 -0.0079m0 -0.008z"/>
   <path id="_556257632" class="fil0 str0" d="M19.2762 7.582c0.0057,0.3818 0.3523,0.6954 0.7693,0.6954 0.4693,0 0.7966,-0.3659 0.8011,-0.8966"/>
   <line id="_556449344" class="fil0 str0" x1="20.8466" y1="7.3808" x2="20.8546" y2= "7.3888" />
   <path id="_259744368" class="fil0 str0" d="M20.8546 7.3888c0.0829,-0.5011 0.3943,-0.8239 0.8284,-0.8591"/>
   <line id="_557754336" class="fil0 str0" x1="21.683" y1="6.5297" x2="28.6784" y2= "6.5774" />
   <path id="_557754552" class="fil0 str0" d="M28.6784 6.5774c0.6705,0.0046 1.5557,0.8648 1.6204,1.5751"/>
   <path id="_557754456" class="fil0 str0" d="M30.2988 8.1525l0.0137 0.4499 -0.0875 42.0942 0.0398 0.4011m0.034 -42.9452z"/>
   <path id="_557754768" class="fil0 str0" d="M30.2648 51.0977c0.0011,0.0091 0.0023,0.0182 0.0023,0.0273 0,0.225 -0.2557,0.6807 -0.5387,0.9614 -0.3136,0.3114 -0.6261,0.458 -1.142,0.5364"/>
   <line id="_557754096" class="fil0 str0" x1="28.5864" y1="52.6228" x2="28.35" y2= "52.6648" />
   <path id="_557754480" class="fil0 str0" d="M28.35 52.6648c-0.3921,0.0932 -0.6443,0.2977 -1.0296,0.8352"/>
  </g>
 </g>
</svg>
