<?xml version="1.0" encoding="UTF-8"?>
<!DOCTYPE svg PUBLIC "-//W3C//DTD SVG 1.1//EN" "http://www.w3.org/Graphics/SVG/1.1/DTD/svg11.dtd">
<!-- Creator: CorelDRAW 2020 (64-Bit) -->
<svg xmlns="http://www.w3.org/2000/svg" xml:space="preserve" width="40mm" height="60mm" version="1.1" style="shape-rendering:geometricPrecision; text-rendering:geometricPrecision; image-rendering:optimizeQuality; fill-rule:evenodd; clip-rule:evenodd"
viewBox="0 0 4000 6000"
 xmlns:xlink="http://www.w3.org/1999/xlink"
 xmlns:xodm="http://www.corel.com/coreldraw/odm/2003">
 <defs>
  <style type="text/css">
   <![CDATA[
    .str0 {stroke:#332C2B;stroke-width:7.62;stroke-miterlimit:22.9256}
    .fil0 {fill:none}
   ]]>
  </style>
 </defs>
 <g id="图层_x0020_1">
  <metadata id="CorelCorpID_0Corel-Layer"/>
  <path class="fil0 str0" d="M-19843.62 835.94c50.22,-407.55 375.68,-732.99 783.22,-783.23l0 -156.78 -1650 0 0 -730 1650 0 109.58 0 0 363.26c0,55 45,100 100,100l1800 0c55,0 100,-44.99 100,-100l0 -363.26 11759.21 0 351.21 0 1700 0 0 730 -1700 0 0 156.78c407.54,50.24 733,375.68 783.22,783.23l806.78 0 0 5449.99 -806.78 0c-50.23,407.54 -375.68,732.98 -783.22,783.22l0 156.78 1700 0 0 730 -1700 0 -351.21 0 -13575.24 0 -293.55 0 -1650 0 0 -730 1650 0 0 -156.78c-407.54,-50.24 -732.99,-375.68 -783.22,-783.22l-856.78 0 0 -5449.99 856.78 0z"/>
  <path class="fil0 str0" d="M-16258.54 3435.62c-44.99,3.37 -87.07,43.02 -93.42,125.3 0,292.71 237.29,530 530,530 292.71,0 530,-237.29 530,-530 0,-292.71 -237.29,-530 -530,-530 -292.71,0 -530,237.29 -530,530"/>
  <path class="fil0 str0" d="M-19450.99 6061.84l0 0c0,-313.5 256.51,-570 570,-570l3040.01 0c313.49,0 569.99,256.5 569.99,570l0 0c0,313.5 -256.5,570 -569.99,570l-3040.01 0c-313.49,0 -570,-256.5 -570,-570z"/>
  <path class="fil0 str0" d="M-19350.99 6061.84l0 0c0,-258.5 211.51,-470 470.01,-470l3039.99 0c258.5,0 470,211.5 470,470l0 0c0,258.5 -211.5,470 -470,470l-3039.99 0c-258.5,0 -470.01,-211.5 -470.01,-470z"/>
  <path class="fil0 str0" d="M-19179.76 5981.84c-29.72,2.23 -57.51,28.41 -61.7,82.75 0,193.3 156.7,350 350,350 193.3,0 350,-156.7 350,-350 0,-193.3 -156.7,-350 -350,-350 -193.3,0 -350,156.7 -350,350"/>
  <path class="fil0 str0" d="M-18134.6 5981.84c-29.72,2.23 -57.51,28.41 -61.7,82.75 0,193.3 156.7,350 350,350 193.3,0 350,-156.7 350,-350 0,-193.3 -156.7,-350 -350,-350 -193.3,0 -350,156.7 -350,350"/>
  <path class="fil0 str0" d="M-17139.44 5981.84c-29.72,2.23 -57.51,28.41 -61.7,82.75 0,193.3 156.7,350 350,350 193.3,0 350,-156.7 350,-350 0,-193.3 -156.7,-350 -350,-350 -193.3,0 -350,156.7 -350,350"/>
  <path class="fil0 str0" d="M-16224.28 5981.84c-29.72,2.23 -57.51,28.41 -61.7,82.75 0,193.3 156.7,350 350,350 193.3,0 350,-156.7 350,-350 0,-193.3 -156.7,-350 -350,-350 -193.3,0 -350,156.7 -350,350"/>
  <path class="fil0 str0" d="M-18871.18 5054.93c-11.15,-41.63 -26.32,-72.19 -97.77,-72.19l-59.23 0c-82.5,0 -149.99,67.49 -149.99,149.98l0 0.04c0,82.49 67.49,149.98 149.99,149.98l300.02 0c82.5,0 149.99,-67.49 149.99,-149.98l0 -0.04c0,-82.49 -67.49,-149.98 -149.99,-149.98l-240.79 0"/>
  <path class="fil0 str0" d="M-16973.16 7510.04l0 -0.03c0,-68.74 56.24,-124.99 124.99,-124.99l2070.02 0c68.75,0 124.99,56.25 124.99,124.99l0 0.03c0,68.74 -56.24,124.98 -124.99,124.98l-2070.02 0c-68.75,0 -124.99,-56.24 -124.99,-124.98z"/>
  <path class="fil0 str0" d="M-13013.16 7510.04l0 -0.03c0,-68.74 -56.23,-124.99 -124.99,-124.99l-930.01 0c-68.76,0 -124.99,56.25 -124.99,124.99l0 0.03c0,68.74 56.23,124.98 124.99,124.98l930.01 0c68.76,0 124.99,-56.24 124.99,-124.98z"/>
  <path class="fil0 str0" d="M-20603.86 4736.82c0,-88.37 71.63,-160 160,-160 88.37,0 160,71.63 160,160 0,88.37 -71.63,160 -160,160 -88.37,0 -160,-71.63 -160,-160z"/>
  <path class="fil0 str0" d="M-20605.5 1671.62c0,-69.04 55.96,-125 125,-125 69.04,0 125,55.96 125,125 0,69.04 -55.96,125 -125,125 -69.04,0 -125,-55.96 -125,-125z"/>
  <path class="fil0 str0" d="M-3393.85 1278.06c0,110.46 -89.54,200 -200,200 -110.46,0 -200,-89.54 -200,-200 0,-110.46 89.54,-200 200,-200 110.46,0 200,89.54 200,200z"/>
  <path class="fil0 str0" d="M-3413.85 3160.9l0 600.02c0,99 -81,179.99 -179.99,179.99l0 0c-99,0 -180.01,-80.99 -180.01,-179.99l0 -600.02c0,-99 81.01,-179.99 180.01,-179.99l0 0c98.99,0 179.99,80.99 179.99,179.99z"/>
  <path class="fil0 str0" d="M-3463.85 4607.48l0 1240.01c0,71.49 -58.5,130 -129.99,130l0 0c-71.51,0 -130.01,-58.51 -130.01,-130l0 -1240.01c0,-71.49 58.5,-129.99 130.01,-129.99l0 0c71.49,0 129.99,58.5 129.99,129.99z"/>
  <path class="fil0 str0" d="M-3373.85 2270.55l0 0.02c0,60.5 -49.49,109.99 -109.99,109.99l-220.02 0c-60.5,0 -109.99,-49.49 -109.99,-109.99l0 -0.02c0,-60.5 49.49,-109.99 109.99,-109.99l220.02 0c60.5,0 109.99,49.49 109.99,109.99z"/>
  <path class="fil0 str0" d="M2345.18 5287.55l-0.01 0c-16.18,0 -29.42,-13.24 -29.42,-29.42l0 -58.86c0,-16.18 13.24,-29.42 29.42,-29.42l0.01 0c16.18,0 29.42,13.24 29.42,29.42l0 58.86c0,16.18 -13.24,29.42 -29.42,29.42zm-625.13 -24.07l-331.71 0c-19.12,0 -34.77,-15.65 -34.77,-34.78l0 0c0,-19.12 15.65,-34.77 34.77,-34.77l331.71 0c19.12,0 34.77,15.65 34.77,34.77l0 0c0,19.13 -15.65,34.78 -34.77,34.78zm386.96 13.37l-160.51 0c-26.48,0 -48.15,-21.67 -48.15,-48.15l0 0c0,-26.48 21.67,-48.15 48.15,-48.15l160.51 0c26.48,0 48.15,21.67 48.15,48.15l0 0c0,26.48 -21.67,48.15 -48.15,48.15zm503.66 5.35c-29.55,0 -53.5,-23.95 -53.5,-53.5 0,-29.55 23.95,-53.5 53.5,-53.5 29.55,0 53.5,23.95 53.5,53.5 0,29.55 -23.95,53.5 -53.5,53.5zm28.49 -4604.14c18.46,0 33.43,14.97 33.43,33.44 0,18.47 -14.97,33.44 -33.43,33.44 -18.47,0 -33.44,-14.97 -33.44,-33.44 0,-18.47 14.97,-33.44 33.44,-33.44zm-886.83 0.44c23.64,0 42.8,19.16 42.8,42.8 0,23.64 -19.16,42.8 -42.8,42.8 -23.64,0 -42.8,-19.16 -42.8,-42.8 0,-23.64 19.16,-42.8 42.8,-42.8zm-808.72 2030.52l0 0c18.39,0 33.44,-15.04 33.44,-33.43l0 -248.78c0,-18.39 -15.05,-33.44 -33.44,-33.44l0 0c-18.39,0 -33.44,15.05 -33.44,33.44l0 248.78c0,18.39 15.05,33.43 33.44,33.43zm0 -1059.3l0 0c18.39,0 33.44,15.04 33.44,33.43l0 553.74c0,18.39 -15.05,33.43 -33.44,33.43l0 0c-18.39,0 -33.44,-15.04 -33.44,-33.43l0 -553.74c0,-18.39 15.05,-33.43 33.44,-33.43zm656.74 -507.73c11.14,-2.98 19.31,-7.04 19.31,-26.15l0 -15.84c0,-22.07 -18.05,-40.13 -40.12,-40.13l-0.01 0c-22.06,0 -40.12,18.06 -40.12,40.13l0 80.25c0,22.07 18.06,40.12 40.12,40.12l0.01 0c22.07,0 40.12,-18.05 40.12,-40.12l0 -64.41m-267.26 734.2c-0.59,-7.95 -7.6,-15.38 -22.13,-16.5 -51.71,0 -93.63,41.92 -93.63,93.62 0,51.71 41.92,93.63 93.63,93.63 51.7,0 93.62,-41.92 93.62,-93.63 0,-51.7 -41.92,-93.62 -93.62,-93.62m22.13 -228.3c-0.59,-7.95 -7.6,-15.39 -22.13,-16.51 -51.71,0 -93.63,41.92 -93.63,93.63 0,51.71 41.92,93.62 93.63,93.62 51.7,0 93.62,-41.91 93.62,-93.62 0,-51.71 -41.92,-93.63 -93.62,-93.63m22.13 -249.7c-0.59,-7.95 -7.6,-15.38 -22.13,-16.5 -51.71,0 -93.63,41.91 -93.63,93.62 0,51.71 41.92,93.63 93.63,93.63 51.7,0 93.62,-41.92 93.62,-93.63 0,-51.71 -41.92,-93.62 -93.62,-93.62m22.13 -263.08c-0.59,-7.95 -7.6,-15.39 -22.13,-16.51 -51.71,0 -93.63,41.92 -93.63,93.63 0,51.71 41.92,93.62 93.63,93.62 51.7,0 93.62,-41.91 93.62,-93.62 0,-51.71 -41.92,-93.63 -93.62,-93.63m0.73 -29.3l0 0c69.15,0 125.73,56.58 125.73,125.73l0 813.2c0,69.15 -56.58,125.73 -125.73,125.73l0 0c-69.15,0 -125.72,-56.58 -125.72,-125.73l0 -813.2c0,-69.15 56.57,-125.73 125.72,-125.73zm0 -26.75l0 0c83.86,0 152.48,68.62 152.48,152.48l0 813.21c0,83.86 -68.62,152.47 -152.48,152.47l0 0c-83.86,0 -152.47,-68.61 -152.47,-152.47l0 -813.21c0,-83.86 68.61,-152.48 152.47,-152.48zm729.27 853.99c-0.9,-12.04 -11.51,-23.29 -33.52,-24.99 -78.3,0 -141.78,63.47 -141.78,141.77 0,78.31 63.48,141.78 141.78,141.78 78.3,0 141.78,-63.47 141.78,-141.78 0,-78.3 -63.48,-141.77 -141.78,-141.77m702.19 -934.03c109.02,13.44 196.08,100.5 209.51,209.52l41.94 0 0 -441.38 195.28 0 0 441.38 0 29.31 -97.17 0c-14.72,0 -26.75,12.04 -26.75,26.75l0 481.5c0,14.72 12.03,26.75 26.75,26.75l97.17 0 0 3145.61 0 93.95 0 454.75 -195.28 0 0 -454.75 -41.94 0c-13.43,109.02 -100.49,196.08 -209.51,209.51l0 215.81 -1457.88 0 0 -215.81c-109.02,-13.44 -196.08,-100.49 -209.51,-209.51l-41.94 0 0 454.75 -195.28 0 0 -454.75 0 -93.95 0 -3631.4 0 -78.52 0 -441.38 195.28 0 0 441.38 41.94 0c13.43,-109.02 100.49,-196.08 209.51,-209.52l0 -229.18 1457.88 0 0 229.18z"/>
 </g>
</svg>
