<?xml version="1.0" encoding="UTF-8"?>
<!DOCTYPE svg PUBLIC "-//W3C//DTD SVG 1.1//EN" "http://www.w3.org/Graphics/SVG/1.1/DTD/svg11.dtd">
<!-- Creator: CorelDRAW X8 -->
<svg xmlns="http://www.w3.org/2000/svg" xml:space="preserve" width="40mm" height="60mm" version="1.1" style="shape-rendering:geometricPrecision; text-rendering:geometricPrecision; image-rendering:optimizeQuality; fill-rule:evenodd; clip-rule:evenodd"
viewBox="0 0 4000 6000"
 xmlns:xlink="http://www.w3.org/1999/xlink">
 <defs>
  <style type="text/css">
   <![CDATA[
    .str0 {stroke:#332C2B;stroke-width:7.62;stroke-linejoin:bevel}
    .fil0 {fill:none}
   ]]>
  </style>
 </defs>
 <g id="图层_x0020_1">
  <metadata id="CorelCorpID_0Corel-Layer"/>
  <g id="_2514241884176">
   <path class="fil0 str0" d="M3175 1009l-108 0c-8,0 -15,3 -21,9 -5,5 -8,13 -8,20l0 270c0,8 3,15 8,20 6,6 13,9 21,9l108 0c8,0 15,-3 21,-9 5,-5 8,-12 8,-20l0 -270c0,-7 -3,-15 -8,-20 -6,-6 -13,-9 -21,-9z"/>
   <path class="fil0 str0" d="M3298 5075c0,63 -47,116 -110,123 -800,91 -1604,142 -2409,152 -20,0 -40,-8 -55,-22 -14,-14 -22,-34 -22,-55l0 -4546c0,-21 8,-40 22,-55 15,-14 35,-22 55,-22 805,10 1609,61 2409,152 63,7 110,60 110,123l0 4150z"/>
  </g>
 </g>
</svg>
