<?xml version="1.0" encoding="UTF-8"?>
<!DOCTYPE svg PUBLIC "-//W3C//DTD SVG 1.1//EN" "http://www.w3.org/Graphics/SVG/1.1/DTD/svg11.dtd">
<!-- Creator: CorelDRAW 2020 (64-Bit) -->
<svg xmlns="http://www.w3.org/2000/svg" xml:space="preserve" width="40mm" height="60mm" version="1.1" style="shape-rendering:geometricPrecision; text-rendering:geometricPrecision; image-rendering:optimizeQuality; fill-rule:evenodd; clip-rule:evenodd"
viewBox="0 0 4000 6000"
 xmlns:xlink="http://www.w3.org/1999/xlink"
 xmlns:xodm="http://www.corel.com/coreldraw/odm/2003">
 <defs>
  <style type="text/css">
   <![CDATA[
    .str0 {stroke:black;stroke-width:7.62;stroke-miterlimit:22.9256}
    .fil0 {fill:none}
   ]]>
  </style>
 </defs>
 <g id="图层_x0020_1">
  <metadata id="CorelCorpID_0Corel-Layer"/>
  <path class="fil0 str0" d="M2358.98 787.72c2.83,-18.18 -12.46,-30.93 -20.04,-31.51 -26.99,0 -48.86,21.87 -48.86,48.85 0,26.98 21.87,48.86 48.86,48.86 26.98,0 48.85,-21.88 48.85,-48.86 0,-26.98 -21.87,-48.85 -48.85,-48.85m-360.31 41.56c-4.93,-18.41 -14.99,-33.03 -60.26,-33.03l-38.73 0c-20.36,0 -37.01,16.66 -37.01,37.01l0 0.01c0,20.34 16.65,37.01 37.01,37.01l214.86 0c20.36,0 37.01,-16.66 37.01,-37.01l0 -0.01c0,-20.35 -16.67,-37.01 -37.01,-37.01l-176.13 0m-846.54 4569.06l1744.91 0c141.55,0 257.37,-115.82 257.37,-257.37l0 -4163.39c0,-141.55 -115.82,-257.37 -257.37,-257.37l-1646.68 0c-141.55,0 -257.37,115.82 -257.37,257.37l0 4163.39c0,141.55 115.82,257.37 257.37,257.37l70.2 0c87.07,0 140.44,10.62 152.76,21.87"/>
 </g>
</svg>
