<?xml version="1.0" encoding="UTF-8"?>
<!DOCTYPE svg PUBLIC "-//W3C//DTD SVG 1.1//EN" "http://www.w3.org/Graphics/SVG/1.1/DTD/svg11.dtd">
<!-- Creator: CorelDRAW X8 -->
<svg xmlns="http://www.w3.org/2000/svg" xml:space="preserve" width="40mm" height="60mm" version="1.1" style="shape-rendering:geometricPrecision; text-rendering:geometricPrecision; image-rendering:optimizeQuality; fill-rule:evenodd; clip-rule:evenodd"
viewBox="0 0 4000 6000"
 xmlns:xlink="http://www.w3.org/1999/xlink">
 <defs>
  <style type="text/css">
   <![CDATA[
    .str0 {stroke:black;stroke-width:7.62}
    .fil0 {fill:none}
   ]]>
  </style>
 </defs>
 <g id="图层_x0020_1">
  <metadata id="CorelCorpID_0Corel-Layer"/>
  <path class="fil0 str0" d="M941 5350l1920 0c148,0 270,-121 270,-270l0 -4160c0,-149 -122,-270 -270,-270l-1722 0c-148,0 -270,121 -270,270l0 4160c0,149 122,270 270,270l234 0m1344 -4600c-1,-5 -5,-9 -13,-9 -28,0 -51,23 -51,51 0,28 23,51 51,51 29,0 52,-23 52,-51 0,-28 -23,-51 -52,-51m-780 43c-5,-19 -16,-35 -64,-35l-41 0c-22,0 -40,18 -40,40l0 0c0,21 18,39 40,39l383 0c21,0 39,-18 39,-39l0 0c0,-22 -18,-40 -39,-40l-342 0m569 25c-3,-10 -6,-17 -22,-17l-14 0c-19,0 -34,16 -34,34l0 0c0,19 15,35 34,35l89 0c19,0 34,-16 34,-35l0 0c0,-18 -15,-34 -34,-34l-75 0"/>
 </g>
</svg>
