<?xml version="1.0" encoding="UTF-8"?>
<!DOCTYPE svg PUBLIC "-//W3C//DTD SVG 1.1//EN" "http://www.w3.org/Graphics/SVG/1.1/DTD/svg11.dtd">
<!-- Creator: CorelDRAW X8 -->
<svg xmlns="http://www.w3.org/2000/svg" xml:space="preserve" width="40mm" height="60mm" version="1.1" style="shape-rendering:geometricPrecision; text-rendering:geometricPrecision; image-rendering:optimizeQuality; fill-rule:evenodd; clip-rule:evenodd"
viewBox="0 0 4000 6000"
 xmlns:xlink="http://www.w3.org/1999/xlink">
 <defs>
  <style type="text/css">
   <![CDATA[
    .str0 {stroke:black;stroke-width:10}
    .fil0 {fill:none}
   ]]>
  </style>
 </defs>
 <g id="图层_x0020_1">
  <metadata id="CorelCorpID_0Corel-Layer"/>
  <path class="fil0 str0" d="M479 4666c99,47 198,128 279,218 364,392 932,519 1554,447 324,-64 655,-145 926,-481 168,-233 298,-454 324,-1087 25,-485 27,-975 15,-1484 -39,-322 -75,-770 -298,-1087 -220,-321 -740,-527 -1182,-537 -507,-42 -1199,178 -1381,528 -175,304 -276,631 -280,920 -31,647 -20,1258 -7,1875 24,316 139,691 329,906 105,116 124,135 124,185"/>
 </g>
</svg>
