<?xml version="1.0" encoding="UTF-8"?>
<!DOCTYPE svg PUBLIC "-//W3C//DTD SVG 1.1//EN" "http://www.w3.org/Graphics/SVG/1.1/DTD/svg11.dtd">
<!-- Creator: CorelDRAW X8 -->
<svg xmlns="http://www.w3.org/2000/svg" xml:space="preserve" width="40mm" height="60mm" version="1.1" style="shape-rendering:geometricPrecision; text-rendering:geometricPrecision; image-rendering:optimizeQuality; fill-rule:evenodd; clip-rule:evenodd"
viewBox="0 0 4000 6000"
 xmlns:xlink="http://www.w3.org/1999/xlink">
 <defs>
  <style type="text/css">
   <![CDATA[
    .str0 {stroke:black;stroke-width:7.62}
    .fil0 {fill:none}
   ]]>
  </style>
 </defs>
 <g id="图层_x0020_1">
  <metadata id="CorelCorpID_0Corel-Layer"/>
  <path class="fil0 str0" d="M1225 758c-1,-14 -13,-26 -38,-28 -88,0 -160,71 -160,160 0,88 72,159 160,159 89,0 160,-71 160,-159 0,-89 -71,-160 -160,-160m16 382c-1,-5 -6,-11 -16,-12 -36,0 -66,30 -66,67 0,36 30,66 66,66 37,0 66,-30 66,-66 0,-37 -29,-67 -66,-67m476 3872l683 0c11,0 20,9 20,20l0 123c0,11 -9,20 -20,20l-683 0c-11,0 -20,-9 -20,-20l0 -123c0,-11 9,-20 20,-20zm-710 378l1939 0c161,0 294,-132 294,-294l0 -4112c0,-162 -133,-294 -294,-294l-1784 0c-161,0 -294,132 -294,294l0 4112c0,162 133,294 294,294l66 0"/>
 </g>
</svg>
