<?xml version="1.0" encoding="UTF-8"?>
<!DOCTYPE svg PUBLIC "-//W3C//DTD SVG 1.1//EN" "http://www.w3.org/Graphics/SVG/1.1/DTD/svg11.dtd">
<!-- Creator: CorelDRAW X8 -->
<svg xmlns="http://www.w3.org/2000/svg" xml:space="preserve" width="40mm" height="60mm" version="1.1" style="shape-rendering:geometricPrecision; text-rendering:geometricPrecision; image-rendering:optimizeQuality; fill-rule:evenodd; clip-rule:evenodd"
viewBox="0 0 4000 6000"
 xmlns:xlink="http://www.w3.org/1999/xlink">
 <defs>
  <style type="text/css">
   <![CDATA[
    .str0 {stroke:black;stroke-width:7.62}
    .fil0 {fill:none}
   ]]>
  </style>
 </defs>
 <g id="图层_x0020_1">
  <metadata id="CorelCorpID_0Corel-Layer"/>
  <path class="fil0 str0" d="M-5799 -4716l-2683 0c-302,0 -550,248 -550,550l0 342 0 111c0,78 -115,253 -364,253l-66 0c-248,0 -364,-148 -364,-243l0 -121 0 -342c0,-302 -247,-550 -550,-550l-2601 0c-103,0 -162,39 -162,178l0 37c0,110 -90,200 -200,200l0 0c-110,0 -200,-90 -200,-200l0 -45c0,-159 -75,-170 -194,-170l-2543 0c-302,0 -550,248 -550,550l0 465c0,89 -139,241 -384,241l-52 0c-262,0 -368,-171 -369,-213l0 -493c0,-302 -247,-550 -550,-550l-3080 0c-27,0 -50,23 -50,50l0 373c0,33 4,47 32,63l425 258c17,10 26,23 26,54l0 637c0,41 -35,99 -69,119l-353 212c-54,31 -61,41 -61,86l0 425c0,42 3,58 41,81l426 258c17,10 26,23 26,54l0 617c0,41 -35,99 -69,119l-373 224c-43,25 -51,41 -51,79l0 436c0,62 18,73 45,100 116,117 281,171 422,256 17,10 26,23 26,54l0 608c0,41 -34,98 -69,118l-372 224c-37,21 -52,52 -52,78l0 491c0,26 4,39 24,52l433 262c17,10 26,23 26,54l0 637c0,41 -35,99 -69,119l-394 236c-17,11 -20,20 -20,46l0 477c0,30 5,39 29,53l428 259c17,11 26,24 26,55l0 637c0,41 -35,98 -69,118l-382 230c-27,16 -32,27 -32,61l0 442c0,50 7,77 39,96l418 254c17,10 26,23 26,54l0 617c0,41 -35,98 -69,119l-392 236c-18,10 -22,18 -22,42l0 486c0,43 1,48 33,68l424 256c17,11 26,23 26,55l0 637c0,41 -35,98 -69,118l-392 236c-20,11 -22,21 -22,46l0 496c0,37 2,42 28,58l429 260c17,10 26,23 26,54l0 637c0,41 -35,98 -69,118l-394 238c-17,9 -20,15 -20,37l0 90c0,28 23,50 50,50l3080 0c294,0 536,-233 550,-523l0 -530c0,-64 165,-201 366,-201l73 0c202,0 366,149 366,201l0 503c0,303 248,550 550,550l127 0 235 0 1 0 5196 0 4 0 4 0 5 0 4 0 87 0 227 0c303,0 550,-247 550,-550l0 -503 1 0c1,-64 163,-201 361,-201l72 0c198,0 360,149 360,201l0 503c0,303 248,550 550,550l2593 0c53,0 61,-20 61,-68l0 -162c0,-31 9,-44 26,-54l420 -261c28,-18 31,-30 31,-60l0 -486c0,-31 -8,-43 -26,-54l-382 -235c-35,-20 -69,-77 -69,-118l0 -637c0,-32 9,-44 26,-55l421 -261c28,-16 29,-22 29,-58l0 -456c0,-32 -10,-49 -35,-64l-372 -229c-35,-21 -69,-78 -69,-119l0 -637c0,-31 9,-44 26,-54l406 -252c36,-23 44,-40 44,-80l0 -471c1,-17 -8,-34 -24,-43l-383 -237c-35,-20 -69,-77 -69,-118l0 -637c0,-31 9,-44 26,-55l428 -264c19,-12 22,-21 22,-43l0 -466c0,-36 -11,-54 -40,-72l-367 -226c-35,-20 -69,-78 -69,-119l0 -637c0,-31 9,-44 26,-54l422 -262c25,-14 28,-27 28,-68l0 -448c0,-33 -5,-45 -29,-60l-388 -239c-35,-20 -69,-77 -69,-118l0 -637c0,-32 9,-45 26,-55l432 -268c28,-17 28,-21 28,-52l0 -465c0,-28 -7,-38 -27,-50l-390 -240c-35,-20 -69,-78 -69,-119l0 -637c0,-31 9,-44 26,-54l420 -260c29,-17 40,-36 40,-72l0 -424c0,-45 -9,-61 -25,-70l-382 -236c-35,-20 -69,-78 -69,-119l0 -637c0,-31 9,-44 26,-54l419 -260c26,-15 31,-25 31,-49l0 -483c0,-44 -3,-48 -43,-72l-364 -225c-35,-20 -69,-77 -69,-118l0 -418c0,-40 -29,-59 -70,-59l-126 0m-3400 5890c66,18 119,54 119,216l0 138c0,73 -60,133 -133,133l0 0c-73,0 -132,-60 -132,-133l0 -802c0,-73 59,-132 132,-132l0 0c73,0 133,59 133,132l0 664m2909 -4275c63,17 109,40 109,147l0 89c0,123 -102,225 -225,225l0 0c-124,0 -225,-102 -225,-225l0 -1380c0,-124 101,-225 225,-225l0 0c123,0 225,101 225,225l0 1291m-3137 2371c66,18 119,54 119,216l0 139c0,72 -60,132 -133,132l0 0c-72,0 -132,-60 -132,-132l0 -1833c0,-73 59,-132 132,-132l0 0c73,0 133,60 133,132l0 1694m1960 -1643c199,53 344,125 344,466l0 282c0,393 -321,715 -715,715l0 0c-393,0 -715,-322 -715,-715l0 -2795c0,-394 322,-715 715,-715l0 0c394,0 715,321 715,715l0 2513"/>
  <path class="fil0 str0" d="M3739 1250l-619 0c-70,0 -127,57 -127,127l0 79 0 25c0,18 -27,59 -84,59l-15 0c-57,0 -84,-34 -84,-56l0 -28 0 -79c0,-70 -57,-127 -127,-127l-600 0c-24,0 -37,9 -37,41l0 9c0,25 -21,46 -47,46l0 0c-25,0 -46,-21 -46,-46l0 -11c0,-36 -17,-39 -45,-39l-586 0c-70,0 -127,57 -127,127l0 107c0,21 -32,56 -89,56l-12 0c-60,0 -85,-40 -85,-49l0 -114c0,-70 -57,-127 -127,-127l-710 0c-7,0 -12,5 -12,12l0 86c0,7 1,10 7,14l98 60c4,2 6,5 6,12l0 147c0,10 -7,23 -15,27l-82 50c-12,7 -14,9 -14,19l0 98c0,10 1,14 10,19l98 59c4,3 6,6 6,13l0 142c0,10 -8,23 -16,28l-86 52c-10,5 -12,9 -12,18l0 100c0,15 4,17 10,23 27,27 65,40 98,59 4,3 6,6 6,13l0 140c0,10 -8,23 -16,27l-86 52c-9,5 -12,12 -12,18l0 113c0,6 1,9 6,12l99 61c4,2 6,5 6,12l0 147c0,10 -7,23 -15,28l-91 54c-4,3 -5,5 -5,11l0 110c0,7 1,9 7,12l98 60c4,2 6,5 6,13l0 146c0,10 -7,23 -15,28l-89 53c-6,3 -7,6 -7,14l0 102c0,11 2,18 9,22l96 58c4,3 6,6 6,13l0 142c0,10 -7,23 -15,28l-91 54c-4,3 -5,4 -5,10l0 112c0,10 0,11 8,16l97 59c4,2 6,5 6,13l0 146c0,10 -7,23 -15,28l-91 54c-4,3 -5,5 -5,11l0 114c0,9 1,10 6,14l99 59c4,3 6,6 6,13l0 147c0,10 -7,23 -15,27l-91 55c-4,2 -5,4 -5,9l0 20c0,7 5,12 12,12l710 0c68,0 124,-54 127,-121l0 -122c0,-15 38,-46 85,-46l16 0c47,0 85,34 85,46l0 116c0,70 57,127 127,127l29 0 54 0 1 0 1198 0 1 0 1 0 1 0 1 0 20 0 53 0c69,0 127,-57 127,-127l0 -116 0 0c0,-15 37,-46 83,-46l17 0c45,0 83,34 83,46l0 116c0,70 57,127 127,127l598 0c12,0 14,-5 14,-16l0 -37c0,-7 2,-10 6,-13l97 -60c6,-4 7,-7 7,-14l0 -112c0,-7 -2,-10 -6,-12l-88 -54c-8,-5 -16,-18 -16,-28l0 -147c0,-7 2,-10 6,-12l97 -60c7,-4 7,-6 7,-14l0 -105c0,-8 -3,-11 -8,-15l-86 -53c-8,-4 -16,-18 -16,-27l0 -147c0,-7 2,-10 6,-13l94 -58c8,-5 10,-9 10,-18l0 -109c0,-4 -2,-8 -6,-10l-88 -54c-8,-5 -16,-18 -16,-28l0 -147c0,-7 2,-10 6,-12l99 -61c4,-3 5,-5 5,-10l0 -108c0,-8 -3,-12 -10,-16l-84 -53c-8,-4 -16,-17 -16,-27l0 -147c0,-7 2,-10 6,-12l97 -61c6,-3 7,-6 7,-15l0 -104c0,-7 -1,-10 -7,-14l-89 -55c-8,-4 -16,-18 -16,-27l0 -147c0,-7 2,-10 6,-13l99 -61c7,-4 7,-5 7,-13l0 -107c0,-6 -2,-8 -6,-11l-90 -56c-8,-4 -16,-18 -16,-27l0 -147c0,-7 2,-10 6,-13l96 -60c7,-4 10,-8 10,-16l0 -98c0,-10 -2,-14 -6,-16l-88 -55c-8,-4 -16,-17 -16,-27l0 -147c0,-7 2,-10 6,-13l97 -60c6,-3 7,-5 7,-11l0 -111c0,-10 -1,-11 -10,-17l-84 -52c-8,-4 -16,-17 -16,-27l0 -96c0,-10 -7,-14 -16,-14l-29 0m-785 1359c16,4 28,12 28,50l0 32c0,17 -14,30 -31,30l0 0c-17,0 -30,-13 -30,-30l0 -185c0,-17 13,-31 30,-31l0 0c17,0 31,14 31,31l0 153m671 -987c14,4 25,10 25,34l0 21c0,28 -23,52 -52,52l0 0c-29,0 -52,-24 -52,-52l0 -319c0,-28 23,-52 52,-52l0 0c29,0 52,24 52,52l0 298m-724 547c16,4 28,13 28,50l0 32c0,17 -14,31 -31,31l0 0c-17,0 -30,-14 -30,-31l0 -423c0,-16 13,-30 30,-30l0 0c17,0 31,14 31,30l0 391m452 -379c46,12 79,29 79,108l0 65c0,90 -74,165 -165,165l0 0c-90,0 -165,-75 -165,-165l0 -645c0,-91 75,-165 165,-165l0 0c91,0 165,74 165,165l0 580"/>
 </g>
</svg>
