<?xml version="1.0" encoding="UTF-8"?>
<!DOCTYPE svg PUBLIC "-//W3C//DTD SVG 1.1//EN" "http://www.w3.org/Graphics/SVG/1.1/DTD/svg11.dtd">
<!-- Creator: CorelDRAW X8 -->
<svg xmlns="http://www.w3.org/2000/svg" xml:space="preserve" width="40mm" height="60mm" version="1.1" style="shape-rendering:geometricPrecision; text-rendering:geometricPrecision; image-rendering:optimizeQuality; fill-rule:evenodd; clip-rule:evenodd"
viewBox="0 0 4000 6000"
 xmlns:xlink="http://www.w3.org/1999/xlink">
 <defs>
  <style type="text/css">
   <![CDATA[
    .str0 {stroke:#333333;stroke-width:18;stroke-linejoin:bevel}
    .fil0 {fill:none}
   ]]>
  </style>
 </defs>
 <g id="图层_x0020_1">
  <metadata id="CorelCorpID_0Corel-Layer"/>
  <path class="fil0 str0" d="M1089 5321c241,0 1723,0 1723,0 121,0 221,-100 221,-222 0,0 0,-4227 0,-4227 0,-122 -100,-222 -221,-222 0,0 -477,0 -477,0 -27,0 -61,1 -87,5 -62,10 -110,48 -155,103 -22,27 -55,44 -93,44 -42,0 -79,-21 -101,-53 -30,-36 -61,-60 -87,-75 -41,-22 -86,-24 -136,-24 0,0 -488,0 -488,0 -121,0 -221,100 -221,222 0,0 0,4227 0,4227 0,122 100,222 221,222 0,0 13,0 37,0 73,0 115,16 120,29"/>
 </g>
</svg>
