<?xml version="1.0" encoding="UTF-8"?>
<!DOCTYPE svg PUBLIC "-//W3C//DTD SVG 1.1//EN" "http://www.w3.org/Graphics/SVG/1.1/DTD/svg11.dtd">
<!-- Creator: CorelDRAW 2020 (64-Bit) -->
<svg xmlns="http://www.w3.org/2000/svg" xml:space="preserve" width="40mm" height="60mm" version="1.1" style="shape-rendering:geometricPrecision; text-rendering:geometricPrecision; image-rendering:optimizeQuality; fill-rule:evenodd; clip-rule:evenodd"
viewBox="0 0 4000 6000"
 xmlns:xlink="http://www.w3.org/1999/xlink"
 xmlns:xodm="http://www.corel.com/coreldraw/odm/2003">
 <defs>
  <style type="text/css">
   <![CDATA[
    .str0 {stroke:black;stroke-width:7.62;stroke-miterlimit:22.9256}
    .fil0 {fill:none}
   ]]>
  </style>
 </defs>
 <g id="图层_x0020_1">
  <metadata id="CorelCorpID_0Corel-Layer"/>
  <path class="fil0 str0" d="M2010.43 1361.02c2.19,-14.12 -9.68,-24.02 -15.57,-24.47 -20.95,0 -37.93,16.98 -37.93,37.93 0,20.96 16.98,37.94 37.93,37.94 20.96,0 37.94,-16.98 37.94,-37.94 0,-20.95 -16.98,-37.93 -37.94,-37.93m872.85 1232.41c-12.4,3.32 -22.25,10.1 -22.25,40.59l0 26.09c0,13.71 11.22,24.93 24.93,24.93l0 0c13.71,0 24.93,-11.22 24.93,-24.93l0 -398.88c0,-13.72 -11.21,-24.93 -24.93,-24.93l0 0c-13.71,0 -24.93,11.22 -24.93,24.93l0 372.79m20.32 303.75c-11.33,3.03 -20.32,9.22 -20.32,37.06l0 23.82c0,12.52 10.24,22.76 22.76,22.76l0.01 0c12.5,0 22.76,-10.24 22.76,-22.76l0 -199.45c0,-12.52 -10.24,-22.76 -22.76,-22.76l-0.01 0c-12.52,0 -22.76,10.25 -22.76,22.76l0 175.63m229.85 -1684.29l636.99 0c11.94,0 21.68,9.73 21.68,21.67l0 52.72c0,11.94 -9.74,21.68 -21.68,21.68l-599.21 0c-27.94,0 -50.8,22.86 -50.8,50.8l0 817.77c0,27.94 22.86,50.8 50.8,50.8l620.07 0 0 169.55c0,8.9 7.38,21.28 14.91,25.63l28.69 20.45c5.88,4.2 9.09,10.42 9.09,17.65l0 170.93c0,8.24 -4.26,15.31 -11.55,19.16l-86.1 45.53c-3.72,2.26 -5.63,4.99 -5.63,11.83l0 194.47c0,8.9 7.39,21.28 14.92,25.63l73.01 41.24c6.99,3.95 11.01,10.85 11.01,18.88l0 168.76c0,7.89 -3.87,14.67 -10.68,18.68l-84.8 49.92c-3.72,2.25 -5.62,4.99 -5.62,11.83l0 190.13c0,8.9 7.38,21.28 14.91,25.63l75.18 42.47c6.99,3.95 11.01,10.84 11.01,18.88l0 166.46c0,8 -3.98,14.87 -10.93,18.83l-86.98 49.67c-3.73,2.26 -5.63,4.99 -5.63,11.83l0 192.3c0,8.9 7.38,21.28 14.91,25.63l75.38 42.21c7.03,3.94 11.09,10.85 11.09,18.91l0 167.99c0,8.13 -4.14,15.1 -11.27,19.01l-84.21 46.13c-3.73,2.26 -5.63,4.99 -5.63,11.84l0 194.46c0,8.91 7.38,21.28 14.91,25.63l23.04 13.87c7.37,4.44 11.54,11.83 11.54,20.43l0 140.03c0,11.94 -9.74,21.68 -21.68,21.68l-630.74 0c-88.51,0 -160.35,-77.18 -162.21,-155.75 -0.08,-3.54 -2.95,-6.42 -6.5,-6.42l-101.14 0c-3.51,0 -6.43,2.8 -6.5,6.3 -1.52,73.6 -71.24,145.63 -154.77,145.63l-1300.3 0c-83.53,0 -153.23,-72.77 -157.62,-149.96 -0.2,-3.5 -2.99,-6.3 -6.5,-6.3l-101.96 0c-3.47,0 -6.32,2.71 -6.5,6.17 -4.4,85.36 -75.58,153.83 -161.99,153.83l-627.66 0c-15.52,0 -28.18,-12.66 -28.18,-28.18l0 -140.44c0,-6.84 -1.91,-9.57 -5.63,-11.83l-33.25 -20.16c-7.33,-4.45 -11.48,-11.82 -11.48,-20.39l0 -175.86c0,-8.6 4.17,-15.99 11.54,-20.42l69.43 -41.82c7.53,-4.35 14.91,-16.73 14.91,-25.63l0 -187.96c0,-6.84 -1.9,-9.58 -5.62,-11.84l-79.92 -43.18c-7.91,-4.27 -12.51,-11.98 -12.51,-20.98l0 -174.9c0,-8.93 4.53,-16.59 12.35,-20.89l70.79 -38.95c7.53,-4.35 14.91,-16.73 14.91,-25.63l0 -190.13c0,-6.84 -1.9,-9.58 -5.62,-11.84l-79.38 -45.63c-8.3,-4.77 -13.05,-12.98 -13.05,-22.55l0 -169.98c0,-9.61 4.8,-17.86 13.15,-22.61l72.16 -41.04c7.53,-4.35 14.91,-16.73 14.91,-25.63l0 -183.63c0,-6.84 -1.9,-9.57 -5.63,-11.83l-82.9 -49.12c-7.45,-4.41 -11.69,-11.85 -11.69,-20.51l0 -173.65c0,-9.04 4.65,-16.79 12.63,-21.04l77.01 -41.06c7.54,-4.35 14.92,-16.72 14.92,-25.63l0 -185.79c0,-6.85 -1.91,-9.58 -5.63,-11.84l-32.32 -19.59c-6.67,-4.05 -10.44,-10.74 -10.44,-18.54l0 -147.39c0,-13.13 10.71,-23.84 23.84,-23.84l602.6 0c23.95,0 43.54,-19.59 43.54,-43.53l0 -832.31c0,-23.94 -19.59,-43.53 -43.54,-43.53l-603.7 0c-11.94,0 -21.68,-9.74 -21.68,-21.68l0 -58.84c0,-11.94 9.74,-21.68 21.68,-21.68l631.63 0c86.35,0 157.5,64.33 161.99,149.34 0.37,6.91 6.07,12.32 12.99,12.32l89.33 0c6.83,0 12.47,-5.24 12.97,-12.05 5.85,-79.58 73.07,-139.21 154.43,-139.21l1300.99 0c81.37,0 148.6,63.6 154.43,143.54 0.5,6.81 6.14,12.06 12.97,12.06l89.61 0c6.65,0 12.17,-4.94 12.92,-11.55 9.1,-80.76 78.11,-144.05 161.19,-144.05z"/>
 </g>
</svg>
