<?xml version="1.0" encoding="UTF-8"?>
<!DOCTYPE svg PUBLIC "-//W3C//DTD SVG 1.1//EN" "http://www.w3.org/Graphics/SVG/1.1/DTD/svg11.dtd">
<!-- Creator: CorelDRAW X8 -->
<svg xmlns="http://www.w3.org/2000/svg" xml:space="preserve" width="40mm" height="60mm" version="1.1" style="shape-rendering:geometricPrecision; text-rendering:geometricPrecision; image-rendering:optimizeQuality; fill-rule:evenodd; clip-rule:evenodd"
viewBox="0 0 4000 6000"
 xmlns:xlink="http://www.w3.org/1999/xlink">
 <defs>
  <style type="text/css">
   <![CDATA[
    .str0 {stroke:#332C2B;stroke-width:7.62}
    .fil0 {fill:none}
   ]]>
  </style>
 </defs>
 <g id="图层_x0020_1">
  <metadata id="CorelCorpID_0Corel-Layer"/>
  <path class="fil0 str0" d="M956 5350l1899 0c116,0 212,-95 212,-212l0 -4276c0,-117 -96,-212 -212,-212l-1710 0c-116,0 -212,95 -212,212l0 4276c0,117 96,212 212,212l221 0m-175 -4023c-51,14 -88,32 -88,119l0 233c0,100 82,182 182,182l0 0c100,0 181,-82 181,-182l0 -723c0,-100 -81,-182 -181,-182l0 0c-100,0 -182,82 -182,182l0 490"/>
 </g>
</svg>
