<?xml version="1.0" encoding="UTF-8"?>
<!DOCTYPE svg PUBLIC "-//W3C//DTD SVG 1.1//EN" "http://www.w3.org/Graphics/SVG/1.1/DTD/svg11.dtd">
<!-- Creator: CorelDRAW 2020 (64-Bit) -->
<svg xmlns="http://www.w3.org/2000/svg" xml:space="preserve" width="40mm" height="60mm" version="1.1" style="shape-rendering:geometricPrecision; text-rendering:geometricPrecision; image-rendering:optimizeQuality; fill-rule:evenodd; clip-rule:evenodd"
viewBox="0 0 4000 6000"
 xmlns:xlink="http://www.w3.org/1999/xlink"
 xmlns:xodm="http://www.corel.com/coreldraw/odm/2003">
 <defs>
  <style type="text/css">
   <![CDATA[
    .str1 {stroke:#332C2B;stroke-width:20;stroke-miterlimit:22.9256}
    .str0 {stroke:#332C2B;stroke-width:20;stroke-miterlimit:22.9256}
    .fil0 {fill:none}
   ]]>
  </style>
 </defs>
 <g id="图层_x0020_1">
  <metadata id="CorelCorpID_0Corel-Layer"/>
  <path class="fil0 str0" d="M-6832.87 6632.35l-0.06 -266.55c330,0 600,-270 600,-599.99l0 -5979.01c0,-329.98 -270.02,-600 -600,-600l0.06 -188.49c0.01,-27.49 -22.6,-50 -49.99,-50l-8652.73 0 0 113.97c0,55 -45,100 -100,100l-758.46 0c-55,0 -100,-45 -100,-100l0 -113.97 -438.42 0 0 113.97c0,55 -45,100 -100,100l-1822.72 0c-55,0 -100,-45 -100,-100l0 -113.97 -2579.09 0c-27.38,0 -49.99,22.5 -49.99,50l-0.06 188.49c-330,0 -600,270 -600,600l0 5979.01c0,330 270,599.99 600,599.99l0.06 188.49c0.01,27.5 22.59,50 49.99,50l14651.42 0c27.4,0 49.99,-22.51 49.99,-50 0,-27.49 4.77,-74.33 23.63,-92.35"/>
  <path class="fil0 str1" d="M-21849.89 2766.75c0,119.09 96.55,215.64 215.64,215.64 119.09,0 215.64,-96.55 215.64,-215.64 0,-119.09 -96.55,-215.64 -215.64,-215.64 -119.09,0 -215.64,96.55 -215.64,215.64 0,119.09 111.17,153.28 138.29,155.26"/>
  <g id="_2750307990960">
   <path class="fil0 str0" d="M3050.5 5173.74c0,97.23 -79.56,176.79 -176.79,176.79l-1761.69 0c-97.23,0 -176.78,-79.55 -176.78,-176.79l-55.54 0.02c-8.1,0 -14.73,-6.66 -14.73,-14.73l0 -4316.97c0,-8.07 6.63,-14.72 14.73,-14.73l55.54 -0.01c0,-97.24 79.55,-176.79 176.78,-176.79l1761.69 0c97.24,0 176.79,79.55 176.79,176.79l55.54 0.01c8.1,0 14.73,6.67 14.73,14.73l0 759.92 -33.58 0c-16.21,0 -29.47,13.26 -29.47,29.46l0 537.06c0,16.21 13.26,29.46 29.47,29.46l33.58 0 0 129.18 -33.58 0c-16.21,0 -29.47,13.26 -29.47,29.47l0 223.47c0,16.21 13.26,29.47 29.47,29.47l33.58 0 0 2549.48c0,8.07 -6.63,14.73 -14.73,14.73l-55.54 -0.02z"/>
   <path class="fil0 str1" d="M1995.68 749.07c-35.09,0 -63.53,28.45 -63.53,63.54 0,35.09 28.44,63.54 63.53,63.54 35.09,0 63.54,-28.45 63.54,-63.54 0,-35.09 -28.45,-63.54 -63.54,-63.54 -35.09,0 -45.16,32.76 -45.74,40.75"/>
  </g>
 </g>
</svg>
