<?xml version="1.0" encoding="UTF-8"?>
<!DOCTYPE svg PUBLIC "-//W3C//DTD SVG 1.1//EN" "http://www.w3.org/Graphics/SVG/1.1/DTD/svg11.dtd">
<!-- Creator: CorelDRAW -->
<svg xmlns="http://www.w3.org/2000/svg" xml:space="preserve" width="40mm" height="60mm" style="shape-rendering:geometricPrecision; text-rendering:geometricPrecision; image-rendering:optimizeQuality; fill-rule:evenodd; clip-rule:evenodd"
viewBox="0 0 40 60"
 xmlns:xlink="http://www.w3.org/1999/xlink">
 <defs>
  <style type="text/css">
   <![CDATA[
    .str0 {stroke:#1F1A17;stroke-width:0.194}
    .fil0 {fill:none;fill-rule:nonzero}
   ]]>
  </style>
 </defs>
 <g id="图层_x0020_5">
  <metadata id="CorelCorpID_0Corel-Layer"/>
  <g id="_121125328">
   <path id="_170778072" class="fil0 str0" d="M16.5589 51.3582c-0.9081,0 -1.6457,-0.7363 -1.6457,-1.6418 0,-0.9159 0.7337,-1.6509 1.6483,-1.6509 0.9107,0 1.6444,0.7311 1.6444,1.6392 0,0.9109 -0.73,1.6535 -1.647,1.6535zm-10.0708 -6.5829l-0.0091 0.1188 0.0091 0 0 2.0139m0 0c-0.0672,-0.0193 -0.0969,-0.0491 -0.1188,-0.1188 -1.6497,0.009 -2.9466,1.3008 -2.9466,2.9336 0,1.5334 1.1923,2.7981 2.7425,2.9117m0 0l0.4327 0.0233m0 0c-0.0207,0.0568 -0.0491,0.0853 -0.1098,0.1098m0 0l0 0.7324m0 0c0.0607,-0.0219 0.0866,-0.0503 0.1098,-0.1188m0 0l9.1549 0m0 0c-0.0219,-0.0582 -0.0491,-0.0853 -0.1098,-0.1098l0 -0.7324m0 0c0.0362,0 0.0866,0.0542 0.1098,0.1188 0.7467,-0.0698 1.0438,-0.1511 1.4895,-0.4056 0.8965,-0.5129 1.4649,-1.4972 1.4649,-2.5371 0,-1.6664 -1.3125,-2.9259 -3.05,-2.9259 -0.04,0 -0.0839,0 -0.133,0 0.0219,-0.0582 0.0568,-0.0904 0.1188,-0.1098m0 0l0 -0.7325m0 0c-0.0426,0 -0.0995,0.053 -0.1188,0.1098m0 0l-11.3704 0"/>
   <path id="_127589984" class="fil0 str0" d="M34.3609 51.3582c-0.9082,0 -1.6458,-0.7363 -1.6458,-1.6418 0,-0.9159 0.7338,-1.6509 1.6484,-1.6509 0.9107,0 1.6444,0.7311 1.6444,1.6392 0,0.9109 -0.73,1.6535 -1.647,1.6535zm-10.0708 -6.5829l-0.0091 0.1188 0.0091 0 0 2.0139m0 0c-0.0672,-0.0193 -0.0969,-0.0491 -0.1189,-0.1188 -1.6496,0.009 -2.9466,1.3008 -2.9466,2.9336 0,1.5334 1.1924,2.7981 2.7425,2.9117m0 0l0.4328 0.0233m0 0c-0.0207,0.0568 -0.0491,0.0853 -0.1098,0.1098m0 0l0 0.7324m0 0c0.0607,-0.0219 0.0865,-0.0503 0.1098,-0.1188m0 0l9.1549 0m0 0c-0.0219,-0.0582 -0.0491,-0.0853 -0.1098,-0.1098l0 -0.7324m0 0c0.0362,0 0.0865,0.0542 0.1098,0.1188 0.7467,-0.0698 1.0438,-0.1511 1.4895,-0.4056 0.8964,-0.5129 1.4648,-1.4972 1.4648,-2.5371 0,-1.6664 -1.3124,-2.9259 -3.0499,-2.9259 -0.04,0 -0.0839,0 -0.133,0 0.0219,-0.0582 0.0568,-0.0904 0.1188,-0.1098m0 0l0 -0.7325m0 0c-0.0426,0 -0.0995,0.053 -0.1188,0.1098m0 0l-11.3704 0"/>
   <path id="_173781232" class="fil0 str0" d="M34.3975 32.1902c-0.9081,0 -1.6457,-0.7363 -1.6457,-1.6418 0,-0.9159 0.7337,-1.651 1.6483,-1.651 0.9107,0 1.6444,0.7312 1.6444,1.6393 0,0.9109 -0.73,1.6535 -1.647,1.6535zm-10.0708 -6.583l-0.0091 0.1189 0.0091 0 0 2.0139m0 0c-0.0672,-0.0194 -0.0969,-0.0491 -0.1188,-0.1189 -1.6497,0.0091 -2.9466,1.3009 -2.9466,2.9337 0,1.5334 1.1923,2.798 2.7424,2.9117m0 0l0.4328 0.0232m0 0c-0.0207,0.0569 -0.0491,0.0853 -0.1098,0.1099m0 0l0 0.7324m0 0c0.0607,-0.0219 0.0865,-0.0504 0.1098,-0.1188m0 0l9.1549 0m0 0c-0.0219,-0.0582 -0.0491,-0.0853 -0.1098,-0.1099l0 -0.7324m0 0c0.0362,0 0.0866,0.0542 0.1098,0.1188 0.7467,-0.0697 1.0438,-0.1511 1.4895,-0.4056 0.8964,-0.5128 1.4649,-1.4972 1.4649,-2.537 0,-1.6665 -1.3125,-2.926 -3.05,-2.926 -0.04,0 -0.0839,0 -0.133,0 0.0219,-0.0581 0.0568,-0.0904 0.1188,-0.1098m0 0l0 -0.7324m0 0c-0.0426,0 -0.0995,0.053 -0.1188,0.1098m0 0l-11.3704 0"/>
   <path id="_168416000" class="fil0 str0" d="M16.6226 32.1902c-0.9081,0 -1.6457,-0.7363 -1.6457,-1.6418 0,-0.9159 0.7337,-1.651 1.6483,-1.651 0.9107,0 1.6445,0.7312 1.6445,1.6393 0,0.9109 -0.7301,1.6535 -1.6471,1.6535zm-10.0708 -6.583l-0.009 0.1189 0.009 0 0 2.0139m0 0c-0.0672,-0.0194 -0.0969,-0.0491 -0.1188,-0.1189 -1.6497,0.0091 -2.9466,1.3009 -2.9466,2.9337 0,1.5334 1.1923,2.798 2.7425,2.9117m0 0l0.4327 0.0232m0 0c-0.0207,0.0569 -0.0491,0.0853 -0.1098,0.1099m0 0l0 0.7324m0 0c0.0607,-0.0219 0.0866,-0.0504 0.1098,-0.1188m0 0l9.1549 0m0 0c-0.0219,-0.0582 -0.049,-0.0853 -0.1097,-0.1099l0 -0.7324m0 0c0.0361,0 0.0865,0.0542 0.1097,0.1188 0.7467,-0.0697 1.0438,-0.1511 1.4895,-0.4056 0.8965,-0.5128 1.4649,-1.4972 1.4649,-2.537 0,-1.6665 -1.3125,-2.926 -3.0499,-2.926 -0.0401,0 -0.084,0 -0.1331,0 0.022,-0.0581 0.0569,-0.0904 0.1189,-0.1098m0 0l0 -0.7324m0 0c-0.0427,0 -0.0995,0.053 -0.1189,0.1098m0 0l-11.3704 0"/>
   <path id="_170775832" class="fil0 str0" d="M16.6226 13.083c-0.9081,0 -1.6457,-0.7363 -1.6457,-1.6419 0,-0.9158 0.7337,-1.6509 1.6483,-1.6509 0.9107,0 1.6445,0.7312 1.6445,1.6393 0,0.9109 -0.7301,1.6535 -1.6471,1.6535zm-10.0708 -6.583l-0.009 0.1189 0.009 0 0 2.0139m0 0c-0.0672,-0.0194 -0.0969,-0.0491 -0.1188,-0.1189 -1.6497,0.0091 -2.9466,1.3009 -2.9466,2.9337 0,1.5334 1.1923,2.798 2.7425,2.9117m0 0l0.4327 0.0232m0 0c-0.0207,0.0569 -0.0491,0.0853 -0.1098,0.1099m0 0l0 0.7324m0 0c0.0607,-0.022 0.0866,-0.0504 0.1098,-0.1188m0 0l9.1549 0m0 0c-0.0219,-0.0582 -0.049,-0.0853 -0.1097,-0.1099l0 -0.7324m0 0c0.0361,0 0.0865,0.0542 0.1097,0.1188 0.7467,-0.0697 1.0438,-0.1511 1.4895,-0.4056 0.8965,-0.5128 1.4649,-1.4972 1.4649,-2.537 0,-1.6665 -1.3125,-2.926 -3.0499,-2.926 -0.0401,0 -0.084,0 -0.1331,0 0.022,-0.0581 0.0569,-0.0904 0.1189,-0.1098m0 0l0 -0.7324m0 0c-0.0427,0 -0.0995,0.053 -0.1189,0.1098m0 0l-11.3704 0"/>
   <path id="_127410584" class="fil0 str0" d="M34.4291 13.083c-0.9081,0 -1.6457,-0.7363 -1.6457,-1.6419 0,-0.9158 0.7337,-1.6509 1.6483,-1.6509 0.9107,0 1.6444,0.7312 1.6444,1.6393 0,0.9109 -0.73,1.6535 -1.647,1.6535zm-10.0708 -6.583l-0.0091 0.1189 0.0091 0 0 2.0139m0 0c-0.0672,-0.0194 -0.0969,-0.0491 -0.1188,-0.1189 -1.6497,0.0091 -2.9466,1.3009 -2.9466,2.9337 0,1.5334 1.1923,2.798 2.7424,2.9117m0 0l0.4328 0.0232m0 0c-0.0207,0.0569 -0.0491,0.0853 -0.1098,0.1099m0 0l0 0.7324m0 0c0.0607,-0.022 0.0865,-0.0504 0.1098,-0.1188m0 0l9.1549 0m0 0c-0.0219,-0.0582 -0.0491,-0.0853 -0.1098,-0.1099l0 -0.7324m0 0c0.0362,0 0.0866,0.0542 0.1098,0.1188 0.7467,-0.0697 1.0438,-0.1511 1.4895,-0.4056 0.8965,-0.5128 1.4649,-1.4972 1.4649,-2.537 0,-1.6665 -1.3125,-2.926 -3.05,-2.926 -0.04,0 -0.0839,0 -0.133,0 0.0219,-0.0581 0.0568,-0.0904 0.1188,-0.1098m0 0l0 -0.7324m0 0c-0.0426,0 -0.0995,0.053 -0.1188,0.1098m0 0l-11.3704 0"/>
  </g>
 </g>
</svg>
