<?xml version="1.0" encoding="UTF-8"?>
<!DOCTYPE svg PUBLIC "-//W3C//DTD SVG 1.1//EN" "http://www.w3.org/Graphics/SVG/1.1/DTD/svg11.dtd">
<!-- Creator: CorelDRAW X8 -->
<svg xmlns="http://www.w3.org/2000/svg" xml:space="preserve" width="40mm" height="60mm" version="1.1" style="shape-rendering:geometricPrecision; text-rendering:geometricPrecision; image-rendering:optimizeQuality; fill-rule:evenodd; clip-rule:evenodd"
viewBox="0 0 4000 6000"
 xmlns:xlink="http://www.w3.org/1999/xlink">
 <defs>
  <style type="text/css">
   <![CDATA[
    .str0 {stroke:#333333;stroke-width:18;stroke-linejoin:bevel}
    .fil0 {fill:none}
   ]]>
  </style>
 </defs>
 <g id="图层_x0020_1">
  <metadata id="CorelCorpID_0Corel-Layer"/>
  <path class="fil0 str0" d="M1044 5350c357,0 1804,0 1804,0 78,0 143,-65 143,-143 0,0 0,-4414 0,-4414 0,-78 -65,-143 -143,-143 0,0 -303,0 -303,0 -18,0 -32,14 -32,32 0,0 0,25 0,25 0,18 -17,32 -38,32 0,0 -680,0 -680,0 -13,1 -17,6 -26,15 -11,10 -26,17 -43,17 -35,0 -64,-29 -64,-65 0,0 0,-23 0,-23 1,-18 -14,-33 -32,-33 0,0 -478,0 -478,0 -78,0 -143,65 -143,143 0,0 0,4414 0,4414 0,78 65,143 143,143 0,0 35,0 95,0"/>
 </g>
</svg>
