<?xml version="1.0" encoding="UTF-8"?>
<!DOCTYPE svg PUBLIC "-//W3C//DTD SVG 1.1//EN" "http://www.w3.org/Graphics/SVG/1.1/DTD/svg11.dtd">
<!-- Creator: CorelDRAW X8 -->
<svg xmlns="http://www.w3.org/2000/svg" xml:space="preserve" width="40mm" height="60mm" version="1.1" style="shape-rendering:geometricPrecision; text-rendering:geometricPrecision; image-rendering:optimizeQuality; fill-rule:evenodd; clip-rule:evenodd"
viewBox="0 0 4000 6000"
 xmlns:xlink="http://www.w3.org/1999/xlink">
 <defs>
  <style type="text/css">
   <![CDATA[
    .str0 {stroke:black;stroke-width:7.62}
    .fil0 {fill:none}
   ]]>
  </style>
 </defs>
 <g id="图层_x0020_1">
  <metadata id="CorelCorpID_0Corel-Layer"/>
  <path class="fil0 str0" d="M1211 1346l259 0c28,0 51,22 51,50l0 0c0,28 -23,51 -51,51l-259 0c-28,0 -50,-23 -50,-51l0 0c0,-28 22,-50 50,-50zm1841 38l394 0c68,0 123,54 123,120l0 872c0,66 -55,119 -123,119l-394 0c-67,0 -123,-53 -123,-119l0 -872c0,-66 56,-120 123,-120zm-371 565l0 0c18,0 33,15 33,34l0 382c0,19 -15,34 -33,34l0 0c-19,0 -34,-15 -34,-34l0 -382c0,-19 15,-34 34,-34zm0 574l0 0c18,0 33,15 33,34l0 168c0,19 -15,34 -33,34l0 0c-19,0 -34,-15 -34,-34l0 -168c0,-19 15,-34 34,-34zm-2483 -1273l451 0c88,0 163,53 191,136 13,36 46,61 86,61l0 0c38,0 71,-25 84,-59 30,-81 104,-132 190,-132l1153 0c86,0 160,51 190,132 12,34 46,59 84,59l0 0c40,0 73,-25 85,-61 29,-83 104,-136 192,-136l799 0c3,0 5,2 5,5l0 88c0,1 1,3 2,4l94 52c1,1 2,2 2,4l0 211c0,2 -1,3 -2,4l-94 52c-1,1 -2,3 -2,4l0 106 0 105c0,2 1,3 2,4l94 52c1,1 2,3 2,4l0 212c0,1 -1,3 -2,4l-94 52c-1,1 -2,2 -2,4l0 105 0 106c0,1 1,3 2,4l94 52c1,1 2,2 2,4l0 211c0,2 -1,3 -2,4l-94 52c-1,1 -2,2 -2,4l0 106 0 105c0,2 1,3 2,4l94 52c1,1 2,2 2,4l0 212c0,1 -1,3 -2,3l-94 53c-1,0 -2,2 -2,4l0 105 0 106c0,1 1,3 2,4l94 52c1,0 2,2 2,4l0 211c0,2 -1,3 -2,4l-94 52c-1,1 -2,2 -2,4l0 106 0 105c0,2 1,3 2,4l94 52c1,1 2,2 2,4l0 211c0,2 -1,3 -2,4l-94 52c-2,1 -2,2 -2,4l0 106 0 105c0,2 0,3 2,4l94 52c1,1 2,3 2,4l0 89c0,2 -2,4 -4,4l-898 0c-88,0 -163,-53 -192,-136 -12,-36 -45,-61 -85,-61l0 0c-38,0 -71,25 -84,59 -30,81 -104,132 -190,132l-1153 0c-86,0 -160,-51 -190,-132 -12,-34 -46,-59 -84,-59l0 0c-40,0 -73,25 -85,61 -29,83 -104,136 -192,136l-352 0c-3,0 -5,-2 -5,-4l0 -89c0,-2 -1,-3 -2,-4l-94 -52c-1,-1 -2,-2 -2,-4l0 -211c0,-2 1,-3 2,-4l94 -52c1,-1 2,-2 2,-4l0 -105 0 -106c0,-2 -1,-3 -2,-4l-94 -52c-1,-1 -2,-2 -2,-4l0 -211c0,-2 1,-3 2,-4l94 -52c1,-1 2,-3 2,-4l0 -106 0 -105c0,-2 -1,-3 -2,-4l-94 -52c-1,-1 -2,-3 -2,-4l0 -212c0,-1 1,-3 2,-4l94 -52c1,-1 2,-2 2,-4l0 -105 0 -106c0,-1 -1,-3 -2,-4l-94 -52c-1,-1 -2,-2 -2,-4l0 -211c0,-2 1,-3 2,-4l94 -52c1,-1 2,-3 2,-4l0 -106 0 -105c0,-2 -1,-3 -2,-4l-94 -52c-1,-1 -2,-3 -2,-4l0 -212c0,-1 1,-3 2,-4l94 -52c1,-1 2,-2 2,-4l0 -105 0 -106c0,-1 -1,-3 -2,-4l-94 -52c-1,-1 -2,-2 -2,-4l0 -211c0,-2 1,-3 2,-4l94 -52c1,-1 2,-2 2,-4l0 -106 0 -105c0,-2 -1,-3 -2,-4l-94 -52c-1,-1 -2,-2 -2,-4l0 -88c0,-3 2,-5 4,-5z"/>
 </g>
</svg>
