<?xml version="1.0" encoding="UTF-8"?>
<!DOCTYPE svg PUBLIC "-//W3C//DTD SVG 1.1//EN" "http://www.w3.org/Graphics/SVG/1.1/DTD/svg11.dtd">
<!-- Creator: CorelDRAW X8 -->
<svg xmlns="http://www.w3.org/2000/svg" xml:space="preserve" width="40mm" height="60mm" version="1.1" style="shape-rendering:geometricPrecision; text-rendering:geometricPrecision; image-rendering:optimizeQuality; fill-rule:evenodd; clip-rule:evenodd"
viewBox="0 0 4000 6000"
 xmlns:xlink="http://www.w3.org/1999/xlink">
 <defs>
  <style type="text/css">
   <![CDATA[
    .str0 {stroke:#332C2B;stroke-width:10}
    .fil0 {fill:none}
   ]]>
  </style>
 </defs>
 <g id="图层_x0020_1">
  <metadata id="CorelCorpID_0Corel-Layer"/>
  <path class="fil0 str0" d="M1948 752c-6,-21 -17,-36 -66,-36l-42 0c-22,0 -41,18 -41,40l0 0c0,22 19,40 41,40l344 0c22,0 40,-18 40,-40l0 0c0,-22 -18,-40 -40,-40l-302 0m557 18c1,-26 -29,-46 -40,-46 -39,0 -70,31 -70,70 0,38 31,70 70,70 39,0 70,-32 70,-70 0,-39 -31,-70 -70,-70m-1420 4662l1911 0c142,0 259,-117 259,-259l0 -4182c0,-142 -117,-259 -259,-259l-1780 0c-142,0 -259,117 -259,259l0 4182c0,142 117,259 259,259l247 0"/>
 </g>
</svg>
