<?xml version="1.0" encoding="UTF-8"?>
<!DOCTYPE svg PUBLIC "-//W3C//DTD SVG 1.1//EN" "http://www.w3.org/Graphics/SVG/1.1/DTD/svg11.dtd">
<!-- Creator: CorelDRAW X8 -->
<svg xmlns="http://www.w3.org/2000/svg" xml:space="preserve" width="40mm" height="60mm" version="1.1" style="shape-rendering:geometricPrecision; text-rendering:geometricPrecision; image-rendering:optimizeQuality; fill-rule:evenodd; clip-rule:evenodd"
viewBox="0 0 4000 6000"
 xmlns:xlink="http://www.w3.org/1999/xlink">
 <defs>
  <style type="text/css">
   <![CDATA[
    .str0 {stroke:#222222;stroke-width:20}
    .fil0 {fill:none}
   ]]>
  </style>
 </defs>
 <g id="图层_x0020_1">
  <metadata id="CorelCorpID_0Corel-Layer"/>
  <g id="_2986681958976">
   <path class="fil0 str0" d="M788 5350l0 -4594c0,-58 48,-106 107,-106l2268 0c58,0 106,48 106,106l0 4541 -2538 0"/>
   <path class="fil0 str0" d="M1932 800c0,-47 -63,-62 -85,-62 -23,0 -41,18 -41,41l0 0c0,22 18,40 41,40l369 0c23,0 41,-18 41,-40l0 0c0,-23 -18,-41 -41,-41l-369 0"/>
   <path class="fil0 str0" d="M2443 785c0,-18 9,-95 54,-95 44,0 81,37 81,81 0,45 -37,81 -81,81 -45,0 -81,-36 -81,-81 0,-44 36,-81 81,-81"/>
  </g>
  <path class="fil0 str0" d="M-8528 5885l-12760 0c-163,0 -296,-133 -296,-296l0 -6300c0,-163 133,-296 296,-296l12614 0 0 7052"/>
  <path class="fil0 str0" d="M-21167 2708c-131,0 -172,175 -172,237 0,62 50,113 112,113l0 0c62,0 113,-51 113,-113l0 -1027c0,-62 -51,-112 -113,-112l0 0c-62,0 -112,50 -112,112l0 1027"/>
  <path class="fil0 str0" d="M-21210 1289c-50,0 -262,-25 -262,-149 0,-125 101,-225 225,-225 124,0 225,100 225,225 0,124 -101,225 -225,225 -124,0 -225,-101 -225,-225"/>
 </g>
</svg>
