<?xml version="1.0" encoding="UTF-8"?>
<!DOCTYPE svg PUBLIC "-//W3C//DTD SVG 1.1//EN" "http://www.w3.org/Graphics/SVG/1.1/DTD/svg11.dtd">
<!-- Creator: CorelDRAW X8 -->
<svg xmlns="http://www.w3.org/2000/svg" xml:space="preserve" width="40mm" height="60mm" version="1.1" style="shape-rendering:geometricPrecision; text-rendering:geometricPrecision; image-rendering:optimizeQuality; fill-rule:evenodd; clip-rule:evenodd"
viewBox="0 0 4000 6000"
 xmlns:xlink="http://www.w3.org/1999/xlink">
 <defs>
  <style type="text/css">
   <![CDATA[
    .str0 {stroke:black;stroke-width:7.62}
    .fil0 {fill:none}
   ]]>
  </style>
 </defs>
 <g id="图层_x0020_1">
  <metadata id="CorelCorpID_0Corel-Layer"/>
  <path class="fil0 str0" d="M2554 699c-4,-14 -11,-26 -47,-26l-30 0c-16,0 -29,13 -29,29l0 0c0,16 13,29 29,29l152 0c16,0 29,-13 29,-29l0 0c0,-16 -13,-29 -29,-29l-122 0m-1448 4677l1727 0c136,0 248,-112 248,-248l0 -4204c0,-136 -112,-248 -248,-248l-440 0c-11,0 -16,2 -23,11l-6 15c-5,9 -12,11 -27,11l-163 0c-20,0 -34,25 -34,47l0 35c0,47 -39,85 -86,85l0 0c-46,0 -85,-38 -85,-85l0 -31c0,-29 -16,-51 -40,-51l-175 0c-6,0 -8,-2 -11,-7l-9 -23c-3,-5 -7,-7 -14,-7l-459 0c-136,0 -248,112 -248,248l0 4204c0,136 112,248 248,248l90 0"/>
 </g>
</svg>
