<?xml version="1.0" encoding="UTF-8"?>
<!DOCTYPE svg PUBLIC "-//W3C//DTD SVG 1.1//EN" "http://www.w3.org/Graphics/SVG/1.1/DTD/svg11.dtd">
<!-- Creator: CorelDRAW X8 -->
<svg xmlns="http://www.w3.org/2000/svg" xml:space="preserve" width="40mm" height="60mm" version="1.1" style="shape-rendering:geometricPrecision; text-rendering:geometricPrecision; image-rendering:optimizeQuality; fill-rule:evenodd; clip-rule:evenodd"
viewBox="0 0 4000 6000"
 xmlns:xlink="http://www.w3.org/1999/xlink">
 <defs>
  <style type="text/css">
   <![CDATA[
    .str0 {stroke:black;stroke-width:7.62}
    .fil0 {fill:none}
   ]]>
  </style>
 </defs>
 <g id="图层_x0020_1">
  <metadata id="CorelCorpID_0Corel-Layer"/>
  <path class="fil0 str0" d="M1022 5350l1836 0c120,0 218,-98 218,-218l0 -4264c0,-120 -98,-218 -218,-218l-1716 0c-120,0 -218,98 -218,218l0 4264c0,120 98,218 218,218l42 0m200 -4407c-1,-16 -15,-31 -45,-33 -105,0 -191,85 -191,190 0,106 86,191 191,191 105,0 191,-85 191,-191 0,-105 -86,-190 -191,-190m-27 445c-3,-11 -7,-19 -27,-19l-16 0c-22,0 -41,18 -41,41l0 0c0,22 19,41 41,41l147 0c22,0 41,-18 41,-41l0 0c0,-23 -19,-41 -41,-41l-131 0m-94 -460l570 0c33,0 60,27 60,60l0 490c0,8 -7,15 -15,15l-657 0c-8,0 -15,-7 -15,-15l0 -493c0,-32 26,-57 57,-57zm172 649c-1,-11 -10,-21 -31,-23 -71,0 -129,58 -129,130 0,71 58,130 129,130 72,0 130,-59 130,-130 0,-72 -58,-130 -130,-130m342 23c-1,-11 -11,-21 -31,-23 -71,0 -129,58 -129,130 0,71 58,130 129,130 72,0 130,-59 130,-130 0,-72 -58,-130 -130,-130m-511 -34l693 0c9,0 15,7 15,15l0 298c0,36 -30,67 -67,67l-589 0c-37,0 -67,-31 -67,-67l0 -298c0,-8 7,-15 15,-15zm39 -676l612 0c47,0 86,38 86,85l0 958c0,47 -39,85 -86,85l-612 0c-47,0 -85,-38 -85,-85l0 -958c0,-47 38,-85 85,-85z"/>
 </g>
</svg>
