<?xml version="1.0" encoding="UTF-8"?>
<!DOCTYPE svg PUBLIC "-//W3C//DTD SVG 1.1//EN" "http://www.w3.org/Graphics/SVG/1.1/DTD/svg11.dtd">
<!-- Creator: CorelDRAW 2020 (64-Bit) -->
<svg xmlns="http://www.w3.org/2000/svg" xml:space="preserve" width="40mm" height="60mm" version="1.1" style="shape-rendering:geometricPrecision; text-rendering:geometricPrecision; image-rendering:optimizeQuality; fill-rule:evenodd; clip-rule:evenodd"
viewBox="0 0 4000 6000"
 xmlns:xlink="http://www.w3.org/1999/xlink"
 xmlns:xodm="http://www.corel.com/coreldraw/odm/2003">
 <defs>
  <style type="text/css">
   <![CDATA[
    .str1 {stroke:#332C2B;stroke-width:20;stroke-miterlimit:22.9256}
    .str0 {stroke:#222222;stroke-width:20;stroke-miterlimit:22.9256}
    .fil0 {fill:none}
   ]]>
  </style>
 </defs>
 <g id="图层_x0020_1">
  <metadata id="CorelCorpID_0Corel-Layer"/>
  <path class="fil0 str0" d="M-14686.52 8802.18l-0.11 -572.77c439.99,0 800,-360 800,-800l0 -5691.9c0,-440 -360.02,-800.03 -800,-800l0.11 -459.33c0.01,-27.48 -22.5,-50 -49.99,-50l-11091.6 0 0 327.77c0,55 -45,100 -100,100l-1959 0c-55,0 -100,-45 -100,-100l0 -327.77 -1291.67 0c-27.5,0 -49.99,22.51 -49.99,50l0 459.27c-439.99,0 -800.4,360.06 -800.4,800.06l0 5691.9c0,440 360.41,800 800.4,800l0 459.32c0,27.51 22.49,50.01 49.99,50.01l3186.99 0 0 -357.97c0,-55 45,-100 100,-100l2043.67 0c55,0 100,45 100,100l0 357.97 497.42 0 0 -357.97c0,-55 45,-100 100,-100l1001.21 0c55,0 100,45 100,100l0 357.97 7412.98 0c27.5,0 49.99,-22.51 49.99,-50.01 0,-27.5 10.89,-110.15 37.35,-135.94"/>
  <path class="fil0 str1" d="M-29816.62 7474.85l0 -906.71c0,-302.5 247.5,-550 550,-550l3569.91 0c302.5,0 550,247.5 550,550l0 906.71c0,302.5 -247.5,550 -550,550l-3569.91 0c-302.5,0 -550,-247.5 -550,-550z"/>
  <path class="fil0 str1" d="M-29687.93 7471.37l0 -890.13c0,-247.5 202.49,-449.99 449.99,-449.99l3512.55 0c247.51,0 449.99,202.49 449.99,449.99l0 890.13c0,247.5 -202.48,449.99 -449.99,449.99l-3512.55 0c-247.5,0 -449.99,-202.49 -449.99,-449.99z"/>
  <path class="fil0 str1" d="M-29301.61 5581.62c0,189.51 153.62,343.13 343.13,343.13 189.51,0 343.13,-153.62 343.13,-343.13 0,-189.51 -153.62,-343.13 -343.13,-343.13 -189.51,0 -343.13,153.62 -343.13,343.13 0,189.51 215.5,187.11 253.86,168.59"/>
  <path class="fil0 str1" d="M-29583.52 7039.23c0,347.98 282.09,630.07 630.07,630.07 347.98,0 630.07,-282.09 630.07,-630.07 0,-347.98 -282.09,-630.07 -630.07,-630.07 -347.98,0 -630.07,282.09 -630.07,630.07 0,347.98 345.89,400.09 372.35,400.09"/>
  <path class="fil0 str1" d="M-28146.51 7039.23c0,347.98 282.09,630.07 630.07,630.07 347.98,0 630.07,-282.09 630.07,-630.07 0,-347.98 -282.09,-630.07 -630.07,-630.07 -347.98,0 -630.07,282.09 -630.07,630.07 0,347.98 305.89,300.86 358.81,273.07"/>
  <path class="fil0 str1" d="M-26697.92 7039.23c0,347.98 282.09,630.07 630.07,630.07 347.98,0 630.07,-282.09 630.07,-630.07 0,-347.98 -282.09,-630.07 -630.07,-630.07 -347.98,0 -630.07,282.09 -630.07,630.07 0,347.98 454.76,331.6 542.07,289.26"/>
  <path class="fil0 str1" d="M-26811.14 4595.79c0,347.98 282.09,630.07 630.07,630.07 347.98,0 630.07,-282.09 630.07,-630.07 0,-347.98 -282.09,-630.07 -630.07,-630.07 -347.98,0 -630.07,282.09 -630.07,630.07 0,347.98 528.29,425.47 639.42,352.71"/>
  <g id="_1509727256544">
   <path class="fil0 str0" d="M781.84 5124.21l165.73 -0.03c0,127.32 104.17,231.49 231.49,231.49l1647.03 0c127.32,0 231.5,-104.18 231.49,-231.49l132.92 0.03c7.95,0 14.46,-6.51 14.46,-14.46l0 -3209.51 -94.84 0c-15.91,0 -28.94,-13.02 -28.94,-28.94l0 -566.86c0,-15.91 13.03,-28.94 28.94,-28.94l94.84 0 0 -373.76c0,-7.96 -6.51,-14.46 -14.46,-14.46l-132.9 0c0,-127.32 -104.19,-231.61 -231.51,-231.61l-1647.03 0c-127.32,0 -231.49,104.29 -231.49,231.61l-132.91 0c-7.96,0 -14.47,6.5 -14.47,14.46l0 922.2 103.59 0c15.91,0 28.93,13.02 28.93,28.94l0 591.36c0,15.92 -13.02,28.94 -28.93,28.94l-103.59 0 0 143.93 103.59 0c15.91,0 28.93,13.02 28.93,28.94l0 289.71c0,15.92 -13.02,28.94 -28.93,28.94l-103.59 0 0 2145.05c0,7.95 6.52,14.46 14.47,14.46 7.96,0 31.88,3.15 39.34,10.81"/>
   <path class="fil0 str1" d="M1165.92 746.11l262.36 0c87.54,0 159.15,71.62 159.15,159.15l0 1033c0,87.54 -71.61,159.15 -159.15,159.15l-262.36 0c-87.54,0 -159.15,-71.61 -159.15,-159.15l0 -1033c0,-87.53 71.61,-159.15 159.15,-159.15z"/>
   <path class="fil0 str1" d="M1166.92 783.35l257.57 0c71.62,0 130.21,58.59 130.21,130.21l0 1016.4c0,71.62 -58.59,130.21 -130.21,130.21l-257.57 0c-71.61,0 -130.21,-58.59 -130.21,-130.21l0 -1016.4c0,-71.62 58.6,-130.21 130.21,-130.21z"/>
   <path class="fil0 str1" d="M1713.75 895.14c-54.84,0 -99.29,44.45 -99.29,99.28 0,54.84 44.45,99.29 99.29,99.29 54.83,0 99.29,-44.45 99.29,-99.29 0,-54.83 -44.46,-99.28 -99.29,-99.28 -54.84,0 -54.15,62.35 -48.79,73.45"/>
   <path class="fil0 str1" d="M1291.97 813.56c-100.69,0 -182.32,81.63 -182.32,182.32 0,100.69 81.63,182.32 182.32,182.32 100.69,0 182.32,-81.63 182.32,-182.32 0,-100.69 -81.63,-182.32 -182.32,-182.32 -100.69,0 -115.77,100.09 -115.77,107.75"/>
   <path class="fil0 str1" d="M1291.97 1229.38c-100.69,0 -182.32,81.63 -182.32,182.32 0,100.69 81.63,182.32 182.32,182.32 100.69,0 182.32,-81.63 182.32,-182.32 0,-100.69 -81.63,-182.32 -182.32,-182.32 -100.69,0 -87.06,88.51 -79.02,103.83"/>
   <path class="fil0 str1" d="M1291.97 1648.55c-100.69,0 -182.32,81.63 -182.32,182.32 0,100.69 81.63,182.32 182.32,182.32 100.69,0 182.32,-81.63 182.32,-182.32 0,-100.69 -81.63,-182.32 -182.32,-182.32 -100.69,0 -95.95,131.59 -83.7,156.85"/>
   <path class="fil0 str1" d="M1999.01 1615.79c-100.69,0 -182.32,81.62 -182.32,182.32 0,100.69 81.63,182.32 182.32,182.32 100.69,0 182.32,-81.63 182.32,-182.32 0,-100.7 -81.63,-182.32 -182.32,-182.32 -100.69,0 -123.11,152.86 -102.06,185.02"/>
  </g>
 </g>
</svg>
