<?xml version="1.0" encoding="UTF-8"?>
<!DOCTYPE svg PUBLIC "-//W3C//DTD SVG 1.1//EN" "http://www.w3.org/Graphics/SVG/1.1/DTD/svg11.dtd">
<!-- Creator: CorelDRAW 2020 (64-Bit) -->
<svg xmlns="http://www.w3.org/2000/svg" xml:space="preserve" width="40mm" height="60mm" version="1.1" style="shape-rendering:geometricPrecision; text-rendering:geometricPrecision; image-rendering:optimizeQuality; fill-rule:evenodd; clip-rule:evenodd"
viewBox="0 0 4000 6000"
 xmlns:xlink="http://www.w3.org/1999/xlink"
 xmlns:xodm="http://www.corel.com/coreldraw/odm/2003">
 <defs>
  <style type="text/css">
   <![CDATA[
    .str0 {stroke:black;stroke-width:7.62;stroke-miterlimit:22.9256}
    .fil0 {fill:none}
   ]]>
  </style>
 </defs>
 <g id="图层_x0020_1">
  <metadata id="CorelCorpID_0Corel-Layer"/>
  <path class="fil0 str0" d="M2892.12 787.49c2.95,-19.02 -13.04,-32.35 -20.98,-32.96 -28.23,0 -51.11,22.88 -51.11,51.11 0,28.23 22.88,51.11 51.11,51.11 28.23,0 51.12,-22.88 51.12,-51.11 0,-28.23 -22.89,-51.11 -51.12,-51.11m-965.66 50.92c-4.43,-16.53 -13.46,-29.65 -54.1,-29.65l-34.76 0c-18.28,0 -33.22,14.94 -33.22,33.22l0 0c0,18.27 14.94,33.22 33.22,33.22l340.8 0c18.27,0 33.21,-14.94 33.21,-33.22l0 0c0,-18.28 -14.95,-33.22 -33.21,-33.22l-306.04 0m-1090.33 4556.72l2342.76 0c113.16,0 205.76,-92.59 205.76,-205.76l0 -4265.33c0,-113.17 -92.59,-205.76 -205.76,-205.76l-2220.82 0c-113.17,0 -205.76,92.59 -205.76,205.76l0 4265.33c0,113.17 92.59,205.76 205.76,205.76l36.97 0c61.58,0 93.8,8.86 106.5,23.15"/>
 </g>
</svg>
