<?xml version="1.0" encoding="UTF-8"?>
<!DOCTYPE svg PUBLIC "-//W3C//DTD SVG 1.1//EN" "http://www.w3.org/Graphics/SVG/1.1/DTD/svg11.dtd">
<!-- Creator: CorelDRAW 2020 (64-Bit) -->
<svg xmlns="http://www.w3.org/2000/svg" xml:space="preserve" width="40mm" height="60mm" version="1.1" style="shape-rendering:geometricPrecision; text-rendering:geometricPrecision; image-rendering:optimizeQuality; fill-rule:evenodd; clip-rule:evenodd"
viewBox="0 0 4000 6000"
 xmlns:xlink="http://www.w3.org/1999/xlink"
 xmlns:xodm="http://www.corel.com/coreldraw/odm/2003">
 <defs>
  <style type="text/css">
   <![CDATA[
    .str1 {stroke:#332C2B;stroke-width:20;stroke-miterlimit:22.9256}
    .str0 {stroke:#E62129;stroke-width:20;stroke-miterlimit:22.9256}
    .fil0 {fill:none}
   ]]>
  </style>
   <clipPath id="id0">
    <rect x="-55212.87" y="-9574.52" width="12877.34" height="21027.41"/>
   </clipPath>
 </defs>
 <g id="图层_x0020_1">
  <metadata id="CorelCorpID_0Corel-Layer"/>
  <g style="clip-path:url(#id0)">
   <image transform="matrix(0.891709 -0.0031507 0.0031507 0.891709 -55212.9 -9529.29)" x="0" y="0" width="14358.04" height="23530.28" xlink:href="S91 Pro -11i（背膜）_Images\S91 Pro -11i（背膜）_ImgID1.png"/>
  </g>
  <polygon class="fil0 str0" points="-54631.71,-8940.99 -47031.71,-8940.99 -47031.71,7529.01 -54631.71,7529.01 "/>
  <path class="fil0 str0" d="M-53537.79 -8761.07l5412.16 0c495,0 900,405 900,899.99l0 14272.61c0,494.99 -405,900 -900,900l-5412.16 0c-495,0 -900,-405.01 -900,-900l0 -14272.61c0,-494.99 405,-899.99 900,-899.99z"/>
  <path class="fil0 str0" d="M-53927.2 -8321.98l1387.6 0c110,0 200,90 200,200l0 3516.23c0,110 -90,200 -200,200l-1387.6 0c-110,0 -200,-90 -200,-200l0 -3516.23c0,-110 90,-200 200,-200z"/>
  <path class="fil0 str0" d="M-53864.73 -8230.19l1262.66 0c100.1,0 181.99,81.89 181.99,182l0 3368.65c0,100.1 -81.89,182 -181.99,182l-1262.66 0c-100.1,0 -181.99,-81.9 -181.99,-182l0 -3368.65c0,-100.11 81.89,-182 181.99,-182z"/>
  <path class="fil0 str0" d="M-53228.24 -8174.66c-351.11,0 -635.75,284.64 -635.75,635.75 0,351.11 284.64,635.75 635.75,635.75 351.11,0 635.75,-284.64 635.75,-635.75 0,-351.11 -284.64,-635.75 -635.75,-635.75 -351.11,0 -419.95,459.82 -421.27,488.92"/>
  <path class="fil0 str0" d="M-53222.19 -6739.51c-202.55,0 -366.75,164.2 -366.75,366.75 0,202.55 164.2,366.75 366.75,366.75 202.55,0 366.75,-164.2 366.75,-366.75 0,-202.55 -164.2,-366.75 -366.75,-366.75 -202.55,0 -242.26,265.26 -243.02,282.05"/>
  <path class="fil0 str0" d="M-53710.49 -5438.69l465.97 0c82.5,0 150,67.5 150,150l0 492.44c0,82.5 -67.5,150 -150,150l-465.97 0c-82.5,0 -150,-67.5 -150,-150l0 -492.44c0,-82.5 67.5,-150 150,-150z"/>
  <path class="fil0 str0" d="M-52752.88 -5401.34l0.02 0c91.5,0 166.35,74.85 166.35,166.35l0 409.43c0,91.5 -74.85,166.35 -166.35,166.35l-0.02 0c-91.5,0 -166.35,-74.85 -166.35,-166.35l0 -409.43c0,-91.5 74.85,-166.35 166.35,-166.35z"/>
  <path class="fil0 str0" d="M-50834.47 -5042.17c-320.01,0 -579.44,259.43 -579.44,579.44 0,320.01 259.43,579.44 579.44,579.44 320.01,0 579.44,-259.43 579.44,-579.44 0,-320.01 -259.43,-579.44 -579.44,-579.44 -320.01,0 -382.75,419.09 -383.96,445.62"/>
  <path class="fil0 str1" d="M-3281.45 3975.14l0 -5786.55c0,-494.99 -405.02,-900 -900,-900l-14272.61 0c-494.99,0 -899.99,405 -899.99,900l0 5412.16c0,495 405,900 899.99,900l14272.61 0c494.99,0 900,-405 900,-900 0,-495 93.05,-791.81 188.3,-941.3"/>
  <path class="fil0 str1" d="M-18914.96 3990.16l0 -1387.6c0,-110 90,-200 200,-200l3516.23 0c110,0 200,90 200,200l0 1387.6c0,110 -90,200 -200,200l-3516.23 0c-110,0 -200,-90 -200,-200z"/>
  <path class="fil0 str1" d="M-18823.17 3927.69l0 -1262.66c0,-100.1 81.89,-181.99 182,-181.99l3368.65 0c100.1,0 182,81.89 182,181.99l0 1262.66c0,100.1 -81.9,181.99 -182,181.99l-3368.65 0c-100.11,0 -182,-81.89 -182,-181.99z"/>
  <path class="fil0 str1" d="M-18767.64 3291.2c0,351.11 284.64,635.75 635.75,635.75 351.11,0 635.75,-284.64 635.75,-635.75 0,-351.11 -284.64,-635.75 -635.75,-635.75 -351.11,0 -635.75,284.64 -635.75,635.75 0,351.11 459.82,419.95 488.92,421.27"/>
  <path class="fil0 str1" d="M-17332.49 3285.15c0,202.55 164.2,366.75 366.75,366.75 202.55,0 366.75,-164.2 366.75,-366.75 0,-202.55 -164.2,-366.75 -366.75,-366.75 -202.55,0 -366.75,164.2 -366.75,366.75 0,202.55 265.26,242.26 282.05,243.02"/>
  <path class="fil0 str1" d="M-16031.67 3773.45c0,82.5 67.5,150 150,150l492.44 0c82.5,0 150,-67.5 150,-150l0 -465.97c0,-82.5 -67.5,-150 -150,-150l-492.44 0c-82.5,0 -150,67.5 -150,150l0 465.97c0,0 7.59,-289.19 71.75,-352.03"/>
  <path class="fil0 str1" d="M-15994.32 2815.84c0,91.5 74.85,166.35 166.35,166.35l409.43 0c91.5,0 166.35,-74.85 166.35,-166.35l0 -0.02c0,-91.5 -74.85,-166.35 -166.35,-166.35l-409.43 0c-91.52,0 -166.35,74.86 -166.35,166.37 0,91.51 121.05,125.33 140.9,126.66"/>
  <path class="fil0 str1" d="M-15635.15 897.43c0,320.01 259.43,579.44 579.44,579.44 320.01,0 579.44,-259.43 579.44,-579.44 0,-320.01 -259.43,-579.44 -579.44,-579.44 -320.01,0 -579.44,259.43 -579.44,579.44 0,320.01 419.09,382.75 445.62,383.96"/>
  <g id="_2235696834064">
   <path class="fil0 str1" d="M1103.03 5301.24l1672.53 0c143.07,0 260.13,-117.06 260.13,-260.13l0 -4125.31c0,-143.07 -117.06,-260.13 -260.13,-260.13l-1564.32 0c-143.07,0 -260.13,117.06 -260.13,260.13l0 4125.31c0,143.07 117.06,260.13 260.13,260.13 143.08,0 228.87,26.9 272.07,54.43"/>
   <path class="fil0 str1" d="M1098.69 782.58l401.07 0c31.79,0 57.8,26.02 57.8,57.81l0 1016.32c0,31.79 -26.01,57.81 -57.8,57.81l-401.07 0c-31.79,0 -57.81,-26.02 -57.81,-57.81l0 -1016.32c0,-31.79 26.02,-57.81 57.81,-57.81z"/>
   <path class="fil0 str1" d="M1116.75 809.11l364.95 0c28.93,0 52.6,23.67 52.6,52.61l0 973.66c0,28.94 -23.67,52.61 -52.6,52.61l-364.95 0c-28.94,0 -52.61,-23.67 -52.61,-52.61l0 -973.66c0,-28.94 23.67,-52.61 52.61,-52.61z"/>
   <path class="fil0 str1" d="M1300.71 825.16c-101.48,0 -183.75,82.28 -183.75,183.76 0,101.48 82.27,183.75 183.75,183.75 101.49,0 183.76,-82.27 183.76,-183.75 0,-101.48 -82.27,-183.76 -183.76,-183.76 -101.48,0 -121.38,132.91 -121.76,141.32"/>
   <path class="fil0 str1" d="M1302.46 1239.98c-58.54,0 -106,47.46 -106,106 0,58.54 47.46,106 106,106 58.55,0 106.01,-47.46 106.01,-106 0,-58.54 -47.46,-106 -106.01,-106 -58.54,0 -70.02,76.67 -70.24,81.52"/>
   <path class="fil0 str1" d="M1161.33 1615.96c-23.85,0 -43.36,19.51 -43.36,43.36l0 142.33c0,23.84 19.51,43.35 43.36,43.35l134.68 0c23.84,0 43.35,-19.51 43.35,-43.35l0 -142.33c0,-23.85 -19.51,-43.36 -43.35,-43.36l-134.68 0c0,0 83.58,2.19 101.75,20.74"/>
   <path class="fil0 str1" d="M1438.11 1626.76c-26.45,0 -48.08,21.63 -48.08,48.08l0 118.34c0,26.44 21.63,48.08 48.08,48.08l0.01 0c26.44,0 48.08,-21.64 48.08,-48.08l0 -118.34c0,-26.46 -21.64,-48.08 -48.09,-48.08 -26.45,0 -36.22,34.98 -36.61,40.72"/>
   <path class="fil0 str1" d="M1992.6 1730.57c-92.49,0 -167.48,74.98 -167.48,167.48 0,92.49 74.99,167.48 167.48,167.48 92.5,0 167.48,-74.99 167.48,-167.48 0,-92.5 -74.98,-167.48 -167.48,-167.48 -92.49,0 -110.63,121.13 -110.98,128.8"/>
  </g>
 </g>
</svg>
