<?xml version="1.0" encoding="UTF-8"?>
<!DOCTYPE svg PUBLIC "-//W3C//DTD SVG 1.1//EN" "http://www.w3.org/Graphics/SVG/1.1/DTD/svg11.dtd">
<!-- Creator: CorelDRAW 2020 (64-Bit) -->
<svg xmlns="http://www.w3.org/2000/svg" xml:space="preserve" width="40mm" height="60mm" version="1.1" style="shape-rendering:geometricPrecision; text-rendering:geometricPrecision; image-rendering:optimizeQuality; fill-rule:evenodd; clip-rule:evenodd"
viewBox="0 0 4000 6000"
 xmlns:xlink="http://www.w3.org/1999/xlink"
 xmlns:xodm="http://www.corel.com/coreldraw/odm/2003">
 <defs>
  <style type="text/css">
   <![CDATA[
    .str1 {stroke:#332C2B;stroke-width:20;stroke-miterlimit:22.9256}
    .str0 {stroke:#E72D28;stroke-width:20;stroke-miterlimit:22.9256}
    .str2 {stroke:#222222;stroke-width:20;stroke-miterlimit:22.9256}
    .fil0 {fill:none}
   ]]>
  </style>
   <clipPath id="id0">
    <rect x="-40745.07" y="-5468.38" width="8748.88" height="17423.84"/>
   </clipPath>
 </defs>
 <g id="图层_x0020_1">
  <metadata id="CorelCorpID_0Corel-Layer"/>
  <g style="clip-path:url(#id0)">
   <image x="-40745.07" y="-5468.38" width="8748.88" height="17423.84" xlink:href="RX8-11i（背膜）_Images\RX8-11i（背膜）_ImgID1.png"/>
  </g>
  <rect class="fil0 str0" x="-40207.88" y="-5184.5" width="7560" height="16330"/>
  <rect class="fil0 str0" x="-40030.22" y="-4965.9" width="7204.68" height="15787.71" rx="600" ry="660.14"/>
  <rect class="fil0 str1" x="-38715.94" y="-3945.21" width="560.93" height="1750.23" rx="600" ry="637.33"/>
  <rect class="fil0 str1" x="-37621.11" y="-4108.61" width="2393.15" height="3759.71" rx="350" ry="363.98"/>
  <path class="fil0 str2" d="M-2042.69 6599.08l0 -6689.96c0,-329.99 -270.01,-600 -600,-600l-14587.72 0c-329.99,0 -599.99,270 -599.99,600l0 6004.68c0,330.01 270,600 599.99,600l14587.72 0c330,0 600,-269.99 600,-600 0,-330.01 89.68,-1719.17 394.6,-1800.87"/>
  <path class="fil0 str2" d="M-16809.72 4919.07c0,154.26 126.2,280.46 280.46,280.46l1189.31 0c154.26,0 280.46,-126.2 280.46,-280.46l0 -0.01c0,-154.26 -126.2,-280.46 -280.46,-280.46l-1189.31 0c-154.27,0 -280.46,126.2 -280.46,280.47 0,154.27 143.52,199.03 224.22,199.03"/>
  <path class="fil0 str2" d="M-16973.12 3754.7c0,192.5 157.5,350 350,350l3059.71 0c192.5,0 350,-157.5 350,-350l0 -1693.15c0,-192.5 -157.5,-350 -350,-350l-3059.71 0c-192.5,0 -350,157.5 -350,350l0 1693.15c0,0 47.28,-1206.84 613.53,-1358.57"/>
  <g id="_2305931901632">
   <path class="fil0 str2" d="M934.75 5241.06l1943.04 0c95.84,0 174.26,-78.42 174.26,-174.26l0 -4236.87c0,-95.84 -78.42,-174.26 -174.26,-174.26l-1744.01 0c-95.85,0 -174.26,78.42 -174.26,174.26l0 4236.87c0,95.84 78.41,174.26 174.26,174.26 95.85,0 499.32,26.05 523.05,114.61"/>
   <path class="fil0 str2" d="M1422.69 952.12c-44.8,0 -81.45,36.65 -81.45,81.46l0 345.42c0,44.8 36.65,81.46 81.45,81.46l0.01 0c44.8,0 81.45,-36.66 81.45,-81.46l0 -345.42c0,-44.81 -36.65,-81.46 -81.46,-81.46 -44.8,0 -57.8,41.68 -57.8,65.12"/>
   <path class="fil0 str2" d="M1760.87 904.66c-55.91,0 -101.65,45.74 -101.65,101.65l0 888.67c0,55.91 45.74,101.65 101.65,101.65l491.76 0c55.91,0 101.66,-45.74 101.66,-101.65l0 -888.67c0,-55.91 -45.75,-101.65 -101.66,-101.65l-491.76 0c0,0 350.52,13.73 394.59,178.19"/>
  </g>
 </g>
</svg>
