<?xml version="1.0" encoding="UTF-8"?>
<!DOCTYPE svg PUBLIC "-//W3C//DTD SVG 1.1//EN" "http://www.w3.org/Graphics/SVG/1.1/DTD/svg11.dtd">
<!-- Creator: CorelDRAW X8 -->
<svg xmlns="http://www.w3.org/2000/svg" xml:space="preserve" width="40mm" height="60mm" version="1.1" style="shape-rendering:geometricPrecision; text-rendering:geometricPrecision; image-rendering:optimizeQuality; fill-rule:evenodd; clip-rule:evenodd"
viewBox="0 0 4000 6000"
 xmlns:xlink="http://www.w3.org/1999/xlink">
 <defs>
  <style type="text/css">
   <![CDATA[
    .str0 {stroke:#332C2B;stroke-width:20}
    .fil0 {fill:none}
   ]]>
  </style>
 </defs>
 <g id="图层_x0020_1">
  <metadata id="CorelCorpID_0Corel-Layer"/>
  <path class="fil0 str0" d="M1110 650c8,0 15,0 23,0 15,0 19,8 19,17l0 113c0,18 15,33 33,33l1466 0c18,0 33,-15 33,-33 0,-37 0,-74 0,-112 0,-12 10,-18 20,-18l186 0c116,0 212,95 212,212l0 4276c0,117 -96,212 -212,212l-1780 0c-116,0 -212,-95 -212,-212l0 -4276c0,-117 96,-212 212,-212z"/>
 </g>
</svg>
