<?xml version="1.0" encoding="UTF-8"?>
<!DOCTYPE svg PUBLIC "-//W3C//DTD SVG 1.1//EN" "http://www.w3.org/Graphics/SVG/1.1/DTD/svg11.dtd">
<!-- Creator: CorelDRAW X8 -->
<svg xmlns="http://www.w3.org/2000/svg" xml:space="preserve" width="40mm" height="60mm" version="1.1" style="shape-rendering:geometricPrecision; text-rendering:geometricPrecision; image-rendering:optimizeQuality; fill-rule:evenodd; clip-rule:evenodd"
viewBox="0 0 4000 6000"
 xmlns:xlink="http://www.w3.org/1999/xlink">
 <defs>
  <style type="text/css">
   <![CDATA[
    .fil0 {fill:#332C2B;fill-rule:nonzero}
   ]]>
  </style>
 </defs>
 <g id="Katman_x0020_1">
  <metadata id="CorelCorpID_0Corel-Layer"/>
  <g>
   <path class="fil0" d="M2436 5238l0 -8 0 0 3 0 4 0 3 1 3 0 3 0 3 1 3 0 2 1 3 0 2 1 2 1 2 0 2 1 2 1 2 1 2 1 1 1 2 1 1 2 1 1 1 1 1 2 1 1 1 1 1 2 1 1 1 2 0 1 1 2 0 1 1 2 0 2 -7 2 0 -2 -1 -1 0 -2 -1 -1 0 -1 -1 -1 0 -1 -1 -2 -1 -1 0 -1 -1 -1 -1 -1 -1 -1 -1 -1 -1 -1 -1 0 -2 -1 -1 -1 -2 -1 -1 -1 -2 0 -2 -1 -2 -1 -2 0 -3 -1 -2 0 -3 0 -2 -1 -3 0 -4 0 -3 0 -3 0 0 0zm-34 -8l34 0 0 8 -34 0 0 0 0 -8zm-28 36l-8 0 0 0 0 -2 1 -2 0 -1 0 -2 1 -2 0 -2 1 -1 0 -2 1 -2 1 -1 1 -2 1 -1 1 -1 1 -2 1 -1 1 -1 1 -2 1 -1 2 -1 1 -1 2 -1 1 -1 2 0 1 -1 2 -1 2 0 1 -1 2 0 2 0 1 -1 2 0 2 0 0 8 -1 0 -2 0 -1 0 -2 0 -1 1 -1 0 -2 1 -1 0 -1 1 -1 0 -2 1 -1 1 -1 0 -1 1 -1 1 -1 1 -1 1 -1 1 -1 1 0 1 -1 1 -1 2 0 1 -1 1 -1 1 0 2 0 1 -1 1 0 2 0 1 0 2 0 1 0 0zm-8 0l0 0 8 0 0 0 0 0 -8 0zm36 28l0 8 0 0 -2 0 -2 0 -1 -1 -2 0 -2 0 -1 -1 -2 0 -2 -1 -1 -1 -2 -1 -1 0 -2 -1 -1 -1 -2 -1 -1 -1 -1 -2 -1 -1 -1 -1 -1 -2 -1 -1 -1 -1 -1 -2 -1 -1 -1 -2 0 -2 -1 -1 0 -2 -1 -2 0 -2 0 -1 -1 -2 0 -2 8 0 0 1 0 2 0 1 0 2 1 1 0 1 0 2 1 1 1 1 0 1 1 1 1 2 0 1 1 1 1 1 1 1 1 1 1 1 1 1 1 0 1 1 2 1 1 0 1 1 1 0 2 1 1 0 1 1 2 0 1 0 2 0 1 0 0 0zm323 8l-323 0 0 -8 323 0 0 0 0 8zm28 -36l7 0 0 0 0 2 0 2 0 1 0 2 -1 2 0 2 -1 1 0 2 -1 2 -1 1 -1 2 -1 1 -1 1 -1 2 -1 1 -1 1 -1 2 -2 1 -1 1 -1 1 -2 1 -1 0 -2 1 -1 1 -2 1 -2 0 -1 1 -2 0 -2 0 -2 1 -1 0 -2 0 0 -8 1 0 2 0 1 0 1 0 2 -1 1 0 1 -1 2 0 1 -1 1 0 1 -1 2 -1 1 0 1 -1 1 -1 1 -1 1 -1 1 -1 0 -1 1 -1 1 -1 1 -2 0 -1 1 -1 0 -1 1 -2 0 -1 0 -1 1 -2 0 -1 0 -2 0 -1 0 0zm7 0l0 0 -7 0 0 0 0 0 7 0zm-35 -28l0 -8 0 0 2 0 1 0 2 1 2 0 2 0 1 1 2 0 2 1 1 1 2 0 1 1 2 1 1 1 1 1 2 1 1 2 1 1 1 1 1 2 1 1 1 1 1 2 1 1 1 2 0 2 1 1 0 2 1 2 0 2 0 1 0 2 0 2 -7 0 0 -1 0 -2 0 -1 -1 -2 0 -1 0 -1 -1 -2 0 -1 -1 -1 0 -1 -1 -2 -1 -1 -1 -1 0 -1 -1 -1 -1 -1 -1 -1 -1 -1 -1 -1 -1 0 -2 -1 -1 -1 -1 0 -1 -1 -2 0 -1 -1 -1 0 -2 -1 -1 0 -1 0 -2 0 -1 0 0 0zm-289 -8l289 0 0 8 -289 0 0 -8zm-1114 8l0 -8 0 0 4 0 3 0 3 1 4 0 3 0 2 1 3 0 3 1 2 0 3 1 2 1 2 0 2 1 2 1 1 1 2 1 2 1 1 1 1 2 2 1 1 1 1 2 1 1 1 1 1 2 0 1 1 2 1 1 0 2 1 1 0 2 1 2 -7 2 -1 -2 0 -1 -1 -2 0 -1 -1 -1 0 -1 -1 -1 0 -2 -1 -1 -1 -1 -1 -1 -1 -1 -1 -1 -1 -1 -1 -1 -1 0 -1 -1 -2 -1 -1 -1 -2 -1 -2 0 -2 -1 -2 -1 -2 0 -2 -1 -3 0 -2 0 -3 -1 -3 0 -3 0 -4 0 -3 0 0 0zm-34 -8l34 0 0 8 -34 0 0 0 0 -8zm-28 36l-7 0 0 0 0 -2 0 -2 0 -1 1 -2 0 -2 0 -2 1 -1 1 -2 0 -2 1 -1 1 -2 1 -1 1 -1 1 -2 1 -1 1 -1 2 -2 1 -1 1 -1 2 -1 1 -1 2 0 1 -1 2 -1 1 -1 2 0 2 -1 1 0 2 0 2 -1 2 0 1 0 0 8 -1 0 -1 0 -2 0 -1 0 -2 1 -1 0 -1 1 -2 0 -1 1 -1 0 -1 1 -1 1 -1 0 -2 1 -1 1 -1 1 0 1 -1 1 -1 1 -1 1 -1 1 0 2 -1 1 -1 1 0 1 -1 2 0 1 0 1 -1 2 0 1 0 2 0 1 0 0zm-7 0l0 0 7 0 0 0 0 0 -7 0zm35 28l0 8 0 0 -1 0 -2 0 -2 -1 -2 0 -1 0 -2 -1 -2 0 -1 -1 -2 -1 -1 -1 -2 0 -1 -1 -2 -1 -1 -1 -1 -1 -2 -2 -1 -1 -1 -1 -1 -2 -1 -1 -1 -1 -1 -2 -1 -1 0 -2 -1 -2 -1 -1 0 -2 0 -2 -1 -2 0 -1 0 -2 0 -2 7 0 0 1 0 2 0 1 1 2 0 1 0 1 1 2 0 1 1 1 1 1 0 1 1 2 1 1 1 1 0 1 1 1 1 1 1 1 2 1 1 0 1 1 1 1 1 0 1 1 2 0 1 1 1 0 2 1 1 0 2 0 1 0 1 0 0 0zm323 8l-323 0 0 -8 323 0 0 0 0 8zm28 -36l8 0 0 0 0 2 0 2 -1 1 0 2 0 2 -1 2 0 1 -1 2 -1 2 -1 1 0 2 -1 1 -1 1 -1 2 -2 1 -1 1 -1 2 -1 1 -2 1 -1 1 -1 1 -2 0 -1 1 -2 1 -2 1 -1 0 -2 1 -2 0 -1 0 -2 1 -2 0 -2 0 0 -8 2 0 1 0 1 0 2 0 1 -1 2 0 1 -1 1 0 1 -1 2 0 1 -1 1 -1 1 0 1 -1 1 -1 1 -1 1 -1 1 -1 1 -1 1 -1 0 -1 1 -2 1 -1 0 -1 1 -1 0 -2 1 -1 0 -1 0 -2 0 -1 0 -2 0 -1 0 0zm8 0l0 0 -8 0 0 0 0 0 8 0zm-36 -28l0 -8 0 0 2 0 2 0 2 1 1 0 2 0 2 1 1 0 2 1 2 1 1 0 2 1 1 1 1 1 2 1 1 1 1 2 1 1 2 1 1 2 1 1 1 1 0 2 1 1 1 2 1 2 0 1 1 2 0 2 0 2 1 1 0 2 0 2 -8 0 0 -1 0 -2 0 -1 0 -2 0 -1 -1 -1 0 -2 -1 -1 0 -1 -1 -1 -1 -2 0 -1 -1 -1 -1 -1 -1 -1 -1 -1 -1 -1 -1 -1 -1 -1 -1 0 -1 -1 -1 -1 -2 0 -1 -1 -1 0 -1 -1 -2 0 -1 -1 -2 0 -1 0 -1 0 -2 0 0 0zm-289 -8l289 0 0 8 -289 0 0 -8zm192 -4498l-8 0 0 0 0 -1 0 -1 0 -2 0 -1 0 -1 -1 -1 0 -1 -1 -1 0 -1 -1 -1 0 -1 -1 -1 0 -1 -1 -1 -1 -1 -1 -1 0 -1 -1 0 -1 -1 -1 -1 -1 0 -1 -1 -1 -1 -1 0 -1 0 -2 -1 -1 0 -1 0 -1 -1 -1 0 -2 0 -1 0 0 -8 2 0 1 1 2 0 2 0 1 0 2 1 1 0 1 1 2 1 1 0 1 1 2 1 1 1 1 1 1 1 1 1 1 1 1 1 1 1 1 1 1 2 1 1 1 1 0 2 1 1 0 2 1 1 0 2 0 1 1 2 0 1 0 2 0 0zm-32 32l0 -8 0 0 1 0 2 0 1 0 1 0 1 -1 1 0 2 0 1 -1 1 0 1 -1 1 0 1 -1 1 -1 1 0 1 -1 0 -1 1 -1 1 -1 1 -1 0 -1 1 -1 0 -1 1 -1 0 -1 1 -1 0 -1 1 -1 0 -1 0 -1 0 -1 0 -2 0 -1 8 0 0 2 0 1 -1 2 0 1 0 2 -1 2 0 1 -1 1 0 2 -1 1 -1 2 -1 1 -1 1 -1 1 -1 1 -1 1 -1 2 -1 1 -1 0 -1 1 -2 1 -1 1 -1 1 -2 0 -1 1 -1 0 -2 1 -1 0 -2 0 -2 1 -1 0 -2 0 0 0zm-31 -32l7 0 0 0 0 1 0 2 0 1 1 1 0 1 0 1 0 1 1 1 0 1 1 1 1 1 0 1 1 1 1 1 0 1 1 1 1 1 1 1 1 0 1 1 1 1 1 0 1 1 1 0 1 1 1 0 1 0 1 1 2 0 1 0 1 0 1 0 0 8 -1 0 -2 0 -2 -1 -1 0 -2 0 -1 -1 -2 0 -1 -1 -1 0 -2 -1 -1 -1 -1 -1 -2 -1 -1 0 -1 -1 -1 -2 -1 -1 -1 -1 -1 -1 -1 -1 -1 -1 0 -2 -1 -1 -1 -2 0 -1 -1 -1 0 -2 -1 -2 0 -1 0 -2 0 -1 0 -2 0 0zm31 -32l0 8 0 0 -1 0 -1 0 -1 0 -2 1 -1 0 -1 0 -1 1 -1 0 -1 0 -1 1 -1 1 -1 0 -1 1 -1 1 -1 0 -1 1 -1 1 0 1 -1 1 -1 1 0 1 -1 1 -1 1 0 1 0 1 -1 1 0 1 0 1 -1 1 0 2 0 1 0 1 -7 0 0 -2 0 -1 0 -2 0 -1 1 -2 0 -1 1 -2 0 -1 1 -2 1 -1 0 -1 1 -2 1 -1 1 -1 1 -1 1 -1 1 -1 1 -1 1 -1 2 -1 1 -1 1 -1 2 0 1 -1 1 -1 2 0 1 -1 2 0 1 0 2 0 2 -1 1 0 0 0zm1232 63l-7 0 0 0 0 -3 0 -4 -1 -3 0 -3 -1 -3 -1 -3 -1 -2 -1 -3 -1 -3 -1 -3 -2 -2 -1 -3 -2 -2 -2 -2 -2 -3 -2 -2 -2 -2 -2 -2 -3 -2 -2 -1 -3 -2 -2 -1 -3 -2 -2 -1 -3 -1 -3 -1 -3 -1 -3 -1 -3 0 -3 -1 -3 0 -4 0 0 -8 4 1 3 0 4 0 3 1 4 1 3 1 3 1 3 1 3 1 3 2 3 1 3 2 3 2 2 2 3 2 2 3 2 2 3 3 2 2 2 3 1 3 2 3 2 3 1 3 1 3 1 3 1 3 1 4 1 3 0 4 0 3 0 4 0 0zm-69 69l0 -8 0 0 4 0 3 0 3 0 3 -1 3 -1 3 -1 3 -1 3 -1 2 -1 3 -1 2 -2 3 -1 2 -2 3 -2 2 -2 2 -2 2 -2 2 -2 2 -3 2 -2 1 -2 2 -3 1 -3 1 -2 1 -3 1 -3 1 -3 1 -3 0 -3 1 -3 0 -3 0 -3 7 0 0 3 0 4 0 3 -1 4 -1 3 -1 3 -1 4 -1 3 -1 3 -2 3 -2 3 -1 2 -2 3 -2 3 -3 2 -2 3 -2 2 -3 2 -2 2 -3 2 -3 2 -3 2 -3 1 -3 1 -3 2 -3 1 -3 1 -4 0 -3 1 -4 0 -3 1 -4 0 0 0zm-69 -69l8 0 0 0 0 3 0 3 0 3 1 3 1 3 0 3 1 3 2 3 1 2 1 3 2 3 1 2 2 2 2 3 2 2 2 2 2 2 2 2 2 2 3 2 2 1 3 2 3 1 2 1 3 1 3 1 3 1 3 1 3 1 3 0 3 0 3 0 0 8 -3 0 -4 -1 -3 0 -3 -1 -4 0 -3 -1 -3 -1 -3 -2 -3 -1 -3 -1 -3 -2 -3 -2 -3 -2 -2 -2 -3 -2 -2 -2 -3 -3 -2 -2 -2 -3 -2 -3 -2 -2 -1 -3 -2 -3 -1 -3 -1 -3 -1 -4 -1 -3 -1 -3 -1 -4 0 -3 0 -4 -1 -3 0 0zm69 -70l0 8 0 0 -3 0 -3 0 -3 1 -3 0 -3 1 -3 1 -3 1 -3 1 -2 1 -3 2 -3 1 -2 2 -3 1 -2 2 -2 2 -2 2 -2 2 -2 3 -2 2 -2 2 -1 3 -2 2 -1 3 -1 3 -2 3 -1 2 0 3 -1 3 -1 3 0 3 0 3 0 4 -8 0 1 -4 0 -3 0 -4 1 -3 1 -4 1 -3 1 -3 1 -3 1 -3 2 -3 1 -3 2 -3 2 -3 2 -2 2 -3 3 -2 2 -3 3 -2 2 -2 3 -2 3 -2 3 -1 3 -2 3 -1 3 -1 3 -1 3 -1 4 -1 3 -1 3 0 4 0 3 -1 0 0zm580 -39l-2413 0 0 -8 2413 0 4 4 -4 4zm0 -8l4 0 0 4 -4 -4zm-3 168l0 -164 7 0 0 164 -4 4 -3 -4zm7 0l0 3 -4 1 4 -4zm-318 16l314 -20 0 8 -314 19 -1 0 1 -7zm149 227l0 8 -4 -4 -1 -16 -1 -16 -2 -15 -3 -14 -4 -13 -4 -13 -4 -12 -5 -12 -6 -10 -5 -10 -7 -10 -6 -9 -6 -8 -7 -7 -7 -8 -6 -6 -7 -6 -7 -6 -6 -5 -7 -4 -6 -4 -6 -4 -6 -3 -5 -3 -5 -2 -4 -3 -4 -1 -3 -2 -3 -1 -2 0 -1 -1 0 0 2 -7 1 0 1 1 2 0 3 1 3 2 4 1 4 3 5 2 6 3 6 3 6 4 6 4 7 5 7 5 6 6 7 6 7 7 7 7 7 8 7 9 6 9 7 10 6 10 5 11 5 12 5 12 4 13 4 14 3 15 2 15 2 16 0 17 -3 -4zm0 8l-4 0 0 -4 4 4zm145 1l-145 -1 0 -8 145 1 4 4 -4 4zm0 -8l4 0 0 4 -4 -4zm-5 3888l2 -3884 7 0 -2 3884 -4 4 -3 -4zm7 0l0 4 -4 0 4 -4zm-164 -4l160 1 0 7 -160 0 -4 -3 4 -5zm-4 5l-1 -5 5 0 -4 5zm-170 223l-1 8 0 -8 14 -3 14 -4 13 -5 12 -5 12 -5 10 -6 10 -6 10 -6 9 -7 8 -7 7 -7 7 -8 7 -7 6 -8 5 -8 5 -8 4 -8 4 -8 3 -9 3 -8 3 -8 2 -8 2 -8 1 -8 1 -8 1 -8 0 -8 0 -7 0 -7 0 -7 -1 -7 -1 -6 7 -2 1 7 1 7 0 7 0 8 0 7 0 8 -1 8 -1 9 -1 8 -2 9 -2 8 -3 9 -3 8 -4 9 -4 8 -4 9 -5 8 -6 8 -6 9 -6 7 -8 8 -7 8 -9 7 -9 7 -10 6 -10 7 -11 6 -12 5 -13 5 -13 5 -14 4 -15 4 0 -8zm345 26l-346 -18 1 -8 346 19 3 3 -4 4zm1 -7l3 0 0 3 -3 -3zm-4 161l0 -158 7 0 0 158 -4 4 -3 -4zm7 0l0 4 -4 0 4 -4zm-2443 -4l2439 0 0 8 -2439 0 -4 -4 4 -4zm0 8l-4 0 0 -4 4 4zm3 -169l0 165 -7 0 0 -165 4 -4 3 4zm-7 0l0 -4 4 0 -4 4zm335 -12l-331 15 0 -7 330 -16 2 1 -1 7zm1 -7l10 6 -11 1 1 -7zm-145 -249l0 -7 4 4 -1 13 0 13 0 13 2 12 3 12 3 12 4 12 4 12 5 11 5 11 6 10 6 10 7 10 7 10 6 9 7 9 8 8 7 8 7 7 6 7 7 7 6 6 6 5 6 5 5 5 5 4 4 3 4 3 3 2 2 1 1 1 0 1 -4 6 0 0 -2 -1 -2 -2 -3 -2 -3 -3 -4 -3 -5 -4 -6 -5 -5 -5 -7 -6 -6 -6 -7 -6 -7 -7 -7 -8 -7 -8 -7 -8 -7 -9 -7 -10 -7 -9 -7 -10 -6 -11 -6 -11 -6 -11 -5 -11 -4 -12 -4 -12 -4 -13 -2 -12 -2 -13 -1 -14 0 -13 1 -14 4 4zm0 -7l4 0 0 4 -4 -4zm-144 0l144 0 0 7 -144 1 -3 -4 3 -4zm0 8l-3 0 0 -4 3 4zm-5 -3860l9 3856 -7 0 -9 -3856 4 -4 3 4zm-7 0l0 -4 4 0 -4 4zm166 5l-162 -1 0 -8 162 1 4 4 -4 4zm4 -4l0 4 -4 0 4 -4zm168 -229l0 -7 1 7 -16 4 -15 5 -15 5 -13 6 -12 7 -11 7 -10 8 -10 9 -9 9 -8 9 -7 9 -6 10 -6 10 -5 10 -5 10 -4 10 -3 10 -3 9 -3 10 -2 9 -2 9 -1 8 -1 8 -1 7 -1 7 0 6 0 5 0 5 0 3 0 3 0 2 0 0 -8 0 0 0 0 -2 0 -3 0 -3 0 -5 1 -5 0 -7 1 -6 0 -8 2 -8 1 -9 2 -9 2 -9 3 -10 3 -10 3 -10 5 -10 4 -11 6 -10 6 -10 6 -10 8 -10 8 -10 9 -9 10 -9 11 -8 11 -8 13 -7 14 -6 14 -6 16 -5 17 -3 0 7zm-332 -15l332 8 0 7 -332 -7 -4 -4 4 -4zm0 8l-3 0 -1 -4 4 4zm3 -173l1 169 -8 0 0 -169 4 -4 3 4zm-7 0l0 -4 4 0 -4 4zm472 965l0 8 0 0 -3 0 -3 0 -2 0 -3 1 -2 0 -3 1 -2 1 -2 1 -2 1 -3 1 -2 1 -2 1 -2 2 -2 1 -2 2 -1 2 -2 1 -2 2 -1 2 -1 2 -2 2 -1 2 -1 2 -1 3 -1 2 -1 2 0 3 -1 2 0 3 -1 2 0 3 0 2 -7 0 0 -3 0 -3 0 -3 1 -3 1 -2 0 -3 1 -3 1 -2 1 -3 2 -3 1 -2 2 -2 1 -3 2 -2 2 -2 2 -2 2 -2 2 -2 2 -1 2 -2 3 -1 2 -2 3 -1 2 -1 3 -1 2 -1 3 -1 3 -1 3 0 3 -1 3 0 3 0 0 0zm57 58l-7 0 0 0 0 -2 0 -3 0 -2 -1 -3 0 -2 -1 -3 -1 -2 -1 -2 -1 -3 -1 -2 -1 -2 -1 -2 -2 -2 -1 -2 -2 -2 -2 -1 -1 -2 -2 -2 -2 -1 -2 -2 -2 -1 -2 -1 -2 -1 -3 -1 -2 -1 -2 -1 -3 -1 -2 0 -3 -1 -2 0 -3 0 -2 0 0 -8 3 0 2 0 3 1 3 0 3 1 3 1 2 1 3 1 3 1 2 1 3 2 2 1 2 2 2 1 2 2 2 2 2 2 2 2 2 2 2 3 1 2 1 3 2 2 1 3 1 2 1 3 1 3 0 3 1 2 0 3 0 3 0 3 0 0zm-57 58l0 -7 0 0 2 0 3 -1 2 0 3 0 2 -1 3 -1 2 0 2 -1 3 -1 2 -1 2 -2 2 -1 2 -1 2 -2 2 -2 1 -1 2 -2 2 -2 1 -2 2 -2 1 -2 1 -2 1 -2 1 -2 1 -2 1 -3 1 -2 0 -3 1 -2 0 -3 0 -2 0 -3 7 0 0 3 0 3 0 3 -1 3 0 3 -1 3 -1 2 -1 3 -1 2 -2 3 -1 2 -1 3 -2 2 -2 2 -2 2 -2 2 -2 2 -2 2 -2 2 -2 1 -2 2 -3 1 -2 2 -3 1 -3 1 -2 1 -3 0 -3 1 -3 1 -3 0 -2 0 -3 0 0 0zm-58 -58l7 0 0 0 0 3 0 2 1 3 0 2 1 3 0 2 1 3 1 2 1 2 1 2 1 2 2 2 1 2 1 2 2 2 2 2 1 1 2 2 2 2 2 1 2 1 2 2 3 1 2 1 2 1 2 0 3 1 2 1 3 0 2 0 3 1 3 0 0 7 -3 0 -3 0 -3 0 -3 -1 -3 -1 -3 0 -2 -1 -3 -1 -2 -1 -3 -2 -2 -1 -3 -2 -2 -1 -2 -2 -2 -2 -2 -2 -2 -2 -2 -2 -2 -2 -1 -2 -2 -3 -1 -2 -2 -3 -1 -2 -1 -3 -1 -2 0 -3 -1 -3 -1 -3 0 -3 0 -3 0 -3 0 0zm1912 -467l0 0 0 0 0 0 0 -4 0 4zm44 45l-7 0 0 0 0 -2 0 -2 0 -2 -1 -2 0 -2 -1 -2 0 -2 -1 -2 -1 -2 0 -2 -1 -1 -1 -2 -1 -2 -1 -1 -2 -2 -1 -1 -1 -1 -2 -2 -1 -1 -1 -1 -2 -1 -1 -1 -2 -1 -2 -1 -1 0 -2 -1 -2 -1 -1 0 -2 0 -2 -1 -2 0 -2 0 0 -8 2 1 3 0 2 0 2 0 2 1 2 1 2 0 2 1 2 1 2 1 2 2 2 1 2 1 1 2 2 1 1 2 2 1 1 2 2 2 1 2 1 2 1 2 1 2 1 2 1 2 0 3 1 2 0 2 1 3 0 2 0 2 0 3 0 0zm-7 483l0 -483 7 0 0 483 0 0 -7 0zm-39 42l5 5 -3 -6 2 0 2 0 2 -1 1 0 2 0 2 -1 2 -1 1 0 2 -1 2 -1 1 -1 2 -1 1 -1 1 -2 2 -1 1 -1 1 -2 2 -1 1 -2 1 -1 1 -2 1 -2 0 -1 1 -2 1 -2 0 -2 1 -2 0 -2 1 -2 0 -2 0 -2 0 -2 7 0 0 2 0 3 0 2 -1 3 0 2 -1 2 0 2 -1 3 -1 2 -1 2 -1 2 -1 2 -1 2 -2 2 -1 1 -2 2 -1 2 -2 1 -1 2 -2 1 -2 1 -2 1 -2 2 -2 1 -2 0 -2 1 -2 1 -2 0 -2 1 -2 0 -3 0 -2 0 -2 -6zm2 6l-9 0 7 -6 2 6zm3 -1l0 0 -5 -5 0 0 2 -1 3 6zm-3 -6l9 0 -6 6 -3 -6zm-44 -41l7 0 0 0 0 2 0 2 1 2 0 2 0 2 1 2 0 2 1 2 1 2 1 1 1 2 1 2 1 1 1 2 1 1 1 2 1 1 2 1 1 2 2 1 1 1 2 1 1 1 2 1 2 0 1 1 2 0 2 1 2 0 1 1 2 0 2 0 0 7 -2 0 -2 0 -3 0 -2 -1 -2 0 -2 -1 -2 -1 -2 0 -2 -1 -2 -2 -2 -1 -2 -1 -1 -1 -2 -2 -2 -1 -1 -2 -2 -2 -1 -1 -1 -2 -2 -2 -1 -2 -1 -2 -1 -2 -1 -2 0 -3 -1 -2 -1 -2 0 -2 -1 -3 0 -2 0 -3 0 -2 0 0zm7 -483l0 483 -7 0 0 -483 0 0 7 0zm37 -49l0 8 0 0 -2 0 -2 0 -1 1 -2 0 -2 0 -2 1 -1 1 -2 0 -2 1 -1 1 -2 1 -1 1 -2 1 -1 1 -2 2 -1 1 -1 1 -1 2 -1 1 -1 2 -1 2 -1 1 -1 2 -1 2 -1 2 0 2 -1 2 0 2 0 2 -1 2 0 2 0 2 -7 0 0 -3 0 -2 0 -2 1 -3 0 -2 1 -2 1 -3 0 -2 1 -2 1 -2 1 -2 1 -2 2 -2 1 -2 1 -2 2 -1 1 -2 2 -1 2 -2 1 -1 2 -1 2 -2 2 -1 2 -1 2 -1 2 0 2 -1 2 -1 2 0 3 0 2 0 2 -1 0 0zm-2252 1164l0 0 0 0 0 0 0 -4 0 4zm40 43l-7 0 0 0 0 -2 -1 -2 0 -2 0 -2 0 -2 -1 -2 0 -1 -1 -2 -1 -2 -1 -2 0 -1 -1 -2 -1 -1 -1 -2 -1 -1 -1 -2 -1 -1 -2 -1 -1 -1 -1 -2 -2 -1 -1 0 -1 -1 -2 -1 -1 -1 -2 0 -1 -1 -2 0 -2 -1 -1 0 -2 0 -1 0 0 -8 2 0 2 0 2 1 2 0 2 1 2 0 2 1 1 1 2 1 2 1 2 1 1 1 2 2 1 1 2 2 1 1 2 2 1 2 1 1 1 2 1 2 1 2 1 2 1 2 0 2 1 2 1 3 0 2 0 2 1 3 0 2 0 2 0 0zm-7 211l0 -211 7 0 0 211 0 0 -7 0zm-37 44l7 0 -3 -4 1 0 2 0 1 -1 2 0 2 0 1 -1 2 -1 1 0 2 -1 1 -1 1 -1 2 -1 1 -1 1 -1 2 -1 1 -2 1 -1 1 -1 1 -2 1 -1 1 -2 0 -2 1 -1 1 -2 1 -2 0 -2 1 -2 0 -2 0 -2 0 -2 1 -2 0 -2 7 0 0 3 0 2 -1 2 0 3 0 2 -1 2 -1 2 0 2 -1 3 -1 2 -1 2 -1 1 -1 2 -1 2 -1 2 -2 1 -1 2 -2 2 -1 1 -2 1 -1 1 -2 2 -2 1 -2 1 -1 1 -2 0 -2 1 -2 0 -2 1 -2 0 -2 0 -2 0 -4 -3zm4 3l-4 0 0 -3 4 3zm3 -3l0 0 -7 0 0 0 4 -4 3 4zm-3 -4l3 0 0 4 -3 -4zm-41 -40l7 0 0 0 1 2 0 2 0 2 0 2 1 2 0 2 1 2 0 2 1 2 1 1 0 2 1 2 1 1 1 2 1 1 1 1 1 2 2 1 1 1 1 1 2 1 1 1 1 1 2 1 1 0 2 1 1 1 2 0 2 0 1 1 2 0 2 0 0 7 -3 0 -2 0 -2 0 -2 -1 -2 0 -2 -1 -1 0 -2 -1 -2 -1 -2 -1 -2 -2 -1 -1 -2 -1 -1 -2 -2 -1 -1 -2 -1 -1 -2 -2 -1 -2 -1 -2 -1 -1 -1 -2 -1 -2 -1 -3 0 -2 -1 -2 -1 -2 0 -2 0 -3 -1 -2 0 -2 0 -3 0 0zm7 -211l0 211 -7 0 0 -211 7 0zm34 -47l0 8 0 0 -2 0 -2 0 -1 0 -2 1 -2 0 -1 1 -2 0 -1 1 -2 1 -1 1 -1 0 -2 1 -1 2 -1 1 -2 1 -1 1 -1 2 -1 1 -1 2 -1 1 -1 2 0 1 -1 2 -1 2 0 2 -1 1 0 2 -1 2 0 2 0 2 0 2 -1 2 -7 0 0 -2 0 -2 1 -3 0 -2 0 -2 1 -3 1 -2 0 -2 1 -2 1 -2 1 -2 1 -2 1 -2 1 -1 2 -2 1 -2 1 -1 2 -2 1 -1 2 -2 1 -1 2 -1 2 -1 2 -1 2 -1 1 -1 2 0 2 -1 2 0 2 -1 2 0 3 0 0 0zm1 -798l0 0 0 0 0 0 0 -4 0 4zm39 40l-7 0 0 0 0 -2 -1 -1 0 -2 0 -2 0 -2 -1 -2 0 -1 -1 -2 -1 -2 0 -1 -1 -2 -1 -1 -1 -2 -1 -1 -1 -2 -1 -1 -1 -1 -1 -1 -1 -1 -2 -1 -1 -1 -1 -1 -2 -1 -1 -1 -1 0 -2 -1 -1 0 -2 -1 -1 0 -2 0 -1 -1 -2 0 0 -7 2 0 2 0 2 0 2 1 2 0 2 1 1 1 2 0 2 1 2 1 1 1 2 2 1 1 2 1 1 2 2 1 1 2 1 1 1 2 1 2 1 1 1 2 1 2 1 2 1 2 0 2 1 2 0 3 0 2 1 2 0 2 0 2 0 0zm-7 522l0 -522 7 0 0 522 0 0 -7 0zm-32 45l0 -8 0 0 2 0 1 0 2 0 1 0 2 -1 1 0 2 -1 1 0 1 -1 2 -1 1 -1 1 -1 2 -1 1 -1 1 -1 1 -1 1 -2 1 -1 1 -1 1 -2 1 -1 1 -2 0 -1 1 -2 1 -2 0 -2 1 -1 0 -2 0 -2 0 -2 1 -2 0 -2 7 0 0 3 0 2 -1 2 0 2 0 2 -1 3 0 2 -1 2 -1 2 -1 1 -1 2 -1 2 -1 2 -1 2 -1 1 -1 2 -2 1 -1 2 -2 1 -1 1 -2 1 -1 2 -2 1 -2 0 -2 1 -1 1 -2 1 -2 0 -2 0 -2 1 -2 0 -2 0 0 0zm0 -4l0 0 0 0 0 0 0 4 0 -4zm-39 -41l7 0 0 0 0 2 0 2 1 2 0 2 0 2 1 1 0 2 1 2 0 2 1 1 1 2 1 1 1 2 1 1 1 1 1 2 1 1 1 1 1 1 1 1 2 1 1 1 1 1 2 1 1 0 2 1 1 0 2 1 1 0 2 0 1 0 2 0 0 8 -2 0 -2 0 -2 -1 -2 0 -2 0 -2 -1 -2 -1 -1 -1 -2 0 -2 -1 -1 -2 -2 -1 -2 -1 -1 -1 -1 -2 -2 -1 -1 -2 -1 -1 -1 -2 -1 -2 -1 -2 -1 -2 -1 -1 -1 -2 -1 -2 0 -2 -1 -3 0 -2 -1 -2 0 -2 0 -2 0 -3 0 0zm7 -522l0 522 -7 0 0 -522 7 0zm32 -44l0 7 0 0 -2 0 -1 1 -2 0 -1 0 -2 1 -1 0 -2 1 -1 0 -2 1 -1 1 -1 1 -2 1 -1 1 -1 1 -1 1 -1 1 -1 1 -1 2 -1 1 -1 2 -1 1 -1 2 -1 1 0 2 -1 2 0 1 -1 2 0 2 0 2 -1 2 0 1 0 2 -7 0 0 -2 0 -2 0 -2 1 -2 0 -3 1 -2 0 -2 1 -2 1 -2 1 -2 1 -2 1 -1 1 -2 1 -2 1 -1 1 -2 2 -1 1 -2 1 -1 2 -1 2 -2 1 -1 2 -1 2 -1 1 0 2 -1 2 -1 2 0 2 -1 2 0 2 0 2 0 0 0zm1299 286l-8 0 0 0 0 -8 -1 -8 -1 -8 -1 -8 -2 -7 -2 -8 -2 -7 -3 -7 -3 -7 -4 -7 -3 -6 -4 -6 -5 -7 -4 -5 -5 -6 -5 -5 -6 -6 -5 -5 -6 -4 -6 -5 -7 -4 -6 -3 -7 -4 -7 -3 -7 -3 -7 -2 -8 -2 -7 -2 -8 -1 -8 -1 -8 -1 -8 0 0 -8 9 0 8 1 8 1 8 1 8 2 8 3 7 2 8 3 7 3 7 4 7 4 7 4 6 5 6 4 6 6 6 5 5 6 5 6 5 6 5 6 4 7 4 7 3 7 4 7 3 7 2 8 2 8 2 8 2 8 1 8 0 8 1 9 0 0zm-164 163l0 -7 0 0 8 -1 8 0 8 -1 8 -2 7 -1 8 -2 7 -3 7 -3 7 -3 7 -3 6 -4 7 -4 6 -4 6 -5 5 -5 6 -5 5 -6 5 -5 4 -6 5 -6 4 -7 3 -6 4 -7 3 -7 3 -7 2 -7 2 -7 2 -8 1 -8 1 -7 1 -8 0 -8 8 0 -1 8 0 8 -1 9 -2 8 -2 8 -2 7 -2 8 -3 7 -4 8 -3 7 -4 7 -4 6 -5 7 -5 6 -5 6 -5 5 -6 6 -6 5 -6 5 -6 4 -7 5 -7 3 -7 4 -7 3 -8 3 -7 3 -8 2 -8 2 -8 1 -8 1 -8 1 -9 0 0 0zm-163 -163l7 0 0 0 1 8 0 8 1 7 2 8 1 8 2 7 3 7 3 7 3 7 3 7 4 6 4 7 4 6 5 6 5 5 5 6 5 5 6 5 6 5 6 4 6 4 7 4 7 3 7 3 7 3 7 3 7 2 8 1 8 2 7 1 8 0 8 1 0 7 -8 0 -8 -1 -8 -1 -9 -1 -7 -2 -8 -2 -8 -3 -7 -3 -7 -3 -7 -4 -7 -3 -7 -5 -6 -4 -6 -5 -6 -5 -6 -6 -5 -5 -6 -6 -4 -6 -5 -7 -4 -6 -4 -7 -4 -7 -3 -8 -3 -7 -3 -8 -2 -7 -2 -8 -1 -8 -1 -9 -1 -8 0 -8 0 0zm163 -164l0 8 0 0 -8 0 -8 1 -7 1 -8 1 -8 2 -7 2 -7 2 -7 3 -7 3 -7 4 -7 3 -6 4 -6 5 -6 4 -6 5 -5 6 -5 5 -5 6 -5 5 -4 7 -4 6 -4 6 -3 7 -3 7 -3 7 -3 7 -2 8 -1 7 -2 8 -1 8 0 8 -1 8 -7 0 0 -9 1 -8 1 -8 1 -8 2 -8 2 -8 3 -8 3 -7 3 -7 4 -7 4 -7 4 -7 5 -6 4 -6 6 -6 5 -6 6 -5 6 -6 6 -4 6 -5 7 -4 7 -4 7 -4 7 -3 7 -3 8 -2 8 -3 7 -2 9 -1 8 -1 8 -1 8 0 0 0zm-842 -569l0 271 -7 0 0 -271 0 0 7 0zm100 -106l3 7 -2 0 -5 0 -5 1 -5 0 -5 1 -5 1 -5 2 -4 1 -5 2 -5 2 -4 2 -4 2 -4 3 -4 3 -4 3 -4 3 -3 3 -4 4 -3 3 -3 4 -3 4 -2 4 -3 4 -2 4 -2 5 -2 4 -1 5 -2 5 -1 4 -1 5 0 5 -1 5 0 5 -7 0 0 -5 0 -6 1 -5 1 -5 1 -5 2 -5 1 -5 2 -5 3 -5 2 -5 3 -4 2 -4 3 -5 4 -4 3 -4 4 -3 3 -4 4 -3 5 -3 4 -3 4 -3 5 -3 4 -2 5 -2 5 -2 5 -2 5 -1 6 -1 5 -1 5 -1 6 0 5 -1 -1 1zm3 7l-1 0 -1 0 2 0zm0 0l0 0 -3 -7 0 0 1 -1 2 8zm-3 -7l1 -1 0 0 -1 1zm110 106l-7 0 0 0 0 -5 -1 -5 -1 -5 0 -5 -2 -4 -1 -5 -2 -5 -1 -4 -2 -4 -3 -5 -2 -4 -3 -4 -2 -4 -3 -4 -4 -3 -3 -4 -4 -3 -3 -3 -4 -3 -4 -3 -4 -3 -4 -2 -5 -2 -4 -2 -5 -2 -5 -1 -4 -2 -5 -1 -5 -1 -5 0 -5 -1 -6 0 0 -8 6 1 5 0 6 1 5 1 5 1 6 1 5 2 4 2 5 2 5 2 4 3 5 3 4 3 4 3 4 3 4 4 4 3 3 4 3 4 3 5 3 4 3 4 2 5 2 5 2 5 2 5 2 5 1 5 1 5 0 5 1 6 0 5 0 0zm-7 271l0 -271 7 0 0 271 0 0 -7 0zm-105 103l7 0 -4 -4 6 0 5 0 5 -1 5 -1 5 -1 4 -1 5 -2 5 -2 4 -2 5 -2 4 -2 4 -3 4 -3 4 -3 3 -3 4 -3 3 -4 4 -3 3 -4 2 -4 3 -4 2 -4 3 -4 2 -5 2 -4 1 -5 1 -5 2 -4 0 -5 1 -5 1 -5 0 -5 7 0 0 5 -1 6 0 5 -1 5 -1 5 -2 5 -2 5 -2 5 -2 5 -2 5 -3 4 -3 4 -3 5 -3 4 -3 4 -4 3 -4 4 -4 3 -4 3 -4 3 -5 3 -4 3 -5 2 -5 2 -4 2 -5 2 -6 1 -5 1 -5 1 -6 1 -5 1 -6 0 -3 -4zm3 4l-3 0 0 -4 3 4zm4 -4l0 0 -7 0 0 0 3 -4 4 4zm-4 -4l4 0 0 4 -4 -4zm-108 -99l7 0 0 0 0 5 1 5 0 5 1 5 1 4 2 5 1 5 2 4 2 5 2 4 3 4 2 4 3 4 3 4 3 3 4 4 3 3 4 3 4 3 4 3 4 3 4 2 4 2 5 2 5 2 4 2 5 1 5 1 5 1 5 0 5 1 5 0 0 8 -5 -1 -6 0 -5 -1 -5 -1 -6 -1 -5 -1 -5 -2 -5 -2 -5 -2 -4 -2 -5 -3 -4 -3 -4 -3 -5 -3 -3 -3 -4 -4 -4 -3 -3 -4 -4 -4 -3 -5 -2 -4 -3 -4 -2 -5 -3 -5 -2 -5 -1 -5 -2 -5 -1 -5 -1 -5 -1 -5 0 -6 0 -5 0 0zm108 -355l0 7 0 0 -4 0 -3 1 -4 0 -4 1 -3 1 -4 1 -3 1 -3 1 -4 2 -3 1 -3 2 -3 2 -3 2 -2 2 -3 2 -3 3 -2 2 -2 3 -2 3 -2 2 -2 3 -2 3 -2 4 -1 3 -1 3 -2 3 0 4 -1 3 -1 4 0 4 -1 3 0 4 -7 0 0 -4 0 -4 1 -4 1 -4 0 -4 2 -4 1 -4 1 -3 2 -4 2 -3 2 -4 2 -3 2 -3 2 -3 3 -3 2 -3 3 -2 3 -3 3 -2 3 -3 4 -2 3 -2 3 -1 4 -2 4 -1 3 -2 4 -1 4 -1 4 0 4 -1 4 0 4 0 0 0zm80 80l-7 0 0 0 0 -4 0 -3 -1 -4 -1 -4 0 -3 -1 -4 -2 -3 -1 -3 -1 -3 -2 -4 -2 -3 -2 -3 -2 -2 -2 -3 -2 -3 -2 -2 -3 -3 -3 -2 -2 -2 -3 -2 -3 -2 -3 -2 -3 -1 -4 -2 -3 -1 -3 -1 -4 -1 -3 -1 -4 -1 -3 0 -4 -1 -4 0 0 -7 4 0 4 0 4 1 4 0 4 1 4 1 4 2 3 1 4 2 3 1 4 2 3 2 3 3 3 2 3 3 3 2 2 3 3 3 2 3 2 3 3 3 1 4 2 3 2 4 1 3 2 4 1 4 1 4 0 4 1 4 0 4 0 4 0 0zm-80 80l0 -7 0 0 4 0 4 -1 3 0 4 -1 3 -1 4 -1 3 -1 3 -1 4 -1 3 -2 3 -2 3 -2 3 -2 2 -2 3 -2 3 -3 2 -2 2 -3 2 -3 2 -2 2 -3 2 -3 2 -3 1 -4 1 -3 2 -3 1 -4 0 -3 1 -4 1 -4 0 -3 0 -4 7 0 0 4 0 4 -1 4 0 4 -1 4 -1 4 -2 4 -1 3 -2 4 -2 3 -1 4 -3 3 -2 3 -2 3 -3 3 -2 3 -3 3 -3 2 -3 2 -3 3 -3 2 -4 2 -3 1 -4 2 -3 2 -4 1 -4 1 -4 1 -4 0 -4 1 -4 0 -4 0 0 0zm-80 -80l7 0 0 0 0 4 1 3 0 4 1 4 1 3 0 4 2 3 1 3 1 4 2 3 2 3 2 3 2 2 2 3 2 3 2 2 3 3 3 2 2 2 3 2 3 2 3 2 3 2 4 1 3 1 3 1 4 1 3 1 4 1 4 0 3 1 4 0 0 7 -4 0 -4 0 -4 -1 -4 0 -4 -1 -4 -1 -3 -1 -4 -2 -4 -2 -3 -1 -3 -2 -4 -2 -3 -3 -3 -2 -3 -2 -3 -3 -2 -3 -3 -3 -2 -3 -2 -3 -2 -3 -2 -4 -2 -3 -2 -4 -1 -3 -1 -4 -2 -4 0 -4 -1 -4 -1 -4 0 -4 0 -4 0 0zm78 210l0 8 0 0 -3 0 -4 0 -3 0 -4 1 -3 1 -3 1 -4 1 -3 1 -3 2 -3 1 -3 2 -3 2 -3 2 -2 2 -3 2 -2 2 -3 3 -2 2 -2 3 -2 3 -2 2 -1 3 -2 3 -1 3 -1 4 -2 3 0 3 -1 3 -1 4 0 3 -1 4 0 4 -7 0 0 -4 0 -4 1 -4 1 -4 0 -4 2 -4 1 -3 1 -4 2 -3 1 -3 2 -4 2 -3 2 -3 3 -3 2 -3 3 -2 2 -3 3 -2 3 -3 3 -2 3 -2 4 -2 3 -1 3 -2 4 -1 3 -1 4 -2 4 0 4 -1 3 -1 4 0 4 0 0 0zm78 78l-8 0 0 0 0 -4 0 -4 0 -3 -1 -3 -1 -4 -1 -3 -1 -3 -1 -4 -1 -3 -2 -3 -2 -3 -1 -2 -2 -3 -3 -3 -2 -2 -2 -3 -2 -2 -3 -2 -3 -2 -2 -2 -3 -2 -3 -2 -3 -1 -3 -2 -3 -1 -4 -1 -3 -1 -3 -1 -4 -1 -3 0 -4 0 -4 0 0 -8 4 0 4 0 4 1 4 1 4 0 3 2 4 1 3 1 4 2 3 1 3 2 4 2 3 2 3 3 2 2 3 3 3 2 2 3 2 3 2 3 3 3 1 4 2 3 2 3 1 4 1 3 1 4 1 4 1 4 0 4 1 4 0 4 0 0zm-78 77l0 -8 0 0 4 0 4 0 3 0 4 -1 3 -1 3 -1 4 -1 3 -1 3 -1 3 -2 3 -2 3 -2 2 -1 3 -3 3 -2 2 -2 2 -2 2 -3 3 -3 2 -2 1 -3 2 -3 2 -3 1 -3 1 -3 1 -4 1 -3 1 -3 1 -4 0 -3 0 -4 0 -3 8 0 0 4 -1 4 0 3 -1 4 -1 4 -1 4 -1 3 -1 4 -2 3 -2 4 -1 3 -3 3 -2 3 -2 3 -2 3 -3 2 -3 3 -2 2 -3 3 -3 2 -4 2 -3 2 -3 1 -4 2 -3 1 -4 2 -3 1 -4 1 -4 0 -4 1 -4 0 -4 0 0 0zm-77 -77l7 0 0 0 0 3 1 4 0 3 1 4 1 3 0 3 2 4 1 3 1 3 2 3 1 3 2 3 2 2 2 3 2 3 3 2 2 2 3 2 2 3 3 1 3 2 3 2 3 2 3 1 3 1 4 1 3 1 3 1 4 1 3 0 4 0 3 0 0 8 -4 0 -3 0 -4 -1 -4 0 -4 -1 -4 -1 -3 -2 -4 -1 -3 -2 -3 -1 -4 -2 -3 -2 -3 -2 -3 -3 -3 -2 -2 -3 -3 -2 -2 -3 -3 -3 -2 -3 -2 -3 -2 -3 -1 -4 -2 -3 -1 -4 -1 -3 -2 -4 0 -4 -1 -4 -1 -4 0 -3 0 -4 0 0zm883 3816l-141 0 0 -8 141 0 0 0 0 8zm37 35l3 7 -5 -3 0 -2 -1 -2 0 -2 0 -2 0 -2 -1 -2 -1 -2 0 -1 -1 -2 -1 -2 0 -1 -1 -2 -1 -1 -1 -2 -2 -1 -1 -2 -1 -1 -1 -1 -1 -1 -2 -1 -1 -1 -2 -1 -1 -1 -2 -1 -1 -1 -2 0 -2 -1 -1 0 -2 0 -2 -1 -1 0 -2 0 0 -8 2 1 2 0 2 0 2 0 2 1 2 1 2 0 2 1 2 1 2 1 2 1 1 1 2 2 2 1 1 2 2 1 1 2 1 1 2 2 1 2 1 2 1 2 1 2 1 2 0 2 1 2 1 2 0 2 0 3 1 2 0 2 0 3 -5 -4zm3 7l-5 3 0 -6 5 3zm0 0l0 0 -3 -7 0 0 5 4 -2 3zm-3 -7l5 -2 0 6 -5 -4zm-37 50l0 -8 0 0 2 0 1 0 2 0 2 -1 1 0 2 -1 2 0 1 -1 2 -1 1 -1 2 0 1 -1 2 -2 1 -1 1 -1 1 -1 1 -1 2 -2 1 -1 1 -2 1 -1 0 -2 1 -2 1 -1 0 -2 1 -2 1 -2 0 -2 0 -2 0 -1 1 -2 0 -2 7 0 0 2 0 2 -1 3 0 2 0 2 -1 2 -1 2 0 2 -1 2 -1 2 -1 2 -1 2 -1 2 -2 2 -1 1 -1 2 -2 2 -1 1 -2 1 -2 2 -1 1 -2 1 -2 1 -2 1 -2 1 -2 1 -2 0 -2 1 -2 0 -2 0 -2 1 -2 0 0 0zm-141 -8l141 0 0 8 -141 0 0 0 0 -8zm-43 -38l8 0 0 0 0 2 0 2 0 1 0 2 1 2 0 2 1 2 1 2 0 1 1 2 1 2 1 1 1 2 1 1 1 2 1 1 1 1 2 1 1 1 1 2 2 1 1 0 2 1 1 1 2 1 1 0 2 1 2 0 1 1 2 0 2 0 2 0 0 8 -3 0 -2 -1 -2 0 -2 0 -2 -1 -2 0 -2 -1 -2 -1 -2 -1 -2 -1 -1 -1 -2 -1 -2 -2 -1 -1 -2 -1 -1 -2 -2 -2 -1 -1 -1 -2 -1 -2 -1 -2 -1 -2 -1 -2 -1 -2 -1 -2 -1 -2 0 -2 -1 -2 0 -2 0 -3 0 -2 -1 -2 0 0zm8 0l0 0 -8 0 0 0 0 0 8 0zm35 -47l0 8 0 0 -2 0 -2 0 -2 1 -1 0 -2 0 -2 1 -1 0 -2 1 -1 1 -2 1 -1 1 -2 1 -1 1 -1 1 -2 1 -1 1 -1 2 -1 1 -1 2 -1 1 -1 2 -1 1 -1 2 0 2 -1 1 -1 2 0 2 -1 2 0 2 0 2 0 2 0 2 -8 0 1 -3 0 -2 0 -2 0 -3 1 -2 0 -2 1 -2 1 -2 1 -2 1 -2 1 -2 1 -2 1 -2 1 -2 1 -1 2 -2 1 -1 2 -2 1 -1 2 -2 2 -1 1 -1 2 -1 2 -1 2 -1 2 0 2 -1 2 -1 2 0 2 0 2 0 3 -1 0 0zm-663 -4221l-1 0 0 -7 1 0 0 0 0 7zm129 125l-8 0 0 0 0 -6 0 -6 -1 -7 -1 -6 -2 -6 -1 -6 -2 -6 -2 -5 -3 -6 -3 -5 -2 -5 -4 -6 -3 -4 -4 -5 -3 -5 -5 -4 -4 -4 -4 -4 -5 -4 -5 -3 -4 -4 -6 -3 -5 -2 -5 -3 -6 -2 -5 -2 -6 -2 -6 -1 -6 -1 -6 -1 -6 -1 -6 0 0 -7 6 0 7 0 6 1 6 1 7 2 6 2 6 2 6 2 5 3 6 3 5 3 6 3 5 4 4 4 5 4 5 5 4 4 4 5 4 5 3 5 4 6 3 5 3 6 2 6 3 6 2 6 1 6 2 7 1 6 1 7 0 6 1 7 0 0zm-8 282l0 -282 8 0 0 282 0 0 -8 0zm-122 133l1 -8 0 0 6 0 6 -1 6 0 6 -2 6 -1 6 -2 5 -2 6 -2 5 -2 5 -3 6 -3 4 -3 5 -4 5 -4 4 -4 4 -4 5 -4 3 -5 4 -4 3 -5 4 -5 2 -6 3 -5 3 -6 2 -5 2 -6 1 -6 2 -6 1 -6 1 -6 0 -7 0 -6 8 0 -1 7 0 6 -1 7 -1 7 -2 6 -1 6 -2 6 -3 6 -2 6 -3 6 -3 6 -4 5 -3 5 -4 5 -4 5 -4 5 -5 4 -5 4 -4 4 -5 4 -6 3 -5 4 -6 2 -5 3 -6 3 -6 2 -6 1 -7 2 -6 1 -6 1 -7 0 -6 1 -1 0zm1 0l0 0 -1 0 1 0zm-1 -8l1 0 -1 8 0 0 0 -8 0 0zm0 0l0 0 0 0 0 0zm-129 -125l8 0 0 0 0 6 0 7 1 6 1 6 1 6 2 6 2 6 2 5 3 6 2 5 3 6 3 5 4 5 3 4 4 5 4 4 5 4 4 4 5 4 4 4 5 3 5 3 6 3 5 2 6 2 5 2 6 2 6 1 6 2 6 0 6 1 6 0 0 8 -6 -1 -7 0 -6 -1 -7 -1 -6 -2 -6 -1 -6 -2 -6 -3 -6 -3 -5 -2 -6 -4 -5 -3 -5 -4 -5 -4 -4 -4 -5 -4 -4 -5 -4 -5 -4 -5 -4 -5 -3 -5 -3 -6 -3 -6 -3 -6 -2 -6 -2 -6 -2 -6 -1 -6 -1 -7 -1 -7 -1 -6 0 -7 0 0zm8 -282l0 282 -8 0 0 -282 0 0 8 0zm121 -132l0 7 0 0 -6 0 -6 1 -6 1 -6 1 -6 1 -6 2 -6 2 -5 2 -5 3 -6 2 -5 3 -5 4 -4 3 -5 4 -4 4 -5 4 -4 4 -4 5 -3 5 -4 4 -3 6 -3 5 -2 5 -3 6 -2 5 -2 6 -2 6 -1 6 -1 6 -1 7 0 6 0 6 -8 0 0 -7 1 -6 1 -7 1 -6 1 -7 2 -6 2 -6 2 -6 3 -6 3 -6 3 -5 3 -6 4 -5 4 -5 4 -5 4 -4 5 -5 4 -4 5 -4 5 -4 5 -3 6 -3 5 -3 6 -3 6 -2 6 -2 6 -2 6 -2 7 -1 6 -1 7 0 6 0 0 0z"/>
  </g>
 </g>
</svg>
