<?xml version="1.0" encoding="UTF-8"?>
<!DOCTYPE svg PUBLIC "-//W3C//DTD SVG 1.1//EN" "http://www.w3.org/Graphics/SVG/1.1/DTD/svg11.dtd">
<!-- Creator: CorelDRAW -->
<svg xmlns="http://www.w3.org/2000/svg" xml:space="preserve" width="40mm" height="60mm" style="shape-rendering:geometricPrecision; text-rendering:geometricPrecision; image-rendering:optimizeQuality; fill-rule:evenodd; clip-rule:evenodd"
viewBox="0 0 40 60"
 xmlns:xlink="http://www.w3.org/1999/xlink">
 <defs>
  <style type="text/css">
   <![CDATA[
    .str0 {stroke:#1F1A17;stroke-width:0.194}
    .fil0 {fill:none;fill-rule:nonzero}
   ]]>
  </style>
 </defs>
 <g id="图层_x0020_1">
  <metadata id="CorelCorpID_0Corel-Layer"/>
  <path class="fil0 str0" d="M30.2018 52.3175l0 0.0939 -0.0475 -0.0155 -0.0177 -0.0276 -0.0111 -0.0177 -0.0099 -0.0177m-1.7473 0.3736c-0.305,0.1171 -0.4387,0.315 -0.5316,0.7935m0.7891 -0.8687l-0.2575 0.0752m2.0015 -16.7071c-0.031,2.9454 -0.0398,5.8918 -0.0287,8.8382 0.0143,3.6371 0.0817,5.1623 0.2508,5.6939 0.0409,0.1282 0.0442,0.1403 0.0442,0.1856 0,0.1382 -0.0994,0.5239 -0.1845,0.7151 -0.2896,0.6521 -0.7284,0.9394 -1.8258,1.1991m2.0214 -43.2788l-0.2774 26.6469m-4.1201 -28.6915c-0.0033,-0.0807 -0.0045,-0.1426 -0.0045,-0.1846 0,-0.41 0.0852,-0.5106 0.4366,-0.5106 1.251,0 2.648,0.325 3.194,0.7427 0.5636,0.431 0.7813,0.9947 0.7714,1.9971m-4.3843 -1.6832l-0.0132 -0.3614m-1.8722 1.0278c0.6542,0 1.4025,-0.0254 1.5063,-0.0509 0.2299,-0.0563 0.3791,-0.2983 0.3791,-0.6155m-2.5098 0.6487l0.6244 0.0177m-1.1328 -0.8101c0,0.4852 0.1624,0.7394 0.5084,0.7924m-0.4974 -1.2986l-0.011 0.5062m-0.1934 -0.9858c0.1569,0.0486 0.2055,0.1503 0.2055,0.4288 0,0.0154 -0.0011,0.0331 -0.0011,0.0508m-0.2122 -0.5194l0 0.0077 0.0155 0.0155 -0.0077 0.0166m-5.8884 -0.0033c0.1459,0.0353 0.2188,0.2641 0.2199,0.6896 0,0.6366 0.0299,0.7559 0.2023,0.8167 0.1713,0.0597 0.5161,0.0697 2.3397,0.0697 2.008,0 2.3363,-0.01 2.5042,-0.0752 0.168,-0.0663 0.1935,-0.1956 0.1979,-0.9847 0,-0.0696 0.0011,-0.1238 0.0022,-0.1625 0.0099,-0.2652 0.0696,-0.3216 0.4144,-0.3901m-6.4277 0.0188l0.5471 0.0177m-3.4438 1.1372c0.01,0.4133 0.2509,0.672 0.6267,0.672 0.2851,0 0.5382,-0.189 0.6012,-0.451 0.0199,-0.0806 0.0221,-0.1215 0.0221,-0.4398 0,-0.0796 0,-0.1956 0,-0.347 0,-0.4775 0.0354,-0.5295 0.3857,-0.5538 0.2929,-0.021 0.8234,-0.0353 1.261,-0.0353m-2.8967 1.0687l0 0.0862m-0.3437 -1.0466c0.3393,0 0.3393,0 0.3437,0.9604m-0.3735 -0.9604l0.0298 0m-4.0206 2.511c0,-1.6457 0.9051,-2.2657 3.6349,-2.4911 0.1559,-0.0133 0.2752,-0.0199 0.3559,-0.0199m-3.993 43.4966l0.0022 -40.9856m8.0446 43.291c0,0.5824 -0.0077,0.5901 -0.6001,0.5901 -1.0433,-0.0309 -2.0866,-0.0674 -3.1299,-0.1072 -3.394,-0.1293 -4.3168,-0.725 -4.3168,-2.7883m8.0468 1.9064l0 0.399m0.2266 -1.2058c-0.1935,0.1879 -0.2266,0.3062 -0.2266,0.8068m0.2376 -0.8178l-0.011 0.011m2.4402 -0.2111c-2.2126,-0.0099 -2.2126,-0.0099 -2.4292,0.2001m4.2969 -0.1912l-1.8677 -0.0089m2.5297 0.6079c-0.0586,-0.3272 -0.3293,-0.5725 -0.662,-0.599m0.6786 1.6246l-0.0122 -1.0002 -0.0044 -0.0254m2.0302 0.3724c0,-0.473 -0.1359,-0.6675 -0.4674,-0.6675 -0.2996,0 -0.4653,0.1857 -0.4709,0.5261 0,0.1591 0,0.2851 0,0.3768 0,0.7803 -0.011,0.7947 -0.5791,0.7947 -0.3834,0 -0.484,-0.0763 -0.4962,-0.3769m2.0136 -0.2111l0 -0.4421m5.4895 0.3404c-1.7031,0.4531 -3.1597,0.6388 -5.0109,0.6388 -0.4465,0 -0.4797,-0.0375 -0.4786,-0.5371"/>
 </g>
</svg>
