<?xml version="1.0" encoding="UTF-8"?>
<!DOCTYPE svg PUBLIC "-//W3C//DTD SVG 1.1//EN" "http://www.w3.org/Graphics/SVG/1.1/DTD/svg11.dtd">
<!-- Creator: CorelDRAW X8 -->
<svg xmlns="http://www.w3.org/2000/svg" xml:space="preserve" width="40mm" height="60mm" version="1.1" style="shape-rendering:geometricPrecision; text-rendering:geometricPrecision; image-rendering:optimizeQuality; fill-rule:evenodd; clip-rule:evenodd"
viewBox="0 0 4000 6000"
 xmlns:xlink="http://www.w3.org/1999/xlink">
 <defs>
  <style type="text/css">
   <![CDATA[
    .fil0 {fill:#332C2B;fill-rule:nonzero}
   ]]>
  </style>
 </defs>
 <g id="图层_x0020_1">
  <metadata id="CorelCorpID_0Corel-Layer"/>
  <g>
   <path class="fil0" d="M1394 696l-1 7 0 0 -8 0 -8 0 -9 -1 -8 0 -7 -1 -8 -1 -7 -1 -7 0 -7 -2 -7 -1 -6 -1 -7 -1 -6 -2 -6 -1 -5 -2 -6 -2 -5 -1 -5 -2 -5 -2 -5 -2 -4 -2 -5 -2 -4 -2 -4 -3 -3 -2 -4 -2 -3 -2 -3 -3 -3 -2 -3 -3 -2 -2 -2 -3 5 -4 2 2 2 2 3 2 3 3 2 2 3 2 4 2 3 2 4 2 4 2 4 2 4 2 5 2 4 2 5 2 5 2 6 1 5 2 6 1 6 2 6 1 6 1 7 1 7 1 7 1 7 1 7 1 8 0 8 1 8 0 8 1 9 0 0 0zm0 0l0 0 0 0 0 0zm1408 97l-1 7 0 0 -43 -7 -44 -7 -45 -6 -46 -7 -47 -5 -47 -6 -48 -5 -48 -5 -48 -4 -49 -5 -49 -4 -49 -3 -49 -4 -48 -3 -49 -3 -48 -2 -48 -3 -47 -2 -46 -2 -46 -2 -45 -2 -45 -1 -43 -2 -42 -1 -41 -1 -40 -1 -39 -1 -37 -1 -35 0 -34 -1 -32 -1 -31 0 1 -7 30 0 32 1 34 0 36 1 37 1 38 1 40 1 41 1 42 1 44 2 44 1 45 2 46 2 47 2 47 2 48 3 48 2 48 3 49 3 49 4 49 3 49 4 48 4 49 5 48 5 48 5 47 5 47 6 46 6 45 7 44 7 43 7 0 0zm180 274l-7 0 0 0 0 -8 -1 -9 0 -9 -2 -9 -1 -10 -1 -10 -2 -10 -3 -10 -2 -10 -3 -10 -3 -11 -4 -10 -3 -11 -5 -10 -4 -10 -5 -10 -5 -10 -6 -10 -6 -9 -6 -9 -7 -9 -8 -8 -7 -8 -8 -8 -9 -7 -9 -6 -9 -6 -10 -5 -11 -5 -11 -4 -11 -3 -12 -3 1 -7 13 3 12 3 11 4 11 5 10 6 10 6 9 7 9 7 9 8 8 8 7 8 7 9 7 10 6 9 6 10 5 10 5 11 5 10 4 11 4 10 4 11 3 11 3 10 2 11 3 10 2 10 1 10 2 10 1 9 1 10 0 8 0 9 0 0zm20 4257l-8 0 0 0 0 -102 0 -109 0 -113 0 -119 0 -124 0 -129 -1 -132 0 -136 0 -139 0 -142 0 -144 0 -146 0 -148 0 -149 -1 -150 0 -150 0 -150 -1 -150 0 -148 -1 -148 0 -146 -1 -144 -1 -142 -1 -138 -1 -136 -1 -132 -1 -127 -2 -124 -1 -118 -2 -113 -2 -108 -2 -101 7 0 2 101 2 108 2 113 1 118 2 124 1 127 1 132 1 136 1 138 1 142 1 144 1 146 0 148 1 148 0 150 0 150 1 150 0 150 0 149 0 148 0 146 0 144 1 142 0 139 0 136 0 132 0 129 0 124 0 119 0 113 0 109 1 102 0 0zm-31 30l0 -8 0 0 2 0 2 0 2 0 1 0 2 0 2 0 1 0 1 -1 1 0 2 0 0 -1 1 0 1 0 1 -1 0 0 1 -1 0 0 1 -1 0 -1 0 0 1 -1 0 -1 0 -1 1 -1 0 -1 0 -1 0 -2 0 -1 0 -2 0 -1 0 -2 0 -2 8 0 0 2 0 2 0 1 -1 2 0 2 0 1 0 2 0 1 -1 2 0 1 0 2 -1 1 -1 1 0 1 -1 1 -1 1 -1 1 -1 1 -1 1 -2 0 -1 1 -1 1 -2 0 -1 0 -2 1 -1 0 -2 0 -2 0 -2 0 -2 1 -2 0 -2 0 0 0zm0 -8l0 0 0 0 0 0zm-1938 5l0 -7 0 0 52 0 53 0 56 0 57 0 59 0 61 0 62 0 63 0 65 0 65 0 66 0 66 0 67 0 68 0 67 0 67 0 68 0 66 0 67 1 65 0 65 0 64 0 62 0 62 0 60 0 58 1 56 0 55 0 52 0 51 0 47 0 46 0 0 8 -46 -1 -47 0 -51 0 -52 0 -55 0 -56 0 -58 0 -60 -1 -62 0 -62 0 -64 0 -65 0 -65 0 -67 0 -66 -1 -68 0 -67 0 -67 0 -68 0 -67 0 -66 0 -66 0 -65 0 -65 0 -63 0 -62 0 -61 0 -59 0 -57 0 -56 0 -53 0 -52 0 0 0zm0 0l0 0 0 0 0 0zm-27 -25l7 0 0 0 0 2 0 1 0 2 0 1 0 2 0 1 1 1 0 1 0 1 1 1 0 0 0 1 1 1 0 0 0 0 1 1 0 0 1 0 0 1 1 0 1 0 1 0 1 0 1 0 1 1 1 0 1 0 1 0 2 0 1 0 2 0 1 0 0 7 -1 0 -2 0 -1 0 -2 0 -1 0 -2 0 -1 0 -1 0 -2 -1 -1 0 -1 0 -1 0 -1 -1 -1 0 -1 -1 -1 0 -1 -1 -1 -1 -1 -1 -1 -1 0 -1 -1 -1 0 -1 -1 -2 0 -1 -1 -2 0 -1 0 -2 0 -2 0 -1 0 -2 0 -2 0 0zm-4 -4322l7 0 0 0 0 96 -1 104 -1 110 0 117 0 122 -1 128 0 132 0 137 0 141 0 144 0 147 0 149 0 152 0 153 0 155 0 154 1 155 0 155 0 154 1 153 0 151 0 148 1 147 0 143 1 139 0 135 1 131 0 126 1 120 0 115 0 108 1 101 -7 0 -1 -101 0 -108 -1 -115 0 -120 -1 -126 0 -131 0 -135 -1 -139 0 -143 -1 -147 0 -148 -1 -151 0 -153 0 -154 -1 -155 0 -155 0 -154 0 -155 0 -153 -1 -152 0 -149 0 -147 0 -144 1 -141 0 -137 0 -132 0 -128 1 -122 0 -117 1 -110 0 -104 1 -96 0 0zm392 -308l-1 7 0 0 -24 0 -24 1 -23 2 -22 2 -21 4 -20 4 -19 5 -19 6 -18 6 -17 7 -16 8 -15 8 -14 9 -14 9 -13 10 -12 11 -11 11 -11 11 -10 12 -9 12 -8 12 -8 13 -6 13 -6 13 -6 14 -4 13 -4 14 -4 14 -2 14 -2 14 -1 15 -1 14 -7 0 1 -15 1 -14 2 -15 2 -14 4 -15 4 -14 4 -14 6 -14 6 -13 7 -14 8 -13 8 -12 10 -13 10 -12 11 -11 11 -11 13 -11 13 -10 14 -10 14 -9 16 -9 16 -7 18 -8 18 -6 19 -6 19 -5 21 -4 21 -4 23 -3 23 -1 24 -1 25 0 0 0zm120 -36l6 4 -2 2 -2 2 -2 3 -2 2 -2 2 -3 2 -2 2 -3 2 -3 1 -3 2 -3 2 -4 1 -3 2 -4 1 -3 2 -4 1 -4 1 -5 2 -4 1 -4 1 -5 1 -5 0 -5 1 -5 1 -5 0 -5 1 -5 0 -6 1 -6 0 -5 0 -6 0 -7 0 1 -7 6 0 5 0 6 0 6 -1 5 0 5 0 6 -1 5 0 4 -1 5 -1 5 -1 4 0 4 -1 5 -1 4 -2 3 -1 4 -1 4 -1 3 -2 3 -1 3 -2 3 -1 3 -2 3 -1 3 -2 2 -2 2 -2 2 -2 2 -1 2 -2 2 -2 1 -2z"/>
  </g>
 </g>
</svg>
