<?xml version="1.0" encoding="UTF-8"?>
<!DOCTYPE svg PUBLIC "-//W3C//DTD SVG 1.1//EN" "http://www.w3.org/Graphics/SVG/1.1/DTD/svg11.dtd">
<!-- Creator: CorelDRAW X8 -->
<svg xmlns="http://www.w3.org/2000/svg" xml:space="preserve" width="40mm" height="60mm" version="1.1" style="shape-rendering:geometricPrecision; text-rendering:geometricPrecision; image-rendering:optimizeQuality; fill-rule:evenodd; clip-rule:evenodd"
viewBox="0 0 4000 6000"
 xmlns:xlink="http://www.w3.org/1999/xlink">
 <defs>
  <style type="text/css">
   <![CDATA[
    .str0 {stroke:black;stroke-width:20}
    .fil0 {fill:none}
   ]]>
  </style>
 </defs>
 <g id="图层_x0020_1">
  <metadata id="CorelCorpID_0Corel-Layer"/>
  <path class="fil0 str0" d="M900 5350l2062 0c94,0 171,-77 171,-171l0 -4358c0,-94 -77,-171 -171,-171l-1924 0c-94,0 -171,77 -171,171l0 4358c0,94 77,171 171,171l323 0m1211 -4635c0,-4 -4,-9 -13,-9 -31,0 -56,25 -56,56 0,31 25,56 56,56 31,0 56,-25 56,-56 0,-31 -25,-56 -56,-56m-596 50c-6,-21 -17,-37 -66,-37l-42 0c-23,0 -41,19 -41,41l0 0c0,22 18,40 41,40l305 0c22,0 41,-18 41,-40l0 0c0,-22 -19,-41 -41,-41l-263 0m-362 -19c-4,-12 -8,-21 -29,-21l-17 0c-25,0 -44,20 -44,44l0 0c0,24 19,44 44,44l87 0c25,0 44,-20 44,-44l0 0c0,-24 -19,-44 -44,-44l-70 0"/>
 </g>
</svg>
