<?xml version="1.0" encoding="UTF-8"?>
<!DOCTYPE svg PUBLIC "-//W3C//DTD SVG 1.1//EN" "http://www.w3.org/Graphics/SVG/1.1/DTD/svg11.dtd">
<!-- Creator: CorelDRAW 2020 (64-Bit) -->
<svg xmlns="http://www.w3.org/2000/svg" xml:space="preserve" width="40mm" height="60mm" version="1.1" style="shape-rendering:geometricPrecision; text-rendering:geometricPrecision; image-rendering:optimizeQuality; fill-rule:evenodd; clip-rule:evenodd"
viewBox="0 0 4000 6000"
 xmlns:xlink="http://www.w3.org/1999/xlink"
 xmlns:xodm="http://www.corel.com/coreldraw/odm/2003">
 <defs>
  <style type="text/css">
   <![CDATA[
    .str1 {stroke:#332C2B;stroke-width:20;stroke-miterlimit:22.9256}
    .str0 {stroke:#E62129;stroke-width:20;stroke-miterlimit:22.9256}
    .fil0 {fill:none}
   ]]>
  </style>
   <clipPath id="id0">
    <rect x="-35996.48" y="-1927.99" width="5643.29" height="7634.36"/>
   </clipPath>
 </defs>
 <g id="图层_x0020_1">
  <metadata id="CorelCorpID_0Corel-Layer"/>
  <g style="clip-path:url(#id0)">
   <image x="-35996.48" y="-1927.99" width="5643.29" height="7634.36" xlink:href="GS8 Ultra Serie 8 -11i（手表）_Images\GS8 Ultra Serie 8 -11i（手表）_ImgID1.png"/>
  </g>
  <rect class="fil0 str0" x="-35189.76" y="-383.8" width="4175.08" height="4620"/>
  <rect class="fil0 str0" x="-34890.09" y="-91.13" width="3376.11" height="4052.76" rx="1000" ry="1081.01"/>
  <path class="fil0 str1" d="M-19597.77 254.25l0 -1843.1c0,-549.99 -450.01,-1000 -1000,-1000l-2052.76 0c-550,0 -1000,450 -1000,1000l0 1376.11c0,550 450,1000 1000,1000l2052.76 0c550,0 1000,-450 1000,-1000 0,-550 86.58,-710.64 148.75,-850.87m-148.75 5487.7l0 -1843.1c0,-549.99 -450.01,-1000 -1000,-1000l-2052.76 0c-550,0 -1000,450 -1000,1000l0 1376.11c0,550 450,1000 1000,1000l2052.76 0c550,0 1000,-450 1000,-1000 0,-550 86.58,-710.64 148.75,-850.87m4275.08 -2851.98l0 -1843.1c0,-549.99 -450.01,-1000 -1000,-1000l-2052.76 0c-550,0 -1000,450 -1000,1000l0 1376.11c0,550 450,1000 1000,1000l2052.76 0c550,0 1000,-450 1000,-1000 0,-550 86.58,-710.64 148.75,-850.87m4275.08 1317.86l0 -1843.1c0,-549.99 -450.01,-1000 -1000,-1000l-2052.76 0c-550,0 -1000,450 -1000,1000l0 1376.11c0,550 450,1000 1000,1000l2052.76 0c550,0 1000,-450 1000,-1000 0,-550 86.58,-710.64 148.75,-850.87m-4572.58 5487.7l0 -1843.1c0,-549.99 -450.01,-1000 -1000,-1000l-2052.76 0c-550,0 -1000,450 -1000,1000l0 1376.11c0,550 450,1000 1000,1000l2052.76 0c550,0 1000,-450 1000,-1000 0,-550 86.58,-710.64 148.75,-850.87m4275.08 1317.86l0 -1843.1c0,-549.99 -450.01,-1000 -1000,-1000l-2052.76 0c-550,0 -1000,450 -1000,1000l0 1376.11c0,550 450,1000 1000,1000l2052.76 0c550,0 1000,-450 1000,-1000 0,-550 86.58,-710.64 148.75,-850.87"/>
  <path class="fil0 str1" d="M2327.79 2110.24l663.84 0c198.09,0 360.17,-162.09 360.17,-360.18l0 -739.36c0,-198.09 -162.08,-360.17 -360.17,-360.17l-495.64 0c-198.1,0 -360.18,162.08 -360.18,360.17l0 739.36c0,198.1 162.08,360.18 360.18,360.18 198.09,0 255.95,31.18 306.46,53.57m-1976.54 -53.57l663.84 0c198.09,0 360.18,-162.09 360.18,-360.18l0 -739.36c0,-198.09 -162.08,-360.17 -360.18,-360.17l-495.64 0c-198.1,0 -360.18,162.08 -360.18,360.17l0 739.36c0,198.1 162.08,360.18 360.18,360.18 198.1,0 255.95,31.18 306.46,53.57m1027.22 1539.78l663.84 0c198.09,0 360.17,-162.08 360.17,-360.17l0 -739.36c0,-198.09 -162.08,-360.17 -360.17,-360.17l-495.64 0c-198.1,0 -360.18,162.08 -360.18,360.17l0 739.36c0,198.09 162.08,360.17 360.18,360.17 198.09,0 255.95,31.19 306.46,53.58m-474.66 1539.78l663.84 0c198.09,0 360.17,-162.08 360.17,-360.17l0 -739.36c0,-198.1 -162.08,-360.18 -360.17,-360.18l-495.64 0c-198.1,0 -360.18,162.08 -360.18,360.18l0 739.36c0,198.09 162.08,360.17 360.18,360.17 198.09,0 255.95,31.19 306.46,53.58m-1976.54 -1646.94l663.84 0c198.09,0 360.18,-162.08 360.18,-360.17l0 -739.36c0,-198.09 -162.08,-360.17 -360.18,-360.17l-495.64 0c-198.1,0 -360.18,162.08 -360.18,360.17l0 739.36c0,198.09 162.08,360.17 360.18,360.17 198.1,0 255.95,31.19 306.46,53.58m-474.66 1539.78l663.84 0c198.09,0 360.18,-162.08 360.18,-360.17l0 -739.36c0,-198.1 -162.08,-360.18 -360.18,-360.18l-495.64 0c-198.1,0 -360.18,162.08 -360.18,360.18l0 739.36c0,198.09 162.08,360.17 360.18,360.17 198.1,0 255.95,31.19 306.46,53.58"/>
 </g>
</svg>
