<?xml version="1.0" encoding="UTF-8"?>
<!DOCTYPE svg PUBLIC "-//W3C//DTD SVG 1.1//EN" "http://www.w3.org/Graphics/SVG/1.1/DTD/svg11.dtd">
<!-- Creator: CorelDRAW X8 -->
<svg xmlns="http://www.w3.org/2000/svg" xml:space="preserve" width="40mm" height="60mm" version="1.1" style="shape-rendering:geometricPrecision; text-rendering:geometricPrecision; image-rendering:optimizeQuality; fill-rule:evenodd; clip-rule:evenodd"
viewBox="0 0 4000 6000"
 xmlns:xlink="http://www.w3.org/1999/xlink">
 <defs>
  <style type="text/css">
   <![CDATA[
    .str0 {stroke:#332C2B;stroke-width:7.62}
    .fil0 {fill:none}
   ]]>
  </style>
 </defs>
 <g id="图层_x0020_1">
  <metadata id="CorelCorpID_0Corel-Layer"/>
  <path class="fil0 str0" d="M670 5275l2464 0c108,0 196,-88 196,-196l0 -4233c0,-108 -88,-196 -196,-196l-2231 0c-108,0 -196,88 -196,196l0 4233c0,108 88,196 196,196 107,0 185,34 185,75m1007 -206c0,-65 -173,-114 -215,-114 -41,0 -75,34 -75,75l0 0c0,41 34,75 75,75l267 0c41,0 74,-34 74,-75l0 0c0,-41 -33,-75 -74,-75l-267 0m123 -4192c-26,-15 -10,-65 15,-65 26,0 47,20 47,46 0,25 -21,46 -47,46 -25,0 -46,-21 -46,-46 0,-26 21,-46 46,-46"/>
 </g>
</svg>
