<?xml version="1.0" encoding="UTF-8"?>
<!DOCTYPE svg PUBLIC "-//W3C//DTD SVG 1.1//EN" "http://www.w3.org/Graphics/SVG/1.1/DTD/svg11.dtd">
<!-- Creator: CorelDRAW X8 -->
<svg xmlns="http://www.w3.org/2000/svg" xml:space="preserve" width="40mm" height="60mm" version="1.1" style="shape-rendering:geometricPrecision; text-rendering:geometricPrecision; image-rendering:optimizeQuality; fill-rule:evenodd; clip-rule:evenodd"
viewBox="0 0 4000 6000"
 xmlns:xlink="http://www.w3.org/1999/xlink">
 <defs>
  <style type="text/css">
   <![CDATA[
    .str0 {stroke:#332C2B;stroke-width:19.4}
    .fil0 {fill:none;fill-rule:nonzero}
   ]]>
  </style>
 </defs>
 <g id="图层_x0020_1">
  <metadata id="CorelCorpID_0Corel-Layer"/>
  <g id="_2218324504800">
   <g>
    <line class="fil0 str0" x1="3082" y1="650" x2="3082" y2= "679" />
    <line class="fil0 str0" x1="1069" y1="5320" x2="1070" y2= "5329" />
    <path class="fil0 str0" d="M1070 5329c5,-1 8,-4 9,-9"/>
    <line class="fil0 str0" x1="1079" y1="5320" x2="2757" y2= "5320" />
    <path class="fil0 str0" d="M2757 5320c94,0 94,0 114,-4"/>
    <line class="fil0 str0" x1="2871" y1="5316" x2="2876" y2= "5314" />
    <path class="fil0 str0" d="M2876 5314c109,-24 188,-109 205,-220"/>
    <line class="fil0 str0" x1="3081" y1="5094" x2="3092" y2= "1841" />
    <path class="fil0 str0" d="M3092 1841c2,-614 1,-801 -6,-903 -6,-101 -19,-141 -63,-193 -54,-65 -121,-95 -214,-95"/>
    <line class="fil0 str0" x1="2809" y1="650" x2="1140" y2= "650" />
    <path class="fil0 str0" d="M1140 650c-118,11 -228,123 -233,238"/>
    <polyline class="fil0 str0" points="907,888 911,5046 908,5086 "/>
    <path class="fil0 str0" d="M908 5086c0,2 0,3 0,4 0,65 60,156 130,195 35,20 74,32 115,35"/>
    <line class="fil0 str0" x1="1153" y1="5320" x2="1185" y2= "5322" />
    <path class="fil0 str0" d="M1185 5322c18,3 29,8 58,28"/>
    <polyline class="fil0 str0" points="2355,1784 2363,1789 2361,1791 2355,1792 "/>
    <path class="fil0 str0" d="M2355 1792c-13,87 -86,147 -180,147"/>
    <line class="fil0 str0" x1="2175" y1="1939" x2="1850" y2= "1932" />
    <path class="fil0 str0" d="M1850 1932c-24,0 -41,1 -66,2 -3,1 -6,1 -8,1 -61,0 -136,-78 -143,-148 0,-7 -1,-17 -1,-32"/>
    <line class="fil0 str0" x1="1632" y1="1755" x2="1635" y2= "1184" />
    <path class="fil0 str0" d="M1635 1184c3,-65 79,-139 150,-144 41,-3 258,-10 322,-10 113,0 167,19 212,74 22,26 35,57 38,86 2,32 5,229 5,399 0,142 -1,168 -6,198"/>
    <line class="fil0 str0" x1="2356" y1="1787" x2="2353" y2= "1809" />
    <polyline class="fil0 str0" points="1675,1491 1674,1499 1669,1496 1668,1491 "/>
    <path class="fil0 str0" d="M1668 1491c0,-2 0,-4 3,-8"/>
    <line class="fil0 str0" x1="1671" y1="1483" x2="1676" y2= "1482" />
    <path class="fil0 str0" d="M1676 1482c-1,-72 -1,-143 -1,-215 -1,-98 9,-125 55,-159 18,-13 39,-21 60,-23 24,-2 169,-4 287,-4 125,0 139,2 172,21 43,25 63,63 65,123"/>
    <line class="fil0 str0" x1="2314" y1="1225" x2="2314" y2= "1565" />
    <path class="fil0 str0" d="M2314 1565c1,138 0,212 -2,225 -9,53 -60,100 -113,106 -6,0 -37,1 -88,1 -145,-1 -109,-1 -253,-2"/>
    <line class="fil0 str0" x1="1858" y1="1895" x2="1838" y2= "1895" />
    <path class="fil0 str0" d="M1838 1895c-65,0 -65,0 -80,-7"/>
    <line class="fil0 str0" x1="1758" y1="1888" x2="1753" y2= "1886" />
    <path class="fil0 str0" d="M1753 1886c-42,-19 -73,-61 -77,-105"/>
    <line class="fil0 str0" x1="1676" y1="1781" x2="1675" y2= "1464" />
    <polyline class="fil0 str0" points="1906,1245 1906,1235 1901,1237 "/>
    <path class="fil0 str0" d="M1901 1237c-2,3 -3,5 -3,7 0,1 1,3 1,5"/>
    <line class="fil0 str0" x1="1899" y1="1249" x2="1905" y2= "1253" />
    <path class="fil0 str0" d="M1905 1253c-4,40 -37,70 -78,70 -44,0 -80,-36 -80,-79 0,-45 35,-80 80,-80 44,0 79,35 79,78 0,7 -1,12 -2,27"/>
    <path class="fil0 str0" d="M2242 1245c-4,47 -35,79 -80,79 -43,0 -79,-36 -79,-80 0,-44 35,-79 79,-79 45,0 80,34 80,79 0,6 0,8 -2,25"/>
    <path class="fil0 str0" d="M1884 1578c-5,38 -25,58 -58,58 -32,0 -58,-26 -58,-58 0,-32 26,-58 58,-58 32,0 57,25 57,58"/>
    <line class="fil0 str0" x1="1883" y1="1578" x2="1882" y2= "1598" />
    <path class="fil0 str0" d="M2220 1578c-4,38 -25,58 -58,58 -32,0 -57,-26 -57,-58 0,-32 25,-58 58,-58 32,0 57,25 57,58"/>
    <line class="fil0 str0" x1="2220" y1="1578" x2="2218" y2= "1598" />
   </g>
  </g>
 </g>
</svg>
