<?xml version="1.0" encoding="UTF-8"?>
<!DOCTYPE svg PUBLIC "-//W3C//DTD SVG 1.1//EN" "http://www.w3.org/Graphics/SVG/1.1/DTD/svg11.dtd">
<!-- Creator: CorelDRAW X8 -->
<svg xmlns="http://www.w3.org/2000/svg" xml:space="preserve" width="40mm" height="60mm" version="1.1" style="shape-rendering:geometricPrecision; text-rendering:geometricPrecision; image-rendering:optimizeQuality; fill-rule:evenodd; clip-rule:evenodd"
viewBox="0 0 4000 6000"
 xmlns:xlink="http://www.w3.org/1999/xlink">
 <defs>
  <style type="text/css">
   <![CDATA[
    .str0 {stroke:black;stroke-width:20}
    .fil0 {fill:none}
   ]]>
  </style>
 </defs>
 <g id="图层_x0020_1">
  <metadata id="CorelCorpID_0Corel-Layer"/>
  <path class="fil0 str0" d="M1147 650l1706 0c126,0 229,103 229,230l0 4240c0,127 -103,230 -229,230l-1706 0c-126,0 -229,-103 -229,-230l0 -4240c0,-127 103,-230 229,-230zm253 237l72 0c45,0 83,37 83,83l0 0c0,46 -38,83 -83,83 -19,0 -38,0 -57,0 -11,0 -15,7 -15,14l0 442c0,100 -82,182 -182,182l0 0c-100,0 -182,-82 -182,-182l0 -543c0,-101 82,-182 182,-182l0 0c66,0 124,35 156,88 6,9 14,15 26,15zm600 740l0 0c95,0 173,78 173,173l0 79c0,94 -78,172 -173,172l0 0c-95,0 -173,-78 -173,-172l0 -79c0,-95 78,-173 173,-173z"/>
 </g>
</svg>
