<?xml version="1.0" encoding="UTF-8"?>
<!DOCTYPE svg PUBLIC "-//W3C//DTD SVG 1.1//EN" "http://www.w3.org/Graphics/SVG/1.1/DTD/svg11.dtd">
<!-- Creator: CorelDRAW X8 -->
<svg xmlns="http://www.w3.org/2000/svg" xml:space="preserve" width="40mm" height="60mm" version="1.1" style="shape-rendering:geometricPrecision; text-rendering:geometricPrecision; image-rendering:optimizeQuality; fill-rule:evenodd; clip-rule:evenodd"
viewBox="0 0 4000 6000"
 xmlns:xlink="http://www.w3.org/1999/xlink">
 <defs>
  <style type="text/css">
   <![CDATA[
    .str0 {stroke:black;stroke-width:7.62}
    .fil0 {fill:none}
   ]]>
  </style>
 </defs>
 <g id="图层_x0020_1">
  <metadata id="CorelCorpID_0Corel-Layer"/>
  <path class="fil0 str0" d="M924 5350l1924 0c135,0 246,-111 246,-247l0 -4206c0,-136 -111,-247 -246,-247l-555 0c-2,0 -3,0 -4,2l-9 9c-2,2 -2,3 -5,3l-145 0c-33,0 -48,13 -48,52l0 74c0,49 -40,89 -89,89l0 0c-49,0 -89,-40 -89,-89l0 -76c0,-34 -13,-50 -43,-50l-135 0c-4,0 -4,0 -7,-3l-6 -9c-2,-2 -3,-2 -6,-2l-555 0c-135,0 -246,111 -246,247l0 4206c0,136 111,247 246,247l163 0"/>
 </g>
</svg>
