<?xml version="1.0" encoding="UTF-8"?>
<!DOCTYPE svg PUBLIC "-//W3C//DTD SVG 1.1//EN" "http://www.w3.org/Graphics/SVG/1.1/DTD/svg11.dtd">
<!-- Creator: CorelDRAW X8 -->
<svg xmlns="http://www.w3.org/2000/svg" xml:space="preserve" width="40mm" height="60mm" version="1.1" style="shape-rendering:geometricPrecision; text-rendering:geometricPrecision; image-rendering:optimizeQuality; fill-rule:evenodd; clip-rule:evenodd"
viewBox="0 0 4000 6000"
 xmlns:xlink="http://www.w3.org/1999/xlink">
 <defs>
  <style type="text/css">
   <![CDATA[
    .str0 {stroke:#332C2B;stroke-width:20}
    .fil0 {fill:none}
   ]]>
  </style>
 </defs>
 <g id="图层_x0020_1">
  <metadata id="CorelCorpID_0Corel-Layer"/>
  <path class="fil0 str0" d="M902 5287l2013 0c101,0 183,-82 183,-182l0 -4273c0,-100 -82,-182 -183,-182l-1796 0c-100,0 -182,82 -182,182l0 4273c0,100 82,182 182,182 100,0 235,18 235,63m635 -4509c-47,-48 -14,-114 31,-114 45,0 82,37 82,82 0,45 -37,82 -82,82 -45,0 -82,-37 -82,-82 0,-45 37,-82 82,-82"/>
 </g>
</svg>
