<?xml version="1.0" encoding="UTF-8"?>
<!DOCTYPE svg PUBLIC "-//W3C//DTD SVG 1.1//EN" "http://www.w3.org/Graphics/SVG/1.1/DTD/svg11.dtd">
<!-- Creator: CorelDRAW X8 -->
<svg xmlns="http://www.w3.org/2000/svg" xml:space="preserve" width="40mm" height="60mm" version="1.1" style="shape-rendering:geometricPrecision; text-rendering:geometricPrecision; image-rendering:optimizeQuality; fill-rule:evenodd; clip-rule:evenodd"
viewBox="0 0 4000 6000"
 xmlns:xlink="http://www.w3.org/1999/xlink">
 <defs>
  <style type="text/css">
   <![CDATA[
    .str0 {stroke:black;stroke-width:7.62}
    .fil0 {fill:none}
   ]]>
  </style>
 </defs>
 <g id="图层_x0020_1">
  <metadata id="CorelCorpID_0Corel-Layer"/>
  <path class="fil0 str0" d="M1640 1170c0,-6 -6,-13 -18,-14 -43,0 -78,35 -78,78 0,43 35,78 78,78 43,0 77,-35 77,-78 0,-43 -34,-78 -77,-78m-366 -323c-1,-17 -17,-33 -48,-36 -113,0 -204,92 -204,204 0,113 91,204 204,204 112,0 204,-91 204,-204 0,-112 -92,-204 -204,-204m48 507c-1,-17 -17,-33 -48,-36 -113,0 -204,91 -204,204 0,113 91,204 204,204 112,0 204,-91 204,-204 0,-113 -92,-204 -204,-204m-5 -485l400 0c118,0 214,97 214,215l0 473c0,118 -96,214 -214,214l-400 0c-118,0 -214,-96 -214,-214l0 -473c0,-118 96,-215 214,-215zm-9 -37l416 0c132,0 240,108 240,241l0 494c0,132 -108,240 -240,240l-416 0c-132,0 -240,-108 -240,-240l0 -494c0,-133 108,-241 240,-241zm-121 4604l1706 0c185,0 336,-151 336,-335l0 -4030c0,-184 -151,-335 -336,-335l-1558 0c-185,0 -336,151 -336,335l0 4030c0,184 151,335 336,335l77 0"/>
 </g>
</svg>
