<?xml version="1.0" encoding="UTF-8"?>
<!DOCTYPE svg PUBLIC "-//W3C//DTD SVG 1.1//EN" "http://www.w3.org/Graphics/SVG/1.1/DTD/svg11.dtd">
<!-- Creator: CorelDRAW X8 -->
<svg xmlns="http://www.w3.org/2000/svg" xml:space="preserve" width="40mm" height="60mm" version="1.1" style="shape-rendering:geometricPrecision; text-rendering:geometricPrecision; image-rendering:optimizeQuality; fill-rule:evenodd; clip-rule:evenodd"
viewBox="0 0 4000 6000"
 xmlns:xlink="http://www.w3.org/1999/xlink">
 <defs>
  <style type="text/css">
   <![CDATA[
    .str0 {stroke:#332C2B;stroke-width:7.62}
    .fil0 {fill:none}
   ]]>
  </style>
 </defs>
 <g id="图层_x0020_1">
  <metadata id="CorelCorpID_0Corel-Layer"/>
  <path class="fil0 str0" d="M2732 836c132,0 239,108 240,239l195 0 0 126c0,-23 -19,-43 -43,-43l0 0 -1 0 0 0 -1 0 0 0 -1 0 0 0 -1 0 0 0 -2 1 0 0 -1 0 -1 0 0 0 -1 0 0 0 -1 0 0 0 -1 1 0 0 -1 0 0 0 -1 0 0 0 -1 0 0 0 -1 1 0 0 -1 0 0 0 -1 1 0 0 -1 0 -1 0 0 0 -1 1 -1 0 0 1 -1 0 -1 1 0 0 -1 1 -1 0 0 0 -1 1 0 0 -1 0 0 1 -1 1 0 0 -1 0 -1 1 0 1 -1 1 -1 0 -1 1 0 1 -1 1 0 1 -1 0 -1 1 0 1 -1 1 0 1 -1 1 0 1 -1 1 0 1 -1 0 0 1 0 1 -1 1 0 1 0 1 -1 1 0 1 0 2 0 1 -1 1 0 1 0 1 0 1 0 1 0 1 0 1 0 436 0 1 0 1 0 2 0 1 0 1 0 1 1 1 0 1 0 1 0 1 1 1 0 1 0 1 1 1 0 1 0 1 1 1 0 1 1 1 0 1 1 1 0 0 1 1 0 1 1 1 1 1 0 1 1 1 0 0 1 1 1 1 1 1 0 0 1 1 1 1 0 0 1 0 0 1 1 1 0 0 1 0 0 0 1 1 1 0 0 0 1 1 1 0 0 1 1 0 1 1 0 0 1 0 1 1 0 0 1 0 0 0 1 1 0 0 1 0 0 0 1 0 0 0 1 1 0 0 1 0 0 0 1 0 0 0 1 0 0 0 1 0 0 0 1 1 1 0 0 0 2 0 0 0 1 0 0 0 1 0 0 0 1 0 0 0 1 0 0 0c24,0 43,-19 43,-43l8 3281 -194 0 0 6c0,131 -117,239 -249,239l443 0 0 187 -2350 0 0 -187 440 0c-132,0 -239,-108 -239,-239l0 -6 -196 0 0 -3843 196 0c0,-131 108,-239 239,-239l-427 0 0 -186 2325 0 0 186 -431 0zm-1434 92l253 0c64,0 116,53 116,116l0 848c0,64 -52,116 -116,116l-253 0c-64,0 -116,-52 -116,-116l0 -848c0,-63 52,-116 116,-116zm-1 30l255 0c49,0 89,40 89,89l0 843c0,49 -40,88 -89,88l-255 0c-49,0 -89,-39 -89,-88l0 -843c0,-49 40,-89 89,-89zm22 856l87 0c21,0 38,17 38,38l0 0c0,21 -17,39 -38,39l-87 0c-21,0 -39,-18 -39,-39l0 0c0,-21 18,-38 39,-38zm38 -783c36,0 65,29 65,64 0,36 -29,65 -65,65 -35,0 -64,-29 -64,-65 0,-35 29,-64 64,-64zm4 308c28,0 50,22 50,50 0,28 -22,50 -50,50 -27,0 -50,-22 -50,-50 0,-28 23,-50 50,-50zm2 282c28,0 50,22 50,50 0,27 -22,50 -50,50 -28,0 -50,-23 -50,-50 0,-28 22,-50 50,-50zm-458 962l0 0c34,0 61,27 61,61l0 392c0,33 -27,61 -61,61l0 0c-33,0 -61,-28 -61,-61l0 -392c0,-34 28,-61 61,-61zm-20 -685l0 0c15,0 28,13 28,28l0 512c0,15 -13,28 -28,28l0 0c-15,0 -27,-13 -27,-28l0 -512c0,-15 12,-28 27,-28zm433 3354l282 0c14,0 26,12 26,26l0 0c0,15 -12,27 -26,27l-282 0c-15,0 -26,-12 -26,-27l0 0c0,-14 11,-26 26,-26zm599 -15l209 0 0 75 -209 0 0 -75zm474 21c12,0 21,9 21,20 0,12 -9,21 -21,21 -11,0 -20,-9 -20,-21 0,-11 9,-20 20,-20zm238 -31c29,0 53,24 53,53 0,29 -24,53 -53,53 -29,0 -53,-24 -53,-53 0,-29 24,-53 53,-53z"/>
 </g>
</svg>
