<?xml version="1.0" encoding="UTF-8"?>
<!DOCTYPE svg PUBLIC "-//W3C//DTD SVG 1.1//EN" "http://www.w3.org/Graphics/SVG/1.1/DTD/svg11.dtd">
<!-- Creator: CorelDRAW X8 -->
<svg xmlns="http://www.w3.org/2000/svg" xml:space="preserve" width="40mm" height="60mm" version="1.1" style="shape-rendering:geometricPrecision; text-rendering:geometricPrecision; image-rendering:optimizeQuality; fill-rule:evenodd; clip-rule:evenodd"
viewBox="0 0 4000 6000"
 xmlns:xlink="http://www.w3.org/1999/xlink">
 <defs>
  <style type="text/css">
   <![CDATA[
    .str0 {stroke:black;stroke-width:7.62}
    .fil0 {fill:none}
   ]]>
  </style>
 </defs>
 <g id="图层_x0020_1">
  <metadata id="CorelCorpID_0Corel-Layer"/>
  <path class="fil0 str0" d="M1039 5322l1759 0c124,0 225,-102 225,-226l0 -4221c0,-124 -101,-225 -225,-225l-470 0 -223 0c-16,0 -28,5 -28,24l0 25c0,42 -34,76 -75,76l0 0c-42,0 -76,-34 -76,-76l0 -24c0,-20 -10,-25 -24,-25l-222 0 -478 0c-124,0 -225,101 -225,225l0 4221c0,124 101,226 225,226l38 0c40,0 56,13 79,28"/>
 </g>
</svg>
