<?xml version="1.0" encoding="UTF-8"?>
<!DOCTYPE svg PUBLIC "-//W3C//DTD SVG 1.1//EN" "http://www.w3.org/Graphics/SVG/1.1/DTD/svg11.dtd">
<!-- Creator: CorelDRAW 2020 (64-Bit) -->
<svg xmlns="http://www.w3.org/2000/svg" xml:space="preserve" width="40mm" height="60mm" version="1.1" style="shape-rendering:geometricPrecision; text-rendering:geometricPrecision; image-rendering:optimizeQuality; fill-rule:evenodd; clip-rule:evenodd"
viewBox="0 0 4000 6000"
 xmlns:xlink="http://www.w3.org/1999/xlink"
 xmlns:xodm="http://www.corel.com/coreldraw/odm/2003">
 <defs>
  <style type="text/css">
   <![CDATA[
    .str0 {stroke:#332C2B;stroke-width:20;stroke-miterlimit:22.9256}
    .fil0 {fill:none}
   ]]>
  </style>
 </defs>
 <g id="图层_x0020_1">
  <metadata id="CorelCorpID_0Corel-Layer"/>
  <path class="fil0 str0" d="M1774.69 4952.72c-6.67,-24.88 -20.25,-44.63 -81.41,-44.63l-52.32 0c-27.5,0 -49.99,22.5 -49.99,50l0 0c0,27.5 22.49,50 49.99,50l694.9 0c27.5,0 49.99,-22.5 49.99,-50l0 0c0,-27.5 -22.5,-50 -49.99,-50l-642.58 0m294.02 -4023.31c216.31,0 391.65,175.34 391.65,391.65 0,216.3 -175.34,391.64 -391.65,391.64 -216.3,0 -391.65,-175.34 -391.65,-391.64 0,-216.31 175.35,-391.65 391.65,-391.65zm0 33.33c197.9,0 358.31,160.42 358.31,358.32 0,197.89 -160.41,358.31 -358.31,358.31 -197.9,0 -358.31,-160.42 -358.31,-358.31 0,-197.9 160.41,-358.32 358.31,-358.32zm61.49 478.16c8.49,-54.58 -37.4,-92.82 -60.17,-94.58 -81,0 -146.66,65.65 -146.66,146.65 0,81 65.66,146.66 146.66,146.66 81,0 146.66,-65.66 146.66,-146.66 0,-81 -65.66,-146.65 -146.66,-146.65m55.47 -254.63c8.3,-53.34 -36.55,-90.72 -58.8,-92.44 -79.16,0 -143.33,64.17 -143.33,143.33 0,79.16 64.17,143.33 143.33,143.33 79.16,0 143.32,-64.17 143.32,-143.33 0,-79.16 -64.16,-143.33 -143.32,-143.33m-1031.43 4367.47l1864.39 0c187.96,0 341.75,-153.8 341.75,-341.76l0 -3982.91c0,-187.96 -153.78,-341.75 -341.75,-341.75l-1649.7 0c-187.97,0 -341.75,153.79 -341.75,341.75l0 3982.91c0,187.97 153.78,341.76 341.75,341.76l39.96 0c111.88,0 170.3,15.88 191.81,33.58"/>
 </g>
</svg>
