<?xml version="1.0" encoding="UTF-8"?>
<!DOCTYPE svg PUBLIC "-//W3C//DTD SVG 1.1//EN" "http://www.w3.org/Graphics/SVG/1.1/DTD/svg11.dtd">
<!-- Creator: CorelDRAW X8 -->
<svg xmlns="http://www.w3.org/2000/svg" xml:space="preserve" width="40mm" height="60mm" version="1.1" style="shape-rendering:geometricPrecision; text-rendering:geometricPrecision; image-rendering:optimizeQuality; fill-rule:evenodd; clip-rule:evenodd"
viewBox="0 0 4000 6000"
 xmlns:xlink="http://www.w3.org/1999/xlink">
 <defs>
  <style type="text/css">
   <![CDATA[
    .str0 {stroke:black;stroke-width:7.62}
    .fil0 {fill:none}
   ]]>
  </style>
 </defs>
 <g id="图层_x0020_1">
  <metadata id="CorelCorpID_0Corel-Layer"/>
  <path class="fil0 str0" d="M873 5350l2032 0c164,0 298,-134 298,-298l0 -4104c0,-164 -134,-298 -298,-298l-1810 0c-164,0 -298,134 -298,298l0 4104c0,164 134,298 298,298l247 0m130 -4095c-1,-10 -9,-19 -27,-20 -61,0 -111,50 -111,112 0,61 50,112 111,112 62,0 112,-51 112,-112 0,-62 -50,-112 -112,-112m606 -67c-1,-18 -17,-35 -50,-37 -116,0 -211,94 -211,210 0,117 95,211 211,211 116,0 211,-94 211,-211 0,-116 -95,-210 -211,-210m467 139l220 0c17,0 32,14 32,32l0 78c0,17 -15,32 -32,32l-220 0c-17,0 -32,-15 -32,-32l0 -78c0,-18 15,-32 32,-32z"/>
 </g>
</svg>
