<?xml version="1.0" encoding="UTF-8"?>
<!DOCTYPE svg PUBLIC "-//W3C//DTD SVG 1.1//EN" "http://www.w3.org/Graphics/SVG/1.1/DTD/svg11.dtd">
<!-- Creator: CorelDRAW 2020 (64-Bit) -->
<svg xmlns="http://www.w3.org/2000/svg" xml:space="preserve" width="40mm" height="60mm" version="1.1" style="shape-rendering:geometricPrecision; text-rendering:geometricPrecision; image-rendering:optimizeQuality; fill-rule:evenodd; clip-rule:evenodd"
viewBox="0 0 4000 6000"
 xmlns:xlink="http://www.w3.org/1999/xlink"
 xmlns:xodm="http://www.corel.com/coreldraw/odm/2003">
 <defs>
  <style type="text/css">
   <![CDATA[
    .str1 {stroke:#332C2B;stroke-width:20;stroke-miterlimit:22.9256}
    .str2 {stroke:#332C2B;stroke-width:20;stroke-miterlimit:22.9256}
    .str0 {stroke:#E62129;stroke-width:20;stroke-miterlimit:22.9256}
    .fil0 {fill:none}
   ]]>
  </style>
   <clipPath id="id0">
    <rect x="-55686.31" y="-6179.46" width="12687.8" height="16724.85"/>
   </clipPath>
 </defs>
 <g id="图层_x0020_1">
  <metadata id="CorelCorpID_0Corel-Layer"/>
  <g style="clip-path:url(#id0)">
   <image x="-55686.31" y="-6179.46" width="12687.8" height="16724.85" xlink:href="T10 -11i（背膜）_Images\T10 -11i（背膜）_ImgID1.png"/>
  </g>
  <rect class="fil0 str0" x="-55502.97" y="-6008.54" width="7580" height="16390"/>
  <rect class="fil0 str0" x="-55453.99" y="-5950.33" width="7482.04" height="16269.62" rx="1000" ry="1256.37"/>
  <rect class="fil0 str1" x="-55068.44" y="-5538.49" width="2910.43" height="2843.54" rx="792.02" ry="800"/>
  <rect class="fil0 str1" x="-54966.85" y="-5439.22" width="2707.24" height="2645.02" rx="736.73" ry="744.15"/>
  <path class="fil0 str1" d="M-52962.93 -5254.04c-303.21,0 -549.02,245.81 -549.02,549.02 0,303.21 245.81,549.02 549.02,549.02 303.21,0 549.02,-245.81 549.02,-549.02 0,-303.21 -245.81,-549.02 -549.02,-549.02 -303.21,0 -408.74,295.03 -412.71,424.68"/>
  <path class="fil0 str1" d="M-54218.6 -4044.71c-303.21,0 -549.02,245.81 -549.02,549.02 0,303.21 245.81,549.02 549.02,549.02 303.21,0 549.02,-245.81 549.02,-549.02 0,-303.21 -245.81,-549.02 -549.02,-549.02 -303.21,0 -408.74,295.03 -412.71,424.68"/>
  <path class="fil0 str2" d="M-3158.57 5634.08l0 -6054.87c0,-549.98 -450.02,-1000 -1000,-1000l-14269.62 0c-550,0 -1000,450 -1000,1000l0 5482.04c0,550 450,1000 1000,1000l14269.62 0c550,0 1000,-450 1000,-1000 0,-550 74.38,-812.22 186.83,-923.35"/>
  <path class="fil0 str2" d="M-19016.34 4875.7l0 -1310.43c0,-440 360,-800 800,-800l1243.54 0c440,0 800,360 800,800l0 1310.43c0,440 -360,800 -800,800l-1243.54 0c-440,0 -800,-360 -800,-800z"/>
  <path class="fil0 str2" d="M-18917.08 4829.97l0 -1218.97c0,-409.28 334.86,-744.14 744.14,-744.14l1156.74 0c409.28,0 744.14,334.86 744.14,744.14l0 1218.97c0,409.28 -334.86,744.13 -744.14,744.13l-1156.74 0c-409.28,0 -744.14,-334.85 -744.14,-744.13z"/>
  <path class="fil0 str2" d="M-18731.9 3570.19c0,303.21 245.81,549.02 549.02,549.02 303.21,0 549.02,-245.81 549.02,-549.02 0,-303.21 -245.81,-549.02 -549.02,-549.02 -303.21,0 -549.02,245.81 -549.02,549.02 0,303.21 295.03,408.74 424.68,412.71"/>
  <path class="fil0 str2" d="M-17522.57 4825.86c0,303.21 245.81,549.02 549.02,549.02 303.21,0 549.02,-245.81 549.02,-549.02 0,-303.21 -245.81,-549.02 -549.02,-549.02 -303.21,0 -549.02,245.81 -549.02,549.02 0,303.21 295.03,408.74 424.68,412.71"/>
  <g id="_2245633095200">
   <path class="fil0 str2" d="M1046.96 5302.31l1729.28 0c157.08,0 285.61,-128.53 285.61,-285.6l0 -4075.44c0,-157.08 -128.53,-285.6 -285.61,-285.6l-1565.68 0c-157.08,0 -285.61,128.52 -285.61,285.6l0 4075.44c0,157.08 128.53,285.6 285.61,285.6 157.08,0 231.97,21.24 263.71,53.36"/>
   <path class="fil0 str2" d="M1263.55 773.29l374.26 0c125.67,0 228.49,102.82 228.49,228.49l0 355.15c0,125.67 -102.82,228.49 -228.49,228.49l-374.26 0c-125.66,0 -228.48,-102.82 -228.48,-228.49l0 -355.15c0,-125.67 102.82,-228.49 228.48,-228.49z"/>
   <path class="fil0 str2" d="M1276.61 801.64l348.14 0c116.89,0 212.53,95.64 212.53,212.53l0 330.37c0,116.89 -95.64,212.53 -212.53,212.53l-348.14 0c-116.89,0 -212.52,-95.64 -212.52,-212.53l0 -330.37c0,-116.89 95.63,-212.53 212.52,-212.53z"/>
   <path class="fil0 str2" d="M1636.41 854.53c-86.6,0 -156.8,70.2 -156.8,156.8 0,86.6 70.2,156.8 156.8,156.8 86.6,0 156.8,-70.2 156.8,-156.8 0,-86.6 -70.2,-156.8 -156.8,-156.8 -86.6,0 -116.74,84.26 -117.87,121.29"/>
   <path class="fil0 str2" d="M1277.79 1199.92c-86.6,0 -156.81,70.2 -156.81,156.8 0,86.6 70.21,156.8 156.81,156.8 86.59,0 156.8,-70.2 156.8,-156.8 0,-86.6 -70.21,-156.8 -156.8,-156.8 -86.6,0 -116.74,84.26 -117.88,121.29"/>
  </g>
 </g>
</svg>
