<?xml version="1.0" encoding="UTF-8"?>
<!DOCTYPE svg PUBLIC "-//W3C//DTD SVG 1.1//EN" "http://www.w3.org/Graphics/SVG/1.1/DTD/svg11.dtd">
<!-- Creator: CorelDRAW X8 -->
<svg xmlns="http://www.w3.org/2000/svg" xml:space="preserve" width="40mm" height="60mm" version="1.1" style="shape-rendering:geometricPrecision; text-rendering:geometricPrecision; image-rendering:optimizeQuality; fill-rule:evenodd; clip-rule:evenodd"
viewBox="0 0 4000 6000"
 xmlns:xlink="http://www.w3.org/1999/xlink">
 <defs>
  <style type="text/css">
   <![CDATA[
    .str0 {stroke:black;stroke-width:7.62}
    .fil0 {fill:none}
   ]]>
  </style>
 </defs>
 <g id="图层_x0020_1">
  <metadata id="CorelCorpID_0Corel-Layer"/>
  <path class="fil0 str0" d="M1058 5313l1758 0c123,0 224,-101 224,-224l0 -4215c0,-123 -101,-224 -224,-224l-444 0 -267 0c-20,0 -36,16 -36,35l0 17c0,37 -30,66 -66,66l0 0c-37,0 -66,-30 -66,-66l0 -17c0,-19 -16,-35 -36,-35l-275 0 -442 0c-123,0 -224,101 -224,224l0 4215c0,123 101,224 224,224l44 0c102,0 163,19 180,37"/>
 </g>
</svg>
