<?xml version="1.0" encoding="UTF-8"?>
<!DOCTYPE svg PUBLIC "-//W3C//DTD SVG 1.1//EN" "http://www.w3.org/Graphics/SVG/1.1/DTD/svg11.dtd">
<!-- Creator: CorelDRAW X8 -->
<svg xmlns="http://www.w3.org/2000/svg" xml:space="preserve" width="40mm" height="60mm" version="1.1" style="shape-rendering:geometricPrecision; text-rendering:geometricPrecision; image-rendering:optimizeQuality; fill-rule:evenodd; clip-rule:evenodd"
viewBox="0 0 4000 6000"
 xmlns:xlink="http://www.w3.org/1999/xlink">
 <defs>
  <style type="text/css">
   <![CDATA[
    .str0 {stroke:#222222;stroke-width:20}
    .fil0 {fill:none}
   ]]>
  </style>
 </defs>
 <g id="图层_x0020_1">
  <metadata id="CorelCorpID_0Corel-Layer"/>
  <path class="fil0 str0" d="M941 5235l1943 0c96,0 175,-79 175,-176l0 -4233c0,-97 -79,-176 -175,-176l-775 0 0 126c0,41 -34,75 -76,75l0 0c-41,0 -75,-34 -75,-75l0 -126 -771 0c-97,0 -176,79 -176,176l0 4233c0,97 79,176 176,176 97,0 221,68 221,115"/>
  <path class="fil0 str0" d="M-5104 6915l0 -6626c0,-330 -270,-600 -600,-600l-14435 0c-330,0 -600,270 -600,600l0 2643 430 0c141,0 256,115 256,256l0 0c0,141 -115,257 -256,257l-430 0 0 2630c0,330 270,600 600,600l14435 0c330,0 600,-270 600,-600 0,-330 234,-754 393,-754"/>
 </g>
</svg>
