<?xml version="1.0" encoding="UTF-8"?>
<!DOCTYPE svg PUBLIC "-//W3C//DTD SVG 1.1//EN" "http://www.w3.org/Graphics/SVG/1.1/DTD/svg11.dtd">
<!-- Creator: CorelDRAW X8 -->
<svg xmlns="http://www.w3.org/2000/svg" xml:space="preserve" width="40mm" height="60mm" version="1.1" style="shape-rendering:geometricPrecision; text-rendering:geometricPrecision; image-rendering:optimizeQuality; fill-rule:evenodd; clip-rule:evenodd"
viewBox="0 0 4000 6000"
 xmlns:xlink="http://www.w3.org/1999/xlink">
 <defs>
  <style type="text/css">
   <![CDATA[
    .str0 {stroke:#332C2B;stroke-width:7.62}
    .fil0 {fill:none}
   ]]>
  </style>
 </defs>
 <g id="图层_x0020_1">
  <metadata id="CorelCorpID_0Corel-Layer"/>
  <path class="fil0 str0" d="M1127 650l1746 0c151,0 275,124 275,275l0 4150c0,151 -124,275 -275,275l-1746 0c-151,0 -275,-124 -275,-275l0 -4150c0,-151 124,-275 275,-275zm873 455c114,0 207,92 207,206 0,115 -93,207 -207,207 -114,0 -207,-92 -207,-207 0,-114 93,-206 207,-206zm0 487c49,0 89,40 89,89 0,49 -40,89 -89,89 -49,0 -89,-40 -89,-89 0,-49 40,-89 89,-89z"/>
 </g>
</svg>
