<?xml version="1.0" encoding="UTF-8"?>
<!DOCTYPE svg PUBLIC "-//W3C//DTD SVG 1.1//EN" "http://www.w3.org/Graphics/SVG/1.1/DTD/svg11.dtd">
<!-- Creator: CorelDRAW 2020 (64-Bit) -->
<svg xmlns="http://www.w3.org/2000/svg" xml:space="preserve" width="40mm" height="60mm" version="1.1" style="shape-rendering:geometricPrecision; text-rendering:geometricPrecision; image-rendering:optimizeQuality; fill-rule:evenodd; clip-rule:evenodd"
viewBox="0 0 4000 6000"
 xmlns:xlink="http://www.w3.org/1999/xlink"
 xmlns:xodm="http://www.corel.com/coreldraw/odm/2003">
 <defs>
  <style type="text/css">
   <![CDATA[
    .str0 {stroke:#332C2B;stroke-width:7.62;stroke-miterlimit:22.9256}
    .fil0 {fill:none}
   ]]>
  </style>
 </defs>
 <g id="图层_x0020_1">
  <metadata id="CorelCorpID_0Corel-Layer"/>
  <path class="fil0 str0" d="M-5455.29 7381.17l-0.01 -407.4c549.99,0 1000,-449.99 1000,-999.99l0 -5588.19c0,-550 -450.01,-1000 -1000,-1000l0.01 -320.43c0,-27.48 -22.5,-49.99 -50.01,-49.99l-11604.54 0 0 240.51c0,55 -45,100 -100,100l-1879.64 0c-55,0 -100,-45 -100,-100l0 -240.51 -1188.96 0c-27.51,0 -50.01,22.5 -50.01,49.99l0.04 320.43c-550,0 -1000,450 -1000,1000l0 5588.19c0,550 450,999.99 1000,999.99l-0.04 320.42c0,27.5 22.49,50 50.01,50l3241.54 0 0 -224.79c0,-55 45,-100 100,-100l2115.15 0c55,0 100,45 100,100l0 224.79 451.81 0 0 -224.79c0,-55 45,-100 100,-100l991.25 0c55,0 100,45 100,100l0 224.79 7673.39 0c27.51,0 50.01,-22.5 50.01,-50 0,-27.5 6.22,-85.36 27.39,-114.79"/>
  <path class="fil0 str0" d="M-21054.87 6021.1c0,247.5 202.5,450 450,450l4525.68 0c247.5,0 450,-202.5 450,-450l0 -1409.87c0,-247.5 -202.5,-450 -450,-450l-4525.68 0c-247.5,0 -450,202.5 -450,450l0 1409.87c0,0 22.38,-445.28 133.51,-563.02"/>
  <path class="fil0 str0" d="M-18059.8 3186.16c0,296.86 242.88,539.74 539.74,539.74l201.12 0c296.86,0 539.74,-242.88 539.74,-539.74l0 -0.02c0,-296.86 -242.88,-539.74 -539.74,-539.74l-201.12 0c-296.88,0 -539.74,242.89 -539.74,539.76 0,296.87 249.28,365.57 279.71,357.63"/>
  <g id="_1509340803424">
   <path class="fil0 str0" d="M835.09 5078.77l112.81 -0.01c0,152.3 124.61,276.91 276.91,276.91l1547.42 0c152.3,0 276.91,-124.61 276.91,-276.91l88.73 0.01c7.61,0 13.84,-6.23 13.84,-13.85l0 -3213.4 -66.6 0c-15.23,0 -27.69,-12.46 -27.69,-27.69l0 -520.49c0,-15.23 12.46,-27.69 27.69,-27.69l66.6 0 0 -329.23c0,-7.62 -6.23,-13.85 -13.84,-13.85l-88.73 0.01c0,-152.3 -124.61,-276.91 -276.91,-276.91l-1547.42 0c-152.3,0 -276.91,124.61 -276.91,276.91l-88.72 -0.01c-7.62,0 -13.85,6.23 -13.85,13.85l0 897.61 62.25 0c15.23,0 27.69,12.46 27.69,27.69l0 585.7c0,15.23 -12.46,27.69 -27.69,27.69l-62.25 0 0 125.11 62.25 0c15.23,0 27.69,12.46 27.69,27.69l0 274.49c0,15.23 -12.46,27.69 -27.69,27.69l-62.25 0 0 2124.83c0,7.62 6.23,13.85 13.85,13.85 7.61,0 23.63,1.72 31.78,7.58"/>
   <path class="fil0 str0" d="M1211.71 759.11c-68.54,0 -124.61,56.07 -124.61,124.61l0 1253.2c0,68.53 56.07,124.61 124.61,124.61l390.4 0c68.54,0 124.61,-56.08 124.61,-124.61l0 -1253.2c0,-68.54 -56.07,-124.61 -124.61,-124.61l-390.4 0c0,0 123.3,6.19 155.9,36.97"/>
   <path class="fil0 str0" d="M1996.73 1588.47c-82.21,0 -149.46,67.25 -149.46,149.46l0 55.69c0,82.2 67.25,149.46 149.46,149.46l0 0c82.2,0 149.46,-67.26 149.46,-149.46l0 -55.69c0,-82.21 -67.26,-149.46 -149.46,-149.46 -82.21,0 -101.23,69.03 -99.04,77.45"/>
  </g>
 </g>
</svg>
