<?xml version="1.0" encoding="UTF-8"?>
<!DOCTYPE svg PUBLIC "-//W3C//DTD SVG 1.1//EN" "http://www.w3.org/Graphics/SVG/1.1/DTD/svg11.dtd">
<!-- Creator: CorelDRAW X8 -->
<svg xmlns="http://www.w3.org/2000/svg" xml:space="preserve" width="40mm" height="60mm" version="1.1" style="shape-rendering:geometricPrecision; text-rendering:geometricPrecision; image-rendering:optimizeQuality; fill-rule:evenodd; clip-rule:evenodd"
viewBox="0 0 4000 6000"
 xmlns:xlink="http://www.w3.org/1999/xlink">
 <defs>
  <style type="text/css">
   <![CDATA[
    .str0 {stroke:#332C2B;stroke-width:7.62}
    .fil0 {fill:none}
   ]]>
  </style>
 </defs>
 <g id="图层_x0020_1">
  <metadata id="CorelCorpID_0Corel-Layer"/>
  <path class="fil0 str0" d="M865 5207l1985 0c157,0 285,-128 285,-285l0 -3987c0,-157 -128,-285 -285,-285l-1662 0c-156,0 -285,128 -285,285l0 3987c0,157 129,285 285,285 157,0 304,75 304,143m-309 -4405c-114,-66 -36,-210 56,-210 92,0 167,74 167,166 0,93 -75,167 -167,167 -92,0 -167,-74 -167,-167 0,-92 75,-166 167,-166m288 187c-54,-31 -17,-98 26,-98 43,0 78,34 78,77 0,43 -35,78 -78,78 -43,0 -78,-35 -78,-78 0,-43 35,-77 78,-77m890 4003c0,-79 -177,-112 -230,-112 -52,0 -95,43 -95,96l0 0c0,52 43,95 95,95l539 0c52,0 95,-43 95,-95l0 0c0,-53 -43,-96 -95,-96l-539 0"/>
 </g>
</svg>
