<?xml version="1.0" encoding="UTF-8"?>
<!DOCTYPE svg PUBLIC "-//W3C//DTD SVG 1.1//EN" "http://www.w3.org/Graphics/SVG/1.1/DTD/svg11.dtd">
<!-- Creator: CorelDRAW -->
<svg xmlns="http://www.w3.org/2000/svg" xml:space="preserve" width="40mm" height="60mm" style="shape-rendering:geometricPrecision; text-rendering:geometricPrecision; image-rendering:optimizeQuality; fill-rule:evenodd; clip-rule:evenodd"
viewBox="0 0 40 60"
 xmlns:xlink="http://www.w3.org/1999/xlink">
 <defs>
  <style type="text/css">
   <![CDATA[
    .str0 {stroke:#1F1A17;stroke-width:0.194}
    .fil0 {fill:none;fill-rule:nonzero}
   ]]>
  </style>
 </defs>
 <g id="图层_x0020_7">
  <metadata id="CorelCorpID_0Corel-Layer"/>
  <path class="fil0 str0" d="M30.7959 53.3811l-0.0392 0.027m0.2522 -14.4613c-0.0367,12.8025 -0.0342,13.3705 0.0723,14.0169 0.0012,0.011 0.0024,0.0208 0.0024,0.0318 0,0.1212 -0.104,0.2608 -0.2877,0.3856m0.3049 -45.9887l-0.0919 31.5544m-0.5239 -32.4272c0.202,0.0134 0.273,0.0526 0.4542,0.2448 0.1603,0.1677 0.1628,0.1824 0.1616,0.628m-15.5177 -0.8802l14.9019 0.0074m-15.405 0.5643c-0.0012,-0.5313 0.0232,-0.5594 0.5031,-0.5717m-0.5019 1.2205l-0.0012 -0.6488m-1.7371 0.4431c0,0.0258 0,0.049 0,0.071 0,0.6758 0.3146,1.0577 0.8704,1.0577 0.508,0 0.852,-0.366 0.8679,-0.923m-1.7371 -0.6672l-0.0012 0.4615m-2.1705 -1.027c1.5339,0 1.8411,0.0073 1.9942,0.0477 0.1518,0.0392 0.1799,0.1187 0.1775,0.5178m-2.2427 -0.5655l0.071 0m-1.8926 0.2436c0.2412,-0.2436 0.2412,-0.2436 1.8216,-0.2436m-1.8326 0.2534l0.011 -0.0098m-0.273 37.6753c-0.0502,-4.8661 -0.082,-9.731 -0.0979,-14.5971 -0.0159,-4.8318 -0.0123,-9.6649 0.0098,-14.4967 0.0196,-4.2393 0.0098,-3.1792 0.0685,-7.4173 0.0331,-0.737 0.0882,-0.9598 0.2816,-1.1544m-0.1775 45.903l-0.0845 -8.2375m0.6966 9.081c-0.2081,-0.0233 -0.4946,-0.2057 -0.5558,-0.3575 -0.0318,-0.0759 -0.0453,-0.1922 -0.0563,-0.486m0.6121 0.8435l20.7032 0c0.273,-0.0367 0.273,-0.0367 0.3501,-0.0918m-14.4262 -46.1024l5.2123 0c0.2601,0 0.473,0.2128 0.473,0.473l0 0c0,0.2601 -0.2129,0.473 -0.473,0.473l-5.2123 0c-0.2602,0 -0.473,-0.2129 -0.473,-0.473l0 0c0,-0.2602 0.2128,-0.473 0.473,-0.473z"/>
 </g>
</svg>
