<?xml version="1.0" encoding="UTF-8"?>
<!DOCTYPE svg PUBLIC "-//W3C//DTD SVG 1.1//EN" "http://www.w3.org/Graphics/SVG/1.1/DTD/svg11.dtd">
<!-- Creator: CorelDRAW X8 -->
<svg xmlns="http://www.w3.org/2000/svg" xml:space="preserve" width="40mm" height="60mm" version="1.1" style="shape-rendering:geometricPrecision; text-rendering:geometricPrecision; image-rendering:optimizeQuality; fill-rule:evenodd; clip-rule:evenodd"
viewBox="0 0 4000 6000"
 xmlns:xlink="http://www.w3.org/1999/xlink">
 <defs>
  <style type="text/css">
   <![CDATA[
    .str0 {stroke:#332C2B;stroke-width:10}
    .fil0 {fill:none}
   ]]>
  </style>
 </defs>
 <g id="图层_x0020_1">
  <metadata id="CorelCorpID_0Corel-Layer"/>
  <path class="fil0 str0" d="M2088 883c-9,-32 -27,-57 -105,-57l-35 0c-36,0 -65,29 -65,64l0 0c0,36 29,65 65,65l136 0c35,0 64,-29 64,-65l0 0c0,-35 -29,-64 -64,-64l-101 0m156 303c3,-76 -86,-136 -119,-138 -116,0 -209,93 -209,209 0,115 93,209 209,209 116,0 209,-94 209,-209 0,-116 -93,-209 -209,-209m112 768c3,-70 -80,-125 -109,-128 -107,0 -194,87 -194,193 0,107 87,194 194,194 106,0 193,-87 193,-194 0,-106 -87,-193 -193,-193m-1102 3719l1980 0c124,0 226,-101 226,-225l0 -4250c0,-124 -102,-225 -226,-225l-1802 0c-124,0 -226,101 -226,225l0 4250c0,124 102,225 226,225l231 0"/>
 </g>
</svg>
