<?xml version="1.0" encoding="UTF-8"?>
<!DOCTYPE svg PUBLIC "-//W3C//DTD SVG 1.1//EN" "http://www.w3.org/Graphics/SVG/1.1/DTD/svg11.dtd">
<!-- Creator: CorelDRAW X8 -->
<svg xmlns="http://www.w3.org/2000/svg" xml:space="preserve" width="40mm" height="60mm" version="1.1" style="shape-rendering:geometricPrecision; text-rendering:geometricPrecision; image-rendering:optimizeQuality; fill-rule:evenodd; clip-rule:evenodd"
viewBox="0 0 4000 6000"
 xmlns:xlink="http://www.w3.org/1999/xlink">
 <defs>
  <style type="text/css">
   <![CDATA[
    .str0 {stroke:black;stroke-width:7.62}
    .fil0 {fill:none}
   ]]>
  </style>
 </defs>
 <g id="图层_x0020_1">
  <metadata id="CorelCorpID_0Corel-Layer"/>
  <path class="fil0 str0" d="M793 5350l2319 0c65,0 118,-53 118,-118l0 -4503c0,-43 -36,-79 -79,-79l-856 0c-17,0 -15,14 -28,14l-522 0c-17,0 -12,-14 -27,-14l-869 0c-43,0 -79,36 -79,79l0 4503c0,65 53,118 118,118l199 0m452 -4632c0,-3 -3,-6 -9,-6 -22,0 -40,17 -40,39 0,22 18,40 40,40 22,0 39,-18 39,-40 0,-22 -17,-39 -39,-39m1034 24c-2,-9 -6,-16 -22,-16l-13 0c-18,0 -34,15 -34,34l0 0c0,18 16,33 34,33l95 0c19,0 34,-15 34,-33l0 0c0,-19 -15,-34 -34,-34l-82 0m-630 4347c-8,-31 -19,-53 -71,-53l-43 0c-59,0 -90,35 -90,83l0 52c0,59 30,83 90,83l409 0c67,0 82,-22 82,-82l0 -52c0,-60 -15,-84 -82,-84l-366 0"/>
 </g>
</svg>
