<?xml version="1.0" encoding="UTF-8"?>
<!DOCTYPE svg PUBLIC "-//W3C//DTD SVG 1.1//EN" "http://www.w3.org/Graphics/SVG/1.1/DTD/svg11.dtd">
<!-- Creator: CorelDRAW 2020 (64-Bit) -->
<svg xmlns="http://www.w3.org/2000/svg" xml:space="preserve" width="40mm" height="60mm" version="1.1" style="shape-rendering:geometricPrecision; text-rendering:geometricPrecision; image-rendering:optimizeQuality; fill-rule:evenodd; clip-rule:evenodd"
viewBox="0 0 4000 6000"
 xmlns:xlink="http://www.w3.org/1999/xlink"
 xmlns:xodm="http://www.corel.com/coreldraw/odm/2003">
 <defs>
  <style type="text/css">
   <![CDATA[
    .str0 {stroke:black;stroke-width:7.62;stroke-miterlimit:22.9256}
    .fil0 {fill:none}
   ]]>
  </style>
 </defs>
 <g id="图层_x0020_1">
  <metadata id="CorelCorpID_0Corel-Layer"/>
  <path class="fil0 str0" d="M919.64 712.17c-7.3,-26.31 -17.24,-45.63 -64.04,-45.63l-38.81 0c-54.04,0 -98.25,42.65 -98.25,94.79l0 0.02c0,52.06 44.21,94.78 98.25,94.78l203.48 0c54.05,0 98.26,-42.65 98.26,-94.78l0 -0.02c0,-52.14 -44.29,-94.79 -98.26,-94.79l-164.67 0m-176.92 4675.7l2546.17 0c82.5,0 150.02,-67.51 150.02,-150.02l0 -4386.53c0,-82.51 -67.51,-150.02 -150.02,-150.02l-2462.9 0c-82.51,0 -150.02,67.51 -150.02,150.02l0 4386.53c0,82.51 67.51,150.02 150.02,150.02l30.41 0c39.78,0.74 60.56,7.51 64.23,13.43"/>
 </g>
</svg>
