<?xml version="1.0" encoding="UTF-8"?>
<!DOCTYPE svg PUBLIC "-//W3C//DTD SVG 1.1//EN" "http://www.w3.org/Graphics/SVG/1.1/DTD/svg11.dtd">
<!-- Creator: CorelDRAW X8 -->
<svg xmlns="http://www.w3.org/2000/svg" xml:space="preserve" width="40mm" height="60mm" version="1.1" style="shape-rendering:geometricPrecision; text-rendering:geometricPrecision; image-rendering:optimizeQuality; fill-rule:evenodd; clip-rule:evenodd"
viewBox="0 0 4000 6000"
 xmlns:xlink="http://www.w3.org/1999/xlink">
 <defs>
  <style type="text/css">
   <![CDATA[
    .str0 {stroke:#332C2B;stroke-width:19.4}
    .fil0 {fill:none;fill-rule:nonzero}
   ]]>
  </style>
 </defs>
 <g id="图层_x0020_1">
  <metadata id="CorelCorpID_0Corel-Layer"/>
  <g id="_1775758793984">
   <g>
    <line class="fil0 str0" x1="3123" y1="651" x2="3123" y2= "684" />
    <line class="fil0 str0" x1="1570" y1="4795" x2="1570" y2= "4805" />
    <path class="fil0 str0" d="M1570 4805c-5,-2 -7,-4 -9,-10 -148,-1 -111,0 -259,-1"/>
    <line class="fil0 str0" x1="1302" y1="4794" x2="1293" y2= "4794" />
    <path class="fil0 str0" d="M1293 4794c-42,0 -55,0 -68,1 -18,2 -28,6 -36,14 -7,7 -10,18 -12,36 -2,13 -2,27 -2,70"/>
    <line class="fil0 str0" x1="1175" y1="4915" x2="1175" y2= "4939" />
    <path class="fil0 str0" d="M1175 4939c0,31 0,41 3,51 3,13 9,21 21,26 20,10 46,11 169,11"/>
    <line class="fil0 str0" x1="1368" y1="5027" x2="1400" y2= "5027" />
    <path class="fil0 str0" d="M1400 5027c142,0 179,-2 197,-10 19,-8 23,-25 23,-88 0,-44 0,-61 -2,-77 -1,-20 -4,-32 -9,-40 -5,-8 -13,-13 -25,-15 -10,-2 -21,-3 -49,-2"/>
    <polyline class="fil0 str0" points="1535,4795 1463,4795 1463,4795 1463,4796 1454,4797 1454,4799 1455,4800 1447,4804 1447,4805 1284,4908 "/>
    <line class="fil0 str0" x1="1897" y1="908" x2="1889" y2= "913" />
    <path class="fil0 str0" d="M1889 913c-1,-4 -1,-5 -1,-8"/>
    <polyline class="fil0 str0" points="1888,905 1891,901 1897,897 1897,872 "/>
    <path class="fil0 str0" d="M1897 872c0,-47 -1,-56 -14,-74 -18,-27 -44,-38 -92,-38 -82,0 -107,28 -107,118 0,83 27,113 103,113 78,0 102,-20 112,-91"/>
    <polyline class="fil0 str0" points="1899,900 1898,899 1898,897 1897,898 1896,898 "/>
    <path class="fil0 str0" d="M1896 898c-6,-10 -13,-18 -54,-64"/>
    <polyline class="fil0 str0" points="3104,5227 3097,5219 3094,5227 1132,5227 "/>
    <path class="fil0 str0" d="M1132 5227c-122,-4 -210,-73 -244,-192 -3,-11 -4,-19 -4,-67"/>
    <line class="fil0 str0" x1="884" y1="4968" x2="878" y2= "2921" />
    <path class="fil0 str0" d="M878 2921c-1,-670 -1,-1340 1,-2010 4,-92 44,-172 106,-213 10,-6 20,-10 30,-10 32,0 48,20 49,59"/>
    <line class="fil0 str0" x1="1064" y1="747" x2="1063" y2= "970" />
    <path class="fil0 str0" d="M1063 970c0,62 14,93 53,112 21,11 36,12 169,12 158,0 165,-1 190,-16 36,-24 46,-45 46,-106"/>
    <line class="fil0 str0" x1="1521" y1="972" x2="1519" y2= "794" />
    <path class="fil0 str0" d="M1519 794c0,-6 0,-12 0,-17 0,-121 2,-124 64,-126"/>
    <line class="fil0 str0" x1="1583" y1="651" x2="2410" y2= "650" />
    <path class="fil0 str0" d="M2410 650c398,0 494,0 513,4 50,9 111,46 144,86 25,33 51,89 54,118"/>
    <line class="fil0 str0" x1="3121" y1="858" x2="3119" y2= "4968" />
    <path class="fil0 str0" d="M3119 4968c0,16 0,27 0,36 0,35 -1,39 -16,72 -43,95 -102,135 -224,151 -63,10 -103,45 -138,123"/>
   </g>
  </g>
 </g>
</svg>
