<?xml version="1.0" encoding="UTF-8"?>
<!DOCTYPE svg PUBLIC "-//W3C//DTD SVG 1.1//EN" "http://www.w3.org/Graphics/SVG/1.1/DTD/svg11.dtd">
<!-- Creator: CorelDRAW X8 -->
<svg xmlns="http://www.w3.org/2000/svg" xml:space="preserve" width="40mm" height="60mm" version="1.1" style="shape-rendering:geometricPrecision; text-rendering:geometricPrecision; image-rendering:optimizeQuality; fill-rule:evenodd; clip-rule:evenodd"
viewBox="0 0 4000 6000"
 xmlns:xlink="http://www.w3.org/1999/xlink">
 <defs>
  <style type="text/css">
   <![CDATA[
    .str0 {stroke:#332C2B;stroke-width:7.62}
    .fil0 {fill:none}
   ]]>
  </style>
 </defs>
 <g id="图层_x0020_1">
  <metadata id="CorelCorpID_0Corel-Layer"/>
  <path class="fil0 str0" d="M3186 5205l-2153 0c-121,0 -219,-98 -219,-219l0 -4117c0,-120 98,-219 219,-219l1824 0c120,0 219,99 219,219l0 4117c0,121 -99,219 -219,219 -121,0 -251,56 -251,145m-868 -4212c0,-119 97,-216 216,-216l0 0c119,0 217,97 217,216l0 569c0,119 -98,217 -217,217l0 0c-119,0 -216,-98 -216,-217l0 -569zm33 0l0 569c0,101 82,184 183,184 101,0 184,-83 184,-184l0 -569c0,-101 -83,-184 -184,-184 -101,0 -183,83 -183,184zm-5 3600c22,-22 7,-47 -13,-47 -19,0 -35,15 -35,35l0 0c0,19 16,35 35,35l416 0c19,0 35,-16 35,-35l0 0c0,-20 -16,-35 -35,-35l-416 0m201 -3709c87,0 157,70 157,157 0,87 -70,157 -157,157 -86,0 -157,-70 -157,-157 0,-87 71,-157 157,-157zm0 364c43,0 77,34 77,77 0,42 -34,76 -77,76 -42,0 -76,-34 -76,-76 0,-43 34,-77 76,-77z"/>
 </g>
</svg>
