<?xml version="1.0" encoding="UTF-8"?>
<!DOCTYPE svg PUBLIC "-//W3C//DTD SVG 1.1//EN" "http://www.w3.org/Graphics/SVG/1.1/DTD/svg11.dtd">
<!-- Creator: CorelDRAW -->
<svg xmlns="http://www.w3.org/2000/svg" xml:space="preserve" width="40mm" height="60mm" style="shape-rendering:geometricPrecision; text-rendering:geometricPrecision; image-rendering:optimizeQuality; fill-rule:evenodd; clip-rule:evenodd"
viewBox="0 0 40 60"
 xmlns:xlink="http://www.w3.org/1999/xlink">
 <defs>
  <style type="text/css">
   <![CDATA[
    .str0 {stroke:#1F1A17;stroke-width:0.0762}
    .fil0 {fill:none}
   ]]>
  </style>
 </defs>
 <g id="图层_x0020_1">
  <metadata id="CorelCorpID_0Corel-Layer"/>
  <g id="_166890400">
   <path id="_166887232" class="fil0 str0" d="M9.033 6.5l21.9339 0c0.1074,0 0.1951,0.2114 0.1951,0.47l0 46.0601c0,0.2586 -0.0877,0.4699 -0.1951,0.4699l-21.9339 0c-0.1073,0 -0.1951,-0.2113 -0.1951,-0.4699l0 -46.0601c0,-0.2586 0.0878,-0.47 0.1951,-0.47z"/>
   <path id="_166888408" class="fil0 str0" d="M11.7211 7.4363c0.9005,0 1.6307,0.7302 1.6307,1.6307 0,0.9005 -0.7302,1.6308 -1.6307,1.6308 -0.9005,0 -1.6308,-0.7303 -1.6308,-1.6308 0,-0.9005 0.7303,-1.6307 1.6308,-1.6307z"/>
   <path id="_166886272" class="fil0 str0" d="M16.1346 8.2542l3.6284 0c0.388,0 0.7055,0.3549 0.7055,0.7886l0 0c0,0.4337 -0.3175,0.7885 -0.7055,0.7885l-3.6284 0c-0.388,0 -0.7055,-0.3548 -0.7055,-0.7885l0 0c0,-0.4337 0.3175,-0.7886 0.7055,-0.7886z"/>
  </g>
 </g>
</svg>
