<?xml version="1.0" encoding="UTF-8"?>
<!DOCTYPE svg PUBLIC "-//W3C//DTD SVG 1.1//EN" "http://www.w3.org/Graphics/SVG/1.1/DTD/svg11.dtd">
<!-- Creator: CorelDRAW X8 -->
<svg xmlns="http://www.w3.org/2000/svg" xml:space="preserve" width="40mm" height="60mm" version="1.1" style="shape-rendering:geometricPrecision; text-rendering:geometricPrecision; image-rendering:optimizeQuality; fill-rule:evenodd; clip-rule:evenodd"
viewBox="0 0 4000 6000"
 xmlns:xlink="http://www.w3.org/1999/xlink">
 <defs>
  <style type="text/css">
   <![CDATA[
    .str0 {stroke:#332C2B;stroke-width:30;stroke-linejoin:bevel}
    .fil0 {fill:none}
   ]]>
  </style>
 </defs>
 <g id="图层_x0020_1">
  <metadata id="CorelCorpID_0Corel-Layer"/>
  <g id="_2336552461344">
   <path class="fil0 str0" d="M1547 902c0,-46 -37,-84 -83,-84 -46,0 -84,38 -84,84 0,46 38,83 84,83 46,0 83,-37 83,-83z"/>
   <path class="fil0 str0" d="M2334 5350c-10,0 -19,-4 -25,-11 -10,-11 -23,-17 -38,-17l-542 0c-15,0 -28,6 -38,17 -6,7 -15,11 -25,11l-674 0c-9,0 -18,-3 -24,-10 -6,-6 -10,-14 -10,-23l0 -4634c0,-8 4,-17 10,-23 6,-6 15,-10 24,-10l674 0c10,0 19,4 25,11 10,11 23,17 38,17l542 0c15,0 28,-6 38,-17 6,-7 15,-11 25,-11l674 0c9,0 18,4 24,10 6,6 10,15 10,23l0 4634c0,9 -4,17 -10,23 -6,6 -15,10 -24,10l-674 0z"/>
  </g>
 </g>
</svg>
