<?xml version="1.0" encoding="UTF-8"?>
<!DOCTYPE svg PUBLIC "-//W3C//DTD SVG 1.1//EN" "http://www.w3.org/Graphics/SVG/1.1/DTD/svg11.dtd">
<!-- Creator: CorelDRAW 2020 (64-Bit) -->
<svg xmlns="http://www.w3.org/2000/svg" xml:space="preserve" width="40mm" height="60mm" version="1.1" style="shape-rendering:geometricPrecision; text-rendering:geometricPrecision; image-rendering:optimizeQuality; fill-rule:evenodd; clip-rule:evenodd"
viewBox="0 0 4000 6000"
 xmlns:xlink="http://www.w3.org/1999/xlink"
 xmlns:xodm="http://www.corel.com/coreldraw/odm/2003">
 <defs>
  <style type="text/css">
   <![CDATA[
    .str0 {stroke:#332C2B;stroke-width:20;stroke-miterlimit:22.9256}
    .fil0 {fill:none}
   ]]>
  </style>
 </defs>
 <g id="图层_x0020_1">
  <metadata id="CorelCorpID_0Corel-Layer"/>
  <path class="fil0 str0" d="M-12557.91 7423.55l0 -372.27c384.97,-0.04 699.94,-315.01 699.94,-700l0 -5788.1c0,-384.98 -314.97,-699.96 -699.94,-700l0 -300c0,-27.5 -22.62,-50 -50.05,-50l-7156.56 0 0 136.46c0,55 -45,100 -100,100l-872.9 0c-55,0 -100,-45 -100,-100l0 -136.46 -431.41 0 0 136.46c0,55 -45,100 -100,100l-1765.87 0c-55,0 -100,-45 -100,-100l0 -136.46 -3406.29 0c-27.43,0 -50.05,22.5 -50.05,50l0 300c-384.94,0.07 -699.87,315.04 -699.87,700l0 1475.9c0,24.72 28.09,50.89 28.09,73.73l0 2730.52c0,22.84 -28.09,43.21 -28.09,73.56l0 1434.39c0,384.97 314.92,699.93 699.87,700l0 300c0,27.5 22.62,50 50.05,50l14033.03 0c27.43,0 50.05,-22.5 50.05,-50 0,-27.5 6.14,-84.38 29.46,-117.29"/>
  <path class="fil0 str0" d="M-27115.26 3462.91c0,115.99 94.03,210.02 210.02,210.02 115.99,0 210.02,-94.03 210.02,-210.02 0,-115.99 -94.03,-210.02 -210.02,-210.02 -115.99,0 -210.02,94.03 -210.02,210.02 0,115.99 150.75,155.13 176.55,159.76"/>
  <g id="_1399897418512">
   <path class="fil0 str0" d="M796.1 5138.74l112.64 0c0.01,116.49 95.32,211.79 211.81,211.79l1751.38 0c116.49,0 211.79,-95.3 211.8,-211.79l90.78 0c8.32,0 15.13,-6.84 15.13,-15.14l0 -2165.46 -41.29 0c-16.64,0 -30.26,-13.61 -30.26,-30.25l0 -264.13c0,-16.64 13.62,-30.26 30.26,-30.26l41.29 0 0 -130.53 -41.29 0c-16.64,0 -30.26,-13.62 -30.26,-30.26l0 -534.32c0,-16.65 13.62,-30.26 30.26,-30.26l41.29 0 0 -1030.69c0,-8.3 -6.81,-15.14 -15.13,-15.14l-90.78 0c-0.02,-116.48 -95.32,-211.77 -211.8,-211.77l-446.58 0c-7.48,0 -15.4,8.5 -22.31,8.5l-826.21 0c-6.91,0 -13.08,-8.5 -22.26,-8.5l-434.02 0c-116.49,0 -211.79,95.29 -211.81,211.77l-90.77 0c-8.32,0 -15.13,6.84 -15.13,15.14l0 4246.16c0,8.3 6.81,15.14 15.13,15.14 8.32,0 25.53,1.86 35.49,8.91"/>
   <path class="fil0 str0" d="M1994.52 733.94c-35.1,0 -63.55,28.45 -63.55,63.55 0,35.09 28.45,63.54 63.55,63.54 35.1,0 63.55,-28.45 63.55,-63.54 0,-35.1 -28.45,-63.55 -63.55,-63.55 -35.1,0 -46.94,45.61 -48.34,53.42"/>
  </g>
 </g>
</svg>
