<?xml version="1.0" encoding="UTF-8"?>
<!DOCTYPE svg PUBLIC "-//W3C//DTD SVG 1.1//EN" "http://www.w3.org/Graphics/SVG/1.1/DTD/svg11.dtd">
<!-- Creator: CorelDRAW X8 -->
<svg xmlns="http://www.w3.org/2000/svg" xml:space="preserve" width="40mm" height="60mm" version="1.1" style="shape-rendering:geometricPrecision; text-rendering:geometricPrecision; image-rendering:optimizeQuality; fill-rule:evenodd; clip-rule:evenodd"
viewBox="0 0 4000 6000"
 xmlns:xlink="http://www.w3.org/1999/xlink">
 <defs>
  <style type="text/css">
   <![CDATA[
    .str0 {stroke:black;stroke-width:7.62}
    .fil0 {fill:none}
   ]]>
  </style>
 </defs>
 <g id="图层_x0020_1">
  <metadata id="CorelCorpID_0Corel-Layer"/>
  <path class="fil0 str0" d="M3201 2736c-18,5 -32,14 -32,57l0 36c0,19 16,35 35,35l0 0c19,0 35,-16 35,-35l0 -242c0,-19 -16,-34 -35,-34l0 0c-19,0 -35,15 -35,34l0 206m32 -506c-17,5 -31,15 -31,57l0 36c0,20 16,35 35,35l0 0c19,0 35,-15 35,-35l0 -541c0,-19 -16,-35 -35,-35l0 0c-19,0 -35,16 -35,35l0 505m-1155 -1608c-1,-5 -5,-10 -15,-11 -33,0 -60,27 -60,61 0,33 27,60 60,60 34,0 61,-27 61,-60 0,-34 -27,-61 -61,-61m-677 4625c-16,-22 -61,-44 -106,-44l-42 0c-150,0 -272,-121 -272,-270l0 -97 -144 0c-62,0 -112,-51 -112,-112l0 -3707c0,-61 50,-112 112,-112l144 0 0 -88c0,-149 122,-270 272,-270l1696 4c130,22 226,134 226,266l0 88 144 0c62,0 112,51 112,112l0 3707c0,61 -50,112 -112,112l-144 0 0 97c0,149 -122,270 -272,270l-1844 0"/>
 </g>
</svg>
