<?xml version="1.0" encoding="UTF-8"?>
<!DOCTYPE svg PUBLIC "-//W3C//DTD SVG 1.1//EN" "http://www.w3.org/Graphics/SVG/1.1/DTD/svg11.dtd">
<!-- Creator: CorelDRAW 2020 (64-Bit) -->
<svg xmlns="http://www.w3.org/2000/svg" xml:space="preserve" width="40mm" height="60mm" version="1.1" style="shape-rendering:geometricPrecision; text-rendering:geometricPrecision; image-rendering:optimizeQuality; fill-rule:evenodd; clip-rule:evenodd"
viewBox="0 0 4000 6000"
 xmlns:xlink="http://www.w3.org/1999/xlink"
 xmlns:xodm="http://www.corel.com/coreldraw/odm/2003">
 <defs>
  <style type="text/css">
   <![CDATA[
    .str0 {stroke:#332C2B;stroke-width:20;stroke-miterlimit:22.9256}
    .fil0 {fill:none}
   ]]>
  </style>
   <clipPath id="id0">
    <rect x="-21917.85" y="11185.41" width="7918.98" height="1150.78"/>
   </clipPath>
 </defs>
 <g id="图层_x0020_1">
  <metadata id="CorelCorpID_0Corel-Layer"/>
  <g style="clip-path:url(#id0)">
   <image transform="matrix(1.46431E-14 0.552894 -0.552894 1.46431E-14 -13998.9 11185.4)" x="0" y="0" width="2081.38" height="14322.78" xlink:href="Y15（2020）-11i（背膜办包）_Images\Y15（2020）-11i（背膜办包）_ImgID1.png"/>
  </g>
  <path class="fil0 str0" d="M-25367.87 2509.35l0 -0.02c0,-296.85 242.87,-539.72 539.72,-539.72l1860.52 0c296.85,0 539.72,242.87 539.72,539.72l0 0.02c0,296.85 -242.87,539.72 -539.72,539.72l-1860.52 0c-296.85,0 -539.72,-242.87 -539.72,-539.72z"/>
  <path class="fil0 str0" d="M-22274.92 2597.92l0 -200.94c0,-107.1 87.61,-194.71 194.71,-194.71l0.02 0c107.1,0 194.71,87.61 194.71,194.71l0 200.94c0,107.1 -87.61,194.71 -194.71,194.71l-0.02 0c-107.1,0 -194.71,-87.61 -194.71,-194.71z"/>
  <path class="fil0 str0" d="M-22647 250.38l0 -233.63c0,-275 224.99,-500 500,-500l230.32 0c275,0 500,225 500,500l0 233.63c0,275 -225,500 -500,500l-230.32 0c-275.01,0 -500,-225 -500,-500z"/>
  <path class="fil0 str0" d="M-11086.08 4689.43l0.14 -868.34c494.99,0 899.99,-405 899.99,-899.99l0 -5539.52c0,-494.98 -405.14,-900.06 -900.13,-900.06l0 -749.85c0,-27.5 -22.51,-50 -49.99,-50l-13652.1 0c-27.48,0 -49.99,22.5 -49.99,50l0 749.88c-494.99,0 -900.13,405.04 -900.13,900.03l0 5539.52c0,494.99 405.14,899.98 900.13,899.98l0 750.66c0,27.5 22.51,50 49.99,50l2446.93 0 0 -683.52c0,-55 45,-100 100,-100l3874.59 0c55,0 100,45 100,100l0 683.52 7130.58 0c27.48,0 49.98,-22.51 49.99,-50 0.01,-27.49 8.1,-174.04 47.79,-225.86"/>
  <g id="_1797185486896">
   <path class="fil0 str0" d="M1280.9 767.61l0.01 0c89.71,0 163.11,73.4 163.11,163.11l0 562.26c0,89.71 -73.4,163.1 -163.11,163.1l-0.01 0c-89.7,0 -163.1,-73.39 -163.1,-163.1l0 -562.26c0,-89.71 73.4,-163.11 163.1,-163.11z"/>
   <path class="fil0 str0" d="M1254.14 1702.32l60.72 0c32.37,0 58.85,26.48 58.85,58.84l0 0.01c0,32.36 -26.48,58.84 -58.85,58.84l-60.72 0c-32.37,0 -58.84,-26.48 -58.84,-58.84l0 -0.01c0,-32.36 26.47,-58.84 58.84,-58.84z"/>
   <path class="fil0 str0" d="M1963.58 1589.87l70.6 0c83.11,0 151.11,68 151.11,151.11l0 69.6c0,83.11 -68,151.1 -151.11,151.1l-70.6 0c-83.11,0 -151.1,-67.99 -151.1,-151.1l0 -69.6c0,-83.11 67.99,-151.11 151.1,-151.11z"/>
   <path class="fil0 str0" d="M2830.55 5355.67c149.58,0 272,-122.44 272,-272.02l226.61 0c8.31,0 15.11,-6.81 15.11,-15.11l0 -4125.74c0,-8.3 -6.8,-15.11 -15.11,-15.11l-226.62 0c0,-149.58 -122.41,-272.02 -271.99,-272.02l-1674.08 0c-149.59,0 -271.98,122.44 -271.98,272.02l-226.85 0c-8.31,0 -15.11,6.81 -15.11,15.11l0 739.48 206.56 0c16.62,0 30.22,13.6 30.22,30.22l0 1170.92c0,16.62 -13.6,30.22 -30.22,30.22l-206.56 0 0 2154.9c0,8.3 6.8,15.1 15.11,15.11l226.85 0.04c0,149.59 122.39,271.98 271.98,271.98l1674.08 0z"/>
  </g>
 </g>
</svg>
