<?xml version="1.0" encoding="UTF-8"?>
<!DOCTYPE svg PUBLIC "-//W3C//DTD SVG 1.1//EN" "http://www.w3.org/Graphics/SVG/1.1/DTD/svg11.dtd">
<!-- Creator: CorelDRAW X8 -->
<svg xmlns="http://www.w3.org/2000/svg" xml:space="preserve" width="40mm" height="60mm" version="1.1" style="shape-rendering:geometricPrecision; text-rendering:geometricPrecision; image-rendering:optimizeQuality; fill-rule:evenodd; clip-rule:evenodd"
viewBox="0 0 4000 6000"
 xmlns:xlink="http://www.w3.org/1999/xlink">
 <defs>
  <style type="text/css">
   <![CDATA[
    .str0 {stroke:black;stroke-width:7.62}
    .fil0 {fill:none}
   ]]>
  </style>
 </defs>
 <g id="图层_x0020_1">
  <metadata id="CorelCorpID_0Corel-Layer"/>
  <path class="fil0 str0" d="M-17689 3464c-40,3 -78,39 -83,112 0,263 212,475 475,475 262,0 475,-212 475,-475 0,-262 -213,-475 -475,-475 -263,0 -475,213 -475,475"/>
  <path class="fil0 str0" d="M-18863 3464c-40,3 -78,39 -84,112 0,263 213,475 475,475 263,0 475,-212 475,-475 0,-262 -212,-475 -475,-475 -262,0 -475,213 -475,475"/>
  <path class="fil0 str0" d="M-17159 2804c11,42 26,72 98,72l59 0c82,0 150,-67 150,-150l0 0c0,-82 -68,-150 -150,-150l-610 0c-83,0 -150,68 -150,150l0 0c0,83 67,150 150,150l551 0"/>
  <path class="fil0 str0" d="M-20061 3458c-43,3 -82,41 -88,118 0,276 224,500 500,500 276,0 500,-224 500,-500 0,-276 -224,-500 -500,-500 -276,0 -500,224 -500,500"/>
  <path class="fil0 str0" d="M-20320 4028l0 -1500c0,-110 90,-200 200,-200l3350 0c110,0 200,90 200,200l0 1500c0,110 -90,200 -200,200l-3350 0c-110,0 -200,-90 -200,-200z"/>
  <path class="fil0 str0" d="M-20415 4133l0 -1710c0,-121 99,-220 220,-220l3540 0c121,0 220,99 220,220l0 1710c0,121 -99,220 -220,220l-3540 0c-121,0 -220,-99 -220,-220z"/>
  <path class="fil0 str0" d="M-5033 5184l0 -6886c0,-415 -329,-755 -730,-755l-14540 0c-402,0 -730,340 -730,755l0 6090c0,415 328,755 730,755l14540 0c401,0 730,-340 730,-755 0,-415 255,-797 475,-797"/>
  <path class="fil0 str0" d="M944 5350l1921 0c118,0 215,-96 215,-214l0 -4272c0,-117 -97,-214 -215,-214l-1730 0c-118,0 -215,97 -215,214l0 4272c0,118 97,214 215,214l252 0m-207 -4518l503 0c35,0 64,29 64,64l0 1040c0,36 -29,65 -64,65l-503 0c-35,0 -64,-29 -64,-65l0 -1040c0,-35 29,-64 64,-64zm31 27l441 0c32,0 59,27 59,59l0 984c0,33 -27,59 -59,59l-441 0c-32,0 -59,-26 -59,-59l0 -984c0,-32 27,-59 59,-59zm168 77c-1,-13 -12,-25 -35,-26 -81,0 -147,65 -147,147 0,81 66,146 147,146 81,0 147,-65 147,-146 0,-82 -66,-147 -147,-147m227 878c-12,3 -21,8 -21,29l0 17c0,24 20,44 44,44l0 0c24,0 44,-20 44,-44l0 -179c0,-24 -20,-44 -44,-44l0 0c-24,0 -44,20 -44,44l0 162m-173 -529c-1,-12 -11,-23 -33,-25 -77,0 -140,62 -140,140 0,77 63,139 140,139 77,0 140,-62 140,-139 0,-78 -63,-140 -140,-140m33 369c-1,-11 -11,-22 -33,-24 -77,0 -140,62 -140,139 0,77 63,140 140,140 77,0 140,-63 140,-140 0,-77 -63,-139 -140,-139"/>
 </g>
</svg>
