<?xml version="1.0" encoding="UTF-8"?>
<!DOCTYPE svg PUBLIC "-//W3C//DTD SVG 1.1//EN" "http://www.w3.org/Graphics/SVG/1.1/DTD/svg11.dtd">
<!-- Creator: CorelDRAW 2020 (64-Bit) -->
<svg xmlns="http://www.w3.org/2000/svg" xml:space="preserve" width="40mm" height="60mm" version="1.1" style="shape-rendering:geometricPrecision; text-rendering:geometricPrecision; image-rendering:optimizeQuality; fill-rule:evenodd; clip-rule:evenodd"
viewBox="0 0 4000 6000"
 xmlns:xlink="http://www.w3.org/1999/xlink"
 xmlns:xodm="http://www.corel.com/coreldraw/odm/2003">
 <defs>
  <style type="text/css">
   <![CDATA[
    .str0 {stroke:black;stroke-width:20;stroke-miterlimit:22.9256}
    .fil0 {fill:none}
   ]]>
  </style>
 </defs>
 <g id="图层_x0020_1">
  <metadata id="CorelCorpID_0Corel-Layer"/>
  <path class="fil0 str0" d="M3306.93 3848.38c0,-14.06 -7.5,-27.05 -19.67,-34.08 -12.18,-7.03 -27.18,-7.03 -39.36,0 -12.17,7.03 -19.67,20.02 -19.67,34.08l0 381.56c0,14.06 7.5,27.05 19.67,34.08 12.18,7.03 27.18,7.03 39.36,0 12.17,-7.03 19.67,-20.02 19.67,-34.08l0 -381.56zm-83.55 -1600.37l0 243.53c0,15.79 8.42,30.39 22.1,38.28 13.67,7.9 30.53,7.9 44.2,0 13.68,-7.89 22.1,-22.49 22.1,-38.28l0 -243.53c0,-15.79 -8.42,-30.39 -22.1,-38.28 -13.67,-7.9 -30.53,-7.9 -44.2,0 -13.68,7.89 -22.1,22.49 -22.1,38.28zm0 -399.24l0 243.54c0,15.79 8.42,30.38 22.1,38.27 13.67,7.9 30.53,7.9 44.2,0 13.68,-7.89 22.1,-22.48 22.1,-38.27l0 -243.54c0,-15.79 -8.42,-30.38 -22.1,-38.28 -13.67,-7.9 -30.53,-7.9 -44.2,0 -13.68,7.9 -22.1,22.49 -22.1,38.28zm27.37 -173.81l33.65 0c4.92,0 9.64,-1.96 13.12,-5.44 3.47,-3.48 5.43,-8.18 5.42,-13.1l0 -130.89c0,-4.92 -1.96,-9.64 -5.44,-13.11 -3.48,-3.48 -8.18,-5.43 -13.1,-5.43l-33.65 0c-4.92,0.01 -9.63,1.96 -13.11,5.44 -3.47,3.48 -5.43,8.18 -5.42,13.1l0 130.89c0,4.92 1.96,9.64 5.44,13.12 3.48,3.47 8.17,5.42 13.09,5.42zm102.24 2904.03c3.78,0 7.41,-1.51 10.08,-4.19 2.68,-2.67 4.18,-6.28 4.18,-10.07l0 -3248.66c0,-3.78 -1.51,-7.41 -4.19,-10.08 -2.68,-2.68 -6.29,-4.18 -10.07,-4.18l-170.82 0c-3.78,0 -7.41,1.51 -10.08,4.19 -2.68,2.67 -4.18,6.29 -4.18,10.07l0 3248.66c0,3.79 1.51,7.41 4.19,10.09 2.68,2.67 6.29,4.17 10.07,4.17l170.82 0zm-2689.59 -3729.65l2598.47 0c3.79,-0.01 7.41,-1.51 10.09,-4.19 2.67,-2.67 4.17,-6.29 4.17,-10.07l0 -170.82c0,-3.78 -1.51,-7.41 -4.19,-10.09 -2.67,-2.67 -6.28,-4.17 -10.07,-4.17l-2598.47 0c-3.78,0.01 -7.41,1.51 -10.08,4.19 -2.68,2.68 -4.18,6.29 -4.18,10.07l0 170.82c0.01,3.78 1.51,7.41 4.19,10.08 2.67,2.68 6.29,4.18 10.07,4.18zm1026.53 385.48c51.19,0 92.68,-41.5 92.68,-92.68 0,-51.19 -41.49,-92.68 -92.68,-92.68 -51.19,0 -92.68,41.49 -92.68,92.68 0,51.18 41.49,92.68 92.68,92.68zm2.83 394.97c102.37,0 185.36,-82.99 185.36,-185.36 0,-102.38 -82.99,-185.36 -185.36,-185.36 -102.37,0 -185.36,82.98 -185.36,185.36 0,102.37 82.98,185.36 185.36,185.36zm131.75 59.15c16.53,0 29.94,-13.41 29.94,-29.95 0,-16.53 -13.41,-29.94 -29.94,-29.94 -16.54,0 -29.95,13.41 -29.95,29.94 0,16.54 13.41,29.95 29.95,29.95zm-131.95 150.85c49.61,0 89.83,-40.22 89.83,-89.83 0,-49.61 -40.22,-89.83 -89.83,-89.83 -49.61,0 -89.83,40.22 -89.83,89.83 0,49.61 40.22,89.83 89.83,89.83zm-383.34 -429.9c102.37,0 185.36,-82.98 185.36,-185.36 0,-102.37 -82.99,-185.36 -185.36,-185.36 -102.37,0 -185.36,82.99 -185.36,185.36 0,102.38 82.98,185.36 185.36,185.36zm2.85 439.74c102.37,0 185.36,-82.99 185.36,-185.36 0,-102.38 -82.99,-185.37 -185.36,-185.37 -102.37,0 -185.36,82.99 -185.36,185.37 0,102.37 82.99,185.36 185.36,185.36zm-214.02 -185.03c0,114.97 93.2,208.17 208.17,208.17l383.56 0c55.21,0 108.16,-21.93 147.2,-60.97 39.04,-39.04 60.97,-91.99 60.97,-147.2l0 -440.59c0,-55.21 -21.93,-108.16 -60.97,-147.2 -39.04,-39.04 -91.99,-60.98 -147.2,-60.98l-383.56 0c-55.21,0 -108.16,21.94 -147.2,60.98 -39.04,39.04 -60.97,91.99 -60.97,147.2l0 440.59zm587.24 -677.56c63.49,-0.04 124.39,25.14 169.32,70.01 44.92,44.87 70.18,106.04 70.22,169.53l0 441.42c0.04,63.49 -25.14,124.4 -70.01,169.32 -44.87,44.92 -106.04,70.18 -169.53,70.22l-374.57 0c-63.5,0.04 -124.4,-25.14 -169.32,-70.01 -44.93,-44.86 -70.19,-106.04 -70.23,-169.53l0 -441.42c-0.04,-63.49 25.15,-124.39 70.01,-169.32 44.87,-44.92 106.04,-70.18 169.54,-70.22l374.57 0zm-584.35 4038.41l1573.76 0c159.19,0 289.45,-130.25 289.45,-289.44l0 -3526.33c0,-159.2 -130.26,-289.45 -289.45,-289.45l-1385.07 0c-159.2,0 -289.45,130.25 -289.45,289.45l0 3526.33c0,159.19 130.25,289.44 289.45,289.44m177.08 221.81c-3.81,-14.18 -11.55,-25.44 -46.44,-25.44l-29.84 0c-15.68,0 -28.51,12.83 -28.51,28.51l0 0.01c0,15.64 12.83,28.51 28.51,28.51l258.52 0c15.69,0 28.51,-12.83 28.51,-28.51l0 -0.01c0,-15.68 -12.86,-28.51 -28.51,-28.51l-228.68 0m368.41 54.18c-14.17,0 -25.66,-11.5 -25.66,-25.67 0,-14.18 11.49,-25.67 25.66,-25.67 14.18,0 25.67,11.49 25.67,25.67 0,14.17 -11.49,25.67 -25.67,25.67zm100.53 3.56c-10.45,0 -20.1,-5.57 -25.32,-14.61 -5.22,-9.05 -5.22,-20.19 0,-29.23 5.22,-9.05 14.87,-14.62 25.32,-14.62l163.97 0c10.44,0 20.09,5.57 25.31,14.62 5.22,9.04 5.22,20.18 0,29.23 -5.22,9.04 -14.87,14.61 -25.31,14.61l-163.97 0zm264.49 -3.56c-14.17,0 -25.66,-11.5 -25.66,-25.67 0,-14.18 11.49,-25.67 25.66,-25.67 14.18,0 25.67,11.49 25.67,25.67 0,14.17 -11.49,25.67 -25.67,25.67zm218.07 -28.74c-3.8,-14.18 -11.55,-25.44 -46.43,-25.44l-29.84 0c-15.69,0 -28.52,12.83 -28.52,28.51l0 0.01c0,15.65 12.83,28.51 28.52,28.51l127.34 0c15.68,0 28.51,-12.83 28.51,-28.51l0 -0.01c0,-15.68 -12.86,-28.51 -28.51,-28.51l-97.5 0m945.09 128.18l-2598.47 0c-3.79,-0.01 -7.41,-1.51 -10.09,-4.19 -2.67,-2.68 -4.17,-6.29 -4.17,-10.07l0 -170.82c0,-3.78 1.51,-7.41 4.18,-10.08 2.68,-2.68 6.29,-4.18 10.08,-4.18l2598.47 0c3.78,0.01 7.41,1.51 10.08,4.19 2.68,2.67 4.18,6.29 4.18,10.07l0 170.82c-0.01,3.78 -1.51,7.41 -4.19,10.09 -2.68,2.67 -6.29,4.17 -10.07,4.17zm-2582.22 -3430.51l0 428.9c0,15.79 8.43,30.38 22.1,38.28 13.68,7.89 30.53,7.89 44.21,0 13.67,-7.9 22.1,-22.49 22.1,-38.28l0 -428.9c0,-15.79 -8.43,-30.38 -22.1,-38.28 -13.68,-7.89 -30.53,-7.89 -44.21,0 -13.67,7.9 -22.1,22.49 -22.1,38.28zm129.61 2623.28c3.79,0 7.42,-1.5 10.09,-4.18 2.68,-2.68 4.18,-6.29 4.17,-10.07l0 -3248.66c0,-3.79 -1.5,-7.42 -4.18,-10.09 -2.68,-2.68 -6.29,-4.18 -10.08,-4.17l-170.81 0c-3.79,0 -7.41,1.5 -10.09,4.18 -2.67,2.68 -4.17,6.29 -4.17,10.08l0 3248.66c0,3.78 1.51,7.41 4.18,10.08 2.68,2.67 6.29,4.17 10.08,4.17l170.81 0z"/>
 </g>
</svg>
