<?xml version="1.0" encoding="UTF-8"?>
<!DOCTYPE svg PUBLIC "-//W3C//DTD SVG 1.1//EN" "http://www.w3.org/Graphics/SVG/1.1/DTD/svg11.dtd">
<!-- Creator: CorelDRAW X8 -->
<svg xmlns="http://www.w3.org/2000/svg" xml:space="preserve" width="40mm" height="60mm" version="1.1" style="shape-rendering:geometricPrecision; text-rendering:geometricPrecision; image-rendering:optimizeQuality; fill-rule:evenodd; clip-rule:evenodd"
viewBox="0 0 4000 6000"
 xmlns:xlink="http://www.w3.org/1999/xlink">
 <defs>
  <style type="text/css">
   <![CDATA[
    .fil0 {fill:#332C2B;fill-rule:nonzero}
   ]]>
  </style>
 </defs>
 <g id="图层_x0020_1">
  <metadata id="CorelCorpID_0Corel-Layer"/>
  <g>
   <path class="fil0" d="M703 658c-3,-2 -4,-6 -2,-9 2,-3 7,-4 10,-2l-8 11zm133 11l0 14 0 0 -6 0 -5 0 -6 0 -5 0 -6 0 -5 0 -5 -1 -5 0 -5 0 -5 -1 -5 0 -4 -1 -5 0 -4 -1 -4 -1 -5 0 -4 -1 -4 -1 -4 -1 -3 -1 -4 -1 -4 -1 -3 -1 -4 -1 -3 -1 -3 -2 -3 -1 -3 -1 -3 -2 -3 -1 -2 -2 -3 -2 8 -11 2 1 2 2 3 1 2 1 3 1 2 2 3 1 3 1 3 1 3 1 4 1 3 1 4 1 3 0 4 1 4 1 4 1 4 0 4 1 4 0 5 1 4 0 5 1 5 0 5 0 5 1 5 0 5 0 5 0 6 0 5 0 6 0 0 0zm0 0c4,0 7,3 7,7 0,4 -3,7 -7,7l0 -14zm2253 9l0 14 0 0 -8 0 -20 0 -31 -1 -39 0 -49 0 -57 0 -65 -1 -72 0 -77 0 -83 -1 -88 0 -92 -1 -95 0 -97 0 -100 -1 -100 0 -101 -1 -101 0 -100 -1 -97 0 -96 0 -92 -1 -89 0 -84 0 -78 -1 -73 0 -65 0 -59 0 -50 0 -42 0 -31 0 -22 0 0 -14 22 0 31 0 42 0 50 0 59 0 65 0 73 0 79 1 83 0 89 0 92 1 96 0 97 0 100 1 101 0 101 1 100 0 100 1 97 0 95 0 92 1 88 0 83 1 77 0 72 0 65 1 57 0 49 0 40 0 30 1 20 0 8 0 0 0zm0 0c4,0 7,3 7,7 0,4 -3,7 -7,7l0 -14zm123 14l-2 14 0 0 -4 -1 -4 -1 -4 -1 -3 0 -4 -1 -4 -1 -4 0 -3 -1 -4 -1 -4 0 -4 -1 -3 0 -4 -1 -4 0 -4 -1 -3 0 -4 -1 -4 0 -4 -1 -3 0 -4 0 -4 -1 -4 0 -3 0 -4 -1 -4 0 -4 0 -4 0 -3 0 -4 0 -4 0 -4 0 0 -14 4 0 4 0 4 0 4 0 4 0 4 0 4 1 3 0 4 0 4 0 4 1 4 0 4 0 4 1 4 0 3 1 4 0 4 1 4 0 4 1 4 0 3 1 4 1 4 0 4 1 4 1 3 0 4 1 4 1 4 0 4 1 3 1 0 0zm0 0c4,1 7,4 6,8 -1,4 -5,6 -8,6l2 -14zm100 74l-13 5 0 0 -2 -3 -2 -4 -1 -3 -2 -3 -2 -3 -2 -3 -2 -3 -2 -3 -2 -2 -3 -3 -2 -2 -3 -3 -2 -2 -3 -2 -3 -2 -2 -3 -3 -1 -3 -2 -3 -2 -3 -2 -4 -1 -3 -2 -3 -1 -3 -2 -4 -1 -3 -1 -4 -2 -3 -1 -4 -1 -4 -1 -4 -1 -3 0 2 -14 5 1 4 1 3 1 4 1 4 1 4 1 4 2 4 1 3 2 4 1 4 2 3 2 4 2 3 2 3 2 4 2 3 2 3 3 3 2 3 3 3 3 2 2 3 3 3 3 2 4 3 3 2 3 2 4 2 3 2 4 2 4 2 4 0 0zm0 0c1,4 -1,8 -4,9 -4,2 -8,0 -9,-4l13 -5zm20 108l-14 1 0 0 0 -4 0 -3 0 -3 0 -4 0 -3 -1 -3 0 -4 0 -3 0 -3 -1 -4 0 -3 -1 -3 0 -3 -1 -4 0 -3 -1 -3 0 -4 -1 -3 -1 -3 -1 -3 0 -3 -1 -4 -1 -3 -1 -3 -1 -3 -1 -3 -1 -3 -1 -4 -1 -3 -1 -3 -1 -3 -1 -3 13 -5 1 3 1 3 1 4 1 3 1 3 2 3 1 4 1 3 0 3 1 4 1 3 1 4 1 3 1 3 0 4 1 3 1 4 0 3 1 3 0 4 1 3 0 4 0 3 1 4 0 3 0 4 1 3 0 4 0 3 0 4 0 3 0 4 0 -1zm0 1c0,3 -3,7 -7,7 -3,0 -7,-3 -7,-7l14 0zm-4 4342l-14 -1 0 0 0 -14 1 -38 0 -59 0 -79 0 -98 0 -115 0 -130 1 -144 0 -156 0 -167 0 -177 0 -184 1 -191 0 -196 0 -198 0 -201 0 -200 1 -200 0 -196 0 -192 0 -186 0 -179 0 -169 0 -160 0 -147 1 -133 0 -119 0 -102 0 -84 0 -64 -1 -43 0 -20 14 -1 0 21 0 43 1 64 0 84 0 102 0 119 -1 133 0 147 0 160 0 169 0 179 0 186 0 192 0 196 -1 200 0 200 0 201 0 198 0 196 -1 191 0 184 0 177 0 167 -1 156 0 144 0 130 0 115 0 98 0 79 -1 59 0 38 0 15 0 0zm0 0c0,3 -3,6 -7,6 -4,0 -7,-3 -7,-7l14 1zm-22 65l-11 -7 0 0 1 -2 1 -2 1 -1 1 -2 1 -2 1 -1 1 -2 0 -2 1 -2 1 -1 1 -2 1 -2 0 -2 1 -2 1 -1 0 -2 1 -2 1 -2 0 -2 1 -2 0 -1 1 -2 0 -2 0 -2 1 -2 0 -2 0 -2 1 -2 0 -2 0 -2 0 -2 0 -2 14 1 0 2 0 2 0 2 0 3 -1 2 0 2 0 2 -1 2 0 3 -1 2 0 2 -1 2 0 2 -1 2 -1 2 0 2 -1 2 -1 2 -1 2 0 3 -1 1 -1 2 -1 2 -1 2 -1 2 -1 2 -1 2 -1 2 -1 2 -1 2 -2 1 -1 2 0 0zm0 0c-2,4 -6,4 -9,2 -4,-2 -5,-6 -2,-9l11 7zm-72 50l-3 -13 0 0 2 -1 3 -1 3 -1 2 -1 3 -1 2 0 2 -1 3 -1 2 -1 2 -2 2 -1 3 -1 2 -1 2 -1 2 -1 2 -2 2 -1 2 -2 1 -1 2 -1 2 -2 2 -2 2 -1 1 -2 2 -2 2 -1 1 -2 2 -2 1 -2 2 -2 1 -2 2 -2 11 7 -1 3 -2 2 -2 2 -1 3 -2 2 -2 2 -2 2 -2 2 -2 2 -2 2 -2 2 -2 1 -2 2 -2 2 -2 1 -2 2 -3 1 -2 2 -2 1 -3 1 -2 2 -3 1 -2 1 -3 1 -2 2 -3 1 -3 1 -2 1 -3 1 -3 0 -3 1 -3 1 0 0zm0 0c-3,1 -7,-1 -8,-5 -1,-4 1,-7 5,-8l3 13zm-103 18l-1 -14 0 0 3 0 3 0 4 0 3 -1 3 0 3 0 3 0 3 -1 3 0 4 -1 3 0 3 0 3 -1 3 0 3 -1 3 -1 4 0 3 -1 3 0 3 -1 3 -1 3 0 3 -1 4 -1 3 -1 3 0 3 -1 3 -1 3 -1 3 -1 4 -1 3 0 3 13 -3 1 -3 1 -3 1 -3 1 -4 0 -3 1 -3 1 -3 1 -3 0 -4 1 -3 1 -3 1 -3 0 -4 1 -3 1 -3 0 -3 1 -4 0 -3 1 -3 0 -3 1 -4 0 -3 1 -3 0 -3 0 -4 1 -3 0 -3 0 -4 1 -3 0 -3 0 -3 0 0 0zm0 0c-4,0 -8,-3 -8,-7 0,-4 3,-7 7,-7l1 14zm-2342 0l2 -14 0 0 15 1 27 1 38 1 47 1 57 1 65 1 73 0 79 0 86 1 90 0 96 0 98 0 102 0 104 0 106 0 106 -1 106 0 105 0 103 -1 101 0 97 -1 94 0 88 -1 84 0 76 -1 70 0 62 0 53 -1 44 0 34 0 22 -1 11 0 1 14 -12 0 -22 1 -34 0 -44 0 -53 1 -62 0 -70 0 -76 1 -84 0 -88 1 -94 0 -97 1 -101 0 -103 1 -105 0 -106 0 -106 1 -106 0 -104 0 -102 0 -98 0 -96 0 -90 0 -86 -1 -79 0 -73 0 -65 -1 -57 -1 -47 -1 -38 -1 -28 -1 -16 -1 0 0zm0 0c-4,-1 -6,-5 -6,-8 1,-4 4,-7 8,-6l-2 14zm-105 -85l13 -4 0 0 1 4 2 4 1 4 2 4 2 4 2 4 2 3 2 3 2 4 3 3 2 2 3 3 3 3 2 2 3 3 3 2 3 2 4 2 3 2 3 2 4 2 3 2 4 1 3 2 4 1 4 1 4 1 4 1 4 1 4 1 4 1 4 1 -2 14 -4 -1 -5 -1 -4 -1 -5 -1 -4 -1 -4 -1 -4 -2 -5 -1 -4 -2 -4 -2 -4 -1 -3 -2 -4 -2 -4 -3 -4 -2 -3 -3 -3 -2 -4 -3 -3 -3 -3 -3 -3 -3 -3 -4 -3 -3 -2 -4 -3 -4 -2 -3 -2 -5 -3 -4 -1 -4 -2 -5 -2 -4 -1 -5 0 0zm0 0c-2,-4 1,-8 4,-9 4,-1 8,1 9,5l-13 4zm-13 -88l14 -1 0 0 0 3 0 3 0 2 1 3 0 3 0 2 0 3 1 3 0 2 0 3 0 3 1 2 0 3 0 3 0 2 1 3 0 3 1 2 0 3 0 3 1 2 0 3 1 3 0 2 1 3 0 2 1 3 0 3 1 2 1 3 0 2 1 3 -13 4 -1 -3 -1 -3 -1 -2 0 -3 -1 -3 -1 -3 0 -2 -1 -3 0 -3 -1 -3 0 -2 -1 -3 0 -3 0 -3 -1 -2 0 -3 0 -3 -1 -3 0 -2 0 -3 -1 -3 0 -3 0 -2 0 -3 -1 -3 0 -2 0 -3 0 -3 -1 -3 0 -2 0 -3 0 -3 0 0zm0 0c-1,-4 2,-7 6,-7 4,-1 7,2 8,6l-14 1zm-3 -4192l14 0 0 0 0 19 0 42 0 61 -1 81 0 98 0 115 0 129 0 142 1 154 0 164 0 172 0 180 0 186 0 190 0 192 0 194 0 194 0 192 1 189 0 184 0 179 0 170 0 162 0 151 1 139 0 125 0 111 0 94 0 76 0 57 1 36 0 13 -14 1 0 -14 -1 -36 0 -57 0 -76 0 -94 0 -111 0 -125 -1 -139 0 -151 0 -162 0 -170 0 -179 0 -184 -1 -189 0 -192 0 -194 0 -194 0 -192 0 -190 0 -186 0 -180 0 -172 0 -164 -1 -154 0 -142 0 -129 0 -115 0 -98 1 -81 0 -62 0 -41 0 -19 0 0zm0 0c0,-4 3,-7 7,-7 4,0 7,3 7,7l-14 0zm7 -195l14 2 0 0 -1 6 -1 6 -1 6 -1 6 0 6 -1 6 0 6 -1 6 0 6 0 6 -1 6 0 6 0 6 0 6 0 6 0 6 0 6 0 6 0 6 0 6 0 6 0 6 0 6 0 6 0 6 0 7 0 6 0 6 0 6 0 6 0 6 0 6 -14 0 0 -6 0 -6 0 -6 0 -6 0 -6 0 -6 0 -6 0 -6 0 -7 0 -6 0 -6 0 -6 0 -6 0 -6 0 -6 0 -6 0 -6 0 -6 0 -6 0 -7 0 -6 1 -6 0 -6 0 -6 1 -6 0 -6 1 -6 0 -7 1 -6 1 -6 1 -6 1 -6 0 0zm0 0c0,-4 4,-6 8,-6 4,1 6,4 6,8l-14 -2zm60 -100l8 12 0 0 -4 2 -3 2 -2 2 -3 3 -3 2 -2 2 -3 2 -2 3 -2 2 -3 3 -2 2 -2 3 -1 2 -2 3 -2 3 -2 3 -1 2 -2 3 -1 3 -1 3 -2 3 -1 3 -1 3 -1 4 -1 3 -1 3 -1 4 -1 3 0 3 -1 4 -1 4 0 3 -14 -2 0 -4 1 -4 1 -3 1 -4 1 -4 1 -3 1 -4 1 -4 1 -3 1 -4 1 -3 2 -3 1 -4 2 -3 1 -3 2 -3 2 -3 2 -3 2 -3 2 -3 2 -3 3 -3 2 -3 3 -3 2 -2 3 -3 3 -3 3 -2 3 -3 3 -2 4 -2 3 -3 0 0zm0 0c3,-2 8,-1 10,2 2,4 1,8 -2,10l-8 -12zm101 -21l0 14 0 0 -3 0 -3 0 -3 0 -3 0 -3 0 -3 0 -3 0 -3 1 -3 0 -3 0 -3 0 -3 0 -3 1 -3 0 -3 0 -3 1 -3 0 -3 1 -3 0 -3 1 -3 1 -3 1 -2 0 -3 1 -3 1 -3 2 -3 1 -2 1 -3 1 -3 2 -3 1 -2 2 -8 -12 3 -2 3 -1 3 -2 3 -2 4 -1 3 -1 3 -2 3 -1 3 -1 3 -1 4 -1 3 -1 3 0 3 -1 3 -1 4 0 3 -1 3 0 3 0 3 -1 4 0 3 0 3 0 3 0 3 -1 3 0 3 0 4 0 3 0 3 0 3 0 3 0 0 0zm0 0c4,0 7,3 7,7 0,4 -3,7 -7,7l0 -14zm126 -19l14 0 -1 2 0 3 -1 2 -2 3 -2 1 -2 2 -2 1 -2 2 -3 1 -2 1 -3 1 -4 1 -3 1 -4 1 -4 1 -4 1 -4 1 -5 1 -5 0 -5 1 -5 1 -6 0 -6 1 -6 1 -6 0 -7 1 -7 0 -7 1 -8 0 -7 0 -8 1 -9 0 0 -14 8 0 8 -1 8 0 7 0 7 -1 7 0 6 -1 7 0 6 -1 6 -1 5 0 5 -1 5 0 5 -1 4 -1 5 -1 3 0 4 -1 3 -1 3 -1 3 -1 2 -1 3 -1 1 -1 2 0 1 -1 1 -1 0 0 1 -1 0 0 0 0 0 0zm0 0c-1,-4 2,-7 6,-7 4,0 7,3 8,7l-14 0z"/>
  </g>
 </g>
</svg>
