<?xml version="1.0" encoding="UTF-8"?>
<!DOCTYPE svg PUBLIC "-//W3C//DTD SVG 1.1//EN" "http://www.w3.org/Graphics/SVG/1.1/DTD/svg11.dtd">
<!-- Creator: CorelDRAW 2020 (64-Bit) -->
<svg xmlns="http://www.w3.org/2000/svg" xml:space="preserve" width="40mm" height="60mm" version="1.1" style="shape-rendering:geometricPrecision; text-rendering:geometricPrecision; image-rendering:optimizeQuality; fill-rule:evenodd; clip-rule:evenodd"
viewBox="0 0 4000 6000"
 xmlns:xlink="http://www.w3.org/1999/xlink"
 xmlns:xodm="http://www.corel.com/coreldraw/odm/2003">
 <defs>
  <style type="text/css">
   <![CDATA[
    .str1 {stroke:#332C2B;stroke-width:20;stroke-miterlimit:22.9256}
    .str0 {stroke:#E72D28;stroke-width:20;stroke-miterlimit:22.9256}
    .fil0 {fill:none}
   ]]>
  </style>
   <clipPath id="id0">
    <rect x="-34581.13" y="-7010.33" width="12930.28" height="16908.83"/>
   </clipPath>
 </defs>
 <g id="图层_x0020_1">
  <metadata id="CorelCorpID_0Corel-Layer"/>
  <g style="clip-path:url(#id0)">
   <image x="-34581.13" y="-7010.33" width="12930.28" height="16908.83" xlink:href="Y21e -11i（前膜全屏）_Images\Y21e -11i（前膜全屏）_ImgID1.png"/>
  </g>
  <rect class="fil0 str0" x="-29639.48" y="-6763.4" width="7608" height="16426"/>
  <path class="fil0 str0" d="M-28615.49 -6631.11l1262.57 0c107.94,0 141.38,113.84 201.22,113.84l816.77 0c182.92,0 190.7,137.29 190.7,228.15 0,168.04 136.23,304.27 304.27,304.27 168.04,0 304.27,-136.23 304.27,-304.27 0,-90.86 -6.78,-226.82 194.67,-228.15l806.07 0c59.84,0 95.27,-113.84 176.75,-113.84l1302.74 0c467.49,0 850,382.52 850,850.01l0 14456.17c0,467.5 -382.51,850.01 -850,850.01l-5560.03 0c-467.49,0 -849.99,-382.51 -849.99,-850.01l0 -14456.17c0,-467.5 382.5,-850.01 849.99,-850.01z"/>
  <path class="fil0 str1" d="M-2926.4 5829.33l0 -6157.99c0,-467.48 -382.52,-850 -850.01,-850l-14456.17 0c-467.49,0 -850.01,382.51 -850.01,850l0 1302.74c0,81.48 113.84,116.91 113.84,176.75l0 806.07c1.33,201.45 137.29,194.67 228.15,194.67 168.04,0 304.27,136.23 304.27,304.27 0,168.04 -136.23,304.27 -304.27,304.27 -90.86,0 -228.15,7.78 -228.15,190.7l0 816.77c0,59.84 -113.84,93.28 -113.84,201.22l0 1262.57c0,467.49 382.51,849.99 850.01,849.99l14456.17 0c467.5,0 850.01,-382.5 850.01,-849.99 0,-467.49 62.11,-741.79 181.17,-887.31"/>
  <path class="fil0 str1" d="M1021.61 5303.55l1771.55 0c134.49,0 244.54,-110.04 244.54,-244.53l0 -4158.82c0,-134.48 -110.05,-244.53 -244.54,-244.53l-374.77 0c-23.44,0 -33.64,32.75 -50.85,32.75l-231.89 0c-57.96,0.38 -56.01,39.5 -56.01,65.64 0,48.34 -39.19,87.53 -87.53,87.53 -48.34,0 -87.54,-39.19 -87.54,-87.53 0,-26.14 -2.23,-65.64 -54.86,-65.64l-234.97 0c-17.21,0 -26.83,-32.75 -57.89,-32.75l-363.22 0c-134.49,0 -244.53,110.04 -244.53,244.53l0 4158.82c0,134.49 110.04,244.53 244.53,244.53 134.49,0 213.4,17.87 255.27,52.12"/>
 </g>
</svg>
