<?xml version="1.0" encoding="UTF-8"?>
<!DOCTYPE svg PUBLIC "-//W3C//DTD SVG 1.1//EN" "http://www.w3.org/Graphics/SVG/1.1/DTD/svg11.dtd">
<!-- Creator: CorelDRAW X8 -->
<svg xmlns="http://www.w3.org/2000/svg" xml:space="preserve" width="40mm" height="60mm" version="1.1" style="shape-rendering:geometricPrecision; text-rendering:geometricPrecision; image-rendering:optimizeQuality; fill-rule:evenodd; clip-rule:evenodd"
viewBox="0 0 4000 6000"
 xmlns:xlink="http://www.w3.org/1999/xlink">
 <defs>
  <style type="text/css">
   <![CDATA[
    .str0 {stroke:#332C2B;stroke-width:19.4}
    .str1 {stroke:#332C2B;stroke-width:20}
    .fil0 {fill:none}
   ]]>
  </style>
 </defs>
 <g id="图层_x0020_1">
  <metadata id="CorelCorpID_0Corel-Layer"/>
  <g id="_1667518322816">
   <line class="fil0 str0" x1="2877" y1="5349" x2="1098" y2= "5349" />
   <path class="fil0 str0" d="M1098 5349c-125,-6 -230,-117 -231,-245"/>
   <line class="fil0 str0" x1="867" y1="5104" x2="857" y2= "917" />
   <path class="fil0 str0" d="M857 917c6,-100 50,-183 119,-225 47,-29 88,-42 133,-42"/>
   <line class="fil0 str0" x1="1109" y1="650" x2="2916" y2= "650" />
   <path class="fil0 str0" d="M2916 650c50,4 116,36 153,73 41,42 72,109 74,158"/>
   <line class="fil0 str0" x1="3143" y1="881" x2="3141" y2= "5127" />
   <path class="fil0 str0" d="M3141 5127c0,30 -27,95 -55,129 -51,64 -113,90 -215,93 -5,1 -9,1 -13,1"/>
   <path class="fil0 str1" d="M1820 754l364 0c34,0 62,28 62,62l0 0c0,34 -28,62 -62,62l-364 0c-34,0 -62,-28 -62,-62l0 0c0,-34 28,-62 62,-62z"/>
  </g>
 </g>
</svg>
