<?xml version="1.0" encoding="UTF-8"?>
<!DOCTYPE svg PUBLIC "-//W3C//DTD SVG 1.1//EN" "http://www.w3.org/Graphics/SVG/1.1/DTD/svg11.dtd">
<!-- Creator: CorelDRAW X8 -->
<svg xmlns="http://www.w3.org/2000/svg" xml:space="preserve" width="40mm" height="60mm" version="1.1" style="shape-rendering:geometricPrecision; text-rendering:geometricPrecision; image-rendering:optimizeQuality; fill-rule:evenodd; clip-rule:evenodd"
viewBox="0 0 4000 6000"
 xmlns:xlink="http://www.w3.org/1999/xlink">
 <defs>
  <style type="text/css">
   <![CDATA[
    .str0 {stroke:#332C2B;stroke-width:19.4}
    .fil0 {fill:none;fill-rule:nonzero}
   ]]>
  </style>
 </defs>
 <g id="图层_x0020_1">
  <metadata id="CorelCorpID_0Corel-Layer"/>
  <path class="fil0 str0" d="M3685 650l0 39m-1486 4250l-12 -1m0 0c2,7 6,12 12,13m0 0l0 143m0 0c-1,120 9,152 62,197 5,4 8,7 14,14 26,27 26,27 453,31m0 0l509 4m0 0c179,1 239,0 284,-5 44,-6 65,-15 100,-43 52,-42 66,-83 66,-195 0,-103 -12,-141 -57,-185 -38,-37 -69,-48 -135,-48m0 0l-1163 4m0 0c-48,9 -100,54 -119,102 -8,19 -10,29 -14,67 -1,10 -3,16 -4,23 -6,21 -13,32 -39,63m1492 -84l-7 9 1 0 0 1m0 0c1,0 2,1 5,1 -9,68 -59,114 -124,114 -70,0 -126,-56 -126,-126 0,-70 56,-126 126,-126 69,0 125,56 125,124 0,9 -1,17 -4,39m-407 -36c-7,75 -57,125 -126,125 -70,0 -126,-56 -126,-125 0,-70 56,-126 126,-126 69,0 125,55 125,124 0,9 -1,17 -3,38m-377 -36c-7,76 -57,125 -126,125 -70,0 -126,-56 -126,-125 0,-70 56,-126 126,-126 69,0 125,55 125,124 0,9 -1,17 -3,38m-350 -36l-1 11 -2 0 3 0m0 0c-9,68 -59,114 -125,114 -69,0 -125,-56 -125,-126 0,-70 55,-126 125,-126 71,0 126,56 125,127 0,9 0,11 -2,36m232 219l0 11m0 0c-6,-1 -9,-4 -12,-11 -14,1 -26,1 -34,1 -50,0 -65,-12 -65,-48 0,-22 5,-33 19,-39 14,-6 37,-8 88,-8 54,0 79,2 93,8 15,6 20,16 20,38 0,39 -15,49 -74,49 -21,0 -40,0 -70,-2m-2342 -1611l-12 -1m0 0c2,7 6,11 12,13m0 0l0 140m0 0c-1,126 12,163 74,209 25,19 53,30 78,32m0 0l927 7m0 0c237,2 257,1 303,-20 38,-17 75,-55 91,-92 12,-29 15,-50 15,-130 0,-123 -19,-167 -88,-209 -32,-20 -50,-24 -103,-23m0 0l-1164 3m0 0c-72,15 -121,77 -133,169 -1,10 -2,17 -4,23 -6,22 -11,31 -38,63m1492 -84l-7 9 1 0 0 1m0 0c1,0 3,0 5,1 -8,68 -59,114 -125,114 -69,0 -125,-56 -125,-125 0,-70 56,-126 125,-126 71,0 128,57 126,126 0,9 -1,16 -4,37m-408 -37l-1 11 -2 0 3 0m0 0c-9,68 -59,114 -125,114 -70,0 -125,-56 -125,-125 0,-70 55,-126 125,-126 71,0 126,55 125,126 0,9 -1,17 -2,37m-378 -37l0 11 -3 0 2 0m0 0c-10,69 -59,114 -125,114 -70,0 -126,-56 -126,-125 0,-70 56,-126 126,-126 70,0 125,55 125,123 0,10 0,14 -3,40m-350 -37l-1 11 -2 0 3 0m0 0c-9,68 -59,114 -125,114 -70,0 -126,-56 -125,-125 0,-70 55,-126 125,-126 71,0 126,56 125,126 0,9 -1,23 -2,37m232 218l0 11m0 0c-6,-1 -9,-4 -12,-11 -15,0 -26,1 -35,1 -49,0 -64,-11 -64,-47 0,-23 5,-33 19,-39 14,-6 37,-8 90,-8 54,0 77,2 92,8 14,6 19,16 19,40 0,35 -16,46 -72,46m0 0l-72 -1m1345 -355l-12 -1m0 0c2,7 6,11 12,13m0 0l0 146m0 0c-1,124 12,158 73,203 25,19 53,30 78,32m0 0l927 7m0 0c237,2 257,1 304,-20 37,-17 74,-54 90,-92 13,-30 16,-54 16,-130 0,-120 -20,-167 -89,-209m0 0l-12 -8m0 0c-22,-15 -22,-15 -201,-15m0 0l-1053 3m0 0c-48,10 -99,54 -119,103 -8,19 -10,28 -14,66 -1,10 -3,16 -4,23 -6,21 -12,31 -39,63m1492 -84l-7 9 1 0 0 1m0 0c1,0 3,1 5,1 -8,68 -59,114 -124,114 -70,0 -126,-56 -126,-126 0,-69 56,-125 126,-125 69,0 125,55 125,123 0,9 -1,17 -4,40m-407 -37c-7,76 -56,125 -126,125 -70,0 -126,-56 -126,-125 0,-70 56,-125 126,-125 69,0 125,55 125,123 0,9 -1,17 -3,39m-377 -37c-5,74 -57,126 -126,126 -70,-1 -126,-56 -126,-126 0,-70 56,-125 126,-125 70,0 126,56 125,126 0,8 -1,15 -3,36m-350 -37l-1 11 -2 0 3 0m0 0c-9,68 -59,114 -125,114 -70,0 -125,-56 -125,-125 0,-70 55,-126 125,-126 71,0 126,55 125,126 0,8 -1,20 -2,37m232 218l0 11m0 0c-6,-1 -9,-4 -12,-11m0 0l-34 0m0 0c-50,0 -65,-10 -65,-46 0,-23 5,-33 19,-39 14,-6 37,-8 88,-8 57,0 80,2 94,8 14,6 19,16 19,41 0,36 -16,45 -77,45 -17,0 -40,0 -67,-1m-2342 -2053l-12 -1m0 0c2,6 6,10 12,12m0 0l0 204m0 0c3,70 32,120 91,156 4,2 6,4 10,7 17,14 17,14 434,17m0 0l521 5m0 0c181,1 237,0 281,-7 43,-7 63,-18 98,-52 43,-42 53,-76 53,-184 0,-109 -12,-145 -61,-189 -27,-25 -60,-41 -92,-43m0 0l-1201 3m0 0c-48,9 -99,54 -119,102 -8,19 -10,29 -15,67 -1,10 -2,17 -4,23 -6,22 -12,32 -38,63m1492 -84l-7 9 1 0 0 1m0 0c1,0 2,0 5,1 -9,68 -59,114 -125,114 -69,0 -125,-57 -125,-126 0,-69 56,-126 125,-126 71,0 128,58 126,127 0,9 -1,16 -4,36m-408 -36l-1 11 -2 0 3 0m0 0c-9,68 -60,114 -125,114 -69,-1 -125,-56 -125,-126 0,-70 55,-126 125,-126 71,0 126,56 125,127 0,9 0,11 -2,36m-378 -36l0 11 -3 0 2 0m0 0c-9,68 -60,113 -125,113 -69,1 -126,-56 -126,-125 0,-69 56,-126 126,-126 69,0 125,56 125,124 0,9 -1,17 -3,39m-350 -36l-1 11 -2 0 3 0m0 0c-9,68 -60,114 -125,114 -69,-1 -126,-56 -126,-126 1,-70 56,-126 126,-126 70,0 126,56 125,127 0,8 -1,23 -2,36m232 219l0 11 -2 0m0 0c-3,0 -3,0 -7,-7m0 0l-3 -4m0 0c-15,1 -26,1 -35,1 -49,0 -64,-12 -64,-48 0,-39 20,-47 109,-47 54,0 77,2 92,8 14,7 19,17 19,40 0,36 -17,47 -73,47 -24,0 -47,0 -71,-1m1345 -354l-12 -1m0 0c2,7 6,10 12,12m0 0l0 147m0 0c-1,117 9,148 61,193m0 0l9 7m0 0c41,36 41,36 405,39m0 0l74 1m0 0c249,3 186,2 435,3 203,1 273,-1 322,-5 50,-5 72,-12 102,-34 64,-45 80,-86 80,-204 0,-104 -12,-142 -57,-186 -38,-37 -69,-48 -135,-48m0 0l-1163 4m0 0c-48,9 -100,54 -119,102 -8,19 -10,29 -14,67 -1,10 -3,16 -4,23 -6,21 -12,32 -39,63m1492 -84l-7 9 1 0 0 1m0 0c1,0 2,0 5,1 -9,68 -59,113 -124,113 -70,0 -126,-56 -126,-125 0,-70 56,-126 126,-126 69,0 125,56 125,124 0,9 -1,17 -4,39m-407 -36c-7,75 -57,125 -126,125 -70,0 -126,-56 -126,-125 0,-70 56,-126 126,-126 69,0 125,55 125,124 0,9 -1,18 -3,38m-377 -36c-7,75 -57,125 -126,125 -70,0 -126,-56 -126,-125 0,-70 56,-126 126,-126 69,0 125,55 125,124 0,9 -1,17 -3,38m-350 -36l-1 11 -2 0 3 0m0 0c-9,68 -59,114 -125,114 -69,-1 -125,-56 -125,-126 0,-70 55,-126 125,-126 71,0 126,56 125,127 0,9 0,11 -2,36m232 219l0 11m0 0c-6,-1 -9,-4 -12,-11 -14,0 -26,1 -34,1 -50,0 -65,-12 -65,-48 0,-22 5,-32 19,-39 14,-6 37,-8 88,-8 56,0 80,2 94,8 14,6 19,17 19,41 0,36 -17,46 -72,46 -41,0 -31,0 -72,-1m-2342 -1612l-12 0m0 0c3,7 6,10 12,12m0 0l0 140m0 0c-1,126 12,163 74,209 25,19 53,30 78,32 52,4 579,9 925,9 168,0 222,-2 263,-9 41,-7 61,-17 95,-51 43,-41 53,-75 53,-184 0,-108 -12,-144 -60,-189 -38,-34 -67,-43 -131,-43m0 0l-1106 3 -40 -1m0 0c-69,0 -136,69 -148,151m0 0l-1 4m0 0c-4,30 -4,30 -6,37m0 0l0 1m0 0c-5,20 -19,44 -38,63m1492 -84l-7 9 1 0 0 1m0 0c1,0 2,0 5,1 -8,69 -58,114 -125,114 -69,0 -125,-56 -125,-125 0,-70 56,-126 125,-126 70,0 126,56 126,124 0,9 -1,17 -4,39m-408 -37l-1 11 -2 0 3 0m0 0c-9,69 -59,114 -125,114 -70,0 -125,-55 -125,-125 0,-70 55,-126 125,-126 71,0 126,56 125,126 0,9 0,11 -2,37m-378 -37l0 11 -3 0 2 0m0 0c-9,69 -59,114 -125,114 -70,0 -126,-56 -126,-125 0,-70 56,-126 126,-126 69,0 125,55 125,123 0,10 -1,18 -3,40m-350 -37l-1 11 -2 0 3 0m0 0c-9,68 -59,114 -125,114 -70,0 -126,-55 -126,-125 1,-70 56,-126 126,-126 70,0 126,56 125,126 0,9 0,16 -2,37m232 218l0 11m0 0c-5,0 -9,-4 -12,-11 -15,0 -26,1 -35,1 -49,0 -64,-11 -64,-48 0,-22 5,-32 19,-38 14,-6 37,-8 90,-8 54,0 77,2 92,8 14,6 19,17 19,40 0,35 -16,46 -72,46m0 0l-72 -1m1345 -355l-12 0m0 0c3,7 6,10 12,12m0 0l0 146m0 0c-1,124 12,158 73,203 25,19 53,30 78,32 41,3 663,9 907,9 175,0 234,-1 277,-8 44,-7 65,-18 99,-52 43,-41 54,-79 54,-184 0,-105 -13,-145 -62,-189 -37,-34 -66,-43 -130,-43m0 0l-1163 3m0 0c-48,10 -99,54 -119,103 -8,19 -10,28 -14,66 -1,10 -3,17 -4,23 -6,20 -21,44 -39,63m1492 -84l-7 9 1 0 0 1m0 0c1,0 2,0 5,1 -8,68 -58,114 -124,114 -70,0 -126,-55 -126,-125 0,-70 56,-126 126,-126 69,0 125,56 125,123 0,10 -1,17 -4,40m-407 -37c-6,76 -56,125 -126,125 -70,0 -126,-55 -126,-125 0,-70 56,-125 126,-125 69,0 125,55 125,123 0,9 -1,18 -3,39m-377 -37c-6,41 -8,49 -22,70 -23,35 -62,56 -104,56 -70,0 -126,-56 -126,-126 0,-70 56,-125 126,-125 69,0 125,55 125,123 0,9 -1,17 -3,39m-350 -37l-1 11 -2 0 3 0m0 0c-9,69 -59,114 -125,114 -70,0 -125,-55 -125,-125 0,-70 55,-126 125,-126 71,0 126,56 125,126 0,9 0,11 -2,37m232 218l0 11m0 0c-6,-1 -10,-5 -12,-11 -20,0 -15,0 -34,0 -50,1 -65,-10 -65,-46 0,-23 5,-33 19,-39 14,-6 37,-8 88,-8 57,0 80,2 94,8 14,6 19,17 19,41 0,35 -16,45 -72,45 -41,0 -31,0 -72,-1m-2342 3869l-12 -1m0 0c2,7 6,10 12,13m0 0l0 139m0 0c-1,127 12,164 74,210 25,18 53,29 78,31m0 0l927 7m0 0c237,2 257,1 303,-20 38,-17 75,-54 91,-91 12,-30 15,-51 15,-130 0,-123 -19,-167 -88,-210 -32,-19 -50,-23 -103,-23m0 0l-1164 4m0 0c-72,14 -121,76 -133,169 -1,10 -2,16 -4,22 -6,22 -11,31 -38,63m1492 -83l-7 9 1 0 0 1m0 0c1,0 3,0 5,1 -8,68 -59,114 -125,114 -69,0 -125,-57 -125,-126 0,-70 56,-125 125,-125 71,0 128,56 126,126 0,9 -1,15 -4,36m-408 -36l-1 11 -2 0 3 0m0 0c-9,68 -59,114 -125,114 -70,0 -125,-56 -125,-126 0,-70 55,-125 125,-125 71,0 126,55 125,126 0,8 -1,16 -2,36m-378 -36l0 11 -3 0 2 0m0 0c-10,68 -59,114 -125,114 -70,0 -126,-56 -126,-126 0,-70 56,-125 126,-125 70,0 125,54 125,123 0,9 0,13 -3,39m-350 -36l-1 11 -2 0 3 0m0 0c-9,67 -59,114 -125,114 -70,0 -126,-56 -125,-126 0,-70 55,-125 125,-125 71,0 126,55 125,126 0,8 -1,23 -2,36m232 219l0 10m0 0c-6,0 -9,-4 -12,-10 -15,0 -26,0 -35,0 -49,0 -64,-11 -64,-47 0,-23 5,-33 19,-39 14,-6 37,-8 90,-8 54,0 77,2 92,8 14,7 19,17 19,40 0,36 -16,46 -72,46m0 0l-72 0"/>
 </g>
</svg>
