<?xml version="1.0" encoding="UTF-8"?>
<!DOCTYPE svg PUBLIC "-//W3C//DTD SVG 1.1//EN" "http://www.w3.org/Graphics/SVG/1.1/DTD/svg11.dtd">
<!-- Creator: CorelDRAW X8 -->
<svg xmlns="http://www.w3.org/2000/svg" xml:space="preserve" width="40mm" height="60mm" version="1.1" style="shape-rendering:geometricPrecision; text-rendering:geometricPrecision; image-rendering:optimizeQuality; fill-rule:evenodd; clip-rule:evenodd"
viewBox="0 0 4000 6000"
 xmlns:xlink="http://www.w3.org/1999/xlink">
 <defs>
  <style type="text/css">
   <![CDATA[
    .fil0 {fill:black;fill-rule:nonzero}
   ]]>
  </style>
 </defs>
 <g id="图层_x0020_1">
  <metadata id="CorelCorpID_0Corel-Layer"/>
  <g>
   <path class="fil0" d="M1118 675l20 0 0 0 0 2 0 1 -1 1 0 2 0 1 0 2 0 1 0 1 0 2 -1 1 0 1 0 1 0 1 0 2 -1 1 0 1 0 1 -1 1 0 1 0 1 -1 1 0 1 -1 1 0 1 -1 1 0 1 -1 1 0 1 -1 1 -1 1 -1 0 0 1 -14 -14 0 -1 0 0 0 0 0 0 1 0 0 0 0 -1 0 0 0 0 0 -1 1 0 0 -1 0 0 0 -1 0 -1 1 0 0 -1 0 -1 0 -1 0 -1 1 0 0 -1 0 -1 0 -1 0 -1 0 -1 0 -2 0 -1 0 -1 1 -1 0 -1 0 -2 0 1zm20 0l0 0 0 0 0 0zm7 -26l0 20 0 0 -2 0 -1 0 -1 0 -1 0 -1 0 -1 1 0 0 -1 0 0 0 -1 0 0 0 0 0 0 0 1 0 0 -1 0 0 0 0 1 -1 0 0 0 0 0 0 0 0 0 0 0 0 0 1 0 0 0 1 0 1 0 1 0 1 0 1 0 1 -20 0 0 -2 0 -1 0 -1 0 -1 0 -1 0 -2 0 -1 0 -1 0 -1 1 -1 0 -2 1 -1 0 -1 1 -2 1 -1 1 -1 1 -1 2 -1 1 -1 1 -1 2 0 1 0 1 -1 2 0 1 0 1 0 2 -1 1 0 1 0 2 0 1 0 2 0 0 0zm1734 -2l1 20 0 0 -49 1 -50 0 -51 0 -52 0 -52 0 -53 0 -54 0 -55 0 -55 0 -56 1 -56 0 -56 0 -57 0 -57 0 -57 0 -57 0 -57 0 -57 0 -57 0 -57 1 -56 0 -56 0 -56 0 -55 0 -55 0 -54 0 -54 0 -52 0 -52 0 -51 -1 -50 0 -49 0 0 -20 49 0 50 0 51 1 52 0 52 0 54 0 54 0 55 0 55 0 56 0 56 0 56 0 57 -1 57 0 57 0 57 0 57 0 57 0 57 0 57 0 56 0 56 0 56 -1 55 0 55 0 54 0 53 0 52 0 52 0 51 0 50 0 48 -1 0 0zm29 28l-20 0 0 0 0 -2 0 -1 0 -1 0 -1 0 -1 -1 -1 0 -1 0 0 0 0 0 -1 0 0 0 0 0 1 0 0 1 0 0 0 0 1 1 0 0 0 0 0 0 0 0 0 -1 0 0 0 -1 0 -1 0 -1 -1 -1 0 -1 0 -1 0 -1 0 -1 0 -1 -20 2 0 1 0 2 0 1 0 1 0 2 1 1 0 1 0 1 0 2 0 1 1 1 0 2 0 1 1 2 1 1 1 1 1 1 1 1 2 1 1 1 2 0 1 1 1 0 2 0 1 0 2 0 1 1 1 0 2 0 2 0 1 0 2 0 0zm-14 4662l-20 0 0 0 0 -117 1 -122 1 -129 1 -134 0 -139 1 -143 1 -147 0 -150 1 -154 1 -157 0 -159 1 -160 0 -162 1 -163 0 -164 1 -164 0 -164 1 -163 0 -162 0 -160 1 -158 0 -156 0 -153 1 -150 0 -147 0 -142 0 -137 1 -133 0 -128 0 -121 0 -115 0 -109 20 0 0 109 0 115 0 121 0 128 -1 133 0 137 0 142 0 147 -1 150 0 153 0 156 -1 158 0 160 0 162 -1 163 0 164 -1 164 0 164 -1 163 0 162 -1 161 0 158 -1 157 -1 154 0 150 -1 147 -1 144 0 138 -1 134 -1 129 -1 123 0 116 0 0zm-24 23l0 -20 0 0 1 0 1 0 1 0 0 0 1 0 0 0 1 0 0 0 0 0 0 0 0 0 0 0 0 0 0 0 0 0 -1 1 0 0 0 0 0 0 -1 1 0 0 0 0 0 0 0 0 0 0 0 -1 0 0 0 -1 1 0 0 -1 0 -1 0 -1 20 0 0 2 0 1 -1 1 0 1 0 1 0 2 0 1 0 1 -1 1 0 1 -1 2 0 1 -1 1 -1 1 -1 1 -1 1 -1 1 -1 1 -2 0 -1 1 -1 0 -1 0 -1 1 -1 0 -1 0 -1 0 -1 0 -1 0 -1 0 -1 0 -1 0 -1 0 0 0zm0 0l0 0 0 0 0 0zm-1752 -14l0 -20 0 0 42 0 44 0 46 0 47 1 49 0 51 0 52 0 53 0 55 0 55 0 57 1 57 0 58 0 59 0 59 1 59 0 60 0 60 1 60 0 60 0 60 1 59 1 59 0 58 1 58 0 57 1 56 1 55 1 54 1 52 1 52 1 49 1 0 20 -50 -1 -51 -1 -53 -1 -53 -1 -55 -1 -56 -1 -57 -1 -58 0 -58 -1 -59 0 -60 -1 -59 -1 -60 0 -60 0 -60 -1 -60 0 -59 0 -59 -1 -59 0 -58 0 -57 0 -57 -1 -56 0 -54 0 -53 0 -52 0 -51 0 -49 0 -47 -1 -46 0 -44 0 -42 0 0 0zm-26 -26l20 0 0 0 0 2 0 1 0 1 0 1 0 1 0 0 0 1 0 1 0 0 1 0 0 0 -1 0 0 0 0 -1 0 0 -1 -1 0 0 0 0 -1 0 0 0 0 0 0 0 0 0 1 0 0 0 1 0 1 0 1 0 1 0 1 0 1 0 1 0 0 20 -1 0 -2 0 -1 0 -1 0 -1 0 -2 0 -1 0 -1 -1 -1 0 -2 0 -1 0 -1 -1 -2 -1 -1 0 -1 -1 -2 -1 -1 -2 -1 -1 0 -1 -1 -2 -1 -1 0 -1 0 -2 0 -1 -1 -1 0 -1 0 -1 0 -1 0 -2 0 -1 0 -1 0 -2 0 0zm26 -4645l20 -1 0 1 -1 124 -1 129 0 134 -1 138 -1 143 -1 146 -1 149 0 152 -1 154 -1 157 -1 158 -1 160 -1 161 -1 161 -1 161 0 162 -1 161 -1 160 -1 158 -1 158 -1 155 -1 152 -1 150 0 147 -1 143 -1 139 -1 135 0 131 -1 125 -1 120 0 114 -1 108 -20 0 1 -108 0 -114 1 -120 1 -125 0 -131 1 -135 1 -139 1 -143 0 -147 1 -150 1 -153 1 -155 1 -157 1 -158 1 -160 1 -161 0 -162 1 -161 1 -162 1 -160 1 -160 1 -158 1 -157 1 -154 0 -152 1 -150 1 -145 1 -143 1 -138 0 -134 1 -129 1 -124 0 0zm20 -1l0 1 0 0 0 -1zm-21 -16l10 -16 1 0 1 1 1 1 1 1 1 1 0 0 1 1 0 1 0 1 1 1 0 1 1 1 0 1 0 1 0 1 1 1 0 0 0 1 0 2 0 1 1 1 0 1 0 1 0 1 0 1 0 2 0 1 0 1 1 1 0 2 0 1 0 1 -20 1 0 -1 0 -1 0 -2 -1 -1 0 -1 0 -1 0 -1 0 -1 0 -1 0 -1 0 0 0 -1 0 -1 -1 -1 0 0 0 -1 0 -1 0 0 0 0 0 -1 0 0 -1 0 0 -1 0 0 0 0 0 0 0 0 0 0 1 1 0 0 0 0 1 0z"/>
  </g>
 </g>
</svg>
