<?xml version="1.0" encoding="UTF-8"?>
<!DOCTYPE svg PUBLIC "-//W3C//DTD SVG 1.1//EN" "http://www.w3.org/Graphics/SVG/1.1/DTD/svg11.dtd">
<!-- Creator: CorelDRAW 2020 (64-Bit) -->
<svg xmlns="http://www.w3.org/2000/svg" xml:space="preserve" width="40mm" height="60mm" version="1.1" style="shape-rendering:geometricPrecision; text-rendering:geometricPrecision; image-rendering:optimizeQuality; fill-rule:evenodd; clip-rule:evenodd"
viewBox="0 0 4000 6000"
 xmlns:xlink="http://www.w3.org/1999/xlink"
 xmlns:xodm="http://www.corel.com/coreldraw/odm/2003">
 <defs>
  <style type="text/css">
   <![CDATA[
    .str0 {stroke:black;stroke-width:7.62;stroke-miterlimit:22.9256}
    .fil0 {fill:none;fill-rule:nonzero}
   ]]>
  </style>
 </defs>
 <g id="图层_x0020_1">
  <metadata id="CorelCorpID_0Corel-Layer"/>
  <path class="fil0 str0" d="M-4955.19 5119.83l0 -5538.79c0,-311.87 -256.03,-565.59 -570.74,-565.59l-6704.34 0 -1027.67 9.86 -6783.9 0c-314.72,0 -570.75,253.69 -570.75,565.55l0 5229.01c0,311.87 256.03,565.58 570.75,565.58l6783.8 0 1027.67 -9.86 6704.44 0c314.71,0 570.74,-253.69 570.74,-565.55 0,-311.86 30.73,-409.14 59.95,-473.08"/>
  <path class="fil0 str0" d="M-20257.98 2262.97c-62.84,76.06 -261.71,60.1 -261.71,-62.52 0,-122.62 99.38,-222 222.01,-222 122.59,0 221.96,99.38 221.96,222 0,122.59 -99.37,221.97 -221.96,221.97 -122.63,0 -222.01,-99.38 -222.01,-221.97"/>
  <g id="_2343416982032">
   <path class="fil0 str0" d="M1106.14 5332.9l1684.54 0c94.13,0 170.72,-76.58 170.72,-170.7l0 -2005.17 -2.98 -307.36 0 -2028.97c0,-94.12 -76.57,-170.7 -170.71,-170.7l-1578.39 0c-94.14,0 -170.72,76.58 -170.72,170.7l0 2028.94 2.98 307.36 0 2005.2c0,94.12 76.57,170.7 170.71,170.7 94.14,0 116.36,6.62 132.91,17.1"/>
   <path class="fil0 str0" d="M1981.42 770.25c-22.6,-18.68 -17.86,-77.78 18.58,-77.78 36.44,0 65.98,29.54 65.98,65.98 0,36.43 -29.54,65.96 -65.98,65.96 -36.43,0 -65.97,-29.53 -65.97,-65.96 0,-36.44 29.54,-65.98 65.97,-65.98"/>
  </g>
 </g>
</svg>
