<?xml version="1.0" encoding="UTF-8"?>
<!DOCTYPE svg PUBLIC "-//W3C//DTD SVG 1.1//EN" "http://www.w3.org/Graphics/SVG/1.1/DTD/svg11.dtd">
<!-- Creator: CorelDRAW X8 -->
<svg xmlns="http://www.w3.org/2000/svg" xml:space="preserve" width="40mm" height="60mm" version="1.1" style="shape-rendering:geometricPrecision; text-rendering:geometricPrecision; image-rendering:optimizeQuality; fill-rule:evenodd; clip-rule:evenodd"
viewBox="0 0 4000 6000"
 xmlns:xlink="http://www.w3.org/1999/xlink">
 <defs>
  <style type="text/css">
   <![CDATA[
    .str0 {stroke:black;stroke-width:7.62}
    .fil0 {fill:none}
   ]]>
  </style>
 </defs>
 <g id="图层_x0020_1">
  <metadata id="CorelCorpID_0Corel-Layer"/>
  <path class="fil0 str0" d="M949 5315l1909 0c142,0 259,-117 259,-259l0 -4147c0,-143 -117,-259 -259,-259l-1716 0c-142,0 -259,116 -259,259l0 4147c0,142 117,259 259,259 45,0 88,18 124,35m246 -4568c0,-4 -4,-9 -13,-9 -30,0 -55,24 -55,55 0,30 25,55 55,55 31,0 55,-25 55,-55 0,-31 -24,-55 -55,-55m403 48c-4,-14 -11,-26 -47,-26l-30 0c-16,0 -29,13 -29,29l0 0c0,16 13,29 29,29l356 0c16,0 29,-13 29,-29l0 0c0,-16 -14,-29 -29,-29l-326 0m152 4297c-9,-33 -21,-56 -76,-56l-46 0c-64,0 -116,52 -116,116l0 0c0,64 52,116 116,116l247 0c64,0 116,-52 116,-116l0 0c0,-64 -52,-116 -116,-116l-201 0"/>
 </g>
</svg>
