<?xml version="1.0" encoding="UTF-8"?>
<!DOCTYPE svg PUBLIC "-//W3C//DTD SVG 1.1//EN" "http://www.w3.org/Graphics/SVG/1.1/DTD/svg11.dtd">
<!-- Creator: CorelDRAW X8 -->
<svg xmlns="http://www.w3.org/2000/svg" xml:space="preserve" width="40mm" height="60mm" version="1.1" style="shape-rendering:geometricPrecision; text-rendering:geometricPrecision; image-rendering:optimizeQuality; fill-rule:evenodd; clip-rule:evenodd"
viewBox="0 0 4000 6000"
 xmlns:xlink="http://www.w3.org/1999/xlink">
 <defs>
  <style type="text/css">
   <![CDATA[
    .str0 {stroke:black;stroke-width:7.62}
    .fil0 {fill:none}
   ]]>
  </style>
 </defs>
 <g id="图层_x0020_1">
  <metadata id="CorelCorpID_0Corel-Layer"/>
  <path class="fil0 str0" d="M958 5350l1949 0c114,0 207,-93 207,-207l0 -4286c0,-114 -93,-207 -207,-207l-1814 0c-114,0 -207,93 -207,207l0 4286c0,114 93,207 207,207l287 0m158 -4641c0,-5 -5,-10 -15,-11 -36,0 -65,29 -65,65 0,36 29,65 65,65 36,0 65,-29 65,-65 0,-36 -29,-65 -65,-65m402 62c-5,-16 -13,-29 -53,-29l-34 0c-18,0 -33,15 -33,33l0 0c0,18 15,33 33,33l327 0c18,0 33,-15 33,-33l0 0c0,-18 -15,-33 -33,-33l-293 0m568 1c-4,-15 -10,-27 -37,-27l-23 0c-31,0 -56,26 -56,57l0 0c0,31 25,57 56,57l114 0c32,0 57,-26 57,-57l0 0c0,-31 -25,-57 -57,-57l-91 0"/>
 </g>
</svg>
