<?xml version="1.0" encoding="UTF-8"?>
<!DOCTYPE svg PUBLIC "-//W3C//DTD SVG 1.1//EN" "http://www.w3.org/Graphics/SVG/1.1/DTD/svg11.dtd">
<!-- Creator: CorelDRAW X8 -->
<svg xmlns="http://www.w3.org/2000/svg" xml:space="preserve" width="40mm" height="60mm" version="1.1" style="shape-rendering:geometricPrecision; text-rendering:geometricPrecision; image-rendering:optimizeQuality; fill-rule:evenodd; clip-rule:evenodd"
viewBox="0 0 4000 6000"
 xmlns:xlink="http://www.w3.org/1999/xlink">
 <defs>
  <style type="text/css">
   <![CDATA[
    .str0 {stroke:#332C2B;stroke-width:19.4}
    .fil0 {fill:none;fill-rule:nonzero}
   ]]>
  </style>
 </defs>
 <g id="图层_x0020_1">
  <metadata id="CorelCorpID_0Corel-Layer"/>
  <path class="fil0 str0" d="M1879 2122l-10 0 1 -5 1 -2 0 0 1 -1m0 0c-35,-34 -67,-123 -67,-188 0,-82 54,-149 121,-149 15,0 24,2 50,11 19,7 32,10 43,10 10,0 20,-3 40,-9 12,-4 18,-6 25,-8 12,-3 23,-4 32,-4 29,0 46,10 92,50m0 0l-2 2m0 0c-1,0 -2,0 -4,0 -4,0 -9,-1 -10,-3 -30,25 -45,54 -45,92 0,51 28,94 76,115 -2,3 -6,5 -10,5 -1,0 -2,0 -3,0 -27,62 -75,117 -106,117 -10,0 -22,-4 -46,-14m0 0l-9 -3m0 0c-11,-3 -20,-5 -29,-5 -15,0 -31,4 -56,14 -13,6 -22,8 -31,8 -23,0 -35,-9 -68,-50m149 -347l-6 -9m0 0c1,-1 3,-2 5,-2 1,0 1,0 1,0 1,-52 35,-85 105,-102 0,5 -2,8 -7,12m0 0l-4 0m0 0c-6,62 -35,91 -104,102m0 0l0 -1m0 0c0,-2 0,-2 4,-8m0 0l3 -3 3 0 1 -19m-863 -1078l1696 0c157,0 287,129 287,287l0 4126c0,158 -130,287 -287,287l-1696 0c-157,0 -287,-129 -287,-287l0 -4126c0,-158 130,-287 287,-287zm-3 167l302 0c75,0 136,61 136,136l0 0c0,75 -61,137 -136,137l-302 0c-75,0 -137,-62 -137,-137l0 0c0,-75 62,-136 137,-136zm680 64c40,0 72,33 72,72 0,40 -32,72 -72,72 -39,0 -72,-32 -72,-72 0,-39 33,-72 72,-72zm-157 35c21,0 38,16 38,37 0,21 -17,38 -38,38 -20,0 -37,-17 -37,-38 0,-21 17,-37 37,-37z"/>
 </g>
</svg>
