<?xml version="1.0" encoding="UTF-8"?>
<!DOCTYPE svg PUBLIC "-//W3C//DTD SVG 1.1//EN" "http://www.w3.org/Graphics/SVG/1.1/DTD/svg11.dtd">
<!-- Creator: CorelDRAW -->
<svg xmlns="http://www.w3.org/2000/svg" xml:space="preserve" width="40mm" height="60mm" style="shape-rendering:geometricPrecision; text-rendering:geometricPrecision; image-rendering:optimizeQuality; fill-rule:evenodd; clip-rule:evenodd"
viewBox="0 0 40 60"
 xmlns:xlink="http://www.w3.org/1999/xlink">
 <defs>
  <style type="text/css">
   <![CDATA[
    .str0 {stroke:#1F1A17;stroke-width:0.2}
    .fil0 {fill:none}
   ]]>
  </style>
 </defs>
 <g id="图层_x0020_6">
  <metadata id="CorelCorpID_0Corel-Layer"/>
  <path class="fil0 str0" d="M11.2528 7.5029c0.3626,0 0.6566,0.3066 0.6566,0.6848 0,0.3782 -0.294,0.6848 -0.6566,0.6848 -0.3626,0 -0.6566,-0.3066 -0.6566,-0.6848 0,-0.3782 0.294,-0.6848 0.6566,-0.6848zm-1.7299 44.5151c0,0.3039 0.3156,0.8161 0.6727,1.0925 0.3847,0.2986 0.5962,0.3549 1.3964,0.374l10.1153 0.0117m-12.2121 -44.8151l0.0372 42.865 -0.0095 0.4719m13.0324 -45.5134l-10.8453 0.0223c-0.575,0.0128 -0.7035,0.033 -0.982,0.1584 -0.5951,0.2667 -1.0075,0.7503 -1.203,1.4102 -0.0255,0.0893 -0.0308,0.1786 -0.0298,0.5856m20.9999 7.8357c0.0202,-7.8123 0.017,-8.1354 -0.085,-8.4021 -0.2764,-0.7215 -0.5447,-1.0164 -1.1722,-1.4241 -0.2838,-0.1988 -0.2838,-0.1988 -6.6826,-0.186m7.8452 45.5888l0.0946 -35.5766m-8.7878 36.9794c6.7186,0.0085 7.0991,0.0064 7.318,-0.0457 0.6579,-0.1551 1.1807,-0.6716 1.3752,-1.3571"/>
 </g>
</svg>
