<?xml version="1.0" encoding="UTF-8"?>
<!DOCTYPE svg PUBLIC "-//W3C//DTD SVG 1.1//EN" "http://www.w3.org/Graphics/SVG/1.1/DTD/svg11.dtd">
<!-- Creator: CorelDRAW -->
<svg xmlns="http://www.w3.org/2000/svg" xml:space="preserve" width="40mm" height="60mm" style="shape-rendering:geometricPrecision; text-rendering:geometricPrecision; image-rendering:optimizeQuality; fill-rule:evenodd; clip-rule:evenodd"
viewBox="0 0 40 60"
 xmlns:xlink="http://www.w3.org/1999/xlink">
 <defs>
  <style type="text/css">
   <![CDATA[
    .str0 {stroke:#1F1A17;stroke-width:0.0762;stroke-linejoin:bevel}
    .fil0 {fill:none}
   ]]>
  </style>
 </defs>
 <g id="_03___PRT_ALL_CURVES">
  <metadata id="CorelCorpID_0Corel-Layer"/>
  <path class="fil0 str0" d="M33.65 3.75l-27.3 0c-0.557,0 -1.0911,0.2212 -1.4849,0.6151 -0.3939,0.3938 -0.6151,0.9279 -0.6151,1.4849l0 48.3c0,0.557 0.2212,1.0911 0.6151,1.4849 0.3938,0.3939 0.9279,0.6151 1.4849,0.6151l27.3 0c0.557,0 1.0911,-0.2212 1.4849,-0.6151 0.3939,-0.3938 0.6151,-0.9279 0.6151,-1.4849l0 -48.3c0,-0.557 -0.2212,-1.0911 -0.6151,-1.4849 -0.3938,-0.3939 -0.9279,-0.6151 -1.4849,-0.6151z"/>
 </g>
</svg>
