<?xml version="1.0" encoding="UTF-8"?>
<!DOCTYPE svg PUBLIC "-//W3C//DTD SVG 1.1//EN" "http://www.w3.org/Graphics/SVG/1.1/DTD/svg11.dtd">
<!-- Creator: CorelDRAW X8 -->
<svg xmlns="http://www.w3.org/2000/svg" xml:space="preserve" width="40mm" height="60mm" version="1.1" style="shape-rendering:geometricPrecision; text-rendering:geometricPrecision; image-rendering:optimizeQuality; fill-rule:evenodd; clip-rule:evenodd"
viewBox="0 0 4000 6000"
 xmlns:xlink="http://www.w3.org/1999/xlink">
 <defs>
  <style type="text/css">
   <![CDATA[
    .str0 {stroke:black;stroke-width:20}
    .fil0 {fill:none}
   ]]>
  </style>
 </defs>
 <g id="图层_x0020_1">
  <metadata id="CorelCorpID_0Corel-Layer"/>
  <path class="fil0 str0" d="M963 5350l1838 0c152,0 277,-125 277,-277l0 -4146c0,-152 -125,-277 -277,-277l-1602 0c-152,0 -277,125 -277,277l0 4146c0,152 125,277 277,277l227 0m627 -3624c-1,-15 -15,-30 -44,-32 -102,0 -185,83 -185,185 0,102 83,184 185,184 102,0 185,-82 185,-184 0,-102 -83,-185 -185,-185m-791 -217c-38,10 -67,24 -67,90l0 55c0,76 63,138 139,138l0 0c76,0 139,-62 139,-138l0 -278c0,-76 -63,-138 -139,-138l0 0c-76,0 -139,62 -139,138l0 223m89 3366c-26,7 -45,17 -45,61l0 36c0,51 42,93 93,93l0 0c51,0 92,-42 92,-93l0 -160c0,-51 -41,-92 -92,-92l0 0c-51,0 -93,41 -93,92l0 124m137 -4152c-1,-15 -15,-29 -42,-31 -98,0 -177,79 -177,177 0,98 79,177 177,177 98,0 177,-79 177,-177 0,-98 -79,-177 -177,-177"/>
 </g>
</svg>
