<?xml version="1.0" encoding="UTF-8"?>
<!DOCTYPE svg PUBLIC "-//W3C//DTD SVG 1.1//EN" "http://www.w3.org/Graphics/SVG/1.1/DTD/svg11.dtd">
<!-- Creator: CorelDRAW 2020 (64-Bit) -->
<svg xmlns="http://www.w3.org/2000/svg" xml:space="preserve" width="40mm" height="60mm" version="1.1" style="shape-rendering:geometricPrecision; text-rendering:geometricPrecision; image-rendering:optimizeQuality; fill-rule:evenodd; clip-rule:evenodd"
viewBox="0 0 4000 6000"
 xmlns:xlink="http://www.w3.org/1999/xlink"
 xmlns:xodm="http://www.corel.com/coreldraw/odm/2003">
 <defs>
  <style type="text/css">
   <![CDATA[
    .str1 {stroke:#332C2B;stroke-width:20;stroke-miterlimit:22.9256}
    .str2 {stroke:#332C2B;stroke-width:20;stroke-miterlimit:22.9256}
    .str0 {stroke:#E62129;stroke-width:20;stroke-miterlimit:22.9256}
    .fil0 {fill:none}
   ]]>
  </style>
   <clipPath id="id0">
    <rect x="-57049.5" y="-7044.74" width="17253.53" height="19145.85"/>
   </clipPath>
 </defs>
 <g id="图层_x0020_1">
  <metadata id="CorelCorpID_0Corel-Layer"/>
  <g style="clip-path:url(#id0)">
   <image x="-57049.5" y="-7044.74" width="17253.53" height="19145.85" xlink:href="Reno9 Pro -11i（前膜全屏）_Images\Reno9 Pro -11i（前膜全屏）_ImgID1.png"/>
  </g>
  <rect class="fil0 str0" x="-49406.14" y="-5595.06" width="7420" height="16230"/>
  <rect class="fil0 str0" x="-49346.47" y="-5415.14" width="7300.66" height="15856.38" rx="700" ry="849.48"/>
  <circle class="fil0 str1" cx="-45680.25" cy="-4899.27" r="205.05"/>
  <path class="fil0 str2" d="M-5694.13 5589.39l0 -6350.46c0,-384.98 -315,-700 -699.99,-700l-14456.39 0c-385,0 -700,315.01 -700,700l0 5900.67c0,385 315,699.99 700,699.99l14456.39 0c385,0 699.99,-314.99 699.99,-699.99 0,-385 65.46,-526.06 114.41,-582.95"/>
  <path class="fil0 str2" d="M-21239.69 2173.38c0,113.25 91.8,205.05 205.05,205.05 113.25,0 205.05,-91.8 205.05,-205.05 0,-113.25 -91.8,-205.05 -205.05,-205.05 -113.25,0 -205.05,91.8 -205.05,205.05 0,113.25 120.37,130.92 134.92,132.9"/>
  <g id="_2283074141648">
   <path class="fil0 str2" d="M992.26 5316.86l1868.85 0c113.3,0 206,-92.7 206,-206l0 -4254.33c0,-113.3 -92.7,-206 -206,-206l-1736.49 0c-113.3,0 -205.99,92.7 -205.99,206l0 4254.33c0,113.3 92.69,206 205.99,206 113.3,0 154.82,19.26 171.56,33.67"/>
   <path class="fil0 str2" d="M1997.54 742c-33.32,0 -60.34,27.01 -60.34,60.34 0,33.33 27.02,60.35 60.34,60.35 33.33,0 60.35,-27.02 60.35,-60.35 0,-33.33 -27.02,-60.34 -60.35,-60.34 -33.32,0 -38.52,35.42 -39.11,39.7"/>
  </g>
 </g>
</svg>
