<?xml version="1.0" encoding="UTF-8"?>
<!DOCTYPE svg PUBLIC "-//W3C//DTD SVG 1.1//EN" "http://www.w3.org/Graphics/SVG/1.1/DTD/svg11.dtd">
<!-- Creator: CorelDRAW X8 -->
<svg xmlns="http://www.w3.org/2000/svg" xml:space="preserve" width="40mm" height="60mm" version="1.1" style="shape-rendering:geometricPrecision; text-rendering:geometricPrecision; image-rendering:optimizeQuality; fill-rule:evenodd; clip-rule:evenodd"
viewBox="0 0 4000 6000"
 xmlns:xlink="http://www.w3.org/1999/xlink">
 <defs>
  <style type="text/css">
   <![CDATA[
    .str0 {stroke:black;stroke-width:7.62}
    .fil0 {fill:none;fill-rule:nonzero}
   ]]>
  </style>
 </defs>
 <g id="图层_x0020_1">
  <metadata id="CorelCorpID_0Corel-Layer"/>
  <g>
   <path class="fil0 str0" d="M3101 5084c0,147 -119,266 -266,266l-1670 0c-147,0 -266,-119 -266,-266l-133 0c-8,0 -15,-7 -15,-15l0 -4138c0,-8 7,-15 15,-15l133 0c0,-147 119,-266 266,-266l1670 0c147,0 266,119 266,266l133 0c8,0 15,7 15,15l0 4138c0,8 -7,15 -15,15l-133 0zm-1958 -3259l0 -872c0,-65 53,-118 118,-118l384 0c66,0 119,53 119,118l0 872c0,65 -53,118 -119,118l-384 0c-65,0 -118,-53 -118,-118zm37 -25l0 -822c0,-57 46,-103 103,-103l340 0c57,0 104,46 104,103l0 822c0,57 -47,103 -104,103l-340 0c-57,0 -103,-46 -103,-103zm162 -631c-73,0 -133,-59 -133,-132 0,-74 60,-133 133,-133 74,0 133,59 133,133 0,73 -59,132 -133,132zm0 0c-73,0 -133,-59 -133,-132 0,-74 60,-133 133,-133 74,0 133,59 133,133 0,73 -59,132 -133,132zm0 330c-73,0 -133,-59 -133,-132 0,-73 60,-132 133,-132 74,0 133,59 133,132 0,73 -59,132 -133,132zm0 0c-73,0 -133,-59 -133,-132 0,-73 60,-132 133,-132 74,0 133,59 133,132 0,73 -59,132 -133,132zm0 360c-73,0 -133,-59 -133,-132 0,-73 60,-132 133,-132 74,0 133,59 133,132 0,73 -59,132 -133,132zm274 -404c-49,0 -89,-39 -89,-88 0,-49 40,-88 89,-88 49,0 88,39 88,88 0,49 -39,88 -88,88zm0 360c-49,0 -89,-40 -89,-88 0,-49 40,-88 89,-88 49,0 88,39 88,88 0,48 -39,88 -88,88zm-835 490l0 -487c0,-17 13,-30 29,-30l0 0c16,0 30,13 30,30l0 487c0,17 -14,30 -30,30l0 0c-16,0 -29,-13 -29,-30zm-30 606l0 -384c0,-37 30,-66 67,-66l0 0c36,0 66,29 66,66l0 384c0,37 -30,67 -66,67l0 0c-37,0 -67,-30 -67,-67zm2380 -1404l0 -414c0,-24 20,-44 44,-44l0 0c24,0 44,20 44,44l0 414c0,25 -20,45 -44,45l0 0c-24,0 -44,-20 -44,-45zm44 83c-8,0 -15,-7 -15,-15 0,-8 7,-15 15,-15 8,0 15,7 15,15 0,8 -7,15 -15,15z"/>
  </g>
 </g>
</svg>
