<?xml version="1.0" encoding="UTF-8"?>
<!DOCTYPE svg PUBLIC "-//W3C//DTD SVG 1.1//EN" "http://www.w3.org/Graphics/SVG/1.1/DTD/svg11.dtd">
<!-- Creator: CorelDRAW -->
<svg xmlns="http://www.w3.org/2000/svg" xml:space="preserve" width="40mm" height="60mm" style="shape-rendering:geometricPrecision; text-rendering:geometricPrecision; image-rendering:optimizeQuality; fill-rule:evenodd; clip-rule:evenodd"
viewBox="0 0 40 60"
 xmlns:xlink="http://www.w3.org/1999/xlink">
 <defs>
  <style type="text/css">
   <![CDATA[
    .str0 {stroke:#1F1A17;stroke-width:0.194}
    .fil0 {fill:none;fill-rule:nonzero}
   ]]>
  </style>
 </defs>
 <g id="图层_x0020_1">
  <metadata id="CorelCorpID_0Corel-Layer"/>
  <g id="_148109632">
   <polyline id="_166473464" class="fil0 str0" points="18.214,17.7377 18.214,17.835 18.2288,17.835 "/>
   <path id="_166473848" class="fil0 str0" d="M18.2288 17.835c0.0106,0.795 0.9007,1.5624 1.813,1.5624 1.036,0 1.8807,-0.8415 1.8807,-1.8743 0,-1.0307 -0.8426,-1.8701 -1.8786,-1.8701 -1.0127,0 -1.8637,0.8341 -1.8637,1.8289 0,0.1289 0.0179,0.259 0.0634,0.4725"/>
   <polyline id="_166473944" class="fil0 str0" points="31.6463,13.6771 31.6611,13.7744 31.7214,13.7522 31.7288,13.7363 "/>
   <path id="_166474136" class="fil0 str0" d="M31.7288 13.7363c0.0211,-0.0465 0.0211,-0.0465 0.0222,-0.0898"/>
   <polyline id="_166473776" class="fil0 str0" points="31.751,13.6465 31.751,13.6316 31.7066,13.5873 31.6463,13.5725 "/>
   <path id="_166473584" class="fil0 str0" d="M31.6463 13.5725c-0.0105,-0.9705 -0.0084,-0.7284 -0.0137,-1.6989 -0.0032,-0.5275 0.019,-0.7643 0.0835,-0.9081 0.0645,-0.1427 0.1713,-0.1935 0.4091,-0.1935 0.2104,0 0.3658,0.0909 0.4176,0.2453 0.0539,0.1617 0.0677,0.7569 0.0677,3.0626 0,1.4494 -0.017,2.0911 -0.0582,2.2116 -0.0613,0.1808 -0.2082,0.2717 -0.4408,0.2717 -0.2432,0 -0.4155,-0.1279 -0.4525,-0.3362 -0.0158,-0.0856 -0.0264,-0.5761 -0.0264,-1.2274 0,-0.5761 0.0084,-1.1755 0.0211,-1.5551"/>
   <polyline id="_166473512" class="fil0 str0" points="7.5376,24.6822 7.545,24.5776 7.5376,24.5776 "/>
   <path id="_166474232" class="fil0 str0" d="M7.5376 24.5776c-0.0042,-0.444 -0.0031,-0.333 -0.0053,-0.7771 -0.0021,-0.5592 0.0698,-0.686 0.3891,-0.686 0.1152,0 0.1723,0.0095 0.2188,0.037 0.0571,0.0327 0.093,0.094 0.1184,0.1966 0.0444,0.186 0.0561,0.4704 0.0561,1.3902 0,0.8066 -0.0127,1.0836 -0.0603,1.259 -0.0264,0.0963 -0.0634,0.1544 -0.1205,0.1872 -0.0476,0.0275 -0.1089,0.038 -0.2199,0.038 -0.3309,0 -0.3859,-0.1205 -0.3859,-0.8499 0,-0.3024 0.0064,-0.6565 0.0169,-0.9229"/>
   <polyline id="_166474592" class="fil0 str0" points="7.5376,17.6479 7.545,17.5421 7.5376,17.5421 "/>
   <path id="_166474616" class="fil0 str0" d="M7.5376 17.5421c-0.0053,-0.6935 -0.0105,-1.388 -0.0137,-2.0826 -0.0021,-0.5592 0.0127,-0.7834 0.0634,-0.9208 0.0497,-0.1364 0.1322,-0.1808 0.3394,-0.1808 0.1755,0 0.296,0.0783 0.3372,0.2178 0.0444,0.1491 0.0465,0.3203 0.0476,3.0298 0,0.9346 -0.0042,1.8691 -0.0116,2.8037 -0.0138,0.2727 -0.0381,0.3541 -0.1301,0.4334 -0.0528,0.0465 -0.148,0.074 -0.2527,0.074 -0.2685,0 -0.37,-0.1205 -0.3826,-0.4578 -0.0064,-0.1384 -0.0096,-0.5042 -0.0096,-0.9842 0,-0.8013 0.0096,-1.7041 0.0201,-2.0593"/>
   <line id="_166474328" class="fil0 str0" x1="32.0956" y1="9.6842" x2="32.103" y2= "9.5785" />
   <path id="_166474904" class="fil0 str0" d="M32.103 9.5785c-0.0676,0.0042 -0.094,0.0306 -0.1046,0.1057"/>
   <polyline id="_166474640" class="fil0 str0" points="31.9984,9.6842 31.1146,9.6842 31.1146,9.6461 31.1749,9.5785 31.2044,9.5785 31.1833,9.3427 "/>
   <path id="_166474448" class="fil0 str0" d="M31.1833 9.3427c-0.0761,-0.8341 -0.0761,-0.8341 -0.1364,-1.0201"/>
   <line id="_166474784" class="fil0 str0" x1="31.0469" y1="8.3226" x2="31.03" y2= "8.2686" />
   <path id="_166474688" class="fil0 str0" d="M31.03 8.2686c-0.296,-0.9229 -1.1925,-1.6174 -2.2232,-1.7221"/>
   <line id="_166474256" class="fil0 str0" x1="28.8068" y1="6.5465" x2="28.218" y2= "6.5211" />
   <path id="_166474736" class="fil0 str0" d="M28.218 6.5211c-0.3278,0 -0.5244,0.0149 -0.6851,0.054"/>
   <polyline id="_166475600" class="fil0 str0" points="27.5329,6.5751 27.5329,6.5899 27.5414,6.5973 27.5414,6.6047 27.4504,6.6501 27.4663,6.6649 "/>
   <path id="_166475480" class="fil0 str0" d="M27.4663 6.6649c-0.2495,0.2019 -0.4387,0.2918 -0.6163,0.2918 -0.202,0 -0.2728,-0.0402 -0.7326,-0.4197"/>
   <polyline id="_166475528" class="fil0 str0" points="26.1174,6.537 26.1174,6.5296 26.1174,6.537 26.11,6.537 26.11,6.5444 26.1026,6.5518 26.0201,6.5074 "/>
   <path id="_166475192" class="fil0 str0" d="M26.0201 6.5074c-0.0011,0.0074 -0.0032,0.0148 -0.0074,0.0222"/>
   <polyline id="_166475576" class="fil0 str0" points="26.0127,6.5296 25.9154,6.5074 25.9154,6.5 25.9154,6.537 11.4999,6.5444 "/>
   <path id="_166475384" class="fil0 str0" d="M11.4999 6.5444c-0.3594,0 -0.4419,0.0064 -0.6301,0.0444 -0.999,0.2062 -1.8141,0.9916 -1.9948,1.9219"/>
   <polyline id="_166474952" class="fil0 str0" points="8.875,8.5107 8.8697,8.5404 8.7587,9.7815 "/>
   <path id="_166475432" class="fil0 str0" d="M8.7587 9.7815c-0.0656,-0.0201 -0.0888,-0.0466 -0.0899,-0.0973"/>
   <line id="_166475120" class="fil0 str0" x1="8.6688" y1="9.6842" x2="7.2871" y2= "9.6778" />
   <path id="_166475288" class="fil0 str0" d="M7.2871 9.6778c-0.6237,-0.0021 -0.6237,-0.0021 -0.628,0.3457"/>
   <line id="_166475144" class="fil0 str0" x1="6.6591" y1="10.0235" x2="6.657" y2= "10.1324" />
   <path id="_166475936" class="fil0 str0" d="M6.657 10.1324c-0.0941,6.6179 -0.1565,13.2347 -0.1871,19.8526"/>
   <line id="_166475768" class="fil0 str0" x1="6.4699" y1="29.985" x2="6.4096" y2= "42.7968" />
   <path id="_166475864" class="fil0 str0" d="M6.4096 42.7968c-0.0222,4.6251 0.0402,6.8737 0.1988,7.2194"/>
   <line id="_166475840" class="fil0 str0" x1="6.6084" y1="50.0162" x2="6.657" y2= "50.0986" />
   <path id="_166475984" class="fil0 str0" d="M6.657 50.0986c0.0973,0.1618 0.0973,0.1618 0.5614,0.1607"/>
   <line id="_166476056" class="fil0 str0" x1="7.2184" y1="50.2593" x2="8.9014" y2= "50.2519" />
   <path id="_166476200" class="fil0 str0" d="M8.9014 50.2519c-0.0053,0.0497 -0.0296,0.0751 -0.0899,0.0973"/>
   <line id="_166476416" class="fil0 str0" x1="8.8115" y1="50.3492" x2="8.8601" y2= "51.0585" />
   <path id="_166476104" class="fil0 str0" d="M8.8601 51.0585c0.0772,1.1154 0.886,2.052 2.0013,2.3184"/>
   <line id="_166475696" class="fil0 str0" x1="10.8614" y1="53.3769" x2="10.9132" y2= "53.3886" />
   <path id="_166476896" class="fil0 str0" d="M10.9132 53.3886c0.1554,0.038 0.1554,0.038 0.9451,0.0412"/>
   <line id="_166476728" class="fil0 str0" x1="11.8583" y1="53.4298" x2="24.8266" y2= "53.4932" />
   <path id="_166476848" class="fil0 str0" d="M24.8266 53.4932c3.4844,0.0169 3.7666,0.0095 4.4104,-0.1068 0.5392,-0.0983 1.1281,-0.4514 1.4822,-0.888 0.4694,-0.5793 0.5085,-0.721 0.6576,-2.3522 0.0465,0 0.0761,0.0349 0.0898,0.1057"/>
   <line id="_166476944" class="fil0 str0" x1="31.4666" y1="50.2519" x2="32.6676" y2= "50.2562" />
   <path id="_166476800" class="fil0 str0" d="M32.6676 50.2562c0.6152,0.0031 0.6152,0.0031 0.6195,-0.3605"/>
   <line id="_166476776" class="fil0 str0" x1="33.2871" y1="49.8957" x2="33.526" y2= "29.9755" />
   <path id="_166477016" class="fil0 str0" d="M33.526 29.9755c0.0518,-4.2731 0.074,-8.5451 0.0676,-12.8182 -0.0063,-4.6558 -0.0845,-6.9065 -0.2505,-7.2479"/>
   <line id="_166477136" class="fil0 str0" x1="33.3431" y1="9.9094" x2="33.2036" y2= "9.7191" />
   <path id="_166477160" class="fil0 str0" d="M33.2036 9.7191c-0.0202,-0.0159 0.0591,-0.0127 -0.8807,-0.0328"/>
   <line id="_166476488" class="fil0 str0" x1="32.3229" y1="9.6863" x2="31.8789" y2= "9.6768" />
   <line id="_166476608" class="fil0 str0" x1="12.7072" y1="15.6096" x2="12.6099" y2= "15.6096" />
   <path id="_166477784" class="fil0 str0" d="M12.6099 15.6096c0.0043,0.0561 0.0466,0.0973 0.0973,0.0973 -0.1237,0.315 -0.3013,0.4577 -0.573,0.4577 -0.3246,0 -0.5814,-0.2558 -0.5804,-0.5793 0,-0.389 0.1914,-0.5836 0.5751,-0.5825 0.333,0 0.5825,0.2569 0.5825,0.5994 0,0.0444 -0.001,0.0603 -0.0116,0.2178"/>
   <line id="_166477640" class="fil0 str0" x1="11.9957" y1="14.0366" x2="11.9957" y2= "14.1338" />
   <path id="_166477520" class="fil0 str0" d="M11.9957 14.1338c-0.0623,-0.0158 -0.0972,-0.0571 -0.0972,-0.112 -0.5984,-0.0465 -1.1175,-0.7126 -1.1175,-1.4357 0,-0.1755 0.0106,-0.4493 0.036,-1.0011"/>
   <line id="_166477832" class="fil0 str0" x1="10.817" y1="11.585" x2="10.8244" y2= "11.4338" />
   <path id="_166477928" class="fil0 str0" d="M10.8244 11.4338c0.0497,-1.0889 0.0497,-1.0889 0.0497,-1.3532"/>
   <line id="_166477448" class="fil0 str0" x1="10.8741" y1="10.0806" x2="10.8741" y2= "10.0436" />
   <path id="_166477952" class="fil0 str0" d="M10.8741 10.0436c0,-0.2632 -0.0075,-0.3647 -0.0487,-0.6184 -0.0063,-0.0402 -0.0095,-0.0687 -0.0095,-0.0941 0,-0.1734 0.1797,-0.5243 0.3732,-0.7263 0.2569,-0.2695 0.6089,-0.4218 0.9758,-0.4218 0.7252,0 1.3214,0.5783 1.3711,1.3278 0.0973,1.479 0.1322,2.1619 0.1322,2.5742 0,0.4039 -0.0328,0.6174 -0.1216,0.7961"/>
   <line id="_166477256" class="fil0 str0" x1="13.5466" y1="12.8811" x2="13.536" y2= "12.9011" />
   <path id="_166477472" class="fil0 str0" d="M13.536 12.9011c-0.0201,0.0402 -0.0201,0.0402 -0.0581,0.1671"/>
   <line id="_166477904" class="fil0 str0" x1="13.4779" y1="13.0682" x2="13.4589" y2= "13.1316" />
   <path id="_166477304" class="fil0 str0" d="M13.4589 13.1316c-0.1502,0.5011 -0.7263,0.9335 -1.2443,0.9335 -0.1195,0 -0.1893,-0.0095 -0.4367,-0.0581"/>
  </g>
 </g>
</svg>
