<?xml version="1.0" encoding="UTF-8"?>
<!DOCTYPE svg PUBLIC "-//W3C//DTD SVG 1.1//EN" "http://www.w3.org/Graphics/SVG/1.1/DTD/svg11.dtd">
<!-- Creator: CorelDRAW X8 -->
<svg xmlns="http://www.w3.org/2000/svg" xml:space="preserve" width="40mm" height="60mm" version="1.1" style="shape-rendering:geometricPrecision; text-rendering:geometricPrecision; image-rendering:optimizeQuality; fill-rule:evenodd; clip-rule:evenodd"
viewBox="0 0 4000 6000"
 xmlns:xlink="http://www.w3.org/1999/xlink">
 <defs>
  <style type="text/css">
   <![CDATA[
    .str0 {stroke:black;stroke-width:7.62}
    .fil0 {fill:none}
   ]]>
  </style>
 </defs>
 <g id="图层_x0020_1">
  <metadata id="CorelCorpID_0Corel-Layer"/>
  <path class="fil0 str0" d="M1199 751c0,-6 -6,-12 -16,-13 -38,0 -68,31 -68,69 0,37 30,68 68,68 38,0 68,-31 68,-68 0,-38 -30,-69 -68,-69m-126 4579l1766 0c131,0 238,-107 238,-238l0 -4 166 0c9,0 16,-7 16,-15l0 -2377c0,-8 -7,-15 -16,-15l-104 0c-8,0 -15,-7 -15,-15l0 -357c0,-8 7,-15 15,-15l104 0c9,0 16,-7 16,-15l0 -1358c0,-9 -7,-16 -16,-16l-166 0 0 -4c0,-131 -107,-238 -238,-238 -552,0 -1094,0 -1646,0 -131,0 -238,107 -238,238l0 4 -166 0c-9,0 -16,7 -16,16l0 1008c0,9 7,15 16,15l112 0c8,0 15,7 15,15l0 713c0,8 -7,15 -15,15l-112 0c-9,0 -16,7 -16,15l0 2371c0,8 7,15 16,15l166 0 0 4c0,131 107,238 238,238l37 0c77,0 126,9 156,33"/>
 </g>
</svg>
