<?xml version="1.0" encoding="UTF-8"?>
<!DOCTYPE svg PUBLIC "-//W3C//DTD SVG 1.1//EN" "http://www.w3.org/Graphics/SVG/1.1/DTD/svg11.dtd">
<!-- Creator: CorelDRAW X8 -->
<svg xmlns="http://www.w3.org/2000/svg" xml:space="preserve" width="40mm" height="60mm" version="1.1" style="shape-rendering:geometricPrecision; text-rendering:geometricPrecision; image-rendering:optimizeQuality; fill-rule:evenodd; clip-rule:evenodd"
viewBox="0 0 4000 6000"
 xmlns:xlink="http://www.w3.org/1999/xlink">
 <defs>
  <style type="text/css">
   <![CDATA[
    .str0 {stroke:#332C2B;stroke-width:19.4}
    .fil0 {fill:none;fill-rule:nonzero}
   ]]>
  </style>
 </defs>
 <g id="图层_x0020_1">
  <metadata id="CorelCorpID_0Corel-Layer"/>
  <path class="fil0 str0" d="M1274 876c-5,60 -44,99 -100,99 -55,0 -100,-44 -100,-99 0,-56 45,-100 100,-100 55,0 99,44 99,99 0,7 0,10 -2,32m472 295c-5,67 -51,113 -114,113 -63,0 -114,-51 -114,-114 0,-63 51,-114 114,-114 62,0 113,51 113,114 0,7 0,11 -2,35m-11 -360c-5,66 -39,99 -100,99 -56,0 -100,-44 -100,-99 0,-56 45,-100 100,-100 56,0 100,45 99,101 0,6 -1,22 -2,30m-891 292c-5,68 -50,113 -113,113 -63,0 -114,-51 -114,-114 0,-63 51,-114 114,-114 63,0 112,50 112,114 0,7 0,11 -2,35m-3 -347c1,0 2,0 5,1 -5,59 -52,101 -111,101 -64,0 -114,-50 -114,-113 0,-63 51,-114 114,-114 62,0 112,50 112,112 0,8 0,17 -3,37m3 -34l-7 9 1 0 0 1m-280 -169l-1 11 -2 0 3 0c1,160 -4,328 3,487 2,34 5,43 23,68 20,29 73,64 112,64 318,0 946,-6 1009,-6 18,0 67,-38 84,-65 11,-17 18,-35 19,-52 7,-72 -4,-421 -4,-472 -11,-39 -60,-102 -102,-102 -351,6 -710,7 -1060,7 -61,10 -81,111 -89,157 -4,14 -6,19 -18,34 -3,4 -6,8 -8,12 -8,15 -13,32 -28,91m2526 -75c-5,60 -45,99 -101,99 -55,0 -99,-44 -99,-99 0,-56 45,-100 100,-100 55,0 99,44 99,99 0,7 0,10 -2,32m472 295c-6,67 -51,113 -115,113 -63,0 -113,-51 -113,-114 0,-63 51,-114 113,-114 63,0 114,51 114,114 0,7 0,11 -2,35m-11 -360c-6,66 -39,99 -101,99 -55,0 -99,-44 -99,-99 0,-56 44,-100 99,-100 57,0 101,45 100,101 0,6 -1,22 -2,30m-891 292c-5,68 -50,113 -114,113 -63,0 -113,-51 -113,-114 0,-63 51,-114 114,-114 62,0 112,50 112,114 0,7 0,11 -2,35m-3 -347c1,0 1,0 5,1 -6,59 -52,101 -112,101 -63,0 -114,-50 -114,-113 0,-63 52,-114 114,-114 62,0 113,50 113,112 0,8 -1,17 -3,37m3 -34l-7 9 1 0 0 1m-280 -169l-1 11 -2 0 3 0c0,160 -4,328 3,487 2,34 4,43 22,68 21,29 73,64 112,64 319,0 947,-6 1010,-6 18,0 67,-38 84,-65 11,-17 17,-35 19,-52 7,-72 -4,-421 -4,-472 -11,-39 -60,-102 -103,-102 -350,6 -709,7 -1060,7 -60,10 -81,111 -88,157 -4,14 -6,19 -18,34 -4,4 -6,8 -8,12 -9,15 -14,32 -28,91m-958 1153c-5,60 -44,99 -100,99 -55,0 -100,-44 -100,-99 0,-56 45,-100 100,-100 55,0 99,44 99,99 0,7 0,10 -2,32m472 295c-5,67 -51,113 -114,113 -63,0 -114,-51 -114,-114 0,-63 51,-114 114,-114 62,0 113,51 113,114 0,7 0,10 -2,34m-11 -359c-5,66 -39,99 -100,99 -56,0 -100,-44 -100,-99 0,-56 45,-100 100,-100 56,0 100,45 99,101 0,6 -1,22 -2,30m-891 292c-5,68 -50,113 -113,113 -63,0 -114,-51 -114,-114 0,-63 51,-114 114,-114 63,0 112,50 112,113 0,8 0,12 -2,36m-3 -347c1,0 2,0 5,1 -5,59 -52,101 -111,101 -64,0 -114,-50 -114,-113 0,-63 51,-114 114,-114 62,0 112,50 112,112 0,8 0,17 -3,37m3 -34l-7 9 1 0 0 1m-280 -169l-1 11 -2 0 3 0c1,160 -4,328 3,487 2,34 5,43 23,68 20,29 73,63 112,63 318,0 946,-5 1009,-5 18,0 67,-38 84,-65 11,-17 18,-35 19,-52 7,-72 -4,-421 -4,-472 -11,-39 -60,-102 -102,-102 -351,6 -710,7 -1060,7 -61,10 -81,111 -89,157 -4,14 -6,19 -18,34 -3,4 -6,8 -8,12 -8,15 -13,31 -28,91m2526 -75c-5,60 -45,99 -101,99 -55,0 -99,-44 -99,-99 0,-56 45,-100 100,-100 55,0 99,44 99,99 0,7 0,10 -2,32m472 295c-6,67 -51,113 -115,113 -63,0 -113,-51 -113,-114 0,-63 51,-114 113,-114 63,0 114,51 114,114 0,7 0,10 -2,34m-11 -359c-6,66 -39,99 -101,99 -55,0 -99,-44 -99,-99 0,-56 44,-100 99,-100 57,0 101,45 100,101 0,6 -1,22 -2,30m-891 292c-5,68 -50,113 -114,113 -63,0 -113,-51 -113,-114 0,-63 51,-114 114,-114 62,0 112,50 112,113 0,8 0,12 -2,36m-3 -347c1,0 1,0 5,1 -6,59 -52,101 -112,101 -63,0 -114,-50 -114,-113 0,-63 52,-114 114,-114 62,0 113,50 113,112 0,8 -1,17 -3,37m3 -34l-7 9 1 0 0 1m-280 -169l-1 11 -2 0 3 0c0,160 -4,328 3,487 2,34 4,43 22,68 21,29 73,63 112,63 319,0 947,-5 1010,-5 18,0 67,-38 84,-65 11,-17 17,-35 19,-52 7,-72 -4,-421 -4,-472 -11,-39 -60,-102 -103,-102 -350,6 -709,7 -1060,7 -60,10 -81,111 -88,157 -4,14 -6,19 -18,34 -4,4 -6,8 -8,12 -9,15 -14,31 -28,91m-958 1422c-5,60 -44,99 -100,99 -55,0 -100,-44 -100,-99 0,-55 45,-100 100,-100 55,0 99,44 99,99 0,7 0,10 -2,32m-31 1247c-5,61 -44,100 -100,100 -55,0 -99,-45 -99,-100 0,-55 44,-100 99,-100 55,0 100,45 100,100 0,7 0,10 -3,31m506 -983c-5,67 -51,113 -114,113 -63,0 -114,-51 -114,-114 0,-63 51,-114 114,-114 62,0 113,51 113,114 0,7 0,11 -2,35m-31 1244c-5,68 -51,113 -114,113 -63,0 -113,-50 -113,-113 0,-63 50,-114 113,-114 63,0 114,51 114,113 0,8 -1,11 -3,35m23 -1638c-5,66 -39,99 -100,99 -56,0 -100,-44 -100,-99 0,-55 45,-100 100,-100 56,0 100,45 99,101 0,6 -1,22 -2,30m-31 1247c-5,67 -38,100 -100,100 -55,0 -99,-44 -99,-100 0,-55 44,-100 99,-100 56,0 101,45 100,101 0,6 -2,23 -3,30m-857 -986c-5,68 -50,113 -113,113 -63,0 -114,-51 -114,-114 0,-63 51,-114 114,-114 63,0 112,50 112,114 0,7 0,11 -2,35m-31 1244c-5,68 -50,113 -113,113 -63,0 -114,-50 -114,-113 0,-63 51,-115 114,-115 63,0 113,51 113,114 0,8 -1,11 -3,35m31 -1625c1,0 2,0 5,1 -5,59 -52,101 -111,101 -64,0 -114,-50 -114,-113 0,-63 51,-114 114,-114 62,0 112,50 112,112 0,8 0,17 -3,37m-37 1254c2,0 2,1 5,1 -5,59 -52,102 -111,102 -63,0 -114,-51 -114,-114 0,-62 51,-114 114,-114 62,0 113,50 113,112 0,8 -1,17 -4,37m37 -1312l-7 9 1 0 0 1m-28 1268l-7 9 1 0 0 1m-246 -1447l-1 11 -2 0 3 0c1,160 -4,328 3,487 2,34 5,43 23,68 20,29 73,64 112,64 318,0 946,-6 1009,-6 18,0 67,-38 84,-65 11,-17 18,-35 19,-52 7,-72 -4,-421 -4,-472 -11,-39 -60,-102 -102,-102 -351,6 -710,7 -1060,7 -61,10 -81,111 -89,157 -4,14 -6,19 -18,34 -3,4 -6,8 -8,12 -8,15 -13,32 -28,91m25 1044l-1 11 -2 0 3 0c1,161 -3,328 4,487 1,35 4,44 22,69 21,29 73,63 112,63 318,0 946,-6 1010,-6 17,0 66,-38 84,-65 10,-17 17,-35 19,-52 7,-71 -4,-420 -4,-471 -11,-39 -60,-103 -103,-103 -351,7 -709,7 -1060,7 -60,10 -81,111 -89,157 -3,15 -6,19 -18,34 -3,5 -6,8 -8,12 -8,16 -13,32 -27,92m2559 -1354c-5,60 -45,99 -101,99 -55,0 -99,-44 -99,-99 0,-55 45,-100 100,-100 55,0 99,44 99,99 0,7 0,10 -2,32m-31 1247c-5,61 -44,100 -100,100 -55,0 -100,-45 -100,-100 0,-55 45,-100 100,-100 55,0 99,45 99,100 0,7 0,10 -2,31m506 -983c-6,67 -51,113 -115,113 -63,0 -113,-51 -113,-114 0,-63 51,-114 113,-114 63,0 114,51 114,114 0,7 0,11 -2,35m-31 1244c-5,68 -51,113 -114,113 -63,0 -114,-50 -114,-113 0,-63 51,-114 114,-114 62,0 113,51 113,113 0,8 0,11 -2,35m23 -1638c-6,66 -39,99 -101,99 -55,0 -99,-44 -99,-99 0,-55 44,-100 99,-100 57,0 101,45 100,101 0,6 -1,22 -2,30m-31 1247c-5,67 -39,100 -100,100 -56,0 -100,-44 -100,-100 0,-55 45,-100 100,-100 56,0 100,45 99,101 0,6 -1,23 -2,30m-857 -986c-5,68 -50,113 -114,113 -63,0 -113,-51 -113,-114 0,-63 51,-114 114,-114 62,0 112,50 112,114 0,7 0,11 -2,35m-31 1244c-5,68 -50,113 -113,113 -63,0 -114,-50 -114,-113 0,-63 51,-115 114,-115 63,0 112,51 112,114 0,8 0,11 -2,35m31 -1625c1,0 1,0 5,1 -6,59 -52,101 -112,101 -63,0 -114,-50 -114,-113 0,-63 52,-114 114,-114 62,0 113,50 113,112 0,8 -1,17 -3,37m-37 1254c1,0 2,1 5,1 -5,59 -52,102 -111,102 -64,0 -114,-51 -114,-114 0,-62 51,-114 114,-114 62,0 112,50 112,112 0,8 0,17 -3,37m37 -1312l-7 9 1 0 0 1m-28 1268l-7 9 1 0 0 1m-246 -1447l-1 11 -2 0 3 0c0,160 -4,328 3,487 2,34 4,43 22,68 21,29 73,64 112,64 319,0 947,-6 1010,-6 18,0 67,-38 84,-65 11,-17 17,-35 19,-52 7,-72 -4,-421 -4,-472 -11,-39 -60,-102 -103,-102 -350,6 -709,7 -1060,7 -60,10 -81,111 -88,157 -4,14 -6,19 -18,34 -4,4 -6,8 -8,12 -9,15 -14,32 -28,91m25 1044l-1 11 -2 0 3 0c1,161 -4,328 3,487 2,35 5,44 23,69 20,29 73,63 112,63 318,0 946,-6 1009,-6 18,0 67,-38 84,-65 11,-17 18,-35 19,-52 7,-71 -4,-420 -4,-471 -11,-39 -60,-103 -102,-103 -351,7 -710,7 -1060,7 -61,10 -81,111 -89,157 -4,15 -6,19 -18,34 -3,5 -6,8 -8,12 -8,16 -13,32 -28,92"/>
 </g>
</svg>
