<?xml version="1.0" encoding="UTF-8"?>
<!DOCTYPE svg PUBLIC "-//W3C//DTD SVG 1.1//EN" "http://www.w3.org/Graphics/SVG/1.1/DTD/svg11.dtd">
<!-- Creator: CorelDRAW X8 -->
<svg xmlns="http://www.w3.org/2000/svg" xml:space="preserve" width="40mm" height="60mm" version="1.1" style="shape-rendering:geometricPrecision; text-rendering:geometricPrecision; image-rendering:optimizeQuality; fill-rule:evenodd; clip-rule:evenodd"
viewBox="0 0 4000 6000"
 xmlns:xlink="http://www.w3.org/1999/xlink">
 <defs>
  <style type="text/css">
   <![CDATA[
    .fil0 {fill:black;fill-rule:nonzero}
   ]]>
  </style>
 </defs>
 <g id="图层_x0020_1">
  <metadata id="CorelCorpID_0Corel-Layer"/>
  <g>
   <path class="fil0" d="M109 2176c-7,0 -13,-5 -13,-12 -1,-7 4,-13 11,-13l2 25zm57 -56l16 19 0 0 -3 2 -2 2 -3 2 -2 2 -3 2 -2 2 -3 1 -2 2 -2 2 -3 1 -2 2 -2 1 -3 1 -2 2 -2 1 -3 1 -2 1 -2 1 -2 1 -2 1 -3 1 -2 1 -2 1 -2 0 -2 1 -2 1 -2 0 -2 1 -3 0 -2 0 -2 1 -2 0 -2 -25 2 0 1 0 1 -1 2 0 1 0 1 -1 2 0 1 0 2 -1 2 -1 1 0 2 -1 2 -1 1 0 2 -1 2 -1 2 -1 2 -1 2 -1 2 -1 2 -2 2 -1 2 -1 2 -2 2 -1 2 -2 3 -1 2 -2 2 -2 2 -1 3 -2 2 -2 0 0zm0 0c6,-4 13,-3 18,2 4,5 3,13 -2,17l-16 -19zm1077 -633l13 21 0 0 -17 11 -20 12 -23 13 -24 14 -27 15 -29 15 -31 17 -32 17 -34 18 -35 19 -37 19 -37 20 -39 20 -39 21 -40 22 -40 22 -40 22 -41 22 -41 23 -40 22 -40 23 -39 23 -39 23 -38 23 -36 23 -36 22 -34 23 -33 22 -31 22 -30 22 -27 21 -25 20 -16 -19 26 -21 27 -21 30 -22 32 -22 33 -23 34 -23 36 -22 37 -23 38 -23 39 -23 40 -23 40 -23 40 -23 41 -23 41 -22 40 -22 40 -22 40 -22 39 -21 39 -20 38 -20 36 -19 35 -19 34 -18 33 -17 30 -17 29 -15 27 -15 24 -14 22 -13 20 -11 17 -11 0 0zm0 0c5,-3 13,-2 17,4 3,6 2,14 -4,17l-13 -21zm413 -325l19 17 0 0 -14 15 -13 14 -13 13 -13 13 -12 13 -13 12 -13 12 -12 11 -12 11 -13 11 -12 10 -12 10 -13 10 -12 10 -12 10 -13 9 -12 9 -12 9 -13 9 -13 9 -13 9 -13 9 -13 9 -13 8 -14 9 -13 9 -14 9 -14 9 -15 10 -15 9 -15 10 -15 9 -13 -21 15 -9 15 -10 15 -9 14 -10 14 -9 14 -9 14 -9 13 -8 13 -9 13 -9 13 -9 13 -8 13 -9 12 -9 12 -9 12 -9 13 -9 12 -10 12 -9 12 -10 12 -10 12 -10 12 -11 12 -11 12 -11 13 -11 12 -12 13 -13 12 -12 13 -14 13 -13 13 -14 0 -1zm0 1c5,-6 13,-6 18,-1 5,4 5,12 1,17l-19 -16zm423 -505l18 18 0 0 -15 15 -14 15 -14 16 -14 15 -14 16 -14 16 -13 15 -13 16 -14 16 -13 16 -13 16 -13 16 -13 16 -12 16 -13 16 -13 16 -13 16 -12 16 -13 16 -13 16 -12 16 -13 16 -13 16 -13 16 -12 16 -13 15 -13 16 -14 15 -13 16 -13 15 -14 15 -13 15 -19 -17 14 -14 13 -15 13 -16 13 -15 13 -15 13 -16 13 -15 13 -16 13 -16 13 -15 12 -16 13 -16 13 -16 12 -16 13 -16 13 -16 12 -16 13 -16 13 -16 13 -17 13 -16 13 -16 13 -16 13 -16 14 -16 14 -16 13 -16 14 -15 14 -16 15 -16 14 -15 15 -16 0 0zm0 0c5,-5 12,-5 17,0 5,5 6,13 1,18l-18 -18zm60 -19l-5 24 0 0 -1 0 -1 0 -2 0 -1 0 -1 0 -1 -1 -2 1 -1 0 -1 0 -1 0 -2 0 -1 0 -1 0 -1 1 -1 0 -2 0 -1 1 -1 0 -1 1 -1 0 -1 1 -2 1 -1 0 -1 1 -1 1 -1 0 -1 1 -1 1 -1 1 -1 1 -1 1 -1 1 -18 -18 1 -1 2 -2 2 -1 1 -1 2 -2 1 -1 2 -1 2 -1 2 -1 1 -1 2 -1 2 -1 2 -1 2 -1 2 -1 2 0 1 -1 2 0 2 -1 2 0 2 -1 2 0 2 0 3 0 2 0 2 0 2 0 2 0 2 0 2 0 2 0 2 1 0 0zm0 0c7,1 11,8 10,14 -1,7 -8,12 -15,10l5 -24zm967 246l-8 23 0 0 -15 -5 -17 -6 -20 -6 -22 -6 -24 -7 -26 -8 -27 -8 -30 -8 -30 -8 -32 -9 -33 -8 -34 -9 -35 -9 -35 -10 -36 -9 -36 -9 -37 -9 -36 -9 -37 -9 -36 -9 -36 -9 -36 -9 -35 -8 -34 -8 -33 -8 -32 -7 -30 -7 -30 -7 -27 -6 -26 -5 -24 -5 -23 -5 5 -24 23 4 24 5 26 6 28 6 29 7 31 7 32 7 33 8 34 8 35 8 36 9 36 8 36 9 37 9 36 10 37 9 36 9 36 9 36 9 35 9 34 9 33 9 31 9 31 8 29 8 28 8 26 8 24 7 22 6 20 7 18 5 15 6 0 0zm0 0c7,2 10,9 8,16 -2,6 -10,9 -16,7l8 -23zm72 88l-25 3 0 0 0 -3 -1 -2 0 -3 -1 -3 -1 -3 -1 -3 -1 -3 -1 -2 -1 -3 -2 -2 -1 -3 -1 -2 -2 -3 -2 -2 -1 -2 -2 -3 -2 -2 -2 -2 -2 -2 -2 -2 -2 -2 -2 -2 -2 -1 -2 -2 -3 -2 -2 -1 -3 -2 -2 -1 -3 -1 -3 -2 -2 -1 -3 -1 8 -23 4 1 3 1 4 2 3 2 4 2 3 1 3 2 3 3 3 2 3 2 3 2 2 3 3 2 3 3 2 3 2 3 3 2 2 3 2 3 2 4 2 3 2 3 1 3 2 4 1 3 2 4 1 3 1 4 1 3 1 4 1 4 0 4 0 0zm0 0c1,7 -3,13 -10,14 -7,1 -13,-4 -15,-11l25 -3zm248 2277l-24 5 0 0 -12 -59 -12 -64 -12 -68 -11 -72 -11 -76 -11 -79 -11 -81 -10 -84 -10 -86 -10 -88 -9 -88 -9 -90 -9 -90 -9 -89 -8 -90 -8 -88 -8 -88 -8 -86 -7 -84 -7 -81 -6 -79 -6 -75 -6 -72 -6 -68 -5 -64 -5 -59 -5 -53 -4 -49 -4 -42 -4 -36 -3 -29 -3 -22 25 -3 3 22 3 30 4 36 4 42 4 48 5 54 5 59 5 64 6 68 5 72 7 75 6 79 7 81 7 84 8 86 7 87 8 89 9 89 8 90 9 90 10 89 9 89 10 87 10 86 10 83 11 82 10 78 11 76 12 72 11 68 12 63 12 59 0 0zm0 0c1,7 -3,13 -10,15 -6,1 -13,-3 -14,-10l24 -5zm473 1777l-24 7 0 0 -7 -25 -8 -30 -10 -34 -10 -37 -12 -42 -12 -45 -14 -48 -14 -51 -15 -53 -16 -57 -16 -58 -17 -60 -18 -63 -17 -63 -18 -65 -18 -66 -19 -66 -18 -67 -18 -67 -18 -68 -18 -66 -18 -67 -17 -65 -17 -65 -16 -63 -16 -62 -15 -60 -14 -58 -13 -56 -13 -54 -11 -50 -10 -48 24 -5 10 47 12 51 12 53 13 56 14 58 15 60 16 61 16 64 17 64 17 66 18 66 18 67 18 67 18 67 18 67 19 67 18 65 18 65 18 64 17 62 17 60 16 59 16 56 15 54 14 51 14 48 12 44 12 42 11 38 9 33 8 30 7 25 0 0zm0 0c1,7 -3,14 -9,15 -7,2 -14,-2 -15,-8l24 -7zm-58 133l-15 -21 0 0 5 -3 4 -3 4 -3 3 -3 4 -3 3 -2 4 -3 3 -3 2 -3 3 -3 2 -3 3 -3 2 -2 2 -3 1 -3 2 -3 1 -3 1 -3 1 -3 1 -3 1 -3 0 -4 1 -3 0 -4 0 -3 0 -4 0 -4 -1 -4 0 -4 -1 -5 -1 -5 -1 -4 24 -7 1 6 1 5 1 5 1 6 1 5 0 5 0 5 0 5 0 4 -1 5 -1 5 -1 4 -1 4 -1 5 -2 4 -2 4 -2 4 -2 4 -3 4 -2 3 -3 4 -3 4 -4 3 -3 4 -3 3 -4 3 -4 4 -4 3 -4 3 -4 3 -5 4 -5 3 1 0zm-1 0c-5,4 -13,2 -17,-3 -4,-6 -2,-14 3,-18l14 21zm-387 187l-2 -25 0 0 11 -1 9 -1 10 -1 9 -1 9 -1 8 -1 8 -2 9 -1 8 -2 8 -2 8 -3 8 -2 9 -3 8 -4 9 -3 9 -5 10 -4 10 -5 11 -6 11 -6 11 -7 13 -8 13 -8 13 -8 15 -10 15 -10 17 -11 17 -12 18 -12 19 -13 21 -15 21 -15 15 21 -22 15 -20 14 -20 13 -18 13 -17 12 -17 11 -15 10 -15 10 -14 9 -13 8 -13 7 -12 7 -11 7 -11 6 -11 5 -10 5 -10 4 -9 5 -10 3 -9 3 -9 3 -9 3 -8 2 -9 2 -9 2 -9 1 -9 2 -9 1 -10 1 -9 1 -10 1 -11 1 0 0zm0 0c-7,0 -13,-5 -13,-12 -1,-7 4,-13 11,-13l2 25zm-1259 -42l3 -25 0 0 48 7 48 6 47 6 48 5 47 5 46 5 46 4 46 3 46 3 44 3 45 3 44 2 43 1 42 2 42 1 41 1 41 0 39 0 39 0 38 0 37 0 36 -1 35 -1 35 -1 33 -1 32 -1 30 -2 30 -1 29 -2 27 -2 26 -1 24 -2 2 25 -24 1 -27 2 -27 2 -29 2 -29 1 -31 2 -32 1 -34 1 -34 1 -35 1 -36 1 -38 0 -38 0 -39 0 -39 0 -41 0 -41 -1 -42 -1 -43 -2 -44 -1 -44 -3 -44 -2 -45 -3 -46 -3 -46 -4 -46 -4 -47 -4 -47 -5 -47 -5 -48 -6 -48 -6 -48 -7 0 0zm0 0c-7,-1 -12,-8 -11,-14 1,-7 8,-12 14,-11l-3 25zm-1333 -347l9 -23 0 0 16 6 17 7 20 7 23 8 24 9 26 9 28 10 31 11 32 10 33 11 36 12 37 12 39 12 40 12 42 12 43 13 45 13 46 12 47 13 49 13 49 12 51 13 52 12 52 12 54 12 54 11 56 11 56 11 56 11 57 10 58 9 58 9 -3 25 -59 -9 -58 -10 -57 -10 -57 -10 -56 -11 -56 -11 -54 -12 -54 -12 -53 -12 -52 -12 -51 -13 -49 -12 -49 -13 -47 -13 -47 -12 -44 -13 -44 -13 -42 -12 -40 -12 -39 -12 -38 -12 -35 -12 -34 -11 -32 -11 -31 -10 -28 -10 -27 -9 -24 -9 -22 -8 -20 -8 -18 -7 -16 -6 0 0zm0 0c-7,-3 -10,-10 -7,-16 2,-7 10,-10 16,-7l-9 23zm-28 -68l24 7 0 0 0 2 -1 2 0 1 -1 2 0 2 0 1 0 2 0 1 0 2 0 1 0 1 0 2 0 1 0 1 1 1 0 2 0 1 1 1 0 1 1 1 0 1 1 1 1 0 0 1 1 1 1 1 1 1 1 1 2 0 1 1 1 1 2 1 -9 23 -3 -1 -3 -2 -2 -1 -2 -2 -3 -1 -2 -2 -2 -2 -2 -1 -2 -2 -1 -3 -2 -2 -1 -2 -1 -2 -1 -2 -1 -3 -1 -2 -1 -2 0 -3 -1 -2 0 -2 0 -3 0 -2 0 -3 0 -2 0 -2 0 -3 0 -2 1 -2 0 -3 1 -2 0 -2 1 -3 0 0zm0 0c2,-6 9,-10 16,-8 6,2 10,9 8,15l-24 -7zm-9 -292l24 -6 0 0 2 10 3 10 2 10 2 10 1 11 2 10 1 11 2 11 1 10 1 11 1 11 1 11 0 11 1 10 0 11 0 10 1 11 0 10 0 10 -1 10 0 10 0 9 -1 10 -1 8 0 9 -1 8 -1 8 -1 8 -2 7 -1 7 -1 6 -2 6 -24 -7 1 -5 2 -5 1 -6 1 -7 1 -7 1 -8 1 -7 1 -9 0 -8 1 -9 0 -9 0 -10 1 -9 0 -10 0 -10 0 -10 -1 -10 0 -11 -1 -10 0 -11 -1 -10 -1 -11 -1 -10 -1 -11 -1 -10 -2 -10 -1 -10 -2 -10 -2 -10 -2 -10 -2 -9 -2 -10 0 0zm0 0c-2,-6 2,-13 9,-15 7,-1 13,3 15,9l-24 6zm-426 -1558l25 -3 0 0 12 76 12 72 12 70 13 67 13 64 13 61 13 59 14 57 14 54 13 52 14 51 14 48 14 47 14 46 14 44 15 43 14 42 14 41 14 40 14 40 14 39 14 39 13 38 14 39 13 39 13 39 13 40 13 40 12 40 13 42 11 43 12 43 -24 6 -12 -43 -11 -42 -13 -41 -12 -41 -13 -40 -12 -39 -14 -39 -13 -39 -13 -38 -14 -39 -14 -39 -14 -39 -14 -40 -14 -40 -14 -41 -14 -42 -14 -43 -15 -45 -14 -46 -14 -47 -14 -49 -14 -50 -14 -53 -13 -54 -14 -57 -13 -59 -13 -62 -13 -64 -13 -67 -13 -70 -12 -73 -12 -77 0 0zm0 0c-1,-7 4,-13 11,-14 7,-1 13,4 14,11l-25 3zm-236 -875l20 -14 0 -1 13 18 14 20 13 21 12 22 11 23 11 25 11 25 10 27 10 27 9 28 9 29 9 29 8 30 7 30 8 31 7 31 6 31 7 31 6 32 6 31 5 32 6 31 5 30 5 31 5 30 4 30 4 29 5 28 4 27 4 27 3 26 4 25 -25 3 -3 -25 -4 -25 -4 -27 -4 -28 -4 -28 -5 -29 -4 -29 -5 -30 -5 -30 -5 -31 -5 -31 -6 -31 -6 -31 -6 -32 -6 -31 -7 -31 -7 -30 -7 -31 -8 -30 -8 -29 -8 -29 -9 -28 -9 -28 -9 -27 -10 -25 -10 -25 -11 -24 -11 -22 -12 -22 -12 -20 -13 -18 -13 -17 0 -1zm0 1c-4,-5 -3,-13 2,-18 5,-4 13,-3 18,2l-20 16zm2 -44l20 15 -2 2 0 0 0 1 -1 0 0 0 0 0 0 1 0 0 0 0 -1 1 0 0 0 0 0 1 0 0 0 0 0 1 0 0 0 0 0 1 0 0 0 1 0 0 0 1 0 0 0 0 1 1 0 0 0 1 0 0 0 1 0 0 1 0 0 1 -20 14 -1 -1 -1 -1 -1 -1 0 -2 -1 -1 -1 -1 0 -2 -1 -1 0 -2 0 -1 -1 -2 0 -1 0 -2 0 -1 0 -2 0 -1 0 -2 0 -1 1 -2 0 -1 0 -2 1 -1 0 -2 1 -1 1 -2 0 -1 1 -2 1 -1 1 -1 1 -1 2 -2 1 -1 -2 2zm2 -2c5,-4 13,-4 17,2 5,5 4,13 -1,17l-16 -19zm54 -104l24 -8 0 3 1 3 1 3 0 3 0 3 0 4 -1 3 0 3 -1 4 -1 3 -1 4 -1 3 -2 4 -1 4 -2 3 -2 4 -2 4 -2 4 -2 5 -3 4 -2 4 -3 5 -3 4 -3 5 -3 4 -4 5 -3 5 -4 5 -4 5 -4 6 -4 5 -4 5 -20 -15 4 -5 4 -6 4 -5 4 -5 4 -4 3 -5 3 -5 3 -4 3 -5 3 -4 2 -4 3 -4 2 -4 2 -4 2 -3 2 -4 1 -3 2 -3 1 -3 1 -3 1 -3 1 -3 1 -2 0 -2 1 -3 0 -2 0 -1 0 -2 0 -1 0 -2 -1 -1 0 -1zm0 0c-2,-6 1,-13 8,-16 6,-2 13,1 16,8l-24 8z"/>
  </g>
 </g>
</svg>
