<?xml version="1.0" encoding="UTF-8"?>
<!DOCTYPE svg PUBLIC "-//W3C//DTD SVG 1.1//EN" "http://www.w3.org/Graphics/SVG/1.1/DTD/svg11.dtd">
<!-- Creator: CorelDRAW 2020 (64-Bit) -->
<svg xmlns="http://www.w3.org/2000/svg" xml:space="preserve" width="40mm" height="60mm" version="1.1" style="shape-rendering:geometricPrecision; text-rendering:geometricPrecision; image-rendering:optimizeQuality; fill-rule:evenodd; clip-rule:evenodd"
viewBox="0 0 4000 6000"
 xmlns:xlink="http://www.w3.org/1999/xlink"
 xmlns:xodm="http://www.corel.com/coreldraw/odm/2003">
 <defs>
  <style type="text/css">
   <![CDATA[
    .str0 {stroke:black;stroke-width:10;stroke-miterlimit:22.9256}
    .fil0 {fill:none}
   ]]>
  </style>
 </defs>
 <g id="图层_x0020_1">
  <metadata id="CorelCorpID_0Corel-Layer"/>
  <path class="fil0 str0" d="M2029.28 780.15c0.75,-18.7 -21.28,-33.42 -29.28,-34.04 -28.47,0 -51.56,23.08 -51.56,51.56 0,28.47 23.09,51.55 51.56,51.55 28.47,0 51.56,-23.08 51.56,-51.55 0,-28.48 -23.09,-51.56 -51.56,-51.56m-965.76 4588.08l1812.74 0c121.52,0 220.95,-99.43 220.95,-220.95l0 -4242.28c0,-121.52 -99.42,-220.96 -220.95,-220.96 -567.2,0 -1124.91,0.82 -1693.96,0 -121.53,-0.17 -220.95,99.43 -220.95,220.96l0 4242.28c0,121.53 99.43,220.95 220.95,220.95l37.89 0c61.69,0 95.92,9.41 108.74,15.81"/>
 </g>
</svg>
