<?xml version="1.0" encoding="UTF-8"?>
<!DOCTYPE svg PUBLIC "-//W3C//DTD SVG 1.1//EN" "http://www.w3.org/Graphics/SVG/1.1/DTD/svg11.dtd">
<!-- Creator: CorelDRAW -->
<svg xmlns="http://www.w3.org/2000/svg" xml:space="preserve" width="40mm" height="60mm" style="shape-rendering:geometricPrecision; text-rendering:geometricPrecision; image-rendering:optimizeQuality; fill-rule:evenodd; clip-rule:evenodd"
viewBox="0 0 40 60"
 xmlns:xlink="http://www.w3.org/1999/xlink">
 <defs>
  <style type="text/css">
   <![CDATA[
    .str2 {stroke:#1F1A17;stroke-width:0.0762}
    .str1 {stroke:#1F1A17;stroke-width:0.0762}
    .str0 {stroke:#1F1A17;stroke-width:0.194}
    .fil1 {fill:none}
    .fil0 {fill:none;fill-rule:nonzero}
   ]]>
  </style>
 </defs>
 <g id="图层_x0020_1">
  <metadata id="CorelCorpID_0Corel-Layer"/>
  <line class="fil0 str0" x1="-244.51" y1="-112.648" x2="-244.436" y2= "-112.648" />
  <line class="fil0 str0" x1="-244.852" y1="-112.599" x2="-244.796" y2= "-112.599" />
  <g id="_252828112">
   <path id="_253721160" class="fil0 str1" d="M11.9142 6.528l4.9554 0.0117c0.4413,0.9934 0.6526,1.0378 1.0016,1.0635"/>
   <path id="_254215760" class="fil0 str1" d="M11.9142 6.528c-1.7849,-0.0047 -1.9086,0.0058 -2.3172,0.1833 -0.6467,0.2825 -1.123,0.8405 -1.3203,1.5456"/>
   <line id="_253715280" class="fil0 str1" x1="8.2767" y1="8.2569" x2="8.1296" y2= "43.3942" />
   <path id="_256621968" class="fil0 str1" d="M8.1296 43.3942c-0.0245,5.7667 0.0059,7.9789 0.1168,8.3162 0.2638,0.7063 0.391,0.9152 0.7506,1.2316 0.4412,0.3887 0.8533,0.5393 1.5281,0.558"/>
   <path id="_254215784" class="fil0 str1" d="M31.862 50.8641c0.0035,0.5744 -0.0047,0.7915 -0.0339,0.8989 -0.286,1.0693 -1.1335,1.7277 -2.2238,1.7277 -0.0457,-0.0607 -0.1151,-0.1926 -0.4074,-0.2199 -0.2598,0.0164 -0.3363,0.1658 -0.3764,0.2202l-18.2954 0.009"/>
   <path id="_253717800" class="fil0 str1" d="M31.862 50.8641l0.014 -20.9633c0.0011,-7.0368 0.0023,-14.0736 0.0023,-21.1116 -0.0303,-1.1195 -0.6887,-1.9612 -1.7277,-2.2075 -0.2638,-0.063 -1.2164,-0.0817 -4.2713,-0.0817 -1.2444,0 -1.423,0.021 -1.5923,0.1798 -0.1763,0.1669 -0.2346,0.2953 -0.2346,0.5183 0,0.0443 0.0023,0.0945 0.007,0.1494 0.0058,0.0607 0.0081,0.1086 0.0081,0.1471 0,0.3642 -0.2615,0.6362 -0.6117,0.6362 -0.1342,0 -0.2772,-0.0706 -0.5022,-0.2245 -0.1795,-0.2406 -0.0159,-0.2878 -0.3401,-0.2874l-4.7423 -0.0157"/>
   <rect id="_256619112" class="fil1 str2" x="24.5487" y="7.15173" width="2.10349" height="1.32342" rx="1.0908" ry="1.0908"/>
  </g>
 </g>
</svg>
