<?xml version="1.0" encoding="UTF-8"?>
<!DOCTYPE svg PUBLIC "-//W3C//DTD SVG 1.1//EN" "http://www.w3.org/Graphics/SVG/1.1/DTD/svg11.dtd">
<!-- Creator: CorelDRAW -->
<svg xmlns="http://www.w3.org/2000/svg" xml:space="preserve" width="40mm" height="60mm" style="shape-rendering:geometricPrecision; text-rendering:geometricPrecision; image-rendering:optimizeQuality; fill-rule:evenodd; clip-rule:evenodd"
viewBox="0 0 40 60"
 xmlns:xlink="http://www.w3.org/1999/xlink">
 <defs>
  <style type="text/css">
   <![CDATA[
    .str0 {stroke:#1F1A17;stroke-width:0.0762;stroke-linejoin:bevel}
    .fil0 {fill:none}
   ]]>
  </style>
 </defs>
 <g id="参考点">
  <metadata id="CorelCorpID_0Corel-Layer"/>
  <g id="_157251368">
   <path id="_157834200" class="fil0 str0" d="M11.0755 53.5l17.849 0c0.5443,-0.0004 1.0662,-0.2169 1.4508,-0.602 0.3846,-0.3852 0.6005,-0.9047 0.6002,-1.449l0 -42.898c-0.0004,-0.5443 -0.2169,-1.0662 -0.602,-1.4508 -0.3852,-0.3847 -0.9047,-0.6006 -1.449,-0.6002l-17.849 0c-0.5443,0.0003 -1.0662,0.2169 -1.4508,0.602 -0.3847,0.3851 -0.6006,0.9047 -0.6002,1.449l0 42.898c0.0003,0.5443 0.2169,1.0662 0.602,1.4508 0.3851,0.3846 0.9047,0.6005 1.449,0.6002z"/>
   <path id="_157834008" class="fil0 str0" d="M18.1636 7.9388l3.4757 0c0.1957,0 0.3766,-0.1044 0.4745,-0.2739 0.0979,-0.1696 0.0979,-0.3785 0,-0.548 -0.0979,-0.1696 -0.2788,-0.274 -0.4745,-0.274l-3.4757 0c-0.1957,0 -0.3766,0.1044 -0.4745,0.274 -0.0979,0.1695 -0.0979,0.3784 0,0.548 0.0979,0.1695 0.2788,0.2739 0.4745,0.2739z"/>
  </g>
 </g>
</svg>
