<?xml version="1.0" encoding="UTF-8"?>
<!DOCTYPE svg PUBLIC "-//W3C//DTD SVG 1.1//EN" "http://www.w3.org/Graphics/SVG/1.1/DTD/svg11.dtd">
<!-- Creator: CorelDRAW X8 -->
<svg xmlns="http://www.w3.org/2000/svg" xml:space="preserve" width="40mm" height="60mm" version="1.1" style="shape-rendering:geometricPrecision; text-rendering:geometricPrecision; image-rendering:optimizeQuality; fill-rule:evenodd; clip-rule:evenodd"
viewBox="0 0 4000 6000"
 xmlns:xlink="http://www.w3.org/1999/xlink">
 <defs>
  <style type="text/css">
   <![CDATA[
    .str0 {stroke:#332C2B;stroke-width:7.62}
    .fil0 {fill:none}
   ]]>
  </style>
 </defs>
 <g id="图层_x0020_1">
  <metadata id="CorelCorpID_0Corel-Layer"/>
  <path class="fil0 str0" d="M1204 650l1593 0c143,0 260,117 260,260l212 0 0 136c0,-25 -21,-46 -47,-46l0 0 -1 0 0 0 -1 0 0 0 -1 0 0 0 -1 0 0 0 -2 0 0 0 -1 0 -1 1 0 0 -1 0 0 0 -1 0 0 0 -1 0 0 0 -1 1 0 0 -1 0 0 0 -2 0 0 0 -1 1 0 0 -1 0 0 0 -1 1 0 0 -1 0 -1 0 0 0 -1 1 -1 1 -1 0 -1 1 -1 0 0 0 -1 1 -1 0 0 0 0 1 0 0 -1 1 -1 1 -1 0 0 0 -1 1 -1 1 -1 1 0 0 -1 1 -1 1 -1 1 0 1 -1 1 -1 1 0 0 -1 1 0 1 -1 1 -1 1 0 1 -1 1 0 1 -1 1 0 1 0 1 -1 2 0 1 0 1 -1 1 0 1 0 1 -1 1 0 1 0 2 0 1 0 1 0 1 0 1 0 1 0 474 0 1 0 2 0 1 0 1 0 1 0 1 0 1 1 2 0 1 0 1 1 1 0 1 0 1 1 1 0 1 0 1 1 1 0 1 1 1 0 1 1 1 1 1 0 1 1 1 0 1 1 1 1 1 0 1 1 1 1 0 1 1 0 1 1 1 1 1 1 0 0 0 1 1 1 1 1 0 0 0 0 1 0 0 1 1 1 0 0 0 1 1 1 1 1 0 1 1 1 0 0 0 1 1 1 0 0 0 1 1 0 0 1 0 0 0 1 0 0 0 2 1 0 0 1 0 0 0 1 0 0 0 1 1 0 0 1 0 0 0 1 0 0 0 1 0 1 0 0 0 2 1 0 0 1 0 0 0 1 0 0 0 1 0 0 0 1 0 0 0c26,0 47,-21 47,-47l0 3564 -212 0 0 6c0,143 -117,260 -260,260l-1593 0c-144,0 -261,-117 -261,-260l0 -6 -212 0 0 -4174 212 0c1,-143 118,-260 261,-260zm35 100l275 0c69,0 126,57 126,126l0 921c0,69 -57,126 -126,126l-275 0c-69,0 -126,-57 -126,-126l0 -921c0,-69 57,-126 126,-126zm-1 33l277 0c53,0 96,43 96,96l0 916c0,52 -43,96 -96,96l-277 0c-53,0 -96,-44 -96,-96l0 -916c0,-53 43,-96 96,-96zm24 929l94 0c23,0 42,19 42,42l0 0c0,23 -19,42 -42,42l-94 0c-23,0 -42,-19 -42,-42l0 0c0,-23 19,-42 42,-42zm42 -850c38,0 69,31 69,69 0,39 -31,70 -69,70 -39,0 -70,-31 -70,-70 0,-38 31,-69 70,-69zm4 334c30,0 54,24 54,54 0,30 -24,55 -54,55 -30,0 -55,-25 -55,-55 0,-30 25,-54 55,-54zm2 306c30,0 54,25 54,55 0,30 -24,54 -54,54 -30,0 -54,-24 -54,-54 0,-30 24,-55 54,-55zm-498 1045l0 0c37,0 67,30 67,66l0 426c0,37 -30,66 -67,66l0 0c-36,0 -66,-29 -66,-66l0 -426c0,-36 30,-66 66,-66zm-21 -743l0 0c16,0 30,13 30,29l0 557c0,16 -14,30 -30,30l0 0c-16,0 -30,-14 -30,-30l0 -557c0,-16 14,-29 30,-29z"/>
 </g>
</svg>
