<?xml version="1.0" encoding="UTF-8"?>
<!DOCTYPE svg PUBLIC "-//W3C//DTD SVG 1.1//EN" "http://www.w3.org/Graphics/SVG/1.1/DTD/svg11.dtd">
<!-- Creator: CorelDRAW X8 -->
<svg xmlns="http://www.w3.org/2000/svg" xml:space="preserve" width="40mm" height="60mm" version="1.1" style="shape-rendering:geometricPrecision; text-rendering:geometricPrecision; image-rendering:optimizeQuality; fill-rule:evenodd; clip-rule:evenodd"
viewBox="0 0 4000 6000"
 xmlns:xlink="http://www.w3.org/1999/xlink">
 <defs>
  <style type="text/css">
   <![CDATA[
    .str0 {stroke:#332C2B;stroke-width:8.82}
    .fil0 {fill:none;fill-rule:nonzero}
   ]]>
  </style>
 </defs>
 <g id="图层_x0020_1">
  <metadata id="CorelCorpID_0Corel-Layer"/>
  <path class="fil0 str0" d="M-16517 5460l0 -4800 730 0c27,0 50,-22 50,-49 -1,-553 447,-1001 1000,-1001l30 0c27,0 50,-23 50,-50l0 -610c0,-56 44,-100 100,-100l805 0c55,0 100,44 100,100l0 235c0,55 44,100 100,100l500 0c55,0 100,-45 100,-100l0 -235c0,-56 44,-100 100,-100l175 0c55,0 100,44 100,100l0 255c0,55 44,100 100,100l2500 0c55,0 100,-45 100,-100l0 -255c0,-56 44,-100 100,-100l4075 0c55,0 100,44 100,100l0 255c0,55 44,100 100,100l1600 0c55,0 100,-45 100,-100l0 -255c0,-56 44,-100 100,-100l1145 0c55,0 100,44 100,100l0 610c0,27 22,50 50,50l30 0c552,0 1000,447 1000,1000l0 700 0 3500 0 700c0,552 -448,1000 -1000,1000l-30 0c-28,0 -50,22 -50,50l0 610c0,55 -45,100 -100,100l-7645 0c-56,0 -100,-45 -100,-100l0 -255c0,-56 -45,-100 -100,-100l-1720 0c-56,0 -100,44 -100,100l0 255c0,55 -45,100 -100,100l-2235 0c-56,0 -100,-45 -100,-100l0 -610c0,-28 -23,-50 -50,-50l-30 0c-553,0 -1000,-448 -1000,-1000l0 0c0,-28 -23,-50 -50,-50l-730 0zm1903 840l1451 0c513,0 930,-417 930,-930l0 -1231c0,-513 -417,-929 -930,-929l-1451 0c-513,0 -929,416 -929,929l0 1231c0,513 416,930 929,930z"/>
  <path class="fil0 str0" d="M1255 650l1490 0 0 227c0,8 7,15 15,15 172,0 311,139 311,311l0 9c0,8 7,15 16,15l189 0c17,0 31,14 31,31l0 250c0,18 -14,31 -31,31l-73 0c-17,0 -31,14 -31,31l0 156c0,17 14,31 31,31l73 0c17,0 31,14 31,31l0 54c0,17 -14,31 -31,31l-79 0c-17,0 -31,14 -31,31l0 776c0,17 14,31 31,31l79 0c17,0 31,14 31,31l0 1265c0,18 -14,31 -31,31l-79 0c-17,0 -31,14 -31,31l0 497c0,17 14,31 31,31l79 0c17,0 31,14 31,31l0 356c0,17 -14,31 -31,31l-189 0c-9,0 -16,7 -16,15l0 10c0,171 -139,310 -310,310l-218 0 -1086 0 -218 0c-171,0 -310,-139 -310,-310l0 -10c0,-8 -7,-15 -16,-15l-189 0c-17,0 -31,-14 -31,-31l0 -2374c0,-17 14,-31 31,-31l79 0c17,0 31,-14 31,-31l0 -534c0,-17 -14,-31 -31,-31l-79 0c-17,0 -31,-14 -31,-31l0 -694c0,-17 14,-31 31,-31l189 0c9,0 16,-7 16,-15l0 -9c0,-172 139,-311 310,-311l0 0c9,0 16,-7 16,-15l0 -227zm-261 591l0 450c0,160 129,289 289,289l382 0c159,0 288,-129 288,-289l0 -450c0,-159 -129,-289 -288,-289l-382 0c-160,0 -289,130 -289,289z"/>
 </g>
</svg>
