<?xml version="1.0" encoding="UTF-8"?>
<!DOCTYPE svg PUBLIC "-//W3C//DTD SVG 1.1//EN" "http://www.w3.org/Graphics/SVG/1.1/DTD/svg11.dtd">
<!-- Creator: CorelDRAW X8 -->
<svg xmlns="http://www.w3.org/2000/svg" xml:space="preserve" width="40mm" height="60mm" version="1.1" style="shape-rendering:geometricPrecision; text-rendering:geometricPrecision; image-rendering:optimizeQuality; fill-rule:evenodd; clip-rule:evenodd"
viewBox="0 0 4000 6000"
 xmlns:xlink="http://www.w3.org/1999/xlink">
 <defs>
  <style type="text/css">
   <![CDATA[
    .str0 {stroke:#332C2B;stroke-width:20}
    .fil0 {fill:none}
   ]]>
  </style>
 </defs>
 <g id="图层_x0020_1">
  <metadata id="CorelCorpID_0Corel-Layer"/>
  <path class="fil0 str0" d="M566 5306l2797 0c39,0 71,-32 71,-71l0 -4513c0,-40 -32,-72 -71,-72l-2702 0c-39,0 -71,32 -71,72l0 4513c0,39 32,71 71,71 39,0 94,27 94,44"/>
  <path class="fil0 str0" d="M-31971 17707l17599 0c247,0 450,-203 450,-450l0 -28400c0,-248 -203,-450 -450,-450l-17000 0c-248,0 -450,202 -450,450l0 28400c0,247 202,450 450,450 247,0 591,170 591,276"/>
 </g>
</svg>
