<?xml version="1.0" encoding="UTF-8"?>
<!DOCTYPE svg PUBLIC "-//W3C//DTD SVG 1.1//EN" "http://www.w3.org/Graphics/SVG/1.1/DTD/svg11.dtd">
<!-- Creator: CorelDRAW 2020 (64-Bit) -->
<svg xmlns="http://www.w3.org/2000/svg" xml:space="preserve" width="40mm" height="60mm" version="1.1" style="shape-rendering:geometricPrecision; text-rendering:geometricPrecision; image-rendering:optimizeQuality; fill-rule:evenodd; clip-rule:evenodd"
viewBox="0 0 4000 6000"
 xmlns:xlink="http://www.w3.org/1999/xlink"
 xmlns:xodm="http://www.corel.com/coreldraw/odm/2003">
 <defs>
  <style type="text/css">
   <![CDATA[
    .str1 {stroke:#332C2B;stroke-width:20;stroke-miterlimit:22.9256}
    .str0 {stroke:#E62129;stroke-width:20;stroke-miterlimit:22.9256}
    .fil0 {fill:none}
   ]]>
  </style>
   <clipPath id="id0">
    <rect x="-39910" y="-5355.01" width="13708.9" height="16924.56"/>
   </clipPath>
 </defs>
 <g id="图层_x0020_1">
  <metadata id="CorelCorpID_0Corel-Layer"/>
  <g style="clip-path:url(#id0)">
   <image x="-39910" y="-5355.01" width="13708.9" height="16924.56" xlink:href="红魔 8Pro -11i（背膜）_Images\红魔 8Pro -11i（背膜）_ImgID1.png"/>
  </g>
  <rect class="fil0 str0" x="-39623.81" y="-5023.35" width="7640" height="16400"/>
  <rect class="fil0 str0" x="-39500.83" y="-4869.89" width="7394.04" height="16081.13" rx="200" ry="164.07"/>
  <path class="fil0 str0" d="M-35793.97 -4551.33c-119.1,0 -215.65,96.55 -215.65,215.65 0,119.1 96.55,215.65 215.65,215.65 119.1,0 215.65,-96.55 215.65,-215.65 0,-119.1 -96.55,-215.65 -215.65,-215.65 -119.1,0 -153.4,133.18 -158.13,163.6"/>
  <path class="fil0 str0" d="M-35795.16 -3931.55c-302.12,0 -547.04,244.92 -547.04,547.04 0,302.13 244.92,547.05 547.04,547.05 302.13,0 547.05,-244.92 547.05,-547.05 0,-302.12 -244.92,-547.04 -547.05,-547.04 -302.13,0 -428.57,347.28 -448.41,488.83"/>
  <path class="fil0 str0" d="M-35795.16 -2771.36c-302.12,0 -547.04,244.92 -547.04,547.04 0,302.13 244.92,547.05 547.04,547.05 302.13,0 547.05,-244.92 547.05,-547.05 0,-302.12 -244.92,-547.04 -547.05,-547.04 -302.13,0 -428.57,347.28 -448.41,488.83"/>
  <path class="fil0 str0" d="M-35791.98 -1593.05c-271.37,0 -491.36,219.99 -491.36,491.36 0,271.37 219.99,491.36 491.36,491.36 271.37,0 491.36,-219.99 491.36,-491.36 0,-271.37 -219.99,-491.36 -491.36,-491.36 -271.38,0 -384.95,311.93 -402.77,439.07"/>
  <path class="fil0 str1" d="M-3365.36 6437.53l0 -7158.74c0,-109.98 -90.02,-200 -200,-200l-15681.13 0c-110,0 -200,90 -200,200l0 6994.04c0,110 90,200 200,200l15681.13 0c110,0 200,-90 200,-200 0,-110 1.38,-308.67 56.94,-376.8"/>
  <path class="fil0 str1" d="M-19127.93 2765.97c0,119.1 96.55,215.65 215.65,215.65 119.1,0 215.65,-96.55 215.65,-215.65 0,-119.1 -96.55,-215.65 -215.65,-215.65 -119.1,0 -215.65,96.55 -215.65,215.65 0,119.1 133.18,153.4 163.6,158.13"/>
  <path class="fil0 str1" d="M-18508.15 2767.16c0,302.12 244.92,547.04 547.04,547.04 302.13,0 547.05,-244.92 547.05,-547.04 0,-302.13 -244.92,-547.05 -547.05,-547.05 -302.12,0 -547.04,244.92 -547.04,547.05 0,302.13 347.28,428.57 488.83,448.41"/>
  <path class="fil0 str1" d="M-17347.96 2767.16c0,302.12 244.92,547.04 547.04,547.04 302.13,0 547.05,-244.92 547.05,-547.04 0,-302.13 -244.92,-547.05 -547.05,-547.05 -302.12,0 -547.04,244.92 -547.04,547.05 0,302.13 347.28,428.57 488.83,448.41"/>
  <path class="fil0 str1" d="M-16169.65 2763.98c0,271.37 219.99,491.36 491.36,491.36 271.37,0 491.36,-219.99 491.36,-491.36 0,-271.37 -219.99,-491.36 -491.36,-491.36 -271.37,0 -491.36,219.99 -491.36,491.36 0,271.38 311.93,384.95 439.07,402.77"/>
  <g id="_2119926729072">
   <path class="fil0 str1" d="M926.97 5339.09l2084.89 0c32.03,0 58.25,-26.22 58.25,-58.25l0 -4566.92c0,-32.04 -26.21,-58.25 -58.25,-58.25l-2036.92 0c-32.04,0 -58.25,26.21 -58.25,58.25l0 4566.92c0,32.04 26.21,58.25 58.25,58.25 32.03,0 89.89,0.4 109.74,16.58"/>
   <path class="fil0 str1" d="M1996.27 748.45c-34.69,0 -62.81,28.12 -62.81,62.8 0,34.69 28.12,62.81 62.81,62.81 34.68,0 62.8,-28.12 62.8,-62.81 0,-34.68 -28.12,-62.8 -62.8,-62.8 -34.69,0 -44.68,38.79 -46.06,47.64"/>
   <path class="fil0 str1" d="M1995.92 928.95c-87.99,0 -159.32,71.33 -159.32,159.32 0,87.99 71.33,159.32 159.32,159.32 87.99,0 159.32,-71.33 159.32,-159.32 0,-87.99 -71.33,-159.32 -159.32,-159.32 -87.99,0 -124.82,101.14 -130.59,142.37"/>
   <path class="fil0 str1" d="M1995.92 1266.84c-87.99,0 -159.32,71.33 -159.32,159.32 0,87.99 71.33,159.32 159.32,159.32 87.99,0 159.32,-71.33 159.32,-159.32 0,-87.99 -71.33,-159.32 -159.32,-159.32 -87.99,0 -124.82,101.14 -130.59,142.37"/>
   <path class="fil0 str1" d="M1996.84 1610.01c-79.03,0 -143.1,64.07 -143.1,143.1 0,79.03 64.07,143.1 143.1,143.1 79.04,0 143.11,-64.07 143.11,-143.1 0,-79.03 -64.07,-143.1 -143.11,-143.1 -79.03,0 -112.11,90.84 -117.3,127.87"/>
  </g>
 </g>
</svg>
