<?xml version="1.0" encoding="UTF-8"?>
<!DOCTYPE svg PUBLIC "-//W3C//DTD SVG 1.1//EN" "http://www.w3.org/Graphics/SVG/1.1/DTD/svg11.dtd">
<!-- Creator: CorelDRAW 2020 (64-Bit) -->
<svg xmlns="http://www.w3.org/2000/svg" xml:space="preserve" width="40mm" height="60mm" version="1.1" style="shape-rendering:geometricPrecision; text-rendering:geometricPrecision; image-rendering:optimizeQuality; fill-rule:evenodd; clip-rule:evenodd"
viewBox="0 0 4000 6000"
 xmlns:xlink="http://www.w3.org/1999/xlink"
 xmlns:xodm="http://www.corel.com/coreldraw/odm/2003">
 <defs>
  <style type="text/css">
   <![CDATA[
    .str1 {stroke:#332C2B;stroke-width:20;stroke-miterlimit:22.9256}
    .str2 {stroke:#332C2B;stroke-width:20;stroke-miterlimit:22.9256}
    .str0 {stroke:#E62129;stroke-width:20;stroke-miterlimit:22.9256}
    .fil0 {fill:none}
   ]]>
  </style>
   <clipPath id="id0">
    <rect x="-44713.96" y="-4902.75" width="14771.55" height="16995.98"/>
   </clipPath>
 </defs>
 <g id="图层_x0020_1">
  <metadata id="CorelCorpID_0Corel-Layer"/>
  <g style="clip-path:url(#id0)">
   <image x="-44713.96" y="-4902.75" width="14771.55" height="16995.98" xlink:href="12 Ultra -11i（背膜）_Images\12 Ultra -11i（背膜）_ImgID1.png"/>
  </g>
  <rect class="fil0 str0" x="-44303.54" y="-4533.07" width="7460" height="16430"/>
  <rect class="fil0 str0" x="-44223.78" y="-4461.05" width="7300.48" height="16289.24" rx="900" ry="987.68"/>
  <rect class="fil0 str1" x="-43649.6" y="-3835.17" width="6148.94" height="4253.17" rx="706.08" ry="693.74"/>
  <path class="fil0 str2" d="M-2606.37 5694.27l0 -5860.31c0,-494.99 -405.01,-900 -899.99,-900l-14489.25 0c-494.99,0 -900,405 -900,900l0 5500.48c0,495 405.01,900 900,900l14489.25 0c494.99,0 899.99,-405 899.99,-900 0,-495 72.71,-813.25 171.93,-941.57"/>
  <path class="fil0 str2" d="M-18269.73 4966.52c0,381.56 312.18,693.74 693.74,693.74l2865.69 0c381.56,0 693.74,-312.18 693.74,-693.74l0 -4761.46c0,-381.56 -312.18,-693.74 -693.74,-693.74l-2865.69 0c-381.56,0 -693.74,312.18 -693.74,693.74l0 4761.46c0,0 22.45,-1147.78 296.3,-1374"/>
  <g id="_1999031302144">
   <path class="fil0 str2" d="M1105.41 5306.58l1673.24 0c141.33,0 256.97,-115.64 256.97,-256.96l0 -4136.98c0,-141.33 -115.64,-256.97 -256.97,-256.97l-1570.5 0c-141.33,0 -256.97,115.64 -256.97,256.97l0 4136.98c0,141.33 115.64,256.96 256.97,256.96 141.33,0 232.2,20.76 268.84,49.09"/>
   <path class="fil0 str2" d="M1313.2 834.37c-108.95,0 -198.08,89.14 -198.08,198.08l0 818.21c0,108.95 89.13,198.08 198.08,198.08l1359.49 0c108.95,0 198.08,-89.13 198.08,-198.08l0 -818.21c0,-108.94 -89.13,-198.08 -198.08,-198.08l-1359.49 0c0,0 327.71,6.41 392.3,84.6"/>
  </g>
 </g>
</svg>
