<?xml version="1.0" encoding="UTF-8"?>
<!DOCTYPE svg PUBLIC "-//W3C//DTD SVG 1.1//EN" "http://www.w3.org/Graphics/SVG/1.1/DTD/svg11.dtd">
<!-- Creator: CorelDRAW -->
<svg xmlns="http://www.w3.org/2000/svg" xml:space="preserve" width="40mm" height="60mm" style="shape-rendering:geometricPrecision; text-rendering:geometricPrecision; image-rendering:optimizeQuality; fill-rule:evenodd; clip-rule:evenodd"
viewBox="0 0 40 60"
 xmlns:xlink="http://www.w3.org/1999/xlink">
 <defs>
  <style type="text/css">
   <![CDATA[
    .str0 {stroke:#1F1A17;stroke-width:0.194}
    .fil0 {fill:none;fill-rule:nonzero}
   ]]>
  </style>
 </defs>
 <g id="图层_x0020_1">
  <metadata id="CorelCorpID_0Corel-Layer"/>
  <g id="_154213976">
   <g>
    <line id="_155219424" class="fil0 str0" x1="31.254" y1="6.5" x2="31.254" y2= "6.8366" />
    <line id="_155206976" class="fil0 str0" x1="21.2087" y1="8.7928" x2="21.2087" y2= "8.9022" />
    <path id="_155207360" class="fil0 str0" d="M21.2087 8.9022c-0.0523,-0.0178 -0.0725,-0.0309 -0.1094,-0.0678 0.0012,-0.0654 0.0083,-0.0892 0.0333,-0.1344"/>
    <line id="_153699720" class="fil0 str0" x1="21.1326" y1="8.7" x2="21.1921" y2= "8.6739" />
    <path id="_136354000" class="fil0 str0" d="M21.1921 8.6739c-0.0523,-0.1308 -0.0809,-0.1903 -0.22,-0.446"/>
    <polyline id="_136355008" class="fil0 str0" points="20.9721,8.2279 20.9721,8.2363 20.9638,8.2446 20.9554,8.2446 20.9388,8.2612 20.871,8.2113 20.8627,8.2196 "/>
    <path id="_153699816" class="fil0 str0" d="M20.8627 8.2196c-0.0012,0.0167 -0.006,0.0571 -0.0084,0.0666"/>
    <line id="_153700128" class="fil0 str0" x1="20.8543" y1="8.2862" x2="19.8424" y2= "8.2731" />
    <path id="_136354960" class="fil0 str0" d="M19.8424 8.2731c-0.3378,-0.0035 -0.2533,-0.0035 -0.5911,-0.0047 -0.4138,0 -0.6326,0.0238 -0.7646,0.0868 -0.1332,0.0618 -0.1855,0.1641 -0.1855,0.3591 0,0.1094 0.0118,0.1713 0.0416,0.22 0.0357,0.0559 0.0987,0.094 0.2021,0.1201 0.1879,0.0488 0.4888,0.0631 1.3284,0.0631 0.9644,0 1.3235,-0.0167 1.5471,-0.0702 0.1213,-0.0285 0.1962,-0.0702 0.2379,-0.132 0.0368,-0.0535 0.0523,-0.1225 0.0523,-0.239 0,-0.2391 -0.151,-0.3758 -0.4341,-0.3937"/>
    <line id="_136354432" class="fil0 str0" x1="21.2765" y1="8.2826" x2="20.1801" y2= "8.2862" />
    <polyline id="_153700176" class="fil0 str0" points="9.0645,52.683 8.9552,52.683 8.9718,52.6069 9.0312,52.5641 9.0978,52.5641 9.1573,52.6069 9.1823,52.6747 26.6625,52.683 "/>
    <path id="_137032904" class="fil0 str0" d="M26.6625 52.683c1.9443,0.0012 1.9443,0.0012 2.1084,-0.0392"/>
    <line id="_136354864" class="fil0 str0" x1="28.7709" y1="52.6438" x2="28.8578" y2= "52.6211" />
    <path id="_153698376" class="fil0 str0" d="M28.8578 52.6211c1.2676,-0.2699 2.1809,-1.2593 2.3807,-2.5793"/>
    <polyline id="_137032640" class="fil0 str0" points="31.2385,50.0418 31.2552,49.528 31.2397,9.1531 "/>
    <path id="_154214312" class="fil0 str0" d="M31.2397 9.1531c-0.1082,-1.3652 -1.4151,-2.5996 -2.8089,-2.6519"/>
    <line id="_153699792" class="fil0 str0" x1="28.4308" y1="6.5012" x2="11.8306" y2= "6.5167" />
    <path id="_137033192" class="fil0 str0" d="M11.8306 6.5167c-1.5863,0.0011 -2.8065,1.0358 -3.0443,2.5829"/>
    <line id="_154219400" class="fil0 str0" x1="8.7863" y1="9.0996" x2="8.753" y2= "29.6159" />
    <path id="_136354216" class="fil0 str0" d="M8.753 29.6159c-0.0107,6.6489 -0.0107,13.2966 -0.0012,19.9454 0.0226,1.1333 0.4305,1.9753 1.2475,2.5758 0.5506,0.4044 1.0203,0.5483 1.8884,0.5792"/>
    <line id="_137033600" class="fil0 str0" x1="11.8877" y1="52.7163" x2="11.8877" y2= "52.7496" />
    <path id="_136354192" class="fil0 str0" d="M11.8877 52.7496c-0.0059,0.006 -0.0119,0.0143 -0.0166,0.0261 0.1617,0.1689 0.2949,0.3509 0.5304,0.7243"/>
   </g>
  </g>
 </g>
</svg>
