<?xml version="1.0" encoding="UTF-8"?>
<!DOCTYPE svg PUBLIC "-//W3C//DTD SVG 1.1//EN" "http://www.w3.org/Graphics/SVG/1.1/DTD/svg11.dtd">
<!-- Creator: CorelDRAW -->
<svg xmlns="http://www.w3.org/2000/svg" xml:space="preserve" width="40mm" height="60mm" style="shape-rendering:geometricPrecision; text-rendering:geometricPrecision; image-rendering:optimizeQuality; fill-rule:evenodd; clip-rule:evenodd"
viewBox="0 0 40 60"
 xmlns:xlink="http://www.w3.org/1999/xlink">
 <defs>
  <style type="text/css">
   <![CDATA[
    .str0 {stroke:#1F1A17;stroke-width:0.194}
    .fil0 {fill:none;fill-rule:nonzero}
   ]]>
  </style>
 </defs>
 <g id="图层_x0020_1">
  <metadata id="CorelCorpID_0Corel-Layer"/>
  <path class="fil0 str0" d="M26.3871 53.498l-17.5209 -0.0303c-0.0146,-0.0064 -0.03,-0.0098 -0.0461,-0.0134 -0.1682,-0.0371 -0.2716,-0.1179 -0.3086,-0.2424l-0.0451 -45.9464m1.0386 -0.73c-0.7074,0.0027 -0.828,0.0159 -0.9181,0.106 -0.0808,0.0808 -0.1099,0.2305 -0.1205,0.624m11.9727 -0.7538l-10.9341 0.0238m22.0286 2.9912c-0.0305,-2.1407 -0.0914,-2.7408 -0.298,-2.9143 -0.1458,-0.1245 -0.0676,-0.1232 -10.7965,-0.1007m10.9435 46.2087l0.151 -43.1937m-5.1465 43.9713c3.5145,0.0066 4.2126,-0.0013 4.5623,-0.057 0.3484,-0.0556 0.416,-0.1655 0.4332,-0.7206m-21.5126 -44.8626c-0.3059,0.3224 -0.5293,0.8436 -0.5293,1.3987 0,1.134 0.9233,2.0493 2.0652,2.0493 1.1459,0 2.0719,-0.9246 2.0719,-2.0692 0,-1.1472 -0.922,-2.0692 -2.0679,-2.0692 -0.625,0 -0.9956,0.1521 -1.5399,0.6904zm11.0301 -0.1539l-0.922 -0.0053c-1.0809,0 -1.5114,0.008 -1.8148,0.0345 -0.3046,0.0265 -0.4636,0.0702 -0.6729,0.1828 -0.4663,0.2504 -0.7604,0.763 -0.7604,1.3247 0,0.9008 0.6226,1.4943 1.6135,1.5393 0.4901,0.0212 1.1578,0.0345 1.8015,0.0345 0.82,0 1.4651,-0.0212 1.6453,-0.053 0.8531,-0.1537 1.2797,-0.6571 1.2797,-1.5115 -0.0013,-0.7644 -0.5564,-1.4082 -1.3075,-1.5142 -0.1895,-0.0265 -0.3656,-0.0331 -0.8624,-0.0318"/>
 </g>
</svg>
