<?xml version="1.0" encoding="UTF-8"?>
<!DOCTYPE svg PUBLIC "-//W3C//DTD SVG 1.1//EN" "http://www.w3.org/Graphics/SVG/1.1/DTD/svg11.dtd">
<!-- Creator: CorelDRAW X8 -->
<svg xmlns="http://www.w3.org/2000/svg" xml:space="preserve" width="40mm" height="60mm" version="1.1" style="shape-rendering:geometricPrecision; text-rendering:geometricPrecision; image-rendering:optimizeQuality; fill-rule:evenodd; clip-rule:evenodd"
viewBox="0 0 4000 6000"
 xmlns:xlink="http://www.w3.org/1999/xlink">
 <defs>
  <style type="text/css">
   <![CDATA[
    .str0 {stroke:#222222;stroke-width:20}
    .fil0 {fill:none}
   ]]>
  </style>
 </defs>
 <g id="图层_x0020_1">
  <metadata id="CorelCorpID_0Corel-Layer"/>
  <g id="_2166884402400">
   <path class="fil0 str0" d="M1339 5350c0,-74 -82,-131 -179,-131 -97,0 -177,-79 -177,-177l0 -4216c0,-97 80,-176 177,-176l1736 0c97,0 177,79 177,176l0 4216c0,98 -80,177 -177,177l-1968 0"/>
   <path class="fil0 str0" d="M1988 812c0,-16 6,-63 37,-63 31,0 56,25 56,56 0,31 -25,56 -56,56 -31,0 -56,-25 -56,-56 0,-31 25,-56 56,-56"/>
  </g>
  <path class="fil0 str0" d="M-3419 4937c-258,0 -457,286 -457,624 0,339 -277,616 -616,616l-14703 0c-339,0 -616,-277 -616,-616l0 -6055c0,-338 277,-615 616,-615l14703 0c339,0 616,277 616,615l0 6866"/>
  <path class="fil0 str0" d="M-19246 2673c-56,0 -221,-20 -221,-129 0,-109 88,-197 197,-197 108,0 197,88 197,197 0,109 -89,197 -197,197 -109,0 -197,-88 -197,-197"/>
 </g>
</svg>
