<?xml version="1.0" encoding="UTF-8"?>
<!DOCTYPE svg PUBLIC "-//W3C//DTD SVG 1.1//EN" "http://www.w3.org/Graphics/SVG/1.1/DTD/svg11.dtd">
<!-- Creator: CorelDRAW X8 -->
<svg xmlns="http://www.w3.org/2000/svg" xml:space="preserve" width="40mm" height="60mm" version="1.1" style="shape-rendering:geometricPrecision; text-rendering:geometricPrecision; image-rendering:optimizeQuality; fill-rule:evenodd; clip-rule:evenodd"
viewBox="0 0 4000 6000"
 xmlns:xlink="http://www.w3.org/1999/xlink">
 <defs>
  <style type="text/css">
   <![CDATA[
    .str0 {stroke:black;stroke-width:7.62}
    .fil0 {fill:none}
   ]]>
  </style>
 </defs>
 <g id="图层_x0020_1">
  <metadata id="CorelCorpID_0Corel-Layer"/>
  <path class="fil0 str0" d="M2188 1935l807 0c124,0 226,-102 226,-226l0 -834c0,-124 -102,-225 -226,-225l-673 0c-124,0 -225,101 -225,225l0 834c0,124 101,226 225,226l72 0c70,0 110,14 124,28m-1647 -28l807 0c124,0 225,-102 225,-226l0 -834c0,-124 -101,-225 -225,-225l-673 0c-124,0 -226,101 -226,225l0 834c0,124 102,226 226,226l72 0c70,0 110,14 123,28m988 1688l807 0c124,0 226,-101 226,-225l0 -834c0,-124 -102,-225 -226,-225l-673 0c-124,0 -225,101 -225,225l0 834c0,124 101,225 225,225l72 0c70,0 110,15 124,29m-1647 -29l807 0c124,0 225,-101 225,-225l0 -834c0,-124 -101,-225 -225,-225l-673 0c-124,0 -226,101 -226,225l0 834c0,124 102,225 226,225l72 0c70,0 110,15 123,29m988 1642l807 0c124,0 226,-102 226,-226l0 -834c0,-124 -102,-225 -226,-225l-673 0c-124,0 -225,101 -225,225l0 834c0,124 101,226 225,226l72 0c70,0 110,14 124,28m-1647 -28l807 0c124,0 225,-102 225,-226l0 -834c0,-124 -101,-225 -225,-225l-673 0c-124,0 -226,101 -226,225l0 834c0,124 102,226 226,226l72 0c70,0 110,14 123,28"/>
 </g>
</svg>
