<?xml version="1.0" encoding="UTF-8"?>
<!DOCTYPE svg PUBLIC "-//W3C//DTD SVG 1.1//EN" "http://www.w3.org/Graphics/SVG/1.1/DTD/svg11.dtd">
<!-- Creator: CorelDRAW X8 -->
<svg xmlns="http://www.w3.org/2000/svg" xml:space="preserve" width="40mm" height="60mm" version="1.1" style="shape-rendering:geometricPrecision; text-rendering:geometricPrecision; image-rendering:optimizeQuality; fill-rule:evenodd; clip-rule:evenodd"
viewBox="0 0 4000 6000"
 xmlns:xlink="http://www.w3.org/1999/xlink">
 <defs>
  <style type="text/css">
   <![CDATA[
    .str0 {stroke:black;stroke-width:7.62}
    .fil0 {fill:none}
   ]]>
  </style>
 </defs>
 <g id="图层_x0020_1">
  <metadata id="CorelCorpID_0Corel-Layer"/>
  <path class="fil0 str0" d="M3424 1653c7,10 11,22 11,35 0,33 -27,59 -60,59 -33,0 -59,-26 -59,-59 0,-13 3,-26 10,-36 5,-7 7,-10 7,-15l0 -9c0,-5 -2,-8 -5,-10 -39,-19 -71,-59 -71,-107 0,-64 52,-115 116,-115 64,0 116,62 116,115 0,51 -25,88 -62,107 -6,3 -8,6 -8,12l0 8c0,5 1,9 5,15zm-24 138c-1,-10 -9,-19 -27,-20 -63,0 -113,51 -113,114 0,63 50,113 113,113 63,0 114,-50 114,-113 0,-63 -51,-114 -114,-114m-297 -378c-1,-14 -13,-26 -37,-28 -87,0 -157,70 -157,157 0,87 70,157 157,157 86,0 157,-70 157,-157 0,-87 -71,-157 -157,-157m37 391c-1,-14 -13,-26 -37,-28 -87,0 -157,70 -157,157 0,87 70,157 157,157 86,0 157,-70 157,-157 0,-87 -71,-157 -157,-157m37 393c-1,-13 -13,-25 -37,-27 -87,0 -157,70 -157,157 0,86 70,157 157,157 86,0 157,-71 157,-157 0,-87 -71,-157 -157,-157m-355 88c-16,5 -29,13 -29,53l0 34c0,18 15,33 33,33l0 0c18,0 32,-15 32,-33l0 -401c0,-18 -14,-33 -32,-33l0 0c-18,0 -33,15 -33,33l0 367m31 376c-16,4 -29,13 -29,53l0 34c0,18 15,32 32,32l0 0c18,0 33,-14 33,-32l0 -196c0,-18 -15,-32 -33,-32l0 0c-17,0 -32,14 -32,32l0 162m-841 -1325c0,-4 -4,-8 -11,-8 -25,0 -46,20 -46,46 0,26 21,47 46,47 26,0 47,-21 47,-47 0,-26 -21,-46 -47,-46m995 -43l821 0c12,0 25,10 25,22l0 43c0,9 7,22 14,26l81 50c4,2 9,8 9,15l-2 154c0,12 -5,21 -12,25l-85 52c-4,2 -5,5 -5,12l0 151c0,9 7,21 14,26l79 48c7,5 11,12 11,22l0 160c0,6 -1,9 -5,11l-92 60c-3,2 -5,5 -5,12l0 149c0,8 7,21 15,25l76 50c9,6 11,9 11,19l0 160c0,7 -2,10 -9,14l-88 55c-3,2 -5,5 -5,12l0 149c0,8 7,21 15,25l78 50c6,4 9,11 9,19l0 150c0,12 -3,18 -11,22l-86 55c-3,2 -5,5 -5,12l0 153c0,9 7,21 15,25l77 49c7,4 10,11 10,21l-2 159c0,6 -3,10 -7,12l-86 54c-4,2 -7,8 -7,14l0 150c0,9 7,21 15,25l77 50c7,4 10,10 10,23l0 155c0,9 -2,12 -8,16l-89 57c-3,2 -5,5 -5,12l0 146c0,9 7,22 15,26l80 53c6,4 7,6 7,14l0 154c0,12 -2,16 -11,22l-86 55c-3,2 -5,5 -5,12l0 80c0,14 -9,28 -30,28l-818 0c-30,0 -50,-26 -50,-51 0,-10 -13,-29 -40,-29l-36 0c-29,0 -53,21 -53,48 0,28 -23,42 -51,42l-1524 2c-28,1 -47,-25 -49,-53 -1,-17 -21,-34 -43,-34l-35 0c-17,0 -49,15 -49,39 0,27 -22,42 -49,42l-527 0c-19,0 -34,-15 -34,-33l0 -69c0,-10 4,-22 12,-27l73 -47c8,-4 15,-17 15,-26l0 -157c0,-7 -2,-10 -5,-12l-88 -57c-6,-4 -10,-11 -10,-19l2 -148c0,-5 2,-12 6,-15l80 -52c9,-5 15,-12 15,-26l0 -155c0,-7 -2,-10 -5,-12l-90 -58c-7,-3 -9,-8 -9,-16l0 -151c0,-7 4,-16 10,-20l79 -49c8,-4 15,-17 15,-26l0 -153c0,-7 -2,-9 -5,-12l-89 -55c-6,-4 -11,-13 -11,-18l0 -155c0,-10 4,-15 13,-20l75 -49c8,-5 15,-17 15,-26l0 -149c0,-6 -2,-9 -5,-11l-90 -59c-5,-3 -9,-8 -9,-16l0 -152c0,-8 3,-13 9,-17l80 -52c8,-5 15,-17 15,-26l0 -153c0,-7 -2,-9 -5,-12l-87 -54c-10,-6 -13,-12 -13,-27l0 -136c0,-15 6,-25 15,-31l73 -47c8,-5 15,-17 15,-26l-2 -153c0,-7 -2,-10 -6,-12l-84 -51c-12,-7 -14,-15 -14,-30l0 -129c0,-24 9,-35 23,-43l66 -40c7,-4 15,-16 15,-25l0 -156c0,-6 -2,-9 -6,-11l-86 -51c-7,-4 -10,-15 -11,-24l0 -30c0,-18 16,-33 34,-33l536 0c27,0 49,21 49,48 0,16 18,30 34,30l38 0c33,0 51,-28 51,-49 0,-25 23,-44 51,-44l1526 0c28,0 51,20 51,49 0,17 24,40 43,40l44 0c18,0 37,-16 37,-33 0,-30 21,-48 55,-48z"/>
 </g>
</svg>
