<?xml version="1.0" encoding="UTF-8"?>
<!DOCTYPE svg PUBLIC "-//W3C//DTD SVG 1.1//EN" "http://www.w3.org/Graphics/SVG/1.1/DTD/svg11.dtd">
<!-- Creator: CorelDRAW -->
<svg xmlns="http://www.w3.org/2000/svg" xml:space="preserve" width="40mm" height="60mm" style="shape-rendering:geometricPrecision; text-rendering:geometricPrecision; image-rendering:optimizeQuality; fill-rule:evenodd; clip-rule:evenodd"
viewBox="0 0 40 60"
 xmlns:xlink="http://www.w3.org/1999/xlink">
 <defs>
  <style type="text/css">
   <![CDATA[
    .str0 {stroke:#1F1A17;stroke-width:0.194}
    .fil0 {fill:none;fill-rule:nonzero}
   ]]>
  </style>
 </defs>
 <g id="图层_x0020_2">
  <metadata id="CorelCorpID_0Corel-Layer"/>
  <path class="fil0 str0" d="M27.3429 54.9294c-6.2113,0 -11.6181,0.0088 -17.8294,0.0088 -0.8572,-0.0289 -1.4677,-0.487 -1.7335,-1.2988 -0.0333,-0.1011 -0.0366,-0.1445 -0.0378,-0.5748"/>
  <line class="fil0 str0" x1="7.7422" y1="53.0646" x2="7.6477" y2= "17.6618" />
  <path class="fil0 str0" d="M7.6477 17.6618c-0.0155,-5.8477 0.01,-8.0582 0.099,-8.3373 0.2201,-0.7005 0.666,-1.1564 1.311,-1.3466"/>
  <line class="fil0 str0" x1="9.0577" y1="7.9779" x2="9.091" y2= "7.9646" />
  <path class="fil0 str0" d="M9.091 7.9646c0.0501,-0.0267 0.0512,-0.0267 2.5908,-0.0256"/>
  <line class="fil0 str0" x1="11.6818" y1="7.939" x2="27.5624" y2= "7.9468" />
  <path class="fil0 str0" d="M27.5624 7.9468c0.5626,0.0434 1.1809,0.5582 1.4066,1.172"/>
  <polyline class="fil0 str0" points="28.969,9.1188 29.0157,9.2444 29.0468,9.4257 29.0546,9.8137 29.0146,53.2569 29.0223,53.506 "/>
  <path class="fil0 str0" d="M29.0223 53.506c0,0.3236 -0.3124,0.8295 -0.6749,1.0897 -0.2368,0.1713 -0.5226,0.2769 -0.8562,0.318"/>
  <polyline class="fil0 str0" points="27.4912,54.9137 27.4101,54.9248 27.2215,54.9336 27.2071,54.9387 "/>
 </g>
</svg>
