<?xml version="1.0" encoding="UTF-8"?>
<!DOCTYPE svg PUBLIC "-//W3C//DTD SVG 1.1//EN" "http://www.w3.org/Graphics/SVG/1.1/DTD/svg11.dtd">
<!-- Creator: CorelDRAW X8 -->
<svg xmlns="http://www.w3.org/2000/svg" xml:space="preserve" width="40mm" height="60mm" version="1.1" style="shape-rendering:geometricPrecision; text-rendering:geometricPrecision; image-rendering:optimizeQuality; fill-rule:evenodd; clip-rule:evenodd"
viewBox="0 0 4000 6000"
 xmlns:xlink="http://www.w3.org/1999/xlink">
 <defs>
  <style type="text/css">
   <![CDATA[
    .str0 {stroke:black;stroke-width:7.62}
    .fil0 {fill:none}
   ]]>
  </style>
 </defs>
 <g id="图层_x0020_1">
  <metadata id="CorelCorpID_0Corel-Layer"/>
  <path class="fil0 str0" d="M1270 5350c-20,-30 -82,-43 -119,-43 -133,0 -242,-109 -242,-242l0 -4173c0,-133 109,-242 242,-242l629 0c5,0 8,0 11,4l7 7c4,3 6,4 12,4l82 0c22,0 42,13 42,42l0 59c0,38 31,69 69,69l0 0c38,0 69,-31 69,-69l0 -66c0,-30 19,-35 39,-35l83 0c3,0 4,0 6,-2l10 -10c2,-2 3,-3 6,-3l633 0c133,0 242,109 242,242l0 4173c0,133 -109,242 -242,242l-1865 0"/>
 </g>
</svg>
