<?xml version="1.0" encoding="UTF-8"?>
<!DOCTYPE svg PUBLIC "-//W3C//DTD SVG 1.1//EN" "http://www.w3.org/Graphics/SVG/1.1/DTD/svg11.dtd">
<!-- Creator: CorelDRAW -->
<svg xmlns="http://www.w3.org/2000/svg" xml:space="preserve" width="40mm" height="60mm" style="shape-rendering:geometricPrecision; text-rendering:geometricPrecision; image-rendering:optimizeQuality; fill-rule:evenodd; clip-rule:evenodd"
viewBox="0 0 40 60"
 xmlns:xlink="http://www.w3.org/1999/xlink">
 <defs>
  <style type="text/css">
   <![CDATA[
    .str0 {stroke:#1F1A17;stroke-width:0.194}
    .fil0 {fill:none;fill-rule:nonzero}
   ]]>
  </style>
 </defs>
 <g id="图层_x0020_1">
  <metadata id="CorelCorpID_0Corel-Layer"/>
  <path class="fil0 str0" d="M13.5806 10.1753l-1.7819 0.0245c-0.23,-0.0574 -0.4065,-0.0919 -0.6884,-0.0919m-2.3797 0.1446l0.0724 -0.0012 1.4172 -0.0993 0.8901 -0.0441m-5.8394 30.3038c-0.0834,-3.8018 -0.1557,-7.6024 -0.217,-11.4029 -0.0356,-2.1871 -0.0539,-4.1499 -0.0539,-5.8896 0,-5.6125 0.1397,-8.8712 0.4168,-9.7367 0.3195,-0.9896 0.7376,-2.2727 1.7188,-2.783 0.4242,-0.2207 0.9563,-0.3359 1.595,-0.347m-3.179 43.0332l-0.2807 -12.874m3.0515 16.3398c-1.7544,-0.2574 -2.7278,-1.4748 -2.7708,-3.4658m3.0454 3.5051l-0.2746 -0.0393m5.3073 0.2121c-3.971,-0.0172 -3.971,-0.0172 -5.0327,-0.1728m13.5409 0.2072l-8.5082 -0.0344m7.3913 -46.3114c0.1287,0 0.2207,-0.0882 0.3666,-0.3494 0.0821,-0.1483 0.1544,-0.1802 0.4585,-0.2035 0.8092,-0.0601 2.0964,-0.0993 3.228,-0.0993 1.7591,0 4.6852,0.1362 4.5607,2.7119 -0.1827,3.2035 0.5365,14.4249 0.5096,26.8943 0.1477,3.9478 -0.1459,11.0057 -0.6482,15.4326 -0.266,0.8263 -0.8729,1.3069 -2.0106,1.5926 -0.3421,0.0846 -1.4135,0.2219 -2.4495,0.3114 -0.5934,0.0515 -1.1806,0.0625 -2.8982,0.0552m-1.2125 -46.3629l0.0956 0.0171m-1.1794 -0.1189c0.5039,0 0.8018,0.0282 1.0838,0.1018m-6.2316 0.114l4.1548 -0.1937 0.993 -0.0221m-5.1478 0.2158c-0.3421,0 -0.5014,-0.1165 -0.6485,-0.5143 -0.1435,-0.0521 -0.26,-0.0595 -0.4647,-0.0595m-3.6244 0.8112c0.4213,0 0.763,0.3207 0.763,0.7162 0,0.3955 -0.3417,0.7163 -0.763,0.7163 -0.4214,0 -0.763,-0.3208 -0.763,-0.7163 0,-0.3955 0.3416,-0.7162 0.763,-0.7162z"/>
 </g>
</svg>
