<?xml version="1.0" encoding="UTF-8"?>
<!DOCTYPE svg PUBLIC "-//W3C//DTD SVG 1.1//EN" "http://www.w3.org/Graphics/SVG/1.1/DTD/svg11.dtd">
<!-- Creator: CorelDRAW -->
<svg xmlns="http://www.w3.org/2000/svg" xml:space="preserve" width="40mm" height="60mm" style="shape-rendering:geometricPrecision; text-rendering:geometricPrecision; image-rendering:optimizeQuality; fill-rule:evenodd; clip-rule:evenodd"
viewBox="0 0 40 60"
 xmlns:xlink="http://www.w3.org/1999/xlink">
 <defs>
  <style type="text/css">
   <![CDATA[
    .str0 {stroke:#1F1A17;stroke-width:0.194}
    .str1 {stroke:#1F1A17;stroke-width:0.2}
    .fil1 {fill:none}
    .fil0 {fill:none;fill-rule:nonzero}
   ]]>
  </style>
 </defs>
 <g id="图层_x0020_1">
  <metadata id="CorelCorpID_0Corel-Layer"/>
  <g id="_216276984">
   <line id="_274515544" class="fil0 str0" x1="15.2354" y1="8.9184" x2="15.2049" y2= "8.8777" />
   <line id="_274508200" class="fil0 str0" x1="29.5705" y1="53.4788" x2="17.1616" y2= "53.4982" />
   <path id="_274381216" class="fil0 str0" d="M17.1616 53.4982c-7.2075,0.0058 -7.2075,0.0058 -7.7062,-0.1294"/>
   <line id="_274382032" class="fil0 str0" x1="9.4554" y1="53.3688" x2="9.4002" y2= "53.3528" />
   <path id="_216276048" class="fil0 str0" d="M9.4002 53.3528c-0.676,-0.1846 -1.0278,-0.7385 -1.0292,-1.6194"/>
   <line id="_274512352" class="fil0 str0" x1="8.371" y1="51.7334" x2="8.2925" y2= "8.5986" />
   <path id="_216277248" class="fil0 str0" d="M8.2925 8.5986c0.0683,-1.6558 0.5509,-2.0774 2.3855,-2.0847 3.1066,-0.0116 6.2117,-0.016 9.3184,-0.013"/>
   <line id="_216277224" class="fil0 str0" x1="19.9964" y1="6.5009" x2="29.931" y2= "6.5139" />
   <path id="_216275808" class="fil0 str0" d="M29.931 6.5139c1.1223,0.0509 1.7227,0.5728 1.7765,1.5439"/>
   <line id="_46558232" class="fil0 str0" x1="31.7075" y1="8.0578" x2="31.6799" y2= "52.1477" />
   <path id="_216279288" class="fil0 str0" d="M31.6799 52.1477c-0.1004,0.6295 -0.4681,1.0612 -1.022,1.2037 -0.2326,0.0596 -0.391,0.0785 -0.9813,0.1192 -0.0494,0.0029 -0.093,0.0073 -0.1293,0.0102"/>
   <circle id="_273734696" class="fil1 str1" cx="14.7051" cy="8.51863" r="0.630233"/>
   <rect id="_274381792" class="fil1 str1" x="16.4702" y="7.85135" width="9.93843" height="1.27147" rx="1.5427" ry="1.5427"/>
  </g>
 </g>
</svg>
