<?xml version="1.0" encoding="UTF-8"?>
<!DOCTYPE svg PUBLIC "-//W3C//DTD SVG 1.1//EN" "http://www.w3.org/Graphics/SVG/1.1/DTD/svg11.dtd">
<!-- Creator: CorelDRAW X8 -->
<svg xmlns="http://www.w3.org/2000/svg" xml:space="preserve" width="40mm" height="60mm" version="1.1" style="shape-rendering:geometricPrecision; text-rendering:geometricPrecision; image-rendering:optimizeQuality; fill-rule:evenodd; clip-rule:evenodd"
viewBox="0 0 4000 6000"
 xmlns:xlink="http://www.w3.org/1999/xlink">
 <defs>
  <style type="text/css">
   <![CDATA[
    .str0 {stroke:black;stroke-width:7.62}
    .fil0 {fill:none}
   ]]>
  </style>
 </defs>
 <g id="图层_x0020_1">
  <metadata id="CorelCorpID_0Corel-Layer"/>
  <path class="fil0 str0" d="M1305 5350c-22,-19 -53,-45 -92,-45l-52 0c-120,0 -218,-98 -218,-217l0 -4221c0,-119 98,-217 218,-217l392 0c2,0 4,0 6,2l10 9c2,3 3,3 7,3l849 0c2,0 4,0 5,-2l9 -10c2,-2 3,-2 5,-2l395 0c120,0 218,98 218,217l0 4221c0,119 -98,217 -218,217l-1803 0"/>
 </g>
</svg>
