<?xml version="1.0" encoding="UTF-8"?>
<!DOCTYPE svg PUBLIC "-//W3C//DTD SVG 1.1//EN" "http://www.w3.org/Graphics/SVG/1.1/DTD/svg11.dtd">
<!-- Creator: CorelDRAW X8 -->
<svg xmlns="http://www.w3.org/2000/svg" xml:space="preserve" width="40mm" height="60mm" version="1.1" style="shape-rendering:geometricPrecision; text-rendering:geometricPrecision; image-rendering:optimizeQuality; fill-rule:evenodd; clip-rule:evenodd"
viewBox="0 0 4000 6000"
 xmlns:xlink="http://www.w3.org/1999/xlink">
 <defs>
  <style type="text/css">
   <![CDATA[
    .str0 {stroke:black;stroke-width:7.62}
    .fil0 {fill:none}
   ]]>
  </style>
 </defs>
 <g id="图层_x0020_1">
  <metadata id="CorelCorpID_0Corel-Layer"/>
  <path class="fil0 str0" d="M1321 650l-547 0c-144,0 -263,118 -263,263l0 491c0,145 119,263 263,263l369 0c144,0 263,-118 263,-263l0 -491c0,-145 -119,-263 -263,-263l-73 0m24 940c2,18 18,36 52,38 121,0 219,-98 219,-219 0,-121 -98,-219 -219,-219 -121,0 -219,98 -219,219 0,121 98,219 219,219m-48 -535c1,19 18,36 52,39 121,0 219,-98 219,-219 0,-121 -98,-220 -219,-220 -121,0 -219,99 -219,220 0,121 98,219 219,219m-433 107c1,9 8,16 23,17 53,0 97,-43 97,-96 0,-53 -44,-97 -97,-97 -53,0 -96,44 -96,97 0,53 43,96 96,96m-12 211c0,4 4,8 11,9 27,0 49,-22 49,-49 0,-28 -22,-50 -49,-50 -27,0 -49,22 -49,50 0,27 22,49 49,49m1624 -826l-547 0c-145,0 -263,118 -263,263l0 491c0,145 118,263 263,263l368 0c145,0 263,-118 263,-263l0 -491c0,-145 -118,-263 -263,-263l-73 0m25 940c1,18 18,36 52,38 121,0 219,-98 219,-219 0,-121 -98,-219 -219,-219 -121,0 -220,98 -220,219 0,121 99,219 220,219m-49 -535c2,19 18,36 52,39 121,0 219,-98 219,-219 0,-121 -98,-220 -219,-220 -121,0 -219,99 -219,220 0,121 98,219 219,219m-432 107c0,9 8,16 23,17 53,0 96,-43 96,-96 0,-53 -43,-97 -96,-97 -54,0 -97,44 -97,97 0,53 43,96 97,96m-13 211c0,4 4,8 12,9 27,0 49,-22 49,-49 0,-28 -22,-50 -49,-50 -27,0 -49,22 -49,50 0,27 22,49 49,49m1623 -826l-547 0c-144,0 -263,118 -263,263l0 491c0,145 119,263 263,263l369 0c144,0 263,-118 263,-263l0 -491c0,-145 -119,-263 -263,-263l-74 0m25 940c2,18 18,36 52,38 121,0 219,-98 219,-219 0,-121 -98,-219 -219,-219 -121,0 -219,98 -219,219 0,121 98,219 219,219m-48 -535c1,19 18,36 52,39 121,0 219,-98 219,-219 0,-121 -98,-220 -219,-220 -121,0 -220,99 -220,220 0,121 99,219 220,219m-433 107c1,9 8,16 23,17 53,0 96,-43 96,-96 0,-53 -43,-97 -96,-97 -53,0 -96,44 -96,97 0,53 43,96 96,96m-13 211c1,4 4,8 12,9 27,0 49,-22 49,-49 0,-28 -22,-50 -49,-50 -27,0 -49,22 -49,50 0,27 22,49 49,49m-1501 998l-547 0c-144,0 -263,118 -263,263l0 491c0,145 119,263 263,263l369 0c144,0 263,-118 263,-263l0 -491c0,-145 -119,-263 -263,-263l-73 0m24 940c2,18 18,36 52,38 121,0 219,-98 219,-219 0,-121 -98,-219 -219,-219 -121,0 -219,98 -219,219 0,121 98,219 219,219m-48 -535c1,19 18,36 52,39 121,0 219,-98 219,-220 0,-121 -98,-219 -219,-219 -121,0 -219,98 -219,219 0,122 98,220 219,220m-433 107c1,8 8,16 23,17 53,0 97,-43 97,-96 0,-54 -44,-97 -97,-97 -53,0 -96,43 -96,97 0,53 43,96 96,96m-12 211c0,4 4,8 11,9 27,0 49,-22 49,-50 0,-27 -22,-49 -49,-49 -27,0 -49,22 -49,49 0,28 22,50 49,50m1624 -826l-547 0c-145,0 -263,118 -263,263l0 491c0,145 118,263 263,263l368 0c145,0 263,-118 263,-263l0 -491c0,-145 -118,-263 -263,-263l-73 0m25 940c1,18 18,36 52,38 121,0 219,-98 219,-219 0,-121 -98,-219 -219,-219 -121,0 -220,98 -220,219 0,121 99,219 220,219m-49 -535c2,19 18,36 52,39 121,0 219,-98 219,-220 0,-121 -98,-219 -219,-219 -121,0 -219,98 -219,219 0,122 98,220 219,220m-432 107c0,8 8,16 23,17 53,0 96,-43 96,-96 0,-54 -43,-97 -96,-97 -54,0 -97,43 -97,97 0,53 43,96 97,96m-13 211c0,4 4,8 12,9 27,0 49,-22 49,-50 0,-27 -22,-49 -49,-49 -27,0 -49,22 -49,49 0,28 22,50 49,50m1623 -826l-547 0c-144,0 -263,118 -263,263l0 491c0,145 119,263 263,263l369 0c144,0 263,-118 263,-263l0 -491c0,-145 -119,-263 -263,-263l-74 0m25 940c2,18 18,36 52,38 121,0 219,-98 219,-219 0,-121 -98,-219 -219,-219 -121,0 -219,98 -219,219 0,121 98,219 219,219m-48 -535c1,19 18,36 52,39 121,0 219,-98 219,-220 0,-121 -98,-219 -219,-219 -121,0 -220,98 -220,219 0,122 99,220 220,220m-433 107c1,8 8,16 23,17 53,0 96,-43 96,-96 0,-54 -43,-97 -96,-97 -53,0 -96,43 -96,97 0,53 43,96 96,96m-13 211c1,4 4,8 12,9 27,0 49,-22 49,-50 0,-27 -22,-49 -49,-49 -27,0 -49,22 -49,49 0,28 22,50 49,50m-1501 1033l-547 0c-144,0 -263,118 -263,263l0 491c0,145 119,263 263,263l369 0c144,0 263,-118 263,-263l0 -491c0,-145 -119,-263 -263,-263l-73 0m24 940c2,18 18,36 52,38 121,0 219,-98 219,-219 0,-121 -98,-219 -219,-219 -121,0 -219,98 -219,219 0,121 98,219 219,219m-48 -535c1,19 18,36 52,39 121,0 219,-98 219,-220 0,-121 -98,-219 -219,-219 -121,0 -219,98 -219,219 0,122 98,220 219,220m-433 107c1,8 8,16 23,17 53,0 97,-43 97,-96 0,-54 -44,-97 -97,-97 -53,0 -96,43 -96,97 0,53 43,96 96,96m-12 211c0,4 4,8 11,8 27,0 49,-22 49,-49 0,-27 -22,-49 -49,-49 -27,0 -49,22 -49,49 0,27 22,49 49,49m1624 -825l-547 0c-145,0 -263,118 -263,263l0 491c0,145 118,263 263,263l368 0c145,0 263,-118 263,-263l0 -491c0,-145 -118,-263 -263,-263l-73 0m25 940c1,18 18,36 52,38 121,0 219,-98 219,-219 0,-121 -98,-219 -219,-219 -121,0 -220,98 -220,219 0,121 99,219 220,219m-49 -535c2,19 18,36 52,39 121,0 219,-98 219,-220 0,-121 -98,-219 -219,-219 -121,0 -219,98 -219,219 0,122 98,220 219,220m-432 107c0,8 8,16 23,17 53,0 96,-43 96,-96 0,-54 -43,-97 -96,-97 -54,0 -97,43 -97,97 0,53 43,96 97,96m-13 211c0,4 4,8 12,8 27,0 49,-22 49,-49 0,-27 -22,-49 -49,-49 -27,0 -49,22 -49,49 0,27 22,49 49,49m1623 -825l-547 0c-144,0 -263,118 -263,263l0 491c0,145 119,263 263,263l369 0c144,0 263,-118 263,-263l0 -491c0,-145 -119,-263 -263,-263l-74 0m25 940c2,18 18,36 52,38 121,0 219,-98 219,-219 0,-121 -98,-219 -219,-219 -121,0 -219,98 -219,219 0,121 98,219 219,219m-48 -535c1,19 18,36 52,39 121,0 219,-98 219,-220 0,-121 -98,-219 -219,-219 -121,0 -220,98 -220,219 0,122 99,220 220,220m-433 107c1,8 8,16 23,17 53,0 96,-43 96,-96 0,-54 -43,-97 -96,-97 -53,0 -96,43 -96,97 0,53 43,96 96,96m-13 211c1,4 4,8 12,8 27,0 49,-22 49,-49 0,-27 -22,-49 -49,-49 -27,0 -49,22 -49,49 0,27 22,49 49,49"/>
 </g>
</svg>
