<?xml version="1.0" encoding="UTF-8"?>
<!DOCTYPE svg PUBLIC "-//W3C//DTD SVG 1.1//EN" "http://www.w3.org/Graphics/SVG/1.1/DTD/svg11.dtd">
<!-- Creator: CorelDRAW X8 -->
<svg xmlns="http://www.w3.org/2000/svg" xml:space="preserve" width="40mm" height="60mm" version="1.1" style="shape-rendering:geometricPrecision; text-rendering:geometricPrecision; image-rendering:optimizeQuality; fill-rule:evenodd; clip-rule:evenodd"
viewBox="0 0 4000 6000"
 xmlns:xlink="http://www.w3.org/1999/xlink">
 <defs>
  <style type="text/css">
   <![CDATA[
    .fil0 {fill:black;fill-rule:nonzero}
   ]]>
  </style>
 </defs>
 <g id="图层_x0020_1">
  <metadata id="CorelCorpID_0Corel-Layer"/>
  <g>
   <path class="fil0" d="M708 695l0 5 0 0 -5 0 -4 0 -5 0 -5 -1 -4 0 -5 0 -4 0 -4 -1 -4 0 -4 0 -4 -1 -3 0 -4 -1 -3 0 -4 -1 -3 0 -3 -1 -3 -1 -3 -1 -3 -1 -3 -1 -3 -1 -2 -1 -3 -1 -2 -2 -2 -1 -3 -2 -2 -1 -2 -2 -2 -2 -2 -2 -2 -3 5 -3 1 2 2 2 2 2 2 1 2 2 2 1 2 2 2 1 2 1 3 1 2 1 3 1 2 1 3 1 3 1 3 0 3 1 4 0 3 1 3 0 4 1 4 0 4 0 4 1 4 0 4 0 4 1 5 0 4 0 5 0 5 0 4 1 0 0zm0 5l0 0 0 0 0 0zm2616 5l0 6 0 0 -73 0 -75 0 -76 0 -78 -1 -79 0 -81 0 -81 0 -83 -1 -83 0 -84 -1 -85 0 -86 -1 -85 0 -87 0 -86 -1 -87 0 -86 -1 -87 0 -86 -1 -86 0 -85 -1 -85 0 -84 -1 -83 0 -83 0 -81 -1 -80 0 -79 0 -78 -1 -76 0 -75 0 -73 0 0 -5 73 0 75 0 76 0 78 0 79 0 80 1 81 0 83 0 83 1 84 0 85 1 85 0 86 1 86 0 87 0 86 1 87 0 86 1 87 0 85 1 86 0 85 1 84 0 83 1 83 0 81 0 81 1 79 0 78 0 76 0 75 0 73 0 0 0zm81 88l-6 0 0 0 0 -7 0 -6 0 -6 0 -6 -1 -5 0 -5 0 -5 -1 -4 -1 -4 -1 -4 -1 -3 -1 -3 -1 -3 -1 -3 -2 -2 -2 -2 -1 -2 -3 -2 -2 -2 -3 -1 -2 -1 -4 -1 -3 -1 -4 -1 -4 -1 -4 -1 -5 0 -5 -1 -5 0 -6 0 -6 0 -6 0 0 -6 6 0 6 0 6 1 6 0 5 0 5 1 4 1 4 0 4 1 4 1 4 2 3 1 3 2 3 2 2 2 3 2 2 3 1 2 2 3 2 4 1 3 1 4 1 4 0 4 1 5 1 4 0 5 0 6 0 6 1 6 0 6 0 7 0 0zm0 4490l-6 0 0 0 0 -118 0 -120 0 -124 0 -128 0 -130 0 -133 0 -136 0 -138 0 -140 0 -142 0 -144 0 -145 0 -147 0 -147 0 -149 0 -149 0 -149 0 -150 0 -150 0 -150 0 -149 0 -148 0 -148 0 -147 0 -145 0 -144 0 -142 0 -141 0 -138 0 -136 0 -133 0 -130 6 0 0 130 0 133 0 136 0 138 0 141 0 142 0 144 0 145 0 147 0 148 0 148 0 149 0 150 0 150 0 150 0 149 0 149 0 149 0 147 0 147 0 145 0 144 0 142 0 140 0 138 0 136 0 133 0 130 0 128 0 124 0 120 0 118 0 0zm-69 70l0 -6 0 0 4 0 5 0 4 0 4 -1 4 0 4 -1 3 -1 4 0 3 -1 2 -1 3 -2 3 -1 2 -1 2 -2 2 -2 2 -2 1 -1 2 -3 1 -2 1 -2 2 -3 1 -2 1 -3 0 -3 1 -3 1 -4 0 -3 0 -4 1 -4 0 -4 0 -4 0 -4 6 0 0 4 0 4 -1 5 0 4 0 3 -1 4 -1 4 0 3 -1 3 -1 3 -1 3 -2 3 -1 3 -2 3 -1 2 -2 2 -2 2 -3 2 -2 2 -3 2 -2 1 -3 2 -4 1 -3 1 -3 1 -4 1 -4 0 -4 1 -4 0 -5 1 -4 0 -5 0 0 0zm-2628 -12l0 -6 0 0 74 0 76 0 77 1 78 0 80 0 80 0 81 1 83 0 83 1 84 0 84 1 85 0 86 1 85 0 86 1 86 0 87 1 86 0 86 1 85 0 86 1 85 0 84 1 84 0 83 1 82 0 82 0 80 1 79 0 78 0 77 0 76 0 0 6 -76 0 -77 0 -78 -1 -79 0 -80 0 -82 0 -82 -1 -83 0 -84 -1 -84 0 -85 -1 -86 0 -85 -1 -86 0 -86 -1 -87 0 -86 -1 -86 0 -85 -1 -86 0 -85 -1 -84 0 -84 -1 -83 0 -83 -1 -81 0 -80 0 -80 -1 -78 0 -77 0 -76 0 -74 0 0 0zm-106 -108l6 0 0 0 0 8 0 7 1 7 0 7 1 6 1 6 1 6 2 5 1 5 2 5 2 4 2 4 2 4 2 3 3 3 3 3 3 3 3 2 4 2 3 2 4 2 5 2 4 1 5 1 5 1 5 1 5 1 6 0 6 1 6 0 7 0 6 0 0 6 -7 0 -6 0 -6 -1 -7 0 -5 -1 -6 0 -5 -1 -6 -1 -5 -2 -4 -1 -5 -2 -4 -2 -4 -2 -4 -2 -3 -3 -4 -3 -3 -3 -3 -4 -3 -3 -2 -4 -2 -5 -2 -4 -2 -5 -2 -5 -1 -6 -1 -6 -1 -6 -1 -6 -1 -7 0 -8 0 -7 -1 -8 0 0zm-7 -4418l6 0 0 0 0 113 0 118 0 122 0 126 0 129 1 132 0 135 0 137 0 140 1 142 0 144 0 145 0 147 1 147 0 149 0 149 1 149 0 149 0 149 1 149 0 148 0 146 1 146 0 144 0 142 0 139 0 138 1 135 0 132 0 129 0 126 0 122 -6 0 0 -122 0 -126 0 -129 0 -132 0 -135 0 -138 0 -139 -1 -142 0 -144 0 -146 -1 -146 0 -148 0 -149 0 -149 -1 -149 0 -149 0 -149 -1 -148 0 -148 0 -147 -1 -145 0 -144 0 -142 -1 -140 0 -137 0 -135 0 -132 0 -129 -1 -126 0 -122 0 -118 0 -113 0 0zm113 -120l0 5 0 0 -7 0 -8 1 -7 0 -6 0 -7 1 -6 1 -5 1 -6 1 -5 2 -4 2 -5 1 -4 3 -4 2 -4 2 -3 3 -3 3 -3 3 -3 4 -2 4 -3 4 -2 5 -2 4 -1 5 -2 6 -1 6 -1 6 -1 6 -1 7 0 8 -1 7 0 8 0 9 -6 0 0 -9 1 -8 0 -8 1 -7 0 -7 1 -7 1 -6 2 -6 1 -6 2 -6 2 -5 2 -4 3 -5 3 -4 3 -4 3 -4 3 -3 4 -3 4 -3 4 -2 5 -3 5 -2 5 -1 5 -2 6 -1 6 -1 6 -1 6 -1 7 -1 7 0 8 0 7 0 0 0zm161 -47l3 4 -3 3 -4 2 -4 2 -3 2 -4 2 -4 2 -5 3 -4 2 -4 2 -4 2 -5 2 -5 2 -4 2 -5 1 -5 2 -5 2 -5 2 -5 1 -6 2 -5 1 -6 2 -6 1 -5 1 -6 1 -6 1 -6 1 -7 1 -6 0 -7 1 -6 0 -7 0 -7 0 0 -5 7 0 7 -1 6 0 6 0 7 -1 6 -1 6 -1 6 0 6 -1 5 -2 6 -1 5 -1 6 -2 5 -1 5 -2 5 -1 5 -2 5 -2 5 -2 4 -1 5 -2 4 -2 5 -2 4 -2 4 -2 4 -3 4 -2 4 -2 4 -2 3 -2 4 -2 3 -2z"/>
  </g>
 </g>
</svg>
