<?xml version="1.0" encoding="UTF-8"?>
<!DOCTYPE svg PUBLIC "-//W3C//DTD SVG 1.1//EN" "http://www.w3.org/Graphics/SVG/1.1/DTD/svg11.dtd">
<!-- Creator: CorelDRAW X8 -->
<svg xmlns="http://www.w3.org/2000/svg" xml:space="preserve" width="40mm" height="60mm" version="1.1" style="shape-rendering:geometricPrecision; text-rendering:geometricPrecision; image-rendering:optimizeQuality; fill-rule:evenodd; clip-rule:evenodd"
viewBox="0 0 4000 6000"
 xmlns:xlink="http://www.w3.org/1999/xlink">
 <defs>
  <style type="text/css">
   <![CDATA[
    .str0 {stroke:black;stroke-width:7.62}
    .fil0 {fill:none}
   ]]>
  </style>
 </defs>
 <g id="图层_x0020_1">
  <metadata id="CorelCorpID_0Corel-Layer"/>
  <path class="fil0 str0" d="M955 1764l2093 0c8,0 15,6 15,14l0 3426c0,80 -66,146 -147,146l-1829 0c-81,0 -147,-66 -147,-146l0 -3426c0,-8 7,-14 15,-14zm0 -656l2093 0c8,0 15,-7 15,-15l0 -326c0,-64 -53,-117 -117,-117l-1889 0c-64,0 -117,53 -117,117l0 326c0,8 7,15 15,15zm482 245c-1,-8 -8,-16 -24,-18 -57,0 -103,46 -103,103 0,56 46,102 103,102 56,0 102,-46 102,-102 0,-57 -46,-103 -102,-103m185 -127c0,-3 -3,-6 -8,-6 -21,0 -37,16 -37,36 0,21 16,37 37,37 20,0 36,-16 36,-37 0,-20 -16,-36 -36,-36m277 160c0,-8 -7,-15 -21,-16 -48,0 -87,40 -87,88 0,49 39,88 87,88 49,0 88,-39 88,-88 0,-48 -39,-88 -88,-88m228 -46l161 0c8,0 14,7 14,15l0 252c0,8 -6,14 -14,14l-161 0c-8,0 -15,-6 -15,-14l0 -252c0,-8 7,-15 15,-15zm352 105c0,-3 -3,-6 -8,-7 -21,0 -37,17 -37,37 0,20 16,37 37,37 20,0 36,-17 36,-37 0,-20 -16,-37 -36,-37m265 -176c0,-3 -3,-6 -9,-7 -20,0 -36,17 -36,37 0,20 16,37 36,37 20,0 37,-17 37,-37 0,-20 -17,-37 -37,-37m18 150c-1,-8 -7,-15 -21,-16 -48,0 -88,39 -88,88 0,48 40,88 88,88 49,0 88,-40 88,-88 0,-49 -39,-88 -88,-88m-1719 -194l2093 0c8,0 15,7 15,15l0 524c0,8 -7,15 -15,15l-2093 0c-8,0 -15,-7 -15,-15l0 -524c0,-8 7,-15 15,-15z"/>
 </g>
</svg>
