<?xml version="1.0" encoding="UTF-8"?>
<!DOCTYPE svg PUBLIC "-//W3C//DTD SVG 1.1//EN" "http://www.w3.org/Graphics/SVG/1.1/DTD/svg11.dtd">
<!-- Creator: CorelDRAW X8 -->
<svg xmlns="http://www.w3.org/2000/svg" xml:space="preserve" width="40mm" height="60mm" version="1.1" style="shape-rendering:geometricPrecision; text-rendering:geometricPrecision; image-rendering:optimizeQuality; fill-rule:evenodd; clip-rule:evenodd"
viewBox="0 0 4000 6000"
 xmlns:xlink="http://www.w3.org/1999/xlink">
 <defs>
  <style type="text/css">
   <![CDATA[
    .str0 {stroke:#332C2B;stroke-width:19.4}
    .fil0 {fill:none;fill-rule:nonzero}
   ]]>
  </style>
 </defs>
 <g id="图层_x0020_1">
  <metadata id="CorelCorpID_0Corel-Layer"/>
  <g id="_1774721326464">
   <g>
    <line class="fil0 str0" x1="3094" y1="650" x2="3094" y2= "681" />
    <polyline class="fil0 str0" points="1677,892 1677,902 1677,901 1674,901 1676,901 "/>
    <path class="fil0 str0" d="M1676 901c-5,37 -35,63 -73,63 -39,0 -71,-32 -71,-72 0,-40 32,-72 72,-72 40,0 73,32 73,71 0,5 -1,11 -3,25"/>
    <path class="fil0 str0" d="M1416 895c-7,103 -79,174 -177,174 -99,0 -178,-78 -178,-175 0,-98 79,-177 177,-177 99,0 177,77 177,175 0,10 -1,34 -3,47"/>
    <polyline class="fil0 str0" points="3093,3003 3092,3012 3090,3012 3093,3012 3092,4321 "/>
    <path class="fil0 str0" d="M3092 4321c0,436 1,327 -2,762 0,73 -3,97 -13,127 -25,75 -94,127 -181,138"/>
    <line class="fil0 str0" x1="2896" y1="5348" x2="1162" y2= "5350" />
    <path class="fil0 str0" d="M1162 5350c-58,-1 -72,-3 -107,-14 -92,-27 -147,-106 -149,-210"/>
    <line class="fil0 str0" x1="906" y1="5126" x2="908" y2= "837" />
    <path class="fil0 str0" d="M908 837c11,-99 96,-180 194,-186"/>
    <line class="fil0 str0" x1="1102" y1="651" x2="2888" y2= "655" />
    <path class="fil0 str0" d="M2888 655c123,5 205,98 205,231"/>
    <polyline class="fil0 str0" points="3093,886 3093,3002 3093,3029 3093,3031 "/>
   </g>
  </g>
 </g>
</svg>
