<?xml version="1.0" encoding="UTF-8"?>
<!DOCTYPE svg PUBLIC "-//W3C//DTD SVG 1.1//EN" "http://www.w3.org/Graphics/SVG/1.1/DTD/svg11.dtd">
<!-- Creator: CorelDRAW X8 -->
<svg xmlns="http://www.w3.org/2000/svg" xml:space="preserve" width="40mm" height="60mm" version="1.1" style="shape-rendering:geometricPrecision; text-rendering:geometricPrecision; image-rendering:optimizeQuality; fill-rule:evenodd; clip-rule:evenodd"
viewBox="0 0 4000 6000"
 xmlns:xlink="http://www.w3.org/1999/xlink">
 <defs>
  <style type="text/css">
   <![CDATA[
    .str0 {stroke:#332C2B;stroke-width:19.4}
    .fil0 {fill:none;fill-rule:nonzero}
   ]]>
  </style>
 </defs>
 <g id="图层_x0020_1">
  <metadata id="CorelCorpID_0Corel-Layer"/>
  <path class="fil0 str0" d="M3122 654l0 32m-11 2316l11 -1m0 0c-2,-5 -5,-8 -11,-10m0 0l0 -2075m0 0c-7,-133 -119,-249 -252,-262m0 0l-1686 -4m0 0c-145,6 -249,84 -287,215 -7,26 -8,37 -8,85m0 0l0 4140m0 0c5,131 131,256 261,260m0 0l1718 -1m0 0c61,0 144,-45 191,-102 45,-56 63,-111 63,-193m0 0l0 -2083m-1718 -1877l0 10m0 0c4,0 9,-5 10,-10m0 0l94 0m0 0c75,1 101,0 122,-4 20,-4 32,-10 57,-29 40,-31 62,-76 62,-127 0,-67 -42,-126 -106,-150 -26,-10 -39,-10 -297,-10 -93,0 -138,0 -151,3 -77,11 -135,79 -135,157 0,72 44,130 115,154 18,6 23,7 82,6m0 0l178 0"/>
 </g>
</svg>
