<?xml version="1.0" encoding="UTF-8"?>
<!DOCTYPE svg PUBLIC "-//W3C//DTD SVG 1.1//EN" "http://www.w3.org/Graphics/SVG/1.1/DTD/svg11.dtd">
<!-- Creator: CorelDRAW -->
<svg xmlns="http://www.w3.org/2000/svg" xml:space="preserve" width="40mm" height="60mm" style="shape-rendering:geometricPrecision; text-rendering:geometricPrecision; image-rendering:optimizeQuality; fill-rule:evenodd; clip-rule:evenodd"
viewBox="0 0 40 60"
 xmlns:xlink="http://www.w3.org/1999/xlink">
 <defs>
  <style type="text/css">
   <![CDATA[
    .str0 {stroke:#1F1A17;stroke-width:0.0762;stroke-linejoin:bevel}
    .fil0 {fill:none}
   ]]>
  </style>
 </defs>
 <g id="图层_x0020_1">
  <metadata id="CorelCorpID_0Corel-Layer"/>
  <g id="_326289448">
   <path id="_326288968" class="fil0 str0" d="M30.1173 52.6302c0.3196,-0.4884 0.4845,-1.0749 0.4634,-1.6585l-0.0002 -0.0069 0.0001 -41.9324 0.0001 -0.0042c0.0211,-0.5835 -0.1438,-1.1701 -0.4634,-1.6585 -0.3183,-0.4029 -0.7699,-0.6768 -1.2721,-0.7809 -0.288,-0.0597 -0.5822,-0.0922 -0.8764,-0.0885 -0.0601,0.0092 -0.18,0.0263 -0.2289,0.055 -0.0795,0.0503 -0.2962,0.1854 -0.3826,0.1854l-3.2433 0c-0.0636,0.0032 -0.1209,-0.0106 -0.1692,-0.0542 -0.042,-0.038 -0.0641,-0.0898 -0.1043,-0.1263 -0.0549,-0.0499 -0.1414,-0.0588 -0.2111,-0.0597l-1.1968 -0.0001 -10.3961 -0.0001c-0.296,-0.0041 -0.592,0.0284 -0.8817,0.0885 -0.5022,0.104 -0.9538,0.378 -1.2721,0.7809 -0.3196,0.4884 -0.4845,1.075 -0.4634,1.6585l0.0002 0.007 -0.0001 41.9323 -0.0001 0.0042c-0.0211,0.5835 0.1438,1.1701 0.4634,1.6585 0.3183,0.4029 0.7699,0.6769 1.2721,0.781 0.2897,0.06 0.5857,0.0926 0.8828,0.0884l15.9861 0c0.2723,0.0047 0.5551,-0.0332 0.8214,-0.0884 0.5023,-0.1041 0.9539,-0.3781 1.2722,-0.781z"/>
   <path id="_326288656" class="fil0 str0" d="M12.1247 8.1672c0,-0.2926 -0.2372,-0.5298 -0.5298,-0.5298 -0.2926,0 -0.5298,0.2372 -0.5298,0.5298 0,0.2926 0.2372,0.5298 0.5298,0.5298 0.2926,0 0.5298,-0.2372 0.5298,-0.5298z"/>
  </g>
 </g>
</svg>
