<?xml version="1.0" encoding="UTF-8"?>
<!DOCTYPE svg PUBLIC "-//W3C//DTD SVG 1.1//EN" "http://www.w3.org/Graphics/SVG/1.1/DTD/svg11.dtd">
<!-- Creator: CorelDRAW X8 -->
<svg xmlns="http://www.w3.org/2000/svg" xml:space="preserve" width="40mm" height="60mm" version="1.1" style="shape-rendering:geometricPrecision; text-rendering:geometricPrecision; image-rendering:optimizeQuality; fill-rule:evenodd; clip-rule:evenodd"
viewBox="0 0 4000 6000"
 xmlns:xlink="http://www.w3.org/1999/xlink">
 <defs>
  <style type="text/css">
   <![CDATA[
    .fil0 {fill:black;fill-rule:nonzero}
   ]]>
  </style>
 </defs>
 <g id="图层_x0020_1">
  <metadata id="CorelCorpID_0Corel-Layer"/>
  <g>
   <path class="fil0" d="M723 668l0 -20 -1 0 1 0 1 0 2 -1 1 0 1 0 1 0 1 0 1 0 1 0 1 0 1 -1 1 0 1 0 1 0 0 0 1 0 1 -1 0 0 1 0 0 0 1 0 0 -1 1 0 0 0 0 0 0 0 0 0 0 0 0 0 0 0 0 0 0 0 15 13 -1 1 0 1 -1 0 -1 1 -1 1 -1 0 0 1 -1 0 -1 1 -1 0 -1 0 -1 1 -1 0 -1 0 -1 1 -1 0 -1 0 -1 0 -1 1 -1 0 -1 0 -1 0 -2 0 -1 1 -1 0 -1 0 -2 0 -1 0 -1 0 -2 1 -1 0 -2 0 0 0zm0 0l0 0 0 0 0 0zm-7 6l-20 0 0 0 0 -1 0 -1 0 -2 1 -1 0 -1 0 -2 1 -1 0 -1 1 -1 0 -1 1 -1 1 -2 0 -1 1 -1 1 -1 1 0 1 -1 1 -1 1 -1 1 -1 1 0 1 -1 1 -1 1 0 1 -1 2 0 1 0 1 -1 2 0 1 0 1 0 2 0 0 20 -1 0 0 0 0 0 -1 0 0 0 0 0 -1 0 0 0 0 0 -1 1 0 0 0 0 0 0 -1 0 0 0 0 1 0 0 0 0 -1 0 0 1 0 0 0 0 0 1 0 0 -1 0 0 0 0 1 0 0 0 0 0 1 0 0 0 0 0 0zm-20 4660l0 -4660 20 0 0 4660 0 0 -20 0zm27 6l0 20 0 0 -2 0 -1 0 -1 0 -2 -1 -1 0 -1 0 -2 -1 -1 0 -1 -1 -1 0 -1 -1 -1 0 -1 -1 -1 -1 -1 -1 -1 -1 -1 -1 -1 -1 -1 -1 0 -1 -1 -1 -1 -1 0 -1 -1 -1 0 -1 -1 -2 0 -1 0 -1 -1 -1 0 -2 0 -1 0 -1 20 0 0 0 0 0 0 1 0 0 0 0 0 0 0 1 1 0 0 0 0 1 0 0 0 0 0 0 1 1 0 0 0 0 0 0 0 1 1 0 0 0 0 0 0 0 1 0 0 1 0 0 1 0 0 0 0 0 0 0 1 0 0 0 1 0 0 0zm2560 20l-2560 0 0 -20 2560 0 0 0 0 20zm6 -26l20 0 0 0 0 1 0 1 0 1 0 2 -1 1 0 1 0 2 -1 1 0 1 -1 1 -1 1 0 1 -1 1 -1 1 -1 1 -1 1 -1 1 0 1 -1 1 -2 0 -1 1 -1 1 -1 0 -1 1 -1 0 -1 1 -2 0 -1 0 -1 1 -2 0 -1 0 -1 0 0 -20 0 0 0 0 1 0 0 0 0 0 1 0 0 0 0 0 0 -1 1 0 0 0 0 0 0 0 1 0 0 -1 0 0 0 0 1 0 0 -1 0 0 0 0 0 0 0 -1 1 0 0 0 0 -1 0 0 0 0 0 0 0 -1 0 0 0 0 0 0zm20 -4660l0 4660 -20 0 0 -4660 0 0 20 0zm-26 -6l0 -20 0 0 1 0 1 0 2 0 1 0 1 1 2 0 1 0 1 1 1 0 1 1 1 1 1 0 2 1 1 1 0 1 1 1 1 0 1 1 1 1 1 2 0 1 1 1 1 1 0 1 1 1 0 1 0 2 1 1 0 1 0 2 0 1 0 1 -20 0 0 0 0 0 0 -1 0 0 0 0 0 -1 0 0 0 0 -1 -1 0 0 0 0 0 0 0 -1 0 0 -1 0 0 0 0 -1 0 0 -1 0 0 0 0 0 0 0 -1 -1 0 0 0 0 0 0 -1 0 0 0 0 0 -1 0 0 0 0 0 0 0zm-2560 -20l2560 0 0 20 -2560 0 -1 -20 1 0zm-1 0l0 0 1 0 -1 0zm-28 9l14 -14 0 0 1 0 0 1 0 0 1 0 0 1 1 0 0 0 0 1 1 0 0 0 1 0 0 0 0 1 1 0 0 0 1 0 0 0 1 0 0 0 0 1 1 0 0 0 1 0 0 0 1 0 0 0 1 0 0 0 1 0 0 0 1 0 1 20 -1 0 -1 0 -1 0 -1 0 -1 0 -1 0 -1 0 -1 0 -1 -1 -1 0 -1 0 -1 0 -1 0 -1 -1 -1 0 0 0 -1 -1 -1 0 -1 0 -1 -1 -1 0 -1 -1 -1 0 -1 -1 0 0 -1 -1 -1 0 -1 -1 -1 -1 0 0 -1 -1 -1 -1z"/>
  </g>
 </g>
</svg>
