<?xml version="1.0" encoding="UTF-8"?>
<!DOCTYPE svg PUBLIC "-//W3C//DTD SVG 1.1//EN" "http://www.w3.org/Graphics/SVG/1.1/DTD/svg11.dtd">
<!-- Creator: CorelDRAW -->
<svg xmlns="http://www.w3.org/2000/svg" xml:space="preserve" width="40mm" height="60mm" style="shape-rendering:geometricPrecision; text-rendering:geometricPrecision; image-rendering:optimizeQuality; fill-rule:evenodd; clip-rule:evenodd"
viewBox="0 0 40 60"
 xmlns:xlink="http://www.w3.org/1999/xlink">
 <defs>
  <style type="text/css">
   <![CDATA[
    .str0 {stroke:#1F1A17;stroke-width:0.2}
    .fil0 {fill:none}
   ]]>
  </style>
 </defs>
 <g id="图层_x0020_2">
  <metadata id="CorelCorpID_0Corel-Layer"/>
  <path class="fil0 str0" d="M10.4059 6.5l19.1882 0c1.0177,0 1.8503,0.8242 1.8503,1.8316l0 43.3368c0,1.0074 -0.8326,1.8316 -1.8503,1.8316l-19.1882 0c-1.0177,0 -1.8503,-0.8242 -1.8503,-1.8316l0 -43.3368c0,-1.0074 0.8326,-1.8316 1.8503,-1.8316z"/>
  <path class="fil0 str0" d="M18.0817 7.0666l6.2715 0c0.2198,0 0.3996,0.1877 0.3996,0.4171l0 0c0,0.2295 -0.1798,0.4172 -0.3996,0.4172l-6.2715 0c-0.2198,0 -0.3996,-0.1877 -0.3996,-0.4172l0 0c0,-0.2294 0.1798,-0.4171 0.3996,-0.4171z"/>
  <path class="fil0 str0" d="M16.2435 7.0536c0.2434,0 0.4407,0.1974 0.4407,0.4409 0,0.2434 -0.1973,0.4408 -0.4407,0.4408 -0.2435,0 -0.4409,-0.1974 -0.4409,-0.4408 0,-0.2435 0.1974,-0.4409 0.4409,-0.4409z"/>
 </g>
</svg>
