<?xml version="1.0" encoding="UTF-8"?>
<!DOCTYPE svg PUBLIC "-//W3C//DTD SVG 1.1//EN" "http://www.w3.org/Graphics/SVG/1.1/DTD/svg11.dtd">
<!-- Creator: CorelDRAW X8 -->
<svg xmlns="http://www.w3.org/2000/svg" xml:space="preserve" width="40mm" height="60mm" version="1.1" style="shape-rendering:geometricPrecision; text-rendering:geometricPrecision; image-rendering:optimizeQuality; fill-rule:evenodd; clip-rule:evenodd"
viewBox="0 0 4000 6000"
 xmlns:xlink="http://www.w3.org/1999/xlink">
 <defs>
  <style type="text/css">
   <![CDATA[
    .str0 {stroke:black;stroke-width:7.62}
    .fil0 {fill:none}
   ]]>
  </style>
 </defs>
 <g id="图层_x0020_1">
  <metadata id="CorelCorpID_0Corel-Layer"/>
  <path class="fil0 str0" d="M2643 694c0,-5 -4,-9 -12,-9 -30,0 -54,24 -54,53 0,30 24,54 54,54 29,0 53,-24 53,-54 0,-29 -24,-53 -53,-53m-719 54c-5,-17 -14,-32 -58,-32l-38 0c-20,0 -36,17 -36,36l0 0c0,20 16,36 36,36l365 0c20,0 36,-16 36,-36l0 0c0,-19 -16,-36 -36,-36l-327 0m-834 4643l1809 0c126,0 230,-103 230,-229l0 -4242c0,-126 -104,-229 -230,-229l-1658 0c-126,0 -230,103 -230,229l0 4242c0,126 104,229 230,229l77 0"/>
 </g>
</svg>
