<?xml version="1.0" encoding="UTF-8"?>
<!DOCTYPE svg PUBLIC "-//W3C//DTD SVG 1.1//EN" "http://www.w3.org/Graphics/SVG/1.1/DTD/svg11.dtd">
<!-- Creator: CorelDRAW X8 -->
<svg xmlns="http://www.w3.org/2000/svg" xml:space="preserve" width="40mm" height="60mm" version="1.1" style="shape-rendering:geometricPrecision; text-rendering:geometricPrecision; image-rendering:optimizeQuality; fill-rule:evenodd; clip-rule:evenodd"
viewBox="0 0 4000 6000"
 xmlns:xlink="http://www.w3.org/1999/xlink">
 <defs>
  <style type="text/css">
   <![CDATA[
    .fil0 {fill:#332C2B;fill-rule:nonzero}
   ]]>
  </style>
 </defs>
 <g id="图层_x0020_1">
  <metadata id="CorelCorpID_0Corel-Layer"/>
  <g>
   <path class="fil0" d="M938 1037c-5,-2 -7,-8 -5,-13 2,-5 8,-8 13,-6l-8 19zm113 -35l7 19 -1 0 -5 1 -5 2 -6 1 -5 2 -5 1 -5 1 -4 2 -5 1 -4 1 -5 1 -4 1 -4 1 -4 0 -4 1 -4 1 -4 0 -3 1 -4 0 -3 0 -4 1 -3 0 -3 0 -3 0 -3 0 -2 0 -3 0 -3 0 -2 -1 -3 0 -2 -1 -2 -1 -3 0 8 -19 1 0 1 1 1 0 2 0 2 1 2 0 2 0 2 0 2 0 3 0 2 0 3 0 3 0 3 -1 3 0 3 -1 4 0 3 -1 4 0 4 -1 4 -1 4 -1 4 -1 4 -1 5 -1 4 -1 5 -1 5 -2 5 -1 5 -1 5 -2 6 -1 -1 0zm1 0c5,-2 10,1 12,6 2,6 -1,11 -7,13l-5 -19zm2004 -362l-2 20 1 0 -30 1 -36 3 -42 4 -47 5 -53 6 -57 7 -60 8 -65 9 -68 10 -70 10 -74 12 -75 12 -77 12 -78 13 -79 14 -80 14 -79 14 -79 15 -79 14 -77 15 -76 15 -74 15 -72 15 -68 14 -66 15 -62 14 -58 13 -54 14 -48 13 -44 12 -38 12 -32 11 -7 -19 33 -11 38 -12 44 -13 49 -13 54 -13 59 -14 62 -14 66 -14 68 -15 72 -15 74 -15 76 -15 77 -14 79 -15 79 -15 80 -14 79 -14 80 -13 78 -13 77 -13 75 -12 74 -11 70 -11 68 -10 65 -9 61 -8 57 -7 52 -6 48 -5 42 -4 37 -3 31 -1 1 0zm-1 0c5,0 10,4 10,10 0,5 -4,10 -10,10l0 -20zm65 49l-20 4 0 -1 0 -2 0 -1 0 -2 -1 -1 0 -2 -1 -1 -1 -1 -1 -2 0 -1 -1 -1 -1 -2 -2 -1 -1 -1 -1 -1 -1 -1 -2 -1 -1 -2 -2 -1 -2 -1 -1 0 -2 -1 -2 -1 -2 -1 -2 -1 -2 0 -2 -1 -3 0 -2 -1 -2 0 -3 -1 -2 0 -3 0 2 -20 3 0 3 1 3 0 3 0 3 1 3 1 2 0 3 1 3 1 3 1 2 1 3 2 2 1 3 1 2 2 2 1 2 2 2 2 2 2 2 1 2 2 1 2 2 3 1 2 2 2 1 2 1 3 1 2 1 3 0 3 1 2 0 3 0 -1zm0 1c1,5 -3,10 -9,11 -5,0 -10,-4 -11,-9l20 -2zm19 1831l-20 0 0 0 0 -10 0 -20 0 -28 0 -36 -1 -44 0 -49 0 -56 -1 -62 0 -66 -1 -70 0 -74 -1 -77 0 -80 -1 -81 0 -83 -1 -82 -1 -83 0 -83 -1 -81 -1 -79 -1 -77 0 -74 -1 -70 -1 -65 -1 -61 -1 -56 0 -49 -1 -43 -1 -35 -1 -27 -1 -19 -1 -8 20 -4 1 11 1 19 1 28 1 35 1 43 0 49 1 55 1 61 1 66 1 70 0 74 1 77 1 79 1 81 0 82 1 83 1 83 0 83 1 81 0 79 1 77 0 74 1 71 0 66 1 61 0 56 0 50 1 44 0 36 0 28 0 19 0 11 0 0zm0 0c0,6 -4,10 -10,10 -5,0 -10,-4 -10,-10l20 0zm-7 2729l-19 -2 0 0 1 -26 1 -39 1 -50 0 -61 1 -70 1 -79 0 -88 1 -94 0 -101 1 -106 0 -111 0 -114 1 -118 0 -120 0 -121 0 -121 0 -121 0 -119 0 -118 0 -114 0 -111 0 -106 0 -101 -1 -94 0 -87 0 -79 0 -70 0 -60 0 -50 0 -39 -1 -26 0 -13 20 0 0 13 1 26 0 39 0 50 0 60 0 70 0 79 0 87 1 94 0 101 0 106 0 111 0 114 0 118 0 119 0 121 0 121 0 121 0 120 -1 118 0 114 0 111 -1 106 0 101 -1 95 0 87 -1 79 -1 71 0 60 -1 51 -1 39 -2 27 0 0zm0 0c0,5 -5,9 -10,9 -6,0 -10,-5 -9,-11l19 2zm-154 105l3 -20 0 0 3 1 3 0 4 1 3 0 4 1 5 0 5 1 4 0 6 1 5 0 5 0 5 0 6 -1 5 0 6 -1 5 -1 5 -2 6 -2 5 -2 4 -3 5 -3 5 -4 4 -4 4 -5 3 -5 4 -6 3 -7 3 -7 2 -8 2 -10 2 -10 1 -11 19 2 -1 12 -1 11 -2 10 -3 10 -4 9 -3 8 -5 8 -4 7 -6 6 -5 5 -6 5 -6 4 -6 3 -7 3 -6 3 -7 2 -6 1 -7 2 -6 0 -6 1 -7 0 -6 0 -6 0 -5 -1 -6 0 -5 -1 -4 0 -5 -1 -4 -1 -3 0 -3 -1 -2 0 -1 0zm1 0c-6,-1 -10,-6 -9,-11 1,-6 6,-9 11,-9l-2 20zm-1916 -384l6 -19 0 0 25 7 30 7 33 8 36 9 40 9 43 10 47 10 48 11 52 12 54 12 57 12 58 13 61 13 63 13 64 14 66 13 67 14 69 14 69 14 71 14 71 14 72 14 72 14 73 13 72 14 73 13 73 13 72 13 71 12 71 12 70 11 69 11 -3 20 -69 -11 -70 -11 -71 -12 -72 -13 -72 -12 -72 -13 -73 -13 -73 -14 -73 -14 -72 -13 -72 -14 -71 -14 -71 -14 -69 -14 -69 -14 -67 -14 -66 -14 -65 -13 -62 -14 -61 -13 -59 -12 -56 -13 -54 -12 -52 -11 -49 -11 -46 -11 -43 -10 -40 -9 -37 -9 -33 -8 -30 -7 -25 -6 -1 -1zm1 1c-6,-2 -9,-7 -8,-13 2,-5 7,-8 13,-7l-5 20zm-129 -108l18 -9 0 1 3 4 2 5 2 5 3 4 2 4 3 4 3 4 3 4 3 4 3 4 3 3 3 4 3 3 4 3 3 3 4 3 4 3 3 3 4 3 4 3 4 2 4 2 4 3 5 2 4 2 4 2 5 2 4 2 5 2 5 1 5 2 5 1 -6 19 -5 -1 -5 -2 -5 -2 -6 -1 -5 -2 -5 -3 -5 -2 -4 -2 -5 -3 -5 -2 -4 -3 -5 -3 -4 -3 -5 -3 -4 -3 -4 -3 -4 -4 -4 -3 -4 -4 -3 -3 -4 -4 -3 -4 -4 -4 -3 -5 -3 -4 -3 -5 -3 -4 -3 -5 -3 -5 -3 -5 -2 -5 -3 -5 0 0zm0 0c-2,-5 0,-11 5,-13 5,-2 11,0 13,5l-18 8zm-59 -387l20 -1 0 0 0 5 0 6 0 6 1 8 0 9 1 10 0 10 1 11 1 12 1 13 1 13 1 13 1 14 2 15 1 14 2 15 2 15 1 15 2 14 3 15 2 15 2 14 3 15 2 13 3 14 3 13 3 12 4 12 3 11 4 10 3 9 4 8 -18 9 -4 -9 -4 -10 -4 -11 -3 -12 -4 -12 -3 -13 -3 -13 -3 -14 -3 -14 -2 -14 -3 -15 -2 -15 -2 -15 -2 -15 -2 -15 -2 -15 -2 -15 -1 -15 -2 -14 -1 -14 -1 -14 -1 -13 -1 -12 -1 -12 -1 -12 0 -10 -1 -10 0 -9 -1 -8 0 -7 0 -5 0 -5 0 0zm0 0c-1,-6 4,-10 9,-10 6,-1 10,4 11,9l-20 1zm-16 -1317l20 0 0 0 0 9 0 13 0 17 0 21 0 24 0 28 -1 30 0 34 0 36 0 39 0 41 0 43 0 45 0 46 0 48 0 49 1 51 0 51 0 52 1 52 0 53 1 52 1 52 1 52 1 52 1 50 1 50 1 48 2 47 2 46 1 43 3 42 -20 1 -3 -42 -1 -43 -2 -46 -2 -47 -1 -48 -1 -50 -1 -51 -1 -51 -1 -52 -1 -53 -1 -52 0 -53 -1 -52 0 -52 0 -51 -1 -50 0 -50 0 -48 0 -46 0 -45 0 -43 0 -41 0 -39 0 -36 0 -34 1 -31 0 -27 0 -24 0 -21 0 -17 0 -13 0 -9 0 0zm0 0c0,-6 5,-10 10,-10 6,0 10,4 10,10l-20 0zm17 -1559l20 0 0 0 0 9 0 16 0 24 -1 30 0 36 0 42 -1 48 -1 51 0 56 -1 60 -1 62 0 65 -1 67 -1 69 -1 70 0 70 -1 70 -1 70 -1 69 -1 67 0 66 -1 63 -1 60 0 56 -1 52 0 48 -1 43 0 37 -1 31 0 24 0 18 0 10 -20 0 0 -10 0 -18 0 -24 1 -31 0 -38 1 -42 0 -48 1 -52 0 -57 1 -60 1 -62 0 -66 1 -67 1 -69 1 -70 1 -70 0 -71 1 -69 1 -69 1 -67 0 -65 1 -63 1 -59 0 -56 1 -52 1 -47 0 -42 0 -36 1 -30 0 -24 0 -16 0 -9 0 0zm0 0c0,-6 5,-10 10,-10 6,0 10,5 10,10l-20 0zm54 -502l18 10 0 0 -4 8 -3 9 -3 11 -4 12 -3 14 -2 14 -3 15 -3 16 -2 17 -3 18 -2 18 -2 18 -2 19 -2 19 -1 20 -2 19 -1 19 -2 20 -1 19 -1 19 -1 18 -1 18 0 17 -1 17 -1 16 0 15 -1 14 0 13 0 12 0 11 -1 9 0 8 -20 0 0 -8 1 -10 0 -10 0 -13 0 -13 1 -14 0 -15 1 -16 1 -17 0 -17 1 -18 1 -19 1 -18 1 -20 2 -19 1 -19 2 -20 1 -19 2 -20 2 -19 2 -18 2 -19 3 -17 2 -18 3 -16 3 -16 3 -15 3 -13 3 -13 4 -12 4 -11 4 -9 0 -1zm0 1c2,-5 8,-7 13,-5 5,3 7,9 5,14l-18 -9zm120 -98l7 19 0 -1 -4 2 -4 2 -4 2 -5 2 -4 2 -4 2 -4 2 -4 2 -4 2 -4 3 -3 2 -4 2 -4 3 -4 2 -3 3 -4 3 -3 2 -4 3 -3 3 -3 3 -3 3 -3 3 -3 3 -3 4 -3 3 -3 3 -3 4 -3 4 -2 3 -3 4 -2 4 -2 4 -18 -10 3 -4 3 -4 2 -5 3 -4 3 -4 3 -4 3 -4 4 -4 3 -3 3 -4 4 -3 3 -4 4 -3 4 -3 3 -3 4 -3 4 -3 4 -3 4 -3 4 -2 4 -3 4 -3 4 -2 4 -2 5 -3 4 -2 4 -2 5 -2 4 -2 5 -2 4 -2 5 -2 0 0zm0 0c5,-2 11,0 13,5 2,6 -1,11 -6,13l-7 -18zm139 -77l18 10 -2 3 -2 3 -2 2 -2 3 -3 2 -2 3 -3 2 -3 3 -3 2 -3 2 -4 3 -4 3 -4 2 -4 3 -4 2 -5 3 -5 2 -5 3 -5 3 -5 2 -6 3 -5 3 -6 2 -6 3 -7 3 -6 3 -7 3 -7 3 -7 3 -8 3 -7 3 -8 3 -7 -19 8 -3 7 -3 7 -3 7 -3 7 -3 7 -2 6 -3 6 -3 6 -3 6 -2 6 -3 5 -3 5 -2 5 -3 5 -2 4 -3 5 -2 4 -3 4 -2 3 -2 4 -3 3 -2 3 -2 3 -2 2 -2 2 -2 2 -2 2 -2 2 -2 1 -2 2 -1 0 -2zm0 0c3,-4 9,-6 14,-3 5,3 7,9 4,13l-18 -10z"/>
  </g>
 </g>
</svg>
