<?xml version="1.0" encoding="UTF-8"?>
<!DOCTYPE svg PUBLIC "-//W3C//DTD SVG 1.1//EN" "http://www.w3.org/Graphics/SVG/1.1/DTD/svg11.dtd">
<!-- Creator: CorelDRAW X8 -->
<svg xmlns="http://www.w3.org/2000/svg" xml:space="preserve" width="40mm" height="60mm" version="1.1" style="shape-rendering:geometricPrecision; text-rendering:geometricPrecision; image-rendering:optimizeQuality; fill-rule:evenodd; clip-rule:evenodd"
viewBox="0 0 4000 6000"
 xmlns:xlink="http://www.w3.org/1999/xlink">
 <defs>
  <style type="text/css">
   <![CDATA[
    .str0 {stroke:#332C2B;stroke-width:19.4}
    .fil0 {fill:none;fill-rule:nonzero}
   ]]>
  </style>
 </defs>
 <g id="图层_x0020_1">
  <metadata id="CorelCorpID_0Corel-Layer"/>
  <g id="_1730329823488">
   <g>
    <line class="fil0 str0" x1="3018" y1="650" x2="3018" y2= "681" />
    <polyline class="fil0 str0" points="2723,650 2723,660 2720,660 2719,659 "/>
    <path class="fil0 str0" d="M2719 659c-2,5 -3,8 -6,16 -10,33 -10,33 -394,32"/>
    <line class="fil0 str0" x1="2319" y1="707" x2="2137" y2= "707" />
    <path class="fil0 str0" d="M2137 707c-307,-1 -614,-2 -920,-3"/>
    <polyline class="fil0 str0" points="1217,704 1217,705 1207,707 1207,708 1207,709 1207,710 1199,714 1200,715 1200,716 1201,717 1195,724 1196,724 1196,725 1197,725 1197,726 1193,734 "/>
    <path class="fil0 str0" d="M1193 734c1,0 2,0 3,1"/>
    <polyline class="fil0 str0" points="1196,735 1194,745 1194,745 1198,745 1200,754 1201,754 1202,753 1203,753 1207,762 1208,761 1209,761 1209,760 1210,760 1210,759 1217,766 1217,766 1217,765 1218,765 1218,765 1218,765 1831,1202 1831,1202 "/>
    <path class="fil0 str0" d="M1831 1202c2,-6 2,-5 2,-10 -3,-4 -5,-5 -11,-7 0,-7 0,-13 0,-19"/>
    <line class="fil0 str0" x1="1822" y1="1166" x2="1821" y2= "1148" />
    <path class="fil0 str0" d="M1821 1148c-1,-37 -1,-37 88,-92"/>
    <polyline class="fil0 str0" points="1909,1056 1954,1028 1954,1027 1953,1027 1953,1026 1952,1026 1958,1021 1958,1020 1957,1020 1958,1020 1962,1015 1961,1013 1956,1012 1958,1012 "/>
    <path class="fil0 str0" d="M1958 1012c0,-1 0,-2 0,-3 0,-3 -1,-6 -4,-26"/>
    <polyline class="fil0 str0" points="1954,983 1951,983 1950,985 1946,979 1945,979 1945,980 1945,980 1944,980 "/>
    <path class="fil0 str0" d="M1944 980c-24,-19 -36,-43 -36,-73 0,-51 40,-89 93,-89 51,0 90,38 90,89 0,36 -2,38 -53,95"/>
    <polyline class="fil0 str0" points="2038,1002 2039,1002 2039,1003 2039,1003 2043,1004 2042,1009 2050,1033 2051,1032 2052,1032 2052,1032 2053,1032 2057,1037 2058,1036 2058,1035 2058,1035 2065,1041 2065,1040 2065,1039 2076,1046 "/>
    <path class="fil0 str0" d="M2076 1046c65,41 80,50 91,62 11,11 12,18 12,46"/>
    <polyline class="fil0 str0" points="2179,1154 2179,1206 2184,1205 2188,1202 2189,1195 2188,1189 2801,752 2800,752 2800,752 2806,745 2806,744 2806,743 2805,742 2804,742 2809,733 "/>
    <path class="fil0 str0" d="M2809 733c-1,0 -3,0 -4,0 0,0 0,0 0,0"/>
    <polyline class="fil0 str0" points="2805,733 2806,733 2807,723 2803,723 2802,714 2800,714 2800,715 2799,715 2794,706 2793,707 2793,707 2791,708 2784,702 2784,703 2783,703 2783,704 2783,704 2774,700 2774,703 2764,701 2764,700 2764,704 2572,704 "/>
    <polyline class="fil0 str0" points="1916,1562 1906,1562 1906,1565 "/>
    <path class="fil0 str0" d="M1906 1565c0,0 1,1 1,2 -27,20 -49,62 -49,94"/>
    <polyline class="fil0 str0" points="1858,1661 1863,1831 1861,1870 "/>
    <path class="fil0 str0" d="M1861 1870c0,2 0,4 0,5 0,19 12,31 49,50"/>
    <line class="fil0 str0" x1="1910" y1="1925" x2="1949" y2= "1946" />
    <path class="fil0 str0" d="M1949 1946c27,15 42,31 42,46 0,8 -6,18 -26,43 -29,38 -29,39 -30,77"/>
    <line class="fil0 str0" x1="1935" y1="2112" x2="1963" y2= "3617" />
    <path class="fil0 str0" d="M1963 3617c2,115 3,215 3,300 0,297 -6,410 -25,463 -1,3 -1,5 -1,7"/>
    <line class="fil0 str0" x1="1940" y1="4387" x2="1940" y2= "4388" />
    <path class="fil0 str0" d="M1940 4388c-1,4 -1,4 24,33"/>
    <line class="fil0 str0" x1="1964" y1="4421" x2="1976" y2= "4435" />
    <path class="fil0 str0" d="M1976 4435c11,13 20,31 20,40 0,8 -7,16 -27,30 -141,103 -720,510 -964,678 0,-2 0,-3 0,-4 0,-1 0,-2 0,-3"/>
    <line class="fil0 str0" x1="1005" y1="5176" x2="989" y2= "5173" />
    <path class="fil0 str0" d="M989 5173c0,-1 0,-2 0,-3"/>
    <polyline class="fil0 str0" points="989,5170 990,5170 990,5169 990,5170 983,5165 984,5163 985,5163 985,5163 979,5157 982,5155 982,5155 983,5154 984,5154 984,1203 "/>
    <path class="fil0 str0" d="M984 1203c0,-192 1,-247 5,-370"/>
    <polyline class="fil0 str0" points="989,833 988,833 992,833 994,835 999,829 999,830 1000,830 1001,830 1008,825 1008,826 1009,827 1009,827 1009,828 1009,830 1025,827 1025,832 1919,1467 1919,1466 1919,1467 1919,1467 1919,1467 1918,1468 1922,1474 1922,1474 "/>
    <path class="fil0 str0" d="M1922 1474c-2,1 -3,2 -5,2"/>
    <polyline class="fil0 str0" points="1917,1476 1919,1484 1913,1484 1911,1490 "/>
    <path class="fil0 str0" d="M1911 1490c-1,0 -2,0 -2,0"/>
    <polyline class="fil0 str0" points="1909,1490 1908,1489 1908,1488 1907,1488 1903,1493 1902,1493 1902,1492 1901,1492 1901,1491 "/>
    <path class="fil0 str0" d="M1901 1491c-42,26 -45,31 -44,103"/>
    <line class="fil0 str0" x1="1857" y1="1594" x2="1857" y2= "1724" />
    <polyline class="fil0 str0" points="2113,1562 2113,1572 2120,1570 "/>
    <path class="fil0 str0" d="M2120 1570c23,33 23,33 23,113 0,158 -1,185 -4,201 -4,16 -10,22 -49,44 -71,42 -79,48 -79,66 0,9 5,17 28,46 26,33 27,34 28,73"/>
    <line class="fil0 str0" x1="2067" y1="2113" x2="2063" y2= "4385" />
    <path class="fil0 str0" d="M2063 4385c-1,10 -4,14 -38,56 -11,14 -19,28 -19,35"/>
    <line class="fil0 str0" x1="2006" y1="4476" x2="2005" y2= "4479" />
    <path class="fil0 str0" d="M2005 4479c-4,6 -4,6 217,163"/>
    <line class="fil0 str0" x1="2222" y1="4642" x2="2333" y2= "4722" />
    <path class="fil0 str0" d="M2333 4722c456,325 636,450 664,461"/>
    <polyline class="fil0 str0" points="2997,5183 2997,5176 3013,5173 3013,5172 3012,5171 3012,5170 3011,5170 3018,5165 3017,5163 3017,5163 3016,5162 3021,5155 3018,5154 3018,5153 3016,5153 3018,5153 3018,3529 "/>
    <path class="fil0 str0" d="M3018 3529c0,-711 -1,-1421 -4,-2131"/>
    <polyline class="fil0 str0" points="3014,1398 3011,833 3010,833 3009,833 3008,833 3008,834 3003,828 3003,829 3002,829 3002,830 3001,830 3001,830 2994,825 2994,826 2993,827 2992,830 "/>
    <path class="fil0 str0" d="M2992 830c-2,-1 -4,-1 -5,-1 -24,0 -53,21 -905,638"/>
    <polyline class="fil0 str0" points="2082,1467 2083,1467 2083,1467 2084,1468 2079,1474 2080,1474 2080,1474 2081,1475 2084,1476 2083,1484 2082,1484 2088,1484 2089,1490 "/>
    <path class="fil0 str0" d="M2089 1490c1,0 2,0 2,0"/>
    <polyline class="fil0 str0" points="2091,1490 2094,1487 2099,1493 2100,1493 2100,1492 2101,1492 2101,1491 "/>
    <path class="fil0 str0" d="M2101 1491c40,25 43,32 42,100"/>
    <line class="fil0 str0" x1="2143" y1="1591" x2="2143" y2= "1692" />
    <line class="fil0 str0" x1="2715" y1="5340" x2="2715" y2= "5350" />
    <path class="fil0 str0" d="M2715 5350c-5,-2 -6,-2 -10,-5 0,-2 0,-4 0,-5"/>
    <polyline class="fil0 str0" points="2705,5340 2706,5333 2711,5330 2710,5330 "/>
    <path class="fil0 str0" d="M2710 5330c-22,-27 -36,-33 -75,-35 -468,0 -937,0 -1405,0"/>
    <polyline class="fil0 str0" points="1230,5295 1230,5291 1230,5293 1220,5291 1221,5289 1221,5288 1213,5283 1214,5282 1214,5281 1215,5280 1215,5281 1209,5275 1210,5273 1210,5273 1211,5273 1207,5264 1207,5264 1208,5263 1210,5263 1208,5254 1212,5254 1214,5244 1213,5244 1215,5244 1216,5244 1220,5236 1221,5236 1222,5237 1222,5238 1223,5238 1230,5232 1230,5232 1231,5232 2010,4679 "/>
    <path class="fil0 str0" d="M2010 4679c0,0 1,2 1,5 0,2 -1,5 -1,8"/>
    <polyline class="fil0 str0" points="2010,4692 2787,5245 2787,5244 2787,5245 2787,5245 2787,5246 2786,5246 2793,5253 2793,5254 2792,5254 2792,5254 2791,5254 2790,5255 2795,5264 2794,5264 2793,5264 2792,5264 2793,5273 2789,5273 2790,5273 2788,5283 2785,5283 2786,5283 2782,5291 2780,5290 2779,5290 2778,5289 2779,5289 2772,5296 2770,5295 2770,5294 2770,5293 2761,5298 2761,5297 2761,5296 2761,5295 2751,5296 2751,5295 2556,5295 "/>
   </g>
  </g>
 </g>
</svg>
