<?xml version="1.0" encoding="UTF-8"?>
<!DOCTYPE svg PUBLIC "-//W3C//DTD SVG 1.1//EN" "http://www.w3.org/Graphics/SVG/1.1/DTD/svg11.dtd">
<!-- Creator: CorelDRAW X8 -->
<svg xmlns="http://www.w3.org/2000/svg" xml:space="preserve" width="40mm" height="60mm" version="1.1" style="shape-rendering:geometricPrecision; text-rendering:geometricPrecision; image-rendering:optimizeQuality; fill-rule:evenodd; clip-rule:evenodd"
viewBox="0 0 4000 6000"
 xmlns:xlink="http://www.w3.org/1999/xlink">
 <defs>
  <style type="text/css">
   <![CDATA[
    .fil0 {fill:#222222;fill-rule:nonzero}
   ]]>
  </style>
 </defs>
 <g id="图层_x0020_1">
  <metadata id="CorelCorpID_0Corel-Layer"/>
  <g>
   <path class="fil0" d="M1837 955c4,-3 11,-2 14,3 3,5 1,11 -3,14l-11 -17zm-22 27l-1 -20 0 0 1 0 1 0 0 0 1 0 1 0 0 0 1 0 1 0 1 0 0 -1 1 0 1 0 0 0 1 0 1 0 1 -1 0 0 1 0 1 0 0 -1 1 0 1 0 0 -1 1 0 1 0 1 -1 0 0 1 0 1 -1 0 0 1 -1 1 0 11 17 -1 0 -1 1 -1 1 -1 0 -1 1 -1 0 -1 1 -1 0 -1 1 -1 0 -1 1 -1 0 -1 0 -1 1 -1 0 -1 0 -2 1 0 0 -2 0 -1 1 -1 0 -1 0 -1 0 -1 0 -1 1 -1 0 -1 0 -1 0 -1 0 -2 0 -1 0 -1 0 1 0zm-1 0c-5,0 -10,-4 -10,-10 0,-5 5,-10 10,-10l0 20zm-6 1l-20 -2 0 0 0 -1 0 -1 1 -1 0 -1 0 -1 0 -1 0 -1 1 -1 0 -1 1 -1 0 -1 1 -1 1 -2 1 -1 1 -1 1 0 2 -1 1 0 1 -1 1 0 1 0 1 0 1 0 1 0 1 -1 1 0 1 0 1 0 1 0 1 0 2 0 1 0 1 20 -2 0 -1 0 -1 0 -1 0 -1 0 -1 0 -1 0 0 0 -1 1 0 0 -1 0 0 0 0 0 0 0 1 -1 0 0 0 0 1 0 1 -1 0 0 0 -1 0 0 1 -1 0 0 0 0 0 0 0 1 -1 0 0 1 0 0 0 1 0 1 0 0zm0 0c-1,5 -6,9 -11,9 -5,-1 -9,-6 -9,-11l20 2zm-21 155l-20 -3 0 0 1 -3 0 -3 0 -4 1 -4 1 -5 0 -4 1 -5 1 -6 1 -5 0 -6 1 -6 1 -6 1 -6 1 -6 1 -7 0 -6 1 -6 1 -6 1 -6 1 -6 1 -6 0 -5 1 -6 1 -5 0 -4 1 -5 0 -4 1 -4 0 -3 1 -2 0 -3 0 -1 20 2 0 2 0 2 -1 3 0 3 -1 4 0 4 -1 4 0 5 -1 5 -1 5 -1 6 0 6 -1 5 -1 6 -1 7 -1 6 -1 6 0 6 -1 6 -1 7 -1 6 -1 6 -1 5 0 6 -1 5 -1 5 0 5 -1 5 -1 4 0 4 -1 3 0 3 0 0zm0 0c-1,5 -6,9 -11,8 -6,0 -10,-5 -9,-11l20 3zm-6 -8l-4 20 0 0 -1 0 0 0 0 0 -1 -1 0 0 -1 0 0 0 -1 -1 -1 0 0 0 -1 -1 -1 -1 0 0 -1 -1 0 0 -1 -1 0 -1 0 0 0 -1 -1 -1 0 0 0 -1 0 -1 0 0 0 -1 0 -1 0 0 0 0 0 -1 0 0 0 0 0 -1 20 3 0 0 0 0 0 0 0 0 0 0 0 0 0 0 0 -1 0 0 0 0 0 -1 0 0 0 0 -1 -1 0 0 0 -1 0 0 -1 -1 0 -1 0 0 -1 0 -1 -1 0 0 0 0 0 0 -1 0 0 0 0 0 -1 -1 0 0 1 0 -1 0 0 0zm0 0c6,2 9,7 8,12 -1,6 -7,9 -12,8l4 -20zm176 50l-7 18 0 0 -2 0 -2 -1 -2 -1 -3 -1 -3 -1 -3 -1 -4 -1 -3 -2 -4 -1 -4 -1 -5 -2 -5 -1 -5 -1 -5 -2 -5 -2 -6 -1 -5 -2 -6 -2 -6 -1 -7 -2 -6 -2 -7 -2 -7 -1 -7 -2 -7 -2 -7 -2 -8 -2 -7 -2 -8 -1 -8 -2 -8 -2 -8 -2 4 -20 9 2 8 2 8 2 7 2 8 2 8 2 7 2 7 1 7 2 7 2 7 2 7 2 6 1 6 2 6 2 6 2 6 1 5 2 5 1 5 2 5 1 5 2 4 1 4 1 4 2 3 1 4 1 3 1 2 1 3 1 2 1 2 1 0 0zm0 0c5,2 8,8 6,13 -2,5 -8,7 -13,5l7 -18zm91 168l-19 2 0 0 -1 -9 -1 -9 -1 -8 -2 -8 -1 -8 -1 -7 -1 -7 -1 -6 -1 -7 -1 -6 -2 -5 -1 -5 -2 -5 -1 -5 -2 -5 -2 -4 -2 -4 -2 -4 -3 -3 -2 -4 -3 -3 -3 -3 -3 -3 -3 -3 -3 -3 -4 -2 -4 -3 -5 -3 -5 -2 -5 -3 -5 -2 -6 -3 7 -18 7 2 6 3 5 3 6 3 5 3 5 3 5 3 4 4 4 3 4 4 3 4 4 4 3 4 3 5 3 5 2 5 2 5 2 5 2 5 2 6 2 6 1 6 1 6 2 7 1 7 1 7 1 8 1 7 1 8 1 9 1 9 1 9 0 0zm0 0c1,5 -3,10 -8,11 -6,0 -11,-4 -11,-9l19 -2zm18 298l-20 1 0 0 0 -4 0 -3 0 -5 0 -5 0 -5 0 -6 0 -6 0 -7 -1 -7 0 -7 0 -8 0 -9 -1 -8 0 -9 -1 -10 0 -9 0 -10 -1 -11 -1 -10 0 -11 -1 -11 -1 -12 0 -11 -1 -12 -1 -12 -1 -13 -1 -12 -1 -13 -1 -12 -2 -13 -1 -13 -1 -13 19 -2 2 13 1 13 1 13 2 13 1 12 1 13 1 12 1 12 1 12 0 12 1 11 1 11 0 11 1 11 1 11 0 10 0 9 1 10 0 9 1 9 0 8 0 8 0 8 1 7 0 6 0 7 0 6 0 5 0 5 0 4 0 4 0 3 0 0zm0 0c1,6 -4,10 -9,10 -6,1 -10,-4 -11,-9l20 -1zm-11 291l-20 -2 0 0 2 -11 1 -12 1 -11 0 -12 1 -12 1 -11 1 -12 0 -11 1 -11 1 -12 0 -11 1 -10 0 -11 0 -11 1 -10 0 -10 0 -10 0 -9 0 -10 1 -8 0 -9 0 -8 0 -8 0 -7 0 -7 0 -7 0 -6 0 -5 0 -5 0 -4 0 -4 -1 -3 20 -1 1 4 0 3 0 5 0 5 0 5 0 6 0 7 0 7 0 7 0 8 0 8 0 9 -1 9 0 9 0 10 0 9 0 11 -1 10 0 10 0 11 -1 11 0 11 -1 12 -1 11 0 12 -1 11 -1 12 -1 11 -1 12 -1 12 -1 11 -1 12 0 0zm0 0c0,6 -5,10 -11,9 -5,-1 -9,-6 -9,-11l20 2zm-111 145l-7 -18 0 0 6 -3 7 -2 5 -2 6 -3 5 -2 5 -2 5 -2 5 -3 4 -2 4 -2 3 -2 4 -3 3 -2 3 -3 3 -3 3 -3 2 -3 3 -3 2 -4 2 -3 2 -5 2 -4 2 -5 2 -5 2 -6 1 -6 2 -6 1 -7 1 -8 1 -8 1 -8 1 -9 20 2 -1 9 -1 9 -1 8 -1 8 -2 8 -1 7 -2 6 -2 7 -2 6 -2 5 -2 6 -3 5 -3 5 -3 4 -3 5 -3 4 -4 3 -3 4 -4 3 -4 3 -5 3 -4 3 -5 3 -4 2 -5 3 -6 2 -5 2 -5 3 -6 2 -6 2 -6 3 -7 2 0 0zm0 0c-5,2 -11,0 -13,-5 -2,-6 1,-11 6,-13l7 18zm-268 71l-3 -20 0 0 9 -1 10 -2 9 -2 10 -2 9 -1 9 -2 10 -2 9 -2 9 -2 9 -2 9 -2 9 -2 8 -2 9 -3 8 -2 9 -2 8 -2 8 -3 9 -2 8 -2 7 -3 8 -2 8 -3 7 -2 8 -2 7 -3 7 -2 7 -3 7 -2 7 -2 7 -3 6 -2 7 18 -7 3 -6 2 -7 3 -7 2 -7 3 -7 2 -8 3 -7 2 -8 3 -8 2 -8 2 -8 3 -8 2 -8 3 -8 2 -9 2 -8 2 -9 3 -9 2 -9 2 -9 2 -9 2 -9 2 -9 2 -9 2 -10 2 -9 2 -10 2 -9 2 -10 2 -9 1 -10 2 0 0zm0 0c-5,1 -11,-3 -12,-8 0,-6 3,-11 9,-12l3 20zm1 -1l-20 -4 0 0 0 -1 0 0 1 -1 0 -1 0 0 0 -1 0 0 1 -1 0 -1 0 0 1 -1 0 -1 1 0 0 -1 1 -1 0 0 1 -1 1 0 0 -1 1 0 1 -1 0 0 1 0 1 -1 0 0 1 0 1 0 0 0 1 0 0 -1 1 0 1 0 3 20 0 0 -1 0 0 0 0 0 0 0 0 0 0 0 0 0 0 0 0 0 0 0 0 0 0 0 0 0 1 0 0 -1 0 0 0 0 1 0 0 -1 0 0 0 0 0 0 0 0 0 0 0 0 0 0 0 0 0 0 0 0 0 1 0 0 0 0zm0 0c-1,5 -7,9 -12,8 -6,-2 -9,-7 -8,-12l20 4zm-209 436l-16 -13 0 0 12 -14 11 -14 11 -14 10 -13 10 -14 9 -13 9 -13 9 -13 8 -13 8 -12 7 -13 7 -12 7 -13 6 -12 6 -13 6 -12 6 -13 5 -12 5 -13 5 -13 5 -13 5 -13 4 -13 4 -13 4 -14 4 -14 4 -14 4 -14 3 -15 4 -15 4 -15 3 -15 20 4 -4 16 -3 15 -4 15 -4 15 -4 14 -4 15 -4 14 -4 13 -4 14 -5 14 -4 13 -5 13 -5 13 -5 13 -6 13 -6 13 -6 13 -6 13 -7 12 -6 13 -8 13 -7 13 -8 13 -9 13 -8 13 -9 14 -10 13 -10 14 -10 14 -11 14 -11 14 -12 14 0 0zm0 0c-4,4 -10,5 -14,2 -5,-4 -5,-10 -2,-15l16 13zm-119 154l-17 -11 0 0 2 -4 3 -4 3 -5 3 -5 4 -5 3 -5 4 -5 4 -6 4 -5 5 -6 4 -5 4 -6 5 -6 5 -6 4 -5 5 -6 4 -6 5 -5 4 -6 5 -5 4 -6 4 -5 4 -5 4 -5 4 -4 4 -4 3 -5 3 -3 3 -4 3 -3 2 -3 2 -3 16 13 -2 3 -3 3 -3 3 -2 3 -4 4 -3 4 -4 5 -3 4 -4 5 -4 5 -5 5 -4 5 -4 6 -5 5 -4 6 -5 5 -4 6 -5 6 -4 5 -5 6 -4 6 -4 5 -5 6 -4 5 -4 6 -3 5 -4 5 -3 5 -3 4 -3 5 -3 4 -2 4 0 0zm0 0c-3,4 -9,6 -14,3 -5,-3 -6,-9 -3,-14l17 11zm-51 178l-20 -1 0 0 0 -6 1 -6 0 -6 1 -6 1 -6 1 -6 1 -6 0 -6 1 -6 2 -6 1 -6 1 -7 1 -6 2 -6 1 -6 2 -6 2 -6 1 -5 2 -6 2 -6 2 -6 2 -6 2 -6 3 -6 2 -5 3 -6 2 -5 3 -6 3 -6 2 -5 3 -5 4 -6 17 11 -3 5 -3 5 -3 5 -2 5 -3 5 -2 5 -3 6 -2 5 -2 6 -2 5 -2 5 -2 6 -2 6 -2 5 -1 6 -2 6 -1 5 -2 6 -1 6 -1 6 -2 5 -1 6 -1 6 -1 6 -1 6 -1 6 0 5 -1 6 -1 6 0 6 -1 6 0 5 0 0zm0 0c-1,6 -5,10 -11,10 -5,-1 -10,-5 -9,-11l20 1zm-3 191l-20 0 0 0 0 -6 0 -6 0 -6 -1 -6 0 -6 0 -6 0 -6 0 -6 0 -6 0 -6 0 -6 0 -6 0 -6 0 -6 0 -6 0 -6 0 -6 0 -6 1 -6 0 -6 0 -6 0 -6 0 -6 0 -6 1 -6 0 -6 0 -6 0 -6 1 -6 0 -6 0 -6 1 -6 20 1 -1 6 0 6 0 6 -1 6 0 6 0 6 0 6 -1 6 0 6 0 6 0 6 0 6 0 6 -1 6 0 6 0 6 0 5 0 6 0 6 0 6 0 6 0 6 0 6 0 6 0 6 0 6 0 6 0 6 1 6 0 6 0 6 0 6 0 0zm0 0c0,6 -5,10 -10,10 -6,0 -10,-4 -10,-10l20 0zm4 286l-20 1 0 0 0 -4 -1 -4 0 -5 0 -6 0 -7 0 -7 0 -8 0 -9 0 -9 -1 -9 0 -10 0 -10 0 -11 0 -11 0 -11 -1 -11 0 -11 0 -11 0 -12 0 -11 0 -11 0 -11 -1 -10 0 -11 0 -10 0 -9 0 -10 0 -9 0 -8 0 -7 0 -7 0 -7 20 0 0 6 0 7 0 8 0 8 0 9 0 9 0 10 0 10 0 10 1 11 0 11 0 11 0 11 0 11 0 12 0 11 1 11 0 11 0 11 0 10 0 11 0 9 1 10 0 9 0 8 0 8 0 8 0 6 0 6 0 5 1 4 0 4 0 0zm0 0c0,5 -4,10 -10,10 -5,0 -10,-4 -10,-9l20 -1zm101 304l-15 13 0 0 -8 -10 -7 -10 -7 -9 -6 -10 -7 -9 -5 -9 -6 -9 -5 -9 -5 -9 -5 -9 -4 -9 -4 -9 -4 -8 -3 -9 -4 -9 -3 -9 -3 -9 -2 -10 -3 -9 -2 -10 -2 -9 -1 -10 -2 -10 -2 -11 -1 -10 -1 -11 -1 -11 -1 -11 -1 -12 0 -12 -1 -13 0 -12 20 -1 0 13 1 12 0 12 1 11 1 11 1 11 1 11 1 10 2 10 1 9 2 10 2 9 2 9 2 9 3 9 2 9 3 8 3 9 4 8 3 8 4 9 4 8 5 8 4 9 5 9 6 8 5 9 6 9 6 9 7 9 7 10 7 9 0 0zm0 0c4,5 3,11 -1,14 -5,4 -11,3 -14,-1l15 -13zm30 39l-16 13 0 0 -1 -1 -1 -1 -1 -2 0 -1 -1 -1 -1 -1 -1 -2 -1 -1 -1 -1 -1 -1 -1 -2 -1 -1 -1 -1 -1 -1 -1 -2 -1 -1 -1 -1 -1 -1 -1 -2 0 -1 -1 -1 -1 -1 -1 -1 -1 -2 -1 -1 -1 -1 -1 -1 -1 -2 -1 -1 -1 -1 0 -1 -1 -1 15 -13 1 2 1 1 1 1 1 1 1 2 1 1 1 1 1 1 1 2 1 1 1 1 1 1 1 2 0 1 1 1 1 1 1 1 1 2 1 1 1 1 1 1 1 2 1 1 1 1 1 1 0 1 1 2 1 1 1 1 1 1 1 1 1 1 0 0zm0 0c3,5 3,11 -2,15 -4,3 -10,2 -14,-2l16 -13zm256 626l-19 3 0 0 -4 -18 -3 -18 -3 -19 -3 -18 -4 -18 -4 -19 -3 -18 -4 -18 -5 -19 -4 -18 -5 -19 -5 -19 -5 -18 -6 -19 -6 -19 -7 -19 -7 -19 -7 -19 -8 -19 -9 -19 -9 -20 -9 -19 -10 -20 -11 -20 -11 -20 -12 -20 -13 -21 -14 -20 -14 -21 -15 -21 -16 -21 -17 -21 16 -13 17 22 16 21 15 22 15 21 14 21 13 20 12 21 12 20 11 20 10 21 10 20 9 19 8 20 8 20 8 19 7 20 7 19 6 19 6 19 5 19 5 19 5 19 5 19 4 18 4 19 4 18 4 19 3 18 4 19 3 18 3 19 3 18 0 0zm0 0c1,5 -2,11 -8,11 -5,1 -10,-2 -11,-8l19 -3zm147 975l-20 2 0 0 -3 -25 -3 -28 -4 -29 -4 -30 -5 -31 -4 -33 -5 -33 -5 -35 -5 -35 -5 -35 -5 -36 -6 -37 -5 -36 -6 -37 -5 -36 -6 -36 -6 -36 -5 -36 -5 -35 -6 -34 -5 -33 -5 -32 -5 -31 -5 -29 -4 -29 -4 -26 -5 -25 -3 -24 -4 -21 -3 -19 -3 -17 -2 -15 19 -3 3 15 3 17 3 19 3 21 4 23 4 25 5 27 4 28 5 30 5 31 5 32 5 33 5 34 6 35 5 36 6 36 5 36 6 36 5 37 6 36 5 37 6 36 5 36 5 35 5 34 5 34 4 32 5 32 4 30 3 29 4 27 3 26 0 0zm0 0c1,5 -3,10 -8,11 -6,1 -11,-3 -12,-9l20 -2zm-3 -1l2 20 0 0 0 0 -1 0 -1 0 -1 0 0 0 -1 0 -1 0 -1 0 -1 0 -1 -1 -1 0 -1 0 -1 -1 -2 -1 0 -1 -1 0 -1 -1 -1 -1 0 -1 -1 -1 0 -1 0 -1 -1 -1 0 0 0 -1 0 -1 0 0 0 -1 0 -1 0 0 -1 -1 0 -1 20 -2 0 0 0 1 0 0 1 1 0 0 0 1 0 0 0 0 0 0 0 0 0 0 0 0 0 0 -1 -1 0 0 0 -1 -1 0 0 -1 -1 0 -1 0 0 -1 -1 0 0 0 0 0 -1 0 0 0 1 0 0 0 0 0 0 0 0 0 1 0 0 0zm0 0c5,-1 10,3 11,8 1,6 -3,11 -9,12l-2 -20zm516 -64l3 19 0 0 -2 1 -5 0 -7 1 -9 1 -12 2 -14 2 -16 1 -17 3 -19 2 -20 2 -21 3 -22 3 -23 3 -24 3 -24 3 -24 3 -24 3 -23 3 -24 2 -23 3 -22 3 -21 3 -20 2 -19 3 -17 2 -16 2 -14 1 -12 2 -9 1 -7 1 -5 0 -2 1 -2 -20 2 0 4 -1 7 -1 10 -1 12 -1 14 -2 15 -2 18 -2 18 -3 21 -2 21 -3 22 -3 23 -2 23 -3 24 -3 24 -3 24 -3 24 -3 23 -3 23 -3 22 -3 22 -2 20 -3 19 -2 17 -2 16 -2 13 -2 12 -1 10 -2 7 -1 5 0 1 0 0 0zm0 0c6,-1 11,3 12,8 0,6 -4,11 -9,11l-3 -19zm-2 1l20 0 0 0 0 0 0 1 0 1 0 0 0 1 0 1 0 0 -1 1 0 1 0 1 0 0 0 1 -1 1 0 1 0 1 -1 0 0 1 -1 1 -1 1 0 0 -1 1 -1 1 -1 0 -1 0 0 1 -1 0 -1 1 -1 0 -1 0 0 0 -1 0 -1 0 -3 -19 0 0 0 0 1 0 0 0 0 0 -1 0 0 0 0 0 0 0 0 0 -1 0 0 0 0 1 0 0 -1 0 0 0 0 1 0 0 0 0 0 0 0 0 0 0 0 0 0 1 0 -1 0 0 0 0 0 0 0 0 0 -1 0 0 0 0 0 0zm0 0c0,-6 4,-10 10,-10 5,0 10,4 10,10l-20 0zm11 -190l20 1 0 0 0 4 0 3 0 5 -1 4 0 5 0 6 -1 6 0 6 -1 6 0 7 -1 7 0 7 -1 7 0 7 -1 8 0 7 -1 7 0 8 -1 7 0 7 -1 7 0 7 0 6 -1 7 0 6 0 6 -1 5 0 5 0 5 0 4 0 3 0 4 -20 0 0 -4 0 -4 0 -4 0 -5 0 -5 1 -5 0 -6 0 -6 1 -7 0 -6 1 -7 0 -7 0 -7 1 -8 0 -7 1 -7 0 -8 1 -7 0 -7 1 -8 0 -7 1 -6 0 -7 1 -7 0 -6 1 -5 0 -6 0 -5 1 -5 0 -4 0 -4 0 -3 0 0zm0 0c1,-5 5,-10 11,-9 5,0 10,5 9,10l-20 -1zm52 -1534l20 1 0 0 -1 50 0 52 -1 52 -1 53 -1 53 -1 54 -1 53 -1 54 -2 54 -1 54 -2 54 -1 54 -2 54 -2 53 -2 53 -1 52 -2 51 -2 51 -2 50 -2 49 -2 48 -2 47 -2 46 -2 44 -2 43 -2 42 -2 40 -2 39 -2 36 -2 35 -2 33 -2 31 -20 -1 2 -31 2 -33 2 -35 2 -36 2 -39 2 -40 2 -42 2 -43 2 -44 2 -46 2 -47 2 -48 2 -49 2 -50 2 -51 2 -51 2 -52 1 -53 2 -53 2 -53 1 -54 2 -54 1 -54 2 -54 1 -54 1 -54 1 -53 1 -53 1 -53 1 -52 0 -52 1 -51 0 0zm0 0c0,-5 4,-9 10,-9 5,0 10,4 10,10l-20 -1zm2 -192l20 0 0 0 0 6 0 6 0 6 0 6 0 6 0 6 0 6 0 6 0 6 -1 6 0 6 0 6 0 6 0 6 0 6 0 6 0 6 0 6 0 6 0 6 -1 6 0 6 0 7 0 6 0 6 0 6 0 6 0 6 0 6 0 6 0 6 0 6 -20 -1 0 -6 0 -6 0 -6 0 -6 0 -6 0 -6 0 -6 0 -6 0 -6 0 -6 0 -6 1 -6 0 -6 0 -6 0 -6 0 -6 0 -6 0 -6 0 -6 0 -6 0 -6 0 -6 1 -6 0 -6 0 -6 0 -6 0 -6 0 -6 0 -6 0 -6 0 -6 0 -6 0 0zm0 0c0,-6 5,-10 10,-10 6,0 10,4 10,10l-20 0zm1 -236l20 0 0 0 0 2 0 3 0 4 0 4 0 6 0 6 0 7 0 7 0 8 0 8 0 9 0 9 0 10 0 10 0 9 0 10 0 10 0 10 0 10 0 10 0 9 0 10 -1 9 0 8 0 8 0 8 0 7 0 7 0 5 0 5 0 5 0 3 -20 0 0 -4 0 -4 0 -5 0 -6 0 -6 0 -7 0 -8 0 -8 0 -8 1 -9 0 -10 0 -9 0 -10 0 -10 0 -10 0 -10 0 -10 0 -10 0 -9 0 -10 0 -9 0 -9 0 -8 0 -8 0 -7 0 -7 0 -6 0 -6 0 -4 0 -4 0 -3 0 -2 0 0zm0 0c0,-6 5,-10 10,-10 6,0 10,4 10,10l-20 0zm1 -48l20 0 0 0 0 2 0 1 0 2 0 1 0 2 0 1 0 2 0 1 0 2 0 1 -1 2 0 1 0 2 0 1 0 2 0 1 0 2 0 1 0 2 0 1 0 2 0 1 0 2 0 1 0 1 0 2 0 1 0 2 0 1 0 2 0 1 0 2 -20 0 0 -2 0 -1 0 -2 0 -1 0 -2 0 -1 0 -2 0 -1 0 -2 0 -1 0 -2 0 -1 0 -2 0 -1 0 -2 0 -1 0 -2 0 -1 0 -2 0 -1 0 -1 1 -2 0 -1 0 -2 0 -1 0 -2 0 -1 0 -2 0 -1 0 -2 0 -1 0 -2 0 0zm0 0c-1,-5 4,-10 9,-10 6,0 10,5 11,10l-20 0zm0 -145l20 0 0 0 0 2 0 2 0 3 0 3 0 4 0 4 0 4 0 5 0 5 0 5 0 6 0 6 0 6 0 5 0 6 0 7 0 6 0 6 0 6 0 5 0 6 0 6 0 5 0 5 0 5 0 4 0 4 0 4 0 3 0 3 0 2 0 2 -20 0 0 -1 0 -3 0 -3 0 -3 0 -4 0 -4 0 -4 0 -5 0 -5 0 -5 0 -6 0 -6 0 -5 0 -6 0 -6 0 -7 0 -6 0 -6 0 -6 0 -5 0 -6 0 -6 0 -5 0 -5 0 -5 0 -4 0 -4 0 -4 0 -3 0 -3 0 -3 0 -1 0 0zm0 0c0,-6 5,-10 10,-10 6,0 10,4 10,10l-20 0zm53 -336l19 7 0 0 -5 12 -4 11 -4 11 -3 11 -4 11 -3 11 -3 11 -2 11 -3 11 -2 11 -2 11 -2 11 -2 10 -2 11 -1 11 -2 10 -1 10 -1 11 -1 10 -1 10 -1 10 0 10 -1 10 0 10 -1 9 0 10 0 9 0 9 -1 9 0 9 0 9 0 9 -20 0 0 -9 0 -9 0 -9 1 -9 0 -10 0 -9 0 -10 1 -9 0 -10 1 -10 0 -10 1 -10 1 -11 1 -10 1 -11 1 -10 2 -11 1 -11 2 -11 2 -11 2 -11 2 -11 3 -11 2 -11 3 -12 3 -11 3 -11 4 -12 3 -11 4 -12 5 -11 4 -12 0 0zm0 0c2,-5 8,-8 13,-6 5,2 8,8 6,13l-19 -7zm89 -171l17 11 0 -1 -3 5 -2 6 -3 5 -3 5 -3 5 -3 6 -3 5 -3 5 -3 5 -3 5 -3 5 -3 6 -3 5 -3 5 -3 5 -2 5 -3 6 -3 5 -3 5 -3 5 -2 6 -3 5 -3 5 -2 5 -3 6 -2 5 -3 5 -2 6 -3 5 -2 5 -2 6 -2 5 -19 -7 2 -6 3 -5 2 -6 3 -5 2 -6 3 -6 2 -5 3 -5 2 -6 3 -5 3 -6 3 -5 2 -5 3 -6 3 -5 3 -5 3 -5 3 -6 3 -5 3 -5 3 -5 3 -6 2 -5 3 -5 3 -5 3 -5 3 -6 3 -5 3 -5 3 -5 3 -5 3 -5 0 -1zm0 1c3,-5 9,-7 14,-4 4,2 6,8 3,13l-17 -9zm153 -691l20 1 0 0 -1 20 0 20 -1 21 -1 21 0 21 -1 22 -1 21 -2 22 -1 22 -2 23 -2 22 -2 22 -3 23 -3 22 -3 23 -4 23 -4 22 -4 23 -5 23 -6 22 -6 23 -6 22 -7 23 -8 22 -8 22 -8 22 -10 22 -10 22 -11 21 -11 21 -12 21 -13 21 -17 -11 13 -20 12 -21 11 -20 10 -21 10 -21 9 -22 9 -21 8 -22 7 -21 7 -22 6 -22 6 -23 5 -22 5 -22 5 -22 4 -23 3 -22 3 -22 3 -23 3 -22 2 -22 2 -22 2 -22 1 -22 2 -22 1 -21 1 -21 1 -22 0 -20 1 -21 0 -20 1 -21 0 0zm0 0c0,-5 4,-10 10,-9 5,0 10,4 10,10l-20 -1zm-1 -91l20 0 0 0 0 2 0 3 0 3 0 3 0 3 0 3 0 3 0 3 0 2 0 3 1 3 0 3 0 3 0 3 0 3 0 3 0 2 0 3 0 3 0 3 0 3 0 3 0 3 0 3 0 2 0 3 0 3 0 3 0 3 0 3 0 3 0 3 -20 -1 0 -2 0 -3 0 -3 0 -3 0 -3 0 -3 0 -3 0 -2 0 -3 0 -3 0 -3 0 -3 0 -3 0 -3 0 -2 0 -3 0 -3 0 -3 0 -3 0 -3 0 -3 -1 -2 0 -3 0 -3 0 -3 0 -3 0 -3 0 -3 0 -3 0 -3 0 -2 0 -3 0 0zm0 0c0,-6 5,-10 10,-10 6,0 10,4 10,10l-20 0zm-72 -558l18 -7 0 0 5 14 5 14 4 14 4 14 4 15 4 15 4 15 3 16 4 16 3 16 3 16 3 16 3 17 2 17 3 17 2 18 2 17 2 18 2 19 2 18 1 19 2 19 1 19 1 20 1 20 1 20 1 20 1 21 0 20 1 22 0 21 0 22 -20 0 0 -22 0 -21 -1 -21 0 -21 -1 -20 -1 -20 -1 -20 -1 -20 -1 -19 -1 -20 -2 -18 -1 -19 -2 -18 -2 -18 -2 -18 -2 -18 -2 -17 -3 -17 -2 -17 -3 -16 -3 -17 -3 -16 -3 -15 -3 -16 -4 -15 -3 -15 -4 -15 -4 -14 -4 -14 -4 -14 -5 -14 -4 -13 0 0zm0 0c-2,-6 0,-11 6,-13 5,-2 11,1 12,6l-18 7zm-137 -242l16 -12 0 0 6 8 6 8 6 8 5 8 6 8 5 8 6 8 5 8 5 8 5 8 5 8 5 8 5 8 5 8 4 8 5 8 4 7 4 8 4 8 4 8 4 7 4 8 4 8 3 7 4 8 3 7 3 7 3 8 3 7 3 7 3 7 2 7 -18 7 -3 -7 -2 -7 -3 -7 -3 -7 -3 -7 -3 -7 -3 -7 -4 -7 -3 -8 -4 -7 -3 -8 -4 -7 -4 -8 -4 -7 -5 -8 -4 -8 -4 -7 -5 -8 -4 -8 -5 -8 -5 -7 -5 -8 -5 -8 -5 -8 -5 -8 -5 -8 -6 -8 -5 -7 -6 -8 -5 -8 -6 -8 -6 -8 0 0zm0 0c-3,-4 -2,-10 2,-14 5,-3 11,-2 14,2l-16 12zm-155 -181l14 -15 0 0 1 1 1 2 2 2 3 2 2 3 3 4 4 4 4 4 4 5 5 5 5 5 5 6 5 6 6 6 6 7 6 7 6 7 6 7 6 7 6 7 7 8 6 7 6 8 7 7 6 8 6 7 6 7 6 8 5 7 6 7 5 7 5 6 -16 12 -5 -6 -5 -7 -5 -7 -6 -7 -6 -7 -5 -7 -7 -8 -6 -7 -6 -7 -6 -8 -7 -7 -6 -8 -6 -7 -6 -7 -6 -7 -6 -7 -6 -7 -6 -6 -6 -7 -5 -6 -5 -5 -5 -6 -5 -5 -4 -4 -4 -5 -3 -4 -3 -3 -3 -3 -2 -2 -2 -2 -1 -1 -1 -1 0 0zm0 0c-4,-4 -4,-10 0,-14 3,-4 10,-4 14,-1l-14 15zm1 -1l-20 -3 0 0 0 -2 1 -1 0 -1 0 -1 1 -2 0 -1 0 -1 1 -1 1 -1 0 -2 1 -1 1 -1 2 -1 1 -1 2 -1 1 0 2 -1 2 0 1 0 2 0 1 1 2 0 1 1 1 0 1 1 2 0 1 1 1 1 1 1 1 1 1 0 1 1 -14 15 -1 -1 0 0 -1 -1 0 0 -1 -1 0 0 -1 0 0 0 0 0 0 0 0 0 0 0 1 0 0 0 1 0 1 0 1 -1 0 0 1 0 0 -1 1 0 0 0 0 0 0 0 0 0 0 0 0 1 -1 0 0 1 0 0 0 1 0 1 0 0zm0 0c-1,6 -6,9 -12,8 -5,-1 -9,-6 -8,-11l20 3zm-23 106l-19 -5 0 0 1 -3 0 -3 1 -3 1 -3 1 -3 1 -3 0 -4 1 -3 1 -3 1 -3 0 -4 1 -3 1 -4 1 -3 0 -3 1 -4 1 -3 0 -4 1 -3 1 -3 0 -4 1 -3 1 -4 0 -3 1 -3 1 -3 0 -4 1 -3 0 -3 1 -3 1 -3 0 -3 20 3 -1 3 0 3 -1 3 -1 4 0 3 -1 3 0 3 -1 4 -1 3 0 4 -1 3 -1 3 0 4 -1 3 -1 4 0 3 -1 4 -1 3 -1 4 0 3 -1 4 -1 3 -1 3 0 4 -1 3 -1 3 -1 4 -1 3 0 3 -1 3 -1 3 -1 3 0 0zm0 0c-1,6 -7,9 -12,7 -5,-1 -9,-7 -7,-12l19 5zm-243 201l-2 -20 0 0 11 -1 11 -1 10 -2 10 -2 10 -2 10 -2 9 -3 9 -3 9 -4 9 -4 8 -4 9 -4 7 -5 8 -5 8 -5 7 -6 7 -6 6 -6 7 -7 6 -7 6 -7 6 -7 5 -8 5 -8 5 -9 5 -9 5 -9 4 -9 4 -10 3 -10 4 -10 3 -11 19 5 -3 12 -4 11 -4 10 -4 11 -4 10 -5 10 -5 9 -6 9 -5 9 -6 8 -6 9 -7 7 -7 8 -7 7 -7 7 -8 6 -7 7 -9 6 -8 5 -9 5 -9 5 -9 4 -9 5 -10 3 -10 4 -10 3 -10 3 -11 2 -10 2 -12 2 -11 1 -11 1 0 0zm0 0c-6,0 -11,-4 -11,-9 0,-6 4,-11 9,-11l2 20zm-262 13l0 -20 0 0 6 0 7 0 7 0 7 -1 8 0 8 0 8 -1 8 0 8 0 9 -1 9 0 9 -1 9 0 9 -1 9 0 9 0 9 -1 9 0 9 -1 9 0 9 -1 9 0 8 -1 9 0 8 -1 8 0 8 -1 8 0 7 -1 7 0 7 -1 6 0 2 20 -7 0 -7 1 -7 0 -7 1 -8 0 -8 1 -8 0 -8 1 -9 0 -8 1 -9 0 -9 1 -9 0 -9 1 -9 0 -9 1 -9 0 -9 0 -9 1 -9 0 -9 1 -9 0 -9 1 -8 0 -8 0 -9 1 -7 0 -8 0 -7 0 -7 1 -7 0 -6 0 -1 0zm1 0c-6,0 -11,-4 -11,-10 0,-5 4,-10 10,-10l1 20zm-21 -6l12 -16 0 0 0 0 0 0 0 0 0 0 1 1 0 0 0 0 0 0 1 0 0 0 0 0 0 0 0 0 1 0 0 0 0 1 0 0 1 0 0 0 0 0 1 0 0 0 0 0 1 0 0 0 0 0 1 0 0 0 1 0 0 0 0 0 0 20 -1 0 0 0 -1 0 -1 0 0 0 -1 0 -1 0 0 0 -1 0 -1 0 0 -1 -1 0 -1 0 0 0 -1 0 -1 0 0 -1 -1 0 0 0 -1 0 -1 0 0 -1 -1 0 -1 0 0 0 -1 -1 0 0 -1 0 0 -1 -1 0 -1 0 0 -1zm0 0c-5,-3 -6,-9 -2,-14 3,-4 9,-5 14,-2l-12 16z"/>
  </g>
 </g>
</svg>
