<?xml version="1.0" encoding="UTF-8"?>
<!DOCTYPE svg PUBLIC "-//W3C//DTD SVG 1.1//EN" "http://www.w3.org/Graphics/SVG/1.1/DTD/svg11.dtd">
<!-- Creator: CorelDRAW X8 -->
<svg xmlns="http://www.w3.org/2000/svg" xml:space="preserve" width="40mm" height="60mm" version="1.1" style="shape-rendering:geometricPrecision; text-rendering:geometricPrecision; image-rendering:optimizeQuality; fill-rule:evenodd; clip-rule:evenodd"
viewBox="0 0 4000 6000"
 xmlns:xlink="http://www.w3.org/1999/xlink">
 <defs>
  <style type="text/css">
   <![CDATA[
    .str0 {stroke:#332C2B;stroke-width:10}
    .fil0 {fill:none}
   ]]>
  </style>
 </defs>
 <g id="图层_x0020_1">
  <metadata id="CorelCorpID_0Corel-Layer"/>
  <path class="fil0 str0" d="M1467 717c-2,-8 -4,-13 -17,-13l-11 0c-15,0 -28,12 -28,27l0 0c0,15 13,28 28,28l46 0c15,0 27,-13 27,-28l0 0c0,-15 -12,-27 -27,-27l-35 0m24 502c2,-57 -65,-102 -89,-104 -87,0 -158,70 -158,157 0,87 71,158 158,158 87,0 157,-71 157,-158 0,-87 -70,-157 -157,-157m93 479c2,-57 -65,-102 -89,-104 -88,0 -158,71 -158,158 0,87 70,157 158,157 87,0 157,-70 157,-157 0,-87 -70,-158 -157,-158m348 143c1,-23 -25,-40 -35,-41 -34,0 -61,28 -61,62 0,34 27,61 61,61 34,0 62,-27 62,-61 0,-34 -28,-62 -62,-62m-490 -542l581 0c10,0 19,9 19,19l0 784c0,11 -9,19 -19,19l-581 0c-11,0 -20,-8 -20,-19l0 -784c0,-10 9,-19 20,-19zm506 923c-2,-7 -6,-14 -11,-14l-91 0c-8,0 -14,6 -14,14l0 41c0,7 6,14 14,14l145 0c7,0 14,-7 14,-14l0 -41c0,-8 -7,-14 -14,-14l-54 0m-515 -32l630 0c8,0 14,6 14,13l0 261c0,15 -12,27 -28,27l-602 0c-16,0 -28,-12 -28,-27l0 -261c0,-7 6,-13 14,-13zm26 -921l570 0c45,0 82,37 82,82l0 1110c0,45 -37,82 -82,82l-570 0c-45,0 -82,-37 -82,-82l0 -1110c0,-45 37,-82 82,-82zm1233 4231c-2,-9 -7,-18 -14,-18l-113 0c-9,0 -17,8 -17,17l0 51c0,10 8,17 17,17l400 0c9,0 17,-7 17,-17l0 -51c0,-9 -8,-17 -17,-17l-287 0m-205 38c-7,2 -12,5 -12,16l0 10c0,14 11,25 24,25l0 0c14,0 25,-11 25,-25l0 -30c0,-14 -11,-25 -25,-25l0 0c-13,0 -24,11 -24,25l0 20m-220 -38c-4,-13 -9,-23 -32,-23l-19 0c-26,0 -48,22 -48,48l0 0c0,26 22,48 48,48l159 0c27,0 48,-22 48,-48l0 0c0,-26 -21,-48 -48,-48l-140 0m-536 57c-5,-17 -14,-31 -56,-31l-36 0c-19,0 -34,16 -34,34l0 0c0,19 15,35 34,35l254 0c19,0 34,-16 34,-35l0 0c0,-18 -15,-34 -34,-34l-218 0m-418 -4215l3 0c18,-95 102,-168 202,-168l7 0 0 -178c0,-8 6,-14 14,-14l1631 0c7,0 13,6 13,14l0 178 7 0c100,0 184,73 202,168l5 0c-3,-97 -25,-186 -57,-274 -3,-9 4,-18 13,-18l126 0c8,0 14,7 14,14l0 4536c0,7 -6,13 -14,13l-131 0c-9,0 -17,-6 -13,-16 41,-94 56,-192 61,-284l-2 0c-14,100 -100,177 -204,177l-7 0 0 178c0,8 -6,14 -13,14l-1631 0c-8,0 -14,-6 -14,-14l0 -178 -7 0c-103,0 -189,-77 -203,-177l-1 0c5,92 20,190 61,284 4,10 -4,16 -13,16l-131 0c-8,0 -14,-6 -14,-13l0 -2397c0,-14 1,-16 19,-16l30 0c15,0 28,-12 28,-27l0 -240c0,-15 -13,-28 -28,-28l-32 0c-16,0 -17,-6 -17,-17l0 -140c0,-16 5,-18 22,-18l29 0c15,0 28,-13 28,-28l0 -479c0,-15 -13,-28 -28,-28l-32 0c-13,0 -19,-4 -19,-19l0 -1099c0,-7 6,-14 14,-14l126 0c9,0 16,9 13,18 -32,88 -54,177 -57,274z"/>
 </g>
</svg>
