<?xml version="1.0" encoding="UTF-8"?>
<!DOCTYPE svg PUBLIC "-//W3C//DTD SVG 1.1//EN" "http://www.w3.org/Graphics/SVG/1.1/DTD/svg11.dtd">
<!-- Creator: CorelDRAW X8 -->
<svg xmlns="http://www.w3.org/2000/svg" xml:space="preserve" width="40mm" height="60mm" version="1.1" style="shape-rendering:geometricPrecision; text-rendering:geometricPrecision; image-rendering:optimizeQuality; fill-rule:evenodd; clip-rule:evenodd"
viewBox="0 0 4000 6000"
 xmlns:xlink="http://www.w3.org/1999/xlink">
 <defs>
  <style type="text/css">
   <![CDATA[
    .str0 {stroke:black;stroke-width:7.62}
    .fil0 {fill:none}
   ]]>
  </style>
 </defs>
 <g id="图层_x0020_1">
  <metadata id="CorelCorpID_0Corel-Layer"/>
  <path class="fil0 str0" d="M1953 729c-2,-8 -5,-14 -19,-14l-12 0c-16,0 -29,13 -29,29l0 0c0,16 13,29 29,29l162 0c16,0 29,-13 29,-29l0 0c0,-16 -13,-29 -29,-29l-150 0m-148 633c-1,-10 -10,-20 -28,-21 -66,0 -119,53 -119,119 0,66 53,119 119,119 66,0 119,-53 119,-119 0,-66 -53,-119 -119,-119m519 21c-1,-10 -10,-20 -28,-21 -66,0 -119,53 -119,119 0,66 53,119 119,119 66,0 119,-53 119,-119 0,-66 -53,-119 -119,-119m-647 383c-1,-10 -10,-19 -28,-21 -66,0 -120,54 -120,120 0,65 54,119 120,119 65,0 119,-54 119,-119 0,-66 -54,-120 -119,-120m353 40c-40,11 -70,25 -70,95l0 2c0,80 60,137 140,137l14 0c80,0 137,-57 137,-137l0 -53c0,-80 -55,-141 -135,-141l-18 0c-80,0 -138,61 -138,141l0 51m608 -127c-1,-10 -10,-19 -29,-21 -65,0 -119,53 -119,119 0,66 54,119 119,119 66,0 120,-53 120,-119 0,-66 -54,-119 -120,-119m-421 535c-3,-12 -7,-21 -28,-21l-17 0c-24,0 -44,19 -44,43l0 0c0,24 20,44 44,44l87 0c24,0 44,-20 44,-44l0 0c0,-24 -20,-43 -44,-43l-70 0m16 -975c321,0 582,261 582,583 0,322 -261,582 -582,582 -322,0 -583,-260 -583,-582 0,-322 261,-583 583,-583zm0 -45c351,0 635,285 635,636 0,351 -284,635 -635,635 -351,0 -636,-284 -636,-635 0,-351 285,-636 636,-636zm-712 4071c-2,-9 -6,-16 -22,-16l-14 0c-19,0 -34,15 -34,34l0 0c0,19 15,35 34,35l297 0c19,0 35,-16 35,-35l0 0c0,-19 -16,-34 -35,-34l-283 0m700 6c-4,-13 -8,-23 -30,-23l-19 0c-25,0 -46,21 -46,47l0 0c0,25 21,46 46,46l154 0c25,0 46,-21 46,-46l0 0c0,-26 -21,-47 -46,-47l-135 0m401 21c-4,-13 -9,-23 -32,-23l-20 0c-27,0 -49,22 -49,49l0 0c0,26 22,49 49,49l360 0c27,0 49,-22 49,-49l0 0c0,-27 -22,-49 -49,-49l-340 0m-1465 -4479c123,-4 240,-77 376,-77l1587 0c119,0 248,70 348,77 4,0 8,3 8,8l2 42c1,4 -3,8 -7,8 -92,2 -231,78 -344,82l0 6c115,14 205,112 205,231l35 0c8,0 14,6 14,13l0 3760c0,8 -6,14 -14,14l-35 0c0,118 -90,217 -205,230l0 12c116,2 243,70 341,77 4,0 8,3 8,8l2 42c1,4 -3,8 -7,8 -95,2 -239,82 -354,82l-1605 0c-117,0 -264,-80 -355,-77 -4,0 -7,-3 -7,-8l0 -47c0,-5 3,-8 7,-8 117,-4 228,-70 356,-76l0 -12c-122,-6 -220,-108 -220,-231l-31 0c-7,0 -13,-6 -13,-14l0 -1975c0,-10 8,-18 18,-18l39 0c7,0 13,-6 13,-14l0 -937c0,-7 -6,-13 -13,-13l-39 0c-10,0 -18,-9 -18,-19l0 -784c0,-7 6,-13 13,-13l31 0c0,-124 98,-226 220,-232l0 -5 -1 0c-117,0 -264,-80 -355,-77 -4,0 -7,-3 -7,-8l0 -47c0,-5 3,-8 7,-8z"/>
 </g>
</svg>
