<?xml version="1.0" encoding="UTF-8"?>
<!DOCTYPE svg PUBLIC "-//W3C//DTD SVG 1.1//EN" "http://www.w3.org/Graphics/SVG/1.1/DTD/svg11.dtd">
<!-- Creator: CorelDRAW X8 -->
<svg xmlns="http://www.w3.org/2000/svg" xml:space="preserve" width="40mm" height="60mm" version="1.1" style="shape-rendering:geometricPrecision; text-rendering:geometricPrecision; image-rendering:optimizeQuality; fill-rule:evenodd; clip-rule:evenodd"
viewBox="0 0 4000 6000"
 xmlns:xlink="http://www.w3.org/1999/xlink">
 <defs>
  <style type="text/css">
   <![CDATA[
    .str0 {stroke:black;stroke-width:7.62}
    .fil0 {fill:none}
   ]]>
  </style>
 </defs>
 <g id="Capa_x0020_1">
  <metadata id="CorelCorpID_0Corel-Layer"/>
  <path class="fil0 str0" d="M1018 650l1964 0c79,0 144,65 144,144l0 4412c0,79 -65,144 -144,144l-1964 0c-79,0 -144,-65 -144,-144l0 -4412c0,-79 65,-144 144,-144zm1387 98c31,0 56,25 56,57 0,31 -25,57 -56,57 -31,0 -56,-26 -56,-57 0,-32 25,-57 56,-57zm-828 111c-21,0 -38,-17 -38,-38 0,-20 17,-37 38,-37l556 0c21,0 38,17 38,38 0,21 -17,38 -38,38m-557 -1l557 1"/>
 </g>
</svg>
