<?xml version="1.0" encoding="UTF-8"?>
<!DOCTYPE svg PUBLIC "-//W3C//DTD SVG 1.1//EN" "http://www.w3.org/Graphics/SVG/1.1/DTD/svg11.dtd">
<!-- Creator: CorelDRAW X8 -->
<svg xmlns="http://www.w3.org/2000/svg" xml:space="preserve" width="40mm" height="60mm" version="1.1" style="shape-rendering:geometricPrecision; text-rendering:geometricPrecision; image-rendering:optimizeQuality; fill-rule:evenodd; clip-rule:evenodd"
viewBox="0 0 4000 6000"
 xmlns:xlink="http://www.w3.org/1999/xlink">
 <defs>
  <style type="text/css">
   <![CDATA[
    .str0 {stroke:#333333;stroke-width:18;stroke-linejoin:bevel}
    .fil0 {fill:none}
   ]]>
  </style>
 </defs>
 <g id="图层_x0020_1">
  <metadata id="CorelCorpID_0Corel-Layer"/>
  <path class="fil0 str0" d="M1038 5350c374,0 1783,0 1783,0 115,0 209,-94 209,-209 0,0 0,-4282 0,-4282 0,-115 -94,-209 -209,-209 0,0 -687,0 -687,0 -27,0 -49,22 -49,49 0,0 0,36 0,36 0,47 -38,86 -85,86 -47,0 -85,-39 -85,-86 0,-12 0,-24 0,-37 0,-26 -22,-48 -49,-48 0,0 -687,0 -687,0 -115,0 -209,94 -209,209 0,0 0,4282 0,4282 0,115 94,209 209,209 0,0 44,0 116,0"/>
 </g>
</svg>
