<?xml version="1.0" encoding="UTF-8"?>
<!DOCTYPE svg PUBLIC "-//W3C//DTD SVG 1.1//EN" "http://www.w3.org/Graphics/SVG/1.1/DTD/svg11.dtd">
<!-- Creator: CorelDRAW X8 -->
<svg xmlns="http://www.w3.org/2000/svg" xml:space="preserve" width="40mm" height="60mm" version="1.1" style="shape-rendering:geometricPrecision; text-rendering:geometricPrecision; image-rendering:optimizeQuality; fill-rule:evenodd; clip-rule:evenodd"
viewBox="0 0 4000 6000"
 xmlns:xlink="http://www.w3.org/1999/xlink">
 <defs>
  <style type="text/css">
   <![CDATA[
    .str0 {stroke:#332C2B;stroke-width:10}
    .fil0 {fill:none}
   ]]>
  </style>
 </defs>
 <g id="图层_x0020_1">
  <metadata id="CorelCorpID_0Corel-Layer"/>
  <path class="fil0 str0" d="M2880 650l115 0c108,0 197,89 197,197l0 970c0,108 -89,197 -197,197l-115 0c-109,0 -197,-89 -197,-197l0 -970c0,-108 88,-197 197,-197zm24 69c-1,-13 -12,-25 -36,-27 -84,0 -151,68 -151,152 0,83 67,151 151,151 84,0 152,-68 152,-151 0,-84 -68,-152 -152,-152m275 134c1,-20 -22,-35 -30,-35 -30,0 -53,23 -53,53 0,29 23,53 53,53 29,0 53,-24 53,-53 0,-30 -24,-53 -53,-53m-209 256c-1,-13 -12,-25 -36,-27 -84,0 -151,68 -151,152 0,83 67,151 151,151 84,0 152,-68 152,-151 0,-84 -68,-152 -152,-152m36 355c-1,-13 -12,-25 -36,-27 -84,0 -151,68 -151,151 0,84 67,152 151,152 84,0 152,-68 152,-152 0,-83 -68,-151 -152,-151m36 355c-1,-13 -12,-25 -36,-27 -84,0 -151,68 -151,151 0,84 67,152 151,152 84,0 152,-68 152,-152 0,-83 -68,-151 -152,-151m-613 -1026l115 0c108,0 197,89 197,197l0 970c0,108 -89,197 -197,197l-115 0c-109,0 -197,-89 -197,-197l0 -970c0,-108 88,-197 197,-197zm24 69c-1,-13 -12,-25 -36,-27 -83,0 -151,68 -151,152 0,83 68,151 151,151 84,0 152,-68 152,-151 0,-84 -68,-152 -152,-152m275 134c1,-20 -22,-35 -30,-35 -29,0 -53,23 -53,53 0,29 24,53 53,53 29,0 53,-24 53,-53 0,-30 -24,-53 -53,-53m-209 256c-1,-13 -12,-25 -36,-27 -83,0 -151,68 -151,152 0,83 68,151 151,151 84,0 152,-68 152,-151 0,-84 -68,-152 -152,-152m36 355c-1,-13 -12,-25 -36,-27 -83,0 -151,68 -151,151 0,84 68,152 151,152 84,0 152,-68 152,-152 0,-83 -68,-151 -152,-151m36 355c-1,-13 -12,-25 -36,-27 -83,0 -151,68 -151,151 0,84 68,152 151,152 84,0 152,-68 152,-152 0,-83 -68,-151 -152,-151m-613 -1026l115 0c109,0 197,89 197,197l0 970c0,108 -88,197 -197,197l-115 0c-108,0 -197,-89 -197,-197l0 -970c0,-108 89,-197 197,-197zm24 69c-1,-13 -12,-25 -35,-27 -84,0 -152,68 -152,152 0,83 68,151 152,151 83,0 151,-68 151,-151 0,-84 -68,-152 -151,-152m274 134c1,-20 -22,-35 -30,-35 -29,0 -53,23 -53,53 0,29 24,53 53,53 29,0 53,-24 53,-53 0,-30 -24,-53 -53,-53m-209 256c-1,-13 -12,-25 -35,-27 -84,0 -152,68 -152,152 0,83 68,151 152,151 83,0 151,-68 151,-151 0,-84 -68,-152 -151,-152m35 355c-1,-13 -12,-25 -35,-27 -84,0 -152,68 -152,151 0,84 68,152 152,152 83,0 151,-68 151,-152 0,-83 -68,-151 -151,-151m35 355c-1,-13 -12,-25 -35,-27 -84,0 -152,68 -152,151 0,84 68,152 152,152 83,0 151,-68 151,-152 0,-83 -68,-151 -151,-151m-614 -1026l115 0c109,0 197,89 197,197l0 970c0,108 -88,197 -197,197l-115 0c-108,0 -197,-89 -197,-197l0 -970c0,-108 89,-197 197,-197zm24 69c0,-13 -12,-25 -35,-27 -84,0 -152,68 -152,152 0,83 68,151 152,151 83,0 151,-68 151,-151 0,-84 -68,-152 -151,-152m274 134c1,-20 -22,-35 -30,-35 -29,0 -53,23 -53,53 0,29 24,53 53,53 29,0 53,-24 53,-53 0,-30 -24,-53 -53,-53m-209 256c0,-13 -12,-25 -35,-27 -84,0 -152,68 -152,152 0,83 68,151 152,151 83,0 151,-68 151,-151 0,-84 -68,-152 -151,-152m35 355c0,-13 -12,-25 -35,-27 -84,0 -152,68 -152,151 0,84 68,152 152,152 83,0 151,-68 151,-152 0,-83 -68,-151 -151,-151m35 355c0,-13 -12,-25 -35,-27 -84,0 -152,68 -152,151 0,84 68,152 152,152 83,0 151,-68 151,-152 0,-83 -68,-151 -151,-151m1886 658l115 0c108,0 197,89 197,197l0 970c0,108 -89,197 -197,197l-115 0c-109,0 -197,-89 -197,-197l0 -970c0,-108 88,-197 197,-197zm24 69c-1,-13 -12,-25 -36,-27 -84,0 -151,68 -151,152 0,83 67,151 151,151 84,0 152,-68 152,-151 0,-84 -68,-152 -152,-152m275 134c1,-19 -22,-35 -30,-35 -30,0 -53,23 -53,53 0,29 23,53 53,53 29,0 53,-24 53,-53 0,-30 -24,-53 -53,-53m-209 256c-1,-13 -12,-25 -36,-27 -84,0 -151,68 -151,152 0,83 67,151 151,151 84,0 152,-68 152,-151 0,-84 -68,-152 -152,-152m36 355c-1,-13 -12,-25 -36,-27 -84,0 -151,68 -151,152 0,83 67,151 151,151 84,0 152,-68 152,-151 0,-84 -68,-152 -152,-152m36 355c-1,-13 -12,-25 -36,-27 -84,0 -151,68 -151,151 0,84 67,152 151,152 84,0 152,-68 152,-152 0,-83 -68,-151 -152,-151m-613 -1026l115 0c108,0 197,89 197,197l0 970c0,108 -89,197 -197,197l-115 0c-109,0 -197,-89 -197,-197l0 -970c0,-108 88,-197 197,-197zm24 69c-1,-13 -12,-25 -36,-27 -83,0 -151,68 -151,152 0,83 68,151 151,151 84,0 152,-68 152,-151 0,-84 -68,-152 -152,-152m275 134c1,-19 -22,-35 -30,-35 -29,0 -53,23 -53,53 0,29 24,53 53,53 29,0 53,-24 53,-53 0,-30 -24,-53 -53,-53m-209 256c-1,-13 -12,-25 -36,-27 -83,0 -151,68 -151,152 0,83 68,151 151,151 84,0 152,-68 152,-151 0,-84 -68,-152 -152,-152m36 355c-1,-13 -12,-25 -36,-27 -83,0 -151,68 -151,152 0,83 68,151 151,151 84,0 152,-68 152,-151 0,-84 -68,-152 -152,-152m36 355c-1,-13 -12,-25 -36,-27 -83,0 -151,68 -151,151 0,84 68,152 151,152 84,0 152,-68 152,-152 0,-83 -68,-151 -152,-151m-613 -1026l115 0c109,0 197,89 197,197l0 970c0,108 -88,197 -197,197l-115 0c-108,0 -197,-89 -197,-197l0 -970c0,-108 89,-197 197,-197zm24 69c-1,-13 -12,-25 -35,-27 -84,0 -152,68 -152,152 0,83 68,151 152,151 83,0 151,-68 151,-151 0,-84 -68,-152 -151,-152m274 134c1,-19 -22,-35 -30,-35 -29,0 -53,23 -53,53 0,29 24,53 53,53 29,0 53,-24 53,-53 0,-30 -24,-53 -53,-53m-209 256c-1,-13 -12,-25 -35,-27 -84,0 -152,68 -152,152 0,83 68,151 152,151 83,0 151,-68 151,-151 0,-84 -68,-152 -151,-152m35 355c-1,-13 -12,-25 -35,-27 -84,0 -152,68 -152,152 0,83 68,151 152,151 83,0 151,-68 151,-151 0,-84 -68,-152 -151,-152m35 355c-1,-13 -12,-25 -35,-27 -84,0 -152,68 -152,151 0,84 68,152 152,152 83,0 151,-68 151,-152 0,-83 -68,-151 -151,-151m-614 -1026l115 0c109,0 197,89 197,197l0 970c0,108 -88,197 -197,197l-115 0c-108,0 -197,-89 -197,-197l0 -970c0,-108 89,-197 197,-197zm24 69c0,-13 -12,-25 -35,-27 -84,0 -152,68 -152,152 0,83 68,151 152,151 83,0 151,-68 151,-151 0,-84 -68,-152 -151,-152m274 134c1,-19 -22,-35 -30,-35 -29,0 -53,23 -53,53 0,29 24,53 53,53 29,0 53,-24 53,-53 0,-30 -24,-53 -53,-53m-209 256c0,-13 -12,-25 -35,-27 -84,0 -152,68 -152,152 0,83 68,151 152,151 83,0 151,-68 151,-151 0,-84 -68,-152 -151,-152m35 355c0,-13 -12,-25 -35,-27 -84,0 -152,68 -152,152 0,83 68,151 152,151 83,0 151,-68 151,-151 0,-84 -68,-152 -151,-152m35 355c0,-13 -12,-25 -35,-27 -84,0 -152,68 -152,151 0,84 68,152 152,152 83,0 151,-68 151,-152 0,-83 -68,-151 -151,-151m1886 626l115 0c108,0 197,89 197,197l0 970c0,108 -89,197 -197,197l-115 0c-109,0 -197,-89 -197,-197l0 -970c0,-108 88,-197 197,-197zm24 69c-1,-13 -12,-25 -36,-27 -84,0 -151,68 -151,152 0,83 67,151 151,151 84,0 152,-68 152,-151 0,-84 -68,-152 -152,-152m275 134c1,-19 -22,-35 -30,-35 -30,0 -53,23 -53,53 0,29 23,53 53,53 29,0 53,-24 53,-53 0,-30 -24,-53 -53,-53m-209 256c-1,-13 -12,-25 -36,-27 -84,0 -151,68 -151,152 0,83 67,151 151,151 84,0 152,-68 152,-151 0,-84 -68,-152 -152,-152m36 355c-1,-13 -12,-25 -36,-27 -84,0 -151,68 -151,152 0,83 67,151 151,151 84,0 152,-68 152,-151 0,-84 -68,-152 -152,-152m36 355c-1,-13 -12,-25 -36,-27 -84,0 -151,68 -151,151 0,84 67,152 151,152 84,0 152,-68 152,-152 0,-83 -68,-151 -152,-151m-613 -1026l115 0c108,0 197,89 197,197l0 970c0,108 -89,197 -197,197l-115 0c-109,0 -197,-89 -197,-197l0 -970c0,-108 88,-197 197,-197zm24 69c-1,-13 -12,-25 -36,-27 -83,0 -151,68 -151,152 0,83 68,151 151,151 84,0 152,-68 152,-151 0,-84 -68,-152 -152,-152m275 134c1,-19 -22,-35 -30,-35 -29,0 -53,23 -53,53 0,29 24,53 53,53 29,0 53,-24 53,-53 0,-30 -24,-53 -53,-53m-209 256c-1,-13 -12,-25 -36,-27 -83,0 -151,68 -151,152 0,83 68,151 151,151 84,0 152,-68 152,-151 0,-84 -68,-152 -152,-152m36 355c-1,-13 -12,-25 -36,-27 -83,0 -151,68 -151,152 0,83 68,151 151,151 84,0 152,-68 152,-151 0,-84 -68,-152 -152,-152m36 355c-1,-13 -12,-25 -36,-27 -83,0 -151,68 -151,151 0,84 68,152 151,152 84,0 152,-68 152,-152 0,-83 -68,-151 -152,-151m-613 -1026l115 0c109,0 197,89 197,197l0 970c0,108 -88,197 -197,197l-115 0c-108,0 -197,-89 -197,-197l0 -970c0,-108 89,-197 197,-197zm24 69c-1,-13 -12,-25 -35,-27 -84,0 -152,68 -152,152 0,83 68,151 152,151 83,0 151,-68 151,-151 0,-84 -68,-152 -151,-152m274 134c1,-19 -22,-35 -30,-35 -29,0 -53,23 -53,53 0,29 24,53 53,53 29,0 53,-24 53,-53 0,-30 -24,-53 -53,-53m-209 256c-1,-13 -12,-25 -35,-27 -84,0 -152,68 -152,152 0,83 68,151 152,151 83,0 151,-68 151,-151 0,-84 -68,-152 -151,-152m35 355c-1,-13 -12,-25 -35,-27 -84,0 -152,68 -152,152 0,83 68,151 152,151 83,0 151,-68 151,-151 0,-84 -68,-152 -151,-152m35 355c-1,-13 -12,-25 -35,-27 -84,0 -152,68 -152,151 0,84 68,152 152,152 83,0 151,-68 151,-152 0,-83 -68,-151 -151,-151m-614 -1026l115 0c109,0 197,89 197,197l0 970c0,108 -88,197 -197,197l-115 0c-108,0 -197,-89 -197,-197l0 -970c0,-108 89,-197 197,-197zm24 69c0,-13 -12,-25 -35,-27 -84,0 -152,68 -152,152 0,83 68,151 152,151 83,0 151,-68 151,-151 0,-84 -68,-152 -151,-152m274 134c1,-19 -22,-35 -30,-35 -29,0 -53,23 -53,53 0,29 24,53 53,53 29,0 53,-24 53,-53 0,-30 -24,-53 -53,-53m-209 256c0,-13 -12,-25 -35,-27 -84,0 -152,68 -152,152 0,83 68,151 152,151 83,0 151,-68 151,-151 0,-84 -68,-152 -151,-152m35 355c0,-13 -12,-25 -35,-27 -84,0 -152,68 -152,152 0,83 68,151 152,151 83,0 151,-68 151,-151 0,-84 -68,-152 -151,-152m35 355c0,-13 -12,-25 -35,-27 -84,0 -152,68 -152,151 0,84 68,152 152,152 83,0 151,-68 151,-152 0,-83 -68,-151 -151,-151"/>
 </g>
</svg>
