<?xml version="1.0" encoding="UTF-8"?>
<!DOCTYPE svg PUBLIC "-//W3C//DTD SVG 1.1//EN" "http://www.w3.org/Graphics/SVG/1.1/DTD/svg11.dtd">
<!-- Creator: CorelDRAW X8 -->
<svg xmlns="http://www.w3.org/2000/svg" xml:space="preserve" width="40mm" height="60mm" version="1.1" style="shape-rendering:geometricPrecision; text-rendering:geometricPrecision; image-rendering:optimizeQuality; fill-rule:evenodd; clip-rule:evenodd"
viewBox="0 0 4000 6000"
 xmlns:xlink="http://www.w3.org/1999/xlink">
 <defs>
  <style type="text/css">
   <![CDATA[
    .str0 {stroke:#332C2B;stroke-width:7.62}
    .fil0 {fill:none}
   ]]>
  </style>
 </defs>
 <g id="图层_x0020_1">
  <metadata id="CorelCorpID_0Corel-Layer"/>
  <path class="fil0 str0" d="M908 5158l1958 0c125,0 226,-102 226,-226l0 -4056c0,-124 -101,-226 -226,-226l-1595 0c-125,0 -227,102 -227,226l0 4056c0,124 102,226 227,226 124,0 332,104 332,192m455 -4491c-20,-11 -15,-93 25,-93 39,0 71,32 71,71 0,39 -32,71 -71,71 -40,0 -71,-32 -71,-71 0,-39 31,-71 71,-71"/>
 </g>
</svg>
