<?xml version="1.0" encoding="UTF-8"?>
<!DOCTYPE svg PUBLIC "-//W3C//DTD SVG 1.1//EN" "http://www.w3.org/Graphics/SVG/1.1/DTD/svg11.dtd">
<!-- Creator: CorelDRAW -->
<svg xmlns="http://www.w3.org/2000/svg" xml:space="preserve" width="40mm" height="60mm" style="shape-rendering:geometricPrecision; text-rendering:geometricPrecision; image-rendering:optimizeQuality; fill-rule:evenodd; clip-rule:evenodd"
viewBox="0 0 40 60"
 xmlns:xlink="http://www.w3.org/1999/xlink">
 <defs>
  <style type="text/css">
   <![CDATA[
    .str0 {stroke:#1F1A17;stroke-width:0.194}
    .str1 {stroke:#1F1A17;stroke-width:0.2}
    .fil1 {fill:none}
    .fil0 {fill:none;fill-rule:nonzero}
   ]]>
  </style>
 </defs>
 <g id="图层_x0020_1">
  <metadata id="CorelCorpID_0Corel-Layer"/>
  <g id="_219146232">
   <path id="_219143880" class="fil0 str0" d="M19.7295 15.0599c-0.8283,0 -1.0374,-0.0674 -1.3394,-0.4357 -0.2393,-0.2904 -0.2939,-0.5285 -0.2939,-1.2766 0,-0.7841 0.0743,-1.0571 0.3671,-1.351 0.295,-0.2963 0.5564,-0.366 1.3672,-0.366 0.8144,0 1.0757,0.0709 1.3754,0.3729 0.294,0.2962 0.3567,0.5332 0.3567,1.3429 0,0.8306 -0.0604,1.0595 -0.3613,1.3592 -0.2788,0.2776 -0.5297,0.3578 -1.1071,0.3566"/>
   <line id="_219143904" class="fil0 str0" x1="20.0942" y1="15.0622" x2="19.5982" y2= "15.0599" />
   <path id="_219144192" class="fil0 str0" d="M12.749 10.491c-0.0488,0.0012 -0.0953,0.0012 -0.1382,0.0012 -0.9456,0 -1.3197,-0.3172 -1.3197,-1.1187 0,-0.0418 0.0012,-0.086 0.0023,-0.1324"/>
   <line id="_219144024" class="fil0 str0" x1="11.2934" y1="9.2411" x2="11.2916" y2= "8.5998" />
   <path id="_219144144" class="fil0 str0" d="M11.2916 8.5998c0,-0.03 0.006,-0.065 0.0025,-0.1847 0,-0.3879 0.4082,-0.7778 0.7765,-0.8526 0.1034,-0.021 0.388,-0.0349 0.7051,-0.0349 0.7493,0 0.9642,0.0616 1.2186,0.3473 0.2149,0.2417 0.2823,0.5623 0.2823,1.3499 0,0.8841 -0.3985,1.2674 -1.3139,1.2674"/>
   <line id="_219144696" class="fil0 str0" x1="12.9627" y1="10.4922" x2="12.5097" y2= "10.491" />
   <path id="_219144168" class="fil0 str0" d="M15.853 9.6267c-0.007,0 -0.0128,0 -0.0186,0 -0.4368,0 -0.5832,-0.1556 -0.5832,-0.6226 0,-0.4461 0.165,-0.6099 0.6123,-0.6099 0.417,0 0.5761,0.1789 0.5761,0.647 0,0.4206 -0.1684,0.589 -0.5901,0.5867"/>
   <line id="_219144720" class="fil0 str0" x1="15.8495" y1="9.6279" x2="15.6137" y2= "9.6267" />
   <polyline id="_219144048" class="fil0 str0" points="31.3706,11.0673 33.7879,11.0673 33.775,49.0424 "/>
   <line id="_219144312" class="fil0 str0" x1="31.4774" y1="10.9522" x2="31.4774" y2= "9.9125" />
   <path id="_219144432" class="fil0 str0" d="M31.4774 9.9125c0,-1.0118 0,-1.0118 -0.0464,-1.2105"/>
   <line id="_47493248" class="fil0 str0" x1="31.431" y1="8.702" x2="31.4217" y2= "8.6602" />
   <path id="_47493176" class="fil0 str0" d="M31.4217 8.6602c-0.2649,-1.1233 -1.2697,-1.9992 -2.3431,-2.0433"/>
   <line id="_47491016" class="fil0 str0" x1="29.0786" y1="6.6169" x2="14.481" y2= "6.51" />
   <path id="_47491232" class="fil0 str0" d="M14.481 6.51c-3.011,-0.0221 -3.0075,-0.0221 -3.9659,0.1568 -1.2116,0.2265 -2.0631,1.2906 -2.0736,2.5894"/>
   <line id="_47492264" class="fil0 str0" x1="8.4415" y1="9.2562" x2="8.4264" y2= "11.1741" />
   <line id="_47492552" class="fil0 str0" x1="8.3195" y1="11.0672" x2="6.1531" y2= "11.0589" />
   <polyline id="_256272008" class="fil0 str0" points="8.5372,48.9366 6.1522,48.9366 6.1529,10.9506 "/>
   <line id="_256273592" class="fil0 str0" x1="8.4264" y1="49.0434" x2="8.4264" y2= "50.0657" />
   <path id="_256274048" class="fil0 str0" d="M8.4264 50.0657c0,1.042 0,1.042 0.0465,1.243"/>
   <line id="_256274144" class="fil0 str0" x1="8.4729" y1="51.3087" x2="8.4833" y2= "51.3517" />
   <path id="_255819696" class="fil0 str0" d="M8.4833 51.3517c0.194,0.8352 0.7284,1.4753 1.5369,1.8389 0.3822,0.1719 0.524,0.1975 1.1431,0.2021 7.8913,0.0709 5.9187,0.057 13.8099,0.1011 3.3178,0.0186 3.7557,0.0035 4.4818,-0.158 1.186,-0.2625 1.9992,-1.3103 2.0085,-2.5882"/>
   <line id="_255819912" class="fil0 str0" x1="31.4635" y1="50.7476" x2="31.4775" y2= "48.8237" />
   <path id="_255819600" class="fil0 str0" d="M31.5626 48.9366c0.1638,0 2.1551,0 2.2852,0"/>
   <rect id="_256637848" class="fil1 str1" x="11.2424" y="49.8253" width="4.6349" height="1.30103" rx="0.0876" ry="0.0876"/>
   <rect id="_47491424" class="fil1 str1" x="6.92063" y="23.817" width="0.891279" height="3.42872" rx="0.1085" ry="0.1085"/>
   <rect id="_256066824" class="fil1 str1" x="6.89208" y="15.1025" width="0.998895" height="6.97166" rx="0.1827" ry="0.1827"/>
   <rect id="_218722840" class="fil1 str1" x="31.9058" y="23.3741" width="0.97941" height="5.86257" rx="0.1212" ry="0.1212"/>
   <rect id="_218722528" class="fil1 str1" x="31.963" y="30.6936" width="0.852644" height="5.83816" rx="0.119" ry="0.119"/>
   <circle id="_256271816" class="fil1 str1" cx="19.7791" cy="9.00048" r="0.260698"/>
  </g>
 </g>
</svg>
