<?xml version="1.0" encoding="UTF-8"?>
<!DOCTYPE svg PUBLIC "-//W3C//DTD SVG 1.1//EN" "http://www.w3.org/Graphics/SVG/1.1/DTD/svg11.dtd">
<!-- Creator: CorelDRAW X8 -->
<svg xmlns="http://www.w3.org/2000/svg" xml:space="preserve" width="25.5859mm" height="47.0942mm" version="1.1" style="shape-rendering:geometricPrecision; text-rendering:geometricPrecision; image-rendering:optimizeQuality; fill-rule:evenodd; clip-rule:evenodd"
viewBox="0 0 2559 4709"
 xmlns:xlink="http://www.w3.org/1999/xlink">
 <defs>
  <style type="text/css">
   <![CDATA[
    .fil0 {fill:#222222;fill-rule:nonzero}
   ]]>
  </style>
 </defs>
 <g id="图层_x0020_1">
  <metadata id="CorelCorpID_0Corel-Layer"/>
  <g>
   <path class="fil0" d="M914 80l-10 0 0 0 0 -2 0 -2 0 -1 1 -2 0 -2 1 -1 0 -2 1 -1 0 -2 1 -1 1 -2 1 -1 1 -1 1 -2 1 -1 1 -1 1 -1 1 -1 1 -1 2 -1 1 -1 2 -1 1 0 1 -1 2 -1 2 0 1 -1 2 0 1 0 2 -1 2 0 1 0 0 10 -1 0 -1 0 -1 0 -1 0 -2 0 -1 1 -1 0 -1 1 -1 0 -1 1 -1 0 -1 1 -1 0 -1 1 -1 1 0 1 -1 1 -1 0 -1 1 0 1 -1 1 -1 1 0 1 -1 1 0 1 0 1 -1 2 0 1 0 1 0 1 0 1 0 2 0 0zm23 24l0 9 0 0 -1 0 -2 0 -2 0 -1 -1 -2 0 -1 -1 -2 0 -2 -1 -1 0 -1 -1 -2 -1 -1 -1 -2 -1 -1 -1 -1 -1 -1 -1 -1 -1 -1 -1 -1 -1 -1 -2 -1 -1 -1 -2 -1 -1 0 -1 -1 -2 0 -1 -1 -2 0 -2 -1 -1 0 -2 0 -2 0 -1 10 0 0 1 0 1 0 1 0 1 0 2 1 1 0 1 0 1 1 1 0 1 1 1 1 1 0 1 1 1 1 1 1 1 0 0 1 1 1 1 1 0 1 1 1 1 1 0 1 1 1 0 1 0 1 1 2 0 1 0 1 0 1 0 1 1 0 0zm24 -24l10 0 0 0 0 1 0 2 -1 2 0 1 0 2 -1 2 0 1 -1 2 -1 1 0 1 -1 2 -1 1 -1 2 -1 1 -1 1 -1 1 -1 1 -1 1 -2 1 -1 1 -1 1 -2 1 -1 1 -2 0 -1 1 -2 0 -1 1 -2 0 -2 1 -1 0 -2 0 -2 0 0 -9 2 -1 1 0 1 0 1 0 1 0 2 -1 1 0 1 0 1 -1 1 0 1 -1 1 -1 1 0 1 -1 1 -1 0 0 1 -1 1 -1 1 -1 0 -1 1 -1 0 -1 1 -1 0 -1 1 -1 0 -1 1 -1 0 -2 0 -1 0 -1 0 -1 0 -1 0 0zm-24 -24l0 -10 0 0 2 0 2 0 1 1 2 0 2 0 1 1 2 0 1 1 2 1 1 0 2 1 1 1 1 1 2 1 1 1 1 1 1 1 1 1 1 2 1 1 1 1 1 2 0 1 1 2 1 1 0 2 1 1 0 2 0 2 1 1 0 2 0 2 -10 0 0 -2 0 -1 0 -1 0 -1 0 -1 -1 -2 0 -1 -1 -1 0 -1 -1 -1 0 -1 -1 -1 0 -1 -1 -1 -1 0 -1 -1 -1 -1 0 -1 -1 -1 -1 0 -1 -1 -1 0 -1 -1 -1 0 -1 -1 -1 0 -2 -1 -1 0 -1 0 -1 0 -1 0 -2 0 0 0zm1445 42l5 8 0 0 -4 2 -5 3 -5 3 -5 2 -6 3 -6 4 -7 3 -6 3 -7 4 -7 3 -7 4 -7 4 -7 3 -8 4 -7 3 -7 4 -7 3 -7 4 -7 3 -7 3 -7 3 -6 3 -6 2 -6 3 -6 2 -5 2 -5 2 -4 1 -5 1 -3 1 -4 0 -3 0 1 -9 2 0 2 0 3 -1 4 -1 4 -1 5 -2 5 -2 5 -2 6 -2 6 -3 6 -3 7 -3 7 -3 7 -3 7 -3 7 -4 7 -3 7 -4 8 -3 7 -4 7 -3 7 -4 7 -4 7 -3 6 -3 6 -4 6 -3 6 -3 6 -3 5 -2 4 -3 4 -2 0 0zm34 -9l0 10 0 0 -1 0 -1 0 0 0 -1 0 -1 0 -1 0 -1 0 -1 0 -1 0 -1 1 -1 0 -1 0 -1 0 -1 0 -1 0 -1 1 -1 0 -1 0 -1 0 -1 1 0 0 -1 0 -1 1 -1 0 -1 0 -1 1 -1 0 -1 0 -1 1 0 0 -1 1 -1 0 -5 -8 1 -1 1 0 1 -1 1 0 1 -1 1 0 1 0 1 -1 2 0 1 -1 1 0 1 0 1 -1 1 0 1 0 1 0 1 -1 1 0 1 0 1 0 1 -1 1 0 1 0 2 0 1 0 1 0 1 0 1 0 1 -1 1 0 1 0 1 0 0 0zm127 10l-127 0 0 -10 127 0 0 0 0 10zm6 -16l10 0 0 0 0 1 0 1 -1 0 0 1 0 1 0 1 0 1 -1 0 0 1 0 1 -1 0 0 1 -1 0 0 1 0 1 -1 0 -1 1 0 0 -1 1 0 0 -1 1 -1 0 0 0 -1 1 -1 0 0 0 -1 0 -1 0 -1 1 0 0 -1 0 -1 0 0 -10 0 0 1 0 0 0 0 0 0 0 1 0 0 0 0 0 1 0 0 0 0 -1 0 0 1 0 0 0 0 0 0 0 1 -1 0 0 0 0 0 0 0 -1 0 0 1 0 0 0 0 -1 0 0 0 0 0 -1 0 0 0 0 0 -1 0 0 0 0zm10 -67l0 67 -10 0 0 -67 0 0 10 0zm-16 -7l0 -9 0 0 1 0 1 0 0 0 1 0 1 1 1 0 0 0 1 0 1 1 0 0 1 0 1 1 0 0 1 1 0 0 1 1 1 0 0 1 0 0 1 1 0 1 1 0 0 1 0 1 1 0 0 1 0 1 0 1 0 0 1 1 0 1 0 1 -10 0 0 -1 0 0 0 0 0 -1 0 0 0 0 0 0 0 -1 0 0 -1 0 0 -1 0 0 0 0 0 0 0 -1 -1 0 0 0 0 0 0 0 -1 -1 0 0 0 0 0 0 -1 0 0 0 0 0 -1 0 0 0 0 0 0 -1 -1 0 0 0 0 0zm-248 -9l248 0 0 9 -248 0 -5 -5 5 -4zm-5 4l1 -4 4 0 -5 4zm-9 52l9 -52 9 2 -9 51 -9 0 0 -1zm9 1l-5 31 -4 -31 9 0zm-6 -53l6 52 -9 1 -6 -52 4 -5 5 4zm-5 -4l4 0 1 4 -5 -4zm-76 0l76 0 0 9 -76 0 -5 -5 5 -4zm-5 4l0 -4 5 0 -5 4zm-6 52l6 -52 9 1 -6 52 -9 0 0 -1zm9 1l-3 27 -6 -27 9 0zm-12 -53l12 51 -9 2 -12 -51 5 -6 4 4zm-4 -4l3 0 1 4 -4 -4zm-127 0l127 0 0 9 -127 0 0 0 0 -9zm-21 30l-9 0 0 0 0 -2 0 -1 0 -2 0 -1 1 -2 0 -1 1 -1 0 -2 1 -1 0 -1 1 -2 1 -1 1 -1 1 -1 0 -1 1 -1 1 -1 2 -1 1 -1 1 -1 1 -1 1 0 2 -1 1 -1 1 0 2 -1 1 0 2 0 1 -1 1 0 2 0 2 0 0 9 -2 0 -1 1 -1 0 -1 0 -1 0 -1 0 0 1 -1 0 -1 0 -1 1 -1 0 -1 1 -1 0 0 1 -1 1 -1 0 -1 1 0 1 -1 1 0 0 -1 1 0 1 -1 1 0 1 -1 1 0 1 0 1 0 1 -1 1 0 1 0 1 0 1 0 0zm-9 56l0 -56 9 0 0 56 0 0 -9 0zm-35 44l0 -9 0 0 2 0 1 0 2 -1 2 0 2 0 1 -1 2 0 1 -1 2 -1 1 0 2 -1 1 -1 2 -1 1 -1 1 -1 2 -1 1 -2 1 -1 1 -1 1 -2 1 -1 1 -2 0 -1 1 -2 1 -1 0 -2 1 -1 0 -2 0 -2 1 -2 0 -1 0 -2 9 0 0 2 0 2 0 3 -1 2 0 2 -1 2 -1 2 0 2 -1 2 -1 2 -1 2 -1 2 -2 1 -1 2 -1 2 -2 1 -1 2 -2 1 -2 1 -1 2 -2 1 -2 1 -2 1 -2 1 -2 0 -2 1 -2 1 -2 0 -2 1 -3 0 -2 0 -2 0 0 0zm-388 -9l388 0 0 9 -388 0 0 0 0 -9zm-45 -35l10 0 0 0 0 2 0 1 0 2 1 2 0 2 0 1 1 2 1 1 0 2 1 1 1 2 1 1 1 2 1 1 1 1 1 2 1 1 2 1 1 1 1 1 2 1 1 1 2 0 1 1 2 1 1 0 2 1 2 0 1 0 2 1 2 0 2 0 0 9 -3 0 -2 0 -2 0 -2 -1 -2 0 -2 -1 -3 -1 -2 0 -2 -1 -1 -1 -2 -1 -2 -1 -2 -2 -1 -1 -2 -1 -2 -2 -1 -1 -1 -2 -2 -2 -1 -1 -1 -2 -1 -2 -1 -2 -1 -2 -1 -2 -1 -2 0 -2 -1 -2 0 -2 0 -3 -1 -2 0 -2 0 0zm10 -56l0 56 -10 0 0 -56 0 0 10 0zm-30 -21l0 -9 0 0 2 0 1 0 2 0 1 1 1 0 2 0 1 1 2 0 1 1 1 1 1 0 2 1 1 1 1 1 1 1 1 1 1 1 1 1 1 1 1 1 0 1 1 2 1 1 0 1 1 2 0 1 1 1 0 2 0 1 1 2 0 1 0 2 -10 0 0 -1 0 -1 0 -1 0 -1 0 -1 -1 -1 0 -1 0 -1 -1 -1 0 -1 -1 -1 0 -1 -1 0 0 -1 -1 -1 -1 -1 0 0 -1 -1 -1 -1 -1 0 0 -1 -1 0 -1 -1 -1 0 -1 0 -1 -1 -1 0 -1 0 -1 0 -1 0 -1 -1 -1 0 0 0zm-1165 -9l1165 0 0 9 -1165 0 -5 -5 5 -4zm-5 4l0 -4 5 0 -5 4zm-8 53l8 -53 9 1 -7 54 -10 0 0 -2zm10 2l-4 26 -6 -26 10 0zm-12 -55l12 53 -10 2 -11 -53 4 -6 5 4zm-5 -4l4 0 1 4 -5 -4zm-65 0l65 0 0 9 -65 0 -4 -5 4 -4zm-4 4l0 -4 4 0 -4 4zm-10 47l10 -47 9 2 -10 47 -9 0 0 -2zm9 2l-4 20 -5 -20 9 0zm-11 -49l11 47 -9 2 -11 -47 4 -6 5 4zm-5 -4l4 0 1 4 -5 -4zm-264 0l264 0 0 9 -264 0 -5 -4 5 -5zm-5 5l0 -5 5 0 -5 5zm0 89l0 -89 9 0 0 89 -4 5 -5 -5zm5 5l-5 0 0 -5 5 5zm138 0l-138 0 0 -10 138 0 0 0 0 10zm40 1l-4 8 0 0 -1 -1 -1 0 -1 -1 -1 0 -1 -1 -1 0 -2 -1 -1 0 -1 -1 -1 0 -1 0 -1 -1 -1 0 -1 0 -1 -1 -1 0 -2 0 -1 0 -1 -1 -1 0 -1 0 -1 0 -1 0 -1 -1 -2 0 -1 0 -1 0 -1 0 -1 0 -1 0 -2 0 -1 0 0 -10 2 0 1 0 1 0 1 1 2 0 1 0 1 0 2 0 1 0 1 0 2 1 1 0 1 0 1 0 2 1 1 0 1 0 1 1 2 0 1 0 1 1 1 0 2 1 1 0 1 1 1 0 1 1 2 0 1 1 1 0 1 1 1 1 0 0zm169 75l-3 9 0 0 -3 -1 -3 -1 -3 -2 -4 -1 -3 -1 -4 -2 -4 -2 -5 -1 -4 -2 -5 -2 -5 -2 -5 -2 -6 -3 -5 -2 -6 -2 -6 -3 -5 -2 -6 -3 -6 -2 -6 -3 -7 -3 -6 -3 -6 -3 -7 -3 -6 -3 -6 -3 -7 -3 -6 -3 -6 -3 -7 -4 -6 -3 -6 -3 4 -8 6 3 7 3 6 3 6 4 7 3 6 3 6 3 6 3 7 3 6 3 6 2 6 3 6 3 6 3 6 2 6 3 6 2 5 2 6 3 5 2 5 2 5 2 5 2 5 2 4 2 4 1 4 2 4 1 3 2 4 1 2 1 3 1 0 0zm19 3l0 10 0 0 -1 0 -1 0 -1 0 0 0 -1 0 -1 -1 0 0 -1 0 -1 0 0 0 -1 0 -1 0 0 0 -1 0 -1 0 0 0 -1 -1 -1 0 -1 0 0 0 -1 0 -1 0 0 0 -1 -1 -1 0 0 0 -1 0 -1 0 0 -1 -1 0 -1 0 0 0 3 -9 1 0 0 0 1 0 0 1 1 0 0 0 1 0 1 0 0 0 1 1 0 0 1 0 0 0 1 0 1 0 0 0 1 0 0 1 1 0 1 0 0 0 1 0 0 0 1 0 0 0 1 0 1 0 0 0 1 0 0 0 1 0 1 0 0 0zm47 10l-47 0 0 -10 47 0 0 0 0 10zm13 3l-10 0 0 0 0 0 0 0 0 0 0 -1 0 0 0 0 0 0 0 0 0 0 0 -1 0 0 0 0 0 0 0 0 0 0 -1 0 0 -1 0 0 0 0 0 0 0 0 0 0 0 0 -1 0 0 0 0 0 0 0 0 0 0 0 -1 0 0 0 0 0 0 -10 1 0 0 0 1 0 1 0 0 1 1 0 0 0 1 0 1 0 0 1 1 0 0 0 1 1 0 0 1 1 0 0 1 0 0 1 0 0 1 1 0 0 0 1 1 0 0 1 0 1 0 0 0 1 1 0 0 1 0 1 0 0 0 1 0 0zm-13 13l0 -10 0 0 0 0 0 0 1 0 0 0 0 0 0 0 0 0 0 0 1 0 0 0 0 0 0 0 0 0 0 0 0 0 0 -1 1 0 0 0 0 0 0 0 0 0 0 0 0 0 0 -1 0 0 0 0 0 0 0 0 0 0 0 -1 0 0 0 0 10 0 0 1 0 0 0 1 0 1 -1 0 0 1 0 0 0 1 0 1 -1 0 0 1 0 0 -1 1 0 0 0 1 -1 0 0 1 -1 0 0 0 -1 1 0 0 -1 0 0 1 -1 0 -1 0 0 0 -1 0 0 1 -1 0 -1 0 0 0 -1 0 0 0zm-23 -10l23 0 0 10 -23 0 0 0 0 -10zm-179 189l-9 0 0 0 0 -10 1 -10 1 -9 2 -9 2 -9 2 -9 3 -9 4 -9 4 -8 4 -8 4 -8 5 -8 5 -7 6 -7 6 -7 6 -6 7 -7 6 -6 8 -5 7 -5 8 -5 7 -5 9 -4 8 -4 8 -3 9 -3 9 -3 9 -2 10 -1 9 -2 10 0 9 -1 0 10 -9 0 -9 1 -9 1 -9 2 -8 2 -9 2 -8 3 -8 3 -8 4 -8 3 -8 5 -7 4 -7 5 -7 6 -6 5 -6 6 -6 6 -6 7 -5 7 -5 7 -5 7 -4 7 -4 8 -4 8 -3 8 -3 8 -2 9 -2 9 -2 8 -1 9 0 9 -1 10 0 0zm-9 124l0 -124 9 0 0 124 -4 4 -5 -4zm9 0l0 4 -4 0 4 -4zm-102 -5l98 0 0 9 -98 0 -4 -4 4 -5zm-4 5l0 -5 4 0 -4 5zm0 445l0 -445 9 0 0 445 0 0 -9 0zm36 27l0 9 0 0 -2 0 -2 0 -2 0 -2 -1 -1 0 -2 -1 -2 0 -1 -1 -2 -1 -1 0 -2 -1 -1 -1 -2 -1 -1 -1 -1 -1 -2 -2 -1 -1 -1 -1 -1 -1 -1 -2 -1 -1 -1 -2 -1 -1 0 -2 -1 -2 -1 -1 0 -2 0 -2 -1 -1 0 -2 0 -2 0 -2 9 0 0 1 0 2 0 1 1 1 0 2 0 1 1 1 0 1 1 2 0 1 1 1 1 1 0 1 1 1 1 1 1 1 1 1 1 1 1 0 1 1 1 1 1 0 1 1 1 0 2 1 1 0 1 1 1 0 2 0 1 0 1 1 2 0 0 0zm47 9l-47 0 0 -9 47 0 0 0 0 9zm43 33l-10 0 0 0 0 -2 0 -1 0 -2 0 -2 -1 -1 0 -2 -1 -1 0 -2 -1 -1 -1 -2 -1 -1 0 -1 -1 -2 -1 -1 -1 -1 -1 -1 -2 -1 -1 -1 -1 -1 -1 -1 -2 -1 -1 -1 -1 -1 -2 0 -1 -1 -2 -1 -1 0 -2 0 -2 -1 -1 0 -2 0 -2 0 0 -9 2 0 3 0 2 0 2 0 2 1 2 0 2 1 2 1 2 1 1 1 2 1 2 1 2 1 1 1 2 2 1 1 2 1 1 2 1 2 1 1 1 2 2 2 0 2 1 1 1 2 1 2 0 2 1 2 0 2 0 3 1 2 0 2 0 0zm-10 473l0 -473 10 0 0 473 0 0 -10 0zm-33 42l0 -9 0 0 2 0 2 0 1 -1 2 0 2 0 1 -1 2 0 1 -1 2 -1 1 0 1 -1 2 -1 1 -1 1 -1 1 -1 2 -1 1 -1 1 -1 1 -2 1 -1 0 -1 1 -2 1 -1 1 -1 0 -2 1 -1 0 -2 1 -2 0 -1 0 -2 0 -2 0 -1 10 0 0 2 -1 2 0 2 0 2 -1 2 0 2 -1 2 -1 2 -1 2 0 2 -2 2 -1 1 -1 2 -1 2 -1 1 -2 2 -1 1 -2 1 -1 2 -2 1 -2 1 -2 1 -1 1 -2 1 -2 1 -2 0 -2 1 -2 0 -2 1 -2 0 -3 0 -2 0 0 0zm-47 -9l47 0 0 9 -47 0 0 0 0 -9zm-27 36l-9 0 0 0 0 -2 0 -2 0 -2 1 -2 0 -1 0 -2 1 -2 1 -1 0 -2 1 -2 1 -1 1 -2 1 -1 1 -1 1 -2 1 -1 2 -1 1 -1 1 -1 2 -1 1 -1 2 -1 1 -1 2 0 1 -1 2 -1 2 0 1 -1 2 0 2 0 2 0 2 0 0 9 -2 0 -1 0 -1 0 -2 1 -1 0 -1 0 -1 1 -2 0 -1 1 -1 0 -1 1 -1 1 -1 0 -1 1 -1 1 -1 1 -1 1 -1 1 -1 1 0 1 -1 1 -1 1 0 1 -1 1 0 1 -1 2 0 1 0 1 -1 2 0 1 0 1 0 2 0 0zm-9 139l0 -139 9 0 0 139 0 0 -9 0zm36 26l0 10 0 0 -2 0 -2 -1 -2 0 -2 0 -1 -1 -2 0 -2 -1 -1 0 -2 -1 -1 -1 -2 -1 -1 -1 -2 -1 -1 -1 -1 -1 -2 -1 -1 -1 -1 -1 -1 -2 -1 -1 -1 -2 -1 -1 -1 -2 0 -1 -1 -2 -1 -2 0 -1 0 -2 -1 -2 0 -2 0 -1 0 -2 9 0 0 1 0 1 0 2 1 1 0 1 0 2 1 1 0 1 1 1 0 1 1 1 1 2 0 1 1 1 1 1 1 0 1 1 1 1 1 1 1 1 1 0 1 1 1 1 1 0 2 1 1 0 1 0 1 1 2 0 1 0 1 0 2 0 0 0zm62 10l-62 0 0 -10 62 0 0 0 0 10zm28 18l-10 0 0 0 0 -1 0 -1 0 -1 0 -1 0 -1 -1 -1 0 0 0 -1 -1 -1 0 -1 0 -1 -1 0 0 -1 -1 -1 -1 0 0 -1 -1 -1 0 0 -1 -1 -1 0 -1 -1 0 0 -1 -1 -1 0 -1 0 -1 -1 0 0 -1 0 -1 0 -1 0 -1 0 -1 0 0 -10 1 0 2 0 1 1 2 0 1 0 1 0 1 1 2 0 1 1 1 1 1 0 1 1 2 1 1 1 1 0 1 1 0 1 1 1 1 1 1 1 1 2 0 1 1 1 0 1 1 1 0 2 1 1 0 1 0 2 0 1 1 1 0 2 0 0zm-10 250l0 -250 10 0 0 250 0 0 -10 0zm-18 28l0 -10 0 0 1 0 1 0 1 0 1 0 1 0 0 -1 1 0 1 0 1 -1 1 0 0 0 1 -1 1 0 1 -1 0 -1 1 0 0 -1 1 0 1 -1 0 -1 1 -1 0 0 0 -1 1 -1 0 -1 0 -1 1 0 0 -1 0 -1 0 -1 0 -1 0 -1 10 0 0 1 -1 2 0 1 0 2 0 1 -1 1 0 1 -1 2 0 1 -1 1 0 1 -1 1 -1 2 -1 1 -1 1 0 1 -1 0 -1 1 -1 1 -2 1 -1 1 -1 0 -1 1 -1 0 -2 1 -1 0 -1 1 -1 0 -2 0 -1 0 -2 1 -1 0 0 0zm-62 -10l62 0 0 10 -62 0 0 0 0 -10zm-27 36l-9 0 0 0 0 -2 0 -2 0 -1 1 -2 0 -2 0 -2 1 -1 1 -2 0 -1 1 -2 1 -2 1 -1 1 -1 1 -2 1 -1 1 -1 2 -1 1 -2 1 -1 2 -1 1 -1 2 0 1 -1 2 -1 1 -1 2 0 2 -1 1 0 2 0 2 -1 2 0 2 0 0 10 -2 0 -1 0 -1 0 -2 0 -1 0 -1 1 -1 0 -2 1 -1 0 -1 1 -1 0 -1 1 -1 1 -1 1 -1 0 -1 1 -1 1 -1 1 -1 1 0 1 -1 1 -1 1 0 2 -1 1 0 1 -1 1 0 1 0 2 -1 1 0 1 0 2 0 1 0 0zm-9 2141l0 -2141 9 0 0 2141 -5 5 -4 -5zm4 5l-4 0 0 -5 4 5zm98 0l-98 0 0 -9 98 0 4 4 -4 5zm0 -9l4 0 0 4 -4 -4zm-5 117l0 -113 9 0 0 113 0 0 -9 0zm188 179l0 9 0 0 -9 0 -10 -1 -9 -1 -10 -1 -9 -3 -9 -2 -9 -3 -8 -3 -8 -4 -9 -4 -7 -5 -8 -5 -7 -5 -8 -6 -6 -5 -7 -7 -6 -6 -6 -7 -6 -7 -5 -8 -5 -7 -4 -8 -4 -8 -4 -9 -4 -8 -3 -9 -2 -9 -2 -9 -2 -9 -1 -10 -1 -9 0 -10 9 0 1 9 0 10 1 8 2 9 2 9 2 8 3 9 3 8 4 8 4 7 4 8 5 7 5 7 5 7 6 6 6 7 6 6 6 5 7 5 7 5 7 5 8 4 8 4 8 4 8 3 8 3 9 2 8 2 9 2 9 1 9 1 9 0 0 0zm32 9l-32 0 0 -9 32 0 4 5 -4 4zm0 -9l4 0 0 5 -4 -5zm-5 20l0 -15 9 0 0 15 -4 5 -5 -5zm9 0l0 5 -4 0 4 -5zm-58 -5l54 0 0 10 -54 0 0 0 0 -10zm-21 13l-3 -9 0 0 1 0 1 0 0 0 1 -1 1 0 1 0 0 0 1 0 1 -1 0 0 1 0 1 0 1 0 0 0 1 -1 1 0 1 0 0 0 1 0 1 0 1 0 0 0 1 0 1 0 1 -1 0 0 1 0 1 0 1 0 0 0 1 0 1 0 0 10 -1 0 -1 0 0 0 -1 0 0 0 -1 0 -1 0 0 0 -1 0 -1 0 0 0 -1 0 -1 0 0 0 -1 0 -1 1 0 0 -1 0 -1 0 0 0 -1 0 0 0 -1 0 -1 1 0 0 -1 0 -1 0 0 0 -1 1 0 0 -1 0 -1 0 0 0zm0 0l0 0 0 0 0 0zm-158 82l-6 -8 0 0 6 -4 6 -4 6 -5 6 -4 6 -3 6 -4 6 -4 6 -3 6 -4 6 -3 6 -3 6 -3 6 -3 5 -3 6 -3 5 -2 6 -3 5 -2 5 -3 5 -2 5 -2 5 -2 4 -2 5 -2 4 -1 4 -2 4 -1 3 -1 4 -2 3 -1 3 -1 2 -1 3 9 -2 1 -3 1 -3 1 -4 1 -3 2 -4 1 -4 2 -4 1 -4 2 -5 2 -4 2 -5 2 -5 2 -5 2 -5 3 -6 2 -5 3 -6 2 -5 3 -6 3 -6 3 -5 3 -6 3 -6 4 -6 3 -6 4 -6 4 -6 3 -6 4 -5 4 -6 4 -6 5 0 0zm0 0l0 0 -2 1 2 -1zm-43 14l0 -10 0 0 1 0 1 0 2 0 1 0 1 0 1 0 2 0 1 0 1 -1 1 0 2 0 1 0 1 -1 1 0 1 0 2 -1 1 0 1 -1 1 0 1 0 1 -1 2 0 1 -1 1 -1 1 0 1 -1 1 0 1 -1 1 -1 1 0 1 -1 1 -1 6 8 -1 1 -1 0 -2 1 -1 1 -1 1 -1 0 -2 1 -1 1 -1 0 -1 1 -2 1 -1 0 -1 1 -2 0 -1 1 -2 0 -1 1 -1 0 -2 0 -1 1 -1 0 -2 0 -1 1 -2 0 -1 0 -2 0 -1 1 -1 0 -2 0 -1 0 -2 0 -1 0 0 0zm-146 -10l146 0 0 10 -146 0 -5 -5 5 -5zm-5 5l0 -5 5 0 -5 5zm0 93l0 -93 9 0 0 93 -4 4 -5 -4zm5 4l-5 0 0 -4 5 4zm257 0l-257 0 0 -9 257 0 5 6 -5 3zm5 -3l-1 3 -4 0 5 -3zm13 -47l-13 47 -9 -3 13 -47 9 1 0 2zm-9 -3l6 -21 3 22 -9 -1zm7 49l-7 -47 9 -1 7 47 -5 5 -4 -4zm4 4l-4 0 0 -4 4 4zm32 0l-32 0 0 -9 32 0 4 6 -4 3zm4 -3l0 3 -4 0 4 -3zm10 -51l-10 51 -9 -2 9 -50 10 -1 0 2zm-10 -1l4 -21 6 20 -10 1zm13 52l-13 -50 10 -3 12 51 -4 5 -5 -3zm5 3l-4 0 -1 -3 5 3zm42 0l-42 0 0 -9 42 0 4 6 -4 3zm4 -3l-1 3 -3 0 4 -3zm12 -50l-12 50 -9 -2 11 -50 10 0 0 2zm-10 -2l6 -25 4 25 -10 0zm8 51l-8 -50 10 -1 7 50 -5 5 -4 -4zm4 4l-4 0 0 -4 4 4zm1768 0l-1768 0 0 -9 1768 0 5 5 -5 4zm5 -4l-1 4 -4 0 5 -4zm8 -48l-8 48 -9 -1 7 -48 10 -1 0 2zm-10 -1l4 -25 6 24 -10 1zm11 50l-11 -48 10 -3 10 49 -4 5 -5 -3zm5 3l-4 0 -1 -3 5 3zm45 0l-45 0 0 -9 45 0 5 6 -5 3zm5 -3l-1 3 -4 0 5 -3zm8 -49l-8 49 -10 -2 9 -48 9 0 0 1zm-9 -1l5 -26 4 26 -9 0zm9 50l-9 -49 9 -1 9 48 -5 5 -4 -3zm4 3l-4 0 0 -3 4 3zm41 0l-41 0 0 -9 41 0 5 5 -5 4zm5 -4l-1 4 -4 0 5 -4zm6 -48l-6 48 -10 -1 6 -48 10 0 0 1zm-10 -1l4 -28 6 28 -10 0zm10 50l-10 -49 10 -1 10 48 -5 5 -5 -3zm5 3l-4 0 -1 -3 5 3zm252 0l-252 0 0 -9 252 0 5 5 -5 4zm5 -4l0 4 -5 0 5 -4zm0 -93l0 93 -10 0 0 -93 5 -5 5 5zm-5 -5l5 0 0 5 -5 -5zm-144 0l144 0 0 10 -144 0 0 0 0 -10zm-25 3l5 -8 0 0 0 0 1 1 0 0 1 0 1 1 0 0 1 0 0 0 1 1 1 0 0 0 1 0 1 1 0 0 1 0 0 0 1 0 1 0 0 1 1 0 1 0 0 0 1 0 1 0 0 0 1 0 1 0 0 0 1 0 1 0 0 0 1 0 0 10 -1 0 -1 0 -1 0 0 0 -1 0 -1 0 -1 0 -1 -1 0 0 -1 0 -1 0 -1 0 -1 0 0 0 -1 -1 -1 0 -1 0 -1 0 0 -1 -1 0 -1 0 -1 0 -1 -1 0 0 -1 0 -1 -1 -1 0 0 0 -1 -1 -1 0 0 -1 -1 0 0 0zm-162 -85l4 -8 0 0 3 1 4 2 4 2 4 2 4 2 4 2 5 2 5 3 5 2 5 3 5 2 5 3 5 3 6 2 5 3 6 3 6 3 5 3 6 3 6 3 5 3 6 3 6 3 5 3 6 3 6 3 5 3 5 3 6 3 5 3 5 3 5 3 -5 8 -5 -3 -5 -3 -5 -3 -5 -3 -6 -3 -5 -3 -6 -3 -5 -3 -6 -3 -5 -3 -6 -3 -6 -3 -5 -3 -6 -3 -6 -3 -5 -3 -6 -3 -5 -2 -6 -3 -5 -3 -5 -2 -6 -3 -5 -2 -4 -3 -5 -2 -5 -3 -4 -2 -5 -2 -4 -2 -3 -2 -4 -1 -3 -2 0 0zm-38 -8l0 -10 0 0 2 0 1 0 1 0 2 0 1 0 1 0 2 1 1 0 1 0 2 0 1 0 1 0 1 1 2 0 1 0 1 0 2 1 1 0 1 0 2 1 1 0 1 1 1 0 2 0 1 1 1 0 1 1 2 0 1 1 1 0 1 1 2 1 -4 8 -2 0 -1 -1 -1 0 -1 -1 -1 0 -1 -1 -1 0 -1 -1 -2 0 -1 0 -1 -1 -1 0 -1 0 -1 -1 -2 0 -1 0 -1 -1 -1 0 -1 0 -1 0 -2 0 -1 -1 -1 0 -1 0 -1 0 -2 0 -1 0 -1 0 -1 0 -1 0 -2 0 -1 0 0 0zm-49 -10l49 0 0 10 -49 0 -5 -5 5 -5zm0 10l-5 0 0 -5 5 5zm5 -19l0 14 -10 0 0 -14 5 -5 5 5zm-10 0l0 -5 5 0 -5 5zm30 4l-25 0 0 -9 25 0 0 0 0 9zm179 -188l9 0 0 0 0 10 -1 9 -1 10 -2 9 -2 9 -2 9 -3 9 -4 8 -3 9 -4 8 -5 8 -5 7 -5 8 -6 7 -6 7 -6 6 -6 7 -7 5 -7 6 -8 5 -7 5 -8 5 -8 4 -9 4 -8 3 -9 3 -9 2 -9 3 -9 1 -10 1 -9 1 -10 0 0 -9 9 0 9 -1 9 -1 9 -2 9 -2 8 -2 9 -3 8 -3 8 -4 7 -4 8 -4 7 -5 7 -5 7 -5 6 -5 6 -6 6 -7 6 -6 5 -7 5 -7 5 -7 4 -8 4 -7 4 -8 3 -8 3 -9 2 -8 2 -9 2 -9 1 -8 1 -10 0 -9 0 0zm9 -113l0 113 -9 0 0 -113 5 -4 4 4zm-9 0l0 -4 5 0 -5 4zm105 5l-100 0 0 -9 100 0 5 4 -5 5zm5 -5l0 5 -5 0 5 -5zm0 -3688l0 3688 -10 0 0 -3688 5 -5 5 5zm-5 -5l5 0 0 5 -5 -5zm-100 0l100 0 0 10 -100 0 -5 -5 5 -5zm0 10l-5 0 0 -5 5 5zm4 -135l0 130 -9 0 0 -130 0 0 9 0zm-188 -179l0 -10 0 0 10 1 9 0 10 2 9 1 9 2 9 3 9 3 8 3 9 4 8 4 8 5 7 5 8 5 7 5 7 6 6 7 6 6 6 7 6 7 5 7 5 8 5 8 4 8 3 8 4 9 3 9 2 9 2 9 2 9 1 9 1 10 0 10 -9 0 0 -10 -1 -9 -1 -9 -2 -8 -2 -9 -2 -9 -3 -8 -3 -8 -4 -8 -4 -8 -4 -7 -5 -7 -5 -7 -5 -7 -6 -7 -6 -6 -6 -6 -6 -5 -7 -6 -7 -5 -7 -4 -8 -5 -7 -3 -8 -4 -8 -3 -9 -3 -8 -2 -9 -2 -9 -2 -9 -1 -9 -1 -9 0 0 0zm-26 -10l26 0 0 10 -26 0 -5 -5 5 -5zm0 10l-5 0 0 -5 5 5zm5 -17l0 12 -10 0 0 -12 5 -5 5 5zm-10 0l0 -5 5 0 -5 5zm69 4l-64 0 0 -9 64 0 0 0 0 9zm0 -9l0 0 0 0 0 0zm-1306 1008l-10 0 0 0 0 -2 0 -1 0 -2 1 -1 0 -2 0 -1 1 -2 0 -1 1 -1 1 -2 0 -1 1 -1 1 -1 1 -1 1 -1 1 -1 1 -1 1 -1 1 -1 1 -1 2 -1 1 -1 1 0 1 -1 2 0 1 -1 2 0 1 -1 2 0 1 0 2 0 1 0 0 9 -1 0 -1 0 -1 0 -1 1 -1 0 -1 0 -1 0 -1 1 -1 0 -1 1 -1 0 0 1 -1 0 -1 1 -1 0 0 1 -1 1 -1 1 0 0 -1 1 0 1 -1 1 0 1 -1 1 0 1 -1 1 0 1 0 1 0 1 0 1 0 1 0 1 0 0zm20 20l0 10 0 0 -1 0 -2 0 -1 -1 -2 0 -1 0 -2 -1 -1 0 -2 -1 -1 0 -1 -1 -1 -1 -2 0 -1 -1 -1 -1 -1 -1 -1 -1 -1 -1 -1 -1 -1 -1 -1 -2 -1 -1 0 -1 -1 -1 -1 -2 0 -1 -1 -1 0 -2 0 -1 -1 -2 0 -1 0 -2 0 -1 10 0 0 1 0 1 0 1 0 1 0 1 0 1 1 1 0 1 1 1 0 1 1 0 0 1 1 1 0 1 1 1 1 0 0 1 1 1 1 0 1 1 0 0 1 1 1 0 1 1 1 0 1 0 1 1 1 0 1 0 1 0 1 0 1 0 0 0zm21 -20l9 0 0 0 0 1 0 2 0 1 -1 2 0 1 0 2 -1 1 0 1 -1 2 -1 1 0 1 -1 1 -1 2 -1 1 -1 1 -1 1 -1 1 -1 1 -1 1 -1 1 -1 0 -2 1 -1 1 -1 0 -2 1 -1 0 -1 1 -2 0 -1 0 -2 1 -1 0 -2 0 0 -10 1 0 1 0 1 0 1 0 1 0 1 -1 1 0 1 0 1 -1 1 0 1 -1 1 0 0 -1 1 0 1 -1 1 -1 0 0 1 -1 1 -1 0 -1 1 -1 0 0 1 -1 0 -1 0 -1 1 -1 0 -1 0 -1 0 -1 1 -1 0 -1 0 -1 0 0zm-21 -21l0 -9 0 0 2 0 1 0 2 0 1 0 2 1 1 0 1 1 2 0 1 1 1 0 2 1 1 1 1 1 1 1 1 1 1 1 1 1 1 1 1 1 1 1 1 1 0 1 1 2 1 1 0 1 1 2 0 1 0 2 1 1 0 2 0 1 0 2 -9 0 0 -1 0 -1 -1 -1 0 -1 0 -1 0 -1 -1 -1 0 -1 0 -1 -1 -1 0 -1 -1 -1 0 -1 -1 0 -1 -1 0 -1 -1 -1 -1 0 -1 -1 0 0 -1 -1 -1 0 -1 -1 -1 0 -1 -1 -1 0 -1 0 -1 0 -1 -1 -1 0 -1 0 -1 0 0 0zm-52 -641l-9 0 0 0 0 -3 0 -3 0 -3 1 -3 1 -3 0 -3 1 -3 1 -3 2 -2 1 -3 2 -3 1 -2 2 -3 2 -2 2 -2 2 -2 2 -2 2 -2 2 -2 3 -2 2 -1 3 -2 3 -1 2 -2 3 -1 3 -1 3 0 3 -1 3 -1 3 0 3 0 3 0 0 9 -2 0 -3 0 -3 1 -2 0 -3 1 -2 0 -3 1 -2 1 -2 1 -3 1 -2 2 -2 1 -2 1 -2 2 -2 2 -2 1 -1 2 -2 2 -2 2 -1 2 -1 2 -2 2 -1 3 -1 2 -1 2 -1 3 0 2 -1 3 0 2 -1 3 0 3 0 2 0 0zm52 53l0 9 0 0 -3 0 -3 0 -3 0 -3 -1 -3 0 -3 -1 -3 -1 -3 -1 -2 -2 -3 -1 -3 -2 -2 -1 -3 -2 -2 -2 -2 -2 -2 -2 -2 -2 -2 -2 -2 -2 -2 -3 -1 -2 -2 -3 -1 -3 -2 -2 -1 -3 -1 -3 0 -3 -1 -3 -1 -3 0 -3 0 -3 0 -4 9 0 0 3 0 3 1 3 0 2 1 3 0 2 1 3 1 2 1 2 1 3 2 2 1 2 1 2 2 2 2 2 1 2 2 1 2 2 2 2 2 1 2 1 2 2 3 1 2 1 2 1 3 1 2 0 3 1 2 0 3 1 3 0 2 0 0 0zm53 -53l9 0 0 0 0 4 0 3 0 3 -1 3 0 3 -1 3 -1 3 -1 3 -2 2 -1 3 -2 3 -1 2 -2 3 -2 2 -2 2 -2 2 -2 2 -2 2 -2 2 -3 2 -2 1 -3 2 -3 1 -2 2 -3 1 -3 1 -3 1 -3 0 -3 1 -3 0 -3 0 -4 0 0 -9 3 0 3 0 3 -1 2 0 3 -1 2 0 3 -1 2 -1 2 -1 3 -1 2 -2 2 -1 2 -1 2 -2 2 -2 2 -1 1 -2 2 -2 2 -2 1 -2 1 -2 2 -2 1 -3 1 -2 1 -2 1 -3 0 -2 1 -3 0 -2 1 -3 0 -3 0 -3 0 0zm-53 -52l0 -9 0 0 4 0 3 0 3 0 3 1 3 1 3 0 3 1 3 1 2 2 3 1 3 2 2 1 3 2 2 2 2 2 2 2 2 2 2 2 2 2 2 3 1 2 2 3 1 3 2 2 1 3 1 3 1 3 0 3 1 3 0 3 0 3 0 3 -9 0 0 -2 0 -3 -1 -3 0 -2 -1 -3 0 -2 -1 -3 -1 -2 -1 -2 -1 -3 -2 -2 -1 -2 -1 -2 -2 -2 -2 -2 -1 -2 -2 -1 -2 -2 -2 -2 -2 -1 -2 -1 -2 -2 -3 -1 -2 -1 -2 -1 -3 -1 -2 0 -3 -1 -2 0 -3 -1 -3 0 -3 0 0 0zm-371 54l-9 0 0 0 0 -5 0 -6 1 -6 1 -5 1 -6 2 -5 2 -6 2 -5 2 -5 2 -5 3 -4 3 -5 3 -4 4 -5 3 -4 4 -4 4 -3 4 -4 4 -3 5 -3 4 -3 5 -3 5 -3 5 -2 5 -2 5 -2 6 -1 5 -2 6 -1 6 0 5 -1 6 0 0 10 -5 0 -6 0 -5 1 -5 1 -5 1 -5 1 -5 2 -4 2 -5 2 -4 2 -5 3 -4 2 -4 3 -4 3 -4 4 -3 3 -4 4 -3 3 -3 4 -3 4 -3 5 -2 4 -3 4 -2 5 -1 5 -2 5 -2 4 -1 6 -1 5 0 5 -1 5 0 5 0 0zm104 104l0 10 0 0 -6 0 -5 -1 -6 -1 -6 -1 -5 -1 -6 -1 -5 -2 -5 -2 -5 -2 -5 -3 -5 -3 -4 -3 -5 -3 -4 -3 -4 -4 -4 -3 -4 -4 -3 -4 -4 -5 -3 -4 -3 -5 -3 -5 -2 -4 -2 -5 -2 -6 -2 -5 -2 -5 -1 -6 -1 -5 -1 -6 0 -6 0 -6 9 0 0 6 1 5 0 5 1 5 1 5 2 5 2 5 1 5 2 5 3 4 2 4 3 5 3 4 3 4 3 3 4 4 3 3 4 4 4 3 4 3 4 2 5 3 4 2 5 2 4 2 5 2 5 1 5 1 5 1 5 1 6 0 5 0 0 0zm104 -104l9 0 0 0 0 6 0 6 -1 6 -1 5 -1 6 -2 5 -1 5 -2 6 -3 5 -2 4 -3 5 -3 5 -3 4 -3 5 -4 4 -4 4 -4 3 -4 4 -4 3 -5 3 -4 3 -5 3 -5 3 -5 2 -5 2 -5 2 -6 1 -5 1 -6 1 -5 1 -6 1 -6 0 0 -10 5 0 6 0 5 -1 5 -1 5 -1 5 -1 5 -2 5 -2 4 -2 5 -2 4 -3 4 -2 4 -3 4 -3 4 -4 4 -3 3 -4 3 -3 3 -4 3 -4 3 -5 2 -4 3 -4 2 -5 2 -5 1 -5 2 -5 1 -5 1 -5 0 -5 1 -5 0 -6 0 0zm-104 -103l0 -10 0 0 6 0 6 1 5 0 6 1 5 2 6 1 5 2 5 2 5 2 5 3 5 3 4 3 5 3 4 3 4 4 4 3 4 4 4 4 3 5 3 4 3 5 3 4 2 5 3 5 2 5 1 6 2 5 1 6 1 5 1 6 0 6 0 5 -9 0 0 -5 -1 -5 0 -5 -1 -5 -1 -6 -2 -4 -1 -5 -2 -5 -2 -5 -3 -4 -2 -4 -3 -5 -3 -4 -3 -4 -3 -3 -3 -4 -4 -3 -4 -4 -4 -3 -4 -3 -4 -2 -4 -3 -5 -2 -4 -2 -5 -2 -5 -2 -5 -1 -5 -1 -5 -1 -5 -1 -6 0 -5 0 0 0zm-102 423l-10 0 0 0 1 -5 0 -6 1 -6 1 -5 1 -6 1 -5 2 -5 2 -5 2 -5 3 -5 3 -5 2 -4 4 -4 3 -5 3 -4 4 -4 4 -3 4 -4 4 -3 5 -3 4 -3 5 -3 5 -2 5 -3 5 -2 5 -1 5 -2 6 -1 5 -1 6 -1 5 0 6 0 0 9 -5 0 -5 1 -5 0 -6 1 -4 1 -5 2 -5 1 -5 2 -4 2 -5 2 -4 3 -4 3 -4 2 -4 3 -4 4 -3 3 -4 4 -3 3 -3 4 -3 4 -2 4 -3 5 -2 4 -2 5 -2 4 -2 5 -1 5 -1 5 -1 5 -1 5 0 5 0 5 0 0zm102 103l0 9 0 0 -6 0 -5 0 -6 -1 -5 -1 -6 -1 -5 -2 -5 -2 -5 -2 -5 -2 -5 -2 -5 -3 -4 -3 -5 -3 -4 -3 -4 -4 -4 -4 -4 -3 -3 -5 -3 -4 -4 -4 -2 -5 -3 -4 -3 -5 -2 -5 -2 -5 -2 -5 -1 -6 -1 -5 -1 -6 -1 -5 0 -6 -1 -6 10 0 0 6 0 5 1 5 1 5 1 5 1 5 2 5 2 4 2 5 2 4 3 4 2 5 3 4 3 3 3 4 4 4 3 3 4 3 4 3 4 3 4 3 4 2 5 3 4 2 5 2 5 1 5 1 4 2 6 1 5 0 5 1 5 0 0 0zm102 -103l10 0 0 0 0 6 -1 6 0 5 -1 6 -2 5 -1 6 -2 5 -2 5 -2 5 -3 5 -2 4 -3 5 -3 4 -4 4 -3 5 -4 3 -4 4 -4 4 -4 3 -4 3 -5 3 -5 3 -4 2 -5 2 -5 2 -6 2 -5 2 -5 1 -6 1 -5 1 -6 0 -6 0 0 -9 5 0 6 -1 5 0 5 -1 5 -2 5 -1 4 -1 5 -2 4 -2 5 -3 4 -2 4 -3 4 -3 4 -3 4 -3 3 -3 4 -4 3 -4 3 -3 3 -4 3 -5 2 -4 2 -4 2 -5 2 -4 2 -5 1 -5 1 -5 1 -5 1 -5 0 -5 0 -6 0 0zm-102 -102l0 -9 0 0 6 0 6 0 5 1 6 1 5 1 5 2 6 1 5 2 5 3 4 2 5 3 5 3 4 3 4 3 4 4 4 3 4 4 3 4 4 5 3 4 3 4 2 5 3 5 2 5 2 5 2 5 1 5 2 6 1 5 0 6 1 6 0 5 -10 0 0 -5 0 -5 -1 -5 -1 -5 -1 -5 -1 -5 -2 -5 -2 -4 -2 -5 -2 -4 -2 -5 -3 -4 -3 -4 -3 -4 -3 -3 -4 -4 -3 -3 -4 -4 -4 -3 -4 -2 -4 -3 -4 -3 -5 -2 -4 -2 -5 -2 -4 -1 -5 -2 -5 -1 -5 -1 -5 0 -6 -1 -5 0 0 0zm-105 453l-9 0 0 0 0 -6 1 -6 0 -5 1 -6 2 -5 1 -6 2 -5 2 -5 2 -5 3 -5 2 -5 3 -4 3 -5 4 -4 3 -4 4 -4 4 -4 4 -3 4 -4 5 -3 4 -3 5 -2 5 -3 5 -2 5 -2 5 -2 6 -1 5 -2 6 -1 5 0 6 -1 6 0 0 9 -5 1 -6 0 -5 1 -5 0 -5 2 -5 1 -5 2 -4 2 -5 2 -4 2 -5 2 -4 3 -4 3 -4 3 -4 3 -3 4 -4 3 -3 4 -3 4 -3 4 -3 4 -2 5 -2 4 -2 5 -2 4 -2 5 -1 5 -1 5 -1 5 -1 5 0 6 -1 5 0 0zm104 103l0 10 0 0 -6 0 -6 -1 -5 -1 -6 0 -5 -2 -6 -1 -5 -2 -5 -2 -5 -2 -5 -3 -5 -3 -4 -2 -5 -4 -4 -3 -4 -4 -4 -3 -4 -4 -3 -4 -4 -5 -3 -4 -3 -5 -2 -4 -3 -5 -2 -5 -2 -5 -2 -6 -1 -5 -2 -5 -1 -6 0 -6 -1 -5 0 -6 9 0 1 5 0 5 1 6 1 5 1 5 1 5 2 4 2 5 2 5 2 4 2 5 3 4 3 4 3 4 3 3 4 4 3 4 4 3 4 3 4 3 4 2 5 3 4 2 5 2 4 2 5 2 5 1 5 1 5 1 5 1 6 0 5 0 0 0zm103 -103l10 0 0 0 0 6 -1 5 0 6 -1 6 -2 5 -1 5 -2 6 -2 5 -2 5 -3 5 -2 4 -3 5 -4 4 -3 5 -3 4 -4 4 -4 3 -4 4 -4 3 -5 4 -5 2 -4 3 -5 3 -5 2 -5 2 -5 2 -6 1 -5 2 -6 0 -6 1 -5 1 -6 0 0 -10 5 0 6 0 5 -1 5 -1 5 -1 5 -1 5 -2 4 -2 5 -2 4 -2 5 -3 4 -2 4 -3 4 -3 4 -3 3 -4 4 -4 3 -3 3 -4 3 -4 2 -4 3 -5 2 -4 2 -5 2 -5 2 -4 1 -5 1 -5 1 -5 1 -6 0 -5 0 -5 0 0zm-103 -104l0 -9 0 0 6 0 5 1 6 0 6 1 5 2 6 1 5 2 5 2 5 2 5 3 4 2 5 3 5 3 4 4 4 3 4 4 4 4 3 4 3 4 4 5 3 4 2 5 3 5 2 5 2 5 2 5 1 6 2 5 1 6 0 5 1 6 0 6 -10 0 0 -5 0 -6 -1 -5 -1 -5 -1 -5 -1 -5 -2 -5 -2 -4 -2 -5 -2 -4 -3 -5 -2 -4 -3 -4 -3 -4 -3 -4 -4 -3 -3 -4 -4 -3 -4 -3 -4 -3 -4 -3 -5 -2 -4 -2 -5 -2 -4 -2 -5 -2 -5 -1 -5 -2 -5 0 -5 -1 -6 0 -5 -1 0 0zm387 -630l0 790 -10 0 0 -790 0 0 10 0zm-89 -80l0 -9 0 0 5 0 4 0 5 1 4 1 4 1 5 1 4 1 4 2 4 2 4 2 3 2 4 2 3 3 4 2 3 3 3 3 3 3 3 3 2 4 3 3 2 4 2 3 2 4 2 4 2 4 1 4 1 4 1 5 1 4 0 5 1 4 0 5 -10 0 0 -5 0 -4 0 -4 -1 -3 -1 -4 -1 -4 -1 -4 -2 -3 -1 -4 -2 -3 -2 -4 -2 -3 -2 -3 -3 -3 -2 -3 -3 -2 -2 -3 -3 -3 -3 -2 -3 -2 -4 -2 -3 -2 -3 -2 -4 -1 -3 -2 -4 -1 -4 -1 -4 -1 -4 -1 -4 0 -4 -1 -4 0 0 0zm-360 -9l360 0 0 9 -360 0 0 0 0 -9zm-80 89l-9 0 0 0 0 -5 0 -4 1 -5 1 -4 1 -5 1 -4 1 -4 2 -4 2 -4 2 -4 2 -3 2 -4 3 -3 2 -4 3 -3 3 -3 3 -3 3 -3 4 -2 3 -3 4 -2 3 -2 4 -2 4 -2 4 -2 4 -1 4 -1 5 -1 4 -1 5 -1 4 0 5 0 0 9 -4 0 -4 1 -4 0 -4 1 -4 1 -4 1 -4 1 -3 2 -4 1 -3 2 -3 2 -4 2 -3 2 -3 2 -3 3 -2 3 -3 2 -3 3 -2 3 -2 3 -2 3 -2 4 -2 3 -1 4 -2 3 -1 4 -1 4 -1 4 -1 3 0 4 0 4 -1 5 0 0zm-9 790l0 -790 9 0 0 790 0 0 -9 0zm89 79l0 10 0 0 -5 -1 -4 0 -5 0 -4 -1 -5 -1 -4 -1 -4 -2 -4 -1 -4 -2 -4 -2 -3 -2 -4 -3 -3 -2 -4 -3 -3 -2 -3 -3 -3 -3 -3 -4 -2 -3 -3 -4 -2 -3 -2 -4 -2 -4 -2 -4 -2 -4 -1 -4 -1 -4 -1 -4 -1 -5 -1 -4 0 -4 0 -5 9 0 1 4 0 4 0 4 1 4 1 4 1 3 1 4 2 4 1 3 2 4 2 3 2 3 2 3 2 3 3 3 3 3 2 3 3 2 3 2 3 3 4 2 3 2 3 1 4 2 3 1 4 2 4 1 4 1 4 0 4 1 4 0 4 0 0 0zm360 10l-360 0 0 -10 360 0 0 0 0 10zm79 -89l10 0 0 0 0 5 -1 4 0 4 -1 5 -1 4 -1 4 -1 4 -2 4 -2 4 -2 4 -2 4 -2 3 -3 4 -2 3 -3 4 -3 3 -3 3 -3 2 -4 3 -3 2 -4 3 -3 2 -4 2 -4 2 -4 1 -4 2 -5 1 -4 1 -4 1 -5 0 -4 0 -5 1 0 -10 4 0 4 0 4 -1 4 0 4 -1 4 -1 4 -2 3 -1 4 -2 3 -1 3 -2 4 -2 3 -3 3 -2 3 -2 2 -3 3 -3 2 -3 3 -3 2 -3 2 -3 2 -3 2 -4 1 -3 2 -4 1 -4 1 -3 1 -4 1 -4 0 -4 0 -4 0 -4 0 0zm38 -800l0 808 -9 0 0 -808 0 0 9 0zm-118 -109l0 -9 0 0 6 0 6 0 6 1 6 1 5 1 6 2 5 2 6 2 5 2 5 3 5 3 5 3 5 3 4 4 4 4 4 3 4 5 4 4 4 4 3 5 3 5 3 5 2 5 3 5 2 5 2 6 1 6 2 5 1 6 1 6 0 6 0 6 -9 0 0 -5 -1 -6 -1 -5 0 -6 -2 -5 -1 -5 -2 -5 -2 -5 -2 -5 -2 -5 -3 -4 -3 -5 -3 -4 -3 -4 -4 -4 -3 -4 -4 -4 -4 -3 -4 -3 -4 -3 -5 -3 -4 -3 -5 -2 -5 -2 -5 -2 -5 -2 -5 -1 -5 -2 -6 -1 -5 0 -6 -1 -5 0 0 0zm-366 -9l366 0 0 9 -366 0 0 0 0 -9zm-109 118l-9 0 0 0 0 -6 1 -6 0 -6 1 -6 2 -5 1 -6 2 -6 2 -5 3 -5 2 -5 3 -5 3 -5 3 -5 4 -4 4 -4 4 -5 4 -3 4 -4 4 -4 5 -3 5 -3 5 -3 5 -3 5 -2 6 -2 5 -2 6 -2 5 -1 6 -1 6 -1 6 0 6 0 0 9 -5 0 -6 1 -5 0 -6 1 -5 2 -5 1 -5 2 -5 2 -5 2 -5 2 -4 3 -5 3 -4 3 -4 3 -4 3 -4 4 -3 4 -4 4 -3 4 -3 4 -3 5 -3 4 -2 5 -2 5 -2 5 -2 5 -1 5 -1 5 -1 6 -1 5 -1 6 0 5 0 0zm-9 808l0 -808 9 0 0 808 0 0 -9 0zm118 109l0 9 0 0 -6 0 -6 0 -6 -1 -6 -1 -5 -2 -6 -1 -5 -2 -6 -2 -5 -2 -5 -3 -5 -3 -5 -3 -5 -3 -4 -4 -4 -4 -4 -3 -4 -5 -4 -4 -4 -4 -3 -5 -3 -5 -3 -5 -2 -5 -3 -5 -2 -5 -2 -6 -1 -6 -2 -5 -1 -6 0 -6 -1 -6 0 -6 9 0 0 5 1 6 1 5 1 6 1 5 1 5 2 5 2 5 2 5 2 5 3 4 3 5 3 4 3 4 4 4 3 4 4 3 4 4 4 3 4 3 5 3 4 3 5 2 5 2 5 2 5 2 5 1 5 2 6 1 5 0 6 1 5 0 0 0zm366 9l-366 0 0 -9 366 0 0 0 0 9zm109 -118l9 0 0 0 0 6 0 6 -1 6 -1 6 -2 5 -1 6 -2 6 -2 5 -3 5 -2 5 -3 5 -3 5 -3 5 -4 4 -4 4 -4 5 -4 3 -4 4 -4 4 -5 3 -5 3 -5 3 -5 3 -5 2 -6 2 -5 2 -6 1 -5 2 -6 1 -6 1 -6 0 -6 0 0 -9 5 0 6 -1 5 0 6 -1 5 -2 5 -1 5 -2 5 -2 5 -2 5 -2 4 -3 5 -3 4 -3 4 -3 4 -4 4 -3 3 -4 4 -4 3 -4 3 -4 3 -5 3 -4 2 -5 2 -5 2 -5 2 -5 1 -5 2 -5 0 -6 1 -5 1 -6 0 -5 0 0zm1078 3316l0 22 -10 0 0 -22 0 0 10 0zm-56 -46l0 -10 0 0 3 0 3 0 3 1 2 0 3 1 3 1 2 1 3 1 2 1 3 1 2 1 2 2 2 1 3 2 2 2 2 2 1 1 2 2 2 3 1 2 2 2 1 2 1 3 1 2 1 3 1 2 1 3 1 3 0 3 1 2 0 3 0 3 -10 0 0 -2 0 -3 0 -2 0 -2 -1 -3 -1 -2 0 -2 -1 -2 -1 -2 -1 -2 -1 -2 -1 -2 -2 -2 -1 -2 -2 -1 -1 -2 -2 -1 -1 -2 -2 -1 -2 -1 -2 -2 -2 -1 -2 -1 -2 -1 -2 -1 -2 0 -2 -1 -3 0 -2 -1 -2 0 -3 0 -2 0 0 0zm-67 -10l67 0 0 10 -67 0 0 0 0 -10zm-46 56l-10 0 0 0 0 -3 0 -3 1 -2 0 -3 1 -3 1 -3 0 -2 2 -3 1 -2 1 -3 1 -2 2 -2 1 -2 2 -3 2 -2 1 -1 2 -2 2 -2 3 -2 2 -1 2 -2 2 -1 3 -1 2 -1 3 -1 2 -1 3 -1 3 -1 2 0 3 -1 3 0 3 0 0 10 -2 0 -3 0 -2 0 -2 1 -3 0 -2 1 -2 0 -2 1 -2 1 -2 1 -2 1 -2 2 -2 1 -2 1 -1 2 -2 1 -1 2 -2 1 -1 2 -2 2 -1 2 -1 2 -1 2 -1 2 -1 2 0 2 -1 2 -1 3 0 2 0 2 0 3 0 2 0 0zm-10 22l0 -22 10 0 0 22 0 0 -10 0zm56 46l0 9 0 0 -3 0 -3 0 -3 0 -2 -1 -3 0 -3 -1 -2 -1 -3 -1 -2 -1 -3 -1 -2 -2 -2 -1 -2 -2 -3 -1 -2 -2 -2 -2 -1 -2 -2 -2 -2 -2 -1 -2 -2 -2 -1 -3 -1 -2 -1 -3 -2 -2 0 -3 -1 -2 -1 -3 0 -3 -1 -3 0 -3 0 -2 10 0 0 2 0 2 0 3 0 2 1 2 1 2 0 3 1 2 1 2 1 2 1 2 1 2 2 1 1 2 2 2 1 1 2 2 1 1 2 2 2 1 2 1 2 1 2 1 2 1 2 1 2 1 2 1 3 0 2 1 2 0 3 0 2 0 0 0zm67 9l-67 0 0 -9 67 0 0 0 0 9zm46 -55l10 0 0 0 0 2 0 3 -1 3 0 3 -1 3 -1 2 -1 3 -1 2 -1 3 -1 2 -1 3 -2 2 -1 2 -2 2 -2 2 -1 2 -2 2 -2 2 -3 1 -2 2 -2 1 -2 2 -3 1 -2 1 -3 1 -2 1 -3 1 -3 0 -2 1 -3 0 -3 0 -3 0 0 -9 2 0 3 0 2 0 2 -1 3 0 2 -1 2 -1 2 -1 2 -1 2 -1 2 -1 2 -1 2 -1 2 -2 1 -1 2 -2 1 -1 2 -2 1 -2 2 -1 1 -2 1 -2 1 -2 1 -2 1 -2 0 -3 1 -2 1 -2 0 -2 0 -3 0 -2 0 -2 0 0zm-299 -19l0 34 -9 0 0 -34 0 0 9 0zm-33 -24l0 -9 0 0 2 0 1 0 2 0 2 1 1 0 2 1 1 0 2 1 1 0 2 1 1 1 1 1 2 1 1 1 1 1 1 1 1 1 1 1 1 1 1 2 1 1 1 1 1 2 0 1 1 2 0 1 1 2 0 1 1 2 0 2 0 1 0 2 -9 0 0 -1 -1 -1 0 -2 0 -1 0 -1 -1 -1 0 -1 0 -1 -1 -1 0 -1 -1 -1 0 -1 -1 -1 -1 -1 -1 -1 0 -1 -1 0 -1 -1 -1 -1 -1 -1 -1 0 -1 -1 -1 0 -1 -1 -1 0 -1 0 -1 -1 -1 0 -1 0 -2 0 -1 -1 -1 0 0 0zm-202 -9l202 0 0 9 -202 0 0 0 0 -9zm-24 33l-9 0 0 0 0 -2 0 -1 0 -2 0 -2 1 -1 0 -2 1 -1 0 -2 1 -1 1 -2 1 -1 0 -1 1 -2 1 -1 1 -1 1 -1 2 -1 1 -1 1 -1 1 -1 2 -1 1 -1 1 -1 2 0 1 -1 2 0 1 -1 2 0 2 -1 1 0 2 0 2 0 0 9 -1 0 -2 1 -1 0 -1 0 -1 0 -1 1 -1 0 -1 0 -1 1 -1 0 -1 1 -1 0 -1 1 -1 1 -1 1 -1 0 -1 1 0 1 -1 1 -1 1 0 1 -1 1 0 1 -1 1 0 1 -1 1 0 1 0 1 -1 1 0 2 0 1 0 1 0 0zm-9 34l0 -34 9 0 0 34 0 0 -9 0zm33 23l0 10 0 0 -2 0 -2 -1 -1 0 -2 0 -2 0 -1 -1 -2 0 -1 -1 -2 -1 -1 0 -1 -1 -2 -1 -1 -1 -1 -1 -1 -1 -2 -1 -1 -1 -1 -1 -1 -2 -1 -1 0 -1 -1 -2 -1 -1 -1 -1 0 -2 -1 -2 0 -1 -1 -2 0 -1 0 -2 0 -2 0 -1 9 0 0 1 0 1 0 1 1 1 0 2 0 1 1 1 0 1 1 1 0 1 1 1 0 1 1 1 1 1 0 0 1 1 1 1 1 1 1 1 1 0 1 1 1 0 1 1 1 0 1 1 1 0 1 0 1 1 1 0 1 0 2 0 1 0 0 0zm202 10l-202 0 0 -10 202 0 0 0 0 10zm24 -33l9 0 0 0 0 1 0 2 0 2 -1 1 0 2 -1 1 0 2 -1 2 0 1 -1 1 -1 2 -1 1 -1 1 -1 2 -1 1 -1 1 -1 1 -1 1 -1 1 -2 1 -1 1 -1 1 -2 0 -1 1 -2 1 -1 0 -2 1 -1 0 -2 0 -2 0 -1 1 -2 0 0 -10 1 0 1 0 2 0 1 0 1 -1 1 0 1 0 1 -1 1 0 1 -1 1 0 1 -1 1 0 1 -1 1 -1 1 -1 0 -1 1 0 1 -1 1 -1 0 -1 1 -1 0 -1 1 -1 0 -1 0 -1 1 -1 0 -2 0 -1 0 -1 1 -1 0 -1 0 0zm-401 -13l0 0 0 0 0 0 -5 0 5 0zm-50 -45l0 -9 0 0 3 0 3 0 3 1 2 0 3 1 3 0 2 1 3 1 2 1 2 2 3 1 2 1 2 2 2 1 2 2 2 2 1 2 2 2 2 2 1 2 2 2 1 2 1 3 1 2 1 3 1 2 1 3 0 2 1 3 0 3 0 2 1 3 -10 0 0 -2 0 -2 0 -3 -1 -2 0 -2 -1 -2 -1 -2 0 -2 -1 -2 -1 -2 -1 -2 -1 -2 -2 -2 -1 -1 -1 -2 -2 -1 -2 -2 -1 -1 -2 -2 -2 -1 -1 -1 -2 -1 -2 -1 -2 -1 -2 -1 -2 -1 -2 0 -3 -1 -2 0 -2 0 -2 0 -3 -1 0 0zm-163 -9l163 0 0 9 -163 0 0 0 0 -9zm-45 54l-10 0 0 0 1 -3 0 -2 0 -3 1 -3 0 -2 1 -3 1 -2 1 -3 1 -2 1 -3 1 -2 2 -2 1 -2 2 -2 2 -2 1 -2 2 -2 2 -2 2 -1 2 -2 3 -1 2 -1 2 -2 3 -1 2 -1 2 -1 3 0 3 -1 2 0 3 -1 3 0 3 0 0 9 -3 1 -2 0 -2 0 -2 0 -3 1 -2 0 -2 1 -2 1 -2 1 -2 1 -2 1 -1 1 -2 1 -2 2 -1 1 -2 2 -2 1 -1 2 -1 1 -1 2 -2 2 -1 2 -1 2 -1 2 0 2 -1 2 -1 2 0 2 -1 2 0 3 0 2 0 2 0 0zm-5 0l0 0 0 0 0 0 5 0 -5 0zm50 45l0 9 0 0 -3 0 -3 0 -3 0 -2 -1 -3 0 -3 -1 -2 -1 -2 -1 -3 -1 -2 -1 -2 -2 -3 -1 -2 -2 -2 -1 -2 -2 -2 -2 -1 -1 -2 -2 -2 -2 -1 -3 -2 -2 -1 -2 -1 -2 -1 -3 -1 -2 -1 -3 -1 -2 0 -3 -1 -3 0 -2 0 -3 -1 -3 10 0 0 2 0 3 0 2 1 2 0 2 1 2 1 3 0 2 1 2 1 1 1 2 2 2 1 2 1 2 1 1 2 2 2 1 1 2 2 1 2 1 1 1 2 1 2 1 2 1 2 1 2 1 2 0 3 1 2 0 2 1 2 0 3 0 0 0zm163 9l-163 0 0 -9 163 0 0 0 0 9zm45 -54l10 0 0 0 -1 3 0 3 0 2 -1 3 0 3 -1 2 -1 3 -1 2 -1 3 -1 2 -1 2 -2 2 -1 3 -2 2 -2 2 -1 1 -2 2 -2 2 -2 1 -2 2 -2 1 -3 2 -2 1 -2 1 -3 1 -2 1 -3 1 -3 0 -2 1 -3 0 -3 0 -3 0 0 -9 3 0 2 0 2 -1 2 0 3 -1 2 0 2 -1 2 -1 2 -1 2 -1 2 -1 1 -1 2 -1 2 -1 1 -2 2 -1 2 -2 1 -1 1 -2 2 -2 1 -2 1 -2 1 -1 1 -2 0 -2 1 -3 1 -2 0 -2 1 -2 0 -2 0 -3 0 -2 0 0zm-551 2l-10 0 0 0 1 -1 0 -2 0 -2 0 -1 1 -2 0 -2 1 -1 0 -2 1 -1 1 -2 0 -1 1 -1 1 -2 1 -1 1 -1 1 -1 2 -1 1 -2 1 -1 1 0 2 -1 1 -1 2 -1 1 -1 2 0 1 -1 2 0 1 -1 2 0 2 0 1 0 2 0 0 9 -1 0 -1 0 -1 0 -2 1 -1 0 -1 0 -1 1 -1 0 -1 1 -1 0 -1 1 -1 0 -1 1 -1 1 -1 0 -1 1 -1 1 -1 1 0 1 -1 1 -1 1 0 1 -1 1 0 1 -1 1 0 1 0 1 -1 2 0 1 0 1 0 1 0 1 0 0zm24 25l0 9 0 0 -2 0 -1 0 -2 0 -2 0 -1 -1 -2 0 -1 -1 -2 0 -1 -1 -2 -1 -1 -1 -2 -1 -1 0 -1 -2 -1 -1 -2 -1 -1 -1 -1 -1 -1 -1 -1 -2 -1 -1 0 -1 -1 -2 -1 -1 0 -2 -1 -1 0 -2 -1 -2 0 -1 0 -2 0 -2 -1 -2 10 0 0 2 0 1 0 1 0 1 1 2 0 1 0 1 1 1 0 1 1 1 0 1 1 1 1 1 0 1 1 1 1 1 1 0 1 1 1 1 1 1 1 0 1 1 1 0 1 1 1 0 1 1 1 0 1 0 2 1 1 0 1 0 1 0 0 0zm25 -25l9 0 0 0 0 2 0 2 0 2 -1 1 0 2 -1 2 0 1 -1 2 0 1 -1 2 -1 1 -1 1 -1 2 -1 1 -1 1 -1 1 -1 1 -1 1 -2 2 -1 0 -1 1 -2 1 -1 1 -2 1 -1 0 -2 1 -1 0 -2 1 -2 0 -1 0 -2 0 -2 0 0 -9 1 0 2 0 1 0 1 -1 1 0 1 0 2 -1 1 0 1 -1 1 0 1 -1 1 0 1 -1 1 -1 1 -1 0 0 1 -1 1 -1 1 -1 0 -1 1 -1 1 -1 0 -1 1 -1 0 -1 0 -1 1 -1 0 -2 0 -1 0 -1 0 -1 1 -2 0 0zm-25 -24l0 -9 0 0 2 0 2 0 1 0 2 0 2 1 1 0 2 1 1 0 2 1 1 1 2 1 1 1 1 0 2 1 1 2 1 1 1 1 1 1 1 1 1 2 1 1 1 1 1 2 0 1 1 2 0 1 1 2 0 2 1 1 0 2 0 2 0 1 -9 0 -1 -1 0 -1 0 -1 0 -1 0 -2 -1 -1 0 -1 0 -1 -1 -1 0 -1 -1 -1 -1 -1 0 -1 -1 -1 -1 -1 -1 -1 0 -1 -1 0 -1 -1 -1 -1 -1 0 -1 -1 -1 0 -1 -1 -1 0 -2 -1 -1 0 -1 0 -1 -1 -1 0 -2 0 -1 0 0 0z"/>
  </g>
 </g>
</svg>
