<?xml version="1.0" encoding="UTF-8"?>
<!DOCTYPE svg PUBLIC "-//W3C//DTD SVG 1.1//EN" "http://www.w3.org/Graphics/SVG/1.1/DTD/svg11.dtd">
<!-- Creator: CorelDRAW 2020 (64-Bit) -->
<svg xmlns="http://www.w3.org/2000/svg" xml:space="preserve" width="40mm" height="60mm" version="1.1" style="shape-rendering:geometricPrecision; text-rendering:geometricPrecision; image-rendering:optimizeQuality; fill-rule:evenodd; clip-rule:evenodd"
viewBox="0 0 4000 6000"
 xmlns:xlink="http://www.w3.org/1999/xlink"
 xmlns:xodm="http://www.corel.com/coreldraw/odm/2003">
 <defs>
  <style type="text/css">
   <![CDATA[
    .str0 {stroke:black;stroke-width:7.62;stroke-miterlimit:22.9256}
    .fil0 {fill:none}
   ]]>
  </style>
 </defs>
 <g id="图层_x0020_1">
  <metadata id="CorelCorpID_0Corel-Layer"/>
  <path class="fil0 str0" d="M1535.62 994.68c15.24,-98.05 -67.2,-166.76 -108.1,-169.92 -145.52,0 -263.47,117.94 -263.47,263.46 0,145.51 117.95,263.47 263.47,263.47 145.51,0 263.46,-117.96 263.46,-263.47 0,-145.52 -117.95,-263.46 -263.46,-263.46m108.1 804.81c15.24,-98.05 -67.2,-166.76 -108.1,-169.92 -145.52,0 -263.47,117.94 -263.47,263.46 0,145.51 117.95,263.46 263.47,263.46 145.51,0 263.46,-117.95 263.46,-263.46 0,-145.52 -117.95,-263.46 -263.46,-263.46m413.33 -130.18c-21.74,5.82 -37.7,13.74 -37.7,51.05l0 30.93c0,43.08 35.24,78.32 78.32,78.32l0.02 0c43.05,0 78.31,-35.24 78.31,-78.32l0 -330.4c0,-43.08 -35.24,-78.32 -78.31,-78.32l-0.02 0c-43.08,0 -78.32,35.26 -78.32,78.32l0 299.47m-496.12 -569.12l544.56 0c90.86,0 165.2,74.34 165.2,165.19l0 856.3c0,90.86 -74.34,165.2 -165.2,165.2l-544.56 0c-93.99,0 -170.9,-76.91 -170.9,-170.9l0 -844.9c0,-93.99 76.91,-170.89 170.9,-170.89zm-34.79 -38.62l615.6 0c100.51,0 182.75,82.23 182.75,182.75l0 900.55c0,100.51 -82.24,182.75 -182.75,182.75l-615.6 0c-100.51,0 -182.75,-82.24 -182.75,-182.75l0 -900.55c0,-100.52 82.24,-182.75 182.75,-182.75zm-283.01 4554.04l1852 0c128.98,0 234.51,-105.53 234.51,-234.51l0 -4202.13c0,-128.98 -105.53,-234.51 -234.51,-234.51l-1695.66 0c-128.98,0 -234.51,105.53 -234.51,234.51l0 593.99c0,9.59 2.01,17.81 6.44,26.31l28.33 54.39c4.43,8.51 6.44,16.73 6.44,26.32l0 1258.86c0,8.23 -1.47,15.28 -4.77,22.83l-31.66 72.36c-3.3,7.55 -4.78,14.6 -4.78,22.84l0 2124.23c0,128.98 105.53,234.51 234.51,234.51l56.55 0c130.83,0 198.03,13.5 207.24,28.85"/>
 </g>
</svg>
