<?xml version="1.0" encoding="UTF-8"?>
<!DOCTYPE svg PUBLIC "-//W3C//DTD SVG 1.1//EN" "http://www.w3.org/Graphics/SVG/1.1/DTD/svg11.dtd">
<!-- Creator: CorelDRAW X8 -->
<svg xmlns="http://www.w3.org/2000/svg" xml:space="preserve" width="40mm" height="60mm" version="1.1" style="shape-rendering:geometricPrecision; text-rendering:geometricPrecision; image-rendering:optimizeQuality; fill-rule:evenodd; clip-rule:evenodd"
viewBox="0 0 4000 6000"
 xmlns:xlink="http://www.w3.org/1999/xlink">
 <defs>
  <style type="text/css">
   <![CDATA[
    .str0 {stroke:black;stroke-width:7.62}
    .fil0 {fill:none}
   ]]>
  </style>
 </defs>
 <g id="图层_x0020_1">
  <metadata id="CorelCorpID_0Corel-Layer"/>
  <path class="fil0 str0" d="M919 5206l0 -4293c0,-125 102,-213 225,-227 295,-34 582,-36 875,-36 291,0 590,0 877,33 123,14 225,105 225,230l0 4160c0,125 -100,212 -225,233 -288,47 -583,44 -874,44 -293,0 -583,-2 -878,-44 -123,-18 -225,-108 -225,-233 0,-46 -15,-83 -40,-103m1699 293c0,-2 -2,-4 -6,-5 -13,0 -23,11 -23,24 0,13 10,23 23,23 13,0 24,-10 24,-23 0,-13 -11,-24 -24,-24m-630 -205l172 0c28,0 51,23 51,52l0 162c0,28 -23,52 -51,52l-172 0c-28,0 -51,-24 -51,-52l0 -162c0,-29 23,-52 51,-52zm-453 210c0,-2 -2,-4 -6,-5 -13,0 -23,11 -23,24 0,13 10,23 23,23 13,0 24,-10 24,-23 0,-13 -11,-24 -24,-24m-131 -4519c0,-6 -6,-12 -18,-13 -43,0 -78,35 -78,78 0,43 35,78 78,78 43,0 78,-35 78,-78 0,-43 -35,-78 -78,-78m594 71c-7,-28 -22,-49 -89,-49l-57 0c-30,0 -55,24 -55,54l0 0c0,31 25,55 55,55l482 0c30,0 55,-24 55,-55l0 0c0,-30 -25,-54 -55,-54l-425 0m891 -9c0,-6 -6,-12 -18,-13 -43,0 -78,35 -78,78 0,43 35,78 78,78 43,0 78,-35 78,-78 0,-43 -35,-78 -78,-78"/>
 </g>
</svg>
