<?xml version="1.0" encoding="UTF-8"?>
<!DOCTYPE svg PUBLIC "-//W3C//DTD SVG 1.1//EN" "http://www.w3.org/Graphics/SVG/1.1/DTD/svg11.dtd">
<!-- Creator: CorelDRAW X8 -->
<svg xmlns="http://www.w3.org/2000/svg" xml:space="preserve" width="40mm" height="60mm" version="1.1" style="shape-rendering:geometricPrecision; text-rendering:geometricPrecision; image-rendering:optimizeQuality; fill-rule:evenodd; clip-rule:evenodd"
viewBox="0 0 4000 6000"
 xmlns:xlink="http://www.w3.org/1999/xlink">
 <defs>
  <style type="text/css">
   <![CDATA[
    .str0 {stroke:black;stroke-width:7.62}
    .fil0 {fill:none}
   ]]>
  </style>
 </defs>
 <g id="图层_x0020_1">
  <metadata id="CorelCorpID_0Corel-Layer"/>
  <path class="fil0 str0" d="M1655 1789c0,-8 -7,-16 -22,-17 -52,0 -95,43 -95,95 0,52 43,94 95,94 52,0 94,-42 94,-94 0,-52 -42,-95 -94,-95m-222 17c0,-8 -7,-16 -22,-17 -52,0 -95,42 -95,95 0,52 43,94 95,94 52,0 95,-42 95,-94 0,-53 -43,-95 -95,-95m266 -255c0,-8 -7,-16 -22,-17 -52,0 -95,42 -95,95 0,52 43,94 95,94 52,0 94,-42 94,-94 0,-53 -42,-95 -94,-95m-76 -356c-1,-16 -16,-32 -46,-34 -108,0 -196,87 -196,196 0,108 88,195 196,195 108,0 196,-87 196,-195 0,-109 -88,-196 -196,-196m-1 -70l0 0c149,0 270,121 270,270l0 513c0,149 -121,270 -270,270l0 0c-148,0 -270,-121 -270,-270l0 -513c0,-149 122,-270 270,-270zm0 -41l0 0c171,0 311,140 311,311l0 513c0,171 -140,311 -311,311l0 0c-171,0 -310,-140 -310,-311l0 -513c0,-171 139,-311 310,-311zm-99 518c0,-8 -7,-16 -22,-17 -52,0 -95,42 -95,95 0,52 43,94 95,94 52,0 95,-42 95,-94 0,-53 -43,-95 -95,-95m1080 3739c0,-2 -2,-3 -5,-4 -11,0 -20,10 -20,21 0,11 9,20 20,20 11,0 20,-9 20,-20 0,-11 -9,-21 -20,-21m-428 6c-5,-20 -16,-36 -67,-36l-44 0c-22,0 -41,18 -41,40l0 0c0,23 19,41 41,41l153 0c22,0 41,-18 41,-41l0 0c0,-22 -19,-40 -41,-40l-109 0m392 -4473c-3,-9 -6,-16 -22,-16l-14 0c-18,0 -33,15 -33,34l0 0c0,18 15,33 33,33l441 0c18,0 34,-15 34,-33l0 0c0,-19 -16,-34 -34,-34l-427 0m-980 4536c-4,-15 -12,-27 -50,-27l-33 0c-17,0 -31,14 -31,31l0 0c0,17 14,31 31,31l276 0c17,0 31,-14 31,-31l0 0c0,-17 -14,-31 -31,-31l-243 0m860 -4486c0,-2 -2,-4 -5,-4 -11,0 -20,9 -20,20 0,12 9,21 20,21 11,0 20,-9 20,-21 0,-11 -9,-20 -20,-20m-1176 4250c-1,-5 -1,-10 -1,-15l0 10 1 5zm84 365l1749 0c13,0 23,-10 23,-23l0 -196 8 0c76,0 141,-54 157,-126 -11,80 -19,148 -49,220 -4,10 -3,12 7,14l187 4c10,-114 -81,-91 -80,-254 9,-1284 0,-2567 0,-3851 -10,-275 50,-287 63,-316 6,-14 34,-73 12,-73 -63,0 -126,1 -188,2 35,95 47,180 52,270l0 9c0,-96 -78,-175 -174,-175l0 -191c0,-8 -6,-14 -14,-14l-540 0 0 46c0,4 -4,8 -8,8l-551 0c-5,0 -8,-4 -8,-8l0 -46 -541 0c-7,0 -13,6 -13,14l0 191c-97,0 -177,80 -177,177l0 -10c5,-90 17,-175 52,-269 -62,-1 -125,-3 -188,-3 -22,0 6,60 12,73 13,29 73,41 63,316 0,270 -1,539 -1,808 0,16 1,18 12,18l36 0c12,0 22,10 22,21l0 497c0,12 -10,22 -22,22l-44 0c-4,0 -5,1 -5,9l0 116c0,10 0,10 4,10l45 0c12,0 22,10 22,22l0 227c0,12 -10,21 -22,21l-45 0c-4,0 -5,1 -5,8 -1,691 -2,1381 3,2072 1,163 -90,140 -80,254l187 -4c10,-1 11,-4 7,-13 -31,-74 -38,-143 -50,-224 15,73 81,128 158,128l8 0 0 196c0,13 10,23 23,23l50 0"/>
 </g>
</svg>
