<?xml version="1.0" encoding="UTF-8"?>
<!DOCTYPE svg PUBLIC "-//W3C//DTD SVG 1.1//EN" "http://www.w3.org/Graphics/SVG/1.1/DTD/svg11.dtd">
<!-- Creator: CorelDRAW -->
<svg xmlns="http://www.w3.org/2000/svg" xml:space="preserve" width="40mm" height="60mm" style="shape-rendering:geometricPrecision; text-rendering:geometricPrecision; image-rendering:optimizeQuality; fill-rule:evenodd; clip-rule:evenodd"
viewBox="0 0 40 60"
 xmlns:xlink="http://www.w3.org/1999/xlink">
 <defs>
  <style type="text/css">
   <![CDATA[
    .str0 {stroke:#1F1A17;stroke-width:0.0762}
    .fil0 {fill:none}
   ]]>
  </style>
 </defs>
 <g id="图层_x0020_1">
  <metadata id="CorelCorpID_0Corel-Layer"/>
  <path class="fil0 str0" d="M30.864 8.6942l0 42.6116c0,1.2068 -0.9969,2.1942 -2.2154,2.1942l-17.2972 0c-1.2185,0 -2.2154,-0.9874 -2.2154,-2.1942l0 -42.6116c0,-1.2068 0.9969,-2.1942 2.2154,-2.1942l5.3605 0c0.9084,0 2.0585,-0.0069 2.3039,0.751 0.1782,0.5504 0.5359,0.7825 1.02,0.7825 0.489,0 0.8622,-0.2646 1.0372,-0.8242 0.1984,-0.6343 1.3021,-0.7093 2.0554,-0.7093l5.5202 0c1.2185,0 2.2154,0.9874 2.2154,2.1942z"/>
 </g>
</svg>
