<?xml version="1.0" encoding="UTF-8"?>
<!DOCTYPE svg PUBLIC "-//W3C//DTD SVG 1.1//EN" "http://www.w3.org/Graphics/SVG/1.1/DTD/svg11.dtd">
<!-- Creator: CorelDRAW X8 -->
<svg xmlns="http://www.w3.org/2000/svg" xml:space="preserve" width="40mm" height="60mm" version="1.1" style="shape-rendering:geometricPrecision; text-rendering:geometricPrecision; image-rendering:optimizeQuality; fill-rule:evenodd; clip-rule:evenodd"
viewBox="0 0 4000 6000"
 xmlns:xlink="http://www.w3.org/1999/xlink">
 <defs>
  <style type="text/css">
   <![CDATA[
    .fil0 {fill:#222222;fill-rule:nonzero}
   ]]>
  </style>
 </defs>
 <g id="图层_x0020_1">
  <metadata id="CorelCorpID_0Corel-Layer"/>
  <g>
   <path class="fil0" d="M1083 5360c-5,0 -10,-4 -10,-10 0,-6 5,-10 10,-10l0 20zm1741 0l-1741 0 0 -20 1741 0 0 0 0 20zm0 -20c6,0 10,4 10,10 0,6 -4,10 -10,10l0 -20zm214 -214l20 0 0 0 -1 12 -1 12 -1 12 -2 12 -3 11 -3 11 -4 11 -4 10 -4 11 -6 10 -5 10 -6 9 -7 9 -7 9 -7 8 -8 9 -8 7 -8 8 -9 7 -9 6 -10 6 -10 6 -10 5 -10 5 -11 4 -10 4 -12 3 -11 2 -11 2 -12 2 -12 1 -12 0 0 -20 11 0 11 -1 11 -1 10 -2 10 -3 11 -3 10 -3 9 -4 10 -4 9 -5 9 -5 9 -5 8 -6 8 -7 8 -6 7 -8 7 -7 7 -8 6 -8 6 -8 6 -9 5 -9 5 -9 4 -9 4 -10 3 -10 3 -10 2 -10 2 -11 2 -11 0 -11 1 -11 0 0zm0 0c0,-5 4,-10 10,-10 5,0 10,5 10,10l-20 0zm20 -4253l0 4253 -20 0 0 -4253 0 0 20 0zm-20 0c0,-5 4,-10 10,-10 5,0 10,5 10,10l-20 0zm-202 -213l0 -20 0 0 12 1 11 1 11 2 11 3 11 3 10 3 11 4 10 5 10 4 9 6 10 5 8 7 9 6 9 7 8 7 7 8 7 8 7 9 7 8 6 9 6 9 5 10 5 10 4 10 4 10 4 11 3 11 2 11 2 11 2 11 0 12 1 11 -20 0 -1 -10 0 -11 -2 -10 -1 -10 -3 -11 -2 -9 -4 -10 -3 -9 -4 -10 -5 -9 -4 -8 -6 -9 -5 -8 -6 -8 -7 -8 -6 -7 -7 -7 -8 -7 -7 -6 -8 -6 -8 -6 -9 -5 -9 -5 -9 -4 -9 -4 -9 -4 -10 -3 -10 -3 -10 -2 -10 -2 -10 -1 -11 -1 1 0zm-1 0c-5,0 -10,-5 -9,-11 0,-5 5,-9 10,-9l-1 20zm-248 -20l249 0 0 20 -249 0 0 0 0 -20zm0 20c-6,0 -10,-4 -10,-10 0,-6 4,-10 10,-10l0 20zm-1 1l-14 -14 0 0 0 0 0 -1 1 0 0 0 1 -1 0 0 0 0 1 -1 0 0 0 0 1 0 0 -1 1 0 0 0 0 0 1 0 0 -1 1 0 0 0 1 0 0 -1 1 0 0 0 0 0 1 0 1 0 0 -1 1 0 0 0 1 0 1 0 1 0 0 20 0 0 0 0 0 0 1 0 0 0 0 0 0 0 0 0 0 0 0 0 0 0 0 0 0 0 0 0 0 0 0 0 -1 0 0 0 0 0 0 0 0 0 0 0 0 1 0 0 0 0 0 0 -1 0 0 0 0 0 0 0 0 0 0 0 0 0zm0 0c-4,4 -10,4 -14,0 -4,-4 -4,-10 0,-14l14 14zm-23 10l0 -20 1 0 0 -1 0 0 0 0 1 0 0 0 0 0 1 0 0 0 0 0 1 0 0 0 0 0 0 0 1 0 0 0 0 -1 0 0 1 0 0 0 0 0 1 0 0 0 0 -1 0 0 1 0 0 0 0 0 0 0 0 -1 1 0 0 0 14 14 -1 1 0 0 -1 1 0 0 -1 1 -1 0 0 1 -1 0 -1 1 0 0 -1 0 -1 1 0 0 -1 0 -1 1 0 0 -1 0 -1 1 -1 0 0 0 -1 0 -1 1 -1 0 0 0 -1 0 -1 0 -1 0 -1 0 0 0 -1 0 -1 1 -1 0zm0 0c-5,0 -10,-5 -10,-10 0,-6 5,-10 10,-10l0 20zm-1359 4669c5,0 10,4 10,10 0,6 -5,10 -10,10l0 -20zm-28 0l28 0 0 20 -28 0 0 0 0 -20zm0 20c-6,0 -10,-4 -10,-10 0,-6 4,-10 10,-10l0 20zm-234 -234l20 0 0 0 1 11 0 11 2 11 2 11 2 10 3 10 3 10 4 10 4 9 5 9 5 9 6 9 6 8 6 8 7 8 7 7 7 8 8 6 8 7 9 6 8 5 9 5 9 5 10 4 9 4 10 3 11 3 10 3 10 2 11 1 11 1 11 0 0 20 -12 0 -12 -1 -12 -2 -11 -2 -11 -2 -12 -3 -10 -4 -11 -4 -10 -5 -10 -5 -10 -6 -10 -6 -9 -6 -9 -7 -8 -8 -8 -7 -8 -9 -7 -8 -7 -9 -7 -9 -6 -9 -5 -10 -6 -10 -4 -11 -4 -10 -4 -11 -3 -11 -3 -11 -2 -12 -1 -12 -1 -12 -1 -12 0 0zm0 0c0,-5 5,-10 10,-10 6,0 10,5 10,10l-20 0zm20 -4253l0 4253 -20 0 0 -4253 0 0 20 0zm-20 0c0,-5 5,-10 10,-10 6,0 10,5 10,10l-20 0zm222 -233l0 20 1 0 -11 1 -10 1 -10 2 -10 2 -10 3 -10 3 -9 4 -9 4 -9 4 -9 5 -9 5 -8 6 -8 6 -7 6 -8 7 -7 7 -6 7 -7 8 -6 8 -5 8 -6 9 -4 8 -5 9 -4 10 -3 9 -4 10 -2 9 -3 11 -1 10 -2 10 0 11 -1 10 -20 0 1 -11 0 -12 2 -11 2 -11 2 -11 3 -11 4 -11 4 -10 4 -10 5 -10 5 -10 6 -9 6 -9 7 -8 7 -9 7 -8 7 -8 8 -7 9 -7 9 -6 9 -7 9 -5 9 -6 10 -4 10 -5 11 -4 10 -3 11 -3 11 -3 11 -2 11 -1 12 -1 0 0zm0 0c5,0 10,4 10,9 1,6 -4,11 -9,11l-1 -20zm1289 20l-1289 0 0 -20 1289 0 0 20 0 0zm0 -20c6,0 10,4 10,10 0,6 -4,10 -10,10l0 -20zm15 7l-14 14 0 0 0 0 -1 0 0 0 0 0 0 0 0 -1 0 0 0 0 0 0 0 0 0 0 0 0 -1 0 0 0 0 0 0 0 0 0 0 0 0 0 0 0 0 0 0 0 0 0 0 0 0 0 0 0 1 0 0 0 0 0 0 0 0 0 0 0 0 -20 1 0 1 0 0 0 1 0 1 0 0 1 1 0 0 0 1 0 1 0 0 0 1 1 0 0 0 0 1 0 0 1 1 0 0 0 1 0 0 1 0 0 1 0 0 0 1 1 0 0 0 0 0 1 1 0 0 0 0 0 1 1 0 0 0 0zm0 0c4,4 4,10 0,14 -4,4 -10,4 -14,0l14 -14zm9 4l0 20 0 0 -1 0 -1 -1 -1 0 -1 0 0 0 -1 0 -1 0 -1 0 -1 0 0 0 -1 -1 -1 0 -1 0 0 0 -1 -1 -1 0 0 0 -1 -1 -1 0 -1 0 0 -1 -1 0 -1 0 0 -1 -1 0 -1 -1 0 0 -1 -1 0 0 -1 -1 -1 0 0 -1 14 -14 0 0 0 0 1 1 0 0 0 0 0 0 1 0 0 0 0 1 0 0 1 0 0 0 0 0 0 0 1 0 0 1 0 0 0 0 1 0 0 0 0 0 1 0 0 0 0 0 1 0 0 0 0 0 0 0 1 0 0 0 0 1 1 0 0 0zm0 0c5,0 10,4 10,10 0,5 -5,10 -10,10l0 -20zm86 20l-86 0 0 -20 86 0 0 20zm0 -20c6,0 10,4 10,10 0,5 -4,10 -10,10l0 -20zm-563 244l0 -20 0 0 4 0 3 -1 4 0 4 -1 3 -1 3 -1 4 -1 3 -1 3 -1 3 -2 3 -2 3 -2 3 -2 3 -2 2 -2 3 -2 2 -3 3 -3 2 -2 2 -3 2 -3 1 -3 2 -3 1 -3 2 -4 1 -3 1 -3 0 -4 1 -3 1 -4 0 -4 0 -3 20 0 0 4 -1 5 0 5 -1 4 -1 5 -1 4 -2 4 -1 4 -2 5 -2 4 -2 3 -3 4 -2 4 -3 3 -3 4 -3 3 -3 3 -3 3 -4 2 -4 3 -3 2 -4 3 -4 2 -4 1 -4 2 -5 2 -4 1 -4 1 -5 1 -5 0 -4 1 -5 0 0 0zm0 0c-6,0 -10,-5 -10,-10 0,-6 4,-10 10,-10l0 20zm-92 -92l20 0 0 0 0 3 0 4 1 4 1 3 0 4 1 3 1 3 2 4 1 3 2 3 1 3 2 3 2 3 2 2 3 3 2 3 3 2 2 2 3 2 3 2 3 2 3 2 3 2 3 1 3 1 4 1 3 1 3 1 4 1 4 0 3 1 4 0 0 20 -5 0 -4 -1 -5 0 -5 -1 -4 -1 -4 -1 -5 -2 -4 -2 -4 -1 -4 -2 -4 -3 -3 -2 -4 -3 -4 -2 -3 -3 -3 -3 -3 -3 -3 -4 -3 -3 -2 -4 -3 -4 -2 -3 -2 -4 -2 -5 -1 -4 -2 -4 -1 -4 -1 -5 -1 -4 0 -5 -1 -5 0 -4 0 0zm0 0c0,-6 5,-10 10,-10 6,0 10,4 10,10l-20 0zm92 -92l0 20 0 0 -4 0 -3 0 -4 1 -4 0 -3 1 -3 1 -4 1 -3 1 -3 2 -3 1 -3 2 -3 2 -3 2 -3 2 -2 2 -3 3 -2 2 -3 3 -2 3 -2 2 -2 3 -1 3 -2 3 -1 4 -2 3 -1 3 -1 4 0 3 -1 4 -1 3 0 4 0 4 -20 0 0 -5 1 -5 0 -4 1 -5 1 -4 1 -5 2 -4 1 -4 2 -4 2 -4 2 -4 3 -4 2 -3 3 -4 3 -3 3 -3 3 -3 3 -3 4 -3 4 -3 3 -2 4 -2 4 -2 4 -2 4 -2 5 -1 4 -1 4 -1 5 -1 5 -1 4 0 5 0 0 0zm0 0c6,0 10,4 10,10 0,5 -4,10 -10,10l0 -20zm92 92l-20 0 0 0 0 -4 0 -4 -1 -3 -1 -4 0 -3 -1 -4 -1 -3 -2 -3 -1 -4 -2 -3 -1 -3 -2 -3 -2 -2 -2 -3 -3 -3 -2 -2 -3 -3 -2 -2 -3 -2 -3 -2 -3 -2 -3 -2 -3 -1 -3 -2 -3 -1 -4 -1 -3 -1 -3 -1 -4 0 -4 -1 -3 0 -4 0 0 -20 5 0 4 0 5 1 5 1 4 1 4 1 5 1 4 2 4 2 4 2 4 2 3 2 4 3 4 3 3 3 3 3 3 3 3 3 3 4 2 3 3 4 2 4 2 4 2 4 1 4 2 4 1 5 1 4 1 5 0 4 1 5 0 5 0 0zm0 0c0,5 -5,10 -10,10 -6,0 -10,-5 -10,-10l20 0z"/>
  </g>
 </g>
</svg>
