<?xml version="1.0" encoding="UTF-8"?>
<!DOCTYPE svg PUBLIC "-//W3C//DTD SVG 1.1//EN" "http://www.w3.org/Graphics/SVG/1.1/DTD/svg11.dtd">
<!-- Creator: CorelDRAW X8 -->
<svg xmlns="http://www.w3.org/2000/svg" xml:space="preserve" width="40mm" height="60mm" version="1.1" style="shape-rendering:geometricPrecision; text-rendering:geometricPrecision; image-rendering:optimizeQuality; fill-rule:evenodd; clip-rule:evenodd"
viewBox="0 0 4000 6000"
 xmlns:xlink="http://www.w3.org/1999/xlink">
 <defs>
  <style type="text/css">
   <![CDATA[
    .str0 {stroke:black;stroke-width:7.62}
    .fil0 {fill:none}
   ]]>
  </style>
 </defs>
 <g id="图层_x0020_1">
  <metadata id="CorelCorpID_0Corel-Layer"/>
  <path class="fil0 str0" d="M-18465 3986c-30,2 -58,29 -62,83 0,193 157,350 350,350 193,0 350,-157 350,-350 0,-193 -157,-350 -350,-350 -193,0 -350,157 -350,350m-635 20c0,-539 437,-975 975,-975 539,0 975,436 975,975 0,538 -436,975 -975,975 -538,0 -975,-437 -975,-975zm1247 -1091c5,-10 9,-20 16,-20l1933 0c33,0 11,46 -22,55 -427,150 -744,557 -744,1036 0,479 317,886 744,1036 12,3 3,29 -13,29l-1889 0c259,0 838,-491 831,-1065 -7,-574 -362,-964 -856,-1071zm1413 1004c-27,2 -53,26 -57,77 0,179 146,325 325,325 180,0 325,-146 325,-325 0,-180 -145,-325 -325,-325 -179,0 -325,145 -325,325m695 606c-25,2 -48,24 -51,69 0,160 130,290 290,290 160,0 290,-130 290,-290 0,-161 -130,-290 -290,-290 -160,0 -290,129 -290,290m627 -765c-27,2 -53,26 -57,77 0,179 146,325 325,325 180,0 325,-146 325,-325 0,-180 -145,-325 -325,-325 -179,0 -325,145 -325,325m-513 -753c-24,1 -47,23 -51,68 0,160 130,290 290,290 161,0 290,-130 290,-290 0,-160 -129,-290 -290,-290 -160,0 -290,130 -290,290m-699 692c0,-553 447,-1000 1000,-1000 552,0 1000,447 1000,1000 0,552 -448,1000 -1000,1000 -553,0 -1000,-448 -1000,-1000zm-2814 -29l0 0c0,-694 568,-1261 1262,-1261l2581 0c694,0 1262,567 1262,1261l0 0c0,694 -568,1262 -1262,1262l-2581 0c-694,0 -1262,-568 -1262,-1262zm15585 1818l0 -6641c0,-356 -292,-647 -648,-647l-14605 0c-356,0 -647,291 -647,647l0 6205c0,356 291,648 647,648l3099 0c16,0 23,-4 36,-14l150 -119c28,-19 49,-30 91,-30l3720 0c30,0 37,2 62,21l151 116c34,26 46,26 95,26l7201 0c356,0 648,-292 648,-648l0 -430"/>
  <path class="fil0 str0" d="M1509 1026c-1,-9 -9,-17 -25,-18 -57,0 -103,46 -103,103 0,57 46,104 103,104 57,0 104,-47 104,-104 0,-57 -47,-103 -104,-103m-6 -188c159,0 288,129 288,288 0,159 -129,289 -288,289 -159,0 -288,-130 -288,-289 0,-159 129,-288 288,-288zm323 369c3,1 6,2 6,5l0 571c0,9 -14,3 -17,-7 -44,-126 -164,-220 -306,-220 -141,0 -262,94 -306,220 -1,4 -9,1 -9,-4l0 -558c0,77 145,248 315,246 170,-2 285,-107 317,-253zm-297 418c-1,-9 -8,-16 -23,-17 -53,0 -96,43 -96,96 0,53 43,96 96,96 53,0 96,-43 96,-96 0,-53 -43,-96 -96,-96m-179 205c-1,-7 -7,-14 -20,-15 -48,0 -86,38 -86,86 0,47 38,85 86,85 47,0 85,-38 85,-85 0,-48 -38,-86 -85,-86m226 185c-1,-8 -8,-15 -23,-17 -53,0 -96,43 -96,96 0,54 43,97 96,97 53,0 96,-43 96,-97 0,-53 -43,-96 -96,-96m223 -151c-1,-7 -7,-14 -21,-15 -47,0 -85,38 -85,85 0,48 38,86 85,86 48,0 86,-38 86,-86 0,-47 -38,-85 -86,-85m-204 -207c163,0 296,132 296,295 0,164 -133,296 -296,296 -163,0 -296,-132 -296,-296 0,-163 133,-295 296,-295zm8 -832l0 0c206,0 373,168 373,373l0 763c0,205 -167,373 -373,373l0 0c-205,0 -373,-168 -373,-373l0 -763c0,-205 168,-373 373,-373zm-537 4607l1963 0c105,0 191,-86 191,-191l0 -4318c0,-105 -86,-191 -191,-191l-1834 0c-105,0 -191,86 -191,191l0 916c0,5 1,7 4,11l35 44c5,9 9,15 9,27l0 1100c0,9 -1,11 -7,18l-34 45c-8,10 -7,13 -7,28l0 2129c0,105 86,191 191,191l127 0"/>
 </g>
</svg>
