<?xml version="1.0" encoding="UTF-8"?>
<!DOCTYPE svg PUBLIC "-//W3C//DTD SVG 1.1//EN" "http://www.w3.org/Graphics/SVG/1.1/DTD/svg11.dtd">
<!-- Creator: CorelDRAW 2020 (64-Bit) -->
<svg xmlns="http://www.w3.org/2000/svg" xml:space="preserve" width="40mm" height="60mm" version="1.1" style="shape-rendering:geometricPrecision; text-rendering:geometricPrecision; image-rendering:optimizeQuality; fill-rule:evenodd; clip-rule:evenodd"
viewBox="0 0 4000 6000"
 xmlns:xlink="http://www.w3.org/1999/xlink"
 xmlns:xodm="http://www.corel.com/coreldraw/odm/2003">
 <defs>
  <style type="text/css">
   <![CDATA[
    .str0 {stroke:black;stroke-width:7.62;stroke-miterlimit:22.9256}
    .fil0 {fill:none}
   ]]>
  </style>
 </defs>
 <g id="图层_x0020_1">
  <metadata id="CorelCorpID_0Corel-Layer"/>
  <path class="fil0 str0" d="M2023.26 782.87c3.49,-22.42 -15.37,-38.14 -24.72,-38.86 -33.29,0 -60.27,26.98 -60.27,60.26 0,33.28 26.98,60.26 60.27,60.26 33.28,0 60.26,-26.98 60.26,-60.26 0,-33.28 -26.98,-60.26 -60.26,-60.26m-958.83 4582.06l1813.68 0c105.38,0 191.61,-86.22 191.61,-191.6l0 -4287.19c0,-105.39 -86.23,-191.61 -191.61,-191.61l-1719.98 0c-105.38,0 -191.61,86.22 -191.61,191.61l0 4287.19c0,105.38 86.23,191.6 191.61,191.6l50.8 0c66.26,0 101.89,13.79 107.62,29.6"/>
 </g>
</svg>
