<?xml version="1.0" encoding="UTF-8"?>
<!DOCTYPE svg PUBLIC "-//W3C//DTD SVG 1.1//EN" "http://www.w3.org/Graphics/SVG/1.1/DTD/svg11.dtd">
<!-- Creator: CorelDRAW 2020 (64-Bit) -->
<svg xmlns="http://www.w3.org/2000/svg" xml:space="preserve" width="40mm" height="60mm" version="1.1" style="shape-rendering:geometricPrecision; text-rendering:geometricPrecision; image-rendering:optimizeQuality; fill-rule:evenodd; clip-rule:evenodd"
viewBox="0 0 4000 6000"
 xmlns:xlink="http://www.w3.org/1999/xlink"
 xmlns:xodm="http://www.corel.com/coreldraw/odm/2003">
 <defs>
  <style type="text/css">
   <![CDATA[
    .str0 {stroke:#332C2B;stroke-width:20;stroke-miterlimit:22.9256}
    .fil0 {fill:none}
   ]]>
  </style>
 </defs>
 <g id="图层_x0020_1">
  <metadata id="CorelCorpID_0Corel-Layer"/>
  <path class="fil0 str0" d="M-3660.58 6772.22l-0.08 -698.33 67.05 0c384.99,0 700,-315.01 700,-700l0 -6050.68c0,-384.98 -315.03,-700 -700,-700l-66.98 0 0.01 -560.4c0,-54.97 -45.03,-100 -100.01,-100l-10882.07 0c-46.93,0 -104.29,29.13 -104.29,109.91l0 271.13c0,32.58 -26.65,59.22 -59.22,59.22l-2049.03 0c-32.57,0 -59.22,-26.65 -59.22,-59.22l0 -291.64c0,-23.54 -30.56,-89.4 -99.99,-89.4l-998.18 0c-54.99,0 -100.01,45 -100.01,100l-0.01 560.4 -66.08 0c-385.01,0 -700,315 -700,700l0 6050.68c0,385 314.99,700 700,700l66.05 0 0.04 560.4c0,55 45,100 100.01,100l2524.27 0c47.39,0 97.9,-71.46 97.9,-109.81l0 -255.06c0,-27.46 22.5,-50 50,-50l2202.93 0c27.5,0 50,22.5 50,50l0 276.17c0,57.6 71.63,88.7 103.13,88.7l389.93 0c82.3,0 108.08,-63.56 108.08,-96.97l0 -267.9c0,-27.48 22.5,-50 50,-50l1728.8 0c27.5,0 50,22.5 50,50l0 262.94c0,70.17 60.84,101.93 116.69,101.93l6780.27 0c55.01,0 100.01,-45.02 100.01,-100 0,-54.98 14.58,-141.36 48.31,-185.02"/>
  <path class="fil0 str0" d="M-18438.43 5159.02c0,275 225,500 500,500l2953.94 0c275,0 500,-225 500,-500l0 -1057.4c0,-275 -225,-500 -500,-500l-2953.94 0c-275,0 -500,225 -500,500l0 1057.4c0,0 7.46,-824.08 232.36,-985.48"/>
  <g id="_1923718214496">
   <path class="fil0 str0" d="M698.31 5130.16l205.33 -0.02 0 19.71c0,113.2 92.62,205.82 205.81,205.82l1779.05 0c113.19,0 205.82,-92.63 205.82,-205.82l0 -19.69 164.77 0c16.16,0 29.4,-13.24 29.4,-29.4l0 -3199.59c0,-13.8 -8.56,-30.67 -32.31,-30.67l-79.72 0c-9.58,0 -17.42,-7.83 -17.42,-17.41l0 -602.46c0,-9.58 7.84,-17.42 17.42,-17.42l85.75 0c6.92,0 26.28,-8.98 26.28,-29.4l0 -293.49c0,-16.16 -13.23,-29.4 -29.4,-29.4l-164.77 0 0 -19.43c0,-113.21 -92.62,-205.82 -205.82,-205.82l-1779.05 0c-113.19,0 -205.81,92.61 -205.81,205.82l0 19.42 -164.77 0.01c-16.18,0 -29.41,13.23 -29.41,29.4l0 742.2c0,13.93 21.01,28.79 32.29,28.79l74.99 0c8.08,0 14.71,6.61 14.71,14.7l0 647.71c0,8.09 -6.62,14.7 -14.71,14.7l-81.2 0c-16.93,0 -26.08,21.06 -26.08,30.33l0 114.64c0,24.2 18.69,31.78 28.52,31.78l78.76 0c8.08,0 14.71,6.62 14.71,14.7l0 508.31c0,8.09 -6.62,14.7 -14.71,14.7l-77.31 0c-20.63,0 -29.97,17.89 -29.97,34.31l0 1993.57c0,16.17 13.24,29.4 29.41,29.4 16.16,0 41.56,4.29 54.4,14.21"/>
   <path class="fil0 str0" d="M1172.63 785.12c-80.86,0 -147.01,66.15 -147.01,147.01l0 868.53c0,80.86 66.15,147.01 147.01,147.01l310.9 0c80.86,0 147.01,-66.15 147.01,-147.01l0 -868.53c0,-80.86 -66.15,-147.01 -147.01,-147.01l-310.9 0c0,0 242.3,2.19 289.76,68.32"/>
  </g>
 </g>
</svg>
