<?xml version="1.0" encoding="UTF-8"?>
<!DOCTYPE svg PUBLIC "-//W3C//DTD SVG 1.1//EN" "http://www.w3.org/Graphics/SVG/1.1/DTD/svg11.dtd">
<!-- Creator: CorelDRAW X8 -->
<svg xmlns="http://www.w3.org/2000/svg" xml:space="preserve" width="40mm" height="60mm" version="1.1" style="shape-rendering:geometricPrecision; text-rendering:geometricPrecision; image-rendering:optimizeQuality; fill-rule:evenodd; clip-rule:evenodd"
viewBox="0 0 4000 6000"
 xmlns:xlink="http://www.w3.org/1999/xlink">
 <defs>
  <style type="text/css">
   <![CDATA[
    .str0 {stroke:black;stroke-width:7.62;stroke-linejoin:bevel}
    .fil0 {fill:none}
   ]]>
  </style>
 </defs>
 <g id="图层_x0020_1">
  <metadata id="CorelCorpID_0Corel-Layer"/>
  <path class="fil0 str0" d="M3238 4310l-144 0 -837 0c-33,0 -66,7 -97,21 -3,2 -5,4 -7,8 -1,3 -1,7 1,10l15 32c7,14 4,29 -5,40 -10,11 -26,16 -40,11l-43 -15c-7,-2 -13,0 -16,6 -14,29 -21,61 -21,93l0 629c0,31 7,62 20,91 2,3 5,6 8,7 3,1 7,1 10,-1l32 -16c13,-6 29,-4 40,5 11,10 16,25 11,39l-13 42c-2,7 1,14 7,16 31,15 64,22 98,22l844 0c33,0 66,-7 97,-21 3,-1 5,-4 6,-8 2,-3 1,-6 0,-10l-16 -32c-6,-13 -4,-29 6,-40 10,-11 25,-15 39,-11l44 15c6,3 13,0 16,-6 14,-29 21,-61 21,-92l0 -629c0,-32 -7,-63 -21,-92 -1,-3 -4,-5 -7,-7 -3,-1 -7,0 -10,1l-32 16c-14,7 -29,5 -40,-5 -11,-10 -16,-25 -11,-39l13 -42c2,-6 -1,-13 -7,-16 -29,-14 -61,-21 -94,-22 -1,0 -3,0 -4,0m-1221 0l-143 0 -838 0c-33,0 -66,7 -96,21 -4,2 -6,4 -7,8 -2,3 -1,7 0,10l16 32c6,14 4,29 -6,40 -10,11 -25,16 -39,11l-44 -15c-6,-2 -13,0 -16,6 -14,29 -21,61 -21,93l0 629c0,31 7,62 21,91 1,3 4,6 7,7 3,1 7,1 10,-1l32 -16c14,-6 29,-4 40,5 11,10 16,25 11,39l-13 42c-2,7 1,14 7,16 31,15 64,22 98,22l844 0c34,0 66,-7 97,-21 3,-1 6,-4 7,-8 1,-3 1,-6 -1,-10l-15 -32c-7,-13 -4,-29 5,-40 10,-11 26,-15 40,-11l43 15c7,3 13,0 16,-6 14,-29 21,-61 21,-92l0 -629c0,-32 -7,-63 -20,-92 -2,-3 -5,-5 -8,-7 -3,-1 -7,0 -10,1l-32 16c-13,7 -29,5 -40,-5 -11,-10 -16,-25 -11,-39l13 -42c2,-6 -1,-13 -7,-16 -29,-14 -61,-21 -94,-22 -1,0 -2,0 -4,0m1495 -1195l-144 0 -837 0c-33,0 -66,7 -97,21 -3,1 -5,4 -7,7 -1,3 -1,7 1,10l15 33c7,13 4,29 -5,40 -10,11 -26,15 -40,10l-43 -15c-7,-2 -13,1 -16,7 -14,29 -21,60 -21,92l0 629c0,31 7,63 20,91 2,3 5,6 8,7 3,1 7,1 10,-1l32 -15c13,-7 29,-5 40,5 11,9 16,24 11,38l-13 43c-2,6 1,13 7,16 31,14 64,21 98,21l844 0c33,0 66,-7 97,-21 3,-1 5,-4 6,-7 2,-4 1,-7 0,-10l-16 -33c-6,-13 -4,-29 6,-40 10,-11 25,-15 39,-10l44 15c6,2 13,-1 16,-7 14,-29 21,-60 21,-92l0 -629c0,-32 -7,-63 -21,-91 -1,-4 -4,-6 -7,-7 -3,-1 -7,-1 -10,0l-32 16c-14,7 -29,5 -40,-5 -11,-9 -16,-24 -11,-39l13 -42c2,-6 -1,-13 -7,-16 -29,-13 -61,-21 -94,-21 -1,0 -3,0 -4,0m137 -1231l-144 0 -837 0c-33,0 -66,7 -97,21 -3,1 -5,4 -7,7 -1,4 -1,7 1,10l15 33c7,13 4,29 -5,40 -10,11 -26,15 -40,10l-43 -15c-7,-2 -13,1 -16,7 -14,29 -21,60 -21,92l0 629c0,32 7,63 20,91 2,4 5,6 8,7 3,1 7,1 10,0l32 -16c13,-7 29,-5 40,5 11,9 16,25 11,39l-13 42c-2,6 1,13 7,16 31,14 64,22 98,22l844 0c33,0 66,-8 97,-22 3,-1 5,-4 6,-7 2,-3 1,-7 0,-10l-16 -33c-6,-13 -4,-29 6,-40 10,-11 25,-15 39,-10l44 15c6,2 13,-1 16,-7 14,-28 21,-60 21,-92l0 -629c0,-31 -7,-63 -21,-91 -1,-3 -4,-6 -7,-7 -3,-1 -7,-1 -10,1l-32 15c-14,7 -29,5 -40,-5 -11,-9 -16,-24 -11,-38l13 -43c2,-6 -1,-13 -7,-16 -29,-13 -61,-21 -94,-21 -1,0 -3,0 -4,0m137 -1234l-144 0 -837 0c-33,0 -66,7 -97,21 -3,2 -5,4 -7,8 -1,3 -1,7 1,10l15 32c7,13 4,29 -5,40 -10,11 -26,15 -40,11l-43 -15c-7,-3 -13,0 -16,6 -14,29 -21,61 -21,93l0 628c0,32 7,63 20,92 2,3 5,5 8,7 3,1 7,0 10,-1l32 -16c13,-7 29,-4 40,5 11,10 16,25 11,39l-13 42c-2,6 1,13 7,16 31,14 64,22 98,22l844 0c33,0 66,-7 97,-21 3,-2 5,-4 6,-8 2,-3 1,-7 0,-10l-16 -32c-6,-14 -4,-29 6,-40 10,-11 25,-16 39,-11l44 15c6,2 13,0 16,-6 14,-29 21,-61 21,-93l0 -628c0,-32 -7,-63 -21,-92 -1,-3 -4,-6 -7,-7 -3,-1 -7,-1 -10,1l-32 16c-14,6 -29,4 -40,-5 -11,-10 -16,-25 -11,-39l13 -42c2,-7 -1,-14 -7,-16 -29,-14 -61,-21 -94,-22 -1,0 -3,0 -4,0m-1221 2465l-143 0 -838 0c-33,0 -66,7 -96,21 -4,1 -6,4 -7,7 -2,3 -1,7 0,10l16 33c6,13 4,29 -6,40 -10,11 -25,15 -39,10l-44 -15c-6,-2 -13,1 -16,7 -14,29 -21,60 -21,92l0 629c0,31 7,63 21,91 1,3 4,6 7,7 3,1 7,1 10,-1l32 -15c14,-7 29,-5 40,5 11,9 16,24 11,38l-13 43c-2,6 1,13 7,16 31,14 64,21 98,21l844 0c34,0 66,-7 97,-21 3,-1 6,-4 7,-7 1,-4 1,-7 -1,-10l-15 -33c-7,-13 -4,-29 5,-40 10,-11 26,-15 40,-10l43 15c7,2 13,-1 16,-7 14,-29 21,-60 21,-92l0 -629c0,-32 -7,-63 -20,-91 -2,-4 -5,-6 -8,-7 -3,-1 -7,-1 -10,0l-32 16c-13,7 -29,5 -40,-5 -11,-9 -16,-24 -11,-39l13 -42c2,-6 -1,-13 -7,-16 -29,-13 -61,-21 -94,-21 -1,0 -2,0 -4,0m137 -1231l-143 0 -838 0c-33,0 -66,7 -96,21 -4,1 -6,4 -7,7 -2,4 -1,7 0,10l16 33c6,13 4,29 -6,40 -10,11 -25,15 -39,10l-44 -15c-6,-2 -13,1 -16,7 -14,29 -21,60 -21,92l0 629c0,32 7,63 21,91 1,4 4,6 7,7 3,1 7,1 10,0l32 -16c14,-7 29,-5 40,5 11,9 16,25 11,39l-13 42c-2,6 1,13 7,16 31,14 64,22 98,22l844 0c34,0 66,-8 97,-22 3,-1 6,-4 7,-7 1,-3 1,-7 -1,-10l-15 -33c-7,-13 -4,-29 5,-40 10,-11 26,-15 40,-10l43 15c7,2 13,-1 16,-7 14,-28 21,-60 21,-92l0 -629c0,-31 -7,-63 -20,-91 -2,-3 -5,-6 -8,-7 -3,-1 -7,-1 -10,1l-32 15c-13,7 -29,5 -40,-5 -11,-9 -16,-24 -11,-38l13 -43c2,-6 -1,-13 -7,-16 -29,-13 -61,-21 -94,-21 -1,0 -2,0 -4,0m137 -1234l-143 0 -838 0c-33,0 -66,7 -96,21 -4,2 -6,4 -7,8 -2,3 -1,7 0,10l16 32c6,13 4,29 -6,40 -10,11 -25,15 -39,11l-44 -15c-6,-3 -13,0 -16,6 -14,29 -21,61 -21,93l0 628c0,32 7,63 21,92 1,3 4,5 7,7 3,1 7,0 10,-1l32 -16c14,-7 29,-4 40,5 11,10 16,25 11,39l-13 42c-2,6 1,13 7,16 31,14 64,22 98,22l844 0c34,0 66,-7 97,-21 3,-2 6,-4 7,-8 1,-3 1,-7 -1,-10l-15 -32c-7,-14 -4,-29 5,-40 10,-11 26,-16 40,-11l43 15c7,2 13,0 16,-6 14,-29 21,-61 21,-93l0 -628c0,-32 -7,-63 -20,-92 -2,-3 -5,-6 -8,-7 -3,-1 -7,-1 -10,1l-32 16c-13,6 -29,4 -40,-5 -11,-10 -16,-25 -11,-39l13 -42c2,-7 -1,-14 -7,-16 -29,-14 -61,-21 -94,-22 -1,0 -2,0 -4,0"/>
 </g>
</svg>
