<?xml version="1.0" encoding="UTF-8"?>
<!DOCTYPE svg PUBLIC "-//W3C//DTD SVG 1.1//EN" "http://www.w3.org/Graphics/SVG/1.1/DTD/svg11.dtd">
<!-- Creator: CorelDRAW X8 -->
<svg xmlns="http://www.w3.org/2000/svg" xml:space="preserve" width="40mm" height="60mm" version="1.1" style="shape-rendering:geometricPrecision; text-rendering:geometricPrecision; image-rendering:optimizeQuality; fill-rule:evenodd; clip-rule:evenodd"
viewBox="0 0 4000 6000"
 xmlns:xlink="http://www.w3.org/1999/xlink">
 <defs>
  <style type="text/css">
   <![CDATA[
    .str0 {stroke:#332C2B;stroke-width:7.62}
    .fil0 {fill:none}
   ]]>
  </style>
 </defs>
 <g id="图层_x0020_1">
  <metadata id="CorelCorpID_0Corel-Layer"/>
  <path class="fil0 str0" d="M1139 972l1723 0c79,0 143,64 143,143l0 3793c0,78 -64,143 -143,143l-1723 0c-79,0 -143,-65 -143,-143l0 -3793c0,-79 64,-143 143,-143zm-130 -200l2003 0c-46,44 -45,90 0,136l-2003 0 0 -136zm561 51c10,0 18,8 18,19 0,10 -8,18 -18,18 -11,0 -19,-8 -19,-18 0,-11 8,-19 19,-19zm1494 -173c42,37 88,42 138,0l0 4692 -138 0 0 -4692zm72 898l0 0c20,0 36,16 36,36l0 595c0,20 -16,36 -36,36l0 0c-20,0 -36,-16 -36,-36l0 -595c0,-20 16,-36 36,-36zm-1868 3566l1485 0 0 137 -1485 0 0 -137zm638 19l218 0c15,0 27,12 27,27l0 42c0,15 -12,27 -27,27l-218 0c-15,0 -27,-12 -27,-27l0 -42c0,-15 12,-27 27,-27zm-463 14l259 0c20,0 37,17 37,37l0 0c0,20 -17,37 -37,37l-259 0c-20,0 -37,-17 -37,-37l0 0c0,-20 17,-37 37,-37zm888 -1l250 0c23,0 41,19 41,41l0 0c0,22 -18,40 -41,40l-250 0c-22,0 -40,-18 -40,-40l0 0c0,-22 18,-41 40,-41zm-1533 -3863l145 0 0 4067 -145 0 0 -4067zm73 352l0 0c18,0 33,15 33,33l0 551c0,19 -15,33 -33,33l0 0c-19,0 -34,-14 -34,-33l0 -551c0,-18 15,-33 34,-33zm349 -607l0 0c31,0 56,25 56,55l0 93c0,30 -25,55 -56,55l0 0c-30,0 -55,-25 -55,-55l0 -93c0,-30 25,-55 55,-55zm781 647c92,0 168,75 168,167 0,93 -76,168 -168,168 -93,0 -168,-75 -168,-168 0,-92 75,-167 168,-167zm-558 -664c65,0 117,53 117,118 0,65 -52,117 -117,117 -65,0 -117,-52 -117,-117 0,-65 52,-118 117,-118z"/>
 </g>
</svg>
