<?xml version="1.0" encoding="UTF-8"?>
<!DOCTYPE svg PUBLIC "-//W3C//DTD SVG 1.1//EN" "http://www.w3.org/Graphics/SVG/1.1/DTD/svg11.dtd">
<!-- Creator: CorelDRAW 2021 (64-Bit) -->
<svg xmlns="http://www.w3.org/2000/svg" xml:space="preserve" width="40mm" height="60mm" version="1.1" style="shape-rendering:geometricPrecision; text-rendering:geometricPrecision; image-rendering:optimizeQuality; fill-rule:evenodd; clip-rule:evenodd"
viewBox="0 0 4000 6000"
 xmlns:xlink="http://www.w3.org/1999/xlink"
 xmlns:xodm="http://www.corel.com/coreldraw/odm/2003">
 <defs>
  <style type="text/css">
   <![CDATA[
    .str0 {stroke:#373435;stroke-width:7.06;stroke-miterlimit:22.9256}
    .str2 {stroke:#373435;stroke-width:35.56;stroke-miterlimit:22.9256}
    .str1 {stroke:black;stroke-width:7.06;stroke-linecap:round;stroke-linejoin:round;stroke-miterlimit:22.9256}
    .str3 {stroke:black;stroke-width:20;stroke-linecap:round;stroke-linejoin:round;stroke-miterlimit:22.9256}
    .fil0 {fill:none}
   ]]>
  </style>
 </defs>
 <g id="图层_x0020_1">
  <metadata id="CorelCorpID_0Corel-Layer"/>
  <g id="_1951794167536">
   <path class="fil0 str0" d="M3035.41 4697.62l-247.96 0c-41.5,124.5 -85.14,140.83 -209.46,165.11l-1.16 142.94 -119.02 0c8.47,-63.58 12.57,-123.28 -63.6,-138.86 -75.58,15.82 -71.42,75.74 -63.01,138.86l-101.51 0 0 -65.34c-6.06,-28.26 -13.19,-36.86 -42.01,-42.01l-2.92 0c-28.17,5.03 -36.97,13.83 -42,42.01l0 65.34 -108.52 0 0 -102.1 -5.84 -15.17 -14.58 -5.83 -184.95 0 -14.59 5.83 -6.41 15.17 0 102.1 -187.28 0 0 -82.85 -6.42 -16.33 -16.92 -7 -217.04 0 -16.92 7 -6.41 16.33 0 82.85 -96.27 0 0.58 -142.94c-126.6,-24.35 -165.09,-38.32 -208.87,-163.94l-100.93 -2.34 0 -1891.48 66.51 0 16.34 -7 7 -16.34 0 -292.3 -7 -16.33 -16.34 -7 -66.51 0 0 -1153.45 100.93 1.17c39.72,-126.71 83.71,-139.7 208.87,-165.11l0 -142.94 1315.64 0 0.58 142.94c121.46,12.32 170.2,48.65 210.04,164.53l99.18 0.58 0 113.19 -50.76 0 -25.09 9.92 -9.91 25.08 0 389.73 9.91 23.92 25.09 11.09 50.76 0 0 330.22 -64.76 0 -16.92 7 -6.42 16.34 0 234.54 6.42 16.33 16.92 7.01 64.76 0 0 29.75 -68.85 0 -16.33 7 -7 16.34 0 216.45 7 16.92 16.33 6.42 68.85 0 0 2049.37"/>
   <path class="fil0 str0" d="M1704.02 1313.72l-347.73 0c-62.82,7.18 -93.42,39.13 -100.35,101.52l0 654.61c7.21,63.1 36.84,94.26 100.35,101.52l347.73 0c63.85,-7.52 92.54,-38.32 99.76,-101.52l0 -654.61c-6.94,-62.5 -36.61,-94.09 -99.76,-101.52z"/>
   <path class="fil0 str0" d="M1685.35 1338.23l-314.47 0c-56.24,5.27 -87.5,36.59 -92.77,92.76l0 621.36c5.29,56.41 36.23,88.05 92.77,93.35l314.47 0c54.86,-5.15 89.27,-37.47 92.76,-93.35l0 -621.36c-3.48,-55.63 -38.18,-87.64 -92.76,-92.76z"/>
   <path class="fil0 str1" d="M1403.55 1382.28c45.11,0 81.68,36.57 81.68,81.68 0,45.11 -36.57,81.68 -81.68,81.68 -45.11,0 -81.68,-36.57 -81.68,-81.68 0,-45.11 36.57,-81.68 81.68,-81.68z"/>
   <path class="fil0 str1" d="M1403.55 1657.84c45.11,0 81.68,36.57 81.68,81.68 0,45.11 -36.57,81.68 -81.68,81.68 -45.11,0 -81.68,-36.57 -81.68,-81.68 0,-45.11 36.57,-81.68 81.68,-81.68z"/>
   <path class="fil0 str1" d="M1403.55 1657.17c45.11,0 81.68,36.57 81.68,81.68 0,45.11 -36.57,81.68 -81.68,81.68 -45.11,0 -81.68,-36.57 -81.68,-81.68 0,-45.11 36.57,-81.68 81.68,-81.68z"/>
   <path class="fil0 str1" d="M1403.55 1940.05c45.11,0 81.68,36.57 81.68,81.68 0,45.11 -36.57,81.68 -81.68,81.68 -45.11,0 -81.68,-36.57 -81.68,-81.68 0,-45.11 36.57,-81.68 81.68,-81.68z"/>
   <path class="fil0 str1" d="M1669.89 1963.38c32.22,0 58.34,26.12 58.34,58.35 0,32.22 -26.12,58.34 -58.34,58.34 -32.23,0 -58.35,-26.12 -58.35,-58.34 0,-32.23 26.12,-58.35 58.35,-58.35z"/>
  </g>
  <path class="fil0 str2" d="M-22401.03 -619.45l0 1062.53c533.5,177.83 603.46,364.83 707.5,897.5l612.5 5 0 510c-272.44,-36.32 -528.25,-53.85 -595,272.5 67.79,323.89 324.52,306.06 595,270l0 435 -280 0c-121.08,25.95 -157.94,56.49 -180,180l0 12.5c21.56,120.74 59.26,158.44 180,180l280 0 0 465 -437.5 0 -65 25 -25 62.5 0 792.5 25 62.5 65 27.5 437.5 0 0 802.5 -355 0 -70 27.5 -30 72.5 0 930 30 72.5 70 27.5 355 0 0 412.5 -612.5 -2.5c-104.32,542.49 -164.21,707.41 -702.5,895l-10 432.5 -8105 0 0 -285 -30 -70 -70 -30 -1252.5 0 -70 30 -30 70 0 285 -4942.5 0 5 -432.5c-542.96,-170.18 -598.63,-358.69 -707.5,-895l-612.5 0 0 -5637.5 612.5 -2.5c52.8,-520.46 208.47,-729.32 705,-900l2.5 -425 485 0 0 217.5 42.5 107.5 107.5 42.5 1670 0 102.5 -42.5 47.5 -107.5 0 -217.5 1415 0 0 277.5 30 72.5 70 27.5 1005 0 70 -27.5 30 -72.5 0 -277.5 127.5 0 0 295 30 70 70 30 927.5 0 72.5 -30 27.5 -70 0 -295 8781.54 0"/>
  <path class="fil0 str2" d="M-36901.02 5085.58l0 1490c30.77,269.21 167.66,400.3 435,430l2805 0c270.38,-30.9 403.9,-157.84 435,-430l0 -1490c-32.19,-273.6 -164.19,-396.55 -435,-427.5l-2805 0c-267.8,29.76 -403.16,156.9 -435,427.5z"/>
  <path class="fil0 str2" d="M-36796.02 5165.58l0 1347.5c22.59,240.99 156.78,374.93 397.5,397.5l2662.5 0c241.72,-22.66 377.29,-155.23 400,-397.5l0 -1347.5c-22.04,-235.11 -160.56,-382.53 -400,-397.5l-2662.5 0c-238.37,14.9 -375.57,163.59 -397.5,397.5z"/>
  <path class="fil0 str3" d="M-36607.27 6373.08c0,-193.3 156.7,-350 350,-350 193.3,0 350,156.7 350,350 0,193.3 -156.7,350 -350,350 -193.3,0 -350,-156.7 -350,-350z"/>
  <path class="fil0 str3" d="M-35426.47 6373.08c0,-193.3 156.7,-350 350,-350 193.3,0 350,156.7 350,350 0,193.3 -156.7,350 -350,350 -193.3,0 -350,-156.7 -350,-350z"/>
  <path class="fil0 str3" d="M-35429.34 6373.08c0,-193.3 156.7,-350 350,-350 193.3,0 350,156.7 350,350 0,193.3 -156.7,350 -350,350 -193.3,0 -350,-156.7 -350,-350z"/>
  <path class="fil0 str3" d="M-34217.23 6373.08c0,-193.3 156.7,-350 350,-350 193.3,0 350,156.7 350,350 0,193.3 -156.7,350 -350,350 -193.3,0 -350,-156.7 -350,-350z"/>
  <path class="fil0 str3" d="M-34117.23 5231.83c0,-138.07 111.93,-250 250,-250 138.07,0 250,111.93 250,250 0,138.07 -111.93,250 -250,250 -138.07,0 -250,-111.93 -250,-250z"/>
 </g>
</svg>
