<?xml version="1.0" encoding="UTF-8"?>
<!DOCTYPE svg PUBLIC "-//W3C//DTD SVG 1.1//EN" "http://www.w3.org/Graphics/SVG/1.1/DTD/svg11.dtd">
<!-- Creator: CorelDRAW X8 -->
<svg xmlns="http://www.w3.org/2000/svg" xml:space="preserve" width="40mm" height="60mm" version="1.1" style="shape-rendering:geometricPrecision; text-rendering:geometricPrecision; image-rendering:optimizeQuality; fill-rule:evenodd; clip-rule:evenodd"
viewBox="0 0 4000 6000"
 xmlns:xlink="http://www.w3.org/1999/xlink">
 <defs>
  <style type="text/css">
   <![CDATA[
    .str0 {stroke:black;stroke-width:7.62}
    .fil0 {fill:none}
   ]]>
  </style>
 </defs>
 <g id="图层_x0020_1">
  <metadata id="CorelCorpID_0Corel-Layer"/>
  <path class="fil0 str0" d="M-9660 16850c0,-58 111,-375 468,-375 358,0 650,-293 650,-650l0 -22500c0,-358 -292,-650 -650,-650l-14400 0c-357,0 -650,292 -650,650l0 10874c0,46 19,81 67,81l140 0c144,0 262,117 262,261l0 0c0,144 -118,261 -262,261l-135 0c-53,0 -72,23 -72,69l0 10954c0,357 293,650 650,650l15043 0"/>
  <path class="fil0 str0" d="M3309 5350c0,-11 21,-73 91,-73 69,0 126,-57 126,-126l0 -4375c0,-69 -57,-126 -126,-126l-2800 0c-69,0 -126,57 -126,126l0 2115c0,8 3,15 13,15l27 0c28,0 51,23 51,51l0 0c0,28 -23,51 -51,51l-26 0c-11,0 -14,4 -14,13l0 2130c0,69 57,126 126,126l2925 0"/>
 </g>
</svg>
