<?xml version="1.0" encoding="UTF-8"?>
<!DOCTYPE svg PUBLIC "-//W3C//DTD SVG 1.1//EN" "http://www.w3.org/Graphics/SVG/1.1/DTD/svg11.dtd">
<!-- Creator: CorelDRAW X8 -->
<svg xmlns="http://www.w3.org/2000/svg" xml:space="preserve" width="40mm" height="60mm" version="1.1" style="shape-rendering:geometricPrecision; text-rendering:geometricPrecision; image-rendering:optimizeQuality; fill-rule:evenodd; clip-rule:evenodd"
viewBox="0 0 4000 6000"
 xmlns:xlink="http://www.w3.org/1999/xlink">
 <defs>
  <style type="text/css">
   <![CDATA[
    .str0 {stroke:#332C2B;stroke-width:20}
    .fil0 {fill:none}
   ]]>
  </style>
 </defs>
 <g id="图层_x0020_1">
  <metadata id="CorelCorpID_0Corel-Layer"/>
  <g id="_2246545067696">
   <path class="fil0 str0" d="M882 5271l2114 0c67,0 122,-56 122,-123l0 -4376c0,-67 -55,-122 -122,-122l-1974 0c-67,0 -122,55 -122,122l0 4376c0,67 55,123 122,123 68,0 138,30 138,79"/>
   <path class="fil0 str0" d="M1992 865c0,-84 -173,-123 -213,-123 -40,0 -73,32 -73,72l0 0c0,40 33,73 73,73l447 0c40,0 72,-33 72,-73l0 0c0,-40 -32,-73 -72,-72l-447 0"/>
  </g>
  <path class="fil0 str0" d="M-1783 6262l0 -6904c0,-220 -180,-400 -400,-400l-14289 0c-220,0 -400,180 -400,400l0 6444c0,220 180,400 400,400l14289 0c220,0 400,-180 400,-400 0,-220 98,-449 259,-449"/>
  <path class="fil0 str0" d="M-16171 2636c-272,0 -402,566 -402,696 0,131 107,237 237,237l0 0c131,0 237,-106 237,-237l0 -1459c0,-130 -106,-237 -237,-237l0 0c-130,0 -238,107 -237,237l0 1459"/>
 </g>
</svg>
