<?xml version="1.0" encoding="UTF-8"?>
<!DOCTYPE svg PUBLIC "-//W3C//DTD SVG 1.1//EN" "http://www.w3.org/Graphics/SVG/1.1/DTD/svg11.dtd">
<!-- Creator: CorelDRAW X8 -->
<svg xmlns="http://www.w3.org/2000/svg" xml:space="preserve" width="40mm" height="60mm" version="1.1" style="shape-rendering:geometricPrecision; text-rendering:geometricPrecision; image-rendering:optimizeQuality; fill-rule:evenodd; clip-rule:evenodd"
viewBox="0 0 4000 6000"
 xmlns:xlink="http://www.w3.org/1999/xlink">
 <defs>
  <style type="text/css">
   <![CDATA[
    .fil0 {fill:#332C2B;fill-rule:nonzero}
   ]]>
  </style>
 </defs>
 <g id="图层_x0020_1">
  <metadata id="CorelCorpID_0Corel-Layer"/>
  <g>
   <path class="fil0" d="M2679 5225l-1 13 0 0 -4 -1 -3 0 -3 -1 -3 0 -4 -1 -2 -1 -3 -2 -3 -1 -3 -2 -2 -1 -3 -3 -2 -2 -2 -2 -2 -3 -2 -3 -2 -3 -1 -4 -2 -4 -1 -4 -1 -4 -1 -4 -1 -5 -1 -5 -1 -6 -1 -5 0 -7 -1 -6 0 -7 0 -7 -1 -8 0 -8 0 -8 13 0 0 8 0 8 0 7 0 7 1 7 0 6 1 6 1 6 0 5 1 5 1 4 1 4 1 4 1 3 1 3 2 3 1 3 1 2 2 2 1 2 2 1 1 2 2 1 2 1 2 1 2 1 2 1 3 0 2 1 3 0 3 1 3 0 0 0zm0 0c3,0 6,3 5,7 0,3 -3,6 -6,6l1 -13zm53 -1l-1 13 0 0 -1 0 -1 0 -2 0 -1 0 -2 0 -1 0 -2 0 -2 0 -1 0 -2 0 -2 0 -2 0 -1 0 -2 0 -2 1 -2 0 -2 0 -1 0 -2 0 -2 0 -2 0 -2 0 -2 0 -1 0 -2 0 -2 0 -1 0 -2 0 -2 0 -1 0 -2 0 -1 0 1 -13 1 0 1 0 2 0 1 0 2 0 1 0 2 0 2 0 1 0 2 0 2 0 2 0 1 0 2 0 2 0 2 0 2 0 1 0 2 0 2 0 2 0 2 0 1 0 2 0 2 -1 1 0 2 0 2 0 1 0 2 0 1 0 2 0 0 0zm0 0c3,1 6,3 6,7 0,3 -3,6 -7,6l1 -13zm29 -96l12 0 0 0 0 7 0 7 0 7 0 6 -1 7 0 5 0 6 0 5 0 5 -1 5 0 4 0 5 -1 4 0 3 -1 4 -1 3 -1 3 -1 3 -1 3 -1 3 -2 2 -2 3 -2 2 -2 1 -3 2 -3 1 -2 1 -3 1 -3 1 -4 0 -3 0 -4 0 1 -13 3 0 2 0 3 0 2 0 2 -1 2 0 1 -1 1 -1 2 -1 1 -1 1 -1 1 -1 1 -2 0 -2 1 -2 1 -3 1 -3 0 -3 1 -3 0 -4 0 -4 1 -4 0 -5 0 -4 1 -6 0 -5 0 -6 0 -6 0 -6 0 -7 1 -7 0 -7 0 0zm0 0c0,-4 3,-7 6,-6 4,0 6,3 6,6l-12 0zm-2 -251l12 0 0 0 0 0 0 3 0 3 0 5 0 5 0 7 0 7 1 8 0 9 0 10 0 10 0 10 0 11 0 11 0 11 0 12 0 11 1 12 0 11 0 11 0 11 0 10 0 10 0 9 0 9 0 8 0 7 0 6 0 5 0 4 0 3 0 2 -12 0 0 -2 0 -3 0 -4 0 -5 0 -6 0 -7 0 -8 0 -9 -1 -9 0 -10 0 -10 0 -11 0 -11 0 -11 0 -12 0 -11 0 -11 0 -12 -1 -11 0 -11 0 -10 0 -10 0 -10 0 -9 0 -8 0 -7 0 -7 0 -5 0 -5 0 -3 0 -2 0 -1 0 0zm0 0c-1,-4 2,-7 6,-7 3,0 6,3 6,7l-12 0zm-26 -111l0 -13 0 0 2 0 2 0 2 0 2 1 2 0 2 1 2 1 1 1 2 1 2 1 2 2 2 2 1 2 1 3 2 3 1 3 1 3 1 4 1 3 1 5 1 5 1 5 0 5 1 6 1 7 0 6 1 8 0 8 0 8 1 10 0 9 0 11 -12 0 -1 -11 0 -9 0 -9 0 -9 -1 -7 0 -8 -1 -6 0 -7 -1 -5 -1 -6 -1 -4 0 -5 -1 -4 -1 -3 -1 -3 -1 -3 -1 -2 -1 -2 -1 -2 -1 -1 -1 -2 0 0 -1 -1 -1 -1 -1 0 -1 0 -1 -1 -1 0 -1 0 -1 0 -2 0 -1 0 0 0zm0 0c-3,0 -6,-3 -6,-7 0,-3 3,-6 6,-6l0 13zm-53 -1l-1 -13 0 0 1 0 2 0 2 0 1 0 2 0 2 0 1 0 2 0 2 0 2 0 1 0 2 0 2 0 2 0 2 0 2 0 1 0 2 0 2 0 2 0 2 0 1 0 2 1 2 0 2 0 1 0 2 0 1 0 2 0 1 0 2 0 1 0 0 13 -1 0 -2 0 -1 -1 -2 0 -2 0 -1 0 -2 0 -2 0 -1 0 -2 0 -2 0 -2 0 -1 0 -2 0 -2 0 -2 0 -2 0 -1 0 -2 0 -2 0 -2 0 -2 0 -1 0 -2 0 -2 0 -1 0 -2 0 -1 0 -2 0 -1 0 -2 0 -1 0 0 0zm0 0c-4,0 -7,-2 -7,-6 0,-3 2,-6 6,-7l1 13zm-45 110l-13 -1 0 0 0 -8 0 -8 1 -7 0 -7 0 -7 0 -7 1 -6 0 -6 1 -5 0 -5 1 -5 1 -5 1 -4 1 -5 1 -3 1 -4 2 -4 2 -3 1 -3 3 -3 2 -2 2 -3 3 -2 3 -2 3 -2 3 -1 4 -1 4 -1 3 -1 4 -1 4 0 5 -1 1 13 -4 0 -4 1 -3 0 -3 1 -3 1 -3 1 -2 1 -3 1 -2 1 -1 2 -2 1 -2 2 -1 2 -1 2 -2 3 -1 2 -1 3 -1 4 -1 3 -1 4 0 5 -1 4 -1 5 0 5 -1 6 0 6 0 6 -1 7 0 7 0 7 0 8 0 9 0 0zm0 0c0,3 -3,6 -7,6 -3,0 -6,-3 -6,-7l13 1zm1 245l-13 0 0 0 0 -1 0 -3 0 -4 0 -5 0 -6 0 -7 0 -7 0 -9 0 -9 0 -9 0 -10 0 -11 0 -11 0 -11 -1 -11 0 -11 0 -11 0 -11 0 -11 0 -11 0 -10 0 -10 0 -10 0 -8 0 -8 0 -8 0 -6 0 -6 0 -4 0 -4 0 -2 0 -1 13 1 0 0 0 2 0 4 0 4 0 6 0 6 0 8 0 8 0 8 0 10 0 10 0 10 0 11 0 11 0 11 0 11 0 11 0 11 0 11 0 11 0 11 0 10 0 9 0 9 0 9 0 7 0 7 0 6 1 5 0 4 0 2 0 2 0 0zm0 0c0,3 -3,6 -7,6 -3,0 -6,-3 -6,-6l13 0zm-320 106l-1 13 0 0 -3 -1 -3 0 -4 -1 -3 0 -3 -1 -3 -1 -3 -1 -2 -2 -3 -1 -3 -2 -2 -2 -2 -3 -2 -2 -2 -3 -2 -3 -2 -3 -2 -4 -1 -3 -1 -4 -1 -5 -1 -4 -1 -5 -1 -5 -1 -5 -1 -6 0 -6 -1 -7 0 -7 -1 -7 0 -7 0 -8 0 -9 12 0 0 8 1 8 0 8 0 7 1 6 0 7 1 5 0 6 1 5 1 5 1 4 1 4 1 4 1 3 1 4 1 2 2 3 1 2 2 2 1 2 2 2 1 1 2 1 2 1 2 1 2 1 2 1 2 1 3 0 2 1 3 0 3 0 0 0zm0 0c4,1 6,4 6,7 0,4 -3,6 -7,6l1 -13zm53 0l0 12 0 0 -1 0 -2 0 -1 0 -2 0 -1 0 -2 0 -1 0 -2 0 -2 0 -1 0 -2 1 -2 0 -2 0 -1 0 -2 0 -2 0 -2 0 -2 0 -2 0 -1 0 -2 0 -2 0 -2 0 -2 0 -1 0 -2 0 -2 0 -1 0 -2 0 -2 0 -1 0 -2 0 1 -13 2 0 1 0 1 0 2 1 1 0 2 0 2 0 1 0 2 0 2 0 2 0 1 -1 2 0 2 0 2 0 1 0 2 0 2 0 2 0 2 0 1 0 2 0 2 0 2 0 1 0 2 0 2 0 1 0 2 0 2 0 1 0 1 0 0 0zm0 0c4,0 7,3 7,6 0,4 -3,6 -7,6l0 -12zm29 -97l13 0 0 0 0 8 0 7 -1 6 0 7 0 6 0 6 0 5 0 5 -1 5 0 5 0 5 -1 4 0 4 -1 4 0 3 -1 4 -1 3 -1 3 -1 3 -2 2 -1 3 -2 2 -2 2 -3 2 -2 1 -3 2 -3 1 -3 0 -3 1 -3 0 -3 0 -4 0 0 -12 3 0 3 0 3 -1 2 0 2 -1 1 0 2 -1 1 -1 1 -1 1 -1 1 -1 1 -1 1 -2 1 -2 1 -2 1 -3 0 -2 1 -4 0 -3 1 -4 0 -4 0 -4 1 -4 0 -5 0 -5 0 -6 1 -6 0 -6 0 -6 0 -7 0 -7 0 -7 0 0zm0 0c1,-4 3,-6 7,-6 3,0 6,3 6,6l-13 0zm-2 -251l13 0 0 0 0 1 0 2 0 3 0 5 0 5 0 7 0 7 0 9 0 8 0 10 1 10 0 10 0 11 0 11 0 12 0 11 0 12 0 11 0 11 1 11 0 11 0 10 0 10 0 9 0 9 0 8 0 7 0 6 0 5 0 4 0 3 0 2 -13 0 0 -2 0 -3 0 -4 0 -5 0 -6 0 -7 0 -8 0 -8 0 -10 0 -10 0 -10 0 -11 0 -11 0 -11 0 -11 -1 -12 0 -11 0 -11 0 -12 0 -10 0 -11 0 -10 0 -9 0 -9 0 -9 -1 -7 0 -6 0 -6 0 -5 0 -3 0 -2 0 -1 0 0zm0 0c0,-4 3,-6 6,-6 4,0 7,2 7,6l-13 0zm-25 -111l0 -13 0 0 2 0 2 0 1 1 2 0 2 0 2 1 2 1 2 1 2 1 2 2 2 1 1 2 2 3 1 2 1 3 2 3 1 3 1 4 1 4 1 4 1 5 0 5 1 5 1 6 0 7 1 7 0 7 1 8 0 9 0 9 1 9 0 11 -13 0 0 -10 0 -10 0 -9 -1 -8 0 -8 -1 -7 0 -7 -1 -6 0 -6 -1 -5 -1 -5 -1 -5 0 -3 -1 -4 -1 -3 -1 -3 -1 -2 -1 -2 -1 -2 -1 -1 -1 -1 -1 -1 0 -1 -1 0 -1 -1 -1 0 -1 0 -1 -1 -1 0 -1 0 -2 0 -1 0 0 0zm0 0c-4,0 -7,-3 -6,-7 0,-3 3,-6 6,-6l0 13zm-53 -1l-1 -12 0 0 1 0 2 -1 1 0 2 0 2 0 1 0 2 0 2 0 1 0 2 0 2 0 2 0 2 0 2 0 1 0 2 0 2 0 2 1 2 0 2 0 1 0 2 0 2 0 2 0 1 0 2 0 2 0 1 0 2 0 1 0 2 0 1 0 0 13 -2 0 -1 0 -2 0 -1 0 -2 0 -1 0 -2 0 -2 -1 -2 0 -1 0 -2 0 -2 0 -2 0 -1 0 -2 0 -2 0 -2 0 -2 0 -1 0 -2 0 -2 0 -2 0 -2 0 -1 0 -2 0 -2 0 -1 0 -2 0 -1 0 -2 0 -1 0 -1 0 0 0zm0 0c-4,0 -7,-2 -7,-6 0,-3 2,-6 6,-6l1 12zm-46 110l-12 0 0 0 0 -9 0 -8 0 -7 1 -7 0 -7 0 -6 1 -7 0 -5 0 -6 1 -5 1 -5 1 -5 1 -4 1 -4 1 -4 1 -4 2 -3 1 -4 2 -3 2 -3 3 -2 2 -3 3 -2 3 -2 3 -1 3 -2 4 -1 3 -1 4 -1 4 0 4 -1 5 0 1 12 -4 1 -4 0 -4 1 -3 0 -3 1 -2 1 -3 1 -2 1 -2 2 -2 1 -1 2 -2 1 -1 2 -2 2 -1 3 -1 3 -1 3 -1 3 -1 4 -1 4 -1 4 0 5 -1 4 0 6 -1 5 0 6 -1 7 0 6 0 7 0 8 0 8 -1 8 0 0zm0 0c0,3 -3,6 -6,6 -4,0 -6,-3 -6,-6l12 0zm1 245l-12 0 0 0 0 -1 0 -3 0 -4 0 -5 0 -6 0 -6 0 -8 -1 -8 0 -9 0 -10 0 -10 0 -11 0 -10 0 -11 0 -12 0 -11 0 -11 0 -11 0 -11 0 -11 0 -10 0 -10 0 -9 0 -9 0 -8 0 -7 0 -7 0 -5 0 -5 0 -3 0 -2 0 -1 12 0 0 1 0 2 0 3 0 5 0 5 0 6 0 8 0 8 1 9 0 9 0 10 0 10 0 11 0 11 0 11 0 11 0 11 0 12 0 11 0 10 0 11 0 10 0 10 0 9 0 8 0 8 0 6 0 6 0 5 0 4 0 3 0 1 0 0zm0 0c0,4 -3,6 -6,6 -3,1 -6,-2 -6,-6l12 0zm-318 110l-1 13 0 0 -4 -1 -3 0 -3 -1 -3 0 -3 -1 -3 -1 -3 -1 -3 -2 -3 -1 -2 -2 -3 -2 -2 -3 -2 -2 -2 -3 -2 -3 -2 -3 -1 -4 -1 -3 -2 -4 -1 -5 -1 -4 -1 -5 -1 -5 -1 -6 0 -5 -1 -6 0 -7 -1 -7 0 -7 -1 -7 0 -8 0 -9 13 0 0 8 0 8 0 8 1 7 0 6 1 6 0 6 1 6 1 5 0 5 1 4 1 4 1 4 1 3 2 3 1 3 1 3 2 2 1 2 1 2 2 1 2 2 1 1 2 1 2 1 2 1 2 1 3 0 2 1 3 1 3 0 3 0 0 0zm0 0c3,0 6,4 6,7 -1,3 -4,6 -7,6l1 -13zm53 0l0 12 0 0 -2 0 -1 0 -2 0 -1 0 -2 0 -1 0 -2 0 -1 0 -2 0 -2 0 -2 0 -1 1 -2 0 -2 0 -2 0 -2 0 -1 0 -2 0 -2 0 -2 0 -2 0 -2 0 -1 0 -2 0 -2 0 -2 0 -1 0 -2 0 -2 0 -1 0 -2 0 -1 0 1 -13 1 0 1 0 2 0 1 0 2 0 2 1 1 0 2 0 2 -1 1 0 2 0 2 0 2 0 1 0 2 0 2 0 2 0 2 0 1 0 2 0 2 0 2 0 1 0 2 0 2 0 2 0 1 0 2 0 1 0 2 0 1 0 2 0 0 0zm0 0c3,0 6,3 6,6 0,4 -3,6 -6,6l0 -12zm29 -97l13 0 0 0 -1 8 0 7 0 6 0 7 0 6 -1 6 0 5 0 5 0 5 0 5 -1 4 0 5 -1 4 0 3 -1 4 -1 3 -1 4 -1 3 -1 2 -1 3 -2 3 -2 2 -2 2 -2 2 -3 1 -2 1 -3 1 -3 1 -3 1 -3 0 -4 0 -3 0 0 -12 3 0 3 -1 2 0 2 0 2 -1 2 0 1 -1 2 -1 1 -1 1 -1 1 -1 1 -1 1 -2 1 -2 0 -2 1 -3 1 -3 0 -3 1 -3 0 -4 1 -4 0 -4 0 -4 0 -5 1 -5 0 -6 0 -6 0 -6 0 -6 1 -7 0 -7 0 -7 0 0zm0 0c0,-4 3,-6 6,-6 4,0 7,3 7,6l-13 0zm-2 -251l12 0 0 0 0 1 0 2 0 3 0 5 0 5 1 7 0 7 0 8 0 9 0 10 0 10 0 10 0 11 0 11 0 12 1 11 0 12 0 11 0 11 0 11 0 11 0 10 0 10 0 9 0 9 0 8 0 7 1 6 0 5 0 4 0 3 0 2 -13 0 0 -2 0 -3 0 -4 0 -5 0 -6 0 -7 0 -8 0 -9 0 -9 0 -10 -1 -10 0 -11 0 -11 0 -11 0 -11 0 -12 0 -11 0 -12 0 -11 -1 -11 0 -10 0 -10 0 -10 0 -8 0 -9 0 -7 0 -7 0 -5 0 -5 0 -3 0 -2 0 -1 0 0zm0 0c0,-4 2,-7 6,-7 3,0 6,3 6,7l-12 0zm-26 -111l0 -13 0 0 2 0 2 0 2 1 2 0 2 0 2 1 2 1 2 1 2 1 1 2 2 1 2 2 1 3 2 2 1 3 1 3 1 3 1 4 1 4 1 4 1 5 1 5 1 5 0 6 1 7 0 7 1 7 0 8 1 9 0 9 0 9 0 11 -12 0 0 -10 -1 -10 0 -9 0 -8 -1 -8 0 -7 -1 -7 0 -6 -1 -6 -1 -5 0 -5 -1 -5 -1 -4 -1 -3 -1 -3 -1 -3 -1 -2 -1 -2 -1 -2 0 -1 -1 -1 -1 -1 -1 -1 -1 0 -1 -1 -1 0 -1 -1 -1 0 -1 0 -1 0 -1 0 -2 0 0 0zm0 0c-3,0 -6,-3 -6,-7 0,-3 3,-6 6,-6l0 13zm-53 -1l-1 -12 0 0 2 -1 1 0 2 0 1 0 2 0 2 0 1 0 2 0 2 0 2 0 2 0 1 0 2 0 2 0 2 0 2 0 2 0 1 0 2 0 2 1 2 0 2 0 1 0 2 0 2 0 1 0 2 0 2 0 1 0 2 0 1 0 1 0 0 13 -1 0 -2 0 -1 0 -2 0 -1 0 -2 0 -2 -1 -1 0 -2 0 -2 0 -2 0 -1 0 -2 0 -2 0 -2 0 -2 0 -1 0 -2 0 -2 0 -2 0 -2 0 -1 0 -2 0 -2 0 -1 0 -2 0 -2 0 -1 0 -2 0 -1 0 -2 0 -1 0 0 0zm0 0c-4,0 -7,-2 -7,-6 0,-3 3,-6 6,-6l1 12zm-45 110l-13 -1 0 0 0 -8 1 -8 0 -7 0 -7 0 -7 1 -7 0 -6 0 -5 1 -6 1 -5 0 -5 1 -5 1 -4 1 -4 1 -4 2 -4 1 -3 2 -4 2 -3 2 -3 2 -2 3 -3 2 -2 3 -2 3 -1 4 -2 3 -1 4 -1 3 -1 4 -1 5 0 4 0 1 12 -4 0 -4 1 -3 1 -3 0 -3 1 -3 1 -2 1 -2 1 -2 1 -2 2 -2 1 -1 2 -2 2 -1 2 -2 3 -1 3 -1 3 -1 3 -1 4 -1 4 0 4 -1 4 -1 5 0 6 0 5 -1 6 0 7 0 6 -1 7 0 8 0 7 0 9 0 0zm0 0c0,3 -3,6 -7,6 -3,0 -6,-3 -6,-7l13 1zm1 245l-13 0 0 0 0 -1 0 -3 0 -4 0 -5 0 -6 0 -7 0 -7 0 -9 0 -9 0 -9 0 -10 0 -11 0 -10 0 -12 0 -11 0 -11 0 -11 0 -11 -1 -11 0 -11 0 -10 0 -10 0 -9 0 -9 0 -8 0 -8 0 -6 0 -5 0 -5 0 -3 0 -3 0 -1 13 1 0 0 0 3 0 3 0 4 0 6 0 6 0 8 0 8 0 9 0 9 0 10 0 10 0 11 0 11 0 11 0 11 0 11 0 11 0 11 0 11 0 11 0 10 0 9 1 9 0 9 0 7 0 7 0 6 0 5 0 4 0 3 0 1 0 0zm0 0c0,3 -3,6 -7,6 -3,0 -6,-2 -6,-6l13 0zm-316 103l-1 12 0 0 -3 0 -3 -1 -3 0 -4 -1 -3 -1 -3 -1 -3 -1 -2 -1 -3 -2 -3 -2 -2 -2 -2 -2 -2 -3 -2 -3 -2 -3 -2 -3 -1 -3 -2 -4 -1 -4 -1 -4 -1 -5 -1 -4 -1 -6 -1 -5 -1 -6 0 -6 -1 -6 0 -7 -1 -7 0 -8 0 -8 0 -8 12 0 1 8 0 8 0 7 0 7 1 7 0 6 1 6 1 5 0 5 1 5 1 5 1 4 1 3 1 4 1 3 2 3 1 2 1 3 2 2 1 1 2 2 1 1 2 2 2 1 2 1 2 1 2 0 2 1 3 1 3 0 2 0 3 1 0 0zm0 0c4,0 6,3 6,6 0,4 -3,7 -7,6l1 -12zm54 -1l-1 13 0 0 -1 0 -1 0 -2 0 -1 0 -2 0 -1 0 -2 0 -2 0 -1 0 -2 0 -2 0 -2 0 -2 0 -1 0 -2 0 -2 0 -2 0 -2 0 -1 0 -2 1 -2 0 -2 0 -2 0 -1 0 -2 0 -2 0 -2 0 -1 0 -2 0 -1 -1 -2 0 -2 0 1 -12 2 0 1 0 2 0 1 0 2 0 1 0 2 0 1 0 2 0 2 0 2 0 1 0 2 0 2 0 2 0 2 0 1 0 2 0 2 0 2 -1 2 0 1 0 2 0 2 0 2 0 1 0 2 0 2 0 1 0 2 0 1 0 2 0 0 0zm0 0c3,0 6,3 6,7 0,3 -3,6 -7,6l1 -13zm29 -97l12 1 0 0 0 7 0 7 0 7 -1 6 0 6 0 6 0 6 0 5 -1 5 0 5 0 4 -1 4 0 4 -1 4 0 4 -1 3 -1 3 -1 3 -1 3 -2 3 -1 2 -2 2 -2 2 -3 2 -2 2 -3 1 -2 1 -3 1 -4 0 -3 1 -3 0 -4 0 1 -13 3 0 2 0 3 0 2 -1 2 0 2 -1 1 0 1 -1 2 -1 1 -1 1 -1 1 -2 0 -1 1 -2 1 -3 1 -2 0 -3 1 -3 0 -3 1 -4 0 -4 1 -4 0 -5 0 -5 0 -5 1 -5 0 -6 0 -6 0 -7 0 -6 0 -7 1 -8 0 0zm0 0c0,-3 3,-6 6,-6 4,0 6,3 6,7l-12 -1zm-3 -251l13 0 0 0 0 1 0 2 0 4 0 4 0 6 0 6 0 8 0 8 0 9 1 9 0 10 0 11 0 11 0 11 0 11 0 12 0 11 0 11 1 12 0 11 0 10 0 11 0 10 0 9 0 8 0 8 0 7 0 7 0 5 0 4 0 3 0 2 -12 -1 0 -1 0 -3 0 -4 0 -5 0 -6 0 -8 -1 -7 0 -9 0 -9 0 -10 0 -10 0 -11 0 -11 0 -11 0 -12 0 -11 0 -12 -1 -11 0 -11 0 -11 0 -10 0 -11 0 -9 0 -9 0 -8 0 -7 0 -7 -1 -6 0 -4 0 -4 0 -2 0 -1 0 0zm0 0c0,-3 3,-6 7,-6 3,0 6,3 6,6l-13 0zm-25 -111l0 -12 0 0 2 0 2 0 2 0 1 0 2 1 2 0 2 1 2 1 2 2 2 1 2 2 1 2 2 2 1 3 2 2 1 3 1 4 1 3 1 4 1 4 1 5 1 5 0 6 1 6 1 6 0 7 1 8 0 8 0 8 1 9 0 10 0 10 -13 0 0 -10 0 -9 0 -9 -1 -9 0 -8 0 -7 -1 -7 -1 -6 0 -6 -1 -5 -1 -5 0 -4 -1 -4 -1 -3 -1 -4 -1 -2 -1 -3 -1 -2 -1 -1 -1 -2 -1 -1 0 -1 -1 0 -1 -1 -1 0 -1 -1 -1 0 -1 0 -1 0 -1 -1 -2 0 -1 0 0 0zm0 0c-4,0 -6,-3 -6,-6 0,-4 3,-6 6,-6l0 12zm-53 0l-1 -13 0 0 1 0 2 0 1 0 2 0 2 0 1 0 2 0 2 0 2 0 1 0 2 0 2 0 2 0 2 0 2 0 1 0 2 0 2 0 2 0 2 0 1 0 2 0 2 0 2 0 1 0 2 0 2 0 1 1 2 0 1 0 2 0 1 0 0 12 -2 0 -1 0 -2 0 -1 0 -2 0 -1 0 -2 0 -2 0 -1 0 -2 0 -2 0 -2 0 -2 0 -1 0 -2 0 -2 -1 -2 0 -2 0 -1 0 -2 0 -2 0 -2 0 -1 0 -2 0 -2 0 -1 0 -2 0 -2 0 -1 0 -2 0 -1 1 -1 0 0 0zm0 0c-4,0 -7,-3 -7,-6 0,-4 2,-7 6,-7l1 13zm-45 109l-13 0 0 0 0 -8 0 -8 0 -8 1 -7 0 -7 0 -6 1 -6 0 -6 1 -5 0 -6 1 -5 1 -4 1 -5 1 -4 1 -4 1 -3 2 -4 1 -3 2 -3 2 -3 3 -3 2 -2 3 -2 3 -2 3 -2 3 -1 4 -1 3 -1 4 -1 4 -1 4 -1 5 0 1 13 -4 0 -4 0 -3 1 -4 1 -2 1 -3 0 -3 2 -2 1 -2 1 -2 1 -1 2 -2 2 -1 2 -2 2 -1 2 -1 3 -1 3 -1 3 -1 4 -1 4 -1 4 0 5 -1 5 0 5 -1 6 0 6 0 6 -1 7 0 7 0 7 0 8 0 8 0 0zm0 0c-1,4 -3,6 -7,6 -3,0 -6,-3 -6,-6l13 0zm0 246l-12 0 0 0 0 -2 0 -2 0 -4 0 -5 0 -6 0 -7 0 -8 0 -8 0 -9 0 -10 0 -10 -1 -10 0 -11 0 -11 0 -11 0 -11 0 -12 0 -11 0 -11 0 -10 0 -11 0 -10 0 -9 0 -9 0 -8 0 -7 0 -6 0 -6 0 -4 0 -4 0 -2 0 -1 13 0 0 1 0 2 0 4 0 4 0 5 0 7 0 7 0 8 0 9 0 9 0 10 0 11 0 10 0 11 0 11 0 12 0 11 0 11 0 11 0 11 0 10 0 10 0 10 0 9 0 8 0 8 0 7 0 6 0 5 0 3 0 3 0 2 0 0zm0 0c0,3 -2,6 -6,6 -3,0 -6,-3 -6,-6l12 0zm28 -3888l-1 12 0 0 -4 0 -3 0 -3 -1 -3 -1 -3 0 -3 -2 -3 -1 -3 -1 -3 -2 -2 -2 -3 -2 -2 -2 -2 -3 -2 -2 -2 -3 -1 -4 -2 -3 -1 -4 -2 -4 -1 -4 -1 -5 -1 -4 -1 -5 -1 -6 0 -6 -1 -6 0 -6 -1 -7 0 -7 -1 -8 0 -8 0 -8 13 0 0 8 0 8 0 7 1 7 0 7 1 6 0 6 1 5 1 6 0 4 1 5 1 4 1 4 1 3 2 3 1 3 1 2 2 3 1 2 1 2 2 1 2 2 1 1 2 1 2 1 2 1 2 0 3 1 2 1 3 0 3 1 3 0 0 0zm0 0c3,0 6,3 6,7 -1,3 -4,6 -7,5l1 -12zm53 -1l0 13 0 0 -2 0 -1 0 -2 0 -1 0 -2 0 -1 0 -2 0 -1 0 -2 0 -2 0 -2 0 -1 0 -2 0 -2 0 -2 0 -2 0 -1 0 -2 1 -2 0 -2 0 -2 0 -2 0 -1 0 -2 0 -2 0 -2 0 -1 0 -2 0 -2 0 -1 0 -2 -1 -1 0 1 -12 1 0 1 0 2 0 1 0 2 0 2 0 1 0 2 0 2 0 1 0 2 0 2 0 2 0 1 0 2 0 2 0 2 0 2 0 1 0 2 0 2 -1 2 0 1 0 2 0 2 0 2 0 1 0 2 0 1 0 2 0 1 0 2 0 0 0zm0 0c3,0 6,3 6,7 0,3 -3,6 -6,6l0 -13zm29 -97l13 1 0 0 -1 7 0 7 0 7 0 6 0 6 -1 6 0 6 0 5 0 5 0 5 -1 4 0 4 -1 4 0 4 -1 4 -1 3 -1 3 -1 3 -1 3 -1 3 -2 2 -2 2 -2 3 -2 1 -3 2 -2 1 -3 1 -3 1 -3 0 -3 1 -4 0 -3 0 0 -13 3 0 3 0 2 0 2 -1 2 0 2 -1 1 0 2 -1 1 -1 1 -1 1 -1 1 -2 1 -1 1 -2 0 -3 1 -2 1 -3 0 -3 1 -3 0 -4 1 -4 0 -4 0 -5 0 -5 1 -5 0 -5 0 -6 0 -6 0 -6 1 -7 0 -7 0 -8 0 0zm0 0c0,-3 3,-6 6,-6 4,0 7,3 7,7l-13 -1zm-2 -251l12 0 0 0 0 1 0 2 0 4 0 4 0 6 1 7 0 7 0 8 0 9 0 9 0 11 0 10 0 11 0 11 0 11 1 12 0 11 0 12 0 11 0 11 0 11 0 10 0 10 0 9 0 9 0 8 1 7 0 6 0 5 0 4 0 3 0 2 -13 -1 0 -1 0 -3 0 -4 0 -5 0 -6 0 -7 0 -8 0 -9 0 -9 0 -10 -1 -10 0 -11 0 -11 0 -11 0 -12 0 -11 0 -12 0 -11 0 -11 0 -11 -1 -10 0 -10 0 -10 0 -9 0 -8 0 -7 0 -7 0 -5 0 -5 0 -3 0 -3 0 -1 0 0zm0 0c0,-3 2,-6 6,-6 3,0 6,3 6,6l-12 0zm-26 -111l0 -12 0 0 2 0 2 0 2 0 2 0 2 1 2 1 2 0 2 1 2 2 1 1 2 2 2 2 1 2 2 3 1 2 1 3 1 4 1 3 1 4 1 5 1 4 1 5 1 6 0 6 1 6 0 7 1 8 0 8 1 8 0 9 0 10 0 10 -12 0 0 -10 -1 -9 0 -9 0 -9 -1 -8 0 -7 -1 -7 0 -6 -1 -6 -1 -5 0 -5 -1 -4 -1 -4 -1 -3 -1 -3 -1 -3 -1 -3 -1 -2 -1 -1 0 -2 -1 -1 -1 -1 -1 0 -1 -1 -1 0 -1 -1 0 0 -2 0 -1 0 -1 0 -1 -1 -2 0 0 0zm0 0c-3,0 -6,-3 -6,-6 0,-3 3,-6 6,-6l0 12zm-53 0l-1 -13 0 0 2 0 1 0 2 0 1 0 2 0 2 0 1 0 2 0 2 0 2 0 2 0 1 0 2 0 2 0 2 0 2 0 2 0 1 0 2 0 2 0 2 0 2 0 1 0 2 0 2 0 1 1 2 0 2 0 1 0 2 0 1 0 1 0 0 12 -1 0 -2 0 -1 0 -2 0 -1 0 -2 0 -2 0 -1 0 -2 0 -2 0 -2 0 -1 0 -2 0 -2 0 -2 0 -2 0 -1 0 -2 -1 -2 0 -2 0 -2 0 -1 0 -2 0 -2 0 -1 0 -2 0 -2 0 -1 1 -2 0 -1 0 -2 0 -1 0 0 0zm0 0c-3,0 -7,-3 -7,-6 0,-3 3,-7 6,-7l1 13zm-45 109l-13 0 0 0 0 -8 1 -8 0 -7 0 -8 0 -6 1 -7 0 -6 0 -6 1 -5 1 -6 0 -4 1 -5 1 -5 1 -4 1 -4 2 -3 1 -4 2 -3 2 -3 2 -3 2 -3 3 -2 2 -2 3 -2 3 -2 4 -1 3 -1 4 -1 4 -1 3 -1 5 0 4 -1 1 13 -4 0 -4 1 -3 0 -3 1 -3 1 -3 1 -2 1 -2 1 -2 1 -2 2 -2 1 -1 2 -2 2 -1 2 -2 3 -1 2 -1 3 -1 4 -1 3 -1 4 0 4 -1 5 0 5 -1 5 0 6 -1 6 0 6 0 7 -1 7 0 7 0 8 0 8 0 0zm0 0c0,4 -3,7 -7,7 -3,-1 -6,-3 -6,-7l13 0zm1 246l-13 0 0 0 0 -2 0 -2 0 -4 0 -5 0 -6 0 -7 0 -7 0 -9 0 -9 0 -9 0 -11 0 -10 0 -11 0 -11 0 -11 0 -11 0 -11 0 -12 0 -11 -1 -10 0 -11 0 -9 0 -10 0 -9 0 -8 0 -7 0 -6 0 -6 0 -4 0 -4 0 -2 0 -1 13 0 0 1 0 2 0 4 0 4 0 6 0 6 0 7 0 8 0 9 0 10 0 9 0 11 0 10 0 11 0 11 0 12 0 11 0 11 0 11 0 11 0 10 0 10 1 10 0 9 0 8 0 8 0 7 0 6 0 5 0 4 0 2 0 2 0 0zm0 0c0,3 -3,6 -7,6 -3,0 -6,-3 -6,-6l13 0zm400 100l-1 13 0 0 -3 -1 -3 0 -4 -1 -3 -1 -3 0 -3 -1 -3 -2 -2 -1 -3 -2 -3 -2 -2 -2 -2 -2 -2 -2 -2 -3 -2 -3 -2 -4 -1 -3 -2 -4 -1 -4 -1 -4 -1 -4 -1 -5 -1 -5 -1 -6 -1 -6 0 -6 -1 -6 0 -7 -1 -7 0 -8 0 -8 0 -8 12 0 0 8 1 8 0 7 0 7 1 7 0 6 1 6 0 6 1 5 1 4 1 5 1 4 1 4 1 3 1 3 1 3 2 3 1 2 2 2 1 2 2 1 1 2 2 1 2 1 2 1 2 1 2 1 2 0 3 1 2 0 3 1 3 0 0 0zm0 0c4,0 6,3 6,7 0,3 -3,6 -7,6l1 -13zm54 -1l-1 13 0 0 -1 0 -2 0 -1 0 -1 0 -2 0 -2 0 -1 0 -2 0 -2 0 -1 0 -2 0 -2 0 -2 0 -1 0 -2 0 -2 1 -2 0 -2 0 -2 0 -1 0 -2 0 -2 0 -2 0 -2 0 -1 0 -2 0 -2 0 -1 0 -2 0 -2 0 -1 0 -2 0 1 -13 2 0 1 0 1 0 2 0 1 0 2 0 2 0 1 0 2 0 2 0 2 0 1 0 2 0 2 0 2 0 1 0 2 0 2 0 2 0 2 0 1 0 2 0 2 0 2 -1 1 0 2 0 2 0 1 0 2 0 2 0 1 0 2 0 0 0zm0 0c3,0 6,3 6,7 0,3 -3,6 -7,6l1 -13zm28 -96l13 0 0 0 0 7 0 7 0 7 -1 6 0 7 0 5 0 6 0 5 -1 5 0 5 0 4 -1 4 0 4 -1 4 0 4 -1 3 -1 3 -1 3 -1 3 -2 3 -1 2 -2 3 -2 2 -3 1 -2 2 -3 1 -3 1 -3 1 -3 0 -3 1 -3 0 -4 0 1 -13 3 0 2 0 3 0 2 0 2 -1 1 0 2 -1 1 -1 1 -1 1 -1 1 -1 1 -2 1 -1 1 -2 1 -2 1 -3 0 -3 1 -3 0 -3 1 -4 0 -4 0 -4 1 -5 0 -4 0 -6 0 -5 1 -6 0 -6 0 -6 0 -7 0 -7 0 -7 0 0zm0 0c1,-4 4,-7 7,-7 3,1 6,3 6,7l-13 0zm-2 -251l13 -1 0 0 0 1 0 3 0 3 0 5 0 5 0 7 0 7 0 8 0 9 0 10 1 10 0 10 0 11 0 11 0 11 0 12 0 11 0 12 0 11 1 11 0 11 0 10 0 10 0 9 0 9 0 8 0 7 0 6 0 5 0 4 0 3 0 2 -13 0 1 -2 0 -3 0 -4 -1 -5 0 -6 0 -7 0 -8 0 -9 0 -9 0 -10 0 -10 0 -11 0 -11 0 -11 0 -12 -1 -11 0 -11 0 -12 0 -11 0 -11 0 -10 0 -10 0 -10 0 -9 0 -8 -1 -7 0 -7 0 -5 0 -5 0 -3 0 -2 0 -1 0 0zm0 0c0,-4 3,-7 6,-7 4,0 7,3 7,6l-13 1zm-25 -111l0 -13 0 0 2 0 2 0 1 0 2 1 2 0 2 1 2 0 2 2 2 1 2 1 2 2 1 2 2 2 1 3 1 3 2 3 1 3 1 3 1 4 1 5 1 4 0 6 1 5 1 6 0 6 1 7 0 8 1 8 0 8 0 9 1 10 0 10 -13 1 0 -11 0 -9 0 -9 -1 -9 0 -7 -1 -8 0 -6 -1 -7 0 -5 -1 -6 -1 -4 -1 -5 0 -4 -1 -3 -1 -3 -1 -3 -1 -2 -1 -2 -1 -2 -1 -1 -1 -2 -1 0 0 -1 -1 -1 -1 0 -1 0 -1 -1 -1 0 -1 0 -1 0 -2 0 -1 0 0 0zm0 0c-4,-1 -7,-3 -6,-7 0,-3 3,-6 6,-6l0 13zm-53 -1l-1 -13 0 0 1 0 2 0 1 0 2 0 2 0 1 0 2 0 2 0 1 0 2 0 2 0 2 0 2 0 2 0 1 0 2 0 2 0 2 0 2 0 2 0 1 0 2 0 2 1 2 0 1 0 2 0 2 0 1 0 2 0 1 0 2 0 1 0 0 13 -2 0 -1 -1 -2 0 -1 0 -2 0 -1 0 -2 0 -2 0 -2 0 -1 0 -2 0 -2 0 -2 0 -1 0 -2 0 -2 0 -2 0 -2 0 -1 0 -2 0 -2 0 -2 0 -2 0 -1 0 -2 0 -2 0 -1 0 -2 0 -1 0 -2 0 -1 0 -1 0 0 0zm0 0c-4,0 -7,-2 -7,-6 0,-3 2,-6 6,-7l1 13zm-46 109l-12 0 0 0 0 -8 0 -8 0 -7 1 -7 0 -7 0 -7 1 -6 0 -6 1 -5 0 -5 1 -5 1 -5 1 -4 1 -5 1 -4 1 -3 2 -4 1 -3 2 -3 2 -3 3 -3 2 -2 3 -2 3 -2 3 -2 3 -1 4 -1 3 -1 4 -1 4 -1 4 0 5 -1 1 13 -4 0 -4 1 -4 0 -3 1 -3 1 -2 1 -3 1 -2 1 -2 1 -2 2 -1 1 -2 2 -1 2 -2 2 -1 3 -1 2 -1 3 -1 4 -1 3 -1 4 -1 5 0 4 -1 5 0 5 -1 6 0 6 -1 6 0 7 0 7 0 7 0 8 -1 8 0 0zm0 0c0,4 -3,7 -6,7 -3,0 -6,-3 -6,-7l12 0zm1 246l-12 0 0 0 0 -2 0 -2 0 -4 0 -5 0 -6 0 -7 0 -7 -1 -9 0 -9 0 -9 0 -10 0 -11 0 -11 0 -11 0 -11 0 -11 0 -11 0 -11 0 -11 0 -11 0 -10 0 -10 0 -10 0 -8 0 -8 0 -8 0 -6 0 -6 0 -4 0 -4 0 -2 0 -1 12 0 0 1 0 2 0 4 0 4 0 6 0 6 0 7 1 9 0 8 0 10 0 10 0 10 0 11 0 10 0 12 0 11 0 11 0 11 0 11 0 11 0 11 0 10 0 9 0 9 0 9 0 7 0 7 0 6 0 5 0 4 0 2 0 2 0 0zm0 0c0,3 -2,6 -6,6 -3,0 -6,-3 -6,-6l12 0zm405 102l-2 13 0 0 -3 -1 -3 0 -3 -1 -4 0 -3 -1 -3 -1 -2 -1 -3 -2 -3 -1 -2 -2 -3 -2 -2 -3 -2 -2 -2 -3 -2 -3 -2 -3 -1 -4 -2 -3 -1 -4 -1 -5 -1 -4 -1 -5 -1 -5 -1 -6 -1 -5 0 -6 -1 -7 0 -7 -1 -7 0 -7 0 -8 0 -9 12 0 1 8 0 8 0 8 0 7 1 6 0 6 1 6 1 6 0 5 1 5 1 4 1 4 1 4 1 3 1 3 2 3 1 3 1 2 2 2 1 2 2 1 1 2 2 1 2 1 2 1 2 1 2 1 3 0 2 1 3 0 3 1 3 0 0 0zm0 0c3,0 6,3 5,7 0,3 -3,6 -7,6l2 -13zm53 0l-1 12 0 0 -1 0 -1 0 -2 0 -1 0 -2 0 -1 0 -2 0 -2 0 -1 0 -2 0 -2 0 -2 0 -1 1 -2 0 -2 0 -2 0 -2 0 -2 0 -1 0 -2 0 -2 0 -2 0 -2 0 -1 0 -2 0 -2 0 -2 0 -1 0 -2 0 -1 0 -2 0 -2 0 2 -13 1 0 1 0 2 0 1 0 2 0 1 0 2 1 2 -1 1 0 2 0 2 0 2 0 1 0 2 0 2 0 2 0 1 0 2 0 2 0 2 0 2 0 1 0 2 0 2 0 2 0 1 0 2 0 2 0 1 0 2 0 1 0 2 0 0 0zm0 0c3,0 6,3 6,6 0,3 -3,6 -7,6l1 -12zm29 -97l12 0 0 0 0 7 0 8 0 6 0 7 -1 6 0 6 0 5 0 5 0 5 -1 5 0 4 0 5 -1 4 -1 3 0 4 -1 3 -1 4 -1 3 -1 2 -2 3 -1 3 -2 2 -2 2 -2 2 -3 1 -3 1 -2 1 -3 1 -3 1 -4 0 -3 0 -4 0 1 -12 3 0 2 -1 3 0 2 0 2 -1 2 0 1 -1 1 -1 2 -1 1 -1 1 -1 1 -1 1 -2 0 -2 1 -2 1 -3 0 -3 1 -3 1 -3 0 -4 0 -4 1 -4 0 -4 0 -5 0 -5 1 -6 0 -6 0 -6 0 -6 0 -7 1 -7 0 -7 0 0zm0 0c0,-4 3,-6 6,-6 4,0 6,3 6,6l-12 0zm-3 -251l13 0 0 0 0 1 0 2 0 3 0 5 0 5 0 7 0 7 0 8 1 9 0 10 0 10 0 10 0 11 0 11 0 12 0 11 0 12 1 11 0 11 0 11 0 11 0 10 0 10 0 9 0 9 0 8 0 7 0 6 0 5 0 4 0 3 0 2 -12 0 0 -2 0 -3 0 -4 0 -5 0 -6 0 -7 0 -8 -1 -9 0 -9 0 -10 0 -10 0 -11 0 -11 0 -11 0 -11 0 -12 0 -11 -1 -12 0 -11 0 -11 0 -10 0 -10 0 -10 0 -8 0 -9 0 -7 0 -7 0 -5 0 -5 -1 -3 0 -2 0 -1 0 0zm0 0c0,-4 3,-7 7,-7 3,0 6,3 6,7l-13 0zm-25 -111l0 -13 0 0 2 0 2 0 2 1 2 0 1 0 2 1 2 1 2 1 2 1 2 2 2 1 2 2 1 3 1 2 2 3 1 3 1 3 1 4 1 4 1 4 1 5 1 5 0 5 1 6 1 7 0 7 1 7 0 8 0 9 1 9 0 9 0 11 -13 0 0 -10 0 -10 0 -9 -1 -8 0 -8 0 -7 -1 -7 -1 -6 0 -6 -1 -5 -1 -5 0 -5 -1 -4 -1 -3 -1 -3 -1 -3 -1 -2 -1 -2 -1 -2 -1 -1 -1 -1 0 -1 -1 -1 -1 0 -1 -1 -1 0 -1 -1 -1 0 -1 0 -1 0 -2 0 -1 0 0 0zm0 0c-4,0 -6,-3 -6,-7 0,-3 3,-6 6,-6l0 13zm-53 -1l-1 -12 0 0 1 -1 2 0 1 0 2 0 2 0 1 0 2 0 2 0 2 0 1 0 2 0 2 0 2 0 2 0 2 0 1 0 2 0 2 0 2 0 2 1 2 0 1 0 2 0 2 0 2 0 1 0 2 0 1 0 2 0 1 0 2 0 1 0 0 13 -1 0 -2 0 -1 0 -2 0 -2 0 -1 -1 -2 0 -2 0 -1 0 -2 0 -2 0 -2 0 -1 0 -2 0 -2 0 -2 0 -2 0 -1 0 -2 0 -2 0 -2 0 -2 0 -1 0 -2 0 -2 0 -1 0 -2 0 -2 0 -1 0 -2 0 -1 0 -1 0 0 0zm0 0c-4,0 -7,-2 -7,-6 0,-3 2,-6 6,-6l1 12zm-45 110l-13 -1 0 0 0 -8 0 -8 1 -7 0 -7 0 -7 0 -7 1 -6 0 -5 1 -6 0 -5 1 -5 1 -5 1 -4 1 -4 1 -4 1 -4 2 -4 2 -3 1 -3 2 -3 3 -2 2 -3 3 -2 3 -2 3 -1 3 -2 4 -1 3 -1 4 -1 4 -1 4 0 5 0 1 12 -4 0 -4 1 -3 1 -4 0 -2 1 -3 1 -2 1 -3 1 -2 1 -1 2 -2 1 -2 2 -1 2 -2 2 -1 3 -1 3 -1 3 -1 3 -1 4 -1 4 0 4 -1 4 -1 5 0 6 -1 5 0 6 0 7 -1 6 0 7 0 8 0 7 0 9 0 0zm0 0c0,3 -3,6 -7,6 -3,0 -6,-3 -6,-7l13 1zm0 245l-12 0 0 0 0 -1 0 -3 0 -4 0 -5 0 -6 0 -7 0 -7 0 -9 0 -9 0 -9 0 -10 0 -11 0 -10 -1 -12 0 -11 0 -11 0 -11 0 -11 0 -11 0 -11 0 -10 0 -10 0 -9 0 -9 0 -8 0 -8 0 -6 0 -6 0 -4 0 -3 0 -3 0 -1 13 1 0 0 0 3 0 3 0 4 0 6 0 6 0 8 0 8 0 8 0 10 0 10 0 10 0 11 0 11 0 11 0 11 0 11 0 11 0 11 0 11 0 11 0 10 0 9 0 9 0 9 0 7 0 7 0 6 0 5 0 4 0 3 0 1 0 0zm0 0c1,3 -2,6 -6,6 -3,0 -6,-2 -6,-6l12 0zm404 106l-1 12 0 0 -3 0 -3 0 -4 -1 -3 -1 -3 0 -3 -1 -3 -2 -2 -1 -3 -2 -3 -2 -2 -2 -2 -2 -2 -3 -2 -2 -2 -3 -2 -4 -2 -3 -1 -4 -1 -4 -1 -4 -2 -4 0 -5 -1 -5 -1 -6 -1 -6 0 -6 -1 -6 0 -7 -1 -7 0 -8 0 -8 0 -8 12 0 0 8 1 8 0 7 0 7 1 7 0 6 1 6 0 6 1 5 1 4 1 5 1 4 1 4 1 3 1 3 1 3 2 2 1 3 2 2 1 2 2 1 1 2 2 1 2 1 2 1 2 1 2 1 2 0 3 1 2 0 3 1 3 0 0 0zm0 0c4,0 6,3 6,7 0,3 -3,6 -7,5l1 -12zm53 -1l0 13 0 0 -1 0 -2 0 -1 0 -2 0 -1 0 -2 0 -1 0 -2 0 -2 0 -1 0 -2 0 -2 0 -2 0 -1 0 -2 0 -2 0 -2 1 -2 0 -2 0 -1 0 -2 0 -2 0 -2 0 -2 0 -1 0 -2 0 -2 0 -1 0 -2 0 -2 0 -1 0 -2 -1 1 -12 2 0 1 0 1 0 2 0 1 0 2 0 2 0 1 0 2 0 2 0 2 0 1 0 2 0 2 0 2 0 1 0 2 0 2 0 2 0 2 0 1 0 2 0 2 -1 2 0 1 0 2 0 2 0 1 0 2 0 1 0 2 0 1 0 0 0zm0 0c4,0 7,3 7,7 0,3 -3,6 -7,6l0 -13zm29 -96l13 0 0 0 0 7 0 7 -1 7 0 6 0 6 0 6 0 6 0 5 -1 5 0 5 0 4 -1 4 0 4 -1 4 0 4 -1 3 -1 3 -1 3 -1 3 -2 3 -1 2 -2 3 -2 2 -3 1 -2 2 -3 1 -3 1 -3 1 -3 0 -3 1 -3 0 -4 0 0 -13 3 0 3 0 3 0 2 0 2 -1 1 -1 2 0 1 -1 1 -1 1 -1 1 -1 1 -2 1 -1 1 -2 1 -2 1 -3 0 -3 1 -3 0 -3 1 -4 0 -4 0 -4 1 -5 0 -5 0 -5 0 -5 1 -6 0 -6 0 -6 0 -7 0 -7 0 -7 0 0zm0 0c1,-4 3,-7 7,-7 3,1 6,3 6,7l-13 0zm-2 -251l13 -1 0 0 0 1 0 3 0 3 0 4 0 6 0 7 0 7 0 8 0 9 0 10 1 10 0 10 0 11 0 11 0 11 0 12 0 11 0 12 0 11 0 11 1 11 0 10 0 10 0 9 0 9 0 8 0 7 0 6 0 5 0 4 0 3 0 2 -13 0 0 -2 0 -3 0 -4 0 -5 0 -6 0 -7 0 -8 0 -9 0 -9 0 -10 0 -10 0 -11 0 -11 0 -11 0 -12 -1 -11 0 -11 0 -12 0 -11 0 -11 0 -10 0 -10 0 -10 0 -9 0 -8 -1 -7 0 -7 0 -5 0 -5 0 -3 0 -3 0 0 0 0zm0 0c0,-4 3,-7 6,-7 4,0 7,3 7,6l-13 1zm-25 -111l0 -13 0 0 2 0 2 0 1 0 2 1 2 0 2 1 2 0 2 1 2 2 2 1 2 2 1 2 2 2 1 3 1 3 2 3 1 3 1 3 1 4 1 5 1 4 0 5 1 6 1 6 0 6 1 7 0 8 1 8 0 8 0 9 1 10 0 10 -13 1 0 -11 0 -9 0 -9 -1 -9 0 -7 -1 -8 0 -6 -1 -7 0 -5 -1 -6 -1 -5 -1 -4 0 -4 -1 -3 -1 -3 -1 -3 -1 -2 -1 -2 -1 -2 -1 -2 -1 -1 -1 -1 -1 0 0 -1 -1 0 -1 -1 -1 0 -1 0 -1 0 -1 0 -2 0 -1 0 0 0zm0 0c-4,-1 -7,-3 -6,-7 0,-3 3,-6 6,-6l0 13zm-54 -1l0 -13 0 0 1 0 2 0 1 0 2 0 2 0 1 0 2 0 2 0 1 0 2 0 2 0 2 0 2 0 2 0 1 0 2 0 2 0 2 0 2 0 2 0 1 0 2 0 2 0 2 1 1 0 2 0 2 0 1 0 2 0 1 0 2 0 1 0 0 13 -2 -1 -1 0 -2 0 -1 0 -2 0 -1 0 -2 0 -2 0 -2 0 -1 0 -2 0 -2 0 -2 0 -1 0 -2 0 -2 0 -2 0 -2 0 -2 0 -1 0 -2 -1 -2 0 -2 0 -1 0 -2 0 -2 1 -1 0 -2 0 -1 0 -2 0 -1 0 -2 0 0 0zm0 0c-3,0 -6,-2 -6,-6 -1,-3 2,-6 6,-7l0 13zm-45 109l-12 0 0 0 0 -8 0 -8 0 -7 1 -8 0 -6 0 -7 1 -6 0 -6 0 -5 1 -5 1 -5 1 -5 1 -4 1 -5 1 -4 1 -3 2 -4 1 -3 2 -3 2 -3 3 -3 2 -2 3 -2 3 -2 3 -2 3 -1 4 -1 3 -1 4 -1 4 -1 4 0 5 -1 0 13 -3 0 -4 1 -4 0 -3 1 -3 1 -2 1 -3 1 -2 1 -2 1 -2 2 -1 1 -2 2 -1 2 -2 2 -1 3 -1 2 -1 3 -1 4 -1 3 -1 4 -1 5 0 4 -1 5 0 5 -1 6 0 6 -1 6 0 7 0 7 0 7 0 8 -1 8 0 0zm0 0c0,4 -3,7 -6,7 -4,0 -6,-3 -6,-7l12 0zm1 246l-12 0 0 0 0 -2 0 -2 0 -4 0 -5 0 -6 0 -7 -1 -7 0 -9 0 -9 0 -9 0 -10 0 -11 0 -11 0 -11 0 -11 0 -11 0 -11 0 -12 0 -10 0 -11 0 -10 0 -10 0 -10 0 -8 0 -9 0 -7 0 -6 0 -6 0 -4 0 -4 0 -2 0 -1 12 0 0 1 0 2 0 4 0 4 0 6 0 6 0 7 0 8 0 9 1 10 0 9 0 11 0 10 0 11 0 12 0 11 0 11 0 11 0 11 0 11 0 10 0 11 0 9 0 9 0 9 0 7 0 7 0 6 0 5 0 4 0 2 0 2 0 0zm0 0c0,3 -3,6 -6,6 -3,0 -6,-3 -6,-6l12 0zm-1337 -192c-4,0 -6,-3 -6,-6 0,-3 3,-6 6,-6l0 12zm131 -127l12 -1 0 1 -1 8 -2 8 -2 7 -2 7 -2 7 -3 7 -2 6 -3 6 -3 6 -3 6 -4 6 -3 5 -4 5 -4 4 -4 5 -5 4 -5 4 -4 3 -5 4 -6 3 -5 3 -6 2 -5 3 -6 2 -6 1 -7 2 -6 1 -7 1 -7 1 -7 0 -7 1 -7 -1 0 -12 7 0 7 0 6 -1 7 0 6 -1 6 -1 5 -2 6 -1 5 -2 5 -2 5 -3 5 -2 5 -3 4 -3 5 -3 4 -4 4 -3 3 -4 4 -4 3 -5 4 -4 3 -5 3 -6 3 -5 2 -6 3 -6 2 -6 2 -6 2 -7 2 -7 1 -7 2 -8 0 2zm0 -2c0,-3 4,-5 7,-5 3,1 6,4 5,7l-12 -2zm147 -159l0 13 0 0 -11 0 -10 0 -10 1 -9 0 -8 1 -9 0 -7 1 -8 2 -6 1 -7 2 -5 2 -6 2 -5 2 -4 3 -4 3 -4 3 -4 4 -3 4 -3 4 -2 5 -3 6 -2 6 -1 6 -2 8 -1 7 -1 9 0 9 -1 10 0 10 0 11 1 12 0 13 -12 1 -1 -13 0 -12 -1 -12 1 -10 0 -11 1 -9 1 -9 1 -9 1 -7 2 -8 3 -7 2 -6 3 -6 4 -5 4 -5 4 -5 5 -4 5 -4 5 -3 6 -3 6 -2 7 -2 7 -2 7 -2 8 -1 8 -1 8 -1 9 -1 10 0 10 0 10 -1 11 0 0 0zm0 0c3,0 6,3 6,7 0,3 -3,6 -6,6l0 -13zm335 3l0 13 0 0 -10 0 -11 0 -10 -1 -11 0 -10 0 -11 0 -10 0 -11 0 -10 0 -11 -1 -10 0 -11 0 -10 0 -11 0 -10 -1 -11 0 -10 0 -10 0 -11 0 -10 0 -11 0 -10 -1 -11 0 -10 0 -11 0 -10 0 -11 0 -10 0 -11 0 -10 1 -11 0 -10 0 0 -13 10 0 11 0 10 0 11 0 10 0 11 0 10 0 11 0 10 0 11 0 10 0 11 0 10 0 11 0 10 1 11 0 10 0 11 0 10 0 11 0 10 1 11 0 10 0 11 0 10 0 11 0 10 1 11 0 10 0 11 0 10 0 10 0 0 0zm0 0c4,0 7,3 7,6 0,4 -3,7 -7,7l0 -13zm1053 9l0 12 0 0 -33 0 -33 -1 -33 0 -33 -1 -32 0 -33 -1 -33 0 -33 0 -33 -1 -33 0 -33 0 -33 -1 -33 0 -33 0 -32 -1 -33 0 -33 0 -33 0 -33 0 -33 -1 -33 0 -33 0 -33 0 -32 0 -33 0 -33 -1 -33 0 -33 0 -33 0 -33 0 -33 0 -33 0 0 -13 33 0 33 0 33 0 33 1 33 0 33 0 33 0 33 0 33 0 32 0 33 1 33 0 33 0 33 0 33 0 33 1 33 0 33 0 32 0 33 1 33 0 33 0 33 1 33 0 33 0 33 1 33 0 33 1 32 0 33 1 33 0 33 1 0 0zm0 0c4,0 6,3 6,6 0,3 -3,6 -6,6l0 -12zm180 177l-12 0 0 0 0 -12 -1 -12 0 -11 -1 -10 -1 -10 -2 -9 -1 -9 -2 -8 -3 -8 -2 -7 -3 -7 -3 -6 -4 -6 -3 -6 -4 -5 -5 -4 -5 -5 -5 -4 -6 -3 -6 -4 -6 -3 -7 -2 -8 -3 -8 -2 -8 -2 -9 -2 -9 -1 -11 -1 -10 -1 -11 -1 -12 -1 -12 0 0 -12 13 0 12 0 11 1 11 1 10 1 10 2 10 2 9 2 8 2 8 3 8 3 7 3 7 4 6 4 6 5 6 5 5 5 5 6 4 6 4 7 4 7 3 7 2 8 3 8 2 9 2 10 1 9 1 11 1 10 1 12 0 12 0 12 0 0zm0 0c0,3 -2,6 -6,6 -3,0 -6,-3 -6,-6l12 0zm28 4264l-13 0 0 0 0 -48 -1 -62 0 -74 -1 -87 -1 -96 -1 -108 -1 -116 -1 -125 -1 -133 -1 -140 -1 -146 -1 -152 -1 -156 -2 -160 -1 -164 -1 -165 -1 -167 -1 -168 -1 -168 -2 -168 -1 -165 -1 -164 -1 -160 0 -156 -1 -152 -1 -146 -1 -140 0 -133 -1 -125 0 -116 0 -107 0 -97 12 0 0 97 1 107 0 116 0 125 1 133 1 140 0 146 1 152 1 156 1 160 1 164 1 165 1 167 1 168 1 168 2 168 1 165 1 164 1 160 1 156 1 152 2 146 1 140 1 133 1 125 1 116 1 107 0 97 1 86 1 75 0 62 1 48 0 0zm0 0c0,4 -3,7 -6,7 -4,0 -7,-3 -7,-7l13 0zm-211 237l-3 -13 1 0 14 -2 13 -2 12 -2 12 -3 12 -3 11 -3 10 -3 10 -4 9 -4 9 -4 9 -4 8 -5 7 -6 7 -5 7 -6 6 -6 6 -7 5 -7 5 -8 4 -7 4 -9 4 -8 3 -10 3 -9 3 -11 2 -10 2 -12 1 -11 1 -13 1 -12 0 -14 0 -14 13 0 0 14 -1 14 0 13 -1 13 -2 12 -2 12 -2 11 -3 11 -3 10 -3 10 -4 9 -5 9 -5 9 -5 8 -6 8 -6 7 -7 7 -7 6 -7 6 -8 6 -9 5 -9 5 -9 5 -10 4 -11 4 -11 3 -11 4 -12 3 -12 2 -13 3 -14 2 -14 2 1 0zm-1 0c-3,0 -6,-2 -7,-6 0,-3 2,-7 6,-7l1 13zm-1325 22l0 -13 0 0 37 0 40 -1 42 0 44 -1 46 0 47 -1 49 0 50 -1 51 0 52 0 52 -1 53 0 52 0 52 -1 52 0 52 -1 50 0 50 -1 48 0 46 -1 45 -1 43 0 41 -1 38 -1 36 -1 32 -1 30 -1 26 -1 23 -1 19 -2 15 -1 10 -2 3 13 -12 1 -15 2 -19 1 -23 1 -27 2 -29 1 -33 1 -36 1 -38 1 -41 0 -43 1 -45 1 -46 0 -48 1 -50 0 -50 1 -52 0 -51 1 -53 0 -52 1 -53 0 -52 0 -52 1 -51 0 -50 0 -49 1 -47 0 -46 1 -44 0 -42 1 -40 0 -37 1 0 0zm0 0c-3,0 -6,-3 -6,-6 0,-4 2,-7 6,-7l0 13zm-181 -195l13 -1 0 1 0 17 1 17 0 16 1 14 1 13 0 13 1 11 1 11 2 9 1 9 2 7 2 7 2 6 2 6 3 4 3 4 4 4 4 3 5 2 5 2 6 2 7 2 7 1 9 1 9 1 10 0 11 1 12 0 12 0 14 0 15 -1 16 0 0 13 -16 0 -15 0 -13 0 -13 0 -12 0 -12 0 -10 -1 -10 0 -8 -1 -9 -2 -7 -1 -7 -3 -7 -2 -6 -4 -5 -4 -5 -4 -4 -5 -4 -6 -3 -7 -2 -7 -3 -8 -1 -8 -2 -9 -1 -10 -1 -11 -1 -11 -1 -13 -1 -13 0 -15 -1 -15 0 -17 -1 -18 0 0zm0 0c0,-3 3,-6 6,-6 4,-1 7,2 7,6l-13 0zm-213 -200l-1 -13 0 0 12 0 12 1 11 1 12 2 11 2 10 2 11 3 10 4 10 4 9 4 9 5 9 5 9 5 8 6 8 7 8 7 7 7 7 7 7 8 6 9 6 8 5 9 5 9 4 10 5 10 3 10 3 11 3 11 3 11 1 11 2 12 1 11 -13 1 -1 -11 -1 -11 -2 -11 -2 -11 -3 -10 -3 -10 -3 -10 -4 -9 -4 -9 -5 -9 -5 -8 -5 -8 -6 -8 -6 -7 -7 -7 -7 -7 -7 -7 -7 -6 -8 -5 -8 -5 -9 -5 -8 -5 -9 -4 -10 -4 -9 -3 -10 -3 -10 -2 -10 -2 -11 -1 -11 -2 -11 0 -11 0 0 0zm0 0c-4,0 -7,-3 -7,-6 0,-4 3,-7 6,-7l1 13zm-254 2l-1 -12 0 0 8 0 8 0 8 0 8 0 8 0 8 -1 8 0 8 0 8 0 8 0 8 0 8 0 8 0 8 0 8 0 7 0 8 0 8 -1 8 0 8 0 8 0 8 0 8 0 8 0 8 0 8 0 8 0 8 0 8 -1 8 0 8 0 7 0 1 13 -8 0 -8 0 -8 0 -8 0 -8 0 -8 0 -8 0 -8 1 -8 0 -8 0 -8 0 -8 0 -8 0 -8 0 -7 0 -8 0 -8 0 -8 0 -8 0 -8 1 -8 0 -8 0 -8 0 -8 0 -8 0 -8 0 -8 0 -8 0 -8 0 -8 0 -7 0 -8 0 0 0zm0 0c-4,0 -7,-2 -7,-6 0,-3 3,-6 6,-6l1 12zm-116 -114l12 1 0 0 0 9 0 10 0 8 0 8 0 8 1 6 0 7 1 5 0 6 1 4 1 4 2 4 1 3 1 3 2 3 2 2 2 2 3 1 3 2 3 1 4 1 4 1 5 1 5 1 6 0 6 0 7 1 8 0 8 0 8 0 10 0 9 0 1 12 -10 1 -10 0 -8 0 -8 -1 -8 0 -7 0 -7 0 -6 -1 -6 -1 -5 -1 -5 -1 -5 -1 -4 -2 -4 -2 -4 -2 -4 -3 -3 -4 -2 -3 -2 -4 -2 -4 -2 -5 -1 -5 -1 -5 -1 -6 0 -6 -1 -7 0 -7 0 -8 0 -8 0 -8 0 -10 0 -10 0 0zm0 0c0,-3 3,-6 6,-6 4,0 6,3 6,7l-12 -1zm-5 -3701l13 -1 0 1 -1 80 -1 88 0 93 0 100 0 105 0 110 0 115 1 119 0 122 1 125 1 129 0 130 1 132 1 134 1 134 1 135 1 135 1 135 0 133 1 132 1 131 0 128 1 125 0 123 0 118 0 115 0 110 -1 105 -1 99 -1 94 -1 87 -2 81 -12 -1 1 -80 2 -87 1 -94 0 -99 1 -105 0 -110 0 -115 0 -118 0 -123 0 -125 -1 -128 0 -130 -1 -133 -1 -133 -1 -135 -1 -135 -1 -135 -1 -134 0 -134 -1 -132 -1 -130 -1 -129 0 -125 -1 -122 0 -119 -1 -115 0 -110 0 -105 0 -100 1 -93 1 -88 0 -81 0 1zm0 -1c1,-3 3,-6 7,-6 3,0 6,3 6,7l-13 -1zm97 -98l0 12 0 0 -6 0 -6 0 -5 1 -5 0 -5 1 -5 1 -4 1 -4 1 -4 1 -4 2 -4 1 -3 2 -3 2 -3 2 -2 2 -3 3 -2 3 -2 2 -2 3 -2 4 -2 3 -1 4 -2 3 -1 5 -1 4 -1 4 -1 5 0 5 -1 5 0 5 0 6 0 5 -13 1 0 -6 1 -6 0 -6 0 -5 1 -6 1 -5 1 -5 1 -5 1 -4 2 -5 2 -4 2 -4 2 -4 2 -4 3 -3 3 -4 3 -3 3 -3 4 -2 4 -3 4 -2 4 -2 4 -2 5 -1 5 -2 5 -1 5 -1 5 0 6 -1 6 0 6 0 6 0 0 0zm0 0c4,0 6,3 6,6 0,4 -3,7 -6,6l0 -12zm190 -2l1 13 0 0 -6 0 -6 0 -6 0 -6 0 -6 1 -6 0 -6 0 -6 0 -6 0 -6 0 -6 0 -6 0 -6 1 -6 0 -6 0 -6 0 -6 0 -6 0 -6 0 -6 0 -6 0 -5 0 -6 0 -6 0 -6 0 -6 0 -6 0 -6 0 -6 0 -6 0 -6 0 -6 -1 0 -12 6 0 6 0 6 0 6 0 6 1 6 0 6 0 6 0 6 0 5 0 6 0 6 0 6 0 6 -1 6 0 6 0 6 0 6 0 6 0 6 0 6 0 6 0 6 -1 6 0 6 0 6 0 6 0 6 0 6 0 5 0 6 0 6 -1 0 0zm0 0c4,0 7,3 7,7 0,3 -3,6 -6,6l-1 -13zm276 -243l12 0 0 0 1 12 -1 12 -1 13 -2 12 -2 12 -4 11 -4 12 -4 11 -6 12 -6 11 -6 10 -7 11 -8 10 -8 10 -9 9 -10 9 -9 9 -11 8 -11 8 -11 7 -12 7 -12 7 -13 6 -13 5 -14 5 -14 5 -14 3 -15 3 -15 3 -15 2 -16 1 -15 0 -1 -13 16 0 15 -1 15 -2 14 -2 14 -3 14 -4 13 -4 13 -4 13 -6 12 -5 12 -7 11 -6 11 -7 10 -8 10 -8 10 -8 9 -9 8 -9 8 -9 8 -10 6 -10 7 -10 5 -10 5 -11 5 -10 3 -11 3 -11 3 -12 2 -11 1 -11 0 -12 0 -11 0 -1zm0 1c0,-4 2,-7 6,-7 3,0 6,2 6,6l-12 1zm-43 -131l8 -10 3 2 3 3 3 2 3 3 2 3 3 3 2 3 3 4 2 3 2 4 2 3 2 4 2 4 1 4 2 5 2 4 1 4 1 5 2 5 1 5 1 5 1 5 0 5 1 5 1 6 0 5 1 6 0 6 0 6 0 6 0 6 0 6 -12 0 0 -6 0 -6 0 -6 -1 -6 0 -5 0 -6 -1 -5 0 -5 -1 -5 -1 -5 -1 -5 -1 -5 -1 -4 -1 -5 -1 -4 -1 -4 -2 -4 -1 -4 -2 -4 -1 -3 -2 -4 -2 -3 -2 -3 -2 -3 -2 -3 -2 -3 -2 -3 -3 -2 -2 -3 -2 -2 -3 -2 -3 -2zm0 0c-2,-2 -3,-6 -1,-9 2,-3 6,-4 9,-1l-8 10z"/>
  </g>
 </g>
</svg>
