<?xml version="1.0" encoding="UTF-8"?>
<!DOCTYPE svg PUBLIC "-//W3C//DTD SVG 1.1//EN" "http://www.w3.org/Graphics/SVG/1.1/DTD/svg11.dtd">
<!-- Creator: CorelDRAW X8 -->
<svg xmlns="http://www.w3.org/2000/svg" xml:space="preserve" width="40mm" height="60mm" version="1.1" style="shape-rendering:geometricPrecision; text-rendering:geometricPrecision; image-rendering:optimizeQuality; fill-rule:evenodd; clip-rule:evenodd"
viewBox="0 0 4000 6000"
 xmlns:xlink="http://www.w3.org/1999/xlink">
 <defs>
  <style type="text/css">
   <![CDATA[
    .str0 {stroke:black;stroke-width:7.62}
    .fil0 {fill:none}
   ]]>
  </style>
 </defs>
 <g id="图层_x0020_1">
  <metadata id="CorelCorpID_0Corel-Layer"/>
  <path class="fil0 str0" d="M1021 5324l1803 0c128,0 233,-105 233,-233l0 -4207c0,-129 -105,-234 -233,-234l-507 0 -160 0c-27,0 -56,12 -56,52l0 46c0,51 -42,93 -93,93l0 0c-51,0 -92,-42 -92,-93l0 -42c0,-37 -28,-56 -53,-56l-168 0 -519 0c-128,0 -233,105 -233,234l0 4207c0,128 105,233 233,233l39 0c33,0 63,11 86,26"/>
 </g>
</svg>
