<?xml version="1.0" encoding="UTF-8"?>
<!DOCTYPE svg PUBLIC "-//W3C//DTD SVG 1.1//EN" "http://www.w3.org/Graphics/SVG/1.1/DTD/svg11.dtd">
<!-- Creator: CorelDRAW X8 -->
<svg xmlns="http://www.w3.org/2000/svg" xml:space="preserve" width="40mm" height="60mm" version="1.1" style="shape-rendering:geometricPrecision; text-rendering:geometricPrecision; image-rendering:optimizeQuality; fill-rule:evenodd; clip-rule:evenodd"
viewBox="0 0 4000 6000"
 xmlns:xlink="http://www.w3.org/1999/xlink">
 <defs>
  <style type="text/css">
   <![CDATA[
    .str0 {stroke:#332C2B;stroke-width:7.62}
    .fil0 {fill:none}
   ]]>
  </style>
 </defs>
 <g id="图层_x0020_1">
  <metadata id="CorelCorpID_0Corel-Layer"/>
  <path class="fil0 str0" d="M958 5350l1935 0c99,0 180,-81 180,-179l0 -4342c0,-98 -81,-179 -180,-179l-1786 0c-99,0 -180,81 -180,179l0 4342c0,98 81,179 180,179l266 0m-172 -4521l470 0c65,0 118,53 118,118l0 1259c0,65 -53,118 -118,118l-470 0c-65,0 -117,-53 -117,-118l0 -1259c0,-65 52,-118 117,-118zm11 27l448 0c48,0 86,39 86,87l0 1042c0,20 -16,36 -36,36l-548 0c-20,0 -36,-16 -36,-36l0 -1042c0,-48 39,-87 86,-87zm269 122c-2,-19 -18,-36 -51,-38 -118,0 -214,96 -214,214 0,118 96,214 214,214 118,0 214,-96 214,-214 0,-118 -96,-214 -214,-214m251 64c10,-2 17,-6 17,-23l0 -14c0,-19 -16,-35 -36,-35l0 0c-19,0 -35,16 -35,35l0 71c0,20 16,36 35,36l0 0c20,0 36,-16 36,-36l0 -57m-452 1183c13,-3 22,-8 22,-29l0 -18c0,-25 -20,-45 -45,-45l0 0c-25,0 -45,20 -45,45l0 90c0,25 20,45 45,45l0 0c25,0 45,-20 45,-45l0 -72m43 -697c-1,-9 -9,-18 -27,-20 -62,0 -113,51 -113,113 0,63 51,113 113,113 63,0 113,-50 113,-113 0,-62 -50,-113 -113,-113m322 20c-1,-9 -9,-18 -27,-20 -62,0 -113,51 -113,113 0,63 51,113 113,113 62,0 113,-50 113,-113 0,-62 -51,-113 -113,-113m-289 413c-3,-19 -13,-27 -33,-27l-36 0c-8,0 -15,7 -15,15l0 138c0,9 7,15 15,15l117 0c9,0 15,-6 15,-15l0 -138c0,-8 -6,-15 -15,-15l-81 0m-146 243l650 0 0 145c0,53 -43,97 -96,97l-458 0c-53,0 -96,-44 -96,-97l0 -145z"/>
 </g>
</svg>
