<?xml version="1.0" encoding="UTF-8"?>
<!DOCTYPE svg PUBLIC "-//W3C//DTD SVG 1.1//EN" "http://www.w3.org/Graphics/SVG/1.1/DTD/svg11.dtd">
<!-- Creator: CorelDRAW X8 -->
<svg xmlns="http://www.w3.org/2000/svg" xml:space="preserve" width="40mm" height="60mm" version="1.1" style="shape-rendering:geometricPrecision; text-rendering:geometricPrecision; image-rendering:optimizeQuality; fill-rule:evenodd; clip-rule:evenodd"
viewBox="0 0 4000 6000"
 xmlns:xlink="http://www.w3.org/1999/xlink">
 <defs>
  <style type="text/css">
   <![CDATA[
    .str0 {stroke:black;stroke-width:7.62}
    .fil0 {fill:none}
   ]]>
  </style>
 </defs>
 <g id="图层_x0020_1">
  <metadata id="CorelCorpID_0Corel-Layer"/>
  <path class="fil0 str0" d="M863 5350l2086 0c120,0 219,-99 219,-219l0 -4262c0,-120 -99,-219 -219,-219l-1392 0c-8,0 -12,2 -20,9 -11,12 -28,21 -45,21l0 0c-17,0 -32,-8 -42,-20 -7,-9 -9,-10 -20,-10l-379 0c-120,0 -219,99 -219,219l0 4262c0,120 99,219 219,219l229 0m766 -4171c-1,-17 -16,-33 -47,-36 -112,0 -202,90 -202,202 0,111 90,201 202,201 111,0 201,-90 201,-201 0,-112 -90,-202 -201,-202m-278 150c0,-6 -5,-12 -16,-12 -39,0 -70,31 -70,70 0,38 31,70 70,70 38,0 70,-32 70,-70 0,-39 -32,-70 -70,-70m861 -381c0,-2 -1,-4 -5,-4 -12,0 -22,10 -22,22 0,12 10,22 22,22 12,0 22,-10 22,-22 0,-12 -10,-22 -22,-22m-697 783l266 0c24,0 44,19 44,44l0 265c0,24 -20,44 -44,44l-266 0c-24,0 -43,-20 -43,-44l0 -265c0,-25 19,-44 43,-44z"/>
 </g>
</svg>
