<?xml version="1.0" encoding="UTF-8"?>
<!DOCTYPE svg PUBLIC "-//W3C//DTD SVG 1.1//EN" "http://www.w3.org/Graphics/SVG/1.1/DTD/svg11.dtd">
<!-- Creator: CorelDRAW X8 -->
<svg xmlns="http://www.w3.org/2000/svg" xml:space="preserve" width="40mm" height="60mm" version="1.1" style="shape-rendering:geometricPrecision; text-rendering:geometricPrecision; image-rendering:optimizeQuality; fill-rule:evenodd; clip-rule:evenodd"
viewBox="0 0 4000 6000"
 xmlns:xlink="http://www.w3.org/1999/xlink">
 <defs>
  <style type="text/css">
   <![CDATA[
    .str0 {stroke:black;stroke-width:10}
    .fil0 {fill:none}
   ]]>
  </style>
 </defs>
 <g id="图层_x0020_1">
  <metadata id="CorelCorpID_0Corel-Layer"/>
  <path class="fil0 str0" d="M2939 1886c-5,419 -304,715 -692,689 -89,-6 -174,-22 -253,-53 -86,-34 -159,-78 -229,-141 -3,-3 -3,-9 -1,-12 34,-37 68,-76 101,-112 17,-17 51,-91 54,-130l25 -392c3,-55 -8,-98 -34,-147l-113 -216c-1,-2 0,-3 1,-4 119,-93 272,-174 449,-174 416,-1 697,273 692,692zm-1587 -15c33,-273 75,-390 262,-570 1,-1 2,-1 3,-1 1,0 2,1 2,1 75,96 144,201 190,316 21,52 35,104 32,154l-20 360c-2,50 -20,93 -54,131 -62,68 -124,137 -187,206 -1,0 -2,1 -3,1 -1,0 -2,-1 -2,-1 -175,-213 -224,-362 -223,-597zm1613 2241c-5,419 -304,715 -692,689 -185,-12 -357,-83 -481,-201 -1,-1 -1,-3 0,-5l99 -111c33,-38 51,-81 54,-131l25 -391c3,-56 -7,-104 -32,-154l-110 -217c-1,-1 0,-3 1,-4 120,-93 267,-167 444,-167 416,-1 697,273 692,692zm-1608 -25c34,-274 75,-391 262,-570 1,-1 2,-1 3,-1 1,0 2,0 2,1 76,96 145,201 191,316 20,51 34,104 31,153l-19 361c-3,50 -21,93 -55,130 -62,69 -123,134 -185,203 -1,1 -2,1 -3,1 -1,0 -2,0 -2,-1 -179,-212 -226,-358 -225,-593zm-242 -3111c4,2 7,11 7,27l0 262c0,102 -67,189 -159,220 -2,1 -4,3 -4,6l0 3487c412,195 804,288 1230,369 63,10 138,-7 173,-34 96,-74 188,-164 267,-260 129,-157 238,-321 320,-440 1,-2 2,-4 2,-7 1,-2 0,-3 -2,-4 -1,0 -3,0 -4,1 -1,2 -3,4 -6,6 -169,180 -462,412 -795,406 -229,-5 -434,-89 -586,-227 -95,-86 -174,-191 -225,-309 -47,-109 -70,-230 -72,-351 -6,-255 104,-504 290,-671 155,-138 370,-211 593,-212 233,-1 411,83 547,179 218,155 294,431 338,545 1,2 3,3 4,2 2,0 3,-1 3,-3l5 -1976c-45,462 -487,836 -891,829 -511,-2 -900,-401 -900,-898 0,-497 418,-890 900,-904 168,-4 345,42 487,137 148,99 271,215 351,318 2,1 2,-2 1,-3 -194,-309 -321,-461 -433,-575 -73,-76 -140,-137 -220,-201 -107,-62 -203,-54 -333,-11l-874 304c-5,2 -7,6 -7,10 0,2 0,3 0,5 -1,15 -4,25 -10,31"/>
 </g>
</svg>
