<?xml version="1.0" encoding="UTF-8"?>
<!DOCTYPE svg PUBLIC "-//W3C//DTD SVG 1.1//EN" "http://www.w3.org/Graphics/SVG/1.1/DTD/svg11.dtd">
<!-- Creator: CorelDRAW 2020 (64-Bit) -->
<svg xmlns="http://www.w3.org/2000/svg" xml:space="preserve" width="40mm" height="60mm" version="1.1" style="shape-rendering:geometricPrecision; text-rendering:geometricPrecision; image-rendering:optimizeQuality; fill-rule:evenodd; clip-rule:evenodd"
viewBox="0 0 4000 6000"
 xmlns:xlink="http://www.w3.org/1999/xlink"
 xmlns:xodm="http://www.corel.com/coreldraw/odm/2003">
 <defs>
  <style type="text/css">
   <![CDATA[
    .str0 {stroke:black;stroke-width:7.62;stroke-miterlimit:22.9256}
    .fil0 {fill:none}
   ]]>
  </style>
 </defs>
 <g id="图层_x0020_1">
  <metadata id="CorelCorpID_0Corel-Layer"/>
  <path class="fil0 str0" d="M847.28 5348.64c8.38,-7.2 28.75,-8.86 86.12,-8.34 732.24,-3.93 1439.17,8.99 2168.88,-7.87 22.67,-0.53 77.97,-17.99 88.28,-97.84 14.25,-1461.67 -15.23,-2917.7 -46.54,-4348.44 -15.8,-120.21 -72.66,-173.92 -244.79,-198.54 -662.19,-39.33 -1223.72,-53.37 -1921.9,23.13 -86.89,18.31 -133.29,61.35 -145.96,159.5 -52.44,817.17 -36.31,1668.08 -37.01,2503.24 -0.52,623.74 16.98,1242.99 33.32,1873.48 9.37,70.47 33.93,86.97 105.72,93.34 39.22,1.07 67.5,6.2 84.83,15.37"/>
 </g>
</svg>
