<?xml version="1.0" encoding="UTF-8"?>
<!DOCTYPE svg PUBLIC "-//W3C//DTD SVG 1.1//EN" "http://www.w3.org/Graphics/SVG/1.1/DTD/svg11.dtd">
<!-- Creator: CorelDRAW X8 -->
<svg xmlns="http://www.w3.org/2000/svg" xml:space="preserve" width="40mm" height="60mm" version="1.1" style="shape-rendering:geometricPrecision; text-rendering:geometricPrecision; image-rendering:optimizeQuality; fill-rule:evenodd; clip-rule:evenodd"
viewBox="0 0 4000 6000"
 xmlns:xlink="http://www.w3.org/1999/xlink">
 <defs>
  <style type="text/css">
   <![CDATA[
    .str0 {stroke:#332C2B;stroke-width:19.4}
    .fil0 {fill:none;fill-rule:nonzero}
   ]]>
  </style>
 </defs>
 <g id="图层_x0020_1">
  <metadata id="CorelCorpID_0Corel-Layer"/>
  <g id="_1872063746368">
   <g>
    <line class="fil0 str0" x1="3066" y1="651" x2="3066" y2= "684" />
    <line class="fil0 str0" x1="3066" y1="5257" x2="3066" y2= "5267" />
    <path class="fil0 str0" d="M3066 5267c-5,-2 -8,-5 -10,-10"/>
    <line class="fil0 str0" x1="3056" y1="5257" x2="1201" y2= "5254" />
    <path class="fil0 str0" d="M1201 5254c-141,0 -258,-116 -259,-255"/>
    <line class="fil0 str0" x1="942" y1="4999" x2="934" y2= "933" />
    <path class="fil0 str0" d="M934 933c7,-158 114,-277 255,-282"/>
    <line class="fil0 str0" x1="1189" y1="651" x2="1895" y2= "651" />
    <path class="fil0 str0" d="M1895 651c19,1 23,2 29,10 8,10 9,16 9,67 1,42 28,70 67,70 29,0 56,-20 63,-49 3,-10 3,-13 3,-53 0,-40 5,-45 46,-46"/>
    <polyline class="fil0 str0" points="2112,650 2821,651 2824,652 "/>
    <path class="fil0 str0" d="M2824 652c76,8 154,57 192,119 25,40 42,91 44,124"/>
    <line class="fil0 str0" x1="3060" y1="895" x2="3058" y2= "5027" />
    <path class="fil0 str0" d="M3058 5027c0,55 -61,151 -119,187 -46,28 -83,39 -145,43 -59,4 -96,31 -124,93"/>
   </g>
  </g>
 </g>
</svg>
