<?xml version="1.0" encoding="UTF-8"?>
<!DOCTYPE svg PUBLIC "-//W3C//DTD SVG 1.1//EN" "http://www.w3.org/Graphics/SVG/1.1/DTD/svg11.dtd">
<!-- Creator: CorelDRAW X8 -->
<svg xmlns="http://www.w3.org/2000/svg" xml:space="preserve" width="40mm" height="60mm" version="1.1" style="shape-rendering:geometricPrecision; text-rendering:geometricPrecision; image-rendering:optimizeQuality; fill-rule:evenodd; clip-rule:evenodd"
viewBox="0 0 4000 6000"
 xmlns:xlink="http://www.w3.org/1999/xlink">
 <defs>
  <style type="text/css">
   <![CDATA[
    .str0 {stroke:black;stroke-width:7.62}
    .fil0 {fill:none}
   ]]>
  </style>
 </defs>
 <g id="图层_x0020_1">
  <metadata id="CorelCorpID_0Corel-Layer"/>
  <path class="fil0 str0" d="M889 5350l2146 0c60,0 110,-50 110,-110l0 -4480c0,-60 -49,-110 -110,-110l-2070 0c-60,0 -110,50 -110,110l0 4480c0,60 50,110 110,110l33 0m1420 -4587c-1,-5 -6,-10 -16,-11 -35,0 -65,29 -65,65 0,36 30,65 65,65 36,0 65,-29 65,-65 0,-36 -29,-65 -65,-65m-498 59c-5,-20 -16,-35 -64,-35l-41 0c-21,0 -39,17 -39,39l0 0c0,22 18,39 39,39l410 0c22,0 40,-17 40,-39l0 0c0,-22 -18,-39 -40,-39l-369 0m-420 11c-3,-12 -8,-21 -28,-21l-17 0c-24,0 -43,20 -43,43l0 0c0,24 19,43 43,43l85 0c24,0 43,-19 43,-43l0 0c0,-23 -19,-43 -43,-43l-68 0m-179 -16c0,-6 -6,-12 -18,-13 -42,0 -77,34 -77,77 0,42 35,76 77,76 43,0 77,-34 77,-76 0,-43 -34,-77 -77,-77"/>
 </g>
</svg>
