<?xml version="1.0" encoding="UTF-8"?>
<!DOCTYPE svg PUBLIC "-//W3C//DTD SVG 1.1//EN" "http://www.w3.org/Graphics/SVG/1.1/DTD/svg11.dtd">
<!-- Creator: CorelDRAW X8 -->
<svg xmlns="http://www.w3.org/2000/svg" xml:space="preserve" width="40mm" height="60mm" version="1.1" style="shape-rendering:geometricPrecision; text-rendering:geometricPrecision; image-rendering:optimizeQuality; fill-rule:evenodd; clip-rule:evenodd"
viewBox="0 0 4000 6000"
 xmlns:xlink="http://www.w3.org/1999/xlink">
 <defs>
  <style type="text/css">
   <![CDATA[
    .str0 {stroke:black;stroke-width:7.62}
    .fil0 {fill:none}
   ]]>
  </style>
 </defs>
 <g id="图层_x0020_1">
  <metadata id="CorelCorpID_0Corel-Layer"/>
  <path class="fil0 str0" d="M843 5331l0 -4600c0,-36 30,-64 66,-65 374,-11 716,-16 1091,-16 375,0 717,5 1091,16 36,1 66,29 66,65l0 4529c0,36 -30,64 -66,65 -374,13 -716,25 -1091,25 -374,0 -720,-7 -1091,-25 -36,-2 -66,-29 -66,-65l0 -88m1492 -4439c0,-5 -5,-9 -14,-10 -31,0 -57,25 -57,57 0,31 26,57 57,57 32,0 57,-26 57,-57 0,-32 -25,-57 -57,-57m-364 53c-5,-18 -15,-33 -61,-33l-40 0c-20,0 -37,17 -37,37l0 0c0,21 17,38 37,38l284 0c21,0 37,-17 37,-38l0 0c0,-20 -16,-37 -37,-37l-244 0m702 12c-4,-13 -8,-23 -32,-23l-19 0c-27,0 -49,22 -49,49l0 0c0,27 22,49 49,49l98 0c27,0 49,-22 49,-49l0 0c0,-27 -22,-49 -49,-49l-79 0"/>
 </g>
</svg>
