<?xml version="1.0" encoding="UTF-8"?>
<!DOCTYPE svg PUBLIC "-//W3C//DTD SVG 1.1//EN" "http://www.w3.org/Graphics/SVG/1.1/DTD/svg11.dtd">
<!-- Creator: CorelDRAW X8 -->
<svg xmlns="http://www.w3.org/2000/svg" xml:space="preserve" width="40mm" height="60mm" version="1.1" style="shape-rendering:geometricPrecision; text-rendering:geometricPrecision; image-rendering:optimizeQuality; fill-rule:evenodd; clip-rule:evenodd"
viewBox="0 0 4000 6000"
 xmlns:xlink="http://www.w3.org/1999/xlink">
 <defs>
  <style type="text/css">
   <![CDATA[
    .str0 {stroke:#332C2B;stroke-width:7.62}
    .fil0 {fill:none;fill-rule:nonzero}
   ]]>
  </style>
 </defs>
 <g id="Katman_x0020_1">
  <metadata id="CorelCorpID_0Corel-Layer"/>
  <g id="_2235831910032">
   <path class="fil0 str0" d="M2953 661l45 358 4 18c-35,-91 -123,-156 -226,-156l-60 0 0 -177 -1432 0 0 177 -60 0c-101,0 -188,62 -224,150l3 -20 44 -357 -178 -4 0 4700 169 0 -36 -349 -3 -20c35,90 123,154 225,154l60 0 0 169 1432 0 0 -169 60 0c103,0 190,-64 226,-155l-3 17 -37 350 169 1 0 -4689 -178 2z"/>
   <path class="fil0 str0" d="M941 2655c0,11 -9,19 -20,19 -11,0 -20,-8 -20,-19l0 -240c0,-11 9,-20 20,-20 11,0 20,9 20,20l0 240z"/>
   <path class="fil0 str0" d="M942 2109c0,12 -9,22 -21,22 -12,0 -21,-10 -21,-22l0 -567c0,-12 9,-22 21,-22 12,0 21,10 21,22l0 567z"/>
   <path class="fil0 str0" d="M2201 751c13,0 24,10 24,23 0,13 -11,24 -24,24 -13,0 -23,-11 -23,-24 0,-13 10,-23 23,-23z"/>
   <path class="fil0 str0" d="M1872 1734l2 -24c0,-65 42,-115 115,-115l10 0 12 0c73,0 115,50 115,115l2 24c1,17 1,36 0,54l-2 23c0,65 -42,118 -115,118l-12 0 -10 0c-73,0 -115,-53 -115,-118l-2 -23c-1,-18 -1,-37 0,-54z"/>
   <path class="fil0 str0" d="M1368 5239c0,7 -6,14 -14,14 -8,0 -14,-7 -14,-14l0 -22c0,-8 6,-14 14,-14 8,0 14,6 14,14l0 22z"/>
   <path class="fil0 str0" d="M1373 1773c0,26 -21,47 -47,47l-15 0c-26,0 -47,-21 -47,-47l0 -19c0,-26 21,-47 47,-47l15 0c26,0 47,21 47,47l0 19z"/>
   <path class="fil0 str0" d="M1416 5239c0,7 -6,14 -14,14 -8,0 -14,-7 -14,-14l0 -22c0,-8 6,-14 14,-14 8,0 14,6 14,14l0 22z"/>
   <path class="fil0 str0" d="M1343 1620l-51 0c-58,0 -105,-46 -105,-104l0 -300c0,-57 47,-104 105,-104l51 0c58,0 105,47 105,104l0 300c0,58 -47,104 -105,104z"/>
   <path class="fil0 str0" d="M1464 5239c0,7 -6,14 -14,14 -7,0 -14,-7 -14,-14l0 -22c0,-8 7,-14 14,-14 8,0 14,6 14,14l0 22z"/>
   <path class="fil0 str0" d="M1512 5239c0,7 -6,14 -14,14 -8,0 -14,-7 -14,-14l0 -22c0,-8 6,-14 14,-14 8,0 14,6 14,14l0 22z"/>
   <path class="fil0 str0" d="M1560 5239c0,7 -6,14 -14,14 -8,0 -14,-7 -14,-14l0 -22c0,-8 6,-14 14,-14 8,0 14,6 14,14l0 22z"/>
   <path class="fil0 str0" d="M1666 5254c-13,0 -23,-10 -23,-22 0,-13 10,-23 23,-23 12,0 22,10 22,23 0,12 -10,22 -22,22z"/>
   <path class="fil0 str0" d="M2123 5230c0,21 -18,39 -40,39l-161 0c-22,0 -39,-18 -39,-39l0 -8c0,-22 17,-40 39,-40l161 0c22,0 40,18 40,40l0 8z"/>
   <path class="fil0 str0" d="M2483 5269c-29,0 -52,-24 -52,-54 0,-30 23,-54 52,-54 29,0 52,24 52,54 0,30 -23,54 -52,54z"/>
   <path class="fil0 str0" d="M3071 1645c-9,0 -15,-7 -15,-15 0,-8 6,-15 15,-15 8,0 15,7 15,15 0,8 -7,15 -15,15z"/>
   <path class="fil0 str0" d="M3110 1567c0,20 -17,37 -38,37 -21,0 -38,-17 -38,-37l0 -386c0,-21 17,-38 38,-38 21,0 38,17 38,38l0 386z"/>
   <path class="fil0 str0" d="M1316 1312c-37,0 -67,-30 -67,-67 0,-38 30,-68 67,-68 38,0 68,30 68,68 0,37 -30,67 -68,67zm0 243c-37,0 -67,-30 -67,-67 0,-37 30,-68 67,-68 38,0 68,31 68,68 0,37 -30,67 -68,67zm22 -424l-44 0c-48,0 -88,39 -88,88l0 294c0,49 40,89 88,89l44 0c49,0 89,-40 89,-89l0 -294c0,-49 -40,-88 -89,-88z"/>
  </g>
 </g>
</svg>
