<?xml version="1.0" encoding="UTF-8"?>
<!DOCTYPE svg PUBLIC "-//W3C//DTD SVG 1.1//EN" "http://www.w3.org/Graphics/SVG/1.1/DTD/svg11.dtd">
<!-- Creator: CorelDRAW X8 -->
<svg xmlns="http://www.w3.org/2000/svg" xml:space="preserve" width="40mm" height="60mm" version="1.1" style="shape-rendering:geometricPrecision; text-rendering:geometricPrecision; image-rendering:optimizeQuality; fill-rule:evenodd; clip-rule:evenodd"
viewBox="0 0 4000 6000"
 xmlns:xlink="http://www.w3.org/1999/xlink">
 <defs>
  <style type="text/css">
   <![CDATA[
    .str0 {stroke:black;stroke-width:7.62}
    .fil0 {fill:none}
   ]]>
  </style>
 </defs>
 <g id="图层_x0020_1">
  <metadata id="CorelCorpID_0Corel-Layer"/>
  <path class="fil0 str0" d="M3473 2955c0,-3 -3,-6 -9,-6 -20,0 -37,16 -37,37 0,20 17,37 37,37 21,0 37,-17 37,-37 0,-21 -16,-37 -37,-37m-1512 2272c-4,-15 -10,-26 -36,-26l-22 0c-31,0 -56,25 -56,55l0 0c0,31 25,56 56,56l199 0c30,0 55,-25 55,-56l0 0c0,-30 -25,-55 -55,-55l-177 0m-1281 155c-13,-12 -42,-14 -61,-14 -60,0 -110,-50 -110,-110l0 -4466c0,-61 50,-110 110,-110l2852 0c60,0 110,49 110,110l0 4466c0,60 -50,110 -110,110l-2923 0"/>
 </g>
</svg>
