<?xml version="1.0" encoding="UTF-8"?>
<!DOCTYPE svg PUBLIC "-//W3C//DTD SVG 1.1//EN" "http://www.w3.org/Graphics/SVG/1.1/DTD/svg11.dtd">
<!-- Creator: CorelDRAW X8 -->
<svg xmlns="http://www.w3.org/2000/svg" xml:space="preserve" width="40mm" height="60mm" version="1.1" style="shape-rendering:geometricPrecision; text-rendering:geometricPrecision; image-rendering:optimizeQuality; fill-rule:evenodd; clip-rule:evenodd"
viewBox="0 0 4000 6000"
 xmlns:xlink="http://www.w3.org/1999/xlink">
 <defs>
  <style type="text/css">
   <![CDATA[
    .str0 {stroke:#332C2B;stroke-width:7.62}
    .fil0 {fill:none}
   ]]>
  </style>
 </defs>
 <g id="图层_x0020_1">
  <metadata id="CorelCorpID_0Corel-Layer"/>
  <path class="fil0 str0" d="M836 5350l2090 0c131,0 238,-108 238,-240l0 -4220c0,-132 -107,-240 -238,-240l-514 0c-251,0 -566,0 -795,0l-530 0c-131,0 -238,108 -238,240l0 4220c0,132 107,240 238,240l224 0m1258 -4630c1,-18 -21,-33 -29,-34 -29,0 -52,23 -52,52 0,29 23,52 52,52 28,0 51,-23 51,-52 0,-29 -23,-52 -51,-52m244 50c-5,-17 -14,-31 -56,-31l-12 0c-19,0 -35,15 -35,34l0 0c0,19 16,35 35,35l130 0c19,0 34,-16 34,-35l0 0c0,-19 -15,-34 -34,-34l-118 0"/>
 </g>
</svg>
