<?xml version="1.0" encoding="UTF-8"?>
<!DOCTYPE svg PUBLIC "-//W3C//DTD SVG 1.1//EN" "http://www.w3.org/Graphics/SVG/1.1/DTD/svg11.dtd">
<!-- Creator: CorelDRAW -->
<svg xmlns="http://www.w3.org/2000/svg" xml:space="preserve" width="40mm" height="60mm" style="shape-rendering:geometricPrecision; text-rendering:geometricPrecision; image-rendering:optimizeQuality; fill-rule:evenodd; clip-rule:evenodd"
viewBox="0 0 40 60"
 xmlns:xlink="http://www.w3.org/1999/xlink">
 <defs>
  <style type="text/css">
   <![CDATA[
    .str0 {stroke:#1F1A17;stroke-width:0.194}
    .fil0 {fill:none;fill-rule:nonzero}
   ]]>
  </style>
 </defs>
 <g id="图层_x0020_1">
  <metadata id="CorelCorpID_0Corel-Layer"/>
  <path class="fil0 str0" d="M19.9587 49.9463l-0.6496 -0.0022m11.9126 1.6826c-0.0554,0.337 -0.3536,0.8746 -0.6518,1.1728 -0.4589,0.4578 -0.8812,0.6263 -1.7502,0.6972m2.4397 -42.7376l-0.0377 40.8676m0.0111 -43.2397c0.0288,0.0576 0.0288,0.0576 0.0266,2.3721m-0.0399 -2.4076l0.0133 0.0355m-2.4763 -1.8656c0.6085,0.0145 0.7471,0.0377 1.063,0.1796 0.7138,0.3215 1.1617,0.8502 1.4,1.6505m-11.1976 -1.8445l8.7346 0.0144m-20.0065 14.5707c-0.0278,-9.0827 -0.0012,-12.3105 0.1053,-12.673 0.2859,-0.9776 0.8756,-1.5873 1.7968,-1.8522 0.2471,-0.0721 0.6961,-0.0743 9.3698,-0.0599m-11.1788 44.4979l-0.0931 -29.9128m2.4807 32.3991c-1.1761,-0.0266 -2.0174,-0.6839 -2.3522,-1.8389 -0.0288,-0.1009 -0.0343,-0.1974 -0.0354,-0.6474m9.9229 2.4918l-7.5353 -0.0055m17.62 0.0029c-4.3961,0.0089 -5.6886,0.006 -10.0847,0.0026m4.5635 -45.205l0.5099 -0.0012m-0.0632 0c0.4799,0 0.6794,-0.1441 0.6794,-0.491 0,-0.3835 -0.2028,-0.4955 -0.9033,-0.4955 -0.3337,0 -0.4955,0.0133 -0.6086,0.0466 -0.112,0.0332 -0.1773,0.0897 -0.2439,0.2094 -0.0421,0.0743 -0.0631,0.1575 -0.0631,0.2428 0,0.3425 0.2084,0.49 0.6928,0.4889m-4.0204 41.6524c-0.6673,-0.0022 -0.8003,0.0189 -1.0907,0.1763 -0.4112,0.2228 -0.6706,0.6728 -0.6706,1.1627 0,0.7571 0.5431,1.2903 1.3534,1.3258 0.1098,0.0055 0.5908,0.0088 1.1495,0.0088 0.8978,0 1.2071,-0.0088 1.442,-0.0432 0.2339,-0.0344 0.3559,-0.0876 0.5631,-0.2483 0.3004,-0.2317 0.4933,-0.6429 0.4933,-1.053 0,-0.5365 -0.3204,-1.0198 -0.807,-1.2171 -0.2538,-0.1031 -0.3668,-0.1153 -1.0075,-0.1142 -0.3214,0.0011 -0.6429,0.0022 -0.9643,0.0044m5.8193 -42.3771c0.1391,0 0.252,0.1118 0.252,0.2496 0,0.1378 -0.1129,0.2496 -0.252,0.2496 -0.1391,0 -0.2519,-0.1118 -0.2519,-0.2496 0,-0.1378 0.1128,-0.2496 0.2519,-0.2496zm-8.505 -0.1714c0.2393,0 0.4334,0.1932 0.4334,0.4316 0,0.2383 -0.1941,0.4315 -0.4334,0.4315 -0.2394,0 -0.4334,-0.1932 -0.4334,-0.4315 0,-0.2384 0.194,-0.4316 0.4334,-0.4316zm1.3522 0.1778l0.7666 0 2.4356 0c0.0525,0 0.0954,0.0429 0.0954,0.0954l0 0.2709c0,0.0524 -0.0429,0.0954 -0.0954,0.0954l-2.7893 0 -0.4129 0c-0.0524,0 -0.0954,-0.043 -0.0954,-0.0954l0 -0.2709c0,-0.0525 0.043,-0.0954 0.0954,-0.0954z"/>
 </g>
</svg>
