<?xml version="1.0" encoding="UTF-8"?>
<!DOCTYPE svg PUBLIC "-//W3C//DTD SVG 1.1//EN" "http://www.w3.org/Graphics/SVG/1.1/DTD/svg11.dtd">
<!-- Creator: CorelDRAW X8 -->
<svg xmlns="http://www.w3.org/2000/svg" xml:space="preserve" width="40mm" height="60mm" version="1.1" style="shape-rendering:geometricPrecision; text-rendering:geometricPrecision; image-rendering:optimizeQuality; fill-rule:evenodd; clip-rule:evenodd"
viewBox="0 0 4000 6000"
 xmlns:xlink="http://www.w3.org/1999/xlink">
 <defs>
  <style type="text/css">
   <![CDATA[
    .str0 {stroke:#332C2B;stroke-width:20}
    .fil0 {fill:none}
   ]]>
  </style>
 </defs>
 <g id="图层_x0020_1">
  <metadata id="CorelCorpID_0Corel-Layer"/>
  <path class="fil0 str0" d="M-53097 17781l21891 0c275,0 500,-225 500,-500l0 -29500c0,-275 -225,-500 -500,-500l-21100 0c-275,0 -500,225 -500,500l0 29500c0,275 225,500 500,500l196 0c412,11 716,82 913,215"/>
  <path class="fil0 str0" d="M325 5317l3289 0c42,0 77,-34 77,-76l0 -4514c0,-43 -35,-77 -77,-77l-3228 0c-42,0 -77,34 -77,77l0 4514c0,42 35,76 77,76l30 0c63,2 109,13 139,33"/>
 </g>
</svg>
