<?xml version="1.0" encoding="UTF-8"?>
<!DOCTYPE svg PUBLIC "-//W3C//DTD SVG 1.1//EN" "http://www.w3.org/Graphics/SVG/1.1/DTD/svg11.dtd">
<!-- Creator: CorelDRAW -->
<svg xmlns="http://www.w3.org/2000/svg" xml:space="preserve" width="40mm" height="60mm" style="shape-rendering:geometricPrecision; text-rendering:geometricPrecision; image-rendering:optimizeQuality; fill-rule:evenodd; clip-rule:evenodd"
viewBox="0 0 40 60"
 xmlns:xlink="http://www.w3.org/1999/xlink">
 <defs>
  <style type="text/css">
   <![CDATA[
    .str0 {stroke:#1F1A17;stroke-width:0.194}
    .fil0 {fill:none;fill-rule:nonzero}
   ]]>
  </style>
 </defs>
 <g id="图层_x0020_1">
  <metadata id="CorelCorpID_0Corel-Layer"/>
  <g id="_119736008">
   <line id="_164022912" class="fil0 str0" x1="20.0713" y1="7.4153" x2="22.4317" y2= "7.3914" />
   <path id="_164022576" class="fil0 str0" d="M22.4317 7.3914c0.7232,-0.0064 1.0262,0.0196 1.2107,0.1109 0.1829,0.089 0.2438,0.2367 0.2438,0.5886 0,0.228 -0.0642,0.4322 -0.1647,0.5169"/>
   <line id="_164022016" class="fil0 str0" x1="23.7215" y1="8.6078" x2="23.7083" y2= "8.6186" />
   <path id="_163972288" class="fil0 str0" d="M23.7083 8.6186c-0.1894,0.1629 -0.1894,0.1629 -3.4921,0.1695"/>
   <line id="_163972232" class="fil0 str0" x1="20.2162" y1="8.7881" x2="19.9741" y2= "8.7902" />
   <path id="_163972008" class="fil0 str0" d="M19.9741 8.7902c-2.5054,0.0044 -3.2104,-0.0087 -3.5629,-0.0716 -0.3525,-0.0609 -0.4381,-0.1847 -0.4381,-0.6212 0,-0.4779 0.1597,-0.6603 0.6028,-0.6885"/>
   <line id="_88315288" class="fil0 str0" x1="16.5759" y1="7.4089" x2="20.3628" y2= "7.4153" />
  </g>
  <path class="fil0 str0" d="M31.9128 48.7395c0.0078,-8.6151 0.0093,-14.6104 0.003,-23.227"/>
  <line class="fil0 str0" x1="31.9158" y1="25.5125" x2="31.9064" y2= "11.1415" />
  <path class="fil0 str0" d="M31.9064 11.1415c-0.1022,-2.1204 -1.8642,-3.799 -4.3759,-4.1684 -1.9773,-0.2923 -4.9181,-0.4731 -7.6657,-0.4731 -2.3058,0 -5.6034,0.209 -7.4079,0.47 -2.3986,0.3473 -4.0348,1.8138 -4.3554,3.9074 -0.022,0.1478 -0.0252,0.2217 -0.0252,0.7593"/>
  <line class="fil0 str0" x1="8.0763" y1="11.6367" x2="8.0795" y2= "48.7657" />
  <path class="fil0 str0" d="M8.0795 48.7657c0.0817,2.0088 1.8657,3.6906 4.3821,4.1307 2.0355,0.3568 5.165,0.6036 7.639,0.6036 3.1059,0 6.8939,-0.3741 8.3305,-0.8236 1.9978,-0.6256 3.2882,-2.0481 3.4564,-3.8132"/>
  <line class="fil0 str0" x1="31.8875" y1="48.8632" x2="31.9237" y2= "48.2974" />
 </g>
</svg>
