<?xml version="1.0" encoding="UTF-8"?>
<!DOCTYPE svg PUBLIC "-//W3C//DTD SVG 1.1//EN" "http://www.w3.org/Graphics/SVG/1.1/DTD/svg11.dtd">
<!-- Creator: CorelDRAW X8 -->
<svg xmlns="http://www.w3.org/2000/svg" xml:space="preserve" width="40mm" height="60mm" version="1.1" style="shape-rendering:geometricPrecision; text-rendering:geometricPrecision; image-rendering:optimizeQuality; fill-rule:evenodd; clip-rule:evenodd"
viewBox="0 0 4000 6000"
 xmlns:xlink="http://www.w3.org/1999/xlink">
 <defs>
  <style type="text/css">
   <![CDATA[
    .str0 {stroke:#332C2B;stroke-width:7.62}
    .fil0 {fill:none}
   ]]>
  </style>
 </defs>
 <g id="图层_x0020_1">
  <metadata id="CorelCorpID_0Corel-Layer"/>
  <path class="fil0 str0" d="M2824 5350l-1662 0c-8,0 -14,-6 -14,-14l0 -146c0,-17 -4,-27 -18,-29 -72,-8 -130,-62 -144,-132l-2 0c0,40 -1,196 7,250 2,11 -3,18 -20,18l-165 0c-8,0 -14,-7 -14,-14l0 -4585c0,-7 6,-13 14,-13l193 0c7,0 14,6 14,13 -8,80 -26,191 -29,277l5 0c19,-70 84,-121 160,-121 5,0 9,-5 9,-13l0 -177c0,-8 6,-14 13,-14l1641 0c7,0 13,6 13,14l0 160c0,22 11,30 33,30 75,0 140,51 159,121l4 0c-3,-86 -20,-197 -27,-277 -1,-7 6,-13 13,-13l187 0c8,0 14,6 14,13l0 4585c0,7 -6,14 -14,14l-160 0c-16,0 -21,-7 -19,-18 8,-54 7,-210 7,-250l-2 0c-15,76 -82,133 -162,133 -17,0 -20,5 -20,19l0 155c0,8 -6,14 -14,14zm-1322 -113c1,-23 -26,-41 -35,-41 -34,0 -62,27 -62,62 0,34 28,62 62,62 34,0 62,-28 62,-62 0,-35 -28,-62 -62,-62m236 52c0,-10 -12,-18 -16,-18 -15,0 -28,12 -28,27 0,16 13,28 28,28 15,0 27,-12 27,-28 0,-15 -12,-27 -27,-27m348 15c-8,-28 -23,-49 -90,-49l-11 0c-30,0 -55,25 -55,55l0 0c0,30 25,55 55,55l144 0c31,0 55,-25 55,-55l0 0c0,-30 -24,-55 -55,-55l-133 0m511 56c-4,-13 -11,-24 -45,-24l-29 0c-15,0 -27,12 -27,27l0 0c0,16 12,28 27,28l286 0c15,0 28,-12 28,-28l0 0c0,-15 -13,-27 -28,-27l-257 0m686 -2571c-16,5 -29,13 -29,52l0 54c0,17 15,31 32,31l0 0c18,0 32,-14 32,-31l0 -261c0,-17 -14,-31 -32,-31l0 0c-17,0 -32,14 -32,31l0 207m31 -429c-16,5 -28,13 -28,52l0 50c0,17 14,32 32,32l0 0c17,0 31,-15 31,-32l0 -257c0,-17 -14,-31 -31,-31l0 0c-18,0 -32,14 -32,31l0 207m22 -846c-18,5 -32,15 -32,59l0 142c0,19 16,36 36,36l0 0c19,0 35,-16 35,-36l0 -462c0,-19 -16,-36 -35,-36l0 0c-20,0 -36,17 -36,36l0 320m-1481 -226c-9,2 -16,6 -16,22l0 8c0,19 15,35 34,35l0 0c19,0 35,-16 35,-35l0 -49c0,-19 -16,-35 -35,-35l0 0c-19,0 -34,16 -34,35l0 41m-174 -203c1,-34 -39,-61 -54,-62 -51,0 -93,42 -93,93 0,52 42,94 93,94 52,0 94,-42 94,-94 0,-51 -42,-93 -94,-93m51 400c2,-32 -37,-58 -51,-59 -49,0 -89,40 -89,90 0,49 40,89 89,89 50,0 90,-40 90,-89 0,-50 -40,-90 -90,-90m51 324c2,-33 -37,-58 -51,-59 -49,0 -89,40 -89,89 0,50 40,90 89,90 50,0 90,-40 90,-90 0,-49 -40,-89 -90,-89m51 314c2,-33 -37,-59 -51,-60 -49,0 -89,41 -89,90 0,49 40,90 89,90 50,0 90,-41 90,-90 0,-49 -40,-90 -90,-90m0 -897l0 0c74,0 134,60 134,133l0 849c0,74 -60,134 -134,134l0 0c-73,0 -133,-60 -133,-134l0 -849c0,-73 60,-133 133,-133zm0 -31l0 0c91,0 166,74 166,165l0 855c0,91 -75,165 -166,165l0 0c-91,0 -165,-74 -165,-165l0 -855c0,-91 74,-165 165,-165zm-449 1474c-15,5 -28,13 -28,52l0 50c0,17 14,32 32,32l0 0c17,0 32,-15 32,-32l0 -257c0,-17 -15,-31 -32,-31l0 0c-18,0 -32,14 -32,31l0 207"/>
 </g>
</svg>
