<?xml version="1.0" encoding="UTF-8"?>
<!DOCTYPE svg PUBLIC "-//W3C//DTD SVG 1.1//EN" "http://www.w3.org/Graphics/SVG/1.1/DTD/svg11.dtd">
<!-- Creator: CorelDRAW X8 -->
<svg xmlns="http://www.w3.org/2000/svg" xml:space="preserve" width="40mm" height="60mm" version="1.1" style="shape-rendering:geometricPrecision; text-rendering:geometricPrecision; image-rendering:optimizeQuality; fill-rule:evenodd; clip-rule:evenodd"
viewBox="0 0 4000 6000"
 xmlns:xlink="http://www.w3.org/1999/xlink">
 <defs>
  <style type="text/css">
   <![CDATA[
    .str0 {stroke:black;stroke-width:10}
    .fil0 {fill:none}
   ]]>
  </style>
 </defs>
 <g id="图层_x0020_1">
  <metadata id="CorelCorpID_0Corel-Layer"/>
  <path class="fil0 str0" d="M1034 5319l1819 0c108,0 196,-88 196,-196l0 -4277c0,-108 -88,-196 -196,-196l-596 0c-23,0 -36,9 -36,40l0 43c0,46 -38,84 -84,84l-258 0c-46,0 -84,-38 -84,-84l0 -39c0,-31 -12,-44 -37,-44l-611 0c-108,0 -196,88 -196,196l0 4277c0,108 88,196 196,196l23 0c26,0 66,16 87,31"/>
 </g>
</svg>
