<?xml version="1.0" encoding="UTF-8"?>
<!DOCTYPE svg PUBLIC "-//W3C//DTD SVG 1.1//EN" "http://www.w3.org/Graphics/SVG/1.1/DTD/svg11.dtd">
<!-- Creator: CorelDRAW X8 -->
<svg xmlns="http://www.w3.org/2000/svg" xml:space="preserve" width="40mm" height="60mm" version="1.1" style="shape-rendering:geometricPrecision; text-rendering:geometricPrecision; image-rendering:optimizeQuality; fill-rule:evenodd; clip-rule:evenodd"
viewBox="0 0 4000 6000"
 xmlns:xlink="http://www.w3.org/1999/xlink">
 <defs>
  <style type="text/css">
   <![CDATA[
    .str0 {stroke:#332C2B;stroke-width:10}
    .fil0 {fill:none}
   ]]>
  </style>
 </defs>
 <g id="图层_x0020_1">
  <metadata id="CorelCorpID_0Corel-Layer"/>
  <path class="fil0 str0" d="M1738 795c0,-18 -20,-32 -28,-32 -27,0 -49,21 -49,49 0,27 22,48 49,48 27,0 49,-21 49,-48 0,-28 -22,-49 -49,-49m276 46c-7,-24 -20,-44 -80,-44l-51 0c-27,0 -49,22 -49,49l0 0c0,27 22,49 49,49l269 0c27,0 49,-22 49,-49l0 0c0,-27 -22,-49 -49,-49l-218 0m-908 4585l1867 0c126,0 228,-103 228,-228l0 -4244c0,-125 -102,-228 -228,-228l-1730 0c-126,0 -228,103 -228,228l0 4244c0,125 102,228 228,228l226 0"/>
 </g>
</svg>
