<?xml version="1.0" encoding="UTF-8"?>
<!DOCTYPE svg PUBLIC "-//W3C//DTD SVG 1.1//EN" "http://www.w3.org/Graphics/SVG/1.1/DTD/svg11.dtd">
<!-- Creator: CorelDRAW X8 -->
<svg xmlns="http://www.w3.org/2000/svg" xml:space="preserve" width="40mm" height="60mm" version="1.1" style="shape-rendering:geometricPrecision; text-rendering:geometricPrecision; image-rendering:optimizeQuality; fill-rule:evenodd; clip-rule:evenodd"
viewBox="0 0 4000 6000"
 xmlns:xlink="http://www.w3.org/1999/xlink">
 <defs>
  <style type="text/css">
   <![CDATA[
    .str0 {stroke:#332C2B;stroke-width:20}
    .fil0 {fill:none}
   ]]>
  </style>
 </defs>
 <g id="图层_x0020_1">
  <metadata id="CorelCorpID_0Corel-Layer"/>
  <path class="fil0 str0" d="M1253 5350c1,-3 17,-72 -100,-72 0,0 -3,0 -3,0 -98,0 -178,-80 -178,-178l0 -4271c0,-99 80,-179 178,-179l506 0 36 27 228 0c0,0 30,-2 29,24l0 33c0,33 28,60 61,60l0 0c34,0 61,-27 61,-60l0 -33c0,-26 36,-24 36,-24l223 0 36 -27 513 0c99,0 179,80 179,179l0 4271c0,98 -80,178 -179,178l-1937 0"/>
  <path class="fil0 str0" d="M-987 5636c-11,-2 -241,-57 -240,336 0,2 0,10 0,10 -1,330 -271,600 -600,600l-14355 0c-330,0 -600,-270 -600,-600l0 -1698 90 -121 0 -766c0,0 -4,-101 82,-100l110 0c112,0 203,-92 203,-204l0 0c0,-112 -91,-204 -203,-204l-110 0c-88,0 -82,-120 -82,-120l0 -752 -90 -119 0 -1727c0,-330 270,-600 600,-600l14355 0c329,0 600,271 600,600l0 6511"/>
 </g>
</svg>
