<?xml version="1.0" encoding="UTF-8"?>
<!DOCTYPE svg PUBLIC "-//W3C//DTD SVG 1.1//EN" "http://www.w3.org/Graphics/SVG/1.1/DTD/svg11.dtd">
<!-- Creator: CorelDRAW X8 -->
<svg xmlns="http://www.w3.org/2000/svg" xml:space="preserve" width="40mm" height="60mm" version="1.1" style="shape-rendering:geometricPrecision; text-rendering:geometricPrecision; image-rendering:optimizeQuality; fill-rule:evenodd; clip-rule:evenodd"
viewBox="0 0 4000 6000"
 xmlns:xlink="http://www.w3.org/1999/xlink">
 <defs>
  <style type="text/css">
   <![CDATA[
    .str0 {stroke:#332C2B;stroke-width:10}
    .fil0 {fill:none;fill-rule:nonzero}
   ]]>
  </style>
 </defs>
 <g id="图层_x0020_1">
  <metadata id="CorelCorpID_0Corel-Layer"/>
  <g id="_2931074437504">
   <g>
    <line class="fil0 str0" x1="3124" y1="650" x2="3124" y2= "681" />
    <polyline class="fil0 str0" points="876,2998 877,3008 876,3008 876,5013 "/>
    <path class="fil0 str0" d="M876 5013c2,106 24,178 67,221 38,38 109,72 182,86 74,15 534,30 888,30 221,0 433,-5 722,-18 130,-6 167,-12 232,-40 115,-50 154,-122 154,-287"/>
    <line class="fil0 str0" x1="3121" y1="5005" x2="3124" y2= "946" />
    <path class="fil0 str0" d="M3124 946c-5,-104 -44,-180 -116,-223 -34,-21 -85,-35 -162,-45 -94,-12 -548,-27 -835,-27 -224,0 -450,5 -679,16"/>
    <line class="fil0 str0" x1="1332" y1="667" x2="1284" y2= "670" />
    <path class="fil0 str0" d="M1284 670c-124,6 -124,6 -164,13"/>
    <line class="fil0 str0" x1="1120" y1="683" x2="1105" y2= "686" />
    <path class="fil0 str0" d="M1105 686c-87,16 -124,35 -165,80 -40,45 -60,102 -63,181"/>
    <line class="fil0 str0" x1="877" y1="947" x2="877" y2= "3039" />
    <line class="fil0 str0" x1="1996" y1="4925" x2="1996" y2= "4935" />
    <path class="fil0 str0" d="M1996 4935c7,0 10,-3 11,-10"/>
    <line class="fil0 str0" x1="2007" y1="4925" x2="2442" y2= "4927" />
    <path class="fil0 str0" d="M2442 4927c134,0 177,-1 196,-7 55,-18 93,-69 93,-126 0,-55 -35,-104 -90,-125 -17,-7 -30,-7 -641,-7 -336,0 -252,0 -589,2 -40,0 -48,1 -59,5 -54,21 -89,69 -89,126 0,59 42,113 99,127 8,2 18,3 41,3"/>
    <line class="fil0 str0" x1="1403" y1="4925" x2="2038" y2= "4925" />
    <line class="fil0 str0" x1="1996" y1="5025" x2="2346" y2= "5023" />
    <path class="fil0 str0" d="M2346 5023c251,-1 251,-1 291,-5"/>
    <polyline class="fil0 str0" points="2637,5018 2652,5017 2652,5016 2651,5015 2650,5013 2650,5013 2656,5007 2655,5006 2654,5006 2655,5006 2660,5000 2659,4999 2654,4998 2656,4998 2660,4982 2655,4982 2650,4966 2649,4966 2648,4967 2647,4967 2646,4967 2641,4960 2641,4961 2640,4961 2640,4962 2633,4956 2633,4957 2633,4957 2632,4958 2631,4961 1992,4961 "/>
    <path class="fil0 str0" d="M1992 4961c-410,0 -507,1 -651,6"/>
    <polyline class="fil0 str0" points="1341,4967 1341,4967 1342,4968 1342,4969 1344,4971 1337,4976 1338,4976 1338,4977 1339,4978 1334,4985 1334,4985 1335,4986 1337,4986 1333,5003 1338,5003 1343,5019 1345,5018 1347,5016 1347,5016 1353,5022 1354,5022 1354,5021 1354,5022 1360,5027 1361,5025 "/>
    <path class="fil0 str0" d="M1361 5025c0,-1 1,-3 1,-4"/>
    <line class="fil0 str0" x1="1362" y1="5021" x2="1362" y2= "5022" />
    <path class="fil0 str0" d="M1362 5022c14,4 183,7 375,7 142,0 225,-1 301,-4"/>
    <polyline class="fil0 str0" points="2000,1561 2229,1561 2229,1558 2236,1556 "/>
    <path class="fil0 str0" d="M2236 1556c-1,0 -1,-1 -1,-2"/>
    <polyline class="fil0 str0" points="2235,1554 2233,1553 2233,1552 2239,1547 2238,1546 2237,1546 2237,1546 2236,1546 "/>
    <path class="fil0 str0" d="M2236 1546c27,-31 51,-106 51,-160 0,-160 -128,-289 -286,-289 -160,0 -288,129 -288,289 0,64 18,114 63,177"/>
    <polyline class="fil0 str0" points="1776,1563 1777,1563 1778,1563 1778,1562 1778,1562 1784,1566 1785,1565 "/>
    <path class="fil0 str0" d="M1785 1565c0,-1 0,-2 1,-5"/>
    <polyline class="fil0 str0" points="1786,1560 1786,1562 1793,1563 1793,1560 1793,1561 2041,1561 "/>
    <polyline class="fil0 str0" points="2533,5292 2544,5292 2544,5290 2545,5290 "/>
    <path class="fil0 str0" d="M2545 5290c12,-9 18,-18 18,-28 0,-16 -14,-30 -30,-30 -17,0 -30,13 -30,30 0,19 11,29 30,29 6,0 9,0 22,-3"/>
    <polyline class="fil0 str0" points="2000,1474 2011,1471 2011,1472 "/>
    <path class="fil0 str0" d="M2011 1472c79,-5 137,-67 137,-146 0,-82 -67,-149 -148,-149 -83,0 -149,66 -149,148 0,82 65,149 145,149 10,0 19,-1 45,-5"/>
    <polyline class="fil0 str0" points="2000,1747 2011,1746 2011,1747 "/>
    <path class="fil0 str0" d="M2011 1747c195,-3 353,-166 353,-363 0,-202 -163,-365 -364,-365 -201,0 -365,163 -365,364 0,200 162,364 360,364 12,0 17,0 53,-2"/>
    <polyline class="fil0 str0" points="2000,2605 2011,2604 2011,2603 "/>
    <path class="fil0 str0" d="M2011 2603c123,-8 211,-100 211,-220 0,-123 -100,-222 -222,-222 -123,0 -223,100 -223,222 0,121 99,222 218,222 15,0 26,-2 60,-6"/>
   </g>
  </g>
 </g>
</svg>
