<?xml version="1.0" encoding="UTF-8"?>
<!DOCTYPE svg PUBLIC "-//W3C//DTD SVG 1.1//EN" "http://www.w3.org/Graphics/SVG/1.1/DTD/svg11.dtd">
<!-- Creator: CorelDRAW X8 -->
<svg xmlns="http://www.w3.org/2000/svg" xml:space="preserve" width="40mm" height="60mm" version="1.1" style="shape-rendering:geometricPrecision; text-rendering:geometricPrecision; image-rendering:optimizeQuality; fill-rule:evenodd; clip-rule:evenodd"
viewBox="0 0 4000 6000"
 xmlns:xlink="http://www.w3.org/1999/xlink">
 <defs>
  <style type="text/css">
   <![CDATA[
    .str0 {stroke:black;stroke-width:7.62}
    .fil0 {fill:none}
   ]]>
  </style>
 </defs>
 <g id="图层_x0020_1">
  <metadata id="CorelCorpID_0Corel-Layer"/>
  <path class="fil0 str0" d="M1020 5350l1801 0c126,0 228,-103 228,-228l0 -4244c0,-125 -102,-228 -228,-228l-471 0c-64,0 -175,0 -253,0 -18,0 -30,7 -30,30l0 36c0,34 -28,62 -62,62l0 0c-34,0 -61,-28 -61,-62l0 -34c0,-26 -14,-32 -33,-32 -80,0 -186,0 -253,0l-479 0c-126,0 -228,103 -228,228l0 4244c0,125 102,228 228,228l131 0"/>
 </g>
</svg>
