<?xml version="1.0" encoding="UTF-8"?>
<!DOCTYPE svg PUBLIC "-//W3C//DTD SVG 1.1//EN" "http://www.w3.org/Graphics/SVG/1.1/DTD/svg11.dtd">
<!-- Creator: CorelDRAW X8 -->
<svg xmlns="http://www.w3.org/2000/svg" xml:space="preserve" width="40mm" height="60mm" version="1.1" style="shape-rendering:geometricPrecision; text-rendering:geometricPrecision; image-rendering:optimizeQuality; fill-rule:evenodd; clip-rule:evenodd"
viewBox="0 0 4000 6000"
 xmlns:xlink="http://www.w3.org/1999/xlink">
 <defs>
  <style type="text/css">
   <![CDATA[
    .str0 {stroke:#332C2B;stroke-width:7.62}
    .fil0 {fill:none}
   ]]>
  </style>
 </defs>
 <g id="图层_x0020_1">
  <metadata id="CorelCorpID_0Corel-Layer"/>
  <path class="fil0 str0" d="M845 5286l2080 0c126,0 230,-103 230,-230l0 -4176c0,-126 -104,-230 -230,-230l-1815 0c-126,0 -230,104 -230,230l0 4176c0,127 104,230 230,230 127,0 243,19 239,64m658 -4412c101,0 183,82 183,183 0,102 -82,184 -183,184 -102,0 -184,-82 -184,-184 0,-101 82,-183 184,-183zm-301 109c42,0 77,35 77,77 0,43 -35,77 -77,77 -43,0 -77,-34 -77,-77 0,-42 34,-77 77,-77zm746 15l231 0c14,0 25,11 25,25l0 0c0,13 -11,24 -25,24l-231 0c-13,0 -24,-11 -24,-24l0 0c0,-14 11,-25 24,-25zm-1 73l231 0c14,0 25,11 25,25l0 0c0,13 -11,24 -25,24l-231 0c-13,0 -24,-11 -24,-24l0 0c0,-14 11,-25 24,-25z"/>
 </g>
</svg>
