<?xml version="1.0" encoding="UTF-8"?>
<!DOCTYPE svg PUBLIC "-//W3C//DTD SVG 1.1//EN" "http://www.w3.org/Graphics/SVG/1.1/DTD/svg11.dtd">
<!-- Creator: CorelDRAW X8 -->
<svg xmlns="http://www.w3.org/2000/svg" xml:space="preserve" width="40mm" height="60mm" version="1.1" style="shape-rendering:geometricPrecision; text-rendering:geometricPrecision; image-rendering:optimizeQuality; fill-rule:evenodd; clip-rule:evenodd"
viewBox="0 0 4000 6000"
 xmlns:xlink="http://www.w3.org/1999/xlink">
 <defs>
  <style type="text/css">
   <![CDATA[
    .str0 {stroke:black;stroke-width:7.62}
    .fil0 {fill:none}
   ]]>
  </style>
 </defs>
 <g id="图层_x0020_1">
  <metadata id="CorelCorpID_0Corel-Layer"/>
  <path class="fil0 str0" d="M1070 5350l1772 0c114,0 207,-93 207,-207l0 -4286c0,-114 -93,-207 -207,-207l-490 0c-3,0 -4,0 -6,2l-6 6c-2,2 -3,3 -7,3l-215 0c-21,0 -41,6 -41,39l0 22c0,41 -33,74 -74,74l0 0c-41,0 -74,-33 -74,-74l0 -20c0,-31 -28,-41 -44,-41l-230 0c-4,0 -4,-1 -6,-3l-7 -6c-1,-2 -3,-2 -5,-2l-479 0c-114,0 -207,93 -207,207l0 4286c0,114 93,207 207,207l45 0"/>
 </g>
</svg>
