<?xml version="1.0" encoding="UTF-8"?>
<!DOCTYPE svg PUBLIC "-//W3C//DTD SVG 1.1//EN" "http://www.w3.org/Graphics/SVG/1.1/DTD/svg11.dtd">
<!-- Creator: CorelDRAW X8 -->
<svg xmlns="http://www.w3.org/2000/svg" xml:space="preserve" width="40mm" height="60mm" version="1.1" style="shape-rendering:geometricPrecision; text-rendering:geometricPrecision; image-rendering:optimizeQuality; fill-rule:evenodd; clip-rule:evenodd"
viewBox="0 0 4000 6000"
 xmlns:xlink="http://www.w3.org/1999/xlink">
 <defs>
  <style type="text/css">
   <![CDATA[
    .str0 {stroke:black;stroke-width:7.62}
    .fil0 {fill:none}
   ]]>
  </style>
 </defs>
 <g id="图层_x0020_1">
  <metadata id="CorelCorpID_0Corel-Layer"/>
  <path class="fil0 str0" d="M1069 5311l1748 0c115,0 210,-95 210,-211l0 -4240c0,-115 -95,-210 -210,-210l-412 0c-1,0 -3,1 -4,2l-5 5c-1,1 -3,2 -4,2l-285 0c-19,0 -35,16 -35,35l0 45c0,36 -30,66 -66,66l0 0c-37,0 -67,-30 -67,-66l0 -45c0,-19 -15,-35 -35,-35l-296 0c-1,0 -3,-1 -4,-2l-5 -5c-1,-1 -3,-2 -4,-2l-412 0c-115,0 -210,95 -210,210l0 4240c0,116 95,211 210,211l41 0c71,0 116,16 137,39"/>
 </g>
</svg>
