<?xml version="1.0" encoding="UTF-8"?>
<!DOCTYPE svg PUBLIC "-//W3C//DTD SVG 1.1//EN" "http://www.w3.org/Graphics/SVG/1.1/DTD/svg11.dtd">
<!-- Creator: CorelDRAW X8 -->
<svg xmlns="http://www.w3.org/2000/svg" xml:space="preserve" width="40mm" height="60mm" version="1.1" style="shape-rendering:geometricPrecision; text-rendering:geometricPrecision; image-rendering:optimizeQuality; fill-rule:evenodd; clip-rule:evenodd"
viewBox="0 0 4000 6000"
 xmlns:xlink="http://www.w3.org/1999/xlink">
 <defs>
  <style type="text/css">
   <![CDATA[
    .fil0 {fill:#332C2B;fill-rule:nonzero}
   ]]>
  </style>
 </defs>
 <g id="图层_x0020_1">
  <metadata id="CorelCorpID_0Corel-Layer"/>
  <g>
   <path class="fil0" d="M1418 1018l-6 0 0 0 0 -4 0 -4 -1 -5 0 -4 -1 -4 -2 -4 -1 -4 -1 -3 -2 -4 -2 -4 -2 -3 -2 -4 -2 -3 -3 -3 -2 -3 -3 -3 -3 -3 -3 -2 -3 -3 -4 -2 -3 -2 -3 -2 -4 -2 -4 -2 -4 -1 -3 -2 -4 -1 -4 -1 -5 0 -4 -1 -4 0 -4 0 0 -6 4 0 5 0 4 1 5 1 4 1 4 1 4 1 4 2 4 2 4 2 4 2 4 2 3 3 4 2 3 3 3 3 3 3 3 3 2 4 3 3 2 4 2 4 2 3 2 4 2 4 1 5 1 4 1 4 1 5 1 4 0 5 0 4 0 0zm-89 89l0 -5 0 0 4 0 4 -1 4 0 5 -1 4 -1 4 -1 3 -1 4 -2 4 -2 4 -1 3 -2 3 -3 4 -2 3 -2 3 -3 3 -3 3 -3 2 -3 3 -3 2 -3 2 -4 2 -3 2 -4 2 -3 1 -4 1 -4 2 -4 1 -4 0 -4 1 -4 0 -5 0 -4 6 0 0 5 0 4 -1 5 -1 4 -1 4 -1 5 -1 4 -2 4 -2 4 -2 4 -2 3 -2 4 -3 4 -2 3 -3 3 -3 3 -3 3 -3 3 -4 3 -3 2 -4 2 -4 3 -4 2 -4 1 -4 2 -4 1 -4 2 -4 1 -5 0 -4 1 -5 0 -4 0 0 0zm-89 -89l5 0 0 0 0 4 1 5 0 4 1 4 1 4 1 4 1 4 2 4 2 3 1 4 2 3 3 4 2 3 2 3 3 3 3 3 3 3 3 3 3 2 3 2 3 3 4 2 4 1 3 2 4 2 4 1 4 1 4 1 4 1 4 0 4 1 5 0 0 5 -5 0 -4 0 -5 -1 -4 0 -5 -1 -4 -2 -4 -1 -4 -2 -4 -1 -4 -2 -4 -3 -3 -2 -4 -2 -3 -3 -3 -3 -3 -3 -3 -3 -3 -3 -3 -3 -2 -4 -3 -4 -2 -3 -2 -4 -1 -4 -2 -4 -1 -4 -2 -5 -1 -4 0 -4 -1 -5 0 -4 0 -5 0 0zm89 -89l0 6 0 0 -5 0 -4 0 -4 1 -4 0 -4 1 -4 1 -4 2 -4 1 -3 2 -4 2 -4 2 -3 2 -3 2 -3 3 -3 2 -3 3 -3 3 -3 3 -2 3 -2 3 -3 4 -2 3 -1 4 -2 4 -2 3 -1 4 -1 4 -1 4 -1 4 0 5 -1 4 0 4 -5 0 0 -4 0 -5 1 -4 0 -5 1 -4 2 -4 1 -5 2 -4 1 -4 2 -3 2 -4 3 -4 2 -3 3 -4 3 -3 3 -3 3 -3 3 -3 3 -2 4 -3 3 -2 4 -2 4 -2 4 -2 4 -2 4 -1 4 -1 5 -1 4 -1 5 -1 4 0 5 0 0 0zm290 95l-5 0 0 0 0 -1 0 -2 -1 -1 0 -1 0 -2 0 -1 -1 -1 0 -1 -1 -1 0 -1 -1 -2 -1 -1 0 -1 -1 -1 -1 -1 -1 0 -1 -1 -1 -1 -1 -1 -1 -1 -1 0 -1 -1 -1 0 -1 -1 -1 0 -1 -1 -2 0 -1 0 -1 -1 -2 0 -1 0 -1 0 0 -6 1 0 2 0 2 1 1 0 2 0 1 1 2 0 1 1 2 0 1 1 1 1 2 1 1 1 1 0 1 1 1 1 1 2 1 1 1 1 1 1 1 1 1 2 0 1 1 2 1 1 0 1 0 2 1 2 0 1 0 2 0 1 0 2 0 0zm-31 32l0 -6 0 0 1 0 1 0 2 -1 1 0 1 0 2 0 1 -1 1 0 1 -1 1 0 1 -1 1 -1 1 0 1 -1 1 -1 1 -1 1 -1 1 -1 1 -1 0 -1 1 -1 1 -1 0 -1 1 -1 0 -1 1 -1 0 -2 0 -1 0 -1 1 -1 0 -2 0 -1 5 0 0 2 0 1 0 2 0 1 -1 2 0 1 0 2 -1 1 -1 2 0 1 -1 1 -1 2 -1 1 -1 1 -1 1 -1 1 -1 1 -1 1 -1 1 -1 1 -2 1 -1 1 -1 0 -2 1 -1 1 -2 0 -1 1 -2 0 -1 0 -2 0 -2 1 -1 0 0 0zm-32 -32l6 0 0 0 0 1 0 2 0 1 0 1 1 1 0 2 0 1 1 1 0 1 1 1 1 1 0 1 1 1 1 1 1 1 1 1 0 1 1 1 1 1 1 0 1 1 1 1 2 0 1 1 1 0 1 1 1 0 2 0 1 0 1 1 2 0 1 0 0 6 -2 0 -1 -1 -2 0 -2 0 -1 0 -2 -1 -1 0 -1 -1 -2 -1 -1 0 -2 -1 -1 -1 -1 -1 -1 -1 -1 -1 -2 -1 -1 -1 -1 -1 -1 -1 0 -1 -1 -2 -1 -1 -1 -1 0 -2 -1 -1 0 -2 -1 -1 0 -2 0 -1 -1 -2 0 -1 0 -2 0 0zm32 -32l0 6 0 0 -1 0 -2 0 -1 0 -1 1 -2 0 -1 0 -1 1 -1 0 -1 1 -2 0 -1 1 -1 0 -1 1 -1 1 -1 1 0 1 -1 0 -1 1 -1 1 -1 1 0 1 -1 2 -1 1 0 1 -1 1 0 1 0 1 -1 2 0 1 0 1 0 2 0 1 -6 0 0 -2 0 -1 1 -2 0 -1 0 -2 1 -2 0 -1 1 -1 0 -2 1 -1 1 -2 1 -1 0 -1 1 -1 1 -1 1 -2 2 -1 1 -1 1 0 1 -1 1 -1 2 -1 1 -1 2 0 1 -1 1 0 2 -1 1 0 2 0 2 -1 1 0 2 0 0 0zm282 29l-6 0 0 0 0 -3 0 -3 0 -2 -1 -3 -1 -3 0 -2 -1 -3 -1 -2 -1 -3 -1 -2 -2 -2 -1 -3 -2 -2 -1 -2 -2 -2 -2 -2 -2 -1 -2 -2 -2 -2 -2 -1 -2 -2 -2 -1 -3 -1 -2 -1 -3 -1 -2 -1 -3 -1 -2 -1 -3 0 -3 0 -3 -1 -3 0 0 -5 4 0 3 0 3 0 3 1 3 0 2 1 3 1 3 1 3 2 2 1 3 1 2 2 3 2 2 1 2 2 2 2 2 2 2 3 2 2 2 2 1 3 2 2 1 3 1 2 1 3 1 3 1 3 1 3 0 3 1 3 0 3 0 3 0 0zm-61 60l0 -5 0 0 3 0 3 -1 3 0 3 0 2 -1 3 -1 2 -1 3 -1 2 -1 3 -1 2 -1 2 -2 2 -1 2 -2 2 -1 2 -2 2 -2 2 -2 1 -2 2 -2 1 -3 2 -2 1 -2 1 -3 1 -2 1 -3 0 -2 1 -3 1 -3 0 -2 0 -3 0 -3 6 0 0 3 0 3 -1 3 0 3 -1 3 -1 3 -1 3 -1 3 -1 2 -1 3 -2 2 -1 3 -2 2 -2 2 -2 3 -2 2 -2 2 -2 2 -2 1 -3 2 -2 2 -3 1 -2 2 -3 1 -3 1 -3 1 -2 1 -3 0 -3 1 -3 0 -3 0 -4 0 0 0zm-60 -60l6 0 0 0 0 3 0 3 0 2 1 3 1 3 0 2 1 3 1 2 1 3 1 2 2 2 1 3 2 2 1 2 2 2 2 2 2 2 2 1 2 2 2 1 2 2 2 1 3 1 2 1 3 1 2 1 3 1 2 1 3 0 3 0 3 1 2 0 0 5 -3 0 -3 0 -3 0 -3 -1 -3 0 -2 -1 -3 -1 -3 -1 -3 -1 -2 -2 -3 -1 -2 -2 -3 -2 -2 -1 -2 -2 -2 -2 -2 -2 -2 -3 -2 -2 -2 -2 -1 -3 -2 -2 -1 -3 -1 -2 -1 -3 -1 -3 -1 -3 -1 -3 0 -3 -1 -3 0 -3 0 -3 0 0zm60 -60l0 5 0 0 -2 0 -3 1 -3 0 -3 0 -2 1 -3 1 -2 1 -3 1 -2 1 -3 1 -2 1 -2 2 -2 1 -2 2 -2 2 -2 1 -2 2 -2 2 -1 2 -2 2 -1 3 -2 2 -1 2 -1 3 -1 2 -1 3 0 2 -1 3 -1 3 0 2 0 3 0 3 -6 0 0 -3 0 -3 1 -3 0 -3 1 -3 1 -3 1 -3 1 -3 1 -2 1 -3 2 -2 1 -3 2 -2 2 -2 2 -3 2 -2 2 -2 2 -2 2 -1 3 -2 2 -2 3 -1 2 -1 3 -2 3 -1 3 -1 2 -1 3 0 3 -1 3 0 3 0 3 0 0 0zm61 230l-6 0 0 0 0 -3 0 -3 0 -2 -1 -3 -1 -3 0 -2 -1 -3 -1 -2 -1 -3 -1 -2 -2 -3 -1 -2 -2 -2 -1 -2 -2 -2 -2 -2 -2 -2 -2 -1 -2 -2 -2 -2 -2 -1 -2 -1 -3 -1 -2 -2 -3 -1 -2 0 -3 -1 -2 -1 -3 0 -3 -1 -3 0 -3 0 0 -6 4 0 3 1 3 0 3 1 3 0 2 1 3 1 3 1 3 1 2 2 3 1 2 2 3 1 2 2 2 2 2 2 2 2 2 2 2 3 2 2 1 3 2 2 1 3 1 2 1 3 1 3 1 3 1 3 0 3 1 3 0 3 0 3 0 0zm-61 60l0 -5 0 0 3 -1 3 0 3 0 3 -1 2 0 3 -1 2 -1 3 -1 2 -1 3 -1 2 -1 2 -2 2 -1 2 -2 2 -2 2 -1 2 -2 2 -2 1 -2 2 -3 1 -2 2 -2 1 -2 1 -3 1 -2 1 -3 0 -2 1 -3 1 -3 0 -3 0 -2 0 -3 6 0 0 3 0 3 -1 3 0 3 -1 3 -1 3 -1 3 -1 2 -1 3 -1 3 -2 2 -1 3 -2 2 -2 2 -2 3 -2 2 -2 2 -2 2 -2 1 -3 2 -2 2 -3 1 -2 1 -3 2 -3 1 -3 1 -2 0 -3 1 -3 1 -3 0 -3 0 -4 0 0 0zm-60 -60l6 0 0 0 0 3 0 2 0 3 1 3 1 3 0 2 1 3 1 2 1 3 1 2 2 2 1 2 2 3 1 2 2 2 2 2 2 1 2 2 2 2 2 1 2 2 2 1 3 1 2 1 3 1 2 1 3 1 2 0 3 1 3 0 3 0 2 1 0 5 -3 0 -3 0 -3 0 -3 -1 -3 -1 -2 0 -3 -1 -3 -1 -3 -2 -2 -1 -3 -1 -2 -2 -3 -2 -2 -1 -2 -2 -2 -2 -2 -2 -2 -3 -2 -2 -2 -2 -1 -3 -2 -2 -1 -3 -1 -3 -1 -2 -1 -3 -1 -3 -1 -3 0 -3 -1 -3 0 -3 0 -3 0 0zm60 -61l0 6 0 0 -2 0 -3 0 -3 1 -3 0 -2 1 -3 1 -2 0 -3 1 -2 2 -3 1 -2 1 -2 1 -2 2 -2 2 -2 1 -2 2 -2 2 -2 2 -1 2 -2 2 -1 2 -2 3 -1 2 -1 3 -1 2 -1 3 0 2 -1 3 -1 3 0 2 0 3 0 3 -6 0 0 -3 0 -3 1 -3 0 -3 1 -3 1 -3 1 -3 1 -3 1 -2 1 -3 2 -2 1 -3 2 -2 2 -3 2 -2 2 -2 2 -2 2 -2 2 -2 3 -1 2 -2 3 -1 2 -2 3 -1 3 -1 3 -1 2 -1 3 0 3 -1 3 0 3 -1 3 0 0 0zm68 297l-6 0 0 0 0 -3 0 -3 0 -4 -1 -3 -1 -3 0 -3 -1 -2 -1 -3 -2 -3 -1 -3 -2 -2 -1 -3 -2 -2 -2 -2 -2 -3 -2 -2 -2 -2 -2 -2 -2 -2 -3 -1 -2 -2 -3 -2 -3 -1 -2 -1 -3 -1 -3 -1 -3 -1 -3 -1 -3 0 -3 -1 -3 0 -4 0 0 -6 4 0 3 1 4 0 3 1 3 0 4 1 3 1 3 2 3 1 3 1 3 2 2 2 3 2 3 2 2 2 2 2 3 2 2 3 2 2 2 3 1 3 2 3 1 3 2 3 1 3 1 3 1 3 1 3 0 4 1 3 0 3 0 4 0 0zm-68 68l0 -6 0 0 4 0 3 -1 3 0 3 0 3 -1 3 -1 3 -1 3 -1 2 -1 3 -2 3 -1 2 -2 3 -2 2 -1 2 -2 2 -2 2 -2 2 -3 2 -2 2 -2 1 -3 2 -3 1 -2 2 -3 1 -3 1 -3 0 -3 1 -3 1 -3 0 -3 0 -3 0 -3 6 0 0 3 0 4 -1 3 0 4 -1 3 -1 3 -1 3 -1 3 -2 3 -1 3 -2 3 -1 3 -2 2 -2 3 -2 2 -3 3 -2 2 -2 2 -3 2 -3 2 -2 2 -3 1 -3 2 -3 1 -3 1 -3 2 -4 0 -3 1 -3 1 -4 0 -3 0 -4 1 0 0zm-67 -68l6 0 0 0 0 3 0 3 0 3 1 3 1 3 0 3 1 3 1 3 2 3 1 2 2 3 1 3 2 2 2 2 2 3 2 2 2 2 2 2 2 1 3 2 2 2 3 1 3 2 2 1 3 1 3 1 3 1 3 1 3 0 3 0 3 1 3 0 0 6 -3 -1 -3 0 -4 0 -3 -1 -3 -1 -4 0 -3 -2 -3 -1 -3 -1 -3 -2 -3 -1 -2 -2 -3 -2 -3 -2 -2 -2 -2 -2 -3 -3 -2 -2 -2 -3 -2 -2 -1 -3 -2 -3 -1 -3 -2 -3 -1 -3 -1 -3 -1 -3 -1 -3 0 -4 -1 -3 0 -4 0 -3 0 0zm67 -68l0 6 0 0 -3 0 -3 0 -3 1 -3 0 -3 1 -3 1 -3 1 -3 1 -2 1 -3 1 -3 2 -2 2 -3 1 -2 2 -2 2 -2 2 -2 2 -2 3 -2 2 -2 2 -1 3 -2 2 -1 3 -2 3 -1 3 -1 2 0 3 -1 3 -1 3 0 4 0 3 0 3 -6 0 0 -4 0 -3 1 -3 0 -4 1 -3 1 -3 1 -3 1 -3 2 -3 1 -3 2 -3 1 -3 2 -3 2 -2 2 -3 3 -2 2 -2 2 -2 3 -2 3 -2 2 -2 3 -2 3 -1 3 -1 3 -2 3 -1 4 -1 3 0 3 -1 4 0 3 -1 3 0 0 0zm-377 74l-5 0 0 0 0 -5 -1 -5 0 -5 -1 -5 -1 -5 -2 -4 -1 -5 -2 -4 -2 -5 -2 -4 -3 -4 -2 -4 -3 -4 -3 -4 -3 -3 -3 -4 -3 -3 -4 -3 -4 -3 -4 -2 -3 -3 -5 -2 -4 -3 -4 -2 -5 -1 -4 -2 -5 -1 -5 -1 -4 -1 -5 -1 -5 0 -5 0 0 -6 5 0 5 1 6 0 5 1 5 1 5 2 4 1 5 2 5 2 4 3 4 2 5 3 4 3 4 3 3 3 4 3 3 4 4 4 3 4 3 4 2 4 3 4 2 5 2 4 2 5 2 5 1 5 1 5 1 5 1 5 0 5 0 6 0 0zm-103 103l0 -5 0 0 5 -1 5 0 5 -1 4 0 5 -2 5 -1 4 -1 5 -2 4 -2 4 -2 5 -3 3 -2 4 -3 4 -3 4 -3 3 -3 3 -4 3 -3 3 -4 3 -4 2 -4 3 -4 2 -4 2 -4 2 -5 1 -4 2 -5 1 -5 1 -4 0 -5 1 -5 0 -5 5 0 0 5 0 5 -1 5 -1 6 -1 5 -1 4 -2 5 -2 5 -2 5 -2 4 -3 4 -2 5 -3 4 -3 4 -4 3 -3 4 -4 3 -3 4 -4 3 -4 3 -5 2 -4 3 -4 2 -5 2 -5 2 -4 2 -5 1 -5 1 -5 1 -6 1 -5 0 -5 0 0 0zm-104 -103l6 0 0 0 0 5 0 5 1 5 1 4 1 5 1 5 2 4 2 5 2 4 2 4 2 4 3 4 2 4 3 4 3 3 4 4 3 3 3 3 4 3 4 3 4 2 4 3 4 2 5 2 4 2 5 1 4 1 5 2 5 0 5 1 5 0 5 1 0 5 -6 0 -5 0 -5 -1 -5 -1 -5 -1 -5 -1 -5 -2 -5 -2 -4 -2 -5 -2 -4 -3 -4 -2 -4 -3 -4 -3 -4 -4 -4 -3 -3 -4 -3 -3 -3 -4 -3 -4 -3 -5 -2 -4 -3 -4 -2 -5 -2 -5 -1 -5 -2 -4 -1 -5 -1 -6 0 -5 -1 -5 0 -5 0 0zm104 -104l0 6 0 0 -5 0 -5 0 -5 1 -5 1 -5 1 -4 1 -5 2 -4 1 -5 2 -4 3 -4 2 -4 2 -4 3 -4 3 -3 3 -3 3 -4 4 -3 3 -3 4 -2 4 -3 4 -2 4 -2 4 -2 5 -2 4 -2 5 -1 4 -1 5 -1 5 -1 5 0 5 0 5 -6 0 0 -6 1 -5 0 -5 1 -5 1 -5 2 -5 1 -5 2 -5 2 -4 3 -5 2 -4 3 -4 3 -4 3 -4 3 -4 3 -4 4 -3 4 -3 4 -3 4 -3 4 -3 4 -2 5 -3 4 -2 5 -2 5 -1 5 -2 5 -1 5 -1 5 0 5 -1 6 0 0 0zm51 410l-136 0 0 -6 136 0 0 0 0 6zm41 36l-5 0 0 0 0 -2 -1 -2 0 -1 0 -2 0 -2 -1 -2 -1 -1 0 -2 -1 -1 -1 -2 -1 -1 0 -2 -2 -1 -1 -2 -1 -1 -1 -1 -1 -1 -1 -2 -2 -1 -1 -1 -2 -1 -1 0 -2 -1 -1 -1 -2 -1 -2 0 -1 -1 -2 0 -2 0 -2 -1 -1 0 -2 0 0 -6 2 1 2 0 2 0 2 0 2 1 2 0 2 1 2 1 2 1 2 1 1 1 2 1 2 1 1 1 2 1 1 2 2 1 1 2 1 1 1 2 1 2 1 1 1 2 1 2 1 2 1 2 0 2 1 2 0 2 0 2 0 2 0 2 0 0zm-5 205l0 -205 5 0 0 205 0 0 -5 0zm-36 42l0 -6 0 0 2 0 1 0 2 -1 2 0 2 0 1 -1 2 0 2 -1 1 -1 2 0 1 -1 2 -1 1 -1 2 -1 1 -1 1 -2 1 -1 1 -1 2 -2 1 -1 0 -1 1 -2 1 -1 1 -2 0 -2 1 -1 1 -2 0 -2 0 -2 0 -1 1 -2 0 -2 5 0 0 2 0 2 0 2 0 2 -1 2 0 2 -1 2 -1 2 -1 2 -1 2 -1 2 -1 1 -1 2 -1 1 -1 2 -2 1 -1 2 -2 1 -1 1 -2 1 -2 2 -1 1 -2 0 -2 1 -2 1 -2 1 -2 0 -2 1 -2 0 -2 0 -2 1 -2 0 0 0zm-136 -6l136 0 0 6 -136 0 0 0 0 -6zm-41 -36l5 0 0 0 0 2 1 2 0 1 0 2 1 2 0 2 1 1 0 2 1 2 1 1 1 2 1 1 1 1 1 2 1 1 1 1 1 2 1 1 2 1 1 1 2 1 1 1 2 0 1 1 2 1 2 0 1 1 2 0 2 0 2 1 1 0 2 0 0 6 -2 0 -2 -1 -2 0 -2 0 -2 -1 -2 0 -2 -1 -2 -1 -2 -1 -2 0 -1 -1 -2 -2 -2 -1 -1 -1 -2 -1 -1 -2 -2 -1 -1 -2 -1 -1 -1 -2 -1 -1 -1 -2 -1 -2 -1 -2 -1 -2 0 -2 -1 -2 -1 -2 0 -2 0 -2 0 -2 0 -2 0 0zm5 -205l0 205 -5 0 0 -205 0 0 5 0zm36 -42l0 6 0 0 -2 0 -1 0 -2 1 -2 0 -2 0 -1 1 -2 0 -2 1 -1 1 -2 1 -1 0 -2 1 -1 1 -2 1 -1 2 -1 1 -1 1 -1 1 -1 2 -1 1 -1 2 -1 1 -1 2 -1 1 0 2 -1 1 0 2 -1 2 0 2 0 1 -1 2 0 2 -5 0 0 -2 0 -2 0 -2 0 -2 1 -2 1 -2 0 -2 1 -2 1 -2 1 -2 1 -1 1 -2 1 -2 1 -1 1 -2 2 -1 1 -2 2 -1 1 -1 2 -1 2 -1 1 -1 2 -1 2 -1 2 -1 2 -1 2 0 2 -1 2 0 2 0 2 0 2 -1 0 0zm632 -865l-577 0 0 -5 577 0 0 0 0 5zm132 127l-6 0 0 0 0 -7 -1 -6 0 -6 -1 -7 -2 -6 -2 -6 -2 -6 -2 -5 -2 -6 -3 -5 -3 -6 -4 -5 -3 -5 -4 -5 -4 -4 -4 -5 -4 -4 -5 -4 -5 -3 -5 -4 -5 -3 -5 -3 -6 -3 -5 -3 -6 -2 -6 -2 -6 -2 -6 -1 -6 -1 -6 -1 -7 0 -6 -1 0 -5 7 0 6 0 7 1 6 1 7 2 6 2 6 2 6 2 6 3 6 3 5 3 6 3 5 4 5 4 4 4 5 4 4 5 5 5 4 5 3 5 4 5 3 6 3 6 2 5 3 6 2 7 2 6 1 6 1 7 1 6 1 7 0 7 0 0zm-6 979l0 -979 6 0 0 979 0 0 -6 0zm-126 132l0 -6 0 0 6 0 7 0 6 -1 6 -1 6 -2 6 -1 6 -2 6 -3 5 -2 6 -3 5 -3 5 -3 5 -4 5 -3 5 -4 4 -5 4 -4 4 -5 4 -4 3 -5 4 -5 3 -6 3 -5 2 -6 2 -6 2 -5 2 -6 2 -6 1 -7 0 -6 1 -6 0 -7 6 0 0 7 -1 7 -1 6 -1 7 -1 6 -2 6 -2 6 -3 6 -2 6 -3 6 -3 6 -4 5 -3 5 -4 5 -5 5 -4 4 -5 5 -4 4 -5 4 -5 4 -6 3 -5 3 -6 3 -6 3 -6 2 -6 2 -6 2 -7 2 -6 1 -7 1 -6 0 -7 0 0 0zm-577 -6l577 0 0 6 -577 0 0 0 0 -6zm-132 -126l6 0 0 0 0 7 1 6 1 6 1 7 1 6 2 6 2 5 2 6 3 6 2 5 3 6 4 5 3 5 4 4 4 5 4 4 5 5 4 4 5 3 5 4 5 3 5 3 6 3 5 2 6 3 6 2 6 1 6 2 6 1 6 1 7 0 6 0 0 6 -6 0 -7 0 -7 -1 -6 -1 -7 -2 -6 -2 -6 -2 -6 -2 -6 -3 -5 -3 -6 -3 -5 -3 -6 -4 -5 -4 -4 -4 -5 -5 -4 -4 -4 -5 -4 -5 -4 -5 -4 -5 -3 -6 -3 -6 -2 -6 -3 -6 -2 -6 -2 -6 -1 -6 -1 -7 -1 -6 -1 -7 0 -7 0 0zm6 -979l0 979 -6 0 0 -979 0 0 6 0zm126 -132l0 5 0 0 -6 1 -7 0 -6 1 -6 1 -6 1 -6 2 -6 2 -6 2 -5 3 -6 3 -5 3 -5 3 -5 4 -5 3 -4 4 -5 4 -4 5 -4 4 -4 5 -3 5 -4 5 -3 6 -2 5 -3 6 -2 5 -2 6 -2 6 -1 6 -1 7 -1 6 -1 6 0 7 -6 0 0 -7 1 -7 1 -6 1 -7 1 -6 2 -6 2 -7 3 -6 2 -5 3 -6 3 -6 4 -5 4 -5 4 -5 4 -5 4 -5 5 -4 4 -4 5 -4 6 -4 5 -3 6 -3 5 -3 6 -3 6 -2 6 -2 6 -2 7 -2 6 -1 7 -1 7 0 6 0 0 0zm599 -65l-621 0 0 -6 621 0 0 0 0 6zm180 174l-5 0 0 0 -1 -8 0 -9 -1 -9 -2 -9 -2 -8 -2 -8 -3 -8 -3 -8 -4 -8 -4 -8 -4 -7 -4 -7 -5 -7 -5 -6 -6 -7 -6 -6 -6 -6 -6 -5 -7 -5 -7 -5 -7 -5 -7 -4 -7 -4 -8 -3 -8 -3 -8 -3 -8 -3 -9 -2 -8 -1 -9 -1 -9 -1 -9 0 0 -6 9 0 9 1 9 1 9 2 9 2 9 2 8 3 8 3 8 4 8 4 7 4 8 5 7 5 7 5 6 6 6 6 6 6 6 7 5 7 5 7 5 7 5 8 4 7 3 8 3 9 3 8 3 9 2 8 1 9 1 9 1 9 0 9 0 0zm-5 1024l0 -1024 5 0 0 1024 0 0 -5 0zm-175 181l0 -6 0 0 9 0 9 -1 9 -1 8 -2 9 -2 8 -2 8 -3 8 -3 8 -3 7 -4 7 -4 7 -5 7 -5 7 -5 6 -6 6 -5 6 -6 6 -7 5 -6 5 -7 4 -7 4 -8 4 -7 4 -8 3 -8 3 -8 2 -8 2 -9 2 -8 1 -9 0 -9 1 -9 5 0 0 10 -1 9 -1 9 -1 9 -2 8 -3 9 -3 8 -3 8 -3 8 -4 8 -5 8 -5 7 -5 7 -5 7 -6 6 -6 7 -6 6 -6 5 -7 6 -7 5 -8 4 -7 5 -8 4 -8 3 -8 4 -8 3 -9 2 -9 2 -9 2 -9 1 -9 0 -9 1 0 0zm-621 -6l621 0 0 6 -621 0 0 0 0 -6zm-180 -175l6 0 0 0 0 9 0 9 2 9 1 8 2 9 2 8 3 8 3 8 4 8 4 7 4 8 4 7 5 7 6 6 5 7 6 6 6 5 6 6 7 5 7 5 7 5 7 4 8 4 7 3 8 3 8 3 9 2 8 2 9 2 8 1 9 1 9 0 0 6 -9 -1 -9 0 -9 -1 -9 -2 -9 -2 -8 -2 -9 -3 -8 -4 -8 -3 -8 -4 -7 -5 -8 -4 -7 -5 -6 -6 -7 -5 -6 -6 -6 -7 -6 -6 -5 -7 -5 -7 -5 -7 -4 -8 -4 -8 -4 -8 -3 -8 -3 -8 -3 -9 -2 -8 -1 -9 -1 -9 -1 -9 0 -10 0 0zm6 -1024l0 1024 -6 0 0 -1024 0 0 6 0zm174 -180l0 6 0 0 -9 0 -9 1 -8 1 -9 1 -8 2 -9 3 -8 3 -8 3 -7 3 -8 4 -7 4 -7 5 -7 5 -7 5 -6 5 -6 6 -6 6 -5 7 -6 6 -5 7 -4 7 -4 7 -4 8 -4 8 -3 8 -3 8 -2 8 -2 8 -1 9 -2 9 0 9 0 8 -6 0 0 -9 1 -9 1 -9 1 -9 2 -8 3 -9 3 -8 3 -9 4 -8 4 -7 4 -8 5 -7 5 -7 5 -7 6 -7 6 -6 6 -6 7 -6 6 -5 7 -5 8 -5 7 -4 8 -4 8 -4 8 -3 9 -3 8 -2 9 -2 9 -2 9 -1 9 -1 9 0 0 0zm1580 4524l-1854 0 0 -6 1854 0 0 0 0 6zm274 -281l6 0 0 0 0 14 -1 14 -2 14 -3 14 -3 14 -4 13 -4 13 -5 13 -6 12 -6 13 -7 11 -7 12 -8 11 -8 10 -9 11 -9 9 -10 10 -10 9 -11 8 -11 8 -11 7 -12 7 -12 6 -12 6 -13 5 -13 5 -13 3 -14 3 -13 3 -14 2 -15 1 -14 0 0 -6 14 0 14 -1 14 -2 13 -2 14 -3 12 -4 13 -4 13 -5 12 -6 12 -6 11 -7 11 -7 11 -8 10 -8 10 -8 10 -10 9 -9 9 -10 8 -11 7 -10 8 -12 6 -11 6 -12 6 -12 5 -13 4 -13 4 -13 3 -13 2 -13 2 -14 1 -14 0 -14 0 0zm6 -4106l0 4106 -6 0 0 -4106 0 0 6 0zm-280 -276l0 -6 0 0 14 1 15 1 14 1 13 3 14 3 13 4 13 4 13 5 12 6 12 6 12 7 11 7 11 8 11 9 10 9 10 9 9 10 9 10 8 11 8 11 7 11 7 12 6 12 6 12 5 13 4 13 4 14 3 13 3 14 2 14 1 14 0 15 -6 0 0 -15 -1 -14 -2 -13 -2 -14 -3 -13 -4 -13 -4 -13 -5 -12 -6 -13 -6 -11 -6 -12 -8 -11 -7 -11 -8 -10 -9 -10 -9 -10 -10 -9 -10 -9 -10 -8 -11 -8 -11 -7 -11 -7 -12 -6 -12 -5 -13 -5 -13 -5 -12 -3 -14 -3 -13 -3 -14 -2 -14 -1 -14 0 0 0zm-1714 -6l1714 0 0 6 -1714 0 0 0 0 -6zm-274 282l-6 0 0 0 0 -15 1 -14 2 -14 3 -14 3 -13 4 -14 4 -13 5 -13 6 -12 6 -12 7 -12 7 -11 8 -11 8 -11 9 -10 9 -10 10 -9 10 -9 11 -9 11 -8 11 -7 12 -7 12 -6 12 -6 13 -5 13 -4 13 -4 14 -3 13 -3 14 -1 15 -1 14 -1 0 6 -14 0 -14 1 -14 2 -13 3 -13 3 -13 3 -13 5 -13 5 -12 5 -12 6 -11 7 -11 7 -11 8 -10 8 -10 9 -10 9 -9 10 -9 10 -8 10 -7 11 -8 11 -6 12 -6 11 -6 13 -5 12 -4 13 -4 13 -3 13 -2 14 -2 13 -1 14 0 15 0 0zm-6 503l0 -503 6 0 0 503 0 0 -6 0zm14 30l-5 3 0 0 -1 -1 -1 -1 0 -1 -1 -1 0 -1 -1 -1 0 -1 0 -1 -1 -1 0 -1 -1 -1 0 -1 0 -1 -1 -1 0 -1 0 -1 0 -1 -1 -1 0 -1 0 -1 0 -1 0 -1 0 -1 -1 -1 0 -1 0 -1 0 -1 0 -1 0 -1 0 -1 0 -1 0 -2 6 0 0 1 0 2 0 1 0 1 0 1 0 1 0 1 0 1 0 1 0 1 1 0 0 1 0 1 0 1 0 1 0 1 1 1 0 1 0 0 0 1 1 1 0 1 0 1 1 1 0 1 1 1 0 0 0 1 1 1 0 1 1 1 1 1 0 0zm13 26l-6 2 0 0 0 -1 0 -1 -1 -1 0 0 0 -1 -1 -1 0 -1 0 -1 -1 0 0 -1 0 -1 -1 -1 0 0 -1 -1 0 -1 0 -1 -1 0 0 -1 -1 -1 0 -1 -1 0 0 -1 0 -1 -1 -1 0 -1 -1 0 0 -1 -1 -1 0 -1 -1 0 0 -1 0 -1 5 -3 0 1 0 1 1 0 0 1 1 1 0 1 1 1 0 0 1 1 0 1 0 1 1 0 0 1 1 1 0 1 1 1 0 0 0 1 1 1 0 1 1 0 0 1 1 1 0 1 0 1 1 1 0 0 0 1 1 1 0 1 1 1 0 1 0 0zm7 46l-6 0 0 0 0 -1 0 -1 0 -2 0 -1 0 -2 0 -1 0 -2 0 -1 0 -1 0 -2 0 -1 -1 -2 0 -1 0 -1 0 -2 0 -1 0 -2 -1 -1 0 -1 0 -2 0 -1 -1 -2 0 -1 0 -1 -1 -2 0 -1 0 -1 -1 -2 0 -1 -1 -2 0 -1 -1 -1 6 -2 0 1 1 2 0 1 1 2 0 1 1 1 0 2 0 1 1 2 0 1 0 2 1 1 0 2 0 1 0 1 0 2 1 1 0 2 0 1 0 2 0 1 0 2 1 1 0 2 0 1 0 2 0 1 0 2 0 1 0 2 0 1 0 1 0 0zm-5 1058l-1 -1058 6 0 0 1058 0 0 -5 0zm5 0l0 0 0 0 0 0zm-5 47l0 -47 5 0 0 47 -5 0zm-2 49l-5 -3 0 0 0 -1 1 -1 0 -1 1 -2 0 -1 1 -1 0 -2 0 -1 1 -2 0 -1 0 -2 1 -1 0 -2 0 -1 0 -2 0 -1 1 -2 0 -1 0 -2 0 -1 0 -2 0 -1 0 -2 0 -1 0 -2 0 -1 1 -2 0 -1 0 -2 0 -1 0 -2 0 -1 5 0 0 1 0 2 0 1 0 2 0 1 0 2 0 1 0 2 0 1 0 2 0 2 0 1 0 2 -1 1 0 2 0 2 0 1 0 2 0 1 -1 2 0 1 0 2 -1 2 0 1 0 2 -1 1 0 2 -1 1 0 2 -1 1 0 1 -1 2 0 0zm0 0l0 0 0 0 0 0zm-15 19l-4 -4 0 0 1 -1 1 0 0 -1 1 -1 0 0 1 -1 0 0 1 -1 0 0 1 0 0 -1 1 0 0 -1 0 0 1 -1 0 0 1 -1 0 0 0 -1 1 0 0 -1 1 0 0 -1 0 0 1 -1 0 0 0 -1 1 -1 0 0 0 -1 1 -1 0 -1 5 3 0 1 -1 0 0 1 0 1 -1 1 0 0 0 1 -1 1 0 0 -1 1 0 1 -1 0 0 1 0 0 -1 1 0 0 -1 1 0 1 -1 0 0 1 -1 0 0 1 -1 0 0 1 -1 0 0 1 -1 0 0 1 -1 0 -1 1 0 0 -1 1 0 0zm-6 23l-6 0 0 0 0 -1 0 -1 0 -1 0 -1 0 0 0 -1 0 -1 0 -1 0 -1 0 -1 0 -1 0 -1 1 -1 0 0 0 -1 0 -1 0 -1 0 -1 1 -1 0 -1 0 -1 1 0 0 -1 1 -1 0 -1 0 -1 1 -1 1 0 0 -1 1 -1 1 -1 0 0 4 4 0 0 -1 1 0 1 -1 0 0 1 -1 0 0 1 0 1 -1 0 0 1 0 1 -1 0 0 1 0 1 0 0 0 1 -1 1 0 0 0 1 0 1 0 1 0 1 0 0 0 1 0 1 0 1 0 1 0 1 0 0 0 1 0 1 0 1 0 0zm-6 2305l0 -2305 6 0 0 2305 0 0 -6 0zm280 275l0 6 0 0 -14 0 -15 -1 -14 -2 -13 -3 -14 -3 -13 -3 -13 -5 -13 -5 -12 -6 -12 -6 -12 -7 -11 -7 -11 -8 -11 -8 -10 -9 -10 -10 -9 -9 -9 -11 -8 -10 -8 -11 -7 -12 -7 -11 -6 -13 -6 -12 -5 -13 -4 -13 -4 -13 -3 -14 -3 -14 -2 -14 -1 -14 0 -14 6 0 0 14 1 14 2 14 2 13 3 13 4 13 4 13 5 13 6 12 6 12 6 11 8 12 7 10 8 11 9 10 9 9 10 10 10 8 10 8 11 8 11 7 11 7 12 6 12 6 13 5 13 4 13 4 13 3 13 2 14 2 14 1 14 0 0 0zm34 6l-34 0 0 -6 34 0 0 0 0 6zm80 32l-5 4 -1 -3 -2 -2 -2 -2 -2 -2 -2 -2 -1 -2 -2 -1 -2 -2 -2 -2 -3 -1 -2 -2 -2 -1 -2 -2 -2 -1 -2 -1 -3 -1 -2 -1 -3 -1 -2 -1 -2 -1 -3 -1 -3 0 -2 -1 -3 -1 -3 0 -2 -1 -3 0 -3 0 -3 0 -3 -1 -3 0 -3 0 0 -6 3 1 4 0 3 0 3 0 3 0 3 1 2 0 3 1 3 0 3 1 3 1 2 1 3 1 3 0 2 2 3 1 2 1 3 1 2 2 2 1 3 1 2 2 2 2 2 1 2 2 2 2 3 2 2 2 1 2 2 3 2 2 2 2z"/>
  </g>
 </g>
</svg>
