<?xml version="1.0" encoding="UTF-8"?>
<!DOCTYPE svg PUBLIC "-//W3C//DTD SVG 1.1//EN" "http://www.w3.org/Graphics/SVG/1.1/DTD/svg11.dtd">
<!-- Creator: CorelDRAW X8 -->
<svg xmlns="http://www.w3.org/2000/svg" xml:space="preserve" width="40mm" height="60mm" version="1.1" style="shape-rendering:geometricPrecision; text-rendering:geometricPrecision; image-rendering:optimizeQuality; fill-rule:evenodd; clip-rule:evenodd"
viewBox="0 0 4000 6000"
 xmlns:xlink="http://www.w3.org/1999/xlink">
 <defs>
  <style type="text/css">
   <![CDATA[
    .str0 {stroke:black;stroke-width:7.62}
    .fil0 {fill:none}
   ]]>
  </style>
 </defs>
 <g id="图层_x0020_1">
  <metadata id="CorelCorpID_0Corel-Layer"/>
  <path class="fil0 str0" d="M970 5350l1894 0c111,0 202,-91 202,-201l0 -4298c0,-110 -91,-201 -202,-201l-1728 0c-111,0 -202,91 -202,201l0 4298c0,110 91,201 202,201l242 0m1182 -4644c0,-4 -4,-8 -12,-9 -28,0 -50,23 -50,50 0,28 22,51 50,51 28,0 50,-23 50,-51 0,-27 -22,-50 -50,-50m-649 46c-3,-13 -10,-23 -41,-23l-26 0c-14,0 -25,11 -25,25l0 0c0,14 11,26 25,26l341 0c14,0 25,-12 25,-26l0 0c0,-14 -11,-25 -25,-25l-315 0"/>
 </g>
</svg>
