<?xml version="1.0" encoding="UTF-8"?>
<!DOCTYPE svg PUBLIC "-//W3C//DTD SVG 1.1//EN" "http://www.w3.org/Graphics/SVG/1.1/DTD/svg11.dtd">
<!-- Creator: CorelDRAW X8 -->
<svg xmlns="http://www.w3.org/2000/svg" xml:space="preserve" width="40mm" height="60mm" version="1.1" style="shape-rendering:geometricPrecision; text-rendering:geometricPrecision; image-rendering:optimizeQuality; fill-rule:evenodd; clip-rule:evenodd"
viewBox="0 0 4000 6000"
 xmlns:xlink="http://www.w3.org/1999/xlink">
 <defs>
  <style type="text/css">
   <![CDATA[
    .fil0 {fill:black;fill-rule:nonzero}
   ]]>
  </style>
 </defs>
 <g id="图层_x0020_1">
  <metadata id="CorelCorpID_0Corel-Layer"/>
  <g>
   <path class="fil0" d="M1542 688c-4,3 -11,1 -13,-4 -3,-4 -2,-11 3,-13l10 17zm-8 -29l20 0 0 0 0 2 0 1 0 1 0 1 0 1 0 1 -1 1 0 1 0 1 0 1 0 1 -1 1 0 1 0 1 0 1 -1 1 0 0 0 1 -1 1 0 1 0 1 -1 1 0 0 -1 1 0 1 -1 1 -1 1 0 0 -1 1 -1 1 -1 0 -1 1 -10 -17 0 0 0 0 0 0 0 0 0 0 0 0 0 0 0 0 0 0 0 0 0 0 0 -1 0 0 0 0 0 -1 0 0 1 0 0 -1 0 0 0 -1 0 0 0 -1 0 -1 0 0 1 -1 0 -1 0 0 0 -1 0 -1 0 -1 0 -1 0 -1 0 1zm0 -1c1,-5 5,-10 11,-9 5,0 9,5 9,10l-20 -1zm18 -17l0 20 0 0 0 0 0 0 0 0 0 0 0 0 1 0 0 0 0 0 0 0 0 0 0 0 0 0 0 0 0 0 0 0 0 0 1 0 0 -1 0 0 0 0 0 0 0 0 0 0 0 0 0 0 0 0 0 -1 0 0 0 0 0 0 0 0 0 0 -20 0 0 -1 0 -1 0 -1 1 -1 0 -1 0 -1 0 0 1 -1 0 -1 0 -1 1 0 0 -1 1 -1 0 0 1 -1 0 -1 1 0 1 -1 0 0 1 -1 1 0 0 -1 1 0 1 0 1 -1 1 0 0 0 1 0 1 0 1 -1 1 0 1 0 0 0zm0 0c5,0 10,5 10,10 0,6 -5,10 -10,10l0 -20zm944 -1l-1 20 0 0 -4 0 -9 0 -13 0 -18 0 -22 0 -25 0 -29 0 -32 0 -34 0 -37 0 -38 0 -40 0 -42 0 -42 0 -44 0 -43 0 -43 0 -44 1 -42 0 -41 0 -41 0 -38 0 -37 0 -34 0 -31 0 -29 0 -25 0 -22 0 -18 0 -13 0 -9 0 -4 0 0 -20 4 0 9 0 13 0 18 0 22 0 25 0 29 0 31 0 34 0 37 0 38 0 40 0 42 0 42 0 44 -1 43 0 43 0 44 0 42 0 42 0 40 0 38 0 37 0 34 0 32 0 29 0 25 0 22 0 18 0 13 0 9 0 5 0 0 0zm0 0c6,1 10,5 9,11 0,5 -5,10 -10,9l1 -20zm16 17l-20 0 0 0 0 0 0 0 0 1 0 0 0 0 0 0 0 1 0 0 1 0 0 0 0 0 0 0 0 0 0 0 0 0 0 1 0 0 0 0 0 0 0 0 1 0 0 0 0 0 0 0 0 0 0 0 0 0 0 0 0 0 1 0 0 0 0 0 1 -20 1 0 1 0 0 1 1 0 1 0 1 0 0 1 1 0 1 0 0 0 1 1 1 0 0 1 1 0 1 1 0 0 1 1 0 0 1 1 0 1 0 0 1 1 0 1 1 0 0 1 0 1 1 1 0 0 0 1 0 1 0 1 0 1 0 0zm0 0c0,5 -4,10 -10,10 -5,0 -10,-5 -10,-10l20 0zm-61 4684l-20 -1 0 0 2 -69 1 -88 2 -105 2 -121 2 -135 2 -149 2 -160 2 -171 3 -180 2 -187 3 -194 2 -199 3 -202 3 -204 2 -206 3 -205 2 -203 3 -200 2 -196 2 -189 3 -183 2 -173 2 -164 2 -152 1 -140 2 -126 1 -110 1 -93 1 -76 1 -55 0 -35 0 -13 20 0 0 13 0 35 -1 56 -1 75 -1 93 -1 111 -2 125 -1 140 -2 152 -2 164 -2 174 -3 182 -2 190 -2 195 -3 200 -2 203 -3 205 -2 206 -3 204 -3 203 -2 198 -3 194 -2 188 -3 179 -2 171 -2 160 -2 149 -2 135 -2 121 -2 105 -1 88 -2 70 0 0zm0 0c0,5 -4,9 -10,9 -5,0 -10,-4 -10,-10l20 1zm-20 19l0 -20 0 0 1 0 0 0 0 0 1 0 0 0 0 0 0 0 0 0 0 0 0 0 0 0 0 0 0 0 -1 0 0 0 0 1 0 0 0 0 -1 0 0 0 0 1 0 0 0 0 0 0 0 0 0 0 0 0 0 -1 0 0 0 0 0 0 0 -1 20 1 0 0 0 1 0 1 0 1 0 1 0 1 -1 1 0 1 0 1 -1 1 0 1 -1 1 0 1 -1 1 -1 0 0 1 -1 1 -1 1 -1 0 -1 1 -1 0 -1 1 -1 0 -1 0 -1 0 0 1 -1 0 -1 0 -1 0 -1 0 -1 0 -1 0 0 0zm0 0c-5,0 -10,-5 -10,-10 0,-6 5,-10 10,-10l0 20zm-917 -4l0 -20 0 0 6 0 11 0 15 0 18 0 22 0 25 0 28 0 31 0 33 1 36 0 37 0 38 0 39 0 41 0 41 1 41 0 41 0 41 0 40 0 40 1 38 0 37 0 34 0 33 0 30 0 28 0 25 1 21 0 18 0 14 0 10 0 5 0 0 20 -5 0 -10 0 -14 0 -18 0 -21 0 -25 -1 -28 0 -30 0 -33 0 -35 0 -36 0 -38 0 -40 -1 -40 0 -41 0 -41 0 -41 0 -41 -1 -41 0 -39 0 -39 0 -37 0 -35 0 -33 -1 -31 0 -28 0 -25 0 -22 0 -18 0 -15 0 -11 0 -6 0 0 0zm0 0c-5,0 -10,-4 -10,-10 0,-5 5,-10 10,-10l0 20zm-26 -22l20 0 0 0 0 0 0 1 0 0 0 0 0 0 0 1 0 0 0 0 0 0 0 -1 0 0 0 0 0 0 0 0 0 0 0 0 0 0 0 0 0 0 0 0 1 1 0 0 0 0 1 0 0 0 1 0 0 0 1 0 0 0 1 0 0 0 1 0 0 20 -1 0 -1 0 0 0 -1 0 -1 0 -1 0 -1 0 -1 0 -1 -1 -1 0 -1 0 -1 0 -2 -1 -1 0 -1 -1 -1 0 -1 -1 -1 -1 -1 0 -1 -1 -1 -1 -1 -1 -1 -1 0 -2 -1 -1 -1 -1 0 -2 0 -1 -1 -1 0 -2 0 -1 0 -2 0 0zm0 0c0,-5 4,-10 10,-10 5,0 10,4 10,10l-20 0zm46 -4676l20 1 0 0 0 21 -1 46 0 69 -1 89 -2 110 -1 127 -1 144 -2 158 -2 171 -2 183 -1 192 -2 200 -3 207 -2 212 -2 214 -2 216 -2 216 -2 214 -2 211 -2 206 -2 199 -2 190 -2 180 -2 169 -1 155 -1 141 -2 123 0 106 -1 85 -1 64 0 41 0 16 -20 0 0 -16 0 -41 1 -64 1 -85 0 -106 2 -124 1 -140 1 -155 2 -169 2 -180 2 -191 2 -198 2 -206 2 -211 2 -214 2 -216 2 -216 2 -215 2 -211 3 -207 2 -200 1 -192 2 -183 2 -171 2 -158 1 -144 1 -127 2 -110 1 -90 0 -68 1 -46 0 -21 0 -1zm0 1c0,-6 5,-10 10,-10 6,0 10,4 10,10l-20 0zm5 1l7 -19 1 0 1 1 1 1 1 0 1 1 0 1 1 0 0 1 0 1 1 0 0 1 0 1 0 0 1 1 0 0 0 1 0 0 0 1 0 0 0 1 0 0 0 1 0 1 0 0 0 1 0 0 0 1 0 0 0 1 0 0 0 1 0 0 -20 -1 0 0 0 -1 0 0 0 0 0 -1 0 0 0 0 0 0 0 -1 0 0 0 0 0 0 0 0 0 0 0 0 0 0 0 0 0 0 0 0 0 0 0 0 0 0 1 1 0 0 0 0 0 1 1 0 0 1 1 0 0 1 1 0 1 1zm0 0c-5,-2 -8,-8 -6,-13 2,-5 8,-8 13,-6l-7 19z"/>
  </g>
 </g>
</svg>
