<?xml version="1.0" encoding="UTF-8"?>
<!DOCTYPE svg PUBLIC "-//W3C//DTD SVG 1.1//EN" "http://www.w3.org/Graphics/SVG/1.1/DTD/svg11.dtd">
<!-- Creator: CorelDRAW -->
<svg xmlns="http://www.w3.org/2000/svg" xml:space="preserve" width="40mm" height="60mm" style="shape-rendering:geometricPrecision; text-rendering:geometricPrecision; image-rendering:optimizeQuality; fill-rule:evenodd; clip-rule:evenodd"
viewBox="0 0 40 60"
 xmlns:xlink="http://www.w3.org/1999/xlink">
 <defs>
  <style type="text/css">
   <![CDATA[
    .str0 {stroke:#1F1A17;stroke-width:0.194}
    .str1 {stroke:#1F1A17;stroke-width:0.2}
    .fil0 {fill:none}
   ]]>
  </style>
 </defs>
 <g id="图层_x0020_8">
  <metadata id="CorelCorpID_0Corel-Layer"/>
  <path class="fil0 str0" d="M6.6137 17.7076l0.0001 0c0.2238,0 0.4068,0.1849 0.4068,0.4111l0 5.277c0,0.2261 -0.183,0.4111 -0.4068,0.4111l-0.0001 0c-0.2238,0 -0.4068,-0.185 -0.4068,-0.4111l0 -5.277c0,-0.2262 0.183,-0.4111 0.4068,-0.4111z"/>
  <path class="fil0 str0" d="M6.5519 25.7064l0.1103 0c0.2111,0 0.3838,0.1562 0.3838,0.3472l0 2.5058c0,0.191 -0.1727,0.3472 -0.3838,0.3472l-0.1103 0c-0.2112,0 -0.3839,-0.1562 -0.3839,-0.3472l0 -2.5058c0,-0.191 0.1727,-0.3472 0.3839,-0.3472z"/>
  <line class="fil0 str0" x1="30.4883" y1="10.7393" x2="29.4283" y2= "10.7319" />
  <line class="fil0 str0" x1="29.526" y1="10.6332" x2="29.527" y2= "10.04" />
  <path class="fil0 str0" d="M29.527 10.04c0.001,-0.6855 -0.0042,-0.7342 -0.104,-1.0442 -0.2091,-0.6504 -0.6271,-1.1109 -1.2691,-1.3985 -0.3364,-0.1507 -0.4585,-0.1719 -1.0091,-0.1772 -7.4745,-0.0711 -5.6059,-0.0573 -13.0802,-0.1008 -2.8205,-0.016 -3.7723,0.0085 -4.0663,0.1051l-0.1231 0.0254 -0.0498 0.0095"/>
  <path class="fil0 str0" d="M9.8254 7.4593c-1.0378,0.19 -1.7891,1.1249 -1.8071,2.2486"/>
  <line class="fil0 str0" x1="8.0183" y1="9.7079" x2="8.0204" y2= "10.8369" />
  <path class="fil0 str0" d="M7.9228 10.7393c-0.2006,0 -0.3767,0 -0.5306,0"/>
  <line class="fil0 str0" x1="7.3922" y1="10.7393" x2="5.7772" y2= "10.7467" />
  <path class="fil0 str0" d="M5.7772 10.7467c-0.121,0.0064 -0.1475,0.0191 -0.1762,0.0881 -0.0328,0.0764 -0.036,0.0966 -0.0445,0.3544"/>
  <line class="fil0 str0" x1="5.5565" y1="11.1892" x2="5.3272" y2= "43.5042" />
  <path class="fil0 str0" d="M8.118 52.6043c-0.0976,-0.3004 -0.0976,-0.6205 -0.101,-1.6962l-1.5193 -0.0133c-0.8415,0 -0.8139,0.0011 -0.8564,-0.0372l-0.1294 -0.1995c-0.1592,-0.3437 -0.2165,-2.572 -0.1847,-7.1539"/>
  <line class="fil0 str0" x1="8.118" y1="52.6043" x2="8.1265" y2= "52.6297" />
  <path class="fil0 str0" d="M8.1265 52.6297c0.2165,0.6622 0.6229,1.1089 1.2723,1.4007 0.3407,0.1528 0.4393,0.1697 1.0028,0.1751"/>
  <line class="fil0 str0" x1="10.4016" y1="54.2055" x2="23.9762" y2= "54.3084" />
  <path class="fil0 str0" d="M23.9762 54.3084c2.4778,0.019 3.2885,-0.0031 3.5665,-0.0997"/>
  <path class="fil0 str0" d="M27.5427 54.2087l0.1623 -0.034 0.0213 -0.0042m-0.1836 0.0382z"/>
  <path class="fil0 str0" d="M27.7263 54.1705c0.9667,-0.1741 1.7614,-1.0983 1.7997,-2.0925"/>
  <line class="fil0 str0" x1="29.526" y1="52.078" x2="29.526" y2= "50.7886" />
  <line class="fil0 str0" x1="29.6321" y1="50.8938" x2="31.0784" y2= "50.898" />
  <path class="fil0 str0" d="M31.0784 50.898c0.6006,0.0021 0.7289,-0.0042 0.7936,-0.0382 0.0648,-0.0329 0.0776,-0.1008 0.0818,-0.4181"/>
  <line class="fil0 str0" x1="31.9538" y1="50.4417" x2="32.1735" y2= "30.8228" />
  <path class="fil0 str0" d="M32.1735 30.8228c0.0477,-4.2264 0.0679,-8.4528 0.0625,-12.6791 -0.0063,-4.6041 -0.0775,-6.8346 -0.2292,-7.1774l-0.0636 -0.1262c-0.0329,-0.0467 -0.0743,-0.0711 -0.1455,-0.0849 -0.0848,-0.017 -0.1749,-0.0191 -0.5655,-0.0181"/>
  <line class="fil0 str0" x1="31.2322" y1="10.7371" x2="30.3685" y2= "10.7393" />
 </g>
 <g id="图层_x0020_9">
  <metadata id="CorelCorpID_1Corel-Layer"/>
  <ellipse class="fil0 str1" transform="matrix(2.64845E-014 1 1 -2.64845E-014 12.4007 13.4821)" rx="0.7399" ry="0.7203"/>
  <ellipse class="fil0 str1" transform="matrix(2.64845E-014 1 1 -2.64845E-014 12.4148 9.9308)" rx="1.4871" ry="1.488"/>
  <rect class="fil0 str1" x="30.3886" y="12.6162" width="0.8085" height="6.096" rx="0.4704" ry="0.4704"/>
 </g>
</svg>
