<?xml version="1.0" encoding="UTF-8"?>
<!DOCTYPE svg PUBLIC "-//W3C//DTD SVG 1.1//EN" "http://www.w3.org/Graphics/SVG/1.1/DTD/svg11.dtd">
<!-- Creator: CorelDRAW -->
<svg xmlns="http://www.w3.org/2000/svg" xml:space="preserve" width="40mm" height="60mm" style="shape-rendering:geometricPrecision; text-rendering:geometricPrecision; image-rendering:optimizeQuality; fill-rule:evenodd; clip-rule:evenodd"
viewBox="0 0 40 60"
 xmlns:xlink="http://www.w3.org/1999/xlink">
 <defs>
  <style type="text/css">
   <![CDATA[
    .str0 {stroke:#1F1A17;stroke-width:0.194}
    .fil0 {fill:none;fill-rule:nonzero}
   ]]>
  </style>
 </defs>
 <g id="图层_x0020_1">
  <metadata id="CorelCorpID_0Corel-Layer"/>
  <g id="_274507152">
   <polyline id="_274510008" class="fil0 str0" points="18.6599,21.5415 18.6599,21.6333 18.7231,21.6185 18.7586,21.5701 18.7586,21.5069 18.7231,21.4576 18.6599,21.4438 "/>
   <path id="_274510536" class="fil0 str0" d="M18.6599 21.4438c0,-0.0247 0,-0.0494 0,-0.0731 0,-0.5507 0.1076,-0.8587 0.4067,-1.1627 0.2606,-0.2655 0.6149,-0.4145 0.985,-0.4145 0.4629,0 0.8992,0.2329 1.1676,0.6228 0.1846,0.2704 0.2497,0.5507 0.2497,1.0818 0,0.8567 -0.1519,1.2327 -0.6267,1.5574 -0.225,0.154 -0.5034,0.2379 -0.7886,0.2379 -0.838,0 -1.3976,-0.6238 -1.3976,-1.5585 0,-0.0779 0.0029,-0.1766 0.0118,-0.4096"/>
   <polyline id="_274509912" class="fil0 str0" points="30.8168,30.0612 30.8237,29.9635 30.8168,29.9635 "/>
   <path id="_273411208" class="fil0 str0" d="M30.8168 29.9635c0,-6.6987 0,-13.3975 0.001,-20.0953 -0.0829,-1.1034 -1.0196,-2.045 -2.0707,-2.0816"/>
   <polyline id="_274506648" class="fil0 str0" points="28.7471,7.7866 21.8361,7.7906 21.8568,7.8538 21.8075,7.8952 21.8361,7.911 21.8539,7.9179 21.8775,7.9239 21.8795,15.9718 "/>
   <path id="_274507704" class="fil0 str0" d="M21.8795 15.9718c0.001,1.4638 0.001,1.4638 -0.0276,1.5595"/>
   <line id="_273982400" class="fil0 str0" x1="21.8519" y1="17.5313" x2="21.838" y2= "17.5777" />
   <path id="_274507368" class="fil0 str0" d="M21.838 17.5777c-0.2072,0.832 -0.9366,1.4094 -1.7795,1.4084 -0.8478,-0.0009 -1.5851,-0.5833 -1.7795,-1.4074 -0.0405,-0.1698 -0.0484,-0.4807 -0.0464,-1.7895"/>
   <line id="_274507344" class="fil0 str0" x1="18.2326" y1="15.7892" x2="18.2405" y2= "7.7343" />
   <path id="_273410536" class="fil0 str0" d="M18.2405 7.7343c-0.0237,0.001 -0.0474,0.0099 -0.0701,0.0286"/>
   <line id="_273410512" class="fil0 str0" x1="18.1704" y1="7.7629" x2="18.122" y2= "7.7205" />
   <path id="_273410368" class="fil0 str0" d="M18.122 7.7205c-0.0128,0.0158 -0.0207,0.0395 -0.0207,0.0701"/>
   <line id="_273409984" class="fil0 str0" x1="18.1013" y1="7.7906" x2="11.3621" y2= "7.7906" />
   <path id="_273409936" class="fil0 str0" d="M11.3621 7.7906c-0.9515,0.0326 -1.7322,0.7235 -2.0441,1.8111 -0.0267,0.0918 -0.0306,0.1787 -0.0326,0.5952"/>
   <line id="_273409912" class="fil0 str0" x1="9.2854" y1="10.1969" x2="9.1936" y2= "36.765" />
   <path id="_273409864" class="fil0 str0" d="M9.1936 36.765c-0.0395,11.3761 -0.0187,13.4695 0.1362,13.8041 0.4284,0.9249 0.5893,1.1361 1.0887,1.4312 0.3168,0.1855 0.6504,0.2793 1.0018,0.2793"/>
   <line id="_273411760" class="fil0 str0" x1="11.4203" y1="52.2796" x2="28.7767" y2= "52.2786" />
   <path id="_274506936" class="fil0 str0" d="M28.7767 52.2786c0.8261,-0.0227 1.5111,-0.5724 1.9562,-1.5683 0.0444,-0.1007 0.0602,-0.2152 0.073,-0.537"/>
   <line id="_273411688" class="fil0 str0" x1="30.8059" y1="50.1733" x2="30.7832" y2= "30.2103" />
   <path id="_273410464" class="fil0 str0" d="M30.7832 30.2103c0.0079,-0.2211 0.0168,-0.303 0.0405,-0.3662"/>
  </g>
 </g>
</svg>
