<?xml version="1.0" encoding="UTF-8"?>
<!DOCTYPE svg PUBLIC "-//W3C//DTD SVG 1.1//EN" "http://www.w3.org/Graphics/SVG/1.1/DTD/svg11.dtd">
<!-- Creator: CorelDRAW X8 -->
<svg xmlns="http://www.w3.org/2000/svg" xml:space="preserve" width="40mm" height="60mm" version="1.1" style="shape-rendering:geometricPrecision; text-rendering:geometricPrecision; image-rendering:optimizeQuality; fill-rule:evenodd; clip-rule:evenodd"
viewBox="0 0 4000 6000"
 xmlns:xlink="http://www.w3.org/1999/xlink">
 <defs>
  <style type="text/css">
   <![CDATA[
    .str0 {stroke:black;stroke-width:7.62}
    .fil0 {fill:none}
   ]]>
  </style>
 </defs>
 <g id="图层_x0020_1">
  <metadata id="CorelCorpID_0Corel-Layer"/>
  <path class="fil0 str0" d="M2618 777c0,-5 -4,-10 -14,-10 -32,0 -59,26 -59,59 0,32 27,59 59,59 33,0 59,-27 59,-59 0,-33 -26,-59 -59,-59m-218 7c0,-5 -4,-10 -13,-11 -33,0 -59,27 -59,59 0,33 26,59 59,59 32,0 59,-26 59,-59 0,-32 -27,-59 -59,-59m-450 46c-6,-19 -16,-34 -64,-34l-40 0c-21,0 -39,17 -39,39l0 0c0,21 18,38 39,38l387 0c22,0 39,-17 39,-38l0 0c0,-22 -17,-39 -39,-39l-347 0m-933 4575l2070 0c64,0 116,-52 116,-116l0 -4468c0,-64 -52,-116 -116,-116l-1992 0c-64,0 -116,52 -116,116l0 4468c0,64 52,116 116,116l56 0"/>
 </g>
</svg>
