<?xml version="1.0" encoding="UTF-8"?>
<!DOCTYPE svg PUBLIC "-//W3C//DTD SVG 1.1//EN" "http://www.w3.org/Graphics/SVG/1.1/DTD/svg11.dtd">
<!-- Creator: CorelDRAW 2020 (64-Bit) -->
<svg xmlns="http://www.w3.org/2000/svg" xml:space="preserve" width="40mm" height="60mm" version="1.1" style="shape-rendering:geometricPrecision; text-rendering:geometricPrecision; image-rendering:optimizeQuality; fill-rule:evenodd; clip-rule:evenodd"
viewBox="0 0 4000 6000"
 xmlns:xlink="http://www.w3.org/1999/xlink"
 xmlns:xodm="http://www.corel.com/coreldraw/odm/2003">
 <defs>
  <style type="text/css">
   <![CDATA[
    .str0 {stroke:black;stroke-width:20;stroke-miterlimit:22.9256}
    .fil0 {fill:none}
   ]]>
  </style>
 </defs>
 <g id="图层_x0020_1">
  <metadata id="CorelCorpID_0Corel-Layer"/>
  <path class="fil0 str0" d="M494.69 5329.01l2914.75 0c61.48,0 111.78,-50.3 111.78,-111.79l0 -4449.77c0,-61.48 -50.3,-111.78 -111.78,-111.78l-2832.07 0c-61.49,0 -111.79,50.3 -111.79,111.78l0 2153.99c0,13.2 10.77,23.97 23.97,23.97l21.6 0c24.71,0 44.93,20.22 44.93,44.93l0 0c0,24.72 -20.22,44.94 -44.93,44.94l-21.6 0c-13.2,0 -23.97,10.76 -23.97,23.96l0 2157.98c0,61.49 50.3,111.79 111.79,111.79l66.6 0c60.39,0 123.3,16.92 131.44,26.66"/>
 </g>
</svg>
