<?xml version="1.0" encoding="UTF-8"?>
<!DOCTYPE svg PUBLIC "-//W3C//DTD SVG 1.1//EN" "http://www.w3.org/Graphics/SVG/1.1/DTD/svg11.dtd">
<!-- Creator: CorelDRAW X8 -->
<svg xmlns="http://www.w3.org/2000/svg" xml:space="preserve" width="40mm" height="60mm" version="1.1" style="shape-rendering:geometricPrecision; text-rendering:geometricPrecision; image-rendering:optimizeQuality; fill-rule:evenodd; clip-rule:evenodd"
viewBox="0 0 4000 6000"
 xmlns:xlink="http://www.w3.org/1999/xlink">
 <defs>
  <style type="text/css">
   <![CDATA[
    .str0 {stroke:black;stroke-width:7.62}
    .fil0 {fill:none}
   ]]>
  </style>
 </defs>
 <g id="图层_x0020_1">
  <metadata id="CorelCorpID_0Corel-Layer"/>
  <path class="fil0 str0" d="M1268 5350l1411 0c7,0 13,-6 13,-13 0,-69 0,-138 0,-206 0,-6 7,-10 15,-10l81 0c86,0 160,-51 195,-124 2,-4 3,-8 5,-12 -2,6 -4,13 -5,19 -27,91 -58,176 -60,297 -1,16 0,15 17,15 69,0 138,0 207,0 3,0 4,-2 4,-5l0 -4622c0,-5 0,-6 -5,-6 -71,0 -143,0 -214,0 -9,0 -9,1 -9,7 0,165 85,285 84,390 -1,-52 -58,-201 -219,-201l-70 0c-6,0 -11,-4 -11,-11l0 -205c0,-7 -6,-13 -13,-13l-1388 0c-7,0 -13,6 -13,13 0,69 0,138 0,207 0,5 -1,9 -10,9l-71 0c-123,0 -201,81 -208,195 0,-60 73,-270 73,-383 0,-6 0,-7 -9,-7 -71,0 -143,0 -214,0 -5,0 -5,0 -5,5l0 4623c0,3 1,4 4,4 69,0 138,0 207,0 17,0 17,1 17,-15 2,-139 -52,-249 -60,-297 -1,-6 -6,-35 -8,-42 1,2 5,23 5,24 33,77 109,135 198,135l88 0c4,0 8,2 8,8l0 208c0,7 6,13 13,13l60 0m20 -4687l1177 0c45,0 82,37 82,83l0 10c0,46 -37,83 -82,83l-1177 0c-33,0 -61,-28 -61,-61l0 -54c0,-33 28,-61 61,-61zm-19 4539l248 0c18,0 33,15 33,34l0 0c0,18 -15,33 -33,33l-248 0c-19,0 -34,-15 -34,-33l0 0c0,-19 15,-34 34,-34zm536 -22l175 0c26,0 47,22 47,48l0 0c0,26 -21,47 -47,47l-175 0c-26,0 -47,-21 -47,-47l0 0c0,-26 21,-48 47,-48zm362 22c15,0 27,12 27,27 0,15 -12,27 -27,27 -15,0 -27,-12 -27,-27 0,-15 12,-27 27,-27zm296 -40c37,0 68,30 68,67 0,37 -31,67 -68,67 -37,0 -67,-30 -67,-67 0,-37 30,-67 67,-67zm501 -3051l0 0c22,0 41,18 41,40l0 560c0,23 -19,41 -41,41l0 0c-22,0 -40,-18 -40,-41l0 -560c0,-22 18,-40 40,-40zm-2149 -210l0 0c19,0 34,16 34,34l0 404c0,19 -15,34 -34,34l0 0c-18,0 -34,-15 -34,-34l0 -404c0,-18 16,-34 34,-34zm0 488l0 0c23,0 42,19 42,42l0 293c0,23 -19,42 -42,42l0 0c-23,0 -42,-19 -42,-42l0 -293c0,-23 19,-42 42,-42zm0 -533c11,0 20,9 20,20 0,11 -9,20 -20,20 -11,0 -20,-9 -20,-20 0,-11 9,-20 20,-20zm1054 -573l36 0c59,0 107,49 107,108l0 741c0,59 -48,107 -107,107l-36 0c-59,0 -107,-48 -107,-107l0 -741c0,-59 48,-108 107,-108zm244 188l0 0c26,0 47,22 47,48l0 67c0,26 -21,47 -47,47l0 0c-26,0 -47,-21 -47,-47l0 -67c0,-26 21,-48 47,-48zm-226 779c13,0 24,11 24,24 0,14 -11,25 -24,25 -13,0 -24,-11 -24,-25 0,-13 11,-24 24,-24zm0 76c33,0 61,27 61,60 0,34 -28,61 -61,61 -33,0 -61,-27 -61,-61 0,-33 28,-60 61,-60z"/>
 </g>
</svg>
