<?xml version="1.0" encoding="UTF-8"?>
<!DOCTYPE svg PUBLIC "-//W3C//DTD SVG 1.1//EN" "http://www.w3.org/Graphics/SVG/1.1/DTD/svg11.dtd">
<!-- Creator: CorelDRAW X8 -->
<svg xmlns="http://www.w3.org/2000/svg" xml:space="preserve" width="40mm" height="60mm" version="1.1" style="shape-rendering:geometricPrecision; text-rendering:geometricPrecision; image-rendering:optimizeQuality; fill-rule:evenodd; clip-rule:evenodd"
viewBox="0 0 4000 6000"
 xmlns:xlink="http://www.w3.org/1999/xlink">
 <defs>
  <style type="text/css">
   <![CDATA[
    .str0 {stroke:#222222;stroke-width:20}
    .fil0 {fill:none}
   ]]>
  </style>
 </defs>
 <g id="图层_x0020_1">
  <metadata id="CorelCorpID_0Corel-Layer"/>
  <path class="fil0 str0" d="M1496 5350c0,-40 -130,-119 -250,-119 -120,0 -218,-100 -218,-223l0 -4136c0,-122 97,-222 217,-222l526 0 20 17 167 0 0 74c0,32 29,59 61,59l0 0c32,0 61,-27 61,-59l0 -74 165 0 21 -17 519 0c120,0 220,100 220,222l0 4136c0,122 -99,223 -219,223l-1791 0"/>
  <path class="fil0 str0" d="M-11494 4979c-139,0 -420,458 -420,880 0,422 -352,767 -781,767l-14534 0c-430,0 -781,-342 -781,-764l0 -1848 58 -70 0 -587 261 0c115,0 209,-102 209,-215l0 0c0,-112 -94,-214 -209,-214l-261 0 0 -581 -58 -74 0 -1825c0,-422 351,-770 781,-770l14534 0c429,0 781,345 781,767l0 6293"/>
 </g>
</svg>
