<?xml version="1.0" encoding="UTF-8"?>
<!DOCTYPE svg PUBLIC "-//W3C//DTD SVG 1.1//EN" "http://www.w3.org/Graphics/SVG/1.1/DTD/svg11.dtd">
<!-- Creator: CorelDRAW X8 -->
<svg xmlns="http://www.w3.org/2000/svg" xml:space="preserve" width="40mm" height="60mm" version="1.1" style="shape-rendering:geometricPrecision; text-rendering:geometricPrecision; image-rendering:optimizeQuality; fill-rule:evenodd; clip-rule:evenodd"
viewBox="0 0 4000 6000"
 xmlns:xlink="http://www.w3.org/1999/xlink">
 <defs>
  <style type="text/css">
   <![CDATA[
    .str0 {stroke:#332C2B;stroke-width:20}
    .fil1 {fill:none}
    .fil0 {fill:none;fill-rule:nonzero}
   ]]>
  </style>
 </defs>
 <g id="图层_x0020_1">
  <metadata id="CorelCorpID_0Corel-Layer"/>
  <g id="_1508982390288">
   <path class="fil0 str0" d="M2006 2743c8,-48 34,-79 72,-101 15,-8 33,-11 48,-12 0,33 -15,83 -46,109 -14,12 -34,19 -53,23 -4,1 -20,1 -20,1 -1,-6 -2,-13 -1,-20z"/>
   <path class="fil0 str0" d="M2243 3080c-15,37 -33,69 -61,101 -14,15 -27,27 -47,33 -42,12 -75,-21 -114,-21 -24,0 -39,6 -61,15 -18,8 -39,14 -58,6 -31,-13 -54,-44 -72,-70 -21,-32 -36,-62 -47,-99 -13,-41 -19,-84 -14,-126 6,-65 46,-124 113,-141 34,-9 64,0 96,12 10,4 20,8 31,9 21,1 43,-12 62,-19 17,-6 35,-8 54,-8 31,0 57,10 83,31 8,7 25,28 25,28 -46,30 -67,65 -64,118 4,51 33,87 81,112 0,0 -5,14 -7,19z"/>
   <path class="fil1 str0" d="M3143 969l0 4062c0,175 -144,319 -319,319l-1648 0c-175,0 -319,-144 -319,-319 0,-1044 0,-2088 0,-3132 0,-114 55,-140 124,-140 37,0 74,0 111,0l377 0 208 0c130,0 236,-105 236,-235l0 -220c0,-187 0,-374 0,-562 0,-47 22,-92 89,-92l822 0c175,0 319,144 319,319z"/>
  </g>
 </g>
</svg>
