<?xml version="1.0" encoding="UTF-8"?>
<!DOCTYPE svg PUBLIC "-//W3C//DTD SVG 1.1//EN" "http://www.w3.org/Graphics/SVG/1.1/DTD/svg11.dtd">
<!-- Creator: CorelDRAW X8 -->
<svg xmlns="http://www.w3.org/2000/svg" xml:space="preserve" width="40mm" height="60mm" version="1.1" style="shape-rendering:geometricPrecision; text-rendering:geometricPrecision; image-rendering:optimizeQuality; fill-rule:evenodd; clip-rule:evenodd"
viewBox="0 0 4000 6000"
 xmlns:xlink="http://www.w3.org/1999/xlink">
 <defs>
  <style type="text/css">
   <![CDATA[
    .str0 {stroke:#332C2B;stroke-width:20}
    .fil0 {fill:none}
   ]]>
  </style>
 </defs>
 <g id="图层_x0020_1">
  <metadata id="CorelCorpID_0Corel-Layer"/>
  <g id="_1814599372752">
   <path class="fil0 str0" d="M964 854l-412 297 0 3682c0,0 326,234 421,302 0,123 98,215 221,215l1673 0c123,0 227,-86 227,-209l354 -296 0 -1917 -356 0 0 -1149 351 0 0 -621c0,0 -236,-196 -359,-296 0,-123 -94,-212 -217,-212l-1673 0c-123,0 -230,82 -230,204z"/>
   <path class="fil0 str0" d="M1454 838c0,-69 -166,-114 -216,-114 -50,0 -91,41 -91,91l0 0c0,50 41,91 91,91l304 0c50,0 91,-41 91,-91l0 0c0,-50 -41,-91 -91,-91l-304 0"/>
  </g>
  <path class="fil0 str0" d="M-12911 5772l0 -6537c0,-413 -290,-760 -702,-760l-995 -1189 -6433 0 0 1194 -3857 0 0 -1177 -2084 0c0,0 -659,792 -992,1205 -413,0 -713,314 -713,727l0 5617c0,413 274,771 686,771l995 1382 12361 0c0,0 785,-1092 1014,-1413 412,0 720,-327 720,-740 0,-412 216,-623 308,-623"/>
  <path class="fil0 str0" d="M-28055 3978c-233,0 -384,556 -384,724 0,168 137,305 305,305l0 0c168,0 305,-137 305,-305l0 -1020c0,-168 -137,-306 -305,-306l0 0c-168,0 -305,138 -305,306l0 1020"/>
 </g>
</svg>
