<?xml version="1.0" encoding="UTF-8"?>
<!DOCTYPE svg PUBLIC "-//W3C//DTD SVG 1.1//EN" "http://www.w3.org/Graphics/SVG/1.1/DTD/svg11.dtd">
<!-- Creator: CorelDRAW X8 -->
<svg xmlns="http://www.w3.org/2000/svg" xml:space="preserve" width="40mm" height="60mm" version="1.1" style="shape-rendering:geometricPrecision; text-rendering:geometricPrecision; image-rendering:optimizeQuality; fill-rule:evenodd; clip-rule:evenodd"
viewBox="0 0 4000 6000"
 xmlns:xlink="http://www.w3.org/1999/xlink">
 <defs>
  <style type="text/css">
   <![CDATA[
    .str0 {stroke:#332C2B;stroke-width:7.62}
    .fil0 {fill:none}
   ]]>
  </style>
 </defs>
 <g id="图层_x0020_1">
  <metadata id="CorelCorpID_0Corel-Layer"/>
  <path class="fil0 str0" d="M639 650l2507 0c118,0 215,97 215,215l0 4270c0,118 -97,215 -215,215l-2288 0c-119,0 -215,-97 -215,-215l0 -4270c0,-118 -27,-215 91,-215l125 0m1082 485l147 0c50,0 91,40 91,90l0 147c0,50 -41,91 -91,91l-147 0c-50,0 -91,-41 -91,-91l0 -147c0,-50 41,-90 91,-90zm47 363l48 0c21,0 38,17 38,39l0 47c0,21 -17,39 -38,39l-48 0c-21,0 -38,-18 -38,-39l0 -47c0,-22 17,-39 38,-39z"/>
 </g>
</svg>
