<?xml version="1.0" encoding="UTF-8"?>
<!DOCTYPE svg PUBLIC "-//W3C//DTD SVG 1.1//EN" "http://www.w3.org/Graphics/SVG/1.1/DTD/svg11.dtd">
<!-- Creator: CorelDRAW X8 -->
<svg xmlns="http://www.w3.org/2000/svg" xml:space="preserve" width="40mm" height="60mm" version="1.1" style="shape-rendering:geometricPrecision; text-rendering:geometricPrecision; image-rendering:optimizeQuality; fill-rule:evenodd; clip-rule:evenodd"
viewBox="0 0 4000 6000"
 xmlns:xlink="http://www.w3.org/1999/xlink">
 <defs>
  <style type="text/css">
   <![CDATA[
    .str0 {stroke:black;stroke-width:7.62}
    .fil0 {fill:none}
   ]]>
  </style>
 </defs>
 <g id="图层_x0020_1">
  <metadata id="CorelCorpID_0Corel-Layer"/>
  <path class="fil0 str0" d="M2812 711c93,0 168,75 168,167 0,92 -75,167 -168,167 -92,0 -167,-75 -167,-167 0,-92 75,-167 167,-167zm0 -40c117,0 211,94 211,211 0,116 -94,210 -211,210 -116,0 -211,-94 -211,-210 0,-117 95,-211 211,-211zm0 572c93,0 168,75 168,167 0,93 -75,168 -168,168 -92,0 -167,-75 -167,-168 0,-92 75,-167 167,-167zm0 -47c117,0 211,94 211,211 0,116 -94,211 -211,211 -116,0 -211,-95 -211,-211 0,-117 95,-211 211,-211zm453 -503c53,0 97,43 97,96 0,54 -44,97 -97,97 -53,0 -97,-43 -97,-97 0,-53 44,-96 97,-96zm2 284c93,0 168,75 168,167 0,93 -75,168 -168,168 -92,0 -167,-75 -167,-168 0,-92 75,-167 167,-167zm-3 -47c118,0 214,96 214,214 0,119 -96,215 -214,215 -119,0 -215,-96 -215,-215 0,-118 96,-214 215,-214zm0 539c22,0 40,18 40,40 0,22 -18,41 -40,41 -23,0 -41,-19 -41,-41 0,-22 18,-40 41,-40zm-543 174l547 0c123,0 224,-101 224,-223l0 -547c0,-122 -101,-223 -224,-223l-467 0c-123,0 -223,101 -223,223l0 547c0,122 100,223 223,223l14 0c38,0 41,2 57,16m-1094 -948c92,0 167,75 167,167 0,92 -75,167 -167,167 -93,0 -168,-75 -168,-167 0,-92 75,-167 168,-167zm0 -40c116,0 211,94 211,211 0,116 -95,210 -211,210 -117,0 -211,-94 -211,-210 0,-117 94,-211 211,-211zm0 572c92,0 167,75 167,167 0,93 -75,168 -167,168 -93,0 -168,-75 -168,-168 0,-92 75,-167 168,-167zm0 -47c116,0 211,94 211,211 0,116 -95,211 -211,211 -117,0 -211,-95 -211,-211 0,-117 94,-211 211,-211zm452 -503c54,0 97,43 97,96 0,54 -43,97 -97,97 -53,0 -97,-43 -97,-97 0,-53 44,-96 97,-96zm3 284c92,0 167,75 167,167 0,93 -75,168 -167,168 -93,0 -168,-75 -168,-168 0,-92 75,-167 168,-167zm-4 -47c118,0 214,96 214,214 0,119 -96,215 -214,215 -118,0 -214,-96 -214,-215 0,-118 96,-214 214,-214zm0 539c22,0 40,18 40,40 0,22 -18,41 -40,41 -22,0 -40,-19 -40,-41 0,-22 18,-40 40,-40zm-543 174l548 0c122,0 223,-101 223,-223l0 -547c0,-122 -101,-223 -223,-223l-468 0c-122,0 -223,101 -223,223l0 547c0,122 101,223 223,223l15 0c37,0 40,2 56,16m-1094 -948c92,0 167,75 167,167 0,92 -75,167 -167,167 -93,0 -168,-75 -168,-167 0,-92 75,-167 168,-167zm0 -40c116,0 211,94 211,211 0,116 -95,210 -211,210 -117,0 -211,-94 -211,-210 0,-117 94,-211 211,-211zm0 572c92,0 167,75 167,167 0,93 -75,168 -167,168 -93,0 -168,-75 -168,-168 0,-92 75,-167 168,-167zm0 -47c116,0 211,94 211,211 0,116 -95,211 -211,211 -117,0 -211,-95 -211,-211 0,-117 94,-211 211,-211zm452 -503c54,0 97,43 97,96 0,54 -43,97 -97,97 -53,0 -96,-43 -96,-97 0,-53 43,-96 96,-96zm3 284c92,0 167,75 167,167 0,93 -75,168 -167,168 -93,0 -168,-75 -168,-168 0,-92 75,-167 168,-167zm-4 -47c119,0 215,96 215,214 0,119 -96,215 -215,215 -118,0 -214,-96 -214,-215 0,-118 96,-214 214,-214zm0 539c23,0 41,18 41,40 0,22 -18,41 -41,41 -22,0 -40,-19 -40,-41 0,-22 18,-40 40,-40zm-542 174l547 0c123,0 223,-101 223,-223l0 -547c0,-122 -100,-223 -223,-223l-467 0c-123,0 -224,101 -224,223l0 547c0,122 101,223 224,223l14 0c38,0 40,2 56,16m2010 915c93,0 168,75 168,167 0,93 -75,168 -168,168 -92,0 -167,-75 -167,-168 0,-92 75,-167 167,-167zm0 -40c117,0 211,94 211,211 0,116 -94,211 -211,211 -116,0 -211,-95 -211,-211 0,-117 95,-211 211,-211zm0 572c93,0 168,75 168,168 0,92 -75,167 -168,167 -92,0 -167,-75 -167,-167 0,-93 75,-168 167,-168zm0 -47c117,0 211,95 211,211 0,117 -94,211 -211,211 -116,0 -211,-94 -211,-211 0,-116 95,-211 211,-211zm453 -503c53,0 97,43 97,97 0,53 -44,96 -97,96 -53,0 -97,-43 -97,-96 0,-54 44,-97 97,-97zm2 284c93,0 168,75 168,167 0,93 -75,168 -168,168 -92,0 -167,-75 -167,-168 0,-92 75,-167 167,-167zm-3 -47c118,0 214,96 214,214 0,119 -96,215 -214,215 -119,0 -215,-96 -215,-215 0,-118 96,-214 215,-214zm0 539c22,0 40,18 40,40 0,23 -18,41 -40,41 -23,0 -41,-18 -41,-41 0,-22 18,-40 41,-40zm-543 174l547 0c123,0 224,-100 224,-223l0 -546c0,-123 -101,-224 -224,-224l-467 0c-123,0 -223,101 -223,224l0 546c0,123 100,223 223,223l14 0c38,0 41,2 57,16m-1094 -948c92,0 167,75 167,167 0,93 -75,168 -167,168 -93,0 -168,-75 -168,-168 0,-92 75,-167 168,-167zm0 -40c116,0 211,94 211,211 0,116 -95,211 -211,211 -117,0 -211,-95 -211,-211 0,-117 94,-211 211,-211zm0 572c92,0 167,75 167,168 0,92 -75,167 -167,167 -93,0 -168,-75 -168,-167 0,-93 75,-168 168,-168zm0 -47c116,0 211,95 211,211 0,117 -95,211 -211,211 -117,0 -211,-94 -211,-211 0,-116 94,-211 211,-211zm452 -503c54,0 97,43 97,97 0,53 -43,96 -97,96 -53,0 -97,-43 -97,-96 0,-54 44,-97 97,-97zm3 284c92,0 167,75 167,167 0,93 -75,168 -167,168 -93,0 -168,-75 -168,-168 0,-92 75,-167 168,-167zm-4 -47c118,0 214,96 214,214 0,119 -96,215 -214,215 -118,0 -214,-96 -214,-215 0,-118 96,-214 214,-214zm0 539c22,0 40,18 40,40 0,23 -18,41 -40,41 -22,0 -40,-18 -40,-41 0,-22 18,-40 40,-40zm-543 174l548 0c122,0 223,-100 223,-223l0 -546c0,-123 -101,-224 -223,-224l-468 0c-122,0 -223,101 -223,224l0 546c0,123 101,223 223,223l15 0c37,0 40,2 56,16m-1094 -948c92,0 167,75 167,167 0,93 -75,168 -167,168 -93,0 -168,-75 -168,-168 0,-92 75,-167 168,-167zm0 -40c116,0 211,94 211,211 0,116 -95,211 -211,211 -117,0 -211,-95 -211,-211 0,-117 94,-211 211,-211zm0 572c92,0 167,75 167,168 0,92 -75,167 -167,167 -93,0 -168,-75 -168,-167 0,-93 75,-168 168,-168zm0 -47c116,0 211,95 211,211 0,117 -95,211 -211,211 -117,0 -211,-94 -211,-211 0,-116 94,-211 211,-211zm452 -503c54,0 97,43 97,97 0,53 -43,96 -97,96 -53,0 -96,-43 -96,-96 0,-54 43,-97 96,-97zm3 284c92,0 167,75 167,167 0,93 -75,168 -167,168 -93,0 -168,-75 -168,-168 0,-92 75,-167 168,-167zm-4 -47c119,0 215,96 215,214 0,119 -96,215 -215,215 -118,0 -214,-96 -214,-215 0,-118 96,-214 214,-214zm0 539c23,0 41,18 41,40 0,23 -18,41 -41,41 -22,0 -40,-18 -40,-41 0,-22 18,-40 40,-40zm-542 174l547 0c123,0 223,-100 223,-223l0 -546c0,-123 -100,-224 -223,-224l-467 0c-123,0 -224,101 -224,224l0 546c0,123 101,223 224,223l14 0c38,0 40,2 56,16m2010 880c93,0 168,75 168,167 0,93 -75,168 -168,168 -92,0 -167,-75 -167,-168 0,-92 75,-167 167,-167zm0 -40c117,0 211,94 211,211 0,116 -94,211 -211,211 -116,0 -211,-95 -211,-211 0,-117 95,-211 211,-211zm0 572c93,0 168,75 168,168 0,92 -75,167 -168,167 -92,0 -167,-75 -167,-167 0,-93 75,-168 167,-168zm0 -47c117,0 211,95 211,211 0,117 -94,211 -211,211 -116,0 -211,-94 -211,-211 0,-116 95,-211 211,-211zm453 -503c53,0 97,43 97,97 0,53 -44,96 -97,96 -53,0 -97,-43 -97,-96 0,-54 44,-97 97,-97zm2 284c93,0 168,75 168,167 0,93 -75,168 -168,168 -92,0 -167,-75 -167,-168 0,-92 75,-167 167,-167zm-3 -47c118,0 214,96 214,214 0,119 -96,215 -214,215 -119,0 -215,-96 -215,-215 0,-118 96,-214 215,-214zm0 539c22,0 40,18 40,40 0,23 -18,41 -40,41 -23,0 -41,-18 -41,-41 0,-22 18,-40 41,-40zm-543 174l547 0c123,0 224,-100 224,-223l0 -546c0,-123 -101,-224 -224,-224l-467 0c-123,0 -223,101 -223,224l0 546c0,123 100,223 223,223l14 0c38,0 41,2 57,16m-1094 -948c92,0 167,75 167,167 0,93 -75,168 -167,168 -93,0 -168,-75 -168,-168 0,-92 75,-167 168,-167zm0 -40c116,0 211,94 211,211 0,116 -95,211 -211,211 -117,0 -211,-95 -211,-211 0,-117 94,-211 211,-211zm0 572c92,0 167,75 167,168 0,92 -75,167 -167,167 -93,0 -168,-75 -168,-167 0,-93 75,-168 168,-168zm0 -47c116,0 211,95 211,211 0,117 -95,211 -211,211 -117,0 -211,-94 -211,-211 0,-116 94,-211 211,-211zm452 -503c54,0 97,43 97,97 0,53 -43,96 -97,96 -53,0 -97,-43 -97,-96 0,-54 44,-97 97,-97zm3 284c92,0 167,75 167,167 0,93 -75,168 -167,168 -93,0 -168,-75 -168,-168 0,-92 75,-167 168,-167zm-4 -47c118,0 214,96 214,214 0,119 -96,215 -214,215 -118,0 -214,-96 -214,-215 0,-118 96,-214 214,-214zm0 539c22,0 40,18 40,40 0,23 -18,41 -40,41 -22,0 -40,-18 -40,-41 0,-22 18,-40 40,-40zm-543 174l548 0c122,0 223,-100 223,-223l0 -546c0,-123 -101,-224 -223,-224l-468 0c-122,0 -223,101 -223,224l0 546c0,123 101,223 223,223l15 0c37,0 40,2 56,16m-1094 -948c92,0 167,75 167,167 0,93 -75,168 -167,168 -93,0 -168,-75 -168,-168 0,-92 75,-167 168,-167zm0 -40c116,0 211,94 211,211 0,116 -95,211 -211,211 -117,0 -211,-95 -211,-211 0,-117 94,-211 211,-211zm0 572c92,0 167,75 167,168 0,92 -75,167 -167,167 -93,0 -168,-75 -168,-167 0,-93 75,-168 168,-168zm0 -47c116,0 211,95 211,211 0,117 -95,211 -211,211 -117,0 -211,-94 -211,-211 0,-116 94,-211 211,-211zm452 -503c54,0 97,43 97,97 0,53 -43,96 -97,96 -53,0 -96,-43 -96,-96 0,-54 43,-97 96,-97zm3 284c92,0 167,75 167,167 0,93 -75,168 -167,168 -93,0 -168,-75 -168,-168 0,-92 75,-167 168,-167zm-4 -47c119,0 215,96 215,214 0,119 -96,215 -215,215 -118,0 -214,-96 -214,-215 0,-118 96,-214 214,-214zm0 539c23,0 41,18 41,40 0,23 -18,41 -41,41 -22,0 -40,-18 -40,-41 0,-22 18,-40 40,-40zm-542 174l547 0c123,0 223,-100 223,-223l0 -546c0,-123 -100,-224 -223,-224l-467 0c-123,0 -224,101 -224,224l0 546c0,123 101,223 224,223l14 0c38,0 40,2 56,16"/>
 </g>
</svg>
