<?xml version="1.0" encoding="UTF-8"?>
<!DOCTYPE svg PUBLIC "-//W3C//DTD SVG 1.1//EN" "http://www.w3.org/Graphics/SVG/1.1/DTD/svg11.dtd">
<!-- Creator: CorelDRAW 2020 (64-Bit) -->
<svg xmlns="http://www.w3.org/2000/svg" xml:space="preserve" width="40mm" height="60mm" version="1.1" style="shape-rendering:geometricPrecision; text-rendering:geometricPrecision; image-rendering:optimizeQuality; fill-rule:evenodd; clip-rule:evenodd"
viewBox="0 0 4000 6000"
 xmlns:xlink="http://www.w3.org/1999/xlink"
 xmlns:xodm="http://www.corel.com/coreldraw/odm/2003">
 <defs>
  <style type="text/css">
   <![CDATA[
    .str1 {stroke:#332C2B;stroke-width:20;stroke-miterlimit:22.9256}
    .str0 {stroke:#E62129;stroke-width:20;stroke-miterlimit:22.9256}
    .fil0 {fill:none}
   ]]>
  </style>
   <clipPath id="id0">
    <rect x="-47966.03" y="-5405.83" width="13375.84" height="16719.82"/>
   </clipPath>
 </defs>
 <g id="图层_x0020_1">
  <metadata id="CorelCorpID_0Corel-Layer"/>
  <g style="clip-path:url(#id0)">
   <image x="-47966.03" y="-5405.83" width="13375.84" height="16719.81" xlink:href="K60E -11i（背膜）_Images\K60E -11i（背膜）_ImgID1.png"/>
  </g>
  <rect class="fil0 str0" x="-47716.64" y="-5154.47" width="7620" height="16310"/>
  <rect class="fil0 str0" x="-47652.86" y="-5085.68" width="7492.44" height="16110.64" rx="900" ry="1069.36"/>
  <rect class="fil0 str0" x="-47221.21" y="-4482.26" width="2978.89" height="4700.33" rx="350" ry="349.97"/>
  <rect class="fil0 str0" x="-47101.64" y="-4396.61" width="2739.75" height="4529.04" rx="321.9" ry="337.22"/>
  <path class="fil0 str0" d="M-45714.58 -4169.63c-342.67,0 -620.45,277.78 -620.45,620.45 0,342.67 277.78,620.45 620.45,620.45 342.67,0 620.45,-277.78 620.45,-620.45 0,-342.67 -277.78,-620.45 -620.45,-620.45 -342.67,0 -462.21,381 -475.44,439.21"/>
  <path class="fil0 str0" d="M-46275.99 -2642.98c-203.85,0 -369.1,165.25 -369.1,369.09 0,203.85 165.25,369.1 369.1,369.1 203.84,0 369.09,-165.25 369.09,-369.1 0,-203.84 -165.25,-369.09 -369.09,-369.09 -203.85,0 -274.97,226.65 -282.84,261.28"/>
  <path class="fil0 str0" d="M-45148.86 -2642.98c-203.85,0 -369.1,165.25 -369.1,369.09 0,203.85 165.25,369.1 369.1,369.1 203.84,0 369.09,-165.25 369.09,-369.1 0,-203.84 -165.25,-369.09 -369.09,-369.09 -203.85,0 -274.97,226.65 -282.84,261.28"/>
  <rect class="fil0 str0" x="-45215.5" y="-1267.13" width="282.63" height="1066.28" rx="311.12" ry="296.32"/>
  <path class="fil0 str1" d="M-2990.63 6259.64l0 -6103.88c0,-494.98 -405.01,-900 -900,-900l-14310.64 0c-495,0 -900,405.01 -900,900l0 5692.44c0,495 405,900 900,900l14310.64 0c495,0 900,-405 900,-900 0,-495 21.68,-582.2 64.68,-712.51"/>
  <path class="fil0 str1" d="M-18497.85 5966.56l0 -2278.89c0,-192.5 157.5,-350 350,-350l4000.33 0c192.5,0 350,157.5 350,350l0 2278.89c0,192.5 -157.5,350 -350,350l-4000.33 0c-192.5,0 -350,-157.5 -350,-350z"/>
  <path class="fil0 str1" d="M-18412.2 5875.09l0 -2095.95c0,-177.05 144.84,-321.9 321.89,-321.9l3885.25 0c177.05,0 321.89,144.85 321.89,321.9l0 2095.95c0,177.05 -144.84,321.9 -321.89,321.9l-3885.25 0c-177.05,0 -321.89,-144.85 -321.89,-321.9z"/>
  <path class="fil0 str1" d="M-18185.22 4809.93c0,342.67 277.78,620.45 620.45,620.45 342.67,0 620.45,-277.78 620.45,-620.45 0,-342.67 -277.78,-620.45 -620.45,-620.45 -342.67,0 -620.45,277.78 -620.45,620.45 0,342.67 381,462.21 439.21,475.44"/>
  <path class="fil0 str1" d="M-16658.57 5371.34c0,203.85 165.25,369.1 369.09,369.1 203.85,0 369.1,-165.25 369.1,-369.1 0,-203.84 -165.25,-369.09 -369.1,-369.09 -203.84,0 -369.09,165.25 -369.09,369.09 0,203.85 226.65,274.97 261.28,282.84"/>
  <path class="fil0 str1" d="M-16658.57 4244.21c0,203.85 165.25,369.1 369.09,369.1 203.85,0 369.1,-165.25 369.1,-369.1 0,-203.84 -165.25,-369.09 -369.1,-369.09 -203.84,0 -369.09,165.25 -369.09,369.09 0,203.85 226.65,274.97 261.28,282.84"/>
  <path class="fil0 str1" d="M-15282.72 4169.53c0,77.73 63.58,141.31 141.31,141.31l783.66 0c77.73,0 141.31,-63.58 141.31,-141.31l0 -0.01c0,-77.73 -63.58,-141.31 -141.31,-141.31l-783.66 0c-77.74,0 -141.31,63.58 -141.31,141.32 0,77.74 82.04,107.69 117.76,110.33"/>
  <g id="_2062637248688">
   <path class="fil0 str1" d="M1046.83 5336.88l1773.59 0c143.82,0 261.51,-117.69 261.51,-261.51l0 -4158.19c0,-143.83 -117.69,-261.51 -261.51,-261.51l-1654.04 0c-143.83,0 -261.51,117.68 -261.51,261.51l0 4158.19c0,143.83 117.68,261.51 261.51,261.51 143.83,0 169.17,6.3 207.04,18.79"/>
   <path class="fil0 str1" d="M1131.99 831l662.17 0c55.94,0 101.7,45.77 101.7,101.7l0 1162.36c0,55.94 -45.76,101.7 -101.7,101.7l-662.17 0c-55.93,0 -101.7,-45.76 -101.7,-101.7l0 -1162.36c0,-55.93 45.77,-101.7 101.7,-101.7z"/>
   <path class="fil0 str1" d="M1158.57 855.89l609.01 0c51.45,0 93.54,42.09 93.54,93.53l0 1128.92c0,51.45 -42.09,93.53 -93.54,93.53l-609.01 0c-51.44,0 -93.53,-42.08 -93.53,-93.53l0 -1128.92c0,-51.44 42.09,-93.53 93.53,-93.53z"/>
   <path class="fil0 str1" d="M1468.07 921.84c-99.57,0 -180.28,80.72 -180.28,180.28 0,99.57 80.71,180.29 180.28,180.29 99.57,0 180.28,-80.72 180.28,-180.29 0,-99.56 -80.71,-180.28 -180.28,-180.28 -99.57,0 -134.3,110.71 -138.15,127.62"/>
   <path class="fil0 str1" d="M1304.94 1365.44c-59.23,0 -107.24,48.01 -107.24,107.24 0,59.23 48.01,107.25 107.24,107.25 59.23,0 107.25,-48.02 107.25,-107.25 0,-59.23 -48.02,-107.24 -107.25,-107.24 -59.23,0 -79.89,65.85 -82.18,75.91"/>
   <path class="fil0 str1" d="M1632.45 1365.44c-59.23,0 -107.25,48.01 -107.25,107.24 0,59.23 48.02,107.25 107.25,107.25 59.23,0 107.24,-48.02 107.24,-107.25 0,-59.23 -48.01,-107.24 -107.24,-107.24 -59.23,0 -79.9,65.85 -82.18,75.91"/>
   <path class="fil0 str1" d="M1654.15 1765.21c-22.59,0 -41.06,18.48 -41.06,41.06l0 227.71c0,22.58 18.47,41.06 41.06,41.06l0 0c22.59,0 41.06,-18.48 41.06,-41.06l0 -227.71c0,-22.59 -18.47,-41.06 -41.06,-41.06 -22.59,0 -31.29,23.84 -32.06,34.22"/>
  </g>
 </g>
</svg>
