<?xml version="1.0" encoding="UTF-8"?>
<!DOCTYPE svg PUBLIC "-//W3C//DTD SVG 1.1//EN" "http://www.w3.org/Graphics/SVG/1.1/DTD/svg11.dtd">
<!-- Creator: CorelDRAW -->
<svg xmlns="http://www.w3.org/2000/svg" xml:space="preserve" width="40mm" height="60mm" style="shape-rendering:geometricPrecision; text-rendering:geometricPrecision; image-rendering:optimizeQuality; fill-rule:evenodd; clip-rule:evenodd"
viewBox="0 0 40 60"
 xmlns:xlink="http://www.w3.org/1999/xlink">
 <defs>
  <style type="text/css">
   <![CDATA[
    .str0 {stroke:#1F1A17;stroke-width:0.194}
    .fil0 {fill:none;fill-rule:nonzero}
   ]]>
  </style>
 </defs>
 <g id="图层_x0020_1">
  <metadata id="CorelCorpID_0Corel-Layer"/>
  <path class="fil0 str0" d="M25.0666 8.5721c0,-0.6783 -0.5815,-1.2462 -1.2757,-1.2462 -0.6993,0 -1.2588,0.5637 -1.2588,1.2693 0,0.6973 0.5689,1.2663 1.2652,1.2663 0.7025,0 1.2693,-0.5753 1.2693,-1.2894m-15.9085 44.1986l0.0105 -45.7373c0.0105,-0.1051 0.2839,-0.388 0.4385,-0.4584 0.1515,-0.0694 0.3061,-0.0768 1.4923,-0.0747m19.4927 46.5259c-0.0736,0.2188 -0.3471,0.3902 -0.7109,0.4459 -0.1094,0.0169 -0.2019,0.0249 -0.2747,0.0279l-19.3936 -0.0321m20.4276 -0.5647l-0.0368 0.0894 -0.0116 0.0336m0.2166 -15.3028c0.0684,12.2782 0.04,14.8548 -0.1682,15.1798m0 -45.4921l0.1682 30.3123m-0.8224 -31.2042c0.2062,0.0179 0.3828,0.1304 0.5627,0.3566 0.0767,0.0956 0.0894,0.1703 0.0915,0.5353m-0.6542 -0.8919l-6.6697 -0.0052 -0.0418 0.006c-0.3323,0.3197 -0.3368,0.259 -0.504,0.2842m-5.6337 0.019l5.6337 -0.019m-5.6337 0.019c-0.3744,-0.0095 -0.4701,-0.0473 -0.6168,-0.2792l-5.4209 -0.0437m-0.8865 46.9676c-0.5763,0 -0.5784,-0.001 -0.773,-0.1756 -0.1988,-0.1788 -0.2818,-0.3323 -0.2818,-0.5216"/>
 </g>
</svg>
