<?xml version="1.0" encoding="UTF-8"?>
<!DOCTYPE svg PUBLIC "-//W3C//DTD SVG 1.1//EN" "http://www.w3.org/Graphics/SVG/1.1/DTD/svg11.dtd">
<!-- Creator: CorelDRAW X8 -->
<svg xmlns="http://www.w3.org/2000/svg" xml:space="preserve" width="40mm" height="60mm" version="1.1" style="shape-rendering:geometricPrecision; text-rendering:geometricPrecision; image-rendering:optimizeQuality; fill-rule:evenodd; clip-rule:evenodd"
viewBox="0 0 4000 6000"
 xmlns:xlink="http://www.w3.org/1999/xlink">
 <defs>
  <style type="text/css">
   <![CDATA[
    .str0 {stroke:black;stroke-width:20}
    .fil0 {fill:none}
   ]]>
  </style>
 </defs>
 <g id="图层_x0020_1">
  <metadata id="CorelCorpID_0Corel-Layer"/>
  <path class="fil0 str0" d="M1092 650l1816 0c150,0 273,123 273,273l0 4154c0,150 -123,273 -273,273l-1816 0c-150,0 -273,-123 -273,-273l0 -4154c0,-150 123,-273 273,-273zm209 68l100 0c65,0 118,53 118,118l0 100c0,65 -53,118 -118,118l-100 0c-65,0 -118,-53 -118,-118l0 -100c0,-65 53,-118 118,-118zm306 93l42 0c26,0 47,22 47,48l0 42c0,26 -21,47 -47,47l-42 0c-26,0 -48,-21 -48,-47l0 -42c0,-26 22,-48 48,-48zm343 581l110 0c75,0 136,62 136,136l0 110c0,75 -61,136 -136,136l-110 0c-75,0 -136,-61 -136,-136l0 -110c0,-74 61,-136 136,-136zm-277 3553l664 0c29,0 52,24 52,53l0 0c0,29 -23,52 -52,52l-664 0c-29,0 -52,-23 -52,-52l0 0c0,-29 23,-53 52,-53z"/>
 </g>
</svg>
