<?xml version="1.0" encoding="UTF-8"?>
<!DOCTYPE svg PUBLIC "-//W3C//DTD SVG 1.1//EN" "http://www.w3.org/Graphics/SVG/1.1/DTD/svg11.dtd">
<!-- Creator: CorelDRAW X8 -->
<svg xmlns="http://www.w3.org/2000/svg" xml:space="preserve" width="40mm" height="60mm" version="1.1" style="shape-rendering:geometricPrecision; text-rendering:geometricPrecision; image-rendering:optimizeQuality; fill-rule:evenodd; clip-rule:evenodd"
viewBox="0 0 4000 6000"
 xmlns:xlink="http://www.w3.org/1999/xlink">
 <defs>
  <style type="text/css">
   <![CDATA[
    .str0 {stroke:#332C2B;stroke-width:10}
    .fil0 {fill:none}
   ]]>
  </style>
 </defs>
 <g id="图层_x0020_1">
  <metadata id="CorelCorpID_0Corel-Layer"/>
  <path class="fil0 str0" d="M1268 840c3,-63 -71,-112 -98,-114 -95,0 -172,77 -172,172 0,96 77,173 172,173 95,0 173,-77 173,-173 0,-95 -78,-172 -173,-172m51 577c2,-30 -34,-53 -46,-54 -46,0 -82,36 -82,82 0,45 36,82 82,82 45,0 82,-37 82,-82 0,-46 -37,-82 -82,-82m-288 4101l2017 0c135,0 246,-111 246,-246l0 -4207c0,-136 -111,-247 -246,-247l-1808 0c-135,0 -246,111 -246,247l0 4207c0,135 111,246 246,246l289 0"/>
 </g>
</svg>
