<?xml version="1.0" encoding="UTF-8"?>
<!DOCTYPE svg PUBLIC "-//W3C//DTD SVG 1.1//EN" "http://www.w3.org/Graphics/SVG/1.1/DTD/svg11.dtd">
<!-- Creator: CorelDRAW 2020 (64-Bit) -->
<svg xmlns="http://www.w3.org/2000/svg" xml:space="preserve" width="40mm" height="60mm" version="1.1" style="shape-rendering:geometricPrecision; text-rendering:geometricPrecision; image-rendering:optimizeQuality; fill-rule:evenodd; clip-rule:evenodd"
viewBox="0 0 4000 6000"
 xmlns:xlink="http://www.w3.org/1999/xlink"
 xmlns:xodm="http://www.corel.com/coreldraw/odm/2003">
 <defs>
  <style type="text/css">
   <![CDATA[
    .str0 {stroke:#222222;stroke-width:20;stroke-miterlimit:22.9256}
    .fil0 {fill:none}
   ]]>
  </style>
 </defs>
 <g id="图层_x0020_1">
  <metadata id="CorelCorpID_0Corel-Layer"/>
  <path class="fil0 str0" d="M-10693.26 7594.88l0 -824.23 -1249.11 -3.3c522.5,0 927.65,-444.48 927.65,-966.98l-11.33 -5571.73c1.65,-502.66 -397.56,-989.2 -920.01,-990.5l1252.8 0.57 0 -620.14 -17058.55 -40 0 620.14 1220.98 -4.96c-593.61,92.6 -836.47,476.41 -866.23,984.03l-17.74 5602.94c0,522.5 355.88,966.27 878.38,966.27l-1275.39 23.66 0 620.14 17118.55 0 0 -113.41c0,0 27.56,-427.75 147.72,-529.17"/>
  <path class="fil0 str0" d="M-21004.93 7018.55c0,138.91 -212.59,210.84 -292.38,210.84 -79.79,0 -145.06,-65.27 -145.06,-145.06l0 -0.01c0,-79.79 65.27,-145.06 145.06,-145.06l1141.84 0c79.79,0 145.06,65.27 145.06,145.06l0 0.01c0,79.79 -65.27,145.06 -145.06,145.06l-1141.84 0"/>
  <path class="fil0 str0" d="M-20226.87 -1116.48c0,90.13 -188.26,177.8 -256.27,177.8 -68.01,0 -123.65,-55.64 -123.65,-123.65l0 -0.01c0,-68.01 55.64,-123.65 123.65,-123.65l974.27 0c68.01,0 123.65,55.64 123.65,123.65l0 0.01c0,68.01 -55.64,123.65 -123.65,123.65l-974.27 0"/>
  <path class="fil0 str0" d="M-21634.16 -1116.54c0,114.1 -133.72,177.86 -201.73,177.86 -68.01,0 -123.65,-55.64 -123.65,-123.65l0 -0.01c0,-68.01 55.64,-123.65 123.65,-123.65l974.27 0c68.01,0 123.65,55.64 123.65,123.65l0 0.01c0,68.01 -55.64,123.65 -123.65,123.65l-974.27 0"/>
  <path class="fil0 str0" d="M-25628.54 -1257.97c0,167.02 -264.2,229.73 -348.57,229.73 -84.37,0 -153.39,-69.02 -153.39,-153.39l0 -0.01c0,-84.37 69.02,-153.39 153.39,-153.39l1678.4 0c84.37,0 153.39,69.02 153.39,153.39l0 0.01c0,84.37 -69.02,153.39 -153.39,153.39l-1678.4 0"/>
  <rect class="fil0 str0" transform="matrix(2.66212E-14 -1.00516 1.01096 2.67747E-14 -26851.2 6235.68)" width="3055.95" height="3922.46" rx="547.18" ry="547.18"/>
  <rect class="fil0 str0" transform="matrix(2.55715E-14 -0.965526 0.976186 2.58538E-14 -26778.4 6175.11)" width="3055.95" height="3922.46" rx="497.14" ry="497.14"/>
  <path class="fil0 str0" d="M-25741.59 4033.98c-85.99,0 -216.71,131.12 -216.71,213.24 0,82.12 67.18,149.31 149.31,149.31l0.02 0c82.13,0 149.31,-67.19 149.31,-149.31l0 -406.8c0,-82.12 -67.18,-149.31 -149.31,-149.31l-0.02 0c-82.13,0 -149.31,67.19 -149.31,149.31l0 406.8"/>
  <path class="fil0 str0" d="M-24815.59 4401.24c-82.83,0 -489.2,-85.6 -489.2,-332.32 0,-246.72 200,-446.72 446.72,-446.72 246.72,0 446.72,200 446.72,446.72 0,246.72 -200,446.72 -446.72,446.72 -246.72,0 -446.72,-200 -446.72,-446.72"/>
  <path class="fil0 str0" d="M-23856.86 5764.56c-122.37,0 -722.73,-126.47 -722.73,-490.96 0,-364.49 295.48,-659.97 659.97,-659.97 364.49,0 659.97,295.48 659.97,659.97 0,364.49 -295.48,659.97 -659.97,659.97 -364.49,0 -659.97,-295.48 -659.97,-659.97"/>
  <path class="fil0 str0" d="M-25742.42 5764.56c-122.37,0 -722.73,-126.47 -722.73,-490.96 0,-364.49 295.48,-659.97 659.97,-659.97 364.49,0 659.97,295.48 659.97,659.97 0,364.49 -295.48,659.97 -659.97,659.97 -364.49,0 -659.97,-295.48 -659.97,-659.97"/>
  <g id="_2333893329344">
   <path class="fil0 str0" d="M772.85 5309.79l224.36 0 0.9 -340.02c0,142.23 120.99,252.52 263.22,252.52l1516.66 -3.09c136.83,0.45 269.27,-108.22 269.62,-250.43l-0.16 341.02 168.81 0 10.89 -4643.46 -168.81 0 1.35 332.36c-25.2,-161.58 -129.68,-227.69 -267.86,-235.79l-1525.15 -4.83c-142.23,0 -263.03,96.87 -263.03,239.1l-6.44 -347.17 -168.81 0 0 4659.79 30.87 0c0,0 116.44,7.5 144.05,40.21"/>
   <path class="fil0 str0" d="M929.73 2502.88c-37.81,0 -57.39,-57.87 -57.39,-79.59 0,-21.72 17.76,-39.48 39.48,-39.48l0.01 0c21.72,0 39.48,17.76 39.48,39.48l0 310.82c0,21.72 -17.76,39.49 -39.48,39.49l-0.01 0c-21.72,0 -39.48,-17.77 -39.48,-39.49l0 -310.82"/>
   <path class="fil0 str0" d="M3144.14 2714.68c-24.53,0 -48.4,-51.25 -48.4,-69.76 0,-18.52 15.15,-33.66 33.66,-33.66l0 0c18.51,0 33.66,15.14 33.66,33.66l0 265.2c0,18.51 -15.15,33.66 -33.66,33.66l0 0c-18.51,0 -33.66,-15.15 -33.66,-33.66l0 -265.2"/>
   <path class="fil0 str0" d="M3144.16 2331.6c-31.06,0 -48.42,-36.4 -48.42,-54.91 0,-18.51 15.15,-33.66 33.66,-33.66l0 0c18.51,0 33.66,15.15 33.66,33.66l0 265.2c0,18.51 -15.15,33.66 -33.66,33.66l0 0c-18.51,0 -33.66,-15.15 -33.66,-33.66l0 -265.2"/>
   <path class="fil0 str0" d="M3182.65 1244.3c-45.46,0 -62.53,-71.91 -62.53,-94.88 0,-22.97 18.79,-41.75 41.75,-41.75l0.01 0c22.96,0 41.75,18.78 41.75,41.75l0 456.87c0,22.97 -18.79,41.76 -41.75,41.76l-0.01 0c-22.96,0 -41.75,-18.79 -41.75,-41.76l0 -456.87"/>
   <rect class="fil0 str0" x="1142.83" y="911.49" width="836.14" height="1079.42" rx="149.71" ry="150.58"/>
   <rect class="fil0 str0" x="1159.32" y="931.29" width="803.17" height="1042.29" rx="130.66" ry="132.1"/>
   <path class="fil0 str0" d="M1742.15 1213.53c0,-23.41 -35.69,-58.99 -58.05,-58.99 -22.35,0 -40.64,18.29 -40.64,40.64l0 0.01c0,22.35 18.29,40.64 40.64,40.64l110.74 0c22.35,0 40.64,-18.29 40.64,-40.64l0 -0.01c0,-22.35 -18.29,-40.64 -40.64,-40.64l-110.74 0"/>
   <path class="fil0 str0" d="M1642.18 1465.59c0,-22.54 23.3,-133.16 90.46,-133.16 67.16,0 121.6,54.44 121.6,121.6 0,67.16 -54.44,121.6 -121.6,121.6 -67.16,0 -121.6,-54.44 -121.6,-121.6 0,-67.16 54.44,-121.6 121.6,-121.6"/>
   <path class="fil0 str0" d="M1271.07 1726.57c0,-33.31 34.43,-196.74 133.65,-196.74 99.21,0 179.64,80.44 179.64,179.65 0,99.22 -80.43,179.65 -179.64,179.65 -99.22,0 -179.65,-80.43 -179.65,-179.65 0,-99.21 80.43,-179.65 179.65,-179.65"/>
   <path class="fil0 str0" d="M1271.07 1213.3c0,-33.31 34.43,-196.73 133.65,-196.73 99.21,0 179.64,80.43 179.64,179.65 0,99.22 -80.43,179.65 -179.64,179.65 -99.22,0 -179.65,-80.43 -179.65,-179.65 0,-99.22 80.43,-179.65 179.65,-179.65"/>
  </g>
 </g>
</svg>
