<?xml version="1.0" encoding="UTF-8"?>
<!DOCTYPE svg PUBLIC "-//W3C//DTD SVG 1.1//EN" "http://www.w3.org/Graphics/SVG/1.1/DTD/svg11.dtd">
<!-- Creator: CorelDRAW X8 -->
<svg xmlns="http://www.w3.org/2000/svg" xml:space="preserve" width="40mm" height="60mm" version="1.1" style="shape-rendering:geometricPrecision; text-rendering:geometricPrecision; image-rendering:optimizeQuality; fill-rule:evenodd; clip-rule:evenodd"
viewBox="0 0 4000 6000"
 xmlns:xlink="http://www.w3.org/1999/xlink">
 <defs>
  <style type="text/css">
   <![CDATA[
    .str0 {stroke:#332C2B;stroke-width:7.62}
    .fil0 {fill:none}
   ]]>
  </style>
 </defs>
 <g id="图层_x0020_1">
  <metadata id="CorelCorpID_0Corel-Layer"/>
  <path class="fil0 str0" d="M968 5350l1915 0c101,0 183,-82 183,-183l0 -4334c0,-101 -82,-183 -183,-183l-509 0c-15,0 -19,0 -25,10l-4 7c-5,8 -13,9 -22,9l-212 0c-11,0 -40,1 -40,37l0 36c0,33 -27,61 -60,61l0 0c-34,0 -61,-28 -61,-61l0 -32c0,-35 -18,-41 -58,-41l-211 0c-13,0 -18,-2 -23,-11l-3 -6c-3,-7 -10,-9 -17,-9l-521 0c-101,0 -183,82 -183,183l0 4334c0,101 82,183 183,183l303 0"/>
 </g>
</svg>
