<?xml version="1.0" encoding="UTF-8"?>
<!DOCTYPE svg PUBLIC "-//W3C//DTD SVG 1.1//EN" "http://www.w3.org/Graphics/SVG/1.1/DTD/svg11.dtd">
<!-- Creator: CorelDRAW X8 -->
<svg xmlns="http://www.w3.org/2000/svg" xml:space="preserve" width="40mm" height="60mm" version="1.1" style="shape-rendering:geometricPrecision; text-rendering:geometricPrecision; image-rendering:optimizeQuality; fill-rule:evenodd; clip-rule:evenodd"
viewBox="0 0 4000 6000"
 xmlns:xlink="http://www.w3.org/1999/xlink">
 <defs>
  <style type="text/css">
   <![CDATA[
    .str0 {stroke:black;stroke-width:7.62}
    .fil0 {fill:none}
   ]]>
  </style>
 </defs>
 <g id="图层_x0020_1">
  <metadata id="CorelCorpID_0Corel-Layer"/>
  <path class="fil0 str0" d="M995 5350l1895 0c101,0 184,-83 184,-184l0 -4332c0,-101 -83,-184 -184,-184l-1780 0c-101,0 -184,83 -184,184l0 4332c0,101 83,184 184,184l198 0m317 -4618c0,-5 -4,-8 -12,-9 -27,0 -50,22 -50,50 0,27 23,50 50,50 28,0 50,-23 50,-50 0,-28 -22,-50 -50,-50m369 46c-5,-18 -15,-32 -58,-32l-38 0c-20,0 -36,16 -36,36l0 0c0,19 16,35 36,35l246 0c20,0 36,-16 36,-35l0 0c0,-20 -16,-36 -36,-36l-208 0m477 -9c0,-5 -4,-9 -13,-10 -30,0 -54,25 -54,55 0,30 24,54 54,54 30,0 55,-24 55,-54 0,-30 -25,-55 -55,-55"/>
 </g>
</svg>
