<?xml version="1.0" encoding="UTF-8"?>
<!DOCTYPE svg PUBLIC "-//W3C//DTD SVG 1.1//EN" "http://www.w3.org/Graphics/SVG/1.1/DTD/svg11.dtd">
<!-- Creator: CorelDRAW 2020 (64-Bit) -->
<svg xmlns="http://www.w3.org/2000/svg" xml:space="preserve" width="40mm" height="60mm" version="1.1" style="shape-rendering:geometricPrecision; text-rendering:geometricPrecision; image-rendering:optimizeQuality; fill-rule:evenodd; clip-rule:evenodd"
viewBox="0 0 4000 6000"
 xmlns:xlink="http://www.w3.org/1999/xlink"
 xmlns:xodm="http://www.corel.com/coreldraw/odm/2003">
 <defs>
  <style type="text/css">
   <![CDATA[
    .str0 {stroke:#332C2B;stroke-width:20;stroke-miterlimit:22.9256}
    .fil0 {fill:none}
   ]]>
  </style>
 </defs>
 <g id="图层_x0020_1">
  <metadata id="CorelCorpID_0Corel-Layer"/>
  <path class="fil0 str0" d="M1445.77 768.33c-203.02,-2.07 -369.15,138.52 -369.15,203.57l0 1156.97c0,170.29 261.38,247.35 369.15,247.35 128.81,0 369.15,-87.14 369.15,-247.35l0 -1146.5c0,-76.85 -182.59,-212.14 -369.15,-214.04 -186.56,-1.9 -277.04,197.21 -275.14,231.47m-111.99 4315.25l1729.64 0c142.41,0 258.94,-116.53 258.94,-258.95l0 -4141.49c0,-142.42 -116.53,-258.94 -258.94,-258.94l-1589.75 0c-142.42,0 -258.95,116.52 -258.95,258.94l0 4141.49c0,142.42 116.53,258.95 258.95,258.95 142.41,0 204.35,21.35 231.47,40.62"/>
 </g>
</svg>
