<?xml version="1.0" encoding="UTF-8"?>
<!DOCTYPE svg PUBLIC "-//W3C//DTD SVG 1.1//EN" "http://www.w3.org/Graphics/SVG/1.1/DTD/svg11.dtd">
<!-- Creator: CorelDRAW X8 -->
<svg xmlns="http://www.w3.org/2000/svg" xml:space="preserve" width="40mm" height="60mm" version="1.1" style="shape-rendering:geometricPrecision; text-rendering:geometricPrecision; image-rendering:optimizeQuality; fill-rule:evenodd; clip-rule:evenodd"
viewBox="0 0 4000 6000"
 xmlns:xlink="http://www.w3.org/1999/xlink">
 <defs>
  <style type="text/css">
   <![CDATA[
    .str0 {stroke:#332C2B;stroke-width:20}
    .fil0 {fill:none}
   ]]>
  </style>
 </defs>
 <g id="图层_x0020_1">
  <metadata id="CorelCorpID_0Corel-Layer"/>
  <g id="_1859633692960">
   <path class="fil0 str0" d="M2142 930l12 290c0,314 255,569 569,569 315,0 570,-255 570,-569 0,-315 -255,-570 -570,-570 -314,0 -569,255 -569,570"/>
   <path class="fil0 str0" d="M2142 2727l12 290c0,315 255,570 569,570 315,0 570,-255 570,-570 0,-315 -255,-570 -570,-570 -314,0 -569,255 -569,570"/>
   <path class="fil0 str0" d="M2142 4490l12 290c0,315 255,570 569,570 315,0 570,-255 570,-570 0,-314 -255,-569 -570,-569 -314,0 -569,255 -569,569"/>
   <path class="fil0 str0" d="M707 930l11 290c0,314 255,569 570,569 315,0 570,-255 570,-569 0,-315 -255,-570 -570,-570 -315,0 -570,255 -570,570"/>
   <path class="fil0 str0" d="M707 2727l11 290c0,315 255,570 570,570 315,0 570,-255 570,-570 0,-315 -255,-570 -570,-570 -315,0 -570,255 -570,570"/>
   <path class="fil0 str0" d="M707 4490l11 290c0,315 255,570 570,570 315,0 570,-255 570,-570 0,-314 -255,-569 -570,-569 -315,0 -570,255 -570,569"/>
  </g>
 </g>
</svg>
