<?xml version="1.0" encoding="UTF-8"?>
<!DOCTYPE svg PUBLIC "-//W3C//DTD SVG 1.1//EN" "http://www.w3.org/Graphics/SVG/1.1/DTD/svg11.dtd">
<!-- Creator: CorelDRAW X8 -->
<svg xmlns="http://www.w3.org/2000/svg" xml:space="preserve" width="40mm" height="60mm" version="1.1" style="shape-rendering:geometricPrecision; text-rendering:geometricPrecision; image-rendering:optimizeQuality; fill-rule:evenodd; clip-rule:evenodd"
viewBox="0 0 4000 6000"
 xmlns:xlink="http://www.w3.org/1999/xlink">
 <defs>
  <style type="text/css">
   <![CDATA[
    .str0 {stroke:#332C2B;stroke-width:20}
    .fil0 {fill:none}
   ]]>
  </style>
 </defs>
 <g id="图层_x0020_1">
  <metadata id="CorelCorpID_0Corel-Layer"/>
  <path class="fil0 str0" d="M949 5186l1849 0c139,0 253,-115 253,-254l0 -4028c0,-140 -114,-254 -253,-254l-422 0c0,0 -39,-3 -49,14 -19,28 -49,29 -49,29l-193 0 0 61c0,33 -27,59 -60,59l0 0c-33,0 -60,-26 -60,-59l0 -61 -206 0c0,0 -31,-2 -39,-23 -8,-21 -36,-20 -36,-20l-428 0c-139,0 -253,114 -253,254l0 4028c0,139 114,254 253,254 140,0 285,96 285,164"/>
  <path class="fil0 str0" d="M-14923 6212l0 -6422c0,-488 -403,-888 -894,-888l-14205 0c-492,0 -895,400 -895,888l0 1477c0,0 -12,135 48,172 99,63 104,171 104,171l0 675 213 0c116,0 211,94 211,209l0 0c0,115 -95,209 -211,209l-213 0 0 720c0,0 -9,110 -83,139 -72,29 -69,125 -69,125l0 1497c0,489 403,888 895,888l14205 0c491,0 894,-399 894,-888 0,-488 380,-739 560,-739"/>
 </g>
</svg>
