<?xml version="1.0" encoding="UTF-8"?>
<!DOCTYPE svg PUBLIC "-//W3C//DTD SVG 1.1//EN" "http://www.w3.org/Graphics/SVG/1.1/DTD/svg11.dtd">
<!-- Creator: CorelDRAW X8 -->
<svg xmlns="http://www.w3.org/2000/svg" xml:space="preserve" width="40mm" height="60mm" version="1.1" style="shape-rendering:geometricPrecision; text-rendering:geometricPrecision; image-rendering:optimizeQuality; fill-rule:evenodd; clip-rule:evenodd"
viewBox="0 0 4000 6000"
 xmlns:xlink="http://www.w3.org/1999/xlink">
 <defs>
  <style type="text/css">
   <![CDATA[
    .str0 {stroke:#332C2B;stroke-width:20}
    .fil0 {fill:none}
   ]]>
  </style>
 </defs>
 <g id="图层_x0020_1">
  <metadata id="CorelCorpID_0Corel-Layer"/>
  <path class="fil0 str0" d="M906 5275l1945 0c133,0 243,-109 243,-243l0 -4139c0,-134 -110,-243 -243,-243l-1663 0c-133,0 -243,109 -243,243l0 1559c0,20 0,12 8,28 5,9 8,20 8,31l0 488c0,11 -3,22 -8,31 -9,16 -8,9 -8,28l0 1974c0,134 110,243 243,243 134,0 238,43 238,75m-123 -4614l177 0c91,0 164,73 164,164l0 901c0,90 -73,164 -164,164l-177 0c-90,0 -164,-74 -164,-164l0 -901c0,-91 74,-164 164,-164zm23 62l146 0c67,0 123,55 123,123l0 858c0,68 -56,124 -123,124l-146 0c-68,0 -123,-56 -123,-124l0 -858c0,-68 55,-123 123,-123zm16 49c67,0 121,54 121,121 0,67 -54,121 -121,121 -67,0 -122,-54 -122,-121 0,-67 55,-121 122,-121zm-1 324c68,0 122,54 122,122 0,67 -54,121 -122,121 -67,0 -121,-54 -121,-121 0,-68 54,-122 121,-122zm1 289c68,0 123,55 123,122 0,68 -55,123 -123,123 -67,0 -122,-55 -122,-123 0,-67 55,-122 122,-122zm-42 271l88 0c30,0 55,25 55,55l0 0c0,30 -25,54 -55,54l-88 0c-29,0 -54,-24 -54,-54l0 0c0,-30 25,-55 54,-55z"/>
 </g>
</svg>
