<?xml version="1.0" encoding="UTF-8"?>
<!DOCTYPE svg PUBLIC "-//W3C//DTD SVG 1.1//EN" "http://www.w3.org/Graphics/SVG/1.1/DTD/svg11.dtd">
<!-- Creator: CorelDRAW X8 -->
<svg xmlns="http://www.w3.org/2000/svg" xml:space="preserve" width="40mm" height="60mm" version="1.1" style="shape-rendering:geometricPrecision; text-rendering:geometricPrecision; image-rendering:optimizeQuality; fill-rule:evenodd; clip-rule:evenodd"
viewBox="0 0 4000 6000"
 xmlns:xlink="http://www.w3.org/1999/xlink">
 <defs>
  <style type="text/css">
   <![CDATA[
    .str0 {stroke:#332C2B;stroke-width:20}
    .fil0 {fill:none}
   ]]>
  </style>
 </defs>
 <g id="图层_x0020_1">
  <metadata id="CorelCorpID_0Corel-Layer"/>
  <g id="_1320856199376">
   <path class="fil0 str0" d="M990 5272l1794 0c124,0 226,-102 226,-227l0 -4169c0,-124 -102,-226 -226,-226l-1532 0c-124,0 -226,102 -226,226l0 4169c0,125 102,227 226,227 125,0 217,50 217,78"/>
   <path class="fil0 str0" d="M1955 812c0,-15 11,-100 61,-100 50,0 91,40 91,90 0,51 -41,91 -91,91 -50,0 -91,-40 -91,-91 0,-50 41,-90 91,-90"/>
  </g>
  <path class="fil0 str0" d="M-8159 5181l0 -6145c0,-434 -349,-789 -775,-789l-14283 0c-426,0 -775,355 -775,789l0 5334c0,434 349,788 775,788l14283 0c426,0 775,-354 775,-788 0,-434 291,-947 512,-947"/>
  <path class="fil0 str0" d="M-23343 1916c-53,0 -341,-38 -341,-208 0,-169 137,-307 307,-307 170,0 308,138 308,307 0,170 -138,308 -308,308 -170,0 -307,-138 -307,-308"/>
 </g>
</svg>
