<?xml version="1.0" encoding="UTF-8"?>
<!DOCTYPE svg PUBLIC "-//W3C//DTD SVG 1.1//EN" "http://www.w3.org/Graphics/SVG/1.1/DTD/svg11.dtd">
<!-- Creator: CorelDRAW X8 -->
<svg xmlns="http://www.w3.org/2000/svg" xml:space="preserve" width="40mm" height="60mm" version="1.1" style="shape-rendering:geometricPrecision; text-rendering:geometricPrecision; image-rendering:optimizeQuality; fill-rule:evenodd; clip-rule:evenodd"
viewBox="0 0 4000 6000"
 xmlns:xlink="http://www.w3.org/1999/xlink">
 <defs>
  <style type="text/css">
   <![CDATA[
    .str0 {stroke:black;stroke-width:7.62}
    .fil0 {fill:none}
   ]]>
  </style>
 </defs>
 <g id="图层_x0020_1">
  <metadata id="CorelCorpID_0Corel-Layer"/>
  <path class="fil0 str0" d="M3473 1009c27,231 40,455 40,697 0,242 -15,506 -40,754 -16,159 -131,290 -290,301 -758,56 -1702,82 -2558,72 -73,3 -69,3 -81,-84 -48,-339 -55,-691 -57,-1015 -3,-349 18,-664 58,-999 6,-82 15,-86 85,-85 851,17 1705,0 2553,68 159,13 272,132 290,291zm-330 578c31,-8 55,-24 55,-99l0 -63c0,-34 -28,-61 -61,-61l0 0c-34,0 -61,27 -61,61l0 633c0,34 27,61 61,61l0 0c33,0 61,-27 61,-61l0 -570m275 2035c27,232 40,455 40,698 0,242 -15,505 -40,754 -16,159 -131,289 -290,301 -758,56 -1702,82 -2558,72 -73,2 -69,3 -81,-85 -48,-338 -55,-690 -57,-1014 -3,-350 18,-665 58,-1000 6,-81 15,-86 85,-84 851,16 1705,0 2553,68 159,13 272,131 290,290zm-330 579c31,-8 55,-25 55,-99l0 -64c0,-33 -28,-60 -61,-60l0 0c-34,0 -61,27 -61,60l0 634c0,33 27,61 61,61l0 0c33,0 61,-28 61,-61l0 -570"/>
 </g>
</svg>
