<?xml version="1.0" encoding="UTF-8"?>
<!DOCTYPE svg PUBLIC "-//W3C//DTD SVG 1.1//EN" "http://www.w3.org/Graphics/SVG/1.1/DTD/svg11.dtd">
<!-- Creator: CorelDRAW X8 -->
<svg xmlns="http://www.w3.org/2000/svg" xml:space="preserve" width="40mm" height="60mm" version="1.1" style="shape-rendering:geometricPrecision; text-rendering:geometricPrecision; image-rendering:optimizeQuality; fill-rule:evenodd; clip-rule:evenodd"
viewBox="0 0 4000 6000"
 xmlns:xlink="http://www.w3.org/1999/xlink">
 <defs>
  <style type="text/css">
   <![CDATA[
    .str0 {stroke:black;stroke-width:10}
    .fil0 {fill:none}
   ]]>
  </style>
 </defs>
 <g id="图层_x0020_1">
  <metadata id="CorelCorpID_0Corel-Layer"/>
  <path class="fil0 str0" d="M2014 722c0,-5 -4,-10 -14,-11 -34,0 -61,28 -61,61 0,34 27,62 61,62 34,0 61,-28 61,-62 0,-33 -27,-61 -61,-61m-965 4619l1839 0c100,0 181,-81 181,-180l0 -4320c0,-99 -81,-180 -181,-180 -584,0 -1164,0 -1748,0 -100,0 -181,81 -181,180l0 4320c0,99 81,180 181,180l21 0c15,0 37,5 46,20"/>
 </g>
</svg>
