<?xml version="1.0" encoding="UTF-8"?>
<!DOCTYPE svg PUBLIC "-//W3C//DTD SVG 1.1//EN" "http://www.w3.org/Graphics/SVG/1.1/DTD/svg11.dtd">
<!-- Creator: CorelDRAW 2020 (64-Bit) -->
<svg xmlns="http://www.w3.org/2000/svg" xml:space="preserve" width="40mm" height="60mm" version="1.1" style="shape-rendering:geometricPrecision; text-rendering:geometricPrecision; image-rendering:optimizeQuality; fill-rule:evenodd; clip-rule:evenodd"
viewBox="0 0 4000 6000"
 xmlns:xlink="http://www.w3.org/1999/xlink"
 xmlns:xodm="http://www.corel.com/coreldraw/odm/2003">
 <defs>
  <style type="text/css">
   <![CDATA[
    .str0 {stroke:#332C2B;stroke-width:20;stroke-miterlimit:22.9256}
    .str1 {stroke:#332C2B;stroke-width:7.62;stroke-miterlimit:22.9256}
    .fil0 {fill:none}
   ]]>
  </style>
   <clipPath id="id0">
    <rect x="-33727.76" y="-7551.62" width="14585.36" height="17785.36"/>
   </clipPath>
 </defs>
 <g id="图层_x0020_1">
  <metadata id="CorelCorpID_0Corel-Layer"/>
  <g style="clip-path:url(#id0)">
   <image x="-33727.76" y="-7551.62" width="14585.35" height="17785.36" xlink:href="Reno8 T 5G -11i（背膜）泰国_Images\Reno8 T 5G -11i（背膜）泰国_ImgID1.png"/>
  </g>
  <rect class="fil0 str0" x="-27118.87" y="-6324.78" width="7430" height="16229.98"/>
  <rect class="fil0 str0" x="-26995.54" y="-6174.86" width="7180.22" height="15879.57" rx="590.01" ry="1008.57"/>
  <rect class="fil0 str0" x="-26265.94" y="-5727.11" width="2382.36" height="4935.58" rx="1310" ry="1528.6"/>
  <circle class="fil0 str0" cx="-25117.68" cy="-4526.55" r="1036.29"/>
  <circle class="fil0 str0" cx="-25117.68" cy="-2010.62" r="1036.29"/>
  <circle class="fil0 str0" cx="-25718.43" cy="-1985.34" r="233.72"/>
  <circle class="fil0 str0" cx="-25109.87" cy="-2592.77" r="233.72"/>
  <circle class="fil0 str0" cx="-25106.5" cy="-1384.44" r="233.72"/>
  <path class="fil0 str1" d="M23692.72 7798.92l0 -7446.6c0,-324.49 -265.51,-590.01 -589.99,-590.01l-14699.59 0c-324.5,0 -589.99,265.5 -589.99,590.01l0 6000.21c0,324.5 265.49,590 589.99,590l14699.59 0c324.48,0 589.99,-265.5 589.99,-590 0,-324.5 -21.38,-893.43 631.26,-893.43"/>
  <rect class="fil0 str1" transform="matrix(2.14196E-14 -0.808759 0.943716 2.49939E-14 8260.9 6212.94)" width="2945.7" height="5229.94" rx="1619.77" ry="1619.77"/>
  <circle class="fil0 str1" transform="matrix(2.74872E-14 -1.03786 1.03786 2.74872E-14 9461.46 5064.68)" r="998.49"/>
  <circle class="fil0 str1" transform="matrix(2.74872E-14 -1.03786 1.03786 2.74872E-14 11977.4 5064.68)" r="998.49"/>
  <circle class="fil0 str1" transform="matrix(6.19933E-15 -0.234073 0.234073 6.19933E-15 12002.7 5665.43)" r="998.49"/>
  <circle class="fil0 str1" transform="matrix(6.19933E-15 -0.234073 0.234073 6.19933E-15 11395.2 5056.87)" r="998.49"/>
  <circle class="fil0 str1" transform="matrix(6.19933E-15 -0.234073 0.234073 6.19933E-15 12603.6 5053.5)" r="998.49"/>
  <g id="_1881809826208">
   <rect class="fil0 str1" x="930.81" y="655.67" width="2125.19" height="4700" rx="174.63" ry="298.52"/>
   <rect class="fil0 str1" x="1146.76" y="788.2" width="705.13" height="1460.82" rx="387.73" ry="452.43"/>
   <circle class="fil0 str1" cx="1486.62" cy="1143.53" r="306.72"/>
   <circle class="fil0 str1" cx="1486.62" cy="1888.19" r="306.72"/>
   <circle class="fil0 str1" cx="1308.81" cy="1895.68" r="69.18"/>
   <circle class="fil0 str1" cx="1488.93" cy="1715.89" r="69.18"/>
   <circle class="fil0 str1" cx="1489.93" cy="2073.53" r="69.18"/>
  </g>
 </g>
</svg>
