<?xml version="1.0" encoding="UTF-8"?>
<!DOCTYPE svg PUBLIC "-//W3C//DTD SVG 1.1//EN" "http://www.w3.org/Graphics/SVG/1.1/DTD/svg11.dtd">
<!-- Creator: CorelDRAW -->
<svg xmlns="http://www.w3.org/2000/svg" xml:space="preserve" width="40mm" height="60mm" style="shape-rendering:geometricPrecision; text-rendering:geometricPrecision; image-rendering:optimizeQuality; fill-rule:evenodd; clip-rule:evenodd"
viewBox="0 0 40 60"
 xmlns:xlink="http://www.w3.org/1999/xlink">
 <defs>
  <style type="text/css">
   <![CDATA[
    .str0 {stroke:#1F1A17;stroke-width:0.194}
    .fil0 {fill:none;fill-rule:nonzero}
   ]]>
  </style>
 </defs>
 <g id="图层_x0020_1">
  <metadata id="CorelCorpID_0Corel-Layer"/>
  <g id="_287038504">
   <polyline id="_242611744" class="fil0 str0" points="23.9682,9.3255 23.9682,9.4134 24.0272,9.3907 24.0561,9.3472 24.0561,9.2956 24.0272,9.2521 23.9755,9.2377 "/>
   <path id="_242611624" class="fil0 str0" d="M23.9755 9.2377c-0.0104,-0.2822 -0.2233,-0.494 -0.4961,-0.494 -0.2894,0 -0.523,0.2284 -0.523,0.5115 0,0.2843 0.2295,0.5158 0.5126,0.5158 0.2822,0 0.5137,-0.2346 0.5137,-0.522 0,-0.2428 -0.0858,-0.3152 -0.461,-0.3855"/>
   <line id="_242611240" class="fil0 str0" x1="23.5217" y1="8.8635" x2="23.5217" y2= "8.8491" />
   <path id="_242613760" class="fil0 str0" d="M23.5217 8.8491c0,0.0227 0.0011,0.032 0.0073,0.0589"/>
   <line id="_46436960" class="fil0 str0" x1="23.529" y1="8.908" x2="23.2282" y2= "9.1488" />
   <line id="_46437056" class="fil0 str0" x1="20.9069" y1="8.8418" x2="20.8408" y2= "8.8925" />
   <path id="_46437344" class="fil0 str0" d="M20.8408 8.8925c-0.0062,-0.0114 -0.0103,-0.0166 -0.0145,-0.0217"/>
   <polyline id="_46436816" class="fil0 str0" points="20.8263,8.8708 20.8263,8.8491 20.8191,8.8418 "/>
   <path id="_46437032" class="fil0 str0" d="M20.8191 8.8418c-1.0439,-0.0082 -0.7824,-0.0072 -1.8263,-0.0124 -0.3772,-0.002 -0.5229,0.0031 -0.6263,0.0197 -0.1023,0.0165 -0.154,0.0423 -0.2201,0.1137 -0.061,0.0651 -0.0972,0.1705 -0.0972,0.2821 0,0.1767 0.0858,0.3132 0.2253,0.3597 0.1365,0.0454 0.5571,0.0568 2.064,0.0568 0.9901,0 1.3415,-0.0155 1.448,-0.0651 0.1312,-0.062 0.2108,-0.1943 0.2108,-0.3503 0,-0.3566 -0.1643,-0.4269 -1.0056,-0.4269"/>
   <line id="_46437488" class="fil0 str0" x1="20.9917" y1="8.8191" x2="20.9152" y2= "8.8191" />
   <path id="_46437584" class="fil0 str0" d="M20.9152 8.8191c-0.216,0 -0.2863,0.001 -0.3597,0.0062 -0.0961,0.0072 -0.1633,0.0217 -0.2211,0.0475 -0.1024,0.0465 -0.1623,0.1055 -0.3866,0.3824"/>
   <line id="_46434224" class="fil0 str0" x1="19.9478" y1="9.2552" x2="19.9034" y2= "9.31" />
   <polyline id="_46433744" class="fil0 str0" points="30.3183,50.5749 30.2594,50.6338 30.2449,50.6193 "/>
   <path id="_46433840" class="fil0 str0" d="M30.2449 50.6193c-0.001,-0.0134 -0.0031,-0.0258 -0.0072,-0.0372"/>
   <polyline id="_46433792" class="fil0 str0" points="30.2377,50.5821 30.2304,50.5749 10.7339,50.5687 "/>
   <path id="_287432240" class="fil0 str0" d="M10.7339 50.5687c-0.4383,-0.0403 -0.9168,-0.4713 -1.0026,-0.9033"/>
   <polyline id="_287039560" class="fil0 str0" points="9.7313,49.6654 9.7138,49.2654 9.6683,9.4299 "/>
   <path id="_287433968" class="fil0 str0" d="M9.6683 9.4299c0.0341,-0.5757 0.2977,-1.0066 0.7441,-1.2165 0.0197,-0.0093 0.0279,-0.0165 0.0352,-0.032 0.032,-0.062 0.032,-0.062 6.3552,-0.06"/>
   <line id="_287039392" class="fil0 str0" x1="16.8028" y1="8.1214" x2="29.3251" y2= "8.1266" />
   <path id="_287039440" class="fil0 str0" d="M29.3251 8.1266c0.4051,0.031 0.8588,0.4341 0.9859,0.8765 0.0176,0.0599 0.0207,0.125 0.0207,0.4289"/>
   <polyline id="_287038648" class="fil0 str0" points="30.3317,9.432 30.2976,49.4483 30.3069,49.654 "/>
   <path id="_46436096" class="fil0 str0" d="M30.3069 49.654c0,0.2687 -0.3617,0.6966 -0.7028,0.8299"/>
   <polyline id="_46437200" class="fil0 str0" points="29.6041,50.4839 29.5845,50.4922 29.2889,50.5573 29.1586,50.5832 "/>
   <path id="_287038456" class="fil0 str0" d="M29.1586 50.5832c-0.6015,0.1167 -0.9663,0.5487 -1.0965,1.296"/>
  </g>
 </g>
</svg>
