<?xml version="1.0" encoding="UTF-8"?>
<!DOCTYPE svg PUBLIC "-//W3C//DTD SVG 1.1//EN" "http://www.w3.org/Graphics/SVG/1.1/DTD/svg11.dtd">
<!-- Creator: CorelDRAW 2020 (64-Bit) -->
<svg xmlns="http://www.w3.org/2000/svg" xml:space="preserve" width="40mm" height="60mm" version="1.1" style="shape-rendering:geometricPrecision; text-rendering:geometricPrecision; image-rendering:optimizeQuality; fill-rule:evenodd; clip-rule:evenodd"
viewBox="0 0 4000 6000"
 xmlns:xlink="http://www.w3.org/1999/xlink"
 xmlns:xodm="http://www.corel.com/coreldraw/odm/2003">
 <defs>
  <style type="text/css">
   <![CDATA[
    .str0 {stroke:#332C2B;stroke-width:20;stroke-miterlimit:22.9256}
    .fil0 {fill:none}
   ]]>
  </style>
 </defs>
 <g id="图层_x0020_1">
  <metadata id="CorelCorpID_0Corel-Layer"/>
  <path class="fil0 str0" d="M-26655.8 -2851.9l0 -0.01c0,-41.11 33.63,-74.74 74.74,-74.74l593.85 0c41.11,0 74.74,33.63 74.74,74.74l0 0.01c0,41.11 -33.63,74.74 -74.74,74.74l-593.85 0c-41.11,0 -74.74,-33.63 -74.74,-74.74z"/>
  <path class="fil0 str0" d="M-27403.1 -2851.9l0 -0.01c0,-41.11 33.63,-74.74 74.74,-74.74l456.08 0c41.11,0 74.74,33.63 74.74,74.74l0 0.01c0,41.11 -33.63,74.74 -74.74,74.74l-456.08 0c-41.11,0 -74.74,-33.63 -74.74,-74.74z"/>
  <path class="fil0 str0" d="M-29801.22 -2847.28l0 -0.01c0,-73.47 60.1,-133.57 133.57,-133.57l1258.86 0c73.47,0 133.57,60.1 133.57,133.57l0 0.01c0,73.47 -60.1,133.57 -133.57,133.57l-1258.86 0c-73.47,0 -133.57,-60.1 -133.57,-133.57z"/>
  <path class="fil0 str0" d="M-31275.32 -2819.3l0 0c0,152.59 121.56,267.93 268.57,267.82l6626.46 -5.5 681.3 -157.33 745.04 -17.09c27.48,-0.63 50.04,-23.38 50.04,-51.9l0 -261.52c0,-28.54 -22.51,-51.91 -50.04,-51.91l-8054.13 0c-147.03,0 -267.24,124.84 -267.24,277.43z"/>
  <path class="fil0 str0" d="M-18844.23 -2762.73l0 0c0,-40.39 33.03,-73.42 73.42,-73.42l912.83 0c40.39,0 73.42,33.03 73.42,73.42l0 0c0,40.39 -33.03,73.42 -73.42,73.42l-912.83 0c-40.39,0 -73.42,-33.03 -73.42,-73.42z"/>
  <path class="fil0 str0" d="M-20044.45 -2762.73l0 0c0,-40.39 33.03,-73.42 73.42,-73.42l912.83 0c40.39,0 73.42,33.03 73.42,73.42l0 0c0,40.39 -33.03,73.42 -73.42,73.42l-912.83 0c-40.39,0 -73.42,-33.03 -73.42,-73.42z"/>
  <path class="fil0 str0" d="M-22636.66 -2795.67l0 0c0,-146.98 121.56,-258.08 268.57,-257.97l6626.46 5.3 555.62 170.65 735.78 -2.65c27.51,-0.1 50.04,22.52 50.04,50l0 251.9c0,27.49 -22.51,50 -50.04,50l-7919.19 0c-147.03,0 -267.24,-120.25 -267.24,-267.23z"/>
  <path class="fil0 str0" d="M-31339.37 -2086.25l0 -267.78c0,-27.5 22.58,-50 49.99,-50l13620.59 0c27.41,0 49.99,22.5 49.99,50l0 267.78c0,27.5 -22.58,50 -49.99,50l-13620.59 0c-27.41,0 -49.99,-22.5 -49.99,-50z"/>
  <path class="fil0 str0" d="M-28727.33 667.48l0 -446.5c0,-88.95 72.77,-161.72 161.72,-161.72l0.01 0c88.95,0 161.72,72.77 161.72,161.72l0 446.5c0,88.95 -72.77,161.72 -161.72,161.72l-0.01 0c-88.95,0 -161.72,-72.77 -161.72,-161.72z"/>
  <path class="fil0 str0" d="M-28993.26 1825.52l0 -587.68c0,-82.5 67.5,-150 150,-150l566.52 0c82.5,0 150,67.5 150,150l0 587.68c0,82.5 -67.5,150 -150,150l-566.52 0c-82.5,0 -150,-67.5 -150,-150z"/>
  <path class="fil0 str0" d="M-29971.91 431.71c0,-109.42 88.7,-198.12 198.12,-198.12 109.42,0 198.12,88.7 198.12,198.12 0,109.42 -88.7,198.12 -198.12,198.12 -109.42,0 -198.12,-88.7 -198.12,-198.12z"/>
  <path class="fil0 str0" d="M-30236.46 1520.53c0,-251.52 203.9,-455.42 455.42,-455.42 251.52,0 455.42,203.9 455.42,455.42 0,251.52 -203.9,455.42 -455.42,455.42 -251.52,0 -455.42,-203.9 -455.42,-455.42z"/>
  <path class="fil0 str0" d="M-30080.48 3468.22c0,-488.49 396.01,-884.5 884.5,-884.5 488.49,0 884.5,396.01 884.5,884.5 0,488.49 -396.01,884.5 -884.5,884.5 -488.49,0 -884.5,-396.01 -884.5,-884.5z"/>
  <path class="fil0 str0" d="M-30236.38 4267.66l0 -1568.43c0,-151.47 123.93,-275.4 275.4,-275.4l1569.64 0c151.47,0 275.4,123.93 275.4,275.4l0 1568.43c0,151.47 -123.93,275.4 -275.4,275.4l-1569.64 0c-151.47,0 -275.4,-123.93 -275.4,-275.4z"/>
  <path class="fil0 str0" d="M-30389.02 4339.25l0 -5385.17c0,-209.68 171.55,-381.23 381.23,-381.23l1717.04 0c209.68,0 381.23,171.55 381.23,381.23l0 5385.17c0,209.68 -171.55,381.23 -381.23,381.23l-1717.04 0c-209.68,0 -381.23,-171.55 -381.23,-381.23z"/>
  <path class="fil0 str0" d="M-30443.69 4372.28l0 -5462.73c0,-220 180,-400 400,-400l1801.52 0c220,0 400,180 400,400l0 5462.73c0,220 -180,400 -400,400l-1801.52 0c-220,0 -400,-180 -400,-400z"/>
  <path class="fil0 str0" d="M-31335.2 4654.96l-0.39 -1840.73c0,-69.68 43.31,-61.15 56.11,-61.15l55.91 0c60.38,0 109.8,-49.41 109.8,-109.8l0 -0.01c0,-60.39 -49.41,-109.8 -109.8,-109.8l-55.91 0c-12.84,0 -56.16,7.19 -56.16,-64.12l-0.09 -344.74c0,-82.53 59.76,-77.36 73.14,-77.36l43.67 0c79.28,0 144,-51.98 144,-131.29l0 0c0,-79.31 -64.69,-136.6 -144,-136.6l-43.67 0c-13.43,0 -73.19,5.82 -73.19,-73.38l-0.75 -3495.33c-0.02,-73.41 1.01,-110.47 171.66,-108.48l254.77 0 74.42 213.99 22.49 -213.99 15874.36 0 56.23 230.19 50.7 -207.6 269.7 3.21c72.05,0.86 183.9,7.19 175.96,231.43l0 2772.51c0,85.35 -44.93,81.61 -70.29,81.61l-100.85 0c-82.5,0 -150,67.5 -150,150l0 587.69c0,82.5 67.5,150 150,150l100.85 0c25.35,0 70.29,2.21 70.29,90.88l0 401.59c0,55.68 -42.15,57.9 -66.15,57.9l-45.63 0c-74.04,0 -134.61,60.57 -134.61,134.61l0 0c0,74.04 60.57,134.61 134.61,134.61l45.63 0c23.99,0 66.15,-1.74 66.15,75.77l0 1819.97c0,0 -10.61,67.47 -134.96,71.44l-232.83 0c-6.61,0 -132.72,392.07 -516.01,432.62 0,0 377.6,-12.87 669.96,-141.19l28.88 358.75 -678.67 42.34 -7437.37 -8.51c-81.71,5.29 -105.2,-53.22 -108.5,-75.38l-13.23 -88.93c-12.14,-81.6 -67.5,-150 -150,-150l-3707.78 0c-82.5,0 -150,67.51 -150,150l0 74.38c0,20.64 -8.33,85.46 -99.24,85.46l-3646.67 -4.22 -734.21 -26.43 17.88 -279.18c1.67,-26.19 699.77,8.09 868.44,16.02 -279.42,-87.63 -631.12,3.14 -660.75,-599.42 -186.53,-9.27 -263.9,-19.33 -263.9,-19.33z"/>
  <path class="fil0 str0" d="M3128.31 1954.09l0.01 0c11.39,0 20.72,9.32 20.72,20.72l0 164.63c0,11.4 -9.33,20.72 -20.72,20.72l-0.01 0c-11.39,0 -20.72,-9.32 -20.72,-20.72l0 -164.63c0,-11.4 9.33,-20.72 20.72,-20.72zm0 -207.17l0.01 0c11.39,0 20.72,9.32 20.72,20.72l0 126.43c0,11.4 -9.33,20.72 -20.72,20.72l-0.01 0c-11.39,0 -20.72,-9.32 -20.72,-20.72l0 -126.43c0,-11.4 9.33,-20.72 20.72,-20.72zm-1.28 -664.83l0 0c20.37,0 37.03,16.66 37.03,37.03l0 348.99c0,20.37 -16.66,37.03 -37.03,37.03l0 0c-20.37,0 -37.03,-16.66 -37.03,-37.03l0 -348.99c0,-20.37 16.66,-37.03 37.03,-37.03zm-7.75 -408.66l0 0c-42.31,0 -74.28,33.7 -74.25,74.45l1.52 1837.04 43.62 188.88 4.74 206.55c0.17,7.61 6.48,13.87 14.38,13.87l72.51 0c7.91,0 14.39,-6.24 14.39,-13.87l0 -2232.84c0,-40.76 -34.61,-74.08 -76.91,-74.08zm-15.69 3446.25l0 0c11.2,0 20.36,9.15 20.36,20.35l0 253.06c0,11.2 -9.16,20.36 -20.36,20.36l0 0c-11.19,0 -20.35,-9.16 -20.35,-20.36l0 -253.06c0,-11.2 9.16,-20.35 20.35,-20.35zm0 -332.74l0 0c11.2,0 20.36,9.16 20.36,20.35l0 253.07c0,11.19 -9.16,20.35 -20.36,20.35l0 0c-11.19,0 -20.35,-9.16 -20.35,-20.35l0 -253.07c0,-11.19 9.16,-20.35 20.35,-20.35zm9.13 -718.63l0 0c40.75,0 71.55,33.7 71.52,74.45l-1.47 1837.04 -47.31 154.04 0.74 203.98c0.02,7.62 -6.25,13.87 -13.86,13.87l-69.84 0c-7.62,0 -13.86,-6.24 -13.86,-13.87l0 -2195.43c0,-40.76 33.34,-74.08 74.08,-74.08zm-196.67 -2412.64l74.24 0c7.62,0 13.86,6.26 13.86,13.86l0 3776.01c0,7.6 -6.24,13.86 -13.86,13.86l-74.24 0c-7.62,0 -13.86,-6.26 -13.86,-13.86l0 -3776.01c0,-7.6 6.24,-13.86 13.86,-13.86zm-763.41 724.13l123.78 0c24.66,0 44.84,20.18 44.84,44.83l0 0.01c0,24.66 -20.18,44.83 -44.84,44.83l-123.78 0c-24.66,0 -44.83,-20.17 -44.83,-44.83l0 -0.01c0,-24.65 20.17,-44.83 44.83,-44.83zm-321.04 -73.72l162.92 0c22.87,0 41.59,18.71 41.59,41.58l0 157.06c0,22.87 -18.72,41.58 -41.59,41.58l-162.92 0c-22.87,0 -41.58,-18.71 -41.58,-41.58l0 -157.06c0,-22.87 18.71,-41.58 41.58,-41.58zm386.4 -271.31c30.34,0 54.93,24.59 54.93,54.92 0,30.34 -24.59,54.93 -54.93,54.93 -30.33,0 -54.92,-24.59 -54.92,-54.93 0,-30.33 24.59,-54.92 54.92,-54.92zm-301.85 -73.34c69.73,0 126.26,56.52 126.26,126.25 0,69.73 -56.53,126.26 -126.26,126.26 -69.73,0 -126.25,-56.53 -126.25,-126.26 0,-69.73 56.52,-126.25 126.25,-126.25zm-539.95 43.24c135.42,0 245.21,109.79 245.21,245.21 0,135.42 -109.79,245.21 -245.21,245.21 -135.42,0 -245.21,-109.79 -245.21,-245.21 0,-135.42 109.79,-245.21 245.21,-245.21zm-221.63 -43.22l434.81 0c42,0 76.35,34.36 76.35,76.35l0 435.15c0,41.99 -34.35,76.35 -76.35,76.35l-434.81 0c-41.99,0 -76.35,-34.36 -76.35,-76.35l0 -435.15c0,-41.99 34.36,-76.35 76.35,-76.35zm-19.84 -42.32l1492.91 0c58.13,0 105.69,47.56 105.69,105.69l0 476.01c0,58.13 -47.56,105.69 -105.69,105.69l-1492.91 0c-58.13,0 -105.69,-47.56 -105.69,-105.69l0 -476.01c0,-58.13 47.56,-105.69 105.69,-105.69zm-9.16 -15.15l1514.42 0c60.99,0 110.89,49.9 110.89,110.89l0 499.43c0,60.99 -49.9,110.89 -110.89,110.89l-1514.42 0c-60.99,0 -110.89,-49.9 -110.89,-110.89l0 -499.43c0,-60.99 49.9,-110.89 110.89,-110.89zm-78.37 -247.15l510.3 -0.11c19.32,0 16.96,12 16.96,15.55l0 15.5c0,16.74 13.69,30.44 30.44,30.44l0 0c16.74,0 30.44,-13.7 30.44,-30.44l0 -15.5c0,-3.56 -2,-15.57 17.77,-15.57l95.58 -0.02c22.88,0 21.44,16.57 21.44,20.28l0 12.1c0,21.98 14.41,39.92 36.4,39.92l0 0c21.99,0 37.87,-17.93 37.87,-39.92l0 -12.1c0,-3.73 -1.62,-20.29 20.34,-20.29l969 -0.21c20.36,-0.01 30.63,0.28 30.08,47.59l0 70.63 -59.33 20.63 59.33 6.23 0 4400.82 -63.82 15.59 57.56 14.06 -0.89 74.77c-0.24,19.97 -2,50.98 -64.16,48.78l-768.62 0c-23.66,0 -22.63,-12.46 -22.63,-19.49l0 -27.96c0,-22.87 -18.71,-41.58 -41.58,-41.58l-162.92 0c-22.87,0 -41.59,18.71 -41.59,41.58l0 27.96c0,7.03 -0.61,19.49 -25.19,19.49l-111.33 0c-15.44,0 -16.06,-11.69 -16.06,-18.34l0 -12.65c0,-20.53 -16.79,-37.32 -37.31,-37.32l0 0c-20.53,0 -37.32,16.79 -37.32,37.32l0 12.65c0,6.65 0.48,18.34 -21.01,18.34l-504.54 0c0,0 -18.71,-2.95 -19.81,-37.42l0 -64.55c0,-1.83 -108.69,-36.79 -119.93,-143.05 0,0 3.57,104.68 39.14,185.73l-99.46 8.01 -11.73 -188.15 2.36 -2061.85c-1.47,-22.65 14.75,-29.16 20.89,-30.07l24.66 -3.67c22.62,-3.37 41.58,-18.72 41.58,-41.59l0 -1027.9c0,-22.87 -18.71,-41.58 -41.58,-41.58l-20.62 0c-5.73,0 -23.7,-2.31 -23.7,-27.51l1.17 -1010.96 7.33 -203.55 77.4 4.96c7.26,0.46 -2.24,194 -4.44,240.76 24.29,-77.47 -0.87,-174.97 166.17,-183.18 2.57,-51.71 5.36,-73.16 5.36,-73.16z"/>
 </g>
</svg>
