<?xml version="1.0" encoding="UTF-8"?>
<!DOCTYPE svg PUBLIC "-//W3C//DTD SVG 1.1//EN" "http://www.w3.org/Graphics/SVG/1.1/DTD/svg11.dtd">
<!-- Creator: CorelDRAW X8 -->
<svg xmlns="http://www.w3.org/2000/svg" xml:space="preserve" width="40mm" height="60mm" version="1.1" style="shape-rendering:geometricPrecision; text-rendering:geometricPrecision; image-rendering:optimizeQuality; fill-rule:evenodd; clip-rule:evenodd"
viewBox="0 0 4000 6000"
 xmlns:xlink="http://www.w3.org/1999/xlink">
 <defs>
  <style type="text/css">
   <![CDATA[
    .str0 {stroke:black;stroke-width:7.62}
    .fil0 {fill:none}
   ]]>
  </style>
 </defs>
 <g id="图层_x0020_1">
  <metadata id="CorelCorpID_0Corel-Layer"/>
  <path class="fil0 str0" d="M1098 5350l1712 0c122,0 221,-99 221,-221l0 -4258c0,-122 -99,-221 -221,-221l-522 0c-2,0 -2,0 -3,1l-6 7c-2,2 -3,2 -5,2l-152 0c-25,0 -38,7 -38,37l0 20c0,43 -36,79 -79,79l0 0c-44,0 -79,-36 -79,-79l0 -16c0,-31 -22,-41 -43,-41l-141 0c-2,0 -3,0 -5,-2l-6 -6c-2,-2 -2,-2 -5,-2l-536 0c-122,0 -221,99 -221,221l0 4258c0,122 99,221 221,221l47 0"/>
 </g>
</svg>
