<?xml version="1.0" encoding="UTF-8"?>
<!DOCTYPE svg PUBLIC "-//W3C//DTD SVG 1.1//EN" "http://www.w3.org/Graphics/SVG/1.1/DTD/svg11.dtd">
<!-- Creator: CorelDRAW X8 -->
<svg xmlns="http://www.w3.org/2000/svg" xml:space="preserve" width="40mm" height="60mm" version="1.1" style="shape-rendering:geometricPrecision; text-rendering:geometricPrecision; image-rendering:optimizeQuality; fill-rule:evenodd; clip-rule:evenodd"
viewBox="0 0 4000 6000"
 xmlns:xlink="http://www.w3.org/1999/xlink">
 <defs>
  <style type="text/css">
   <![CDATA[
    .str0 {stroke:black;stroke-width:7.62}
    .fil0 {fill:none}
   ]]>
  </style>
 </defs>
 <g id="图层_x0020_1">
  <metadata id="CorelCorpID_0Corel-Layer"/>
  <path class="fil0 str0" d="M1595 1093c-16,4 -27,10 -27,37l0 21c0,31 25,56 56,56l0 0c30,0 55,-25 55,-56l0 -224c0,-31 -25,-56 -55,-56l0 0c-31,0 -56,25 -56,56l0 203m72 163c-1,-5 -6,-10 -15,-11 -35,0 -63,28 -63,63 0,35 28,63 63,63 34,0 62,-28 62,-63 0,-35 -28,-63 -62,-63m-305 -396c-1,-10 -10,-20 -28,-21 -64,0 -116,52 -116,117 0,64 52,117 116,117 65,0 117,-53 117,-117 0,-65 -52,-117 -117,-117m28 379c-1,-10 -10,-19 -28,-21 -64,0 -116,53 -116,117 0,65 52,117 116,117 65,0 117,-52 117,-117 0,-64 -52,-117 -117,-117m-9 -404l360 0c87,0 157,70 157,157l0 388c0,87 -70,158 -157,158l-360 0c-86,0 -157,-71 -157,-158l0 -388c0,-87 71,-157 157,-157zm-10 -50l375 0c106,0 192,87 192,193l0 405c0,106 -86,192 -192,192l-375 0c-105,0 -192,-86 -192,-192l0 -405c0,-106 87,-193 192,-193zm49 4581c-24,-19 -67,-27 -95,-27l-42 0c-146,0 -266,-119 -266,-265l0 -4143c0,-146 120,-265 266,-265l1630 0c146,0 266,119 266,265l0 4143c0,146 -120,265 -266,265l-1764 0"/>
 </g>
</svg>
