<?xml version="1.0" encoding="UTF-8"?>
<!DOCTYPE svg PUBLIC "-//W3C//DTD SVG 1.1//EN" "http://www.w3.org/Graphics/SVG/1.1/DTD/svg11.dtd">
<!-- Creator: CorelDRAW X8 -->
<svg xmlns="http://www.w3.org/2000/svg" xml:space="preserve" width="40mm" height="60mm" version="1.1" style="shape-rendering:geometricPrecision; text-rendering:geometricPrecision; image-rendering:optimizeQuality; fill-rule:evenodd; clip-rule:evenodd"
viewBox="0 0 4000 6000"
 xmlns:xlink="http://www.w3.org/1999/xlink">
 <defs>
  <style type="text/css">
   <![CDATA[
    .str0 {stroke:#333333;stroke-width:18;stroke-linejoin:bevel}
    .fil0 {fill:none}
   ]]>
  </style>
 </defs>
 <g id="图层_x0020_1">
  <metadata id="CorelCorpID_0Corel-Layer"/>
  <path class="fil0 str0" d="M962 5350c354,0 1921,0 1921,0 111,0 203,-91 203,-203 0,0 0,-4294 0,-4294 0,-112 -92,-203 -203,-203 0,0 -171,0 -171,0 -17,0 -31,14 -31,30 0,0 0,15 0,15 0,25 -20,46 -45,46 0,0 -1090,0 -1090,0 -25,0 -46,-21 -46,-46 0,0 0,-15 0,-15 0,-16 -13,-30 -30,-30 0,0 -353,0 -353,0 -111,0 -203,91 -203,203 0,0 0,4294 0,4294 0,112 92,203 203,203 0,0 32,0 86,0"/>
 </g>
</svg>
