<?xml version="1.0" encoding="UTF-8"?>
<!DOCTYPE svg PUBLIC "-//W3C//DTD SVG 1.1//EN" "http://www.w3.org/Graphics/SVG/1.1/DTD/svg11.dtd">
<!-- Creator: CorelDRAW X8 -->
<svg xmlns="http://www.w3.org/2000/svg" xml:space="preserve" width="40mm" height="60mm" version="1.1" style="shape-rendering:geometricPrecision; text-rendering:geometricPrecision; image-rendering:optimizeQuality; fill-rule:evenodd; clip-rule:evenodd"
viewBox="0 0 4000 6000"
 xmlns:xlink="http://www.w3.org/1999/xlink">
 <defs>
  <style type="text/css">
   <![CDATA[
    .str0 {stroke:black;stroke-width:7.62}
    .fil0 {fill:none}
   ]]>
  </style>
 </defs>
 <g id="图层_x0020_1">
  <metadata id="CorelCorpID_0Corel-Layer"/>
  <path class="fil0 str0" d="M972 5350l1809 0c182,0 330,-148 330,-330l0 -4040c0,-182 -148,-330 -330,-330l-1562 0c-182,0 -330,148 -330,330l0 4040c0,182 148,330 330,330l111 0m-86 -4610l421 0c149,0 270,121 270,270l0 495c0,149 -121,271 -270,271l-421 0c-148,0 -270,-122 -270,-271l0 -495c0,-149 122,-270 270,-270zm0 -24l421 0c162,0 294,132 294,294l0 495c0,162 -132,295 -294,295l-421 0c-161,0 -294,-133 -294,-295l0 -495c0,-162 133,-294 294,-294zm33 99c-2,-19 -18,-36 -51,-39 -120,0 -217,97 -217,217 0,119 97,216 217,216 119,0 216,-97 216,-216 0,-120 -97,-217 -216,-217m51 561c-2,-18 -18,-35 -51,-38 -120,0 -217,97 -217,216 0,120 97,217 217,217 119,0 216,-97 216,-217 0,-119 -97,-216 -216,-216m511 -225c-1,-18 -17,-35 -51,-38 -119,0 -216,97 -216,216 0,120 97,216 216,216 119,0 216,-96 216,-216 0,-119 -97,-216 -216,-216m23 -230c-1,-8 -9,-17 -25,-18 -56,0 -102,46 -102,102 0,57 46,102 102,102 57,0 103,-45 103,-102 0,-56 -46,-102 -103,-102m25 743c-1,-8 -9,-17 -25,-18 -56,0 -102,46 -102,102 0,57 46,102 102,102 57,0 103,-45 103,-102 0,-56 -46,-102 -103,-102m165 -24c0,-3 -3,-5 -7,-6 -17,0 -30,14 -30,30 0,17 13,30 30,30 16,0 30,-13 30,-30 0,-16 -14,-30 -30,-30"/>
 </g>
</svg>
