<?xml version="1.0" encoding="UTF-8"?>
<!DOCTYPE svg PUBLIC "-//W3C//DTD SVG 1.1//EN" "http://www.w3.org/Graphics/SVG/1.1/DTD/svg11.dtd">
<!-- Creator: CorelDRAW 2020 (64-Bit) -->
<svg xmlns="http://www.w3.org/2000/svg" xml:space="preserve" width="40mm" height="60mm" version="1.1" style="shape-rendering:geometricPrecision; text-rendering:geometricPrecision; image-rendering:optimizeQuality; fill-rule:evenodd; clip-rule:evenodd"
viewBox="0 0 4000 6000"
 xmlns:xlink="http://www.w3.org/1999/xlink"
 xmlns:xodm="http://www.corel.com/coreldraw/odm/2003">
 <defs>
  <style type="text/css">
   <![CDATA[
    .str1 {stroke:#332C2B;stroke-width:20;stroke-miterlimit:22.9256}
    .str0 {stroke:#E62129;stroke-width:20;stroke-miterlimit:22.9256}
    .fil0 {fill:none}
   ]]>
  </style>
   <clipPath id="id0">
    <rect x="-49286.86" y="-6241.37" width="15696.58" height="17636.27"/>
   </clipPath>
 </defs>
 <g id="图层_x0020_1">
  <metadata id="CorelCorpID_0Corel-Layer"/>
  <g style="clip-path:url(#id0)">
   <image x="-49286.86" y="-6241.37" width="15696.58" height="17636.28" xlink:href="10 (India) -11i（前膜全屏）_Images\10 (India) -11i（前膜全屏）_ImgID1.png"/>
  </g>
  <rect class="fil0 str0" x="-41949.2" y="-5889.09" width="7660" height="16960"/>
  <path class="fil0 str0" d="M-40886.06 -5616.35l1428.19 0c35.17,0 77.99,44.43 106.77,44.43l645.29 0c194.67,0 222.63,136.93 222.63,219.86 0,197.23 159.89,357.12 357.12,357.12 197.23,0 357.12,-159.89 357.12,-357.12 0,-82.93 28.61,-219.86 221.97,-219.86l637.99 0c28.78,0 54.74,-44.43 97.51,-44.43l1459.14 0c440,0 800,360.01 800,800l0 14789.65c0,440 -360,800 -800,800l-5533.73 0c-440,0 -799.99,-360 -799.99,-800l0 -14789.65c0,-440 359.99,-800 799.99,-800z"/>
  <path class="fil0 str1" d="M-7326.82 5767.9l0 -5905.48c0,-439.99 -360.01,-800 -800,-800l-14789.65 0c-439.99,0 -800,360 -800,800l0 1459.14c0,42.77 44.43,68.73 44.43,97.51l0 637.99c0,193.36 136.93,221.97 219.86,221.97 197.23,0 357.12,159.89 357.12,357.12 0,197.23 -159.89,357.12 -357.12,357.12 -82.93,0 -219.86,27.96 -219.86,222.63l0 645.29c0,28.78 -44.43,71.6 -44.43,106.77l0 1428.19c0,440 360,799.99 800,799.99l14789.65 0c440,0 800,-359.99 800,-799.99 0,-440 51.35,-535.64 101.62,-605.76"/>
  <path class="fil0 str1" d="M1098.36 5321.57l1683.07 0c125.39,0 227.99,-102.61 227.99,-228l0 -4215.04c0,-125.4 -102.6,-228 -227.99,-228l-415.86 0c-12.19,0 -19.59,12.66 -27.79,12.66l-181.83 0c-55.1,0 -63.26,39.03 -63.26,62.66 0,56.21 -45.57,101.78 -101.78,101.78 -56.21,0 -101.78,-45.57 -101.78,-101.78 0,-23.63 -7.97,-62.66 -63.45,-62.66l-183.9 0c-8.21,0 -20.41,-12.66 -30.43,-12.66l-407.04 0c-125.4,0 -227.99,102.6 -227.99,228l0 4215.04c0,125.4 102.59,228 227.99,228 125.4,0 152.66,14.63 172.64,28.96"/>
 </g>
</svg>
