<?xml version="1.0" encoding="UTF-8"?>
<!DOCTYPE svg PUBLIC "-//W3C//DTD SVG 1.1//EN" "http://www.w3.org/Graphics/SVG/1.1/DTD/svg11.dtd">
<!-- Creator: CorelDRAW X8 -->
<svg xmlns="http://www.w3.org/2000/svg" xml:space="preserve" width="40mm" height="60mm" version="1.1" style="shape-rendering:geometricPrecision; text-rendering:geometricPrecision; image-rendering:optimizeQuality; fill-rule:evenodd; clip-rule:evenodd"
viewBox="0 0 4000 6000"
 xmlns:xlink="http://www.w3.org/1999/xlink">
 <defs>
  <style type="text/css">
   <![CDATA[
    .str0 {stroke:black;stroke-width:7.62}
    .fil0 {fill:none}
   ]]>
  </style>
 </defs>
 <g id="图层_x0020_1">
  <metadata id="CorelCorpID_0Corel-Layer"/>
  <path class="fil0 str0" d="M2683 768c-1,-6 -6,-11 -16,-12 -37,0 -67,30 -67,67 0,37 30,67 67,67 37,0 67,-30 67,-67 0,-37 -30,-67 -67,-67m-264 5c-1,-6 -6,-11 -16,-12 -37,0 -67,30 -67,67 0,37 30,67 67,67 37,0 67,-30 67,-67 0,-37 -30,-67 -67,-67m-456 59c-5,-19 -16,-34 -63,-34l-40 0c-22,0 -39,17 -39,39l0 0c0,21 17,38 39,38l349 0c21,0 38,-17 38,-38l0 0c0,-22 -17,-39 -38,-39l-309 0m-938 4576l2077 0c56,0 101,-45 101,-101l0 -4498c0,-56 -45,-101 -101,-101l-2014 0c-56,0 -101,45 -101,101l0 4498c0,56 45,101 101,101l32 0"/>
 </g>
</svg>
