<?xml version="1.0" encoding="UTF-8"?>
<!DOCTYPE svg PUBLIC "-//W3C//DTD SVG 1.1//EN" "http://www.w3.org/Graphics/SVG/1.1/DTD/svg11.dtd">
<!-- Creator: CorelDRAW X8 -->
<svg xmlns="http://www.w3.org/2000/svg" xml:space="preserve" width="40mm" height="60mm" version="1.1" style="shape-rendering:geometricPrecision; text-rendering:geometricPrecision; image-rendering:optimizeQuality; fill-rule:evenodd; clip-rule:evenodd"
viewBox="0 0 4000 6000"
 xmlns:xlink="http://www.w3.org/1999/xlink">
 <defs>
  <style type="text/css">
   <![CDATA[
    .fil0 {fill:black;fill-rule:nonzero}
   ]]>
  </style>
 </defs>
 <g id="图层_x0020_1">
  <metadata id="CorelCorpID_0Corel-Layer"/>
  <g>
   <path class="fil0" d="M1280 983l10 18 0 0 -9 4 -7 4 -8 4 -7 4 -7 3 -6 4 -6 3 -6 2 -5 3 -6 2 -5 2 -4 2 -5 2 -4 2 -4 1 -3 1 -4 1 -4 1 -3 1 -3 1 -3 1 -4 0 -2 0 -3 1 -3 0 -3 0 -3 0 -3 0 -2 0 -3 0 -3 0 -3 -1 2 -20 2 1 3 0 2 0 3 0 2 0 2 0 3 0 2 0 2 0 3 -1 2 0 3 -1 2 0 3 -1 3 -1 3 -1 4 -1 3 -1 4 -2 4 -1 5 -2 4 -2 5 -2 5 -3 6 -2 6 -3 6 -3 7 -4 7 -3 7 -4 8 -4 8 -5 0 0zm10 18l0 0 0 0 0 0zm656 -319l8 18 0 0 -19 8 -19 7 -20 8 -20 8 -20 9 -21 8 -21 9 -21 9 -22 8 -21 9 -22 10 -22 9 -22 9 -22 10 -22 9 -22 10 -22 10 -22 10 -22 9 -22 10 -22 10 -21 11 -21 10 -21 10 -21 10 -20 10 -20 10 -20 10 -19 10 -19 11 -18 10 -18 10 -10 -18 18 -10 19 -10 19 -10 19 -10 20 -11 20 -10 20 -10 21 -10 21 -10 22 -11 21 -10 22 -10 22 -10 22 -10 22 -10 22 -9 22 -10 22 -10 22 -9 22 -10 22 -9 22 -9 22 -9 21 -9 22 -9 20 -8 21 -9 21 -8 20 -8 19 -8 20 -8 18 -7 0 0zm588 161l-16 12 0 0 -15 -20 -15 -19 -16 -17 -16 -16 -16 -16 -17 -14 -17 -13 -17 -11 -17 -11 -18 -10 -18 -9 -18 -8 -18 -7 -18 -6 -19 -5 -18 -4 -19 -3 -19 -3 -18 -2 -19 -1 -19 0 -18 1 -19 1 -19 2 -18 2 -18 3 -18 4 -18 4 -18 5 -17 6 -17 6 -17 6 -8 -18 18 -7 18 -6 18 -6 18 -5 18 -4 19 -4 19 -4 19 -2 19 -2 20 -1 19 -1 20 0 19 1 20 2 19 3 20 3 19 5 20 5 19 6 19 8 19 8 18 9 19 10 18 12 18 12 18 14 17 14 17 16 17 17 16 18 16 20 15 20 0 0zm468 1484l-20 1 0 0 -4 -66 -5 -63 -5 -61 -6 -59 -6 -58 -6 -55 -7 -54 -8 -52 -8 -50 -9 -49 -9 -48 -10 -46 -11 -46 -12 -44 -12 -43 -13 -42 -14 -42 -14 -41 -16 -40 -16 -40 -17 -39 -18 -39 -19 -39 -20 -39 -21 -39 -22 -39 -24 -39 -24 -39 -25 -40 -27 -40 -27 -41 -29 -41 16 -12 29 42 28 41 27 40 25 40 25 40 23 39 22 39 21 40 21 39 19 39 18 40 18 39 16 41 16 40 14 42 14 42 13 42 13 44 11 44 11 46 10 47 10 48 9 49 8 51 7 52 8 54 6 56 6 58 6 59 5 61 5 64 4 66 0 0zm5 1267l-19 -1 0 0 1 -30 1 -33 1 -33 1 -36 1 -36 1 -38 1 -40 1 -40 0 -41 1 -42 0 -42 1 -43 0 -44 0 -44 0 -44 0 -44 0 -45 0 -44 -1 -44 0 -44 -1 -43 0 -43 -1 -42 -1 -41 -1 -41 -1 -39 -2 -38 -1 -37 -1 -36 -2 -34 -2 -33 -2 -31 20 -1 2 31 2 33 1 34 2 36 1 37 2 38 1 40 1 40 1 42 1 42 0 43 1 43 0 44 1 44 0 44 0 45 0 44 0 44 0 44 0 44 -1 43 0 43 -1 42 0 41 -1 40 -1 39 -1 38 -1 37 -1 35 -1 34 -1 32 -2 31 0 0zm-401 1544l-17 -12 0 0 21 -32 21 -34 20 -35 20 -38 19 -40 19 -41 18 -42 18 -44 17 -46 16 -46 16 -48 16 -49 14 -49 15 -51 13 -51 13 -52 13 -52 12 -53 11 -53 10 -53 10 -54 10 -54 8 -53 8 -53 8 -53 6 -53 6 -53 6 -51 5 -51 4 -51 3 -49 3 -49 19 1 -2 49 -3 50 -5 50 -4 52 -6 52 -6 52 -6 53 -8 53 -8 54 -9 54 -9 54 -10 53 -11 54 -11 53 -12 53 -12 53 -13 52 -14 52 -14 50 -15 50 -16 49 -16 48 -16 47 -18 46 -17 44 -19 43 -19 42 -19 40 -20 38 -21 37 -21 34 -21 33 0 0zm-637 192l5 -20 0 0 22 6 22 5 22 4 22 4 22 4 21 2 22 2 21 2 21 1 21 0 21 -1 21 -1 20 -2 20 -3 20 -3 20 -5 19 -5 20 -6 19 -7 18 -8 19 -8 18 -10 18 -11 17 -11 18 -13 16 -14 17 -15 16 -15 16 -17 16 -19 15 -19 15 -21 17 12 -16 21 -16 20 -16 19 -16 18 -17 16 -18 15 -17 15 -18 13 -19 12 -18 11 -19 11 -20 9 -19 8 -20 7 -20 6 -20 6 -21 4 -21 4 -21 3 -21 2 -21 1 -22 1 -21 0 -22 -1 -22 -2 -22 -2 -22 -3 -23 -3 -22 -4 -22 -5 -23 -5 -22 -5 0 0zm-603 -249l9 -17 0 0 14 7 15 8 15 7 17 9 17 8 17 8 18 9 19 9 19 9 20 9 20 9 20 9 21 9 21 9 21 9 21 9 21 8 21 9 21 9 21 8 20 8 21 8 20 7 20 8 19 7 19 6 18 7 18 6 17 5 17 5 16 4 15 4 -5 20 -16 -4 -16 -5 -17 -5 -17 -5 -18 -6 -19 -7 -19 -6 -19 -7 -20 -8 -20 -7 -21 -8 -21 -8 -21 -9 -21 -8 -21 -9 -21 -9 -21 -9 -21 -9 -21 -9 -21 -9 -20 -9 -20 -9 -20 -9 -19 -9 -19 -9 -19 -9 -17 -8 -17 -8 -17 -9 -15 -8 -15 -7 -14 -8 0 0zm-238 -159l14 -14 0 0 5 4 5 5 6 5 6 5 6 5 7 5 6 5 8 5 7 6 8 5 7 6 8 5 8 6 9 5 8 6 8 5 8 6 9 5 8 5 8 5 9 6 8 5 8 4 8 5 8 5 7 4 8 4 7 5 7 3 6 4 6 4 6 3 -9 17 -6 -3 -7 -3 -6 -4 -7 -4 -7 -4 -8 -5 -8 -4 -7 -5 -8 -4 -9 -5 -8 -5 -8 -6 -9 -5 -8 -5 -8 -6 -9 -5 -8 -6 -9 -5 -8 -6 -8 -5 -8 -6 -8 -5 -8 -6 -7 -5 -8 -6 -7 -5 -6 -6 -7 -5 -6 -5 -6 -5 -6 -5 -5 -5 0 0zm-92 -248l20 -1 0 0 0 10 0 10 1 10 0 9 0 9 1 9 0 8 1 8 1 8 1 8 1 7 1 7 1 7 1 6 2 7 2 6 2 7 2 6 3 6 3 6 3 6 3 7 4 6 4 6 5 7 5 6 5 7 6 7 6 7 7 7 7 7 8 8 -14 14 -8 -8 -7 -7 -7 -8 -7 -7 -6 -7 -6 -8 -5 -7 -5 -6 -5 -7 -4 -7 -4 -7 -3 -7 -3 -7 -3 -7 -3 -7 -2 -7 -2 -7 -2 -7 -2 -7 -1 -8 -1 -7 -1 -8 -1 -8 -1 -8 -1 -8 0 -9 -1 -9 0 -9 0 -9 -1 -10 0 -10 0 -10 0 0zm-53 -3094l20 0 0 0 0 72 -1 77 0 81 0 84 0 88 0 92 1 94 1 97 1 99 1 101 1 103 1 105 2 106 2 107 1 108 2 108 2 109 2 108 3 108 2 108 2 106 3 105 2 104 3 102 3 100 2 98 3 95 3 93 2 89 3 86 3 82 3 78 -20 1 -3 -79 -3 -82 -3 -86 -2 -89 -3 -92 -3 -95 -2 -98 -3 -100 -3 -102 -2 -104 -3 -105 -2 -107 -2 -107 -3 -108 -2 -109 -2 -108 -2 -109 -1 -107 -2 -107 -2 -107 -1 -104 -1 -104 -1 -101 -1 -99 -1 -97 -1 -94 0 -92 0 -88 0 -84 0 -81 1 -77 0 -72 0 0zm297 -596l11 16 -1 1 -21 12 -20 13 -19 13 -19 13 -17 14 -16 13 -15 14 -15 14 -13 15 -13 15 -12 15 -11 16 -10 16 -10 16 -9 17 -8 17 -8 18 -7 18 -6 18 -6 19 -5 20 -5 20 -4 21 -4 21 -3 21 -3 23 -2 23 -2 23 -1 25 -1 24 -1 26 -1 26 -20 0 1 -27 1 -25 1 -26 1 -24 2 -24 2 -23 3 -23 3 -22 4 -22 4 -21 5 -21 6 -20 6 -20 6 -19 8 -19 7 -18 9 -18 9 -18 11 -17 10 -17 12 -16 12 -16 14 -15 14 -15 15 -15 16 -15 17 -14 17 -14 19 -13 20 -14 20 -13 22 -13 0 1zm11 16l-1 0 0 1 1 -1zm82 -100l20 1 0 3 -1 3 -1 3 -1 2 -1 3 -1 2 -2 3 -2 2 -1 3 -3 3 -2 2 -2 3 -3 3 -2 3 -3 3 -4 3 -3 3 -3 3 -4 3 -4 3 -4 3 -4 3 -4 4 -5 3 -4 4 -5 3 -5 4 -6 4 -5 4 -6 3 -5 4 -6 4 -11 -16 5 -4 6 -4 6 -4 5 -4 5 -3 5 -4 5 -3 4 -4 5 -3 4 -3 4 -3 4 -3 3 -4 4 -2 3 -3 3 -3 3 -3 2 -2 3 -3 2 -2 2 -3 2 -2 2 -2 1 -2 1 -2 1 -2 1 -1 1 -2 0 -1 1 -1 0 -1 0 -1z"/>
  </g>
 </g>
</svg>
