<?xml version="1.0" encoding="UTF-8"?>
<!DOCTYPE svg PUBLIC "-//W3C//DTD SVG 1.1//EN" "http://www.w3.org/Graphics/SVG/1.1/DTD/svg11.dtd">
<!-- Creator: CorelDRAW X8 -->
<svg xmlns="http://www.w3.org/2000/svg" xml:space="preserve" width="40mm" height="60mm" version="1.1" style="shape-rendering:geometricPrecision; text-rendering:geometricPrecision; image-rendering:optimizeQuality; fill-rule:evenodd; clip-rule:evenodd"
viewBox="0 0 4000 6000"
 xmlns:xlink="http://www.w3.org/1999/xlink">
 <defs>
  <style type="text/css">
   <![CDATA[
    .str0 {stroke:#332C2B;stroke-width:7.62}
    .fil0 {fill:none}
   ]]>
  </style>
 </defs>
 <g id="图层_x0020_1">
  <metadata id="CorelCorpID_0Corel-Layer"/>
  <path class="fil0 str0" d="M1244 5350c-12,-32 -59,-43 -83,-43 -120,0 -219,-98 -219,-218l0 -4221c0,-120 98,-218 219,-218l284 0 293 0c24,0 44,8 44,42l0 58c0,41 34,76 76,76l278 0c42,0 76,-35 76,-76l0 -54c0,-33 23,-46 47,-46l298 0 283 0c120,0 218,98 218,218l0 4221c0,120 -99,218 -218,218l-1815 0"/>
 </g>
</svg>
