<?xml version="1.0" encoding="UTF-8"?>
<!DOCTYPE svg PUBLIC "-//W3C//DTD SVG 1.1//EN" "http://www.w3.org/Graphics/SVG/1.1/DTD/svg11.dtd">
<!-- Creator: CorelDRAW X8 -->
<svg xmlns="http://www.w3.org/2000/svg" xml:space="preserve" width="40mm" height="60mm" version="1.1" style="shape-rendering:geometricPrecision; text-rendering:geometricPrecision; image-rendering:optimizeQuality; fill-rule:evenodd; clip-rule:evenodd"
viewBox="0 0 4000 6000"
 xmlns:xlink="http://www.w3.org/1999/xlink">
 <defs>
  <style type="text/css">
   <![CDATA[
    .str0 {stroke:black;stroke-width:7.62}
    .fil0 {fill:none}
   ]]>
  </style>
 </defs>
 <g id="图层_x0020_1">
  <metadata id="CorelCorpID_0Corel-Layer"/>
  <path class="fil0 str0" d="M1717 716c-1,-5 -5,-10 -14,-10 -32,0 -58,26 -58,58 0,32 26,58 58,58 32,0 58,-26 58,-58 0,-32 -26,-58 -58,-58m248 53c-4,-17 -13,-30 -54,-30l-36 0c-18,0 -33,15 -33,33l0 0c0,19 15,34 33,34l292 0c18,0 33,-15 33,-34l0 0c0,-18 -15,-33 -33,-33l-256 0m625 15c-2,-10 -6,-17 -23,-17l-13 0c-20,0 -36,15 -36,35l0 0c0,19 16,35 36,35l94 0c19,0 35,-16 35,-35l0 0c0,-20 -16,-35 -35,-35l-81 0m-162 -12c-1,-5 -5,-10 -14,-10 -32,0 -58,26 -58,58 0,32 26,58 58,58 32,0 58,-26 58,-58 0,-32 -26,-58 -58,-58m-1300 4614l1832 0c117,0 213,-96 213,-213l0 -4243c0,-117 -96,-213 -213,-213l-1710 0c-117,0 -213,96 -213,213l0 4243c0,117 96,213 213,213l52 0c74,0 126,14 156,31"/>
 </g>
</svg>
