<?xml version="1.0" encoding="UTF-8"?>
<!DOCTYPE svg PUBLIC "-//W3C//DTD SVG 1.1//EN" "http://www.w3.org/Graphics/SVG/1.1/DTD/svg11.dtd">
<!-- Creator: CorelDRAW X8 -->
<svg xmlns="http://www.w3.org/2000/svg" xml:space="preserve" width="40mm" height="60mm" version="1.1" style="shape-rendering:geometricPrecision; text-rendering:geometricPrecision; image-rendering:optimizeQuality; fill-rule:evenodd; clip-rule:evenodd"
viewBox="0 0 4000 6000"
 xmlns:xlink="http://www.w3.org/1999/xlink">
 <defs>
  <style type="text/css">
   <![CDATA[
    .str0 {stroke:#333333;stroke-width:18;stroke-linejoin:bevel}
    .fil0 {fill:none}
   ]]>
  </style>
 </defs>
 <g id="图层_x0020_1">
  <metadata id="CorelCorpID_0Corel-Layer"/>
  <path class="fil0 str0" d="M928 5350c421,0 1883,0 1883,0 153,0 279,-126 279,-279 0,0 0,-4142 0,-4142 0,-153 -126,-279 -279,-279 0,0 -1622,0 -1622,0 -153,0 -279,126 -279,279 0,0 0,4142 0,4142 0,153 126,279 279,279 0,0 69,0 178,0m802 -3579c0,93 -76,169 -169,169 -93,0 -169,-76 -169,-169 0,-94 76,-169 169,-169 93,0 169,75 169,169zm-489 -813c0,0 0,647 0,647 0,97 -79,176 -176,176 0,0 -244,0 -244,0 -97,0 -176,-79 -176,-176 0,0 0,-647 0,-647 0,-96 79,-176 176,-176 0,0 244,0 244,0 97,0 176,80 176,176z"/>
 </g>
</svg>
