<?xml version="1.0" encoding="UTF-8"?>
<!DOCTYPE svg PUBLIC "-//W3C//DTD SVG 1.1//EN" "http://www.w3.org/Graphics/SVG/1.1/DTD/svg11.dtd">
<!-- Creator: CorelDRAW X8 -->
<svg xmlns="http://www.w3.org/2000/svg" xml:space="preserve" width="40mm" height="60mm" version="1.1" style="shape-rendering:geometricPrecision; text-rendering:geometricPrecision; image-rendering:optimizeQuality; fill-rule:evenodd; clip-rule:evenodd"
viewBox="0 0 4000 6000"
 xmlns:xlink="http://www.w3.org/1999/xlink">
 <defs>
  <style type="text/css">
   <![CDATA[
    .str0 {stroke:black;stroke-width:20}
    .fil0 {fill:none}
   ]]>
  </style>
 </defs>
 <g id="图层_x0020_1">
  <metadata id="CorelCorpID_0Corel-Layer"/>
  <g id="_2920698156448">
   <path class="fil0 str0" d="M3108 5220l-794 0c-17,0 -26,-11 -26,-29l0 -144c0,-64 -53,-117 -118,-117l-340 0c-65,0 -118,53 -118,117l0 144c0,18 -17,29 -30,29l-576 0c-118,0 -214,-96 -214,-213l0 -4143c0,-118 96,-214 214,-214l1781 0c118,0 214,96 214,214l0 4143c0,117 -96,213 -214,213 -117,0 -149,109 -149,130"/>
   <path class="fil0 str0" d="M2411 792c0,-13 9,-84 46,-84 38,0 68,31 68,68 0,38 -30,68 -68,68 -37,0 -68,-30 -68,-68 0,-37 31,-68 68,-68"/>
   <path class="fil0 str0" d="M1819 777c0,-26 -12,-45 -34,-45 -21,0 -38,17 -38,38l0 0c0,22 17,39 38,39l426 0c21,0 39,-17 39,-39l0 0c0,-21 -18,-38 -39,-38l-426 0"/>
   <path class="fil0 str0" d="M1504 787c0,-9 6,-59 32,-59 27,0 48,22 48,48 0,27 -21,48 -48,48 -26,0 -48,-21 -48,-48 0,-26 22,-48 48,-48"/>
  </g>
 </g>
</svg>
