<?xml version="1.0" encoding="UTF-8"?>
<!DOCTYPE svg PUBLIC "-//W3C//DTD SVG 1.1//EN" "http://www.w3.org/Graphics/SVG/1.1/DTD/svg11.dtd">
<!-- Creator: CorelDRAW X8 -->
<svg xmlns="http://www.w3.org/2000/svg" xml:space="preserve" width="40mm" height="60mm" version="1.1" style="shape-rendering:geometricPrecision; text-rendering:geometricPrecision; image-rendering:optimizeQuality; fill-rule:evenodd; clip-rule:evenodd"
viewBox="0 0 4000 6000"
 xmlns:xlink="http://www.w3.org/1999/xlink">
 <defs>
  <style type="text/css">
   <![CDATA[
    .str0 {stroke:black;stroke-width:7.62}
    .fil0 {fill:none}
   ]]>
  </style>
 </defs>
 <g id="图层_x0020_1">
  <metadata id="CorelCorpID_0Corel-Layer"/>
  <path class="fil0 str0" d="M1983 752c-5,-19 -15,-33 -60,-33l-39 0c-20,0 -37,16 -37,37l0 0c0,20 17,36 37,36l257 0c20,0 37,-16 37,-36l0 0c0,-21 -17,-37 -37,-37l-218 0m703 -1c0,-4 -4,-8 -11,-9 -27,0 -49,22 -49,49 0,26 22,48 49,48 26,0 48,-22 48,-48 0,-27 -22,-49 -48,-49m-172 -8c-1,-5 -6,-10 -15,-11 -36,0 -65,29 -65,64 0,36 29,65 65,65 35,0 64,-29 64,-65 0,-35 -29,-64 -64,-64m-758 39c-1,-4 -4,-7 -10,-7 -22,0 -40,18 -40,40 0,22 18,40 40,40 22,0 40,-18 40,-40 0,-22 -18,-40 -40,-40m-98 7c0,-4 -3,-7 -10,-7 -22,0 -40,18 -40,40 0,22 18,40 40,40 23,0 40,-18 40,-40 0,-22 -17,-40 -40,-40m-154 -13c0,-5 -5,-9 -13,-10 -31,0 -57,25 -57,57 0,31 26,56 57,56 31,0 56,-25 56,-56 0,-32 -25,-57 -56,-57m-124 29c0,-3 -3,-6 -8,-6 -21,0 -37,16 -37,36 0,21 16,37 37,37 20,0 37,-16 37,-37 0,-20 -17,-36 -37,-36m-121 4587l1628 0c192,0 349,-157 349,-348l0 -3963c0,-191 -157,-348 -349,-348l-1520 0c-192,0 -349,157 -349,348l0 3963c0,191 157,348 349,348l33 0c33,0 62,22 79,41"/>
 </g>
</svg>
