<?xml version="1.0" encoding="UTF-8"?>
<!DOCTYPE svg PUBLIC "-//W3C//DTD SVG 1.1//EN" "http://www.w3.org/Graphics/SVG/1.1/DTD/svg11.dtd">
<!-- Creator: CorelDRAW X8 -->
<svg xmlns="http://www.w3.org/2000/svg" xml:space="preserve" width="40mm" height="60mm" version="1.1" style="shape-rendering:geometricPrecision; text-rendering:geometricPrecision; image-rendering:optimizeQuality; fill-rule:evenodd; clip-rule:evenodd"
viewBox="0 0 4000 6000"
 xmlns:xlink="http://www.w3.org/1999/xlink">
 <defs>
  <style type="text/css">
   <![CDATA[
    .str0 {stroke:black;stroke-width:7.62}
    .fil0 {fill:none}
   ]]>
  </style>
 </defs>
 <g id="图层_x0020_1">
  <metadata id="CorelCorpID_0Corel-Layer"/>
  <path class="fil0 str0" d="M1529 832c-2,-27 -26,-52 -76,-56 -176,0 -319,143 -319,319 0,176 143,319 319,319 177,0 319,-143 319,-319 0,-176 -142,-319 -319,-319m76 756c-2,-28 -26,-53 -76,-57 -176,0 -319,143 -319,319 0,177 143,319 319,319 177,0 319,-142 319,-319 0,-176 -142,-319 -319,-319m0 -721l0 0c189,0 344,155 344,344l0 694c0,189 -155,343 -344,343l0 0c-189,0 -343,-154 -343,-343l0 -694c0,-189 154,-344 343,-344zm3 -23l0 0c205,0 373,168 373,373l0 691c0,205 -168,372 -373,372l0 0c-206,0 -373,-167 -373,-372l0 -691c0,-205 167,-373 373,-373zm-450 4599l1845 0c139,0 252,-114 252,-252l0 -4176c0,-139 -113,-252 -252,-252l-1702 0c-139,0 -252,113 -252,252l0 763c0,9 0,10 3,18l27 56c5,12 6,17 6,29l0 1248c0,9 -1,13 -3,19l-29 68c-4,11 -4,19 -4,29l0 1946c0,138 113,252 252,252l80 0c22,2 38,9 48,20"/>
 </g>
</svg>
