<?xml version="1.0" encoding="UTF-8"?>
<!DOCTYPE svg PUBLIC "-//W3C//DTD SVG 1.1//EN" "http://www.w3.org/Graphics/SVG/1.1/DTD/svg11.dtd">
<!-- Creator: CorelDRAW X8 -->
<svg xmlns="http://www.w3.org/2000/svg" xml:space="preserve" width="40mm" height="53mm" version="1.1" style="shape-rendering:geometricPrecision; text-rendering:geometricPrecision; image-rendering:optimizeQuality; fill-rule:evenodd; clip-rule:evenodd"
viewBox="0 0 4000 5300"
 xmlns:xlink="http://www.w3.org/1999/xlink">
 <defs>
  <style type="text/css">
   <![CDATA[
    .str0 {stroke:#332C2B;stroke-width:7.62;stroke-linejoin:bevel}
    .fil0 {fill:none}
   ]]>
  </style>
 </defs>
 <g id="图层_x0020_1">
  <metadata id="CorelCorpID_0Corel-Layer"/>
  <path class="fil0 str0" d="M1155 4916l1652 0c136,0 247,-111 247,-247l0 -4122c0,-66 -26,-128 -73,-175 -46,-46 -109,-72 -174,-72l-179 0c-13,0 -26,4 -37,11 -11,8 -24,12 -37,12l-431 0c-35,0 -65,28 -65,64 -1,32 -27,57 -58,57 -31,0 -57,-25 -58,-57 0,-36 -30,-64 -65,-64l-431 0c-13,0 -26,-4 -37,-12 -11,-7 -24,-11 -37,-11l-179 0c-65,0 -128,26 -174,72 -47,47 -73,109 -73,175l0 4122c0,65 26,128 73,174 46,47 109,73 174,73"/>
 </g>
</svg>
