<?xml version="1.0" encoding="UTF-8"?>
<!DOCTYPE svg PUBLIC "-//W3C//DTD SVG 1.1//EN" "http://www.w3.org/Graphics/SVG/1.1/DTD/svg11.dtd">
<!-- Creator: CorelDRAW X8 -->
<svg xmlns="http://www.w3.org/2000/svg" xml:space="preserve" width="40mm" height="60mm" version="1.1" style="shape-rendering:geometricPrecision; text-rendering:geometricPrecision; image-rendering:optimizeQuality; fill-rule:evenodd; clip-rule:evenodd"
viewBox="0 0 4000 6000"
 xmlns:xlink="http://www.w3.org/1999/xlink">
 <defs>
  <style type="text/css">
   <![CDATA[
    .str0 {stroke:black;stroke-width:10}
    .fil0 {fill:none;fill-rule:nonzero}
   ]]>
  </style>
 </defs>
 <g id="图层_x0020_1">
  <metadata id="CorelCorpID_0Corel-Layer"/>
  <g id="_1436796119280">
   <path class="fil0 str0" d="M1199 840c-108,0 -197,78 -215,181l-3 0 0 -367 -185 0 77 404 0 3884 -77 367 185 0 0 -314 7 0c23,95 109,165 211,165l0 190 1602 0 0 -190c103,0 189,-71 212,-167l6 0 0 316 185 0 -77 -367 0 -3884 77 -367 -185 0 0 334 -3 0c-15,-105 -106,-185 -215,-185l0 -190 -1172 0 0 1270c0,101 -82,183 -183,183 -102,0 -184,-82 -184,-183l0 -1080 -63 0z"/>
   <path class="fil0 str0" d="M1446 2076c-86,0 -157,-70 -157,-156l0 -998 313 0 0 998c0,86 -70,156 -156,156z"/>
   <path class="fil0 str0" d="M1493 1329c0,26 -21,48 -47,48 -27,0 -48,-22 -48,-48 0,-26 21,-47 48,-47 26,0 47,21 47,47z"/>
   <path class="fil0 str0" d="M1520 1485c0,19 -15,34 -34,34l-81 0c-19,0 -34,-15 -34,-34l0 0c0,-18 15,-34 34,-34l81 0c19,0 34,16 34,34l0 0z"/>
   <path class="fil0 str0" d="M1507 1642c0,33 -28,61 -61,61 -34,0 -61,-28 -61,-61 0,-34 27,-62 61,-62 33,0 61,28 61,62z"/>
   <path class="fil0 str0" d="M1507 1927c0,34 -28,61 -61,61 -34,0 -61,-27 -61,-61 0,-34 27,-61 61,-61 33,0 61,27 61,61z"/>
   <path class="fil0 str0" d="M939 2440c0,12 -9,21 -20,21l0 0c-12,0 -21,-9 -21,-21l0 -516c0,-11 9,-20 21,-20l0 0c11,0 20,9 20,20l0 516z"/>
   <path class="fil0 str0" d="M939 2880c0,12 -9,21 -20,21l0 0c-12,0 -21,-9 -21,-21l0 -244c0,-11 9,-20 21,-20l0 0c11,0 20,9 20,20l0 244z"/>
   <path class="fil0 str0" d="M3100 1711c0,15 -12,27 -27,27l0 0c-15,0 -27,-12 -27,-27l0 -476c0,-15 12,-27 27,-27l0 0c15,0 27,12 27,27l0 476z"/>
   <path class="fil0 str0" d="M3094 2647c0,11 -10,20 -21,20l0 0c-11,0 -20,-9 -20,-20l0 -245c0,-11 9,-20 20,-20l0 0c11,0 21,9 21,20l0 245z"/>
   <path class="fil0 str0" d="M2093 5248l0 0 -30 -22c0,0 0,0 0,0 -1,-1 -3,-2 -5,-2 0,0 0,0 -1,0 0,0 0,0 0,0l-127 0c-1,0 -1,0 -1,0 0,0 -1,0 -1,0 -2,0 -3,1 -4,2 0,0 0,0 -1,0l-29 22 0 0c-2,2 -3,4 -3,6l0 30c0,4 4,8 8,8l188 0c5,0 8,-4 8,-8l0 -30c0,-2 -1,-4 -2,-6z"/>
   <path class="fil0 str0" d="M1328 5271c0,13 -11,24 -24,24 -13,0 -24,-11 -24,-24 0,-13 11,-24 24,-24 13,0 24,11 24,24z"/>
   <path class="fil0 str0" d="M1394 5271c0,13 -11,24 -24,24 -13,0 -24,-11 -24,-24 0,-13 11,-24 24,-24 13,0 24,11 24,24z"/>
   <path class="fil0 str0" d="M1460 5271c0,13 -11,24 -24,24 -13,0 -23,-11 -23,-24 0,-13 10,-24 23,-24 13,0 24,11 24,24z"/>
   <path class="fil0 str0" d="M1526 5271c0,13 -10,24 -23,24 -14,0 -24,-11 -24,-24 0,-13 10,-24 24,-24 13,0 23,11 23,24z"/>
   <path class="fil0 str0" d="M1592 5271c0,13 -10,24 -23,24 -13,0 -24,-11 -24,-24 0,-13 11,-24 24,-24 13,0 23,11 23,24z"/>
   <path class="fil0 str0" d="M2462 5271c0,11 -9,21 -21,21 -11,0 -20,-10 -20,-21 0,-11 9,-20 20,-20 12,0 21,9 21,20z"/>
   <path class="fil0 str0" d="M2678 5255c0,30 -24,54 -54,54 -31,0 -55,-24 -55,-54 0,-30 24,-54 55,-54 30,0 54,24 54,54z"/>
   <path class="fil0 str0" d="M2638 740c0,15 -12,27 -27,27 -15,0 -27,-12 -27,-27 0,-15 12,-28 27,-28 15,0 27,13 27,28z"/>
   <path class="fil0 str0" d="M2170 2190c0,68 -55,123 -122,123l-82 0c-67,0 -122,-55 -122,-123l0 -81c0,-68 55,-122 122,-122l82 0c67,0 122,54 122,122l0 81z"/>
  </g>
 </g>
</svg>
