<?xml version="1.0" encoding="UTF-8"?>
<!DOCTYPE svg PUBLIC "-//W3C//DTD SVG 1.1//EN" "http://www.w3.org/Graphics/SVG/1.1/DTD/svg11.dtd">
<!-- Creator: CorelDRAW -->
<svg xmlns="http://www.w3.org/2000/svg" xml:space="preserve" width="40mm" height="60mm" style="shape-rendering:geometricPrecision; text-rendering:geometricPrecision; image-rendering:optimizeQuality; fill-rule:evenodd; clip-rule:evenodd"
viewBox="0 0 40 60"
 xmlns:xlink="http://www.w3.org/1999/xlink">
 <defs>
  <style type="text/css">
   <![CDATA[
    .str0 {stroke:#1F1A17;stroke-width:0.194}
    .fil0 {fill:none}
   ]]>
  </style>
 </defs>
 <g id="图层_x0020_1">
  <metadata id="CorelCorpID_0Corel-Layer"/>
  <g id="_259241520">
   <path id="_259034352" class="fil0 str0" d="M30.185 53.0786c-6.1453,0.0033 -12.8176,0.0112 -18.9629,0.0145 -0.4822,-0.0144 -0.7516,-0.0931 -1.0797,-0.3159 -0.4012,-0.2716 -0.726,-0.7383 -0.8191,-1.175"/>
   <line id="_259030392" class="fil0 str0" x1="9.3233" y1="51.6022" x2="9.2512" y2= "8.5739" />
   <path id="_259837040" class="fil0 str0" d="M9.2512 8.5739c0.0366,-0.7238 0.276,-1.2182 0.7826,-1.6172 0.2815,-0.2228 0.6052,-0.3614 0.9067,-0.3891 0.2262,-0.021 2.0507,-0.0388 3.9861,-0.0388 1.3467,0 2.4197,0.0089 2.7257,0.0222"/>
   <line id="_259839560" class="fil0 str0" x1="17.6523" y1="6.551" x2="17.6877" y2= "6.5521" />
   <path id="_256228424" class="fil0 str0" d="M17.6877 6.5521c0.2095,0.01 0.2095,0.01 0.4224,0.1363"/>
   <line id="_257781512" class="fil0 str0" x1="18.1101" y1="6.6884" x2="18.1466" y2= "6.7095" />
   <path id="_256897792" class="fil0 str0" d="M18.1466 6.7095c0.0189,0.0111 0.0366,0.0211 0.0532,0.0277 0.1076,0.051 0.1408,0.0521 0.8369,0.0543 0.0588,0 0.1053,0.0011 0.1397,0.0023 0.266,0.0099 0.3082,0.0531 0.3946,0.399"/>
   <path id="_259839320" class="fil0 str0" d="M19.571 7.1928l-0.0155 0 -0.0078 0.0077 0 0.0865 0.0078 -0.0078 0.0078 0m0.0077 -0.0864z"/>
   <path id="_259839392" class="fil0 str0" d="M19.5633 7.2792c0.0177,0.204 0.2239,0.3736 0.4533,0.3736 0.2705,0 0.3969,-0.1419 0.49,-0.5542"/>
   <path id="_259839344" class="fil0 str0" d="M20.5066 7.0986l-0.0078 -0.0078 -0.0089 0 0 -0.0865m0.0167 0.0943z"/>
   <path id="_259839728" class="fil0 str0" d="M20.4899 7.0043c0.0045,0 0.0122,0.0023 0.0244,0.0078"/>
   <line id="_259839608" class="fil0 str0" x1="20.5143" y1="7.0121" x2="20.5143" y2= "6.9888" />
   <path id="_259839128" class="fil0 str0" d="M20.5143 6.9888c0.1042,-0.1751 0.1552,-0.195 0.5099,-0.2006 0.6174,-0.0111 0.6219,-0.0111 0.7061,-0.0244"/>
   <line id="_259839752" class="fil0 str0" x1="21.7303" y1="6.7638" x2="21.7536" y2= "6.7605" />
   <path id="_259839512" class="fil0 str0" d="M21.7536 6.7605c0.0454,-0.0067 0.0454,-0.0067 0.1751,-0.082"/>
   <line id="_259839584" class="fil0 str0" x1="21.9287" y1="6.6785" x2="21.9941" y2= "6.6408" />
   <path id="_259839536" class="fil0 str0" d="M21.9941 6.6408c0.1153,-0.0677 0.1751,-0.082 0.3735,-0.092 0.5265,-0.0278 2.2469,-0.0488 3.9528,-0.0488 2.933,0 3.0605,0.0133 3.5737,0.3647 0.4057,0.2782 0.7249,0.736 0.8192,1.1761"/>
   <line id="_259839824" class="fil0 str0" x1="30.7133" y1="8.0408" x2="30.7487" y2= "50.9992" />
   <path id="_259839152" class="fil0 str0" d="M30.7487 50.9992c-0.0133,0.5431 -0.0343,0.6673 -0.1562,0.9444 -0.3093,0.6983 -0.8137,1.0331 -1.7259,1.1417"/>
   <line id="_259839200" class="fil0 str0" x1="28.8666" y1="53.0853" x2="28.6892" y2= "53.1208" />
   <path id="_259837016" class="fil0 str0" d="M28.6892 53.1208c-0.1763,0.0532 -0.2416,0.1131 -0.4146,0.3791"/>
  </g>
 </g>
</svg>
