<?xml version="1.0" encoding="UTF-8"?>
<!DOCTYPE svg PUBLIC "-//W3C//DTD SVG 1.1//EN" "http://www.w3.org/Graphics/SVG/1.1/DTD/svg11.dtd">
<!-- Creator: CorelDRAW 2021 (64-Bit) -->
<svg xmlns="http://www.w3.org/2000/svg" xml:space="preserve" width="40mm" height="60mm" version="1.1" style="shape-rendering:geometricPrecision; text-rendering:geometricPrecision; image-rendering:optimizeQuality; fill-rule:evenodd; clip-rule:evenodd"
viewBox="0 0 4000 6000"
 xmlns:xlink="http://www.w3.org/1999/xlink"
 xmlns:xodm="http://www.corel.com/coreldraw/odm/2003">
 <defs>
  <style type="text/css">
   <![CDATA[
    .str0 {stroke:#E72D28;stroke-width:20;stroke-miterlimit:22.9256}
    .str1 {stroke:black;stroke-width:20;stroke-linecap:round;stroke-linejoin:round;stroke-miterlimit:22.9256}
    .fil0 {fill:none}
   ]]>
  </style>
   <clipPath id="id0">
    <rect x="-34784.39" y="-4829.68" width="12938.1" height="15158.57"/>
   </clipPath>
 </defs>
 <g id="图层_x0020_1">
  <metadata id="CorelCorpID_0Corel-Layer"/>
  <g style="clip-path:url(#id0)">
   <image x="-34784.39" y="-4829.68" width="12938.1" height="15158.58" xlink:href="i10+-11i（背膜）_Images\i10+-11i（背膜）_ImgID1.png"/>
  </g>
  <rect class="fil0 str0" x="-34280.02" y="-4552.49" width="7250" height="14600"/>
  <rect class="fil0 str0" x="-34078.1" y="-4470.54" width="6802.24" height="14411.4" rx="800" ry="919.88"/>
  <rect class="fil0 str1" x="-33578.43" y="-4132.75" width="2579.35" height="1000.25" rx="777.08" ry="800"/>
  <circle class="fil0 str1" cx="-30536.94" cy="-949.38" r="594.41"/>
  <rect class="fil0 str1" x="-31587" y="8577.11" width="2119.73" height="234.94" rx="800" ry="689.53"/>
  <path class="fil0 str1" d="M-2450.67 6449.87l0 -6021.24c0,-439.99 -360.01,-800 -800,-800l-12811.4 0c-440,0 -800,360 -800,800l0 5202.24c0,440 360,800 800,800l12811.4 0c440,0 800,-360 800,-800 0,-440 146.31,-1187.87 400.56,-1442.11"/>
  <path class="fil0 str1" d="M-16524.27 5431.07c0,275.07 225.05,500.12 500.12,500.12l0.01 0c275.07,0 500.12,-225.05 500.12,-500.12l0 -1579.11c0,-275.07 -225.05,-500.12 -500.12,-500.12l-0.01 0c-275.07,0 -500.12,225.05 -500.12,500.12l0 1579.11c0,0 27.25,-1065.16 234.57,-1171.03"/>
  <path class="fil0 str1" d="M-13935.32 2889.71c0,328.28 266.13,594.41 594.41,594.41 328.28,0 594.41,-266.13 594.41,-594.41 0,-328.28 -266.13,-594.41 -594.41,-594.41 -328.28,0 -594.41,266.13 -594.41,594.41 0,328.28 327.75,436.43 390.72,436.43"/>
  <path class="fil0 str1" d="M-3814.42 3822.29c0,64.61 52.86,117.47 117.47,117.47l0 0c64.61,0 117.47,-52.86 117.47,-117.47l0 -1884.79c0,-64.61 -52.86,-117.47 -117.47,-117.47l0 0c-64.61,0 -117.47,52.86 -117.47,117.47l0 1884.79c0,0 17.47,-373.99 83.5,-444.97"/>
  <g id="_2948705487040">
   <path class="fil0 str1" d="M911.17 5228.57l1910.61 0c139.61,0 253.85,-114.24 253.85,-253.85l0 -4065.2c0,-139.62 -114.23,-253.85 -253.85,-253.85l-1650.73 0c-139.62,0 -253.85,114.23 -253.85,253.85l0 4065.2c0,139.62 114.23,253.85 253.85,253.85 139.62,0 376.92,46.42 457.6,127.1"/>
   <path class="fil0 str1" d="M1234.45 762.86c-87.29,0 -158.7,71.41 -158.7,158.69l0 0c0,87.29 71.41,158.7 158.7,158.7l501.07 0c87.28,0 158.69,-71.41 158.69,-158.7l0 0c0,-87.28 -71.41,-158.69 -158.69,-158.69l-501.07 0c0,0 337.99,8.64 371.58,74.43"/>
   <path class="fil0 str1" d="M2040.85 1584.36c-104.17,0 -188.61,84.45 -188.61,188.61 0,104.17 84.44,188.62 188.61,188.62 104.17,0 188.61,-84.45 188.61,-188.62 0,-104.16 -84.44,-188.61 -188.61,-188.61 -104.17,0 -138.48,104 -138.48,123.98"/>
   <path class="fil0 str1" d="M1744.93 4795.83c-20.5,0 -37.27,16.78 -37.27,37.28l0 0c0,20.5 16.77,37.27 37.27,37.27l598.07 0c20.5,0 37.27,-16.77 37.27,-37.27l0 0c0,-20.5 -16.77,-37.28 -37.27,-37.28l-598.07 0c0,0 118.67,5.55 141.2,26.5"/>
  </g>
 </g>
</svg>
