<?xml version="1.0" encoding="UTF-8"?>
<!DOCTYPE svg PUBLIC "-//W3C//DTD SVG 1.1//EN" "http://www.w3.org/Graphics/SVG/1.1/DTD/svg11.dtd">
<!-- Creator: CorelDRAW X8 -->
<svg xmlns="http://www.w3.org/2000/svg" xml:space="preserve" width="40mm" height="60mm" version="1.1" style="shape-rendering:geometricPrecision; text-rendering:geometricPrecision; image-rendering:optimizeQuality; fill-rule:evenodd; clip-rule:evenodd"
viewBox="0 0 4000 6000"
 xmlns:xlink="http://www.w3.org/1999/xlink">
 <defs>
  <style type="text/css">
   <![CDATA[
    .str0 {stroke:#222222;stroke-width:20}
    .fil0 {fill:none}
   ]]>
  </style>
 </defs>
 <g id="图层_x0020_1">
  <metadata id="CorelCorpID_0Corel-Layer"/>
  <path class="fil0 str0" d="M-12245 6726l0 -6355c0,-440 -360,-800 -800,-800l-14436 0c-440,0 -800,360 -800,800l0 2499 314 0c119,0 216,97 216,216l0 0c0,118 -97,215 -216,215l-314 0 0 2535c0,440 360,800 800,800l14436 0c440,0 800,-360 800,-800 0,-440 234,-697 353,-697"/>
  <path class="fil0 str0" d="M974 5249l1823 0c126,0 229,-103 229,-230l0 -4140c0,-126 -103,-229 -229,-229l-717 0 0 90c0,34 -28,62 -62,62l0 0c-34,0 -62,-28 -62,-62l0 -90 -727 0c-126,0 -229,103 -229,229l0 4140c0,127 103,230 229,230 126,0 200,67 200,101"/>
 </g>
</svg>
