<?xml version="1.0" encoding="UTF-8"?>
<!DOCTYPE svg PUBLIC "-//W3C//DTD SVG 1.1//EN" "http://www.w3.org/Graphics/SVG/1.1/DTD/svg11.dtd">
<!-- Creator: CorelDRAW X8 -->
<svg xmlns="http://www.w3.org/2000/svg" xml:space="preserve" width="40mm" height="60mm" version="1.1" style="shape-rendering:geometricPrecision; text-rendering:geometricPrecision; image-rendering:optimizeQuality; fill-rule:evenodd; clip-rule:evenodd"
viewBox="0 0 4000 6000"
 xmlns:xlink="http://www.w3.org/1999/xlink">
 <defs>
  <style type="text/css">
   <![CDATA[
    .str0 {stroke:black;stroke-width:7.62}
    .fil0 {fill:none}
   ]]>
  </style>
 </defs>
 <g id="图层_x0020_1">
  <metadata id="CorelCorpID_0Corel-Layer"/>
  <path class="fil0 str0" d="M1019 5350l1799 0c129,0 235,-106 235,-236l0 -4228c0,-130 -106,-236 -235,-236l-483 0c-1,0 -2,0 -2,1l-5 7c-2,2 -3,2 -5,2l-225 0c-20,0 -27,7 -27,28l0 32c0,37 -31,67 -68,67l0 0c-37,0 -67,-30 -67,-67l0 -29c0,-24 -10,-31 -25,-31l-222 0c-2,0 -2,0 -4,-2l-6 -6c-1,-2 -1,-2 -3,-2l-494 0c-129,0 -235,106 -235,236l0 4228c0,130 106,236 235,236l177 0"/>
 </g>
</svg>
