<?xml version="1.0" encoding="UTF-8"?>
<!DOCTYPE svg PUBLIC "-//W3C//DTD SVG 1.1//EN" "http://www.w3.org/Graphics/SVG/1.1/DTD/svg11.dtd">
<!-- Creator: CorelDRAW X8 -->
<svg xmlns="http://www.w3.org/2000/svg" xml:space="preserve" width="40mm" height="60mm" version="1.1" style="shape-rendering:geometricPrecision; text-rendering:geometricPrecision; image-rendering:optimizeQuality; fill-rule:evenodd; clip-rule:evenodd"
viewBox="0 0 4000 6000"
 xmlns:xlink="http://www.w3.org/1999/xlink">
 <defs>
  <style type="text/css">
   <![CDATA[
    .str0 {stroke:black;stroke-width:10.56}
    .fil0 {fill:none}
   ]]>
  </style>
 </defs>
 <g id="图层_x0020_1">
  <metadata id="CorelCorpID_0Corel-Layer"/>
  <g id="vivo-X50-半.cdr">
   <path class="fil0 str0" d="M3138 5079c0,150 -122,271 -272,271l-1732 0c-150,0 -272,-121 -272,-271l-104 0c-9,0 -15,-7 -15,-15l0 -4128c0,-8 6,-15 15,-15l104 0c0,-150 122,-271 272,-271l1732 0c150,0 272,121 272,271l104 0c9,0 15,7 15,15l0 4128c0,8 -6,15 -15,15l-104 0z"/>
   <path class="fil0 str0" d="M1081 2015l0 -1114c0,-48 39,-86 87,-86l290 0c48,0 87,38 87,86l0 1114c0,48 -39,87 -87,87l-290 0c-48,0 -87,-39 -87,-87z"/>
   <path class="fil0 str0" d="M1096 1986l0 -110c0,-16 13,-29 28,-29l378 0c15,0 28,13 28,29l0 110c0,48 -38,86 -85,86l-264 0c-47,0 -85,-38 -85,-86z"/>
   <path class="fil0 str0" d="M1103 1750l0 -831c0,-41 34,-74 75,-74l270 0c41,0 75,33 75,74l0 831c0,41 -34,75 -75,75l-270 0c-41,0 -75,-34 -75,-75z"/>
   <path class="fil0 str0" d="M1313 1211c-87,0 -157,-70 -157,-157 0,-87 70,-157 157,-157 87,0 157,70 157,157 0,87 -70,157 -157,157z"/>
   <path class="fil0 str0" d="M1313 1515c-66,0 -120,-54 -120,-120 0,-66 54,-119 120,-119 66,0 120,53 120,119 0,66 -54,120 -120,120z"/>
   <path class="fil0 str0" d="M1313 1797c-66,0 -120,-54 -120,-120 0,-66 54,-120 120,-120 66,0 120,54 120,120 0,66 -54,120 -120,120z"/>
   <path class="fil0 str0" d="M1154 1992l0 -80c0,-11 9,-20 20,-20l80 0c11,0 20,9 20,20l0 80c0,11 -9,20 -20,20l-80 0c-11,0 -20,-9 -20,-20z"/>
   <path class="fil0 str0" d="M1671 1530l0 -218c0,-18 15,-33 33,-33l8 0c18,0 34,15 34,33l0 218c0,18 -16,33 -34,33l-8 0c-18,0 -33,-15 -33,-33z"/>
   <path class="fil0 str0" d="M788 2379l0 -554c0,-12 10,-22 22,-22l0 0c12,0 22,10 22,22l0 554c0,12 -10,22 -22,22l0 0c-12,0 -22,-10 -22,-22z"/>
   <path class="fil0 str0" d="M788 2828l0 -270c0,-12 10,-22 22,-22l0 0c12,0 22,10 22,22l0 270c0,12 -10,22 -22,22l0 0c-12,0 -22,-10 -22,-22z"/>
  </g>
 </g>
</svg>
