<?xml version="1.0" encoding="UTF-8"?>
<!DOCTYPE svg PUBLIC "-//W3C//DTD SVG 1.1//EN" "http://www.w3.org/Graphics/SVG/1.1/DTD/svg11.dtd">
<!-- Creator: CorelDRAW X8 -->
<svg xmlns="http://www.w3.org/2000/svg" xml:space="preserve" width="40mm" height="60mm" version="1.1" style="shape-rendering:geometricPrecision; text-rendering:geometricPrecision; image-rendering:optimizeQuality; fill-rule:evenodd; clip-rule:evenodd"
viewBox="0 0 4000 6000"
 xmlns:xlink="http://www.w3.org/1999/xlink">
 <defs>
  <style type="text/css">
   <![CDATA[
    .str0 {stroke:black;stroke-width:7.62}
    .fil0 {fill:none}
   ]]>
  </style>
 </defs>
 <g id="图层_x0020_1">
  <metadata id="CorelCorpID_0Corel-Layer"/>
  <path class="fil0 str0" d="M2465 1461c-20,5 -35,16 -35,63l0 41c0,22 17,39 39,39l0 0c21,0 39,-17 39,-39l0 -265c0,-21 -18,-39 -39,-39l0 0c-22,0 -39,18 -39,39l0 224m-411 -271c-1,-5 -5,-10 -15,-11 -32,0 -59,27 -59,60 0,33 27,59 59,59 33,0 60,-26 60,-59 0,-33 -27,-60 -60,-60m-1130 4108l2043 0c149,0 272,-122 272,-272l0 -4156c0,-150 -123,-272 -272,-272l-1834 0c-149,0 -272,122 -272,272l0 217c0,4 1,5 4,7l12 9c2,2 2,2 2,5l0 270c0,9 2,8 -4,15l-10 12c-3,3 -4,5 -4,10l0 3611c0,150 123,272 272,272l222 0m623 -4255l166 0c76,0 138,62 138,138l0 411c0,75 -62,137 -138,137l-166 0c-75,0 -137,-62 -137,-137l0 -411c0,-76 62,-138 137,-138zm-6 39l172 0c50,0 91,41 91,91l0 413c0,50 -41,90 -91,90l-172 0c-50,0 -91,-40 -91,-90l0 -413c0,-50 41,-91 91,-91zm100 385c0,-6 -5,-11 -16,-12 -37,0 -68,30 -68,68 0,37 31,68 68,68 38,0 68,-31 68,-68 0,-38 -30,-68 -68,-68"/>
 </g>
</svg>
