<?xml version="1.0" encoding="UTF-8"?>
<!DOCTYPE svg PUBLIC "-//W3C//DTD SVG 1.1//EN" "http://www.w3.org/Graphics/SVG/1.1/DTD/svg11.dtd">
<!-- Creator: CorelDRAW X8 -->
<svg xmlns="http://www.w3.org/2000/svg" xml:space="preserve" width="40mm" height="60mm" version="1.1" style="shape-rendering:geometricPrecision; text-rendering:geometricPrecision; image-rendering:optimizeQuality; fill-rule:evenodd; clip-rule:evenodd"
viewBox="0 0 4000 6000"
 xmlns:xlink="http://www.w3.org/1999/xlink">
 <defs>
  <style type="text/css">
   <![CDATA[
    .str0 {stroke:black;stroke-width:7.62}
    .fil0 {fill:none}
   ]]>
  </style>
 </defs>
 <g id="图层_x0020_1">
  <metadata id="CorelCorpID_0Corel-Layer"/>
  <path class="fil0 str0" d="M2233 864c0,-3 -3,-6 -8,-6 -19,0 -35,15 -35,35 0,19 16,34 35,34 19,0 35,-15 35,-34 0,-20 -16,-35 -35,-35m8 188c0,-3 -3,-6 -8,-7 -19,0 -35,16 -35,35 0,20 16,35 35,35 19,0 35,-15 35,-35 0,-19 -16,-35 -35,-35m-584 82c-15,4 -25,9 -25,34l0 21c0,29 23,53 53,53l0 0c29,0 53,-24 53,-53l0 -139c0,-30 -24,-54 -53,-54l0 0c-30,0 -53,24 -53,54l0 118m79 166c-1,-10 -10,-19 -27,-20 -63,0 -114,51 -114,114 0,62 51,113 114,113 63,0 114,-51 114,-113 0,-63 -51,-114 -114,-114m-317 -351c-1,-12 -11,-23 -33,-24 -75,0 -136,61 -136,136 0,76 61,137 136,137 76,0 137,-61 137,-137 0,-75 -61,-136 -137,-136m30 373c-1,-12 -11,-22 -33,-24 -75,0 -136,61 -136,137 0,75 61,136 136,136 76,0 137,-61 137,-136 0,-76 -61,-137 -137,-137m-31 -365l418 0c65,0 118,53 118,118l0 420c0,65 -53,118 -118,118l-418 0c-65,0 -118,-53 -118,-118l0 -420c0,-65 53,-118 118,-118zm68 734c-1,-12 -12,-24 -34,-25 -80,0 -144,64 -144,144 0,79 64,144 144,144 79,0 144,-65 144,-144 0,-80 -65,-144 -144,-144m34 387c-1,-12 -12,-23 -34,-25 -80,0 -144,65 -144,144 0,80 64,144 144,144 79,0 144,-64 144,-144 0,-79 -65,-144 -144,-144m-175 -452l2 0c7,35 38,61 74,61l544 0c37,0 68,-26 75,-61l1 0 0 630c0,72 -58,131 -130,131l-435 0c-72,0 -131,-59 -131,-131l0 -630zm93 -694l501 0c76,0 137,61 137,136l0 1233c0,75 -61,137 -137,137l-501 0c-75,0 -137,-62 -137,-137l0 -1233c0,-75 62,-136 137,-136zm1112 3948l269 0c13,0 24,11 24,24l0 136c0,13 -11,24 -24,24l-269 0c-13,0 -24,-11 -24,-24l0 -136c0,-13 11,-24 24,-24zm-1279 541l1729 0c35,0 45,-2 66,-20l177 -147c36,-29 36,-39 36,-92l0 -4181c0,-29 -6,-41 -23,-59l-177 -143c-36,-29 -48,-32 -106,-32l-1534 0c-50,0 -70,4 -99,29l-194 173c-15,14 -21,23 -21,46l0 4195c0,29 6,45 22,59l172 149c21,19 35,23 63,23 32,0 51,8 73,26"/>
 </g>
</svg>
