<?xml version="1.0" encoding="UTF-8"?>
<!DOCTYPE svg PUBLIC "-//W3C//DTD SVG 1.1//EN" "http://www.w3.org/Graphics/SVG/1.1/DTD/svg11.dtd">
<!-- Creator: CorelDRAW X8 -->
<svg xmlns="http://www.w3.org/2000/svg" xml:space="preserve" width="40mm" height="60mm" version="1.1" style="shape-rendering:geometricPrecision; text-rendering:geometricPrecision; image-rendering:optimizeQuality; fill-rule:evenodd; clip-rule:evenodd"
viewBox="0 0 4000 6000"
 xmlns:xlink="http://www.w3.org/1999/xlink">
 <defs>
  <style type="text/css">
   <![CDATA[
    .str0 {stroke:#332C2B;stroke-width:10;stroke-linecap:round;stroke-linejoin:round}
    .fil0 {fill:none;fill-rule:nonzero}
   ]]>
  </style>
 </defs>
 <g id="图层_x0020_1">
  <metadata id="CorelCorpID_0Corel-Layer"/>
  <g id="_2929713898992">
   <g>
    <line class="fil0 str0" x1="3250" y1="650" x2="3250" y2= "683" />
    <polyline class="fil0 str0" points="2999,5033 2999,5044 3002,5044 "/>
    <path class="fil0 str0" d="M3002 5044c11,52 30,98 72,183 16,31 18,36 24,58"/>
    <polyline class="fil0 str0" points="3098,5285 3090,5284 3084,5294 3082,5293 3082,5292 3081,5291 3081,5291 "/>
    <path class="fil0 str0" d="M3081 5291c-50,36 -95,59 -116,59"/>
    <line class="fil0 str0" x1="2965" y1="5350" x2="2963" y2= "5350" />
    <path class="fil0 str0" d="M2963 5350c-8,0 -8,0 -41,-17"/>
    <line class="fil0 str0" x1="2922" y1="5333" x2="2910" y2= "5327" />
    <path class="fil0 str0" d="M2910 5327c-71,-38 -159,-58 -249,-58"/>
    <line class="fil0 str0" x1="2661" y1="5269" x2="1340" y2= "5269" />
    <path class="fil0 str0" d="M1340 5269c-1,0 -3,0 -4,0 -95,0 -185,22 -265,65"/>
    <line class="fil0 str0" x1="1071" y1="5334" x2="1048" y2= "5345" />
    <path class="fil0 str0" d="M1048 5345c-6,3 -12,5 -18,5 -24,0 -66,-23 -133,-73"/>
    <polyline class="fil0 str0" points="897,5277 898,5275 899,5275 900,5275 900,5274 894,5264 896,5264 897,5263 902,5263 "/>
    <path class="fil0 str0" d="M902 5263c62,-114 74,-147 107,-276"/>
    <polyline class="fil0 str0" points="1009,4987 1000,4989 996,4993 "/>
    <path class="fil0 str0" d="M996 4993c0,2 -1,4 -1,5"/>
    <polyline class="fil0 str0" points="995,4998 997,5005 1002,5009 "/>
    <path class="fil0 str0" d="M1002 5009c-47,129 -56,143 -149,233"/>
    <polyline class="fil0 str0" points="853,5242 852,5241 852,5240 851,5239 844,5243 844,5242 844,5239 836,5239 836,5234 837,5234 837,5233 831,5230 832,5228 832,5227 833,5226 828,5221 829,5220 830,5220 831,5219 "/>
    <path class="fil0 str0" d="M831 5219c-60,-111 -85,-205 -85,-317"/>
    <line class="fil0 str0" x1="746" y1="4902" x2="748" y2= "1115" />
    <path class="fil0 str0" d="M748 1115c1,-61 18,-140 51,-239"/>
    <polyline class="fil0 str0" points="799,876 796,876 800,877 804,871 805,872 806,873 808,874 808,876 814,873 814,873 815,874 815,875 822,873 822,879 828,881 828,879 827,883 843,892 "/>
    <path class="fil0 str0" d="M843 892c32,18 32,18 40,24"/>
    <line class="fil0 str0" x1="883" y1="916" x2="887" y2= "919" />
    <path class="fil0 str0" d="M887 919c57,46 97,124 122,242"/>
    <polyline class="fil0 str0" points="1009,1161 1015,1157 1017,1151 1016,1144 1011,1139 1004,1139 "/>
    <path class="fil0 str0" d="M1004 1139c-19,-106 -57,-183 -132,-261 -21,-23 -24,-27 -35,-46 1,-1 3,-1 6,-1 1,0 2,0 3,0"/>
    <line class="fil0 str0" x1="846" y1="831" x2="846" y2= "830" />
    <path class="fil0 str0" d="M846 830c57,-64 101,-95 144,-102"/>
    <polyline class="fil0 str0" points="990,728 989,734 994,737 994,738 993,738 993,738 992,739 996,743 996,744 995,744 "/>
    <path class="fil0 str0" d="M995 744c36,51 102,125 201,228"/>
    <polyline class="fil0 str0" points="1196,972 1199,965 1198,959 1194,954 1187,952 1181,954 "/>
    <path class="fil0 str0" d="M1181 954c-71,-80 -100,-124 -160,-243"/>
    <polyline class="fil0 str0" points="1021,711 1022,711 1023,710 1024,710 1022,703 1028,703 1029,697 1028,697 1030,697 1033,699 1038,693 "/>
    <path class="fil0 str0" d="M1038 693c0,1 2,3 3,4"/>
    <polyline class="fil0 str0" points="1041,697 1047,694 1047,695 1047,696 1047,697 "/>
    <path class="fil0 str0" d="M1047 697c57,-20 225,-37 365,-37 38,0 55,2 68,8"/>
    <line class="fil0 str0" x1="1480" y1="668" x2="1480" y2= "667" />
    <path class="fil0 str0" d="M1480 667c-2,3 -4,6 -7,8"/>
    <polyline class="fil0 str0" points="1473,675 1473,714 1476,714 1479,723 1480,723 1480,722 1481,722 1482,721 1487,729 1489,727 1489,727 1490,726 1490,725 1498,730 "/>
    <path class="fil0 str0" d="M1498 730c0,-1 1,-2 1,-2"/>
    <polyline class="fil0 str0" points="1499,728 1499,725 1499,726 1507,728 1507,725 1507,726 1511,726 1511,724 1520,722 1520,720 1519,719 1519,718 1518,718 1525,713 1524,711 1524,711 1523,710 1522,710 1527,702 "/>
    <path class="fil0 str0" d="M1527 702c-1,0 -2,-1 -2,-1"/>
    <polyline class="fil0 str0" points="1525,701 1522,701 1523,701 1525,692 1522,692 "/>
    <path class="fil0 str0" d="M1522 692c0,-1 0,-1 0,-2 0,-15 2,-22 10,-38"/>
    <polyline class="fil0 str0" points="1532,652 1534,652 1534,653 1536,654 1538,657 "/>
    <path class="fil0 str0" d="M1538 657c171,-3 267,-4 458,-4 161,0 237,2 473,13"/>
    <polyline class="fil0 str0" points="2469,666 2469,668 2468,669 2467,670 2463,672 "/>
    <path class="fil0 str0" d="M2463 672c0,5 0,9 0,12"/>
    <line class="fil0 str0" x1="2463" y1="684" x2="2463" y2= "686" />
    <path class="fil0 str0" d="M2463 686c0,31 0,31 44,55"/>
    <polyline class="fil0 str0" points="2507,741 2509,742 2509,738 2509,739 2513,739 2513,736 2514,736 "/>
    <path class="fil0 str0" d="M2514 736c18,-12 19,-14 23,-49 2,-11 3,-16 8,-32"/>
    <polyline class="fil0 str0" points="2545,655 2547,655 2548,657 2549,657 2551,661 "/>
    <path class="fil0 str0" d="M2551 661c147,3 278,16 420,41"/>
    <polyline class="fil0 str0" points="2971,702 2971,701 2970,705 2976,708 2974,710 2974,711 2973,712 2977,718 2976,719 2975,719 2974,720 2973,720 2974,725 2968,725 2967,732 2966,731 2964,731 "/>
    <path class="fil0 str0" d="M2964 731c-52,103 -80,144 -163,241"/>
    <polyline class="fil0 str0" points="2801,972 2797,965 2798,959 2802,954 2809,952 2816,954 2823,948 "/>
    <path class="fil0 str0" d="M2823 948c83,-86 83,-86 183,-211"/>
    <polyline class="fil0 str0" points="3006,737 3014,727 3015,727 3015,728 3016,728 3016,729 3021,725 3022,725 3022,725 3022,726 3027,724 3027,725 3028,725 3028,730 "/>
    <path class="fil0 str0" d="M3028 730c74,51 78,54 130,122"/>
    <line class="fil0 str0" x1="3158" y1="852" x2="3149" y2= "851" />
    <path class="fil0 str0" d="M3149 851c-89,98 -116,144 -139,236"/>
    <polyline class="fil0 str0" points="3010,1087 2988,1161 2981,1157 2980,1151 2980,1144 2984,1140 2993,1139 "/>
    <path class="fil0 str0" d="M2993 1139c12,-64 25,-98 59,-153 35,-56 50,-69 137,-113"/>
    <polyline class="fil0 str0" points="3189,873 3189,873 3190,874 3190,875 3197,873 3197,879 3203,881 3203,879 3203,882 "/>
    <path class="fil0 str0" d="M3203 882c0,0 -1,1 -1,2"/>
    <polyline class="fil0 str0" points="3202,884 3207,887 3207,888 "/>
    <path class="fil0 str0" d="M3207 888c-1,1 -3,2 -4,4"/>
    <polyline class="fil0 str0" points="3203,892 3206,897 3205,897 3204,898 "/>
    <path class="fil0 str0" d="M3204 898c35,109 43,160 44,275"/>
    <polyline class="fil0 str0" points="3248,1173 3248,1379 3245,1379 3242,1389 "/>
    <path class="fil0 str0" d="M3242 1389c-3,-1 -5,-3 -6,-4"/>
    <line class="fil0 str0" x1="3236" y1="1385" x2="3227" y2= "1392" />
    <path class="fil0 str0" d="M3227 1392c0,-1 -1,-2 -1,-3"/>
    <polyline class="fil0 str0" points="3226,1389 3225,1388 3225,1387 3205,1391 3205,1392 3206,1393 3206,1394 3196,1399 3197,1400 3197,1401 3198,1401 3189,1409 3190,1410 3191,1410 3193,1411 3188,1420 3189,1420 3191,1421 3189,1432 3188,1432 3191,1432 3190,1805 "/>
    <path class="fil0 str0" d="M3190 1805c-1,88 0,116 4,138"/>
    <polyline class="fil0 str0" points="3194,1943 3198,1943 3198,1942 3203,1951 3205,1950 3206,1950 3207,1949 3215,1956 3216,1956 3216,1955 3216,1954 3216,1953 3226,1957 3227,1956 3227,1954 3227,1956 3248,1960 3248,1959 3248,1961 "/>
    <path class="fil0 str0" d="M3248 1961c-1,1 -1,1 -2,3"/>
    <polyline class="fil0 str0" points="3246,1964 3254,1969 3253,1971 "/>
    <path class="fil0 str0" d="M3253 1971c-1,1 -3,2 -4,3"/>
    <polyline class="fil0 str0" points="3249,1974 3252,1985 3248,1985 3250,4906 "/>
    <path class="fil0 str0" d="M3250 4906c0,115 -26,204 -95,333"/>
    <polyline class="fil0 str0" points="3155,5239 3154,5239 3153,5239 3153,5238 3153,5238 3148,5243 3145,5241 3145,5239 3138,5243 "/>
    <path class="fil0 str0" d="M3138 5243c-1,-2 -1,-4 -1,-5 0,-1 0,-2 0,-3"/>
    <polyline class="fil0 str0" points="3137,5235 3137,5237 3130,5236 3130,5235 3131,5232 3125,5229 3126,5227 3126,5226 3127,5225 3127,5226 "/>
    <path class="fil0 str0" d="M3127 5226c-79,-75 -94,-100 -141,-239"/>
    <polyline class="fil0 str0" points="2986,4987 2994,4987 3000,4992 "/>
    <path class="fil0 str0" d="M3000 4992c0,3 1,5 0,7 1,1 0,3 0,6"/>
    <polyline class="fil0 str0" points="3000,5005 2993,5009 3011,5074 3011,5076 "/>
    <polyline class="fil0 str0" points="1784,1745 1787,1756 1784,1756 1783,2123 "/>
    <path class="fil0 str0" d="M1783 2123c0,123 1,135 13,164 18,43 58,76 105,86 15,3 62,5 110,5 106,0 145,-17 182,-79 2,-2 4,-4 7,-8 12,-15 12,-15 12,-365"/>
    <line class="fil0 str0" x1="2212" y1="1926" x2="2211" y2= "1278" />
    <path class="fil0 str0" d="M2211 1278c0,-32 0,-39 -3,-50 -14,-54 -59,-98 -114,-109 -11,-3 -39,-4 -81,-4 -137,0 -164,9 -204,66 -19,26 -24,47 -25,92"/>
    <line class="fil0 str0" x1="1784" y1="1273" x2="1784" y2= "1788" />
    <polyline class="fil0 str0" points="2182,1416 2183,1427 2189,1424 2193,1419 2193,1412 2189,1406 2182,1405 2182,1319 "/>
    <path class="fil0 str0" d="M2182 1319c0,-86 -10,-115 -53,-147 -31,-22 -55,-27 -140,-27 -74,0 -101,8 -133,36 -41,37 -46,61 -46,224 0,110 3,147 13,170 4,-2 5,-4 7,-7"/>
    <polyline class="fil0 str0" points="1830,1568 1830,1569 2082,1572 "/>
    <path class="fil0 str0" d="M2082 1572c61,1 87,-2 106,-11"/>
    <polyline class="fil0 str0" points="2188,1561 2188,1559 2186,1558 2185,1556 2182,1554 2183,1372 "/>
    <path class="fil0 str0" d="M1814 1914c0,-238 1,-256 10,-318"/>
    <polyline class="fil0 str0" points="1824,1596 1827,1598 1828,1599 1830,1600 1831,1603 "/>
    <path class="fil0 str0" d="M1831 1603c83,-1 167,-2 250,-3 61,0 86,2 106,10"/>
    <line class="fil0 str0" x1="2187" y1="1610" x2="2187" y2= "1609" />
    <path class="fil0 str0" d="M2187 1609c-2,3 -4,6 -7,8"/>
    <line class="fil0 str0" x1="2180" y1="1617" x2="2179" y2= "2179" />
    <path class="fil0 str0" d="M2179 2179c-3,56 -41,103 -93,116"/>
    <line class="fil0 str0" x1="2086" y1="2295" x2="2056" y2= "2303" />
    <path class="fil0 str0" d="M2056 2303c-10,0 -19,-4 -54,-24 -11,-6 -18,-10 -25,-12 -9,-4 -16,-6 -21,-6"/>
    <line class="fil0 str0" x1="1956" y1="2261" x2="1953" y2= "2261" />
    <path class="fil0 str0" d="M1953 2261c-6,-1 -6,-1 -21,21"/>
    <line class="fil0 str0" x1="1932" y1="2282" x2="1924" y2= "2293" />
    <path class="fil0 str0" d="M1924 2293c-4,5 -6,7 -10,7 -16,0 -61,-33 -77,-57"/>
    <line class="fil0 str0" x1="1837" y1="2243" x2="1836" y2= "2242" />
    <path class="fil0 str0" d="M1836 2242c-23,-34 -23,-34 -23,-248"/>
    <polyline class="fil0 str0" points="1813,1994 1813,1790 1814,1870 "/>
    <line class="fil0 str0" x1="1997" y1="2051" x2="1997" y2= "2040" />
    <path class="fil0 str0" d="M1997 2040c7,0 11,5 11,11"/>
    <line class="fil0 str0" x1="2008" y1="2051" x2="2052" y2= "2051" />
    <path class="fil0 str0" d="M2052 2051c65,0 88,-8 105,-40 6,-11 9,-27 11,-53"/>
    <polyline class="fil0 str0" points="2168,1958 2166,1958 2166,1956 2166,1956 "/>
    <path class="fil0 str0" d="M2166 1956c-8,-44 -41,-70 -87,-70"/>
    <line class="fil0 str0" x1="2079" y1="1886" x2="1961" y2= "1890" />
    <path class="fil0 str0" d="M1961 1890c-13,0 -21,0 -28,0 -10,0 -18,0 -31,-1 -1,0 -2,0 -4,0 -38,0 -63,32 -71,89"/>
    <polyline class="fil0 str0" points="1827,1978 1825,1978 1828,1978 1828,1980 1830,1980 "/>
    <path class="fil0 str0" d="M1830 1980c1,39 38,70 84,70 32,-1 24,-1 56,-1"/>
    <line class="fil0 str0" x1="1970" y1="2049" x2="1984" y2= "2048" />
    <path class="fil0 str0" d="M1984 2048c24,0 47,2 57,3"/>
    <polyline class="fil0 str0" points="1998,1528 2009,1528 2009,1527 "/>
    <path class="fil0 str0" d="M2009 1527c80,-2 143,-70 143,-153 0,-87 -69,-156 -155,-156 -87,0 -156,69 -156,156 0,85 69,155 152,155 11,0 20,-1 47,-5"/>
    <path class="fil0 str0" d="M2329 1442c37,0 69,-32 69,-68 0,-39 -30,-69 -68,-69 -39,0 -69,30 -69,68 0,38 30,68 68,68 5,0 10,0 26,-2"/>
   </g>
  </g>
 </g>
</svg>
