<?xml version="1.0" encoding="UTF-8"?>
<!DOCTYPE svg PUBLIC "-//W3C//DTD SVG 1.1//EN" "http://www.w3.org/Graphics/SVG/1.1/DTD/svg11.dtd">
<!-- Creator: CorelDRAW X8 -->
<svg xmlns="http://www.w3.org/2000/svg" xml:space="preserve" width="40mm" height="60mm" version="1.1" style="shape-rendering:geometricPrecision; text-rendering:geometricPrecision; image-rendering:optimizeQuality; fill-rule:evenodd; clip-rule:evenodd"
viewBox="0 0 4000 6000"
 xmlns:xlink="http://www.w3.org/1999/xlink">
 <defs>
  <style type="text/css">
   <![CDATA[
    .str0 {stroke:#222222;stroke-width:20}
    .fil0 {fill:none}
   ]]>
  </style>
 </defs>
 <g id="图层_x0020_1">
  <metadata id="CorelCorpID_0Corel-Layer"/>
  <g id="_2564295525440">
   <path class="fil0 str0" d="M1104 5350c0,-22 -76,-80 -186,-80 -110,0 -201,-90 -201,-200l0 -4219c0,-111 91,-201 201,-201l2186 0c110,0 200,90 200,201l0 4219c0,110 -90,200 -200,200l-2408 0"/>
   <path class="fil0 str0" d="M2109 896c0,-80 -140,-138 -182,-138 -41,0 -75,34 -75,76l0 171c0,41 34,75 75,75l172 0c42,0 76,-34 76,-75l0 -171c0,-42 -34,-76 -76,-76l-172 0"/>
   <path class="fil0 str0" d="M2290 923c0,-24 -46,-52 -61,-52 -14,0 -26,12 -26,26l0 54c0,14 12,26 26,26l53 0c14,0 26,-12 26,-26l0 -54c0,-14 -12,-26 -26,-26l-53 0"/>
   <path class="fil0 str0" d="M2691 4866c0,-105 -138,-117 -152,-117 -14,0 -25,12 -25,25l0 162c0,13 11,25 25,25l426 0c14,0 26,-12 26,-25l0 -162c0,-13 -12,-25 -26,-25l-426 0"/>
  </g>
  <path class="fil0 str0" d="M-22943 12549c0,-89 -303,-319 -743,-319 -440,0 -800,-360 -800,-800l0 -16834c0,-440 360,-800 800,-800l8721 0c440,0 800,360 800,800l0 16834c0,440 -360,800 -800,800l-9608 0"/>
  <path class="fil0 str0" d="M-18935 -5225c0,-317 -559,-547 -724,-547 -165,0 -300,135 -300,300l0 683c0,165 135,300 300,300l687 0c165,0 300,-135 300,-300l0 -683c0,-165 -135,-300 -300,-300l-687 0"/>
  <path class="fil0 str0" d="M-18212 -5115c0,-95 -185,-208 -242,-208 -56,0 -103,47 -103,103l0 216c0,57 47,103 103,103l211 0c57,0 103,-46 103,-103l0 -216c0,-56 -46,-103 -103,-103l-211 0"/>
  <path class="fil0 str0" d="M-16612 10617c0,-417 -551,-465 -606,-465 -55,0 -100,45 -100,100l0 643c0,55 45,100 100,100l1702 0c55,0 100,-45 100,-100l0 -643c0,-55 -45,-100 -100,-100l-1702 0"/>
 </g>
</svg>
