<?xml version="1.0" encoding="UTF-8"?>
<!DOCTYPE svg PUBLIC "-//W3C//DTD SVG 1.1//EN" "http://www.w3.org/Graphics/SVG/1.1/DTD/svg11.dtd">
<!-- Creator: CorelDRAW 2021 (64-Bit) -->
<svg xmlns="http://www.w3.org/2000/svg" xml:space="preserve" width="40mm" height="60mm" version="1.1" style="shape-rendering:geometricPrecision; text-rendering:geometricPrecision; image-rendering:optimizeQuality; fill-rule:evenodd; clip-rule:evenodd"
viewBox="0 0 4000 6000"
 xmlns:xlink="http://www.w3.org/1999/xlink"
 xmlns:xodm="http://www.corel.com/coreldraw/odm/2003">
 <defs>
  <style type="text/css">
   <![CDATA[
    .str0 {stroke:black;stroke-width:20;stroke-linejoin:bevel;stroke-miterlimit:22.9256}
    .fil0 {fill:none}
   ]]>
  </style>
 </defs>
 <g id="图层_x0020_1">
  <metadata id="CorelCorpID_0Corel-Layer"/>
  <path class="fil0 str0" d="M1030.85 5275.66l1752.78 0c169.19,0 307.63,-138.44 307.63,-307.64l0 -4010.38c0,-169.2 -138.43,-307.64 -307.63,-307.64l-579.77 0c-31.3,0 -48.48,11.68 -48.48,51.23l0 946.73c0,170.2 -139.26,309.46 -309.47,309.46l-891.78 0c-25.84,0 -45.39,10.24 -45.39,48.09l0 2962.51c0,169.2 138.44,307.64 307.63,307.64l107.53 0c87.59,0 193.3,31.24 233.78,74.34"/>
 </g>
</svg>
