<?xml version="1.0" encoding="UTF-8"?>
<!DOCTYPE svg PUBLIC "-//W3C//DTD SVG 1.1//EN" "http://www.w3.org/Graphics/SVG/1.1/DTD/svg11.dtd">
<!-- Creator: CorelDRAW 2020 (64-Bit) -->
<svg xmlns="http://www.w3.org/2000/svg" xml:space="preserve" width="40mm" height="60mm" version="1.1" style="shape-rendering:geometricPrecision; text-rendering:geometricPrecision; image-rendering:optimizeQuality; fill-rule:evenodd; clip-rule:evenodd"
viewBox="0 0 4000 6000"
 xmlns:xlink="http://www.w3.org/1999/xlink"
 xmlns:xodm="http://www.corel.com/coreldraw/odm/2003">
 <defs>
  <style type="text/css">
   <![CDATA[
    .str1 {stroke:#332C2B;stroke-width:20;stroke-miterlimit:22.9256}
    .str0 {stroke:#E62129;stroke-width:20;stroke-miterlimit:22.9256}
    .fil0 {fill:none}
   ]]>
  </style>
   <clipPath id="id0">
    <rect x="-47612.93" y="-4096.59" width="12503.75" height="16767.71"/>
   </clipPath>
 </defs>
 <g id="图层_x0020_1">
  <metadata id="CorelCorpID_0Corel-Layer"/>
  <g style="clip-path:url(#id0)">
   <image x="-47612.93" y="-4096.59" width="12503.75" height="16767.71" xlink:href="Nova Y61 -11i（前膜全屏）_Images\Nova Y61 -11i（前膜全屏）_ImgID1.png"/>
  </g>
  <rect class="fil0 str0" x="-43368.58" y="-3852.16" width="7580" height="16430"/>
  <path class="fil0 str0" d="M-42313.59 -3635.2l1066.49 0c64.41,0 65.56,79.05 110.52,79.05l1183.19 0c60.47,-1.69 52.62,66.03 52.62,101.23 0,193.62 156.96,350.58 350.58,350.58 193.62,0 350.58,-156.96 350.58,-350.58 0,-35.2 -2.81,-100.27 38.64,-101.23l1204.7 0c44.96,0 46.76,-79.05 100.59,-79.05l1012.12 0c495.01,0 900.01,405.01 900.01,900l0 14267.84c0,495 -405,900 -900.01,900l-5470.03 0c-495,0 -900,-405 -900,-900l0 -14267.84c0,-495 405,-900 900,-900z"/>
  <path class="fil0 str1" d="M-5580.32 6537.12l0 -5993.91c0,-494.99 -405.02,-900.01 -900,-900.01l-14267.84 0c-494.99,0 -900,405 -900,900.01l0 1012.12c0,53.83 79.05,55.63 79.05,100.59l0 1204.7c0.96,41.45 66.03,38.64 101.23,38.64 193.62,0 350.58,156.96 350.58,350.58 0,193.62 -156.96,350.58 -350.58,350.58 -35.2,0 -102.92,-7.85 -101.23,52.62l0 1183.19c0,44.96 -79.05,46.11 -79.05,110.52l0 1066.49c0,495 405,900 900,900l14267.84 0c495,0 900,-405 900,-900 0,-495 89.99,-700.56 172.01,-801.11"/>
  <path class="fil0 str1" d="M1049.71 5300.75l1734.7 0c143.26,0 260.48,-117.22 260.48,-260.47l0 -4129.28c0,-143.25 -117.22,-260.47 -260.48,-260.47l-292.92 0c-15.58,0 -16.1,22.88 -29.11,22.88l-348.65 0c-12,0.28 -11.18,19.11 -11.18,29.3 0,56.03 -45.43,101.46 -101.47,101.46 -56.03,0 -101.46,-45.43 -101.46,-101.46 0,-10.19 2.27,-29.79 -15.23,-29.3l-342.43 0c-13.01,0 -13.34,-22.88 -31.98,-22.88l-308.66 0c-143.25,0 -260.47,117.21 -260.47,260.47l0 4129.28c0,143.26 117.22,260.47 260.47,260.47 143.26,0 202.75,26.04 231.86,49.78"/>
 </g>
</svg>
