<?xml version="1.0" encoding="UTF-8"?>
<!DOCTYPE svg PUBLIC "-//W3C//DTD SVG 1.1//EN" "http://www.w3.org/Graphics/SVG/1.1/DTD/svg11.dtd">
<!-- Creator: CorelDRAW X8 -->
<svg xmlns="http://www.w3.org/2000/svg" xml:space="preserve" width="40mm" height="60mm" version="1.1" style="shape-rendering:geometricPrecision; text-rendering:geometricPrecision; image-rendering:optimizeQuality; fill-rule:evenodd; clip-rule:evenodd"
viewBox="0 0 4000 6000"
 xmlns:xlink="http://www.w3.org/1999/xlink">
 <defs>
  <style type="text/css">
   <![CDATA[
    .str0 {stroke:#332C2B;stroke-width:20}
    .fil0 {fill:none}
   ]]>
  </style>
 </defs>
 <g id="图层_x0020_1">
  <metadata id="CorelCorpID_0Corel-Layer"/>
  <g id="_2801199207280">
   <rect class="fil0 str0" x="866" y="650" width="2268" height="4700" rx="186" ry="265"/>
   <path class="fil0 str0" d="M1828 914c16,-4 27,-10 27,-37l0 -22c0,-30 -25,-55 -56,-55l0 0c-30,0 -55,25 -55,55l0 105c0,31 25,56 55,56l0 0c31,0 56,-25 56,-56l0 -83"/>
   <path class="fil0 str0" d="M1396 831c-11,-38 -25,-67 -91,-67l-55 0c-77,0 -139,63 -139,139l0 0c0,77 62,140 139,140l263 0c76,0 139,-63 139,-140l0 0c0,-76 -63,-139 -139,-139l-208 0"/>
  </g>
 </g>
</svg>
