<?xml version="1.0" encoding="UTF-8"?>
<!DOCTYPE svg PUBLIC "-//W3C//DTD SVG 1.1//EN" "http://www.w3.org/Graphics/SVG/1.1/DTD/svg11.dtd">
<!-- Creator: CorelDRAW X8 -->
<svg xmlns="http://www.w3.org/2000/svg" xml:space="preserve" width="40mm" height="60mm" version="1.1" style="shape-rendering:geometricPrecision; text-rendering:geometricPrecision; image-rendering:optimizeQuality; fill-rule:evenodd; clip-rule:evenodd"
viewBox="0 0 4000 6000"
 xmlns:xlink="http://www.w3.org/1999/xlink">
 <defs>
  <style type="text/css">
   <![CDATA[
    .str0 {stroke:black;stroke-width:7.62}
    .fil0 {fill:none}
   ]]>
  </style>
 </defs>
 <g id="图层_x0020_1">
  <metadata id="CorelCorpID_0Corel-Layer"/>
  <path class="fil0 str0" d="M981 5350l1864 0c114,0 208,-94 208,-208l0 -4284c0,-114 -94,-208 -208,-208l-432 0c-4,0 -5,1 -6,3l-4 8c-1,2 -3,3 -6,3l-313 0c-15,0 -21,7 -21,21l0 14c0,38 -32,70 -70,70l0 0c-38,0 -70,-32 -70,-70l0 -14c0,-15 -4,-21 -25,-21l-303 0c-4,0 -5,0 -6,-2l-7 -10c-1,-1 -2,-2 -4,-2l-423 0c-114,0 -208,94 -208,208l0 4284c0,114 94,208 208,208l99 0"/>
 </g>
</svg>
