<?xml version="1.0" encoding="UTF-8"?>
<!DOCTYPE svg PUBLIC "-//W3C//DTD SVG 1.1//EN" "http://www.w3.org/Graphics/SVG/1.1/DTD/svg11.dtd">
<!-- Creator: CorelDRAW 2020 (64-Bit) -->
<svg xmlns="http://www.w3.org/2000/svg" xml:space="preserve" width="40mm" height="60mm" version="1.1" style="shape-rendering:geometricPrecision; text-rendering:geometricPrecision; image-rendering:optimizeQuality; fill-rule:evenodd; clip-rule:evenodd"
viewBox="0 0 4000 6000"
 xmlns:xlink="http://www.w3.org/1999/xlink"
 xmlns:xodm="http://www.corel.com/coreldraw/odm/2003">
 <defs>
  <style type="text/css">
   <![CDATA[
    .str0 {stroke:black;stroke-width:7.62;stroke-miterlimit:22.9256}
    .fil0 {fill:none}
   ]]>
  </style>
 </defs>
 <g id="图层_x0020_1">
  <metadata id="CorelCorpID_0Corel-Layer"/>
  <path class="fil0 str0" d="M-15812.17 5521.78l0 -1896c0,-372.33 -307.73,-676.99 -683.81,-676.99l-2132.38 0c-376.09,0 -683.81,304.65 -683.81,676.99l0 1596.02c0,372.34 307.72,676.99 683.81,676.99l2132.38 0c376.09,0 683.81,-304.65 683.81,-676.99l0 -121.15c0,0 8.99,-271.28 93.32,-347.9m-93.32 -2978.95l0 -1896c0,-372.33 -307.73,-676.99 -683.81,-676.99l-2132.38 0c-376.09,0 -683.81,304.65 -683.81,676.99l0 1596.02c0,372.34 307.72,676.99 683.81,676.99l2132.38 0c376.09,0 683.81,-304.65 683.81,-676.99l0 -121.15c0,0 8.99,-271.28 93.32,-347.9m3875.43 4517.01l0 -1896c0,-372.33 -307.73,-676.99 -683.81,-676.99l-2132.38 0c-376.09,0 -683.81,304.65 -683.81,676.99l0 1596.02c0,372.34 307.72,676.99 683.81,676.99l2132.38 0c376.09,0 683.81,-304.65 683.81,-676.99l0 -121.15c0,0 8.99,-271.28 93.32,-347.9m3875.43 769.03l0 -1896c0,-372.33 -307.73,-676.99 -683.81,-676.99l-2132.38 0c-376.09,0 -683.81,304.65 -683.81,676.99l0 1596.02c0,372.34 307.72,676.99 683.81,676.99l2132.38 0c376.09,0 683.81,-304.65 683.81,-676.99l0 -121.15c0,0 8.99,-271.28 93.32,-347.9m-4062.07 -2978.95l0 -1896c0,-372.33 -307.73,-676.99 -683.81,-676.99l-2132.38 0c-376.09,0 -683.81,304.65 -683.81,676.99l0 1596.02c0,372.34 307.72,676.99 683.81,676.99l2132.38 0c376.09,0 683.81,-304.65 683.81,-676.99l0 -121.15c0,0 8.99,-271.28 93.32,-347.9m3875.43 769.03l0 -1896c0,-372.33 -307.73,-676.99 -683.81,-676.99l-2132.38 0c-376.09,0 -683.81,304.65 -683.81,676.99l0 1596.02c0,372.34 307.72,676.99 683.81,676.99l2132.38 0c376.09,0 683.81,-304.65 683.81,-676.99l0 -121.15c0,0 8.99,-271.28 93.32,-347.9"/>
  <path class="fil0 str0" d="M788.61 2076.61l772.82 0c151.76,0 275.94,-125.43 275.94,-278.72l0 -869.17c0,-153.29 -124.18,-278.72 -275.94,-278.72l-650.55 0c-151.76,0 -275.94,125.43 -275.94,278.72l0 869.17c0,153.29 124.18,278.72 275.94,278.72l49.38 0c0,0 110.58,3.67 141.81,38.04m1214.23 -38.04l772.82 0c151.76,0 275.94,-125.43 275.94,-278.72l0 -869.17c0,-153.29 -124.18,-278.72 -275.94,-278.72l-650.55 0c-151.76,0 -275.94,125.43 -275.94,278.72l0 869.17c0,153.29 124.18,278.72 275.94,278.72l49.38 0c0,0 110.58,3.67 141.81,38.04m-1841.15 1579.64l772.82 0c151.76,0 275.94,-125.43 275.94,-278.73l0 -869.16c0,-153.3 -124.18,-278.72 -275.94,-278.72l-650.55 0c-151.76,0 -275.94,125.42 -275.94,278.72l0 869.16c0,153.3 124.18,278.73 275.94,278.73l49.38 0c0,0 110.58,3.66 141.81,38.03m-313.46 1579.64l772.82 0c151.76,0 275.94,-125.43 275.94,-278.72l0 -869.17c0,-153.29 -124.18,-278.72 -275.94,-278.72l-650.55 0c-151.76,0 -275.94,125.43 -275.94,278.72l0 869.17c0,153.29 124.18,278.72 275.94,278.72l49.38 0c0,0 110.58,3.67 141.81,38.04m1214.23 -1655.71l772.82 0c151.76,0 275.94,-125.43 275.94,-278.73l0 -869.16c0,-153.3 -124.18,-278.72 -275.94,-278.72l-650.55 0c-151.76,0 -275.94,125.42 -275.94,278.72l0 869.16c0,153.3 124.18,278.73 275.94,278.73l49.38 0c0,0 110.58,3.66 141.81,38.03m-313.46 1579.64l772.82 0c151.76,0 275.94,-125.43 275.94,-278.72l0 -869.17c0,-153.29 -124.18,-278.72 -275.94,-278.72l-650.55 0c-151.76,0 -275.94,125.43 -275.94,278.72l0 869.17c0,153.29 124.18,278.72 275.94,278.72l49.38 0c0,0 110.58,3.67 141.81,38.04"/>
 </g>
</svg>
