<?xml version="1.0" encoding="UTF-8"?>
<!DOCTYPE svg PUBLIC "-//W3C//DTD SVG 1.1//EN" "http://www.w3.org/Graphics/SVG/1.1/DTD/svg11.dtd">
<!-- Creator: CorelDRAW X8 -->
<svg xmlns="http://www.w3.org/2000/svg" xml:space="preserve" width="40mm" height="60mm" version="1.1" style="shape-rendering:geometricPrecision; text-rendering:geometricPrecision; image-rendering:optimizeQuality; fill-rule:evenodd; clip-rule:evenodd"
viewBox="0 0 4000 6000"
 xmlns:xlink="http://www.w3.org/1999/xlink">
 <defs>
  <style type="text/css">
   <![CDATA[
    .str0 {stroke:black;stroke-width:7.62}
    .fil0 {fill:none}
   ]]>
  </style>
 </defs>
 <g id="图层_x0020_1">
  <metadata id="CorelCorpID_0Corel-Layer"/>
  <path class="fil0 str0" d="M1636 732c0,-2 -2,-4 -6,-4 -13,0 -24,11 -24,24 0,14 11,24 24,24 14,0 24,-10 24,-24 0,-13 -10,-24 -24,-24m274 567c-17,4 -29,10 -29,39l0 24c0,33 27,60 61,60l0 0c33,0 60,-27 60,-60l0 -115c0,-34 -27,-61 -60,-61l0 0c-34,0 -61,27 -61,61l0 91m-347 -106c0,-7 -6,-13 -19,-14 -44,0 -80,36 -80,81 0,44 36,80 80,80 45,0 81,-36 81,-80 0,-45 -36,-81 -81,-81m0 -184c146,0 265,118 265,265 0,146 -119,264 -265,264 -146,0 -264,-118 -264,-264 0,-147 118,-265 264,-265zm11 596c0,-4 -4,-7 -10,-8 -24,0 -43,19 -43,43 0,24 19,43 43,43 23,0 43,-19 43,-43 0,-24 -20,-43 -43,-43m296 -208c5,0 8,3 8,8l0 476c0,9 -6,10 -11,1 -57,-100 -165,-168 -288,-168 -124,0 -231,69 -288,169 -3,4 -5,6 -12,6 -5,0 -8,-4 -8,-8l0 -476c0,-5 5,-13 9,-4 52,108 163,183 291,183 128,0 239,-75 291,-184 1,-3 3,-3 8,-3zm-275 545c-1,-7 -7,-13 -19,-14 -45,0 -81,36 -81,80 0,45 36,81 81,81 44,0 80,-36 80,-81 0,-44 -36,-80 -80,-80m0 -186c147,0 266,119 266,266 0,147 -119,266 -266,266 -147,0 -266,-119 -266,-266 0,-147 119,-266 266,-266zm0 -784l0 0c183,0 333,150 333,333l0 693c0,183 -150,333 -333,333l0 0c-183,0 -333,-150 -333,-333l0 -693c0,-183 150,-333 333,-333zm-137 4269c-4,-15 -13,-27 -51,-27l-32 0c-17,0 -31,14 -31,31l0 0c0,17 14,31 31,31l293 0c17,0 31,-14 31,-31l0 0c0,-17 -14,-31 -31,-31l-261 0m656 7c-3,-13 -8,-23 -30,-23l-19 0c-26,0 -47,21 -47,47l0 0c0,26 21,47 47,47l156 0c26,0 47,-21 47,-47l0 0c0,-26 -21,-47 -47,-47l-137 0m285 33c0,-3 -2,-5 -6,-5 -15,0 -27,12 -27,27 0,15 12,27 27,27 15,0 27,-12 27,-27 0,-15 -12,-27 -27,-27m180 -1c-3,-11 -8,-20 -28,-20l-17 0c-24,0 -43,19 -43,43l0 0c0,23 19,43 43,43l320 0c23,0 43,-20 43,-43l0 0c0,-24 -20,-43 -43,-43l-303 0m565 -4345l137 0c4,0 8,3 8,8l0 4281c0,5 -4,8 -8,8l-137 0c-5,0 -11,-4 -8,-8 36,-51 72,-92 72,-170l0 -11 -13 0 0 6c0,86 -68,157 -152,162l0 14c55,0 100,45 100,100l0 0c0,56 -45,101 -100,101l-1692 0c-56,0 -101,-45 -101,-101l0 0c0,-55 45,-100 101,-100l0 -15c-81,-9 -144,-78 -144,-161l0 -6 -19 0 0 11c0,78 36,119 72,170 3,4 -3,8 -8,8l-137 0c-4,0 -8,-3 -8,-8l0 -2235c0,-9 5,-12 14,-12l33 0c17,0 32,-14 32,-32l0 -917c0,-17 -15,-32 -32,-32l-29 0c-12,0 -18,-4 -18,-24l0 -1029c0,-5 4,-8 8,-8l137 0c5,0 11,5 8,8 -48,47 -72,108 -72,177l19 0 0 -17c0,-83 63,-152 144,-161l0 -15c-56,0 -101,-45 -101,-100l0 0c0,-56 45,-101 101,-101l1692 0c55,0 100,45 100,101l0 0c0,53 -42,97 -94,100 -5,1 -6,2 -6,5l0 5c0,3 0,4 4,4 83,7 148,77 148,162l0 17 13 0c0,-69 -24,-130 -72,-177 -3,-3 3,-8 8,-8z"/>
 </g>
</svg>
