<?xml version="1.0" encoding="UTF-8"?>
<!DOCTYPE svg PUBLIC "-//W3C//DTD SVG 1.1//EN" "http://www.w3.org/Graphics/SVG/1.1/DTD/svg11.dtd">
<!-- Creator: CorelDRAW X8 -->
<svg xmlns="http://www.w3.org/2000/svg" xml:space="preserve" width="40mm" height="60mm" version="1.1" style="shape-rendering:geometricPrecision; text-rendering:geometricPrecision; image-rendering:optimizeQuality; fill-rule:evenodd; clip-rule:evenodd"
viewBox="0 0 4000 6000"
 xmlns:xlink="http://www.w3.org/1999/xlink">
 <defs>
  <style type="text/css">
   <![CDATA[
    .str0 {stroke:black;stroke-width:7.62}
    .fil0 {fill:none}
   ]]>
  </style>
 </defs>
 <g id="图层_x0020_1">
  <metadata id="CorelCorpID_0Corel-Layer"/>
  <path class="fil0 str0" d="M977 5350l1947 0c73,0 133,-60 133,-133l0 -4404c0,-90 -73,-163 -163,-163l-1788 0c-90,0 -163,73 -163,163l0 4404c0,73 60,133 133,133l123 0m820 -4627c-1,-4 -4,-9 -13,-9 -29,0 -52,23 -52,52 0,29 23,53 52,53 29,0 53,-24 53,-53 0,-29 -24,-52 -53,-52"/>
 </g>
</svg>
