<?xml version="1.0" encoding="UTF-8"?>
<!DOCTYPE svg PUBLIC "-//W3C//DTD SVG 1.1//EN" "http://www.w3.org/Graphics/SVG/1.1/DTD/svg11.dtd">
<!-- Creator: CorelDRAW X8 -->
<svg xmlns="http://www.w3.org/2000/svg" xml:space="preserve" width="40mm" height="60mm" version="1.1" style="shape-rendering:geometricPrecision; text-rendering:geometricPrecision; image-rendering:optimizeQuality; fill-rule:evenodd; clip-rule:evenodd"
viewBox="0 0 4000 6000"
 xmlns:xlink="http://www.w3.org/1999/xlink">
 <defs>
  <style type="text/css">
   <![CDATA[
    .str0 {stroke:black;stroke-width:7.62}
    .fil0 {fill:none}
   ]]>
  </style>
 </defs>
 <g id="图层_x0020_1">
  <metadata id="CorelCorpID_0Corel-Layer"/>
  <path class="fil0 str0" d="M1046 5350l1784 0c107,0 194,-87 194,-193l0 -4314c0,-106 -87,-193 -194,-193l-1660 0c-107,0 -194,87 -194,193l0 4314c0,106 87,193 194,193l188 0m-184 -4574c0,-5 -5,-9 -14,-10 -33,0 -59,26 -59,59 0,33 26,60 59,60 33,0 60,-27 60,-60 0,-33 -27,-59 -60,-59"/>
 </g>
</svg>
