<?xml version="1.0" encoding="UTF-8"?>
<!DOCTYPE svg PUBLIC "-//W3C//DTD SVG 1.1//EN" "http://www.w3.org/Graphics/SVG/1.1/DTD/svg11.dtd">
<!-- Creator: CorelDRAW X8 -->
<svg xmlns="http://www.w3.org/2000/svg" xml:space="preserve" width="40mm" height="60mm" version="1.1" style="shape-rendering:geometricPrecision; text-rendering:geometricPrecision; image-rendering:optimizeQuality; fill-rule:evenodd; clip-rule:evenodd"
viewBox="0 0 4000 6000"
 xmlns:xlink="http://www.w3.org/1999/xlink">
 <defs>
  <style type="text/css">
   <![CDATA[
    .str0 {stroke:black;stroke-width:7.62}
    .fil0 {fill:none}
   ]]>
  </style>
 </defs>
 <g id="图层_x0020_1">
  <metadata id="CorelCorpID_0Corel-Layer"/>
  <path class="fil0 str0" d="M2023 1635c-1,-12 -11,-23 -32,-24 -74,0 -134,60 -134,135 0,74 60,134 134,134 75,0 135,-60 135,-134 0,-75 -60,-135 -135,-135m1 -283c230,0 417,186 417,416 0,231 -187,417 -417,417 -230,0 -417,-186 -417,-417 0,-230 187,-416 417,-416zm0 -28c245,0 444,199 444,444 0,246 -199,445 -444,445 -246,0 -444,-199 -444,-445 0,-245 198,-444 444,-444zm15 1005c-3,-12 -8,-21 -28,-21l-18 0c-24,0 -43,20 -43,44l0 0c0,24 19,44 43,44l75 0c24,0 44,-20 44,-44l0 0c0,-24 -20,-44 -44,-44l-57 0m-344 -114c-1,-2 -3,-5 -7,-5 -16,0 -29,13 -29,29 0,16 13,29 29,29 16,0 29,-13 29,-29 0,-16 -13,-29 -29,-29m364 -1148c54,0 106,9 158,14 54,6 154,74 110,178 -20,49 -30,100 10,140l12 12c42,43 110,40 154,-2 72,-70 157,-35 187,12 21,33 35,69 50,106 18,47 -9,144 -90,144 -61,0 -110,49 -110,110l0 16c0,61 45,103 109,108 76,6 119,89 92,156 -105,268 -373,461 -682,461 -306,0 -573,-188 -681,-455 -27,-68 19,-137 90,-153 61,-14 110,-57 110,-110l0 -17c0,-60 -46,-102 -107,-104 -59,-3 -118,-76 -98,-131 17,-50 40,-96 67,-140 28,-46 109,-49 161,3 42,43 112,39 156,-2l11 -9c38,-36 41,-93 16,-136 -43,-75 -2,-150 57,-168 69,-22 142,-33 218,-33zm0 -74c442,0 801,359 801,801 0,443 -359,801 -801,801 -442,0 -801,-358 -801,-801 0,-442 359,-801 801,-801zm-1050 4407l2005 0c95,0 174,-77 175,-172l35 0c5,0 9,-4 9,-9l-15 -4338c0,-5 -4,-9 -9,-9l-35 0c-2,-95 -79,-172 -175,-172l-1879 0c-95,0 -173,77 -175,172l-35 0c-5,0 -9,4 -9,9l0 980c0,8 3,12 13,12l12 0c17,0 32,14 32,32l0 515c0,18 -15,32 -32,32l-17 0c-5,0 -8,2 -8,10l0 133c0,7 4,9 9,9l16 0c17,0 32,15 32,32l0 216c0,17 -15,32 -32,32l-17 0c-5,0 -8,1 -8,6l0 2329c0,5 4,9 9,9l35 0c2,95 80,172 175,172l28 0"/>
 </g>
</svg>
