<?xml version="1.0" encoding="UTF-8"?>
<!DOCTYPE svg PUBLIC "-//W3C//DTD SVG 1.1//EN" "http://www.w3.org/Graphics/SVG/1.1/DTD/svg11.dtd">
<!-- Creator: CorelDRAW 2020 (64-Bit) -->
<svg xmlns="http://www.w3.org/2000/svg" xml:space="preserve" width="40mm" height="60mm" version="1.1" style="shape-rendering:geometricPrecision; text-rendering:geometricPrecision; image-rendering:optimizeQuality; fill-rule:evenodd; clip-rule:evenodd"
viewBox="0 0 4000 6000"
 xmlns:xlink="http://www.w3.org/1999/xlink"
 xmlns:xodm="http://www.corel.com/coreldraw/odm/2003">
 <defs>
  <style type="text/css">
   <![CDATA[
    .str0 {stroke:#332C2B;stroke-width:20;stroke-miterlimit:22.9256}
    .fil0 {fill:none}
   ]]>
  </style>
   <clipPath id="id0">
    <rect x="-70899.34" y="-6896.59" width="27274.58" height="19873.18"/>
   </clipPath>
 </defs>
 <g id="图层_x0020_1">
  <metadata id="CorelCorpID_0Corel-Layer"/>
  <g style="clip-path:url(#id0)">
   <image transform="matrix(764.867 -11.3949 8.22221 551.904 -70899.3 -6494.58)" x="0" y="0" width="35.28" height="35.28" xlink:href="iPhone14 -11i（背膜）（Casetify）1_Images\iPhone14 -11i（背膜）（Casetify）1_ImgID1.png"/>
  </g>
  <path class="fil0 str0" d="M-49651.05 -4304.45l2044.47 0c715,0 1300,585.01 1300,1300l0 12216.7c0,715 -585,1300 -1300,1300l-4787.51 0c-714.98,0 -1300,-585 -1300,-1300l0 -9617.43c0,-196.37 222.36,-181.82 367.48,-181.82l2361.42 0c605,0 1100,-495 1100,-1100l0 -2276.76c0,-118.79 -21.81,-340.69 214.14,-340.69z"/>
  <path class="fil0 str0" d="M-8580.43 6083.04l0 -5263.77c0,-714.98 -585.02,-1300 -1300,-1300l-12216.7 0c-714.99,0 -1300,585 -1300,1300l0 2044.47c0,235.95 221.9,214.14 340.69,214.14l2276.76 0c605,0 1100,495 1100,1100l0 2361.42c0,145.12 -14.55,367.48 181.82,367.48l9617.43 0c715,0 1300,-585.02 1300,-1300 0,-714.98 112.42,-1067.9 218.26,-1222.69"/>
  <path class="fil0 str0" d="M2103.67 650.53l648.52 0c226.81,0 412.37,185.57 412.37,412.37l0 3875.26c0,226.8 -185.56,412.37 -412.37,412.37l-1518.64 0c-226.8,0 -412.38,-185.57 -412.38,-412.37l0 -3050.74c0,-62.29 70.54,-57.68 116.57,-57.68l749.07 0c191.91,0 348.93,-157.02 348.93,-348.93l0 -722.21c0,-37.68 -6.92,-108.07 67.93,-108.07z"/>
 </g>
</svg>
