<?xml version="1.0" encoding="UTF-8"?>
<!DOCTYPE svg PUBLIC "-//W3C//DTD SVG 1.1//EN" "http://www.w3.org/Graphics/SVG/1.1/DTD/svg11.dtd">
<!-- Creator: CorelDRAW X8 -->
<svg xmlns="http://www.w3.org/2000/svg" xml:space="preserve" width="40mm" height="60mm" version="1.1" style="shape-rendering:geometricPrecision; text-rendering:geometricPrecision; image-rendering:optimizeQuality; fill-rule:evenodd; clip-rule:evenodd"
viewBox="0 0 4000 6000"
 xmlns:xlink="http://www.w3.org/1999/xlink">
 <defs>
  <style type="text/css">
   <![CDATA[
    .str0 {stroke:#332C2B;stroke-width:19.4}
    .fil0 {fill:none;fill-rule:nonzero}
   ]]>
  </style>
 </defs>
 <g id="图层_x0020_1">
  <metadata id="CorelCorpID_0Corel-Layer"/>
  <g id="_3074031613664">
   <line class="fil0 str0" x1="1119" y1="5349" x2="2146" y2= "5350" />
   <path class="fil0 str0" d="M2146 5350c237,0 474,0 710,-1 96,-3 165,-48 202,-132 15,-34 17,-43 17,-98"/>
   <line class="fil0 str0" x1="3075" y1="5119" x2="3084" y2= "1637" />
   <path class="fil0 str0" d="M3084 1637c1,-640 0,-750 -13,-814 -16,-85 -99,-165 -180,-172"/>
   <line class="fil0 str0" x1="2891" y1="651" x2="1194" y2= "650" />
   <path class="fil0 str0" d="M1194 650c-82,0 -108,2 -130,10 -72,25 -121,77 -145,156 -3,10 -3,19 -3,60"/>
   <line class="fil0 str0" x1="916" y1="876" x2="919" y2= "5180" />
   <path class="fil0 str0" d="M919 5180c5,29 33,79 60,105 33,34 73,53 122,60 10,1 19,3 27,5"/>
  </g>
 </g>
</svg>
