<?xml version="1.0" encoding="UTF-8"?>
<!DOCTYPE svg PUBLIC "-//W3C//DTD SVG 1.1//EN" "http://www.w3.org/Graphics/SVG/1.1/DTD/svg11.dtd">
<!-- Creator: CorelDRAW X8 -->
<svg xmlns="http://www.w3.org/2000/svg" xml:space="preserve" width="40mm" height="60mm" version="1.1" style="shape-rendering:geometricPrecision; text-rendering:geometricPrecision; image-rendering:optimizeQuality; fill-rule:evenodd; clip-rule:evenodd"
viewBox="0 0 4000 6000"
 xmlns:xlink="http://www.w3.org/1999/xlink">
 <defs>
  <style type="text/css">
   <![CDATA[
    .str0 {stroke:black;stroke-width:7.62}
    .fil0 {fill:none}
   ]]>
  </style>
 </defs>
 <g id="图层_x0020_1">
  <metadata id="CorelCorpID_0Corel-Layer"/>
  <path class="fil0 str0" d="M957 5350l1888 0c141,0 256,-116 256,-257l0 -4186c0,-141 -115,-257 -256,-257l-1690 0c-141,0 -256,116 -256,257l0 4186c0,141 115,257 256,257l147 0m753 -3832c-2,-16 -17,-32 -47,-34 -110,0 -198,88 -198,197 0,110 88,198 198,198 109,0 198,-88 198,-198 0,-109 -89,-197 -198,-197m-758 -655l285 0c87,0 158,72 158,159l0 0c0,87 -71,158 -158,158l-285 0c-87,0 -158,-71 -158,-158l0 0c0,-87 71,-159 158,-159zm4 36l277 0c68,0 123,55 123,123l0 0c0,67 -55,123 -123,123l-277 0c-67,0 -122,-56 -122,-123l0 0c0,-68 55,-123 122,-123zm302 47c-1,-8 -8,-15 -22,-17 -53,0 -95,43 -95,95 0,53 42,95 95,95 52,0 95,-42 95,-95 0,-52 -43,-95 -95,-95m-261 18c-1,-8 -8,-16 -23,-17 -52,0 -95,42 -95,95 0,52 43,95 95,95 53,0 95,-43 95,-95 0,-53 -42,-95 -95,-95m598 45c0,-5 -5,-10 -15,-11 -35,0 -63,29 -63,64 0,35 28,63 63,63 35,0 63,-28 63,-63 0,-35 -28,-64 -63,-64"/>
 </g>
</svg>
