<?xml version="1.0" encoding="UTF-8"?>
<!DOCTYPE svg PUBLIC "-//W3C//DTD SVG 1.1//EN" "http://www.w3.org/Graphics/SVG/1.1/DTD/svg11.dtd">
<!-- Creator: CorelDRAW X8 -->
<svg xmlns="http://www.w3.org/2000/svg" xml:space="preserve" width="40mm" height="60mm" version="1.1" style="shape-rendering:geometricPrecision; text-rendering:geometricPrecision; image-rendering:optimizeQuality; fill-rule:evenodd; clip-rule:evenodd"
viewBox="0 0 4000 6000"
 xmlns:xlink="http://www.w3.org/1999/xlink">
 <defs>
  <style type="text/css">
   <![CDATA[
    .str0 {stroke:black;stroke-width:7.62}
    .fil0 {fill:none}
   ]]>
  </style>
 </defs>
 <g id="图层_x0020_1">
  <metadata id="CorelCorpID_0Corel-Layer"/>
  <path class="fil0 str0" d="M1035 5350l1824 0c101,0 183,-82 183,-183l0 -4334c0,-101 -82,-183 -183,-183l-1718 0c-101,0 -183,82 -183,183l0 4334c0,101 82,183 183,183l53 0m40 -4564c-4,-15 -9,-26 -34,-26l-21 0c-30,0 -54,24 -54,53l0 0c0,30 24,54 54,54l213 0c29,0 53,-24 53,-54l0 0c0,-29 -24,-53 -53,-53l-192 0"/>
 </g>
</svg>
