<?xml version="1.0" encoding="UTF-8"?>
<!DOCTYPE svg PUBLIC "-//W3C//DTD SVG 1.1//EN" "http://www.w3.org/Graphics/SVG/1.1/DTD/svg11.dtd">
<!-- Creator: CorelDRAW X8 -->
<svg xmlns="http://www.w3.org/2000/svg" xml:space="preserve" width="40mm" height="60mm" version="1.1" style="shape-rendering:geometricPrecision; text-rendering:geometricPrecision; image-rendering:optimizeQuality; fill-rule:evenodd; clip-rule:evenodd"
viewBox="0 0 4000 6000"
 xmlns:xlink="http://www.w3.org/1999/xlink">
 <defs>
  <style type="text/css">
   <![CDATA[
    .str0 {stroke:black;stroke-width:20;stroke-linejoin:bevel}
    .fil0 {fill:none}
   ]]>
  </style>
 </defs>
 <g id="图层_x0020_1">
  <metadata id="CorelCorpID_0Corel-Layer"/>
  <path class="fil0 str0" d="M1242 1972c0,0 597,0 597,0 169,0 306,-137 306,-306 0,0 0,-661 0,-661 0,-169 -137,-307 -306,-307 0,0 -597,0 -597,0 -169,0 -306,138 -306,307 0,0 0,661 0,661 0,169 137,306 306,306zm987 818c-46,28 -70,75 -66,128 4,54 34,89 80,112 -13,38 -32,73 -58,105 -7,10 -15,19 -24,27 -23,22 -50,28 -80,18 -13,-4 -26,-9 -39,-13 -29,-9 -57,-4 -85,6 -12,4 -25,7 -39,11 -10,2 -21,-1 -31,-6 -18,-8 -32,-22 -45,-38 -39,-47 -64,-98 -77,-159 -9,-43 -12,-87 2,-130 18,-56 52,-91 109,-106 26,-7 50,-4 75,5 13,5 26,9 39,13 8,3 16,3 24,0 19,-6 38,-13 57,-19 49,-13 94,-7 134,25 9,6 16,13 24,21zm-112 -199c0,0 9,44 -38,95 -23,22 -34,31 -78,36 0,0 -10,-46 34,-89 23,-20 40,-36 82,-42zm-805 2759c-11,-41 -81,-57 -103,-57 -178,-4 -321,-149 -321,-328 0,0 0,-25 0,-25 0,0 -220,0 -220,0 -17,0 -32,-14 -32,-32 0,0 0,-2124 0,-2124 0,0 0,-128 0,-128 0,-18 15,-33 32,-33 0,0 58,0 58,0 36,0 65,-29 65,-64 0,0 0,-516 0,-516 0,-36 -29,-65 -65,-65 0,0 -58,0 -58,0 -17,0 -32,-14 -32,-32 0,0 0,-101 0,-101 0,0 0,-806 0,-806 0,-18 15,-33 32,-33 0,0 220,0 220,0 0,0 0,-28 0,-28 0,-181 147,-328 328,-328l0 0 0 0 0 0 0 0 0 0 0 0 0 0 0 0 1 0 0 0 0 0 0 0 0 0 0 0 0 0 1 0 0 0 0 0 0 0 0 0 1 0 0 0 0 0 0 0 0 0 1 0 0 0 0 0 0 0 1 0 0 0 0 0 0 0 1 0 0 0 0 0 0 0 0 0 1 0 0 0 0 0 0 0 1 0 0 0 0 0 0 0 0 0 1 0 0 0 0 0 1 0 0 0 1548 0 0 0 1 0 0 0 0 0 1 0 0 0 0 0 0 0 0 0 1 0 0 0 0 0 0 0 1 0 0 0 0 0 0 0 0 0 1 0 0 0 0 0 0 0 1 0 0 0 0 0 0 0 1 0 0 0 0 0 0 0 0 0 1 0 0 0 0 0 0 0 0 0 1 0 0 0 0 0 0 0 0 0 0 0 0 0 1 0 0 0 0 0 0 0 0 0 0 0 0 0 0 0 0 0c181,0 328,147 328,328 0,0 0,28 0,28 0,0 220,0 220,0 17,0 32,15 32,33 0,0 0,432 0,432 0,17 -15,32 -32,32 0,0 -58,0 -58,0 -36,0 -65,29 -65,64 0,0 0,1113 0,1113 0,35 29,64 65,64 0,0 58,0 58,0 17,0 32,14 32,32 0,0 0,52 0,52 0,0 0,129 0,129 0,0 0,13 0,13 0,18 -15,32 -32,32 0,0 -58,0 -58,0 -36,0 -65,29 -65,64 0,0 0,452 0,452 0,35 29,64 65,64 0,0 58,0 58,0 17,0 32,15 32,33 0,0 0,1180 0,1180 0,0 0,16 0,16 0,0 0,97 0,97 0,18 -15,32 -32,32 0,0 -220,0 -220,0 0,0 0,25 0,25 0,179 -143,324 -321,328l-1917 0"/>
 </g>
</svg>
