<?xml version="1.0" encoding="UTF-8"?>
<!DOCTYPE svg PUBLIC "-//W3C//DTD SVG 1.1//EN" "http://www.w3.org/Graphics/SVG/1.1/DTD/svg11.dtd">
<!-- Creator: CorelDRAW X8 -->
<svg xmlns="http://www.w3.org/2000/svg" xml:space="preserve" width="40mm" height="60mm" version="1.1" style="shape-rendering:geometricPrecision; text-rendering:geometricPrecision; image-rendering:optimizeQuality; fill-rule:evenodd; clip-rule:evenodd"
viewBox="0 0 4000 6000"
 xmlns:xlink="http://www.w3.org/1999/xlink">
 <defs>
  <style type="text/css">
   <![CDATA[
    .str0 {stroke:#332C2B;stroke-width:10}
    .fil0 {fill:none}
   ]]>
  </style>
 </defs>
 <g id="图层_x0020_1">
  <metadata id="CorelCorpID_0Corel-Layer"/>
  <g id="_1859633707168">
   <path class="fil0 str0" d="M905 650c-16,0 -29,13 -29,29l0 4642c0,16 13,29 29,29l2190 0c16,0 29,-13 29,-29l0 -4642c0,-16 -13,-29 -29,-29 -742,0 -1449,0 -2190,0z"/>
   <path class="fil0 str0" d="M2612 754c-1,-10 -10,-19 -28,-21 -67,0 -121,54 -121,120 0,67 54,120 121,120 66,0 120,-53 120,-120 0,-66 -54,-120 -120,-120"/>
   <path class="fil0 str0" d="M2851 793c-1,-6 -6,-11 -17,-12 -39,0 -71,32 -71,71 0,39 32,71 71,71 39,0 71,-32 71,-71 0,-39 -32,-71 -71,-71"/>
  </g>
 </g>
</svg>
