<?xml version="1.0" encoding="UTF-8"?>
<!DOCTYPE svg PUBLIC "-//W3C//DTD SVG 1.1//EN" "http://www.w3.org/Graphics/SVG/1.1/DTD/svg11.dtd">
<!-- Creator: CorelDRAW -->
<svg xmlns="http://www.w3.org/2000/svg" xml:space="preserve" width="40mm" height="60mm" style="shape-rendering:geometricPrecision; text-rendering:geometricPrecision; image-rendering:optimizeQuality; fill-rule:evenodd; clip-rule:evenodd"
viewBox="0 0 40 60"
 xmlns:xlink="http://www.w3.org/1999/xlink">
 <defs>
  <style type="text/css">
   <![CDATA[
    .str0 {stroke:#1F1A17;stroke-width:0.0762}
    .fil0 {fill:none;fill-rule:nonzero}
   ]]>
  </style>
 </defs>
 <g id="图层_x0020_1">
  <metadata id="CorelCorpID_0Corel-Layer"/>
  <path class="fil0 str0" d="M20.1687 15.5363c0.8597,0.1331 1.505,0.8943 1.505,1.7713 -0.0011,0.9971 -0.8142,1.8102 -1.8102,1.8092 -0.995,-0.0011 -1.8016,-0.811 -1.8027,-1.8092 0,-1.0362 0.8596,-1.8504 1.898,-1.7973 0.0465,0.0021 0.1014,0.0049 0.2099,0.026zm-5.8931 -1.7952l0.0011 -1.6197c-0.0054,-0.1754 -0.0054,-0.2154 -0.0054,-0.4287l0.0022 -1.6187c0.001,-0.6106 -0.0033,-0.8402 -0.0174,-0.9842 -0.0736,-0.746 -0.76,-1.3404 -1.5472,-1.3404 -0.4298,0 -0.8488,0.1884 -1.1541,0.5197 -0.249,0.2696 -0.3216,0.4212 -0.3584,0.7428 -0.0368,0.3204 -0.0466,0.8932 -0.0466,2.8096 0,1.4303 0.0119,2.6418 0.0271,2.8074 0.0661,0.7168 0.7666,1.3166 1.5364,1.3166 0.6236,0 1.1899,-0.3616 1.4302,-0.9159 0.1224,-0.2826 0.1343,-0.4007 0.1321,-1.2885zm-3.1633 39.7589l-0.0826 -0.0073c-0.2653,-0.0238 -0.5143,-0.0974 -0.7471,-0.2198 -0.6117,-0.3248 -1.1812,-1.1585 -1.2722,-1.8633l-0.0346 -42.1476c-0.0011,-0.4656 0.0054,-0.5793 0.0346,-0.6951 0.2674,-1.0546 0.7633,-1.6728 1.5938,-1.9836 0.1754,-0.066 0.2393,-0.0768 0.4882,-0.0833l17.921 0.014c0.8033,0.1376 1.48,0.8013 1.7691,1.7367 0.1797,0.5793 0.2133,0.9745 0.2187,2.5227 0.0314,10.9841 0.0336,8.2383 -0.0108,19.2224l-0.0812 20.7393c-0.0032,0.7405 -0.0693,1.0274 -0.3638,1.5742 -0.3638,0.6756 -1.0275,1.1466 -1.6728,1.1867l-17.7603 0.004z"/>
 </g>
</svg>
