<?xml version="1.0" encoding="UTF-8"?>
<!DOCTYPE svg PUBLIC "-//W3C//DTD SVG 1.1//EN" "http://www.w3.org/Graphics/SVG/1.1/DTD/svg11.dtd">
<!-- Creator: CorelDRAW -->
<svg xmlns="http://www.w3.org/2000/svg" xml:space="preserve" width="40mm" height="60mm" style="shape-rendering:geometricPrecision; text-rendering:geometricPrecision; image-rendering:optimizeQuality; fill-rule:evenodd; clip-rule:evenodd"
viewBox="0 0 40 60"
 xmlns:xlink="http://www.w3.org/1999/xlink">
 <defs>
  <style type="text/css">
   <![CDATA[
    .str0 {stroke:#1F1A17;stroke-width:0.194}
    .str2 {stroke:#1F1A17;stroke-width:0.194}
    .str1 {stroke:#1F1A17;stroke-width:0.2}
    .fil0 {fill:none}
    .fil1 {fill:none;fill-rule:nonzero}
   ]]>
  </style>
 </defs>
 <g id="图层_x0020_1">
  <metadata id="CorelCorpID_0Corel-Layer"/>
  <line class="fil0 str0" x1="8.5651" y1="9.2073" x2="8.5596" y2= "50.2604" />
  <path class="fil0 str0" d="M8.5596 50.2604c0,0.5201 0.0122,0.6392 0.098,0.911 0.3942,1.2639 1.6393,2.0446 3.4333,2.1526 1.5803,0.0958 5.301,0.176 8.1385,0.176 2.5792,0 4.2608,-0.0445 7.6574,-0.2016 1.6226,-0.0757 2.8286,-0.7305 3.3086,-1.7996 0.1637,-0.3631 0.2093,-0.588 0.245,-1.1883l-0.0145 -40.9585"/>
  <path class="fil0 str0" d="M31.4259 9.352c-0.039,-0.5969 -0.3975,-1.2985 -0.8853,-1.7317 -0.5747,-0.51 -1.5736,-0.8619 -2.6527,-0.9343 -1.3954,-0.0936 -5.3043,-0.186 -7.8355,-0.186 -3.0937,0 -7.5461,0.1136 -8.3011,0.2127 -1.8275,0.2383 -2.9612,1.1259 -3.1862,2.4946"/>
  <rect class="fil0 str1" x="17.5466" y="7.2387" width="5.2886" height="1.3975" rx="0.6987" ry="0.6987"/>
  <ellipse class="fil0 str1" cx="16.6333" cy="7.9853" rx="0.673" ry="0.6508"/>
  <ellipse class="fil0 str1" cx="14.1365" cy="7.9781" rx="0.6181" ry="0.6102"/>
  <ellipse class="fil0 str1" cx="26.6229" cy="7.9829" rx="0.6181" ry="0.615"/>
  <line class="fil1 str2" x1="19.7933" y1="51.6136" x2="20.4945" y2= "51.6136" />
  <path class="fil1 str2" d="M20.4945 51.6136c0.8039,0.0012 1.4235,-0.0075 1.5138,-0.0211 0.376,-0.0569 0.6827,-0.4452 0.6827,-0.8645 0,-0.4316 -0.3537,-0.8286 -0.7681,-0.8632 -0.3858,-0.0322 -2.3857,-0.0755 -3.5049,-0.0755 -0.799,0 -0.9919,0.0173 -1.0204,0.0916 -0.4229,0.136 -0.6641,0.4501 -0.6641,0.8682 0,0.4007 0.2981,0.7705 0.6815,0.8434 0.1088,0.0211 0.1954,0.0248 0.5466,0.0235"/>
  <line class="fil1 str2" x1="17.9616" y1="51.616" x2="19.4148" y2= "51.6123" />
  <path class="fil1 str2" d="M19.4148 51.6123c0.2375,0 0.4749,0 0.7124,0.0013"/>
  <ellipse class="fil0 str1" cx="13.5373" cy="50.7153" rx="0.4773" ry="0.4809"/>
 </g>
</svg>
