<?xml version="1.0" encoding="UTF-8"?>
<!DOCTYPE svg PUBLIC "-//W3C//DTD SVG 1.1//EN" "http://www.w3.org/Graphics/SVG/1.1/DTD/svg11.dtd">
<!-- Creator: CorelDRAW -->
<svg xmlns="http://www.w3.org/2000/svg" xml:space="preserve" width="40mm" height="60mm" style="shape-rendering:geometricPrecision; text-rendering:geometricPrecision; image-rendering:optimizeQuality; fill-rule:evenodd; clip-rule:evenodd"
viewBox="0 0 40 60"
 xmlns:xlink="http://www.w3.org/1999/xlink">
 <defs>
  <style type="text/css">
   <![CDATA[
    .str0 {stroke:#1F1A17;stroke-width:0.194}
    .fil0 {fill:none;fill-rule:nonzero}
   ]]>
  </style>
 </defs>
 <g id="图层_x0020_1">
  <metadata id="CorelCorpID_0Corel-Layer"/>
  <path class="fil0 str0" d="M31.9662 51.7142c-0.0472,0.3057 -0.3313,0.8053 -0.6303,1.1056 -0.4416,0.4457 -0.8497,0.6073 -1.7102,0.68 -7.1573,0.0014 -12.0724,-0.008 -19.2297,-0.0067 -0.5844,-0.0175 -0.9009,-0.1131 -1.3116,-0.3932 -0.4821,-0.3299 -0.8726,-0.8861 -0.9844,-1.4072m23.9025 -42.7524l-0.0363 42.7739m-23.9483 -21.725c-0.027,-7.0172 -0.027,-14.0345 -0.0014,-21.0517 0.0431,-0.8995 0.3569,-1.5135 1.0315,-2.0145 0.3219,-0.2384 0.668,-0.3838 0.9683,-0.4067 3.4042,-0.0108 6.8099,-0.0161 10.2141,-0.0161 5.6127,0 4.2095,-0.0027 9.8209,0.0148 0.6625,0.0498 1.4436,0.6518 1.7721,1.3627 0.167,0.3623 0.1791,0.435 0.1791,1.0626m-23.9025 42.7524l-0.0821 -21.7035m10.4929 -22.0926l3.3275 0.0068m-5.0189 2.0185c-0.1697,-0.1966 -0.2182,-0.3689 -0.2182,-0.7797 0,-0.8093 0.1576,-1.115 0.6235,-1.216 0.1131,-0.0242 0.3906,-0.0309 1.2861,-0.0296m-1.6793 2.0388l-0.0121 -0.0135m2.9127 0.2842c-1.6886,0.0027 -2.0535,-0.0014 -2.3606,-0.031 -0.1737,-0.0162 -0.2828,-0.0404 -0.3609,-0.0808 -0.0606,-0.031 -0.0956,-0.0619 -0.1791,-0.1589m3.0299 0.2707l-0.1293 0m4.9273 -2.3122c0.6706,-0.0013 0.8618,0.0027 1.0127,0.0189 0.1494,0.0175 0.2127,0.043 0.3339,0.1346 0.2963,0.2222 0.369,0.4336 0.369,1.0693 0,0.7648 -0.268,1.0584 -0.9777,1.0732 -1.8449,0.0068 -3.691,0.0121 -5.5359,0.0162m1.7385 -2.3027l3.0595 -0.0095"/>
 </g>
</svg>
