<?xml version="1.0" encoding="UTF-8"?>
<!DOCTYPE svg PUBLIC "-//W3C//DTD SVG 1.1//EN" "http://www.w3.org/Graphics/SVG/1.1/DTD/svg11.dtd">
<!-- Creator: CorelDRAW -->
<svg xmlns="http://www.w3.org/2000/svg" xml:space="preserve" width="40mm" height="60mm" style="shape-rendering:geometricPrecision; text-rendering:geometricPrecision; image-rendering:optimizeQuality; fill-rule:evenodd; clip-rule:evenodd"
viewBox="0 0 40 60"
 xmlns:xlink="http://www.w3.org/1999/xlink">
 <defs>
  <style type="text/css">
   <![CDATA[
    .str1 {stroke:#1F1A17;stroke-width:0.194}
    .str0 {stroke:#1F1A17;stroke-width:0.2}
    .fil0 {fill:none}
    .fil1 {fill:none;fill-rule:nonzero}
   ]]>
  </style>
 </defs>
 <g id="图层_x0020_2">
  <metadata id="CorelCorpID_0Corel-Layer"/>
  <g id="_185408872">
   <path id="_167385184" class="fil0 str0" d="M10.7119 6.5l18.5762 0c1.1936,0 2.1702,0.9811 2.1702,2.1803l0 42.6394c0,1.1992 -0.9766,2.1803 -2.1702,2.1803l-18.5762 0c-1.1936,0 -2.1702,-0.9811 -2.1702,-2.1803l0 -42.6394c0,-1.1992 0.9766,-2.1803 2.1702,-2.1803z"/>
   <path id="_184373720" class="fil0 str0" d="M19.9395 15.1802c1.5218,0 2.756,1.2342 2.756,2.756 0,1.5219 -1.2342,2.756 -2.756,2.756 -1.5219,0 -2.7561,-1.2341 -2.7561,-2.756 0,-1.5218 1.2342,-2.756 2.7561,-2.756z"/>
   <line id="_168311704" class="fil1 str1" x1="20.6519" y1="9.0483" x2="18.9387" y2= "9.0614" />
   <path id="_168294120" class="fil1 str1" d="M18.9387 9.0614c-0.452,0.0032 -0.4782,-0.0121 -0.797,-0.4739 -0.3876,-0.5612 -1.0068,-0.9216 -1.6455,-0.9576"/>
   <line id="_168333320" class="fil1 str1" x1="16.4962" y1="7.6299" x2="12.2542" y2= "7.6463" />
   <path id="_168309464" class="fil1 str1" d="M12.2542 7.6463c-1.046,0.1343 -1.8857,1.1148 -1.8857,2.2001 0,0.8823 0.5329,1.6761 1.3703,2.043 0.4008,0.1758 0.8757,0.2019 3.7113,0.2019 1.0133,0 1.2885,-0.0283 1.639,-0.1648 0.535,-0.2086 0.8506,-0.4848 1.1748,-1.0253 0.2479,-0.4127 0.2774,-0.4269 0.9063,-0.4215"/>
   <line id="_168307896" class="fil1 str1" x1="19.1702" y1="10.4797" x2="20.8146" y2= "10.4928" />
   <path id="_168337968" class="fil1 str1" d="M20.8146 10.4928c0.0885,0 0.1682,0 0.2369,0 0.5405,0 0.6705,-0.0174 0.8353,-0.1135 0.1977,-0.1158 0.332,-0.3691 0.332,-0.6268 0,-0.4018 -0.2916,-0.6791 -0.7436,-0.7032 -0.1059,-0.0054 -0.1736,-0.0076 -0.3287,-0.0065"/>
   <line id="_168318872" class="fil1 str1" x1="21.1465" y1="9.0428" x2="20.5635" y2= "9.045" />
  </g>
 </g>
</svg>
