<?xml version="1.0" encoding="UTF-8"?>
<!DOCTYPE svg PUBLIC "-//W3C//DTD SVG 1.1//EN" "http://www.w3.org/Graphics/SVG/1.1/DTD/svg11.dtd">
<!-- Creator: CorelDRAW -->
<svg xmlns="http://www.w3.org/2000/svg" xml:space="preserve" width="40mm" height="60mm" style="shape-rendering:geometricPrecision; text-rendering:geometricPrecision; image-rendering:optimizeQuality; fill-rule:evenodd; clip-rule:evenodd"
viewBox="0 0 40 60"
 xmlns:xlink="http://www.w3.org/1999/xlink">
 <defs>
  <style type="text/css">
   <![CDATA[
    .str0 {stroke:#1F1A17;stroke-width:0.0762}
    .str1 {stroke:#1F1A17;stroke-width:0.0762;stroke-linejoin:bevel}
    .fil0 {fill:none}
   ]]>
  </style>
 </defs>
 <g id="图层_x0020_1">
  <metadata id="CorelCorpID_0Corel-Layer"/>
  <g id="_330381120">
   <path id="_330394152" class="fil0 str0" d="M22.5382 53.4985l-10.1658 0.0008c-0.3288,0 -0.6575,-0.0176 -0.9846,-0.0508 -0.2609,-0.0342 -0.5238,-0.1028 -0.7747,-0.203 -0.8281,-0.4109 -1.3515,-1.2549 -1.3515,-2.1798l0 -42.1321c0,-0.9242 0.5244,-1.7689 1.3516,-2.1798 0.2509,-0.1002 0.5138,-0.1688 0.7817,-0.2039 0.32,-0.0323 0.6487,-0.0499 0.9775,-0.0499l10.1738 0 5.0814 0c0.3288,0 0.6575,0.0176 0.9846,0.0508 0.2609,0.0342 0.5238,0.1028 0.7747,0.203 0.8282,0.4109 1.3515,1.2549 1.3515,2.1798l0 42.1321c0,0.9242 -0.5244,1.7689 -1.3516,2.1798 -0.2509,0.1002 -0.5138,0.1688 -0.7817,0.2039 -0.32,0.0323 -0.6487,0.0499 -0.9775,0.0499l-3.3832 0c-0.041,0 -0.0364,0.008 -0.0397,-0.0317 -0.0094,-0.1112 -0.0143,-0.2322 -0.0946,-0.3123 -0.0514,-0.0514 -0.1208,-0.0802 -0.1935,-0.0801l-1.0343 0c-0.0726,0 -0.1423,0.0289 -0.1936,0.0803 -0.0584,0.0585 -0.0923,0.1967 -0.0999,0.2954 -0.0044,0.057 0.0104,0.0476 -0.0506,0.0476z"/>
   <path id="_330394008" class="fil0 str1" d="M11.9659 8.2497c0,-0.336 -0.2723,-0.6084 -0.6084,-0.6084 -0.336,0 -0.6084,0.2724 -0.6084,0.6084 0,0.3361 0.2724,0.6084 0.6084,0.6084 0.3361,0 0.6084,-0.2723 0.6084,-0.6084z"/>
  </g>
 </g>
</svg>
