<?xml version="1.0" encoding="UTF-8"?>
<!DOCTYPE svg PUBLIC "-//W3C//DTD SVG 1.1//EN" "http://www.w3.org/Graphics/SVG/1.1/DTD/svg11.dtd">
<!-- Creator: CorelDRAW 2020 (64-Bit) -->
<svg xmlns="http://www.w3.org/2000/svg" xml:space="preserve" width="40mm" height="60mm" version="1.1" style="shape-rendering:geometricPrecision; text-rendering:geometricPrecision; image-rendering:optimizeQuality; fill-rule:evenodd; clip-rule:evenodd"
viewBox="0 0 4000 6000"
 xmlns:xlink="http://www.w3.org/1999/xlink"
 xmlns:xodm="http://www.corel.com/coreldraw/odm/2003">
 <defs>
  <style type="text/css">
   <![CDATA[
    .str2 {stroke:#332C2B;stroke-width:20;stroke-miterlimit:22.9256}
    .str1 {stroke:#E62129;stroke-width:20;stroke-miterlimit:22.9256}
    .str0 {stroke:#E62129;stroke-width:20;stroke-miterlimit:22.9256}
    .fil0 {fill:none}
   ]]>
  </style>
   <clipPath id="id0">
    <rect x="-52824.14" y="-6452.31" width="17352.06" height="16221.63"/>
   </clipPath>
 </defs>
 <g id="图层_x0020_1">
  <metadata id="CorelCorpID_0Corel-Layer"/>
  <g style="clip-path:url(#id0)">
   <image x="-52824.14" y="-6452.31" width="17352.06" height="16221.63" xlink:href="Camon i4 -11i（背膜）_Images\Camon i4 -11i（背膜）_ImgID1.png"/>
  </g>
  <rect class="fil0 str0" x="-52606.83" y="-6166.63" width="7580" height="15690"/>
  <path class="fil0 str0" d="M-51483.29 -5943.66l1794.61 0c58.06,0 114.02,65.35 154.98,65.35l152.24 0c155.37,0 143.61,132.68 143.61,208.33 0,236 191.31,427.31 427.31,427.31 236,0 427.31,-191.31 427.31,-427.31 0,-75.65 -15.51,-208.33 121.33,-208.33l175.49 0c40.96,0 102.21,-65.35 153.33,-65.35l1782.71 0c495,0 900,405.02 900,900l0 13473.77c0,495 -405,900 -900,900l-5332.92 0c-495,0 -900,-405 -900,-900l0 -13473.77c0,-495 405,-900 900,-900z"/>
  <rect class="fil0 str0" x="-44595.24" y="-6166.63" width="7580" height="15690"/>
  <rect class="fil0 str0" x="-44293.93" y="-5880.88" width="6977.38" height="15118.45" rx="850" ry="988.86"/>
  <rect class="fil0 str1" x="-44044.58" y="-5503.71" width="1058.34" height="2962.03" rx="600" ry="615.11"/>
  <circle class="fil0 str1" cx="-43515.4" cy="-2035.63" r="304.93"/>
  <circle class="fil0 str1" cx="-40803.97" cy="-2480.1" r="648.24"/>
  <path class="fil0 str2" d="M-3721.83 5270.88l0 -5741.07c0,-467.49 -382.51,-850 -850,-850l-13418.45 0c-467.5,0 -850,382.5 -850,850l0 5277.38c0,467.5 382.5,850 850,850l13418.45 0c467.5,0 850,-382.5 850,-850 0,-467.5 67.51,-648.25 133.65,-747.47"/>
  <path class="fil0 str2" d="M-17964.31 5214.31c-177.27,63.5 -498.8,-44.59 -498.8,-335.64 0,-291.05 238.12,-529.17 529.17,-529.17l1903.69 0c291.05,0 529.17,238.12 529.17,529.17l0 0c0,291.05 -238.12,529.17 -529.17,529.17l-1903.69 0c-291.05,0 -529.17,-238.12 -529.17,-529.17"/>
  <path class="fil0 str2" d="M-15014.87 5069.45c-95.25,29.11 -285.09,-22.38 -285.09,-190.79 0,-168.41 136.52,-304.93 304.93,-304.93 168.41,0 304.93,136.52 304.93,304.93 0,168.41 -136.52,304.93 -304.93,304.93 -168.41,0 -304.93,-136.52 -304.93,-304.93"/>
  <path class="fil0 str2" d="M-15642.61 2548.97c-111.13,29.1 -445.13,-23.72 -445.13,-381.74 0,-358.02 290.22,-648.24 648.24,-648.24 358.01,0 648.23,290.22 648.23,648.24 0,358.01 -290.22,648.23 -648.23,648.23 -358.02,0 -648.24,-290.22 -648.24,-648.23"/>
  <g id="_2232822516240">
   <path class="fil0 str2" d="M1037.39 5314.49l1769.13 0c144.06,0 261.93,-117.88 261.93,-261.94l0 -4134.95c0,-144.06 -117.86,-261.93 -261.93,-261.93l-1626.24 0c-144.07,0 -261.93,117.87 -261.93,261.93l0 4134.95c0,144.07 117.86,261.94 261.93,261.94 144.06,0 199.76,20.8 230.33,41.18"/>
   <path class="fil0 str2" d="M1054.82 925.6c-19.57,-54.62 13.74,-153.7 103.43,-153.7 89.69,0 163.07,73.37 163.07,163.06l0 586.63c0,89.69 -73.38,163.07 -163.07,163.07l0 0c-89.69,0 -163.07,-73.38 -163.07,-163.07l0 -586.63c0,-89.69 73.38,-163.06 163.07,-163.06"/>
   <path class="fil0 str2" d="M1099.46 1834.49c-8.97,-29.36 6.9,-87.86 58.79,-87.86 51.9,0 93.97,42.07 93.97,93.97 0,51.9 -42.07,93.97 -93.97,93.97 -51.89,0 -93.96,-42.07 -93.96,-93.97 0,-51.9 42.07,-93.97 93.96,-93.97"/>
   <path class="fil0 str2" d="M1876.16 1641.05c-8.97,-34.25 7.31,-137.17 117.63,-137.17 110.33,0 199.76,89.43 199.76,199.75 0,110.33 -89.43,199.76 -199.76,199.76 -110.32,0 -199.75,-89.43 -199.75,-199.76 0,-110.32 89.43,-199.75 199.75,-199.75"/>
  </g>
 </g>
</svg>
