<?xml version="1.0" encoding="UTF-8"?>
<!DOCTYPE svg PUBLIC "-//W3C//DTD SVG 1.1//EN" "http://www.w3.org/Graphics/SVG/1.1/DTD/svg11.dtd">
<!-- Creator: CorelDRAW X8 -->
<svg xmlns="http://www.w3.org/2000/svg" xml:space="preserve" width="40mm" height="60mm" version="1.1" style="shape-rendering:geometricPrecision; text-rendering:geometricPrecision; image-rendering:optimizeQuality; fill-rule:evenodd; clip-rule:evenodd"
viewBox="0 0 4000 6000"
 xmlns:xlink="http://www.w3.org/1999/xlink">
 <defs>
  <style type="text/css">
   <![CDATA[
    .str0 {stroke:#332C2B;stroke-width:20}
    .fil0 {fill:none}
   ]]>
  </style>
 </defs>
 <g id="图层_x0020_1">
  <metadata id="CorelCorpID_0Corel-Layer"/>
  <g id="_2112139549600">
   <path class="fil0 str0" d="M944 5193l1920 0c106,0 192,-87 192,-192l0 -4159c0,-105 -86,-192 -192,-192l-1631 0c-105,0 -192,87 -192,192l0 4159c0,105 87,192 192,192 106,0 272,46 272,157"/>
   <path class="fil0 str0" d="M1140 777c-24,-23 5,-88 40,-88 35,0 64,29 64,64 0,35 -29,64 -64,64 -35,0 -64,-29 -64,-64 0,-35 29,-64 64,-64"/>
  </g>
 </g>
</svg>
