<?xml version="1.0" encoding="UTF-8"?>
<!DOCTYPE svg PUBLIC "-//W3C//DTD SVG 1.1//EN" "http://www.w3.org/Graphics/SVG/1.1/DTD/svg11.dtd">
<!-- Creator: CorelDRAW -->
<svg xmlns="http://www.w3.org/2000/svg" xml:space="preserve" width="40mm" height="60mm" style="shape-rendering:geometricPrecision; text-rendering:geometricPrecision; image-rendering:optimizeQuality; fill-rule:evenodd; clip-rule:evenodd"
viewBox="0 0 40 60"
 xmlns:xlink="http://www.w3.org/1999/xlink">
 <defs>
  <style type="text/css">
   <![CDATA[
    .str1 {stroke:#1F1A17;stroke-width:0.194}
    .str0 {stroke:#1F1A17;stroke-width:0.2}
    .fil0 {fill:none}
    .fil1 {fill:none;fill-rule:nonzero}
   ]]>
  </style>
 </defs>
 <g id="图层_x0020_9">
  <metadata id="CorelCorpID_0Corel-Layer"/>
  <ellipse class="fil0 str0" cx="16.6651" cy="9.6658" rx="0.8436" ry="0.8685"/>
 </g>
 <g id="图层_x0020_10">
  <metadata id="CorelCorpID_1Corel-Layer"/>
  <path class="fil1 str1" d="M15.1157 9.4866c0.0352,-0.6755 0.7087,-1.3433 1.4136,-1.4018l2.0344 -0.0156"/>
  <line class="fil1 str1" x1="15.0942" y1="13.1007" x2="15.1157" y2= "9.4866" />
  <path class="fil1 str1" d="M18.9981 8.0711c1.2077,0.0039 1.2077,0.0039 1.3014,0.0264l0.0459 0.0117c0.6541,0.1366 1.1988,0.7351 1.2583,1.3813 0.0225,0.2412 0.043,1.441 0.043,2.5227 0,1.3618 -0.0215,1.5502 -0.2187,1.9202 -0.2958,0.5536 -0.7927,0.8376 -1.4985,0.8572 -0.3329,0.0088 -0.9118,0.0146 -1.5395,0.0146 -0.9157,0 -1.7084,-0.0117 -1.8714,-0.0273 -0.699,-0.0664 -1.3414,-0.7049 -1.4107,-1.4039 -0.0068,-0.0644 -0.0108,-0.1464 -0.0137,-0.2733"/>
  <line class="fil1 str1" x1="18.4466" y1="8.0692" x2="18.9981" y2= "8.0711" />
  <path class="fil1 str1" d="M21.1147 9.4144c0.0175,0.0576 0.0175,0.0576 0.0175,1.314"/>
  <line class="fil1 str1" x1="21.1068" y1="9.3812" x2="21.1147" y2= "9.4144" />
  <path class="fil1 str1" d="M15.5677 9.6253c0.0107,-0.2314 0.0234,-0.2978 0.084,-0.4325l0.0029 -0.0068c0.1474,-0.3281 0.5028,-0.5907 0.8425,-0.6209 0.3573,-0.003 0.2675,-0.002 0.6248,-0.003 1.2095,0 3.1493,0.0127 3.1991,0.0225 0.3602,0.0674 0.7019,0.4139 0.7858,0.7966"/>
  <line class="fil1 str1" x1="15.5619" y1="11.4518" x2="15.5677" y2= "9.6253" />
  <path class="fil1 str1" d="M21.1342 12.7844c0.0019,0.8571 -0.0645,1.0563 -0.4423,1.3335 -0.1523,0.1103 -0.325,0.1787 -0.491,0.1923 -0.2558,0.0215 -1.5112,0.042 -2.5568,0.042 -1.1343,0 -1.2671,-0.0146 -1.5424,-0.1737 -0.1591,-0.0918 -0.2919,-0.2246 -0.4012,-0.4032 -0.1455,-0.2353 -0.1455,-0.2382 -0.1386,-2.3235"/>
  <polyline class="fil1 str1" points="21.1342,12.7844 21.1303,11.5143 21.1312,11.3928 21.1322,10.7284 "/>
  <path class="fil1 str1" d="M19.1276 9.5979c0.0703,-0.5506 0.3846,-0.8639 0.8649,-0.8639 0.4823,0 0.8708,0.3846 0.8708,0.862 0,0.4822 -0.3826,0.8669 -0.863,0.8669 -0.4803,0 -0.8639,-0.3759 -0.8639,-0.8484 0,-0.0654 0.0049,-0.1152 0.0263,-0.286"/>
  <path class="fil1 str1" d="M19.2276 13.209c0.0683,-0.5466 0.3856,-0.8639 0.8649,-0.8639 0.4823,0 0.8718,0.3866 0.8718,0.8659 0,0.4764 -0.3905,0.8669 -0.8659,0.8669 -0.4872,0 -0.8591,-0.3778 -0.8591,-0.8708 0,-0.0713 0,-0.0801 0.0234,-0.2675"/>
  <path class="fil1 str1" d="M15.803 13.209c0.0644,-0.5496 0.3788,-0.8639 0.8659,-0.8639 0.4803,0 0.8678,0.3856 0.8678,0.8649 0,0.4784 -0.3865,0.8679 -0.8639,0.8679 -0.4793,0 -0.862,-0.3778 -0.862,-0.8513 0,-0.0566 0.0078,-0.1747 0.0205,-0.287"/>
  <path class="fil1 str1" d="M16.8964 16.7997c0.0283,-0.6483 0.7623,-1.2613 1.5092,-1.2613 0.8542,0 1.5512,0.6999 1.5512,1.557 0,0.8533 -0.697,1.5513 -1.5502,1.5513 -0.8484,0 -1.5532,-0.6883 -1.5532,-1.5171 0,-0.121 0.0088,-0.1845 0.0566,-0.4403"/>
  <rect class="fil0 str0" x="5.5823" y="5.0519" width="25.5763" height="47.4517" rx="2.106" ry="2.106"/>
 </g>
</svg>
