<?xml version="1.0" encoding="UTF-8"?>
<!DOCTYPE svg PUBLIC "-//W3C//DTD SVG 1.1//EN" "http://www.w3.org/Graphics/SVG/1.1/DTD/svg11.dtd">
<!-- Creator: CorelDRAW X8 -->
<svg xmlns="http://www.w3.org/2000/svg" xml:space="preserve" width="40mm" height="60mm" version="1.1" style="shape-rendering:geometricPrecision; text-rendering:geometricPrecision; image-rendering:optimizeQuality; fill-rule:evenodd; clip-rule:evenodd"
viewBox="0 0 4000 6000"
 xmlns:xlink="http://www.w3.org/1999/xlink">
 <defs>
  <style type="text/css">
   <![CDATA[
    .fil0 {fill:#332C2B;fill-rule:nonzero}
   ]]>
  </style>
 </defs>
 <g id="图层_x0020_1">
  <metadata id="CorelCorpID_0Corel-Layer"/>
  <g>
   <path class="fil0" d="M2887 5360l-1945 0 0 -20 1945 0 0 0 0 20zm224 -244l20 0 0 0 0 12 -1 13 -1 12 -3 12 -2 12 -4 11 -3 12 -5 11 -5 11 -5 10 -6 10 -6 10 -7 10 -7 9 -8 9 -8 9 -9 8 -8 7 -10 8 -9 6 -10 7 -10 6 -11 5 -11 5 -11 4 -11 4 -12 3 -12 3 -12 2 -12 2 -12 1 -13 0 0 -20 12 0 11 -1 11 -2 11 -2 11 -2 11 -3 10 -4 11 -4 9 -4 10 -5 9 -5 10 -6 8 -7 9 -6 8 -7 8 -8 7 -7 7 -9 7 -8 6 -9 6 -9 5 -9 5 -10 5 -10 4 -10 3 -10 3 -11 3 -11 2 -11 1 -11 1 -12 0 -11 0 0zm20 -4232l0 4232 -20 0 0 -4232 0 0 20 0zm-244 -224l0 -20 0 0 13 0 12 1 12 2 12 2 12 3 12 3 11 4 11 4 11 5 11 5 10 6 10 7 9 7 10 7 8 7 9 8 8 9 8 9 7 9 7 10 6 10 6 10 5 10 5 11 5 11 3 12 4 11 2 12 3 12 1 12 1 13 0 12 -20 0 0 -11 -1 -12 -1 -11 -2 -11 -3 -11 -3 -11 -3 -10 -4 -10 -5 -10 -5 -10 -5 -9 -6 -9 -6 -9 -7 -8 -7 -9 -7 -7 -8 -8 -8 -7 -9 -6 -8 -7 -10 -6 -9 -5 -10 -5 -9 -4 -11 -4 -10 -4 -11 -3 -11 -2 -11 -2 -11 -2 -11 -1 -12 0 0 0zm-1774 -20l1774 0 0 20 -1774 0 0 0 0 -20zm-224 244l-20 0 0 0 0 -12 1 -13 1 -12 3 -12 2 -12 4 -11 3 -12 5 -11 5 -11 5 -10 6 -10 6 -10 7 -10 7 -9 8 -9 8 -8 9 -9 8 -7 10 -7 9 -7 10 -7 10 -6 11 -5 11 -5 11 -4 11 -4 12 -3 12 -3 12 -2 12 -2 12 -1 13 0 0 20 -12 0 -11 1 -11 2 -11 2 -11 2 -11 3 -10 4 -10 4 -10 4 -10 5 -9 5 -10 6 -8 7 -9 6 -8 7 -8 8 -7 7 -7 9 -7 8 -6 9 -6 9 -5 9 -5 10 -5 10 -4 10 -3 10 -3 11 -3 11 -2 11 -1 11 -1 12 0 11 0 0zm-20 816l0 -816 20 0 0 816 -20 1 0 -1zm0 1l0 0 0 -1 0 1zm24 14l-18 9 0 1 0 -1 0 -1 -1 0 0 -1 0 -1 -1 0 0 -1 0 -1 -1 -1 0 0 0 -1 0 -1 -1 0 0 -1 0 -1 0 -1 -1 0 0 -1 0 -1 0 -1 0 0 0 -1 -1 -1 0 -1 0 -1 0 0 0 -1 0 -1 0 -1 0 0 0 -1 0 -1 20 -1 0 1 0 0 0 1 0 0 0 1 0 0 0 1 0 0 0 1 0 0 0 0 0 1 1 0 0 1 0 0 0 1 0 0 0 1 0 0 0 1 1 0 0 1 0 0 0 1 0 0 1 0 0 1 0 0 0 1 0 0 1 1 0 0 0 0zm0 0l0 0 0 0 0 0zm-4 35l-14 -26 18 -9 14 26 -18 9 0 0zm0 0l0 0 0 1 0 -1zm24 17l-20 0 0 0 0 -1 0 -1 0 0 0 -1 0 0 0 -1 0 0 0 -1 0 0 0 -1 0 0 -1 -1 0 0 0 -1 0 0 0 -1 0 0 0 -1 0 0 -1 -1 0 0 0 -1 0 0 0 -1 0 0 -1 -1 0 0 0 -1 0 0 -1 -1 0 0 0 -1 18 -9 0 1 0 0 1 1 0 1 0 1 1 0 0 1 0 1 1 1 0 0 0 1 0 1 1 1 0 1 0 0 0 1 1 1 0 1 0 1 0 0 0 1 0 1 1 1 0 1 0 1 0 0 0 1 0 1 0 1 0 1 0 1 0 1 0 0zm-20 1059l0 -1059 20 0 0 1059 0 0 -20 0zm13 26l-17 -10 0 0 0 0 0 -1 1 0 0 -1 0 0 0 -1 0 0 1 -1 0 0 0 -1 0 0 0 -1 1 0 0 -1 0 0 0 -1 0 0 0 -1 0 0 0 -1 1 0 0 -1 0 0 0 -1 0 0 0 -1 0 -1 0 0 0 -1 0 0 0 -1 0 0 20 0 0 1 0 0 0 1 0 1 0 1 0 1 0 1 0 1 0 0 -1 1 0 1 0 1 0 1 0 1 0 1 -1 0 0 1 0 1 0 1 -1 1 0 0 0 1 0 1 -1 1 0 1 0 0 -1 1 0 1 -1 1 0 0 0 1 -1 1 0 0zm-17 -10l0 0 0 0 0 0zm-14 26l14 -26 17 10 -13 26 0 0 -18 -10zm18 10l0 0 0 -1 0 1zm-4 14l-20 0 0 -1 0 0 0 -1 0 -1 0 -1 0 -1 0 0 0 -1 0 -1 0 -1 1 0 0 -1 0 -1 0 -1 0 0 0 -1 1 -1 0 -1 0 0 0 -1 0 -1 1 0 0 -1 0 -1 1 -1 0 0 0 -1 0 -1 1 0 0 -1 0 -1 1 0 0 -1 18 10 -1 0 0 0 0 1 0 0 0 1 -1 0 0 1 0 0 0 0 0 1 0 0 -1 1 0 0 0 1 0 0 0 1 0 0 0 1 0 0 -1 0 0 1 0 0 0 1 0 0 0 1 0 0 0 1 0 0 0 1 0 0 0 1 0 0 0 0zm-20 0l0 0 0 -1 0 1zm0 2224l0 -2224 20 0 0 2224 0 0 -20 0zm244 224l0 20 0 0 -13 0 -12 -1 -12 -2 -12 -2 -12 -3 -12 -3 -11 -4 -11 -4 -11 -5 -11 -5 -10 -6 -10 -7 -9 -6 -10 -8 -8 -7 -9 -8 -8 -9 -8 -9 -7 -9 -7 -10 -6 -10 -6 -10 -5 -10 -5 -11 -5 -11 -3 -12 -4 -11 -2 -12 -3 -12 -1 -12 -1 -13 0 -12 20 0 0 11 1 12 1 11 2 11 3 11 3 11 3 10 4 10 5 10 5 10 5 9 6 9 6 9 7 8 7 9 7 7 8 8 8 7 9 6 8 7 10 6 9 5 10 5 10 4 10 4 10 4 11 3 11 2 11 2 11 2 11 1 12 0 0 0zm77 20l-77 0 0 -20 77 0 0 20zm82 -4629l0 20 0 0 -11 1 -12 1 -11 1 -11 2 -11 2 -10 3 -11 4 -10 4 -10 4 -10 5 -9 6 -9 6 -9 6 -8 7 -8 7 -8 7 -8 8 -7 8 -6 8 -7 9 -5 9 -6 10 -5 9 -4 10 -4 10 -4 11 -3 10 -2 11 -2 11 -2 12 -1 11 0 11 -20 0 0 -12 1 -12 2 -13 2 -12 3 -12 3 -11 4 -11 4 -12 5 -10 6 -11 5 -10 7 -10 7 -10 7 -9 8 -9 8 -8 8 -8 9 -8 9 -7 10 -7 10 -6 10 -6 10 -6 11 -4 11 -5 12 -4 11 -3 12 -3 12 -2 12 -1 13 -1 12 -1 0 0zm497 20l-497 0 0 -20 497 0 0 20zm244 224l-20 0 0 0 0 -11 -1 -11 -2 -12 -2 -11 -2 -11 -3 -10 -4 -11 -4 -10 -4 -10 -5 -9 -5 -10 -6 -9 -7 -9 -6 -8 -7 -8 -8 -8 -7 -7 -9 -7 -8 -7 -9 -6 -9 -6 -9 -6 -10 -5 -10 -4 -10 -4 -10 -4 -11 -3 -11 -2 -11 -2 -11 -1 -12 -1 -11 -1 0 -20 12 1 13 1 12 1 12 2 12 3 11 3 12 4 11 5 11 4 10 6 10 6 10 6 10 7 9 7 9 8 9 8 8 8 7 9 8 9 6 10 7 10 6 10 5 11 5 10 4 12 4 11 3 11 3 12 2 12 2 13 1 12 0 12 0 0zm-20 891l0 -891 20 0 0 891 0 0 -20 0zm-224 244l0 -20 0 0 11 0 12 -1 11 -1 11 -2 11 -3 11 -3 10 -3 10 -4 10 -5 10 -5 9 -5 9 -6 9 -6 8 -7 9 -7 7 -7 8 -8 7 -8 6 -9 7 -9 6 -9 5 -9 5 -10 4 -10 4 -10 4 -10 3 -11 2 -11 2 -11 2 -11 1 -11 0 -12 20 0 0 13 -1 12 -2 12 -2 12 -3 12 -3 12 -4 11 -4 11 -5 11 -5 11 -6 10 -7 10 -6 9 -8 9 -7 9 -8 9 -9 8 -9 8 -9 7 -10 7 -10 6 -10 6 -10 5 -11 5 -11 4 -12 4 -11 4 -12 2 -12 2 -12 2 -13 1 -12 0 0 0zm-497 -20l497 0 0 20 -497 0 0 0 0 -20zm-244 -224l20 0 0 0 0 12 1 11 2 11 2 11 2 11 3 11 4 10 4 10 4 10 5 10 6 9 5 9 7 9 6 9 7 8 8 8 8 7 8 7 8 7 9 6 9 6 9 5 10 5 10 5 10 4 11 3 10 3 11 3 11 2 11 1 12 1 11 0 0 20 -12 0 -13 -1 -12 -2 -12 -2 -12 -2 -11 -4 -12 -4 -11 -4 -11 -5 -10 -5 -10 -6 -10 -6 -10 -7 -9 -7 -9 -8 -8 -8 -8 -9 -8 -9 -7 -9 -7 -9 -7 -10 -5 -10 -6 -11 -5 -11 -4 -11 -4 -11 -3 -12 -3 -12 -2 -12 -2 -12 -1 -12 0 -13 0 0zm20 -891l0 891 -20 0 0 -891 0 0 20 0z"/>
  </g>
 </g>
</svg>
