<?xml version="1.0" encoding="UTF-8"?>
<!DOCTYPE svg PUBLIC "-//W3C//DTD SVG 1.1//EN" "http://www.w3.org/Graphics/SVG/1.1/DTD/svg11.dtd">
<!-- Creator: CorelDRAW X8 -->
<svg xmlns="http://www.w3.org/2000/svg" xml:space="preserve" width="40mm" height="60mm" version="1.1" style="shape-rendering:geometricPrecision; text-rendering:geometricPrecision; image-rendering:optimizeQuality; fill-rule:evenodd; clip-rule:evenodd"
viewBox="0 0 4000 6000"
 xmlns:xlink="http://www.w3.org/1999/xlink">
 <defs>
  <style type="text/css">
   <![CDATA[
    .str0 {stroke:black;stroke-width:7.62}
    .fil0 {fill:none}
   ]]>
  </style>
 </defs>
 <g id="图层_x0020_1">
  <metadata id="CorelCorpID_0Corel-Layer"/>
  <path class="fil0 str0" d="M885 5350l2140 0c55,0 100,-45 100,-100l0 -4500c0,-55 -45,-100 -100,-100l-2050 0c-55,0 -100,45 -100,100l0 4500c0,55 45,100 100,100l221 0m1314 -4448c-1,-4 -4,-8 -12,-9 -28,0 -50,23 -50,50 0,28 22,50 50,50 27,0 50,-22 50,-50 0,-27 -23,-50 -50,-50m-533 -113c-5,-19 -16,-34 -63,-34l-40 0c-21,0 -38,17 -38,38l0 1c0,21 17,38 38,38l290 0c21,0 39,-17 39,-38l0 -1c0,-21 -18,-38 -39,-38l-250 0m-371 175c-3,-11 -7,-20 -27,-20l-16 0c-23,0 -42,19 -42,42l0 0c0,23 19,42 42,42l83 0c23,0 42,-19 42,-42l0 0c0,-23 -19,-42 -42,-42l-67 0m455 4320c-5,-19 -16,-34 -63,-34l-40 0c-21,0 -38,17 -38,38l0 0c0,21 17,38 38,38l290 0c21,0 39,-17 39,-38l0 0c0,-21 -18,-38 -39,-38l-250 0"/>
 </g>
</svg>
