<?xml version="1.0" encoding="UTF-8"?>
<!DOCTYPE svg PUBLIC "-//W3C//DTD SVG 1.1//EN" "http://www.w3.org/Graphics/SVG/1.1/DTD/svg11.dtd">
<!-- Creator: CorelDRAW X8 -->
<svg xmlns="http://www.w3.org/2000/svg" xml:space="preserve" width="40mm" height="60mm" version="1.1" style="shape-rendering:geometricPrecision; text-rendering:geometricPrecision; image-rendering:optimizeQuality; fill-rule:evenodd; clip-rule:evenodd"
viewBox="0 0 4000 6000"
 xmlns:xlink="http://www.w3.org/1999/xlink">
 <defs>
  <style type="text/css">
   <![CDATA[
    .str0 {stroke:black;stroke-width:7.62}
    .fil0 {fill:none}
   ]]>
  </style>
 </defs>
 <g id="图层_x0020_1">
  <metadata id="CorelCorpID_0Corel-Layer"/>
  <path class="fil0 str0" d="M951 5350l1916 0c120,0 218,-98 218,-219l0 -4262c0,-121 -98,-219 -218,-219l-1734 0c-120,0 -218,98 -218,219l0 4262c0,121 98,219 218,219l132 0m-108 -4549c-1,-6 -7,-13 -19,-14 -43,0 -78,35 -78,79 0,43 35,78 78,78 43,0 78,-35 78,-78 0,-44 -35,-79 -78,-79"/>
 </g>
</svg>
