<?xml version="1.0" encoding="UTF-8"?>
<!DOCTYPE svg PUBLIC "-//W3C//DTD SVG 1.1//EN" "http://www.w3.org/Graphics/SVG/1.1/DTD/svg11.dtd">
<!-- Creator: CorelDRAW X8 -->
<svg xmlns="http://www.w3.org/2000/svg" xml:space="preserve" width="40mm" height="60mm" version="1.1" style="shape-rendering:geometricPrecision; text-rendering:geometricPrecision; image-rendering:optimizeQuality; fill-rule:evenodd; clip-rule:evenodd"
viewBox="0 0 4000 6000"
 xmlns:xlink="http://www.w3.org/1999/xlink">
 <defs>
  <style type="text/css">
   <![CDATA[
    .str0 {stroke:black;stroke-width:7.62}
    .fil0 {fill:none}
   ]]>
  </style>
 </defs>
 <g id="图层_x0020_1">
  <metadata id="CorelCorpID_0Corel-Layer"/>
  <path class="fil0 str0" d="M2715 696c-1,-11 -11,-22 -31,-23 -73,0 -132,59 -132,132 0,73 59,132 132,132 73,0 132,-59 132,-132 0,-73 -59,-132 -132,-132m31 322c-1,-11 -11,-21 -31,-23 -73,0 -132,59 -132,132 0,73 59,132 132,132 73,0 132,-59 132,-132 0,-73 -59,-132 -132,-132m31 382c-1,-11 -11,-22 -31,-23 -73,0 -132,59 -132,132 0,73 59,132 132,132 73,0 132,-59 132,-132 0,-73 -59,-132 -132,-132m387 23c0,-11 -10,-22 -31,-23 -73,0 -132,59 -132,132 0,73 59,132 132,132 73,0 132,-59 132,-132 0,-73 -59,-132 -132,-132m23 -605c-1,-8 -8,-16 -23,-17 -53,0 -97,43 -97,97 0,53 44,97 97,97 54,0 97,-44 97,-97 0,-54 -43,-97 -97,-97m23 313c-1,-8 -8,-16 -23,-17 -53,0 -97,43 -97,97 0,53 44,97 97,97 54,0 97,-44 97,-97 0,-54 -43,-97 -97,-97m-501 -296l0 839c0,58 48,105 106,105l457 0c58,0 106,-47 106,-105l0 -792c0,-58 -48,-106 -106,-106l-457 0c-58,0 -106,48 -106,106l0 17c0,14 -14,29 -21,33m-666 -110c-1,-11 -10,-22 -31,-23 -73,0 -132,59 -132,132 0,73 59,132 132,132 73,0 132,-59 132,-132 0,-73 -59,-132 -132,-132m31 322c-1,-11 -10,-21 -31,-23 -73,0 -132,59 -132,132 0,73 59,132 132,132 73,0 132,-59 132,-132 0,-73 -59,-132 -132,-132m31 382c-1,-11 -10,-22 -31,-23 -73,0 -132,59 -132,132 0,73 59,132 132,132 73,0 132,-59 132,-132 0,-73 -59,-132 -132,-132m388 23c-1,-11 -11,-22 -32,-23 -73,0 -132,59 -132,132 0,73 59,132 132,132 73,0 132,-59 132,-132 0,-73 -59,-132 -132,-132m23 -605c0,-8 -8,-16 -23,-17 -53,0 -96,43 -96,97 0,53 43,97 96,97 54,0 97,-44 97,-97 0,-54 -43,-97 -97,-97m23 313c0,-8 -8,-16 -23,-17 -53,0 -96,43 -96,97 0,53 43,97 96,97 54,0 97,-44 97,-97 0,-54 -43,-97 -97,-97m-501 -296l0 839c0,58 48,105 106,105l458 0c58,0 105,-47 105,-105l0 -792c0,-58 -47,-106 -105,-106l-458 0c-58,0 -106,48 -106,106l0 17c0,14 -14,29 -21,33m-665 -110c-1,-11 -11,-22 -32,-23 -73,0 -132,59 -132,132 0,73 59,132 132,132 73,0 132,-59 132,-132 0,-73 -59,-132 -132,-132m32 322c-1,-11 -11,-21 -32,-23 -73,0 -132,59 -132,132 0,73 59,132 132,132 73,0 132,-59 132,-132 0,-73 -59,-132 -132,-132m32 382c-1,-11 -11,-22 -32,-23 -73,0 -132,59 -132,132 0,73 59,132 132,132 73,0 132,-59 132,-132 0,-73 -59,-132 -132,-132m388 23c-1,-11 -11,-22 -31,-23 -73,0 -132,59 -132,132 0,73 59,132 132,132 73,0 132,-59 132,-132 0,-73 -59,-132 -132,-132m22 -605c0,-8 -7,-16 -22,-17 -54,0 -97,43 -97,97 0,53 43,97 97,97 53,0 96,-44 96,-97 0,-54 -43,-97 -96,-97m22 313c0,-8 -7,-16 -22,-17 -54,0 -97,43 -97,97 0,53 43,97 97,97 53,0 96,-44 96,-97 0,-54 -43,-97 -96,-97m-501 -296l0 839c0,58 47,105 105,105l458 0c58,0 105,-47 105,-105l0 -792c0,-58 -47,-106 -105,-106l-458 0c-58,0 -105,48 -105,106l0 17c0,14 -15,29 -22,33m1923 1756c-1,-11 -11,-22 -31,-23 -73,0 -132,59 -132,132 0,73 59,132 132,132 73,0 132,-59 132,-132 0,-73 -59,-132 -132,-132m31 322c-1,-11 -11,-21 -31,-23 -73,0 -132,59 -132,132 0,73 59,132 132,132 73,0 132,-59 132,-132 0,-73 -59,-132 -132,-132m31 382c-1,-11 -11,-22 -31,-23 -73,0 -132,59 -132,132 0,73 59,132 132,132 73,0 132,-59 132,-132 0,-73 -59,-132 -132,-132m387 23c0,-11 -10,-22 -31,-23 -73,0 -132,59 -132,132 0,73 59,132 132,132 73,0 132,-59 132,-132 0,-73 -59,-132 -132,-132m23 -605c-1,-8 -8,-16 -23,-17 -53,0 -97,43 -97,97 0,53 44,97 97,97 54,0 97,-44 97,-97 0,-54 -43,-97 -97,-97m23 313c-1,-8 -8,-16 -23,-17 -53,0 -97,43 -97,97 0,53 44,96 97,96 54,0 97,-43 97,-96 0,-54 -43,-97 -97,-97m-501 -296l0 839c0,58 48,105 106,105l457 0c58,0 106,-47 106,-105l0 -792c0,-59 -48,-106 -106,-106l-457 0c-58,0 -106,47 -106,106l0 17c0,14 -14,29 -21,33m-666 -110c-1,-11 -10,-22 -31,-23 -73,0 -132,59 -132,132 0,73 59,132 132,132 73,0 132,-59 132,-132 0,-73 -59,-132 -132,-132m31 322c-1,-11 -10,-21 -31,-23 -73,0 -132,59 -132,132 0,73 59,132 132,132 73,0 132,-59 132,-132 0,-73 -59,-132 -132,-132m31 382c-1,-11 -10,-22 -31,-23 -73,0 -132,59 -132,132 0,73 59,132 132,132 73,0 132,-59 132,-132 0,-73 -59,-132 -132,-132m388 23c-1,-11 -11,-22 -32,-23 -73,0 -132,59 -132,132 0,73 59,132 132,132 73,0 132,-59 132,-132 0,-73 -59,-132 -132,-132m23 -605c0,-8 -8,-16 -23,-17 -53,0 -96,43 -96,97 0,53 43,97 96,97 54,0 97,-44 97,-97 0,-54 -43,-97 -97,-97m23 313c0,-8 -8,-16 -23,-17 -53,0 -96,43 -96,97 0,53 43,96 96,96 54,0 97,-43 97,-96 0,-54 -43,-97 -97,-97m-501 -296l0 839c0,58 48,105 106,105l458 0c58,0 105,-47 105,-105l0 -792c0,-59 -47,-106 -105,-106l-458 0c-58,0 -106,47 -106,106l0 17c0,14 -14,29 -21,33m-665 -110c-1,-11 -11,-22 -32,-23 -73,0 -132,59 -132,132 0,73 59,132 132,132 73,0 132,-59 132,-132 0,-73 -59,-132 -132,-132m32 322c-1,-11 -11,-21 -32,-23 -73,0 -132,59 -132,132 0,73 59,132 132,132 73,0 132,-59 132,-132 0,-73 -59,-132 -132,-132m32 382c-1,-11 -11,-22 -32,-23 -73,0 -132,59 -132,132 0,73 59,132 132,132 73,0 132,-59 132,-132 0,-73 -59,-132 -132,-132m388 23c-1,-11 -11,-22 -31,-23 -73,0 -132,59 -132,132 0,73 59,132 132,132 73,0 132,-59 132,-132 0,-73 -59,-132 -132,-132m22 -605c0,-8 -7,-16 -22,-17 -54,0 -97,43 -97,97 0,53 43,97 97,97 53,0 96,-44 96,-97 0,-54 -43,-97 -96,-97m22 313c0,-8 -7,-16 -22,-17 -54,0 -97,43 -97,97 0,53 43,96 97,96 53,0 96,-43 96,-96 0,-54 -43,-97 -96,-97m-501 -296l0 839c0,58 47,105 105,105l458 0c58,0 105,-47 105,-105l0 -792c0,-59 -47,-106 -105,-106l-458 0c-58,0 -105,47 -105,106l0 17c0,14 -15,29 -22,33m1923 1721c-1,-12 -11,-22 -31,-24 -73,0 -132,60 -132,132 0,73 59,132 132,132 73,0 132,-59 132,-132 0,-72 -59,-132 -132,-132m31 323c-1,-11 -11,-22 -31,-23 -73,0 -132,59 -132,132 0,73 59,132 132,132 73,0 132,-59 132,-132 0,-73 -59,-132 -132,-132m31 382c-1,-12 -11,-22 -31,-24 -73,0 -132,59 -132,132 0,73 59,132 132,132 73,0 132,-59 132,-132 0,-73 -59,-132 -132,-132m387 24c0,-12 -10,-22 -31,-24 -73,0 -132,59 -132,132 0,73 59,132 132,132 73,0 132,-59 132,-132 0,-73 -59,-132 -132,-132m23 -604c-1,-8 -8,-16 -23,-17 -53,0 -97,43 -97,97 0,53 44,96 97,96 54,0 97,-43 97,-96 0,-54 -43,-97 -97,-97m23 313c-1,-9 -8,-16 -23,-17 -53,0 -97,43 -97,96 0,54 44,97 97,97 54,0 97,-43 97,-97 0,-53 -43,-96 -97,-96m-501 -296l0 838c0,58 48,106 106,106l457 0c58,0 106,-48 106,-106l0 -792c0,-58 -48,-105 -106,-105l-457 0c-58,0 -106,47 -106,105l0 18c0,13 -14,28 -21,33m-666 -110c-1,-12 -10,-22 -31,-24 -73,0 -132,60 -132,132 0,73 59,132 132,132 73,0 132,-59 132,-132 0,-72 -59,-132 -132,-132m31 323c-1,-11 -10,-22 -31,-23 -73,0 -132,59 -132,132 0,73 59,132 132,132 73,0 132,-59 132,-132 0,-73 -59,-132 -132,-132m31 382c-1,-12 -10,-22 -31,-24 -73,0 -132,59 -132,132 0,73 59,132 132,132 73,0 132,-59 132,-132 0,-73 -59,-132 -132,-132m388 24c-1,-12 -11,-22 -32,-24 -73,0 -132,59 -132,132 0,73 59,132 132,132 73,0 132,-59 132,-132 0,-73 -59,-132 -132,-132m23 -604c0,-8 -8,-16 -23,-17 -53,0 -96,43 -96,97 0,53 43,96 96,96 54,0 97,-43 97,-96 0,-54 -43,-97 -97,-97m23 313c0,-9 -8,-16 -23,-17 -53,0 -96,43 -96,96 0,54 43,97 96,97 54,0 97,-43 97,-97 0,-53 -43,-96 -97,-96m-501 -296l0 838c0,58 48,106 106,106l458 0c58,0 105,-48 105,-106l0 -792c0,-58 -47,-105 -105,-105l-458 0c-58,0 -106,47 -106,105l0 18c0,13 -14,28 -21,33m-665 -110c-1,-12 -11,-22 -32,-24 -73,0 -132,60 -132,132 0,73 59,132 132,132 73,0 132,-59 132,-132 0,-72 -59,-132 -132,-132m32 323c-1,-11 -11,-22 -32,-23 -73,0 -132,59 -132,132 0,73 59,132 132,132 73,0 132,-59 132,-132 0,-73 -59,-132 -132,-132m32 382c-1,-12 -11,-22 -32,-24 -73,0 -132,59 -132,132 0,73 59,132 132,132 73,0 132,-59 132,-132 0,-73 -59,-132 -132,-132m388 24c-1,-12 -11,-22 -31,-24 -73,0 -132,59 -132,132 0,73 59,132 132,132 73,0 132,-59 132,-132 0,-73 -59,-132 -132,-132m22 -604c0,-8 -7,-16 -22,-17 -54,0 -97,43 -97,97 0,53 43,96 97,96 53,0 96,-43 96,-96 0,-54 -43,-97 -96,-97m22 313c0,-9 -7,-16 -22,-17 -54,0 -97,43 -97,96 0,54 43,97 97,97 53,0 96,-43 96,-97 0,-53 -43,-96 -96,-96m-501 -296l0 838c0,58 47,106 105,106l458 0c58,0 105,-48 105,-106l0 -792c0,-58 -47,-105 -105,-105l-458 0c-58,0 -105,47 -105,105l0 18c0,13 -15,28 -22,33"/>
 </g>
</svg>
