<?xml version="1.0" encoding="UTF-8"?>
<!DOCTYPE svg PUBLIC "-//W3C//DTD SVG 1.1//EN" "http://www.w3.org/Graphics/SVG/1.1/DTD/svg11.dtd">
<!-- Creator: CorelDRAW X8 -->
<svg xmlns="http://www.w3.org/2000/svg" xml:space="preserve" width="40mm" height="60mm" version="1.1" style="shape-rendering:geometricPrecision; text-rendering:geometricPrecision; image-rendering:optimizeQuality; fill-rule:evenodd; clip-rule:evenodd"
viewBox="0 0 4000 6000"
 xmlns:xlink="http://www.w3.org/1999/xlink">
 <defs>
  <style type="text/css">
   <![CDATA[
    .str0 {stroke:black;stroke-width:7.62}
    .fil0 {fill:none}
   ]]>
  </style>
 </defs>
 <g id="图层_x0020_1">
  <metadata id="CorelCorpID_0Corel-Layer"/>
  <path class="fil0 str0" d="M1921 1931c-43,12 -75,28 -75,102l0 11c0,85 71,155 156,155l0 0c85,0 155,-70 155,-155l0 -80c0,-86 -70,-155 -155,-155l0 0c-86,0 -156,70 -156,155l0 69m-513 -1075c0,-8 -7,-16 -22,-17 -53,0 -96,43 -96,96 0,53 43,96 96,96 53,0 96,-43 96,-96 0,-53 -43,-96 -96,-96m22 312c0,-8 -7,-16 -22,-17 -53,0 -96,43 -96,96 0,53 43,96 96,96 53,0 96,-43 96,-96 0,-53 -43,-96 -96,-96m22 309c0,-8 -7,-15 -22,-17 -53,0 -96,43 -96,96 0,54 43,97 96,97 53,0 96,-43 96,-97 0,-53 -43,-96 -96,-96m17 338c0,-6 -5,-11 -16,-12 -36,0 -66,30 -66,67 0,37 30,66 66,66 37,0 67,-29 67,-66 0,-37 -30,-67 -67,-67m-2 -944l0 0c71,0 129,57 129,128l0 881c0,71 -58,128 -129,128l0 0c-71,0 -129,-57 -129,-128l0 -881c0,-71 58,-128 129,-128zm-1 -51l0 0c94,0 171,77 171,171l0 901c0,94 -77,171 -171,171l0 0c-94,0 -171,-77 -171,-171l0 -901c0,-94 77,-171 171,-171zm-290 4463l1782 0c186,0 337,-152 337,-337l0 -3998c0,-185 -151,-337 -337,-337l-1602 0c-186,0 -337,152 -337,337l0 3998c0,185 151,337 337,337l44 0c28,0 57,11 73,28"/>
 </g>
</svg>
