<?xml version="1.0" encoding="UTF-8"?>
<!DOCTYPE svg PUBLIC "-//W3C//DTD SVG 1.1//EN" "http://www.w3.org/Graphics/SVG/1.1/DTD/svg11.dtd">
<!-- Creator: CorelDRAW X8 -->
<svg xmlns="http://www.w3.org/2000/svg" xml:space="preserve" width="40mm" height="60mm" version="1.1" style="shape-rendering:geometricPrecision; text-rendering:geometricPrecision; image-rendering:optimizeQuality; fill-rule:evenodd; clip-rule:evenodd"
viewBox="0 0 4000 6000"
 xmlns:xlink="http://www.w3.org/1999/xlink">
 <defs>
  <style type="text/css">
   <![CDATA[
    .str0 {stroke:#332C2B;stroke-width:10}
    .fil0 {fill:none}
   ]]>
  </style>
 </defs>
 <g id="图层_x0020_1">
  <metadata id="CorelCorpID_0Corel-Layer"/>
  <path class="fil0 str0" d="M2133 1017c3,-74 -84,-132 -116,-135 -113,0 -204,92 -204,204 0,113 91,204 204,204 113,0 204,-91 204,-204 0,-112 -91,-204 -204,-204m42 508c1,-30 -34,-53 -47,-54 -45,0 -81,37 -81,82 0,45 36,81 81,81 45,0 82,-36 82,-81 0,-45 -37,-82 -82,-82m-130 3724c-5,-21 -16,-37 -66,-37l-43 0c-22,0 -41,19 -41,41l0 0c0,23 19,41 41,41l478 0c23,0 41,-18 41,-41l0 0c0,-22 -18,-41 -41,-41l-435 0m-786 327l1835 0c135,0 245,-110 245,-245l0 -4210c0,-135 -110,-245 -245,-245l-1730 0c-135,0 -245,110 -245,245l0 4210c0,135 110,245 245,245l191 0"/>
 </g>
</svg>
