<?xml version="1.0" encoding="UTF-8"?>
<!DOCTYPE svg PUBLIC "-//W3C//DTD SVG 1.1//EN" "http://www.w3.org/Graphics/SVG/1.1/DTD/svg11.dtd">
<!-- Creator: CorelDRAW -->
<svg xmlns="http://www.w3.org/2000/svg" xml:space="preserve" width="40mm" height="60mm" style="shape-rendering:geometricPrecision; text-rendering:geometricPrecision; image-rendering:optimizeQuality; fill-rule:evenodd; clip-rule:evenodd"
viewBox="0 0 40 60"
 xmlns:xlink="http://www.w3.org/1999/xlink">
 <defs>
  <style type="text/css">
   <![CDATA[
    .str0 {stroke:#1F1A17;stroke-width:0.194}
    .fil0 {fill:none;fill-rule:nonzero}
   ]]>
  </style>
 </defs>
 <g id="图层_x0020_8">
  <metadata id="CorelCorpID_0Corel-Layer"/>
  <path class="fil0 str0" d="M30.8554 7.5991l-0.0255 44.933m-1.4617 -46.0321c0.5275,0 0.6507,0.0302 0.9063,0.2231 0.3334,0.2498 0.56,0.5902 0.5809,0.876m-20.4471 -1.0956l18.9599 -0.0035m-20.1892 23.4925c-0.0255,-4.6976 -0.0371,-9.3952 -0.0337,-14.0939 0.0059,-5.763 0.0431,-8.0671 0.1383,-8.3529 0.1894,-0.5751 0.6553,-1.0062 1.1247,-1.0422m-1.1084 45.9717l-0.1209 -22.4827m1.2491 23.4982c-0.4938,-0.0453 -1.0318,-0.5298 -1.1282,-1.0155m1.1282 1.0155l19.1167 0.0093c0.3114,-0.0395 0.3672,-0.0512 0.4985,-0.1034 0.352,-0.1383 0.711,-0.5334 0.7866,-0.8645m-12.6754 -1.8076l3.7896 0c0.4017,0 0.7303,0.3144 0.7303,0.6988l0 0.6299c0,0.3844 -0.3286,0.6988 -0.7303,0.6988l-3.7896 0c-0.4017,0 -0.7302,-0.3144 -0.7302,-0.6988l0 -0.6299c0,-0.3844 0.3285,-0.6988 0.7302,-0.6988zm0.5197 -43.3399l5.0883 0c0.3679,0 0.6689,0.2685 0.6689,0.5966l0 0c0,0.3281 -0.301,0.5965 -0.6689,0.5965l-5.0883 0c-0.3679,0 -0.6689,-0.2684 -0.6689,-0.5965l0 0c0,-0.3281 0.301,-0.5966 0.6689,-0.5966zm-3.5135 -0.194c0.4465,0 0.8085,0.3658 0.8085,0.8169 0,0.4511 -0.362,0.817 -0.8085,0.817 -0.4464,0 -0.8085,-0.3659 -0.8085,-0.817 0,-0.4511 0.3621,-0.8169 0.8085,-0.8169z"/>
 </g>
</svg>
