<?xml version="1.0" encoding="UTF-8"?>
<!DOCTYPE svg PUBLIC "-//W3C//DTD SVG 1.1//EN" "http://www.w3.org/Graphics/SVG/1.1/DTD/svg11.dtd">
<!-- Creator: CorelDRAW X8 -->
<svg xmlns="http://www.w3.org/2000/svg" xml:space="preserve" width="40mm" height="60mm" version="1.1" style="shape-rendering:geometricPrecision; text-rendering:geometricPrecision; image-rendering:optimizeQuality; fill-rule:evenodd; clip-rule:evenodd"
viewBox="0 0 4000 6000"
 xmlns:xlink="http://www.w3.org/1999/xlink">
 <defs>
  <style type="text/css">
   <![CDATA[
    .str0 {stroke:#332C2B;stroke-width:19.4}
    .fil0 {fill:none;fill-rule:nonzero}
   ]]>
  </style>
 </defs>
 <g id="图层_x0020_1">
  <metadata id="CorelCorpID_0Corel-Layer"/>
  <g id="_3074025256656">
   <line class="fil0 str0" x1="1172" y1="5350" x2="2840" y2= "5349" />
   <path class="fil0 str0" d="M2840 5349c106,-3 212,-104 215,-206"/>
   <line class="fil0 str0" x1="3055" y1="5143" x2="3061" y2= "895" />
   <path class="fil0 str0" d="M3061 895c-8,-135 -102,-236 -223,-240"/>
   <polyline class="fil0 str0" points="2838,655 2217,655 2217,656 2217,658 2218,659 2213,662 2213,663 2216,665 2208,678 2208,677 2208,677 2208,677 2204,684 "/>
   <path class="fil0 str0" d="M2204 684c-1,-1 -2,-1 -2,-2"/>
   <polyline class="fil0 str0" points="2202,682 2196,688 2195,687 2195,686 2195,685 2195,684 "/>
   <path class="fil0 str0" d="M2195 684c-12,3 -69,4 -146,4 -114,0 -197,-2 -249,-8"/>
   <polyline class="fil0 str0" points="1800,680 1800,677 1801,677 1801,677 1795,671 1797,670 1798,670 1793,663 1794,663 1787,650 1787,650 "/>
   <path class="fil0 str0" d="M1787 650c-1,1 -2,2 -3,4"/>
   <polyline class="fil0 str0" points="1784,654 1778,651 1777,651 1777,653 1776,655 1159,656 "/>
   <path class="fil0 str0" d="M1159 656c-105,11 -201,108 -204,206"/>
   <line class="fil0 str0" x1="955" y1="862" x2="940" y2= "4354" />
   <path class="fil0 str0" d="M940 4354c-3,703 0,785 33,857 40,86 108,132 206,138 3,1 5,1 7,1"/>
  </g>
 </g>
</svg>
