<?xml version="1.0" encoding="UTF-8"?>
<!DOCTYPE svg PUBLIC "-//W3C//DTD SVG 1.1//EN" "http://www.w3.org/Graphics/SVG/1.1/DTD/svg11.dtd">
<!-- Creator: CorelDRAW X8 -->
<svg xmlns="http://www.w3.org/2000/svg" xml:space="preserve" width="40mm" height="60mm" version="1.1" style="shape-rendering:geometricPrecision; text-rendering:geometricPrecision; image-rendering:optimizeQuality; fill-rule:evenodd; clip-rule:evenodd"
viewBox="0 0 4000 6000"
 xmlns:xlink="http://www.w3.org/1999/xlink">
 <defs>
  <style type="text/css">
   <![CDATA[
    .str0 {stroke:black;stroke-width:20}
    .fil0 {fill:none}
   ]]>
  </style>
 </defs>
 <g id="图层_x0020_1">
  <metadata id="CorelCorpID_0Corel-Layer"/>
  <path class="fil0 str0" d="M1299 913c-143,0 -259,116 -259,258l0 489c0,143 116,259 259,259l421 0c142,0 258,-116 258,-259l0 -489c0,-142 -116,-258 -258,-258l-421 0zm819 1739c-79,18 -113,53 -113,129 69,-14 110,-42 113,-129zm-104 155l-10 0c-29,-12 -47,-35 -85,-36 -63,-1 -120,41 -141,99 -21,59 -10,146 10,204 20,56 71,145 137,148 12,0 21,-3 31,-8 23,-11 39,-22 66,-22 14,0 24,4 35,10 18,11 28,18 50,18 35,0 75,-31 92,-60 20,-32 38,-69 55,-102 -120,-71 -88,-161 -20,-217 -57,-87 -137,-82 -220,-34zm-317 2497c12,0 22,-6 28,-16 6,-10 6,-23 0,-33 -6,-10 -16,-16 -28,-16l-306 0c-18,0 -33,14 -33,32 0,19 15,33 33,33l306 0zm135 -3c16,0 29,-13 29,-30 0,-16 -13,-29 -29,-29 -17,0 -30,13 -30,29 0,17 13,30 30,30zm252 4c12,0 23,-7 29,-17 6,-10 6,-23 0,-33 -6,-10 -17,-17 -29,-17l-157 0c-18,0 -33,15 -33,33 0,19 15,34 33,34l157 0zm96 -4c16,0 30,-13 30,-30 0,-16 -14,-29 -30,-29 -17,0 -30,13 -30,29 0,17 13,30 30,30zm134 3l184 0c12,0 22,-6 28,-16 6,-10 6,-23 0,-33 -6,-10 -16,-16 -28,-16l-184 0c-18,0 -32,14 -32,32 0,19 14,33 32,33zm378 -4654l514 0c18,0 33,15 33,33l0 83c0,19 -15,34 -33,34l-481 0c-41,0 -43,40 -1,40 194,9 300,135 300,338l188 0c14,0 16,0 16,14l0 390c0,32 -10,33 -26,33l-39 0c-55,0 -62,8 -62,63l0 896c0,63 7,63 62,63l30 0c36,0 35,-5 35,31l0 275c0,37 2,33 -34,33l-31 0c-54,0 -62,8 -62,62l0 352c0,69 16,63 62,63l32 0c36,0 33,-3 33,33l0 1304c0,15 -2,15 -14,15l-186 -1c-5,185 -85,320 -298,336 -46,3 -43,60 1,60l472 0c18,0 33,15 33,34l0 83c0,18 -15,33 -33,33l-509 0c-680,0 -994,-1 -1898,0 -18,0 -33,-15 -33,-33l0 -83c0,-19 15,-34 33,-34l474 0c55,0 53,-57 11,-59 -203,-11 -306,-132 -306,-336l-188 0c-18,0 -16,2 -16,-16l0 -2210c0,-39 1,-38 33,-38l31 0c61,0 62,-4 62,-62l0 -407c0,-57 0,-62 -62,-62l-34 0c-32,0 -30,-3 -30,-41l0 -777c0,-11 2,-14 13,-14l190 1c0,-193 95,-330 304,-340 34,0 41,-39 -6,-39l-478 0c-18,0 -33,-15 -33,-34l0 -83c0,-18 15,-33 33,-33l493 0 1407 0"/>
 </g>
</svg>
