<?xml version="1.0" encoding="UTF-8"?>
<!DOCTYPE svg PUBLIC "-//W3C//DTD SVG 1.1//EN" "http://www.w3.org/Graphics/SVG/1.1/DTD/svg11.dtd">
<!-- Creator: CorelDRAW X8 -->
<svg xmlns="http://www.w3.org/2000/svg" xml:space="preserve" width="40mm" height="60mm" version="1.1" style="shape-rendering:geometricPrecision; text-rendering:geometricPrecision; image-rendering:optimizeQuality; fill-rule:evenodd; clip-rule:evenodd"
viewBox="0 0 4000 6000"
 xmlns:xlink="http://www.w3.org/1999/xlink">
 <defs>
  <style type="text/css">
   <![CDATA[
    .str0 {stroke:black;stroke-width:7.62}
    .fil0 {fill:none}
   ]]>
  </style>
 </defs>
 <g id="图层_x0020_1">
  <metadata id="CorelCorpID_0Corel-Layer"/>
  <path class="fil0 str0" d="M984 5350l1873 0c109,0 199,-90 199,-199l0 -4302c0,-109 -90,-199 -199,-199l-1714 0c-109,0 -199,90 -199,199l0 4302c0,109 90,199 199,199l231 0m-199 -4576c-1,-5 -5,-10 -15,-11 -34,0 -62,28 -62,62 0,35 28,63 62,63 35,0 63,-28 63,-63 0,-34 -28,-62 -63,-62"/>
 </g>
</svg>
