<?xml version="1.0" encoding="UTF-8"?>
<!DOCTYPE svg PUBLIC "-//W3C//DTD SVG 1.1//EN" "http://www.w3.org/Graphics/SVG/1.1/DTD/svg11.dtd">
<!-- Creator: CorelDRAW X8 -->
<svg xmlns="http://www.w3.org/2000/svg" xml:space="preserve" width="40mm" height="60mm" version="1.1" style="shape-rendering:geometricPrecision; text-rendering:geometricPrecision; image-rendering:optimizeQuality; fill-rule:evenodd; clip-rule:evenodd"
viewBox="0 0 4000 6000"
 xmlns:xlink="http://www.w3.org/1999/xlink">
 <defs>
  <style type="text/css">
   <![CDATA[
    .str0 {stroke:black;stroke-width:20}
    .fil0 {fill:none}
   ]]>
  </style>
 </defs>
 <g id="图层_x0020_1">
  <metadata id="CorelCorpID_0Corel-Layer"/>
  <g id="_2121230319088">
   <path class="fil0 str0" d="M1199 2147c412,0 749,-337 749,-748l0 0c0,-412 -337,-749 -749,-749l0 0c-411,0 -748,337 -748,749l0 0c0,411 337,748 748,748 412,0 573,0 573,0"/>
   <path class="fil0 str0" d="M2801 2147c411,0 748,-337 748,-748l0 0c0,-412 -337,-749 -748,-749l0 0c-412,0 -749,337 -749,749l0 0c0,411 337,748 749,748 411,0 573,0 573,0"/>
   <path class="fil0 str0" d="M1199 3749c412,0 749,-337 749,-749l0 0c0,-412 -337,-749 -749,-749l0 0c-411,0 -748,337 -748,749l0 0c0,412 337,749 748,749 412,0 573,0 573,0"/>
   <path class="fil0 str0" d="M2801 3749c411,0 748,-337 748,-749l0 0c0,-412 -337,-749 -748,-749l0 0c-412,0 -749,337 -749,749l0 0c0,412 337,749 749,749 411,0 573,0 573,0"/>
   <path class="fil0 str0" d="M1199 5350c412,0 749,-337 749,-749l0 0c0,-411 -337,-748 -749,-748l0 0c-411,0 -748,337 -748,748l0 0c0,412 337,749 748,749 412,0 573,0 573,0"/>
   <path class="fil0 str0" d="M2801 5350c411,0 748,-337 748,-749l0 0c0,-411 -337,-748 -748,-748l0 0c-412,0 -749,337 -749,748l0 0c0,412 337,749 749,749 411,0 573,0 573,0"/>
  </g>
  <path class="fil0 str0" d="M-16208 5723c0,-1183 -968,-2150 -2150,-2150l0 0c-1183,0 -2150,967 -2150,2150l0 0c0,1182 967,2150 2150,2150l0 0c1182,0 2150,-968 2150,-2150 0,-1183 0,-1645 0,-1645"/>
  <path class="fil0 str0" d="M-16208 1123c0,-1183 -968,-2150 -2150,-2150l0 0c-1183,0 -2150,967 -2150,2150l0 0c0,1182 967,2150 2150,2150l0 0c1182,0 2150,-968 2150,-2150 0,-1183 0,-1645 0,-1645"/>
  <path class="fil0 str0" d="M-11608 5723c0,-1183 -968,-2150 -2150,-2150l0 0c-1183,0 -2150,967 -2150,2150l0 0c0,1182 967,2150 2150,2150l0 0c1182,0 2150,-968 2150,-2150 0,-1183 0,-1645 0,-1645"/>
  <path class="fil0 str0" d="M-11608 1123c0,-1183 -968,-2150 -2150,-2150l0 0c-1183,0 -2150,967 -2150,2150l0 0c0,1182 967,2150 2150,2150l0 0c1182,0 2150,-968 2150,-2150 0,-1183 0,-1645 0,-1645"/>
  <path class="fil0 str0" d="M-7008 5723c0,-1183 -968,-2150 -2150,-2150l0 0c-1183,0 -2150,967 -2150,2150l0 0c0,1182 967,2150 2150,2150l0 0c1182,0 2150,-968 2150,-2150 0,-1183 0,-1645 0,-1645"/>
  <path class="fil0 str0" d="M-7008 1123c0,-1183 -968,-2150 -2150,-2150l0 0c-1183,0 -2150,967 -2150,2150l0 0c0,1182 967,2150 2150,2150l0 0c1182,0 2150,-968 2150,-2150 0,-1183 0,-1645 0,-1645"/>
 </g>
</svg>
