<?xml version="1.0" encoding="UTF-8"?>
<!DOCTYPE svg PUBLIC "-//W3C//DTD SVG 1.1//EN" "http://www.w3.org/Graphics/SVG/1.1/DTD/svg11.dtd">
<!-- Creator: CorelDRAW X8 -->
<svg xmlns="http://www.w3.org/2000/svg" xml:space="preserve" width="40mm" height="60mm" version="1.1" style="shape-rendering:geometricPrecision; text-rendering:geometricPrecision; image-rendering:optimizeQuality; fill-rule:evenodd; clip-rule:evenodd"
viewBox="0 0 4000 6000"
 xmlns:xlink="http://www.w3.org/1999/xlink">
 <defs>
  <style type="text/css">
   <![CDATA[
    .str0 {stroke:black;stroke-width:7.62}
    .fil0 {fill:none}
   ]]>
  </style>
 </defs>
 <g id="图层_x0020_1">
  <metadata id="CorelCorpID_0Corel-Layer"/>
  <path class="fil0 str0" d="M2557 746c0,-3 -3,-6 -8,-6 -20,0 -35,16 -35,35 0,20 15,35 35,35 19,0 35,-15 35,-35 0,-19 -16,-35 -35,-35m-584 33c-6,-23 -19,-41 -75,-41l-48 0c-25,0 -46,21 -46,46l0 0c0,25 21,46 46,46l319 0c25,0 46,-21 46,-46l0 0c0,-25 -21,-46 -46,-46l-271 0m-537 -9c-1,-5 -5,-10 -15,-11 -34,0 -62,28 -62,62 0,34 28,62 62,62 34,0 62,-28 62,-62 0,-34 -28,-62 -62,-62m-400 4615l1966 0c124,0 226,-101 226,-226l0 -4225c0,-124 -102,-226 -226,-226l-1808 0c-124,0 -226,102 -226,226l0 4225c0,125 102,226 226,226l87 0c44,0 75,9 91,23"/>
 </g>
</svg>
