<?xml version="1.0" encoding="UTF-8"?>
<!DOCTYPE svg PUBLIC "-//W3C//DTD SVG 1.1//EN" "http://www.w3.org/Graphics/SVG/1.1/DTD/svg11.dtd">
<!-- Creator: CorelDRAW X8 -->
<svg xmlns="http://www.w3.org/2000/svg" xml:space="preserve" width="40mm" height="60mm" version="1.1" style="shape-rendering:geometricPrecision; text-rendering:geometricPrecision; image-rendering:optimizeQuality; fill-rule:evenodd; clip-rule:evenodd"
viewBox="0 0 4000 6000"
 xmlns:xlink="http://www.w3.org/1999/xlink">
 <defs>
  <style type="text/css">
   <![CDATA[
    .str0 {stroke:black;stroke-width:7.62}
    .fil0 {fill:none}
   ]]>
  </style>
 </defs>
 <g id="图层_x0020_1">
  <metadata id="CorelCorpID_0Corel-Layer"/>
  <path class="fil0 str0" d="M970 5350l1893 0c128,0 233,-104 233,-232l0 -4236c0,-128 -105,-232 -233,-232l-565 0c-2,0 -3,0 -4,2l-6 5c-1,2 -3,2 -6,2l-161 0c-19,0 -36,8 -36,34l0 38c0,44 -37,80 -81,80l0 0c-44,0 -80,-36 -80,-80l0 -41c0,-24 -16,-31 -35,-31l-162 0c-3,0 -4,0 -7,-2l-7 -5c-2,-2 -3,-2 -7,-2l-569 0c-128,0 -233,104 -233,232l0 4236c0,128 105,232 233,232l47 0"/>
 </g>
</svg>
