<?xml version="1.0" encoding="UTF-8"?>
<!DOCTYPE svg PUBLIC "-//W3C//DTD SVG 1.1//EN" "http://www.w3.org/Graphics/SVG/1.1/DTD/svg11.dtd">
<!-- Creator: CorelDRAW X8 -->
<svg xmlns="http://www.w3.org/2000/svg" xml:space="preserve" width="40mm" height="60mm" version="1.1" style="shape-rendering:geometricPrecision; text-rendering:geometricPrecision; image-rendering:optimizeQuality; fill-rule:evenodd; clip-rule:evenodd"
viewBox="0 0 4000 6000"
 xmlns:xlink="http://www.w3.org/1999/xlink">
 <defs>
  <style type="text/css">
   <![CDATA[
    .str0 {stroke:black;stroke-width:7.62}
    .fil0 {fill:none}
   ]]>
  </style>
 </defs>
 <g id="图层_x0020_1">
  <metadata id="CorelCorpID_0Corel-Layer"/>
  <path class="fil0 str0" d="M1033 5350l369 0c10,0 15,-1 23,-10l38 -43c2,-2 4,-3 8,-3l1063 0c9,0 12,1 17,8l33 40c5,7 8,8 19,8 78,0 155,0 232,0 109,0 198,-89 198,-198l0 -4304c0,-109 -89,-198 -198,-198l-242 0c-14,0 -17,1 -22,8l-26 30c-4,4 -6,5 -9,5l-1060 0c-12,0 -12,0 -17,-6l-27 -30c-4,-6 -7,-7 -16,-7l-251 0c-109,0 -198,89 -198,198l0 4304c0,109 89,198 198,198l29 0m1476 -4656c0,-4 -4,-8 -11,-9 -28,0 -50,23 -50,50 0,27 22,49 50,49 27,0 49,-22 49,-49 0,-27 -22,-50 -49,-50m-270 40c-3,-11 -7,-18 -24,-18l-15 0c-20,0 -36,16 -36,37l0 0c0,20 16,36 36,36l77 0c21,0 37,-16 37,-36l0 0c0,-21 -16,-37 -37,-37l-62 0m-884 11c0,-2 -2,-3 -5,-4 -12,0 -21,10 -21,21 0,12 9,22 21,22 11,0 21,-10 21,-22 0,-11 -10,-21 -21,-21"/>
 </g>
</svg>
