<?xml version="1.0" encoding="UTF-8"?>
<!DOCTYPE svg PUBLIC "-//W3C//DTD SVG 1.1//EN" "http://www.w3.org/Graphics/SVG/1.1/DTD/svg11.dtd">
<!-- Creator: CorelDRAW X8 -->
<svg xmlns="http://www.w3.org/2000/svg" xml:space="preserve" width="40mm" height="60mm" version="1.1" style="shape-rendering:geometricPrecision; text-rendering:geometricPrecision; image-rendering:optimizeQuality; fill-rule:evenodd; clip-rule:evenodd"
viewBox="0 0 4000 6000"
 xmlns:xlink="http://www.w3.org/1999/xlink">
 <defs>
  <style type="text/css">
   <![CDATA[
    .str0 {stroke:black;stroke-width:7.62}
    .fil0 {fill:none}
   ]]>
  </style>
 </defs>
 <g id="图层_x0020_1">
  <metadata id="CorelCorpID_0Corel-Layer"/>
  <path class="fil0 str0" d="M2014 748c0,-5 -5,-10 -14,-11 -34,0 -62,28 -62,62 0,34 28,62 62,62 34,0 61,-28 61,-62 0,-34 -27,-62 -61,-62m-970 4590l1859 0c90,0 163,-73 163,-162l0 -4353c0,-89 -73,-162 -163,-162l-1778 0c-90,0 -163,73 -163,162l0 4353c0,89 73,162 163,162l52 0c81,0 132,9 153,23"/>
 </g>
</svg>
