<?xml version="1.0" encoding="UTF-8"?>
<!DOCTYPE svg PUBLIC "-//W3C//DTD SVG 1.1//EN" "http://www.w3.org/Graphics/SVG/1.1/DTD/svg11.dtd">
<!-- Creator: CorelDRAW 2020 (64-Bit) -->
<svg xmlns="http://www.w3.org/2000/svg" xml:space="preserve" width="40mm" height="60mm" version="1.1" style="shape-rendering:geometricPrecision; text-rendering:geometricPrecision; image-rendering:optimizeQuality; fill-rule:evenodd; clip-rule:evenodd"
viewBox="0 0 4000 6000"
 xmlns:xlink="http://www.w3.org/1999/xlink"
 xmlns:xodm="http://www.corel.com/coreldraw/odm/2003">
 <defs>
  <style type="text/css">
   <![CDATA[
    .str0 {stroke:black;stroke-width:7.62;stroke-miterlimit:22.9256}
    .fil0 {fill:none}
   ]]>
  </style>
 </defs>
 <g id="图层_x0020_1">
  <metadata id="CorelCorpID_0Corel-Layer"/>
  <path class="fil0 str0" d="M997.38 5321.83l1821.13 0c105.13,0 191.14,-86.02 191.14,-191.14l0 -4283.88c0,-105.12 -86.01,-191.14 -191.14,-191.14l-460.12 0c-1.94,0 -3.6,0.56 -5.15,1.72l-6.87 5.15c-1.55,1.16 -3.22,1.72 -5.15,1.72l-241.9 0c-18.92,0 -34.35,15.43 -34.35,34.35l0 21.72c0,39.36 -32.21,71.57 -71.57,71.57l0 0c-39.36,0 -71.57,-32.21 -71.57,-71.57l0 -21.72c0,-18.92 -15.43,-34.35 -34.35,-34.35l-241.9 0c-1.93,0 -3.6,-0.56 -5.15,-1.72l-6.87 -5.15c-1.55,-1.16 -3.21,-1.72 -5.15,-1.72l-460.12 0c-105.13,0 -191.14,86.01 -191.14,191.14l0 4283.88c0,105.13 86.01,191.14 191.14,191.14l80.93 0c138.99,0 224.2,16.72 255.64,33.84"/>
 </g>
</svg>
