<?xml version="1.0" encoding="utf-8"?>
<!-- Generator: Adobe Illustrator 16.0.0, SVG Export Plug-In . SVG Version: 6.00 Build 0)  -->
<!DOCTYPE svg PUBLIC "-//W3C//DTD SVG 1.1//EN" "http://www.w3.org/Graphics/SVG/1.1/DTD/svg11.dtd">
<svg version="1.1" id="图层_1" xmlns="http://www.w3.org/2000/svg" xmlns:xlink="http://www.w3.org/1999/xlink" x="0px" y="0px"
	 width="113.386px" height="170.079px" viewBox="0 0 113.386 170.079" enable-background="new 0 0 113.386 170.079"
	 xml:space="preserve">
<g>
	<path fill-rule="evenodd" clip-rule="evenodd" d="M25.295,145.5c0-40.44,0-80.882,0-121.322c0.031-0.133,0.071-0.264,0.093-0.397
		c0.397-2.465,2.6-4.446,5.074-4.558c3.923-0.176,7.845-0.367,11.77-0.517c7.135-0.271,14.274-0.369,21.411-0.189
		c6.445,0.162,12.889,0.46,19.332,0.713c1.057,0.042,2.022,0.412,2.866,1.053c1.575,1.195,2.251,2.8,2.25,4.77
		c-0.01,39.855-0.008,79.711-0.008,119.566c0,0.193-0.001,0.386-0.008,0.579c-0.1,2.599-2.034,4.854-4.611,5.168
		c-3.252,0.396-6.516,0.733-9.782,0.973c-4.854,0.355-9.72,0.389-14.585,0.208c-1.005-0.037-2.011-0.082-3.016-0.068
		c-1.404,0.02-2.809,0.109-4.213,0.137c-4.066,0.077-8.133,0.032-12.188-0.275c-3.13-0.237-6.253-0.571-9.376-0.9
		c-2.35-0.249-4.177-1.811-4.791-4.02C25.429,146.116,25.367,145.807,25.295,145.5z M86.839,84.838c0-19.874,0-39.747,0-59.621
		c0-0.206,0.002-0.413-0.003-0.62c-0.04-2.021-1.542-3.817-3.553-4.058c-1.652-0.197-3.324-0.256-4.989-0.313
		c-5.219-0.182-10.438-0.378-15.66-0.485c-7.193-0.149-14.388-0.02-21.577,0.239c-3.484,0.126-6.967,0.293-10.446,0.498
		c-0.638,0.037-1.315,0.243-1.876,0.552c-1.559,0.857-2.19,2.267-2.19,4.021c0.006,39.856,0.004,79.714,0.004,119.571
		c0,0.097,0,0.193,0.001,0.29c0.032,2.202,1.512,3.933,3.693,4.25c1.403,0.204,2.815,0.344,4.226,0.493
		c4.265,0.452,8.541,0.715,12.829,0.723c2.865,0.005,5.73-0.125,8.597-0.133c2.079-0.005,4.158,0.104,6.239,0.138
		c6.719,0.108,13.413-0.262,20.083-1.086c0.545-0.067,1.1-0.128,1.623-0.282c1.848-0.545,2.999-2.188,2.999-4.225
		C86.839,124.806,86.839,104.821,86.839,84.838z"/>
	<path fill-rule="evenodd" clip-rule="evenodd" d="M43.151,33.751c0.003-7.508,6.053-13.551,13.562-13.547
		c7.493,0.004,13.564,6.086,13.552,13.572c-0.014,7.464-6.105,13.549-13.556,13.541C49.207,47.31,43.15,41.249,43.151,33.751z
		 M56.707,46.07c6.796-0.013,12.309-5.528,12.308-12.313c-0.001-6.811-5.53-12.328-12.342-12.314
		c-6.81,0.013-12.296,5.538-12.281,12.369C44.405,40.569,49.944,46.083,56.707,46.07z"/>
	<path fill-rule="evenodd" clip-rule="evenodd" d="M56.68,147.069c-3.238,0-6.478,0.004-9.716-0.003
		c-1.438-0.003-2.667-0.989-2.969-2.353c-0.316-1.435,0.362-2.868,1.694-3.452c0.404-0.178,0.875-0.288,1.315-0.289
		c6.463-0.018,12.926-0.017,19.389-0.01c1.743,0.002,3.083,1.345,3.084,3.055c0,1.714-1.336,3.046-3.083,3.05
		C63.156,147.074,59.918,147.069,56.68,147.069z M56.705,145.833c2.245,0,4.49,0,6.735,0c1.006,0,2.012,0.013,3.017-0.006
		c0.896-0.018,1.633-0.67,1.76-1.515c0.132-0.879-0.351-1.717-1.187-1.987c-0.281-0.092-0.593-0.119-0.892-0.12
		c-5.552-0.007-11.103-0.005-16.654-0.005c-0.813,0-1.625-0.005-2.438,0.002c-0.679,0.006-1.235,0.269-1.602,0.854
		c-0.365,0.584-0.394,1.198-0.067,1.806c0.351,0.654,0.923,0.968,1.657,0.969C50.258,145.835,53.481,145.833,56.705,145.833z"/>
	<path fill-rule="evenodd" clip-rule="evenodd" d="M56.692,72.245c-4.313-0.007-7.763-3.474-7.75-7.79
		c0.012-4.281,3.49-7.75,7.768-7.743c4.286,0.006,7.783,3.52,7.765,7.802C64.455,68.794,60.976,72.251,56.692,72.245z
		 M63.224,64.466c-0.021-3.612-2.938-6.509-6.543-6.496c-3.628,0.014-6.517,2.937-6.5,6.576c0.018,3.587,2.967,6.48,6.581,6.454
		C60.342,70.975,63.245,68.039,63.224,64.466z"/>
</g>
</svg>
