<?xml version="1.0" encoding="UTF-8"?>
<!DOCTYPE svg PUBLIC "-//W3C//DTD SVG 1.1//EN" "http://www.w3.org/Graphics/SVG/1.1/DTD/svg11.dtd">
<!-- Creator: CorelDRAW 2020 (64-Bit) -->
<svg xmlns="http://www.w3.org/2000/svg" xml:space="preserve" width="40mm" height="60mm" version="1.1" style="shape-rendering:geometricPrecision; text-rendering:geometricPrecision; image-rendering:optimizeQuality; fill-rule:evenodd; clip-rule:evenodd"
viewBox="0 0 4000 6000"
 xmlns:xlink="http://www.w3.org/1999/xlink"
 xmlns:xodm="http://www.corel.com/coreldraw/odm/2003">
 <defs>
  <style type="text/css">
   <![CDATA[
    .str1 {stroke:#332C2B;stroke-width:20;stroke-miterlimit:22.9256}
    .str0 {stroke:#E62129;stroke-width:20;stroke-miterlimit:22.9256}
    .fil0 {fill:none}
   ]]>
  </style>
   <clipPath id="id0">
    <rect x="-63395.42" y="-9354.54" width="26328.15" height="25563.9"/>
   </clipPath>
 </defs>
 <g id="图层_x0020_1">
  <metadata id="CorelCorpID_0Corel-Layer"/>
  <g style="clip-path:url(#id0)">
   <image x="-63395.42" y="-9354.54" width="26328.15" height="25563.9" xlink:href="iPad Pro 11 (2022) -11i（前膜带壳）_Images\iPad Pro 11 (2022) -11i（前膜带壳）_ImgID1.png"/>
  </g>
  <rect class="fil0 str0" x="-55258.03" y="-8858.84" width="17850" height="24760"/>
  <path class="fil0 str0" d="M-53981.53 -8715.96l5991.73 0c65.91,0 69.53,15.68 69.53,83.6l0 200.6c0,110 90,200 200,200l2764.43 0c110,0 200,-90 200,-200l0 -200.6c0,-74.28 9.23,-83.6 54.65,-83.6l6016.66 0c632.51,0 1150,517.52 1150,1150.01l0 22198.36c0,632.49 -517.49,1149.99 -1150,1149.99l-15297 0c-632.49,0 -1150,-517.5 -1150,-1149.99l0 -22198.36c0,-632.51 517.51,-1150.01 1150,-1150.01z"/>
  <path class="fil0 str1" d="M-20510.6 15732.42l15987.95 0c628.9,0 1143.46,-515.4 1143.46,-1145.3l0 -22107.78c0,-629.91 -514.55,-1145.32 -1143.46,-1145.32l-5982.47 0c-45.17,0 -54.34,9.28 -54.34,83.26l0 199.78c0,109.55 -89.49,199.18 -198.87,199.18l-2748.72 0c-109.37,0 -198.86,-89.63 -198.86,-199.18l0 -199.78c0,-67.64 -3.6,-83.26 -69.13,-83.26l-5957.69 0c-628.89,0 -1143.46,515.39 -1143.46,1145.32l0 22107.78c0,629.91 514.57,1145.3 1143.46,1145.3 628.89,0 1089.28,119.88 1285.08,283.92"/>
  <path class="fil0 str1" d="M408.95 5296.38l3034.37 0c119.95,0 218.09,-98.14 218.09,-218.08l0 -4209.68c0,-119.95 -98.14,-218.09 -218.09,-218.09l-1140.99 0c-8.61,0 -10.36,1.77 -10.36,15.85l0 38.05c0,20.86 -17.07,37.92 -37.93,37.92l-524.24 0c-20.87,0 -37.93,-17.06 -37.93,-37.92l0 -38.05c0,-12.88 -0.69,-15.85 -13.19,-15.85l-1136.26 0c-119.95,0 -218.09,98.14 -218.09,218.09l0 4209.68c0,119.95 98.14,218.08 218.09,218.08 119.94,0 196.9,20.78 232.28,54.15"/>
 </g>
</svg>
