<?xml version="1.0" encoding="UTF-8"?>
<!DOCTYPE svg PUBLIC "-//W3C//DTD SVG 1.1//EN" "http://www.w3.org/Graphics/SVG/1.1/DTD/svg11.dtd">
<!-- Creator: CorelDRAW 2020 (64-Bit) -->
<svg xmlns="http://www.w3.org/2000/svg" xml:space="preserve" width="40mm" height="60mm" version="1.1" style="shape-rendering:geometricPrecision; text-rendering:geometricPrecision; image-rendering:optimizeQuality; fill-rule:evenodd; clip-rule:evenodd"
viewBox="0 0 4000 6000"
 xmlns:xlink="http://www.w3.org/1999/xlink"
 xmlns:xodm="http://www.corel.com/coreldraw/odm/2003">
 <defs>
  <style type="text/css">
   <![CDATA[
    .str0 {stroke:black;stroke-width:7.62;stroke-miterlimit:22.9256}
    .fil0 {fill:none}
   ]]>
  </style>
 </defs>
 <g id="图层_x0020_1">
  <metadata id="CorelCorpID_0Corel-Layer"/>
  <path class="fil0 str0" d="M677.31 5332.1l2548.59 0c61.89,0 112.54,-50.65 112.54,-112.53l0 -4451.36c0,-61.88 -50.64,-112.54 -112.54,-112.54l-988.74 0c-10.71,0 -9.27,0 -19.99,0l-1.27 0c-5,0 -9.08,4.08 -9.08,9.08l0 64.49c0,22.31 -18.24,40.55 -40.54,40.55l-181.69 0c-22.3,0 -40.54,-18.25 -40.54,-40.55l0 -64.49c0,-4.99 -4.08,-9.08 -9.08,-9.08l-163.32 0c-5.82,0 -9.59,0 -15.63,0l-995.12 0c-61.9,0 -112.54,50.64 -112.54,112.54l0 4451.36c0,61.89 50.65,112.53 112.54,112.53l49.3 0c81.01,0 125.05,13.67 141.15,23.57"/>
 </g>
</svg>
