<?xml version="1.0" encoding="UTF-8"?>
<!DOCTYPE svg PUBLIC "-//W3C//DTD SVG 1.1//EN" "http://www.w3.org/Graphics/SVG/1.1/DTD/svg11.dtd">
<!-- Creator: CorelDRAW 2020 (64-Bit) -->
<svg xmlns="http://www.w3.org/2000/svg" xml:space="preserve" width="40mm" height="60mm" version="1.1" style="shape-rendering:geometricPrecision; text-rendering:geometricPrecision; image-rendering:optimizeQuality; fill-rule:evenodd; clip-rule:evenodd"
viewBox="0 0 4000 6000"
 xmlns:xlink="http://www.w3.org/1999/xlink"
 xmlns:xodm="http://www.corel.com/coreldraw/odm/2003">
 <defs>
  <style type="text/css">
   <![CDATA[
    .str1 {stroke:#332C2B;stroke-width:20;stroke-miterlimit:22.9256}
    .str2 {stroke:#332C2B;stroke-width:20;stroke-miterlimit:22.9256}
    .str0 {stroke:#E62129;stroke-width:20;stroke-miterlimit:22.9256}
    .fil0 {fill:none}
   ]]>
  </style>
   <clipPath id="id0">
    <rect x="-45951.27" y="-4428.41" width="14281.02" height="17321.5"/>
   </clipPath>
 </defs>
 <g id="图层_x0020_1">
  <metadata id="CorelCorpID_0Corel-Layer"/>
  <g style="clip-path:url(#id0)">
   <image x="-45951.27" y="-4428.41" width="14281.02" height="17321.5" xlink:href="X96 -11i（背膜）_Images\X96 -11i（背膜）_ImgID1.png"/>
  </g>
  <rect class="fil0 str0" x="-45519.22" y="-4017.97" width="7670" height="16520"/>
  <rect class="fil0 str0" x="-45315.37" y="-3943.88" width="7262.3" height="16284.59" rx="1200" ry="1333.21"/>
  <rect class="fil0 str1" x="-44812.65" y="-3294.18" width="1990.85" height="3493.11" rx="500" ry="502.23"/>
  <rect class="fil0 str1" x="-44619.99" y="-3144.96" width="1605.53" height="3194.65" rx="300" ry="341.73"/>
  <path class="fil0 str1" d="M-44353.47 -2689.6c-60.86,-116.42 -39.22,-346.77 160.65,-346.77 199.87,0 361.9,162.03 361.9,361.9 0,199.87 -162.03,361.9 -361.9,361.9 -199.87,0 -361.9,-162.03 -361.9,-361.9 0,-199.87 162.03,-361.9 361.9,-361.9"/>
  <path class="fil0 str1" d="M-43586 -2689.6c-60.86,-116.42 -39.22,-346.77 160.65,-346.77 199.87,0 361.9,162.03 361.9,361.9 0,199.87 -162.03,361.9 -361.9,361.9 -199.87,0 -361.9,-162.03 -361.9,-361.9 0,-199.87 162.03,-361.9 361.9,-361.9"/>
  <path class="fil0 str1" d="M-44353.47 -1545.87c-60.86,-116.42 -39.22,-346.77 160.65,-346.77 199.87,0 361.9,162.03 361.9,361.9 0,199.87 -162.03,361.9 -361.9,361.9 -199.87,0 -361.9,-162.03 -361.9,-361.9 0,-199.87 162.03,-361.9 361.9,-361.9"/>
  <path class="fil0 str1" d="M-43535.78 -1560.2c-38.04,-72.77 -24.51,-216.77 100.43,-216.77 124.94,0 226.23,101.29 226.23,226.23 0,124.94 -101.29,226.23 -226.23,226.23 -124.94,0 -226.23,-101.29 -226.23,-226.23 0,-124.94 101.29,-226.23 226.23,-226.23"/>
  <path class="fil0 str1" d="M-44353.47 -410.8c-60.86,-116.42 -39.22,-346.77 160.65,-346.77 199.87,0 361.9,162.03 361.9,361.9 0,199.87 -162.03,361.9 -361.9,361.9 -199.87,0 -361.9,-162.03 -361.9,-361.9 0,-199.87 162.03,-361.9 361.9,-361.9"/>
  <path class="fil0 str1" d="M-41944.23 -68.23c-103.43,-197.87 -66.65,-589.37 273.05,-589.37 339.69,0 615.08,275.39 615.08,615.09 0,339.69 -275.39,615.08 -615.08,615.08 -339.7,0 -615.09,-275.39 -615.09,-615.08 0,-339.7 275.39,-615.09 615.09,-615.09"/>
  <path class="fil0 str2" d="M-4301.83 5756.8l0 -5712.95c0,-659.99 -540,-1200 -1200,-1200l-13884.59 0c-660,0 -1200,540 -1200,1200l0 4862.3c0,660 540,1200 1200,1200l13884.59 0c660.01,0 1200,-540 1200,-1200 0,-660 74.78,-1055.3 193.84,-1253.74"/>
  <path class="fil0 str2" d="M-19936.72 5103.43l0 -990.85c0,-275 225,-500 500,-500l2493.11 0c275,0 500,225 500,500l0 990.85c0,275 -225,500 -500,500l-2493.11 0c-275,0 -500,-225 -500,-500z"/>
  <path class="fil0 str2" d="M-19787.49 5110.77l0 -1005.53c0,-165 134.99,-300 300,-300l2594.64 0c165.01,0 300.01,135 300.01,300l0 1005.53c0,165 -135,300 -300.01,300l-2594.64 0c-165.01,0 -300,-135 -300,-300z"/>
  <path class="fil0 str2" d="M-19332.14 5144.25c-116.42,60.86 -346.77,39.22 -346.77,-160.65 0,-199.87 162.03,-361.9 361.9,-361.9 199.87,0 361.9,162.03 361.9,361.9 0,199.87 -162.03,361.9 -361.9,361.9 -199.87,0 -361.9,-162.03 -361.9,-361.9"/>
  <path class="fil0 str2" d="M-19332.14 4376.78c-116.42,60.86 -346.77,39.22 -346.77,-160.65 0,-199.87 162.03,-361.9 361.9,-361.9 199.87,0 361.9,162.03 361.9,361.9 0,199.87 -162.03,361.9 -361.9,361.9 -199.87,0 -361.9,-162.03 -361.9,-361.9"/>
  <path class="fil0 str2" d="M-18188.41 5144.25c-116.42,60.86 -346.77,39.22 -346.77,-160.65 0,-199.87 162.03,-361.9 361.9,-361.9 199.87,0 361.9,162.03 361.9,361.9 0,199.87 -162.03,361.9 -361.9,361.9 -199.87,0 -361.9,-162.03 -361.9,-361.9"/>
  <path class="fil0 str2" d="M-18202.74 4326.56c-72.77,38.04 -216.77,24.51 -216.77,-100.43 0,-124.94 101.29,-226.23 226.23,-226.23 124.94,0 226.23,101.29 226.23,226.23 0,124.94 -101.29,226.23 -226.23,226.23 -124.94,0 -226.23,-101.29 -226.23,-226.23"/>
  <path class="fil0 str2" d="M-17053.34 5144.25c-116.42,60.86 -346.77,39.22 -346.77,-160.65 0,-199.87 162.03,-361.9 361.9,-361.9 199.87,0 361.9,162.03 361.9,361.9 0,199.87 -162.03,361.9 -361.9,361.9 -199.87,0 -361.9,-162.03 -361.9,-361.9"/>
  <path class="fil0 str2" d="M-16710.77 2735.01c-197.87,103.43 -589.37,66.65 -589.37,-273.05 0,-339.69 275.39,-615.08 615.09,-615.08 339.69,0 615.08,275.39 615.08,615.08 0,339.7 -275.39,615.09 -615.08,615.09 -339.7,0 -615.09,-275.39 -615.09,-615.09"/>
  <g id="_2261012306880">
   <path class="fil0 str2" d="M1057.36 5300.38l1629.45 0c188.25,0 342.27,-154.02 342.27,-342.26l0 -3960.18c0,-188.25 -154.02,-342.27 -342.27,-342.27l-1386.82 0c-188.25,0 -342.27,154.02 -342.27,342.27l0 3960.18c0,188.25 154.02,342.26 342.27,342.26 188.24,0 300.99,21.33 357.59,55.29"/>
   <path class="fil0 str2" d="M1243.72 840.98l282.61 0c78.43,0 142.61,64.17 142.61,142.61l0 711.09c0,78.43 -64.18,142.61 -142.61,142.61l-282.61 0c-78.44,0 -142.61,-64.18 -142.61,-142.61l0 -711.09c0,-78.44 64.17,-142.61 142.61,-142.61z"/>
   <path class="fil0 str2" d="M1241.62 883.54l286.8 0c47.06,0 85.57,38.51 85.57,85.57l0 740.05c0,47.06 -38.51,85.57 -85.57,85.57l-286.8 0c-47.06,0 -85.56,-38.51 -85.56,-85.57l0 -740.05c0,-47.06 38.5,-85.57 85.56,-85.57z"/>
   <path class="fil0 str2" d="M1232.07 1013.42c-17.35,-33.21 -11.18,-98.91 45.82,-98.91 57.01,0 103.23,46.22 103.23,103.22 0,57.01 -46.22,103.23 -103.23,103.23 -57,0 -103.22,-46.22 -103.22,-103.23 0,-57 46.22,-103.22 103.22,-103.22"/>
   <path class="fil0 str2" d="M1450.97 1013.42c-17.36,-33.21 -11.18,-98.91 45.82,-98.91 57.01,0 103.22,46.22 103.22,103.22 0,57.01 -46.21,103.23 -103.22,103.23 -57,0 -103.22,-46.22 -103.22,-103.23 0,-57 46.22,-103.22 103.22,-103.22"/>
   <path class="fil0 str2" d="M1232.07 1339.64c-17.35,-33.21 -11.18,-98.91 45.82,-98.91 57.01,0 103.23,46.21 103.23,103.22 0,57.01 -46.22,103.22 -103.23,103.22 -57,0 -103.22,-46.21 -103.22,-103.22 0,-57.01 46.22,-103.22 103.22,-103.22"/>
   <path class="fil0 str2" d="M1465.3 1335.55c-10.85,-20.76 -7,-61.83 28.64,-61.83 35.64,0 64.53,28.89 64.53,64.53 0,35.63 -28.89,64.52 -64.53,64.52 -35.64,0 -64.52,-28.89 -64.52,-64.52 0,-35.64 28.88,-64.53 64.52,-64.53"/>
   <path class="fil0 str2" d="M1232.07 1663.38c-17.35,-33.2 -11.18,-98.9 45.82,-98.9 57.01,0 103.23,46.21 103.23,103.22 0,57 -46.22,103.22 -103.23,103.22 -57,0 -103.22,-46.22 -103.22,-103.22 0,-57.01 46.22,-103.22 103.22,-103.22"/>
   <path class="fil0 str2" d="M1919.24 1761.09c-29.5,-56.44 -19.01,-168.1 77.88,-168.1 96.89,0 175.43,78.54 175.43,175.43 0,96.89 -78.54,175.44 -175.43,175.44 -96.89,0 -175.44,-78.55 -175.44,-175.44 0,-96.89 78.55,-175.43 175.44,-175.43"/>
  </g>
 </g>
</svg>
