<?xml version="1.0" encoding="UTF-8"?>
<!DOCTYPE svg PUBLIC "-//W3C//DTD SVG 1.1//EN" "http://www.w3.org/Graphics/SVG/1.1/DTD/svg11.dtd">
<!-- Creator: CorelDRAW X8 -->
<svg xmlns="http://www.w3.org/2000/svg" xml:space="preserve" width="40mm" height="60mm" version="1.1" style="shape-rendering:geometricPrecision; text-rendering:geometricPrecision; image-rendering:optimizeQuality; fill-rule:evenodd; clip-rule:evenodd"
viewBox="0 0 4000 6000"
 xmlns:xlink="http://www.w3.org/1999/xlink">
 <defs>
  <style type="text/css">
   <![CDATA[
    .str0 {stroke:#332C2B;stroke-width:10}
    .fil0 {fill:none;fill-rule:nonzero}
   ]]>
  </style>
 </defs>
 <g id="图层_x0020_1">
  <metadata id="CorelCorpID_0Corel-Layer"/>
  <g id="_2965623997296">
   <g>
    <line class="fil0 str0" x1="3116" y1="653" x2="3116" y2= "683" />
    <line class="fil0 str0" x1="1096" y1="1279" x2="1096" y2= "1321" />
    <path class="fil0 str0" d="M1096 1321c1,92 1,183 2,275 1,27 4,37 17,63 15,27 54,46 96,46 34,0 73,-19 93,-45"/>
    <line class="fil0 str0" x1="1304" y1="1660" x2="1305" y2= "1658" />
    <path class="fil0 str0" d="M1305 1658c19,-25 19,-25 27,-431"/>
    <line class="fil0 str0" x1="1332" y1="1227" x2="1333" y2= "1204" />
    <path class="fil0 str0" d="M1333 1204c1,-42 1,-80 1,-114 0,-121 -4,-186 -11,-186"/>
    <line class="fil0 str0" x1="1323" y1="904" x2="1319" y2= "905" />
    <path class="fil0 str0" d="M1319 905c0,0 0,0 0,0"/>
    <line class="fil0 str0" x1="1319" y1="905" x2="1318" y2= "905" />
    <path class="fil0 str0" d="M1318 905c-1,0 -1,0 -6,-12"/>
    <line class="fil0 str0" x1="1312" y1="893" x2="1310" y2= "888" />
    <path class="fil0 str0" d="M1310 888c-5,-15 -46,-48 -71,-57 -7,-2 -16,-4 -27,-4 -39,0 -67,15 -93,48 -19,24 -22,36 -23,73"/>
    <line class="fil0 str0" x1="1096" y1="948" x2="1096" y2= "1318" />
    <polyline class="fil0 str0" points="3116,3002 3116,3011 3122,3010 3126,3005 3126,2998 3122,2993 3116,2991 3116,903 "/>
    <path class="fil0 str0" d="M3116 903c-6,-124 -107,-231 -234,-248"/>
    <line class="fil0 str0" x1="2882" y1="655" x2="1155" y2= "650" />
    <path class="fil0 str0" d="M1155 650c-93,3 -168,38 -221,101 -33,39 -58,102 -60,148"/>
    <line class="fil0 str0" x1="874" y1="899" x2="874" y2= "5103" />
    <path class="fil0 str0" d="M874 5103c2,46 27,107 61,149 44,53 103,86 173,96 12,2 13,2 63,2"/>
    <line class="fil0 str0" x1="1171" y1="5350" x2="2882" y2= "5348" />
    <path class="fil0 str0" d="M2882 5348c115,-11 215,-111 233,-232"/>
    <polyline class="fil0 str0" points="3115,5116 3117,5069 3116,2961 "/>
    <line class="fil0 str0" x1="1358" y1="1288" x2="1358" y2= "1202" />
    <path class="fil0 str0" d="M1358 1202c1,-179 0,-230 -3,-258 -2,-29 -8,-42 -27,-67 -29,-37 -73,-59 -120,-59 -61,0 -115,39 -140,100 -1,2 -1,3 -3,5 -5,9 -5,9 -6,297"/>
    <line class="fil0 str0" x1="1059" y1="1220" x2="1058" y2= "1364" />
    <path class="fil0 str0" d="M1058 1364c-1,279 -1,299 1,299 0,0 0,0 0,0"/>
    <line class="fil0 str0" x1="1059" y1="1663" x2="1060" y2= "1661" />
    <path class="fil0 str0" d="M1060 1661c2,-10 2,-9 2,-9 0,0 0,-1 4,17"/>
    <line class="fil0 str0" x1="1066" y1="1669" x2="1068" y2= "1677" />
    <path class="fil0 str0" d="M1068 1677c24,61 78,99 141,99 79,0 144,-61 149,-138"/>
    <line class="fil0 str0" x1="1358" y1="1638" x2="1358" y2= "1247" />
    <line class="fil0 str0" x1="1209" y1="1684" x2="1209" y2= "1673" />
    <path class="fil0 str0" d="M1209 1673c6,1 8,2 11,9 40,-6 67,-37 67,-77 0,-44 -35,-79 -79,-79 -44,0 -79,35 -79,79 0,43 34,78 77,78 6,0 12,0 29,-3"/>
    <path class="fil0 str0" d="M1209 1365c52,-8 80,-36 80,-80 0,-43 -36,-79 -79,-79 -44,0 -79,35 -79,79 0,44 34,79 77,79 6,0 11,-1 27,-3"/>
    <path class="fil0 str0" d="M1209 1045c52,-7 80,-35 80,-79 0,-43 -36,-79 -79,-79 -44,0 -79,35 -79,79 0,44 34,78 77,78 6,0 11,0 27,-2"/>
    <polyline class="fil0 str0" points="1209,1934 1220,1933 1220,1932 "/>
    <path class="fil0 str0" d="M1220 1932c21,-4 36,-22 36,-45 0,-26 -21,-47 -48,-47 -26,0 -47,22 -47,48 0,27 22,48 48,46 7,0 12,-1 29,-6"/>
   </g>
  </g>
 </g>
</svg>
