<?xml version="1.0" encoding="UTF-8"?>
<!DOCTYPE svg PUBLIC "-//W3C//DTD SVG 1.1//EN" "http://www.w3.org/Graphics/SVG/1.1/DTD/svg11.dtd">
<!-- Creator: CorelDRAW X8 -->
<svg xmlns="http://www.w3.org/2000/svg" xml:space="preserve" width="40mm" height="60mm" version="1.1" style="shape-rendering:geometricPrecision; text-rendering:geometricPrecision; image-rendering:optimizeQuality; fill-rule:evenodd; clip-rule:evenodd"
viewBox="0 0 4000 6000"
 xmlns:xlink="http://www.w3.org/1999/xlink">
 <defs>
  <style type="text/css">
   <![CDATA[
    .fil0 {fill:black;fill-rule:nonzero}
   ]]>
  </style>
 </defs>
 <g id="图层_x0020_1">
  <metadata id="CorelCorpID_0Corel-Layer"/>
  <g>
   <path class="fil0" d="M2637 759l-10 0 0 0 0 -1 0 -2 -1 -1 0 -1 0 -1 0 -1 -1 -1 0 -1 -1 -1 0 -1 -1 -1 0 -1 -1 -1 -1 -1 0 -1 -1 -1 -1 -1 -1 0 -1 -1 -1 -1 -1 0 -1 -1 -1 0 -1 -1 -1 0 -1 -1 -1 0 -1 0 -1 0 -1 -1 -2 0 -1 0 0 -10 2 0 2 1 1 0 2 0 2 0 1 1 2 0 1 1 2 1 1 0 2 1 1 1 1 1 1 1 2 1 1 1 1 1 1 2 1 1 1 1 1 1 1 2 0 1 1 2 1 1 0 2 1 1 0 2 0 2 1 1 0 2 0 2 0 0zm-34 33l0 -10 0 0 1 0 2 0 1 0 1 0 1 0 1 -1 1 0 1 -1 1 0 1 -1 1 0 1 -1 1 0 1 -1 1 -1 1 -1 1 0 0 -1 1 -1 1 -1 0 -1 1 -1 0 -1 1 -1 0 -1 1 -1 0 -1 0 -1 0 -2 1 -1 0 -1 0 -1 10 0 0 2 0 1 -1 2 0 2 0 1 -1 2 0 1 -1 2 -1 1 0 2 -1 1 -1 2 -1 1 -1 1 -1 1 -1 1 -1 2 -2 1 -1 1 -1 1 -1 0 -2 1 -1 1 -2 1 -1 0 -2 1 -1 0 -2 1 -2 0 -1 0 -2 0 -2 0 0 0zm-33 -33l10 0 0 0 0 1 0 1 0 1 0 2 0 1 1 1 0 1 1 1 0 1 1 1 0 1 1 1 0 1 1 1 1 1 1 0 0 1 1 1 1 1 1 0 1 1 1 0 1 1 1 0 1 1 1 0 1 1 1 0 2 0 1 0 1 0 1 0 0 10 -2 0 -1 0 -2 0 -2 0 -1 -1 -2 0 -1 -1 -2 0 -1 -1 -2 -1 -1 -1 -2 0 -1 -1 -1 -1 -1 -1 -1 -2 -2 -1 -1 -1 -1 -1 -1 -1 0 -2 -1 -1 -1 -2 -1 -1 0 -2 -1 -1 0 -2 -1 -1 0 -2 0 -2 0 -1 0 -2 0 0zm33 -34l0 10 0 0 -1 0 -1 0 -1 1 -2 0 -1 0 -1 0 -1 1 -1 0 -1 1 -1 0 -1 1 -1 0 -1 1 -1 1 -1 0 0 1 -1 1 -1 1 -1 1 0 1 -1 1 0 1 -1 1 0 1 -1 1 0 1 -1 1 0 1 0 1 0 1 0 2 0 1 -10 0 0 -2 0 -2 0 -1 0 -2 1 -2 0 -1 1 -2 0 -1 1 -2 1 -1 1 -2 0 -1 1 -1 1 -1 1 -2 2 -1 1 -1 1 -1 1 -1 1 -1 2 -1 1 -1 2 0 1 -1 2 -1 1 0 2 -1 1 0 2 0 2 0 1 -1 2 0 0 0zm-125 9l-10 0 0 0 0 0 0 -1 0 -1 -1 -1 0 -1 0 -1 0 0 -1 -1 0 -1 0 0 -1 -1 0 -1 -1 -1 0 0 -1 -1 0 0 -1 -1 0 0 -1 -1 -1 0 0 -1 -1 0 -1 -1 0 0 -1 0 -1 0 -1 -1 0 0 -1 0 -1 0 -1 0 -1 0 0 -10 2 0 1 0 1 0 2 0 1 1 1 0 1 0 2 1 1 0 1 1 1 1 1 0 1 1 1 1 1 1 1 1 1 1 1 0 1 1 0 2 1 1 1 1 0 1 1 1 0 1 1 2 0 1 0 1 0 1 1 2 0 1 0 1 0 0zm-27 27l0 -10 0 0 1 0 1 0 1 0 1 0 0 0 1 -1 1 0 1 0 0 -1 1 0 1 0 0 -1 1 0 1 -1 0 0 1 -1 0 0 1 -1 0 -1 1 0 0 -1 1 -1 0 0 0 -1 1 -1 0 -1 0 0 0 -1 1 -1 0 -1 0 -1 0 -1 10 0 0 2 0 1 -1 1 0 2 0 1 0 1 -1 2 0 1 -1 1 0 1 -1 1 -1 1 0 1 -1 1 -1 1 -1 1 -1 1 -1 1 -1 1 -1 0 -1 1 -1 1 -1 0 -1 1 -2 0 -1 1 -1 0 -1 0 -2 1 -1 0 -1 0 -2 0 0 0zm-26 -27l10 0 0 0 0 1 0 1 0 1 0 1 0 1 0 0 1 1 0 1 0 1 1 0 0 1 0 1 1 0 0 1 1 1 0 0 1 1 1 0 0 1 1 0 1 1 0 0 1 0 1 1 0 0 1 0 1 1 1 0 1 0 0 0 1 0 1 0 0 10 -1 0 -2 0 -1 0 -1 -1 -1 0 -2 0 -1 -1 -1 0 -1 -1 -2 0 -1 -1 -1 -1 -1 0 -1 -1 -1 -1 -1 -1 -1 -1 0 -1 -1 -1 -1 -1 -1 -1 0 -1 -1 -1 0 -1 -1 -1 0 -2 -1 -1 0 -1 0 -2 0 -1 0 -1 0 -2 0 0zm26 -26l0 10 0 0 -1 0 -1 0 0 0 -1 0 -1 0 -1 1 -1 0 0 0 -1 0 -1 1 0 0 -1 1 -1 0 0 1 -1 0 -1 1 0 0 -1 1 0 0 -1 1 0 1 0 1 -1 0 0 1 0 1 -1 0 0 1 0 1 0 1 0 1 0 1 0 0 -10 0 0 -1 0 -1 0 -2 0 -1 0 -1 1 -2 0 -1 1 -1 0 -1 1 -1 0 -1 1 -1 1 -2 1 -1 0 0 1 -1 1 -1 1 -1 1 -1 1 -1 1 0 1 -1 2 -1 1 0 1 -1 1 0 2 0 1 -1 1 0 1 0 2 0 1 0 0 0zm-732 78l49 0 0 10 -49 0 0 0 0 -10zm-20 -13l10 0 0 0 0 0 0 1 0 1 0 1 0 0 0 1 0 1 1 0 0 1 0 0 0 1 1 1 0 0 0 1 1 0 0 1 0 0 1 0 0 1 1 0 0 0 0 1 1 0 0 0 1 0 0 1 0 0 1 0 0 0 1 0 0 0 1 0 0 10 -1 0 -1 0 -1 0 -2 0 -1 -1 -1 0 0 0 -1 -1 -1 0 -1 -1 -1 -1 -1 0 -1 -1 0 -1 -1 0 -1 -1 0 -1 -1 -1 -1 -1 0 -1 -1 -1 0 0 0 -1 -1 -2 0 -1 0 -1 -1 -1 0 -1 0 -1 0 -1 0 -1 0 -1 0 0zm20 -24l0 10 0 0 -1 0 0 0 -1 0 0 0 -1 1 0 0 0 0 -1 0 0 0 -1 1 0 0 0 0 -1 1 0 0 -1 0 0 1 0 0 -1 1 0 0 0 1 -1 0 0 1 0 1 0 0 -1 1 0 0 0 1 0 1 0 0 0 1 0 1 0 1 -10 0 0 -1 0 -2 0 -1 0 -1 0 -1 1 -1 0 -1 0 -1 1 -1 0 -1 0 -1 1 -1 0 -1 1 -1 1 -1 0 -1 1 0 1 -1 0 -1 1 0 1 -1 1 -1 1 0 1 -1 1 0 0 -1 1 0 1 0 2 0 1 -1 1 0 1 0 0 0zm49 10l-49 0 0 -10 49 0 0 0 0 10zm20 14l-10 0 0 0 0 -1 0 -1 0 -1 0 0 0 -1 0 -1 -1 0 0 -1 0 -1 0 0 0 -1 -1 0 0 -1 0 0 -1 -1 0 0 0 -1 -1 0 0 0 -1 -1 0 0 0 0 -1 -1 0 0 -1 0 0 0 -1 0 0 -1 0 0 -1 0 0 0 -1 0 0 -10 1 0 1 0 1 1 1 0 1 0 1 0 1 1 1 0 1 1 1 0 1 1 1 1 1 0 0 1 1 1 1 0 0 1 1 1 0 1 1 1 0 1 1 1 0 1 1 1 0 1 0 1 1 1 0 1 0 1 0 1 0 2 0 1 0 0zm-20 23l0 -10 0 0 1 0 0 0 1 0 0 0 0 0 1 0 0 -1 1 0 0 0 1 0 0 -1 0 0 1 0 0 -1 1 0 0 0 0 -1 1 0 0 -1 0 0 1 -1 0 -1 0 0 0 -1 0 0 1 -1 0 -1 0 0 0 -1 0 -1 0 -1 0 0 10 0 0 1 0 1 0 1 0 1 0 1 -1 1 0 1 0 1 -1 1 0 1 -1 1 0 1 -1 1 0 1 -1 1 0 1 -1 1 -1 0 0 1 -1 1 -1 0 -1 1 -1 1 -1 0 -1 1 -1 0 -1 0 -1 1 -1 0 -1 0 -1 0 -1 0 0 0zm509 646l0 -10 0 0 4 0 3 0 4 -1 4 0 3 -1 3 -1 4 -1 3 -2 3 -1 3 -2 3 -1 3 -2 3 -2 3 -2 3 -3 2 -2 2 -3 3 -2 2 -3 2 -3 2 -3 1 -3 2 -3 2 -3 1 -3 1 -4 1 -3 1 -4 0 -3 1 -4 0 -4 0 -3 10 0 0 4 0 4 -1 4 0 4 -1 4 -2 4 -1 4 -1 4 -2 3 -2 4 -2 3 -2 4 -2 3 -3 3 -2 3 -3 3 -3 3 -3 2 -3 3 -3 2 -3 2 -4 2 -3 2 -4 2 -4 1 -4 1 -3 1 -4 1 -5 1 -4 1 -4 0 -4 0 0 0zm-82 -82l10 0 0 0 0 3 0 4 0 4 1 3 1 4 1 3 1 4 1 3 2 3 1 3 2 3 2 3 2 3 2 3 2 2 3 3 2 2 3 3 3 2 3 2 3 2 3 1 3 2 3 1 3 2 3 1 4 1 3 1 4 0 4 1 3 0 4 0 0 10 -4 0 -4 0 -5 -1 -4 -1 -4 -1 -3 -1 -4 -1 -4 -1 -4 -2 -3 -2 -4 -2 -3 -2 -3 -2 -3 -3 -3 -2 -3 -3 -3 -3 -3 -3 -2 -3 -2 -3 -2 -4 -2 -3 -2 -4 -2 -3 -1 -4 -2 -4 -1 -4 -1 -4 0 -4 -1 -4 0 -4 0 -4 0 0zm82 -83l0 10 0 0 -4 0 -3 1 -4 0 -4 1 -3 1 -4 1 -3 1 -3 1 -3 2 -3 1 -3 2 -3 2 -3 2 -3 2 -3 2 -2 3 -3 2 -2 3 -2 2 -2 3 -2 3 -2 3 -1 3 -2 4 -1 3 -1 3 -1 4 -1 3 -1 4 0 3 0 4 0 4 -10 0 0 -4 0 -5 1 -4 0 -4 1 -4 1 -4 2 -4 1 -3 2 -4 2 -3 2 -4 2 -3 2 -4 2 -3 3 -3 3 -2 3 -3 3 -3 3 -2 3 -3 3 -2 4 -2 3 -1 4 -2 4 -2 4 -1 3 -1 4 -1 4 -1 5 0 4 -1 4 0 0 0zm82 83l-10 0 0 0 0 -4 0 -4 -1 -3 0 -4 -1 -3 -1 -4 -1 -3 -1 -3 -2 -4 -2 -3 -1 -3 -2 -3 -2 -3 -2 -2 -3 -3 -2 -2 -2 -3 -3 -2 -3 -2 -3 -2 -3 -2 -3 -2 -3 -1 -3 -2 -3 -1 -4 -1 -3 -1 -3 -1 -4 -1 -4 0 -3 -1 -4 0 0 -10 4 0 4 1 4 0 5 1 4 1 3 1 4 1 4 2 4 2 3 1 4 2 3 2 3 3 3 2 3 3 3 3 3 2 2 3 3 3 2 4 2 3 2 4 2 3 2 4 1 3 1 4 2 4 1 4 0 4 1 4 0 5 0 4 0 0zm-79 349l0 -10 0 0 4 0 3 -1 4 0 3 -1 4 -1 3 -1 4 -1 3 -1 3 -2 3 -1 3 -2 3 -2 3 -2 3 -2 2 -2 3 -3 2 -2 3 -3 2 -2 2 -3 2 -3 1 -3 2 -3 1 -4 2 -3 1 -3 1 -4 1 -3 0 -4 1 -3 0 -4 0 -4 10 0 0 5 0 4 -1 4 -1 4 -1 4 -1 4 -1 4 -1 3 -2 4 -2 4 -2 3 -2 3 -2 4 -3 3 -2 3 -3 2 -3 3 -3 3 -3 2 -3 3 -4 2 -3 2 -4 1 -3 2 -4 2 -4 1 -4 1 -4 1 -4 1 -4 0 -4 0 -4 1 0 0zm-83 -83l10 0 0 0 1 4 0 4 0 3 1 4 1 3 1 4 1 3 1 3 2 4 1 3 2 3 2 3 2 3 2 2 2 3 3 2 2 3 3 2 3 2 2 2 3 2 3 2 3 1 4 2 3 1 3 1 4 1 3 1 4 1 3 0 4 1 4 0 0 10 -4 -1 -5 0 -4 0 -4 -1 -4 -1 -4 -1 -4 -1 -3 -2 -4 -2 -3 -1 -4 -2 -3 -2 -3 -3 -4 -2 -3 -3 -2 -3 -3 -2 -3 -3 -2 -3 -2 -4 -3 -3 -2 -3 -1 -4 -2 -4 -2 -3 -1 -4 -1 -4 -1 -4 -1 -4 0 -4 0 -4 -1 -5 0 0zm83 -82l0 10 0 0 -4 0 -4 0 -3 1 -4 1 -3 0 -4 1 -3 1 -3 2 -4 1 -3 2 -3 2 -3 1 -2 2 -3 3 -3 2 -2 2 -3 3 -2 2 -2 3 -2 3 -2 3 -2 3 -1 3 -2 3 -1 4 -1 3 -1 3 -1 4 -1 3 0 4 0 4 -1 3 -10 0 1 -4 0 -4 0 -4 1 -4 1 -4 1 -4 1 -4 2 -4 2 -3 1 -4 2 -3 3 -4 2 -3 2 -3 3 -3 3 -3 2 -3 3 -2 4 -3 3 -2 3 -2 4 -2 3 -2 4 -1 3 -2 4 -1 4 -1 4 -1 4 -1 4 -1 5 0 4 0 0 0zm82 82l-10 0 0 0 0 -3 0 -4 -1 -4 0 -3 -1 -4 -1 -3 -1 -3 -2 -4 -1 -3 -2 -3 -1 -3 -2 -3 -2 -3 -2 -3 -3 -2 -2 -3 -3 -2 -2 -2 -3 -3 -3 -2 -3 -1 -3 -2 -3 -2 -3 -1 -3 -2 -4 -1 -3 -1 -4 0 -3 -1 -4 -1 -3 0 -4 0 0 -10 4 0 4 0 4 1 4 1 4 1 4 1 4 1 4 2 3 1 4 2 3 2 4 2 3 2 3 3 3 2 3 3 3 3 2 3 3 3 2 3 2 4 2 3 2 4 2 3 1 4 1 4 1 4 1 4 1 4 1 4 0 4 0 4 0 0zm-363 -51l0 -10 0 0 4 0 3 -1 4 0 4 -1 3 0 4 -1 3 -2 3 -1 3 -1 3 -2 4 -2 2 -2 3 -2 3 -2 3 -2 2 -2 3 -3 2 -3 2 -2 2 -3 2 -3 2 -3 1 -3 2 -3 1 -4 1 -3 1 -3 1 -4 0 -3 1 -4 0 -4 0 -3 10 0 0 4 0 4 -1 4 0 4 -1 4 -1 4 -2 4 -1 4 -2 3 -2 4 -2 3 -2 4 -2 3 -2 3 -3 3 -3 3 -3 2 -3 3 -3 2 -3 3 -3 2 -4 2 -3 2 -4 1 -4 2 -3 1 -4 1 -4 1 -4 1 -5 0 -4 1 -4 0 0 0zm-82 -82l10 0 0 0 0 3 0 4 1 4 0 3 1 4 1 3 1 3 1 4 2 3 2 3 1 3 2 3 2 3 2 2 3 3 2 3 2 2 3 2 3 2 3 2 3 2 3 2 3 2 3 1 3 1 4 2 3 1 4 0 3 1 4 0 3 1 4 0 0 10 -4 0 -4 -1 -4 0 -4 -1 -4 -1 -4 -1 -4 -1 -4 -2 -4 -1 -3 -2 -4 -2 -3 -2 -3 -3 -3 -2 -3 -3 -3 -2 -3 -3 -2 -3 -3 -3 -2 -3 -2 -4 -2 -3 -2 -4 -2 -3 -1 -4 -1 -4 -2 -4 -1 -4 0 -4 -1 -4 0 -4 0 -4 0 0zm82 -83l0 10 0 0 -4 0 -3 1 -4 0 -3 1 -4 0 -3 1 -4 2 -3 1 -3 1 -3 2 -3 2 -3 2 -3 2 -3 2 -3 2 -2 2 -2 3 -3 3 -2 2 -2 3 -2 3 -1 3 -2 3 -2 3 -1 4 -1 3 -1 3 -1 4 0 3 -1 4 0 4 0 4 -10 0 0 -5 0 -4 1 -4 0 -4 1 -4 2 -4 1 -4 1 -4 2 -3 2 -4 2 -3 2 -3 2 -4 3 -3 2 -3 3 -3 3 -2 3 -3 3 -2 3 -3 3 -2 4 -2 3 -2 4 -1 4 -2 4 -1 4 -1 4 -1 4 -1 4 0 4 -1 4 0 0 0zm82 83l-10 0 0 0 0 -4 0 -4 -1 -4 0 -3 -1 -4 -1 -3 -1 -3 -1 -4 -2 -3 -1 -3 -2 -3 -2 -3 -2 -3 -2 -2 -2 -3 -3 -3 -2 -2 -3 -2 -3 -2 -3 -2 -2 -2 -4 -2 -3 -2 -3 -1 -3 -1 -3 -2 -4 -1 -3 0 -4 -1 -4 0 -3 -1 -4 0 0 -10 4 0 4 1 5 0 4 1 4 1 4 1 3 1 4 2 4 1 3 2 4 2 3 2 3 3 3 2 3 3 3 2 3 3 3 3 2 3 2 4 2 3 2 3 2 4 2 3 1 4 2 4 1 4 1 4 0 4 1 4 0 4 0 5 0 0zm-358 -57l0 -10 0 0 4 0 4 0 3 0 4 -1 3 -1 4 -1 3 -1 3 -1 4 -2 3 -1 3 -2 3 -2 2 -2 3 -2 3 -2 2 -3 3 -2 2 -3 2 -3 2 -2 2 -3 2 -3 1 -3 2 -4 1 -3 1 -3 1 -4 1 -3 1 -4 0 -3 0 -4 1 -4 10 0 -1 4 0 5 0 4 -1 4 -1 4 -1 4 -1 3 -2 4 -2 4 -1 3 -2 4 -3 3 -2 3 -2 4 -3 3 -3 2 -2 3 -3 3 -4 2 -3 2 -3 3 -4 2 -3 1 -4 2 -3 1 -4 2 -4 1 -4 1 -4 1 -4 0 -5 0 -4 0 0 0zm-82 -82l10 0 0 0 0 4 0 4 1 3 0 4 1 3 1 4 1 3 2 3 1 4 2 3 1 3 2 3 2 2 2 3 3 3 2 2 3 3 2 2 3 2 3 2 3 2 3 2 3 1 3 2 3 1 4 1 3 1 4 1 3 1 4 0 4 0 3 0 0 10 -4 0 -4 0 -4 0 -4 -1 -4 -1 -4 -1 -4 -2 -4 -1 -3 -2 -4 -1 -3 -2 -4 -3 -3 -2 -3 -2 -3 -3 -3 -3 -3 -2 -2 -3 -3 -4 -2 -3 -2 -3 -2 -4 -2 -3 -2 -4 -1 -4 -1 -3 -1 -4 -1 -4 -1 -4 -1 -4 0 -5 0 -4 0 0zm82 -82l0 10 0 0 -3 0 -4 0 -4 1 -3 0 -4 1 -3 1 -4 1 -3 2 -3 1 -3 2 -3 1 -3 2 -3 2 -3 2 -2 3 -3 2 -2 3 -3 2 -2 3 -2 3 -2 3 -1 3 -2 3 -1 3 -2 3 -1 4 -1 3 -1 4 0 3 -1 4 0 3 0 4 -10 0 0 -4 0 -4 1 -4 1 -4 1 -4 1 -4 1 -4 1 -4 2 -3 2 -4 2 -3 2 -4 2 -3 3 -3 2 -3 3 -3 3 -3 3 -2 3 -3 3 -2 4 -2 3 -2 4 -2 3 -2 4 -1 4 -1 4 -2 4 0 4 -1 4 -1 4 0 4 0 0 0zm83 82l-10 0 0 0 -1 -4 0 -3 0 -4 -1 -3 -1 -4 -1 -3 -1 -4 -1 -3 -2 -3 -1 -3 -2 -3 -2 -3 -2 -3 -2 -3 -2 -2 -3 -3 -2 -2 -3 -3 -3 -2 -2 -2 -3 -2 -3 -1 -3 -2 -4 -1 -3 -2 -3 -1 -4 -1 -3 -1 -4 0 -3 -1 -4 0 -4 0 0 -10 4 0 5 0 4 1 4 1 4 0 4 2 4 1 3 1 4 2 3 2 4 2 3 2 3 2 4 3 3 2 2 3 3 3 3 3 2 3 2 3 3 3 2 4 1 4 2 3 2 4 1 4 1 4 1 4 1 4 0 4 0 4 1 4 0 0zm-82 356l0 -10 0 0 4 0 3 -1 4 0 3 -1 4 -1 3 -1 4 -1 3 -1 3 -1 3 -2 3 -2 3 -2 3 -2 3 -2 3 -2 2 -3 2 -2 3 -3 2 -2 2 -3 2 -3 2 -3 1 -3 2 -4 1 -3 1 -3 1 -4 1 -3 0 -4 1 -3 0 -4 0 -4 10 0 0 5 0 4 -1 4 0 4 -1 4 -1 4 -2 4 -1 3 -2 4 -2 4 -2 3 -2 3 -2 4 -3 3 -2 3 -3 3 -3 2 -3 3 -3 2 -3 3 -3 2 -4 2 -3 2 -4 1 -4 2 -4 1 -4 1 -4 1 -4 1 -4 0 -4 1 -4 0 0 0zm-82 -83l10 0 0 0 0 4 0 4 0 3 1 4 1 3 1 4 1 3 1 3 2 4 1 3 2 3 2 3 2 3 2 2 2 3 3 2 2 3 3 2 3 2 3 2 2 2 3 2 4 2 3 1 3 1 3 1 4 1 3 1 4 1 4 0 3 1 4 0 0 10 -4 0 -5 -1 -4 0 -4 -1 -4 -1 -4 -1 -3 -1 -4 -2 -4 -1 -3 -2 -4 -2 -3 -2 -3 -3 -3 -2 -3 -3 -3 -2 -3 -3 -3 -3 -2 -3 -2 -4 -2 -3 -2 -3 -2 -4 -2 -4 -1 -3 -2 -4 -1 -4 -1 -4 0 -4 -1 -4 0 -4 0 -5 0 0zm82 -82l0 10 0 0 -4 0 -3 0 -4 1 -4 1 -3 0 -4 1 -3 2 -3 1 -3 1 -4 2 -3 2 -2 1 -3 2 -3 3 -3 2 -2 2 -3 3 -2 2 -2 3 -2 3 -2 3 -2 3 -1 3 -2 3 -1 3 -1 4 -1 3 -1 4 -1 3 0 4 0 4 0 3 -10 0 0 -4 0 -4 1 -4 0 -4 1 -4 1 -4 2 -4 1 -4 2 -3 2 -4 2 -3 2 -4 2 -3 2 -3 3 -3 3 -3 3 -3 3 -2 3 -3 3 -2 3 -2 4 -2 3 -2 4 -1 4 -2 3 -1 4 -1 4 -1 4 -1 4 0 5 -1 4 0 0 0zm82 82l-10 0 0 0 0 -3 0 -4 -1 -4 0 -3 -1 -4 -1 -3 -1 -4 -1 -3 -2 -3 -1 -3 -2 -3 -2 -3 -2 -3 -2 -3 -3 -2 -2 -3 -2 -2 -3 -2 -3 -3 -3 -2 -3 -1 -3 -2 -3 -2 -3 -1 -3 -1 -4 -2 -3 -1 -4 0 -3 -1 -4 0 -3 -1 -4 0 0 -10 4 0 4 1 4 0 4 1 4 1 4 1 4 1 4 2 4 1 3 2 4 2 3 2 3 2 3 3 3 2 3 3 3 3 2 3 3 3 2 3 2 4 2 3 2 4 2 3 1 4 2 4 1 4 1 4 0 4 1 4 0 4 0 4 0 0zm615 -134l10 0 0 0 0 13 -1 14 -1 13 -1 13 -2 13 -1 12 -2 12 -3 12 -3 12 -3 12 -3 11 -3 10 -4 11 -4 10 -4 10 -5 9 -5 9 -5 8 -5 8 -5 7 -6 8 -6 6 -6 6 -6 5 -6 5 -7 5 -6 3 -7 4 -7 2 -7 2 -8 1 -7 0 0 -10 6 0 7 -1 6 -2 6 -2 6 -2 6 -4 6 -4 6 -4 6 -5 5 -6 6 -6 5 -7 5 -7 5 -7 5 -8 4 -9 4 -9 5 -9 3 -10 4 -10 4 -10 3 -11 3 -11 2 -12 3 -11 2 -13 2 -12 1 -12 1 -13 1 -13 1 -13 0 -13 0 0zm10 -1l0 1 -10 0 0 -1 0 0 10 0zm-139 -257l0 -10 0 0 7 1 8 1 7 1 7 3 7 3 6 4 7 4 6 5 6 5 6 6 6 7 6 7 5 7 5 8 5 9 5 9 5 9 4 10 4 10 4 10 3 11 3 11 3 11 3 12 3 12 2 12 1 13 2 13 1 13 1 13 1 13 0 14 -10 0 0 -13 -1 -14 -1 -12 -1 -13 -1 -13 -2 -12 -2 -12 -3 -12 -2 -11 -3 -11 -3 -11 -4 -11 -4 -10 -3 -10 -5 -9 -4 -9 -4 -8 -5 -8 -5 -8 -5 -7 -5 -7 -6 -6 -5 -5 -6 -5 -6 -5 -6 -4 -6 -3 -6 -3 -6 -2 -6 -2 -7 -1 -6 0 0 0zm-584 -10l584 0 0 10 -584 0 0 0 0 -10zm-129 267l-10 0 0 0 0 -14 1 -13 1 -13 1 -13 2 -13 1 -13 2 -12 3 -12 3 -12 3 -11 3 -11 3 -11 4 -10 4 -10 4 -10 5 -9 5 -9 5 -9 5 -8 5 -7 6 -7 6 -7 6 -6 6 -5 6 -5 7 -4 6 -4 7 -3 7 -3 7 -1 8 -1 7 -1 0 10 -6 0 -7 1 -6 2 -6 2 -6 3 -6 3 -6 4 -6 5 -6 5 -5 5 -6 6 -5 7 -5 7 -5 8 -5 8 -4 8 -4 9 -5 9 -3 10 -4 10 -4 11 -3 11 -3 11 -2 11 -3 12 -2 12 -2 12 -1 13 -1 13 -1 12 -1 14 0 13 0 0zm-10 1l0 -1 10 0 0 1 0 0 -10 0zm139 256l0 10 0 0 -7 0 -8 -1 -7 -2 -7 -2 -7 -4 -6 -3 -7 -5 -6 -5 -6 -5 -6 -6 -6 -6 -6 -7 -5 -8 -5 -8 -5 -8 -5 -9 -5 -9 -4 -10 -4 -10 -4 -11 -3 -10 -3 -11 -3 -12 -3 -12 -3 -12 -2 -12 -1 -12 -2 -13 -1 -13 -1 -13 -1 -14 0 -13 10 0 0 13 1 13 1 13 1 13 1 12 2 12 2 13 3 11 2 12 3 11 3 11 4 10 4 10 3 10 5 9 4 9 4 9 5 8 5 7 5 7 5 7 6 6 5 6 6 5 6 4 6 4 6 4 6 2 6 2 6 2 7 1 6 0 0 0zm584 10l-584 0 0 -10 584 0 0 0 0 10zm164 -266l10 0 0 0 0 15 -1 15 -1 15 -1 15 -2 15 -2 14 -3 14 -3 14 -4 13 -3 13 -4 13 -4 12 -5 12 -5 11 -5 11 -5 11 -6 10 -6 9 -6 9 -6 9 -7 8 -6 7 -7 7 -7 6 -7 6 -7 5 -8 4 -7 3 -8 3 -7 2 -8 1 -8 1 0 -10 7 0 7 -2 6 -1 7 -3 7 -3 6 -4 7 -4 7 -5 6 -6 6 -7 7 -7 6 -7 6 -8 6 -9 5 -9 6 -10 5 -10 5 -11 5 -11 4 -11 4 -12 4 -13 4 -12 3 -14 3 -13 3 -14 2 -14 2 -14 1 -15 1 -14 1 -15 0 -15 0 0zm10 -1l0 1 -10 0 0 -1 0 0 10 0zm-167 -293l0 -10 0 0 8 0 7 1 8 2 8 3 8 3 7 5 8 5 7 5 7 6 7 7 7 7 7 8 7 9 6 9 6 9 6 10 6 11 6 11 5 11 5 12 4 13 5 12 4 13 4 14 3 13 3 14 2 15 2 14 2 15 1 15 1 15 0 16 -10 0 0 -15 -1 -15 -1 -15 -2 -15 -2 -14 -2 -14 -3 -14 -3 -13 -4 -13 -4 -13 -4 -12 -4 -12 -5 -12 -5 -11 -6 -10 -5 -11 -6 -9 -6 -9 -6 -9 -7 -8 -6 -8 -7 -7 -7 -6 -6 -6 -7 -5 -7 -5 -7 -4 -7 -3 -7 -2 -7 -2 -6 -1 -7 0 0 0zm-605 -10l605 0 0 10 -605 0 0 0 0 -10zm-150 303l-10 0 0 0 0 -16 1 -15 1 -15 1 -15 2 -14 3 -15 2 -14 3 -13 4 -14 4 -13 4 -12 4 -13 5 -11 5 -12 5 -11 5 -10 6 -10 6 -10 6 -9 6 -9 7 -8 6 -7 7 -7 7 -6 7 -5 8 -5 7 -5 8 -3 7 -3 8 -2 8 -1 7 0 0 10 -6 0 -7 1 -7 2 -7 2 -6 3 -7 4 -7 5 -6 5 -7 6 -6 6 -7 7 -6 8 -6 8 -6 8 -6 10 -5 9 -5 11 -5 10 -5 11 -5 12 -4 12 -4 12 -4 13 -3 13 -3 13 -3 14 -2 14 -2 14 -1 15 -1 15 -1 15 0 15 0 0zm-10 1l0 -1 10 0 0 1 0 0 -10 0zm160 293l0 10 0 0 -7 -1 -8 -1 -8 -2 -7 -3 -8 -3 -7 -4 -8 -5 -7 -6 -7 -6 -7 -7 -6 -7 -7 -8 -6 -9 -6 -9 -6 -9 -6 -10 -5 -11 -5 -11 -5 -11 -5 -12 -4 -12 -4 -13 -4 -13 -4 -13 -3 -14 -2 -14 -3 -14 -2 -15 -1 -15 -1 -15 -1 -15 0 -15 10 0 0 15 1 15 1 14 1 15 2 14 2 14 3 14 3 13 3 13 4 13 4 13 4 12 5 11 5 11 5 11 5 10 5 10 6 9 6 9 6 8 6 7 7 7 6 7 7 6 6 5 7 4 7 4 6 3 7 3 7 1 7 2 6 0 0 0zm613 10l-613 0 0 -10 613 0 0 0 0 10zm-909 3431l10 0 0 0 0 1 0 1 0 1 0 1 0 1 1 1 0 1 0 1 1 0 0 1 0 1 1 1 1 1 0 0 1 1 0 1 1 0 1 1 0 0 1 1 1 0 1 1 1 0 0 1 1 0 1 0 1 1 1 0 1 0 1 0 1 0 1 0 0 10 -2 0 -1 0 -2 0 -1 0 -1 -1 -2 0 -1 -1 -1 0 -2 -1 -1 0 -1 -1 -1 -1 -2 -1 -1 0 -1 -1 -1 -1 -1 -1 -1 -1 -1 -2 0 -1 -1 -1 -1 -1 0 -1 -1 -2 -1 -1 0 -1 0 -2 -1 -1 0 -2 0 -1 0 -2 0 -1 0 0zm29 -29l0 10 0 0 -1 0 -1 0 -1 0 -1 0 -1 0 -1 1 -1 0 -1 0 0 1 -1 0 -1 1 -1 0 -1 1 0 0 -1 1 -1 0 0 1 -1 1 0 0 -1 1 -1 1 0 1 0 1 -1 0 0 1 0 1 -1 1 0 1 0 1 0 1 0 1 0 1 -10 0 0 -1 0 -2 0 -1 0 -2 1 -1 0 -2 0 -1 1 -1 1 -2 0 -1 1 -1 1 -1 0 -1 1 -2 1 -1 1 -1 1 -1 1 -1 1 0 2 -1 1 -1 1 -1 1 0 2 -1 1 0 1 -1 2 0 1 -1 1 0 2 0 1 0 2 0 0 0zm29 29l-10 0 0 0 0 -1 0 -1 0 -1 0 -1 -1 -1 0 -1 0 -1 0 -1 -1 0 0 -1 -1 -1 0 -1 -1 -1 0 0 -1 -1 -1 -1 0 0 -1 -1 -1 0 0 -1 -1 0 -1 -1 -1 0 -1 -1 0 0 -1 0 -1 -1 -1 0 -1 0 -1 0 -1 0 -1 0 0 -10 1 0 2 0 1 0 2 0 1 1 2 0 1 1 1 0 2 1 1 0 1 1 1 1 1 1 1 0 2 1 1 1 1 1 0 1 1 2 1 1 1 1 1 1 0 1 1 2 0 1 1 1 0 2 0 1 1 2 0 1 0 2 0 1 0 0zm-29 29l0 -10 0 0 1 0 1 0 1 0 1 0 1 0 1 -1 0 0 1 0 1 -1 1 0 1 -1 1 0 0 -1 1 0 1 -1 0 0 1 -1 1 -1 0 0 1 -1 0 -1 1 -1 0 -1 1 0 0 -1 0 -1 0 -1 1 -1 0 -1 0 -1 0 -1 0 -1 10 0 0 1 0 2 0 1 -1 2 0 1 0 2 -1 1 0 1 -1 2 0 1 -1 1 -1 1 -1 1 -1 2 0 1 -1 1 -1 1 -2 1 -1 0 -1 1 -1 1 -1 1 -1 0 -2 1 -1 0 -1 1 -2 0 -1 1 -2 0 -1 0 -2 0 -1 0 0 0zm28 -29l10 0 0 0 0 1 0 1 0 1 1 1 0 1 0 1 0 1 1 0 0 1 1 1 0 1 1 1 0 1 1 0 0 1 1 1 1 0 0 1 1 0 1 1 1 0 0 1 1 0 1 1 1 0 1 0 1 1 1 0 1 0 0 0 1 0 1 0 0 10 -1 0 -2 0 -1 0 -1 0 -2 -1 -1 0 -2 -1 -1 0 -1 -1 -1 0 -2 -1 -1 -1 -1 -1 -1 0 -1 -1 -1 -1 -1 -1 -1 -1 -1 -2 -1 -1 -1 -1 0 -1 -1 -1 0 -2 -1 -1 0 -1 -1 -2 0 -1 0 -2 -1 -1 0 -1 0 -2 0 0zm29 -29l0 10 0 0 -1 0 -1 0 0 0 -1 0 -1 0 -1 1 -1 0 -1 0 -1 1 -1 0 0 1 -1 0 -1 1 -1 0 0 1 -1 0 -1 1 0 1 -1 0 0 1 -1 1 0 1 -1 1 0 1 -1 0 0 1 0 1 0 1 -1 1 0 1 0 1 0 1 -10 0 0 -2 0 -1 1 -1 0 -2 0 -1 1 -2 0 -1 1 -1 0 -2 1 -1 0 -1 1 -1 1 -1 1 -2 1 -1 1 -1 1 -1 1 -1 1 0 1 -1 1 -1 2 -1 1 0 1 -1 1 0 2 -1 1 0 2 -1 1 0 1 0 2 0 1 0 0 0zm30 29l-10 0 0 0 0 -1 0 -1 -1 -1 0 -1 0 -1 0 -1 0 -1 -1 0 0 -1 -1 -1 0 -1 -1 -1 0 0 -1 -1 0 -1 -1 -1 -1 0 0 -1 -1 0 -1 -1 -1 0 0 -1 -1 0 -1 -1 -1 0 -1 0 -1 -1 -1 0 -1 0 -1 0 -1 0 -1 0 0 -10 2 0 1 0 2 0 1 0 2 1 1 0 1 1 2 0 1 1 1 0 2 1 1 1 1 1 1 0 1 1 1 1 1 1 1 1 1 1 1 2 0 1 1 1 1 1 0 2 1 1 0 1 1 2 0 1 0 2 1 1 0 1 0 2 0 0zm-30 29l0 -10 0 0 1 0 1 0 1 0 1 0 1 0 1 -1 1 0 1 0 1 -1 1 0 0 -1 1 0 1 -1 1 0 0 -1 1 0 1 -1 0 -1 1 0 0 -1 1 -1 0 -1 1 -1 0 -1 1 0 0 -1 0 -1 0 -1 0 -1 1 -1 0 -1 0 -1 10 0 0 2 0 1 -1 1 0 2 0 1 -1 2 0 1 -1 1 0 2 -1 1 -1 1 0 1 -1 2 -1 1 -1 1 -1 1 -1 1 -1 1 -1 0 -1 1 -1 1 -2 1 -1 0 -1 1 -2 0 -1 1 -1 0 -2 1 -1 0 -2 0 -1 0 -2 0 0 0zm29 -29l10 0 0 0 0 1 0 1 0 1 0 1 0 1 1 1 0 1 0 1 1 0 0 1 1 1 0 1 1 1 0 0 1 1 0 1 1 0 1 1 1 0 0 1 1 0 1 1 1 0 1 1 0 0 1 0 1 1 1 0 1 0 1 0 1 0 1 0 0 10 -1 0 -2 0 -1 0 -2 0 -1 -1 -2 0 -1 -1 -1 0 -2 -1 -1 0 -1 -1 -1 -1 -1 -1 -2 0 -1 -1 -1 -1 -1 -1 0 -1 -1 -2 -1 -1 -1 -1 -1 -1 0 -1 -1 -2 0 -1 -1 -1 0 -2 -1 -1 0 -2 0 -1 0 -2 0 -1 0 0zm29 -29l0 10 0 0 -1 0 -1 0 -1 0 -1 0 -1 0 -1 1 -1 0 0 0 -1 1 -1 0 -1 1 -1 0 0 1 -1 0 -1 1 -1 0 0 1 -1 1 0 0 -1 1 0 1 -1 1 0 1 -1 0 0 1 0 1 -1 1 0 1 0 1 0 1 0 1 0 1 -10 0 0 -1 0 -2 0 -1 0 -2 1 -1 0 -2 1 -1 0 -1 1 -2 0 -1 1 -1 1 -1 1 -1 1 -2 0 -1 1 -1 1 -1 1 -1 2 0 1 -1 1 -1 1 -1 1 0 2 -1 1 0 1 -1 2 0 1 -1 2 0 1 0 2 0 1 0 0 0zm29 29l-10 0 0 0 0 -1 0 -1 0 -1 0 -1 0 -1 -1 -1 0 -1 0 -1 -1 0 0 -1 -1 -1 0 -1 -1 -1 0 0 -1 -1 0 -1 -1 0 -1 -1 0 0 -1 -1 -1 0 -1 -1 -1 0 0 -1 -1 0 -1 0 -1 -1 -1 0 -1 0 -1 0 -1 0 -1 0 0 -10 2 0 1 0 1 0 2 0 1 1 2 0 1 1 1 0 2 1 1 0 1 1 1 1 2 1 1 0 1 1 1 1 1 1 1 1 0 2 1 1 1 1 1 1 0 1 1 2 0 1 1 1 0 2 1 1 0 2 0 1 0 2 0 1 0 0zm-29 29l0 -10 0 0 1 0 1 0 1 0 1 0 1 0 1 -1 1 0 1 0 0 -1 1 0 1 -1 1 0 1 -1 0 0 1 -1 1 0 0 -1 1 -1 0 0 1 -1 0 -1 1 -1 0 -1 1 0 0 -1 0 -1 1 -1 0 -1 0 -1 0 -1 0 -1 0 -1 10 0 0 1 0 2 0 1 0 2 -1 1 0 2 -1 1 0 1 -1 2 0 1 -1 1 -1 1 -1 1 0 2 -1 1 -1 1 -1 1 -1 1 -1 0 -2 1 -1 1 -1 1 -1 0 -2 1 -1 0 -1 1 -2 0 -1 1 -2 0 -1 0 -1 0 -2 0 0 0zm28 -29l10 0 0 0 0 1 0 1 1 1 0 1 0 1 0 1 1 1 0 0 0 1 1 1 0 1 1 1 0 1 1 0 0 1 1 1 1 0 0 1 1 0 1 1 1 0 0 1 1 0 1 1 1 0 1 0 1 1 1 0 1 0 1 0 1 0 1 0 0 10 -2 0 -1 0 -2 0 -1 0 -2 -1 -1 0 -1 -1 -2 0 -1 -1 -1 0 -2 -1 -1 -1 -1 -1 -1 0 -1 -1 -1 -1 -1 -1 -1 -1 -1 -1 -1 -2 0 -1 -1 -1 -1 -1 0 -2 -1 -1 0 -1 -1 -2 0 -1 0 -2 0 -1 -1 -1 0 -2 0 0zm30 -29l0 10 0 0 -1 0 -1 0 -1 0 -1 0 -1 0 -1 1 -1 0 -1 0 -1 1 -1 0 0 1 -1 0 -1 1 -1 0 0 1 -1 0 -1 1 0 1 -1 1 0 0 -1 1 0 1 -1 1 0 1 0 0 -1 1 0 1 0 1 0 1 -1 1 0 1 0 1 -10 0 0 -2 1 -1 0 -1 0 -2 0 -1 1 -2 0 -1 1 -1 0 -2 1 -1 1 -1 0 -1 1 -2 1 -1 1 -1 1 -1 1 -1 1 -1 1 0 1 -1 1 -1 2 -1 1 0 1 -1 2 0 1 -1 1 0 2 -1 1 0 2 0 1 0 2 0 0 0zm29 29l-10 0 0 0 0 -1 0 -1 0 -1 -1 -1 0 -1 0 -1 0 -1 -1 -1 0 0 0 -1 -1 -1 0 -1 -1 -1 -1 0 0 -1 -1 -1 0 0 -1 -1 -1 0 -1 -1 0 0 -1 -1 -1 0 -1 -1 -1 0 -1 0 -1 -1 0 0 -1 0 -1 0 -1 0 -1 0 0 -10 1 0 2 0 1 0 2 0 1 1 1 0 2 1 1 0 1 1 2 0 1 1 1 1 1 1 1 0 1 1 1 1 1 1 1 1 1 2 1 1 1 1 0 1 1 1 1 2 0 1 1 1 0 2 0 1 1 2 0 1 0 2 0 1 0 0zm-29 29l0 -10 0 0 1 0 1 0 1 0 1 0 0 0 1 -1 1 0 1 0 1 -1 1 0 1 -1 0 0 1 -1 1 0 1 -1 0 0 1 -1 0 -1 1 0 1 -1 0 -1 1 -1 0 -1 0 0 1 -1 0 -1 0 -1 0 -1 1 -1 0 -1 0 -1 0 -1 10 0 0 1 0 2 0 1 -1 2 0 1 0 2 -1 1 0 1 -1 2 -1 1 0 1 -1 1 -1 1 -1 2 -1 1 -1 1 -1 1 -1 1 -1 0 -1 1 -1 1 -1 1 -2 0 -1 1 -1 0 -2 1 -1 0 -1 1 -2 0 -1 0 -2 0 -1 0 0 0zm28 -29l10 0 0 0 0 1 0 1 0 1 0 1 1 1 0 1 0 1 1 1 0 0 0 1 1 1 0 1 1 1 0 0 1 1 1 1 0 0 1 1 1 0 0 1 1 0 1 1 1 0 1 1 1 0 0 0 1 1 1 0 1 0 1 0 1 0 1 0 0 10 -1 0 -2 0 -1 0 -2 0 -1 -1 -1 0 -2 -1 -1 0 -1 -1 -2 0 -1 -1 -1 -1 -1 -1 -1 0 -1 -1 -1 -1 -1 -1 -1 -1 -1 -2 -1 -1 -1 -1 0 -1 -1 -1 -1 -2 0 -1 -1 -1 0 -2 0 -1 -1 -2 0 -1 0 -2 0 -1 0 0zm29 -29l0 10 0 0 -1 0 -1 0 -1 0 -1 0 -1 0 -1 1 0 0 -1 0 -1 1 -1 0 -1 1 -1 0 0 1 -1 0 -1 1 0 0 -1 1 -1 1 0 0 -1 1 0 1 -1 1 0 1 0 0 -1 1 0 1 0 1 -1 1 0 1 0 1 0 1 0 1 -10 0 0 -1 0 -2 0 -1 1 -2 0 -1 0 -2 1 -1 0 -1 1 -2 1 -1 0 -1 1 -1 1 -1 1 -2 1 -1 1 -1 1 -1 1 -1 1 0 1 -1 1 -1 1 -1 2 0 1 -1 1 0 2 -1 1 0 1 -1 2 0 1 0 2 0 1 0 0 0zm29 29l-10 0 0 0 0 -1 0 -1 0 -1 0 -1 0 -1 0 -1 -1 -1 0 0 0 -1 -1 -1 0 -1 -1 -1 0 0 -1 -1 -1 -1 0 -1 -1 0 -1 -1 0 0 -1 -1 -1 0 -1 -1 0 0 -1 -1 -1 0 -1 0 -1 -1 -1 0 -1 0 -1 0 -1 0 -1 0 0 -10 2 0 1 0 2 0 1 0 2 1 1 0 1 1 2 0 1 1 1 0 1 1 2 1 1 1 1 0 1 1 1 1 1 1 1 1 1 1 0 2 1 1 1 1 1 1 0 2 1 1 0 1 1 2 0 1 0 2 0 1 0 1 0 2 0 0zm-29 29l0 -10 0 0 1 0 1 0 1 0 1 0 1 0 1 -1 1 0 1 0 1 -1 0 0 1 -1 1 0 1 -1 0 0 1 -1 1 0 0 -1 1 -1 1 0 0 -1 1 -1 0 -1 1 -1 0 -1 0 0 1 -1 0 -1 0 -1 0 -1 0 -1 0 -1 0 -1 10 0 0 2 0 1 0 1 0 2 0 1 -1 2 0 1 -1 1 0 2 -1 1 -1 1 -1 1 0 2 -1 1 -1 1 -1 1 -1 1 -1 1 -1 0 -1 1 -2 1 -1 1 -1 0 -1 1 -2 0 -1 1 -1 0 -2 1 -1 0 -2 0 -1 0 -2 0 0 0zm81 4l10 0 0 0 0 1 1 0 0 1 0 1 0 1 0 0 0 1 1 1 0 0 0 1 0 0 1 1 0 0 1 1 0 0 1 1 0 0 1 1 0 0 1 1 0 0 1 0 0 1 1 0 1 0 0 0 1 1 1 0 0 0 1 0 1 0 0 0 0 10 -1 0 -1 0 -1 0 -1 0 -2 -1 -1 0 -1 0 -1 -1 -1 0 -1 -1 -1 0 -1 -1 -1 -1 -1 0 -1 -1 -1 -1 0 -1 -1 -1 -1 -1 0 -1 -1 -1 -1 0 0 -2 -1 -1 0 -1 0 -1 -1 -1 0 -1 0 -1 0 -1 -1 -2 0 -1 0 0zm24 -24l0 10 0 0 0 0 -1 0 -1 0 0 0 -1 1 -1 0 0 0 -1 0 -1 1 0 0 -1 0 0 1 -1 0 0 0 -1 1 -1 0 0 1 0 0 -1 1 0 0 -1 1 0 0 0 1 0 1 -1 0 0 1 0 1 0 0 0 1 0 1 -1 0 0 1 -10 0 0 -1 1 -1 0 -2 0 -1 0 -1 1 -1 0 -1 0 -1 1 -1 0 -1 1 -1 1 -1 0 -1 1 -1 1 -1 0 -1 1 -1 1 0 1 -1 1 -1 1 0 1 -1 1 0 1 -1 1 0 1 -1 1 0 2 0 1 -1 1 0 1 0 1 0 0 0zm24 24l-10 0 0 0 0 -1 0 0 0 -1 0 -1 0 0 0 -1 0 -1 -1 0 0 -1 0 -1 -1 0 0 -1 0 0 -1 -1 0 0 -1 -1 0 0 -1 -1 0 0 -1 0 0 -1 -1 0 -1 0 0 -1 -1 0 0 0 -1 0 -1 -1 0 0 -1 0 -1 0 -1 0 0 -10 2 0 1 0 1 0 1 1 1 0 2 0 1 1 1 0 1 1 1 0 1 1 1 0 1 1 1 1 0 0 1 1 1 1 1 1 1 1 0 1 1 1 0 1 1 1 0 1 1 1 0 1 1 1 0 1 0 1 0 2 0 1 0 1 0 0zm-24 24l0 -10 0 0 1 0 1 0 0 0 1 0 1 0 1 -1 0 0 1 0 0 0 1 -1 1 0 0 0 1 -1 0 0 1 -1 0 0 1 -1 0 0 1 -1 0 0 0 -1 1 0 0 -1 0 0 1 -1 0 -1 0 0 0 -1 0 -1 0 -1 0 0 0 -1 10 0 0 1 0 2 0 1 0 1 0 1 -1 1 0 1 -1 1 0 1 -1 2 0 0 -1 1 0 1 -1 1 -1 1 -1 1 -1 1 0 1 -1 0 -1 1 -1 1 -1 0 -1 1 -1 0 -1 1 -2 0 -1 0 -1 1 -1 0 -1 0 -1 0 -2 0 0 0zm164 -17l148 0 0 10 -148 0 0 0 0 -10zm-49 -40l10 0 0 0 0 2 0 2 0 2 0 2 1 2 0 2 1 2 1 2 1 2 0 1 1 2 1 2 2 1 1 2 1 1 1 1 2 2 1 1 2 1 1 1 2 1 1 1 2 1 2 1 2 1 2 0 1 1 2 0 2 1 2 0 2 0 2 0 0 10 -2 0 -3 0 -2 -1 -3 0 -2 -1 -2 0 -3 -1 -2 -1 -2 -1 -2 -1 -2 -1 -2 -1 -2 -2 -2 -1 -2 -2 -2 -2 -1 -1 -2 -2 -1 -2 -2 -2 -1 -2 -1 -2 -1 -2 -1 -2 -1 -3 -1 -2 -1 -2 0 -3 -1 -2 0 -3 0 -2 0 -3 0 0zm49 -49l0 10 0 0 -2 0 -2 0 -2 0 -2 1 -2 0 -1 0 -2 1 -2 1 -2 1 -2 0 -1 1 -2 1 -1 2 -2 1 -1 1 -2 1 -1 2 -1 1 -1 2 -2 1 -1 2 -1 1 0 2 -1 2 -1 2 -1 2 0 1 -1 2 0 2 0 2 0 2 0 2 -10 0 0 -2 0 -3 0 -2 1 -3 0 -2 1 -2 1 -3 1 -2 1 -2 1 -2 1 -2 1 -2 2 -2 1 -2 2 -2 1 -2 2 -1 2 -2 2 -1 2 -2 2 -1 2 -1 2 -1 2 -1 2 -1 3 -1 2 -1 2 0 3 -1 2 0 3 0 2 0 0 0zm148 10l-148 0 0 -10 148 0 0 0 0 10zm49 39l-10 0 0 0 0 -2 0 -2 0 -2 0 -2 -1 -2 0 -1 -1 -2 -1 -2 -1 -2 0 -2 -1 -1 -1 -2 -2 -1 -1 -2 -1 -1 -1 -2 -2 -1 -1 -1 -2 -1 -1 -2 -2 -1 -1 -1 -2 0 -2 -1 -2 -1 -2 -1 -1 0 -2 0 -2 -1 -2 0 -2 0 -2 0 0 -10 2 0 3 0 2 0 3 1 2 0 2 1 3 1 2 1 2 1 2 1 2 1 2 1 2 2 2 1 2 2 2 1 1 2 2 2 1 2 2 2 1 2 1 2 1 2 1 2 1 2 1 3 1 2 0 2 1 3 0 2 0 3 0 2 0 0zm-49 50l0 -10 0 0 2 0 2 0 2 0 2 -1 2 0 1 -1 2 0 2 -1 2 -1 2 -1 1 -1 2 -1 1 -1 2 -1 1 -1 2 -2 1 -1 1 -1 1 -2 2 -1 1 -2 1 -2 0 -1 1 -2 1 -2 1 -2 0 -2 1 -2 0 -2 0 -2 0 -2 0 -2 10 0 0 3 0 2 0 3 -1 2 0 3 -1 2 -1 2 -1 3 -1 2 -1 2 -1 2 -1 2 -2 2 -1 2 -2 2 -1 1 -2 2 -2 2 -2 1 -2 2 -2 1 -2 1 -2 1 -2 1 -2 1 -3 1 -2 0 -2 1 -3 0 -2 1 -3 0 -2 0 0 0zm411 -51l10 0 0 0 0 3 0 3 0 2 1 3 0 2 1 3 1 2 1 3 1 2 1 2 1 2 2 3 1 2 2 2 1 2 2 1 2 2 2 2 2 1 2 2 2 1 2 2 3 1 2 1 2 1 3 1 2 0 3 1 2 0 3 1 3 0 2 0 0 10 -3 0 -3 0 -3 -1 -3 0 -3 -1 -3 -1 -3 -1 -3 -1 -3 -1 -3 -2 -2 -1 -3 -2 -2 -2 -3 -1 -2 -2 -2 -2 -2 -3 -2 -2 -2 -2 -2 -3 -1 -2 -2 -3 -1 -3 -1 -2 -2 -3 -1 -3 0 -3 -1 -3 -1 -3 0 -3 0 -4 0 -3 0 0zm62 -63l0 10 0 0 -2 0 -3 1 -3 0 -2 0 -3 1 -2 1 -3 0 -2 1 -2 1 -3 2 -2 1 -2 1 -2 2 -2 1 -2 2 -2 2 -2 2 -1 2 -2 2 -1 2 -2 2 -1 2 -1 2 -1 3 -1 2 -1 2 -1 3 0 2 -1 3 0 3 0 2 0 3 -10 0 0 -3 0 -3 0 -3 1 -4 1 -3 0 -3 1 -2 2 -3 1 -3 1 -3 2 -2 1 -3 2 -2 2 -3 2 -2 2 -2 2 -2 2 -2 3 -2 2 -2 3 -2 2 -1 3 -2 3 -1 3 -1 3 -1 3 -1 3 0 3 -1 3 0 3 -1 3 0 0 0zm63 63l-10 0 0 0 0 -3 0 -2 0 -3 -1 -3 0 -2 -1 -3 -1 -2 -1 -2 -1 -3 -1 -2 -1 -2 -2 -2 -1 -2 -2 -2 -2 -2 -1 -2 -2 -2 -2 -2 -2 -1 -2 -2 -2 -1 -2 -1 -3 -2 -2 -1 -2 -1 -3 0 -2 -1 -3 -1 -3 0 -2 0 -3 -1 -3 0 0 -10 4 0 3 1 3 0 3 1 3 0 3 1 3 1 3 1 3 1 2 2 3 1 3 2 2 2 2 2 3 2 2 2 2 2 2 2 2 3 1 2 2 3 2 2 1 3 1 3 1 3 1 2 1 3 1 3 0 4 1 3 0 3 0 3 0 0zm-63 63l0 -10 0 0 3 0 3 0 2 -1 3 0 3 -1 2 0 3 -1 2 -1 2 -1 3 -1 2 -2 2 -1 2 -2 2 -1 2 -2 2 -2 1 -1 2 -2 2 -2 1 -2 2 -3 1 -2 1 -2 1 -2 1 -3 1 -2 1 -3 0 -2 1 -3 0 -2 0 -3 0 -3 10 0 0 3 0 4 -1 3 0 3 -1 3 -1 3 -1 3 -1 3 -1 2 -1 3 -2 3 -2 2 -1 3 -2 2 -2 2 -2 3 -2 2 -3 2 -2 1 -2 2 -3 2 -3 1 -2 2 -3 1 -3 1 -3 1 -3 1 -3 1 -3 0 -3 1 -3 0 -4 0 0 0zm611 -4638l-13 339 -10 0 13 -340 5 -5 5 6zm-5 -6l5 0 0 6 -5 -6zm-199 0l199 0 0 10 -199 0 -5 -4 5 -6zm-5 6l-1 -6 6 0 -5 6zm39 416l-39 -416 10 -1 39 416 0 1 -10 0zm10 -1l0 0 0 1 0 -1zm-10 36l0 -35 10 0 0 35 0 0 -10 0zm-228 -237l0 -10 0 0 13 0 12 1 13 2 12 2 11 3 12 3 11 4 11 4 11 5 10 5 10 6 10 7 9 6 9 8 9 8 8 8 8 8 7 9 7 9 6 10 6 10 6 10 5 11 5 11 4 11 3 12 3 12 3 12 2 12 1 12 1 13 0 13 -10 0 0 -13 -1 -12 -1 -12 -2 -12 -2 -11 -3 -11 -4 -11 -4 -11 -4 -11 -5 -10 -5 -10 -6 -10 -6 -9 -7 -9 -7 -8 -7 -8 -8 -8 -8 -8 -9 -7 -9 -6 -9 -6 -10 -6 -10 -5 -10 -5 -10 -4 -11 -4 -11 -3 -11 -2 -12 -2 -12 -2 -12 -1 -12 0 0 0zm-39 -10l39 0 0 10 -39 0 -5 -5 5 -5zm0 10l-5 0 0 -5 5 5zm5 -204l0 199 -10 0 0 -199 5 -5 5 5zm-5 -5l5 0 0 5 -5 -5zm-1439 0l1439 0 0 10 -1439 0 -5 -5 5 -5zm-5 5l0 -5 5 0 -5 5zm0 199l0 -199 10 0 0 199 -5 5 -5 -5zm10 0l0 5 -5 0 5 -5zm-47 -5l42 0 0 10 -42 0 0 0 0 -10zm-238 247l10 0 -10 0 0 -13 1 -13 1 -12 2 -12 2 -12 3 -12 4 -12 4 -11 5 -11 5 -11 5 -10 6 -10 7 -10 7 -9 7 -9 8 -9 8 -8 9 -7 9 -8 9 -7 10 -6 10 -6 10 -5 11 -5 11 -4 11 -4 11 -4 12 -2 12 -2 13 -2 12 -1 13 0 0 10 -12 0 -12 1 -12 2 -12 2 -11 2 -11 3 -11 4 -10 4 -11 5 -10 5 -9 6 -9 6 -9 6 -9 7 -8 8 -8 7 -7 8 -7 9 -7 9 -6 9 -6 10 -5 10 -5 10 -5 11 -3 10 -4 11 -3 12 -2 11 -2 12 -1 12 -1 12 0 13 -10 0zm10 -35l0 35 -10 0 0 -35 0 -1 10 1zm-10 0l0 -1 0 0 0 1zm49 -417l-39 417 -10 -1 39 -416 5 -5 5 5zm-5 -5l6 0 -1 5 -5 -5zm-199 0l199 0 0 10 -199 0 -5 -5 5 -5zm-5 5l0 -5 5 0 -5 5zm13 332l-13 -332 10 0 13 332 0 0 -10 0zm10 0l0 0 0 0 0 0zm-10 601l0 -601 10 0 0 601 0 0 -10 0zm10 0l0 0 0 0 0 0zm38 38l0 10 -1 0 -2 0 -3 0 -3 0 -3 -1 -2 0 -3 -1 -2 0 -2 -1 -3 -1 -2 0 -2 -1 -2 -1 -2 -2 -2 -1 -1 -1 -2 -2 -1 -1 -2 -2 -1 -2 -1 -2 -1 -2 -1 -2 -1 -2 -1 -2 0 -3 -1 -2 0 -2 0 -3 0 -3 -1 -2 0 -3 0 -3 10 0 0 3 0 2 0 3 1 2 0 2 0 2 1 2 0 2 1 2 0 1 1 2 1 1 0 2 1 1 1 1 1 1 1 1 2 1 1 1 1 1 2 1 1 0 2 1 2 1 1 0 2 1 2 0 3 0 2 1 2 0 3 0 3 0 0 0zm0 10l-1 0 0 0 1 0zm13 -10l-1 10 0 0 0 0 0 0 0 0 0 0 -1 0 0 0 0 0 -1 0 0 0 -1 0 0 0 -1 0 0 0 -1 0 0 0 -1 0 0 0 -1 0 -1 0 0 0 -1 0 0 0 -1 0 0 0 -1 0 0 0 0 0 -1 0 0 0 0 0 0 0 0 0 0 -10 0 0 0 0 0 0 0 0 1 0 0 0 0 0 1 0 0 0 1 0 0 0 1 0 0 0 1 0 0 0 1 0 1 0 0 0 1 0 0 0 1 0 0 0 1 0 0 0 1 0 0 0 0 0 1 0 0 0 0 0 0 0 1 0 0 0zm0 0l0 0 0 0 0 0zm40 47l-10 0 0 0 0 -3 0 -2 0 -3 -1 -2 0 -2 0 -2 0 -2 -1 -1 0 -2 -1 -2 0 -1 -1 -2 -1 -1 0 -1 -1 -1 -1 -1 -1 -1 -1 -1 -1 -1 -1 -1 -1 -1 -1 -1 -2 0 -1 -1 -1 0 -2 -1 -2 0 -1 0 -2 -1 -2 0 -2 0 -3 0 1 -10 2 0 3 0 2 0 2 1 2 0 3 1 2 0 2 1 2 1 1 1 2 1 2 1 1 1 2 1 1 2 2 1 1 2 1 1 1 2 1 2 1 2 1 2 0 2 1 2 0 2 1 3 0 2 0 2 1 3 0 2 0 3 0 3 0 0zm-10 0l0 0 0 0 0 0zm0 505l0 -505 10 0 0 505 -10 0 0 0zm0 0l0 0 0 0 0 0zm-28 38l-1 -10 0 0 3 0 2 0 2 0 2 0 1 0 2 0 2 -1 1 0 1 0 2 -1 1 0 1 -1 1 0 1 -1 0 0 1 -1 1 -1 0 0 1 -1 1 -1 0 -1 1 -1 0 -1 0 -2 1 -1 0 -2 0 -1 0 -2 1 -2 0 -2 0 -2 0 -3 10 0 0 3 0 2 0 3 -1 2 0 2 0 2 -1 2 0 2 -1 2 0 1 -1 2 -1 2 -1 1 -1 2 -1 1 -1 1 -1 1 -2 1 -1 1 -2 1 -1 1 -2 1 -2 0 -1 1 -2 0 -2 0 -2 1 -2 0 -3 0 -2 0 -2 0 -2 0 0 0zm0 0l0 0 0 0 0 0zm-10 -10l9 0 1 10 -10 0 0 0 0 -10zm0 10l0 0 0 0 0 0zm-43 49l-10 0 0 0 0 -3 0 -4 1 -3 0 -3 1 -3 0 -3 1 -3 1 -3 1 -3 1 -2 1 -3 1 -2 1 -3 2 -2 1 -2 2 -2 2 -2 2 -2 2 -1 2 -2 2 -1 2 -1 3 -2 2 -1 3 0 2 -1 3 -1 3 0 3 -1 2 0 3 0 3 0 0 10 -3 0 -2 0 -3 0 -2 1 -2 0 -2 1 -2 0 -2 1 -2 1 -2 0 -2 1 -1 1 -2 2 -2 1 -1 1 -1 2 -2 1 -1 2 -1 2 -1 1 -1 2 -1 2 -1 3 -1 2 0 2 -1 3 -1 2 0 3 0 3 -1 3 0 3 0 3 0 0zm-10 0l0 0 0 0 0 0zm0 145l0 -145 10 0 0 145 -10 1 0 -1zm0 1l0 -1 0 0 0 1zm74 38l0 10 0 0 -3 0 -4 0 -3 0 -4 -1 -3 0 -3 0 -4 -1 -3 0 -3 -1 -3 0 -3 -1 -3 -1 -2 -1 -3 -1 -3 -1 -2 -2 -3 -1 -2 -2 -2 -1 -2 -2 -3 -2 -1 -2 -2 -3 -2 -2 -1 -2 -2 -3 -1 -3 -1 -3 -1 -3 -1 -3 0 -3 -1 -3 10 -1 1 2 0 3 1 3 1 2 0 2 1 3 1 2 2 2 1 1 1 2 2 2 1 1 2 2 2 1 2 1 2 2 2 1 2 1 2 1 2 1 3 0 3 1 2 1 3 0 3 1 3 0 3 0 3 1 3 0 3 0 4 0 3 0 0 0zm0 0l0 0 0 0 0 0zm66 76l-10 0 0 0 0 -5 0 -4 0 -4 -1 -4 0 -4 -1 -4 0 -3 -1 -4 -1 -3 -1 -3 -1 -2 -1 -3 -2 -2 -1 -3 -1 -2 -2 -2 -2 -2 -1 -1 -2 -2 -2 -1 -2 -1 -3 -2 -2 -1 -3 -1 -2 -1 -3 0 -3 -1 -3 0 -4 -1 -3 0 -4 0 -4 0 0 -10 4 0 4 0 4 0 4 1 4 0 3 1 3 1 4 1 3 1 3 1 2 2 3 1 3 2 2 2 2 2 3 3 2 2 1 3 2 3 2 3 1 3 1 3 1 3 1 4 1 4 1 3 1 4 0 5 1 4 0 4 0 5 0 5 0 0zm0 0l0 0 0 0 0 0zm-10 309l0 -309 10 0 0 309 -10 0 0 0zm0 0l0 0 0 0 0 0zm-56 74l1 -10 0 0 3 0 4 0 3 0 3 -1 3 0 3 -1 3 0 2 -1 3 -1 2 -1 2 -1 3 -1 2 -2 2 -1 1 -2 2 -2 2 -2 1 -2 2 -2 1 -3 1 -2 1 -3 1 -3 1 -3 1 -3 1 -3 1 -4 0 -4 0 -4 1 -4 0 -4 0 -4 10 0 0 4 0 5 -1 4 0 4 -1 5 0 3 -1 4 -1 4 -1 3 -1 4 -2 3 -1 3 -2 3 -1 3 -2 2 -2 3 -3 2 -2 2 -2 2 -3 2 -3 2 -3 1 -3 1 -3 1 -3 1 -3 1 -3 1 -4 0 -3 1 -4 0 -4 0 -4 0 0 0zm1 -10l0 0 -1 0 1 0zm-65 52l-10 0 0 -1 1 -3 2 -4 1 -3 1 -3 1 -3 2 -3 1 -2 2 -3 2 -2 2 -3 1 -2 2 -2 3 -2 2 -2 2 -2 2 -1 3 -2 2 -1 3 -1 2 -2 3 -1 3 -1 3 -1 3 0 3 -1 3 0 3 -1 3 0 4 0 3 0 3 0 4 0 -1 10 -3 0 -3 0 -3 0 -3 0 -3 0 -3 0 -2 1 -3 0 -3 1 -2 1 -2 1 -3 1 -2 1 -2 1 -2 1 -2 1 -2 1 -2 2 -2 1 -1 2 -2 2 -2 2 -1 2 -2 2 -1 2 -1 2 -2 3 -1 2 -1 3 -1 3 -1 3 -1 3 0 -2zm-10 0l0 0 0 -1 0 1zm0 2065l0 -2065 10 0 0 2065 0 0 -10 0zm10 0l0 0 0 0 0 0zm-23 339l13 -339 10 0 -13 340 -5 5 -5 -6zm5 6l-5 0 0 -6 5 6zm199 0l-199 0 0 -10 199 0 5 4 -5 6zm5 -6l1 6 -6 0 5 -6zm-39 -416l39 416 -10 1 -39 -416 0 0 10 -1zm-10 1l0 0 0 0 0 0zm10 -36l0 36 -10 0 0 -36 10 0 0 0zm236 238l0 10 0 0 -13 -1 -13 -1 -12 -1 -12 -2 -12 -3 -12 -3 -11 -4 -11 -5 -11 -5 -11 -5 -10 -6 -10 -7 -10 -6 -9 -8 -9 -8 -8 -8 -8 -8 -8 -9 -7 -10 -7 -9 -7 -10 -5 -11 -6 -10 -5 -11 -4 -11 -4 -12 -3 -12 -3 -12 -2 -12 -2 -12 -1 -13 0 -12 10 -1 0 13 1 12 2 12 2 11 3 12 3 11 3 11 5 11 4 10 5 11 6 10 6 9 7 9 7 9 7 9 8 8 8 8 8 8 9 7 10 6 9 6 10 6 10 5 11 5 10 4 11 4 11 3 12 3 12 2 11 1 12 1 13 1 0 0zm37 10l-37 0 0 -10 37 0 5 5 -5 5zm0 -10l5 0 0 5 -5 -5zm-5 204l0 -199 10 0 0 199 -5 5 -5 -5zm5 5l-5 0 0 -5 5 5zm1425 0l-1425 0 0 -10 1425 0 5 5 -5 5zm5 -5l0 5 -5 0 5 -5zm0 -199l0 199 -10 0 0 -199 5 -5 5 5zm-10 0l0 -5 5 0 -5 5zm47 5l-42 0 0 -10 42 0 0 0 0 10zm246 -247l-10 0 10 0 0 12 -1 13 -2 12 -2 12 -3 12 -3 12 -4 12 -4 11 -5 11 -6 10 -6 11 -6 10 -7 9 -7 10 -8 9 -8 8 -8 9 -9 7 -9 8 -10 7 -10 6 -10 6 -11 5 -11 5 -11 5 -11 4 -12 3 -12 3 -12 2 -12 1 -13 1 -13 1 0 -10 13 -1 12 -1 11 -1 12 -2 12 -3 11 -3 11 -4 10 -4 11 -5 10 -5 10 -6 9 -6 10 -6 8 -7 9 -8 8 -8 8 -8 7 -8 7 -9 7 -10 6 -9 6 -10 5 -11 4 -10 5 -11 3 -11 4 -11 2 -12 2 -11 2 -12 1 -12 0 -12 10 0zm-10 35l0 -35 10 0 0 35 0 0 -10 0zm10 0l0 0 0 0 0 0zm-49 416l39 -417 10 1 -39 416 -5 5 -5 -5zm5 5l-6 0 1 -5 5 5zm199 0l-199 0 0 -10 199 0 5 5 -5 5zm5 -5l0 5 -5 0 5 -5zm-13 -340l13 340 -10 0 -13 -340 0 0 10 0zm-10 0l0 0 0 0 0 0zm10 -2909l0 2909 -10 0 0 -2909 0 0 10 0zm-10 0l0 0 0 0 0 0zm-51 -47l1 -10 0 0 3 0 3 0 3 0 4 1 3 0 3 0 3 1 2 0 3 1 3 1 2 1 3 1 2 1 3 1 2 2 2 1 2 2 2 2 1 2 2 2 1 3 2 2 1 3 1 2 1 3 1 3 0 4 1 3 0 4 1 3 0 4 0 4 -10 0 0 -4 0 -3 -1 -4 0 -3 0 -3 -1 -2 -1 -3 0 -2 -1 -2 -1 -2 -1 -2 -1 -2 -1 -2 -2 -1 -1 -2 -2 -1 -1 -1 -2 -1 -1 -1 -2 -1 -2 -1 -2 -1 -3 0 -2 -1 -2 0 -3 -1 -3 0 -2 0 -3 -1 -3 0 -3 0 -3 0 -1 0zm1 0l-1 0 0 0 1 0zm-44 -40l10 0 0 0 0 3 0 3 1 3 0 2 1 2 0 2 1 2 0 2 1 1 1 1 1 2 1 1 0 0 1 1 1 1 1 1 2 0 1 1 1 0 1 1 2 0 1 0 1 0 2 1 1 0 2 0 1 0 2 0 2 0 1 0 2 0 2 0 -1 10 -1 0 -2 0 -1 0 -2 0 -2 0 -2 0 -1 0 -2 0 -2 -1 -2 0 -2 0 -1 -1 -2 0 -2 -1 -2 -1 -2 -1 -1 -1 -2 -1 -1 -1 -2 -2 -1 -1 -2 -2 -1 -2 -1 -2 -1 -3 0 -2 -1 -3 -1 -2 0 -3 -1 -3 0 -4 0 -3 0 0zm0 0l0 0 0 0 0 0zm10 -422l0 422 -10 0 0 -422 10 0 0 0zm0 0l0 0 0 0 0 0zm33 -46l0 10 0 0 -2 0 -3 0 -2 0 -2 0 -2 1 -2 0 -2 0 -2 1 -2 0 -1 1 -1 1 -2 0 -1 1 -1 1 -1 1 -1 1 0 1 -1 1 -1 1 0 1 -1 2 -1 1 0 2 0 1 -1 2 0 2 0 2 -1 2 0 3 0 2 0 3 0 2 -10 0 0 -2 0 -3 0 -3 0 -2 1 -3 0 -2 0 -3 1 -2 0 -2 1 -2 1 -2 1 -2 0 -2 2 -2 1 -1 1 -2 1 -1 2 -2 1 -1 2 -1 2 -1 2 -1 2 -1 2 -1 2 0 3 -1 2 0 2 -1 3 0 3 0 3 0 2 0 0 0zm0 0l0 0 0 0 0 0zm51 -39l10 0 0 0 0 3 0 4 -1 3 0 3 0 3 -1 3 -1 2 0 3 -1 2 -1 3 -1 2 -2 2 -1 2 -2 2 -1 1 -2 2 -2 1 -2 1 -3 2 -2 1 -2 0 -3 1 -3 1 -3 0 -2 1 -3 0 -4 0 -3 1 -3 0 -4 0 -4 0 -4 0 0 -10 4 0 4 0 3 0 3 0 4 -1 2 0 3 0 3 -1 2 0 2 -1 3 0 1 -1 2 -1 2 0 1 -1 2 -1 1 -1 1 -1 1 -1 1 -2 1 -1 1 -2 1 -1 0 -2 1 -2 0 -2 1 -3 0 -2 0 -3 1 -3 0 -3 0 -3 0 0zm10 0l0 0 0 0 0 0zm0 -517l0 517 -10 0 0 -517 0 0 10 0zm-10 0l0 0 0 0 0 0z"/>
  </g>
 </g>
</svg>
