<?xml version="1.0" encoding="UTF-8"?>
<!DOCTYPE svg PUBLIC "-//W3C//DTD SVG 1.1//EN" "http://www.w3.org/Graphics/SVG/1.1/DTD/svg11.dtd">
<!-- Creator: CorelDRAW X8 -->
<svg xmlns="http://www.w3.org/2000/svg" xml:space="preserve" width="40mm" height="60mm" version="1.1" style="shape-rendering:geometricPrecision; text-rendering:geometricPrecision; image-rendering:optimizeQuality; fill-rule:evenodd; clip-rule:evenodd"
viewBox="0 0 4000 6000"
 xmlns:xlink="http://www.w3.org/1999/xlink">
 <defs>
  <style type="text/css">
   <![CDATA[
    .str0 {stroke:#332C2B;stroke-width:7.62}
    .fil0 {fill:none}
   ]]>
  </style>
 </defs>
 <g id="图层_x0020_1">
  <metadata id="CorelCorpID_0Corel-Layer"/>
  <path class="fil0 str0" d="M895 5350l2025 0c131,0 238,-107 238,-238l0 -4224c0,-131 -107,-238 -238,-238l-1840 0c-131,0 -238,107 -238,238l0 4224c0,131 107,238 238,238l295 0m522 -4521c-5,-22 -17,-38 -69,-38l-45 0c-23,0 -42,19 -42,42l0 0c0,24 19,43 42,43l435 0c23,0 42,-19 42,-43l0 0c0,-23 -19,-42 -42,-42l-390 0m-211 39c-4,-17 -14,-31 -55,-31l-36 0c-19,0 -34,16 -34,34l0 0c0,19 15,34 34,34l92 0c19,0 34,-15 34,-34l0 0c0,-18 -15,-34 -34,-34l-56 0m-201 15c1,-22 -25,-39 -34,-39 -33,0 -59,26 -59,59 0,33 26,60 59,60 33,0 60,-27 60,-60 0,-33 -27,-59 -60,-59"/>
 </g>
</svg>
