<?xml version="1.0" encoding="UTF-8"?>
<!DOCTYPE svg PUBLIC "-//W3C//DTD SVG 1.1//EN" "http://www.w3.org/Graphics/SVG/1.1/DTD/svg11.dtd">
<!-- Creator: CorelDRAW X8 -->
<svg xmlns="http://www.w3.org/2000/svg" xml:space="preserve" width="40mm" height="60mm" version="1.1" style="shape-rendering:geometricPrecision; text-rendering:geometricPrecision; image-rendering:optimizeQuality; fill-rule:evenodd; clip-rule:evenodd"
viewBox="0 0 4000 6000"
 xmlns:xlink="http://www.w3.org/1999/xlink">
 <defs>
  <style type="text/css">
   <![CDATA[
    .str0 {stroke:#332C2B;stroke-width:10}
    .fil0 {fill:none}
   ]]>
  </style>
 </defs>
 <g id="图层_x0020_1">
  <metadata id="CorelCorpID_0Corel-Layer"/>
  <path class="fil0 str0" d="M1210 815c1,-25 -28,-44 -39,-45 -37,0 -67,30 -67,68 0,37 30,68 67,68 38,0 68,-31 68,-68 0,-38 -30,-68 -68,-68m-192 4580l1881 0c116,0 211,-95 211,-211l0 -13 90 0c9,0 16,-6 16,-15l0 -2323c0,-10 -5,-17 -15,-17l-47 0c-5,0 -9,-4 -9,-9l0 -379c0,-5 4,-9 9,-9l54 0c5,0 8,-2 8,-9l0 -1476c0,-9 -7,-15 -16,-15l-90 0 0 -13c0,-116 -95,-211 -211,-211l-605 0c-8,0 -9,1 -16,6 -6,5 -9,7 -18,7l-449 0c-7,0 -9,-1 -14,-5l-3 -3c-5,-4 -8,-5 -16,-5l-599 0c-116,0 -211,95 -211,211l0 13 -90 0c-9,0 -16,6 -16,15l0 1155c0,11 4,18 16,18l51 0c5,0 9,4 9,9l0 679c0,5 -4,9 -9,9l-53 0c-8,0 -14,3 -14,14l0 2338c0,9 7,15 16,15l90 0 0 13c0,116 95,211 211,211l56 0"/>
 </g>
</svg>
