<?xml version="1.0" encoding="UTF-8"?>
<!DOCTYPE svg PUBLIC "-//W3C//DTD SVG 1.1//EN" "http://www.w3.org/Graphics/SVG/1.1/DTD/svg11.dtd">
<!-- Creator: CorelDRAW X8 -->
<svg xmlns="http://www.w3.org/2000/svg" xml:space="preserve" width="40mm" height="60mm" version="1.1" style="shape-rendering:geometricPrecision; text-rendering:geometricPrecision; image-rendering:optimizeQuality; fill-rule:evenodd; clip-rule:evenodd"
viewBox="0 0 4000 6000"
 xmlns:xlink="http://www.w3.org/1999/xlink">
 <defs>
  <style type="text/css">
   <![CDATA[
    .str0 {stroke:#332C2B;stroke-width:17.64}
    .fil0 {fill:none}
   ]]>
  </style>
 </defs>
 <g id="图层_x0020_1">
  <metadata id="CorelCorpID_0Corel-Layer"/>
  <path class="fil0 str0" d="M870 5162l1991 0c148,0 269,-122 269,-271l0 -3970c0,-149 -121,-271 -269,-271l-471 0c-20,0 -30,10 -30,31l0 37c0,25 -20,45 -45,45l-451 0c-25,0 -45,-20 -45,-45l0 -37c0,-21 -2,-31 -26,-31l-469 0c-148,0 -269,122 -269,271l0 3970c0,149 121,271 269,271 148,0 329,68 329,188"/>
 </g>
</svg>
