<?xml version="1.0" encoding="UTF-8"?>
<!DOCTYPE svg PUBLIC "-//W3C//DTD SVG 1.1//EN" "http://www.w3.org/Graphics/SVG/1.1/DTD/svg11.dtd">
<!-- Creator: CorelDRAW X8 -->
<svg xmlns="http://www.w3.org/2000/svg" xml:space="preserve" width="40mm" height="60mm" version="1.1" style="shape-rendering:geometricPrecision; text-rendering:geometricPrecision; image-rendering:optimizeQuality; fill-rule:evenodd; clip-rule:evenodd"
viewBox="0 0 4000 6000"
 xmlns:xlink="http://www.w3.org/1999/xlink">
 <defs>
  <style type="text/css">
   <![CDATA[
    .str0 {stroke:#332C2B;stroke-width:20}
    .fil0 {fill:none}
   ]]>
  </style>
 </defs>
 <g id="图层_x0020_1">
  <metadata id="CorelCorpID_0Corel-Layer"/>
  <path class="fil0 str0" d="M949 5225l1837 0c146,0 265,-119 265,-265l0 -4045c0,-146 -119,-265 -265,-265l-412 0c0,0 -32,0 -32,48 0,16 -14,29 -30,29l-85 0c-17,0 -30,-13 -30,-29 0,-17 -21,-48 -50,-29 0,15 -16,11 -31,11l-27 0c0,0 -23,-2 -23,20l0 33c0,32 -25,57 -56,57l0 0c-32,0 -57,-25 -57,-57l0 -33c0,-21 -23,-20 -23,-20l-41 0c-15,0 -27,-9 -27,-25 -1,-6 -25,-5 -25,-5l-582 0c-145,0 -265,119 -265,265l0 4045c0,146 120,265 265,265 146,0 258,45 258,125"/>
  <path class="fil0 str0" d="M-1774 6877l0 -6590c0,-523 -428,-950 -950,-950l-14507 0c-522,0 -950,427 -950,950l0 1480c0,0 0,114 171,114 59,0 107,49 107,108l0 304c0,59 -48,108 -107,108 -59,0 -170,73 -103,179 55,0 39,57 39,112l0 97c0,0 -6,80 73,80l119 0c112,0 204,92 204,204l0 0c0,112 -92,204 -204,204l-119 0c-76,0 -73,80 -73,80l0 147c0,55 -32,100 -87,100 -22,2 -20,87 -20,87l0 2086c0,523 428,950 950,950l14507 0c522,0 950,-427 950,-950 0,-522 161,-925 448,-925"/>
 </g>
</svg>
