<?xml version="1.0" encoding="UTF-8"?>
<!DOCTYPE svg PUBLIC "-//W3C//DTD SVG 1.1//EN" "http://www.w3.org/Graphics/SVG/1.1/DTD/svg11.dtd">
<!-- Creator: CorelDRAW X8 -->
<svg xmlns="http://www.w3.org/2000/svg" xml:space="preserve" width="40mm" height="60mm" version="1.1" style="shape-rendering:geometricPrecision; text-rendering:geometricPrecision; image-rendering:optimizeQuality; fill-rule:evenodd; clip-rule:evenodd"
viewBox="0 0 4000 6000"
 xmlns:xlink="http://www.w3.org/1999/xlink">
 <defs>
  <style type="text/css">
   <![CDATA[
    .str0 {stroke:black;stroke-width:7.62}
    .fil0 {fill:none}
   ]]>
  </style>
 </defs>
 <g id="图层_x0020_1">
  <metadata id="CorelCorpID_0Corel-Layer"/>
  <path class="fil0 str0" d="M2014 784c0,-3 -2,-5 -6,-5 -16,0 -29,12 -29,28 0,16 13,29 29,29 15,0 28,-13 28,-29 0,-16 -13,-28 -28,-28m-1 697l0 0c-44,0 -80,-36 -80,-79l0 -108c0,-9 -3,-15 -14,-21 -67,-34 -113,-103 -113,-184 0,-114 93,-206 207,-206 114,0 206,92 206,206 0,83 -49,155 -119,187 -5,3 -8,7 -8,14l0 112c0,43 -36,79 -79,79zm43 200c-2,-16 -16,-31 -45,-34 -106,0 -191,86 -191,191 0,105 85,190 191,190 105,0 190,-85 190,-190 0,-105 -85,-191 -190,-191m-93 3240c-8,-31 -25,-56 -103,-56l-67 0c-34,0 -63,28 -63,63l0 0c0,35 29,64 63,64l551 0c35,0 63,-29 63,-64l0 0c0,-35 -28,-63 -63,-63l-484 0m-900 524l1991 0c140,0 254,-114 254,-254l0 -4192c0,-140 -114,-254 -254,-254l-1800 0c-140,0 -254,114 -254,254l0 4192c0,140 114,254 254,254l44 0"/>
 </g>
</svg>
