<?xml version="1.0" encoding="UTF-8"?>
<!DOCTYPE svg PUBLIC "-//W3C//DTD SVG 1.1//EN" "http://www.w3.org/Graphics/SVG/1.1/DTD/svg11.dtd">
<!-- Creator: CorelDRAW X8 -->
<svg xmlns="http://www.w3.org/2000/svg" xml:space="preserve" width="40mm" height="60mm" version="1.1" style="shape-rendering:geometricPrecision; text-rendering:geometricPrecision; image-rendering:optimizeQuality; fill-rule:evenodd; clip-rule:evenodd"
viewBox="0 0 4000 6000"
 xmlns:xlink="http://www.w3.org/1999/xlink">
 <defs>
  <style type="text/css">
   <![CDATA[
    .str0 {stroke:black;stroke-width:7.62}
    .fil0 {fill:none}
   ]]>
  </style>
 </defs>
 <g id="图层_x0020_1">
  <metadata id="CorelCorpID_0Corel-Layer"/>
  <path class="fil0 str0" d="M2010 753c0,-5 -5,-10 -14,-11 -33,0 -59,27 -59,59 0,33 26,59 59,59 33,0 59,-26 59,-59 0,-32 -26,-59 -59,-59m-939 4608l1781 0c112,0 204,-92 204,-204l0 -4292c0,-112 -92,-204 -204,-204l-513 0c-3,0 -3,0 -6,1l-12 6c-2,1 -3,1 -5,1l-602 0c-1,0 -2,0 -3,-1l-14 -6c-1,-1 -1,-1 -2,-1l-519 0c-112,0 -204,92 -204,204l0 4292c0,112 92,204 204,204l62 0"/>
 </g>
</svg>
