<?xml version="1.0" encoding="UTF-8"?>
<!DOCTYPE svg PUBLIC "-//W3C//DTD SVG 1.1//EN" "http://www.w3.org/Graphics/SVG/1.1/DTD/svg11.dtd">
<!-- Creator: CorelDRAW X8 -->
<svg xmlns="http://www.w3.org/2000/svg" xml:space="preserve" width="40mm" height="60mm" version="1.1" style="shape-rendering:geometricPrecision; text-rendering:geometricPrecision; image-rendering:optimizeQuality; fill-rule:evenodd; clip-rule:evenodd"
viewBox="0 0 4000 6000"
 xmlns:xlink="http://www.w3.org/1999/xlink">
 <defs>
  <style type="text/css">
   <![CDATA[
    .str0 {stroke:black;stroke-width:7.62}
    .fil0 {fill:none}
   ]]>
  </style>
 </defs>
 <g id="图层_x0020_1">
  <metadata id="CorelCorpID_0Corel-Layer"/>
  <path class="fil0 str0" d="M963 5350l1975 0c106,0 192,-86 192,-192l0 -4316c0,-106 -86,-192 -192,-192l-1876 0c-106,0 -192,86 -192,192l0 4316c0,106 86,192 192,192l28 0m183 -4569c-6,-23 -15,-40 -54,-40l-32 0c-46,0 -83,37 -83,82l0 0c0,46 37,83 83,83l335 0c45,0 82,-37 82,-83l0 0c0,-45 -37,-82 -82,-82l-303 0"/>
 </g>
</svg>
