<?xml version="1.0" encoding="UTF-8"?>
<!DOCTYPE svg PUBLIC "-//W3C//DTD SVG 1.1//EN" "http://www.w3.org/Graphics/SVG/1.1/DTD/svg11.dtd">
<!-- Creator: CorelDRAW X8 -->
<svg xmlns="http://www.w3.org/2000/svg" xml:space="preserve" width="40mm" height="60mm" version="1.1" style="shape-rendering:geometricPrecision; text-rendering:geometricPrecision; image-rendering:optimizeQuality; fill-rule:evenodd; clip-rule:evenodd"
viewBox="0 0 4000 6000"
 xmlns:xlink="http://www.w3.org/1999/xlink">
 <defs>
  <style type="text/css">
   <![CDATA[
    .str0 {stroke:black;stroke-width:7.62}
    .fil0 {fill:none}
   ]]>
  </style>
 </defs>
 <g id="图层_x0020_1">
  <metadata id="CorelCorpID_0Corel-Layer"/>
  <path class="fil0 str0" d="M1374 985c-1,-8 -8,-16 -24,-17 -54,0 -98,44 -98,98 0,54 44,98 98,98 55,0 99,-44 99,-98 0,-54 -44,-98 -99,-98m358 29c-1,-7 -6,-13 -18,-14 -43,0 -78,35 -78,78 0,42 35,77 78,77 42,0 77,-35 77,-77 0,-43 -35,-78 -77,-78m311 17c0,-7 -6,-13 -18,-14 -43,0 -77,35 -77,77 0,43 34,78 77,78 42,0 77,-35 77,-78 0,-42 -35,-77 -77,-77m-751 -71l831 0c15,0 22,1 31,9l80 77c5,5 7,9 7,17l0 28c0,9 -4,16 -12,26l-104 126c-11,12 -30,22 -56,22l-715 0c-12,0 -22,-3 -33,-13l-73 -69c-6,-5 -6,-8 -6,-15l0 -158c0,-28 22,-50 50,-50zm-17 -58l628 0 36 -37c5,-5 9,-6 15,-6l221 -1c12,0 19,3 29,12l259 260c10,10 12,13 12,28l-1 24c0,14 -2,19 -11,30l-149 183c-16,19 -27,22 -48,22l-728 1c-18,0 -23,-2 -35,-12l-93 -84c-7,-6 -11,-8 -19,-8l-70 0c-10,0 -13,0 -20,-6l-94 -87c-13,-12 -16,-17 -16,-35l0 -200c0,-46 38,-84 84,-84zm-145 4493l1751 0c116,0 211,-95 211,-211l0 -4278c0,-116 -95,-211 -211,-211l-1642 0c-116,0 -211,95 -211,211l0 4278c0,116 95,211 211,211l63 0"/>
 </g>
</svg>
