<?xml version="1.0" encoding="UTF-8"?>
<!DOCTYPE svg PUBLIC "-//W3C//DTD SVG 1.1//EN" "http://www.w3.org/Graphics/SVG/1.1/DTD/svg11.dtd">
<!-- Creator: CorelDRAW X8 -->
<svg xmlns="http://www.w3.org/2000/svg" xml:space="preserve" width="40mm" height="60mm" version="1.1" style="shape-rendering:geometricPrecision; text-rendering:geometricPrecision; image-rendering:optimizeQuality; fill-rule:evenodd; clip-rule:evenodd"
viewBox="0 0 4000 6000"
 xmlns:xlink="http://www.w3.org/1999/xlink">
 <defs>
  <style type="text/css">
   <![CDATA[
    .str0 {stroke:#332C2B;stroke-width:20}
    .fil0 {fill:none}
   ]]>
  </style>
 </defs>
 <g id="图层_x0020_1">
  <metadata id="CorelCorpID_0Corel-Layer"/>
  <g id="_2228510497952">
   <circle class="fil0 str0" cx="606" cy="1343" r="456"/>
   <circle class="fil0 str0" cx="1644" cy="1343" r="420"/>
   <circle class="fil0 str0" cx="2634" cy="1343" r="383"/>
   <circle class="fil0 str0" cx="3503" cy="1343" r="347"/>
   <circle class="fil0 str0" cx="606" cy="2511" r="255"/>
   <circle class="fil0 str0" cx="1644" cy="2511" r="274"/>
   <circle class="fil0 str0" cx="2634" cy="2511" r="292"/>
   <circle class="fil0 str0" cx="3503" cy="2511" r="310"/>
   <circle class="fil0 str0" cx="606" cy="3603" r="237"/>
   <circle class="fil0 str0" cx="1644" cy="3603" r="219"/>
   <circle class="fil0 str0" cx="2634" cy="3603" r="201"/>
   <circle class="fil0 str0" cx="3503" cy="3603" r="182"/>
   <circle class="fil0 str0" cx="606" cy="4385" r="109"/>
   <circle class="fil0 str0" cx="1644" cy="4385" r="128"/>
   <circle class="fil0 str0" cx="2634" cy="4385" r="146"/>
   <circle class="fil0 str0" cx="3503" cy="4385" r="164"/>
   <circle class="fil0 str0" cx="606" cy="5022" r="91"/>
   <circle class="fil0 str0" cx="1644" cy="5022" r="73"/>
   <circle class="fil0 str0" cx="2634" cy="5022" r="55"/>
   <circle class="fil0 str0" cx="3503" cy="5022" r="36"/>
  </g>
  <circle class="fil0 str0" cx="-30892" cy="-2172" r="1250"/>
  <circle class="fil0 str0" cx="-28047" cy="-2172" r="1150"/>
  <circle class="fil0 str0" cx="-25335" cy="-2172" r="1050"/>
  <circle class="fil0 str0" cx="-22954" cy="-2172" r="950"/>
  <circle class="fil0 str0" cx="-30892" cy="1029" r="700"/>
  <circle class="fil0 str0" cx="-28047" cy="1029" r="750"/>
  <circle class="fil0 str0" cx="-25335" cy="1029" r="800"/>
  <circle class="fil0 str0" cx="-22954" cy="1029" r="850"/>
  <circle class="fil0 str0" cx="-30892" cy="4019" r="650"/>
  <circle class="fil0 str0" cx="-28047" cy="4019" r="600"/>
  <circle class="fil0 str0" cx="-25335" cy="4019" r="550"/>
  <circle class="fil0 str0" cx="-22954" cy="4019" r="500"/>
  <circle class="fil0 str0" cx="-30892" cy="6162" r="300"/>
  <circle class="fil0 str0" cx="-28047" cy="6162" r="350"/>
  <circle class="fil0 str0" cx="-25335" cy="6162" r="400"/>
  <circle class="fil0 str0" cx="-22954" cy="6162" r="450"/>
  <circle class="fil0 str0" cx="-30892" cy="7908" r="250"/>
  <circle class="fil0 str0" cx="-28047" cy="7908" r="200"/>
  <circle class="fil0 str0" cx="-25335" cy="7908" r="150"/>
  <circle class="fil0 str0" cx="-22954" cy="7908" r="100"/>
 </g>
</svg>
