<?xml version="1.0" encoding="UTF-8"?>
<!DOCTYPE svg PUBLIC "-//W3C//DTD SVG 1.1//EN" "http://www.w3.org/Graphics/SVG/1.1/DTD/svg11.dtd">
<!-- Creator: CorelDRAW X8 -->
<svg xmlns="http://www.w3.org/2000/svg" xml:space="preserve" width="40mm" height="60mm" version="1.1" style="shape-rendering:geometricPrecision; text-rendering:geometricPrecision; image-rendering:optimizeQuality; fill-rule:evenodd; clip-rule:evenodd"
viewBox="0 0 4000 6000"
 xmlns:xlink="http://www.w3.org/1999/xlink">
 <defs>
  <style type="text/css">
   <![CDATA[
    .str0 {stroke:black;stroke-width:7.62}
    .fil0 {fill:none}
   ]]>
  </style>
 </defs>
 <g id="图层_x0020_1">
  <metadata id="CorelCorpID_0Corel-Layer"/>
  <path class="fil0 str0" d="M1068 5350l1716 0c153,0 278,-125 278,-278l0 -4144c0,-153 -125,-278 -278,-278l-564 0 -100 0c-23,0 -38,10 -38,36l0 68c0,42 -35,76 -77,76l0 0c-42,0 -76,-34 -76,-76l0 -67c0,-27 -11,-37 -32,-37l-106 0 -575 0c-153,0 -278,125 -278,278l0 4144c0,153 125,278 278,278l73 0"/>
 </g>
</svg>
