<?xml version="1.0" encoding="UTF-8"?>
<!DOCTYPE svg PUBLIC "-//W3C//DTD SVG 1.1//EN" "http://www.w3.org/Graphics/SVG/1.1/DTD/svg11.dtd">
<!-- Creator: CorelDRAW 2020 (64-Bit) -->
<svg xmlns="http://www.w3.org/2000/svg" xml:space="preserve" width="40mm" height="60mm" version="1.1" style="shape-rendering:geometricPrecision; text-rendering:geometricPrecision; image-rendering:optimizeQuality; fill-rule:evenodd; clip-rule:evenodd"
viewBox="0 0 4000 6000"
 xmlns:xlink="http://www.w3.org/1999/xlink"
 xmlns:xodm="http://www.corel.com/coreldraw/odm/2003">
 <defs>
  <style type="text/css">
   <![CDATA[
    .str1 {stroke:#332C2B;stroke-width:20;stroke-miterlimit:22.9256}
    .str0 {stroke:#E62728;stroke-width:20;stroke-miterlimit:22.9256}
    .str2 {stroke:#222222;stroke-width:7.62;stroke-miterlimit:22.9256}
    .fil0 {fill:none}
   ]]>
  </style>
   <clipPath id="id0">
    <rect x="-32770.95" y="-6591.21" width="8201.98" height="16848.25"/>
   </clipPath>
   <clipPath id="id1">
    <rect x="-78800.24" y="-739.44" width="14957.78" height="7478.88"/>
   </clipPath>
 </defs>
 <g id="图层_x0020_1">
  <metadata id="CorelCorpID_0Corel-Layer"/>
  <g style="clip-path:url(#id0)">
   <image x="-32770.95" y="-6591.21" width="8201.98" height="16848.24" xlink:href="Moto E22i-11i（前膜带壳）_Images\Moto E22i-11i（前膜带壳）_ImgID1.png"/>
  </g>
  <g style="clip-path:url(#id1)">
   <image x="-78800.24" y="-739.44" width="14957.78" height="7478.88" xlink:href="Moto E22i-11i（前膜带壳）_Images\Moto E22i-11i（前膜带壳）_ImgID2.png"/>
  </g>
  <rect class="fil0 str0" x="-32394.29" y="-6340.85" width="7460" height="16400"/>
  <rect class="fil0 str0" x="-32255.62" y="-6049.81" width="7182.66" height="15859.85" rx="800" ry="899.9"/>
  <circle class="fil0 str1" cx="-28662.81" cy="-5517.27" r="199.76"/>
  <path class="fil0 str2" d="M-3022.07 6506.05l0 -6118.78c0,-433.87 -357.74,-788.88 -794.96,-788.88l-14169.89 0c-437.23,0 -794.96,355 -794.96,788.88l0 5504.95c0,433.88 357.73,788.87 794.96,788.87l14169.89 0c437.23,0 794.96,-354.99 794.96,-788.87 0,-433.88 94,-852.81 189.25,-993.04"/>
  <path class="fil0 str2" d="M-18569.23 3172c0,110.32 89.44,199.76 199.76,199.76 110.32,0 199.76,-89.44 199.76,-199.76 0,-110.32 -89.44,-199.76 -199.76,-199.76 -110.32,0 -199.76,89.44 -199.76,199.76 0,110.32 159.4,164.15 173.96,164.81"/>
  <g id="_2717210424176">
   <path class="fil0 str2" d="M1031.83 5298.18l1779.03 0c128.93,0 234.43,-105.49 234.43,-234.43l0 -4178.79c0,-128.94 -105.49,-234.43 -234.43,-234.43l-1635.98 0c-128.94,0 -234.43,105.49 -234.43,234.43l0 4178.79c0,128.94 105.49,234.43 234.43,234.43 128.94,0 198.71,25.6 247.56,52.35"/>
   <path class="fil0 str2" d="M1983.42 727.5c-32.33,0 -58.54,26.21 -58.54,58.54 0,32.33 26.21,58.54 58.54,58.54 32.33,0 58.54,-26.21 58.54,-58.54 0,-32.33 -26.21,-58.54 -58.54,-58.54 -32.33,0 -48.11,46.71 -48.3,50.98"/>
  </g>
 </g>
</svg>
