<?xml version="1.0" encoding="UTF-8"?>
<!DOCTYPE svg PUBLIC "-//W3C//DTD SVG 1.1//EN" "http://www.w3.org/Graphics/SVG/1.1/DTD/svg11.dtd">
<!-- Creator: CorelDRAW X8 -->
<svg xmlns="http://www.w3.org/2000/svg" xml:space="preserve" width="40mm" height="60mm" version="1.1" style="shape-rendering:geometricPrecision; text-rendering:geometricPrecision; image-rendering:optimizeQuality; fill-rule:evenodd; clip-rule:evenodd"
viewBox="0 0 4000 6000"
 xmlns:xlink="http://www.w3.org/1999/xlink">
 <defs>
  <style type="text/css">
   <![CDATA[
    .str0 {stroke:black;stroke-width:20}
    .str1 {stroke:black;stroke-width:10}
    .fil0 {fill:none}
   ]]>
  </style>
 </defs>
 <g id="图层_x0020_1">
  <metadata id="CorelCorpID_0Corel-Layer"/>
  <path class="fil0 str0" d="M-9309 3398c0,-890 -7,-1792 -56,-2681 -113,-618 -347,-925 -950,-990l-12047 10c-590,61 -934,334 -971,981 -37,3022 -40,4124 13,4717 53,592 281,944 958,1010l12047 -10c609,-70 897,-368 958,-985 30,-307 47,-1128 48,-2052 0,-924 301,-758 301,-758"/>
  <path class="fil0 str1" d="M-10365 3606c0,-357 0,-714 0,-1071 0,-154 126,-260 280,-260l108 0c154,0 280,126 280,280l0 1050c0,154 -126,280 -280,280l-108 0c-154,0 -280,-125 -280,-279 -1,-154 228,-310 384,-310"/>
  <path class="fil0 str1" d="M-23035 1289c0,-130 105,-235 235,-235 130,0 236,105 236,235 0,130 -106,236 -236,236 -130,0 -235,-106 -235,-236 0,-130 237,-111 237,-111"/>
  <path class="fil0 str1" d="M-23020 4540c0,-77 62,-140 140,-140 77,0 140,63 140,140 0,77 -63,140 -140,140 -78,0 -140,-63 -140,-140 0,-77 132,-55 132,-55"/>
  <path class="fil0 str1" d="M-22965 3698l0 -1201c0,-51 41,-92 92,-92l0 0c51,0 92,41 92,92l0 1201c0,51 -41,92 -92,92l0 0c-51,0 -92,-41 -92,-92 0,-50 57,-95 99,-95"/>
  <path class="fil0 str1" d="M-23020 4220c0,-78 62,-140 140,-140 77,0 140,62 140,140 0,77 -63,140 -140,140 -78,0 -140,-63 -140,-140 0,-78 134,-78 134,-78"/>
  <g id="_2386830363504">
   <path class="fil0 str1" d="M1898 5252c291,0 587,-3 878,-19 202,-37 303,-113 324,-311l-3 -3945c-20,-193 -110,-306 -322,-318 -989,-12 -1350,-13 -1544,4 -194,18 -309,92 -331,314l3 3945c23,200 121,294 323,314 100,10 369,15 672,16 302,0 248,98 248,98"/>
   <path class="fil0 str1" d="M1830 4906c117,0 233,0 350,0 51,0 85,41 85,91l0 36c0,50 -41,92 -91,92l-344 0c-51,0 -92,-42 -92,-92l0 -36c0,-50 41,-91 92,-91 50,0 101,75 101,126"/>
   <path class="fil0 str1" d="M2588 757c43,0 78,34 78,77 0,42 -35,77 -78,77 -42,0 -77,-35 -77,-77 0,-43 35,-77 77,-77 43,0 37,77 37,77"/>
   <path class="fil0 str1" d="M1524 761c25,0 46,21 46,46 0,26 -21,46 -46,46 -25,0 -46,-20 -46,-46 0,-25 21,-46 46,-46 25,0 18,44 18,44"/>
   <path class="fil0 str1" d="M1799 779l394 0c16,0 30,14 30,31l0 0c0,16 -14,30 -30,30l-394 0c-16,0 -30,-14 -30,-30l0 0c0,-17 14,-31 30,-31 17,0 32,19 32,33"/>
   <path class="fil0 str1" d="M1629 761c25,0 46,21 46,46 0,26 -21,46 -46,46 -26,0 -46,-20 -46,-46 0,-25 20,-46 46,-46 25,0 25,44 25,44"/>
  </g>
 </g>
</svg>
