<?xml version="1.0" encoding="UTF-8"?>
<!DOCTYPE svg PUBLIC "-//W3C//DTD SVG 1.1//EN" "http://www.w3.org/Graphics/SVG/1.1/DTD/svg11.dtd">
<!-- Creator: CorelDRAW X8 -->
<svg xmlns="http://www.w3.org/2000/svg" xml:space="preserve" width="40mm" height="60mm" version="1.1" style="shape-rendering:geometricPrecision; text-rendering:geometricPrecision; image-rendering:optimizeQuality; fill-rule:evenodd; clip-rule:evenodd"
viewBox="0 0 4000 6000"
 xmlns:xlink="http://www.w3.org/1999/xlink">
 <defs>
  <style type="text/css">
   <![CDATA[
    .str0 {stroke:black;stroke-width:7.62;stroke-linejoin:bevel}
    .fil0 {fill:none}
   ]]>
  </style>
 </defs>
 <g id="图层_x0020_1">
  <metadata id="CorelCorpID_0Corel-Layer"/>
  <g id="_1696426178944">
   <path class="fil0 str0" d="M2946 4426l270 424c13,21 18,46 13,69 -6,24 -20,45 -41,58 -20,13 -45,17 -69,12 -23,-5 -44,-20 -57,-40l-270 -425c-14,-20 -18,-45 -13,-69 6,-23 20,-44 41,-57 20,-13 45,-18 68,-12 24,5 45,19 58,40z"/>
   <path class="fil0 str0" d="M2946 1588l270 -424c13,-21 18,-45 12,-69 -5,-24 -19,-44 -40,-58 -20,-13 -45,-17 -69,-12 -23,6 -44,20 -57,40l-270 425c-14,20 -18,45 -13,69 6,24 20,44 41,57 20,13 45,18 69,12 23,-5 44,-19 57,-40z"/>
   <path class="fil0 str0" d="M854 1588l-270 -424c-13,-21 -18,-45 -12,-69 5,-24 19,-44 40,-58 20,-13 45,-17 69,-12 24,6 44,20 57,40l271 425c13,20 17,45 12,69 -5,24 -20,44 -40,57 -21,13 -46,18 -69,12 -24,-5 -45,-19 -58,-40z"/>
   <path class="fil0 str0" d="M843 4426l-271 424c-13,21 -17,46 -12,69 6,24 20,45 40,58 21,13 46,17 69,12 24,-5 45,-20 58,-40l270 -425c13,-20 18,-45 12,-69 -5,-23 -19,-44 -40,-57 -20,-13 -45,-18 -69,-12 -24,5 -44,19 -57,40z"/>
   <path class="fil0 str0" d="M1306 4377l0 -2742c0,-8 3,-16 9,-22 6,-6 14,-10 23,-10l312 0c9,0 17,4 23,10 6,6 9,14 9,22l0 2742c0,9 -3,17 -9,23 -6,6 -14,9 -23,9l-312 0c-9,0 -17,-3 -23,-9 -6,-6 -9,-14 -9,-23z"/>
   <path class="fil0 str0" d="M3536 4788c-23,0 -43,19 -43,42 0,24 20,43 43,43 24,0 43,-19 43,-43 0,-23 -19,-42 -43,-42z"/>
   <path class="fil0 str0" d="M3536 1132c-23,0 -43,20 -43,43 0,24 20,43 43,43 24,0 43,-19 43,-43 0,-23 -19,-43 -43,-43z"/>
   <path class="fil0 str0" d="M3536 2961c-23,0 -43,20 -43,43 0,24 20,43 43,43 24,0 43,-19 43,-43 0,-23 -19,-43 -43,-43z"/>
   <path class="fil0 str0" d="M3562 5288l-163 -138c21,-37 27,-81 17,-122 -1,-2 -3,-3 -4,-2 -2,1 -3,2 -3,3 7,42 -4,85 -29,120 -32,28 -77,34 -115,16 -2,-1 -4,0 -5,2 0,2 -1,3 1,4 40,21 89,19 126,-7l138 160c0,1 1,2 0,3 0,1 0,2 -1,2 -23,14 -49,21 -76,21l-2489 -29c-4,0 -7,-3 -7,-7l0 -187c0,-4 -1,-7 -4,-10 -3,-3 -6,-4 -10,-4l-148 0c-4,0 -8,1 -10,4 -3,3 -5,6 -5,10l0 185c0,2 0,3 -2,5 -1,1 -3,2 -5,2l-310 -4c-14,0 -27,-6 -36,-16 -9,-10 -14,-24 -13,-37 11,-157 20,-314 24,-471 0,-4 4,-7 8,-7l101 0c2,0 4,0 5,-2 2,-1 2,-3 2,-5l0 -356c0,-2 0,-4 -2,-5 -1,-2 -3,-3 -5,-3l-101 0c-2,0 -4,0 -5,-2 -1,-1 -2,-3 -2,-5l0 -2799c0,-2 1,-4 2,-5 1,-2 3,-3 5,-3l111 0 0 -373 -112 0c-3,0 -7,-3 -7,-7 -5,-160 -13,-319 -25,-478 -1,-14 4,-28 13,-38 9,-10 22,-16 36,-16l2991 -37c29,0 57,8 81,24 1,1 2,2 2,3 0,1 -1,2 -1,3l-139 161c-37,-25 -86,-28 -126,-7 -2,2 -2,4 0,6 1,1 2,2 3,1 38,-19 84,-13 116,16 25,34 35,77 29,119 0,2 1,3 3,3 2,1 4,0 4,-2 9,-41 3,-85 -17,-122l163 -137c1,-1 2,-1 3,-1 1,0 2,1 2,1 14,23 21,49 21,75l0 4414c0,29 -8,57 -24,80 -1,1 -2,2 -3,2 -1,0 -2,0 -3,-1z"/>
  </g>
  <path class="fil0 str0" d="M-7976 14138l1894 2974c92,143 122,317 86,483 -37,166 -139,311 -282,402 -143,92 -317,123 -483,86 -166,-37 -311,-139 -403,-282l-1894 -2974c-92,-143 -123,-317 -86,-483 37,-166 139,-311 282,-403 143,-91 317,-122 483,-85 166,37 311,138 403,282z"/>
  <path class="fil0 str0" d="M-7976 -5747l1894 -2974c92,-143 122,-317 85,-484 -37,-166 -137,-310 -281,-402 -144,-91 -318,-121 -484,-85 -166,37 -311,138 -402,282l-1894 2974c-92,143 -122,317 -85,484 37,166 137,310 281,401 144,92 318,122 484,85 166,-36 310,-137 402,-281z"/>
  <path class="fil0 str0" d="M-22634 -5747l-1894 -2974c-92,-143 -122,-317 -86,-483 37,-166 139,-311 282,-403 144,-91 317,-122 483,-85 166,37 312,139 403,282l1894 2974c92,143 123,317 86,483 -37,166 -139,311 -282,402 -143,92 -317,123 -483,86 -166,-37 -311,-139 -403,-282z"/>
  <path class="fil0 str0" d="M-22714 14138l-1895 2974c-91,143 -122,317 -85,483 37,167 138,311 281,402 144,92 318,122 484,85 167,-37 311,-137 402,-281l1895 -2974c91,-144 122,-318 85,-484 -37,-166 -138,-310 -282,-402 -143,-91 -317,-122 -483,-85 -167,37 -311,138 -402,282z"/>
  <path class="fil0 str0" d="M-19470 13798l0 -19215c0,-59 24,-116 66,-159 42,-42 99,-65 159,-66l2189 0c60,0 117,24 159,66 43,42 66,100 66,159l0 19215c0,59 -23,117 -65,159 -43,42 -100,66 -160,66l-2189 0c-60,0 -117,-24 -159,-66 -42,-42 -66,-100 -66,-159z"/>
  <path class="fil0 str0" d="M-3840 16673c-166,0 -300,134 -300,300 0,165 134,300 300,300 165,0 300,-135 300,-300 0,-166 -135,-300 -300,-300z"/>
  <path class="fil0 str0" d="M-3840 -8941c-166,0 -300,135 -300,300 0,166 134,300 300,300 165,0 300,-134 300,-300 0,-165 -135,-300 -300,-300z"/>
  <path class="fil0 str0" d="M-3840 3875c-166,0 -300,134 -300,300 0,166 134,300 300,300 165,0 300,-134 300,-300 0,-166 -135,-300 -300,-300z"/>
  <path class="fil0 str0" d="M-3656 20178l-1144 -966c144,-260 186,-565 118,-854 -5,-13 -19,-19 -32,-15 -13,5 -21,11 -17,24 46,294 -28,595 -204,835 -221,199 -542,243 -809,112 -13,-3 -27,5 -30,19 -4,14 -6,21 7,25 281,151 622,133 885,-48l960 1120c5,5 7,13 6,20 -1,7 -5,13 -12,17 -160,98 -344,148 -532,146l-17437 -202c-27,-1 -49,-23 -49,-50l0 -1309c0,-27 -11,-52 -30,-71 -19,-19 -44,-29 -70,-29l-1041 0c-26,0 -52,11 -70,29 -19,19 -30,44 -30,71l0 1293c0,13 -5,26 -14,35 -10,10 -23,15 -36,15l-2173 -25c-97,-1 -188,-42 -254,-113 -65,-71 -98,-167 -91,-263 81,-1097 138,-2197 172,-3296 1,-27 23,-49 50,-49l714 0c13,0 26,-5 35,-15 9,-9 15,-22 15,-35l0 -2499c0,-13 -6,-26 -15,-35 -9,-9 -22,-15 -35,-15l-710 0c-13,0 -26,-5 -35,-14 -10,-10 -15,-22 -15,-36l0 -19618c0,-14 5,-26 15,-36 9,-9 22,-14 35,-14l776 0 0 -2618 -781 0c-27,0 -49,-22 -50,-49 -34,-1118 -94,-2236 -177,-3352 -7,-96 26,-191 91,-262 65,-71 157,-113 254,-114l20956 -258c203,-3 402,56 570,170 6,4 10,10 11,17 1,7 -1,14 -6,20l-972 1133c-262,-181 -604,-199 -884,-48 -11,9 -12,26 -2,36 9,11 14,18 25,8 266,-132 587,-87 808,112 177,240 250,540 205,835 -1,13 10,25 24,25 14,1 24,-2 25,-16 67,-289 25,-594 -119,-854l1143 -965c6,-5 13,-7 21,-6 7,2 13,6 17,12 95,157 146,337 146,520l0 30935c0,200 -60,394 -171,560 -4,6 -10,9 -17,10 -7,1 -15,-1 -20,-5z"/>
 </g>
</svg>
