<?xml version="1.0" encoding="UTF-8"?>
<!DOCTYPE svg PUBLIC "-//W3C//DTD SVG 1.1//EN" "http://www.w3.org/Graphics/SVG/1.1/DTD/svg11.dtd">
<!-- Creator: CorelDRAW X8 -->
<svg xmlns="http://www.w3.org/2000/svg" xml:space="preserve" width="40mm" height="60mm" version="1.1" style="shape-rendering:geometricPrecision; text-rendering:geometricPrecision; image-rendering:optimizeQuality; fill-rule:evenodd; clip-rule:evenodd"
viewBox="0 0 4000 6000"
 xmlns:xlink="http://www.w3.org/1999/xlink">
 <defs>
  <style type="text/css">
   <![CDATA[
    .str0 {stroke:#332C2B;stroke-width:7.62}
    .fil0 {fill:none}
   ]]>
  </style>
 </defs>
 <g id="图层_x0020_1">
  <metadata id="CorelCorpID_0Corel-Layer"/>
  <path class="fil0 str0" d="M877 794c-1,-13 -12,-26 -37,-27 -86,0 -156,70 -156,156 0,86 70,156 156,156 87,0 157,-70 157,-156 0,-86 -70,-156 -157,-156m13 387c-1,-4 -5,-8 -13,-9 -28,0 -52,23 -52,52 0,29 24,52 52,52 29,0 52,-23 52,-52 0,-29 -23,-52 -52,-52m-180 4179l2604 0c76,0 138,-62 138,-138l0 -4398c0,-76 -62,-138 -138,-138l-2528 0c-76,0 -138,62 -138,138l0 4398c0,76 62,138 138,138l75 0c49,1 86,10 110,26"/>
 </g>
</svg>
