<?xml version="1.0" encoding="UTF-8"?>
<!DOCTYPE svg PUBLIC "-//W3C//DTD SVG 1.1//EN" "http://www.w3.org/Graphics/SVG/1.1/DTD/svg11.dtd">
<!-- Creator: CorelDRAW X8 -->
<svg xmlns="http://www.w3.org/2000/svg" xml:space="preserve" width="40mm" height="60mm" version="1.1" style="shape-rendering:geometricPrecision; text-rendering:geometricPrecision; image-rendering:optimizeQuality; fill-rule:evenodd; clip-rule:evenodd"
viewBox="0 0 4000 6000"
 xmlns:xlink="http://www.w3.org/1999/xlink">
 <defs>
  <style type="text/css">
   <![CDATA[
    .str0 {stroke:black;stroke-width:20}
    .fil0 {fill:none}
   ]]>
  </style>
 </defs>
 <g id="图层_x0020_1">
  <metadata id="CorelCorpID_0Corel-Layer"/>
  <g id="_2208662255472">
   <path class="fil0 str0" d="M946 5244l1923 0c102,0 185,-79 185,-177l0 -4240c0,-97 -83,-177 -185,-177l-575 0 -37 14 -472 0 -33 -14 -590 0c-102,0 -185,80 -185,177l0 4240c0,98 83,177 185,177 102,0 143,47 143,106"/>
   <path class="fil0 str0" d="M1131 845c0,-41 7,-94 46,-94 38,0 70,32 70,70 0,39 -32,70 -70,70 -39,0 -70,-31 -70,-70 0,-38 31,-70 70,-70"/>
  </g>
 </g>
</svg>
