<?xml version="1.0" encoding="UTF-8"?>
<!DOCTYPE svg PUBLIC "-//W3C//DTD SVG 1.1//EN" "http://www.w3.org/Graphics/SVG/1.1/DTD/svg11.dtd">
<!-- Creator: CorelDRAW X8 -->
<svg xmlns="http://www.w3.org/2000/svg" xml:space="preserve" width="40mm" height="60mm" version="1.1" style="shape-rendering:geometricPrecision; text-rendering:geometricPrecision; image-rendering:optimizeQuality; fill-rule:evenodd; clip-rule:evenodd"
viewBox="0 0 4000 6000"
 xmlns:xlink="http://www.w3.org/1999/xlink">
 <defs>
  <style type="text/css">
   <![CDATA[
    .str0 {stroke:black;stroke-width:7.62}
    .fil0 {fill:none}
   ]]>
  </style>
 </defs>
 <g id="图层_x0020_1">
  <metadata id="CorelCorpID_0Corel-Layer"/>
  <path class="fil0 str0" d="M977 5350l1887 0c123,0 223,-101 223,-224l0 -4252c0,-123 -100,-224 -223,-224l-1728 0c-123,0 -223,101 -223,224l0 4252c0,123 100,224 223,224l272 0m525 -3755c-39,11 -69,25 -69,93l0 44c0,78 65,143 143,143l0 0c79,0 143,-65 143,-143l0 -110c0,-79 -64,-143 -143,-143l0 0c-78,0 -143,64 -143,143l0 66m-638 -908l0 0c94,0 171,77 171,171l0 554c0,94 -77,171 -171,171l0 0c-94,0 -171,-77 -171,-171l0 -554c0,-94 77,-171 171,-171zm3 41l0 0c75,0 137,61 137,136l0 535c0,75 -62,136 -137,136l0 0c-75,0 -137,-61 -137,-136l0 -535c0,-75 62,-136 137,-136zm13 78c-1,-5 -5,-10 -15,-11 -34,0 -62,28 -62,62 0,34 28,62 62,62 34,0 62,-28 62,-62 0,-34 -28,-62 -62,-62m26 253c-1,-9 -9,-18 -26,-19 -60,0 -109,49 -109,109 0,60 49,109 109,109 60,0 109,-49 109,-109 0,-60 -49,-109 -109,-109m22 299c-1,-8 -8,-15 -22,-16 -52,0 -93,41 -93,93 0,51 41,93 93,93 51,0 93,-42 93,-93 0,-52 -42,-93 -93,-93m16 368c0,-5 -5,-9 -13,-10 -30,0 -54,24 -54,54 0,30 24,55 54,55 30,0 54,-25 54,-55 0,-30 -24,-54 -54,-54"/>
 </g>
</svg>
