<?xml version="1.0" encoding="UTF-8"?>
<!DOCTYPE svg PUBLIC "-//W3C//DTD SVG 1.1//EN" "http://www.w3.org/Graphics/SVG/1.1/DTD/svg11.dtd">
<!-- Creator: CorelDRAW X8 -->
<svg xmlns="http://www.w3.org/2000/svg" xml:space="preserve" width="40mm" height="60mm" version="1.1" style="shape-rendering:geometricPrecision; text-rendering:geometricPrecision; image-rendering:optimizeQuality; fill-rule:evenodd; clip-rule:evenodd"
viewBox="0 0 4000 6000"
 xmlns:xlink="http://www.w3.org/1999/xlink">
 <defs>
  <style type="text/css">
   <![CDATA[
    .str0 {stroke:black;stroke-width:7.62}
    .fil0 {fill:none}
   ]]>
  </style>
 </defs>
 <g id="图层_x0020_1">
  <metadata id="CorelCorpID_0Corel-Layer"/>
  <path class="fil0 str0" d="M1265 816c-1,-9 -9,-17 -25,-18 -57,0 -104,46 -104,104 0,57 47,103 104,103 57,0 104,-46 104,-103 0,-58 -47,-104 -104,-104m21 389c0,-7 -7,-14 -21,-15 -49,0 -89,39 -89,89 0,49 40,89 89,89 49,0 89,-40 89,-89 0,-50 -40,-89 -89,-89m1 -401l0 0c75,0 138,62 138,138l0 335c0,76 -63,138 -138,138l0 0c-76,0 -138,-62 -138,-138l0 -335c0,-76 62,-138 138,-138zm-7 -53l0 0c97,0 177,79 177,176l0 356c0,98 -80,177 -177,177l0 0c-97,0 -177,-79 -177,-177l0 -356c0,-97 80,-176 177,-176zm-205 4618l1837 0c127,0 231,-104 231,-232l0 -4222c0,-128 -104,-232 -231,-232l-1732 0c-127,0 -231,104 -231,232l0 4222c0,128 104,232 231,232 17,0 41,3 52,14"/>
 </g>
</svg>
