<?xml version="1.0" encoding="UTF-8"?>
<!DOCTYPE svg PUBLIC "-//W3C//DTD SVG 1.1//EN" "http://www.w3.org/Graphics/SVG/1.1/DTD/svg11.dtd">
<!-- Creator: CorelDRAW -->
<svg xmlns="http://www.w3.org/2000/svg" xml:space="preserve" width="40mm" height="60mm" style="shape-rendering:geometricPrecision; text-rendering:geometricPrecision; image-rendering:optimizeQuality; fill-rule:evenodd; clip-rule:evenodd"
viewBox="0 0 40 60"
 xmlns:xlink="http://www.w3.org/1999/xlink">
 <defs>
  <style type="text/css">
   <![CDATA[
    .str0 {stroke:#1F1A17;stroke-width:0.194}
    .str1 {stroke:#1F1A17;stroke-width:0.2}
    .fil1 {fill:none}
    .fil0 {fill:none;fill-rule:nonzero}
   ]]>
  </style>
 </defs>
 <g id="图层_x0020_2">
  <metadata id="CorelCorpID_0Corel-Layer"/>
  <g id="_142598016">
   <polyline id="_203562736" class="fil0 str0" points="28.8654,53.4963 22.9304,53.4888 22.8572,53.482 "/>
   <path id="_203242712" class="fil0 str0" d="M22.8572 53.482c-0.1689,-0.0079 -0.1689,-0.0079 -0.1779,-1.2663"/>
   <polyline id="_203563816" class="fil0 str0" points="22.6793,52.2157 22.676,51.6687 22.6613,51.4582 "/>
   <path id="_203563312" class="fil0 str0" d="M22.6613 51.4582c-0.0844,-0.466 -0.5358,-0.8746 -1.0063,-0.9118"/>
   <line id="_47592328" class="fil0 str0" x1="21.655" y1="50.5464" x2="20.2751" y2= "50.5386" />
   <path id="_47593456" class="fil0 str0" d="M20.2751 50.5386c-2.1409,-0.0113 -2.1949,-0.0034 -2.5461,0.377 -0.3129,0.34 -0.3152,0.3614 -0.3152,2.2085 0,0.0236 0,0.0461 0,0.0698 -0.0011,0.2566 -0.0574,0.296 -0.4243,0.3061"/>
   <line id="_203563696" class="fil0 str0" x1="16.9895" y1="53.5" x2="11.357" y2= "53.4899" />
   <path id="_203563864" class="fil0 str0" d="M11.357 53.4899c-0.3906,-0.0011 -0.4772,-0.0068 -0.6573,-0.045 -0.9658,-0.2049 -1.7897,-0.9241 -2.1072,-1.8404 -0.1508,-0.4333 -0.1598,-0.4975 -0.162,-1.1121"/>
   <line id="_203241704" class="fil0 str0" x1="8.4305" y1="50.4924" x2="8.2763" y2= "16.9294" />
   <path id="_203242568" class="fil0 str0" d="M8.2763 16.9294c-0.0214,-4.6633 -0.0012,-6.3798 0.0866,-7.3591 0.0878,-0.9781 0.2533,-1.443 0.708,-1.9901 0.5167,-0.6202 1.2708,-1.0085 2.0385,-1.0479 0.2622,-0.0135 1.1706,-0.0236 2.1949,-0.0236 1.6501,0 2.0114,0.0079 2.1893,0.0427 0.179,0.0361 0.2138,0.1081 0.2138,0.4379 0,0.0158 0,0.0326 0,0.0495"/>
   <line id="_142018520" class="fil0 str0" x1="15.7074" y1="7.0388" x2="15.7052" y2= "7.5408" />
   <path id="_142018400" class="fil0 str0" d="M15.7052 7.5408c-0.0023,0.5122 0.2296,0.8037 0.6405,0.8037 0.3793,0 0.6292,-0.2701 0.6382,-0.6888"/>
   <polyline id="_203563888" class="fil0 str0" points="16.9839,7.6557 16.9782,7.0467 16.9715,6.8936 "/>
   <path id="_203563768" class="fil0 str0" d="M16.9715 6.8936c-0.0158,-0.3861 -0.0158,-0.3861 1.5803,-0.3883"/>
   <line id="_142018688" class="fil0 str0" x1="18.5518" y1="6.5053" x2="21.4963" y2= "6.5008" />
   <path id="_47592424" class="fil0 str0" d="M21.4963 6.5008c2.8883,-0.0045 5.1496,0.0101 5.3162,0.0326 0.2172,0.0293 0.2522,0.0935 0.2522,0.4627 0,0.0191 0,0.0382 -0.0012,0.0574"/>
   <line id="_142597392" class="fil0 str0" x1="27.0635" y1="7.0535" x2="27.0624" y2= "7.5093" />
   <path id="_142597176" class="fil0 str0" d="M27.0624 7.5093c-0.0022,0.5561 0.1643,0.7879 0.5651,0.7891 0.3691,0 0.5538,-0.2398 0.5526,-0.7193 0,-0.0124 0,-0.0259 0,-0.0383"/>
   <line id="_203561776" class="fil0 str0" x1="28.1801" y1="7.5408" x2="28.1779" y2= "7.067" />
   <path id="_203561680" class="fil0 str0" d="M28.1779 7.067c-0.0023,-0.4672 0.0754,-0.5471 0.5369,-0.5471 1.4813,0 2.68,0.9748 2.9322,2.3829"/>
   <line id="_142597920" class="fil0 str0" x1="31.647" y1="8.9028" x2="31.6492" y2= "8.9219" />
   <path id="_142598304" class="fil0 str0" d="M31.6492 8.9219c0.036,0.2004 0.036,0.2004 0.0349,0.5741"/>
   <line id="_203563240" class="fil0 str0" x1="31.6841" y1="9.496" x2="31.7315" y2= "37.0877" />
   <path id="_142597512" class="fil0 str0" d="M31.7315 37.0877c-0.0217,4.6398 -0.0666,9.2746 -0.0666,13.9101 0,0.5595 -0.4941,1.4363 -1.0625,1.8843 -0.511,0.4029 -0.8307,0.5144 -1.7706,0.6179"/>
   <rect id="_142018640" class="fil1 str1" x="17.8479" y="7.32056" width="4.42127" height="0.824246" rx="1.2916" ry="1.2916"/>
  </g>
 </g>
</svg>
