<?xml version="1.0" encoding="UTF-8"?>
<!DOCTYPE svg PUBLIC "-//W3C//DTD SVG 1.1//EN" "http://www.w3.org/Graphics/SVG/1.1/DTD/svg11.dtd">
<!-- Creator: CorelDRAW -->
<svg xmlns="http://www.w3.org/2000/svg" xml:space="preserve" width="40mm" height="60mm" style="shape-rendering:geometricPrecision; text-rendering:geometricPrecision; image-rendering:optimizeQuality; fill-rule:evenodd; clip-rule:evenodd"
viewBox="0 0 40 60"
 xmlns:xlink="http://www.w3.org/1999/xlink">
 <defs>
  <style type="text/css">
   <![CDATA[
    .str0 {stroke:#1F1A17;stroke-width:0.194}
    .fil0 {fill:none}
   ]]>
  </style>
 </defs>
 <g id="图层_x0020_8">
  <metadata id="CorelCorpID_0Corel-Layer"/>
  <path class="fil0 str0" d="M24.0095 6.8084c-0.2544,0 -0.4608,0.2067 -0.4608,0.4616 0,0.2548 0.2064,0.4615 0.4608,0.4615 0.2544,0 0.4607,-0.2067 0.4607,-0.4615 0,-0.2549 -0.2063,-0.4616 -0.4607,-0.4616z"/>
  <path class="fil0 str0" d="M20.412 6.8551l-2.76 0c-0.2426,0 -0.4409,0.1724 -0.4409,0.3831l0 0.0001c0,0.2107 0.1983,0.3831 0.4409,0.3831l2.76 0c0.2426,0 0.4409,-0.1724 0.4409,-0.3831l0 -0.0001c0,-0.2107 -0.1983,-0.3831 -0.4409,-0.3831z"/>
  <path class="fil0 str0" d="M21.3606 52.8875c-4.1438,0.0044 -6.6144,0.0044 -10.7663,0.0111 -0.0595,0.0045 -0.1166,-0.0056 -0.1815,-0.0145"/>
  <line class="fil0 str0" x1="21.3606" y1="52.8875" x2="28.3" y2= "52.8818" />
  <path class="fil0 str0" d="M28.3 52.8818c0.6334,-0.019 1.0664,-0.2663 1.3999,-0.7979 0.1802,-0.2864 0.1947,-0.3558 0.1959,-0.9098"/>
  <line class="fil0 str0" x1="29.8958" y1="51.1741" x2="29.954" y2= "7.6076" />
  <path class="fil0 str0" d="M29.954 7.6076c-0.0347,-0.6469 -0.253,-1.0721 -0.7263,-1.419 -0.2171,-0.1601 -0.451,-0.2574 -0.6547,-0.2742 -3.1188,-0.0123 -6.2388,-0.0168 -9.3587,-0.0134"/>
  <line class="fil0 str0" x1="19.2143" y1="5.901" x2="10.1767" y2= "5.9133" />
  <path class="fil0 str0" d="M10.1767 5.9133c-0.5473,0.0436 -1.1874,0.6323 -1.3138,1.2063"/>
  <line class="fil0 str0" x1="8.8629" y1="7.1196" x2="8.8573" y2= "7.1409" />
  <path class="fil0 str0" d="M8.8573 7.1409c-0.0157,0.056 -0.0157,0.056 -0.0135,1.7458"/>
  <path class="fil0 str0" d="M8.8438 8.8867l0.0381 42.4822 -0.0079 0.2394m-0.0302 -42.7216z"/>
  <path class="fil0 str0" d="M8.874 51.6083c0,0.4958 0.6111,1.1135 1.2176,1.2299l0.0134 0.0034 0.3078 0.0425"/>
 </g>
</svg>
