<?xml version="1.0" encoding="UTF-8"?>
<!DOCTYPE svg PUBLIC "-//W3C//DTD SVG 1.1//EN" "http://www.w3.org/Graphics/SVG/1.1/DTD/svg11.dtd">
<!-- Creator: CorelDRAW 2020 (64-Bit) -->
<svg xmlns="http://www.w3.org/2000/svg" xml:space="preserve" width="40mm" height="60mm" version="1.1" style="shape-rendering:geometricPrecision; text-rendering:geometricPrecision; image-rendering:optimizeQuality; fill-rule:evenodd; clip-rule:evenodd"
viewBox="0 0 4000 6000"
 xmlns:xlink="http://www.w3.org/1999/xlink"
 xmlns:xodm="http://www.corel.com/coreldraw/odm/2003">
 <defs>
  <style type="text/css">
   <![CDATA[
    .str1 {stroke:#332C2B;stroke-width:20;stroke-miterlimit:22.9256}
    .str0 {stroke:#E72D28;stroke-width:20;stroke-miterlimit:22.9256}
    .str2 {stroke:#222222;stroke-width:20;stroke-miterlimit:22.9256}
    .fil0 {fill:none}
   ]]>
  </style>
   <clipPath id="id0">
    <rect x="-34364.49" y="-5165.79" width="13018.17" height="17026.41"/>
   </clipPath>
 </defs>
 <g id="图层_x0020_1">
  <metadata id="CorelCorpID_0Corel-Layer"/>
  <g style="clip-path:url(#id0)">
   <image x="-34364.49" y="-5165.79" width="13018.17" height="17026.41" xlink:href="Y21G -11i（背膜）_Images\Y21G -11i（背膜）_ImgID1.png"/>
  </g>
  <rect class="fil0 str0" x="-34056.3" y="-4870.33" width="7608" height="16426"/>
  <rect class="fil0 str0" x="-33915.46" y="-4759.2" width="7326.32" height="16212.58" rx="900" ry="782.59"/>
  <rect class="fil0 str1" x="-33376.43" y="-4225.85" width="2629.39" height="3677.71" rx="347.82" ry="350"/>
  <rect class="fil0 str1" x="-33269.82" y="-4101.92" width="2405.09" height="3429.86" rx="318.15" ry="326.41"/>
  <path class="fil0 str1" d="M-32627.51 -3883.18c-314.17,0 -568.86,254.69 -568.86,568.86 0,314.17 254.69,568.86 568.86,568.86 314.17,0 568.86,-254.69 568.86,-568.86 0,-314.17 -254.69,-568.86 -568.86,-568.86 -314.17,0 -291.03,349.25 -288.38,394.23"/>
  <path class="fil0 str1" d="M-32626.17 -2291.69c-286.4,0 -518.58,232.18 -518.58,518.58 0,286.4 232.18,518.58 518.58,518.58 286.4,0 518.58,-232.18 518.58,-518.58 0,-286.4 -232.18,-518.58 -518.58,-518.58 -286.4,0 -265.31,318.38 -262.89,359.39"/>
  <path class="fil0 str1" d="M-31509.61 -2291.69c-286.4,0 -518.58,232.18 -518.58,518.58 0,286.4 232.18,518.58 518.58,518.58 286.4,0 518.58,-232.18 518.58,-518.58 0,-286.4 -232.18,-518.58 -518.58,-518.58 -286.4,0 -265.31,318.38 -262.89,359.39"/>
  <rect class="fil0 str1" x="-33116.11" y="-1041.52" width="709.56" height="302.78" rx="314.88" ry="323.88"/>
  <path class="fil0 str2" d="M-2083.12 6440.56l0 -5927.17c0,-494.99 -405.02,-900 -900.01,-900l-14412.57 0c-495,0 -900.01,405 -900.01,900l0 5526.32c0,495 405.01,900 900.01,900l14412.57 0c495,0 900.01,-405 900.01,-900 0,-495 94.07,-592.34 169.47,-698.17"/>
  <path class="fil0 str1" d="M-17762.35 6052.86l0 -1933.75c0,-191.31 156.51,-347.82 347.82,-347.82l2982.07 0c191.31,0 347.82,156.51 347.82,347.82l0 1933.75c0,191.31 -156.51,347.82 -347.82,347.82l-2982.07 0c-191.31,0 -347.82,-156.51 -347.82,-347.82z"/>
  <path class="fil0 str1" d="M-17638.43 5975.92l0 -1768.79c0,-174.99 143.17,-318.15 318.15,-318.15l2793.57 0c174.98,0 318.15,143.16 318.15,318.15l0 1768.79c0,174.99 -143.17,318.15 -318.15,318.15l-2793.57 0c-174.98,0 -318.15,-143.16 -318.15,-318.15z"/>
  <path class="fil0 str1" d="M-17419.69 5651.76c0,314.17 254.69,568.86 568.86,568.86 314.17,0 568.86,-254.69 568.86,-568.86 0,-314.17 -254.69,-568.86 -568.86,-568.86 -314.17,0 -568.86,254.69 -568.86,568.86 0,314.17 349.25,291.03 394.23,288.38"/>
  <path class="fil0 str1" d="M-15828.2 5650.42c0,286.4 232.18,518.58 518.58,518.58 286.4,0 518.58,-232.18 518.58,-518.58 0,-286.4 -232.18,-518.58 -518.58,-518.58 -286.4,0 -518.58,232.18 -518.58,518.58 0,286.4 318.38,265.31 359.39,262.89"/>
  <path class="fil0 str1" d="M-15828.2 4533.86c0,286.4 232.18,518.58 518.58,518.58 286.4,0 518.58,-232.18 518.58,-518.58 0,-286.4 -232.18,-518.58 -518.58,-518.58 -286.4,0 -518.58,232.18 -518.58,518.58 0,286.4 318.38,265.31 359.39,262.89"/>
  <path class="fil0 str1" d="M-14578.03 5988.98c0,83.26 68.12,151.38 151.38,151.38l0.02 0c83.26,0 151.38,-68.12 151.38,-151.38l0 -406.8c0,-83.26 -68.12,-151.38 -151.38,-151.38l-0.02 0c-83.26,0 -151.38,68.12 -151.38,151.38l0 406.8c0,0 7.98,-209.51 82.07,-247.88"/>
  <g id="_2996253828848">
   <path class="fil0 str2" d="M1085.65 5307.05l1700.5 0c142.01,0 258.21,-116.2 258.21,-258.21l0 -4134.96c0,-142.01 -116.19,-258.21 -258.21,-258.21l-1585.5 0c-142.02,0 -258.21,116.2 -258.21,258.21l0 4134.96c0,142.01 116.19,258.21 258.21,258.21 142.02,0 169.94,26.99 200.3,48.62"/>
   <path class="fil0 str1" d="M1196.88 808.69l554.79 0c54.89,0 99.79,44.9 99.79,99.79l0 855.55c0,54.89 -44.9,99.79 -99.79,99.79l-554.79 0c-54.89,0 -99.79,-44.9 -99.79,-99.79l0 -855.55c0,-54.89 44.9,-99.79 99.79,-99.79z"/>
   <path class="fil0 str1" d="M1218.95 844.24l507.47 0c50.2,0 91.27,41.08 91.27,91.28l0 801.47c0,50.2 -41.07,91.28 -91.27,91.28l-507.47 0c-50.2,0 -91.28,-41.08 -91.28,-91.28l0 -801.47c0,-50.2 41.08,-91.28 91.28,-91.28z"/>
   <path class="fil0 str1" d="M1311.95 907c-90.13,0 -163.2,73.07 -163.2,163.2 0,90.14 73.07,163.21 163.2,163.21 90.14,0 163.21,-73.07 163.21,-163.21 0,-90.13 -73.07,-163.2 -163.21,-163.2 -90.13,0 -83.49,100.2 -82.73,113.1"/>
   <path class="fil0 str1" d="M1312.34 1363.6c-82.17,0 -148.78,66.61 -148.78,148.78 0,82.17 66.61,148.78 148.78,148.78 82.17,0 148.78,-66.61 148.78,-148.78 0,-82.17 -66.61,-148.78 -148.78,-148.78 -82.17,0 -76.12,91.34 -75.43,103.1"/>
   <path class="fil0 str1" d="M1632.68 1363.6c-82.17,0 -148.78,66.61 -148.78,148.78 0,82.17 66.61,148.78 148.78,148.78 82.17,0 148.78,-66.61 148.78,-148.78 0,-82.17 -66.61,-148.78 -148.78,-148.78 -82.17,0 -76.12,91.34 -75.43,103.1"/>
   <path class="fil0 str1" d="M1215.2 1722.27c-23.88,0 -43.43,19.54 -43.43,43.43l0 0.01c0,23.88 19.55,43.43 43.43,43.43l116.72 0c23.88,0 43.43,-19.55 43.43,-43.43l0 -0.01c0,-23.89 -19.55,-43.43 -43.43,-43.43l-116.72 0c0,0 60.11,2.29 71.12,23.55"/>
  </g>
 </g>
</svg>
