<?xml version="1.0" encoding="UTF-8"?>
<!DOCTYPE svg PUBLIC "-//W3C//DTD SVG 1.1//EN" "http://www.w3.org/Graphics/SVG/1.1/DTD/svg11.dtd">
<!-- Creator: CorelDRAW X8 -->
<svg xmlns="http://www.w3.org/2000/svg" xml:space="preserve" width="40mm" height="60mm" version="1.1" style="shape-rendering:geometricPrecision; text-rendering:geometricPrecision; image-rendering:optimizeQuality; fill-rule:evenodd; clip-rule:evenodd"
viewBox="0 0 4000 6000"
 xmlns:xlink="http://www.w3.org/1999/xlink">
 <defs>
  <style type="text/css">
   <![CDATA[
    .str0 {stroke:black;stroke-width:7.62}
    .fil0 {fill:none}
   ]]>
  </style>
 </defs>
 <g id="图层_x0020_1">
  <metadata id="CorelCorpID_0Corel-Layer"/>
  <path class="fil0 str0" d="M829 5321l0 -4470c0,-88 73,-152 161,-161 332,-32 675,-40 1012,-40 337,0 668,5 1008,40 88,9 161,73 161,161l0 4304c0,88 -73,151 -161,161 -334,38 -673,34 -1010,34 -337,0 -656,4 -1010,-34 -88,-10 -161,-73 -161,-161l0 -95m1179 -3715c-1,-7 -6,-12 -17,-13 -41,0 -74,33 -74,73 0,40 33,73 74,73 40,0 73,-33 73,-73 0,-40 -33,-73 -73,-73m-73 -489l146 0c61,0 110,50 110,110l0 201c0,61 -49,110 -110,110l-146 0c-61,0 -110,-49 -110,-110l0 -201c0,-60 49,-110 110,-110zm-168 3933c-8,-32 -20,-55 -74,-55l-44 0c-63,0 -114,51 -114,114l0 0c0,62 51,113 114,113l728 0c62,0 113,-51 113,-113l0 0c0,-63 -51,-114 -113,-114l-684 0"/>
 </g>
</svg>
