<?xml version="1.0" encoding="UTF-8"?>
<!DOCTYPE svg PUBLIC "-//W3C//DTD SVG 1.1//EN" "http://www.w3.org/Graphics/SVG/1.1/DTD/svg11.dtd">
<!-- Creator: CorelDRAW X8 -->
<svg xmlns="http://www.w3.org/2000/svg" xml:space="preserve" width="40mm" height="60mm" version="1.1" style="shape-rendering:geometricPrecision; text-rendering:geometricPrecision; image-rendering:optimizeQuality; fill-rule:evenodd; clip-rule:evenodd"
viewBox="0 0 4000 6000"
 xmlns:xlink="http://www.w3.org/1999/xlink">
 <defs>
  <style type="text/css">
   <![CDATA[
    .str0 {stroke:black;stroke-width:7.62}
    .fil0 {fill:none}
   ]]>
  </style>
 </defs>
 <g id="图层_x0020_1">
  <metadata id="CorelCorpID_0Corel-Layer"/>
  <path class="fil0 str0" d="M-9036 21773c0,-150 315,-423 535,-423 220,0 400,-180 400,-400l0 -28400c0,-220 -180,-400 -400,-400l-16700 0c-440,0 -800,360 -800,800l0 13258c0,137 49,229 207,229l427 0c165,0 300,135 300,300l0 0c0,165 -135,300 -300,300l-427 0c-140,0 -207,92 -207,224l0 13289c0,440 360,800 800,800l17308 0"/>
  <path class="fil0 str0" d="M3255 5350c0,-24 50,-67 85,-67 35,0 63,-29 63,-64l0 -4506c0,-34 -28,-63 -63,-63l-2650 0c-69,0 -127,57 -127,127l0 2103c0,22 8,37 33,37l68 0c26,0 48,21 48,47l0 0c0,27 -22,48 -48,48l-68 0c-22,0 -33,15 -33,36l0 2108c0,70 58,127 127,127l2747 0"/>
 </g>
</svg>
