<?xml version="1.0" encoding="UTF-8"?>
<!DOCTYPE svg PUBLIC "-//W3C//DTD SVG 1.1//EN" "http://www.w3.org/Graphics/SVG/1.1/DTD/svg11.dtd">
<!-- Creator: CorelDRAW -->
<svg xmlns="http://www.w3.org/2000/svg" xml:space="preserve" width="40mm" height="60mm" style="shape-rendering:geometricPrecision; text-rendering:geometricPrecision; image-rendering:optimizeQuality; fill-rule:evenodd; clip-rule:evenodd"
viewBox="0 0 40 60"
 xmlns:xlink="http://www.w3.org/1999/xlink">
 <defs>
  <style type="text/css">
   <![CDATA[
    .str1 {stroke:#1F1A17;stroke-width:0.1}
    .str0 {stroke:#1F1A17;stroke-width:0.1}
    .fil1 {fill:none}
    .fil0 {fill:none;fill-rule:nonzero}
   ]]>
  </style>
 </defs>
 <g id="图层_x0020_1">
  <metadata id="CorelCorpID_0Corel-Layer"/>
  <polyline class="fil0 str0" points="12.4745,53.4979 11.1349,53.4841 11.0914,53.4798 "/>
  <path class="fil0 str0" d="M11.0914 53.4798c-1.2228,-0.1231 -2.2768,-1.1803 -2.3298,-2.3372"/>
  <line class="fil0 str0" x1="8.7616" y1="51.1426" x2="8.8713" y2= "8.7014" />
  <path class="fil0 str0" d="M8.8713 8.7014c0,-0.38 0.282,-1.106 0.6662,-1.4732 0.5381,-0.5127 1.1166,-0.7293 1.9519,-0.7282"/>
  <line class="fil0 str0" x1="11.4894" y1="6.5" x2="28.6761" y2= "6.5085" />
  <path class="fil0 str0" d="M28.6761 6.5085c1.1792,0.138 2.2258,1.2132 2.2683,2.3309"/>
  <line class="fil0 str0" x1="30.9444" y1="8.8394" x2="31.2384" y2= "43.3305" />
  <path class="fil0 str0" d="M31.2384 43.3305c-0.0292,2.7422 0.0817,5.421 -0.3365,8.1018 -0.1592,1.0169 -1.1506,1.917 -2.2545,2.0465 -0.1825,0.0212 -0.2473,0.0212 -2.4678,0.0212"/>
  <line class="fil0 str0" x1="26.1796" y1="53.5" x2="11.8344" y2= "53.4937" />
  <circle class="fil1 str1" cx="19.8551" cy="17.5277" r="1.99091"/>
  <path class="fil1 str1" d="M11.2999 7.0801l2.4241 0c0.8307,0 1.5103,0.7296 1.5103,1.6213l0 7.3767c0,0.8917 -0.6796,1.6213 -1.5103,1.6213l-1.4519 0 0 0.7955c0,0.4388 -0.359,0.7978 -0.7979,0.7978l0 0c-0.4388,0 -0.7978,-0.359 -0.7978,-0.7978l0 -0.941c-0.5219,-0.256 -0.8868,-0.8224 -0.8868,-1.4758l0 -7.3767c0,-0.8917 0.6796,-1.6213 1.5103,-1.6213z"/>
 </g>
</svg>
