<?xml version="1.0" encoding="UTF-8"?>
<!DOCTYPE svg PUBLIC "-//W3C//DTD SVG 1.1//EN" "http://www.w3.org/Graphics/SVG/1.1/DTD/svg11.dtd">
<!-- Creator: CorelDRAW -->
<svg xmlns="http://www.w3.org/2000/svg" xml:space="preserve" width="40mm" height="60mm" style="shape-rendering:geometricPrecision; text-rendering:geometricPrecision; image-rendering:optimizeQuality; fill-rule:evenodd; clip-rule:evenodd"
viewBox="0 0 40 60"
 xmlns:xlink="http://www.w3.org/1999/xlink">
 <defs>
  <style type="text/css">
   <![CDATA[
    .str0 {stroke:#1F1A17;stroke-width:0.0762;stroke-linejoin:bevel}
    .str1 {stroke:#1F1A17;stroke-width:0.0762;stroke-linejoin:bevel}
    .fil0 {fill:none}
   ]]>
  </style>
 </defs>
 <g id="图层_x0020_1">
  <metadata id="CorelCorpID_0Corel-Layer"/>
  <g id="_140597304">
   <path id="_140595888" class="fil0 str0" d="M14.3576 8.4741c0,-0.2549 -0.2066,-0.4615 -0.4615,-0.4615 -0.2549,0 -0.4615,0.2066 -0.4615,0.4615 0,0.2549 0.2066,0.4615 0.4615,0.4615 0.2549,0 0.4615,-0.2066 0.4615,-0.4615z"/>
   <path id="_140595936" class="fil0 str0" d="M22.355 24.3844c0,-1.3006 -1.0544,-2.355 -2.355,-2.355 -1.3007,0 -2.355,1.0544 -2.355,2.355 0,1.3007 1.0543,2.355 2.355,2.3551 1.3006,0 2.355,-1.0544 2.355,-2.3551z"/>
   <path id="_140596704" class="fil0 str0" d="M23.7963 52.4995c0,-0.2548 -0.2066,-0.4615 -0.4615,-0.4615 -0.2549,0 -0.4615,0.2067 -0.4615,0.4615 0,0.2549 0.2066,0.4615 0.4615,0.4615 0.2549,0 0.4615,-0.2066 0.4615,-0.4615z"/>
   <path id="_140596560" class="fil0 str1" d="M9.7276 50.5225c0.0005,0.7902 0.3149,1.5478 0.874,2.1062 0.559,0.5584 1.3133,0.8718 2.1035,0.8713l14.5898 0c0.7902,-0.0005 1.5478,-0.3149 2.1062,-0.874 0.5584,-0.5591 0.8718,-1.3133 0.8713,-2.1035l0 -41.045c-0.0005,-0.7902 -0.3149,-1.5478 -0.874,-2.1062 -0.5591,-0.5584 -1.3133,-0.8718 -2.1035,-0.8713l-14.5898 0c-0.7902,0.0005 -1.5478,0.3149 -2.1062,0.874 -0.5584,0.5591 -0.8718,1.3133 -0.8713,2.1035l0 41.045z"/>
   <path id="_140596848" class="fil0 str1" d="M17.2607 14.968c0.2604,-0.0001 0.5103,0.1032 0.6945,0.2872 0.1843,0.184 0.2879,0.435 0.2881,0.6954l0 3.1413c0.0001,0.2604 -0.1032,0.5103 -0.2872,0.6945 -0.184,0.1843 -0.435,0.2879 -0.6954,0.2881l-1.0571 0c-0.151,0 -0.2917,0.0762 -0.3742,0.2028 -0.5502,0.8579 -1.5988,1.252 -2.5779,0.9689 -0.9791,-0.2831 -1.6556,-1.2096 -1.663,-2.2288l0 -7.1311c0,-0.8244 0.4399,-1.5862 1.1538,-1.9984 0.714,-0.4122 1.5936,-0.4122 2.3076,0 0.7139,0.4122 1.1538,1.174 1.1538,1.9984l0 2.6351c0,0.1185 0.0472,0.2322 0.1311,0.3159 0.0838,0.0838 0.197,0.1308 0.3155,0.1307l0.6104 0z"/>
  </g>
 </g>
</svg>
