<?xml version="1.0" encoding="UTF-8"?>
<!DOCTYPE svg PUBLIC "-//W3C//DTD SVG 1.1//EN" "http://www.w3.org/Graphics/SVG/1.1/DTD/svg11.dtd">
<!-- Creator: CorelDRAW X8 -->
<svg xmlns="http://www.w3.org/2000/svg" xml:space="preserve" width="40mm" height="60mm" version="1.1" style="shape-rendering:geometricPrecision; text-rendering:geometricPrecision; image-rendering:optimizeQuality; fill-rule:evenodd; clip-rule:evenodd"
viewBox="0 0 4000 6000"
 xmlns:xlink="http://www.w3.org/1999/xlink">
 <defs>
  <style type="text/css">
   <![CDATA[
    .str0 {stroke:black;stroke-width:20}
    .fil0 {fill:none}
   ]]>
  </style>
 </defs>
 <g id="图层_x0020_1">
  <metadata id="CorelCorpID_0Corel-Layer"/>
  <path class="fil0 str0" d="M915 5350l2003 0c122,0 223,-98 223,-218l0 -4264c0,-120 -101,-218 -223,-218l-1836 0c-122,0 -223,98 -223,218l0 4264c0,120 101,218 223,218l39 0m733 -4580c25,-25 -4,-51 -30,-51 -25,0 -46,20 -46,44l0 0c0,25 21,45 46,45l390 0c26,0 47,-20 47,-45l0 0c0,-24 -21,-44 -47,-44l-390 0m-370 62c-16,-17 -11,-66 18,-66 29,0 52,24 52,53 0,29 -23,52 -52,52 -29,0 -53,-23 -53,-52 0,-29 24,-53 53,-53m1156 68c-15,-15 -11,-58 15,-58 27,0 48,21 48,48 0,26 -21,48 -48,48 -26,0 -48,-22 -48,-48 0,-27 22,-48 48,-48m-779 4440c47,-27 -3,-103 -60,-103 -56,0 -102,46 -102,103l0 0c0,56 46,102 102,102l362 0c56,0 102,-46 102,-102l0 0c0,-57 -46,-103 -102,-103l-362 0"/>
 </g>
</svg>
