<?xml version="1.0" encoding="UTF-8"?>
<!DOCTYPE svg PUBLIC "-//W3C//DTD SVG 1.1//EN" "http://www.w3.org/Graphics/SVG/1.1/DTD/svg11.dtd">
<!-- Creator: CorelDRAW X8 -->
<svg xmlns="http://www.w3.org/2000/svg" xml:space="preserve" width="40mm" height="60mm" version="1.1" style="shape-rendering:geometricPrecision; text-rendering:geometricPrecision; image-rendering:optimizeQuality; fill-rule:evenodd; clip-rule:evenodd"
viewBox="0 0 4000 6000"
 xmlns:xlink="http://www.w3.org/1999/xlink">
 <defs>
  <style type="text/css">
   <![CDATA[
    .str0 {stroke:#332C2B;stroke-width:7.62}
    .fil0 {fill:none}
   ]]>
  </style>
 </defs>
 <g id="图层_x0020_1">
  <metadata id="CorelCorpID_0Corel-Layer"/>
  <path class="fil0 str0" d="M-15866 4611c1,0 2,0 3,0 124,0 225,-101 225,-225 0,-1 0,-2 0,-3"/>
  <path class="fil0 str0" d="M-15638 1658c0,-1 0,-2 0,-2 0,-125 -101,-225 -225,-225 -1,0 -2,0 -3,0"/>
  <path class="fil0 str0" d="M1001 5350l1781 0c173,0 315,-143 315,-317l0 -4066c0,-174 -142,-317 -315,-317l-290 0c-18,0 -18,4 -18,22l0 45c0,38 -31,70 -69,70l-828 0c-38,0 -69,-32 -69,-70l0 -45c0,-16 -8,-22 -22,-22l-268 0c-173,0 -315,143 -315,317l0 4066c0,174 142,317 315,317l59 0"/>
 </g>
</svg>
