<?xml version="1.0" encoding="UTF-8"?>
<!DOCTYPE svg PUBLIC "-//W3C//DTD SVG 1.1//EN" "http://www.w3.org/Graphics/SVG/1.1/DTD/svg11.dtd">
<!-- Creator: CorelDRAW X8 -->
<svg xmlns="http://www.w3.org/2000/svg" xml:space="preserve" width="40mm" height="60mm" version="1.1" style="shape-rendering:geometricPrecision; text-rendering:geometricPrecision; image-rendering:optimizeQuality; fill-rule:evenodd; clip-rule:evenodd"
viewBox="0 0 4000 6000"
 xmlns:xlink="http://www.w3.org/1999/xlink">
 <defs>
  <style type="text/css">
   <![CDATA[
    .fil0 {fill:black;fill-rule:nonzero}
   ]]>
  </style>
 </defs>
 <g id="图层_x0020_1">
  <metadata id="CorelCorpID_0Corel-Layer"/>
  <g>
   <path class="fil0" d="M984 656c-4,-4 -3,-11 2,-14 4,-3 10,-2 14,2l-16 12zm30 68l-20 0 0 0 0 -3 0 -4 0 -3 0 -3 0 -3 0 -3 0 -2 0 -3 0 -3 0 -2 0 -3 0 -2 0 -3 -1 -2 0 -2 0 -2 -1 -3 0 -2 -1 -2 0 -1 0 -2 -1 -2 -1 -2 0 -1 -1 -2 0 -1 -1 -1 -1 -2 0 -1 -1 -1 -1 -1 0 -1 16 -12 1 2 1 1 1 2 1 2 1 2 1 2 1 2 1 2 0 2 1 2 1 2 0 3 1 2 0 2 1 3 0 2 1 3 0 2 0 3 1 3 0 3 0 2 0 3 0 3 0 3 0 3 0 3 0 4 0 3 0 3 0 4 0 3 0 -1zm0 1c0,6 -5,10 -11,9 -5,0 -9,-5 -9,-10l20 1zm-20 4580l0 -4581 20 0 0 4581 0 0 -20 0zm20 0c0,5 -5,10 -10,10 -6,0 -10,-5 -10,-10l20 0zm35 35l0 20 0 0 -3 0 -2 0 -3 -1 -3 0 -3 -1 -2 0 -3 -1 -2 -1 -3 -1 -2 -2 -2 -1 -3 -1 -2 -2 -2 -2 -2 -1 -2 -2 -2 -2 -1 -2 -2 -2 -2 -2 -1 -3 -1 -2 -2 -2 -1 -3 -1 -2 -1 -3 0 -3 -1 -2 0 -3 -1 -3 0 -3 0 -2 20 0 0 1 0 2 0 2 1 2 0 1 0 2 1 2 1 1 0 2 1 1 1 2 1 1 1 2 1 1 1 1 1 2 1 1 2 1 1 1 1 1 2 1 1 1 2 1 1 0 2 1 2 0 1 1 2 0 2 1 2 0 1 0 2 0 0 0zm0 0c6,0 10,4 10,10 0,6 -4,10 -10,10l0 -20zm1921 20l-1921 0 0 -20 1921 0 0 0 0 20zm0 -20c6,0 10,4 10,10 0,6 -4,10 -10,10l0 -20zm36 -35l20 0 0 0 0 2 0 3 -1 3 0 3 -1 2 -1 3 -1 3 0 2 -2 3 -1 2 -1 2 -2 3 -1 2 -2 2 -2 2 -1 2 -2 2 -2 1 -2 2 -3 2 -2 1 -2 1 -3 2 -2 1 -3 1 -2 1 -3 0 -2 1 -3 0 -3 1 -3 0 -3 0 0 -20 2 0 2 0 2 0 2 -1 1 0 2 -1 2 0 1 -1 2 0 1 -1 2 -1 1 -1 2 -1 1 -1 1 -1 1 -1 2 -2 1 -1 1 -1 1 -2 1 -1 1 -2 0 -1 1 -2 1 -1 0 -2 1 -2 0 -1 0 -2 1 -2 0 -2 0 -1 0 0zm0 0c0,-6 4,-10 10,-10 5,0 10,4 10,10l-20 0zm20 -4581l0 4581 -20 0 0 -4581 0 0 20 0zm-20 0c0,-5 4,-10 10,-10 5,0 10,5 10,10l-20 0zm-36 -35l0 -20 0 0 3 0 3 0 3 1 3 0 2 1 3 0 2 1 3 1 2 1 3 2 2 1 2 1 3 2 2 2 2 1 2 2 1 2 2 2 2 2 1 2 2 3 1 2 1 2 2 3 0 2 1 3 1 3 1 2 0 3 1 3 0 3 0 2 -20 0 0 -1 0 -2 -1 -2 0 -2 0 -1 -1 -2 0 -2 -1 -1 -1 -2 0 -1 -1 -2 -1 -1 -1 -2 -1 -1 -1 -1 -2 -2 -1 -1 -1 -1 -1 -1 -2 -1 -1 -1 -2 -1 -1 -1 -2 0 -1 -1 -2 0 -2 -1 -1 0 -2 -1 -2 0 -2 0 -2 0 0 0zm0 0c-5,0 -10,-5 -10,-10 0,-6 5,-10 10,-10l0 20zm-1921 -20l1921 0 0 20 -1921 0 0 0 0 -20zm0 20c-5,0 -10,-5 -10,-10 0,-6 5,-10 10,-10l0 20zm-35 36l-20 -2 0 1 0 -2 0 -3 1 -3 0 -3 1 -2 0 -3 1 -3 1 -2 1 -3 2 -2 1 -2 1 -3 2 -2 2 -2 1 -2 2 -2 2 -2 2 -1 2 -2 2 -2 3 -1 2 -1 2 -2 3 -1 2 -1 3 -1 2 0 3 -1 3 0 3 -1 2 0 3 0 0 20 -2 0 -1 0 -2 0 -2 1 -2 0 -1 1 -2 0 -2 1 -1 0 -2 1 -1 1 -1 1 -2 1 -1 1 -2 1 -1 1 -1 2 -1 1 -1 1 -1 2 -1 1 -1 1 -1 2 0 2 -1 1 -1 2 0 2 0 1 -1 2 0 2 0 2 0 1 0 1zm0 -1c0,6 -5,10 -10,10 -6,0 -10,-4 -10,-10l20 0zm-21 88l-17 -11 0 -1 1 -1 1 -1 0 -1 1 -2 1 -1 0 -2 1 -2 1 -1 0 -2 1 -2 0 -2 1 -2 1 -3 0 -2 1 -2 0 -3 1 -2 1 -3 0 -3 1 -3 0 -3 1 -3 0 -3 1 -3 0 -3 1 -4 0 -3 1 -4 0 -3 1 -4 0 -4 20 2 -1 4 0 4 -1 4 0 4 0 3 -1 4 0 3 -1 3 -1 4 0 3 -1 3 0 3 -1 3 0 3 -1 3 -1 2 0 3 -1 3 -1 2 0 2 -1 3 -1 2 -1 2 0 2 -1 3 -1 2 -1 1 -1 2 -1 2 0 2 -1 2 -1 1zm0 0c-3,5 -10,6 -14,3 -5,-3 -6,-9 -3,-14l17 11z"/>
  </g>
 </g>
</svg>
