<?xml version="1.0" encoding="UTF-8"?>
<!DOCTYPE svg PUBLIC "-//W3C//DTD SVG 1.1//EN" "http://www.w3.org/Graphics/SVG/1.1/DTD/svg11.dtd">
<!-- Creator: CorelDRAW X8 -->
<svg xmlns="http://www.w3.org/2000/svg" xml:space="preserve" width="40mm" height="60mm" version="1.1" style="shape-rendering:geometricPrecision; text-rendering:geometricPrecision; image-rendering:optimizeQuality; fill-rule:evenodd; clip-rule:evenodd"
viewBox="0 0 4000 6000"
 xmlns:xlink="http://www.w3.org/1999/xlink">
 <defs>
  <style type="text/css">
   <![CDATA[
    .str0 {stroke:black;stroke-width:7.62}
    .fil0 {fill:none}
   ]]>
  </style>
 </defs>
 <g id="图层_x0020_1">
  <metadata id="CorelCorpID_0Corel-Layer"/>
  <path class="fil0 str0" d="M1758 773l327 0c22,0 40,18 40,40l0 0c0,22 -18,40 -40,40l-327 0c-22,0 -40,-18 -40,-40l0 0c0,-22 18,-40 40,-40zm529 39c0,-30 -24,-54 -54,-54 -31,0 -56,25 -56,55 0,30 25,55 55,55 34,0 55,-22 55,-56zm-707 51l-8 4m0 0c0,-3 0,-4 0,-5 0,-1 0,-2 1,-6m0 0l4 -3m0 0c5,0 6,1 10,3 12,-11 19,-26 19,-43 0,-36 -27,-62 -63,-62 -37,0 -62,25 -62,61 0,37 27,64 63,64 30,0 57,-22 57,-46 0,-17 -13,-31 -30,-31 -9,0 -11,1 -64,20m1571 4456l-68 2 -1838 1c-131,0 -177,-3 -195,-12 -41,-20 -106,-83 -106,-131 0,-1377 7,-2996 7,-4373 0,-95 109,-111 169,-111 1798,-3 1915,3 1967,4 43,0 115,64 115,113 0,1838 -9,2294 -9,4414 -6,49 -96,88 -132,93 -35,5 -51,12 -89,39 -21,14 -47,20 -162,36"/>
 </g>
</svg>
