<?xml version="1.0" encoding="UTF-8"?>
<!DOCTYPE svg PUBLIC "-//W3C//DTD SVG 1.1//EN" "http://www.w3.org/Graphics/SVG/1.1/DTD/svg11.dtd">
<!-- Creator: CorelDRAW X8 -->
<svg xmlns="http://www.w3.org/2000/svg" xml:space="preserve" width="40mm" height="60mm" version="1.1" style="shape-rendering:geometricPrecision; text-rendering:geometricPrecision; image-rendering:optimizeQuality; fill-rule:evenodd; clip-rule:evenodd"
viewBox="0 0 4000 6000"
 xmlns:xlink="http://www.w3.org/1999/xlink">
 <defs>
  <style type="text/css">
   <![CDATA[
    .str0 {stroke:black;stroke-width:7.62}
    .fil0 {fill:none}
   ]]>
  </style>
 </defs>
 <g id="图层_x0020_1">
  <metadata id="CorelCorpID_0Corel-Layer"/>
  <path class="fil0 str0" d="M939 5350l2002 0c95,0 172,-77 172,-171l0 -4358c0,-94 -77,-171 -172,-171l-1882 0c-94,0 -172,77 -172,171l0 4358c0,94 78,171 172,171l101 0m893 -3799c-2,-18 -18,-36 -53,-39 -123,0 -222,100 -222,223 0,123 99,222 222,222 123,0 223,-99 223,-222 0,-123 -100,-223 -223,-223m53 -553c-2,-19 -18,-37 -53,-40 -123,0 -222,100 -222,223 0,123 99,222 222,222 123,0 223,-99 223,-222 0,-123 -100,-223 -223,-223m-388 203c-19,6 -33,13 -33,45l0 44c0,38 31,69 68,69l0 0c38,0 69,-31 69,-69l0 -171c0,-38 -31,-68 -69,-68l0 0c-37,0 -68,30 -68,68l0 127"/>
 </g>
</svg>
