<?xml version="1.0" encoding="UTF-8"?>
<!DOCTYPE svg PUBLIC "-//W3C//DTD SVG 1.1//EN" "http://www.w3.org/Graphics/SVG/1.1/DTD/svg11.dtd">
<!-- Creator: CorelDRAW 2020 (64-Bit) -->
<svg xmlns="http://www.w3.org/2000/svg" xml:space="preserve" width="40mm" height="60mm" version="1.1" style="shape-rendering:geometricPrecision; text-rendering:geometricPrecision; image-rendering:optimizeQuality; fill-rule:evenodd; clip-rule:evenodd"
viewBox="0 0 4000 6000"
 xmlns:xlink="http://www.w3.org/1999/xlink"
 xmlns:xodm="http://www.corel.com/coreldraw/odm/2003">
 <defs>
  <style type="text/css">
   <![CDATA[
    .str1 {stroke:#332C2B;stroke-width:20;stroke-miterlimit:22.9256}
    .str2 {stroke:#332C2B;stroke-width:20;stroke-miterlimit:22.9256}
    .str0 {stroke:#E62129;stroke-width:20;stroke-miterlimit:22.9256}
    .fil0 {fill:none}
   ]]>
  </style>
   <clipPath id="id0">
    <rect x="-42546.01" y="-4237.26" width="13245.24" height="15610.46"/>
   </clipPath>
 </defs>
 <g id="图层_x0020_1">
  <metadata id="CorelCorpID_0Corel-Layer"/>
  <g style="clip-path:url(#id0)">
   <image x="-42546.01" y="-4237.26" width="13245.24" height="15610.46" xlink:href="V30S ThinQ -11i（背膜）_Images\V30S ThinQ -11i（背膜）_ImgID1.png"/>
  </g>
  <rect class="fil0 str0" x="-37139.65" y="-3988.53" width="7540" height="15170"/>
  <rect class="fil0 str0" x="-37054.77" y="-3861.53" width="7370.24" height="14942.66" rx="900" ry="850.96"/>
  <rect class="fil0 str1" x="-34534.34" y="-2496.48" width="2367.44" height="1143.98" rx="719.19" ry="703.85"/>
  <rect class="fil0 str1" transform="matrix(1.4477E-14 -0.453924 0.534965 1.17656E-14 -32018.2 -1422.07)" width="2325.7" height="1148.3" rx="706.51" ry="706.51"/>
  <circle class="fil0 str1" cx="-33354.11" cy="460.49" r="562.25"/>
  <path class="fil0 str2" d="M-2237.23 6446.48l0 -5936.03c0,-495 -405.01,-900.01 -900,-900.01l-13142.66 0c-495,0 -900,405 -900,900.01l0 5570.23c0,495 405,900 900,900l13142.66 0c495,0 900,-405 900,-900 0,-495 48.85,-632.53 133.52,-764.83"/>
  <path class="fil0 str2" d="M-15814.84 3888.28c0,314.59 257.39,571.98 571.98,571.98l0.02 0c314.59,0 571.98,-257.39 571.98,-571.98l0 -1223.48c0,-314.59 -257.39,-571.98 -571.98,-571.98l-0.02 0c-314.59,0 -571.98,257.39 -571.98,571.98l0 1223.48c0,0 -1.12,-677.05 139.11,-933.7"/>
  <path class="fil0 str2" d="M-15796.12 1636.97c0,168.94 138.21,307.15 307.15,307.15l441.39 0c168.94,0 307.15,-138.21 307.15,-307.15l0 0c0,-168.94 -138.21,-307.15 -307.15,-307.15l-441.39 0c-168.94,0 -307.15,138.21 -307.15,307.15 0,168.94 164.02,237.23 240.09,237.89"/>
  <path class="fil0 str2" d="M-13420.12 3280.03c0,310.52 251.73,562.25 562.25,562.25 310.53,0 562.26,-251.73 562.26,-562.25 0,-310.53 -251.73,-562.26 -562.26,-562.26 -310.52,0 -562.25,251.73 -562.25,562.26 0,310.53 314.37,458.91 426.82,473.46"/>
  <g id="_2524146572912">
   <path class="fil0 str2" d="M1011.1 5314.05l1850.56 0c154.31,0 280.58,-126.27 280.58,-280.58l0 -4097.22c0,-154.32 -126.26,-280.58 -280.58,-280.58l-1736.52 0c-154.32,0 -280.58,126.26 -280.58,280.58l0 4097.22c0,154.32 126.26,280.58 280.58,280.58 154.32,0 197.19,15.22 238.44,41.62"/>
   <path class="fil0 str2" d="M1808.62 1081.22c-98.07,0 -178.31,80.25 -178.31,178.32l0 0.01c0,98.07 80.24,178.31 178.31,178.31l381.42 0c98.07,0 178.31,-80.24 178.31,-178.31l0 -0.01c0,-98.07 -80.24,-178.32 -178.31,-178.32l-381.42 0c0,0 211.07,-0.34 291.08,43.37"/>
   <path class="fil0 str2" d="M2510.46 1087.06c-52.66,0 -95.75,43.09 -95.75,95.75l0 137.61c0,52.66 43.09,95.75 95.75,95.75l0 0c52.67,0 95.76,-43.09 95.76,-95.75l0 -137.61c0,-52.66 -43.09,-95.75 -95.76,-95.75 -52.66,0 -73.95,51.13 -74.16,74.85"/>
   <path class="fil0 str2" d="M1998.24 1827.78c-96.8,0 -175.28,78.48 -175.28,175.28 0,96.81 78.48,175.28 175.28,175.28 96.81,0 175.29,-78.47 175.29,-175.28 0,-96.8 -78.48,-175.28 -175.29,-175.28 -96.81,0 -143.06,98 -147.6,133.06"/>
  </g>
 </g>
</svg>
