<?xml version="1.0" encoding="UTF-8"?>
<!DOCTYPE svg PUBLIC "-//W3C//DTD SVG 1.1//EN" "http://www.w3.org/Graphics/SVG/1.1/DTD/svg11.dtd">
<!-- Creator: CorelDRAW X8 -->
<svg xmlns="http://www.w3.org/2000/svg" xml:space="preserve" width="40mm" height="60mm" version="1.1" style="shape-rendering:geometricPrecision; text-rendering:geometricPrecision; image-rendering:optimizeQuality; fill-rule:evenodd; clip-rule:evenodd"
viewBox="0 0 4000 6000"
 xmlns:xlink="http://www.w3.org/1999/xlink">
 <defs>
  <style type="text/css">
   <![CDATA[
    .str0 {stroke:black;stroke-width:7.62}
    .fil0 {fill:none}
   ]]>
  </style>
 </defs>
 <g id="图层_x0020_1">
  <metadata id="CorelCorpID_0Corel-Layer"/>
  <path class="fil0 str0" d="M1007 5310l1814 0c126,0 229,-103 229,-229l0 -4201c0,-127 -103,-230 -229,-230l-678 0c-23,0 -42,19 -42,42l0 26c0,54 -44,97 -97,97l0 0c-54,0 -98,-43 -98,-97l0 -26c0,-23 -19,-42 -42,-42l-685 0c-126,0 -229,103 -229,230l0 4201c0,126 103,229 229,229l103 0c198,0 231,6 304,40"/>
 </g>
</svg>
