<?xml version="1.0" encoding="UTF-8"?>
<!DOCTYPE svg PUBLIC "-//W3C//DTD SVG 1.1//EN" "http://www.w3.org/Graphics/SVG/1.1/DTD/svg11.dtd">
<!-- Creator: CorelDRAW X8 -->
<svg xmlns="http://www.w3.org/2000/svg" xml:space="preserve" width="40mm" height="60mm" version="1.1" style="shape-rendering:geometricPrecision; text-rendering:geometricPrecision; image-rendering:optimizeQuality; fill-rule:evenodd; clip-rule:evenodd"
viewBox="0 0 4000 6000"
 xmlns:xlink="http://www.w3.org/1999/xlink">
 <defs>
  <style type="text/css">
   <![CDATA[
    .str0 {stroke:black;stroke-width:7.62}
    .fil0 {fill:none}
   ]]>
  </style>
 </defs>
 <g id="图层_x0020_1">
  <metadata id="CorelCorpID_0Corel-Layer"/>
  <path class="fil0 str0" d="M818 5249l0 -4295c0,-123 103,-231 226,-251 295,-48 850,-63 1319,-47 34,2 41,5 41,27l0 39c0,36 29,65 64,65l96 0c36,0 65,-29 65,-65l0 -37c0,-7 3,-15 14,-14 21,1 34,2 54,4 15,1 20,7 20,14l0 49c0,45 37,83 83,83l2 0c45,0 86,-38 86,-83 0,-11 0,-15 0,-26 0,-9 9,-19 21,-18 17,3 32,6 47,9 121,27 226,128 226,251l0 4078c0,123 -103,230 -226,247 -321,46 -629,71 -956,71 -326,0 -613,-15 -956,-71 -123,-20 -226,-124 -226,-247l0 -232"/>
 </g>
</svg>
