<?xml version="1.0" encoding="UTF-8"?>
<!DOCTYPE svg PUBLIC "-//W3C//DTD SVG 1.1//EN" "http://www.w3.org/Graphics/SVG/1.1/DTD/svg11.dtd">
<!-- Creator: CorelDRAW X8 -->
<svg xmlns="http://www.w3.org/2000/svg" xml:space="preserve" width="40mm" height="60mm" version="1.1" style="shape-rendering:geometricPrecision; text-rendering:geometricPrecision; image-rendering:optimizeQuality; fill-rule:evenodd; clip-rule:evenodd"
viewBox="0 0 4000 6000"
 xmlns:xlink="http://www.w3.org/1999/xlink">
 <defs>
  <style type="text/css">
   <![CDATA[
    .str0 {stroke:black;stroke-width:7.62}
    .fil0 {fill:none}
   ]]>
  </style>
 </defs>
 <g id="图层_x0020_1">
  <metadata id="CorelCorpID_0Corel-Layer"/>
  <path class="fil0 str0" d="M2549 742c0,-5 -4,-9 -13,-10 -31,0 -56,25 -56,56 0,31 25,56 56,56 31,0 56,-25 56,-56 0,-31 -25,-56 -56,-56m-603 53c-5,-18 -15,-33 -60,-33l-39 0c-20,0 -36,17 -36,37l0 0c0,20 16,37 36,37l346 0c20,0 36,-17 36,-37l0 0c0,-20 -16,-37 -36,-37l-307 0m-402 18c-3,-11 -7,-19 -26,-19l-16 0c-22,0 -40,18 -40,40l0 0c0,22 18,40 40,40l80 0c22,0 40,-18 40,-40l0 0c0,-22 -18,-40 -40,-40l-64 0m-549 4599l2097 0c96,0 174,-78 174,-174l0 -4352c0,-96 -78,-174 -174,-174l-1986 0c-96,0 -174,78 -174,174l0 4352c0,96 78,174 174,174l62 0"/>
 </g>
</svg>
