<?xml version="1.0" encoding="UTF-8"?>
<!DOCTYPE svg PUBLIC "-//W3C//DTD SVG 1.1//EN" "http://www.w3.org/Graphics/SVG/1.1/DTD/svg11.dtd">
<!-- Creator: CorelDRAW X8 -->
<svg xmlns="http://www.w3.org/2000/svg" xml:space="preserve" width="40mm" height="60mm" version="1.1" style="shape-rendering:geometricPrecision; text-rendering:geometricPrecision; image-rendering:optimizeQuality; fill-rule:evenodd; clip-rule:evenodd"
viewBox="0 0 4000 6000"
 xmlns:xlink="http://www.w3.org/1999/xlink">
 <defs>
  <style type="text/css">
   <![CDATA[
    .fil0 {fill:black;fill-rule:nonzero}
   ]]>
  </style>
 </defs>
 <g id="图层_x0020_1">
  <metadata id="CorelCorpID_0Corel-Layer"/>
  <g>
   <path class="fil0" d="M3142 1201l4 -4 0 0 1 1 2 1 1 1 2 1 1 1 2 1 1 1 2 0 2 1 1 0 2 1 2 0 2 0 1 0 2 0 2 0 2 0 1 0 2 0 2 -1 1 0 2 -1 2 0 1 -1 2 -1 1 -1 2 -1 1 -1 2 -1 1 -1 2 -1 1 -1 4 4 -1 1 -2 2 -1 1 -2 1 -2 1 -1 2 -2 1 -2 0 -2 1 -2 1 -2 1 -2 0 -2 1 -2 0 -2 0 -2 0 -2 0 -2 0 -2 0 -2 0 -2 0 -2 -1 -2 0 -2 -1 -2 -1 -2 -1 -2 0 -1 -2 -2 -1 -2 -1 -2 -1 -1 -2 0 0zm0 0c-2,-1 -2,-3 0,-4 1,-1 2,-1 4,0l-4 4zm-3 -59l4 4 0 0 -1 1 -1 2 -1 1 -1 2 -1 1 -1 2 -1 1 0 2 -1 2 0 2 -1 1 0 2 0 2 0 1 0 2 0 2 0 2 0 1 0 2 1 2 0 1 1 2 0 2 1 1 1 2 1 2 1 1 1 2 1 1 1 1 1 2 2 1 -4 4 -2 -1 -1 -2 -2 -1 -1 -2 -1 -2 -1 -1 -1 -2 -1 -2 -1 -2 -1 -2 0 -2 -1 -2 0 -2 -1 -2 0 -2 0 -2 0 -2 0 -2 0 -2 0 -2 1 -2 0 -2 1 -2 0 -2 1 -2 1 -2 1 -2 1 -1 1 -2 1 -2 1 -2 2 -1 0 0zm0 0c1,-1 3,-2 4,0 1,1 1,3 0,4l-4 -4zm59 -3l-4 4 0 0 -1 -1 -1 -1 -2 -1 -1 -1 -2 -1 -2 -1 -1 0 -2 -1 -2 -1 -1 0 -2 0 -2 -1 -1 0 -2 0 -2 0 -2 0 -1 0 -2 0 -2 1 -2 0 -1 0 -2 1 -2 1 -1 0 -2 1 -1 1 -2 1 -1 1 -2 1 -1 1 -2 1 -1 2 -4 -4 1 -2 2 -1 1 -2 2 -1 2 -1 2 -1 1 -1 2 -1 2 -1 2 -1 2 0 2 -1 2 0 2 -1 2 0 2 0 2 0 2 0 2 0 2 0 2 1 2 0 2 1 2 0 2 1 2 1 2 1 2 1 1 1 2 1 2 1 1 2 0 0zm0 0c2,1 2,3 1,4 -1,1 -3,1 -5,0l4 -4zm3 60l-4 -4 0 0 1 -2 1 -1 1 -2 1 -1 1 -2 1 -2 1 -1 0 -2 1 -2 0 -1 1 -2 0 -2 0 -1 0 -2 0 -2 0 -2 0 -1 0 -2 0 -2 -1 -2 0 -1 -1 -2 0 -2 -1 -1 -1 -2 -1 -1 -1 -2 -1 -1 -1 -2 -1 -1 -1 -1 -2 -2 4 -4 2 1 1 2 2 2 1 1 1 2 1 2 1 2 1 1 1 2 1 2 1 2 0 2 1 2 0 2 0 2 0 2 0 2 0 2 0 2 0 2 0 2 -1 2 0 2 -1 2 -1 2 -1 2 -1 2 -1 2 -1 1 -1 2 -1 2 -2 2 0 0zm0 0c-1,1 -3,1 -4,0 -1,-1 -1,-3 0,-4l4 4zm-2510 -455c-2,0 -3,-2 -3,-3 1,-2 2,-3 4,-3l-1 6zm9 22l-6 -1 0 0 0 -1 0 -1 0 -2 0 -1 0 -1 0 -1 0 -1 0 -1 0 -1 0 -1 0 -1 0 -1 0 -1 0 -1 -1 -1 0 0 0 -1 0 0 0 -1 0 0 -1 -1 0 0 0 -1 0 0 0 0 -1 0 0 0 0 -1 0 0 0 0 0 0 0 0 1 -6 1 1 0 0 1 0 1 1 0 0 1 1 0 0 1 1 0 0 0 1 1 1 0 0 0 1 1 1 0 1 0 0 0 1 0 1 1 1 0 1 0 1 0 1 0 1 0 1 0 1 0 2 0 1 0 1 0 1 0 2 0 1 0 2 0 0zm0 0c0,1 -1,2 -3,2 -2,0 -3,-1 -3,-3l6 1zm0 2254l-6 0 0 0 0 -103 0 -102 0 -102 0 -101 0 -101 0 -99 0 -99 0 -97 0 -96 0 -94 -1 -93 0 -90 0 -88 0 -86 0 -83 0 -80 0 -77 0 -74 -1 -71 0 -66 0 -64 0 -59 0 -55 0 -50 0 -46 1 -42 0 -36 0 -31 0 -26 0 -20 1 -15 0 -9 6 1 0 8 -1 15 0 20 0 26 0 31 -1 36 0 42 0 46 0 50 0 55 0 59 0 64 0 66 0 71 1 74 0 77 0 80 0 83 0 86 0 88 0 90 0 93 1 94 0 96 0 97 0 99 0 99 0 101 0 101 0 102 0 102 0 103 0 0zm0 0c0,1 -2,2 -3,2 -2,0 -3,-1 -3,-2l6 0zm-9 2201l-6 0 0 0 0 -7 0 -13 0 -19 0 -24 0 -29 0 -34 1 -40 0 -44 0 -48 0 -53 1 -57 0 -62 0 -65 1 -68 0 -72 0 -75 1 -78 0 -81 1 -84 0 -87 0 -88 1 -91 0 -92 1 -95 0 -96 0 -97 1 -99 0 -99 0 -100 0 -101 1 -102 0 -101 6 0 -1 101 0 102 0 101 0 100 0 99 -1 99 0 97 0 96 -1 95 0 92 -1 91 0 89 0 86 -1 84 0 81 -1 78 0 75 0 72 -1 69 0 64 0 62 -1 57 0 53 0 48 0 44 -1 40 0 34 0 29 0 24 0 19 0 13 0 7 0 0zm0 0c0,1 -1,3 -3,3 -1,0 -3,-1 -3,-3l6 0zm34 30l-1 6 0 0 -2 0 -2 0 -2 -1 -2 0 -1 -1 -2 -1 -2 0 -2 -1 -1 -1 -2 -1 -2 -1 -1 -1 -2 -1 -1 -1 -1 -1 -2 -1 -1 -2 -1 -1 -1 -1 -1 -2 -1 -1 -1 -1 -1 -2 -1 -1 -1 -2 -1 -1 0 -2 -1 -1 0 -2 0 -2 -1 -1 0 -2 6 0 0 1 1 1 0 2 0 1 0 1 1 1 0 2 1 1 1 1 1 1 0 2 1 1 1 1 1 1 1 1 1 1 2 1 1 1 1 1 1 1 2 1 1 1 2 1 1 1 1 0 2 1 2 0 1 1 2 0 1 1 2 0 2 0 0 0zm0 0c1,1 2,2 2,4 0,1 -2,3 -3,2l1 -6zm2552 96l0 6 0 0 -35 0 -45 0 -53 -1 -61 -1 -68 -1 -75 -1 -81 -2 -86 -2 -91 -3 -95 -2 -98 -3 -101 -3 -104 -4 -105 -3 -106 -4 -107 -3 -106 -4 -105 -4 -104 -4 -102 -4 -99 -4 -95 -4 -92 -4 -87 -5 -81 -4 -76 -4 -69 -4 -62 -3 -54 -4 -46 -4 -37 -3 -27 -4 1 -6 27 4 36 3 46 4 54 4 62 3 69 4 76 4 82 5 86 4 92 4 95 4 99 4 102 4 104 4 105 4 106 4 107 4 106 3 105 4 104 3 101 3 99 3 95 2 90 3 87 2 80 2 75 1 68 1 61 1 53 1 45 0 35 0 0 0zm0 0c2,0 3,1 3,3 0,1 -1,3 -3,3l0 -6zm34 -36l6 0 0 0 0 2 0 2 -1 2 0 2 0 2 0 2 -1 2 0 2 -1 2 0 2 -1 1 -1 2 -1 2 0 1 -2 2 -1 1 -1 2 -1 1 -2 1 -1 1 -2 1 -1 2 -2 0 -2 1 -2 1 -2 1 -2 0 -3 1 -2 0 -2 0 -3 1 -3 0 0 -6 3 0 2 0 2 -1 2 0 2 0 2 -1 2 -1 2 0 1 -1 2 -1 1 0 1 -1 2 -1 1 -1 1 -1 1 -2 1 -1 0 -1 1 -1 1 -2 1 -1 0 -2 1 -1 0 -2 1 -1 0 -2 0 -2 0 -1 0 -2 1 -2 0 -2 0 -2 0 0zm0 0c0,-1 1,-3 3,-3 1,0 3,2 3,3l-6 0zm9 -4609l6 0 0 0 0 16 1 38 0 59 0 78 -1 98 0 114 0 129 0 143 -1 156 0 167 -1 177 -1 185 0 192 -1 198 -1 201 0 204 -1 206 0 205 -1 203 -1 200 0 196 -1 189 0 183 -1 173 0 163 0 152 0 138 0 124 0 108 0 91 0 72 1 51 -6 0 -1 -51 0 -72 0 -91 0 -108 0 -124 0 -138 0 -152 0 -163 1 -173 0 -183 1 -189 0 -196 1 -200 1 -203 0 -205 1 -206 1 -204 0 -201 1 -198 0 -192 1 -185 1 -177 0 -167 1 -156 0 -143 0 -129 1 -114 0 -98 0 -78 0 -59 0 -38 -1 -16 0 0zm0 0c0,-1 1,-3 3,-3 2,0 3,1 3,3l-6 0zm-44 -46l1 -6 0 0 2 0 2 1 2 0 2 1 2 0 2 1 2 1 2 1 2 1 1 1 2 1 2 2 2 1 2 2 2 1 2 2 2 2 1 2 2 2 1 1 2 3 1 2 2 2 1 2 1 2 1 3 1 2 1 3 1 2 0 3 1 2 0 3 -6 0 0 -2 0 -2 -1 -2 -1 -3 0 -2 -1 -2 -1 -2 -1 -2 -1 -2 -2 -2 -1 -2 -1 -2 -2 -2 -1 -1 -2 -2 -1 -2 -2 -1 -2 -2 -1 -1 -2 -1 -2 -2 -2 -1 -1 -1 -2 -1 -2 -1 -2 0 -1 -1 -2 -1 -2 0 -2 0 -1 -1 -2 0 0 0zm0 0c-1,0 -2,-1 -2,-3 0,-2 1,-3 3,-3l-1 6zm-2548 85l-1 -6 0 0 38 -3 47 -4 55 -3 62 -4 68 -4 76 -4 80 -4 86 -4 90 -4 94 -4 98 -5 100 -4 102 -4 104 -4 104 -3 105 -4 105 -4 103 -3 103 -3 100 -3 98 -3 94 -2 91 -2 86 -2 81 -2 76 -1 69 -1 63 0 55 0 48 1 39 1 30 1 -1 6 -29 -1 -39 -1 -48 -1 -55 0 -63 0 -69 1 -76 1 -81 2 -86 2 -91 2 -94 2 -98 3 -100 3 -102 3 -104 3 -105 4 -105 4 -104 3 -104 4 -102 4 -100 4 -97 5 -94 4 -91 4 -85 4 -81 4 -75 4 -69 4 -62 4 -55 3 -46 4 -38 3 0 0zm0 0c-2,0 -3,-1 -3,-3 -1,-2 1,-3 2,-3l1 6zm-28 25l-6 -1 0 0 0 -1 1 -2 0 -2 0 -1 0 -2 1 -1 0 -2 1 -1 1 -1 0 -2 1 -1 1 -1 1 -1 1 -1 1 -1 1 -1 1 -1 1 -1 1 -1 1 -1 2 0 1 -1 1 -1 2 0 1 -1 2 0 1 -1 2 0 2 0 2 -1 1 0 2 0 1 6 -2 0 -2 0 -1 0 -2 1 -1 0 -2 0 -1 1 -1 0 -1 1 -2 0 -1 1 -1 0 -1 1 -1 1 -1 0 0 1 -1 1 -1 1 -1 1 0 0 -1 1 -1 1 0 1 -1 1 0 1 0 2 -1 1 0 1 0 1 -1 2 0 1 0 2 0 0zm0 0c0,1 -1,2 -3,2 -2,0 -3,-1 -3,-3l6 1zm-22 61l-3 -4 0 -1 1 -1 1 -1 1 -1 1 0 0 -1 1 -2 1 -1 1 -1 0 -1 1 -2 1 -1 1 -2 0 -1 1 -2 0 -2 1 -2 1 -1 0 -2 1 -2 0 -3 1 -2 0 -2 1 -2 0 -3 1 -2 0 -3 1 -3 0 -2 0 -3 1 -3 0 -3 6 1 0 3 -1 3 0 2 0 3 -1 3 0 3 -1 2 0 3 -1 2 0 3 -1 2 0 2 -1 2 -1 2 0 2 -1 2 -1 2 0 2 -1 2 -1 1 -1 2 0 2 -1 1 -1 1 -1 2 -1 1 -1 1 -1 1 -1 2 -1 1 -1 0 -1 1zm0 0c-1,1 -3,1 -4,0 -1,-2 -1,-4 1,-4l3 4z"/>
  </g>
 </g>
</svg>
