<?xml version="1.0" encoding="UTF-8"?>
<!DOCTYPE svg PUBLIC "-//W3C//DTD SVG 1.1//EN" "http://www.w3.org/Graphics/SVG/1.1/DTD/svg11.dtd">
<!-- Creator: CorelDRAW X8 -->
<svg xmlns="http://www.w3.org/2000/svg" xml:space="preserve" width="40mm" height="60mm" version="1.1" style="shape-rendering:geometricPrecision; text-rendering:geometricPrecision; image-rendering:optimizeQuality; fill-rule:evenodd; clip-rule:evenodd"
viewBox="0 0 4000 6000"
 xmlns:xlink="http://www.w3.org/1999/xlink">
 <defs>
  <style type="text/css">
   <![CDATA[
    .str0 {stroke:black;stroke-width:20}
    .fil0 {fill:none}
   ]]>
  </style>
 </defs>
 <g id="图层_x0020_1">
  <metadata id="CorelCorpID_0Corel-Layer"/>
  <path class="fil0 str0" d="M920 5350l1977 0c122,0 222,-100 222,-222l0 -4256c0,-122 -100,-222 -222,-222l-1794 0c-122,0 -222,100 -222,222l0 4256c0,122 100,222 222,222l166 0m439 -4629c0,-4 -4,-8 -11,-8 -27,0 -48,21 -48,47 0,27 21,48 48,48 26,0 47,-21 47,-48 0,-26 -21,-47 -47,-47m241 41c-5,-16 -13,-29 -52,-29l-33 0c-18,0 -32,14 -32,32l0 0c0,17 14,32 32,32l297 0c18,0 32,-15 32,-32l0 0c0,-18 -14,-32 -32,-32l-264 0m127 4364c-9,-35 -22,-61 -83,-61l-50 0c-70,0 -127,57 -127,127l0 0c0,70 57,127 127,127l248 0c70,0 127,-57 127,-127l0 0c0,-70 -57,-127 -127,-127l-198 0m391 -4307c0,-4 -3,-8 -11,-8 -26,0 -48,21 -48,47 0,27 22,48 48,48 26,0 48,-21 48,-48 0,-26 -22,-47 -48,-47"/>
 </g>
</svg>
