<?xml version="1.0" encoding="UTF-8"?>
<!DOCTYPE svg PUBLIC "-//W3C//DTD SVG 1.1//EN" "http://www.w3.org/Graphics/SVG/1.1/DTD/svg11.dtd">
<!-- Creator: CorelDRAW X8 -->
<svg xmlns="http://www.w3.org/2000/svg" xml:space="preserve" width="40mm" height="60mm" version="1.1" style="shape-rendering:geometricPrecision; text-rendering:geometricPrecision; image-rendering:optimizeQuality; fill-rule:evenodd; clip-rule:evenodd"
viewBox="0 0 4000 6000"
 xmlns:xlink="http://www.w3.org/1999/xlink">
 <defs>
  <style type="text/css">
   <![CDATA[
    .str0 {stroke:#332C2B;stroke-width:19.4}
    .fil0 {fill:none;fill-rule:nonzero}
   ]]>
  </style>
 </defs>
 <g id="图层_x0020_1">
  <metadata id="CorelCorpID_0Corel-Layer"/>
  <g id="_2056250646064">
   <g>
    <line class="fil0 str0" x1="3108" y1="651" x2="3108" y2= "685" />
    <polyline class="fil0 str0" points="2531,1331 2531,1341 2532,1341 "/>
    <path class="fil0 str0" d="M2532 1341c0,3 0,6 0,9 0,79 -33,122 -95,122 -31,0 -61,-15 -79,-41 -16,-22 -18,-38 -18,-135 0,-88 29,-127 96,-126 44,0 84,31 92,74 3,12 3,17 3,48"/>
    <line class="fil0 str0" x1="2531" y1="1292" x2="2531" y2= "1361" />
    <line class="fil0 str0" x1="2239" y1="1333" x2="2239" y2= "1367" />
    <path class="fil0 str0" d="M2239 1367c0,41 -1,76 -4,89 -13,66 -77,115 -148,115 -13,0 -17,0 -99,-7 -28,-3 -51,-4 -65,-4 -15,0 -26,1 -45,5 -4,2 -7,2 -10,2 -18,0 -53,-19 -74,-39 -41,-40 -46,-63 -46,-216 0,-74 3,-111 12,-138 9,-27 24,-45 56,-66"/>
    <line class="fil0 str0" x1="1816" y1="1108" x2="1823" y2= "1103" />
    <path class="fil0 str0" d="M1823 1103c22,-15 22,-15 122,-25"/>
    <line class="fil0 str0" x1="1945" y1="1078" x2="1976" y2= "1075" />
    <path class="fil0 str0" d="M1976 1075c37,-3 61,-5 78,-5 26,0 42,4 64,14"/>
    <line class="fil0 str0" x1="2118" y1="1084" x2="2119" y2= "1085" />
    <path class="fil0 str0" d="M2119 1085c3,1 3,1 16,5"/>
    <line class="fil0 str0" x1="2135" y1="1090" x2="2142" y2= "1092" />
    <path class="fil0 str0" d="M2142 1092c42,12 82,58 93,105 3,15 4,26 4,64"/>
    <line class="fil0 str0" x1="2239" y1="1261" x2="2239" y2= "1315" />
    <path class="fil0 str0" d="M2239 1315c0,16 0,32 0,48"/>
    <polyline class="fil0 str0" points="3107,3005 3108,3015 3108,3015 3107,3015 3106,4325 "/>
    <path class="fil0 str0" d="M3106 4325c0,454 0,341 -3,795 -2,57 -6,72 -32,116 -28,47 -76,80 -145,100 -33,9 -341,13 -930,14 -697,0 -759,0 -865,-7 -80,-4 -148,-36 -188,-87 -37,-48 -49,-94 -49,-192"/>
    <line class="fil0 str0" x1="894" y1="5064" x2="892" y2= "914" />
    <path class="fil0 str0" d="M892 914c0,-62 1,-72 15,-110 16,-44 43,-80 74,-101"/>
    <line class="fil0 str0" x1="981" y1="703" x2="999" y2= "690" />
    <path class="fil0 str0" d="M999 690c53,-42 53,-42 774,-39"/>
    <line class="fil0 str0" x1="1773" y1="651" x2="2909" y2= "655" />
    <path class="fil0 str0" d="M2909 655c55,2 118,38 152,86 20,28 33,64 43,113"/>
    <line class="fil0 str0" x1="3104" y1="854" x2="3105" y2= "861" />
    <path class="fil0 str0" d="M3105 861c3,11 3,11 3,247"/>
    <line class="fil0 str0" x1="3108" y1="1108" x2="3107" y2= "3035" />
   </g>
  </g>
 </g>
</svg>
