<?xml version="1.0" encoding="UTF-8"?>
<!DOCTYPE svg PUBLIC "-//W3C//DTD SVG 1.1//EN" "http://www.w3.org/Graphics/SVG/1.1/DTD/svg11.dtd">
<!-- Creator: CorelDRAW X8 -->
<svg xmlns="http://www.w3.org/2000/svg" xml:space="preserve" width="40mm" height="60mm" version="1.1" style="shape-rendering:geometricPrecision; text-rendering:geometricPrecision; image-rendering:optimizeQuality; fill-rule:evenodd; clip-rule:evenodd"
viewBox="0 0 4000 6000"
 xmlns:xlink="http://www.w3.org/1999/xlink">
 <defs>
  <style type="text/css">
   <![CDATA[
    .str0 {stroke:black;stroke-width:7.62}
    .fil0 {fill:none}
   ]]>
  </style>
 </defs>
 <g id="图层_x0020_1">
  <metadata id="CorelCorpID_0Corel-Layer"/>
  <path class="fil0 str0" d="M2768 2100c-14,0 -25,2 -30,22l-5 22c-6,24 11,47 36,56l0 0c18,6 58,-8 64,-32l22 -101c6,-24 -14,-50 -41,-56 -26,-6 -52,8 -57,32l-19 79m112 -204l321 48c115,18 194,50 252,155 125,250 207,519 262,794 2,7 -198,19 -197,24l1 1c0,3 203,8 204,13 21,112 38,225 52,337 2,36 8,81 3,108l-211 -26c-1,-1 -3,-1 -3,0l0 2c0,1 0,1 1,1 0,1 1,1 2,2 29,9 211,38 211,44 -5,400 -132,664 -266,683 -94,7 -128,-141 -159,-251 -129,-398 -321,-818 -562,-1122 -90,-93 -157,-190 -121,-338l88 -388c16,-60 29,-87 122,-87zm-1700 0l-321 48c-115,18 -194,50 -252,155 -125,250 -207,519 -262,794 -2,7 198,19 197,24l-1 1c0,3 -203,8 -204,13 -21,112 -38,225 -52,337 -2,36 -8,81 -3,108l211 -26c1,-1 3,-1 3,0l0 2c0,1 0,1 -1,1 0,1 -1,1 -2,2 -29,9 -211,38 -211,44 5,400 132,664 266,683 94,7 128,-141 159,-251 129,-398 321,-818 562,-1122 90,-93 157,-190 121,-338l-88 -388c-16,-60 -29,-87 -122,-87zm367 1509c155,-1 296,-1 466,-2 169,-1 372,3 556,2 112,0 320,17 318,219l0 173c1,20 0,31 -9,44l-121 149c-5,8 -10,13 -13,18 -12,18 -15,19 -30,19l-1361 0c-13,0 -16,-1 -22,-9l-126 -182c-10,-15 -12,-33 -12,-53l-4 -140c-1,-230 188,-241 358,-238zm470 108c-3,-11 -7,-19 -26,-19l-15 0c-22,0 -40,18 -40,40l0 0c0,22 18,40 40,40l125 0c22,0 40,-18 40,-40l0 0c0,-22 -18,-40 -40,-40l-110 0m-442 -1620c22,8 45,12 69,12l845 0c21,0 41,-3 60,-10l0 29c-125,32 -272,163 -272,320 0,117 61,219 153,277l-740 0c92,-58 152,-160 152,-277 0,-160 -115,-294 -267,-322l0 -29zm324 29l328 0c9,0 10,5 7,12l-43 105c-2,3 -3,4 -6,4l-238 0c-6,0 -7,-1 -10,-6l-41 -94c-8,-13 -3,-21 3,-21zm167 506c-4,-16 -11,-29 -44,-29l-28 0c-14,0 -26,15 -26,32l0 0c0,18 12,32 26,32l136 0c15,0 27,-14 27,-32l0 0c0,-17 -12,-32 -27,-32l-108 0m1 -213l1 -92c48,0 90,20 105,47l0 50c0,4 1,5 4,6 18,5 34,7 43,19 1,2 2,3 2,5 -2,10 -6,22 -22,26 -59,14 -75,30 -89,31 -1,0 -1,0 -2,-1 -19,-17 -120,-10 -123,-48 -1,-17 38,-36 81,-43zm1391 208c-1,-11 -11,-22 -31,-23 -73,0 -131,59 -131,131 0,72 58,131 131,131 72,0 131,-59 131,-131 0,-72 -59,-131 -131,-131m-487 21c-1,-11 -11,-22 -31,-23 -73,0 -131,58 -131,131 0,72 58,131 131,131 72,0 131,-59 131,-131 0,-73 -59,-131 -131,-131m290 283c-1,-11 -11,-22 -31,-23 -72,0 -131,58 -131,131 0,72 59,131 131,131 73,0 131,-59 131,-131 0,-73 -58,-131 -131,-131m33 -499c0,-11 -10,-21 -31,-23 -72,0 -131,59 -131,131 0,73 59,131 131,131 73,0 131,-58 131,-131 0,-72 -58,-131 -131,-131m-1845 346l0 98c0,27 -23,57 -55,57l-98 0c-11,0 -17,-2 -26,-9l-67 -63c-6,-6 -7,-7 -7,-15l0 -38c0,-6 1,-8 7,-13l56 -52c12,-13 32,-17 43,-17l87 0c28,0 60,20 60,52zm-241 349l-109 0c-27,0 -51,-24 -51,-55l0 -102c0,-11 2,-17 9,-26l57 -69c6,-7 7,-7 15,-7l46 0c6,0 8,1 13,7l55 58c13,13 18,32 18,43l0 91c0,27 -21,60 -53,60zm-358 -250l0 -97c1,-28 24,-57 56,-57l91 1c11,0 18,2 26,9l69 61c6,6 6,7 6,16l0 40c0,5 -1,7 -7,12l-58 52c-13,12 -32,19 -43,19l-81 0c-27,-1 -60,-24 -59,-56zm250 -355l102 0c28,0 57,23 57,55l0 92c0,11 -1,18 -8,26l-59 72c-5,6 -7,6 -15,6l-50 0c-5,0 -7,0 -12,-6l-52 -60c-13,-13 -15,-32 -15,-44l0 -81c0,-28 20,-60 52,-60zm1549 1182c109,-3 314,-39 280,-190l-115 -519c-21,-79 -117,-121 -157,-121l-848 0c-112,0 -166,92 -177,143l-103 496c-22,152 130,188 261,191 277,6 581,7 859,0zm-1204 -1283c14,1 24,3 29,24l4 22c5,24 -12,46 -37,54l0 0c-19,6 -58,-10 -63,-34l-19 -102c-5,-24 16,-49 42,-54 27,-5 52,10 57,34l16 80"/>
 </g>
</svg>
