<?xml version="1.0" encoding="UTF-8"?>
<!DOCTYPE svg PUBLIC "-//W3C//DTD SVG 1.1//EN" "http://www.w3.org/Graphics/SVG/1.1/DTD/svg11.dtd">
<!-- Creator: CorelDRAW X8 -->
<svg xmlns="http://www.w3.org/2000/svg" xml:space="preserve" width="40mm" height="60mm" version="1.1" style="shape-rendering:geometricPrecision; text-rendering:geometricPrecision; image-rendering:optimizeQuality; fill-rule:evenodd; clip-rule:evenodd"
viewBox="0 0 4000 6000"
 xmlns:xlink="http://www.w3.org/1999/xlink">
 <defs>
  <style type="text/css">
   <![CDATA[
    .str0 {stroke:#332C2B;stroke-width:7.62}
    .fil0 {fill:none}
   ]]>
  </style>
 </defs>
 <g id="图层_x0020_1">
  <metadata id="CorelCorpID_0Corel-Layer"/>
  <path class="fil0 str0" d="M-12378 7555l0 -6964c0,-473 -387,-860 -860,-860l-14480 0c-473,0 -860,387 -860,860l0 5980c0,473 387,860 860,860l2629 0c43,0 79,-5 120,-18l417 -135c41,-13 77,-19 120,-19l4289 0c59,0 110,12 164,36l234 101c54,23 105,35 164,35l6343 0c473,0 860,-387 860,-860 0,-472 279,-947 453,-947"/>
  <path class="fil0 str0" d="M-27889 5449l0 0c0,-677 554,-1231 1231,-1231l2275 0c677,0 1232,554 1232,1231l0 0c0,678 -555,1232 -1232,1232l-2275 0c-677,0 -1231,-554 -1231,-1232z"/>
  <path class="fil0 str0" d="M-27705 5449l0 0c0,-577 472,-1050 1050,-1050l2270 0c577,0 1050,473 1050,1050l0 0c0,578 -473,1050 -1050,1050l-2270 0c-578,0 -1050,-472 -1050,-1050z"/>
  <path class="fil0 str0" d="M-25056 5267c-69,5 -134,66 -144,193 0,450 365,815 815,815 451,0 815,-365 815,-815 0,-451 -364,-815 -815,-815 -450,0 -815,364 -815,815"/>
  <path class="fil0 str0" d="M-25639 4719c-16,2 -31,16 -33,45 0,105 85,190 190,190 104,0 190,-85 190,-190 0,-105 -86,-190 -190,-190 -105,0 -190,85 -190,190"/>
  <path class="fil0 str0" d="M-25639 5413c-16,1 -31,15 -33,45 0,104 85,190 190,190 104,0 190,-86 190,-190 0,-105 -86,-190 -190,-190 -105,0 -190,85 -190,190"/>
  <path class="fil0 str0" d="M-25634 6111c-16,1 -31,16 -33,45 0,105 85,190 190,190 104,0 190,-85 190,-190 0,-105 -86,-190 -190,-190 -105,0 -190,85 -190,190"/>
  <path class="fil0 str0" d="M-27431 5241c-79,6 -152,75 -163,219 0,510 414,925 925,925 511,0 925,-415 925,-925 0,-511 -414,-925 -925,-925 -511,0 -925,414 -925,925"/>
  <g id="_2216528532656">
   <path class="fil0 str0" d="M896 5222l1965 0c134,0 243,-109 243,-242l0 -4087c0,-134 -109,-243 -243,-243l-1687 0c-134,0 -243,109 -243,243l0 742c0,12 1,22 5,34l38 117c4,12 5,22 5,34l0 1210c0,17 -3,32 -10,47l-28 66c-7,15 -10,29 -10,46l0 1791c0,133 109,242 243,242 133,0 267,79 267,128"/>
   <path class="fil0 str0" d="M1490 844l0 0c191,0 348,157 348,348l0 642c0,191 -157,347 -348,347l0 0c-191,0 -347,-156 -347,-347l0 -642c0,-191 156,-348 347,-348z"/>
   <path class="fil0 str0" d="M1490 896l0 0c163,0 297,134 297,297l0 640c0,163 -134,297 -297,297l0 0c-163,0 -296,-134 -296,-297l0 -640c0,-163 133,-297 296,-297z"/>
   <path class="fil0 str0" d="M1542 1644c-2,-20 -19,-38 -55,-41 -127,0 -230,103 -230,230 0,127 103,230 230,230 127,0 230,-103 230,-230 0,-127 -103,-230 -230,-230"/>
   <path class="fil0 str0" d="M1696 1479c0,-4 -4,-8 -12,-9 -30,0 -54,24 -54,54 0,29 24,53 54,53 29,0 53,-24 53,-53 0,-30 -24,-54 -53,-54"/>
   <path class="fil0 str0" d="M1501 1479c-1,-4 -5,-8 -13,-9 -30,0 -54,24 -54,54 0,29 24,53 54,53 30,0 54,-24 54,-53 0,-30 -24,-54 -54,-54"/>
   <path class="fil0 str0" d="M1304 1481c-1,-5 -5,-9 -13,-10 -30,0 -54,24 -54,54 0,30 24,54 54,54 29,0 53,-24 53,-54 0,-30 -24,-54 -53,-54"/>
   <path class="fil0 str0" d="M1549 974c-2,-23 -21,-43 -62,-46 -144,0 -261,116 -261,261 0,144 117,261 261,261 145,0 261,-117 261,-261 0,-145 -116,-261 -261,-261"/>
  </g>
 </g>
</svg>
