<?xml version="1.0" encoding="UTF-8"?>
<!DOCTYPE svg PUBLIC "-//W3C//DTD SVG 1.1//EN" "http://www.w3.org/Graphics/SVG/1.1/DTD/svg11.dtd">
<!-- Creator: CorelDRAW 2020 (64-Bit) -->
<svg xmlns="http://www.w3.org/2000/svg" xml:space="preserve" width="40mm" height="60mm" version="1.1" style="shape-rendering:geometricPrecision; text-rendering:geometricPrecision; image-rendering:optimizeQuality; fill-rule:evenodd; clip-rule:evenodd"
viewBox="0 0 4000 6000"
 xmlns:xlink="http://www.w3.org/1999/xlink"
 xmlns:xodm="http://www.corel.com/coreldraw/odm/2003">
 <defs>
  <style type="text/css">
   <![CDATA[
    .str0 {stroke:black;stroke-width:18;stroke-linejoin:bevel;stroke-miterlimit:2.61313}
    .fil0 {fill:none}
   ]]>
  </style>
 </defs>
 <g id="图层_x0020_1">
  <metadata id="CorelCorpID_0Corel-Layer"/>
  <path class="fil0 str0" d="M1183.49 716.84c0,0 385.71,0 385.71,0 137.78,0 250.49,112.72 250.49,250.5 0,0 0,482.16 0,482.16 0,137.78 -112.71,250.49 -250.49,250.49 0,0 -385.71,0 -385.71,0 -137.78,0 -250.5,-112.71 -250.5,-250.49 0,0 0,-482.16 0,-482.16 0,-137.78 112.72,-250.5 250.5,-250.5zm7.56 -66.84c0,0 1617.9,0 1617.9,0 178.23,0 324.04,145.82 324.04,324.05 0,0 0,4051.9 0,4051.9 0,178.23 -145.81,324.05 -324.04,324.05 0,0 -1617.9,0 -1617.9,0 -178.23,0 -324.04,-145.82 -324.04,-324.05 0,0 0,-4051.9 0,-4051.9 0,-178.23 145.81,-324.05 324.04,-324.05z"/>
 </g>
</svg>
