<?xml version="1.0" encoding="UTF-8"?>
<!DOCTYPE svg PUBLIC "-//W3C//DTD SVG 1.1//EN" "http://www.w3.org/Graphics/SVG/1.1/DTD/svg11.dtd">
<!-- Creator: CorelDRAW X8 -->
<svg xmlns="http://www.w3.org/2000/svg" xml:space="preserve" width="40mm" height="60mm" version="1.1" style="shape-rendering:geometricPrecision; text-rendering:geometricPrecision; image-rendering:optimizeQuality; fill-rule:evenodd; clip-rule:evenodd"
viewBox="0 0 4000 6000"
 xmlns:xlink="http://www.w3.org/1999/xlink">
 <defs>
  <style type="text/css">
   <![CDATA[
    .str0 {stroke:black;stroke-width:7.62}
    .fil0 {fill:none}
   ]]>
  </style>
 </defs>
 <g id="图层_x0020_1">
  <metadata id="CorelCorpID_0Corel-Layer"/>
  <path class="fil0 str0" d="M2005 1348c144,0 260,116 260,260 0,144 -116,260 -260,260 -144,0 -260,-116 -260,-260 0,-144 116,-260 260,-260zm0 -20c155,0 280,126 280,280 0,155 -125,280 -280,280 -154,0 -279,-125 -279,-280 0,-154 125,-280 279,-280zm6 -175c-4,-12 -8,-20 -28,-20l-16 0c-23,0 -42,18 -42,41l0 0c0,23 19,42 42,42l77 0c24,0 42,-18 42,-42l0 0c0,-23 -18,-41 -42,-41l-61 0m-266 77c-1,-11 -10,-21 -30,-22 -70,0 -127,57 -127,127 0,70 57,127 127,127 70,0 127,-57 127,-127 0,-70 -57,-127 -127,-127m667 28c-1,-11 -10,-21 -30,-22 -70,0 -127,57 -127,127 0,70 57,127 127,127 70,0 127,-57 127,-127 0,-70 -57,-127 -127,-127m27 603c-1,-11 -10,-21 -30,-22 -70,0 -127,57 -127,127 0,70 57,127 127,127 70,0 127,-57 127,-127 0,-70 -57,-127 -127,-127m-605 19c-1,-11 -10,-21 -30,-22 -70,0 -127,57 -127,127 0,70 57,127 127,127 70,0 127,-57 127,-127 0,-70 -57,-127 -127,-127m319 -765c332,0 601,269 601,601 0,332 -269,601 -601,601 -332,0 -601,-269 -601,-601 0,-332 269,-601 601,-601zm0 -57c364,0 658,295 658,658 0,364 -294,658 -658,658 -363,0 -658,-294 -658,-658 0,-363 295,-658 658,-658zm-864 4400c-5,-23 -40,-34 -60,-34 -107,0 -195,-88 -195,-195l0 -14 -60 0c-8,0 -15,-7 -15,-15l0 -2502c0,-8 7,-12 12,-12l17 0c18,0 33,-15 33,-33l0 -240c0,-18 -15,-32 -33,-32l-21 0c-6,0 -8,-3 -8,-10l0 -148c0,-4 2,-5 5,-5l27 0c18,0 33,-15 33,-33l0 -504c0,-18 -15,-33 -33,-33l-25 0c-5,0 -7,-3 -7,-8l0 -658c0,-8 7,-15 15,-15l60 0 0 -14c0,-107 88,-195 195,-195l1838 0c107,0 195,88 195,195l0 14 60 0c8,0 15,7 15,15l0 4218c0,8 -7,15 -15,15l-60 0 0 14c0,107 -88,195 -195,195l-1980 0"/>
 </g>
</svg>
