<?xml version="1.0" encoding="UTF-8"?>
<!DOCTYPE svg PUBLIC "-//W3C//DTD SVG 1.1//EN" "http://www.w3.org/Graphics/SVG/1.1/DTD/svg11.dtd">
<!-- Creator: CorelDRAW 2020 (64-Bit) -->
<svg xmlns="http://www.w3.org/2000/svg" xml:space="preserve" width="40mm" height="60mm" version="1.1" style="shape-rendering:geometricPrecision; text-rendering:geometricPrecision; image-rendering:optimizeQuality; fill-rule:evenodd; clip-rule:evenodd"
viewBox="0 0 4000 6000"
 xmlns:xlink="http://www.w3.org/1999/xlink"
 xmlns:xodm="http://www.corel.com/coreldraw/odm/2003">
 <defs>
  <style type="text/css">
   <![CDATA[
    .str0 {stroke:black;stroke-width:7.62;stroke-miterlimit:22.9256}
    .fil0 {fill:none}
   ]]>
  </style>
 </defs>
 <g id="图层_x0020_1">
  <metadata id="CorelCorpID_0Corel-Layer"/>
  <path class="fil0 str0" d="M1483.51 840.57c-0.91,-12.18 -11.64,-23.56 -33.9,-25.28 -79.2,0 -143.41,64.2 -143.41,143.4 0,79.2 64.21,143.41 143.41,143.41 79.2,0 143.4,-64.21 143.4,-143.41 0,-79.2 -64.2,-143.4 -143.4,-143.4m33.9 357.16c-0.91,-12.18 -11.64,-23.56 -33.9,-25.28 -79.2,0 -143.41,64.2 -143.41,143.4 0,79.2 64.21,143.4 143.41,143.4 79.2,0 143.4,-64.2 143.4,-143.4 0,-79.2 -64.2,-143.4 -143.4,-143.4m-2.93 -365.54c189.92,0 343.88,153.96 343.88,343.88 0,189.92 -153.96,343.88 -343.88,343.88 -189.92,0 -343.88,-153.96 -343.88,-343.88 0,-189.92 153.96,-343.88 343.88,-343.88zm-2.92 -48.29c216.58,0 392.16,175.58 392.16,392.17 0,216.58 -175.58,392.17 -392.16,392.17 -216.59,0 -392.17,-175.59 -392.17,-392.17 0,-216.59 175.58,-392.17 392.17,-392.17zm36.82 928.87c-0.91,-12.18 -11.64,-23.56 -33.9,-25.28 -79.2,0 -143.4,64.2 -143.4,143.4 0,79.2 64.2,143.41 143.4,143.41 79.2,0 143.41,-64.21 143.41,-143.41 0,-79.2 -64.21,-143.4 -143.41,-143.4m28.87 335.87c-0.69,-9.32 -8.9,-18.03 -25.94,-19.34 -60.61,0 -109.75,49.13 -109.75,109.75 0,60.61 49.14,109.74 109.75,109.74 60.61,0 109.75,-49.13 109.75,-109.74 0,-60.62 -49.14,-109.75 -109.75,-109.75m-5.85 -362.18c189.91,0 343.87,153.96 343.87,343.87 0,189.92 -153.96,343.88 -343.87,343.88 -189.92,0 -343.88,-153.96 -343.88,-343.88 0,-189.91 153.96,-343.87 343.88,-343.87zm0 -48.29c216.58,0 392.16,175.58 392.16,392.16 0,216.59 -175.58,392.17 -392.16,392.17 -216.59,0 -392.17,-175.58 -392.17,-392.17 0,-216.58 175.58,-392.16 392.17,-392.16zm-444.58 3760.33l1876.05 0c118.21,0 214.94,-96.73 214.94,-214.93l0 -4223.46c0,-118.21 -96.72,-214.93 -214.94,-214.93l-1750.46 0c-118.22,0 -214.94,96.72 -214.94,214.93l0 883.65c0,10.85 3,20.16 9.31,28.98l25.42 35.48c6.32,8.81 9.31,18.13 9.31,28.97l0 1064.75c0,10.65 -2.88,19.8 -8.99,28.53l-26.05 37.22c-6.11,8.72 -9,17.87 -9,28.53l0 2087.35c0,118.21 96.73,214.93 214.94,214.93l69.92 0c83.44,0 147.64,14.8 192.62,46.68"/>
 </g>
</svg>
