<?xml version="1.0" encoding="UTF-8"?>
<!DOCTYPE svg PUBLIC "-//W3C//DTD SVG 1.1//EN" "http://www.w3.org/Graphics/SVG/1.1/DTD/svg11.dtd">
<!-- Creator: CorelDRAW X8 -->
<svg xmlns="http://www.w3.org/2000/svg" xml:space="preserve" width="40mm" height="60mm" version="1.1" style="shape-rendering:geometricPrecision; text-rendering:geometricPrecision; image-rendering:optimizeQuality; fill-rule:evenodd; clip-rule:evenodd"
viewBox="0 0 4000 6000"
 xmlns:xlink="http://www.w3.org/1999/xlink">
 <defs>
  <style type="text/css">
   <![CDATA[
    .str0 {stroke:black;stroke-width:20}
    .fil0 {fill:none}
   ]]>
  </style>
 </defs>
 <g id="图层_x0020_1">
  <metadata id="CorelCorpID_0Corel-Layer"/>
  <path class="fil0 str0" d="M3251 930c-37,0 -74,0 -111,0 -8,0 -16,-5 -16,-12 0,-147 -120,-268 -268,-268l-216 0 -1280 0 -216 0c-148,0 -268,121 -268,268 0,4 -6,12 -14,12l-113 0c-82,0 -149,67 -149,149l0 3842c0,82 67,149 149,149l112 0c6,0 15,6 15,12 0,147 120,268 268,268l260 0 1192 0 260 0c148,0 268,-121 268,-268 0,-7 7,-12 13,-12l114 0c82,0 149,-67 149,-149l0 -3842c0,-82 -67,-149 -149,-149zm-64 557l0 0c19,0 34,15 34,34l0 587c0,19 -15,34 -34,34l0 0c-19,0 -34,-15 -34,-34l0 -587c0,-19 15,-34 34,-34zm0 804l0 0c19,0 34,15 34,34l0 259c0,19 -15,35 -34,35l0 0c-19,0 -34,-16 -34,-35l0 -259c0,-19 15,-34 34,-34zm-1984 -1537c33,0 60,27 60,60 0,33 -27,59 -60,59 -33,0 -59,-26 -59,-59 0,-33 26,-60 59,-60z"/>
 </g>
</svg>
