<?xml version="1.0" encoding="UTF-8"?>
<!DOCTYPE svg PUBLIC "-//W3C//DTD SVG 1.1//EN" "http://www.w3.org/Graphics/SVG/1.1/DTD/svg11.dtd">
<!-- Creator: CorelDRAW X8 -->
<svg xmlns="http://www.w3.org/2000/svg" xml:space="preserve" width="40mm" height="60mm" version="1.1" style="shape-rendering:geometricPrecision; text-rendering:geometricPrecision; image-rendering:optimizeQuality; fill-rule:evenodd; clip-rule:evenodd"
viewBox="0 0 4000 6000"
 xmlns:xlink="http://www.w3.org/1999/xlink">
 <defs>
  <style type="text/css">
   <![CDATA[
    .str0 {stroke:black;stroke-width:7.62}
    .fil0 {fill:none}
   ]]>
  </style>
 </defs>
 <g id="图层_x0020_1">
  <metadata id="CorelCorpID_0Corel-Layer"/>
  <path class="fil0 str0" d="M2779 5350c7,0 244,0 244,0 342,0 620,-278 620,-621 0,-343 -278,-621 -621,-621 -343,0 -621,278 -621,621 0,343 278,621 621,621 0,0 0,0 0,0m-2322 0c6,0 243,0 243,0 343,0 620,-278 620,-621 0,-343 -278,-621 -621,-621 -342,0 -620,278 -620,621 0,343 278,621 620,621 0,0 1,0 1,0m-208 -1729c7,0 243,0 243,0 343,0 621,-278 621,-621 0,-343 -278,-621 -621,-621 -343,0 -621,278 -621,621 0,343 278,621 621,621 0,0 0,0 0,0m1837 0c7,0 243,0 243,0 343,0 620,-278 620,-621 0,-343 -278,-621 -620,-621 -343,0 -621,278 -621,621 0,343 278,621 621,621 0,0 0,0 0,0m-243 -1729c7,0 243,0 243,0 343,-1 620,-278 620,-621 0,-343 -278,-621 -620,-621 -343,0 -621,278 -621,621 0,343 278,621 621,621 0,0 0,0 0,0m-2323 0c7,0 243,0 243,0 343,-1 621,-278 621,-621 0,-343 -278,-621 -621,-621 -343,0 -621,278 -621,621 0,343 278,621 621,621 0,0 0,0 0,0"/>
 </g>
</svg>
