<?xml version="1.0" encoding="UTF-8"?>
<!DOCTYPE svg PUBLIC "-//W3C//DTD SVG 1.1//EN" "http://www.w3.org/Graphics/SVG/1.1/DTD/svg11.dtd">
<!-- Creator: CorelDRAW X8 -->
<svg xmlns="http://www.w3.org/2000/svg" xml:space="preserve" width="40mm" height="60mm" version="1.1" style="shape-rendering:geometricPrecision; text-rendering:geometricPrecision; image-rendering:optimizeQuality; fill-rule:evenodd; clip-rule:evenodd"
viewBox="0 0 4000 6000"
 xmlns:xlink="http://www.w3.org/1999/xlink">
 <defs>
  <style type="text/css">
   <![CDATA[
    .str0 {stroke:#332C2B;stroke-width:20}
    .fil0 {fill:none}
   ]]>
  </style>
 </defs>
 <g id="图层_x0020_1">
  <metadata id="CorelCorpID_0Corel-Layer"/>
  <path class="fil0 str0" d="M911 5350l1981 0c132,0 240,-108 240,-240l0 -4220c0,-132 -108,-240 -240,-240l-1784 0c-132,0 -240,108 -240,240l0 4220c0,132 108,240 240,240l220 0m344 -4513c1,-18 -21,-33 -29,-34 -28,0 -51,23 -51,52 0,28 23,51 51,51 29,0 52,-23 52,-51 0,-29 -23,-52 -52,-52m1077 51c-5,-17 -14,-31 -56,-31l-36 0c-19,0 -34,16 -34,34l0 0c0,19 15,35 34,35l211 0c19,0 35,-16 35,-35l0 0c0,-18 -16,-34 -35,-34l-175 0m-610 6c1,-31 -36,-56 -49,-57 -47,0 -86,39 -86,86 0,47 39,86 86,86 47,0 86,-39 86,-86 0,-47 -39,-86 -86,-86"/>
 </g>
</svg>
