<?xml version="1.0" encoding="UTF-8"?>
<!DOCTYPE svg PUBLIC "-//W3C//DTD SVG 1.1//EN" "http://www.w3.org/Graphics/SVG/1.1/DTD/svg11.dtd">
<!-- Creator: CorelDRAW X8 -->
<svg xmlns="http://www.w3.org/2000/svg" xml:space="preserve" width="40mm" height="60mm" version="1.1" style="shape-rendering:geometricPrecision; text-rendering:geometricPrecision; image-rendering:optimizeQuality; fill-rule:evenodd; clip-rule:evenodd"
viewBox="0 0 4000 6000"
 xmlns:xlink="http://www.w3.org/1999/xlink">
 <defs>
  <style type="text/css">
   <![CDATA[
    .str0 {stroke:black;stroke-width:7.62}
    .fil0 {fill:none}
   ]]>
  </style>
 </defs>
 <g id="图层_x0020_1">
  <metadata id="CorelCorpID_0Corel-Layer"/>
  <path class="fil0 str0" d="M2044 1623c-1,-15 -14,-28 -40,-31 -95,0 -172,78 -172,173 0,95 77,172 172,172 95,0 172,-77 172,-172 0,-95 -77,-173 -172,-173m-679 -704c-1,-10 -10,-19 -28,-20 -64,0 -116,52 -116,116 0,65 52,117 116,117 65,0 117,-52 117,-117 0,-64 -52,-116 -117,-116m25 322c-1,-10 -10,-19 -28,-21 -64,0 -116,53 -116,117 0,65 52,117 116,117 65,0 117,-52 117,-117 0,-64 -52,-117 -117,-117m31 328c-1,-10 -10,-19 -28,-21 -64,0 -116,52 -116,117 0,64 52,116 116,116 65,0 117,-52 117,-116 0,-65 -52,-117 -117,-117m235 -329c-11,3 -19,7 -19,27l0 16c0,22 18,40 40,40l0 0c23,0 41,-18 41,-40l0 -120c0,-22 -18,-41 -41,-41l0 0c-22,0 -40,19 -40,41l0 104m-231 -343l229 0c75,0 136,61 136,136l0 644c0,75 -61,136 -136,136l-229 0c-74,0 -136,-61 -136,-136l0 -644c0,-75 62,-136 136,-136zm-5 -34l239 0c95,0 174,78 174,174l0 644c0,95 -79,173 -174,173l-239 0c-96,0 -174,-78 -174,-173l0 -644c0,-96 78,-174 174,-174zm45 4553c-25,-26 -83,-34 -122,-34 -142,0 -257,-115 -257,-257l0 -4152c0,-141 115,-257 257,-257l1600 0c142,0 257,116 257,257l0 4152c0,142 -115,257 -257,257l-1768 0"/>
 </g>
</svg>
