<?xml version="1.0" encoding="UTF-8"?>
<!DOCTYPE svg PUBLIC "-//W3C//DTD SVG 1.1//EN" "http://www.w3.org/Graphics/SVG/1.1/DTD/svg11.dtd">
<!-- Creator: CorelDRAW -->
<svg xmlns="http://www.w3.org/2000/svg" xml:space="preserve" width="40mm" height="60mm" style="shape-rendering:geometricPrecision; text-rendering:geometricPrecision; image-rendering:optimizeQuality; fill-rule:evenodd; clip-rule:evenodd"
viewBox="0 0 40 60"
 xmlns:xlink="http://www.w3.org/1999/xlink">
 <defs>
  <style type="text/css">
   <![CDATA[
    .str0 {stroke:#1F1A17;stroke-width:0.0762;stroke-linejoin:bevel}
    .fil0 {fill:none}
   ]]>
  </style>
 </defs>
 <g id="图层_x0020_1">
  <metadata id="CorelCorpID_0Corel-Layer"/>
  <path class="fil0 str0" d="M24.2938 6.7064c-0.1129,0.0001 -0.2217,-0.0425 -0.3047,-0.1191 -0.0609,-0.0561 -0.1406,-0.0873 -0.2234,-0.0873l-12.2728 0c-0.5644,0.0003 -1.1055,0.2249 -1.5044,0.6243 -0.3989,0.3993 -0.6227,0.9381 -0.6224,1.5025l0 42.7464c0.0004,0.5644 0.2249,1.1056 0.6243,1.5044 0.3994,0.3989 0.9381,0.6227 1.5025,0.6224l17.0142 0c0.5644,-0.0004 1.1055,-0.2249 1.5044,-0.6243 0.3988,-0.3994 0.6227,-0.9381 0.6224,-1.5025l0 -42.7464c-0.0004,-0.5644 -0.225,-1.1056 -0.6243,-1.5044 -0.3994,-0.3989 -0.9381,-0.6227 -1.5025,-0.6224l-3.0497 0c-0.0828,0 -0.1626,0.0312 -0.2234,0.0873 -0.083,0.0766 -0.1918,0.1191 -0.3047,0.1191l-0.6355 0z"/>
 </g>
</svg>
