<?xml version="1.0" encoding="UTF-8"?>
<!DOCTYPE svg PUBLIC "-//W3C//DTD SVG 1.1//EN" "http://www.w3.org/Graphics/SVG/1.1/DTD/svg11.dtd">
<!-- Creator: CorelDRAW X8 -->
<svg xmlns="http://www.w3.org/2000/svg" xml:space="preserve" width="40mm" height="60mm" version="1.1" style="shape-rendering:geometricPrecision; text-rendering:geometricPrecision; image-rendering:optimizeQuality; fill-rule:evenodd; clip-rule:evenodd"
viewBox="0 0 4000 6000"
 xmlns:xlink="http://www.w3.org/1999/xlink">
 <defs>
  <style type="text/css">
   <![CDATA[
    .str0 {stroke:black;stroke-width:7.62}
    .fil0 {fill:none}
   ]]>
  </style>
 </defs>
 <g id="图层_x0020_1">
  <metadata id="CorelCorpID_0Corel-Layer"/>
  <path class="fil0 str0" d="M2768 781c-1,-5 -5,-10 -14,-10 -32,0 -59,26 -59,58 0,33 27,59 59,59 32,0 59,-26 59,-59 0,-32 -27,-58 -59,-58m-815 54c-6,-21 -17,-37 -68,-37l-44 0c-23,0 -42,19 -42,42l0 0c0,23 19,42 42,42l357 0c23,0 42,-19 42,-42l0 0c0,-23 -19,-42 -42,-42l-313 0m206 -88c-2,-9 -6,-16 -22,-16l-13 0c-18,0 -33,15 -33,33l0 0c0,19 15,34 33,34l54 0c18,0 33,-15 33,-34l0 0c0,-18 -15,-33 -33,-33l-41 0m-787 127c-11,3 -19,7 -19,26l0 16c0,22 18,40 40,40l0 0c22,0 41,-18 41,-40l0 -87c0,-22 -19,-41 -41,-41l0 0c-22,0 -40,19 -40,41l0 71m-365 4437l0 -4414c0,-83 68,-140 151,-151 315,-42 635,-59 962,-59 328,0 642,18 968,59 83,10 151,68 151,151l0 4280c0,83 -69,140 -151,151 -321,44 -638,59 -966,59 -327,0 -640,-17 -964,-59 -83,-11 -151,-68 -151,-151l0 -81"/>
 </g>
</svg>
