<?xml version="1.0" encoding="UTF-8"?>
<!DOCTYPE svg PUBLIC "-//W3C//DTD SVG 1.1//EN" "http://www.w3.org/Graphics/SVG/1.1/DTD/svg11.dtd">
<!-- Creator: CorelDRAW X8 -->
<svg xmlns="http://www.w3.org/2000/svg" xml:space="preserve" width="40mm" height="60mm" version="1.1" style="shape-rendering:geometricPrecision; text-rendering:geometricPrecision; image-rendering:optimizeQuality; fill-rule:evenodd; clip-rule:evenodd"
viewBox="0 0 4000 6000"
 xmlns:xlink="http://www.w3.org/1999/xlink">
 <defs>
  <style type="text/css">
   <![CDATA[
    .str0 {stroke:black;stroke-width:7.62}
    .fil0 {fill:none}
   ]]>
  </style>
 </defs>
 <g id="图层_x0020_1">
  <metadata id="CorelCorpID_0Corel-Layer"/>
  <path class="fil0 str0" d="M1355 987c-1,-8 -8,-16 -24,-17 -55,0 -99,44 -99,99 0,55 44,99 99,99 55,0 99,-44 99,-99 0,-55 -44,-99 -99,-99m16 360c-1,-6 -6,-11 -16,-12 -36,0 -66,30 -66,66 0,37 30,67 66,67 37,0 66,-30 66,-67 0,-36 -29,-66 -66,-66m2 -381l0 0c73,0 133,59 133,132l0 314c0,73 -60,133 -133,133l0 0c-73,0 -132,-60 -132,-133l0 -314c0,-73 59,-132 132,-132zm-3 -37l0 0c90,0 165,74 165,165l0 319c0,91 -75,165 -165,165l0 0c-91,0 -165,-74 -165,-165l0 -319c0,-91 74,-165 165,-165zm-340 4450l1923 0c117,0 212,-95 212,-212l0 -4276c0,-117 -95,-212 -212,-212l-1826 0c-117,0 -212,95 -212,212l0 4276c0,117 95,212 212,212l39 0"/>
 </g>
</svg>
