<?xml version="1.0" encoding="UTF-8"?>
<!DOCTYPE svg PUBLIC "-//W3C//DTD SVG 1.1//EN" "http://www.w3.org/Graphics/SVG/1.1/DTD/svg11.dtd">
<!-- Creator: CorelDRAW 2020 (64-Bit) -->
<svg xmlns="http://www.w3.org/2000/svg" xml:space="preserve" width="40mm" height="60mm" version="1.1" style="shape-rendering:geometricPrecision; text-rendering:geometricPrecision; image-rendering:optimizeQuality; fill-rule:evenodd; clip-rule:evenodd"
viewBox="0 0 4000 6000"
 xmlns:xlink="http://www.w3.org/1999/xlink"
 xmlns:xodm="http://www.corel.com/coreldraw/odm/2003">
 <defs>
  <style type="text/css">
   <![CDATA[
    .str0 {stroke:black;stroke-width:7.62;stroke-miterlimit:22.9256}
    .fil0 {fill:none}
   ]]>
  </style>
 </defs>
 <g id="图层_x0020_1">
  <metadata id="CorelCorpID_0Corel-Layer"/>
  <path class="fil0 str0" d="M2920.2 852.54c15.28,-98.23 -67.32,-167.08 -108.3,-170.25 -145.79,0 -263.97,118.19 -263.97,263.97 0,145.79 118.18,263.97 263.97,263.97 145.79,0 263.97,-118.18 263.97,-263.97 0,-145.78 -118.18,-263.97 -263.97,-263.97m52.61 639.22c7.03,-45.13 -30.93,-76.76 -49.76,-78.22 -66.98,0 -121.28,54.3 -121.28,121.28 0,66.98 54.3,121.28 121.28,121.28 66.99,0 121.29,-54.3 121.29,-121.28 0,-66.98 -54.3,-121.28 -121.29,-121.28m108.31 444.55c15.27,-98.24 -67.32,-167.08 -108.31,-170.25 -145.78,0 -263.96,118.18 -263.96,263.97 0,145.79 118.18,263.97 263.96,263.97 145.79,0 263.97,-118.18 263.97,-263.97 0,-145.79 -118.18,-263.97 -263.97,-263.97m-306.94 555.67l493.69 0c76.39,0 138.9,-62.51 138.9,-138.91l0 -1235.87c0,-23.55 -19.25,-42.81 -42.8,-42.81l-460.37 0c-76.4,0 -138.91,62.51 -138.91,138.91l0 1235.87c0,23.55 19.26,42.81 42.81,42.81l15.13 0c22.55,0 34.19,3.42 38.31,7.89m-500.33 -1228.61c15.28,-98.23 -67.32,-167.08 -108.3,-170.25 -145.79,0 -263.97,118.19 -263.97,263.97 0,145.79 118.18,263.97 263.97,263.97 145.78,0 263.96,-118.18 263.96,-263.97 0,-145.78 -118.18,-263.97 -263.96,-263.97m52.61 639.22c7.02,-45.13 -30.93,-76.76 -49.76,-78.22 -66.98,0 -121.28,54.3 -121.28,121.28 0,66.98 54.3,121.28 121.28,121.28 66.98,0 121.28,-54.3 121.28,-121.28 0,-66.98 -54.3,-121.28 -121.28,-121.28m108.3 444.55c15.28,-98.24 -67.32,-167.08 -108.3,-170.25 -145.79,0 -263.97,118.18 -263.97,263.97 0,145.79 118.18,263.97 263.97,263.97 145.79,0 263.97,-118.18 263.97,-263.97 0,-145.79 -118.18,-263.97 -263.97,-263.97m-306.94 555.67l493.68 0c76.4,0 138.91,-62.51 138.91,-138.91l0 -1235.87c0,-23.55 -19.26,-42.81 -42.8,-42.81l-460.37 0c-76.4,0 -138.91,62.51 -138.91,138.91l0 1235.87c0,23.55 19.26,42.81 42.81,42.81l15.13 0c22.54,0 34.19,3.42 38.31,7.89m-500.33 -1228.61c15.27,-98.23 -67.32,-167.08 -108.31,-170.25 -145.78,0 -263.96,118.19 -263.96,263.97 0,145.79 118.18,263.97 263.96,263.97 145.79,0 263.97,-118.18 263.97,-263.97 0,-145.78 -118.18,-263.97 -263.97,-263.97m52.62 639.22c7.02,-45.13 -30.93,-76.76 -49.76,-78.22 -66.98,0 -121.28,54.3 -121.28,121.28 0,66.98 54.3,121.28 121.28,121.28 66.98,0 121.28,-54.3 121.28,-121.28 0,-66.98 -54.3,-121.28 -121.28,-121.28m108.3 444.55c15.28,-98.24 -67.32,-167.08 -108.3,-170.25 -145.79,0 -263.97,118.18 -263.97,263.97 0,145.79 118.18,263.97 263.97,263.97 145.78,0 263.96,-118.18 263.96,-263.97 0,-145.79 -118.18,-263.97 -263.96,-263.97m-306.94 555.67l493.68 0c76.4,0 138.91,-62.51 138.91,-138.91l0 -1235.87c0,-23.55 -19.26,-42.81 -42.81,-42.81l-460.37 0c-76.39,0 -138.9,62.51 -138.9,138.91l0 1235.87c0,23.55 19.26,42.81 42.8,42.81l15.14 0c22.54,0 34.19,3.42 38.3,7.89m1977.56 412.81c15.28,-98.24 -67.32,-167.08 -108.3,-170.25 -145.79,0 -263.97,118.18 -263.97,263.97 0,145.78 118.18,263.96 263.97,263.96 145.79,0 263.97,-118.18 263.97,-263.96 0,-145.79 -118.18,-263.97 -263.97,-263.97m52.61 639.22c7.03,-45.14 -30.93,-76.77 -49.76,-78.23 -66.98,0 -121.28,54.3 -121.28,121.29 0,66.98 54.3,121.28 121.28,121.28 66.99,0 121.29,-54.3 121.29,-121.28 0,-66.99 -54.3,-121.29 -121.29,-121.29m108.31 444.56c15.27,-98.24 -67.32,-167.08 -108.31,-170.25 -145.78,0 -263.96,118.18 -263.96,263.97 0,145.78 118.18,263.96 263.96,263.96 145.79,0 263.97,-118.18 263.97,-263.96 0,-145.79 -118.18,-263.97 -263.97,-263.97m-306.94 555.66l493.69 0c76.39,0 138.9,-62.51 138.9,-138.9l0 -1235.88c0,-23.54 -19.25,-42.81 -42.8,-42.81l-460.37 0c-76.4,0 -138.91,62.51 -138.91,138.91l0 1235.88c0,23.54 19.26,42.8 42.81,42.8l15.13 0c22.55,0 34.19,3.43 38.31,7.89m-500.33 -1228.6c15.28,-98.24 -67.32,-167.08 -108.3,-170.25 -145.79,0 -263.97,118.18 -263.97,263.97 0,145.78 118.18,263.96 263.97,263.96 145.78,0 263.96,-118.18 263.96,-263.96 0,-145.79 -118.18,-263.97 -263.96,-263.97m52.61 639.22c7.02,-45.14 -30.93,-76.77 -49.76,-78.23 -66.98,0 -121.28,54.3 -121.28,121.29 0,66.98 54.3,121.28 121.28,121.28 66.98,0 121.28,-54.3 121.28,-121.28 0,-66.99 -54.3,-121.29 -121.28,-121.29m108.3 444.56c15.28,-98.24 -67.32,-167.08 -108.3,-170.25 -145.79,0 -263.97,118.18 -263.97,263.97 0,145.78 118.18,263.96 263.97,263.96 145.79,0 263.97,-118.18 263.97,-263.96 0,-145.79 -118.18,-263.97 -263.97,-263.97m-306.94 555.66l493.68 0c76.4,0 138.91,-62.51 138.91,-138.9l0 -1235.88c0,-23.54 -19.26,-42.81 -42.8,-42.81l-460.37 0c-76.4,0 -138.91,62.51 -138.91,138.91l0 1235.88c0,23.54 19.26,42.8 42.81,42.8l15.13 0c22.54,0 34.19,3.43 38.31,7.89m-500.33 -1228.6c15.27,-98.24 -67.32,-167.08 -108.31,-170.25 -145.78,0 -263.96,118.18 -263.96,263.97 0,145.78 118.18,263.96 263.96,263.96 145.79,0 263.97,-118.18 263.97,-263.96 0,-145.79 -118.18,-263.97 -263.97,-263.97m52.62 639.22c7.02,-45.14 -30.93,-76.77 -49.76,-78.23 -66.98,0 -121.28,54.3 -121.28,121.29 0,66.98 54.3,121.28 121.28,121.28 66.98,0 121.28,-54.3 121.28,-121.28 0,-66.99 -54.3,-121.29 -121.28,-121.29m108.3 444.56c15.28,-98.24 -67.32,-167.08 -108.3,-170.25 -145.79,0 -263.97,118.18 -263.97,263.97 0,145.78 118.18,263.96 263.97,263.96 145.78,0 263.96,-118.18 263.96,-263.96 0,-145.79 -118.18,-263.97 -263.96,-263.97m-306.94 555.66l493.68 0c76.4,0 138.91,-62.51 138.91,-138.9l0 -1235.88c0,-23.54 -19.26,-42.81 -42.81,-42.81l-460.37 0c-76.39,0 -138.9,62.51 -138.9,138.91l0 1235.88c0,23.54 19.26,42.8 42.8,42.8l15.14 0c22.54,0 34.19,3.43 38.3,7.89m1977.56 404.51c15.28,-98.24 -67.32,-167.08 -108.3,-170.25 -145.79,0 -263.97,118.18 -263.97,263.97 0,145.78 118.18,263.96 263.97,263.96 145.79,0 263.97,-118.18 263.97,-263.96 0,-145.79 -118.18,-263.97 -263.97,-263.97m52.61 639.22c7.03,-45.14 -30.93,-76.77 -49.76,-78.23 -66.98,0 -121.28,54.31 -121.28,121.29 0,66.98 54.3,121.28 121.28,121.28 66.99,0 121.29,-54.3 121.29,-121.28 0,-66.98 -54.3,-121.29 -121.29,-121.29m108.31 444.56c15.27,-98.24 -67.32,-167.08 -108.31,-170.25 -145.78,0 -263.96,118.18 -263.96,263.97 0,145.78 118.18,263.96 263.96,263.96 145.79,0 263.97,-118.18 263.97,-263.96 0,-145.79 -118.18,-263.97 -263.97,-263.97m-306.94 555.67l493.69 0c76.39,0 138.9,-62.52 138.9,-138.91l0 -1235.88c0,-23.54 -19.25,-42.81 -42.8,-42.81l-460.37 0c-76.4,0 -138.91,62.51 -138.91,138.91l0 1235.88c0,23.54 19.26,42.81 42.81,42.81l15.13 0c22.55,0 34.19,3.42 38.31,7.88m-500.33 -1228.6c15.28,-98.24 -67.32,-167.08 -108.3,-170.25 -145.79,0 -263.97,118.18 -263.97,263.97 0,145.78 118.18,263.96 263.97,263.96 145.78,0 263.96,-118.18 263.96,-263.96 0,-145.79 -118.18,-263.97 -263.96,-263.97m52.61 639.22c7.02,-45.14 -30.93,-76.77 -49.76,-78.23 -66.98,0 -121.28,54.31 -121.28,121.29 0,66.98 54.3,121.28 121.28,121.28 66.98,0 121.28,-54.3 121.28,-121.28 0,-66.98 -54.3,-121.29 -121.28,-121.29m108.3 444.56c15.28,-98.24 -67.32,-167.08 -108.3,-170.25 -145.79,0 -263.97,118.18 -263.97,263.97 0,145.78 118.18,263.96 263.97,263.96 145.79,0 263.97,-118.18 263.97,-263.96 0,-145.79 -118.18,-263.97 -263.97,-263.97m-306.94 555.67l493.68 0c76.4,0 138.91,-62.52 138.91,-138.91l0 -1235.88c0,-23.54 -19.26,-42.81 -42.8,-42.81l-460.37 0c-76.4,0 -138.91,62.51 -138.91,138.91l0 1235.88c0,23.54 19.26,42.81 42.81,42.81l15.13 0c22.54,0 34.19,3.42 38.31,7.88m-500.33 -1228.6c15.27,-98.24 -67.32,-167.08 -108.31,-170.25 -145.78,0 -263.96,118.18 -263.96,263.97 0,145.78 118.18,263.96 263.96,263.96 145.79,0 263.97,-118.18 263.97,-263.96 0,-145.79 -118.18,-263.97 -263.97,-263.97m52.62 639.22c7.02,-45.14 -30.93,-76.77 -49.76,-78.23 -66.98,0 -121.28,54.31 -121.28,121.29 0,66.98 54.3,121.28 121.28,121.28 66.98,0 121.28,-54.3 121.28,-121.28 0,-66.98 -54.3,-121.29 -121.28,-121.29m108.3 444.56c15.28,-98.24 -67.32,-167.08 -108.3,-170.25 -145.79,0 -263.97,118.18 -263.97,263.97 0,145.78 118.18,263.96 263.97,263.96 145.78,0 263.96,-118.18 263.96,-263.96 0,-145.79 -118.18,-263.97 -263.96,-263.97m-306.94 555.67l493.68 0c76.4,0 138.91,-62.52 138.91,-138.91l0 -1235.88c0,-23.54 -19.26,-42.81 -42.81,-42.81l-460.37 0c-76.39,0 -138.9,62.51 -138.9,138.91l0 1235.88c0,23.54 19.26,42.81 42.8,42.81l15.14 0c22.54,0 34.19,3.42 38.3,7.88"/>
 </g>
</svg>
