<?xml version="1.0" encoding="UTF-8"?>
<!DOCTYPE svg PUBLIC "-//W3C//DTD SVG 1.1//EN" "http://www.w3.org/Graphics/SVG/1.1/DTD/svg11.dtd">
<!-- Creator: CorelDRAW X8 -->
<svg xmlns="http://www.w3.org/2000/svg" xml:space="preserve" width="40mm" height="60mm" version="1.1" style="shape-rendering:geometricPrecision; text-rendering:geometricPrecision; image-rendering:optimizeQuality; fill-rule:evenodd; clip-rule:evenodd"
viewBox="0 0 4000 6000"
 xmlns:xlink="http://www.w3.org/1999/xlink">
 <defs>
  <style type="text/css">
   <![CDATA[
    .str0 {stroke:#332C2B;stroke-width:7.62}
    .fil0 {fill:none}
   ]]>
  </style>
 </defs>
 <g id="图层_x0020_1">
  <metadata id="CorelCorpID_0Corel-Layer"/>
  <path class="fil0 str0" d="M1002 5350l1810 0c136,0 247,-111 247,-247l0 -4206c0,-136 -111,-247 -247,-247l-1624 0c-136,0 -247,111 -247,247l0 4206c0,136 111,247 247,247l152 0m-118 -4594l395 0c91,0 165,74 165,165l0 395c0,91 -74,165 -165,165l-395 0c-91,0 -165,-74 -165,-165l0 -395c0,-91 74,-165 165,-165zm0 39l395 0c69,0 126,57 126,126l0 395c0,69 -57,126 -126,126l-395 0c-69,0 -126,-57 -126,-126l0 -395c0,-69 57,-126 126,-126zm64 99c2,-39 -44,-70 -61,-72 -60,0 -109,49 -109,109 0,60 49,109 109,109 60,0 108,-49 108,-109 0,-60 -48,-109 -108,-109m446 75c1,-40 -45,-71 -62,-72 -60,0 -109,49 -109,109 0,60 49,108 109,108 60,0 109,-48 109,-108 0,-60 -49,-109 -109,-109m-325 445c2,-39 -45,-70 -62,-72 -60,0 -108,49 -108,109 0,60 48,109 108,109 61,0 109,-49 109,-109 0,-60 -48,-109 -109,-109m451 76c2,-39 -45,-70 -62,-72 -60,0 -108,49 -108,109 0,60 48,109 108,109 60,0 109,-49 109,-109 0,-60 -49,-109 -109,-109m480 456c2,-61 -69,-108 -95,-110 -92,0 -167,74 -167,166 0,92 75,167 167,167 92,0 167,-75 167,-167 0,-92 -75,-166 -167,-166"/>
 </g>
</svg>
