<?xml version="1.0" encoding="UTF-8"?>
<!DOCTYPE svg PUBLIC "-//W3C//DTD SVG 1.1//EN" "http://www.w3.org/Graphics/SVG/1.1/DTD/svg11.dtd">
<!-- Creator: CorelDRAW 2020 (64-Bit) -->
<svg xmlns="http://www.w3.org/2000/svg" xml:space="preserve" width="40mm" height="60mm" version="1.1" style="shape-rendering:geometricPrecision; text-rendering:geometricPrecision; image-rendering:optimizeQuality; fill-rule:evenodd; clip-rule:evenodd"
viewBox="0 0 4000 6000"
 xmlns:xlink="http://www.w3.org/1999/xlink"
 xmlns:xodm="http://www.corel.com/coreldraw/odm/2003">
 <defs>
  <style type="text/css">
   <![CDATA[
    .str0 {stroke:black;stroke-width:7.62;stroke-miterlimit:22.9256}
    .fil0 {fill:none}
   ]]>
  </style>
 </defs>
 <g id="图层_x0020_1">
  <metadata id="CorelCorpID_0Corel-Layer"/>
  <path class="fil0 str0" d="M1034.23 5329.29l1798.23 0c117.48,0 213.6,-96.12 213.6,-213.6l0 -4252.09c0,-117.47 -96.12,-213.6 -213.6,-213.6l-444.26 0c-2.43,0 -4.53,0.87 -6.25,2.59l-3.66 3.66c-1.72,1.72 -3.82,2.59 -6.26,2.59l-270.37 0c-19.48,0 -35.36,15.88 -35.36,35.36l0 38.5c0,36.47 -29.83,66.3 -66.3,66.3l0 0c-36.47,0 -66.3,-29.83 -66.3,-66.3l0 -38.5c0,-19.48 -15.88,-35.36 -35.36,-35.36l-270.37 0c-2.44,0 -4.54,-0.87 -6.26,-2.59l-3.66 -3.66c-1.72,-1.72 -3.82,-2.59 -6.25,-2.59l-444.26 0c-117.48,0 -213.6,96.12 -213.6,213.6l0 4252.09c0,117.48 96.12,213.6 213.6,213.6l43.08 0c47.32,0 74.16,9.11 82.35,20.71"/>
 </g>
</svg>
