<?xml version="1.0" encoding="UTF-8"?>
<!DOCTYPE svg PUBLIC "-//W3C//DTD SVG 1.1//EN" "http://www.w3.org/Graphics/SVG/1.1/DTD/svg11.dtd">
<!-- Creator: CorelDRAW -->
<svg xmlns="http://www.w3.org/2000/svg" xml:space="preserve" width="40mm" height="60mm" style="shape-rendering:geometricPrecision; text-rendering:geometricPrecision; image-rendering:optimizeQuality; fill-rule:evenodd; clip-rule:evenodd"
viewBox="0 0 40 60"
 xmlns:xlink="http://www.w3.org/1999/xlink">
 <defs>
  <style type="text/css">
   <![CDATA[
    .str0 {stroke:#1F1A17;stroke-width:0.194}
    .fil0 {fill:none;fill-rule:nonzero}
   ]]>
  </style>
 </defs>
 <g id="图层_x0020_1">
  <metadata id="CorelCorpID_0Corel-Layer"/>
  <path class="fil0 str0" d="M20.0535 9.9418c0.3014,-0.003 0.602,-0.0061 0.9026,-0.0081 0.3726,-0.002 0.4405,0.0091 0.5432,0.0959 0.0977,0.0806 0.1598,0.24 0.1598,0.4095 0,0.2109 -0.0944,0.3833 -0.2393,0.4378 -0.1234,0.0454 -0.3287,0.0535 -1.4218,0.0555 -0.8852,0.001 -1.1163,-0.003 -1.2918,-0.0222 -0.0977,-0.0101 -0.1615,-0.0262 -0.2062,-0.0504 -0.0365,-0.0202 -0.0596,-0.0424 -0.101,-0.0979 -0.0605,-0.0797 -0.0961,-0.2048 -0.0961,-0.3349 0,-0.3097 0.1482,-0.4721 0.4447,-0.4872"/>
  <line class="fil0 str0" x1="18.7476" y1="9.9398" x2="20.1268" y2= "9.9411" />
  <line class="fil0 str0" x1="20.051" y1="7.5269" x2="27.6814" y2= "7.5047" />
  <path class="fil0 str0" d="M27.6814 7.5047c1.5505,-0.005 1.9792,0.0071 2.2051,0.0606 0.4116,0.0958 0.6467,0.2713 0.917,0.6799 0.1614,0.2431 0.1776,0.3117 0.1776,0.7787"/>
  <line class="fil0 str0" x1="30.9811" y1="9.0239" x2="31.0325" y2= "50.6733" />
  <path class="fil0 str0" d="M31.0325 50.6733c-0.0434,0.9725 -0.3874,1.5354 -1.0552,1.7301 -0.2128,0.0615 -0.2632,0.0655 -0.8605,0.0665"/>
  <line class="fil0 str0" x1="29.1168" y1="52.4699" x2="10.7067" y2= "52.4962" />
  <path class="fil0 str0" d="M10.7067 52.4962c-0.7707,-0.0151 -1.1409,-0.1675 -1.4375,-0.5901 -0.2421,-0.3471 -0.3017,-0.6618 -0.3017,-1.5929"/>
  <line class="fil0 str0" x1="8.9675" y1="50.3132" x2="8.9938" y2= "8.7627" />
  <path class="fil0 str0" d="M8.9938 8.7627c0.0091,-0.4035 0.4227,-0.9261 0.8776,-1.1097"/>
  <line class="fil0 str0" x1="9.8714" y1="7.653" x2="9.9219" y2= "7.6197" />
  <path class="fil0 str0" d="M9.9219 7.6197c0.0585,-0.0676 0.0585,-0.0676 6.8778,-0.0847"/>
  <line class="fil0 str0" x1="16.7997" y1="7.535" x2="20.2305" y2= "7.5269" />
  <g id="_210937176">
  </g>
  <g id="_210938496">
  </g>
  <g id="_257621784">
  </g>
 </g>
</svg>
