<?xml version="1.0" encoding="UTF-8"?>
<!DOCTYPE svg PUBLIC "-//W3C//DTD SVG 1.1//EN" "http://www.w3.org/Graphics/SVG/1.1/DTD/svg11.dtd">
<!-- Creator: CorelDRAW X8 -->
<svg xmlns="http://www.w3.org/2000/svg" xml:space="preserve" width="40mm" height="60mm" version="1.1" style="shape-rendering:geometricPrecision; text-rendering:geometricPrecision; image-rendering:optimizeQuality; fill-rule:evenodd; clip-rule:evenodd"
viewBox="0 0 4000 6000"
 xmlns:xlink="http://www.w3.org/1999/xlink">
 <defs>
  <style type="text/css">
   <![CDATA[
    .str0 {stroke:black;stroke-width:7.62}
    .fil0 {fill:none}
   ]]>
  </style>
 </defs>
 <g id="图层_x0020_1">
  <metadata id="CorelCorpID_0Corel-Layer"/>
  <path class="fil0 str0" d="M1188 818c-1,-5 -5,-10 -13,-10 -31,0 -56,25 -56,56 0,31 25,56 56,56 30,0 55,-25 55,-56 0,-31 -25,-56 -55,-56m-144 4542l1854 0c71,0 129,-58 129,-129l0 -4442c0,-71 -58,-129 -129,-129l-761 0c-2,0 -4,1 -5,2l-7 7c-2,2 -3,3 -6,3l-218 0c-3,0 -3,-1 -5,-3l-4 -7c-2,-1 -3,-2 -5,-2l-759 0c-71,0 -129,58 -129,129l0 4442c0,71 58,129 129,129l56 0"/>
 </g>
</svg>
