<?xml version="1.0" encoding="UTF-8"?>
<!DOCTYPE svg PUBLIC "-//W3C//DTD SVG 1.1//EN" "http://www.w3.org/Graphics/SVG/1.1/DTD/svg11.dtd">
<!-- Creator: CorelDRAW X8 -->
<svg xmlns="http://www.w3.org/2000/svg" xml:space="preserve" width="40mm" height="60mm" version="1.1" style="shape-rendering:geometricPrecision; text-rendering:geometricPrecision; image-rendering:optimizeQuality; fill-rule:evenodd; clip-rule:evenodd"
viewBox="0 0 4000 6000"
 xmlns:xlink="http://www.w3.org/1999/xlink">
 <defs>
  <style type="text/css">
   <![CDATA[
    .str0 {stroke:black;stroke-width:9.98}
    .fil0 {fill:none;fill-rule:nonzero}
   ]]>
  </style>
 </defs>
 <g id="图层_x0020_1">
  <metadata id="CorelCorpID_0Corel-Layer"/>
  <path class="fil0 str0" d="M3189 668c9,0 15,7 15,15 0,8 -6,15 -15,15l-2001 0c-8,0 -15,-7 -15,-15 0,-8 7,-15 15,-15l2001 0zm-2398 298c0,55 -45,99 -100,99 -54,0 -99,-44 -99,-99 0,-55 45,-99 99,-99 55,0 100,44 100,99zm2616 0c0,55 -45,99 -99,99 -55,0 -100,-44 -100,-99 0,-55 45,-99 100,-99 54,0 99,44 99,99zm-2616 4068c0,55 -45,99 -100,99 -54,0 -99,-44 -99,-99 0,-55 45,-99 99,-99 55,0 100,44 100,99zm2616 0c0,55 -45,99 -99,99 -55,0 -100,-44 -100,-99 0,-55 45,-99 100,-99 54,0 99,44 99,99zm-216 268c9,0 15,6 15,14 0,9 -6,15 -15,15l-2003 0c-8,0 -14,-6 -14,-15 0,-8 6,-14 14,-14l2003 0zm-2643 -4651l-38 1c-68,0 -132,65 -132,133l-1 352 87 0c10,0 18,8 18,18l0 3686c0,10 -8,18 -18,18l-89 0 2 343c0,34 15,70 42,97 27,27 67,46 101,46l107 1 1372 4 1309 -3 175 -2c68,0 134,-67 134,-134l3 -60 2 -148 1 -830 1 -1172 1 -1430 -1 -434 0 -146 -4 -149 -3 -47c0,-68 -72,-141 -139,-141l-138 -2 -1306 -2 -1486 1z"/>
 </g>
</svg>
