<?xml version="1.0" encoding="UTF-8"?>
<!DOCTYPE svg PUBLIC "-//W3C//DTD SVG 1.1//EN" "http://www.w3.org/Graphics/SVG/1.1/DTD/svg11.dtd">
<!-- Creator: CorelDRAW 2020 (64-Bit) -->
<svg xmlns="http://www.w3.org/2000/svg" xml:space="preserve" width="40mm" height="60mm" version="1.1" style="shape-rendering:geometricPrecision; text-rendering:geometricPrecision; image-rendering:optimizeQuality; fill-rule:evenodd; clip-rule:evenodd"
viewBox="0 0 4000 6000"
 xmlns:xlink="http://www.w3.org/1999/xlink"
 xmlns:xodm="http://www.corel.com/coreldraw/odm/2003">
 <defs>
  <style type="text/css">
   <![CDATA[
    .str2 {stroke:#332C2B;stroke-width:20;stroke-miterlimit:22.9256}
    .str1 {stroke:#E62129;stroke-width:20;stroke-miterlimit:22.9256}
    .str0 {stroke:#E62129;stroke-width:20;stroke-miterlimit:22.9256}
    .fil0 {fill:none}
   ]]>
  </style>
   <clipPath id="id0">
    <rect x="-50997.12" y="-4500.54" width="14228.82" height="17012.36"/>
   </clipPath>
 </defs>
 <g id="图层_x0020_1">
  <metadata id="CorelCorpID_0Corel-Layer"/>
  <g style="clip-path:url(#id0)">
   <image x="-50997.12" y="-4500.54" width="14228.82" height="17012.36" xlink:href="Z16 -11i（背膜）_Images\Z16 -11i（背膜）_ImgID1.png"/>
  </g>
  <rect class="fil0 str0" x="-50767.92" y="-4288.21" width="7630" height="16620"/>
  <rect class="fil0 str0" x="-50606.71" y="-4131.14" width="7307.58" height="16305.86" rx="900" ry="937.48"/>
  <rect class="fil0 str1" x="-50074.3" y="-3822.21" width="1164.16" height="3067.19" rx="800" ry="832.29"/>
  <rect class="fil0 str1" x="-49795.1" y="-645.23" width="591.35" height="411.43" rx="371.7" ry="400"/>
  <circle class="fil0 str1" cx="-46965.27" cy="-368.73" r="658.81"/>
  <path class="fil0 str2" d="M-6094.51 5662.7l0 -6027.5c0,-494.99 -405.01,-900 -900,-900l-14505.85 0c-495,0 -900.01,405 -900.01,900l0 5507.58c0,495 405.01,900 900.01,900l14505.85 0c495,0 900,-405 900,-900 0,-495 57.58,-624.61 121.08,-747.65"/>
  <path class="fil0 str2" d="M-21633.08 5322.36c-179.92,-7.94 -458.36,-73.91 -458.36,-394.06 0,-320.15 261.91,-582.09 582.07,-582.09l1903.05 0c320.14,0 582.07,261.93 582.07,582.07l0 0.02c0,320.14 -261.93,582.07 -582.07,582.07l-1903.05 0c-320.14,0 -582.07,-261.93 -582.07,-582.07"/>
  <path class="fil0 str2" d="M-18811.93 4759.76c-101.2,31.75 -102.53,265.69 -102.53,265.69l0 -179.93c0,-113.15 92.56,-205.71 205.72,-205.71l0 0c113.15,0 205.71,92.56 205.71,205.71l0 179.93c0,113.15 -92.56,205.71 -205.71,205.71l0 0c-113.16,0 -205.72,-92.56 -205.72,-205.71"/>
  <path class="fil0 str2" d="M-18788.22 2841.69c-137.58,18.52 -508.55,-76.5 -508.55,-440.35 0,-363.85 294.96,-658.81 658.81,-658.81 363.85,0 658.81,294.96 658.81,658.81 0,363.85 -294.96,658.81 -658.81,658.81 -363.85,0 -658.81,-294.96 -658.81,-658.81"/>
  <g id="_2370622172288">
   <path class="fil0 str2" d="M1056.74 5321.03l1724.56 0c141.63,0 257.5,-115.88 257.5,-257.51l0 -4150.34c0,-141.63 -115.87,-257.51 -257.5,-257.51l-1575.8 0c-141.63,0 -257.5,115.88 -257.5,257.51l0 4150.34c0,141.63 115.87,257.51 257.5,257.51 141.63,0 178.71,16.47 213.91,34.64"/>
   <path class="fil0 str2" d="M1154.12 875.2c2.27,-51.47 21.14,-131.14 112.74,-131.14 91.6,0 166.55,74.94 166.55,166.54l0 544.49c0,91.6 -74.94,166.54 -166.54,166.54l-0.01 0c-91.59,0 -166.53,-74.94 -166.53,-166.54l0 -544.49c0,-91.6 74.94,-166.54 166.53,-166.54"/>
   <path class="fil0 str2" d="M1315.09 1682.38c-9.09,-28.96 -76.02,-29.34 -76.02,-29.34l51.48 0c32.37,0 58.86,26.49 58.86,58.86l0 0c0,32.38 -26.49,58.86 -58.86,58.86l-51.48 0c-32.38,0 -58.86,-26.48 -58.86,-58.86l0 0c0,-32.37 26.48,-58.86 58.86,-58.86"/>
   <path class="fil0 str2" d="M1863.88 1689.16c-5.3,-39.36 21.88,-145.5 125.99,-145.5 104.1,0 188.49,84.39 188.49,188.49 0,104.11 -84.39,188.5 -188.49,188.5 -104.11,0 -188.5,-84.39 -188.5,-188.5 0,-104.1 84.39,-188.49 188.5,-188.49"/>
  </g>
 </g>
</svg>
