<?xml version="1.0" encoding="UTF-8"?>
<!DOCTYPE svg PUBLIC "-//W3C//DTD SVG 1.1//EN" "http://www.w3.org/Graphics/SVG/1.1/DTD/svg11.dtd">
<!-- Creator: CorelDRAW X8 -->
<svg xmlns="http://www.w3.org/2000/svg" xml:space="preserve" width="40mm" height="60mm" version="1.1" style="shape-rendering:geometricPrecision; text-rendering:geometricPrecision; image-rendering:optimizeQuality; fill-rule:evenodd; clip-rule:evenodd"
viewBox="0 0 4000 6000"
 xmlns:xlink="http://www.w3.org/1999/xlink">
 <defs>
  <style type="text/css">
   <![CDATA[
    .str0 {stroke:black;stroke-width:7.62}
    .fil0 {fill:none}
   ]]>
  </style>
 </defs>
 <g id="图层_x0020_1">
  <metadata id="CorelCorpID_0Corel-Layer"/>
  <path class="fil0 str0" d="M1046 5350l1745 0c154,0 281,-126 281,-281l0 -4138c0,-155 -127,-281 -281,-281l-1582 0c-154,0 -281,126 -281,281l0 1163c0,14 1,19 6,31l31 74c6,13 8,25 8,41l0 418c0,25 -1,31 -9,53l-28 80c-6,18 -8,26 -8,44l0 2234c0,155 127,281 281,281l228 0m258 -4428c0,-11 -10,-22 -31,-23 -73,0 -133,59 -133,133 0,73 60,133 133,133 74,0 133,-60 133,-133 0,-74 -59,-133 -133,-133m-379 -70l449 0c73,0 133,60 133,133l0 849c0,73 -60,133 -133,133l-449 0c-73,0 -133,-60 -133,-133l0 -849c0,-73 60,-133 133,-133zm12 54l429 0c49,0 89,40 89,89l0 493c0,49 -40,89 -89,89l-429 0c-48,0 -88,-40 -88,-89l0 -493c0,-49 40,-89 88,-89zm86 39c-1,-11 -11,-22 -32,-23 -73,0 -133,59 -133,133 0,73 60,133 133,133 74,0 133,-60 133,-133 0,-74 -59,-133 -133,-133m347 393c0,-12 -10,-22 -31,-24 -73,0 -133,60 -133,133 0,74 60,133 133,133 73,0 133,-59 133,-133 0,-73 -60,-133 -133,-133m-284 24c-1,-12 -11,-22 -32,-24 -73,0 -133,60 -133,133 0,74 60,133 133,133 74,0 133,-59 133,-133 0,-73 -59,-133 -133,-133m-160 254c0,12 16,53 74,53l482 0c53,0 73,-47 73,-53l0 272c0,58 -47,106 -105,106l-418 0c-59,0 -106,-48 -106,-106l0 -272zm134 196c-3,-14 -8,-24 -31,-24l-20 0c-26,0 -48,22 -48,49l0 0c0,27 22,49 48,49l154 0c27,0 49,-22 49,-49l0 0c0,-27 -22,-49 -49,-49l-134 0"/>
 </g>
</svg>
