<?xml version="1.0" encoding="UTF-8"?>
<!DOCTYPE svg PUBLIC "-//W3C//DTD SVG 1.1//EN" "http://www.w3.org/Graphics/SVG/1.1/DTD/svg11.dtd">
<!-- Creator: CorelDRAW -->
<svg xmlns="http://www.w3.org/2000/svg" xml:space="preserve" width="40mm" height="60mm" style="shape-rendering:geometricPrecision; text-rendering:geometricPrecision; image-rendering:optimizeQuality; fill-rule:evenodd; clip-rule:evenodd"
viewBox="0 0 40 60"
 xmlns:xlink="http://www.w3.org/1999/xlink">
 <defs>
  <style type="text/css">
   <![CDATA[
    .str1 {stroke:#1F1A17;stroke-width:0.0762}
    .str0 {stroke:#1F1A17;stroke-width:0.194}
    .fil0 {fill:none;fill-rule:nonzero}
   ]]>
  </style>
 </defs>
 <g id="图层_x0020_1">
  <metadata id="CorelCorpID_0Corel-Layer"/>
  <line class="fil0 str0" x1="-244.51" y1="-112.648" x2="-244.436" y2= "-112.648" />
  <line class="fil0 str0" x1="-244.852" y1="-112.599" x2="-244.796" y2= "-112.599" />
  <path class="fil0 str1" d="M31.7894 10.8806c-0.067,-1.7466 -0.9458,-3.0915 -2.4333,-3.7236 -0.6768,-0.2876 -2.1481,-0.4463 -6.0999,-0.657 0,0 -0.7995,1.097 -0.7995,1.097l-5.1998 0c0,0 -0.6751,-0.942 -0.7995,-1.097 -5.1652,0.3161 -5.8086,0.4289 -6.7655,1.1863 -0.9978,0.7883 -1.4813,1.8345 -1.4813,3.1992m23.5168 38.5302l0.0037 -0.0285 0.0149 -0.4227 0.0434 -38.0839m-23.5552 38.1979c-0.005,0.1091 -0.0087,0.1946 -0.0087,0.2591 0.0012,0.7053 0.4958,1.744 1.1367,2.3812 0.471,0.4685 1.0523,0.8057 1.6907,0.9792 0.5578,0.1512 3.1435,0.4971 4.6459,0.6198 1.4813,0.1215 2.908,0.1822 4.3148,0.1822 2.4791,0 4.9421,-0.1872 7.5699,-0.5752 1.3921,-0.2057 1.6338,-0.2727 2.23,-0.6147 1.0449,-0.6012 1.7527,-1.671 1.9139,-2.8944m-23.5168 -38.5302l0.0236 38.193m16.0689 -41.3941c0.2144,0 0.3883,0.1739 0.3883,0.3883 0,0.2144 -0.1739,0.3882 -0.3883,0.3882 -0.2144,0 -0.3882,-0.1738 -0.3882,-0.3882 0,-0.2144 0.1738,-0.3883 0.3882,-0.3883z"/>
 </g>
</svg>
