<?xml version="1.0" encoding="UTF-8"?>
<!DOCTYPE svg PUBLIC "-//W3C//DTD SVG 1.1//EN" "http://www.w3.org/Graphics/SVG/1.1/DTD/svg11.dtd">
<!-- Creator: CorelDRAW X8 -->
<svg xmlns="http://www.w3.org/2000/svg" xml:space="preserve" width="40mm" height="60mm" version="1.1" style="shape-rendering:geometricPrecision; text-rendering:geometricPrecision; image-rendering:optimizeQuality; fill-rule:evenodd; clip-rule:evenodd"
viewBox="0 0 4000 6000"
 xmlns:xlink="http://www.w3.org/1999/xlink">
 <defs>
  <style type="text/css">
   <![CDATA[
    .str0 {stroke:#332C2B;stroke-width:10}
    .fil0 {fill:none}
   ]]>
  </style>
 </defs>
 <g id="图层_x0020_1">
  <metadata id="CorelCorpID_0Corel-Layer"/>
  <path class="fil0 str0" d="M1237 789c1,-12 -13,-21 -18,-22 -19,0 -33,15 -33,33 0,18 14,33 33,33 18,0 32,-15 32,-33 0,-18 -14,-33 -32,-33m509 12c1,-21 -24,-37 -33,-38 -32,0 -57,26 -57,57 0,32 25,58 57,58 32,0 58,-26 58,-58 0,-31 -26,-57 -58,-57m271 52c-5,-19 -15,-34 -62,-34l-39 0c-21,0 -38,17 -38,38l0 0c0,21 17,38 38,38l282 0c21,0 38,-17 38,-38l0 0c0,-21 -17,-38 -38,-38l-243 0m390 16c-3,-13 -8,-23 -30,-23l-18 0c-25,0 -46,21 -46,46l0 0c0,26 21,46 46,46l86 0c25,0 46,-20 46,-46l0 0c0,-25 -21,-46 -46,-46l-68 0m270 26c1,-24 -28,-43 -38,-44 -36,0 -65,30 -65,66 0,36 29,66 65,66 37,0 66,-30 66,-66 0,-36 -29,-66 -66,-66m-1498 4616l1883 0c118,0 220,-98 220,-216l0 -4270c0,-118 -97,-214 -214,-214l-1774 0c-117,0 -214,96 -214,214l0 4270c0,118 91,216 208,216l180 0"/>
 </g>
</svg>
