<?xml version="1.0" encoding="UTF-8"?>
<!DOCTYPE svg PUBLIC "-//W3C//DTD SVG 1.1//EN" "http://www.w3.org/Graphics/SVG/1.1/DTD/svg11.dtd">
<!-- Creator: CorelDRAW X8 -->
<svg xmlns="http://www.w3.org/2000/svg" xml:space="preserve" width="40mm" height="60mm" version="1.1" style="shape-rendering:geometricPrecision; text-rendering:geometricPrecision; image-rendering:optimizeQuality; fill-rule:evenodd; clip-rule:evenodd"
viewBox="0 0 4000 6000"
 xmlns:xlink="http://www.w3.org/1999/xlink">
 <defs>
  <style type="text/css">
   <![CDATA[
    .str0 {stroke:black;stroke-width:7.62}
    .fil0 {fill:none}
   ]]>
  </style>
 </defs>
 <g id="图层_x0020_1">
  <metadata id="CorelCorpID_0Corel-Layer"/>
  <path class="fil0 str0" d="M1941 715c-4,-14 -11,-25 -45,-25l-30 0c-15,0 -28,12 -28,28l0 0c0,15 13,28 28,28l278 0c15,0 28,-13 28,-28l0 0c0,-16 -13,-28 -28,-28l-248 0m-567 -4c0,-2 -2,-4 -7,-5 -14,0 -26,12 -26,27 0,15 12,26 26,26 15,0 27,-11 27,-26 0,-15 -12,-27 -27,-27m235 405c-1,-9 -9,-18 -26,-19 -60,0 -109,49 -109,109 0,60 49,109 109,109 60,0 109,-49 109,-109 0,-60 -49,-109 -109,-109m23 356c-1,-9 -9,-18 -26,-19 -60,0 -109,48 -109,109 0,60 49,109 109,109 60,0 109,-49 109,-109 0,-61 -49,-109 -109,-109m26 433c-1,-9 -9,-18 -26,-19 -60,0 -109,49 -109,109 0,60 49,109 109,109 60,0 109,-49 109,-109 0,-60 -49,-109 -109,-109m26 353c-1,-9 -9,-18 -26,-19 -60,0 -109,49 -109,109 0,60 49,109 109,109 60,0 109,-49 109,-109 0,-60 -49,-109 -109,-109m-33 -1176l71 0c161,0 293,132 293,293l0 893c0,161 -132,292 -293,292l-71 0c-161,0 -292,-131 -292,-292l0 -893c0,-161 131,-293 292,-293zm-16 -38l105 0c171,0 311,140 311,311l0 929c0,171 -140,311 -311,311l-105 0c-171,0 -311,-140 -311,-311l0 -929c0,-171 140,-311 311,-311zm-183 4312c-5,-16 -13,-29 -52,-29l-34 0c-17,0 -32,14 -32,32l0 0c0,17 15,32 32,32l350 0c17,0 32,-15 32,-32l0 0c0,-18 -15,-32 -32,-32l-316 0m711 11c-4,-13 -9,-23 -32,-23l-18 0c-27,0 -48,22 -48,48l0 0c0,26 21,48 48,48l154 0c26,0 48,-22 48,-48l0 0c0,-26 -22,-48 -48,-48l-136 0m281 33c0,-2 -2,-4 -6,-4 -15,0 -26,12 -26,26 0,15 11,27 26,27 15,0 27,-12 27,-27 0,-14 -12,-26 -27,-26m164 2c-4,-13 -8,-22 -29,-22l-17 0c-24,0 -44,20 -44,44l0 0c0,24 20,44 44,44l322 0c24,0 44,-20 44,-44l0 0c0,-24 -20,-44 -44,-44l-305 0m-1530 28c136,2 165,105 283,104l1805 0c134,0 143,-94 306,-98 8,-1 13,-6 13,-14l0 -22c0,-7 -5,-13 -12,-13l-466 -23 -17 0 0 -23 70 0c119,0 217,-97 217,-217l0 -57 61 0c7,0 13,-6 13,-14l0 -3739c0,-8 -6,-14 -13,-14l-61 0 0 -57c0,-119 -98,-216 -217,-216l-70 0 0 -23 17 0 466 -23c7,0 12,-6 12,-13l0 -22c0,-8 -5,-13 -13,-14 -163,-4 -172,-98 -306,-98l-1805 0c-118,-1 -147,102 -283,104 -7,0 -13,6 -13,13l0 22c0,7 5,13 12,13l433 18 0 23 -36 0c-119,0 -217,97 -217,216l0 57 -45 0c-7,0 -13,6 -13,14l0 778c0,7 6,13 13,13l12 0c19,0 34,15 34,34l0 919c0,19 -15,34 -34,34l-12 0c-7,0 -13,6 -13,13l0 1948c0,8 6,14 13,14l45 0 0 57c0,120 98,217 217,217l36 0 0 23 -433 18c-7,0 -12,6 -12,13l0 22c0,7 6,13 13,13z"/>
 </g>
</svg>
