<?xml version="1.0" encoding="UTF-8"?>
<!DOCTYPE svg PUBLIC "-//W3C//DTD SVG 1.1//EN" "http://www.w3.org/Graphics/SVG/1.1/DTD/svg11.dtd">
<!-- Creator: CorelDRAW -->
<svg xmlns="http://www.w3.org/2000/svg" xml:space="preserve" width="40mm" height="60mm" style="shape-rendering:geometricPrecision; text-rendering:geometricPrecision; image-rendering:optimizeQuality; fill-rule:evenodd; clip-rule:evenodd"
viewBox="0 0 40 60"
 xmlns:xlink="http://www.w3.org/1999/xlink">
 <defs>
  <style type="text/css">
   <![CDATA[
    .str0 {stroke:#1F1A17;stroke-width:0.0762}
    .fil0 {fill:none}
   ]]>
  </style>
 </defs>
 <g id="图层_x0020_1">
  <metadata id="CorelCorpID_0Corel-Layer"/>
  <g id="_46357880">
   <path id="_46357616" class="fil0 str0" d="M11.2248 6.5l17.5505 0c1.3776,0 2.5047,1.1233 2.5047,2.4962l0 42.0076c0,1.3729 -1.1271,2.4962 -2.5047,2.4962l-17.5505 0c-1.3777,0 -2.5048,-1.1233 -2.5048,-2.4962l0 -42.0076c0,-1.3729 1.1271,-2.4962 2.5048,-2.4962z"/>
   <path id="_46357568" class="fil0 str0" d="M14.356 7.4312c0.3461,0 0.6267,0.2806 0.6267,0.6267 0,0.346 -0.2806,0.6267 -0.6267,0.6267 -0.346,0 -0.6266,-0.2807 -0.6266,-0.6267 0,-0.3461 0.2806,-0.6267 0.6266,-0.6267z"/>
   <path id="_46357160" class="fil0 str0" d="M17.923 7.697l3.7846 0c0.1974,0 0.3588,0.1614 0.3588,0.3588l0 0c0,0.1974 -0.1614,0.3588 -0.3588,0.3588l-3.7846 0c-0.1973,0 -0.3588,-0.1614 -0.3588,-0.3588l0 0c0,-0.1974 0.1615,-0.3588 0.3588,-0.3588z"/>
   <path id="_46357256" class="fil0 str0" d="M23.7959 7.6167l0.6093 0c0.2467,0 0.4484,0.2017 0.4484,0.4484l0 0c0,0.2467 -0.2017,0.4484 -0.4484,0.4484l-0.6093 0c-0.2467,0 -0.4484,-0.2017 -0.4484,-0.4484l0 0c0,-0.2467 0.2017,-0.4484 0.4484,-0.4484z"/>
   <path id="_46357304" class="fil0 str0" d="M18.8973 49.9016l2.2053 0c0.7865,0 1.43,0.6435 1.43,1.4301l0 0c0,0.7866 -0.6435,1.4301 -1.43,1.4301l-2.2053 0c-0.7865,0 -1.43,-0.6435 -1.43,-1.4301l0 0c0,-0.7866 0.6435,-1.4301 1.43,-1.4301z"/>
   <path id="_46357664" class="fil0 str0" d="M14.356 7.4312c0.3461,0 0.6267,0.2806 0.6267,0.6267 0,0.346 -0.2806,0.6267 -0.6267,0.6267 -0.346,0 -0.6267,-0.2807 -0.6267,-0.6267 0,-0.3461 0.2807,-0.6267 0.6267,-0.6267z"/>
  </g>
 </g>
</svg>
