<?xml version="1.0" encoding="UTF-8"?>
<!DOCTYPE svg PUBLIC "-//W3C//DTD SVG 1.1//EN" "http://www.w3.org/Graphics/SVG/1.1/DTD/svg11.dtd">
<!-- Creator: CorelDRAW X8 -->
<svg xmlns="http://www.w3.org/2000/svg" xml:space="preserve" width="40mm" height="60mm" version="1.1" style="shape-rendering:geometricPrecision; text-rendering:geometricPrecision; image-rendering:optimizeQuality; fill-rule:evenodd; clip-rule:evenodd"
viewBox="0 0 4000 6000"
 xmlns:xlink="http://www.w3.org/1999/xlink">
 <defs>
  <style type="text/css">
   <![CDATA[
    .str0 {stroke:black;stroke-width:20}
    .fil0 {fill:none}
   ]]>
  </style>
 </defs>
 <g id="图层_x0020_1">
  <metadata id="CorelCorpID_0Corel-Layer"/>
  <path class="fil0 str0" d="M3196 2390c-26,7 -46,21 -46,85l0 55c0,29 23,53 52,53l0 0c29,0 52,-24 52,-53l0 -293c0,-29 -23,-53 -52,-53l0 0c-29,0 -52,24 -52,53l0 238m-2347 141c-19,5 -33,15 -33,61l0 39c0,20 16,37 37,37l0 0c21,0 37,-17 37,-37l0 -668c0,-20 -16,-37 -37,-37l0 0c-21,0 -37,17 -37,37l0 629m405 -1910c38,0 68,30 68,67 0,37 -30,68 -68,68 -37,0 -67,-31 -67,-68 0,-37 30,-67 67,-67zm-187 4539l1860 0c120,0 220,-90 237,-205 2,-10 5,-12 14,-12l101 0c83,0 150,-68 150,-150l0 -3952c0,-66 -54,-120 -120,-120l-108 0c-31,0 -35,-1 -39,-25 -22,-109 -120,-192 -235,-192l-203 0 -325 0c-5,0 -5,0 -6,4 -3,6 -9,11 -16,11l-596 0c-7,0 -13,-4 -16,-11 -2,-4 -1,-4 -4,-4l-327 0 -203 0c-119,0 -219,89 -237,203 -2,12 -5,14 -20,14l-125 0c-66,0 -120,54 -120,120l0 3952c0,82 67,150 150,150l96 0c16,0 16,-1 19,13 18,115 118,204 237,204l85 0c53,3 89,17 106,44"/>
 </g>
</svg>
