<?xml version="1.0" encoding="UTF-8"?>
<!DOCTYPE svg PUBLIC "-//W3C//DTD SVG 1.1//EN" "http://www.w3.org/Graphics/SVG/1.1/DTD/svg11.dtd">
<!-- Creator: CorelDRAW 2020 (64-Bit) -->
<svg xmlns="http://www.w3.org/2000/svg" xml:space="preserve" width="40mm" height="60mm" version="1.1" style="shape-rendering:geometricPrecision; text-rendering:geometricPrecision; image-rendering:optimizeQuality; fill-rule:evenodd; clip-rule:evenodd"
viewBox="0 0 4000 6000"
 xmlns:xlink="http://www.w3.org/1999/xlink"
 xmlns:xodm="http://www.corel.com/coreldraw/odm/2003">
 <defs>
  <style type="text/css">
   <![CDATA[
    .str0 {stroke:#332C2B;stroke-width:20;stroke-miterlimit:22.9256}
    .fil0 {fill:none}
   ]]>
  </style>
 </defs>
 <g id="图层_x0020_1">
  <metadata id="CorelCorpID_0Corel-Layer"/>
  <g id="_2750227264032">
   <path class="fil0 str0" d="M884.78 910.47l0 4187.84c0,126.72 112.56,239.76 241.26,238.5 17.45,-0.17 22.06,2.65 37.82,2.85 13.2,0.16 27.75,-0.83 40.78,-0.13 13.46,0.73 20.69,2.83 37.91,2.75 12.1,-0.07 28.69,-0.93 40.28,0.37 24.23,2.72 49.42,0.85 76.31,2.3l197.89 5.4c17.42,-0.1 23.41,2.41 37.83,2.84 51.8,1.55 110.39,-3.09 157.69,2.22l479.24 0.26c50.26,-4.16 106.33,-0.87 160.15,-2.48l197.82 -5.48c17.42,0.1 23.41,-2.4 37.83,-2.83l119.39 -2.59c17.42,0.1 23.41,-2.4 37.82,-2.83 13.39,-0.4 27.44,0.58 40.84,0.18 64.43,-1.93 111.11,-10.2 162.43,-40.86 31.23,-18.66 60.38,-50.83 79.59,-83.04 20.46,-34.28 34.36,-75.08 34.36,-128.28l0 -4163.44c0,-103.75 -59.13,-180.23 -126.52,-217.72 -38.51,-21.43 -79.92,-31.87 -139.17,-31.59 -17.98,0.08 -23.37,-2.85 -40.51,-2.87l-126.34 -3.76c-26.03,-3.94 -55.98,0.97 -82.07,-1.96 -25.34,-2.85 -55.1,-2.38 -84.48,-2.25 -17.98,0.07 -23.38,-2.85 -40.51,-2.87l-86.89 0.15c-17.97,0.08 -23.37,-2.84 -40.51,-2.86 -117.03,-0.16 -225.77,-2.62 -341.62,-2.62 -114.26,0 -220.85,3.34 -336.15,2.67 -17.42,-0.1 -23.41,2.41 -37.82,2.84l-86.85 -0.11c-18.13,-0.09 -25.8,2.38 -40.55,2.82 -25.76,0.77 -59.18,-2.45 -83.72,0.31l-325.98 15.55c-109,22.1 -197.55,122.11 -197.55,230.72z"/>
   <path class="fil0 str0" d="M1554.29 1368.55c0,12.96 1.67,33.99 3.42,48.08 9.12,73.17 33.05,136.62 73.54,197.52 27.59,41.5 66.68,80.76 107.36,109.48 147.74,104.31 352.18,111.24 501.45,5.42 101.69,-72.09 189.74,-204.78 189.74,-336.1 0,-85.69 -4.46,-139.46 -42.46,-215.04 -12.99,-25.83 -22.76,-44.66 -39.24,-66.48 -78.42,-103.87 -197.12,-181.99 -357.41,-181.99 -76.38,0 -157.79,23.43 -213.64,57.41 -137.57,83.69 -222.76,218.74 -222.76,381.7z"/>
   <path class="fil0 str0" d="M1746.74 2466.34c0,75.29 32.8,134.54 71.15,172.79 11.8,11.77 18.43,18.28 31.86,27.78 153.58,108.69 348.95,11.57 382.02,-141.1 4.36,-20.13 4.94,-31.26 6.58,-55.48 5.69,-83.66 -44.54,-157.4 -98.17,-199.56 -93.19,-73.25 -232.73,-63.86 -322.29,25.47 -23.77,23.71 -32.75,39.18 -48.6,70.67 -12.03,23.92 -22.55,64.74 -22.55,99.43z"/>
   <path class="fil0 str0" d="M1944.61 780.36c0,24.69 23.11,46.08 48.79,46.08 41.86,0 63.68,-51.83 33.37,-82.16 -30.15,-30.17 -82.16,-8.56 -82.16,36.08z"/>
  </g>
 </g>
</svg>
