<?xml version="1.0" encoding="UTF-8"?>
<!DOCTYPE svg PUBLIC "-//W3C//DTD SVG 1.1//EN" "http://www.w3.org/Graphics/SVG/1.1/DTD/svg11.dtd">
<!-- Creator: CorelDRAW 2020 (64-Bit) -->
<svg xmlns="http://www.w3.org/2000/svg" xml:space="preserve" width="40mm" height="60mm" version="1.1" style="shape-rendering:geometricPrecision; text-rendering:geometricPrecision; image-rendering:optimizeQuality; fill-rule:evenodd; clip-rule:evenodd"
viewBox="0 0 4000 6000"
 xmlns:xlink="http://www.w3.org/1999/xlink"
 xmlns:xodm="http://www.corel.com/coreldraw/odm/2003">
 <defs>
  <style type="text/css">
   <![CDATA[
    .str0 {stroke:#332C2B;stroke-width:7.62;stroke-miterlimit:22.9256}
    .fil0 {fill:none}
   ]]>
  </style>
 </defs>
 <g id="图层_x0020_1">
  <metadata id="CorelCorpID_0Corel-Layer"/>
  <path class="fil0 str0" d="M935.85 800.3c4.76,-30.62 -20.98,-52.07 -33.75,-53.06 -45.43,0 -82.26,36.83 -82.26,82.26 0,45.43 36.83,82.26 82.26,82.26 45.43,0 82.26,-36.83 82.26,-82.26 0,-45.43 -36.83,-82.26 -82.26,-82.26m-408.51 4584.62l2959.93 0c22.6,0 41.13,-18.52 41.13,-41.13l0 -4279.22c0,-170.58 -140.57,-291.69 -310.16,-310.15 -183.73,-20 -366.03,-35.14 -547.69,-45.57 -28.19,-1.62 -53.18,13.86 -64.28,39.84l-13.8 32.29c-19.57,45.78 -48.92,90.48 -98.72,90.48l-920.44 0c-55.05,0 -90.65,-41 -112.68,-91.44l-13.46 -30.79c-11.24,-25.73 -36.06,-40.97 -64.07,-39.36 -184.07,10.54 -357.5,25.48 -547.03,44.55 -169.71,17.07 -310.17,139.56 -310.17,310.15l0 4279.22c0,22.63 18.53,41.13 41.14,41.13l30.36 0c53.86,0 89.34,11 116.65,23.81"/>
 </g>
</svg>
