<?xml version="1.0" encoding="UTF-8"?>
<!DOCTYPE svg PUBLIC "-//W3C//DTD SVG 1.1//EN" "http://www.w3.org/Graphics/SVG/1.1/DTD/svg11.dtd">
<!-- Creator: CorelDRAW X8 -->
<svg xmlns="http://www.w3.org/2000/svg" xml:space="preserve" width="40mm" height="60mm" version="1.1" style="shape-rendering:geometricPrecision; text-rendering:geometricPrecision; image-rendering:optimizeQuality; fill-rule:evenodd; clip-rule:evenodd"
viewBox="0 0 4000 6000"
 xmlns:xlink="http://www.w3.org/1999/xlink">
 <defs>
  <style type="text/css">
   <![CDATA[
    .str0 {stroke:black;stroke-width:7.62}
    .fil0 {fill:none}
   ]]>
  </style>
 </defs>
 <g id="图层_x0020_1">
  <metadata id="CorelCorpID_0Corel-Layer"/>
  <path class="fil0 str0" d="M1013 5261l1820 0c109,0 198,-89 198,-198l0 -4216c0,-108 -89,-197 -198,-197l-714 0c-24,0 -44,19 -44,43l0 31c0,40 -32,72 -72,72l0 0c-40,0 -72,-32 -72,-72l0 -31c0,-24 -20,-43 -44,-43l-720 0c-109,0 -198,89 -198,197l0 4216c0,109 89,198 198,198l121 0c177,0 310,36 341,89"/>
 </g>
</svg>
