<?xml version="1.0" encoding="UTF-8"?>
<!DOCTYPE svg PUBLIC "-//W3C//DTD SVG 1.1//EN" "http://www.w3.org/Graphics/SVG/1.1/DTD/svg11.dtd">
<!-- Creator: CorelDRAW X8 -->
<svg xmlns="http://www.w3.org/2000/svg" xml:space="preserve" width="40mm" height="60mm" version="1.1" style="shape-rendering:geometricPrecision; text-rendering:geometricPrecision; image-rendering:optimizeQuality; fill-rule:evenodd; clip-rule:evenodd"
viewBox="0 0 4000 6000"
 xmlns:xlink="http://www.w3.org/1999/xlink">
 <defs>
  <style type="text/css">
   <![CDATA[
    .str0 {stroke:black;stroke-width:7.62}
    .fil0 {fill:none}
   ]]>
  </style>
 </defs>
 <g id="图层_x0020_1">
  <metadata id="CorelCorpID_0Corel-Layer"/>
  <path class="fil0 str0" d="M949 5350l1935 0c129,0 235,-106 235,-236l0 -4228c0,-130 -106,-236 -235,-236l-1768 0c-129,0 -235,106 -235,236l0 4228c0,130 106,236 235,236l97 0m1117 -4593c0,-5 -4,-9 -12,-9 -28,0 -51,23 -51,51 0,28 23,51 51,51 28,0 51,-23 51,-51 0,-28 -23,-51 -51,-51m-373 44c-5,-17 -14,-31 -56,-31l-35 0c-19,0 -35,16 -35,35l0 0c0,18 16,34 35,34l301 0c18,0 34,-16 34,-34l0 0c0,-19 -16,-35 -34,-35l-266 0m-464 14c-3,-12 -7,-21 -27,-21l-17 0c-24,0 -43,20 -43,43l0 0c0,24 19,43 43,43l94 0c24,0 43,-19 43,-43l0 0c0,-23 -19,-43 -43,-43l-77 0m272 3c-1,-5 -5,-9 -13,-9 -28,0 -51,23 -51,51 0,28 23,51 51,51 29,0 52,-23 52,-51 0,-28 -23,-51 -52,-51"/>
 </g>
</svg>
