<?xml version="1.0" encoding="UTF-8"?>
<!DOCTYPE svg PUBLIC "-//W3C//DTD SVG 1.1//EN" "http://www.w3.org/Graphics/SVG/1.1/DTD/svg11.dtd">
<!-- Creator: CorelDRAW X8 -->
<svg xmlns="http://www.w3.org/2000/svg" xml:space="preserve" width="40mm" height="60mm" version="1.1" style="shape-rendering:geometricPrecision; text-rendering:geometricPrecision; image-rendering:optimizeQuality; fill-rule:evenodd; clip-rule:evenodd"
viewBox="0 0 4000 6000"
 xmlns:xlink="http://www.w3.org/1999/xlink">
 <defs>
  <style type="text/css">
   <![CDATA[
    .str0 {stroke:black;stroke-width:7.62}
    .fil0 {fill:none}
   ]]>
  </style>
 </defs>
 <g id="图层_x0020_1">
  <metadata id="CorelCorpID_0Corel-Layer"/>
  <path class="fil0 str0" d="M921 5350l1994 0c110,0 200,-90 200,-200l0 -4300c0,-110 -90,-200 -200,-200l-1830 0c-110,0 -200,90 -200,200l0 4300c0,110 90,200 200,200l288 0m1023 -4598c0,-5 -5,-10 -14,-11 -34,0 -61,27 -61,61 0,33 27,60 61,60 33,0 60,-27 60,-60 0,-34 -27,-61 -60,-61m-394 60c-5,-18 -15,-32 -59,-32l-38 0c-20,0 -36,16 -36,36l0 0c0,20 16,36 36,36l240 0c20,0 36,-16 36,-36l0 0c0,-20 -16,-36 -36,-36l-202 0m-227 13c-3,-11 -7,-19 -26,-19l-16 0c-22,0 -40,17 -40,39l0 0c0,22 18,40 40,40l80 0c21,0 39,-18 39,-40l0 0c0,-22 -18,-39 -39,-39l-64 0"/>
 </g>
</svg>
