<?xml version="1.0" encoding="UTF-8"?>
<!DOCTYPE svg PUBLIC "-//W3C//DTD SVG 1.1//EN" "http://www.w3.org/Graphics/SVG/1.1/DTD/svg11.dtd">
<!-- Creator: CorelDRAW X8 -->
<svg xmlns="http://www.w3.org/2000/svg" xml:space="preserve" width="40mm" height="60mm" version="1.1" style="shape-rendering:geometricPrecision; text-rendering:geometricPrecision; image-rendering:optimizeQuality; fill-rule:evenodd; clip-rule:evenodd"
viewBox="0 0 4000 6000"
 xmlns:xlink="http://www.w3.org/1999/xlink">
 <defs>
  <style type="text/css">
   <![CDATA[
    .str0 {stroke:#332C2B;stroke-width:10}
    .fil0 {fill:none}
   ]]>
  </style>
 </defs>
 <g id="图层_x0020_1">
  <metadata id="CorelCorpID_0Corel-Layer"/>
  <path class="fil0 str0" d="M962 5296l1928 0c107,0 195,-88 195,-194l0 -4258c0,-107 -88,-194 -195,-194l-771 0c-29,0 -53,24 -53,53l0 94c0,36 -30,66 -66,66l0 0c-36,0 -66,-30 -66,-66l0 -94c0,-29 -24,-53 -53,-53l-771 0c-107,0 -194,87 -194,194l0 4258c0,106 87,194 194,194l111 0c60,-1 102,17 126,54"/>
 </g>
</svg>
