<?xml version="1.0" encoding="UTF-8"?>
<!DOCTYPE svg PUBLIC "-//W3C//DTD SVG 1.1//EN" "http://www.w3.org/Graphics/SVG/1.1/DTD/svg11.dtd">
<!-- Creator: CorelDRAW X8 -->
<svg xmlns="http://www.w3.org/2000/svg" xml:space="preserve" width="40mm" height="60mm" version="1.1" style="shape-rendering:geometricPrecision; text-rendering:geometricPrecision; image-rendering:optimizeQuality; fill-rule:evenodd; clip-rule:evenodd"
viewBox="0 0 4000 6000"
 xmlns:xlink="http://www.w3.org/1999/xlink">
 <defs>
  <style type="text/css">
   <![CDATA[
    .str0 {stroke:black;stroke-width:7.62}
    .fil0 {fill:none}
   ]]>
  </style>
 </defs>
 <g id="图层_x0020_1">
  <metadata id="CorelCorpID_0Corel-Layer"/>
  <path class="fil0 str0" d="M2023 781c3,-16 -11,-28 -18,-28 -25,0 -45,19 -45,44 0,25 20,45 45,45 25,0 44,-20 44,-45 0,-25 -19,-44 -44,-44m-972 4577l1829 0c101,0 183,-82 183,-183l0 -4314c0,-101 -82,-183 -183,-183l-495 0c-2,0 -4,1 -5,2l-5 8c-2,1 -3,2 -5,2l-704 0c-2,0 -4,-1 -5,-2l-6 -8c-1,-1 -2,-2 -4,-2l-495 0c-101,0 -183,82 -183,183l0 4314c0,101 82,183 183,183l66 0c94,0 145,8 153,20"/>
 </g>
</svg>
