<?xml version="1.0" encoding="UTF-8"?>
<!DOCTYPE svg PUBLIC "-//W3C//DTD SVG 1.1//EN" "http://www.w3.org/Graphics/SVG/1.1/DTD/svg11.dtd">
<!-- Creator: CorelDRAW X8 -->
<svg xmlns="http://www.w3.org/2000/svg" xml:space="preserve" width="40mm" height="60mm" version="1.1" style="shape-rendering:geometricPrecision; text-rendering:geometricPrecision; image-rendering:optimizeQuality; fill-rule:evenodd; clip-rule:evenodd"
viewBox="0 0 4000 6000"
 xmlns:xlink="http://www.w3.org/1999/xlink">
 <defs>
  <style type="text/css">
   <![CDATA[
    .str0 {stroke:black;stroke-width:7.62}
    .fil0 {fill:none}
   ]]>
  </style>
 </defs>
 <g id="图层_x0020_1">
  <metadata id="CorelCorpID_0Corel-Layer"/>
  <path class="fil0 str0" d="M1924 4963c0,-8 0,-250 0,-250 0,-351 -285,-636 -636,-636 -352,0 -637,285 -637,637 0,351 285,636 637,636 351,0 636,-285 636,-636 0,-1 0,-1 0,-1m1425 250c0,-8 0,-250 0,-250 0,-351 -285,-636 -637,-636 -351,0 -636,285 -636,637 0,351 285,636 636,636 352,0 637,-285 637,-636 0,-1 0,-1 0,-1m-1425 -1480c0,-7 0,-249 0,-249 0,-352 -285,-636 -636,-636 -352,0 -637,285 -637,636 0,352 285,637 637,637 351,0 636,-285 636,-637 0,0 0,0 0,0m1425 249c0,-7 0,-249 0,-249 0,-352 -285,-636 -637,-636 -351,0 -636,285 -636,636 0,352 285,637 636,637 352,0 637,-285 637,-637 0,0 0,0 0,0m-1425 -1449c0,-7 0,-249 0,-249 0,-351 -285,-636 -636,-636 -352,0 -637,285 -637,636 0,352 285,637 637,637 351,0 636,-285 636,-637 0,0 0,0 0,0m1425 249c0,-7 0,-249 0,-249 0,-351 -285,-636 -637,-636 -351,0 -636,285 -636,636 0,352 285,637 636,637 352,0 637,-285 637,-637 0,0 0,0 0,0"/>
 </g>
</svg>
