<?xml version="1.0" encoding="UTF-8"?>
<!DOCTYPE svg PUBLIC "-//W3C//DTD SVG 1.1//EN" "http://www.w3.org/Graphics/SVG/1.1/DTD/svg11.dtd">
<!-- Creator: CorelDRAW X8 -->
<svg xmlns="http://www.w3.org/2000/svg" xml:space="preserve" width="40mm" height="60mm" version="1.1" style="shape-rendering:geometricPrecision; text-rendering:geometricPrecision; image-rendering:optimizeQuality; fill-rule:evenodd; clip-rule:evenodd"
viewBox="0 0 4000 6000"
 xmlns:xlink="http://www.w3.org/1999/xlink">
 <defs>
  <style type="text/css">
   <![CDATA[
    .str0 {stroke:#222222;stroke-width:7.62}
    .fil0 {fill:none}
   ]]>
  </style>
 </defs>
 <g id="图层_x0020_1">
  <metadata id="CorelCorpID_0Corel-Layer"/>
  <g id="_1896261094720">
   <rect class="fil0 str0" x="664" y="650" width="720" height="1448" rx="101" ry="100"/>
   <rect class="fil0 str0" x="664" y="2276" width="720" height="1448" rx="101" ry="100"/>
   <rect class="fil0 str0" x="664" y="3902" width="720" height="1448" rx="101" ry="100"/>
   <rect class="fil0 str0" x="1640" y="650" width="720" height="1448" rx="101" ry="100"/>
   <rect class="fil0 str0" x="1640" y="2276" width="720" height="1448" rx="101" ry="100"/>
   <rect class="fil0 str0" x="1640" y="3902" width="720" height="1448" rx="101" ry="100"/>
   <rect class="fil0 str0" x="2615" y="650" width="720" height="1448" rx="101" ry="100"/>
   <rect class="fil0 str0" x="2615" y="2276" width="720" height="1448" rx="101" ry="100"/>
   <rect class="fil0 str0" x="2615" y="3902" width="720" height="1448" rx="101" ry="100"/>
   <path class="fil0 str0" d="M919 683l194 0c127,0 230,103 230,230l0 779c0,28 -22,50 -50,50l-554 0c-28,0 -50,-22 -50,-50l0 -779c0,-127 103,-230 230,-230z"/>
   <path class="fil0 str0" d="M919 2309l194 0c127,0 230,103 230,230l0 779c0,28 -22,50 -50,50l-554 0c-28,0 -50,-22 -50,-50l0 -779c0,-127 103,-230 230,-230z"/>
   <path class="fil0 str0" d="M919 3935l194 0c127,0 230,103 230,230l0 779c0,28 -22,50 -50,50l-554 0c-28,0 -50,-22 -50,-50l0 -779c0,-127 103,-230 230,-230z"/>
   <path class="fil0 str0" d="M1894 683l195 0c126,0 230,103 230,230l0 779c0,28 -23,50 -50,50l-555 0c-27,0 -50,-22 -50,-50l0 -779c0,-127 104,-230 230,-230z"/>
   <path class="fil0 str0" d="M1894 2309l195 0c126,0 230,103 230,230l0 779c0,28 -23,50 -50,50l-555 0c-27,0 -50,-22 -50,-50l0 -779c0,-127 104,-230 230,-230z"/>
   <path class="fil0 str0" d="M1894 3935l195 0c126,0 230,103 230,230l0 779c0,28 -23,50 -50,50l-555 0c-27,0 -50,-22 -50,-50l0 -779c0,-127 104,-230 230,-230z"/>
   <path class="fil0 str0" d="M2870 683l194 0c127,0 230,103 230,230l0 779c0,28 -22,50 -50,50l-554 0c-28,0 -50,-22 -50,-50l0 -779c0,-127 103,-230 230,-230z"/>
   <path class="fil0 str0" d="M2870 2309l194 0c127,0 230,103 230,230l0 779c0,28 -22,50 -50,50l-554 0c-28,0 -50,-22 -50,-50l0 -779c0,-127 103,-230 230,-230z"/>
   <path class="fil0 str0" d="M2870 3935l194 0c127,0 230,103 230,230l0 779c0,28 -22,50 -50,50l-554 0c-28,0 -50,-22 -50,-50l0 -779c0,-127 103,-230 230,-230z"/>
   <path class="fil0 str0" d="M805 884c0,-50 7,-150 86,-150 79,0 144,65 144,144 0,79 -65,144 -144,144 -79,0 -144,-65 -144,-144 0,-79 65,-144 144,-144"/>
   <path class="fil0 str0" d="M805 2510c0,-50 7,-150 86,-150 79,0 144,65 144,144 0,79 -65,144 -144,144 -79,0 -144,-65 -144,-144 0,-79 65,-144 144,-144"/>
   <path class="fil0 str0" d="M805 4136c0,-50 7,-150 86,-150 79,0 144,65 144,144 0,79 -65,144 -144,144 -79,0 -144,-65 -144,-144 0,-79 65,-144 144,-144"/>
   <path class="fil0 str0" d="M1780 884c0,-50 7,-150 87,-150 79,0 143,65 143,144 0,79 -64,144 -143,144 -80,0 -144,-65 -144,-144 0,-79 64,-144 144,-144"/>
   <path class="fil0 str0" d="M1780 2510c0,-50 7,-150 87,-150 79,0 143,65 143,144 0,79 -64,144 -143,144 -80,0 -144,-65 -144,-144 0,-79 64,-144 144,-144"/>
   <path class="fil0 str0" d="M1780 4136c0,-50 7,-150 87,-150 79,0 143,65 143,144 0,79 -64,144 -143,144 -80,0 -144,-65 -144,-144 0,-79 64,-144 144,-144"/>
   <path class="fil0 str0" d="M2756 884c0,-50 7,-150 86,-150 80,0 144,65 144,144 0,79 -64,144 -144,144 -79,0 -144,-65 -144,-144 0,-79 65,-144 144,-144"/>
   <path class="fil0 str0" d="M2756 2510c0,-50 7,-150 86,-150 80,0 144,65 144,144 0,79 -64,144 -144,144 -79,0 -144,-65 -144,-144 0,-79 65,-144 144,-144"/>
   <path class="fil0 str0" d="M2756 4136c0,-50 7,-150 86,-150 80,0 144,65 144,144 0,79 -64,144 -144,144 -79,0 -144,-65 -144,-144 0,-79 65,-144 144,-144"/>
   <path class="fil0 str0" d="M805 1225c0,-50 7,-150 86,-150 79,0 144,65 144,144 0,79 -65,144 -144,144 -79,0 -144,-65 -144,-144 0,-79 65,-144 144,-144"/>
   <path class="fil0 str0" d="M805 2851c0,-50 7,-150 86,-150 79,0 144,64 144,144 0,79 -65,144 -144,144 -79,0 -144,-65 -144,-144 0,-80 65,-144 144,-144"/>
   <path class="fil0 str0" d="M805 4477c0,-50 7,-150 86,-150 79,0 144,64 144,144 0,79 -65,144 -144,144 -79,0 -144,-65 -144,-144 0,-80 65,-144 144,-144"/>
   <path class="fil0 str0" d="M1780 1225c0,-50 7,-150 87,-150 79,0 143,65 143,144 0,79 -64,144 -143,144 -80,0 -144,-65 -144,-144 0,-79 64,-144 144,-144"/>
   <path class="fil0 str0" d="M1780 2851c0,-50 7,-150 87,-150 79,0 143,64 143,144 0,79 -64,144 -143,144 -80,0 -144,-65 -144,-144 0,-80 64,-144 144,-144"/>
   <path class="fil0 str0" d="M1780 4477c0,-50 7,-150 87,-150 79,0 143,64 143,144 0,79 -64,144 -143,144 -80,0 -144,-65 -144,-144 0,-80 64,-144 144,-144"/>
   <path class="fil0 str0" d="M2756 1225c0,-50 7,-150 86,-150 80,0 144,65 144,144 0,79 -64,144 -144,144 -79,0 -144,-65 -144,-144 0,-79 65,-144 144,-144"/>
   <path class="fil0 str0" d="M2756 2851c0,-50 7,-150 86,-150 80,0 144,64 144,144 0,79 -64,144 -144,144 -79,0 -144,-65 -144,-144 0,-80 65,-144 144,-144"/>
   <path class="fil0 str0" d="M2756 4477c0,-50 7,-150 86,-150 80,0 144,64 144,144 0,79 -64,144 -144,144 -79,0 -144,-65 -144,-144 0,-80 65,-144 144,-144"/>
   <path class="fil0 str0" d="M805 1566c0,-50 7,-150 86,-150 79,0 144,64 144,144 0,79 -65,144 -144,144 -79,0 -144,-65 -144,-144 0,-80 65,-144 144,-144"/>
   <path class="fil0 str0" d="M805 3192c0,-50 7,-150 86,-150 79,0 144,64 144,144 0,79 -65,144 -144,144 -79,0 -144,-65 -144,-144 0,-80 65,-144 144,-144"/>
   <path class="fil0 str0" d="M805 4818c0,-50 7,-150 86,-150 79,0 144,64 144,144 0,79 -65,143 -144,143 -79,0 -144,-64 -144,-143 0,-80 65,-144 144,-144"/>
   <path class="fil0 str0" d="M1780 1566c0,-50 7,-150 87,-150 79,0 143,64 143,144 0,79 -64,144 -143,144 -80,0 -144,-65 -144,-144 0,-80 64,-144 144,-144"/>
   <path class="fil0 str0" d="M1780 3192c0,-50 7,-150 87,-150 79,0 143,64 143,144 0,79 -64,144 -143,144 -80,0 -144,-65 -144,-144 0,-80 64,-144 144,-144"/>
   <path class="fil0 str0" d="M1780 4818c0,-50 7,-150 87,-150 79,0 143,64 143,144 0,79 -64,143 -143,143 -80,0 -144,-64 -144,-143 0,-80 64,-144 144,-144"/>
   <path class="fil0 str0" d="M2756 1566c0,-50 7,-150 86,-150 80,0 144,64 144,144 0,79 -64,144 -144,144 -79,0 -144,-65 -144,-144 0,-80 65,-144 144,-144"/>
   <path class="fil0 str0" d="M2756 3192c0,-50 7,-150 86,-150 80,0 144,64 144,144 0,79 -64,144 -144,144 -79,0 -144,-65 -144,-144 0,-80 65,-144 144,-144"/>
   <path class="fil0 str0" d="M2756 4818c0,-50 7,-150 86,-150 80,0 144,64 144,144 0,79 -64,143 -144,143 -79,0 -144,-64 -144,-143 0,-80 65,-144 144,-144"/>
   <path class="fil0 str0" d="M1122 1571c0,-39 5,-115 66,-115 62,0 111,49 111,110 0,61 -49,111 -111,111 -61,0 -110,-50 -110,-111 0,-61 49,-110 110,-110"/>
   <path class="fil0 str0" d="M1122 3197c0,-39 5,-115 66,-115 62,0 111,49 111,110 0,61 -49,111 -111,111 -61,0 -110,-50 -110,-111 0,-61 49,-110 110,-110"/>
   <path class="fil0 str0" d="M1122 4823c0,-39 5,-116 66,-116 62,0 111,50 111,111 0,61 -49,111 -111,111 -61,0 -110,-50 -110,-111 0,-61 49,-111 110,-111"/>
   <path class="fil0 str0" d="M2097 1571c0,-39 6,-115 67,-115 61,0 111,49 111,110 0,61 -50,111 -111,111 -61,0 -111,-50 -111,-111 0,-61 50,-110 111,-110"/>
   <path class="fil0 str0" d="M2097 3197c0,-39 6,-115 67,-115 61,0 111,49 111,110 0,61 -50,111 -111,111 -61,0 -111,-50 -111,-111 0,-61 50,-110 111,-110"/>
   <path class="fil0 str0" d="M2097 4823c0,-39 6,-116 67,-116 61,0 111,50 111,111 0,61 -50,111 -111,111 -61,0 -111,-50 -111,-111 0,-61 50,-111 111,-111"/>
   <path class="fil0 str0" d="M3073 1571c0,-39 5,-115 67,-115 61,0 110,49 110,110 0,61 -49,111 -110,111 -62,0 -111,-50 -111,-111 0,-61 49,-110 111,-110"/>
   <path class="fil0 str0" d="M3073 3197c0,-39 5,-115 67,-115 61,0 110,49 110,110 0,61 -49,111 -110,111 -62,0 -111,-50 -111,-111 0,-61 49,-110 111,-110"/>
   <path class="fil0 str0" d="M3073 4823c0,-39 5,-116 67,-116 61,0 110,50 110,111 0,61 -49,111 -110,111 -62,0 -111,-50 -111,-111 0,-61 49,-111 111,-111"/>
   <path class="fil0 str0" d="M1136 873c0,-36 5,-108 62,-108 57,0 103,46 103,103 0,57 -46,103 -103,103 -57,0 -103,-46 -103,-103 0,-57 46,-103 103,-103"/>
   <path class="fil0 str0" d="M1136 2499c0,-36 5,-108 62,-108 57,0 103,46 103,103 0,57 -46,103 -103,103 -57,0 -103,-46 -103,-103 0,-57 46,-103 103,-103"/>
   <path class="fil0 str0" d="M1136 4125c0,-36 5,-108 62,-108 57,0 103,46 103,103 0,57 -46,103 -103,103 -57,0 -103,-46 -103,-103 0,-57 46,-103 103,-103"/>
   <path class="fil0 str0" d="M2112 873c0,-36 5,-108 62,-108 57,0 103,46 103,103 0,57 -46,103 -103,103 -57,0 -103,-46 -103,-103 0,-57 46,-103 103,-103"/>
   <path class="fil0 str0" d="M2112 2499c0,-36 5,-108 62,-108 57,0 103,46 103,103 0,57 -46,103 -103,103 -57,0 -103,-46 -103,-103 0,-57 46,-103 103,-103"/>
   <path class="fil0 str0" d="M2112 4125c0,-36 5,-108 62,-108 57,0 103,46 103,103 0,57 -46,103 -103,103 -57,0 -103,-46 -103,-103 0,-57 46,-103 103,-103"/>
   <path class="fil0 str0" d="M3087 873c0,-36 5,-108 62,-108 57,0 103,46 103,103 0,57 -46,103 -103,103 -57,0 -103,-46 -103,-103 0,-57 46,-103 103,-103"/>
   <path class="fil0 str0" d="M3087 2499c0,-36 5,-108 62,-108 57,0 103,46 103,103 0,57 -46,103 -103,103 -57,0 -103,-46 -103,-103 0,-57 46,-103 103,-103"/>
   <path class="fil0 str0" d="M3087 4125c0,-36 5,-108 62,-108 57,0 103,46 103,103 0,57 -46,103 -103,103 -57,0 -103,-46 -103,-103 0,-57 46,-103 103,-103"/>
   <path class="fil0 str0" d="M1185 1155c35,0 56,-38 56,-38l0 194c0,25 -21,46 -46,46l0 0c-24,0 -45,-21 -45,-46l0 -194c0,-25 21,-45 45,-45l0 0c25,0 46,20 46,45"/>
   <path class="fil0 str0" d="M1185 2781c35,0 56,-38 56,-38l0 194c0,25 -21,45 -46,45l0 0c-24,0 -45,-20 -45,-45l0 -194c0,-25 21,-46 45,-46l0 0c25,0 46,21 46,46"/>
   <path class="fil0 str0" d="M1185 4407c35,0 56,-38 56,-38l0 194c0,25 -21,45 -46,45l0 0c-24,0 -45,-20 -45,-45l0 -194c0,-25 21,-46 45,-46l0 0c25,0 46,21 46,46"/>
   <path class="fil0 str0" d="M2161 1155c35,0 55,-38 55,-38l0 194c0,25 -20,46 -45,46l0 0c-25,0 -45,-21 -45,-46l0 -194c0,-25 20,-45 45,-45l0 0c25,0 45,20 45,45"/>
   <path class="fil0 str0" d="M2161 2781c35,0 55,-38 55,-38l0 194c0,25 -20,45 -45,45l0 0c-25,0 -45,-20 -45,-45l0 -194c0,-25 20,-46 45,-46l0 0c25,0 45,21 45,46"/>
   <path class="fil0 str0" d="M2161 4407c35,0 55,-38 55,-38l0 194c0,25 -20,45 -45,45l0 0c-25,0 -45,-20 -45,-45l0 -194c0,-25 20,-46 45,-46l0 0c25,0 45,21 45,46"/>
   <path class="fil0 str0" d="M3136 1155c35,0 56,-38 56,-38l0 194c0,25 -21,46 -45,46l0 0c-25,0 -46,-21 -46,-46l0 -194c0,-25 21,-45 46,-45l0 0c24,0 45,20 45,45"/>
   <path class="fil0 str0" d="M3136 2781c35,0 56,-38 56,-38l0 194c0,25 -21,45 -45,45l0 0c-25,0 -46,-20 -46,-45l0 -194c0,-25 21,-46 46,-46l0 0c24,0 45,21 45,46"/>
   <path class="fil0 str0" d="M3136 4407c35,0 56,-38 56,-38l0 194c0,25 -21,45 -45,45l0 0c-25,0 -46,-20 -46,-45l0 -194c0,-25 21,-46 46,-46l0 0c24,0 45,21 45,46"/>
   <path class="fil0 str0" d="M705 1752l622 0c9,0 16,7 16,16l0 239c0,41 -33,74 -74,74l-506 0c-41,0 -74,-33 -74,-74l0 -239c0,-9 7,-16 16,-16z"/>
   <path class="fil0 str0" d="M705 3378l622 0c9,0 16,7 16,16l0 239c0,41 -33,74 -74,74l-506 0c-41,0 -74,-33 -74,-74l0 -239c0,-9 7,-16 16,-16z"/>
   <path class="fil0 str0" d="M705 5004l622 0c9,0 16,7 16,16l0 239c0,41 -33,74 -74,74l-506 0c-41,0 -74,-33 -74,-74l0 -239c0,-9 7,-16 16,-16z"/>
   <path class="fil0 str0" d="M1680 1752l623 0c9,0 16,7 16,16l0 239c0,41 -33,74 -74,74l-507 0c-40,0 -74,-33 -74,-74l0 -239c0,-9 8,-16 16,-16z"/>
   <path class="fil0 str0" d="M1680 3378l623 0c9,0 16,7 16,16l0 239c0,41 -33,74 -74,74l-507 0c-40,0 -74,-33 -74,-74l0 -239c0,-9 8,-16 16,-16z"/>
   <path class="fil0 str0" d="M1680 5004l623 0c9,0 16,7 16,16l0 239c0,41 -33,74 -74,74l-507 0c-40,0 -74,-33 -74,-74l0 -239c0,-9 8,-16 16,-16z"/>
   <path class="fil0 str0" d="M2656 1752l622 0c9,0 16,7 16,16l0 239c0,41 -33,74 -73,74l-507 0c-41,0 -74,-33 -74,-74l0 -239c0,-9 7,-16 16,-16z"/>
   <path class="fil0 str0" d="M2656 3378l622 0c9,0 16,7 16,16l0 239c0,41 -33,74 -73,74l-507 0c-41,0 -74,-33 -74,-74l0 -239c0,-9 7,-16 16,-16z"/>
   <path class="fil0 str0" d="M2656 5004l622 0c9,0 16,7 16,16l0 239c0,41 -33,74 -73,74l-507 0c-41,0 -74,-33 -74,-74l0 -239c0,-9 7,-16 16,-16z"/>
  </g>
  <g id="_1897498108768">
   <rect class="fil0 str0" transform="matrix(2.70428E-14 -1.02108 1.00985 2.67454E-14 -27028.3 7107.66)" width="2170" height="4410" rx="304" ry="304"/>
   <rect class="fil0 str0" transform="matrix(2.70428E-14 -1.02108 1.00985 2.67454E-14 -22028.3 7107.66)" width="2170" height="4410" rx="304" ry="304"/>
   <rect class="fil0 str0" transform="matrix(2.70428E-14 -1.02108 1.00985 2.67454E-14 -17028.3 7107.66)" width="2170" height="4410" rx="304" ry="304"/>
   <rect class="fil0 str0" transform="matrix(2.70428E-14 -1.02108 1.00985 2.67454E-14 -27028.3 4107.66)" width="2170" height="4410" rx="304" ry="304"/>
   <rect class="fil0 str0" transform="matrix(2.70428E-14 -1.02108 1.00985 2.67454E-14 -22028.3 4107.66)" width="2170" height="4410" rx="304" ry="304"/>
   <rect class="fil0 str0" transform="matrix(2.70428E-14 -1.02108 1.00985 2.67454E-14 -17028.3 4107.66)" width="2170" height="4410" rx="304" ry="304"/>
   <rect class="fil0 str0" transform="matrix(2.70428E-14 -1.02108 1.00985 2.67454E-14 -27028.3 1107.66)" width="2170" height="4410" rx="304" ry="304"/>
   <rect class="fil0 str0" transform="matrix(2.70428E-14 -1.02108 1.00985 2.67454E-14 -22028.3 1107.66)" width="2170" height="4410" rx="304" ry="304"/>
   <rect class="fil0 str0" transform="matrix(2.70428E-14 -1.02108 1.00985 2.67454E-14 -17028.3 1107.66)" width="2170" height="4410" rx="304" ry="304"/>
   <path class="fil0 str0" d="M-26927 6802l0 -1553c0,-126 104,-230 230,-230l2978 0c28,0 50,23 50,50l0 1913c0,28 -22,50 -50,50l-2978 0c-126,0 -230,-103 -230,-230z"/>
   <path class="fil0 str0" d="M-21927 6802l0 -1553c0,-126 104,-230 230,-230l2978 0c28,0 50,23 50,50l0 1913c0,28 -22,50 -50,50l-2978 0c-126,0 -230,-103 -230,-230z"/>
   <path class="fil0 str0" d="M-16927 6802l0 -1553c0,-126 104,-230 230,-230l2978 0c28,0 50,23 50,50l0 1913c0,28 -22,50 -50,50l-2978 0c-126,0 -230,-103 -230,-230z"/>
   <path class="fil0 str0" d="M-26927 3802l0 -1553c0,-126 104,-230 230,-230l2978 0c28,0 50,23 50,50l0 1913c0,28 -22,50 -50,50l-2978 0c-126,0 -230,-103 -230,-230z"/>
   <path class="fil0 str0" d="M-21927 3802l0 -1553c0,-126 104,-230 230,-230l2978 0c28,0 50,23 50,50l0 1913c0,28 -22,50 -50,50l-2978 0c-126,0 -230,-103 -230,-230z"/>
   <path class="fil0 str0" d="M-16927 3802l0 -1553c0,-126 104,-230 230,-230l2978 0c28,0 50,23 50,50l0 1913c0,28 -22,50 -50,50l-2978 0c-126,0 -230,-103 -230,-230z"/>
   <path class="fil0 str0" d="M-26927 802l0 -1553c0,-126 104,-230 230,-230l2978 0c28,0 50,23 50,50l0 1913c0,28 -22,50 -50,50l-2978 0c-126,0 -230,-103 -230,-230z"/>
   <path class="fil0 str0" d="M-21927 802l0 -1553c0,-126 104,-230 230,-230l2978 0c28,0 50,23 50,50l0 1913c0,28 -22,50 -50,50l-2978 0c-126,0 -230,-103 -230,-230z"/>
   <path class="fil0 str0" d="M-16927 802l0 -1553c0,-126 104,-230 230,-230l2978 0c28,0 50,23 50,50l0 1913c0,28 -22,50 -50,50l-2978 0c-126,0 -230,-103 -230,-230z"/>
   <path class="fil0 str0" d="M-26308 6676c-154,0 -461,-22 -461,-266 0,-244 198,-442 442,-442 244,0 442,198 442,442 0,244 -198,442 -442,442 -244,0 -442,-198 -442,-442"/>
   <path class="fil0 str0" d="M-21308 6676c-154,0 -461,-22 -461,-266 0,-244 198,-442 442,-442 244,0 442,198 442,442 0,244 -198,442 -442,442 -244,0 -442,-198 -442,-442"/>
   <path class="fil0 str0" d="M-16308 6676c-154,0 -461,-22 -461,-266 0,-244 198,-442 442,-442 244,0 442,198 442,442 0,244 -198,442 -442,442 -244,0 -442,-198 -442,-442"/>
   <path class="fil0 str0" d="M-26308 3676c-154,0 -461,-22 -461,-266 0,-244 198,-442 442,-442 244,0 442,198 442,442 0,244 -198,442 -442,442 -244,0 -442,-198 -442,-442"/>
   <path class="fil0 str0" d="M-21308 3676c-154,0 -461,-22 -461,-266 0,-244 198,-442 442,-442 244,0 442,198 442,442 0,244 -198,442 -442,442 -244,0 -442,-198 -442,-442"/>
   <path class="fil0 str0" d="M-16308 3676c-154,0 -461,-22 -461,-266 0,-244 198,-442 442,-442 244,0 442,198 442,442 0,244 -198,442 -442,442 -244,0 -442,-198 -442,-442"/>
   <path class="fil0 str0" d="M-26308 676c-154,0 -461,-22 -461,-266 0,-244 198,-442 442,-442 244,0 442,198 442,442 0,244 -198,442 -442,442 -244,0 -442,-198 -442,-442"/>
   <path class="fil0 str0" d="M-21308 676c-154,0 -461,-22 -461,-266 0,-244 198,-442 442,-442 244,0 442,198 442,442 0,244 -198,442 -442,442 -244,0 -442,-198 -442,-442"/>
   <path class="fil0 str0" d="M-16308 676c-154,0 -461,-22 -461,-266 0,-244 198,-442 442,-442 244,0 442,198 442,442 0,244 -198,442 -442,442 -244,0 -442,-198 -442,-442"/>
   <path class="fil0 str0" d="M-25260 6676c-154,0 -461,-22 -461,-266 0,-244 198,-442 442,-442 244,0 442,198 442,442 0,244 -198,442 -442,442 -244,0 -442,-198 -442,-442"/>
   <path class="fil0 str0" d="M-20260 6676c-154,0 -461,-22 -461,-266 0,-244 198,-442 442,-442 244,0 442,198 442,442 0,244 -198,442 -442,442 -244,0 -442,-198 -442,-442"/>
   <path class="fil0 str0" d="M-15260 6676c-154,0 -461,-22 -461,-266 0,-244 198,-442 442,-442 244,0 442,198 442,442 0,244 -198,442 -442,442 -244,0 -442,-198 -442,-442"/>
   <path class="fil0 str0" d="M-25260 3676c-154,0 -461,-22 -461,-266 0,-244 198,-442 442,-442 244,0 442,198 442,442 0,244 -198,442 -442,442 -244,0 -442,-198 -442,-442"/>
   <path class="fil0 str0" d="M-20260 3676c-154,0 -461,-22 -461,-266 0,-244 198,-442 442,-442 244,0 442,198 442,442 0,244 -198,442 -442,442 -244,0 -442,-198 -442,-442"/>
   <path class="fil0 str0" d="M-15260 3676c-154,0 -461,-22 -461,-266 0,-244 198,-442 442,-442 244,0 442,198 442,442 0,244 -198,442 -442,442 -244,0 -442,-198 -442,-442"/>
   <path class="fil0 str0" d="M-25260 676c-154,0 -461,-22 -461,-266 0,-244 198,-442 442,-442 244,0 442,198 442,442 0,244 -198,442 -442,442 -244,0 -442,-198 -442,-442"/>
   <path class="fil0 str0" d="M-20260 676c-154,0 -461,-22 -461,-266 0,-244 198,-442 442,-442 244,0 442,198 442,442 0,244 -198,442 -442,442 -244,0 -442,-198 -442,-442"/>
   <path class="fil0 str0" d="M-15260 676c-154,0 -461,-22 -461,-266 0,-244 198,-442 442,-442 244,0 442,198 442,442 0,244 -198,442 -442,442 -244,0 -442,-198 -442,-442"/>
   <path class="fil0 str0" d="M-24212 6676c-154,0 -461,-22 -461,-266 0,-244 198,-442 443,-442 244,0 442,198 442,442 0,244 -198,442 -442,442 -245,0 -443,-198 -443,-442"/>
   <path class="fil0 str0" d="M-19212 6676c-154,0 -461,-22 -461,-266 0,-244 198,-442 443,-442 244,0 442,198 442,442 0,244 -198,442 -442,442 -245,0 -443,-198 -443,-442"/>
   <path class="fil0 str0" d="M-14212 6676c-154,0 -461,-22 -461,-266 0,-244 198,-442 443,-442 244,0 442,198 442,442 0,244 -198,442 -442,442 -245,0 -443,-198 -443,-442"/>
   <path class="fil0 str0" d="M-24212 3676c-154,0 -461,-22 -461,-266 0,-244 198,-442 443,-442 244,0 442,198 442,442 0,244 -198,442 -442,442 -245,0 -443,-198 -443,-442"/>
   <path class="fil0 str0" d="M-19212 3676c-154,0 -461,-22 -461,-266 0,-244 198,-442 443,-442 244,0 442,198 442,442 0,244 -198,442 -442,442 -245,0 -443,-198 -443,-442"/>
   <path class="fil0 str0" d="M-14212 3676c-154,0 -461,-22 -461,-266 0,-244 198,-442 443,-442 244,0 442,198 442,442 0,244 -198,442 -442,442 -245,0 -443,-198 -443,-442"/>
   <path class="fil0 str0" d="M-24212 676c-154,0 -461,-22 -461,-266 0,-244 198,-442 443,-442 244,0 442,198 442,442 0,244 -198,442 -442,442 -245,0 -443,-198 -443,-442"/>
   <path class="fil0 str0" d="M-19212 676c-154,0 -461,-22 -461,-266 0,-244 198,-442 443,-442 244,0 442,198 442,442 0,244 -198,442 -442,442 -245,0 -443,-198 -443,-442"/>
   <path class="fil0 str0" d="M-14212 676c-154,0 -461,-22 -461,-266 0,-244 198,-442 443,-442 244,0 442,198 442,442 0,244 -198,442 -442,442 -245,0 -443,-198 -443,-442"/>
   <path class="fil0 str0" d="M-24196 5701c-119,0 -355,-17 -355,-205 0,-188 152,-341 341,-341 188,0 340,153 340,341 0,188 -152,340 -340,340 -189,0 -341,-152 -341,-340"/>
   <path class="fil0 str0" d="M-19196 5701c-119,0 -355,-17 -355,-205 0,-188 152,-341 341,-341 188,0 340,153 340,341 0,188 -152,340 -340,340 -189,0 -341,-152 -341,-340"/>
   <path class="fil0 str0" d="M-14196 5701c-119,0 -355,-17 -355,-205 0,-188 152,-341 341,-341 188,0 340,153 340,341 0,188 -152,340 -340,340 -189,0 -341,-152 -341,-340"/>
   <path class="fil0 str0" d="M-24196 2701c-119,0 -355,-17 -355,-205 0,-188 152,-341 341,-341 188,0 340,153 340,341 0,188 -152,340 -340,340 -189,0 -341,-152 -341,-340"/>
   <path class="fil0 str0" d="M-19196 2701c-119,0 -355,-17 -355,-205 0,-188 152,-341 341,-341 188,0 340,153 340,341 0,188 -152,340 -340,340 -189,0 -341,-152 -341,-340"/>
   <path class="fil0 str0" d="M-14196 2701c-119,0 -355,-17 -355,-205 0,-188 152,-341 341,-341 188,0 340,153 340,341 0,188 -152,340 -340,340 -189,0 -341,-152 -341,-340"/>
   <path class="fil0 str0" d="M-24196 -299c-119,0 -355,-17 -355,-205 0,-188 152,-341 341,-341 188,0 340,153 340,341 0,188 -152,340 -340,340 -189,0 -341,-152 -341,-340"/>
   <path class="fil0 str0" d="M-19196 -299c-119,0 -355,-17 -355,-205 0,-188 152,-341 341,-341 188,0 340,153 340,341 0,188 -152,340 -340,340 -189,0 -341,-152 -341,-340"/>
   <path class="fil0 str0" d="M-14196 -299c-119,0 -355,-17 -355,-205 0,-188 152,-341 341,-341 188,0 340,153 340,341 0,188 -152,340 -340,340 -189,0 -341,-152 -341,-340"/>
   <path class="fil0 str0" d="M-26343 5656c-111,0 -330,-15 -330,-190 0,-175 141,-316 316,-316 175,0 316,141 316,316 0,175 -141,316 -316,316 -175,0 -316,-141 -316,-316"/>
   <path class="fil0 str0" d="M-21343 5656c-111,0 -330,-15 -330,-190 0,-175 141,-316 316,-316 175,0 316,141 316,316 0,175 -141,316 -316,316 -175,0 -316,-141 -316,-316"/>
   <path class="fil0 str0" d="M-16343 5656c-111,0 -330,-15 -330,-190 0,-175 141,-316 316,-316 175,0 316,141 316,316 0,175 -141,316 -316,316 -175,0 -316,-141 -316,-316"/>
   <path class="fil0 str0" d="M-26343 2656c-111,0 -330,-15 -330,-190 0,-175 141,-316 316,-316 175,0 316,141 316,316 0,175 -141,316 -316,316 -175,0 -316,-141 -316,-316"/>
   <path class="fil0 str0" d="M-21343 2656c-111,0 -330,-15 -330,-190 0,-175 141,-316 316,-316 175,0 316,141 316,316 0,175 -141,316 -316,316 -175,0 -316,-141 -316,-316"/>
   <path class="fil0 str0" d="M-16343 2656c-111,0 -330,-15 -330,-190 0,-175 141,-316 316,-316 175,0 316,141 316,316 0,175 -141,316 -316,316 -175,0 -316,-141 -316,-316"/>
   <path class="fil0 str0" d="M-26343 -344c-111,0 -330,-15 -330,-190 0,-175 141,-317 316,-317 175,0 316,142 316,317 0,175 -141,316 -316,316 -175,0 -316,-141 -316,-316"/>
   <path class="fil0 str0" d="M-21343 -344c-111,0 -330,-15 -330,-190 0,-175 141,-317 316,-317 175,0 316,142 316,317 0,175 -141,316 -316,316 -175,0 -316,-141 -316,-316"/>
   <path class="fil0 str0" d="M-16343 -344c-111,0 -330,-15 -330,-190 0,-175 141,-317 316,-317 175,0 316,142 316,317 0,175 -141,316 -316,316 -175,0 -316,-141 -316,-316"/>
   <path class="fil0 str0" d="M-25475 5505c0,-107 -118,-170 -118,-170l598 0c77,0 139,63 139,139l0 0c0,77 -62,139 -139,139l-598 0c-77,0 -139,-62 -139,-139l0 0c0,-76 62,-139 139,-139"/>
   <path class="fil0 str0" d="M-20475 5505c0,-107 -118,-170 -118,-170l598 0c77,0 139,63 139,139l0 0c0,77 -62,139 -139,139l-598 0c-77,0 -139,-62 -139,-139l0 0c0,-76 62,-139 139,-139"/>
   <path class="fil0 str0" d="M-15475 5505c0,-107 -118,-170 -118,-170l598 0c77,0 139,63 139,139l0 0c0,77 -62,139 -139,139l-598 0c-77,0 -139,-62 -139,-139l0 0c0,-76 62,-139 139,-139"/>
   <path class="fil0 str0" d="M-25475 2505c0,-107 -118,-170 -118,-170l598 0c77,0 139,63 139,139l0 0c0,77 -62,139 -139,139l-598 0c-77,0 -139,-62 -139,-139l0 0c0,-76 62,-139 139,-139"/>
   <path class="fil0 str0" d="M-20475 2505c0,-107 -118,-170 -118,-170l598 0c77,0 139,63 139,139l0 0c0,77 -62,139 -139,139l-598 0c-77,0 -139,-62 -139,-139l0 0c0,-76 62,-139 139,-139"/>
   <path class="fil0 str0" d="M-15475 2505c0,-107 -118,-170 -118,-170l598 0c77,0 139,63 139,139l0 0c0,77 -62,139 -139,139l-598 0c-77,0 -139,-62 -139,-139l0 0c0,-76 62,-139 139,-139"/>
   <path class="fil0 str0" d="M-25475 -495c0,-107 -118,-170 -118,-170l598 0c77,0 139,63 139,139l0 0c0,77 -62,139 -139,139l-598 0c-77,0 -139,-62 -139,-139l0 0c0,-76 62,-139 139,-139"/>
   <path class="fil0 str0" d="M-20475 -495c0,-107 -118,-170 -118,-170l598 0c77,0 139,63 139,139l0 0c0,77 -62,139 -139,139l-598 0c-77,0 -139,-62 -139,-139l0 0c0,-76 62,-139 139,-139"/>
   <path class="fil0 str0" d="M-15475 -495c0,-107 -118,-170 -118,-170l598 0c77,0 139,63 139,139l0 0c0,77 -62,139 -139,139l-598 0c-77,0 -139,-62 -139,-139l0 0c0,-76 62,-139 139,-139"/>
   <path class="fil0 str0" d="M-23641 6983l0 -1914c0,-27 23,-50 50,-50l736 0c125,0 227,103 227,228l0 1558c0,125 -102,227 -227,227l-736 0c-27,0 -50,-22 -50,-49z"/>
   <path class="fil0 str0" d="M-18641 6983l0 -1914c0,-27 23,-50 50,-50l736 0c125,0 227,103 227,228l0 1558c0,125 -102,227 -227,227l-736 0c-27,0 -50,-22 -50,-49z"/>
   <path class="fil0 str0" d="M-13641 6983l0 -1914c0,-27 23,-50 50,-50l736 0c125,0 227,103 227,228l0 1558c0,125 -102,227 -227,227l-736 0c-27,0 -50,-22 -50,-49z"/>
   <path class="fil0 str0" d="M-23641 3983l0 -1914c0,-27 23,-50 50,-50l736 0c125,0 227,103 227,228l0 1558c0,125 -102,227 -227,227l-736 0c-27,0 -50,-22 -50,-49z"/>
   <path class="fil0 str0" d="M-18641 3983l0 -1914c0,-27 23,-50 50,-50l736 0c125,0 227,103 227,228l0 1558c0,125 -102,227 -227,227l-736 0c-27,0 -50,-22 -50,-49z"/>
   <path class="fil0 str0" d="M-13641 3983l0 -1914c0,-27 23,-50 50,-50l736 0c125,0 227,103 227,228l0 1558c0,125 -102,227 -227,227l-736 0c-27,0 -50,-22 -50,-49z"/>
   <path class="fil0 str0" d="M-23641 983l0 -1914c0,-27 23,-50 50,-50l736 0c125,0 227,103 227,228l0 1558c0,125 -102,227 -227,227l-736 0c-27,0 -50,-22 -50,-49z"/>
   <path class="fil0 str0" d="M-18641 983l0 -1914c0,-27 23,-50 50,-50l736 0c125,0 227,103 227,228l0 1558c0,125 -102,227 -227,227l-736 0c-27,0 -50,-22 -50,-49z"/>
   <path class="fil0 str0" d="M-13641 983l0 -1914c0,-27 23,-50 50,-50l736 0c125,0 227,103 227,228l0 1558c0,125 -102,227 -227,227l-736 0c-27,0 -50,-22 -50,-49z"/>
  </g>
 </g>
</svg>
