<?xml version="1.0" encoding="UTF-8"?>
<!DOCTYPE svg PUBLIC "-//W3C//DTD SVG 1.1//EN" "http://www.w3.org/Graphics/SVG/1.1/DTD/svg11.dtd">
<!-- Creator: CorelDRAW X8 -->
<svg xmlns="http://www.w3.org/2000/svg" xml:space="preserve" width="40mm" height="60mm" version="1.1" style="shape-rendering:geometricPrecision; text-rendering:geometricPrecision; image-rendering:optimizeQuality; fill-rule:evenodd; clip-rule:evenodd"
viewBox="0 0 4000 6000"
 xmlns:xlink="http://www.w3.org/1999/xlink">
 <defs>
  <style type="text/css">
   <![CDATA[
    .str0 {stroke:black;stroke-width:7.62}
    .fil0 {fill:none}
   ]]>
  </style>
 </defs>
 <g id="图层_x0020_1">
  <metadata id="CorelCorpID_0Corel-Layer"/>
  <path class="fil0 str0" d="M2009 650c251,0 457,194 455,276 -1,82 -204,276 -455,276 -252,0 -460,-199 -461,-274 1,-74 209,-278 461,-278zm-48 226c-7,-28 -18,-49 -65,-49l-40 0c-55,0 -84,38 -84,78l0 37c0,41 29,86 84,86l301 0c56,0 92,-33 92,-77l0 -46c0,-47 -37,-78 -92,-78l-261 0m706 1469c0,-3 -3,-5 -8,-6 -18,0 -32,15 -32,33 0,18 14,33 32,33 18,0 33,-15 33,-33 0,-18 -15,-33 -33,-33m-1152 6c0,-3 -3,-5 -8,-6 -18,0 -33,15 -33,33 0,18 15,33 33,33 18,0 33,-15 33,-33 0,-18 -15,-33 -33,-33m-674 3060l2466 0c8,0 14,-6 14,-14l0 -4225c0,-8 -6,-14 -14,-14 -395,-31 -728,269 -1218,269 -491,0 -745,-316 -1222,-269 -7,0 -14,6 -14,14l0 4225c0,8 7,14 14,14l36 0"/>
 </g>
</svg>
