<?xml version="1.0" encoding="UTF-8"?>
<!DOCTYPE svg PUBLIC "-//W3C//DTD SVG 1.1//EN" "http://www.w3.org/Graphics/SVG/1.1/DTD/svg11.dtd">
<!-- Creator: CorelDRAW X8 -->
<svg xmlns="http://www.w3.org/2000/svg" xml:space="preserve" width="40mm" height="60mm" version="1.1" style="shape-rendering:geometricPrecision; text-rendering:geometricPrecision; image-rendering:optimizeQuality; fill-rule:evenodd; clip-rule:evenodd"
viewBox="0 0 4000 6000"
 xmlns:xlink="http://www.w3.org/1999/xlink">
 <defs>
  <style type="text/css">
   <![CDATA[
    .str0 {stroke:black;stroke-width:7.62}
    .fil0 {fill:none}
   ]]>
  </style>
 </defs>
 <g id="图层_x0020_1">
  <metadata id="CorelCorpID_0Corel-Layer"/>
  <path class="fil0 str0" d="M1468 847c-2,-25 -24,-48 -69,-52 -163,0 -295,132 -295,294 0,163 132,294 295,294 162,0 294,-131 294,-294 0,-162 -132,-294 -294,-294m69 719c-2,-25 -24,-48 -69,-52 -163,0 -295,132 -295,295 0,162 132,294 295,294 162,0 294,-132 294,-294 0,-163 -132,-295 -294,-295m587 -509c-1,-14 -13,-28 -40,-30 -93,0 -169,76 -169,169 0,94 76,169 169,169 94,0 169,-75 169,-169 0,-93 -75,-169 -169,-169m37 695c-1,-14 -13,-27 -40,-29 -93,0 -169,75 -169,169 0,93 76,169 169,169 94,0 170,-76 170,-169 0,-94 -76,-169 -170,-169m-786 -919l1029 0c8,0 15,7 15,15l0 1525c0,98 -80,178 -178,178l-1029 0c-8,0 -14,-7 -14,-15l0 -1525c0,-98 80,-178 177,-178zm-380 2004c-13,3 -22,8 -22,30l0 18c0,25 20,45 45,45l0 0c26,0 46,-20 46,-45l0 -362c0,-25 -20,-46 -46,-46l0 0c-25,0 -45,21 -45,46l0 344m2413 -53c-14,4 -24,9 -24,33l0 21c0,28 23,51 51,51l0 0c28,0 52,-23 52,-51l0 -688c0,-28 -24,-51 -52,-51l0 0c-28,0 -51,23 -51,51l0 667m-2185 2627l1905 0c114,0 208,-94 208,-208l0 0 201 0c8,0 15,-7 15,-15l0 -4214c0,-9 -7,-15 -15,-15l-201 0c0,-115 -94,-209 -208,-209l-561 0 -68 5c-11,0 -20,9 -20,20l0 1524c0,112 -91,204 -204,204l-1032 0c-8,0 -14,-7 -14,-15l0 -1520c0,-5 -4,-9 -9,-9l-28 0 -201 0c-8,0 -15,6 -15,15l0 4214c0,8 7,15 15,15l201 0 0 0c0,114 94,208 208,208l66 0c136,0 217,20 249,39"/>
 </g>
</svg>
