<?xml version="1.0" encoding="UTF-8"?>
<!DOCTYPE svg PUBLIC "-//W3C//DTD SVG 1.1//EN" "http://www.w3.org/Graphics/SVG/1.1/DTD/svg11.dtd">
<!-- Creator: CorelDRAW 2020 (64-Bit) -->
<svg xmlns="http://www.w3.org/2000/svg" xml:space="preserve" width="40mm" height="60mm" version="1.1" style="shape-rendering:geometricPrecision; text-rendering:geometricPrecision; image-rendering:optimizeQuality; fill-rule:evenodd; clip-rule:evenodd"
viewBox="0 0 4000 6000"
 xmlns:xlink="http://www.w3.org/1999/xlink"
 xmlns:xodm="http://www.corel.com/coreldraw/odm/2003">
 <defs>
  <style type="text/css">
   <![CDATA[
    .str1 {stroke:#332C2B;stroke-width:20;stroke-miterlimit:22.9256}
    .str2 {stroke:#332C2B;stroke-width:20;stroke-miterlimit:22.9256}
    .str0 {stroke:#E62129;stroke-width:20;stroke-miterlimit:22.9256}
    .fil0 {fill:none}
   ]]>
  </style>
   <clipPath id="id0">
    <rect x="-52520.04" y="-5228.76" width="16728.43" height="16760.12"/>
   </clipPath>
 </defs>
 <g id="图层_x0020_1">
  <metadata id="CorelCorpID_0Corel-Layer"/>
  <g style="clip-path:url(#id0)">
   <image x="-52520.04" y="-5228.76" width="16728.43" height="16760.12" xlink:href="S16e -11i（前膜全屏）_Images\S16e -11i（前膜全屏）_ImgID1.png"/>
  </g>
  <rect class="fil0 str0" x="-52298.02" y="-4944.25" width="7580" height="16250"/>
  <path class="fil0 str0" d="M-51333.68 -4806.66l1296.13 0c41.16,0 92.53,52.1 121.93,52.1l2820.48 0c29.4,0 71.17,-52.1 124.56,-52.1l1288.22 0c440,0 800,360.02 800,800l0 14362.15c0,439.99 -360,799.99 -800,799.99l-5651.32 0c-440,0 -800,-360 -800,-799.99l0 -14362.15c0,-440 360,-800 800,-800z"/>
  <circle class="fil0 str1" cx="-48508.08" cy="-4224.39" r="195.13"/>
  <rect class="fil0 str0" x="-43824.26" y="-4944.25" width="7580" height="16250"/>
  <rect class="fil0 str0" x="-43709.69" y="-4855.61" width="7350.86" height="16040.65" rx="750" ry="1549.55"/>
  <rect class="fil0 str1" x="-43433.93" y="-4587.67" width="3818.05" height="5177.33" rx="550.97" ry="558.29"/>
  <rect class="fil0 str1" x="-43345.64" y="-4502.36" width="3641.47" height="5006.72" rx="525.49" ry="539.89"/>
  <path class="fil0 str1" d="M-42442.55 -4389.79c-382.86,0 -693.23,310.37 -693.23,693.23 0,382.86 310.37,693.23 693.23,693.23 382.86,0 693.23,-310.37 693.23,-693.23 0,-382.86 -310.37,-693.23 -693.23,-693.23 -382.86,0 -583.39,519.93 -584.72,619.15"/>
  <path class="fil0 str1" d="M-42442.55 -2928.29c-382.86,0 -693.23,310.37 -693.23,693.23 0,382.86 310.37,693.23 693.23,693.23 382.86,0 693.23,-310.37 693.23,-693.23 0,-382.86 -310.37,-693.23 -693.23,-693.23 -382.86,0 -583.39,519.93 -584.72,619.15"/>
  <path class="fil0 str1" d="M-42442.55 -1451.91c-382.86,0 -693.23,310.37 -693.23,693.23 0,382.86 310.37,693.23 693.23,693.23 382.86,0 693.23,-310.37 693.23,-693.23 0,-382.86 -310.37,-693.23 -693.23,-693.23 -382.86,0 -583.39,519.93 -584.72,619.15"/>
  <path class="fil0 str1" d="M-40568.91 -4312.05c-343.41,0 -621.8,278.39 -621.8,621.79 0,343.41 278.39,621.8 621.8,621.8 343.4,0 621.79,-278.39 621.79,-621.8 0,-343.4 -278.39,-621.79 -621.79,-621.79 -343.41,0 -523.28,466.35 -524.47,555.35"/>
  <path class="fil0 str2" d="M-3830.26 6637.45l0 -6028.36c0,-439.99 -360.01,-800 -799.99,-800l-14362.15 0c-439.98,0 -800,360 -800,800l0 1288.22c0,53.39 52.1,95.16 52.1,124.56l0 2820.48c0,29.4 -52.1,80.77 -52.1,121.93l0 1296.13c0,440 360,800 800,800l14362.15 0c439.99,0 799.99,-360 799.99,-800 0,-440 47.07,-567.91 97.34,-657.87"/>
  <path class="fil0 str2" d="M-19405.26 3434.81c0,107.77 87.36,195.13 195.13,195.13 107.77,0 195.13,-87.36 195.13,-195.13 0,-107.77 -87.36,-195.13 -195.13,-195.13 -107.77,0 -195.13,87.36 -195.13,195.13 0,107.77 118.11,146.38 157.14,147.04"/>
  <g id="_2062536352016">
   <path class="fil0 str2" d="M1055.56 5322.04l1764.27 0c128.77,0 234.14,-105.36 234.14,-234.12l0 -4203.26c0,-128.77 -105.36,-234.13 -234.14,-234.13l-377.01 0c-15.62,0 -27.85,15.25 -36.45,15.25l-825.45 0c-8.61,0 -23.64,-15.25 -35.69,-15.25l-379.32 0c-128.78,0 -234.14,105.36 -234.14,234.13l0 4203.26c0,128.76 105.36,234.12 234.14,234.12 128.77,0 166.2,13.78 192.53,28.49"/>
   <path class="fil0 str2" d="M1992.85 763.83c-31.54,0 -57.1,25.57 -57.1,57.11 0,31.54 25.56,57.11 57.1,57.11 31.54,0 57.11,-25.57 57.11,-57.11 0,-31.54 -25.57,-57.11 -57.11,-57.11 -31.54,0 -42.84,34.57 -43.03,45.99"/>
  </g>
 </g>
</svg>
