<?xml version="1.0" encoding="UTF-8"?>
<!DOCTYPE svg PUBLIC "-//W3C//DTD SVG 1.1//EN" "http://www.w3.org/Graphics/SVG/1.1/DTD/svg11.dtd">
<!-- Creator: CorelDRAW -->
<svg xmlns="http://www.w3.org/2000/svg" xml:space="preserve" width="40mm" height="60mm" style="shape-rendering:geometricPrecision; text-rendering:geometricPrecision; image-rendering:optimizeQuality; fill-rule:evenodd; clip-rule:evenodd"
viewBox="0 0 40 60"
 xmlns:xlink="http://www.w3.org/1999/xlink">
 <defs>
  <style type="text/css">
   <![CDATA[
    .str0 {stroke:#1F1A17;stroke-width:0.194}
    .fil0 {fill:none;fill-rule:nonzero}
   ]]>
  </style>
 </defs>
 <g id="图层_x0020_1">
  <metadata id="CorelCorpID_0Corel-Layer"/>
  <path class="fil0 str0" d="M29.3302 6.8522c0.0916,0.0926 0.1456,0.2433 0.1588,0.4218l0.0764 46.226 -18.3603 -0.0143c-0.2038,-0.0177 -0.3609,-0.1176 -0.5491,-0.3525 -0.0717,-0.0885 -0.0842,-0.1653 -0.0852,-0.5304m18.541 -45.9595l0.2184 0.2089m-0.4481 -0.3099c0.0946,0.0167 0.157,0.0437 0.2297,0.101m-0.5998 -0.128l0.3701 0.027m-3.1079 -0.0405c1.358,-0.0052 2.4497,0.0011 2.7378,0.0135m-5.3143 -0.0051l2.5765 -0.0084m-2.5765 0.0084c-1.4463,0.0051 -1.4463,0.0051 -1.4557,0.3087l-0.0083 0.1373c-0.0249,0.2901 -0.1039,0.3472 -0.4741,0.3472 -0.0281,0 -0.0592,0 -0.0946,0 -0.5573,-0.0104 -1.0866,-0.0144 -1.5888,-0.0144 -0.7299,0 -1.4245,0.0093 -2.12,0.0301l-0.0666 0.0156 -0.0594 0.0436c-0.2401,0.2433 -0.3732,0.3192 -0.5614,0.3192 -0.3192,0 -0.5625,-0.2516 -0.5823,-0.602 -0.001,-0.0208 -0.001,-0.0458 -0.0021,-0.0727 -0.0041,-0.3743 -0.029,-0.4357 -0.1892,-0.4669 -0.1601,-0.0313 -0.473,-0.0364 -2.3915,-0.0344m-0.7767 0.0011l0.7767 -0.0011m-2.7854 0.1925c0.16,-0.1903 0.16,-0.1903 2.0087,-0.1914m-2.0794 0.2714l0.0707 -0.08m-0.3703 15.5652c-0.0186,-4.5396 -0.0176,-9.0792 0.0011,-13.6189 0.0291,-1.2934 0.0853,-1.6438 0.2985,-1.8663m-0.1768 45.8088l-0.1228 -30.3236"/>
 </g>
</svg>
