<?xml version="1.0" encoding="UTF-8"?>
<!DOCTYPE svg PUBLIC "-//W3C//DTD SVG 1.1//EN" "http://www.w3.org/Graphics/SVG/1.1/DTD/svg11.dtd">
<!-- Creator: CorelDRAW X8 -->
<svg xmlns="http://www.w3.org/2000/svg" xml:space="preserve" width="40mm" height="60mm" version="1.1" style="shape-rendering:geometricPrecision; text-rendering:geometricPrecision; image-rendering:optimizeQuality; fill-rule:evenodd; clip-rule:evenodd"
viewBox="0 0 4000 6000"
 xmlns:xlink="http://www.w3.org/1999/xlink">
 <defs>
  <style type="text/css">
   <![CDATA[
    .str0 {stroke:black;stroke-width:20}
    .fil0 {fill:none}
   ]]>
  </style>
 </defs>
 <g id="Capa_x0020_1">
  <metadata id="CorelCorpID_0Corel-Layer"/>
  <path class="fil0 str0" d="M1074 650l1852 0c85,0 155,69 155,154l0 4392c0,85 -70,154 -155,154l-1852 0c-85,0 -155,-69 -155,-154l0 -4392c0,-85 70,-154 155,-154zm247 25c28,0 51,23 51,51 0,29 -23,52 -51,52 -28,0 -50,-23 -50,-52 0,-28 22,-51 50,-51zm488 17l367 1m-367 67l367 1m0 -68c19,0 34,15 34,34 0,19 -15,34 -34,34m-367 -1c-19,0 -33,-16 -33,-34 0,-19 14,-34 33,-34m775 70l88 1c22,0 40,-16 40,-34 0,-19 -18,-34 -40,-34l-88 -1c-22,0 -40,15 -40,34 0,19 18,34 40,34z"/>
 </g>
</svg>
