<?xml version="1.0" encoding="UTF-8"?>
<!DOCTYPE svg PUBLIC "-//W3C//DTD SVG 1.1//EN" "http://www.w3.org/Graphics/SVG/1.1/DTD/svg11.dtd">
<!-- Creator: CorelDRAW 2020 (64-Bit) -->
<svg xmlns="http://www.w3.org/2000/svg" xml:space="preserve" width="40mm" height="60mm" version="1.1" style="shape-rendering:geometricPrecision; text-rendering:geometricPrecision; image-rendering:optimizeQuality; fill-rule:evenodd; clip-rule:evenodd"
viewBox="0 0 4000 6000"
 xmlns:xlink="http://www.w3.org/1999/xlink"
 xmlns:xodm="http://www.corel.com/coreldraw/odm/2003">
 <defs>
  <style type="text/css">
   <![CDATA[
    .str0 {stroke:#332C2B;stroke-width:20;stroke-miterlimit:22.9256}
    .str1 {stroke:#332C2B;stroke-width:20;stroke-miterlimit:22.9256}
    .fil0 {fill:none}
   ]]>
  </style>
   <clipPath id="id0">
    <rect x="-51911.29" y="-5733.14" width="13562.23" height="16769.91"/>
   </clipPath>
 </defs>
 <g id="图层_x0020_1">
  <metadata id="CorelCorpID_0Corel-Layer"/>
  <g style="clip-path:url(#id0)">
   <image x="-51911.29" y="-5733.14" width="13562.23" height="16769.91" xlink:href="Phantom X2 Pro -11i（前膜全屏）_Images\Phantom X2 Pro -11i（前膜全屏）_ImgID1.png"/>
  </g>
  <rect class="fil0 str0" x="-51713.09" y="-5588.41" width="7270" height="16460"/>
  <path class="fil0 str0" d="M-51213.09 -5405.85l1911.99 0c33.63,0 61.61,22.03 81.08,22.03l2328.36 0c19.47,0 54.74,-22.03 81.92,-22.03l1866.65 0c275,0 500,225.02 500,500l0 15083.57c0,275 -225,500 -500,500l-6270 0c-275,0 -500,-225 -500,-500l0 -15083.57c0,-275 225,-500 500,-500z"/>
  <circle class="fil0 str0" cx="-48074.36" cy="-4882.46" r="191.16"/>
  <path class="fil0 str1" d="M-5100.8 6149.38l0 -6531.94c0,-274.99 -225.01,-500 -500,-500l-15083.57 0c-274.98,0 -500,225 -500,500l0 1866.65c0,27.18 22.03,62.45 22.03,81.92l0 2328.36c0,19.47 -22.03,47.45 -22.03,81.08l0 1911.99c0,275 225,500 500,500l15083.57 0c275,0 500,-225 500,-500 0,-275 24.66,-380.16 63.69,-437.71"/>
  <path class="fil0 str1" d="M-20852.14 2748.71c0,105.57 85.59,191.16 191.16,191.16 105.57,0 191.16,-85.59 191.16,-191.16 0,-105.57 -85.59,-191.16 -191.16,-191.16 -105.57,0 -191.16,85.59 -191.16,191.16 0,105.57 135.11,157.62 168.85,164.9"/>
  <g id="_2382459381472">
   <path class="fil0 str1" d="M1004.12 5331.99l1901.26 0c80.04,0 145.54,-65.49 145.54,-145.53l0 -4390.39c0,-80.04 -65.5,-145.54 -145.54,-145.54l-543.33 0c-7.91,0 -18.18,6.41 -23.84,6.41l-677.72 0c-5.67,0 -13.81,-6.41 -23.6,-6.41l-556.53 0c-80.04,0 -145.54,65.49 -145.54,145.54l0 4390.39c0,80.04 65.5,145.53 145.54,145.53 80.05,0 110.65,7.18 127.41,18.54"/>
   <path class="fil0 str1" d="M1993.96 747.23c-30.73,0 -55.65,24.92 -55.65,55.64 0,30.73 24.92,55.64 55.65,55.64 30.72,0 55.64,-24.91 55.64,-55.64 0,-30.72 -24.92,-55.64 -55.64,-55.64 -30.73,0 -45.88,39.33 -48,49.15"/>
  </g>
 </g>
</svg>
