<?xml version="1.0" encoding="UTF-8"?>
<!DOCTYPE svg PUBLIC "-//W3C//DTD SVG 1.1//EN" "http://www.w3.org/Graphics/SVG/1.1/DTD/svg11.dtd">
<!-- Creator: CorelDRAW 2020 (64-Bit) -->
<svg xmlns="http://www.w3.org/2000/svg" xml:space="preserve" width="40mm" height="60mm" version="1.1" style="shape-rendering:geometricPrecision; text-rendering:geometricPrecision; image-rendering:optimizeQuality; fill-rule:evenodd; clip-rule:evenodd"
viewBox="0 0 4000 6000"
 xmlns:xlink="http://www.w3.org/1999/xlink"
 xmlns:xodm="http://www.corel.com/coreldraw/odm/2003">
 <defs>
  <style type="text/css">
   <![CDATA[
    .str0 {stroke:#332C2B;stroke-width:20;stroke-miterlimit:22.9256}
    .fil0 {fill:none}
   ]]>
  </style>
 </defs>
 <g id="图层_x0020_1">
  <metadata id="CorelCorpID_0Corel-Layer"/>
  <path class="fil0 str0" d="M9553.87 4136.48c0,-717.96 -582.04,-1300 -1300,-1300 -717.96,0 -1300,582.04 -1300,1300 0,717.96 582.04,1300 1300,1300 717.96,0 1300,-582.04 1300,-1300 0,-717.96 0,-1238.19 0,-1238.19"/>
  <path class="fil0 str0" d="M13655.07 -10111.39c717.96,0 1300,-582.04 1300,-1300 0,-717.96 -582.04,-1300 -1300,-1300 -717.96,0 -1300,582.04 -1300,1300 0,717.96 582.04,1300 1300,1300 717.96,0 1238.19,0 1238.19,0"/>
  <path class="fil0 str0" d="M9553.87 1430.35c0,-717.96 -582.04,-1300 -1300,-1300 -717.96,0 -1300,582.04 -1300,1300 0,717.96 582.04,1300 1300,1300 717.96,0 1300,-582.04 1300,-1300 0,-717.96 0,-1238.19 0,-1238.19"/>
  <path class="fil0 str0" d="M12270.27 4136.48c0,-717.96 -582.04,-1300 -1300,-1300 -717.96,0 -1300,582.04 -1300,1300 0,717.96 582.04,1300 1300,1300 717.96,0 1300,-582.04 1300,-1300 0,-717.96 0,-1238.19 0,-1238.19"/>
  <path class="fil0 str0" d="M12270.27 1430.35c0,-717.96 -582.04,-1300 -1300,-1300 -717.96,0 -1300,582.04 -1300,1300 0,717.96 582.04,1300 1300,1300 717.96,0 1300,-582.04 1300,-1300 0,-717.96 0,-1238.19 0,-1238.19"/>
  <path class="fil0 str0" d="M14969.02 4136.48c0,-717.96 -582.04,-1300 -1300,-1300 -717.96,0 -1300,582.04 -1300,1300 0,717.96 582.04,1300 1300,1300 717.96,0 1300,-582.04 1300,-1300 0,-717.96 0,-1238.19 0,-1238.19"/>
  <path class="fil0 str0" d="M14969.02 1430.35c0,-717.96 -582.04,-1300 -1300,-1300 -717.96,0 -1300,582.04 -1300,1300 0,717.96 582.04,1300 1300,1300 717.96,0 1300,-582.04 1300,-1300 0,-717.96 0,-1238.19 0,-1238.19"/>
  <path class="fil0 str0" d="M1199.97 2180.29c421.01,0 762.31,-341.31 762.31,-762.31 0,-421 -341.3,-762.31 -762.31,-762.31 -421,0 -762.3,341.31 -762.3,762.31 0,421 341.3,762.31 762.3,762.31 421.01,0 726.07,0 726.07,0m860.78 0c421,0 762.31,-341.31 762.31,-762.31 0,-421 -341.31,-762.31 -762.31,-762.31 -421,0 -762.31,341.31 -762.31,762.31 0,421 341.31,762.31 762.31,762.31 421,0 726.06,0 726.06,0m-2312.91 1592.86c421.01,0 762.31,-341.3 762.31,-762.3 0,-421.01 -341.3,-762.31 -762.31,-762.31 -421,0 -762.3,341.3 -762.3,762.31 0,421 341.3,762.3 762.3,762.3 421.01,0 726.07,0 726.07,0m860.78 0c421,0 762.31,-341.3 762.31,-762.3 0,-421.01 -341.31,-762.31 -762.31,-762.31 -421,0 -762.31,341.3 -762.31,762.31 0,421 341.31,762.3 762.31,762.3 421,0 726.06,0 726.06,0m-2312.91 1582.52c421.01,0 762.31,-341.3 762.31,-762.3 0,-421.01 -341.3,-762.31 -762.31,-762.31 -421,0 -762.3,341.3 -762.3,762.31 0,421 341.3,762.3 762.3,762.3 421.01,0 726.07,0 726.07,0m860.78 0c421,0 762.31,-341.3 762.31,-762.3 0,-421.01 -341.31,-762.31 -762.31,-762.31 -421,0 -762.31,341.3 -762.31,762.31 0,421 341.31,762.3 762.31,762.3 421,0 726.06,0 726.06,0"/>
 </g>
</svg>
