<?xml version="1.0" encoding="UTF-8"?>
<!DOCTYPE svg PUBLIC "-//W3C//DTD SVG 1.1//EN" "http://www.w3.org/Graphics/SVG/1.1/DTD/svg11.dtd">
<!-- Creator: CorelDRAW X8 -->
<svg xmlns="http://www.w3.org/2000/svg" xml:space="preserve" width="40mm" height="60mm" version="1.1" style="shape-rendering:geometricPrecision; text-rendering:geometricPrecision; image-rendering:optimizeQuality; fill-rule:evenodd; clip-rule:evenodd"
viewBox="0 0 4000 6000"
 xmlns:xlink="http://www.w3.org/1999/xlink">
 <defs>
  <style type="text/css">
   <![CDATA[
    .str0 {stroke:#332C2B;stroke-width:20}
    .str1 {stroke:#332C2B;stroke-width:10}
    .fil0 {fill:none}
   ]]>
  </style>
 </defs>
 <g id="图层_x0020_1">
  <metadata id="CorelCorpID_0Corel-Layer"/>
  <path class="fil0 str0" d="M-1025 3987c-68,0 -250,-68 -246,-916 5,-848 -2,-1788 -35,-2706 37,-488 -285,-899 -731,-913l-13363 -11c-434,-1 -730,385 -723,919 -135,2190 -32,5315 -17,5763 0,428 306,779 740,779l13363 0c434,0 713,-360 713,-789 0,-276 45,-1510 53,-3042"/>
  <path class="fil0 str0" d="M-15675 4710c-289,0 -373,358 -373,496 0,138 113,251 251,251l0 0c138,0 251,-113 251,-251l0 -2614c0,-138 -113,-250 -251,-250l0 0c-138,0 -251,112 -251,250l0 2614"/>
  <g id="_2444956923456">
   <path class="fil0 str1" d="M809 5108c0,137 115,225 252,225 137,0 1012,34 1834,6 156,11 287,-90 292,-231l4 -4208c0,-137 -124,-230 -294,-228 -699,-43 -1696,-10 -1839,-6 -137,0 -249,97 -249,234l0 4208z"/>
   <path class="fil0 str1" d="M1522 842c0,-90 -112,-116 -154,-116 -43,0 -78,35 -78,78l0 0c0,43 35,78 78,78l812 0c43,0 78,-35 78,-78l0 0c0,-43 -35,-78 -78,-78l-812 0"/>
  </g>
 </g>
</svg>
