<?xml version="1.0" encoding="UTF-8"?>
<!DOCTYPE svg PUBLIC "-//W3C//DTD SVG 1.1//EN" "http://www.w3.org/Graphics/SVG/1.1/DTD/svg11.dtd">
<!-- Creator: CorelDRAW X8 -->
<svg xmlns="http://www.w3.org/2000/svg" xml:space="preserve" width="40mm" height="60mm" version="1.1" style="shape-rendering:geometricPrecision; text-rendering:geometricPrecision; image-rendering:optimizeQuality; fill-rule:evenodd; clip-rule:evenodd"
viewBox="0 0 4000 6000"
 xmlns:xlink="http://www.w3.org/1999/xlink">
 <defs>
  <style type="text/css">
   <![CDATA[
    .str0 {stroke:black;stroke-width:7.62}
    .fil0 {fill:none}
   ]]>
  </style>
 </defs>
 <g id="图层_x0020_1">
  <metadata id="CorelCorpID_0Corel-Layer"/>
  <path class="fil0 str0" d="M269 5250l3430 0c57,0 104,-47 104,-104l0 -4292c0,-57 -47,-104 -104,-104l-654 0c-10,0 -14,1 -14,11l0 92c0,40 -33,73 -73,73l0 0c-41,0 -74,-33 -74,-73l0 -90c0,-9 -2,-13 -10,-13l-2573 0c-57,0 -104,47 -104,104l0 4292c0,57 47,104 104,104l16 0"/>
 </g>
</svg>
