<?xml version="1.0" encoding="UTF-8"?>
<!DOCTYPE svg PUBLIC "-//W3C//DTD SVG 1.1//EN" "http://www.w3.org/Graphics/SVG/1.1/DTD/svg11.dtd">
<!-- Creator: CorelDRAW X8 -->
<svg xmlns="http://www.w3.org/2000/svg" xml:space="preserve" width="40mm" height="60mm" version="1.1" style="shape-rendering:geometricPrecision; text-rendering:geometricPrecision; image-rendering:optimizeQuality; fill-rule:evenodd; clip-rule:evenodd"
viewBox="0 0 4000 6000"
 xmlns:xlink="http://www.w3.org/1999/xlink">
 <defs>
  <style type="text/css">
   <![CDATA[
    .str0 {stroke:#332C2B;stroke-width:19.4}
    .fil0 {fill:none;fill-rule:nonzero}
   ]]>
  </style>
 </defs>
 <g id="图层_x0020_1">
  <metadata id="CorelCorpID_0Corel-Layer"/>
  <g id="_2174111598800">
   <g>
    <line class="fil0 str0" x1="3354" y1="651" x2="3354" y2= "685" />
    <polyline class="fil0 str0" points="1041,1226 1030,1226 1030,1222 1030,1223 1023,1221 "/>
    <path class="fil0 str0" d="M1023 1221c1,-1 1,-2 1,-2"/>
    <polyline class="fil0 str0" points="1024,1219 1025,1218 1025,1217 1019,1213 1021,1211 1021,1211 1022,1210 1019,1205 1020,1204 1021,1204 1021,1203 1022,1203 1021,1197 1026,1197 1028,1190 1026,1190 "/>
    <path class="fil0 str0" d="M1026 1190c2,0 3,0 5,1"/>
    <polyline class="fil0 str0" points="1031,1191 1034,1185 1036,1186 1037,1186 1038,1188 1044,1184 1044,1185 1046,1186 1046,1190 1053,1189 1053,1192 1060,1192 1060,1195 "/>
    <path class="fil0 str0" d="M1060 1195c-1,1 -1,1 -2,3"/>
    <polyline class="fil0 str0" points="1058,1198 1064,1203 1064,1202 1063,1203 1063,1203 1061,1205 1065,1211 1065,1211 1063,1213 1060,1213 1060,1219 1056,1219 1058,1219 1057,1226 "/>
    <path class="fil0 str0" d="M1057 1226c-3,0 -5,-1 -5,-1"/>
    <polyline class="fil0 str0" points="1052,1225 1051,1225 1051,1224 1047,1229 1045,1228 1045,1227 1044,1227 1038,1231 1037,1230 1037,1230 1037,1229 1037,1227 1030,1229 1030,1223 1023,1221 "/>
    <line class="fil0 str0" x1="1245" y1="1356" x2="1245" y2= "1367" />
    <path class="fil0 str0" d="M1245 1367c-7,-1 -10,-4 -11,-11"/>
    <polyline class="fil0 str0" points="1234,1356 1124,1356 1124,1352 1125,1351 1120,1349 1121,1347 1122,1346 "/>
    <path class="fil0 str0" d="M1122 1346c2,-2 2,-2 3,-2"/>
    <polyline class="fil0 str0" points="1125,1344 1126,1343 1124,1340 1125,1340 "/>
    <path class="fil0 str0" d="M1125 1340c1,-1 1,-1 4,-1"/>
    <line class="fil0 str0" x1="1129" y1="1339" x2="1131" y2= "1339" />
    <path class="fil0 str0" d="M1131 1339c2,-22 2,-25 16,-68 1,-4 2,-7 3,-10 2,-10 3,-19 3,-27 0,-49 -59,-104 -112,-104 -58,0 -114,52 -114,105 0,14 2,22 13,57 8,24 9,30 14,70 -2,0 -4,-1 -6,-1"/>
    <polyline class="fil0 str0" points="948,1361 946,1364 944,1363 "/>
    <path class="fil0 str0" d="M944 1363c-1,-1 -2,-3 -3,-4"/>
    <line class="fil0 str0" x1="941" y1="1359" x2="937" y2= "1361" />
    <path class="fil0 str0" d="M937 1361c0,-1 0,-3 0,-4 0,-1 0,-1 0,-1"/>
    <polyline class="fil0 str0" points="937,1356 716,1356 716,1358 708,1360 708,1362 709,1363 709,1363 710,1364 704,1369 704,1369 704,1369 705,1369 705,1370 706,1371 702,1377 703,1377 704,1378 706,1379 704,1386 704,1386 707,1386 702,1903 "/>
    <path class="fil0 str0" d="M702 1903c-2,161 2,215 15,237 4,-2 5,-4 7,-7"/>
    <polyline class="fil0 str0" points="724,2133 724,2134 1012,2138 "/>
    <path class="fil0 str0" d="M1012 2138c99,2 74,1 173,2 125,0 174,-3 196,-14"/>
    <polyline class="fil0 str0" points="1381,2126 1381,2123 1379,2122 1378,2121 1375,2119 1375,1363 1372,1363 1370,1356 1369,1356 1368,1357 1367,1357 1366,1358 1362,1352 1362,1352 1361,1352 1361,1353 1360,1353 1359,1354 1353,1350 1353,1351 1353,1352 1352,1354 1344,1352 1344,1352 1344,1356 1220,1356 "/>
    <line class="fil0 str0" x1="1436" y1="926" x2="1425" y2= "922" />
    <path class="fil0 str0" d="M1425 922c2,-5 4,-6 8,-8 -48,-160 -201,-259 -402,-259 -175,0 -329,95 -368,228 -11,38 -17,78 -17,113 0,84 41,143 100,143"/>
    <line class="fil0 str0" x1="746" y1="1139" x2="751" y2= "1139" />
    <path class="fil0 str0" d="M751 1139c8,1 8,1 75,-20"/>
    <line class="fil0 str0" x1="826" y1="1119" x2="860" y2= "1108" />
    <path class="fil0 str0" d="M860 1108c52,-16 111,-24 178,-24 99,0 200,15 278,40 20,6 36,9 50,9 28,0 45,-10 68,-38"/>
    <polyline class="fil0 str0" points="1434,1095 1434,1094 1433,1094 1440,1086 1439,1084 "/>
    <path class="fil0 str0" d="M1439 1084c-2,0 -4,-1 -5,-1"/>
    <line class="fil0 str0" x1="1434" y1="1083" x2="1436" y2= "1083" />
    <path class="fil0 str0" d="M1436 1083c6,-11 9,-32 9,-60 0,-38 -3,-63 -15,-123"/>
    <line class="fil0 str0" x1="710" y1="928" x2="707" y2= "916" />
    <path class="fil0 str0" d="M707 916c-4,2 -5,4 -8,10"/>
    <line class="fil0 str0" x1="699" y1="926" x2="697" y2= "926" />
    <path class="fil0 str0" d="M697 926c-10,-8 -14,-12 -17,-16 -2,-3 -3,-7 -3,-14 0,-17 15,-31 32,-31 18,0 32,14 32,32 0,18 -12,30 -31,30 -6,0 -16,-2 -24,-4"/>
    <line class="fil0 str0" x1="1030" y1="877" x2="1019" y2= "875" />
    <path class="fil0 str0" d="M1019 875c2,-7 5,-9 12,-10 -1,-9 -1,-16 -1,-21 0,-29 11,-43 34,-43 26,0 33,15 33,71 0,35 -2,53 -6,64 -5,11 -13,15 -28,15 -24,0 -34,-16 -34,-55 0,-12 1,-26 2,-45"/>
    <line class="fil0 str0" x1="3161" y1="1356" x2="3162" y2= "1344" />
    <path class="fil0 str0" d="M3162 1344c-7,0 -11,4 -12,12"/>
    <polyline class="fil0 str0" points="3150,1356 3039,1356 3039,1352 3040,1351 3040,1350 3037,1348 3038,1347 "/>
    <path class="fil0 str0" d="M3038 1347c1,-1 3,-3 4,-4"/>
    <line class="fil0 str0" x1="3042" y1="1343" x2="3040" y2= "1340" />
    <path class="fil0 str0" d="M3040 1340c2,-1 3,-1 5,-1 0,0 1,0 2,0 1,-21 1,-22 15,-67 5,-15 7,-27 7,-38 0,-49 -59,-104 -113,-104 -53,0 -113,55 -113,104 0,14 2,24 13,58 8,24 9,30 15,70 -3,0 -5,-1 -7,-1"/>
    <line class="fil0 str0" x1="2864" y1="1361" x2="2862" y2= "1364" />
    <path class="fil0 str0" d="M2862 1364c-3,-3 -4,-3 -5,-6"/>
    <polyline class="fil0 str0" points="2857,1358 2853,1360 2852,1359 2852,1356 2632,1356 2632,1358 2624,1360 2624,1362 2625,1363 2625,1363 2626,1364 2620,1369 2621,1369 2621,1369 2622,1369 2622,1370 2622,1371 2618,1377 2619,1377 2620,1378 2621,1378 2621,1378 2622,1379 2621,1386 2620,1386 2623,1386 2618,1903 "/>
    <path class="fil0 str0" d="M2618 1903c-2,161 2,215 15,237 4,-2 6,-5 7,-7"/>
    <polyline class="fil0 str0" points="2640,2133 2640,2134 3088,2138 "/>
    <path class="fil0 str0" d="M3088 2138c137,2 187,-1 210,-12"/>
    <polyline class="fil0 str0" points="3298,2126 3297,2123 3295,2122 3294,2121 3291,2119 3291,1363 3288,1363 3287,1356 3285,1356 3284,1357 3283,1357 3282,1358 3278,1352 3278,1352 3277,1352 3277,1353 3276,1353 3276,1354 3270,1350 3270,1351 3269,1352 "/>
    <path class="fil0 str0" d="M3269 1352c0,0 -1,1 -1,2"/>
    <polyline class="fil0 str0" points="3268,1354 3260,1352 3260,1352 3260,1356 3137,1356 "/>
    <polyline class="fil0 str0" points="2957,1226 2946,1226 2946,1222 2946,1223 2939,1221 "/>
    <path class="fil0 str0" d="M2939 1221c1,-1 1,-2 1,-2"/>
    <polyline class="fil0 str0" points="2940,1219 2941,1218 2941,1217 2935,1213 2937,1211 2938,1211 2938,1210 2935,1205 2936,1204 2937,1204 2938,1203 2938,1203 2937,1197 2943,1197 2944,1190 2943,1190 "/>
    <path class="fil0 str0" d="M2943 1190c2,0 2,0 4,1"/>
    <polyline class="fil0 str0" points="2947,1191 2950,1185 2952,1186 2953,1186 2954,1188 2960,1184 2960,1185 2962,1186 2962,1190 2969,1189 2969,1192 2976,1192 2976,1195 "/>
    <path class="fil0 str0" d="M2976 1195c-1,1 -1,1 -2,3"/>
    <polyline class="fil0 str0" points="2974,1198 2980,1203 2979,1203 "/>
    <path class="fil0 str0" d="M2979 1203c-1,2 -1,2 -3,2"/>
    <polyline class="fil0 str0" points="2976,1205 2976,1206 2979,1212 2978,1212 2977,1213 2977,1213 2978,1219 2972,1219 2971,1226 "/>
    <path class="fil0 str0" d="M2971 1226c-2,0 -2,0 -3,-1"/>
    <polyline class="fil0 str0" points="2968,1225 2967,1225 2966,1225 2967,1225 2964,1230 2962,1229 2962,1228 2961,1228 2961,1227 2960,1227 2954,1231 2954,1230 2954,1230 2953,1229 2953,1227 2946,1229 2946,1223 2939,1221 "/>
    <line class="fil0 str0" x1="2555" y1="1045" x2="2544" y2= "1041" />
    <path class="fil0 str0" d="M2544 1041c0,7 2,10 7,15"/>
    <line class="fil0 str0" x1="2551" y1="1056" x2="2556" y2= "1056" />
    <path class="fil0 str0" d="M2556 1056c0,13 2,20 16,49"/>
    <polyline class="fil0 str0" points="2572,1105 2572,1105 2573,1104 2574,1104 2580,1113 2581,1112 2581,1111 2581,1112 "/>
    <path class="fil0 str0" d="M2581 1112c21,14 35,19 52,19 13,0 29,-3 53,-12 25,-8 28,-9 37,-12 56,-16 159,-28 241,-28 88,0 132,9 242,47 20,7 36,10 49,10 57,0 99,-61 99,-146 0,-119 -50,-209 -153,-276 -65,-42 -142,-64 -229,-64 -248,0 -419,147 -419,360 0,17 0,23 3,59"/>
    <polyline class="fil0 str0" points="3256,896 3257,907 3264,904 3268,898 3268,892 3264,886 3259,884 3259,883 "/>
    <path class="fil0 str0" d="M3259 883c9,-13 20,-20 31,-20 16,0 30,16 30,33 0,17 -14,31 -32,31 -19,0 -31,-12 -31,-32 0,-6 1,-9 4,-24"/>
    <polyline class="fil0 str0" points="2968,876 2971,864 2976,866 2980,872 2980,880 2976,886 2968,887 "/>
    <path class="fil0 str0" d="M2968 887c0,6 0,12 0,16 0,35 -10,49 -34,49 -27,0 -34,-15 -34,-72 0,-34 2,-52 7,-63 5,-10 13,-15 28,-15 24,0 34,17 34,58 0,10 0,23 -1,41"/>
    <line class="fil0 str0" x1="2668" y1="2247" x2="2668" y2= "2258" />
    <path class="fil0 str0" d="M2668 2258c-6,-2 -11,-6 -11,-12"/>
    <line class="fil0 str0" x1="2657" y1="2246" x2="2356" y2= "2247" />
    <path class="fil0 str0" d="M2356 2247c1,4 2,7 7,10 -16,33 -34,43 -74,44"/>
    <line class="fil0 str0" x1="2289" y1="2301" x2="1673" y2= "2298" />
    <path class="fil0 str0" d="M1673 2298c-23,-4 -33,-14 -57,-59 -4,4 -5,6 -6,11"/>
    <polyline class="fil0 str0" points="1610,2250 1018,2250 1018,2254 1015,2255 "/>
    <path class="fil0 str0" d="M1015 2255c2,3 3,4 8,7"/>
    <polyline class="fil0 str0" points="1023,2262 1022,2265 1026,2265 1026,3241 1030,3241 1031,3243 "/>
    <path class="fil0 str0" d="M1031 3243c4,-3 5,-4 7,-8"/>
    <polyline class="fil0 str0" points="1038,3235 1038,3236 1041,3236 1041,3232 1041,3233 1463,3232 "/>
    <path class="fil0 str0" d="M1463 3232c95,0 115,0 125,4 10,3 12,10 13,44 6,273 9,527 9,720 0,248 -4,340 -14,357"/>
    <polyline class="fil0 str0" points="1596,4357 1592,4356 1591,4355 1591,4355 1591,4355 1585,4365 "/>
    <path class="fil0 str0" d="M1585 4365c-1,-1 -2,-1 -2,-2"/>
    <polyline class="fil0 str0" points="1583,4363 1583,4362 1582,4361 1581,4362 "/>
    <path class="fil0 str0" d="M1581 4362c-14,3 -36,4 -96,4"/>
    <polyline class="fil0 str0" points="1485,4366 1069,4363 1069,4361 1069,4367 1066,4368 "/>
    <path class="fil0 str0" d="M1066 4368c2,3 4,5 8,8"/>
    <polyline class="fil0 str0" points="1074,4376 1073,4378 1076,4378 1074,5349 "/>
    <path class="fil0 str0" d="M1074 5349c3,0 5,0 7,-2"/>
    <line class="fil0 str0" x1="1081" y1="5347" x2="1082" y2= "5350" />
    <path class="fil0 str0" d="M1082 5350c3,-1 3,-2 5,-4"/>
    <line class="fil0 str0" x1="1087" y1="5346" x2="1088" y2= "5347" />
    <path class="fil0 str0" d="M1088 5347c1,-2 1,-4 1,-4 0,-1 0,-1 0,-1"/>
    <polyline class="fil0 str0" points="1089,5342 1617,5342 1617,5339 1627,5337 1627,5336 1626,5335 1626,5334 1625,5333 1625,5332 1634,5326 1632,5325 1631,5325 1630,5324 1631,5324 1637,5315 1634,5314 1631,5314 1633,5314 1636,5303 1632,5303 "/>
    <path class="fil0 str0" d="M1632 5303c0,-36 13,-46 54,-47"/>
    <line class="fil0 str0" x1="1686" y1="5256" x2="2229" y2= "5267" />
    <path class="fil0 str0" d="M2229 5267c65,0 82,-1 113,-6 2,-1 3,-1 4,-1 18,0 24,15 27,65"/>
    <polyline class="fil0 str0" points="2373,5325 2375,5325 2378,5336 2379,5336 2379,5336 2380,5336 2381,5335 2381,5336 2386,5344 2388,5342 2389,5342 2390,5341 2398,5347 2399,5345 2399,5344 2400,5343 2400,5341 2400,5342 2411,5343 2411,5341 2411,5342 2922,5342 2922,5337 2925,5336 "/>
    <path class="fil0 str0" d="M2925 5336c-3,-3 -5,-5 -9,-7"/>
    <polyline class="fil0 str0" points="2916,5329 2917,5329 2918,5326 2903,5338 2915,5326 2916,4356 2912,4356 "/>
    <path class="fil0 str0" d="M2912 4356c0,1 -1,1 -2,2"/>
    <polyline class="fil0 str0" points="2910,4358 2908,4355 2907,4355 2904,4360 2902,4359 2902,4360 2901,4361 2901,4365 2543,4367 "/>
    <path class="fil0 str0" d="M2543 4367c-83,1 -107,-1 -130,-7"/>
    <polyline class="fil0 str0" points="2413,4360 2414,4356 2415,4355 2415,4355 2406,4348 2406,4347 2407,4347 2407,4346 2408,4346 2408,4345 2401,4336 "/>
    <path class="fil0 str0" d="M2401 4336c2,-1 4,-1 6,-2"/>
    <polyline class="fil0 str0" points="2407,4334 2406,4334 2407,3257 "/>
    <path class="fil0 str0" d="M2407 3257c4,-26 5,-26 130,-26"/>
    <polyline class="fil0 str0" points="2537,3231 2980,3233 2980,3229 2982,3228 "/>
    <path class="fil0 str0" d="M2982 3228c-2,-4 -3,-5 -8,-8"/>
    <polyline class="fil0 str0" points="2974,3220 2975,3220 2976,3218 2971,3218 2971,3184 2972,3184 2973,2239 2969,2239 2968,2236 "/>
    <path class="fil0 str0" d="M2968 2236c-3,2 -5,4 -8,8"/>
    <polyline class="fil0 str0" points="2960,2244 2958,2243 2958,2247 2958,2246 2644,2247 "/>
    <polyline class="fil0 str0" points="2001,4556 1990,4556 1990,4552 1990,4555 "/>
    <path class="fil0 str0" d="M1990 4555c-52,-5 -92,-49 -92,-102 0,-57 47,-103 104,-103 58,0 103,45 103,103 0,57 -44,103 -100,103 -8,0 -16,-1 -36,-4"/>
    <polyline class="fil0 str0" points="2005,3837 1994,3835 1994,3833 1994,3837 "/>
    <path class="fil0 str0" d="M1994 3837c-20,0 -39,0 -59,0 -60,1 -78,-10 -78,-47 0,-15 7,-30 18,-37 14,-9 33,-11 132,-11 73,0 102,2 120,8 18,6 23,16 23,41 0,35 -19,47 -77,47 -53,-1 -40,0 -93,-1"/>
    <line class="fil0 str0" x1="1609" y1="1579" x2="1598" y2= "1579" />
    <path class="fil0 str0" d="M1598 1579c1,7 6,12 11,12"/>
    <line class="fil0 str0" x1="1609" y1="1591" x2="1609" y2= "2229" />
    <path class="fil0 str0" d="M1609 2229c8,0 9,-1 12,-11"/>
    <line class="fil0 str0" x1="1621" y1="2218" x2="1637" y2= "2218" />
    <path class="fil0 str0" d="M1637 2218c0,-4 -2,-8 -5,-10 26,-37 27,-37 100,-37"/>
    <line class="fil0 str0" x1="1732" y1="2171" x2="2076" y2= "2169" />
    <path class="fil0 str0" d="M2076 2169c185,-2 222,-1 243,3 22,5 31,13 60,56 5,-5 5,-6 5,-9 0,-1 0,-1 0,-1"/>
    <line class="fil0 str0" x1="2384" y1="2218" x2="2401" y2= "2218" />
    <path class="fil0 str0" d="M2401 2218c0,-7 -4,-11 -12,-12"/>
    <line class="fil0 str0" x1="2389" y1="2206" x2="2390" y2= "1100" />
    <path class="fil0 str0" d="M2390 1100c0,-138 0,-166 -4,-180 -4,-14 -12,-17 -48,-18 -173,-4 -337,-6 -464,-6 -207,0 -250,3 -260,17 -3,5 -4,14 -5,40"/>
    <line class="fil0 str0" x1="1609" y1="953" x2="1609" y2= "1604" />
   </g>
  </g>
 </g>
</svg>
