<?xml version="1.0" encoding="UTF-8"?>
<!DOCTYPE svg PUBLIC "-//W3C//DTD SVG 1.1//EN" "http://www.w3.org/Graphics/SVG/1.1/DTD/svg11.dtd">
<!-- Creator: CorelDRAW 2020 (64-Bit) -->
<svg xmlns="http://www.w3.org/2000/svg" xml:space="preserve" width="40mm" height="60mm" version="1.1" style="shape-rendering:geometricPrecision; text-rendering:geometricPrecision; image-rendering:optimizeQuality; fill-rule:evenodd; clip-rule:evenodd"
viewBox="0 0 4000 6000"
 xmlns:xlink="http://www.w3.org/1999/xlink"
 xmlns:xodm="http://www.corel.com/coreldraw/odm/2003">
 <defs>
  <style type="text/css">
   <![CDATA[
    .str2 {stroke:#332C2B;stroke-width:20;stroke-miterlimit:22.9256}
    .str3 {stroke:#332C2B;stroke-width:20;stroke-miterlimit:22.9256}
    .str1 {stroke:#E62129;stroke-width:20;stroke-miterlimit:22.9256}
    .str0 {stroke:#E62129;stroke-width:20;stroke-miterlimit:22.9256}
    .fil0 {fill:none}
   ]]>
  </style>
   <clipPath id="id0">
    <rect x="-44073.42" y="-4569.56" width="12827.96" height="16555.75"/>
   </clipPath>
 </defs>
 <g id="图层_x0020_1">
  <metadata id="CorelCorpID_0Corel-Layer"/>
  <g style="clip-path:url(#id0)">
   <image x="-44073.42" y="-4569.56" width="12827.96" height="16555.74" xlink:href="403 -11i（背膜）_Images\403 -11i（背膜）_ImgID1.png"/>
  </g>
  <rect class="fil0 str0" x="-43855.01" y="-4154.41" width="7820" height="15920"/>
  <rect class="fil0 str0" x="-43682.73" y="-3999.59" width="7475.44" height="15607.82" rx="800" ry="882.26"/>
  <rect class="fil0 str1" x="-43279.81" y="-3636.67" width="2335.58" height="3604.53" rx="550" ry="548.94"/>
  <rect class="fil0 str1" x="-43117.7" y="-3433.42" width="2011.37" height="2435.66" rx="400" ry="313.25"/>
  <circle class="fil0 str2" cx="-42114.15" cy="-2513.96" r="747.45"/>
  <rect class="fil0 str1" x="-42497.22" y="-1639.36" width="771.26" height="357.19" rx="305.77" ry="300"/>
  <path class="fil0 str3" d="M-5769.24 6626.96l0 -6440.34c0,-439.98 -360.02,-800 -800,-800l-14007.83 0c-439.99,0 -800,360.01 -800,800l0 5875.45c0,439.99 360.01,799.99 800,799.99l14007.83 0c439.99,0 800,-360 800,-799.99 0,-439.99 53.07,-741.45 141.7,-918.73"/>
  <path class="fil0 str3" d="M-21014.15 5909.15l0 -1235.58c0,-302.5 247.5,-550 550,-550l2504.53 0c302.5,0 550,247.5 550,550l0 1235.58c0,302.5 -247.5,550 -550,550l-2504.53 0c-302.5,0 -550,-247.5 -550,-550z"/>
  <path class="fil0 str3" d="M-20810.9 5897.05l0 -1211.38c0,-220 180,-399.99 400,-399.99l1635.66 0c220,0 400,179.99 400,399.99l0 1211.38c0,219.99 -180,399.99 -400,399.99l-1635.66 0c-220,0 -400,-180 -400,-399.99z"/>
  <path class="fil0 str3" d="M-19743.07 5696.36c-298.98,127 -895.82,9.94 -895.82,-402.87 0,-412.81 334.64,-747.45 747.45,-747.45 412.81,0 747.45,334.64 747.45,747.45 0,412.81 -334.64,747.45 -747.45,747.45 -412.81,0 -747.45,-334.64 -747.45,-747.45"/>
  <path class="fil0 str3" d="M-18946.03 5157.89c-62.84,69.46 -70.8,340.07 -70.8,340.07l0 -414.08c0,-98.23 80.36,-178.59 178.59,-178.59l0.01 0c98.23,0 178.59,80.36 178.59,178.59l0 414.08c0,98.23 -80.36,178.59 -178.59,178.59l-0.01 0c-98.23,0 -178.59,-80.36 -178.59,-178.59"/>
  <g id="_2454995072832">
   <path class="fil0 str3" d="M948.14 5313.39l1921.94 0c131.3,0 238.74,-107.44 238.74,-238.74l0 -4180.24c0,-131.3 -107.44,-238.74 -238.74,-238.74l-1753.36 0c-131.3,0 -238.74,107.44 -238.74,238.74l0 4180.24c0,131.3 107.44,238.74 238.74,238.74 131.3,0 221.26,15.83 274.17,42.28"/>
   <path class="fil0 str3" d="M1162.35 763.97l368.73 0c90.27,0 164.13,73.86 164.13,164.14l0 747.4c0,90.27 -73.86,164.13 -164.13,164.13l-368.73 0c-90.27,0 -164.13,-73.86 -164.13,-164.13l0 -747.4c0,-90.28 73.86,-164.14 164.13,-164.14z"/>
   <path class="fil0 str3" d="M1165.96 824.63l361.51 0c65.65,0 119.36,53.71 119.36,119.37l0 488.11c0,65.66 -53.71,119.37 -119.36,119.37l-361.51 0c-65.65,0 -119.36,-53.71 -119.36,-119.37l0 -488.11c0,-65.66 53.71,-119.37 119.36,-119.37z"/>
   <path class="fil0 str3" d="M1225.85 1143.29c-37.89,-89.22 -2.96,-267.33 120.23,-267.33 123.19,0 223.05,99.86 223.05,223.06 0,123.19 -99.86,223.05 -223.05,223.05 -123.19,0 -223.06,-99.86 -223.06,-223.05 0,-123.2 99.87,-223.06 223.06,-223.06"/>
   <path class="fil0 str3" d="M1386.55 1381.15c-20.73,-18.76 -101.49,-21.13 -101.49,-21.13l123.57 0c29.32,0 53.3,23.98 53.3,53.29l0 0.01c0,29.31 -23.98,53.29 -53.3,53.29l-123.57 0c-29.31,0 -53.29,-23.98 -53.29,-53.29l0 -0.01c0,-29.31 23.98,-53.29 53.29,-53.29"/>
  </g>
 </g>
</svg>
