<?xml version="1.0" encoding="UTF-8"?>
<!DOCTYPE svg PUBLIC "-//W3C//DTD SVG 1.1//EN" "http://www.w3.org/Graphics/SVG/1.1/DTD/svg11.dtd">
<!-- Creator: CorelDRAW X8 -->
<svg xmlns="http://www.w3.org/2000/svg" xml:space="preserve" width="40mm" height="60mm" version="1.1" style="shape-rendering:geometricPrecision; text-rendering:geometricPrecision; image-rendering:optimizeQuality; fill-rule:evenodd; clip-rule:evenodd"
viewBox="0 0 4000 6000"
 xmlns:xlink="http://www.w3.org/1999/xlink">
 <defs>
  <style type="text/css">
   <![CDATA[
    .str0 {stroke:black;stroke-width:7.62}
    .fil0 {fill:none}
   ]]>
  </style>
 </defs>
 <g id="图层_x0020_1">
  <metadata id="CorelCorpID_0Corel-Layer"/>
  <path class="fil0 str0" d="M956 5350l1892 0c135,0 246,-111 246,-247l0 -4206c0,-136 -111,-247 -246,-247l-1696 0c-135,0 -246,111 -246,247l0 4206c0,136 111,247 246,247l261 0m394 -4660c0,-5 -4,-9 -12,-10 -30,0 -54,25 -54,54 0,30 24,54 54,54 29,0 54,-24 54,-54 0,-29 -25,-54 -54,-54m196 23c-4,-13 -8,-23 -30,-23l-19 0c-25,0 -46,21 -46,47l0 0c0,25 21,46 46,46l133 0c25,0 46,-21 46,-46l0 0c0,-26 -21,-47 -46,-47l-114 0"/>
 </g>
</svg>
