<?xml version="1.0" encoding="UTF-8"?>
<!DOCTYPE svg PUBLIC "-//W3C//DTD SVG 1.1//EN" "http://www.w3.org/Graphics/SVG/1.1/DTD/svg11.dtd">
<!-- Creator: CorelDRAW X8 -->
<svg xmlns="http://www.w3.org/2000/svg" xml:space="preserve" width="40mm" height="60mm" version="1.1" style="shape-rendering:geometricPrecision; text-rendering:geometricPrecision; image-rendering:optimizeQuality; fill-rule:evenodd; clip-rule:evenodd"
viewBox="0 0 4000 6000"
 xmlns:xlink="http://www.w3.org/1999/xlink">
 <defs>
  <style type="text/css">
   <![CDATA[
    .str0 {stroke:black;stroke-width:20}
    .fil0 {fill:none}
   ]]>
  </style>
 </defs>
 <g id="图层_x0020_1">
  <metadata id="CorelCorpID_0Corel-Layer"/>
  <path class="fil0 str0" d="M974 650l809 0c6,0 12,4 14,8 17,26 47,43 80,43l246 0c34,0 64,-18 81,-45 2,-3 5,-6 9,-6l813 0c88,0 161,73 161,161l0 4378c0,88 -73,161 -161,161l-2052 0c-88,0 -161,-72 -161,-161l0 -4378c0,-89 73,-161 161,-161zm339 57c40,0 72,33 72,73 0,40 -32,72 -72,72 -40,0 -73,-32 -73,-72 0,-40 33,-73 73,-73zm1061 -14c34,0 63,28 63,63 0,35 -29,63 -63,63 -35,0 -63,-28 -63,-63 0,-35 28,-63 63,-63z"/>
 </g>
</svg>
