<?xml version="1.0" encoding="UTF-8"?>
<!DOCTYPE svg PUBLIC "-//W3C//DTD SVG 1.1//EN" "http://www.w3.org/Graphics/SVG/1.1/DTD/svg11.dtd">
<!-- Creator: CorelDRAW X8 -->
<svg xmlns="http://www.w3.org/2000/svg" xml:space="preserve" width="40mm" height="60mm" version="1.1" style="shape-rendering:geometricPrecision; text-rendering:geometricPrecision; image-rendering:optimizeQuality; fill-rule:evenodd; clip-rule:evenodd"
viewBox="0 0 4000 6000"
 xmlns:xlink="http://www.w3.org/1999/xlink">
 <defs>
  <style type="text/css">
   <![CDATA[
    .str0 {stroke:black;stroke-width:7.62;stroke-linejoin:bevel}
    .fil0 {fill:none}
   ]]>
  </style>
 </defs>
 <g id="图层_x0020_1">
  <metadata id="CorelCorpID_0Corel-Layer"/>
  <path class="fil0 str0" d="M3198 5100c0,18 -1,36 -3,53 -7,66 -51,123 -113,146 -27,10 -56,17 -85,20 -332,21 -664,31 -997,31 -327,0 -654,-10 -981,-30 -33,-3 -66,-9 -98,-21 -42,-16 -77,-48 -97,-90 -14,-30 -22,-64 -22,-98l0 -4222c0,-34 8,-68 22,-98 20,-42 55,-74 97,-90 32,-12 65,-18 98,-21 326,-20 654,-30 981,-30 333,0 665,10 997,31 29,3 58,10 85,20 62,23 106,80 113,146 2,17 3,35 3,53l0 4200zm-1939 95c0,-30 -24,-55 -54,-55 -30,0 -54,25 -54,55 0,29 24,54 54,54 30,0 54,-25 54,-54zm-91 -4329c0,-36 -29,-66 -66,-66 -37,0 -67,30 -67,66 0,37 30,67 67,67 37,0 66,-30 66,-67zm213 88l102 0c32,0 62,-17 78,-45 15,-28 15,-62 0,-89 -16,-28 -46,-45 -78,-45l-102 0c-31,0 -61,17 -77,45 -16,27 -16,61 0,89 16,28 46,45 77,45zm941 -159c-216,-10 -432,-10 -648,0 -27,7 -43,35 -36,62 7,27 9,43 36,36 217,9 433,9 649,0 27,-9 41,-38 32,-65 -9,-27 -6,-41 -33,-33z"/>
 </g>
</svg>
