<?xml version="1.0" encoding="UTF-8"?>
<!DOCTYPE svg PUBLIC "-//W3C//DTD SVG 1.1//EN" "http://www.w3.org/Graphics/SVG/1.1/DTD/svg11.dtd">
<!-- Creator: CorelDRAW 2021 (64-Bit) -->
<svg xmlns="http://www.w3.org/2000/svg" xml:space="preserve" width="40mm" height="60mm" version="1.1" style="shape-rendering:geometricPrecision; text-rendering:geometricPrecision; image-rendering:optimizeQuality; fill-rule:evenodd; clip-rule:evenodd"
viewBox="0 0 4000 6000"
 xmlns:xlink="http://www.w3.org/1999/xlink"
 xmlns:xodm="http://www.corel.com/coreldraw/odm/2003">
 <defs>
  <style type="text/css">
   <![CDATA[
    .str1 {stroke:black;stroke-width:20;stroke-linecap:round;stroke-linejoin:round;stroke-miterlimit:22.9256}
    .str0 {stroke:red;stroke-width:20;stroke-linecap:round;stroke-linejoin:round;stroke-miterlimit:22.9256}
    .fil0 {fill:none}
   ]]>
  </style>
   <clipPath id="id0">
    <rect x="-46522.82" y="-5501.94" width="20849.16" height="17219.98"/>
   </clipPath>
 </defs>
 <g id="图层_x0020_1">
  <metadata id="CorelCorpID_0Corel-Layer"/>
  <g style="clip-path:url(#id0)">
   <image x="-46522.82" y="-5501.94" width="20849.16" height="17219.98" xlink:href="Z22-11i（背膜）_Images\Z22-11i（背膜）_ImgID1.png"/>
  </g>
  <rect class="fil0 str0" x="-45356.84" y="-5157.4" width="7500" height="16500"/>
  <rect class="fil0 str0" x="-33875.65" y="-4957.91" width="7251.46" height="16241.02" rx="849.99" ry="914.58"/>
  <path class="fil0 str0" d="M-44392.73 -4898.93l1962.37 0c47.7,0 115.69,67.11 151.94,67.11l145.93 0c122.33,1.11 146.33,132.74 195.26,275.73 48.93,142.99 212.27,292.05 363.76,292.05 151.49,0 290.95,-151.56 336.76,-289.45 45.81,-137.89 64.71,-278.33 282.36,-278.33l181.7 0c36.25,0 85.29,-67.11 124.92,-67.11l1826.78 0c439.99,0 799.99,360.01 799.99,800l0 14355.38c0,439.99 -360,800 -799.99,800l-5571.78 0c-439.99,0 -799.99,-360.01 -799.99,-800l0 -14355.38c0,-440 360,-800 799.99,-800z"/>
  <rect class="fil0 str1" x="-33513.91" y="-4508.23" width="2235.32" height="3898.77" rx="450" ry="457.55"/>
  <circle class="fil0 str1" cx="-30229.71" cy="-1114.31" r="619.96"/>
  <rect class="fil0 str1" x="-32954.29" y="10010.61" width="1483.52" height="235.84" rx="800" ry="773.37"/>
  <path class="fil0 str1" d="M-3768.86 6409.19l0 -6304.45c0,-467.48 -382.51,-849.99 -850,-849.99l-14541.02 0c-467.5,0 -850,382.5 -850,849.99l0 5551.48c0,467.49 382.5,849.99 850,849.99l14541.02 0c467.5,0 850,-382.5 850,-849.99 0,-467.49 99.09,-1118.04 395.61,-1507.85"/>
  <path class="fil0 str1" d="M-19560.21 5694.47c0,247.5 202.5,450 450,450l2998.77 0c247.5,0 450,-202.5 450,-450l0 -1335.32c0,-247.5 -202.5,-450 -450,-450l-2998.77 0c-247.5,0 -450,202.5 -450,450l0 1335.32c0,0 -10.59,-902.24 299.58,-1219.98"/>
  <path class="fil0 str1" d="M-16786.25 2860.27c0,342.39 277.57,619.96 619.96,619.96 342.39,0 619.96,-277.57 619.96,-619.96 0,-342.39 -277.57,-619.96 -619.96,-619.96 -342.39,0 -619.96,277.57 -619.96,619.96 0,342.39 312.2,485.6 445.95,507.53"/>
  <path class="fil0 str1" d="M-5041.37 5466.93c0,64.86 53.06,117.92 117.92,117.92l0 0c64.86,0 117.92,-53.06 117.92,-117.92l0 -1247.68c0,-64.86 -53.06,-117.92 -117.92,-117.92l0 0c-64.86,0 -117.92,53.06 -117.92,117.92l0 1247.68c0,0 21.23,-606.77 115.02,-781.07"/>
  <g id="_2985426597088">
   <path class="fil0 str1" d="M996.51 5243.91l1781.06 0c132.07,0 240.13,-108.06 240.13,-240.13l0 -4107.98c0,-132.07 -108.06,-240.13 -240.13,-240.13l-1568.34 0c-132.07,0 -240.13,108.06 -240.13,240.13l0 4107.98c0,132.07 108.06,240.13 240.13,240.13 132.07,0 315.86,27.99 425.98,111.76"/>
   <path class="fil0 str1" d="M1198.42 782.71c-69.92,0 -127.13,57.21 -127.13,127.13l0 847.18c0,69.92 57.21,127.13 127.13,127.13l377.24 0c69.92,0 127.13,-57.21 127.13,-127.13l0 -847.18c0,-69.92 -57.21,-127.13 -127.13,-127.13l-377.24 0c0,0 254.89,-2.99 344.66,84.63"/>
   <path class="fil0 str1" d="M1999.11 1566.38c-96.73,0 -175.14,78.41 -175.14,175.14 0,96.73 78.41,175.15 175.14,175.15 96.73,0 175.14,-78.42 175.14,-175.15 0,-96.73 -78.41,-175.14 -175.14,-175.14 -96.73,0 -137.19,88.2 -143.38,125.98"/>
   <path class="fil0 str1" d="M1262.71 4884.41c-18.33,0 -33.32,14.99 -33.32,33.32l0 0c0,18.32 14.99,33.31 33.32,33.31l352.48 0c18.32,0 33.31,-14.99 33.31,-33.31l0 0c0,-18.33 -14.99,-33.32 -33.31,-33.32l-352.48 0c0,0 171.41,6 220.65,32.5"/>
  </g>
 </g>
</svg>
