<?xml version="1.0" encoding="UTF-8"?>
<!DOCTYPE svg PUBLIC "-//W3C//DTD SVG 1.1//EN" "http://www.w3.org/Graphics/SVG/1.1/DTD/svg11.dtd">
<!-- Creator: CorelDRAW X8 -->
<svg xmlns="http://www.w3.org/2000/svg" xml:space="preserve" width="40mm" height="60mm" version="1.1" style="shape-rendering:geometricPrecision; text-rendering:geometricPrecision; image-rendering:optimizeQuality; fill-rule:evenodd; clip-rule:evenodd"
viewBox="0 0 4000 6000"
 xmlns:xlink="http://www.w3.org/1999/xlink">
 <defs>
  <style type="text/css">
   <![CDATA[
    .fil0 {fill:#332C2B;fill-rule:nonzero}
   ]]>
  </style>
 </defs>
 <g id="图层_x0020_1">
  <metadata id="CorelCorpID_0Corel-Layer"/>
  <g>
   <path class="fil0" d="M878 723c-3,-1 -4,-5 -2,-8 2,-3 6,-4 9,-2l-7 10zm51 -3l1 13 0 0 -2 0 -2 0 -1 0 -2 1 -2 0 -2 0 -2 0 -1 0 -2 0 -2 0 -1 -1 -2 0 -2 0 -1 0 -2 0 -2 -1 -1 0 -2 0 -2 -1 -1 0 -2 -1 -1 0 -2 -1 -1 0 -2 -1 -1 0 -2 -1 -1 -1 -2 0 -1 -1 -1 -1 -2 -1 7 -10 1 0 1 1 1 0 1 1 2 1 1 0 1 1 1 0 1 1 2 0 1 0 1 1 2 0 1 0 1 1 2 0 1 0 1 0 2 1 1 0 2 0 1 0 2 0 1 0 2 0 1 0 2 0 1 0 2 0 1 0 2 0 2 -1 0 0zm0 0c3,0 6,3 7,6 0,3 -2,7 -6,7l-1 -13zm2189 -76l0 12 0 0 -9 0 -20 1 -31 1 -41 1 -50 2 -58 2 -65 2 -73 3 -78 2 -84 3 -88 3 -92 4 -95 3 -97 3 -99 4 -100 3 -100 4 -99 3 -98 4 -96 3 -93 4 -90 3 -85 3 -80 3 -74 2 -67 3 -61 2 -52 2 -43 1 -34 2 -24 1 -12 0 -1 -13 13 0 23 -1 34 -1 44 -2 52 -2 60 -2 68 -2 74 -3 80 -3 85 -3 89 -3 93 -3 96 -4 98 -3 99 -4 100 -3 100 -4 99 -3 98 -4 95 -3 92 -3 88 -3 84 -3 78 -3 72 -2 66 -3 58 -2 50 -1 40 -2 31 -1 21 0 9 0 0 0zm0 0c4,0 7,3 7,6 0,4 -3,6 -7,6l0 -12zm23 24l-12 0 0 0 0 -2 0 -1 0 -1 0 -2 0 -1 0 -1 0 -1 0 0 0 -1 0 0 0 -1 0 0 0 0 0 0 0 0 0 0 0 0 0 0 0 0 0 0 0 0 -1 0 0 0 -1 0 0 0 -1 0 -1 -1 -1 0 -1 0 -2 0 -1 0 -2 0 0 -12 2 0 1 0 2 0 1 0 2 0 1 0 1 0 1 0 1 0 1 1 2 0 1 0 1 1 1 1 1 0 1 1 1 1 1 2 0 1 1 1 0 1 0 1 0 1 0 2 1 1 0 1 0 1 0 2 0 1 0 1 -1 2 0 1 0 0zm0 0c0,4 -3,7 -6,6 -4,0 -6,-3 -6,-6l12 0zm-88 2700l-13 0 0 0 1 -75 0 -81 1 -87 2 -91 2 -96 2 -100 3 -102 3 -106 3 -108 3 -110 4 -110 4 -112 4 -111 4 -111 4 -110 4 -108 4 -106 4 -104 4 -100 4 -97 4 -93 3 -87 4 -83 3 -76 3 -70 3 -63 2 -56 2 -48 2 -39 1 -30 1 -20 1 -10 12 0 0 11 -1 20 -1 30 -2 39 -2 47 -3 56 -2 63 -3 70 -4 77 -3 82 -4 88 -4 92 -4 97 -4 101 -4 103 -4 106 -4 109 -4 110 -4 110 -4 112 -3 111 -4 111 -3 109 -4 108 -2 106 -3 103 -2 99 -2 96 -2 91 -1 87 -1 81 0 75 0 0zm0 0c0,3 -3,6 -6,6 -4,0 -7,-3 -7,-6l13 0zm11 1964l-13 1 0 0 -1 -9 0 -16 -1 -23 0 -29 -1 -35 0 -41 -1 -47 0 -51 -1 -55 0 -60 -1 -64 0 -67 -1 -69 0 -73 -1 -75 0 -77 -1 -78 0 -79 0 -80 -1 -81 0 -80 0 -80 0 -80 -1 -78 0 -77 0 -74 0 -73 0 -70 0 -66 0 -64 0 -59 0 -55 13 0 0 55 0 59 0 64 0 66 0 70 0 73 0 74 0 77 0 78 0 79 1 81 0 80 0 81 1 80 0 79 0 78 1 77 0 75 1 72 0 70 1 67 0 64 1 60 0 55 1 51 0 46 1 41 0 36 1 29 1 22 0 16 1 9 0 0zm0 0c0,3 -2,6 -6,7 -3,0 -7,-3 -7,-6l13 -1zm-22 24l-2 -13 0 0 1 0 1 0 1 0 1 0 1 0 0 -1 1 0 1 0 0 0 1 0 0 -1 1 0 0 0 0 0 0 0 1 -1 0 0 0 0 0 0 0 -1 1 0 0 0 0 -1 0 0 0 0 0 -1 0 0 0 -1 0 -1 0 0 0 -1 0 -1 13 -1 0 1 0 1 0 1 0 1 0 2 0 1 -1 1 0 1 0 1 -1 1 0 1 -1 1 0 1 -1 1 -1 1 0 1 -1 1 -1 1 -1 0 -1 1 -1 1 -1 0 -1 0 -1 1 -1 0 -1 1 -1 0 -2 0 -1 0 -1 1 -1 0 -1 0 0 0zm0 0c-4,0 -7,-2 -7,-6 -1,-3 2,-6 5,-7l2 13zm-930 -15l0 -12 0 0 8 0 13 0 16 1 20 0 23 1 27 1 29 0 32 1 34 0 36 1 38 1 39 1 40 0 40 1 42 1 41 0 42 1 41 1 40 0 39 1 38 0 37 1 34 0 33 1 30 0 27 0 24 1 21 0 17 0 14 0 9 0 4 -1 2 13 -6 0 -9 0 -14 0 -17 0 -21 0 -24 0 -27 0 -31 -1 -32 0 -35 -1 -36 0 -38 -1 -39 0 -41 -1 -41 0 -41 -1 -42 -1 -41 0 -41 -1 -40 -1 -39 -1 -37 0 -36 -1 -34 -1 -32 0 -30 -1 -26 0 -23 -1 -20 -1 -17 0 -12 0 -8 -1 0 0zm0 0c-4,0 -7,-3 -6,-6 0,-4 3,-7 6,-6l0 12zm-1231 -52l1 -12 0 0 5 0 10 0 17 1 23 1 27 1 32 2 37 1 40 2 44 2 47 2 49 2 52 2 53 2 55 2 55 3 57 2 56 2 56 3 55 2 54 2 53 3 50 2 48 2 45 2 42 1 39 2 34 1 30 2 24 1 20 1 14 0 7 1 0 12 -8 0 -14 -1 -19 -1 -25 -1 -30 -1 -34 -1 -38 -2 -42 -2 -45 -2 -48 -2 -51 -2 -52 -2 -54 -2 -56 -3 -56 -2 -56 -2 -56 -3 -56 -2 -54 -2 -54 -2 -51 -3 -50 -2 -47 -2 -43 -1 -41 -2 -36 -2 -32 -1 -28 -1 -22 -1 -17 -1 -11 0 -5 -1 0 0zm0 0c-3,0 -6,-3 -5,-6 0,-4 3,-7 6,-6l-1 12zm-23 -26l13 0 0 0 0 1 0 1 0 1 0 1 0 1 0 1 1 0 0 1 0 1 0 0 0 1 0 0 1 1 0 0 0 0 0 1 1 0 0 0 0 0 1 1 0 0 0 0 1 0 0 1 1 0 1 0 0 0 1 0 1 0 0 1 1 0 1 0 -1 12 -1 0 -1 0 -1 0 -2 0 -1 -1 -1 0 -1 0 -1 -1 -1 0 -1 -1 -2 0 -1 -1 0 -1 -1 0 -1 -1 -1 -1 -1 -1 -1 -1 0 -1 -1 -1 0 -1 -1 -1 0 -2 0 -1 -1 -1 0 -1 0 -1 0 -2 0 -1 -1 -1 0 -2 0 -1 0 0zm0 0c0,-3 3,-6 7,-6 3,0 6,3 6,6l-13 0zm24 -2460l13 0 0 0 0 15 0 26 -1 38 0 49 -1 58 0 67 -1 75 -1 83 -1 89 0 95 -1 100 -1 103 -1 107 -2 109 -1 111 -1 112 -1 111 -1 111 -1 109 -1 106 -1 104 -1 99 -1 94 -1 88 -1 82 0 74 -1 66 -1 57 0 48 -1 36 0 25 0 13 -13 0 1 -13 0 -25 0 -36 1 -48 0 -57 1 -66 1 -74 1 -82 0 -88 1 -94 1 -99 1 -104 1 -106 1 -109 2 -111 1 -111 1 -112 1 -111 1 -109 1 -107 1 -104 1 -99 1 -95 1 -89 0 -83 1 -75 1 -67 0 -58 1 -49 0 -38 0 -26 0 -15 0 0zm0 0c0,-3 3,-6 7,-6 3,0 6,3 6,6l-13 0zm18 -2053l13 0 0 0 0 11 0 22 0 31 0 40 0 48 -1 56 0 62 -1 69 0 74 -1 79 -1 82 -1 87 0 88 -1 91 -1 93 -1 93 -1 93 -1 92 -1 91 -1 89 0 86 -1 83 -1 79 -1 74 0 68 -1 63 -1 56 0 48 0 40 -1 32 0 22 0 11 -13 0 0 -11 1 -22 0 -32 0 -40 1 -48 0 -56 1 -63 1 -68 0 -74 1 -79 1 -83 1 -86 1 -89 1 -91 0 -93 1 -93 1 -93 1 -92 1 -91 1 -89 1 -86 0 -83 1 -78 1 -74 0 -69 1 -62 0 -56 0 -48 1 -40 0 -31 0 -22 -1 -11 0 0zm0 0c0,-3 3,-6 7,-6 3,0 6,2 6,6l-13 0zm29 -30l1 13 0 0 -2 0 -2 0 -1 0 -1 0 -2 1 -1 0 -1 0 -1 0 0 0 -1 1 -1 0 0 0 -1 0 0 1 -1 0 0 0 0 0 0 1 0 0 -1 0 0 1 0 0 0 1 0 1 -1 1 0 1 0 1 0 1 0 1 0 2 0 1 0 2 -13 0 0 -2 0 -1 0 -2 0 -2 1 -1 0 -2 0 -1 0 -2 1 -1 0 -1 0 -2 1 -1 1 -1 0 -2 1 -1 1 -1 1 -1 1 -1 2 0 1 -1 1 -1 1 0 2 -1 1 0 2 0 1 -1 2 0 1 0 2 0 2 0 1 0 2 -1 0 0zm0 0c4,0 7,3 7,6 0,4 -3,7 -6,7l-1 -13zm90 -32l12 5 -1 2 -1 3 -2 2 -1 2 -2 2 -2 1 -2 2 -2 2 -2 1 -2 2 -3 2 -2 1 -3 1 -3 2 -3 1 -3 1 -3 1 -3 1 -4 2 -3 1 -4 1 -4 0 -4 1 -4 1 -4 1 -5 1 -4 0 -5 1 -5 1 -5 0 -5 1 -5 0 -1 -13 5 0 5 0 5 -1 4 -1 5 0 4 -1 4 -1 5 0 3 -1 4 -1 4 -1 3 -1 4 -1 3 -1 3 -1 3 -1 3 -1 2 -1 3 -1 2 -1 2 -1 2 -2 2 -1 2 -1 1 -1 1 -2 2 -1 1 -1 1 -2 1 -1 0 -1 1 -2zm0 0c1,-3 5,-4 8,-3 4,1 5,5 4,8l-12 -5z"/>
  </g>
 </g>
</svg>
