<?xml version="1.0" encoding="UTF-8"?>
<!DOCTYPE svg PUBLIC "-//W3C//DTD SVG 1.1//EN" "http://www.w3.org/Graphics/SVG/1.1/DTD/svg11.dtd">
<!-- Creator: CorelDRAW X8 -->
<svg xmlns="http://www.w3.org/2000/svg" xml:space="preserve" width="40mm" height="60mm" version="1.1" style="shape-rendering:geometricPrecision; text-rendering:geometricPrecision; image-rendering:optimizeQuality; fill-rule:evenodd; clip-rule:evenodd"
viewBox="0 0 4000 6000"
 xmlns:xlink="http://www.w3.org/1999/xlink">
 <defs>
  <style type="text/css">
   <![CDATA[
    .str0 {stroke:#332C2B;stroke-width:20}
    .fil0 {fill:none}
   ]]>
  </style>
 </defs>
 <g id="图层_x0020_1">
  <metadata id="CorelCorpID_0Corel-Layer"/>
  <g id="_2324142929776">
   <path class="fil0 str0" d="M758 1968l881 0c147,0 267,-121 267,-267l0 -784c0,-147 -120,-267 -267,-267l-574 0c-147,0 -267,120 -267,267l0 784c0,146 120,267 267,267 147,0 268,94 268,176"/>
   <path class="fil0 str0" d="M758 3571l881 0c147,0 267,-120 267,-267l0 -784c0,-147 -120,-267 -267,-267l-574 0c-147,0 -267,120 -267,267l0 784c0,147 120,267 267,267 147,0 268,94 268,176"/>
   <path class="fil0 str0" d="M758 5174l881 0c147,0 267,-120 267,-267l0 -784c0,-147 -120,-267 -267,-267l-574 0c-147,0 -267,120 -267,267l0 784c0,147 120,267 267,267 147,0 268,94 268,176"/>
   <path class="fil0 str0" d="M2094 1968l881 0c147,0 267,-121 267,-267l0 -784c0,-147 -120,-267 -267,-267l-574 0c-147,0 -268,120 -268,267l0 784c0,146 121,267 268,267 147,0 268,94 268,176"/>
   <path class="fil0 str0" d="M2094 3571l881 0c147,0 267,-120 267,-267l0 -784c0,-147 -120,-267 -267,-267l-574 0c-147,0 -268,120 -268,267l0 784c0,147 121,267 268,267 147,0 268,94 268,176"/>
   <path class="fil0 str0" d="M2094 5174l881 0c147,0 267,-120 267,-267l0 -784c0,-147 -120,-267 -267,-267l-574 0c-147,0 -268,120 -268,267l0 784c0,147 121,267 268,267 147,0 268,94 268,176"/>
  </g>
  <g id="_2324142927792">
   <path class="fil0 str0" d="M-16252 6720l0 -2640c0,-440 -360,-800 -800,-800l-2345 0c-440,0 -800,360 -800,800l0 1721c0,440 360,800 800,800l2345 0c440,0 800,-360 800,-800 0,-440 283,-803 528,-803"/>
   <path class="fil0 str0" d="M-11452 6720l0 -2640c0,-440 -360,-800 -800,-800l-2345 0c-440,0 -800,360 -800,800l0 1721c0,440 360,800 800,800l2345 0c440,0 800,-360 800,-800 0,-440 283,-803 528,-803"/>
   <path class="fil0 str0" d="M-6652 6720l0 -2640c0,-440 -360,-800 -800,-800l-2345 0c-440,0 -800,360 -800,800l0 1721c0,440 360,800 800,800l2345 0c440,0 800,-360 800,-800 0,-440 283,-803 528,-803"/>
   <path class="fil0 str0" d="M-16252 2720l0 -2640c0,-440 -360,-800 -800,-800l-2345 0c-440,0 -800,360 -800,800l0 1721c0,440 360,800 800,800l2345 0c440,0 800,-360 800,-800 0,-440 283,-803 528,-803"/>
   <path class="fil0 str0" d="M-11452 2720l0 -2640c0,-440 -360,-800 -800,-800l-2345 0c-440,0 -800,360 -800,800l0 1721c0,440 360,800 800,800l2345 0c440,0 800,-360 800,-800 0,-440 283,-803 528,-803"/>
   <path class="fil0 str0" d="M-6652 2720l0 -2640c0,-440 -360,-800 -800,-800l-2345 0c-440,0 -800,360 -800,800l0 1721c0,440 360,800 800,800l2345 0c440,0 800,-360 800,-800 0,-440 283,-803 528,-803"/>
  </g>
 </g>
</svg>
