<?xml version="1.0" encoding="UTF-8"?>
<!DOCTYPE svg PUBLIC "-//W3C//DTD SVG 1.1//EN" "http://www.w3.org/Graphics/SVG/1.1/DTD/svg11.dtd">
<!-- Creator: CorelDRAW X8 -->
<svg xmlns="http://www.w3.org/2000/svg" xml:space="preserve" width="40mm" height="60mm" version="1.1" style="shape-rendering:geometricPrecision; text-rendering:geometricPrecision; image-rendering:optimizeQuality; fill-rule:evenodd; clip-rule:evenodd"
viewBox="0 0 4000 6000"
 xmlns:xlink="http://www.w3.org/1999/xlink">
 <defs>
  <style type="text/css">
   <![CDATA[
    .str0 {stroke:#332C2B;stroke-width:7.62}
    .fil0 {fill:none}
   ]]>
  </style>
 </defs>
 <g id="图层_x0020_1">
  <metadata id="CorelCorpID_0Corel-Layer"/>
  <path class="fil0 str0" d="M809 5185l2202 0c99,0 180,-81 180,-180l0 -4175c0,-99 -81,-180 -180,-180l-1848 0c-99,0 -180,81 -180,180l0 4175c0,99 81,180 180,180 99,0 286,104 286,165m284 -4465c-20,-12 -11,-72 19,-72 30,0 54,24 54,54 0,29 -24,53 -54,53 -30,0 -54,-24 -54,-53 0,-30 24,-54 54,-54m240 4c1,3 2,22 -23,22 -24,0 -44,-20 -44,-44l0 0 308 0 0 0c0,24 -20,44 -45,44l-219 0"/>
 </g>
</svg>
