<?xml version="1.0" encoding="UTF-8"?>
<!DOCTYPE svg PUBLIC "-//W3C//DTD SVG 1.1//EN" "http://www.w3.org/Graphics/SVG/1.1/DTD/svg11.dtd">
<!-- Creator: CorelDRAW X8 -->
<svg xmlns="http://www.w3.org/2000/svg" xml:space="preserve" width="40mm" height="60mm" version="1.1" style="shape-rendering:geometricPrecision; text-rendering:geometricPrecision; image-rendering:optimizeQuality; fill-rule:evenodd; clip-rule:evenodd"
viewBox="0 0 4000 6000"
 xmlns:xlink="http://www.w3.org/1999/xlink">
 <defs>
  <style type="text/css">
   <![CDATA[
    .str0 {stroke:black;stroke-width:7.62}
    .fil0 {fill:none}
   ]]>
  </style>
 </defs>
 <g id="图层_x0020_1">
  <metadata id="CorelCorpID_0Corel-Layer"/>
  <path class="fil0 str0" d="M945 5350l1936 0c123,0 223,-100 223,-223l0 -4254c0,-123 -100,-223 -223,-223l-1762 0c-123,0 -223,100 -223,223l0 4254c0,123 100,223 223,223l252 0m841 -4644c0,-3 -3,-7 -10,-8 -25,0 -45,20 -45,45 0,25 20,45 45,45 25,0 44,-20 44,-45 0,-25 -19,-45 -44,-45m-206 34c-5,-18 -15,-33 -60,-33l-38 0c-20,0 -36,17 -36,37l0 0c0,20 16,36 36,36l201 0c20,0 36,-16 36,-36l0 0c0,-20 -16,-37 -36,-37l-163 0m-275 -4c0,-5 -4,-9 -12,-9 -28,0 -51,23 -51,51 0,28 23,51 51,51 28,0 51,-23 51,-51 0,-28 -23,-51 -51,-51m743 1c-1,-5 -6,-10 -15,-11 -36,0 -64,29 -64,64 0,35 28,64 64,64 35,0 63,-29 63,-64 0,-35 -28,-64 -63,-64"/>
 </g>
</svg>
