<?xml version="1.0" encoding="UTF-8"?>
<!DOCTYPE svg PUBLIC "-//W3C//DTD SVG 1.1//EN" "http://www.w3.org/Graphics/SVG/1.1/DTD/svg11.dtd">
<!-- Creator: CorelDRAW -->
<svg xmlns="http://www.w3.org/2000/svg" xml:space="preserve" width="40mm" height="60mm" style="shape-rendering:geometricPrecision; text-rendering:geometricPrecision; image-rendering:optimizeQuality; fill-rule:evenodd; clip-rule:evenodd"
viewBox="0 0 40 60"
 xmlns:xlink="http://www.w3.org/1999/xlink">
 <defs>
  <style type="text/css">
   <![CDATA[
    .str0 {stroke:#1F1A17;stroke-width:0.0762;stroke-linejoin:bevel}
    .fil0 {fill:none}
   ]]>
  </style>
 </defs>
 <g id="参考点">
  <metadata id="CorelCorpID_0Corel-Layer"/>
  <g id="_164702312">
   <path id="_164701952" class="fil0 str0" d="M6.5228 53.5l12.382 0c0.1318,-0.0001 0.2588,-0.0525 0.352,-0.1458 0.0932,-0.0933 0.1454,-0.2198 0.1453,-0.3516l0 -0.8331c0,-0.2666 0.1422,-0.5129 0.373,-0.6461 0.2309,-0.1333 0.5153,-0.1333 0.7461,0 0.2308,0.1332 0.3729,0.3795 0.3729,0.6461l0 0.8331c0.0001,0.1318 0.0526,0.2588 0.1459,0.352 0.0932,0.0932 0.2197,0.1454 0.3515,0.1454l8.3556 0c0.9887,-0.0007 1.9413,-0.394 2.64,-1.0936 0.6986,-0.6995 1.0908,-1.6479 1.0901,-2.6366l0 -39.5397c-0.0006,-0.9887 -0.3939,-1.9413 -1.0935,-2.64 -0.6995,-0.6986 -1.6479,-1.0908 -2.6366,-1.0901l-19.1979 0c-0.9886,0.0006 -1.9413,0.3939 -2.6399,1.0935 -0.6987,0.6995 -1.0908,1.6479 -1.0903,2.6366l0 39.5397c0.0007,0.9887 0.3941,1.9413 1.0936,2.64 0.6995,0.6987 1.648,1.0908 2.6366,1.0902"/>
   <path id="_164701616" class="fil0 str0" d="M17.2884 9.1245c-0.0001,-0.1716 0.0679,-0.3354 0.1892,-0.4568 0.1212,-0.1214 0.2857,-0.1897 0.4573,-0.1898l4.4264 0c0.1716,-0.0001 0.3354,0.0679 0.4568,0.1892 0.1214,0.1213 0.1897,0.2858 0.1898,0.4574 0.0001,0.1716 -0.0679,0.3353 -0.1892,0.4567 -0.1212,0.1214 -0.2858,0.1897 -0.4574,0.1898l-4.4264 0c-0.1716,0.0001 -0.3353,-0.0679 -0.4567,-0.1892 -0.1214,-0.1212 -0.1897,-0.2857 -0.1898,-0.4573z"/>
  </g>
 </g>
</svg>
