<?xml version="1.0" encoding="UTF-8"?>
<!DOCTYPE svg PUBLIC "-//W3C//DTD SVG 1.1//EN" "http://www.w3.org/Graphics/SVG/1.1/DTD/svg11.dtd">
<!-- Creator: CorelDRAW 2020 (64-Bit) -->
<svg xmlns="http://www.w3.org/2000/svg" xml:space="preserve" width="40mm" height="60mm" version="1.1" style="shape-rendering:geometricPrecision; text-rendering:geometricPrecision; image-rendering:optimizeQuality; fill-rule:evenodd; clip-rule:evenodd"
viewBox="0 0 4000 6000"
 xmlns:xlink="http://www.w3.org/1999/xlink"
 xmlns:xodm="http://www.corel.com/coreldraw/odm/2003">
 <defs>
  <style type="text/css">
   <![CDATA[
    .str0 {stroke:#332C2B;stroke-width:9;stroke-linejoin:bevel;stroke-miterlimit:22.9256}
    .fil0 {fill:none}
   ]]>
  </style>
 </defs>
 <g id="图层_x0020_1">
  <metadata id="CorelCorpID_0Corel-Layer"/>
  <path class="fil0 str0" d="M2115.24 2771.4c11.63,49.3 -30.03,139.25 -119.44,139.25 -3.66,-53.76 36.96,-131.25 119.44,-139.25zm115.14 205.28c-128.59,79.35 -57.63,201.73 14.41,237.74 -12.95,40.74 -55.18,103.89 -87.52,134.9 -40.53,38.87 -75.11,15.56 -112.87,4.14 -51.38,-15.54 -89.12,13.53 -112.38,19.52 -10.38,2.68 -32.1,1.98 -41.43,-2.12 -17.67,-7.78 -52.05,-44.69 -64.23,-59.19 -80.1,-95.35 -125.46,-343.28 39.02,-385.41 25.29,-6.48 68.76,-3.64 92.76,5.15 67.03,24.53 40.83,14.94 113.51,-5.27 64.07,-17.82 111.12,0.24 158.73,50.54zm-910.1 -761.91c0,0 597.31,0 597.31,0 177.63,0 321.63,-144 321.63,-321.62 0,0 0,-621.82 0,-621.82 0,-177.63 -144,-321.63 -321.63,-321.63 0,0 -597.31,0 -597.31,0 -177.63,0 -321.62,144 -321.62,321.63 0,0 0,621.82 0,621.82 0,177.62 143.99,321.62 321.62,321.62zm-211.49 3112.13l1608.4 0c182.79,0 330.98,-148.19 330.98,-330.99 0,-2.44 1.98,-4.42 4.43,-4.42 0,0 202.8,0 202.8,0 16.92,0 30.63,-13.72 30.63,-30.63 0,0 0,-1168.15 0,-1168.15 0,-16.92 -13.71,-30.64 -30.63,-30.64 0,0 -55.13,0 -55.13,0 -33.83,0 -61.26,-27.42 -61.26,-61.26 0,0 0,-447.04 0,-447.04 0,-33.84 27.43,-61.27 61.26,-61.27 0,0 55.13,0 55.13,0 16.92,0 30.63,-13.71 30.63,-30.63 0,0 0,-257.6 0,-257.6 0,-16.91 -13.71,-30.62 -30.63,-30.62 0,0 -55.13,0 -55.13,0 -33.83,0 -61.26,-27.43 -61.26,-61.27 0,0 0,-1075.05 0,-1075.05 0,-33.84 27.43,-61.26 61.26,-61.26 0,0 55.13,0 55.13,0 16.92,0 30.63,-13.72 30.63,-30.64 0,0 0,-335.81 0,-335.81 0,-16.92 -13.71,-30.63 -30.63,-30.63 0,0 -191.92,0 -191.92,0 -8.45,0 -15.31,-6.86 -15.31,-15.32 0,0 0,-43.35 0,-43.35 0,-176.53 -143.1,-319.63 -319.62,-319.63l0 -232.77c0,-6.75 -5.51,-12.25 -12.26,-12.25l-1445.78 0c-6.75,0 -12.26,5.5 -12.26,12.25l0 232.77c-176.52,0 -319.62,143.1 -319.62,319.63 0,0 0,42.71 0,42.71 0,8.46 -6.86,15.31 -15.31,15.31 0,0 -191.92,0 -191.92,0 -16.92,0 -30.63,13.72 -30.63,30.63 0,0 0,882.46 0,882.46 0,16.92 13.71,30.64 30.63,30.64 0,0 55.15,0 55.15,0 33.84,0 61.27,27.43 61.27,61.26 0,0 0,509.02 0,509.02 0,33.84 -27.43,61.27 -61.27,61.27 0,0 -55.15,0 -55.15,0 -16.92,0 -30.63,13.71 -30.63,30.63 0,0 0,2076.61 0,2076.61 0,16.91 13.71,30.63 30.63,30.63 0,0 202.8,0 202.8,0 2.45,0 4.43,1.98 4.43,4.42 0,182.8 148.19,330.99 330.98,330.99l62.06 0c72.95,0 115.38,12.77 124.6,28.77"/>
 </g>
</svg>
