<?xml version="1.0" encoding="UTF-8"?>
<!DOCTYPE svg PUBLIC "-//W3C//DTD SVG 1.1//EN" "http://www.w3.org/Graphics/SVG/1.1/DTD/svg11.dtd">
<!-- Creator: CorelDRAW 2020 (64-Bit) -->
<svg xmlns="http://www.w3.org/2000/svg" xml:space="preserve" width="40mm" height="60mm" version="1.1" style="shape-rendering:geometricPrecision; text-rendering:geometricPrecision; image-rendering:optimizeQuality; fill-rule:evenodd; clip-rule:evenodd"
viewBox="0 0 4000 6000"
 xmlns:xlink="http://www.w3.org/1999/xlink"
 xmlns:xodm="http://www.corel.com/coreldraw/odm/2003">
 <defs>
  <style type="text/css">
   <![CDATA[
    .str1 {stroke:#332C2B;stroke-width:20;stroke-miterlimit:22.9256}
    .str0 {stroke:#E62129;stroke-width:20;stroke-miterlimit:22.9256}
    .fil0 {fill:none}
   ]]>
  </style>
   <clipPath id="id0">
    <rect x="-35633.09" y="-3618.91" width="7867.98" height="16795.89"/>
   </clipPath>
   <clipPath id="id1">
    <rect x="-68806.05" y="-12875" width="14781.38" height="31750"/>
   </clipPath>
 </defs>
 <g id="图层_x0020_1">
  <metadata id="CorelCorpID_0Corel-Layer"/>
  <g style="clip-path:url(#id0)">
   <image x="-35633.09" y="-3618.91" width="7867.98" height="16795.89" xlink:href="Aquos V6 -11i（前膜全屏）_Images\Aquos V6 -11i（前膜全屏）_ImgID1.png"/>
  </g>
  <g style="clip-path:url(#id1)">
   <image x="-68806.05" y="-12875" width="14781.38" height="31750" xlink:href="Aquos V6 -11i（前膜全屏）_Images\Aquos V6 -11i（前膜全屏）_ImgID2.png"/>
  </g>
  <rect class="fil0 str0" x="-35484.21" y="-3457.29" width="7550" height="16520"/>
  <path class="fil0 str0" d="M-34504.52 -3242.39l1677.47 0c43.26,0 41.01,53.78 71.82,53.78l522.85 0c129.51,0 126.13,104.34 126.13,162.24 0,215.36 174.59,389.95 389.95,389.95 215.36,0 389.95,-174.59 389.95,-389.95 0,-57.9 -4.69,-162.24 106.95,-162.24l535.86 0c30.81,0 33.03,-53.78 69.84,-53.78l1699.8 0c440,0 800,360.02 800,800l0 14501.4c0,440 -360,800.01 -800,800.01l-5590.62 0c-440,0 -800,-360.01 -800,-800.01l0 -14501.4c0,-439.99 360,-800 800,-800z"/>
  <path class="fil0 str1" d="M-3342.4 6395.75l0 -5987.5c0,-439.99 -360.02,-800 -800.01,-800l-14501.4 0c-439.98,0 -800,360 -800,800l0 1699.8c0,36.81 53.78,39.03 53.78,69.84l0 535.86c0,111.64 104.34,106.95 162.24,106.95 215.36,0 389.95,174.59 389.95,389.95 0,215.36 -174.59,389.95 -389.95,389.95 -57.9,0 -162.24,-3.38 -162.24,126.13l0 522.85c0,30.81 -53.78,28.56 -53.78,71.82l0 1677.47c0,440 360.01,800 800,800l14501.4 0c440,0 800.01,-360 800.01,-800 0,-440 34.95,-592.46 92.5,-668.53"/>
  <path class="fil0 str1" d="M1066.39 5323.68l1737.77 0c127.7,0 232.18,-104.48 232.18,-232.18l0 -4208.78c0,-127.7 -104.48,-232.19 -232.18,-232.19l-493.34 0c-10.68,0 -11.33,15.61 -20.27,15.61l-155.52 0c-32.4,0 -31.04,30.28 -31.04,47.09 0,62.5 -50.67,113.17 -113.18,113.17 -62.5,0 -113.17,-50.67 -113.17,-113.17 0,-16.81 0.98,-47.09 -36.61,-47.09l-151.75 0c-8.94,0 -8.29,-15.61 -20.84,-15.61l-486.86 0c-127.7,0 -232.18,104.49 -232.18,232.19l0 4208.78c0,127.7 104.48,232.18 232.18,232.18 127.7,0 171.95,10.15 194.03,26.85"/>
 </g>
</svg>
