<?xml version="1.0" encoding="UTF-8"?>
<!DOCTYPE svg PUBLIC "-//W3C//DTD SVG 1.1//EN" "http://www.w3.org/Graphics/SVG/1.1/DTD/svg11.dtd">
<!-- Creator: CorelDRAW X8 -->
<svg xmlns="http://www.w3.org/2000/svg" xml:space="preserve" width="40mm" height="60mm" version="1.1" style="shape-rendering:geometricPrecision; text-rendering:geometricPrecision; image-rendering:optimizeQuality; fill-rule:evenodd; clip-rule:evenodd"
viewBox="0 0 4000 6000"
 xmlns:xlink="http://www.w3.org/1999/xlink">
 <defs>
  <style type="text/css">
   <![CDATA[
    .str0 {stroke:#332C2B;stroke-width:10}
    .fil0 {fill:none}
   ]]>
  </style>
 </defs>
 <g id="图层_x0020_1">
  <metadata id="CorelCorpID_0Corel-Layer"/>
  <path class="fil0 str0" d="M1281 940c2,-51 -57,-90 -79,-92 -77,0 -139,62 -139,139 0,76 62,139 139,139 77,0 139,-63 139,-139 0,-77 -62,-139 -139,-139m79 435c2,-50 -57,-90 -79,-92 -77,0 -139,62 -139,139 0,77 62,139 139,139 77,0 139,-62 139,-139 0,-77 -62,-139 -139,-139m427 -84c2,-50 -57,-90 -79,-92 -76,0 -138,63 -138,139 0,77 62,139 138,139 77,0 139,-62 139,-139 0,-76 -62,-139 -139,-139m-362 -198l369 0c85,0 155,70 155,155l0 369c0,85 -70,154 -155,154l-369 0c-85,0 -154,-69 -154,-154l0 -369c0,-85 69,-155 154,-155zm0 -44l369 0c110,0 199,89 199,199l0 369c0,109 -89,199 -199,199l-369 0c-109,0 -199,-90 -199,-199l0 -369c0,-110 90,-199 199,-199zm680 4240c-5,-20 -16,-36 -66,-36l-43 0c-22,0 -41,18 -41,41l0 0c0,22 19,40 41,40l470 0c22,0 40,-18 40,-40l0 0c0,-23 -18,-41 -40,-41l-427 0m-798 373l1861 0c144,0 261,-117 261,-261l0 -4178c0,-143 -117,-261 -261,-261l-1730 0c-144,0 -261,118 -261,261l0 4178c0,144 117,261 261,261l226 0"/>
 </g>
</svg>
