<?xml version="1.0" encoding="UTF-8"?>
<!DOCTYPE svg PUBLIC "-//W3C//DTD SVG 1.1//EN" "http://www.w3.org/Graphics/SVG/1.1/DTD/svg11.dtd">
<!-- Creator: CorelDRAW X8 -->
<svg xmlns="http://www.w3.org/2000/svg" xml:space="preserve" width="40mm" height="60mm" version="1.1" style="shape-rendering:geometricPrecision; text-rendering:geometricPrecision; image-rendering:optimizeQuality; fill-rule:evenodd; clip-rule:evenodd"
viewBox="0 0 4000 6000"
 xmlns:xlink="http://www.w3.org/1999/xlink">
 <defs>
  <style type="text/css">
   <![CDATA[
    .str0 {stroke:black;stroke-width:7.62}
    .fil0 {fill:none}
   ]]>
  </style>
 </defs>
 <g id="图层_x0020_1">
  <metadata id="CorelCorpID_0Corel-Layer"/>
  <path class="fil0 str0" d="M3148 730l-138 0c-7,0 -14,6 -13,14 23,104 32,211 32,318l0 17c0,-119 -98,-217 -218,-217l-10 0 0 -199c0,-7 -6,-13 -14,-13l-1580 0c-7,0 -13,6 -13,13l0 199 -5 0c-120,0 -218,98 -218,217l0 -18c0,-108 9,-215 32,-319 1,-7 -6,-14 -13,-14l-138 0c-8,0 -14,6 -14,14l0 1669c0,11 2,12 8,12l87 0c21,0 39,18 39,40l0 402c0,21 -18,39 -39,39l-89 0c-5,0 -6,1 -6,6l0 2354c0,7 6,13 14,13l148 0c8,0 15,-6 14,-13 -30,-109 -43,-217 -43,-328l0 -15c0,119 98,217 218,217l12 0 0 199c0,7 6,13 13,13l1594 0c7,0 13,-6 13,-13l0 -200c115,-5 208,-100 208,-216l0 17c0,111 -13,219 -43,328 -1,7 6,13 14,13l148 0c8,0 14,-6 14,-13l0 -3471c0,-14 -5,-17 -14,-17l-31 0c-22,0 -40,-17 -40,-39l0 -442c0,-22 18,-40 40,-40l32 0c12,0 13,-2 13,-14l0 -499c0,-8 -6,-14 -14,-14zm-1547 -4c0,-3 -2,-6 -7,-6 -19,0 -34,15 -34,33 0,18 15,33 34,33 18,0 33,-15 33,-33 0,-18 -15,-33 -33,-33m-134 4516c-4,-16 -13,-30 -54,-30l-34 0c-19,0 -34,15 -34,34l0 0c0,18 15,33 34,33l333 0c18,0 33,-15 33,-33l0 0c0,-19 -15,-34 -33,-34l-299 0m563 22c-3,-11 -7,-19 -26,-19l-16 0c-22,0 -40,18 -40,40l0 0c0,22 18,40 40,40l159 0c22,0 40,-18 40,-40l0 0c0,-22 -18,-40 -40,-40l-143 0m-152 -4493c-1,-5 -4,-9 -13,-10 -29,0 -53,24 -53,53 0,30 24,53 53,53 30,0 53,-23 53,-53 0,-29 -23,-53 -53,-53m667 42c-3,-13 -11,-24 -43,-24l-28 0c-14,0 -26,12 -26,27l0 0c0,14 12,26 26,26l182 0c15,0 27,-12 27,-26l0 0c0,-15 -12,-27 -27,-27l-154 0m-1032 384c0,-9 -8,-17 -25,-19 -58,0 -106,48 -106,107 0,58 48,106 106,106 59,0 106,-48 106,-106 0,-59 -47,-107 -106,-107m25 290c0,-9 -8,-18 -25,-19 -58,0 -106,48 -106,106 0,59 48,106 106,106 59,0 106,-47 106,-106 0,-58 -47,-106 -106,-106m28 289c-1,-9 -9,-17 -25,-18 -59,0 -106,47 -106,106 0,58 47,106 106,106 58,0 106,-48 106,-106 0,-59 -48,-106 -106,-106m8 277c-3,-11 -7,-19 -26,-19l-16 0c-22,0 -40,18 -40,40l0 0c0,22 18,40 40,40l67 0c21,0 39,-18 39,-40l0 0c0,-22 -18,-40 -39,-40l-51 0m-39 -868l358 0c73,0 133,60 133,133l0 770c0,73 -60,133 -133,133l-358 0c-73,0 -133,-60 -133,-133l0 -770c0,-73 60,-133 133,-133zm28 41l308 0c63,0 114,52 114,115l0 719c0,63 -51,114 -114,114l-308 0c-63,0 -115,-51 -115,-114l0 -719c0,-63 52,-115 115,-115zm-406 1111c-15,5 -27,13 -27,50l0 32c0,17 14,31 31,31l0 0c16,0 30,-14 30,-31l0 -475c0,-17 -14,-31 -30,-31l0 0c-17,0 -31,14 -31,31l0 443m1608 3002c-1,-2 -3,-4 -7,-5 -14,0 -26,12 -26,27 0,15 12,27 26,27 15,0 27,-12 27,-27 0,-15 -12,-27 -27,-27m-841 -3532c0,-5 -4,-9 -12,-10 -29,0 -53,24 -53,53 0,30 24,53 53,53 29,0 53,-23 53,-53 0,-29 -24,-53 -53,-53"/>
 </g>
</svg>
