<?xml version="1.0" encoding="UTF-8"?>
<!DOCTYPE svg PUBLIC "-//W3C//DTD SVG 1.1//EN" "http://www.w3.org/Graphics/SVG/1.1/DTD/svg11.dtd">
<!-- Creator: CorelDRAW 2020 (64-Bit) -->
<svg xmlns="http://www.w3.org/2000/svg" xml:space="preserve" width="40mm" height="60mm" version="1.1" style="shape-rendering:geometricPrecision; text-rendering:geometricPrecision; image-rendering:optimizeQuality; fill-rule:evenodd; clip-rule:evenodd"
viewBox="0 0 4000 6000"
 xmlns:xlink="http://www.w3.org/1999/xlink"
 xmlns:xodm="http://www.corel.com/coreldraw/odm/2003">
 <defs>
  <style type="text/css">
   <![CDATA[
    .str1 {stroke:#332C2B;stroke-width:20;stroke-miterlimit:22.9256}
    .str0 {stroke:#E72D28;stroke-width:20;stroke-miterlimit:22.9256}
    .str2 {stroke:#222222;stroke-width:20;stroke-miterlimit:22.9256}
    .fil0 {fill:none}
   ]]>
  </style>
   <clipPath id="id0">
    <rect x="-34163.22" y="-6660.68" width="9040.66" height="16492.04"/>
   </clipPath>
 </defs>
 <g id="图层_x0020_1">
  <metadata id="CorelCorpID_0Corel-Layer"/>
  <g style="clip-path:url(#id0)">
   <image x="-34163.22" y="-6660.68" width="9040.66" height="16492.04" xlink:href="i80-11i（背膜）_Images\i80-11i（背膜）_ImgID1.png"/>
  </g>
  <rect class="fil0 str0" x="-33478.19" y="-6146.82" width="7397" height="15615"/>
  <rect class="fil0 str0" x="-33339.09" y="-6019.82" width="7118.8" height="15301.9" rx="800" ry="940.34"/>
  <rect class="fil0 str1" x="-32843.73" y="-5486.97" width="2145.78" height="2203.99" rx="650" ry="662.79"/>
  <circle class="fil0 str1" cx="-32216.22" cy="-2980.35" r="220.93"/>
  <circle class="fil0 str1" cx="-29787.34" cy="-2067.55" r="617.8"/>
  <path class="fil0 str2" d="M-3304.36 6326.49l0 -6182.9c0,-439.98 -360.02,-800 -800,-800l-13701.91 0c-439.99,0 -799.99,360.01 -799.99,800l0 5518.8c0,440 360,800 799.99,800l13701.91 0c439.99,0 800,-360 800,-800 0,-440 39.39,-1273.77 347.63,-1582"/>
  <path class="fil0 str2" d="M-18073.42 5317.04c0,357.5 292.5,650 650,650l903.99 0c357.5,0 650,-292.5 650,-650l0 -845.78c0,-357.5 -292.5,-650 -650,-650l-903.99 0c-357.5,0 -650,292.5 -650,650l0 845.78c0,0 32.77,446.75 427,446.75"/>
  <path class="fil0 str2" d="M-15787.73 5339.53c0,122.02 98.91,220.93 220.93,220.93 122.02,0 220.93,-98.91 220.93,-220.93 0,-122.02 -98.91,-220.93 -220.93,-220.93 -122.02,0 -220.93,98.91 -220.93,220.93 0,122.02 138.6,177.18 186.22,177.18"/>
  <path class="fil0 str2" d="M-15271.8 2910.65c0,341.2 276.6,617.8 617.8,617.8 341.2,0 617.8,-276.6 617.8,-617.8 0,-341.2 -276.6,-617.8 -617.8,-617.8 -341.2,0 -617.8,276.6 -617.8,617.8 0,341.2 380.39,454.96 499.45,454.96"/>
  <g id="_2638393727792">
   <path class="fil0 str2" d="M965.22 5251.27l1856.91 0c132.14,0 240.26,-108.13 240.26,-240.27l0 -4115.07c0,-132.14 -108.12,-240.26 -240.26,-240.26l-1657.46 0c-132.14,0 -240.26,108.12 -240.26,240.26l0 4115.07c0,132.14 108.12,240.27 240.26,240.27 132.15,0 382.55,11.83 475.12,104.4"/>
   <path class="fil0 str2" d="M1268.39 815.7c-107.37,0 -195.21,87.84 -195.21,195.21l0 271.49c0,107.37 87.84,195.22 195.21,195.22l254.01 0c107.37,0 195.22,-87.85 195.22,-195.22l0 -271.49c0,-107.37 -87.85,-195.21 -195.22,-195.21l-254.01 0c0,0 -134.17,9.84 -134.17,128.24"/>
   <path class="fil0 str2" d="M1261.64 1502.15c-36.65,0 -66.35,29.71 -66.35,66.35 0,36.65 29.7,66.36 66.35,66.36 36.64,0 66.35,-29.71 66.35,-66.36 0,-36.64 -29.71,-66.35 -66.35,-66.35 -36.65,0 -53.22,41.63 -53.22,55.93"/>
   <path class="fil0 str2" d="M1991.1 1657.1c-102.47,0 -185.54,83.07 -185.54,185.54 0,102.48 83.07,185.55 185.54,185.55 102.47,0 185.54,-83.07 185.54,-185.55 0,-102.47 -83.07,-185.54 -185.54,-185.54 -102.47,0 -136.64,114.24 -136.64,150"/>
  </g>
 </g>
</svg>
