<?xml version="1.0" encoding="UTF-8"?>
<!DOCTYPE svg PUBLIC "-//W3C//DTD SVG 1.1//EN" "http://www.w3.org/Graphics/SVG/1.1/DTD/svg11.dtd">
<!-- Creator: CorelDRAW 2020 (64-Bit) -->
<svg xmlns="http://www.w3.org/2000/svg" xml:space="preserve" width="40mm" height="60mm" version="1.1" style="shape-rendering:geometricPrecision; text-rendering:geometricPrecision; image-rendering:optimizeQuality; fill-rule:evenodd; clip-rule:evenodd"
viewBox="0 0 4000 6000"
 xmlns:xlink="http://www.w3.org/1999/xlink"
 xmlns:xodm="http://www.corel.com/coreldraw/odm/2003">
 <defs>
  <style type="text/css">
   <![CDATA[
    .str1 {stroke:#332C2B;stroke-width:20;stroke-miterlimit:22.9256}
    .str0 {stroke:#E62129;stroke-width:20;stroke-miterlimit:22.9256}
    .fil0 {fill:none}
   ]]>
  </style>
   <clipPath id="id0">
    <rect x="-49309.35" y="-5410.08" width="13299" height="17515.75"/>
   </clipPath>
 </defs>
 <g id="图层_x0020_1">
  <metadata id="CorelCorpID_0Corel-Layer"/>
  <g style="clip-path:url(#id0)">
   <image x="-49309.35" y="-5410.08" width="13299" height="17515.75" xlink:href="30 XL -11i（前膜全屏）_Images\30 XL -11i（前膜全屏）_ImgID1.png"/>
  </g>
  <rect class="fil0 str0" x="-44096.69" y="-5249.04" width="7700" height="17220"/>
  <path class="fil0 str0" d="M-43151.91 -5042.67l1778.65 0c68.92,0 64.16,74.89 109.57,74.89l482.92 0c175.87,0 153.48,164.83 153.48,270.96 0,209.69 169.99,379.68 379.68,379.68 209.69,0 379.68,-169.99 379.68,-379.68 0,-106.13 -21.06,-270.96 129.67,-270.96l522.46 0c45.41,0 55.87,-74.89 106.93,-74.89l1767.41 0c440.01,0 800.01,360.01 800.01,800.01l0 15142.35c0,440.01 -360,800 -800.01,800l-5810.45 0c-440,0 -800,-359.99 -800,-800l0 -15142.35c0,-440.01 360,-800.01 800,-800.01z"/>
  <path class="fil0 str1" d="M-5966.83 6649.8l0 -6227.17c0,-440 -360,-800.01 -800,-800.01l-15142.35 0c-440,0 -800.01,360 -800.01,800.01l0 1767.41c0,51.06 74.89,61.52 74.89,106.93l0 522.46c0,150.73 164.83,129.67 270.96,129.67 209.69,0 379.68,169.99 379.68,379.68 0,209.69 -169.99,379.68 -379.68,379.68 -106.13,0 -270.96,-22.39 -270.96,153.48l0 482.92c0,45.41 -74.89,40.65 -74.89,109.57l0 1778.65c0,440 360,800 800.01,800l15142.35 0c440.01,0 800,-360 800,-800 0,-440 41.01,-604.54 125.68,-721.62"/>
  <path class="fil0 str1" d="M1067.26 5315.51l1735.1 0c122.6,0 222.91,-100.31 222.91,-222.91l0 -4219.16c0,-122.6 -100.31,-222.91 -222.91,-222.91l-492.46 0c-14.23,0 -17.14,20.87 -29.79,20.87l-145.58 0c-42,0 -36.13,45.92 -36.13,75.5 0,58.42 -47.36,105.79 -105.79,105.79 -58.43,0 -105.79,-47.37 -105.79,-105.79 0,-29.58 6.24,-75.5 -42.77,-75.5l-134.55 0c-12.66,0 -11.33,-20.87 -30.53,-20.87l-495.59 0c-122.6,0 -222.91,100.31 -222.91,222.91l0 4219.16c0,122.61 100.31,222.91 222.91,222.91 122.6,0 168.44,11.43 201.06,35.02"/>
 </g>
</svg>
