<?xml version="1.0" encoding="UTF-8"?>
<!DOCTYPE svg PUBLIC "-//W3C//DTD SVG 1.1//EN" "http://www.w3.org/Graphics/SVG/1.1/DTD/svg11.dtd">
<!-- Creator: CorelDRAW 2020 (64-Bit) -->
<svg xmlns="http://www.w3.org/2000/svg" xml:space="preserve" width="40mm" height="60mm" version="1.1" style="shape-rendering:geometricPrecision; text-rendering:geometricPrecision; image-rendering:optimizeQuality; fill-rule:evenodd; clip-rule:evenodd"
viewBox="0 0 4000 6000"
 xmlns:xlink="http://www.w3.org/1999/xlink"
 xmlns:xodm="http://www.corel.com/coreldraw/odm/2003">
 <defs>
  <style type="text/css">
   <![CDATA[
    .str0 {stroke:black;stroke-width:7.62;stroke-miterlimit:22.9256}
    .fil0 {fill:none}
   ]]>
  </style>
 </defs>
 <g id="图层_x0020_1">
  <metadata id="CorelCorpID_0Corel-Layer"/>
  <path class="fil0 str0" d="M2013.46 735.91c3.59,-23.09 -15.82,-39.27 -25.45,-40.01 -34.26,0 -62.03,27.77 -62.03,62.03 0,34.26 27.77,62.04 62.03,62.04 34.26,0 62.04,-27.78 62.04,-62.04 0,-34.26 -27.78,-62.03 -62.04,-62.03m-1107.92 4650.86l2199.12 0c16.13,0 29.36,-13.22 29.36,-29.35l0 -4632.39c0,-16.12 -13.21,-29.35 -29.36,-29.35 -745.19,0 -1426.46,0 -2171.62,0 -16.15,0 -29.36,13.21 -29.36,29.35l0 4632.39c0,16.15 13.23,29.35 29.36,29.35l24.53 0c29.97,0 47.3,3.55 52.28,8.91"/>
 </g>
</svg>
