<?xml version="1.0" encoding="UTF-8"?>
<!DOCTYPE svg PUBLIC "-//W3C//DTD SVG 1.1//EN" "http://www.w3.org/Graphics/SVG/1.1/DTD/svg11.dtd">
<!-- Creator: CorelDRAW 2020 (64-Bit) -->
<svg xmlns="http://www.w3.org/2000/svg" xml:space="preserve" width="40mm" height="60mm" version="1.1" style="shape-rendering:geometricPrecision; text-rendering:geometricPrecision; image-rendering:optimizeQuality; fill-rule:evenodd; clip-rule:evenodd"
viewBox="0 0 4000 6000"
 xmlns:xlink="http://www.w3.org/1999/xlink"
 xmlns:xodm="http://www.corel.com/coreldraw/odm/2003">
 <defs>
  <style type="text/css">
   <![CDATA[
    .str0 {stroke:black;stroke-width:7.62;stroke-miterlimit:22.9256}
    .fil0 {fill:none}
   ]]>
  </style>
 </defs>
 <g id="图层_x0020_1">
  <metadata id="CorelCorpID_0Corel-Layer"/>
  <path class="fil0 str0" d="M2015.26 747.1c-0.38,-5.01 -4.79,-9.7 -13.96,-10.41 -32.6,0 -59.04,26.43 -59.04,59.04 0,32.61 26.44,59.04 59.04,59.04 32.61,0 59.04,-26.43 59.04,-59.04 0,-32.61 -26.43,-59.04 -59.04,-59.04m-974.45 4592.04l1834.14 0c104.43,0 189.88,-85.44 189.88,-189.87l0 -4298.98c0,-104.44 -85.44,-189.88 -189.88,-189.88l-1721.98 0c-104.43,0 -189.88,85.44 -189.88,189.88l0 4298.98c0,104.43 85.45,189.87 189.88,189.87l31.55 0c59.16,0 91.76,9.73 97.23,21.27"/>
 </g>
</svg>
