<?xml version="1.0" encoding="UTF-8"?>
<!DOCTYPE svg PUBLIC "-//W3C//DTD SVG 1.1//EN" "http://www.w3.org/Graphics/SVG/1.1/DTD/svg11.dtd">
<!-- Creator: CorelDRAW 2020 (64-Bit) -->
<svg xmlns="http://www.w3.org/2000/svg" xml:space="preserve" width="40mm" height="60mm" version="1.1" style="shape-rendering:geometricPrecision; text-rendering:geometricPrecision; image-rendering:optimizeQuality; fill-rule:evenodd; clip-rule:evenodd"
viewBox="0 0 4000 6000"
 xmlns:xlink="http://www.w3.org/1999/xlink"
 xmlns:xodm="http://www.corel.com/coreldraw/odm/2003">
 <defs>
  <style type="text/css">
   <![CDATA[
    .str1 {stroke:#332C2B;stroke-width:20;stroke-miterlimit:22.9256}
    .str2 {stroke:#332C2B;stroke-width:20;stroke-miterlimit:22.9256}
    .str0 {stroke:#E62129;stroke-width:20;stroke-miterlimit:22.9256}
    .fil0 {fill:none}
   ]]>
  </style>
   <clipPath id="id0">
    <rect x="-52708.81" y="-6578.65" width="12739.8" height="17024.5"/>
   </clipPath>
 </defs>
 <g id="图层_x0020_1">
  <metadata id="CorelCorpID_0Corel-Layer"/>
  <g style="clip-path:url(#id0)">
   <image x="-52708.81" y="-6578.65" width="12739.8" height="17024.5" xlink:href="Blaze Nxt -11i（背膜）_Images\Blaze Nxt -11i（背膜）_ImgID1.png"/>
  </g>
  <rect class="fil0 str0" x="-52444.32" y="-6310.92" width="7630" height="16480"/>
  <rect class="fil0 str0" x="-52302.41" y="-6175.98" width="7346.18" height="16199.97" rx="950" ry="940.6"/>
  <rect class="fil0 str1" x="-51787.81" y="-5680.36" width="2478.51" height="3512.34" rx="450" ry="453.18"/>
  <rect class="fil0 str1" x="-51709.03" y="-5596.01" width="2298.6" height="3343.65" rx="417.34" ry="431.41"/>
  <path class="fil0 str1" d="M-50991.56 -5466.64c-325.34,0 -589.08,263.74 -589.08,589.08 0,325.33 263.74,589.07 589.08,589.07 325.33,0 589.07,-263.74 589.07,-589.07 0,-325.34 -263.74,-589.08 -589.07,-589.08 -325.33,0 -397.93,353.22 -401.9,439.21"/>
  <path class="fil0 str1" d="M-50991.56 -4237.2c-325.34,0 -589.08,263.74 -589.08,589.08 0,325.33 263.74,589.07 589.08,589.07 325.33,0 589.07,-263.74 589.07,-589.07 0,-325.34 -263.74,-589.08 -589.07,-589.08 -325.33,0 -397.93,353.22 -401.9,439.21"/>
  <path class="fil0 str1" d="M-49922.96 -4635.68c-202,0 -365.76,163.76 -365.76,365.76 0,201.99 163.76,365.74 365.76,365.74 201.99,0 365.74,-163.75 365.74,-365.74 0,-202 -163.75,-365.76 -365.74,-365.76 -202,0 -247.07,219.31 -249.54,272.7"/>
  <path class="fil0 str1" d="M-49922.97 -5412.91c-113.25,0 -205.06,91.81 -205.06,205.06 0,113.25 91.81,205.06 205.06,205.06 113.25,0 205.06,-91.81 205.06,-205.06 0,-113.25 -91.81,-205.06 -205.06,-205.06 -113.25,0 -138.52,122.96 -139.9,152.89"/>
  <path class="fil0 str1" d="M-48623.26 -2360.94c-298.1,0 -539.76,241.66 -539.76,539.76 0,298.1 241.66,539.76 539.76,539.76 298.1,0 539.76,-241.66 539.76,-539.76 0,-298.1 -241.66,-539.76 -539.76,-539.76 -298.09,0 -364.62,323.65 -368.25,402.44"/>
  <path class="fil0 str2" d="M-2590.18 5265.72l0 -5946.28c0,-522.49 -427.49,-949.99 -949.98,-949.99l-14300 0c-522.5,0 -949.99,427.49 -949.99,949.99l0 5446.21c0,522.5 427.49,949.98 949.99,949.98l14300 0c522.5,0 949.98,-427.48 949.98,-949.98 0,-522.5 51.85,-776.56 152.4,-886.37"/>
  <path class="fil0 str2" d="M-18294.52 4751.04l0 -1578.51c0,-247.5 202.5,-450 450,-450l2612.34 0c247.5,0 450,202.5 450,450l0 1578.51c0,247.5 -202.5,450 -450,450l-2612.34 0c-247.5,0 -450,-202.5 -450,-450z"/>
  <path class="fil0 str2" d="M-18210.17 4704.93l0 -1463.94c0,-229.54 187.79,-417.33 417.32,-417.33l2509 0c229.53,0 417.32,187.79 417.32,417.33l0 1463.94c0,229.54 -187.79,417.33 -417.32,417.33l-2509 0c-229.53,0 -417.32,-187.79 -417.32,-417.33z"/>
  <path class="fil0 str2" d="M-18080.81 4404.79c0,325.34 263.74,589.08 589.08,589.08 325.33,0 589.07,-263.74 589.07,-589.08 0,-325.33 -263.74,-589.07 -589.07,-589.07 -325.34,0 -589.08,263.74 -589.08,589.07 0,325.33 353.22,397.93 439.21,401.9"/>
  <path class="fil0 str2" d="M-16851.37 4404.79c0,325.34 263.74,589.08 589.08,589.08 325.33,0 589.07,-263.74 589.07,-589.08 0,-325.33 -263.74,-589.07 -589.07,-589.07 -325.34,0 -589.08,263.74 -589.08,589.07 0,325.33 353.22,397.93 439.21,401.9"/>
  <path class="fil0 str2" d="M-17249.85 3336.19c0,202 163.76,365.76 365.76,365.76 201.99,0 365.74,-163.76 365.74,-365.76 0,-201.99 -163.75,-365.74 -365.74,-365.74 -202,0 -365.76,163.75 -365.76,365.74 0,202 219.31,247.07 272.7,249.54"/>
  <path class="fil0 str2" d="M-18027.08 3336.2c0,113.25 91.81,205.06 205.06,205.06 113.25,0 205.06,-91.81 205.06,-205.06 0,-113.25 -91.81,-205.06 -205.06,-205.06 -113.25,0 -205.06,91.81 -205.06,205.06 0,113.25 122.96,138.52 152.89,139.9"/>
  <path class="fil0 str2" d="M-14975.11 2036.49c0,298.1 241.66,539.76 539.76,539.76 298.1,0 539.76,-241.66 539.76,-539.76 0,-298.1 -241.66,-539.76 -539.76,-539.76 -298.1,0 -539.76,241.66 -539.76,539.76 0,298.09 323.65,364.62 402.44,368.25"/>
  <g id="_2260582259552">
   <path class="fil0 str2" d="M1066.99 5311.87l1709.08 0c150.18,0 273.05,-122.87 273.05,-273.05l0 -4110.11c0,-150.17 -122.87,-273.04 -273.05,-273.04l-1565.35 0c-150.17,0 -273.04,122.87 -273.04,273.04l0 4110.11c0,150.18 122.87,273.05 273.04,273.05 150.18,0 223.2,14.9 254.76,43.8"/>
   <path class="fil0 str2" d="M1214.92 798.12l453.7 0c71.13,0 129.34,58.21 129.34,129.34l0 750.84c0,71.14 -58.21,129.34 -129.34,129.34l-453.7 0c-71.13,0 -129.34,-58.2 -129.34,-129.34l0 -750.84c0,-71.13 58.21,-129.34 129.34,-129.34z"/>
   <path class="fil0 str2" d="M1228.18 822.37l420.76 0c65.98,0 119.95,53.97 119.95,119.94l0 721.14c0,65.97 -53.97,119.95 -119.95,119.95l-420.76 0c-65.98,0 -119.95,-53.98 -119.95,-119.95l0 -721.14c0,-65.97 53.97,-119.94 119.95,-119.94z"/>
   <path class="fil0 str2" d="M1314.44 859.55c-93.51,0 -169.31,75.8 -169.31,169.31 0,93.51 75.8,169.31 169.31,169.31 93.51,0 169.31,-75.8 169.31,-169.31 0,-93.51 -75.8,-169.31 -169.31,-169.31 -93.5,0 -114.37,101.52 -115.51,126.23"/>
   <path class="fil0 str2" d="M1314.44 1212.91c-93.51,0 -169.31,75.81 -169.31,169.32 0,93.5 75.8,169.31 169.31,169.31 93.51,0 169.31,-75.81 169.31,-169.31 0,-93.51 -75.8,-169.32 -169.31,-169.32 -93.5,0 -114.37,101.53 -115.51,126.24"/>
   <path class="fil0 str2" d="M1621.58 1098.38c-58.06,0 -105.13,47.07 -105.13,105.13 0,58.05 47.07,105.12 105.13,105.12 58.05,0 105.12,-47.07 105.12,-105.12 0,-58.06 -47.07,-105.13 -105.12,-105.13 -58.06,0 -71.02,63.04 -71.72,78.38"/>
   <path class="fil0 str2" d="M1621.58 874.99c-32.55,0 -58.94,26.39 -58.94,58.94 0,32.55 26.39,58.94 58.94,58.94 32.55,0 58.93,-26.39 58.93,-58.94 0,-32.55 -26.38,-58.94 -58.93,-58.94 -32.55,0 -39.82,35.34 -40.21,43.94"/>
   <path class="fil0 str2" d="M1995.14 1752.19c-85.68,0 -155.14,69.45 -155.14,155.14 0,85.68 69.46,155.13 155.14,155.13 85.68,0 155.14,-69.45 155.14,-155.13 0,-85.69 -69.46,-155.14 -155.14,-155.14 -85.68,0 -104.8,93.02 -105.84,115.67"/>
  </g>
 </g>
</svg>
