<?xml version="1.0" encoding="UTF-8"?>
<!DOCTYPE svg PUBLIC "-//W3C//DTD SVG 1.1//EN" "http://www.w3.org/Graphics/SVG/1.1/DTD/svg11.dtd">
<!-- Creator: CorelDRAW 2020 (64-Bit) -->
<svg xmlns="http://www.w3.org/2000/svg" xml:space="preserve" width="40mm" height="60mm" version="1.1" style="shape-rendering:geometricPrecision; text-rendering:geometricPrecision; image-rendering:optimizeQuality; fill-rule:evenodd; clip-rule:evenodd"
viewBox="0 0 4000 6000"
 xmlns:xlink="http://www.w3.org/1999/xlink"
 xmlns:xodm="http://www.corel.com/coreldraw/odm/2003">
 <defs>
  <style type="text/css">
   <![CDATA[
    .str1 {stroke:#332C2B;stroke-width:20;stroke-miterlimit:22.9256}
    .str0 {stroke:#E62129;stroke-width:20;stroke-miterlimit:22.9256}
    .str2 {stroke:#222222;stroke-width:7.62;stroke-miterlimit:22.9256}
    .fil0 {fill:none}
   ]]>
  </style>
 </defs>
 <g id="图层_x0020_1">
  <metadata id="CorelCorpID_0Corel-Layer"/>
  <path class="fil0 str0" d="M-31051.42 -14300.77c-558.98,0 -1012.13,453.15 -1012.13,1012.13 0,558.98 453.15,1012.13 1012.13,1012.13 558.98,0 1012.13,-453.15 1012.13,-1012.13 0,-558.98 -453.15,-1012.13 -1012.13,-1012.13 -558.98,0 -621.86,469.02 -632.32,589.32"/>
  <path class="fil0 str0" d="M-31051.42 -12138.56c-558.98,0 -1012.13,453.15 -1012.13,1012.13 0,558.98 453.15,1012.13 1012.13,1012.13 558.98,0 1012.13,-453.15 1012.13,-1012.13 0,-558.98 -453.15,-1012.13 -1012.13,-1012.13 -558.98,0 -621.86,469.02 -632.32,589.32"/>
  <path class="fil0 str0" d="M-29293.16 -13759.05c-254.26,0 -460.38,206.12 -460.38,460.38 0,254.26 206.12,460.38 460.38,460.38 254.26,0 460.38,-206.12 460.38,-460.38 0,-254.26 -206.12,-460.38 -460.38,-460.38 -254.26,0 -282.86,213.34 -287.62,268.06"/>
  <path class="fil0 str0" d="M-29293.16 -11605.34c-254.26,0 -460.38,206.12 -460.38,460.38 0,254.26 206.12,460.38 460.38,460.38 254.26,0 460.38,-206.12 460.38,-460.38 0,-254.26 -206.12,-460.38 -460.38,-460.38 -254.26,0 -282.86,213.34 -287.62,268.06"/>
  <path class="fil0 str1" d="M-31937.61 -14751l3428.82 0 0 4609.73c0,434.5 -355.5,790 -790,790l-3028.82 0 0 -5009.73c0,-214.5 175.5,-390 390,-390z"/>
  <path class="fil0 str2" d="M7602.94 5377.7c0,558.98 453.15,1012.13 1012.13,1012.13 558.98,0 1012.13,-453.15 1012.13,-1012.13 0,-558.98 -453.15,-1012.13 -1012.13,-1012.13 -558.98,0 -1012.13,453.15 -1012.13,1012.13 0,558.98 469.02,621.86 589.32,632.32"/>
  <path class="fil0 str2" d="M9765.15 5377.7c0,558.98 453.15,1012.13 1012.13,1012.13 558.98,0 1012.13,-453.15 1012.13,-1012.13 0,-558.98 -453.15,-1012.13 -1012.13,-1012.13 -558.98,0 -1012.13,453.15 -1012.13,1012.13 0,558.98 469.02,621.86 589.32,632.32"/>
  <path class="fil0 str2" d="M8144.66 3619.44c0,254.26 206.12,460.38 460.38,460.38 254.26,0 460.38,-206.12 460.38,-460.38 0,-254.26 -206.12,-460.38 -460.38,-460.38 -254.26,0 -460.38,206.12 -460.38,460.38 0,254.26 213.34,282.86 268.06,287.62"/>
  <path class="fil0 str2" d="M10298.37 3619.44c0,254.26 206.12,460.38 460.38,460.38 254.26,0 460.38,-206.12 460.38,-460.38 0,-254.26 -206.12,-460.38 -460.38,-460.38 -254.26,0 -460.38,206.12 -460.38,460.38 0,254.26 213.34,282.86 268.06,287.62"/>
  <path class="fil0 str2" d="M7152.71 6263.89l0 -3428.82 4609.73 0c434.5,0 790,355.5 790,790l0 3028.82 -5009.73 0c-214.5,0 -390,-175.5 -390,-390z"/>
  <path class="fil0 str2" d="M7602.94 1117.42c0,558.98 453.15,1012.13 1012.13,1012.13 558.98,0 1012.13,-453.15 1012.13,-1012.13 0,-558.98 -453.15,-1012.13 -1012.13,-1012.13 -558.98,0 -1012.13,453.15 -1012.13,1012.13 0,558.98 469.02,621.86 589.32,632.32"/>
  <path class="fil0 str2" d="M9765.15 1117.42c0,558.98 453.15,1012.13 1012.13,1012.13 558.98,0 1012.13,-453.15 1012.13,-1012.13 0,-558.98 -453.15,-1012.13 -1012.13,-1012.13 -558.98,0 -1012.13,453.15 -1012.13,1012.13 0,558.98 469.02,621.86 589.32,632.32"/>
  <path class="fil0 str2" d="M8144.66 -640.84c0,254.26 206.12,460.38 460.38,460.38 254.26,0 460.38,-206.12 460.38,-460.38 0,-254.26 -206.12,-460.38 -460.38,-460.38 -254.26,0 -460.38,206.12 -460.38,460.38 0,254.26 213.34,282.86 268.06,287.62"/>
  <path class="fil0 str2" d="M10298.37 -640.84c0,254.26 206.12,460.38 460.38,460.38 254.26,0 460.38,-206.12 460.38,-460.38 0,-254.26 -206.12,-460.38 -460.38,-460.38 -254.26,0 -460.38,206.12 -460.38,460.38 0,254.26 213.34,282.86 268.06,287.62"/>
  <path class="fil0 str2" d="M7152.71 2003.61l0 -3428.82 4609.73 0c434.5,0 790,355.5 790,790l0 3028.82 -5009.73 0c-214.5,0 -390,-175.5 -390,-390z"/>
  <path class="fil0 str2" d="M13212.11 5377.7c0,558.98 453.15,1012.13 1012.13,1012.13 558.98,0 1012.13,-453.15 1012.13,-1012.13 0,-558.98 -453.15,-1012.13 -1012.13,-1012.13 -558.98,0 -1012.13,453.15 -1012.13,1012.13 0,558.98 469.02,621.86 589.32,632.32"/>
  <path class="fil0 str2" d="M15374.32 5377.7c0,558.98 453.15,1012.13 1012.13,1012.13 558.98,0 1012.13,-453.15 1012.13,-1012.13 0,-558.98 -453.15,-1012.13 -1012.13,-1012.13 -558.98,0 -1012.13,453.15 -1012.13,1012.13 0,558.98 469.02,621.86 589.32,632.32"/>
  <path class="fil0 str2" d="M13753.83 3619.44c0,254.26 206.12,460.38 460.38,460.38 254.26,0 460.38,-206.12 460.38,-460.38 0,-254.26 -206.12,-460.38 -460.38,-460.38 -254.26,0 -460.38,206.12 -460.38,460.38 0,254.26 213.34,282.86 268.06,287.62"/>
  <path class="fil0 str2" d="M15907.54 3619.44c0,254.26 206.12,460.38 460.38,460.38 254.26,0 460.38,-206.12 460.38,-460.38 0,-254.26 -206.12,-460.38 -460.38,-460.38 -254.26,0 -460.38,206.12 -460.38,460.38 0,254.26 213.34,282.86 268.06,287.62"/>
  <path class="fil0 str2" d="M12761.88 6263.89l0 -3428.82 4609.73 0c434.5,0 790,355.5 790,790l0 3028.82 -5009.73 0c-214.5,0 -390,-175.5 -390,-390z"/>
  <path class="fil0 str2" d="M13212.11 1117.42c0,558.98 453.15,1012.13 1012.13,1012.13 558.98,0 1012.13,-453.15 1012.13,-1012.13 0,-558.98 -453.15,-1012.13 -1012.13,-1012.13 -558.98,0 -1012.13,453.15 -1012.13,1012.13 0,558.98 469.02,621.86 589.32,632.32"/>
  <path class="fil0 str2" d="M15374.32 1117.42c0,558.98 453.15,1012.13 1012.13,1012.13 558.98,0 1012.13,-453.15 1012.13,-1012.13 0,-558.98 -453.15,-1012.13 -1012.13,-1012.13 -558.98,0 -1012.13,453.15 -1012.13,1012.13 0,558.98 469.02,621.86 589.32,632.32"/>
  <path class="fil0 str2" d="M13753.83 -640.84c0,254.26 206.12,460.38 460.38,460.38 254.26,0 460.38,-206.12 460.38,-460.38 0,-254.26 -206.12,-460.38 -460.38,-460.38 -254.26,0 -460.38,206.12 -460.38,460.38 0,254.26 213.34,282.86 268.06,287.62"/>
  <path class="fil0 str2" d="M15907.54 -640.84c0,254.26 206.12,460.38 460.38,460.38 254.26,0 460.38,-206.12 460.38,-460.38 0,-254.26 -206.12,-460.38 -460.38,-460.38 -254.26,0 -460.38,206.12 -460.38,460.38 0,254.26 213.34,282.86 268.06,287.62"/>
  <path class="fil0 str2" d="M12761.88 2003.61l0 -3428.82 4609.73 0c434.5,0 790,355.5 790,790l0 3028.82 -5009.73 0c-214.5,0 -390,-175.5 -390,-390z"/>
  <path class="fil0 str2" d="M813.65 847.89c-238.65,0 -432.11,193.46 -432.11,432.1 0,238.65 193.46,432.11 432.11,432.11 238.64,0 432.1,-193.46 432.1,-432.11 0,-238.64 -193.46,-432.1 -432.1,-432.1 -238.65,0 -265.49,200.23 -269.96,251.59m269.96 671.51c-238.65,0 -432.11,193.46 -432.11,432.11 0,238.64 193.46,432.1 432.11,432.1 238.64,0 432.1,-193.46 432.1,-432.1 0,-238.65 -193.46,-432.11 -432.1,-432.11 -238.65,0 -265.49,200.24 -269.96,251.6m1020.61 -943.43c-108.56,0 -196.55,88 -196.55,196.55 0,108.55 87.99,196.55 196.55,196.55 108.55,0 196.54,-88 196.54,-196.55 0,-108.55 -87.99,-196.55 -196.54,-196.55 -108.56,0 -120.77,91.08 -122.8,114.44m122.8 805.04c-108.56,0 -196.55,88 -196.55,196.55 0,108.55 87.99,196.55 196.55,196.55 108.55,0 196.54,-88 196.54,-196.55 0,-108.55 -87.99,-196.55 -196.54,-196.55 -108.56,0 -120.77,91.08 -122.8,114.44m-1006.19 -1457.41l1463.85 0 0 1968.02c0,185.5 -151.77,337.27 -337.26,337.27l-1293.1 0 0 -2138.79c0,-91.58 74.92,-166.5 166.51,-166.5zm2197.17 192.22c-238.65,0 -432.11,193.46 -432.11,432.1 0,238.65 193.46,432.11 432.11,432.11 238.64,0 432.1,-193.46 432.1,-432.11 0,-238.64 -193.46,-432.1 -432.1,-432.1 -238.65,0 -265.49,200.23 -269.96,251.59m269.96 671.51c-238.65,0 -432.11,193.46 -432.11,432.11 0,238.64 193.46,432.1 432.11,432.1 238.64,0 432.1,-193.46 432.1,-432.1 0,-238.65 -193.46,-432.11 -432.1,-432.11 -238.65,0 -265.49,200.24 -269.96,251.6m1020.61 -943.43c-108.55,0 -196.55,88 -196.55,196.55 0,108.55 88,196.55 196.55,196.55 108.55,0 196.54,-88 196.54,-196.55 0,-108.55 -87.99,-196.55 -196.54,-196.55 -108.55,0 -120.76,91.08 -122.8,114.44m122.8 805.04c-108.55,0 -196.55,88 -196.55,196.55 0,108.55 88,196.55 196.55,196.55 108.55,0 196.54,-88 196.54,-196.55 0,-108.55 -87.99,-196.55 -196.54,-196.55 -108.55,0 -120.76,91.08 -122.8,114.44m-1006.19 -1457.41l1463.86 0 0 1968.02c0,185.5 -151.78,337.27 -337.27,337.27l-1293.09 0 0 -2138.79c0,-91.58 74.91,-166.5 166.5,-166.5zm-1440.49 2586.92c-238.65,0 -432.11,193.47 -432.11,432.11 0,238.64 193.46,432.11 432.11,432.11 238.64,0 432.1,-193.47 432.1,-432.11 0,-238.64 -193.46,-432.11 -432.1,-432.11 -238.65,0 -265.49,200.24 -269.96,251.6m269.96 671.51c-238.65,0 -432.11,193.46 -432.11,432.11 0,238.64 193.46,432.1 432.11,432.1 238.64,0 432.1,-193.46 432.1,-432.1 0,-238.65 -193.46,-432.11 -432.1,-432.11 -238.65,0 -265.49,200.24 -269.96,251.6m1020.61 -943.43c-108.56,0 -196.55,88 -196.55,196.55 0,108.55 87.99,196.55 196.55,196.55 108.55,0 196.54,-88 196.54,-196.55 0,-108.55 -87.99,-196.55 -196.54,-196.55 -108.56,0 -120.77,91.08 -122.8,114.44m122.8 805.04c-108.56,0 -196.55,87.99 -196.55,196.54 0,108.56 87.99,196.55 196.55,196.55 108.55,0 196.54,-87.99 196.54,-196.55 0,-108.55 -87.99,-196.54 -196.54,-196.54 -108.56,0 -120.77,91.08 -122.8,114.44m-1006.19 -1457.41l1463.85 0 0 1968.02c0,185.5 -151.77,337.27 -337.26,337.27l-1293.1 0 0 -2138.79c0,-91.58 74.92,-166.5 166.51,-166.5zm2197.17 192.21c-238.65,0 -432.11,193.47 -432.11,432.11 0,238.64 193.46,432.11 432.11,432.11 238.64,0 432.1,-193.47 432.1,-432.11 0,-238.64 -193.46,-432.11 -432.1,-432.11 -238.65,0 -265.49,200.24 -269.96,251.6m269.96 671.51c-238.65,0 -432.11,193.46 -432.11,432.11 0,238.64 193.46,432.1 432.11,432.1 238.64,0 432.1,-193.46 432.1,-432.1 0,-238.65 -193.46,-432.11 -432.1,-432.11 -238.65,0 -265.49,200.24 -269.96,251.6m1020.61 -943.43c-108.55,0 -196.55,88 -196.55,196.55 0,108.55 88,196.55 196.55,196.55 108.55,0 196.54,-88 196.54,-196.55 0,-108.55 -87.99,-196.55 -196.54,-196.55 -108.55,0 -120.76,91.08 -122.8,114.44m122.8 805.04c-108.55,0 -196.55,87.99 -196.55,196.54 0,108.56 88,196.55 196.55,196.55 108.55,0 196.54,-87.99 196.54,-196.55 0,-108.55 -87.99,-196.54 -196.54,-196.54 -108.55,0 -120.76,91.08 -122.8,114.44m-1006.19 -1457.41l1463.86 0 0 1968.02c0,185.5 -151.78,337.27 -337.27,337.27l-1293.09 0 0 -2138.79c0,-91.58 74.91,-166.5 166.5,-166.5z"/>
 </g>
</svg>
