<?xml version="1.0" encoding="UTF-8"?>
<!DOCTYPE svg PUBLIC "-//W3C//DTD SVG 1.1//EN" "http://www.w3.org/Graphics/SVG/1.1/DTD/svg11.dtd">
<!-- Creator: CorelDRAW X8 -->
<svg xmlns="http://www.w3.org/2000/svg" xml:space="preserve" width="40mm" height="60mm" version="1.1" style="shape-rendering:geometricPrecision; text-rendering:geometricPrecision; image-rendering:optimizeQuality; fill-rule:evenodd; clip-rule:evenodd"
viewBox="0 0 4000 6000"
 xmlns:xlink="http://www.w3.org/1999/xlink">
 <defs>
  <style type="text/css">
   <![CDATA[
    .str0 {stroke:black;stroke-width:7.62}
    .fil0 {fill:none}
   ]]>
  </style>
 </defs>
 <g id="图层_x0020_1">
  <metadata id="CorelCorpID_0Corel-Layer"/>
  <path class="fil0 str0" d="M1047 5350l1753 0c130,0 235,-106 235,-235l0 -4230c0,-129 -105,-235 -235,-235l-1600 0c-130,0 -235,106 -235,235l0 4230c0,129 105,235 235,235l348 0m501 -3594c-1,-15 -14,-29 -41,-31 -96,0 -173,78 -173,174 0,95 77,173 173,173 96,0 173,-78 173,-173 0,-96 -77,-174 -173,-174m-527 -447c-14,3 -25,9 -25,33l0 20c0,29 23,52 52,52l0 0c28,0 51,-23 51,-52l0 -58c0,-29 -23,-52 -51,-52l0 0c-29,0 -52,23 -52,52l0 38m-247 -486l332 0c82,0 150,67 150,150l0 661c0,82 -68,150 -150,150l-332 0c-82,0 -150,-68 -150,-150l0 -661c0,-83 68,-150 150,-150zm21 38l290 0c73,0 133,60 133,132l0 620c0,73 -60,132 -133,132l-290 0c-73,0 -133,-59 -133,-132l0 -620c0,-72 60,-132 133,-132zm37 59c-1,-9 -9,-18 -26,-19 -61,0 -110,49 -110,110 0,61 49,110 110,110 61,0 110,-49 110,-110 0,-61 -49,-110 -110,-110m26 312c-1,-10 -9,-19 -26,-20 -61,0 -110,49 -110,110 0,61 49,110 110,110 61,0 110,-49 110,-110 0,-61 -49,-110 -110,-110m26 315c-1,-9 -9,-18 -26,-20 -61,0 -110,50 -110,111 0,60 49,110 110,110 61,0 110,-50 110,-110 0,-61 -49,-111 -110,-111m283 53c-1,-6 -6,-12 -18,-13 -40,0 -73,33 -73,74 0,40 33,73 73,73 41,0 74,-33 74,-73 0,-41 -33,-74 -74,-74"/>
 </g>
</svg>
