<?xml version="1.0" encoding="UTF-8"?>
<!DOCTYPE svg PUBLIC "-//W3C//DTD SVG 1.1//EN" "http://www.w3.org/Graphics/SVG/1.1/DTD/svg11.dtd">
<!-- Creator: CorelDRAW 2020 (64-Bit) -->
<svg xmlns="http://www.w3.org/2000/svg" xml:space="preserve" width="40mm" height="60mm" version="1.1" style="shape-rendering:geometricPrecision; text-rendering:geometricPrecision; image-rendering:optimizeQuality; fill-rule:evenodd; clip-rule:evenodd"
viewBox="0 0 4000 6000"
 xmlns:xlink="http://www.w3.org/1999/xlink"
 xmlns:xodm="http://www.corel.com/coreldraw/odm/2003">
 <defs>
  <style type="text/css">
   <![CDATA[
    .str1 {stroke:#332C2B;stroke-width:20;stroke-miterlimit:22.9256}
    .str0 {stroke:#332C2B;stroke-width:20;stroke-miterlimit:22.9256}
    .fil0 {fill:none}
   ]]>
  </style>
 </defs>
 <g id="图层_x0020_1">
  <metadata id="CorelCorpID_0Corel-Layer"/>
  <g id="_2680110450288">
   <path class="fil0 str0" d="M2307.31 1057.68l0 851.16c0,54.8 -38.27,101.69 -72.43,123.6 -51.85,33.26 -92.78,25.29 -173.24,25.29l-1089.48 -0.09c-30.7,-0.08 -54.5,14.97 -54.5,44.76l0 3012.56c0,53.83 26.38,113.07 60.28,153.14 5.11,6.03 10.37,10.52 16.02,16.24 36.47,36.89 101.55,71.33 174.33,71.33l1647.73 0c63.13,0 123.8,-23.93 166.89,-63.89 12,-11.12 20.69,-18.22 32.74,-34.27 5.32,-7.08 8.65,-11.66 13.31,-18.95 8.92,-13.95 16.49,-28.84 22.48,-44.52 12.71,-33.24 17.7,-70.8 17.7,-116.3l0 -4144.14c0,-96 -29.23,-174.84 -105.26,-229.74 -11.99,-8.65 -27.92,-18.94 -42.19,-24.82 -38.2,-15.72 -65.58,-23.37 -110.63,-23.37l-1635.32 0c-91.9,0 -170.51,44.63 -211.46,106.18 -20.74,31.18 -61.79,102.47 -31.09,136.37 17.7,19.55 74.51,13.05 113.51,13.05l895.83 0c61.76,0 205.34,-5.69 248.5,7.09 62.44,18.5 116.28,79.56 116.28,139.32z"/>
   <path class="fil0 str0" d="M942.48 973.3l0 1024.87c0,29 18.89,52.11 47.14,52.11l1129.1 0c95.12,0 178.67,-81.41 178.67,-176.18l0 -776.72c0,-94.05 -80.73,-176.19 -178.67,-176.19l-1131.58 0c-27.45,0 -44.66,24.16 -44.66,52.11z"/>
   <path class="fil0 str0" d="M1744.01 1745.06c0,52.77 4.04,72.54 24.08,119.84 6.72,15.83 24.33,42.55 36.11,55.71 24.29,27.12 51.62,52.34 86.23,67.62 134.34,59.33 279.62,8.73 343.27,-118.27 25.52,-50.92 26.46,-74.74 26.46,-129.86 0,-63.09 -32.47,-125.59 -73.82,-166.89 -18.68,-18.66 -45.48,-40.59 -70.12,-51.47 -73.32,-32.39 -154.74,-35.8 -227.46,0.8 -80.2,40.36 -144.75,124.02 -144.75,222.52z"/>
   <path class="fil0 str0" d="M1116.18 1747.54c0,137.6 113.87,258.08 245.67,258.08 75.5,0 124.33,-14.94 179.44,-61.27 7.29,-6.13 10.47,-7.81 17.29,-14.98l27.63 -34.4c50.32,-72.5 59.59,-166.3 24.52,-247.42 -13.28,-30.73 -30.2,-54.84 -52.22,-76.82 -80.01,-79.88 -190.84,-101.9 -293.76,-54.3 -86.87,40.18 -148.57,133.99 -148.57,231.11z"/>
   <path class="fil0 str1" d="M1375.57 968.08c131.69,0 238.45,106.76 238.45,238.45 0,131.7 -106.76,238.46 -238.45,238.46 -131.69,0 -238.45,-106.76 -238.45,-238.46 0,-131.69 106.76,-238.45 238.45,-238.45z"/>
   <path class="fil0 str1" d="M1995.3 968.08c131.69,0 238.45,106.76 238.45,238.45 0,131.7 -106.76,238.46 -238.45,238.46 -131.69,0 -238.45,-106.76 -238.45,-238.46 0,-131.69 106.76,-238.45 238.45,-238.45z"/>
  </g>
 </g>
</svg>
