<?xml version="1.0" encoding="UTF-8"?>
<!DOCTYPE svg PUBLIC "-//W3C//DTD SVG 1.1//EN" "http://www.w3.org/Graphics/SVG/1.1/DTD/svg11.dtd">
<!-- Creator: CorelDRAW X8 -->
<svg xmlns="http://www.w3.org/2000/svg" xml:space="preserve" width="40mm" height="60mm" version="1.1" style="shape-rendering:geometricPrecision; text-rendering:geometricPrecision; image-rendering:optimizeQuality; fill-rule:evenodd; clip-rule:evenodd"
viewBox="0 0 4000 6000"
 xmlns:xlink="http://www.w3.org/1999/xlink">
 <defs>
  <style type="text/css">
   <![CDATA[
    .str0 {stroke:black;stroke-width:7.62}
    .fil0 {fill:none}
   ]]>
  </style>
 </defs>
 <g id="图层_x0020_1">
  <metadata id="CorelCorpID_0Corel-Layer"/>
  <path class="fil0 str0" d="M767 654c0,9 -5,120 3,128 92,20 302,4 407,4l0 21c-203,75 -205,134 -205,333l-141 0 0 3724 130 0c0,115 41,252 173,279l0 28c-89,7 -243,50 -371,50 -18,48 -23,129 45,129 811,0 1621,0 2431,0 2,-15 8,-8 7,-57 0,-22 0,-43 0,-64 -11,-7 -327,-24 -419,-76l-9 -7c153,-4 223,-149 223,-282l130 0 0 -3724 -133 0c0,-385 -177,-289 -198,-347 115,0 261,0 403,0 10,-27 3,-106 3,-143 -785,0 -1650,2 -2479,4zm512 305l443 0c77,0 140,63 140,140l0 450c0,77 -63,140 -140,140l-443 0c-77,0 -140,-63 -140,-140l0 -450c0,-77 63,-140 140,-140zm26 61l390 0c59,0 107,48 107,106l0 392c0,59 -48,107 -107,107l-390 0c-59,0 -107,-48 -107,-107l0 -392c0,-58 48,-106 107,-106zm60 51c66,0 119,53 119,119 0,65 -53,118 -119,118 -66,0 -120,-53 -120,-118 0,-66 54,-119 120,-119zm282 0c66,0 120,53 120,119 0,65 -54,118 -120,118 -66,0 -119,-53 -119,-118 0,-66 53,-119 119,-119zm-282 280c66,0 119,53 119,119 0,65 -53,119 -119,119 -66,0 -120,-54 -120,-119 0,-66 54,-119 120,-119zm282 0c66,0 120,53 120,119 0,65 -54,119 -120,119 -66,0 -119,-54 -119,-119 0,-66 53,-119 119,-119zm-737 990l0 0c20,0 37,17 37,37l0 326c0,21 -17,37 -37,37l0 0c-21,0 -37,-16 -37,-37l0 -326c0,-20 16,-37 37,-37zm2192 -1064l0 0c11,0 20,9 20,20l0 486c0,11 -9,20 -20,20l0 0c-11,0 -20,-9 -20,-20l0 -486c0,-11 9,-20 20,-20zm2 936l0 0c12,0 21,10 21,21l0 273c0,12 -9,22 -21,22l0 0c-12,0 -22,-10 -22,-22l0 -273c0,-11 10,-21 22,-21zm-1 352l0 0c13,0 24,11 24,24l0 292c0,13 -11,24 -24,24l0 0c-14,0 -25,-11 -25,-24l0 -292c0,-13 11,-24 25,-24zm-1767 2651l262 0c15,0 27,12 27,27l0 0c0,15 -12,27 -27,27l-262 0c-15,0 -28,-12 -28,-27l0 0c0,-15 13,-27 28,-27zm587 -30l156 0c30,0 55,24 55,54l0 0c0,30 -25,54 -55,54l-156 0c-30,0 -54,-24 -54,-54l0 0c0,-30 24,-54 54,-54zm338 31l51 0c11,0 20,9 20,20l0 17c0,11 -9,20 -20,20l-51 0c-10,0 -19,-9 -19,-20l0 -17c0,-11 9,-20 19,-20zm317 -36c33,0 59,26 59,59 0,32 -26,58 -59,58 -32,0 -59,-26 -59,-58 0,-33 27,-59 59,-59z"/>
 </g>
</svg>
