<?xml version="1.0" encoding="UTF-8"?>
<!DOCTYPE svg PUBLIC "-//W3C//DTD SVG 1.1//EN" "http://www.w3.org/Graphics/SVG/1.1/DTD/svg11.dtd">
<!-- Creator: CorelDRAW -->
<svg xmlns="http://www.w3.org/2000/svg" xml:space="preserve" width="40mm" height="60mm" style="shape-rendering:geometricPrecision; text-rendering:geometricPrecision; image-rendering:optimizeQuality; fill-rule:evenodd; clip-rule:evenodd"
viewBox="0 0 40 60"
 xmlns:xlink="http://www.w3.org/1999/xlink">
 <defs>
  <style type="text/css">
   <![CDATA[
    .str0 {stroke:#1F1A17;stroke-width:0.194}
    .str1 {stroke:#1F1A17;stroke-width:0.2}
    .fil1 {fill:none}
    .fil0 {fill:none;fill-rule:nonzero}
   ]]>
  </style>
 </defs>
 <g id="图层_x0020_1">
  <metadata id="CorelCorpID_0Corel-Layer"/>
  <g id="_46696520">
   <line id="_175674952" class="fil0 str0" x1="19.9497" y1="10.065" x2="21.3185" y2= "10.0554" />
   <path id="_175674520" class="fil0 str0" d="M21.3185 10.0554c0.7025,-0.0042 0.8164,0.0139 0.9494,0.1511 0.0862,0.0884 0.1373,0.2363 0.1373,0.396 0,0.1927 -0.0745,0.3693 -0.1905,0.4481"/>
   <line id="_175674880" class="fil0 str0" x1="22.2147" y1="11.0506" x2="22.2019" y2= "11.0602" />
   <path id="_175675240" class="fil0 str0" d="M22.2019 11.0602c-0.1405,0.0968 -0.1405,0.0968 -2.1394,0.0968"/>
   <line id="_175674856" class="fil0 str0" x1="20.0625" y1="11.157" x2="18.533" y2= "11.157" />
   <path id="_176139472" class="fil0 str0" d="M18.533 11.157c-0.3086,0 -0.5002,-0.0031 -0.6333,-0.0095 -0.133,-0.0064 -0.215,-0.016 -0.2703,-0.0309 -0.0426,-0.0117 -0.066,-0.0234 -0.1182,-0.0585"/>
   <line id="_176136064" class="fil0 str0" x1="17.5112" y1="11.0581" x2="17.5016" y2= "11.0506" />
   <path id="_176136280" class="fil0 str0" d="M17.5016 11.0506c-0.1149,-0.0788 -0.1915,-0.2576 -0.1915,-0.447 0,-0.4098 0.1894,-0.5482 0.7525,-0.546"/>
   <line id="_175609480" class="fil0 str0" x1="18.0626" y1="10.0576" x2="20.1381" y2= "10.065" />
   <polyline id="_175609912" class="fil0 str0" points="19.836,8.9484 19.9265,8.9484 19.9265,8.941 27.1855,8.9091 "/>
   <path id="_175609672" class="fil0 str0" d="M27.1855 8.9091c1.6658,-0.0064 1.7595,0.0127 2.2097,0.4672 0.3246,0.3279 0.3832,0.4886 0.3917,1.0612 0.0883,6.5534 0.1533,13.1058 0.1958,19.6592"/>
   <line id="_175609216" class="fil0 str0" x1="29.9827" y1="30.0967" x2="30.07" y2= "43.9209" />
   <path id="_175608448" class="fil0 str0" d="M30.07 43.9209c0.0298,4.5353 0.0064,5.9573 -0.1011,6.1915 -0.2821,0.6163 -0.8089,0.9132 -1.6243,0.9164"/>
   <line id="_175609144" class="fil0 str0" x1="28.3446" y1="51.0288" x2="11.6775" y2= "51.0916" />
   <path id="_175610584" class="fil0 str0" d="M11.6775 51.0916c-0.7014,0.0022 -1.0963,-0.1767 -1.4572,-0.662"/>
   <line id="_46699568" class="fil0 str0" x1="10.2203" y1="50.4296" x2="10.1586" y2= "50.3647" />
   <path id="_46698824" class="fil0 str0" d="M10.1586 50.3647c-0.1224,-0.1086 -0.1224,-0.1086 -0.1277,-3.6243"/>
   <line id="_46697168" class="fil0 str0" x1="10.0309" y1="46.7404" x2="9.9851" y2= "13.9298" />
   <path id="_46697672" class="fil0 str0" d="M9.9851 13.9298c-0.0032,-2.4119 -0.0181,-3.2826 -0.0649,-3.8478 -0.0021,-0.017 -0.0021,-0.0319 -0.0021,-0.0425 0,-0.3502 0.6333,-0.9516 1.0942,-1.0421"/>
   <line id="_46696784" class="fil0 str0" x1="11.0123" y1="8.9974" x2="20.1074" y2= "8.9335" />
   <path id="_46696496" class="fil0 str0" d="M24.7901 10.0203c0.298,0.0745 0.4885,0.3023 0.4885,0.5833 0,0.3384 -0.2618,0.6045 -0.5928,0.6045 -0.3268,-0.001 -0.5876,-0.2661 -0.5876,-0.5981 -0.001,-0.3385 0.2576,-0.595 0.5972,-0.594 0.0479,0 0.0606,0 0.216,0.0117"/>
   <rect id="_46696688" class="fil1 str1" x="14.2112" y="10.0772" width="1.9" height="1.1274" rx="0.4845" ry="0.4845"/>
  </g>
 </g>
</svg>
