<?xml version="1.0" encoding="UTF-8"?>
<!DOCTYPE svg PUBLIC "-//W3C//DTD SVG 1.1//EN" "http://www.w3.org/Graphics/SVG/1.1/DTD/svg11.dtd">
<!-- Creator: CorelDRAW 2020 (64-Bit) -->
<svg xmlns="http://www.w3.org/2000/svg" xml:space="preserve" width="40mm" height="60mm" version="1.1" style="shape-rendering:geometricPrecision; text-rendering:geometricPrecision; image-rendering:optimizeQuality; fill-rule:evenodd; clip-rule:evenodd"
viewBox="0 0 4000 6000"
 xmlns:xlink="http://www.w3.org/1999/xlink"
 xmlns:xodm="http://www.corel.com/coreldraw/odm/2003">
 <defs>
  <style type="text/css">
   <![CDATA[
    .str0 {stroke:black;stroke-width:7.62;stroke-miterlimit:22.9256}
    .fil0 {fill:none}
   ]]>
  </style>
 </defs>
 <g id="图层_x0020_1">
  <metadata id="CorelCorpID_0Corel-Layer"/>
  <path class="fil0 str0" d="M2015.74 745.49c3.06,-19.68 -13.49,-33.48 -21.7,-34.11 -29.2,0 -52.88,23.68 -52.88,52.88 0,29.2 23.68,52.88 52.88,52.88 29.2,0 52.88,-23.68 52.88,-52.88 0,-29.2 -23.68,-52.88 -52.88,-52.88m-941.85 4627.86l1779.98 0c120.34,0 218.81,-98.47 218.81,-218.82l0 -4245.93c0,-120.34 -98.47,-218.82 -218.81,-218.82l-297.16 0c-2.49,0 -4.65,0.89 -6.41,2.66l-3.75 3.75c-1.77,1.76 -3.92,2.66 -6.42,2.66l-1050.06 0c-2.5,0 -4.65,-0.9 -6.42,-2.66l-3.75 -3.75c-1.76,-1.77 -3.92,-2.66 -6.41,-2.66l-297.15 0c-120.35,0 -218.82,98.47 -218.82,218.82l0 4245.93c0,120.35 98.47,218.82 218.82,218.82l40.66 0c47.34,0 74.78,9.55 84.74,16.43"/>
 </g>
</svg>
