<?xml version="1.0" encoding="UTF-8"?>
<!DOCTYPE svg PUBLIC "-//W3C//DTD SVG 1.1//EN" "http://www.w3.org/Graphics/SVG/1.1/DTD/svg11.dtd">
<!-- Creator: CorelDRAW X8 -->
<svg xmlns="http://www.w3.org/2000/svg" xml:space="preserve" width="40mm" height="60mm" version="1.1" style="shape-rendering:geometricPrecision; text-rendering:geometricPrecision; image-rendering:optimizeQuality; fill-rule:evenodd; clip-rule:evenodd"
viewBox="0 0 4000 6000"
 xmlns:xlink="http://www.w3.org/1999/xlink">
 <defs>
  <style type="text/css">
   <![CDATA[
    .fil0 {fill:#332C2B;fill-rule:nonzero}
   ]]>
  </style>
 </defs>
 <g id="图层_x0020_1">
  <metadata id="CorelCorpID_0Corel-Layer"/>
  <g>
   <path class="fil0" d="M733 761c-2,2 -6,2 -8,-1 -2,-2 -2,-6 0,-8l8 9zm52 -56l5 11 0 0 -2 1 -2 1 -2 1 -1 1 -2 1 -2 1 -2 2 -2 1 -1 1 -2 1 -2 2 -1 1 -2 1 -2 1 -1 2 -2 1 -2 2 -1 1 -2 1 -2 2 -1 1 -2 2 -2 2 -2 1 -1 2 -2 1 -2 2 -2 2 -2 2 -2 1 -2 2 -2 2 -8 -9 2 -2 2 -1 2 -2 2 -2 2 -2 2 -1 2 -2 2 -2 1 -1 2 -2 2 -1 2 -2 1 -1 2 -2 2 -1 2 -2 1 -1 2 -2 2 -1 2 -1 1 -2 2 -1 2 -1 2 -2 2 -1 2 -1 2 -2 2 -1 2 -1 2 -1 2 -1 2 -2 0 0zm0 0c3,-1 6,0 8,3 1,3 0,6 -3,8l-5 -11zm87 -27l2 12 0 0 -3 0 -3 1 -2 0 -3 1 -3 1 -3 0 -2 1 -3 0 -3 1 -2 0 -3 1 -3 1 -2 1 -3 0 -3 1 -2 1 -3 1 -2 0 -3 1 -3 1 -2 1 -3 1 -2 1 -3 1 -2 1 -3 1 -2 1 -3 1 -2 1 -3 1 -2 2 -3 1 -5 -11 2 -1 3 -1 3 -1 2 -2 3 -1 3 -1 2 -1 3 -1 3 -1 2 -1 3 -1 3 -1 2 -1 3 -1 3 -1 2 -1 3 0 3 -1 3 -1 2 -1 3 0 3 -1 3 -1 2 0 3 -1 3 0 3 -1 3 -1 2 0 3 -1 3 0 3 -1 0 0zm0 0c3,0 6,2 7,5 0,3 -2,6 -5,7l-2 -12zm66 9l1 -11 -1 11 -3 0 -3 0 -4 0 -3 1 -3 0 -3 0 -3 0 -2 0 -3 0 -3 0 -2 0 -3 0 -2 0 -2 0 -3 0 -2 0 -2 1 -2 0 -2 0 -1 0 -2 0 -1 0 -2 0 -1 0 -1 0 -2 0 -1 0 -1 1 0 0 -1 0 -1 0 0 0 -2 -12 0 0 1 0 1 0 1 0 1 0 1 0 2 0 1 -1 1 0 2 0 1 0 2 0 2 0 2 0 2 0 2 0 2 0 2 0 2 0 3 -1 2 0 3 0 3 0 2 0 3 0 3 0 3 0 3 0 3 0 3 0 4 0 3 0 0 11zm0 -11c3,-1 6,2 6,5 0,4 -2,6 -6,6l0 -11zm-161 -13l5 -10 2 0 2 1 3 1 2 1 3 1 3 1 3 1 3 1 4 1 4 1 4 1 4 1 4 0 4 1 5 1 5 1 5 0 5 1 5 1 6 0 6 1 6 1 6 0 6 1 6 0 7 1 7 0 7 1 7 0 7 1 8 0 8 1 -1 11 -8 0 -7 -1 -8 0 -7 0 -7 -1 -7 0 -7 -1 -6 -1 -6 0 -7 -1 -6 0 -5 -1 -6 -1 -5 0 -6 -1 -5 -1 -5 -1 -5 0 -4 -1 -5 -1 -4 -1 -4 -1 -4 -1 -3 -1 -4 0 -3 -1 -4 -1 -3 -2 -3 -1 -2 -1 -3 -1 -2 -1zm0 0c-3,-2 -4,-5 -3,-8 2,-3 5,-4 8,-2l-5 10zm-52 89c3,-2 6,-2 9,1 2,2 1,6 -1,8l-8 -9zm-45 88l-11 -4 0 0 1 -3 1 -3 2 -3 1 -3 2 -3 1 -3 1 -3 2 -3 1 -2 2 -3 2 -3 1 -3 2 -3 2 -3 1 -2 2 -3 2 -3 2 -3 2 -2 2 -3 2 -2 2 -3 2 -2 2 -3 2 -2 2 -2 2 -3 2 -2 2 -2 2 -2 2 -2 2 -2 8 9 -2 2 -2 2 -2 1 -2 2 -2 2 -2 3 -2 2 -2 2 -1 2 -2 2 -2 3 -2 2 -2 3 -1 2 -2 3 -2 2 -2 3 -1 3 -2 2 -2 3 -1 3 -2 2 -1 3 -2 3 -1 3 -2 2 -1 3 -1 3 -2 3 -1 3 -1 3 -1 2 0 0zm0 0c-1,3 -5,5 -8,4 -3,-2 -4,-5 -3,-8l11 4zm-30 121l-12 -1 0 0 1 -4 0 -4 1 -4 0 -4 1 -4 0 -4 1 -4 1 -4 0 -4 1 -4 1 -4 1 -4 0 -4 1 -4 1 -4 1 -4 1 -3 1 -4 1 -4 1 -4 2 -4 1 -3 1 -4 1 -4 1 -4 2 -4 1 -3 1 -4 2 -4 1 -4 2 -3 1 -4 11 4 -2 4 -1 4 -1 3 -2 4 -1 4 -1 3 -2 4 -1 4 -1 3 -1 4 -1 4 -1 3 -1 4 -1 4 -1 4 -1 3 -1 4 -1 4 -1 4 -1 3 -1 4 -1 4 0 4 -1 4 -1 4 0 3 -1 4 0 4 -1 4 0 4 -1 4 0 4 0 0zm0 0c0,3 -3,5 -6,5 -4,0 -6,-3 -6,-6l12 1zm-7 89l-11 -1 0 0 0 -2 0 -3 0 -3 0 -3 0 -3 0 -3 0 -2 1 -3 0 -3 0 -3 0 -3 0 -2 1 -3 0 -3 0 -3 0 -3 0 -2 1 -3 0 -3 0 -3 0 -3 1 -2 0 -3 0 -3 0 -3 1 -3 0 -2 0 -3 0 -3 1 -3 0 -3 0 -2 12 1 0 3 -1 2 0 3 0 3 0 3 -1 2 0 3 0 3 0 3 -1 3 0 2 0 3 0 3 -1 3 0 3 0 2 0 3 -1 3 0 3 0 2 0 3 0 3 -1 3 0 3 0 2 0 3 0 3 0 3 0 2 0 3 -1 3 0 3 0 0zm0 0c0,3 -2,6 -6,5 -3,0 -5,-2 -5,-6l11 1zm1 3929l-12 0 0 0 0 -15 0 -37 0 -55 0 -74 0 -90 0 -105 0 -120 -1 -131 0 -143 0 -153 0 -161 0 -168 0 -173 0 -178 0 -180 0 -182 0 -181 0 -181 0 -177 0 -174 0 -168 0 -161 0 -152 0 -143 0 -132 0 -119 0 -106 0 -90 0 -73 0 -56 1 -36 0 -16 11 1 0 15 0 36 0 56 0 73 0 90 0 106 0 119 0 132 0 143 0 152 0 161 0 168 0 174 0 177 0 181 0 181 0 182 0 180 0 178 0 173 0 168 0 161 0 153 0 143 0 131 0 120 0 105 1 90 0 74 0 55 0 37 0 15 0 0zm0 0c0,3 -2,6 -6,6 -3,0 -6,-3 -6,-6l12 0zm7 89l-12 1 0 0 0 -3 -1 -3 0 -3 0 -2 0 -3 -1 -3 0 -3 0 -3 0 -2 -1 -3 0 -3 0 -3 0 -3 -1 -2 0 -3 0 -3 0 -3 -1 -3 0 -2 0 -3 0 -3 0 -3 -1 -3 0 -2 0 -3 0 -3 0 -3 0 -3 0 -2 -1 -3 0 -3 0 -3 12 0 0 3 0 2 0 3 0 3 0 3 1 2 0 3 0 3 0 3 0 2 0 3 1 3 0 3 0 3 0 2 1 3 0 3 0 3 0 2 0 3 1 3 0 3 0 3 0 2 1 3 0 3 0 3 1 3 0 2 0 3 0 3 1 3 0 0zm0 0c0,3 -3,6 -6,6 -3,0 -6,-2 -6,-5l12 -1zm30 120l-11 4 0 0 -2 -3 -1 -4 -2 -4 -1 -3 -1 -4 -2 -4 -1 -4 -1 -3 -1 -4 -2 -4 -1 -4 -1 -4 -1 -3 -1 -4 -1 -4 -1 -4 -1 -4 -1 -4 -1 -4 -1 -3 -1 -4 0 -4 -1 -4 -1 -4 -1 -4 0 -4 -1 -4 0 -4 -1 -4 0 -4 -1 -4 0 -4 12 -1 0 4 0 4 1 3 0 4 1 4 0 4 1 4 1 4 0 4 1 3 1 4 1 4 1 4 0 4 1 3 1 4 1 4 1 4 1 3 1 4 1 4 2 3 1 4 1 4 1 4 1 3 2 4 1 4 1 3 2 4 1 3 2 4 0 0zm0 0c1,3 -1,7 -4,8 -3,1 -6,-1 -7,-4l11 -4zm53 80l-8 8 0 0 -3 -2 -2 -2 -2 -2 -3 -3 -2 -2 -2 -2 -2 -3 -2 -2 -2 -3 -2 -2 -2 -3 -2 -2 -2 -3 -2 -2 -2 -3 -1 -3 -2 -2 -2 -3 -1 -3 -2 -2 -2 -3 -1 -3 -1 -3 -2 -2 -1 -3 -2 -3 -1 -3 -1 -3 -2 -3 -1 -3 -1 -3 -1 -3 11 -4 1 3 1 3 1 3 1 2 2 3 1 3 1 3 2 2 1 3 1 3 2 2 1 3 2 2 1 3 2 3 1 2 2 3 2 2 1 3 2 2 2 2 2 3 2 2 2 2 2 3 2 2 2 2 2 2 2 2 2 2 2 3 3 2 0 0zm0 0c2,2 2,5 0,8 -2,2 -6,3 -8,0l8 -8zm57 45l-6 10 0 0 -2 -1 -2 -1 -2 -2 -2 -1 -2 -1 -2 -1 -2 -2 -2 -1 -2 -2 -2 -1 -2 -1 -2 -2 -2 -1 -1 -2 -2 -1 -2 -2 -2 -1 -2 -2 -1 -1 -2 -2 -2 -2 -2 -1 -2 -2 -1 -1 -2 -2 -2 -1 -1 -2 -2 -1 -2 -2 -2 -2 -1 -1 -2 -2 8 -8 1 1 2 2 2 1 2 2 1 1 2 2 2 1 2 2 1 2 2 1 2 2 1 1 2 2 2 1 2 2 1 1 2 2 2 1 2 1 1 2 2 1 2 2 2 1 2 1 2 2 1 1 2 1 2 1 2 1 2 1 2 2 2 1 0 0zm0 0c3,1 4,5 2,8 -1,2 -5,4 -8,2l6 -10zm83 26l-2 11 0 0 -2 0 -3 -1 -3 0 -3 -1 -3 0 -2 -1 -3 -1 -3 0 -3 -1 -2 -1 -3 0 -3 -1 -3 -1 -2 0 -3 -1 -3 -1 -3 -1 -2 -1 -3 -1 -3 0 -2 -1 -3 -1 -3 -1 -2 -1 -3 -1 -3 -2 -2 -1 -3 -1 -3 -1 -2 -1 -3 -2 -3 -1 6 -10 2 1 3 1 2 1 3 1 2 2 3 1 2 1 3 1 2 1 3 1 3 1 2 0 3 1 2 1 3 1 2 1 3 1 3 0 2 1 3 1 3 0 2 1 3 1 3 0 2 1 3 0 3 1 2 1 3 0 3 1 3 0 2 1 0 0zm0 0c4,0 6,3 5,6 0,4 -3,6 -7,5l2 -11zm2458 -1l0 12 0 0 -11 0 -23 0 -35 1 -46 0 -56 0 -66 0 -74 1 -82 0 -88 0 -94 1 -100 0 -104 1 -107 0 -110 0 -111 1 -112 0 -113 0 -112 1 -110 0 -107 0 -105 0 -100 0 -96 0 -89 0 -83 -1 -76 0 -67 -1 -58 0 -48 -1 -37 -1 -26 -1 -14 -1 2 -11 13 1 25 1 37 0 48 1 58 1 68 0 75 1 83 0 89 0 96 0 100 0 105 0 107 0 110 0 112 0 113 -1 112 0 111 0 110 -1 107 0 104 -1 100 0 94 0 88 -1 82 0 74 0 65 -1 57 0 46 0 35 0 23 -1 11 0 0 0zm0 0c3,0 6,3 6,6 0,3 -3,6 -6,6l0 -12zm7 0l0 12 1 0 -1 0 0 0 0 0 0 0 -1 0 0 0 0 0 0 0 -1 0 0 0 0 0 0 0 -1 0 0 0 0 0 0 0 -1 0 0 0 0 0 0 0 -1 0 0 0 0 0 0 0 0 0 -1 0 0 0 0 0 0 0 -1 0 0 0 0 0 0 -12 0 0 1 0 0 0 0 0 0 0 1 0 0 0 0 0 0 0 1 0 0 0 0 0 0 0 0 0 1 1 0 0 0 0 0 0 0 0 1 0 0 0 0 0 0 0 0 0 0 0 1 0 0 0 0 0 0 0 0 0 1 0 0 -1 0 0zm0 0c3,0 6,3 6,6 0,3 -2,6 -5,6l-1 -12zm18 -19l12 0 0 0 0 2 0 2 0 1 0 2 -1 2 0 1 0 2 0 1 -1 2 0 1 -1 1 -1 2 0 1 -1 1 -1 1 -1 1 -1 1 -1 1 -1 1 -1 1 -2 1 -1 0 -1 1 -2 0 -1 1 -2 0 -1 0 -2 1 -1 0 -2 0 -2 0 -2 0 0 -12 1 0 2 0 1 0 2 0 1 0 1 -1 1 0 1 0 1 0 0 -1 1 0 1 0 0 -1 1 0 0 0 1 -1 0 0 0 -1 1 0 0 -1 0 0 1 -1 0 -1 0 -1 0 -1 1 -1 0 -1 0 -1 0 -1 0 -2 0 -1 0 -2 0 0zm0 0c0,-3 3,-6 6,-6 3,0 6,3 6,6l-12 0zm-1 -4610l12 0 0 0 0 14 0 40 0 63 0 84 0 105 0 123 0 140 0 155 0 168 1 180 0 190 0 199 0 205 0 210 0 214 0 215 0 216 0 213 0 210 0 206 0 198 0 190 0 180 0 169 0 155 0 140 0 123 0 104 0 85 0 63 0 39 0 14 -12 0 0 -14 0 -39 0 -63 0 -85 0 -104 0 -123 0 -140 0 -155 0 -169 0 -180 0 -190 0 -198 0 -206 0 -210 0 -213 0 -216 0 -215 0 -214 0 -210 0 -205 0 -199 0 -190 0 -180 0 -168 0 -155 0 -140 0 -123 0 -105 0 -84 -1 -63 0 -39 0 -15 0 0zm0 0c0,-3 3,-5 6,-6 3,0 6,3 6,6l-12 0zm-18 -19l1 -12 0 0 1 0 2 1 2 0 1 0 2 0 2 1 1 0 1 0 2 1 1 0 1 1 2 1 1 0 1 1 1 1 1 1 1 1 1 1 1 2 1 1 0 1 1 1 0 2 1 1 0 2 0 1 1 2 0 1 0 2 0 2 0 1 0 2 -12 0 0 -1 0 -2 0 -1 0 -1 0 -2 0 -1 0 -1 -1 -1 0 -1 0 0 -1 -1 0 -1 0 0 -1 -1 0 0 0 -1 -1 0 0 -1 -1 0 0 0 -1 -1 -1 0 0 0 -1 -1 -1 0 -1 0 -1 0 -1 0 -2 -1 -1 0 -1 0 -2 0 0 0zm0 0c-3,0 -6,-3 -6,-6 1,-3 3,-6 7,-6l-1 12zm-7 0l0 -12 0 0 1 0 0 0 0 0 0 0 0 0 0 0 1 0 0 0 0 0 0 0 1 0 0 0 0 0 0 0 0 0 1 0 0 0 0 0 0 0 0 0 1 0 0 0 0 0 0 0 1 0 0 0 0 0 0 0 1 0 0 0 0 0 1 0 -1 12 0 0 0 0 -1 0 0 0 0 0 0 0 0 0 0 0 -1 0 0 0 0 0 0 0 0 0 -1 0 0 0 0 0 0 0 -1 0 0 0 0 0 0 0 0 0 -1 0 0 0 0 0 0 0 0 0 -1 0 0 0 0 0 -1 0 0 0 0 0zm0 0c-3,0 -6,-3 -6,-6 1,-3 3,-6 6,-6l0 12zm-2393 -14l1 11 -1 -11 41 -1 50 -1 58 0 65 -1 71 0 78 0 83 0 87 0 92 0 95 0 98 0 100 0 102 0 103 0 103 1 102 0 102 0 99 1 98 0 94 0 91 1 87 0 82 0 76 1 71 0 63 0 56 1 48 0 39 0 30 0 20 0 9 0 0 12 -9 0 -20 0 -30 0 -39 0 -48 -1 -56 0 -63 0 -71 -1 -76 0 -82 0 -87 -1 -91 0 -94 0 -98 -1 -99 0 -102 0 -102 -1 -103 0 -103 0 -102 0 -100 0 -98 -1 -95 0 -92 0 -87 0 -83 1 -78 0 -71 0 -65 1 -58 0 -50 1 -41 0 0 -11zm0 11c-3,0 -6,-2 -6,-5 0,-4 3,-6 6,-6l0 11zm153 -41l8 8 -2 2 -2 2 -2 1 -3 2 -2 2 -3 1 -3 2 -4 1 -3 1 -4 2 -4 1 -4 1 -4 1 -4 1 -5 2 -5 1 -5 1 -5 0 -6 1 -6 1 -6 1 -6 1 -6 1 -7 0 -6 1 -7 0 -7 1 -8 1 -7 0 -8 1 -8 0 -8 0 -1 -11 8 -1 8 0 8 -1 7 0 8 -1 7 0 7 -1 6 0 7 -1 6 -1 6 -1 6 0 5 -1 6 -1 5 -1 5 -1 4 -1 5 -1 4 -1 4 -1 4 -1 4 -1 3 -2 3 -1 3 -1 3 -1 2 -2 2 -1 2 -1 2 -1 1 -2 2 -1zm0 0c2,-2 6,-2 8,0 2,2 2,6 0,8l-8 -8z"/>
  </g>
 </g>
</svg>
