<?xml version="1.0" encoding="UTF-8"?>
<!DOCTYPE svg PUBLIC "-//W3C//DTD SVG 1.1//EN" "http://www.w3.org/Graphics/SVG/1.1/DTD/svg11.dtd">
<!-- Creator: CorelDRAW X8 -->
<svg xmlns="http://www.w3.org/2000/svg" xml:space="preserve" width="40mm" height="60mm" version="1.1" style="shape-rendering:geometricPrecision; text-rendering:geometricPrecision; image-rendering:optimizeQuality; fill-rule:evenodd; clip-rule:evenodd"
viewBox="0 0 4000 6000"
 xmlns:xlink="http://www.w3.org/1999/xlink">
 <defs>
  <style type="text/css">
   <![CDATA[
    .fil0 {fill:#332C2B;fill-rule:nonzero}
   ]]>
  </style>
 </defs>
 <g id="图层_x0020_1">
  <metadata id="CorelCorpID_0Corel-Layer"/>
  <g>
   <path class="fil0" d="M1178 951l-10 -18 -1 0 5 -2 3 -3 4 -2 4 -3 4 -2 3 -3 3 -3 4 -2 3 -3 3 -3 2 -2 3 -3 3 -3 2 -2 3 -3 2 -3 2 -3 2 -2 2 -3 2 -3 2 -3 1 -3 2 -2 1 -3 1 -3 1 -3 2 -3 0 -3 1 -3 1 -3 1 -2 0 -3 20 3 -1 3 0 4 -1 4 -1 3 -2 4 -1 3 -1 4 -2 3 -1 4 -2 3 -2 3 -2 4 -2 3 -3 3 -2 4 -2 3 -3 3 -3 3 -3 3 -3 3 -3 3 -3 3 -3 3 -4 3 -3 3 -4 3 -4 3 -3 3 -4 2 -5 3 -4 3 -4 3 0 0zm0 0l0 0 0 -1 0 1zm-45 84l-20 -2 0 0 0 -3 1 -4 0 -4 1 -3 0 -4 1 -4 1 -3 1 -4 1 -3 1 -4 1 -3 1 -4 1 -3 2 -4 1 -3 2 -3 2 -3 1 -4 2 -3 2 -3 3 -3 2 -3 2 -3 2 -2 3 -3 3 -3 2 -2 3 -3 3 -2 3 -2 3 -3 4 -2 10 18 -3 1 -2 2 -3 2 -2 2 -2 2 -3 2 -2 2 -2 2 -2 2 -2 2 -1 3 -2 2 -2 3 -1 2 -2 3 -1 3 -2 3 -1 2 -1 3 -1 3 -1 3 -1 3 -1 3 -1 3 -1 3 0 3 -1 4 -1 3 0 3 0 3 -1 3 0 4 0 0zm-23 3887l-20 1 0 0 -3 -99 -3 -104 -3 -108 -3 -112 -2 -117 -2 -119 -2 -123 -2 -126 -2 -128 -1 -130 -1 -133 -1 -133 0 -135 0 -136 0 -135 0 -137 1 -135 1 -136 1 -134 2 -133 1 -132 3 -129 2 -128 3 -124 3 -122 3 -119 4 -115 4 -111 5 -106 4 -102 6 -97 5 -92 20 2 -5 91 -6 97 -4 102 -5 106 -4 111 -4 115 -3 118 -3 122 -3 125 -2 127 -3 129 -1 132 -2 133 -1 134 -1 136 -1 135 0 137 0 135 0 136 0 135 1 133 1 132 1 131 2 128 2 126 2 122 2 120 2 116 3 113 3 108 3 103 3 99 0 0zm44 79l-12 16 0 0 -3 -2 -3 -2 -3 -3 -3 -2 -2 -3 -3 -2 -2 -2 -3 -3 -2 -2 -2 -3 -3 -3 -2 -2 -2 -3 -2 -3 -1 -2 -2 -3 -2 -3 -1 -3 -2 -3 -1 -3 -1 -3 -1 -4 -1 -3 -1 -3 -1 -4 -1 -3 0 -4 -1 -3 0 -4 -1 -4 0 -3 0 -4 20 -1 0 3 0 4 1 3 0 3 1 3 0 3 1 3 0 3 1 3 1 2 1 3 1 2 1 3 1 2 1 3 1 2 2 2 1 2 2 3 1 2 2 2 2 2 2 2 2 2 2 2 2 3 2 2 3 2 2 2 3 2 2 2 3 2 0 0zm636 328l-6 19 0 0 -19 -5 -20 -6 -20 -7 -21 -7 -21 -8 -22 -8 -21 -9 -22 -9 -22 -9 -22 -10 -22 -11 -22 -10 -23 -11 -22 -11 -22 -11 -22 -12 -22 -12 -21 -11 -21 -12 -21 -12 -21 -12 -20 -13 -20 -12 -20 -12 -18 -12 -19 -11 -18 -12 -17 -12 -16 -11 -16 -11 -15 -11 -14 -11 12 -16 14 11 15 11 15 11 17 11 17 11 17 12 18 12 19 11 19 12 20 12 20 12 21 12 20 12 22 12 21 12 22 11 21 12 22 11 22 11 22 11 22 10 22 10 22 10 22 10 21 9 22 8 21 8 21 8 20 7 20 7 20 6 19 5 0 0zm184 3l4 20 0 0 -6 1 -5 1 -6 1 -6 1 -6 0 -6 1 -6 1 -6 0 -6 1 -6 0 -6 0 -7 1 -6 0 -6 0 -7 0 -6 0 -6 0 -6 0 -7 -1 -6 0 -6 0 -6 -1 -7 0 -6 -1 -6 -1 -6 -1 -6 -1 -6 -1 -6 -1 -5 -1 -6 -1 -6 -2 6 -19 5 1 5 1 5 2 6 1 6 1 5 0 6 1 6 1 6 1 5 0 6 1 6 0 6 0 6 1 6 0 6 0 6 0 6 0 7 0 6 0 6 -1 6 0 5 0 6 -1 6 0 6 -1 6 -1 5 0 6 -1 6 -1 5 -1 5 -1 0 0zm810 -294l12 17 0 0 -17 11 -18 11 -19 11 -20 11 -21 11 -22 11 -23 12 -24 11 -24 11 -25 11 -26 11 -26 10 -27 11 -27 10 -28 11 -28 10 -28 10 -29 10 -28 9 -29 9 -29 9 -29 9 -28 8 -29 8 -28 8 -28 7 -27 7 -27 7 -27 6 -26 6 -26 5 -25 5 -4 -20 25 -4 26 -6 25 -5 27 -6 27 -7 27 -7 28 -7 28 -8 28 -8 29 -8 28 -9 29 -9 28 -9 29 -9 28 -10 28 -10 28 -10 27 -10 28 -11 26 -10 26 -11 26 -11 25 -11 24 -11 23 -11 23 -11 22 -11 20 -11 20 -11 19 -10 17 -11 16 -11 0 0zm87 -202l20 1 0 0 0 6 -1 6 0 7 0 6 -1 7 0 7 -1 7 0 7 -1 7 -1 7 -1 7 -2 7 -1 7 -2 7 -2 8 -2 7 -3 7 -2 7 -3 8 -4 7 -3 7 -4 7 -4 7 -5 7 -5 7 -6 6 -6 7 -6 6 -7 7 -7 6 -7 6 -8 6 -12 -17 8 -5 7 -6 6 -5 6 -6 6 -6 5 -6 5 -6 5 -6 4 -6 4 -6 3 -7 3 -6 3 -6 3 -7 3 -7 2 -6 2 -7 2 -6 1 -7 2 -7 1 -7 1 -6 1 -7 1 -7 0 -6 1 -7 0 -6 1 -7 0 -6 1 -7 0 -6 0 -6 0 0zm30 -3799l20 -1 0 0 2 81 3 87 2 92 1 99 2 103 1 108 1 112 1 116 1 120 0 123 0 126 0 128 0 131 -1 132 0 133 -1 134 -2 135 -1 136 -1 134 -2 135 -2 133 -2 133 -3 130 -2 129 -3 126 -3 124 -3 120 -3 117 -4 112 -3 109 -4 104 -4 99 -20 -1 4 -99 4 -104 3 -108 4 -113 3 -117 3 -120 3 -123 3 -126 2 -129 3 -131 2 -132 2 -133 2 -135 1 -135 1 -135 2 -135 1 -134 0 -133 1 -132 0 -131 0 -128 0 -126 0 -123 -1 -120 -1 -116 -1 -112 -1 -108 -2 -103 -1 -98 -2 -93 -3 -87 -2 -80 0 0zm-81 -113l8 -18 0 0 5 2 5 2 4 3 5 3 4 2 5 3 4 4 4 3 4 3 4 4 4 3 3 4 4 4 3 4 4 4 3 4 3 5 3 4 2 4 3 5 2 5 3 4 2 5 2 5 1 5 2 5 1 5 1 5 1 5 1 5 1 6 0 5 -20 1 0 -5 -1 -4 0 -5 -1 -4 -1 -4 -1 -5 -2 -4 -1 -4 -2 -4 -2 -4 -2 -4 -2 -4 -2 -4 -2 -4 -3 -4 -2 -4 -3 -4 -3 -3 -3 -4 -3 -3 -4 -3 -3 -4 -3 -3 -4 -3 -3 -3 -4 -2 -4 -3 -4 -2 -4 -3 -4 -2 -4 -2 -4 -2 0 0zm-850 -259l4 -20 0 0 20 4 22 5 22 5 23 5 25 5 25 6 26 6 26 7 28 7 27 7 28 7 29 8 29 8 29 8 30 8 29 9 30 9 30 8 29 10 30 9 29 9 29 10 28 10 29 10 27 9 28 10 26 11 26 10 25 10 25 10 23 10 22 11 -8 18 -22 -10 -23 -11 -24 -10 -25 -10 -26 -10 -26 -10 -27 -10 -28 -10 -28 -9 -29 -10 -28 -10 -29 -9 -30 -9 -29 -9 -30 -9 -29 -9 -30 -9 -29 -8 -29 -8 -29 -8 -29 -8 -28 -7 -27 -7 -27 -7 -27 -6 -26 -6 -25 -6 -24 -6 -23 -5 -22 -5 -22 -4 -20 -4 0 0zm-289 29l-6 -19 0 0 7 -2 8 -3 8 -2 8 -2 9 -2 9 -2 9 -2 10 -2 9 -2 10 -2 10 -1 10 -2 10 -2 10 -1 10 -1 11 -2 10 -1 10 -1 11 -1 10 0 10 -1 10 0 10 -1 10 0 9 0 10 0 9 1 9 0 8 1 9 1 8 1 8 1 -4 20 -7 -1 -8 -1 -7 -1 -9 -1 -8 0 -9 -1 -9 0 -9 0 -10 0 -9 0 -10 1 -10 1 -10 0 -10 1 -10 1 -10 1 -10 1 -10 2 -10 1 -10 2 -10 1 -10 2 -9 2 -10 2 -9 2 -9 1 -8 2 -9 3 -8 2 -8 2 -7 2 -7 2 0 0zm-503 256l-11 -16 1 -1 10 -6 11 -7 12 -7 13 -7 14 -8 14 -8 15 -9 15 -9 16 -9 16 -9 17 -9 17 -10 17 -9 18 -10 18 -10 17 -9 18 -10 18 -9 19 -10 17 -9 18 -9 18 -8 18 -9 17 -8 17 -8 17 -7 16 -7 16 -7 15 -6 15 -6 14 -5 14 -4 6 19 -14 4 -13 5 -15 6 -15 6 -15 6 -16 7 -17 7 -17 8 -17 8 -17 9 -18 8 -17 9 -18 9 -18 10 -18 9 -18 9 -18 10 -18 10 -17 9 -17 10 -17 9 -17 9 -16 10 -16 9 -15 8 -15 9 -14 8 -14 8 -12 8 -12 7 -12 6 -10 7 0 -1zm-11 -16l0 0 1 -1 -1 1zm-53 41l7 -19 0 0 0 0 0 0 0 0 1 0 0 0 1 0 1 0 1 0 1 0 1 -1 1 0 1 0 2 -1 1 -1 2 0 1 -1 2 -1 2 0 1 -1 2 -1 2 -1 2 -1 2 -2 2 -1 3 -1 2 -2 2 -1 3 -1 2 -2 3 -2 2 -1 11 16 -2 2 -3 2 -3 1 -2 2 -3 2 -2 1 -2 1 -3 2 -2 1 -2 1 -2 1 -3 1 -2 1 -2 1 -2 1 -1 1 -2 1 -2 1 -2 0 -2 1 -1 1 -2 0 -2 0 -1 1 -2 0 -2 0 -1 0 -2 0 -2 0 -1 0 -2 0 -2 -1z"/>
  </g>
 </g>
</svg>
