<?xml version="1.0" encoding="UTF-8"?>
<!DOCTYPE svg PUBLIC "-//W3C//DTD SVG 1.1//EN" "http://www.w3.org/Graphics/SVG/1.1/DTD/svg11.dtd">
<!-- Creator: CorelDRAW X8 -->
<svg xmlns="http://www.w3.org/2000/svg" xml:space="preserve" width="40mm" height="60mm" version="1.1" style="shape-rendering:geometricPrecision; text-rendering:geometricPrecision; image-rendering:optimizeQuality; fill-rule:evenodd; clip-rule:evenodd"
viewBox="0 0 4000 6000"
 xmlns:xlink="http://www.w3.org/1999/xlink">
 <defs>
  <style type="text/css">
   <![CDATA[
    .str0 {stroke:#332C2B;stroke-width:7.62}
    .fil0 {fill:none}
   ]]>
  </style>
 </defs>
 <g id="图层_x0020_1">
  <metadata id="CorelCorpID_0Corel-Layer"/>
  <path class="fil0 str0" d="M894 5200l1937 0c151,0 275,-124 275,-275l0 -4000c0,-151 -124,-275 -275,-275l-1569 0c-151,0 -275,124 -275,275l0 4000c0,151 124,275 275,275 152,0 342,73 342,150m436 -4532c0,-26 -113,-57 -132,-57 -19,0 -34,16 -34,35l0 0c0,19 15,34 34,34l285 0c19,0 35,-15 35,-34l0 0c0,-19 -16,-35 -35,-35l-285 0m775 51c-34,-19 -19,-79 12,-79 31,0 56,25 56,56 0,31 -25,56 -56,56 -31,0 -56,-25 -56,-56 0,-31 25,-56 56,-56"/>
 </g>
</svg>
