<?xml version="1.0" encoding="UTF-8"?>
<!DOCTYPE svg PUBLIC "-//W3C//DTD SVG 1.1//EN" "http://www.w3.org/Graphics/SVG/1.1/DTD/svg11.dtd">
<!-- Creator: CorelDRAW 2020 (64-Bit) -->
<svg xmlns="http://www.w3.org/2000/svg" xml:space="preserve" width="40mm" height="60mm" version="1.1" style="shape-rendering:geometricPrecision; text-rendering:geometricPrecision; image-rendering:optimizeQuality; fill-rule:evenodd; clip-rule:evenodd"
viewBox="0 0 4000 6000"
 xmlns:xlink="http://www.w3.org/1999/xlink"
 xmlns:xodm="http://www.corel.com/coreldraw/odm/2003">
 <defs>
  <style type="text/css">
   <![CDATA[
    .str1 {stroke:#332C2B;stroke-width:20;stroke-miterlimit:22.9256}
    .str2 {stroke:#332C2B;stroke-width:20;stroke-miterlimit:22.9256}
    .str0 {stroke:#E62129;stroke-width:20;stroke-miterlimit:22.9256}
    .fil0 {fill:none}
   ]]>
  </style>
   <clipPath id="id0">
    <rect x="-44839.02" y="-6642.85" width="17291.89" height="17441.47"/>
   </clipPath>
 </defs>
 <g id="图层_x0020_1">
  <metadata id="CorelCorpID_0Corel-Layer"/>
  <g style="clip-path:url(#id0)">
   <image x="-44839.02" y="-6642.85" width="17291.89" height="17441.47" xlink:href="C31 -11i（背膜）_Images\C31 -11i（背膜）_ImgID1.png"/>
  </g>
  <rect class="fil0 str0" x="-35734.43" y="-6356.44" width="7800" height="16939.43"/>
  <rect class="fil0 str0" x="-35629.52" y="-6270.45" width="7590.18" height="16751.28" rx="900" ry="951.95"/>
  <rect class="fil0 str1" x="-34927.01" y="-5625.71" width="2107.42" height="3352.96" rx="600" ry="619.05"/>
  <circle class="fil0 str1" cx="-31832.63" cy="-1823.59" r="584.73"/>
  <path class="fil0 str2" d="M-4276.55 6738.65l0 -6306.12c0,-494.99 -405.01,-900 -900,-900l-14951.28 0c-495,0 -900,405 -900,900l0 5790.18c0,495 405,900 900,900l14951.28 0c495,0 900,-405 900,-900 0,-495 75.5,-671.56 158.85,-793.27"/>
  <path class="fil0 str2" d="M-20383.08 5820.2c0,330 270,600 600,600l2152.96 0c330,0 600,-270 600,-600l0 -907.42c0,-330 -270,-600 -600,-600l-2152.96 0c-330,0 -600,270 -600,600l0 907.42c0,0 19.88,-613.24 138.94,-795.8"/>
  <path class="fil0 str2" d="M-17165.7 3325.82c0,322.94 261.79,584.73 584.73,584.73 322.94,0 584.73,-261.79 584.73,-584.73 0,-322.94 -261.79,-584.73 -584.73,-584.73 -322.94,0 -584.73,261.79 -584.73,584.73 0,322.94 293.72,419.94 394.26,425.23"/>
  <g id="_2304390229872">
   <path class="fil0 str2" d="M1045.34 5311.52l1752.72 0c137.58,0 250.14,-112.57 250.14,-250.15l0 -4155.56c0,-137.58 -112.56,-250.14 -250.14,-250.14l-1609.32 0c-137.58,0 -250.14,112.56 -250.14,250.14l0 4155.56c0,137.58 112.56,250.15 250.14,250.15 137.58,0 186.65,20.98 220.48,44.15"/>
   <path class="fil0 str2" d="M1300.61 834.87c-91.72,0 -166.76,75.04 -166.76,166.76l0 598.4c0,91.72 75.04,166.76 166.76,166.76l252.21 0c91.72,0 166.77,-75.04 166.77,-166.76l0 -598.4c0,-91.72 -75.05,-166.76 -166.77,-166.76l-252.21 0c0,0 170.45,5.53 221.19,38.62"/>
   <path class="fil0 str2" d="M1993.9 1729.11c-89.76,0 -162.52,72.76 -162.52,162.52 0,89.76 72.76,162.52 162.52,162.52 89.76,0 162.52,-72.76 162.52,-162.52 0,-89.76 -72.76,-162.52 -162.52,-162.52 -89.76,0 -116.72,81.64 -118.19,109.58"/>
  </g>
 </g>
</svg>
