<?xml version="1.0" encoding="UTF-8"?>
<!DOCTYPE svg PUBLIC "-//W3C//DTD SVG 1.1//EN" "http://www.w3.org/Graphics/SVG/1.1/DTD/svg11.dtd">
<!-- Creator: CorelDRAW X8 -->
<svg xmlns="http://www.w3.org/2000/svg" xml:space="preserve" width="40mm" height="60mm" version="1.1" style="shape-rendering:geometricPrecision; text-rendering:geometricPrecision; image-rendering:optimizeQuality; fill-rule:evenodd; clip-rule:evenodd"
viewBox="0 0 4000 6000"
 xmlns:xlink="http://www.w3.org/1999/xlink">
 <defs>
  <style type="text/css">
   <![CDATA[
    .str0 {stroke:black;stroke-width:7.62}
    .fil0 {fill:none}
   ]]>
  </style>
 </defs>
 <g id="图层_x0020_1">
  <metadata id="CorelCorpID_0Corel-Layer"/>
  <path class="fil0 str0" d="M983 5350l1881 0c150,0 272,-122 272,-272l0 -4156c0,-150 -122,-272 -272,-272l-1728 0c-150,0 -272,122 -272,272l0 4156c0,150 122,272 272,272l98 0m1244 -4615c0,-4 -4,-8 -11,-8 -25,0 -46,20 -46,46 0,26 21,46 46,46 26,0 47,-20 47,-46 0,-26 -21,-46 -47,-46m-571 60c-4,-18 -14,-32 -58,-32l-37 0c-19,0 -35,16 -35,36l0 0c0,19 16,35 35,35l387 0c19,0 35,-16 35,-35l0 0c0,-20 -16,-36 -35,-36l-350 0m-293 22c-3,-10 -7,-18 -25,-18l-15 0c-22,0 -39,17 -39,38l0 0c0,22 17,39 39,39l77 0c21,0 39,-17 39,-39l0 0c0,-21 -18,-38 -39,-38l-62 0"/>
 </g>
</svg>
