<?xml version="1.0" encoding="UTF-8"?>
<!DOCTYPE svg PUBLIC "-//W3C//DTD SVG 1.1//EN" "http://www.w3.org/Graphics/SVG/1.1/DTD/svg11.dtd">
<!-- Creator: CorelDRAW X8 -->
<svg xmlns="http://www.w3.org/2000/svg" xml:space="preserve" width="40mm" height="60mm" version="1.1" style="shape-rendering:geometricPrecision; text-rendering:geometricPrecision; image-rendering:optimizeQuality; fill-rule:evenodd; clip-rule:evenodd"
viewBox="0 0 4000 6000"
 xmlns:xlink="http://www.w3.org/1999/xlink">
 <defs>
  <style type="text/css">
   <![CDATA[
    .str0 {stroke:#332C2B;stroke-width:10}
    .fil0 {fill:none}
   ]]>
  </style>
 </defs>
 <g id="图层_x0020_1">
  <metadata id="CorelCorpID_0Corel-Layer"/>
  <path class="fil0 str0" d="M1951 782c-5,-20 -16,-35 -63,-35l-40 0c-21,0 -38,18 -38,39l0 0c0,21 17,38 38,38l341 0c21,0 39,-17 39,-38l0 0c0,-21 -18,-39 -39,-39l-301 0m545 16c1,-23 -26,-41 -36,-42 -35,0 -64,29 -64,64 0,35 29,63 64,63 35,0 63,-28 63,-63 0,-35 -28,-64 -63,-64m-1482 4629l1968 0c135,0 246,-112 246,-247l0 -4208c0,-135 -111,-245 -246,-245l-1766 0c-135,0 -246,110 -246,245l0 4208c0,135 111,247 246,247l340 0"/>
 </g>
</svg>
