<?xml version="1.0" encoding="UTF-8"?>
<!DOCTYPE svg PUBLIC "-//W3C//DTD SVG 1.1//EN" "http://www.w3.org/Graphics/SVG/1.1/DTD/svg11.dtd">
<!-- Creator: CorelDRAW -->
<svg xmlns="http://www.w3.org/2000/svg" xml:space="preserve" width="40mm" height="60mm" style="shape-rendering:geometricPrecision; text-rendering:geometricPrecision; image-rendering:optimizeQuality; fill-rule:evenodd; clip-rule:evenodd"
viewBox="0 0 40 60"
 xmlns:xlink="http://www.w3.org/1999/xlink">
 <defs>
  <style type="text/css">
   <![CDATA[
    .str0 {stroke:#1F1A17;stroke-width:0.194}
    .fil0 {fill:none;fill-rule:nonzero}
   ]]>
  </style>
 </defs>
 <g id="图层_x0020_1">
  <metadata id="CorelCorpID_0Corel-Layer"/>
  <path class="fil0 str0" d="M28.6254 7.6407l0 0.1169m-19.0557 -1.2548l10.7188 -0.0028m-12.2832 14.1738c0.0357,-11.5939 0.0344,-11.8746 -0.062,-12.9506 -0.0013,-0.022 -0.0027,-0.0399 -0.0027,-0.0536 0,-0.2917 0.4761,-0.871 0.8627,-1.0513 0.2119,-0.099 0.3275,-0.1155 0.7664,-0.1155m-1.6608 45.2856l0.0964 -31.1146m1.2026 32.8125c-0.5174,-0.0399 -1.0981,-0.56 -1.2714,-1.1407 -0.0248,-0.0812 -0.0276,-0.1706 -0.0276,-0.5572m11.7013 1.7075l-10.4023 -0.0096m22.8767 -9.6097c0.0234,5.7474 -0.0152,8.0645 -0.1376,8.4043 -0.2464,0.677 -0.7665,1.1627 -1.2921,1.204 -6.3115,0.0193 -4.7333,0.0165 -11.0447,0.011m12.3285 -45.5732l0.1459 35.9539m-1.4613 -37.367c0.6893,0.0647 1.2975,0.7169 1.3154,1.4131m-12.0217 -1.4227l0.1183 0.0193 0.0096 -0.0193 10.5784 0.0096m-1.9979 1.248c0.0633,-0.0179 0.1059,-0.0536 0.1169,-0.0977 0.3055,0.0785 0.472,0.2725 0.472,0.549 0,0.3152 -0.2642,0.567 -0.5972,0.567 -0.3316,0 -0.6013,-0.256 -0.6013,-0.5711 0,-0.3137 0.2546,-0.5614 0.5793,-0.5614 0.0881,0 0.172,0.0152 0.3811,0.0661"/>
 </g>
</svg>
