<?xml version="1.0" encoding="UTF-8"?>
<!DOCTYPE svg PUBLIC "-//W3C//DTD SVG 1.1//EN" "http://www.w3.org/Graphics/SVG/1.1/DTD/svg11.dtd">
<!-- Creator: CorelDRAW 2020 (64-Bit) -->
<svg xmlns="http://www.w3.org/2000/svg" xml:space="preserve" width="40mm" height="60mm" version="1.1" style="shape-rendering:geometricPrecision; text-rendering:geometricPrecision; image-rendering:optimizeQuality; fill-rule:evenodd; clip-rule:evenodd"
viewBox="0 0 4000 6000"
 xmlns:xlink="http://www.w3.org/1999/xlink"
 xmlns:xodm="http://www.corel.com/coreldraw/odm/2003">
 <defs>
  <style type="text/css">
   <![CDATA[
    .str0 {stroke:black;stroke-width:100;stroke-miterlimit:22.9256}
    .fil0 {fill:none}
   ]]>
  </style>
 </defs>
 <g id="图层_x0020_1">
  <metadata id="CorelCorpID_0Corel-Layer"/>
  <path id="path_767" class="fil0 str0" d="M578.4 5320.66c30.97,-6 66.38,-8.36 106.22,-7.07 18.16,0.52 473.97,-3.66 473.97,-3.66l415.3 -3.66 842.48 -3.14 435.68 -3.66c0,0 410.07,-3.13 473.71,-4.18 63.78,-1.04 77.89,-31.88 81.55,-61.68 3.66,-29.79 -3.01,-621.25 -3.01,-621.25l-6.01 -1739.85 -7.19 -1402.19c0,0 -2.09,-722.52 -3.13,-756.63 -1.05,-33.98 -37.9,-58.02 -58.29,-58.02 -20.38,0 -279.13,2.09 -279.13,2.09l-861.43 6.14 -932.52 6.8c0,0 -525.59,1.57 -584.66,4.18 -58.94,2.61 -64.42,48.22 -65.34,70.44 -0.78,22.34 2.22,559.82 2.22,559.82l6.01 1402.71c3.1,646.24 7.02,1292.96 8.89,1939.14 0,0 0.92,543.76 1.31,595.51 0.26,51.62 41.29,70.56 59.59,71.09 98.55,-0.47 158.38,16.85 207.98,42.08"/>
 </g>
</svg>
