<?xml version="1.0" encoding="UTF-8"?>
<!DOCTYPE svg PUBLIC "-//W3C//DTD SVG 1.1//EN" "http://www.w3.org/Graphics/SVG/1.1/DTD/svg11.dtd">
<!-- Creator: CorelDRAW X8 -->
<svg xmlns="http://www.w3.org/2000/svg" xml:space="preserve" width="40mm" height="60mm" version="1.1" style="shape-rendering:geometricPrecision; text-rendering:geometricPrecision; image-rendering:optimizeQuality; fill-rule:evenodd; clip-rule:evenodd"
viewBox="0 0 4000 6000"
 xmlns:xlink="http://www.w3.org/1999/xlink">
 <defs>
  <style type="text/css">
   <![CDATA[
    .str0 {stroke:black;stroke-width:7.62}
    .fil0 {fill:none}
   ]]>
  </style>
 </defs>
 <g id="图层_x0020_1">
  <metadata id="CorelCorpID_0Corel-Layer"/>
  <path class="fil0 str0" d="M1054 5350l1774 0c115,0 209,-94 209,-209l0 -4282c0,-115 -94,-209 -209,-209l-517 0 -191 0c-19,0 -35,9 -35,35l0 11c0,47 -38,85 -85,85l0 0c-46,0 -84,-38 -84,-85l0 -11c0,-28 -14,-35 -35,-35l-192 0 -517 0c-115,0 -209,94 -209,209l0 4282c0,115 94,209 209,209l74 0"/>
 </g>
</svg>
