<?xml version="1.0" encoding="UTF-8"?>
<!DOCTYPE svg PUBLIC "-//W3C//DTD SVG 1.1//EN" "http://www.w3.org/Graphics/SVG/1.1/DTD/svg11.dtd">
<!-- Creator: CorelDRAW 2020 (64-Bit) -->
<svg xmlns="http://www.w3.org/2000/svg" xml:space="preserve" width="40mm" height="60mm" version="1.1" style="shape-rendering:geometricPrecision; text-rendering:geometricPrecision; image-rendering:optimizeQuality; fill-rule:evenodd; clip-rule:evenodd"
viewBox="0 0 4000 6000"
 xmlns:xlink="http://www.w3.org/1999/xlink"
 xmlns:xodm="http://www.corel.com/coreldraw/odm/2003">
 <defs>
  <style type="text/css">
   <![CDATA[
    .str0 {stroke:#332C2B;stroke-width:7.62;stroke-miterlimit:22.9256}
    .fil0 {fill:none}
   ]]>
  </style>
 </defs>
 <g id="图层_x0020_1">
  <metadata id="CorelCorpID_0Corel-Layer"/>
  <path class="fil0 str0" d="M1032.7 5331.22l1786.59 0c109.04,0 198.28,-89.24 198.28,-198.28l0 -4278.99c0,-109.05 -89.22,-198.28 -198.28,-198.28l-708.63 0c-19.62,0 -35.62,16 -35.62,35.62l0 11.96c0,44.9 -36.74,81.63 -81.64,81.63l0 0c-44.9,0 -81.64,-36.74 -81.64,-81.63l0 -11.96c0,-19.61 -16,-35.62 -35.62,-35.62l-708.63 0c-109.06,0 -198.28,89.22 -198.28,198.28l0 4278.99c0,109.06 89.24,198.28 198.28,198.28l33.57 0c65.42,0 111.28,13.02 139.42,24.45"/>
 </g>
</svg>
