<?xml version="1.0" encoding="UTF-8"?>
<!DOCTYPE svg PUBLIC "-//W3C//DTD SVG 1.1//EN" "http://www.w3.org/Graphics/SVG/1.1/DTD/svg11.dtd">
<!-- Creator: CorelDRAW X8 -->
<svg xmlns="http://www.w3.org/2000/svg" xml:space="preserve" width="40mm" height="60mm" version="1.1" style="shape-rendering:geometricPrecision; text-rendering:geometricPrecision; image-rendering:optimizeQuality; fill-rule:evenodd; clip-rule:evenodd"
viewBox="0 0 4000 6000"
 xmlns:xlink="http://www.w3.org/1999/xlink">
 <defs>
  <style type="text/css">
   <![CDATA[
    .str0 {stroke:black;stroke-width:7.62}
    .fil0 {fill:none}
   ]]>
  </style>
 </defs>
 <g id="图层_x0020_1">
  <metadata id="CorelCorpID_0Corel-Layer"/>
  <path class="fil0 str0" d="M935 5235l0 -4232c0,-196 125,-327 329,-338 118,-6 221,-12 340,-15 5,0 7,1 9,5l16 24c4,5 6,6 11,6l739 0c4,0 5,0 7,-3l19 -24c3,-4 6,-4 12,-4 113,4 206,9 319,14 216,10 329,146 329,335l0 4004c0,180 -127,324 -329,331 -115,4 -210,9 -325,11 -4,1 -6,0 -7,-3l-17 -23c-3,-4 -6,-5 -12,-5l-745 0c-4,0 -6,0 -9,4l-14 25c-2,2 -3,3 -7,3 -118,0 -219,-11 -336,-15 -199,-8 -329,-148 -329,-328l0 -122m670 -4128c0,-5 -4,-8 -11,-9 -27,0 -48,21 -48,48 0,26 21,48 48,48 26,0 48,-22 48,-48 0,-27 -22,-48 -48,-48m420 51c-6,-19 -17,-35 -65,-35l-42 0c-22,0 -40,18 -40,40l0 0c0,22 18,39 40,39l199 0c22,0 40,-17 40,-39l0 0c0,-22 -18,-40 -40,-40l-157 0m493 14c-3,-11 -7,-19 -26,-19l-16 0c-22,0 -40,17 -40,39l0 0c0,22 18,40 40,40l80 0c22,0 39,-18 39,-40l0 0c0,-22 -17,-39 -39,-39l-64 0"/>
 </g>
</svg>
