<?xml version="1.0" encoding="UTF-8"?>
<!DOCTYPE svg PUBLIC "-//W3C//DTD SVG 1.1//EN" "http://www.w3.org/Graphics/SVG/1.1/DTD/svg11.dtd">
<!-- Creator: CorelDRAW 2020 (64-Bit) -->
<svg xmlns="http://www.w3.org/2000/svg" xml:space="preserve" width="40mm" height="60mm" version="1.1" style="shape-rendering:geometricPrecision; text-rendering:geometricPrecision; image-rendering:optimizeQuality; fill-rule:evenodd; clip-rule:evenodd"
viewBox="0 0 4000 6000"
 xmlns:xlink="http://www.w3.org/1999/xlink"
 xmlns:xodm="http://www.corel.com/coreldraw/odm/2003">
 <defs>
  <style type="text/css">
   <![CDATA[
    .str0 {stroke:#332C2B;stroke-width:7.62;stroke-miterlimit:22.9256}
    .fil0 {fill:none}
   ]]>
  </style>
   <clipPath id="id0">
    <rect x="-22529.86" y="-5225.55" width="4018.37" height="16776.19"/>
   </clipPath>
 </defs>
 <g id="图层_x0020_1">
  <metadata id="CorelCorpID_0Corel-Layer"/>
  <g style="clip-path:url(#id0)">
   <image x="-22529.86" y="-5225.55" width="4018.37" height="16776.19" xlink:href="Galaxy W21 -11i（边框膜）_Images\Galaxy W21 -11i（边框膜）_ImgID1.png"/>
  </g>
  <rect class="fil0 str0" x="-21258.4" y="-4711.15" width="690" height="15920" rx="270" ry="2239.85"/>
  <rect class="fil0 str0" x="-21034.43" y="8591.32" width="211.66" height="1640.42" rx="160" ry="174.55"/>
  <circle class="fil0 str0" cx="-20935.23" cy="8509.72" r="50.16"/>
  <rect class="fil0 str0" x="-20542.75" y="-4704.73" width="690" height="15920" rx="270" ry="2239.85"/>
  <rect class="fil0 str0" x="-20312.6" y="-369.88" width="155.44" height="1960.12" rx="139.99" ry="113.12"/>
  <rect class="fil0 str0" x="-20400.22" y="2049.99" width="299.89" height="1448.6" rx="236.05" ry="194.85"/>
  <rect class="fil0 str0" x="8508.38" y="-4372.5" width="690" height="15920" rx="270" ry="2239.85"/>
  <rect class="fil0 str0" x="8732.35" y="8929.97" width="211.66" height="1640.42" rx="160" ry="174.55"/>
  <circle class="fil0 str0" cx="8831.55" cy="8848.37" r="50.16"/>
  <rect class="fil0 str0" x="9574.03" y="-4366.08" width="690" height="15920" rx="270" ry="2239.85"/>
  <rect class="fil0 str0" x="9804.18" y="-31.23" width="155.44" height="1960.12" rx="139.99" ry="113.12"/>
  <rect class="fil0 str0" x="9716.56" y="2388.64" width="299.89" height="1448.6" rx="236.05" ry="194.85"/>
  <rect class="fil0 str0" x="10720.76" y="-4363.94" width="690" height="15920" rx="270" ry="2239.85"/>
  <rect class="fil0 str0" x="10944.73" y="8938.53" width="211.66" height="1640.42" rx="160" ry="174.55"/>
  <circle class="fil0 str0" cx="11043.93" cy="8856.93" r="50.16"/>
  <rect class="fil0 str0" x="11786.41" y="-4357.52" width="690" height="15920" rx="270" ry="2239.85"/>
  <rect class="fil0 str0" x="12016.56" y="-22.67" width="155.44" height="1960.12" rx="139.99" ry="113.12"/>
  <rect class="fil0 str0" x="11928.94" y="2397.2" width="299.89" height="1448.6" rx="236.05" ry="194.85"/>
  <g id="_1683653184096">
   <rect class="fil0 str0" x="1408.22" y="655.67" width="203.51" height="4695.58" rx="79.64" ry="660.64"/>
   <rect class="fil0 str0" x="1474.28" y="4579.21" width="62.43" height="483.84" rx="47.19" ry="51.48"/>
   <circle class="fil0 str0" cx="1503.54" cy="4555.15" r="14.79"/>
   <rect class="fil0 str0" x="1722.53" y="657.56" width="203.51" height="4695.58" rx="79.64" ry="660.64"/>
   <rect class="fil0 str0" x="1790.41" y="1936.12" width="45.85" height="578.13" rx="41.29" ry="33.36"/>
   <rect class="fil0 str0" x="1764.57" y="2649.86" width="88.45" height="427.26" rx="69.62" ry="57.47"/>
   <rect class="fil0 str0" x="2060.76" y="658.19" width="203.51" height="4695.58" rx="79.64" ry="660.64"/>
   <rect class="fil0 str0" x="2126.82" y="4581.74" width="62.43" height="483.84" rx="47.19" ry="51.48"/>
   <circle class="fil0 str0" cx="2156.08" cy="4557.67" r="14.79"/>
   <rect class="fil0 str0" x="2375.07" y="660.09" width="203.51" height="4695.58" rx="79.64" ry="660.64"/>
   <rect class="fil0 str0" x="2442.95" y="1938.65" width="45.85" height="578.13" rx="41.29" ry="33.36"/>
   <rect class="fil0 str0" x="2417.11" y="2652.38" width="88.45" height="427.26" rx="69.62" ry="57.47"/>
  </g>
 </g>
</svg>
