<?xml version="1.0" encoding="UTF-8"?>
<!DOCTYPE svg PUBLIC "-//W3C//DTD SVG 1.1//EN" "http://www.w3.org/Graphics/SVG/1.1/DTD/svg11.dtd">
<!-- Creator: CorelDRAW 2020 (64-Bit) -->
<svg xmlns="http://www.w3.org/2000/svg" xml:space="preserve" width="40mm" height="60mm" version="1.1" style="shape-rendering:geometricPrecision; text-rendering:geometricPrecision; image-rendering:optimizeQuality; fill-rule:evenodd; clip-rule:evenodd"
viewBox="0 0 4000 6000"
 xmlns:xlink="http://www.w3.org/1999/xlink"
 xmlns:xodm="http://www.corel.com/coreldraw/odm/2003">
 <defs>
  <style type="text/css">
   <![CDATA[
    .str0 {stroke:black;stroke-width:20;stroke-miterlimit:22.9256}
    .fil0 {fill:none}
   ]]>
  </style>
 </defs>
 <g id="图层_x0020_1">
  <metadata id="CorelCorpID_0Corel-Layer"/>
  <path class="fil0 str0" d="M-17026.31 4275.67l0 -6018.01c0,-494.99 -405,-900 -900.01,-900l0 -388.77c0,-27.5 -22.36,-50 -49.88,-50l-6979.74 0 0 196.02c0,55 -45,100 -100,100l-1015.92 0c-55,0 -100,-45 -100,-100l0 -196.02 -513.72 0 0 196.02c0,55 -44.99,100 -100,100l-1998.1 0c-54.99,0 -100,-45 -100,-100l0 -196.02 -2871.43 0c-27.52,0 -49.88,22.5 -49.88,50l0 388.77 -0.11 0c-495,0 -900,405 -900,900l0 799.78c0,87.22 130.06,143.13 130.06,213.35l0 1372.25 239.65 0c165.01,0 300,135 300,300l0 22.88c0,165 -134.99,300 -300,300l-239.65 0 0 1356.27c0,70.22 -130.06,130.54 -130.06,208.39l0 805.68c0,495 404.99,900 900,900l0.11 0 0 388.77c0,27.49 22.36,50 49.88,50l13778.91 0c27.52,0 49.88,-22.51 49.88,-50l0 -388.77c495.01,0 900.01,-405 900.01,-900 0,-495 96.13,-629.81 183.23,-694.85"/>
  <path class="fil0 str0" d="M1013.68 5295.71l1783.17 0c146.67,0 266.68,-120.01 266.68,-266.68l115.19 0c8.15,0 14.82,-6.63 14.82,-14.78l0 -2068.13 -58.08 0c-16.3,0 -29.63,-13.34 -29.63,-29.63l0 -301.03c0,-16.29 13.33,-29.63 29.63,-29.63l58.08 0 0 -152.21 -58.08 0c-16.3,0 -29.63,-13.34 -29.63,-29.64l0 -592.04c0,-16.3 13.33,-29.63 29.63,-29.63l58.08 0 0 -850.82c0,-8.16 -6.67,-14.78 -14.82,-14.78l-115.19 0 0 -0.04c0,-146.67 -120,-266.67 -266.68,-266.67l-236.97 0c-25.85,0 -42.41,38.54 -63.22,38.54l-406.61 0 0 71.01c0,48.89 -40,88.89 -88.89,88.89l-6.78 0c-48.89,0 -88.89,-40 -88.89,-88.89l0 -71.01 -401.87 0c-20.81,0 -38.68,-38.54 -61.75,-38.54l-238.72 0c-146.68,0 -266.68,120 -266.68,266.67l0 0.04 -115.19 0c-8.15,0 -14.82,6.62 -14.82,14.78l0 4082.76c0,8.15 6.67,14.78 14.82,14.78l115.19 0c0,146.67 120,266.68 266.68,266.68 146.67,0 186.61,28.48 205.88,54.29"/>
 </g>
</svg>
