<?xml version="1.0" encoding="UTF-8"?>
<!DOCTYPE svg PUBLIC "-//W3C//DTD SVG 1.1//EN" "http://www.w3.org/Graphics/SVG/1.1/DTD/svg11.dtd">
<!-- Creator: CorelDRAW 2020 (64-Bit) -->
<svg xmlns="http://www.w3.org/2000/svg" xml:space="preserve" width="40mm" height="60mm" version="1.1" style="shape-rendering:geometricPrecision; text-rendering:geometricPrecision; image-rendering:optimizeQuality; fill-rule:evenodd; clip-rule:evenodd"
viewBox="0 0 4000 6000"
 xmlns:xlink="http://www.w3.org/1999/xlink"
 xmlns:xodm="http://www.corel.com/coreldraw/odm/2003">
 <defs>
  <style type="text/css">
   <![CDATA[
    .str0 {stroke:#332C2B;stroke-width:20;stroke-miterlimit:22.9256}
    .fil0 {fill:none}
   ]]>
  </style>
 </defs>
 <g id="图层_x0020_1">
  <metadata id="CorelCorpID_0Corel-Layer"/>
  <path class="fil0 str0" d="M436.91 5341.84l3063.01 0c46.65,0 84.82,-38.17 84.82,-84.82l0 -4516.53c0,-46.65 -38.18,-84.82 -84.82,-84.82l-3013.04 0c-46.64,0 -84.82,38.18 -84.82,84.82l0 2365.55c0,19.34 15.78,35.15 35.14,35.15l70.01 0c18.8,0 34.17,15.37 34.17,34.17l0 0c0,18.79 -15.38,34.17 -34.17,34.17l-70.01 0c-19.34,0 -35.14,15.8 -35.14,35.14l0 2012.35c0,46.65 38.16,84.82 84.82,84.82l22.68 0c38,0 57.77,5.54 72.65,13.83"/>
 </g>
</svg>
