<?xml version="1.0" encoding="UTF-8"?>
<!DOCTYPE svg PUBLIC "-//W3C//DTD SVG 1.1//EN" "http://www.w3.org/Graphics/SVG/1.1/DTD/svg11.dtd">
<!-- Creator: CorelDRAW 2020 (64-Bit) -->
<svg xmlns="http://www.w3.org/2000/svg" xml:space="preserve" width="40mm" height="60mm" version="1.1" style="shape-rendering:geometricPrecision; text-rendering:geometricPrecision; image-rendering:optimizeQuality; fill-rule:evenodd; clip-rule:evenodd"
viewBox="0 0 4000 6000"
 xmlns:xlink="http://www.w3.org/1999/xlink"
 xmlns:xodm="http://www.corel.com/coreldraw/odm/2003">
 <defs>
  <style type="text/css">
   <![CDATA[
    .str0 {stroke:#332C2B;stroke-width:7.62;stroke-miterlimit:22.9256}
    .fil0 {fill:none}
   ]]>
  </style>
 </defs>
 <g id="图层_x0020_1">
  <metadata id="CorelCorpID_0Corel-Layer"/>
  <path class="fil0 str0" d="M2017.72 757.3c3.43,-22.06 -15.12,-37.52 -24.32,-38.23 -32.74,0 -59.29,26.54 -59.29,59.28 0,32.74 26.55,59.29 59.29,59.29 32.74,0 59.29,-26.55 59.29,-59.29 0,-32.74 -26.55,-59.28 -59.29,-59.28m-996.84 4611.23l1831.09 0c128.08,0 232.88,-104.8 232.88,-232.88l0 -4208.86c0,-128.09 -104.79,-232.89 -232.88,-232.89l-1668.5 0c-128.08,0 -232.88,104.8 -232.88,232.89l0 4208.86c0,128.09 104.8,232.88 232.88,232.88l62.5 0c64.75,0 92,11.67 114.11,25.37"/>
 </g>
</svg>
