<?xml version="1.0" encoding="UTF-8"?>
<!DOCTYPE svg PUBLIC "-//W3C//DTD SVG 1.1//EN" "http://www.w3.org/Graphics/SVG/1.1/DTD/svg11.dtd">
<!-- Creator: CorelDRAW 2020 (64-Bit) -->
<svg xmlns="http://www.w3.org/2000/svg" xml:space="preserve" width="40mm" height="60mm" version="1.1" style="shape-rendering:geometricPrecision; text-rendering:geometricPrecision; image-rendering:optimizeQuality; fill-rule:evenodd; clip-rule:evenodd"
viewBox="0 0 4000 6000"
 xmlns:xlink="http://www.w3.org/1999/xlink"
 xmlns:xodm="http://www.corel.com/coreldraw/odm/2003">
 <defs>
  <style type="text/css">
   <![CDATA[
    .str0 {stroke:#222222;stroke-width:20;stroke-miterlimit:22.9256}
    .fil0 {fill:none}
   ]]>
  </style>
 </defs>
 <g id="图层_x0020_1">
  <metadata id="CorelCorpID_0Corel-Layer"/>
  <path class="fil0 str0" d="M-30614.72 5689.83l0 -5576.26c0,-495 405,-900 900,-900l14510.72 0c495,0 900,405 900,900l0 5576.26c0,495 -405,900 -900,900l-14510.72 0c-495,0 -900,-405 -900,-900z"/>
  <path class="fil0 str0" d="M-30053.35 5204.12c0,462.89 375.26,838.15 838.15,838.15 462.89,0 838.15,-375.26 838.15,-838.15 0,-462.89 -375.26,-838.15 -838.15,-838.15 -462.89,0 -838.15,375.26 -838.15,838.15 0,462.89 478.9,294.27 521.23,270.46"/>
  <path class="fil0 str0" d="M-28137.19 5204.12c0,462.89 375.26,838.15 838.15,838.15 462.89,0 838.15,-375.26 838.15,-838.15 0,-462.89 -375.26,-838.15 -838.15,-838.15 -462.89,0 -838.15,375.26 -838.15,838.15 0,462.89 478.9,294.27 521.23,270.46"/>
  <path class="fil0 str0" d="M-28768.81 3812.93c0,280.56 227.44,508 508,508 280.56,0 508,-227.44 508,-508 0,-280.56 -227.44,-508 -508,-508 -280.56,0 -508,227.44 -508,508 0,280.56 290.26,178.36 315.92,163.92"/>
  <path class="fil0 str0" d="M-29452.1 3812.93c0,141.38 114.62,256 256,256 141.38,0 256,-114.62 256,-256 0,-141.38 -114.62,-256 -256,-256 -141.38,0 -256,114.62 -256,256 0,141.38 146.27,89.88 159.2,82.61"/>
  <path class="fil0 str0" d="M-29714.7 7392.55l0 -527.06c0,-27.5 22.53,-50 49.95,-50l14410.89 0c27.42,0 49.95,22.5 49.95,50l0 527.06c0,27.5 -22.53,50 -49.95,50l-14410.89 0c-27.42,0 -49.95,-22.5 -49.95,-50z"/>
  <path class="fil0 str0" d="M-29387.18 7084.9c0,101.14 82.74,183.88 183.88,183.88l1719.81 0c101.14,0 183.88,-82.74 183.88,-183.88l0 -0.01c0,-101.14 -82.74,-183.88 -183.88,-183.88l-1719.81 0c-101.15,0 -183.88,82.74 -183.88,183.89 0,101.15 127.81,106.97 154.26,108.29"/>
  <path class="fil0 str0" d="M-25747.68 7118.59c0,91.32 74.7,166.02 166.02,166.02l2261.32 0c91.32,0 166.02,-74.7 166.02,-166.02l0 -0.02c0,-91.32 -74.7,-166.02 -166.02,-166.02l-2261.32 0c-91.34,0 -166.02,74.71 -166.02,166.04 0,91.33 102.52,97.08 130.3,95.76"/>
  <path class="fil0 str0" d="M-29714.7 -1066.62l0 -527.06c0,-27.5 22.53,-50 49.95,-50l14410.89 0c27.42,0 49.95,22.5 49.95,50l0 527.06c0,27.5 -22.53,50 -49.95,50l-14410.89 0c-27.42,0 -49.95,-22.5 -49.95,-50z"/>
  <path class="fil0 str0" d="M-24783.97 -1330.39c0,139.69 114.3,253.99 254,253.99l1213.09 0c139.7,0 254,-114.3 254,-253.99l0 0c0,-139.71 -114.3,-254.01 -254,-254.01l-1213.09 0c-139.71,0 -254,114.31 -254,254.01 0,139.7 161.42,154.74 193.17,149.45"/>
  <path class="fil0 str0" d="M-13533.9 6735.67l-527.06 0c-27.5,0 -50,-22.48 -50,-49.97l0 -7567.7c0,-27.49 22.5,-49.97 50,-49.97l527.06 0c27.5,0 50,22.48 50,49.97l0 7567.7c0,27.49 -22.5,49.97 -50,49.97z"/>
  <path class="fil0 str0" d="M-30848.03 6735.67l-527.06 0c-27.5,0 -50,-22.48 -50,-49.97l0 -7567.7c0,-27.49 22.5,-49.97 50,-49.97l527.06 0c27.5,0 50,22.48 50,49.97l0 7567.7c0,27.49 -22.5,49.97 -50,49.97z"/>
  <path class="fil0 str0" d="M-13921.95 5580.7c0,67.67 55.36,123.03 123.03,123.03l0.01 0c67.67,0 123.03,-55.36 123.03,-123.03l0 -1251.49c0,-67.67 -55.36,-123.03 -123.03,-123.03l-0.01 0c-67.67,0 -123.03,55.36 -123.03,123.03l0 1251.49c0,0 1.16,-246.37 60.03,-283.41"/>
  <path class="fil0 str0" d="M-13962.38 3198.55c0,89.91 73.55,163.46 163.46,163.46l0.01 0c89.91,0 163.46,-73.55 163.46,-163.46l0 -610.89c0,-89.91 -73.55,-163.46 -163.46,-163.46l-0.01 0c-89.91,0 -163.46,73.55 -163.46,163.46l0 610.89c0,0 10.45,-265.97 99.09,-316.24"/>
  <path class="fil0 str0" d="M-13894.94 1836.85c0,52.82 43.2,96.02 96.02,96.02l0.01 0c52.82,0 96.02,-43.2 96.02,-96.02l0 -282.9c0,-52.82 -43.2,-96.02 -96.02,-96.02l-0.01 0c-52.82,0 -96.02,43.2 -96.02,96.02l0 282.9c0,0 2.84,-117.88 42.19,-136.57"/>
  <path class="fil0 str0" d="M-14050.41 710.3c0,115.08 93.29,208.37 208.37,208.37 115.08,0 208.37,-93.29 208.37,-208.37 0,-115.08 -93.29,-208.37 -208.37,-208.37 -115.08,0 -208.37,93.29 -208.37,208.37 0,115.08 142.88,149.5 172.65,147.52"/>
  <g id="_2462294453376">
   <path class="fil0 str0" d="M1261.91 862.82l1460.79 0c129.68,0 235.77,106.1 235.77,235.77l0 3801.33c0,129.67 -106.09,235.77 -235.77,235.77l-1460.79 0c-129.67,0 -235.77,-106.1 -235.77,-235.77l0 -3801.33c0,-129.67 106.1,-235.77 235.77,-235.77z"/>
   <path class="fil0 str0" d="M1389.15 1009.88c-121.26,0 -219.57,98.31 -219.57,219.57 0,121.26 98.31,219.57 219.57,219.57 121.26,0 219.57,-98.31 219.57,-219.57 0,-121.26 -98.31,-219.57 -219.57,-219.57 -121.26,0 -77.09,125.46 -70.85,136.55"/>
   <path class="fil0 str0" d="M1389.15 1511.85c-121.26,0 -219.57,98.31 -219.57,219.57 0,121.26 98.31,219.57 219.57,219.57 121.26,0 219.57,-98.31 219.57,-219.57 0,-121.26 -98.31,-219.57 -219.57,-219.57 -121.26,0 -77.09,125.46 -70.85,136.55"/>
   <path class="fil0 str0" d="M1753.59 1346.39c-73.49,0 -133.07,59.58 -133.07,133.08 0,73.49 59.58,133.08 133.07,133.08 73.5,0 133.08,-59.59 133.08,-133.08 0,-73.5 -59.58,-133.08 -133.08,-133.08 -73.49,0 -46.72,76.04 -42.94,82.76"/>
   <path class="fil0 str0" d="M1753.59 1167.39c-37.03,0 -67.06,30.02 -67.06,67.06 0,37.04 30.03,67.06 67.06,67.06 37.04,0 67.07,-30.02 67.07,-67.06 0,-37.04 -30.03,-67.06 -67.07,-67.06 -37.03,0 -23.54,38.32 -21.64,41.7"/>
   <path class="fil0 str0" d="M815.85 1098.6l138.08 0c7.2,0 13.09,5.9 13.09,13.08l0 3775.18c0,7.18 -5.89,13.08 -13.09,13.08l-138.08 0c-7.2,0 -13.09,-5.9 -13.09,-13.08l0 -3775.18c0,-7.18 5.89,-13.08 13.09,-13.08z"/>
   <path class="fil0 str0" d="M896.45 1184.39l0 0c26.5,0 48.17,21.68 48.17,48.18l0 450.53c0,26.49 -21.67,48.17 -48.17,48.17l0 0c-26.5,0 -48.17,-21.68 -48.17,-48.17l0 -450.53c0,-26.5 21.67,-48.18 48.17,-48.18z"/>
   <path class="fil0 str0" d="M887.62 2137.82l0.01 0c23.92,0 43.49,19.57 43.49,43.5l0 592.39c0,23.92 -19.57,43.49 -43.49,43.49l-0.01 0c-23.92,0 -43.49,-19.57 -43.49,-43.49l0 -592.39c0,-23.93 19.57,-43.5 43.49,-43.5z"/>
   <path class="fil0 str0" d="M3031.87 1098.6l138.08 0c7.2,0 13.1,5.9 13.1,13.08l0 3775.18c0,7.18 -5.9,13.08 -13.1,13.08l-138.08 0c-7.2,0 -13.09,-5.9 -13.09,-13.08l0 -3775.18c0,-7.18 5.89,-13.08 13.09,-13.08z"/>
   <path class="fil0 str0" d="M3100.97 2390.28l0 0c36.6,0 66.55,29.95 66.55,66.54l0 317.79c0,36.6 -29.95,66.54 -66.55,66.54l0 0c-36.59,0 -66.53,-29.94 -66.53,-66.54l0 -317.79c0,-36.59 29.94,-66.54 66.53,-66.54z"/>
   <path class="fil0 str0" d="M987.93 5337.43l0 -138.07c0,-7.21 5.89,-13.1 13.09,-13.1l1982.49 0c7.2,0 13.09,5.89 13.09,13.1l0 138.07c0,7.2 -5.89,13.1 -13.09,13.1l-1982.49 0c-7.2,0 -13.09,-5.9 -13.09,-13.1z"/>
   <path class="fil0 str0" d="M987.93 801.7l0 -138.07c0,-7.21 5.89,-13.1 13.09,-13.1l1982.49 0c7.2,0 13.09,5.89 13.09,13.1l0 138.07c0,7.2 -5.89,13.1 -13.09,13.1l-1982.49 0c-7.2,0 -13.09,-5.9 -13.09,-13.1z"/>
   <path class="fil0 str0" d="M1290.5 5235.77l327.85 0c17.72,0 32.23,14.51 32.23,32.23l0 0.01c0,17.72 -14.51,32.23 -32.23,32.23l-327.85 0c-17.73,0 -32.23,-14.51 -32.23,-32.23l0 -0.01c0,-17.72 14.5,-32.23 32.23,-32.23z"/>
   <path class="fil0 str0" d="M1914.54 5225.18l160.03 0c23.56,0 42.83,19.27 42.83,42.82l0 0.01c0,23.55 -19.27,42.82 -42.83,42.82l-160.03 0c-23.55,0 -42.82,-19.27 -42.82,-42.82l0 -0.01c0,-23.55 19.27,-42.82 42.82,-42.82z"/>
   <path class="fil0 str0" d="M2271.26 5242.85l74.11 0c13.84,0 25.16,11.32 25.16,25.15l0 0.01c0,13.83 -11.32,25.15 -25.16,25.15l-74.11 0c-13.84,0 -25.15,-11.32 -25.15,-25.15l0 -0.01c0,-13.83 11.31,-25.15 25.15,-25.15z"/>
   <path class="fil0 str0" d="M2566.38 5202.12c30.15,0 54.59,24.44 54.59,54.59 0,30.14 -24.44,54.58 -54.59,54.58 -30.15,0 -54.59,-24.44 -54.59,-54.58 0,-30.15 24.44,-54.59 54.59,-54.59z"/>
  </g>
 </g>
</svg>
