<?xml version="1.0" encoding="UTF-8"?>
<!DOCTYPE svg PUBLIC "-//W3C//DTD SVG 1.1//EN" "http://www.w3.org/Graphics/SVG/1.1/DTD/svg11.dtd">
<!-- Creator: CorelDRAW X8 -->
<svg xmlns="http://www.w3.org/2000/svg" xml:space="preserve" width="40mm" height="60mm" version="1.1" style="shape-rendering:geometricPrecision; text-rendering:geometricPrecision; image-rendering:optimizeQuality; fill-rule:evenodd; clip-rule:evenodd"
viewBox="0 0 4000 6000"
 xmlns:xlink="http://www.w3.org/1999/xlink">
 <defs>
  <style type="text/css">
   <![CDATA[
    .str0 {stroke:black;stroke-width:7.62}
    .fil0 {fill:none}
   ]]>
  </style>
 </defs>
 <g id="图层_x0020_1">
  <metadata id="CorelCorpID_0Corel-Layer"/>
  <path class="fil0 str0" d="M1050 5323l1776 0c115,0 209,-94 209,-209l0 -4255c0,-115 -94,-209 -209,-209l-446 0 -254 0c-22,0 -40,5 -40,36l0 26c0,46 -37,84 -83,84l0 0c-46,0 -84,-38 -84,-84l0 -23c0,-26 -14,-39 -39,-39l-256 0 -450 0c-115,0 -209,94 -209,209l0 4255c0,115 94,209 209,209 25,0 61,8 79,27"/>
 </g>
</svg>
