<?xml version="1.0" encoding="UTF-8"?>
<!DOCTYPE svg PUBLIC "-//W3C//DTD SVG 1.1//EN" "http://www.w3.org/Graphics/SVG/1.1/DTD/svg11.dtd">
<!-- Creator: CorelDRAW X8 -->
<svg xmlns="http://www.w3.org/2000/svg" xml:space="preserve" width="40mm" height="60mm" version="1.1" style="shape-rendering:geometricPrecision; text-rendering:geometricPrecision; image-rendering:optimizeQuality; fill-rule:evenodd; clip-rule:evenodd"
viewBox="0 0 4000 6000"
 xmlns:xlink="http://www.w3.org/1999/xlink">
 <defs>
  <style type="text/css">
   <![CDATA[
    .str0 {stroke:#332C2B;stroke-width:10}
    .fil0 {fill:none}
   ]]>
  </style>
 </defs>
 <g id="图层_x0020_1">
  <metadata id="CorelCorpID_0Corel-Layer"/>
  <g id="_2938619692048">
   <polygon class="fil0 str0" points="1844,650 2156,650 2156,2788 1844,2788 "/>
   <path class="fil0 str0" d="M1978 2596c0,-5 5,-37 22,-37 17,0 31,14 31,31 0,17 -14,31 -31,31 -17,0 -31,-14 -31,-31 0,-17 14,-31 31,-31"/>
   <path class="fil0 str0" d="M1963 2423c0,-6 9,-55 37,-55 28,0 51,23 51,51 0,28 -23,50 -51,50 -28,0 -51,-22 -51,-50 0,-28 23,-51 51,-51"/>
   <path class="fil0 str0" d="M1948 2210c0,-10 13,-75 52,-75 39,0 70,32 70,70 0,39 -31,70 -70,70 -39,0 -70,-31 -70,-70 0,-38 31,-70 70,-70"/>
   <path class="fil0 str0" d="M1937 1993c0,-9 14,-96 63,-96 49,0 89,40 89,90 0,49 -40,89 -89,89 -49,0 -89,-40 -89,-89 0,-50 40,-90 89,-90"/>
   <path class="fil0 str0" d="M1922 1731c0,-12 18,-121 78,-121 60,0 109,49 109,109 0,60 -49,109 -109,109 -60,0 -109,-49 -109,-109 0,-60 49,-109 109,-109"/>
   <path class="fil0 str0" d="M1936 1435c0,-10 15,-101 64,-101 49,0 89,40 89,89 0,49 -40,89 -89,89 -49,0 -89,-40 -89,-89 0,-49 40,-89 89,-89"/>
   <path class="fil0 str0" d="M1948 1215c0,-12 13,-81 52,-81 39,0 70,32 70,70 0,39 -31,70 -70,70 -39,0 -70,-31 -70,-70 0,-38 31,-70 70,-70"/>
   <path class="fil0 str0" d="M1965 997c0,-10 7,-57 35,-57 28,0 51,23 51,51 0,28 -23,50 -51,50 -28,0 -51,-22 -51,-50 0,-28 23,-51 51,-51"/>
   <path class="fil0 str0" d="M1976 821c0,-6 7,-32 24,-32 17,0 31,14 31,31 0,17 -14,31 -31,31 -17,0 -31,-14 -31,-31 0,-17 14,-31 31,-31"/>
   <polygon class="fil0 str0" points="1844,3212 2156,3212 2156,5350 1844,5350 "/>
   <path class="fil0 str0" d="M1978 5157c0,-4 5,-37 22,-37 17,0 31,14 31,31 0,17 -14,31 -31,31 -17,0 -31,-14 -31,-31 0,-17 14,-31 31,-31"/>
   <path class="fil0 str0" d="M1963 4985c0,-7 9,-55 37,-55 28,0 51,22 51,50 0,28 -23,51 -51,51 -28,0 -51,-23 -51,-51 0,-28 23,-50 51,-50"/>
   <path class="fil0 str0" d="M1948 4771c0,-9 13,-74 52,-74 39,0 70,31 70,70 0,39 -31,70 -70,70 -39,0 -70,-31 -70,-70 0,-39 31,-70 70,-70"/>
   <path class="fil0 str0" d="M1937 4555c0,-9 14,-96 63,-96 49,0 89,40 89,89 0,50 -40,90 -89,90 -49,0 -89,-40 -89,-90 0,-49 40,-89 89,-89"/>
   <path class="fil0 str0" d="M1922 4293c0,-12 18,-121 78,-121 60,0 109,49 109,109 0,60 -49,109 -109,109 -60,0 -109,-49 -109,-109 0,-60 49,-109 109,-109"/>
   <path class="fil0 str0" d="M1936 3996c0,-9 15,-101 64,-101 49,0 89,40 89,89 0,50 -40,90 -89,90 -49,0 -89,-40 -89,-90 0,-49 40,-89 89,-89"/>
   <path class="fil0 str0" d="M1948 3777c0,-13 13,-81 52,-81 39,0 70,31 70,70 0,39 -31,70 -70,70 -39,0 -70,-31 -70,-70 0,-39 31,-70 70,-70"/>
   <path class="fil0 str0" d="M1965 3559c0,-11 7,-57 35,-57 28,0 51,22 51,50 0,28 -23,51 -51,51 -28,0 -51,-23 -51,-51 0,-28 23,-50 51,-50"/>
   <path class="fil0 str0" d="M1976 3382c0,-6 7,-32 24,-32 17,0 31,14 31,31 0,18 -14,32 -31,32 -17,0 -31,-14 -31,-32 0,-17 14,-31 31,-31"/>
  </g>
  <polygon class="fil0 str0" points="-14654,3503 -14654,2703 -9154,2703 -9154,3503 "/>
  <path class="fil0 str0" d="M-9650 3159c-11,0 -95,-12 -95,-56 0,-44 36,-80 80,-80 44,0 80,36 80,80 0,44 -36,80 -80,80 -44,0 -80,-36 -80,-80"/>
  <path class="fil0 str0" d="M-10094 3199c-16,0 -141,-24 -141,-96 0,-72 59,-130 130,-130 72,0 130,58 130,130 0,72 -58,130 -130,130 -71,0 -130,-58 -130,-130"/>
  <path class="fil0 str0" d="M-10642 3236c-24,0 -192,-34 -192,-133 0,-99 81,-180 180,-180 100,0 180,81 180,180 0,99 -80,180 -180,180 -99,0 -180,-81 -180,-180"/>
  <path class="fil0 str0" d="M-11199 3265c-23,0 -247,-35 -247,-162 0,-127 103,-230 230,-230 127,0 230,103 230,230 0,127 -103,230 -230,230 -127,0 -230,-103 -230,-230"/>
  <path class="fil0 str0" d="M-11874 3305c-29,0 -310,-47 -310,-202 0,-155 125,-280 280,-280 155,0 280,125 280,280 0,155 -125,280 -280,280 -155,0 -280,-125 -280,-280"/>
  <path class="fil0 str0" d="M-12636 3268c-24,0 -260,-38 -260,-165 0,-127 103,-230 230,-230 127,0 230,103 230,230 0,127 -103,230 -230,230 -127,0 -230,-103 -230,-230"/>
  <path class="fil0 str0" d="M-13200 3238c-33,0 -208,-36 -208,-135 0,-99 80,-180 180,-180 99,0 180,81 180,180 0,99 -81,180 -180,180 -100,0 -180,-81 -180,-180"/>
  <path class="fil0 str0" d="M-13760 3194c-28,0 -147,-19 -147,-91 0,-72 58,-130 130,-130 72,0 130,58 130,130 0,72 -58,130 -130,130 -72,0 -130,-58 -130,-130"/>
  <path class="fil0 str0" d="M-14215 3165c-15,0 -82,-18 -82,-62 0,-44 36,-80 80,-80 44,0 80,36 80,80 0,44 -36,80 -80,80 -44,0 -80,-36 -80,-80"/>
  <polygon class="fil0 str0" points="-8066,3503 -8066,2703 -2566,2703 -2566,3503 "/>
  <path class="fil0 str0" d="M-3062 3159c-11,0 -95,-12 -95,-56 0,-44 36,-80 80,-80 44,0 80,36 80,80 0,44 -36,80 -80,80 -44,0 -80,-36 -80,-80"/>
  <path class="fil0 str0" d="M-3506 3199c-16,0 -141,-24 -141,-96 0,-72 59,-130 130,-130 72,0 130,58 130,130 0,72 -58,130 -130,130 -71,0 -130,-58 -130,-130"/>
  <path class="fil0 str0" d="M-4054 3236c-24,0 -192,-34 -192,-133 0,-99 81,-180 180,-180 100,0 180,81 180,180 0,99 -80,180 -180,180 -99,0 -180,-81 -180,-180"/>
  <path class="fil0 str0" d="M-4611 3265c-23,0 -247,-35 -247,-162 0,-127 103,-230 230,-230 127,0 230,103 230,230 0,127 -103,230 -230,230 -127,0 -230,-103 -230,-230"/>
  <path class="fil0 str0" d="M-5285 3305c-30,0 -311,-47 -311,-202 0,-155 126,-280 280,-280 155,0 280,125 280,280 0,155 -125,280 -280,280 -154,0 -280,-125 -280,-280"/>
  <path class="fil0 str0" d="M-6048 3268c-24,0 -260,-38 -260,-165 0,-127 103,-230 230,-230 127,0 230,103 230,230 0,127 -103,230 -230,230 -127,0 -230,-103 -230,-230"/>
  <path class="fil0 str0" d="M-6612 3238c-33,0 -208,-36 -208,-135 0,-99 81,-180 180,-180 99,0 180,81 180,180 0,99 -81,180 -180,180 -99,0 -180,-81 -180,-180"/>
  <path class="fil0 str0" d="M-7172 3194c-28,0 -147,-19 -147,-91 0,-72 58,-130 130,-130 72,0 130,58 130,130 0,72 -58,130 -130,130 -72,0 -130,-58 -130,-130"/>
  <path class="fil0 str0" d="M-7627 3165c-15,0 -82,-18 -82,-62 0,-44 36,-80 80,-80 44,0 80,36 80,80 0,44 -36,80 -80,80 -44,0 -80,-36 -80,-80"/>
 </g>
</svg>
