<?xml version="1.0" encoding="UTF-8"?>
<!DOCTYPE svg PUBLIC "-//W3C//DTD SVG 1.1//EN" "http://www.w3.org/Graphics/SVG/1.1/DTD/svg11.dtd">
<!-- Creator: CorelDRAW X8 -->
<svg xmlns="http://www.w3.org/2000/svg" xml:space="preserve" width="40mm" height="60mm" version="1.1" style="shape-rendering:geometricPrecision; text-rendering:geometricPrecision; image-rendering:optimizeQuality; fill-rule:evenodd; clip-rule:evenodd"
viewBox="0 0 4000 6000"
 xmlns:xlink="http://www.w3.org/1999/xlink">
 <defs>
  <style type="text/css">
   <![CDATA[
    .fil0 {fill:#222222;fill-rule:nonzero}
   ]]>
  </style>
 </defs>
 <g id="图层_x0020_1">
  <metadata id="CorelCorpID_0Corel-Layer"/>
  <g>
   <path class="fil0" d="M1213 1086l397 0 0 10 -397 0 0 0 0 -10zm-160 -150l10 0 0 0 0 8 1 7 1 8 1 7 2 7 2 7 2 7 3 7 3 7 3 6 4 7 4 6 4 5 4 6 5 6 5 5 5 5 6 4 5 5 6 4 6 4 7 4 6 3 7 3 7 3 7 2 7 2 7 2 7 1 8 1 7 1 8 0 0 10 -8 0 -8 -1 -8 -1 -8 -2 -8 -1 -7 -2 -8 -3 -7 -3 -7 -3 -7 -4 -7 -3 -6 -5 -7 -4 -6 -5 -5 -5 -6 -5 -5 -6 -5 -5 -5 -7 -4 -6 -5 -6 -3 -7 -4 -7 -3 -7 -3 -7 -3 -8 -2 -7 -2 -8 -1 -8 -1 -8 -1 -8 0 -8 0 0zm5 0l0 0 0 0 0 0 -5 0 5 0zm155 -160l0 10 0 0 -8 1 -7 0 -8 1 -7 1 -7 2 -7 2 -7 3 -7 2 -7 3 -6 4 -7 3 -6 4 -6 4 -5 5 -6 4 -5 5 -5 6 -5 5 -4 6 -4 6 -4 6 -4 6 -3 6 -3 7 -3 7 -2 7 -2 7 -2 7 -1 7 -1 8 -1 7 0 8 -10 0 0 -8 1 -8 1 -8 1 -8 2 -8 2 -7 3 -8 3 -7 3 -7 4 -7 3 -7 5 -6 4 -6 5 -6 5 -6 5 -6 6 -5 5 -5 6 -5 7 -4 6 -4 7 -4 7 -4 7 -3 7 -3 8 -2 7 -3 8 -1 8 -2 8 -1 8 0 8 -1 0 0zm397 10l-397 0 0 -10 397 0 0 0 0 10zm160 150l-10 0 0 0 0 -8 -1 -7 -1 -8 -1 -7 -2 -7 -2 -7 -2 -7 -3 -7 -3 -7 -3 -6 -4 -6 -4 -6 -4 -6 -5 -6 -4 -5 -5 -6 -5 -5 -6 -4 -6 -5 -5 -4 -6 -4 -7 -3 -6 -4 -7 -3 -7 -2 -7 -3 -7 -2 -7 -2 -7 -1 -8 -1 -7 0 -8 -1 0 -10 8 1 8 0 8 1 8 2 8 1 7 3 8 2 7 3 7 3 7 4 7 4 6 4 6 4 6 5 6 5 6 5 5 6 5 6 5 6 4 6 5 6 3 7 4 7 3 7 3 7 3 8 2 7 1 8 2 8 1 8 1 8 0 8 0 0zm-5 0l0 0 0 0 0 0 5 0 -5 0zm-155 160l0 -10 0 0 8 0 7 -1 8 -1 7 -1 7 -2 7 -2 7 -2 7 -3 7 -3 6 -3 7 -4 6 -4 5 -4 6 -5 6 -4 5 -5 5 -5 4 -6 5 -6 4 -5 4 -6 4 -7 3 -6 3 -7 3 -7 2 -7 2 -7 2 -7 1 -7 1 -8 1 -7 0 -8 10 0 0 8 -1 8 -1 8 -2 8 -1 8 -2 7 -3 8 -3 7 -3 7 -4 7 -3 7 -5 6 -4 6 -5 6 -5 6 -5 6 -6 5 -6 5 -6 5 -6 4 -6 5 -7 3 -7 4 -7 3 -7 3 -8 3 -7 2 -8 1 -8 2 -8 1 -8 1 -8 0 0 0zm1216 4259l-1794 0 0 -10 1794 0 0 0 0 10zm289 -300l10 0 0 0 0 15 -1 16 -2 15 -3 14 -3 15 -4 14 -5 14 -5 14 -6 13 -7 13 -7 12 -8 12 -8 12 -9 12 -10 10 -10 11 -10 10 -11 9 -11 9 -12 9 -12 7 -13 8 -13 6 -13 6 -14 6 -14 4 -14 5 -14 3 -15 3 -15 1 -15 2 -15 0 0 -10 14 0 15 -1 15 -2 14 -3 14 -3 13 -4 14 -5 13 -5 13 -6 12 -6 13 -7 11 -8 12 -8 11 -8 10 -10 10 -9 10 -10 9 -11 9 -11 8 -11 7 -12 7 -12 7 -13 6 -12 5 -14 4 -13 4 -14 4 -14 2 -14 2 -14 1 -15 0 -15 0 0zm10 -99l0 99 -10 0 0 -99 5 -5 5 5zm-10 0l0 -5 5 0 -5 5zm204 5l-199 0 0 -10 199 0 0 0 0 10zm27 -37l10 0 0 0 0 2 0 2 0 1 -1 2 0 2 0 2 -1 2 -1 1 -1 2 0 2 -1 1 -1 2 -1 1 -1 2 -2 1 -1 1 -1 1 -1 2 -2 1 -1 1 -2 1 -1 1 -2 0 -2 1 -1 1 -2 0 -2 1 -2 0 -2 1 -1 0 -2 0 -2 0 0 -10 1 0 2 0 1 0 1 0 2 -1 1 0 1 0 1 -1 2 -1 1 0 1 -1 1 -1 1 0 1 -1 1 -1 1 -1 1 -1 1 -1 1 -1 1 -1 0 -1 1 -1 1 -1 0 -2 1 -1 0 -1 0 -1 1 -2 0 -1 0 -1 0 -2 0 -1 0 0zm10 -3848l0 3848 -10 0 0 -3848 0 0 10 0zm-37 -27l0 -10 0 0 2 0 2 0 1 0 2 1 2 0 2 1 2 0 1 1 2 1 2 0 1 1 2 1 1 1 2 1 1 2 1 1 1 1 2 1 1 2 1 1 1 2 1 1 0 2 1 2 1 1 1 2 0 2 0 2 1 2 0 1 0 2 0 2 -10 0 0 -1 0 -1 0 -2 0 -1 -1 -2 0 -1 0 -1 -1 -1 -1 -2 0 -1 -1 -1 0 -1 -1 -1 -1 -1 -1 -1 -1 -1 -1 -1 -1 -1 -1 -1 -1 0 -1 -1 -1 -1 -1 0 -2 -1 -1 -1 -1 0 -1 0 -2 -1 -1 0 -1 0 -2 0 -1 0 0 0zm-199 -10l199 0 0 10 -199 0 -5 -5 5 -5zm0 10l-5 0 0 -5 5 5zm5 -104l0 99 -10 0 0 -99 0 0 10 0zm-299 -290l0 -10 0 0 15 0 15 2 15 1 15 3 14 3 14 5 14 4 14 6 13 6 13 6 13 8 12 7 12 9 11 9 11 9 10 10 10 11 10 10 9 12 8 12 8 12 7 12 7 13 6 13 5 14 5 14 4 14 3 15 3 14 2 15 1 16 0 15 -10 0 0 -15 -1 -15 -2 -14 -2 -14 -4 -14 -4 -14 -4 -13 -5 -14 -6 -12 -7 -13 -7 -12 -7 -12 -8 -11 -9 -11 -9 -11 -10 -10 -10 -9 -10 -10 -11 -8 -12 -8 -11 -8 -13 -7 -12 -6 -13 -6 -13 -5 -14 -5 -13 -4 -14 -3 -14 -3 -15 -1 -15 -2 -14 0 0 0zm-1652 -10l1652 0 0 10 -1652 0 0 0 0 -10zm-289 300l-10 0 0 0 0 -15 1 -16 2 -15 3 -14 3 -15 4 -14 5 -14 5 -14 6 -13 7 -13 7 -12 8 -12 8 -12 9 -12 10 -10 10 -11 10 -10 11 -9 11 -9 12 -9 12 -7 13 -8 13 -6 13 -6 14 -6 14 -4 14 -5 14 -3 15 -3 15 -1 15 -2 15 0 0 10 -14 0 -15 2 -15 1 -14 3 -14 3 -13 4 -14 5 -13 5 -13 6 -12 6 -13 7 -11 8 -12 8 -11 8 -10 10 -10 9 -10 10 -9 11 -9 11 -8 11 -7 12 -7 12 -7 13 -6 12 -5 14 -4 13 -4 14 -4 14 -2 14 -2 14 -1 15 0 15 0 0zm-10 99l0 -99 10 0 0 99 -5 5 -5 -5zm10 0l0 5 -5 0 5 -5zm-204 -5l199 0 0 10 -199 0 0 0 0 -10zm-27 37l-10 0 0 0 0 -2 0 -2 0 -1 1 -2 0 -2 0 -2 1 -2 1 -1 1 -2 0 -2 1 -1 1 -2 1 -1 1 -2 2 -1 1 -1 1 -1 1 -2 2 -1 1 -1 2 -1 1 -1 2 0 2 -1 1 -1 2 0 2 -1 2 0 2 -1 1 0 2 0 2 0 0 10 -1 0 -2 0 -1 0 -1 0 -2 1 -1 0 -1 0 -1 1 -2 1 -1 0 -1 1 -1 1 -1 0 -1 1 -1 1 -1 1 -1 1 -1 1 -1 1 -1 1 0 1 -1 1 0 1 -1 2 -1 1 0 1 0 1 -1 2 0 1 0 2 0 1 0 1 0 0zm-10 3848l0 -3848 10 0 0 3848 0 0 -10 0zm37 27l0 10 0 0 -2 0 -2 0 -1 0 -2 -1 -2 0 -2 -1 -2 0 -1 -1 -2 -1 -2 0 -1 -1 -2 -1 -1 -1 -2 -1 -1 -2 -1 -1 -1 -1 -2 -1 -1 -2 -1 -1 -1 -2 -1 -1 0 -2 -1 -2 -1 -1 -1 -2 0 -2 0 -2 -1 -2 0 -1 0 -2 0 -2 10 0 0 1 0 2 0 1 0 1 1 2 0 1 0 1 1 1 1 2 0 1 1 1 1 1 0 1 1 1 1 1 1 1 1 1 1 1 1 1 1 0 1 1 1 1 1 0 2 1 1 1 1 0 1 0 2 1 1 0 1 0 2 0 1 0 0 0zm199 10l-199 0 0 -10 199 0 5 5 -5 5zm0 -10l5 0 0 5 -5 -5zm-5 104l0 -99 10 0 0 99 0 0 -10 0zm299 290l0 10 0 0 -15 0 -15 -2 -15 -1 -15 -3 -14 -3 -14 -5 -14 -4 -14 -6 -13 -6 -13 -6 -13 -8 -12 -7 -12 -9 -11 -9 -11 -9 -10 -10 -10 -11 -10 -10 -9 -12 -8 -12 -8 -12 -7 -12 -7 -13 -6 -13 -5 -14 -5 -14 -4 -14 -3 -15 -3 -14 -2 -15 -1 -16 0 -15 10 0 0 15 1 15 2 14 2 14 4 14 4 14 4 13 5 14 6 12 7 13 7 12 7 12 8 11 9 11 9 11 10 10 10 9 10 10 11 8 12 8 11 8 13 7 12 6 13 6 13 5 14 5 13 4 14 3 14 3 15 2 15 1 14 0 0 0zm50 10l-50 0 0 -10 50 0 0 10zm-460 -3317l0 0 0 0 0 0 0 5 0 -5zm-41 -36l10 0 0 0 0 2 1 1 0 2 0 1 0 2 1 1 0 2 1 1 0 1 1 2 1 1 1 1 1 1 0 2 1 1 1 1 2 1 1 1 1 1 1 1 1 0 2 1 1 1 1 0 2 1 1 1 2 0 1 0 1 1 2 0 2 0 1 0 0 10 -2 0 -2 0 -2 -1 -2 0 -2 0 -2 -1 -2 -1 -2 0 -1 -1 -2 -1 -2 -1 -2 -1 -1 -1 -2 -1 -1 -2 -2 -1 -1 -1 -1 -2 -1 -1 -2 -2 -1 -2 -1 -1 -1 -2 0 -2 -1 -2 -1 -2 0 -2 -1 -2 0 -2 0 -2 -1 -2 0 -2 0 0zm10 -567l0 567 -10 0 0 -567 0 0 10 0zm31 -41l0 10 0 0 -1 0 -2 0 -2 0 -1 1 -1 0 -2 1 -1 0 -2 1 -1 0 -1 1 -2 1 -1 0 -1 1 -1 1 -1 1 -2 1 -1 1 -1 1 0 2 -1 1 -1 1 -1 1 -1 2 0 1 -1 1 0 2 -1 1 0 2 0 1 0 2 -1 1 0 2 -10 0 0 -2 1 -2 0 -2 0 -2 1 -2 0 -2 1 -2 1 -2 0 -2 1 -2 1 -1 1 -2 2 -1 1 -2 1 -1 1 -2 2 -1 1 -2 2 -1 1 -1 2 -1 2 -1 2 -1 1 -1 2 0 2 -1 2 -1 2 0 2 0 2 -1 2 0 2 0 0 0zm0 5l0 0 0 0 0 0 0 -5 0 5zm41 36l-10 0 0 0 0 -2 0 -1 0 -2 -1 -1 0 -2 0 -1 -1 -2 -1 -1 0 -1 -1 -2 -1 -1 0 -1 -1 -1 -1 -2 -1 -1 -1 -1 -1 -1 -1 -1 -2 -1 -1 -1 -1 0 -1 -1 -2 -1 -1 0 -1 -1 -2 0 -1 -1 -2 0 -1 -1 -2 0 -1 0 -2 0 0 -10 2 0 2 0 2 1 2 0 2 0 2 1 2 1 2 0 2 1 2 1 1 1 2 1 2 1 1 1 2 2 1 1 1 2 2 1 1 2 1 1 1 2 1 1 1 2 1 2 0 2 1 2 1 2 0 2 0 2 1 2 0 2 0 2 0 0zm-10 567l0 -567 10 0 0 567 0 0 -10 0zm-31 41l0 -10 0 0 2 0 1 0 2 0 1 -1 2 0 1 0 2 -1 1 -1 1 0 2 -1 1 -1 1 0 1 -1 2 -1 1 -1 1 -1 1 -1 1 -1 1 -2 1 -1 0 -1 1 -1 1 -2 0 -1 1 -1 1 -2 0 -1 0 -2 1 -1 0 -2 0 -1 0 -2 10 0 0 2 0 2 -1 2 0 2 0 2 -1 2 -1 2 0 2 -1 2 -1 2 -1 1 -1 2 -1 2 -1 1 -2 2 -1 1 -1 1 -2 2 -1 1 -2 1 -2 1 -1 1 -2 1 -2 1 -2 0 -2 1 -2 1 -2 0 -2 0 -2 1 -2 0 -2 0 0 0zm0 483l0 0 0 0 0 0 0 5 0 -5zm-41 -36l10 0 0 0 0 2 1 1 0 2 0 1 0 2 1 1 0 2 1 1 0 1 1 2 1 1 1 1 1 1 0 2 1 1 1 1 2 1 1 1 1 1 1 1 1 0 2 1 1 1 1 0 2 1 1 0 2 1 1 0 1 0 2 1 2 0 1 0 0 10 -2 0 -2 0 -2 -1 -2 0 -2 -1 -2 0 -2 -1 -2 0 -1 -1 -2 -1 -2 -1 -2 -1 -1 -1 -2 -2 -1 -1 -2 -1 -1 -2 -1 -1 -1 -2 -2 -1 -1 -2 -1 -2 -1 -1 0 -2 -1 -2 -1 -2 0 -2 -1 -2 0 -2 0 -2 -1 -2 0 -2 0 0zm10 -277l0 277 -10 0 0 -277 0 0 10 0zm31 -41l0 10 0 0 -1 0 -2 0 -2 1 -1 0 -1 0 -2 1 -1 0 -2 1 -1 0 -1 1 -2 1 -1 1 -1 0 -1 1 -1 1 -2 1 -1 1 -1 2 0 1 -1 1 -1 1 -1 1 -1 2 0 1 -1 1 0 2 -1 1 0 2 0 1 0 2 -1 1 0 2 -10 0 0 -2 1 -2 0 -2 0 -2 1 -2 0 -2 1 -2 1 -2 0 -2 1 -1 1 -2 1 -2 2 -1 1 -2 1 -1 1 -2 2 -1 1 -1 2 -2 1 -1 2 -1 2 -1 2 -1 1 0 2 -1 2 -1 2 0 2 -1 2 0 2 0 2 -1 2 0 0 0zm0 5l0 0 0 0 0 0 0 -5 0 5zm41 36l-10 0 0 0 0 -2 0 -1 0 -2 -1 -1 0 -2 0 -1 -1 -2 -1 -1 0 -1 -1 -2 -1 -1 0 -1 -1 -1 -1 -1 -1 -2 -1 -1 -1 -1 -1 -1 -2 -1 -1 0 -1 -1 -1 -1 -2 -1 -1 0 -1 -1 -2 0 -1 -1 -2 0 -1 0 -2 -1 -1 0 -2 0 0 -10 2 0 2 1 2 0 2 0 2 1 2 0 2 1 2 1 2 0 2 1 1 1 2 1 1 1 2 2 2 1 1 1 1 2 2 1 1 2 1 1 1 2 1 2 1 1 1 2 0 2 1 2 1 2 0 2 0 2 1 2 0 2 0 2 0 0zm-10 277l0 -277 10 0 0 277 0 0 -10 0zm-31 41l0 -10 0 0 2 0 1 0 2 -1 1 0 2 0 1 -1 2 0 1 -1 1 0 2 -1 1 -1 1 0 1 -1 2 -1 1 -1 1 -1 1 -1 1 -1 1 -2 1 -1 0 -1 1 -1 1 -2 0 -1 1 -1 1 -2 0 -1 0 -2 1 -1 0 -2 0 -1 0 -2 10 0 0 2 0 2 -1 2 0 2 0 2 -1 2 -1 2 0 2 -1 2 -1 1 -1 2 -1 2 -1 1 -1 2 -2 1 -1 2 -1 1 -2 1 -1 2 -2 1 -2 1 -1 1 -2 1 -2 1 -2 0 -2 1 -2 0 -2 1 -2 0 -2 1 -2 0 -2 0 0 0zm2474 -376l0 0 0 0 0 0 0 5 0 -5zm-62 -57l10 0 0 0 0 3 1 2 0 3 0 2 1 3 1 2 1 3 0 2 2 2 1 3 1 2 1 2 2 2 1 2 2 2 2 1 1 2 2 2 2 1 2 2 2 1 3 1 2 2 2 1 2 1 3 0 2 1 3 1 2 0 3 0 3 1 2 0 0 10 -3 0 -3 -1 -3 0 -3 -1 -3 0 -3 -1 -3 -1 -3 -1 -3 -1 -2 -2 -3 -1 -2 -2 -3 -2 -2 -1 -2 -2 -2 -2 -3 -3 -1 -2 -2 -2 -2 -3 -2 -2 -1 -3 -1 -2 -2 -3 -1 -3 -1 -3 -1 -3 0 -3 -1 -3 0 -3 -1 -3 0 -3 0 0zm10 -569l0 569 -10 0 0 -569 0 0 10 0zm47 -56l10 0 -5 5 -2 0 -3 0 -3 0 -2 1 -3 0 -2 1 -3 1 -2 1 -2 1 -2 1 -3 1 -2 2 -2 1 -2 2 -2 1 -1 2 -2 2 -2 2 -1 2 -2 2 -1 2 -1 2 -1 2 -2 2 0 3 -1 2 -1 3 -1 2 0 3 0 2 -1 3 0 2 -10 0 0 -3 1 -3 0 -3 1 -3 0 -3 1 -3 1 -3 1 -3 2 -2 1 -3 1 -3 2 -2 2 -2 2 -3 1 -2 3 -2 2 -2 2 -2 2 -2 3 -2 2 -1 3 -2 2 -1 3 -1 3 -2 3 -1 3 0 3 -1 3 -1 3 0 3 0 3 0 -5 5zm10 0l0 5 -5 0 5 -5zm0 0l0 0 -10 0 0 0 5 -5 5 5zm-10 0l0 -5 5 0 -5 5zm67 56l-10 0 0 0 0 -2 0 -3 -1 -2 0 -3 -1 -2 0 -3 -1 -2 -1 -3 -1 -2 -1 -2 -1 -2 -2 -2 -1 -2 -2 -2 -1 -2 -2 -2 -2 -2 -2 -1 -2 -2 -2 -1 -2 -2 -2 -1 -2 -1 -3 -1 -2 -1 -2 -1 -3 -1 -2 0 -3 -1 -3 0 -2 0 -3 0 0 -10 3 0 4 0 3 0 3 1 3 1 3 0 2 1 3 2 3 1 3 1 2 2 3 1 2 2 3 2 2 2 2 2 2 2 2 2 2 3 1 2 2 2 2 3 1 3 1 2 1 3 1 3 1 3 1 3 0 3 1 3 0 3 0 3 0 0zm-10 569l0 -569 10 0 0 569 0 0 -10 0zm-52 62l0 -10 0 0 3 0 2 -1 3 0 3 0 2 -1 3 -1 2 0 2 -1 3 -1 2 -2 2 -1 2 -1 2 -2 2 -1 2 -2 2 -2 2 -1 1 -2 2 -2 1 -2 2 -2 1 -3 1 -2 1 -2 1 -2 1 -3 0 -2 1 -3 0 -2 1 -3 0 -2 0 -3 10 0 0 3 0 3 -1 3 0 3 -1 3 -1 3 -1 3 -1 3 -1 3 -1 2 -2 3 -2 2 -1 3 -2 2 -2 2 -2 3 -2 2 -2 2 -3 1 -2 2 -3 2 -2 1 -3 2 -3 1 -3 1 -2 1 -3 1 -3 0 -3 1 -3 0 -4 1 -3 0 0 0z"/>
  </g>
 </g>
</svg>
