<?xml version="1.0" encoding="UTF-8"?>
<!DOCTYPE svg PUBLIC "-//W3C//DTD SVG 1.1//EN" "http://www.w3.org/Graphics/SVG/1.1/DTD/svg11.dtd">
<!-- Creator: CorelDRAW -->
<svg xmlns="http://www.w3.org/2000/svg" xml:space="preserve" width="40mm" height="60mm" style="shape-rendering:geometricPrecision; text-rendering:geometricPrecision; image-rendering:optimizeQuality; fill-rule:evenodd; clip-rule:evenodd"
viewBox="0 0 40 60"
 xmlns:xlink="http://www.w3.org/1999/xlink">
 <defs>
  <style type="text/css">
   <![CDATA[
    .str0 {stroke:#1F1A17;stroke-width:0.194}
    .fil0 {fill:none}
   ]]>
  </style>
 </defs>
 <g id="图层_x0020_1">
  <metadata id="CorelCorpID_0Corel-Layer"/>
  <g id="_332964976">
   <path id="_366931152" class="fil0 str0" d="M13.1581 8.4389c0,-0.3593 -0.2901,-0.6422 -0.6576,-0.6422 -0.3863,0 -0.6622,0.2677 -0.6622,0.6399 0,0.3933 0.2818,0.6763 0.6728,0.6763 0.3781,0 0.6439,-0.2649 0.647,-0.674z"/>
   <path id="_367525304" class="fil0 str0" d="M13.0813 8.1946l-0.4364 0.0811 -0.5988 0.1081m1.0352 -0.1892z"/>
   <line id="_366998624" class="fil0 str0" x1="22.0982" y1="7.9423" x2="19.3636" y2= "7.9822" />
   <path id="_367525400" class="fil0 str0" d="M19.3636 7.9822c-1.1906,-0.02 -0.8924,-0.0153 -2.083,-0.027"/>
   <line id="_48394736" class="fil0 str0" x1="17.2806" y1="7.9552" x2="16.9048" y2= "7.9528" />
   <path id="_48395192" class="fil0 str0" d="M16.9048 7.9528c-0.7773,-0.0082 -0.8641,0.02 -0.9639,0.3065 -0.0223,0.0657 -0.0341,0.1362 -0.0341,0.2078 0,0.1897 0.0464,0.4055 0.1811,0.4445 0.0979,0.0115 0.0044,0.0674 7.5473,0.0815"/>
   <line id="_366931032" class="fil0 str0" x1="23.6352" y1="8.9931" x2="27.4301" y2= "9.0002" />
   <path id="_366995408" class="fil0 str0" d="M27.4301 9.0002c-2.1323,-0.027 -2.4875,0.0469 -2.4875,-0.0212 0.2783,-0.1334 0.2671,-0.3023 0.2671,-0.5424 0,-0.3769 -0.189,-0.5002 -0.7702,-0.5002 -0.0364,0 -0.0752,0.0012 -0.1174,0.0012"/>
   <path id="_367531040" class="fil0 str0" d="M24.3221 7.9376l-1.0803 0.0211 -1.1953 -0.02m2.2756 -0.0011z"/>
   <path id="_366998336" class="fil0 str0" d="M22.0465 7.9387c-1.0937,-0.0252 -1.9343,0.1966 -2.9612,0.5859"/>
   <line id="_369135008" class="fil0 str0" x1="19.2438" y1="51.2526" x2="19.6019" y2= "51.1106" />
   <path id="_332966032" class="fil0 str0" d="M19.6019 51.1106c0.9217,-0.364 0.9217,-0.364 1.1014,-0.3675"/>
   <line id="_369135080" class="fil0 str0" x1="20.7033" y1="50.7431" x2="20.7737" y2= "50.7407" />
   <path id="_367587144" class="fil0 str0" d="M20.7737 50.7407c1.0216,-0.0235 1.7895,-0.0352 2.3519,-0.0352 0.7667,0 1.1777,0.0223 1.2798,0.0716 0.209,0.0986 0.3135,0.2583 0.3123,0.4791 0,0.3593 -0.1632,0.4931 -0.6211,0.5084"/>
   <line id="_366930936" class="fil0 str0" x1="24.0966" y1="51.7646" x2="15.7905" y2= "51.7352" />
   <path id="_332965624" class="fil0 str0" d="M15.7905 51.7352c-0.2536,-0.0176 -0.3792,-0.1772 -0.3792,-0.4767 0,-0.2101 0.0986,-0.3804 0.2653,-0.4579 0.1257,-0.0599 0.4004,-0.0728 1.4055,-0.0681 1.8106,0.0082 3.6244,-0.008 5.4317,-0.0233"/>
   <line id="_366998576" class="fil0 str0" x1="30.5933" y1="52.8425" x2="12.5968" y2= "52.8413" />
   <path id="_369146768" class="fil0 str0" d="M12.5968 52.8413c-1.8082,0 -1.8082,0 -1.8798,-0.0235"/>
   <line id="_369147200" class="fil0 str0" x1="10.717" y1="52.8178" x2="10.6759" y2= "52.8061" />
   <path id="_369146816" class="fil0 str0" d="M10.6759 52.8061c-0.5296,-0.1268 -0.9746,-0.5624 -1.1284,-1.1026"/>
   <line id="_369147032" class="fil0 str0" x1="9.5475" y1="51.7035" x2="9.4312" y2= "22.4468" />
   <path id="_369147056" class="fil0 str0" d="M9.4312 22.4468c-0.0481,-12.0423 -0.0317,-14.4447 0.1034,-14.7805 0.2078,-0.519 0.3945,-0.7585 0.769,-0.9828 0.1668,-0.0997 0.3312,-0.1561 0.4944,-0.1678"/>
   <line id="_369147224" class="fil0 str0" x1="10.798" y1="6.5157" x2="20.1819" y2= "6.5039" />
   <path id="_369146840" class="fil0 str0" d="M20.1819 6.5039c5.1934,-0.0059 3.8948,-0.0071 9.0881,0.0106 0.5296,0.0375 1.1519,0.6047 1.2716,1.1601 0.0141,0.0645 0.0176,0.1573 0.0176,0.4849"/>
   <path id="_369147248" class="fil0 str0" d="M30.5592 8.1595l-0.0387 43.2458 0.0106 0.2431m0.0281 -43.4889z"/>
   <path id="_369146888" class="fil0 str0" d="M30.5311 51.6484c0,0.3569 -0.4474,0.8923 -0.8994,1.0743 -0.1738,0.0705 -0.2267,0.081 -0.6658,0.128"/>
   <line id="_369147320" class="fil0 str0" x1="28.9659" y1="52.8507" x2="28.7006" y2= "52.8906" />
   <path id="_369146912" class="fil0 str0" d="M28.7006 52.8906c-0.3899,0.0822 -0.6247,0.2302 -0.9699,0.6094"/>
  </g>
 </g>
</svg>
