<?xml version="1.0" encoding="UTF-8"?>
<!DOCTYPE svg PUBLIC "-//W3C//DTD SVG 1.1//EN" "http://www.w3.org/Graphics/SVG/1.1/DTD/svg11.dtd">
<!-- Creator: CorelDRAW X8 -->
<svg xmlns="http://www.w3.org/2000/svg" xml:space="preserve" width="40mm" height="60mm" version="1.1" style="shape-rendering:geometricPrecision; text-rendering:geometricPrecision; image-rendering:optimizeQuality; fill-rule:evenodd; clip-rule:evenodd"
viewBox="0 0 4000 6000"
 xmlns:xlink="http://www.w3.org/1999/xlink">
 <defs>
  <style type="text/css">
   <![CDATA[
    .str0 {stroke:black;stroke-width:7.62}
    .fil0 {fill:none}
   ]]>
  </style>
 </defs>
 <g id="图层_x0020_1">
  <metadata id="CorelCorpID_0Corel-Layer"/>
  <path class="fil0 str0" d="M1201 769c-1,-6 -6,-12 -18,-13 -40,0 -74,33 -74,74 0,41 34,74 74,74 41,0 74,-33 74,-74 0,-41 -33,-74 -74,-74m85 4594c-23,-15 -58,-28 -88,-28 -118,0 -215,-97 -215,-215l0 -4242c0,-118 97,-215 215,-215l483 0c5,0 8,1 12,4l15 13c4,3 7,4 14,4l598 0c5,0 7,-1 10,-4l12 -13c2,-3 4,-4 7,-4l489 0c118,0 215,97 215,215l0 4242c0,118 -97,215 -215,215l-1755 0"/>
 </g>
</svg>
