<?xml version="1.0" encoding="UTF-8"?>
<!DOCTYPE svg PUBLIC "-//W3C//DTD SVG 1.1//EN" "http://www.w3.org/Graphics/SVG/1.1/DTD/svg11.dtd">
<!-- Creator: CorelDRAW 2020 (64-Bit) -->
<svg xmlns="http://www.w3.org/2000/svg" xml:space="preserve" width="40mm" height="60mm" version="1.1" style="shape-rendering:geometricPrecision; text-rendering:geometricPrecision; image-rendering:optimizeQuality; fill-rule:evenodd; clip-rule:evenodd"
viewBox="0 0 4000 6000"
 xmlns:xlink="http://www.w3.org/1999/xlink"
 xmlns:xodm="http://www.corel.com/coreldraw/odm/2003">
 <defs>
  <style type="text/css">
   <![CDATA[
    .str2 {stroke:#332C2B;stroke-width:20;stroke-miterlimit:22.9256}
    .str0 {stroke:#E62B28;stroke-width:20;stroke-miterlimit:22.9256}
    .str1 {stroke:#222222;stroke-width:20;stroke-miterlimit:22.9256}
    .fil0 {fill:none}
   ]]>
  </style>
   <clipPath id="id0">
    <rect x="-42923.92" y="-8735.43" width="18012.57" height="19178.24"/>
   </clipPath>
 </defs>
 <g id="图层_x0020_1">
  <metadata id="CorelCorpID_0Corel-Layer"/>
  <g style="clip-path:url(#id0)">
   <image x="-42923.92" y="-8735.43" width="18012.57" height="19178.24" xlink:href="Edge 30 fusion -11i（前膜半包）2_Images\Edge 30 fusion -11i（前膜半包）2_ImgID1.png"/>
  </g>
  <rect class="fil0 str0" x="-41350.41" y="-7006.97" width="7200" height="15850"/>
  <path class="fil0 str1" d="M-41294.38 8099.81l-219.99 0c-27.48,0 -50,-22.67 -50,-50.08l0 -14252.92c0,-27.4 22.51,-50.07 50,-50.07l220 0c0,-330 270,-600.25 600,-600.25l5887.92 0c330,0 600.01,270.25 600.01,600.25l251.97 0c27.48,0 49.99,22.67 49.99,50.07 0,5009.18 0,8687.04 0,14252.92 0,27.41 -22.52,50.08 -49.99,50.08l-251.97 0c0,329.99 -270.04,600.11 -600.01,600.11l-5887.92 0c-329.98,0 -600.01,-270.11 -600.01,-600.11z"/>
  <circle class="fil0 str2" cx="-37750.22" cy="-6330.7" r="203.74"/>
  <rect class="fil0 str2" x="-34134.43" y="-3451.62" width="165.37" height="2010.84" rx="300" ry="300"/>
  <rect class="fil0 str2" x="-34134.43" y="-679.93" width="165.37" height="1111.25" rx="300" ry="165.79"/>
  <path class="fil0 str1" d="M-3393.92 4745.89l0 -262.72c330,0 600.11,-270.03 600.11,-600.01l0 -5887.92c0,-329.97 -270.12,-600.01 -600.11,-600.01l0 -251.97c0,-27.47 -22.67,-49.99 -50.08,-49.99 -5565.88,0 -9243.74,0 -14252.92,0 -27.4,0 -50.07,22.51 -50.07,49.99l0 251.97c-330,0 -600.25,270.01 -600.25,600.01l0 5887.92c0,330 270.25,600 600.25,600l0 220c0,27.49 22.67,50 50.07,50l14252.92 0c27.41,0 50.08,-22.52 50.08,-50 0,-27.48 3.7,-90.46 21.34,-119.27"/>
  <path class="fil0 str2" d="M-17796.07 1015.61c-74.97,44.1 -232.1,35.92 -232.1,-76.6 0,-112.52 91.22,-203.74 203.74,-203.74 112.52,0 203.74,91.22 203.74,203.74 0,112.52 -91.22,203.74 -203.74,203.74 -112.52,0 -203.74,-91.22 -203.74,-203.74"/>
  <path class="fil0 str2" d="M-14857.7 -2701.15c-33.63,1.38 -87.65,-12.83 -87.65,-58.32 0,-45.49 37.19,-82.69 82.68,-82.69l1845.48 0c45.48,0 82.68,37.2 82.68,82.68l0 0.01c0,45.48 -37.2,82.68 -82.68,82.68l-1845.48 0c-45.48,0 -82.68,-37.2 -82.68,-82.68"/>
  <path class="fil0 str2" d="M-12089.51 -2702.82c-27.29,2.48 -84.15,-11.16 -84.15,-56.65 0,-45.49 37.19,-82.69 82.68,-82.69l945.89 0c45.48,0 82.68,37.2 82.68,82.68l0 0.01c0,45.48 -37.2,82.68 -82.68,82.68l-945.89 0c-45.48,0 -82.68,-37.2 -82.68,-82.68"/>
  <g id="_2297231393632">
   <path class="fil0 str1" d="M838.25 5174.32l79.39 0c0,99.73 81.59,181.35 181.31,181.35l1779.24 0c99.71,0 181.31,-81.63 181.31,-181.35l76.14 0c8.3,0 15.11,-6.85 15.11,-15.13 0,-1681.92 0,-2793.31 0,-4307.01 0,-8.27 -6.8,-15.13 -15.11,-15.13l-76.14 0c0,-99.72 -81.59,-181.38 -181.31,-181.38l-1779.24 0c-99.72,0 -181.31,81.66 -181.31,181.38l-66.48 0c-8.31,0 -15.11,6.86 -15.11,15.13l0 4307.01c0,8.28 6.8,15.13 15.11,15.13 8.3,0 27.33,1.12 36.04,6.45"/>
   <path class="fil0 str2" d="M1965.48 822.22c-13.33,-22.65 -10.86,-70.13 23.15,-70.13 34,0 61.56,27.56 61.56,61.56 0,34.01 -27.56,61.57 -61.56,61.57 -34.01,0 -61.57,-27.56 -61.57,-61.57 0,-34 27.56,-61.56 61.57,-61.56"/>
   <path class="fil0 str2" d="M3088.63 1710.15c-0.42,-10.16 3.87,-26.48 17.62,-26.48 13.75,0 24.99,11.23 24.99,24.98l0 557.68c0,13.74 -11.24,24.98 -24.99,24.98l0 0c-13.74,0 -24.99,-11.24 -24.99,-24.98l0 -557.68c0,-13.74 11.25,-24.98 24.99,-24.98"/>
   <path class="fil0 str2" d="M3089.13 2546.66c-0.75,-8.25 3.37,-25.43 17.12,-25.43 13.75,0 24.99,11.23 24.99,24.98l0 285.83c0,13.75 -11.24,24.99 -24.99,24.99l0 0c-13.74,0 -24.99,-11.24 -24.99,-24.99l0 -285.83c0,-13.74 11.25,-24.98 24.99,-24.98"/>
  </g>
 </g>
</svg>
