<?xml version="1.0" encoding="UTF-8"?>
<!DOCTYPE svg PUBLIC "-//W3C//DTD SVG 1.1//EN" "http://www.w3.org/Graphics/SVG/1.1/DTD/svg11.dtd">
<!-- Creator: CorelDRAW X8 -->
<svg xmlns="http://www.w3.org/2000/svg" xml:space="preserve" width="40mm" height="60mm" version="1.1" style="shape-rendering:geometricPrecision; text-rendering:geometricPrecision; image-rendering:optimizeQuality; fill-rule:evenodd; clip-rule:evenodd"
viewBox="0 0 4000 6000"
 xmlns:xlink="http://www.w3.org/1999/xlink">
 <defs>
  <style type="text/css">
   <![CDATA[
    .str0 {stroke:black;stroke-width:7.62}
    .fil0 {fill:none;fill-rule:nonzero}
   ]]>
  </style>
 </defs>
 <g id="图层_x0020_1">
  <metadata id="CorelCorpID_0Corel-Layer"/>
  <g>
   <path class="fil0 str0" d="M777 2604c-22,0 -40,-17 -40,-39l0 -251c0,-22 18,-39 40,-39l0 0c21,0 39,17 39,39l0 251c0,22 -18,39 -39,39l0 0zm0 -537c-21,0 -38,-17 -38,-38l0 -590c0,-21 17,-38 38,-38l0 0c21,0 38,17 38,38l0 590c0,21 -17,38 -38,38l0 0zm2434 -437c-25,0 -46,-20 -46,-45l0 -514c0,-25 21,-46 46,-46 25,0 45,21 45,46l0 514c0,25 -20,45 -45,45l0 0zm-1211 270c-100,0 -181,-81 -181,-181l0 0c0,-100 81,-182 181,-182l0 0c100,0 181,82 181,182l0 0c0,100 -81,181 -181,181l0 0zm-793 -314c-33,0 -61,-27 -61,-61l0 0c0,-33 28,-60 61,-60l0 0c33,0 60,27 60,60l0 0c0,34 -27,61 -60,61l0 0zm-3 -220c-77,0 -139,-62 -139,-139l0 0c0,-77 62,-139 139,-139l0 0c77,0 139,62 139,139l0 0c0,77 -62,139 -139,139l0 0zm0 -317c-77,0 -139,-63 -139,-139l0 0c0,-77 62,-140 139,-140l0 0c77,0 139,63 139,140l0 0c0,76 -62,139 -139,139l0 0zm1887 4044l202 0c17,0 30,-14 30,-30l0 -4126c0,-16 -13,-30 -30,-30l-202 0c-7,-143 -126,-257 -271,-257l-1640 0c-145,0 -264,114 -271,257l-202 0c-17,0 -30,14 -30,30l0 4126c0,16 13,30 30,30l202 0c7,143 126,257 271,257l1640 0c145,0 264,-114 271,-257l0 0z"/>
  </g>
 </g>
</svg>
