<?xml version="1.0" encoding="UTF-8"?>
<!DOCTYPE svg PUBLIC "-//W3C//DTD SVG 1.1//EN" "http://www.w3.org/Graphics/SVG/1.1/DTD/svg11.dtd">
<!-- Creator: CorelDRAW X8 -->
<svg xmlns="http://www.w3.org/2000/svg" xml:space="preserve" width="40mm" height="60mm" version="1.1" style="shape-rendering:geometricPrecision; text-rendering:geometricPrecision; image-rendering:optimizeQuality; fill-rule:evenodd; clip-rule:evenodd"
viewBox="0 0 4000 6000"
 xmlns:xlink="http://www.w3.org/1999/xlink">
 <defs>
  <style type="text/css">
   <![CDATA[
    .str0 {stroke:#333333;stroke-width:18;stroke-linejoin:bevel}
    .fil0 {fill:none}
   ]]>
  </style>
 </defs>
 <g id="图层_x0020_1">
  <metadata id="CorelCorpID_0Corel-Layer"/>
  <path class="fil0 str0" d="M930 5350c328,0 1981,0 1981,0 105,0 192,-86 192,-192 0,0 0,-4316 0,-4316 0,-106 -87,-192 -192,-192 0,0 -1822,0 -1822,0 -105,0 -192,86 -192,192 0,0 0,4316 0,4316 0,106 87,192 192,192 0,0 24,0 67,0m-45 -4367c0,0 0,497 0,497 0,74 61,135 136,135 0,0 482,0 482,0 74,0 135,-61 135,-135 0,0 0,-497 0,-497 0,-74 -61,-135 -135,-135 0,0 -482,0 -482,0 -75,0 -136,61 -136,135zm141 739c0,40 33,74 73,74 41,0 74,-34 74,-74 0,-41 -33,-74 -74,-74 -40,0 -73,33 -73,74z"/>
 </g>
</svg>
