<?xml version="1.0" encoding="UTF-8"?>
<!DOCTYPE svg PUBLIC "-//W3C//DTD SVG 1.1//EN" "http://www.w3.org/Graphics/SVG/1.1/DTD/svg11.dtd">
<!-- Creator: CorelDRAW X8 -->
<svg xmlns="http://www.w3.org/2000/svg" xml:space="preserve" width="40mm" height="60mm" version="1.1" style="shape-rendering:geometricPrecision; text-rendering:geometricPrecision; image-rendering:optimizeQuality; fill-rule:evenodd; clip-rule:evenodd"
viewBox="0 0 4000 6000"
 xmlns:xlink="http://www.w3.org/1999/xlink">
 <defs>
  <style type="text/css">
   <![CDATA[
    .str0 {stroke:#332C2B;stroke-width:20}
    .fil0 {fill:none}
   ]]>
  </style>
 </defs>
 <g id="图层_x0020_1">
  <metadata id="CorelCorpID_0Corel-Layer"/>
  <g id="_2604127635280">
   <path class="fil0 str0" d="M1135 650l0 0c106,0 192,87 192,193l0 1056c0,106 -86,193 -192,193l0 0c-107,0 -193,-87 -193,-193l0 -1056c0,-106 86,-193 193,-193z"/>
   <path class="fil0 str0" d="M1135 2279l0 0c106,0 192,87 192,193l0 1056c0,106 -86,193 -192,193l0 0c-107,0 -193,-87 -193,-193l0 -1056c0,-106 86,-193 193,-193z"/>
   <path class="fil0 str0" d="M1135 3908l0 0c106,0 192,87 192,193l0 1056c0,106 -86,193 -192,193l0 0c-107,0 -193,-87 -193,-193l0 -1056c0,-106 86,-193 193,-193z"/>
   <path class="fil0 str0" d="M1712 650l0 0c106,0 192,87 192,193l0 1056c0,106 -86,193 -192,193l0 0c-107,0 -193,-87 -193,-193l0 -1056c0,-106 86,-193 193,-193z"/>
   <path class="fil0 str0" d="M1712 2279l0 0c106,0 192,87 192,193l0 1056c0,106 -86,193 -192,193l0 0c-107,0 -193,-87 -193,-193l0 -1056c0,-106 86,-193 193,-193z"/>
   <path class="fil0 str0" d="M1712 3908l0 0c106,0 192,87 192,193l0 1056c0,106 -86,193 -192,193l0 0c-107,0 -193,-87 -193,-193l0 -1056c0,-106 86,-193 193,-193z"/>
   <path class="fil0 str0" d="M2288 650l0 0c107,0 193,87 193,193l0 1056c0,106 -86,193 -193,193l0 0c-106,0 -192,-87 -192,-193l0 -1056c0,-106 86,-193 192,-193z"/>
   <path class="fil0 str0" d="M2288 2279l0 0c107,0 193,87 193,193l0 1056c0,106 -86,193 -193,193l0 0c-106,0 -192,-87 -192,-193l0 -1056c0,-106 86,-193 192,-193z"/>
   <path class="fil0 str0" d="M2288 3908l0 0c107,0 193,87 193,193l0 1056c0,106 -86,193 -193,193l0 0c-106,0 -192,-87 -192,-193l0 -1056c0,-106 86,-193 192,-193z"/>
   <path class="fil0 str0" d="M2865 650l0 0c107,0 193,87 193,193l0 1056c0,106 -86,193 -193,193l0 0c-106,0 -192,-87 -192,-193l0 -1056c0,-106 86,-193 192,-193z"/>
   <path class="fil0 str0" d="M2865 2279l0 0c107,0 193,87 193,193l0 1056c0,106 -86,193 -193,193l0 0c-106,0 -192,-87 -192,-193l0 -1056c0,-106 86,-193 192,-193z"/>
   <path class="fil0 str0" d="M2865 3908l0 0c107,0 193,87 193,193l0 1056c0,106 -86,193 -193,193l0 0c-106,0 -192,-87 -192,-193l0 -1056c0,-106 86,-193 192,-193z"/>
   <path class="fil0 str0" d="M1046 856c0,-34 16,-139 87,-139 70,0 127,57 127,128 0,70 -57,127 -127,127 -71,0 -128,-57 -128,-127 0,-71 57,-128 128,-128"/>
   <path class="fil0 str0" d="M1046 2485c0,-34 16,-139 87,-139 70,0 127,57 127,128 0,70 -57,127 -127,127 -71,0 -128,-57 -128,-127 0,-71 57,-128 128,-128"/>
   <path class="fil0 str0" d="M1046 4114c0,-34 16,-139 87,-139 70,0 127,57 127,128 0,70 -57,127 -127,127 -71,0 -128,-57 -128,-127 0,-71 57,-128 128,-128"/>
   <path class="fil0 str0" d="M1623 856c0,-34 16,-139 87,-139 70,0 127,57 127,128 0,70 -57,127 -127,127 -71,0 -128,-57 -128,-127 0,-71 57,-128 128,-128"/>
   <path class="fil0 str0" d="M1623 2485c0,-34 16,-139 87,-139 70,0 127,57 127,128 0,70 -57,127 -127,127 -71,0 -128,-57 -128,-127 0,-71 57,-128 128,-128"/>
   <path class="fil0 str0" d="M1623 4114c0,-34 16,-139 87,-139 70,0 127,57 127,128 0,70 -57,127 -127,127 -71,0 -128,-57 -128,-127 0,-71 57,-128 128,-128"/>
   <path class="fil0 str0" d="M2200 856c0,-34 16,-139 86,-139 71,0 128,57 128,128 0,70 -57,127 -128,127 -70,0 -127,-57 -127,-127 0,-71 57,-128 127,-128"/>
   <path class="fil0 str0" d="M2200 2485c0,-34 16,-139 86,-139 71,0 128,57 128,128 0,70 -57,127 -128,127 -70,0 -127,-57 -127,-127 0,-71 57,-128 127,-128"/>
   <path class="fil0 str0" d="M2200 4114c0,-34 16,-139 86,-139 71,0 128,57 128,128 0,70 -57,127 -128,127 -70,0 -127,-57 -127,-127 0,-71 57,-128 127,-128"/>
   <path class="fil0 str0" d="M2777 856c0,-34 16,-139 86,-139 71,0 128,57 128,128 0,70 -57,127 -128,127 -70,0 -127,-57 -127,-127 0,-71 57,-128 127,-128"/>
   <path class="fil0 str0" d="M2777 2485c0,-34 16,-139 86,-139 71,0 128,57 128,128 0,70 -57,127 -128,127 -70,0 -127,-57 -127,-127 0,-71 57,-128 127,-128"/>
   <path class="fil0 str0" d="M2777 4114c0,-34 16,-139 86,-139 71,0 128,57 128,128 0,70 -57,127 -128,127 -70,0 -127,-57 -127,-127 0,-71 57,-128 127,-128"/>
   <path class="fil0 str0" d="M1046 1293c0,-35 16,-151 87,-151 71,0 128,58 128,129 0,71 -57,128 -128,128 -71,0 -129,-57 -129,-128 0,-71 58,-129 129,-129"/>
   <path class="fil0 str0" d="M1046 2922c0,-35 16,-151 87,-151 71,0 128,58 128,129 0,71 -57,128 -128,128 -71,0 -129,-57 -129,-128 0,-71 58,-129 129,-129"/>
   <path class="fil0 str0" d="M1046 4551c0,-35 16,-151 87,-151 71,0 128,58 128,129 0,71 -57,128 -128,128 -71,0 -129,-57 -129,-128 0,-71 58,-129 129,-129"/>
   <path class="fil0 str0" d="M1623 1293c0,-35 16,-151 87,-151 71,0 128,58 128,129 0,71 -57,128 -128,128 -71,0 -129,-57 -129,-128 0,-71 58,-129 129,-129"/>
   <path class="fil0 str0" d="M1623 2922c0,-35 16,-151 87,-151 71,0 128,58 128,129 0,71 -57,128 -128,128 -71,0 -129,-57 -129,-128 0,-71 58,-129 129,-129"/>
   <path class="fil0 str0" d="M1623 4551c0,-35 16,-151 87,-151 71,0 128,58 128,129 0,71 -57,128 -128,128 -71,0 -129,-57 -129,-128 0,-71 58,-129 129,-129"/>
   <path class="fil0 str0" d="M2200 1293c0,-35 15,-151 86,-151 72,0 129,58 129,129 0,71 -57,128 -129,128 -71,0 -128,-57 -128,-128 0,-71 57,-129 128,-129"/>
   <path class="fil0 str0" d="M2200 2922c0,-35 15,-151 86,-151 72,0 129,58 129,129 0,71 -57,128 -129,128 -71,0 -128,-57 -128,-128 0,-71 57,-129 128,-129"/>
   <path class="fil0 str0" d="M2200 4551c0,-35 15,-151 86,-151 72,0 129,58 129,129 0,71 -57,128 -129,128 -71,0 -128,-57 -128,-128 0,-71 57,-129 128,-129"/>
   <path class="fil0 str0" d="M2777 1293c0,-35 15,-151 86,-151 71,0 129,58 129,129 0,71 -58,128 -129,128 -71,0 -128,-57 -128,-128 0,-71 57,-129 128,-129"/>
   <path class="fil0 str0" d="M2777 2922c0,-35 15,-151 86,-151 71,0 129,58 129,129 0,71 -58,128 -129,128 -71,0 -128,-57 -128,-128 0,-71 57,-129 128,-129"/>
   <path class="fil0 str0" d="M2777 4551c0,-35 15,-151 86,-151 71,0 129,58 129,129 0,71 -58,128 -129,128 -71,0 -128,-57 -128,-128 0,-71 57,-129 128,-129"/>
   <path class="fil0 str0" d="M1048 1624c0,-28 14,-159 85,-159 71,0 128,58 128,129 0,71 -57,129 -128,129 -71,0 -129,-58 -129,-129 0,-71 58,-129 129,-129"/>
   <path class="fil0 str0" d="M1048 3253c0,-28 14,-159 85,-159 71,0 128,58 128,129 0,71 -57,129 -128,129 -71,0 -129,-58 -129,-129 0,-71 58,-129 129,-129"/>
   <path class="fil0 str0" d="M1048 4882c0,-28 14,-159 85,-159 71,0 128,58 128,129 0,71 -57,129 -128,129 -71,0 -129,-58 -129,-129 0,-71 58,-129 129,-129"/>
   <path class="fil0 str0" d="M1625 1624c0,-28 14,-159 85,-159 71,0 128,58 128,129 0,71 -57,129 -128,129 -71,0 -129,-58 -129,-129 0,-71 58,-129 129,-129"/>
   <path class="fil0 str0" d="M1625 3253c0,-28 14,-159 85,-159 71,0 128,58 128,129 0,71 -57,129 -128,129 -71,0 -129,-58 -129,-129 0,-71 58,-129 129,-129"/>
   <path class="fil0 str0" d="M1625 4882c0,-28 14,-159 85,-159 71,0 128,58 128,129 0,71 -57,129 -128,129 -71,0 -129,-58 -129,-129 0,-71 58,-129 129,-129"/>
   <path class="fil0 str0" d="M2202 1624c0,-28 13,-159 84,-159 72,0 129,58 129,129 0,71 -57,129 -129,129 -71,0 -128,-58 -128,-129 0,-71 57,-129 128,-129"/>
   <path class="fil0 str0" d="M2202 3253c0,-28 13,-159 84,-159 72,0 129,58 129,129 0,71 -57,129 -129,129 -71,0 -128,-58 -128,-129 0,-71 57,-129 128,-129"/>
   <path class="fil0 str0" d="M2202 4882c0,-28 13,-159 84,-159 72,0 129,58 129,129 0,71 -57,129 -129,129 -71,0 -128,-58 -128,-129 0,-71 57,-129 128,-129"/>
   <path class="fil0 str0" d="M2779 1624c0,-28 13,-159 84,-159 71,0 129,58 129,129 0,71 -58,129 -129,129 -71,0 -128,-58 -128,-129 0,-71 57,-129 128,-129"/>
   <path class="fil0 str0" d="M2779 3253c0,-28 13,-159 84,-159 71,0 129,58 129,129 0,71 -58,129 -129,129 -71,0 -128,-58 -128,-129 0,-71 57,-129 128,-129"/>
   <path class="fil0 str0" d="M2779 4882c0,-28 13,-159 84,-159 71,0 129,58 129,129 0,71 -58,129 -129,129 -71,0 -128,-58 -128,-129 0,-71 57,-129 128,-129"/>
   <path class="fil0 str0" d="M1045 1928c0,-22 17,-155 88,-155 71,0 128,57 128,128 0,72 -57,129 -128,129 -71,0 -129,-57 -129,-129 0,-71 58,-128 129,-128"/>
   <path class="fil0 str0" d="M1045 3557c0,-22 17,-155 88,-155 71,0 128,57 128,129 0,71 -57,128 -128,128 -71,0 -129,-57 -129,-128 0,-72 58,-129 129,-129"/>
   <path class="fil0 str0" d="M1045 5186c0,-22 17,-155 88,-155 71,0 128,58 128,129 0,71 -57,128 -128,128 -71,0 -129,-57 -129,-128 0,-71 58,-129 129,-129"/>
   <path class="fil0 str0" d="M1622 1928c0,-22 17,-155 88,-155 71,0 128,57 128,128 0,72 -57,129 -128,129 -71,0 -129,-57 -129,-129 0,-71 58,-128 129,-128"/>
   <path class="fil0 str0" d="M1622 3557c0,-22 17,-155 88,-155 71,0 128,57 128,129 0,71 -57,128 -128,128 -71,0 -129,-57 -129,-128 0,-72 58,-129 129,-129"/>
   <path class="fil0 str0" d="M1622 5186c0,-22 17,-155 88,-155 71,0 128,58 128,129 0,71 -57,128 -128,128 -71,0 -129,-57 -129,-128 0,-71 58,-129 129,-129"/>
   <path class="fil0 str0" d="M2199 1928c0,-22 16,-155 87,-155 72,0 129,57 129,128 0,72 -57,129 -129,129 -71,0 -128,-57 -128,-129 0,-71 57,-128 128,-128"/>
   <path class="fil0 str0" d="M2199 3557c0,-22 16,-155 87,-155 72,0 129,57 129,129 0,71 -57,128 -129,128 -71,0 -128,-57 -128,-128 0,-72 57,-129 128,-129"/>
   <path class="fil0 str0" d="M2199 5186c0,-22 16,-155 87,-155 72,0 129,58 129,129 0,71 -57,128 -129,128 -71,0 -128,-57 -128,-128 0,-71 57,-129 128,-129"/>
   <path class="fil0 str0" d="M2776 1928c0,-22 16,-155 87,-155 71,0 129,57 129,128 0,72 -58,129 -129,129 -71,0 -128,-57 -128,-129 0,-71 57,-128 128,-128"/>
   <path class="fil0 str0" d="M2776 3557c0,-22 16,-155 87,-155 71,0 129,57 129,129 0,71 -58,128 -129,128 -71,0 -128,-57 -128,-128 0,-72 57,-129 128,-129"/>
   <path class="fil0 str0" d="M2776 5186c0,-22 16,-155 87,-155 71,0 129,58 129,129 0,71 -58,128 -129,128 -71,0 -128,-57 -128,-128 0,-71 57,-129 128,-129"/>
  </g>
  <g id="_2604126869904">
   <path class="fil0 str0" d="M-16884 5550l0 0c0,-313 256,-568 569,-568l3112 0c312,0 568,255 568,568l0 0c0,313 -256,568 -568,568l-3112 0c-313,0 -569,-255 -569,-568z"/>
   <path class="fil0 str0" d="M-12084 5550l0 0c0,-313 256,-568 569,-568l3112 0c312,0 568,255 568,568l0 0c0,313 -256,568 -568,568l-3112 0c-313,0 -569,-255 -569,-568z"/>
   <path class="fil0 str0" d="M-7284 5550l0 0c0,-313 256,-568 569,-568l3112 0c312,0 568,255 568,568l0 0c0,313 -256,568 -568,568l-3112 0c-313,0 -569,-255 -569,-568z"/>
   <path class="fil0 str0" d="M-16884 3850l0 0c0,-313 256,-568 569,-568l3112 0c312,0 568,255 568,568l0 0c0,313 -256,568 -568,568l-3112 0c-313,0 -569,-255 -569,-568z"/>
   <path class="fil0 str0" d="M-12084 3850l0 0c0,-313 256,-568 569,-568l3112 0c312,0 568,255 568,568l0 0c0,313 -256,568 -568,568l-3112 0c-313,0 -569,-255 -569,-568z"/>
   <path class="fil0 str0" d="M-7284 3850l0 0c0,-313 256,-568 569,-568l3112 0c312,0 568,255 568,568l0 0c0,313 -256,568 -568,568l-3112 0c-313,0 -569,-255 -569,-568z"/>
   <path class="fil0 str0" d="M-16884 2150l0 0c0,-313 256,-568 569,-568l3112 0c312,0 568,255 568,568l0 0c0,313 -256,568 -568,568l-3112 0c-313,0 -569,-255 -569,-568z"/>
   <path class="fil0 str0" d="M-12084 2150l0 0c0,-313 256,-568 569,-568l3112 0c312,0 568,255 568,568l0 0c0,313 -256,568 -568,568l-3112 0c-313,0 -569,-255 -569,-568z"/>
   <path class="fil0 str0" d="M-7284 2150l0 0c0,-313 256,-568 569,-568l3112 0c312,0 568,255 568,568l0 0c0,313 -256,568 -568,568l-3112 0c-313,0 -569,-255 -569,-568z"/>
   <path class="fil0 str0" d="M-16884 450l0 0c0,-313 256,-568 569,-568l3112 0c312,0 568,255 568,568l0 0c0,313 -256,568 -568,568l-3112 0c-313,0 -569,-255 -569,-568z"/>
   <path class="fil0 str0" d="M-12084 450l0 0c0,-313 256,-568 569,-568l3112 0c312,0 568,255 568,568l0 0c0,313 -256,568 -568,568l-3112 0c-313,0 -569,-255 -569,-568z"/>
   <path class="fil0 str0" d="M-7284 450l0 0c0,-313 256,-568 569,-568l3112 0c312,0 568,255 568,568l0 0c0,313 -256,568 -568,568l-3112 0c-313,0 -569,-255 -569,-568z"/>
   <path class="fil0 str0" d="M-16276 5812c-100,0 -409,-49 -409,-256 0,-207 168,-375 375,-375 207,0 374,168 374,375 0,207 -167,375 -374,375 -207,0 -375,-168 -375,-375"/>
   <path class="fil0 str0" d="M-11476 5812c-100,0 -409,-49 -409,-256 0,-207 168,-375 375,-375 207,0 374,168 374,375 0,207 -167,375 -374,375 -207,0 -375,-168 -375,-375"/>
   <path class="fil0 str0" d="M-6676 5812c-100,0 -409,-49 -409,-256 0,-207 168,-375 375,-375 207,0 374,168 374,375 0,207 -167,375 -374,375 -207,0 -375,-168 -375,-375"/>
   <path class="fil0 str0" d="M-16276 4112c-100,0 -409,-49 -409,-256 0,-207 168,-375 375,-375 207,0 374,168 374,375 0,207 -167,375 -374,375 -207,0 -375,-168 -375,-375"/>
   <path class="fil0 str0" d="M-11476 4112c-100,0 -409,-49 -409,-256 0,-207 168,-375 375,-375 207,0 374,168 374,375 0,207 -167,375 -374,375 -207,0 -375,-168 -375,-375"/>
   <path class="fil0 str0" d="M-6676 4112c-100,0 -409,-49 -409,-256 0,-207 168,-375 375,-375 207,0 374,168 374,375 0,207 -167,375 -374,375 -207,0 -375,-168 -375,-375"/>
   <path class="fil0 str0" d="M-16276 2412c-100,0 -409,-49 -409,-256 0,-207 168,-375 375,-375 207,0 374,168 374,375 0,207 -167,375 -374,375 -207,0 -375,-168 -375,-375"/>
   <path class="fil0 str0" d="M-11476 2412c-100,0 -409,-49 -409,-256 0,-207 168,-375 375,-375 207,0 374,168 374,375 0,207 -167,375 -374,375 -207,0 -375,-168 -375,-375"/>
   <path class="fil0 str0" d="M-6676 2412c-100,0 -409,-49 -409,-256 0,-207 168,-375 375,-375 207,0 374,168 374,375 0,207 -167,375 -374,375 -207,0 -375,-168 -375,-375"/>
   <path class="fil0 str0" d="M-16276 712c-100,0 -409,-49 -409,-256 0,-207 168,-375 375,-375 207,0 374,168 374,375 0,207 -167,375 -374,375 -207,0 -375,-168 -375,-375"/>
   <path class="fil0 str0" d="M-11476 712c-100,0 -409,-49 -409,-256 0,-207 168,-375 375,-375 207,0 374,168 374,375 0,207 -167,375 -374,375 -207,0 -375,-168 -375,-375"/>
   <path class="fil0 str0" d="M-6676 712c-100,0 -409,-49 -409,-256 0,-207 168,-375 375,-375 207,0 374,168 374,375 0,207 -167,375 -374,375 -207,0 -375,-168 -375,-375"/>
   <path class="fil0 str0" d="M-14990 5812c-102,0 -444,-47 -444,-256 0,-209 170,-379 379,-379 210,0 379,170 379,379 0,209 -169,379 -379,379 -209,0 -379,-170 -379,-379"/>
   <path class="fil0 str0" d="M-10190 5812c-102,0 -444,-47 -444,-256 0,-209 170,-379 379,-379 210,0 379,170 379,379 0,209 -169,379 -379,379 -209,0 -379,-170 -379,-379"/>
   <path class="fil0 str0" d="M-5390 5812c-102,0 -444,-47 -444,-256 0,-209 170,-379 379,-379 210,0 379,170 379,379 0,209 -169,379 -379,379 -209,0 -379,-170 -379,-379"/>
   <path class="fil0 str0" d="M-14990 4112c-102,0 -444,-47 -444,-256 0,-209 170,-379 379,-379 210,0 379,170 379,379 0,209 -169,379 -379,379 -209,0 -379,-170 -379,-379"/>
   <path class="fil0 str0" d="M-10190 4112c-102,0 -444,-47 -444,-256 0,-209 170,-379 379,-379 210,0 379,170 379,379 0,209 -169,379 -379,379 -209,0 -379,-170 -379,-379"/>
   <path class="fil0 str0" d="M-5390 4112c-102,0 -444,-47 -444,-256 0,-209 170,-379 379,-379 210,0 379,170 379,379 0,209 -169,379 -379,379 -209,0 -379,-170 -379,-379"/>
   <path class="fil0 str0" d="M-14990 2412c-102,0 -444,-47 -444,-256 0,-209 170,-379 379,-379 210,0 379,170 379,379 0,209 -169,379 -379,379 -209,0 -379,-170 -379,-379"/>
   <path class="fil0 str0" d="M-10190 2412c-102,0 -444,-47 -444,-256 0,-209 170,-379 379,-379 210,0 379,170 379,379 0,209 -169,379 -379,379 -209,0 -379,-170 -379,-379"/>
   <path class="fil0 str0" d="M-5390 2412c-102,0 -444,-47 -444,-256 0,-209 170,-379 379,-379 210,0 379,170 379,379 0,209 -169,379 -379,379 -209,0 -379,-170 -379,-379"/>
   <path class="fil0 str0" d="M-14990 712c-102,0 -444,-47 -444,-256 0,-209 170,-379 379,-379 210,0 379,170 379,379 0,209 -169,379 -379,379 -209,0 -379,-170 -379,-379"/>
   <path class="fil0 str0" d="M-10190 712c-102,0 -444,-47 -444,-256 0,-209 170,-379 379,-379 210,0 379,170 379,379 0,209 -169,379 -379,379 -209,0 -379,-170 -379,-379"/>
   <path class="fil0 str0" d="M-5390 712c-102,0 -444,-47 -444,-256 0,-209 170,-379 379,-379 210,0 379,170 379,379 0,209 -169,379 -379,379 -209,0 -379,-170 -379,-379"/>
   <path class="fil0 str0" d="M-14014 5804c-84,0 -467,-39 -467,-248 0,-209 170,-379 379,-379 209,0 379,170 379,379 0,209 -170,379 -379,379 -209,0 -379,-170 -379,-379"/>
   <path class="fil0 str0" d="M-9214 5804c-84,0 -467,-39 -467,-248 0,-209 170,-379 379,-379 209,0 379,170 379,379 0,209 -170,379 -379,379 -209,0 -379,-170 -379,-379"/>
   <path class="fil0 str0" d="M-4414 5804c-84,0 -467,-39 -467,-248 0,-209 170,-379 379,-379 209,0 379,170 379,379 0,209 -170,379 -379,379 -209,0 -379,-170 -379,-379"/>
   <path class="fil0 str0" d="M-14014 4104c-84,0 -467,-39 -467,-248 0,-209 170,-379 379,-379 209,0 379,170 379,379 0,209 -170,379 -379,379 -209,0 -379,-170 -379,-379"/>
   <path class="fil0 str0" d="M-9214 4104c-84,0 -467,-39 -467,-248 0,-209 170,-379 379,-379 209,0 379,170 379,379 0,209 -170,379 -379,379 -209,0 -379,-170 -379,-379"/>
   <path class="fil0 str0" d="M-4414 4104c-84,0 -467,-39 -467,-248 0,-209 170,-379 379,-379 209,0 379,170 379,379 0,209 -170,379 -379,379 -209,0 -379,-170 -379,-379"/>
   <path class="fil0 str0" d="M-14014 2404c-84,0 -467,-39 -467,-248 0,-209 170,-379 379,-379 209,0 379,170 379,379 0,209 -170,379 -379,379 -209,0 -379,-170 -379,-379"/>
   <path class="fil0 str0" d="M-9214 2404c-84,0 -467,-39 -467,-248 0,-209 170,-379 379,-379 209,0 379,170 379,379 0,209 -170,379 -379,379 -209,0 -379,-170 -379,-379"/>
   <path class="fil0 str0" d="M-4414 2404c-84,0 -467,-39 -467,-248 0,-209 170,-379 379,-379 209,0 379,170 379,379 0,209 -170,379 -379,379 -209,0 -379,-170 -379,-379"/>
   <path class="fil0 str0" d="M-14014 704c-84,0 -467,-39 -467,-248 0,-209 170,-379 379,-379 209,0 379,170 379,379 0,209 -170,379 -379,379 -209,0 -379,-170 -379,-379"/>
   <path class="fil0 str0" d="M-9214 704c-84,0 -467,-39 -467,-248 0,-209 170,-379 379,-379 209,0 379,170 379,379 0,209 -170,379 -379,379 -209,0 -379,-170 -379,-379"/>
   <path class="fil0 str0" d="M-4414 704c-84,0 -467,-39 -467,-248 0,-209 170,-379 379,-379 209,0 379,170 379,379 0,209 -170,379 -379,379 -209,0 -379,-170 -379,-379"/>
   <path class="fil0 str0" d="M-13119 5813c-64,0 -456,-48 -456,-257 0,-209 170,-379 379,-379 209,0 379,170 379,379 0,209 -170,379 -379,379 -209,0 -379,-170 -379,-379"/>
   <path class="fil0 str0" d="M-8319 5813c-64,0 -456,-48 -456,-257 0,-209 170,-379 379,-379 209,0 379,170 379,379 0,209 -170,379 -379,379 -209,0 -379,-170 -379,-379"/>
   <path class="fil0 str0" d="M-3519 5813c-64,0 -456,-48 -456,-257 0,-209 170,-379 379,-379 209,0 379,170 379,379 0,209 -170,379 -379,379 -209,0 -379,-170 -379,-379"/>
   <path class="fil0 str0" d="M-13119 4113c-64,0 -456,-48 -456,-257 0,-209 170,-379 379,-379 209,0 379,170 379,379 0,209 -170,379 -379,379 -209,0 -379,-170 -379,-379"/>
   <path class="fil0 str0" d="M-8319 4113c-64,0 -456,-48 -456,-257 0,-209 170,-379 379,-379 209,0 379,170 379,379 0,209 -170,379 -379,379 -209,0 -379,-170 -379,-379"/>
   <path class="fil0 str0" d="M-3519 4113c-64,0 -456,-48 -456,-257 0,-209 170,-379 379,-379 209,0 379,170 379,379 0,209 -170,379 -379,379 -209,0 -379,-170 -379,-379"/>
   <path class="fil0 str0" d="M-13119 2413c-64,0 -456,-48 -456,-257 0,-209 170,-379 379,-379 209,0 379,170 379,379 0,209 -170,379 -379,379 -209,0 -379,-170 -379,-379"/>
   <path class="fil0 str0" d="M-8319 2413c-64,0 -456,-48 -456,-257 0,-209 170,-379 379,-379 209,0 379,170 379,379 0,209 -170,379 -379,379 -209,0 -379,-170 -379,-379"/>
   <path class="fil0 str0" d="M-3519 2413c-64,0 -456,-48 -456,-257 0,-209 170,-379 379,-379 209,0 379,170 379,379 0,209 -170,379 -379,379 -209,0 -379,-170 -379,-379"/>
   <path class="fil0 str0" d="M-13119 713c-64,0 -456,-48 -456,-257 0,-209 170,-379 379,-379 209,0 379,170 379,379 0,209 -170,379 -379,379 -209,0 -379,-170 -379,-379"/>
   <path class="fil0 str0" d="M-8319 713c-64,0 -456,-48 -456,-257 0,-209 170,-379 379,-379 209,0 379,170 379,379 0,209 -170,379 -379,379 -209,0 -379,-170 -379,-379"/>
   <path class="fil0 str0" d="M-3519 713c-64,0 -456,-48 -456,-257 0,-209 170,-379 379,-379 209,0 379,170 379,379 0,209 -170,379 -379,379 -209,0 -379,-170 -379,-379"/>
  </g>
 </g>
</svg>
