<?xml version="1.0" encoding="UTF-8"?>
<!DOCTYPE svg PUBLIC "-//W3C//DTD SVG 1.1//EN" "http://www.w3.org/Graphics/SVG/1.1/DTD/svg11.dtd">
<!-- Creator: CorelDRAW 2020 (64-Bit) -->
<svg xmlns="http://www.w3.org/2000/svg" xml:space="preserve" width="40mm" height="60mm" version="1.1" style="shape-rendering:geometricPrecision; text-rendering:geometricPrecision; image-rendering:optimizeQuality; fill-rule:evenodd; clip-rule:evenodd"
viewBox="0 0 4000 6000"
 xmlns:xlink="http://www.w3.org/1999/xlink"
 xmlns:xodm="http://www.corel.com/coreldraw/odm/2003">
 <defs>
  <style type="text/css">
   <![CDATA[
    .str1 {stroke:#332C2B;stroke-width:20;stroke-miterlimit:22.9256}
    .str0 {stroke:#E72D28;stroke-width:20;stroke-miterlimit:22.9256}
    .str2 {stroke:#222222;stroke-width:20;stroke-miterlimit:22.9256}
    .fil0 {fill:none}
   ]]>
  </style>
   <clipPath id="id0">
    <rect x="-30239.17" y="-6824.8" width="6114.56" height="11703.65"/>
   </clipPath>
   <clipPath id="id1">
    <rect x="-19449.26" y="-7645.38" width="6137.06" height="11047.18"/>
   </clipPath>
 </defs>
 <g id="图层_x0020_1">
  <metadata id="CorelCorpID_0Corel-Layer"/>
  <g style="clip-path:url(#id0)">
   <image x="-30239.17" y="-6824.8" width="6114.56" height="11703.65" xlink:href="2660 Flip-11i（前膜带壳-内屏）_Images\2660 Flip-11i（前膜带壳-内屏）_ImgID1.png"/>
  </g>
  <rect class="fil0 str0" x="-29870.03" y="-6384.3" width="5500" height="10800"/>
  <rect class="fil0 str0" x="-29125.19" y="-5731.87" width="4010.32" height="9482.33" rx="600" ry="616.82"/>
  <circle class="fil0 str0" cx="-28333.31" cy="-4930.48" r="324.15"/>
  <rect class="fil0 str0" x="-26333.28" y="-5158.08" width="671.26" height="449.85" rx="205.49" ry="213.19"/>
  <circle class="fil0 str0" cx="-25811.61" cy="2955.44" r="71.44"/>
  <g style="clip-path:url(#id1)">
   <image transform="matrix(0.999918 0.0127903 -0.0127903 0.999918 -19308.9 -7645.38)" x="0" y="0" width="5997.22" height="10971.38" xlink:href="2660 Flip-11i（前膜带壳-内屏）_Images\2660 Flip-11i（前膜带壳-内屏）_ImgID2.png"/>
  </g>
  <path class="fil0 str0" d="M-18108.23 -7230.97l3270.09 0c495.01,0 900.01,405 900.01,900l0 8923.12c0,54.99 -49.42,121.57 -100.01,100 -161.32,-68.79 -359.02,-209.69 -546.82,-206.38l-3699.56 11.9c-197.76,0.63 -397.3,140.26 -605.19,205.07 -52.49,16.36 -118.52,-42.36 -118.52,-110.59l0 -8923.12c0,-495 404.99,-900 900,-900z"/>
  <rect class="fil0 str1" x="-17312.63" y="-6910.58" width="1703.93" height="232.84" rx="50" ry="50"/>
  <path class="fil0 str2" d="M-1517.45 5530.3l-9137.99 0c-490.02,0 -890.94,-397 -890.94,-882.25l0 -3205.59c0,-485.25 400.92,-882.26 890.94,-882.26l8833.34 0c54.44,0 120.35,48.46 98.99,98.04 -68.08,158.14 -203,352.01 -199.73,536.11l0.17 3626.51c0.01,193.84 145.9,389.48 210.05,593.26 16.18,51.44 -41.94,116.18 -109.48,116.18l-53.65 0c0,0 -245.2,17.12 -294.81,90.99"/>
  <path class="fil0 str2" d="M-11275.98 3834.7c0,27.5 22.5,50 50,50l132.84 0c27.5,0 50,-22.5 50,-50l0 -1603.93c0,-27.5 -22.5,-50 -50,-50l-132.84 0c-27.5,0 -50,22.5 -50,50l0 1603.93c0,0 8.37,-215.31 49.38,-282.78"/>
  <g id="_1797388485088">
   <path class="fil0 str2" d="M818.86 5355.67l0 -4277.43c0,-232.41 190.15,-422.57 422.56,-422.57l1535.35 0c232.42,0 422.57,190.16 422.57,422.57l0 4189.53c0,25.81 -23.2,57.07 -46.95,46.95 -75.75,-32.3 -168.57,-98.46 -256.74,-96.9l-1737 5.59c-92.85,0.29 -186.54,65.85 -284.14,96.28 -24.65,7.68 -55.65,-19.89 -55.65,-51.92l0 -25.45c0,0 -4.69,-79.2 -31.4,-87.59"/>
   <path class="fil0 str2" d="M1638.44 806.1c-12.91,0 -23.47,10.56 -23.47,23.48l0 62.37c0,12.91 10.56,23.47 23.47,23.47l753.07 0c12.91,0 23.48,-10.56 23.48,-23.47l0 -62.37c0,-12.92 -10.57,-23.48 -23.48,-23.48l-753.07 0c0,0 101.09,3.93 132.77,23.18"/>
  </g>
 </g>
</svg>
