<?xml version="1.0" encoding="UTF-8"?>
<!DOCTYPE svg PUBLIC "-//W3C//DTD SVG 1.1//EN" "http://www.w3.org/Graphics/SVG/1.1/DTD/svg11.dtd">
<!-- Creator: CorelDRAW 2020 (64-Bit) -->
<svg xmlns="http://www.w3.org/2000/svg" xml:space="preserve" width="40mm" height="60mm" version="1.1" style="shape-rendering:geometricPrecision; text-rendering:geometricPrecision; image-rendering:optimizeQuality; fill-rule:evenodd; clip-rule:evenodd"
viewBox="0 0 4000 6000"
 xmlns:xlink="http://www.w3.org/1999/xlink"
 xmlns:xodm="http://www.corel.com/coreldraw/odm/2003">
 <defs>
  <style type="text/css">
   <![CDATA[
    .str0 {stroke:black;stroke-width:7.62;stroke-miterlimit:22.9256}
    .fil0 {fill:none}
   ]]>
  </style>
 </defs>
 <g id="图层_x0020_1">
  <metadata id="CorelCorpID_0Corel-Layer"/>
  <path class="fil0 str0" d="M1064.52 5345.95l1804.85 0c31.36,0 56.96,-25.6 56.92,-56.97l-5.41 -4587.46c-0.01,-12.69 -4.57,-23.6 -13.58,-32.54 -9,-8.93 -19.95,-13.31 -32.64,-13.31 -587.14,0.01 -1171.55,3.67 -1759.6,12.34 -18.08,0.26 -32.77,12.97 -32.86,31.05l-21.69 4608.15c-0.05,10.65 3.71,19.83 11.23,27.38 7.51,7.55 16.67,11.36 27.33,11.36l17.06 0c35.22,0 52.14,4.73 56.48,9.72"/>
 </g>
</svg>
