<?xml version="1.0" encoding="UTF-8"?>
<!DOCTYPE svg PUBLIC "-//W3C//DTD SVG 1.1//EN" "http://www.w3.org/Graphics/SVG/1.1/DTD/svg11.dtd">
<!-- Creator: CorelDRAW X8 -->
<svg xmlns="http://www.w3.org/2000/svg" xml:space="preserve" width="24.2758mm" height="47.1108mm" version="1.1" style="shape-rendering:geometricPrecision; text-rendering:geometricPrecision; image-rendering:optimizeQuality; fill-rule:evenodd; clip-rule:evenodd"
viewBox="0 0 2428 4711"
 xmlns:xlink="http://www.w3.org/1999/xlink">
 <defs>
  <style type="text/css">
   <![CDATA[
    .fil0 {fill:#222222;fill-rule:nonzero}
   ]]>
  </style>
 </defs>
 <g id="图层_x0020_1">
  <metadata id="CorelCorpID_0Corel-Layer"/>
  <g>
   <path class="fil0" d="M1115 802l-11 0 0 0 0 -6 0 -5 1 -5 1 -5 1 -5 1 -5 2 -5 2 -5 1 -4 3 -5 2 -4 3 -4 2 -5 3 -3 3 -4 4 -4 3 -3 4 -4 4 -3 4 -3 4 -2 4 -3 4 -2 5 -2 5 -2 4 -2 5 -1 5 -1 5 -1 5 -1 6 0 5 -1 0 12 -5 0 -4 0 -5 1 -5 0 -4 1 -4 2 -5 1 -4 2 -4 2 -4 2 -3 2 -4 2 -3 3 -4 3 -3 3 -3 3 -3 3 -3 3 -3 4 -2 4 -2 3 -2 4 -2 4 -2 4 -2 5 -1 4 -1 4 -1 5 -1 5 -1 4 0 5 0 5 0 0zm93 93l0 11 0 0 -5 0 -5 0 -6 -1 -5 -1 -5 -1 -5 -1 -5 -2 -4 -2 -5 -2 -4 -2 -5 -3 -4 -3 -4 -3 -4 -3 -4 -3 -4 -3 -3 -4 -3 -4 -3 -4 -3 -4 -3 -4 -3 -4 -2 -5 -2 -5 -2 -4 -1 -5 -2 -5 -1 -5 -1 -5 -1 -6 0 -5 0 -5 11 0 0 5 0 4 1 5 1 5 1 4 1 5 2 4 1 4 2 4 2 4 2 4 3 4 2 4 3 3 3 4 3 3 4 3 3 3 3 3 4 2 4 3 4 2 4 2 4 2 4 1 5 2 4 1 4 1 5 1 5 1 4 0 5 0 0 0zm94 -93l11 0 0 0 0 5 -1 5 -1 6 0 5 -2 5 -1 5 -2 5 -2 4 -2 5 -2 5 -2 4 -3 4 -3 4 -3 4 -3 4 -4 4 -4 3 -3 3 -4 3 -4 3 -5 3 -4 3 -4 2 -5 2 -5 2 -5 2 -5 1 -5 1 -5 1 -5 1 -5 0 -6 0 0 -11 5 0 5 0 4 -1 5 -1 5 -1 4 -1 4 -2 5 -1 4 -2 4 -2 4 -2 3 -3 4 -2 4 -3 3 -3 3 -3 3 -3 3 -4 3 -3 3 -4 2 -4 2 -4 2 -4 2 -4 2 -4 1 -4 2 -5 1 -4 0 -5 1 -5 0 -4 1 -5 0 0zm-94 -93l0 -12 0 0 6 1 5 0 5 1 5 1 5 1 5 1 5 2 5 2 5 2 4 2 4 3 5 2 4 3 4 3 3 4 4 3 4 4 3 3 3 4 3 4 3 5 2 4 2 5 2 4 2 5 2 5 1 5 2 5 0 5 1 5 1 5 0 6 -11 0 -1 -5 0 -5 -1 -4 0 -5 -1 -5 -2 -4 -1 -4 -2 -4 -2 -5 -2 -4 -2 -4 -2 -3 -3 -4 -3 -4 -3 -3 -3 -3 -3 -3 -3 -3 -4 -3 -4 -3 -3 -2 -4 -2 -4 -2 -4 -2 -5 -2 -4 -1 -4 -2 -5 -1 -5 0 -4 -1 -5 0 -5 0 0 0zm-3 0l0 -12 0 0 0 0 0 0 0 0 0 0 1 0 0 0 0 0 0 0 0 0 0 0 0 0 0 0 1 0 0 0 0 0 0 0 0 0 0 0 0 0 0 0 1 0 0 0 0 0 0 0 0 0 0 0 0 0 0 0 0 0 0 0 0 0 0 0 0 12 0 0 0 0 0 0 0 0 0 0 0 0 0 0 0 0 0 0 0 0 0 0 -1 0 0 0 0 0 0 0 0 0 0 0 0 0 0 0 -1 0 0 0 0 0 0 0 0 0 0 0 0 0 0 0 -1 0 0 0 0 0 0 0 0 0 0 0zm0 0l0 0 0 0 0 0zm-16 33l-3 10 -3 0 -2 -2 -2 -1 -2 -2 -1 -2 -1 -2 -1 -2 -1 -2 0 -2 -1 -2 0 -3 0 -2 1 -2 0 -3 1 -2 0 -2 1 -2 1 -3 1 -2 2 -2 1 -2 2 -2 2 -2 1 -1 2 -2 3 -1 2 -2 2 -1 3 0 3 -1 2 0 3 -1 0 12 -2 0 -1 0 -2 0 -2 1 -1 0 -2 1 -1 1 -1 1 -2 1 -1 2 -1 1 -1 1 -1 2 -1 1 -1 2 0 2 -1 1 0 2 0 1 -1 2 0 1 0 2 1 1 0 1 0 1 1 1 0 1 1 1 0 0 1 1 1 1 1 0zm-81 -408l0 -11 0 0 10 0 9 1 9 1 8 1 8 1 7 1 7 2 7 2 5 3 6 2 5 3 4 3 4 4 4 3 3 4 2 4 2 4 2 5 1 4 1 5 0 5 -1 4 -1 5 -1 5 -2 5 -2 5 -3 4 -3 5 -3 5 -4 5 -5 4 -4 5 -8 -8 4 -4 4 -5 4 -4 3 -4 3 -4 2 -5 2 -4 1 -4 1 -3 1 -4 0 -4 0 -3 0 -4 -1 -3 -1 -3 -1 -3 -2 -3 -2 -3 -3 -3 -3 -3 -4 -2 -4 -3 -5 -2 -5 -2 -6 -2 -6 -2 -7 -1 -7 -1 -8 -1 -8 -1 -9 -1 -10 0 0 0zm0 0l0 0 0 0 0 0zm-3 0l0 -11 0 0 0 0 0 0 0 0 0 0 0 0 0 0 1 0 0 0 0 0 0 0 0 0 0 0 0 0 0 0 1 0 0 0 0 0 0 0 0 0 0 0 0 0 1 0 0 0 0 0 0 0 0 0 0 0 0 0 0 0 0 0 0 0 0 0 0 11 0 0 0 0 0 0 0 0 0 0 0 0 0 0 0 0 0 0 0 0 -1 0 0 0 0 0 0 0 0 0 0 0 0 0 -1 0 0 0 0 0 0 0 0 0 0 0 0 0 0 0 -1 0 0 0 0 0 0 0 0 0 0 0 0 0 0 0zm-56 56l-11 0 0 0 0 -3 1 -4 0 -3 1 -3 0 -3 1 -4 1 -3 2 -3 1 -3 1 -3 2 -2 2 -3 2 -3 2 -2 2 -3 2 -2 2 -2 3 -2 2 -2 3 -2 3 -2 2 -2 3 -1 3 -1 3 -2 3 -1 3 -1 4 0 3 -1 3 0 4 -1 3 0 0 11 -3 0 -2 1 -3 0 -3 1 -3 0 -2 1 -3 1 -3 1 -2 1 -2 1 -3 1 -2 2 -2 1 -2 2 -2 2 -2 2 -2 2 -2 2 -2 2 -1 2 -2 2 -1 3 -1 2 -1 3 -1 2 -1 3 -1 2 0 3 -1 3 0 3 -1 2 0 3 0 0zm-11 203l0 -203 11 0 0 203 0 0 -11 0zm67 56l0 11 0 0 -3 0 -4 0 -3 0 -3 -1 -3 -1 -4 -1 -3 -1 -3 -1 -3 -1 -3 -2 -2 -1 -3 -2 -3 -2 -2 -2 -3 -2 -2 -2 -2 -2 -2 -3 -2 -2 -2 -3 -2 -3 -2 -3 -1 -2 -1 -3 -2 -3 -1 -4 -1 -3 0 -3 -1 -3 0 -4 -1 -3 0 -4 11 0 0 3 1 3 0 3 1 3 0 2 1 3 1 3 1 2 1 3 1 2 1 2 2 3 1 2 2 2 2 2 2 2 2 2 2 2 2 1 2 2 2 1 3 2 2 1 3 1 2 1 3 1 2 1 3 0 3 1 3 0 2 0 3 0 0 0zm213 11l-213 0 0 -11 213 0 0 0 0 11zm56 -67l11 0 0 0 0 4 -1 3 0 4 -1 3 0 3 -1 3 -1 4 -2 3 -1 3 -1 2 -2 3 -2 3 -2 3 -2 2 -2 3 -2 2 -2 2 -3 2 -2 2 -3 2 -3 2 -2 1 -3 2 -3 1 -3 1 -3 1 -4 1 -3 1 -3 1 -3 0 -4 0 -3 0 0 -11 3 0 2 0 3 0 3 -1 3 0 2 -1 3 -1 2 -1 3 -1 2 -1 3 -2 2 -1 2 -2 2 -1 2 -2 2 -2 2 -2 2 -2 2 -2 1 -2 2 -3 1 -2 1 -2 1 -3 1 -2 1 -3 1 -3 0 -2 1 -3 0 -3 1 -3 0 -3 0 0zm11 -203l0 203 -11 0 0 -203 0 0 11 0zm-67 -56l0 -11 0 0 3 0 4 1 3 0 3 1 4 0 3 1 3 1 3 2 3 1 3 1 3 2 2 2 3 2 3 2 2 2 2 2 2 2 3 3 2 2 1 3 2 3 2 2 1 3 1 3 2 3 1 3 1 4 0 3 1 3 0 3 1 4 0 3 -11 0 0 -3 -1 -2 0 -3 -1 -3 0 -3 -1 -2 -1 -3 -1 -2 -1 -3 -1 -2 -1 -3 -2 -2 -1 -2 -2 -2 -2 -2 -2 -2 -2 -2 -2 -2 -2 -2 -2 -1 -2 -2 -2 -1 -3 -1 -2 -1 -3 -1 -2 -1 -3 -1 -3 0 -2 -1 -3 0 -3 -1 -3 0 0 0zm-212 -11l212 0 0 11 -212 0 0 -11zm298 55l0 456 -11 0 0 -456 0 0 11 0zm-90 -79l0 -11 0 0 5 0 5 1 4 0 5 1 4 1 4 1 4 2 4 1 4 2 4 2 4 2 4 3 3 2 3 3 4 2 3 3 3 4 3 3 2 3 3 4 2 3 2 4 2 4 2 4 2 4 1 4 1 4 1 5 1 4 1 5 0 4 0 5 -11 0 0 -4 0 -4 -1 -4 -1 -4 0 -4 -2 -4 -1 -3 -1 -4 -2 -3 -1 -4 -2 -3 -2 -3 -3 -3 -2 -3 -2 -3 -3 -3 -3 -2 -3 -3 -3 -2 -3 -2 -3 -2 -3 -2 -3 -2 -4 -2 -4 -1 -3 -1 -4 -1 -4 -1 -4 -1 -3 0 -4 -1 -5 0 0 0zm-211 -11l211 0 0 11 -211 0 0 0 0 -11zm-79 90l-11 0 0 0 0 -5 1 -4 0 -5 1 -4 1 -5 1 -4 2 -4 1 -4 2 -4 2 -4 2 -4 3 -3 2 -4 3 -3 3 -3 3 -4 3 -3 3 -2 3 -3 4 -2 3 -3 4 -2 4 -2 4 -2 4 -1 4 -2 5 -1 4 -1 4 -1 5 0 4 -1 5 0 0 11 -4 0 -4 1 -4 0 -4 1 -4 1 -3 1 -4 1 -4 1 -3 2 -3 2 -4 2 -3 2 -3 2 -3 2 -3 3 -3 2 -2 3 -3 3 -2 3 -2 3 -2 3 -2 3 -2 4 -1 3 -2 4 -1 3 -1 4 -1 4 -1 4 0 4 0 4 -1 4 0 0zm-11 456l0 -456 11 0 0 456 0 0 -11 0zm90 79l0 11 0 0 -5 0 -4 -1 -5 0 -4 -1 -4 -1 -5 -1 -4 -2 -4 -1 -4 -2 -4 -2 -4 -2 -3 -3 -4 -2 -3 -3 -3 -3 -3 -3 -3 -3 -3 -3 -3 -3 -2 -4 -3 -3 -2 -4 -2 -4 -2 -4 -1 -4 -2 -4 -1 -4 -1 -5 -1 -4 0 -5 -1 -4 0 -5 11 0 1 4 0 4 0 4 1 4 1 4 1 3 1 4 2 4 1 3 2 4 2 3 2 3 2 3 2 3 3 3 2 3 3 2 3 3 3 2 3 2 3 2 4 2 3 2 3 1 4 2 4 1 3 1 4 1 4 1 4 0 4 1 4 0 0 0zm211 11l-211 0 0 -11 211 0 0 0 0 11zm79 -90l11 0 0 0 0 5 0 4 -1 5 -1 4 -1 5 -1 4 -1 4 -2 4 -2 4 -2 4 -2 4 -2 3 -3 4 -2 3 -3 3 -3 3 -3 3 -4 3 -3 3 -3 2 -4 3 -4 2 -4 2 -4 2 -4 1 -4 2 -4 1 -4 1 -5 1 -4 0 -5 1 -5 0 0 -11 5 0 4 -1 3 0 4 -1 4 -1 4 -1 3 -1 4 -2 4 -1 3 -2 3 -2 3 -2 3 -2 3 -2 3 -3 3 -2 3 -3 2 -3 2 -3 3 -3 2 -3 2 -3 1 -4 2 -3 1 -4 1 -4 2 -3 0 -4 1 -4 1 -4 0 -4 0 -4 0 0zm48 -474l0 490 -11 0 0 -490 0 0 11 0zm-102 -90l0 -11 0 0 6 0 5 0 5 1 5 1 5 1 5 1 4 2 5 2 4 2 5 2 4 2 4 3 4 3 4 3 4 3 3 3 4 4 3 4 3 3 3 4 2 5 3 4 2 4 2 5 2 4 1 5 2 5 1 5 1 5 1 5 0 5 0 5 -11 0 0 -4 -1 -5 0 -5 -1 -4 -1 -4 -1 -5 -2 -4 -1 -4 -2 -4 -2 -4 -2 -4 -3 -3 -2 -4 -3 -3 -3 -4 -3 -3 -3 -3 -3 -3 -3 -2 -4 -3 -4 -2 -3 -2 -4 -2 -4 -2 -4 -2 -5 -1 -4 -1 -4 -1 -5 -1 -4 -1 -5 0 -5 0 0 0zm-249 -11l249 0 0 11 -249 0 0 0 0 -11zm-91 101l-11 0 0 0 1 -5 0 -5 1 -5 0 -5 2 -5 1 -5 2 -5 1 -4 2 -5 3 -4 2 -4 3 -5 3 -4 3 -3 3 -4 3 -4 4 -3 3 -3 4 -3 4 -3 4 -3 5 -2 4 -2 4 -2 5 -2 5 -2 5 -1 5 -1 5 -1 5 -1 5 0 5 0 0 11 -5 0 -4 0 -5 1 -4 1 -5 1 -4 1 -4 1 -4 2 -4 2 -4 2 -4 2 -4 2 -3 3 -4 2 -3 3 -3 3 -3 3 -3 4 -3 3 -2 4 -2 3 -3 4 -2 4 -1 4 -2 4 -1 4 -2 5 -1 4 0 4 -1 5 0 5 -1 4 0 0zm-11 490l0 -490 11 0 0 490 0 0 -11 0zm102 90l0 11 0 0 -5 0 -5 0 -5 -1 -5 -1 -5 -1 -5 -1 -5 -2 -5 -2 -4 -2 -4 -2 -5 -2 -4 -3 -4 -3 -4 -3 -3 -3 -4 -3 -3 -4 -3 -4 -3 -3 -3 -4 -3 -4 -2 -5 -3 -4 -2 -5 -1 -4 -2 -5 -1 -5 -2 -5 0 -5 -1 -5 0 -5 -1 -5 11 0 1 4 0 5 1 5 0 4 1 4 2 5 1 4 2 4 1 4 2 4 3 4 2 3 2 4 3 3 3 4 3 3 3 3 3 3 4 2 3 3 4 2 4 2 4 2 4 2 4 2 4 1 4 2 5 1 4 0 5 1 4 0 5 0 0 0zm249 11l-249 0 0 -11 249 0 0 0 0 11zm91 -101l11 0 0 0 0 5 0 5 -1 5 -1 5 -1 5 -2 5 -1 5 -2 4 -2 5 -2 4 -3 5 -2 4 -3 4 -3 3 -3 4 -4 4 -3 3 -4 3 -4 3 -4 3 -4 3 -4 2 -5 2 -4 2 -5 2 -4 2 -5 1 -5 1 -5 1 -5 1 -5 0 -6 0 0 -11 5 0 5 0 4 -1 5 0 4 -1 4 -2 5 -1 4 -2 4 -2 4 -2 3 -2 4 -2 4 -3 3 -2 3 -3 3 -3 3 -3 3 -4 3 -3 2 -4 3 -3 2 -4 2 -4 2 -4 1 -4 2 -4 1 -5 1 -4 1 -4 0 -5 1 -5 0 -4 0 0zm-1043 3850l1753 0 0 11 -1753 0 0 0 0 -11zm-27 -16l11 0 0 0 0 1 0 1 1 1 0 0 0 1 0 1 0 1 1 0 0 1 0 1 1 0 0 1 0 1 1 0 0 1 1 0 1 1 0 0 1 1 0 0 1 1 1 0 0 0 1 1 1 0 0 0 1 1 1 0 1 0 1 0 0 0 1 0 0 11 -1 0 -2 0 -1 0 -1 0 -2 -1 -1 0 -1 -1 -1 0 -2 -1 -1 0 -1 -1 -1 -1 -1 0 -1 -1 -1 -1 -1 -1 -1 -1 -1 -1 0 -1 -1 -1 -1 -1 0 -1 -1 -1 -1 -1 0 -2 -1 -1 0 -1 0 -1 0 -2 -1 -1 0 -1 0 -2 0 0zm11 -53l0 53 -11 0 0 -53 0 0 11 0zm-114 -97l-1 -11 0 0 6 0 6 0 5 0 6 1 6 1 5 1 5 2 6 1 5 2 5 3 5 2 4 3 5 3 4 3 4 3 4 4 4 4 4 4 3 4 3 4 3 5 3 4 3 5 2 5 2 5 2 5 2 6 1 5 1 6 1 5 0 6 0 6 -11 0 0 -5 0 -6 -1 -5 -1 -5 -1 -4 -1 -5 -2 -5 -2 -4 -2 -5 -2 -4 -3 -4 -3 -4 -2 -4 -4 -4 -3 -4 -3 -3 -4 -3 -4 -3 -4 -3 -4 -3 -4 -2 -4 -2 -5 -2 -4 -2 -5 -2 -5 -1 -5 -1 -5 -1 -5 -1 -5 0 -5 0 -5 0 0 0zm-91 100l-11 0 0 0 0 -5 1 -5 0 -6 1 -5 1 -5 2 -5 1 -5 2 -5 2 -5 2 -4 2 -5 3 -4 3 -5 3 -4 3 -4 3 -4 3 -3 4 -4 4 -3 4 -3 4 -3 4 -3 4 -3 5 -2 5 -2 4 -2 5 -2 5 -2 5 -1 5 -1 6 -1 5 0 1 11 -5 0 -5 1 -4 1 -5 1 -4 1 -5 2 -4 2 -4 2 -4 2 -4 2 -4 3 -3 2 -4 3 -3 3 -4 4 -3 3 -3 3 -2 4 -3 4 -3 4 -2 4 -2 4 -2 4 -2 4 -1 5 -2 4 -1 5 -1 4 -1 5 0 5 -1 4 0 5 0 0zm-11 4l0 -4 11 0 0 4 0 0 -11 0zm-31 22l7 -9 0 0 1 1 1 0 1 1 1 0 1 0 1 0 1 1 1 0 1 0 1 0 1 -1 1 0 1 0 1 0 1 -1 1 0 1 -1 1 0 0 -1 1 -1 1 -1 1 0 0 -1 1 -1 0 -1 1 -1 0 -1 1 -1 0 -1 0 -1 0 -1 0 -1 11 0 0 2 0 1 0 2 -1 2 0 2 -1 2 -1 1 -1 2 -1 1 -1 2 -1 1 -1 1 -2 1 -1 2 -1 1 -2 0 -1 1 -2 1 -2 0 -1 1 -2 0 -2 1 -2 0 -1 0 -2 0 -2 -1 -2 0 -2 -1 -1 0 -2 -1 -2 -1 -2 -1 0 0zm-124 -237l11 0 0 0 0 9 1 8 0 9 1 9 1 8 2 9 2 8 2 8 2 9 2 8 3 8 3 7 3 8 3 8 4 7 4 8 4 7 4 7 5 7 4 7 5 6 5 7 5 6 6 6 5 6 6 6 6 6 6 6 6 5 7 5 6 5 7 5 -7 9 -6 -5 -7 -5 -7 -6 -6 -5 -7 -6 -6 -6 -6 -6 -6 -6 -5 -7 -6 -6 -5 -7 -5 -7 -5 -7 -4 -7 -5 -8 -4 -7 -4 -8 -4 -8 -3 -8 -3 -8 -3 -8 -3 -8 -3 -8 -2 -9 -2 -8 -2 -9 -1 -9 -2 -9 -1 -9 0 -9 -1 -9 0 -9 0 0zm11 -4135l0 4135 -11 0 0 -4135 0 0 11 0zm277 -288l0 11 0 0 -14 0 -14 2 -14 1 -14 3 -13 3 -13 4 -13 4 -13 5 -12 5 -12 7 -11 6 -12 7 -11 8 -10 8 -10 9 -10 9 -9 10 -9 10 -8 10 -8 11 -7 12 -6 11 -7 12 -5 12 -5 13 -4 13 -4 13 -3 13 -3 14 -1 14 -2 14 0 14 -11 0 0 -15 1 -14 2 -15 3 -14 3 -14 4 -13 4 -14 6 -13 5 -13 7 -12 7 -12 7 -12 8 -11 9 -11 9 -11 9 -10 10 -9 11 -9 11 -9 11 -8 12 -7 12 -7 12 -7 13 -5 13 -6 13 -4 14 -4 14 -3 14 -3 15 -2 14 -1 15 0 0 0zm1331 11l-1331 0 0 -11 1331 0 0 0 0 11zm71 19l-8 8 0 0 -1 -2 -2 -2 -2 -1 -1 -2 -2 -1 -2 -1 -1 -2 -2 -1 -2 -1 -2 -1 -2 -1 -1 -2 -2 -1 -2 -1 -2 0 -2 -1 -2 -1 -2 -1 -3 -1 -2 0 -2 -1 -2 0 -2 -1 -2 0 -2 -1 -3 0 -2 0 -2 0 -2 -1 -3 0 -2 0 -2 0 0 -11 3 0 2 0 3 0 2 0 2 1 3 0 2 0 3 1 2 0 3 1 2 1 3 0 2 1 2 1 3 1 2 0 2 1 2 1 3 2 2 1 2 1 2 1 2 1 2 2 2 1 2 2 2 1 2 2 2 2 2 1 2 2 1 2 0 0zm48 22l0 11 0 0 -2 0 -2 0 -2 0 -2 -1 -2 0 -2 0 -2 -1 -2 0 -2 0 -2 -1 -2 0 -2 -1 -1 -1 -2 0 -2 -1 -2 -1 -2 -1 -2 -1 -1 -1 -2 -1 -2 -1 -1 -1 -2 -1 -1 -1 -2 -1 -2 -1 -1 -2 -1 -1 -2 -1 -1 -2 -2 -1 -1 -1 8 -8 1 1 2 2 1 1 1 1 1 1 2 1 1 1 1 1 2 1 1 1 1 1 2 1 1 1 2 0 1 1 2 1 1 1 2 0 1 1 2 0 2 1 1 0 2 1 2 0 1 1 2 0 2 0 1 0 2 1 2 0 2 0 1 0 0 0zm89 11l-89 0 0 -11 89 0 0 0 0 11zm48 -33l9 8 0 0 -2 1 -1 1 -1 2 -2 1 -1 1 -2 2 -1 1 -2 1 -1 1 -2 1 -2 1 -1 1 -2 1 -2 1 -2 1 -1 1 -2 1 -2 1 -2 0 -2 1 -2 1 -2 0 -2 1 -1 0 -2 0 -3 1 -2 0 -2 0 -2 1 -2 0 -2 0 -2 0 0 -11 2 0 2 0 1 0 2 -1 2 0 2 0 1 0 2 -1 2 0 1 -1 2 0 2 -1 1 0 2 -1 1 0 2 -1 2 -1 1 -1 1 0 2 -1 1 -1 2 -1 1 -1 2 -1 1 -1 1 -1 1 -1 2 -1 1 -1 1 -1 1 -2 1 -1 0 0zm72 -30l0 11 0 0 -3 0 -2 0 -2 0 -2 1 -3 0 -2 0 -2 0 -2 1 -2 0 -2 1 -3 0 -2 1 -2 0 -2 1 -2 1 -2 1 -2 1 -2 0 -2 1 -2 1 -2 2 -2 1 -2 1 -1 1 -2 1 -2 2 -2 1 -1 1 -2 2 -1 1 -2 2 -1 2 -9 -8 2 -2 2 -2 2 -1 1 -2 2 -2 2 -1 2 -2 2 -1 2 -2 3 -1 2 -1 2 -1 2 -1 2 -2 2 -1 3 -1 2 0 2 -1 3 -1 2 -1 3 0 2 -1 2 -1 3 0 2 -1 3 0 2 0 3 -1 2 0 3 0 2 0 3 0 0 0zm192 11l-192 0 0 -11 192 0 0 0 0 11zm289 277l-11 0 0 0 -1 -14 -1 -14 -2 -14 -2 -14 -3 -13 -4 -13 -4 -13 -5 -13 -6 -12 -6 -12 -7 -11 -7 -12 -8 -11 -8 -10 -8 -10 -10 -10 -9 -9 -10 -9 -11 -8 -11 -8 -11 -7 -12 -6 -11 -7 -13 -5 -12 -5 -13 -4 -13 -4 -14 -3 -13 -3 -14 -1 -14 -2 -15 0 0 -11 15 0 15 1 14 2 14 3 14 3 14 4 13 4 14 6 12 5 13 7 12 7 12 7 11 8 11 9 10 9 10 9 10 10 9 11 8 11 8 11 8 12 7 12 6 12 6 13 5 13 5 14 4 13 3 14 2 14 2 15 1 14 1 15 0 0zm-11 4135l0 -4135 11 0 0 4135 0 0 -11 0zm-277 288l0 -11 0 0 14 0 14 -1 14 -2 13 -3 14 -3 13 -3 13 -5 12 -5 13 -5 12 -6 11 -7 11 -7 11 -8 11 -8 10 -9 9 -9 10 -10 8 -10 8 -10 8 -11 7 -11 7 -12 6 -12 6 -12 5 -13 4 -13 4 -13 3 -13 2 -14 2 -14 1 -14 1 -14 11 0 -1 15 -1 14 -2 15 -2 14 -3 14 -4 14 -5 13 -5 13 -6 13 -6 12 -7 12 -8 12 -8 11 -8 11 -9 11 -10 10 -10 9 -10 9 -11 9 -11 8 -12 7 -12 7 -13 7 -12 5 -13 6 -14 4 -13 4 -14 3 -15 3 -14 2 -15 1 -14 0 0 0z"/>
  </g>
 </g>
</svg>
