<?xml version="1.0" encoding="UTF-8"?>
<!DOCTYPE svg PUBLIC "-//W3C//DTD SVG 1.1//EN" "http://www.w3.org/Graphics/SVG/1.1/DTD/svg11.dtd">
<!-- Creator: CorelDRAW -->
<svg xmlns="http://www.w3.org/2000/svg" xml:space="preserve" width="40mm" height="60mm" style="shape-rendering:geometricPrecision; text-rendering:geometricPrecision; image-rendering:optimizeQuality; fill-rule:evenodd; clip-rule:evenodd"
viewBox="0 0 40 60"
 xmlns:xlink="http://www.w3.org/1999/xlink">
 <defs>
  <style type="text/css">
   <![CDATA[
    .str0 {stroke:#1F1A17;stroke-width:0.194}
    .str1 {stroke:#1F1A17;stroke-width:0.2}
    .fil1 {fill:none}
    .fil0 {fill:none;fill-rule:nonzero}
   ]]>
  </style>
 </defs>
 <g id="图层_x0020_2">
  <metadata id="CorelCorpID_0Corel-Layer"/>
  <g id="_203562112">
   <line id="_203562568" class="fil0 str0" x1="19.8823" y1="50.0855" x2="18.8438" y2= "50.0876" />
   <path id="_142597704" class="fil0 str0" d="M18.8438 50.0876c-0.6533,-0.0023 -0.773,0.0096 -0.9895,0.0994 -0.4691,0.195 -0.7753,0.6604 -0.7753,1.1749 0,0.7514 0.5396,1.2563 1.3651,1.2778 0.3015,0.0084 0.8591,0.0132 1.4729,0.0132 1.3436,0 1.7002,-0.0107 1.9873,-0.0574 0.1615,-0.0263 0.2764,-0.0658 0.3733,-0.128 0.0766,-0.0503 0.1388,-0.1077 0.2632,-0.2453 0.2142,-0.2357 0.3339,-0.5444 0.3339,-0.8603 0,-0.6006 -0.4236,-1.1259 -1.0039,-1.2443"/>
   <line id="_203563576" class="fil0 str0" x1="21.8708" y1="50.1176" x2="21.8433" y2= "50.1128" />
   <path id="_203566744" class="fil0 str0" d="M21.8433 50.1128c-0.1172,-0.0239 -0.1172,-0.0239 -1.279,-0.0239"/>
   <line id="_203563480" class="fil0 str0" x1="20.5643" y1="50.0889" x2="20.3035" y2= "50.0889" />
   <path id="_203562856" class="fil0 str0" d="M20.3035 50.0889c-0.0814,0 -0.1688,-0.0013 -0.2645,-0.0013"/>
   <line id="_203242616" class="fil0 str0" x1="20.039" y1="50.0876" x2="19.6789" y2= "50.0829" />
   <line id="_142019672" class="fil0 str0" x1="31.1899" y1="9.1244" x2="31.2153" y2= "35.4404" />
   <path id="_142019072" class="fil0 str0" d="M31.2153 35.4404c0.0036,3.4111 -0.0036,6.8211 -0.0192,10.231"/>
   <line id="_47593336" class="fil0 str0" x1="31.1961" y1="45.6714" x2="31.171" y2= "50.8379" />
   <path id="_47593192" class="fil0 str0" d="M31.171 50.8379c-0.0012,0.3565 -0.0072,0.4331 -0.0419,0.5814 -0.201,0.8639 -0.804,1.5483 -1.608,1.8247 -0.3123,0.1076 -1.0912,0.2237 -1.6332,0.2429"/>
   <line id="_47592016" class="fil0 str0" x1="27.8879" y1="53.4869" x2="12.6412" y2= "53.5" />
   <path id="_47593000" class="fil0 str0" d="M12.6412 53.5c-0.5312,0 -0.6927,-0.0096 -1.2275,-0.0742 -0.9106,-0.1112 -1.2408,-0.2249 -1.7003,-0.5874 -0.408,-0.3207 -0.792,-0.9429 -0.8973,-1.4537 -0.0299,-0.1424 -0.0323,-0.4966 -0.0323,-3.3945"/>
   <line id="_47593360" class="fil0 str0" x1="8.7838" y1="47.9902" x2="8.791" y2= "8.9157" />
   <path id="_47593144" class="fil0 str0" d="M8.791 8.9157c0.0323,-1.1151 0.9344,-2.0867 2.1237,-2.2865 0.5552,-0.0933 1.0708,-0.1292 1.8462,-0.1292"/>
   <line id="_47593504" class="fil0 str0" x1="12.7609" y1="6.5" x2="27.8879" y2= "6.5108" />
   <path id="_47593240" class="fil0 str0" d="M27.8879 6.5108c1.3592,0.0335 2.1476,0.3147 2.698,0.962 0.3889,0.4546 0.5241,0.8327 0.6078,1.6906"/>
   <circle id="_203562736" class="fil1 str1" cx="13.5348" cy="8.10044" r="0.596377"/>
   <rect id="_203242712" class="fil1 str1" x="17.659" y="7.72621" width="4.77105" height="0.786714" rx="1.1598" ry="1.1598"/>
  </g>
 </g>
</svg>
