<?xml version="1.0" encoding="UTF-8"?>
<!DOCTYPE svg PUBLIC "-//W3C//DTD SVG 1.1//EN" "http://www.w3.org/Graphics/SVG/1.1/DTD/svg11.dtd">
<!-- Creator: CorelDRAW X8 -->
<svg xmlns="http://www.w3.org/2000/svg" xml:space="preserve" width="40mm" height="60mm" version="1.1" style="shape-rendering:geometricPrecision; text-rendering:geometricPrecision; image-rendering:optimizeQuality; fill-rule:evenodd; clip-rule:evenodd"
viewBox="0 0 4000 6000"
 xmlns:xlink="http://www.w3.org/1999/xlink">
 <defs>
  <style type="text/css">
   <![CDATA[
    .str0 {stroke:black;stroke-width:7.62}
    .fil0 {fill:none}
   ]]>
  </style>
 </defs>
 <g id="图层_x0020_1">
  <metadata id="CorelCorpID_0Corel-Layer"/>
  <path class="fil0 str0" d="M969 5350l1867 0c143,0 260,-117 260,-261l0 -4178c0,-144 -111,-261 -260,-261l-544 0c-19,0 -69,0 -148,0 -22,0 -38,16 -38,46l0 34c0,54 -44,98 -98,98l0 0c-53,0 -98,-44 -98,-98l0 -37c0,-30 -17,-43 -38,-43 -80,0 -142,0 -143,0l-565 0c-143,0 -260,117 -260,261l0 4178c0,144 117,261 260,261l211 0"/>
 </g>
</svg>
