<?xml version="1.0" encoding="UTF-8"?>
<!DOCTYPE svg PUBLIC "-//W3C//DTD SVG 1.1//EN" "http://www.w3.org/Graphics/SVG/1.1/DTD/svg11.dtd">
<!-- Creator: CorelDRAW X8 -->
<svg xmlns="http://www.w3.org/2000/svg" xml:space="preserve" width="40mm" height="60mm" version="1.1" style="shape-rendering:geometricPrecision; text-rendering:geometricPrecision; image-rendering:optimizeQuality; fill-rule:evenodd; clip-rule:evenodd"
viewBox="0 0 4000 6000"
 xmlns:xlink="http://www.w3.org/1999/xlink">
 <defs>
  <style type="text/css">
   <![CDATA[
    .str0 {stroke:black;stroke-width:7.62}
    .fil0 {fill:none}
   ]]>
  </style>
 </defs>
 <g id="图层_x0020_1">
  <metadata id="CorelCorpID_0Corel-Layer"/>
  <path class="fil0 str0" d="M2382 1280l57 0c26,0 46,20 46,45l0 304c0,26 -20,46 -46,46l-57 0c-25,0 -45,-20 -45,-46l0 -304c0,-25 20,-45 45,-45zm-456 -165l168 0c73,0 134,60 134,134l0 855c0,73 -61,134 -134,134l-168 0c-74,0 -135,-61 -135,-134l0 -855c0,-74 61,-134 135,-134zm-1084 4235l2034 0c143,0 261,-147 261,-290l0 -133 85 0c12,0 22,-9 22,-21l0 -2284c0,-14 -2,-16 -14,-16l-38 0c-17,0 -31,-13 -31,-30l0 -336c0,-17 14,-30 31,-30l35 0c15,0 17,-5 17,-20l0 -166c0,-9 -3,-11 -12,-11l-40 0c-17,0 -31,-14 -31,-31l0 -628c0,-17 14,-31 31,-31l37 0c12,0 15,-4 15,-17l0 -212c0,-12 -10,-21 -22,-21l-85 0 0 -132c0,-143 -118,-291 -261,-291l-1752 0c-143,0 -261,148 -261,291l0 132 -85 0c-12,0 -22,9 -22,21l0 735c0,27 3,30 20,30l38 0c17,0 31,13 31,30l0 366c0,17 -14,31 -31,31l-45 0c-10,0 -13,2 -13,14l0 2606c0,12 10,21 22,21l85 0 0 133c0,143 118,290 261,290l135 0"/>
 </g>
</svg>
