<?xml version="1.0" encoding="UTF-8"?>
<!DOCTYPE svg PUBLIC "-//W3C//DTD SVG 1.1//EN" "http://www.w3.org/Graphics/SVG/1.1/DTD/svg11.dtd">
<!-- Creator: CorelDRAW X8 -->
<svg xmlns="http://www.w3.org/2000/svg" xml:space="preserve" width="40mm" height="60mm" version="1.1" style="shape-rendering:geometricPrecision; text-rendering:geometricPrecision; image-rendering:optimizeQuality; fill-rule:evenodd; clip-rule:evenodd"
viewBox="0 0 4000 6000"
 xmlns:xlink="http://www.w3.org/1999/xlink">
 <defs>
  <style type="text/css">
   <![CDATA[
    .str0 {stroke:black;stroke-width:20}
    .fil0 {fill:none}
   ]]>
  </style>
 </defs>
 <g id="图层_x0020_1">
  <metadata id="CorelCorpID_0Corel-Layer"/>
  <path class="fil0 str0" d="M804 5350c-22,-18 -59,-39 -88,-39l-36 0c-143,0 -260,-117 -260,-260l0 -4141c0,-143 117,-260 260,-260l2640 0c143,0 260,117 260,260l0 4141c0,143 -117,260 -260,260l-2788 0m-5 -2503l0 -45c0,-16 14,-30 31,-30l51 0c17,0 31,14 31,30l0 45c0,17 -14,30 -31,30l-51 0c-17,0 -31,-13 -31,-30zm-35 197l0 -68c0,-32 26,-58 58,-58l65 0c32,0 58,26 58,58l0 68c0,32 -26,59 -58,59l-65 0c-32,0 -58,-27 -58,-59z"/>
 </g>
</svg>
