<?xml version="1.0" encoding="UTF-8"?>
<!DOCTYPE svg PUBLIC "-//W3C//DTD SVG 1.1//EN" "http://www.w3.org/Graphics/SVG/1.1/DTD/svg11.dtd">
<!-- Creator: CorelDRAW -->
<svg xmlns="http://www.w3.org/2000/svg" xml:space="preserve" width="40mm" height="60mm" style="shape-rendering:geometricPrecision; text-rendering:geometricPrecision; image-rendering:optimizeQuality; fill-rule:evenodd; clip-rule:evenodd"
viewBox="0 0 40 60"
 xmlns:xlink="http://www.w3.org/1999/xlink">
 <defs>
  <style type="text/css">
   <![CDATA[
    .str0 {stroke:#1F1A17;stroke-width:0.0762}
    .fil0 {fill:none}
   ]]>
  </style>
 </defs>
 <g id="图层_x0020_1">
  <metadata id="CorelCorpID_0Corel-Layer"/>
  <g id="_165872736">
   <path id="_165863040" class="fil0 str0" d="M18.6048 8.9751c1.1046,0 2.0005,0.8958 2.0005,2.0005 0,1.1047 -0.8959,2.0005 -2.0005,2.0005 -1.1047,0 -2.0005,-0.8958 -2.0005,-2.0005 0,-1.1047 0.8958,-2.0005 2.0005,-2.0005z"/>
   <path id="_165873384" class="fil0 str0" d="M15.2354 10.2229c0.3979,0 0.7206,0.3227 0.7206,0.7206 0,0.3979 -0.3227,0.7206 -0.7206,0.7206 -0.398,0 -0.7207,-0.3227 -0.7207,-0.7206 0,-0.3979 0.3227,-0.7206 0.7207,-0.7206z"/>
   <path id="_165872496" class="fil0 str0" d="M9.3205 6.5l15.5434 0c0.0642,0.5995 0.497,1.0668 1.0171,1.0668l0 0c0.5201,0 0.9529,-0.4673 1.0171,-1.0668l3.7814 0c1.4685,0 2.6699,1.2004 2.6699,2.6677l0 4.9999 -0.0398 0c-0.0866,0 -0.1574,0.107 -0.1574,0.2378l0 2.3859c0,0.1308 0.0708,0.2378 0.1574,0.2378l0.0398 0 0 33.8032c0,1.4673 -1.2014,2.6677 -2.6699,2.6677l-21.359 0c-1.4685,0 -2.6699,-1.2004 -2.6699,-2.6677l0 -41.6646c0,-1.4673 1.2014,-2.6677 2.6699,-2.6677z"/>
   <path id="_165862992" class="fil0 str0" d="M14.7811 49.0902l7.7746 0c0.2151,0 0.391,0.3004 0.391,0.6677l0 0c0,0.3672 -0.1759,0.6676 -0.391,0.6676l-7.7746 0c-0.2151,0 -0.3911,-0.3004 -0.3911,-0.6676l0 0c0,-0.3673 0.176,-0.6677 0.3911,-0.6677z"/>
  </g>
 </g>
</svg>
