<?xml version="1.0" encoding="UTF-8"?>
<!DOCTYPE svg PUBLIC "-//W3C//DTD SVG 1.1//EN" "http://www.w3.org/Graphics/SVG/1.1/DTD/svg11.dtd">
<!-- Creator: CorelDRAW 2020 (64-Bit) -->
<svg xmlns="http://www.w3.org/2000/svg" xml:space="preserve" width="40mm" height="60mm" version="1.1" style="shape-rendering:geometricPrecision; text-rendering:geometricPrecision; image-rendering:optimizeQuality; fill-rule:evenodd; clip-rule:evenodd"
viewBox="0 0 4000 6000"
 xmlns:xlink="http://www.w3.org/1999/xlink"
 xmlns:xodm="http://www.corel.com/coreldraw/odm/2003">
 <defs>
  <style type="text/css">
   <![CDATA[
    .str0 {stroke:#332C2B;stroke-width:7.62;stroke-miterlimit:22.9256}
    .fil0 {fill:none}
   ]]>
  </style>
 </defs>
 <g id="图层_x0020_1">
  <metadata id="CorelCorpID_0Corel-Layer"/>
  <path class="fil0 str0" d="M1041.38 5298.42l1781.64 0c111.68,0 203.08,-91.4 203.08,-203.08l0 -4236.59c0,-111.67 -91.38,-203.08 -203.08,-203.08l-455.5 0 -265.26 0c-19.4,0 -35.31,15.86 -35.31,35.31l0 36.69c0,40.45 -33.1,73.55 -73.55,73.55l0 0c-40.45,0 -73.55,-33.16 -73.55,-73.55l0 -36.69c0,-19.38 -15.91,-35.31 -35.31,-35.31l-261.56 0 -459.2 0c-111.7,0 -203.08,91.39 -203.08,203.08l0 4236.59c0,111.7 91.39,203.08 203.08,203.08l72.21 0c91.79,0 146.48,21.13 164.45,57.25"/>
 </g>
</svg>
