<?xml version="1.0" encoding="UTF-8"?>
<!DOCTYPE svg PUBLIC "-//W3C//DTD SVG 1.1//EN" "http://www.w3.org/Graphics/SVG/1.1/DTD/svg11.dtd">
<!-- Creator: CorelDRAW X8 -->
<svg xmlns="http://www.w3.org/2000/svg" xml:space="preserve" width="40mm" height="60mm" version="1.1" style="shape-rendering:geometricPrecision; text-rendering:geometricPrecision; image-rendering:optimizeQuality; fill-rule:evenodd; clip-rule:evenodd"
viewBox="0 0 4000 6000"
 xmlns:xlink="http://www.w3.org/1999/xlink">
 <defs>
  <style type="text/css">
   <![CDATA[
    .fil0 {fill:#222222;fill-rule:nonzero}
   ]]>
  </style>
 </defs>
 <g id="图层_x0020_1">
  <metadata id="CorelCorpID_0Corel-Layer"/>
  <g>
   <path class="fil0" d="M3267 997l-6 0 0 0 0 -1 0 -1 -1 -2 0 -1 0 -1 0 -2 -1 -1 0 -1 -1 -1 0 -2 -1 -1 -1 -1 -1 -1 0 -1 -1 -1 -1 -1 -1 -1 -1 -1 -1 0 -1 -1 -1 -1 -1 -1 -2 0 -1 -1 -1 0 -1 -1 -2 0 -1 0 -1 0 -2 -1 -1 0 -1 0 0 -6 1 0 2 0 2 1 1 0 2 0 2 1 1 0 2 1 1 0 1 1 2 1 1 1 2 1 1 1 1 1 1 1 1 1 1 1 1 1 1 2 1 1 1 2 1 1 0 1 1 2 0 1 1 2 0 2 0 1 1 2 0 2 0 1 0 0zm-6 4007l0 -4007 6 0 0 4007 0 0 -6 0zm-27 33l0 -6 0 0 1 0 1 0 2 -1 1 0 1 0 2 -1 1 0 1 0 1 -1 2 -1 1 0 1 -1 1 -1 1 0 1 -1 1 -1 1 -1 1 -1 0 -1 1 -1 1 -1 1 -1 0 -2 1 -1 0 -1 1 -1 0 -2 0 -1 0 -1 1 -2 0 -1 0 -1 6 0 0 1 0 2 -1 2 0 1 0 2 -1 1 0 2 -1 1 0 2 -1 1 -1 2 -1 1 -1 1 -1 2 -1 1 -1 1 -1 1 -1 1 -1 1 -2 1 -1 1 -2 1 -1 0 -1 1 -2 1 -1 0 -2 1 -2 0 -1 0 -2 1 -2 0 -1 0 0 0zm-116 -6l116 0 0 6 -116 0 -3 -5 3 -1zm-3 1l1 -1 2 0 -3 1zm-12 15l12 -15 5 4 -12 15 -5 -2 0 -2zm0 2l0 -1 0 -1 0 2zm17 13l-5 -3 -1 2 0 0 0 0 0 0 0 0 0 0 0 -1 0 0 -1 0 0 0 0 -1 -1 0 0 0 -1 -1 0 0 -1 0 0 -1 -1 0 0 -1 -1 0 0 0 -1 -1 -1 0 0 -1 -1 0 0 0 -1 -1 0 0 0 -1 -1 -1 0 0 0 -1 0 -1 6 0 0 0 0 0 0 0 0 0 0 0 0 0 0 0 0 1 1 0 0 0 1 0 0 1 1 0 0 1 1 0 0 0 1 1 0 0 1 0 0 1 1 0 0 1 1 0 0 0 1 1 0 0 1 1 0 1 1 0 0 1 0 1 0 1 0 1zm0 -1l0 1 0 0 0 -1zm-17 15l12 -17 5 3 -12 18 -6 -2 1 -2zm-1 2l0 -1 1 -1 -1 2zm-269 274l0 -6 0 0 14 0 14 -1 13 -2 13 -2 13 -3 13 -4 13 -4 12 -5 12 -5 11 -6 12 -7 11 -7 10 -7 10 -8 10 -9 9 -8 9 -10 9 -9 8 -11 7 -10 7 -11 7 -11 6 -12 5 -12 5 -12 4 -12 4 -13 3 -13 2 -13 2 -14 1 -13 0 -14 6 0 0 14 -1 14 -2 14 -2 13 -3 14 -4 13 -4 12 -5 13 -6 12 -6 12 -7 11 -7 11 -7 11 -9 10 -8 10 -9 10 -10 9 -10 9 -10 8 -11 7 -11 7 -12 7 -12 6 -12 6 -12 5 -13 4 -13 4 -13 3 -14 2 -14 2 -14 1 -14 0 0 0zm-7 -6l7 0 0 6 -7 0 0 -6 0 0zm0 0l0 0 0 0 0 0zm-22 7l0 -6 0 0 1 0 1 0 0 0 1 0 1 0 0 0 1 0 1 0 0 0 1 0 1 0 1 0 0 0 1 0 1 0 0 0 1 0 1 0 0 0 1 0 1 0 0 0 1 0 1 -1 0 0 1 0 1 0 0 0 1 0 1 0 0 0 1 0 1 6 -1 0 -1 0 -1 0 0 0 -1 0 -1 0 0 0 -1 1 -1 0 0 0 -1 0 -1 0 0 0 -1 0 -1 0 0 0 -1 0 -1 0 -1 0 0 0 -1 0 -1 0 0 0 -1 0 -1 0 0 0 -1 0 -1 0 -1 0 0 0 -1 0 -1 0 0 0zm-1605 -6l1605 0 0 6 -1605 0 0 0 0 -6zm-22 5l0 -6 0 0 1 0 0 0 1 0 1 0 0 0 1 0 1 0 1 0 0 1 1 0 1 0 0 0 1 0 1 0 0 0 1 0 1 0 0 0 1 0 1 0 0 0 1 0 1 0 0 0 1 0 1 0 0 0 1 0 1 0 0 0 1 0 1 0 0 6 -1 0 -1 0 0 0 -1 0 -1 0 0 0 -1 0 -1 0 0 0 -1 0 -1 0 -1 0 0 0 -1 0 -1 0 0 0 -1 0 -1 0 0 0 -1 0 -1 0 0 0 -1 0 -1 0 -1 -1 0 0 -1 0 -1 0 0 0 -1 0 -1 0 0 0 0 0zm0 -6l0 0 0 0 0 0zm-6 0l6 0 0 6 -6 0 0 0 0 -6zm-275 -268l6 0 0 0 0 14 1 13 2 14 2 13 3 13 4 13 4 12 5 12 5 12 6 12 7 11 7 11 7 10 8 11 9 9 9 10 9 8 10 9 10 8 10 7 11 7 12 7 11 6 12 5 12 5 13 4 13 4 13 3 13 2 13 2 14 1 14 0 0 6 -14 0 -14 -1 -14 -2 -14 -2 -13 -3 -13 -4 -13 -4 -12 -5 -12 -6 -12 -6 -12 -7 -11 -7 -11 -7 -10 -8 -10 -9 -10 -9 -9 -10 -8 -10 -9 -10 -7 -11 -7 -11 -7 -11 -6 -12 -6 -12 -5 -13 -4 -12 -4 -13 -3 -14 -2 -13 -2 -14 -1 -14 0 -14 0 0zm6 0l0 0 0 0 0 0zm-7 -29l6 0 0 0 0 1 0 1 0 1 0 0 0 1 0 1 0 1 0 1 0 1 0 1 0 1 0 1 0 1 0 0 0 1 0 1 0 1 0 1 0 1 0 1 0 1 0 1 0 1 0 0 0 1 0 1 0 1 1 1 0 1 0 1 0 1 0 1 -6 0 0 -1 0 -1 0 -1 0 0 -1 -1 0 -1 0 -1 0 -1 0 -1 0 -1 0 -1 0 -1 0 -1 0 -1 0 -1 0 0 0 -1 0 -1 0 -1 0 -1 0 -1 0 -1 0 -1 0 -1 0 -1 0 -1 0 -1 0 0 0 -1 0 -1 0 -1 0 -1 0 0zm6 -15l0 15 -6 0 0 -15 3 -3 3 3zm-3 -3l3 0 0 3 -3 -3zm-132 0l132 0 0 6 -132 0 0 0 0 -6zm-33 -27l6 0 0 0 0 1 0 1 1 2 0 1 0 1 0 2 1 1 0 1 1 1 0 2 1 1 1 1 1 1 0 1 1 1 1 1 1 1 1 1 1 0 1 1 1 1 1 0 2 1 1 1 1 0 1 0 2 1 1 0 1 0 2 1 1 0 1 0 0 6 -1 0 -2 0 -2 -1 -1 0 -2 0 -2 -1 -1 0 -2 -1 -1 -1 -1 0 -2 -1 -1 -1 -1 -1 -2 -1 -1 -1 -1 -1 -1 -1 -1 -1 -1 -2 -1 -1 -1 -1 -1 -2 -1 -1 0 -2 -1 -1 0 -2 -1 -1 0 -2 0 -1 -1 -2 0 -2 0 -1 0 0zm6 -4007l0 4007 -6 0 0 -4007 0 0 6 0zm27 -33l0 6 0 0 -1 0 -1 0 -2 1 -1 0 -1 0 -2 0 -1 1 -1 0 -1 1 -2 0 -1 1 -1 1 -1 1 -1 0 -1 1 -1 1 -1 1 -1 1 0 1 -1 1 -1 1 -1 1 0 2 -1 1 0 1 -1 1 0 2 0 1 0 1 -1 2 0 1 0 1 -6 0 0 -1 0 -2 1 -2 0 -1 0 -2 1 -2 0 -1 1 -2 0 -1 1 -1 1 -2 1 -1 1 -2 1 -1 1 -1 1 -1 1 -1 1 -1 1 -1 2 -1 1 -1 2 -1 1 -1 1 0 2 -1 1 0 2 -1 2 0 1 0 2 -1 2 0 1 0 0 0zm120 6l-120 0 0 -6 120 0 2 5 -2 1zm2 -1l-1 1 -1 0 2 -1zm12 -15l-12 15 -5 -4 12 -15 6 2 -1 2zm1 -2l0 1 -1 1 1 -2zm-15 -29l2 6 2 -3 0 1 0 0 0 1 0 1 0 0 0 1 1 1 0 0 0 1 1 1 0 0 0 1 1 1 0 1 1 1 0 0 1 1 0 1 1 1 1 1 0 1 1 0 0 1 1 1 0 1 0 1 1 1 0 1 0 1 0 1 1 1 0 1 -6 0 0 0 0 -1 -1 -1 0 0 0 -1 0 -1 -1 0 0 -1 0 -1 -1 -1 0 0 -1 -1 0 -1 -1 -1 0 -1 -1 0 0 -1 -1 -1 0 -1 -1 -1 0 -1 -1 0 0 -1 -1 -1 0 -1 0 -1 -1 -1 0 -1 0 -1 0 -1 0 -1 0 -1 2 -3zm-2 3l0 -2 2 -1 -2 3zm16 -2l-12 5 -2 -6 12 -5 4 3 -2 3zm2 -3l0 2 -2 1 2 -3zm269 -274l0 6 0 0 -14 0 -14 1 -13 2 -13 2 -13 3 -13 4 -13 4 -12 5 -12 5 -11 6 -12 7 -11 7 -10 7 -10 8 -10 9 -9 9 -9 9 -9 10 -8 10 -7 10 -7 11 -7 11 -6 12 -5 12 -5 12 -4 12 -4 13 -3 13 -2 13 -2 14 -1 13 0 14 -6 0 0 -14 1 -14 2 -14 2 -13 3 -13 4 -13 4 -13 5 -13 6 -12 6 -12 7 -11 7 -11 7 -11 9 -10 8 -10 9 -10 10 -9 10 -8 10 -9 11 -7 11 -7 12 -7 12 -6 12 -5 12 -5 13 -5 13 -3 13 -3 14 -3 14 -2 14 -1 14 0 0 0zm1662 6l-1662 0 0 -6 1662 0 0 0 0 6zm287 270l-5 -4 -1 2 0 -14 -1 -13 -2 -14 -3 -13 -3 -13 -4 -13 -4 -12 -6 -12 -6 -12 -6 -12 -7 -11 -7 -11 -8 -10 -9 -10 -9 -10 -9 -9 -10 -9 -11 -9 -10 -8 -11 -7 -12 -7 -12 -7 -12 -6 -12 -5 -13 -5 -13 -4 -13 -4 -13 -3 -14 -2 -13 -2 -14 -1 -14 0 0 -6 14 0 14 1 14 2 14 3 14 3 13 3 13 5 13 5 13 5 12 6 12 7 12 7 11 7 11 9 11 8 10 9 9 10 10 10 8 10 8 11 8 11 7 11 7 12 6 12 5 13 5 13 4 13 3 13 3 13 2 14 1 14 0 14 0 2zm0 -2l0 1 0 1 0 -2zm-17 18l12 -20 5 4 -12 19 -6 -2 1 -1zm-1 1l0 -1 1 0 -1 1zm18 14l-5 -4 0 2 0 0 0 0 0 0 0 0 -1 0 0 0 0 0 0 -1 -1 0 0 0 0 -1 -1 0 -1 0 0 -1 -1 0 0 0 -1 -1 0 0 -1 0 -1 -1 0 0 -1 -1 0 0 -1 -1 0 0 -1 0 0 -1 -1 -1 0 0 0 -1 -1 -1 0 -1 6 0 0 0 0 0 0 0 0 0 0 0 1 0 0 1 0 0 1 0 0 1 0 0 1 0 0 1 1 0 0 0 1 1 1 0 0 0 1 1 0 0 1 1 1 0 0 0 1 1 0 0 1 1 0 0 1 1 0 1 0 0 1 1 0 1 -1 2zm1 -2l0 1 -1 1 1 -2zm-18 13l12 -15 5 4 -12 15 -2 1 -3 -5zm3 5l-7 0 4 -5 3 5zm128 0l-128 0 0 -6 128 0 0 0 0 6zm-2391 1343l0 217 -6 0 0 -217 0 0 6 0zm-38 -31l0 -6 0 0 2 0 2 0 2 0 2 1 2 0 1 1 2 0 2 1 2 1 1 0 2 1 1 1 2 1 1 1 2 2 1 1 1 1 1 2 1 1 1 1 1 2 1 2 1 1 1 2 1 2 0 1 1 2 0 2 0 2 1 2 0 2 0 1 -6 0 0 -1 0 -2 -1 -1 0 -2 0 -1 -1 -2 0 -1 -1 -2 0 -1 -1 -2 -1 -1 -1 -1 0 -1 -1 -2 -1 -1 -1 -1 -2 -1 -1 -1 -1 -1 -1 -1 -1 -1 -2 0 -1 -1 -1 -1 -2 0 -1 -1 -2 0 -1 -1 -2 0 -2 0 -1 0 -2 0 0 0zm0 -3l0 0 0 0 0 0 0 3 0 -3zm-31 34l-6 0 0 0 0 -1 0 -2 0 -2 0 -2 1 -2 0 -2 1 -1 1 -2 0 -2 1 -1 1 -2 1 -2 1 -1 1 -1 1 -2 2 -1 1 -1 1 -2 2 -1 1 -1 2 -1 1 -1 2 0 2 -1 1 -1 2 0 2 -1 2 0 2 -1 1 0 2 0 2 0 0 6 -1 0 -2 0 -2 0 -1 0 -2 1 -1 0 -2 1 -1 0 -1 1 -2 1 -1 0 -1 1 -2 1 -1 1 -1 1 -1 1 -1 1 -1 1 -1 2 -1 1 -1 1 -1 1 0 2 -1 1 0 2 -1 1 0 2 -1 1 0 2 0 1 0 2 0 1 0 0zm-6 217l0 -217 6 0 0 217 0 0 -6 0zm37 32l0 6 0 0 -2 0 -2 0 -1 0 -2 -1 -2 0 -2 -1 -2 0 -1 -1 -2 -1 -2 -1 -1 0 -2 -1 -1 -1 -2 -2 -1 -1 -1 -1 -2 -1 -1 -2 -1 -1 -1 -2 -1 -1 -1 -2 -1 -1 0 -2 -1 -2 -1 -1 0 -2 -1 -2 0 -2 0 -2 0 -2 0 -2 6 0 0 2 0 2 0 1 0 2 1 1 0 2 1 1 0 2 1 1 0 1 1 2 1 1 1 1 1 1 1 2 1 1 1 1 1 1 1 1 2 1 1 0 1 1 2 1 1 1 1 0 2 1 1 0 2 0 1 1 2 0 2 0 1 0 0 0zm0 3l0 0 0 0 0 0 0 -3 0 3zm32 -35l6 0 0 0 0 2 0 2 -1 2 0 2 0 2 -1 2 0 1 -1 2 -1 2 -1 1 -1 2 -1 1 -1 2 -1 1 -1 2 -1 1 -1 1 -2 1 -1 2 -2 1 -1 1 -2 0 -1 1 -2 1 -2 1 -2 0 -1 1 -2 0 -2 1 -2 0 -2 0 -2 0 0 -6 2 0 1 0 2 0 2 -1 1 0 2 0 1 -1 2 0 1 -1 1 -1 2 -1 1 0 1 -1 1 -1 1 -1 2 -1 1 -1 1 -2 1 -1 0 -1 1 -1 1 -2 1 -1 0 -1 1 -2 0 -1 1 -2 0 -1 0 -2 1 -1 0 -2 0 -2 0 0zm3 0l0 0 0 0 0 0 -3 0 3 0zm3 -1045l0 578 -6 0 0 -578 0 0 6 0zm-38 -32l0 -6 0 0 2 1 2 0 2 0 2 0 2 1 1 0 2 1 2 0 2 1 1 1 2 1 1 1 2 1 1 1 2 1 1 1 1 2 1 1 1 2 1 1 1 2 1 1 1 2 1 1 1 2 0 2 1 2 0 2 0 1 1 2 0 2 0 2 -6 0 0 -2 0 -1 -1 -2 0 -1 0 -2 -1 -1 0 -2 -1 -1 0 -2 -1 -1 -1 -1 -1 -2 0 -1 -1 -1 -1 -1 -1 -1 -2 -1 -1 -1 -1 -1 -1 -1 -1 -1 -2 -1 -1 0 -1 -1 -2 -1 -1 0 -2 -1 -1 0 -2 0 -2 0 -1 0 -2 -1 0 0zm0 -3l0 0 0 0 0 0 0 3 0 -3zm-31 35l-6 0 0 0 0 -2 0 -2 0 -2 0 -1 1 -2 0 -2 1 -2 1 -2 0 -1 1 -2 1 -1 1 -2 1 -1 1 -2 1 -1 2 -2 1 -1 1 -1 2 -1 1 -1 2 -1 1 -1 2 -1 2 -1 1 0 2 -1 2 0 2 -1 2 0 1 0 2 0 2 -1 0 6 -1 1 -2 0 -2 0 -1 0 -2 0 -1 1 -2 0 -1 1 -1 1 -2 0 -1 1 -1 1 -2 1 -1 1 -1 1 -1 1 -1 1 -1 1 -1 1 -1 1 -1 2 -1 1 0 1 -1 2 0 1 -1 2 0 1 -1 2 0 1 0 2 0 1 0 2 0 0zm-6 578l0 -578 6 0 0 578 0 0 -6 0zm37 32l0 6 0 0 -2 0 -2 0 -1 0 -2 -1 -2 0 -2 -1 -2 0 -1 -1 -2 -1 -2 0 -1 -1 -2 -1 -1 -1 -2 -1 -1 -2 -1 -1 -2 -1 -1 -2 -1 -1 -1 -1 -1 -2 -1 -2 -1 -1 0 -2 -1 -2 -1 -1 0 -2 -1 -2 0 -2 0 -2 0 -2 0 -2 6 0 0 2 0 2 0 1 0 2 1 1 0 2 1 1 0 2 1 1 0 2 1 1 1 1 1 1 1 2 1 1 1 1 1 1 1 1 1 1 2 1 1 1 1 0 2 1 1 1 1 0 2 1 1 0 2 0 1 1 2 0 2 0 1 0 0 0zm0 3l0 0 0 0 0 0 0 -3 0 3zm32 -35l6 0 0 0 0 2 0 2 -1 2 0 2 0 2 -1 2 0 1 -1 2 -1 2 -1 1 -1 2 -1 2 -1 1 -1 1 -1 2 -1 1 -1 1 -2 2 -1 1 -2 1 -1 1 -2 1 -1 0 -2 1 -2 1 -2 0 -1 1 -2 0 -2 1 -2 0 -2 0 -2 0 0 -6 2 0 1 0 2 0 2 -1 1 0 2 0 1 -1 2 0 1 -1 1 -1 2 0 1 -1 1 -1 1 -1 1 -1 2 -1 1 -1 1 -1 1 -2 0 -1 1 -1 1 -1 1 -2 0 -1 1 -2 0 -1 1 -2 0 -1 0 -2 1 -1 0 -2 0 -2 0 0zm3 0l0 0 0 0 0 0 -3 0 3 0zm2386 -647l0 513 -6 0 0 -513 0 0 6 0zm-48 -42l0 -6 0 0 2 0 3 1 2 0 3 0 2 1 2 0 2 1 3 1 2 1 2 1 2 1 2 2 2 1 2 1 1 2 2 1 2 2 1 2 1 2 2 2 1 1 1 3 1 2 1 2 1 2 1 2 1 2 0 3 1 2 0 3 0 2 0 2 -6 0 0 -2 0 -2 0 -2 -1 -2 0 -2 -1 -2 -1 -2 0 -2 -1 -2 -1 -2 -1 -1 -1 -2 -1 -2 -2 -1 -1 -2 -1 -1 -2 -2 -1 -1 -2 -1 -2 -1 -1 -2 -2 -1 -2 -1 -2 0 -2 -1 -2 -1 -2 0 -2 -1 -2 0 -2 0 -2 -1 -2 0 0 0zm0 -3l0 0 0 0 0 0 0 3 0 -3zm-42 45l-6 0 0 0 0 -2 0 -2 0 -3 1 -2 0 -3 1 -2 1 -2 0 -2 1 -2 1 -2 2 -2 1 -2 1 -2 2 -2 1 -2 2 -2 1 -1 2 -2 2 -1 2 -1 2 -2 2 -1 2 -1 2 -1 2 -1 3 -1 2 0 2 -1 3 0 2 0 2 -1 3 0 0 6 -2 0 -2 1 -3 0 -2 0 -2 1 -2 0 -2 1 -2 1 -1 0 -2 1 -2 1 -2 2 -1 1 -2 1 -2 1 -1 2 -1 1 -2 2 -1 1 -1 2 -1 2 -1 1 -1 2 -1 2 -1 2 0 2 -1 2 0 2 -1 2 0 2 0 2 0 2 0 0zm-6 513l0 -513 6 0 0 513 0 0 -6 0zm48 42l0 6 0 0 -3 0 -2 0 -2 -1 -3 0 -2 -1 -2 0 -3 -1 -2 -1 -2 -1 -2 -1 -2 -1 -2 -1 -2 -2 -2 -1 -2 -2 -1 -1 -2 -2 -1 -2 -2 -2 -1 -1 -1 -2 -2 -2 -1 -3 -1 -2 0 -2 -1 -2 -1 -2 0 -3 -1 -2 0 -3 0 -2 0 -2 6 0 0 2 0 2 0 2 1 2 0 2 1 2 0 2 1 2 1 2 1 2 1 1 1 2 1 2 1 1 2 2 1 1 1 2 2 1 2 1 1 2 2 1 2 1 2 1 1 0 2 1 2 1 2 0 2 1 2 0 3 1 2 0 2 0 0 0zm0 3l0 0 0 0 0 0 0 -3 0 3zm42 -45l6 0 0 0 0 2 0 2 0 3 -1 2 0 3 -1 2 -1 2 -1 2 -1 2 -1 3 -1 2 -1 2 -2 1 -1 2 -1 2 -2 2 -2 1 -1 2 -2 1 -2 2 -2 1 -2 1 -2 1 -2 1 -3 1 -2 1 -2 0 -2 1 -3 0 -2 1 -3 0 -2 0 0 -6 2 0 2 0 2 -1 2 0 2 -1 2 0 2 -1 2 -1 2 0 2 -1 2 -1 1 -1 2 -2 2 -1 1 -1 2 -2 1 -1 1 -2 2 -1 1 -2 1 -2 1 -1 1 -2 1 -2 0 -2 1 -2 1 -2 0 -2 1 -2 0 -2 0 -2 0 -2 0 0zm3 0l0 0 0 0 0 0 -3 0 3 0zm-1139 -360l0 0 0 0 0 0 -3 0 3 0zm-48 -45l0 -6 0 0 3 0 2 0 3 0 3 1 2 0 2 1 3 1 2 1 2 1 3 1 2 1 2 1 2 2 2 1 2 2 1 2 2 1 2 2 1 2 2 2 1 2 1 2 1 3 1 2 1 2 1 3 1 2 0 3 1 2 0 3 0 2 0 3 -6 0 0 -3 0 -2 0 -2 0 -2 -1 -2 -1 -3 0 -2 -1 -2 -1 -2 -1 -2 -1 -2 -1 -1 -2 -2 -1 -2 -1 -2 -2 -1 -1 -2 -2 -1 -2 -1 -1 -2 -2 -1 -2 -1 -2 -1 -2 -1 -2 -1 -2 0 -2 -1 -3 0 -2 -1 -2 0 -2 0 -3 0 0 0zm-69 -6l69 0 0 6 -69 0 0 0 0 -6zm-45 51l-6 0 0 0 0 -3 0 -2 0 -3 1 -2 0 -3 1 -2 1 -3 1 -2 1 -2 1 -3 1 -2 2 -2 1 -2 1 -2 2 -2 2 -1 2 -2 1 -2 2 -1 2 -2 2 -1 3 -1 2 -1 2 -1 2 -1 3 -1 2 -1 3 0 2 -1 3 0 2 0 3 0 0 6 -2 0 -3 0 -2 0 -2 1 -2 0 -2 1 -3 0 -2 1 -2 1 -2 1 -1 1 -2 1 -2 2 -2 1 -1 1 -2 2 -1 1 -2 2 -1 2 -1 2 -2 1 -1 2 -1 2 -1 2 0 2 -1 2 -1 3 0 2 -1 2 0 2 0 2 0 3 0 0zm-3 0l0 0 0 0 0 0 3 0 -3 0zm48 45l0 6 0 0 -3 0 -2 0 -3 -1 -2 0 -3 -1 -2 0 -3 -1 -2 -1 -2 -1 -2 -1 -3 -1 -2 -2 -2 -1 -2 -2 -1 -1 -2 -2 -2 -2 -2 -2 -1 -2 -1 -2 -2 -2 -1 -2 -1 -2 -1 -2 -1 -3 -1 -2 -1 -2 0 -3 -1 -2 0 -3 0 -3 0 -2 6 0 0 2 0 2 0 3 1 2 0 2 1 2 1 2 0 2 1 2 1 2 1 2 2 2 1 2 1 2 2 1 1 2 2 1 1 2 2 1 2 1 2 1 1 2 2 1 2 0 2 1 3 1 2 1 2 0 2 0 2 1 3 0 2 0 0 0zm69 6l-69 0 0 -6 69 0 0 0 0 6zm45 -51l6 0 0 0 0 2 0 3 0 3 -1 2 0 3 -1 2 -1 2 -1 3 -1 2 -1 2 -1 2 -1 2 -2 2 -1 2 -2 2 -2 2 -1 2 -2 1 -2 2 -2 1 -2 2 -2 1 -3 1 -2 1 -2 1 -3 1 -2 0 -2 1 -3 0 -3 1 -2 0 -3 0 0 -6 3 0 2 0 2 -1 2 0 3 0 2 -1 2 -1 2 -1 2 0 2 -1 2 -2 1 -1 2 -1 2 -1 2 -2 1 -1 2 -2 1 -1 1 -2 2 -2 1 -2 1 -2 1 -2 1 -2 1 -2 0 -2 1 -2 1 -2 0 -2 0 -3 0 -2 0 -2 0 0zm3 0l0 0 0 0 0 0 -3 0 3 0zm-82 148l0 -6 0 0 9 0 9 1 10 1 9 2 9 2 8 2 9 3 8 4 8 3 8 4 8 5 7 5 8 5 6 5 7 6 7 6 6 6 5 7 6 7 5 7 5 8 4 7 4 8 4 8 3 9 3 8 3 9 2 9 1 9 1 9 1 9 0 10 -6 0 0 -9 -1 -9 -1 -9 -1 -9 -2 -8 -3 -9 -2 -8 -4 -8 -3 -8 -4 -8 -4 -7 -5 -7 -5 -7 -5 -7 -6 -7 -6 -6 -6 -6 -6 -5 -7 -5 -7 -5 -7 -5 -8 -4 -7 -4 -8 -4 -8 -3 -9 -3 -8 -2 -9 -2 -8 -2 -9 -1 -9 -1 -9 0 0 0zm-178 178l-6 0 0 0 0 -10 1 -9 1 -9 2 -9 2 -9 2 -9 3 -8 3 -9 4 -8 4 -8 4 -7 5 -8 5 -7 6 -7 6 -7 6 -6 6 -6 7 -6 7 -5 7 -5 7 -5 8 -5 8 -4 8 -3 8 -4 9 -3 9 -2 9 -2 9 -2 9 -1 9 -1 10 0 0 6 -10 0 -9 1 -8 1 -9 2 -9 2 -8 2 -9 3 -8 3 -7 4 -8 4 -8 4 -7 5 -7 5 -6 5 -7 5 -6 6 -6 6 -6 7 -5 7 -5 7 -4 7 -5 7 -4 8 -3 8 -3 8 -3 8 -3 9 -2 8 -1 9 -1 9 -1 9 0 9 0 0zm178 178l0 6 0 0 -10 -1 -9 0 -9 -1 -9 -2 -9 -2 -9 -3 -9 -2 -8 -4 -8 -3 -8 -4 -8 -5 -7 -5 -7 -5 -7 -5 -7 -6 -6 -6 -6 -6 -6 -7 -6 -7 -5 -7 -5 -8 -4 -7 -4 -8 -4 -9 -3 -8 -3 -8 -2 -9 -2 -9 -2 -9 -1 -9 -1 -10 0 -9 6 0 0 9 1 9 1 9 1 9 2 8 3 9 3 8 3 8 3 8 4 8 5 7 4 7 5 7 5 7 6 6 6 7 6 6 7 5 6 5 7 5 7 5 8 4 8 4 7 4 8 3 9 3 8 2 9 2 9 2 8 1 9 0 10 1 0 0zm177 -178l6 0 0 0 0 9 -1 10 -1 9 -1 9 -2 9 -3 9 -3 8 -3 8 -4 9 -4 8 -4 7 -5 8 -5 7 -6 7 -5 7 -6 6 -7 6 -7 6 -6 5 -8 5 -7 5 -8 5 -8 4 -8 3 -8 4 -9 2 -8 3 -9 2 -9 2 -10 1 -9 0 -9 1 0 -6 9 -1 9 0 9 -1 8 -2 9 -2 8 -2 9 -3 8 -3 8 -4 7 -4 8 -4 7 -5 7 -5 7 -5 6 -5 6 -6 6 -7 6 -6 5 -7 5 -7 5 -7 4 -7 4 -8 3 -8 4 -8 2 -8 3 -9 2 -8 1 -9 1 -9 1 -9 0 -9 0 0zm3 0l0 0 0 0 0 0 -3 0 3 0zm-180 -843l0 -7 0 0 9 1 10 0 9 2 10 1 9 2 9 3 8 3 9 3 8 4 8 4 8 5 8 5 7 5 7 5 7 6 7 7 6 6 6 7 5 7 6 7 5 8 4 8 4 8 4 8 3 9 3 9 3 9 2 9 2 9 1 10 1 9 0 10 -6 0 0 -10 -1 -9 -1 -9 -2 -9 -2 -9 -2 -8 -3 -9 -3 -8 -4 -8 -4 -8 -5 -8 -4 -7 -5 -7 -6 -7 -6 -7 -6 -6 -6 -6 -6 -6 -7 -5 -8 -5 -7 -5 -8 -4 -7 -5 -8 -3 -9 -3 -8 -3 -9 -3 -9 -2 -9 -1 -9 -2 -9 0 -9 0 0 0zm-183 182l-6 0 0 0 1 -10 0 -9 1 -10 2 -9 2 -9 3 -9 3 -9 3 -9 4 -8 4 -8 5 -8 4 -8 6 -7 5 -7 6 -7 6 -6 7 -7 7 -6 7 -5 7 -5 8 -5 8 -5 8 -4 8 -4 9 -3 9 -3 9 -3 9 -2 9 -1 9 -2 10 0 10 -1 0 7 -10 0 -9 0 -9 2 -9 1 -9 2 -9 3 -8 3 -8 3 -8 3 -8 5 -8 4 -7 5 -7 5 -7 5 -7 6 -6 6 -6 6 -6 7 -5 7 -6 7 -4 7 -5 8 -4 8 -3 8 -4 8 -2 9 -3 8 -2 9 -2 9 -1 9 0 9 -1 10 0 0zm183 182l0 6 0 0 -10 0 -10 -1 -9 -1 -9 -2 -9 -2 -9 -2 -9 -3 -9 -4 -8 -4 -8 -4 -8 -4 -8 -5 -7 -5 -7 -6 -7 -6 -7 -6 -6 -7 -6 -6 -5 -8 -6 -7 -4 -8 -5 -7 -4 -9 -4 -8 -3 -8 -3 -9 -3 -9 -2 -9 -2 -10 -1 -9 0 -10 -1 -9 6 0 1 9 0 9 1 10 2 9 2 8 3 9 2 8 4 9 3 8 4 8 5 7 4 8 6 7 5 7 6 6 6 7 6 6 7 5 7 6 7 5 7 5 8 4 8 4 8 4 8 3 8 3 9 2 9 2 9 2 9 1 9 1 10 0 0 0zm182 -182l6 0 0 0 0 9 -1 10 -1 9 -2 10 -2 9 -3 9 -3 9 -3 8 -4 8 -4 9 -4 7 -5 8 -6 7 -5 8 -6 6 -6 7 -7 6 -7 6 -7 6 -7 5 -8 5 -8 4 -8 4 -8 4 -9 4 -8 3 -9 2 -9 2 -10 2 -9 1 -10 1 -9 0 0 -6 9 0 9 -1 9 -1 9 -2 9 -2 9 -2 8 -3 9 -3 8 -4 7 -4 8 -4 7 -5 8 -5 7 -6 6 -5 6 -6 6 -7 6 -6 6 -7 5 -7 4 -8 5 -7 4 -8 4 -8 3 -9 3 -8 2 -9 2 -8 2 -9 1 -10 1 -9 0 -9 0 0zm3 0l0 0 0 0 0 0 -3 0 3 0z"/>
  </g>
 </g>
</svg>
