<?xml version="1.0" encoding="UTF-8"?>
<!DOCTYPE svg PUBLIC "-//W3C//DTD SVG 1.1//EN" "http://www.w3.org/Graphics/SVG/1.1/DTD/svg11.dtd">
<!-- Creator: CorelDRAW 2020 (64-Bit) -->
<svg xmlns="http://www.w3.org/2000/svg" xml:space="preserve" width="40mm" height="60mm" version="1.1" style="shape-rendering:geometricPrecision; text-rendering:geometricPrecision; image-rendering:optimizeQuality; fill-rule:evenodd; clip-rule:evenodd"
viewBox="0 0 4000 6000"
 xmlns:xlink="http://www.w3.org/1999/xlink"
 xmlns:xodm="http://www.corel.com/coreldraw/odm/2003">
 <defs>
  <style type="text/css">
   <![CDATA[
    .str0 {stroke:black;stroke-width:7.62;stroke-miterlimit:22.9256}
    .fil0 {fill:none}
   ]]>
  </style>
 </defs>
 <g id="图层_x0020_1">
  <metadata id="CorelCorpID_0Corel-Layer"/>
  <path class="fil0 str0" d="M1796.7 1251.9l0 445.5c0,4.22 -2.87,7.78 -7,8.67 -4.14,0.89 -8.22,-1.16 -9.96,-5.02 -49.93,-110.54 -157.66,-181.59 -296.3,-181.59 -133.79,0 -258.52,89.37 -305.48,214.44 -1.52,4.06 -5.64,6.39 -9.9,5.61 -4.25,-0.77 -7.28,-4.4 -7.28,-8.72l0 -509.62c0,-4.31 3,-7.92 7.23,-8.72 4.24,-0.8 8.35,1.49 9.91,5.52 48.72,126.02 181.12,216.24 305.52,216.24 128.55,0 245.13,-82.76 296.43,-186.25 1.86,-3.73 5.92,-5.65 9.98,-4.69 4.06,0.95 6.85,4.46 6.85,8.63zm-305.46 -497.04l0.01 0c197.45,0 359,161.55 359,359l0 749.32c0,197.45 -161.55,359 -359,359l-0.01 0c-197.45,0 -359,-161.55 -359,-359l0 -749.32c0,-197.45 161.55,-359 359,-359zm-519.1 4574.06l1866.26 0c137.15,0 249.37,-112.22 249.37,-249.36l0 -4174.53c0,-137.15 -112.22,-249.36 -249.37,-249.36l-1690 0c-137.15,0 -249.37,112.21 -249.37,249.36l0 4174.53c0,137.15 112.22,249.36 249.37,249.36l35.82 0c113.38,0 164.77,14.12 180,26.75"/>
 </g>
</svg>
