<?xml version="1.0" encoding="UTF-8"?>
<!DOCTYPE svg PUBLIC "-//W3C//DTD SVG 1.1//EN" "http://www.w3.org/Graphics/SVG/1.1/DTD/svg11.dtd">
<!-- Creator: CorelDRAW X8 -->
<svg xmlns="http://www.w3.org/2000/svg" xml:space="preserve" width="40mm" height="60mm" version="1.1" style="shape-rendering:geometricPrecision; text-rendering:geometricPrecision; image-rendering:optimizeQuality; fill-rule:evenodd; clip-rule:evenodd"
viewBox="0 0 4000 6000"
 xmlns:xlink="http://www.w3.org/1999/xlink">
 <defs>
  <style type="text/css">
   <![CDATA[
    .str0 {stroke:#222222;stroke-width:35.28}
    .fil0 {fill:none}
   ]]>
  </style>
 </defs>
 <g id="图层_x0020_1">
  <metadata id="CorelCorpID_0Corel-Layer"/>
  <path class="fil0 str0" d="M2940 5108c0,72 -50,106 -141,133 -104,10 -735,240 -1597,0 -76,-17 -142,-56 -142,-133l0 -4214c0,-74 50,-108 141,-135 105,-10 735,-240 1597,0 76,17 142,56 142,135l0 4214z"/>
  <path class="fil0 str0" d="M-12388 0c233,0 341,160 426,450 32,333 767,2344 0,5097 -54,244 -177,453 -426,453l-13448 0c-236,0 -344,-160 -430,-450 -31,-334 -767,-2344 0,-5097 54,-244 178,-453 430,-453l13448 0z"/>
 </g>
</svg>
