<?xml version="1.0" encoding="UTF-8"?>
<!DOCTYPE svg PUBLIC "-//W3C//DTD SVG 1.1//EN" "http://www.w3.org/Graphics/SVG/1.1/DTD/svg11.dtd">
<!-- Creator: CorelDRAW X8 -->
<svg xmlns="http://www.w3.org/2000/svg" xml:space="preserve" width="40mm" height="60mm" version="1.1" style="shape-rendering:geometricPrecision; text-rendering:geometricPrecision; image-rendering:optimizeQuality; fill-rule:evenodd; clip-rule:evenodd"
viewBox="0 0 4000 6000"
 xmlns:xlink="http://www.w3.org/1999/xlink">
 <defs>
  <style type="text/css">
   <![CDATA[
    .str0 {stroke:#332C2B;stroke-width:7.62}
    .fil0 {fill:none}
   ]]>
  </style>
 </defs>
 <g id="图层_x0020_1">
  <metadata id="CorelCorpID_0Corel-Layer"/>
  <path class="fil0 str0" d="M763 650l105 0c9,0 15,0 18,12 10,33 10,32 19,-1 3,-11 11,-11 24,-11l93 0c6,0 12,0 15,11 10,32 9,32 17,-1 4,-12 16,-10 30,-10l101 0c12,47 7,45 24,0l1568 0c6,0 9,0 12,7 14,35 11,36 24,0 3,-7 11,-7 18,-7 34,0 64,0 98,0 7,0 11,0 14,10 11,41 8,40 21,-3 2,-6 5,-7 12,-7l106 0c6,0 10,1 13,10 11,41 8,39 23,-3 3,-8 5,-7 14,-7l104 0c7,0 13,6 13,14l0 164c0,7 -6,13 -13,13l-93 0c-14,0 -19,-2 -22,-14 -10,-40 -8,-39 -20,3 -3,13 -9,11 -23,11l-83 0c-10,0 -14,-1 -18,-10 -15,-42 -13,-44 -24,-1 -2,11 -9,11 -18,11l-91 0c-10,0 -19,-1 -22,-12 -9,-35 -8,-36 -18,-4 -3,11 -9,16 -19,16l-31 0 0 2c168,11 214,84 214,222l0 34c0,19 10,26 40,26l141 0c7,0 13,7 13,14l0 3689c0,7 -6,14 -13,14l-145 0c-27,0 -36,9 -36,32l0 61c0,143 -75,200 -244,222l0 2 66 0c8,0 9,0 11,8 7,25 7,24 14,-2 1,-5 5,-6 11,-6l115 0c5,0 9,0 11,8 7,26 7,25 14,-1 2,-8 6,-7 14,-7 36,0 67,0 103,0 8,0 12,0 15,9 9,23 8,22 17,-2 3,-8 5,-7 14,-7 36,0 72,0 108,0 8,0 14,6 14,13l0 164c0,8 -6,14 -14,14l-86 0c-14,0 -20,-2 -24,-12 -16,-45 -15,-47 -27,-3 -4,13 -10,15 -24,15l-68 0c-12,0 -20,-2 -25,-12 -23,-53 -19,-57 -35,-3 -5,15 -8,15 -24,15 -20,0 -40,0 -60,0 -8,0 -19,-3 -23,-11 -22,-46 -19,-49 -36,-5 -5,12 -13,16 -30,16 -523,0 -1017,0 -1540,0 -9,0 -15,-3 -17,-11 -12,-39 -10,-39 -24,-2 -4,12 -11,13 -22,13l-68 0c-16,0 -26,-3 -33,-15 -21,-37 -18,-39 -29,2 -4,12 -9,13 -20,13l-85 0c-11,0 -19,0 -22,-12 -11,-42 -10,-41 -23,5 -1,5 -4,7 -8,7l-120 0c-7,0 -13,-6 -13,-14l0 -164c0,-7 6,-13 13,-13l103 0c11,0 16,1 19,14 8,30 8,31 13,-4 2,-10 4,-10 12,-10l116 0c7,0 10,1 11,8 8,28 7,28 15,-1 1,-6 7,-7 11,-7l112 0c7,0 9,2 11,9 11,30 10,31 15,-2 1,-7 4,-7 10,-7l51 0 0 -2c-154,-19 -229,-95 -229,-222l0 -56c0,-21 -12,-24 -30,-24l-151 0c-8,0 -14,-6 -14,-13l0 -3689c0,-8 6,-14 14,-14l145 0c25,0 36,-9 36,-34l0 -40c0,-112 66,-206 222,-221l0 -3 -36 0c-4,0 -7,-2 -8,-8 -9,-34 -9,-36 -15,-6 -3,14 -10,14 -20,14l-104 0c-5,0 -9,2 -12,-9 -11,-46 -9,-46 -22,-4 -3,9 -12,13 -20,13l-95 0c-6,0 -8,-2 -10,-7 -12,-40 -10,-41 -21,-2 -2,9 -8,9 -17,9l-113 0c-8,0 -14,-6 -14,-13l0 -164c0,-8 6,-14 14,-14zm2012 4594c0,-10 -12,-17 -16,-18 -15,0 -27,12 -27,28 0,15 12,27 27,27 15,0 28,-12 28,-27 0,-16 -13,-28 -28,-28m-281 5c-3,-13 -8,-22 -29,-22l-43 0c-24,0 -45,21 -45,45l0 0c0,25 21,45 45,45l265 0c25,0 46,-20 46,-45l0 0c0,-24 -21,-45 -46,-45l-222 0m-454 14c-4,-15 -9,-25 -34,-25l-38 0c-28,0 -52,23 -52,52l0 0c0,28 24,52 52,52l166 0c29,0 52,-24 52,-52l0 0c0,-29 -23,-52 -52,-52l-128 0m-500 43c-2,-8 -5,-13 -18,-13l-93 0c-15,0 -28,12 -28,27l0 0c0,15 13,27 28,27l248 0c15,0 27,-12 27,-27l0 0c0,-15 -12,-27 -27,-27l-155 0m-531 -2760c-15,5 -28,13 -28,52l0 95c0,18 14,32 32,32l0 0c17,0 31,-14 31,-32l0 -309c0,-17 -14,-31 -31,-31l0 0c-18,0 -32,14 -32,31l0 214m2199 -109c-16,4 -28,12 -28,51l0 311c0,18 14,32 31,32l0 0c17,0 31,-14 31,-32l0 -650c0,-17 -14,-31 -31,-31l0 0c-17,0 -31,14 -31,31l0 339m-1749 -1525l200 0c91,0 166,75 166,167l0 705c0,92 -75,167 -166,167l-200 0c-91,0 -166,-75 -166,-167l0 -705c0,-92 75,-167 166,-167zm14 34l172 0c83,0 150,68 150,151l0 669c0,83 -67,150 -150,150l-172 0c-83,0 -150,-67 -150,-150l0 -669c0,-83 67,-151 150,-151zm272 784c1,-24 -27,-43 -37,-44 -37,0 -66,30 -66,66 0,36 29,66 66,66 36,0 65,-30 65,-66 0,-36 -29,-66 -65,-66m28 -594c1,-20 -23,-35 -31,-36 -30,0 -55,24 -55,55 0,30 25,54 55,54 30,0 55,-24 55,-54 0,-31 -25,-55 -55,-55m-140 651c2,-51 -58,-91 -80,-93 -78,0 -141,63 -141,141 0,78 63,141 141,141 77,0 140,-63 140,-141 0,-78 -63,-141 -140,-141m77 -230c2,-52 -58,-92 -80,-93 -78,0 -141,63 -141,140 0,78 63,141 141,141 78,0 141,-63 141,-141 0,-77 -63,-140 -141,-140m79 -227c2,-51 -58,-92 -80,-93 -77,0 -140,63 -140,141 0,77 63,140 140,140 78,0 141,-63 141,-140 0,-78 -63,-141 -141,-141"/>
 </g>
</svg>
