<?xml version="1.0" encoding="UTF-8"?>
<!DOCTYPE svg PUBLIC "-//W3C//DTD SVG 1.1//EN" "http://www.w3.org/Graphics/SVG/1.1/DTD/svg11.dtd">
<!-- Creator: CorelDRAW 2020 (64-Bit) -->
<svg xmlns="http://www.w3.org/2000/svg" xml:space="preserve" width="40mm" height="60mm" version="1.1" style="shape-rendering:geometricPrecision; text-rendering:geometricPrecision; image-rendering:optimizeQuality; fill-rule:evenodd; clip-rule:evenodd"
viewBox="0 0 4000 6000"
 xmlns:xlink="http://www.w3.org/1999/xlink"
 xmlns:xodm="http://www.corel.com/coreldraw/odm/2003">
 <defs>
  <style type="text/css">
   <![CDATA[
    .str0 {stroke:black;stroke-width:7.62;stroke-miterlimit:22.9256}
    .fil0 {fill:none}
   ]]>
  </style>
 </defs>
 <g id="图层_x0020_1">
  <metadata id="CorelCorpID_0Corel-Layer"/>
  <path class="fil0 str0" d="M2016.32 732.48c-0.43,-5.69 -5.44,-11.01 -15.84,-11.81 -37.02,0 -67.02,30 -67.02,67.01 0,37.02 30,67.02 67.02,67.02 37.01,0 67.01,-30 67.01,-67.02 0,-37.01 -30,-67.01 -67.01,-67.01m-1014.33 4605.62l1911.07 0c89.71,0 163.13,-73.47 163.13,-163.23l0 -4347.92c0,-89.75 -73.42,-162.6 -163.13,-163.23 -604.05,-4.26 -1186.83,-0.06 -1794.44,0 -89.7,0.01 -163.13,73.46 -163.13,163.23l0 4347.92c0,89.78 73.42,163.23 163.13,163.23l35.08 0c68.86,0 105.54,9.06 110.33,23.71"/>
 </g>
</svg>
