<?xml version="1.0" encoding="UTF-8"?>
<!DOCTYPE svg PUBLIC "-//W3C//DTD SVG 1.1//EN" "http://www.w3.org/Graphics/SVG/1.1/DTD/svg11.dtd">
<!-- Creator: CorelDRAW -->
<svg xmlns="http://www.w3.org/2000/svg" xml:space="preserve" width="40mm" height="60mm" style="shape-rendering:geometricPrecision; text-rendering:geometricPrecision; image-rendering:optimizeQuality; fill-rule:evenodd; clip-rule:evenodd"
viewBox="0 0 40 60"
 xmlns:xlink="http://www.w3.org/1999/xlink">
 <defs>
  <style type="text/css">
   <![CDATA[
    .str0 {stroke:#1F1A17;stroke-width:0.194}
    .fil0 {fill:none;fill-rule:nonzero}
   ]]>
  </style>
 </defs>
 <g id="图层_x0020_1">
  <metadata id="CorelCorpID_0Corel-Layer"/>
  <g id="_251621416">
   <path id="_213738024" class="fil0 str0" d="M18.0266 49.9849c-0.0717,-0.1953 -0.1922,-0.2961 -0.3553,-0.2961 -0.2067,0 -0.3709,0.1621 -0.3709,0.3657 0,0.2015 0.1694,0.3688 0.373,0.3688 0.2327,0 0.3605,-0.1787 0.3605,-0.5049"/>
   <line id="_213740232" class="fil0 str0" x1="30.128" y1="51.5161" x2="9.9722" y2= "51.5121" />
   <path id="_213740328" class="fil0 str0" d="M9.9722 51.5121c-0.2379,-0.0219 -0.4571,-0.1663 -0.6555,-0.4343 -0.0104,-0.0145 -0.0198,-0.0198 -0.0364,-0.0228 -0.0717,-0.0136 -0.0717,-0.0136 -0.0862,-5.2464"/>
   <line id="_213740064" class="fil0 str0" x1="9.1941" y1="45.8086" x2="9.1141" y2= "16.8633" />
   <path id="_213740352" class="fil0 str0" d="M9.1141 16.8633c-0.0177,-6.7631 -0.0073,-7.3355 0.1475,-7.7645 0.0509,-0.1413 0.3002,-0.3959 0.4623,-0.4727 0.1236,-0.0582 0.214,-0.0738 0.4851,-0.0811"/>
   <line id="_213740376" class="fil0 str0" x1="10.209" y1="8.545" x2="14.1796" y2= "8.5316" />
   <path id="_213740256" class="fil0 str0" d="M14.1796 8.5316c2.5598,-0.0094 2.9453,0.003 3.0242,0.1028 0.0291,0.0374 0.0478,0.0997 0.0873,0.2919"/>
   <polyline id="_213740400" class="fil0 str0" points="17.2911,8.9263 17.2755,8.9263 17.2682,8.9336 17.2682,9.0219 17.2755,9.0146 17.2911,9.0146 "/>
   <path id="_213740448" class="fil0 str0" d="M17.2911 9.0146c0.0311,0.3335 0.1236,0.3678 0.9838,0.3615"/>
   <line id="_213740712" class="fil0 str0" x1="18.2749" y1="9.3761" x2="22.1457" y2= "9.3512" />
   <path id="_213740016" class="fil0 str0" d="M22.1457 9.3512c0.1933,-0.0135 0.2431,-0.0831 0.3574,-0.5059 -0.0104,-0.0052 -0.0176,-0.0073 -0.0218,-0.0073"/>
   <polyline id="_213740088" class="fil0 str0" points="22.4813,8.838 22.4886,8.7497 22.5031,8.757 22.5031,8.7352 "/>
   <path id="_213740544" class="fil0 str0" d="M22.5031 8.7352c0.08,-0.1912 0.0966,-0.1943 1.0555,-0.2161"/>
   <line id="_213740520" class="fil0 str0" x1="23.5586" y1="8.5191" x2="25.0951" y2= "8.4838" />
   <path id="_213740112" class="fil0 str0" d="M25.0951 8.4838c0.9984,0 1.2747,0.0374 1.3599,0.1807 0.025,0.0426 0.0322,0.1091 0.0478,0.4166"/>
   <line id="_213740856" class="fil0 str0" x1="26.5028" y1="9.0811" x2="26.5225" y2= "9.2505" />
   <path id="_213737736" class="fil0 str0" d="M26.5225 9.2505c0.0603,0.2524 0.2951,0.4332 0.5621,0.4332 0.4093,0 0.5693,-0.2244 0.5952,-0.8332"/>
   <line id="_251069424" class="fil0 str0" x1="27.6798" y1="8.8505" x2="27.6944" y2= "8.7289" />
   <path id="_251067528" class="fil0 str0" d="M27.6944 8.7289c0.0509,-0.187 0.2421,-0.215 1.4482,-0.215 0.7106,0 0.9049,0.054 1.1646,0.3252 0.2078,0.2171 0.2306,0.2867 0.2379,0.7344 0.108,6.7538 0.2005,13.5065 0.2763,20.2602 0.0489,4.3706 0.0727,8.7412 0.0707,13.1128 -0.0021,4.9149 -0.0842,7.3002 -0.2691,7.7656"/>
   <polyline id="_251070216" class="fil0 str0" points="30.623,50.7121 30.6168,50.7287 30.5586,50.8253 30.5357,50.8576 30.4994,50.9458 30.4879,50.9802 "/>
   <path id="_251070816" class="fil0 str0" d="M30.4879 50.9802c-0.0498,0.1516 -0.2508,0.4569 -0.443,0.5359"/>
  </g>
 </g>
</svg>
