<?xml version="1.0" encoding="UTF-8"?>
<!DOCTYPE svg PUBLIC "-//W3C//DTD SVG 1.1//EN" "http://www.w3.org/Graphics/SVG/1.1/DTD/svg11.dtd">
<!-- Creator: CorelDRAW X8 -->
<svg xmlns="http://www.w3.org/2000/svg" xml:space="preserve" width="40mm" height="60mm" version="1.1" style="shape-rendering:geometricPrecision; text-rendering:geometricPrecision; image-rendering:optimizeQuality; fill-rule:evenodd; clip-rule:evenodd"
viewBox="0 0 4000 6000"
 xmlns:xlink="http://www.w3.org/1999/xlink">
 <defs>
  <style type="text/css">
   <![CDATA[
    .str0 {stroke:#332C2B;stroke-width:10;stroke-linecap:round;stroke-linejoin:round}
    .fil0 {fill:none;fill-rule:nonzero}
   ]]>
  </style>
 </defs>
 <g id="图层_x0020_1">
  <metadata id="CorelCorpID_0Corel-Layer"/>
  <g id="_1875203898816">
   <g>
    <line class="fil0 str0" x1="3413" y1="655" x2="3413" y2= "691" />
    <line class="fil0 str0" x1="2005" y1="5148" x2="2005" y2= "5160" />
    <path class="fil0 str0" d="M2005 5160c-7,0 -10,-4 -12,-12 -34,-1 -56,-1 -71,-1 -34,0 -47,2 -65,11 0,3 2,4 6,7 -1,5 -2,11 -2,18 0,20 4,46 12,78"/>
    <polyline class="fil0 str0" points="1873,5261 1876,5259 1877,5257 1879,5256 1879,5255 1880,5255 "/>
    <path class="fil0 str0" d="M1880 5255c87,3 138,4 172,4 59,0 81,-3 102,-14"/>
    <polyline class="fil0 str0" points="2154,5245 2152,5241 2150,5240 2149,5239 2147,5239 "/>
    <path class="fil0 str0" d="M2147 5239c0,-20 -2,-46 -9,-97 -2,1 -4,2 -7,6"/>
    <line class="fil0 str0" x1="2131" y1="5148" x2="1957" y2= "5148" />
    <line class="fil0 str0" x1="792" y1="2670" x2="781" y2= "2670" />
    <path class="fil0 str0" d="M781 2670c0,-8 3,-11 11,-12 0,-12 0,-23 0,-34 0,-66 -22,-97 -70,-97 -30,0 -59,19 -68,44 -5,15 -6,37 -6,97 0,52 1,73 4,89 3,15 7,24 18,34 15,13 33,21 51,21 41,0 69,-30 71,-75"/>
    <line class="fil0 str0" x1="792" y1="2737" x2="793" y2= "2622" />
    <polyline class="fil0 str0" points="792,1868 793,1855 800,1857 805,1863 805,1871 800,1878 792,1879 793,2117 "/>
    <path class="fil0 str0" d="M793 2117c0,67 0,90 -3,106 -2,17 -6,25 -19,36 -14,13 -31,21 -50,21 -47,0 -71,-28 -72,-85"/>
    <line class="fil0 str0" x1="649" y1="2195" x2="648" y2= "1874" />
    <path class="fil0 str0" d="M648 1874c-1,-234 -1,-284 1,-326 1,-23 3,-37 6,-46 2,-7 4,-11 10,-18"/>
    <line class="fil0 str0" x1="665" y1="1484" x2="665" y2= "1484" />
    <path class="fil0 str0" d="M665 1484c14,-16 35,-25 56,-25 31,0 60,20 68,49 3,10 4,39 4,144"/>
    <line class="fil0 str0" x1="793" y1="1652" x2="793" y2= "1915" />
    <line class="fil0 str0" x1="748" y1="1127" x2="748" y2= "1138" />
    <path class="fil0 str0" d="M748 1138c7,0 12,-5 12,-11"/>
    <line class="fil0 str0" x1="760" y1="1127" x2="894" y2= "1127" />
    <path class="fil0 str0" d="M894 1127c0,-7 -5,-13 -13,-13 0,-6 0,-12 0,-18 0,-75 15,-110 59,-137 22,-12 24,-13 75,-19"/>
    <polyline class="fil0 str0" points="1015,940 1015,938 1015,937 1014,934 "/>
    <path class="fil0 str0" d="M1014 934c0,0 -1,-1 -3,-1"/>
    <polyline class="fil0 str0" points="1011,933 1016,928 1015,926 1010,925 1011,919 1004,919 1003,920 1002,916 1000,916 999,917 997,918 995,924 991,923 991,922 991,926 818,930 "/>
    <path class="fil0 str0" d="M818 930c-59,0 -81,-3 -101,-14 3,-4 5,-6 7,-7"/>
    <polyline class="fil0 str0" points="724,909 723,909 719,747 "/>
    <path class="fil0 str0" d="M719 747c0,-56 3,-77 14,-97"/>
    <line class="fil0 str0" x1="733" y1="650" x2="736" y2= "651" />
    <path class="fil0 str0" d="M736 651c1,2 2,3 4,4"/>
    <line class="fil0 str0" x1="740" y1="655" x2="2155" y2= "664" />
    <path class="fil0 str0" d="M2155 664c379,2 759,2 1138,1"/>
    <polyline class="fil0 str0" points="3293,665 3293,667 3291,668 3290,670 3287,671 "/>
    <path class="fil0 str0" d="M3287 671c0,1 0,3 0,5"/>
    <line class="fil0 str0" x1="3287" y1="676" x2="3277" y2= "932" />
    <path class="fil0 str0" d="M3277 932c-4,-3 -6,-5 -6,-6"/>
    <polyline class="fil0 str0" points="3271,926 2995,926 2998,934 2993,937 2993,938 3001,941 3000,948 3000,948 "/>
    <path class="fil0 str0" d="M3000 948c2,0 4,-1 7,-1"/>
    <line class="fil0 str0" x1="3007" y1="947" x2="3008" y2= "951" />
    <path class="fil0 str0" d="M3008 951c4,-2 6,-4 8,-8"/>
    <polyline class="fil0 str0" points="3016,943 3019,944 2995,941 "/>
    <path class="fil0 str0" d="M2995 941c87,3 134,51 133,138"/>
    <line class="fil0 str0" x1="3128" y1="1079" x2="3128" y2= "1138" />
    <path class="fil0 str0" d="M3128 1138c8,0 12,-4 12,-11"/>
    <line class="fil0 str0" x1="3140" y1="1127" x2="3317" y2= "1123" />
    <path class="fil0 str0" d="M3317 1123c59,0 82,3 102,14"/>
    <line class="fil0 str0" x1="3419" y1="1137" x2="3418" y2= "1139" />
    <path class="fil0 str0" d="M3418 1139c-2,1 -4,3 -5,4"/>
    <line class="fil0 str0" x1="3413" y1="1143" x2="3403" y2= "4878" />
    <path class="fil0 str0" d="M3403 4878c-3,-2 -5,-4 -6,-6"/>
    <line class="fil0 str0" x1="3397" y1="4872" x2="3116" y2= "4873" />
    <path class="fil0 str0" d="M3116 4873c0,6 4,10 12,12 0,7 0,14 0,21 0,103 -37,147 -133,153"/>
    <polyline class="fil0 str0" points="2995,5059 2999,5066 2994,5071 2994,5072 2995,5072 2997,5074 3000,5075 3000,5080 3001,5080 3007,5079 3008,5083 "/>
    <path class="fil0 str0" d="M3008 5083c4,-2 6,-4 8,-8"/>
    <polyline class="fil0 str0" points="3016,5075 3019,5076 3019,5073 3019,5074 3202,5071 "/>
    <path class="fil0 str0" d="M3202 5071c55,0 69,1 91,12"/>
    <polyline class="fil0 str0" points="3293,5083 3293,5085 3291,5086 3290,5088 3287,5090 "/>
    <path class="fil0 str0" d="M3287 5090c0,0 0,2 0,4"/>
    <line class="fil0 str0" x1="3287" y1="5094" x2="3277" y2= "5350" />
    <path class="fil0 str0" d="M3277 5350c-4,-2 -6,-5 -6,-6"/>
    <polyline class="fil0 str0" points="3271,5344 3247,5345 717,5334 "/>
    <path class="fil0 str0" d="M717 5334c3,-4 5,-6 7,-6"/>
    <polyline class="fil0 str0" points="724,5328 723,5327 719,5165 "/>
    <path class="fil0 str0" d="M719 5165c0,-56 3,-78 14,-98"/>
    <polyline class="fil0 str0" points="733,5067 735,5067 736,5069 738,5070 740,5074 1015,5074 "/>
    <path class="fil0 str0" d="M1015 5074c0,-4 -1,-6 -3,-8"/>
    <line class="fil0 str0" x1="1012" y1="5066" x2="1017" y2= "5062" />
    <path class="fil0 str0" d="M1017 5062c-3,-3 -6,-4 -8,-4"/>
    <polyline class="fil0 str0" points="1009,5058 1010,5051 1004,5051 1003,5052 1002,5048 1000,5048 999,5049 997,5050 995,5056 991,5055 991,5058 991,5057 "/>
    <path class="fil0 str0" d="M991 5057c-56,-4 -102,-51 -108,-110"/>
    <line class="fil0 str0" x1="883" y1="4947" x2="881" y2= "4861" />
    <path class="fil0 str0" d="M881 4861c-7,0 -10,3 -11,12"/>
    <line class="fil0 str0" x1="870" y1="4873" x2="693" y2= "4877" />
    <path class="fil0 str0" d="M693 4877c-60,0 -83,-3 -102,-15 2,-3 4,-5 6,-6"/>
    <line class="fil0 str0" x1="597" y1="4856" x2="596" y2= "4855" />
    <path class="fil0 str0" d="M596 4855c-6,-811 -11,-1622 -14,-2433 -1,-365 0,-730 4,-1095 1,-136 6,-184 21,-206"/>
    <polyline class="fil0 str0" points="607,1121 609,1121 609,1123 611,1123 613,1127 796,1127 "/>
    <polyline class="fil0 str0" points="2575,4574 2588,4574 2586,4581 2580,4586 2572,4586 2565,4581 2564,4574 "/>
    <path class="fil0 str0" d="M2564 4574c-22,0 -36,0 -46,0 -27,0 -38,1 -61,7"/>
    <polyline class="fil0 str0" points="2457,4581 2457,4583 2458,4584 2458,4585 2458,4586 2451,4591 2452,4591 2452,4592 2453,4592 2453,4593 2454,4594 2448,4602 2449,4602 2450,4603 "/>
    <path class="fil0 str0" d="M2450 4603c0,0 1,0 2,1"/>
    <polyline class="fil0 str0" points="2452,4604 2450,4610 2458,4639 "/>
    <path class="fil0 str0" d="M2458 4639c2,0 2,0 3,0"/>
    <polyline class="fil0 str0" points="2461,4639 2463,4637 2464,4637 2470,4644 2471,4643 2471,4642 2472,4642 2472,4641 2472,4642 2479,4647 2479,4647 "/>
    <path class="fil0 str0" d="M2479 4647c1,-1 1,-1 1,-3"/>
    <polyline class="fil0 str0" points="2480,4644 2481,4644 2481,4641 2481,4644 "/>
    <path class="fil0 str0" d="M2481 4644c10,2 31,3 59,3 58,0 106,-3 155,-11"/>
    <polyline class="fil0 str0" points="2695,4636 2694,4635 2694,4634 2693,4633 2693,4632 2700,4627 2699,4626 2698,4626 2698,4625 2705,4618 2703,4616 "/>
    <path class="fil0 str0" d="M2703 4616c-3,0 -4,0 -6,-1"/>
    <line class="fil0 str0" x1="2697" y1="4615" x2="2699" y2= "4615" />
    <path class="fil0 str0" d="M2699 4615c0,-1 0,-2 0,-3 0,-5 -1,-10 -6,-32"/>
    <polyline class="fil0 str0" points="2693,4580 2691,4580 2690,4581 2689,4581 2688,4581 2682,4573 2682,4574 2681,4574 2681,4575 2680,4575 2679,4576 2672,4571 2672,4572 2671,4573 "/>
    <path class="fil0 str0" d="M2671 4573c0,0 0,1 0,2 -14,-1 -38,-1 -69,-1 -22,0 -47,0 -74,0"/>
    <polyline class="fil0 str0" points="2606,919 2594,919 2596,912 2601,907 "/>
    <path class="fil0 str0" d="M2601 907c6,0 9,0 14,3"/>
    <line class="fil0 str0" x1="2615" y1="910" x2="2618" y2= "917" />
    <path class="fil0 str0" d="M2618 917c45,-3 67,-29 67,-78 0,-46 -37,-83 -82,-83 -46,1 -82,37 -82,84 0,43 36,80 80,80 6,0 22,-2 33,-4"/>
    <path class="fil0 str0" d="M2005 1739c54,-6 71,-11 102,-32 51,-35 82,-92 82,-153 0,-102 -84,-186 -186,-186 -102,0 -185,84 -185,186 0,101 82,184 182,184 13,0 25,-1 54,-4"/>
   </g>
  </g>
 </g>
</svg>
