<?xml version="1.0" encoding="UTF-8"?>
<!DOCTYPE svg PUBLIC "-//W3C//DTD SVG 1.1//EN" "http://www.w3.org/Graphics/SVG/1.1/DTD/svg11.dtd">
<!-- Creator: CorelDRAW X8 -->
<svg xmlns="http://www.w3.org/2000/svg" xml:space="preserve" width="40mm" height="60mm" version="1.1" style="shape-rendering:geometricPrecision; text-rendering:geometricPrecision; image-rendering:optimizeQuality; fill-rule:evenodd; clip-rule:evenodd"
viewBox="0 0 4000 6000"
 xmlns:xlink="http://www.w3.org/1999/xlink">
 <defs>
  <style type="text/css">
   <![CDATA[
    .str0 {stroke:black;stroke-width:7.62}
    .fil0 {fill:none}
   ]]>
  </style>
 </defs>
 <g id="图层_x0020_1">
  <metadata id="CorelCorpID_0Corel-Layer"/>
  <path class="fil0 str0" d="M932 5350l1829 0c199,0 362,-163 362,-361l0 -3978c0,-198 -163,-361 -362,-361l-1522 0c-199,0 -362,163 -362,361l0 3978c0,198 163,361 362,361l214 0m371 -4514l368 0c103,0 188,84 188,188l0 369c0,104 -85,188 -188,188l-368 0c-104,0 -189,-84 -189,-188l0 -369c0,-104 85,-188 189,-188zm0 42l368 0c80,0 145,66 145,146l0 369c0,80 -65,146 -145,146l-368 0c-80,0 -146,-66 -146,-146l0 -369c0,-80 66,-146 146,-146zm200 118c0,-8 -7,-15 -21,-16 -49,0 -88,40 -88,89 0,49 39,89 88,89 49,0 89,-40 89,-89 0,-49 -40,-89 -89,-89m18 315c-1,-6 -6,-12 -18,-13 -40,0 -72,33 -72,73 0,40 32,73 72,73 41,0 73,-33 73,-73 0,-40 -32,-73 -73,-73"/>
 </g>
</svg>
