<?xml version="1.0" encoding="UTF-8"?>
<!DOCTYPE svg PUBLIC "-//W3C//DTD SVG 1.1//EN" "http://www.w3.org/Graphics/SVG/1.1/DTD/svg11.dtd">
<!-- Creator: CorelDRAW -->
<svg xmlns="http://www.w3.org/2000/svg" xml:space="preserve" width="40mm" height="60mm" style="shape-rendering:geometricPrecision; text-rendering:geometricPrecision; image-rendering:optimizeQuality; fill-rule:evenodd; clip-rule:evenodd"
viewBox="0 0 40 60"
 xmlns:xlink="http://www.w3.org/1999/xlink">
 <defs>
  <style type="text/css">
   <![CDATA[
    .str0 {stroke:#1F1A17;stroke-width:0.2}
    .fil0 {fill:none}
   ]]>
  </style>
 </defs>
 <g id="图层_x0020_1">
  <metadata id="CorelCorpID_0Corel-Layer"/>
  <g id="_127870216">
   <path id="_127870600" class="fil0 str0" d="M11.2069 6.5l17.5862 0c1.0661,0 1.9384,0.8319 1.9384,1.8486l0 43.3027c0,1.0168 -0.8723,1.8487 -1.9384,1.8487l-17.5862 0c-1.0661,0 -1.9384,-0.8319 -1.9384,-1.8487l0 -43.3027c0,-1.0167 0.8723,-1.8486 1.9384,-1.8486z"/>
   <path id="_127870312" class="fil0 str0" d="M15.0286 6.6669l9.2149 0c0.2787,0 0.5066,0.228 0.5066,0.5067l0 0.3587c0,0.2787 -0.2279,0.5067 -0.5066,0.5067l-9.2149 0c-0.2787,0 -0.5067,-0.228 -0.5067,-0.5067l0 -0.3587c0,-0.2787 0.228,-0.5067 0.5067,-0.5067z"/>
  </g>
 </g>
</svg>
