<?xml version="1.0" encoding="UTF-8"?>
<!DOCTYPE svg PUBLIC "-//W3C//DTD SVG 1.1//EN" "http://www.w3.org/Graphics/SVG/1.1/DTD/svg11.dtd">
<!-- Creator: CorelDRAW 2020 (64-Bit) -->
<svg xmlns="http://www.w3.org/2000/svg" xml:space="preserve" width="40mm" height="60mm" version="1.1" style="shape-rendering:geometricPrecision; text-rendering:geometricPrecision; image-rendering:optimizeQuality; fill-rule:evenodd; clip-rule:evenodd"
viewBox="0 0 4000 6000"
 xmlns:xlink="http://www.w3.org/1999/xlink"
 xmlns:xodm="http://www.corel.com/coreldraw/odm/2003">
 <defs>
  <style type="text/css">
   <![CDATA[
    .str0 {stroke:black;stroke-width:7.62;stroke-miterlimit:22.9256}
    .fil0 {fill:none}
   ]]>
  </style>
 </defs>
 <g id="图层_x0020_1">
  <metadata id="CorelCorpID_0Corel-Layer"/>
  <path class="fil0 str0" d="M2447.97 727.7c-2.51,-9.35 -5.92,-16.22 -21.97,-16.22l-13.3 0c-18.53,0 -33.69,15.16 -33.69,33.69l0 0.01c0,18.53 15.16,33.69 33.69,33.69l67.39 0c18.53,0 33.69,-15.16 33.69,-33.69l0 -0.01c0,-18.53 -15.16,-33.69 -33.69,-33.69l-54.09 0m-1174.46 13.81c-0.34,-4.55 -4.35,-8.81 -12.67,-9.45 -29.6,0 -53.6,24 -53.6,53.6 0,29.61 24,53.6 53.6,53.6 29.6,0 53.6,-23.99 53.6,-53.6 0,-29.6 -24,-53.6 -53.6,-53.6m-136.5 4629.74l1766.11 0c2.44,0 4.55,-0.84 6.32,-2.51l185.19 -175.31c1.9,-1.8 2.87,-4.05 2.87,-6.67l0 -4336.32c0,-2.55 -0.93,-4.75 -2.74,-6.54l-168.06 -165.59c-1.77,-1.74 -3.95,-2.64 -6.45,-2.64l-579.23 0c-5.02,0 -8.42,3.1 -12.33,6.23l-27.57 22.08c-3.92,3.13 -7.31,6.22 -12.33,6.22l-508.3 0c-5.02,0 -8.41,-3.09 -12.33,-6.23l-27.57 -22.08c-3.92,-3.13 -7.31,-6.22 -12.33,-6.22l-557.82 0c-2.3,0 -4.31,0.75 -6.04,2.27l-189.48 165.61c-2.05,1.79 -3.14,4.18 -3.14,6.92l0 4350.3c0,2.68 1.03,5.01 3.02,6.81l178.08 161.3c1.75,1.58 3.8,2.37 6.17,2.37l8.98 0c18.1,0 28.41,2.55 30.26,4.42"/>
 </g>
</svg>
