<?xml version="1.0" encoding="UTF-8"?>
<!DOCTYPE svg PUBLIC "-//W3C//DTD SVG 1.1//EN" "http://www.w3.org/Graphics/SVG/1.1/DTD/svg11.dtd">
<!-- Creator: CorelDRAW X8 -->
<svg xmlns="http://www.w3.org/2000/svg" xml:space="preserve" width="40mm" height="60mm" version="1.1" style="shape-rendering:geometricPrecision; text-rendering:geometricPrecision; image-rendering:optimizeQuality; fill-rule:evenodd; clip-rule:evenodd"
viewBox="0 0 4000 6000"
 xmlns:xlink="http://www.w3.org/1999/xlink">
 <defs>
  <style type="text/css">
   <![CDATA[
    .str0 {stroke:#332C2B;stroke-width:7.62}
    .fil0 {fill:none}
   ]]>
  </style>
 </defs>
 <g id="图层_x0020_1">
  <metadata id="CorelCorpID_0Corel-Layer"/>
  <path class="fil0 str0" d="M937 5255l1910 0c119,0 216,-98 216,-217l0 -4172c0,-119 -97,-216 -216,-216l-1611 0c-119,0 -217,97 -217,216l0 4172c0,119 98,217 217,217 119,0 257,16 257,95m-155 -4601l459 0c126,0 229,103 229,229l0 452c0,126 -103,230 -229,230l-459 0c-126,0 -230,-104 -230,-230l0 -452c0,-126 104,-229 230,-229zm30 50l404 0c113,0 205,92 205,205l0 403c0,113 -92,205 -205,205l-404 0c-113,0 -206,-92 -206,-205l0 -403c0,-113 93,-205 206,-205zm-8 271c-110,-64 -80,-220 12,-220 93,0 168,75 168,168 0,92 -75,168 -168,168 -92,0 -167,-76 -167,-168 0,-93 75,-168 167,-168m372 218c-111,-64 -81,-219 11,-219 93,0 168,75 168,167 0,93 -75,168 -168,168 -92,0 -167,-75 -167,-168 0,-92 75,-167 167,-167m-13 604c-111,-64 -80,-220 12,-220 93,0 168,75 168,168 0,92 -75,167 -168,167 -92,0 -167,-75 -167,-167 0,-93 75,-168 167,-168m-392 219c-111,-64 -81,-219 12,-219 93,0 168,75 168,168 0,92 -75,167 -168,167 -93,0 -168,-75 -168,-167 0,-93 75,-168 168,-168m188 -4c-43,-25 -31,-86 5,-86 36,0 65,29 65,65 0,37 -29,66 -65,66 -36,0 -66,-29 -66,-66 0,-36 30,-65 66,-65"/>
 </g>
</svg>
