<?xml version="1.0" encoding="UTF-8"?>
<!DOCTYPE svg PUBLIC "-//W3C//DTD SVG 1.1//EN" "http://www.w3.org/Graphics/SVG/1.1/DTD/svg11.dtd">
<!-- Creator: CorelDRAW 2020 (64-Bit) -->
<svg xmlns="http://www.w3.org/2000/svg" xml:space="preserve" width="40mm" height="60mm" version="1.1" style="shape-rendering:geometricPrecision; text-rendering:geometricPrecision; image-rendering:optimizeQuality; fill-rule:evenodd; clip-rule:evenodd"
viewBox="0 0 4000 6000"
 xmlns:xlink="http://www.w3.org/1999/xlink"
 xmlns:xodm="http://www.corel.com/coreldraw/odm/2003">
 <defs>
  <style type="text/css">
   <![CDATA[
    .str0 {stroke:#332C2B;stroke-width:7.62;stroke-miterlimit:22.9256}
    .fil0 {fill:none}
   ]]>
  </style>
 </defs>
 <g id="图层_x0020_1">
  <metadata id="CorelCorpID_0Corel-Layer"/>
  <path class="fil0 str0" d="M1515.08 5329.8l1275.1 0c26.78,0 48.7,-21.92 48.69,-48.69l-1.63 -4576.75c0,-26.78 -21.91,-48.69 -48.69,-48.69l-1159.78 0c-19.21,0 -37.34,8.86 -50.38,33.82 -131.38,235.79 -233.78,487.15 -318.47,770.18 -70.68,275.88 -89.37,590.9 -98.91,908.77 -3.86,128.99 -7.46,258.58 -10.49,386.02 -1.55,65.08 -2.21,129.64 -2.35,193.22 -2.27,296.78 10.91,582.84 22.6,873.05 5.89,145.01 12.85,286.8 36.99,429.4 29.97,198.96 78.48,363.03 139.86,537.3 59.61,158.65 127.59,318.37 209.42,471.11 32.83,57.57 63.51,62.54 112.97,71.26l72.68 0c69.26,0 109.07,12.45 125.07,25.87"/>
 </g>
</svg>
