<?xml version="1.0" encoding="UTF-8"?>
<!DOCTYPE svg PUBLIC "-//W3C//DTD SVG 1.1//EN" "http://www.w3.org/Graphics/SVG/1.1/DTD/svg11.dtd">
<!-- Creator: CorelDRAW 2020 (64-Bit) -->
<svg xmlns="http://www.w3.org/2000/svg" xml:space="preserve" width="40mm" height="60mm" version="1.1" style="shape-rendering:geometricPrecision; text-rendering:geometricPrecision; image-rendering:optimizeQuality; fill-rule:evenodd; clip-rule:evenodd"
viewBox="0 0 4000 6000"
 xmlns:xlink="http://www.w3.org/1999/xlink"
 xmlns:xodm="http://www.corel.com/coreldraw/odm/2003">
 <defs>
  <style type="text/css">
   <![CDATA[
    .str0 {stroke:black;stroke-width:7.62;stroke-miterlimit:22.9256}
    .fil0 {fill:none}
   ]]>
  </style>
 </defs>
 <g id="图层_x0020_1">
  <metadata id="CorelCorpID_0Corel-Layer"/>
  <path class="fil0 str0" d="M2022.87 734.62c-0.53,-7.01 -6.7,-13.56 -19.51,-14.55 -45.59,0 -82.54,36.95 -82.54,82.53 0,45.59 36.95,82.54 82.54,82.54 45.58,0 82.53,-36.95 82.53,-82.54 0,-45.58 -36.95,-82.53 -82.53,-82.53m-1026.11 4590.97l1850.81 0c147.03,0 267.37,-120.33 267.37,-267.36l0 -4126.31c0,-147.04 -120.31,-267.37 -267.37,-267.37 -574.64,0 -1081.24,0 -1656.12,0 -147.06,0 -267.37,120.31 -267.37,267.37l0 4126.31c0,147.05 120.33,267.36 267.37,267.36l68.94 0c109.92,0 171.79,15.16 198.12,38.96"/>
 </g>
</svg>
