<?xml version="1.0" encoding="UTF-8"?>
<!DOCTYPE svg PUBLIC "-//W3C//DTD SVG 1.1//EN" "http://www.w3.org/Graphics/SVG/1.1/DTD/svg11.dtd">
<!-- Creator: CorelDRAW X8 -->
<svg xmlns="http://www.w3.org/2000/svg" xml:space="preserve" width="40mm" height="60mm" version="1.1" style="shape-rendering:geometricPrecision; text-rendering:geometricPrecision; image-rendering:optimizeQuality; fill-rule:evenodd; clip-rule:evenodd"
viewBox="0 0 4000 6000"
 xmlns:xlink="http://www.w3.org/1999/xlink">
 <defs>
  <style type="text/css">
   <![CDATA[
    .str0 {stroke:black;stroke-width:20}
    .fil0 {fill:none}
   ]]>
  </style>
 </defs>
 <g id="图层_x0020_1">
  <metadata id="CorelCorpID_0Corel-Layer"/>
  <path class="fil0 str0" d="M962 5350l1878 0c137,0 249,-112 249,-249l0 -4202c0,-137 -112,-249 -249,-249l-1680 0c-137,0 -249,112 -249,249l0 4202c0,137 112,249 249,249l181 0m597 -3849l131 0c75,0 137,61 137,137l0 130c0,76 -62,137 -137,137l-131 0c-75,0 -137,-61 -137,-137l0 -130c0,-76 62,-137 137,-137zm-780 -742l0 0c93,0 169,76 169,169l0 585c0,93 -76,169 -169,169l0 0c-93,0 -169,-76 -169,-169l0 -585c0,-93 76,-169 169,-169zm0 36l0 0c72,0 132,60 132,133l0 585c0,73 -60,132 -132,132l0 0c-73,0 -133,-59 -133,-132l0 -585c0,-73 60,-133 133,-133zm22 965c-1,-7 -7,-14 -21,-15 -47,0 -85,38 -85,86 0,47 38,85 85,85 48,0 86,-38 86,-85 0,-48 -38,-86 -86,-86m22 -903c-1,-8 -8,-16 -24,-18 -56,0 -101,46 -101,102 0,55 45,101 101,101 56,0 101,-46 101,-101 0,-56 -45,-102 -101,-102m24 313c-1,-9 -8,-17 -24,-18 -56,0 -101,45 -101,101 0,56 45,101 101,101 56,0 101,-45 101,-101 0,-56 -45,-101 -101,-101m24 317c-1,-8 -8,-16 -24,-18 -56,0 -101,46 -101,102 0,55 45,101 101,101 56,0 101,-46 101,-101 0,-56 -45,-102 -101,-102"/>
 </g>
</svg>
