<?xml version="1.0" encoding="UTF-8"?>
<!DOCTYPE svg PUBLIC "-//W3C//DTD SVG 1.1//EN" "http://www.w3.org/Graphics/SVG/1.1/DTD/svg11.dtd">
<!-- Creator: CorelDRAW X8 -->
<svg xmlns="http://www.w3.org/2000/svg" xml:space="preserve" width="40mm" height="60mm" version="1.1" style="shape-rendering:geometricPrecision; text-rendering:geometricPrecision; image-rendering:optimizeQuality; fill-rule:evenodd; clip-rule:evenodd"
viewBox="0 0 4000 6000"
 xmlns:xlink="http://www.w3.org/1999/xlink">
 <defs>
  <style type="text/css">
   <![CDATA[
    .str0 {stroke:#332C2B;stroke-width:30;stroke-linejoin:bevel}
    .fil0 {fill:none}
   ]]>
  </style>
 </defs>
 <g id="图层_x0020_1">
  <metadata id="CorelCorpID_0Corel-Layer"/>
  <path class="fil0 str0" d="M3222 5133l0 -4266c0,-58 -23,-113 -64,-154 -40,-40 -95,-63 -153,-63l-666 0c-13,0 -25,7 -31,18 -7,11 -19,18 -32,18l-558 0c-10,0 -19,4 -26,11 -6,7 -10,16 -10,25l0 10c0,15 -6,28 -16,38 -10,11 -24,16 -38,16l-214 0c-9,0 -17,3 -23,9 -24,20 -58,24 -87,11 -28,-13 -46,-42 -47,-74l0 -46c0,-9 -3,-19 -10,-25 -7,-7 -16,-11 -26,-11l-226 0c-58,0 -113,23 -154,64 -40,40 -63,95 -63,153l0 4266c0,58 23,113 64,154 40,40 95,63 153,63l666 0c13,0 25,-7 31,-18 7,-11 19,-18 32,-18l552 0c13,0 25,7 32,18 6,11 18,18 31,18l666 0c58,0 113,-23 154,-64 40,-40 63,-95 63,-153z"/>
 </g>
</svg>
