<?xml version="1.0" encoding="UTF-8"?>
<!DOCTYPE svg PUBLIC "-//W3C//DTD SVG 1.1//EN" "http://www.w3.org/Graphics/SVG/1.1/DTD/svg11.dtd">
<!-- Creator: CorelDRAW X8 -->
<svg xmlns="http://www.w3.org/2000/svg" xml:space="preserve" width="40mm" height="60mm" version="1.1" style="shape-rendering:geometricPrecision; text-rendering:geometricPrecision; image-rendering:optimizeQuality; fill-rule:evenodd; clip-rule:evenodd"
viewBox="0 0 4000 6000"
 xmlns:xlink="http://www.w3.org/1999/xlink">
 <defs>
  <style type="text/css">
   <![CDATA[
    .str0 {stroke:#332C2B;stroke-width:7.62}
    .fil0 {fill:none}
   ]]>
  </style>
 </defs>
 <g id="图层_x0020_1">
  <metadata id="CorelCorpID_0Corel-Layer"/>
  <path class="fil0 str0" d="M1057 5383l1943 0c125,0 226,-102 226,-226l0 -4248c0,-124 -101,-226 -226,-226l-1793 0c-124,0 -226,102 -226,226l0 4248c0,124 102,226 226,226l146 0m-17 -4599l0 0c102,0 186,83 186,185l0 469c0,102 -84,185 -186,185l0 0c-102,0 -186,-83 -186,-185l0 -469c0,-102 84,-185 186,-185zm0 47l0 0c76,0 138,62 138,138l0 469c0,76 -62,138 -138,138l0 0c-76,0 -139,-62 -139,-138l0 -469c0,-76 63,-138 139,-138zm39 103c1,-26 -30,-47 -41,-48 -40,0 -73,33 -73,73 0,40 33,72 73,72 40,0 73,-32 73,-72 0,-40 -33,-73 -73,-73m45 286c1,-26 -30,-47 -42,-48 -40,0 -72,33 -72,73 0,40 32,72 72,72 41,0 73,-32 73,-72 0,-40 -32,-73 -73,-73m41 280c1,-27 -30,-47 -42,-48 -40,0 -72,32 -72,73 0,40 32,72 72,72 40,0 73,-32 73,-72 0,-41 -33,-73 -73,-73m4 3519c-7,-14 -12,-24 -32,-24l-17 0c-15,0 -27,12 -27,27l0 139c0,15 12,27 27,27l91 0c15,0 27,-12 27,-27l0 -139c0,-15 -12,-27 -27,-27l-74 0"/>
 </g>
</svg>
