<?xml version="1.0" encoding="UTF-8"?>
<!DOCTYPE svg PUBLIC "-//W3C//DTD SVG 1.1//EN" "http://www.w3.org/Graphics/SVG/1.1/DTD/svg11.dtd">
<!-- Creator: CorelDRAW X8 -->
<svg xmlns="http://www.w3.org/2000/svg" xml:space="preserve" width="40mm" height="60mm" version="1.1" style="shape-rendering:geometricPrecision; text-rendering:geometricPrecision; image-rendering:optimizeQuality; fill-rule:evenodd; clip-rule:evenodd"
viewBox="0 0 4000 6000"
 xmlns:xlink="http://www.w3.org/1999/xlink">
 <defs>
  <style type="text/css">
   <![CDATA[
    .str0 {stroke:black;stroke-width:10}
    .fil0 {fill:none}
   ]]>
  </style>
 </defs>
 <g id="图层_x0020_1">
  <metadata id="CorelCorpID_0Corel-Layer"/>
  <path class="fil0 str0" d="M948 5350l1949 0c137,0 249,-112 249,-249l0 -4202c0,-137 -112,-249 -249,-249l-1794 0c-137,0 -249,112 -249,249l0 4202c0,137 112,249 249,249l146 0m57 -4641c-1,-15 -14,-28 -40,-30 -94,0 -170,76 -170,169 0,94 76,170 170,170 93,0 169,-76 169,-170 0,-93 -76,-169 -169,-169m442 110c0,-6 -5,-12 -16,-13 -40,0 -72,32 -72,72 0,39 32,71 72,71 39,0 71,-32 71,-71 0,-40 -32,-72 -71,-72m-172 47c-1,-3 -3,-5 -7,-6 -17,0 -30,14 -30,30 0,17 13,30 30,30 16,0 29,-13 29,-30 0,-16 -13,-30 -29,-30"/>
 </g>
</svg>
