<?xml version="1.0" encoding="UTF-8"?>
<!DOCTYPE svg PUBLIC "-//W3C//DTD SVG 1.1//EN" "http://www.w3.org/Graphics/SVG/1.1/DTD/svg11.dtd">
<!-- Creator: CorelDRAW X8 -->
<svg xmlns="http://www.w3.org/2000/svg" xml:space="preserve" width="40mm" height="60mm" version="1.1" style="shape-rendering:geometricPrecision; text-rendering:geometricPrecision; image-rendering:optimizeQuality; fill-rule:evenodd; clip-rule:evenodd"
viewBox="0 0 4000 6000"
 xmlns:xlink="http://www.w3.org/1999/xlink">
 <defs>
  <style type="text/css">
   <![CDATA[
    .str0 {stroke:black;stroke-width:7.62;stroke-linejoin:bevel}
    .fil0 {fill:none}
   ]]>
  </style>
 </defs>
 <g id="图层_x0020_1">
  <metadata id="CorelCorpID_0Corel-Layer"/>
  <path class="fil0 str0" d="M2680 650l-1332 0c-8,0 -16,3 -22,9 -6,6 -10,15 -10,23l0 165c0,18 -14,32 -32,32 -94,-2 -186,33 -254,99 -68,66 -106,156 -106,251l0 10c0,17 -14,32 -32,32l-153 0c-12,0 -25,5 -34,14 -9,9 -14,21 -14,34l0 477c0,13 5,25 14,34 9,9 22,14 34,14l105 0c13,0 25,5 34,14 9,9 14,21 14,34l0 486c0,26 -22,48 -48,48l-105 0c-12,0 -25,5 -34,14 -9,9 -14,21 -14,34l0 276c0,13 5,25 14,34 9,9 22,14 34,14l105 0c13,0 25,5 34,14 9,9 14,22 14,34l0 477c0,27 -22,49 -48,49l-105 0c-12,0 -25,5 -34,14 -9,9 -14,21 -14,34l0 1496c0,9 4,17 10,23 6,6 14,9 22,9l169 0c8,0 17,4 23,10 6,6 9,14 9,22 -5,96 29,190 95,260 66,70 158,110 255,110l1459 0c96,0 188,-40 254,-110 66,-70 101,-164 95,-260 0,-8 4,-16 10,-22 6,-6 14,-10 22,-10l163 0c8,0 16,-3 22,-9 6,-6 10,-14 10,-23l0 -2327c0,-9 -4,-17 -10,-23 -6,-6 -14,-9 -22,-9l-131 0c-9,0 -17,-4 -23,-10 -6,-6 -9,-14 -9,-22l0 -1071c0,-9 3,-17 9,-23 6,-6 14,-9 23,-9l131 0c8,0 16,-4 22,-10 6,-6 10,-14 10,-23l0 -86c0,-9 -4,-17 -10,-23 -6,-6 -14,-9 -22,-9l-163 0c-9,0 -17,-4 -23,-10 -6,-6 -9,-14 -9,-22l0 -10c0,-189 -150,-343 -338,-350 -8,0 -17,-3 -23,-9 -6,-6 -9,-14 -9,-23l0 -165c0,-8 -3,-17 -9,-23 -6,-6 -15,-9 -23,-9zm-1623 969c0,105 85,189 189,189 104,0 189,-84 189,-189l0 -418c0,-68 -36,-130 -95,-164 -58,-33 -130,-33 -189,0 -58,34 -94,96 -94,164l0 418z"/>
 </g>
</svg>
