<?xml version="1.0" encoding="UTF-8"?>
<!DOCTYPE svg PUBLIC "-//W3C//DTD SVG 1.1//EN" "http://www.w3.org/Graphics/SVG/1.1/DTD/svg11.dtd">
<!-- Creator: CorelDRAW X8 -->
<svg xmlns="http://www.w3.org/2000/svg" xml:space="preserve" width="40mm" height="60mm" version="1.1" style="shape-rendering:geometricPrecision; text-rendering:geometricPrecision; image-rendering:optimizeQuality; fill-rule:evenodd; clip-rule:evenodd"
viewBox="0 0 4000 6000"
 xmlns:xlink="http://www.w3.org/1999/xlink">
 <defs>
  <style type="text/css">
   <![CDATA[
    .str0 {stroke:black;stroke-width:7.62}
    .fil0 {fill:none}
   ]]>
  </style>
 </defs>
 <g id="图层_x0020_1">
  <metadata id="CorelCorpID_0Corel-Layer"/>
  <path class="fil0 str0" d="M1190 5350c-7,-11 -21,-23 -39,-23l-21 0c-93,0 -169,-76 -169,-169l0 -4339c0,-93 76,-169 169,-169l622 0 142 0c12,0 23,9 23,29l0 14c0,48 38,87 86,87l0 0c48,0 87,-39 87,-87l0 -17c0,-19 11,-26 24,-26l146 0 610 0c93,0 169,76 169,169l0 4339c0,93 -76,169 -169,169l-1835 0"/>
 </g>
</svg>
