<?xml version="1.0" encoding="UTF-8"?>
<!DOCTYPE svg PUBLIC "-//W3C//DTD SVG 1.1//EN" "http://www.w3.org/Graphics/SVG/1.1/DTD/svg11.dtd">
<!-- Creator: CorelDRAW 2020 (64-Bit) -->
<svg xmlns="http://www.w3.org/2000/svg" xml:space="preserve" width="40mm" height="60mm" version="1.1" style="shape-rendering:geometricPrecision; text-rendering:geometricPrecision; image-rendering:optimizeQuality; fill-rule:evenodd; clip-rule:evenodd"
viewBox="0 0 4000 6000"
 xmlns:xlink="http://www.w3.org/1999/xlink"
 xmlns:xodm="http://www.corel.com/coreldraw/odm/2003">
 <defs>
  <style type="text/css">
   <![CDATA[
    .str0 {stroke:#222222;stroke-width:20;stroke-miterlimit:22.9256}
    .fil0 {fill:none;fill-rule:nonzero}
    .fil1 {fill:#222222;fill-rule:nonzero}
   ]]>
  </style>
 </defs>
 <g id="图层_x0020_1">
  <metadata id="CorelCorpID_0Corel-Layer"/>
  <path class="fil0 str0" d="M-26632.21 -4923.42l2984.68 0c413.25,0 762.68,268.28 869.43,667.52 51.33,192.02 227.05,334.12 434.84,334.12l0.03 0c195.65,0 362.83,-126.01 424.57,-300.99 129.29,-366.57 460.02,-600.64 848.75,-600.64l5344.65 0c388.69,0 719.46,234.07 848.75,600.6 61.7,175.02 228.92,301.03 424.57,301.03l0 0c207.82,0 383.5,-142.1 434.83,-334.12 106.75,-399.24 456.21,-667.52 869.46,-667.52l2515.44 0 0 1725.33c0,413.8 85.27,768.2 273.41,1136.75 121.85,238.62 192.65,523.67 192.65,829.91 0,306.21 -70.8,591.26 -192.65,829.91 -188.14,368.51 -273.41,722.95 -273.41,1136.72l0 308.86c0,413.81 85.27,768.21 273.41,1136.75 121.85,238.62 192.65,523.7 192.65,829.91 0,306.22 -70.8,591.26 -192.65,829.91 -188.14,368.55 -273.41,722.95 -273.41,1136.76l0 403.93c0,413.81 85.27,768.21 273.41,1136.76 121.85,238.62 192.65,523.69 192.65,829.91 0,306.2 -70.8,591.26 -192.65,829.91 -188.14,368.54 -273.41,722.96 -273.41,1136.73l0 1611.94 -2515.76 0c-412.96,0 -762.21,-267.92 -869.21,-666.8 -51.47,-191.82 -227.08,-333.77 -434.76,-333.77l0 0c-195.51,0 -362.62,125.85 -424.43,300.65 -129.54,366.2 -460.09,599.92 -848.5,599.92l-5345.43 0c-388.44,0 -719,-233.72 -848.5,-599.92 -61.84,-174.82 -228.95,-300.65 -424.43,-300.65l-0.03 0c-207.68,0 -383.3,141.95 -434.73,333.77 -107,398.87 -456.27,666.8 -869.25,666.8l-2984.97 0 0 -1620.43c0,-411.73 84.41,-764.4 270.76,-1131.55 120.8,-237.98 190.95,-521.82 190.95,-826.6 0,-304.8 -70.17,-588.65 -190.95,-826.63 -186.35,-367.14 -270.76,-719.81 -270.76,-1131.54l0 -420.93c0,-411.76 84.41,-764.4 270.76,-1131.54 120.8,-238.02 190.95,-521.83 190.95,-826.63 0,-304.8 -70.17,-588.64 -190.95,-826.62 -186.35,-367.14 -270.76,-719.81 -270.76,-1131.54l0 -325.82c0,-411.77 84.41,-764.4 270.76,-1131.57 120.8,-237.99 190.95,-521.83 190.95,-826.6 0,-304.8 -70.17,-588.64 -190.95,-826.63 -186.35,-367.13 -270.76,-719.81 -270.76,-1131.53l0 -1733.83z"/>
  <path class="fil0 str0" d="M-18393.67 -4420.12c110.45,0 200.03,89.54 200.03,199.99 0,110.46 -89.58,199.99 -200.03,199.99 -110.45,0 -199.99,-89.53 -199.99,-199.99 0,-110.45 89.54,-199.99 199.99,-199.99z"/>
  <path class="fil0 str0" d="M-13015.78 -4463.86l1050 0c329.99,0 600.01,270.02 600.01,600l0 2600.01c0,329.99 -270.02,600.01 -600.01,600.01l-1050 0c-329.99,0 -599.97,-270.02 -599.97,-600.01l0 -2600.01c0,-329.98 269.98,-600 599.97,-600z"/>
  <path class="fil0 str0" d="M-22445.43 -2048.18l0 0c96.38,0 174.98,78.6 174.98,174.98l0 1650.01c0,96.38 -78.6,175.01 -174.98,175.01l0 0c-96.41,0 -175.01,-78.63 -175.01,-175.01l0 -1650.01c0,-96.38 78.6,-174.98 175.01,-174.98z"/>
  <path class="fil0 str0" d="M-14370.31 -1814.22l0 0c82.62,0 150,67.38 150,150l0 1899.99c0,82.62 -67.38,150.01 -150,150.01l0 0c-82.62,0 -150,-67.39 -150,-150.01l0 -1899.99c0,-82.62 67.38,-150 150,-150z"/>
  <path class="fil0 str0" d="M-14370.31 890.64l0 0c137.69,0 250.01,112.32 250.01,250.01l0 1350.01c0,137.69 -112.32,249.98 -250.01,249.98l0 0c-137.69,0 -249.98,-112.29 -249.98,-249.98l0 -1350.01c0,-137.69 112.29,-250.01 249.98,-250.01z"/>
  <g id="_1797082517216">
   <g>
    <path class="fil1" d="M853.35 1286.37l-648.33 0 0 -4.34 648.33 0 0 0 0 4.34zm190.96 142.27l-4.2 1.12 0 0 -2.3 -7.96 -2.61 -7.79 -2.88 -7.62 -3.18 -7.43 -3.45 -7.23 -3.73 -7.06 -3.99 -6.85 -4.24 -6.66 -4.49 -6.44 -4.73 -6.23 -4.97 -6.01 -5.2 -5.79 -5.41 -5.55 -5.63 -5.32 -5.84 -5.08 -6.03 -4.84 -6.23 -4.58 -6.42 -4.32 -6.59 -4.08 -6.77 -3.79 -6.93 -3.52 -7.09 -3.26 -7.24 -2.95 -7.39 -2.68 -7.52 -2.39 -7.65 -2.07 -7.77 -1.78 -7.89 -1.47 -8 -1.14 -8.11 -0.82 -8.2 -0.51 -8.28 -0.17 0 -4.34 8.46 0.17 8.38 0.51 8.27 0.84 8.18 1.18 8.07 1.49 7.95 1.82 7.81 2.13 7.7 2.43 7.55 2.74 7.4 3.03 7.25 3.32 7.09 3.6 6.93 3.89 6.75 4.16 6.56 4.42 6.37 4.7 6.17 4.94 5.98 5.2 5.75 5.44 5.55 5.69 5.32 5.91 5.07 6.15 4.85 6.37 4.59 6.6 4.34 6.8 4.07 7.01 3.81 7.2 3.53 7.41 3.24 7.59 2.96 7.78 2.65 7.95 2.36 8.14 0 0zm92.36 70.97l0 4.34 0 0 -4.3 -0.09 -4.27 -0.28 -4.21 -0.45 -4.15 -0.62 -4.1 -0.79 -4.04 -0.96 -3.98 -1.12 -3.9 -1.29 -3.84 -1.43 -3.76 -1.59 -3.69 -1.73 -3.58 -1.89 -3.52 -2.01 -3.42 -2.16 -3.33 -2.28 -3.23 -2.42 -3.11 -2.53 -3.03 -2.67 -2.91 -2.78 -2.79 -2.89 -2.69 -2.99 -2.55 -3.11 -2.45 -3.22 -2.3 -3.3 -2.17 -3.41 -2.05 -3.49 -1.9 -3.59 -1.76 -3.67 -1.61 -3.74 -1.46 -3.83 -1.31 -3.89 -1.15 -3.97 4.2 -1.12 1.09 3.79 1.25 3.73 1.4 3.65 1.55 3.58 1.68 3.51 1.82 3.43 1.95 3.35 2.09 3.25 2.2 3.16 2.33 3.08 2.45 2.97 2.57 2.87 2.67 2.77 2.79 2.66 2.89 2.55 2.99 2.43 3.09 2.3 3.19 2.2 3.26 2.06 3.36 1.93 3.44 1.79 3.53 1.67 3.58 1.51 3.68 1.37 3.74 1.23 3.8 1.08 3.86 0.92 3.92 0.75 3.97 0.6 4.03 0.43 4.07 0.26 4.12 0.09 0 0zm0 2.17l0 0 0 0 0 0 0 -2.17 0 2.17zm90.18 -66.1l4.1 1.44 0 0 -1.35 3.61 -1.49 3.55 -1.62 3.48 -1.75 3.39 -1.87 3.32 -1.99 3.25 -2.11 3.16 -2.23 3.08 -2.33 2.98 -2.45 2.9 -2.55 2.8 -2.66 2.7 -2.75 2.6 -2.86 2.5 -2.94 2.38 -3.04 2.28 -3.12 2.17 -3.21 2.04 -3.28 1.93 -3.37 1.81 -3.44 1.68 -3.51 1.54 -3.58 1.42 -3.65 1.28 -3.7 1.15 -3.78 0.99 -3.81 0.86 -3.87 0.7 -3.93 0.56 -3.98 0.4 -4 0.24 -4.06 0.08 0 -4.34 3.88 -0.08 3.84 -0.24 3.8 -0.38 3.75 -0.52 3.71 -0.68 3.65 -0.82 3.6 -0.95 3.54 -1.09 3.49 -1.22 3.42 -1.36 3.37 -1.48 3.28 -1.6 3.23 -1.73 3.14 -1.85 3.07 -1.96 2.98 -2.07 2.9 -2.18 2.82 -2.28 2.74 -2.4 2.63 -2.48 2.54 -2.58 2.45 -2.68 2.33 -2.78 2.25 -2.86 2.13 -2.94 2.01 -3.02 1.91 -3.11 1.79 -3.18 1.67 -3.25 1.54 -3.32 1.43 -3.39 1.29 -3.45 0 0zm186.41 -131.92l0 4.34 0 0 -7.8 0.15 -7.72 0.44 -7.62 0.72 -7.54 1.01 -7.45 1.28 -7.34 1.57 -7.24 1.83 -7.12 2.09 -7 2.35 -6.88 2.62 -6.75 2.88 -6.62 3.13 -6.46 3.36 -6.33 3.62 -6.18 3.84 -6.02 4.08 -5.85 4.32 -5.68 4.54 -5.51 4.76 -5.33 4.99 -5.15 5.2 -4.95 5.41 -4.75 5.61 -4.55 5.82 -4.36 6.03 -4.13 6.21 -3.9 6.41 -3.69 6.58 -3.46 6.78 -3.22 6.96 -2.98 7.13 -2.73 7.3 -4.1 -1.44 2.79 -7.46 3.04 -7.29 3.3 -7.1 3.52 -6.92 3.77 -6.74 4 -6.55 4.23 -6.35 4.44 -6.15 4.65 -5.96 4.87 -5.75 5.07 -5.53 5.27 -5.32 5.45 -5.09 5.63 -4.88 5.82 -4.64 5.99 -4.42 6.16 -4.18 6.32 -3.94 6.47 -3.7 6.62 -3.44 6.76 -3.19 6.91 -2.94 7.04 -2.68 7.16 -2.41 7.28 -2.15 7.4 -1.87 7.5 -1.59 7.61 -1.32 7.7 -1.03 7.8 -0.74 7.88 -0.44 7.96 -0.15 0 0zm1160.97 4.34l-1160.97 0 0 -4.34 1160.97 0 0 0 0 4.34zm186.42 127.57l-4.1 1.44 0 0 -2.73 -7.3 -2.98 -7.13 -3.22 -6.96 -3.46 -6.78 -3.68 -6.58 -3.92 -6.41 -4.13 -6.21 -4.36 -6.01 -4.55 -5.83 -4.75 -5.61 -4.95 -5.41 -5.15 -5.2 -5.33 -4.99 -5.51 -4.76 -5.69 -4.54 -5.86 -4.32 -6 -4.08 -6.18 -3.84 -6.33 -3.62 -6.47 -3.37 -6.62 -3.12 -6.74 -2.88 -6.88 -2.62 -7 -2.35 -7.13 -2.09 -7.23 -1.83 -7.34 -1.57 -7.45 -1.28 -7.54 -1.01 -7.62 -0.72 -7.72 -0.44 -7.8 -0.15 0 -4.34 7.96 0.15 7.88 0.44 7.8 0.74 7.7 1.03 7.61 1.32 7.5 1.59 7.39 1.87 7.29 2.15 7.16 2.41 7.04 2.68 6.9 2.94 6.76 3.18 6.63 3.45 6.47 3.7 6.32 3.94 6.16 4.18 5.98 4.42 5.83 4.64 5.63 4.88 5.45 5.09 5.27 5.32 5.07 5.53 4.87 5.75 4.65 5.95 4.44 6.15 4.23 6.35 4 6.55 3.78 6.74 3.52 6.92 3.3 7.1 3.04 7.29 2.79 7.46 0 0zm90.17 63.94l0 4.34 0 0 -4.06 -0.08 -4 -0.24 -3.98 -0.4 -3.93 -0.56 -3.87 -0.7 -3.81 -0.86 -3.78 -0.99 -3.7 -1.15 -3.65 -1.28 -3.58 -1.42 -3.52 -1.54 -3.43 -1.69 -3.36 -1.8 -3.29 -1.93 -3.21 -2.04 -3.12 -2.17 -3.04 -2.28 -2.94 -2.38 -2.85 -2.5 -2.76 -2.6 -2.66 -2.71 -2.54 -2.8 -2.45 -2.89 -2.34 -2.98 -2.22 -3.08 -2.12 -3.17 -1.98 -3.24 -1.87 -3.32 -1.75 -3.41 -1.62 -3.47 -1.49 -3.55 -1.35 -3.61 4.1 -1.44 1.29 3.45 1.43 3.39 1.54 3.33 1.67 3.25 1.79 3.18 1.9 3.1 2.02 3.03 2.14 2.94 2.22 2.86 2.35 2.77 2.44 2.68 2.54 2.59 2.64 2.48 2.73 2.4 2.82 2.28 2.9 2.18 2.98 2.07 3.07 1.96 3.15 1.85 3.22 1.72 3.29 1.61 3.36 1.48 3.42 1.36 3.49 1.22 3.54 1.09 3.6 0.95 3.65 0.82 3.71 0.68 3.75 0.52 3.8 0.38 3.84 0.24 3.88 0.08 0 0zm0 2.17l0 0 0 0 0 0 0 -2.17 0 2.17zm92.35 -73.14l4.2 1.12 0 0 -1.15 3.97 -1.31 3.89 -1.46 3.83 -1.61 3.74 -1.76 3.67 -1.9 3.58 -2.04 3.5 -2.17 3.41 -2.31 3.3 -2.44 3.22 -2.56 3.11 -2.68 2.99 -2.8 2.89 -2.91 2.78 -3.02 2.67 -3.13 2.53 -3.22 2.41 -3.32 2.29 -3.42 2.16 -3.52 2.02 -3.59 1.88 -3.68 1.73 -3.77 1.59 -3.83 1.43 -3.9 1.29 -3.98 1.12 -4.04 0.96 -4.1 0.79 -4.15 0.62 -4.21 0.45 -4.27 0.28 -4.3 0.09 0 -4.34 4.12 -0.09 4.07 -0.26 4.03 -0.43 3.97 -0.6 3.92 -0.75 3.86 -0.92 3.8 -1.08 3.74 -1.23 3.67 -1.37 3.59 -1.51 3.52 -1.67 3.45 -1.8 3.36 -1.92 3.26 -2.06 3.18 -2.19 3.1 -2.31 2.99 -2.43 2.88 -2.55 2.79 -2.66 2.68 -2.77 2.56 -2.87 2.46 -2.97 2.32 -3.08 2.21 -3.16 2.09 -3.25 1.94 -3.34 1.82 -3.44 1.68 -3.51 1.55 -3.58 1.4 -3.65 1.25 -3.73 1.09 -3.79 0 0zm190.97 -146.61l0 4.34 0 0 -8.28 0.17 -8.2 0.51 -8.11 0.82 -8 1.14 -7.89 1.47 -7.77 1.78 -7.66 2.07 -7.51 2.39 -7.39 2.68 -7.24 2.95 -7.09 3.26 -6.93 3.52 -6.77 3.79 -6.59 4.08 -6.42 4.32 -6.23 4.58 -6.04 4.84 -5.83 5.08 -5.64 5.32 -5.41 5.55 -5.19 5.79 -4.98 6.01 -4.73 6.23 -4.49 6.44 -4.24 6.66 -3.99 6.85 -3.73 7.06 -3.45 7.23 -3.18 7.43 -2.88 7.62 -2.61 7.79 -2.3 7.96 -4.2 -1.12 2.36 -8.14 2.65 -7.95 2.96 -7.78 3.24 -7.59 3.53 -7.41 3.81 -7.2 4.07 -7.01 4.34 -6.8 4.59 -6.6 4.85 -6.37 5.08 -6.15 5.31 -5.91 5.55 -5.69 5.76 -5.44 5.97 -5.2 6.18 -4.94 6.37 -4.7 6.56 -4.42 6.75 -4.16 6.93 -3.89 7.09 -3.6 7.25 -3.32 7.4 -3.03 7.55 -2.74 7.69 -2.43 7.82 -2.13 7.95 -1.82 8.07 -1.49 8.18 -1.18 8.27 -0.84 8.38 -0.51 8.46 -0.17 0 0zm546.4 4.34l-546.4 0 0 -4.34 546.4 0 2.17 2.17 -2.17 2.17zm0 -4.34l2.17 0 0 2.17 -2.17 -2.17zm-2.17 376.95l0 -374.78 4.34 0 0 374.78 0 0 -4.34 0zm63.49 245.93l-3.86 1.98 0 0 -3.79 -7.53 -3.64 -7.5 -3.52 -7.5 -3.39 -7.49 -3.26 -7.48 -3.13 -7.47 -3.01 -7.48 -2.88 -7.49 -2.75 -7.49 -2.63 -7.5 -2.52 -7.5 -2.38 -7.53 -2.26 -7.54 -2.13 -7.56 -2.01 -7.59 -1.9 -7.6 -1.77 -7.65 -1.66 -7.67 -1.53 -7.7 -1.42 -7.74 -1.31 -7.79 -1.18 -7.83 -1.06 -7.87 -0.96 -7.93 -0.83 -7.97 -0.72 -8.03 -0.62 -8.08 -0.49 -8.15 -0.39 -8.21 -0.27 -8.27 -0.17 -8.35 -0.05 -8.42 4.34 0 0.05 8.36 0.17 8.29 0.27 8.21 0.39 8.15 0.49 8.09 0.6 8.02 0.72 7.97 0.83 7.91 0.94 7.85 1.06 7.81 1.18 7.77 1.29 7.71 1.4 7.68 1.53 7.64 1.64 7.61 1.75 7.57 1.88 7.54 2.01 7.53 2.11 7.48 2.24 7.48 2.36 7.47 2.48 7.44 2.61 7.44 2.73 7.43 2.86 7.41 2.99 7.42 3.11 7.43 3.24 7.42 3.35 7.43 3.5 7.44 3.62 7.46 3.75 7.47 0 0zm42.09 181.27l-4.34 0 0 0 -0.04 -6.19 -0.14 -6.17 -0.22 -6.14 -0.31 -6.09 -0.4 -6.08 -0.47 -6.04 -0.57 -6.01 -0.66 -5.98 -0.72 -5.94 -0.82 -5.9 -0.9 -5.87 -0.98 -5.82 -1.06 -5.79 -1.14 -5.75 -1.22 -5.71 -1.29 -5.67 -1.38 -5.62 -1.45 -5.58 -1.52 -5.54 -1.6 -5.49 -1.67 -5.44 -1.74 -5.4 -1.82 -5.33 -1.89 -5.3 -1.97 -5.24 -2.03 -5.19 -2.09 -5.14 -2.17 -5.09 -2.24 -5.03 -2.3 -4.97 -2.37 -4.92 -2.43 -4.86 3.86 -1.98 2.47 4.92 2.39 4.98 2.34 5.03 2.26 5.09 2.19 5.15 2.13 5.2 2.05 5.25 1.99 5.3 1.91 5.36 1.84 5.41 1.76 5.46 1.69 5.5 1.62 5.55 1.54 5.6 1.47 5.64 1.38 5.68 1.31 5.73 1.24 5.77 1.14 5.81 1.08 5.85 0.98 5.9 0.92 5.93 0.82 5.96 0.74 6 0.66 6.04 0.57 6.07 0.49 6.1 0.4 6.14 0.31 6.17 0.22 6.2 0.14 6.23 0.04 6.25 0 0zm-42.09 181.26l-3.86 -1.98 0 0 2.43 -4.86 2.37 -4.92 2.3 -4.97 2.24 -5.03 2.17 -5.09 2.09 -5.14 2.03 -5.19 1.97 -5.24 1.89 -5.29 1.82 -5.35 1.74 -5.39 1.67 -5.44 1.6 -5.49 1.52 -5.54 1.45 -5.58 1.38 -5.62 1.29 -5.67 1.22 -5.71 1.14 -5.75 1.06 -5.79 0.98 -5.82 0.9 -5.87 0.82 -5.9 0.72 -5.94 0.66 -5.98 0.57 -6.01 0.47 -6.04 0.4 -6.07 0.31 -6.1 0.22 -6.13 0.14 -6.17 0.04 -6.19 4.34 0 -0.04 6.25 -0.14 6.23 -0.22 6.19 -0.31 6.18 -0.4 6.13 -0.49 6.1 -0.57 6.07 -0.66 6.04 -0.74 6 -0.82 5.96 -0.92 5.93 -0.98 5.9 -1.08 5.85 -1.14 5.81 -1.24 5.77 -1.31 5.73 -1.38 5.68 -1.47 5.64 -1.54 5.6 -1.62 5.55 -1.69 5.5 -1.76 5.45 -1.84 5.41 -1.91 5.37 -1.99 5.3 -2.05 5.25 -2.13 5.2 -2.19 5.15 -2.26 5.09 -2.34 5.03 -2.39 4.98 -2.47 4.92 0 0zm-59.15 245.93l-4.34 0 0 0 0.05 -8.42 0.17 -8.35 0.27 -8.27 0.39 -8.21 0.49 -8.15 0.62 -8.08 0.72 -8.03 0.83 -7.97 0.96 -7.93 1.06 -7.87 1.18 -7.83 1.31 -7.79 1.42 -7.74 1.53 -7.7 1.66 -7.67 1.77 -7.65 1.9 -7.6 2.01 -7.59 2.13 -7.56 2.26 -7.54 2.38 -7.53 2.52 -7.5 2.63 -7.5 2.75 -7.49 2.88 -7.49 3.01 -7.48 3.13 -7.47 3.26 -7.48 3.39 -7.49 3.52 -7.5 3.64 -7.5 3.79 -7.53 3.86 1.98 -3.75 7.47 -3.62 7.46 -3.5 7.44 -3.35 7.43 -3.24 7.42 -3.11 7.43 -2.99 7.42 -2.86 7.41 -2.73 7.43 -2.61 7.44 -2.48 7.44 -2.36 7.47 -2.24 7.48 -2.11 7.48 -2.01 7.53 -1.88 7.54 -1.75 7.57 -1.64 7.61 -1.53 7.64 -1.4 7.68 -1.29 7.71 -1.18 7.77 -1.06 7.81 -0.94 7.85 -0.83 7.91 -0.72 7.97 -0.6 8.02 -0.49 8.09 -0.39 8.15 -0.27 8.21 -0.17 8.29 -0.05 8.36 0 0zm-4.34 67.09l0 -67.09 4.34 0 0 67.09 0 0 -4.34 0zm63.49 245.93l-3.86 1.98 0 0 -3.79 -7.53 -3.64 -7.5 -3.52 -7.5 -3.39 -7.49 -3.26 -7.48 -3.13 -7.47 -3.01 -7.48 -2.88 -7.49 -2.75 -7.49 -2.63 -7.5 -2.52 -7.5 -2.38 -7.52 -2.26 -7.54 -2.13 -7.57 -2.01 -7.58 -1.9 -7.61 -1.77 -7.65 -1.66 -7.66 -1.53 -7.71 -1.42 -7.74 -1.31 -7.79 -1.18 -7.82 -1.06 -7.87 -0.96 -7.93 -0.83 -7.98 -0.72 -8.02 -0.62 -8.09 -0.49 -8.15 -0.39 -8.21 -0.27 -8.27 -0.17 -8.35 -0.05 -8.42 4.34 0 0.05 8.36 0.17 8.29 0.27 8.21 0.39 8.15 0.49 8.09 0.6 8.03 0.72 7.96 0.83 7.92 0.94 7.85 1.06 7.81 1.18 7.76 1.29 7.71 1.4 7.68 1.53 7.65 1.64 7.6 1.75 7.57 1.88 7.55 2.01 7.52 2.11 7.49 2.24 7.48 2.36 7.46 2.48 7.44 2.61 7.44 2.73 7.43 2.86 7.41 2.99 7.42 3.11 7.43 3.24 7.42 3.35 7.43 3.5 7.44 3.62 7.46 3.75 7.47 0 0zm42.09 181.27l-4.34 0 0 0 -0.04 -6.19 -0.14 -6.17 -0.22 -6.13 -0.31 -6.1 -0.4 -6.07 -0.47 -6.05 -0.57 -6.01 -0.66 -5.97 -0.72 -5.94 -0.82 -5.91 -0.9 -5.87 -0.98 -5.82 -1.06 -5.79 -1.14 -5.75 -1.22 -5.71 -1.29 -5.67 -1.38 -5.62 -1.45 -5.58 -1.52 -5.54 -1.6 -5.49 -1.67 -5.44 -1.74 -5.39 -1.82 -5.35 -1.89 -5.29 -1.97 -5.24 -2.03 -5.19 -2.09 -5.14 -2.17 -5.09 -2.24 -5.03 -2.3 -4.97 -2.37 -4.92 -2.43 -4.86 3.86 -1.98 2.47 4.92 2.39 4.98 2.34 5.03 2.26 5.09 2.19 5.15 2.13 5.2 2.05 5.25 1.99 5.3 1.91 5.37 1.84 5.41 1.76 5.45 1.69 5.5 1.62 5.55 1.54 5.6 1.47 5.64 1.38 5.68 1.31 5.73 1.24 5.77 1.14 5.81 1.08 5.85 0.98 5.9 0.92 5.93 0.82 5.97 0.74 6 0.66 6.03 0.57 6.07 0.49 6.11 0.4 6.13 0.31 6.18 0.22 6.19 0.14 6.23 0.04 6.25 0 0zm-42.09 181.26l-3.86 -1.98 0 0 2.43 -4.86 2.37 -4.92 2.3 -4.97 2.24 -5.03 2.17 -5.09 2.09 -5.14 2.03 -5.19 1.97 -5.24 1.89 -5.29 1.82 -5.35 1.74 -5.39 1.67 -5.44 1.6 -5.49 1.52 -5.54 1.45 -5.58 1.38 -5.62 1.29 -5.67 1.22 -5.71 1.14 -5.75 1.06 -5.79 0.98 -5.82 0.9 -5.87 0.82 -5.9 0.72 -5.94 0.66 -5.98 0.57 -6.01 0.47 -6.04 0.4 -6.07 0.31 -6.1 0.22 -6.13 0.14 -6.17 0.04 -6.19 4.34 0 -0.04 6.25 -0.14 6.23 -0.22 6.19 -0.31 6.18 -0.4 6.13 -0.49 6.1 -0.57 6.07 -0.66 6.04 -0.74 6 -0.82 5.96 -0.92 5.93 -0.98 5.9 -1.08 5.85 -1.14 5.81 -1.24 5.77 -1.31 5.73 -1.38 5.68 -1.47 5.64 -1.54 5.6 -1.62 5.55 -1.69 5.5 -1.76 5.45 -1.84 5.41 -1.91 5.37 -1.99 5.3 -2.05 5.25 -2.13 5.2 -2.19 5.15 -2.26 5.09 -2.34 5.03 -2.39 4.98 -2.47 4.92 0 0zm-59.15 245.94l-4.34 0 0 0 0.05 -8.42 0.17 -8.35 0.27 -8.27 0.39 -8.21 0.49 -8.15 0.62 -8.09 0.72 -8.02 0.83 -7.98 0.96 -7.93 1.06 -7.87 1.18 -7.82 1.31 -7.79 1.42 -7.74 1.53 -7.71 1.66 -7.66 1.77 -7.65 1.9 -7.61 2.01 -7.58 2.13 -7.57 2.26 -7.54 2.38 -7.52 2.52 -7.51 2.63 -7.49 2.75 -7.49 2.88 -7.5 3.01 -7.48 3.13 -7.47 3.26 -7.48 3.39 -7.49 3.52 -7.5 3.64 -7.5 3.79 -7.53 3.86 1.98 -3.75 7.47 -3.62 7.46 -3.5 7.44 -3.35 7.43 -3.24 7.42 -3.11 7.43 -2.99 7.42 -2.86 7.42 -2.73 7.43 -2.61 7.43 -2.48 7.45 -2.36 7.46 -2.24 7.48 -2.11 7.49 -2.01 7.52 -1.88 7.55 -1.75 7.57 -1.64 7.6 -1.53 7.65 -1.4 7.68 -1.29 7.71 -1.18 7.76 -1.06 7.81 -0.94 7.85 -0.83 7.92 -0.72 7.96 -0.6 8.03 -0.49 8.09 -0.39 8.15 -0.27 8.21 -0.17 8.29 -0.05 8.36 0 0zm-4.34 87.74l0 -87.74 4.34 0 0 87.74 0 0 -4.34 0zm63.49 245.94l-3.86 1.98 0 0 -3.79 -7.53 -3.64 -7.5 -3.52 -7.5 -3.39 -7.49 -3.26 -7.48 -3.13 -7.47 -3.01 -7.48 -2.88 -7.5 -2.75 -7.49 -2.63 -7.49 -2.52 -7.51 -2.38 -7.52 -2.26 -7.54 -2.13 -7.57 -2.01 -7.58 -1.9 -7.61 -1.77 -7.65 -1.66 -7.66 -1.53 -7.71 -1.42 -7.74 -1.31 -7.79 -1.18 -7.82 -1.06 -7.87 -0.96 -7.93 -0.83 -7.98 -0.72 -8.02 -0.62 -8.09 -0.49 -8.15 -0.39 -8.21 -0.27 -8.27 -0.17 -8.35 -0.05 -8.42 4.34 0 0.05 8.36 0.17 8.29 0.27 8.21 0.39 8.15 0.49 8.09 0.6 8.03 0.72 7.96 0.83 7.92 0.94 7.85 1.06 7.81 1.18 7.76 1.29 7.71 1.4 7.68 1.53 7.65 1.64 7.6 1.75 7.57 1.88 7.55 2.01 7.52 2.11 7.49 2.24 7.48 2.36 7.46 2.48 7.45 2.61 7.43 2.73 7.43 2.86 7.42 2.99 7.42 3.11 7.43 3.24 7.42 3.35 7.43 3.5 7.44 3.62 7.46 3.75 7.47 0 0zm42.09 181.26l-4.34 0 0 0 -0.04 -6.19 -0.14 -6.17 -0.22 -6.13 -0.31 -6.1 -0.4 -6.07 -0.47 -6.05 -0.57 -6.01 -0.66 -5.97 -0.72 -5.94 -0.82 -5.91 -0.9 -5.87 -0.98 -5.81 -1.06 -5.8 -1.14 -5.75 -1.22 -5.71 -1.29 -5.66 -1.38 -5.63 -1.45 -5.58 -1.52 -5.53 -1.6 -5.49 -1.67 -5.45 -1.74 -5.39 -1.82 -5.34 -1.89 -5.29 -1.97 -5.25 -2.03 -5.19 -2.09 -5.14 -2.17 -5.08 -2.24 -5.03 -2.3 -4.97 -2.37 -4.92 -2.43 -4.86 3.86 -1.98 2.47 4.92 2.39 4.98 2.34 5.03 2.26 5.09 2.19 5.14 2.13 5.2 2.05 5.25 1.99 5.31 1.91 5.35 1.84 5.42 1.76 5.45 1.69 5.51 1.62 5.55 1.54 5.59 1.47 5.64 1.38 5.69 1.31 5.72 1.24 5.77 1.14 5.81 1.08 5.86 0.98 5.89 0.92 5.93 0.82 5.97 0.74 6 0.66 6.03 0.57 6.07 0.49 6.11 0.4 6.13 0.31 6.18 0.22 6.19 0.14 6.23 0.04 6.25 0 0zm-42.09 181.26l-3.86 -1.98 0 0 2.43 -4.86 2.37 -4.92 2.3 -4.97 2.24 -5.03 2.17 -5.09 2.09 -5.14 2.03 -5.19 1.97 -5.24 1.89 -5.29 1.82 -5.35 1.74 -5.39 1.67 -5.44 1.6 -5.49 1.52 -5.54 1.45 -5.58 1.38 -5.62 1.29 -5.67 1.22 -5.71 1.14 -5.75 1.06 -5.79 0.98 -5.82 0.9 -5.87 0.82 -5.9 0.72 -5.94 0.66 -5.98 0.57 -6.01 0.47 -6.04 0.4 -6.07 0.31 -6.1 0.22 -6.13 0.14 -6.17 0.04 -6.19 4.34 0 -0.04 6.25 -0.14 6.23 -0.22 6.19 -0.31 6.18 -0.4 6.13 -0.49 6.1 -0.57 6.07 -0.66 6.04 -0.74 6 -0.82 5.96 -0.92 5.93 -0.98 5.9 -1.08 5.85 -1.14 5.81 -1.24 5.77 -1.31 5.73 -1.38 5.68 -1.47 5.64 -1.54 5.6 -1.62 5.55 -1.69 5.5 -1.76 5.45 -1.84 5.41 -1.91 5.37 -1.99 5.3 -2.05 5.25 -2.13 5.2 -2.19 5.15 -2.26 5.09 -2.34 5.03 -2.39 4.98 -2.47 4.92 0 0zm-59.15 245.93l-4.34 0 0 0 0.05 -8.42 0.17 -8.34 0.27 -8.28 0.39 -8.21 0.49 -8.14 0.62 -8.09 0.72 -8.03 0.83 -7.97 0.96 -7.93 1.06 -7.87 1.18 -7.82 1.31 -7.79 1.42 -7.74 1.53 -7.7 1.66 -7.67 1.77 -7.65 1.9 -7.61 2.01 -7.58 2.13 -7.57 2.26 -7.54 2.38 -7.52 2.52 -7.51 2.63 -7.49 2.75 -7.49 2.88 -7.49 3.01 -7.47 3.13 -7.49 3.26 -7.48 3.39 -7.49 3.52 -7.5 3.64 -7.5 3.79 -7.53 3.86 1.98 -3.75 7.47 -3.62 7.46 -3.5 7.44 -3.35 7.43 -3.24 7.42 -3.11 7.43 -2.99 7.43 -2.86 7.41 -2.73 7.43 -2.61 7.43 -2.48 7.45 -2.36 7.46 -2.24 7.48 -2.11 7.49 -2.01 7.52 -1.88 7.55 -1.75 7.57 -1.64 7.61 -1.53 7.64 -1.4 7.68 -1.29 7.71 -1.18 7.76 -1.06 7.81 -0.94 7.85 -0.83 7.91 -0.72 7.97 -0.6 8.03 -0.49 8.08 -0.39 8.15 -0.27 8.22 -0.17 8.28 -0.05 8.36 0 0zm-4.34 350.15l0 -350.15 4.34 0 0 350.15 -2.17 2.17 -2.17 -2.17zm4.34 0l0 2.17 -2.17 0 2.17 -2.17zm-548.64 -2.17l546.47 0 0 4.34 -546.47 0 0 0 0 -4.34zm-190.91 -142.11l4.2 -1.12 0 0 2.3 7.95 2.61 7.78 2.89 7.61 3.19 7.42 3.45 7.24 3.73 7.05 3.98 6.84 4.25 6.64 4.49 6.44 4.73 6.22 4.97 6.01 5.2 5.78 5.41 5.55 5.63 5.31 5.84 5.08 6.03 4.83 6.23 4.57 6.42 4.32 6.59 4.07 6.76 3.79 6.93 3.52 7.08 3.25 7.24 2.95 7.38 2.67 7.52 2.39 7.65 2.07 7.76 1.77 7.89 1.47 8 1.14 8.09 0.83 8.19 0.5 8.28 0.17 0 4.34 -8.46 -0.17 -8.37 -0.5 -8.27 -0.85 -8.16 -1.18 -8.07 -1.49 -7.94 -1.81 -7.81 -2.13 -7.7 -2.43 -7.54 -2.73 -7.4 -3.03 -7.24 -3.31 -7.09 -3.6 -6.92 -3.89 -6.75 -4.15 -6.56 -4.42 -6.37 -4.69 -6.17 -4.93 -5.98 -5.2 -5.75 -5.43 -5.55 -5.69 -5.3 -5.9 -5.09 -6.15 -4.85 -6.36 -4.59 -6.58 -4.33 -6.8 -4.08 -7 -3.81 -7.19 -3.53 -7.4 -3.25 -7.6 -2.97 -7.77 -2.65 -7.94 -2.36 -8.13 0 0zm-92.34 -70.89l0 -4.34 0 0 4.3 0.09 4.26 0.28 4.21 0.45 4.15 0.62 4.1 0.79 4.04 0.96 3.96 1.12 3.91 1.28 3.83 1.43 3.77 1.59 3.67 1.73 3.6 1.87 3.51 2.02 3.41 2.16 3.33 2.27 3.23 2.42 3.12 2.54 3.03 2.66 2.9 2.77 2.8 2.89 2.68 2.99 2.56 3.11 2.44 3.21 2.31 3.3 2.17 3.41 2.05 3.49 1.9 3.58 1.76 3.66 1.61 3.74 1.46 3.83 1.31 3.89 1.16 3.96 -4.2 1.12 -1.1 -3.78 -1.25 -3.73 -1.4 -3.65 -1.55 -3.58 -1.68 -3.5 -1.82 -3.42 -1.95 -3.35 -2.09 -3.25 -2.21 -3.16 -2.32 -3.07 -2.46 -2.97 -2.56 -2.87 -2.68 -2.77 -2.78 -2.65 -2.89 -2.54 -3 -2.44 -3.07 -2.3 -3.19 -2.19 -3.27 -2.06 -3.35 -1.92 -3.44 -1.79 -3.53 -1.67 -3.59 -1.51 -3.67 -1.37 -3.73 -1.22 -3.8 -1.08 -3.86 -0.92 -3.92 -0.75 -3.97 -0.6 -4.03 -0.43 -4.06 -0.26 -4.12 -0.09 0 0zm0 -2.17l0 0 0 0 0 0 0 2.17 0 -2.17zm-90.14 66.02l-4.1 -1.44 0 0 1.35 -3.61 1.49 -3.54 1.62 -3.47 1.75 -3.4 1.87 -3.32 1.99 -3.24 2.12 -3.16 2.22 -3.07 2.34 -2.98 2.44 -2.89 2.55 -2.8 2.66 -2.7 2.75 -2.6 2.85 -2.49 2.94 -2.38 3.04 -2.28 3.12 -2.16 3.21 -2.04 3.28 -1.93 3.37 -1.8 3.44 -1.68 3.5 -1.54 3.58 -1.42 3.65 -1.28 3.7 -1.14 3.77 -1 3.82 -0.85 3.87 -0.7 3.92 -0.56 3.97 -0.4 4.01 -0.24 4.05 -0.08 0 4.34 -3.87 0.08 -3.85 0.24 -3.79 0.38 -3.74 0.52 -3.71 0.68 -3.66 0.81 -3.59 0.96 -3.54 1.08 -3.49 1.22 -3.42 1.36 -3.36 1.48 -3.28 1.6 -3.23 1.72 -3.14 1.85 -3.07 1.96 -2.98 2.06 -2.9 2.18 -2.82 2.28 -2.73 2.39 -2.63 2.48 -2.54 2.58 -2.45 2.68 -2.34 2.77 -2.24 2.86 -2.12 2.93 -2.02 3.02 -1.91 3.1 -1.79 3.18 -1.67 3.26 -1.54 3.31 -1.43 3.38 -1.29 3.45 0 0zm-186.37 131.77l0 -4.34 0 0 7.79 -0.15 7.71 -0.44 7.62 -0.72 7.54 -1.01 7.44 -1.27 7.34 -1.57 7.23 -1.83 7.12 -2.09 6.99 -2.36 6.88 -2.61 6.74 -2.86 6.62 -3.13 6.46 -3.36 6.33 -3.61 6.17 -3.84 6.02 -4.08 5.85 -4.31 5.68 -4.54 5.51 -4.76 5.33 -4.98 5.14 -5.19 4.95 -5.4 4.77 -5.61 4.54 -5.82 4.36 -6.01 4.13 -6.2 3.92 -6.4 3.69 -6.59 3.46 -6.76 3.22 -6.96 2.98 -7.12 2.74 -7.29 4.1 1.44 -2.8 7.45 -3.04 7.28 -3.3 7.1 -3.54 6.92 -3.77 6.73 -4 6.54 -4.23 6.34 -4.44 6.15 -4.66 5.94 -4.87 5.75 -5.07 5.52 -5.26 5.31 -5.45 5.1 -5.63 4.86 -5.82 4.64 -5.99 4.41 -6.16 4.18 -6.31 3.94 -6.47 3.69 -6.62 3.44 -6.76 3.19 -6.9 2.94 -7.04 2.67 -7.15 2.4 -7.28 2.15 -7.39 1.87 -7.5 1.59 -7.6 1.31 -7.7 1.03 -7.8 0.74 -7.87 0.44 -7.95 0.15 0 0zm-1161.13 -4.34l1161.13 0 0 4.34 -1161.13 0 0 0 0 -4.34zm-186.36 -127.43l4.1 -1.44 0 0 2.73 7.29 2.99 7.12 3.22 6.96 3.46 6.76 3.7 6.59 3.9 6.4 4.13 6.2 4.35 6.01 4.56 5.82 4.76 5.61 4.95 5.4 5.14 5.19 5.33 4.98 5.51 4.76 5.68 4.54 5.85 4.31 6.02 4.08 6.17 3.84 6.32 3.61 6.47 3.36 6.62 3.13 6.74 2.86 6.87 2.61 7 2.36 7.12 2.09 7.23 1.83 7.34 1.57 7.44 1.27 7.54 1.01 7.61 0.72 7.72 0.44 7.79 0.15 0 4.34 -7.95 -0.15 -7.88 -0.44 -7.79 -0.74 -7.7 -1.03 -7.6 -1.31 -7.5 -1.59 -7.39 -1.87 -7.28 -2.15 -7.16 -2.4 -7.03 -2.67 -6.9 -2.94 -6.76 -3.19 -6.63 -3.44 -6.46 -3.69 -6.31 -3.94 -6.16 -4.18 -5.99 -4.41 -5.82 -4.64 -5.63 -4.86 -5.45 -5.1 -5.26 -5.31 -5.07 -5.52 -4.86 -5.75 -4.66 -5.94 -4.45 -6.15 -4.23 -6.34 -4 -6.54 -3.76 -6.73 -3.54 -6.92 -3.3 -7.1 -3.05 -7.28 -2.79 -7.45 0 0zm-90.15 -63.85l0 -4.34 0 0 4.05 0.08 4 0.24 3.98 0.4 3.92 0.56 3.87 0.7 3.81 0.85 3.78 1 3.7 1.14 3.64 1.28 3.58 1.42 3.5 1.54 3.45 1.68 3.36 1.8 3.28 1.93 3.21 2.04 3.12 2.16 3.04 2.28 2.94 2.38 2.85 2.49 2.76 2.6 2.65 2.7 2.55 2.8 2.45 2.89 2.33 2.98 2.23 3.07 2.12 3.16 1.99 3.24 1.87 3.32 1.75 3.4 1.63 3.47 1.48 3.54 1.36 3.61 -4.1 1.44 -1.3 -3.45 -1.42 -3.38 -1.55 -3.31 -1.67 -3.26 -1.79 -3.18 -1.91 -3.1 -2.02 -3.02 -2.13 -2.93 -2.23 -2.86 -2.35 -2.77 -2.45 -2.68 -2.53 -2.58 -2.64 -2.48 -2.73 -2.39 -2.82 -2.28 -2.9 -2.18 -2.98 -2.06 -3.07 -1.96 -3.14 -1.85 -3.22 -1.72 -3.29 -1.6 -3.36 -1.48 -3.42 -1.36 -3.48 -1.22 -3.54 -1.08 -3.6 -0.96 -3.65 -0.81 -3.71 -0.68 -3.74 -0.52 -3.8 -0.38 -3.84 -0.24 -3.87 -0.08 0 0zm0 -2.17l0 0 0 0 0 0 0 2.17 0 -2.17zm-92.34 73.06l-4.2 -1.12 0 0 1.16 -3.96 1.31 -3.89 1.46 -3.83 1.61 -3.74 1.76 -3.66 1.9 -3.58 2.05 -3.49 2.17 -3.41 2.31 -3.3 2.44 -3.21 2.55 -3.11 2.69 -2.99 2.79 -2.89 2.91 -2.77 3.03 -2.66 3.11 -2.54 3.24 -2.42 3.32 -2.27 3.42 -2.16 3.51 -2.02 3.59 -1.87 3.67 -1.73 3.77 -1.59 3.83 -1.43 3.91 -1.28 3.97 -1.12 4.04 -0.96 4.1 -0.79 4.15 -0.62 4.21 -0.45 4.26 -0.28 4.3 -0.09 0 4.34 -4.12 0.09 -4.06 0.26 -4.03 0.43 -3.97 0.6 -3.92 0.75 -3.86 0.92 -3.81 1.08 -3.73 1.22 -3.67 1.37 -3.59 1.51 -3.51 1.67 -3.45 1.79 -3.35 1.92 -3.28 2.06 -3.18 2.19 -3.08 2.3 -2.99 2.44 -2.89 2.54 -2.79 2.65 -2.67 2.77 -2.57 2.87 -2.45 2.97 -2.32 3.07 -2.21 3.16 -2.09 3.25 -1.95 3.35 -1.82 3.42 -1.68 3.5 -1.55 3.58 -1.4 3.65 -1.25 3.73 -1.1 3.78 0 0zm-190.92 146.45l0 -4.34 0 0 8.28 -0.17 8.19 -0.5 8.09 -0.83 8.01 -1.14 7.88 -1.47 7.77 -1.77 7.65 -2.07 7.51 -2.39 7.39 -2.67 7.23 -2.95 7.09 -3.25 6.93 -3.52 6.76 -3.79 6.59 -4.07 6.42 -4.32 6.23 -4.57 6.03 -4.83 5.83 -5.08 5.64 -5.31 5.41 -5.55 5.2 -5.78 4.97 -6.01 4.72 -6.22 4.5 -6.44 4.25 -6.64 3.98 -6.84 3.73 -7.05 3.45 -7.24 3.19 -7.42 2.89 -7.61 2.61 -7.78 2.3 -7.95 4.2 1.12 -2.36 8.13 -2.65 7.94 -2.97 7.77 -3.25 7.6 -3.53 7.4 -3.81 7.19 -4.08 7 -4.33 6.8 -4.6 6.58 -4.84 6.36 -5.09 6.15 -5.3 5.9 -5.55 5.69 -5.76 5.43 -5.97 5.2 -6.17 4.93 -6.37 4.69 -6.56 4.42 -6.75 4.15 -6.92 3.89 -7.09 3.6 -7.25 3.31 -7.39 3.03 -7.55 2.73 -7.69 2.43 -7.81 2.13 -7.95 1.81 -8.06 1.49 -8.17 1.18 -8.27 0.85 -8.37 0.5 -8.46 0.17 0 0zm-648.39 -4.34l648.39 0 0 4.34 -648.39 0 -2.17 -2.17 2.17 -2.17zm0 4.34l-2.17 0 0 -2.17 2.17 2.17zm2.17 -354.16l0 351.99 -4.34 0 0 -351.99 0 0 4.34 0zm54.7 -246.77l3.88 1.96 0 0 -3.72 7.45 -3.59 7.42 -3.46 7.42 -3.33 7.4 -3.21 7.39 -3.08 7.39 -2.96 7.39 -2.83 7.39 -2.69 7.4 -2.59 7.4 -2.46 7.42 -2.34 7.42 -2.21 7.44 -2.1 7.46 -1.99 7.49 -1.86 7.5 -1.73 7.54 -1.62 7.57 -1.52 7.61 -1.39 7.63 -1.27 7.69 -1.16 7.72 -1.06 7.77 -0.92 7.82 -0.83 7.87 -0.71 7.93 -0.59 7.98 -0.49 8.05 -0.38 8.11 -0.27 8.18 -0.17 8.24 -0.05 8.32 -4.34 0 0.05 -8.38 0.17 -8.3 0.27 -8.24 0.38 -8.17 0.49 -8.11 0.61 -8.04 0.71 -7.99 0.83 -7.93 0.94 -7.88 1.06 -7.85 1.16 -7.78 1.29 -7.75 1.41 -7.71 1.52 -7.67 1.64 -7.63 1.75 -7.6 1.88 -7.58 1.99 -7.55 2.12 -7.52 2.23 -7.52 2.36 -7.48 2.48 -7.48 2.61 -7.46 2.73 -7.46 2.85 -7.45 2.98 -7.45 3.1 -7.45 3.23 -7.45 3.37 -7.46 3.48 -7.46 3.61 -7.48 3.74 -7.49 0 0zm41.25 -178.58l4.34 0 0 0 -0.04 6.22 -0.14 6.2 -0.22 6.17 -0.31 6.13 -0.39 6.12 -0.49 6.08 -0.56 6.04 -0.65 6.01 -0.74 5.97 -0.82 5.94 -0.89 5.9 -0.99 5.87 -1.06 5.82 -1.14 5.8 -1.22 5.75 -1.3 5.7 -1.37 5.66 -1.45 5.62 -1.53 5.58 -1.6 5.52 -1.68 5.49 -1.75 5.43 -1.82 5.39 -1.9 5.33 -1.96 5.29 -2.04 5.23 -2.1 5.19 -2.18 5.13 -2.24 5.07 -2.31 5.02 -2.38 4.96 -2.44 4.91 -3.88 -1.96 2.42 -4.85 2.34 -4.9 2.29 -4.96 2.22 -5.01 2.14 -5.07 2.08 -5.13 2.02 -5.17 1.94 -5.23 1.88 -5.27 1.8 -5.33 1.73 -5.37 1.66 -5.43 1.58 -5.46 1.51 -5.52 1.43 -5.56 1.37 -5.6 1.28 -5.64 1.2 -5.69 1.14 -5.72 1.04 -5.76 0.97 -5.81 0.89 -5.84 0.82 -5.88 0.72 -5.91 0.65 -5.95 0.56 -5.98 0.47 -6.02 0.39 -6.04 0.31 -6.07 0.22 -6.11 0.14 -6.14 0.04 -6.16 0 0zm-41.25 -178.58l3.88 -1.96 0 0 2.44 4.9 2.38 4.97 2.31 5.02 2.24 5.07 2.18 5.13 2.1 5.18 2.04 5.24 1.96 5.28 1.9 5.34 1.82 5.38 1.75 5.44 1.68 5.48 1.6 5.53 1.53 5.57 1.45 5.62 1.37 5.67 1.3 5.7 1.22 5.75 1.14 5.79 1.06 5.83 0.99 5.86 0.89 5.91 0.82 5.94 0.74 5.97 0.65 6.01 0.56 6.04 0.49 6.08 0.39 6.12 0.31 6.13 0.22 6.17 0.14 6.2 0.04 6.22 -4.34 0 -0.04 -6.16 -0.14 -6.14 -0.22 -6.11 -0.31 -6.07 -0.39 -6.04 -0.47 -6.02 -0.56 -5.98 -0.65 -5.95 -0.72 -5.91 -0.82 -5.88 -0.89 -5.85 -0.97 -5.8 -1.04 -5.77 -1.14 -5.71 -1.2 -5.69 -1.28 -5.64 -1.37 -5.61 -1.43 -5.56 -1.51 -5.51 -1.58 -5.47 -1.66 -5.42 -1.73 -5.38 -1.8 -5.32 -1.88 -5.28 -1.94 -5.22 -2.02 -5.18 -2.08 -5.12 -2.14 -5.07 -2.22 -5.01 -2.29 -4.96 -2.34 -4.91 -2.42 -4.84 0 0zm-59.04 -246.77l4.34 0 0 0 0.05 8.32 0.17 8.24 0.27 8.18 0.38 8.11 0.49 8.04 0.59 7.99 0.71 7.93 0.83 7.87 0.92 7.82 1.06 7.76 1.16 7.73 1.27 7.68 1.39 7.64 1.52 7.6 1.62 7.57 1.73 7.55 1.86 7.5 1.99 7.48 2.1 7.47 2.21 7.43 2.34 7.43 2.46 7.42 2.59 7.4 2.69 7.4 2.83 7.39 2.96 7.39 3.08 7.39 3.21 7.39 3.33 7.4 3.46 7.42 3.59 7.42 3.72 7.45 -3.88 1.96 -3.74 -7.49 -3.61 -7.48 -3.48 -7.46 -3.37 -7.46 -3.23 -7.45 -3.1 -7.45 -2.98 -7.45 -2.85 -7.45 -2.73 -7.46 -2.61 -7.46 -2.48 -7.48 -2.36 -7.49 -2.23 -7.51 -2.12 -7.53 -1.99 -7.54 -1.88 -7.58 -1.75 -7.61 -1.64 -7.63 -1.52 -7.66 -1.41 -7.72 -1.29 -7.74 -1.16 -7.79 -1.06 -7.84 -0.94 -7.88 -0.83 -7.93 -0.71 -7.99 -0.61 -8.05 -0.49 -8.1 -0.38 -8.17 -0.27 -8.24 -0.17 -8.3 -0.05 -8.38 0 0zm4.34 -91.44l0 91.44 -4.34 0 0 -91.44 0 0 4.34 0zm54.7 -246.77l3.88 1.96 0 0 -3.72 7.45 -3.59 7.42 -3.46 7.42 -3.33 7.4 -3.21 7.39 -3.08 7.39 -2.96 7.39 -2.83 7.39 -2.69 7.4 -2.59 7.4 -2.46 7.42 -2.34 7.42 -2.21 7.44 -2.1 7.46 -1.99 7.49 -1.86 7.5 -1.73 7.54 -1.62 7.57 -1.52 7.61 -1.39 7.63 -1.27 7.69 -1.16 7.72 -1.06 7.77 -0.92 7.82 -0.83 7.87 -0.71 7.93 -0.59 7.98 -0.49 8.05 -0.38 8.11 -0.27 8.18 -0.17 8.24 -0.05 8.32 -4.34 0 0.05 -8.38 0.17 -8.3 0.27 -8.24 0.38 -8.17 0.49 -8.11 0.61 -8.04 0.71 -7.99 0.83 -7.93 0.94 -7.88 1.06 -7.85 1.16 -7.78 1.29 -7.75 1.41 -7.71 1.52 -7.67 1.64 -7.63 1.75 -7.6 1.88 -7.58 1.99 -7.55 2.12 -7.52 2.23 -7.52 2.36 -7.48 2.48 -7.48 2.61 -7.46 2.73 -7.46 2.85 -7.45 2.98 -7.45 3.1 -7.45 3.23 -7.45 3.37 -7.46 3.48 -7.46 3.61 -7.48 3.74 -7.49 0 0zm41.25 -178.58l4.34 0 0 0 -0.04 6.22 -0.14 6.2 -0.22 6.17 -0.31 6.13 -0.39 6.12 -0.49 6.08 -0.56 6.04 -0.65 6.01 -0.74 5.97 -0.82 5.94 -0.89 5.9 -0.99 5.87 -1.06 5.82 -1.14 5.8 -1.22 5.75 -1.3 5.7 -1.37 5.66 -1.45 5.62 -1.53 5.58 -1.6 5.52 -1.68 5.49 -1.75 5.43 -1.82 5.39 -1.9 5.33 -1.96 5.29 -2.04 5.23 -2.1 5.19 -2.18 5.13 -2.24 5.07 -2.31 5.02 -2.38 4.96 -2.44 4.91 -3.88 -1.96 2.42 -4.85 2.34 -4.9 2.29 -4.96 2.22 -5.01 2.14 -5.07 2.08 -5.13 2.02 -5.17 1.94 -5.23 1.88 -5.27 1.8 -5.33 1.73 -5.37 1.66 -5.43 1.58 -5.46 1.51 -5.52 1.43 -5.56 1.37 -5.6 1.28 -5.64 1.2 -5.69 1.14 -5.72 1.04 -5.76 0.97 -5.81 0.89 -5.84 0.82 -5.88 0.72 -5.91 0.65 -5.95 0.56 -5.98 0.47 -6.02 0.39 -6.04 0.31 -6.07 0.22 -6.11 0.14 -6.14 0.04 -6.16 0 0zm-41.25 -178.58l3.88 -1.96 0 0 2.44 4.9 2.38 4.97 2.31 5.02 2.24 5.07 2.18 5.13 2.1 5.18 2.04 5.24 1.96 5.28 1.9 5.34 1.82 5.38 1.75 5.44 1.68 5.48 1.6 5.53 1.53 5.57 1.45 5.62 1.37 5.66 1.3 5.71 1.22 5.75 1.14 5.79 1.06 5.83 0.99 5.86 0.89 5.91 0.82 5.94 0.74 5.97 0.65 6.01 0.56 6.04 0.49 6.08 0.39 6.12 0.31 6.13 0.22 6.17 0.14 6.2 0.04 6.22 -4.34 0 -0.04 -6.16 -0.14 -6.14 -0.22 -6.11 -0.31 -6.07 -0.39 -6.04 -0.47 -6.02 -0.56 -5.98 -0.65 -5.95 -0.72 -5.91 -0.82 -5.88 -0.89 -5.85 -0.97 -5.8 -1.04 -5.77 -1.14 -5.71 -1.2 -5.69 -1.28 -5.65 -1.37 -5.6 -1.43 -5.56 -1.51 -5.51 -1.58 -5.47 -1.66 -5.42 -1.73 -5.38 -1.8 -5.32 -1.88 -5.28 -1.94 -5.22 -2.02 -5.18 -2.08 -5.12 -2.14 -5.07 -2.22 -5.01 -2.29 -4.96 -2.34 -4.91 -2.42 -4.84 0 0zm-59.04 -246.77l4.34 0 0 0 0.05 8.32 0.17 8.24 0.27 8.18 0.38 8.11 0.49 8.04 0.59 7.99 0.71 7.93 0.83 7.87 0.92 7.82 1.06 7.76 1.16 7.73 1.27 7.68 1.39 7.64 1.52 7.6 1.62 7.57 1.73 7.54 1.86 7.51 1.99 7.48 2.1 7.47 2.21 7.43 2.34 7.43 2.46 7.42 2.59 7.4 2.69 7.4 2.83 7.39 2.96 7.39 3.08 7.39 3.21 7.39 3.33 7.4 3.46 7.42 3.59 7.42 3.72 7.45 -3.88 1.96 -3.74 -7.49 -3.61 -7.48 -3.48 -7.46 -3.37 -7.46 -3.23 -7.45 -3.1 -7.45 -2.98 -7.45 -2.85 -7.45 -2.73 -7.46 -2.61 -7.46 -2.48 -7.48 -2.36 -7.49 -2.23 -7.51 -2.12 -7.53 -1.99 -7.54 -1.88 -7.59 -1.75 -7.6 -1.64 -7.63 -1.52 -7.66 -1.41 -7.72 -1.29 -7.74 -1.16 -7.79 -1.06 -7.84 -0.94 -7.88 -0.83 -7.93 -0.71 -7.99 -0.61 -8.05 -0.49 -8.1 -0.38 -8.17 -0.27 -8.24 -0.17 -8.3 -0.05 -8.38 0 0zm4.34 -70.78l0 70.78 -4.34 0 0 -70.78 0 0 4.34 0zm54.7 -246.78l3.88 1.96 0 0 -3.72 7.45 -3.59 7.42 -3.46 7.42 -3.33 7.4 -3.21 7.4 -3.08 7.39 -2.96 7.39 -2.83 7.39 -2.69 7.39 -2.59 7.41 -2.46 7.41 -2.34 7.43 -2.21 7.44 -2.1 7.46 -1.99 7.49 -1.86 7.5 -1.73 7.54 -1.62 7.57 -1.52 7.61 -1.39 7.63 -1.27 7.69 -1.16 7.72 -1.06 7.77 -0.92 7.82 -0.83 7.87 -0.71 7.93 -0.59 7.98 -0.49 8.05 -0.38 8.11 -0.27 8.18 -0.17 8.24 -0.05 8.32 -4.34 0 0.05 -8.38 0.17 -8.3 0.27 -8.24 0.38 -8.17 0.49 -8.11 0.61 -8.04 0.71 -7.99 0.83 -7.93 0.94 -7.88 1.06 -7.85 1.16 -7.78 1.29 -7.75 1.41 -7.71 1.52 -7.67 1.64 -7.63 1.75 -7.6 1.88 -7.58 1.99 -7.55 2.12 -7.52 2.23 -7.52 2.36 -7.49 2.48 -7.47 2.61 -7.47 2.73 -7.45 2.85 -7.45 2.98 -7.45 3.1 -7.45 3.23 -7.46 3.37 -7.46 3.48 -7.46 3.61 -7.48 3.74 -7.49 0 0zm41.25 -178.57l4.34 0 0 0 -0.04 6.22 -0.14 6.2 -0.22 6.16 -0.31 6.14 -0.39 6.12 -0.49 6.07 -0.56 6.04 -0.65 6.01 -0.74 5.98 -0.82 5.93 -0.89 5.91 -0.99 5.86 -1.06 5.83 -1.14 5.79 -1.22 5.75 -1.3 5.7 -1.37 5.66 -1.45 5.62 -1.53 5.58 -1.6 5.52 -1.68 5.49 -1.75 5.43 -1.82 5.39 -1.9 5.33 -1.96 5.29 -2.04 5.23 -2.1 5.19 -2.18 5.13 -2.24 5.07 -2.31 5.02 -2.38 4.96 -2.44 4.91 -3.88 -1.96 2.42 -4.85 2.34 -4.9 2.29 -4.96 2.22 -5.01 2.14 -5.07 2.08 -5.13 2.02 -5.17 1.94 -5.23 1.88 -5.27 1.8 -5.33 1.73 -5.37 1.66 -5.43 1.58 -5.46 1.51 -5.52 1.43 -5.56 1.37 -5.6 1.28 -5.64 1.2 -5.69 1.14 -5.71 1.04 -5.77 0.97 -5.8 0.89 -5.85 0.82 -5.87 0.72 -5.92 0.65 -5.95 0.56 -5.98 0.47 -6.01 0.39 -6.04 0.31 -6.08 0.22 -6.1 0.14 -6.14 0.04 -6.16 0 0zm-41.25 -178.58l3.88 -1.96 0 0 2.44 4.9 2.38 4.97 2.31 5.02 2.24 5.07 2.18 5.13 2.1 5.18 2.04 5.24 1.96 5.28 1.9 5.34 1.82 5.38 1.75 5.44 1.68 5.48 1.6 5.53 1.53 5.57 1.45 5.62 1.37 5.66 1.3 5.71 1.22 5.75 1.14 5.79 1.06 5.83 0.99 5.86 0.89 5.91 0.82 5.94 0.74 5.97 0.65 6.01 0.56 6.04 0.49 6.08 0.39 6.12 0.31 6.13 0.22 6.17 0.14 6.2 0.04 6.22 -4.34 0 -0.04 -6.16 -0.14 -6.14 -0.22 -6.11 -0.31 -6.07 -0.39 -6.04 -0.47 -6.02 -0.56 -5.98 -0.65 -5.95 -0.72 -5.91 -0.82 -5.88 -0.89 -5.85 -0.97 -5.8 -1.04 -5.77 -1.14 -5.71 -1.2 -5.69 -1.28 -5.65 -1.37 -5.6 -1.43 -5.56 -1.51 -5.51 -1.58 -5.47 -1.66 -5.42 -1.73 -5.38 -1.8 -5.32 -1.88 -5.28 -1.94 -5.22 -2.02 -5.18 -2.08 -5.12 -2.14 -5.07 -2.22 -5.01 -2.29 -4.96 -2.34 -4.91 -2.42 -4.84 0 0zm-59.04 -246.78l4.34 0 0 0 0.05 8.32 0.17 8.24 0.27 8.18 0.38 8.11 0.49 8.05 0.59 7.98 0.71 7.93 0.83 7.87 0.92 7.83 1.06 7.76 1.16 7.73 1.27 7.68 1.39 7.63 1.52 7.61 1.62 7.57 1.73 7.54 1.86 7.51 1.99 7.48 2.1 7.47 2.21 7.43 2.34 7.43 2.46 7.42 2.59 7.4 2.69 7.4 2.83 7.39 2.96 7.39 3.08 7.39 3.21 7.39 3.33 7.4 3.46 7.42 3.59 7.42 3.72 7.45 -3.88 1.96 -3.74 -7.49 -3.61 -7.48 -3.48 -7.46 -3.37 -7.46 -3.23 -7.45 -3.1 -7.45 -2.98 -7.45 -2.85 -7.45 -2.73 -7.46 -2.61 -7.46 -2.48 -7.48 -2.36 -7.49 -2.23 -7.51 -2.12 -7.53 -1.99 -7.54 -1.88 -7.59 -1.75 -7.6 -1.64 -7.63 -1.52 -7.67 -1.41 -7.71 -1.29 -7.74 -1.16 -7.79 -1.06 -7.84 -0.94 -7.89 -0.83 -7.93 -0.71 -7.99 -0.61 -8.04 -0.49 -8.11 -0.38 -8.17 -0.27 -8.24 -0.17 -8.3 -0.05 -8.38 0 0zm4.34 -376.62l0 376.62 -4.34 0 0 -376.62 2.17 -2.17 2.17 2.17zm-4.34 0l0 -2.17 2.17 0 -2.17 2.17z"/>
   </g>
   <g>
    <path class="fil1" d="M2040.22 1436.97l-4.34 0 0 0 -0.06 -2.13 -0.15 -2.09 -0.27 -2.07 -0.36 -2.02 -0.46 -2.01 -0.55 -1.95 -0.66 -1.92 -0.74 -1.87 -0.83 -1.83 -0.91 -1.78 -0.99 -1.72 -1.07 -1.69 -1.15 -1.61 -1.22 -1.56 -1.31 -1.5 -1.36 -1.43 -1.44 -1.36 -1.49 -1.31 -1.57 -1.22 -1.62 -1.15 -1.67 -1.07 -1.73 -1 -1.78 -0.91 -1.82 -0.83 -1.88 -0.73 -1.92 -0.66 -1.95 -0.55 -2.01 -0.46 -2.02 -0.36 -2.07 -0.27 -2.09 -0.15 -2.13 -0.06 0 -4.34 2.35 0.06 2.31 0.17 2.29 0.29 2.24 0.4 2.21 0.52 2.17 0.61 2.12 0.72 2.06 0.81 2.02 0.91 1.98 1.01 1.91 1.1 1.85 1.19 1.78 1.27 1.73 1.36 1.65 1.43 1.58 1.5 1.52 1.59 1.43 1.66 1.36 1.72 1.27 1.79 1.19 1.85 1.09 1.9 1.01 1.98 0.91 2.01 0.82 2.07 0.72 2.12 0.61 2.17 0.52 2.21 0.4 2.24 0.29 2.29 0.17 2.31 0.06 2.35 0 0zm-45.62 45.61l0 -4.34 0 0 2.13 -0.06 2.09 -0.15 2.07 -0.27 2.02 -0.36 2.01 -0.46 1.95 -0.55 1.92 -0.66 1.88 -0.73 1.82 -0.83 1.78 -0.91 1.73 -1 1.67 -1.07 1.62 -1.15 1.57 -1.22 1.49 -1.31 1.44 -1.36 1.36 -1.43 1.31 -1.5 1.22 -1.56 1.15 -1.61 1.07 -1.69 0.99 -1.72 0.91 -1.78 0.83 -1.83 0.74 -1.87 0.66 -1.92 0.55 -1.95 0.46 -2.01 0.36 -2.02 0.27 -2.07 0.15 -2.09 0.06 -2.13 4.34 0 -0.06 2.35 -0.17 2.31 -0.29 2.29 -0.4 2.24 -0.52 2.21 -0.61 2.17 -0.72 2.12 -0.82 2.07 -0.91 2.01 -1.01 1.98 -1.09 1.9 -1.19 1.85 -1.27 1.79 -1.36 1.72 -1.43 1.66 -1.52 1.59 -1.58 1.5 -1.65 1.43 -1.73 1.36 -1.78 1.27 -1.85 1.19 -1.91 1.1 -1.98 1.01 -2.02 0.91 -2.06 0.81 -2.12 0.72 -2.17 0.61 -2.21 0.52 -2.24 0.4 -2.29 0.29 -2.31 0.17 -2.35 0.06 0 0zm-45.61 -45.61l4.34 0 0 0 0.06 2.13 0.15 2.09 0.27 2.07 0.36 2.02 0.46 2.01 0.56 1.96 0.64 1.91 0.74 1.87 0.83 1.83 0.91 1.78 1 1.72 1.07 1.69 1.15 1.61 1.23 1.56 1.29 1.5 1.36 1.43 1.44 1.36 1.49 1.31 1.57 1.22 1.62 1.15 1.67 1.07 1.73 1 1.77 0.91 1.83 0.83 1.88 0.73 1.92 0.66 1.95 0.55 2 0.46 2.03 0.36 2.07 0.27 2.09 0.15 2.13 0.06 0 4.34 -2.35 -0.06 -2.31 -0.17 -2.29 -0.29 -2.25 -0.4 -2.2 -0.52 -2.17 -0.61 -2.12 -0.72 -2.06 -0.81 -2.03 -0.91 -1.97 -1.01 -1.91 -1.1 -1.85 -1.19 -1.78 -1.27 -1.73 -1.36 -1.65 -1.43 -1.58 -1.5 -1.52 -1.59 -1.43 -1.66 -1.35 -1.72 -1.27 -1.79 -1.19 -1.85 -1.1 -1.9 -1.01 -1.98 -0.91 -2.01 -0.82 -2.07 -0.72 -2.13 -0.6 -2.16 -0.52 -2.21 -0.4 -2.24 -0.29 -2.29 -0.17 -2.31 -0.06 -2.35 0 0zm45.61 -45.61l0 4.34 0 0 -2.13 0.06 -2.09 0.15 -2.07 0.27 -2.03 0.36 -2 0.46 -1.95 0.55 -1.92 0.66 -1.88 0.73 -1.83 0.83 -1.77 0.91 -1.73 1 -1.67 1.07 -1.62 1.15 -1.57 1.22 -1.49 1.31 -1.44 1.36 -1.36 1.43 -1.29 1.5 -1.23 1.56 -1.15 1.61 -1.07 1.69 -1 1.72 -0.91 1.78 -0.83 1.83 -0.74 1.87 -0.64 1.91 -0.56 1.96 -0.46 2.01 -0.36 2.02 -0.27 2.07 -0.15 2.09 -0.06 2.13 -4.34 0 0.06 -2.35 0.17 -2.31 0.29 -2.29 0.4 -2.24 0.52 -2.21 0.6 -2.16 0.72 -2.13 0.82 -2.07 0.91 -2.01 1.01 -1.98 1.1 -1.9 1.19 -1.85 1.27 -1.79 1.35 -1.72 1.43 -1.66 1.52 -1.59 1.58 -1.5 1.65 -1.43 1.73 -1.36 1.78 -1.27 1.85 -1.19 1.91 -1.1 1.97 -1.01 2.03 -0.91 2.06 -0.81 2.12 -0.72 2.17 -0.61 2.2 -0.52 2.25 -0.4 2.29 -0.29 2.31 -0.17 2.35 -0.06 0 0z"/>
   </g>
   <g>
    <path class="fil1" d="M3390.86 1386.2l-228.08 0 0 -4.34 228.08 0 0 0 0 4.34zm132.51 128.16l-4.34 0 0 0 -0.17 -6.57 -0.5 -6.49 -0.82 -6.39 -1.13 -6.29 -1.43 -6.19 -1.74 -6.07 -2.02 -5.94 -2.3 -5.81 -2.58 -5.67 -2.84 -5.53 -3.09 -5.37 -3.35 -5.2 -3.58 -5.03 -3.81 -4.85 -4.04 -4.65 -4.26 -4.46 -4.45 -4.25 -4.65 -4.04 -4.85 -3.81 -5.04 -3.58 -5.19 -3.35 -5.37 -3.09 -5.53 -2.84 -5.67 -2.58 -5.81 -2.3 -5.95 -2.02 -6.06 -1.74 -6.2 -1.43 -6.29 -1.13 -6.39 -0.82 -6.49 -0.5 -6.57 -0.17 0 -4.34 6.79 0.17 6.71 0.52 6.61 0.84 6.51 1.17 6.4 1.49 6.28 1.8 6.15 2.08 6.01 2.38 5.87 2.66 5.71 2.94 5.55 3.21 5.37 3.45 5.2 3.7 5.01 3.95 4.81 4.16 4.61 4.39 4.4 4.62 4.16 4.81 3.95 5.01 3.7 5.19 3.45 5.38 3.21 5.55 2.94 5.71 2.66 5.87 2.38 6.01 2.08 6.14 1.8 6.29 1.49 6.39 1.17 6.51 0.84 6.61 0.52 6.71 0.17 6.79 0 0zm-4.34 564.77l0 -564.77 4.34 0 0 564.77 0 0 -4.34 0zm-128.17 132.51l0 -4.34 0 0 6.57 -0.17 6.49 -0.5 6.39 -0.82 6.29 -1.13 6.2 -1.43 6.06 -1.74 5.95 -2.02 5.81 -2.31 5.68 -2.57 5.52 -2.84 5.37 -3.09 5.19 -3.35 5.04 -3.58 4.85 -3.81 4.65 -4.05 4.45 -4.25 4.26 -4.45 4.03 -4.66 3.82 -4.85 3.58 -5.03 3.35 -5.2 3.09 -5.37 2.84 -5.53 2.58 -5.66 2.3 -5.82 2.02 -5.94 1.74 -6.07 1.43 -6.19 1.13 -6.29 0.82 -6.39 0.5 -6.49 0.17 -6.57 4.34 0 -0.17 6.79 -0.52 6.71 -0.84 6.61 -1.17 6.51 -1.49 6.39 -1.8 6.29 -2.08 6.14 -2.38 6.02 -2.66 5.86 -2.94 5.71 -3.21 5.55 -3.45 5.38 -3.7 5.19 -3.94 5.01 -4.17 4.82 -4.4 4.61 -4.61 4.39 -4.81 4.17 -5.01 3.95 -5.2 3.7 -5.37 3.45 -5.55 3.21 -5.72 2.94 -5.86 2.65 -6.01 2.39 -6.15 2.08 -6.28 1.8 -6.4 1.49 -6.51 1.17 -6.61 0.84 -6.71 0.52 -6.79 0.17 0 0zm-228.08 -4.34l228.08 0 0 4.34 -228.08 0 0 0 0 -4.34zm-132.49 -128.17l4.34 0 0 0 0.17 6.57 0.5 6.49 0.82 6.39 1.13 6.29 1.43 6.19 1.73 6.07 2.03 5.94 2.3 5.82 2.58 5.66 2.84 5.53 3.1 5.37 3.33 5.2 3.59 5.03 3.81 4.85 4.04 4.66 4.25 4.45 4.45 4.25 4.66 4.05 4.84 3.81 5.04 3.58 5.19 3.35 5.37 3.09 5.52 2.84 5.68 2.57 5.81 2.31 5.95 2.02 6.07 1.74 6.18 1.43 6.29 1.13 6.39 0.82 6.49 0.5 6.57 0.17 0 4.34 -6.79 -0.17 -6.71 -0.52 -6.61 -0.84 -6.51 -1.17 -6.4 -1.49 -6.27 -1.8 -6.15 -2.08 -6.01 -2.39 -5.86 -2.65 -5.72 -2.94 -5.55 -3.21 -5.37 -3.45 -5.2 -3.7 -5 -3.95 -4.82 -4.17 -4.61 -4.39 -4.39 -4.61 -4.18 -4.82 -3.93 -5.01 -3.71 -5.19 -3.45 -5.38 -3.2 -5.55 -2.94 -5.71 -2.66 -5.86 -2.38 -6.02 -2.09 -6.14 -1.79 -6.29 -1.49 -6.39 -1.17 -6.51 -0.84 -6.61 -0.52 -6.71 -0.17 -6.79 0 0zm4.34 -564.77l0 564.77 -4.34 0 0 -564.77 0 0 4.34 0zm128.15 -132.5l0 4.34 0 0 -6.57 0.17 -6.49 0.5 -6.39 0.82 -6.29 1.13 -6.18 1.43 -6.07 1.74 -5.95 2.02 -5.81 2.3 -5.67 2.58 -5.53 2.84 -5.37 3.09 -5.19 3.35 -5.04 3.58 -4.84 3.81 -4.66 4.04 -4.45 4.25 -4.25 4.46 -4.05 4.65 -3.8 4.85 -3.59 5.03 -3.33 5.2 -3.1 5.37 -2.84 5.53 -2.58 5.67 -2.3 5.81 -2.03 5.94 -1.73 6.07 -1.43 6.19 -1.13 6.29 -0.82 6.39 -0.5 6.49 -0.17 6.57 -4.34 0 0.17 -6.79 0.52 -6.71 0.84 -6.61 1.17 -6.51 1.49 -6.39 1.79 -6.29 2.09 -6.14 2.38 -6.01 2.66 -5.87 2.94 -5.71 3.2 -5.55 3.45 -5.38 3.71 -5.19 3.94 -5.01 4.17 -4.81 4.39 -4.62 4.61 -4.39 4.82 -4.16 5 -3.95 5.2 -3.7 5.37 -3.45 5.55 -3.21 5.71 -2.94 5.87 -2.66 6.01 -2.38 6.15 -2.08 6.27 -1.8 6.4 -1.49 6.51 -1.17 6.61 -0.84 6.71 -0.52 6.79 -0.17 0 0z"/>
   </g>
   <g>
    <path class="fil1" d="M1114.47 1908.76l0 0 0 0 0 0 0 -2.17 0 2.17zm40.18 38.01l-4.34 0 0 0 -0.05 -1.84 -0.14 -1.82 -0.23 -1.78 -0.31 -1.76 -0.4 -1.74 -0.48 -1.69 -0.57 -1.66 -0.64 -1.63 -0.72 -1.58 -0.8 -1.55 -0.86 -1.5 -0.94 -1.46 -1 -1.41 -1.07 -1.35 -1.12 -1.3 -1.19 -1.24 -1.24 -1.19 -1.3 -1.14 -1.36 -1.06 -1.41 -1 -1.45 -0.93 -1.51 -0.87 -1.53 -0.79 -1.6 -0.72 -1.62 -0.65 -1.66 -0.57 -1.7 -0.48 -1.73 -0.4 -1.75 -0.31 -1.8 -0.23 -1.82 -0.14 -1.84 -0.05 0 -4.34 2.06 0.05 2.04 0.16 2 0.25 1.99 0.35 1.93 0.46 1.9 0.54 1.88 0.63 1.82 0.73 1.78 0.8 1.73 0.89 1.69 0.97 1.63 1.05 1.57 1.12 1.52 1.2 1.46 1.26 1.4 1.33 1.33 1.4 1.26 1.46 1.19 1.51 1.12 1.59 1.04 1.62 0.98 1.68 0.88 1.73 0.82 1.78 0.72 1.83 0.63 1.86 0.54 1.91 0.46 1.94 0.35 1.98 0.25 2 0.16 2.04 0.05 2.06 0 0zm-4.34 358.42l0 -358.42 4.34 0 0 358.42 0 0 -4.34 0zm-35.84 40.18l0 -4.34 0 0 1.84 -0.05 1.82 -0.14 1.8 -0.23 1.75 -0.31 1.73 -0.4 1.7 -0.48 1.66 -0.57 1.62 -0.65 1.6 -0.72 1.53 -0.79 1.51 -0.87 1.45 -0.93 1.41 -1 1.36 -1.06 1.3 -1.14 1.24 -1.19 1.19 -1.24 1.12 -1.3 1.07 -1.35 1 -1.41 0.94 -1.46 0.86 -1.5 0.8 -1.55 0.72 -1.58 0.64 -1.63 0.57 -1.66 0.48 -1.69 0.4 -1.74 0.31 -1.76 0.23 -1.78 0.14 -1.82 0.05 -1.84 4.34 0 -0.05 2.06 -0.16 2.04 -0.25 2 -0.35 1.98 -0.46 1.94 -0.54 1.91 -0.63 1.86 -0.72 1.83 -0.82 1.78 -0.88 1.73 -0.98 1.68 -1.04 1.62 -1.12 1.59 -1.19 1.51 -1.26 1.46 -1.33 1.4 -1.4 1.33 -1.46 1.26 -1.52 1.2 -1.57 1.12 -1.63 1.05 -1.69 0.97 -1.73 0.89 -1.78 0.8 -1.82 0.73 -1.88 0.63 -1.9 0.54 -1.93 0.46 -1.99 0.35 -2 0.25 -2.04 0.16 -2.06 0.05 0 0zm0 -2.17l0 0 0 0 0 0 0 2.17 0 -2.17zm-40.18 -38.01l4.34 0 0 0 0.05 1.84 0.14 1.82 0.23 1.78 0.31 1.76 0.4 1.74 0.48 1.69 0.57 1.66 0.64 1.63 0.72 1.58 0.8 1.55 0.86 1.5 0.94 1.46 1 1.41 1.07 1.35 1.12 1.3 1.19 1.24 1.24 1.19 1.3 1.14 1.36 1.06 1.41 1 1.45 0.93 1.51 0.87 1.53 0.79 1.6 0.72 1.62 0.65 1.66 0.57 1.7 0.48 1.73 0.4 1.75 0.31 1.8 0.23 1.82 0.14 1.84 0.05 0 4.34 -2.06 -0.05 -2.04 -0.16 -2 -0.25 -1.99 -0.35 -1.93 -0.46 -1.9 -0.54 -1.88 -0.63 -1.82 -0.73 -1.78 -0.8 -1.73 -0.89 -1.69 -0.97 -1.63 -1.05 -1.57 -1.12 -1.52 -1.2 -1.46 -1.26 -1.4 -1.33 -1.33 -1.4 -1.26 -1.46 -1.19 -1.51 -1.12 -1.59 -1.04 -1.62 -0.98 -1.68 -0.88 -1.73 -0.82 -1.78 -0.72 -1.83 -0.63 -1.86 -0.54 -1.91 -0.46 -1.94 -0.35 -1.98 -0.25 -2 -0.16 -2.04 -0.05 -2.06 0 0zm4.34 -358.42l0 358.42 -4.34 0 0 -358.42 0 0 4.34 0zm35.84 -40.18l0 4.34 0 0 -1.84 0.05 -1.82 0.14 -1.8 0.23 -1.75 0.31 -1.73 0.4 -1.7 0.48 -1.66 0.57 -1.62 0.65 -1.6 0.72 -1.53 0.79 -1.51 0.87 -1.45 0.93 -1.41 1 -1.36 1.06 -1.3 1.14 -1.24 1.19 -1.19 1.24 -1.12 1.3 -1.07 1.35 -1 1.41 -0.94 1.46 -0.86 1.5 -0.8 1.55 -0.72 1.58 -0.64 1.63 -0.57 1.66 -0.48 1.69 -0.4 1.74 -0.31 1.76 -0.23 1.78 -0.14 1.82 -0.05 1.84 -4.34 0 0.05 -2.06 0.16 -2.04 0.25 -2 0.35 -1.98 0.46 -1.94 0.54 -1.91 0.63 -1.86 0.72 -1.83 0.82 -1.78 0.88 -1.73 0.98 -1.68 1.04 -1.62 1.12 -1.59 1.19 -1.51 1.26 -1.46 1.33 -1.4 1.4 -1.33 1.46 -1.26 1.52 -1.2 1.57 -1.12 1.63 -1.05 1.69 -0.97 1.73 -0.89 1.78 -0.8 1.82 -0.73 1.88 -0.63 1.9 -0.54 1.93 -0.46 1.99 -0.35 2 -0.25 2.04 -0.16 2.06 -0.05 0 0z"/>
   </g>
   <g>
    <path class="fil1" d="M2868.55 1959.58l0 0 0 0 0 0 0 -2.17 0 2.17zm34.76 32.59l-4.34 0 0 0 -0.04 -1.56 -0.12 -1.54 -0.2 -1.52 -0.26 -1.49 -0.34 -1.47 -0.41 -1.45 -0.48 -1.41 -0.55 -1.37 -0.61 -1.36 -0.67 -1.3 -0.73 -1.28 -0.8 -1.23 -0.85 -1.2 -0.9 -1.15 -0.96 -1.1 -1.01 -1.06 -1.06 -1.01 -1.1 -0.96 -1.15 -0.9 -1.2 -0.85 -1.23 -0.8 -1.28 -0.73 -1.3 -0.67 -1.36 -0.61 -1.37 -0.55 -1.41 -0.48 -1.45 -0.41 -1.47 -0.34 -1.49 -0.26 -1.52 -0.2 -1.54 -0.12 -1.56 -0.04 0 -4.34 1.78 0.04 1.76 0.14 1.74 0.22 1.71 0.3 1.69 0.4 1.63 0.47 1.63 0.54 1.57 0.63 1.54 0.69 1.5 0.77 1.46 0.85 1.41 0.9 1.36 0.97 1.31 1.04 1.26 1.08 1.22 1.15 1.15 1.22 1.08 1.26 1.04 1.31 0.97 1.36 0.9 1.41 0.85 1.46 0.77 1.5 0.69 1.54 0.63 1.57 0.54 1.63 0.47 1.63 0.4 1.69 0.3 1.71 0.22 1.74 0.14 1.76 0.04 1.78 0 0zm-4.34 412.71l0 -412.71 4.34 0 0 412.71 0 0 -4.34 0zm-30.42 34.76l0 -4.34 0 0 1.56 -0.04 1.54 -0.12 1.52 -0.2 1.49 -0.26 1.47 -0.34 1.45 -0.41 1.41 -0.48 1.37 -0.55 1.36 -0.61 1.3 -0.67 1.28 -0.73 1.23 -0.8 1.2 -0.85 1.15 -0.9 1.1 -0.96 1.06 -1.01 1.01 -1.06 0.96 -1.1 0.9 -1.15 0.85 -1.2 0.8 -1.23 0.73 -1.28 0.67 -1.3 0.61 -1.36 0.55 -1.37 0.48 -1.41 0.41 -1.45 0.34 -1.47 0.26 -1.49 0.2 -1.52 0.12 -1.54 0.04 -1.56 4.34 0 -0.04 1.78 -0.14 1.76 -0.22 1.74 -0.3 1.71 -0.4 1.69 -0.47 1.63 -0.54 1.63 -0.63 1.57 -0.69 1.54 -0.77 1.5 -0.85 1.46 -0.9 1.41 -0.97 1.36 -1.04 1.31 -1.08 1.26 -1.15 1.22 -1.22 1.15 -1.26 1.08 -1.31 1.04 -1.36 0.97 -1.41 0.9 -1.46 0.85 -1.5 0.77 -1.54 0.69 -1.57 0.63 -1.63 0.54 -1.63 0.47 -1.69 0.4 -1.71 0.3 -1.74 0.22 -1.76 0.14 -1.78 0.04 0 0zm0 -2.17l0 0 0 0 0 0 0 2.17 0 -2.17zm-34.75 -32.59l4.34 0 0 0 0.04 1.56 0.12 1.54 0.2 1.52 0.26 1.49 0.34 1.47 0.41 1.45 0.48 1.41 0.55 1.37 0.61 1.36 0.67 1.3 0.73 1.28 0.8 1.23 0.85 1.2 0.9 1.15 0.96 1.1 1.01 1.06 1.06 1.01 1.1 0.96 1.15 0.9 1.2 0.85 1.23 0.8 1.27 0.73 1.31 0.67 1.35 0.61 1.38 0.55 1.4 0.48 1.46 0.41 1.46 0.34 1.49 0.26 1.52 0.2 1.54 0.12 1.56 0.04 0 4.34 -1.78 -0.04 -1.76 -0.14 -1.74 -0.22 -1.71 -0.3 -1.68 -0.4 -1.64 -0.47 -1.62 -0.54 -1.58 -0.63 -1.53 -0.69 -1.51 -0.77 -1.45 -0.85 -1.41 -0.9 -1.36 -0.97 -1.31 -1.04 -1.26 -1.08 -1.22 -1.15 -1.15 -1.22 -1.08 -1.26 -1.04 -1.31 -0.97 -1.36 -0.9 -1.41 -0.85 -1.46 -0.77 -1.5 -0.69 -1.54 -0.63 -1.57 -0.54 -1.63 -0.47 -1.63 -0.4 -1.69 -0.3 -1.71 -0.22 -1.74 -0.14 -1.76 -0.04 -1.78 0 0zm4.34 -412.71l0 412.71 -4.34 0 0 -412.71 0 0 4.34 0zm30.41 -34.76l0 4.34 0 0 -1.56 0.04 -1.54 0.12 -1.52 0.2 -1.49 0.26 -1.46 0.34 -1.46 0.41 -1.4 0.48 -1.38 0.55 -1.35 0.61 -1.31 0.67 -1.27 0.73 -1.23 0.8 -1.2 0.85 -1.15 0.9 -1.1 0.96 -1.06 1.01 -1.01 1.06 -0.96 1.1 -0.9 1.15 -0.85 1.2 -0.8 1.23 -0.73 1.28 -0.67 1.3 -0.61 1.36 -0.55 1.37 -0.48 1.41 -0.41 1.45 -0.34 1.47 -0.26 1.49 -0.2 1.52 -0.12 1.54 -0.04 1.56 -4.34 0 0.04 -1.78 0.14 -1.76 0.22 -1.74 0.3 -1.71 0.4 -1.69 0.47 -1.63 0.54 -1.63 0.63 -1.57 0.69 -1.54 0.77 -1.5 0.85 -1.46 0.9 -1.41 0.97 -1.36 1.04 -1.31 1.08 -1.26 1.15 -1.22 1.22 -1.15 1.26 -1.08 1.31 -1.04 1.36 -0.97 1.41 -0.9 1.45 -0.85 1.51 -0.77 1.53 -0.69 1.58 -0.63 1.62 -0.54 1.64 -0.47 1.68 -0.4 1.71 -0.3 1.74 -0.22 1.76 -0.14 1.78 -0.04 0 0z"/>
   </g>
   <g>
    <path class="fil1" d="M2868.55 2547.13l0 0 0 0 0 0 0 -2.17 0 2.17zm56.48 54.31l-4.34 0 0 0 -0.07 -2.68 -0.2 -2.64 -0.34 -2.6 -0.46 -2.56 -0.58 -2.52 -0.7 -2.47 -0.83 -2.42 -0.93 -2.36 -1.05 -2.32 -1.15 -2.24 -1.25 -2.18 -1.37 -2.12 -1.45 -2.05 -1.55 -1.96 -1.65 -1.9 -1.73 -1.81 -1.81 -1.73 -1.9 -1.65 -1.96 -1.55 -2.05 -1.45 -2.12 -1.37 -2.18 -1.25 -2.24 -1.15 -2.32 -1.05 -2.36 -0.93 -2.42 -0.83 -2.47 -0.7 -2.52 -0.58 -2.56 -0.46 -2.6 -0.34 -2.64 -0.2 -2.68 -0.07 0 -4.34 2.9 0.07 2.86 0.22 2.82 0.36 2.78 0.5 2.72 0.64 2.69 0.76 2.62 0.89 2.56 1.01 2.5 1.13 2.44 1.25 2.36 1.37 2.3 1.47 2.21 1.57 2.14 1.69 2.04 1.77 1.97 1.87 1.87 1.97 1.77 2.04 1.69 2.14 1.57 2.21 1.47 2.3 1.37 2.36 1.25 2.44 1.13 2.5 1.01 2.56 0.89 2.62 0.76 2.69 0.64 2.72 0.5 2.78 0.36 2.82 0.22 2.86 0.07 2.9 0 0zm-4.34 293.25l0 -293.25 4.34 0 0 293.25 0 0 -4.34 0zm-52.14 56.47l0 -4.34 0 0 2.68 -0.07 2.64 -0.2 2.6 -0.34 2.57 -0.46 2.51 -0.57 2.47 -0.71 2.42 -0.82 2.36 -0.94 2.32 -1.05 2.24 -1.15 2.18 -1.26 2.12 -1.35 2.05 -1.46 1.97 -1.55 1.89 -1.64 1.81 -1.73 1.73 -1.81 1.65 -1.89 1.55 -1.98 1.45 -2.05 1.37 -2.11 1.25 -2.18 1.15 -2.24 1.05 -2.32 0.93 -2.36 0.83 -2.42 0.7 -2.47 0.58 -2.52 0.46 -2.56 0.34 -2.6 0.2 -2.64 0.07 -2.68 4.34 0 -0.07 2.9 -0.22 2.86 -0.36 2.82 -0.5 2.78 -0.64 2.72 -0.76 2.69 -0.89 2.62 -1.01 2.56 -1.13 2.5 -1.25 2.44 -1.37 2.36 -1.47 2.29 -1.57 2.21 -1.69 2.14 -1.77 2.05 -1.87 1.97 -1.97 1.87 -2.05 1.76 -2.13 1.69 -2.21 1.58 -2.3 1.47 -2.36 1.36 -2.44 1.25 -2.5 1.13 -2.56 1.02 -2.62 0.88 -2.69 0.77 -2.73 0.63 -2.77 0.5 -2.82 0.36 -2.86 0.22 -2.9 0.07 0 0zm0 -2.17l0 0 0 0 0 0 0 2.17 0 -2.17zm-56.47 -54.3l4.34 0 0 0 0.07 2.68 0.2 2.64 0.34 2.6 0.46 2.57 0.57 2.51 0.71 2.47 0.82 2.42 0.94 2.36 1.05 2.32 1.15 2.24 1.26 2.18 1.35 2.11 1.46 2.05 1.56 1.98 1.63 1.89 1.73 1.81 1.81 1.73 1.89 1.63 1.98 1.56 2.05 1.46 2.11 1.35 2.18 1.26 2.24 1.15 2.32 1.05 2.36 0.94 2.42 0.82 2.47 0.71 2.51 0.57 2.57 0.46 2.6 0.34 2.64 0.2 2.68 0.07 0 4.34 -2.9 -0.07 -2.86 -0.22 -2.82 -0.36 -2.77 -0.5 -2.73 -0.63 -2.69 -0.77 -2.62 -0.88 -2.56 -1.02 -2.5 -1.13 -2.44 -1.25 -2.36 -1.36 -2.29 -1.47 -2.21 -1.58 -2.14 -1.68 -2.05 -1.77 -1.97 -1.87 -1.87 -1.97 -1.77 -2.05 -1.68 -2.14 -1.58 -2.21 -1.47 -2.29 -1.36 -2.36 -1.25 -2.44 -1.13 -2.5 -1.02 -2.56 -0.88 -2.62 -0.77 -2.69 -0.63 -2.73 -0.5 -2.77 -0.36 -2.82 -0.22 -2.86 -0.07 -2.9 0 0zm4.34 -293.25l0 293.25 -4.34 0 0 -293.25 0 0 4.34 0zm52.13 -56.48l0 4.34 0 0 -2.68 0.07 -2.64 0.2 -2.6 0.34 -2.56 0.46 -2.52 0.58 -2.47 0.7 -2.42 0.83 -2.36 0.93 -2.32 1.05 -2.24 1.15 -2.18 1.25 -2.11 1.37 -2.05 1.45 -1.98 1.55 -1.89 1.65 -1.81 1.73 -1.73 1.81 -1.64 1.89 -1.55 1.97 -1.46 2.05 -1.35 2.12 -1.26 2.18 -1.15 2.24 -1.05 2.32 -0.94 2.36 -0.82 2.42 -0.71 2.47 -0.57 2.51 -0.46 2.57 -0.34 2.6 -0.2 2.64 -0.07 2.68 -4.34 0 0.07 -2.9 0.22 -2.86 0.36 -2.82 0.5 -2.77 0.63 -2.73 0.77 -2.69 0.88 -2.62 1.02 -2.56 1.13 -2.5 1.25 -2.44 1.36 -2.36 1.47 -2.3 1.58 -2.21 1.69 -2.13 1.76 -2.05 1.87 -1.97 1.97 -1.87 2.05 -1.77 2.14 -1.69 2.21 -1.57 2.29 -1.47 2.36 -1.37 2.44 -1.25 2.5 -1.13 2.56 -1.01 2.62 -0.89 2.69 -0.76 2.72 -0.64 2.78 -0.5 2.82 -0.36 2.86 -0.22 2.9 -0.07 0 0z"/>
   </g>
  </g>
 </g>
</svg>
