<?xml version="1.0" encoding="UTF-8"?>
<!DOCTYPE svg PUBLIC "-//W3C//DTD SVG 1.1//EN" "http://www.w3.org/Graphics/SVG/1.1/DTD/svg11.dtd">
<!-- Creator: CorelDRAW X8 -->
<svg xmlns="http://www.w3.org/2000/svg" xml:space="preserve" width="40mm" height="60mm" version="1.1" style="shape-rendering:geometricPrecision; text-rendering:geometricPrecision; image-rendering:optimizeQuality; fill-rule:evenodd; clip-rule:evenodd"
viewBox="0 0 4000 6000"
 xmlns:xlink="http://www.w3.org/1999/xlink">
 <defs>
  <style type="text/css">
   <![CDATA[
    .str0 {stroke:#332C2B;stroke-width:7.62}
    .fil0 {fill:none}
   ]]>
  </style>
 </defs>
 <g id="图层_x0020_1">
  <metadata id="CorelCorpID_0Corel-Layer"/>
  <path class="fil0 str0" d="M880 5258l1910 0c182,0 331,-149 331,-331l0 -3946c0,-182 -149,-331 -331,-331l-1549 0c-182,0 -331,149 -331,331l0 3946c0,182 149,331 331,331 182,0 344,33 344,92m-322 -4660l437 0c176,0 320,144 320,320l0 424c0,176 -144,320 -320,320l-437 0c-176,0 -320,-144 -320,-320l0 -424c0,-176 144,-320 320,-320zm1 33l437 0c157,0 285,129 285,286l0 425c0,157 -128,285 -285,285l-437 0c-156,0 -285,-128 -285,-285l0 -425c0,-157 129,-286 285,-286zm-75 312c-104,-60 -66,-294 79,-294 144,0 262,118 262,262 0,144 -118,262 -262,262 -145,0 -262,-118 -262,-262 0,-144 117,-262 262,-262m360 735c-104,-60 -66,-294 78,-294 145,0 262,117 262,262 0,144 -117,261 -262,261 -144,0 -261,-117 -261,-261 0,-145 117,-262 261,-262m30 -232c-45,-26 -28,-125 33,-125 62,0 112,50 112,111 0,62 -50,112 -112,112 -61,0 -111,-50 -111,-112 0,-61 50,-111 111,-111m-570 677c-21,-12 -13,-60 16,-60 30,0 54,24 54,54 0,30 -24,54 -54,54 -29,0 -53,-24 -53,-54 0,-30 24,-54 53,-54"/>
 </g>
</svg>
