<?xml version="1.0" encoding="UTF-8"?>
<!DOCTYPE svg PUBLIC "-//W3C//DTD SVG 1.1//EN" "http://www.w3.org/Graphics/SVG/1.1/DTD/svg11.dtd">
<!-- Creator: CorelDRAW X8 -->
<svg xmlns="http://www.w3.org/2000/svg" xml:space="preserve" width="40mm" height="60mm" version="1.1" style="shape-rendering:geometricPrecision; text-rendering:geometricPrecision; image-rendering:optimizeQuality; fill-rule:evenodd; clip-rule:evenodd"
viewBox="0 0 4000 6000"
 xmlns:xlink="http://www.w3.org/1999/xlink">
 <defs>
  <style type="text/css">
   <![CDATA[
    .str0 {stroke:black;stroke-width:7.62}
    .fil0 {fill:none}
   ]]>
  </style>
 </defs>
 <g id="图层_x0020_1">
  <metadata id="CorelCorpID_0Corel-Layer"/>
  <path class="fil0 str0" d="M1051 679c312,-17 633,-29 949,-29 317,0 633,12 949,29 134,8 243,110 243,244l0 4145c0,134 -110,229 -243,240 -316,28 -632,41 -949,42 -317,1 -630,-10 -949,-39 -133,-11 -243,-109 -243,-243l0 -4145c0,-134 109,-236 243,-244zm333 63c0,-5 -4,-9 -13,-10 -30,0 -54,25 -54,55 0,30 24,55 54,55 30,0 55,-25 55,-55 0,-30 -25,-55 -55,-55m544 53c-5,-19 -16,-35 -64,-35l-41 0c-21,0 -38,18 -38,39l0 0c0,21 17,39 38,39l392 0c21,0 39,-17 39,-39l0 0c0,-21 -18,-39 -39,-39l-351 0m-206 15c-3,-13 -8,-22 -30,-22l-19 0c-25,0 -46,21 -46,47l0 0c0,25 21,46 46,46l94 0c26,0 47,-21 47,-46l0 0c0,-26 -21,-47 -47,-47l-75 0m-449 25c0,-3 -2,-6 -7,-6 -17,0 -31,14 -31,31 0,17 14,31 31,31 17,0 31,-14 31,-31 0,-17 -14,-31 -31,-31"/>
 </g>
</svg>
