<?xml version="1.0" encoding="UTF-8"?>
<!DOCTYPE svg PUBLIC "-//W3C//DTD SVG 1.1//EN" "http://www.w3.org/Graphics/SVG/1.1/DTD/svg11.dtd">
<!-- Creator: CorelDRAW X8 -->
<svg xmlns="http://www.w3.org/2000/svg" xml:space="preserve" width="40mm" height="60mm" version="1.1" style="shape-rendering:geometricPrecision; text-rendering:geometricPrecision; image-rendering:optimizeQuality; fill-rule:evenodd; clip-rule:evenodd"
viewBox="0 0 4000 6000"
 xmlns:xlink="http://www.w3.org/1999/xlink">
 <defs>
  <style type="text/css">
   <![CDATA[
    .str0 {stroke:black;stroke-width:7.62}
    .fil0 {fill:none}
   ]]>
  </style>
 </defs>
 <g id="Capa_x0020_1">
  <metadata id="CorelCorpID_0Corel-Layer"/>
  <path class="fil0 str0" d="M1655 691c28,0 51,22 51,49 0,26 -23,48 -51,48 -29,0 -52,-22 -51,-49 0,-27 23,-48 51,-48zm-392 6l82 -1m-82 59l83 -1m-1 -58l0 0 1 0c15,1 27,14 27,30 0,15 -13,28 -27,28m-83 1l-1 0c-15,0 -26,-13 -26,-29 0,-16 12,-29 27,-29m589 82l302 0m-303 -77l303 0m0 0c16,0 30,17 30,38 0,21 -13,39 -30,39m-302 0c-17,0 -30,-17 -31,-38 0,-22 14,-39 30,-39m-826 -52l1950 0c82,0 149,67 149,149l0 4402c0,82 -67,149 -149,149l-1950 0c-82,0 -149,-67 -149,-149l0 -4402c0,-82 67,-149 149,-149z"/>
 </g>
</svg>
