<?xml version="1.0" encoding="UTF-8"?>
<!DOCTYPE svg PUBLIC "-//W3C//DTD SVG 1.1//EN" "http://www.w3.org/Graphics/SVG/1.1/DTD/svg11.dtd">
<!-- Creator: CorelDRAW X8 -->
<svg xmlns="http://www.w3.org/2000/svg" xml:space="preserve" width="40mm" height="60mm" version="1.1" style="shape-rendering:geometricPrecision; text-rendering:geometricPrecision; image-rendering:optimizeQuality; fill-rule:evenodd; clip-rule:evenodd"
viewBox="0 0 4000 6000"
 xmlns:xlink="http://www.w3.org/1999/xlink">
 <defs>
  <style type="text/css">
   <![CDATA[
    .str0 {stroke:black;stroke-width:7.62}
    .fil0 {fill:none}
   ]]>
  </style>
 </defs>
 <g id="图层_x0020_1">
  <metadata id="CorelCorpID_0Corel-Layer"/>
  <path class="fil0 str0" d="M984 5350l1758 0c234,0 425,-191 425,-425l0 -3850c0,-234 -191,-425 -425,-425l-1484 0c-234,0 -425,191 -425,425l0 3850c0,234 191,425 425,425l206 0m559 -4614c-1,-11 -10,-21 -30,-23 -72,0 -130,58 -130,130 0,71 58,129 130,129 71,0 129,-58 129,-129 0,-72 -58,-130 -129,-130m-445 760c-22,6 -38,13 -38,51l0 30c0,43 35,78 78,78l0 0c43,0 78,-35 78,-78l0 -155c0,-43 -35,-78 -78,-78l0 0c-43,0 -78,35 -78,78l0 125m-90 -517c-1,-2 -3,-4 -7,-5 -16,0 -29,13 -29,29 0,17 13,30 29,30 16,0 29,-13 29,-30 0,-16 -13,-29 -29,-29m625 299c-2,-18 -18,-35 -52,-38 -121,0 -219,98 -219,219 0,121 98,218 219,218 121,0 219,-97 219,-218 0,-121 -98,-219 -219,-219"/>
 </g>
</svg>
