<?xml version="1.0" encoding="utf-8"?>
<!-- Generator: Adobe Illustrator 16.0.0, SVG Export Plug-In . SVG Version: 6.00 Build 0)  -->
<!DOCTYPE svg PUBLIC "-//W3C//DTD SVG 1.1//EN" "http://www.w3.org/Graphics/SVG/1.1/DTD/svg11.dtd">
<svg version="1.1" id="图层_1" xmlns="http://www.w3.org/2000/svg" xmlns:xlink="http://www.w3.org/1999/xlink" x="0px" y="0px"
	 width="113.387px" height="170.078px" viewBox="0 0 113.387 170.078" enable-background="new 0 0 113.387 170.078"
	 xml:space="preserve">
<g>
	<path fill-rule="evenodd" clip-rule="evenodd" d="M27.061,85.036c0-19.852,0.003-39.704-0.004-59.556
		c-0.001-2.318,0.875-4.202,2.691-5.632c1.241-0.977,2.676-1.426,4.255-1.419c0.66,0.003,1.32,0,1.98,0
		c14.411,0,28.821,0.004,43.232-0.004c2.217-0.001,4.064,0.778,5.504,2.468c1.049,1.232,1.56,2.679,1.605,4.292
		c0.004,0.125,0.002,0.25,0.002,0.375c0.001,39.659,0,79.317,0.003,118.975c0,2.335-0.856,4.256-2.702,5.7
		c-1.173,0.919-2.52,1.388-4.016,1.41c-0.113,0.002-0.228,0.003-0.341,0.003c-15.06,0.001-30.12-0.003-45.18,0.004
		c-2.291,0.001-4.159-0.862-5.584-2.648c-0.945-1.184-1.422-2.552-1.444-4.072c-0.003-0.204-0.003-0.409-0.003-0.614
		C27.061,124.558,27.061,104.797,27.061,85.036z M27.836,85.043c0,8.127,0,16.254,0,24.381c0,11.689,0.001,23.378-0.001,35.068
		c-0.001,0.932,0.101,1.845,0.501,2.694c1.147,2.433,3.082,3.681,5.766,3.685c11.337,0.013,22.674,0.005,34.01,0.005
		c3.722,0,7.444-0.002,11.166,0.001c1.15,0.002,2.243-0.227,3.229-0.831c2.027-1.246,3.029-3.071,3.029-5.453
		c-0.001-39.701,0-79.402-0.001-119.104c0-0.103,0.01-0.206-0.002-0.307c-0.055-0.45-0.073-0.911-0.182-1.349
		c-0.685-2.758-3.094-4.62-5.974-4.622c-7.125-0.004-14.25-0.002-21.376-0.002c-7.979,0-15.957,0.002-23.937-0.001
		c-1.324,0-2.548,0.33-3.625,1.106c-1.783,1.288-2.607,3.055-2.606,5.246C27.838,45.388,27.836,65.216,27.836,85.043z"/>
	<path fill-rule="evenodd" clip-rule="evenodd" d="M56.733,21.115c1.518,0.02,2.745,1.267,2.738,2.785
		c-0.006,1.549-1.27,2.792-2.819,2.773c-1.558-0.019-2.766-1.268-2.747-2.838C53.923,22.307,55.183,21.095,56.733,21.115z
		 M58.688,23.881c-0.006-1.089-0.919-1.996-2.006-1.992c-1.094,0.003-1.993,0.904-1.997,1.999c-0.004,1.105,0.919,2.023,2.021,2.009
		C57.796,25.884,58.694,24.971,58.688,23.881z"/>
</g>
<path fill-rule="evenodd" clip-rule="evenodd" d="M542.693,144.539"/>
</svg>
