<?xml version="1.0" encoding="UTF-8"?>
<!DOCTYPE svg PUBLIC "-//W3C//DTD SVG 1.1//EN" "http://www.w3.org/Graphics/SVG/1.1/DTD/svg11.dtd">
<!-- Creator: CorelDRAW X8 -->
<svg xmlns="http://www.w3.org/2000/svg" xml:space="preserve" width="40mm" height="60mm" version="1.1" style="shape-rendering:geometricPrecision; text-rendering:geometricPrecision; image-rendering:optimizeQuality; fill-rule:evenodd; clip-rule:evenodd"
viewBox="0 0 4000 6000"
 xmlns:xlink="http://www.w3.org/1999/xlink">
 <defs>
  <style type="text/css">
   <![CDATA[
    .str0 {stroke:black;stroke-width:7.62}
    .fil0 {fill:none}
   ]]>
  </style>
 </defs>
 <g id="图层_x0020_1">
  <metadata id="CorelCorpID_0Corel-Layer"/>
  <path class="fil0 str0" d="M1236 650l480 0c89,0 161,72 161,160l0 1144c0,88 -72,160 -161,160l-480 0c-88,0 -161,-72 -161,-160l0 -1144c0,-88 73,-160 161,-160zm0 1618l480 0c89,0 161,72 161,160l0 1144c0,88 -72,160 -161,160l-480 0c-88,0 -161,-72 -161,-160l0 -1144c0,-88 73,-160 161,-160zm0 1618l480 0c89,0 161,72 161,160l0 1144c0,88 -72,160 -161,160l-480 0c-88,0 -161,-72 -161,-160l0 -1144c0,-88 73,-160 161,-160zm1048 -3236l480 0c88,0 161,72 161,160l0 1144c0,88 -73,160 -161,160l-480 0c-89,0 -161,-72 -161,-160l0 -1144c0,-88 72,-160 161,-160zm0 1618l480 0c88,0 161,72 161,160l0 1144c0,88 -73,160 -161,160l-480 0c-89,0 -161,-72 -161,-160l0 -1144c0,-88 72,-160 161,-160zm0 1618l480 0c88,0 161,72 161,160l0 1144c0,88 -73,160 -161,160l-480 0c-89,0 -161,-72 -161,-160l0 -1144c0,-88 72,-160 161,-160zm-1048 -3177l480 0c56,0 102,46 102,101l0 1144c0,55 -46,101 -102,101l-480 0c-56,0 -101,-46 -101,-101l0 -1144c0,-55 45,-101 101,-101zm0 1618l480 0c56,0 102,46 102,101l0 1144c0,55 -46,101 -102,101l-480 0c-56,0 -101,-46 -101,-101l0 -1144c0,-55 45,-101 101,-101zm0 1618l480 0c56,0 102,46 102,101l0 1144c0,55 -46,101 -102,101l-480 0c-56,0 -101,-46 -101,-101l0 -1144c0,-55 45,-101 101,-101zm1048 -3236l480 0c56,0 101,46 101,101l0 1144c0,55 -45,101 -101,101l-480 0c-56,0 -102,-46 -102,-101l0 -1144c0,-55 46,-101 102,-101zm0 1618l480 0c56,0 101,46 101,101l0 1144c0,55 -45,101 -101,101l-480 0c-56,0 -102,-46 -102,-101l0 -1144c0,-55 46,-101 102,-101zm0 1618l480 0c56,0 101,46 101,101l0 1144c0,55 -45,101 -101,101l-480 0c-56,0 -102,-46 -102,-101l0 -1144c0,-55 46,-101 102,-101zm-1039 -3214l468 0c47,0 86,39 86,87l0 357c0,48 -39,87 -86,87l-468 0c-48,0 -86,-39 -86,-87l0 -357c0,-48 38,-87 86,-87zm0 1618l468 0c47,0 86,39 86,87l0 358c0,47 -39,86 -86,86l-468 0c-48,0 -86,-39 -86,-86l0 -358c0,-48 38,-87 86,-87zm0 1618l468 0c47,0 86,39 86,87l0 358c0,47 -39,86 -86,86l-468 0c-48,0 -86,-39 -86,-86l0 -358c0,-48 38,-87 86,-87zm1048 -3236l468 0c47,0 86,39 86,87l0 357c0,48 -39,87 -86,87l-468 0c-48,0 -87,-39 -87,-87l0 -357c0,-48 39,-87 87,-87zm0 1618l468 0c47,0 86,39 86,87l0 358c0,47 -39,86 -86,86l-468 0c-48,0 -87,-39 -87,-86l0 -358c0,-48 39,-87 87,-87zm0 1618l468 0c47,0 86,39 86,87l0 358c0,47 -39,86 -86,86l-468 0c-48,0 -87,-39 -87,-86l0 -358c0,-48 39,-87 87,-87zm-611 -2628c-1,-12 -11,-23 -32,-24 -77,0 -139,62 -139,138 0,77 62,139 139,139 76,0 138,-62 138,-139 0,-76 -62,-138 -138,-138m32 1642c-1,-12 -11,-23 -32,-24 -77,0 -139,62 -139,138 0,77 62,139 139,139 76,0 138,-62 138,-139 0,-76 -62,-138 -138,-138m32 1642c-1,-11 -11,-23 -32,-24 -77,0 -139,62 -139,139 0,76 62,138 139,138 76,0 138,-62 138,-138 0,-77 -62,-139 -138,-139m1080 -3212c-1,-12 -11,-23 -33,-24 -76,0 -138,62 -138,138 0,77 62,139 138,139 77,0 139,-62 139,-139 0,-76 -62,-138 -139,-138m33 1642c-1,-12 -11,-23 -33,-24 -76,0 -138,62 -138,138 0,77 62,139 138,139 77,0 139,-62 139,-139 0,-76 -62,-138 -139,-138m33 1642c-1,-11 -11,-23 -33,-24 -76,0 -138,62 -138,139 0,76 62,138 138,138 77,0 139,-62 139,-138 0,-77 -62,-139 -139,-139m-1356 -3212c-1,-12 -12,-23 -33,-24 -77,0 -139,62 -139,138 0,77 62,139 139,139 76,0 138,-62 138,-139 0,-76 -62,-138 -138,-138m33 1642c-1,-12 -12,-23 -33,-24 -77,0 -139,62 -139,138 0,77 62,139 139,139 76,0 138,-62 138,-139 0,-76 -62,-138 -138,-138m33 1642c-1,-11 -12,-23 -33,-24 -77,0 -139,62 -139,139 0,76 62,138 139,138 76,0 138,-62 138,-138 0,-77 -62,-139 -138,-139m1080 -3212c0,-12 -11,-23 -32,-24 -77,0 -139,62 -139,138 0,77 62,139 139,139 76,0 138,-62 138,-139 0,-76 -62,-138 -138,-138m32 1642c0,-12 -11,-23 -32,-24 -77,0 -139,62 -139,138 0,77 62,139 139,139 76,0 138,-62 138,-139 0,-76 -62,-138 -138,-138m32 1642c0,-11 -11,-23 -32,-24 -77,0 -139,62 -139,139 0,76 62,138 139,138 76,0 138,-62 138,-138 0,-77 -62,-139 -138,-139m-1015 -2813c-1,-12 -12,-23 -33,-25 -77,0 -139,62 -139,139 0,77 62,139 139,139 76,0 138,-62 138,-139 0,-77 -62,-139 -138,-139m33 1643c-1,-12 -12,-23 -33,-25 -77,0 -139,62 -139,139 0,77 62,139 139,139 76,0 138,-62 138,-139 0,-77 -62,-139 -138,-139m33 1643c-1,-12 -12,-23 -33,-25 -77,0 -139,62 -139,139 0,77 62,139 139,139 76,0 138,-62 138,-139 0,-77 -62,-139 -138,-139m1080 -3211c0,-12 -11,-23 -32,-25 -77,0 -139,62 -139,139 0,77 62,139 139,139 76,0 138,-62 138,-139 0,-77 -62,-139 -138,-139m32 1643c0,-12 -11,-23 -32,-25 -77,0 -139,62 -139,139 0,77 62,139 139,139 76,0 138,-62 138,-139 0,-77 -62,-139 -138,-139m32 1643c0,-12 -11,-23 -32,-25 -77,0 -139,62 -139,139 0,77 62,139 139,139 76,0 138,-62 138,-139 0,-77 -62,-139 -138,-139m-674 -3211c-1,-12 -11,-23 -33,-25 -76,0 -138,62 -138,139 0,77 62,139 138,139 77,0 139,-62 139,-139 0,-77 -62,-139 -139,-139m33 1643c-1,-12 -11,-23 -33,-25 -76,0 -138,62 -138,139 0,77 62,139 138,139 77,0 139,-62 139,-139 0,-77 -62,-139 -139,-139m33 1643c-1,-12 -11,-23 -33,-25 -76,0 -138,62 -138,139 0,77 62,139 138,139 77,0 139,-62 139,-139 0,-77 -62,-139 -139,-139m1081 -3211c-1,-12 -11,-23 -33,-25 -76,0 -139,62 -139,139 0,77 63,139 139,139 77,0 139,-62 139,-139 0,-77 -62,-139 -139,-139m33 1643c-1,-12 -11,-23 -33,-25 -76,0 -139,62 -139,139 0,77 63,139 139,139 77,0 139,-62 139,-139 0,-77 -62,-139 -139,-139m33 1643c-1,-12 -11,-23 -33,-25 -76,0 -139,62 -139,139 0,77 63,139 139,139 77,0 139,-62 139,-139 0,-77 -62,-139 -139,-139"/>
 </g>
</svg>
