<?xml version="1.0" encoding="UTF-8"?>
<!DOCTYPE svg PUBLIC "-//W3C//DTD SVG 1.1//EN" "http://www.w3.org/Graphics/SVG/1.1/DTD/svg11.dtd">
<!-- Creator: CorelDRAW X8 -->
<svg xmlns="http://www.w3.org/2000/svg" xml:space="preserve" width="40mm" height="60mm" version="1.1" style="shape-rendering:geometricPrecision; text-rendering:geometricPrecision; image-rendering:optimizeQuality; fill-rule:evenodd; clip-rule:evenodd"
viewBox="0 0 4000 6000"
 xmlns:xlink="http://www.w3.org/1999/xlink">
 <defs>
  <style type="text/css">
   <![CDATA[
    .str0 {stroke:black;stroke-width:20}
    .fil0 {fill:none}
   ]]>
  </style>
 </defs>
 <g id="图层_x0020_1">
  <metadata id="CorelCorpID_0Corel-Layer"/>
  <path class="fil0 str0" d="M950 5350l1656 0 252 0c133,0 241,-104 241,-237 0,-14 10,-21 22,-21l102 0c65,0 119,-53 119,-119l0 -3946c0,-66 -54,-119 -119,-119l-103 0c-8,0 -21,-9 -21,-19 0,-132 -108,-239 -241,-239l-206 0 -1304 0 -206 0c-133,0 -241,106 -241,239 0,15 -20,27 -35,27 -30,0 -58,0 -89,0 -65,0 -119,53 -119,119l0 3946c0,66 54,119 119,119l110 0c7,0 14,7 14,12 0,133 108,238 241,238l110 0m-48 -4594c33,0 61,27 61,61 0,33 -28,60 -61,60 -33,0 -61,-27 -61,-60 0,-34 28,-61 61,-61zm1964 1055l0 0c21,0 37,17 37,38l0 549c0,21 -16,38 -37,38l0 0c-20,0 -37,-17 -37,-38l0 -549c0,-21 17,-38 37,-38zm0 746l0 0c21,0 37,17 37,37l0 278c0,20 -16,37 -37,37l0 0c-20,0 -37,-17 -37,-37l0 -278c0,-20 17,-37 37,-37z"/>
 </g>
</svg>
