<?xml version="1.0" encoding="UTF-8"?>
<!DOCTYPE svg PUBLIC "-//W3C//DTD SVG 1.1//EN" "http://www.w3.org/Graphics/SVG/1.1/DTD/svg11.dtd">
<!-- Creator: CorelDRAW X8 -->
<svg xmlns="http://www.w3.org/2000/svg" xml:space="preserve" width="40mm" height="60mm" version="1.1" style="shape-rendering:geometricPrecision; text-rendering:geometricPrecision; image-rendering:optimizeQuality; fill-rule:evenodd; clip-rule:evenodd"
viewBox="0 0 4000 6000"
 xmlns:xlink="http://www.w3.org/1999/xlink">
 <defs>
  <style type="text/css">
   <![CDATA[
    .str0 {stroke:black;stroke-width:7.62}
    .fil0 {fill:none}
   ]]>
  </style>
 </defs>
 <g id="图层_x0020_1">
  <metadata id="CorelCorpID_0Corel-Layer"/>
  <path class="fil0 str0" d="M969 5350l1918 0c151,0 273,-123 273,-273l0 -4154c0,-150 -122,-273 -273,-273l-1774 0c-151,0 -273,123 -273,273l0 4154c0,150 122,273 273,273l92 0m1526 -4490c-1,-7 -6,-13 -18,-14 -41,0 -74,34 -74,75 0,41 33,74 74,74 41,0 74,-33 74,-74 0,-41 -33,-75 -74,-75m-783 69c-6,-21 -17,-37 -67,-37l-43 0c-22,0 -41,19 -41,41l0 0c0,23 19,41 41,41l380 0c23,0 41,-18 41,-41l0 0c0,-22 -18,-41 -41,-41l-337 0m-658 -6c0,-5 -5,-9 -14,-10 -32,0 -58,26 -58,59 0,32 26,58 58,58 32,0 59,-26 59,-58 0,-33 -27,-59 -59,-59"/>
 </g>
</svg>
