<?xml version="1.0" encoding="UTF-8"?>
<!DOCTYPE svg PUBLIC "-//W3C//DTD SVG 1.1//EN" "http://www.w3.org/Graphics/SVG/1.1/DTD/svg11.dtd">
<!-- Creator: CorelDRAW X8 -->
<svg xmlns="http://www.w3.org/2000/svg" xml:space="preserve" width="40mm" height="60mm" version="1.1" style="shape-rendering:geometricPrecision; text-rendering:geometricPrecision; image-rendering:optimizeQuality; fill-rule:evenodd; clip-rule:evenodd"
viewBox="0 0 4000 6000"
 xmlns:xlink="http://www.w3.org/1999/xlink">
 <defs>
  <style type="text/css">
   <![CDATA[
    .str0 {stroke:#332C2B;stroke-width:20}
    .fil0 {fill:none}
   ]]>
  </style>
 </defs>
 <g id="图层_x0020_1">
  <metadata id="CorelCorpID_0Corel-Layer"/>
  <path class="fil0 str0" d="M900 5226l1999 0c111,0 201,-91 201,-201l0 -4174c0,-111 -90,-201 -201,-201l-563 0 -27 18 -189 0c-11,0 -18,8 -18,19l0 64c0,34 -28,61 -61,61l0 0c-34,0 -62,-27 -62,-61l0 -65c0,-10 -2,-18 -17,-18l-184 0 -25 -18 -565 0c-110,0 -200,90 -200,201l0 4174c0,110 90,201 200,201 111,0 245,62 229,124"/>
 </g>
</svg>
