<?xml version="1.0" encoding="UTF-8"?>
<!DOCTYPE svg PUBLIC "-//W3C//DTD SVG 1.1//EN" "http://www.w3.org/Graphics/SVG/1.1/DTD/svg11.dtd">
<!-- Creator: CorelDRAW X8 -->
<svg xmlns="http://www.w3.org/2000/svg" xml:space="preserve" width="40mm" height="60mm" version="1.1" style="shape-rendering:geometricPrecision; text-rendering:geometricPrecision; image-rendering:optimizeQuality; fill-rule:evenodd; clip-rule:evenodd"
viewBox="0 0 4000 6000"
 xmlns:xlink="http://www.w3.org/1999/xlink">
 <defs>
  <style type="text/css">
   <![CDATA[
    .fil0 {fill:#222222;fill-rule:nonzero}
   ]]>
  </style>
 </defs>
 <g id="图层_x0020_1">
  <metadata id="CorelCorpID_0Corel-Layer"/>
  <g>
   <path class="fil0" d="M998 5353c-2,0 -3,-1 -3,-3 0,-2 1,-3 3,-3l0 6zm1829 0l-1829 0 0 -6 1829 0 0 0 0 6zm0 -6c2,0 3,1 3,3 0,2 -1,3 -3,3l0 -6zm261 -262l7 0 0 0 -1 14 -1 14 -1 13 -3 13 -3 13 -3 13 -5 13 -4 12 -6 12 -6 11 -6 11 -7 11 -7 11 -8 10 -9 10 -9 9 -9 9 -10 8 -10 8 -10 8 -11 7 -11 6 -12 6 -12 5 -12 5 -12 4 -13 4 -13 3 -13 2 -14 2 -13 1 -14 0 0 -6 13 -1 14 -1 13 -1 13 -3 12 -3 13 -3 12 -4 12 -5 11 -5 11 -6 11 -6 11 -7 10 -7 10 -8 10 -8 9 -9 8 -9 8 -9 8 -10 8 -11 6 -10 7 -11 5 -11 6 -12 4 -12 4 -12 4 -12 3 -13 2 -13 2 -13 1 -13 0 -14 0 0zm0 0c0,-1 2,-3 3,-3 2,0 4,2 4,3l-7 0zm7 -4170l0 4170 -7 0 0 -4170 0 0 7 0zm-7 0c0,-2 2,-4 3,-4 2,0 4,2 4,4l-7 0zm-261 -262l0 -6 0 0 14 0 13 1 14 2 13 2 13 3 13 4 12 4 12 5 12 5 12 6 11 7 11 7 10 7 10 8 10 8 9 9 9 10 9 9 8 10 7 11 7 11 6 11 6 12 6 11 4 13 5 12 3 13 3 13 3 13 1 13 1 14 1 14 -7 0 0 -14 -1 -13 -2 -13 -2 -13 -3 -13 -4 -12 -4 -12 -4 -12 -6 -12 -5 -11 -7 -11 -6 -10 -8 -11 -8 -10 -8 -9 -8 -9 -9 -9 -10 -8 -10 -8 -10 -7 -11 -7 -11 -6 -11 -6 -11 -5 -12 -5 -12 -4 -13 -3 -12 -3 -13 -3 -13 -1 -14 -1 -13 -1 0 0zm0 0c-2,0 -3,-1 -3,-3 0,-2 1,-3 3,-3l0 6zm-602 -6l602 0 0 6 -602 0 0 0 0 -6zm0 6c-2,0 -3,-1 -3,-3 0,-2 1,-3 3,-3l0 6zm-46 47l-7 0 0 0 0 -3 0 -2 1 -3 0 -3 1 -2 0 -3 1 -2 1 -3 1 -2 1 -2 2 -3 1 -2 2 -2 1 -2 2 -2 1 -2 2 -1 2 -2 2 -2 2 -1 2 -2 3 -1 2 -1 2 -1 3 -1 2 -1 3 -1 2 0 3 -1 3 0 2 0 3 0 0 6 -2 0 -3 1 -2 0 -2 0 -3 1 -2 0 -2 1 -2 1 -2 1 -2 1 -2 1 -2 1 -2 2 -2 1 -1 1 -2 2 -1 2 -2 1 -1 2 -1 2 -2 2 -1 2 -1 2 -1 2 -1 2 0 2 -1 2 0 3 -1 2 0 2 0 3 0 2 0 0zm0 0c0,2 -2,3 -4,3 -2,0 -3,-1 -3,-3l7 0zm-7 29l0 -29 7 0 0 29 0 0 -7 0zm7 0c0,2 -2,3 -4,3 -2,0 -3,-1 -3,-3l7 0zm-30 30l0 -7 0 0 1 0 1 0 1 0 2 -1 1 0 1 0 1 -1 1 0 1 0 1 -1 1 0 1 -1 1 -1 1 0 0 -1 1 -1 1 -1 1 -1 0 0 1 -1 1 -1 0 -1 1 -1 0 -1 1 -1 0 -1 0 -1 1 -2 0 -1 0 -1 0 -1 0 -1 7 0 0 1 -1 2 0 1 0 2 0 1 -1 2 0 1 -1 1 0 2 -1 1 -1 1 0 1 -1 2 -1 1 -1 1 -1 1 -1 1 -1 1 -1 1 -1 0 -2 1 -1 1 -1 1 -2 0 -1 1 -1 0 -2 1 -1 0 -2 0 -1 0 -2 0 -1 1 0 0zm0 0c-2,0 -3,-2 -3,-4 0,-2 1,-3 3,-3l0 7zm-298 -7l298 0 0 7 -298 0 0 0 0 -7zm0 7c-2,0 -3,-2 -3,-4 0,-2 1,-3 3,-3l0 7zm-30 -30l7 0 0 0 0 1 0 1 0 1 0 1 1 2 0 1 0 1 1 1 0 1 1 1 0 1 1 1 1 1 0 0 1 1 1 1 1 1 0 1 1 0 1 1 1 1 1 0 1 1 1 0 1 0 1 1 1 0 2 0 1 1 1 0 1 0 1 0 0 7 -1 -1 -2 0 -1 0 -2 0 -1 0 -2 -1 -1 0 -1 -1 -2 0 -1 -1 -1 -1 -1 -1 -2 0 -1 -1 -1 -1 -1 -1 -1 -1 -1 -1 -1 -1 -1 -2 0 -1 -1 -1 -1 -1 0 -2 -1 -1 0 -1 -1 -2 0 -1 0 -2 0 -1 -1 -2 0 -1 0 0zm0 0c0,-2 2,-4 4,-4 2,0 3,2 3,4l-7 0zm7 -29l0 29 -7 0 0 -29 0 0 7 0zm-7 0c0,-2 2,-3 4,-3 2,0 3,1 3,3l-7 0zm-46 -47l0 -6 0 0 3 0 3 0 2 0 3 1 2 0 3 1 2 1 3 1 2 1 2 1 3 1 2 2 2 1 2 2 2 2 2 1 1 2 2 2 2 2 1 2 1 2 2 3 1 2 1 2 1 3 1 2 0 3 1 2 0 3 1 3 0 2 0 3 -7 0 0 -2 0 -3 0 -2 -1 -2 0 -3 -1 -2 0 -2 -1 -2 -1 -2 -1 -2 -1 -2 -2 -2 -1 -2 -1 -2 -2 -1 -1 -2 -2 -2 -1 -1 -2 -1 -2 -2 -2 -1 -2 -1 -2 -1 -2 -1 -2 -1 -2 -1 -2 0 -3 -1 -2 0 -2 0 -2 -1 -3 0 0 0zm0 0c-2,0 -3,-1 -3,-3 0,-2 1,-3 3,-3l0 6zm-602 -6l602 0 0 6 -602 0 0 0 0 -6zm0 6c-2,0 -3,-1 -3,-3 0,-2 1,-3 3,-3l0 6zm-261 262l-7 0 0 0 1 -14 1 -14 1 -13 3 -13 3 -13 3 -13 5 -12 4 -13 6 -11 6 -12 6 -11 7 -11 7 -11 8 -10 9 -9 9 -10 9 -9 10 -8 10 -8 10 -7 11 -7 11 -7 12 -6 12 -5 12 -5 12 -4 13 -4 13 -3 13 -2 14 -2 13 -1 14 0 0 6 -13 1 -14 1 -13 1 -13 3 -12 3 -13 3 -12 4 -12 5 -11 5 -11 6 -11 6 -11 7 -10 7 -10 8 -10 8 -9 9 -8 9 -8 9 -8 10 -8 11 -6 10 -7 11 -5 11 -6 12 -4 12 -4 12 -4 12 -3 13 -2 13 -2 13 -1 13 0 14 0 0zm0 0c0,2 -2,3 -3,3 -2,0 -4,-1 -4,-3l7 0zm-7 4170l0 -4170 7 0 0 4170 0 0 -7 0zm7 0c0,2 -2,4 -3,4 -2,0 -4,-2 -4,-4l7 0zm261 262l0 6 0 0 -14 0 -13 -1 -14 -2 -13 -2 -13 -3 -13 -4 -12 -4 -12 -5 -12 -5 -12 -6 -11 -6 -11 -7 -10 -8 -10 -8 -10 -8 -9 -9 -9 -9 -9 -10 -8 -10 -7 -11 -7 -11 -6 -11 -6 -11 -6 -12 -4 -12 -5 -13 -3 -13 -3 -13 -3 -13 -1 -13 -1 -14 -1 -14 7 0 0 14 1 13 2 13 2 13 3 13 4 12 4 12 4 12 6 12 5 11 7 11 6 10 8 11 8 10 8 9 8 9 9 9 10 8 10 8 10 7 11 7 11 6 11 6 11 5 12 5 12 4 13 3 12 3 13 3 13 1 14 1 13 1 0 0zm0 0c2,0 3,1 3,3 0,2 -1,3 -3,3l0 -6zm164 6l-164 0 0 -6 164 0 0 6zm0 -6c2,0 3,1 3,3 0,2 -1,3 -3,3l0 -6z"/>
  </g>
 </g>
</svg>
