<?xml version="1.0" encoding="UTF-8"?>
<!DOCTYPE svg PUBLIC "-//W3C//DTD SVG 1.1//EN" "http://www.w3.org/Graphics/SVG/1.1/DTD/svg11.dtd">
<!-- Creator: CorelDRAW 2020 (64-Bit) -->
<svg xmlns="http://www.w3.org/2000/svg" xml:space="preserve" width="40mm" height="60mm" version="1.1" style="shape-rendering:geometricPrecision; text-rendering:geometricPrecision; image-rendering:optimizeQuality; fill-rule:evenodd; clip-rule:evenodd"
viewBox="0 0 4000 6000"
 xmlns:xlink="http://www.w3.org/1999/xlink"
 xmlns:xodm="http://www.corel.com/coreldraw/odm/2003">
 <defs>
  <style type="text/css">
   <![CDATA[
    .str2 {stroke:#332C2B;stroke-width:20;stroke-miterlimit:22.9256}
    .str1 {stroke:#E62129;stroke-width:20;stroke-miterlimit:22.9256}
    .str0 {stroke:#E62129;stroke-width:20;stroke-miterlimit:22.9256}
    .fil0 {fill:none}
   ]]>
  </style>
   <clipPath id="id0">
    <rect x="-54079.22" y="-5465.83" width="16236.58" height="18037.06"/>
   </clipPath>
 </defs>
 <g id="图层_x0020_1">
  <metadata id="CorelCorpID_0Corel-Layer"/>
  <g style="clip-path:url(#id0)">
   <image x="-54079.22" y="-5465.83" width="16236.58" height="18037.06" xlink:href="S89 Pro -11i（前膜全屏）_Images\S89 Pro -11i（前膜全屏）_ImgID1.png"/>
  </g>
  <rect class="fil0 str0" x="-47000.66" y="-4970.54" width="8600" height="17200"/>
  <path class="fil0 str0" d="M-46345.23 -3890.46l584.88 -508 1820.22 0c75.3,0 124.19,145.9 202.41,145.9l2133.19 0c78.22,0 137.36,-145.9 217.62,-145.9l1825.77 0 505.07 486.83 0 15067.11 -569.81 522.56 -6118.55 0 -600.8 -560.92 0 -15007.58z"/>
  <circle class="fil0 str1" cx="-42668.54" cy="-3660.52" r="222.25"/>
  <path class="fil0 str2" d="M-7995.47 6929.44l0 -6319.01 -522.56 -569.81 -15067.11 0 -486.83 505.07 0 1825.77c0,80.26 145.9,139.4 145.9,217.62l0 2133.19c0,78.22 -145.9,127.11 -145.9,202.41l0 1820.22 508 584.88 15007.58 0 560.92 -600.8 0 -94.55c0,0 11.44,-292.72 90.82,-368.79"/>
  <path class="fil0 str2" d="M-23556.28 3653.09c0,122.74 99.51,222.25 222.25,222.25 122.74,0 222.25,-99.51 222.25,-222.25 0,-122.74 -99.51,-222.25 -222.25,-222.25 -122.74,0 -222.25,99.51 -222.25,222.25 0,122.74 148.18,156.04 174.64,158.69"/>
  <g id="_2527865163216">
   <path class="fil0 str2" d="M1049.74 5324.13l1837 0 165.64 -151.92 0 -4380.15 -146.82 -141.53 -530.77 0c-23.34,0 -40.53,42.41 -63.27,42.41l-620.14 0c-22.74,0 -36.95,-42.41 -58.84,-42.41l-529.15 0 -170.03 147.68 0 4362.85 174.65 163.07 27.49 0c0,0 85.1,3.32 107.21,26.4"/>
   <path class="fil0 str2" d="M2002.2 800.45c-35.68,0 -64.61,28.92 -64.61,64.61 0,35.68 28.93,64.61 64.61,64.61 35.69,0 64.61,-28.93 64.61,-64.61 0,-35.69 -28.92,-64.61 -64.61,-64.61 -35.68,0 -45.36,43.07 -46.13,50.77"/>
  </g>
 </g>
</svg>
