<?xml version="1.0" encoding="UTF-8"?>
<!DOCTYPE svg PUBLIC "-//W3C//DTD SVG 1.1//EN" "http://www.w3.org/Graphics/SVG/1.1/DTD/svg11.dtd">
<!-- Creator: CorelDRAW X8 -->
<svg xmlns="http://www.w3.org/2000/svg" xml:space="preserve" width="40mm" height="60mm" version="1.1" style="shape-rendering:geometricPrecision; text-rendering:geometricPrecision; image-rendering:optimizeQuality; fill-rule:evenodd; clip-rule:evenodd"
viewBox="0 0 4000 6000"
 xmlns:xlink="http://www.w3.org/1999/xlink">
 <defs>
  <style type="text/css">
   <![CDATA[
    .str0 {stroke:black;stroke-width:19.4}
    .fil0 {fill:none}
   ]]>
  </style>
 </defs>
 <g id="图层_x0020_1">
  <metadata id="CorelCorpID_0Corel-Layer"/>
  <path class="fil0 str0" d="M-5062 6137l3 -1157c0,-16 -6,-25 -19,-34l-110 -68c-12,-7 -18,-13 -18,-28l0 -3377c0,-12 6,-19 12,-22l120 -71c15,-6 15,-9 15,-31 0,-275 0,-489 -3,-805 -6,-207 -34,-256 -295,-516 -277,-273 -311,-291 -550,-291l-9320 -34c-2406,-7 -3710,0 -3861,27 -142,22 -295,140 -572,440 -160,170 -167,195 -167,780 0,430 4,452 48,498 22,25 28,37 31,56 13,56 22,786 22,1674 0,882 -9,1616 -22,1678l-57 83c-18,28 -18,50 -18,443 -4,539 3,588 84,703 63,86 359,380 456,448 94,69 135,81 314,81l13122 -9c34,0 59,0 72,0 116,0 226,-84 556,-431 119,-123 141,-176 157,-380 0,-71 0,-143 0,-217"/>
  <path class="fil0 str0" d="M1052 5349l368 1c5,0 8,-2 11,-6l21 -35c2,-4 4,-6 9,-6l1075 0c4,0 6,2 7,4l23 38c2,5 3,5 9,5 88,0 156,0 257,-1 66,-2 81,-11 164,-94 87,-88 93,-99 93,-175l10 -2966c2,-766 0,-1181 -8,-1229 -7,-45 -45,-94 -140,-182 -54,-51 -62,-53 -249,-53 -136,0 -143,1 -158,15 -8,7 -12,9 -18,10 -18,4 -250,7 -533,7 -280,0 -514,-3 -534,-7l-26 -18c-9,-6 -16,-6 -141,-6 -171,-1 -187,1 -224,27 -27,20 -121,114 -143,145 -21,30 -25,43 -25,100l3 4176c0,11 0,19 0,23 0,37 26,72 137,177 39,38 56,45 121,50 23,0 45,0 69,0"/>
 </g>
</svg>
