<?xml version="1.0" encoding="UTF-8"?>
<!DOCTYPE svg PUBLIC "-//W3C//DTD SVG 1.1//EN" "http://www.w3.org/Graphics/SVG/1.1/DTD/svg11.dtd">
<!-- Creator: CorelDRAW 2020 (64-Bit) -->
<svg xmlns="http://www.w3.org/2000/svg" xml:space="preserve" width="40mm" height="60mm" version="1.1" style="shape-rendering:geometricPrecision; text-rendering:geometricPrecision; image-rendering:optimizeQuality; fill-rule:evenodd; clip-rule:evenodd"
viewBox="0 0 4000 6000"
 xmlns:xlink="http://www.w3.org/1999/xlink"
 xmlns:xodm="http://www.corel.com/coreldraw/odm/2003">
 <defs>
  <style type="text/css">
   <![CDATA[
    .str0 {stroke:#332C2B;stroke-width:7.62;stroke-miterlimit:22.9256}
    .fil0 {fill:none}
   ]]>
  </style>
 </defs>
 <g id="图层_x0020_1">
  <metadata id="CorelCorpID_0Corel-Layer"/>
  <path class="fil0 str0" d="M2023.23 819.58c4.21,-27.06 -18.54,-46.03 -29.83,-46.9 -40.16,0 -72.71,32.56 -72.71,72.72 0,40.15 32.55,72.71 72.71,72.71 40.16,0 72.71,-32.56 72.71,-72.71 0,-40.16 -32.55,-72.72 -72.71,-72.72m-960.48 4565.69l1792.57 0c114.24,0 207.7,-93.46 207.7,-207.7l0 -4267.3c0,-114.22 -93.46,-207.7 -207.7,-207.7l-525.46 0c-3.66,0 -6.81,1.52 -9.1,4.38l-7.55 9.46c-2.29,2.86 -5.44,4.38 -9.09,4.38l-553.05 0c-3.66,0 -6.81,-1.52 -9.1,-4.38l-7.55 -9.46c-2.28,-2.86 -5.43,-4.38 -9.09,-4.38l-534.19 0c-114.24,0 -207.7,93.46 -207.7,207.7l0 4267.3c0,114.24 93.46,207.7 207.7,207.7l49.08 0c69.4,0 113,9.44 133.71,17.3"/>
 </g>
</svg>
