<?xml version="1.0" encoding="UTF-8"?>
<!DOCTYPE svg PUBLIC "-//W3C//DTD SVG 1.1//EN" "http://www.w3.org/Graphics/SVG/1.1/DTD/svg11.dtd">
<!-- Creator: CorelDRAW -->
<svg xmlns="http://www.w3.org/2000/svg" xml:space="preserve" width="40mm" height="60mm" style="shape-rendering:geometricPrecision; text-rendering:geometricPrecision; image-rendering:optimizeQuality; fill-rule:evenodd; clip-rule:evenodd"
viewBox="0 0 40 60"
 xmlns:xlink="http://www.w3.org/1999/xlink">
 <defs>
  <style type="text/css">
   <![CDATA[
    .str0 {stroke:#1F1A17;stroke-width:0.2}
    .fil0 {fill:none}
   ]]>
  </style>
 </defs>
 <g id="图层_x0020_1">
  <metadata id="CorelCorpID_0Corel-Layer"/>
  <path class="fil0 str0" d="M11.2054 6.5l17.5892 0c1.0625,0 1.9319,0.8694 1.9319,1.9319l0 43.1362c0,1.0625 -0.8694,1.9319 -1.9319,1.9319l-17.5892 0c-1.0625,0 -1.9319,-0.8694 -1.9319,-1.9319l0 -43.1362c0,-1.0625 0.8694,-1.9319 1.9319,-1.9319z"/>
  <path class="fil0 str0" d="M12.4957 8.4386c0.3205,0 0.5805,-0.2599 0.5805,-0.5805 0,-0.3206 -0.26,-0.5805 -0.5805,-0.5805 -0.3206,0 -0.5805,0.2599 -0.5805,0.5805 0,0.3206 0.2599,0.5805 0.5805,0.5805z"/>
  <path class="fil0 str0" d="M17.3183 8.5502c0.3699,0 0.6698,-0.2999 0.6698,-0.6698 0,-0.3698 -0.2999,-0.6698 -0.6698,-0.6698 -0.3699,0 -0.6698,0.3 -0.6698,0.6698 0,0.3699 0.2999,0.6698 0.6698,0.6698z"/>
  <path class="fil0 str0" d="M23.6592 8.6172c0.3945,0 0.7145,-0.3199 0.7145,-0.7144 0,-0.3946 -0.32,-0.7145 -0.7145,-0.7145 -0.3945,0 -0.7145,0.3199 -0.7145,0.7145 0,0.3945 0.32,0.7144 0.7145,0.7144z"/>
  <path class="fil0 str0" d="M18.7919 7.5185l2.5676 0c0.2088,0 0.3796,0.1707 0.3796,0.3796l0 0c0,0.2087 -0.1708,0.3795 -0.3796,0.3795l-2.5676 0c-0.2088,0 -0.3796,-0.1708 -0.3796,-0.3795l0 0c0,-0.2089 0.1708,-0.3796 0.3796,-0.3796z"/>
 </g>
</svg>
