<?xml version="1.0" encoding="UTF-8"?>
<!DOCTYPE svg PUBLIC "-//W3C//DTD SVG 1.1//EN" "http://www.w3.org/Graphics/SVG/1.1/DTD/svg11.dtd">
<!-- Creator: CorelDRAW 2020 (64-Bit) -->
<svg xmlns="http://www.w3.org/2000/svg" xml:space="preserve" width="40mm" height="60mm" version="1.1" style="shape-rendering:geometricPrecision; text-rendering:geometricPrecision; image-rendering:optimizeQuality; fill-rule:evenodd; clip-rule:evenodd"
viewBox="0 0 4000 6000"
 xmlns:xlink="http://www.w3.org/1999/xlink"
 xmlns:xodm="http://www.corel.com/coreldraw/odm/2003">
 <defs>
  <style type="text/css">
   <![CDATA[
    .str0 {stroke:#222222;stroke-width:20;stroke-miterlimit:22.9256}
    .fil0 {fill:none}
   ]]>
  </style>
 </defs>
 <g id="图层_x0020_1">
  <metadata id="CorelCorpID_0Corel-Layer"/>
  <path class="fil0 str0" d="M-2394.95 6576.36l0 -5946.33c0,-661.32 -541.09,-1202.41 -1202.41,-1202.41l-13392.27 0c-661.33,0 -1202.41,541.08 -1202.41,1202.41l0 2167.39 3264.58 0c632.5,0 1150,517.5 1150,1150l0 3028.78 10180.1 0c661.33,0 1202.41,-541.08 1202.41,-1202.41 0,-661.33 157.81,-972.37 268.05,-1153.17"/>
  <path class="fil0 str0" d="M1006.18 5277.25l1739.64 0c193.48,0 351.78,-158.3 351.78,-351.78l0 -3918.02c0,-193.48 -158.3,-351.78 -351.78,-351.78l-634.08 0 0 955.08c0,185.05 -151.4,336.44 -336.45,336.44l-886.09 0 0 2978.28c0,193.48 158.3,351.78 351.78,351.78 193.47,0 284.47,46.17 337.36,78.42"/>
 </g>
</svg>
