<?xml version="1.0" encoding="UTF-8"?>
<!DOCTYPE svg PUBLIC "-//W3C//DTD SVG 1.1//EN" "http://www.w3.org/Graphics/SVG/1.1/DTD/svg11.dtd">
<!-- Creator: CorelDRAW X8 -->
<svg xmlns="http://www.w3.org/2000/svg" xml:space="preserve" width="40mm" height="60mm" version="1.1" style="shape-rendering:geometricPrecision; text-rendering:geometricPrecision; image-rendering:optimizeQuality; fill-rule:evenodd; clip-rule:evenodd"
viewBox="0 0 4000 6000"
 xmlns:xlink="http://www.w3.org/1999/xlink">
 <defs>
  <style type="text/css">
   <![CDATA[
    .fil0 {fill:#222222;fill-rule:nonzero}
   ]]>
  </style>
 </defs>
 <g id="图层_x0020_1">
  <metadata id="CorelCorpID_0Corel-Layer"/>
  <g>
   <path class="fil0" d="M1055 5360c-5,0 -10,-4 -10,-10 0,-6 5,-10 10,-10l0 20zm1816 0l-1816 0 0 -20 1816 0 0 0 0 20zm0 -20c5,0 10,4 10,10 0,6 -5,10 -10,10l0 -20zm215 -216l20 0 0 0 0 13 -1 12 -2 11 -2 12 -2 11 -3 12 -4 10 -4 11 -5 11 -5 10 -6 10 -6 9 -7 9 -7 9 -7 9 -8 8 -8 8 -8 7 -9 7 -10 7 -9 6 -10 6 -10 5 -11 4 -10 5 -11 3 -11 4 -12 2 -11 2 -12 2 -12 1 -12 0 0 -20 11 0 11 -1 11 -1 10 -2 11 -3 10 -3 10 -3 10 -4 9 -4 9 -5 10 -5 8 -6 9 -6 8 -6 8 -7 7 -7 7 -8 7 -7 6 -9 6 -8 6 -9 5 -9 5 -9 4 -10 4 -9 3 -10 3 -11 3 -10 2 -11 1 -10 1 -11 0 -12 0 0zm0 0c0,-5 5,-10 10,-10 6,0 10,5 10,10l-20 0zm20 -4249l0 4249 -20 0 0 -4249 0 0 20 0zm-20 0c0,-5 5,-10 10,-10 6,0 10,5 10,10l-20 0zm-215 -215l0 -20 0 0 12 0 12 1 12 2 11 2 12 2 11 4 11 3 10 5 11 4 10 5 10 6 9 6 10 7 9 7 8 7 8 8 8 8 7 9 7 9 7 9 6 9 6 10 5 10 5 11 4 10 4 11 3 12 2 11 2 12 2 11 1 12 0 12 -20 0 0 -11 -1 -11 -1 -10 -2 -11 -3 -10 -3 -11 -3 -10 -4 -9 -4 -10 -5 -9 -5 -9 -6 -9 -6 -8 -6 -9 -7 -7 -7 -8 -7 -7 -8 -7 -8 -6 -9 -6 -9 -6 -9 -5 -9 -5 -9 -4 -10 -4 -10 -3 -10 -3 -11 -3 -10 -2 -11 -1 -11 -1 -11 0 0 0zm0 0c-6,0 -10,-4 -10,-10 0,-6 4,-10 10,-10l0 20zm-269 -20l269 0 0 20 -269 0 0 0 0 -20zm0 20c-6,0 -10,-4 -10,-10 0,-6 4,-10 10,-10l0 20zm-17 10l-18 -10 0 0 1 -1 1 -1 0 -1 1 -1 1 -1 1 -1 1 -1 1 -1 1 -1 1 -1 1 -1 1 -1 1 0 1 -1 1 -1 1 -1 1 0 1 -1 1 0 2 -1 1 0 1 -1 1 0 1 -1 2 0 1 0 1 0 2 -1 1 0 1 0 2 0 1 0 0 20 -1 0 0 0 -1 0 -1 0 0 0 -1 0 -1 1 0 0 -1 0 0 0 -1 0 -1 1 0 0 -1 0 0 0 -1 1 -1 0 0 0 -1 1 0 0 -1 1 0 0 -1 0 0 1 -1 0 0 1 0 0 -1 1 0 0 -1 1 0 0 0 1 0 0zm0 0c-3,5 -9,7 -14,4 -5,-3 -6,-9 -4,-14l18 10zm-19 11l0 -20 0 0 0 0 0 0 0 0 0 0 0 0 0 0 0 0 0 0 0 0 0 0 0 0 0 0 0 0 1 0 0 0 0 0 0 0 0 0 0 0 0 0 0 0 0 0 0 0 0 0 0 0 0 -1 0 1 0 -1 0 0 0 0 0 0 0 0 18 10 -1 1 0 0 0 1 -1 0 0 1 -1 1 0 0 -1 1 0 0 -1 1 0 0 -1 1 0 0 -1 0 -1 1 0 0 -1 1 0 0 -1 0 -1 1 0 0 -1 0 -1 0 0 0 -1 1 -1 0 -1 0 0 0 -1 0 -1 0 0 0 -1 0 0 0zm0 0c-6,0 -10,-4 -10,-10 0,-5 4,-10 10,-10l0 20zm-220 -20l220 0 0 20 -220 0 0 0 0 -20zm0 20c-6,0 -10,-4 -10,-10 0,-5 4,-10 10,-10l0 20zm-18 -11l17 -10 0 1 0 0 0 0 0 0 0 0 0 0 0 0 0 0 0 0 0 0 0 0 0 0 0 0 0 0 0 0 0 0 0 0 0 0 0 0 0 0 0 0 0 0 1 0 -1 0 1 0 0 0 0 0 0 0 0 0 0 0 0 0 0 0 0 0 0 20 -1 0 0 0 -1 0 -1 0 -1 0 0 0 -1 0 -1 -1 0 0 -1 0 -1 0 -1 -1 0 0 -1 0 0 -1 -1 0 -1 0 0 -1 -1 0 -1 -1 0 0 -1 -1 0 0 -1 -1 0 0 -1 -1 0 0 -1 -1 0 -1 0 0 -1 -1 0 -1 1 1zm-1 -1c-2,-5 0,-11 5,-13 5,-2 11,0 13,5l-18 8zm-17 -9l0 -20 0 0 1 0 1 0 2 0 1 0 1 1 2 0 1 0 1 0 2 1 1 0 1 1 1 0 1 1 2 0 1 1 1 0 1 1 1 1 1 1 1 0 1 1 1 1 1 1 1 1 1 1 1 1 1 1 1 1 0 1 1 1 1 1 1 1 -17 10 -1 0 0 -1 -1 0 0 -1 -1 -1 0 0 0 -1 -1 0 0 -1 -1 0 0 0 -1 -1 0 0 -1 -1 -1 0 0 0 -1 -1 0 0 -1 0 0 0 -1 -1 -1 0 0 0 -1 0 -1 0 0 -1 -1 0 -1 0 0 0 -1 0 -1 0 0 0 0 0zm0 0c-6,0 -10,-4 -10,-10 0,-6 4,-10 10,-10l0 20zm-1181 -20l1181 0 0 20 -1181 0 0 0 0 -20zm0 20c-5,0 -10,-4 -10,-10 0,-6 5,-10 10,-10l0 20zm-215 215l-20 0 0 0 0 -12 1 -12 2 -11 2 -12 2 -11 3 -12 4 -11 4 -10 5 -11 5 -10 6 -10 6 -9 7 -9 7 -9 7 -9 8 -8 8 -8 8 -7 9 -7 10 -7 9 -6 10 -6 10 -5 11 -4 10 -5 11 -3 11 -4 12 -2 11 -2 12 -2 12 -1 12 0 0 20 -11 0 -11 1 -11 1 -10 2 -11 3 -10 3 -10 3 -10 4 -9 4 -9 5 -9 5 -9 6 -9 6 -8 6 -8 7 -7 7 -7 8 -7 7 -6 9 -6 8 -6 9 -5 9 -5 9 -4 10 -4 9 -3 10 -3 11 -3 10 -2 11 -1 10 -1 11 0 11 0 0zm0 0c0,6 -5,10 -10,10 -6,0 -10,-4 -10,-10l20 0zm-20 4250l0 -4250 20 0 0 4250 0 0 -20 0zm20 0c0,5 -5,10 -10,10 -6,0 -10,-5 -10,-10l20 0zm215 215l0 20 0 0 -12 0 -12 -1 -12 -2 -11 -2 -12 -2 -11 -4 -11 -3 -10 -5 -11 -4 -10 -5 -10 -6 -9 -6 -10 -7 -9 -7 -8 -7 -8 -8 -8 -8 -7 -9 -7 -9 -7 -9 -6 -9 -6 -10 -5 -10 -5 -11 -4 -10 -4 -11 -3 -12 -2 -11 -2 -12 -2 -11 -1 -12 0 -12 20 0 0 11 1 11 1 10 2 11 3 10 3 11 3 10 4 9 4 10 5 9 5 9 6 9 6 8 6 9 7 7 7 8 7 7 8 7 8 6 9 6 9 6 9 5 9 5 9 4 10 4 10 3 10 3 11 3 10 2 11 1 11 1 11 0 0 0zm0 0c6,0 10,4 10,10 0,6 -4,10 -10,10l0 -20zm38 20l-38 0 0 -20 38 0 0 20zm0 -20c6,0 10,4 10,10 0,6 -4,10 -10,10l0 -20z"/>
  </g>
 </g>
</svg>
