<?xml version="1.0" encoding="UTF-8"?>
<!DOCTYPE svg PUBLIC "-//W3C//DTD SVG 1.1//EN" "http://www.w3.org/Graphics/SVG/1.1/DTD/svg11.dtd">
<!-- Creator: CorelDRAW X8 -->
<svg xmlns="http://www.w3.org/2000/svg" xml:space="preserve" width="40mm" height="60mm" version="1.1" style="shape-rendering:geometricPrecision; text-rendering:geometricPrecision; image-rendering:optimizeQuality; fill-rule:evenodd; clip-rule:evenodd"
viewBox="0 0 4000 6000"
 xmlns:xlink="http://www.w3.org/1999/xlink">
 <defs>
  <style type="text/css">
   <![CDATA[
    .str0 {stroke:#332C2B;stroke-width:17.64}
    .fil0 {fill:none}
   ]]>
  </style>
 </defs>
 <g id="图层_x0020_1">
  <metadata id="CorelCorpID_0Corel-Layer"/>
  <path class="fil0 str0" d="M934 5238l1912 0c121,0 220,-99 220,-220l0 -4148c0,-121 -99,-220 -220,-220l-735 0c-24,0 -29,12 -29,31l0 19c0,32 -25,58 -57,58l0 0c-32,0 -58,-26 -58,-58l0 -19c0,-16 -1,-31 -26,-31l-733 0c-121,0 -220,99 -220,220l0 4148c0,121 99,220 220,220 121,0 203,69 203,112"/>
 </g>
</svg>
