<?xml version="1.0" encoding="UTF-8"?>
<!DOCTYPE svg PUBLIC "-//W3C//DTD SVG 1.1//EN" "http://www.w3.org/Graphics/SVG/1.1/DTD/svg11.dtd">
<!-- Creator: CorelDRAW 2020 (64-Bit) -->
<svg xmlns="http://www.w3.org/2000/svg" xml:space="preserve" width="40mm" height="60mm" version="1.1" style="shape-rendering:geometricPrecision; text-rendering:geometricPrecision; image-rendering:optimizeQuality; fill-rule:evenodd; clip-rule:evenodd"
viewBox="0 0 4000 6000"
 xmlns:xlink="http://www.w3.org/1999/xlink"
 xmlns:xodm="http://www.corel.com/coreldraw/odm/2003">
 <defs>
  <style type="text/css">
   <![CDATA[
    .str0 {stroke:#222222;stroke-width:7.62;stroke-miterlimit:22.9256}
    .fil0 {fill:none}
   ]]>
  </style>
 </defs>
 <g id="图层_x0020_1">
  <metadata id="CorelCorpID_0Corel-Layer"/>
  <path class="fil0 str0" d="M-19599.73 7628.98l0 -50.46c-264.41,-83.61 -464.84,-314.74 -503.57,-595.66l-462.06 0 0 -5600 455.21 0 15669.57 0 575.22 0 0 5600 -582.07 0c-43.63,316.47 -292.47,569.75 -606.8,620.12l0 26 965.45 0c21.93,0 39.99,18.06 39.99,39.99l0 400.02c0,21.93 -18.04,38.48 -39.99,39.99l-1011.75 70 -6888.32 0 0 -249.15c0,-133.81 -109.47,-243.28 -243.28,-243.28l-1272.85 0c-133.81,0 -243.28,109.47 -243.28,243.28l0 249.15 -219.09 0 0 -177.3c0,-66 -54,-120 -120,-120l-1799.87 0c-66,0 -120,54 -120,120l0 177.3 -3413.9 0 -1111.92 -70c-21.96,-1.38 -39.99,-17.99 -39.99,-39.99l0 -400.02c0,-22 18.06,-39.99 39.99,-39.99l933.31 0zm15356.76 -2903.76c-55.5,14.87 -96.25,35.09 -96.25,130.36l0 78.97c0,110 89.99,199.99 199.97,199.99l0.06 0c109.96,0 199.97,-89.99 199.97,-199.99l0 -620.02c0,-110 -89.99,-199.99 -199.97,-199.99l-0.06 0c-109.98,0 -199.97,90.01 -199.97,199.99l0 541.05m-4958.59 -4679.03c13.47,0 26.31,-5.34 35.85,-14.88 9.5,-9.49 14.84,-22.34 14.79,-35.77l0 -486.77c0,-13.42 -5.34,-26.32 -14.83,-35.81 -9.54,-9.49 -22.34,-14.84 -35.81,-14.84l-5478.2 0c-13.47,0 -26.36,5.35 -35.86,14.88 -9.49,9.5 -14.83,22.35 -14.83,35.77l0 486.77c0.04,13.43 5.38,26.32 14.88,35.81 9.53,9.5 22.34,14.84 35.81,14.84l5478.2 0zm5599.36 833.06l0 -487.13c0,-13.42 -5.34,-26.31 -14.88,-35.81 -9.49,-9.49 -22.34,-14.83 -35.76,-14.83l-17085.29 0c-13.42,0 -26.32,5.39 -35.81,14.88 -9.49,9.49 -14.84,22.34 -14.84,35.76l0 487.13c0,13.47 5.35,26.36 14.89,35.86 9.49,9.49 22.34,14.83 35.76,14.79l17085.29 0c13.42,0 26.31,-5.34 35.81,-14.84 9.49,-9.53 14.83,-22.34 14.83,-35.81zm-5396.73 -1437.51c-13.47,0 -26.32,5.34 -35.86,14.88 -9.49,9.5 -14.83,22.34 -14.79,35.77l0 503.15c0,13.43 5.34,26.32 14.84,35.81 9.54,9.5 22.34,14.84 35.81,14.84l5346.09 0c13.42,0 26.31,-5.34 35.81,-14.88 9.49,-9.49 14.83,-22.34 14.83,-35.77l0 -503.15c0,-13.43 -5.34,-26.32 -14.88,-35.81 -9.49,-9.54 -22.34,-14.84 -35.76,-14.84l-5346.09 0zm1171.9 180.95c-41.95,0 -80.72,22.39 -101.69,58.69 -20.98,36.34 -20.98,81.07 0,117.41 20.97,36.34 59.74,58.72 101.69,58.72l1768.31 0c41.95,0 80.71,-22.38 101.69,-58.72 20.97,-36.34 20.97,-81.07 0,-117.41 -20.98,-36.3 -59.74,-58.69 -101.69,-58.69l-1768.31 0zm2701.76 147.79c0,-47.55 -38.55,-86.1 -86.1,-86.1 -47.56,0 -86.11,38.55 -86.11,86.1 0,47.56 38.55,86.11 86.11,86.11 47.55,0 86.1,-38.55 86.1,-86.11zm-11261.52 695.43l-1223.2 0c-53.87,0 -103.64,28.74 -130.62,75.37 -26.89,46.68 -26.89,104.12 0,150.8 26.98,46.62 76.75,75.37 130.62,75.37l1223.2 0c53.87,0 103.64,-28.75 130.57,-75.37 26.94,-46.68 26.94,-104.12 0,-150.8 -26.93,-46.63 -76.7,-75.37 -130.57,-75.37zm2988.47 -648.89l1769.11 0c41.86,0 80.54,-22.34 101.47,-58.59 20.93,-36.25 20.93,-80.94 0,-117.19 -20.93,-36.3 -59.61,-58.6 -101.47,-58.6l-1769.11 0c-41.85,0 -80.54,22.3 -101.47,58.6 -20.97,36.25 -20.97,80.94 0,117.19 20.93,36.25 59.62,58.59 101.47,58.59zm-7349.57 -267.49l5870.4 0c13.42,0 26.31,5.34 35.81,14.83 9.49,9.45 14.83,22.39 14.83,35.86l0 303.92c0,13.43 -5.3,26.27 -14.79,35.77 -9.49,9.54 -22.43,14.88 -35.85,14.88l-5870.4 0c-13.42,0 -26.31,-5.34 -35.81,-14.84 -9.49,-9.45 -14.83,-22.38 -14.83,-35.81l0 -303.92c0,-13.47 5.29,-26.32 14.79,-35.81 9.49,-9.5 22.43,-14.88 35.85,-14.88zm16706.34 3679.72c-8.06,0.6 -15.61,7.7 -16.75,22.46 0,52.47 42.53,95 95,95 52.47,0 95,-42.53 95,-95 0,-52.47 -42.53,-95 -95,-95 -52.47,0 -95,42.53 -95,95m-15212.12 2811.37l0 -74.25c0,-425.28 347.94,-773.22 773.22,-773.22l3457.52 0c425.28,0 773.22,347.94 773.22,773.22l0 74.25c0,425.28 -347.94,773.22 -773.22,773.22l-3457.52 0c-425.28,0 -773.22,-347.94 -773.22,-773.22zm-1091.75 -3321.87c-7.68,0.57 -14.87,7.34 -15.96,21.4 0,49.99 40.51,90.5 90.5,90.5 49.99,0 90.5,-40.51 90.5,-90.5 0,-49.99 -40.51,-90.5 -90.5,-90.5 -49.99,0 -90.5,40.51 -90.5,90.5m-0.38 2151.97c0,-50.19 40.69,-90.88 90.88,-90.88 50.19,0 90.88,40.69 90.88,90.88 0,50.19 -40.69,90.88 -90.88,90.88 -50.19,0 -90.88,-40.69 -90.88,-90.88z"/>
  <path class="fil0 str0" d="M967.53 1009.63l13.79 0c22.86,-72.27 86.03,-127.05 162.81,-137.64l0 -126.28 1530.55 0 0 124.41 0 4282.72 0 157.21 -1530.55 0 0 -159.09c-86.5,-11.92 -155.72,-79.93 -169.49,-165.84l-7.11 0 0 263.87c0,5.99 -4.93,10.93 -10.93,10.93l-109.33 0c-5.99,0 -10.52,-4.93 -10.93,-10.93l-19.13 -276.53 0 -1882.67 68.1 0c36.57,0 66.49,-29.92 66.49,-66.49l0 -347.89c0,-36.57 -29.92,-66.49 -66.49,-66.49l-68.1 0 0 -59.88 48.46 0c18.04,0 32.8,-14.76 32.8,-32.8l0 -491.93c0,-18.04 -14.76,-32.8 -32.8,-32.8l-48.46 0 0 -933.07 19.13 -303.9c0.38,-6 4.92,-10.93 10.93,-10.93l109.33 0c6.02,0 10.93,4.94 10.93,10.93l0 255.09zm793.64 4197.22c-4.06,-15.17 -9.59,-26.31 -35.63,-26.31l-21.58 0c-30.07,0 -54.66,24.6 -54.66,54.65l0 0.02c0,30.05 24.59,54.66 54.66,54.66l169.46 0c30.06,0 54.66,-24.6 54.66,-54.66l0 -0.02c0,-30.05 -24.6,-54.65 -54.66,-54.65l-147.88 0m1278.85 -1355.25c0,3.68 1.45,7.19 4.06,9.8 2.6,2.59 6.11,4.05 9.78,4.04l133.04 0c3.67,0 7.19,-1.46 9.79,-4.06 2.59,-2.6 4.05,-6.1 4.05,-9.78l0 -1497.27c0,-3.68 -1.46,-7.21 -4.06,-9.8 -2.6,-2.6 -6.11,-4.06 -9.78,-4.06l-133.04 0c-3.67,0.01 -7.19,1.47 -9.79,4.07 -2.6,2.61 -4.05,6.11 -4.05,9.79l0 1497.27zm-227.69 1530.38l133.14 0c3.67,0 7.19,-1.46 9.79,-4.07 2.59,-2.59 4.05,-6.1 4.05,-9.77l0 -4669.65c0,-3.67 -1.47,-7.19 -4.07,-9.79 -2.59,-2.59 -6.1,-4.05 -9.77,-4.05l-133.14 0c-3.68,0 -7.21,1.46 -9.8,4.07 -2.6,2.59 -4.06,6.1 -4.04,9.77l0 4669.65c0,3.67 1.45,7.19 4.05,9.79 2.61,2.59 6.11,4.05 9.79,4.05zm392.89 -1475c0,-3.68 -1.46,-7.19 -4.07,-9.8 -2.59,-2.6 -6.1,-4.06 -9.77,-4.04l-137.52 0c-3.67,0 -7.19,1.45 -9.79,4.05 -2.6,2.61 -4.05,6.11 -4.05,9.79l0 1461.16c0,3.67 1.45,7.19 4.06,9.79 2.6,2.59 6.11,4.05 9.78,4.05l137.52 0c3.67,0 7.19,-1.46 9.78,-4.07 2.61,-2.59 4.06,-6.1 4.06,-9.77l0 -1461.16zm-49.46 320.3c0,-11.47 -6.12,-22.07 -16.04,-27.8 -9.93,-5.73 -22.15,-5.73 -32.09,0 -9.93,5.73 -16.05,16.33 -16.05,27.8l0 483.3c0,11.47 6.12,22.06 16.05,27.79 9.94,5.73 22.16,5.73 32.09,0 9.92,-5.73 16.04,-16.32 16.04,-27.79l0 -483.3zm-40.39 738.42c13,0 23.53,-10.53 23.53,-23.53 0,-13 -10.53,-23.53 -23.53,-23.53 -13,0 -23.53,10.53 -23.53,23.53 0,13 10.53,23.53 23.53,23.53zm-190.07 -3077.93l0 -334.32c0,-14.72 -7.85,-28.32 -20.6,-35.7 -12.76,-7.35 -28.46,-7.35 -41.22,0 -12.74,7.38 -20.59,20.98 -20.59,35.7l0 334.32c0,14.73 7.85,28.33 20.59,35.69 12.76,7.36 28.46,7.36 41.22,0 12.75,-7.36 20.6,-20.96 20.6,-35.69zm177.35 816.79l0 483.53c0,11.44 6.11,22.01 16.01,27.73 9.91,5.72 22.13,5.72 32.03,0 9.93,-5.72 16.02,-16.29 16.02,-27.73l0 -483.53c0,-11.43 -6.09,-22.01 -16.02,-27.73 -9.9,-5.73 -22.12,-5.73 -32.03,0 -9.9,5.72 -16.01,16.3 -16.01,27.73zm73.11 -2008.74l0 1604.47c0,3.66 -1.46,7.19 -4.05,9.78 -2.59,2.6 -6.12,4.06 -9.8,4.06l-83.07 0c-3.67,0 -7.18,-1.45 -9.78,-4.05 -2.6,-2.59 -4.06,-6.13 -4.06,-9.79l0 -1604.47c0,-3.67 1.46,-7.19 4.05,-9.79 2.59,-2.59 6.12,-4.05 9.79,-4.05l83.07 0c3.68,0 7.19,1.45 9.78,4.04 2.6,2.6 4.07,6.13 4.07,9.8zm-1005.72 4566.08c-0.16,-2.2 -2.1,-4.27 -6.14,-4.58 -14.34,0 -25.96,11.63 -25.96,25.97 0,14.34 11.62,25.96 25.96,25.96 14.34,0 25.97,-11.62 25.97,-25.96 0,-14.34 -11.63,-25.97 -25.97,-25.97m-768.38 -4157.68l20.29 0c116.23,0 211.33,95.09 211.33,211.33l0 944.99c0,116.23 -95.1,211.33 -211.33,211.33l-20.29 0c-116.24,0 -211.34,-95.1 -211.34,-211.33l0 -944.99c0,-116.24 95.1,-211.33 211.34,-211.33zm907.91 -298.4c-0.16,-2.09 -2.01,-4.06 -5.85,-4.36 -13.66,0 -24.73,11.07 -24.73,24.74 0,13.66 11.07,24.73 24.73,24.73 13.66,0 24.73,-11.07 24.73,-24.73 0,-13.67 -11.07,-24.74 -24.73,-24.74m-588.16 -0.1c13.71,0 24.84,11.12 24.84,24.84 0,13.72 -11.13,24.84 -24.84,24.84 -13.72,0 -24.84,-11.12 -24.84,-24.84 0,-13.72 11.12,-24.84 24.84,-24.84z"/>
 </g>
</svg>
