<?xml version="1.0" encoding="UTF-8"?>
<!DOCTYPE svg PUBLIC "-//W3C//DTD SVG 1.1//EN" "http://www.w3.org/Graphics/SVG/1.1/DTD/svg11.dtd">
<!-- Creator: CorelDRAW 2020 (64-Bit) -->
<svg xmlns="http://www.w3.org/2000/svg" xml:space="preserve" width="40mm" height="60mm" version="1.1" style="shape-rendering:geometricPrecision; text-rendering:geometricPrecision; image-rendering:optimizeQuality; fill-rule:evenodd; clip-rule:evenodd"
viewBox="0 0 4000 6000"
 xmlns:xlink="http://www.w3.org/1999/xlink"
 xmlns:xodm="http://www.corel.com/coreldraw/odm/2003">
 <defs>
  <style type="text/css">
   <![CDATA[
    .str0 {stroke:black;stroke-width:7.62;stroke-miterlimit:22.9256}
    .fil0 {fill:none}
   ]]>
  </style>
 </defs>
 <g id="图层_x0020_1">
  <metadata id="CorelCorpID_0Corel-Layer"/>
  <path class="fil0 str0" d="M2019.85 785.32c3.73,-23.99 -16.44,-40.81 -26.45,-41.58 -35.61,0 -64.47,28.86 -64.47,64.46 0,35.61 28.86,64.48 64.47,64.48 35.61,0 64.47,-28.87 64.47,-64.48 0,-35.6 -28.86,-64.46 -64.47,-64.46m-941.94 4582.31l1743.14 0c114.83,0 208.8,-94.35 208.8,-209.64l0 -4251.1c0,-115.29 -93.95,-209.64 -208.8,-209.64 -534.95,0 -1067.45,0 -1602.4,0 -114.85,0 -208.8,94.33 -208.8,209.64l0 4251.1c0,115.31 93.96,209.64 208.8,209.64l18.46 0c63.34,0 102.29,8.05 119.88,29.62"/>
 </g>
</svg>
