<?xml version="1.0" encoding="UTF-8"?>
<!DOCTYPE svg PUBLIC "-//W3C//DTD SVG 1.1//EN" "http://www.w3.org/Graphics/SVG/1.1/DTD/svg11.dtd">
<!-- Creator: CorelDRAW 2021 (64-Bit) -->
<svg xmlns="http://www.w3.org/2000/svg" xml:space="preserve" width="40mm" height="60mm" version="1.1" style="shape-rendering:geometricPrecision; text-rendering:geometricPrecision; image-rendering:optimizeQuality; fill-rule:evenodd; clip-rule:evenodd"
viewBox="0 0 4000 6000"
 xmlns:xlink="http://www.w3.org/1999/xlink"
 xmlns:xodm="http://www.corel.com/coreldraw/odm/2003">
 <defs>
  <style type="text/css">
   <![CDATA[
    .str0 {stroke:#373435;stroke-width:35.56;stroke-miterlimit:22.9256}
    .str1 {stroke:black;stroke-width:20;stroke-linecap:round;stroke-linejoin:round;stroke-miterlimit:22.9256}
    .fil0 {fill:none}
   ]]>
  </style>
 </defs>
 <g id="图层_x0020_1">
  <metadata id="CorelCorpID_0Corel-Layer"/>
  <g id="_1917142380176">
   <path class="fil0 str0" d="M2927.99 4788.8l0 -1789.66 0 -89.76 -64.19 0c-15.02,-4.01 -19.6,-7.11 -22.72,-22.73l0 -566.96c2.98,-14.94 7.78,-19.74 22.72,-22.73l64.19 0 0 -245.98 -42.6 0c-20.8,-2.97 -24.7,-8.02 -28.41,-28.41l0 -374.94c3.19,-21.28 7.42,-24.59 28.41,-28.41l42.6 0 0 -295.98 -113.05 0.57c-49.4,-120.96 -96.75,-155.42 -231.78,-164.18l0 -153.96 -1268.57 0.57 -0.57 154.52c-137.23,7.04 -182.62,39.81 -231.22,163.05l-112.48 0 1.7 1053.26 71.02 0c32.77,3.45 46,19.57 47.72,52.26l0 324.39c-5.9,34.38 -12.62,48.75 -47.72,52.26l-71.02 0 -2.27 193.16 0 1688.39 113.05 0c49.81,120.24 95.97,157.03 231.79,164.18l0 153.96 34.08 0 0 -82.38c4.01,-15.01 7.11,-19.6 22.73,-22.72l239.17 0c15.62,3.12 18.72,7.71 22.72,22.72l0 82.38 195.43 0 0 -77.26c3.39,-27.14 17.3,-43.69 45.45,-45.45l136.34 0c27.51,1.72 43.73,17.94 45.45,45.45l0 76.69 108.51 0 0 -71.58c4.76,-22.88 10.76,-30.03 34.08,-34.09l34.09 0c23.32,4.06 29.32,11.21 34.08,34.09l0 71.58 114.76 0 0 -80.67c3.48,-38.25 24.01,-59.14 62.49,-62.49 39.21,3.56 57.33,24.64 62.49,62.49l0 80.67 76.7 0 0.57 -154.52c136.47,-12.25 186.06,-34.53 231.21,-163.05l202.11 0"/>
   <path class="fil0 str0" d="M1684.99 1336.31l-306.78 0c-55.04,5.16 -85.72,35.78 -90.89,90.89l0 674.91c5.14,54.8 36.09,85.75 90.89,90.89l306.78 0c55.34,-5.19 85.72,-35.73 90.9,-90.89l0 -674.91c-5.2,-55.47 -35.31,-85.68 -90.9,-90.89z"/>
   <path class="fil0 str0" d="M1697.49 1311.31l-329.5 0c-63.65,7.07 -95.19,38.64 -102.26,102.26l0 695.92c7.05,63.45 38.81,95.21 102.26,102.26l329.5 0c61.87,-6.87 97,-39.13 102.26,-102.26l0 -695.92c-5.28,-63.32 -40.21,-95.37 -102.26,-102.26z"/>
   <path class="fil0 str1" d="M1432.18 1366.42c65.89,0 119.31,53.41 119.31,119.3 0,65.88 -53.42,119.3 -119.31,119.3 -65.88,0 -119.3,-53.42 -119.3,-119.3 0,-65.89 53.42,-119.3 119.3,-119.3z"/>
   <path class="fil0 str1" d="M1429.91 1657.28c65.89,0 119.3,53.42 119.3,119.3 0,65.89 -53.41,119.31 -119.3,119.31 -65.89,0 -119.3,-53.42 -119.3,-119.31 0,-65.88 53.41,-119.3 119.3,-119.3z"/>
   <path class="fil0 str1" d="M1427.64 1989.62c40.79,0 73.85,33.07 73.85,73.85 0,40.79 -33.06,73.86 -73.85,73.86 -40.79,0 -73.85,-33.07 -73.85,-73.86 0,-40.78 33.06,-73.85 73.85,-73.85z"/>
   <path class="fil0 str1" d="M1597.79 2029.39l66.46 0c18.44,0 33.52,15.08 33.52,33.52l0 0c0,18.43 -15.08,33.51 -33.52,33.51l-66.46 0c-18.44,0 -33.52,-15.08 -33.52,-33.51l0 0c0,-18.44 15.08,-33.52 33.52,-33.52z"/>
  </g>
  <path class="fil0 str0" d="M-5342.95 -1294.84l-7875.66 0 -395 0 0 282.5c-17.62,66.08 -31.27,86.25 -100,100l-2495 0c-65.72,-13.14 -86.86,-34.28 -100,-100l0 -282.5 -1082.5 0 0 187.5c-13.07,91.52 -35.26,108.68 -125,125l-1650 0c-93.62,-14.04 -108.21,-32.66 -125,-125l0 -187.5 -1302.5 0 2.5 497.5c-532.28,217.41 -683.95,425.78 -722.5,1020l-677.51 0 2.51 5582.5 680 2.5c30.97,603.89 175.18,803.63 717.5,1017.5l0 495 4635 -7.5 0 -312.5c15.18,-144.24 86.15,-202.43 230,-210l1427.5 0c151.29,25.93 214.55,55.51 230,210l0 312.5 850 10 7430 0 0 -497.5c529.1,-219.2 691.04,-422.3 722.5,-1020l677.5 0 0 -150 -362.5 0c-66.08,-17.62 -86.25,-31.27 -100,-100l0 -1052.5c13.75,-68.73 33.92,-82.38 100,-100l362.5 0 0 -860 -340 0c-119.43,-14.93 -192.26,-76.12 -200,-200l0 -600c7.57,-121.04 78.96,-192.43 200,-200l337.5 0 0 -477.5 -315 0c-100.69,-20.98 -132.15,-47.38 -150,-150l0 -150c17.85,-102.62 49.31,-129.02 150,-150l315 0 0 -505 -355 0c-168.32,-15.3 -260.27,-105.65 -275,-275 15.68,-172.53 108.43,-252.29 275,-275l355 0 0 -337.5 -680 -2.5c-53.9,-600.58 -151.92,-818.78 -717.5,-1017.5l0 -889.4"/>
  <path class="fil0 str0" d="M-20536.11 4175.16l0 1350c22.71,242.23 157.49,377.26 400,400l2970 0c241.16,-22.61 377.39,-158.84 400,-400l0 -1350c-22.83,-243.54 -157.26,-377.24 -400,-400l-2970 0c-244.09,22.88 -377.07,155.38 -400,400z"/>
  <path class="fil0 str0" d="M-20646.12 4120.16l0 1450c31.12,280.08 170.05,418.89 450.01,450l3062.5 0c279.22,-31.02 418.98,-170.78 450,-450l0 -1450c-30.25,-272.28 -172.18,-426.85 -450,-450l-3062.5 0c-278.62,23.22 -419.67,176.91 -450.01,450z"/>
  <path class="fil0 str1" d="M-20403.61 5287.66c0,-289.95 235.05,-525 525,-525 289.95,0 525,235.05 525,525 0,289.95 -235.05,525 -525,525 -289.95,0 -525,-235.05 -525,-525z"/>
  <path class="fil0 str1" d="M-19123.61 5297.66c0,-289.95 235.05,-525 525,-525 289.95,0 525,235.05 525,525 0,289.95 -235.05,525 -525,525 -289.95,0 -525,-235.05 -525,-525z"/>
  <path class="fil0 str1" d="M-17661.11 5307.66c0,-179.49 145.51,-325 325,-325 179.49,0 325,145.51 325,325 0,179.49 -145.51,325 -325,325 -179.49,0 -325,-145.51 -325,-325z"/>
  <path class="fil0 str1" d="M-17486.11 4558.91l0 -292.5c0,-81.13 66.37,-147.5 147.5,-147.5l0 0c81.13,0 147.5,66.37 147.5,147.5l0 292.5c0,81.13 -66.37,147.5 -147.5,147.5l0 0c-81.13,0 -147.5,-66.37 -147.5,-147.5z"/>
 </g>
</svg>
