<?xml version="1.0" encoding="UTF-8"?>
<!DOCTYPE svg PUBLIC "-//W3C//DTD SVG 1.1//EN" "http://www.w3.org/Graphics/SVG/1.1/DTD/svg11.dtd">
<!-- Creator: CorelDRAW 2021 (64-Bit) -->
<svg xmlns="http://www.w3.org/2000/svg" xml:space="preserve" width="40mm" height="60mm" version="1.1" style="shape-rendering:geometricPrecision; text-rendering:geometricPrecision; image-rendering:optimizeQuality; fill-rule:evenodd; clip-rule:evenodd"
viewBox="0 0 4000 6000"
 xmlns:xlink="http://www.w3.org/1999/xlink"
 xmlns:xodm="http://www.corel.com/coreldraw/odm/2003">
 <defs>
  <style type="text/css">
   <![CDATA[
    .str1 {stroke:black;stroke-width:20;stroke-linecap:round;stroke-linejoin:round;stroke-miterlimit:22.9256}
    .str0 {stroke:red;stroke-width:20;stroke-linecap:round;stroke-linejoin:round;stroke-miterlimit:22.9256}
    .fil0 {fill:none}
   ]]>
  </style>
   <clipPath id="id0">
    <rect x="-42473.44" y="-6683.84" width="13003.43" height="17047.01"/>
   </clipPath>
 </defs>
 <g id="图层_x0020_1">
  <metadata id="CorelCorpID_0Corel-Layer"/>
  <g style="clip-path:url(#id0)">
   <image x="-42473.44" y="-6683.84" width="13003.43" height="17047.01" xlink:href="Z40-11i（背膜）_Images\Z40-11i（背膜）_ImgID1.png"/>
  </g>
  <rect class="fil0 str0" x="-42091.14" y="-6387.48" width="7660" height="16500"/>
  <rect class="fil0 str0" x="-41851.89" y="-6290.25" width="7181.5" height="16228.19" rx="700" ry="737.44"/>
  <rect class="fil0 str1" x="-41615.26" y="-5710.17" width="2162.42" height="3631.23" rx="500" ry="500"/>
  <circle class="fil0 str1" cx="-38247.48" cy="-2819.82" r="621.17"/>
  <path class="fil0 str1" d="M-3940.56 6440.8l0 -6289.96c0,-384.99 -315.02,-700 -700,-700l-14828.2 0c-384.99,0 -699.99,315 -699.99,700l0 5781.5c0,385 315,700 699.99,700l14828.2 0c384.99,0 700,-315 700,-700 0,-385 26.73,-826.8 208.64,-1010.9"/>
  <path class="fil0 str1" d="M-19588.67 5895.71c0,275 225,500 500,500l2631.23 0c275,0 500,-225 500,-500l0 -1162.42c0,-275 -225,-500 -500,-500l-2631.23 0c-275,0 -500,225 -500,500l0 1162.42c0,0 21.33,-712.27 364.75,-872.31"/>
  <path class="fil0 str1" d="M-17319.5 3027.93c0,343.06 278.11,621.17 621.17,621.17 343.06,0 621.17,-278.11 621.17,-621.17 0,-343.06 -278.11,-621.17 -621.17,-621.17 -343.06,0 -621.17,278.11 -621.17,621.17 0,343.06 462.41,531.03 553.92,529.12"/>
  <g id="_2949163001568">
   <path class="fil0 str1" d="M1021.42 5296.01l1798.57 0c110.09,0 200.16,-90.08 200.16,-200.16l0 -4240.02c0,-110.09 -90.07,-200.16 -200.16,-200.16l-1653.18 0c-110.09,0 -200.16,90.07 -200.16,200.16l0 4240.02c0,110.08 90.07,200.16 200.16,200.16 110.09,0 236.42,7.64 289.06,59.66"/>
   <path class="fil0 str1" d="M1177.28 821.54c-78.63,0 -142.97,64.34 -142.97,142.97l0 752.38c0,78.64 64.34,142.97 142.97,142.97l332.39 0c78.63,0 142.97,-64.33 142.97,-142.97l0 -752.38c0,-78.63 -64.34,-142.97 -142.97,-142.97l-332.39 0c0,0 203.67,6.1 249.44,104.3"/>
   <path class="fil0 str1" d="M1997.31 1470.39c-98.1,0 -177.62,79.53 -177.62,177.62 0,98.1 79.52,177.62 177.62,177.62 98.09,0 177.62,-79.52 177.62,-177.62 0,-98.09 -79.53,-177.62 -177.62,-177.62 -98.1,0 -151.85,132.23 -151.3,158.39"/>
  </g>
 </g>
</svg>
