<?xml version="1.0" encoding="UTF-8"?>
<!DOCTYPE svg PUBLIC "-//W3C//DTD SVG 1.1//EN" "http://www.w3.org/Graphics/SVG/1.1/DTD/svg11.dtd">
<!-- Creator: CorelDRAW 2020 (64-Bit) -->
<svg xmlns="http://www.w3.org/2000/svg" xml:space="preserve" width="40mm" height="60mm" version="1.1" style="shape-rendering:geometricPrecision; text-rendering:geometricPrecision; image-rendering:optimizeQuality; fill-rule:evenodd; clip-rule:evenodd"
viewBox="0 0 4000 6000"
 xmlns:xlink="http://www.w3.org/1999/xlink"
 xmlns:xodm="http://www.corel.com/coreldraw/odm/2003">
 <defs>
  <style type="text/css">
   <![CDATA[
    .str1 {stroke:#332C2B;stroke-width:20;stroke-miterlimit:22.9256}
    .str0 {stroke:#E62129;stroke-width:20;stroke-miterlimit:22.9256}
    .fil0 {fill:none}
   ]]>
  </style>
   <clipPath id="id0">
    <rect x="-30378.35" y="-2313.81" width="5009.11" height="6910.54"/>
   </clipPath>
 </defs>
 <g id="图层_x0020_1">
  <metadata id="CorelCorpID_0Corel-Layer"/>
  <g style="clip-path:url(#id0)">
   <image x="-30378.35" y="-2313.81" width="5009.11" height="6910.54" xlink:href="Rebel -11i（手表）_Images\Rebel -11i（手表）_ImgID1.png"/>
  </g>
  <rect class="fil0 str0" x="-29914.8" y="-1155.73" width="3894.61" height="4650"/>
  <rect class="fil0 str0" x="-29704.45" y="-965.23" width="3473.91" height="4281.73" rx="700" ry="707.67"/>
  <path class="fil0 str1" d="M-17473.76 5472.29l0 -2563.39c0,-384.99 -315,-700 -700,-700l-2881.72 0c-385.01,0 -700.01,315 -700.01,700l0 2073.91c0,385 315,700 700.01,700l2881.72 0c385.01,0 700,-315 700,-700 0,-385 37.11,-636.19 90.02,-777.75m-90.02 -2701.52l0 -2563.39c0,-384.99 -315,-700 -700,-700l-2881.72 0c-385.01,0 -700.01,315 -700.01,700l0 2073.91c0,385 315,700 700.01,700l2881.72 0c385.01,0 700,-315 700,-700 0,-385 37.11,-636.19 90.02,-777.75m4503.16 5235.98l0 -2563.39c0,-384.99 -315,-700 -700,-700l-2881.72 0c-385.01,0 -700.01,315 -700.01,700l0 2073.91c0,385 315,700 700.01,700l2881.72 0c385.01,0 700,-315 700,-700 0,-385 37.11,-636.19 90.02,-777.75m4503.16 1267.23l0 -2563.39c0,-384.99 -315,-700 -700,-700l-2881.72 0c-385.01,0 -700.01,315 -700.01,700l0 2073.91c0,385 315,700 700.01,700l2881.72 0c385.01,0 700,-315 700,-700 0,-385 37.11,-636.19 90.02,-777.75m-4683.2 -2701.52l0 -2563.39c0,-384.99 -315,-700 -700,-700l-2881.72 0c-385.01,0 -700.01,315 -700.01,700l0 2073.91c0,385 315,700 700.01,700l2881.72 0c385.01,0 700,-315 700,-700 0,-385 37.11,-636.19 90.02,-777.75m4503.16 1267.23l0 -2563.39c0,-384.99 -315,-700 -700,-700l-2881.72 0c-385.01,0 -700.01,315 -700.01,700l0 2073.91c0,385 315,700 700.01,700l2881.72 0c385.01,0 700,-315 700,-700 0,-385 37.11,-636.19 90.02,-777.75"/>
  <path class="fil0 str1" d="M775.83 2134.82l888.61 0c133.46,0 242.66,-109.2 242.66,-242.66l0 -998.97c0,-133.46 -109.2,-242.66 -242.66,-242.66l-718.93 0c-133.46,0 -242.66,109.2 -242.66,242.66l0 998.97c0,133.47 109.2,242.66 242.66,242.66 133.46,0 220.54,12.86 269.61,31.21m936.5 -31.21l888.61 0c133.46,0 242.66,-109.2 242.66,-242.66l0 -998.97c0,-133.46 -109.2,-242.66 -242.66,-242.66l-718.93 0c-133.46,0 -242.66,109.2 -242.66,242.66l0 998.97c0,133.47 109.2,242.66 242.66,242.66 133.46,0 220.54,12.86 269.61,31.21m-1815.08 1561.04l888.61 0c133.46,0 242.66,-109.19 242.66,-242.66l0 -998.96c0,-133.47 -109.2,-242.66 -242.66,-242.66l-718.93 0c-133.46,0 -242.66,109.19 -242.66,242.66l0 998.96c0,133.47 109.2,242.66 242.66,242.66 133.46,0 220.54,12.87 269.61,31.21m-439.29 1561.05l888.61 0c133.46,0 242.66,-109.2 242.66,-242.66l0 -998.97c0,-133.46 -109.2,-242.66 -242.66,-242.66l-718.93 0c-133.46,0 -242.66,109.2 -242.66,242.66l0 998.97c0,133.46 109.2,242.66 242.66,242.66 133.46,0 220.54,12.86 269.61,31.2m936.5 -1623.46l888.61 0c133.46,0 242.66,-109.19 242.66,-242.66l0 -998.96c0,-133.47 -109.2,-242.66 -242.66,-242.66l-718.93 0c-133.46,0 -242.66,109.19 -242.66,242.66l0 998.96c0,133.47 109.2,242.66 242.66,242.66 133.46,0 220.54,12.87 269.61,31.21m-439.29 1561.05l888.61 0c133.46,0 242.66,-109.2 242.66,-242.66l0 -998.97c0,-133.46 -109.2,-242.66 -242.66,-242.66l-718.93 0c-133.46,0 -242.66,109.2 -242.66,242.66l0 998.97c0,133.46 109.2,242.66 242.66,242.66 133.46,0 220.54,12.86 269.61,31.2"/>
 </g>
</svg>
