<?xml version="1.0" encoding="UTF-8"?>
<!DOCTYPE svg PUBLIC "-//W3C//DTD SVG 1.1//EN" "http://www.w3.org/Graphics/SVG/1.1/DTD/svg11.dtd">
<!-- Creator: CorelDRAW 2020 (64-Bit) -->
<svg xmlns="http://www.w3.org/2000/svg" xml:space="preserve" width="40mm" height="60mm" version="1.1" style="shape-rendering:geometricPrecision; text-rendering:geometricPrecision; image-rendering:optimizeQuality; fill-rule:evenodd; clip-rule:evenodd"
viewBox="0 0 4000 6000"
 xmlns:xlink="http://www.w3.org/1999/xlink"
 xmlns:xodm="http://www.corel.com/coreldraw/odm/2003">
 <defs>
  <style type="text/css">
   <![CDATA[
    .str0 {stroke:#332C2B;stroke-width:7.62;stroke-miterlimit:22.9256}
    .fil0 {fill:none}
   ]]>
  </style>
 </defs>
 <g id="图层_x0020_1">
  <metadata id="CorelCorpID_0Corel-Layer"/>
  <path class="fil0 str0" d="M1209.83 773.57c3.43,-22.08 -15.14,-37.56 -24.35,-38.27 -32.78,0 -59.35,26.57 -59.35,59.34 0,32.78 26.57,59.34 59.35,59.34 32.77,0 59.34,-26.56 59.34,-59.34 0,-32.77 -26.57,-59.34 -59.34,-59.34m-262.66 4593.64l1880.46 0c142.05,0 258.3,-116.25 258.3,-258.3l0 -1.33 192.86 0c8.16,0 14.83,-6.67 14.83,-14.83l0 -2291.51c0,-11.44 -9.33,-20.77 -20.77,-20.77l-136.05 0c-8.16,0 -14.84,-6.68 -14.84,-14.84l0 -344.32c0,-8.16 6.68,-14.84 14.84,-14.84l136.05 0c11.44,0 20.77,-9.33 20.77,-20.77l0 -711.81c0,-11.44 -9.33,-20.77 -20.77,-20.77l-137.11 0c-7.58,0 -13.78,-6.2 -13.78,-13.77l0 -196.61c0,-7.58 6.2,-13.78 13.78,-13.78l137.11 0c11.44,0 20.77,-9.33 20.77,-20.77l0 -439.79c0,-8.16 -6.67,-14.84 -14.83,-14.84l-192.86 0 0 -1.32c0,-142.05 -116.23,-258.3 -258.3,-258.3 -552.1,0 -1067.65,0 -1619.75,0 -142.07,0 -258.3,116.23 -258.3,258.3l0 1.32 -192.87 0c-8.16,0 -14.83,6.68 -14.83,14.84l0 1203.29c0,11.44 9.33,20.77 20.77,20.77l132.04 0c8.16,0 14.83,6.68 14.83,14.84l0 558.17c0,8.16 -6.67,14.83 -14.83,14.83l-132.04 0c-11.44,0 -20.77,9.33 -20.77,20.77l0 2291.68c0,8.16 6.67,14.83 14.83,14.83l192.87 0 0 1.33c0,142.07 116.24,258.3 258.3,258.3l46.24 0c83.53,0 136.29,12.45 165.65,26.73"/>
 </g>
</svg>
