<?xml version="1.0" encoding="UTF-8"?>
<!DOCTYPE svg PUBLIC "-//W3C//DTD SVG 1.1//EN" "http://www.w3.org/Graphics/SVG/1.1/DTD/svg11.dtd">
<!-- Creator: CorelDRAW X8 -->
<svg xmlns="http://www.w3.org/2000/svg" xml:space="preserve" width="40mm" height="60mm" version="1.1" style="shape-rendering:geometricPrecision; text-rendering:geometricPrecision; image-rendering:optimizeQuality; fill-rule:evenodd; clip-rule:evenodd"
viewBox="0 0 4000 6000"
 xmlns:xlink="http://www.w3.org/1999/xlink">
 <defs>
  <style type="text/css">
   <![CDATA[
    .str0 {stroke:#332C2B;stroke-width:7.62}
    .fil0 {fill:none}
   ]]>
  </style>
 </defs>
 <g id="图层_x0020_1">
  <metadata id="CorelCorpID_0Corel-Layer"/>
  <path class="fil0 str0" d="M846 5256l2125 0c100,0 183,-83 183,-183l0 -4240c0,-101 -83,-183 -183,-183l-482 0c-11,0 -14,0 -23,14 -12,20 -36,33 -63,33 -28,0 -51,-13 -64,-33 -10,-16 -15,-14 -23,-14l-1257 0c-101,0 -183,82 -183,183l0 4240c0,100 82,183 183,183 101,0 164,38 164,94m202 -4458c-66,-38 -32,-185 49,-185 82,0 148,66 148,147 0,82 -66,148 -148,148 -81,0 -147,-66 -147,-148 0,-81 66,-147 147,-147m-20 448c-28,-16 -14,-80 22,-80 36,0 64,29 64,64 0,36 -28,65 -64,65 -36,0 -65,-29 -65,-65 0,-35 29,-64 65,-64m427 3815c0,-24 -72,-34 -85,-34 -13,0 -24,11 -24,24l0 0c0,13 11,24 24,24l394 0c13,0 24,-11 24,-24l0 0c0,-13 -11,-24 -24,-24l-394 0"/>
 </g>
</svg>
