<?xml version="1.0" encoding="UTF-8"?>
<!DOCTYPE svg PUBLIC "-//W3C//DTD SVG 1.1//EN" "http://www.w3.org/Graphics/SVG/1.1/DTD/svg11.dtd">
<!-- Creator: CorelDRAW X8 -->
<svg xmlns="http://www.w3.org/2000/svg" xml:space="preserve" width="40mm" height="60mm" version="1.1" style="shape-rendering:geometricPrecision; text-rendering:geometricPrecision; image-rendering:optimizeQuality; fill-rule:evenodd; clip-rule:evenodd"
viewBox="0 0 4000 6000"
 xmlns:xlink="http://www.w3.org/1999/xlink">
 <defs>
  <style type="text/css">
   <![CDATA[
    .str0 {stroke:black;stroke-width:20}
    .fil0 {fill:none}
   ]]>
  </style>
 </defs>
 <g id="图层_x0020_1">
  <metadata id="CorelCorpID_0Corel-Layer"/>
  <path class="fil0 str0" d="M1169 650l1662 0c150,0 273,123 273,273l0 4154c0,150 -123,273 -273,273l-1662 0c-150,0 -273,-123 -273,-273l0 -4154c0,-150 123,-273 273,-273zm34 134l0 0c87,0 158,71 158,158l0 669c0,87 -71,158 -158,158l0 0c-87,0 -158,-71 -158,-158l0 -669c0,-87 71,-158 158,-158zm797 910c99,0 179,81 179,179 0,99 -80,180 -179,180 -99,0 -179,-81 -179,-180 0,-98 80,-179 179,-179z"/>
 </g>
</svg>
