<?xml version="1.0" encoding="UTF-8"?>
<!DOCTYPE svg PUBLIC "-//W3C//DTD SVG 1.1//EN" "http://www.w3.org/Graphics/SVG/1.1/DTD/svg11.dtd">
<!-- Creator: CorelDRAW X8 -->
<svg xmlns="http://www.w3.org/2000/svg" xml:space="preserve" width="40mm" height="60mm" version="1.1" style="shape-rendering:geometricPrecision; text-rendering:geometricPrecision; image-rendering:optimizeQuality; fill-rule:evenodd; clip-rule:evenodd"
viewBox="0 0 4000 6000"
 xmlns:xlink="http://www.w3.org/1999/xlink">
 <defs>
  <style type="text/css">
   <![CDATA[
    .str0 {stroke:#332C2B;stroke-width:7.62}
    .fil0 {fill:none}
   ]]>
  </style>
 </defs>
 <g id="图层_x0020_1">
  <metadata id="CorelCorpID_0Corel-Layer"/>
  <path class="fil0 str0" d="M861 5208l2065 0c117,0 213,-96 213,-214l0 -4130c0,-118 -96,-214 -213,-214l-1784 0c-118,0 -214,96 -214,214l0 4130c0,118 96,214 214,214 117,0 246,46 246,142m646 -4475c124,0 224,101 224,224 0,124 -100,224 -224,224 -123,0 -224,-100 -224,-224 0,-123 101,-224 224,-224zm-2 710c102,0 185,82 185,185 0,102 -83,185 -185,185 -102,0 -185,-83 -185,-185 0,-103 83,-185 185,-185zm-32 -193l69 0c34,0 62,29 62,63l0 0c0,34 -28,62 -62,62l-69 0c-35,0 -63,-28 -63,-62l0 0c0,-34 28,-63 63,-63z"/>
 </g>
</svg>
