<?xml version="1.0" encoding="UTF-8"?>
<!DOCTYPE svg PUBLIC "-//W3C//DTD SVG 1.1//EN" "http://www.w3.org/Graphics/SVG/1.1/DTD/svg11.dtd">
<!-- Creator: CorelDRAW X8 -->
<svg xmlns="http://www.w3.org/2000/svg" xml:space="preserve" width="40mm" height="60mm" version="1.1" style="shape-rendering:geometricPrecision; text-rendering:geometricPrecision; image-rendering:optimizeQuality; fill-rule:evenodd; clip-rule:evenodd"
viewBox="0 0 4000 6000"
 xmlns:xlink="http://www.w3.org/1999/xlink">
 <defs>
  <style type="text/css">
   <![CDATA[
    .str0 {stroke:black;stroke-width:7.62;stroke-linejoin:bevel}
    .fil0 {fill:none}
   ]]>
  </style>
 </defs>
 <g id="图层_x0020_1">
  <metadata id="CorelCorpID_0Corel-Layer"/>
  <path class="fil0 str0" d="M3074 890c0,-64 -25,-125 -70,-170 -45,-45 -106,-70 -170,-70l-1668 0c-64,0 -125,25 -170,70 -45,45 -70,106 -70,170l0 4220c0,64 25,125 70,170 45,45 106,70 170,70l1668 0c64,0 125,-25 170,-70 45,-45 70,-106 70,-170l0 -4220zm-849 1013c0,-124 -101,-225 -225,-225 -124,0 -225,101 -225,225 0,124 101,225 225,225 124,0 225,-101 225,-225zm-817 -966c0,-69 -37,-133 -96,-167 -60,-35 -134,-35 -194,0 -60,34 -97,98 -97,167l0 903c0,69 37,133 97,168 60,34 134,34 194,0 59,-35 96,-99 96,-168l0 -903z"/>
 </g>
</svg>
