<?xml version="1.0" encoding="UTF-8"?>
<!DOCTYPE svg PUBLIC "-//W3C//DTD SVG 1.1//EN" "http://www.w3.org/Graphics/SVG/1.1/DTD/svg11.dtd">
<!-- Creator: CorelDRAW -->
<svg xmlns="http://www.w3.org/2000/svg" xml:space="preserve" width="40mm" height="60mm" style="shape-rendering:geometricPrecision; text-rendering:geometricPrecision; image-rendering:optimizeQuality; fill-rule:evenodd; clip-rule:evenodd"
viewBox="0 0 40 60"
 xmlns:xlink="http://www.w3.org/1999/xlink">
 <defs>
  <style type="text/css">
   <![CDATA[
    .str0 {stroke:#1F1A17;stroke-width:0.194}
    .fil0 {fill:none}
   ]]>
  </style>
 </defs>
 <g id="图层_x0020_1">
  <metadata id="CorelCorpID_0Corel-Layer"/>
  <path class="fil0 str0" d="M8.3187 8.0946c0.344,-0.306 0.4077,-0.3183 1.585,-0.3227l19.3585 -0.0493c1.1971,-0.0029 1.2608,0.0095 1.6048,0.3155 0.2641,0.2341 0.4429,0.5882 0.558,0.893l0.0087 44.5799c-0.0607,0.2785 -0.2698,0.6166 -0.5339,0.8507 -0.344,0.306 -0.4077,0.3184 -1.6349,0.3184l-19.3207 0.0357c-1.2507,0.0208 -1.3143,0.0084 -1.6583,-0.2976 -0.2642,-0.234 -0.4732,-0.5722 -0.534,-0.8507l0.0087 -44.5799c0.1152,-0.3047 0.2939,-0.6589 0.5581,-0.893m11.8511 42.7225l-0.8266 0.0024 -1.1141 0m1.4076 2.7426c1.1271,-0.0011 0.8453,0 1.9725,-0.0094 0.1515,-0.0047 0.1949,-0.0141 0.3064,-0.0634 0.2876,-0.128 0.4837,-0.4568 0.4837,-0.8102 0,-0.7666 -0.007,-1.0132 -0.0352,-1.1987 -0.0294,-0.1855 -0.0728,-0.27 -0.2125,-0.412 -0.0223,-0.0223 -0.0376,-0.0411 -0.0693,-0.0775 -0.1432,-0.1703 -0.1432,-0.1703 -1.9125,-0.1738m-0.7714 2.745l0.2383 0m-2.2589 -0.0951c0.1456,0.0963 0.1456,0.0963 2.0206,0.0951m-2.0394 -0.1068l0.0188 0.0117m0.8513 -2.6475c-0.7586,-0.0024 -0.9088,0.0446 -1.1284,0.3475 -0.1526,0.2125 -0.1855,0.4097 -0.1855,1.1036 0,0.7255 0.0834,0.9486 0.4438,1.1847m-0.4257 -44.9268l2.0165 0.0018 1.4341 -0.0088m-1.4452 0.937c-1.76,0.0047 -2.1568,-0.007 -2.2907,-0.0693 -0.1608,-0.074 -0.2406,-0.2091 -0.2406,-0.4051 0,-0.2959 0.1655,-0.4403 0.5259,-0.4556m2.1709 0.9288l-0.1655 0.0012m2.3105 -0.1022c-0.142,0.0963 -0.142,0.0963 -2.145,0.101m2.1568 -0.1092l-0.0118 0.0082m-0.8653 -0.8348c0.4778,-0.0035 0.7092,0.0188 0.8489,0.0822 0.1397,0.0634 0.1925,0.1679 0.1925,0.3839 0,0.1526 -0.0645,0.2924 -0.1643,0.3605m5.95 -0.8843c0.3057,0 0.5537,0.2457 0.5537,0.5488 0,0.3031 -0.248,0.5488 -0.5537,0.5488 -0.3058,0 -0.5538,-0.2457 -0.5538,-0.5488 0,-0.3031 0.248,-0.5488 0.5538,-0.5488z"/>
 </g>
</svg>
