<?xml version="1.0" encoding="UTF-8"?>
<!DOCTYPE svg PUBLIC "-//W3C//DTD SVG 1.1//EN" "http://www.w3.org/Graphics/SVG/1.1/DTD/svg11.dtd">
<!-- Creator: CorelDRAW X8 -->
<svg xmlns="http://www.w3.org/2000/svg" xml:space="preserve" width="40mm" height="60mm" version="1.1" style="shape-rendering:geometricPrecision; text-rendering:geometricPrecision; image-rendering:optimizeQuality; fill-rule:evenodd; clip-rule:evenodd"
viewBox="0 0 4000 6000"
 xmlns:xlink="http://www.w3.org/1999/xlink">
 <defs>
  <style type="text/css">
   <![CDATA[
    .str0 {stroke:black;stroke-width:7.62}
    .fil0 {fill:none}
   ]]>
  </style>
 </defs>
 <g id="图层_x0020_1">
  <metadata id="CorelCorpID_0Corel-Layer"/>
  <path class="fil0 str0" d="M1260 864c-1,-11 -11,-21 -31,-23 -73,0 -131,59 -131,131 0,73 58,132 131,132 73,0 131,-59 131,-132 0,-72 -58,-131 -131,-131m31 390c-1,-11 -11,-21 -31,-23 -73,0 -131,59 -131,131 0,73 58,132 131,132 73,0 131,-59 131,-132 0,-72 -58,-131 -131,-131m31 363c-1,-11 -11,-22 -31,-23 -73,0 -131,59 -131,131 0,73 58,132 131,132 73,0 131,-59 131,-132 0,-72 -58,-131 -131,-131m-27 -723l249 0c64,0 117,53 117,117l0 798c0,64 -53,117 -117,117l-249 0c-64,0 -117,-53 -117,-117l0 -798c0,-64 53,-117 117,-117zm0 -31l249 0c82,0 148,66 148,148l0 798c0,82 -66,148 -148,148l-249 0c-82,0 -149,-66 -149,-148l0 -798c0,-82 67,-148 149,-148zm845 830c-1,-16 -15,-31 -45,-33 -105,0 -190,85 -190,189 0,105 85,190 190,190 105,0 190,-85 190,-190 0,-104 -85,-189 -190,-189m-952 3759l1764 0c131,0 237,-106 237,-236l0 -4228c0,-130 -106,-236 -237,-236l-1628 0c-131,0 -237,106 -237,236l0 4228c0,130 106,236 237,236l134 0"/>
 </g>
</svg>
