<?xml version="1.0" encoding="UTF-8"?>
<!DOCTYPE svg PUBLIC "-//W3C//DTD SVG 1.1//EN" "http://www.w3.org/Graphics/SVG/1.1/DTD/svg11.dtd">
<!-- Creator: CorelDRAW X8 -->
<svg xmlns="http://www.w3.org/2000/svg" xml:space="preserve" width="40mm" height="60mm" version="1.1" style="shape-rendering:geometricPrecision; text-rendering:geometricPrecision; image-rendering:optimizeQuality; fill-rule:evenodd; clip-rule:evenodd"
viewBox="0 0 4000 6000"
 xmlns:xlink="http://www.w3.org/1999/xlink">
 <defs>
  <style type="text/css">
   <![CDATA[
    .str0 {stroke:black;stroke-width:7.62}
    .fil0 {fill:none}
   ]]>
  </style>
 </defs>
 <g id="图层_x0020_1">
  <metadata id="CorelCorpID_0Corel-Layer"/>
  <path class="fil0 str0" d="M3514 5064c-45,0 -72,71 -72,140 0,69 -58,126 -128,126l-2700 0c-70,0 -128,-57 -128,-126l0 -2145c0,-7 3,-19 18,-19l29 0c29,0 54,-24 54,-53l0 0c0,-30 -25,-54 -54,-54l-31 0c-13,0 -16,-7 -16,-19l0 -2138c0,-69 58,-126 128,-126l2700 0c70,0 128,57 128,126l0 4574"/>
 </g>
</svg>
