<?xml version="1.0" encoding="UTF-8"?>
<!DOCTYPE svg PUBLIC "-//W3C//DTD SVG 1.1//EN" "http://www.w3.org/Graphics/SVG/1.1/DTD/svg11.dtd">
<!-- Creator: CorelDRAW X8 -->
<svg xmlns="http://www.w3.org/2000/svg" xml:space="preserve" width="40mm" height="60mm" version="1.1" style="shape-rendering:geometricPrecision; text-rendering:geometricPrecision; image-rendering:optimizeQuality; fill-rule:evenodd; clip-rule:evenodd"
viewBox="0 0 4000 6000"
 xmlns:xlink="http://www.w3.org/1999/xlink">
 <defs>
  <style type="text/css">
   <![CDATA[
    .str0 {stroke:black;stroke-width:7.62}
    .fil0 {fill:none}
   ]]>
  </style>
 </defs>
 <g id="图层_x0020_1">
  <metadata id="CorelCorpID_0Corel-Layer"/>
  <path class="fil0 str0" d="M-20949 -10786c-3,-30 -29,-58 -83,-62 -193,0 -350,157 -350,350 0,193 157,350 350,350 193,0 350,-157 350,-350 0,-193 -157,-350 -350,-350"/>
  <path class="fil0 str0" d="M-21509 12747c0,-291 -596,-558 -964,-558 -368,0 -670,-302 -670,-670l0 -17186c0,-55 276,-55 276,-113l0 -3379c0,-73 -276,-70 -276,-143l0 -1569c0,-369 301,-670 670,-670l357 0c22,0 27,4 33,21l39 137c6,18 9,18 30,18l1229 0c17,0 26,-8 37,-21 24,-29 58,-102 81,-141 8,-13 13,-14 29,-14l13301 0c40,0 51,58 66,99 34,89 130,153 231,153l66 0c105,0 204,-69 234,-163 11,-33 26,-89 55,-89l1032 0c368,0 670,302 670,670l0 22390c0,368 -302,670 -670,670l-7110 0c-32,0 -40,-5 -53,-27l-36 -111c-8,-14 -13,-17 -33,-17l-2179 0c-47,0 -53,4 -67,33l-30 103c-8,14 -15,19 -36,19l-8202 0"/>
  <g id="_2361293998816">
   <path class="fil0 str0" d="M692 796c0,-6 -5,-11 -16,-12 -37,0 -68,30 -68,68 0,37 31,68 68,68 38,0 68,-31 68,-68 0,-38 -30,-68 -68,-68"/>
   <path class="fil0 str0" d="M584 5350c0,-56 -115,-108 -187,-108 -71,0 -129,-58 -129,-130l0 -3325c0,-11 53,-11 53,-22l0 -654c0,-14 -53,-14 -53,-28l0 -303c0,-72 58,-130 129,-130l69 0c5,0 6,1 7,4l7 27c2,3 2,3 6,3l238 0c3,0 5,-1 7,-4 5,-6 11,-20 16,-27 1,-3 2,-3 5,-3l2574 0c8,0 10,11 13,19 7,17 25,30 45,30l13 0c20,0 39,-14 45,-32 2,-6 5,-17 11,-17l199 0c72,0 130,58 130,130l0 4332c0,72 -59,130 -130,130l-1376 0c-6,0 -7,-1 -10,-5l-7 -22c-1,-2 -2,-3 -6,-3l-422 0c-9,0 -10,1 -13,6l-6 20c-1,3 -3,4 -7,4l-1587 0"/>
  </g>
 </g>
</svg>
