<?xml version="1.0" encoding="UTF-8"?>
<!DOCTYPE svg PUBLIC "-//W3C//DTD SVG 1.1//EN" "http://www.w3.org/Graphics/SVG/1.1/DTD/svg11.dtd">
<!-- Creator: CorelDRAW X8 -->
<svg xmlns="http://www.w3.org/2000/svg" xml:space="preserve" width="40mm" height="60mm" version="1.1" style="shape-rendering:geometricPrecision; text-rendering:geometricPrecision; image-rendering:optimizeQuality; fill-rule:evenodd; clip-rule:evenodd"
viewBox="0 0 4000 6000"
 xmlns:xlink="http://www.w3.org/1999/xlink">
 <defs>
  <style type="text/css">
   <![CDATA[
    .str0 {stroke:black;stroke-width:7.62}
    .fil0 {fill:none}
   ]]>
  </style>
 </defs>
 <g id="Capa_x0020_1">
  <metadata id="CorelCorpID_0Corel-Layer"/>
  <path class="fil0 str0" d="M1464 708c28,0 51,21 51,46 0,26 -23,47 -51,47 -27,0 -50,-21 -50,-47 0,-25 23,-46 50,-46zm170 14l535 0m-535 66l535 0m0 -66c18,0 32,15 32,33 0,18 -14,33 -32,33m-535 0c-18,0 -32,-15 -32,-33 0,-18 14,-33 32,-33m-609 -72l1950 0c87,0 157,71 157,157l0 4386c0,86 -70,157 -157,157l-1950 0c-87,0 -157,-71 -157,-157l0 -4386c0,-86 70,-157 157,-157z"/>
 </g>
</svg>
