<?xml version="1.0" encoding="UTF-8"?>
<!DOCTYPE svg PUBLIC "-//W3C//DTD SVG 1.1//EN" "http://www.w3.org/Graphics/SVG/1.1/DTD/svg11.dtd">
<!-- Creator: CorelDRAW X8 -->
<svg xmlns="http://www.w3.org/2000/svg" xml:space="preserve" width="120mm" height="180mm" version="1.1" style="shape-rendering:geometricPrecision; text-rendering:geometricPrecision; image-rendering:optimizeQuality; fill-rule:evenodd; clip-rule:evenodd"
viewBox="0 0 12000 18000"
 xmlns:xlink="http://www.w3.org/1999/xlink">
 <defs>
  <style type="text/css">
   <![CDATA[
    .str0 {stroke:#222222;stroke-width:20}
    .fil0 {fill:none}
   ]]>
  </style>
 </defs>
 <g id="图层_x0020_1">
  <metadata id="CorelCorpID_0Corel-Layer"/>
  <g id="_2345020836048">
   <path class="fil0 str0" d="M3643 6309c0,-162 -286,-518 -747,-518 -461,0 -839,-377 -839,-838l0 -2623c0,-461 378,-839 839,-839l1973 0c461,0 838,378 838,839l0 2623c0,461 -377,838 -838,838l-2876 0"/>
   <path class="fil0 str0" d="M3643 11409c0,-162 -286,-518 -747,-518 -461,0 -839,-377 -839,-838l0 -2623c0,-461 378,-839 839,-839l1973 0c461,0 838,378 838,839l0 2623c0,461 -377,838 -838,838l-2876 0"/>
   <path class="fil0 str0" d="M3643 16509c0,-162 -286,-518 -747,-518 -461,0 -839,-377 -839,-838l0 -2623c0,-461 378,-839 839,-839l1973 0c461,0 838,378 838,839l0 2623c0,461 -377,838 -838,838l-2876 0"/>
   <path class="fil0 str0" d="M7943 6309c0,-162 -286,-518 -747,-518 -461,0 -839,-377 -839,-838l0 -2623c0,-461 378,-839 839,-839l1973 0c461,0 838,378 838,839l0 2623c0,461 -377,838 -838,838l-2876 0"/>
   <path class="fil0 str0" d="M7943 11409c0,-162 -286,-518 -747,-518 -461,0 -839,-377 -839,-838l0 -2623c0,-461 378,-839 839,-839l1973 0c461,0 838,378 838,839l0 2623c0,461 -377,838 -838,838l-2876 0"/>
   <path class="fil0 str0" d="M7943 16509c0,-162 -286,-518 -747,-518 -461,0 -839,-377 -839,-838l0 -2623c0,-461 378,-839 839,-839l1973 0c461,0 838,378 838,839l0 2623c0,461 -377,838 -838,838l-2876 0"/>
  </g>
  <g id="_2345020850128">
   <path class="fil0 str0" d="M-16376 11357c-162,0 -518,286 -518,747 0,461 -377,839 -838,839l-2623 0c-461,0 -839,-378 -839,-839l0 -1973c0,-461 378,-838 839,-838l2623 0c461,0 838,377 838,838l0 2876"/>
   <path class="fil0 str0" d="M-11276 11357c-162,0 -518,286 -518,747 0,461 -377,839 -838,839l-2623 0c-461,0 -839,-378 -839,-839l0 -1973c0,-461 378,-838 839,-838l2623 0c461,0 838,377 838,838l0 2876"/>
   <path class="fil0 str0" d="M-6176 11357c-162,0 -518,286 -518,747 0,461 -377,839 -838,839l-2623 0c-461,0 -839,-378 -839,-839l0 -1973c0,-461 378,-838 839,-838l2623 0c461,0 838,377 838,838l0 2876"/>
   <path class="fil0 str0" d="M-16376 7057c-162,0 -518,286 -518,747 0,461 -377,839 -838,839l-2623 0c-461,0 -839,-378 -839,-839l0 -1973c0,-461 378,-838 839,-838l2623 0c461,0 838,377 838,838l0 2876"/>
   <path class="fil0 str0" d="M-11276 7057c-162,0 -518,286 -518,747 0,461 -377,839 -838,839l-2623 0c-461,0 -839,-378 -839,-839l0 -1973c0,-461 378,-838 839,-838l2623 0c461,0 838,377 838,838l0 2876"/>
   <path class="fil0 str0" d="M-6176 7057c-162,0 -518,286 -518,747 0,461 -377,839 -838,839l-2623 0c-461,0 -839,-378 -839,-839l0 -1973c0,-461 378,-838 839,-838l2623 0c461,0 838,377 838,838l0 2876"/>
  </g>
 </g>
</svg>
