<?xml version="1.0" encoding="UTF-8"?>
<!DOCTYPE svg PUBLIC "-//W3C//DTD SVG 1.1//EN" "http://www.w3.org/Graphics/SVG/1.1/DTD/svg11.dtd">
<!-- Creator: CorelDRAW 2020 (64-Bit) -->
<svg xmlns="http://www.w3.org/2000/svg" xml:space="preserve" width="40mm" height="60mm" version="1.1" style="shape-rendering:geometricPrecision; text-rendering:geometricPrecision; image-rendering:optimizeQuality; fill-rule:evenodd; clip-rule:evenodd"
viewBox="0 0 4000 6000"
 xmlns:xlink="http://www.w3.org/1999/xlink"
 xmlns:xodm="http://www.corel.com/coreldraw/odm/2003">
 <defs>
  <style type="text/css">
   <![CDATA[
    .str0 {stroke:black;stroke-width:7.62;stroke-linejoin:bevel;stroke-miterlimit:22.9256}
    .fil0 {fill:none}
   ]]>
  </style>
 </defs>
 <g id="图层_x0020_1">
  <metadata id="CorelCorpID_0Corel-Layer"/>
  <path class="fil0 str0" d="M2504.73 1994.39c-21.52,-18.19 -67.13,-29.63 -136.8,-34.33 -22.08,-1.79 -44.15,-3.84 -66.19,-6.15 -96.39,-10.06 -172.79,-85.5 -184.25,-181.73 -36.27,-305.67 -35.74,-614.53 1.56,-920.09 11.68,-95.97 88.12,-170.98 184.28,-181.04 197.94,-20.62 397.46,-20.5 595.37,0.33 96.09,10.08 172.32,85.15 184.06,181.04 37.25,305.34 37.77,613.97 1.56,919.44 -11.37,96.16 -87.74,171.49 -184.02,181.72 -176.93,18.73 -355.14,20.89 -532.37,6.48 -57.01,-5.08 -95.61,-1.37 -115.8,11.12m-962.37 23.21c-21.53,-18.19 -67.13,-29.63 -136.81,-34.33 -22.07,-1.79 -44.14,-3.84 -66.19,-6.15 -96.38,-10.06 -172.79,-85.5 -184.24,-181.73 -36.28,-305.67 -35.75,-614.53 1.56,-920.09 11.68,-95.97 88.11,-170.98 184.27,-181.04 197.95,-20.62 397.46,-20.5 595.38,0.33 96.08,10.08 172.31,85.15 184.05,181.04 37.26,305.34 37.78,613.97 1.56,919.44 -11.36,96.16 -87.73,171.49 -184.02,181.72 -176.92,18.73 -355.14,20.89 -532.37,6.48 -57,-5.08 -95.6,-1.37 -115.79,11.12m1467.57 1726.26c-21.52,-18.18 -67.13,-29.63 -136.8,-34.32 -22.08,-1.8 -44.15,-3.85 -66.19,-6.16 -96.39,-10.05 -172.79,-85.5 -184.25,-181.72 -36.27,-305.68 -35.74,-614.54 1.56,-920.09 11.68,-95.98 88.12,-170.99 184.28,-181.04 197.94,-20.62 397.46,-20.51 595.37,0.33 96.09,10.07 172.32,85.14 184.06,181.03 37.25,305.34 37.77,613.98 1.56,919.45 -11.37,96.15 -87.74,171.48 -184.02,181.71 -176.93,18.73 -355.14,20.89 -532.37,6.49 -57.01,-5.08 -95.61,-1.38 -115.8,11.12m-962.37 23.2c-21.53,-18.18 -67.13,-29.63 -136.81,-34.32 -22.07,-1.8 -44.14,-3.85 -66.19,-6.16 -96.38,-10.05 -172.79,-85.5 -184.24,-181.72 -36.28,-305.68 -35.75,-614.54 1.56,-920.09 11.68,-95.98 88.11,-170.99 184.27,-181.04 197.95,-20.62 397.46,-20.51 595.38,0.33 96.08,10.07 172.31,85.14 184.05,181.03 37.26,305.34 37.78,613.98 1.56,919.45 -11.36,96.15 -87.73,171.48 -184.02,181.71 -176.92,18.73 -355.14,20.89 -532.37,6.49 -57,-5.08 -95.6,-1.38 -115.79,11.12m1467.57 1681.43c-21.52,-18.19 -67.13,-29.63 -136.8,-34.33 -22.08,-1.79 -44.15,-3.84 -66.19,-6.15 -96.39,-10.05 -172.79,-85.5 -184.25,-181.72 -36.27,-305.68 -35.74,-614.54 1.56,-920.09 11.68,-95.98 88.12,-170.99 184.28,-181.04 197.94,-20.62 397.46,-20.51 595.37,0.33 96.09,10.07 172.32,85.14 184.06,181.03 37.25,305.34 37.77,613.98 1.56,919.45 -11.37,96.15 -87.74,171.48 -184.02,181.71 -176.93,18.73 -355.14,20.89 -532.37,6.48 -57.01,-5.08 -95.61,-1.37 -115.8,11.12m-962.37 23.21c-21.53,-18.19 -67.13,-29.63 -136.81,-34.33 -22.07,-1.79 -44.14,-3.84 -66.19,-6.15 -96.38,-10.05 -172.79,-85.5 -184.24,-181.72 -36.28,-305.68 -35.75,-614.54 1.56,-920.09 11.68,-95.98 88.11,-170.99 184.27,-181.04 197.95,-20.62 397.46,-20.51 595.38,0.33 96.08,10.07 172.31,85.14 184.05,181.03 37.26,305.34 37.78,613.98 1.56,919.45 -11.36,96.15 -87.73,171.48 -184.02,181.71 -176.92,18.73 -355.14,20.89 -532.37,6.48 -57,-5.08 -95.6,-1.37 -115.79,11.12"/>
 </g>
</svg>
