<?xml version="1.0" encoding="UTF-8"?>
<!DOCTYPE svg PUBLIC "-//W3C//DTD SVG 1.1//EN" "http://www.w3.org/Graphics/SVG/1.1/DTD/svg11.dtd">
<!-- Creator: CorelDRAW X8 -->
<svg xmlns="http://www.w3.org/2000/svg" xml:space="preserve" width="40mm" height="60mm" version="1.1" style="shape-rendering:geometricPrecision; text-rendering:geometricPrecision; image-rendering:optimizeQuality; fill-rule:evenodd; clip-rule:evenodd"
viewBox="0 0 4000 6000"
 xmlns:xlink="http://www.w3.org/1999/xlink">
 <defs>
  <style type="text/css">
   <![CDATA[
    .str0 {stroke:#332C2B;stroke-width:19.4}
    .fil0 {fill:none;fill-rule:nonzero}
   ]]>
  </style>
 </defs>
 <g id="图层_x0020_1">
  <metadata id="CorelCorpID_0Corel-Layer"/>
  <g id="_2056250626352">
   <g>
    <line class="fil0 str0" x1="3083" y1="650" x2="3083" y2= "680" />
    <polyline class="fil0 str0" points="1334,1431 1334,1439 1334,1439 1332,1439 1333,1439 "/>
    <path class="fil0 str0" d="M1333 1439c-3,48 -30,72 -79,72 -54,0 -81,-27 -81,-81 0,-44 36,-81 81,-81 44,0 80,36 80,80 0,6 0,11 -2,27"/>
    <polyline class="fil0 str0" points="1342,1183 1341,1191 1339,1191 1342,1191 "/>
    <path class="fil0 str0" d="M1342 1191c0,40 -44,79 -88,79 -49,0 -89,-40 -89,-88 0,-49 40,-89 89,-89 51,0 88,38 88,91 0,6 0,6 -2,24"/>
    <polyline class="fil0 str0" points="1327,929 1327,937 1325,937 1326,937 "/>
    <path class="fil0 str0" d="M1326 937c0,33 -35,64 -72,64 -41,0 -74,-33 -74,-73 0,-41 33,-74 74,-74 40,0 73,32 73,72 0,6 -1,11 -2,25"/>
    <polyline class="fil0 str0" points="1372,1183 1371,1191 1370,1191 1372,1191 1373,1192 1371,1428 "/>
    <path class="fil0 str0" d="M1371 1428c0,17 -1,23 -8,40 -18,46 -59,74 -109,74 -63,0 -113,-46 -118,-107 -1,-15 -2,-126 -2,-256 0,-171 1,-222 4,-250 2,-28 8,-40 26,-63 23,-26 53,-40 90,-40 58,0 104,38 115,96 3,14 3,16 3,61"/>
    <line class="fil0 str0" x1="1372" y1="983" x2="1372" y2= "1210" />
    <polyline class="fil0 str0" points="1395,1180 1396,1189 1396,1188 1395,1189 1396,1365 "/>
    <path class="fil0 str0" d="M1396 1365c0,117 -6,142 -49,177 -25,21 -55,31 -94,31 -74,0 -134,-50 -140,-118 -2,-17 -3,-136 -3,-277 0,-186 1,-242 4,-273 3,-32 10,-46 31,-70 27,-31 64,-46 109,-46 69,0 124,42 138,106 3,13 4,33 4,137"/>
    <line class="fil0 str0" x1="1396" y1="1032" x2="1396" y2= "1174" />
    <path class="fil0 str0" d="M1396 1174c0,19 0,21 0,33"/>
    <path class="fil0 str0" d="M2159 1506c1,10 1,17 1,26 0,95 -60,160 -148,160 -84,0 -145,-61 -149,-146 0,-14 -1,-29 -1,-43 0,-89 12,-123 56,-157 26,-21 60,-32 94,-32 76,0 139,54 146,127"/>
    <line class="fil0 str0" x1="2158" y1="1441" x2="2158" y2= "1444" />
    <path class="fil0 str0" d="M2158 1444c1,5 1,5 1,61"/>
    <line class="fil0 str0" x1="2159" y1="1505" x2="2159" y2= "1532" />
    <polyline class="fil0 str0" points="1329,1719 1330,1727 1329,1727 1327,1727 1328,1727 "/>
    <path class="fil0 str0" d="M1328 1727c-4,37 -35,66 -74,66 -41,0 -75,-34 -75,-75 0,-42 34,-76 75,-76 42,0 76,35 75,77 0,5 0,6 -2,23"/>
    <polyline class="fil0 str0" points="913,5224 912,5233 916,5233 "/>
    <path class="fil0 str0" d="M916 5233c4,-3 5,-5 6,-9 406,1 812,1 1218,1"/>
    <line class="fil0 str0" x1="2140" y1="5225" x2="2846" y2= "5224" />
    <path class="fil0 str0" d="M2846 5224c88,-4 165,-46 203,-112 18,-30 32,-69 34,-90"/>
    <line class="fil0 str0" x1="3083" y1="5022" x2="3088" y2= "894" />
    <path class="fil0 str0" d="M3088 894c-7,-137 -94,-228 -231,-243"/>
    <polyline class="fil0 str0" points="2857,651 2855,651 2810,650 "/>
    <path class="fil0 str0" d="M2810 650c-527,0 -1054,1 -1581,2 -110,0 -172,20 -221,70 -25,26 -44,60 -57,104 -3,10 -4,25 -5,65"/>
    <polyline class="fil0 str0" points="946,891 949,4973 947,5014 "/>
    <path class="fil0 str0" d="M947 5014c0,1 0,3 0,4 0,63 49,139 111,172 32,17 71,28 116,32"/>
    <line class="fil0 str0" x1="1174" y1="5222" x2="1208" y2= "5226" />
    <path class="fil0 str0" d="M1208 5226c63,12 111,47 169,124"/>
   </g>
  </g>
 </g>
</svg>
