<?xml version="1.0" encoding="UTF-8"?>
<!DOCTYPE svg PUBLIC "-//W3C//DTD SVG 1.1//EN" "http://www.w3.org/Graphics/SVG/1.1/DTD/svg11.dtd">
<!-- Creator: CorelDRAW X8 -->
<svg xmlns="http://www.w3.org/2000/svg" xml:space="preserve" width="40mm" height="60mm" version="1.1" style="shape-rendering:geometricPrecision; text-rendering:geometricPrecision; image-rendering:optimizeQuality; fill-rule:evenodd; clip-rule:evenodd"
viewBox="0 0 4000 6000"
 xmlns:xlink="http://www.w3.org/1999/xlink">
 <defs>
  <style type="text/css">
   <![CDATA[
    .str0 {stroke:black;stroke-width:20}
    .fil0 {fill:none}
   ]]>
  </style>
 </defs>
 <g id="图层_x0020_1">
  <metadata id="CorelCorpID_0Corel-Layer"/>
  <path class="fil0 str0" d="M958 5350l1885 0c160,0 291,-131 291,-292l0 -4116c0,-161 -131,-292 -291,-292l-1686 0c-160,0 -291,131 -291,292l0 4116c0,161 131,292 291,292l75 0m6 -4601l331 0c85,0 155,70 155,155l0 0c0,86 -70,156 -155,156l-331 0c-85,0 -155,-70 -155,-156l0 0c0,-85 70,-155 155,-155zm0 32l331 0c68,0 123,56 123,123l0 0c0,68 -55,123 -123,123l-331 0c-68,0 -123,-55 -123,-123l0 0c0,-67 55,-123 123,-123zm20 74c-1,-6 -6,-12 -16,-12 -38,0 -68,30 -68,68 0,37 30,68 68,68 37,0 68,-31 68,-68 0,-38 -31,-68 -68,-68m339 8c0,-6 -5,-11 -16,-12 -37,0 -68,31 -68,68 0,38 31,68 68,68 38,0 68,-30 68,-68 0,-37 -30,-68 -68,-68m486 891c-1,-16 -16,-32 -47,-35 -110,0 -200,90 -200,200 0,110 90,199 200,199 110,0 199,-89 199,-199 0,-110 -89,-200 -199,-200"/>
 </g>
</svg>
