<?xml version="1.0" encoding="UTF-8"?>
<!DOCTYPE svg PUBLIC "-//W3C//DTD SVG 1.1//EN" "http://www.w3.org/Graphics/SVG/1.1/DTD/svg11.dtd">
<!-- Creator: CorelDRAW -->
<svg xmlns="http://www.w3.org/2000/svg" xml:space="preserve" width="40mm" height="60mm" style="shape-rendering:geometricPrecision; text-rendering:geometricPrecision; image-rendering:optimizeQuality; fill-rule:evenodd; clip-rule:evenodd"
viewBox="0 0 40 60"
 xmlns:xlink="http://www.w3.org/1999/xlink">
 <defs>
  <style type="text/css">
   <![CDATA[
    .str0 {stroke:#1F1A17;stroke-width:0.0762;stroke-linejoin:bevel}
    .fil0 {fill:none}
   ]]>
  </style>
 </defs>
 <g id="图层_x0020_1">
  <metadata id="CorelCorpID_0Corel-Layer"/>
  <path class="fil0 str0" d="M20.6032 7.7474c0,0.2155 -0.115,0.4146 -0.3016,0.5224 -0.1866,0.1077 -0.4166,0.1077 -0.6032,0 -0.1866,-0.1078 -0.3016,-0.3069 -0.3016,-0.5224l0 -0.1704c0,-0.0744 -0.0297,-0.1459 -0.0824,-0.1985 -0.0527,-0.0526 -0.1237,-0.0821 -0.1982,-0.0821l-5.6157 0c-0.1813,0.0001 -0.3515,-0.0877 -0.4568,-0.2352l-0.2327 -0.326c-0.1054,-0.1477 -0.2754,-0.2352 -0.4568,-0.2352l-0.0847 0c-0.6329,0.0004 -1.2398,0.2522 -1.6871,0.7 -0.4473,0.4479 -0.6984,1.0521 -0.6979,1.6851l0 42.2298c0.0003,0.633 0.2522,1.2398 0.7,1.6871 0.4479,0.4473 1.0521,0.6984 1.685,0.698l15.461 0c0.6329,-0.0004 1.2398,-0.2522 1.6871,-0.7001 0.4473,-0.4479 0.6983,-1.052 0.6979,-1.685l0 -42.2298c-0.0004,-0.633 -0.2522,-1.2399 -0.7,-1.6872 -0.4479,-0.4473 -1.0521,-0.6983 -1.685,-0.6979l-0.0847 0c-0.1814,0 -0.3515,0.0875 -0.4568,0.2352l-0.2327 0.326c-0.1053,0.1476 -0.2756,0.2352 -0.4568,0.2352l-5.6157 0c-0.0745,0.0001 -0.1459,0.0297 -0.1985,0.0824 -0.0526,0.0527 -0.0822,0.1238 -0.0821,0.1982l0 0.1704z"/>
 </g>
</svg>
