<?xml version="1.0" encoding="UTF-8"?>
<!DOCTYPE svg PUBLIC "-//W3C//DTD SVG 1.1//EN" "http://www.w3.org/Graphics/SVG/1.1/DTD/svg11.dtd">
<!-- Creator: CorelDRAW X8 -->
<svg xmlns="http://www.w3.org/2000/svg" xml:space="preserve" width="40mm" height="60mm" version="1.1" style="shape-rendering:geometricPrecision; text-rendering:geometricPrecision; image-rendering:optimizeQuality; fill-rule:evenodd; clip-rule:evenodd"
viewBox="0 0 4000 6000"
 xmlns:xlink="http://www.w3.org/1999/xlink">
 <defs>
  <style type="text/css">
   <![CDATA[
    .str0 {stroke:black;stroke-width:7.62}
    .fil0 {fill:none}
   ]]>
  </style>
 </defs>
 <g id="图层_x0020_1">
  <metadata id="CorelCorpID_0Corel-Layer"/>
  <path class="fil0 str0" d="M2046 894c-1,-18 -17,-34 -49,-37 -113,0 -205,92 -205,206 0,114 92,206 205,206 114,0 206,-92 206,-206 0,-114 -92,-206 -206,-206m13 518c0,-5 -4,-9 -13,-10 -30,0 -55,25 -55,56 0,30 25,55 55,55 31,0 56,-25 56,-55 0,-31 -25,-56 -56,-56m47 241c-1,-16 -16,-32 -47,-35 -109,0 -198,89 -198,198 0,110 89,198 198,198 109,0 198,-88 198,-198 0,-109 -89,-198 -198,-198m-955 3732l1769 0c172,0 313,-141 313,-313l0 -4027c0,-172 -141,-313 -313,-313l-1622 0c-172,0 -313,141 -313,313l0 4027c0,172 141,313 313,313l91 0c60,1 106,17 138,47"/>
 </g>
</svg>
