<?xml version="1.0" encoding="UTF-8"?>
<!DOCTYPE svg PUBLIC "-//W3C//DTD SVG 1.1//EN" "http://www.w3.org/Graphics/SVG/1.1/DTD/svg11.dtd">
<!-- Creator: CorelDRAW X8 -->
<svg xmlns="http://www.w3.org/2000/svg" xml:space="preserve" width="40mm" height="60mm" version="1.1" style="shape-rendering:geometricPrecision; text-rendering:geometricPrecision; image-rendering:optimizeQuality; fill-rule:evenodd; clip-rule:evenodd"
viewBox="0 0 4000 6000"
 xmlns:xlink="http://www.w3.org/1999/xlink">
 <defs>
  <style type="text/css">
   <![CDATA[
    .str0 {stroke:black;stroke-width:7.62}
    .fil0 {fill:none}
   ]]>
  </style>
 </defs>
 <g id="图层_x0020_1">
  <metadata id="CorelCorpID_0Corel-Layer"/>
  <path class="fil0 str0" d="M1900 1163c-53,15 -93,34 -93,126l0 76c0,106 87,193 193,193l0 0c106,0 193,-87 193,-193l0 -383c0,-106 -87,-192 -193,-192l0 0c-106,0 -193,86 -193,192l0 307m-168 -128c-16,4 -27,10 -27,37l0 23c0,31 25,57 57,57l0 0c31,0 57,-26 57,-57l0 -84c0,-31 -26,-57 -57,-57l0 0c-32,0 -57,26 -57,57l0 61m430 631c-2,-15 -14,-28 -40,-30 -91,0 -165,75 -165,166 0,92 74,166 165,166 92,0 166,-74 166,-166 0,-91 -74,-166 -166,-166m-963 3535l1812 0c124,0 226,-102 226,-226l0 -4232c0,-124 -102,-226 -226,-226l-1702 0c-124,0 -226,102 -226,226l0 4232c0,124 102,226 226,226l31 0c19,0 36,9 44,16"/>
 </g>
</svg>
