<?xml version="1.0" encoding="UTF-8"?>
<!DOCTYPE svg PUBLIC "-//W3C//DTD SVG 1.1//EN" "http://www.w3.org/Graphics/SVG/1.1/DTD/svg11.dtd">
<!-- Creator: CorelDRAW 2021 (64-Bit 评估版) -->
<svg xmlns="http://www.w3.org/2000/svg" xml:space="preserve" width="40mm" height="60mm" version="1.1" style="shape-rendering:geometricPrecision; text-rendering:geometricPrecision; image-rendering:optimizeQuality; fill-rule:evenodd; clip-rule:evenodd"
viewBox="0 0 4000 6000"
 xmlns:xlink="http://www.w3.org/1999/xlink"
 xmlns:xodm="http://www.corel.com/coreldraw/odm/2003">
 <defs>
  <style type="text/css">
   <![CDATA[
    .str0 {stroke:black;stroke-width:20;stroke-miterlimit:22.9256}
    .fil0 {fill:none}
   ]]>
  </style>
 </defs>
 <g id="图层_x0020_1">
  <metadata id="CorelCorpID_0Corel-Layer"/>
  <g id="_2267799889360">
   <path class="fil0 str0" d="M280.81 5412.35c45.31,0 2605.74,1.1 3256.52,0.91 45.35,-0.02 82.47,-33.29 82.47,-73.97l0 -4447.34c0,-40.68 -37.11,-73.96 -82.47,-73.96l-3140.82 0c-45.36,0 -82.47,33.28 -82.47,73.96l0 4447.34c0,40.68 37.13,72.96 82.47,73.97 95.3,2.1 266.81,40.61 287.79,104.72"/>
   <path class="fil0 str0" d="M2017.56 902.87c0,-26.64 -24.07,-48.23 -53.77,-48.23 -29.7,0 -53.77,21.59 -53.77,48.23 0,26.64 24.07,48.23 53.77,48.23 29.7,0 53.77,-21.59 53.77,-48.23 0,-26.64 -76.27,-28.17 -71.39,29.79"/>
  </g>
 </g>
</svg>
