<?xml version="1.0" encoding="UTF-8"?>
<!DOCTYPE svg PUBLIC "-//W3C//DTD SVG 1.1//EN" "http://www.w3.org/Graphics/SVG/1.1/DTD/svg11.dtd">
<!-- Creator: CorelDRAW X8 -->
<svg xmlns="http://www.w3.org/2000/svg" xml:space="preserve" width="40mm" height="60mm" version="1.1" style="shape-rendering:geometricPrecision; text-rendering:geometricPrecision; image-rendering:optimizeQuality; fill-rule:evenodd; clip-rule:evenodd"
viewBox="0 0 4000 6000"
 xmlns:xlink="http://www.w3.org/1999/xlink">
 <defs>
  <style type="text/css">
   <![CDATA[
    .str0 {stroke:black;stroke-width:7.62}
    .fil0 {fill:none}
   ]]>
  </style>
 </defs>
 <g id="图层_x0020_1">
  <metadata id="CorelCorpID_0Corel-Layer"/>
  <path class="fil0 str0" d="M1088 650l1824 0c99,0 180,76 180,168l0 4364c0,92 -81,168 -180,168l-1824 0c-99,0 -180,-76 -180,-168l0 -4364c0,-92 81,-168 180,-168zm209 91l163 0c130,0 237,102 237,227l0 729c0,125 -107,227 -237,227l-163 0c-130,0 -237,-102 -237,-227l0 -729c0,-125 107,-227 237,-227z"/>
 </g>
</svg>
