<?xml version="1.0" encoding="UTF-8"?>
<!DOCTYPE svg PUBLIC "-//W3C//DTD SVG 1.1//EN" "http://www.w3.org/Graphics/SVG/1.1/DTD/svg11.dtd">
<!-- Creator: CorelDRAW -->
<svg xmlns="http://www.w3.org/2000/svg" xml:space="preserve" width="40mm" height="60mm" style="shape-rendering:geometricPrecision; text-rendering:geometricPrecision; image-rendering:optimizeQuality; fill-rule:evenodd; clip-rule:evenodd"
viewBox="0 0 40 60"
 xmlns:xlink="http://www.w3.org/1999/xlink">
 <defs>
  <style type="text/css">
   <![CDATA[
    .str0 {stroke:#1F1A17;stroke-width:0.194}
    .fil0 {fill:none;fill-rule:nonzero}
   ]]>
  </style>
 </defs>
 <g id="图层_x0020_5">
  <metadata id="CorelCorpID_0Corel-Layer"/>
  <path class="fil0 str0" d="M9.3047 42.7356c-0.0228,5.8064 0.0119,7.925 0.1345,8.2742 0.3274,0.8565 0.4814,1.0919 0.9249,1.416 0.3979,0.2917 0.4293,0.3015 1.2978,0.4413l16.9743 -0.013m-19.2003 -42.8895l-0.1312 32.771m0.1692 -35.0914c-0.0293,0.0575 -0.0293,0.0575 -0.038,2.3204m0.0521 -2.3562l-0.0141 0.0358m1.7001 -1.7153c-0.8262,0.2158 -1.4085,0.7969 -1.686,1.6795m1.686 -1.6795l0.0868 -0.0228 0.2363 -0.026 6.0898 -0.013c0.083,0.0301 0.1693,0.1174 0.2023,0.1474l4.3641 0 0.0771 0 0.1766 -0.1388 6.0102 0.0077m2.3779 23.4875c0.0205,-4.4509 0.0292,-8.9019 0.0249,-13.3529 -0.0044,-5.8561 -0.038,-8.0019 -0.1302,-8.3077 -0.3566,-1.1786 -1.1612,-1.8248 -2.2726,-1.8269m2.29 42.8905l0.0879 -19.403m-0.1291 21.7159c0.0303,-0.0608 0.0303,-0.0608 0.0412,-2.3129m-0.0553 2.3508l0.0141 -0.0379m-2.0298 1.7673c0.8935,-0.0292 1.7023,-0.7232 2.0157,-1.7294"/>
 </g>
</svg>
