<?xml version="1.0" encoding="UTF-8"?>
<!DOCTYPE svg PUBLIC "-//W3C//DTD SVG 1.1//EN" "http://www.w3.org/Graphics/SVG/1.1/DTD/svg11.dtd">
<!-- Creator: CorelDRAW X8 -->
<svg xmlns="http://www.w3.org/2000/svg" xml:space="preserve" width="40mm" height="60mm" version="1.1" style="shape-rendering:geometricPrecision; text-rendering:geometricPrecision; image-rendering:optimizeQuality; fill-rule:evenodd; clip-rule:evenodd"
viewBox="0 0 4000 6000"
 xmlns:xlink="http://www.w3.org/1999/xlink">
 <defs>
  <style type="text/css">
   <![CDATA[
    .str0 {stroke:black;stroke-width:7.62}
    .fil0 {fill:none}
   ]]>
  </style>
 </defs>
 <g id="图层_x0020_1">
  <metadata id="CorelCorpID_0Corel-Layer"/>
  <path class="fil0 str0" d="M1190 777c-1,-5 -6,-11 -16,-12 -38,0 -68,31 -68,68 0,38 30,68 68,68 37,0 67,-30 67,-68 0,-37 -30,-68 -67,-68m-264 4585l1947 0c113,0 208,-87 219,-197l144 0c9,0 15,-7 15,-15l0 -2487c0,-21 -3,-23 -24,-23l-35 0c-14,0 -26,-12 -26,-26l0 -327c0,-15 12,-26 26,-26l42 0c14,0 17,-5 17,-20l0 -1355c0,-8 -6,-15 -15,-15l-143 0c-6,-116 -102,-209 -220,-209l-598 0c-3,0 -5,1 -7,3l-5 6c-2,2 -3,2 -6,2l-473 0c-3,0 -4,0 -6,-2l-6 -6c-3,-3 -4,-3 -7,-3l-621 0c-118,0 -214,93 -220,209l-128 0c-9,0 -15,7 -15,15l0 140c0,10 3,14 10,14l29 0c14,0 24,11 24,24l0 499c0,13 -10,24 -24,24l-33 0c-4,0 -6,2 -6,7l0 473c0,8 1,9 8,9l56 0c13,0 24,11 24,24l0 704c0,13 -11,24 -24,24l-52 0c-8,0 -12,4 -12,14l0 2308c0,8 6,15 15,15l129 0c11,110 105,197 219,197l77 0"/>
 </g>
</svg>
