<?xml version="1.0" encoding="UTF-8"?>
<!DOCTYPE svg PUBLIC "-//W3C//DTD SVG 1.1//EN" "http://www.w3.org/Graphics/SVG/1.1/DTD/svg11.dtd">
<!-- Creator: CorelDRAW X8 -->
<svg xmlns="http://www.w3.org/2000/svg" xml:space="preserve" width="40mm" height="60mm" version="1.1" style="shape-rendering:geometricPrecision; text-rendering:geometricPrecision; image-rendering:optimizeQuality; fill-rule:evenodd; clip-rule:evenodd"
viewBox="0 0 4000 6000"
 xmlns:xlink="http://www.w3.org/1999/xlink">
 <defs>
  <style type="text/css">
   <![CDATA[
    .str0 {stroke:#332C2B;stroke-width:7.62}
    .fil0 {fill:none}
   ]]>
  </style>
 </defs>
 <g id="图层_x0020_1">
  <metadata id="CorelCorpID_0Corel-Layer"/>
  <path class="fil0 str0" d="M933 5350l1896 0c160,0 291,-131 291,-291l0 -4118c0,-160 -131,-291 -291,-291l-175 0c-7,0 -10,4 -11,7l0 133c0,54 -44,99 -98,99l-1078 0c-54,0 -99,-45 -99,-99 0,-42 0,-83 0,-125 0,-12 -6,-15 -11,-15l-186 0c-160,0 -291,131 -291,291l0 4118c0,160 131,291 291,291l263 0"/>
 </g>
</svg>
