<?xml version="1.0" encoding="UTF-8"?>
<!DOCTYPE svg PUBLIC "-//W3C//DTD SVG 1.1//EN" "http://www.w3.org/Graphics/SVG/1.1/DTD/svg11.dtd">
<!-- Creator: CorelDRAW X8 -->
<svg xmlns="http://www.w3.org/2000/svg" xml:space="preserve" width="40mm" height="60mm" version="1.1" style="shape-rendering:geometricPrecision; text-rendering:geometricPrecision; image-rendering:optimizeQuality; fill-rule:evenodd; clip-rule:evenodd"
viewBox="0 0 4000 6000"
 xmlns:xlink="http://www.w3.org/1999/xlink">
 <defs>
  <style type="text/css">
   <![CDATA[
    .fil0 {fill:black;fill-rule:nonzero}
   ]]>
  </style>
 </defs>
 <g id="图层_x0020_1">
  <metadata id="CorelCorpID_0Corel-Layer"/>
  <g>
   <path class="fil0" d="M966 773l20 0 0 0 0 9 0 9 -1 9 0 8 -1 8 0 8 -1 7 0 7 -1 7 -1 7 -1 6 -1 6 -1 6 -1 5 -1 5 -1 5 -1 5 -1 4 -2 4 -1 4 -2 4 -1 3 -2 4 -2 3 -2 2 -2 3 -3 2 -3 2 -3 2 -3 1 -3 0 -4 0 1 -20 1 0 0 0 1 0 0 0 1 -1 1 0 1 -1 1 -2 1 -2 1 -2 1 -2 1 -3 2 -3 1 -4 1 -3 1 -5 1 -4 1 -5 1 -5 1 -5 0 -6 1 -6 1 -6 1 -7 0 -7 1 -7 0 -7 1 -8 0 -8 1 -9 0 -8 0 -9 0 0zm20 0l0 0 0 0 0 0zm101 -132l0 20 0 0 -9 0 -8 0 -8 1 -7 0 -6 1 -7 2 -5 1 -5 2 -5 2 -5 2 -4 2 -3 2 -4 3 -3 3 -3 3 -2 3 -2 3 -3 4 -1 4 -2 4 -2 4 -1 5 -1 5 -1 5 -1 6 -1 5 -1 6 0 7 0 6 -1 7 0 7 0 7 -20 0 0 -8 0 -7 1 -7 0 -7 1 -6 0 -7 1 -6 1 -6 1 -6 2 -6 1 -6 2 -5 2 -5 3 -6 3 -4 3 -5 3 -4 4 -4 4 -4 5 -4 5 -3 5 -3 6 -3 6 -2 6 -2 7 -2 7 -1 8 -1 7 -1 9 -1 9 0 9 0 0 0zm1960 -1l0 20 0 0 -69 0 -70 0 -69 0 -70 0 -69 0 -69 0 -70 0 -68 0 -69 0 -68 1 -68 0 -67 0 -67 0 -66 0 -65 0 -64 0 -64 0 -63 0 -61 0 -61 0 -60 0 -58 0 -57 0 -56 0 -54 0 -54 0 -51 0 -50 0 -49 0 -46 0 -45 0 -43 0 0 -20 43 0 45 0 47 0 48 0 50 0 51 0 54 0 54 0 56 0 57 0 58 0 60 0 61 0 61 0 63 0 64 0 64 0 65 0 66 0 67 0 67 0 68 0 68 -1 68 0 69 0 70 0 69 0 69 0 70 0 69 0 70 0 69 0 0 0zm40 41l-20 0 0 0 0 -2 0 -2 0 -2 0 -1 0 -2 -1 -1 0 -1 0 -1 0 -1 0 -1 -1 -1 0 -1 0 0 -1 -1 0 0 0 0 0 -1 -1 0 0 0 -1 -1 0 0 -1 0 -1 0 -1 -1 -1 0 -1 0 -1 0 -2 -1 -1 0 -2 0 -2 0 -2 0 0 -20 3 0 2 0 2 0 3 0 2 1 2 0 2 0 2 1 2 1 2 0 2 1 1 1 2 1 2 1 1 2 2 1 1 2 1 1 1 2 1 2 1 2 1 1 0 2 1 2 0 2 0 2 1 2 0 2 0 2 0 2 0 3 0 2 0 0zm-17 2464l-20 0 0 0 1 -59 0 -63 1 -66 1 -68 0 -71 1 -73 1 -76 0 -77 1 -79 1 -81 0 -82 1 -83 1 -85 0 -85 1 -85 0 -86 1 -85 0 -86 1 -86 1 -84 0 -85 0 -83 1 -82 0 -81 1 -79 0 -78 0 -75 1 -73 0 -71 0 -69 1 -66 0 -62 20 0 0 63 -1 65 0 69 0 71 -1 73 0 76 0 77 -1 79 0 81 -1 82 0 83 0 85 -1 85 -1 85 0 86 -1 86 0 85 -1 86 0 85 -1 84 -1 83 0 82 -1 81 -1 79 0 77 -1 76 -1 73 0 71 -1 69 -1 65 0 63 -1 59 0 0zm-41 2180l-20 0 0 0 2 -67 1 -68 1 -70 1 -70 2 -71 1 -72 2 -72 1 -73 1 -73 2 -74 1 -73 2 -74 1 -74 2 -74 1 -73 2 -73 1 -73 2 -72 1 -71 1 -70 2 -70 1 -68 1 -68 1 -66 2 -65 1 -63 1 -62 1 -60 1 -58 0 -56 1 -55 1 -52 20 0 -1 53 -1 54 0 56 -1 58 -1 61 -1 61 -1 64 -2 64 -1 66 -1 68 -1 68 -2 70 -1 70 -1 72 -2 72 -1 72 -2 73 -1 74 -2 73 -1 74 -2 74 -1 74 -2 73 -1 74 -1 72 -2 73 -1 72 -2 71 -1 70 -1 69 -1 68 -2 67 0 0zm-40 35l1 -20 0 0 1 0 2 0 2 0 1 0 2 0 1 0 1 0 1 -1 1 0 1 0 1 0 1 0 0 -1 1 0 0 0 0 0 0 0 1 0 0 -1 0 0 0 0 1 -1 0 0 0 -1 0 -1 1 -1 0 -1 0 -1 0 -1 0 -2 0 -2 0 -1 20 0 0 2 0 3 0 2 0 2 -1 2 0 2 0 2 -1 2 -1 2 -1 1 -1 2 -1 2 -1 1 -1 2 -2 1 -1 1 -2 1 -1 1 -2 1 -2 1 -1 0 -2 1 -2 0 -2 0 -1 0 -2 1 -2 0 -2 0 -2 0 -2 0 -2 0 -2 0 0 0zm-1895 -30l1 -20 0 0 44 1 47 1 50 1 51 0 55 1 56 1 58 1 59 1 62 1 62 2 64 1 64 1 66 1 66 1 66 1 67 1 67 2 66 1 67 1 66 1 65 1 65 1 63 1 62 1 62 1 59 0 58 1 56 1 54 1 52 0 49 1 47 0 -1 20 -46 0 -50 -1 -51 0 -54 -1 -56 -1 -58 -1 -60 0 -61 -1 -62 -1 -64 -1 -64 -1 -66 -1 -66 -1 -66 -1 -67 -1 -67 -2 -66 -1 -67 -1 -66 -1 -65 -1 -65 -1 -63 -1 -63 -2 -61 -1 -60 -1 -58 -1 -56 -1 -54 -1 -52 0 -49 -1 -47 -1 -45 -1 0 0zm-176 -130l20 0 0 0 1 8 0 7 1 7 2 7 1 6 2 6 2 6 2 5 3 5 3 5 3 4 4 4 4 4 4 4 4 4 5 3 5 3 5 3 5 2 6 3 6 2 7 2 7 2 7 2 7 1 8 1 8 1 9 1 8 1 9 1 9 0 10 0 -1 20 -9 0 -10 0 -9 -1 -9 -1 -9 -1 -9 -1 -8 -1 -8 -2 -8 -2 -8 -2 -7 -2 -7 -3 -7 -2 -6 -3 -6 -4 -6 -4 -6 -4 -5 -4 -5 -4 -5 -5 -5 -6 -4 -5 -3 -6 -3 -6 -3 -7 -3 -6 -2 -8 -2 -7 -1 -8 -2 -8 0 -8 -1 -9 0 0zm15 -2087l20 0 0 0 -1 50 -1 53 0 54 -1 56 -1 58 -1 60 -1 61 -1 62 -1 64 -1 65 -2 67 -1 67 -1 68 -1 69 -1 69 -1 70 -1 71 0 70 -1 71 -1 71 0 71 -1 70 0 71 0 70 0 69 0 68 1 68 0 67 1 66 1 65 1 64 1 62 -20 0 -1 -62 -1 -64 -1 -64 -1 -67 0 -67 -1 -67 0 -69 0 -70 0 -69 0 -71 1 -70 0 -71 1 -71 1 -71 0 -71 1 -70 1 -70 1 -69 1 -69 1 -68 1 -68 2 -66 1 -65 1 -64 1 -63 1 -61 1 -59 1 -58 1 -56 0 -55 1 -52 1 -50 0 0zm33 -2340l20 0 0 0 0 61 -1 63 0 66 -1 69 -1 70 0 73 -1 74 -1 75 -2 77 -1 78 -1 79 -1 80 -1 81 -2 81 -1 81 -1 81 -2 81 -1 81 -2 80 -1 79 -1 79 -2 77 -1 76 -1 75 -1 73 -1 72 -1 69 -1 67 -1 65 -1 62 -1 59 0 56 -20 0 0 -56 1 -60 1 -62 1 -64 1 -67 1 -70 1 -71 1 -73 1 -75 1 -76 2 -78 1 -78 1 -80 2 -80 1 -81 2 -81 1 -81 1 -81 2 -81 1 -80 1 -80 1 -79 1 -78 2 -77 1 -76 1 -74 0 -72 1 -70 1 -69 0 -66 1 -63 0 -61 0 0zm20 0l0 0 0 0 0 0zm-38 -105l9 -18 2 1 3 2 2 2 1 2 2 2 2 2 1 2 2 3 1 3 1 2 1 3 1 4 1 3 1 3 1 4 1 3 1 4 0 4 1 5 1 4 0 4 1 5 0 5 1 5 0 5 0 5 1 6 0 6 0 5 0 6 0 7 0 6 -20 0 0 -6 0 -6 0 -6 0 -6 0 -5 -1 -6 0 -5 0 -5 -1 -4 0 -5 -1 -4 0 -5 -1 -4 0 -3 -1 -4 -1 -3 0 -4 -1 -3 -1 -3 -1 -2 0 -3 -1 -2 -1 -2 -1 -2 -1 -2 -1 -1 -1 -1 -1 -1 0 -1 -1 -1 -1 0 0 0z"/>
  </g>
 </g>
</svg>
