<?xml version="1.0" encoding="UTF-8"?>
<!DOCTYPE svg PUBLIC "-//W3C//DTD SVG 1.1//EN" "http://www.w3.org/Graphics/SVG/1.1/DTD/svg11.dtd">
<!-- Creator: CorelDRAW 2020 (64-Bit) -->
<svg xmlns="http://www.w3.org/2000/svg" xml:space="preserve" width="40mm" height="60mm" version="1.1" style="shape-rendering:geometricPrecision; text-rendering:geometricPrecision; image-rendering:optimizeQuality; fill-rule:evenodd; clip-rule:evenodd"
viewBox="0 0 4000 6000"
 xmlns:xlink="http://www.w3.org/1999/xlink"
 xmlns:xodm="http://www.corel.com/coreldraw/odm/2003">
 <defs>
  <style type="text/css">
   <![CDATA[
    .str0 {stroke:black;stroke-width:20;stroke-miterlimit:22.9256}
    .fil0 {fill:none}
   ]]>
  </style>
 </defs>
 <g id="图层_x0020_1">
  <metadata id="CorelCorpID_0Corel-Layer"/>
  <path class="fil0 str0" d="M2024.69 747.91c3.99,-25.66 -17.58,-43.64 -28.29,-44.47 -38.09,0 -68.96,30.87 -68.96,68.96 0,38.09 30.87,68.96 68.96,68.96 38.09,0 68.96,-30.87 68.96,-68.96 0,-38.09 -30.87,-68.96 -68.96,-68.96m-1048.17 4584.55l1921.07 0c103.67,0 188.48,-84.82 188.48,-188.48l0 -19.9c0,-4.95 4.04,-9 9,-9l107.94 0c9.89,0 17.99,-8.09 17.99,-17.98l0 -2163.29c0,-8.25 -6.74,-14.99 -15,-14.99l-48.12 0c-8.25,0 -15,-6.74 -15,-14.99l0 -285.11c0,-8.24 6.75,-14.99 15,-14.99l48.12 0c8.26,0 15,-6.73 15,-14.99l0 -159.66c0,-8.26 -6.74,-15 -15,-15l-48.12 0c-8.25,0 -15,-6.74 -15,-14.98l0 -587.67c0,-8.24 6.75,-14.99 15,-14.99l48.12 0c8.26,0 15,-6.73 15,-14.99l0 -845.95c0,-9.89 -8.1,-17.99 -17.99,-17.99l-107.94 0c-4.96,0 -9,-4.04 -9,-8.99l0 -19.9c0,-103.67 -84.81,-188.48 -188.48,-188.48l-1751.8 0c-103.67,0 -188.48,84.81 -188.48,188.48l0 19.9c0,4.95 -4.04,8.99 -9,8.99l-107.94 0c-9.89,0 -17.99,8.1 -17.99,17.99l0 4161.6c0,9.89 8.1,17.98 17.99,17.98l107.94 0c4.96,0 9,4.05 9,9l0 19.9c0,103.66 84.81,188.48 188.48,188.48l29.06 0c110.97,0 171.79,32.89 194.35,67.68"/>
 </g>
</svg>
