<?xml version="1.0" encoding="UTF-8"?>
<!DOCTYPE svg PUBLIC "-//W3C//DTD SVG 1.1//EN" "http://www.w3.org/Graphics/SVG/1.1/DTD/svg11.dtd">
<!-- Creator: CorelDRAW 2020 (64-Bit) -->
<svg xmlns="http://www.w3.org/2000/svg" xml:space="preserve" width="40mm" height="60mm" version="1.1" style="shape-rendering:geometricPrecision; text-rendering:geometricPrecision; image-rendering:optimizeQuality; fill-rule:evenodd; clip-rule:evenodd"
viewBox="0 0 4000 6000"
 xmlns:xlink="http://www.w3.org/1999/xlink"
 xmlns:xodm="http://www.corel.com/coreldraw/odm/2003">
 <defs>
  <style type="text/css">
   <![CDATA[
    .str0 {stroke:black;stroke-width:7.62;stroke-miterlimit:22.9256}
    .fil0 {fill:none}
   ]]>
  </style>
 </defs>
 <g id="图层_x0020_1">
  <metadata id="CorelCorpID_0Corel-Layer"/>
  <path class="fil0 str0" d="M1276.67 792.48c-13.23,16.18 -32.08,22.12 -101.07,29 -46.14,4.66 -76.85,14.08 -81.78,78.45 0.33,375.08 -4.75,753.01 -5.7,1129.1 -1.42,559.07 -3.53,1185.65 0.81,1798.17 3.17,446.57 2.37,884.43 7.32,1287.29 -0.47,71.19 30.12,83.85 117.58,91.61 632.31,56.05 906.78,92.66 1563.27,148.9 41.53,5.21 68.03,-20.85 73.25,-53.26 5.22,-32.41 23.65,-203.92 32.3,-294.05 18.72,-188.9 28.1,-399.04 26.04,-597.13 -5.86,-565.16 1.94,-1089.31 0.02,-1656.03 -0.77,-228.92 1.63,-518.47 -0.21,-805.7 -1.19,-186.56 1.33,-374.25 -0.03,-552.07 -0.47,-62.7 -1.63,-131.29 -7.8,-198.55 -15.75,-171.94 -31.83,-321.28 -47.27,-454.51 -10.26,-79.72 -40.75,-92.23 -96.45,-86.99 -647.72,68.8 -923.69,99.35 -1581.35,164.77 -38.11,4.32 -70.78,-0.87 -98.02,-13.36"/>
 </g>
</svg>
