<?xml version="1.0" encoding="UTF-8"?>
<!DOCTYPE svg PUBLIC "-//W3C//DTD SVG 1.1//EN" "http://www.w3.org/Graphics/SVG/1.1/DTD/svg11.dtd">
<!-- Creator: CorelDRAW 2020 (64-Bit) -->
<svg xmlns="http://www.w3.org/2000/svg" xml:space="preserve" width="40mm" height="60mm" version="1.1" style="shape-rendering:geometricPrecision; text-rendering:geometricPrecision; image-rendering:optimizeQuality; fill-rule:evenodd; clip-rule:evenodd"
viewBox="0 0 4000 6000"
 xmlns:xlink="http://www.w3.org/1999/xlink"
 xmlns:xodm="http://www.corel.com/coreldraw/odm/2003">
 <defs>
  <style type="text/css">
   <![CDATA[
    .str1 {stroke:#332C2B;stroke-width:20;stroke-miterlimit:22.9256}
    .str0 {stroke:#E72D28;stroke-width:20;stroke-miterlimit:22.9256}
    .str2 {stroke:#222222;stroke-width:20;stroke-miterlimit:22.9256}
    .fil0 {fill:none}
   ]]>
  </style>
   <clipPath id="id0">
    <rect x="-53419.93" y="-4784.22" width="16403.1" height="16403.1"/>
   </clipPath>
 </defs>
 <g id="图层_x0020_1">
  <metadata id="CorelCorpID_0Corel-Layer"/>
  <g style="clip-path:url(#id0)">
   <image x="-53419.93" y="-4784.22" width="16403.1" height="16403.1" xlink:href="RX7-11i（前膜全屏）_Images\RX7-11i（前膜全屏）_ImgID1.png"/>
  </g>
  <rect class="fil0 str0" x="-53052.31" y="-4615.91" width="7580" height="16060"/>
  <path class="fil0 str0" d="M-51989.46 -4307.23l1726.08 0c249.5,0 461.56,102.19 564.72,291.46 103.64,190.14 215.09,372.93 427.49,372.93 212.4,0 331.52,-182.58 460.82,-380.35 85.96,-131.48 255.44,-284.04 495.01,-284.04l1780.19 0c412.49,0 750,337.53 750,750l0 13928.21c0,412.5 -337.51,749.99 -750,749.99l-5454.31 0c-412.49,0 -749.99,-337.49 -749.99,-749.99l0 -13928.21c0,-412.5 337.5,-750 749.99,-750z"/>
  <rect class="fil0 str0" x="-45061.89" y="-4615.91" width="7580" height="16060"/>
  <rect class="fil0 str0" x="-44871.18" y="-4275.62" width="7198.58" height="15326.01" rx="750" ry="699.77"/>
  <rect class="fil0 str1" x="-44361.85" y="-4152.07" width="1239.14" height="2439.68" rx="800" ry="808.19"/>
  <path class="fil0 str1" d="M-43057.12 -4002.78c-63.06,0 -114.19,51.13 -114.19,114.19 0,63.06 51.13,114.19 114.19,114.19 63.06,0 114.19,-51.13 114.19,-114.19 0,-63.06 -51.13,-114.19 -114.19,-114.19 -63.06,0 -83.52,81.83 -83.52,89.76"/>
  <path class="fil0 str1" d="M-43745.32 -1566.03c-167.32,0 -302.95,135.63 -302.95,302.95 0,167.32 135.63,302.95 302.95,302.95 167.32,0 302.95,-135.63 302.95,-302.95 0,-167.32 -135.63,-302.95 -302.95,-302.95 -167.32,0 -239.45,173.31 -239.45,269.88"/>
  <path class="fil0 str1" d="M-41368.73 -1209.85c-275,0 -500,225 -500,500l0 436.69c0,275 225,500 500,500l225.03 0c275,0 500,-225 500,-500l0 -436.69c0,-275 -225,-500 -500,-500l-225.03 0c0,0 -391.5,42.3 -391.5,367.74"/>
  <path class="fil0 str2" d="M-2835.13 6546.96l0 -6073.44c0,-412.48 -337.5,-750 -749.99,-750l-13928.21 0c-412.47,0 -750,337.51 -750,750l0 1780.19c0,239.57 152.56,409.05 284.04,495.01 197.77,129.3 380.35,248.42 380.35,460.82 0,212.4 -182.79,323.85 -372.93,427.49 -189.27,103.16 -291.46,315.22 -291.46,564.72l0 1726.08c0,412.49 337.5,749.99 750,749.99l13928.21 0c412.5,0 749.99,-337.5 749.99,-749.99 0,-412.49 159.87,-1052.75 513.33,-1147.46"/>
  <path class="fil0 str2" d="M1006.82 5204.33l1790.62 0c121.61,0 221.12,-99.51 221.12,-221.12l0 -4106.42c0,-121.61 -99.51,-221.12 -221.12,-221.12l-524.85 0c-70.63,0 -120.6,44.98 -145.94,83.74 -38.12,58.31 -73.24,112.14 -135.87,112.14 -62.62,0 -95.48,-53.89 -126.03,-109.95 -30.42,-55.8 -92.94,-85.93 -166.5,-85.93l-508.89 0c-121.62,0 -221.12,99.51 -221.12,221.12l0 4106.42c0,121.62 99.5,221.12 221.12,221.12 121.61,0 310.38,47.13 338.3,151.34"/>
 </g>
</svg>
