<?xml version="1.0" encoding="UTF-8"?>
<!DOCTYPE svg PUBLIC "-//W3C//DTD SVG 1.1//EN" "http://www.w3.org/Graphics/SVG/1.1/DTD/svg11.dtd">
<!-- Creator: CorelDRAW X8 -->
<svg xmlns="http://www.w3.org/2000/svg" xml:space="preserve" width="40mm" height="60mm" version="1.1" style="shape-rendering:geometricPrecision; text-rendering:geometricPrecision; image-rendering:optimizeQuality; fill-rule:evenodd; clip-rule:evenodd"
viewBox="0 0 4000 6000"
 xmlns:xlink="http://www.w3.org/1999/xlink">
 <defs>
  <style type="text/css">
   <![CDATA[
    .str0 {stroke:#332C2B;stroke-width:20}
    .fil0 {fill:none}
   ]]>
  </style>
 </defs>
 <g id="图层_x0020_1">
  <metadata id="CorelCorpID_0Corel-Layer"/>
  <path class="fil0 str0" d="M-46757 16780l26372 0 0 -32299c0,-1980 -1619,-3601 -3599,-3601l-19855 0c-1485,0 -2698,1215 -2698,2700l2 4999 11400 0c412,0 750,336 750,748l0 25303c0,412 -338,749 -750,749l-11400 0 -4 1636"/>
  <path class="fil0 str0" d="M285 5319l3430 0 0 -4201c0,-257 -210,-468 -468,-468l-2583 0c-193,0 -350,158 -350,351l0 650 1483 0c53,0 97,44 97,98l0 3291c0,53 -44,97 -97,97l-1483 0 -1 213"/>
 </g>
</svg>
