<?xml version="1.0" encoding="UTF-8"?>
<!DOCTYPE svg PUBLIC "-//W3C//DTD SVG 1.1//EN" "http://www.w3.org/Graphics/SVG/1.1/DTD/svg11.dtd">
<!-- Creator: CorelDRAW 2020 (64-Bit) -->
<svg xmlns="http://www.w3.org/2000/svg" xml:space="preserve" width="40mm" height="60mm" version="1.1" style="shape-rendering:geometricPrecision; text-rendering:geometricPrecision; image-rendering:optimizeQuality; fill-rule:evenodd; clip-rule:evenodd"
viewBox="0 0 4000 6000"
 xmlns:xlink="http://www.w3.org/1999/xlink"
 xmlns:xodm="http://www.corel.com/coreldraw/odm/2003">
 <defs>
  <style type="text/css">
   <![CDATA[
    .str0 {stroke:black;stroke-width:7.62;stroke-miterlimit:22.9256}
    .fil0 {fill:none}
   ]]>
  </style>
 </defs>
 <g id="图层_x0020_1">
  <metadata id="CorelCorpID_0Corel-Layer"/>
  <path class="fil0 str0" d="M1881.72 4991.09c0,-6.65 0,-234.61 0,-234.64 -0.16,-330.56 -268.24,-598.47 -598.84,-598.47 -330.73,0 -598.85,268.12 -598.85,598.85 0,330.73 268.12,598.84 598.85,598.84 330.73,0 598.84,-268.11 598.84,-598.84 0,-0.07 0,-0.13 0,-0.19m0 -1527.55c0,-6.65 0,-234.62 0,-234.64 -0.16,-330.56 -268.24,-598.47 -598.84,-598.47 -330.73,0 -598.85,268.11 -598.85,598.84 0,330.74 268.12,598.85 598.85,598.85 330.73,0 598.84,-268.11 598.84,-598.85 0,-0.06 0,-0.12 0,-0.19m0 -1505.85c0,-6.65 0,-234.61 0,-234.64 -0.16,-330.56 -268.24,-598.47 -598.84,-598.47 -330.73,0 -598.85,268.11 -598.85,598.85 0,330.73 268.12,598.84 598.85,598.84 330.73,0 598.84,-268.11 598.84,-598.84 0,-0.07 0,-0.13 0,-0.19m1421.05 3736.76c0,-6.65 0,-234.61 0,-234.64 -0.17,-330.56 -268.24,-598.47 -598.85,-598.47 -330.73,0 -598.84,268.12 -598.84,598.85 0,330.73 268.11,598.84 598.84,598.84 330.73,0 598.85,-268.11 598.85,-598.84 0,-0.07 0,-0.13 0,-0.19m0 -1527.55c0,-6.65 0,-234.62 0,-234.64 -0.17,-330.56 -268.24,-598.47 -598.85,-598.47 -330.73,0 -598.84,268.11 -598.84,598.84 0,330.74 268.11,598.85 598.84,598.85 330.73,0 598.85,-268.11 598.85,-598.85 0,-0.06 0,-0.12 0,-0.19m0 -1505.85c0,-6.65 0,-234.61 0,-234.64 -0.17,-330.56 -268.24,-598.47 -598.85,-598.47 -330.73,0 -598.84,268.11 -598.84,598.85 0,330.73 268.11,598.84 598.84,598.84 330.73,0 598.85,-268.11 598.85,-598.84 0,-0.07 0,-0.13 0,-0.19"/>
 </g>
</svg>
