<?xml version="1.0" encoding="UTF-8"?>
<!DOCTYPE svg PUBLIC "-//W3C//DTD SVG 1.1//EN" "http://www.w3.org/Graphics/SVG/1.1/DTD/svg11.dtd">
<!-- Creator: CorelDRAW 2021 (64-Bit) -->
<svg xmlns="http://www.w3.org/2000/svg" xml:space="preserve" width="40mm" height="60mm" version="1.1" style="shape-rendering:geometricPrecision; text-rendering:geometricPrecision; image-rendering:optimizeQuality; fill-rule:evenodd; clip-rule:evenodd"
viewBox="0 0 4000 6000"
 xmlns:xlink="http://www.w3.org/1999/xlink"
 xmlns:xodm="http://www.corel.com/coreldraw/odm/2003">
 <defs>
  <style type="text/css">
   <![CDATA[
    .str0 {stroke:#332C2B;stroke-width:7.62;stroke-linecap:round;stroke-linejoin:round;stroke-miterlimit:22.9256}
    .fil0 {fill:none}
   ]]>
  </style>
 </defs>
 <g id="图层_x0020_1">
  <metadata id="CorelCorpID_0Corel-Layer"/>
  <path class="fil0 str0" d="M876.31 5257.47l2024.24 0c115.46,0 209.94,-94.47 209.94,-209.94l0 -4181.91c0,-115.48 -94.48,-209.95 -209.94,-209.95l-1809.82 0c-115.47,0 -209.95,94.47 -209.95,209.95l0 4181.91c0,115.47 94.48,209.94 209.95,209.94 115.47,0 219.7,37.87 219.7,98.2m600.93 -4480c0,-29.72 -96.36,-41.94 -96.36,-41.94l360.4 0c16.78,0 30.51,13.73 30.51,30.51l0 0c0,16.78 -13.73,30.51 -30.51,30.51l-360.4 0c-16.79,0 -30.52,-13.73 -30.52,-30.51l0 0c0,-16.78 13.73,-30.51 30.52,-30.51m979.14 45.13c0,-30.23 -53.93,-58.42 -53.93,-58.42l74.99 0c23.09,0 41.98,18.89 41.98,41.98l0 0c0,23.09 -18.89,41.98 -41.98,41.98l-74.99 0c-23.09,0 -41.98,-18.89 -41.98,-41.98l0 0c0,-23.09 18.89,-41.98 41.98,-41.98m-1155.08 60.39c-40.26,-10.78 -27.27,-80.93 7.07,-80.93 34.34,0 62.18,27.83 62.18,62.17 0,34.34 -27.84,62.18 -62.18,62.18 -34.34,0 -62.17,-27.84 -62.17,-62.18 0,-34.34 27.83,-62.17 62.17,-62.17"/>
 </g>
</svg>
