<?xml version="1.0" encoding="UTF-8"?>
<!DOCTYPE svg PUBLIC "-//W3C//DTD SVG 1.1//EN" "http://www.w3.org/Graphics/SVG/1.1/DTD/svg11.dtd">
<!-- Creator: CorelDRAW X8 -->
<svg xmlns="http://www.w3.org/2000/svg" xml:space="preserve" width="40mm" height="60mm" version="1.1" style="shape-rendering:geometricPrecision; text-rendering:geometricPrecision; image-rendering:optimizeQuality; fill-rule:evenodd; clip-rule:evenodd"
viewBox="0 0 4000 6000"
 xmlns:xlink="http://www.w3.org/1999/xlink">
 <defs>
  <style type="text/css">
   <![CDATA[
    .str0 {stroke:black;stroke-width:7.62}
    .fil0 {fill:none}
   ]]>
  </style>
 </defs>
 <g id="图层_x0020_1">
  <metadata id="CorelCorpID_0Corel-Layer"/>
  <path class="fil0 str0" d="M1469 814c-16,4 -28,10 -28,39l0 23c0,33 27,60 59,60l0 0c33,0 60,-27 60,-60l0 -103c0,-33 -27,-60 -60,-60l0 0c-32,0 -59,27 -59,60l0 80m-226 -160c-1,-14 -13,-26 -37,-28 -87,0 -157,70 -157,157 0,86 70,156 157,156 86,0 156,-70 156,-156 0,-87 -70,-157 -156,-157m692 819l238 0c31,0 57,25 57,56l0 225c0,31 -26,57 -57,57l-238 0c-31,0 -57,-26 -57,-57l0 -225c0,-31 26,-56 57,-56zm-943 3866l1966 0c138,0 251,-113 251,-251l0 -4198c0,-138 -113,-251 -251,-251l-1786 0c-138,0 -251,113 -251,251l0 4198c0,138 113,251 251,251l93 0"/>
 </g>
</svg>
