<?xml version="1.0" encoding="UTF-8"?>
<!DOCTYPE svg PUBLIC "-//W3C//DTD SVG 1.1//EN" "http://www.w3.org/Graphics/SVG/1.1/DTD/svg11.dtd">
<!-- Creator: CorelDRAW X8 -->
<svg xmlns="http://www.w3.org/2000/svg" xml:space="preserve" width="40mm" height="60mm" version="1.1" style="shape-rendering:geometricPrecision; text-rendering:geometricPrecision; image-rendering:optimizeQuality; fill-rule:evenodd; clip-rule:evenodd"
viewBox="0 0 4000 6000"
 xmlns:xlink="http://www.w3.org/1999/xlink">
 <defs>
  <style type="text/css">
   <![CDATA[
    .str0 {stroke:black;stroke-width:7.62}
    .fil0 {fill:none}
   ]]>
  </style>
 </defs>
 <g id="图层_x0020_1">
  <metadata id="CorelCorpID_0Corel-Layer"/>
  <path class="fil0 str0" d="M1093 5333l1717 0c130,0 236,-106 236,-235l0 -4213c0,-129 -106,-235 -236,-235l-420 0 -258 0c-24,0 -44,20 -44,44l0 32c0,42 -35,77 -78,77l0 0c-43,0 -78,-35 -78,-77l0 -32c0,-24 -20,-44 -44,-44l-265 0 -433 0c-130,0 -236,106 -236,235l0 4213c0,129 106,235 236,235l54 0c38,0 64,7 80,17"/>
 </g>
</svg>
