<?xml version="1.0" encoding="UTF-8"?>
<!DOCTYPE svg PUBLIC "-//W3C//DTD SVG 1.1//EN" "http://www.w3.org/Graphics/SVG/1.1/DTD/svg11.dtd">
<!-- Creator: CorelDRAW X8 -->
<svg xmlns="http://www.w3.org/2000/svg" xml:space="preserve" width="40mm" height="60mm" version="1.1" style="shape-rendering:geometricPrecision; text-rendering:geometricPrecision; image-rendering:optimizeQuality; fill-rule:evenodd; clip-rule:evenodd"
viewBox="0 0 4000 6000"
 xmlns:xlink="http://www.w3.org/1999/xlink">
 <defs>
  <style type="text/css">
   <![CDATA[
    .str0 {stroke:black;stroke-width:7.62}
    .fil0 {fill:none}
   ]]>
  </style>
 </defs>
 <g id="图层_x0020_1">
  <metadata id="CorelCorpID_0Corel-Layer"/>
  <path class="fil0 str0" d="M1673 1836c-1,-11 -11,-22 -32,-23 -73,0 -132,59 -132,132 0,73 59,133 132,133 74,0 133,-60 133,-133 0,-73 -59,-132 -133,-132m-295 23c-1,-11 -11,-22 -31,-23 -73,0 -133,59 -133,132 0,73 60,133 133,133 73,0 132,-60 132,-133 0,-73 -59,-132 -132,-132m31 -358c-1,-11 -11,-22 -31,-23 -73,0 -133,59 -133,132 0,73 60,133 133,133 73,0 132,-60 132,-133 0,-73 -59,-132 -132,-132m358 23c-1,-11 -11,-22 -31,-23 -74,0 -133,59 -133,132 0,73 59,133 133,133 73,0 132,-60 132,-133 0,-73 -59,-132 -132,-132m-387 -558l447 0c46,0 83,37 83,82l0 342c0,46 -37,83 -83,83l-447 0c-46,0 -83,-37 -83,-83l0 -342c0,-45 37,-82 83,-82zm-9 -21l460 0c53,0 96,43 96,96l0 1094c0,53 -43,96 -96,96l-460 0c-53,0 -97,-43 -97,-96l0 -1094c0,-53 44,-96 97,-96zm0 -57l460 0c84,0 153,69 153,153l0 1094c0,84 -69,153 -153,153l-460 0c-84,0 -153,-69 -153,-153l0 -1094c0,-84 69,-153 153,-153zm-308 4554l1967 0c105,0 191,-86 191,-192l0 -4316c0,-106 -86,-192 -191,-192l-1810 0c-105,0 -191,86 -191,192l0 922c0,9 1,10 4,14l37 51c3,5 4,9 4,15l0 1026c0,10 0,10 -5,20l-37 71c-3,6 -3,6 -3,14l0 2183c0,106 86,192 191,192l272 0"/>
 </g>
</svg>
