<?xml version="1.0" encoding="UTF-8"?>
<!DOCTYPE svg PUBLIC "-//W3C//DTD SVG 1.1//EN" "http://www.w3.org/Graphics/SVG/1.1/DTD/svg11.dtd">
<!-- Creator: CorelDRAW X8 -->
<svg xmlns="http://www.w3.org/2000/svg" xml:space="preserve" width="40mm" height="60mm" version="1.1" style="shape-rendering:geometricPrecision; text-rendering:geometricPrecision; image-rendering:optimizeQuality; fill-rule:evenodd; clip-rule:evenodd"
viewBox="0 0 4000 6000"
 xmlns:xlink="http://www.w3.org/1999/xlink">
 <defs>
  <style type="text/css">
   <![CDATA[
    .str0 {stroke:black;stroke-width:7.62}
    .fil0 {fill:none}
   ]]>
  </style>
 </defs>
 <g id="图层_x0020_1">
  <metadata id="CorelCorpID_0Corel-Layer"/>
  <path class="fil0 str0" d="M961 5287l1877 0c111,0 201,-92 201,-205l0 -4228c0,-112 -90,-204 -201,-204l-765 0c-2,0 -3,2 -3,4l0 34c0,22 -18,40 -41,40 -22,0 -40,-18 -40,-40l0 -34c0,-2 -1,-4 -3,-4l-772 0c-111,0 -201,92 -201,204l0 4228c0,113 90,205 201,205 110,0 233,38 233,63"/>
 </g>
</svg>
