<?xml version="1.0" encoding="UTF-8"?>
<!DOCTYPE svg PUBLIC "-//W3C//DTD SVG 1.1//EN" "http://www.w3.org/Graphics/SVG/1.1/DTD/svg11.dtd">
<!-- Creator: CorelDRAW 2020 (64-Bit) -->
<svg xmlns="http://www.w3.org/2000/svg" xml:space="preserve" width="40mm" height="60mm" version="1.1" style="shape-rendering:geometricPrecision; text-rendering:geometricPrecision; image-rendering:optimizeQuality; fill-rule:evenodd; clip-rule:evenodd"
viewBox="0 0 4000 6000"
 xmlns:xlink="http://www.w3.org/1999/xlink"
 xmlns:xodm="http://www.corel.com/coreldraw/odm/2003">
 <defs>
  <style type="text/css">
   <![CDATA[
    .str1 {stroke:#332C2B;stroke-width:20;stroke-miterlimit:22.9256}
    .str0 {stroke:#E62129;stroke-width:20;stroke-miterlimit:22.9256}
    .fil0 {fill:none}
   ]]>
  </style>
   <clipPath id="id0">
    <rect x="-43877.83" y="-6352.78" width="11065.4" height="15822.26"/>
   </clipPath>
 </defs>
 <g id="图层_x0020_1">
  <metadata id="CorelCorpID_0Corel-Layer"/>
  <g style="clip-path:url(#id0)">
   <image x="-43877.83" y="-6352.78" width="11065.4" height="15822.26" xlink:href="iris 59 -11i（前膜带壳）_Images\iris 59 -11i（前膜带壳）_ImgID1.png"/>
  </g>
  <rect class="fil0 str0" x="-40392.21" y="-6220.71" width="7378" height="15559"/>
  <path class="fil0 str0" d="M-39362.27 -5998.46l1728.35 0c72.99,0 79.09,99.58 132.4,99.58l263.71 0c133.74,0 119.16,128.68 119.16,202.11 0,227.96 184.8,412.76 412.76,412.76 227.96,0 412.76,-184.8 412.76,-412.76 0,-73.43 -12.38,-202.11 124.66,-202.11l246.54 0c53.31,0 60.42,-99.58 126.13,-99.58l1751.66 0c495,0 899.99,405.01 899.99,899.99l0 13384.86c0,495 -404.99,899.99 -899.99,899.99l-5318.13 0c-495,0 -899.98,-404.99 -899.98,-899.99l0 -13384.86c0,-495 404.98,-899.99 899.98,-899.99z"/>
  <path class="fil0 str1" d="M-4836.21 5452.49l0 -5806.98c0,-488.03 -402.34,-887.35 -894.06,-887.35l-13296.68 0c-491.72,0 -894.06,399.3 -894.06,887.35l0 1727.05c0,64.78 98.92,71.79 98.92,124.36l0 243.07c0,135.12 127.84,122.91 200.78,122.91 226.46,0 410.04,182.2 410.04,406.96 0,224.76 -183.58,406.96 -410.04,406.96 -72.94,0 -200.78,-14.37 -200.78,117.49l0 260c0,52.57 -98.92,58.58 -98.92,130.54l0 1704.07c0,488.05 402.32,887.34 894.06,887.34l13296.68 0c491.74,0 894.06,-399.29 894.06,-887.34 0,-488.05 59.3,-635.79 161.17,-772.05"/>
  <path class="fil0 str1" d="M1022.62 5308.31l1785.89 0c151.83,0 276.06,-124.24 276.06,-276.07l0 -4105.65c0,-151.83 -124.23,-276.06 -276.06,-276.06l-537.3 0c-20.16,0 -22.34,30.54 -38.69,30.54l-75.63 0c-42.03,0 -38.24,39.47 -38.24,62 0,69.92 -56.68,126.61 -126.61,126.61 -69.92,0 -126.6,-56.69 -126.6,-126.61 0,-22.53 4.47,-62 -36.56,-62l-80.89 0c-16.35,0 -18.22,-30.54 -40.61,-30.54l-530.15 0c-151.84,0 -276.06,124.22 -276.06,276.06l0 4105.65c0,151.84 124.22,276.07 276.06,276.07 151.84,0 191.44,24.36 212.13,42.22"/>
 </g>
</svg>
