<?xml version="1.0" encoding="UTF-8"?>
<!DOCTYPE svg PUBLIC "-//W3C//DTD SVG 1.1//EN" "http://www.w3.org/Graphics/SVG/1.1/DTD/svg11.dtd">
<!-- Creator: CorelDRAW X8 -->
<svg xmlns="http://www.w3.org/2000/svg" xml:space="preserve" width="40mm" height="60mm" version="1.1" style="shape-rendering:geometricPrecision; text-rendering:geometricPrecision; image-rendering:optimizeQuality; fill-rule:evenodd; clip-rule:evenodd"
viewBox="0 0 4000 6000"
 xmlns:xlink="http://www.w3.org/1999/xlink">
 <defs>
  <style type="text/css">
   <![CDATA[
    .str0 {stroke:black;stroke-width:7.62}
    .fil0 {fill:none}
   ]]>
  </style>
 </defs>
 <g id="图层_x0020_1">
  <metadata id="CorelCorpID_0Corel-Layer"/>
  <path class="fil0 str0" d="M1038 5350l1804 0c168,0 306,-138 306,-306l0 -4088c0,-168 -138,-306 -306,-306l-1684 0c-168,0 -306,138 -306,306l0 4088c0,168 138,306 306,306l55 0m837 -4365c-1,-13 -12,-24 -34,-26 -79,0 -143,64 -143,143 0,78 64,142 143,142 78,0 142,-64 142,-142 0,-79 -64,-143 -142,-143m2 1186c-3,-13 -8,-22 -30,-22l-18 0c-25,0 -46,21 -46,46l0 0c0,25 21,46 46,46l92 0c25,0 46,-21 46,-46l0 0c0,-25 -21,-46 -46,-46l-74 0m29 -814l0 0c86,0 156,70 156,156l0 438c0,86 -70,156 -156,156l0 0c-86,0 -156,-70 -156,-156l0 -438c0,-86 70,-156 156,-156zm-5 42l10 0c63,0 114,51 114,114l0 438c0,63 -51,115 -114,115l-10 0c-63,0 -115,-52 -115,-115l0 -438c0,-63 52,-114 115,-114zm27 468c0,-9 -8,-17 -24,-18 -58,0 -104,47 -104,104 0,58 46,104 104,104 57,0 104,-46 104,-104 0,-57 -47,-104 -104,-104m24 -423c0,-9 -8,-17 -24,-18 -58,0 -104,46 -104,104 0,57 46,104 104,104 57,0 104,-47 104,-104 0,-58 -47,-104 -104,-104"/>
 </g>
</svg>
