<?xml version="1.0" encoding="UTF-8"?>
<!DOCTYPE svg PUBLIC "-//W3C//DTD SVG 1.1//EN" "http://www.w3.org/Graphics/SVG/1.1/DTD/svg11.dtd">
<!-- Creator: CorelDRAW 2020 (64-Bit) -->
<svg xmlns="http://www.w3.org/2000/svg" xml:space="preserve" width="40mm" height="60mm" version="1.1" style="shape-rendering:geometricPrecision; text-rendering:geometricPrecision; image-rendering:optimizeQuality; fill-rule:evenodd; clip-rule:evenodd"
viewBox="0 0 4000 6000"
 xmlns:xlink="http://www.w3.org/1999/xlink"
 xmlns:xodm="http://www.corel.com/coreldraw/odm/2003">
 <defs>
  <style type="text/css">
   <![CDATA[
    .str0 {stroke:black;stroke-width:7.62;stroke-miterlimit:22.9256}
    .fil0 {fill:none}
   ]]>
  </style>
 </defs>
 <g id="图层_x0020_1">
  <metadata id="CorelCorpID_0Corel-Layer"/>
  <path class="fil0 str0" d="M966.63 5334.82l531.93 0c1.66,0 3.09,-0.6 4.27,-1.77l5.52 -5.52c1.17,-1.17 2.6,-1.77 4.27,-1.77l961.56 0c1.66,0 3.09,0.6 4.27,1.77l5.52 5.52c1.17,1.18 2.6,1.77 4.27,1.77l376.33 0c123.06,0 223.76,-100.7 223.76,-223.76l0 -4231.62c0,-123.07 -100.69,-223.77 -223.76,-223.77l-361.07 0c-1.76,0 -3.27,0.66 -4.45,1.95l-5.48 5.96c-1.18,1.3 -2.69,1.96 -4.45,1.96l-246.12 0c-96.56,0 -161.17,127.86 -243.75,127.86 -84.58,0 -161.16,-127.86 -257.73,-127.86l-243.85 0c-1.75,0 -3.26,-0.66 -4.45,-1.96l-5.47 -5.96c-1.19,-1.29 -2.7,-1.95 -4.45,-1.95l-361.06 0c-123.08,0 -223.77,100.69 -223.77,223.77l0 4231.62c0,123.07 100.7,223.76 223.77,223.76l48.18 0c38.47,0 64.81,6.73 75.68,20.85"/>
 </g>
</svg>
