<?xml version="1.0" encoding="UTF-8"?>
<!DOCTYPE svg PUBLIC "-//W3C//DTD SVG 1.1//EN" "http://www.w3.org/Graphics/SVG/1.1/DTD/svg11.dtd">
<!-- Creator: CorelDRAW X8 -->
<svg xmlns="http://www.w3.org/2000/svg" xml:space="preserve" width="40mm" height="60mm" version="1.1" style="shape-rendering:geometricPrecision; text-rendering:geometricPrecision; image-rendering:optimizeQuality; fill-rule:evenodd; clip-rule:evenodd"
viewBox="0 0 4000 6000"
 xmlns:xlink="http://www.w3.org/1999/xlink">
 <defs>
  <style type="text/css">
   <![CDATA[
    .str0 {stroke:#332C2B;stroke-width:10;stroke-linecap:round;stroke-linejoin:round}
    .fil0 {fill:none;fill-rule:nonzero}
   ]]>
  </style>
 </defs>
 <g id="图层_x0020_1">
  <metadata id="CorelCorpID_0Corel-Layer"/>
  <line class="fil0 str0" x1="3061" y1="650" x2="3061" y2= "681" />
  <line class="fil0 str0" x1="1440" y1="789" x2="1440" y2= "799" />
  <path class="fil0 str0" d="M1440 799c4,-1 7,-2 9,-4 24,21 65,35 106,35 22,0 49,-2 99,-9 13,-1 20,-2 27,-2 47,0 85,38 85,86 0,48 -40,87 -86,85"/>
  <line class="fil0 str0" x1="1680" y1="990" x2="1679" y2= "990" />
  <path class="fil0 str0" d="M1679 990c-3,0 -3,0 -32,-4"/>
  <line class="fil0 str0" x1="1647" y1="986" x2="1633" y2= "984" />
  <path class="fil0 str0" d="M1633 984c-29,-4 -50,-6 -68,-6 -61,0 -115,21 -168,66 -33,28 -75,43 -119,43 -104,0 -189,-84 -189,-189 0,-104 84,-188 188,-188 55,0 94,18 145,66 9,8 15,12 37,27"/>
  <line class="fil0 str0" x1="1063" y1="5331" x2="1072" y2= "5338" />
  <path class="fil0 str0" d="M1072 5338c-4,2 -5,3 -10,3"/>
  <polyline class="fil0 str0" points="1062,5341 1056,5339 1053,5330 "/>
  <path class="fil0 str0" d="M1053 5330c-54,-4 -116,-43 -147,-93 -28,-43 -35,-70 -35,-122"/>
  <line class="fil0 str0" x1="871" y1="5115" x2="858" y2= "2369" />
  <polyline class="fil0 str0" points="858,2369 854,1760 858,893 868,825 "/>
  <line class="fil0 str0" x1="878" y1="825" x2="876" y2= "816" />
  <path class="fil0 str0" d="M876 816c0,-11 8,-28 31,-67 26,-45 72,-78 134,-94 10,-3 36,-4 100,-3"/>
  <line class="fil0 str0" x1="1141" y1="652" x2="2675" y2= "660" />
  <path class="fil0 str0" d="M2675 660c129,1 172,0 213,-4 2,-1 4,-1 5,-1 23,0 80,31 107,58 31,31 60,87 63,119"/>
  <line class="fil0 str0" x1="3063" y1="832" x2="3115" y2= "3100" />
  <path class="fil0 str0" d="M3115 3100c10,411 14,760 14,1047 0,591 -14,922 -43,992"/>
  <line class="fil0 str0" x1="3086" y1="5139" x2="3085" y2= "5142" />
  <path class="fil0 str0" d="M3085 5142c-5,11 -5,11 -19,23"/>
  <line class="fil0 str0" x1="3066" y1="5165" x2="3063" y2= "5168" />
  <path class="fil0 str0" d="M3063 5168c-1,1 -2,2 -3,3"/>
  <line class="fil0 str0" x1="3060" y1="5171" x2="3048" y2= "5204" />
  <path class="fil0 str0" d="M3048 5204c-23,60 -105,124 -168,130 -537,11 -912,16 -1333,16 -350,0 -442,-3 -489,-18"/>
  <line class="fil0 str0" x1="1058" y1="5332" x2="1041" y2= "5328" />
 </g>
</svg>
