<?xml version="1.0" encoding="UTF-8"?>
<!DOCTYPE svg PUBLIC "-//W3C//DTD SVG 1.1//EN" "http://www.w3.org/Graphics/SVG/1.1/DTD/svg11.dtd">
<!-- Creator: CorelDRAW X8 -->
<svg xmlns="http://www.w3.org/2000/svg" xml:space="preserve" width="40mm" height="60mm" version="1.1" style="shape-rendering:geometricPrecision; text-rendering:geometricPrecision; image-rendering:optimizeQuality; fill-rule:evenodd; clip-rule:evenodd"
viewBox="0 0 4000 6000"
 xmlns:xlink="http://www.w3.org/1999/xlink">
 <defs>
  <style type="text/css">
   <![CDATA[
    .fil0 {fill:#332C2B;fill-rule:nonzero}
   ]]>
  </style>
 </defs>
 <g id="图层_x0020_1">
  <metadata id="CorelCorpID_0Corel-Layer"/>
  <g>
   <path class="fil0" d="M969 1748l0 -5 0 0 29 0 27 -2 28 -4 26 -5 27 -6 26 -7 25 -9 25 -9 24 -11 23 -12 23 -14 22 -14 22 -15 20 -16 20 -17 19 -18 18 -19 17 -20 17 -21 15 -21 14 -22 13 -23 12 -24 11 -24 10 -25 9 -25 7 -26 6 -26 5 -27 3 -27 2 -28 1 -28 4 0 0 28 -2 28 -4 28 -5 27 -6 26 -7 26 -9 26 -10 25 -11 24 -12 24 -13 23 -15 22 -15 22 -16 21 -17 20 -19 19 -19 18 -20 17 -20 17 -22 15 -22 14 -23 13 -24 13 -24 11 -25 9 -26 9 -26 7 -27 7 -27 4 -27 4 -28 2 -29 1 0 0zm-550 -550l5 0 0 0 1 28 2 28 3 27 5 27 6 26 7 26 9 25 10 25 11 24 12 24 13 23 14 22 15 21 16 21 18 20 18 19 19 18 19 17 21 16 21 15 23 14 22 14 24 12 24 11 25 9 25 9 26 7 26 6 27 5 28 4 27 2 28 0 0 5 -28 -1 -28 -2 -27 -4 -27 -4 -27 -7 -26 -7 -26 -9 -25 -9 -24 -11 -24 -13 -23 -13 -22 -14 -22 -15 -20 -17 -20 -17 -19 -18 -19 -19 -17 -20 -16 -21 -16 -22 -14 -22 -13 -23 -12 -24 -11 -24 -10 -25 -9 -26 -7 -26 -6 -26 -5 -27 -4 -28 -2 -28 -1 -28 0 0zm550 -550l0 4 0 0 -28 1 -27 2 -28 3 -27 5 -26 6 -26 8 -25 8 -25 10 -24 11 -24 12 -22 13 -23 14 -21 16 -21 16 -19 17 -19 18 -18 19 -18 20 -16 20 -15 22 -14 22 -13 23 -12 23 -11 24 -10 25 -9 26 -7 25 -6 27 -5 27 -3 27 -2 28 -1 28 -5 0 1 -28 2 -28 4 -28 5 -27 6 -27 7 -26 9 -25 10 -25 11 -25 12 -23 13 -23 14 -23 16 -21 16 -21 17 -20 19 -19 19 -18 20 -18 20 -16 22 -15 22 -15 23 -13 24 -12 24 -11 25 -10 26 -8 26 -8 27 -6 27 -5 27 -3 28 -2 28 -1 0 0zm550 550l-4 0 0 0 -1 -28 -2 -28 -3 -27 -5 -27 -6 -27 -7 -25 -9 -26 -10 -25 -11 -24 -12 -23 -13 -23 -14 -22 -15 -22 -17 -20 -17 -20 -18 -19 -19 -18 -20 -17 -20 -16 -22 -16 -22 -14 -23 -13 -23 -12 -24 -11 -25 -10 -25 -8 -26 -8 -27 -6 -26 -5 -28 -3 -27 -2 -29 -1 0 -4 29 1 28 2 27 3 27 5 27 6 26 8 26 8 25 10 24 11 24 12 23 13 22 15 22 15 20 16 20 18 19 18 19 19 17 20 16 21 15 21 15 23 13 23 12 23 11 25 10 25 9 25 7 26 6 27 5 27 4 28 2 28 0 28 0 0zm1512 550l0 -5 0 0 28 0 27 -2 28 -4 27 -5 26 -6 26 -7 25 -9 25 -9 24 -11 24 -12 22 -14 23 -14 21 -15 21 -16 19 -17 19 -18 18 -19 18 -20 16 -21 15 -21 14 -22 13 -23 12 -24 11 -24 10 -25 9 -25 7 -26 6 -26 5 -27 3 -27 2 -28 1 -28 5 0 -1 28 -2 28 -4 28 -5 27 -6 26 -7 26 -9 26 -10 25 -11 24 -12 24 -13 23 -14 22 -16 22 -16 21 -17 20 -19 19 -19 18 -20 17 -20 17 -22 15 -22 14 -23 13 -24 13 -24 11 -25 9 -26 9 -26 7 -27 7 -27 4 -27 4 -28 2 -28 1 0 0zm-550 -550l4 0 0 0 1 28 2 28 3 27 5 27 6 26 7 26 9 25 10 25 11 24 12 24 13 23 14 22 15 21 17 21 17 20 18 19 19 18 20 17 20 16 22 15 22 14 23 14 23 12 24 11 25 9 25 9 26 7 27 6 26 5 28 4 27 2 29 0 0 5 -29 -1 -28 -2 -27 -4 -27 -4 -27 -7 -26 -7 -26 -9 -25 -9 -24 -11 -24 -13 -23 -13 -22 -14 -21 -15 -21 -17 -20 -17 -19 -18 -19 -19 -17 -20 -16 -21 -15 -22 -15 -22 -13 -23 -12 -24 -11 -24 -10 -25 -9 -26 -7 -26 -6 -26 -5 -27 -4 -28 -2 -28 0 -28 0 0zm550 -550l0 4 0 0 -29 1 -27 2 -28 3 -26 5 -27 6 -26 8 -25 8 -25 10 -24 11 -23 12 -23 13 -22 14 -22 16 -20 16 -20 17 -19 18 -18 19 -17 20 -17 20 -15 22 -14 22 -13 23 -12 23 -11 24 -10 25 -9 26 -7 25 -6 27 -5 27 -3 27 -2 28 -1 28 -4 0 0 -28 2 -28 4 -28 5 -27 6 -27 7 -26 9 -25 10 -25 11 -25 12 -23 13 -23 15 -23 15 -21 16 -21 17 -20 19 -19 19 -18 20 -18 21 -16 21 -15 22 -15 23 -13 24 -12 24 -11 25 -10 26 -8 26 -8 27 -6 27 -5 27 -3 28 -2 29 -1 0 0zm550 550l-5 0 0 0 -1 -28 -2 -28 -3 -27 -5 -27 -6 -27 -7 -25 -9 -26 -10 -25 -11 -24 -12 -23 -13 -23 -14 -22 -15 -22 -16 -20 -18 -20 -18 -19 -19 -18 -19 -17 -21 -16 -21 -16 -23 -14 -22 -13 -24 -12 -24 -11 -25 -10 -25 -8 -26 -8 -26 -6 -27 -5 -28 -3 -27 -2 -28 -1 0 -4 28 1 28 2 27 3 27 5 27 6 26 8 26 8 25 10 24 11 24 12 23 13 22 15 22 15 20 16 20 18 19 18 19 19 17 20 16 21 16 21 14 23 13 23 12 23 11 25 10 25 9 25 7 26 6 27 5 27 4 28 2 28 1 28 0 0zm-2612 2352l0 -4 0 0 29 -1 27 -2 28 -4 26 -4 27 -7 26 -7 25 -9 25 -9 24 -11 23 -12 23 -13 22 -15 22 -15 20 -16 20 -17 19 -18 18 -19 17 -20 17 -21 15 -21 14 -22 13 -23 12 -23 11 -25 10 -24 9 -26 7 -26 6 -26 5 -27 3 -27 2 -28 1 -28 4 0 0 28 -2 28 -4 28 -5 27 -6 26 -7 27 -9 25 -10 25 -11 24 -12 24 -13 23 -15 23 -15 21 -16 21 -17 20 -19 19 -19 18 -20 17 -20 17 -22 15 -22 14 -23 14 -24 12 -24 11 -25 10 -26 8 -26 8 -27 6 -27 5 -27 3 -28 2 -29 1 0 0zm-550 -550l5 0 0 0 1 28 2 28 3 27 5 27 6 26 7 26 9 26 10 24 11 25 12 23 13 23 14 22 15 21 16 21 18 20 18 19 19 18 19 17 21 16 21 15 23 15 22 13 24 12 24 11 25 9 25 9 26 7 26 7 27 4 28 4 27 2 28 1 0 4 -28 -1 -28 -2 -27 -3 -27 -5 -27 -6 -26 -8 -26 -8 -25 -10 -24 -11 -24 -12 -23 -14 -22 -14 -22 -15 -20 -17 -20 -17 -19 -18 -19 -19 -17 -20 -16 -21 -16 -21 -14 -23 -13 -23 -12 -24 -11 -24 -10 -25 -9 -25 -7 -27 -6 -26 -5 -27 -4 -28 -2 -28 -1 -28 0 0zm550 -550l0 4 0 0 -28 1 -27 2 -28 4 -27 4 -26 7 -26 7 -25 9 -25 9 -24 11 -24 12 -22 13 -23 15 -21 15 -21 16 -19 17 -19 18 -18 19 -18 20 -16 21 -15 21 -14 22 -13 23 -12 23 -11 25 -10 24 -9 26 -7 26 -6 26 -5 27 -3 27 -2 28 -1 28 -5 0 1 -28 2 -28 4 -28 5 -27 6 -26 7 -27 9 -25 10 -25 11 -24 12 -24 13 -23 14 -23 16 -21 16 -21 17 -20 19 -19 19 -18 20 -17 20 -17 22 -15 22 -14 23 -14 24 -12 24 -11 25 -10 26 -8 26 -8 27 -6 27 -5 27 -3 28 -2 28 -1 0 0zm550 550l-4 0 0 0 -1 -28 -2 -28 -3 -27 -5 -27 -6 -26 -7 -26 -9 -26 -10 -24 -11 -25 -12 -23 -13 -23 -14 -22 -15 -21 -17 -21 -17 -20 -18 -19 -19 -18 -20 -17 -20 -16 -22 -15 -22 -15 -23 -13 -23 -12 -24 -11 -25 -9 -25 -9 -26 -7 -27 -7 -26 -4 -28 -4 -27 -2 -29 -1 0 -4 29 1 28 2 27 3 27 5 27 6 26 8 26 8 25 10 24 11 24 12 23 14 22 14 22 15 20 17 20 17 19 18 19 19 17 20 16 21 15 21 15 23 13 23 12 24 11 24 10 25 9 25 7 27 6 26 5 27 4 28 2 28 0 28 0 0zm1512 541l0 -5 0 0 28 0 27 -2 28 -4 27 -5 26 -6 26 -7 25 -9 25 -10 24 -10 24 -12 22 -14 23 -14 21 -15 21 -16 19 -17 19 -18 18 -19 18 -20 16 -21 15 -21 14 -22 13 -23 12 -24 11 -24 10 -25 9 -25 7 -26 6 -26 5 -27 3 -27 2 -28 1 -28 5 0 -1 28 -2 28 -4 28 -5 27 -6 26 -7 26 -9 26 -10 25 -11 24 -12 24 -13 23 -14 22 -16 22 -16 21 -17 20 -19 19 -19 18 -20 17 -20 16 -22 16 -22 14 -23 13 -24 13 -24 11 -25 9 -26 9 -26 7 -27 7 -27 4 -27 4 -28 2 -28 1 0 0zm-550 -550l4 0 0 0 1 28 2 28 3 27 5 27 6 26 7 26 9 25 10 25 11 24 12 24 13 23 14 22 15 21 17 21 17 20 18 19 19 18 20 17 20 16 22 15 22 14 23 14 23 12 24 10 25 10 25 9 26 7 27 6 26 5 28 4 27 2 29 0 0 5 -29 -1 -28 -2 -27 -4 -27 -4 -27 -7 -26 -7 -26 -9 -25 -9 -24 -11 -24 -13 -23 -13 -22 -14 -21 -16 -21 -16 -20 -17 -19 -18 -19 -19 -17 -20 -16 -21 -15 -22 -15 -22 -13 -23 -12 -24 -11 -24 -10 -25 -9 -26 -7 -26 -6 -26 -5 -27 -4 -28 -2 -28 0 -28 0 0zm550 -550l0 4 0 0 -29 1 -27 2 -28 3 -26 5 -27 6 -26 8 -25 8 -25 10 -24 11 -23 12 -23 13 -22 14 -22 16 -20 16 -20 17 -19 18 -18 19 -17 20 -17 20 -15 22 -14 22 -13 23 -12 23 -11 24 -10 25 -9 26 -7 25 -6 27 -5 27 -3 27 -2 28 -1 28 -4 0 0 -29 2 -27 4 -28 5 -27 6 -27 7 -26 9 -25 10 -25 11 -25 12 -23 13 -23 15 -23 15 -21 16 -21 17 -20 19 -19 19 -18 20 -18 21 -16 21 -15 22 -15 23 -13 24 -12 24 -11 25 -10 26 -8 26 -8 27 -6 27 -5 27 -3 28 -3 29 0 0 0zm550 550l-5 0 0 0 -1 -28 -2 -28 -3 -27 -5 -27 -6 -27 -7 -25 -9 -26 -10 -25 -11 -24 -12 -23 -13 -23 -14 -22 -15 -22 -16 -20 -18 -20 -18 -19 -19 -18 -19 -17 -21 -16 -21 -16 -23 -14 -22 -13 -24 -12 -24 -11 -25 -10 -25 -8 -26 -8 -26 -6 -27 -5 -28 -3 -27 -2 -28 -1 0 -4 28 0 28 3 27 3 27 5 27 6 26 8 26 8 25 10 24 11 24 12 23 13 22 15 22 15 20 16 20 18 19 18 19 19 17 20 16 21 16 21 14 23 13 23 12 23 11 25 10 25 9 25 7 26 6 27 5 27 4 28 2 27 1 29 0 0zm-550 2361l0 -4 0 0 28 -1 27 -2 28 -3 27 -5 26 -6 26 -8 25 -8 25 -10 24 -11 24 -12 22 -13 23 -14 21 -16 21 -16 19 -17 19 -18 18 -19 18 -20 16 -20 15 -22 14 -22 13 -23 12 -23 11 -24 10 -25 9 -26 7 -25 6 -27 5 -27 3 -27 2 -28 1 -28 5 0 -1 29 -2 27 -4 28 -5 27 -6 27 -7 26 -9 25 -10 25 -11 25 -12 23 -13 23 -14 23 -16 21 -16 21 -17 20 -19 19 -19 18 -20 18 -20 16 -22 15 -22 15 -23 13 -24 12 -24 11 -25 10 -26 8 -26 8 -27 6 -27 5 -27 3 -28 2 -28 1 0 0zm-550 -550l4 0 0 0 1 28 2 28 3 27 5 27 6 27 7 25 9 26 10 25 11 24 12 23 13 23 14 22 15 22 17 20 17 20 18 19 19 18 20 17 20 16 22 16 22 14 23 13 23 12 24 11 25 10 25 8 26 8 27 6 26 5 28 3 27 2 29 1 0 4 -29 -1 -28 -2 -27 -3 -27 -5 -27 -6 -26 -8 -26 -8 -25 -10 -24 -11 -24 -12 -23 -13 -22 -15 -21 -15 -21 -16 -20 -18 -19 -18 -19 -19 -17 -20 -16 -21 -15 -21 -15 -23 -13 -23 -12 -23 -11 -25 -10 -25 -9 -25 -7 -26 -6 -27 -5 -27 -4 -28 -2 -27 0 -29 0 0zm550 -550l0 5 0 0 -29 0 -27 2 -28 4 -26 5 -27 6 -26 7 -25 9 -25 9 -24 11 -23 12 -23 14 -22 14 -22 15 -20 16 -20 17 -19 18 -18 19 -17 20 -17 21 -15 21 -14 22 -13 23 -12 24 -11 24 -10 25 -9 25 -7 26 -6 26 -5 27 -3 27 -2 28 -1 28 -4 0 0 -28 2 -28 4 -28 5 -27 6 -26 7 -26 9 -26 10 -25 11 -24 12 -24 13 -23 15 -22 15 -22 16 -21 17 -20 19 -19 19 -18 20 -17 21 -17 21 -15 22 -14 23 -13 24 -13 24 -11 25 -9 26 -9 26 -7 27 -7 27 -4 27 -4 28 -2 29 -1 0 0zm550 550l-5 0 0 0 -1 -28 -2 -28 -3 -27 -5 -27 -6 -26 -7 -26 -9 -25 -10 -25 -11 -24 -12 -24 -13 -23 -14 -22 -15 -21 -16 -21 -18 -20 -18 -19 -19 -18 -19 -17 -21 -16 -21 -15 -23 -14 -22 -14 -24 -12 -24 -11 -25 -9 -25 -9 -26 -7 -26 -6 -27 -5 -28 -4 -27 -2 -28 0 0 -5 28 1 28 2 27 4 27 4 27 7 26 7 26 9 25 9 24 11 24 13 23 13 22 14 22 15 20 17 20 17 19 18 19 19 17 20 16 21 16 22 14 22 13 23 12 24 11 24 10 25 9 26 7 26 6 26 5 27 4 28 2 28 1 28 0 0zm-2612 550l0 -4 0 0 29 -1 27 -2 28 -3 26 -5 27 -6 26 -8 25 -8 25 -10 24 -11 23 -12 23 -13 22 -14 22 -16 20 -16 20 -17 19 -18 18 -19 17 -20 17 -20 15 -22 14 -22 13 -23 12 -23 11 -24 10 -25 9 -26 7 -25 6 -27 5 -27 3 -27 2 -28 1 -28 4 0 0 29 -2 27 -4 28 -5 27 -6 27 -7 26 -9 25 -10 25 -11 25 -12 23 -13 23 -15 23 -15 21 -16 21 -17 20 -19 19 -19 18 -20 18 -20 16 -22 15 -22 15 -23 13 -24 12 -24 11 -25 10 -26 8 -26 8 -27 6 -27 5 -27 3 -28 2 -29 1 0 0zm-550 -550l5 0 0 0 1 28 2 28 3 27 5 27 6 27 7 25 9 26 10 25 11 24 12 23 13 23 14 22 15 22 16 20 18 20 18 19 19 18 19 17 21 16 21 16 23 14 22 13 24 12 24 11 25 10 25 8 26 8 26 6 27 5 28 3 27 2 28 1 0 4 -28 -1 -28 -2 -27 -3 -27 -5 -27 -6 -26 -8 -26 -8 -25 -10 -24 -11 -24 -12 -23 -13 -22 -15 -22 -15 -20 -16 -20 -18 -19 -18 -19 -19 -17 -20 -16 -21 -16 -21 -14 -23 -13 -23 -12 -23 -11 -25 -10 -25 -9 -25 -7 -26 -6 -27 -5 -27 -4 -28 -2 -27 -1 -29 0 0zm550 -550l0 5 0 0 -28 0 -27 2 -28 4 -27 5 -26 6 -26 7 -25 9 -25 9 -24 11 -24 12 -22 14 -23 14 -21 15 -21 16 -19 17 -19 18 -18 19 -18 20 -16 21 -15 21 -14 22 -13 23 -12 24 -11 24 -10 25 -9 25 -7 26 -6 26 -5 27 -3 27 -2 28 -1 28 -5 0 1 -28 2 -28 4 -28 5 -27 6 -26 7 -26 9 -26 10 -25 11 -24 12 -24 13 -23 14 -22 16 -22 16 -21 17 -20 19 -19 19 -18 20 -17 20 -17 22 -15 22 -14 23 -13 24 -13 24 -11 25 -9 26 -9 26 -7 27 -7 27 -4 27 -4 28 -2 28 -1 0 0zm550 550l-4 0 0 0 -1 -28 -2 -28 -3 -27 -5 -27 -6 -26 -7 -26 -9 -25 -10 -25 -11 -24 -12 -24 -13 -23 -14 -22 -15 -21 -17 -21 -17 -20 -18 -19 -19 -18 -20 -17 -20 -16 -22 -15 -22 -14 -23 -14 -23 -12 -24 -11 -25 -9 -25 -9 -26 -7 -27 -6 -26 -5 -28 -4 -27 -2 -29 0 0 -5 29 1 28 2 27 4 27 4 27 7 26 7 26 9 25 9 24 11 24 13 23 13 22 14 22 15 20 17 20 17 19 18 19 19 17 20 16 21 15 22 15 22 13 23 12 24 11 24 10 25 9 26 7 26 6 26 5 27 4 28 2 28 0 28 0 0z"/>
  </g>
 </g>
</svg>
