<?xml version="1.0" encoding="UTF-8"?>
<!DOCTYPE svg PUBLIC "-//W3C//DTD SVG 1.1//EN" "http://www.w3.org/Graphics/SVG/1.1/DTD/svg11.dtd">
<!-- Creator: CorelDRAW 2020 (64-Bit) -->
<svg xmlns="http://www.w3.org/2000/svg" xml:space="preserve" width="40mm" height="60mm" version="1.1" style="shape-rendering:geometricPrecision; text-rendering:geometricPrecision; image-rendering:optimizeQuality; fill-rule:evenodd; clip-rule:evenodd"
viewBox="0 0 4000 6000"
 xmlns:xlink="http://www.w3.org/1999/xlink"
 xmlns:xodm="http://www.corel.com/coreldraw/odm/2003">
 <defs>
  <style type="text/css">
   <![CDATA[
    .str0 {stroke:black;stroke-width:7.62;stroke-miterlimit:22.9256}
    .fil0 {fill:none}
   ]]>
  </style>
 </defs>
 <g id="图层_x0020_1">
  <metadata id="CorelCorpID_0Corel-Layer"/>
  <path class="fil0 str0" d="M1614.22 751c1.33,-8.58 -5.88,-14.59 -9.46,-14.87 -12.72,0 -23.04,10.32 -23.04,23.04 0,12.73 10.32,23.05 23.04,23.05 12.73,0 23.05,-10.32 23.05,-23.05 0,-12.72 -10.32,-23.04 -23.05,-23.04m-153.94 344.19c7.93,-51.01 -34.96,-86.75 -56.24,-88.4 -75.69,0 -137.05,61.36 -137.05,137.06 0,75.69 61.36,137.05 137.05,137.05 75.7,0 137.06,-61.36 137.06,-137.05 0,-75.7 -61.36,-137.06 -137.06,-137.06m56.24 408.4c7.93,-51.01 -34.96,-86.75 -56.24,-88.39 -75.69,0 -137.05,61.35 -137.05,137.05 0,75.69 61.36,137.05 137.05,137.05 75.7,0 137.06,-61.36 137.06,-137.05 0,-75.7 -61.36,-137.05 -137.06,-137.05m228.85 -297.77l1036.4 0c4,0 7.28,3.27 7.28,7.27l0 518.15c0,4 -3.28,7.27 -7.28,7.27l-1036.4 0c-4,0 -7.28,-3.27 -7.28,-7.27l0 -518.15c0,-4 3.28,-7.27 7.28,-7.27zm-478.94 638.59l1696.67 0c2.69,0 4.85,2.19 4.85,4.86l0 14.36c0,2.67 -2.16,4.85 -4.85,4.85l-1696.67 0c-2.68,0 -4.85,-2.18 -4.85,-4.85l0 -14.36c0,-2.67 2.17,-4.86 4.85,-4.86zm275.02 79.35c3.51,-22.57 -15.47,-38.38 -24.88,-39.11 -33.5,0 -60.65,27.15 -60.65,60.64 0,33.49 27.15,60.64 60.65,60.64 33.49,0 60.64,-27.15 60.64,-60.64 0,-33.49 -27.15,-60.64 -60.64,-60.64m1606.83 -918.61l0 -111.44c0,-3.97 -3.31,-7.27 -7.28,-7.27l-139.48 0c-3.98,0 -7.28,3.27 -7.28,7.27l0 108.16c0,1.44 0.78,2.67 2.08,3.29l38.88 18.45c1.27,0.6 2.03,1.77 2.08,3.16 0.05,1.4 -0.67,2.64 -1.86,3.3l-39.32 22c-1.15,0.64 -1.86,1.82 -1.86,3.17l0 58.96c0,1.43 0.77,2.65 2.06,3.28l36.19 17.45c1.28,0.61 2.05,1.83 2.06,3.25 0.01,1.42 -0.77,2.66 -2.01,3.28l-36.29 18.14c-1.24,0.62 -2.01,1.85 -2.01,3.26l0 104.28 -2.28 0c-14.86,-99.07 -100.87,-175.67 -203.91,-175.67l-36.83 0c-4.01,0 -7.28,-3.27 -7.28,-7.28l0 -138.63c0,-3.99 -3.29,-7.28 -7.27,-7.28l-1190.44 0c-3.98,0 -7.27,3.27 -7.27,7.28l0 138.63c0,4.01 -3.27,7.28 -7.28,7.28l-32.07 0c-103.03,0 -196.3,76.61 -211.14,175.67l-2.27 0 0 -108.38c0,-1.34 -0.73,-2.56 -1.91,-3.2l-30.19 -16.35c-1.22,-0.66 -1.95,-1.91 -1.91,-3.32 0.05,-1.41 0.84,-2.6 2.12,-3.19l29.77 -13.64c1.32,-0.6 2.12,-1.88 2.12,-3.31l0 -69.98c0,-1.4 -0.8,-2.68 -2.07,-3.28l-28.12 -13.45c-1.26,-0.6 -2.06,-1.82 -2.07,-3.25 -0.01,-1.42 0.74,-2.65 2.01,-3.29l28.23 -14.1c1.27,-0.63 2.02,-1.87 2.02,-3.25l0 -111.44c0,-3.97 -3.31,-7.27 -7.28,-7.27l-139.48 0c-3.98,0 -7.28,3.27 -7.28,7.27l0 108.16c0,1.44 0.78,2.67 2.08,3.29l38.88 18.45c1.27,0.6 2.03,1.77 2.08,3.16 0.05,1.4 -0.67,2.64 -1.86,3.3l-39.32 22c-1.15,0.64 -1.86,1.82 -1.86,3.17l0 58.96c0,1.43 0.77,2.65 2.06,3.28l36.19 17.45c1.28,0.61 2.05,1.83 2.06,3.25 0.01,1.42 -0.77,2.66 -2.01,3.28l-36.29 18.14c-1.22,0.61 -2.01,1.85 -2.01,3.26l0 440.03c0,4.01 3.27,7.28 7.28,7.28l15.04 0c24.67,0 44.86,20.18 44.86,44.85l0 421.33c0,24.67 -20.19,44.85 -44.86,44.85l-15.04 0c-4.01,0 -7.28,3.27 -7.28,7.28l0 121.06c0,4.01 3.27,7.28 7.28,7.28l15.04 0c24.67,0 44.86,20.18 44.86,44.85l0 331.44c0,24.67 -20.19,44.85 -44.86,44.85l-15.04 0c-4.01,0 -7.28,3.27 -7.28,7.28l0 327.64c0,4.01 3.27,7.28 7.28,7.28 667.19,0 1334.37,0 2001.56,0 4,0 7.28,-3.31 7.28,-7.27l0 -1095.81c0,-4.01 -3.27,-7.28 -7.28,-7.28l-27.26 0c-24.67,0 -44.85,-20.18 -44.85,-44.85l0 -302.99c0,-24.67 20.18,-44.85 44.85,-44.85l27.26 0c4.01,0 7.28,-3.27 7.28,-7.28l0 -351.07c0,-1.33 -0.74,-2.57 -1.91,-3.2l-30.19 -16.35c-1.22,-0.66 -1.95,-1.91 -1.9,-3.32 0.04,-1.41 0.83,-2.6 2.12,-3.19l29.76 -13.64c1.32,-0.6 2.12,-1.88 2.12,-3.31l0 -69.98c0,-1.4 -0.8,-2.68 -2.07,-3.28l-28.12 -13.45c-1.26,-0.6 -2.06,-1.82 -2.07,-3.25 -0.01,-1.42 0.74,-2.65 2.01,-3.29l28.24 -14.1c1.26,-0.63 2.01,-1.89 2.01,-3.25zm-1817.31 2064.25l1611.15 0c6.67,0 12.13,5.48 12.13,12.13l0 291.83c0,6.65 -5.48,12.13 -12.13,12.13l-1611.15 0c-6.65,0 -12.13,-5.46 -12.13,-12.13l0 -291.83c0,-6.67 5.46,-12.13 12.13,-12.13zm1305.03 2375c1.33,-8.58 -5.88,-14.59 -9.46,-14.86 -12.73,0 -23.04,10.31 -23.04,23.04 0,12.73 10.31,23.05 23.04,23.05 12.73,0 23.05,-10.32 23.05,-23.05 0,-12.73 -10.32,-23.04 -23.05,-23.04m-126.29 14.86c1.34,-8.57 -5.88,-14.59 -9.45,-14.86 -12.73,0 -23.05,10.31 -23.05,23.04 0,12.73 10.32,23.05 23.05,23.05 12.72,0 23.04,-10.32 23.04,-23.05 0,-12.73 -10.32,-23.04 -23.04,-23.04m-376.81 -7.34c-3.15,-11.78 -7.44,-20.43 -27.66,-20.43l-16.77 0c-23.34,0 -42.44,19.1 -42.44,42.44l0 0.01c0,23.34 19.1,42.45 42.44,42.45l152.83 0c23.35,0 42.45,-19.1 42.45,-42.45l0 -0.01c0,-23.34 -19.11,-42.44 -42.45,-42.44l-136.06 0m-459.09 16.41l208.47 0c4,0 7.28,3.28 7.28,7.28l0 46.42c0,4 -3.28,7.27 -7.28,7.27l-208.47 0c-4.01,0 -7.28,-3.27 -7.28,-7.27l0 -46.42c0,-4 3.27,-7.28 7.28,-7.28zm1517.4 49.55l0 111.44c0,4 -3.28,7.27 -7.28,7.27l-139.48 0c-4,0 -7.28,-3.27 -7.28,-7.27l0 -108.16c0,-1.44 0.78,-2.67 2.08,-3.29l38.89 -18.45c1.26,-0.6 2.03,-1.77 2.07,-3.16 0.05,-1.4 -0.64,-2.62 -1.86,-3.3l-39.32 -22c-1.18,-0.66 -1.86,-1.82 -1.86,-3.17l0 -58.96c0,-1.43 0.77,-2.65 2.06,-3.28l36.19 -17.45c1.28,-0.61 2.05,-1.83 2.06,-3.25 0.01,-1.42 -0.74,-2.64 -2.01,-3.28l-36.29 -18.14c-1.26,-0.63 -2.01,-1.85 -2.01,-3.26l0 -126.11 -2.28 0c-14.86,99.07 -100.86,175.67 -203.9,175.67l-44.12 0 0 160.47c0,4 -3.27,7.27 -7.27,7.27l-1190.44 0c-4,0 -7.27,-3.27 -7.27,-7.27l0 -160.47 -39.35 0c-103.03,0 -189.02,-76.61 -203.86,-175.67l-2.27 0 0 130.21c0,1.37 -0.7,2.54 -1.91,3.2l-30.19 16.35c-1.25,0.67 -1.96,1.91 -1.91,3.32 0.05,1.41 0.84,2.6 2.12,3.19l29.76 13.64c1.33,0.6 2.13,1.85 2.13,3.31l0 69.98c0,1.43 -0.78,2.66 -2.07,3.28l-28.12 13.45c-1.29,0.61 -2.06,1.82 -2.07,3.25 -0.01,1.42 0.74,2.65 2.01,3.29l28.23 14.1c1.27,0.63 2.02,1.84 2.02,3.25l0 111.44c0,4 -3.28,7.27 -7.28,7.27l-139.49 0c-4,0 -7.27,-3.27 -7.27,-7.27l0 -108.16c0,-1.44 0.78,-2.67 2.08,-3.29l38.88 -18.45c1.26,-0.6 2.03,-1.77 2.08,-3.16 0.05,-1.4 -0.64,-2.62 -1.86,-3.3l-39.32 -22c-1.18,-0.66 -1.86,-1.82 -1.86,-3.17l0 -58.96c0,-1.43 0.77,-2.65 2.06,-3.28l36.19 -17.45c1.28,-0.61 2.05,-1.83 2.06,-3.25 0.01,-1.42 -0.74,-2.64 -2.01,-3.28l-36.29 -18.14c-1.27,-0.63 -2.01,-1.85 -2.01,-3.26l0 -1864.57 56.77 0 89.99 0 7.27 0 1700.77 0 76.03 0 70.73 0c4.01,0 7.28,3.27 7.28,7.27l0 1861.4c0,1.37 -0.7,2.54 -1.91,3.2l-30.19 16.35c-1.24,0.67 -1.95,1.91 -1.9,3.32 0.04,1.41 0.83,2.6 2.12,3.19l29.76 13.64c1.32,0.6 2.12,1.85 2.12,3.31l0 69.98c0,1.43 -0.77,2.66 -2.07,3.28l-28.12 13.45c-1.28,0.61 -2.05,1.82 -2.07,3.25 -0.01,1.42 0.74,2.65 2.01,3.29l28.24 14.1c1.26,0.63 2.01,1.84 2.01,3.25z"/>
 </g>
</svg>
