<?xml version="1.0" encoding="UTF-8"?>
<!DOCTYPE svg PUBLIC "-//W3C//DTD SVG 1.1//EN" "http://www.w3.org/Graphics/SVG/1.1/DTD/svg11.dtd">
<!-- Creator: CorelDRAW 2020 (64-Bit) -->
<svg xmlns="http://www.w3.org/2000/svg" xml:space="preserve" width="40mm" height="60mm" version="1.1" style="shape-rendering:geometricPrecision; text-rendering:geometricPrecision; image-rendering:optimizeQuality; fill-rule:evenodd; clip-rule:evenodd"
viewBox="0 0 4000 6000"
 xmlns:xlink="http://www.w3.org/1999/xlink"
 xmlns:xodm="http://www.corel.com/coreldraw/odm/2003">
 <defs>
  <style type="text/css">
   <![CDATA[
    .str0 {stroke:#E62129;stroke-width:7.62;stroke-miterlimit:22.9256}
    .str2 {stroke:black;stroke-width:7.62;stroke-miterlimit:22.9256}
    .str1 {stroke:red;stroke-width:7.62;stroke-miterlimit:22.9256}
    .fil0 {fill:none}
   ]]>
  </style>
   <clipPath id="id0">
    <rect x="-46771.2" y="-4423.41" width="20488.64" height="16131.2"/>
   </clipPath>
 </defs>
 <g id="图层_x0020_1">
  <metadata id="CorelCorpID_0Corel-Layer"/>
  <g style="clip-path:url(#id0)">
   <image x="-46771.2" y="-4423.41" width="20488.64" height="16131.19" xlink:href="Reno8 Pro 全球版 — 12G（背贴）_Images\Reno8 Pro 全球版 — 12G（背贴）_ImgID1.png"/>
  </g>
  <path class="fil0 str0" d="M-29999.09 -3934.57c-1.27,-16.97 -16.23,-32.85 -47.28,-35.25 -110.46,0 -200,89.54 -200,200 0,110.46 89.54,200 200,200 110.46,0 200,-89.54 200,-200 0,-110.46 -89.54,-200 -200,-200"/>
  <path class="fil0 str1" d="M-32905.06 -4243.83c1903.95,0 3793.5,0 5697.22,0 352.76,0 641.38,288.69 641.38,641.39l0 14467.22c0,352.72 -288.66,641.39 -641.38,641.39l-5697.22 0c-352.74,0 -641.4,-288.63 -641.4,-641.39l0 -14467.22c0,-352.76 288.62,-641.39 641.4,-641.39z"/>
  <path class="fil0 str0" d="M-44848.02 -3613.13c-6.37,-84.89 -81.17,-164.29 -236.42,-176.27 -552.29,0 -1000,447.71 -1000,1000 0,552.29 447.71,1000 1000,1000 552.29,0 1000,-447.71 1000,-1000 0,-552.29 -447.71,-1000 -1000,-1000"/>
  <path class="fil0 str0" d="M-44858.02 -1329.07c-6.37,-84.89 -81.17,-164.29 -236.42,-176.27 -552.29,0 -1000,447.71 -1000,1000 0,552.29 447.71,1000 1000,1000 552.29,0 1000,-447.71 1000,-1000 0,-552.29 -447.71,-1000 -1000,-1000"/>
  <path class="fil0 str0" d="M-43077.36 -3265.02c-3.66,-48.82 -46.67,-94.47 -135.94,-101.36 -317.57,0 -575,257.43 -575,575 0,317.57 257.43,575 575,575 317.57,0 575,-257.43 575,-575 0,-317.57 -257.43,-575 -575,-575"/>
  <path class="fil0 str0" d="M-43077.36 -972.52c-3.66,-48.82 -46.67,-94.47 -135.94,-101.36 -317.57,0 -575,257.43 -575,575 0,317.57 257.43,575 575,575 317.57,0 575,-257.43 575,-575 0,-317.57 -257.43,-575 -575,-575"/>
  <path class="fil0 str1" d="M-45834.19 -4232.8l3407.82 0c27.5,0 50,22.5 50,50l0 5193.87c0,351.98 -287.97,639.95 -639.95,639.95l-3407.82 0c-27.5,0 -50,-22.5 -50,-50l0 -5193.87c0,-351.98 287.97,-639.95 639.95,-639.95z"/>
  <path class="fil0 str1" d="M-42188.63 -4229.26l276.38 -119.57 1751.42 0c405.29,0 736.87,331.74 736.87,736.88l0 14466.24c0,405.25 -331.62,736.88 -736.87,736.88l-5726.24 0c-405.13,0 -736.89,-331.59 -736.89,-736.88l0 -8761.78c0,-6.64 1.37,-12.33 4.4,-18.24l94.45 -184.35c7.02,-13.7 20.21,-21.76 35.6,-21.76l3569.16 0c389.18,0 707.6,-318.42 707.6,-707.6l0 -5353.11c0,-16.31 9.15,-30.24 24.12,-36.71z"/>
  <path class="fil0 str2" d="M-20516.25 5436.43c-84.9,6.36 -164.3,81.16 -176.28,236.42 0,552.29 447.71,1000 1000,1000 552.29,0 1000,-447.71 1000,-1000 0,-552.29 -447.71,-1000 -1000,-1000 -552.29,0 -1000,447.71 -1000,1000m2460.34 -226.42c-84.9,6.36 -164.3,81.16 -176.28,236.42 0,552.29 447.71,1000 1000,1000 552.29,0 1000,-447.71 1000,-1000 0,-552.29 -447.71,-1000 -1000,-1000 -552.29,0 -1000,447.71 -1000,1000m-1759.68 -2017.08c-48.81,3.65 -94.47,46.66 -101.36,135.94 0,317.57 257.43,575 575,575 317.56,0 575,-257.43 575,-575 0,-317.56 -257.44,-575 -575,-575 -317.57,0 -575,257.44 -575,575m2393.86 -135.94c-48.81,3.65 -94.47,46.66 -101.36,135.94 0,317.57 257.43,575 575,575 317.56,0 575,-257.43 575,-575 0,-317.56 -257.44,-575 -575,-575 -317.57,0 -575,257.44 -575,575m-3158.92 2620.89l0 -3407.82c0,-27.5 22.5,-50 50,-50l5193.87 0c351.98,0 639.95,287.97 639.95,639.95l0 3407.82c0,27.5 -22.5,50 -50,50l-5193.87 0c-351.98,0 -639.95,-287.97 -639.95,-639.95zm15823.97 407.76l0 -6081.12c0,-405.24 -331.64,-736.87 -736.88,-736.87l-14466.24 0c-405.14,0 -736.88,331.58 -736.88,736.87l0 1751.42 119.57 276.38c6.47,14.97 20.4,24.12 36.71,24.12l5353.11 0c389.18,0 707.6,318.42 707.6,707.6l0 3569.16c0,15.39 8.06,28.58 21.76,35.6l184.35 94.45c5.91,3.03 11.6,4.4 18.24,4.4l8761.78 0c405.29,0 736.88,-331.76 736.88,-736.89l0 -131.29c0,-235.08 55.03,-386.12 119.64,-453.11"/>
  <path class="fil0 str2" d="M1466.17 865.31c-1.86,-24.84 -23.75,-48.08 -69.19,-51.59 -161.63,0 -292.66,131.03 -292.66,292.66 0,161.63 131.03,292.66 292.66,292.66 161.63,0 292.66,-131.03 292.66,-292.66 0,-161.63 -131.03,-292.66 -292.66,-292.66m66.26 720.04c-1.86,-24.84 -23.75,-48.08 -69.19,-51.59 -161.63,0 -292.66,131.03 -292.66,292.66 0,161.64 131.03,292.66 292.66,292.66 161.64,0 292.66,-131.02 292.66,-292.66 0,-161.63 -131.02,-292.66 -292.66,-292.66m590.32 -514.98c-1.07,-14.29 -13.65,-27.65 -39.78,-29.67 -92.94,0 -168.28,75.34 -168.28,168.28 0,92.94 75.34,168.28 168.28,168.28 92.93,0 168.28,-75.34 168.28,-168.28 0,-92.94 -75.35,-168.28 -168.28,-168.28m39.78 700.59c-1.07,-14.29 -13.65,-27.65 -39.78,-29.67 -92.94,0 -168.28,75.34 -168.28,168.28 0,92.94 75.34,168.28 168.28,168.28 92.93,0 168.28,-75.34 168.28,-168.28 0,-92.94 -75.35,-168.28 -168.28,-168.28m-767.03 -924.48l997.33 0c8.05,0 14.63,6.58 14.63,14.63l0 1520.03c0,103.01 -84.27,187.29 -187.28,187.29l-997.34 0c-8.04,0 -14.63,-6.58 -14.63,-14.63l0 -1520.04c0,-103.01 84.28,-187.28 187.29,-187.28zm-119.34 4631.03l1779.7 0c118.6,0 215.66,-97.06 215.66,-215.66l0 -4233.68c0,-118.56 -97.05,-215.65 -215.66,-215.65l-512.57 0 -80.88 34.99c-4.38,1.9 -7.06,5.97 -7.06,10.75l0 1566.63c0,113.9 -93.19,207.09 -207.09,207.09l-1044.55 0c-4.5,0 -8.36,2.36 -10.42,6.37l-27.64 53.95c-0.88,1.73 -1.29,3.39 -1.29,5.34l0 2564.21c0,118.61 97.1,215.66 215.66,215.66l38.43 0c68.79,0 113,16.1 132.6,35.01"/>
 </g>
</svg>
