<?xml version="1.0" encoding="UTF-8"?>
<!DOCTYPE svg PUBLIC "-//W3C//DTD SVG 1.1//EN" "http://www.w3.org/Graphics/SVG/1.1/DTD/svg11.dtd">
<!-- Creator: CorelDRAW -->
<svg xmlns="http://www.w3.org/2000/svg" xml:space="preserve" width="40mm" height="60mm" style="shape-rendering:geometricPrecision; text-rendering:geometricPrecision; image-rendering:optimizeQuality; fill-rule:evenodd; clip-rule:evenodd"
viewBox="0 0 40 60"
 xmlns:xlink="http://www.w3.org/1999/xlink">
 <defs>
  <style type="text/css">
   <![CDATA[
    .str0 {stroke:#1F1A17;stroke-width:0.194}
    .str2 {stroke:#1F1A17;stroke-width:0.194}
    .str1 {stroke:#1F1A17;stroke-width:0.2}
    .fil0 {fill:none}
    .fil1 {fill:none;fill-rule:nonzero}
   ]]>
  </style>
 </defs>
 <g id="图层_x0020_1">
  <metadata id="CorelCorpID_0Corel-Layer"/>
  <g id="_285705336">
   <line id="_244979592" class="fil0 str0" x1="30.1548" y1="48.1447" x2="31.1203" y2= "48.1479" />
   <path id="_244979808_0" class="fil0 str0" d="M31.1203 48.1479c0.5776,0.0021 0.5776,0.0021 0.5797,-0.3721"/>
   <line id="_284499472" class="fil0 str0" x1="31.7" y1="47.7758" x2="31.9302" y2= "18.2429" />
   <path id="_245569544" class="fil0 str0" d="M31.9302 18.2429c0.0318,-4.213 -0.0216,-6.2531 -0.1747,-6.5769"/>
   <line id="_284494984" class="fil0 str0" x1="31.7666" y1="11.6933" x2="31.7051" y2= "11.5858" />
   <path id="_284494600" class="fil0 str0" d="M31.7409 11.6429c-0.1007,-0.1573 -0.1365,-0.2143 -0.5384,-0.2123"/>
   <line id="_285705000" class="fil0 str0" x1="31.2315" y1="11.4306" x2="30.1773" y2= "11.4355" />
   <path id="_245570312" class="fil0 str0" d="M30.2391 11.3471c0.0267,0.328 0.0063,0.0075 -0.0007,-0.0131 -0.002,-1.2806 -0.8613,-2.2947 -2.1582,-2.5136"/>
   <path id="_245569760" class="fil0 str0" d="M28.1017 8.8202l-0.2425 0.0019 -2.6466 -0.007m2.8891 0.0051z"/>
   <path id="_284409768" class="fil0 str0" d="M25.2126 8.8151c-2.4564,0.073 -4.9138,-0.0305 -7.371,0.0343 -0.9559,0.0246 -2.0849,-0.0094 -2.7766,-0.0094 -2.2098,0 -2.2115,-0.0491 -3.086,-0.0181 -0.0371,0.0022 -0.0449,0.012 -0.0719,0.0198 -0.1456,0.0293 -0.5889,0.1552 -0.8356,0.2898 -0.8325,0.4543 -1.295,1.2529 -1.295,2.2334"/>
   <line id="_284409600" class="fil0 str0" x1="9.7765" y1="11.3649" x2="9.7796" y2= "11.5303" />
   <line id="_284495920" class="fil0 str0" x1="9.6779" y1="11.4358" x2="8.834" y2= "11.4327" />
   <path id="_284289024" class="fil0 str0" d="M8.834 11.4327c-0.52,-0.0021 -0.52,-0.0021 -0.5252,0.369"/>
   <line id="_245571680" class="fil0 str0" x1="8.3088" y1="11.8017" x2="8.3078" y2= "11.8726" />
   <path id="_284495512" class="fil0 str0" d="M8.3078 11.8726c-0.0925,5.9746 -0.1542,11.9489 -0.184,17.9233"/>
   <line id="_245572208" class="fil0 str0" x1="8.1238" y1="29.7959" x2="8.0653" y2= "41.3544" />
   <path id="_245568368" class="fil0 str0" d="M8.0653 41.3544c-0.0216,4.2065 0.038,6.2436 0.1901,6.5622"/>
   <line id="_284494912" class="fil0 str0" x1="8.2554" y1="47.9166" x2="8.3037" y2= "47.9886" />
   <path id="_284495152" class="fil0 str0" d="M8.3037 47.9886c0.1059,0.1603 0.1059,0.1603 0.4533,0.1583"/>
   <line id="_46981696" class="fil0 str0" x1="8.757" y1="48.1469" x2="9.8742" y2= "48.1376" />
   <path id="_285708168" class="fil0 str0" d="M9.8596 48.1445c-0.0949,-0.0048 -0.0785,0.0615 -0.08,0.0949 -0.0041,0.0966 -0.0062,0.187 -0.0062,0.2734 0,1.0206 0.3886,1.7616 1.1789,2.2529 0.442,0.2744 0.7801,0.3617 1.4173,0.3658 6.9397,0.0412 5.2048,0.034 12.1441,0.0545 3.8173,0.0124 3.9858,-0.0061 4.6918,-0.5211 0.7328,-0.5324 1.0237,-1.1665 1.0381,-2.258"/>
   <line id="_284496016" class="fil0 str0" x1="30.2436" y1="48.4069" x2="30.2456" y2= "48.1736" />
   <line id="_284494816" class="fil0 str0" x1="8.76" y1="26.098" x2="8.6655" y2= "26.0754" />
   <path id="_285706488" class="fil0 str0" d="M8.6655 26.0754c0.0205,-0.0565 0.0462,-0.0791 0.0945,-0.0801 -0.0041,-0.4225 -0.0041,-0.3166 -0.0051,-0.74 -0.0021,-0.5448 0.0761,-0.6825 0.3865,-0.6825 0.3155,0 0.3607,0.111 0.3658,0.8921"/>
   <line id="_285706416" class="fil0 str0" x1="9.5072" y1="25.4649" x2="9.5134" y2= "26.2841" />
   <path id="_285706200" class="fil0 str0" d="M9.5134 26.2841c0.0041,0.7122 -0.0072,0.9651 -0.0534,1.1244 -0.0247,0.0863 -0.0607,0.1398 -0.1151,0.1696 -0.0463,0.0246 -0.1059,0.0349 -0.2107,0.0349 -0.3258,0 -0.3834,-0.1264 -0.3834,-0.8469 0,-0.3032 0.0062,-0.6537 0.0164,-0.8942"/>
   <path id="_285705936" class="fil0 str0" d="M8.76 19.9212l0.0072 -0.1017 -0.0072 0m0 0.1017z"/>
   <path id="_285706512" class="fil0 str0" d="M8.76 19.8195c-0.0092,-1.1583 -0.0082,-0.8685 -0.0133,-2.0258 -0.0031,-0.6095 0.0082,-0.8191 0.0493,-0.9075 0.0565,-0.1223 0.1891,-0.1994 0.3433,-0.1994"/>
   <line id="_285705984" class="fil0 str0" x1="9.1393" y1="16.6868" x2="9.1691" y2= "16.6868" />
   <path id="_285706536" class="fil0 str0" d="M9.1691 16.6868c0.1275,-0.001 0.1686,0.0082 0.2097,0.0452 0.0534,0.0473 0.0863,0.1439 0.1079,0.3196 0.038,0.3094 0.0452,0.7051 0.0452,2.5623"/>
   <line id="_285706032" class="fil0 str0" x1="9.5319" y1="19.6139" x2="9.5319" y2= "19.8513" />
   <path id="_46977904" class="fil0 str0" d="M9.5319 19.8513c0,1.5456 -0.0185,2.8571 -0.0411,3.003 -0.0288,0.1891 -0.148,0.2827 -0.3566,0.2827 -0.2025,0 -0.3341,-0.1018 -0.3649,-0.2837 -0.0134,-0.0802 -0.0226,-0.6434 -0.0226,-1.3844 0,-0.7008 0.0082,-1.4079 0.0205,-1.7738"/>
   <path id="_244980408" class="fil0 str1" d="M13.362 12.06l0 0c0.8602,0 1.5578,0.718 1.5578,1.6033l-0.0001 5.5463c0.0001,0.8853 -0.6975,1.6032 -1.5576,1.6032l-0.0001 0c-0.86,0 -1.5576,-0.7179 -1.5576,-1.6032l-0.0001 -5.5463c0.0001,-0.8853 0.6977,-1.6033 1.5578,-1.6033l-0.0001 0z"/>
   <path id="_245571560" class="fil0 str0" d="M31.3651 15.9086l0.0074 -0.1064 -0.0074 0m0 0.1064z"/>
   <path id="_245571536" class="fil0 str0" d="M31.3651 15.8022c0.0064,-0.5891 0.0106,-1.1782 0.0138,-1.7684 0.0032,-0.7561 -0.0181,-0.8975 -0.1542,-1.0251 -0.0755,-0.0702 -0.1967,-0.1127 -0.3243,-0.1127 -0.2021,0 -0.3626,0.1031 -0.4126,0.2648 -0.0468,0.1531 -0.05,0.3477 -0.05,2.7138"/>
   <line id="_245571488" class="fil0 str0" x1="30.4378" y1="15.8746" x2="30.4378" y2= "17.5611" />
   <path id="_284284656" class="fil0 str0" d="M30.4378 17.5611c0,0.3637 0.0021,0.5891 0.0096,0.7443 0.0064,0.1552 0.0149,0.2499 0.0297,0.3105 0.0117,0.0468 0.0234,0.0702 0.0575,0.1191"/>
   <line id="_245571176" class="fil0 str0" x1="30.5346" y1="18.735" x2="30.5452" y2= "18.7499" />
   <path id="_285705072" class="fil0 str0" d="M30.5452 18.7499c0.0702,0.0989 0.2053,0.1595 0.3584,0.1595 0.3115,0 0.4498,-0.1574 0.4636,-0.5285"/>
   <line id="_285705048" class="fil0 str0" x1="31.3672" y1="18.3809" x2="31.3672" y2= "15.9841" />
   <path id="_285704832" class="fil0 str0" d="M31.3672 15.9841c0,-0.1404 0.0011,-0.2095 0.0053,-0.3095"/>
   <line id="_244979760" class="fil1 str2" x1="13.1538" y1="20.8178" x2="13.1538" y2= "20.9131" />
   <path id="_244979064" class="fil1 str2" d="M13.3227 22.8141c-0.4932,-0.0642 -0.7584,-0.3284 -0.7584,-0.7552 0,-0.4217 0.3367,-0.7604 0.7573,-0.7604 0.4144,0 0.7553,0.3418 0.7553,0.7573 0,0.4289 -0.3233,0.748 -0.7573,0.748 -0.0643,0 -0.0736,-0.0011 -0.2466,-0.0187"/>
   <line id="_244980216" class="fil1 str2" x1="30.4562" y1="25.8575" x2="30.364" y2= "25.8435" />
   <path id="_244980504" class="fil1 str2" d="M30.364 25.8435c0.019,-0.0622 0.0441,-0.0852 0.0922,-0.0852"/>
   <line id="_244980696" class="fil1 str2" x1="30.4562" y1="25.7583" x2="30.4522" y2= "25.0318" />
   <path id="_244980816" class="fil1 str2" d="M30.4522 25.0318c-0.003,-0.5321 0.0731,-0.6674 0.3737,-0.6674 0.1624,0 0.2776,0.0792 0.3177,0.2195 0.0351,0.1222 0.0421,0.3357 0.0411,1.2506 0,0.8166 -0.003,1.007 -0.017,1.1603 -0.0081,0.0862 -0.0191,0.1403 -0.0371,0.1794 -0.014,0.0301 -0.0281,0.0491 -0.0692,0.0872 -0.0521,0.0471 -0.1433,0.0772 -0.2405,0.0772 -0.3196,0 -0.3737,-0.1203 -0.3737,-0.8208 0,-0.2885 0.006,-0.6272 0.016,-0.8808"/>
  </g>
 </g>
</svg>
