<?xml version="1.0" encoding="UTF-8"?>
<!DOCTYPE svg PUBLIC "-//W3C//DTD SVG 1.1//EN" "http://www.w3.org/Graphics/SVG/1.1/DTD/svg11.dtd">
<!-- Creator: CorelDRAW X8 -->
<svg xmlns="http://www.w3.org/2000/svg" xml:space="preserve" width="40mm" height="60mm" version="1.1" style="shape-rendering:geometricPrecision; text-rendering:geometricPrecision; image-rendering:optimizeQuality; fill-rule:evenodd; clip-rule:evenodd"
viewBox="0 0 4000 6000"
 xmlns:xlink="http://www.w3.org/1999/xlink">
 <defs>
  <style type="text/css">
   <![CDATA[
    .str0 {stroke:#332C2B;stroke-width:7.62}
    .fil0 {fill:none}
   ]]>
  </style>
 </defs>
 <g id="图层_x0020_1">
  <metadata id="CorelCorpID_0Corel-Layer"/>
  <path class="fil0 str0" d="M1369 1038c99,0 179,81 179,180 0,99 -80,179 -179,179 -99,0 -179,-80 -179,-179 0,-99 80,-180 179,-180zm421 -2c99,0 179,80 179,179 0,99 -80,179 -179,179 -99,0 -179,-80 -179,-179 0,-99 80,-179 179,-179zm3 448c99,0 179,80 179,179 0,99 -80,180 -179,180 -99,0 -179,-81 -179,-180 0,-99 80,-179 179,-179zm-422 3c99,0 179,80 179,179 0,99 -80,180 -179,180 -99,0 -179,-81 -179,-180 0,-99 80,-179 179,-179zm-75 -531l567 0c103,0 187,84 187,187l0 592c0,103 -84,187 -187,187l-567 0c-103,0 -187,-84 -187,-187l0 -592c0,-103 84,-187 187,-187zm8 38l553 0c88,0 161,73 161,162l0 569c0,89 -73,162 -161,162l-553 0c-89,0 -162,-73 -162,-162l0 -569c0,-89 73,-162 162,-162zm-388 971l0 0c19,0 34,16 34,34l0 464c0,19 -15,34 -34,34l0 0c-19,0 -34,-15 -34,-34l0 -464c0,-18 15,-34 34,-34zm2046 -887l-2 -363 215 -2 0 488 -92 0c-19,0 -34,16 -34,35l0 430c0,19 15,35 34,35l92 0 0 3568 -213 -1 0 -345c0,110 -78,202 -182,224l0 203 -1537 0 0 -198c-121,-7 -217,-107 -217,-229l0 345 -201 0 0 -2258 115 0c22,0 40,-18 40,-40l0 -379c0,-22 -18,-40 -40,-40l-115 0 0 -1837 201 0 0 365c0,-121 93,-220 212,-229l0 -200 1508 0 0 199c120,7 216,107 216,229zm-1026 4127l162 0c24,0 43,19 43,42l0 0c0,24 -19,43 -43,43l-162 0c-23,0 -42,-19 -42,-43l0 0c0,-23 19,-42 42,-42zm-641 29l254 0c14,0 25,12 25,25l0 0c0,14 -11,25 -25,25l-254 0c-13,0 -25,-11 -25,-25l0 0c0,-13 12,-25 25,-25zm1262 -50c31,0 57,26 57,58 0,31 -26,57 -57,57 -32,0 -58,-26 -58,-57 0,-32 26,-58 58,-58zm-225 59c14,0 25,11 25,25 0,13 -11,24 -25,24 -13,0 -24,-11 -24,-24 0,-14 11,-25 24,-25z"/>
 </g>
</svg>
