<?xml version="1.0" encoding="UTF-8"?>
<!DOCTYPE svg PUBLIC "-//W3C//DTD SVG 1.1//EN" "http://www.w3.org/Graphics/SVG/1.1/DTD/svg11.dtd">
<!-- Creator: CorelDRAW X8 -->
<svg xmlns="http://www.w3.org/2000/svg" xml:space="preserve" width="40mm" height="60mm" version="1.1" style="shape-rendering:geometricPrecision; text-rendering:geometricPrecision; image-rendering:optimizeQuality; fill-rule:evenodd; clip-rule:evenodd"
viewBox="0 0 4000 6000"
 xmlns:xlink="http://www.w3.org/1999/xlink">
 <defs>
  <style type="text/css">
   <![CDATA[
    .str0 {stroke:black;stroke-width:7.62}
    .fil0 {fill:none}
   ]]>
  </style>
 </defs>
 <g id="图层_x0020_1">
  <metadata id="CorelCorpID_0Corel-Layer"/>
  <path class="fil0 str0" d="M955 5350l1895 0c134,0 245,-110 245,-245l0 -4210c0,-135 -111,-245 -245,-245l-306 0c-9,0 -11,0 -16,7l-17 20c-6,6 -11,9 -21,9l-372 0c-22,0 -38,8 -38,34l0 64c0,43 -35,78 -78,78l0 0c-43,0 -78,-35 -78,-78l0 -53c0,-36 -25,-45 -46,-45l-351 0c-12,0 -17,-2 -24,-9l-18 -20c-6,-6 -9,-7 -20,-7l-315 0c-134,0 -245,110 -245,245l0 4210c0,135 111,245 245,245l267 0"/>
 </g>
</svg>
