<?xml version="1.0" encoding="UTF-8"?>
<!DOCTYPE svg PUBLIC "-//W3C//DTD SVG 1.1//EN" "http://www.w3.org/Graphics/SVG/1.1/DTD/svg11.dtd">
<!-- Creator: CorelDRAW 2020 (64-Bit) -->
<svg xmlns="http://www.w3.org/2000/svg" xml:space="preserve" width="40mm" height="60mm" version="1.1" style="shape-rendering:geometricPrecision; text-rendering:geometricPrecision; image-rendering:optimizeQuality; fill-rule:evenodd; clip-rule:evenodd"
viewBox="0 0 4000 6000"
 xmlns:xlink="http://www.w3.org/1999/xlink"
 xmlns:xodm="http://www.corel.com/coreldraw/odm/2003">
 <defs>
  <style type="text/css">
   <![CDATA[
    .str0 {stroke:#222222;stroke-width:7.62;stroke-miterlimit:22.9256}
    .fil0 {fill:none}
   ]]>
  </style>
   <clipPath id="id0">
    <rect x="-49653.64" y="-8326.34" width="4410.61" height="16568.58"/>
   </clipPath>
 </defs>
 <g id="图层_x0020_1">
  <metadata id="CorelCorpID_0Corel-Layer"/>
  <g style="clip-path:url(#id0)">
   <image x="-49653.64" y="-8326.34" width="4410.61" height="16568.57" xlink:href="A16e-11i（背膜半包）_Images\A16e-11i（背膜半包）_ImgID1.png"/>
  </g>
  <path class="fil0 str0" d="M-3116.92 6569.98l0 -6314.47c0,-439.98 -360.02,-799.99 -800,-799.99l-0.79 -564.02c-0.03,-27.49 -22.52,-50 -50,-50l-11581.84 0 0 287.82c0,54.99 -45,99.99 -100,99.99l-1782.32 0c-55,0 -100,-45 -100,-99.99l0 -287.82 -869.7 0c-27.49,0 -50,22.5 -50,50l0 564.01c-439.99,0 -800.07,360 -800.07,800l0 5713.86c0,440 360.01,799.99 800,799.99l0.07 564.35c0,27.5 22.51,50 50,50l2579.45 0 0 -274.22c0,-54.99 45,-99.99 100,-99.99l1884.92 0c55,0 100,45 100,99.99l0 274.22 465.67 0 0 -274.22c0,-54.99 45,-99.99 100,-99.99l958.87 0c55,0 100,45 100,99.99l0 274.22 8144.95 0c27.49,0 49.96,-22.51 50,-50l0.79 -564.35c439.99,0 800,-360 800,-799.99 0,-439.99 63.15,-725.23 159.73,-845.62"/>
  <path class="fil0 str0" d="M-18738.51 5609.42l0 -1253.45c0,-354.93 290.39,-645.32 645.32,-645.32l1365.16 0c354.93,0 645.32,290.39 645.32,645.32l0 1253.45c0,354.93 -290.39,645.32 -645.32,645.32l-1365.16 0c-354.93,0 -645.32,-290.39 -645.32,-645.32z"/>
  <path class="fil0 str0" d="M-18455.99 5542.83c0,227.23 184.2,411.43 411.43,411.43 227.23,0 411.43,-184.2 411.43,-411.43 0,-227.23 -184.2,-411.43 -411.43,-411.43 -227.23,0 -411.43,184.2 -411.43,411.43 0,227.23 208.36,298.26 245.4,300.9"/>
  <path class="fil0 str0" d="M-17212.44 5542.83c0,227.23 184.2,411.43 411.43,411.43 227.23,0 411.43,-184.2 411.43,-411.43 0,-227.23 -184.2,-411.43 -411.43,-411.43 -227.23,0 -411.43,184.2 -411.43,411.43 0,227.23 261.27,303.53 314.19,314.12"/>
  <path class="fil0 str0" d="M-17021.93 4402.47c0,120.55 97.73,218.28 218.28,218.28 120.55,0 218.28,-97.73 218.28,-218.28 0,-120.55 -97.73,-218.28 -218.28,-218.28 -120.55,0 -218.28,97.73 -218.28,218.28 0,120.55 124.01,156.99 147.82,159.64"/>
  <path class="fil0 str0" d="M-18420.54 4402.88c0,101.62 83.13,184.75 184.75,184.75l766.54 0c101.62,0 184.75,-83.13 184.75,-184.75l0 -0.01c0,-101.62 -83.13,-184.75 -184.75,-184.75l-766.54 0c-101.63,0 -184.75,83.13 -184.75,184.76 0,101.63 118.31,145.69 148.08,148.34"/>
  <path class="fil0 str0" d="M-18636.15 5558.84l0 -1154.36c0,-326.86 267.42,-594.28 594.28,-594.28l1246.98 0c326.86,0 594.28,267.42 594.28,594.28l0 1154.36c0,326.86 -267.42,594.27 -594.28,594.27l-1246.98 0c-326.86,0 -594.28,-267.41 -594.28,-594.27z"/>
  <g id="_2718210317312">
   <path class="fil0 str0" d="M996.15 5309.6l1821.36 0c126.91,0 230.75,-103.85 230.75,-230.76l162.68 -0.23c7.93,0 14.43,-6.49 14.43,-14.42l0 -3340.68 -83.02 0c-15.86,0 -28.84,-12.98 -28.84,-28.85l0 -514.09c0,-15.87 12.98,-28.85 28.84,-28.85l83.02 0 0 -250.86c0,-7.93 -6.49,-14.42 -14.43,-14.42l-162.68 0c0,-126.91 -103.84,-230.77 -230.75,-230.77l-1648.12 0c-126.91,0 -230.75,103.84 -230.75,230.75l-162.78 0.02c-7.93,0 -14.42,6.49 -14.42,14.42l0 744.03 79.09 0c15.86,0 28.84,12.98 28.84,28.84l0 543.69c0,15.86 -12.98,28.84 -28.84,28.84l-79.09 0 0 134.32 79.09 0c15.86,0 28.84,12.98 28.84,28.85l0 276.57c0,15.87 -12.98,28.85 -28.84,28.85l-79.09 0 0 2349.34c0,7.93 6.49,14.41 14.42,14.42l162.78 0.23c0,126.91 103.84,230.76 230.75,230.76 126.91,0 209.19,18.21 243.91,46.07"/>
   <path class="fil0 str0" d="M1273.22 803.68l361.54 0c102.38,0 186.14,83.76 186.14,186.13l0 393.77c0,102.38 -83.76,186.14 -186.14,186.14l-361.54 0c-102.38,0 -186.14,-83.76 -186.14,-186.14l0 -393.77c0,-102.37 83.76,-186.13 186.14,-186.13z"/>
   <path class="fil0 str0" d="M1292.42 885.17c-65.54,0 -118.67,53.13 -118.67,118.67 0,65.54 53.13,118.67 118.67,118.67 65.55,0 118.68,-53.13 118.68,-118.67 0,-65.54 -53.13,-118.67 -118.68,-118.67 -65.54,0 -86.03,60.1 -86.79,70.78"/>
   <path class="fil0 str0" d="M1292.42 1243.86c-65.54,0 -118.67,53.13 -118.67,118.67 0,65.55 53.13,118.68 118.67,118.68 65.55,0 118.68,-53.13 118.68,-118.68 0,-65.54 -53.13,-118.67 -118.68,-118.67 -65.54,0 -87.55,75.36 -90.6,90.62"/>
   <path class="fil0 str0" d="M1621.35 1298.81c-34.77,0 -62.96,28.19 -62.96,62.96 0,34.77 28.19,62.96 62.96,62.96 34.77,0 62.96,-28.19 62.96,-62.96 0,-34.77 -28.19,-62.96 -62.96,-62.96 -34.77,0 -45.28,35.77 -46.05,42.64"/>
   <path class="fil0 str0" d="M1621.23 895.39c-29.31,0 -53.29,23.98 -53.29,53.29l0 221.1c0,29.32 23.98,53.29 53.29,53.29l0.01 0c29.31,0 53.28,-23.97 53.28,-53.29l0 -221.1c0,-29.31 -23.97,-53.29 -53.29,-53.29 -29.31,0 -42.02,34.13 -42.79,42.71"/>
   <path class="fil0 str0" d="M1287.81 833.2l332.96 0c94.28,0 171.42,77.14 171.42,171.42l0 359.68c0,94.28 -77.14,171.41 -171.42,171.41l-332.96 0c-94.28,0 -171.42,-77.13 -171.42,-171.41l0 -359.68c0,-94.28 77.14,-171.42 171.42,-171.42z"/>
  </g>
 </g>
</svg>
