<?xml version="1.0" encoding="UTF-8"?>
<!DOCTYPE svg PUBLIC "-//W3C//DTD SVG 1.1//EN" "http://www.w3.org/Graphics/SVG/1.1/DTD/svg11.dtd">
<!-- Creator: CorelDRAW X8 -->
<svg xmlns="http://www.w3.org/2000/svg" xml:space="preserve" width="40mm" height="60mm" version="1.1" style="shape-rendering:geometricPrecision; text-rendering:geometricPrecision; image-rendering:optimizeQuality; fill-rule:evenodd; clip-rule:evenodd"
viewBox="0 0 4000 6000"
 xmlns:xlink="http://www.w3.org/1999/xlink">
 <defs>
  <style type="text/css">
   <![CDATA[
    .str0 {stroke:black;stroke-width:18;stroke-linejoin:bevel}
    .fil0 {fill:none}
   ]]>
  </style>
 </defs>
 <g id="图层_x0020_1">
  <metadata id="CorelCorpID_0Corel-Layer"/>
  <path class="fil0 str0" d="M3177 4365c0,0 0,-3673 0,-3673 0,0 246,0 246,0 0,0 0,3673 0,3673 0,0 -246,0 -246,0zm-261 -2812c0,0 0,0 0,0 33,0 59,27 59,59 0,0 0,619 0,619 0,32 -26,59 -59,59 0,0 0,0 0,0 -32,0 -59,-27 -59,-59 0,0 0,-619 0,-619 0,-32 27,-59 59,-59zm-116 -858c0,0 232,0 232,0 8,0 15,6 15,14 0,0 0,4590 0,4590 0,8 -7,14 -15,14 0,0 -232,0 -232,0 -8,0 -15,-6 -15,-14 0,0 0,-4590 0,-4590 0,-8 7,-14 15,-14zm-238 295c0,0 0,0 0,0 24,0 43,19 43,43 0,0 0,157 0,157 0,23 -19,42 -43,42 0,0 0,0 0,0 -23,0 -42,-19 -42,-42 0,0 0,-157 0,-157 0,-24 19,-43 42,-43zm0 414c0,0 0,0 0,0 32,0 59,26 59,58 0,0 0,358 0,358 0,32 -27,58 -59,58 0,0 0,0 0,0 -32,0 -58,-26 -58,-58 0,0 0,-358 0,-358 0,-32 26,-58 58,-58zm0 561c0,0 0,0 0,0 32,0 59,26 59,58 0,0 0,358 0,358 0,32 -27,58 -59,58 0,0 0,0 0,0 -32,0 -58,-26 -58,-58 0,0 0,-358 0,-358 0,-32 26,-58 58,-58zm0 2272c0,0 0,0 0,0 35,0 64,29 64,64 0,0 0,536 0,536 0,35 -29,63 -64,63 0,0 0,0 0,0 -35,0 -64,-28 -64,-63 0,0 0,-536 0,-536 0,-35 29,-64 64,-64zm-130 1113c0,0 261,0 261,0 0,0 0,-4700 0,-4700 0,0 -261,0 -261,0 0,0 0,4700 0,4700 0,0 0,0 0,0zm-202 -3472c-24,0 -43,20 -43,43 0,0 0,188 0,188 0,23 19,42 43,42 23,0 43,-19 43,-42 0,0 0,-188 0,-188 0,-23 -20,-43 -43,-43zm0 390c-19,0 -35,16 -35,35 0,19 16,34 35,34 19,0 34,-15 34,-34 0,-19 -15,-35 -34,-35zm0 118c-32,0 -59,26 -59,59 0,0 0,240 0,240 0,33 27,59 59,59 32,0 59,-26 59,-59 0,0 0,-240 0,-240 0,-33 -27,-59 -59,-59zm0 399c-19,0 -35,15 -35,34 0,19 16,35 35,35 19,0 34,-16 34,-35 0,-19 -15,-34 -34,-34zm0 192c-24,0 -43,19 -43,43 0,0 0,358 0,358 0,23 19,43 43,43 24,0 43,-20 43,-43 0,0 0,-358 0,-358 0,-24 -19,-43 -43,-43zm-131 -2289c0,0 262,0 262,0 0,0 0,3739 0,3739 0,0 -262,0 -262,0 0,0 0,-3739 0,-3739zm-444 3677c0,0 0,-3673 0,-3673 0,0 246,0 246,0 0,0 0,3673 0,3673 0,0 -246,0 -246,0zm-261 -2812c0,0 0,0 0,0 32,0 59,27 59,59 0,0 0,619 0,619 0,32 -27,59 -59,59 0,0 0,0 0,0 -33,0 -59,-27 -59,-59 0,0 0,-619 0,-619 0,-32 26,-59 59,-59zm-116 -858c0,0 232,0 232,0 8,0 15,6 15,14 0,0 0,4590 0,4590 0,8 -7,14 -15,14 0,0 -232,0 -232,0 -8,0 -15,-6 -15,-14 0,0 0,-4590 0,-4590 0,-8 7,-14 15,-14zm-238 295c0,0 0,0 0,0 23,0 43,19 43,43 0,0 0,157 0,157 0,23 -20,42 -43,42 0,0 0,0 0,0 -24,0 -43,-19 -43,-42 0,0 0,-157 0,-157 0,-24 19,-43 43,-43zm0 414c0,0 0,0 0,0 32,0 59,26 59,58 0,0 0,358 0,358 0,32 -27,58 -59,58 0,0 0,0 0,0 -32,0 -59,-26 -59,-58 0,0 0,-358 0,-358 0,-32 27,-58 59,-58zm0 561c0,0 0,0 0,0 32,0 59,26 59,58 0,0 0,358 0,358 0,32 -27,58 -59,58 0,0 0,0 0,0 -32,0 -59,-26 -59,-58 0,0 0,-358 0,-358 0,-32 27,-58 59,-58zm0 2272c0,0 0,0 0,0 35,0 64,29 64,64 0,0 0,536 0,536 0,35 -29,63 -64,63 0,0 0,0 0,0 -35,0 -64,-28 -64,-63 0,0 0,-536 0,-536 0,-35 29,-64 64,-64zm-131 1113c0,0 262,0 262,0 0,0 0,-4700 0,-4700 0,0 -262,0 -262,0 0,0 0,4700 0,4700 0,0 0,0 0,0zm-201 -3472c-24,0 -43,20 -43,43 0,0 0,188 0,188 0,23 19,42 43,42 23,0 42,-19 42,-42 0,0 0,-188 0,-188 0,-23 -19,-43 -42,-43zm0 390c-20,0 -35,16 -35,35 0,19 15,34 35,34 19,0 34,-15 34,-34 0,-19 -15,-35 -34,-35zm0 118c-33,0 -59,26 -59,59 0,0 0,240 0,240 0,33 26,59 59,59 32,0 58,-26 58,-59 0,0 0,-240 0,-240 0,-33 -26,-59 -58,-59zm0 399c-20,0 -35,15 -35,34 0,19 15,35 35,35 19,0 34,-16 34,-35 0,-19 -15,-34 -34,-34zm0 192c-24,0 -44,19 -44,43 0,0 0,358 0,358 0,23 20,43 44,43 23,0 43,-20 43,-43 0,0 0,-358 0,-358 0,-24 -20,-43 -43,-43zm-131 -2289c0,0 261,0 261,0 0,0 0,3739 0,3739 0,0 -261,0 -261,0 0,0 0,-3739 0,-3739z"/>
 </g>
</svg>
