<?xml version="1.0" encoding="UTF-8"?>
<!DOCTYPE svg PUBLIC "-//W3C//DTD SVG 1.1//EN" "http://www.w3.org/Graphics/SVG/1.1/DTD/svg11.dtd">
<!-- Creator: CorelDRAW 2020 (64-Bit) -->
<svg xmlns="http://www.w3.org/2000/svg" xml:space="preserve" width="40mm" height="60mm" version="1.1" style="shape-rendering:geometricPrecision; text-rendering:geometricPrecision; image-rendering:optimizeQuality; fill-rule:evenodd; clip-rule:evenodd"
viewBox="0 0 4000 6000"
 xmlns:xlink="http://www.w3.org/1999/xlink"
 xmlns:xodm="http://www.corel.com/coreldraw/odm/2003">
 <defs>
  <style type="text/css">
   <![CDATA[
    .str0 {stroke:#E72D28;stroke-width:20;stroke-miterlimit:22.9256}
    .str1 {stroke:#222222;stroke-width:20;stroke-miterlimit:22.9256}
    .fil0 {fill:none}
   ]]>
  </style>
   <clipPath id="id0">
    <rect x="-51364.71" y="-8165.41" width="12241.38" height="22330.82"/>
   </clipPath>
   <clipPath id="id1">
    <rect x="-33816.66" y="-7028.76" width="8701.62" height="17591.41"/>
   </clipPath>
 </defs>
 <g id="图层_x0020_1">
  <metadata id="CorelCorpID_0Corel-Layer"/>
  <g style="clip-path:url(#id0)">
   <image x="-51364.71" y="-8165.41" width="12241.38" height="22330.82" xlink:href="i80-11i（前膜带壳）_Images\i80-11i（前膜带壳）_ImgID1.png"/>
  </g>
  <g style="clip-path:url(#id1)">
   <image x="-33816.66" y="-7028.76" width="8701.63" height="17591.41" xlink:href="i80-11i（前膜带壳）_Images\i80-11i（前膜带壳）_ImgID2.png"/>
  </g>
  <rect class="fil0 str0" x="-33213.81" y="-5836.82" width="7397" height="15615"/>
  <path class="fil0 str0" d="M-32327.11 -5582.81l1432.56 0c48.95,0 127.67,56.86 161.13,56.86l729.24 0c96.97,0 136.64,20.95 148.55,151.48 11.91,130.53 97.14,330.73 330.73,330.73 233.59,0 324.11,-212.11 330.73,-330.73 6.62,-118.62 55.56,-151.48 169.72,-151.48l744.27 0c33.46,0 105.56,-56.86 176,-56.86l1400.68 0c385,0 700,315.02 700,700l0 13748.74c0,385 -315,700 -700,700l-5623.61 0c-385,0 -699.99,-315 -699.99,-700l0 -13748.74c0,-385.01 314.99,-700 699.99,-700z"/>
  <path class="fil0 str1" d="M-3469.5 6135.72l0 -6171.95c0,-379.51 -312.93,-690.03 -695.38,-690.03l-13657.94 0c-382.44,0 -695.38,310.52 -695.38,690.03l0 1380.74c0,69.44 56.48,140.51 56.48,173.5l0 733.67c0,112.53 32.65,160.78 150.48,167.3 117.84,6.53 328.55,95.76 328.55,326.02 0,230.27 -198.88,314.28 -328.55,326.02 -129.66,11.74 -150.48,50.85 -150.48,146.44l0 718.86c0,32.98 -56.48,110.58 -56.48,158.83l0 1412.17c0,379.51 312.91,690.02 695.38,690.02l13657.94 0c382.46,0 695.38,-310.51 695.38,-690.02 0,-379.51 13.66,-1102.77 285.51,-1259.72"/>
  <path class="fil0 str1" d="M965.92 5270.63l1884.07 0c117.29,0 213.25,-95.97 213.25,-213.25l0 -4188.46c0,-117.28 -95.96,-213.25 -213.25,-213.25l-426.7 0c-21.46,0 -43.43,17.32 -53.62,17.32l-226.74 0c-34.77,0 -49.68,10.01 -51.7,46.15 -2.02,36.13 -29.59,100.75 -100.75,100.75 -71.17,0 -97.13,-60.99 -100.76,-100.75 -3.63,-39.77 -15.71,-46.15 -45.25,-46.15l-222.16 0c-10.19,0 -34.18,-17.32 -49.09,-17.32l-436.42 0c-117.29,0 -213.24,95.96 -213.24,213.25l0 4188.46c0,117.28 95.95,213.25 213.24,213.25 117.29,0 299.89,36.6 383.79,85.04"/>
 </g>
</svg>
