<?xml version="1.0" encoding="UTF-8"?>
<!DOCTYPE svg PUBLIC "-//W3C//DTD SVG 1.1//EN" "http://www.w3.org/Graphics/SVG/1.1/DTD/svg11.dtd">
<!-- Creator: CorelDRAW X8 -->
<svg xmlns="http://www.w3.org/2000/svg" xml:space="preserve" width="40mm" height="60mm" version="1.1" style="shape-rendering:geometricPrecision; text-rendering:geometricPrecision; image-rendering:optimizeQuality; fill-rule:evenodd; clip-rule:evenodd"
viewBox="0 0 4000 6000"
 xmlns:xlink="http://www.w3.org/1999/xlink">
 <defs>
  <style type="text/css">
   <![CDATA[
    .str0 {stroke:#222222;stroke-width:20}
    .fil0 {fill:none}
   ]]>
  </style>
 </defs>
 <g id="图层_x0020_1">
  <metadata id="CorelCorpID_0Corel-Layer"/>
  <g id="_2457278330576">
   <path class="fil0 str0" d="M907 5236l1928 0c142,0 258,-116 258,-258l0 -4070c0,-142 -116,-258 -258,-258l-1630 0c-142,0 -259,116 -259,258l0 4070c0,142 117,258 259,258 142,0 273,77 273,114"/>
   <path class="fil0 str0" d="M1407 792c0,-9 11,-84 51,-84 40,0 72,32 72,71 0,40 -32,72 -72,72 -40,0 -72,-32 -72,-72 0,-39 32,-71 72,-71"/>
   <path class="fil0 str0" d="M1985 816c0,-50 -80,-100 -117,-100 -36,0 -66,30 -66,66l0 0c0,37 30,67 66,67l696 0c37,0 67,-30 67,-67l0 0c0,-36 -30,-66 -67,-66l-696 0"/>
  </g>
  <path class="fil0 str0" d="M-8643 4760c-185,0 -422,430 -422,856 0,427 -355,776 -789,776l-12426 0c-433,0 -788,-349 -788,-776l0 -4897c0,-427 355,-776 788,-776l12426 0c434,0 789,349 789,776l0 5846"/>
  <path class="fil0 str0" d="M-22729 5066c-28,0 -261,-35 -261,-158 0,-123 100,-222 223,-222 123,0 222,99 222,222 0,123 -99,223 -222,223 -123,0 -223,-100 -223,-223"/>
  <path class="fil0 str0" d="M-22653 3276c-157,0 -312,248 -312,361 0,114 93,207 207,207l0 0c114,0 207,-93 207,-207l0 -2156c0,-114 -93,-207 -207,-207l0 0c-114,0 -207,93 -207,207l0 2156"/>
 </g>
</svg>
