<?xml version="1.0" encoding="UTF-8"?>
<!DOCTYPE svg PUBLIC "-//W3C//DTD SVG 1.1//EN" "http://www.w3.org/Graphics/SVG/1.1/DTD/svg11.dtd">
<!-- Creator: CorelDRAW X8 -->
<svg xmlns="http://www.w3.org/2000/svg" xml:space="preserve" width="40mm" height="60mm" version="1.1" style="shape-rendering:geometricPrecision; text-rendering:geometricPrecision; image-rendering:optimizeQuality; fill-rule:evenodd; clip-rule:evenodd"
viewBox="0 0 4000 6000"
 xmlns:xlink="http://www.w3.org/1999/xlink">
 <defs>
  <style type="text/css">
   <![CDATA[
    .str0 {stroke:black;stroke-width:7.62}
    .fil0 {fill:none}
   ]]>
  </style>
 </defs>
 <g id="图层_x0020_1">
  <metadata id="CorelCorpID_0Corel-Layer"/>
  <path class="fil0 str0" d="M3132 1386l408 0c50,0 90,41 90,91l0 1053c0,50 -40,91 -90,91l-408 0c-50,0 -91,-41 -91,-91l0 -1053c0,-50 41,-91 91,-91zm-316 601l0 0c13,0 23,10 23,22l0 805c0,12 -10,22 -23,22l0 0c-12,0 -22,-10 -22,-22l0 -805c0,-12 10,-22 22,-22zm-894 -668c21,0 39,17 39,39 0,22 -18,40 -39,40 -22,0 -40,-18 -40,-40 0,-22 18,-39 40,-39zm-1733 -58l639 0c68,0 126,41 149,106 11,31 41,53 75,53l0 0c36,0 66,-24 76,-57 20,-68 81,-113 152,-113l1320 0c71,0 132,45 152,113 10,33 40,57 76,57l0 0c35,0 64,-22 75,-53 23,-65 81,-106 149,-106l645 0c4,0 7,3 7,7l0 7 0 75c0,3 2,5 5,6l86 27 18 5c3,1 5,4 5,7l0 171c0,3 -2,6 -5,7l-18 6 -86 26c-3,1 -5,4 -5,7l0 86 0 86c0,3 2,5 5,6l86 27 18 5c3,1 5,4 5,7l0 172c0,3 -2,5 -5,6l-18 6 -86 27c-3,0 -5,3 -5,6l0 86 0 86c0,3 2,6 5,7l86 26 18 6c3,1 5,3 5,6l0 172c0,3 -2,5 -5,6l-18 6 -86 27c-3,0 -5,3 -5,6l0 86 0 86c0,3 2,6 5,7l86 26 18 6c3,1 5,3 5,6l0 172c0,3 -2,6 -5,6l-18 6 -86 27c-3,1 -5,3 -5,6l0 86 0 86c0,3 2,6 5,7l86 26 18 6c3,1 5,3 5,6l0 172c0,3 -2,5 -5,6l-18 6 -86 27c-3,0 -5,3 -5,6l0 86 0 86c0,3 2,6 5,7l86 26 18 6c3,1 5,3 5,6l0 172c0,3 -2,5 -5,6l-18 6 -86 27c-3,1 -5,3 -5,6l0 86 0 86c0,3 2,6 5,7l86 26 18 6c3,1 5,3 5,6l0 172c0,3 -2,6 -5,7l-18 5 -86 27c-3,1 -5,3 -5,6l0 86 0 86c0,3 2,6 5,7l86 27 18 5c3,1 5,4 5,7l0 171c0,3 -2,6 -5,7l-18 5 -86 27c-3,1 -5,3 -5,7l0 74 0 7c0,4 -3,7 -7,7l-644 0c-69,0 -127,-42 -150,-106 -11,-31 -40,-54 -75,-54l0 0c-36,0 -66,24 -76,57 -20,69 -81,114 -152,114l-1320 0c-71,0 -132,-45 -152,-114 -10,-33 -40,-57 -76,-57l0 0c-35,0 -64,23 -75,54 -23,64 -81,106 -150,106l-638 0c-4,0 -7,-3 -7,-7l0 -81c0,-3 2,-6 5,-7l18 -6 86 -26c3,-1 5,-4 5,-7l0 -86 0 -86c0,-3 -2,-5 -5,-6l-86 -27 -18 -6c-3,0 -5,-3 -5,-6l0 -172c0,-3 2,-5 5,-6l18 -6 86 -26c3,-1 5,-4 5,-7l0 -86 0 -86c0,-3 -2,-5 -5,-6l-86 -27 -18 -6c-3,0 -5,-3 -5,-6l0 -172c0,-3 2,-5 5,-6l18 -6 86 -27c3,0 5,-3 5,-6l0 -86 0 -86c0,-3 -2,-6 -5,-7l-86 -26 -18 -6c-3,-1 -5,-3 -5,-6l0 -172c0,-3 2,-5 5,-6l18 -6 86 -27c3,-1 5,-3 5,-6l0 -86 0 -86c0,-3 -2,-6 -5,-7l-86 -26 -18 -6c-3,-1 -5,-3 -5,-6l0 -172c0,-3 2,-5 5,-6l18 -6 86 -27c3,0 5,-3 5,-6l0 -86 0 -86c0,-3 -2,-6 -5,-7l-86 -26 -18 -6c-3,-1 -5,-3 -5,-6l0 -172c0,-3 2,-5 5,-6l18 -6 86 -27c3,-1 5,-3 5,-6l0 -86 0 -86c0,-3 -2,-6 -5,-7l-86 -26 -18 -6c-3,-1 -5,-3 -5,-6l0 -172c0,-3 2,-5 5,-6l18 -6 86 -27c3,-1 5,-3 5,-6l0 -86 0 -86c0,-3 -2,-6 -5,-7l-86 -26 -18 -6c-3,-1 -5,-3 -5,-6l0 -172c0,-3 2,-6 5,-7l18 -6 86 -26c3,-1 5,-4 5,-7l0 -86 0 -86c0,-3 -2,-5 -5,-6l-86 -27 -18 -5c-3,-1 -5,-4 -5,-7l0 -81c0,-4 3,-7 7,-7z"/>
 </g>
</svg>
