<?xml version="1.0" encoding="UTF-8"?>
<!DOCTYPE svg PUBLIC "-//W3C//DTD SVG 1.1//EN" "http://www.w3.org/Graphics/SVG/1.1/DTD/svg11.dtd">
<!-- Creator: CorelDRAW 2020 (64-Bit) -->
<svg xmlns="http://www.w3.org/2000/svg" xml:space="preserve" width="40mm" height="60mm" version="1.1" style="shape-rendering:geometricPrecision; text-rendering:geometricPrecision; image-rendering:optimizeQuality; fill-rule:evenodd; clip-rule:evenodd"
viewBox="0 0 4000 6000"
 xmlns:xlink="http://www.w3.org/1999/xlink"
 xmlns:xodm="http://www.corel.com/coreldraw/odm/2003">
 <defs>
  <style type="text/css">
   <![CDATA[
    .str0 {stroke:black;stroke-width:7.62;stroke-miterlimit:22.9256}
    .fil0 {fill:none}
   ]]>
  </style>
 </defs>
 <g id="图层_x0020_1">
  <metadata id="CorelCorpID_0Corel-Layer"/>
  <path class="fil0 str0" d="M1471.63 947.55c6.74,-43.33 -29.69,-73.7 -47.77,-75.1 -64.31,0 -116.43,52.13 -116.43,116.44 0,64.3 52.12,116.43 116.43,116.43 64.31,0 116.43,-52.13 116.43,-116.43 0,-64.31 -52.12,-116.44 -116.43,-116.44m50.68 442.03c6.74,-43.33 -29.69,-73.7 -47.77,-75.09 -64.3,0 -116.43,52.12 -116.43,116.43 0,64.31 52.13,116.43 116.43,116.43 64.31,0 116.43,-52.12 116.43,-116.43 0,-64.31 -52.12,-116.43 -116.43,-116.43m47.77 518.54c6.74,-43.34 -29.69,-73.7 -47.77,-75.1 -64.3,0 -116.43,52.13 -116.43,116.43 0,64.31 52.13,116.44 116.43,116.44 64.31,0 116.43,-52.13 116.43,-116.44 0,-64.3 -52.12,-116.43 -116.43,-116.43m50.68 352.01c6.74,-43.33 -29.69,-73.7 -47.77,-75.1 -64.3,0 -116.43,52.13 -116.43,116.44 0,64.3 52.13,116.43 116.43,116.43 64.31,0 116.44,-52.13 116.44,-116.43 0,-64.31 -52.13,-116.44 -116.44,-116.44m-38.55 -1163.61l71.64 0c175.38,0 303.88,121.78 304.32,255.54l3.35 1028.37c0.45,136.85 -138.47,252.37 -307.67,252.37l-71.64 0c-169.2,0 -307.68,-118.57 -307.68,-252.37l0 -1011.43c0,-150.74 138.45,-272.48 307.68,-272.48zm0.93 -64.52l66.63 0c198.27,0 360.48,133.16 360.48,331.37l0 1004.05c0,198.2 -162.27,331.37 -360.48,331.37l-66.63 0c-198.21,0 -360.48,-133.11 -360.48,-331.37l0 -1004.05c0,-198.27 162.21,-331.37 360.48,-331.37zm-450.46 4594.8l1887.77 0c138.02,0 252.07,-107.8 262.14,-243.36l65.68 0c8,0 14.55,-6.54 14.55,-14.55l0 -4157.48c0,-8.01 -6.55,-14.55 -14.55,-14.55l-65.89 0c-11.31,-134.35 -124.78,-240.8 -261.93,-240.8l-1671.94 0c-137.15,0 -250.62,106.45 -261.93,240.8l-65.89 0c-8.01,0 -14.56,6.54 -14.56,14.55l0 938.21c0,8.01 6.54,14.55 14.56,14.55l23.05 0c19.06,0 34.66,15.59 34.66,34.65l0 1034.08c0,19.06 -15.6,34.65 -34.66,34.65l-23.05 0c-8.02,0 -14.56,6.53 -14.56,14.55l0 2086.79c0,8.01 6.55,14.55 14.56,14.55l65.68 0c10.07,135.56 124.12,243.36 262.14,243.36l46.03 0c144.29,0 213.09,15.29 222.58,29.26"/>
 </g>
</svg>
