<?xml version="1.0" encoding="UTF-8"?>
<!DOCTYPE svg PUBLIC "-//W3C//DTD SVG 1.1//EN" "http://www.w3.org/Graphics/SVG/1.1/DTD/svg11.dtd">
<!-- Creator: CorelDRAW X8 -->
<svg xmlns="http://www.w3.org/2000/svg" xml:space="preserve" width="40mm" height="60mm" version="1.1" style="shape-rendering:geometricPrecision; text-rendering:geometricPrecision; image-rendering:optimizeQuality; fill-rule:evenodd; clip-rule:evenodd"
viewBox="0 0 4000 6000"
 xmlns:xlink="http://www.w3.org/1999/xlink">
 <defs>
  <style type="text/css">
   <![CDATA[
    .str0 {stroke:#332C2B;stroke-width:7.62}
    .fil0 {fill:none}
   ]]>
  </style>
 </defs>
 <g id="图层_x0020_1">
  <metadata id="CorelCorpID_0Corel-Layer"/>
  <path class="fil0 str0" d="M922 5234l1898 0c142,0 258,-116 258,-258l0 -4068c0,-142 -116,-258 -258,-258l-1573 0c-142,0 -258,116 -258,258l0 4068c0,142 116,258 258,258 142,0 298,56 298,116m10 -4624c34,0 62,27 62,61 0,34 -28,62 -62,62 -34,0 -62,-28 -62,-62 0,-34 28,-61 62,-61zm363 24l235 0c16,0 29,13 29,28l0 0c0,16 -13,29 -29,29l-235 0c-16,0 -29,-13 -29,-29l0 0c0,-15 13,-28 29,-28zm480 -16c24,0 43,19 43,43 0,25 -19,44 -43,44 -24,0 -44,-19 -44,-44 0,-24 20,-43 44,-43zm200 -5c26,0 48,21 48,48 0,27 -22,48 -48,48 -27,0 -49,-21 -49,-48 0,-27 22,-48 49,-48z"/>
 </g>
</svg>
