<?xml version="1.0" encoding="UTF-8"?>
<!DOCTYPE svg PUBLIC "-//W3C//DTD SVG 1.1//EN" "http://www.w3.org/Graphics/SVG/1.1/DTD/svg11.dtd">
<!-- Creator: CorelDRAW X8 -->
<svg xmlns="http://www.w3.org/2000/svg" xml:space="preserve" width="40mm" height="60mm" version="1.1" style="shape-rendering:geometricPrecision; text-rendering:geometricPrecision; image-rendering:optimizeQuality; fill-rule:evenodd; clip-rule:evenodd"
viewBox="0 0 4000 6000"
 xmlns:xlink="http://www.w3.org/1999/xlink">
 <defs>
  <style type="text/css">
   <![CDATA[
    .str0 {stroke:black;stroke-width:10}
    .fil0 {fill:none}
   ]]>
  </style>
 </defs>
 <g id="图层_x0020_1">
  <metadata id="CorelCorpID_0Corel-Layer"/>
  <path class="fil0 str0" d="M1021 5336l1810 0c114,0 207,-93 207,-207l0 -4272c0,-114 -93,-207 -207,-207l-718 0c-16,0 -28,9 -28,27l0 27c0,46 -38,84 -84,84l0 0c-46,0 -83,-38 -83,-84l0 -22c0,-24 -19,-32 -38,-32l-711 0c-114,0 -207,93 -207,207l0 4272c0,114 93,207 207,207 29,0 62,7 88,14"/>
 </g>
</svg>
