<?xml version="1.0" encoding="UTF-8"?>
<!DOCTYPE svg PUBLIC "-//W3C//DTD SVG 1.1//EN" "http://www.w3.org/Graphics/SVG/1.1/DTD/svg11.dtd">
<!-- Creator: CorelDRAW 2020 (64-Bit) -->
<svg xmlns="http://www.w3.org/2000/svg" xml:space="preserve" width="40mm" height="60mm" version="1.1" style="shape-rendering:geometricPrecision; text-rendering:geometricPrecision; image-rendering:optimizeQuality; fill-rule:evenodd; clip-rule:evenodd"
viewBox="0 0 4000 6000"
 xmlns:xlink="http://www.w3.org/1999/xlink"
 xmlns:xodm="http://www.corel.com/coreldraw/odm/2003">
 <defs>
  <style type="text/css">
   <![CDATA[
    .str0 {stroke:#332C2B;stroke-width:7.62;stroke-miterlimit:22.9256}
    .fil0 {fill:none;fill-rule:nonzero}
   ]]>
  </style>
 </defs>
 <g id="图层_x0020_1">
  <metadata id="CorelCorpID_0Corel-Layer"/>
  <g>
   <path class="fil0 str0" d="M545.11 1256.95c-165.41,0 -330.6,-0.1 -496.02,-0.1 -13.54,0 -24.59,11.04 -24.59,24.58l0 167.54c0,9.14 4.59,16.99 12.57,21.45l89.77 50.28c7.97,4.46 12.57,12.3 12.57,21.45l0 221.37c0,9.02 -4.46,16.75 -12.25,21.27l-91.04 52.8c-7.79,4.52 -12.25,12.26 -12.25,21.27l0 197.64c0,9.14 4.6,16.98 12.57,21.45l90.4 50.62c7.97,4.47 12.57,12.31 12.57,21.45l0 214.18c0,9.01 -4.46,16.75 -12.25,21.27l-91.04 52.8c-7.79,4.52 -12.25,12.25 -12.25,21.27l0 197.63c0,9.15 4.6,16.99 12.57,21.45l90.4 50.62c7.97,4.47 12.57,12.32 12.57,21.46l0 213.59c0,9.02 -4.46,16.75 -12.25,21.27l-91.04 52.8c-7.79,4.53 -12.25,12.26 -12.25,21.27l0 197.64c0,9.14 4.6,16.98 12.57,21.45l90.4 50.62c7.97,4.47 12.57,12.32 12.57,21.46l0 215.25c0,9.02 -4.46,16.75 -12.25,21.27l-91.04 52.8c-7.79,4.52 -12.25,12.26 -12.25,21.27l0 197.63c0,9.14 4.6,16.99 12.57,21.46l90.4 50.62c7.97,4.47 12.57,12.31 12.57,21.45l0 215.98c0,9.01 -4.46,16.75 -12.25,21.27l-88.58 51.37c-7.79,4.53 -12.25,12.26 -12.25,21.27l0 197.64c0,9.14 4.59,16.98 12.58,21.45l87.93 49.24c7.97,4.47 12.57,12.31 12.57,21.45l0 176.51c0,13.55 11.05,24.59 24.59,24.59l381.11 0c97.37,0 177.03,-79.66 177.03,-177.03 0,-15.08 -3.58,-35.14 12.3,-35.14l249.57 0c15.14,0 12.29,17.77 12.29,28.95 0,101.43 82.98,184.41 184.41,184.41l1278.56 0c101.43,0 184.41,-82.98 184.41,-184.41 0,-11.17 -2.85,-28.95 12.29,-28.95l249.02 0c16.13,0 12.3,20.93 12.3,37.49 0,97.36 79.66,177.03 177.03,177.03 281.34,0 562.68,0 844.02,0 13.55,0 24.59,-11.04 24.59,-24.59l0 -166.06c0,-9.17 -4.63,-17.04 -12.64,-21.49l-90.95 -50.58c-8,-4.46 -12.63,-12.32 -12.63,-21.49l0 -210.45c0,-9.01 4.46,-16.75 12.25,-21.27l91.72 -53.2c7.79,-4.52 12.25,-12.26 12.25,-21.27l0 -197.63c0,-9.15 -4.59,-16.99 -12.57,-21.45l-91.08 -51.01c-7.98,-4.47 -12.57,-12.31 -12.57,-21.45l0 -213.4c0,-9.01 4.46,-16.75 12.25,-21.27l91.72 -53.2c7.79,-4.51 12.25,-12.25 12.25,-21.26l0 -197.64c0,-9.14 -4.59,-16.99 -12.57,-21.45l-91.08 -51.01c-7.98,-4.46 -12.57,-12.3 -12.57,-21.45l0 -212.81c0,-9.01 4.46,-16.75 12.25,-21.27l91.72 -53.21c7.79,-4.52 12.25,-12.25 12.25,-21.27l0 -197.63c0,-9.14 -4.59,-16.98 -12.57,-21.45l-91.08 -51c-7.98,-4.47 -12.57,-12.32 -12.57,-21.45l0 -214.48c0,-9.01 4.46,-16.74 12.25,-21.27l91.72 -53.2c7.79,-4.52 12.25,-12.25 12.25,-21.27l0 -197.63c0,-9.14 -4.59,-16.99 -12.57,-21.45l-91.08 -51.01c-7.98,-4.46 -12.57,-12.31 -12.57,-21.45l0 -213.77c0,-9.01 4.46,-16.75 12.25,-21.27l91.72 -53.2c7.79,-4.52 12.25,-12.25 12.25,-21.26l0 -197.64c0,-9.14 -4.59,-16.99 -12.57,-21.45l-91.08 -51.01c-7.98,-4.47 -12.57,-12.31 -12.57,-21.46l0 -186.26c0,-13.52 -11.07,-24.58 -24.59,-24.58l-727.8 0c-97.37,0 -177.03,79.66 -177.03,177.03 0,12.67 3.16,31.35 -12.3,31.35l-249.02 0c-14.95,0 -12.29,-17.27 -12.29,-27.6 0,-101.42 -82.98,-184.41 -184.41,-184.41l-565.7 0c-13.55,0 -24.59,11.04 -24.59,24.59l0 73.65c0,27.05 -22.13,49.18 -49.17,49.18 -27.05,0 -49.18,-22.13 -49.18,-49.18l0 -73.65c0,-13.55 -11.05,-24.59 -24.59,-24.59l-565.33 0c-101.43,0 -184.41,82.99 -184.41,184.41 0,10.35 2.66,27.6 -12.29,27.6l-249.57 0c-15.73,0 -12.3,-19.54 -12.3,-33.71 0,-97.36 -79.66,-177.02 -177.03,-177.02zm2235.37 590.81c-23.66,0 -43.03,19.36 -43.03,43.02l0 454.88c0,23.67 19.37,43.03 43.03,43.03 23.67,0 43.03,-19.36 43.03,-43.03l0 -454.88c0,-23.66 -19.36,-43.02 -43.03,-43.02zm0 727.1c-23.66,0 -43.03,19.36 -43.03,43.02l0 233.59c0,23.66 19.37,43.03 43.03,43.03 23.67,0 43.03,-19.37 43.03,-43.03l0 -233.59c0,-23.66 -19.36,-43.02 -43.03,-43.02zm401.78 -1239.69c-102.53,0 -185.64,83.11 -185.64,185.64 0,102.52 83.11,185.63 185.64,185.63 102.52,0 185.63,-83.11 185.63,-185.63 0,-102.53 -83.11,-185.64 -185.63,-185.64zm0 398.21c-102.53,0 -185.64,83.11 -185.64,185.64 0,102.52 83.11,185.63 185.64,185.63 102.52,0 185.63,-83.11 185.63,-185.63 0,-102.53 -83.11,-185.64 -185.63,-185.64zm0 398.2c-102.53,0 -185.64,83.11 -185.64,185.64 0,102.52 83.11,185.63 185.64,185.63 102.52,0 185.63,-83.11 185.63,-185.63 0,-102.53 -83.11,-185.64 -185.63,-185.64zm341.93 -675.8c-37.34,0 -67.61,30.27 -67.61,67.61 0,37.35 30.27,67.63 67.61,67.63 37.35,0 67.62,-30.28 67.62,-67.63 0,-37.34 -30.27,-67.61 -67.62,-67.61z"/>
  </g>
 </g>
</svg>
