<?xml version="1.0" encoding="UTF-8"?>
<!DOCTYPE svg PUBLIC "-//W3C//DTD SVG 1.1//EN" "http://www.w3.org/Graphics/SVG/1.1/DTD/svg11.dtd">
<!-- Creator: CorelDRAW X8 -->
<svg xmlns="http://www.w3.org/2000/svg" xml:space="preserve" width="40mm" height="60mm" version="1.1" style="shape-rendering:geometricPrecision; text-rendering:geometricPrecision; image-rendering:optimizeQuality; fill-rule:evenodd; clip-rule:evenodd"
viewBox="0 0 4000 6000"
 xmlns:xlink="http://www.w3.org/1999/xlink">
 <defs>
  <style type="text/css">
   <![CDATA[
    .str0 {stroke:black;stroke-width:7.62;stroke-linejoin:bevel}
    .fil0 {fill:none}
   ]]>
  </style>
 </defs>
 <g id="图层_x0020_1">
  <metadata id="CorelCorpID_0Corel-Layer"/>
  <path class="fil0 str0" d="M2154 4500l0 706c0,31 10,62 29,87l44 -16 -16 44c25,19 56,29 87,29l548 0c31,0 62,-10 87,-29l-16 -44 43 16c19,-25 30,-56 30,-87l0 -706c0,-32 -11,-62 -30,-87l-43 16 16 -44c-25,-19 -56,-29 -87,-29l-548 0c-31,0 -62,10 -87,29l16 44 -44 -16c-19,25 -29,55 -29,87zm-1144 0l0 706c0,31 11,62 30,87l43 -16 -16 44c25,19 56,29 87,29l548 0c31,0 62,-10 87,-29l-16 -44 44 16c19,-25 29,-56 29,-87l0 -706c0,-32 -10,-62 -29,-87l-44 16 16 -44c-25,-19 -56,-29 -87,-29l-548 0c-31,0 -62,10 -87,29l16 44 -43 -16c-19,25 -30,55 -30,87zm1144 -1235l0 706c0,31 10,62 29,87l44 -16 -16 43c25,19 56,30 87,30l548 0c31,0 62,-11 87,-30l-16 -43 43 16c19,-25 30,-56 30,-87l0 -706c0,-32 -11,-62 -30,-87l-43 15 16 -43c-25,-19 -56,-29 -87,-29l-548 0c-31,0 -62,10 -87,29l16 43 -44 -15c-19,25 -29,55 -29,87zm-1144 0l0 706c0,31 11,62 30,87l43 -16 -16 43c25,19 56,30 87,30l548 0c31,0 62,-11 87,-30l-16 -43 44 16c19,-25 29,-56 29,-87l0 -706c0,-32 -10,-62 -29,-87l-44 15 16 -43c-25,-19 -56,-29 -87,-29l-548 0c-31,0 -62,10 -87,29l16 43 -43 -15c-19,25 -30,55 -30,87zm1144 -1236l0 706c0,32 10,62 29,87l44 -15 -16 43c25,19 56,30 87,30l548 0c31,0 62,-11 87,-30l-16 -43 43 15c19,-25 30,-55 30,-87l0 -706c0,-31 -11,-62 -30,-87l-43 16 16 -43c-25,-19 -56,-30 -87,-30l-548 0c-31,0 -62,11 -87,30l16 43 -44 -16c-19,25 -29,56 -29,87zm-1144 0l0 706c0,32 11,62 30,87l43 -15 -16 43c25,19 56,30 87,30l548 0c31,0 62,-11 87,-30l-16 -43 44 15c19,-25 29,-55 29,-87l0 -706c0,-31 -10,-62 -29,-87l-44 16 16 -43c-25,-19 -56,-30 -87,-30l-548 0c-31,0 -62,11 -87,30l16 43 -43 -16c-19,25 -30,56 -30,87zm1144 -1235l0 706c0,32 10,62 29,87l44 -16 -16 44c25,19 56,29 87,29l548 0c31,0 62,-10 87,-29l-16 -44 43 16c19,-25 30,-55 30,-87l0 -706c0,-31 -11,-62 -30,-87l-43 16 16 -44c-25,-19 -56,-29 -87,-29l-548 0c-31,0 -62,10 -87,29l16 44 -44 -16c-19,25 -29,56 -29,87zm-1144 0l0 706c0,32 11,62 30,87l43 -16 -16 44c25,19 56,29 87,29l548 0c31,0 62,-10 87,-29l-16 -44 44 16c19,-25 29,-55 29,-87l0 -706c0,-31 -10,-62 -29,-87l-44 16 16 -44c-25,-19 -56,-29 -87,-29l-548 0c-31,0 -62,10 -87,29l16 44 -43 -16c-19,25 -30,56 -30,87z"/>
 </g>
</svg>
