<?xml version="1.0" encoding="UTF-8"?>
<!DOCTYPE svg PUBLIC "-//W3C//DTD SVG 1.1//EN" "http://www.w3.org/Graphics/SVG/1.1/DTD/svg11.dtd">
<!-- Creator: CorelDRAW -->
<svg xmlns="http://www.w3.org/2000/svg" xml:space="preserve" width="40mm" height="60mm" style="shape-rendering:geometricPrecision; text-rendering:geometricPrecision; image-rendering:optimizeQuality; fill-rule:evenodd; clip-rule:evenodd"
viewBox="0 0 40 60"
 xmlns:xlink="http://www.w3.org/1999/xlink">
 <defs>
  <style type="text/css">
   <![CDATA[
    .str0 {stroke:#1F1A17;stroke-width:0.0762}
    .fil0 {fill:none}
   ]]>
  </style>
 </defs>
 <g id="图层_x0020_1">
  <metadata id="CorelCorpID_0Corel-Layer"/>
  <path class="fil0 str0" d="M7.7973 7.5784l1.6533 -0.0118 2.0117 -0.0184 -0.0038 0.1801c-0.0009,0.0417 -0.2254,0.0084 -0.2672,0.014 -0.357,0.0482 -0.7461,0.1569 -1.1899,0.5681 -0.3115,0.2887 -0.787,0.845 -0.787,1.4174l0 0.3149 -1.3384 0 0 3.7789c0.1766,0.0411 0.181,0.0787 0.3937,0.0787l0.4723 0 0 6.8493c0,0.1814 -0.0547,0.2362 -0.2362,0.2362l-0.6298 0 0 1.1617c0.0119,0.1826 0.2307,0.0979 0.4724,0.0979l0.3936 0 0 3.2278 -0.9805 0.0014 0.0358 0.7071 0 23.6181 1.2596 0c0.0406,1.8254 1.6614,2.2997 1.7296,2.3618l0.5535 0 0 0.1575 -3.7002 0 0 1.1022 11.1006 0 0 -0.5511c0,-0.2126 0.0376,-0.2171 0.0787,-0.3937l2.1256 0c0.1814,0 0.2362,0.0548 0.2362,0.2362l0 0.7086 3.6215 0 0 -0.7873 0.4723 0 0.0013 0.7749 1.0222 0.0911 5.5896 0c0.1814,0 0.2362,-0.0548 0.2362,-0.2362l-0.0008 -0.7707 -2.4398 -0.0953 -1.2596 0 0 -0.1574c1.1499,-0.0256 2.3618,-1.0248 2.3618,-2.0469l0 -0.3149 1.0235 0c0.4247,0 0.2361,-2.9002 0.2361,-3.464 0,-1.2597 0,-2.5193 0,-3.7789 0,-2.493 0,-4.9861 0,-7.4791 0,-5.0716 0.0788,-9.8909 0.0788,-14.9581l-0.3937 0c-0.152,0 -0.3149,-0.1404 -0.3149,-0.2362 0,-0.1814 0.0548,-0.2362 0.2362,-0.2362l0.4724 0 0 -0.7085c0,-0.1814 -0.0548,-0.2362 -0.2362,-0.2362l-0.4724 0 0 -5.3534 0.7873 0 0.002 -3.1723 -1.2616 -0.1343 0 -0.2361c0,-0.9021 -1.1803,-2.1257 -2.1257,-2.1257l-0.2361 0 0 -0.1574 3.7789 0 0 -1.1022 -4.8811 0 0 0.5511c0,0.4286 -0.2799,0.7085 -0.7086,0.7085 -0.4692,0 -0.6298,-0.3177 -0.6298,-0.7872l0 -0.3937c-0.1766,-0.0411 -0.181,-0.0787 -0.3936,-0.0787l-5.5109 0c-0.5343,0 0.0619,0.7873 -0.4724,0.7873l-5.2747 0c-0.2126,0 -0.2171,-0.0376 -0.3936,-0.0788l0 -0.7085 -0.866 0 0 0.3936c0,0.2618 -0.1414,0.2306 -0.3937,0.2362l0 -0.6298 -5.0385 0 0 1.0784zm3.6214 1.677l0 1.732c0,0.5232 0.541,0.866 1.0235,0.866l1.2596 0c0.5898,0 1.1809,-0.2758 1.1809,-0.7872l0 -1.8108c0,-0.4382 -0.4278,-0.866 -0.866,-0.866l-1.732 0c-0.4599,0 -0.866,0.406 -0.866,0.866zm0.866 39.9146c0,0.1814 0.0548,0.2362 0.2362,0.2362l4.0938 0 0 -1.4958 -4.33 0 0 1.2596zm3.7789 -39.0486l0 0.0788c0,0.3499 0.28,0.6298 0.6299,0.6298l0.3149 0c0.3808,0 0.6298,-0.249 0.6298,-0.6298l0 -0.1575c0,-0.3645 -0.1405,-0.7085 -0.4724,-0.7085l-0.6298 0c-0.3234,0 -0.4724,0.4328 -0.4724,0.7872zm-4.5627 38.3027c0.1507,0 0.2729,0.1222 0.2729,0.2729 0,0.1506 -0.1222,0.2728 -0.2729,0.2728 -0.1506,0 -0.2728,-0.1222 -0.2728,-0.2728 0,-0.1507 0.1222,-0.2729 0.2728,-0.2729zm16.7919 0.0484c0.1634,0 0.296,0.1326 0.296,0.296 0,0.1634 -0.1326,0.296 -0.296,0.296 -0.1634,0 -0.296,-0.1326 -0.296,-0.296 0,-0.1634 0.1326,-0.296 0.296,-0.296z"/>
 </g>
</svg>
