<?xml version="1.0" encoding="UTF-8"?>
<!DOCTYPE svg PUBLIC "-//W3C//DTD SVG 1.1//EN" "http://www.w3.org/Graphics/SVG/1.1/DTD/svg11.dtd">
<!-- Creator: CorelDRAW X8 -->
<svg xmlns="http://www.w3.org/2000/svg" xml:space="preserve" width="40mm" height="60mm" version="1.1" style="shape-rendering:geometricPrecision; text-rendering:geometricPrecision; image-rendering:optimizeQuality; fill-rule:evenodd; clip-rule:evenodd"
viewBox="0 0 4000 6000"
 xmlns:xlink="http://www.w3.org/1999/xlink">
 <defs>
  <style type="text/css">
   <![CDATA[
    .str0 {stroke:black;stroke-width:7.62;stroke-linejoin:bevel}
    .fil0 {fill:none}
   ]]>
  </style>
 </defs>
 <g id="图层_x0020_1">
  <metadata id="CorelCorpID_0Corel-Layer"/>
  <path class="fil0 str0" d="M932 5313l2079 0c19,0 37,-7 50,-20 13,-14 21,-32 21,-50l0 -4522c0,-19 -8,-37 -21,-50 -13,-14 -31,-21 -50,-21l-855 0c-40,0 -74,31 -78,71 0,41 -31,75 -71,78 -40,4 -78,-38 -85,-78 -4,-40 -38,-71 -78,-71l-855 0c-19,0 -37,7 -50,21 -13,13 -21,31 -21,50l0 4522c0,18 8,36 21,50 13,13 31,20 50,20l25 0c22,0 72,13 82,37"/>
 </g>
</svg>
