<?xml version="1.0" encoding="UTF-8"?>
<!DOCTYPE svg PUBLIC "-//W3C//DTD SVG 1.1//EN" "http://www.w3.org/Graphics/SVG/1.1/DTD/svg11.dtd">
<!-- Creator: CorelDRAW X8 -->
<svg xmlns="http://www.w3.org/2000/svg" xml:space="preserve" width="40mm" height="60mm" version="1.1" style="shape-rendering:geometricPrecision; text-rendering:geometricPrecision; image-rendering:optimizeQuality; fill-rule:evenodd; clip-rule:evenodd"
viewBox="0 0 4000 6000"
 xmlns:xlink="http://www.w3.org/1999/xlink">
 <defs>
  <style type="text/css">
   <![CDATA[
    .str0 {stroke:black;stroke-width:20}
    .fil0 {fill:none}
   ]]>
  </style>
 </defs>
 <g id="图层_x0020_1">
  <metadata id="CorelCorpID_0Corel-Layer"/>
  <path class="fil0 str0" d="M3254 5082c14,-28 30,-99 40,-168 13,-86 12,-165 12,-165 -1,-331 -269,-599 -600,-599 -332,0 -600,269 -600,600 0,331 268,600 600,600 331,0 600,-269 600,-600m-1463 332c13,-28 30,-99 40,-168 13,-86 11,-165 11,-165 0,-331 -268,-599 -600,-599 -331,0 -600,269 -600,600 0,331 269,600 600,600 332,0 600,-269 600,-600m1360 -1435c14,-28 30,-99 40,-168 13,-86 12,-164 12,-164 -1,-331 -269,-600 -600,-600 -332,0 -600,269 -600,600 0,332 268,600 600,600 331,0 600,-268 600,-600m-1463 332c13,-28 30,-99 40,-168 13,-86 11,-164 11,-164 0,-331 -268,-600 -600,-600 -331,0 -600,269 -600,600 0,332 269,600 600,600 332,0 600,-268 600,-600m1360 -1401c14,-28 30,-99 40,-168 13,-86 12,-165 12,-165 -1,-331 -269,-599 -600,-599 -332,0 -600,269 -600,600 0,331 268,600 600,600 331,0 600,-269 600,-600m-1463 332c13,-28 30,-99 40,-168 13,-86 11,-165 11,-165 0,-331 -268,-599 -600,-599 -331,0 -600,269 -600,600 0,331 269,600 600,600 332,0 600,-269 600,-600"/>
 </g>
</svg>
