<?xml version="1.0" encoding="UTF-8"?>
<!DOCTYPE svg PUBLIC "-//W3C//DTD SVG 1.1//EN" "http://www.w3.org/Graphics/SVG/1.1/DTD/svg11.dtd">
<!-- Creator: CorelDRAW X8 -->
<svg xmlns="http://www.w3.org/2000/svg" xml:space="preserve" width="40mm" height="60mm" version="1.1" style="shape-rendering:geometricPrecision; text-rendering:geometricPrecision; image-rendering:optimizeQuality; fill-rule:evenodd; clip-rule:evenodd"
viewBox="0 0 4000 6000"
 xmlns:xlink="http://www.w3.org/1999/xlink">
 <defs>
  <style type="text/css">
   <![CDATA[
    .str0 {stroke:black;stroke-width:7.62}
    .fil0 {fill:none}
   ]]>
  </style>
 </defs>
 <g id="图层_x0020_1">
  <metadata id="CorelCorpID_0Corel-Layer"/>
  <path class="fil0 str0" d="M2017 739c0,-6 -6,-11 -17,-12 -38,0 -70,31 -70,70 0,38 32,70 70,70 39,0 70,-32 70,-70 0,-39 -31,-70 -70,-70m-1019 4623l1977 0c47,0 85,-38 85,-85l0 -4530c0,-47 -38,-85 -85,-85l-1916 0c-47,0 -85,38 -85,85l0 4530c0,47 38,85 85,85l54 0"/>
 </g>
</svg>
