<?xml version="1.0" encoding="UTF-8"?>
<!DOCTYPE svg PUBLIC "-//W3C//DTD SVG 1.1//EN" "http://www.w3.org/Graphics/SVG/1.1/DTD/svg11.dtd">
<!-- Creator: CorelDRAW X8 -->
<svg xmlns="http://www.w3.org/2000/svg" xml:space="preserve" width="40mm" height="60mm" version="1.1" style="shape-rendering:geometricPrecision; text-rendering:geometricPrecision; image-rendering:optimizeQuality; fill-rule:evenodd; clip-rule:evenodd"
viewBox="0 0 4000 6000"
 xmlns:xlink="http://www.w3.org/1999/xlink">
 <defs>
  <style type="text/css">
   <![CDATA[
    .str0 {stroke:black;stroke-width:7.62}
    .fil0 {fill:none}
   ]]>
  </style>
 </defs>
 <g id="图层_x0020_1">
  <metadata id="CorelCorpID_0Corel-Layer"/>
  <path class="fil0 str0" d="M2740 1296c-1,-4 -4,-8 -13,-9 -29,0 -53,24 -53,53 0,29 24,53 53,53 30,0 53,-24 53,-53 0,-29 -23,-53 -53,-53m-2148 3448l2774 0c52,0 95,-43 95,-95l0 -3295c0,-52 -43,-95 -95,-95l-2706 0c-52,0 -95,43 -95,95l0 3295c0,52 43,95 95,95l30 0c45,0 73,8 88,15"/>
 </g>
</svg>
