<?xml version="1.0" encoding="UTF-8"?>
<!DOCTYPE svg PUBLIC "-//W3C//DTD SVG 1.1//EN" "http://www.w3.org/Graphics/SVG/1.1/DTD/svg11.dtd">
<!-- Creator: CorelDRAW X8 -->
<svg xmlns="http://www.w3.org/2000/svg" xml:space="preserve" width="40mm" height="60mm" version="1.1" style="shape-rendering:geometricPrecision; text-rendering:geometricPrecision; image-rendering:optimizeQuality; fill-rule:evenodd; clip-rule:evenodd"
viewBox="0 0 4000 6000"
 xmlns:xlink="http://www.w3.org/1999/xlink">
 <defs>
  <style type="text/css">
   <![CDATA[
    .str0 {stroke:black;stroke-width:7.62}
    .fil0 {fill:none}
   ]]>
  </style>
 </defs>
 <g id="图层_x0020_1">
  <metadata id="CorelCorpID_0Corel-Layer"/>
  <path class="fil0 str0" d="M1857 5350l0 -235 0 -798c0,-103 -84,-186 -186,-186l-625 0c-103,0 -186,84 -186,186l0 815c0,102 83,186 186,186l625 0c102,0 186,-83 186,-185 0,0 0,-12 0,-12m1283 229l0 -235 0 -798c0,-103 -83,-186 -186,-186l-625 0c-102,0 -186,84 -186,186l0 815c0,102 83,186 186,186l625 0c102,0 186,-83 186,-185 0,0 0,-12 0,-12m-1283 -1511l0 -236 0 -798c0,-102 -84,-186 -186,-186l-625 0c-103,0 -186,84 -186,186l0 815c0,102 83,186 186,186l625 0c102,0 186,-83 186,-184 0,-1 0,-12 0,-13m1283 230l0 -236 0 -798c0,-102 -83,-186 -186,-186l-625 0c-102,0 -186,84 -186,186l0 815c0,102 83,186 186,186l625 0c102,0 186,-83 186,-184 0,-1 0,-12 0,-13m-1283 -1511l0 -235 0 -798c0,-102 -84,-186 -186,-186l-625 0c-103,0 -186,84 -186,186l0 815c0,102 83,186 186,186l625 0c102,0 186,-83 186,-185 0,0 0,-12 0,-12m1283 229l0 -235 0 -798c0,-102 -83,-186 -186,-186l-625 0c-102,0 -186,84 -186,186l0 815c0,102 83,186 186,186l625 0c102,0 186,-83 186,-185 0,0 0,-12 0,-12"/>
 </g>
</svg>
