<?xml version="1.0" encoding="UTF-8"?>
<!DOCTYPE svg PUBLIC "-//W3C//DTD SVG 1.1//EN" "http://www.w3.org/Graphics/SVG/1.1/DTD/svg11.dtd">
<!-- Creator: CorelDRAW X8 -->
<svg xmlns="http://www.w3.org/2000/svg" xml:space="preserve" width="40mm" height="60mm" version="1.1" style="shape-rendering:geometricPrecision; text-rendering:geometricPrecision; image-rendering:optimizeQuality; fill-rule:evenodd; clip-rule:evenodd"
viewBox="0 0 4000 6000"
 xmlns:xlink="http://www.w3.org/1999/xlink">
 <defs>
  <style type="text/css">
   <![CDATA[
    .str0 {stroke:black;stroke-width:7.62}
    .fil0 {fill:none}
   ]]>
  </style>
 </defs>
 <g id="图层_x0020_1">
  <metadata id="CorelCorpID_0Corel-Layer"/>
  <path class="fil0 str0" d="M1609 770c0,-6 -5,-11 -16,-12 -37,0 -67,30 -67,67 0,37 30,68 67,68 37,0 67,-31 67,-68 0,-37 -30,-67 -67,-67m313 46c-6,-21 -17,-38 -69,-38l-44 0c-23,0 -42,19 -42,42l0 0c0,23 19,42 42,42l415 0c23,0 42,-19 42,-42l0 0c0,-23 -19,-42 -42,-42l-371 0m535 23c-3,-12 -7,-20 -27,-20l-17 0c-23,0 -42,19 -42,42l0 0c0,23 19,42 42,42l84 0c23,0 42,-19 42,-42l0 0c0,-23 -19,-42 -42,-42l-67 0m-1370 4581l1812 0c195,0 354,-160 354,-355l0 -3990c0,-195 -159,-355 -354,-355l-1574 0c-195,0 -354,160 -354,355l0 3990c0,195 159,355 354,355l42 0"/>
 </g>
</svg>
