<?xml version="1.0" encoding="UTF-8"?>
<!DOCTYPE svg PUBLIC "-//W3C//DTD SVG 1.1//EN" "http://www.w3.org/Graphics/SVG/1.1/DTD/svg11.dtd">
<!-- Creator: CorelDRAW X8 -->
<svg xmlns="http://www.w3.org/2000/svg" xml:space="preserve" width="40mm" height="60mm" version="1.1" style="shape-rendering:geometricPrecision; text-rendering:geometricPrecision; image-rendering:optimizeQuality; fill-rule:evenodd; clip-rule:evenodd"
viewBox="0 0 4000 6000"
 xmlns:xlink="http://www.w3.org/1999/xlink">
 <defs>
  <style type="text/css">
   <![CDATA[
    .str0 {stroke:#332C2B;stroke-width:7.62}
    .fil0 {fill:none}
   ]]>
  </style>
 </defs>
 <g id="图层_x0020_1">
  <metadata id="CorelCorpID_0Corel-Layer"/>
  <path class="fil0 str0" d="M3163 1077l-179 0c-2,-118 -95,-216 -212,-224 -8,0 -10,-3 -10,-10l0 -44c0,-8 5,-10 12,-10l396 0c8,0 14,-6 14,-14l0 -111c0,-8 -6,-14 -14,-14l-2335 0c-7,0 -14,6 -14,14l0 111c0,8 7,14 14,14l403 0c6,0 12,4 12,11l0 43c0,7 -4,10 -10,10 -120,5 -216,104 -218,224l-179 0c-7,0 -13,6 -13,14l0 3826c0,7 6,13 13,13l179 0 0 0c0,117 89,214 202,226 16,2 21,6 21,19 0,5 0,10 0,15 0,19 -10,21 -24,21l-391 0c-8,0 -14,6 -14,14l0 111c0,8 6,14 14,14l2335 0c7,0 14,-6 14,-14l0 -111c0,-8 -7,-14 -14,-14l-399 0c-7,0 -9,-2 -9,-8l0 -37c0,-4 0,-8 7,-8 122,-4 220,-105 220,-228l0 0 179 0c7,0 13,-6 13,-13 0,-1056 0,-2112 0,-3167 0,-25 -9,-33 -26,-39 -8,-3 -16,-6 -24,-9 -21,-7 -34,-30 -34,-51l0 -412c0,-34 7,-60 40,-72l16 -6c21,-8 28,-13 28,-37l0 -33c0,-8 -6,-14 -13,-14zm-1823 -55l308 0c73,0 134,60 134,134l0 677c0,73 -61,133 -134,133l-308 0c-74,0 -134,-60 -134,-133l0 -677c0,-74 60,-134 134,-134zm3 26l305 0c60,0 110,50 110,110l0 672c0,61 -50,110 -110,110l-305 0c-61,0 -111,-49 -111,-110l0 -672c0,-60 50,-110 111,-110zm95 142c1,-35 -41,-63 -56,-64 -54,0 -97,43 -97,97 0,54 43,98 97,98 54,0 98,-44 98,-98 0,-54 -44,-97 -98,-97m-495 1601c-21,5 -37,17 -37,67l0 63c0,23 19,42 42,42l0 0c22,0 41,-19 41,-42l0 -330c0,-23 -19,-42 -41,-42l0 0c-23,0 -42,19 -42,42l0 267m1133 2460c-3,-13 -8,-22 -30,-22l-43 0c-25,0 -47,21 -47,47l0 0c0,25 22,46 47,46l169 0c26,0 47,-21 47,-46l0 0c0,-26 -21,-47 -47,-47l-126 0m-517 -3772c1,-36 -41,-64 -56,-65 -54,0 -97,44 -97,98 0,54 43,98 97,98 54,0 98,-44 98,-98 0,-54 -44,-98 -98,-98m56 331c1,-35 -41,-63 -56,-64 -54,0 -97,44 -97,98 0,54 43,97 97,97 54,0 98,-43 98,-97 0,-54 -44,-98 -98,-98m293 82c1,-21 -24,-37 -33,-38 -32,0 -57,26 -57,58 0,31 25,57 57,57 32,0 58,-26 58,-57 0,-32 -26,-58 -58,-58m36 -499c0,-21 -24,-38 -33,-38 -32,0 -58,25 -58,57 0,32 26,58 58,58 32,0 57,-26 57,-58 0,-32 -25,-57 -57,-57m889 4094c1,-20 -24,-37 -33,-38 -32,0 -57,26 -57,58 0,32 25,57 57,57 32,0 58,-25 58,-57 0,-32 -26,-58 -58,-58m-1029 40c0,-10 -10,-26 -36,-26l-112 0c-8,0 -14,6 -14,13l0 57c0,7 6,13 14,13l230 0c7,0 13,-6 13,-13l0 -57c0,-7 -6,-13 -13,-13l-118 0m829 -4522c0,-10 -11,-18 -15,-18 -15,0 -27,12 -27,27 0,15 12,26 27,26 14,0 26,-11 26,-26 0,-15 -12,-27 -26,-27m-1360 1255c-15,4 -27,13 -27,50l0 214c0,17 14,31 30,31l1 0c16,0 30,-14 30,-31l0 -516c0,-17 -14,-31 -30,-31l-1 0c-16,0 -30,14 -30,31l0 302"/>
 </g>
</svg>
