<?xml version="1.0" encoding="UTF-8"?>
<!DOCTYPE svg PUBLIC "-//W3C//DTD SVG 1.1//EN" "http://www.w3.org/Graphics/SVG/1.1/DTD/svg11.dtd">
<!-- Creator: CorelDRAW -->
<svg xmlns="http://www.w3.org/2000/svg" xml:space="preserve" width="40mm" height="60mm" style="shape-rendering:geometricPrecision; text-rendering:geometricPrecision; image-rendering:optimizeQuality; fill-rule:evenodd; clip-rule:evenodd"
viewBox="0 0 40 60"
 xmlns:xlink="http://www.w3.org/1999/xlink">
 <defs>
  <style type="text/css">
   <![CDATA[
    .str0 {stroke:#1F1A17;stroke-width:0.194}
    .str1 {stroke:#1F1A17;stroke-width:0.2}
    .fil0 {fill:none}
   ]]>
  </style>
 </defs>
 <g id="图层_x0020_1">
  <metadata id="CorelCorpID_0Corel-Layer"/>
  <path class="fil0 str0" d="M27.6876 6.6413c-3.2739,-0.1619 -4.8341,-0.1403 -8.1652,-0.1403 -3.5656,0 -6.7728,0.0858 -8.1245,0.2144 -2.1914,0.2108 -2.7987,0.8956 -2.7999,3.1572"/>
  <line class="fil0 str0" x1="8.598" y1="9.8726" x2="8.5801" y2= "49.6366" />
  <path class="fil0 str0" d="M8.5801 49.6366c0,2.0889 0.2644,2.7891 1.2243,3.2286 0.4144,0.1906 0.9611,0.318 1.5958,0.3716 1.7829,0.1524 5.4998,0.2632 8.8487,0.2632 1.9805,0 3.7252,-0.0381 5.5867,-0.1227 3.2429,-0.1465 3.2655,-0.1489 3.9682,-0.368 1.2945,-0.4037 1.6173,-1.0766 1.6161,-3.3632"/>
  <line class="fil0 str0" x1="31.4199" y1="49.6461" x2="31.4056" y2= "9.32" />
  <path class="fil0 str0" d="M31.4056 9.32c-0.1072,-1.7769 -0.8134,-2.426 -2.8321,-2.6022"/>
  <line class="fil0 str0" x1="28.5735" y1="6.7178" x2="27.6779" y2= "6.6404" />
  <line class="fil0 str0" x1="20.1717" y1="8.4388" x2="20.1717" y2= "8.5331" />
  <path class="fil0 str0" d="M20.1717 8.5331c-0.0227,0 -0.0609,-0.0466 -0.0772,-0.0943"/>
  <line class="fil0 str0" x1="20.0945" y1="8.4388" x2="17.8817" y2= "8.4399" />
  <path class="fil0 str0" d="M17.8817 8.4399c-0.6316,0 -0.6343,0 -0.7043,-0.0233 -0.2381,-0.0809 -0.3571,-0.2828 -0.3571,-0.6045 0,-0.1929 0.1045,-0.4414 0.2272,-0.5412 0.0118,-0.01 0.0182,-0.0167 0.0291,-0.0322 0.0463,-0.0632 0.0463,-0.0632 2.0519,-0.0699"/>
  <line class="fil0 str0" x1="19.1285" y1="7.1688" x2="20.1372" y2= "7.1644" />
  <path class="fil0 str0" d="M20.1372 7.1644c0.7542,-0.0022 1.5094,0 2.2645,0.0078 0.3781,0.0044 0.5498,0.0088 0.6625,0.0199 0.2045,0.0189 0.2517,0.0533 0.359,0.2629 0.0572,0.112 0.0899,0.2418 0.0899,0.3549 0,0.1997 -0.1054,0.447 -0.2344,0.5457 -0.1091,0.0843 -0.1991,0.0932 -0.8797,0.0899"/>
  <line class="fil0 str0" x1="22.399" y1="8.4455" x2="19.94" y2= "8.431" />
  <ellipse class="fil0 str1" cx="12.6399" cy="7.7557" rx="0.668199" ry="0.665199"/>
  <ellipse class="fil0 str1" cx="15.4774" cy="7.773" rx="0.665499" ry="0.620299"/>
  <ellipse class="fil0 str1" cx="24.944" cy="7.7613" rx="0.657799" ry="0.675599"/>
 </g>
</svg>
