<?xml version="1.0" encoding="UTF-8"?>
<!DOCTYPE svg PUBLIC "-//W3C//DTD SVG 1.1//EN" "http://www.w3.org/Graphics/SVG/1.1/DTD/svg11.dtd">
<!-- Creator: CorelDRAW X8 -->
<svg xmlns="http://www.w3.org/2000/svg" xml:space="preserve" width="40mm" height="60mm" version="1.1" style="shape-rendering:geometricPrecision; text-rendering:geometricPrecision; image-rendering:optimizeQuality; fill-rule:evenodd; clip-rule:evenodd"
viewBox="0 0 4000 6000"
 xmlns:xlink="http://www.w3.org/1999/xlink">
 <defs>
  <style type="text/css">
   <![CDATA[
    .str0 {stroke:#332C2B;stroke-width:20}
    .fil0 {fill:none}
   ]]>
  </style>
 </defs>
 <g id="参考点">
  <metadata id="CorelCorpID_0Corel-Layer"/>
  <path class="fil0 str0" d="M1139 650l1722 0c141,0 255,115 255,255l0 4190c0,140 -114,255 -255,255l-1722 0c-141,0 -255,-115 -255,-255l0 -4190c0,-140 114,-255 255,-255zm428 54c30,0 54,24 54,54 0,30 -24,54 -54,54 -30,0 -54,-24 -54,-54 0,-30 24,-54 54,-54zm186 0c29,0 54,24 54,54 0,30 -25,54 -54,54 -30,0 -55,-24 -55,-54 0,-30 25,-54 55,-54zm487 8c25,0 46,21 46,46 0,26 -21,47 -46,47 -26,0 -47,-21 -47,-47 0,-25 21,-46 47,-46zm-356 15l232 0c17,0 31,14 31,31l0 0c0,17 -14,31 -31,31l-232 0c-17,0 -31,-14 -31,-31l0 0c0,-17 14,-31 31,-31zm541 -31c34,0 62,28 62,62 0,34 -28,62 -62,62 -34,0 -62,-28 -62,-62 0,-34 28,-62 62,-62z"/>
 </g>
</svg>
