<?xml version="1.0" encoding="UTF-8"?>
<!DOCTYPE svg PUBLIC "-//W3C//DTD SVG 1.1//EN" "http://www.w3.org/Graphics/SVG/1.1/DTD/svg11.dtd">
<!-- Creator: CorelDRAW 2020 (64-Bit) -->
<svg xmlns="http://www.w3.org/2000/svg" xml:space="preserve" width="40mm" height="60mm" version="1.1" style="shape-rendering:geometricPrecision; text-rendering:geometricPrecision; image-rendering:optimizeQuality; fill-rule:evenodd; clip-rule:evenodd"
viewBox="0 0 4000 6000"
 xmlns:xlink="http://www.w3.org/1999/xlink"
 xmlns:xodm="http://www.corel.com/coreldraw/odm/2003">
 <defs>
  <style type="text/css">
   <![CDATA[
    .str2 {stroke:#332C2B;stroke-width:20;stroke-miterlimit:22.9256}
    .str1 {stroke:#E72D28;stroke-width:20;stroke-miterlimit:22.9256}
    .str0 {stroke:#222222;stroke-width:7.62;stroke-miterlimit:22.9256}
    .fil1 {fill:none}
    .fil0 {fill:none;fill-rule:nonzero}
   ]]>
  </style>
   <clipPath id="id0">
    <rect x="-76039.78" y="-10984.3" width="19892.2" height="19892.2"/>
   </clipPath>
 </defs>
 <g id="图层_x0020_1">
  <metadata id="CorelCorpID_0Corel-Layer"/>
  <g>
   <path class="fil0 str0" d="M26521.48 3896.81l0 -6120.33c0,-401.49 -328.51,-730 -730,-730l-13493.4 0c-401.5,0 -730,328.5 -730,730l0 5216.33c0,401.5 328.5,730 730,730l13493.4 0c401.5,0 730,-328.5 730,-730 0,-401.5 213.9,-443.02 355.01,-443.02"/>
  </g>
  <g>
   <path class="fil0 str0" d="M11617.28 397.76c0,-105.52 85.54,-191.06 191.06,-191.06 105.52,0 191.06,85.54 191.06,191.06 0,105.52 -85.54,191.06 -191.06,191.06 -105.52,0 -191.06,-85.54 -191.06,-191.06z"/>
  </g>
  <g>
   <g>
    <path class="fil0 str0" d="M8719.68 15788.5l1879.06 0c123.27,0 224.13,-100.86 224.13,-224.12l0 -4142.76c0,-123.27 -100.86,-224.12 -224.13,-224.12l-1601.52 0c-123.27,0 -224.12,100.85 -224.12,224.12l0 4142.76c0,123.27 100.85,224.12 224.12,224.12 123.27,0 136.02,65.67 136.02,109"/>
   </g>
   <g>
    <path class="fil0 str0" d="M9793.96 11212.6c32.39,0 58.66,26.27 58.66,58.66 0,32.4 -26.27,58.66 -58.66,58.66 -32.4,0 -58.66,-26.26 -58.66,-58.66 0,-32.39 26.26,-58.66 58.66,-58.66z"/>
   </g>
  </g>
  <path class="fil1 str0" d="M-23425.6 4100.76l0 -6537.31c0,-417.97 -341.98,-759.96 -759.96,-759.96l-13746.56 0c-417.98,0 -759.96,341.98 -759.96,759.96l0 5430.46c0,417.98 341.98,759.96 759.96,759.96l13746.56 0c417.98,0 759.96,-341.98 759.96,-759.96 0,-417.98 376.65,-376.65 376.65,-376.65"/>
  <path class="fil1 str0" d="M-38376.66 2764.46l0 -0.02c0,-345.61 282.77,-628.38 628.38,-628.38l1402.32 0c345.61,0 628.38,282.77 628.38,628.38l0 0.02c0,345.61 -282.77,628.38 -628.38,628.38l-1402.32 0c-345.61,0 -628.38,-282.77 -628.38,-628.38z"/>
  <path class="fil1 str0" d="M-37351.51 1784.12l0 -0.01c0,-89.57 73.27,-162.84 162.84,-162.84l309.32 0c89.57,0 162.84,73.27 162.84,162.84l0 0.01c0,89.57 -73.27,162.84 -162.84,162.84l-309.32 0c-89.57,0 -162.84,-73.27 -162.84,-162.84z"/>
  <path class="fil1 str0" d="M-35612.88 270.69c0,-328.79 266.53,-595.32 595.32,-595.32 328.79,0 595.32,266.53 595.32,595.32 0,328.79 -266.53,595.32 -595.32,595.32 -328.79,0 -595.32,-266.53 -595.32,-595.32z"/>
  <g style="clip-path:url(#id0)">
   <image x="-76039.78" y="-10984.3" width="19892.2" height="19892.2" xlink:href="G'FIVE背膜_Images\G'FIVE背膜_ImgID1.png"/>
  </g>
  <rect class="fil1 str1" x="-66736.07" y="-7572.74" width="7450" height="15700"/>
  <rect class="fil1 str1" x="-66736.07" y="-7572.74" width="7450" height="15700"/>
  <rect class="fil1 str1" x="-66368.99" y="-7233.17" width="6676.33" height="14953.4" rx="730" ry="867.75"/>
  <circle class="fil1 str2" cx="-63043.94" cy="-6992.91" r="191.06"/>
  <rect class="fil1 str1" x="-72404.22" y="-7354.56" width="6950.38" height="15266.48" rx="759.96" ry="885.92"/>
  <rect class="fil1 str2" x="-72043.19" y="-7039.15" width="1256.78" height="2659.08" rx="5000" ry="4892.3"/>
  <rect class="fil1 str2" x="-70597.31" y="-6013.99" width="325.69" height="635" rx="1295.73" ry="1168.3"/>
  <circle class="fil1 str2" cx="-68921.04" cy="-3680.04" r="595.32"/>
  <g>
   <path class="fil1 str0" d="M897.16 5242.5l1964.14 0c125.58,0 228.33,-102.74 228.33,-228.33l0 -4130.17c0,-125.58 -102.74,-228.33 -228.33,-228.33l-1631.58 0c-125.59,0 -228.33,102.75 -228.33,228.33l0 4130.17c0,125.59 102.74,228.33 228.33,228.33 125.58,0 113.16,113.17 113.16,113.17"/>
   <path class="fil1 str0" d="M1298.66 750.44l0 0c103.84,0 188.8,84.96 188.8,188.79l0 421.33c0,103.84 -84.96,188.8 -188.8,188.8l0 0c-103.84,0 -188.8,-84.96 -188.8,-188.8l0 -421.33c0,-103.83 84.96,-188.79 188.8,-188.79z"/>
   <path class="fil1 str0" d="M1593.2 1058.44l0 0c26.91,0 48.93,22.02 48.93,48.93l0 92.94c0,26.91 -22.02,48.92 -48.93,48.92l0 0c-26.91,0 -48.93,-22.01 -48.93,-48.92l0 -92.94c0,-26.91 22.02,-48.93 48.93,-48.93z"/>
   <path class="fil1 str0" d="M2047.91 1580.82c98.79,0 178.87,80.08 178.87,178.86 0,98.79 -80.08,178.87 -178.87,178.87 -98.78,0 -178.86,-80.08 -178.86,-178.87 0,-98.78 80.08,-178.86 178.86,-178.86z"/>
  </g>
 </g>
</svg>
