<?xml version="1.0" encoding="UTF-8"?>
<!DOCTYPE svg PUBLIC "-//W3C//DTD SVG 1.1//EN" "http://www.w3.org/Graphics/SVG/1.1/DTD/svg11.dtd">
<!-- Creator: CorelDRAW -->
<svg xmlns="http://www.w3.org/2000/svg" xml:space="preserve" width="210mm" height="297mm" style="shape-rendering:geometricPrecision; text-rendering:geometricPrecision; image-rendering:optimizeQuality; fill-rule:evenodd; clip-rule:evenodd"
viewBox="0 0 210 297"
 xmlns:xlink="http://www.w3.org/1999/xlink">
 <defs>
  <style type="text/css">
   <![CDATA[
    .str0 {stroke:#1F1A17;stroke-width:0.194}
    .fil0 {fill:none;fill-rule:nonzero}
   ]]>
  </style>
 </defs>
 <g id="图层_x0020_1">
  <metadata id="CorelCorpID_0Corel-Layer"/>
  <path class="fil0 str0" d="M84.5116 55.4232l0 0.3281m0 0c-0.1552,-0.0177 -0.2399,-0.0847 -0.3245,-0.2505 -0.6421,0.2328 -1.2348,0.3492 -1.778,0.3492 -2.6917,0 -4.8437,-2.3036 -4.8437,-5.1823m0 0l0.0036 -2.0249m0 0c0,-1.1536 -0.0353,-1.5064 -0.2294,-2.219m0 0l-0.0282 0 -0.0247 0.0247 -0.0247 0m0 0c-0.0211,0.0212 -0.0458,0.0388 -0.074,0.0494m0 0l-0.1764 -0.1976 0 0.0247 -0.0247 0 -0.0247 0.0494 -0.2258 -0.1481 0 -0.0283 0 0.0283 -0.0247 0.0247m0 0c0.0035,0.0105 -0.0071,0.0388 -0.0247,0.074m0 0l-0.5256 -0.127 0 0.2011m11.176 148.325c-0.9137,-3.5524 -2.1273,-4.5931 -5.3517,-4.5931 -0.0247,0 -0.0494,0 -0.0741,0 -0.5291,0.007 -0.9701,0.0106 -1.3158,0.0106 -3.0903,0 -5.1929,-1.0372 -6.4206,-3.168 -0.7902,-1.3652 -1.1201,-1.838 -1.1201,-2.2013 -0.0933,-6.8538 0.0012,-24.8821 -0.0071,-29.3404 -0.0524,-7.1843 0.0258,-14.3879 -0.0004,-21.5724l0.0013 -82.377c0.0988,-1.8661 1.6026,-4.3568 3.1125,-5.0835m-3.8735 143.75l0.1234 0.3246m0 0c0.1482,-0.0988 0.1976,-0.1694 0.2258,-0.3246 13.2927,0.0282 26.5889,0.0388 39.8814,0.0282m0 0l22.7718 -0.0211m0 0c3.4748,-0.0882 6.0571,-2.0955 7.0061,-5.4469 0.0882,-0.2999 0.0917,-0.374 0.0953,-1.972m0 0l0.2681 -106.211m0 0c0.0458,-18.2386 -0.0282,-24.7579 -0.2928,-25.6575 -1.0372,-3.5701 -3.5384,-5.5386 -7.1544,-5.6338m0 0l-44.4745 0.0141 -0.017 1.096 -0.0164 1.0612c0.8472,0.4412 1.8025,0.8399 2.6616,1.2083 1.104,0.4635 1.9403,1.3158 1.9403,2.5188 -0.0035,1.1748 -0.762,2.1978 -1.8697,2.5153m0 0l-11.2254 2.2507"/>
 </g>
</svg>
