<?xml version="1.0" encoding="UTF-8"?>
<!DOCTYPE svg PUBLIC "-//W3C//DTD SVG 1.1//EN" "http://www.w3.org/Graphics/SVG/1.1/DTD/svg11.dtd">
<!-- Creator: CorelDRAW X8 -->
<svg xmlns="http://www.w3.org/2000/svg" xml:space="preserve" width="40mm" height="60mm" version="1.1" style="shape-rendering:geometricPrecision; text-rendering:geometricPrecision; image-rendering:optimizeQuality; fill-rule:evenodd; clip-rule:evenodd"
viewBox="0 0 4000 6000"
 xmlns:xlink="http://www.w3.org/1999/xlink">
 <defs>
  <style type="text/css">
   <![CDATA[
    .str0 {stroke:black;stroke-width:7.62;stroke-linejoin:bevel}
    .fil0 {fill:none}
   ]]>
  </style>
 </defs>
 <g id="图层_x0020_1">
  <metadata id="CorelCorpID_0Corel-Layer"/>
  <path class="fil0 str0" d="M934 5141l0 -4282c0,-99 76,-180 174,-187 148,-10 296,-15 444,-16 299,-8 597,-8 896,0 148,1 296,6 444,16 98,7 174,88 174,187l0 4282c0,99 -76,180 -174,187 -148,10 -296,15 -444,16 -299,8 -597,8 -896,0 -148,-1 -296,-6 -444,-16 -98,-7 -174,-88 -174,-187zm1698 -4373c0,-41 -34,-74 -75,-74 -41,0 -74,33 -74,74 0,42 33,75 74,75 41,0 75,-33 75,-75zm-1012 37l535 0c18,0 35,-10 45,-26 9,-16 9,-36 0,-52 -10,-16 -27,-26 -45,-26l-535 0c-19,0 -36,10 -45,26 -10,16 -10,36 0,52 9,16 26,26 45,26z"/>
 </g>
</svg>
