<?xml version="1.0" encoding="UTF-8"?>
<!DOCTYPE svg PUBLIC "-//W3C//DTD SVG 1.1//EN" "http://www.w3.org/Graphics/SVG/1.1/DTD/svg11.dtd">
<!-- Creator: CorelDRAW X8 -->
<svg xmlns="http://www.w3.org/2000/svg" xml:space="preserve" width="40mm" height="60mm" version="1.1" style="shape-rendering:geometricPrecision; text-rendering:geometricPrecision; image-rendering:optimizeQuality; fill-rule:evenodd; clip-rule:evenodd"
viewBox="0 0 4000 6000"
 xmlns:xlink="http://www.w3.org/1999/xlink">
 <defs>
  <style type="text/css">
   <![CDATA[
    .str0 {stroke:black;stroke-width:7.62}
    .fil0 {fill:none}
   ]]>
  </style>
 </defs>
 <g id="图层_x0020_1">
  <metadata id="CorelCorpID_0Corel-Layer"/>
  <path class="fil0 str0" d="M962 5350l1864 0c212,0 386,-173 386,-386l0 -3928c0,-212 -174,-386 -386,-386l-1652 0c-212,0 -386,174 -386,386l0 3928c0,213 174,386 386,386l313 0m1271 -4600c0,-5 -5,-9 -13,-10 -31,0 -55,25 -55,55 0,31 24,55 55,55 30,0 55,-24 55,-55 0,-30 -25,-55 -55,-55m-275 54c-6,-21 -17,-38 -69,-38l-4 0c-23,0 -42,19 -42,43l0 0c0,23 19,42 42,42l114 0c23,0 42,-19 42,-42l0 0c0,-24 -19,-43 -42,-43l-110 0m-489 4354c-7,-29 -17,-49 -66,-49l-39 0c-56,0 -101,45 -101,101l0 0c0,55 45,101 101,101l392 0c56,0 101,-46 101,-101l0 0c0,-56 -45,-101 -101,-101l-353 0m-42 -4261c-5,-21 -17,-38 -68,-38l-4 0c-23,0 -42,19 -42,43l0 0c0,23 19,42 42,42l543 0c24,0 43,-19 43,-42l0 0c0,-24 -19,-43 -43,-43l-539 0"/>
 </g>
</svg>
