<?xml version="1.0" encoding="UTF-8"?>
<!DOCTYPE svg PUBLIC "-//W3C//DTD SVG 1.1//EN" "http://www.w3.org/Graphics/SVG/1.1/DTD/svg11.dtd">
<!-- Creator: CorelDRAW X8 -->
<svg xmlns="http://www.w3.org/2000/svg" xml:space="preserve" width="40mm" height="60mm" version="1.1" style="shape-rendering:geometricPrecision; text-rendering:geometricPrecision; image-rendering:optimizeQuality; fill-rule:evenodd; clip-rule:evenodd"
viewBox="0 0 4000 6000"
 xmlns:xlink="http://www.w3.org/1999/xlink">
 <defs>
  <style type="text/css">
   <![CDATA[
    .str0 {stroke:#332C2B;stroke-width:10;stroke-linecap:round;stroke-linejoin:round}
    .fil0 {fill:none;fill-rule:nonzero}
   ]]>
  </style>
 </defs>
 <g id="图层_x0020_1">
  <metadata id="CorelCorpID_0Corel-Layer"/>
  <g id="_2575107229040">
   <g>
    <line class="fil0 str0" x1="3304" y1="660" x2="3304" y2= "691" />
    <line class="fil0 str0" x1="1989" y1="5214" x2="1989" y2= "5224" />
    <path class="fil0 str0" d="M1989 5224c7,-1 10,-3 11,-10"/>
    <line class="fil0 str0" x1="2000" y1="5214" x2="2059" y2= "5214" />
    <path class="fil0 str0" d="M2059 5214c53,-1 75,14 75,49 0,31 -19,47 -57,49 -19,2 -51,2 -84,2 -60,0 -85,-1 -102,-3 -17,-3 -25,-7 -34,-17 -7,-8 -11,-19 -11,-31 0,-29 20,-47 55,-49"/>
    <line class="fil0 str0" x1="1901" y1="5214" x2="2031" y2= "5214" />
    <line class="fil0 str0" x1="3146" y1="1054" x2="3202" y2= "1054" />
    <path class="fil0 str0" d="M3202 1054c0,7 -3,9 -10,10"/>
    <line class="fil0 str0" x1="3192" y1="1064" x2="3192" y2= "1661" />
    <path class="fil0 str0" d="M3192 1661c-6,-1 -10,-5 -10,-10 -51,0 -70,8 -79,35 -5,13 -6,70 -6,201 0,234 0,242 19,259 13,11 26,14 69,14 5,0 11,0 17,0 0,6 -3,9 -10,10"/>
    <line class="fil0 str0" x1="3192" y1="2170" x2="3192" y2= "4863" />
    <path class="fil0 str0" d="M3192 4863c-6,0 -9,-3 -10,-10"/>
    <line class="fil0 str0" x1="3182" y1="4853" x2="3082" y2= "4853" />
    <path class="fil0 str0" d="M3082 4853c0,5 3,9 10,10 -10,202 -128,341 -321,376"/>
    <polyline class="fil0 str0" points="2771,5239 2725,5247 2727,5252 "/>
    <path class="fil0 str0" d="M2727 5252c5,3 6,3 12,3 4,-4 5,-5 6,-10"/>
    <line class="fil0 str0" x1="2745" y1="5245" x2="3314" y2= "5245" />
    <path class="fil0 str0" d="M3314 5245c0,6 -3,9 -10,10"/>
    <line class="fil0 str0" x1="3304" y1="5255" x2="3303" y2= "5350" />
    <path class="fil0 str0" d="M3303 5350c-5,-1 -8,-3 -9,-10"/>
    <line class="fil0 str0" x1="3294" y1="5340" x2="686" y2= "5342" />
    <path class="fil0 str0" d="M686 5342c0,-7 4,-11 11,-11"/>
    <line class="fil0 str0" x1="697" y1="5331" x2="698" y2= "5234" />
    <path class="fil0 str0" d="M698 5234c6,1 9,4 10,11"/>
    <polyline class="fil0 str0" points="708,5245 1258,5245 1257,5239 1253,5235 "/>
    <path class="fil0 str0" d="M1253 5235c-2,0 -4,0 -5,0"/>
    <polyline class="fil0 str0" points="1248,5235 1242,5236 1238,5244 "/>
    <path class="fil0 str0" d="M1238 5244c-201,-27 -329,-159 -345,-355"/>
    <polyline class="fil0 str0" points="893,4889 890,4840 891,4839 "/>
    <path class="fil0 str0" d="M891 4839c-4,0 -7,2 -9,4"/>
    <polyline class="fil0 str0" points="882,4843 880,4849 793,4850 "/>
    <path class="fil0 str0" d="M793 4850c0,-7 3,-10 10,-11"/>
    <line class="fil0 str0" x1="803" y1="4839" x2="803" y2= "3173" />
    <path class="fil0 str0" d="M803 3173c7,0 10,4 11,10 5,1 9,1 14,1 34,0 43,-3 74,-20"/>
    <polyline class="fil0 str0" points="902,3164 901,3163 899,3162 898,3160 897,3160 902,3151 "/>
    <path class="fil0 str0" d="M902 3151c-2,0 -3,0 -5,0 0,0 0,0 -1,0"/>
    <polyline class="fil0 str0" points="896,3151 896,2549 892,2550 887,2541 886,2541 883,2545 "/>
    <path class="fil0 str0" d="M883 2545c-17,-6 -26,-7 -90,-8 1,-6 4,-10 11,-10"/>
    <line class="fil0 str0" x1="804" y1="2527" x2="803" y2= "2194" />
    <path class="fil0 str0" d="M803 2194c7,1 9,3 11,11 2,0 4,0 6,0"/>
    <line class="fil0 str0" x1="820" y1="2205" x2="825" y2= "2205" />
    <path class="fil0 str0" d="M825 2205c65,0 65,0 65,-119"/>
    <line class="fil0 str0" x1="890" y1="2086" x2="890" y2= "2077" />
    <path class="fil0 str0" d="M890 2077c0,-112 -3,-186 -7,-194 -7,-15 -18,-17 -81,-17 -3,0 -6,0 -9,0 0,-7 3,-10 10,-11"/>
    <line class="fil0 str0" x1="803" y1="1855" x2="803" y2= "1047" />
    <path class="fil0 str0" d="M803 1047c7,0 9,2 11,10"/>
    <line class="fil0 str0" x1="814" y1="1057" x2="862" y2= "1059" />
    <path class="fil0 str0" d="M862 1059c25,0 34,-2 50,-12"/>
    <polyline class="fil0 str0" points="912,1047 911,1045 911,1045 910,1044 915,1038 914,1037 914,1037 918,1030 "/>
    <path class="fil0 str0" d="M918 1030c-1,0 -1,-1 -2,-2"/>
    <polyline class="fil0 str0" points="916,1028 914,1028 914,1028 "/>
    <path class="fil0 str0" d="M914 1028c6,-43 9,-49 42,-102 60,-96 133,-139 293,-173"/>
    <polyline class="fil0 str0" points="1249,753 1246,747 1241,745 1235,746 1230,749 1229,756 743,756 "/>
    <path class="fil0 str0" d="M743 756c0,-7 5,-11 11,-11"/>
    <line class="fil0 str0" x1="754" y1="745" x2="753" y2= "650" />
    <path class="fil0 str0" d="M753 650c7,0 11,4 11,10"/>
    <line class="fil0 str0" x1="764" y1="660" x2="2330" y2= "660" />
    <path class="fil0 str0" d="M2330 660c0,6 -3,8 -10,10 0,95 2,105 28,129 13,12 29,18 45,18 48,0 74,-39 74,-108"/>
    <line class="fil0 str0" x1="2467" y1="709" x2="2467" y2= "650" />
    <path class="fil0 str0" d="M2467 650c7,0 9,2 11,10"/>
    <line class="fil0 str0" x1="2478" y1="660" x2="3217" y2= "660" />
    <path class="fil0 str0" d="M3217 660c0,6 -3,9 -11,10"/>
    <line class="fil0 str0" x1="3206" y1="670" x2="3206" y2= "765" />
    <path class="fil0 str0" d="M3206 765c-6,-1 -9,-5 -10,-10"/>
    <polyline class="fil0 str0" points="3196,755 2734,756 2735,762 2741,765 2748,765 2753,762 2755,757 "/>
    <path class="fil0 str0" d="M2755 757c166,26 288,133 348,307 5,-4 6,-6 7,-10"/>
    <line class="fil0 str0" x1="3110" y1="1054" x2="3187" y2= "1054" />
    <polyline class="fil0 str0" points="1995,1768 2006,1768 2006,1767 2006,1768 "/>
    <path class="fil0 str0" d="M2006 1768c119,12 199,97 199,210 0,115 -95,210 -210,210 -115,0 -210,-95 -210,-210 0,-115 94,-210 207,-210 14,0 24,1 56,5"/>
    <polyline class="fil0 str0" points="1909,1047 1920,1048 1920,1046 1958,1046 "/>
    <path class="fil0 str0" d="M1958 1046c37,0 54,2 64,7 11,6 14,15 14,34 0,11 -1,18 -3,22 -3,6 -8,10 -16,13 -15,4 -38,6 -106,6 -70,0 -94,-2 -109,-7 -8,-2 -13,-6 -16,-12 -2,-5 -3,-12 -3,-23 0,-32 14,-40 67,-40"/>
    <line class="fil0 str0" x1="1850" y1="1046" x2="1950" y2= "1047" />
    <polyline class="fil0 str0" points="1549,1007 1560,1007 1560,1006 1560,1008 "/>
    <path class="fil0 str0" d="M1560 1008c38,6 64,37 64,75 0,51 -25,76 -76,76 -42,0 -76,-34 -76,-76 0,-43 34,-77 77,-76 6,0 7,0 27,2"/>
    <path class="fil0 str0" d="M1263 1005c46,3 77,34 77,76 0,43 -34,77 -76,77 -43,0 -77,-34 -77,-77 0,-42 34,-76 76,-76 6,0 8,0 26,2"/>
    <polyline class="fil0 str0" points="1426,5259 1437,5260 1437,5258 "/>
    <path class="fil0 str0" d="M1437 5258c50,0 37,0 88,0"/>
    <line class="fil0 str0" x1="1525" y1="5258" x2="1533" y2= "5258" />
    <path class="fil0 str0" d="M1533 5258c24,0 29,0 35,1 6,1 10,3 22,11"/>
    <polyline class="fil0 str0" points="1590,5270 1595,5273 1594,5274 1594,5274 1593,5276 1599,5284 1598,5284 1597,5285 1596,5285 1596,5286 1594,5286 "/>
    <path class="fil0 str0" d="M1594 5286c0,3 0,3 -4,22 -2,-1 -2,-1 -3,-1"/>
    <polyline class="fil0 str0" points="1587,5307 1586,5306 1586,5306 1580,5315 1578,5313 1578,5312 1577,5312 1576,5312 "/>
    <path class="fil0 str0" d="M1576 5312c-9,3 -59,4 -129,4 -97,0 -122,0 -142,-2 -21,-2 -29,-4 -47,-14"/>
    <polyline class="fil0 str0" points="1258,5300 1258,5299 1259,5299 1259,5298 1260,5298 1260,5297 1254,5289 "/>
    <path class="fil0 str0" d="M1254 5289c1,-1 1,-1 2,-1"/>
    <polyline class="fil0 str0" points="1256,5288 1257,5287 1258,5287 1258,5287 1262,5265 1261,5265 1264,5265 "/>
    <path class="fil0 str0" d="M1264 5265c1,1 1,1 3,2"/>
    <polyline class="fil0 str0" points="1267,5267 1273,5258 1274,5259 1274,5260 1275,5261 "/>
    <path class="fil0 str0" d="M1275 5261c13,-2 47,-3 94,-3 30,0 63,0 98,1"/>
    <polyline class="fil0 str0" points="2547,5257 2557,5257 2557,5257 "/>
    <path class="fil0 str0" d="M2557 5257c27,0 53,-1 80,-1 37,0 54,2 64,5 10,3 14,9 14,21 0,9 -3,17 -14,32"/>
    <line class="fil0 str0" x1="2701" y1="5314" x2="2701" y2= "5314" />
    <path class="fil0 str0" d="M2701 5314c-1,-1 -1,-1 -2,-1"/>
    <polyline class="fil0 str0" points="2699,5313 2699,5312 2699,5312 2698,5311 2697,5311 2688,5316 2688,5316 2687,5315 2687,5312 2687,5313 "/>
    <path class="fil0 str0" d="M2687 5313c-70,1 -140,1 -210,2 -55,0 -72,-1 -92,-6 1,-2 1,-2 1,-3"/>
    <polyline class="fil0 str0" points="2386,5306 2387,5305 2387,5304 2387,5305 2378,5300 2379,5299 2380,5298 2380,5297 2381,5297 2381,5296 2381,5296 "/>
    <path class="fil0 str0" d="M2381 5296c-1,-4 -2,-8 -2,-11 0,-7 3,-12 14,-28"/>
    <polyline class="fil0 str0" points="2393,5257 2394,5257 2395,5257 2396,5259 2404,5253 2404,5254 2405,5254 2405,5255 2406,5256 2406,5257 2588,5257 "/>
   </g>
  </g>
 </g>
</svg>
