<?xml version="1.0" encoding="UTF-8"?>
<!DOCTYPE svg PUBLIC "-//W3C//DTD SVG 1.1//EN" "http://www.w3.org/Graphics/SVG/1.1/DTD/svg11.dtd">
<!-- Creator: CorelDRAW X8 -->
<svg xmlns="http://www.w3.org/2000/svg" xml:space="preserve" width="40mm" height="60mm" version="1.1" style="shape-rendering:geometricPrecision; text-rendering:geometricPrecision; image-rendering:optimizeQuality; fill-rule:evenodd; clip-rule:evenodd"
viewBox="0 0 4000 6000"
 xmlns:xlink="http://www.w3.org/1999/xlink">
 <defs>
  <style type="text/css">
   <![CDATA[
    .str0 {stroke:#332C2B;stroke-width:20}
    .fil0 {fill:none}
   ]]>
  </style>
 </defs>
 <g id="图层_x0020_1">
  <metadata id="CorelCorpID_0Corel-Layer"/>
  <path class="fil0 str0" d="M910 5252l1941 0c131,0 239,-108 239,-239l0 -4124c0,-131 -108,-239 -239,-239l-1655 0c-132,0 -239,108 -239,239l0 914 17 17 0 1229 -17 17 0 1947c0,131 107,239 239,239 131,0 255,58 255,98m-244 -4578l481 0c42,0 77,34 77,76l0 1166c0,42 -35,76 -77,76l-481 0c-42,0 -76,-34 -76,-76l0 -1166c0,-42 34,-76 76,-76zm39 55l399 0c32,0 59,26 59,59l0 1097c0,32 -27,59 -59,59l-399 0c-32,0 -59,-27 -59,-59l0 -1097c0,-33 27,-59 59,-59zm35 984l0 0c30,0 54,25 54,54l0 88c0,29 -24,54 -54,54l0 0c-30,0 -54,-25 -54,-54l0 -88c0,-29 24,-54 54,-54zm164 -929c95,0 172,77 172,172 0,95 -77,172 -172,172 -95,0 -172,-77 -172,-172 0,-95 77,-172 172,-172zm1 429c95,0 173,77 173,172 0,95 -78,173 -173,173 -95,0 -172,-78 -172,-173 0,-95 77,-172 172,-172z"/>
 </g>
</svg>
