<?xml version="1.0" encoding="UTF-8"?>
<!DOCTYPE svg PUBLIC "-//W3C//DTD SVG 1.1//EN" "http://www.w3.org/Graphics/SVG/1.1/DTD/svg11.dtd">
<!-- Creator: CorelDRAW 2020 (64-Bit) -->
<svg xmlns="http://www.w3.org/2000/svg" xml:space="preserve" width="40mm" height="60mm" version="1.1" style="shape-rendering:geometricPrecision; text-rendering:geometricPrecision; image-rendering:optimizeQuality; fill-rule:evenodd; clip-rule:evenodd"
viewBox="0 0 4000 6000"
 xmlns:xlink="http://www.w3.org/1999/xlink"
 xmlns:xodm="http://www.corel.com/coreldraw/odm/2003">
 <defs>
  <style type="text/css">
   <![CDATA[
    .str0 {stroke:black;stroke-width:7.62;stroke-miterlimit:22.9256}
    .fil0 {fill:none}
   ]]>
  </style>
 </defs>
 <g id="图层_x0020_1">
  <metadata id="CorelCorpID_0Corel-Layer"/>
  <path class="fil0 str0" d="M1050.62 5323.51l1759.24 0c126.37,0 229.78,-103.4 229.78,-229.78l0 -4208.28c0,-126.37 -103.4,-229.78 -229.78,-229.78l-496.76 0c-2.41,0 -4.5,0.86 -6.21,2.57l-3.63 3.64c-1.71,1.71 -3.79,2.57 -6.21,2.57l-210 0c-19.34,0 -35.12,15.78 -35.12,35.12l0 48.96c0,32.19 -26.34,58.53 -58.53,58.53l0 0c-32.19,0 -58.53,-26.34 -58.53,-58.53l0 -48.96c0,-19.34 -15.78,-35.12 -35.12,-35.12l-210 0c-2.42,0 -4.5,-0.86 -6.21,-2.57l-3.63 -3.64c-1.71,-1.71 -3.8,-2.57 -6.21,-2.57l-496.76 0c-126.38,0 -229.78,103.4 -229.78,229.78l0 4208.28c0,126.38 103.4,229.78 229.78,229.78l66.29 0c106.88,0 170.04,22.35 185.84,32.16"/>
 </g>
</svg>
