<?xml version="1.0" encoding="UTF-8"?>
<!DOCTYPE svg PUBLIC "-//W3C//DTD SVG 1.1//EN" "http://www.w3.org/Graphics/SVG/1.1/DTD/svg11.dtd">
<!-- Creator: CorelDRAW -->
<svg xmlns="http://www.w3.org/2000/svg" xml:space="preserve" width="40mm" height="60mm" style="shape-rendering:geometricPrecision; text-rendering:geometricPrecision; image-rendering:optimizeQuality; fill-rule:evenodd; clip-rule:evenodd"
viewBox="0 0 40 60"
 xmlns:xlink="http://www.w3.org/1999/xlink">
 <defs>
  <style type="text/css">
   <![CDATA[
    .str0 {stroke:#1F1A17;stroke-width:0.0762;stroke-linejoin:bevel}
    .fil0 {fill:none}
   ]]>
  </style>
 </defs>
 <g id="图层_x0020_1">
  <metadata id="CorelCorpID_0Corel-Layer"/>
  <g id="_320927416">
   <path id="_320917448" class="fil0 str0" d="M26.8096 6.6595c-0.0572,0.0823 -0.1512,0.1314 -0.2514,0.1314l-2.4055 0c-0.1002,0.0001 -0.1942,-0.0491 -0.2514,-0.1314l-0.0195 -0.028c-0.0573,-0.0824 -0.1512,-0.1315 -0.2515,-0.1315l-0.6314 0c-0.0618,0 -0.1223,0.0187 -0.1733,0.0538l-0.1156 0.0793c-0.0816,0.0561 -0.1783,0.0861 -0.2773,0.0861l-4.8653 0c-0.099,0 -0.1958,-0.03 -0.2774,-0.0861l-0.1156 -0.0793c-0.051,-0.0351 -0.1114,-0.0538 -0.1733,-0.0538l-5.1107 0c-0.4906,0 -0.9759,0.0998 -1.4267,0.2936 -0.5581,0.2399 -0.9855,0.7083 -1.1729,1.2862 -0.1533,0.4474 -0.2315,0.9169 -0.2315,1.3899l0 41.0606c0,0.4729 0.0782,0.9425 0.2315,1.3899 0.1875,0.5778 0.6147,1.0465 1.1729,1.2862 0.4508,0.1937 0.9361,0.2936 1.4267,0.2936l16.2192 0c0.4906,0 0.9759,-0.0999 1.4267,-0.2936 0.5581,-0.2399 0.9855,-0.7083 1.1729,-1.2862 0.1533,-0.4474 0.2316,-0.917 0.2316,-1.3899l0 -41.0606c0,-0.473 -0.0783,-0.9425 -0.2316,-1.3899 -0.1875,-0.5778 -0.6147,-1.0465 -1.1729,-1.2862 -0.4508,-0.1937 -0.9361,-0.2936 -1.4267,-0.2936l-1.029 0c-0.1003,0 -0.1942,0.049 -0.2515,0.1315l-0.0195 0.028z"/>
   <path id="_320917280" class="fil0 str0" d="M12.0529 8.316c0,-0.4625 -0.375,-0.8376 -0.8376,-0.8376 -0.4626,0 -0.8376,0.3751 -0.8376,0.8376 0,0.4626 0.375,0.8376 0.8376,0.8376 0.4626,0 0.8376,-0.375 0.8376,-0.8376z"/>
  </g>
 </g>
</svg>
