<?xml version="1.0" encoding="UTF-8"?>
<!DOCTYPE svg PUBLIC "-//W3C//DTD SVG 1.1//EN" "http://www.w3.org/Graphics/SVG/1.1/DTD/svg11.dtd">
<!-- Creator: CorelDRAW X8 -->
<svg xmlns="http://www.w3.org/2000/svg" xml:space="preserve" width="40mm" height="60mm" version="1.1" style="shape-rendering:geometricPrecision; text-rendering:geometricPrecision; image-rendering:optimizeQuality; fill-rule:evenodd; clip-rule:evenodd"
viewBox="0 0 4000 6000"
 xmlns:xlink="http://www.w3.org/1999/xlink">
 <defs>
  <style type="text/css">
   <![CDATA[
    .str0 {stroke:#332C2B;stroke-width:19.4}
    .fil0 {fill:none;fill-rule:nonzero}
   ]]>
  </style>
 </defs>
 <g id="图层_x0020_1">
  <metadata id="CorelCorpID_0Corel-Layer"/>
  <g id="_2233009182176">
   <line class="fil0 str0" x1="3281" y1="841" x2="3280" y2= "5169" />
   <path class="fil0 str0" d="M3280 5169c-2,25 -18,49 -45,68 -13,9 -23,11 -62,11"/>
   <line class="fil0 str0" x1="3173" y1="5248" x2="879" y2= "5250" />
   <path class="fil0 str0" d="M879 5250c-76,0 -90,-1 -105,-8 -12,-6 -24,-17 -41,-37 -11,-14 -13,-23 -13,-65 -2,-711 -3,-1422 -2,-2133"/>
   <line class="fil0 str0" x1="718" y1="3007" x2="720" y2= "828" />
   <path class="fil0 str0" d="M720 828c2,-22 13,-39 43,-64 16,-13 24,-14 74,-14"/>
   <line class="fil0 str0" x1="837" y1="750" x2="3214" y2= "752" />
   <path class="fil0 str0" d="M3214 752c22,5 50,31 60,56 5,11 5,16 7,46 1,3 1,5 1,7"/>
  </g>
 </g>
</svg>
