<?xml version="1.0" encoding="UTF-8"?>
<!DOCTYPE svg PUBLIC "-//W3C//DTD SVG 1.1//EN" "http://www.w3.org/Graphics/SVG/1.1/DTD/svg11.dtd">
<!-- Creator: CorelDRAW X8 -->
<svg xmlns="http://www.w3.org/2000/svg" xml:space="preserve" width="40mm" height="60mm" version="1.1" style="shape-rendering:geometricPrecision; text-rendering:geometricPrecision; image-rendering:optimizeQuality; fill-rule:evenodd; clip-rule:evenodd"
viewBox="0 0 4000 6000"
 xmlns:xlink="http://www.w3.org/1999/xlink">
 <defs>
  <style type="text/css">
   <![CDATA[
    .str0 {stroke:black;stroke-width:7.62}
    .fil0 {fill:none}
   ]]>
  </style>
 </defs>
 <g id="图层_x0020_1">
  <metadata id="CorelCorpID_0Corel-Layer"/>
  <path class="fil0 str0" d="M2042 911c-1,-12 -11,-23 -33,-25 -78,0 -141,63 -141,141 0,77 63,140 141,140 77,0 140,-63 140,-140 0,-78 -63,-141 -140,-141m-75 1061c-39,10 -67,25 -67,92l0 28c0,78 63,141 140,141l0 0c77,0 141,-63 141,-141l0 -139c0,-77 -63,-140 -141,-140l0 0c-77,0 -140,63 -140,140l0 111m175 -795c-1,-12 -11,-23 -33,-25 -78,0 -141,63 -141,141 0,78 63,140 141,140 77,0 140,-62 140,-140 0,-78 -63,-141 -140,-141m26 347c-1,-9 -9,-18 -26,-20 -62,0 -111,50 -111,111 0,62 49,111 111,111 61,0 111,-49 111,-111 0,-61 -50,-111 -111,-111m-802 3804c-6,-4 -21,-12 -37,-12l-16 0c-120,0 -219,-99 -219,-219l0 -4250c0,-121 99,-219 219,-219l1692 0c120,0 219,98 219,219l0 4250c0,120 -99,219 -219,219l-1790 0"/>
 </g>
</svg>
