<?xml version="1.0" encoding="UTF-8"?>
<!DOCTYPE svg PUBLIC "-//W3C//DTD SVG 1.1//EN" "http://www.w3.org/Graphics/SVG/1.1/DTD/svg11.dtd">
<!-- Creator: CorelDRAW X8 -->
<svg xmlns="http://www.w3.org/2000/svg" xml:space="preserve" width="40mm" height="60mm" version="1.1" style="shape-rendering:geometricPrecision; text-rendering:geometricPrecision; image-rendering:optimizeQuality; fill-rule:evenodd; clip-rule:evenodd"
viewBox="0 0 4000 6000"
 xmlns:xlink="http://www.w3.org/1999/xlink">
 <defs>
  <style type="text/css">
   <![CDATA[
    .str0 {stroke:#332C2B;stroke-width:10;stroke-linecap:round;stroke-linejoin:round}
    .fil0 {fill:none;fill-rule:nonzero}
   ]]>
  </style>
 </defs>
 <g id="图层_x0020_1">
  <metadata id="CorelCorpID_0Corel-Layer"/>
  <g id="_2965613458240">
   <g>
    <line class="fil0 str0" x1="3281" y1="663" x2="3281" y2= "704" />
    <polyline class="fil0 str0" points="2015,4996 2015,5009 2020,5009 "/>
    <path class="fil0 str0" d="M2020 5009c6,-4 8,-8 9,-15 66,-5 117,-63 117,-130 0,-73 -60,-133 -133,-133 -73,0 -133,59 -133,133 0,72 59,132 130,132 10,0 19,-1 46,-5"/>
    <line class="fil0 str0" x1="2072" y1="1747" x2="2086" y2= "1745" />
    <path class="fil0 str0" d="M2086 1745c-2,-8 -5,-11 -14,-12 1,-110 1,-82 1,-191 1,-66 -1,-84 -9,-98 -8,-14 -20,-19 -62,-25"/>
    <polyline class="fil0 str0" points="2002,1419 2002,1417 2002,1422 1995,1421 1995,1418 1995,1424 "/>
    <path class="fil0 str0" d="M1995 1424c-32,7 -42,22 -43,67"/>
    <line class="fil0 str0" x1="1952" y1="1491" x2="1955" y2= "1890" />
    <path class="fil0 str0" d="M1955 1890c0,39 1,77 1,116 1,35 2,41 9,48 9,9 19,12 58,20"/>
    <polyline class="fil0 str0" points="2023,2074 2023,2071 2023,2072 2029,2072 2029,2069 "/>
    <path class="fil0 str0" d="M2029 2069c29,-5 41,-23 42,-62"/>
    <line class="fil0 str0" x1="2071" y1="2007" x2="2068" y2= "1769" />
    <path class="fil0 str0" d="M2068 1769c0,-29 1,-47 4,-77"/>
    <line class="fil0 str0" x1="2694" y1="663" x2="2694" y2= "650" />
    <path class="fil0 str0" d="M2694 650c-8,1 -12,4 -14,13"/>
    <polyline class="fil0 str0" points="2680,663 2175,663 2175,665 2163,667 2163,669 2164,670 2154,675 2154,676 2155,677 2155,678 2157,679 2149,687 2148,687 2149,687 2149,688 2150,689 2143,698 2144,698 2145,699 "/>
    <path class="fil0 str0" d="M2145 699c0,0 1,0 3,1"/>
    <polyline class="fil0 str0" points="2148,700 2145,711 2144,711 2148,711 2149,723 2154,723 2154,722 2155,723 2168,748 2171,754 "/>
    <path class="fil0 str0" d="M2171 754c18,33 27,66 27,99 0,44 -16,86 -49,127 -9,12 -19,20 -73,55"/>
    <polyline class="fil0 str0" points="2076,1035 2076,1034 2067,1039 2068,1041 2068,1042 2070,1043 2063,1050 2063,1051 2064,1051 2067,1054 2066,1066 2067,1093 "/>
    <path class="fil0 str0" d="M2067 1093c3,-1 5,-1 7,-2"/>
    <line class="fil0 str0" x1="2074" y1="1091" x2="2075" y2= "1091" />
    <path class="fil0 str0" d="M2075 1091c26,35 33,52 33,77 0,59 -41,101 -100,101 -54,0 -100,-45 -100,-98 0,-35 17,-66 59,-104"/>
    <polyline class="fil0 str0" points="1967,1067 1963,1065 1959,1065 "/>
    <path class="fil0 str0" d="M1959 1065c0,-5 -2,-10 -13,-39"/>
    <polyline class="fil0 str0" points="1946,1026 1946,1027 1945,1027 1944,1028 1943,1028 1942,1030 1935,1023 1935,1022 1934,1023 1934,1024 1932,1026 1923,1021 1922,1028 1923,1020 "/>
    <path class="fil0 str0" d="M1923 1020c-68,-38 -103,-94 -103,-164 0,-34 10,-67 29,-100 18,-31 29,-51 33,-60"/>
    <polyline class="fil0 str0" points="1882,696 1881,695 1877,695 1877,684 1873,684 1870,672 1868,672 1867,674 1866,674 1865,675 1857,664 1857,665 1856,665 1855,666 1847,660 1847,661 1846,661 1846,662 1845,663 1835,658 1834,663 1822,662 1822,659 1822,663 815,664 "/>
    <path class="fil0 str0" d="M815 664c-22,2 -42,13 -62,37 -8,9 -10,20 -10,65"/>
    <line class="fil0 str0" x1="743" y1="766" x2="723" y2= "3798" />
    <path class="fil0 str0" d="M723 3798c-7,1249 -5,1483 19,1527"/>
    <polyline class="fil0 str0" points="742,5325 743,5326 745,5333 746,5336 746,5340 "/>
    <path class="fil0 str0" d="M746 5340c-1,8 -1,8 148,8"/>
    <line class="fil0 str0" x1="894" y1="5348" x2="1918" y2= "5349" />
    <path class="fil0 str0" d="M1918 5349c1094,2 1349,1 1357,-8 3,-3 4,-8 5,-24"/>
    <line class="fil0 str0" x1="3280" y1="5317" x2="3266" y2= "2105" />
    <path class="fil0 str0" d="M3266 2105c-5,-1256 -5,-1312 11,-1378 0,-2 1,-4 1,-5 0,-15 -25,-43 -45,-52 -15,-7 -28,-8 -143,-7"/>
    <line class="fil0 str0" x1="3090" y1="663" x2="2640" y2= "663" />
   </g>
  </g>
 </g>
</svg>
