<?xml version="1.0" encoding="UTF-8"?>
<!DOCTYPE svg PUBLIC "-//W3C//DTD SVG 1.1//EN" "http://www.w3.org/Graphics/SVG/1.1/DTD/svg11.dtd">
<!-- Creator: CorelDRAW 2020 (64-Bit) -->
<svg xmlns="http://www.w3.org/2000/svg" xml:space="preserve" width="40mm" height="60mm" version="1.1" style="shape-rendering:geometricPrecision; text-rendering:geometricPrecision; image-rendering:optimizeQuality; fill-rule:evenodd; clip-rule:evenodd"
viewBox="0 0 4000 6000"
 xmlns:xlink="http://www.w3.org/1999/xlink"
 xmlns:xodm="http://www.corel.com/coreldraw/odm/2003">
 <defs>
  <style type="text/css">
   <![CDATA[
    .str0 {stroke:black;stroke-width:7.62;stroke-miterlimit:22.9256}
    .fil0 {fill:none}
   ]]>
  </style>
 </defs>
 <g id="图层_x0020_1">
  <metadata id="CorelCorpID_0Corel-Layer"/>
  <path class="fil0 str0" d="M1018.79 5312.89l1786.47 0c137.95,0 250.83,-112.88 250.83,-250.82l0 -4155.57c0,-137.94 -112.87,-250.83 -250.83,-250.83l-500.39 0c-2.84,0 -5.28,1.13 -7.12,3.29l-9.99 11.75c-1.84,2.16 -4.28,3.29 -7.12,3.29l-164.14 0c-20.6,0 -37.4,16.8 -37.4,37.4l0 53.35c0,47.14 -38.56,85.7 -85.7,85.7l0 0c-47.14,0 -85.7,-38.56 -85.7,-85.7l0 -53.35c0,-20.6 -16.8,-37.4 -37.4,-37.4l-165.3 0c-2.54,0 -4.73,-0.89 -6.54,-2.67l-13.25 -12.99c-1.81,-1.78 -4,-2.67 -6.54,-2.67l-497.13 0c-137.96,0 -250.83,112.87 -250.83,250.83l0 4155.57c0,137.95 112.88,250.82 250.83,250.82l63.17 0c125.89,0 194.74,20.33 202.84,42.78"/>
 </g>
</svg>
