<?xml version="1.0" encoding="UTF-8"?>
<!DOCTYPE svg PUBLIC "-//W3C//DTD SVG 1.1//EN" "http://www.w3.org/Graphics/SVG/1.1/DTD/svg11.dtd">
<!-- Creator: CorelDRAW X8 -->
<svg xmlns="http://www.w3.org/2000/svg" xml:space="preserve" width="40mm" height="60mm" version="1.1" style="shape-rendering:geometricPrecision; text-rendering:geometricPrecision; image-rendering:optimizeQuality; fill-rule:evenodd; clip-rule:evenodd"
viewBox="0 0 4000 6000"
 xmlns:xlink="http://www.w3.org/1999/xlink">
 <defs>
  <style type="text/css">
   <![CDATA[
    .str0 {stroke:black;stroke-width:20}
    .fil0 {fill:none}
   ]]>
  </style>
 </defs>
 <g id="图层_x0020_1">
  <metadata id="CorelCorpID_0Corel-Layer"/>
  <path class="fil0 str0" d="M905 5350l2071 0c88,0 160,-72 160,-160l0 -4380c0,-88 -72,-160 -160,-160l-1952 0c-88,0 -160,72 -160,160l0 4380c0,88 72,160 160,160l161 0m690 -316l253 0c69,0 126,57 126,126l0 0c0,69 -57,126 -126,126l-253 0c-69,0 -126,-57 -126,-126l0 0c0,-69 57,-126 126,-126zm-60 -4282l378 0c18,0 32,14 32,32l0 0c0,17 -14,31 -32,31l-378 0c-17,0 -32,-14 -32,-31l0 0c0,-18 15,-32 32,-32zm-149 -23c31,0 56,25 56,55 0,31 -25,55 -56,55 -30,0 -55,-24 -55,-55 0,-30 25,-55 55,-55zm679 8c26,0 47,21 47,47 0,26 -21,47 -47,47 -27,0 -48,-21 -48,-47 0,-26 21,-47 48,-47z"/>
 </g>
</svg>
