<?xml version="1.0" encoding="UTF-8"?>
<!DOCTYPE svg PUBLIC "-//W3C//DTD SVG 1.1//EN" "http://www.w3.org/Graphics/SVG/1.1/DTD/svg11.dtd">
<!-- Creator: CorelDRAW X8 -->
<svg xmlns="http://www.w3.org/2000/svg" xml:space="preserve" width="40mm" height="60mm" version="1.1" style="shape-rendering:geometricPrecision; text-rendering:geometricPrecision; image-rendering:optimizeQuality; fill-rule:evenodd; clip-rule:evenodd"
viewBox="0 0 4000 6000"
 xmlns:xlink="http://www.w3.org/1999/xlink">
 <defs>
  <style type="text/css">
   <![CDATA[
    .str0 {stroke:#332C2B;stroke-width:7.62}
    .fil0 {fill:none}
   ]]>
  </style>
 </defs>
 <g id="图层_x0020_1">
  <metadata id="CorelCorpID_0Corel-Layer"/>
  <path class="fil0 str0" d="M-15261 11113c0,-150 -352,-580 -768,-580 -416,0 -756,-340 -756,-756l0 -17988c0,-416 340,-756 756,-756l11489 0c415,0 755,340 755,756l0 8719 -436 0c-151,0 -275,124 -275,275l0 0c0,151 124,275 275,275l436 0 0 8719c0,416 -340,756 -755,756l-12503 0"/>
  <path class="fil0 str0" d="M865 5350c0,-35 -82,-136 -179,-136 -98,0 -177,-79 -177,-177l0 -4210c0,-97 79,-177 177,-177l2689 0c97,0 177,80 177,177l0 2041 -102 0c-36,0 -65,29 -65,64l0 0c0,35 29,64 65,64l102 0 0 2041c0,98 -80,177 -177,177l-2927 0"/>
 </g>
</svg>
