<?xml version="1.0" encoding="UTF-8"?>
<!DOCTYPE svg PUBLIC "-//W3C//DTD SVG 1.1//EN" "http://www.w3.org/Graphics/SVG/1.1/DTD/svg11.dtd">
<!-- Creator: CorelDRAW X8 -->
<svg xmlns="http://www.w3.org/2000/svg" xml:space="preserve" width="40mm" height="60mm" version="1.1" style="shape-rendering:geometricPrecision; text-rendering:geometricPrecision; image-rendering:optimizeQuality; fill-rule:evenodd; clip-rule:evenodd"
viewBox="0 0 4000 6000"
 xmlns:xlink="http://www.w3.org/1999/xlink">
 <defs>
  <style type="text/css">
   <![CDATA[
    .str0 {stroke:#332C2B;stroke-width:10;stroke-linecap:round;stroke-linejoin:round}
    .fil0 {fill:none;fill-rule:nonzero}
   ]]>
  </style>
 </defs>
 <g id="图层_x0020_1">
  <metadata id="CorelCorpID_0Corel-Layer"/>
  <g id="_1875343368528">
   <line class="fil0 str0" x1="937" y1="795" x2="937" y2= "804" />
   <path class="fil0 str0" d="M937 804c5,0 8,-3 10,-7 131,39 168,45 266,46"/>
   <line class="fil0 str0" x1="1213" y1="843" x2="1213" y2= "846" />
   <path class="fil0 str0" d="M1213 846c0,0 -1,1 -1,2"/>
   <line class="fil0 str0" x1="1212" y1="848" x2="1217" y2= "851" />
   <path class="fil0 str0" d="M1217 851c-1,3 -4,4 -8,5"/>
   <line class="fil0 str0" x1="1209" y1="856" x2="1209" y2= "863" />
   <path class="fil0 str0" d="M1209 863c-3,-1 -6,-2 -8,-5"/>
   <polyline class="fil0 str0" points="1201,858 1196,862 1194,861 1194,858 "/>
   <path class="fil0 str0" d="M1194 858c-110,14 -188,69 -221,155 -3,6 -5,13 -8,19"/>
   <polyline class="fil0 str0" points="965,1032 965,1031 965,1031 964,1030 963,1030 958,1037 958,1036 "/>
   <path class="fil0 str0" d="M958 1036c-1,0 -2,-1 -2,-1"/>
   <polyline class="fil0 str0" points="956,1035 956,1033 955,1033 947,1035 947,1033 884,1031 "/>
   <path class="fil0 str0" d="M884 1031c-28,0 -39,2 -53,9 0,2 1,3 5,5"/>
   <polyline class="fil0 str0" points="836,1045 843,4927 846,4926 847,4925 848,4924 848,4922 849,4923 958,4922 958,4927 967,4930 967,4928 962,4935 "/>
   <path class="fil0 str0" d="M962 4935c2,31 21,79 41,103 29,35 80,65 145,84 17,5 22,7 65,24"/>
   <polyline class="fil0 str0" points="1213,5146 1213,5145 1213,5147 "/>
   <path class="fil0 str0" d="M1213 5147c0,1 -1,1 -1,2"/>
   <line class="fil0 str0" x1="1212" y1="5149" x2="1217" y2= "5153" />
   <path class="fil0 str0" d="M1217 5153c-1,2 -4,4 -8,4"/>
   <line class="fil0 str0" x1="1209" y1="5157" x2="1209" y2= "5164" />
   <path class="fil0 str0" d="M1209 5164c-3,0 -6,-2 -8,-4"/>
   <line class="fil0 str0" x1="1201" y1="5160" x2="1196" y2= "5163" />
   <path class="fil0 str0" d="M1196 5163c-1,-1 -1,-1 -2,-2"/>
   <line class="fil0 str0" x1="1194" y1="5161" x2="1194" y2= "5158" />
   <path class="fil0 str0" d="M1194 5158c-92,6 -113,10 -201,35 -50,15 -69,19 -158,32 -20,3 -27,5 -46,11"/>
   <polyline class="fil0 str0" points="789,5236 789,5237 791,5238 791,5239 793,5240 794,5242 793,5295 "/>
   <path class="fil0 str0" d="M793 5295c0,26 2,36 10,51 2,-2 4,-4 5,-7"/>
   <polyline class="fil0 str0" points="808,5339 808,5341 2533,5349 "/>
   <path class="fil0 str0" d="M2533 5349c494,3 651,-1 678,-15"/>
   <polyline class="fil0 str0" points="3211,5334 3210,5332 3209,5331 3208,5330 "/>
   <path class="fil0 str0" d="M3208 5330c-1,-1 -2,-1 -2,-2 0,-1 0,-3 0,-6 0,-17 -2,-52 -6,-99"/>
   <polyline class="fil0 str0" points="3200,5223 3198,5224 3196,5225 3194,5228 "/>
   <path class="fil0 str0" d="M3194 5228c-46,-3 -100,-14 -186,-38"/>
   <line class="fil0 str0" x1="3008" y1="5190" x2="2965" y2= "5178" />
   <path class="fil0 str0" d="M2965 5178c-19,-5 -35,-8 -59,-10"/>
   <polyline class="fil0 str0" points="2906,5168 2788,5158 2788,5153 2789,5153 2789,5152 2789,5153 2783,5149 2787,5146 2791,5145 2792,5138 "/>
   <path class="fil0 str0" d="M2792 5138c2,0 5,1 7,4"/>
   <polyline class="fil0 str0" points="2799,5142 2805,5139 2806,5139 2806,5139 2806,5140 2806,5142 "/>
   <path class="fil0 str0" d="M2806 5142c58,-6 96,-20 143,-54 50,-35 71,-67 86,-130 5,-22 5,-24 13,-40"/>
   <polyline class="fil0 str0" points="3048,4918 3049,4918 3049,4919 3051,4920 3053,4922 3062,4919 3062,4923 3118,4925 "/>
   <path class="fil0 str0" d="M3118 4925c27,0 37,-2 52,-10"/>
   <polyline class="fil0 str0" points="3170,4915 3169,4912 3167,4911 3167,4910 3165,4910 3157,1028 "/>
   <path class="fil0 str0" d="M3157 1028c-1,0 -3,2 -4,5"/>
   <polyline class="fil0 str0" points="3153,1033 3035,1033 3035,1029 3027,1026 "/>
   <path class="fil0 str0" d="M3027 1026c1,-2 2,-3 3,-5"/>
   <polyline class="fil0 str0" points="3030,1021 3025,1014 3026,1014 3027,1014 3028,1014 "/>
   <path class="fil0 str0" d="M3028 1014c-15,-56 -83,-112 -164,-136"/>
   <line class="fil0 str0" x1="2864" y1="878" x2="2788" y2= "855" />
   <path class="fil0 str0" d="M2788 855c0,-1 0,-2 0,-3"/>
   <polyline class="fil0 str0" points="2788,852 2789,851 2789,851 2789,851 2783,848 "/>
   <path class="fil0 str0" d="M2783 848c1,-1 2,-2 5,-4"/>
   <polyline class="fil0 str0" points="2788,844 2791,844 2792,837 "/>
   <path class="fil0 str0" d="M2792 837c2,0 5,1 7,4"/>
   <polyline class="fil0 str0" points="2799,841 2805,837 2806,838 2806,841 2806,842 "/>
   <path class="fil0 str0" d="M2806 842c57,0 113,-8 185,-28 92,-25 102,-28 173,-41"/>
   <polyline class="fil0 str0" points="3164,773 3164,771 3163,770 3163,769 3162,769 3170,764 "/>
   <path class="fil0 str0" d="M3170 764c-2,-2 -4,-3 -6,-4"/>
   <polyline class="fil0 str0" points="3164,760 3166,760 3169,751 3165,751 3166,700 "/>
   <path class="fil0 str0" d="M3166 700c0,-25 -1,-35 -9,-50"/>
   <polyline class="fil0 str0" points="3157,650 3156,650 3155,651 3154,652 3153,654 830,661 831,663 831,663 832,665 836,667 835,770 839,770 843,779 "/>
   <path class="fil0 str0" d="M843 779c1,-1 2,-2 4,-3"/>
   <polyline class="fil0 str0" points="847,776 847,775 854,780 "/>
   <path class="fil0 str0" d="M854 780c1,-1 2,-2 2,-2"/>
   <polyline class="fil0 str0" points="856,778 856,776 856,777 950,798 "/>
   <line class="fil0 str0" x1="3144" y1="1541" x2="3154" y2= "1543" />
   <path class="fil0 str0" d="M3154 1543c0,-9 -3,-11 -10,-12 1,-92 1,-69 2,-161 0,-47 -1,-62 -8,-83"/>
   <polyline class="fil0 str0" points="3138,1287 3136,1287 3136,1287 3135,1287 3134,1288 3129,1282 3129,1282 3129,1282 3129,1283 3128,1283 3127,1284 3120,1279 3120,1280 3120,1280 "/>
   <path class="fil0 str0" d="M3120 1280c-1,1 -1,2 -1,2 -3,0 -4,0 -6,0 -4,0 -10,1 -26,5"/>
   <polyline class="fil0 str0" points="3087,1287 3087,1289 3088,1289 3088,1290 3089,1291 3082,1296 3083,1296 3083,1296 3084,1296 3084,1297 3084,1298 3080,1304 3080,1304 3081,1305 3082,1305 3082,1305 3083,1306 "/>
   <path class="fil0 str0" d="M3083 1306c-3,10 -5,84 -5,182 0,157 3,243 10,305"/>
   <polyline class="fil0 str0" points="3088,1793 3089,1793 3090,1793 3091,1793 3091,1792 3096,1799 3098,1798 3098,1797 3098,1796 3098,1797 3105,1802 "/>
   <path class="fil0 str0" d="M3105 1802c0,-2 1,-2 1,-3"/>
   <polyline class="fil0 str0" points="3106,1799 3106,1797 3106,1798 3113,1800 3138,1793 3138,1792 3137,1791 3137,1791 3136,1790 3143,1785 3142,1784 3141,1784 3141,1783 3141,1783 3146,1776 "/>
   <path class="fil0 str0" d="M3146 1776c-1,-1 -2,-1 -3,-2"/>
   <polyline class="fil0 str0" points="3143,1774 3141,1774 3143,1774 "/>
   <path class="fil0 str0" d="M3143 1774c2,-12 3,-65 3,-133 0,-49 -1,-99 -2,-138"/>
   <line class="fil0 str0" x1="1377" y1="731" x2="1377" y2= "721" />
   <path class="fil0 str0" d="M1377 721c5,0 7,2 10,7"/>
   <polyline class="fil0 str0" points="1387,728 1396,726 1396,725 1395,724 1395,724 1394,723 1402,718 1401,717 1401,716 1400,715 1399,715 1404,708 "/>
   <path class="fil0 str0" d="M1404 708c-1,-1 -1,-1 -2,-2"/>
   <polyline class="fil0 str0" points="1402,706 1400,706 1401,706 1403,697 1399,697 1397,687 1395,687 1394,689 1389,681 1388,682 1387,682 "/>
   <path class="fil0 str0" d="M1387 682c0,0 -1,1 -1,2"/>
   <polyline class="fil0 str0" points="1386,684 1378,679 1378,678 1378,679 1377,680 "/>
   <path class="fil0 str0" d="M1377 680c0,0 0,1 0,2"/>
   <polyline class="fil0 str0" points="1377,682 1368,681 1368,680 1368,684 1358,686 1358,688 1360,689 1352,694 1353,695 1353,696 "/>
   <path class="fil0 str0" d="M1353 696c1,0 1,1 2,1"/>
   <polyline class="fil0 str0" points="1355,697 1350,705 1349,705 1350,705 1351,705 "/>
   <path class="fil0 str0" d="M1351 705c1,1 2,1 3,1"/>
   <polyline class="fil0 str0" points="1354,706 1352,716 1351,716 1356,716 1358,725 1358,725 1359,724 1360,724 1361,724 1365,731 1367,730 1368,730 1368,729 1368,729 1376,734 "/>
   <path class="fil0 str0" d="M1376 734c1,-2 1,-2 1,-3"/>
   <polyline class="fil0 str0" points="1377,731 1377,729 1377,731 1387,733 1387,728 1396,726 "/>
   <polyline class="fil0 str0" points="1705,734 1715,731 1715,734 "/>
   <path class="fil0 str0" d="M1715 734c2,0 3,0 5,0 13,0 17,-1 37,-8"/>
   <polyline class="fil0 str0" points="1757,726 1757,725 1757,724 1756,724 1756,723 1761,719 1761,718 1760,718 1760,717 1765,712 1763,710 "/>
   <path class="fil0 str0" d="M1763 710c-1,0 -3,0 -4,0"/>
   <polyline class="fil0 str0" points="1759,710 1761,710 1761,708 "/>
   <path class="fil0 str0" d="M1761 708c0,-6 0,-6 -4,-21"/>
   <polyline class="fil0 str0" points="1757,687 1756,682 1754,682 1754,682 1753,682 1752,683 1747,677 1747,677 1747,677 1747,678 1746,678 1745,679 1740,675 1740,675 1739,676 "/>
   <path class="fil0 str0" d="M1739 676c0,0 0,1 -1,2 -4,0 -9,-1 -13,-1 -11,0 -23,2 -43,6"/>
   <polyline class="fil0 str0" points="1682,683 1682,684 1683,685 1683,686 1684,687 1678,691 1679,691 1679,691 1679,691 1679,692 1680,693 1675,699 1676,699 1676,700 "/>
   <path class="fil0 str0" d="M1676 700c1,0 1,0 3,1"/>
   <polyline class="fil0 str0" points="1679,701 1677,705 1684,729 "/>
   <path class="fil0 str0" d="M1684 729c1,-1 1,-1 2,-1"/>
   <polyline class="fil0 str0" points="1686,728 1687,726 1688,726 1693,732 1693,731 1693,731 1694,731 1694,730 1694,731 1700,735 "/>
   <path class="fil0 str0" d="M1700 735c0,-2 0,-2 1,-3"/>
   <polygon class="fil0 str0" points="1701,732 1701,730 "/>
   <path class="fil0 str0" d="M1701 732c4,1 7,1 13,1"/>
   <line class="fil0 str0" x1="1714" y1="733" x2="1743" y2= "733" />
   <polyline class="fil0 str0" points="2265,806 2275,806 2275,805 2275,807 "/>
   <path class="fil0 str0" d="M2275 807c37,-5 50,-22 59,-80"/>
   <polyline class="fil0 str0" points="2334,727 2330,727 2329,728 "/>
   <path class="fil0 str0" d="M2329 728c-2,1 -2,1 -4,2"/>
   <line class="fil0 str0" x1="2325" y1="730" x2="2325" y2= "731" />
   <path class="fil0 str0" d="M2325 731c-14,-11 -30,-17 -48,-17"/>
   <line class="fil0 str0" x1="2277" y1="714" x2="2277" y2= "714" />
   <path class="fil0 str0" d="M2277 714c-8,0 -11,0 -15,0 -4,1 -8,2 -13,4 -8,4 -15,9 -49,32"/>
   <line class="fil0 str0" x1="2200" y1="750" x2="2200" y2= "750" />
   <path class="fil0 str0" d="M2200 750c0,-1 -1,-2 -1,-2"/>
   <polyline class="fil0 str0" points="2199,748 2199,747 2199,745 2191,747 "/>
   <path class="fil0 str0" d="M2191 747c0,-3 1,-6 2,-8"/>
   <line class="fil0 str0" x1="2193" y1="739" x2="2189" y2= "736" />
   <path class="fil0 str0" d="M2189 736c2,-2 4,-3 5,-4"/>
   <polyline class="fil0 str0" points="2194,732 2192,727 2197,727 2199,722 2198,722 "/>
   <path class="fil0 str0" d="M2198 722c1,0 4,1 6,3"/>
   <line class="fil0 str0" x1="2204" y1="725" x2="2208" y2= "722" />
   <path class="fil0 str0" d="M2208 722c1,1 2,3 2,7"/>
   <polyline class="fil0 str0" points="2210,729 2217,731 2217,730 2217,732 "/>
   <path class="fil0 str0" d="M2217 732c-1,1 -1,1 -2,3"/>
   <line class="fil0 str0" x1="2215" y1="735" x2="2226" y2= "743" />
   <path class="fil0 str0" d="M2226 743c-2,1 -3,2 -7,3 4,38 22,55 66,62"/>
   <polyline class="fil0 str0" points="2449,5303 2459,5304 2459,5301 2460,5301 "/>
   <path class="fil0 str0" d="M2460 5301c11,-7 18,-17 18,-26 0,-15 -14,-27 -28,-27 -16,0 -28,12 -28,28 0,16 10,26 27,26 6,0 9,0 21,-3"/>
   <polyline class="fil0 str0" points="1425,5285 1434,5283 1434,5285 "/>
   <path class="fil0 str0" d="M1434 5285c43,1 69,1 86,1 35,0 49,-1 69,-8"/>
   <polyline class="fil0 str0" points="1589,5278 1589,5277 1588,5276 1588,5276 1587,5275 1593,5271 1591,5269 1591,5269 1590,5269 1591,5269 1596,5262 "/>
   <path class="fil0 str0" d="M1596 5262c-2,0 -2,-1 -3,-1"/>
   <polyline class="fil0 str0" points="1593,5261 1591,5261 1592,5261 1592,5259 "/>
   <path class="fil0 str0" d="M1592 5259c0,-6 0,-6 -3,-21"/>
   <polyline class="fil0 str0" points="1589,5238 1587,5233 1587,5233 1586,5233 1585,5233 "/>
   <path class="fil0 str0" d="M1585 5233c-1,1 -1,1 -2,2"/>
   <polyline class="fil0 str0" points="1583,5235 1578,5229 1578,5230 1577,5230 1577,5231 1571,5226 1571,5227 1570,5228 1570,5228 1570,5229 "/>
   <path class="fil0 str0" d="M1570 5229c-9,-1 -33,-1 -68,-1 -95,0 -186,3 -241,8"/>
   <polyline class="fil0 str0" points="1261,5236 1262,5236 1262,5237 1262,5238 1262,5238 1257,5243 1257,5243 1257,5243 1258,5244 1253,5250 1254,5250 1254,5250 1255,5251 "/>
   <path class="fil0 str0" d="M1255 5251c0,0 1,0 2,1"/>
   <polyline class="fil0 str0" points="1257,5252 1256,5257 1262,5280 1264,5280 1264,5279 1265,5279 1266,5278 1271,5285 1272,5283 1272,5283 1273,5282 1273,5283 1279,5287 "/>
   <path class="fil0 str0" d="M1279 5287c0,-2 0,-2 1,-3"/>
   <polyline class="fil0 str0" points="1280,5284 1280,5282 1280,5283 "/>
   <path class="fil0 str0" d="M1280 5283c12,2 44,3 87,3 30,0 64,0 95,-1"/>
   <path class="fil0 str0" d="M2000 5299c20,0 15,0 36,0 28,0 42,-1 51,-3 9,-1 15,-5 22,-12 9,-9 14,-22 14,-35 0,-17 -9,-33 -23,-42 -13,-7 -38,-9 -132,-9 -49,0 -61,1 -75,9 -13,8 -23,25 -23,43 0,29 21,48 53,49"/>
   <line class="fil0 str0" x1="1923" y1="5299" x2="2038" y2= "5299" />
   <line class="fil0 str0" x1="919" y1="2432" x2="929" y2= "2432" />
   <path class="fil0 str0" d="M929 2432c0,-6 -4,-10 -10,-10 1,-40 1,-30 1,-70 0,-28 -1,-36 -6,-55"/>
   <polyline class="fil0 str0" points="914,2297 912,2297 911,2297 911,2297 910,2298 906,2293 906,2294 906,2294 906,2295 905,2295 904,2296 899,2292 899,2292 899,2292 898,2293 "/>
   <path class="fil0 str0" d="M898 2293c0,1 0,1 -1,2"/>
   <polyline class="fil0 str0" points="897,2295 885,2292 885,2297 874,2300 874,2301 874,2302 874,2302 875,2303 869,2306 870,2307 870,2308 871,2309 868,2314 869,2314 869,2315 "/>
   <path class="fil0 str0" d="M869 2315c1,0 1,0 2,1 -1,9 -3,37 -3,74 0,70 3,126 8,175"/>
   <polyline class="fil0 str0" points="876,2565 878,2565 878,2565 879,2565 880,2564 883,2569 885,2568 885,2567 885,2566 885,2567 891,2571 "/>
   <path class="fil0 str0" d="M891 2571c1,-2 1,-2 1,-3"/>
   <polyline class="fil0 str0" points="892,2568 892,2566 892,2568 904,2571 904,2566 916,2563 916,2561 916,2561 916,2560 915,2559 920,2555 919,2554 918,2554 918,2553 918,2553 922,2548 "/>
   <path class="fil0 str0" d="M922 2548c-2,-1 -2,-1 -3,-1"/>
   <polyline class="fil0 str0" points="919,2547 917,2547 918,2547 "/>
   <path class="fil0 str0" d="M918 2547c2,-16 3,-59 3,-100 0,-24 -1,-43 -1,-53"/>
   <polyline class="fil0 str0" points="919,1874 920,1864 919,1864 "/>
   <path class="fil0 str0" d="M919 1864c1,-61 1,-123 2,-184 0,-50 -1,-65 -7,-85"/>
   <polyline class="fil0 str0" points="914,1595 913,1595 912,1596 911,1596 911,1597 907,1591 906,1592 906,1592 "/>
   <path class="fil0 str0" d="M906 1592c-1,0 -1,1 -2,2"/>
   <polyline class="fil0 str0" points="904,1594 899,1591 899,1590 899,1591 898,1591 "/>
   <path class="fil0 str0" d="M898 1591c0,1 0,1 -1,2"/>
   <polyline class="fil0 str0" points="897,1593 885,1590 885,1595 874,1598 874,1599 874,1600 874,1600 875,1601 869,1605 870,1605 870,1606 "/>
   <path class="fil0 str0" d="M870 1606c1,1 1,1 2,1"/>
   <polyline class="fil0 str0" points="872,1607 869,1613 868,1613 869,1613 869,1614 "/>
   <path class="fil0 str0" d="M869 1614c1,0 1,0 2,0 -2,12 -3,84 -3,182 0,169 2,242 8,355"/>
   <polyline class="fil0 str0" points="876,2151 877,2151 878,2151 878,2151 879,2150 883,2156 884,2154 885,2154 885,2154 885,2153 891,2156 "/>
   <path class="fil0 str0" d="M891 2156c1,-1 1,-1 1,-2"/>
   <polyline class="fil0 str0" points="892,2154 892,2152 892,2154 904,2157 904,2152 916,2149 916,2148 916,2147 916,2146 915,2146 920,2142 919,2141 919,2140 918,2139 918,2139 921,2134 "/>
   <path class="fil0 str0" d="M921 2134c-1,-1 -1,-1 -2,-2"/>
   <polyline class="fil0 str0" points="919,2132 917,2132 918,2132 "/>
   <path class="fil0 str0" d="M918 2132c2,-23 3,-84 3,-158 0,-49 0,-98 -1,-138"/>
   <line class="fil0 str0" x1="1326" y1="2036" x2="1326" y2= "2026" />
   <path class="fil0 str0" d="M1326 2026c6,1 8,3 10,9 29,0 57,-33 57,-67 0,-38 -31,-69 -69,-69 -38,0 -69,31 -69,69 0,38 31,69 67,69 6,0 19,-2 27,-4"/>
   <path class="fil0 str0" d="M1326 1868c37,-5 47,-8 67,-21 33,-22 54,-60 54,-101 0,-66 -55,-120 -122,-120 -66,0 -121,54 -121,120 0,67 53,121 119,121 9,0 12,0 37,-3"/>
   <path class="fil0 str0" d="M1326 1534c47,-5 73,-32 73,-72 0,-41 -33,-74 -73,-74 -40,0 -72,33 -72,73 0,43 30,72 74,72 7,0 14,0 23,-1"/>
   <path class="fil0 str0" d="M1326 1215c47,-6 73,-33 73,-73 0,-41 -32,-73 -73,-73 -40,0 -72,32 -72,73 0,40 31,72 72,72 5,0 7,0 25,-2"/>
   <line class="fil0 str0" x1="1432" y1="1300" x2="1442" y2= "1299" />
   <path class="fil0 str0" d="M1442 1299c-2,-6 -4,-8 -9,-9"/>
   <line class="fil0 str0" x1="1433" y1="1290" x2="1433" y2= "1209" />
   <path class="fil0 str0" d="M1433 1209c0,-53 0,-72 -2,-86 -2,-15 -4,-22 -12,-37 -18,-33 -54,-54 -93,-54 -63,0 -105,44 -107,114 -1,30 -2,86 -2,147 0,128 1,162 5,189 3,16 6,26 12,35 4,7 9,12 21,22 19,17 45,27 71,27 48,0 88,-30 102,-76 4,-15 5,-22 5,-71"/>
   <line class="fil0 str0" x1="1433" y1="1419" x2="1432" y2= "1262" />
   <line class="fil0 str0" x1="1460" y1="1300" x2="1460" y2= "1231" />
   <path class="fil0 str0" d="M1460 1231c0,-71 0,-104 -3,-114 -13,-61 -70,-106 -131,-106 -61,0 -108,36 -129,98"/>
   <line class="fil0 str0" x1="1197" y1="1109" x2="1195" y2= "1114" />
   <path class="fil0 str0" d="M1195 1114c-4,10 -4,10 -5,146"/>
   <line class="fil0 str0" x1="1190" y1="1260" x2="1189" y2= "1377" />
   <path class="fil0 str0" d="M1189 1377c0,94 0,94 4,113"/>
   <line class="fil0 str0" x1="1193" y1="1490" x2="1196" y2= "1500" />
   <path class="fil0 str0" d="M1196 1500c13,60 68,101 130,101 67,0 125,-50 133,-114 1,-13 2,-22 2,-50"/>
   <line class="fil0 str0" x1="1461" y1="1437" x2="1460" y2= "1326" />
   <path class="fil0 str0" d="M1460 1326c0,-21 0,-43 0,-64"/>
   <line class="fil0 str0" x1="2000" y1="1997" x2="2000" y2= "1987" />
   <path class="fil0 str0" d="M2000 1987c5,1 8,3 10,9 95,-6 165,-80 165,-174 0,-97 -78,-176 -175,-176 -98,0 -176,78 -176,175 0,96 78,176 172,176 12,0 21,-1 49,-5"/>
  </g>
 </g>
</svg>
