<?xml version="1.0" encoding="UTF-8"?>
<!DOCTYPE svg PUBLIC "-//W3C//DTD SVG 1.1//EN" "http://www.w3.org/Graphics/SVG/1.1/DTD/svg11.dtd">
<!-- Creator: CorelDRAW -->
<svg xmlns="http://www.w3.org/2000/svg" xml:space="preserve" width="40mm" height="60mm" style="shape-rendering:geometricPrecision; text-rendering:geometricPrecision; image-rendering:optimizeQuality; fill-rule:evenodd; clip-rule:evenodd"
viewBox="0 0 40 60"
 xmlns:xlink="http://www.w3.org/1999/xlink">
 <defs>
  <style type="text/css">
   <![CDATA[
    .str0 {stroke:#1F1A17;stroke-width:0.194}
    .fil0 {fill:none;fill-rule:nonzero}
   ]]>
  </style>
 </defs>
 <g id="图层_x0020_1">
  <metadata id="CorelCorpID_0Corel-Layer"/>
  <g id="_248368944">
   <line id="_247919800" class="fil0 str0" x1="19.8281" y1="9.4207" x2="19.8322" y2= "9.5095" />
   <line id="_248206216" class="fil0 str0" x1="19.8822" y1="9.4207" x2="21.7964" y2= "9.4051" />
   <path id="_248211040" class="fil0 str0" d="M21.7964 9.4051c0.5534,-0.0052 0.7267,0.0094 0.8146,0.0668 0.0879,0.0574 0.1117,0.1712 0.1117,0.5334 0,0.4415 -0.0489,0.5344 -0.2868,0.549"/>
   <line id="_248434728" class="fil0 str0" x1="22.4359" y1="10.5543" x2="19.8549" y2= "10.5658" />
   <path id="_47825984" class="fil0 str0" d="M19.8549 10.5658c-1.4627,0.0062 -1.0968,0.0083 -2.5595,-0.0136 -0.1746,-0.0021 -0.2066,-0.0083 -0.2455,-0.0438 -0.085,-0.0752 -0.1123,-0.1973 -0.1129,-0.4969"/>
   <line id="_249726992" class="fil0 str0" x1="16.937" y1="10.0115" x2="16.937" y2= "9.9249" />
   <path id="_47822864" class="fil0 str0" d="M16.937 9.9249c-0.0006,-0.1837 0.0017,-0.2422 0.0122,-0.3006 0.0134,-0.0762 0.0407,-0.1232 0.0902,-0.1545 0.0873,-0.0543 0.1996,-0.0637 0.725,-0.0616"/>
   <line id="_249733160" class="fil0 str0" x1="17.7644" y1="9.4082" x2="19.9852" y2= "9.4207" />
   <path id="_247920208" class="fil0 str0" d="M27.8645 51.6589c-5.982,0.0031 -9.7522,0.0063 -15.7342,0.0094 -0.9613,-0.0292 -1.6513,-0.4749 -2.0395,-1.3162 -0.1493,-0.3236 -0.1702,-0.4416 -0.1702,-0.9749"/>
   <line id="_249735680" class="fil0 str0" x1="9.9206" y1="49.3772" x2="9.8747" y2= "10.6211" />
   <path id="_249739400" class="fil0 str0" d="M9.8747 10.6211c0.0501,-0.9958 0.525,-1.7317 1.358,-2.1043"/>
   <line id="_248439408" class="fil0 str0" x1="11.2327" y1="8.5168" x2="11.3339" y2= "8.4667" />
   <path id="_248207776" class="fil0 str0" d="M11.3339 8.4667c0.2777,-0.1472 0.2777,-0.1472 6.5383,-0.1357"/>
   <line id="_248206456" class="fil0 str0" x1="17.8722" y1="8.331" x2="27.8332" y2= "8.3488" />
   <path id="_247918288" class="fil0 str0" d="M27.8332 8.3488c0.5469,0.0135 0.6742,0.0354 0.9717,0.168 0.5376,0.2401 0.8914,0.5929 1.143,1.1377 0.1524,0.3299 0.1774,0.4697 0.1774,0.9697"/>
   <line id="_47826128" class="fil0 str0" x1="30.1253" y1="10.6242" x2="30.0794" y2= "47.8616" />
   <path id="_47825864" class="fil0 str0" d="M30.0794 47.8616c-0.0021,1.1607 0.0052,1.5636 0.0313,1.8903 0.0021,0.0167 0.0021,0.0303 0.0021,0.0407 0,0.3173 -0.3121,0.9342 -0.6315,1.2442 -0.428,0.4185 -0.8204,0.572 -1.6168,0.6367"/>
  </g>
 </g>
</svg>
