<?xml version="1.0" encoding="UTF-8"?>
<!DOCTYPE svg PUBLIC "-//W3C//DTD SVG 1.1//EN" "http://www.w3.org/Graphics/SVG/1.1/DTD/svg11.dtd">
<!-- Creator: CorelDRAW X8 -->
<svg xmlns="http://www.w3.org/2000/svg" xml:space="preserve" width="40mm" height="60mm" version="1.1" style="shape-rendering:geometricPrecision; text-rendering:geometricPrecision; image-rendering:optimizeQuality; fill-rule:evenodd; clip-rule:evenodd"
viewBox="0 0 4000 6000"
 xmlns:xlink="http://www.w3.org/1999/xlink">
 <defs>
  <style type="text/css">
   <![CDATA[
    .str0 {stroke:black;stroke-width:7.62}
    .fil0 {fill:none}
   ]]>
  </style>
 </defs>
 <g id="图层_x0020_1">
  <metadata id="CorelCorpID_0Corel-Layer"/>
  <path class="fil0 str0" d="M2529 724c0,-6 -6,-12 -17,-13 -40,0 -73,33 -73,73 0,41 33,73 73,73 40,0 73,-32 73,-73 0,-40 -33,-73 -73,-73m-151 30c-1,-4 -4,-8 -12,-9 -26,0 -48,22 -48,48 0,27 22,48 48,48 27,0 48,-21 48,-48 0,-26 -21,-48 -48,-48m-1306 -42c177,-17 340,-30 499,-37 4,0 5,0 8,3l24 27c2,3 5,4 9,4l822 0c3,0 6,-1 8,-5l18 -27c3,-4 6,-5 11,-5 174,7 347,19 515,40 129,16 237,107 237,237l0 4141c0,130 -107,226 -237,236 -317,24 -639,46 -957,46 -321,0 -633,-20 -957,-46 -130,-10 -237,-106 -237,-236l0 -4141c0,-130 107,-224 237,-237z"/>
 </g>
</svg>
