<?xml version="1.0" encoding="UTF-8"?>
<!DOCTYPE svg PUBLIC "-//W3C//DTD SVG 1.1//EN" "http://www.w3.org/Graphics/SVG/1.1/DTD/svg11.dtd">
<!-- Creator: CorelDRAW 2020 (64-Bit) -->
<svg xmlns="http://www.w3.org/2000/svg" xml:space="preserve" width="40mm" height="60mm" version="1.1" style="shape-rendering:geometricPrecision; text-rendering:geometricPrecision; image-rendering:optimizeQuality; fill-rule:evenodd; clip-rule:evenodd"
viewBox="0 0 4000 6000"
 xmlns:xlink="http://www.w3.org/1999/xlink"
 xmlns:xodm="http://www.corel.com/coreldraw/odm/2003">
 <defs>
  <style type="text/css">
   <![CDATA[
    .str0 {stroke:#332C2B;stroke-width:7.62;stroke-miterlimit:22.9256}
    .fil0 {fill:none}
   ]]>
  </style>
 </defs>
 <g id="图层_x0020_1">
  <metadata id="CorelCorpID_0Corel-Layer"/>
  <path class="fil0 str0" d="M3078.89 1359.54l0 0c17.07,0 31.03,14.49 31.03,32.2l0 440.12c0,17.72 -13.96,32.21 -31.03,32.21l0 0c-17.06,0 -31.03,-14.49 -31.03,-32.21l0 -440.12c0,-17.71 13.97,-32.2 31.03,-32.2zm0.08 828.1l0 0c15.38,0 27.97,11.76 27.97,26.14l0 260.13c0,14.38 -12.59,26.14 -27.97,26.14l0 0c-15.38,0 -27.97,-11.76 -27.97,-26.14l0 -260.13c0,-14.38 12.59,-26.14 27.97,-26.14zm0 372.35l0 0c15.38,0 27.97,11.76 27.97,26.14l0 260.13c0,14.38 -12.59,26.14 -27.97,26.14l0 0c-15.38,0 -27.97,-11.76 -27.97,-26.14l0 -260.13c0,-14.38 12.59,-26.14 27.97,-26.14zm-1644.95 -1366.16c0,-38.42 -31.14,-69.56 -69.56,-69.56 -38.42,0 -69.56,31.14 -69.56,69.56 0,38.42 31.14,69.56 69.56,69.56 38.42,0 69.56,-31.14 69.56,-69.56zm280.56 0c0,-38.42 -31.14,-69.56 -69.56,-69.56 -38.42,0 -69.56,31.14 -69.56,69.56 0,38.42 31.14,69.56 69.56,69.56 38.42,0 69.56,-31.14 69.56,-69.56zm-280.56 391.39c0,-38.42 -31.14,-69.56 -69.56,-69.56 -38.42,0 -69.56,31.14 -69.56,69.56 0,38.42 31.14,69.56 69.56,69.56 38.42,0 69.56,-31.14 69.56,-69.56zm-125.46 252.33l112.73 0c21.73,0 39.36,17.62 39.36,39.35l-0.01 0c0.01,21.73 -17.62,39.35 -39.34,39.35l-112.74 0c-21.73,0 -39.35,-17.62 -39.35,-39.35l0 0c0,-21.73 17.62,-39.35 39.35,-39.35zm9.37 -820.88l375.77 0c60.38,0 109.77,53.94 109.77,119.87l0 739.74c0,65.93 -49.39,119.87 -109.77,119.87l-375.77 0c-60.37,0 -109.77,-53.94 -109.77,-119.87l0 -739.74c0,-65.93 49.4,-119.87 109.77,-119.87zm-8.84 -24.69l393.45 0c69.25,0 125.91,59.96 125.91,133.25l0 762.36c0,73.28 -56.66,133.24 -125.91,133.24l-393.45 0c-69.25,0 -125.91,-59.96 -125.91,-133.24l0 -762.36c0,-73.29 56.66,-133.25 125.91,-133.25zm-392.92 1318.41l0 0c22.26,0 40.47,17.5 40.47,38.89l0 327.47c0,21.38 -18.21,38.88 -40.47,38.88l0 0c-22.26,0 -40.47,-17.5 -40.47,-38.88l0 -327.47c0,-21.39 18.21,-38.89 40.47,-38.89zm702.71 2952.08l0 6.64c0,11.07 -9.06,20.12 -20.13,20.12l-264.85 0c-11.07,0 -20.12,-9.05 -20.12,-20.12l0 -6.64c0,-11.07 9.05,-20.12 20.12,-20.12l264.85 0c11.07,0 20.13,9.05 20.13,20.12zm444.38 51.86l-139.72 0c-27.38,0 -49.77,-21.14 -49.77,-46.98l0 0c0,-25.84 22.39,-46.98 49.77,-46.98l139.72 0c27.38,0 49.77,21.14 49.77,46.98l0 0c0,25.84 -22.39,46.98 -49.77,46.98zm273.24 -60.06l-46.28 0c-10.85,0 -19.72,7.61 -19.72,16.92l0 3.11c0,9.31 8.87,16.92 19.72,16.92l46.28 0c10.85,0 19.72,-7.61 19.72,-16.92l0 -3.11c0,-9.31 -8.87,-16.92 -19.72,-16.92zm240.72 -43.03c-31.84,0 -57.8,25.96 -57.8,57.79 0,31.84 25.96,57.8 57.8,57.8 31.83,0 57.79,-25.96 57.79,-57.8 0,-31.83 -25.96,-57.79 -57.79,-57.79zm-1390.47 -4372.77l64.68 0 0 -10.74 -15.87 0 -422.88 -65.45 0 -106.61 2361.44 0 0 107.18 -423.43 64.88 -15.31 0 0 10.74 72.8 0c117.61,0 213.82,93.63 213.82,208.07l0 36.88 123.39 0 0 3842.67 -123.39 0 0 50.23c0,114.45 -96.21,208.07 -213.82,208.07l-41.06 0 407 63.94 0 107.34 -2361.44 0 0 -107.25 406.5 -64.03 -32.43 0c-117.61,0 -213.83,-93.62 -213.83,-208.07l0 -50.23 -131.39 0 0 -3842.67 131.39 0 0 -36.88c0,-114.44 96.22,-208.07 213.83,-208.07z"/>
 </g>
</svg>
