<?xml version="1.0" encoding="UTF-8"?>
<!DOCTYPE svg PUBLIC "-//W3C//DTD SVG 1.1//EN" "http://www.w3.org/Graphics/SVG/1.1/DTD/svg11.dtd">
<!-- Creator: CorelDRAW X8 -->
<svg xmlns="http://www.w3.org/2000/svg" xml:space="preserve" width="40mm" height="60mm" version="1.1" style="shape-rendering:geometricPrecision; text-rendering:geometricPrecision; image-rendering:optimizeQuality; fill-rule:evenodd; clip-rule:evenodd"
viewBox="0 0 4000 6000"
 xmlns:xlink="http://www.w3.org/1999/xlink">
 <defs>
  <style type="text/css">
   <![CDATA[
    .str0 {stroke:#332C2B;stroke-width:7.62}
    .fil0 {fill:none}
   ]]>
  </style>
 </defs>
 <g id="图层_x0020_1">
  <metadata id="CorelCorpID_0Corel-Layer"/>
  <path class="fil0 str0" d="M939 5273l1877 0c134,0 245,-113 245,-251l0 -4121c0,-138 -111,-251 -245,-251l-587 0 -14 12 -138 0c-1,0 -2,1 -2,3l0 60c0,32 -27,58 -59,58 -32,0 -58,-26 -58,-58l0 -60c0,-2 0,-3 -3,-3l-131 0 -15 -12 -577 0c-135,0 -245,113 -245,251l0 4121c0,138 110,251 245,251 135,0 280,12 280,77"/>
 </g>
</svg>
