<?xml version="1.0" encoding="UTF-8"?>
<!DOCTYPE svg PUBLIC "-//W3C//DTD SVG 1.1//EN" "http://www.w3.org/Graphics/SVG/1.1/DTD/svg11.dtd">
<!-- Creator: CorelDRAW X8 -->
<svg xmlns="http://www.w3.org/2000/svg" xml:space="preserve" width="40mm" height="60mm" version="1.1" style="shape-rendering:geometricPrecision; text-rendering:geometricPrecision; image-rendering:optimizeQuality; fill-rule:evenodd; clip-rule:evenodd"
viewBox="0 0 4000 6000"
 xmlns:xlink="http://www.w3.org/1999/xlink">
 <defs>
  <style type="text/css">
   <![CDATA[
    .str0 {stroke:#332C2B;stroke-width:19.4}
    .fil0 {fill:none;fill-rule:nonzero}
   ]]>
  </style>
 </defs>
 <g id="图层_x0020_1">
  <metadata id="CorelCorpID_0Corel-Layer"/>
  <line class="fil0 str0" x1="3065" y1="650" x2="3065" y2= "680" />
  <polyline class="fil0 str0" points="1476,5240 1476,5249 1478,5248 "/>
  <path class="fil0 str0" d="M1478 5248c4,-1 4,-1 5,-2"/>
  <line class="fil0 str0" x1="1483" y1="5246" x2="1484" y2= "5245" />
  <path class="fil0 str0" d="M1484 5245c0,-2 1,-4 1,-5 0,-2 -1,-4 -1,-6 9,-7 14,-19 14,-32 0,-25 -19,-44 -44,-44 -26,0 -46,20 -46,45 0,25 20,45 45,45 22,0 39,-15 39,-33 0,-17 -13,-30 -30,-30 -3,0 -6,0 -37,5"/>
  <polyline class="fil0 str0" points="3041,5277 3033,5279 3033,5277 "/>
  <path class="fil0 str0" d="M3033 5277c-315,19 -609,31 -717,31 -55,0 -62,-5 -62,-50"/>
  <line class="fil0 str0" x1="2254" y1="5258" x2="2254" y2= "5227" />
  <path class="fil0 str0" d="M2254 5227c0,-50 -6,-67 -31,-85 -21,-16 -20,-16 -203,-16"/>
  <line class="fil0 str0" x1="2020" y1="5126" x2="2008" y2= "5126" />
  <path class="fil0 str0" d="M2008 5126c-219,0 -218,0 -240,17 -23,19 -28,34 -28,80 0,8 0,18 0,31 0,50 -5,54 -53,54 -143,0 -493,-16 -558,-26 -101,-15 -159,-54 -180,-121 -12,-34 -14,-60 -14,-128"/>
  <line class="fil0 str0" x1="935" y1="5033" x2="937" y2= "852" />
  <path class="fil0 str0" d="M937 852c10,-80 40,-123 109,-152 46,-20 192,-38 300,-38 39,0 45,6 45,47 1,64 3,72 24,88 10,8 23,12 37,12 28,0 51,-17 58,-44"/>
  <line class="fil0 str0" x1="1510" y1="765" x2="1511" y2= "763" />
  <path class="fil0 str0" d="M1511 763c1,-7 1,-7 2,-56"/>
  <line class="fil0 str0" x1="1513" y1="707" x2="1513" y2= "690" />
  <path class="fil0 str0" d="M1513 690c1,-34 3,-35 115,-38 22,0 40,-1 52,-1"/>
  <line class="fil0 str0" x1="1680" y1="651" x2="1693" y2= "651" />
  <path class="fil0 str0" d="M1693 651c51,0 51,0 52,75"/>
  <polyline class="fil0 str0" points="1745,726 1745,744 1745,750 "/>
  <path class="fil0 str0" d="M1745 750c2,43 2,43 224,43"/>
  <line class="fil0 str0" x1="1969" y1="793" x2="1997" y2= "793" />
  <path class="fil0 str0" d="M1997 793c183,0 216,-1 233,-7 17,-6 20,-19 20,-87 1,-38 4,-42 40,-49"/>
  <polyline class="fil0 str0" points="2290,650 2290,651 2291,652 2296,652 2295,652 2295,654 "/>
  <path class="fil0 str0" d="M2295 654c14,6 18,14 18,39 0,5 0,10 0,16"/>
  <line class="fil0 str0" x1="2313" y1="709" x2="2312" y2= "734" />
  <path class="fil0 str0" d="M2312 734c0,41 18,67 50,72"/>
  <line class="fil0 str0" x1="2362" y1="806" x2="2423" y2= "808" />
  <path class="fil0 str0" d="M2423 808c117,0 144,-3 158,-15 12,-12 19,-27 19,-46"/>
  <line class="fil0 str0" x1="2600" y1="747" x2="2598" y2= "718" />
  <path class="fil0 str0" d="M2598 718c0,-6 0,-11 0,-14 0,-35 10,-43 53,-43 104,0 235,14 281,30 91,32 129,91 128,197"/>
  <line class="fil0 str0" x1="3060" y1="888" x2="3059" y2= "5108" />
  <line class="fil0 str0" x1="3056" y1="5096" x2="3059" y2= "5108" />
  <path class="fil0 str0" d="M3059 5108c0,17 -11,58 -21,77 -34,66 -102,93 -256,102 -6,0 -12,1 -16,1 -51,4 -67,16 -86,62"/>
 </g>
</svg>
