<?xml version="1.0" encoding="UTF-8"?>
<!DOCTYPE svg PUBLIC "-//W3C//DTD SVG 1.1//EN" "http://www.w3.org/Graphics/SVG/1.1/DTD/svg11.dtd">
<!-- Creator: CorelDRAW X8 -->
<svg xmlns="http://www.w3.org/2000/svg" xml:space="preserve" width="40mm" height="60mm" version="1.1" style="shape-rendering:geometricPrecision; text-rendering:geometricPrecision; image-rendering:optimizeQuality; fill-rule:evenodd; clip-rule:evenodd"
viewBox="0 0 4000 6000"
 xmlns:xlink="http://www.w3.org/1999/xlink">
 <defs>
  <style type="text/css">
   <![CDATA[
    .str0 {stroke:#332C2B;stroke-width:30;stroke-linejoin:bevel}
    .fil0 {fill:none}
   ]]>
  </style>
 </defs>
 <g id="图层_x0020_1">
  <metadata id="CorelCorpID_0Corel-Layer"/>
  <g id="_2336552703264">
   <path class="fil0 str0" d="M1010 650l1980 0c42,0 82,17 112,46 29,30 46,70 46,112l0 4384c0,42 -16,82 -46,112 -30,29 -70,46 -112,46l-1980 0c-42,0 -82,-17 -112,-46 -29,-30 -46,-70 -46,-112l0 -4384c0,-42 16,-82 46,-112 30,-29 70,-46 112,-46z"/>
   <path class="fil0 str0" d="M1302 828c0,-39 -32,-71 -71,-71 -39,0 -71,32 -71,71 0,39 32,71 71,71 39,0 71,-32 71,-71z"/>
   <path class="fil0 str0" d="M1690 784l620 0c12,0 23,4 31,13 9,8 13,19 13,31 0,12 -4,23 -13,31 -8,9 -19,13 -31,13l-620 0c-12,0 -23,-4 -31,-13 -9,-8 -13,-19 -13,-31 0,-12 4,-23 13,-31 8,-9 19,-13 31,-13z"/>
   <path class="fil0 str0" d="M1690 5220l620 0c13,0 25,-5 34,-14 8,-9 13,-21 13,-34 0,-12 -5,-25 -14,-33 -8,-9 -20,-14 -33,-14l-620 0c-13,0 -25,5 -34,14 -8,8 -13,21 -13,33 0,13 5,25 14,34 8,9 20,14 33,14z"/>
  </g>
 </g>
</svg>
