<?xml version="1.0" encoding="UTF-8"?>
<!DOCTYPE svg PUBLIC "-//W3C//DTD SVG 1.1//EN" "http://www.w3.org/Graphics/SVG/1.1/DTD/svg11.dtd">
<!-- Creator: CorelDRAW X8 -->
<svg xmlns="http://www.w3.org/2000/svg" xml:space="preserve" width="40mm" height="60mm" version="1.1" style="shape-rendering:geometricPrecision; text-rendering:geometricPrecision; image-rendering:optimizeQuality; fill-rule:evenodd; clip-rule:evenodd"
viewBox="0 0 4000 6000"
 xmlns:xlink="http://www.w3.org/1999/xlink">
 <defs>
  <style type="text/css">
   <![CDATA[
    .str0 {stroke:black;stroke-width:7.62}
    .fil0 {fill:none}
   ]]>
  </style>
 </defs>
 <g id="图层_x0020_1">
  <metadata id="CorelCorpID_0Corel-Layer"/>
  <path class="fil0 str0" d="M950 5350l1947 0c102,0 185,-83 185,-186l0 -4328c0,-103 -83,-186 -185,-186l-708 0c-27,0 -48,7 -48,37l0 24c0,60 -49,108 -109,108l0 0c-59,0 -108,-48 -108,-108l0 -28c0,-25 -17,-33 -34,-33l-787 0c-102,0 -185,83 -185,186l0 4328c0,103 83,186 185,186l117 0"/>
 </g>
</svg>
