<?xml version="1.0" encoding="UTF-8"?>
<!DOCTYPE svg PUBLIC "-//W3C//DTD SVG 1.1//EN" "http://www.w3.org/Graphics/SVG/1.1/DTD/svg11.dtd">
<!-- Creator: CorelDRAW X8 -->
<svg xmlns="http://www.w3.org/2000/svg" xml:space="preserve" width="40mm" height="60mm" version="1.1" style="shape-rendering:geometricPrecision; text-rendering:geometricPrecision; image-rendering:optimizeQuality; fill-rule:evenodd; clip-rule:evenodd"
viewBox="0 0 4000 6000"
 xmlns:xlink="http://www.w3.org/1999/xlink">
 <defs>
  <style type="text/css">
   <![CDATA[
    .str0 {stroke:#332C2B;stroke-width:10}
    .fil0 {fill:none}
   ]]>
  </style>
 </defs>
 <g id="图层_x0020_1">
  <metadata id="CorelCorpID_0Corel-Layer"/>
  <path class="fil0 str0" d="M1997 767c-6,-21 -17,-38 -69,-38l-44 0c-24,0 -43,19 -43,43l0 0c0,23 19,42 43,42l254 0c23,0 42,-19 42,-42l0 0c0,-24 -19,-43 -42,-43l-210 0m-974 4621l1850 0c166,0 302,-136 302,-302l0 -4096c0,-166 -136,-302 -302,-302l-1608 0c-166,0 -302,136 -302,302l0 4096c0,166 136,302 302,302l292 0"/>
 </g>
</svg>
