<?xml version="1.0" encoding="UTF-8"?>
<!DOCTYPE svg PUBLIC "-//W3C//DTD SVG 1.1//EN" "http://www.w3.org/Graphics/SVG/1.1/DTD/svg11.dtd">
<!-- Creator: CorelDRAW X8 -->
<svg xmlns="http://www.w3.org/2000/svg" xml:space="preserve" width="40mm" height="60mm" version="1.1" style="shape-rendering:geometricPrecision; text-rendering:geometricPrecision; image-rendering:optimizeQuality; fill-rule:evenodd; clip-rule:evenodd"
viewBox="0 0 4000 6000"
 xmlns:xlink="http://www.w3.org/1999/xlink">
 <defs>
  <style type="text/css">
   <![CDATA[
    .str0 {stroke:#332C2B;stroke-width:10}
    .fil0 {fill:none}
   ]]>
  </style>
 </defs>
 <g id="图层_x0020_1">
  <metadata id="CorelCorpID_0Corel-Layer"/>
  <path class="fil0 str0" d="M1334 831c3,-62 -70,-110 -96,-112 -93,0 -169,76 -169,169 0,93 76,169 169,169 93,0 169,-76 169,-169 0,-93 -76,-169 -169,-169m48 456c1,-34 -39,-60 -53,-61 -51,0 -93,41 -93,93 0,51 42,93 93,93 51,0 93,-42 93,-93 0,-52 -42,-93 -93,-93m-307 4236l1953 0c149,0 271,-122 271,-270l0 -4159c0,-149 -122,-271 -271,-271l-1758 0c-149,0 -271,122 -271,271l0 4159c0,148 122,270 271,270l283 0"/>
 </g>
</svg>
