<?xml version="1.0" encoding="UTF-8"?>
<!DOCTYPE svg PUBLIC "-//W3C//DTD SVG 1.1//EN" "http://www.w3.org/Graphics/SVG/1.1/DTD/svg11.dtd">
<!-- Creator: CorelDRAW X8 -->
<svg xmlns="http://www.w3.org/2000/svg" xml:space="preserve" width="40mm" height="60mm" version="1.1" style="shape-rendering:geometricPrecision; text-rendering:geometricPrecision; image-rendering:optimizeQuality; fill-rule:evenodd; clip-rule:evenodd"
viewBox="0 0 4000 6000"
 xmlns:xlink="http://www.w3.org/1999/xlink">
 <defs>
  <style type="text/css">
   <![CDATA[
    .str0 {stroke:#332C2B;stroke-width:7.62}
    .fil0 {fill:none}
   ]]>
  </style>
 </defs>
 <g id="图层_x0020_1">
  <metadata id="CorelCorpID_0Corel-Layer"/>
  <path class="fil0 str0" d="M743 5350l2274 0c132,0 240,-111 240,-247l0 -4206c0,-136 -108,-247 -240,-247l-708 0c-23,0 -37,8 -37,28l0 62c0,51 -40,93 -90,93l0 0c-49,0 -90,-42 -90,-93l0 -48c0,-37 -17,-42 -54,-42 -233,0 -466,0 -699,0 -132,0 -239,111 -239,247l0 4206c0,136 107,247 239,247l339 0"/>
 </g>
</svg>
