<?xml version="1.0" encoding="UTF-8"?>
<!DOCTYPE svg PUBLIC "-//W3C//DTD SVG 1.1//EN" "http://www.w3.org/Graphics/SVG/1.1/DTD/svg11.dtd">
<!-- Creator: CorelDRAW X8 -->
<svg xmlns="http://www.w3.org/2000/svg" xml:space="preserve" width="40mm" height="60mm" version="1.1" style="shape-rendering:geometricPrecision; text-rendering:geometricPrecision; image-rendering:optimizeQuality; fill-rule:evenodd; clip-rule:evenodd"
viewBox="0 0 4000 6000"
 xmlns:xlink="http://www.w3.org/1999/xlink">
 <defs>
  <style type="text/css">
   <![CDATA[
    .str0 {stroke:black;stroke-width:7.62}
    .fil0 {fill:none}
   ]]>
  </style>
 </defs>
 <g id="图层_x0020_1">
  <metadata id="CorelCorpID_0Corel-Layer"/>
  <path class="fil0 str0" d="M1834 1458c-5,-19 -16,-34 -63,-34l-40 0c-21,0 -38,17 -38,38l0 0c0,21 17,39 38,39l205 0c21,0 39,-18 39,-39l0 0c0,-21 -18,-38 -39,-38l-165 0m-366 -544c-1,-15 -14,-30 -43,-32 -100,0 -181,82 -181,182 0,100 81,182 181,182 101,0 182,-82 182,-182 0,-100 -81,-182 -182,-182m43 431c-1,-15 -14,-30 -43,-32 -100,0 -181,81 -181,182 0,100 81,181 181,181 101,0 182,-81 182,-181 0,-101 -81,-182 -182,-182m35 434c-1,-12 -11,-22 -32,-24 -73,0 -133,60 -133,133 0,74 60,133 133,133 74,0 133,-59 133,-133 0,-73 -59,-133 -133,-133m-99 -853l657 0c71,0 129,58 129,129l0 907c0,71 -58,129 -129,129l-657 0c-70,0 -129,-58 -129,-129l0 -907c0,-71 59,-129 129,-129zm-9 -35l677 0c85,0 154,70 154,154l0 931c0,85 -69,154 -154,154l-677 0c-85,0 -154,-69 -154,-154l0 -931c0,-84 69,-154 154,-154zm-6 4581c-17,-48 -77,-92 -111,-92 -136,0 -248,-111 -248,-248l0 -1970c0,-16 2,-22 12,-36l37 -52c11,-15 12,-20 12,-40l0 -1035c0,-11 -1,-16 -7,-23l-45 -57c-8,-10 -9,-17 -9,-33l0 -866c0,-137 112,-248 248,-248l1720 0c136,0 248,111 248,248l0 4112c0,137 -112,248 -248,248l-1883 0"/>
 </g>
</svg>
