<?xml version="1.0" encoding="UTF-8"?>
<!DOCTYPE svg PUBLIC "-//W3C//DTD SVG 1.1//EN" "http://www.w3.org/Graphics/SVG/1.1/DTD/svg11.dtd">
<!-- Creator: CorelDRAW X8 -->
<svg xmlns="http://www.w3.org/2000/svg" xml:space="preserve" width="40mm" height="60mm" version="1.1" style="shape-rendering:geometricPrecision; text-rendering:geometricPrecision; image-rendering:optimizeQuality; fill-rule:evenodd; clip-rule:evenodd"
viewBox="0 0 4000 6000"
 xmlns:xlink="http://www.w3.org/1999/xlink">
 <defs>
  <style type="text/css">
   <![CDATA[
    .str0 {stroke:black;stroke-width:7.62}
    .fil0 {fill:none}
   ]]>
  </style>
 </defs>
 <g id="图层_x0020_1">
  <metadata id="CorelCorpID_0Corel-Layer"/>
  <path class="fil0 str0" d="M2067 999c-2,-18 -18,-35 -52,-38 -120,0 -217,98 -217,218 0,120 97,217 217,217 121,0 218,-97 218,-217 0,-120 -97,-218 -218,-218m25 514c-1,-9 -8,-18 -25,-19 -57,0 -104,47 -104,104 0,58 47,104 104,104 58,0 104,-46 104,-104 0,-57 -46,-104 -104,-104m-119 3580c-6,-24 -19,-42 -77,-42l-50 0c-26,0 -47,21 -47,47l0 0c0,26 21,47 47,47l472 0c26,0 47,-21 47,-47l0 0c0,-26 -21,-47 -47,-47l-422 0m-572 356c-33,-43 -74,-86 -125,-86 -141,0 -257,-116 -257,-257l0 -4101c0,-141 116,-256 257,-256l1756 0c141,0 257,115 257,256l0 4101c0,141 -116,257 -257,257l-1900 0"/>
 </g>
</svg>
