<?xml version="1.0" encoding="UTF-8"?>
<!DOCTYPE svg PUBLIC "-//W3C//DTD SVG 1.1//EN" "http://www.w3.org/Graphics/SVG/1.1/DTD/svg11.dtd">
<!-- Creator: CorelDRAW X8 -->
<svg xmlns="http://www.w3.org/2000/svg" xml:space="preserve" width="40mm" height="60mm" version="1.1" style="shape-rendering:geometricPrecision; text-rendering:geometricPrecision; image-rendering:optimizeQuality; fill-rule:evenodd; clip-rule:evenodd"
viewBox="0 0 4000 6000"
 xmlns:xlink="http://www.w3.org/1999/xlink">
 <defs>
  <style type="text/css">
   <![CDATA[
    .str0 {stroke:#332C2B;stroke-width:20}
    .fil0 {fill:none}
   ]]>
  </style>
 </defs>
 <g id="图层_x0020_1">
  <metadata id="CorelCorpID_0Corel-Layer"/>
  <path class="fil0 str0" d="M917 5200l1925 0c133,0 241,-110 241,-243l0 -4064c0,-133 -108,-243 -241,-243l-275 0c0,0 -54,-5 -54,60 0,67 -54,122 -120,122l-771 0c-66,0 -120,-55 -120,-122 0,-62 -45,-60 -45,-60l-250 0c-133,0 -242,110 -242,243l0 4064c0,133 109,243 242,243 132,0 259,55 259,150"/>
 </g>
</svg>
