<?xml version="1.0" encoding="UTF-8"?>
<!DOCTYPE svg PUBLIC "-//W3C//DTD SVG 1.1//EN" "http://www.w3.org/Graphics/SVG/1.1/DTD/svg11.dtd">
<!-- Creator: CorelDRAW X8 -->
<svg xmlns="http://www.w3.org/2000/svg" xml:space="preserve" width="40mm" height="60mm" version="1.1" style="shape-rendering:geometricPrecision; text-rendering:geometricPrecision; image-rendering:optimizeQuality; fill-rule:evenodd; clip-rule:evenodd"
viewBox="0 0 4000 6000"
 xmlns:xlink="http://www.w3.org/1999/xlink">
 <defs>
  <style type="text/css">
   <![CDATA[
    .str0 {stroke:black;stroke-width:7.62}
    .fil0 {fill:none}
   ]]>
  </style>
 </defs>
 <g id="图层_x0020_1">
  <metadata id="CorelCorpID_0Corel-Layer"/>
  <path class="fil0 str0" d="M780 721c117,-4 155,-71 364,-71l1846 0c80,0 122,72 230,60 5,0 8,4 8,9l0 53c0,5 -3,8 -8,8 -134,9 -277,32 -414,44 -3,0 -4,1 -5,3 -2,4 -1,6 -1,11 0,3 5,4 10,4l25 0c134,3 192,89 192,195l0 68 74 0c5,0 8,4 8,9l0 3771c0,5 -3,9 -8,9l-74 0 0 68c0,106 -86,192 -192,192l-36 0 0 24 32 0c126,0 254,33 389,42 5,0 8,3 8,8l0 45c0,5 -3,9 -8,8 -108,-11 -186,61 -265,61l-1811 8c-180,1 -246,-53 -364,-63 -5,-1 -8,-4 -8,-8l0 -54c0,-4 3,-8 8,-8 132,3 243,-39 360,-39l66 0 1 0 0 -24 -47 0c-105,0 -192,-86 -192,-192l0 -68 -74 0c-5,0 -8,-4 -8,-9l0 -2067c0,-13 2,-15 14,-15l46 0c12,0 22,-10 22,-22l0 -960c0,-12 -10,-22 -22,-22l-50 0c-8,0 -10,-1 -10,-9l0 -676c0,-5 3,-9 8,-9l74 0 0 -68c0,-106 87,-192 192,-192l28 0c4,0 5,-1 5,-6l0 -11c0,-6 0,-5 -5,-6l-16 0 -97 0c-113,0 -191,-34 -295,-31 -5,1 -8,-3 -8,-8l0 -53c0,-5 3,-8 8,-9zm711 437c-1,-15 -14,-29 -42,-31 -96,0 -174,78 -174,174 0,97 78,175 174,175 97,0 175,-78 175,-175 0,-96 -78,-174 -175,-174m216 407c-9,2 -16,6 -16,22l0 14c0,18 15,34 34,34l0 0c19,0 34,-16 34,-34l0 -69c0,-19 -15,-34 -34,-34l0 0c-19,0 -34,15 -34,34l0 55m-158 71c-1,-15 -14,-28 -42,-31 -96,0 -174,79 -174,175 0,96 78,174 174,174 97,0 175,-78 175,-174 0,-96 -78,-175 -175,-175m17 515c-1,-6 -6,-12 -18,-13 -42,0 -76,33 -76,75 0,42 34,76 76,76 41,0 75,-34 75,-76 0,-42 -34,-75 -75,-75m228 -11l99 0c15,0 28,12 28,27l0 118c0,15 -13,27 -28,27l-99 0c-15,0 -28,-12 -28,-27l0 -118c0,-15 13,-27 28,-27zm-390 -1012l475 0c41,0 74,34 74,74l0 1118c0,8 -6,14 -14,14l-596 0c-7,0 -13,-6 -13,-14l0 -1118c0,-40 33,-74 74,-74zm54 1308c-3,-12 -8,-20 -27,-20l-16 0c-23,0 -42,18 -42,41l0 0c0,23 19,41 42,41l137 0c23,0 41,-18 41,-41l0 0c0,-23 -18,-41 -41,-41l-121 0m-100 -50l625 0c9,0 17,7 17,16l0 94c0,38 -31,69 -69,69l-521 0c-38,0 -69,-31 -69,-69l0 -94c0,-9 8,-16 17,-16zm50 -1282l525 0c52,0 96,43 96,96l0 1297c0,53 -44,96 -96,96l-525 0c-52,0 -96,-43 -96,-96l0 -1297c0,-53 44,-96 96,-96zm275 -317c0,-2 -2,-4 -7,-4 -15,0 -27,12 -27,27 0,15 12,28 27,28 15,0 28,-13 28,-28 0,-15 -13,-27 -28,-27m682 4528c0,-3 -2,-5 -6,-5 -15,0 -28,12 -28,27 0,15 13,28 28,28 15,0 27,-13 27,-28 0,-15 -12,-27 -27,-27m-731 32c-5,-16 -13,-28 -52,-28l-33 0c-17,0 -31,14 -31,31l0 0c0,18 14,32 31,32l269 0c17,0 32,-14 32,-32l0 0c0,-17 -15,-31 -32,-31l-236 0m546 -5c-3,-12 -8,-21 -28,-21l-18 0c-24,0 -44,20 -44,44l0 0c0,24 20,44 44,44l159 0c25,0 44,-20 44,-44l0 0c0,-24 -19,-44 -44,-44l-141 0m434 32c-4,-12 -8,-21 -29,-21l-17 0c-24,0 -44,20 -44,44l0 0c0,24 20,44 44,44l337 0c25,0 44,-20 44,-44l0 0c0,-24 -19,-44 -44,-44l-320 0"/>
 </g>
</svg>
