<?xml version="1.0" encoding="UTF-8"?>
<!DOCTYPE svg PUBLIC "-//W3C//DTD SVG 1.1//EN" "http://www.w3.org/Graphics/SVG/1.1/DTD/svg11.dtd">
<!-- Creator: CorelDRAW X8 -->
<svg xmlns="http://www.w3.org/2000/svg" xml:space="preserve" width="40mm" height="60mm" version="1.1" style="shape-rendering:geometricPrecision; text-rendering:geometricPrecision; image-rendering:optimizeQuality; fill-rule:evenodd; clip-rule:evenodd"
viewBox="0 0 4000 6000"
 xmlns:xlink="http://www.w3.org/1999/xlink">
 <defs>
  <style type="text/css">
   <![CDATA[
    .str0 {stroke:black;stroke-width:7.62}
    .fil0 {fill:none}
   ]]>
  </style>
 </defs>
 <g id="图层_x0020_1">
  <metadata id="CorelCorpID_0Corel-Layer"/>
  <path class="fil0 str0" d="M1007 5350l1873 0c113,0 205,-92 205,-204l0 -4292c0,-112 -92,-204 -205,-204l-573 0c-20,0 -127,1 -184,1 -17,0 -30,8 -30,30l0 43c0,51 -42,93 -94,93l0 0c-51,0 -93,-42 -93,-93l0 -40c0,-26 -21,-33 -38,-33 -54,0 -162,-1 -178,-1l-570 0c-113,0 -205,92 -205,204l0 4292c0,112 92,204 205,204l109 0"/>
 </g>
</svg>
