<?xml version="1.0" encoding="UTF-8"?>
<!DOCTYPE svg PUBLIC "-//W3C//DTD SVG 1.1//EN" "http://www.w3.org/Graphics/SVG/1.1/DTD/svg11.dtd">
<!-- Creator: CorelDRAW X8 -->
<svg xmlns="http://www.w3.org/2000/svg" xml:space="preserve" width="40mm" height="60mm" version="1.1" style="shape-rendering:geometricPrecision; text-rendering:geometricPrecision; image-rendering:optimizeQuality; fill-rule:evenodd; clip-rule:evenodd"
viewBox="0 0 4000 6000"
 xmlns:xlink="http://www.w3.org/1999/xlink">
 <defs>
  <style type="text/css">
   <![CDATA[
    .str1 {stroke:black;stroke-width:20}
    .str0 {stroke:black;stroke-width:10}
    .fil0 {fill:none}
   ]]>
  </style>
 </defs>
 <g id="图层_x0020_1">
  <metadata id="CorelCorpID_0Corel-Layer"/>
  <g id="_1561830583216">
   <path class="fil0 str0" d="M917 1072l77 0c51,0 93,41 93,92l0 78c0,51 -42,93 -93,93l-77 0c-51,0 -93,-42 -93,-93l0 -78c0,-51 42,-92 93,-92z"/>
   <path class="fil0 str0" d="M917 2696l77 0c51,0 93,41 93,93l0 77c0,51 -42,93 -93,93l-77 0c-51,0 -93,-42 -93,-93l0 -77c0,-52 42,-93 93,-93z"/>
   <path class="fil0 str0" d="M917 4320l77 0c51,0 93,42 93,93l0 77c0,51 -42,93 -93,93l-77 0c-51,0 -93,-42 -93,-93l0 -77c0,-51 42,-93 93,-93z"/>
   <path class="fil0 str0" d="M1613 1072l77 0c51,0 93,41 93,92l0 78c0,51 -42,93 -93,93l-77 0c-51,0 -93,-42 -93,-93l0 -78c0,-51 42,-92 93,-92z"/>
   <path class="fil0 str0" d="M1613 2696l77 0c51,0 93,41 93,93l0 77c0,51 -42,93 -93,93l-77 0c-51,0 -93,-42 -93,-93l0 -77c0,-52 42,-93 93,-93z"/>
   <path class="fil0 str0" d="M1613 4320l77 0c51,0 93,42 93,93l0 77c0,51 -42,93 -93,93l-77 0c-51,0 -93,-42 -93,-93l0 -77c0,-51 42,-93 93,-93z"/>
   <path class="fil0 str0" d="M2309 1072l77 0c51,0 93,41 93,92l0 78c0,51 -42,93 -93,93l-77 0c-51,0 -93,-42 -93,-93l0 -78c0,-51 42,-92 93,-92z"/>
   <path class="fil0 str0" d="M2309 2696l77 0c51,0 93,41 93,93l0 77c0,51 -42,93 -93,93l-77 0c-51,0 -93,-42 -93,-93l0 -77c0,-52 42,-93 93,-93z"/>
   <path class="fil0 str0" d="M2309 4320l77 0c51,0 93,42 93,93l0 77c0,51 -42,93 -93,93l-77 0c-51,0 -93,-42 -93,-93l0 -77c0,-51 42,-93 93,-93z"/>
   <path class="fil0 str0" d="M3005 1072l77 0c51,0 93,41 93,92l0 78c0,51 -42,93 -93,93l-77 0c-51,0 -93,-42 -93,-93l0 -78c0,-51 42,-92 93,-92z"/>
   <path class="fil0 str0" d="M3005 2696l77 0c51,0 93,41 93,93l0 77c0,51 -42,93 -93,93l-77 0c-51,0 -93,-42 -93,-93l0 -77c0,-52 42,-93 93,-93z"/>
   <path class="fil0 str0" d="M3005 4320l77 0c51,0 93,42 93,93l0 77c0,51 -42,93 -93,93l-77 0c-51,0 -93,-42 -93,-93l0 -77c0,-51 42,-93 93,-93z"/>
   <path class="fil0 str0" d="M989 1789c-1,-12 -11,-23 -32,-24 -75,0 -135,60 -135,135 0,75 60,136 135,136 75,0 135,-61 135,-136 0,-75 -60,-135 -135,-135"/>
   <path class="fil0 str0" d="M989 3413c-1,-12 -11,-22 -32,-24 -75,0 -135,60 -135,135 0,75 60,136 135,136 75,0 135,-61 135,-136 0,-75 -60,-135 -135,-135"/>
   <path class="fil0 str0" d="M989 5037c-1,-12 -11,-22 -32,-24 -75,0 -135,61 -135,135 0,75 60,136 135,136 75,0 135,-61 135,-136 0,-74 -60,-135 -135,-135"/>
   <path class="fil0 str0" d="M1685 1789c-1,-12 -11,-23 -32,-24 -75,0 -135,60 -135,135 0,75 60,136 135,136 75,0 135,-61 135,-136 0,-75 -60,-135 -135,-135"/>
   <path class="fil0 str0" d="M1685 3413c-1,-12 -11,-22 -32,-24 -75,0 -135,60 -135,135 0,75 60,136 135,136 75,0 135,-61 135,-136 0,-75 -60,-135 -135,-135"/>
   <path class="fil0 str0" d="M1685 5037c-1,-12 -11,-22 -32,-24 -75,0 -135,61 -135,135 0,75 60,136 135,136 75,0 135,-61 135,-136 0,-74 -60,-135 -135,-135"/>
   <path class="fil0 str0" d="M2381 1789c-1,-12 -11,-23 -32,-24 -75,0 -135,60 -135,135 0,75 60,136 135,136 75,0 135,-61 135,-136 0,-75 -60,-135 -135,-135"/>
   <path class="fil0 str0" d="M2381 3413c-1,-12 -11,-22 -32,-24 -75,0 -135,60 -135,135 0,75 60,136 135,136 75,0 135,-61 135,-136 0,-75 -60,-135 -135,-135"/>
   <path class="fil0 str0" d="M2381 5037c-1,-12 -11,-22 -32,-24 -75,0 -135,61 -135,135 0,75 60,136 135,136 75,0 135,-61 135,-136 0,-74 -60,-135 -135,-135"/>
   <path class="fil0 str0" d="M3077 1789c-1,-12 -11,-23 -32,-24 -75,0 -135,60 -135,135 0,75 60,136 135,136 75,0 135,-61 135,-136 0,-75 -60,-135 -135,-135"/>
   <path class="fil0 str0" d="M3077 3413c-1,-12 -11,-22 -32,-24 -75,0 -135,60 -135,135 0,75 60,136 135,136 75,0 135,-61 135,-136 0,-75 -60,-135 -135,-135"/>
   <path class="fil0 str0" d="M3077 5037c-1,-12 -11,-22 -32,-24 -75,0 -135,61 -135,135 0,75 60,136 135,136 75,0 135,-61 135,-136 0,-74 -60,-135 -135,-135"/>
   <path class="fil0 str0" d="M989 1450c-1,-11 -11,-22 -32,-23 -75,0 -135,60 -135,135 0,75 60,135 135,135 75,0 135,-60 135,-135 0,-75 -60,-135 -135,-135"/>
   <path class="fil0 str0" d="M989 3075c-1,-12 -11,-23 -32,-24 -75,0 -135,60 -135,135 0,75 60,135 135,135 75,0 135,-60 135,-135 0,-75 -60,-135 -135,-135"/>
   <path class="fil0 str0" d="M989 4699c-1,-12 -11,-23 -32,-24 -75,0 -135,60 -135,135 0,75 60,135 135,135 75,0 135,-60 135,-135 0,-75 -60,-135 -135,-135"/>
   <path class="fil0 str0" d="M1685 1450c-1,-11 -11,-22 -32,-23 -75,0 -135,60 -135,135 0,75 60,135 135,135 75,0 135,-60 135,-135 0,-75 -60,-135 -135,-135"/>
   <path class="fil0 str0" d="M1685 3075c-1,-12 -11,-23 -32,-24 -75,0 -135,60 -135,135 0,75 60,135 135,135 75,0 135,-60 135,-135 0,-75 -60,-135 -135,-135"/>
   <path class="fil0 str0" d="M1685 4699c-1,-12 -11,-23 -32,-24 -75,0 -135,60 -135,135 0,75 60,135 135,135 75,0 135,-60 135,-135 0,-75 -60,-135 -135,-135"/>
   <path class="fil0 str0" d="M2381 1450c-1,-11 -11,-22 -32,-23 -75,0 -135,60 -135,135 0,75 60,135 135,135 75,0 135,-60 135,-135 0,-75 -60,-135 -135,-135"/>
   <path class="fil0 str0" d="M2381 3075c-1,-12 -11,-23 -32,-24 -75,0 -135,60 -135,135 0,75 60,135 135,135 75,0 135,-60 135,-135 0,-75 -60,-135 -135,-135"/>
   <path class="fil0 str0" d="M2381 4699c-1,-12 -11,-23 -32,-24 -75,0 -135,60 -135,135 0,75 60,135 135,135 75,0 135,-60 135,-135 0,-75 -60,-135 -135,-135"/>
   <path class="fil0 str0" d="M3077 1450c-1,-11 -11,-22 -32,-23 -75,0 -135,60 -135,135 0,75 60,135 135,135 75,0 135,-60 135,-135 0,-75 -60,-135 -135,-135"/>
   <path class="fil0 str0" d="M3077 3075c-1,-12 -11,-23 -32,-24 -75,0 -135,60 -135,135 0,75 60,135 135,135 75,0 135,-60 135,-135 0,-75 -60,-135 -135,-135"/>
   <path class="fil0 str0" d="M3077 4699c-1,-12 -11,-23 -32,-24 -75,0 -135,60 -135,135 0,75 60,135 135,135 75,0 135,-60 135,-135 0,-75 -60,-135 -135,-135"/>
   <path class="fil0 str0" d="M956 690l0 0c88,0 160,72 160,159l0 1053c0,88 -72,160 -160,160l0 0c-88,0 -160,-72 -160,-160l0 -1053c0,-87 72,-159 160,-159z"/>
   <path class="fil0 str0" d="M956 2314l0 0c88,0 160,72 160,160l0 1052c0,88 -72,160 -160,160l0 0c-88,0 -160,-72 -160,-160l0 -1052c0,-88 72,-160 160,-160z"/>
   <path class="fil0 str0" d="M956 3938l0 0c88,0 160,72 160,160l0 1053c0,87 -72,159 -160,159l0 0c-88,0 -160,-72 -160,-159l0 -1053c0,-88 72,-160 160,-160z"/>
   <path class="fil0 str0" d="M1652 690l0 0c88,0 160,72 160,159l0 1053c0,88 -72,160 -160,160l0 0c-88,0 -160,-72 -160,-160l0 -1053c0,-87 72,-159 160,-159z"/>
   <path class="fil0 str0" d="M1652 2314l0 0c88,0 160,72 160,160l0 1052c0,88 -72,160 -160,160l0 0c-88,0 -160,-72 -160,-160l0 -1052c0,-88 72,-160 160,-160z"/>
   <path class="fil0 str0" d="M1652 3938l0 0c88,0 160,72 160,160l0 1053c0,87 -72,159 -160,159l0 0c-88,0 -160,-72 -160,-159l0 -1053c0,-88 72,-160 160,-160z"/>
   <path class="fil0 str0" d="M2348 690l0 0c88,0 160,72 160,159l0 1053c0,88 -72,160 -160,160l0 0c-88,0 -160,-72 -160,-160l0 -1053c0,-87 72,-159 160,-159z"/>
   <path class="fil0 str0" d="M2348 2314l0 0c88,0 160,72 160,160l0 1052c0,88 -72,160 -160,160l0 0c-88,0 -160,-72 -160,-160l0 -1052c0,-88 72,-160 160,-160z"/>
   <path class="fil0 str0" d="M2348 3938l0 0c88,0 160,72 160,160l0 1053c0,87 -72,159 -160,159l0 0c-88,0 -160,-72 -160,-159l0 -1053c0,-88 72,-160 160,-160z"/>
   <path class="fil0 str0" d="M3044 690l0 0c88,0 160,72 160,159l0 1053c0,88 -72,160 -160,160l0 0c-88,0 -160,-72 -160,-160l0 -1053c0,-87 72,-159 160,-159z"/>
   <path class="fil0 str0" d="M3044 2314l0 0c88,0 160,72 160,160l0 1052c0,88 -72,160 -160,160l0 0c-88,0 -160,-72 -160,-160l0 -1052c0,-88 72,-160 160,-160z"/>
   <path class="fil0 str0" d="M3044 3938l0 0c88,0 160,72 160,160l0 1053c0,87 -72,159 -160,159l0 0c-88,0 -160,-72 -160,-159l0 -1053c0,-88 72,-160 160,-160z"/>
   <path class="fil0 str0" d="M956 650l0 0c110,0 199,90 199,199l0 1053c0,110 -89,200 -199,200l0 0c-110,0 -199,-90 -199,-200l0 -1053c0,-109 89,-199 199,-199z"/>
   <path class="fil0 str0" d="M956 2274l0 0c110,0 199,90 199,200l0 1052c0,110 -89,200 -199,200l0 0c-110,0 -199,-90 -199,-200l0 -1052c0,-110 89,-200 199,-200z"/>
   <path class="fil0 str0" d="M956 3898l0 0c110,0 199,90 199,200l0 1053c0,109 -89,199 -199,199l0 0c-110,0 -199,-90 -199,-199l0 -1053c0,-110 89,-200 199,-200z"/>
   <path class="fil0 str0" d="M1652 650l0 0c110,0 199,90 199,199l0 1053c0,110 -89,200 -199,200l0 0c-110,0 -199,-90 -199,-200l0 -1053c0,-109 89,-199 199,-199z"/>
   <path class="fil0 str0" d="M1652 2274l0 0c110,0 199,90 199,200l0 1052c0,110 -89,200 -199,200l0 0c-110,0 -199,-90 -199,-200l0 -1052c0,-110 89,-200 199,-200z"/>
   <path class="fil0 str0" d="M1652 3898l0 0c110,0 199,90 199,200l0 1053c0,109 -89,199 -199,199l0 0c-110,0 -199,-90 -199,-199l0 -1053c0,-110 89,-200 199,-200z"/>
   <path class="fil0 str0" d="M2348 650l0 0c110,0 199,90 199,199l0 1053c0,110 -89,200 -199,200l0 0c-110,0 -199,-90 -199,-200l0 -1053c0,-109 89,-199 199,-199z"/>
   <path class="fil0 str0" d="M2348 2274l0 0c110,0 199,90 199,200l0 1052c0,110 -89,200 -199,200l0 0c-110,0 -199,-90 -199,-200l0 -1052c0,-110 89,-200 199,-200z"/>
   <path class="fil0 str0" d="M2348 3898l0 0c110,0 199,90 199,200l0 1053c0,109 -89,199 -199,199l0 0c-110,0 -199,-90 -199,-199l0 -1053c0,-110 89,-200 199,-200z"/>
   <path class="fil0 str0" d="M3044 650l0 0c110,0 199,90 199,199l0 1053c0,110 -89,200 -199,200l0 0c-110,0 -199,-90 -199,-200l0 -1053c0,-109 89,-199 199,-199z"/>
   <path class="fil0 str0" d="M3044 2274l0 0c110,0 199,90 199,200l0 1052c0,110 -89,200 -199,200l0 0c-110,0 -199,-90 -199,-200l0 -1052c0,-110 89,-200 199,-200z"/>
   <path class="fil0 str0" d="M3044 3898l0 0c110,0 199,90 199,200l0 1053c0,109 -89,199 -199,199l0 0c-110,0 -199,-90 -199,-199l0 -1053c0,-110 89,-200 199,-200z"/>
   <path class="fil0 str0" d="M989 736c-1,-11 -11,-22 -32,-24 -75,0 -135,61 -135,136 0,75 60,135 135,135 75,0 135,-60 135,-135 0,-75 -60,-136 -135,-136"/>
   <path class="fil0 str0" d="M989 2360c-1,-11 -11,-22 -32,-24 -75,0 -135,61 -135,136 0,75 60,135 135,135 75,0 135,-60 135,-135 0,-75 -60,-136 -135,-136"/>
   <path class="fil0 str0" d="M989 3984c-1,-11 -11,-22 -32,-23 -75,0 -135,60 -135,135 0,75 60,135 135,135 75,0 135,-60 135,-135 0,-75 -60,-135 -135,-135"/>
   <path class="fil0 str0" d="M1685 736c-1,-11 -11,-22 -32,-24 -75,0 -135,61 -135,136 0,75 60,135 135,135 75,0 135,-60 135,-135 0,-75 -60,-136 -135,-136"/>
   <path class="fil0 str0" d="M1685 2360c-1,-11 -11,-22 -32,-24 -75,0 -135,61 -135,136 0,75 60,135 135,135 75,0 135,-60 135,-135 0,-75 -60,-136 -135,-136"/>
   <path class="fil0 str0" d="M1685 3984c-1,-11 -11,-22 -32,-23 -75,0 -135,60 -135,135 0,75 60,135 135,135 75,0 135,-60 135,-135 0,-75 -60,-135 -135,-135"/>
   <path class="fil0 str0" d="M2381 736c-1,-11 -11,-22 -32,-24 -75,0 -135,61 -135,136 0,75 60,135 135,135 75,0 135,-60 135,-135 0,-75 -60,-136 -135,-136"/>
   <path class="fil0 str0" d="M2381 2360c-1,-11 -11,-22 -32,-24 -75,0 -135,61 -135,136 0,75 60,135 135,135 75,0 135,-60 135,-135 0,-75 -60,-136 -135,-136"/>
   <path class="fil0 str0" d="M2381 3984c-1,-11 -11,-22 -32,-23 -75,0 -135,60 -135,135 0,75 60,135 135,135 75,0 135,-60 135,-135 0,-75 -60,-135 -135,-135"/>
   <path class="fil0 str0" d="M3077 736c-1,-11 -11,-22 -32,-24 -75,0 -135,61 -135,136 0,75 60,135 135,135 75,0 135,-60 135,-135 0,-75 -60,-136 -135,-136"/>
   <path class="fil0 str0" d="M3077 2360c-1,-11 -11,-22 -32,-24 -75,0 -135,61 -135,136 0,75 60,135 135,135 75,0 135,-60 135,-135 0,-75 -60,-136 -135,-136"/>
   <path class="fil0 str0" d="M3077 3984c-1,-11 -11,-22 -32,-23 -75,0 -135,60 -135,135 0,75 60,135 135,135 75,0 135,-60 135,-135 0,-75 -60,-135 -135,-135"/>
  </g>
  <path class="fil0 str1" d="M-12953 5921l0 -200c0,-132 108,-240 240,-240l200 0c132,0 240,108 240,240l0 200c0,132 -108,240 -240,240l-200 0c-132,0 -240,-108 -240,-240z"/>
  <path class="fil0 str1" d="M-8753 5921l0 -200c0,-132 108,-240 240,-240l200 0c132,0 240,108 240,240l0 200c0,132 -108,240 -240,240l-200 0c-132,0 -240,-108 -240,-240z"/>
  <path class="fil0 str1" d="M-4553 5921l0 -200c0,-132 108,-240 240,-240l200 0c132,0 240,108 240,240l0 200c0,132 -108,240 -240,240l-200 0c-132,0 -240,-108 -240,-240z"/>
  <path class="fil0 str1" d="M-12953 4121l0 -200c0,-132 108,-240 240,-240l200 0c132,0 240,108 240,240l0 200c0,132 -108,240 -240,240l-200 0c-132,0 -240,-108 -240,-240z"/>
  <path class="fil0 str1" d="M-8753 4121l0 -200c0,-132 108,-240 240,-240l200 0c132,0 240,108 240,240l0 200c0,132 -108,240 -240,240l-200 0c-132,0 -240,-108 -240,-240z"/>
  <path class="fil0 str1" d="M-4553 4121l0 -200c0,-132 108,-240 240,-240l200 0c132,0 240,108 240,240l0 200c0,132 -108,240 -240,240l-200 0c-132,0 -240,-108 -240,-240z"/>
  <path class="fil0 str1" d="M-12953 2321l0 -200c0,-132 108,-240 240,-240l200 0c132,0 240,108 240,240l0 200c0,132 -108,240 -240,240l-200 0c-132,0 -240,-108 -240,-240z"/>
  <path class="fil0 str1" d="M-8753 2321l0 -200c0,-132 108,-240 240,-240l200 0c132,0 240,108 240,240l0 200c0,132 -108,240 -240,240l-200 0c-132,0 -240,-108 -240,-240z"/>
  <path class="fil0 str1" d="M-4553 2321l0 -200c0,-132 108,-240 240,-240l200 0c132,0 240,108 240,240l0 200c0,132 -108,240 -240,240l-200 0c-132,0 -240,-108 -240,-240z"/>
  <path class="fil0 str1" d="M-12953 521l0 -200c0,-132 108,-240 240,-240l200 0c132,0 240,108 240,240l0 200c0,132 -108,240 -240,240l-200 0c-132,0 -240,-108 -240,-240z"/>
  <path class="fil0 str1" d="M-8753 521l0 -200c0,-132 108,-240 240,-240l200 0c132,0 240,108 240,240l0 200c0,132 -108,240 -240,240l-200 0c-132,0 -240,-108 -240,-240z"/>
  <path class="fil0 str1" d="M-4553 521l0 -200c0,-132 108,-240 240,-240l200 0c132,0 240,108 240,240l0 200c0,132 -108,240 -240,240l-200 0c-132,0 -240,-108 -240,-240z"/>
  <path class="fil0 str1" d="M-11099 5735c-29,2 -57,28 -61,82 0,194 156,350 350,350 193,0 350,-156 350,-350 0,-193 -157,-350 -350,-350 -194,0 -350,157 -350,350"/>
  <path class="fil0 str1" d="M-6899 5735c-29,2 -57,28 -61,82 0,194 156,350 350,350 193,0 350,-156 350,-350 0,-193 -157,-350 -350,-350 -194,0 -350,157 -350,350"/>
  <path class="fil0 str1" d="M-2699 5735c-29,2 -57,28 -61,82 0,194 156,350 350,350 193,0 350,-156 350,-350 0,-193 -157,-350 -350,-350 -194,0 -350,157 -350,350"/>
  <path class="fil0 str1" d="M-11099 3935c-29,2 -57,28 -61,82 0,194 156,350 350,350 193,0 350,-156 350,-350 0,-193 -157,-350 -350,-350 -194,0 -350,157 -350,350"/>
  <path class="fil0 str1" d="M-6899 3935c-29,2 -57,28 -61,82 0,194 156,350 350,350 193,0 350,-156 350,-350 0,-193 -157,-350 -350,-350 -194,0 -350,157 -350,350"/>
  <path class="fil0 str1" d="M-2699 3935c-29,2 -57,28 -61,82 0,194 156,350 350,350 193,0 350,-156 350,-350 0,-193 -157,-350 -350,-350 -194,0 -350,157 -350,350"/>
  <path class="fil0 str1" d="M-11099 2135c-29,2 -57,28 -61,82 0,194 156,350 350,350 193,0 350,-156 350,-350 0,-193 -157,-350 -350,-350 -194,0 -350,157 -350,350"/>
  <path class="fil0 str1" d="M-6899 2135c-29,2 -57,28 -61,82 0,194 156,350 350,350 193,0 350,-156 350,-350 0,-193 -157,-350 -350,-350 -194,0 -350,157 -350,350"/>
  <path class="fil0 str1" d="M-2699 2135c-29,2 -57,28 -61,82 0,194 156,350 350,350 193,0 350,-156 350,-350 0,-193 -157,-350 -350,-350 -194,0 -350,157 -350,350"/>
  <path class="fil0 str1" d="M-11099 335c-29,2 -57,28 -61,82 0,194 156,350 350,350 193,0 350,-156 350,-350 0,-193 -157,-350 -350,-350 -194,0 -350,157 -350,350"/>
  <path class="fil0 str1" d="M-6899 335c-29,2 -57,28 -61,82 0,194 156,350 350,350 193,0 350,-156 350,-350 0,-193 -157,-350 -350,-350 -194,0 -350,157 -350,350"/>
  <path class="fil0 str1" d="M-2699 335c-29,2 -57,28 -61,82 0,194 156,350 350,350 193,0 350,-156 350,-350 0,-193 -157,-350 -350,-350 -194,0 -350,157 -350,350"/>
  <path class="fil0 str1" d="M-11973 5735c-30,2 -58,28 -62,82 0,194 157,350 350,350 193,0 350,-156 350,-350 0,-193 -157,-350 -350,-350 -193,0 -350,157 -350,350"/>
  <path class="fil0 str1" d="M-7773 5735c-30,2 -58,28 -62,82 0,194 157,350 350,350 193,0 350,-156 350,-350 0,-193 -157,-350 -350,-350 -193,0 -350,157 -350,350"/>
  <path class="fil0 str1" d="M-3573 5735c-30,2 -58,28 -62,82 0,194 157,350 350,350 193,0 350,-156 350,-350 0,-193 -157,-350 -350,-350 -193,0 -350,157 -350,350"/>
  <path class="fil0 str1" d="M-11973 3935c-30,2 -58,28 -62,82 0,194 157,350 350,350 193,0 350,-156 350,-350 0,-193 -157,-350 -350,-350 -193,0 -350,157 -350,350"/>
  <path class="fil0 str1" d="M-7773 3935c-30,2 -58,28 -62,82 0,194 157,350 350,350 193,0 350,-156 350,-350 0,-193 -157,-350 -350,-350 -193,0 -350,157 -350,350"/>
  <path class="fil0 str1" d="M-3573 3935c-30,2 -58,28 -62,82 0,194 157,350 350,350 193,0 350,-156 350,-350 0,-193 -157,-350 -350,-350 -193,0 -350,157 -350,350"/>
  <path class="fil0 str1" d="M-11973 2135c-30,2 -58,28 -62,82 0,194 157,350 350,350 193,0 350,-156 350,-350 0,-193 -157,-350 -350,-350 -193,0 -350,157 -350,350"/>
  <path class="fil0 str1" d="M-7773 2135c-30,2 -58,28 -62,82 0,194 157,350 350,350 193,0 350,-156 350,-350 0,-193 -157,-350 -350,-350 -193,0 -350,157 -350,350"/>
  <path class="fil0 str1" d="M-3573 2135c-30,2 -58,28 -62,82 0,194 157,350 350,350 193,0 350,-156 350,-350 0,-193 -157,-350 -350,-350 -193,0 -350,157 -350,350"/>
  <path class="fil0 str1" d="M-11973 335c-30,2 -58,28 -62,82 0,194 157,350 350,350 193,0 350,-156 350,-350 0,-193 -157,-350 -350,-350 -193,0 -350,157 -350,350"/>
  <path class="fil0 str1" d="M-7773 335c-30,2 -58,28 -62,82 0,194 157,350 350,350 193,0 350,-156 350,-350 0,-193 -157,-350 -350,-350 -193,0 -350,157 -350,350"/>
  <path class="fil0 str1" d="M-3573 335c-30,2 -58,28 -62,82 0,194 157,350 350,350 193,0 350,-156 350,-350 0,-193 -157,-350 -350,-350 -193,0 -350,157 -350,350"/>
  <path class="fil0 str1" d="M-13941 5820l0 0c0,-228 186,-414 413,-414l2723 0c228,0 414,186 414,414l0 0c0,227 -186,413 -414,413l-2723 0c-227,0 -413,-186 -413,-413z"/>
  <path class="fil0 str1" d="M-9741 5820l0 0c0,-228 186,-414 413,-414l2723 0c228,0 414,186 414,414l0 0c0,227 -186,413 -414,413l-2723 0c-227,0 -413,-186 -413,-413z"/>
  <path class="fil0 str1" d="M-5541 5820l0 0c0,-228 186,-414 413,-414l2723 0c228,0 414,186 414,414l0 0c0,227 -186,413 -414,413l-2723 0c-227,0 -413,-186 -413,-413z"/>
  <path class="fil0 str1" d="M-13941 4020l0 0c0,-228 186,-414 413,-414l2723 0c228,0 414,186 414,414l0 0c0,227 -186,413 -414,413l-2723 0c-227,0 -413,-186 -413,-413z"/>
  <path class="fil0 str1" d="M-9741 4020l0 0c0,-228 186,-414 413,-414l2723 0c228,0 414,186 414,414l0 0c0,227 -186,413 -414,413l-2723 0c-227,0 -413,-186 -413,-413z"/>
  <path class="fil0 str1" d="M-5541 4020l0 0c0,-228 186,-414 413,-414l2723 0c228,0 414,186 414,414l0 0c0,227 -186,413 -414,413l-2723 0c-227,0 -413,-186 -413,-413z"/>
  <path class="fil0 str1" d="M-13941 2220l0 0c0,-228 186,-414 413,-414l2723 0c228,0 414,186 414,414l0 0c0,227 -186,413 -414,413l-2723 0c-227,0 -413,-186 -413,-413z"/>
  <path class="fil0 str1" d="M-9741 2220l0 0c0,-228 186,-414 413,-414l2723 0c228,0 414,186 414,414l0 0c0,227 -186,413 -414,413l-2723 0c-227,0 -413,-186 -413,-413z"/>
  <path class="fil0 str1" d="M-5541 2220l0 0c0,-228 186,-414 413,-414l2723 0c228,0 414,186 414,414l0 0c0,227 -186,413 -414,413l-2723 0c-227,0 -413,-186 -413,-413z"/>
  <path class="fil0 str1" d="M-13941 420l0 0c0,-228 186,-414 413,-414l2723 0c228,0 414,186 414,414l0 0c0,227 -186,413 -414,413l-2723 0c-227,0 -413,-186 -413,-413z"/>
  <path class="fil0 str1" d="M-9741 420l0 0c0,-228 186,-414 413,-414l2723 0c228,0 414,186 414,414l0 0c0,227 -186,413 -414,413l-2723 0c-227,0 -413,-186 -413,-413z"/>
  <path class="fil0 str1" d="M-5541 420l0 0c0,-228 186,-414 413,-414l2723 0c228,0 414,186 414,414l0 0c0,227 -186,413 -414,413l-2723 0c-227,0 -413,-186 -413,-413z"/>
  <path class="fil0 str1" d="M-14044 5820l0 0c0,-284 233,-516 516,-516l2723 0c284,0 516,232 516,516l0 0c0,284 -232,516 -516,516l-2723 0c-283,0 -516,-232 -516,-516z"/>
  <path class="fil0 str1" d="M-9844 5820l0 0c0,-284 233,-516 516,-516l2723 0c284,0 516,232 516,516l0 0c0,284 -232,516 -516,516l-2723 0c-283,0 -516,-232 -516,-516z"/>
  <path class="fil0 str1" d="M-5644 5820l0 0c0,-284 233,-516 516,-516l2723 0c284,0 516,232 516,516l0 0c0,284 -232,516 -516,516l-2723 0c-283,0 -516,-232 -516,-516z"/>
  <path class="fil0 str1" d="M-14044 4020l0 0c0,-284 233,-516 516,-516l2723 0c284,0 516,232 516,516l0 0c0,284 -232,516 -516,516l-2723 0c-283,0 -516,-232 -516,-516z"/>
  <path class="fil0 str1" d="M-9844 4020l0 0c0,-284 233,-516 516,-516l2723 0c284,0 516,232 516,516l0 0c0,284 -232,516 -516,516l-2723 0c-283,0 -516,-232 -516,-516z"/>
  <path class="fil0 str1" d="M-5644 4020l0 0c0,-284 233,-516 516,-516l2723 0c284,0 516,232 516,516l0 0c0,284 -232,516 -516,516l-2723 0c-283,0 -516,-232 -516,-516z"/>
  <path class="fil0 str1" d="M-14044 2220l0 0c0,-284 233,-516 516,-516l2723 0c284,0 516,232 516,516l0 0c0,284 -232,516 -516,516l-2723 0c-283,0 -516,-232 -516,-516z"/>
  <path class="fil0 str1" d="M-9844 2220l0 0c0,-284 233,-516 516,-516l2723 0c284,0 516,232 516,516l0 0c0,284 -232,516 -516,516l-2723 0c-283,0 -516,-232 -516,-516z"/>
  <path class="fil0 str1" d="M-5644 2220l0 0c0,-284 233,-516 516,-516l2723 0c284,0 516,232 516,516l0 0c0,284 -232,516 -516,516l-2723 0c-283,0 -516,-232 -516,-516z"/>
  <path class="fil0 str1" d="M-14044 420l0 0c0,-284 233,-516 516,-516l2723 0c284,0 516,232 516,516l0 0c0,284 -232,516 -516,516l-2723 0c-283,0 -516,-232 -516,-516z"/>
  <path class="fil0 str1" d="M-9844 420l0 0c0,-284 233,-516 516,-516l2723 0c284,0 516,232 516,516l0 0c0,284 -232,516 -516,516l-2723 0c-283,0 -516,-232 -516,-516z"/>
  <path class="fil0 str1" d="M-5644 420l0 0c0,-284 233,-516 516,-516l2723 0c284,0 516,232 516,516l0 0c0,284 -232,516 -516,516l-2723 0c-283,0 -516,-232 -516,-516z"/>
  <path class="fil0 str1" d="M-13820 5735c-30,2 -58,28 -62,82 0,194 157,350 350,350 193,0 350,-156 350,-350 0,-193 -157,-350 -350,-350 -193,0 -350,157 -350,350"/>
  <path class="fil0 str1" d="M-9620 5735c-30,2 -58,28 -62,82 0,194 157,350 350,350 193,0 350,-156 350,-350 0,-193 -157,-350 -350,-350 -193,0 -350,157 -350,350"/>
  <path class="fil0 str1" d="M-5420 5735c-30,2 -58,28 -62,82 0,194 157,350 350,350 193,0 350,-156 350,-350 0,-193 -157,-350 -350,-350 -193,0 -350,157 -350,350"/>
  <path class="fil0 str1" d="M-13820 3935c-30,2 -58,28 -62,82 0,194 157,350 350,350 193,0 350,-156 350,-350 0,-193 -157,-350 -350,-350 -193,0 -350,157 -350,350"/>
  <path class="fil0 str1" d="M-9620 3935c-30,2 -58,28 -62,82 0,194 157,350 350,350 193,0 350,-156 350,-350 0,-193 -157,-350 -350,-350 -193,0 -350,157 -350,350"/>
  <path class="fil0 str1" d="M-5420 3935c-30,2 -58,28 -62,82 0,194 157,350 350,350 193,0 350,-156 350,-350 0,-193 -157,-350 -350,-350 -193,0 -350,157 -350,350"/>
  <path class="fil0 str1" d="M-13820 2135c-30,2 -58,28 -62,82 0,194 157,350 350,350 193,0 350,-156 350,-350 0,-193 -157,-350 -350,-350 -193,0 -350,157 -350,350"/>
  <path class="fil0 str1" d="M-9620 2135c-30,2 -58,28 -62,82 0,194 157,350 350,350 193,0 350,-156 350,-350 0,-193 -157,-350 -350,-350 -193,0 -350,157 -350,350"/>
  <path class="fil0 str1" d="M-5420 2135c-30,2 -58,28 -62,82 0,194 157,350 350,350 193,0 350,-156 350,-350 0,-193 -157,-350 -350,-350 -193,0 -350,157 -350,350"/>
  <path class="fil0 str1" d="M-13820 335c-30,2 -58,28 -62,82 0,194 157,350 350,350 193,0 350,-156 350,-350 0,-193 -157,-350 -350,-350 -193,0 -350,157 -350,350"/>
  <path class="fil0 str1" d="M-9620 335c-30,2 -58,28 -62,82 0,194 157,350 350,350 193,0 350,-156 350,-350 0,-193 -157,-350 -350,-350 -193,0 -350,157 -350,350"/>
  <path class="fil0 str1" d="M-5420 335c-30,2 -58,28 -62,82 0,194 157,350 350,350 193,0 350,-156 350,-350 0,-193 -157,-350 -350,-350 -193,0 -350,157 -350,350"/>
 </g>
</svg>
