<?xml version="1.0" encoding="UTF-8"?>
<!DOCTYPE svg PUBLIC "-//W3C//DTD SVG 1.1//EN" "http://www.w3.org/Graphics/SVG/1.1/DTD/svg11.dtd">
<!-- Creator: CorelDRAW X8 -->
<svg xmlns="http://www.w3.org/2000/svg" xml:space="preserve" width="40mm" height="60mm" version="1.1" style="shape-rendering:geometricPrecision; text-rendering:geometricPrecision; image-rendering:optimizeQuality; fill-rule:evenodd; clip-rule:evenodd"
viewBox="0 0 4000 6000"
 xmlns:xlink="http://www.w3.org/1999/xlink">
 <defs>
  <style type="text/css">
   <![CDATA[
    .str0 {stroke:#332C2B;stroke-width:20}
    .fil0 {fill:none}
   ]]>
  </style>
 </defs>
 <g id="图层_x0020_1">
  <metadata id="CorelCorpID_0Corel-Layer"/>
  <path class="fil0 str0" d="M-22005 15510c0,-179 -407,-510 -957,-510 -550,0 -1000,-450 -1000,-1000l0 -22000c0,-550 450,-1000 1000,-1000l15000 0c550,0 1000,450 1000,1000l0 22000c0,550 -450,1000 -1000,1000l-16191 0"/>
  <path class="fil0 str0" d="M764 5350c0,-34 -78,-98 -184,-98 -105,0 -192,-86 -192,-191l0 -4219c0,-106 87,-192 192,-192l2876 0c106,0 192,86 192,192l0 4219c0,105 -86,191 -192,191l-3104 0"/>
 </g>
</svg>
