<?xml version="1.0" encoding="UTF-8"?>
<!DOCTYPE svg PUBLIC "-//W3C//DTD SVG 1.1//EN" "http://www.w3.org/Graphics/SVG/1.1/DTD/svg11.dtd">
<!-- Creator: CorelDRAW X8 -->
<svg xmlns="http://www.w3.org/2000/svg" xml:space="preserve" width="40mm" height="60mm" version="1.1" style="shape-rendering:geometricPrecision; text-rendering:geometricPrecision; image-rendering:optimizeQuality; fill-rule:evenodd; clip-rule:evenodd"
viewBox="0 0 4000 6000"
 xmlns:xlink="http://www.w3.org/1999/xlink">
 <defs>
  <style type="text/css">
   <![CDATA[
    .fil0 {fill:#222222;fill-rule:nonzero}
   ]]>
  </style>
 </defs>
 <g id="图层_x0020_1">
  <metadata id="CorelCorpID_0Corel-Layer"/>
  <g>
   <path class="fil0" d="M1374 945l0 -20 0 0 2 0 1 0 2 1 1 0 1 0 2 1 1 0 1 0 1 1 2 0 1 1 1 1 1 0 1 1 1 1 1 0 1 1 1 1 1 1 1 1 0 1 1 1 1 1 0 1 1 1 0 1 1 1 0 1 0 1 0 1 1 2 0 1 -20 1 0 0 0 0 0 0 0 0 0 0 0 -1 0 0 -1 0 0 0 0 0 0 0 0 -1 0 0 0 0 0 0 -1 0 0 0 0 -1 0 0 -1 0 0 0 -1 0 0 -1 -1 0 0 0 -1 0 0 0 -1 0 -1 -1 -1 0 0 0 -1 0 1 0zm0 -20l0 0 0 0 0 0zm-72 91l-20 0 0 0 0 -4 1 -5 0 -4 1 -5 1 -4 1 -5 2 -4 1 -4 2 -4 2 -4 2 -4 3 -4 2 -3 3 -4 3 -3 3 -3 3 -3 3 -3 4 -3 3 -2 4 -3 4 -2 4 -2 4 -2 4 -1 4 -2 5 -1 4 -1 5 -1 4 0 5 -1 5 0 0 20 -4 0 -4 0 -3 1 -4 1 -3 0 -4 1 -3 1 -3 2 -3 1 -3 2 -3 1 -3 2 -3 2 -3 2 -2 3 -3 2 -2 2 -2 3 -3 3 -2 3 -1 2 -2 3 -2 3 -1 4 -1 3 -2 3 -1 4 0 3 -1 4 0 3 -1 4 0 3 0 0zm72 72l0 20 0 0 -5 0 -5 -1 -4 0 -5 -1 -4 -1 -5 -1 -4 -2 -4 -1 -4 -2 -4 -2 -4 -3 -4 -2 -3 -2 -4 -3 -3 -3 -3 -3 -3 -3 -3 -4 -3 -3 -2 -4 -3 -3 -2 -4 -2 -4 -2 -4 -1 -4 -2 -4 -1 -5 -1 -4 -1 -5 0 -4 -1 -5 0 -5 20 0 0 4 1 4 0 3 1 4 0 3 1 4 2 3 1 3 1 3 2 3 2 3 1 3 2 3 3 3 2 2 2 3 3 2 2 2 3 3 3 2 3 1 3 2 3 2 3 1 3 1 3 1 4 1 3 1 4 1 3 0 4 1 4 0 0 0zm71 -72l20 0 0 0 0 5 -1 5 0 4 -1 5 -1 4 -1 5 -2 4 -1 4 -2 4 -2 4 -2 4 -3 3 -2 4 -3 3 -3 4 -3 3 -3 3 -3 3 -4 3 -3 2 -4 2 -4 3 -4 2 -4 2 -4 1 -4 2 -5 1 -4 1 -5 1 -4 0 -5 1 -4 0 0 -20 3 0 4 -1 3 0 4 -1 3 -1 4 -1 3 -1 3 -1 3 -1 4 -2 2 -2 3 -1 3 -2 3 -3 2 -2 3 -2 2 -3 3 -2 2 -3 2 -3 2 -3 1 -3 2 -3 1 -3 2 -3 1 -3 1 -4 0 -3 1 -4 0 -3 1 -4 0 -4 0 0zm-71 -71l0 -20 4 0 5 1 4 0 5 1 4 1 5 1 4 2 4 1 4 2 4 2 4 2 4 3 3 2 4 3 3 3 3 3 3 3 3 3 3 4 2 3 3 4 2 4 2 4 2 4 1 4 2 4 1 5 1 4 1 5 0 4 1 5 0 4 -20 0 0 -3 -1 -4 0 -3 -1 -4 0 -3 -1 -4 -1 -3 -2 -3 -1 -4 -2 -3 -1 -3 -2 -2 -2 -3 -2 -3 -3 -3 -2 -2 -3 -2 -2 -3 -3 -2 -3 -2 -2 -2 -3 -1 -4 -2 -3 -1 -3 -2 -3 -1 -4 -1 -3 0 -4 -1 -3 -1 -4 0 -3 0zm96 -69l-207 0 0 -20 207 0 0 0 0 20zm87 67l-20 0 0 0 0 -4 0 -3 0 -3 -1 -4 -1 -3 -1 -3 -1 -3 -1 -3 -1 -3 -2 -3 -1 -3 -2 -3 -2 -2 -2 -3 -2 -2 -2 -3 -3 -2 -2 -2 -3 -2 -2 -2 -3 -2 -3 -1 -3 -2 -3 -1 -3 -1 -3 -1 -3 -1 -3 -1 -3 0 -4 -1 -3 0 -4 0 0 -20 5 0 4 0 5 1 4 1 4 1 4 1 4 1 4 2 4 1 4 2 3 2 4 3 3 2 4 3 3 2 3 3 3 3 2 3 3 4 2 3 3 4 2 3 2 4 1 4 2 4 1 4 2 4 1 4 0 4 1 5 0 4 0 5 0 0zm-20 141l0 -141 20 0 0 141 0 0 -20 0zm-67 87l0 -20 0 0 4 0 3 0 4 -1 3 0 3 -1 3 -1 3 -1 3 -1 3 -2 3 -1 3 -2 3 -1 2 -2 3 -2 2 -2 3 -3 2 -2 2 -2 2 -3 2 -3 2 -2 1 -3 2 -3 1 -3 1 -3 1 -3 1 -3 1 -3 1 -4 0 -3 0 -3 0 -4 20 0 0 5 0 4 -1 4 -1 5 0 4 -2 4 -1 4 -2 4 -1 4 -2 4 -2 3 -3 4 -2 3 -3 3 -2 4 -3 3 -3 2 -3 3 -4 3 -3 2 -4 2 -3 3 -4 1 -4 2 -4 2 -4 1 -4 1 -4 1 -4 1 -5 1 -4 0 -5 0 0 0zm-207 -20l207 0 0 20 -207 0 0 0 0 -20zm-87 -67l20 0 0 0 0 4 0 3 1 3 0 4 1 3 1 3 1 3 1 3 1 3 2 3 1 3 2 2 2 3 2 3 2 2 2 2 3 3 2 2 3 2 2 2 3 1 3 2 3 1 3 2 3 1 3 1 3 1 3 1 3 0 4 1 3 0 4 0 0 20 -5 0 -4 0 -5 -1 -4 -1 -4 -1 -4 -1 -4 -1 -4 -2 -4 -2 -4 -1 -3 -3 -4 -2 -3 -2 -4 -3 -3 -3 -3 -2 -3 -3 -2 -4 -3 -3 -2 -3 -3 -4 -2 -3 -2 -4 -1 -4 -2 -4 -1 -4 -1 -4 -1 -4 -1 -5 -1 -4 0 -4 0 -5 0 0zm20 -141l0 141 -20 0 0 -141 0 0 20 0zm67 -87l0 20 0 0 -4 0 -3 0 -4 1 -3 0 -3 1 -3 1 -3 1 -3 1 -3 1 -3 2 -3 1 -3 2 -2 2 -3 2 -2 2 -3 2 -2 3 -2 2 -2 3 -2 2 -2 3 -1 3 -2 3 -1 3 -1 3 -1 3 -1 3 -1 3 0 4 -1 3 0 3 0 4 -20 0 0 -5 0 -4 1 -5 1 -4 1 -4 1 -4 1 -4 2 -4 1 -4 2 -4 2 -3 3 -4 2 -3 3 -4 2 -3 3 -3 3 -3 3 -2 4 -3 3 -2 4 -3 3 -2 4 -2 4 -1 4 -2 4 -1 4 -1 4 -1 4 -1 5 -1 4 0 5 0 0 0zm0 10l0 0 0 0 0 0 0 -10 0 10zm432 -21l-205 0 0 -20 205 0 0 0 0 20zm129 108l-20 0 0 0 -1 -6 0 -5 -1 -6 -1 -5 -1 -5 -1 -5 -2 -5 -2 -5 -2 -5 -3 -5 -2 -4 -3 -5 -3 -4 -3 -4 -4 -4 -3 -4 -4 -3 -4 -4 -4 -3 -4 -3 -5 -3 -4 -2 -5 -3 -5 -2 -5 -2 -5 -2 -5 -1 -5 -1 -5 -1 -6 -1 -5 0 -6 0 0 -20 7 0 6 0 7 1 6 1 6 2 6 1 6 2 6 3 6 2 5 3 6 3 5 3 5 4 5 4 4 4 5 4 4 5 4 4 4 5 4 5 3 5 3 6 3 5 2 6 3 6 2 6 2 6 1 6 1 6 1 7 0 6 1 7 0 0zm-20 117l0 -117 20 0 0 117 0 0 -20 0zm-109 128l0 -20 0 0 6 0 5 0 6 -1 5 -1 5 -1 5 -1 5 -2 5 -2 5 -2 5 -3 4 -2 5 -3 4 -3 4 -3 4 -4 4 -3 3 -4 4 -4 3 -4 3 -4 3 -5 2 -4 3 -5 2 -5 2 -5 2 -5 1 -5 1 -5 1 -5 1 -6 0 -5 1 -6 20 0 -1 7 0 6 -1 7 -1 6 -1 6 -2 6 -2 6 -3 6 -2 6 -3 5 -3 6 -3 5 -4 5 -4 5 -4 4 -4 5 -5 4 -4 4 -5 4 -5 3 -5 4 -6 3 -5 3 -6 2 -6 3 -6 2 -6 1 -6 2 -6 1 -7 1 -6 0 -7 0 0 0zm-203 -20l203 0 0 20 -203 0 0 0 0 -20zm-15 7l20 0 0 0 0 0 0 0 0 0 0 0 0 -1 0 0 0 0 0 0 -1 -1 0 -1 0 0 0 0 -1 -1 0 -1 -1 0 0 0 -1 -1 0 0 0 0 -1 0 0 0 -1 -1 1 0 -1 0 0 0 0 0 0 0 0 0 0 0 0 0 0 0 1 0 0 20 -1 0 0 0 -1 0 0 0 -1 0 0 0 -1 0 0 0 -1 0 0 0 -1 0 -1 -1 -1 0 0 0 -1 -1 -1 0 -1 -1 0 0 -1 -1 -1 -1 0 -1 0 0 -1 -1 0 -1 0 -1 -1 0 0 -1 0 -1 0 0 0 -1 0 -1 0 0 0 0zm20 -5l0 5 -20 0 0 -5 0 0 20 0zm-7 -13l1 20 0 0 0 0 0 0 0 0 0 0 0 0 0 0 0 0 1 0 0 0 0 0 0 0 1 0 0 0 0 -1 1 0 0 0 1 -1 0 0 0 -1 1 0 0 -1 0 0 0 0 1 -1 0 0 0 -1 0 0 0 0 0 0 0 -1 0 0 0 0 -20 0 0 0 0 -1 0 0 0 -1 0 0 0 -1 0 0 1 -1 0 -1 0 -1 1 0 0 -1 0 -1 1 0 1 -1 0 0 1 -1 1 -1 0 0 1 0 0 0 1 -1 0 0 1 0 1 0 0 0 0 0 1 0 0 -1 1 0 0 0 1 0 0 0zm1 20l0 0 2 0 -2 0zm70 -98l20 0 0 0 0 5 0 4 -1 5 -1 5 -1 4 -1 5 -1 4 -2 4 -2 4 -2 4 -2 4 -2 4 -2 4 -3 4 -3 3 -3 3 -3 4 -3 3 -3 3 -4 3 -4 2 -3 3 -4 2 -4 2 -4 2 -5 2 -4 1 -4 2 -5 1 -4 1 -5 1 -5 0 -1 -20 3 0 4 -1 4 0 3 -1 4 -2 3 -1 3 -1 4 -2 3 -1 3 -2 3 -2 3 -2 3 -3 2 -2 3 -2 2 -3 3 -3 2 -3 2 -2 2 -3 2 -3 2 -4 1 -3 2 -3 1 -4 1 -3 1 -4 1 -3 0 -4 1 -3 0 -4 0 -4 0 0zm20 -156l0 156 -20 0 0 -156 0 0 20 0zm-91 -78l2 -20 0 0 5 0 4 1 5 1 4 1 5 2 4 1 4 2 4 2 4 2 4 2 4 3 3 3 4 2 3 3 3 3 3 4 3 3 3 3 3 4 2 4 2 4 2 4 2 4 2 4 2 4 1 4 1 5 1 4 1 5 1 5 0 4 0 5 -20 0 0 -4 0 -4 -1 -3 0 -4 -1 -3 -1 -4 -1 -3 -1 -4 -2 -3 -1 -3 -2 -4 -2 -3 -2 -3 -2 -2 -2 -3 -3 -3 -2 -2 -3 -3 -2 -2 -3 -3 -3 -2 -3 -2 -3 -1 -3 -2 -3 -2 -4 -1 -3 -1 -3 -1 -4 -1 -3 -1 -4 -1 -4 0 0 0zm0 0l0 0 -1 0 1 0zm-13 -14l20 0 0 0 0 0 0 0 0 0 0 0 0 0 0 0 0 -1 0 0 0 0 -1 -1 0 -1 0 0 0 0 -1 -1 0 -1 -1 0 0 0 -1 -1 0 0 0 0 -1 0 0 0 0 0 0 0 0 0 0 0 0 0 0 0 0 0 0 0 0 0 0 0 -2 20 0 0 -1 0 0 0 -1 -1 0 0 -1 0 0 0 -1 0 0 0 -1 0 0 -1 -1 0 0 0 -1 -1 -1 0 -1 -1 0 0 -1 -1 -1 -1 0 0 0 -1 -1 -1 0 -1 0 0 0 -1 -1 -1 0 0 0 -1 0 0 0 -1 0 0 0 -1 0 0zm20 -4l0 4 -20 0 0 -4 0 0 20 0zm-7 -12l0 20 0 0 0 0 0 0 0 0 0 0 0 0 0 -1 1 0 0 0 0 0 1 0 0 0 1 0 0 0 1 -1 0 0 0 0 1 -1 0 -1 1 0 0 0 0 -1 1 0 0 -1 0 0 0 0 0 -1 0 0 0 0 0 0 0 -1 0 0 0 0 -20 0 0 0 0 -1 0 0 0 -1 0 0 0 0 0 -1 1 -1 0 0 0 -1 0 -1 1 -1 0 0 1 -1 0 0 1 -1 1 -1 0 0 1 -1 1 0 1 -1 0 0 1 0 0 0 1 0 0 0 1 0 1 0 0 0 0 0 1 0 0 0 0 0zm0 10l0 0 0 0 0 0 0 -10 0 10zm-159 430l0 -20 0 0 2 1 2 0 2 0 2 1 2 0 2 0 1 1 2 0 2 1 1 1 2 0 1 1 2 1 1 1 1 1 1 1 2 1 1 1 1 1 1 1 1 1 1 2 1 1 0 1 1 2 0 1 1 1 0 2 1 1 0 2 0 1 0 2 -19 1 -1 0 0 -1 0 0 0 -1 0 0 0 -1 0 0 0 0 -1 -1 0 0 0 -1 -1 0 0 0 0 -1 -1 0 0 -1 -1 0 0 0 -1 -1 -1 0 0 -1 -1 0 -1 0 -1 -1 -1 0 -1 0 -1 -1 -1 0 -1 0 -1 0 -2 0 -1 -1 1 0zm0 -20l0 0 0 0 0 0zm-109 129l-20 0 0 0 0 -7 1 -6 1 -7 1 -6 1 -6 2 -6 2 -6 2 -6 3 -6 3 -5 3 -6 3 -5 4 -5 4 -5 4 -5 4 -4 4 -4 5 -4 5 -4 5 -4 5 -3 5 -3 6 -3 6 -2 5 -3 6 -2 7 -2 6 -1 6 -1 6 -1 7 0 7 -1 0 20 -6 1 -6 0 -5 1 -5 1 -5 1 -6 1 -5 2 -5 2 -4 2 -5 3 -5 2 -4 3 -4 3 -4 3 -4 4 -4 3 -4 4 -3 4 -3 4 -3 4 -3 5 -3 4 -2 5 -2 5 -2 4 -2 6 -1 5 -1 5 -1 5 -1 6 -1 5 0 6 0 0zm109 108l0 20 0 0 -7 0 -7 -1 -6 -1 -6 -1 -6 -1 -7 -2 -6 -2 -5 -2 -6 -3 -6 -3 -5 -3 -5 -3 -5 -4 -5 -3 -5 -4 -4 -5 -4 -4 -4 -5 -4 -5 -4 -5 -3 -5 -3 -5 -3 -6 -3 -5 -2 -6 -2 -6 -2 -6 -1 -6 -1 -7 -1 -6 -1 -7 0 -6 20 0 0 5 1 6 1 5 1 6 1 5 1 5 2 5 2 5 2 5 2 4 3 5 3 4 3 4 3 5 3 3 4 4 4 4 4 3 4 3 4 3 4 3 5 3 5 2 4 2 5 2 5 2 6 2 5 1 5 1 5 0 6 1 6 0 0 0zm108 -108l20 0 0 0 0 6 -1 7 -1 6 -1 7 -1 6 -2 6 -2 6 -2 6 -3 5 -3 6 -3 5 -3 5 -4 5 -3 5 -5 5 -4 4 -4 5 -5 4 -5 3 -5 4 -5 3 -5 3 -6 3 -6 3 -5 2 -6 2 -6 2 -7 1 -6 1 -6 1 -7 1 -6 0 0 -20 5 0 6 -1 5 0 5 -1 6 -1 5 -2 5 -2 5 -2 4 -2 5 -2 5 -3 4 -3 4 -3 4 -3 4 -3 4 -4 4 -4 3 -3 3 -5 3 -4 3 -4 3 -5 2 -4 2 -5 2 -5 2 -5 1 -5 2 -5 1 -6 0 -5 1 -6 0 -5 0 0zm-108 -109l0 -20 6 1 7 0 6 1 6 1 7 1 6 2 6 2 5 3 6 2 6 3 5 3 5 3 5 4 5 4 5 4 4 4 4 4 5 5 3 5 4 5 3 5 3 6 3 5 3 6 2 6 2 6 2 6 1 6 1 6 1 7 1 6 0 7 -20 0 0 -6 -1 -5 0 -6 -1 -5 -2 -5 -1 -6 -2 -5 -2 -4 -2 -5 -2 -5 -3 -4 -3 -5 -3 -4 -3 -4 -3 -4 -4 -4 -4 -3 -4 -4 -4 -3 -4 -3 -4 -3 -5 -2 -5 -3 -4 -2 -5 -2 -5 -2 -5 -1 -6 -1 -5 -1 -5 -1 -6 0 -5 -1zm307 -3l0 -20 0 1 2 0 2 0 2 0 2 1 2 0 2 0 1 1 2 1 2 0 1 1 2 1 1 0 2 1 1 1 1 1 1 1 2 1 1 1 1 1 1 1 1 2 1 1 0 1 1 1 1 2 0 1 1 1 0 2 1 1 0 2 0 1 0 2 -19 1 -1 0 0 -1 0 0 0 -1 0 0 0 0 0 -1 0 0 -1 -1 0 0 0 -1 -1 0 0 0 0 -1 -1 0 0 -1 -1 0 0 0 -1 -1 -1 0 0 -1 -1 0 -1 0 -1 -1 -1 0 -1 0 -1 -1 -1 0 -1 0 -1 0 -2 0 -1 -1 1 0zm0 -20l0 0 0 1 0 -1zm-109 129l-20 0 0 0 0 -7 1 -6 1 -7 1 -6 1 -6 2 -6 2 -6 2 -6 3 -6 3 -5 3 -6 3 -5 4 -5 4 -5 4 -4 4 -5 4 -4 5 -4 5 -4 5 -4 5 -3 5 -3 6 -3 6 -2 5 -3 6 -2 6 -1 7 -2 6 -1 6 -1 7 0 7 -1 0 20 -6 1 -6 0 -5 1 -5 1 -6 1 -5 1 -5 2 -5 2 -4 2 -5 3 -5 2 -4 3 -4 3 -4 3 -4 4 -4 3 -4 4 -3 4 -3 4 -3 4 -3 5 -3 4 -2 5 -2 5 -2 5 -2 5 -1 5 -2 5 0 5 -1 6 -1 5 0 6 0 0zm109 108l0 20 0 0 -7 0 -7 -1 -6 0 -6 -2 -7 -1 -6 -2 -6 -2 -5 -2 -6 -3 -6 -3 -5 -3 -5 -3 -5 -4 -5 -3 -5 -4 -4 -5 -4 -4 -4 -5 -4 -5 -4 -5 -3 -5 -3 -5 -3 -6 -3 -5 -2 -6 -2 -6 -2 -6 -1 -6 -1 -7 -1 -6 -1 -7 0 -6 20 0 0 5 1 6 1 5 0 6 2 5 1 5 2 5 2 5 2 5 2 4 3 5 3 4 3 4 3 5 3 4 4 3 4 4 4 3 4 3 4 3 4 3 5 3 5 2 4 2 5 2 5 2 5 2 6 1 5 1 5 0 6 1 6 0 0 0zm108 -108l20 0 0 0 0 6 -1 7 -1 6 -1 7 -1 6 -2 6 -2 6 -2 6 -3 5 -3 6 -3 5 -3 5 -4 5 -4 5 -4 5 -4 4 -4 5 -5 4 -5 3 -5 4 -5 3 -5 3 -6 3 -6 3 -5 2 -6 2 -6 2 -7 1 -6 2 -6 0 -7 1 -6 0 0 -20 5 0 6 -1 5 0 5 -1 6 -1 5 -2 5 -2 5 -2 4 -2 5 -2 5 -3 4 -3 4 -3 4 -3 4 -3 4 -4 4 -3 3 -4 3 -5 3 -4 3 -4 3 -5 2 -4 2 -5 2 -5 2 -5 1 -5 2 -5 1 -6 0 -5 1 -6 0 -5 0 0zm-108 -109l0 -20 6 1 7 0 6 1 6 1 7 2 6 1 6 2 5 3 6 2 6 3 5 3 5 3 5 4 5 4 5 4 4 4 4 5 4 4 4 5 4 5 3 5 3 6 3 5 3 6 2 6 2 6 2 6 1 6 1 6 1 7 1 6 0 7 -20 0 0 -6 -1 -5 0 -6 -1 -5 -2 -5 -1 -5 -2 -5 -2 -5 -2 -5 -2 -5 -3 -4 -3 -5 -3 -4 -3 -4 -3 -4 -4 -4 -4 -3 -4 -4 -4 -3 -4 -3 -4 -3 -5 -2 -5 -3 -4 -2 -5 -2 -5 -2 -5 -1 -6 -1 -5 -1 -5 -1 -6 0 -5 -1zm0 356l0 -20 0 0 2 1 2 0 2 0 2 0 2 1 2 0 1 1 2 0 2 1 1 1 2 0 1 1 2 1 1 1 1 1 1 1 2 1 1 1 1 1 1 1 1 1 1 2 0 1 1 1 1 2 0 1 1 1 0 2 1 1 0 2 0 1 0 1 -19 2 -1 0 0 -1 0 0 0 -1 0 0 0 -1 0 0 0 0 -1 -1 0 0 0 -1 -1 0 0 0 0 -1 -1 0 0 -1 -1 0 0 -1 -1 0 -1 0 0 -1 -1 0 -1 0 -1 -1 -1 0 -1 0 -1 -1 -1 0 -1 0 -1 0 -2 -1 -1 0 1 0zm0 -20l0 0 0 0 0 0zm-109 129l-20 0 0 0 0 -7 1 -6 1 -7 1 -6 1 -6 2 -7 2 -5 2 -6 3 -6 3 -6 3 -5 3 -5 4 -5 4 -5 4 -5 4 -4 4 -4 5 -4 5 -4 5 -4 5 -3 5 -3 6 -3 6 -3 5 -2 6 -2 6 -2 7 -1 6 -1 6 -1 7 0 7 -1 0 20 -6 1 -6 0 -5 1 -5 1 -6 1 -5 1 -5 2 -5 2 -4 2 -5 2 -5 3 -4 3 -4 3 -4 3 -4 3 -4 4 -4 4 -3 4 -3 4 -3 4 -3 4 -3 5 -2 5 -2 4 -2 5 -2 5 -1 6 -2 5 0 5 -1 6 -1 5 0 6 0 0zm109 108l0 20 0 0 -7 0 -7 -1 -6 -1 -6 -1 -7 -1 -6 -2 -6 -2 -5 -2 -6 -3 -6 -3 -5 -3 -5 -3 -5 -4 -5 -3 -5 -4 -4 -5 -4 -4 -4 -5 -4 -5 -4 -5 -3 -5 -3 -5 -3 -6 -3 -5 -2 -6 -2 -6 -2 -6 -1 -7 -1 -6 -1 -6 -1 -7 0 -6 20 0 0 5 1 6 1 5 0 5 2 6 1 5 2 5 2 5 2 5 2 4 3 5 3 4 3 4 3 4 3 4 4 4 4 4 4 3 4 3 4 3 4 3 5 3 5 2 4 2 5 2 5 2 5 1 6 2 5 1 5 0 6 1 6 0 0 0zm108 -108l20 0 0 0 0 6 -1 7 -1 6 -1 6 -1 7 -2 6 -2 6 -2 6 -3 5 -3 6 -3 5 -3 5 -4 5 -4 5 -4 5 -4 4 -4 5 -5 4 -5 3 -5 4 -5 3 -5 3 -6 3 -6 3 -5 2 -6 2 -6 2 -7 1 -6 1 -6 1 -7 1 -6 0 0 -20 5 0 6 -1 5 0 5 -1 6 -2 5 -1 5 -2 5 -2 4 -2 5 -2 5 -3 4 -3 4 -3 4 -3 4 -3 4 -4 4 -4 3 -4 3 -4 3 -4 3 -4 3 -5 2 -4 2 -5 2 -5 2 -5 1 -5 2 -6 1 -5 0 -5 1 -6 0 -5 0 0zm-108 -109l0 -20 6 1 7 0 6 1 6 1 7 1 6 2 6 2 5 2 6 3 6 3 5 3 5 3 5 4 5 4 5 4 4 4 4 4 4 5 4 5 4 5 3 5 3 5 3 6 3 6 2 6 2 5 2 7 1 6 1 6 1 7 1 6 0 7 -20 0 0 -6 -1 -5 0 -6 -1 -5 -2 -5 -1 -6 -2 -5 -2 -5 -2 -4 -2 -5 -3 -5 -3 -4 -3 -4 -3 -4 -3 -4 -4 -4 -4 -4 -4 -3 -4 -3 -4 -3 -4 -3 -5 -3 -5 -2 -4 -2 -5 -2 -5 -2 -5 -1 -6 -1 -5 -1 -5 -1 -6 0 -5 -1zm-304 0l0 -20 0 0 2 1 2 0 2 0 2 0 2 1 2 0 1 1 2 0 2 1 1 1 2 0 1 1 1 1 2 1 1 1 1 1 2 1 1 1 1 1 1 1 1 1 1 2 0 1 1 1 1 2 0 1 1 1 0 2 1 1 0 2 0 1 0 1 -20 2 0 0 0 -1 0 0 0 -1 0 0 0 -1 0 0 0 0 -1 -1 0 0 0 -1 -1 0 0 0 0 -1 -1 0 0 -1 -1 0 0 -1 -1 0 -1 0 0 -1 -1 0 -1 0 -1 -1 -1 0 -1 0 -1 -1 -1 0 -1 0 -2 0 -1 -1 -1 0 1 0zm0 -20l0 0 0 0 0 0zm-109 129l-20 0 0 0 0 -7 1 -6 1 -7 1 -6 1 -6 2 -7 2 -5 2 -6 3 -6 3 -6 3 -5 3 -5 4 -5 4 -5 4 -5 4 -4 4 -4 5 -4 5 -4 5 -4 5 -3 5 -3 6 -3 6 -3 5 -2 6 -2 6 -2 7 -1 6 -1 6 -1 7 0 7 -1 0 20 -6 1 -6 0 -5 1 -5 1 -6 1 -5 1 -5 2 -5 2 -4 2 -5 2 -5 3 -4 3 -4 3 -4 3 -4 3 -4 4 -4 4 -3 4 -3 4 -3 4 -3 4 -3 5 -2 5 -2 4 -2 5 -2 5 -1 6 -2 5 0 5 -1 6 -1 5 0 6 0 0zm109 108l0 20 0 0 -7 0 -7 -1 -6 -1 -6 -1 -7 -1 -6 -2 -6 -2 -5 -2 -6 -3 -6 -3 -5 -3 -5 -3 -5 -4 -5 -3 -5 -4 -4 -5 -4 -4 -4 -5 -4 -5 -4 -5 -3 -5 -3 -5 -3 -6 -3 -5 -2 -6 -2 -6 -2 -6 -1 -7 -1 -6 -1 -6 -1 -7 0 -6 20 0 0 5 1 6 1 5 0 5 2 6 1 5 2 5 2 5 2 5 2 4 3 5 3 4 3 4 3 4 3 4 4 4 4 4 4 3 4 3 4 3 4 3 5 3 5 2 4 2 5 2 5 2 5 1 6 2 5 1 5 0 6 1 6 0 0 0zm108 -108l20 0 0 0 0 6 -1 7 -1 6 -1 6 -1 7 -2 6 -2 6 -2 6 -3 5 -3 6 -3 5 -3 5 -4 5 -4 5 -4 5 -4 4 -4 5 -5 4 -5 3 -5 4 -5 3 -5 3 -6 3 -6 3 -5 2 -6 2 -6 2 -7 1 -6 1 -6 1 -7 1 -6 0 0 -20 5 0 6 -1 5 0 5 -1 6 -2 5 -1 5 -2 5 -2 4 -2 5 -2 5 -3 4 -3 4 -3 4 -3 4 -3 4 -4 4 -4 3 -4 3 -4 3 -4 3 -4 3 -5 2 -4 2 -5 2 -5 2 -5 1 -5 2 -6 0 -5 1 -5 1 -6 0 -5 0 0zm-108 -109l0 -20 6 1 7 0 6 1 6 1 7 1 6 2 6 2 5 2 6 3 6 3 5 3 5 3 5 4 5 4 5 4 4 4 4 4 4 5 4 5 4 5 3 5 3 5 3 6 3 6 2 6 2 5 2 7 1 6 1 6 1 7 1 6 0 7 -20 0 0 -6 -1 -5 -1 -6 0 -5 -2 -5 -1 -6 -2 -5 -2 -5 -2 -4 -2 -5 -3 -5 -3 -4 -3 -4 -3 -4 -3 -4 -4 -4 -4 -4 -4 -3 -4 -3 -4 -3 -4 -3 -5 -3 -5 -2 -4 -2 -5 -2 -5 -2 -5 -1 -6 -1 -5 -1 -5 -1 -6 0 -5 -1zm480 188l0 -705 20 0 0 705 0 0 -20 0zm-108 128l0 -20 0 0 6 0 5 0 5 -1 6 -1 5 -1 5 -2 5 -1 5 -2 5 -2 4 -3 5 -2 4 -3 5 -3 4 -4 4 -3 3 -4 4 -3 3 -4 4 -4 3 -5 3 -4 2 -5 3 -4 2 -5 2 -5 1 -5 2 -5 1 -5 1 -6 1 -5 0 -5 0 -6 20 0 0 7 0 6 -1 6 -1 7 -2 6 -2 6 -2 6 -2 6 -2 6 -3 5 -3 5 -4 6 -3 5 -4 5 -4 4 -4 5 -5 4 -5 4 -4 4 -5 3 -6 4 -5 3 -5 3 -6 2 -6 2 -6 2 -6 2 -6 2 -7 1 -6 1 -6 0 -7 0 0 0zm-440 -20l440 0 0 20 -440 0 0 0 0 -20zm-128 -108l20 0 0 0 0 6 0 5 1 5 1 6 1 5 2 5 1 5 2 5 2 5 3 4 2 5 3 4 3 5 3 4 4 4 3 3 4 4 4 3 4 4 5 3 4 3 4 2 5 3 5 2 5 2 5 1 5 2 5 1 6 1 5 1 5 0 6 0 0 20 -7 0 -6 0 -7 -1 -6 -1 -6 -2 -6 -2 -6 -2 -6 -2 -6 -2 -5 -3 -5 -3 -6 -4 -5 -3 -5 -4 -4 -4 -5 -4 -4 -5 -4 -4 -4 -5 -3 -5 -4 -6 -3 -5 -3 -5 -2 -6 -2 -6 -3 -6 -1 -6 -2 -6 -1 -7 -1 -6 0 -6 0 -7 0 0zm20 -705l0 705 -20 0 0 -705 20 0zm102 102l0 20 0 0 -6 0 -6 -1 -7 0 -6 -2 -5 -1 -6 -2 -6 -1 -5 -3 -6 -2 -5 -3 -5 -3 -5 -3 -5 -3 -5 -4 -4 -4 -4 -4 -4 -4 -4 -5 -4 -4 -3 -5 -4 -5 -2 -5 -3 -5 -3 -6 -2 -5 -2 -6 -1 -6 -2 -6 -1 -6 -1 -6 0 -6 0 -6 20 0 0 5 0 5 1 5 1 5 1 5 1 5 2 5 2 4 2 5 2 4 3 5 2 4 3 4 3 4 3 3 4 4 3 3 4 4 4 3 4 2 4 3 4 3 5 2 4 2 5 2 5 1 5 2 4 1 6 1 5 0 5 1 5 0 0 0zm452 20l-452 0 0 -20 452 0 0 0 0 20zm122 -122l-20 0 20 0 0 6 0 6 -1 6 -1 6 -2 6 -1 6 -2 6 -2 5 -3 6 -3 5 -3 5 -3 5 -3 5 -4 4 -4 5 -4 4 -4 4 -4 4 -5 4 -5 3 -5 3 -5 3 -5 3 -6 2 -5 3 -6 1 -6 2 -6 1 -6 2 -6 0 -6 1 -6 0 0 -20 5 0 5 -1 5 0 5 -1 5 -1 5 -2 5 -1 5 -2 4 -2 5 -2 4 -3 4 -3 4 -2 4 -3 4 -4 3 -3 4 -4 3 -3 3 -4 3 -4 2 -4 3 -5 2 -4 2 -5 2 -4 2 -5 1 -5 1 -5 1 -5 1 -5 0 -5 0 -5 20 0zm-10 0l0 0 0 0 0 0 10 0 -10 0zm33 1040l0 -311 20 0 0 311 0 0 -20 0zm-138 157l0 -20 0 0 7 0 7 0 7 -1 7 -1 6 -2 7 -2 6 -2 6 -2 7 -3 6 -3 5 -4 6 -3 5 -4 5 -4 6 -5 4 -4 5 -5 4 -5 4 -5 4 -6 4 -5 3 -6 3 -6 3 -6 2 -6 3 -7 1 -6 2 -7 1 -6 1 -7 1 -7 0 -7 20 0 0 8 -1 8 -1 8 -1 7 -2 8 -2 7 -3 8 -3 7 -3 7 -3 7 -4 6 -4 7 -5 6 -4 6 -5 6 -6 5 -5 5 -6 5 -6 5 -6 4 -6 4 -7 4 -7 4 -7 3 -7 3 -7 2 -8 2 -7 2 -8 2 -8 1 -8 0 -8 0 0 0zm-477 -20l477 0 0 20 -477 0 0 0 0 -20zm-158 -137l20 0 0 0 1 7 0 7 1 7 1 6 2 7 2 6 2 7 2 6 3 6 3 6 3 6 4 5 4 6 4 5 4 5 5 5 5 4 5 5 5 4 5 4 6 3 6 4 6 3 6 3 6 2 6 2 7 2 7 2 6 1 7 1 7 0 7 0 0 20 -8 0 -8 0 -8 -1 -7 -2 -8 -2 -8 -2 -7 -2 -7 -3 -7 -3 -7 -4 -6 -4 -7 -4 -6 -4 -6 -5 -6 -5 -5 -5 -5 -5 -5 -6 -5 -6 -5 -6 -4 -7 -3 -6 -4 -7 -3 -7 -3 -7 -2 -8 -3 -7 -1 -8 -2 -7 -1 -8 0 -8 -1 -8 0 0zm20 -311l0 311 -20 0 0 -311 20 0zm123 123l0 20 0 0 -7 0 -7 -1 -7 -1 -7 -1 -7 -2 -7 -2 -7 -2 -6 -2 -6 -3 -7 -4 -6 -3 -5 -4 -6 -4 -5 -4 -6 -4 -5 -5 -4 -5 -5 -5 -4 -6 -4 -5 -4 -6 -3 -6 -3 -6 -3 -7 -3 -6 -2 -7 -2 -7 -2 -6 -1 -7 -1 -8 0 -7 -1 -7 20 0 1 6 0 6 1 6 1 6 1 6 2 6 2 6 2 6 3 5 2 5 3 5 4 5 3 5 4 5 4 4 4 5 4 4 4 4 5 3 5 4 5 3 5 3 5 3 6 2 5 2 6 2 6 2 6 1 6 1 6 1 6 1 6 0 0 0zm507 20l-507 0 0 -20 507 0 0 0 0 20zm143 -143l-20 0 20 0 0 7 -1 7 -1 8 -1 7 -2 6 -2 7 -2 7 -2 6 -3 7 -4 6 -3 6 -4 6 -4 5 -4 6 -4 5 -5 5 -5 5 -5 4 -6 4 -5 4 -6 4 -6 3 -6 4 -7 3 -6 2 -7 2 -7 2 -6 2 -8 1 -7 1 -7 1 -7 0 0 -20 6 0 6 -1 6 -1 6 -1 6 -1 6 -2 6 -2 6 -2 5 -2 5 -3 5 -3 5 -3 5 -4 5 -3 4 -4 5 -4 4 -5 4 -4 3 -5 4 -5 3 -5 3 -5 3 -5 2 -5 2 -6 2 -6 2 -6 1 -6 1 -6 1 -6 1 -6 0 -6 20 0zm-10 0l0 0 0 0 0 0 10 0 -10 0zm-141 -1070l-489 0 0 -20 489 0 0 0 0 20zm172 153l-20 0 0 0 0 -8 -1 -8 -1 -7 -1 -8 -2 -7 -2 -7 -2 -7 -3 -7 -3 -7 -3 -7 -4 -6 -4 -6 -4 -6 -5 -6 -4 -6 -5 -5 -6 -5 -5 -5 -6 -4 -6 -5 -6 -3 -7 -4 -6 -4 -7 -3 -7 -2 -7 -3 -7 -2 -8 -1 -7 -2 -8 -1 -8 0 -7 -1 0 -20 8 1 9 0 9 1 8 2 9 2 8 2 8 3 8 3 7 3 8 4 7 4 7 5 7 5 6 5 7 5 6 6 5 6 6 6 5 7 5 7 4 7 4 7 4 7 4 8 3 8 2 8 3 8 2 8 1 9 1 8 1 9 0 9 0 0zm-20 1239l0 -1239 20 0 0 1239 0 0 -20 0zm-152 173l0 -20 0 0 7 -1 8 0 8 -1 7 -1 8 -2 7 -2 7 -3 7 -2 7 -3 6 -4 7 -3 6 -4 6 -5 6 -4 5 -5 6 -5 5 -5 4 -6 5 -6 4 -6 4 -6 4 -6 3 -7 3 -7 3 -6 2 -8 2 -7 2 -7 1 -8 1 -7 1 -8 0 -8 20 0 0 9 -1 9 -1 8 -1 9 -2 8 -3 8 -2 8 -3 8 -4 8 -4 7 -4 8 -4 7 -5 6 -5 7 -6 6 -5 6 -6 6 -7 5 -6 5 -7 5 -7 5 -7 4 -8 4 -7 3 -8 3 -8 3 -8 2 -9 2 -8 2 -9 1 -9 0 -8 1 0 0zm-489 -20l489 0 0 20 -489 0 0 0 0 -20zm-172 -153l20 0 0 0 0 8 1 8 1 7 1 8 2 7 2 7 2 8 3 6 3 7 3 7 4 6 4 6 4 6 5 6 4 6 5 5 6 5 5 5 6 4 6 5 6 4 7 3 6 4 7 3 7 2 7 3 7 2 8 2 7 1 8 1 8 0 7 1 0 20 -8 -1 -9 0 -9 -1 -8 -2 -9 -2 -8 -2 -8 -3 -8 -3 -7 -3 -8 -4 -7 -4 -7 -5 -7 -5 -6 -5 -7 -5 -6 -6 -5 -6 -6 -6 -5 -7 -5 -6 -4 -7 -4 -8 -4 -7 -4 -8 -3 -8 -2 -8 -3 -8 -2 -8 -1 -9 -1 -8 -1 -9 0 -9 0 0zm20 -1239l0 1239 -20 0 0 -1239 0 0 20 0zm152 -173l0 20 0 0 -7 1 -8 0 -8 1 -7 2 -8 1 -7 2 -7 3 -7 2 -7 3 -6 4 -7 4 -6 3 -6 5 -6 4 -5 5 -6 5 -5 5 -4 6 -5 6 -4 6 -4 6 -4 6 -3 7 -3 7 -3 7 -2 7 -2 7 -2 7 -1 8 -1 7 -1 8 0 8 -20 0 0 -9 1 -9 1 -8 1 -9 2 -8 3 -8 2 -8 3 -8 4 -8 4 -7 4 -7 4 -7 5 -7 5 -7 6 -6 5 -6 6 -6 7 -5 6 -5 7 -5 7 -5 7 -4 8 -4 7 -3 8 -3 8 -3 8 -2 9 -2 8 -2 9 -1 9 0 8 -1 0 0zm1613 4620l-1897 0 0 -20 1897 0 0 0 0 20zm256 -275l20 0 0 0 0 14 -2 14 -1 13 -3 14 -3 13 -4 13 -4 13 -5 13 -5 12 -7 12 -6 11 -7 11 -8 11 -8 10 -9 10 -9 10 -10 9 -10 9 -10 8 -11 8 -11 7 -12 7 -12 6 -12 5 -12 5 -13 5 -13 3 -14 3 -13 3 -14 2 -14 1 -14 0 0 -20 13 0 13 -1 13 -2 12 -2 13 -3 12 -4 12 -4 11 -4 12 -5 11 -6 10 -6 11 -7 10 -7 9 -8 10 -8 9 -8 8 -9 8 -9 8 -10 7 -10 7 -10 6 -11 6 -11 5 -11 4 -12 4 -12 4 -12 3 -12 2 -13 2 -12 1 -13 0 -13 0 0zm20 -4170l0 4170 -20 0 0 -4170 0 0 20 0zm-268 -255l0 -20 1 0 13 1 14 1 13 2 14 3 12 3 13 4 13 5 12 5 12 6 11 6 11 7 11 7 11 8 10 8 9 9 10 9 9 9 8 10 8 10 7 11 7 11 7 12 6 11 5 12 5 13 4 12 4 13 2 13 3 13 2 14 1 13 0 14 -20 0 0 -13 -1 -12 -2 -13 -2 -12 -3 -12 -3 -12 -4 -12 -5 -11 -4 -11 -6 -11 -6 -11 -6 -10 -7 -10 -8 -9 -7 -9 -9 -9 -8 -9 -9 -8 -10 -7 -9 -8 -10 -6 -11 -7 -11 -5 -10 -6 -12 -4 -11 -5 -12 -3 -12 -3 -12 -3 -13 -2 -12 -1 -13 -1 0 0zm0 -20l1 0 0 0 -1 0zm-1716 0l1716 0 0 20 -1716 0 -1 -20 1 0zm-1 0l0 0 1 0 -1 0zm-247 275l-20 0 0 0 0 -14 1 -13 2 -14 3 -13 2 -13 4 -13 4 -12 5 -13 5 -12 6 -11 7 -12 7 -11 7 -11 8 -10 8 -10 9 -9 10 -9 9 -9 10 -8 11 -8 11 -7 11 -7 11 -6 12 -6 12 -5 13 -5 13 -4 12 -3 14 -3 13 -2 14 -1 13 -1 1 20 -13 1 -12 1 -13 2 -12 3 -12 3 -12 3 -11 5 -12 4 -11 6 -10 5 -11 7 -10 6 -9 8 -10 7 -9 8 -8 9 -9 9 -7 9 -8 9 -7 10 -6 10 -6 11 -6 11 -4 11 -5 11 -4 12 -3 12 -3 12 -2 12 -2 13 -1 12 0 13 0 0zm-20 1345l0 -1345 20 0 0 1345 -18 7 -2 -7zm2 7l-2 -3 0 -4 2 7zm27 31l-27 -31 16 -13 26 31 2 6 -17 7zm15 -13l2 2 0 4 -2 -6zm-18 562l0 -556 20 0 0 556 -1 5 -19 -5zm20 0l0 2 -1 3 1 -5zm-44 36l26 -42 17 11 -26 42 -19 -5 2 -6zm-2 6l0 -3 2 -3 -2 6zm0 2196l0 -2196 20 0 0 2196 0 0 -20 0zm276 255l0 20 -14 0 -14 -1 -14 -2 -13 -3 -14 -3 -13 -3 -13 -5 -12 -5 -12 -5 -12 -6 -12 -7 -11 -7 -11 -8 -10 -8 -10 -9 -10 -9 -9 -10 -9 -10 -8 -10 -8 -11 -7 -11 -6 -11 -7 -12 -5 -12 -5 -13 -4 -13 -4 -13 -3 -13 -3 -14 -1 -13 -2 -14 0 -14 20 0 0 13 1 13 2 12 2 13 3 12 4 12 4 12 4 12 5 11 6 11 6 11 7 10 7 10 8 10 8 9 8 9 9 8 10 8 9 8 10 7 11 7 10 6 11 6 12 5 11 4 12 4 12 4 13 3 12 2 13 2 13 1 13 0z"/>
  </g>
 </g>
</svg>
