<?xml version="1.0" encoding="UTF-8"?>
<!DOCTYPE svg PUBLIC "-//W3C//DTD SVG 1.1//EN" "http://www.w3.org/Graphics/SVG/1.1/DTD/svg11.dtd">
<!-- Creator: CorelDRAW X8 -->
<svg xmlns="http://www.w3.org/2000/svg" xml:space="preserve" width="40mm" height="60mm" version="1.1" style="shape-rendering:geometricPrecision; text-rendering:geometricPrecision; image-rendering:optimizeQuality; fill-rule:evenodd; clip-rule:evenodd"
viewBox="0 0 4000 6000"
 xmlns:xlink="http://www.w3.org/1999/xlink">
 <defs>
  <style type="text/css">
   <![CDATA[
    .str0 {stroke:black;stroke-width:7.62}
    .fil0 {fill:none}
   ]]>
  </style>
 </defs>
 <g id="图层_x0020_1">
  <metadata id="CorelCorpID_0Corel-Layer"/>
  <path class="fil0 str0" d="M-26980 2306c-21,1 -41,20 -44,59 0,138 112,250 250,250 138,0 250,-112 250,-250 0,-138 -112,-250 -250,-250 -138,0 -250,112 -250,250"/>
  <path class="fil0 str0" d="M-12353 14401c0,-265 585,-745 915,-745 330,0 600,-270 600,-600l0 -23100c0,-330 -270,-600 -600,-600l-15300 0c-330,0 -600,270 -600,600l0 23100c0,330 270,600 600,600l16120 0"/>
  <g id="_2771845459520">
   <path class="fil0 str0" d="M498 3080c-4,0 -7,4 -8,11 0,26 21,47 47,47 26,0 47,-21 47,-47 0,-26 -21,-47 -47,-47 -26,0 -47,21 -47,47"/>
   <path class="fil0 str0" d="M3243 5350c0,-50 110,-140 172,-140 62,0 113,-50 113,-112l0 -4335c0,-62 -51,-113 -113,-113l-2871 0c-62,0 -113,51 -113,113l0 4335c0,62 51,112 113,112l3025 0"/>
  </g>
 </g>
</svg>
