<?xml version="1.0" encoding="UTF-8"?>
<!DOCTYPE svg PUBLIC "-//W3C//DTD SVG 1.1//EN" "http://www.w3.org/Graphics/SVG/1.1/DTD/svg11.dtd">
<!-- Creator: CorelDRAW X8 -->
<svg xmlns="http://www.w3.org/2000/svg" xml:space="preserve" width="40mm" height="60mm" version="1.1" style="shape-rendering:geometricPrecision; text-rendering:geometricPrecision; image-rendering:optimizeQuality; fill-rule:evenodd; clip-rule:evenodd"
viewBox="0 0 4000 6000"
 xmlns:xlink="http://www.w3.org/1999/xlink">
 <defs>
  <style type="text/css">
   <![CDATA[
    .str0 {stroke:black;stroke-width:20}
    .fil0 {fill:none}
   ]]>
  </style>
 </defs>
 <g id="图层_x0020_1">
  <metadata id="CorelCorpID_0Corel-Layer"/>
  <path class="fil0 str0" d="M1168 650l672 0c5,0 8,2 10,7 7,14 21,24 38,24l44 0c4,0 6,1 6,4l0 26c0,34 28,62 62,62l0 0c34,0 62,-28 62,-62l0 -26c0,-3 1,-4 5,-4l45 0c18,0 33,-11 39,-27 1,-2 4,-4 6,-4l675 0c129,0 235,106 235,236l0 4228c0,130 -106,236 -235,236l-1664 0c-129,0 -235,-106 -235,-236l0 -4228c0,-130 106,-236 235,-236z"/>
 </g>
</svg>
