<?xml version="1.0" encoding="UTF-8"?>
<!DOCTYPE svg PUBLIC "-//W3C//DTD SVG 1.1//EN" "http://www.w3.org/Graphics/SVG/1.1/DTD/svg11.dtd">
<!-- Creator: CorelDRAW 2020 (64-Bit) -->
<svg xmlns="http://www.w3.org/2000/svg" xml:space="preserve" width="40mm" height="60mm" version="1.1" style="shape-rendering:geometricPrecision; text-rendering:geometricPrecision; image-rendering:optimizeQuality; fill-rule:evenodd; clip-rule:evenodd"
viewBox="0 0 4000 6000"
 xmlns:xlink="http://www.w3.org/1999/xlink"
 xmlns:xodm="http://www.corel.com/coreldraw/odm/2003">
 <defs>
  <style type="text/css">
   <![CDATA[
    .str1 {stroke:#332C2B;stroke-width:7.62;stroke-miterlimit:22.9256}
    .str0 {stroke:#E72D28;stroke-width:7.62;stroke-miterlimit:22.9256}
    .str2 {stroke:#222222;stroke-width:7.62;stroke-miterlimit:22.9256}
    .fil0 {fill:none}
   ]]>
  </style>
   <clipPath id="id0">
    <rect x="-32274.01" y="-6109.57" width="10948.41" height="17272.31"/>
   </clipPath>
 </defs>
 <g id="图层_x0020_1">
  <metadata id="CorelCorpID_0Corel-Layer"/>
  <g style="clip-path:url(#id0)">
   <image x="-32274.01" y="-6109.57" width="10948.41" height="17272.31" xlink:href="小米10青春版-11i（前膜半包）_Images\小米10青春版-11i（前膜半包）_ImgID1.png"/>
  </g>
  <path class="fil0 str0" d="M-22354.51 9737.78c0,495 -405,900 -900,900l-5407.5 0c-495,0 -900,-405 -900,-900l-683.95 0.03c-36.18,0 -65.77,-29.58 -65.77,-65.77l0 -13994.01c0,-36.19 29.58,-65.77 65.77,-65.78l683.95 -0.16c0,-495 405,-900 900,-900l1170.41 0c66.93,0 119.11,75.82 164.05,75.82l892.63 0c159,-1.32 177.66,104.22 177.66,165.37 0,165.12 133.86,298.98 298.98,298.98 165.12,0 298.98,-133.86 298.98,-298.98 0,-61.15 20,-165.37 152.53,-165.37l885.93 0c44.94,0 88.12,-75.82 153.73,-75.82l1212.6 0c495,0 900,405.03 900,900l683.99 0.16c36.3,0 65.98,29.69 65.98,65.97l0 13993.62c0,36.28 -29.69,65.97 -65.98,65.97l-683.99 -0.03z"/>
  <path class="fil0 str1" d="M-21881.8 -1359.93c-73.78,0 -134.14,60.36 -134.14,134.14l0 1805.47c0,73.78 60.36,134.14 134.14,134.14l0.02 0c73.78,0 134.14,-60.36 134.14,-134.14l0 -1805.47c0,-73.8 -60.37,-134.14 -134.16,-134.14 -73.79,0 -106.82,85.59 -107.65,108.74"/>
  <path class="fil0 str1" d="M-21881.79 1288.46c-73.78,0 -134.15,60.36 -134.15,134.14l0 665c0,73.78 60.37,134.14 134.15,134.14l0.01 0c73.78,0 134.14,-60.36 134.14,-134.14l0 -665c0,-73.79 -60.36,-134.14 -134.15,-134.14 -73.79,0 -104.86,75.13 -106.1,103.24"/>
  <path class="fil0 str2" d="M-2223.52 -501.44c495,0 900,405 900,900l0 5407.5c0,495 -405,900 -900,900l0.03 683.95c0,36.18 -29.58,65.77 -65.77,65.77l-13994.01 0c-36.19,0 -65.77,-29.58 -65.78,-65.77l-0.16 -683.95c-495,0 -900,-405 -900,-900l0 -1170.41c0,-66.93 75.82,-119.11 75.82,-164.05l0 -892.63c-1.32,-159 104.22,-177.66 165.37,-177.66 165.12,0 298.98,-133.86 298.98,-298.98 0,-165.12 -133.86,-298.98 -298.98,-298.98 -61.15,0 -165.37,-20 -165.37,-152.53l0 -885.93c0,-44.94 -75.82,-88.12 -75.82,-153.73l0 -1212.6c0,-495 405.03,-900 900,-900l0.16 -683.99c0,-36.3 29.69,-65.98 65.97,-65.98l13993.62 0c36.28,0 65.97,29.69 65.97,65.98l-0.03 683.99z"/>
  <path class="fil0 str2" d="M-13321.23 -974.15c0,73.78 60.36,134.14 134.14,134.14l1805.47 0c73.78,0 134.14,-60.36 134.14,-134.14l0 -0.02c0,-73.78 -60.36,-134.14 -134.14,-134.14l-1805.47 0c-73.8,0 -134.14,60.37 -134.14,134.16 0,73.79 85.59,106.82 108.74,107.65"/>
  <path class="fil0 str2" d="M-10672.84 -974.16c0,73.78 60.36,134.15 134.14,134.15l665 0c73.78,0 134.14,-60.37 134.14,-134.15l0 -0.01c0,-73.78 -60.36,-134.14 -134.14,-134.14l-665 0c-73.79,0 -134.14,60.36 -134.14,134.15 0,73.79 75.13,104.86 103.24,106.1"/>
  <g id="_1607774662368">
   <path class="fil0 str2" d="M3056.9 5090.06c0,146.08 -119.52,265.61 -265.61,265.61l-1595.86 0c-146.08,0 -265.61,-119.53 -265.61,-265.61l-201.85 0.01c-10.67,0 -19.41,-8.73 -19.41,-19.41l0 -4129.92c0,-10.68 8.73,-19.41 19.41,-19.42l201.85 -0.04c0,-146.09 119.53,-265.61 265.61,-265.61l345.41 0c19.75,0 35.15,22.37 48.42,22.37l263.43 0c46.92,-0.39 52.43,30.76 52.43,48.81 0,48.73 39.51,88.23 88.24,88.23 48.73,0 88.23,-39.5 88.23,-88.23 0,-18.05 5.9,-48.81 45.02,-48.81l261.45 0c13.26,0 26.01,-22.37 45.37,-22.37l357.86 0c146.09,0 265.61,119.53 265.61,265.61l201.86 0.04c10.71,0 19.47,8.77 19.47,19.47l0 4129.81c0,10.71 -8.76,19.47 -19.47,19.47l-201.86 -0.01z"/>
   <path class="fil0 str2" d="M3196.41 1814.9c-21.78,0 -39.59,17.81 -39.59,39.58l0 532.84c0,21.77 17.81,39.58 39.59,39.58l0 0c21.78,0 39.59,-17.81 39.59,-39.58l0 -532.84c0,-21.78 -17.81,-39.58 -39.59,-39.58 -21.78,0 -31.53,25.26 -31.77,32.09"/>
   <path class="fil0 str2" d="M3196.41 2596.49c-21.77,0 -39.59,17.81 -39.59,39.59l0 196.25c0,21.78 17.82,39.59 39.59,39.59l0 0c21.78,0 39.59,-17.81 39.59,-39.59l0 -196.25c0,-21.78 -17.81,-39.59 -39.59,-39.59 -21.78,0 -30.94,22.17 -31.31,30.47"/>
  </g>
 </g>
</svg>
