<?xml version="1.0" encoding="UTF-8"?>
<!DOCTYPE svg PUBLIC "-//W3C//DTD SVG 1.1//EN" "http://www.w3.org/Graphics/SVG/1.1/DTD/svg11.dtd">
<!-- Creator: CorelDRAW X8 -->
<svg xmlns="http://www.w3.org/2000/svg" xml:space="preserve" width="40mm" height="60mm" version="1.1" style="shape-rendering:geometricPrecision; text-rendering:geometricPrecision; image-rendering:optimizeQuality; fill-rule:evenodd; clip-rule:evenodd"
viewBox="0 0 4000 6000"
 xmlns:xlink="http://www.w3.org/1999/xlink">
 <defs>
  <style type="text/css">
   <![CDATA[
    .str0 {stroke:#332C2B;stroke-width:10}
    .fil0 {fill:none}
   ]]>
  </style>
 </defs>
 <g id="图层_x0020_1">
  <metadata id="CorelCorpID_0Corel-Layer"/>
  <path class="fil0 str0" d="M1969 761c-6,-23 -18,-41 -75,-41l-49 0c-25,0 -46,21 -46,46l0 0c0,26 21,47 46,47l315 0c26,0 46,-21 46,-47l0 0c0,-25 -20,-46 -46,-46l-266 0m505 32c1,-18 -20,-32 -28,-33 -27,0 -49,22 -49,50 0,27 22,49 49,49 28,0 50,-22 50,-49 0,-28 -22,-50 -50,-50m-1399 4631l1892 0c126,0 228,-103 228,-228l0 -4244c0,-125 -102,-228 -228,-228l-1728 0c-126,0 -228,103 -228,228l0 4244c0,125 102,228 228,228l269 0"/>
 </g>
</svg>
