<?xml version="1.0" encoding="UTF-8"?>
<!DOCTYPE svg PUBLIC "-//W3C//DTD SVG 1.1//EN" "http://www.w3.org/Graphics/SVG/1.1/DTD/svg11.dtd">
<!-- Creator: CorelDRAW X8 -->
<svg xmlns="http://www.w3.org/2000/svg" xml:space="preserve" width="40mm" height="60mm" version="1.1" style="shape-rendering:geometricPrecision; text-rendering:geometricPrecision; image-rendering:optimizeQuality; fill-rule:evenodd; clip-rule:evenodd"
viewBox="0 0 4000 6000"
 xmlns:xlink="http://www.w3.org/1999/xlink">
 <defs>
  <style type="text/css">
   <![CDATA[
    .str0 {stroke:#332C2B;stroke-width:20}
    .fil0 {fill:none}
   ]]>
  </style>
 </defs>
 <g id="图层_x0020_1">
  <metadata id="CorelCorpID_0Corel-Layer"/>
  <path class="fil0 str0" d="M1103 653l112 0 0 126c0,28 23,50 50,50l921 0c28,0 50,-22 50,-50 0,-36 0,-71 0,-107 3,-20 -1,-18 17,-19 110,0 220,0 331,0 17,2 20,-2 20,25l0 205c0,24 20,44 45,44l167 0c24,0 44,-20 44,-44 0,-70 0,-140 0,-210 5,-18 -1,-17 20,-20 6,-1 11,0 17,0 165,0 300,135 300,300l0 4345c0,27 -23,50 -50,50l-2294 0c-27,0 -50,-23 -50,-50l0 -4345c0,-165 135,-300 300,-300z"/>
 </g>
</svg>
