<?xml version="1.0" encoding="UTF-8"?>
<!DOCTYPE svg PUBLIC "-//W3C//DTD SVG 1.1//EN" "http://www.w3.org/Graphics/SVG/1.1/DTD/svg11.dtd">
<!-- Creator: CorelDRAW X8 -->
<svg xmlns="http://www.w3.org/2000/svg" xml:space="preserve" width="40mm" height="60mm" version="1.1" style="shape-rendering:geometricPrecision; text-rendering:geometricPrecision; image-rendering:optimizeQuality; fill-rule:evenodd; clip-rule:evenodd"
viewBox="0 0 4000 6000"
 xmlns:xlink="http://www.w3.org/1999/xlink">
 <defs>
  <style type="text/css">
   <![CDATA[
    .fil0 {fill:#332C2B;fill-rule:nonzero}
   ]]>
  </style>
 </defs>
 <g id="图层_x0020_1">
  <metadata id="CorelCorpID_0Corel-Layer"/>
  <g id="_2233012963760">
   <polygon class="fil0" points="1290,5043 1290,5043 1293,5044 1293,5043 1298,5044 1300,5043 1833,5043 1833,5049 1303,5049 1303,5049 1300,5049 1300,5051 1288,5049 "/>
   <path class="fil0" d="M1833 5043c23,2 44,13 59,29 16,16 27,38 29,62 1,8 2,19 3,32 0,12 0,26 0,40 0,39 -2,64 -10,84 -8,19 -21,33 -42,47 -1,1 -1,1 -2,2 0,0 -1,1 -1,2 -7,9 -8,9 -408,9l0 -6c398,0 398,0 403,-7l0 0c0,-1 1,-2 2,-2 0,-1 1,-2 2,-3 21,-13 33,-26 41,-45 7,-18 9,-43 9,-81 0,-14 0,-28 0,-40 -1,-12 -2,-23 -3,-32 -2,-22 -12,-42 -27,-58 -15,-15 -34,-25 -56,-27l1 -6z"/>
   <polygon class="fil0" points="1461,5350 676,5350 676,5343 1461,5344 "/>
   <path class="fil0" d="M676 5350c-14,-1 -27,-6 -39,-13 -11,-8 -22,-18 -32,-32 -8,-11 -13,-20 -16,-34 -2,-14 -3,-32 -3,-63 0,-52 1,-82 7,-102 6,-21 17,-32 37,-46l4 5c-19,13 -29,24 -35,43 -6,19 -7,49 -7,100 0,30 1,49 3,62 3,13 7,21 15,32 9,13 19,23 31,30 11,7 23,11 35,11l0 7z"/>
   <polygon class="fil0" points="630,5060 632,5059 636,5063 634,5065 "/>
   <path class="fil0" d="M632 5059c25,-18 25,-18 223,-17l0 6c-196,-1 -196,-1 -219,16l-4 -5z"/>
   <polygon class="fil0" points="855,5042 1350,5043 1350,5049 855,5048 "/>
   <path class="fil0" d="M1684 5132c18,0 35,8 46,20 12,12 20,28 20,46 0,19 -8,35 -20,47 -11,12 -28,19 -46,19 -18,0 -35,-7 -47,-19 -12,-12 -19,-28 -19,-47 0,-18 7,-34 19,-46 12,-12 29,-20 47,-20zm42 24c-11,-11 -26,-17 -42,-17 -17,0 -32,6 -42,17 -11,11 -18,26 -18,42 0,17 7,32 18,43 10,10 25,17 42,17 16,0 31,-7 42,-17 11,-11 18,-26 18,-43 0,-16 -7,-31 -18,-42z"/>
   <polygon class="fil0" points="2780,5043 2780,5043 2782,5044 2783,5043 2787,5044 2789,5043 3322,5043 3322,5049 2793,5049 2793,5049 2790,5049 2789,5051 2778,5049 "/>
   <path class="fil0" d="M3322 5043c23,2 44,13 60,29 16,16 26,38 29,62 1,8 2,19 2,32 1,12 1,26 1,40 0,39 -2,64 -10,84 -8,19 -21,33 -43,47 0,1 -1,1 -1,2 -1,0 -1,1 -2,2 -6,9 -7,9 -407,9l0 -6c397,0 398,0 402,-7l0 0c1,-1 1,-2 2,-2 1,-1 2,-2 3,-3 20,-13 33,-26 40,-45 8,-18 10,-43 10,-81 0,-14 0,-28 -1,-40 0,-12 -1,-23 -2,-32 -3,-22 -13,-42 -28,-58 -14,-15 -34,-25 -55,-27l0 -6z"/>
   <polygon class="fil0" points="2951,5350 2165,5350 2165,5343 2951,5344 "/>
   <path class="fil0" d="M2165 5350c-13,-1 -26,-6 -38,-13 -12,-8 -23,-18 -33,-32 -8,-11 -12,-20 -15,-34 -3,-14 -3,-32 -3,-63 0,-52 1,-82 7,-102 6,-21 17,-32 37,-46l3 5c-18,13 -29,24 -35,43 -5,19 -6,49 -6,100 0,30 0,49 3,62 2,13 7,21 14,32 9,13 20,23 31,30 11,7 23,11 35,11l0 7z"/>
   <polygon class="fil0" points="2120,5060 2122,5059 2125,5063 2124,5065 "/>
   <path class="fil0" d="M2122 5059c24,-18 24,-18 222,-17l0 6c-196,-1 -196,-1 -219,16l-3 -5z"/>
   <polygon class="fil0" points="2344,5042 2839,5043 2839,5049 2344,5048 "/>
   <path class="fil0" d="M3173 5132c18,0 35,8 47,20 12,12 19,28 19,46 0,19 -7,35 -19,47 -12,12 -29,19 -47,19 -18,0 -34,-7 -46,-19 -12,-12 -20,-28 -20,-47 0,-18 8,-34 20,-46 12,-12 28,-20 46,-20zm42 24c-10,-11 -25,-17 -42,-17 -16,0 -31,6 -42,17 -11,11 -17,26 -17,42 0,17 6,32 17,43 11,10 26,17 42,17 17,0 32,-7 42,-17 11,-11 18,-26 18,-43 0,-16 -7,-31 -18,-42z"/>
   <polygon class="fil0" points="1290,3945 1290,3945 1293,3946 1293,3946 1298,3947 1300,3945 1833,3945 1833,3951 1303,3951 1303,3951 1300,3951 1300,3953 1288,3951 "/>
   <path class="fil0" d="M1833 3945c23,2 44,13 59,29 16,16 27,38 29,62 1,8 2,20 3,32 0,13 0,26 0,40 0,39 -2,64 -10,84 -8,20 -21,33 -42,48 -1,0 -1,0 -2,1 0,0 -1,1 -1,2 -7,9 -8,9 -408,9l0 -6c398,0 398,0 403,-7l0 0c0,-1 1,-1 2,-2 0,-1 1,-2 2,-2 21,-14 33,-27 41,-45 7,-19 9,-44 9,-82 0,-14 0,-28 0,-40 -1,-12 -2,-23 -3,-32 -2,-22 -12,-42 -27,-58 -15,-15 -34,-25 -56,-27l1 -6z"/>
   <polygon class="fil0" points="1461,4252 676,4252 676,4246 1461,4246 "/>
   <path class="fil0" d="M676 4252c-14,-1 -27,-6 -39,-13 -11,-7 -22,-18 -32,-31 -8,-12 -13,-21 -16,-35 -2,-14 -3,-32 -3,-62 0,-53 1,-83 7,-103 6,-21 17,-32 37,-46l4 5c-19,14 -29,24 -35,43 -6,19 -7,49 -7,101 0,30 1,48 3,61 3,13 7,21 15,32 9,13 19,23 31,30 11,7 23,11 35,12l0 6z"/>
   <polygon class="fil0" points="630,3962 632,3961 636,3966 634,3967 "/>
   <path class="fil0" d="M632 3961c25,-18 25,-18 223,-17l0 6c-196,-1 -196,-1 -219,16l-4 -5z"/>
   <polygon class="fil0" points="855,3944 1350,3945 1350,3951 855,3950 "/>
   <path class="fil0" d="M1684 4035c18,0 35,7 46,19 12,12 20,28 20,47 0,18 -8,34 -20,46 -11,12 -28,20 -46,20 -18,0 -35,-8 -47,-20 -12,-12 -19,-28 -19,-46 0,-19 7,-35 19,-47 12,-12 29,-19 47,-19zm42 23c-11,-10 -26,-17 -42,-17 -17,0 -32,7 -42,17 -11,11 -18,26 -18,43 0,16 7,31 18,42 10,11 25,17 42,17 16,0 31,-6 42,-17 11,-11 18,-26 18,-42 0,-17 -7,-32 -18,-43z"/>
   <polygon class="fil0" points="1290,2848 1290,2847 1293,2848 1293,2848 1298,2849 1300,2847 1833,2847 1833,2853 1303,2853 1303,2853 1300,2853 1300,2855 1288,2853 "/>
   <path class="fil0" d="M1833 2847c23,2 44,13 59,29 16,16 27,38 29,62 1,9 2,20 3,32 0,13 0,26 0,40 0,39 -2,64 -10,84 -8,20 -21,33 -42,48 -1,0 -1,1 -2,1 0,1 -1,1 -1,2 -7,9 -8,9 -408,9l0 -6c398,0 398,0 403,-6l0 0c0,-1 1,-2 2,-3 0,-1 1,-2 2,-2 21,-14 33,-27 41,-45 7,-19 9,-44 9,-82 0,-14 0,-27 0,-40 -1,-12 -2,-23 -3,-31 -2,-23 -12,-43 -27,-58 -15,-16 -34,-26 -56,-28l1 -6z"/>
   <polygon class="fil0" points="1461,3154 676,3154 676,3148 1461,3148 "/>
   <path class="fil0" d="M676 3154c-14,-1 -27,-5 -39,-13 -11,-7 -22,-18 -32,-31 -8,-12 -13,-21 -16,-35 -2,-13 -3,-32 -3,-62 0,-53 1,-82 7,-103 6,-21 17,-31 37,-46l4 5c-19,14 -29,24 -35,43 -6,20 -7,49 -7,101 0,30 1,48 3,61 3,13 7,22 15,32 9,13 19,23 31,30 11,7 23,11 35,12l0 6z"/>
   <polygon class="fil0" points="630,2864 632,2863 636,2868 634,2869 "/>
   <path class="fil0" d="M632 2863c25,-18 25,-18 223,-17l0 6c-196,-1 -196,-1 -219,16l-4 -5z"/>
   <polygon class="fil0" points="855,2846 1350,2847 1350,2853 855,2852 "/>
   <path class="fil0" d="M1684 2937c18,0 35,7 46,19 12,12 20,28 20,47 0,18 -8,34 -20,46 -11,12 -28,20 -46,20 -18,0 -35,-8 -47,-20 -12,-12 -19,-28 -19,-46 0,-19 7,-35 19,-47 12,-12 29,-19 47,-19zm42 23c-11,-10 -26,-17 -42,-17 -17,0 -32,7 -42,17 -11,11 -18,26 -18,43 0,16 7,31 18,42 10,11 25,17 42,17 16,0 31,-6 42,-17 11,-11 18,-26 18,-42 0,-17 -7,-32 -18,-43z"/>
   <polygon class="fil0" points="1290,1750 1290,1750 1293,1750 1293,1750 1298,1751 1300,1749 1833,1750 1833,1756 1303,1755 1303,1755 1300,1755 1300,1757 1288,1755 "/>
   <path class="fil0" d="M1833 1750c23,2 44,12 59,28 16,17 27,38 29,62 1,9 2,20 3,32 0,13 0,27 0,40 0,39 -2,65 -10,84 -8,20 -21,33 -42,48 -1,0 -1,1 -2,1 0,1 -1,1 -1,2 -7,10 -8,10 -408,9l0 -6c398,0 398,0 403,-6l0 0c0,-1 1,-2 2,-3 0,-1 1,-1 2,-2 21,-14 33,-27 41,-45 7,-19 9,-44 9,-82 0,-14 0,-27 0,-40 -1,-12 -2,-23 -3,-31 -2,-23 -12,-43 -27,-58 -15,-15 -34,-25 -56,-27l1 -6z"/>
   <polygon class="fil0" points="1461,2056 676,2056 676,2050 1461,2050 "/>
   <path class="fil0" d="M676 2056c-14,-1 -27,-5 -39,-13 -11,-7 -22,-18 -32,-31 -8,-11 -13,-20 -16,-35 -2,-13 -3,-32 -3,-62 0,-53 1,-82 7,-103 6,-20 17,-31 37,-46l4 5c-19,14 -29,24 -35,43 -6,20 -7,49 -7,101 0,30 1,48 3,61 3,13 7,22 15,32 9,13 19,23 31,30 11,7 23,11 35,12l0 6z"/>
   <polygon class="fil0" points="630,1766 632,1765 636,1770 634,1771 "/>
   <path class="fil0" d="M632 1765c25,-17 25,-17 223,-17l0 6c-196,0 -196,0 -219,16l-4 -5z"/>
   <polygon class="fil0" points="855,1748 1350,1749 1350,1755 855,1754 "/>
   <path class="fil0" d="M1684 1839c18,0 35,7 46,19 12,12 20,29 20,47 0,18 -8,35 -20,46 -11,12 -28,20 -46,20 -18,0 -35,-8 -47,-20 -12,-11 -19,-28 -19,-46 0,-18 7,-35 19,-47 12,-12 29,-19 47,-19zm42 24c-11,-11 -26,-18 -42,-18 -17,0 -32,7 -42,18 -11,10 -18,25 -18,42 0,16 7,31 18,42 10,11 25,18 42,18 16,0 31,-7 42,-18 11,-11 18,-26 18,-42 0,-17 -7,-32 -18,-42z"/>
   <polygon class="fil0" points="1290,652 1290,652 1293,652 1293,652 1298,653 1300,651 1833,652 1833,658 1303,657 1303,657 1300,657 1300,659 1288,657 "/>
   <path class="fil0" d="M1833 652c23,2 44,12 59,29 16,16 27,37 29,61 1,9 2,20 3,32 0,13 0,27 0,40 0,39 -2,65 -10,84 -8,20 -21,33 -42,48 -1,0 -1,1 -2,1 0,1 -1,1 -1,2 -7,10 -8,10 -408,9l0 -6c398,1 398,1 403,-6l0 0c0,-1 1,-2 2,-3 0,-1 1,-1 2,-2 21,-14 33,-27 41,-45 7,-19 9,-44 9,-82 0,-14 0,-27 0,-39 -1,-13 -2,-24 -3,-32 -2,-23 -12,-43 -27,-58 -15,-15 -34,-25 -56,-27l1 -6z"/>
   <polygon class="fil0" points="1461,958 676,958 676,952 1461,952 "/>
   <path class="fil0" d="M676 958c-14,-1 -27,-5 -39,-13 -11,-7 -22,-18 -32,-31 -8,-11 -13,-20 -16,-34 -2,-14 -3,-33 -3,-63 0,-52 1,-82 7,-103 6,-20 17,-31 37,-46l4 5c-19,14 -29,24 -35,43 -6,20 -7,49 -7,101 0,30 1,48 3,61 3,13 7,22 15,32 9,13 19,23 31,30 11,7 23,11 35,12l0 6z"/>
   <polygon class="fil0" points="630,668 632,667 636,672 634,673 "/>
   <path class="fil0" d="M632 667c25,-17 25,-17 223,-17l0 6c-196,0 -196,0 -219,16l-4 -5z"/>
   <polygon class="fil0" points="855,650 1350,651 1350,657 855,656 "/>
   <path class="fil0" d="M1684 741c18,0 35,7 46,19 12,12 20,29 20,47 0,18 -8,35 -20,47 -11,12 -28,19 -46,19 -18,0 -35,-7 -47,-19 -12,-12 -19,-29 -19,-47 0,-18 7,-35 19,-47 12,-12 29,-19 47,-19zm42 24c-11,-11 -26,-18 -42,-18 -17,0 -32,7 -42,18 -11,11 -18,25 -18,42 0,16 7,31 18,42 10,11 25,18 42,18 16,0 31,-7 42,-18 11,-11 18,-26 18,-42 0,-17 -7,-31 -18,-42z"/>
   <polygon class="fil0" points="2780,3945 2780,3945 2782,3946 2783,3946 2787,3947 2789,3945 3322,3945 3322,3951 2793,3951 2793,3951 2790,3951 2789,3953 2778,3951 "/>
   <path class="fil0" d="M3322 3945c23,2 44,13 60,29 16,16 26,38 29,62 1,8 2,20 2,32 1,13 1,26 1,40 0,39 -2,64 -10,84 -8,20 -21,33 -43,48 0,0 -1,0 -1,1 -1,0 -1,1 -2,2 -6,9 -7,9 -407,9l0 -6c397,0 398,0 402,-7l0 0c1,-1 1,-1 2,-2 1,-1 2,-2 3,-2 20,-14 33,-27 40,-45 8,-19 10,-44 10,-82 0,-14 0,-28 -1,-40 0,-12 -1,-23 -2,-32 -3,-22 -13,-42 -28,-58 -14,-15 -34,-25 -55,-27l0 -6z"/>
   <polygon class="fil0" points="2951,4252 2165,4252 2165,4246 2951,4246 "/>
   <path class="fil0" d="M2165 4252c-13,-1 -26,-6 -38,-13 -12,-7 -23,-18 -33,-31 -8,-12 -12,-21 -15,-35 -3,-14 -3,-32 -3,-62 0,-53 1,-83 7,-103 6,-21 17,-32 37,-46l3 5c-18,14 -29,24 -35,43 -5,19 -6,49 -6,101 0,30 0,48 3,61 2,13 7,21 14,32 9,13 20,23 31,30 11,7 23,11 35,12l0 6z"/>
   <polygon class="fil0" points="2120,3962 2122,3961 2125,3966 2124,3967 "/>
   <path class="fil0" d="M2122 3961c24,-18 24,-18 222,-17l0 6c-196,-1 -196,-1 -219,16l-3 -5z"/>
   <polygon class="fil0" points="2344,3944 2839,3945 2839,3951 2344,3950 "/>
   <path class="fil0" d="M3173 4035c18,0 35,7 47,19 12,12 19,28 19,47 0,18 -7,34 -19,46 -12,12 -29,20 -47,20 -18,0 -34,-8 -46,-20 -12,-12 -20,-28 -20,-46 0,-19 8,-35 20,-47 12,-12 28,-19 46,-19zm42 23c-10,-10 -25,-17 -42,-17 -16,0 -31,7 -42,17 -11,11 -17,26 -17,43 0,16 6,31 17,42 11,11 26,17 42,17 17,0 32,-6 42,-17 11,-11 18,-26 18,-42 0,-17 -7,-32 -18,-43z"/>
   <polygon class="fil0" points="2780,2848 2780,2847 2782,2848 2783,2848 2787,2849 2789,2847 3322,2847 3322,2853 2793,2853 2793,2853 2790,2853 2789,2855 2778,2853 "/>
   <path class="fil0" d="M3322 2847c23,2 44,13 60,29 16,16 26,38 29,62 1,9 2,20 2,32 1,13 1,26 1,40 0,39 -2,64 -10,84 -8,20 -21,33 -43,48 0,0 -1,1 -1,1 -1,1 -1,1 -2,2 -6,9 -7,9 -407,9l0 -6c397,0 398,0 402,-6l0 0c1,-1 1,-2 2,-3 1,-1 2,-2 3,-2 20,-14 33,-27 40,-45 8,-19 10,-44 10,-82 0,-14 0,-27 -1,-40 0,-12 -1,-23 -2,-31 -3,-23 -13,-43 -28,-58 -14,-16 -34,-26 -55,-28l0 -6z"/>
   <polygon class="fil0" points="2951,3154 2165,3154 2165,3148 2951,3148 "/>
   <path class="fil0" d="M2165 3154c-13,-1 -26,-5 -38,-13 -12,-7 -23,-18 -33,-31 -8,-12 -12,-21 -15,-35 -3,-13 -3,-32 -3,-62 0,-53 1,-82 7,-103 6,-21 17,-31 37,-46l3 5c-18,14 -29,24 -35,43 -5,20 -6,49 -6,101 0,30 0,48 3,61 2,13 7,22 14,32 9,13 20,23 31,30 11,7 23,11 35,12l0 6z"/>
   <polygon class="fil0" points="2120,2864 2122,2863 2125,2868 2124,2869 "/>
   <path class="fil0" d="M2122 2863c24,-18 24,-18 222,-17l0 6c-196,-1 -196,-1 -219,16l-3 -5z"/>
   <polygon class="fil0" points="2344,2846 2839,2847 2839,2853 2344,2852 "/>
   <path class="fil0" d="M3173 2937c18,0 35,7 47,19 12,12 19,28 19,47 0,18 -7,34 -19,46 -12,12 -29,20 -47,20 -18,0 -34,-8 -46,-20 -12,-12 -20,-28 -20,-46 0,-19 8,-35 20,-47 12,-12 28,-19 46,-19zm42 23c-10,-10 -25,-17 -42,-17 -16,0 -31,7 -42,17 -11,11 -17,26 -17,43 0,16 6,31 17,42 11,11 26,17 42,17 17,0 32,-6 42,-17 11,-11 18,-26 18,-42 0,-17 -7,-32 -18,-43z"/>
   <polygon class="fil0" points="2780,1750 2780,1750 2782,1750 2783,1750 2787,1751 2789,1749 3322,1750 3322,1756 2793,1755 2793,1755 2790,1755 2789,1757 2778,1755 "/>
   <path class="fil0" d="M3322 1750c23,2 44,12 60,28 16,17 26,38 29,62 1,9 2,20 2,32 1,13 1,27 1,40 0,39 -2,65 -10,84 -8,20 -21,33 -43,48 0,0 -1,1 -1,1 -1,1 -1,1 -2,2 -6,10 -7,10 -407,9l0 -6c397,0 398,0 402,-6l0 0c1,-1 1,-2 2,-3 1,-1 2,-1 3,-2 20,-14 33,-27 40,-45 8,-19 10,-44 10,-82 0,-14 0,-27 -1,-40 0,-12 -1,-23 -2,-31 -3,-23 -13,-43 -28,-58 -14,-15 -34,-25 -55,-27l0 -6z"/>
   <polygon class="fil0" points="2951,2056 2165,2056 2165,2050 2951,2050 "/>
   <path class="fil0" d="M2165 2056c-13,-1 -26,-5 -38,-13 -12,-7 -23,-18 -33,-31 -8,-11 -12,-20 -15,-35 -3,-13 -3,-32 -3,-62 0,-53 1,-82 7,-103 6,-20 17,-31 37,-46l3 5c-18,14 -29,24 -35,43 -5,20 -6,49 -6,101 0,30 0,48 3,61 2,13 7,22 14,32 9,13 20,23 31,30 11,7 23,11 35,12l0 6z"/>
   <polygon class="fil0" points="2120,1766 2122,1765 2125,1770 2124,1771 "/>
   <path class="fil0" d="M2122 1765c24,-17 24,-17 222,-17l0 6c-196,0 -196,0 -219,16l-3 -5z"/>
   <polygon class="fil0" points="2344,1748 2839,1749 2839,1755 2344,1754 "/>
   <path class="fil0" d="M3173 1839c18,0 35,7 47,19 12,12 19,29 19,47 0,18 -7,35 -19,46 -12,12 -29,20 -47,20 -18,0 -34,-8 -46,-20 -12,-11 -20,-28 -20,-46 0,-18 8,-35 20,-47 12,-12 28,-19 46,-19zm42 24c-10,-11 -25,-18 -42,-18 -16,0 -31,7 -42,18 -11,10 -17,25 -17,42 0,16 6,31 17,42 11,11 26,18 42,18 17,0 32,-7 42,-18 11,-11 18,-26 18,-42 0,-17 -7,-32 -18,-42z"/>
   <polygon class="fil0" points="2780,652 2780,652 2782,652 2783,652 2787,653 2789,651 3322,652 3322,658 2793,657 2793,657 2790,657 2789,659 2778,657 "/>
   <path class="fil0" d="M3322 652c23,2 44,12 60,29 16,16 26,37 29,61 1,9 2,20 2,32 1,13 1,27 1,40 0,39 -2,65 -10,84 -8,20 -21,33 -43,48 0,0 -1,1 -1,1 -1,1 -1,1 -2,2 -6,10 -7,10 -407,9l0 -6c397,1 398,1 402,-6l0 0c1,-1 1,-2 2,-3 1,-1 2,-1 3,-2 20,-14 33,-27 40,-45 8,-19 10,-44 10,-82 0,-14 0,-27 -1,-39 0,-13 -1,-24 -2,-32 -3,-23 -13,-43 -28,-58 -14,-15 -34,-25 -55,-27l0 -6z"/>
   <polygon class="fil0" points="2951,958 2165,958 2165,952 2951,952 "/>
   <path class="fil0" d="M2165 958c-13,-1 -26,-5 -38,-13 -12,-7 -23,-18 -33,-31 -8,-11 -12,-20 -15,-34 -3,-14 -3,-33 -3,-63 0,-52 1,-82 7,-103 6,-20 17,-31 37,-46l3 5c-18,14 -29,24 -35,43 -5,20 -6,49 -6,101 0,30 0,48 3,61 2,13 7,22 14,32 9,13 20,23 31,30 11,7 23,11 35,12l0 6z"/>
   <polygon class="fil0" points="2120,668 2122,667 2125,672 2124,673 "/>
   <path class="fil0" d="M2122 667c24,-17 24,-17 222,-17l0 6c-196,0 -196,0 -219,16l-3 -5z"/>
   <polygon class="fil0" points="2344,650 2839,651 2839,657 2344,656 "/>
   <path class="fil0" d="M3173 741c18,0 35,7 47,19 12,12 19,29 19,47 0,18 -7,35 -19,47 -12,12 -29,19 -47,19 -18,0 -34,-7 -46,-19 -12,-12 -20,-29 -20,-47 0,-18 8,-35 20,-47 12,-12 28,-19 46,-19zm42 24c-10,-11 -25,-18 -42,-18 -16,0 -31,7 -42,18 -11,11 -17,25 -17,42 0,16 6,31 17,42 11,11 26,18 42,18 17,0 32,-7 42,-18 11,-11 18,-26 18,-42 0,-17 -7,-31 -18,-42z"/>
  </g>
 </g>
</svg>
