<?xml version="1.0" encoding="UTF-8"?>
<!DOCTYPE svg PUBLIC "-//W3C//DTD SVG 1.1//EN" "http://www.w3.org/Graphics/SVG/1.1/DTD/svg11.dtd">
<!-- Creator: CorelDRAW -->
<svg xmlns="http://www.w3.org/2000/svg" xml:space="preserve" width="40mm" height="60mm" style="shape-rendering:geometricPrecision; text-rendering:geometricPrecision; image-rendering:optimizeQuality; fill-rule:evenodd; clip-rule:evenodd"
viewBox="0 0 40 60"
 xmlns:xlink="http://www.w3.org/1999/xlink">
 <defs>
  <style type="text/css">
   <![CDATA[
    .str0 {stroke:#1F1A17;stroke-width:0.194}
    .fil0 {fill:none;fill-rule:nonzero}
   ]]>
  </style>
 </defs>
 <g id="图层_x0020_1">
  <metadata id="CorelCorpID_0Corel-Layer"/>
  <g id="_287433632">
   <line id="_287252640" class="fil0 str0" x1="20.8029" y1="9.2476" x2="20.8101" y2= "9.3349" />
   <path id="_287252448" class="fil0 str0" d="M20.8101 9.3349c-0.0205,-0.0061 -0.0257,-0.0082 -0.0514,-0.0143 -0.0267,-0.0299 -0.0298,-0.035 -0.0432,-0.073"/>
   <line id="_287252064" class="fil0 str0" x1="20.7155" y1="9.2476" x2="19.3346" y2= "9.2383" />
   <path id="_287251104" class="fil0 str0" d="M19.3346 9.2383c-0.4226,-0.0031 -0.62,0.0154 -0.7393,0.0679 -0.1193,0.0524 -0.1624,0.1398 -0.1624,0.3269 0,0.1862 0.0411,0.2664 0.1604,0.3168 0.1182,0.0503 0.3156,0.0688 0.7742,0.074 0.5193,0.0061 0.3897,0.0051 0.909,0.0061 0.7763,0.0011 1.0467,-0.0133 1.1496,-0.0606 0.1295,-0.0607 0.2066,-0.1841 0.2066,-0.3321 0,-0.3424 -0.1573,-0.4093 -0.9655,-0.4103"/>
   <line id="_287250864" class="fil0 str0" x1="20.6672" y1="9.227" x2="20.6138" y2= "9.227" />
   <path id="_287250408" class="fil0 str0" d="M20.6138 9.227c-0.1461,0 -0.1944,0.001 -0.2468,0.0072 -0.0689,0.0072 -0.1214,0.0216 -0.1728,0.0473 -0.0925,0.0463 -0.1625,0.1059 -0.4544,0.3835"/>
   <line id="_287250288" class="fil0 str0" x1="19.7398" y1="9.665" x2="19.6811" y2= "9.7216" />
   <line id="_242610856" class="fil0 str0" x1="15.9137" y1="9.3576" x2="15.8478" y2= "9.408" />
   <path id="_242610880" class="fil0 str0" d="M15.8478 9.408c-0.0123,-0.0309 -0.0154,-0.0422 -0.0154,-0.0659 0,-0.0051 0,-0.0123 0.001,-0.0215"/>
   <line id="_46434728" class="fil0 str0" x1="15.8334" y1="9.3206" x2="15.8694" y2= "9.2774" />
   <path id="_46435112" class="fil0 str0" d="M15.8694 9.2774c-0.1275,-0.1913 -0.3228,-0.3003 -0.5398,-0.3003 -0.3753,0 -0.656,0.2736 -0.656,0.6386 0,0.3783 0.2776,0.6683 0.6385,0.6683 0.3671,0 0.6674,-0.2971 0.6674,-0.6601 0,-0.256 -0.1471,-0.4689 -0.3229,-0.4689 -0.1193,0 -0.1604,0.0247 -0.5738,0.3404"/>
   <line id="_46434920" class="fil0 str0" x1="29.3795" y1="51.1906" x2="29.3137" y2= "51.242" />
   <path id="_287247768" class="fil0 str0" d="M29.3137 51.242c-0.0041,-0.0092 -0.0093,-0.0164 -0.0144,-0.0226"/>
   <polyline id="_242613904" class="fil0 str0" points="29.2993,51.2194 29.2993,51.1978 29.2921,51.1906 12.1246,51.1875 "/>
   <path id="_242613808" class="fil0 str0" d="M12.1246 51.1875c-1.0961,-0.0494 -2.1346,-1.0714 -2.1727,-2.1408"/>
   <line id="_242613448" class="fil0 str0" x1="9.9519" y1="49.0467" x2="9.8953" y2= "29.5965" />
   <path id="_46434056" class="fil0 str0" d="M9.8953 29.5965c-0.0185,-6.3772 -0.0174,-12.7544 0.0031,-19.1325 0.0422,-0.7321 0.2951,-1.3501 0.7321,-1.7882 0.3825,-0.3835 1.0026,-0.6693 1.4786,-0.6827"/>
   <line id="_287037016" class="fil0 str0" x1="12.1091" y1="7.9931" x2="28.0253" y2= "7.9962" />
   <path id="_287036944" class="fil0 str0" d="M28.0253 7.9962c0.4565,0.036 1.0725,0.3311 1.4097,0.6755 0.3763,0.3846 0.6653,1.0016 0.6828,1.4612"/>
   <line id="_287037136" class="fil0 str0" x1="30.1178" y1="10.1329" x2="30.0448" y2= "44.3415" />
   <path id="_287037160" class="fil0 str0" d="M30.0448 44.3415c-0.0072,3.1526 0.0071,4.3237 0.0586,4.7597 0.002,0.0185 0.003,0.0339 0.003,0.0463 0,0.3383 -0.3393,1.0303 -0.6652,1.3583 -0.3877,0.3887 -0.8761,0.6067 -1.5105,0.6745 -0.0607,0.0072 -0.1111,0.0144 -0.1511,0.0237 -0.3774,0.0874 -0.5512,0.2858 -0.7034,0.803"/>
  </g>
 </g>
</svg>
