<?xml version="1.0" encoding="UTF-8"?>
<!DOCTYPE svg PUBLIC "-//W3C//DTD SVG 1.1//EN" "http://www.w3.org/Graphics/SVG/1.1/DTD/svg11.dtd">
<!-- Creator: CorelDRAW -->
<svg xmlns="http://www.w3.org/2000/svg" xml:space="preserve" width="40mm" height="60mm" style="shape-rendering:geometricPrecision; text-rendering:geometricPrecision; image-rendering:optimizeQuality; fill-rule:evenodd; clip-rule:evenodd"
viewBox="0 0 40 60"
 xmlns:xlink="http://www.w3.org/1999/xlink">
 <defs>
  <style type="text/css">
   <![CDATA[
    .str0 {stroke:#1F1A17;stroke-width:0.2}
    .fil0 {fill:none}
   ]]>
  </style>
 </defs>
 <g id="图层_x0020_1">
  <metadata id="CorelCorpID_0Corel-Layer"/>
  <path class="fil0 str0" d="M11.1702 6.9421l-0.0001 0.7837c-0.0088,0.6249 0.4021,0.8171 0.9393,0.8197l13.5291 0.0676c0.4318,0.0022 0.871,-0.2025 0.8751,-0.6869l0.008 -0.9557c-0.0067,-0.3729 0.3319,-0.4629 0.63,-0.4581l1.7601 0.0289c1.1921,0.0195 2.2028,0.879 2.2002,2.0708l-0.097 42.7201c-0.0027,1.192 -0.9759,2.1721 -2.1679,2.1678l-17.7264 -0.0647c-1.1921,-0.0043 -2.2343,-0.9108 -2.2325,-2.1031l0.0647 -42.7201c0.0014,-0.9457 0.6143,-1.7591 1.4626,-2.0518 0.0631,-0.0217 0.1215,-0.0378 0.1875,-0.0475 0.234,-0.0344 0.3918,0.001 0.4814,0.0986 0.0881,0.096 0.0859,0.2106 0.0859,0.3307z"/>
 </g>
</svg>
