<?xml version="1.0" encoding="UTF-8"?>
<!DOCTYPE svg PUBLIC "-//W3C//DTD SVG 1.1//EN" "http://www.w3.org/Graphics/SVG/1.1/DTD/svg11.dtd">
<!-- Creator: CorelDRAW X8 -->
<svg xmlns="http://www.w3.org/2000/svg" xml:space="preserve" width="40mm" height="60mm" version="1.1" style="shape-rendering:geometricPrecision; text-rendering:geometricPrecision; image-rendering:optimizeQuality; fill-rule:evenodd; clip-rule:evenodd"
viewBox="0 0 4000 6000"
 xmlns:xlink="http://www.w3.org/1999/xlink">
 <defs>
  <style type="text/css">
   <![CDATA[
    .str0 {stroke:black;stroke-width:10}
    .fil0 {fill:none}
   ]]>
  </style>
 </defs>
 <g id="图层_x0020_1">
  <metadata id="CorelCorpID_0Corel-Layer"/>
  <path class="fil0 str0" d="M1070 5324l1763 0c107,0 194,-88 194,-194l0 -4286c0,-107 -87,-194 -194,-194l-423 0 -324 0c-13,0 -23,11 -23,24l0 24c0,33 -27,60 -60,60l0 0c-33,0 -60,-27 -60,-60l0 -24c0,-13 -10,-24 -23,-24l-324 0 -429 0c-107,0 -194,87 -194,194l0 4286c0,106 87,194 194,194l49 0c77,0 128,13 153,26"/>
 </g>
</svg>
