<?xml version="1.0" encoding="UTF-8"?>
<!DOCTYPE svg PUBLIC "-//W3C//DTD SVG 1.1//EN" "http://www.w3.org/Graphics/SVG/1.1/DTD/svg11.dtd">
<!-- Creator: CorelDRAW 2020 (64-Bit) -->
<svg xmlns="http://www.w3.org/2000/svg" xml:space="preserve" width="40mm" height="60mm" version="1.1" style="shape-rendering:geometricPrecision; text-rendering:geometricPrecision; image-rendering:optimizeQuality; fill-rule:evenodd; clip-rule:evenodd"
viewBox="0 0 4000 6000"
 xmlns:xlink="http://www.w3.org/1999/xlink"
 xmlns:xodm="http://www.corel.com/coreldraw/odm/2003">
 <defs>
  <style type="text/css">
   <![CDATA[
    .str1 {stroke:#332C2B;stroke-width:7.62;stroke-miterlimit:22.9256}
    .str0 {stroke:#332C2B;stroke-width:7.62;stroke-miterlimit:22.9256}
    .fil0 {fill:none}
   ]]>
  </style>
 </defs>
 <g id="图层_x0020_1">
  <metadata id="CorelCorpID_0Corel-Layer"/>
  <path class="fil0 str0" d="M-5216 7789.08l0.04 -622.87c432.57,0 796.32,-360.01 796.32,-800l0 -5655.94c0,-439.98 -363.77,-800 -796.32,-800l-0.04 -516.21c0,-27.49 -22.4,-50 -50.09,-50l-11633.1 0 0 346.27c0,55 -44.99,99.99 -99.99,99.99l-1911.39 0c-55,0 -99.99,-44.99 -99.99,-99.99l0 -346.27 -1215.62 0c-27.7,0 -50.09,22.5 -50.09,50l0 516.18c-432.57,0 -797.34,360.03 -797.34,800.03l0 5655.94c0,440 364.77,799.96 797.34,799.96l0 542.71c0,27.5 22.39,50 50.09,50l3344.93 0 0 -424.48c0,-55 44.99,-99.99 99.99,-99.99l2186.56 0c55,0 99.99,44.99 99.99,99.99l0 424.48 373.65 0 0 -424.48c0,-55 44.99,-99.99 99.99,-99.99l1088.54 0c55,0 99.99,44.99 99.99,99.99l0 424.48 7566.45 0c27.7,0 50.09,-22.51 50.09,-50 0,-27.49 2.32,-82.16 32.09,-118.88"/>
  <path class="fil0 str1" d="M-20225.62 6216.14l0 -0.01c0,-220.29 180.23,-400.52 400.52,-400.52l2569.06 0c220.29,0 400.52,180.23 400.52,400.52l0 0.01c0,220.29 -180.23,400.52 -400.52,400.52l-2569.06 0c-220.29,0 -400.52,-180.23 -400.52,-400.52z"/>
  <path class="fil0 str1" d="M-20387.8 6222.19l0 0c0,-300.37 245.74,-546.11 546.1,-546.11l2598.9 0c300.36,0 546.1,245.74 546.1,546.11l0 0c0,300.35 -245.74,546.09 -546.1,546.09l-2598.9 0c-300.36,0 -546.1,-245.74 -546.1,-546.09z"/>
  <path class="fil0 str1" d="M-20062.95 6226.41c0,115.07 93.29,208.36 208.36,208.36 115.07,0 208.36,-93.29 208.36,-208.36 0,-115.07 -93.29,-208.36 -208.36,-208.36 -115.07,0 -208.36,93.29 -208.36,208.36 0,115.07 100.6,110.95 107.88,111.61"/>
  <path class="fil0 str1" d="M-19161.36 6226.41c0,-140.95 114.28,-255.23 255.23,-255.23 140.95,0 255.23,114.28 255.23,255.23 0,140.95 -114.28,255.23 -255.23,255.23 -140.95,0 -255.23,-114.28 -255.23,-255.23"/>
  <path class="fil0 str1" d="M-18199.5 6226.41c0,115.07 93.29,208.36 208.36,208.36 115.07,0 208.36,-93.29 208.36,-208.36 0,-115.07 -93.29,-208.36 -208.36,-208.36 -115.07,0 -208.36,93.29 -208.36,208.36 0,115.07 134.76,127 146,123.69"/>
  <path class="fil0 str1" d="M-17539.47 6226.41c0,153.38 124.35,277.73 277.73,277.73 153.38,0 277.73,-124.35 277.73,-277.73 0,-153.38 -124.35,-277.73 -277.73,-277.73 -153.38,0 -277.73,124.35 -277.73,277.73 0,153.38 173.89,174.6 212.25,169.96"/>
  <path class="fil0 str1" d="M-18050.09 3537.9c0,375.89 304.75,680.64 680.64,680.64 375.89,0 680.64,-304.75 680.64,-680.64 0,-375.89 -304.75,-680.64 -680.64,-680.64 -375.89,0 -680.64,304.75 -680.64,680.64 0,375.89 520.14,369.05 644.5,333.33"/>
  <g id="_1509601493168">
   <path class="fil0 str0" d="M801.74 5130.93l175.79 0.01c0,122.08 101.6,224.73 225.77,224.73l1596.19 0c124.17,0 225.77,-102.66 225.77,-224.73l145.68 -0.01c7.76,0 14.12,-6.32 14.12,-14.14l0 -3283.03 -97.73 0c-15.52,0 -28.22,-12.7 -28.22,-28.22l0 -539.43c0,-15.52 12.7,-28.21 28.22,-28.21l97.73 0 0 -343.07c0,-7.82 -6.35,-14.14 -14.12,-14.14l-145.67 0c0,-122.08 -101.61,-225.02 -225.78,-225.02l-1596.19 0c-124.17,0 -225.76,102.94 -225.76,225.02l-153.16 0c-7.76,0 -14.11,6.32 -14.11,14.14l0 943.99 119.79 0c15.52,0 28.22,12.7 28.22,28.22l0 617.08c0,15.52 -12.7,28.22 -28.22,28.22l-119.79 0 0 105.45 119.79 0c15.52,0 28.22,12.69 28.22,28.21l0 307.21c0,15.52 -12.7,28.21 -28.22,28.21l-119.79 0 0 2135.37c0,7.82 6.35,14.14 14.11,14.14 7.76,0 23.19,0.65 33.55,9.05"/>
   <path class="fil0 str1" d="M1245.65 894.99l0 0c62.17,0 113.04,50.86 113.04,113.03l0 725.03c0,62.17 -50.87,113.03 -113.04,113.03l0 0c-62.17,0 -113.03,-50.86 -113.03,-113.03l0 -725.03c0,-62.17 50.86,-113.03 113.03,-113.03z"/>
   <path class="fil0 str1" d="M1243.94 849.22l0 0c84.77,0 154.12,69.35 154.12,154.11l0 733.45c0,84.77 -69.35,154.12 -154.12,154.12l0 0c-84.76,0 -154.11,-69.35 -154.11,-154.12l0 -733.45c0,-84.76 69.35,-154.11 154.11,-154.11z"/>
   <path class="fil0 str1" d="M1242.75 940.89c-32.47,0 -58.8,26.33 -58.8,58.81 0,32.47 26.33,58.8 58.8,58.8 32.48,0 58.81,-26.33 58.81,-58.8 0,-32.48 -26.33,-58.81 -58.81,-58.81 -32.47,0 -31.31,28.4 -31.49,30.45"/>
   <path class="fil0 str1" d="M1242.75 1195.34c39.78,0 72.03,32.25 72.03,72.03 0,39.77 -32.25,72.03 -72.03,72.03 -39.77,0 -72.03,-32.26 -72.03,-72.03 0,-39.78 32.26,-72.03 72.03,-72.03"/>
   <path class="fil0 str1" d="M1242.75 1466.79c-32.47,0 -58.8,26.33 -58.8,58.8 0,32.48 26.33,58.8 58.8,58.8 32.48,0 58.81,-26.32 58.81,-58.8 0,-32.47 -26.33,-58.8 -58.81,-58.8 -32.47,0 -35.84,38.03 -34.9,41.2"/>
   <path class="fil0 str1" d="M1242.75 1653.06c-43.28,0 -78.38,35.09 -78.38,78.38 0,43.28 35.1,78.38 78.38,78.38 43.29,0 78.38,-35.1 78.38,-78.38 0,-43.29 -35.09,-78.38 -78.38,-78.38 -43.28,0 -49.27,49.07 -47.96,59.9"/>
   <path class="fil0 str1" d="M2001.49 1508.95c-106.08,0 -192.09,86.01 -192.09,192.09 0,106.08 86.01,192.09 192.09,192.09 106.08,0 192.09,-86.01 192.09,-192.09 0,-106.08 -86.01,-192.09 -192.09,-192.09 -106.08,0 -104.15,146.8 -94.07,181.89"/>
  </g>
 </g>
</svg>
