<?xml version="1.0" encoding="UTF-8"?>
<!DOCTYPE svg PUBLIC "-//W3C//DTD SVG 1.1//EN" "http://www.w3.org/Graphics/SVG/1.1/DTD/svg11.dtd">
<!-- Creator: CorelDRAW X8 -->
<svg xmlns="http://www.w3.org/2000/svg" xml:space="preserve" width="40mm" height="60mm" version="1.1" style="shape-rendering:geometricPrecision; text-rendering:geometricPrecision; image-rendering:optimizeQuality; fill-rule:evenodd; clip-rule:evenodd"
viewBox="0 0 4000 6000"
 xmlns:xlink="http://www.w3.org/1999/xlink">
 <defs>
  <style type="text/css">
   <![CDATA[
    .str0 {stroke:black;stroke-width:7.62}
    .fil0 {fill:none}
   ]]>
  </style>
 </defs>
 <g id="图层_x0020_1">
  <metadata id="CorelCorpID_0Corel-Layer"/>
  <path class="fil0 str0" d="M2546 865c-4,-12 -8,-21 -30,-21l-17 0c-25,0 -45,20 -45,44l0 0c0,25 20,45 45,45l89 0c25,0 45,-20 45,-45l0 0c0,-24 -20,-44 -45,-44l-72 0m-138 2c0,-4 -3,-7 -10,-8 -25,0 -45,20 -45,45 0,25 20,45 45,45 24,0 44,-20 44,-45 0,-25 -20,-45 -44,-45m-438 48c-4,-16 -13,-28 -50,-28l-32 0c-17,0 -30,14 -30,31l0 0c0,17 13,30 30,30l324 0c17,0 31,-13 31,-30l0 0c0,-17 -14,-31 -31,-31l-292 0m-182 -16c0,-5 -5,-9 -14,-10 -31,0 -57,26 -57,58 0,31 26,57 57,57 32,0 58,-26 58,-57 0,-32 -26,-58 -58,-58m-742 4518l2009 0c98,0 179,-81 179,-179l0 -4342c0,-98 -81,-179 -179,-179l-1902 0c-98,0 -179,81 -179,179l0 4342c0,98 81,179 179,179l64 0"/>
 </g>
</svg>
