<?xml version="1.0" encoding="UTF-8"?>
<!DOCTYPE svg PUBLIC "-//W3C//DTD SVG 1.1//EN" "http://www.w3.org/Graphics/SVG/1.1/DTD/svg11.dtd">
<!-- Creator: CorelDRAW X8 -->
<svg xmlns="http://www.w3.org/2000/svg" xml:space="preserve" width="40mm" height="60mm" version="1.1" style="shape-rendering:geometricPrecision; text-rendering:geometricPrecision; image-rendering:optimizeQuality; fill-rule:evenodd; clip-rule:evenodd"
viewBox="0 0 4000 6000"
 xmlns:xlink="http://www.w3.org/1999/xlink">
 <defs>
  <style type="text/css">
   <![CDATA[
    .str0 {stroke:#332C2B;stroke-width:7.62}
    .fil0 {fill:none}
   ]]>
  </style>
 </defs>
 <g id="Слой_x0020_1">
  <metadata id="CorelCorpID_0Corel-Layer"/>
  <path class="fil0 str0" d="M862 5235l0 -4353c0,-102 84,-177 186,-186 635,-56 1273,-64 1908,-6 101,9 182,90 182,192l0 4224c0,102 -95,182 -196,193 -635,66 -1253,69 -1887,3 -102,-10 -193,-94 -193,-196l0 -49m1703 -4293l0 0c0,40 -33,72 -73,72l-619 0c-40,0 -72,-32 -72,-72l0 0c0,-40 32,-72 72,-72l619 0c40,0 73,32 73,72z"/>
 </g>
</svg>
