<?xml version="1.0" encoding="UTF-8"?>
<!DOCTYPE svg PUBLIC "-//W3C//DTD SVG 1.1//EN" "http://www.w3.org/Graphics/SVG/1.1/DTD/svg11.dtd">
<!-- Creator: CorelDRAW X8 -->
<svg xmlns="http://www.w3.org/2000/svg" xml:space="preserve" width="40mm" height="60mm" version="1.1" style="shape-rendering:geometricPrecision; text-rendering:geometricPrecision; image-rendering:optimizeQuality; fill-rule:evenodd; clip-rule:evenodd"
viewBox="0 0 4000 6000"
 xmlns:xlink="http://www.w3.org/1999/xlink">
 <defs>
  <style type="text/css">
   <![CDATA[
    .str0 {stroke:#332C2B;stroke-width:19.4}
    .fil0 {fill:none;fill-rule:nonzero}
   ]]>
  </style>
 </defs>
 <g id="图层_x0020_1">
  <metadata id="CorelCorpID_0Corel-Layer"/>
  <path class="fil0 str0" d="M3066 650l0 31m-4 4587l0 9m0 0c-5,-2 -8,-4 -10,-10m0 0l-1907 0m0 0c-94,-10 -175,-81 -198,-174m0 0l-3 -9m0 0c-5,-16 -5,-16 -5,-152m0 0l-5 -4057m0 0c8,-126 90,-219 199,-225m0 0l1745 1m0 0c95,9 171,84 187,182m0 0l1 42 -9 2845m0 0c-1,446 8,893 8,1336 0,65 -55,148 -122,184 -33,18 -71,28 -109,28 -67,0 -98,19 -131,82m-1515 -4539l-4 8 -4 -4m0 0c0,-2 0,-3 0,-5 0,-1 0,-2 0,-4m0 0l4 -3 6 -1m0 0c0,-4 0,-8 0,-12 0,-41 -29,-71 -70,-71 -42,0 -73,31 -73,72 0,41 32,72 73,72 39,0 71,-32 71,-71 0,-22 -11,-33 -33,-33 -11,0 -19,1 -92,12"/>
 </g>
</svg>
