<?xml version="1.0" encoding="UTF-8"?>
<!DOCTYPE svg PUBLIC "-//W3C//DTD SVG 1.1//EN" "http://www.w3.org/Graphics/SVG/1.1/DTD/svg11.dtd">
<!-- Creator: CorelDRAW X8 -->
<svg xmlns="http://www.w3.org/2000/svg" xml:space="preserve" width="40mm" height="60mm" version="1.1" style="shape-rendering:geometricPrecision; text-rendering:geometricPrecision; image-rendering:optimizeQuality; fill-rule:evenodd; clip-rule:evenodd"
viewBox="0 0 4000 6000"
 xmlns:xlink="http://www.w3.org/1999/xlink">
 <defs>
  <style type="text/css">
   <![CDATA[
    .str0 {stroke:#222222;stroke-width:20}
    .fil0 {fill:none}
   ]]>
  </style>
 </defs>
 <g id="图层_x0020_1">
  <metadata id="CorelCorpID_0Corel-Layer"/>
  <path class="fil0 str0" d="M-23679 259c463,-63 921,-101 1382,-183 -508,176 -707,487 -727,1023l-5 0c-252,-31 -430,-3 -680,22l0 2778 0 2745c267,27 407,56 682,27l5 0 0 35c29,544 264,828 773,995l-1433 -195 -12 698 17587 0 -20 -693 -1370 175c518,-221 713,-477 713,-1020 277,34 416,5 685,-22l0 -5520c-267,-27 -405,-57 -680,-23 -32,-580 -255,-890 -770,-1035l1422 188 25 -690 -8827 0 -8770 0 20 695z"/>
  <path class="fil0 str0" d="M-22459 5025l0 1538c23,275 174,417 445,447l3210 0c272,-30 422,-171 445,-447l0 -1538c-23,-277 -173,-415 -445,-445l-3210 0c-271,30 -421,168 -445,445z"/>
  <path class="fil0 str0" d="M-22364 5088l0 1415c23,250 160,387 410,410l3100 0c258,-24 380,-159 410,-410l0 -1415c-30,-251 -152,-387 -410,-410l-3100 0c-250,22 -387,159 -410,410z"/>
  <path class="fil0 str0" d="M-21632 6463c-38,0 -348,-55 -348,-235 0,-179 146,-325 325,-325 180,0 325,146 325,325 0,180 -145,325 -325,325 -179,0 -325,-145 -325,-325"/>
  <path class="fil0 str0" d="M-20372 6463c-38,0 -348,-55 -348,-235 0,-179 146,-325 325,-325 180,0 325,146 325,325 0,180 -145,325 -325,325 -179,0 -325,-145 -325,-325"/>
  <path class="fil0 str0" d="M-19092 6463c-38,0 -348,-55 -348,-235 0,-179 146,-325 325,-325 180,0 325,146 325,325 0,180 -145,325 -325,325 -179,0 -325,-145 -325,-325"/>
  <path class="fil0 str0" d="M-21593 5122c0,158 -191,218 -272,218 -81,0 -147,-66 -147,-147l0 0c0,-81 66,-147 147,-147l400 0c81,0 147,66 147,147l0 0c0,81 -66,147 -147,147l-400 0"/>
  <rect class="fil0 str0" transform="matrix(1.07289E-13 -4.05099 2.7449 7.26973E-14 -6530.43 6469.15)" width="83.93" height="58.29" rx="291" ry="291"/>
  <rect class="fil0 str0" transform="matrix(1.07289E-13 -4.05099 2.7449 7.26973E-14 -6530.43 6054.07)" width="83.93" height="58.29" rx="291" ry="291"/>
  <rect class="fil0 str0" transform="matrix(1.07289E-13 -4.05099 2.7449 7.26973E-14 -6530.43 5653.88)" width="83.93" height="58.29" rx="291" ry="291"/>
  <rect class="fil0 str0" transform="matrix(2.87155E-13 -10.8424 5.35478 1.41819E-13 -6611.9 4357.36)" width="83.93" height="58.29" rx="291" ry="291"/>
  <rect class="fil0 str0" transform="matrix(1.03606E-13 -3.91195 2.96586 7.85494E-14 -6536.87 2865.98)" width="83.93" height="58.29" rx="291" ry="291"/>
  <circle class="fil0 str0" transform="matrix(2.57599E-14 -0.972639 0.972639 2.57599E-14 -6463.65 1694.79)" r="236"/>
  <rect class="fil0 str0" x="-17524" y="7747" width="1569" height="350" rx="5450" ry="1749"/>
  <rect class="fil0 str0" x="-16616" y="-297" width="1197" height="215" rx="4156" ry="1075"/>
  <rect class="fil0 str0" x="-17955" y="-297" width="1197" height="215" rx="4156" ry="1075"/>
  <path class="fil0 str0" d="M-19463 -64l-1448 0c-71,0 -128,-58 -128,-128l0 0c0,-70 57,-128 128,-128l1448 0c35,0 66,14 89,36l119 0c50,0 91,42 91,92l0 0c0,50 -41,91 -91,91l-119 0c-23,23 -54,37 -89,37z"/>
  <g id="_1831730350976">
   <path class="fil0 str0" d="M2967 658c17,124 27,246 49,369 -47,-136 -130,-189 -273,-194l0 -2c9,-67 1,-114 -6,-181l-741 0 -733 0c-7,71 -15,109 -7,182l0 1 -9 0c-145,8 -221,71 -266,207l52 -383 -186 -3 0 4694 185 -5 -47 -366c59,138 128,190 272,190 -9,74 -1,111 6,183l1474 0c7,-71 15,-108 6,-181 154,-9 237,-68 276,-206l-50 380 184 6 0 -2356 0 -2340 -186 5z"/>
   <path class="fil0 str0" d="M1695 984l-410 0c-73,6 -111,46 -119,119l0 856c8,73 45,113 119,119l410 0c74,-6 111,-46 119,-119l0 -856c-8,-73 -45,-113 -119,-119z"/>
   <path class="fil0 str0" d="M1679 1009l-378 0c-67,6 -103,43 -109,110l0 827c6,69 42,101 109,109l378 0c67,-8 103,-40 109,-109l0 -827c-6,-67 -42,-104 -109,-110z"/>
   <path class="fil0 str0" d="M1312 1204c0,-10 14,-92 62,-92 48,0 87,38 87,86 0,48 -39,87 -87,87 -48,0 -86,-39 -86,-87 0,-48 38,-86 86,-86"/>
   <path class="fil0 str0" d="M1312 1541c0,-11 14,-93 62,-93 48,0 87,39 87,87 0,48 -39,86 -87,86 -48,0 -86,-38 -86,-86 0,-48 38,-87 86,-87"/>
   <path class="fil0 str0" d="M1312 1882c0,-10 14,-92 62,-92 48,0 87,38 87,86 0,48 -39,87 -87,87 -48,0 -86,-39 -86,-87 0,-48 38,-86 86,-86"/>
   <path class="fil0 str0" d="M1670 1215c-43,0 -59,-51 -59,-73 0,-21 18,-39 40,-39l0 0c21,0 39,18 39,39l0 107c0,22 -18,39 -39,39l0 0c-22,0 -40,-17 -40,-39l0 -107"/>
   <rect class="fil0 str0" x="1310" y="5235" width="90.7438" height="42.703" rx="315" ry="214"/>
   <rect class="fil0 str0" x="1421" y="5235" width="90.7438" height="42.703" rx="315" ry="214"/>
   <rect class="fil0 str0" x="1528" y="5235" width="90.7438" height="42.703" rx="315" ry="214"/>
   <rect class="fil0 str0" x="1874" y="5213" width="242.873" height="83.3056" rx="843" ry="417"/>
   <rect class="fil0 str0" x="2272" y="5233" width="87.6292" height="46.1406" rx="304" ry="231"/>
   <circle class="fil0 str0" cx="2584" cy="5253" r="61"/>
   <rect class="fil0 str0" transform="matrix(8.58672E-14 -4.99037 1.60122 6.52743E-14 875.61 2719.57)" width="83.93" height="58.29" rx="291" ry="291"/>
   <rect class="fil0 str0" transform="matrix(5.27858E-14 -3.80561 0.984333 4.97777E-14 3058.55 2862.56)" width="83.93" height="58.29" rx="291" ry="291"/>
   <rect class="fil0 str0" transform="matrix(5.27858E-14 -3.80561 0.984333 4.97777E-14 3058.55 2505.07)" width="83.93" height="58.29" rx="291" ry="291"/>
   <path class="fil0 str0" d="M3054 1783l0 -386c0,-19 15,-34 34,-34l0 0c19,0 34,15 34,34l0 386c0,10 -4,18 -10,24l0 32c0,13 -11,24 -24,24l0 0c-14,0 -25,-11 -25,-24l0 -32c-6,-6 -9,-14 -9,-24z"/>
  </g>
 </g>
</svg>
