<?xml version="1.0" encoding="UTF-8"?>
<!DOCTYPE svg PUBLIC "-//W3C//DTD SVG 1.1//EN" "http://www.w3.org/Graphics/SVG/1.1/DTD/svg11.dtd">
<!-- Creator: CorelDRAW 2020 (64-Bit) -->
<svg xmlns="http://www.w3.org/2000/svg" xml:space="preserve" width="40mm" height="60mm" version="1.1" style="shape-rendering:geometricPrecision; text-rendering:geometricPrecision; image-rendering:optimizeQuality; fill-rule:evenodd; clip-rule:evenodd"
viewBox="0 0 4000 6000"
 xmlns:xlink="http://www.w3.org/1999/xlink"
 xmlns:xodm="http://www.corel.com/coreldraw/odm/2003">
 <defs>
  <style type="text/css">
   <![CDATA[
    .str0 {stroke:#332C2B;stroke-width:20;stroke-miterlimit:22.9256}
    .fil0 {fill:none}
   ]]>
  </style>
 </defs>
 <g id="图层_x0020_1">
  <metadata id="CorelCorpID_0Corel-Layer"/>
  <path class="fil0 str0" d="M932.3 895.66l0 4209.74c0,49.87 12.48,97.7 37.5,135.1 7.78,11.64 15.95,23.94 25.63,34.4 31.74,34.28 94.85,75.63 159.49,75.63l1675.9 0c85.33,0 174.7,-68.2 204.79,-147.9 11.01,-29.16 17.83,-60.06 17.83,-99.73l0 -4204.74c0,-39.67 -6.82,-70.57 -17.83,-99.73 -19.75,-52.3 -62.8,-97.01 -112.2,-122.93 -21.63,-11.35 -59.76,-24.97 -92.59,-24.97l-1675.9 0c-66.68,0 -130.32,40.43 -170.67,89.47 -34.67,42.13 -51.95,97.46 -51.95,155.66z"/>
  <path class="fil0 str0" d="M-20150.61 6539.85l14159.86 0c167.73,0 328.62,-41.65 454.43,-125.13 39.15,-25.97 80.52,-53.26 115.69,-85.57 115.3,-105.92 254.4,-316.57 254.4,-532.33l0 -5593.64c0,-284.8 -229.41,-583.11 -497.46,-683.52 -98.09,-36.75 -202.04,-59.51 -335.47,-59.51l-14143.04 0c-133.43,0 -237.38,22.76 -335.47,59.51 -175.91,65.9 -326.28,209.61 -413.47,374.48 -38.18,72.2 -83.99,199.45 -83.99,309.04l0 5593.64c0,222.57 136,434.96 300.93,569.64 141.72,115.73 327.84,173.39 523.59,173.39z"/>
 </g>
</svg>
