<?xml version="1.0" encoding="UTF-8"?>
<!DOCTYPE svg PUBLIC "-//W3C//DTD SVG 1.1//EN" "http://www.w3.org/Graphics/SVG/1.1/DTD/svg11.dtd">
<!-- Creator: CorelDRAW X8 -->
<svg xmlns="http://www.w3.org/2000/svg" xml:space="preserve" width="40mm" height="60mm" version="1.1" style="shape-rendering:geometricPrecision; text-rendering:geometricPrecision; image-rendering:optimizeQuality; fill-rule:evenodd; clip-rule:evenodd"
viewBox="0 0 4000 6000"
 xmlns:xlink="http://www.w3.org/1999/xlink">
 <defs>
  <style type="text/css">
   <![CDATA[
    .str0 {stroke:#332C2B;stroke-width:10}
    .fil0 {fill:none;fill-rule:nonzero}
   ]]>
  </style>
 </defs>
 <g id="图层_x0020_1">
  <metadata id="CorelCorpID_0Corel-Layer"/>
  <line class="fil0 str0" x1="3052" y1="650" x2="3052" y2= "680" />
  <polyline class="fil0 str0" points="1455,1312 1455,1322 1462,1320 1466,1315 1466,1308 1462,1303 1455,1301 1455,1097 "/>
  <path class="fil0 str0" d="M1455 1097c0,-136 0,-136 -5,-154"/>
  <line class="fil0 str0" x1="1450" y1="943" x2="1448" y2= "938" />
  <path class="fil0 str0" d="M1448 938c-23,-81 -97,-137 -180,-137 -97,0 -182,78 -188,170"/>
  <line class="fil0 str0" x1="1080" y1="971" x2="1080" y2= "1537" />
  <path class="fil0 str0" d="M1080 1537c0,72 0,116 1,121 10,91 93,164 186,164 93,0 171,-68 186,-159 2,-10 2,-51 2,-156"/>
  <line class="fil0 str0" x1="1455" y1="1507" x2="1455" y2= "1271" />
  <path class="fil0 str0" d="M1054 5272c-57,-10 -107,-58 -120,-115 -1,-7 -2,-17 -2,-47"/>
  <line class="fil0 str0" x1="932" y1="5110" x2="951" y2= "1750" />
  <path class="fil0 str0" d="M951 1750c4,-762 2,-895 -14,-971"/>
  <line class="fil0 str0" x1="937" y1="779" x2="935" y2= "768" />
  <path class="fil0 str0" d="M935 768c0,-43 75,-111 126,-116"/>
  <polyline class="fil0 str0" points="1061,652 1097,651 2346,665 "/>
  <path class="fil0 str0" d="M2346 665c115,2 231,2 347,2 151,-1 203,-3 238,-11 3,-1 5,-1 6,-1 42,0 111,74 115,123"/>
  <line class="fil0 str0" x1="3052" y1="778" x2="3080" y2= "4375" />
  <path class="fil0 str0" d="M3080 4375c4,497 -3,738 -20,775"/>
  <polyline class="fil0 str0" points="3060,5150 3059,5151 3054,5158 3051,5161 "/>
  <path class="fil0 str0" d="M3051 5161c-2,3 -3,4 -8,19 -10,31 -47,69 -82,84"/>
  <line class="fil0 str0" x1="2961" y1="5264" x2="2954" y2= "5268" />
  <path class="fil0 str0" d="M2954 5268c-10,8 -10,8 -515,7"/>
  <line class="fil0 str0" x1="2439" y1="5275" x2="919" y2= "5273" />
  <path class="fil0 str0" d="M1123 1002c-14,25 -20,36 -25,47 -5,12 -9,23 -18,52"/>
  <polyline class="fil0 str0" points="1267,2011 1258,2011 1259,2005 1264,2000 "/>
  <path class="fil0 str0" d="M1264 2000c5,0 7,1 12,3"/>
  <line class="fil0 str0" x1="1276" y1="2003" x2="1278" y2= "2009" />
  <path class="fil0 str0" d="M1278 2009c35,-1 66,-36 66,-75 -1,-43 -35,-77 -78,-77 -51,0 -77,26 -77,77 0,42 34,77 75,77 7,0 12,0 30,-3"/>
 </g>
</svg>
