<?xml version="1.0" encoding="UTF-8"?>
<!DOCTYPE svg PUBLIC "-//W3C//DTD SVG 1.1//EN" "http://www.w3.org/Graphics/SVG/1.1/DTD/svg11.dtd">
<!-- Creator: CorelDRAW X8 -->
<svg xmlns="http://www.w3.org/2000/svg" xml:space="preserve" width="40mm" height="60mm" version="1.1" style="shape-rendering:geometricPrecision; text-rendering:geometricPrecision; image-rendering:optimizeQuality; fill-rule:evenodd; clip-rule:evenodd"
viewBox="0 0 4000 6000"
 xmlns:xlink="http://www.w3.org/1999/xlink">
 <defs>
  <style type="text/css">
   <![CDATA[
    .str0 {stroke:black;stroke-width:7.62}
    .fil0 {fill:none}
   ]]>
  </style>
 </defs>
 <g id="图层_x0020_1">
  <metadata id="CorelCorpID_0Corel-Layer"/>
  <path class="fil0 str0" d="M-595 6195l0 -1152c0,-42 -17,-55 -46,-77 -74,-58 -133,-132 -133,-230l0 -3416c0,-105 64,-190 150,-239 22,-13 29,-31 29,-84l0 -799c0,-461 -380,-838 -845,-838l-14710 0c-465,0 -845,377 -845,838l0 1174c0,39 19,82 83,82l157 0c81,0 147,65 147,145l0 0c0,79 -66,145 -147,145l-154 0c-67,0 -86,18 -86,58l0 61c0,21 1,27 18,42l108 94c8,8 14,17 14,35l0 1828c0,15 -3,27 -18,42l-96 102c-17,17 -26,32 -26,61l0 126c0,35 12,53 48,53l229 0c33,0 60,27 60,59l0 267c0,33 -27,59 -60,59l-215 0c-45,0 -62,28 -62,65l0 1106c0,461 380,838 845,838l14710 0c465,0 845,-377 845,-838l0 -129"/>
  <path class="fil0 str0" d="M1084 5350l330 0c13,0 16,-5 23,-13 16,-22 38,-38 65,-38l980 0c29,0 54,18 68,43 4,6 9,8 24,8l229 0c132,0 240,-109 240,-242l0 -4216c0,-133 -108,-242 -240,-242l-336 0c-12,0 -24,6 -24,24l0 45c0,23 -19,42 -41,42l0 0c-23,0 -42,-19 -42,-42l0 -44c0,-19 -5,-25 -17,-25l-17 0c-6,0 -8,0 -12,5l-27 31c-3,2 -5,4 -10,4l-524 0c-4,0 -8,-1 -12,-5l-29 -28c-5,-4 -9,-7 -18,-7l-36 0c-10,0 -15,3 -15,14l0 65c0,10 -8,18 -17,18l-77 0c-9,0 -16,-8 -16,-18l0 -61c0,-13 -8,-18 -19,-18l-317 0c-132,0 -240,109 -240,242l0 4216c0,133 108,242 240,242l37 0"/>
 </g>
</svg>
