<?xml version="1.0" encoding="UTF-8"?>
<!DOCTYPE svg PUBLIC "-//W3C//DTD SVG 1.1//EN" "http://www.w3.org/Graphics/SVG/1.1/DTD/svg11.dtd">
<!-- Creator: CorelDRAW X8 -->
<svg xmlns="http://www.w3.org/2000/svg" xml:space="preserve" width="40mm" height="60mm" version="1.1" style="shape-rendering:geometricPrecision; text-rendering:geometricPrecision; image-rendering:optimizeQuality; fill-rule:evenodd; clip-rule:evenodd"
viewBox="0 0 4000 6000"
 xmlns:xlink="http://www.w3.org/1999/xlink">
 <defs>
  <style type="text/css">
   <![CDATA[
    .str0 {stroke:#332C2B;stroke-width:20}
    .fil0 {fill:none}
   ]]>
  </style>
 </defs>
 <g id="图层_x0020_1">
  <metadata id="CorelCorpID_0Corel-Layer"/>
  <path class="fil0 str0" d="M2750 807c196,7 266,152 267,301l121 0 0 3780 -123 0c0,-8 -1,11 -1,26 2,129 -63,235 -256,245l452 60 0 131 -2417 0 0 -130 456 -61c-144,-8 -286,-110 -256,-271l-136 0 0 -2045 66 0c25,0 45,-20 45,-45l0 -328c0,-26 -20,-46 -45,-46l-66 0 0 -1317 133 0c2,-148 70,-300 267,-300l-467 -39 0 -118 2413 0 0 119 -453 38zm-1379 132l324 0c106,0 193,87 193,193l0 682c0,106 -87,193 -193,193l-324 0c-106,0 -193,-87 -193,-193l0 -682c0,-106 87,-193 193,-193zm17 61l118 0c84,0 152,69 152,152l0 634c0,84 -68,152 -152,152l-118 0c-84,0 -153,-68 -153,-152l0 -634c0,-83 69,-152 153,-152zm57 91c56,0 102,45 102,101 0,57 -46,102 -102,102 -56,0 -102,-45 -102,-102 0,-56 46,-101 102,-101zm4 568c50,0 91,41 91,91 0,50 -41,91 -91,91 -50,0 -91,-41 -91,-91 0,-50 41,-91 91,-91zm-107 -264c37,0 68,31 68,69 0,37 -31,68 -68,68 -38,0 -69,-31 -69,-68 0,-38 31,-69 69,-69zm213 1c38,0 69,30 69,68 0,38 -31,68 -69,68 -37,0 -68,-30 -68,-68 0,-38 31,-68 68,-68zm120 -427c98,2 180,82 180,181l0 647c0,99 -81,181 -180,181 -8,0 -98,0 -65,-30 32,-30 77,-63 77,-131l0 -683c0,-56 -31,-104 -78,-135 -11,-7 -14,-28 12,-30 21,-1 32,0 54,0zm95 456c12,0 22,10 22,22 0,12 -10,22 -22,22 -12,0 -22,-10 -22,-22 0,-12 10,-22 22,-22zm0 -325l0 0c30,0 54,25 54,55l0 174c0,30 -24,55 -54,55l0 0c-30,0 -54,-25 -54,-55l0 -174c0,-30 24,-55 54,-55zm1313 70l0 0c23,0 41,19 41,41l0 437c0,22 -18,40 -41,40l0 0c-22,0 -40,-18 -40,-40l0 -437c0,-22 18,-41 40,-41zm-552 4040c30,0 54,25 54,55 0,30 -24,54 -54,54 -30,0 -54,-24 -54,-54 0,-30 24,-55 54,-55zm-173 50c11,0 20,9 20,20 0,11 -9,20 -20,20 -12,0 -21,-9 -21,-20 0,-11 9,-20 21,-20zm-450 -42l152 0c23,0 43,21 43,46l0 0c0,25 -20,45 -43,45l-152 0c-24,0 -43,-20 -43,-45l0 0c0,-25 19,-46 43,-46zm-558 27l277 0c12,0 23,10 23,22l0 0c0,13 -11,22 -23,22l-277 0c-13,0 -23,-9 -23,-22l0 0c0,-12 10,-22 23,-22zm382 -4557c18,0 33,15 33,33 0,19 -15,33 -33,33 -18,0 -33,-14 -33,-33 0,-18 15,-33 33,-33zm-100 7c12,0 20,9 20,20 0,11 -8,20 -20,20 -11,0 -19,-9 -19,-20 0,-11 8,-20 19,-20zm721 9l270 0c16,0 30,13 30,28l0 0c0,15 -14,27 -30,27l-270 0c-16,0 -30,-12 -30,-27l0 0c0,-15 14,-28 30,-28zm-1433 985l0 0c22,0 39,18 39,39l0 497c0,21 -17,39 -39,39l0 0c-21,0 -38,-18 -38,-39l0 -497c0,-21 17,-39 38,-39z"/>
 </g>
</svg>
