<?xml version="1.0" encoding="UTF-8"?>
<!DOCTYPE svg PUBLIC "-//W3C//DTD SVG 1.1//EN" "http://www.w3.org/Graphics/SVG/1.1/DTD/svg11.dtd">
<!-- Creator: CorelDRAW -->
<svg xmlns="http://www.w3.org/2000/svg" xml:space="preserve" width="40mm" height="60mm" style="shape-rendering:geometricPrecision; text-rendering:geometricPrecision; image-rendering:optimizeQuality; fill-rule:evenodd; clip-rule:evenodd"
viewBox="0 0 40 60"
 xmlns:xlink="http://www.w3.org/1999/xlink">
 <defs>
  <style type="text/css">
   <![CDATA[
    .str0 {stroke:#1F1A17;stroke-width:0.0762}
    .fil0 {fill:none}
   ]]>
  </style>
 </defs>
 <g id="图层_x0020_1">
  <metadata id="CorelCorpID_0Corel-Layer"/>
  <path class="fil0 str0" d="M9.2327 51.4011l0.2504 -42.6701c0,0 -0.2981,-2.3135 2.3971,-2.2301l5.4143 0.0716 0.4517 0.0594c0,0 0.5682,0.0477 1.2381,0.728l0.2572 0.2207c0,0 0.7357,0.74 1.5492,0.197l1.1184 -0.8891c0,0 0.317,-0.2566 0.6041,-0.2387l6.5734 0.0895c0,0 1.6029,0.1014 1.6807,1.6648l-0.2473 43.0805c0,0 0.1909,1.9915 -1.92,2.0154l-17.5228 -0.2303c0,0 -1.8602,-0.0537 -1.8445,-1.8686z"/>
 </g>
</svg>
