<?xml version="1.0" encoding="UTF-8"?>
<!DOCTYPE svg PUBLIC "-//W3C//DTD SVG 1.1//EN" "http://www.w3.org/Graphics/SVG/1.1/DTD/svg11.dtd">
<!-- Creator: CorelDRAW X8 -->
<svg xmlns="http://www.w3.org/2000/svg" xml:space="preserve" width="40mm" height="60mm" version="1.1" style="shape-rendering:geometricPrecision; text-rendering:geometricPrecision; image-rendering:optimizeQuality; fill-rule:evenodd; clip-rule:evenodd"
viewBox="0 0 4000 6000"
 xmlns:xlink="http://www.w3.org/1999/xlink">
 <defs>
  <style type="text/css">
   <![CDATA[
    .str0 {stroke:black;stroke-width:7.62}
    .fil0 {fill:none}
   ]]>
  </style>
 </defs>
 <g id="图层_x0020_1">
  <metadata id="CorelCorpID_0Corel-Layer"/>
  <path class="fil0 str0" d="M2019 759c-1,-6 -6,-11 -17,-12 -40,0 -72,32 -72,71 0,40 32,72 72,72 39,0 71,-32 71,-72 0,-39 -32,-71 -71,-71m-788 4603c-20,-15 -50,-32 -77,-32 -85,0 -155,-69 -155,-154l0 -4359c0,-85 70,-155 155,-155l503 0c2,0 3,0 4,1l10 8c2,2 3,2 5,2l695 0c3,0 3,0 5,-2l8 -7c2,-2 3,-2 5,-2l235 0c4,0 5,1 5,4l0 6c0,3 3,6 6,6l141 0c3,0 6,-3 6,-6l0 -4c0,-4 3,-6 6,-6l92 0c85,0 155,70 155,155l0 4359c0,85 -70,154 -155,154l-1828 0"/>
 </g>
</svg>
