<?xml version="1.0" encoding="UTF-8"?>
<!DOCTYPE svg PUBLIC "-//W3C//DTD SVG 1.1//EN" "http://www.w3.org/Graphics/SVG/1.1/DTD/svg11.dtd">
<!-- Creator: CorelDRAW X8 -->
<svg xmlns="http://www.w3.org/2000/svg" xml:space="preserve" width="40mm" height="60mm" version="1.1" style="shape-rendering:geometricPrecision; text-rendering:geometricPrecision; image-rendering:optimizeQuality; fill-rule:evenodd; clip-rule:evenodd"
viewBox="0 0 4000 6000"
 xmlns:xlink="http://www.w3.org/1999/xlink">
 <defs>
  <style type="text/css">
   <![CDATA[
    .str0 {stroke:#332C2B;stroke-width:7.62}
    .fil0 {fill:none}
   ]]>
  </style>
 </defs>
 <g id="图层_x0020_1">
  <metadata id="CorelCorpID_0Corel-Layer"/>
  <path class="fil0 str0" d="M946 5246l1817 0c160,0 291,-131 291,-291l0 -4013c0,-161 -131,-292 -291,-292l-1487 0c-160,0 -291,131 -291,292l0 4013c0,160 131,291 291,291 161,0 308,47 308,104m53 -4271c37,-136 -282,-295 -372,-295 -89,0 -163,73 -163,163l0 411c0,90 74,163 163,163l386 0c89,0 163,-73 163,-163l0 -411c0,-90 -74,-163 -163,-163l-386 0"/>
 </g>
</svg>
