<?xml version="1.0" encoding="UTF-8"?>
<!DOCTYPE svg PUBLIC "-//W3C//DTD SVG 1.1//EN" "http://www.w3.org/Graphics/SVG/1.1/DTD/svg11.dtd">
<!-- Creator: CorelDRAW X8 -->
<svg xmlns="http://www.w3.org/2000/svg" xml:space="preserve" width="40mm" height="60mm" version="1.1" style="shape-rendering:geometricPrecision; text-rendering:geometricPrecision; image-rendering:optimizeQuality; fill-rule:evenodd; clip-rule:evenodd"
viewBox="0 0 4000 6000"
 xmlns:xlink="http://www.w3.org/1999/xlink">
 <defs>
  <style type="text/css">
   <![CDATA[
    .str0 {stroke:#332C2B;stroke-width:20}
    .fil0 {fill:none}
   ]]>
  </style>
 </defs>
 <g id="图层_x0020_1">
  <metadata id="CorelCorpID_0Corel-Layer"/>
  <path class="fil0 str0" d="M3543 5148c-24,0 -51,43 -51,98 0,56 -45,101 -101,101l-2833 0c-55,0 -101,-45 -101,-101l0 -2140c0,-24 13,-41 43,-41l47 0c19,0 35,-15 35,-35l0 -181c0,-19 -16,-35 -35,-35l-47 0c-30,0 -43,-23 -43,-44l0 -2019c0,-56 46,-101 101,-101l2833 0c56,0 101,45 101,101l0 4599"/>
 </g>
</svg>
