<?xml version="1.0" encoding="UTF-8"?>
<!DOCTYPE svg PUBLIC "-//W3C//DTD SVG 1.1//EN" "http://www.w3.org/Graphics/SVG/1.1/DTD/svg11.dtd">
<!-- Creator: CorelDRAW 2020 (64-Bit) -->
<svg xmlns="http://www.w3.org/2000/svg" xml:space="preserve" width="40mm" height="60mm" version="1.1" style="shape-rendering:geometricPrecision; text-rendering:geometricPrecision; image-rendering:optimizeQuality; fill-rule:evenodd; clip-rule:evenodd"
viewBox="0 0 4000 6000"
 xmlns:xlink="http://www.w3.org/1999/xlink"
 xmlns:xodm="http://www.corel.com/coreldraw/odm/2003">
 <defs>
  <style type="text/css">
   <![CDATA[
    .str0 {stroke:#E72D28;stroke-width:20;stroke-miterlimit:22.9256}
    .str1 {stroke:#222222;stroke-width:20;stroke-miterlimit:22.9256}
    .fil0 {fill:none}
   ]]>
  </style>
   <clipPath id="id0">
    <rect x="-40884.78" y="-5512.05" width="7549.44" height="14781.38"/>
   </clipPath>
   <clipPath id="id1">
    <rect x="-29675.85" y="-6640.99" width="8454.43" height="16829.12"/>
   </clipPath>
 </defs>
 <g id="图层_x0020_1">
  <metadata id="CorelCorpID_0Corel-Layer"/>
  <g style="clip-path:url(#id0)">
   <image x="-40884.78" y="-5512.05" width="7549.44" height="14781.38" xlink:href="Mate 50 -11i（前膜全屏）2_Images\Mate 50 -11i（前膜全屏）2_ImgID1.png"/>
  </g>
  <g style="clip-path:url(#id1)">
   <image x="-29675.85" y="-6640.99" width="8454.43" height="16829.12" xlink:href="Mate 50 -11i（前膜全屏）2_Images\Mate 50 -11i（前膜全屏）2_ImgID2.png"/>
  </g>
  <rect class="fil0 str0" x="-29263.52" y="-6255.9" width="7610" height="16150"/>
  <path class="fil0 str0" d="M-28468.11 -6069.07l2655.28 0c86.82,0 79.22,56.3 79.22,97.78l0 270.01c0,149.16 122.04,271.2 271.2,271.2l0 0c149.16,0 271.2,-122.04 271.2,-271.2l0 -270.01c0,-34.43 -8.17,-97.78 73.15,-97.78l2669.13 0c330,0 600,270.01 600,600l0 14541.95c0,330 -270,600 -600,600l-6019.18 0c-330,0 -600,-270 -600,-600l0 -14541.95c0,-330 270,-600 600,-600z"/>
  <path class="fil0 str1" d="M-1868.18 6001.23l0 -6382.99c0,-329.99 -270.01,-600 -600,-600l-14541.95 0c-329.99,0 -600,270 -600,600l0 2669.13c0,81.32 63.35,73.15 97.78,73.15l270.01 0c149.16,0 271.2,122.04 271.2,271.2l0 0c0,149.16 -122.04,271.2 -271.2,271.2l-270.01 0c-41.48,0 -97.78,-7.6 -97.78,79.22l0 2655.28c0,330 270,600 600,600l14541.95 0c330,0 600,-270 600,-600 0,-330 62.15,-447.43 99.64,-501.45"/>
  <path class="fil0 str1" d="M992.55 5326.11l1893.76 0c97.9,0 178.01,-80.11 178.01,-178.02l0 -4314.41c0,-97.9 -80.11,-178.01 -178.01,-178.01l-791.9 0c-24.13,0 -21.7,18.79 -21.7,29.01l0 80.11c0,44.25 -36.21,80.46 -80.46,80.46l0 0c-44.26,0 -80.47,-36.21 -80.47,-80.46l0 -80.11c0,-12.31 2.26,-29.01 -23.5,-29.01l-787.79 0c-97.9,0 -178.01,80.1 -178.01,178.01l0 4314.41c0,97.91 80.11,178.02 178.01,178.02 97.91,0 132.75,18.44 148.78,29.56"/>
 </g>
</svg>
