<?xml version="1.0" encoding="UTF-8"?>
<!DOCTYPE svg PUBLIC "-//W3C//DTD SVG 1.1//EN" "http://www.w3.org/Graphics/SVG/1.1/DTD/svg11.dtd">
<!-- Creator: CorelDRAW 2020 (64-Bit) -->
<svg xmlns="http://www.w3.org/2000/svg" xml:space="preserve" width="40mm" height="60mm" version="1.1" style="shape-rendering:geometricPrecision; text-rendering:geometricPrecision; image-rendering:optimizeQuality; fill-rule:evenodd; clip-rule:evenodd"
viewBox="0 0 4000 6000"
 xmlns:xlink="http://www.w3.org/1999/xlink"
 xmlns:xodm="http://www.corel.com/coreldraw/odm/2003">
 <defs>
  <style type="text/css">
   <![CDATA[
    .str0 {stroke:black;stroke-width:7.62;stroke-miterlimit:22.9256}
    .fil0 {fill:none}
   ]]>
  </style>
 </defs>
 <g id="图层_x0020_1">
  <metadata id="CorelCorpID_0Corel-Layer"/>
  <path class="fil0 str0" d="M3187.48 1698.48c4.72,-0.35 9.12,-4.51 9.79,-13.13 0,-30.66 -24.86,-55.52 -55.53,-55.52 -30.66,0 -55.52,24.86 -55.52,55.52 0,30.67 24.86,55.53 55.52,55.53 30.67,0 55.53,-24.86 55.53,-55.53m-2396.69 1027.01l2237.91 0c114.64,0 208.44,-93.82 208.44,-208.45l0 -1645.47c0,-114.63 -93.81,-208.44 -208.44,-208.44l-2237.99 0 0.08 2062.36zm2398.61 2637.64l-2237.68 0c-114.64,0 -208.45,-93.81 -208.45,-208.44l0 -1645.47c0,-114.64 93.8,-208.45 208.45,-208.45l2237.67 0 0.01 2062.36z"/>
 </g>
</svg>
