<?xml version="1.0" encoding="UTF-8"?>
<!DOCTYPE svg PUBLIC "-//W3C//DTD SVG 1.1//EN" "http://www.w3.org/Graphics/SVG/1.1/DTD/svg11.dtd">
<!-- Creator: CorelDRAW 2020 (64-Bit) -->
<svg xmlns="http://www.w3.org/2000/svg" xml:space="preserve" width="40mm" height="60mm" version="1.1" style="shape-rendering:geometricPrecision; text-rendering:geometricPrecision; image-rendering:optimizeQuality; fill-rule:evenodd; clip-rule:evenodd"
viewBox="0 0 4000 6000"
 xmlns:xlink="http://www.w3.org/1999/xlink"
 xmlns:xodm="http://www.corel.com/coreldraw/odm/2003">
 <defs>
  <style type="text/css">
   <![CDATA[
    .str0 {stroke:black;stroke-width:7.62;stroke-miterlimit:22.9256}
    .fil0 {fill:none}
   ]]>
  </style>
 </defs>
 <g id="图层_x0020_1">
  <metadata id="CorelCorpID_0Corel-Layer"/>
  <path class="fil0 str0" d="M1281.4 778.49c-6.06,-22.64 -14.31,-39.26 -53.16,-39.26l-32.21 0c-44.86,0 -81.56,36.7 -81.56,81.56l0 0.02c0,44.86 36.7,81.56 81.56,81.56l344.08 0c44.86,0 81.56,-36.7 81.56,-81.56l0 -0.02c0,-44.86 -36.7,-81.56 -81.56,-81.56l-311.87 0m-210.77 4603.18l1896.1 0c13.06,0 23.73,-10.66 23.73,-23.73l0 -160.17c0,-13.05 10.67,-23.73 23.73,-23.73l189.83 0c13.06,0 23.73,-10.66 23.73,-23.73l0 -4200.03c0,-13.07 -10.67,-23.73 -23.73,-23.73l-189.83 0c-13.06,0 -23.73,-10.68 -23.73,-23.73l0 -189.83c0,-13.07 -10.67,-23.73 -23.73,-23.73l-1827.14 0c-13.06,0 -23.73,10.66 -23.73,23.73l0 189.83c0,13.05 -10.67,23.73 -23.73,23.73l-189.83 0c-13.06,0 -23.73,10.66 -23.73,23.73l0 4200.03c0,13.07 10.67,23.73 23.73,23.73l160.17 0c13.06,0 23.73,10.68 23.73,23.73l0 160.17c0,13.07 10.66,23.73 23.73,23.73l5.87 0c19.06,0 33.1,2.43 42.74,7.59"/>
 </g>
</svg>
