<?xml version="1.0" encoding="UTF-8"?>
<!DOCTYPE svg PUBLIC "-//W3C//DTD SVG 1.1//EN" "http://www.w3.org/Graphics/SVG/1.1/DTD/svg11.dtd">
<!-- Creator: CorelDRAW 2020 (64-Bit) -->
<svg xmlns="http://www.w3.org/2000/svg" xml:space="preserve" width="40mm" height="60mm" version="1.1" style="shape-rendering:geometricPrecision; text-rendering:geometricPrecision; image-rendering:optimizeQuality; fill-rule:evenodd; clip-rule:evenodd"
viewBox="0 0 4000 6000"
 xmlns:xlink="http://www.w3.org/1999/xlink"
 xmlns:xodm="http://www.corel.com/coreldraw/odm/2003">
 <defs>
  <style type="text/css">
   <![CDATA[
    .str0 {stroke:black;stroke-width:7.62;stroke-linejoin:bevel;stroke-miterlimit:22.9256}
    .fil0 {fill:none}
   ]]>
  </style>
 </defs>
 <g id="图层_x0020_1">
  <metadata id="CorelCorpID_0Corel-Layer"/>
  <path class="fil0 str0" d="M-7275.9 -1087.78l0 300c0,27.5 -22.53,50.04 -50,50l-15684.25 -30c-27.47,-0.04 -50,-22.53 -50,-50l0 -270c0,-27.47 22.5,-50 50,-50l15684.25 0c27.5,0 50,22.5 50,50zm-10989.92 749.87l0 394.69c0,27.5 -22.59,48.99 -50,50l-4345.2 160c-27.43,1.01 -50,-22.5 -50,-50 0,-99.93 21.49,-189.95 21.49,-289.89 0,-91.63 -21.49,-193.17 -21.49,-284.8 0,-27.5 22.5,-50.13 50,-50l4345.2 20c27.5,0.13 50,22.5 50,50zm-1749.3 272.76c-13.33,-49.74 -40.5,-89.24 -162.83,-89.24l-104.64 0c-55,0 -99.99,44.99 -99.99,99.99l0 0.02c0,54.89 44.99,99.99 99.99,99.99l1506.55 0c55,0 99.98,-44.99 99.98,-99.99l0 -0.02c0,-55 -45.09,-99.99 -99.98,-99.99l-1401.91 0m12950 -110.27c-9.22,92.03 -34.72,179.24 -34.72,270.52 0,88.73 26.02,181.03 34.72,269.49 2.14,21.77 -18.16,40.69 -39.99,39.99 -3103.89,-99.41 -6319.76,-159.58 -9519.33,-160 -21.75,0 -39.99,-18.24 -39.99,-39.99l0 -290.01c0,-21.75 17.99,-39.8 39.99,-40l9519.33 -90c22,-0.2 42.17,18.17 39.99,40zm-5501.63 229.51c-13.33,-49.74 -40.5,-89.24 -162.83,-89.24l-104.64 0c-55,0 -99.99,44.99 -99.99,99.99l0 0.02c0,54.9 44.99,99.99 99.99,99.99l1806.55 0c55,0 99.98,-44.99 99.98,-99.99l0 -0.02c0,-55 -45.08,-99.99 -99.98,-99.99l-1701.91 0m2457.94 99.24c-13.33,-49.74 -40.5,-89.24 -162.83,-89.24l-104.64 0c-55,0 -99.99,44.99 -99.99,99.99l0 0.02c0,54.95 44.99,99.99 99.99,99.99l696.55 0c55,0 99.98,-44.99 99.98,-99.99l0 -0.02c0,-55 -45.03,-99.99 -99.98,-99.99l-591.91 0m-8709.61 -1822.39l-643.78 0c-70.2,0 -135.09,37.45 -170.19,98.24 -35.1,60.84 -35.1,135.75 0,196.54 35.1,60.84 99.99,98.29 170.19,98.29l643.78 0c70.2,0 135.09,-37.45 170.19,-98.29 35.1,-60.79 35.1,-135.7 0,-196.54 -35.1,-60.79 -99.99,-98.24 -170.19,-98.24zm-1904.35 298.53c53.66,0 97.16,-43.51 97.16,-97.16 0,-53.65 -43.5,-97.12 -97.16,-97.12 -53.65,0 -97.11,43.47 -97.11,97.12 0,53.65 43.46,97.16 97.11,97.16zm4798.99 166.61l-6537.97 46.47 0 -711.94 6524.77 0c9.28,-0.04 18.07,4.23 23.78,11.54 5.7,7.32 7.75,16.95 5.49,25.92 -48.56,194.05 -44.21,397.51 12.63,589.3 2.7,9.06 0.95,18.9 -4.66,26.48 -5.62,7.62 -14.59,12.15 -24.04,12.23zm9153.77 -1086.52l-5658.37 0c-9.14,0.09 -17.24,-6.01 -19.59,-14.9 -2.36,-8.84 1.96,-18.37 9.92,-22.86 92.37,-50.78 149.59,-147.98 149.2,-253.37 -0.39,-105.38 -57.26,-201.58 -149.98,-251.66 -8.1,-4.31 -12.28,-13.55 -10.1,-22.47 2.17,-8.93 10.54,-15.2 19.68,-15.33l4520.75 0c428.96,12.36 858.04,18.85 1287.17,19.46 250.27,-9.1 507.34,5.45 756.53,35.89l0 638.16c-291.43,-106.61 -592.48,-97.72 -905.21,-112.92zm-3049.84 -473.29l-1720.13 0c-54.09,0 -104.09,28.83 -131.13,75.69 -27.04,46.86 -27.04,104.6 0,151.46 27.04,46.86 77.04,75.69 131.13,75.69l1720.13 0c54.13,0 104.12,-28.83 131.17,-75.69 27.04,-46.86 27.04,-104.6 0,-151.46 -27.05,-46.86 -77.04,-75.69 -131.17,-75.69zm-13046.59 549.98l-141.23 -576.41c378.96,-51.26 762.98,-56.88 1144.81,-78.39 316.38,-12.11 633.07,-15.07 949.62,-8.84l6978.34 0c13.54,-0.09 25.52,8.84 29.22,21.86 3.7,12.98 -2.18,27.17 -13.72,34.19 -84.61,50.82 -136.35,142.27 -136.31,240.95 0.05,98.68 51.04,189.57 135.7,240.3 7.75,4.58 11.5,13.76 9.19,22.47 -2.35,8.71 -10.54,14.77 -19.55,14.85l-7060.99 0c-653.02,-10.49 -1218.5,-53.69 -1875.08,89.02zm12673.92 544.3c-92.15,0 -166.84,74.73 -166.84,166.88 0,92.11 74.69,166.84 166.84,166.84 92.15,0 166.83,-74.73 166.83,-166.84 0,-92.15 -74.68,-166.88 -166.83,-166.88zm2668.88 73.43c-73.55,0 -133.13,59.57 -133.13,133.12 0,73.56 59.58,133.13 133.13,133.13 73.56,0 133.17,-59.57 133.17,-133.13 0,-73.51 -59.61,-133.12 -133.17,-133.12zm745.29 -314.12l0 682.06 -6507.39 0c-9.41,0 -18.29,-4.4 -24,-11.89 -5.7,-7.49 -7.58,-17.24 -5.05,-26.35 54.96,-198.4 50.21,-408.57 -13.63,-604.32 -3.01,-9.19 -1.44,-19.25 4.22,-27.05 5.66,-7.79 14.81,-12.45 24.48,-12.45l6521.37 0zm282.74 2679.33l-15664.55 0c-60.47,0 -110,49.53 -110,110l0 560c0,60.48 49.53,110 110,110l15580 0c60.47,0 110,-49.53 110,-110l0 -560c0,-60.49 -49.52,-110 -110,-110l-75.03 0m-16097.07 4685.34c-11.88,0.89 -23,11.36 -24.68,33.1 0,77.32 62.68,140 140,140 77.32,0 140,-62.68 140,-140 0,-77.32 -62.68,-140 -140,-140 -77.32,0 -140,62.68 -140,140m35.27 2630.29c-9.76,0.73 -18.89,9.33 -20.27,27.19 0,63.51 51.49,115 115,115 63.51,0 115,-51.49 115,-115 0,-63.51 -51.49,-115 -115,-115 -63.51,0 -115,51.49 -115,115m5323.39 1615.3c14,52.24 42.53,93.71 170.97,93.71l109.87 0c57.75,0 105,-47.24 105,-104.99l0 -0.02c0,-57.74 -47.25,-104.99 -105,-104.99l-1724.37 0c-57.75,0 -104.99,47.24 -104.99,104.99l0 0.02c0,57.75 47.25,104.99 104.99,104.99l1614.5 0m-3898.91 -1757.32l0 -383.5c0,-87.36 71.47,-158.82 158.82,-158.82l753.11 0c87.35,0 158.82,71.47 158.82,158.82l0 383.5c0,87.35 -71.46,158.82 -158.82,158.82l-753.11 0c-87.36,0 -158.82,-71.46 -158.82,-158.82zm1940.4 -338.66c-36.09,2.71 -69.83,34.5 -74.92,100.48 0,234.73 190.27,425 425,425 234.73,0 425,-190.27 425,-425 0,-234.73 -190.27,-425 -425,-425 -234.73,0 -425,190.27 -425,425m64.92 -1426.42c-36.09,2.71 -69.83,34.5 -74.92,100.48 0,234.73 190.27,425 425,425 234.73,0 425,-190.27 425,-425 0,-234.73 -190.27,-425 -425,-425 -234.73,0 -425,190.27 -425,425m1024.39 -43.33c-8.49,0.63 -16.43,8.11 -17.63,23.64 0,55.23 44.77,100 100,100 55.23,0 100,-44.77 100,-100 0,-55.23 -44.77,-100 -100,-100 -55.23,0 -100,44.77 -100,100m463.83 -94.02c-36.08,2.71 -69.83,34.5 -74.92,100.48 0,234.72 190.28,425 425,425 234.72,0 425,-190.28 425,-425 0,-234.72 -190.28,-425 -425,-425 -234.72,0 -425,190.28 -425,425m84.92 1229.05c-36.08,2.71 -69.83,34.5 -74.92,100.48 0,234.72 190.28,425 425,425 234.72,0 425,-190.28 425,-425 0,-234.72 -190.28,-425 -425,-425 -234.72,0 -425,190.28 -425,425m-3484.2 264.45l0 -1824.77c0,-174.62 142.87,-317.48 317.48,-317.48l3810.74 0c174.61,0 317.48,142.87 317.48,317.48l0 1824.77c0,174.61 -142.86,317.48 -317.48,317.48l-3810.74 0c-174.62,0 -317.48,-142.86 -317.48,-317.48zm-171.22 18.85l0 -1820.43c0,-254.77 208.45,-463.21 463.21,-463.21l3879.47 0c254.76,0 463.21,208.45 463.21,463.21l0 1820.43c0,254.76 -208.44,463.21 -463.21,463.21l-3879.47 0c-254.77,0 -463.21,-208.44 -463.21,-463.21zm15394.35 -1116.84c-8.49,0.63 -16.43,8.11 -17.63,23.64 0,55.23 44.77,100 100,100 55.23,0 100,-44.77 100,-100 0,-55.23 -44.77,-100 -100,-100 -55.23,0 -100,44.77 -100,100m-25.45 -1482.12c-55.5,14.87 -96.25,35.09 -96.25,130.36l0 78.97c0,110 89.99,199.99 199.97,199.99l0.06 0c109.89,0 199.97,-89.99 199.97,-199.99l0 -580.02c0,-110 -89.99,-199.99 -199.97,-199.99l-0.06 0c-109.98,0 -199.97,90.08 -199.97,199.99l0 501.05m-16592.79 3133.79l0 -6531.45c0,-33 27.05,-60.17 60,-60l837.4 4.53 15161.4 -1.45 937.95 -3.08c32.9,-0.11 60,27.06 60,60l0 6481.45c0,32.9 -27,60 -60,60l-642 0c-14.94,210.29 -163.64,413.9 -324.69,532.26l0.03 0c355.72,-2.93 474.1,-45.4 859.59,-128.73 16.05,-3.46 30,13.57 30,30l0 700.15c0,16.4 -13.5,29.99 -30,30l-8712.46 10.4c-55.69,0.06 -88.91,-37.6 -88.91,-94.13l0 -224.89c0,-129.16 -105.66,-234.82 -234.82,-234.82l-1111.25 0c-129.16,0 -234.82,105.66 -234.82,234.82l0 218.26c0,56.91 -18.16,102.78 -85.5,102.86l-6278.27 7.5c-16.5,0.01 -30,-13.5 -30,-30l0 -630.15c0,-16.5 13.73,-32.25 30,-30l845.55 117.4 0 -2.41c-177.28,-106.22 -294.88,-346.55 -325.58,-558.52l-603.62 0c-33,0 -60,-27 -60,-60z"/>
  <path class="fil0 str0" d="M3128.49 4981.67l-77.62 0c-7.11,0 -12.94,-5.83 -12.93,-12.93l7.76 -4057.99c0.01,-7.1 5.83,-12.93 12.94,-12.93l69.85 0c7.11,0 12.94,5.82 12.94,12.93l0 4057.99c0,7.11 -5.82,12.93 -12.94,12.93zm-194.01 -2843.42l-102.12 0c-7.11,0 -12.67,-5.84 -12.93,-12.93l-41.4 -1124.24c-0.26,-7.09 5.82,-12.93 12.93,-12.93 25.86,0 49.15,5.56 75.01,5.56 23.71,0 49.98,-5.56 73.68,-5.56 7.12,0 12.97,5.82 12.94,12.93l-5.17 1124.24c-0.04,7.11 -5.83,12.93 -12.94,12.93zm-70.57 -452.59c12.87,-3.45 23.09,-10.48 23.09,-42.13l0 -27.08c0,-14.23 -11.64,-25.87 -25.87,-25.87l-0.01 0c-14.2,0 -25.87,11.64 -25.87,25.87l0 389.79c0,14.23 11.64,25.87 25.87,25.87l0.01 0c14.23,0 25.87,-11.67 25.87,-25.87l0 -362.71m28.53 3350.55c-23.81,-2.39 -46.38,-8.98 -69.99,-8.98 -22.96,0 -46.84,6.73 -69.73,8.98 -5.63,0.55 -10.53,-4.7 -10.35,-10.35 25.72,-803.07 41.29,-1635.11 41.4,-2462.93 0,-5.63 4.72,-10.35 10.35,-10.35l75.03 0c5.63,0 10.3,4.66 10.35,10.35l23.29 2462.93c0.05,5.69 -4.7,10.91 -10.35,10.35zm-59.38 -1423.44c12.87,-3.45 23.09,-10.48 23.09,-42.13l0 -27.07c0,-14.23 -11.64,-25.87 -25.87,-25.87l-0.01 0c-14.2,0 -25.87,11.64 -25.87,25.87l0 467.41c0,14.23 11.64,25.87 25.87,25.87l0.01 0c14.23,0 25.87,-11.67 25.87,-25.87l0 -440.34m-25.68 635.95c12.87,-3.45 23.09,-10.48 23.09,-42.13l0 -27.08c0,-14.23 -11.64,-25.87 -25.87,-25.87l-0.01 0c-14.21,0 -25.87,11.64 -25.87,25.87l0 180.22c0,14.23 11.64,25.87 25.87,25.87l0.01 0c14.23,0 25.87,-11.65 25.87,-25.87l0 -153.14m471.5 -2253.44l0 -166.56c0,-18.17 -9.68,-34.96 -25.41,-44.04 -15.74,-9.08 -35.13,-9.08 -50.85,0 -15.74,9.08 -25.43,25.87 -25.43,44.04l0 166.56c0,18.16 9.69,34.95 25.43,44.03 15.72,9.09 35.11,9.09 50.85,0 15.73,-9.08 25.41,-25.87 25.41,-44.03zm-77.23 -492.71c0,13.88 11.25,25.14 25.13,25.14 13.88,0 25.13,-11.26 25.13,-25.14 0,-13.88 -11.25,-25.13 -25.13,-25.13 -13.88,0 -25.13,11.25 -25.13,25.13zm-43.11 1241.64l-12.02 -1691.57 184.2 0 0 1688.16c0.01,2.4 -1.1,4.67 -2.99,6.15 -1.89,1.47 -4.39,2 -6.71,1.42 -50.2,-12.57 -102.84,-11.44 -152.47,3.27 -2.34,0.7 -4.89,0.24 -6.85,-1.21 -1.97,-1.45 -3.14,-3.77 -3.16,-6.22zm281.11 2368.35l0 -1463.98c-0.02,-2.37 1.56,-4.47 3.86,-5.07 2.29,-0.61 4.75,0.5 5.91,2.56 13.14,23.9 38.29,38.71 65.56,38.61 27.26,-0.11 52.15,-14.82 65.11,-38.81 1.11,-2.09 3.51,-3.18 5.81,-2.61 2.31,0.56 3.94,2.73 3.97,5.09l0 1169.65c-3.2,110.99 -4.88,222 -5.04,333.03 2.36,64.75 -1.41,131.27 -9.28,195.74l-165.11 0c27.58,-75.4 25.28,-153.29 29.21,-234.21zm122.46 -789.08l0 -445.05c0,-13.99 -7.46,-26.93 -19.59,-33.93 -12.12,-6.99 -27.06,-6.99 -39.18,0 -12.13,7 -19.59,19.94 -19.59,33.93l0 445.05c0,14 7.46,26.94 19.59,33.94 12.12,6.99 27.06,6.99 39.18,0 12.13,-7 19.59,-19.94 19.59,-33.94zm-142.3 -3375.54l149.14 -36.54c13.26,98.05 14.71,197.4 20.28,296.19 3.13,81.86 3.9,163.8 2.29,245.7l0 1805.5c0.02,3.51 -2.29,6.61 -5.66,7.56 -3.36,0.96 -7.03,-0.56 -8.85,-3.55 -13.15,-21.89 -36.81,-35.27 -62.34,-35.26 -25.53,0.01 -49.04,13.2 -62.17,35.11 -1.19,2 -3.56,2.97 -5.81,2.37 -2.26,-0.6 -3.83,-2.72 -3.85,-5.05l0 -1826.89c2.72,-168.96 13.9,-315.27 -23.03,-485.14zm-140.82 3279.12c0,-23.84 -19.34,-43.17 -43.18,-43.17 -23.83,0 -43.17,19.33 -43.17,43.17 0,23.84 19.34,43.16 43.17,43.16 23.84,0 43.18,-19.32 43.18,-43.16zm-19 690.52c0,-19.03 -15.42,-34.45 -34.45,-34.45 -19.03,0 -34.44,15.42 -34.44,34.45 0,19.03 15.41,34.45 34.44,34.45 19.02,0 34.45,-15.42 34.45,-34.45zm81.27 192.83l-176.47 0 0 -1683.66c0,-2.43 1.14,-4.73 3.08,-6.21 1.93,-1.47 4.46,-1.96 6.81,-1.31 51.34,14.22 105.71,13 156.36,-3.52 2.38,-0.78 4.98,-0.37 7,1.09 2.01,1.46 3.22,3.83 3.22,6.33l0 1687.28zm-693.22 73.15l0 -4052.89c0,-15.64 -12.82,-28.46 -28.46,-28.46l-144.89 0c-15.65,0 -28.46,12.82 -28.46,28.46l0 4031.01c0,15.65 12.81,28.46 28.46,28.46l144.89 0c15.65,0 28.46,-12.81 28.46,-28.46l0 -19.41m-1212.24 -4164.79c-0.23,-3.07 -2.94,-5.95 -8.56,-6.39 -20.01,0 -36.22,16.22 -36.22,36.23 0,20 16.21,36.22 36.22,36.22 20,0 36.22,-16.22 36.22,-36.22 0,-20.01 -16.22,-36.23 -36.22,-36.23m-680.54 9.13c-0.19,-2.53 -2.41,-4.89 -7.03,-5.24 -16.43,0 -29.76,13.32 -29.76,29.75 0,16.43 13.33,29.75 29.76,29.75 16.43,0 29.75,-13.32 29.75,-29.75 0,-16.43 -13.32,-29.75 -29.75,-29.75m-417.93 1377.31c-13.51,3.63 -24.24,11.01 -24.24,44.24l0 28.43c0,14.94 12.22,27.16 27.16,27.16l0.01 0c14.94,0 27.16,-12.22 27.16,-27.16l0 -446.15c0,-14.94 -12.22,-27.16 -27.16,-27.16l-0.01 0c-14.94,0 -27.16,12.22 -27.16,27.16l0 417.72m454.67 -1008.76l99.22 0c22.6,0 41.09,18.49 41.09,41.09l0 194.85c0,22.6 -18.49,41.09 -41.09,41.09l-99.22 0c-22.6,0 -41.09,-18.49 -41.09,-41.09l0 -194.85c0,-22.61 18.49,-41.09 41.09,-41.09zm87.62 502.03c-0.7,-9.33 -8.93,-18.06 -26,-19.38 -60.73,0 -109.96,49.23 -109.96,109.96 0,60.73 49.23,109.96 109.96,109.96 60.73,0 109.96,-49.23 109.96,-109.96 0,-60.73 -49.23,-109.96 -109.96,-109.96m369.06 16.8c-0.7,-9.34 -8.93,-18.07 -26,-19.39 -60.73,0 -109.96,49.23 -109.96,109.96 0,60.74 49.23,109.96 109.96,109.96 60.73,0 109.96,-49.22 109.96,-109.96 0,-60.73 -49.23,-109.96 -109.96,-109.96m11.21 265.04c-0.16,-2.19 -2.1,-4.25 -6.11,-4.56 -14.29,0 -25.88,11.59 -25.88,25.88 0,14.29 11.59,25.87 25.88,25.87 14.29,0 25.87,-11.58 25.87,-25.87 0,-14.29 -11.58,-25.88 -25.87,-25.88m24.32 120.01c-0.7,-9.34 -8.92,-18.07 -26,-19.38 -60.72,0 -109.96,49.23 -109.96,109.96 0,60.72 49.24,109.96 109.96,109.96 60.73,0 109.97,-49.24 109.97,-109.96 0,-60.73 -49.24,-109.96 -109.97,-109.96m-317.99 21.97c-0.7,-9.34 -8.92,-18.07 -25.99,-19.39 -60.73,0 -109.96,49.23 -109.96,109.96 0,60.73 49.23,109.96 109.96,109.96 60.73,0 109.96,-49.23 109.96,-109.96 0,-60.73 -49.23,-109.96 -109.96,-109.96m-68.42 -901.46l472.12 0c45.18,0 82.14,36.96 82.14,82.14l0 985.95c0,45.18 -36.97,82.14 -82.14,82.14l-472.12 0c-45.18,0 -82.15,-36.96 -82.15,-82.14l0 -985.95c0,-45.18 36.97,-82.14 82.15,-82.14zm-4.88 -44.3l471 0c65.91,0 119.84,53.93 119.84,119.84l0 1003.74c0,65.91 -53.93,119.84 -119.84,119.84l-471 0c-65.92,0 -119.85,-53.93 -119.85,-119.84l0 -1003.74c0,-65.91 53.93,-119.84 119.85,-119.84zm288.96 3982.97c-0.17,-2.19 -2.1,-4.25 -6.12,-4.56 -14.29,0 -25.87,11.59 -25.87,25.88 0,14.29 11.58,25.87 25.87,25.87 14.29,0 25.87,-11.58 25.87,-25.87 0,-14.29 -11.58,-25.88 -25.87,-25.88m383.47 -6.58c-3.85,-14.36 -9.08,-24.91 -33.73,-24.91l-20.43 0c-28.46,0 -51.74,23.29 -51.74,51.74l0 0.02c0,28.43 23.28,51.74 51.74,51.74l150.07 0c28.46,0 51.74,-23.29 51.74,-51.74l0 -0.02c0,-28.45 -23.3,-51.74 -51.74,-51.74l-129.64 0m-810.8 -4293.04l1689.88 0c8.53,0 15.56,6.99 15.52,15.52l-1.17 216.66 0.37 3922.71 0.8 242.67c0.03,8.51 -7,15.53 -15.52,15.53l-1676.95 0c-8.51,0 -15.52,-6.99 -15.52,-15.53l0 -166.1c-54.41,-3.87 -107.09,-42.34 -137.71,-84.01l0 0.01c0.76,92.03 11.75,122.66 33.31,222.4 0.89,4.15 -3.52,7.76 -7.77,7.76l-181.15 0c-4.24,0 -7.76,-3.49 -7.76,-7.76l-2.69 -2254.17c-0.01,-14.41 9.73,-23.01 24.36,-23.01l58.18 0c33.42,0 60.76,-27.34 60.76,-60.75l0 -287.52c0,-33.41 -27.34,-60.75 -60.76,-60.75l-56.47 0c-14.72,0 -26.59,-4.7 -26.61,-22.12l-1.94 -1624.38c-0.01,-4.27 3.49,-7.76 7.76,-7.76l163.04 0c4.27,0 8.34,3.55 7.76,7.76l-30.38 218.77 0.63 0c27.48,-45.87 89.66,-76.29 144.5,-84.24l0 -156.17c0,-8.54 6.99,-15.52 15.53,-15.52z"/>
 </g>
</svg>
