<?xml version="1.0" encoding="UTF-8"?>
<!DOCTYPE svg PUBLIC "-//W3C//DTD SVG 1.1//EN" "http://www.w3.org/Graphics/SVG/1.1/DTD/svg11.dtd">
<!-- Creator: CorelDRAW X8 -->
<svg xmlns="http://www.w3.org/2000/svg" xml:space="preserve" width="40mm" height="60mm" version="1.1" style="shape-rendering:geometricPrecision; text-rendering:geometricPrecision; image-rendering:optimizeQuality; fill-rule:evenodd; clip-rule:evenodd"
viewBox="0 0 4000 6000"
 xmlns:xlink="http://www.w3.org/1999/xlink">
 <defs>
  <style type="text/css">
   <![CDATA[
    .str0 {stroke:black;stroke-width:7.62}
    .fil0 {fill:none}
   ]]>
  </style>
 </defs>
 <g id="图层_x0020_1">
  <metadata id="CorelCorpID_0Corel-Layer"/>
  <path class="fil0 str0" d="M1024 5326l1826 0c134,0 245,-111 245,-245l0 -4186c0,-135 -111,-245 -245,-245l-318 0c-17,0 -35,14 -35,38l0 44c0,44 -36,80 -80,80l-841 0c-44,0 -80,-36 -80,-80l0 -45c0,-28 -15,-37 -39,-37l-307 0c-134,0 -245,110 -245,245l0 4186c0,134 111,245 245,245l47 0c22,0 37,8 55,24"/>
 </g>
</svg>
