<?xml version="1.0" encoding="UTF-8"?>
<!DOCTYPE svg PUBLIC "-//W3C//DTD SVG 1.1//EN" "http://www.w3.org/Graphics/SVG/1.1/DTD/svg11.dtd">
<!-- Creator: CorelDRAW X8 -->
<svg xmlns="http://www.w3.org/2000/svg" xml:space="preserve" width="40mm" height="60mm" version="1.1" style="shape-rendering:geometricPrecision; text-rendering:geometricPrecision; image-rendering:optimizeQuality; fill-rule:evenodd; clip-rule:evenodd"
viewBox="0 0 4000 6000"
 xmlns:xlink="http://www.w3.org/1999/xlink">
 <defs>
  <style type="text/css">
   <![CDATA[
    .str0 {stroke:#332C2B;stroke-width:20}
    .fil0 {fill:none}
   ]]>
  </style>
 </defs>
 <g id="图层_x0020_1">
  <metadata id="CorelCorpID_0Corel-Layer"/>
  <g id="_3100099792432">
   <rect class="fil0 str0" x="891" y="650" width="2218" height="4700" rx="297" ry="297"/>
   <rect class="fil0 str0" x="1792" y="961" width="417" height="644" rx="264" ry="285"/>
  </g>
  <path class="fil0 str0" d="M-15174 5561l0 -4921c0,-495 405,-900 900,-900l12445 0c495,0 900,405 900,900l0 4921c0,495 -405,900 -900,900l-12445 0c-495,0 -900,-405 -900,-900z"/>
  <path class="fil0 str0" d="M-14233 3100l0 0c0,-347 284,-632 631,-632l689 0c347,0 632,285 632,632l0 0c0,347 -285,632 -632,632l-689 0c-347,0 -631,-285 -631,-632z"/>
 </g>
</svg>
