<?xml version="1.0" encoding="UTF-8"?>
<!DOCTYPE svg PUBLIC "-//W3C//DTD SVG 1.1//EN" "http://www.w3.org/Graphics/SVG/1.1/DTD/svg11.dtd">
<!-- Creator: CorelDRAW X8 -->
<svg xmlns="http://www.w3.org/2000/svg" xml:space="preserve" width="40mm" height="60mm" version="1.1" style="shape-rendering:geometricPrecision; text-rendering:geometricPrecision; image-rendering:optimizeQuality; fill-rule:evenodd; clip-rule:evenodd"
viewBox="0 0 4000 6000"
 xmlns:xlink="http://www.w3.org/1999/xlink">
 <defs>
  <style type="text/css">
   <![CDATA[
    .str0 {stroke:black;stroke-width:7.62}
    .fil0 {fill:none}
   ]]>
  </style>
 </defs>
 <g id="图层_x0020_1">
  <metadata id="CorelCorpID_0Corel-Layer"/>
  <path class="fil0 str0" d="M1233 902c0,95 65,143 159,143l287 0c72,0 128,-66 128,-143 0,-68 -50,-136 -112,-136l-335 0c-72,0 -127,59 -127,136l0 0zm767 623c104,0 188,85 188,189 0,105 -84,189 -188,189 -105,0 -189,-84 -189,-189 0,-104 84,-189 189,-189l0 0zm-897 -728l0 0c31,0 56,26 56,57l0 97c0,31 -25,57 -56,57l0 0c-31,0 -57,-26 -57,-57l0 -97c0,-31 26,-57 57,-57l0 0zm-232 4259l0 36c0,142 116,258 258,258l1742 0c142,0 258,-116 258,-258l0 -36 0 -4112 0 -36c0,-142 -116,-258 -258,-258l-1742 0c-142,0 -258,116 -258,258l0 36 0 4112z"/>
 </g>
</svg>
