<?xml version="1.0" encoding="UTF-8"?>
<!DOCTYPE svg PUBLIC "-//W3C//DTD SVG 1.1//EN" "http://www.w3.org/Graphics/SVG/1.1/DTD/svg11.dtd">
<!-- Creator: CorelDRAW X8 -->
<svg xmlns="http://www.w3.org/2000/svg" xml:space="preserve" width="40mm" height="60mm" version="1.1" style="shape-rendering:geometricPrecision; text-rendering:geometricPrecision; image-rendering:optimizeQuality; fill-rule:evenodd; clip-rule:evenodd"
viewBox="0 0 4000 6000"
 xmlns:xlink="http://www.w3.org/1999/xlink">
 <defs>
  <style type="text/css">
   <![CDATA[
    .str0 {stroke:black;stroke-width:7.62}
    .fil0 {fill:none;fill-rule:nonzero}
   ]]>
  </style>
 </defs>
 <g id="图层_x0020_1">
  <metadata id="CorelCorpID_0Corel-Layer"/>
  <g>
   <path class="fil0 str0" d="M1215 650l126 0c3,0 6,1 9,3l32 24c3,2 6,4 10,4l1247 0c2,0 5,-1 7,-2l42 -24c3,-2 5,-2 8,-2l118 -3c5,0 9,2 12,5l225 217c3,3 4,7 4,11l0 4216c0,4 -1,8 -4,11l-225 235c-3,3 -7,5 -12,5l-117 0c-4,0 -7,-1 -10,-3l-40 -30c-3,-3 -6,-4 -10,-4l-1244 1c-4,0 -8,1 -11,4l-32 28c-3,3 -6,4 -10,4l-125 0c-4,0 -7,-1 -10,-4l-255 -235c-4,-3 -5,-8 -5,-12l0 -4215c0,-5 2,-9 5,-12l255 -218c3,-3 6,-4 10,-4zm447 105l0 0c24,0 45,20 45,45l0 75c0,24 -21,45 -45,45l0 0c-24,0 -45,-21 -45,-45l0 -75c0,-25 21,-45 45,-45l0 0zm197 20l308 0c27,0 50,22 50,50l0 0c0,27 -23,50 -50,50l-308 0c-28,0 -50,-23 -50,-50l0 0c0,-28 22,-50 50,-50l0 0zm521 113c35,0 63,-29 63,-63 0,-35 -28,-63 -63,-63 -34,0 -63,28 -63,63 0,34 29,63 63,63l0 0z"/>
  </g>
 </g>
</svg>
