<?xml version="1.0" encoding="UTF-8"?>
<!DOCTYPE svg PUBLIC "-//W3C//DTD SVG 1.1//EN" "http://www.w3.org/Graphics/SVG/1.1/DTD/svg11.dtd">
<!-- Creator: CorelDRAW X8 -->
<svg xmlns="http://www.w3.org/2000/svg" xml:space="preserve" width="40mm" height="60mm" version="1.1" style="shape-rendering:geometricPrecision; text-rendering:geometricPrecision; image-rendering:optimizeQuality; fill-rule:evenodd; clip-rule:evenodd"
viewBox="0 0 4000 6000"
 xmlns:xlink="http://www.w3.org/1999/xlink">
 <defs>
  <style type="text/css">
   <![CDATA[
    .str0 {stroke:black;stroke-width:7.62}
    .fil0 {fill:none}
   ]]>
  </style>
 </defs>
 <g id="图层_x0020_1">
  <metadata id="CorelCorpID_0Corel-Layer"/>
  <path class="fil0 str0" d="M1069 5327l1747 0c123,0 223,-101 223,-224l0 -4230c0,-123 -100,-223 -223,-223l-430 0 -287 0c-14,0 -24,7 -24,26l0 32c0,40 -34,74 -75,74l0 0c-40,0 -74,-34 -74,-74l0 -32c0,-17 -14,-26 -26,-26l-281 0 -435 0c-123,0 -223,100 -223,223l0 4230c0,123 100,224 223,224l29 0c24,0 41,11 50,23"/>
 </g>
</svg>
