<?xml version="1.0" encoding="UTF-8"?>
<!DOCTYPE svg PUBLIC "-//W3C//DTD SVG 1.1//EN" "http://www.w3.org/Graphics/SVG/1.1/DTD/svg11.dtd">
<!-- Creator: CorelDRAW X8 -->
<svg xmlns="http://www.w3.org/2000/svg" xml:space="preserve" width="40mm" height="60mm" version="1.1" style="shape-rendering:geometricPrecision; text-rendering:geometricPrecision; image-rendering:optimizeQuality; fill-rule:evenodd; clip-rule:evenodd"
viewBox="0 0 4000 6000"
 xmlns:xlink="http://www.w3.org/1999/xlink">
 <defs>
  <style type="text/css">
   <![CDATA[
    .str0 {stroke:black;stroke-width:7.62}
    .fil0 {fill:none}
   ]]>
  </style>
 </defs>
 <g id="图层_x0020_1">
  <metadata id="CorelCorpID_0Corel-Layer"/>
  <path class="fil0 str0" d="M1004 5350l1811 0c118,0 214,-97 214,-214l0 -4272c0,-117 -96,-214 -214,-214l-428 0c-2,0 -3,1 -4,2l-7 8c-2,2 -3,2 -6,2l-224 0c-22,0 -36,7 -36,34l0 9c0,56 -47,103 -104,103l0 0c-56,0 -103,-47 -103,-103l0 -8c0,-29 -16,-35 -41,-35l-213 0c-4,0 -4,0 -6,-2l-7 -8c-2,-2 -3,-2 -7,-2l-444 0c-118,0 -214,97 -214,214l0 4272c0,117 96,214 214,214l176 0"/>
 </g>
</svg>
