<?xml version="1.0" encoding="UTF-8"?>
<!DOCTYPE svg PUBLIC "-//W3C//DTD SVG 1.1//EN" "http://www.w3.org/Graphics/SVG/1.1/DTD/svg11.dtd">
<!-- Creator: CorelDRAW X8 -->
<svg xmlns="http://www.w3.org/2000/svg" xml:space="preserve" width="40mm" height="60mm" version="1.1" style="shape-rendering:geometricPrecision; text-rendering:geometricPrecision; image-rendering:optimizeQuality; fill-rule:evenodd; clip-rule:evenodd"
viewBox="0 0 4000 6000"
 xmlns:xlink="http://www.w3.org/1999/xlink">
 <defs>
  <style type="text/css">
   <![CDATA[
    .str0 {stroke:black;stroke-width:7.62}
    .fil0 {fill:none}
   ]]>
  </style>
 </defs>
 <g id="图层_x0020_1">
  <metadata id="CorelCorpID_0Corel-Layer"/>
  <path class="fil0 str0" d="M927 5350l1982 0c104,0 188,-85 188,-188l0 -4324c0,-103 -84,-188 -188,-188l-355 0c-22,0 -33,5 -33,27l0 60c0,35 -28,63 -62,63l-918 0c-35,0 -63,-28 -63,-63l0 -60c0,-19 -2,-27 -25,-27l-362 0c-104,0 -188,85 -188,188l0 4324c0,103 84,188 188,188l303 0"/>
 </g>
</svg>
