<?xml version="1.0" encoding="UTF-8"?>
<!DOCTYPE svg PUBLIC "-//W3C//DTD SVG 1.1//EN" "http://www.w3.org/Graphics/SVG/1.1/DTD/svg11.dtd">
<!-- Creator: CorelDRAW X8 -->
<svg xmlns="http://www.w3.org/2000/svg" xml:space="preserve" width="40mm" height="60mm" version="1.1" style="shape-rendering:geometricPrecision; text-rendering:geometricPrecision; image-rendering:optimizeQuality; fill-rule:evenodd; clip-rule:evenodd"
viewBox="0 0 4000 6000"
 xmlns:xlink="http://www.w3.org/1999/xlink">
 <defs>
  <style type="text/css">
   <![CDATA[
    .str0 {stroke:black;stroke-width:7.62}
    .fil0 {fill:none}
   ]]>
  </style>
 </defs>
 <g id="图层_x0020_1">
  <metadata id="CorelCorpID_0Corel-Layer"/>
  <path class="fil0 str0" d="M1003 5350l1827 0c105,0 191,-86 191,-191l0 -4318c0,-105 -86,-191 -191,-191l-751 0c-14,0 -21,8 -21,19l0 55c0,29 -25,53 -54,53l0 0c-30,0 -54,-24 -54,-53l0 -55c0,-16 -14,-19 -27,-19l-150 0c-20,0 -8,24 -23,24l-96 0c-15,0 -3,-24 -24,-24l-460 0c-105,0 -191,86 -191,191l0 4318c0,105 86,191 191,191l270 0"/>
 </g>
</svg>
