<?xml version="1.0" encoding="UTF-8"?>
<!DOCTYPE svg PUBLIC "-//W3C//DTD SVG 1.1//EN" "http://www.w3.org/Graphics/SVG/1.1/DTD/svg11.dtd">
<!-- Creator: CorelDRAW 2020 (64-Bit) -->
<svg xmlns="http://www.w3.org/2000/svg" xml:space="preserve" width="40mm" height="60mm" version="1.1" style="shape-rendering:geometricPrecision; text-rendering:geometricPrecision; image-rendering:optimizeQuality; fill-rule:evenodd; clip-rule:evenodd"
viewBox="0 0 4000 6000"
 xmlns:xlink="http://www.w3.org/1999/xlink"
 xmlns:xodm="http://www.corel.com/coreldraw/odm/2003">
 <defs>
  <style type="text/css">
   <![CDATA[
    .str2 {stroke:#332C2B;stroke-width:7.62;stroke-miterlimit:22.9256}
    .str0 {stroke:#332C2B;stroke-width:20;stroke-miterlimit:22.9256}
    .str1 {stroke:#332C2B;stroke-width:7.62;stroke-linejoin:bevel;stroke-miterlimit:22.9256}
    .fil0 {fill:none;fill-rule:nonzero}
    .fil1 {fill:#332C2B;fill-rule:nonzero}
   ]]>
  </style>
 </defs>
 <g id="图层_x0020_1">
  <metadata id="CorelCorpID_0Corel-Layer"/>
  <path class="fil0 str0" d="M-29043.04 17554.76l19823.36 0c494.99,0 899.97,-405 899.97,-900l0 -28500c0,-494.99 -404.98,-900.01 -899.97,-900.01l-19400.02 0c-495,0 -900.01,405.02 -900.01,900.01l0 28500c0,495 405.01,900 900.01,900 495,0 805.46,90.27 950.99,184.2"/>
  <path class="fil0 str1" d="M-19638.93 4250.88c-37.05,-12.95 -92.93,-32.49 -114.94,-41.81 -317.5,-134.12 -562.68,-270.97 -749.58,-418.46l-32.03 -25.08c-74.62,-58.39 -139.07,-108.87 -193.08,-176.57 -66.88,-83.96 -101.28,-156.24 -114.93,-241.58 -4.87,-30.59 -7.27,-58.77 -7.27,-86.11 0,-60.12 11.71,-120.16 38.13,-194.56 7.31,-20.5 15.32,-40.92 23.29,-61.35 6.56,-16.69 11.6,-29.49 16.47,-42.33 41.63,-109.15 70.45,-213.36 88.2,-318.63 7.23,-43.11 10.9,-87.17 10.9,-130.99 0,-120.44 -27.48,-248.14 -84.03,-390.31l-12.99 -32.63c-33.51,-83.54 -65.22,-162.35 -83.53,-249.98 -6.74,-32.18 -10.2,-64.14 -10.2,-95.08 0,-95.39 34.26,-190.71 101.78,-283.31 81.17,-111.09 187.18,-201.97 280.17,-276.19 261.02,-208.46 618.67,-393.88 1006.97,-522.01 334.97,-110.59 660.61,-110.59 767.65,-110.59 51.78,0 101.14,2.29 146.65,6.77 358.45,35.53 542.64,127.95 739.67,275.66 234.52,175.79 394.82,449.23 428.83,731.56 4.87,40.6 6.18,68.65 6.71,103.43l0.1 10.69c0,148.2 -46.53,269.24 -100.4,409.36l-10.94 28.47c-8,20.99 -16.05,40.89 -23.98,60.4 -17.75,43.85 -34.47,85.16 -48.93,133.45 -10.2,34.08 -15.35,71.02 -15.35,109.86 0,120.72 48.08,244.09 100.05,359.48 8.85,19.51 15.41,38.03 22.05,56.2 5.99,16.83 10.23,28.57 14.81,40.07 57.12,144.99 83.72,276.51 83.72,413.78 0,12.2 0,22.82 -0.85,33.55 -11.96,154.65 -38.31,252.23 -108.48,401.63 -32.98,70.17 -93.8,174.84 -155.54,250.62 -64.06,78.74 -154.37,151.66 -193.92,180.72 -166.3,-309.95 -513.82,-509.44 -889.49,-509.44 -11.61,0 -23.18,0.17 -34.93,0.56 -437.41,14.92 -750.82,228.99 -883.92,603.18l-6.84 -2.43z"/>
  <path class="fil0 str1" d="M-16535.12 2702.75c118.74,121.28 251.03,333.69 270.61,569.28 -24.48,3.66 -51.08,5.6 -79.27,5.71 -312.35,1.59 -539.96,-159.98 -623.32,-229.52 -208.39,-173.85 -318.56,-391.44 -318.56,-629.25 0,-5.43 0.04,-10.83 0.18,-16.3 14.43,-0.74 29.45,-1.12 45.33,-1.12 245.39,0.03 528.78,121.1 705.03,301.2z"/>
  <g id="_1452328675968">
   <g>
    <path class="fil1" d="M3497.5 652.08l-3009.25 0 0 -3.1 3009.25 0 0 0 0 3.1zm141.14 138.05l-3.1 0 0 0 -0.18 -7.08 -0.53 -6.98 -0.89 -6.89 -1.22 -6.78 -1.54 -6.66 -1.87 -6.54 -2.19 -6.4 -2.47 -6.26 -2.78 -6.11 -3.05 -5.96 -3.33 -5.78 -3.6 -5.6 -3.86 -5.42 -4.12 -5.22 -4.34 -5.02 -4.58 -4.79 -4.8 -4.58 -5.02 -4.35 -5.22 -4.11 -5.41 -3.86 -5.61 -3.61 -5.77 -3.33 -5.95 -3.05 -6.12 -2.77 -6.26 -2.48 -6.4 -2.19 -6.54 -1.87 -6.66 -1.54 -6.78 -1.22 -6.89 -0.89 -6.98 -0.53 -7.08 -0.18 0 -3.1 7.24 0.18 7.14 0.55 7.05 0.91 6.92 1.24 6.82 1.58 6.68 1.91 6.56 2.23 6.4 2.54 6.24 2.83 6.09 3.13 5.91 3.41 5.73 3.69 5.53 3.94 5.34 4.19 5.12 4.45 4.92 4.68 4.68 4.91 4.44 5.12 4.2 5.34 3.94 5.54 3.68 5.72 3.41 5.92 3.13 6.08 2.84 6.25 2.53 6.4 2.23 6.56 1.91 6.68 1.58 6.82 1.24 6.92 0.91 7.05 0.55 7.14 0.18 7.24 0 0zm-3.1 4420.8l0 -4420.8 3.1 0 0 4420.8 0 0 -3.1 0zm-138.04 141.15l0 -3.1 0 0 7.08 -0.18 6.98 -0.53 6.89 -0.89 6.78 -1.22 6.66 -1.54 6.54 -1.87 6.4 -2.19 6.26 -2.48 6.12 -2.77 5.95 -3.05 5.77 -3.33 5.61 -3.61 5.41 -3.86 5.22 -4.11 5.02 -4.35 4.8 -4.58 4.58 -4.79 4.34 -5.02 4.12 -5.22 3.86 -5.42 3.6 -5.6 3.33 -5.78 3.05 -5.96 2.78 -6.11 2.47 -6.26 2.19 -6.4 1.87 -6.54 1.54 -6.66 1.22 -6.78 0.89 -6.89 0.53 -6.98 0.18 -7.08 3.1 0 -0.18 7.24 -0.55 7.14 -0.91 7.05 -1.24 6.92 -1.58 6.82 -1.91 6.68 -2.23 6.56 -2.53 6.4 -2.84 6.25 -3.13 6.08 -3.41 5.92 -3.68 5.72 -3.94 5.54 -4.2 5.34 -4.44 5.12 -4.68 4.91 -4.92 4.68 -5.12 4.45 -5.34 4.19 -5.53 3.94 -5.73 3.69 -5.91 3.41 -6.09 3.13 -6.24 2.83 -6.4 2.54 -6.56 2.23 -6.68 1.91 -6.82 1.58 -6.92 1.24 -7.05 0.91 -7.14 0.55 -7.24 0.18 0 0zm-3009.25 -3.1l3009.25 0 0 3.1 -3009.25 0 0 0 0 -3.1zm-141.15 -138.05l3.1 0 0 0 0.18 7.08 0.53 6.98 0.89 6.89 1.22 6.78 1.54 6.66 1.87 6.54 2.19 6.4 2.48 6.26 2.77 6.12 3.05 5.95 3.33 5.78 3.61 5.6 3.86 5.42 4.11 5.22 4.35 5.02 4.58 4.79 4.79 4.58 5.02 4.35 5.22 4.11 5.42 3.86 5.6 3.61 5.78 3.33 5.95 3.05 6.12 2.77 6.26 2.48 6.4 2.19 6.54 1.87 6.66 1.54 6.78 1.22 6.89 0.89 6.98 0.53 7.08 0.18 0 3.1 -7.24 -0.18 -7.14 -0.55 -7.05 -0.91 -6.92 -1.24 -6.82 -1.58 -6.68 -1.91 -6.56 -2.23 -6.4 -2.54 -6.24 -2.83 -6.09 -3.13 -5.92 -3.41 -5.72 -3.69 -5.54 -3.94 -5.34 -4.19 -5.12 -4.45 -4.91 -4.68 -4.68 -4.91 -4.45 -5.12 -4.19 -5.34 -3.94 -5.54 -3.69 -5.72 -3.41 -5.92 -3.13 -6.09 -2.83 -6.24 -2.54 -6.4 -2.23 -6.56 -1.91 -6.68 -1.58 -6.82 -1.24 -6.92 -0.91 -7.05 -0.55 -7.14 -0.18 -7.24 0 0zm3.1 -4420.8l0 4420.8 -3.1 0 0 -4420.8 0 0 3.1 0zm138.05 -141.15l0 3.1 0 0 -7.08 0.18 -6.98 0.53 -6.89 0.89 -6.78 1.22 -6.66 1.54 -6.54 1.87 -6.4 2.19 -6.26 2.48 -6.12 2.77 -5.95 3.05 -5.78 3.33 -5.6 3.61 -5.42 3.86 -5.22 4.11 -5.02 4.35 -4.79 4.58 -4.58 4.79 -4.35 5.02 -4.11 5.22 -3.86 5.42 -3.61 5.6 -3.33 5.78 -3.05 5.95 -2.77 6.12 -2.48 6.26 -2.19 6.4 -1.87 6.54 -1.54 6.66 -1.22 6.78 -0.89 6.89 -0.53 6.98 -0.18 7.08 -3.1 0 0.18 -7.24 0.55 -7.14 0.91 -7.05 1.24 -6.92 1.58 -6.82 1.91 -6.68 2.23 -6.56 2.54 -6.4 2.83 -6.24 3.13 -6.09 3.41 -5.92 3.69 -5.72 3.94 -5.54 4.19 -5.34 4.45 -5.12 4.68 -4.91 4.91 -4.68 5.12 -4.45 5.34 -4.19 5.54 -3.94 5.72 -3.69 5.92 -3.41 6.09 -3.13 6.24 -2.83 6.4 -2.54 6.56 -2.23 6.68 -1.91 6.82 -1.58 6.92 -1.24 7.05 -0.91 7.14 -0.55 7.24 -0.18 0 0z"/>
   </g>
   <g>
    <path class="fil0 str2" d="M1881.31 3286.89c-5.75,-2.01 -14.42,-5.04 -17.83,-6.48 -49.25,-20.81 -87.28,-42.04 -116.27,-64.91l-4.97 -3.89c-11.58,-9.06 -21.57,-16.89 -29.95,-27.39 -10.37,-13.03 -15.71,-24.24 -17.83,-37.48 -0.75,-4.74 -1.13,-9.11 -1.13,-13.35 0,-9.33 1.82,-18.64 5.92,-30.18 1.13,-3.18 2.38,-6.35 3.61,-9.52 1.02,-2.59 1.8,-4.57 2.56,-6.56 6.45,-16.93 10.92,-33.1 13.68,-49.43 1.12,-6.69 1.69,-13.52 1.69,-20.32 0,-18.68 -4.26,-38.49 -13.04,-60.54l-2.01 -5.06c-5.2,-12.96 -10.12,-25.18 -12.96,-38.78 -1.04,-4.99 -1.58,-9.95 -1.58,-14.75 0,-14.79 5.31,-29.58 15.79,-43.94 12.59,-17.23 29.03,-31.33 43.46,-42.84 40.48,-32.34 95.96,-61.1 156.19,-80.97 51.96,-17.16 102.47,-17.16 119.08,-17.16 8.03,0 15.69,0.36 22.74,1.05 55.61,5.51 84.18,19.85 114.74,42.76 36.38,27.27 61.24,69.68 66.52,113.48 0.75,6.29 0.96,10.65 1.04,16.04l0.01 1.66c0,22.99 -7.21,41.76 -15.57,63.5l-1.7 4.41c-1.24,3.26 -2.49,6.35 -3.72,9.37 -2.75,6.8 -5.34,13.21 -7.59,20.7 -1.58,5.29 -2.38,11.02 -2.38,17.04 0,18.73 7.46,37.87 15.52,55.76 1.37,3.03 2.39,5.9 3.42,8.72 0.93,2.61 1.59,4.43 2.3,6.22 8.86,22.49 12.99,42.89 12.99,64.18 0,1.89 0,3.54 -0.14,5.2 -1.85,23.99 -5.94,39.13 -16.82,62.3 -5.12,10.89 -14.55,27.12 -24.13,38.88 -9.94,12.21 -23.94,23.52 -30.08,28.03 -25.8,-48.08 -79.7,-79.02 -137.97,-79.02 -1.8,0 -3.6,0.03 -5.42,0.09 -67.85,2.31 -116.47,35.52 -137.11,93.56l-1.06 -0.38z"/>
   </g>
   <g>
    <path class="fil0 str2" d="M2362.76 3046.75c18.42,18.82 38.94,51.76 41.97,88.31 -3.79,0.56 -7.92,0.87 -12.29,0.88 -48.45,0.25 -83.76,-24.81 -96.69,-35.6 -32.32,-26.97 -49.41,-60.72 -49.41,-97.61 0,-0.84 0,-1.68 0.02,-2.52 2.24,-0.12 4.57,-0.18 7.04,-0.18 38.06,0.01 82.02,18.79 109.36,46.72z"/>
   </g>
  </g>
 </g>
</svg>
