<?xml version="1.0" encoding="UTF-8"?>
<!DOCTYPE svg PUBLIC "-//W3C//DTD SVG 1.1//EN" "http://www.w3.org/Graphics/SVG/1.1/DTD/svg11.dtd">
<!-- Creator: CorelDRAW 2020 (64-Bit) -->
<svg xmlns="http://www.w3.org/2000/svg" xml:space="preserve" width="40mm" height="60mm" version="1.1" style="shape-rendering:geometricPrecision; text-rendering:geometricPrecision; image-rendering:optimizeQuality; fill-rule:evenodd; clip-rule:evenodd"
viewBox="0 0 4000 6000"
 xmlns:xlink="http://www.w3.org/1999/xlink"
 xmlns:xodm="http://www.corel.com/coreldraw/odm/2003">
 <defs>
  <style type="text/css">
   <![CDATA[
    .str1 {stroke:#332C2B;stroke-width:20;stroke-miterlimit:22.9256}
    .str0 {stroke:#222222;stroke-width:20;stroke-miterlimit:22.9256}
    .fil0 {fill:none}
   ]]>
  </style>
 </defs>
 <g id="图层_x0020_1">
  <metadata id="CorelCorpID_0Corel-Layer"/>
  <path class="fil0 str0" d="M-4950.63 7161.16l0 -365.97c440,0 799.93,-359.99 799.93,-799.99l0 -6048.3c-1.72,-439.99 -360.03,-800.02 -800,-800l0.07 -287.91c0.01,-27.47 -22.53,-50 -50.03,-50l-12212.68 0c-240.67,0 -279.01,342.6 -486.34,342.6l-1636.45 0c-207.34,0 -363.4,-342.6 -537.92,-342.6l-548.35 0c-27.52,0 -50.03,22.49 -50.03,50l0 287.91c-440,0 -799.43,360 -799.43,800l0 6048.3c0,440 359.43,799.95 799.43,799.95l0 287.95c0,27.52 22.49,50.01 50.03,50.01l2264.78 0c334.3,0 400.85,-398.56 641.12,-398.56l4481.46 0c240.27,0 280.97,398.56 576.89,398.56l7457.49 0c27.54,0 50.03,-22.52 50.03,-50.01 0,-27.49 6.96,-50.28 20.36,-65"/>
  <path class="fil0 str1" d="M-20693.37 5432.54c0,302.5 247.5,550 550,550l3205.4 0c302.5,0 550,-247.5 550,-550l0 -1622.77c0,-302.5 -247.5,-550 -550,-550l-3205.4 0c-302.5,0 -550,247.5 -550,550l0 1622.77c0,0 21.77,-763.95 298.26,-1106.59"/>
  <g id="_1923654275696">
   <path class="fil0 str0" d="M847 5136.08l100.47 0c0,120.78 98.82,219.59 219.61,219.59l1660.34 0c120.78,-0.47 219.62,-98.83 219.61,-219.61l79.04 0.02c7.54,0 13.72,-6.19 13.72,-13.74l0 -3352.55c0,-66.07 -94.04,-76.59 -94.04,-133.51l0 -449.22c0,-56.92 94.04,-99.76 94.04,-147.67l0 -150.53c0,-7.56 -6.17,-13.74 -13.72,-13.74l-79.04 0c0,-120.78 -98.82,-219.45 -219.61,-219.45l-1660.34 0c-120.79,0 -219.6,98.67 -219.6,219.45l-79.05 0c-7.55,0 -13.73,6.18 -13.73,13.74l0 621.71c0,91.77 109.41,110.04 109.41,176l0 1230.22c0,65.96 -109.41,77.13 -109.41,158.37l0 2047.18c0,7.56 6.19,13.74 13.73,13.74 7.55,0 13.8,1.91 17.85,5.59"/>
   <path class="fil0 str1" d="M1321.53 814.47c-83.04,0 -150.98,67.95 -150.98,150.99l0 879.92c0,83.04 67.94,150.99 150.98,150.99l445.48 0c83.04,0 150.98,-67.95 150.98,-150.99l0 -879.92c0,-83.04 -67.94,-150.99 -150.98,-150.99l-445.48 0c0,0 209.72,5.98 303.78,81.88"/>
  </g>
 </g>
</svg>
