<?xml version="1.0" encoding="UTF-8"?>
<!DOCTYPE svg PUBLIC "-//W3C//DTD SVG 1.1//EN" "http://www.w3.org/Graphics/SVG/1.1/DTD/svg11.dtd">
<!-- Creator: CorelDRAW -->
<svg xmlns="http://www.w3.org/2000/svg" xml:space="preserve" width="40mm" height="60mm" style="shape-rendering:geometricPrecision; text-rendering:geometricPrecision; image-rendering:optimizeQuality; fill-rule:evenodd; clip-rule:evenodd"
viewBox="0 0 40 60"
 xmlns:xlink="http://www.w3.org/1999/xlink">
 <defs>
  <style type="text/css">
   <![CDATA[
    .str0 {stroke:#1F1A17;stroke-width:0.2}
    .fil0 {fill:none}
   ]]>
  </style>
 </defs>
 <g id="图层_x0020_10">
  <metadata id="CorelCorpID_0Corel-Layer"/>
  <path class="fil0 str0" d="M9.9551 43.8417l5.0674 0c0.7273,0 1.3224,0.676 1.3224,1.5022l0 6.6538c0,0.8263 -0.5951,1.5023 -1.3224,1.5023l-5.0674 0c-0.7273,0 -1.3223,-0.676 -1.3223,-1.5023l0 -6.6538c0,-0.8262 0.595,-1.5022 1.3223,-1.5022zm0.4397 0.9889c0.4189,0 0.7586,0.3397 0.7586,0.7587 0,0.419 -0.3397,0.7587 -0.7586,0.7587 -0.419,0 -0.7587,-0.3397 -0.7587,-0.7587 0,-0.419 0.3397,-0.7587 0.7587,-0.7587zm4.1568 0.0767c0.4054,0 0.7342,0.3067 0.7342,0.6849 0,0.3781 -0.3288,0.6848 -0.7342,0.6848 -0.4054,0 -0.7342,-0.3067 -0.7342,-0.6848 0,-0.3782 0.3288,-0.6849 0.7342,-0.6849zm0.0955 5.8518c0.4337,0 0.7854,0.3404 0.7854,0.76 0,0.4197 -0.3517,0.7601 -0.7854,0.7601 -0.4337,0 -0.7854,-0.3404 -0.7854,-0.7601 0,-0.4196 0.3517,-0.76 0.7854,-0.76zm-4.2767 0.0204c0.4162,0 0.7537,0.3351 0.7537,0.7482 0,0.4132 -0.3375,0.7483 -0.7537,0.7483 -0.4163,0 -0.7538,-0.3351 -0.7538,-0.7483 0,-0.4131 0.3375,-0.7482 0.7538,-0.7482zm14.6071 -6.9378l5.0674 0c0.7273,0 1.3223,0.676 1.3223,1.5022l0 6.6538c0,0.8263 -0.595,1.5023 -1.3223,1.5023l-5.0674 0c-0.7273,0 -1.3224,-0.676 -1.3224,-1.5023l0 -6.6538c0,-0.8262 0.5951,-1.5022 1.3224,-1.5022zm0.4396 0.9889c0.4189,0 0.7587,0.3397 0.7587,0.7587 0,0.419 -0.3398,0.7587 -0.7587,0.7587 -0.4189,0 -0.7587,-0.3397 -0.7587,-0.7587 0,-0.419 0.3398,-0.7587 0.7587,-0.7587zm4.1568 0.0767c0.4054,0 0.7342,0.3067 0.7342,0.6849 0,0.3781 -0.3288,0.6848 -0.7342,0.6848 -0.4054,0 -0.7341,-0.3067 -0.7341,-0.6848 0,-0.3782 0.3287,-0.6849 0.7341,-0.6849zm0.0955 5.8518c0.4337,0 0.7855,0.3404 0.7855,0.76 0,0.4197 -0.3518,0.7601 -0.7855,0.7601 -0.4337,0 -0.7854,-0.3404 -0.7854,-0.7601 0,-0.4196 0.3517,-0.76 0.7854,-0.76zm-4.2767 0.0204c0.4162,0 0.7538,0.3351 0.7538,0.7482 0,0.4132 -0.3376,0.7483 -0.7538,0.7483 -0.4162,0 -0.7538,-0.3351 -0.7538,-0.7483 0,-0.4131 0.3376,-0.7482 0.7538,-0.7482zm-0.4152 -25.0799l5.0674 0c0.7273,0 1.3223,0.676 1.3223,1.5023l0 6.6538c0,0.8263 -0.595,1.5023 -1.3223,1.5023l-5.0674 0c-0.7273,0 -1.3224,-0.676 -1.3224,-1.5023l0 -6.6538c0,-0.8263 0.5951,-1.5023 1.3224,-1.5023zm0.4396 0.989c0.4189,0 0.7587,0.3397 0.7587,0.7587 0,0.419 -0.3398,0.7587 -0.7587,0.7587 -0.4189,0 -0.7587,-0.3397 -0.7587,-0.7587 0,-0.419 0.3398,-0.7587 0.7587,-0.7587zm4.1568 0.0767c0.4054,0 0.7342,0.3067 0.7342,0.6849 0,0.3781 -0.3288,0.6848 -0.7342,0.6848 -0.4054,0 -0.7341,-0.3067 -0.7341,-0.6848 0,-0.3782 0.3287,-0.6849 0.7341,-0.6849zm0.0955 5.8518c0.4337,0 0.7855,0.3404 0.7855,0.76 0,0.4197 -0.3518,0.7601 -0.7855,0.7601 -0.4337,0 -0.7854,-0.3404 -0.7854,-0.7601 0,-0.4196 0.3517,-0.76 0.7854,-0.76zm-4.2767 0.0204c0.4162,0 0.7538,0.3351 0.7538,0.7482 0,0.4132 -0.3376,0.7483 -0.7538,0.7483 -0.4162,0 -0.7538,-0.3351 -0.7538,-0.7483 0,-0.4131 0.3376,-0.7482 0.7538,-0.7482zm-15.4376 -6.9379l5.0674 0c0.7273,0 1.3224,0.676 1.3224,1.5023l0 6.6538c0,0.8263 -0.5951,1.5023 -1.3224,1.5023l-5.0674 0c-0.7273,0 -1.3223,-0.676 -1.3223,-1.5023l0 -6.6538c0,-0.8263 0.595,-1.5023 1.3223,-1.5023zm0.4397 0.989c0.4189,0 0.7586,0.3397 0.7586,0.7587 0,0.419 -0.3397,0.7587 -0.7586,0.7587 -0.419,0 -0.7587,-0.3397 -0.7587,-0.7587 0,-0.419 0.3397,-0.7587 0.7587,-0.7587zm4.1568 0.0767c0.4054,0 0.7342,0.3067 0.7342,0.6849 0,0.3781 -0.3288,0.6848 -0.7342,0.6848 -0.4054,0 -0.7342,-0.3067 -0.7342,-0.6848 0,-0.3782 0.3288,-0.6849 0.7342,-0.6849zm0.0955 5.8518c0.4337,0 0.7854,0.3404 0.7854,0.76 0,0.4197 -0.3517,0.7601 -0.7854,0.7601 -0.4337,0 -0.7854,-0.3404 -0.7854,-0.7601 0,-0.4196 0.3517,-0.76 0.7854,-0.76zm-4.2767 0.0204c0.4162,0 0.7537,0.3351 0.7537,0.7482 0,0.4132 -0.3375,0.7483 -0.7537,0.7483 -0.4163,0 -0.7538,-0.3351 -0.7538,-0.7483 0,-0.4131 0.3375,-0.7482 0.7538,-0.7482zm-0.4153 -26.1375l5.0674 0c0.7273,0 1.3224,0.676 1.3224,1.5023l0 6.6538c0,0.8262 -0.5951,1.5022 -1.3224,1.5022l-5.0674 0c-0.7273,0 -1.3223,-0.676 -1.3223,-1.5022l0 -6.6538c0,-0.8263 0.595,-1.5023 1.3223,-1.5023zm0.4397 0.9889c0.4189,0 0.7586,0.3398 0.7586,0.7588 0,0.4189 -0.3397,0.7587 -0.7586,0.7587 -0.419,0 -0.7587,-0.3398 -0.7587,-0.7587 0,-0.419 0.3397,-0.7588 0.7587,-0.7588zm4.1568 0.0768c0.4054,0 0.7342,0.3067 0.7342,0.6848 0,0.3782 -0.3288,0.6849 -0.7342,0.6849 -0.4054,0 -0.7342,-0.3067 -0.7342,-0.6849 0,-0.3781 0.3288,-0.6848 0.7342,-0.6848zm0.0955 5.8518c0.4337,0 0.7854,0.3403 0.7854,0.76 0,0.4197 -0.3517,0.76 -0.7854,0.76 -0.4337,0 -0.7854,-0.3403 -0.7854,-0.76 0,-0.4197 0.3517,-0.76 0.7854,-0.76zm-4.2767 0.0204c0.4162,0 0.7537,0.3351 0.7537,0.7482 0,0.4131 -0.3375,0.7482 -0.7537,0.7482 -0.4163,0 -0.7538,-0.3351 -0.7538,-0.7482 0,-0.4131 0.3375,-0.7482 0.7538,-0.7482zm14.6071 -6.9379l5.0674 0c0.7273,0 1.3223,0.676 1.3223,1.5023l0 6.6538c0,0.8262 -0.595,1.5022 -1.3223,1.5022l-5.0674 0c-0.7273,0 -1.3224,-0.676 -1.3224,-1.5022l0 -6.6538c0,-0.8263 0.5951,-1.5023 1.3224,-1.5023zm0.4396 0.9889c0.4189,0 0.7587,0.3398 0.7587,0.7588 0,0.4189 -0.3398,0.7587 -0.7587,0.7587 -0.4189,0 -0.7587,-0.3398 -0.7587,-0.7587 0,-0.419 0.3398,-0.7588 0.7587,-0.7588zm4.1568 0.0768c0.4054,0 0.7342,0.3067 0.7342,0.6848 0,0.3782 -0.3288,0.6849 -0.7342,0.6849 -0.4054,0 -0.7341,-0.3067 -0.7341,-0.6849 0,-0.3781 0.3287,-0.6848 0.7341,-0.6848zm0.0955 5.8518c0.4337,0 0.7855,0.3403 0.7855,0.76 0,0.4197 -0.3518,0.76 -0.7855,0.76 -0.4337,0 -0.7854,-0.3403 -0.7854,-0.76 0,-0.4197 0.3517,-0.76 0.7854,-0.76zm-4.2767 0.0204c0.4162,0 0.7538,0.3351 0.7538,0.7482 0,0.4131 -0.3376,0.7482 -0.7538,0.7482 -0.4162,0 -0.7538,-0.3351 -0.7538,-0.7482 0,-0.4131 0.3376,-0.7482 0.7538,-0.7482z"/>
 </g>
</svg>
