<?xml version="1.0" encoding="UTF-8"?>
<!DOCTYPE svg PUBLIC "-//W3C//DTD SVG 1.1//EN" "http://www.w3.org/Graphics/SVG/1.1/DTD/svg11.dtd">
<!-- Creator: CorelDRAW X8 -->
<svg xmlns="http://www.w3.org/2000/svg" xml:space="preserve" width="40mm" height="60mm" version="1.1" style="shape-rendering:geometricPrecision; text-rendering:geometricPrecision; image-rendering:optimizeQuality; fill-rule:evenodd; clip-rule:evenodd"
viewBox="0 0 4000 6000"
 xmlns:xlink="http://www.w3.org/1999/xlink">
 <defs>
  <style type="text/css">
   <![CDATA[
    .str0 {stroke:#332C2B;stroke-width:19.4}
    .fil0 {fill:none;fill-rule:nonzero}
   ]]>
  </style>
 </defs>
 <g id="图层_x0020_1">
  <metadata id="CorelCorpID_0Corel-Layer"/>
  <g id="_2345803308112">
   <g>
    <line class="fil0 str0" x1="3299" y1="653" x2="3299" y2= "689" />
    <polyline class="fil0 str0" points="847,5099 847,5109 848,5108 849,5108 "/>
    <path class="fil0 str0" d="M849 5108c10,66 49,101 109,102 63,0 113,-50 113,-113 0,-61 -51,-112 -112,-112 -61,0 -112,50 -112,109 0,9 1,15 4,36"/>
    <path class="fil0 str0" d="M847 4647c11,73 50,112 113,112 62,0 112,-50 112,-112 0,-62 -51,-113 -112,-113 -61,0 -112,50 -112,110 0,9 0,11 3,35"/>
    <polyline class="fil0 str0" points="1302,5100 1304,5110 1303,5110 "/>
    <path class="fil0 str0" d="M1303 5110c4,58 52,101 111,101 61,0 112,-50 112,-112 0,-61 -51,-111 -112,-111 -62,0 -112,49 -112,109 0,9 1,14 3,35"/>
    <path class="fil0 str0" d="M1302 4647c5,67 50,112 112,112 62,0 113,-50 113,-112 0,-62 -51,-113 -113,-113 -61,0 -111,50 -111,112 0,7 1,17 2,33"/>
    <path class="fil0 str0" d="M702 4892c17,261 224,458 483,458 266,0 483,-217 483,-483 0,-267 -217,-484 -483,-484 -267,0 -484,216 -484,481 0,11 0,12 3,58"/>
    <polyline class="fil0 str0" points="2479,5099 2480,5108 2480,5108 "/>
    <path class="fil0 str0" d="M2480 5108c5,68 41,102 110,102 62,-1 112,-50 112,-113 0,-61 -50,-112 -112,-112 -62,0 -114,53 -111,113 0,8 1,14 4,32"/>
    <path class="fil0 str0" d="M2479 4647c11,74 49,112 112,112 62,0 112,-50 112,-112 0,-62 -51,-113 -112,-113 -62,0 -111,49 -111,112 0,9 0,10 3,33"/>
    <path class="fil0 str0" d="M2933 5100c11,72 51,112 113,112 62,0 112,-50 112,-112 0,-62 -50,-112 -112,-112 -63,0 -111,48 -111,111 0,9 0,15 3,33"/>
    <path class="fil0 str0" d="M2933 4647c12,74 50,112 113,112 62,0 112,-50 112,-112 0,-62 -50,-113 -112,-113 -62,0 -111,49 -111,112 0,9 0,15 3,33"/>
    <polyline class="fil0 str0" points="2334,4892 2335,4902 2335,4902 "/>
    <path class="fil0 str0" d="M2335 4902c0,115 69,250 172,335 87,72 196,111 308,111 266,0 483,-217 483,-483 0,-267 -217,-485 -484,-485 -262,0 -482,218 -482,477 0,17 0,20 3,65"/>
    <polyline class="fil0 str0" points="847,3858 848,3868 849,3868 "/>
    <path class="fil0 str0" d="M849 3868c0,53 51,101 110,101 61,1 112,-50 112,-112 0,-74 -38,-112 -112,-112 -61,0 -112,49 -112,109 0,8 1,16 4,37"/>
    <path class="fil0 str0" d="M847 3407c7,41 7,44 20,62 21,31 55,49 92,49 62,0 113,-50 113,-111 0,-63 -50,-113 -112,-113 -62,0 -112,50 -112,110 0,8 1,15 3,35"/>
    <polyline class="fil0 str0" points="1302,3860 1304,3869 1303,3869 "/>
    <path class="fil0 str0" d="M1303 3869c0,54 52,102 111,102 74,0 112,-37 112,-112 0,-61 -51,-112 -112,-112 -62,0 -112,49 -112,110 0,7 2,27 3,35"/>
    <path class="fil0 str0" d="M1302 3407c5,66 50,111 112,111 62,0 113,-50 113,-111 0,-62 -51,-113 -113,-113 -62,0 -111,50 -111,112 0,7 0,10 2,33"/>
    <path class="fil0 str0" d="M702 3651c0,59 24,145 57,205 86,157 249,254 426,254 266,0 483,-218 483,-484 0,-267 -217,-484 -483,-484 -267,0 -484,216 -484,483 0,14 0,14 3,56"/>
    <line class="fil0 str0" x1="704" y1="3681" x2="704" y2= "3681" />
    <polyline class="fil0 str0" points="2479,3858 2480,3868 2480,3868 "/>
    <path class="fil0 str0" d="M2480 3868c4,57 51,102 110,101 75,0 112,-37 112,-111 0,-63 -50,-113 -112,-113 -62,0 -114,52 -111,113 0,8 1,14 4,33"/>
    <path class="fil0 str0" d="M2479 3407c10,72 50,111 112,111 62,0 112,-50 112,-111 0,-62 -50,-113 -112,-113 -63,0 -111,49 -111,112 0,9 0,10 3,33"/>
    <path class="fil0 str0" d="M2933 3860c12,73 51,112 113,112 62,0 112,-51 112,-112 0,-63 -50,-113 -112,-113 -63,0 -111,49 -111,112 0,9 0,10 3,33"/>
    <path class="fil0 str0" d="M2933 3407c14,75 50,111 113,111 62,0 112,-50 112,-112 0,-62 -50,-112 -112,-112 -61,0 -111,50 -111,110 0,8 0,11 3,35"/>
    <polyline class="fil0 str0" points="2334,3651 2335,3661 2335,3661 "/>
    <path class="fil0 str0" d="M2335 3661c0,114 70,251 172,336 87,71 195,110 307,110 266,0 484,-217 484,-482 0,-267 -217,-485 -482,-485 -266,0 -484,216 -484,480 0,14 0,14 3,61"/>
    <polyline class="fil0 str0" points="847,2608 848,2618 849,2618 "/>
    <path class="fil0 str0" d="M849 2618c10,66 49,101 109,101 63,1 113,-49 113,-112 0,-62 -51,-112 -112,-112 -61,0 -112,50 -112,109 0,8 1,15 4,36"/>
    <path class="fil0 str0" d="M847 2157c11,73 50,112 113,112 62,0 112,-50 112,-112 0,-62 -51,-113 -112,-113 -61,0 -112,50 -112,110 0,8 1,19 3,35"/>
    <polyline class="fil0 str0" points="1302,2610 1304,2620 1303,2620 "/>
    <path class="fil0 str0" d="M1303 2620c4,58 52,101 111,101 61,0 112,-50 112,-112 0,-61 -51,-112 -112,-112 -62,0 -112,50 -112,110 0,8 1,16 3,35"/>
    <path class="fil0 str0" d="M1302 2157c5,67 50,112 112,112 62,0 113,-50 113,-112 0,-62 -51,-113 -113,-113 -61,0 -111,50 -111,112"/>
    <line class="fil0 str0" x1="1303" y1="2156" x2="1303" y2= "2157" />
    <path class="fil0 str0" d="M1303 2157c0,6 0,6 2,28"/>
    <line class="fil0 str0" x1="1305" y1="2185" x2="1305" y2= "2189" />
    <path class="fil0 str0" d="M702 2402c17,261 224,458 483,458 266,0 483,-217 483,-483 0,-267 -217,-484 -483,-484 -267,0 -484,216 -484,481 0,11 0,12 3,58"/>
    <polyline class="fil0 str0" points="2479,2608 2480,2618 2480,2618 "/>
    <path class="fil0 str0" d="M2480 2618c5,68 41,102 110,101 62,0 112,-49 112,-112 0,-61 -50,-112 -112,-112 -62,0 -114,53 -111,113 0,8 1,14 4,32"/>
    <path class="fil0 str0" d="M2479 2157c11,74 49,112 112,112 62,0 112,-50 112,-112 0,-62 -51,-113 -112,-113 -62,0 -111,49 -111,112 0,9 1,15 3,33"/>
    <path class="fil0 str0" d="M2933 2610c12,73 50,112 113,112 62,0 112,-50 112,-112 0,-62 -50,-112 -112,-112 -63,0 -111,48 -111,111 0,9 0,14 3,33"/>
    <path class="fil0 str0" d="M2933 2157c12,73 50,112 113,112 62,0 112,-50 112,-112 0,-62 -50,-113 -112,-113 -62,0 -111,49 -111,112 0,9 0,14 3,33"/>
    <polyline class="fil0 str0" points="2334,2402 2335,2412 2335,2412 "/>
    <path class="fil0 str0" d="M2335 2412c0,114 69,250 172,335 87,72 196,111 308,111 266,0 483,-217 483,-483 0,-267 -217,-485 -484,-485 -262,0 -482,217 -482,477 0,17 0,20 3,65"/>
    <polyline class="fil0 str0" points="847,1368 848,1378 849,1378 "/>
    <path class="fil0 str0" d="M849 1378c0,53 51,101 110,101 61,0 112,-50 112,-112 0,-75 -38,-112 -113,-112 -60,0 -111,49 -111,109 0,8 1,16 4,36"/>
    <path class="fil0 str0" d="M847 917c10,72 50,111 112,111 62,0 113,-50 113,-111 0,-63 -50,-113 -112,-113 -63,0 -112,49 -112,112 0,9 0,10 3,33"/>
    <polyline class="fil0 str0" points="1302,1370 1304,1379 1303,1379 "/>
    <path class="fil0 str0" d="M1303 1379c4,58 52,102 111,102 74,0 112,-37 112,-112 0,-61 -51,-112 -112,-112 -62,0 -112,49 -112,110"/>
    <line class="fil0 str0" x1="1302" y1="1367" x2="1302" y2= "1368" />
    <path class="fil0 str0" d="M1302 1368c0,7 0,7 3,32"/>
    <line class="fil0 str0" x1="1305" y1="1400" x2="1305" y2= "1402" />
    <path class="fil0 str0" d="M1302 917c5,67 50,111 112,111 62,0 113,-50 113,-111 0,-62 -51,-113 -113,-113 -62,0 -111,50 -111,112 0,7 0,14 2,33"/>
    <path class="fil0 str0" d="M702 1161c19,264 223,458 483,458 267,0 483,-217 483,-484 0,-267 -217,-483 -485,-483 -266,0 -482,216 -482,484 0,14 0,15 3,55"/>
    <polyline class="fil0 str0" points="2479,1368 2480,1378 2480,1378 "/>
    <path class="fil0 str0" d="M2480 1378c4,57 51,101 110,101 75,0 112,-37 112,-112 0,-62 -50,-112 -112,-112 -62,0 -114,52 -111,113 0,8 1,14 4,32"/>
    <path class="fil0 str0" d="M2479 917c10,73 49,111 112,111 62,0 112,-50 112,-112 0,-62 -50,-112 -112,-112 -63,0 -111,49 -111,112 0,9 0,10 3,33"/>
    <path class="fil0 str0" d="M2933 1370c11,72 51,111 113,111 62,0 112,-50 112,-111 0,-63 -50,-113 -112,-113 -63,0 -111,49 -111,112 0,9 0,10 3,33"/>
    <path class="fil0 str0" d="M2933 917c11,72 51,111 113,111 62,0 112,-50 112,-111 0,-63 -50,-113 -112,-113 -63,0 -111,49 -111,112 0,9 0,10 3,33"/>
    <polyline class="fil0 str0" points="2334,1161 2335,1171 2335,1171 "/>
    <path class="fil0 str0" d="M2335 1171c0,0 0,1 0,1 0,113 71,251 172,335 87,71 195,110 307,110 266,0 484,-217 484,-483 0,-266 -217,-484 -482,-484 -266,0 -484,216 -484,479 0,14 1,29 3,62"/>
   </g>
  </g>
 </g>
</svg>
