<?xml version="1.0" encoding="UTF-8"?>
<!DOCTYPE svg PUBLIC "-//W3C//DTD SVG 1.1//EN" "http://www.w3.org/Graphics/SVG/1.1/DTD/svg11.dtd">
<!-- Creator: CorelDRAW 2020 (64-Bit) -->
<svg xmlns="http://www.w3.org/2000/svg" xml:space="preserve" width="40mm" height="60mm" version="1.1" style="shape-rendering:geometricPrecision; text-rendering:geometricPrecision; image-rendering:optimizeQuality; fill-rule:evenodd; clip-rule:evenodd"
viewBox="0 0 4000 6000"
 xmlns:xlink="http://www.w3.org/1999/xlink"
 xmlns:xodm="http://www.corel.com/coreldraw/odm/2003">
 <defs>
  <style type="text/css">
   <![CDATA[
    .str0 {stroke:#332C2B;stroke-width:20;stroke-miterlimit:22.9256}
    .fil0 {fill:none}
   ]]>
  </style>
 </defs>
 <g id="图层_x0020_1">
  <metadata id="CorelCorpID_0Corel-Layer"/>
  <path class="fil0 str0" d="M1258.41 839.12l1469.98 0c133.1,0 241.99,108.9 241.99,241.99l0 3848.94c0,133.09 -108.89,241.99 -241.99,241.99l-1469.98 0c-133.1,0 -241.99,-108.9 -241.99,-241.99l0 -3848.94c0,-133.09 108.89,-241.99 241.99,-241.99zm-10.31 375.36c-23.48,-106.71 1.92,-275.23 157.12,-275.23 155.19,0 281,125.81 281,281 0,155.19 -125.81,281.01 -281,281.01 -155.2,0 -281.01,-125.82 -281.01,-281.01 0,-155.19 125.81,-281 281.01,-281m-157.12 911.5c-23.48,-106.71 1.92,-275.23 157.12,-275.23 155.19,0 281,125.81 281,281.01 0,155.19 -125.81,281 -281,281 -155.2,0 -281.01,-125.81 -281.01,-281 0,-155.2 125.81,-281.01 281.01,-281.01m1609.92 -575.1l121 0c7.39,0 13.44,5.98 13.44,13.35l0 3983.58c0,7.36 -6.06,13.35 -13.44,13.35l-121 0c-7.38,0 -13.44,-5.98 -13.44,-13.35l0 -3983.58c0,-7.38 6.05,-13.35 13.44,-13.35zm64.65 269.41l0 0c27.98,0 50.87,22.89 50.87,50.87l0 474.19c0,27.98 -22.89,50.87 -50.87,50.87l0 0c-27.97,0 -50.86,-22.89 -50.86,-50.87l0 -474.19c0,-27.98 22.89,-50.87 50.86,-50.87zm-4.51 871.63l0 0c24.01,0 43.66,19.65 43.66,43.66l0 602.24c0,24.01 -19.65,43.66 -43.66,43.66l0 0c-24.02,0 -43.67,-19.65 -43.67,-43.66l0 -602.24c0,-24.01 19.65,-43.66 43.67,-43.66zm-2224.62 -1141.04l121 0c7.39,0 13.44,5.98 13.44,13.35l0 3983.58c0,7.36 -6.06,13.35 -13.44,13.35l-121 0c-7.38,0 -13.44,-5.98 -13.44,-13.35l0 -3983.58c0,-7.38 6.05,-13.35 13.44,-13.35zm61.88 1405.55l0.01 0c28.37,0 51.57,23.21 51.57,51.57l0 321.72c0,28.37 -23.2,51.58 -51.57,51.58l-0.01 0c-28.37,0 -51.57,-23.21 -51.57,-51.58l0 -321.72c0,-28.36 23.2,-51.57 51.57,-51.57zm-21.36 2936.26l0 -121c0,-7.39 6.05,-13.44 13.47,-13.44l2177.51 0c7.42,0 13.47,6.05 13.47,13.44l0 121c0,7.39 -6.05,13.44 -13.47,13.44l-2177.51 0c-7.42,0 -13.47,-6.05 -13.47,-13.44zm455.94 -88.26l248.82 0c16.29,0 29.61,13.33 29.61,29.62l0 0c0,16.29 -13.32,29.61 -29.61,29.61l-248.82 0c-16.29,0 -29.61,-13.32 -29.61,-29.61l0 0c0,-16.29 13.32,-29.62 29.61,-29.62zm569.51 -18.87l156.87 0c25.93,0 47.13,21.2 47.13,47.13l0 0c0,25.92 -21.2,47.13 -47.13,47.13l-156.87 0c-25.92,0 -47.13,-21.21 -47.13,-47.13l0 0c0,-25.93 21.21,-47.13 47.13,-47.13zm352.35 21.52l42.33 0c13.6,0 24.73,11.12 24.73,24.72l0 0c0,13.6 -11.13,24.72 -24.73,24.72l-42.33 0c-13.6,0 -24.72,-11.12 -24.72,-24.72l0 0c0,-13.6 11.12,-24.72 24.72,-24.72zm320.6 -35.58c32.36,0 58.6,26.24 58.6,58.6 0,32.36 -26.24,58.6 -58.6,58.6 -32.37,0 -58.61,-26.24 -58.61,-58.6 0,-32.36 26.24,-58.6 58.61,-58.6zm-1698.4 -4430.93l0 -121c0,-7.39 6.05,-13.44 13.47,-13.44l2177.51 0c7.42,0 13.47,6.05 13.47,13.44l0 121c0,7.39 -6.05,13.44 -13.47,13.44l-2177.51 0c-7.42,0 -13.47,-6.05 -13.47,-13.44z"/>
 </g>
</svg>
