<?xml version="1.0" encoding="UTF-8"?>
<!DOCTYPE svg PUBLIC "-//W3C//DTD SVG 1.1//EN" "http://www.w3.org/Graphics/SVG/1.1/DTD/svg11.dtd">
<!-- Creator: CorelDRAW X8 -->
<svg xmlns="http://www.w3.org/2000/svg" xml:space="preserve" width="40mm" height="60mm" version="1.1" style="shape-rendering:geometricPrecision; text-rendering:geometricPrecision; image-rendering:optimizeQuality; fill-rule:evenodd; clip-rule:evenodd"
viewBox="0 0 4000 6000"
 xmlns:xlink="http://www.w3.org/1999/xlink">
 <defs>
  <style type="text/css">
   <![CDATA[
    .str0 {stroke:#222222;stroke-width:10}
    .fil0 {fill:none}
   ]]>
  </style>
 </defs>
 <g id="图层_x0020_1">
  <metadata id="CorelCorpID_0Corel-Layer"/>
  <g id="_2677738621184">
   <path class="fil0 str0" d="M1321 2205c0,-99 -160,-194 -319,-194 -158,0 -288,-129 -288,-288l0 -785c0,-158 130,-288 288,-288l572 0c158,0 288,130 288,288l0 785c0,159 -130,288 -288,288l-898 0"/>
   <path class="fil0 str0" d="M1321 3778c0,-99 -160,-195 -319,-195 -158,0 -288,-129 -288,-287l0 -786c0,-158 130,-288 288,-288l572 0c158,0 288,130 288,288l0 786c0,158 -130,287 -288,287l-898 0"/>
   <path class="fil0 str0" d="M1321 5350c0,-99 -160,-194 -319,-194 -158,0 -288,-130 -288,-288l0 -785c0,-159 130,-288 288,-288l572 0c158,0 288,129 288,288l0 785c0,158 -130,288 -288,288l-898 0"/>
   <path class="fil0 str0" d="M2784 2205c0,-99 -161,-194 -319,-194 -159,0 -288,-129 -288,-288l0 -785c0,-158 129,-288 288,-288l571 0c159,0 288,130 288,288l0 785c0,159 -129,288 -288,288l-898 0"/>
   <path class="fil0 str0" d="M2784 3778c0,-99 -161,-195 -319,-195 -159,0 -288,-129 -288,-287l0 -786c0,-158 129,-288 288,-288l571 0c159,0 288,130 288,288l0 786c0,158 -129,287 -288,287l-898 0"/>
   <path class="fil0 str0" d="M2784 5350c0,-99 -161,-194 -319,-194 -159,0 -288,-130 -288,-288l0 -785c0,-159 129,-288 288,-288l571 0c159,0 288,129 288,288l0 785c0,158 -129,288 -288,288l-898 0"/>
  </g>
  <g id="_2677738620064">
   <path class="fil0 str0" d="M-13561 4856c-271,0 -531,440 -531,873 0,433 -355,787 -788,787l-2147 0c-433,0 -788,-354 -788,-787l0 -1563c0,-434 355,-788 788,-788l2147 0c433,0 788,354 788,788l0 2456"/>
   <path class="fil0 str0" d="M-9261 4856c-271,0 -531,440 -531,873 0,433 -355,787 -788,787l-2147 0c-433,0 -788,-354 -788,-787l0 -1563c0,-434 355,-788 788,-788l2147 0c433,0 788,354 788,788l0 2456"/>
   <path class="fil0 str0" d="M-4961 4856c-271,0 -531,440 -531,873 0,433 -355,787 -788,787l-2147 0c-433,0 -788,-354 -788,-787l0 -1563c0,-434 355,-788 788,-788l2147 0c433,0 788,354 788,788l0 2456"/>
   <path class="fil0 str0" d="M-13561 856c-271,0 -531,440 -531,873 0,433 -355,787 -788,787l-2147 0c-433,0 -788,-354 -788,-787l0 -1563c0,-434 355,-788 788,-788l2147 0c433,0 788,354 788,788l0 2456"/>
   <path class="fil0 str0" d="M-9261 856c-271,0 -531,440 -531,873 0,433 -355,787 -788,787l-2147 0c-433,0 -788,-354 -788,-787l0 -1563c0,-434 355,-788 788,-788l2147 0c433,0 788,354 788,788l0 2456"/>
   <path class="fil0 str0" d="M-4961 856c-271,0 -531,440 -531,873 0,433 -355,787 -788,787l-2147 0c-433,0 -788,-354 -788,-787l0 -1563c0,-434 355,-788 788,-788l2147 0c433,0 788,354 788,788l0 2456"/>
  </g>
 </g>
</svg>
