<?xml version="1.0" encoding="UTF-8"?>
<!DOCTYPE svg PUBLIC "-//W3C//DTD SVG 1.1//EN" "http://www.w3.org/Graphics/SVG/1.1/DTD/svg11.dtd">
<!-- Creator: CorelDRAW X8 -->
<svg xmlns="http://www.w3.org/2000/svg" xml:space="preserve" width="40mm" height="60mm" version="1.1" style="shape-rendering:geometricPrecision; text-rendering:geometricPrecision; image-rendering:optimizeQuality; fill-rule:evenodd; clip-rule:evenodd"
viewBox="0 0 4000 6000"
 xmlns:xlink="http://www.w3.org/1999/xlink">
 <defs>
  <style type="text/css">
   <![CDATA[
    .str0 {stroke:black;stroke-width:7.62}
    .fil0 {fill:none}
   ]]>
  </style>
 </defs>
 <g id="图层_x0020_1">
  <metadata id="CorelCorpID_0Corel-Layer"/>
  <path class="fil0 str0" d="M1002 5350l1838 0c135,0 246,-111 246,-247l0 -4206c0,-136 -111,-247 -246,-247l-1680 0c-135,0 -246,111 -246,247l0 4206c0,136 111,247 246,247l55 0m828 -357c-1,-15 -14,-28 -41,-30 -95,0 -172,77 -172,172 0,96 77,173 172,173 96,0 173,-77 173,-173 0,-95 -77,-172 -173,-172m-123 -4114c-4,-16 -13,-28 -50,-28l-33 0c-17,0 -31,14 -31,31l0 0c0,17 14,31 31,31l394 0c17,0 31,-14 31,-31l0 0c0,-17 -14,-31 -31,-31l-361 0"/>
 </g>
</svg>
