<?xml version="1.0" encoding="UTF-8"?>
<!DOCTYPE svg PUBLIC "-//W3C//DTD SVG 1.1//EN" "http://www.w3.org/Graphics/SVG/1.1/DTD/svg11.dtd">
<!-- Creator: CorelDRAW 2020 (64-Bit) -->
<svg xmlns="http://www.w3.org/2000/svg" xml:space="preserve" width="40mm" height="60mm" version="1.1" style="shape-rendering:geometricPrecision; text-rendering:geometricPrecision; image-rendering:optimizeQuality; fill-rule:evenodd; clip-rule:evenodd"
viewBox="0 0 4000 6000"
 xmlns:xlink="http://www.w3.org/1999/xlink"
 xmlns:xodm="http://www.corel.com/coreldraw/odm/2003">
 <defs>
  <style type="text/css">
   <![CDATA[
    .str1 {stroke:#332C2B;stroke-width:20;stroke-miterlimit:22.9256}
    .str2 {stroke:#332C2B;stroke-width:20;stroke-miterlimit:22.9256}
    .str0 {stroke:#E72D28;stroke-width:20;stroke-miterlimit:22.9256}
    .fil0 {fill:none}
   ]]>
  </style>
   <clipPath id="id0">
    <rect x="-40767.58" y="-6120.37" width="13634.2" height="17006.89"/>
   </clipPath>
 </defs>
 <g id="图层_x0020_1">
  <metadata id="CorelCorpID_0Corel-Layer"/>
  <g style="clip-path:url(#id0)">
   <image x="-40767.58" y="-6120.37" width="13634.2" height="17006.89" xlink:href="Poco X4 NFC -11i（前膜全屏）_Images\Poco X4 NFC -11i（前膜全屏）_ImgID1.png"/>
  </g>
  <rect class="fil0 str0" x="-35158.26" y="-5765.17" width="7620" height="16370"/>
  <rect class="fil0 str0" x="-35032.54" y="-5632.88" width="7379.14" height="16137.46" rx="700" ry="694.82"/>
  <circle class="fil0 str1" cx="-31342.88" cy="-5198.48" r="194.47"/>
  <path class="fil0 str2" d="M-5905.76 6051.34l0 -6534.76c0,-385 -315.01,-700 -700,-700l-14737.46 0c-385,0 -700,314.99 -700,700l0 5979.13c0,385.01 315,700 700,700l14737.46 0c385,0 700,-314.99 700,-700 0,-385.01 83.68,-502.47 140.57,-579.86"/>
  <path class="fil0 str2" d="M-21803.29 2506.06c0,107.4 87.07,194.47 194.47,194.47 107.4,0 194.47,-87.07 194.47,-194.47 0,-107.4 -87.07,-194.47 -194.47,-194.47 -107.4,0 -194.47,87.07 -194.47,194.47 0,107.4 111.17,119.16 145.56,119.16"/>
  <g id="_2496479962976">
   <path class="fil0 str2" d="M1122.16 650.53l1741.41 0c112.14,0 203.88,91.74 203.88,203.87l0 4292.26c0,112.13 -91.74,203.87 -203.88,203.87l-1741.41 0c-112.13,0 -203.87,-91.74 -203.87,-203.87l0 -4292.26c0,-112.13 91.74,-203.87 203.87,-203.87z"/>
   <path class="fil0 str2" d="M1992.89 720.41c31.28,0 56.64,25.36 56.64,56.64 0,31.28 -25.36,56.64 -56.64,56.64 -31.28,0 -56.64,-25.36 -56.64,-56.64 0,-31.28 25.36,-56.64 56.64,-56.64z"/>
  </g>
 </g>
</svg>
