<?xml version="1.0" encoding="UTF-8"?>
<!DOCTYPE svg PUBLIC "-//W3C//DTD SVG 1.1//EN" "http://www.w3.org/Graphics/SVG/1.1/DTD/svg11.dtd">
<!-- Creator: CorelDRAW X8 -->
<svg xmlns="http://www.w3.org/2000/svg" xml:space="preserve" width="40mm" height="60mm" version="1.1" style="shape-rendering:geometricPrecision; text-rendering:geometricPrecision; image-rendering:optimizeQuality; fill-rule:evenodd; clip-rule:evenodd"
viewBox="0 0 4000 6000"
 xmlns:xlink="http://www.w3.org/1999/xlink">
 <defs>
  <style type="text/css">
   <![CDATA[
    .str0 {stroke:#332C2B;stroke-width:7.62}
    .fil0 {fill:none}
   ]]>
  </style>
 </defs>
 <g id="图层_x0020_1">
  <metadata id="CorelCorpID_0Corel-Layer"/>
  <path class="fil0 str0" d="M947 5350l1926 0c123,0 224,-101 224,-224l0 -4252c0,-123 -101,-224 -224,-224l-1746 0c-123,0 -224,101 -224,224l0 4252c0,123 101,224 224,224l157 0m-128 -4627l268 0c83,0 150,67 150,149l0 0c0,82 -67,149 -150,149l-268 0c-82,0 -149,-67 -149,-149l0 0c0,-82 67,-149 149,-149zm0 39l268 0c66,0 119,53 119,119l0 0c0,65 -53,119 -119,119l-268 0c-65,0 -119,-54 -119,-119l0 0c0,-66 54,-119 119,-119zm67 85c1,-38 -43,-68 -59,-69 -58,0 -105,47 -105,104 0,58 47,105 105,105 57,0 104,-47 104,-105 0,-57 -47,-104 -104,-104m321 74c1,-37 -42,-65 -57,-66 -55,0 -100,44 -100,100 0,55 45,100 100,100 55,0 100,-45 100,-100 0,-56 -45,-100 -100,-100m343 78c1,-27 -31,-48 -42,-49 -41,0 -75,33 -75,75 0,41 34,74 75,74 41,0 74,-33 74,-74 0,-42 -33,-75 -74,-75m385 887c2,-70 -80,-125 -111,-128 -107,0 -194,87 -194,194 0,107 87,194 194,194 108,0 194,-87 194,-194 0,-107 -86,-194 -194,-194"/>
 </g>
</svg>
