<?xml version="1.0" encoding="UTF-8"?>
<!DOCTYPE svg PUBLIC "-//W3C//DTD SVG 1.1//EN" "http://www.w3.org/Graphics/SVG/1.1/DTD/svg11.dtd">
<!-- Creator: CorelDRAW X8 -->
<svg xmlns="http://www.w3.org/2000/svg" xml:space="preserve" width="40mm" height="60mm" version="1.1" style="shape-rendering:geometricPrecision; text-rendering:geometricPrecision; image-rendering:optimizeQuality; fill-rule:evenodd; clip-rule:evenodd"
viewBox="0 0 4000 6000"
 xmlns:xlink="http://www.w3.org/1999/xlink">
 <defs>
  <style type="text/css">
   <![CDATA[
    .str0 {stroke:#332C2B;stroke-width:19.4}
    .fil0 {fill:none;fill-rule:nonzero}
   ]]>
  </style>
 </defs>
 <g id="图层_x0020_1">
  <metadata id="CorelCorpID_0Corel-Layer"/>
  <path class="fil0 str0" d="M2970 650l0 32m-1477 534l0 10m0 0c6,-2 8,-4 9,-10 39,7 51,18 74,71 3,-3 5,-6 5,-9 0,-2 -1,-5 -3,-8m0 0l-6 -2m0 0c0,-21 0,-16 0,-37 0,-29 0,-41 -2,-50 -1,-9 -4,-15 -11,-25 -15,-22 -39,-35 -65,-35 -32,0 -63,21 -73,49 -5,13 -7,31 -7,68 0,60 4,76 24,95 15,15 35,23 56,23 46,0 72,-28 80,-87m483 491l1 -10 3 0 0 1m0 0c2,1 2,1 4,4m0 0l1 1 -1 8m0 0c101,60 152,132 185,261m0 0l4 -2 3 -6m0 0c-1,-4 -2,-6 -4,-9m0 0l-5 -2c-1,-277 38,-554 38,-828 0,-67 -17,-113 -61,-156 -52,-51 -91,-61 -242,-61 -106,0 -143,8 -187,37 -59,40 -91,102 -91,182 14,239 27,479 41,719l-10 -9 10 9 0 28c-1,107 2,120 30,153 23,26 62,45 92,45m0 0l3 0m0 0c81,6 198,-3 283,-3 4,0 24,-10 38,-20 32,-21 43,-39 57,-95m718 3260l2 -10m0 0c-6,1 -10,3 -11,10m0 0l-1827 -1m0 0c-47,-4 -98,-50 -107,-97m0 0l-13 -3599m0 0c-1,-408 -1,-306 2,-713 2,-72 5,-96 16,-127 10,-24 42,-58 68,-70m0 0l4 -3m0 0c5,-7 5,-7 594,-7m0 0l1132 0m0 0c50,0 62,3 87,22 31,23 53,56 55,83m0 0l-4 4371 2 39m0 0c0,0 0,1 0,2 0,30 -38,75 -75,90m0 0l-2 1 -33 7 -14 3m0 0c-49,9 -69,25 -106,82"/>
 </g>
</svg>
