<?xml version="1.0" encoding="UTF-8"?>
<!DOCTYPE svg PUBLIC "-//W3C//DTD SVG 1.1//EN" "http://www.w3.org/Graphics/SVG/1.1/DTD/svg11.dtd">
<!-- Creator: CorelDRAW 2020 (64-Bit) -->
<svg xmlns="http://www.w3.org/2000/svg" xml:space="preserve" width="40mm" height="60mm" version="1.1" style="shape-rendering:geometricPrecision; text-rendering:geometricPrecision; image-rendering:optimizeQuality; fill-rule:evenodd; clip-rule:evenodd"
viewBox="0 0 4000 6000"
 xmlns:xlink="http://www.w3.org/1999/xlink"
 xmlns:xodm="http://www.corel.com/coreldraw/odm/2003">
 <defs>
  <style type="text/css">
   <![CDATA[
    .str2 {stroke:#332C2B;stroke-width:7.62;stroke-miterlimit:22.9256}
    .str0 {stroke:#332C2B;stroke-width:7.62;stroke-miterlimit:2.61313}
    .str1 {stroke:#332C2B;stroke-width:7.62;stroke-miterlimit:2.61313}
    .fil1 {fill:none}
    .fil0 {fill:none;fill-rule:nonzero}
   ]]>
  </style>
 </defs>
 <g id="图层_x0020_1">
  <metadata id="CorelCorpID_0Corel-Layer"/>
  <path class="fil0 str0" d="M1205.7 1120.66c0,99.98 81.06,181.04 181.04,181.04 99.99,0 181.05,-81.06 181.05,-181.04 0,-99.99 -81.06,-181.05 -181.05,-181.05 -99.98,0 -181.04,81.06 -181.04,181.05zm287.96 0c0,59.04 -47.87,106.91 -106.92,106.91 -59.05,0 -106.92,-47.87 -106.92,-106.91 0,-59.06 47.87,-106.92 106.92,-106.92 59.05,0 106.92,47.86 106.92,106.92z"/>
  <path class="fil0 str0" d="M1386.74 1345.37c-124.1,0 -224.71,-100.61 -224.71,-224.71 0,-124.11 100.61,-224.72 224.71,-224.72 124.11,0 224.72,100.61 224.72,224.72 0,124.1 -100.61,224.71 -224.72,224.71zm537.13 -367.07c0,-70.56 -57.73,-128.3 -128.29,-128.3l-552.63 0c-70.55,0 -128.3,57.74 -128.3,128.3l0 865.58c0,70.56 57.75,128.3 128.3,128.3l552.63 0c70.56,0 128.29,-57.74 128.29,-128.3l0 -865.58zm-297.9 430.06c0,-66.92 54.26,-121.16 121.18,-121.16 66.92,0 121.17,54.24 121.17,121.16 0,66.92 -54.25,121.17 -121.17,121.17 -66.92,0 -121.18,-54.25 -121.18,-121.17zm-239.23 63.53c123.21,0 223.1,99.89 223.1,223.1 0,123.21 -99.89,223.09 -223.1,223.09 -123.21,0 -223.09,-99.88 -223.09,-223.09 0,-123.21 99.88,-223.1 223.09,-223.1zm316.06 214.76l115.46 0c30.97,0 56.31,25.34 56.31,56.31 0,30.97 -25.34,56.3 -56.31,56.3l-115.46 0c-30.97,0 -56.31,-25.33 -56.31,-56.3 0,-30.97 25.34,-56.31 56.31,-56.31z"/>
  <path class="fil0 str0" d="M1566.48 1694.99c0,-99.27 -80.48,-179.74 -179.74,-179.74 -99.27,0 -179.73,80.47 -179.73,179.74 0,99.26 80.46,179.73 179.73,179.73 99.26,0 179.74,-80.47 179.74,-179.73zm-179.74 -106.14c58.62,0 106.14,47.52 106.14,106.14 0,58.62 -47.52,106.14 -106.14,106.14 -58.63,0 -106.15,-47.52 -106.15,-106.14 0,-58.62 47.52,-106.14 106.15,-106.14z"/>
  <path class="fil0 str0" d="M1959.31 974.94l0 872.3c0,86.24 -70.57,156.81 -156.82,156.81l-566.45 0c-86.25,0 -156.81,-70.57 -156.81,-156.81l0 -872.3c0,-86.24 70.56,-156.81 156.81,-156.81l566.45 0c86.25,0 156.82,70.57 156.82,156.81zm862.34 -319.28l-1656.5 0c-135.53,0 -246.42,110.88 -246.42,246.4l0 4207.19c0,135.53 110.89,246.41 246.42,246.41l1656.5 0c135.53,0 246.41,-110.88 246.41,-246.41l0 -4207.19c0,-135.52 -110.88,-246.4 -246.41,-246.4z"/>
  <path class="fil0 str1" d="M10654.24 5432.62c350.69,0 635,-284.3 635,-635 0,-350.69 -284.31,-635 -635,-635 -350.7,0 -635,284.31 -635,635 0,350.7 284.3,635 635,635zm0 -1010c207.11,0 375,167.89 375,375 0,207.12 -167.89,375.01 -375,375.01 -207.12,0 -375.01,-167.89 -375.01,-375.01 0,-207.11 167.89,-375 375.01,-375z"/>
  <path class="fil0 str1" d="M11442.41 4797.62c0,435.3 -352.88,788.18 -788.17,788.18 -435.3,0 -788.18,-352.88 -788.18,-788.18 0,-435.29 352.88,-788.17 788.18,-788.17 435.29,0 788.17,352.88 788.17,788.17zm-1287.46 -1883.94c-247.51,0 -450,202.5 -450,449.97l0 1938.3c0,247.48 202.49,450.01 450,450.01l3035.93 0c247.51,0 450.01,-202.53 450.01,-450.01l0 -1938.3c0,-247.47 -202.5,-449.97 -450.01,-449.97l-3035.93 0zm1508.41 1044.86c-234.74,0 -424.99,-190.29 -424.99,-425.02 0,-234.71 190.25,-425 424.99,-425 234.7,0 424.99,190.29 424.99,425 0,234.73 -190.29,425.02 -424.99,425.02zm222.81 839.08c0,-432.15 350.34,-782.49 782.5,-782.49 432.15,0 782.49,350.34 782.49,782.49 0,432.16 -350.34,782.5 -782.49,782.5 -432.16,0 -782.5,-350.34 -782.5,-782.5zm753.25 -1108.53l0 -404.99c0,-108.62 88.87,-197.48 197.49,-197.48 108.65,0 197.48,88.86 197.48,197.48l0 404.99c0,108.62 -88.83,197.49 -197.48,197.49 -108.62,0 -197.49,-88.87 -197.49,-197.49z"/>
  <path class="fil0 str1" d="M12668.67 4167.21c-348.16,0 -630.42,282.26 -630.42,630.41 0,348.2 282.26,630.42 630.42,630.42 348.15,0 630.41,-282.22 630.41,-630.42 0,-348.15 -282.26,-630.41 -630.41,-630.41zm-372.29 630.41c0,-205.6 166.69,-372.28 372.29,-372.28 205.6,0 372.28,166.68 372.28,372.28 0,205.64 -166.68,372.33 -372.28,372.33 -205.6,0 -372.29,-166.69 -372.29,-372.33z"/>
  <path class="fil0 str1" d="M10143.17 2789.4l3059.5 0c302.5,0 550.01,247.51 550.01,550.02l0 1986.77c0,302.51 -247.51,550.02 -550.01,550.02l-3059.5 0c-302.51,0 -550.02,-247.51 -550.02,-550.02l0 -1986.77c0,-302.51 247.51,-550.02 550.02,-550.02zm15365.03 4002.55l0 -7027.16c0,-475.37 -388.91,-864.27 -864.26,-864.27l-14756.4 0c-475.33,0 -864.23,388.9 -864.23,864.27l0 5810.07c0,475.34 388.9,864.27 864.23,864.27l14756.4 0c475.35,0 864.26,-388.93 864.26,-864.27"/>
  <path class="fil1 str2" d="M25508.2 5574.86c0,0 -98.78,-1214.35 628.82,-1214.35"/>
 </g>
</svg>
