<?xml version="1.0" encoding="UTF-8"?>
<!DOCTYPE svg PUBLIC "-//W3C//DTD SVG 1.1//EN" "http://www.w3.org/Graphics/SVG/1.1/DTD/svg11.dtd">
<!-- Creator: CorelDRAW X8 -->
<svg xmlns="http://www.w3.org/2000/svg" xml:space="preserve" width="40mm" height="60mm" version="1.1" style="shape-rendering:geometricPrecision; text-rendering:geometricPrecision; image-rendering:optimizeQuality; fill-rule:evenodd; clip-rule:evenodd"
viewBox="0 0 4000 6000"
 xmlns:xlink="http://www.w3.org/1999/xlink">
 <defs>
  <style type="text/css">
   <![CDATA[
    .str0 {stroke:black;stroke-width:7.62}
    .fil0 {fill:none;fill-rule:nonzero}
   ]]>
  </style>
 </defs>
 <g id="图层_x0020_1">
  <metadata id="CorelCorpID_0Corel-Layer"/>
  <g>
   <path class="fil0 str0" d="M1806 757c-11,0 -20,-9 -20,-20 0,-11 9,-20 20,-20 11,0 20,9 20,20 0,11 -9,20 -20,20zm-367 -27l0 0c0,-15 12,-27 27,-27l67 0c14,0 26,12 26,27l0 0c0,15 -12,27 -26,27l-67 0c-15,0 -27,-12 -27,-27zm147 1376l0 -229c0,-25 21,-45 46,-45l2 0c25,0 46,20 46,45l0 229c0,26 -21,46 -46,46l-2 0c-25,0 -46,-20 -46,-46zm-187 -762c-63,0 -113,-50 -113,-113 0,-63 50,-114 113,-114 63,0 114,51 114,114 0,63 -51,113 -114,113zm0 307c-63,0 -113,-50 -113,-113 0,-63 50,-114 113,-114 63,0 114,51 114,114 0,63 -51,113 -114,113zm0 254c-63,0 -113,-51 -113,-113 0,-63 50,-114 113,-114 63,0 114,51 114,114 0,62 -51,113 -114,113zm0 200c-44,0 -80,-35 -80,-80 0,-44 36,-80 80,-80 44,0 80,36 80,80 0,45 -36,80 -80,80zm-127 -33l0 -841c0,-70 57,-127 127,-127l0 0c70,0 127,57 127,127l0 841c0,70 -57,127 -127,127l0 0c-70,0 -127,-57 -127,-127zm-29 8l0 -857c0,-84 69,-152 152,-152l8 0c84,0 152,68 152,152l0 857c0,84 -68,152 -152,152l-8 0c-83,0 -152,-68 -152,-152zm-351 239l0 -441c0,-14 12,-26 26,-26l0 0c15,0 27,12 27,26l0 441c0,15 -12,27 -27,27l0 0c-14,0 -26,-12 -26,-27zm-40 609l0 -377c0,-32 26,-58 58,-58l3 0c32,0 59,26 59,58l0 377c0,32 -27,59 -59,59l-3 0c-32,0 -58,-27 -58,-59zm40 2355c-15,0 -27,-12 -27,-26 0,-15 12,-27 27,-27 15,0 26,12 26,27 0,14 -11,26 -26,26zm316 -36c-14,0 -26,-12 -26,-27 0,-14 12,-26 26,-26 15,0 27,12 27,26 0,15 -12,27 -27,27zm61 0c-15,0 -27,-12 -27,-27 0,-14 12,-26 27,-26 14,0 26,12 26,26 0,15 -12,27 -26,27zm64 0c-15,0 -27,-12 -27,-27 0,-14 12,-26 27,-26 15,0 27,12 27,26 0,15 -12,27 -27,27zm65 0c-15,0 -27,-12 -27,-27 0,-14 12,-26 27,-26 14,0 26,12 26,26 0,15 -12,27 -26,27zm59 0c-15,0 -27,-12 -27,-27 0,-14 12,-26 27,-26 14,0 26,12 26,26 0,15 -12,27 -26,27zm409 -31l0 0c0,-22 19,-40 41,-40l160 0c22,0 40,18 40,40l0 0c0,23 -18,41 -40,41l-160 0c-22,0 -41,-18 -41,-41zm394 14c-11,0 -20,-9 -20,-20 0,-11 9,-20 20,-20 11,0 20,9 20,20 0,11 -9,20 -20,20zm114 -14l0 0c0,-22 18,-40 40,-40l254 0c22,0 40,18 40,40 0,23 -18,41 -40,41l-254 0c-22,0 -40,-18 -40,-41zm367 14c-7,0 -13,-6 -13,-14 0,-7 6,-13 13,-13 7,0 13,6 13,13 0,8 -6,14 -13,14zm-1889 -4125l0 3790 -94 348 214 27 0 -375c0,133 108,241 241,241l0 214 1574 0 0 -214c133,0 241,-108 241,-241l0 375 214 -27 -94 -348 0 -3790 94 -348 -214 -27 0 375c0,-133 -108,-241 -241,-241l0 -214 -1574 0 0 214c-133,0 -241,108 -241,241l0 -375 -214 27 94 348z"/>
  </g>
 </g>
</svg>
