<?xml version="1.0" encoding="UTF-8"?>
<!DOCTYPE svg PUBLIC "-//W3C//DTD SVG 1.1//EN" "http://www.w3.org/Graphics/SVG/1.1/DTD/svg11.dtd">
<!-- Creator: CorelDRAW X8 -->
<svg xmlns="http://www.w3.org/2000/svg" xml:space="preserve" width="40mm" height="60mm" version="1.1" style="shape-rendering:geometricPrecision; text-rendering:geometricPrecision; image-rendering:optimizeQuality; fill-rule:evenodd; clip-rule:evenodd"
viewBox="0 0 4000 6000"
 xmlns:xlink="http://www.w3.org/1999/xlink">
 <defs>
  <style type="text/css">
   <![CDATA[
    .str0 {stroke:black;stroke-width:7.62}
    .fil0 {fill:none}
   ]]>
  </style>
 </defs>
 <g id="图层_x0020_1">
  <metadata id="CorelCorpID_0Corel-Layer"/>
  <path class="fil0 str0" d="M1101 5327l1675 0c165,0 301,-135 301,-301l0 -4075c0,-166 -136,-301 -301,-301l-1552 0c-165,0 -301,135 -301,301l0 4075c0,166 136,301 301,301 30,0 71,1 77,23m1094 -4611c-1,-5 -5,-9 -14,-10 -31,0 -56,25 -56,56 0,32 25,57 56,57 32,0 57,-25 57,-57 0,-31 -25,-56 -57,-56m-370 52c-6,-22 -17,-39 -70,-39l-46 0c-24,0 -43,19 -43,43l0 0c0,24 19,44 43,44l219 0c24,0 43,-20 43,-44l0 0c0,-24 -19,-43 -43,-43l-173 0"/>
 </g>
</svg>
