<?xml version="1.0" encoding="UTF-8"?>
<!DOCTYPE svg PUBLIC "-//W3C//DTD SVG 1.1//EN" "http://www.w3.org/Graphics/SVG/1.1/DTD/svg11.dtd">
<!-- Creator: CorelDRAW X8 -->
<svg xmlns="http://www.w3.org/2000/svg" xml:space="preserve" width="40mm" height="60mm" version="1.1" style="shape-rendering:geometricPrecision; text-rendering:geometricPrecision; image-rendering:optimizeQuality; fill-rule:evenodd; clip-rule:evenodd"
viewBox="0 0 4000 6000"
 xmlns:xlink="http://www.w3.org/1999/xlink">
 <defs>
  <style type="text/css">
   <![CDATA[
    .str1 {stroke:#332C2B;stroke-width:20}
    .str0 {stroke:black;stroke-width:20;stroke-linecap:square}
    .fil0 {fill:none}
   ]]>
  </style>
 </defs>
 <g id="图层_x0020_1">
  <metadata id="CorelCorpID_0Corel-Layer"/>
  <g id="p20_x0020_A.cdr">
   <path class="fil0 str0" d="M3087 920c0,-116 -24,-202 -140,-249 -62,-25 -216,-16 -287,-16 -507,-3 -1020,-11 -1527,2 -92,2 -148,27 -197,111 -26,46 -16,200 -16,260 -2,1229 -5,2457 -7,3686 0,77 -7,436 7,483 28,90 125,147 215,151 80,4 183,0 267,0 479,0 958,-1 1437,0 97,0 177,-24 223,-119 38,-80 24,-252 24,-347 0,-1320 0,-2641 1,-3962z"/>
   <circle class="fil0 str1" transform="matrix(8.60309E-15 0.324835 -0.324834 8.6031E-15 2127.67 775.922)" r="184"/>
   <circle class="fil0 str1" transform="matrix(8.60309E-15 0.324835 -0.324834 8.6031E-15 1870.39 780.22)" r="186"/>
   <path class="fil0 str1" d="M2273 5219l0 0c0,58 -48,105 -106,105l-346 0c-58,0 -105,-47 -105,-105l0 0c0,-58 47,-106 105,-106l346 0c58,0 106,48 106,106z"/>
  </g>
 </g>
</svg>
