<?xml version="1.0" encoding="UTF-8"?>
<!DOCTYPE svg PUBLIC "-//W3C//DTD SVG 1.1//EN" "http://www.w3.org/Graphics/SVG/1.1/DTD/svg11.dtd">
<!-- Creator: CorelDRAW X8 -->
<svg xmlns="http://www.w3.org/2000/svg" xml:space="preserve" width="40mm" height="60mm" version="1.1" style="shape-rendering:geometricPrecision; text-rendering:geometricPrecision; image-rendering:optimizeQuality; fill-rule:evenodd; clip-rule:evenodd"
viewBox="0 0 4000 6000"
 xmlns:xlink="http://www.w3.org/1999/xlink">
 <defs>
  <style type="text/css">
   <![CDATA[
    .str0 {stroke:black;stroke-width:20}
    .fil0 {fill:none}
   ]]>
  </style>
 </defs>
 <g id="图层_x0020_1">
  <metadata id="CorelCorpID_0Corel-Layer"/>
  <path class="fil0 str0" d="M1148 650l1704 0c133,0 242,109 242,242l0 4216c0,133 -109,242 -242,242l-1704 0c-133,0 -242,-109 -242,-242l0 -4216c0,-133 109,-242 242,-242zm847 568c118,0 215,96 215,215 0,119 -97,215 -215,215 -119,0 -216,-96 -216,-215 0,-119 97,-215 216,-215zm412 8l0 0c43,0 78,35 78,78l0 258c0,42 -35,77 -78,77l0 0c-42,0 -77,-35 -77,-77l0 -258c0,-43 35,-78 77,-78z"/>
 </g>
</svg>
