<?xml version="1.0" encoding="UTF-8"?>
<!DOCTYPE svg PUBLIC "-//W3C//DTD SVG 1.1//EN" "http://www.w3.org/Graphics/SVG/1.1/DTD/svg11.dtd">
<!-- Creator: CorelDRAW X8 -->
<svg xmlns="http://www.w3.org/2000/svg" xml:space="preserve" width="40mm" height="60mm" version="1.1" style="shape-rendering:geometricPrecision; text-rendering:geometricPrecision; image-rendering:optimizeQuality; fill-rule:evenodd; clip-rule:evenodd"
viewBox="0 0 4000 6000"
 xmlns:xlink="http://www.w3.org/1999/xlink">
 <defs>
  <style type="text/css">
   <![CDATA[
    .str0 {stroke:black;stroke-width:7.62}
    .fil0 {fill:none}
   ]]>
  </style>
 </defs>
 <g id="图层_x0020_1">
  <metadata id="CorelCorpID_0Corel-Layer"/>
  <path class="fil0 str0" d="M968 5350l1921 0c109,0 199,-90 199,-199l0 -4302c0,-109 -90,-199 -199,-199l-567 0c-4,0 -6,1 -8,4l-7 9c-3,3 -4,3 -8,3l-591 0c-6,0 -8,0 -11,-4l-6 -8c-2,-3 -3,-4 -9,-4l-571 0c-109,0 -199,90 -199,199l0 4302c0,109 90,199 199,199l123 0m-47 -4589c0,-6 -6,-11 -16,-12 -38,0 -68,31 -68,68 0,38 30,68 68,68 37,0 68,-30 68,-68 0,-37 -31,-68 -68,-68"/>
 </g>
</svg>
