<?xml version="1.0" encoding="UTF-8"?>
<!DOCTYPE svg PUBLIC "-//W3C//DTD SVG 1.1//EN" "http://www.w3.org/Graphics/SVG/1.1/DTD/svg11.dtd">
<!-- Creator: CorelDRAW X8 -->
<svg xmlns="http://www.w3.org/2000/svg" xml:space="preserve" width="40mm" height="60mm" version="1.1" style="shape-rendering:geometricPrecision; text-rendering:geometricPrecision; image-rendering:optimizeQuality; fill-rule:evenodd; clip-rule:evenodd"
viewBox="0 0 4000 6000"
 xmlns:xlink="http://www.w3.org/1999/xlink">
 <defs>
  <style type="text/css">
   <![CDATA[
    .str1 {stroke:#332C2B;stroke-width:20}
    .str0 {stroke:#332C2B;stroke-width:10}
    .fil0 {fill:none}
   ]]>
  </style>
 </defs>
 <g id="图层_x0020_1">
  <metadata id="CorelCorpID_0Corel-Layer"/>
  <g id="_2486959461632">
   <path class="fil0 str0" d="M608 5308l2640 0c79,0 144,-65 144,-144l0 -4370c0,-79 -65,-144 -144,-144l-2477 0c-79,0 -144,65 -144,144l0 4370c0,79 65,144 144,144 79,0 98,42 98,42"/>
   <path class="fil0 str0" d="M1943 775c0,-38 -37,-55 -56,-55 -19,0 -34,15 -34,34l0 0c0,19 15,35 34,35l223 0c19,0 34,-16 34,-35l0 0c0,-19 -15,-34 -34,-34l-223 0"/>
   <path class="fil0 str0" d="M2264 764c0,0 12,-61 -17,-61 -28,0 -51,23 -51,51 0,29 23,52 51,52 29,0 52,-23 52,-52 0,-28 -23,-51 -52,-51"/>
  </g>
  <path class="fil0 str1" d="M-17618 11449l11017 0c330,0 600,-270 600,-600l0 -18240c0,-330 -270,-600 -600,-600l-10337 0c-330,0 -600,270 -600,600l0 18240c0,330 270,600 600,600 330,0 409,177 409,177"/>
  <path class="fil0 str1" d="M-12048 -7469c0,-160 -152,-232 -232,-232 -79,0 -144,65 -144,145l0 0c0,79 65,144 144,144l928 0c79,0 144,-65 144,-144l0 0c0,-80 -65,-145 -144,-145l-928 0"/>
  <path class="fil0 str1" d="M-10708 -7515c0,0 50,-256 -69,-256 -118,0 -215,96 -215,215 0,119 97,215 215,215 119,0 215,-96 215,-215 0,-119 -96,-215 -215,-215"/>
 </g>
</svg>
