<?xml version="1.0" encoding="UTF-8"?>
<!DOCTYPE svg PUBLIC "-//W3C//DTD SVG 1.1//EN" "http://www.w3.org/Graphics/SVG/1.1/DTD/svg11.dtd">
<!-- Creator: CorelDRAW -->
<svg xmlns="http://www.w3.org/2000/svg" xml:space="preserve" width="40mm" height="60mm" style="shape-rendering:geometricPrecision; text-rendering:geometricPrecision; image-rendering:optimizeQuality; fill-rule:evenodd; clip-rule:evenodd"
viewBox="0 0 40 60"
 xmlns:xlink="http://www.w3.org/1999/xlink">
 <defs>
  <style type="text/css">
   <![CDATA[
    .str1 {stroke:#1F1A17;stroke-width:0.0762}
    .str0 {stroke:#1F1A17;stroke-width:0.0762;stroke-linejoin:bevel}
    .fil0 {fill:none}
   ]]>
  </style>
 </defs>
 <g id="图层_x0020_1">
  <metadata id="CorelCorpID_0Corel-Layer"/>
  <g id="_155225136">
   <path id="_155223120" class="fil0 str0" d="M27.5215 6.5c0,0 -15.479,0 -15.479,0 -0.3404,-0.0012 -0.6796,0.0334 -1.0126,0.1034 -1.24,0.3064 -2.1518,1.3622 -2.2749,2.634 -0.0104,0.2137 -0.0165,0.4279 -0.0183,0.6419 0,0 0,40.2414 0,40.2414 0.0018,0.214 0.0079,0.4282 0.0183,0.6419 0.1231,1.2718 1.0349,2.3272 2.2749,2.6339 0.333,0.0701 0.6722,0.1047 1.0126,0.1035 0,0 15.9154,0 15.9154,0 0.3401,0.0012 0.6795,-0.0334 1.0122,-0.1035 1.2403,-0.3067 2.1521,-1.3621 2.2749,-2.6339 0.0104,-0.2137 0.0165,-0.4279 0.0183,-0.6419 0,0 -0.0918,-40.2414 -0.0918,-40.2414 -0.0018,-0.214 -0.0079,-0.4282 -0.0184,-0.6419 -0.1227,-1.2718 -1.0345,-2.3276 -2.2748,-2.634 -0.2651,-0.0558 -0.6318,-0.0892 -0.9419,-0.0997 -0.2044,-0.0069 -0.2077,0.0084 -0.4149,-0.0037z"/>
   <path id="_155222208" class="fil0 str0" d="M21.3607 7.5453c0,0 -2.7855,0 -2.7855,0 -0.1436,-0.0003 -0.2599,-0.1166 -0.2599,-0.2601 0,-0.1439 0.1167,-0.2602 0.26,-0.2602 0,0 2.7854,0 2.7854,0 0.1435,0 0.2599,0.1163 0.2599,0.2602 0.0003,0.1435 -0.1171,0.2599 -0.2599,0.2601z"/>
   <path id="_155222592" class="fil0 str1" d="M13.7387 6.7594l2.5178 0c0.3439,0 0.6252,0.2813 0.6252,0.6252l0 0c0,0.3439 -0.2813,0.6252 -0.6252,0.6252l-2.5178 0c-0.344,0 -0.6253,-0.2813 -0.6253,-0.6252l0 0c0,-0.3439 0.2813,-0.6252 0.6253,-0.6252z"/>
   <path id="_155222784" class="fil0 str1" d="M24.068 6.7826l2.1714 0c0.3485,0 0.6337,0.2755 0.6337,0.6122l0 0c0,0.3367 -0.2852,0.6123 -0.6337,0.6123l-2.1714 0c-0.3486,0 -0.6337,-0.2756 -0.6337,-0.6123l0 0c0,-0.3367 0.2851,-0.6122 0.6337,-0.6122z"/>
  </g>
 </g>
</svg>
