<?xml version="1.0" encoding="UTF-8"?>
<!DOCTYPE svg PUBLIC "-//W3C//DTD SVG 1.1//EN" "http://www.w3.org/Graphics/SVG/1.1/DTD/svg11.dtd">
<!-- Creator: CorelDRAW X8 -->
<svg xmlns="http://www.w3.org/2000/svg" xml:space="preserve" width="40mm" height="60mm" version="1.1" style="shape-rendering:geometricPrecision; text-rendering:geometricPrecision; image-rendering:optimizeQuality; fill-rule:evenodd; clip-rule:evenodd"
viewBox="0 0 4000 6000"
 xmlns:xlink="http://www.w3.org/1999/xlink">
 <defs>
  <style type="text/css">
   <![CDATA[
    .str0 {stroke:#332C2B;stroke-width:7.62}
    .fil0 {fill:none}
   ]]>
  </style>
 </defs>
 <g id="图层_x0020_1">
  <metadata id="CorelCorpID_0Corel-Layer"/>
  <path class="fil0 str0" d="M477 5246l2911 0c75,0 135,-60 135,-135l0 -4326c0,-74 -60,-135 -135,-135l-2705 0c-74,0 -135,61 -135,135l0 4326c0,75 61,135 135,135 74,0 200,32 200,104m-93 -4352c-42,0 -107,-51 -107,-107 0,-57 46,-103 102,-103l0 0c57,0 103,46 103,103l0 211c0,57 -46,103 -103,103l0 0c-56,0 -102,-46 -102,-103l0 -211"/>
 </g>
</svg>
