<?xml version="1.0" encoding="UTF-8"?>
<!DOCTYPE svg PUBLIC "-//W3C//DTD SVG 1.1//EN" "http://www.w3.org/Graphics/SVG/1.1/DTD/svg11.dtd">
<!-- Creator: CorelDRAW X8 -->
<svg xmlns="http://www.w3.org/2000/svg" xml:space="preserve" width="40mm" height="60mm" version="1.1" style="shape-rendering:geometricPrecision; text-rendering:geometricPrecision; image-rendering:optimizeQuality; fill-rule:evenodd; clip-rule:evenodd"
viewBox="0 0 4000 6000"
 xmlns:xlink="http://www.w3.org/1999/xlink">
 <defs>
  <style type="text/css">
   <![CDATA[
    .str0 {stroke:black;stroke-width:20}
    .fil0 {fill:none}
   ]]>
  </style>
 </defs>
 <g id="图层_x0020_1">
  <metadata id="CorelCorpID_0Corel-Layer"/>
  <path class="fil0 str0" d="M1190 650l1620 0c142,0 259,116 259,259l0 4182c0,143 -117,259 -259,259l-1620 0c-142,0 -259,-116 -259,-259l0 -4182c0,-143 117,-259 259,-259zm138 77c43,0 79,35 79,79 0,43 -36,79 -79,79 -44,0 -79,-36 -79,-79 0,-44 35,-79 79,-79zm305 11c38,0 69,30 69,68 0,38 -31,68 -69,68 -37,0 -68,-30 -68,-68 0,-38 31,-68 68,-68zm248 14l252 0c30,0 54,24 54,54l0 0c0,29 -24,53 -54,53l-252 0c-29,0 -53,-24 -53,-53l0 0c0,-30 24,-54 53,-54zm404 -6l67 0c33,0 60,27 60,60l0 0c0,33 -27,60 -60,60l-67 0c-33,0 -60,-27 -60,-60l0 0c0,-33 27,-60 60,-60z"/>
 </g>
</svg>
