<?xml version="1.0" encoding="UTF-8"?>
<!DOCTYPE svg PUBLIC "-//W3C//DTD SVG 1.1//EN" "http://www.w3.org/Graphics/SVG/1.1/DTD/svg11.dtd">
<!-- Creator: CorelDRAW X8 -->
<svg xmlns="http://www.w3.org/2000/svg" xml:space="preserve" width="40mm" height="60mm" version="1.1" style="shape-rendering:geometricPrecision; text-rendering:geometricPrecision; image-rendering:optimizeQuality; fill-rule:evenodd; clip-rule:evenodd"
viewBox="0 0 4000 6000"
 xmlns:xlink="http://www.w3.org/1999/xlink">
 <defs>
  <style type="text/css">
   <![CDATA[
    .str0 {stroke:#332C2B;stroke-width:17.64}
    .fil0 {fill:none}
   ]]>
  </style>
 </defs>
 <g id="图层_x0020_1">
  <metadata id="CorelCorpID_0Corel-Layer"/>
  <path class="fil0 str0" d="M899 5275l2066 0c75,0 136,-61 136,-136l0 -4353c0,-75 -61,-136 -136,-136l-1896 0c-74,0 -136,61 -136,136l0 4353c0,75 62,136 136,136 75,0 141,34 141,75m-9 -4394c-81,-46 -32,-191 51,-191 84,0 152,68 152,151 0,84 -68,152 -152,152 -83,0 -151,-68 -151,-152 0,-83 68,-151 151,-151m677 1558c-138,-80 -55,-328 88,-328 144,0 260,116 260,260 0,143 -116,260 -260,260 -143,0 -260,-117 -260,-260 0,-144 117,-260 260,-260m-276 -1059c0,-53 -138,-90 -178,-90 -39,0 -71,32 -71,71l0 0c0,40 32,72 71,72l209 0c40,0 72,-32 72,-72l0 0c0,-39 -32,-71 -72,-71l-209 0"/>
 </g>
</svg>
