<?xml version="1.0" encoding="UTF-8"?>
<!DOCTYPE svg PUBLIC "-//W3C//DTD SVG 1.1//EN" "http://www.w3.org/Graphics/SVG/1.1/DTD/svg11.dtd">
<!-- Creator: CorelDRAW -->
<svg xmlns="http://www.w3.org/2000/svg" xml:space="preserve" width="40mm" height="60mm" style="shape-rendering:geometricPrecision; text-rendering:geometricPrecision; image-rendering:optimizeQuality; fill-rule:evenodd; clip-rule:evenodd"
viewBox="0 0 40 60"
 xmlns:xlink="http://www.w3.org/1999/xlink">
 <defs>
  <style type="text/css">
   <![CDATA[
    .str0 {stroke:#1F1A17;stroke-width:0.194}
    .fil0 {fill:none;fill-rule:nonzero}
   ]]>
  </style>
 </defs>
 <g id="图层_x0020_1">
  <metadata id="CorelCorpID_0Corel-Layer"/>
  <g id="_214740408">
   <g>
    <line id="_214740288" class="fil0 str0" x1="31.0935" y1="6.5026" x2="31.0935" y2= "6.8232" />
    <polyline id="_214740264" class="fil0 str0" points="20.2613,8.311 20.2613,8.4148 20.3177,8.4069 20.3573,8.3742 "/>
    <path id="_214740336" class="fil0 str0" d="M20.3573 8.3742c0.0135,-0.044 0.0146,-0.0542 0.0169,-0.1039"/>
    <line id="_214740432" class="fil0 str0" x1="20.3742" y1="8.2703" x2="20.3493" y2= "8.2308" />
    <path id="_214740456" class="fil0 str0" d="M20.3493 8.2308c0.1366,-0.1241 0.2236,-0.1433 0.6446,-0.1433 0.3025,0 0.4403,0.0237 0.6276,0.1106"/>
    <polyline id="_214741056" class="fil0 str0" points="21.6215,8.1981 21.6215,8.215 21.6057,8.2229 21.5978,8.2387 21.5651,8.2545 21.6136,8.3663 "/>
    <path id="_214741008" class="fil0 str0" d="M21.6136 8.3663c-0.018,0.0068 -0.0372,0.0101 -0.0564,0.0101 -0.0079,0 -0.0158,-0.0011 -0.0237,-0.0022"/>
    <polyline id="_214741080" class="fil0 str0" points="21.5335,8.3742 21.5256,8.3663 21.4771,8.4792 "/>
    <path id="_214740552" class="fil0 str0" d="M21.4771 8.4792c-0.0317,-0.0226 -0.0497,-0.0395 -0.0554,-0.0565 -0.0733,0.0102 -0.2506,0.0158 -0.5068,0.0158 -0.7891,0 -1.7,-0.0361 -2.5974,-0.1038 0.018,-0.0282 0.0395,-0.0497 0.0564,-0.0565"/>
    <line id="_214739664" class="fil0 str0" x1="18.3739" y1="8.2782" x2="18.3254" y2= "8.1665" />
    <path id="_214656088" class="fil0 str0" d="M18.3254 8.1665c0.0147,-0.0045 0.0293,-0.0079 0.044,-0.0079 0.0147,0 0.0294,0.0034 0.0441,0.0079"/>
    <polyline id="_214655848" class="fil0 str0" points="18.4135,8.1665 18.462,8.0547 18.4778,8.0547 18.4857,8.0705 18.5015,8.0784 18.5173,8.1112 20.7659,8.1112 "/>
    <line id="_214655896" class="fil0 str0" x1="17.3659" y1="8.0468" x2="17.4776" y2= "8.0468" />
    <path id="_214655944" class="fil0 str0" d="M17.4776 8.0468c-0.0146,-0.0598 -0.0236,-0.0745 -0.0722,-0.1117"/>
    <line id="_214655440" class="fil0 str0" x1="17.4054" y1="7.9351" x2="17.4043" y2= "7.9351" />
    <path id="_214656208" class="fil0 str0" d="M17.4043 7.9351c-0.0395,0.0011 -0.0395,0.0011 -0.0847,0.0067"/>
    <line id="_214657024" class="fil0 str0" x1="17.3196" y1="7.9418" x2="17.3174" y2= "7.943" />
    <path id="_214657144" class="fil0 str0" d="M17.3174 7.943c-0.1716,-0.158 -0.2235,-0.201 -0.2823,-0.2303 -0.0598,-0.0293 -0.1049,-0.0361 -0.2494,-0.0361 -0.385,0 -0.6446,0.2551 -0.6446,0.631 0,0.3556 0.2822,0.6389 0.6356,0.6389 0.3465,0 0.6264,-0.272 0.6264,-0.6084 0,-0.1073 -0.0124,-0.1897 -0.0609,-0.4199"/>
    <polyline id="_213971800" class="fil0 str0" points="17.3422,7.9182 17.3264,7.9182 17.3174,7.9272 "/>
    <path id="_213970744" class="fil0 str0" d="M17.3174 7.9272c-0.0045,0 -0.0113,0.0011 -0.0237,0.0079"/>
    <polyline id="_213970720" class="fil0 str0" points="17.2937,7.9351 17.2541,7.8786 17.2541,7.8865 17.2462,7.8944 17.2383,7.8944 "/>
    <path id="_213970696" class="fil0 str0" d="M17.2383 7.8944c-0.0056,0.0057 -0.0101,0.0113 -0.0169,0.0238"/>
    <line id="_213970816" class="fil0 str0" x1="17.2214" y1="7.9182" x2="17.1661" y2= "7.8865" />
    <path id="_213971032" class="fil0 str0" d="M17.1661 7.8865c-0.0011,0.0079 -0.0045,0.017 -0.0079,0.0238"/>
    <polyline id="_232039584" class="fil0 str0" points="17.1582,7.9103 17.0939,7.8944 17.0939,7.9588 17.0295,7.9825 17.0374,7.9904 17.0374,7.9983 16.4854,8.2782 "/>
    <line id="_232039344" class="fil0 str0" x1="9.0702" y1="52.2606" x2="8.9742" y2= "52.308" />
    <path id="_232039200" class="fil0 str0" d="M8.9742 52.308c0.0463,0.0395 0.0689,0.0496 0.1152,0.0496 0.0101,0 0.0225,0 0.0372,-0.0011"/>
    <polyline id="_232039440" class="fil0 str0" points="9.1266,52.3565 9.174,52.3159 9.1819,52.2606 29.1406,52.2617 "/>
    <path id="_232039464" class="fil0 str0" d="M29.1406 52.2617c0.482,-0.0147 0.7541,-0.096 1.0995,-0.3296 0.4154,-0.2822 0.7405,-0.7439 0.8342,-1.1898"/>
    <line id="_232039104" class="fil0 str0" x1="31.0743" y1="50.7423" x2="31.1454" y2= "8.5571" />
    <path id="_232039536" class="fil0 str0" d="M31.1454 8.5571c-0.0508,-1.0284 -0.5949,-1.7565 -1.5092,-2.0173"/>
    <line id="_232039608" class="fil0 str0" x1="29.6362" y1="6.5398" x2="29.6001" y2= "6.5263" />
    <path id="_232039656" class="fil0 str0" d="M29.6001 6.5263c-0.0531,-0.0271 -0.0531,-0.0271 -2.6923,-0.0259"/>
    <line id="_232038960" class="fil0 str0" x1="26.9078" y1="6.5004" x2="10.506" y2= "6.5071" />
    <path id="_232039248" class="fil0 str0" d="M10.506 6.5071c-0.728,0.0553 -1.5747,0.8861 -1.6379,1.6075"/>
    <polyline id="_232040016" class="fil0 str0" points="8.8681,8.1146 8.8546,8.5593 8.8918,50.7626 "/>
    <path id="_232039968" class="fil0 str0" d="M8.8918 50.7626c0.0373,0.2585 0.2721,0.6728 0.5272,0.9347 0.359,0.3668 0.4188,0.3917 1.3467,0.5712 0.5711,0.1106 0.9177,0.4357 1.3128,1.2315"/>
   </g>
  </g>
 </g>
</svg>
