<?xml version="1.0" encoding="UTF-8"?>
<!DOCTYPE svg PUBLIC "-//W3C//DTD SVG 1.1//EN" "http://www.w3.org/Graphics/SVG/1.1/DTD/svg11.dtd">
<!-- Creator: CorelDRAW X8 -->
<svg xmlns="http://www.w3.org/2000/svg" xml:space="preserve" width="40mm" height="60mm" version="1.1" style="shape-rendering:geometricPrecision; text-rendering:geometricPrecision; image-rendering:optimizeQuality; fill-rule:evenodd; clip-rule:evenodd"
viewBox="0 0 4000 6000"
 xmlns:xlink="http://www.w3.org/1999/xlink">
 <defs>
  <style type="text/css">
   <![CDATA[
    .str0 {stroke:black;stroke-width:7.62}
    .fil0 {fill:none}
   ]]>
  </style>
 </defs>
 <g id="图层_x0020_1">
  <metadata id="CorelCorpID_0Corel-Layer"/>
  <path class="fil0 str0" d="M1494 933c-2,-19 -18,-36 -52,-39 -122,0 -221,99 -221,221 0,122 99,220 221,220 121,0 220,-98 220,-220 0,-122 -99,-221 -220,-221m52 583c-2,-19 -18,-36 -52,-39 -122,0 -221,99 -221,221 0,122 99,221 221,221 121,0 220,-99 220,-221 0,-122 -99,-221 -220,-221m306 265c-14,3 -24,8 -24,32l0 19c0,27 22,49 49,49l0 0c27,0 50,-22 50,-49l0 -141c0,-27 -23,-49 -50,-49l0 0c-27,0 -49,22 -49,49l0 122m72 -426c-1,-8 -8,-16 -23,-17 -53,0 -96,43 -96,96 0,53 43,96 96,96 53,0 96,-43 96,-96 0,-53 -43,-96 -96,-96m143 489l0 -784c0,-43 -17,-83 -47,-113 -29,-30 -70,-47 -112,-47l-423 0c-43,0 -83,17 -113,47 -30,30 -47,70 -47,113l0 784c0,42 17,83 47,112 30,30 70,47 113,47l423 0c88,0 159,-71 159,-159zm33 19l0 -822c0,-46 -18,-90 -51,-123 -32,-33 -76,-51 -122,-51l-461 0c-46,0 -90,18 -123,51 -33,33 -51,77 -51,123l0 822c0,46 18,90 51,122 33,33 77,51 123,51l461 0c96,0 173,-77 173,-173zm-967 3475l1810 0c128,0 232,-104 232,-232l0 -4162c0,-61 -25,-120 -68,-163 -43,-44 -102,-68 -164,-68l-1584 0c-62,0 -121,24 -164,68 -43,43 -68,102 -68,163l0 4162c0,61 25,120 68,164 43,43 102,68 164,68l89 0c63,0 130,16 178,75"/>
 </g>
</svg>
