<?xml version="1.0" encoding="UTF-8"?>
<!DOCTYPE svg PUBLIC "-//W3C//DTD SVG 1.1//EN" "http://www.w3.org/Graphics/SVG/1.1/DTD/svg11.dtd">
<!-- Creator: CorelDRAW X8 -->
<svg xmlns="http://www.w3.org/2000/svg" xml:space="preserve" width="40mm" height="60mm" version="1.1" style="shape-rendering:geometricPrecision; text-rendering:geometricPrecision; image-rendering:optimizeQuality; fill-rule:evenodd; clip-rule:evenodd"
viewBox="0 0 4000 6000"
 xmlns:xlink="http://www.w3.org/1999/xlink">
 <defs>
  <style type="text/css">
   <![CDATA[
    .str0 {stroke:#333333;stroke-width:15;stroke-linejoin:bevel}
    .fil0 {fill:none}
   ]]>
  </style>
 </defs>
 <g id="图层_x0020_1">
  <metadata id="CorelCorpID_0Corel-Layer"/>
  <path class="fil0 str0" d="M906 5350c351,0 2093,0 2093,0 60,0 109,-49 109,-109 0,0 0,-4482 0,-4482 0,-60 -49,-109 -109,-109 0,0 -1998,0 -1998,0 -60,0 -109,49 -109,109 0,0 0,4482 0,4482 0,60 49,109 109,109 0,0 24,0 68,0m1150 -4531c0,0 0,0 0,0 0,22 -17,39 -39,39 0,0 -360,0 -360,0 -22,0 -39,-17 -39,-39 0,0 0,0 0,0 0,-21 17,-38 39,-38 0,0 360,0 360,0 22,0 39,17 39,38zm-609 56c0,39 -31,70 -70,70 -39,0 -70,-31 -70,-70 0,-38 31,-70 70,-70 39,0 70,32 70,70zm935 5c0,0 0,0 0,0 0,26 -21,47 -46,47 0,0 -62,0 -62,0 -26,0 -47,-21 -47,-47 0,0 0,0 0,0 0,-25 21,-46 47,-46 0,0 62,0 62,0 25,0 46,21 46,46zm-327 4360c0,0 0,0 0,0 0,21 -18,39 -39,39 0,0 -358,0 -358,0 -21,0 -39,-18 -39,-39 0,0 0,0 0,0 0,-22 18,-39 39,-39 0,0 358,0 358,0 21,0 39,17 39,39z"/>
 </g>
</svg>
