<?xml version="1.0" encoding="UTF-8"?>
<!DOCTYPE svg PUBLIC "-//W3C//DTD SVG 1.1//EN" "http://www.w3.org/Graphics/SVG/1.1/DTD/svg11.dtd">
<!-- Creator: CorelDRAW 2020 (64-Bit) -->
<svg xmlns="http://www.w3.org/2000/svg" xml:space="preserve" width="40mm" height="60mm" version="1.1" style="shape-rendering:geometricPrecision; text-rendering:geometricPrecision; image-rendering:optimizeQuality; fill-rule:evenodd; clip-rule:evenodd"
viewBox="0 0 4000 6000"
 xmlns:xlink="http://www.w3.org/1999/xlink"
 xmlns:xodm="http://www.corel.com/coreldraw/odm/2003">
 <defs>
  <style type="text/css">
   <![CDATA[
    .str0 {stroke:#332C2B;stroke-width:20;stroke-miterlimit:22.9256}
    .fil0 {fill:none}
   ]]>
  </style>
 </defs>
 <g id="图层_x0020_1">
  <metadata id="CorelCorpID_0Corel-Layer"/>
  <path class="fil0 str0" d="M-11620.27 8718.18l0 -568.35c357.49,-0.02 649.97,-292.51 649.97,-650l0 -6061.8c0,-357.49 -292.48,-649.98 -649.97,-650l0 -500.01c0,-27.48 -22.44,-49.99 -49.95,-49.99l-8144.11 0 0 345.66c0,55 -45,100 -100,100l-1570.44 0c-55,0 -100,-45 -100,-100l0 -345.66 -919.65 0 0 345.66c0,55 -45,100 -100,100l-1987.08 0c-55,0 -100,-45 -100,-100l0 -345.66 -1722.28 0c-27.51,0 -49.95,22.51 -49.95,49.99l0 500.02c-357.28,0.25 -649.54,292.64 -649.54,649.99l0 1695.52c0,56.59 84.6,66.03 84.6,114.82l0 682.21c0,155.98 144.04,153.64 231.51,153.64 206.04,0 373.07,167.03 373.07,373.07 0,206.04 -167.03,373.07 -373.07,373.07 -87.47,0 -231.51,-27.47 -231.51,145.7l0 703.84c0,48.79 -84.6,43.67 -84.6,115.15l0 1704.78c0,357.35 292.25,649.74 649.54,649.99l0 500.01c0,27.49 22.44,50 49.95,50l14743.56 0c27.51,0 49.95,-22.51 49.95,-50 0,-27.49 4.51,-64.81 23.25,-83.96"/>
  <path class="fil0 str0" d="M758.38 5161.29l165.48 0c0,104.09 85.16,189.24 189.24,189.24l1764.88 0c104.09,0 189.24,-85.15 189.25,-189.24l145.58 0c8,0 14.55,-6.53 14.55,-14.54l0 -2371.14 -100.64 0c-16.01,0 -29.11,-13.11 -29.11,-29.12l0 -457.23c0,-16.01 13.1,-29.11 29.11,-29.11l100.64 0 0 -267.76 -100.64 0c-16.01,0 -29.11,-13.1 -29.11,-29.11l0 -578.54c0,-16.01 13.1,-29.11 29.11,-29.11l100.64 0 0 -501.44c0,-8.01 -6.55,-14.55 -14.55,-14.55l-145.58 0c-0.08,-104.02 -85.2,-189.11 -189.25,-189.11l-493.64 0c-16.48,0 -19.23,24.63 -33.43,24.63l-198.63 0c-45.41,0 -44.73,41.94 -44.73,67.41 0,59.98 -48.63,108.62 -108.62,108.62 -59.99,0 -108.62,-48.64 -108.62,-108.62 0,-25.47 8,-67.41 -42.42,-67.41l-204.92 0c-14.2,0 -12.71,-24.63 -33.52,-24.63l-496.35 0c-104.04,0 -189.17,85.09 -189.24,189.11l-145.58 0c-8,0 -14.56,6.54 -14.56,14.55l0 4292.56c0,8.01 6.56,14.54 14.56,14.54 8.01,0 18.87,1.32 24.45,6.77"/>
 </g>
</svg>
