<?xml version="1.0" encoding="UTF-8"?>
<!DOCTYPE svg PUBLIC "-//W3C//DTD SVG 1.1//EN" "http://www.w3.org/Graphics/SVG/1.1/DTD/svg11.dtd">
<!-- Creator: CorelDRAW X8 -->
<svg xmlns="http://www.w3.org/2000/svg" xml:space="preserve" width="40mm" height="60mm" version="1.1" style="shape-rendering:geometricPrecision; text-rendering:geometricPrecision; image-rendering:optimizeQuality; fill-rule:evenodd; clip-rule:evenodd"
viewBox="0 0 4000 6000"
 xmlns:xlink="http://www.w3.org/1999/xlink">
 <defs>
  <style type="text/css">
   <![CDATA[
    .str0 {stroke:#332C2B;stroke-width:7.62}
    .fil0 {fill:none}
   ]]>
  </style>
 </defs>
 <g id="图层_x0020_1">
  <metadata id="CorelCorpID_0Corel-Layer"/>
  <path class="fil0 str0" d="M3062 1374l486 0c25,0 45,20 45,44l0 931c0,25 -20,45 -45,45l-486 0c-25,0 -45,-20 -45,-45l0 -931c0,-24 20,-44 45,-44zm-264 673l0 0c12,0 22,10 22,23l0 796c0,13 -10,23 -22,23l0 0c-13,0 -23,-10 -23,-23l0 -796c0,-13 10,-23 23,-23zm-917 -720c22,0 40,18 40,39 0,22 -18,39 -40,39 -21,0 -39,-17 -39,-39 0,-21 18,-39 39,-39zm-1725 -77l585 0c96,0 174,75 179,170 1,12 11,21 23,21l124 0c12,0 22,-10 22,-22 3,-84 72,-152 157,-152l1284 0c85,0 155,68 157,152 1,12 11,22 23,22l124 0c12,0 21,-9 22,-21 5,-95 84,-170 179,-170l696 0c4,0 7,3 7,7l0 7 0 102c0,3 2,5 5,6l85 27 18 5c3,1 5,4 5,7l0 170c0,3 -2,5 -5,6l-18 6 -85 26c-3,1 -5,3 -5,6l0 86 0 85c0,3 2,5 5,6l85 27 18 5c3,1 5,4 5,7l0 170c0,3 -2,5 -5,6l-18 6 -85 26c-3,1 -5,4 -5,7l0 85 0 85c0,3 2,5 5,6l85 27 18 5c3,1 5,4 5,7l0 170c0,3 -2,5 -5,6l-18 6 -85 26c-3,1 -5,3 -5,6l0 86 0 85c0,3 2,5 5,6l85 27 18 5c3,1 5,4 5,7l0 170c0,3 -2,5 -5,6l-18 6 -85 26c-3,1 -5,3 -5,6l0 86 0 85c0,3 2,5 5,6l85 27 18 5c3,1 5,4 5,7l0 169c0,3 -2,6 -5,7l-18 5 -85 27c-3,1 -5,3 -5,6l0 85 0 85c0,3 2,6 5,7l85 26 18 6c3,1 5,3 5,6l0 170c0,3 -2,6 -5,7l-18 5 -85 27c-3,0 -5,3 -5,6l0 85 0 85c0,3 2,6 5,7l85 26 18 6c3,1 5,3 5,6l0 170c0,3 -2,6 -5,7l-18 5 -85 27c-3,1 -5,3 -5,6l0 85 0 85c0,3 2,6 5,7l85 26 18 6c3,1 5,3 5,6l0 170c0,3 -2,6 -5,7l-18 5 -85 27c-3,0 -5,3 -5,6l0 102 0 6c0,4 -3,7 -7,7l-696 0c-95,0 -174,-75 -179,-169 -1,-12 -10,-22 -22,-22l-124 0c-12,0 -22,10 -23,22 -2,84 -72,152 -157,152l-1284 0c-85,0 -154,-68 -157,-152 0,-12 -10,-22 -22,-22l-124 0c-12,0 -22,10 -23,22 -5,94 -83,169 -179,169l-585 0c-4,0 -7,-3 -7,-7l0 -108c0,-3 2,-6 5,-7l18 -5 85 -27c3,-1 5,-3 5,-6l0 -85 0 -85c0,-3 -2,-6 -5,-7l-85 -26 -18 -6c-3,-1 -5,-3 -5,-6l0 -170c0,-3 2,-6 5,-7l18 -5 85 -27c3,0 5,-3 5,-6l0 -85 0 -85c0,-3 -2,-6 -5,-7l-85 -26 -18 -6c-3,-1 -5,-3 -5,-6l0 -170c0,-3 2,-6 5,-7l18 -5 85 -27c3,-1 5,-3 5,-6l0 -85 0 -85c0,-3 -2,-6 -5,-7l-85 -26 -18 -6c-3,-1 -5,-3 -5,-6l0 -170c0,-3 2,-6 5,-7l18 -5 85 -27c3,0 5,-3 5,-6l0 -85 0 -85c0,-3 -2,-6 -5,-7l-85 -26 -18 -6c-3,-1 -5,-3 -5,-6l0 -170c0,-3 2,-5 5,-6l18 -6 85 -26c3,-1 5,-4 5,-7l0 -85 0 -85c0,-3 -2,-6 -5,-6l-85 -27 -18 -5c-3,-1 -5,-4 -5,-7l0 -170c0,-3 2,-5 5,-6l18 -6 85 -26c3,-1 5,-4 5,-7l0 -85 0 -85c0,-3 -2,-5 -5,-6l-85 -27 -18 -5c-3,-1 -5,-4 -5,-7l0 -170c0,-3 2,-5 5,-6l18 -6 85 -26c3,-1 5,-3 5,-6l0 -86 0 -85c0,-3 -2,-5 -5,-6l-85 -27 -18 -5c-3,-1 -5,-4 -5,-7l0 -170c0,-3 2,-6 5,-6l18 -6 85 -26c3,-1 5,-4 5,-7l0 -85 0 -85c0,-3 -2,-6 -5,-7l-85 -26 -18 -6c-3,0 -5,-3 -5,-6l0 -108c0,-4 3,-7 7,-7z"/>
 </g>
</svg>
