<?xml version="1.0" encoding="UTF-8"?>
<!DOCTYPE svg PUBLIC "-//W3C//DTD SVG 1.1//EN" "http://www.w3.org/Graphics/SVG/1.1/DTD/svg11.dtd">
<!-- Creator: CorelDRAW X8 -->
<svg xmlns="http://www.w3.org/2000/svg" xml:space="preserve" width="40mm" height="60mm" version="1.1" style="shape-rendering:geometricPrecision; text-rendering:geometricPrecision; image-rendering:optimizeQuality; fill-rule:evenodd; clip-rule:evenodd"
viewBox="0 0 4000 6000"
 xmlns:xlink="http://www.w3.org/1999/xlink">
 <defs>
  <style type="text/css">
   <![CDATA[
    .str0 {stroke:black;stroke-width:7.62}
    .fil0 {fill:none}
   ]]>
  </style>
 </defs>
 <g id="图层_x0020_1">
  <metadata id="CorelCorpID_0Corel-Layer"/>
  <path class="fil0 str0" d="M994 5350l1823 0c145,0 263,-118 263,-263l0 -4174c0,-145 -118,-263 -263,-263l-1634 0c-145,0 -263,118 -263,263l0 4174c0,145 118,263 263,263l103 0m542 -4368l351 0c80,0 146,65 146,146l0 660c0,80 -66,145 -146,145l-351 0c-80,0 -146,-65 -146,-145l0 -660c0,-81 66,-146 146,-146zm473 563l0 225c0,73 -59,132 -132,132l-335 0c-73,0 -132,-59 -132,-132l0 -225c0,27 59,80 118,80l362 0c24,0 116,-21 119,-80zm-26 -381l0 301c0,64 -53,116 -117,116l-315 0c-65,0 -117,-52 -117,-116l0 -301c0,60 48,108 108,108l333 0c59,0 108,-48 108,-108zm-433 -110l321 0c52,0 95,43 95,95l0 0c0,52 -43,95 -95,95l-321 0c-52,0 -95,-43 -95,-95l0 0c0,-52 43,-95 95,-95zm337 321c-1,-9 -8,-17 -24,-18 -57,0 -102,46 -102,102 0,57 45,102 102,102 56,0 102,-45 102,-102 0,-56 -46,-102 -102,-102m-294 394c-4,-14 -9,-24 -33,-24l-20 0c-28,0 -51,23 -51,51l0 0c0,28 23,51 51,51l400 0c28,0 51,-23 51,-51l0 0c0,-28 -23,-51 -51,-51l-380 0m44 -352c-1,-9 -8,-17 -24,-18 -57,0 -102,46 -102,102 0,57 45,102 102,102 56,0 102,-45 102,-102 0,-56 -46,-102 -102,-102m20 -274c0,-7 -7,-14 -20,-15 -47,0 -85,38 -85,85 0,47 38,85 85,85 47,0 85,-38 85,-85 0,-47 -38,-85 -85,-85m332 12c-1,-7 -7,-13 -20,-14 -47,0 -85,37 -85,84 0,47 38,85 85,85 46,0 84,-38 84,-85 0,-47 -38,-84 -84,-84"/>
 </g>
</svg>
