<?xml version="1.0" encoding="UTF-8"?>
<!DOCTYPE svg PUBLIC "-//W3C//DTD SVG 1.1//EN" "http://www.w3.org/Graphics/SVG/1.1/DTD/svg11.dtd">
<!-- Creator: CorelDRAW 2020 (64-Bit) -->
<svg xmlns="http://www.w3.org/2000/svg" xml:space="preserve" width="40mm" height="60mm" version="1.1" style="shape-rendering:geometricPrecision; text-rendering:geometricPrecision; image-rendering:optimizeQuality; fill-rule:evenodd; clip-rule:evenodd"
viewBox="0 0 4000 6000"
 xmlns:xlink="http://www.w3.org/1999/xlink"
 xmlns:xodm="http://www.corel.com/coreldraw/odm/2003">
 <defs>
  <style type="text/css">
   <![CDATA[
    .str1 {stroke:#332C2B;stroke-width:20;stroke-miterlimit:22.9256}
    .str0 {stroke:#222222;stroke-width:20;stroke-miterlimit:22.9256}
    .fil0 {fill:none}
   ]]>
  </style>
   <clipPath id="id0">
    <rect x="-22857.64" y="-1779.19" width="888.58" height="14357.67"/>
   </clipPath>
   <clipPath id="id1">
    <rect x="-37615.88" y="-1838.77" width="872.09" height="14467.48"/>
   </clipPath>
   <clipPath id="id2">
    <rect x="-33918.03" y="-5148.38" width="7393" height="1179.89"/>
   </clipPath>
   <clipPath id="id3">
    <rect x="-33908.53" y="14444.21" width="7410.05" height="1148.03"/>
   </clipPath>
 </defs>
 <g id="图层_x0020_1">
  <metadata id="CorelCorpID_0Corel-Layer"/>
  <g style="clip-path:url(#id0)">
   <image x="-22857.64" y="-1779.19" width="888.58" height="14357.67" xlink:href="S6 Edge-11i（背膜半包）_Images\S6 Edge-11i（背膜半包）_ImgID1.png"/>
  </g>
  <g style="clip-path:url(#id1)">
   <image x="-37615.88" y="-1838.77" width="872.09" height="14467.48" xlink:href="S6 Edge-11i（背膜半包）_Images\S6 Edge-11i（背膜半包）_ImgID2.png"/>
  </g>
  <g style="clip-path:url(#id2)">
   <image x="-33918.03" y="-5148.38" width="7393" height="1179.89" xlink:href="S6 Edge-11i（背膜半包）_Images\S6 Edge-11i（背膜半包）_ImgID3.png"/>
  </g>
  <g style="clip-path:url(#id3)">
   <image x="-33908.53" y="14444.21" width="7410.05" height="1148.03" xlink:href="S6 Edge-11i（背膜半包）_Images\S6 Edge-11i（背膜半包）_ImgID4.png"/>
  </g>
  <path class="fil0 str0" d="M-3310.87 6984.58l0 -558.65c577.49,0 1049.91,-472.44 1049.91,-1049.94l0 -4606.91c0,-577.5 -472.5,-1050.01 -1050,-1050.01l0.09 -468.33c0.01,-27.49 -22.52,-50 -50.02,-50l-8412.51 0 0 307.71c0,55 -45,100 -100,100l-958.88 0c-55,0 -100,-45 -100,-100l0 -307.71 -328.08 0 0 307.71c0,55 -45,100 -100,100l-958.88 0c-55,0 -100,-45 -100,-100l0 -307.71 -674.84 0c-27.5,0 -50.02,22.5 -50.02,50l0.05 468.33c-577.5,0 -1050,472.51 -1050,1050.01l0 4606.91c0,577.5 472.5,1050.01 1050,1050.01l-0.05 468.61c0,27.5 22.51,50 50.02,50l3687.39 0 0 -318.65c0,-55 45,-100 100,-100l3361.3 0c55,0 100,45 100,100l0 318.65 4484.5 0c27.51,0 50.02,-22.5 50.02,-50 0,-27.5 2.74,-73.71 29.53,-117.37"/>
  <path class="fil0 str1" d="M-14824.11 3397.85c0,319 261,580 580,580l599.48 0c319,0 580,-261 580,-580l0 -633.88c0,-319 -261,-580 -580,-580l-599.48 0c-319,0 -580,261 -580,580l0 633.88c0,0 34.75,-658.1 272.87,-787.75"/>
  <path class="fil0 str1" d="M-14660.05 1711.45c0,110 90,200 200,200l964.65 0c110,0 200,-90 200,-200l0 -292.57c0,-110 -90,-200 -200,-200l-964.65 0c-110,0 -200,90 -200,200l0 292.57c0,0 7.76,-278.25 128.15,-329.84"/>
  <g id="_2324361940960">
   <path class="fil0 str0" d="M680.55 5001.51l188.45 0c0,194.8 159.36,354.16 354.17,354.16l1554.04 0c194.8,0 354.19,-159.39 354.19,-354.19l157.98 0.03c9.28,0 16.87,-7.6 16.87,-16.87l0 -2837.77 -103.8 0c-18.55,0 -33.73,-15.18 -33.73,-33.73l0 -323.45c0,-18.56 15.18,-33.74 33.73,-33.74l103.8 0 0 -110.67 -103.8 0c-18.55,0 -33.73,-15.18 -33.73,-33.73l0 -323.46c0,-18.55 15.18,-33.73 33.73,-33.73l103.8 0 0 -227.64c0,-9.28 -7.59,-16.87 -16.87,-16.87l-157.98 0.01c0,-194.8 -159.39,-354.19 -354.19,-354.19l-1554.04 0c-194.81,0 -354.2,159.39 -354.2,354.19l-158.07 -0.01c-9.28,0 -16.87,7.59 -16.87,16.87l0 1243.85 107.49 0c18.56,0 33.73,15.18 33.73,33.74l0 1133.85c0,18.56 -15.17,33.74 -33.73,33.74l-107.49 0 0 1512.74c0,9.28 7.59,16.87 16.87,16.87 9.28,0 24.86,0.92 39.59,9.96"/>
   <path class="fil0 str1" d="M1890.45 1117.79c-107.61,0 -195.65,88.04 -195.65,195.65l0 202.22c0,107.61 88.04,195.65 195.65,195.65l213.83 0c107.6,0 195.65,-88.04 195.65,-195.65l0 -202.22c0,-107.61 -88.05,-195.65 -195.65,-195.65l-213.83 0c0,0 222,11.72 265.73,92.04"/>
   <path class="fil0 str1" d="M2459.32 1173.13c-37.11,0 -67.47,30.36 -67.47,67.47l0 325.4c0,37.1 30.36,67.46 67.47,67.46l98.69 0c37.11,0 67.47,-30.36 67.47,-67.46l0 -325.4c0,-37.11 -30.36,-67.47 -67.47,-67.47l-98.69 0c0,0 93.86,2.62 111.26,43.23"/>
  </g>
 </g>
</svg>
