<?xml version="1.0" encoding="UTF-8"?>
<!DOCTYPE svg PUBLIC "-//W3C//DTD SVG 1.1//EN" "http://www.w3.org/Graphics/SVG/1.1/DTD/svg11.dtd">
<!-- Creator: CorelDRAW 2021 (64-Bit) -->
<svg xmlns="http://www.w3.org/2000/svg" xml:space="preserve" width="40mm" height="60mm" version="1.1" style="shape-rendering:geometricPrecision; text-rendering:geometricPrecision; image-rendering:optimizeQuality; fill-rule:evenodd; clip-rule:evenodd"
viewBox="0 0 4000 6000"
 xmlns:xlink="http://www.w3.org/1999/xlink"
 xmlns:xodm="http://www.corel.com/coreldraw/odm/2003">
 <defs>
  <style type="text/css">
   <![CDATA[
    .str0 {stroke:black;stroke-width:7.62;stroke-linejoin:bevel;stroke-miterlimit:22.9256}
    .fil0 {fill:none}
   ]]>
  </style>
 </defs>
 <g id="图层_x0020_1">
  <metadata id="CorelCorpID_0Corel-Layer"/>
  <path class="fil0 str0" d="M935.42 5350l1812.23 0c96.09,0 188.24,-38.17 256.18,-106.1 67.94,-67.94 106.11,-160.09 106.11,-256.18l0 -3975.43c0,-200.09 -162.2,-362.29 -362.29,-362.29l-620.72 0 -0.13 274.2 0 698.23c0.02,87.33 -34.65,171.09 -96.38,232.85 -61.74,61.76 -145.48,96.48 -232.8,96.5l-611 0 -296.56 0.05 -0.01 3035.89c0,96.08 38.18,188.23 106.12,256.18 67.94,67.94 160.1,106.1 256.18,106.1l258.22 0"/>
 </g>
</svg>
