<?xml version="1.0" encoding="UTF-8"?>
<!DOCTYPE svg PUBLIC "-//W3C//DTD SVG 1.1//EN" "http://www.w3.org/Graphics/SVG/1.1/DTD/svg11.dtd">
<!-- Creator: CorelDRAW -->
<svg xmlns="http://www.w3.org/2000/svg" xml:space="preserve" width="40mm" height="60mm" style="shape-rendering:geometricPrecision; text-rendering:geometricPrecision; image-rendering:optimizeQuality; fill-rule:evenodd; clip-rule:evenodd"
viewBox="0 0 40 60"
 xmlns:xlink="http://www.w3.org/1999/xlink">
 <defs>
  <style type="text/css">
   <![CDATA[
    .str0 {stroke:#1F1A17;stroke-width:0.194}
    .str1 {stroke:#1F1A17;stroke-width:0.2}
    .fil1 {fill:none}
    .fil0 {fill:none;fill-rule:nonzero}
   ]]>
  </style>
 </defs>
 <g id="图层_x0020_1">
  <metadata id="CorelCorpID_0Corel-Layer"/>
  <g id="_237815240">
   <line id="_48524120" class="fil0 str0" x1="27.5032" y1="7.7029" x2="27.5032" y2= "7.8165" />
   <path id="_237815096" class="fil0 str0" d="M27.5032 7.8165c0.0681,-0.0187 0.1016,-0.0508 0.1229,-0.1136"/>
   <line id="_48524456" class="fil0 str0" x1="27.6261" y1="7.7029" x2="27.84" y2= "7.7029" />
   <path id="_237816272" class="fil0 str0" d="M27.84 7.7029c0.2686,0 0.3275,0 0.3809,0.004 0.0548,0.004 0.0749,0.0093 0.1297,0.0334"/>
   <line id="_214043912" class="fil0 str0" x1="28.3506" y1="7.7403" x2="28.396" y2= "7.759" />
   <path id="_238344288" class="fil0 str0" d="M28.396 7.759c0.2433,0.0976 0.4037,0.3436 0.4037,0.6162 0,0.2834 -0.1738,0.532 -0.4304,0.6175 -0.1551,0.0508 -0.3849,0.0695 -0.8648,0.0695 -0.9891,0 -1.2725,-0.151 -1.2725,-0.6803 0,-0.3863 0.2527,-0.6376 0.6764,-0.6723"/>
   <line id="_238344312" class="fil0 str0" x1="26.9084" y1="7.7096" x2="26.9378" y2= "7.7069" />
   <path id="_214042184" class="fil0 str0" d="M26.9378 7.7069c0.0548,-0.004 0.0548,-0.004 0.6282,-0.0107"/>
   <line id="_243056944" class="fil0 str0" x1="27.566" y1="7.6962" x2="27.8533" y2= "7.6936" />
   <line id="_237814568" class="fil0 str0" x1="31.7816" y1="50.4189" x2="31.7482" y2= "10.2866" />
   <path id="_238347504" class="fil0 str0" d="M31.7482 10.2866c-0.0013,-1.7189 -0.2165,-2.3471 -0.9276,-2.7174 -0.7124,-0.3702 -2.0797,-0.568 -5.9185,-0.8554"/>
   <line id="_48524504" class="fil0 str0" x1="24.9021" y1="6.7138" x2="22.3292" y2= "6.5213" />
   <path id="_214041440" class="fil0 str0" d="M22.3292 6.5213c-0.0975,0 -0.1657,0.0094 -0.3381,0.0455"/>
   <path id="_238344264" class="fil0 str0" d="M21.9911 6.5668c-0.1111,0.011 -0.1932,0.2242 -0.2566,0.2272l-3.6918 0.0094"/>
   <path id="_214041848" class="fil0 str0" d="M17.472 6.5c-1.1361,0.0601 -5.77,0.445 -6.4851,0.5386 -2.3457,0.3074 -2.785,0.8153 -2.785,3.0314"/>
   <line id="_238345248" class="fil0 str0" x1="8.2019" y1="10.07" x2="8.2012" y2= "20.1038" />
   <path id="_238344504" class="fil0 str0" d="M8.2012 20.1038c-0.0002,8.701 -0.0002,15.4454 -0.0002,20.2785 0,4.4001 0.0038,6.9015 0.0004,8.3167 0.0014,0.4828 0,0.8841 0,1.3459"/>
   <polyline id="_238350456" class="fil0 str0" points="8.2014,50.0449 8.2495,50.6531 8.2696,51.0634 "/>
   <path id="_238349952" class="fil0 str0" d="M8.2696 51.0634c0.0093,0.8661 0.6776,1.4756 1.8805,1.7188 1.9462,0.393 6.3543,0.7178 9.7398,0.7178 2.3538,0 4.8251,-0.1136 7.6146,-0.3488 3.1891,-0.27 3.3174,-0.2981 3.7438,-0.8047 0.7192,-1.0332 0.5196,-2.7303 0.5399,-3.9523"/>
   <path id="_238345536" class="fil1 str1" d="M17.472 6.5c0.1927,-0.0004 0.3805,0.3062 0.5708,0.3034"/>
  </g>
 </g>
</svg>
