<?xml version="1.0" encoding="UTF-8"?>
<!DOCTYPE svg PUBLIC "-//W3C//DTD SVG 1.1//EN" "http://www.w3.org/Graphics/SVG/1.1/DTD/svg11.dtd">
<!-- Creator: CorelDRAW 2020 (64-Bit) -->
<svg xmlns="http://www.w3.org/2000/svg" xml:space="preserve" width="40mm" height="60mm" version="1.1" style="shape-rendering:geometricPrecision; text-rendering:geometricPrecision; image-rendering:optimizeQuality; fill-rule:evenodd; clip-rule:evenodd"
viewBox="0 0 4000 6000"
 xmlns:xlink="http://www.w3.org/1999/xlink"
 xmlns:xodm="http://www.corel.com/coreldraw/odm/2003">
 <defs>
  <style type="text/css">
   <![CDATA[
    .str1 {stroke:#332C2B;stroke-width:20;stroke-miterlimit:22.9256}
    .str0 {stroke:#E62129;stroke-width:20;stroke-miterlimit:22.9256}
    .fil0 {fill:none}
   ]]>
  </style>
   <clipPath id="id0">
    <rect x="-63725.47" y="-6522.48" width="17359.7" height="16475.63"/>
   </clipPath>
 </defs>
 <g id="图层_x0020_1">
  <metadata id="CorelCorpID_0Corel-Layer"/>
  <g style="clip-path:url(#id0)">
   <image x="-63725.47" y="-6522.48" width="17359.7" height="16475.63" xlink:href="Galaxy M30 -11i（前膜带壳）_Images\Galaxy M30 -11i（前膜带壳）_ImgID1.png"/>
  </g>
  <rect class="fil0 str0" x="-62648.65" y="-6291.1" width="7510" height="15900"/>
  <path class="fil0 str0" d="M-61617.6 -6148.22l2153.78 0c63.44,0 79.46,81.93 127.48,82.91l31.96 0.66c123.84,0 122.66,129.89 122.66,212.56 0,168.37 136.49,304.86 304.86,304.86 168.37,0 304.86,-136.49 304.86,-304.86 0,-82.67 -10.42,-212.56 84.31,-212.56l53.93 0c48.03,0 51.14,-83.57 123.84,-83.57l2140.23 0c495,0 900,405.02 900,900l0 13817.19c0,495 -405,900 -900,900l-5447.91 0c-495,0 -900.01,-405 -900.01,-900l0 -13817.19c0,-495 405.01,-900 900.01,-900z"/>
  <path class="fil0 str1" d="M-7766.75 4833.15l0 -5793.42c0,-488.16 -402.42,-887.58 -894.24,-887.58l-13728.73 0c-491.81,0 -894.24,399.41 -894.24,887.58l0 2110.7c0,71.69 83.04,74.76 83.04,122.13l0 53.18c0,93.42 129.06,83.15 211.2,83.15 167.29,0 302.91,134.61 302.91,300.65 0,166.05 -135.62,300.65 -302.91,300.65 -82.14,0 -211.2,-1.16 -211.2,120.97l-0.66 31.52c-0.97,47.36 -82.38,63.16 -82.38,125.72l0 2124.06c0,488.17 402.41,887.59 894.24,887.59l13728.73 0c491.83,0 894.24,-399.42 894.24,-887.59 0,-488.17 75.88,-640.74 131.45,-783.62"/>
  <path class="fil0 str1" d="M1033.09 5311.21l1772.7 0c147.72,0 268.58,-120.87 268.58,-268.59l0 -4123.5c0,-147.72 -120.86,-268.59 -268.58,-268.59l-638.72 0c-21.69,0 -22.62,24.94 -36.95,24.94l-16.1 0c-28.27,0 -25.16,38.76 -25.16,63.43 0,50.25 -40.73,90.98 -90.98,90.98 -50.25,0 -90.98,-40.73 -90.98,-90.98 0,-24.67 0.35,-63.43 -36.6,-63.43l-9.54 -0.2c-14.33,-0.29 -19.11,-24.74 -38.05,-24.74l-642.75 0c-147.73,0 -268.59,120.87 -268.59,268.59l0 4123.5c0,147.72 120.86,268.59 268.59,268.59 147.72,0 237.56,22.74 278.23,39.32"/>
 </g>
</svg>
