<?xml version="1.0" encoding="UTF-8"?>
<!DOCTYPE svg PUBLIC "-//W3C//DTD SVG 1.1//EN" "http://www.w3.org/Graphics/SVG/1.1/DTD/svg11.dtd">
<!-- Creator: CorelDRAW X8 -->
<svg xmlns="http://www.w3.org/2000/svg" xml:space="preserve" width="40mm" height="60mm" version="1.1" style="shape-rendering:geometricPrecision; text-rendering:geometricPrecision; image-rendering:optimizeQuality; fill-rule:evenodd; clip-rule:evenodd"
viewBox="0 0 4000 6000"
 xmlns:xlink="http://www.w3.org/1999/xlink">
 <defs>
  <style type="text/css">
   <![CDATA[
    .str0 {stroke:black;stroke-width:7.62}
    .fil0 {fill:none}
   ]]>
  </style>
 </defs>
 <g id="图层_x0020_1">
  <metadata id="CorelCorpID_0Corel-Layer"/>
  <path class="fil0 str0" d="M2706 754c-1,-6 -6,-12 -19,-13 -42,0 -77,34 -77,77 0,43 35,78 77,78 43,0 78,-35 78,-78 0,-43 -35,-77 -78,-77m-778 70c-7,-27 -22,-48 -88,-48l-57 0c-30,0 -55,24 -55,54l0 0c0,30 25,54 55,54l479 0c30,0 54,-24 54,-54l0 0c0,-30 -24,-54 -54,-54l-422 0m-484 -9c-1,-6 -6,-12 -18,-13 -43,0 -78,34 -78,77 0,43 35,78 78,78 42,0 77,-35 77,-78 0,-43 -35,-77 -77,-77m153 4507c0,-2 -2,-4 -5,-4 -13,0 -23,10 -23,23 0,13 10,23 23,23 13,0 23,-10 23,-23 0,-13 -10,-23 -23,-23m456 -205l170 0c29,0 52,24 52,52l0 161c0,28 -23,51 -52,51l-170 0c-28,0 -51,-23 -51,-51l0 -161c0,-28 23,-52 51,-52zm631 209c0,-2 -2,-4 -5,-4 -13,0 -24,10 -24,23 0,13 11,23 24,23 13,0 23,-10 23,-23 0,-13 -10,-23 -23,-23m-1658 -18l0 -4313c0,-125 103,-213 226,-227 297,-34 587,-36 882,-36 293,0 594,0 884,33 123,14 226,105 226,230l0 4160c0,125 -101,212 -226,233 -290,47 -587,44 -881,44 -295,0 -587,-2 -885,-44 -123,-18 -226,-108 -226,-233l0 -96"/>
 </g>
</svg>
