<?xml version="1.0" encoding="UTF-8"?>
<!DOCTYPE svg PUBLIC "-//W3C//DTD SVG 1.1//EN" "http://www.w3.org/Graphics/SVG/1.1/DTD/svg11.dtd">
<!-- Creator: CorelDRAW X8 -->
<svg xmlns="http://www.w3.org/2000/svg" xml:space="preserve" width="40mm" height="60mm" version="1.1" style="shape-rendering:geometricPrecision; text-rendering:geometricPrecision; image-rendering:optimizeQuality; fill-rule:evenodd; clip-rule:evenodd"
viewBox="0 0 4000 6000"
 xmlns:xlink="http://www.w3.org/1999/xlink">
 <defs>
  <style type="text/css">
   <![CDATA[
    .str0 {stroke:#332C2B;stroke-width:7.62}
    .fil0 {fill:none}
   ]]>
  </style>
 </defs>
 <g id="图层_x0020_1">
  <metadata id="CorelCorpID_0Corel-Layer"/>
  <path class="fil0 str0" d="M3052 869l48 0c14,0 22,4 22,26l0 631c0,9 7,15 16,15l70 0c28,0 31,10 31,33l0 3567c0,5 -4,9 -9,9l-179 0c-9,112 -104,200 -217,200l-1673 0c-116,0 -212,-92 -218,-206l0 6 -173 0c-5,0 -9,-4 -9,-9l0 -2253c0,-41 10,-44 44,-44l71 0c9,0 16,-7 16,-15l0 -349c0,-9 -7,-16 -16,-16 -30,0 -60,0 -90,0 -20,0 -25,-5 -25,-31l0 -171c0,-33 11,-36 33,-36l81 0c8,0 15,-7 15,-15l0 -668c0,-8 -7,-15 -15,-15l-87 0c-20,0 -27,-6 -27,-29l0 -620c0,-5 4,-10 9,-10l172 0 0 0c0,-121 98,-219 219,-219l1673 0c120,0 218,98 218,219l0 0zm-1690 87c2,-60 -69,-108 -95,-110 -92,0 -167,75 -167,167 0,92 75,167 167,167 92,0 167,-75 167,-167 0,-92 -75,-167 -167,-167m103 492c3,-61 -69,-109 -95,-111 -92,0 -167,75 -167,167 0,93 75,167 167,167 93,0 167,-74 167,-167 0,-92 -74,-167 -167,-167m98 500c2,-61 -69,-109 -95,-111 -92,0 -167,75 -167,167 0,93 75,167 167,167 92,0 167,-74 167,-167 0,-92 -75,-167 -167,-167m415 -454c2,-39 -44,-69 -60,-71 -59,0 -106,48 -106,107 0,58 47,106 106,106 59,0 106,-48 106,-106 0,-59 -47,-107 -106,-107m65 456c2,-38 -43,-69 -60,-70 -59,0 -106,48 -106,106 0,59 47,107 106,107 59,0 106,-48 106,-107 0,-58 -47,-106 -106,-106"/>
 </g>
</svg>
