<?xml version="1.0" encoding="UTF-8"?>
<!DOCTYPE svg PUBLIC "-//W3C//DTD SVG 1.1//EN" "http://www.w3.org/Graphics/SVG/1.1/DTD/svg11.dtd">
<!-- Creator: CorelDRAW X8 -->
<svg xmlns="http://www.w3.org/2000/svg" xml:space="preserve" width="40mm" height="60mm" version="1.1" style="shape-rendering:geometricPrecision; text-rendering:geometricPrecision; image-rendering:optimizeQuality; fill-rule:evenodd; clip-rule:evenodd"
viewBox="0 0 4000 6000"
 xmlns:xlink="http://www.w3.org/1999/xlink">
 <defs>
  <style type="text/css">
   <![CDATA[
    .fil0 {fill:#242222;fill-rule:nonzero}
   ]]>
  </style>
 </defs>
 <g id="图层_x0020_1">
  <metadata id="CorelCorpID_0Corel-Layer"/>
  <g>
   <path class="fil0" d="M1082 2178l0 -20 0 0 44 1 43 3 42 5 41 8 41 9 40 11 39 14 38 15 38 17 36 18 35 21 34 21 33 24 32 25 31 26 29 28 28 30 26 30 25 32 24 33 22 34 20 35 19 37 17 37 15 38 13 40 11 39 10 41 7 42 5 42 4 43 1 43 -20 0 -1 -42 -4 -42 -5 -41 -7 -41 -9 -40 -11 -39 -13 -38 -15 -37 -16 -37 -19 -35 -19 -34 -22 -34 -23 -32 -24 -31 -26 -30 -27 -29 -29 -27 -30 -26 -31 -24 -32 -23 -33 -21 -35 -20 -35 -18 -37 -17 -37 -14 -38 -13 -39 -11 -40 -10 -40 -7 -42 -5 -41 -3 -43 -1 0 0zm0 0c-5,0 -10,-5 -10,-10 0,-6 5,-10 10,-10l0 20zm-822 822l-20 0 0 0 1 -43 3 -43 6 -42 7 -42 10 -41 11 -39 13 -40 15 -38 17 -37 19 -37 20 -35 22 -34 23 -33 25 -32 27 -30 28 -30 29 -28 31 -26 31 -25 33 -24 35 -21 35 -21 36 -18 37 -17 39 -15 39 -14 40 -11 41 -9 41 -8 42 -5 43 -3 43 -1 0 20 -42 1 -42 3 -41 5 -40 7 -40 10 -39 11 -38 13 -38 14 -36 17 -36 18 -34 20 -33 21 -33 23 -31 24 -30 26 -28 27 -27 29 -26 30 -25 31 -23 32 -21 34 -20 34 -18 35 -16 37 -15 37 -13 38 -11 39 -9 40 -8 41 -5 41 -3 42 -1 42 0 0zm0 0c0,6 -4,10 -10,10 -6,0 -10,-4 -10,-10l20 0zm822 822l0 20 0 0 -43 -1 -43 -3 -42 -5 -41 -8 -41 -9 -40 -11 -39 -14 -39 -15 -37 -17 -36 -18 -35 -21 -35 -21 -33 -24 -31 -25 -31 -26 -29 -28 -28 -30 -27 -30 -25 -32 -23 -33 -22 -34 -20 -35 -19 -37 -17 -37 -15 -38 -13 -39 -11 -40 -10 -41 -7 -42 -6 -42 -3 -43 -1 -43 20 0 1 42 3 42 5 41 8 41 9 40 11 39 13 38 15 37 16 37 18 35 20 34 21 34 23 32 25 31 26 30 27 29 28 27 30 26 31 24 33 23 33 21 34 20 36 18 36 17 38 14 38 13 39 11 40 10 40 7 41 5 42 3 42 1 0 0zm0 0c6,0 10,5 10,10 0,6 -4,10 -10,10l0 -20zm823 -822l20 0 0 0 -1 43 -4 43 -5 42 -7 42 -10 41 -11 40 -13 39 -15 38 -17 37 -19 37 -20 35 -22 34 -24 33 -25 32 -26 30 -28 30 -29 28 -31 26 -32 25 -33 24 -34 21 -35 21 -36 18 -38 17 -38 15 -39 14 -40 11 -41 9 -41 8 -42 5 -43 3 -44 1 0 -20 43 -1 41 -3 42 -5 40 -7 40 -10 39 -11 38 -13 37 -14 37 -17 35 -18 35 -20 33 -21 32 -23 31 -24 30 -26 29 -27 27 -29 26 -30 24 -31 23 -32 22 -34 19 -34 19 -35 16 -37 15 -37 13 -38 11 -39 9 -40 7 -41 5 -41 4 -42 1 -42 0 0zm0 0c0,-6 4,-10 10,-10 5,0 10,4 10,10l-20 0zm10 0l0 0 0 0 0 0 -10 0 10 0zm-10 0c0,-6 4,-10 10,-10 5,0 10,4 10,10l-20 0zm1013 -822l0 -20 0 0 43 1 43 3 42 5 41 8 41 9 40 11 39 14 39 15 37 17 36 18 35 21 35 21 33 24 31 25 31 26 29 28 28 30 27 30 25 32 23 33 22 34 20 35 19 37 17 37 15 38 13 40 11 39 10 41 7 42 6 42 3 43 1 43 -20 0 -1 -42 -3 -42 -5 -41 -8 -41 -9 -40 -11 -39 -13 -38 -15 -37 -16 -37 -18 -35 -20 -34 -21 -34 -23 -32 -25 -31 -26 -30 -27 -29 -28 -27 -30 -26 -31 -24 -33 -23 -33 -21 -34 -20 -36 -18 -36 -17 -38 -14 -38 -13 -39 -11 -40 -10 -40 -7 -41 -5 -42 -3 -42 -1 0 0zm0 0c-6,0 -10,-5 -10,-10 0,-6 4,-10 10,-10l0 20zm-823 822l-20 0 0 0 1 -43 4 -43 5 -42 7 -42 10 -41 11 -39 13 -40 15 -38 17 -37 19 -37 20 -35 22 -34 24 -33 25 -32 26 -30 28 -30 29 -28 31 -26 32 -25 33 -24 34 -21 35 -21 36 -18 38 -17 38 -15 39 -14 40 -11 41 -9 41 -8 43 -5 42 -3 44 -1 0 20 -43 1 -41 3 -42 5 -40 7 -40 10 -39 11 -38 13 -37 14 -37 17 -35 18 -35 20 -33 21 -32 23 -31 24 -30 26 -29 27 -27 29 -26 30 -24 31 -23 32 -22 34 -19 34 -19 35 -16 37 -15 37 -13 38 -11 39 -9 40 -7 41 -5 41 -4 42 -1 42 0 0zm0 0c0,6 -4,10 -10,10 -5,0 -10,-4 -10,-10l20 0zm823 822l0 20 0 0 -44 -1 -42 -3 -43 -5 -41 -8 -41 -9 -40 -11 -39 -14 -38 -15 -38 -17 -36 -18 -35 -21 -34 -21 -33 -24 -32 -25 -31 -26 -29 -28 -28 -30 -26 -30 -25 -32 -24 -33 -22 -34 -20 -35 -19 -37 -17 -37 -15 -38 -13 -39 -11 -40 -10 -41 -7 -42 -5 -42 -4 -43 -1 -43 20 0 1 42 4 42 5 41 7 41 9 40 11 39 13 38 15 37 16 37 19 35 19 34 22 34 23 32 24 31 26 30 27 29 29 27 30 26 31 24 32 23 33 21 35 20 35 18 37 17 37 14 38 13 39 11 40 10 40 7 42 5 41 3 43 1 0 0zm0 0c5,0 10,5 10,10 0,6 -5,10 -10,10l0 -20zm822 -822l20 0 0 0 -1 43 -3 43 -6 42 -7 42 -10 41 -11 40 -13 39 -15 38 -17 37 -19 37 -20 35 -22 34 -23 33 -25 32 -27 30 -28 30 -29 28 -31 26 -31 25 -33 24 -35 21 -35 21 -36 18 -37 17 -39 15 -39 14 -40 11 -41 9 -41 8 -42 5 -43 3 -43 1 0 -20 42 -1 42 -3 41 -5 40 -7 40 -10 39 -11 38 -13 38 -14 36 -17 36 -18 34 -20 33 -21 33 -23 31 -24 30 -26 28 -27 27 -29 26 -30 25 -31 23 -32 21 -34 20 -34 18 -35 16 -37 15 -37 13 -38 11 -39 9 -40 8 -41 5 -41 3 -42 1 -42 0 0zm0 0c0,-6 4,-10 10,-10 6,0 10,4 10,10l-20 0zm10 0l0 0 0 0 0 0 -10 0 10 0zm-10 0c0,-6 4,-10 10,-10 6,0 10,4 10,10l-20 0z"/>
  </g>
 </g>
</svg>
