<?xml version="1.0" encoding="UTF-8"?>
<!DOCTYPE svg PUBLIC "-//W3C//DTD SVG 1.1//EN" "http://www.w3.org/Graphics/SVG/1.1/DTD/svg11.dtd">
<!-- Creator: CorelDRAW 2020 (64-Bit) -->
<svg xmlns="http://www.w3.org/2000/svg" xml:space="preserve" width="40mm" height="60mm" version="1.1" style="shape-rendering:geometricPrecision; text-rendering:geometricPrecision; image-rendering:optimizeQuality; fill-rule:evenodd; clip-rule:evenodd"
viewBox="0 0 4000 6000"
 xmlns:xlink="http://www.w3.org/1999/xlink"
 xmlns:xodm="http://www.corel.com/coreldraw/odm/2003">
 <defs>
  <style type="text/css">
   <![CDATA[
    .str1 {stroke:#332C2B;stroke-width:20;stroke-miterlimit:22.9256}
    .str0 {stroke:#E62129;stroke-width:20;stroke-miterlimit:22.9256}
    .fil0 {fill:none}
   ]]>
  </style>
   <clipPath id="id0">
    <rect x="-43016.36" y="-4885.71" width="14074.12" height="16992.83"/>
   </clipPath>
 </defs>
 <g id="图层_x0020_1">
  <metadata id="CorelCorpID_0Corel-Layer"/>
  <g style="clip-path:url(#id0)">
   <image x="-43016.36" y="-4885.71" width="14074.13" height="16992.83" xlink:href="Vision 2s -11i（前膜带壳）_Images\Vision 2s -11i（前膜带壳）_ImgID1.png"/>
  </g>
  <rect class="fil0 str0" x="-36844.58" y="-4698.74" width="7630" height="16600"/>
  <path class="fil0 str0" d="M-35843.48 -4487.07l1913.87 0c89.03,0 108.04,107.52 164.72,107.52l308.11 0c155.38,0 141.66,121.25 141.66,200.36 0,151.24 122.6,273.84 273.84,273.84 151.24,0 273.84,-122.6 273.84,-273.84 0,-79.11 -8.41,-200.36 108.6,-200.36l314.77 0c56.68,0 78.32,-107.52 154.13,-107.52l1974.27 0c495,0 900,405.02 900,900.01l0 14410.66c0,495.01 -405,900.01 -900,900.01l-5627.81 0c-495,0 -900.01,-405 -900.01,-900.01l0 -14410.66c0,-495.01 405.01,-900.01 900.01,-900.01z"/>
  <path class="fil0 str1" d="M-4416.59 6638.2l0 -6054.74c0,-488.32 -402.51,-887.88 -894.46,-887.88l-14321.78 0c-491.94,0 -894.46,399.55 -894.46,887.88l0 1947.69c0,74.79 106.86,96.13 106.86,152.05l0 310.53c0,115.44 120.5,107.14 199.12,107.14 150.31,0 272.15,120.95 272.15,270.15 0,149.21 -121.84,270.16 -272.15,270.16 -78.62,0 -199.12,-13.54 -199.12,139.75l0 303.96c0,55.92 -106.86,74.67 -106.86,162.5l0 1888.1c0,488.33 402.5,887.89 894.46,887.89l14321.78 0c491.96,0 894.46,-399.56 894.46,-887.89 0,-488.33 80.38,-784.83 202.09,-951.52"/>
  <path class="fil0 str1" d="M1033.58 5294.82l1765.46 0c141.82,0 257.85,-116.04 257.85,-257.85l0 -4128.59c0,-141.81 -116.03,-257.85 -257.85,-257.85l-565.62 0c-21.72,0 -27.92,30.81 -44.15,30.81l-90.18 0c-33.53,0 -31.12,34.73 -31.12,57.4 0,43.33 -35.12,78.45 -78.45,78.45 -43.33,0 -78.46,-35.12 -78.46,-78.45 0,-22.67 3.93,-57.4 -40.58,-57.4l-88.27 0c-16.24,0 -21.69,-30.81 -47.19,-30.81l-548.32 0c-141.82,0 -257.85,116.03 -257.85,257.85l0 4128.59c0,141.82 116.03,257.85 257.85,257.85 141.81,0 209.14,26.9 236.81,55.71"/>
 </g>
</svg>
