<?xml version="1.0" encoding="UTF-8"?>
<!DOCTYPE svg PUBLIC "-//W3C//DTD SVG 1.1//EN" "http://www.w3.org/Graphics/SVG/1.1/DTD/svg11.dtd">
<!-- Creator: CorelDRAW X8 -->
<svg xmlns="http://www.w3.org/2000/svg" xml:space="preserve" width="40mm" height="60mm" version="1.1" style="shape-rendering:geometricPrecision; text-rendering:geometricPrecision; image-rendering:optimizeQuality; fill-rule:evenodd; clip-rule:evenodd"
viewBox="0 0 4000 6000"
 xmlns:xlink="http://www.w3.org/1999/xlink">
 <defs>
  <style type="text/css">
   <![CDATA[
    .str0 {stroke:#332C2B;stroke-width:20}
    .fil0 {fill:none}
   ]]>
  </style>
 </defs>
 <g id="图层_x0020_1">
  <metadata id="CorelCorpID_0Corel-Layer"/>
  <path class="fil0 str0" d="M1861 817l278 0c21,0 39,17 39,39l0 8c0,21 -18,38 -39,38l-278 0c-21,0 -39,-17 -39,-38l0 -8c0,-22 18,-39 39,-39zm-184 4421l-166 0c-21,0 -38,11 -38,32l0 0c0,21 17,32 38,32l166 0c22,0 39,-11 39,-32l0 0c0,-21 -17,-32 -39,-32zm397 -16l-148 0c-30,0 -54,18 -54,48l0 0c0,30 24,47 54,47l148 0c30,0 54,-17 54,-47l0 0c0,-30 -24,-48 -54,-48zm523 16l-301 0c-22,0 -39,11 -39,32l0 0c0,21 17,32 39,32l301 0c21,0 38,-11 38,-32l0 0c0,-21 -17,-32 -38,-32zm632 -387c0,0 0,-2220 0,-2220 0,0 0,-75 0,-75 0,-15 -12,-27 -27,-27 0,0 -49,0 -49,0 -30,0 -54,-24 -54,-54 0,0 0,-438 0,-438 0,-30 24,-54 54,-54 0,0 49,0 49,0 15,0 27,-12 27,-27 0,0 0,-5 0,-5 0,0 0,-732 0,-732 0,-15 -12,-27 -27,-27 0,0 -149,0 -149,0 -15,0 -27,-12 -27,-27 0,0 0,-1 0,-1 0,-167 -136,-303 -303,-303 0,0 -6,0 -6,0 -12,0 -22,-10 -22,-22l0 0 -3 -189 -1387 0c0,63 1,126 1,189 0,7 -10,22 -23,22 0,0 -6,0 -6,0 -167,0 -303,136 -303,303 0,0 0,1 0,1 0,15 -12,27 -27,27 0,0 -149,0 -149,0 -15,0 -27,12 -27,27 0,0 0,301 0,301 0,0 0,51 0,51 0,15 12,27 27,27 0,0 49,0 49,0 30,0 54,24 54,54 0,0 0,919 0,919 0,30 -24,54 -54,54 0,0 -49,0 -49,0 -15,0 -27,12 -27,27 0,0 0,83 0,83 0,15 12,27 27,27 0,0 43,0 43,0 30,0 54,24 54,54 0,0 0,379 0,379 0,29 -24,54 -54,54 0,0 -43,0 -43,0 -15,0 -27,12 -27,27 0,0 0,1513 0,1513 0,15 12,27 27,27 0,0 149,0 149,0 15,0 27,12 27,27 0,0 0,1 0,1 0,166 133,294 298,294 6,0 22,7 22,23 0,25 -1,189 0,189l1410 0c0,0 0,-123 0,-167 0,-6 0,-10 0,-21 0,-16 12,-24 24,-24 165,-2 298,-128 298,-294 0,0 0,-1 0,-1 0,-15 12,-27 27,-27 0,0 149,0 149,0 15,0 27,-12 27,-27"/>
 </g>
</svg>
