<?xml version="1.0" encoding="UTF-8"?>
<!DOCTYPE svg PUBLIC "-//W3C//DTD SVG 1.1//EN" "http://www.w3.org/Graphics/SVG/1.1/DTD/svg11.dtd">
<!-- Creator: CorelDRAW X8 -->
<svg xmlns="http://www.w3.org/2000/svg" xml:space="preserve" width="40mm" height="60mm" version="1.1" style="shape-rendering:geometricPrecision; text-rendering:geometricPrecision; image-rendering:optimizeQuality; fill-rule:evenodd; clip-rule:evenodd"
viewBox="0 0 4000 6000"
 xmlns:xlink="http://www.w3.org/1999/xlink">
 <defs>
  <style type="text/css">
   <![CDATA[
    .str0 {stroke:black;stroke-width:7.62}
    .fil0 {fill:none}
   ]]>
  </style>
 </defs>
 <g id="图层_x0020_1">
  <metadata id="CorelCorpID_0Corel-Layer"/>
  <path class="fil0 str0" d="M881 5350l2106 0c102,0 184,-83 184,-184l0 -4332c0,-101 -82,-184 -184,-184l-1974 0c-101,0 -184,83 -184,184l0 4332c0,101 83,184 184,184l222 0m355 -4656c0,-5 -4,-9 -12,-10 -30,0 -54,24 -54,54 0,29 24,53 54,53 29,0 53,-24 53,-53 0,-30 -24,-54 -53,-54m350 45c-4,-13 -11,-24 -45,-24l-29 0c-15,0 -27,12 -27,27l0 0c0,15 12,28 27,28l301 0c15,0 27,-13 27,-28l0 0c0,-15 -12,-27 -27,-27l-272 0m-552 13c-3,-11 -7,-18 -25,-18l-15 0c-21,0 -38,17 -38,38l0 0c0,21 17,38 38,38l77 0c21,0 38,-17 38,-38l0 0c0,-21 -17,-38 -38,-38l-62 0m1081 -11c-1,-5 -5,-9 -13,-10 -30,0 -54,24 -54,54 0,29 24,53 54,53 29,0 53,-24 53,-53 0,-30 -24,-54 -53,-54"/>
 </g>
</svg>
