<?xml version="1.0" encoding="UTF-8"?>
<!DOCTYPE svg PUBLIC "-//W3C//DTD SVG 1.1//EN" "http://www.w3.org/Graphics/SVG/1.1/DTD/svg11.dtd">
<!-- Creator: CorelDRAW X8 -->
<svg xmlns="http://www.w3.org/2000/svg" xml:space="preserve" width="40mm" height="60mm" version="1.1" style="shape-rendering:geometricPrecision; text-rendering:geometricPrecision; image-rendering:optimizeQuality; fill-rule:evenodd; clip-rule:evenodd"
viewBox="0 0 4000 6000"
 xmlns:xlink="http://www.w3.org/1999/xlink">
 <defs>
  <style type="text/css">
   <![CDATA[
    .str0 {stroke:black;stroke-width:5;stroke-linejoin:bevel}
    .fil0 {fill:none}
   ]]>
  </style>
 </defs>
 <g id="图层_x0020_1">
  <metadata id="CorelCorpID_0Corel-Layer"/>
  <path class="fil0 str0" d="M1219 830c0,-42 -33,-76 -75,-76 -42,0 -76,34 -76,76 0,41 34,75 76,75 42,0 75,-34 75,-75zm1831 4392c11,-34 17,-69 19,-105 2,-33 3,-66 4,-99l0 -4036c-1,-33 -2,-66 -4,-99 -2,-36 -8,-71 -19,-105 -19,-59 -69,-103 -130,-115 -44,-9 -88,-13 -133,-13l-1574 0c-45,0 -89,4 -133,13 -61,12 -111,56 -130,115 -11,34 -17,69 -19,105 -2,33 -3,66 -4,99l0 4036c1,33 2,66 4,99 2,36 8,71 19,105 19,59 69,103 130,115 44,9 88,13 133,13l1574 0c45,0 89,-4 133,-13 61,-12 111,-56 130,-115z"/>
 </g>
</svg>
