<?xml version="1.0" encoding="UTF-8"?>
<!DOCTYPE svg PUBLIC "-//W3C//DTD SVG 1.1//EN" "http://www.w3.org/Graphics/SVG/1.1/DTD/svg11.dtd">
<!-- Creator: CorelDRAW X8 -->
<svg xmlns="http://www.w3.org/2000/svg" xml:space="preserve" width="40mm" height="60mm" version="1.1" style="shape-rendering:geometricPrecision; text-rendering:geometricPrecision; image-rendering:optimizeQuality; fill-rule:evenodd; clip-rule:evenodd"
viewBox="0 0 4000 6000"
 xmlns:xlink="http://www.w3.org/1999/xlink">
 <defs>
  <style type="text/css">
   <![CDATA[
    .str0 {stroke:black;stroke-width:7.62;stroke-linejoin:bevel}
    .fil0 {fill:none}
   ]]>
  </style>
 </defs>
 <g id="图层_x0020_1">
  <metadata id="CorelCorpID_0Corel-Layer"/>
  <path class="fil0 str0" d="M2838 5350l-363 0c-16,0 -30,-10 -36,-24 -7,-19 -25,-32 -45,-32l-104 0c-20,0 -38,13 -46,32 -5,14 -20,24 -35,24l-1047 0c-44,0 -87,-11 -125,-33 -45,-26 -78,-67 -93,-115 -13,-39 -19,-79 -19,-119l0 -4166c0,-40 6,-80 19,-119 15,-48 48,-89 93,-115 38,-22 81,-33 125,-33l1676 0c44,0 87,12 125,33 45,26 78,67 93,115 13,39 19,79 19,119l0 4166c0,40 -6,80 -19,119 -15,48 -48,89 -93,115 -38,22 -81,33 -125,33zm-1619 -4542c0,-47 -39,-86 -87,-86 -47,0 -86,39 -86,86 0,48 39,87 86,87 48,0 87,-39 87,-87z"/>
 </g>
</svg>
