<?xml version="1.0" encoding="UTF-8"?>
<!DOCTYPE svg PUBLIC "-//W3C//DTD SVG 1.1//EN" "http://www.w3.org/Graphics/SVG/1.1/DTD/svg11.dtd">
<!-- Creator: CorelDRAW -->
<svg xmlns="http://www.w3.org/2000/svg" xml:space="preserve" width="40mm" height="60mm" style="shape-rendering:geometricPrecision; text-rendering:geometricPrecision; image-rendering:optimizeQuality; fill-rule:evenodd; clip-rule:evenodd"
viewBox="0 0 40 60"
 xmlns:xlink="http://www.w3.org/1999/xlink">
 <defs>
  <style type="text/css">
   <![CDATA[
    .str0 {stroke:#1F1A17;stroke-width:0.194}
    .fil0 {fill:none;fill-rule:nonzero}
   ]]>
  </style>
 </defs>
 <g id="图层_x0020_1">
  <metadata id="CorelCorpID_0Corel-Layer"/>
  <path class="fil0 str0" d="M20.7629 8.6571l-3.4089 0.0156m-8.7944 41.5877c0,0.5201 0.0122,0.6392 0.098,0.911 0.3942,1.2639 1.6393,2.0446 3.4333,2.1526 1.5803,0.0958 5.301,0.176 8.1385,0.176 2.5792,0 4.2608,-0.0445 7.6574,-0.2016 1.6226,-0.0757 2.8286,-0.7305 3.3086,-1.7996 0.1637,-0.3631 0.2093,-0.588 0.245,-1.1883l-0.0145 -40.9585m-22.8608 -0.1447l-0.0055 41.0531m22.8663 -40.9084c-0.039,-0.5969 -0.3975,-1.2985 -0.8853,-1.7317 -0.5747,-0.51 -1.5736,-0.8619 -2.6527,-0.9343 -1.3954,-0.0936 -5.3043,-0.186 -7.8355,-0.186 -3.0937,0 -7.5461,0.1136 -8.3011,0.2127 -1.8275,0.2383 -2.9612,1.1259 -3.1862,2.4946m16.7391 -1.7529c0.3631,0.0222 0.4544,0.0646 0.578,0.2706 0.0557,0.0924 0.0869,0.2116 0.0869,0.3341 0,0.4076 -0.1983,0.5813 -0.6849,0.5991 -0.2283,0.0078 -0.9421,0.0134 -1.8453,0.0134 -1.2551,0 -2.3365,-0.001 -2.6951,-0.0144m0.0736 -1.2151l4.4868 0.0123m-7.9502 1.2183c-0.7807,0.0033 -1.0179,-0.0033 -1.1905,-0.0345 -0.1737,-0.0323 -0.2405,-0.0802 -0.3396,-0.2417 -0.0579,-0.0957 -0.0891,-0.2127 -0.0891,-0.3341 0,-0.2494 0.1292,-0.4744 0.3207,-0.5568 0.1682,-0.0724 0.3775,-0.0746 4.7619,-0.0635m-3.858 43.6755c0.2522,0 0.4566,0.2111 0.4566,0.4713 0,0.2603 -0.2044,0.4714 -0.4566,0.4714 -0.2521,0 -0.4565,-0.2111 -0.4565,-0.4714 0,-0.2602 0.2044,-0.4713 0.4565,-0.4713zm10.3637 -43.825c0.4405,0 0.7977,0.3465 0.7977,0.7738 0,0.4272 -0.3572,0.7737 -0.7977,0.7737 -0.4405,0 -0.7978,-0.3465 -0.7978,-0.7737 0,-0.4273 0.3573,-0.7738 0.7978,-0.7738z"/>
 </g>
</svg>
