<?xml version="1.0" encoding="UTF-8"?>
<!DOCTYPE svg PUBLIC "-//W3C//DTD SVG 1.1//EN" "http://www.w3.org/Graphics/SVG/1.1/DTD/svg11.dtd">
<!-- Creator: CorelDRAW X8 -->
<svg xmlns="http://www.w3.org/2000/svg" xml:space="preserve" width="40mm" height="60mm" version="1.1" style="shape-rendering:geometricPrecision; text-rendering:geometricPrecision; image-rendering:optimizeQuality; fill-rule:evenodd; clip-rule:evenodd"
viewBox="0 0 4000 6000"
 xmlns:xlink="http://www.w3.org/1999/xlink">
 <defs>
  <style type="text/css">
   <![CDATA[
    .str0 {stroke:#332C2B;stroke-width:10}
    .fil0 {fill:none}
   ]]>
  </style>
 </defs>
 <g id="图层_x0020_1">
  <metadata id="CorelCorpID_0Corel-Layer"/>
  <path class="fil0 str0" d="M916 1984c-15,4 -26,12 -26,49l0 253c0,17 13,30 30,30l0 0c16,0 30,-13 30,-30l0 -511c0,-17 -14,-30 -30,-30l0 0c-17,0 -30,13 -30,30l0 258m555 -81c2,-39 -44,-70 -61,-71 -60,0 -109,48 -109,108 0,60 49,108 109,108 60,0 108,-48 108,-108 0,-60 -48,-108 -108,-108m299 71c2,-39 -44,-70 -61,-71 -60,0 -109,48 -109,108 0,60 49,108 109,108 60,0 108,-48 108,-108 0,-60 -48,-108 -108,-108m59 -160c1,-39 -45,-70 -62,-72 -60,0 -108,49 -108,109 0,60 48,108 108,108 60,0 109,-48 109,-108 0,-60 -49,-109 -109,-109m-175 72c1,-39 -45,-70 -62,-72 -60,0 -108,49 -108,109 0,60 48,108 108,108 60,0 108,-48 108,-108 0,-60 -48,-109 -108,-109m220 -358c3,-64 -72,-114 -100,-116 -97,0 -176,79 -176,176 0,97 79,176 176,176 98,0 177,-79 177,-176 0,-97 -79,-176 -177,-176m-138 -71l290 0c60,0 109,49 109,109l0 794c0,60 -49,110 -109,110l-290 0c-60,0 -110,-50 -110,-110l0 -794c0,-60 50,-109 110,-109zm-4 -50l298 0c83,0 151,68 151,151l0 821c0,83 -68,151 -151,151l-298 0c-83,0 -151,-68 -151,-151l0 -821c0,-83 68,-151 151,-151zm303 -322c0,-12 -14,-22 -19,-22 -18,0 -33,15 -33,33 0,18 15,32 33,32 18,0 33,-14 33,-32 0,-18 -15,-33 -33,-33m435 26c-2,-8 -5,-13 -17,-13l-10 0c-15,0 -26,12 -26,26l0 0c0,15 11,26 26,26l36 0c14,0 26,-11 26,-26l0 0c0,-14 -12,-26 -26,-26l-26 0m332 13c1,-11 -13,-21 -18,-21 -18,0 -33,14 -33,32 0,18 15,33 33,33 18,0 33,-15 33,-33 0,-18 -15,-32 -33,-32m25 4529c-4,-14 -13,-26 -49,-26l-32 0c-16,0 -30,13 -30,30l0 0c0,16 14,30 30,30l227 0c17,0 30,-14 30,-30l0 0c0,-17 -13,-30 -30,-30l-195 0m-118 18c1,-9 -10,-17 -14,-17 -15,0 -27,12 -27,26 0,15 12,26 27,26 14,0 26,-11 26,-26 0,-14 -12,-26 -26,-26m-262 -7c-3,-13 -8,-22 -30,-22l-18 0c-25,0 -46,20 -46,45l0 1c0,25 21,45 46,45l157 0c25,0 45,-20 45,-45l0 -1c0,-25 -20,-45 -45,-45l-139 0m-451 30c-4,-14 -9,-25 -34,-25l-21 0c-28,0 -52,23 -52,52l0 0c0,29 24,52 52,52l329 0c29,0 53,-23 53,-52l0 0c0,-29 -24,-52 -53,-52l-308 0m-611 155c699,0 1557,-1 2336,0 8,0 14,-6 14,-13l0 -92c0,-7 -6,-12 -14,-13 -175,-19 -285,-58 -395,-98l0 -1c57,-4 110,-27 151,-63 0,-1 1,-1 1,-2 7,-6 7,-15 3,-20 -46,-53 -46,-49 14,-15 6,4 12,5 19,-4 29,-40 47,-88 49,-141l105 0c7,0 13,-5 13,-13l0 -3733c0,-8 -6,-13 -13,-13l-104 0 0 -21c0,-59 -20,-112 -53,-155 -5,-7 -8,-6 -14,-5 -51,9 -55,16 -30,-24 5,-9 3,-14 -4,-19 -39,-30 -86,-49 -137,-53l0 -4c153,-53 191,-79 395,-99 8,0 14,-6 14,-13l0 -73c0,-7 -6,-13 -14,-13 -666,1 -1538,0 -2336,0 -8,0 -13,6 -13,13l0 84c0,7 5,12 13,13 201,16 267,36 413,88l0 4 -2 0c-59,0 -114,20 -157,54 -7,6 -8,11 -5,18 15,35 17,33 -18,18 -8,-3 -14,-1 -17,3 -37,45 -59,101 -59,163l0 21 -104 0c-7,0 -13,5 -13,13l0 1206c0,25 8,33 35,33l19 0c28,0 50,22 50,49l0 384c0,27 -22,50 -50,50l-27 0c-25,0 -27,2 -27,29l0 1982c0,8 6,13 13,13l104 0c2,49 18,94 44,132 9,14 13,14 29,10 42,-14 39,-17 17,21 -5,13 -6,16 7,27 44,35 99,56 159,56 -125,39 -257,78 -411,88 -8,0 -13,6 -13,13l0 102c0,7 5,13 13,13z"/>
 </g>
</svg>
