<?xml version="1.0" encoding="UTF-8"?>
<!DOCTYPE svg PUBLIC "-//W3C//DTD SVG 1.1//EN" "http://www.w3.org/Graphics/SVG/1.1/DTD/svg11.dtd">
<!-- Creator: CorelDRAW -->
<svg xmlns="http://www.w3.org/2000/svg" xml:space="preserve" width="40mm" height="60mm" style="shape-rendering:geometricPrecision; text-rendering:geometricPrecision; image-rendering:optimizeQuality; fill-rule:evenodd; clip-rule:evenodd"
viewBox="0 0 40 60"
 xmlns:xlink="http://www.w3.org/1999/xlink">
 <defs>
  <style type="text/css">
   <![CDATA[
    .str0 {stroke:#1F1A17;stroke-width:0.194}
    .fil0 {fill:none;fill-rule:nonzero}
   ]]>
  </style>
 </defs>
 <g id="图层_x0020_1">
  <metadata id="CorelCorpID_0Corel-Layer"/>
  <g id="_287036896">
   <line id="_287245320" class="fil0 str0" x1="29.3231" y1="53.2885" x2="11.4137" y2= "53.2798" />
   <path id="_287039584" class="fil0 str0" d="M11.4137 53.2798c-1.1875,-0.1259 -2.224,-1.2395 -2.2284,-2.3945"/>
   <line id="_287039128" class="fil0 str0" x1="9.1853" y1="50.8853" x2="9.0692" y2= "17.7418" />
   <path id="_287038984" class="fil0 str0" d="M9.0692 17.7418c-0.0261,-7.192 -0.0076,-8.3958 0.1378,-9.1632 0.2128,-1.1245 1.2092,-1.9906 2.363,-2.0547"/>
   <line id="_287039536" class="fil0 str0" x1="11.57" y1="6.5239" x2="12.7054" y2= "6.5141" />
   <path id="_287039224" class="fil0 str0" d="M12.7054 6.5141c0.9595,-0.0076 1.2091,0 1.334,0.0435 0.1237,0.0423 0.1519,0.1291 0.1519,0.4602 0,0.0271 0,0.0564 0,0.0879"/>
   <line id="_287039512" class="fil0 str0" x1="14.1913" y1="7.1057" x2="14.1913" y2= "7.2794" />
   <path id="_287037304" class="fil0 str0" d="M14.1913 7.2794c-0.0011,0.4461 0.2312,0.7153 0.6154,0.7153 0.4017,0 0.6144,-0.267 0.6144,-0.7707 0,-0.0543 0,-0.1346 0,-0.2399 0,-0.1747 0.0033,-0.229 0.0174,-0.2833 0.0239,-0.0857 0.0749,-0.1313 0.178,-0.1595 0.1292,-0.0348 0.28,-0.0413 0.9324,-0.0413 1.1928,0 1.1961,0.0011 1.1961,0.4516 0,0.0347 0,0.0662 0,0.0966 0,0.6176 0.0901,0.8108 0.4038,0.8618 0.1541,0.0261 1.4436,0.0456 2.9838,0.0456 1.5381,0 2.8308,-0.0195 2.998,-0.0456 0.3267,-0.0499 0.4048,-0.2345 0.4027,-0.9563"/>
   <line id="_287036680" class="fil0 str0" x1="24.5333" y1="6.9537" x2="24.5333" y2= "6.8626" />
   <path id="_287036656" class="fil0 str0" d="M24.5333 6.8626c-0.0022,-0.3615 -0.0022,-0.3615 1.3741,-0.3615"/>
   <line id="_287037040" class="fil0 str0" x1="25.9074" y1="6.5011" x2="26.2548" y2= "6.5022" />
   <path id="_46436168" class="fil0 str0" d="M26.2548 6.5022c1.8647,0.0011 2.4368,0.0163 2.6799,0.0706 0.6501,0.1476 1.2743,0.5774 1.588,1.0951 0.2355,0.3875 0.4103,0.8814 0.4179,1.1799"/>
   <polyline id="_46436600" class="fil0 str0" points="30.9406,8.8478 30.8895,50.5999 30.9265,51.02 "/>
   <path id="_46436744" class="fil0 str0" d="M30.9265 51.02c0.001,0.0119 0.0021,0.0238 0.0021,0.0379 0,0.292 -0.2952,0.9748 -0.5633,1.3047 -0.4353,0.5351 -1.0377,0.8445 -1.7823,0.9161 -0.1704,0.0163 -0.3042,0.0874 -0.4504,0.2213"/>
  </g>
 </g>
</svg>
