<?xml version="1.0" encoding="UTF-8"?>
<!DOCTYPE svg PUBLIC "-//W3C//DTD SVG 1.1//EN" "http://www.w3.org/Graphics/SVG/1.1/DTD/svg11.dtd">
<!-- Creator: CorelDRAW X8 -->
<svg xmlns="http://www.w3.org/2000/svg" xml:space="preserve" width="40mm" height="60mm" version="1.1" style="shape-rendering:geometricPrecision; text-rendering:geometricPrecision; image-rendering:optimizeQuality; fill-rule:evenodd; clip-rule:evenodd"
viewBox="0 0 4000 6000"
 xmlns:xlink="http://www.w3.org/1999/xlink">
 <defs>
  <style type="text/css">
   <![CDATA[
    .str0 {stroke:black;stroke-width:7.62}
    .fil0 {fill:none}
   ]]>
  </style>
 </defs>
 <g id="图层_x0020_1">
  <metadata id="CorelCorpID_0Corel-Layer"/>
  <path class="fil0 str0" d="M999 5350l1762 0c173,0 315,-142 315,-314l0 -4072c0,-172 -142,-314 -315,-314l-339 0c-56,1 -176,0 -260,0 -22,0 -39,10 -39,41l0 61c0,65 -53,117 -117,117l0 0c-64,0 -117,-52 -117,-117l-1 -60c0,-31 -22,-42 -45,-42 -73,0 -209,0 -250,0l-354 0c-173,0 -315,142 -315,314l0 4072c0,173 142,314 315,314l295 0"/>
 </g>
</svg>
