<?xml version="1.0" encoding="UTF-8"?>
<!DOCTYPE svg PUBLIC "-//W3C//DTD SVG 1.1//EN" "http://www.w3.org/Graphics/SVG/1.1/DTD/svg11.dtd">
<!-- Creator: CorelDRAW X8 -->
<svg xmlns="http://www.w3.org/2000/svg" xml:space="preserve" width="40mm" height="60mm" version="1.1" style="shape-rendering:geometricPrecision; text-rendering:geometricPrecision; image-rendering:optimizeQuality; fill-rule:evenodd; clip-rule:evenodd"
viewBox="0 0 4000 6000"
 xmlns:xlink="http://www.w3.org/1999/xlink">
 <defs>
  <style type="text/css">
   <![CDATA[
    .str0 {stroke:black;stroke-width:20}
    .fil0 {fill:none}
   ]]>
  </style>
 </defs>
 <g id="图层_x0020_1">
  <metadata id="CorelCorpID_0Corel-Layer"/>
  <path class="fil0 str0" d="M916 5350l488 0 1322 0c248,0 451,-201 451,-447l0 -3876c0,-208 -171,-377 -380,-377l-1594 0c-209,0 -380,169 -380,377l0 3876c0,246 203,447 451,447m548 -4611c2,-10 -33,-10 -33,-10 -19,0 -35,16 -35,35l0 0c0,20 16,36 36,36l407 0c20,0 36,-16 36,-36l0 0c0,-19 -16,-35 -36,-35l-408 0"/>
 </g>
</svg>
