<?xml version="1.0" encoding="UTF-8"?>
<!DOCTYPE svg PUBLIC "-//W3C//DTD SVG 1.1//EN" "http://www.w3.org/Graphics/SVG/1.1/DTD/svg11.dtd">
<!-- Creator: CorelDRAW X8 -->
<svg xmlns="http://www.w3.org/2000/svg" xml:space="preserve" width="40mm" height="60mm" version="1.1" style="shape-rendering:geometricPrecision; text-rendering:geometricPrecision; image-rendering:optimizeQuality; fill-rule:evenodd; clip-rule:evenodd"
viewBox="0 0 4000 6000"
 xmlns:xlink="http://www.w3.org/1999/xlink">
 <defs>
  <style type="text/css">
   <![CDATA[
    .str0 {stroke:#332C2B;stroke-width:19.4;stroke-linecap:round;stroke-linejoin:round}
    .fil0 {fill:none;fill-rule:nonzero}
   ]]>
  </style>
 </defs>
 <g id="图层_x0020_1">
  <metadata id="CorelCorpID_0Corel-Layer"/>
  <g id="_1487053896400">
   <line class="fil0 str0" x1="1629" y1="4978" x2="1629" y2= "4988" />
   <path class="fil0 str0" d="M1629 4988c-6,0 -8,-3 -10,-10 -16,0 -12,0 -28,0 -40,0 -52,-8 -52,-33 0,-16 4,-23 16,-28 11,-4 31,-6 73,-6 44,0 63,2 75,7 12,4 16,12 16,28 0,24 -16,33 -59,33 -15,0 -33,-1 -53,-2"/>
   <polyline class="fil0 str0" points="1439,4978 1429,4977 1429,4974 1429,4978 "/>
   <path class="fil0 str0" d="M1429 4978c-13,0 -22,0 -29,0 -39,0 -52,-8 -52,-33 0,-16 4,-23 16,-28 12,-4 32,-6 74,-6 43,0 62,2 74,7 12,4 16,12 16,28 0,24 -16,33 -58,33 -15,0 -33,-1 -54,-2"/>
   <polyline class="fil0 str0" points="1246,4978 1236,4977 1236,4974 1236,4978 "/>
   <path class="fil0 str0" d="M1236 4978c-12,0 -22,1 -29,1 -39,0 -52,-9 -52,-34 0,-16 5,-23 16,-28 12,-4 32,-6 74,-6 43,0 63,2 74,7 12,4 16,12 16,28 0,24 -16,33 -58,33 -14,0 -33,-1 -53,-2"/>
   <line class="fil0 str0" x1="3229" y1="2219" x2="3218" y2= "2219" />
   <path class="fil0 str0" d="M3218 2219c1,-7 4,-10 11,-11 -1,-80 -2,-160 -2,-239 0,-53 1,-74 6,-87 5,-13 13,-17 34,-17 17,0 28,7 32,20 4,15 4,29 5,330 1,231 0,290 -3,320 -4,29 -10,36 -36,36 -13,0 -17,0 -22,-3 -5,-2 -9,-8 -11,-17 -4,-17 -5,-40 -5,-137 0,-86 1,-181 2,-219"/>
   <polyline class="fil0 str0" points="766,1656 767,1645 761,1647 757,1651 "/>
   <path class="fil0 str0" d="M757 1651c0,2 0,3 0,5 0,1 0,3 1,6"/>
   <polyline class="fil0 str0" points="758,1662 765,1666 763,1675 "/>
   <path class="fil0 str0" d="M763 1675c-1,-1 -2,-1 -3,-1"/>
   <polyline class="fil0 str0" points="760,1674 759,1673 759,1673 759,1673 755,1680 "/>
   <path class="fil0 str0" d="M755 1680c-1,0 -2,-1 -3,-1"/>
   <polyline class="fil0 str0" points="752,1679 752,1678 752,1677 745,1682 743,1680 743,1678 735,1679 735,1675 735,1675 726,1674 "/>
   <path class="fil0 str0" d="M726 1674c1,-2 1,-3 1,-3"/>
   <polyline class="fil0 str0" points="727,1671 728,1670 728,1669 728,1670 721,1665 "/>
   <path class="fil0 str0" d="M721 1665c1,-1 1,-1 1,-2"/>
   <polyline class="fil0 str0" points="722,1663 723,1663 724,1662 719,1655 721,1654 723,1654 722,1645 725,1645 727,1637 726,1637 729,1637 "/>
   <path class="fil0 str0" d="M729 1637c1,1 1,1 3,1"/>
   <polyline class="fil0 str0" points="732,1638 736,1632 737,1633 737,1634 739,1635 746,1631 746,1632 746,1632 747,1633 747,1634 756,1632 756,1637 764,1639 764,1638 764,1640 "/>
   <path class="fil0 str0" d="M764 1640c0,0 -1,1 -1,2"/>
   <polyline class="fil0 str0" points="763,1642 769,1647 769,1648 769,1648 767,1650 772,1656 771,1656 770,1657 769,1657 769,1658 767,1658 769,1666 764,1666 765,1666 763,1675 "/>
   <polyline class="fil0 str0" points="714,2087 712,2097 705,2093 "/>
   <path class="fil0 str0" d="M705 2093c0,-3 -1,-4 -1,-6"/>
   <polyline class="fil0 str0" points="704,2087 705,2082 707,2080 "/>
   <path class="fil0 str0" d="M707 2080c3,-2 3,-2 6,-3"/>
   <line class="fil0 str0" x1="713" y1="2077" x2="714" y2= "2076" />
   <path class="fil0 str0" d="M714 2076c0,-37 -1,-74 -1,-112 0,-32 2,-48 6,-58 5,-9 13,-12 29,-12 11,0 15,0 19,3 4,3 7,10 10,22 3,21 4,50 4,170 0,109 -1,146 -5,165 -3,19 -10,25 -29,25 -31,0 -34,-9 -34,-92 0,-43 1,-94 2,-124"/>
   <polyline class="fil0 str0" points="708,1347 709,1336 708,1336 "/>
   <path class="fil0 str0" d="M708 1336c-1,-91 -1,-68 -1,-159 -1,-47 1,-69 7,-81 5,-13 14,-17 35,-17 18,0 31,8 35,22 4,14 5,33 5,242 0,93 0,69 0,162 -1,32 -1,49 -2,62 -1,23 -4,30 -13,38 -5,5 -15,8 -26,8 -28,0 -39,-13 -41,-47 0,-12 0,-40 0,-77 0,-63 0,-135 2,-166"/>
   <polyline class="fil0 str0" points="1369,1174 1369,1163 1376,1165 1379,1170 1379,1177 1376,1183 1369,1184 "/>
   <path class="fil0 str0" d="M1369 1184c-9,34 -35,55 -66,55 -37,0 -68,-30 -68,-67 0,-37 30,-67 67,-67 45,0 67,23 67,68 0,5 0,14 -1,24"/>
   <line class="fil0 str0" x1="1303" y1="1061" x2="1303" y2= "1071" />
   <path class="fil0 str0" d="M1303 1071c-6,-1 -9,-3 -10,-10 -52,0 -71,-1 -86,-4 -14,-4 -22,-9 -36,-25 -21,-23 -24,-41 -24,-139 0,-74 5,-93 29,-116 22,-21 36,-24 116,-24 59,0 84,1 101,5 18,3 28,9 41,24 19,21 21,32 21,88 0,87 0,109 -3,128 -2,10 -4,17 -8,23 -3,5 -6,9 -15,16 -21,20 -38,24 -92,24 -32,0 -24,0 -56,0"/>
   <polyline class="fil0 str0" points="3009,663 2999,663 3000,669 3006,673 3013,673 3018,669 3020,664 "/>
   <path class="fil0 str0" d="M3020 664c70,10 132,76 138,149"/>
   <line class="fil0 str0" x1="3158" y1="813" x2="3163" y2= "1016" />
   <path class="fil0 str0" d="M3163 1016c7,0 10,-4 11,-10 14,0 26,0 37,0"/>
   <line class="fil0 str0" x1="3211" y1="1006" x2="3358" y2= "1007" />
   <path class="fil0 str0" d="M3358 1007c11,1 13,3 17,11"/>
   <line class="fil0 str0" x1="3375" y1="1018" x2="3387" y2= "1744" />
   <path class="fil0 str0" d="M3387 1744c7,419 12,838 16,1257 3,419 4,838 4,1256 -1,456 -8,677 -24,712"/>
   <line class="fil0 str0" x1="3383" y1="4969" x2="3377" y2= "4977" />
   <path class="fil0 str0" d="M3377 4977c-10,17 -10,17 -62,16"/>
   <line class="fil0 str0" x1="3315" y1="4993" x2="3153" y2= "4993" />
   <path class="fil0 str0" d="M3153 4993c0,6 3,8 10,10"/>
   <line class="fil0 str0" x1="3163" y1="5003" x2="3163" y2= "5112" />
   <path class="fil0 str0" d="M3163 5112c0,82 -1,92 -13,121 -22,50 -73,93 -124,103 -31,6 -912,14 -1598,14 -362,0 -427,-3 -479,-22 -54,-20 -98,-71 -109,-126 -4,-17 -4,-31 -4,-80"/>
   <line class="fil0 str0" x1="836" y1="5122" x2="837" y2= "4982" />
   <path class="fil0 str0" d="M837 4982c-7,0 -9,3 -10,11"/>
   <line class="fil0 str0" x1="827" y1="4993" x2="700" y2= "4993" />
   <path class="fil0 str0" d="M700 4993c-72,0 -72,0 -76,-17"/>
   <line class="fil0 str0" x1="624" y1="4976" x2="600" y2= "3001" />
   <path class="fil0 str0" d="M600 3001c-5,-419 -7,-838 -7,-1257 1,-457 8,-679 24,-714"/>
   <polyline class="fil0 str0" points="617,1030 630,1009 630,1008 "/>
   <path class="fil0 str0" d="M630 1008c1,-2 1,-2 150,-2"/>
   <polyline class="fil0 str0" points="780,1006 847,1005 847,1002 840,995 837,995 836,887 "/>
   <path class="fil0 str0" d="M836 887c0,-79 2,-93 14,-122 23,-53 82,-100 132,-104"/>
   <line class="fil0 str0" x1="982" y1="661" x2="2013" y2= "652" />
   <path class="fil0 str0" d="M2013 652c202,-1 404,-2 607,-2 268,0 366,3 392,11"/>
   <line class="fil0 str0" x1="3012" y1="661" x2="3032" y2= "664" />
   <polyline class="fil0 str0" points="1368,1174 1379,1174 1378,1175 "/>
   <path class="fil0 str0" d="M1378 1175c-2,6 -3,7 -4,8 -2,1 -2,1 -6,1"/>
   <line class="fil0 str0" x1="1368" y1="1184" x2="1367" y2= "1184" />
   <path class="fil0 str0" d="M1367 1184c-8,34 -34,55 -65,55 -38,0 -68,-29 -68,-67 0,-38 29,-67 67,-67 37,0 67,30 67,67 0,5 0,8 -2,25"/>
   <line class="fil0 str0" x1="1302" y1="1061" x2="1302" y2= "1071" />
   <path class="fil0 str0" d="M1302 1071c-7,-2 -10,-5 -10,-10 -52,0 -72,-1 -86,-4 -15,-4 -23,-9 -37,-24 -20,-23 -23,-42 -23,-140 0,-72 4,-90 25,-113 23,-24 39,-27 130,-27 52,0 75,1 92,5 16,3 26,9 39,24 20,22 23,33 23,97 0,74 -1,98 -4,116 -3,18 -7,26 -21,40 -21,22 -38,26 -95,26 -31,0 -23,0 -55,0"/>
  </g>
 </g>
</svg>
