<?xml version="1.0" encoding="UTF-8"?>
<!DOCTYPE svg PUBLIC "-//W3C//DTD SVG 1.1//EN" "http://www.w3.org/Graphics/SVG/1.1/DTD/svg11.dtd">
<!-- Creator: CorelDRAW X8 -->
<svg xmlns="http://www.w3.org/2000/svg" xml:space="preserve" width="40mm" height="60mm" version="1.1" style="shape-rendering:geometricPrecision; text-rendering:geometricPrecision; image-rendering:optimizeQuality; fill-rule:evenodd; clip-rule:evenodd"
viewBox="0 0 4000 6000"
 xmlns:xlink="http://www.w3.org/1999/xlink">
 <defs>
  <style type="text/css">
   <![CDATA[
    .str0 {stroke:#332C2B;stroke-width:10}
    .fil0 {fill:none}
   ]]>
  </style>
 </defs>
 <g id="图层_x0020_1">
  <metadata id="CorelCorpID_0Corel-Layer"/>
  <g id="_1342276317408">
   <path class="fil0 str0" d="M1237 650l1526 0c169,0 308,139 308,308l0 4084c0,169 -139,308 -308,308l-1526 0c-169,0 -308,-139 -308,-308l0 -4084c0,-169 139,-308 308,-308z"/>
   <path class="fil0 str0" d="M1206 839l269 0c71,0 128,58 128,128l0 835c0,71 -57,128 -128,128l-269 0c-70,0 -128,-57 -128,-128l0 -835c0,-70 58,-128 128,-128z"/>
   <path class="fil0 str0" d="M1206 865l269 0c56,0 102,46 102,102l0 835c0,56 -46,103 -102,103l-269 0c-56,0 -102,-47 -102,-103l0 -835c0,-56 46,-102 102,-102z"/>
   <path class="fil0 str0" d="M1490 1022c12,-4 21,-8 21,-29l0 -17c0,-24 -20,-43 -44,-43l0 0c-23,0 -43,19 -43,43l0 181c0,24 20,44 43,44l0 0c24,0 44,-20 44,-44l0 -164"/>
   <path class="fil0 str0" d="M1276 945c1,-34 -39,-61 -54,-62 -51,0 -93,42 -93,94 0,51 42,93 93,93 52,0 94,-42 94,-93 0,-52 -42,-94 -94,-94"/>
   <path class="fil0 str0" d="M1281 1214c2,-38 -43,-67 -59,-69 -57,0 -104,47 -104,104 0,58 47,104 104,104 58,0 104,-46 104,-104 0,-57 -46,-104 -104,-104"/>
   <path class="fil0 str0" d="M1281 1513c2,-38 -43,-67 -59,-69 -57,0 -104,47 -104,104 0,58 47,104 104,104 58,0 104,-46 104,-104 0,-57 -46,-104 -104,-104"/>
   <path class="fil0 str0" d="M1276 1756c1,-34 -39,-60 -54,-62 -51,0 -93,42 -93,94 0,52 42,94 93,94 52,0 94,-42 94,-94 0,-52 -42,-94 -94,-94"/>
  </g>
 </g>
</svg>
