<?xml version="1.0" encoding="UTF-8"?>
<!DOCTYPE svg PUBLIC "-//W3C//DTD SVG 1.1//EN" "http://www.w3.org/Graphics/SVG/1.1/DTD/svg11.dtd">
<!-- Creator: CorelDRAW -->
<svg xmlns="http://www.w3.org/2000/svg" xml:space="preserve" width="40mm" height="60mm" style="shape-rendering:geometricPrecision; text-rendering:geometricPrecision; image-rendering:optimizeQuality; fill-rule:evenodd; clip-rule:evenodd"
viewBox="0 0 40 60"
 xmlns:xlink="http://www.w3.org/1999/xlink">
 <defs>
  <style type="text/css">
   <![CDATA[
    .str0 {stroke:#1F1A17;stroke-width:0.194}
    .fil0 {fill:none;fill-rule:nonzero}
   ]]>
  </style>
 </defs>
 <g id="图层_x0020_1">
  <metadata id="CorelCorpID_0Corel-Layer"/>
  <g id="_232088768">
   <g>
    <line id="_232089392" class="fil0 str0" x1="30.8465" y1="6.5121" x2="30.8465" y2= "6.8391" />
    <line id="_232089944" class="fil0 str0" x1="20.3358" y1="7.7562" x2="20.3358" y2= "7.8544" />
    <path id="_232089536" class="fil0 str0" d="M20.3358 7.8544c-0.03,0 -0.0774,-0.0473 -0.0982,-0.0982 -0.7139,-0.0069 -0.5348,-0.0057 -1.2487,-0.0092 -0.6307,-0.0035 -0.7358,0.015 -0.8663,0.1548 -0.0797,0.0843 -0.1271,0.216 -0.1271,0.3535 0,0.2137 0.112,0.3881 0.2876,0.447 0.1479,0.0508 0.6538,0.0705 1.7836,0.0705 0.8328,0 1.4092,-0.0231 1.5236,-0.0601 0.1952,-0.0635 0.3211,-0.2426 0.3211,-0.4563 0,-0.4239 -0.2172,-0.5267 -1.1159,-0.5279"/>
    <line id="_232089488" class="fil0 str0" x1="20.7955" y1="7.7285" x2="20.6465" y2= "7.7285" />
    <path id="_232089824" class="fil0 str0" d="M20.6465 7.7285c-0.2195,0 -0.2922,0.0012 -0.3685,0.0093 -0.1005,0.0103 -0.1744,0.0311 -0.2426,0.0681 -0.1201,0.067 -0.2009,0.1525 -0.5267,0.5533"/>
    <line id="_232089992" class="fil0 str0" x1="19.5087" y1="8.3592" x2="19.3863" y2= "8.5094" />
    <polyline id="_232089416" class="fil0 str0" points="9.1863,52.681 9.1205,52.7468 9.154,52.7711 "/>
    <path id="_232089440" class="fil0 str0" d="M9.154 52.7711c0.0728,-0.0035 0.1063,-0.0243 0.1386,-0.0901 4.2521,0.0104 8.5042,0.0127 12.7563,0.0093"/>
    <line id="_232090544" class="fil0 str0" x1="22.0489" y1="52.6903" x2="29.1738" y2= "52.6833" />
    <path id="_232090784" class="fil0 str0" d="M29.1738 52.6833c0.6642,-0.0196 1.1182,-0.2772 1.4659,-0.8328 0.119,-0.1906 0.1918,-0.3824 0.2045,-0.5395"/>
    <line id="_232090208" class="fil0 str0" x1="30.8442" y1="51.311" x2="30.91" y2= "29.5989" />
    <path id="_232090064" class="fil0 str0" d="M30.91 29.5989c0.0208,-7.103 0.0197,-14.2048 -0.0058,-21.3078 -0.0346,-0.6631 -0.2414,-1.0836 -0.7127,-1.452 -0.2426,-0.1906 -0.5094,-0.3085 -0.7358,-0.3235 -3.2298,-0.0104 -6.4585,-0.015 -9.6882,-0.015 -5.3067,-0.0012 -3.9795,-0.0023 -9.2874,0.0139 -0.5764,0.0404 -1.2533,0.663 -1.3862,1.2741 -0.015,0.0705 -0.0185,0.1721 -0.0185,0.506"/>
    <line id="_232090136" class="fil0 str0" x1="9.0754" y1="8.2946" x2="9.102" y2= "51.3329" />
    <path id="_232090256" class="fil0 str0" d="M9.102 51.3329c0.0012,0.5915 0.7104,1.2441 1.4463,1.3308 0.7982,0.0947 0.9703,0.2056 1.2822,0.8363"/>
   </g>
  </g>
 </g>
</svg>
