<?xml version="1.0" encoding="UTF-8"?>
<!DOCTYPE svg PUBLIC "-//W3C//DTD SVG 1.1//EN" "http://www.w3.org/Graphics/SVG/1.1/DTD/svg11.dtd">
<!-- Creator: CorelDRAW -->
<svg xmlns="http://www.w3.org/2000/svg" xml:space="preserve" width="40mm" height="60mm" style="shape-rendering:geometricPrecision; text-rendering:geometricPrecision; image-rendering:optimizeQuality; fill-rule:evenodd; clip-rule:evenodd"
viewBox="0 0 40 60"
 xmlns:xlink="http://www.w3.org/1999/xlink">
 <defs>
  <style type="text/css">
   <![CDATA[
    .str0 {stroke:#1F1A17;stroke-width:0.194}
    .fil0 {fill:none;fill-rule:nonzero}
   ]]>
  </style>
 </defs>
 <g id="图层_x0020_1">
  <metadata id="CorelCorpID_0Corel-Layer"/>
  <g id="_248642368">
   <polyline id="_248477264" class="fil0 str0" points="8.634,26.055 8.634,26.1495 8.6998,26.1351 8.7357,26.0837 8.7357,26.018 8.6998,25.9677 8.634,25.9523 "/>
   <path id="_248477432" class="fil0 str0" d="M8.634 25.9523c-0.0051,-0.4592 -0.0051,-0.3441 -0.0061,-0.8042 -0.0031,-0.6101 0.079,-0.7642 0.4077,-0.7642 0.1356,0 0.2588,0.0575 0.3195,0.15"/>
   <line id="_248478392" class="fil0 str0" x1="9.3551" y1="24.5339" x2="9.3561" y2= "24.5339" />
   <path id="_248478200" class="fil0 str0" d="M9.3561 24.5339c0.0873,0.1325 0.0873,0.1325 0.0904,1.4893"/>
   <line id="_248478152" class="fil0 str0" x1="9.4465" y1="26.0232" x2="9.4465" y2= "26.0303" />
   <path id="_248478440" class="fil0 str0" d="M9.4465 26.0303c0.001,0.8669 0,1.0631 -0.0113,1.2243 -0.0052,0.0914 -0.0144,0.15 -0.0278,0.1931 -0.0102,0.0339 -0.0205,0.0544 -0.0523,0.1007 -0.0658,0.0996 -0.1726,0.1489 -0.3195,0.1489 -0.3482,0 -0.4118,-0.1376 -0.4118,-0.8915 0,-0.3266 0.0072,-0.7118 0.0174,-0.9768"/>
   <polyline id="_248479928" class="fil0 str0" points="8.634,20.2313 8.6412,20.1297 8.634,20.1297 "/>
   <path id="_248479712" class="fil0 str0" d="M8.634 20.1297c-0.0051,-0.6718 -0.0092,-1.3445 -0.0113,-2.0162 -0.003,-0.7128 0.0083,-0.7919 0.1325,-0.907 0.0637,-0.0585 0.1746,-0.0945 0.2907,-0.0945 0.1828,0 0.3143,0.0822 0.3574,0.2239 0.0432,0.1418 0.0462,0.2969 0.0503,2.8605 0.0042,2.4671 -0.003,2.8225 -0.0626,2.9447 -0.0647,0.1325 -0.1838,0.1993 -0.3554,0.1993 -0.2167,0 -0.3615,-0.1141 -0.3933,-0.3071 -0.0124,-0.0771 -0.0206,-0.6081 -0.0206,-1.3117 0,-0.6727 0.0072,-1.3578 0.0195,-1.7152"/>
   <line id="_248480240" class="fil0 str0" x1="12.9427" y1="13.1783" x2="12.9499" y2= "13.0766" />
   <path id="_248479856" class="fil0 str0" d="M12.9499 13.0766c-0.0555,0.002 -0.0781,0.0226 -0.1017,0.0873 -0.5628,0 -1.1421,-0.6954 -1.1421,-1.3712 0,-0.8042 0.6244,-1.403 1.4564,-1.3968"/>
   <polyline id="_248480648" class="fil0 str0" points="13.1625,10.3959 16.0641,10.4174 16.2664,10.4164 "/>
   <path id="_248480720" class="fil0 str0" d="M16.2664 10.4164c0.6173,-0.001 1.2089,0.6748 1.2089,1.3804 0,0.7118 -0.5598,1.3435 -1.2449,1.402 -0.3317,0.0288 -1.4738,0.0575 -2.315,0.0575 -0.6409,0 -0.7282,-0.0061 -0.9809,-0.0678 -0.0431,-0.0102 -0.1541,-0.0318 -0.2023,-0.039"/>
   <polyline id="_248480360" class="fil0 str0" points="18.8167,12.3997 18.7222,12.3853 18.7222,12.3997 18.7222,12.3925 "/>
   <path id="_248480336" class="fil0 str0" d="M18.7222 12.3925c-0.2814,-0.0185 -0.5238,-0.3009 -0.5238,-0.6111 0,-0.3482 0.2804,-0.6275 0.6296,-0.6275 0.417,0 0.6275,0.2095 0.6265,0.6265 0,0.3523 -0.2701,0.6265 -0.6163,0.6265 -0.0462,0 -0.19,-0.0123 -0.2475,-0.0216"/>
   <polyline id="_248480504" class="fil0 str0" points="30.5348,14.8093 30.4403,14.8021 30.4557,14.7436 "/>
   <path id="_248480624" class="fil0 str0" d="M30.4557 14.7436c0.0247,-0.0216 0.0452,-0.0308 0.0791,-0.036"/>
   <line id="_248472776" class="fil0 str0" x1="30.5348" y1="14.7076" x2="30.5235" y2= "12.9513" />
   <path id="_248473328" class="fil0 str0" d="M30.5235 12.9513c-0.0051,-0.7118 0.0134,-0.8392 0.1407,-0.9562 0.0699,-0.0658 0.1777,-0.1038 0.2907,-0.1038 0.1377,0 0.264,0.0565 0.3277,0.1459"/>
   <line id="_248472872" class="fil0 str0" x1="31.2826" y1="12.0372" x2="31.2949" y2= "12.0556" />
   <path id="_248472656" class="fil0 str0" d="M31.2949 12.0556c0.0842,0.1151 0.0842,0.1151 0.0883,2.3685"/>
   <line id="_248472944" class="fil0 str0" x1="31.3832" y1="14.4241" x2="31.3843" y2= "14.7723" />
   <path id="_248473016" class="fil0 str0" d="M31.3843 14.7723c0.003,1.6957 -0.0011,2.197 -0.0206,2.4578 -0.0185,0.2609 -0.0555,0.3462 -0.1818,0.4212 -0.0627,0.0369 -0.1397,0.0554 -0.2311,0.0554 -0.2147,0 -0.3687,-0.1212 -0.4037,-0.3173 -0.0154,-0.0863 -0.0246,-0.5927 -0.0246,-1.2582 0,-0.5855 0.0072,-1.1853 0.0205,-1.5479"/>
   <line id="_248473352" class="fil0 str0" x1="30.9138" y1="48.9746" x2="30.921" y2= "48.8729" />
   <path id="_248473112" class="fil0 str0" d="M30.921 48.8729c0.0586,0.0052 0.0832,0.0309 0.0945,0.1017 0.1623,0.0021 0.2886,0.0021 0.3811,0.0021"/>
   <line id="_248472824" class="fil0 str0" x1="31.3966" y1="48.9767" x2="31.4582" y2= "48.9767" />
   <path id="_248473304" class="fil0 str0" d="M31.4582 48.9767c0.4653,0.001 0.4653,0.001 0.4786,-0.3852"/>
   <polyline id="_248474864" class="fil0 str0" points="31.9368,48.5915 31.9389,48.5391 32.1679,29.9836 "/>
   <path id="_248381424" class="fil0 str0" d="M32.1679 29.9836c0.0493,-3.9872 0.0698,-7.9744 0.0627,-11.9626 -0.0072,-4.3384 -0.0842,-6.446 -0.2455,-6.7757"/>
   <polyline id="_248380944" class="fil0 str0" points="31.9851,11.2453 31.8526,11.0522 31.8454,11.0409 "/>
   <path id="_248382216" class="fil0 str0" d="M31.8454 11.0409c-0.0072,-0.0247 -0.0072,-0.0247 -1.1596,-0.0247"/>
   <polyline id="_248382504" class="fil0 str0" points="30.6858,11.0162 30.1055,11.0172 30.1055,10.9803 30.1641,10.9145 30.1928,10.9145 "/>
   <path id="_248382384" class="fil0 str0" d="M30.1928 10.9145c-0.1181,-0.7641 -0.5474,-1.4276 -1.1504,-1.7789 -0.3769,-0.2208 -0.8072,-0.3636 -1.1318,-0.3759"/>
   <polyline id="_248382336" class="fil0 str0" points="27.9106,8.7597 12.4107,8.7946 12.0553,8.773 "/>
   <path id="_248382360" class="fil0 str0" d="M12.0553 8.773c-0.0134,-0.001 -0.0267,-0.002 -0.0421,-0.002 -0.3677,0 -1.0631,0.3163 -1.4133,0.6419 -0.4612,0.4283 -0.682,0.8967 -0.8011,1.6989 -0.037,0 -0.0791,-0.0504 -0.0802,-0.0946"/>
   <line id="_46853208" class="fil0 str0" x1="9.7186" y1="11.0172" x2="8.5652" y2= "11.0121" />
   <path id="_46853520" class="fil0 str0" d="M8.5652 11.0121c-0.5526,-0.002 -0.5526,-0.002 -0.5556,0.3564"/>
   <line id="_46856016" class="fil0 str0" x1="8.0096" y1="11.3685" x2="7.7774" y2= "41.9596" />
   <path id="_46856616" class="fil0 str0" d="M7.7774 41.9596c-0.0339,4.3559 0.0216,6.4665 0.1767,6.7952 0.1068,0.2249 0.1048,0.2249 0.7816,0.2229"/>
   <line id="_144354976" class="fil0 str0" x1="8.7357" y1="48.9777" x2="9.9148" y2= "48.9746" />
   <path id="_144354688" class="fil0 str0" d="M9.9148 48.9746c-0.0051,0.0452 -0.037,0.0842 -0.0801,0.0945 0.0657,0.7128 0.5228,1.4359 1.1349,1.7944 0.3534,0.2064 0.8248,0.3635 1.1319,0.3769"/>
   <polyline id="_144358264" class="fil0 str0" points="12.1015,51.2404 27.5922,51.2188 28.0112,51.2281 "/>
   <path id="_248243992" class="fil0 str0" d="M28.0112 51.2281c0.3667,0 1.0569,-0.3256 1.4267,-0.6728 0.4622,-0.4355 0.6861,-0.9192 0.7775,-1.6824 0.0442,0 0.0739,0.0339 0.0873,0.1017"/>
   <polyline id="_94144848" class="fil0 str0" points="30.3027,48.9746 31.0802,48.9695 31.1398,48.9674 "/>
  </g>
 </g>
</svg>
