<?xml version="1.0" encoding="UTF-8"?>
<!DOCTYPE svg PUBLIC "-//W3C//DTD SVG 1.1//EN" "http://www.w3.org/Graphics/SVG/1.1/DTD/svg11.dtd">
<!-- Creator: CorelDRAW X8 -->
<svg xmlns="http://www.w3.org/2000/svg" xml:space="preserve" width="40mm" height="60mm" version="1.1" style="shape-rendering:geometricPrecision; text-rendering:geometricPrecision; image-rendering:optimizeQuality; fill-rule:evenodd; clip-rule:evenodd"
viewBox="0 0 4000 6000"
 xmlns:xlink="http://www.w3.org/1999/xlink">
 <defs>
  <style type="text/css">
   <![CDATA[
    .str0 {stroke:black;stroke-width:7.62}
    .fil0 {fill:none}
   ]]>
  </style>
 </defs>
 <g id="图层_x0020_1">
  <metadata id="CorelCorpID_0Corel-Layer"/>
  <path class="fil0 str0" d="M1002 5350l1811 0c128,0 233,-105 233,-233l0 -4234c0,-128 -105,-233 -233,-233l-748 0c-5,0 -13,5 -13,14l0 85c0,30 -24,54 -54,54l0 0c-30,0 -54,-24 -54,-54l0 -85c0,-10 -6,-14 -17,-14l-740 0c-128,0 -233,105 -233,233l0 4234c0,128 105,233 233,233l282 0"/>
 </g>
</svg>
