<?xml version="1.0" encoding="UTF-8"?>
<!DOCTYPE svg PUBLIC "-//W3C//DTD SVG 1.1//EN" "http://www.w3.org/Graphics/SVG/1.1/DTD/svg11.dtd">
<!-- Creator: CorelDRAW 2020 (64-Bit) -->
<svg xmlns="http://www.w3.org/2000/svg" xml:space="preserve" width="40mm" height="60mm" version="1.1" style="shape-rendering:geometricPrecision; text-rendering:geometricPrecision; image-rendering:optimizeQuality; fill-rule:evenodd; clip-rule:evenodd"
viewBox="0 0 4000 6000"
 xmlns:xlink="http://www.w3.org/1999/xlink"
 xmlns:xodm="http://www.corel.com/coreldraw/odm/2003">
 <defs>
  <style type="text/css">
   <![CDATA[
    .str0 {stroke:#332C2B;stroke-width:7.62;stroke-miterlimit:22.9256}
    .fil0 {fill:none}
   ]]>
  </style>
 </defs>
 <g id="图层_x0020_1">
  <metadata id="CorelCorpID_0Corel-Layer"/>
  <path class="fil0 str0" d="M3127.91 1392.85c-21.24,0 -38.62,17.38 -38.62,38.62l0 573.62c0,21.24 17.38,38.62 38.62,38.62l0.01 0c21.25,0 38.63,-17.38 38.63,-38.62l0 -573.62c0,-21.25 -17.39,-38.62 -38.64,-38.62 -21.25,0 -30.03,28.19 -29.41,39.44m29.41 799.94c-21.24,0 -38.62,17.38 -38.62,38.63l0 271.07c0,21.25 17.38,38.62 38.62,38.62l0.01 0c21.25,0 38.63,-17.37 38.63,-38.62l0 -271.07c0,-21.26 -17.39,-38.63 -38.64,-38.63 -21.25,0 -29.71,24.96 -28.9,34.47m-1225.9 -1581.15c-16,0 -29.09,13.09 -29.09,29.09l0 0c0,16 13.09,29.09 29.09,29.09l233.12 0c16,0 29.09,-13.09 29.09,-29.09l0 0c0,-16 -13.09,-29.09 -29.09,-29.09l-233.12 0c0,0 50.62,1.66 64.68,11.89m-1126.81 4450.12l78.2 0c0,114.43 93.57,208.11 208,208.11l1778.87 0c114.47,0 208.02,-93.66 208.02,-208.11l73.07 0c16.35,0 29.72,-13.37 29.72,-29.7l0 -4223.69c0,-16.33 -13.38,-29.72 -29.72,-29.71l-73.08 0.02 0 -0.8c0,-114.41 -93.61,-208.01 -208.01,-208.01l-1778.87 0c-114.4,0 -207.99,94.39 -207.99,208.79l-59.53 0c-16.34,0 -29.72,13.37 -29.72,29.71l0 4223.69c0,16.34 13.37,29.7 29.72,29.7 16.34,0 29.08,2.62 33.99,7.44"/>
 </g>
</svg>
