<?xml version="1.0" encoding="UTF-8"?>
<!DOCTYPE svg PUBLIC "-//W3C//DTD SVG 1.1//EN" "http://www.w3.org/Graphics/SVG/1.1/DTD/svg11.dtd">
<!-- Creator: CorelDRAW X8 -->
<svg xmlns="http://www.w3.org/2000/svg" xml:space="preserve" width="40mm" height="60mm" version="1.1" style="shape-rendering:geometricPrecision; text-rendering:geometricPrecision; image-rendering:optimizeQuality; fill-rule:evenodd; clip-rule:evenodd"
viewBox="0 0 4000 6000"
 xmlns:xlink="http://www.w3.org/1999/xlink">
 <defs>
  <style type="text/css">
   <![CDATA[
    .str0 {stroke:black;stroke-width:7.62}
    .fil0 {fill:none}
   ]]>
  </style>
 </defs>
 <g id="图层_x0020_1">
  <metadata id="CorelCorpID_0Corel-Layer"/>
  <path class="fil0 str0" d="M1073 5320l1738 0c130,0 236,-107 236,-236l0 -4198c0,-130 -106,-236 -236,-236l-448 0 -228 0c-26,0 -48,21 -48,48l0 34c0,48 -39,87 -87,87l0 0c-48,0 -87,-39 -87,-87l0 -34c0,-27 -22,-48 -48,-48l-228 0 -448 0c-130,0 -236,106 -236,236l0 4198c0,129 106,236 236,236l46 0c88,0 140,8 158,30"/>
 </g>
</svg>
