<?xml version="1.0" encoding="UTF-8"?>
<!DOCTYPE svg PUBLIC "-//W3C//DTD SVG 1.1//EN" "http://www.w3.org/Graphics/SVG/1.1/DTD/svg11.dtd">
<!-- Creator: CorelDRAW X8 -->
<svg xmlns="http://www.w3.org/2000/svg" xml:space="preserve" width="40mm" height="60mm" version="1.1" style="shape-rendering:geometricPrecision; text-rendering:geometricPrecision; image-rendering:optimizeQuality; fill-rule:evenodd; clip-rule:evenodd"
viewBox="0 0 4000 6000"
 xmlns:xlink="http://www.w3.org/1999/xlink">
 <defs>
  <style type="text/css">
   <![CDATA[
    .str0 {stroke:#332C2B;stroke-width:19.4}
    .fil0 {fill:none;fill-rule:nonzero}
   ]]>
  </style>
 </defs>
 <g id="图层_x0020_1">
  <metadata id="CorelCorpID_0Corel-Layer"/>
  <g id="_2023387757616">
   <path class="fil0 str0" d="M2883 5346c-579,0 -1159,1 -1739,1 -109,-3 -189,-65 -219,-170 -3,-10 -3,-12 -3,-62"/>
   <line class="fil0 str0" x1="922" y1="5115" x2="917" y2= "885" />
   <path class="fil0 str0" d="M917 885c4,-77 30,-134 83,-179 30,-26 65,-43 101,-50 20,-3 159,-6 380,-6 249,0 291,1 312,5 21,3 24,10 24,53 0,5 0,11 0,18"/>
   <line class="fil0 str0" x1="1817" y1="726" x2="1817" y2= "730" />
   <path class="fil0 str0" d="M1817 730c0,53 0,53 157,53"/>
   <line class="fil0 str0" x1="1974" y1="783" x2="1987" y2= "783" />
   <path class="fil0 str0" d="M1987 783c129,0 163,-1 179,-6 17,-6 21,-17 21,-61"/>
   <polyline class="fil0 str0" points="2187,716 2187,709 2186,691 "/>
   <path class="fil0 str0" d="M2186 691c-3,-41 -3,-41 214,-41"/>
   <line class="fil0 str0" x1="2400" y1="650" x2="2497" y2= "650" />
   <path class="fil0 str0" d="M2497 650c192,0 371,2 394,5 50,5 109,38 142,79 23,29 46,78 48,104"/>
   <polyline class="fil0 str0" points="3081,838 3083,885 3079,5174 "/>
   <path class="fil0 str0" d="M3079 5174c-5,32 -33,82 -60,109 -39,37 -83,57 -141,63"/>
   <line class="fil0 str0" x1="2878" y1="5346" x2="2837" y2= "5350" />
  </g>
 </g>
</svg>
