<?xml version="1.0" encoding="UTF-8"?>
<!DOCTYPE svg PUBLIC "-//W3C//DTD SVG 1.1//EN" "http://www.w3.org/Graphics/SVG/1.1/DTD/svg11.dtd">
<!-- Creator: CorelDRAW 2020 (64-Bit) -->
<svg xmlns="http://www.w3.org/2000/svg" xml:space="preserve" width="40mm" height="60mm" version="1.1" style="shape-rendering:geometricPrecision; text-rendering:geometricPrecision; image-rendering:optimizeQuality; fill-rule:evenodd; clip-rule:evenodd"
viewBox="0 0 4000 6000"
 xmlns:xlink="http://www.w3.org/1999/xlink"
 xmlns:xodm="http://www.corel.com/coreldraw/odm/2003">
 <defs>
  <style type="text/css">
   <![CDATA[
    .str0 {stroke:#332C2B;stroke-width:20;stroke-miterlimit:22.9256}
    .fil0 {fill:none}
   ]]>
  </style>
 </defs>
 <g id="图层_x0020_1">
  <metadata id="CorelCorpID_0Corel-Layer"/>
  <path class="fil0 str0" d="M-36054.83 6867.04l0 -5809.33c0,-440 360,-800 800,-800l0.45 0 0 -389.08c0,-27.5 22.78,-50 50.12,-50l14367.62 0c27.35,0 50.13,22.5 50.13,50l0 389.08c440,0 800,360 800,800l0 5809.33c0,440 -360,800.01 -800,800.01l0 389.08c0,27.51 -22.78,50 -50.13,50l-7155.41 0 0 -233.75c0,-55 -45,-100 -100,-100l-1477.48 0c-55,0 -100,45 -100,100l0 233.75 -388.35 0 0 -233.75c0,-55 -45,-100 -100,-100l-1990.77 0c-55,0 -100,45 -100,100l0 233.75 -2955.61 0c-27.34,0 -50.12,-22.49 -50.12,-50l0 -389.08 -0.45 0c-440,0 -800,-360.01 -800,-800.01z"/>
  <path class="fil0 str0" d="M-35468.6 6806.75l0 -2081.29c0,-247.5 202.5,-450 450,-450l4321.58 0c247.5,0 450,202.5 450,450l0 2081.29c0,247.5 -202.5,450 -450,450l-4321.58 0c-247.5,0 -450,-202.5 -450,-450z"/>
  <path class="fil0 str0" d="M-35315.14 6755.14l0 -1978.07c0,-192.5 157.5,-350 350,-350l2272.66 0c192.5,0 350,157.5 350,350l0 1978.07c0,192.5 -157.5,350 -350,350l-2272.66 0c-192.5,0 -350,-157.5 -350,-350z"/>
  <path class="fil0 str0" d="M-32203.63 7056.69l0 -2581.17c0,-55 45,-100 100,-100l1432.72 0c163.35,0 296.99,133.64 296.99,296.99l0 2187.19c0,163.35 -133.64,296.99 -296.99,296.99l-1432.72 0c-55,0 -100,-45 -100,-100z"/>
  <path class="fil0 str0" d="M-32079.78 6802.22l0 -1079.53c0,-98.23 80.36,-178.59 178.59,-178.59l0.01 0c98.23,0 178.59,80.36 178.59,178.59l0 1079.53c0,98.23 -80.36,178.59 -178.59,178.59l-0.01 0c-98.23,0 -178.59,-80.36 -178.59,-178.59z"/>
  <path class="fil0 str0" d="M-35127.79 5763.66c0,-719.27 583.08,-1302.35 1302.35,-1302.35 719.27,0 1302.35,583.08 1302.35,1302.35 0,719.27 -583.08,1302.35 -1302.35,1302.35 -719.27,0 -1302.35,-583.08 -1302.35,-1302.35z"/>
  <path class="fil0 str0" d="M-34945.86 5778.71c0,-231.97 188.05,-420.02 420.02,-420.02 231.97,0 420.02,188.05 420.02,420.02 0,231.97 -188.05,420.02 -420.02,420.02 -231.97,0 -420.02,-188.05 -420.02,-420.02z"/>
  <path class="fil0 str0" d="M-33649.48 6330.94c0,-209.69 169.99,-379.68 379.68,-379.68 209.69,0 379.68,169.99 379.68,379.68 0,209.69 -169.99,379.68 -379.68,379.68 -209.69,0 -379.68,-169.99 -379.68,-379.68z"/>
  <path class="fil0 str0" d="M-33649.48 5211.16c0,-209.69 169.99,-379.68 379.68,-379.68 209.69,0 379.68,169.99 379.68,379.68 0,209.69 -169.99,379.68 -379.68,379.68 -209.69,0 -379.68,-169.99 -379.68,-379.68z"/>
  <g id="_1687513116688">
   <path class="fil0 str0" d="M1143.25 650.53l1699.24 0c128.7,0 234,105.3 234,234l0 0.13 113.81 0c8.04,0 14.62,6.67 14.62,14.66l0 4202.55c0,8 -6.58,14.66 -14.62,14.66l-113.81 0c0,128.7 -105.3,234 -234,234l-1699.24 0c-128.7,0 -234,-105.3 -234,-234l-113.81 0c-8.04,0 -14.62,-6.66 -14.62,-14.66l0 -2092.97 68.37 0c16.09,0 29.25,-13.16 29.25,-29.25l0 -432.16c0,-16.09 -13.16,-29.25 -29.25,-29.25l-68.37 0 0 -113.6 68.37 0c16.09,0 29.25,-13.16 29.25,-29.25l0 -582.3c0,-16.09 -13.16,-29.25 -29.25,-29.25l-68.37 0 0 -864.52c0,-7.99 6.58,-14.66 14.62,-14.66l113.81 0 0 -0.13c0,-128.7 105.3,-234 234,-234z"/>
   <path class="fil0 str0" d="M1160.89 822l608.78 0c72.39,0 131.62,59.23 131.62,131.63l0 1264.06c0,72.4 -59.23,131.63 -131.62,131.63l-608.78 0c-72.39,0 -131.63,-59.23 -131.63,-131.63l0 -1264.06c0,-72.4 59.24,-131.63 131.63,-131.63z"/>
   <path class="fil0 str0" d="M1175.99 866.89l578.58 0c56.31,0 102.38,46.07 102.38,102.38l0 664.75c0,56.31 -46.07,102.38 -102.38,102.38l-578.58 0c-56.31,0 -102.38,-46.07 -102.38,-102.38l0 -664.75c0,-56.31 46.07,-102.38 102.38,-102.38z"/>
   <path class="fil0 str0" d="M1087.78 1777.01l755 0c16.08,0 29.25,13.16 29.25,29.25l0 419.07c0,47.78 -39.09,86.87 -86.87,86.87l-639.76 0c-47.78,0 -86.87,-39.09 -86.87,-86.87l0 -419.07c0,-16.09 13.16,-29.25 29.25,-29.25z"/>
   <path class="fil0 str0" d="M1162.21 1813.24l315.77 0c28.73,0 52.24,23.5 52.24,52.23l0 0.01c0,28.73 -23.51,52.23 -52.24,52.23l-315.77 0c-28.73,0 -52.23,-23.5 -52.23,-52.23l0 -0.01c0,-28.73 23.5,-52.23 52.23,-52.23z"/>
   <path class="fil0 str0" d="M1465.99 921.69c210.39,0 380.94,170.55 380.94,380.94 0,210.39 -170.55,380.94 -380.94,380.94 -210.38,0 -380.93,-170.55 -380.93,-380.94 0,-210.39 170.55,-380.94 380.93,-380.94z"/>
   <path class="fil0 str0" d="M1461.59 974.9c67.85,0 122.86,55.01 122.86,122.86 0,67.85 -55.01,122.86 -122.86,122.86 -67.85,0 -122.85,-55.01 -122.85,-122.86 0,-67.85 55,-122.86 122.85,-122.86z"/>
   <path class="fil0 str0" d="M1300.06 1354.1c61.34,0 111.06,49.72 111.06,111.05 0,61.34 -49.72,111.06 -111.06,111.06 -61.33,0 -111.05,-49.72 -111.05,-111.06 0,-61.33 49.72,-111.05 111.05,-111.05z"/>
   <path class="fil0 str0" d="M1627.6 1354.1c61.34,0 111.06,49.72 111.06,111.05 0,61.34 -49.72,111.06 -111.06,111.06 -61.33,0 -111.06,-49.72 -111.06,-111.06 0,-61.33 49.73,-111.05 111.06,-111.05z"/>
  </g>
 </g>
</svg>
