<?xml version="1.0" encoding="UTF-8"?>
<!DOCTYPE svg PUBLIC "-//W3C//DTD SVG 1.1//EN" "http://www.w3.org/Graphics/SVG/1.1/DTD/svg11.dtd">
<!-- Creator: CorelDRAW X8 -->
<svg xmlns="http://www.w3.org/2000/svg" xml:space="preserve" width="40mm" height="60mm" version="1.1" style="shape-rendering:geometricPrecision; text-rendering:geometricPrecision; image-rendering:optimizeQuality; fill-rule:evenodd; clip-rule:evenodd"
viewBox="0 0 4000 6000"
 xmlns:xlink="http://www.w3.org/1999/xlink">
 <defs>
  <style type="text/css">
   <![CDATA[
    .str0 {stroke:#332C2B;stroke-width:7.62}
    .fil0 {fill:none}
   ]]>
  </style>
 </defs>
 <g id="图层_x0020_1">
  <metadata id="CorelCorpID_0Corel-Layer"/>
  <path class="fil0 str0" d="M1003 5350l1855 0c137,0 250,-112 250,-250l0 -4200c0,-138 -113,-250 -250,-250l-704 0c-13,0 -22,7 -22,21l0 68c0,11 -9,20 -20,20l-222 0c-11,0 -20,-9 -20,-20l0 -67c0,-18 -8,-22 -24,-22l-704 0c-137,0 -250,112 -250,250l0 4200c0,138 113,250 250,250l56 0"/>
 </g>
</svg>
