<?xml version="1.0" encoding="UTF-8"?>
<!DOCTYPE svg PUBLIC "-//W3C//DTD SVG 1.1//EN" "http://www.w3.org/Graphics/SVG/1.1/DTD/svg11.dtd">
<!-- Creator: CorelDRAW X8 -->
<svg xmlns="http://www.w3.org/2000/svg" xml:space="preserve" width="40mm" height="60mm" version="1.1" style="shape-rendering:geometricPrecision; text-rendering:geometricPrecision; image-rendering:optimizeQuality; fill-rule:evenodd; clip-rule:evenodd"
viewBox="0 0 4000 6000"
 xmlns:xlink="http://www.w3.org/1999/xlink">
 <defs>
  <style type="text/css">
   <![CDATA[
    .str0 {stroke:black;stroke-width:7.62}
    .fil0 {fill:none}
   ]]>
  </style>
 </defs>
 <g id="图层_x0020_1">
  <metadata id="CorelCorpID_0Corel-Layer"/>
  <path class="fil0 str0" d="M961 5350l1881 0c117,0 212,-96 212,-212l0 -4276c0,-116 -95,-212 -212,-212l-1684 0c-117,0 -212,96 -212,212l0 4276c0,116 95,212 212,212l178 0m219 -4627c0,-2 -2,-4 -6,-4 -13,0 -24,11 -24,24 0,13 11,24 24,24 13,0 24,-11 24,-24 0,-13 -11,-24 -24,-24m781 9c-3,-9 -6,-16 -21,-16l-13 0c-18,0 -32,15 -32,33l0 0c0,17 14,32 32,32l90 0c18,0 32,-15 32,-32l0 0c0,-18 -14,-33 -32,-33l-77 0m-333 25c-5,-20 -16,-36 -66,-36l-42 0c-22,0 -40,19 -40,41l0 0c0,22 18,40 40,40l285 0c23,0 41,-18 41,-40l0 0c0,-22 -18,-41 -41,-41l-243 0m827 -4c-1,-5 -5,-9 -14,-10 -31,0 -56,26 -56,57 0,31 25,56 56,56 31,0 57,-25 57,-56 0,-31 -26,-57 -57,-57m-1386 13c-1,-4 -4,-8 -12,-9 -26,0 -48,22 -48,48 0,27 22,49 48,49 27,0 49,-22 49,-49 0,-26 -22,-48 -49,-48"/>
 </g>
</svg>
