<?xml version="1.0" encoding="UTF-8"?>
<!DOCTYPE svg PUBLIC "-//W3C//DTD SVG 1.1//EN" "http://www.w3.org/Graphics/SVG/1.1/DTD/svg11.dtd">
<!-- Creator: CorelDRAW X8 -->
<svg xmlns="http://www.w3.org/2000/svg" xml:space="preserve" width="40mm" height="60mm" version="1.1" style="shape-rendering:geometricPrecision; text-rendering:geometricPrecision; image-rendering:optimizeQuality; fill-rule:evenodd; clip-rule:evenodd"
viewBox="0 0 4000 6000"
 xmlns:xlink="http://www.w3.org/1999/xlink">
 <defs>
  <style type="text/css">
   <![CDATA[
    .str0 {stroke:black;stroke-width:7.62}
    .fil0 {fill:none}
   ]]>
  </style>
 </defs>
 <g id="图层_x0020_1">
  <metadata id="CorelCorpID_0Corel-Layer"/>
  <path class="fil0 str0" d="M3167 2527c-15,4 -25,9 -25,33l0 20c0,28 23,52 51,52l0 0c28,0 51,-24 51,-52l0 -687c0,-29 -23,-52 -51,-52l0 0c-28,0 -51,23 -51,52l0 667m-1680 -1687c-2,-22 -22,-43 -62,-46 -146,0 -264,118 -264,263 0,145 118,263 264,263 145,0 263,-118 263,-263 0,-145 -118,-263 -263,-263m65 674c-2,-22 -22,-43 -63,-46 -145,0 -263,118 -263,263 0,145 118,263 263,263 146,0 264,-118 264,-263 0,-145 -118,-263 -264,-263m553 -502c-1,-14 -13,-27 -39,-30 -93,0 -169,76 -169,169 0,93 76,168 169,168 92,0 168,-75 168,-168 0,-93 -76,-169 -168,-169m42 653c-1,-14 -13,-27 -40,-29 -92,0 -168,75 -168,168 0,93 76,168 168,168 93,0 169,-75 169,-168 0,-93 -76,-168 -169,-168m-747 -865l964 0c8,0 15,7 15,15l6 1363c0,103 -84,186 -186,186l-970 0c-8,0 -14,-6 -14,-14l0 -1364c0,-102 83,-186 185,-186zm-387 1875c-13,3 -21,7 -21,28l0 18c0,24 19,43 43,43l0 0c25,0 44,-19 44,-43l0 -359c0,-24 -19,-44 -44,-44l0 0c-24,0 -43,20 -43,44l0 341m145 2703l1952 0c117,0 213,-95 213,-212l200 0c8,0 15,-6 15,-15l0 -4184c0,-8 -7,-15 -15,-15l-200 0c0,-117 -96,-212 -213,-212l-558 0 -107 10c-10,1 -18,10 -18,20l0 1396c0,107 -87,193 -193,193l-1002 0c-8,0 -16,6 -19,14 -13,36 -19,76 -19,116 -1,4 -4,8 -9,8 -10,0 -20,0 -30,0 -5,0 -9,-4 -9,-8l0 -130 0 -18 0 -1389 -169 0c-8,0 -15,7 -15,15l0 4184c0,9 7,15 15,15l200 0c0,117 96,212 213,212l90 0c110,6 181,26 213,62"/>
 </g>
</svg>
