<?xml version="1.0" encoding="UTF-8"?>
<!DOCTYPE svg PUBLIC "-//W3C//DTD SVG 1.1//EN" "http://www.w3.org/Graphics/SVG/1.1/DTD/svg11.dtd">
<!-- Creator: CorelDRAW X8 -->
<svg xmlns="http://www.w3.org/2000/svg" xml:space="preserve" width="40mm" height="60mm" version="1.1" style="shape-rendering:geometricPrecision; text-rendering:geometricPrecision; image-rendering:optimizeQuality; fill-rule:evenodd; clip-rule:evenodd"
viewBox="0 0 4000 6000"
 xmlns:xlink="http://www.w3.org/1999/xlink">
 <defs>
  <style type="text/css">
   <![CDATA[
    .str0 {stroke:black;stroke-width:10}
    .fil0 {fill:none}
   ]]>
  </style>
 </defs>
 <g id="图层_x0020_1">
  <metadata id="CorelCorpID_0Corel-Layer"/>
  <g id="_2220433351200">
   <path class="fil0 str0" d="M411 1641l776 0c128,0 232,-104 232,-232l0 -527c0,-127 -104,-232 -232,-232l-507 0c-127,0 -232,105 -232,232l0 527c0,128 105,232 232,232 128,0 207,84 207,128"/>
   <path class="fil0 str0" d="M411 2835l776 0c128,0 232,-105 232,-233l0 -526c0,-128 -104,-232 -232,-232l-507 0c-127,0 -232,104 -232,232l0 526c0,128 105,233 232,233 128,0 207,83 207,128"/>
   <path class="fil0 str0" d="M411 4028l776 0c128,0 232,-104 232,-232l0 -527c0,-127 -104,-232 -232,-232l-507 0c-127,0 -232,105 -232,232l0 527c0,128 105,232 232,232 128,0 207,84 207,128"/>
   <path class="fil0 str0" d="M411 5222l776 0c128,0 232,-105 232,-233l0 -526c0,-128 -104,-232 -232,-232l-507 0c-127,0 -232,104 -232,232l0 526c0,128 105,233 232,233 128,0 207,83 207,128"/>
   <path class="fil0 str0" d="M1496 1641l776 0c128,0 232,-104 232,-232l0 -527c0,-127 -104,-232 -232,-232l-507 0c-127,0 -232,105 -232,232l0 527c0,128 105,232 232,232 128,0 207,84 207,128"/>
   <path class="fil0 str0" d="M1496 2835l776 0c128,0 232,-105 232,-233l0 -526c0,-128 -104,-232 -232,-232l-507 0c-127,0 -232,104 -232,232l0 526c0,128 105,233 232,233 128,0 207,83 207,128"/>
   <path class="fil0 str0" d="M1496 4028l776 0c128,0 232,-104 232,-232l0 -527c0,-127 -104,-232 -232,-232l-507 0c-127,0 -232,105 -232,232l0 527c0,128 105,232 232,232 128,0 207,84 207,128"/>
   <path class="fil0 str0" d="M1496 5222l776 0c128,0 232,-105 232,-233l0 -526c0,-128 -104,-232 -232,-232l-507 0c-127,0 -232,104 -232,232l0 526c0,128 105,233 232,233 128,0 207,83 207,128"/>
   <path class="fil0 str0" d="M2581 1641l776 0c128,0 232,-104 232,-232l0 -527c0,-127 -104,-232 -232,-232l-507 0c-127,0 -232,105 -232,232l0 527c0,128 105,232 232,232 128,0 207,84 207,128"/>
   <path class="fil0 str0" d="M2581 2835l776 0c128,0 232,-105 232,-233l0 -526c0,-128 -104,-232 -232,-232l-507 0c-127,0 -232,104 -232,232l0 526c0,128 105,233 232,233 128,0 207,83 207,128"/>
   <path class="fil0 str0" d="M2581 4028l776 0c128,0 232,-104 232,-232l0 -527c0,-127 -104,-232 -232,-232l-507 0c-127,0 -232,105 -232,232l0 527c0,128 105,232 232,232 128,0 207,84 207,128"/>
   <path class="fil0 str0" d="M2581 5222l776 0c128,0 232,-105 232,-233l0 -526c0,-128 -104,-232 -232,-232l-507 0c-127,0 -232,104 -232,232l0 526c0,128 105,233 232,233 128,0 207,83 207,128"/>
   <path class="fil0 str0" d="M680 711l507 0c79,0 144,65 144,144l0 568c0,80 -65,145 -144,145l-507 0c-79,0 -144,-65 -144,-145l0 -568c0,-79 65,-144 144,-144z"/>
   <path class="fil0 str0" d="M680 1904l507 0c79,0 144,65 144,145l0 568c0,79 -65,144 -144,144l-507 0c-79,0 -144,-65 -144,-144l0 -568c0,-80 65,-145 144,-145z"/>
   <path class="fil0 str0" d="M680 3098l507 0c79,0 144,65 144,144l0 568c0,80 -65,145 -144,145l-507 0c-79,0 -144,-65 -144,-145l0 -568c0,-79 65,-144 144,-144z"/>
   <path class="fil0 str0" d="M680 4291l507 0c79,0 144,65 144,145l0 568c0,79 -65,144 -144,144l-507 0c-79,0 -144,-65 -144,-144l0 -568c0,-80 65,-145 144,-145z"/>
   <path class="fil0 str0" d="M1765 711l507 0c79,0 144,65 144,144l0 568c0,80 -65,145 -144,145l-507 0c-79,0 -144,-65 -144,-145l0 -568c0,-79 65,-144 144,-144z"/>
   <path class="fil0 str0" d="M1765 1904l507 0c79,0 144,65 144,145l0 568c0,79 -65,144 -144,144l-507 0c-79,0 -144,-65 -144,-144l0 -568c0,-80 65,-145 144,-145z"/>
   <path class="fil0 str0" d="M1765 3098l507 0c79,0 144,65 144,144l0 568c0,80 -65,145 -144,145l-507 0c-79,0 -144,-65 -144,-145l0 -568c0,-79 65,-144 144,-144z"/>
   <path class="fil0 str0" d="M1765 4291l507 0c79,0 144,65 144,145l0 568c0,79 -65,144 -144,144l-507 0c-79,0 -144,-65 -144,-144l0 -568c0,-80 65,-145 144,-145z"/>
   <path class="fil0 str0" d="M2850 711l507 0c79,0 144,65 144,144l0 568c0,80 -65,145 -144,145l-507 0c-79,0 -144,-65 -144,-145l0 -568c0,-79 65,-144 144,-144z"/>
   <path class="fil0 str0" d="M2850 1904l507 0c79,0 144,65 144,145l0 568c0,79 -65,144 -144,144l-507 0c-79,0 -144,-65 -144,-144l0 -568c0,-80 65,-145 144,-145z"/>
   <path class="fil0 str0" d="M2850 3098l507 0c79,0 144,65 144,144l0 568c0,80 -65,145 -144,145l-507 0c-79,0 -144,-65 -144,-145l0 -568c0,-79 65,-144 144,-144z"/>
   <path class="fil0 str0" d="M2850 4291l507 0c79,0 144,65 144,145l0 568c0,79 -65,144 -144,144l-507 0c-79,0 -144,-65 -144,-144l0 -568c0,-80 65,-145 144,-145z"/>
   <path class="fil0 str0" d="M766 1236c-1,-13 -12,-25 -36,-27 -85,0 -154,69 -154,154 0,85 69,154 154,154 85,0 154,-69 154,-154 0,-85 -69,-154 -154,-154"/>
   <path class="fil0 str0" d="M766 2430c-1,-13 -12,-25 -36,-27 -85,0 -154,69 -154,154 0,84 69,153 154,153 85,0 154,-69 154,-153 0,-85 -69,-154 -154,-154"/>
   <path class="fil0 str0" d="M766 3623c-1,-13 -12,-25 -36,-27 -85,0 -154,69 -154,154 0,85 69,154 154,154 85,0 154,-69 154,-154 0,-85 -69,-154 -154,-154"/>
   <path class="fil0 str0" d="M766 4817c-1,-13 -12,-25 -36,-27 -85,0 -154,69 -154,154 0,84 69,153 154,153 85,0 154,-69 154,-153 0,-85 -69,-154 -154,-154"/>
   <path class="fil0 str0" d="M1851 1236c-1,-13 -12,-25 -36,-27 -85,0 -154,69 -154,154 0,85 69,154 154,154 85,0 154,-69 154,-154 0,-85 -69,-154 -154,-154"/>
   <path class="fil0 str0" d="M1851 2430c-1,-13 -12,-25 -36,-27 -85,0 -154,69 -154,154 0,84 69,153 154,153 85,0 154,-69 154,-153 0,-85 -69,-154 -154,-154"/>
   <path class="fil0 str0" d="M1851 3623c-1,-13 -12,-25 -36,-27 -85,0 -154,69 -154,154 0,85 69,154 154,154 85,0 154,-69 154,-154 0,-85 -69,-154 -154,-154"/>
   <path class="fil0 str0" d="M1851 4817c-1,-13 -12,-25 -36,-27 -85,0 -154,69 -154,154 0,84 69,153 154,153 85,0 154,-69 154,-153 0,-85 -69,-154 -154,-154"/>
   <path class="fil0 str0" d="M2936 1236c0,-13 -12,-25 -36,-27 -85,0 -154,69 -154,154 0,85 69,154 154,154 85,0 154,-69 154,-154 0,-85 -69,-154 -154,-154"/>
   <path class="fil0 str0" d="M2936 2430c0,-13 -12,-25 -36,-27 -85,0 -154,69 -154,154 0,84 69,153 154,153 85,0 154,-69 154,-153 0,-85 -69,-154 -154,-154"/>
   <path class="fil0 str0" d="M2936 3623c0,-13 -12,-25 -36,-27 -85,0 -154,69 -154,154 0,85 69,154 154,154 85,0 154,-69 154,-154 0,-85 -69,-154 -154,-154"/>
   <path class="fil0 str0" d="M2936 4817c0,-13 -12,-25 -36,-27 -85,0 -154,69 -154,154 0,84 69,153 154,153 85,0 154,-69 154,-153 0,-85 -69,-154 -154,-154"/>
   <path class="fil0 str0" d="M1166 1236c0,-13 -12,-25 -36,-27 -85,0 -154,69 -154,154 0,85 69,154 154,154 85,0 154,-69 154,-154 0,-85 -69,-154 -154,-154"/>
   <path class="fil0 str0" d="M1166 2430c0,-13 -12,-25 -36,-27 -85,0 -154,69 -154,154 0,84 69,153 154,153 85,0 154,-69 154,-153 0,-85 -69,-154 -154,-154"/>
   <path class="fil0 str0" d="M1166 3623c0,-13 -12,-25 -36,-27 -85,0 -154,69 -154,154 0,85 69,154 154,154 85,0 154,-69 154,-154 0,-85 -69,-154 -154,-154"/>
   <path class="fil0 str0" d="M1166 4817c0,-13 -12,-25 -36,-27 -85,0 -154,69 -154,154 0,84 69,153 154,153 85,0 154,-69 154,-153 0,-85 -69,-154 -154,-154"/>
   <path class="fil0 str0" d="M2251 1236c0,-13 -12,-25 -36,-27 -85,0 -154,69 -154,154 0,85 69,154 154,154 85,0 154,-69 154,-154 0,-85 -69,-154 -154,-154"/>
   <path class="fil0 str0" d="M2251 2430c0,-13 -12,-25 -36,-27 -85,0 -154,69 -154,154 0,84 69,153 154,153 85,0 154,-69 154,-153 0,-85 -69,-154 -154,-154"/>
   <path class="fil0 str0" d="M2251 3623c0,-13 -12,-25 -36,-27 -85,0 -154,69 -154,154 0,85 69,154 154,154 85,0 154,-69 154,-154 0,-85 -69,-154 -154,-154"/>
   <path class="fil0 str0" d="M2251 4817c0,-13 -12,-25 -36,-27 -85,0 -154,69 -154,154 0,84 69,153 154,153 85,0 154,-69 154,-153 0,-85 -69,-154 -154,-154"/>
   <path class="fil0 str0" d="M3336 1236c0,-13 -12,-25 -36,-27 -85,0 -154,69 -154,154 0,85 69,154 154,154 85,0 154,-69 154,-154 0,-85 -69,-154 -154,-154"/>
   <path class="fil0 str0" d="M3336 2430c0,-13 -12,-25 -36,-27 -85,0 -154,69 -154,154 0,84 69,153 154,153 85,0 154,-69 154,-153 0,-85 -69,-154 -154,-154"/>
   <path class="fil0 str0" d="M3336 3623c0,-13 -12,-25 -36,-27 -85,0 -154,69 -154,154 0,85 69,154 154,154 85,0 154,-69 154,-154 0,-85 -69,-154 -154,-154"/>
   <path class="fil0 str0" d="M3336 4817c0,-13 -12,-25 -36,-27 -85,0 -154,69 -154,154 0,84 69,153 154,153 85,0 154,-69 154,-153 0,-85 -69,-154 -154,-154"/>
   <path class="fil0 str0" d="M1166 824c0,-13 -12,-26 -36,-27 -85,0 -154,68 -154,153 0,85 69,154 154,154 85,0 154,-69 154,-154 0,-85 -69,-153 -154,-153"/>
   <path class="fil0 str0" d="M1166 2017c0,-13 -12,-25 -36,-27 -85,0 -154,69 -154,154 0,85 69,154 154,154 85,0 154,-69 154,-154 0,-85 -69,-154 -154,-154"/>
   <path class="fil0 str0" d="M1166 3211c0,-13 -12,-26 -36,-27 -85,0 -154,68 -154,153 0,85 69,154 154,154 85,0 154,-69 154,-154 0,-85 -69,-153 -154,-153"/>
   <path class="fil0 str0" d="M1166 4404c0,-13 -12,-25 -36,-27 -85,0 -154,69 -154,154 0,85 69,154 154,154 85,0 154,-69 154,-154 0,-85 -69,-154 -154,-154"/>
   <path class="fil0 str0" d="M2251 824c0,-13 -12,-26 -36,-27 -85,0 -154,68 -154,153 0,85 69,154 154,154 85,0 154,-69 154,-154 0,-85 -69,-153 -154,-153"/>
   <path class="fil0 str0" d="M2251 2017c0,-13 -12,-25 -36,-27 -85,0 -154,69 -154,154 0,85 69,154 154,154 85,0 154,-69 154,-154 0,-85 -69,-154 -154,-154"/>
   <path class="fil0 str0" d="M2251 3211c0,-13 -12,-26 -36,-27 -85,0 -154,68 -154,153 0,85 69,154 154,154 85,0 154,-69 154,-154 0,-85 -69,-153 -154,-153"/>
   <path class="fil0 str0" d="M2251 4404c0,-13 -12,-25 -36,-27 -85,0 -154,69 -154,154 0,85 69,154 154,154 85,0 154,-69 154,-154 0,-85 -69,-154 -154,-154"/>
   <path class="fil0 str0" d="M3336 824c0,-13 -12,-26 -36,-27 -85,0 -154,68 -154,153 0,85 69,154 154,154 85,0 154,-69 154,-154 0,-85 -69,-153 -154,-153"/>
   <path class="fil0 str0" d="M3336 2017c0,-13 -12,-25 -36,-27 -85,0 -154,69 -154,154 0,85 69,154 154,154 85,0 154,-69 154,-154 0,-85 -69,-154 -154,-154"/>
   <path class="fil0 str0" d="M3336 3211c0,-13 -12,-26 -36,-27 -85,0 -154,68 -154,153 0,85 69,154 154,154 85,0 154,-69 154,-154 0,-85 -69,-153 -154,-153"/>
   <path class="fil0 str0" d="M3336 4404c0,-13 -12,-25 -36,-27 -85,0 -154,69 -154,154 0,85 69,154 154,154 85,0 154,-69 154,-154 0,-85 -69,-154 -154,-154"/>
   <path class="fil0 str0" d="M769 824c0,-13 -12,-26 -36,-27 -85,0 -154,68 -154,153 0,85 69,154 154,154 85,0 154,-69 154,-154 0,-85 -69,-153 -154,-153"/>
   <path class="fil0 str0" d="M769 2017c0,-13 -12,-25 -36,-27 -85,0 -154,69 -154,154 0,85 69,154 154,154 85,0 154,-69 154,-154 0,-85 -69,-154 -154,-154"/>
   <path class="fil0 str0" d="M769 3211c0,-13 -12,-26 -36,-27 -85,0 -154,68 -154,153 0,85 69,154 154,154 85,0 154,-69 154,-154 0,-85 -69,-153 -154,-153"/>
   <path class="fil0 str0" d="M769 4404c0,-13 -12,-25 -36,-27 -85,0 -154,69 -154,154 0,85 69,154 154,154 85,0 154,-69 154,-154 0,-85 -69,-154 -154,-154"/>
   <path class="fil0 str0" d="M1855 824c-1,-13 -13,-26 -37,-27 -85,0 -154,68 -154,153 0,85 69,154 154,154 85,0 154,-69 154,-154 0,-85 -69,-153 -154,-153"/>
   <path class="fil0 str0" d="M1855 2017c-1,-13 -13,-25 -37,-27 -85,0 -154,69 -154,154 0,85 69,154 154,154 85,0 154,-69 154,-154 0,-85 -69,-154 -154,-154"/>
   <path class="fil0 str0" d="M1855 3211c-1,-13 -13,-26 -37,-27 -85,0 -154,68 -154,153 0,85 69,154 154,154 85,0 154,-69 154,-154 0,-85 -69,-153 -154,-153"/>
   <path class="fil0 str0" d="M1855 4404c-1,-13 -13,-25 -37,-27 -85,0 -154,69 -154,154 0,85 69,154 154,154 85,0 154,-69 154,-154 0,-85 -69,-154 -154,-154"/>
   <path class="fil0 str0" d="M2940 824c-1,-13 -13,-26 -37,-27 -85,0 -154,68 -154,153 0,85 69,154 154,154 85,0 154,-69 154,-154 0,-85 -69,-153 -154,-153"/>
   <path class="fil0 str0" d="M2940 2017c-1,-13 -13,-25 -37,-27 -85,0 -154,69 -154,154 0,85 69,154 154,154 85,0 154,-69 154,-154 0,-85 -69,-154 -154,-154"/>
   <path class="fil0 str0" d="M2940 3211c-1,-13 -13,-26 -37,-27 -85,0 -154,68 -154,153 0,85 69,154 154,154 85,0 154,-69 154,-154 0,-85 -69,-153 -154,-153"/>
   <path class="fil0 str0" d="M2940 4404c-1,-13 -13,-25 -37,-27 -85,0 -154,69 -154,154 0,85 69,154 154,154 85,0 154,-69 154,-154 0,-85 -69,-154 -154,-154"/>
  </g>
  <path class="fil0 str0" d="M-23882 5861l0 -2145c0,-353 -289,-642 -643,-642l-1455 0c-353,0 -642,289 -642,642l0 1400c0,353 289,642 642,642l1455 0c354,0 643,-289 643,-642 0,-353 231,-570 355,-570"/>
  <path class="fil0 str0" d="M-20582 5861l0 -2145c0,-353 -289,-642 -643,-642l-1455 0c-353,0 -642,289 -642,642l0 1400c0,353 289,642 642,642l1455 0c354,0 643,-289 643,-642 0,-353 231,-570 355,-570"/>
  <path class="fil0 str0" d="M-17282 5861l0 -2145c0,-353 -289,-642 -643,-642l-1455 0c-353,0 -642,289 -642,642l0 1400c0,353 289,642 642,642l1455 0c354,0 643,-289 643,-642 0,-353 231,-570 355,-570"/>
  <path class="fil0 str0" d="M-13982 5861l0 -2145c0,-353 -289,-642 -643,-642l-1455 0c-353,0 -642,289 -642,642l0 1400c0,353 289,642 642,642l1455 0c354,0 643,-289 643,-642 0,-353 231,-570 355,-570"/>
  <path class="fil0 str0" d="M-23882 2861l0 -2145c0,-353 -289,-642 -643,-642l-1455 0c-353,0 -642,289 -642,642l0 1400c0,353 289,642 642,642l1455 0c354,0 643,-289 643,-642 0,-353 231,-570 355,-570"/>
  <path class="fil0 str0" d="M-20582 2861l0 -2145c0,-353 -289,-642 -643,-642l-1455 0c-353,0 -642,289 -642,642l0 1400c0,353 289,642 642,642l1455 0c354,0 643,-289 643,-642 0,-353 231,-570 355,-570"/>
  <path class="fil0 str0" d="M-17282 2861l0 -2145c0,-353 -289,-642 -643,-642l-1455 0c-353,0 -642,289 -642,642l0 1400c0,353 289,642 642,642l1455 0c354,0 643,-289 643,-642 0,-353 231,-570 355,-570"/>
  <path class="fil0 str0" d="M-13982 2861l0 -2145c0,-353 -289,-642 -643,-642l-1455 0c-353,0 -642,289 -642,642l0 1400c0,353 289,642 642,642l1455 0c354,0 643,-289 643,-642 0,-353 231,-570 355,-570"/>
  <path class="fil0 str0" d="M-23882 -139l0 -2145c0,-353 -289,-643 -643,-643l-1455 0c-353,0 -642,290 -642,643l0 1400c0,353 289,642 642,642l1455 0c354,0 643,-289 643,-642 0,-353 231,-570 355,-570"/>
  <path class="fil0 str0" d="M-20582 -139l0 -2145c0,-353 -289,-643 -643,-643l-1455 0c-353,0 -642,290 -642,643l0 1400c0,353 289,642 642,642l1455 0c354,0 643,-289 643,-642 0,-353 231,-570 355,-570"/>
  <path class="fil0 str0" d="M-17282 -139l0 -2145c0,-353 -289,-643 -643,-643l-1455 0c-353,0 -642,290 -642,643l0 1400c0,353 289,642 642,642l1455 0c354,0 643,-289 643,-642 0,-353 231,-570 355,-570"/>
  <path class="fil0 str0" d="M-13982 -139l0 -2145c0,-353 -289,-643 -643,-643l-1455 0c-353,0 -642,290 -642,643l0 1400c0,353 289,642 642,642l1455 0c354,0 643,-289 643,-642 0,-353 231,-570 355,-570"/>
  <path class="fil0 str0" d="M-26454 5116l0 -1400c0,-220 179,-400 399,-400l1571 0c220,0 400,180 400,400l0 1400c0,220 -180,400 -400,400l-1571 0c-220,0 -399,-180 -399,-400z"/>
  <path class="fil0 str0" d="M-23154 5116l0 -1400c0,-220 179,-400 399,-400l1571 0c220,0 400,180 400,400l0 1400c0,220 -180,400 -400,400l-1571 0c-220,0 -399,-180 -399,-400z"/>
  <path class="fil0 str0" d="M-19854 5116l0 -1400c0,-220 179,-400 399,-400l1571 0c220,0 400,180 400,400l0 1400c0,220 -180,400 -400,400l-1571 0c-220,0 -399,-180 -399,-400z"/>
  <path class="fil0 str0" d="M-16554 5116l0 -1400c0,-220 179,-400 399,-400l1571 0c220,0 400,180 400,400l0 1400c0,220 -180,400 -400,400l-1571 0c-220,0 -399,-180 -399,-400z"/>
  <path class="fil0 str0" d="M-26454 2116l0 -1400c0,-220 179,-400 399,-400l1571 0c220,0 400,180 400,400l0 1400c0,220 -180,400 -400,400l-1571 0c-220,0 -399,-180 -399,-400z"/>
  <path class="fil0 str0" d="M-23154 2116l0 -1400c0,-220 179,-400 399,-400l1571 0c220,0 400,180 400,400l0 1400c0,220 -180,400 -400,400l-1571 0c-220,0 -399,-180 -399,-400z"/>
  <path class="fil0 str0" d="M-19854 2116l0 -1400c0,-220 179,-400 399,-400l1571 0c220,0 400,180 400,400l0 1400c0,220 -180,400 -400,400l-1571 0c-220,0 -399,-180 -399,-400z"/>
  <path class="fil0 str0" d="M-16554 2116l0 -1400c0,-220 179,-400 399,-400l1571 0c220,0 400,180 400,400l0 1400c0,220 -180,400 -400,400l-1571 0c-220,0 -399,-180 -399,-400z"/>
  <path class="fil0 str0" d="M-26454 -884l0 -1400c0,-220 179,-400 399,-400l1571 0c220,0 400,180 400,400l0 1400c0,220 -180,400 -400,400l-1571 0c-220,0 -399,-180 -399,-400z"/>
  <path class="fil0 str0" d="M-23154 -884l0 -1400c0,-220 179,-400 399,-400l1571 0c220,0 400,180 400,400l0 1400c0,220 -180,400 -400,400l-1571 0c-220,0 -399,-180 -399,-400z"/>
  <path class="fil0 str0" d="M-19854 -884l0 -1400c0,-220 179,-400 399,-400l1571 0c220,0 400,180 400,400l0 1400c0,220 -180,400 -400,400l-1571 0c-220,0 -399,-180 -399,-400z"/>
  <path class="fil0 str0" d="M-16554 -884l0 -1400c0,-220 179,-400 399,-400l1571 0c220,0 400,180 400,400l0 1400c0,220 -180,400 -400,400l-1571 0c-220,0 -399,-180 -399,-400z"/>
  <path class="fil0 str0" d="M-25001 4878c-36,3 -70,35 -75,101 0,234 190,425 425,425 235,0 425,-191 425,-425 0,-235 -190,-425 -425,-425 -235,0 -425,190 -425,425"/>
  <path class="fil0 str0" d="M-21701 4878c-36,3 -70,35 -75,101 0,234 190,425 425,425 235,0 425,-191 425,-425 0,-235 -190,-425 -425,-425 -235,0 -425,190 -425,425"/>
  <path class="fil0 str0" d="M-18401 4878c-36,3 -70,35 -75,101 0,234 190,425 425,425 235,0 425,-191 425,-425 0,-235 -190,-425 -425,-425 -235,0 -425,190 -425,425"/>
  <path class="fil0 str0" d="M-15101 4878c-36,3 -70,35 -75,101 0,234 190,425 425,425 235,0 425,-191 425,-425 0,-235 -190,-425 -425,-425 -235,0 -425,190 -425,425"/>
  <path class="fil0 str0" d="M-25001 1878c-36,3 -70,35 -75,101 0,234 190,425 425,425 235,0 425,-191 425,-425 0,-235 -190,-425 -425,-425 -235,0 -425,190 -425,425"/>
  <path class="fil0 str0" d="M-21701 1878c-36,3 -70,35 -75,101 0,234 190,425 425,425 235,0 425,-191 425,-425 0,-235 -190,-425 -425,-425 -235,0 -425,190 -425,425"/>
  <path class="fil0 str0" d="M-18401 1878c-36,3 -70,35 -75,101 0,234 190,425 425,425 235,0 425,-191 425,-425 0,-235 -190,-425 -425,-425 -235,0 -425,190 -425,425"/>
  <path class="fil0 str0" d="M-15101 1878c-36,3 -70,35 -75,101 0,234 190,425 425,425 235,0 425,-191 425,-425 0,-235 -190,-425 -425,-425 -235,0 -425,190 -425,425"/>
  <path class="fil0 str0" d="M-25001 -1122c-36,3 -70,35 -75,101 0,234 190,425 425,425 235,0 425,-191 425,-425 0,-235 -190,-425 -425,-425 -235,0 -425,190 -425,425"/>
  <path class="fil0 str0" d="M-21701 -1122c-36,3 -70,35 -75,101 0,234 190,425 425,425 235,0 425,-191 425,-425 0,-235 -190,-425 -425,-425 -235,0 -425,190 -425,425"/>
  <path class="fil0 str0" d="M-18401 -1122c-36,3 -70,35 -75,101 0,234 190,425 425,425 235,0 425,-191 425,-425 0,-235 -190,-425 -425,-425 -235,0 -425,190 -425,425"/>
  <path class="fil0 str0" d="M-15101 -1122c-36,3 -70,35 -75,101 0,234 190,425 425,425 235,0 425,-191 425,-425 0,-235 -190,-425 -425,-425 -235,0 -425,190 -425,425"/>
  <path class="fil0 str0" d="M-25001 3772c-36,3 -70,35 -75,100 0,235 190,425 425,425 235,0 425,-190 425,-425 0,-234 -190,-425 -425,-425 -235,0 -425,191 -425,425"/>
  <path class="fil0 str0" d="M-21701 3772c-36,3 -70,35 -75,100 0,235 190,425 425,425 235,0 425,-190 425,-425 0,-234 -190,-425 -425,-425 -235,0 -425,191 -425,425"/>
  <path class="fil0 str0" d="M-18401 3772c-36,3 -70,35 -75,100 0,235 190,425 425,425 235,0 425,-190 425,-425 0,-234 -190,-425 -425,-425 -235,0 -425,191 -425,425"/>
  <path class="fil0 str0" d="M-15101 3772c-36,3 -70,35 -75,100 0,235 190,425 425,425 235,0 425,-190 425,-425 0,-234 -190,-425 -425,-425 -235,0 -425,191 -425,425"/>
  <path class="fil0 str0" d="M-25001 772c-36,3 -70,35 -75,100 0,235 190,425 425,425 235,0 425,-190 425,-425 0,-234 -190,-425 -425,-425 -235,0 -425,191 -425,425"/>
  <path class="fil0 str0" d="M-21701 772c-36,3 -70,35 -75,100 0,235 190,425 425,425 235,0 425,-190 425,-425 0,-234 -190,-425 -425,-425 -235,0 -425,191 -425,425"/>
  <path class="fil0 str0" d="M-18401 772c-36,3 -70,35 -75,100 0,235 190,425 425,425 235,0 425,-190 425,-425 0,-234 -190,-425 -425,-425 -235,0 -425,191 -425,425"/>
  <path class="fil0 str0" d="M-15101 772c-36,3 -70,35 -75,100 0,235 190,425 425,425 235,0 425,-190 425,-425 0,-234 -190,-425 -425,-425 -235,0 -425,191 -425,425"/>
  <path class="fil0 str0" d="M-25001 -2228c-36,3 -70,34 -75,100 0,235 190,425 425,425 235,0 425,-190 425,-425 0,-234 -190,-425 -425,-425 -235,0 -425,191 -425,425"/>
  <path class="fil0 str0" d="M-21701 -2228c-36,3 -70,34 -75,100 0,235 190,425 425,425 235,0 425,-190 425,-425 0,-234 -190,-425 -425,-425 -235,0 -425,191 -425,425"/>
  <path class="fil0 str0" d="M-18401 -2228c-36,3 -70,34 -75,100 0,235 190,425 425,425 235,0 425,-190 425,-425 0,-234 -190,-425 -425,-425 -235,0 -425,191 -425,425"/>
  <path class="fil0 str0" d="M-15101 -2228c-36,3 -70,34 -75,100 0,235 190,425 425,425 235,0 425,-190 425,-425 0,-234 -190,-425 -425,-425 -235,0 -425,191 -425,425"/>
  <path class="fil0 str0" d="M-26142 3772c-36,3 -70,35 -75,100 0,235 190,425 425,425 235,0 425,-190 425,-425 0,-234 -190,-425 -425,-425 -235,0 -425,191 -425,425"/>
  <path class="fil0 str0" d="M-22842 3772c-36,3 -70,35 -75,100 0,235 190,425 425,425 235,0 425,-190 425,-425 0,-234 -190,-425 -425,-425 -235,0 -425,191 -425,425"/>
  <path class="fil0 str0" d="M-19542 3772c-36,3 -70,35 -75,100 0,235 190,425 425,425 235,0 425,-190 425,-425 0,-234 -190,-425 -425,-425 -235,0 -425,191 -425,425"/>
  <path class="fil0 str0" d="M-16242 3772c-36,3 -70,35 -75,100 0,235 190,425 425,425 235,0 425,-190 425,-425 0,-234 -190,-425 -425,-425 -235,0 -425,191 -425,425"/>
  <path class="fil0 str0" d="M-26142 772c-36,3 -70,35 -75,100 0,235 190,425 425,425 235,0 425,-190 425,-425 0,-234 -190,-425 -425,-425 -235,0 -425,191 -425,425"/>
  <path class="fil0 str0" d="M-22842 772c-36,3 -70,35 -75,100 0,235 190,425 425,425 235,0 425,-190 425,-425 0,-234 -190,-425 -425,-425 -235,0 -425,191 -425,425"/>
  <path class="fil0 str0" d="M-19542 772c-36,3 -70,35 -75,100 0,235 190,425 425,425 235,0 425,-190 425,-425 0,-234 -190,-425 -425,-425 -235,0 -425,191 -425,425"/>
  <path class="fil0 str0" d="M-16242 772c-36,3 -70,35 -75,100 0,235 190,425 425,425 235,0 425,-190 425,-425 0,-234 -190,-425 -425,-425 -235,0 -425,191 -425,425"/>
  <path class="fil0 str0" d="M-26142 -2228c-36,3 -70,34 -75,100 0,235 190,425 425,425 235,0 425,-190 425,-425 0,-234 -190,-425 -425,-425 -235,0 -425,191 -425,425"/>
  <path class="fil0 str0" d="M-22842 -2228c-36,3 -70,34 -75,100 0,235 190,425 425,425 235,0 425,-190 425,-425 0,-234 -190,-425 -425,-425 -235,0 -425,191 -425,425"/>
  <path class="fil0 str0" d="M-19542 -2228c-36,3 -70,34 -75,100 0,235 190,425 425,425 235,0 425,-190 425,-425 0,-234 -190,-425 -425,-425 -235,0 -425,191 -425,425"/>
  <path class="fil0 str0" d="M-16242 -2228c-36,3 -70,34 -75,100 0,235 190,425 425,425 235,0 425,-190 425,-425 0,-234 -190,-425 -425,-425 -235,0 -425,191 -425,425"/>
  <path class="fil0 str0" d="M-26142 4870c-36,2 -70,34 -75,100 0,235 190,425 425,425 235,0 425,-190 425,-425 0,-235 -190,-425 -425,-425 -235,0 -425,190 -425,425"/>
  <path class="fil0 str0" d="M-22842 4870c-36,2 -70,34 -75,100 0,235 190,425 425,425 235,0 425,-190 425,-425 0,-235 -190,-425 -425,-425 -235,0 -425,190 -425,425"/>
  <path class="fil0 str0" d="M-19542 4870c-36,2 -70,34 -75,100 0,235 190,425 425,425 235,0 425,-190 425,-425 0,-235 -190,-425 -425,-425 -235,0 -425,190 -425,425"/>
  <path class="fil0 str0" d="M-16242 4870c-36,2 -70,34 -75,100 0,235 190,425 425,425 235,0 425,-190 425,-425 0,-235 -190,-425 -425,-425 -235,0 -425,190 -425,425"/>
  <path class="fil0 str0" d="M-26142 1870c-36,2 -70,34 -75,100 0,235 190,425 425,425 235,0 425,-190 425,-425 0,-235 -190,-425 -425,-425 -235,0 -425,190 -425,425"/>
  <path class="fil0 str0" d="M-22842 1870c-36,2 -70,34 -75,100 0,235 190,425 425,425 235,0 425,-190 425,-425 0,-235 -190,-425 -425,-425 -235,0 -425,190 -425,425"/>
  <path class="fil0 str0" d="M-19542 1870c-36,2 -70,34 -75,100 0,235 190,425 425,425 235,0 425,-190 425,-425 0,-235 -190,-425 -425,-425 -235,0 -425,190 -425,425"/>
  <path class="fil0 str0" d="M-16242 1870c-36,2 -70,34 -75,100 0,235 190,425 425,425 235,0 425,-190 425,-425 0,-235 -190,-425 -425,-425 -235,0 -425,190 -425,425"/>
  <path class="fil0 str0" d="M-26142 -1130c-36,2 -70,34 -75,100 0,235 190,425 425,425 235,0 425,-190 425,-425 0,-235 -190,-425 -425,-425 -235,0 -425,190 -425,425"/>
  <path class="fil0 str0" d="M-22842 -1130c-36,2 -70,34 -75,100 0,235 190,425 425,425 235,0 425,-190 425,-425 0,-235 -190,-425 -425,-425 -235,0 -425,190 -425,425"/>
  <path class="fil0 str0" d="M-19542 -1130c-36,2 -70,34 -75,100 0,235 190,425 425,425 235,0 425,-190 425,-425 0,-235 -190,-425 -425,-425 -235,0 -425,190 -425,425"/>
  <path class="fil0 str0" d="M-16242 -1130c-36,2 -70,34 -75,100 0,235 190,425 425,425 235,0 425,-190 425,-425 0,-235 -190,-425 -425,-425 -235,0 -425,190 -425,425"/>
 </g>
</svg>
