<?xml version="1.0" encoding="UTF-8"?>
<!DOCTYPE svg PUBLIC "-//W3C//DTD SVG 1.1//EN" "http://www.w3.org/Graphics/SVG/1.1/DTD/svg11.dtd">
<!-- Creator: CorelDRAW 2020 (64-Bit) -->
<svg xmlns="http://www.w3.org/2000/svg" xml:space="preserve" width="40mm" height="60mm" version="1.1" style="shape-rendering:geometricPrecision; text-rendering:geometricPrecision; image-rendering:optimizeQuality; fill-rule:evenodd; clip-rule:evenodd"
viewBox="0 0 4000 6000"
 xmlns:xlink="http://www.w3.org/1999/xlink"
 xmlns:xodm="http://www.corel.com/coreldraw/odm/2003">
 <defs>
  <style type="text/css">
   <![CDATA[
    .str0 {stroke:#332C2B;stroke-width:20;stroke-miterlimit:22.9256}
    .fil0 {fill:none}
   ]]>
  </style>
   <clipPath id="id0">
    <rect x="-34064.28" y="-7190.05" width="1318.62" height="15401.47"/>
   </clipPath>
   <clipPath id="id1">
    <rect x="-22108.86" y="-7208.53" width="1632.66" height="15336.32"/>
   </clipPath>
   <clipPath id="id2">
    <rect x="-31292.85" y="9365.84" width="7683.46" height="1015.91"/>
   </clipPath>
   <clipPath id="id3">
    <rect x="-31286.24" y="-9557.42" width="7561.84" height="1040"/>
   </clipPath>
   <clipPath id="id4">
    <rect x="-31409.6" y="-7266.62" width="7904.95" height="15466.22"/>
   </clipPath>
 </defs>
 <g id="图层_x0020_1">
  <metadata id="CorelCorpID_0Corel-Layer"/>
  <g style="clip-path:url(#id0)">
   <image x="-34064.28" y="-7190.05" width="1318.61" height="15401.47" xlink:href="A83-11i（背膜全包）_Images\A83-11i（背膜全包）_ImgID1.png"/>
  </g>
  <g style="clip-path:url(#id1)">
   <image x="-22108.86" y="-7208.53" width="1632.66" height="15336.32" xlink:href="A83-11i（背膜全包）_Images\A83-11i（背膜全包）_ImgID2.png"/>
  </g>
  <g style="clip-path:url(#id2)">
   <image transform="matrix(-0.279588 -0 -0 -0.279588 -23609.4 10381.7)" x="0" y="0" width="27481.38" height="3633.6" xlink:href="A83-11i（背膜全包）_Images\A83-11i（背膜全包）_ImgID3.png"/>
  </g>
  <g style="clip-path:url(#id3)">
   <image x="-31286.24" y="-9557.42" width="7561.84" height="1040" xlink:href="A83-11i（背膜全包）_Images\A83-11i（背膜全包）_ImgID4.png"/>
  </g>
  <g style="clip-path:url(#id4)">
   <image x="-31409.6" y="-7266.62" width="7904.95" height="15466.22" xlink:href="A83-11i（背膜全包）_Images\A83-11i（背膜全包）_ImgID5.png"/>
  </g>
  <path class="fil0 str0" d="M-24844.89 -6995.29c495,0 899.94,404.63 899.94,899.63l424.02 0c29.93,0 54.41,24.49 54.41,54.41l0 2730.49 -273.88 0c-55,0 -100,45 -100,100l0 2176.33c0,55 45,100 100,100l273.88 0 0 7893.35c0,29.91 -24.5,54.41 -54.41,54.41l-423.96 0.18c0,495 -405,900 -900,900l1.05 59.87 1350.8 120.38c27.38,2.43 50,22.51 50,50l0 199.02c0,27.49 -22.51,50 -50,50l-3546.79 0 0 -200.52c0,-62.9 -51.46,-114.36 -114.37,-114.36l-604.71 0c-62.91,0 -114.37,51.46 -114.37,114.36l0 200.52 -3637.88 0c-27.49,0 -50,-22.5 -50,-50l0 -199.01c0,-27.5 22.6,-47.56 50,-50l1351.59 -120.29 -0.01 -59.97c-495,0 -899.99,-405 -899.99,-900l-423.63 -0.18c-30.49,-0.01 -55.47,-24.97 -55.47,-55.48l0 -8254.79 274.59 0c55,0 100,-45 100,-100l0 -1170.56c0,-55 -45,-100 -100,-100l-274.59 0 0 -836.08 274.59 0c55,0 100,-45 100,-100l0 -1874.34c0,-55 -45,-100 -100,-100l-274.59 0 0 -462.26c0,-30.51 24.96,-55.5 55.47,-55.48l423.63 0.37c0,-495 404.99,-900 899.99,-900l-0.28 -60 -1351.3 -116.07c-27.36,-2.35 -50,-22.5 -50,-50l0 -202.98c0,-27.5 22.5,-50 50,-50l8018.12 0c27.5,0 50,22.51 50,50l0 201.65c0,27.45 -22.66,47.62 -50,50l-1350.57 117.86 -1.28 59.54z"/>
  <circle class="fil0 str0" cx="-29534.04" cy="8158.7" r="198.43"/>
  <circle class="fil0 str0" cx="-28475.05" cy="8227.49" r="82.68"/>
  <rect class="fil0 str0" x="-26358.37" y="8104.41" width="1361.29" height="222.92" rx="298.95" ry="310.14"/>
  <circle class="fil0 str0" cx="-29815.97" cy="-6110.36" r="539.76"/>
  <circle class="fil0 str0" cx="-28499.64" cy="-6098.47" r="238.13"/>
  <path class="fil0 str0" d="M-3857.73 6651.5l0.18 -548.99c495,0 900,-404.99 900,-899.99l59.97 -0.01 120.29 1351.59c2.44,27.4 22.5,50 50,50l199.01 0c27.5,0 50,-22.51 50,-50l0 -3637.88 -200.52 0c-62.9,0 -114.36,-51.46 -114.36,-114.37l0 -604.71c0,-62.91 51.46,-114.37 114.36,-114.37l200.52 0 0 -3546.79c0,-27.49 -22.51,-50 -50,-50l-199.02 0c-27.49,0 -47.57,22.62 -50,50l-120.38 1350.8 -59.87 1.05c0,-495 -405,-900 -900,-900l-0.18 -423.96c0,-29.91 -24.5,-54.41 -54.41,-54.41l-7893.35 0 0 273.88c0,55 -45,100 -100,100l-2176.33 0c-55,0 -100,-45 -100,-100l0 -273.88 -2730.49 0c-29.92,0 -54.41,24.48 -54.41,54.41l0 424.02c-495,0 -899.63,404.94 -899.63,899.94l-59.54 -1.28 -117.86 -1350.57c-2.38,-27.34 -22.55,-50 -50,-50l-201.65 0c-27.49,0 -50,22.5 -50,50l0 8018.12c0,27.5 22.5,50 50,50l202.98 0c27.5,0 47.65,-22.64 50,-50l116.07 -1351.3 60 -0.28c0,495 405,899.99 900,899.99l-0.37 423.63c-0.02,30.51 24.97,55.47 55.48,55.47l462.26 0 0 -274.59c0,-55 45,-100 100,-100l1874.34 0c55,0 100,45 100,100l0 274.59 836.08 0 0 -274.59c0,-55 45,-100 100,-100l1170.56 0c55,0 100,45 100,100l0 274.59 8254.79 0c30.51,0 55.47,-24.98 55.48,-55.47 0.01,-30.49 7.74,-118.31 35.19,-145.43"/>
  <path class="fil0 str0" d="M-2910.79 4576.98c0,109.59 88.84,198.43 198.43,198.43 109.59,0 198.43,-88.84 198.43,-198.43 0,-109.59 -88.84,-198.43 -198.43,-198.43 -109.59,0 -198.43,88.84 -198.43,198.43 0,109.59 137.38,158.86 157.22,160.19"/>
  <path class="fil0 str0" d="M-2726.25 3517.99c0,45.66 37.02,82.68 82.68,82.68 45.66,0 82.68,-37.02 82.68,-82.68 0,-45.66 -37.02,-82.68 -82.68,-82.68 -45.66,0 -82.68,37.02 -82.68,82.68 0,45.66 45.43,52.34 52.38,53.01"/>
  <path class="fil0 str0" d="M-2766.64 1289.85c0,61.3 50.16,111.45 111.45,111.45l0.02 0c61.29,0 111.45,-50.15 111.45,-111.45l0 -1138.39c0,-61.3 -50.16,-111.45 -111.45,-111.45l-0.02 0c-61.29,0 -111.45,50.15 -111.45,111.45l0 1138.39c0,0 12.4,-356.77 65.32,-407.71"/>
  <path class="fil0 str0" d="M-17521.18 4858.91c0,298.1 241.66,539.76 539.76,539.76 298.1,0 539.76,-241.66 539.76,-539.76 0,-298.1 -241.66,-539.76 -539.76,-539.76 -298.1,0 -539.76,241.66 -539.76,539.76 0,298.1 326.77,387.54 371.75,390.19"/>
  <path class="fil0 str0" d="M-17207.66 3542.58c0,131.52 106.61,238.13 238.13,238.13 131.52,0 238.13,-106.61 238.13,-238.13 0,-131.52 -106.61,-238.13 -238.13,-238.13 -131.52,0 -238.13,106.61 -238.13,238.13 0,131.52 120.41,146.78 130.99,149.43"/>
  <g id="_2718066964304">
   <path class="fil0 str0" d="M784.04 4947.06l162.62 0.06c0,146.62 119.96,266.59 266.59,266.59l0 17.76 -400.35 35.63c-8.12,0.72 -14.81,6.66 -14.81,14.81l0 58.95c0,8.15 6.66,14.81 14.81,14.81l1077.57 0 0 -59.4c0,-18.63 15.25,-33.87 33.88,-33.87l179.12 0c18.64,0 33.88,15.24 33.88,33.87l0 59.4 1050.59 0c8.15,0 14.82,-6.67 14.82,-14.81l0 -58.95c0,-8.15 -6.71,-14.09 -14.82,-14.81l-400.12 -35.66 -0.31 -17.73c146.63,0 266.59,-119.97 266.59,-266.59l125.58 -0.06c8.86,0 16.12,-7.25 16.12,-16.11l0 -2338.09 -81.13 0c-16.29,0 -29.62,-13.33 -29.62,-29.62l0 -644.65c0,-16.3 13.33,-29.63 29.62,-29.63l81.13 0 0 -808.79c0,-8.87 -7.25,-16.12 -16.12,-16.12l-125.6 0c0,-146.63 -119.94,-266.48 -266.57,-266.48l0.38 -17.64 400.05 -34.91c8.1,-0.7 14.82,-6.68 14.82,-14.81l0 -59.73c0,-8.14 -6.67,-14.81 -14.82,-14.81l-2375.04 0c-8.15,0 -14.81,6.66 -14.81,14.81l0 60.13c0,8.14 6.7,14.11 14.81,14.81l400.26 34.38 0.09 17.77c-146.63,0 -266.59,119.96 -266.59,266.59l-125.48 -0.11c-9.04,-0.01 -16.43,7.4 -16.43,16.43l0 136.93 81.33 0c16.3,0 29.62,13.33 29.62,29.62l0 555.2c0,16.29 -13.32,29.62 -29.62,29.62l-81.33 0 0 247.65 81.33 0c16.3,0 29.62,13.33 29.62,29.63l0 346.73c0,16.29 -13.32,29.62 -29.62,29.62l-81.33 0 0 2445.15c0,9.04 7.4,16.43 16.43,16.43 9.03,0.01 35.04,2.3 43.08,10.43"/>
   <path class="fil0 str0" d="M1398.54 5227.56c-32.46,0 -58.78,26.31 -58.78,58.77 0,32.46 26.32,58.78 58.78,58.78 32.46,0 58.78,-26.32 58.78,-58.78 0,-32.46 -26.32,-58.77 -58.78,-58.77 -32.46,0 -47.06,40.69 -47.45,46.57"/>
   <path class="fil0 str0" d="M1712.22 5282.22c-13.52,0 -24.49,10.96 -24.49,24.49 0,13.52 10.97,24.49 24.49,24.49 13.53,0 24.49,-10.97 24.49,-24.49 0,-13.53 -10.96,-24.49 -24.49,-24.49 -13.52,0 -15.5,13.46 -15.7,15.51"/>
   <path class="fil0 str0" d="M2372.22 5270.25c-18.16,0 -33.01,14.86 -33.01,33.02l0 0c0,18.16 14.85,33.02 33.01,33.02l337.2 0c18.16,0 33.02,-14.86 33.02,-33.02l0 0c0,-18.16 -14.86,-33.02 -33.02,-33.02l-337.2 0c0,0 105.68,3.68 120.77,19.35"/>
   <path class="fil0 str0" d="M1315.03 899.81c-88.3,0 -159.88,71.58 -159.88,159.88 0,88.3 71.58,159.89 159.88,159.89 88.3,0 159.88,-71.59 159.88,-159.89 0,-88.3 -71.58,-159.88 -159.88,-159.88 -88.3,0 -114.79,96.79 -115.58,110.12"/>
   <path class="fil0 str0" d="M1704.94 992.68c-38.96,0 -70.54,31.58 -70.54,70.54 0,38.95 31.58,70.53 70.54,70.53 38.96,0 70.54,-31.58 70.54,-70.53 0,-38.96 -31.58,-70.54 -70.54,-70.54 -38.96,0 -43.48,35.67 -44.26,38.8"/>
  </g>
 </g>
</svg>
