<?xml version="1.0" encoding="UTF-8"?>
<!DOCTYPE svg PUBLIC "-//W3C//DTD SVG 1.1//EN" "http://www.w3.org/Graphics/SVG/1.1/DTD/svg11.dtd">
<!-- Creator: CorelDRAW X8 -->
<svg xmlns="http://www.w3.org/2000/svg" xml:space="preserve" width="40mm" height="60mm" version="1.1" style="shape-rendering:geometricPrecision; text-rendering:geometricPrecision; image-rendering:optimizeQuality; fill-rule:evenodd; clip-rule:evenodd"
viewBox="0 0 4000 6000"
 xmlns:xlink="http://www.w3.org/1999/xlink">
 <defs>
  <style type="text/css">
   <![CDATA[
    .str0 {stroke:black;stroke-width:20}
    .fil0 {fill:none}
   ]]>
  </style>
 </defs>
 <g id="图层_x0020_1">
  <metadata id="CorelCorpID_0Corel-Layer"/>
  <path class="fil0 str0" d="M1066 650l1868 0c125,0 227,102 227,227l0 4246c0,125 -102,227 -227,227l-1868 0c-125,0 -227,-102 -227,-227l0 -4246c0,-125 102,-227 227,-227zm777 132l314 0c17,0 31,14 31,31l0 0c0,17 -14,30 -31,30l-314 0c-17,0 -31,-13 -31,-30l0 0c0,-17 14,-31 31,-31zm731 -29c32,0 59,27 59,60 0,32 -27,59 -59,59 -33,0 -60,-27 -60,-59 0,-33 27,-60 60,-60zm-1276 16c24,0 44,19 44,44 0,24 -20,43 -44,43 -24,0 -44,-19 -44,-43 0,-25 20,-44 44,-44z"/>
 </g>
</svg>
