<?xml version="1.0" encoding="UTF-8"?>
<!DOCTYPE svg PUBLIC "-//W3C//DTD SVG 1.1//EN" "http://www.w3.org/Graphics/SVG/1.1/DTD/svg11.dtd">
<!-- Creator: CorelDRAW 2020 (64-Bit) -->
<svg xmlns="http://www.w3.org/2000/svg" xml:space="preserve" width="40mm" height="60mm" version="1.1" style="shape-rendering:geometricPrecision; text-rendering:geometricPrecision; image-rendering:optimizeQuality; fill-rule:evenodd; clip-rule:evenodd"
viewBox="0 0 4000 6000"
 xmlns:xlink="http://www.w3.org/1999/xlink"
 xmlns:xodm="http://www.corel.com/coreldraw/odm/2003">
 <defs>
  <style type="text/css">
   <![CDATA[
    .str0 {stroke:#ED3237;stroke-width:20;stroke-miterlimit:22.9256}
    .str2 {stroke:#373435;stroke-width:17.64;stroke-miterlimit:2.61313}
    .str1 {stroke:#ED3237;stroke-width:17.64;stroke-miterlimit:2.61313}
    .fil0 {fill:none}
   ]]>
  </style>
   <clipPath id="id0">
    <rect x="-36875.38" y="-5024.3" width="7765.64" height="16195.25"/>
   </clipPath>
 </defs>
 <g id="Layer_x0020_1">
  <metadata id="CorelCorpID_0Corel-Layer"/>
  <g style="clip-path:url(#id0)">
   <image x="-36875.38" y="-5024.3" width="7765.64" height="16195.26" xlink:href="Galaxy S9+ —11i（前膜半包）_Images\Galaxy S9+ —11i（前膜半包）_ImgID1.png"/>
  </g>
  <rect class="fil0 str0" x="-36667.81" y="-4895.54" width="7380" height="15810"/>
  <path class="fil0 str1" d="M-37514.2 -3822.89l746.79 0c111.74,0 203.15,-91.41 203.15,-203.15l0 40.66c0,-392.38 321.03,-713.41 713.41,-713.41 2276.37,0 4072.12,0 5718.91,0 392.38,0 713.41,321.03 713.41,713.41l0 -40.66c0,111.74 91.41,203.15 203.15,203.15l746.79 0c45.76,0 83.19,37.43 83.19,83.19l0 13499.37c0,45.76 -37.43,83.19 -83.19,83.19l-746.79 0c-111.74,0 -203.15,91.41 -203.15,203.15l0 -40.66c0,392.38 -321.03,713.41 -713.41,713.41l-5718.91 0c-392.38,0 -713.41,-321.03 -713.41,-713.41l0 40.66c0,-111.74 -91.41,-203.15 -203.15,-203.15l-746.79 0c-45.76,0 -83.19,-37.43 -83.19,-83.19l0 -13499.37c0,-45.76 37.43,-83.19 83.19,-83.19zm8425.28 3035.56l0.02 0c69.73,0 126.77,57.04 126.77,126.77l0 1113.48c0,69.73 -57.04,126.77 -126.77,126.77l-0.02 0c-69.73,0 -126.77,-57.04 -126.77,-126.77l0 -1113.48c0,-69.73 57.04,-126.77 126.77,-126.77zm-7831.68 1170.79l0.02 0c69.73,0 126.77,57.04 126.77,126.77l0 1113.48c0,69.73 -57.04,126.77 -126.77,126.77l-0.02 0c-69.73,0 -126.77,-57.04 -126.77,-126.77l0 -1113.48c0,-69.73 57.04,-126.77 126.77,-126.77zm0 -2850.9l0.02 0c69.73,0 126.77,57.04 126.77,126.77l0 2001.99c0,69.73 -57.04,126.77 -126.77,126.77l-0.02 0c-69.73,0 -126.77,-57.04 -126.77,-126.77l0 -2001.99c0,-69.73 57.04,-126.77 126.77,-126.77z"/>
  <path class="fil0 str0" d="M-33426.15 -4553.3l920.65 0c56.09,0 101.97,45.88 101.97,101.97l0 0.01c0,56.09 -45.88,101.97 -101.97,101.97l-920.65 0c-56.09,0 -101.97,-45.88 -101.97,-101.97l0 -0.01c0,-56.09 45.88,-101.97 101.97,-101.97z"/>
  <path class="fil0 str0" d="M-35053.27 -4578.59l864.39 0c94.9,0 172.53,77.63 172.53,172.53l0 0c0,94.91 -77.63,172.54 -172.53,172.54l-864.39 0c-94.9,0 -172.53,-77.63 -172.53,-172.54l0 0c0,-94.9 77.63,-172.53 172.53,-172.53z"/>
  <path class="fil0 str0" d="M-31618.51 -4570.88c94.07,0 170.33,76.26 170.33,170.33 0,94.07 -76.26,170.33 -170.33,170.33 -94.07,0 -170.33,-76.26 -170.33,-170.33 0,-94.07 76.26,-170.33 170.33,-170.33z"/>
  <path class="fil0 str2" d="M-19151.47 7532.78l0 -746.79c0,-111.74 -91.41,-203.15 -203.15,-203.15l40.66 0c-392.38,0 -713.41,-321.03 -713.41,-713.41 0,-2276.37 0,-4072.12 0,-5718.91 0,-392.38 321.03,-713.41 713.41,-713.41l-40.66 0c111.74,0 203.15,-91.41 203.15,-203.15l0 -746.79c0,-45.76 37.43,-83.19 83.19,-83.19l13499.37 0c45.76,0 83.19,37.43 83.19,83.19l0 746.79c0,111.74 91.41,203.15 203.15,203.15l-40.66 0c392.38,0 713.41,321.03 713.41,713.41l0 5718.91c0,392.38 -321.03,713.41 -713.41,713.41l40.66 0c-111.74,0 -203.15,91.41 -203.15,203.15l0 746.79c0,45.76 -37.43,83.19 -83.19,83.19l-13499.37 0c-45.76,0 -83.19,-37.43 -83.19,-83.19zm3035.56 -8425.28l0 -0.02c0,-69.73 57.04,-126.77 126.77,-126.77l1113.48 0c69.73,0 126.77,57.04 126.77,126.77l0 0.02c0,69.73 -57.04,126.77 -126.77,126.77l-1113.48 0c-69.73,0 -126.77,-57.04 -126.77,-126.77zm1170.79 7831.68l0 -0.02c0,-69.73 57.04,-126.77 126.77,-126.77l1113.48 0c69.73,0 126.77,57.04 126.77,126.77l0 0.02c0,69.73 -57.04,126.77 -126.77,126.77l-1113.48 0c-69.73,0 -126.77,-57.04 -126.77,-126.77zm-2850.9 0l0 -0.02c0,-69.73 57.04,-126.77 126.77,-126.77l2001.99 0c69.73,0 126.77,57.04 126.77,126.77l0 0.02c0,69.73 -57.04,126.77 -126.77,126.77l-2001.99 0c-69.73,0 -126.77,-57.04 -126.77,-126.77zm-2085.86 -3494.45l0 -920.65c0,-56.09 45.88,-101.97 101.97,-101.97l0.01 0c56.09,0 101.97,45.88 101.97,101.97l0 920.65c0,56.09 -45.88,101.97 -101.97,101.97l-0.01 0c-56.09,0 -101.97,-45.88 -101.97,-101.97zm-25.29 1627.12l0 -864.39c0,-94.9 77.63,-172.53 172.53,-172.53l0 0c94.91,0 172.54,77.63 172.54,172.53l0 864.39c0,94.9 -77.63,172.53 -172.54,172.53l0 0c-94.9,0 -172.53,-77.63 -172.53,-172.53zm7.71 -3434.76c0,-94.07 76.26,-170.33 170.33,-170.33 94.07,0 170.33,76.26 170.33,170.33 0,94.07 -76.26,170.33 -170.33,170.33 -94.07,0 -170.33,-76.26 -170.33,-170.33z"/>
  <path class="fil0 str2" d="M621.24 917.02l227.65 0c34.07,0 61.93,-27.87 61.93,-61.93l0 12.39c0,-119.61 97.87,-217.48 217.48,-217.48 693.95,0 1241.38,0 1743.4,0 119.61,0 217.48,97.87 217.48,217.48l0 -12.39c0,34.06 27.87,61.93 61.93,61.93l227.66 0c13.95,0 25.36,11.41 25.36,25.36l0 4115.25c0,13.95 -11.41,25.36 -25.36,25.36l-227.66 0c-34.06,0 -61.93,27.86 -61.93,61.93l0 -12.4c0,119.62 -97.87,217.48 -217.48,217.48l-1743.4 0c-119.61,0 -217.48,-97.86 -217.48,-217.48l0 12.4c0,-34.07 -27.86,-61.93 -61.93,-61.93l-227.65 0c-13.95,0 -25.36,-11.41 -25.36,-25.36l0 -4115.25c0,-13.95 11.41,-25.36 25.36,-25.36zm2568.42 925.38l0.01 0c21.25,0 38.64,17.39 38.64,38.65l0 339.44c0,21.25 -17.39,38.64 -38.64,38.64l-0.01 0c-21.26,0 -38.65,-17.39 -38.65,-38.64l0 -339.44c0,-21.26 17.39,-38.65 38.65,-38.65zm-2387.47 356.91l0.01 0c21.26,0 38.65,17.39 38.65,38.65l0 339.44c0,21.26 -17.39,38.64 -38.65,38.64l-0.01 0c-21.25,0 -38.64,-17.38 -38.64,-38.64l0 -339.44c0,-21.26 17.39,-38.65 38.64,-38.65zm0 -869.09l0.01 0c21.26,0 38.65,17.39 38.65,38.65l0 610.3c0,21.26 -17.39,38.65 -38.65,38.65l-0.01 0c-21.25,0 -38.64,-17.39 -38.64,-38.65l0 -610.3c0,-21.26 17.39,-38.65 38.64,-38.65zm1065.28 -635.87l280.66 0c17.09,0 31.08,13.99 31.08,31.09l0 0c0,17.1 -13.99,31.09 -31.08,31.09l-280.66 0c-17.1,0 -31.09,-13.99 -31.09,-31.09l0 0c0,-17.1 13.99,-31.09 31.09,-31.09zm-496.03 -7.71l263.51 0c28.93,0 52.6,23.67 52.6,52.6l0 0c0,28.93 -23.67,52.6 -52.6,52.6l-263.51 0c-28.93,0 -52.59,-23.67 -52.59,-52.6l0 0c0,-28.93 23.66,-52.6 52.59,-52.6zm1047.08 2.35c28.68,0 51.93,23.25 51.93,51.93 0,28.68 -23.25,51.92 -51.93,51.92 -28.68,0 -51.92,-23.24 -51.92,-51.92 0,-28.68 23.24,-51.93 51.92,-51.93z"/>
 </g>
</svg>
