<?xml version="1.0" encoding="UTF-8"?>
<!DOCTYPE svg PUBLIC "-//W3C//DTD SVG 1.1//EN" "http://www.w3.org/Graphics/SVG/1.1/DTD/svg11.dtd">
<!-- Creator: CorelDRAW 2020 (64-Bit) -->
<svg xmlns="http://www.w3.org/2000/svg" xml:space="preserve" width="40mm" height="60mm" version="1.1" style="shape-rendering:geometricPrecision; text-rendering:geometricPrecision; image-rendering:optimizeQuality; fill-rule:evenodd; clip-rule:evenodd"
viewBox="0 0 4000 6000"
 xmlns:xlink="http://www.w3.org/1999/xlink"
 xmlns:xodm="http://www.corel.com/coreldraw/odm/2003">
 <defs>
  <style type="text/css">
   <![CDATA[
    .str0 {stroke:#332C2B;stroke-width:20;stroke-miterlimit:22.9256}
    .fil0 {fill:none}
   ]]>
  </style>
 </defs>
 <g id="图层_x0020_1">
  <metadata id="CorelCorpID_0Corel-Layer"/>
  <path class="fil0 str0" d="M-12668.2 6055.29l0 -542.05c494.88,-0.15 899.73,-405.09 899.73,-900l0 -5261.25c0,-494.91 -404.85,-899.84 -899.73,-899.99l0 -487.17c0,-27.49 -22.38,-49.98 -49.81,-49.98l-6940.47 0 0 292.52c0,55 -45,100 -100,100l-929.78 0c-55,0 -100,-45 -100,-100l0 -292.52 -575.61 0 0 292.52c0,55 -45,100 -100,100l-1895.51 0c-55,0 -100,-45 -100,-100l0 -292.52 -2815.51 0c-27.43,0 -49.81,22.49 -49.81,49.98l0 487.17 -0.16 0c-494.99,0 -900,404.99 -900,899.99l0 811.41c0,54.15 60.98,78.22 60.98,116.32l0 883.49c0,93.41 63.11,82.16 96.82,82.16l160.21 0c176,0 320,144 320,320l0 831.09c0,176 -144,320 -320,320l-160.21 0c-33.7,0 -96.82,-4.64 -96.82,83.48l0 874.41c0,38.1 -60.98,86.32 -60.98,132.53l0 806.36c0,495 405,900 900,900l0.16 0 0 487.15c0,27.5 22.38,50 50.17,50l13556.16 0c27.79,0 50.17,-22.5 50.17,-50 0,-27.5 4.83,-73.13 20.54,-87.68"/>
  <path class="fil0 str0" d="M755.19 5076.94l164.83 0c0.04,150.48 123.18,273.59 273.67,273.59l1599.85 0c150.5,0 273.63,-123.11 273.67,-273.59l148.14 0c8.36,0 15.2,-6.81 15.2,-15.15l0 -2110.47 -88.95 0c-16.72,0 -30.41,-13.68 -30.41,-30.4l0 -282.73c0,-16.73 13.69,-30.41 30.41,-30.41l88.95 0 0 -175.03 -88.95 0c-16.72,0 -30.41,-13.69 -30.41,-30.41l0 -576.39c0,-16.73 13.69,-30.41 30.41,-30.41l88.95 0 0 -856.14c0,-8.34 -6.84,-15.15 -15.2,-15.15l-148.14 0 0 -0.05c0,-150.52 -123.15,-273.67 -273.67,-273.67l-246.73 0c-16.47,0 -23.79,18.54 -35.37,18.54l-268.66 0c-28.4,0 -24.98,19.19 -24.98,29.44l0 48.72c0,53.52 -43.79,97.31 -97.31,97.31l-252.72 0c-53.51,0 -97.3,-43.79 -97.3,-97.31l0 -48.72c0,-10.24 1.41,-29.44 -25.39,-29.44l-265.89 0c-11.58,0 -26.25,-18.54 -40.3,-18.54l-245.2 0c-150.52,0 -273.67,123.15 -273.67,273.67l0 0.05 -148.14 0c-8.36,0 -15.2,6.81 -15.2,15.26l0 4122.17c0,8.45 6.84,15.26 15.2,15.26 8.37,0 22.24,1.47 26.67,6.24"/>
 </g>
</svg>
