<?xml version="1.0" encoding="UTF-8"?>
<!DOCTYPE svg PUBLIC "-//W3C//DTD SVG 1.1//EN" "http://www.w3.org/Graphics/SVG/1.1/DTD/svg11.dtd">
<!-- Creator: CorelDRAW X8 -->
<svg xmlns="http://www.w3.org/2000/svg" xml:space="preserve" width="40mm" height="60mm" version="1.1" style="shape-rendering:geometricPrecision; text-rendering:geometricPrecision; image-rendering:optimizeQuality; fill-rule:evenodd; clip-rule:evenodd"
viewBox="0 0 4000 6000"
 xmlns:xlink="http://www.w3.org/1999/xlink">
 <defs>
  <style type="text/css">
   <![CDATA[
    .str0 {stroke:black;stroke-width:20}
    .fil0 {fill:none}
   ]]>
  </style>
 </defs>
 <g id="图层_x0020_1">
  <metadata id="CorelCorpID_0Corel-Layer"/>
  <path class="fil0 str0" d="M1149 650l1702 0c137,0 249,112 249,249l0 4202c0,137 -112,249 -249,249l-1702 0c-137,0 -249,-112 -249,-249l0 -4202c0,-137 112,-249 249,-249zm117 149l269 0c95,0 172,78 172,172l0 718c0,94 -77,172 -172,172l-269 0c-95,0 -172,-78 -172,-172l0 -718c0,-94 77,-172 172,-172z"/>
 </g>
</svg>
