<?xml version="1.0" encoding="UTF-8"?>
<!DOCTYPE svg PUBLIC "-//W3C//DTD SVG 1.1//EN" "http://www.w3.org/Graphics/SVG/1.1/DTD/svg11.dtd">
<!-- Creator: CorelDRAW -->
<svg xmlns="http://www.w3.org/2000/svg" xml:space="preserve" width="40mm" height="60mm" style="shape-rendering:geometricPrecision; text-rendering:geometricPrecision; image-rendering:optimizeQuality; fill-rule:evenodd; clip-rule:evenodd"
viewBox="0 0 40 60"
 xmlns:xlink="http://www.w3.org/1999/xlink">
 <defs>
  <style type="text/css">
   <![CDATA[
    .str1 {stroke:#1F1A17;stroke-width:0.0762}
    .str0 {stroke:#1F1A17;stroke-width:0.0762}
    .fil1 {fill:none}
    .fil0 {fill:none;fill-rule:nonzero}
   ]]>
  </style>
 </defs>
 <g id="图层_x0020_1">
  <metadata id="CorelCorpID_0Corel-Layer"/>
  <g id="_256618128">
   <line id="_253021360" class="fil0 str0" x1="30.8947" y1="29.9236" x2="30.8935" y2= "8.9472" />
   <path id="_48775736" class="fil0 str0" d="M30.8935 8.9472c-0.0372,-1.1963 -1.168,-2.3361 -2.3676,-2.3869"/>
   <line id="_253722480" class="fil0 str0" x1="28.5259" y1="6.5603" x2="15.7258" y2= "6.504" />
   <path id="_253722528" class="fil0 str0" d="M15.7258 6.504c-2.7285,-0.0113 -3.6778,0 -4.2303,0.0518 -0.5524,0.053 -0.8399,0.1545 -1.2819,0.4555 -0.6167,0.4183 -1.0914,1.2301 -1.1094,1.8964"/>
   <line id="_228353504" class="fil0 str0" x1="9.1042" y1="8.9077" x2="9.1076" y2= "51.2214" />
   <path id="_253722552" class="fil0 str0" d="M9.1076 51.2214c0.0947,1.0384 0.9166,1.9505 2.0012,2.2222 0.2154,0.0542 0.2526,0.0564 0.7284,0.0564"/>
   <line id="_253721976" class="fil0 str0" x1="11.8372" y1="53.5" x2="28.6037" y2= "53.4865" />
   <path id="_253722384" class="fil0 str0" d="M28.6037 53.4865c0.4092,0 1.0857,-0.3067 1.4781,-0.6697 0.4476,-0.4138 0.7993,-1.141 0.814,-1.6833"/>
   <line id="_253722312" class="fil0 str0" x1="30.8958" y1="51.1335" x2="30.8947" y2= "29.6034" />
   <path id="_48775568" class="fil1 str1" d="M25.7735 7.1915c0.2754,0 0.4986,0.2232 0.4986,0.4985 0,0.2754 -0.2232,0.4986 -0.4986,0.4986 -0.2753,0 -0.4985,-0.2232 -0.4985,-0.4986 0,-0.2753 0.2232,-0.4985 0.4985,-0.4985z"/>
   <path id="_253021864" class="fil1 str1" d="M22.8149 7.4003l0.7042 0c0.1028,0 0.1868,0.1268 0.1868,0.2818l0 0c0,0.1551 -0.084,0.2819 -0.1868,0.2819l-0.7042 0c-0.1027,0 -0.1867,-0.1268 -0.1867,-0.2819l0 0c0,-0.155 0.084,-0.2818 0.1867,-0.2818z"/>
   <path id="_253722648" class="fil1 str1" d="M18.7398 7.4476l2.5199 0c0.0742,0 0.135,0.1072 0.135,0.2383l0 0c0,0.131 -0.0608,0.2382 -0.135,0.2382l-2.5199 0c-0.0743,0 -0.135,-0.1072 -0.135,-0.2382l0 0c0,-0.1311 0.0607,-0.2383 0.135,-0.2383z"/>
  </g>
 </g>
</svg>
