<?xml version="1.0" encoding="UTF-8"?>
<!DOCTYPE svg PUBLIC "-//W3C//DTD SVG 1.1//EN" "http://www.w3.org/Graphics/SVG/1.1/DTD/svg11.dtd">
<!-- Creator: CorelDRAW X8 -->
<svg xmlns="http://www.w3.org/2000/svg" xml:space="preserve" width="40mm" height="60mm" version="1.1" style="shape-rendering:geometricPrecision; text-rendering:geometricPrecision; image-rendering:optimizeQuality; fill-rule:evenodd; clip-rule:evenodd"
viewBox="0 0 4000 6000"
 xmlns:xlink="http://www.w3.org/1999/xlink">
 <defs>
  <style type="text/css">
   <![CDATA[
    .fil0 {fill:black;fill-rule:nonzero}
   ]]>
  </style>
 </defs>
 <g id="图层_x0020_1">
  <metadata id="CorelCorpID_0Corel-Layer"/>
  <g>
   <path class="fil0" d="M850 1100c-4,-4 -4,-10 -1,-14 4,-4 10,-5 14,-1l-13 15zm53 -17l5 19 0 0 -2 1 -2 1 -3 0 -2 1 -2 0 -2 1 -2 0 -2 1 -2 0 -2 0 -2 1 -2 0 -2 0 -2 0 -2 0 -2 0 -2 0 -1 0 -2 0 -2 0 -2 0 -1 -1 -2 0 -1 -1 -2 0 -2 -1 -1 -1 -2 0 -1 -1 -1 -1 -2 -1 -1 -1 13 -15 1 0 0 1 1 0 0 0 1 0 0 1 1 0 1 0 0 0 1 1 1 0 1 0 1 0 1 0 1 0 1 0 2 0 1 0 1 0 2 0 1 0 2 0 1 -1 2 0 2 0 1 -1 2 0 2 -1 2 0 2 -1 2 0 2 -1 1 0zm-1 0c5,-1 11,1 13,7 1,5 -2,11 -7,12l-6 -19zm2126 -440l3 20 0 0 -47 7 -51 8 -56 9 -59 10 -64 12 -67 12 -70 13 -73 14 -75 15 -77 15 -78 16 -80 16 -81 17 -82 17 -81 17 -82 17 -81 17 -80 17 -79 18 -78 16 -75 17 -74 16 -71 16 -68 15 -64 15 -61 14 -57 13 -53 12 -48 11 -42 10 -38 10 -31 7 -5 -19 31 -8 38 -9 43 -10 48 -12 52 -12 57 -13 61 -14 65 -14 68 -16 71 -15 73 -17 76 -16 77 -17 80 -17 80 -17 81 -18 82 -17 81 -17 82 -17 81 -16 80 -17 78 -16 77 -15 76 -14 72 -14 70 -14 67 -12 64 -11 60 -11 56 -9 51 -8 47 -7 0 0zm0 0c6,-1 11,3 11,9 1,5 -3,10 -8,11l-3 -20zm126 94l-20 0 0 0 -1 -6 0 -7 -1 -6 -1 -6 -1 -5 -1 -5 -1 -5 -1 -4 -2 -4 -2 -3 -1 -4 -2 -3 -2 -2 -3 -3 -2 -2 -3 -2 -2 -2 -3 -1 -4 -2 -3 -1 -4 -1 -4 -1 -5 -1 -4 0 -5 -1 -6 0 -6 0 -6 0 -6 1 -7 0 -7 1 -7 1 -3 -20 8 -1 7 -1 7 0 7 -1 7 0 6 0 7 0 5 1 6 0 6 1 5 1 5 2 5 2 4 2 5 2 4 3 4 3 4 3 3 4 3 4 3 4 2 5 2 4 2 5 2 6 2 5 1 6 1 6 1 7 1 6 0 7 1 8 0 0zm0 0c0,5 -4,10 -10,10 -5,0 -10,-4 -10,-10l20 0zm14 4574l-20 1 0 0 0 -39 0 -61 -1 -81 0 -99 0 -116 0 -132 -1 -146 0 -158 -1 -170 0 -179 -1 -188 0 -194 -1 -200 0 -203 -1 -205 -1 -207 0 -205 -1 -204 0 -199 -1 -195 -1 -188 0 -180 -1 -170 0 -159 -1 -147 0 -132 -1 -117 0 -100 0 -82 -1 -62 0 -40 0 -17 20 0 0 17 0 40 1 62 0 82 0 100 1 117 0 132 1 147 0 159 1 170 0 180 1 188 1 195 0 199 1 204 0 205 1 207 1 205 0 203 1 200 0 194 1 188 0 179 1 170 0 158 1 146 0 132 0 116 0 99 1 81 0 60 0 39 0 0zm0 0c0,6 -5,11 -10,11 -6,0 -10,-5 -10,-10l20 -1zm-58 48l3 -19 0 0 2 0 1 0 2 0 2 0 2 0 1 0 2 -1 1 0 2 -1 1 0 2 -1 1 0 2 -1 1 -1 1 -1 2 -1 1 -1 1 -1 1 -1 1 -1 1 -1 1 -1 0 -2 1 -1 1 -1 0 -2 1 -1 0 -2 0 -1 1 -2 0 -2 0 -1 20 -1 0 3 0 3 -1 3 0 3 -1 2 -1 3 -1 2 -1 3 -1 2 -2 2 -1 3 -2 2 -1 2 -2 2 -2 1 -2 2 -2 2 -2 1 -2 1 -3 2 -2 1 -3 1 -2 1 -3 0 -2 1 -3 0 -2 1 -3 0 -3 0 -3 0 -2 0 -3 -1 0 0zm0 0c-6,-1 -9,-6 -8,-11 0,-6 6,-9 11,-8l-3 19zm-2198 -471l5 -19 0 0 49 14 52 15 57 15 60 15 63 16 67 17 69 16 72 17 74 17 76 18 77 17 79 17 80 18 80 17 81 18 81 17 81 16 81 17 79 16 79 16 77 16 76 15 74 14 72 14 69 13 67 13 63 11 60 11 56 10 53 9 48 8 44 8 -3 19 -44 -7 -48 -8 -53 -9 -57 -10 -60 -11 -63 -12 -67 -12 -69 -13 -72 -14 -74 -15 -75 -15 -78 -15 -79 -16 -79 -16 -81 -17 -81 -17 -81 -17 -81 -17 -80 -18 -80 -17 -79 -17 -78 -18 -75 -17 -74 -17 -72 -17 -70 -17 -66 -16 -64 -16 -60 -16 -57 -15 -53 -15 -48 -14 0 0zm0 0c-6,-1 -9,-7 -7,-12 1,-5 7,-8 12,-7l-5 19zm-80 -121l20 0 0 0 0 7 0 7 1 7 0 6 1 6 0 6 1 5 1 4 2 5 1 4 1 4 2 3 1 4 2 3 2 3 2 2 2 3 2 2 3 2 2 2 2 2 3 2 3 1 3 2 3 1 3 2 3 1 4 1 4 2 3 1 4 1 4 1 -5 19 -5 -1 -4 -1 -4 -1 -4 -2 -4 -1 -4 -2 -4 -2 -3 -1 -4 -2 -4 -3 -3 -2 -3 -2 -4 -3 -3 -3 -3 -3 -3 -3 -2 -4 -3 -4 -2 -4 -2 -4 -2 -5 -2 -4 -2 -5 -1 -6 -1 -5 -1 -6 -1 -6 -1 -7 0 -7 -1 -7 0 -7 0 -8 0 0zm0 0c0,-6 5,-10 10,-10 6,0 10,5 10,10l-20 0zm13 -3593l20 1 0 0 0 15 -1 34 0 51 -1 65 0 81 0 93 -1 105 0 116 -1 125 0 134 0 141 -1 148 0 152 -1 157 0 159 0 161 -1 161 0 161 -1 158 0 156 -1 152 0 146 0 140 -1 133 0 123 -1 114 0 103 0 90 -1 77 0 63 0 48 -1 30 -20 0 1 -31 0 -47 0 -63 1 -77 0 -90 0 -103 1 -114 0 -124 1 -132 0 -140 0 -146 1 -152 0 -156 1 -158 0 -161 1 -161 0 -161 0 -159 1 -157 0 -152 1 -148 0 -141 0 -134 1 -126 0 -115 1 -105 0 -94 0 -80 1 -65 0 -51 1 -34 0 -16 0 0zm0 0c0,-6 5,-10 10,-10 6,0 10,5 10,11l-20 -1zm57 -91l6 19 0 0 -3 1 -2 1 -3 1 -2 0 -2 1 -2 1 -2 1 -2 1 -1 2 -2 1 -2 1 -1 2 -2 1 -1 2 -2 2 -1 1 -1 2 -1 3 -2 2 -1 2 -1 3 -1 3 -1 3 -1 3 0 3 -1 4 -1 4 -1 4 0 4 0 4 -1 5 0 5 -20 -1 0 -6 1 -5 0 -4 1 -5 0 -5 1 -4 1 -4 1 -4 1 -4 1 -4 2 -3 1 -4 1 -3 2 -3 2 -3 2 -3 1 -2 2 -3 3 -2 2 -3 2 -2 3 -2 2 -2 3 -1 2 -2 3 -2 3 -1 3 -1 3 -1 3 -1 3 -1 3 -1 -1 0zm1 0c5,-1 11,2 12,7 1,6 -2,11 -7,12l-5 -19zm62 -31l20 3 -1 2 -1 2 0 2 -1 2 -2 2 -1 2 -1 2 -2 1 -1 2 -2 2 -2 1 -2 1 -2 2 -2 1 -2 2 -2 1 -3 1 -2 2 -3 1 -3 1 -3 2 -3 1 -3 1 -3 1 -3 2 -4 1 -3 1 -4 1 -4 2 -4 1 -4 1 -4 1 -6 -19 4 -1 4 -1 4 -1 4 -2 3 -1 3 -1 4 -1 3 -1 3 -1 3 -2 2 -1 3 -1 2 -1 3 -1 2 -1 2 -1 2 -1 1 -2 2 -1 1 -1 2 -1 1 -1 1 -1 1 0 1 -1 0 -1 1 -1 0 0 0 -1 1 0 0 -1 0 0zm0 0c1,-6 6,-9 11,-8 6,0 9,6 9,11l-20 -3z"/>
  </g>
 </g>
</svg>
