<?xml version="1.0" encoding="UTF-8"?>
<!DOCTYPE svg PUBLIC "-//W3C//DTD SVG 1.1//EN" "http://www.w3.org/Graphics/SVG/1.1/DTD/svg11.dtd">
<!-- Creator: CorelDRAW X8 -->
<svg xmlns="http://www.w3.org/2000/svg" xml:space="preserve" width="40mm" height="60mm" version="1.1" style="shape-rendering:geometricPrecision; text-rendering:geometricPrecision; image-rendering:optimizeQuality; fill-rule:evenodd; clip-rule:evenodd"
viewBox="0 0 4000 6000"
 xmlns:xlink="http://www.w3.org/1999/xlink">
 <defs>
  <style type="text/css">
   <![CDATA[
    .str0 {stroke:black;stroke-width:7.62}
    .fil0 {fill:none}
   ]]>
  </style>
 </defs>
 <g id="图层_x0020_1">
  <metadata id="CorelCorpID_0Corel-Layer"/>
  <path class="fil0 str0" d="M1349 923c0,71 -58,129 -129,129 -71,0 -129,-58 -129,-129 0,-71 58,-129 129,-129 71,0 129,58 129,129zm0 316c0,72 -58,130 -129,130 -71,0 -129,-58 -129,-130 0,-71 58,-129 129,-129 71,0 129,58 129,129zm-77 296c0,34 -27,61 -60,61 -33,0 -60,-27 -60,-61 0,-33 27,-60 60,-60 33,0 60,27 60,60zm899 193c0,95 -77,173 -173,173 -96,0 -173,-78 -173,-173 0,-96 77,-174 173,-174 96,0 173,78 173,174zm1086 -637l0 500c0,24 -21,45 -46,45l0 0c-24,0 -45,-21 -45,-45l0 -500c0,-25 21,-45 45,-45l0 0c25,0 46,20 46,45zm-2460 365l0 589c0,16 -13,29 -29,29l0 0c-16,0 -30,-13 -30,-29l0 -589c0,-16 14,-29 30,-29l0 0c16,0 29,13 29,29zm0 880l0 251c0,16 -13,29 -29,29l0 0c-16,0 -30,-13 -30,-29l0 -251c0,-16 14,-29 30,-29l0 0c16,0 29,13 29,29zm128 3014l1972 0c113,0 206,-93 206,-206l0 -74 179 0 0 -4167 -179 0 0 -47c0,-113 -93,-206 -206,-206l-1803 0c-114,0 -206,93 -206,206l0 47 -170 0 0 4167 170 0 0 74c0,113 92,206 206,206l54 0"/>
 </g>
</svg>
