<?xml version="1.0" encoding="UTF-8"?>
<!DOCTYPE svg PUBLIC "-//W3C//DTD SVG 1.1//EN" "http://www.w3.org/Graphics/SVG/1.1/DTD/svg11.dtd">
<!-- Creator: CorelDRAW X8 -->
<svg xmlns="http://www.w3.org/2000/svg" xml:space="preserve" width="40mm" height="60mm" version="1.1" style="shape-rendering:geometricPrecision; text-rendering:geometricPrecision; image-rendering:optimizeQuality; fill-rule:evenodd; clip-rule:evenodd"
viewBox="0 0 4000 6000"
 xmlns:xlink="http://www.w3.org/1999/xlink">
 <defs>
  <style type="text/css">
   <![CDATA[
    .str0 {stroke:black;stroke-width:7.62}
    .fil0 {fill:none}
   ]]>
  </style>
 </defs>
 <g id="图层_x0020_1">
  <metadata id="CorelCorpID_0Corel-Layer"/>
  <path class="fil0 str0" d="M770 650l109 0c5,0 11,13 16,13 5,0 10,-13 16,-13l104 0c3,0 7,14 10,14 3,0 7,-14 11,-14l123 0c3,0 7,15 11,15 3,0 6,-15 9,-15l1640 0c3,0 8,18 11,18 5,0 7,-18 12,-18l124 0c3,0 4,16 8,16 4,0 9,-16 13,-16l110 0c3,0 3,16 6,16 5,0 12,-16 17,-16l115 0c5,0 8,4 8,8l0 95c0,5 -3,8 -8,8 -14,1 -29,1 -43,2 -4,1 -7,-20 -11,-20 -5,1 -13,22 -18,23 -31,3 -63,8 -94,13 -6,1 -9,-25 -14,-24 -7,1 -15,29 -21,31 -32,5 -64,12 -95,17 -6,2 -13,-27 -20,-26 -6,1 -11,32 -16,33 -41,7 -78,12 -111,12 -3,0 -4,0 -4,4l0 11c0,3 2,4 5,4l12 0c124,0 230,90 230,231l0 67 109 0c7,0 13,6 13,13l0 3694c0,7 -6,13 -13,13l-103 0 0 67c0,103 -111,228 -236,228l-13 0c-3,0 -4,1 -4,4l0 11c0,6 1,7 9,8 30,1 64,7 100,13 6,1 11,32 17,33 6,1 13,-28 19,-26 31,5 63,12 96,18 6,1 14,29 20,30 5,1 9,-25 14,-24 31,5 63,10 94,13 6,1 13,22 18,23 5,0 7,-21 11,-20 15,1 29,1 44,2 4,0 8,3 8,8l0 95c0,4 -4,8 -8,8l-116 0c-4,0 -12,-16 -16,-16 -3,0 -4,16 -7,16l-109 0c-5,0 -10,-16 -14,-16 -3,0 -5,16 -8,16l-124 0c-4,0 -7,-18 -11,-18 -4,0 -9,18 -12,18l-1640 0c-3,0 -6,-15 -9,-15 -4,0 -7,15 -11,15l-123 0c-4,0 -7,-14 -11,-14 -3,0 -6,14 -9,14l-105 0c-6,0 -10,-13 -16,-13 -5,0 -11,13 -15,13l-109 0c-5,0 -8,-4 -8,-8l0 -98c0,-4 3,-8 8,-8 17,-1 35,1 53,-1 5,0 14,25 19,24 7,-2 9,-31 15,-32 30,-4 67,-3 97,-6 3,-1 11,17 15,15 5,-3 5,-27 9,-28 36,-5 70,-11 102,-16 5,-1 18,33 24,31 7,-3 5,-36 12,-37l92 -8c3,0 3,0 3,-3l0 -8c0,-4 -1,-5 -4,-5l-7 0c-125,1 -227,-102 -227,-228l0 -75 -112 0c-7,0 -13,-6 -13,-13l0 -2040c0,-9 2,-12 12,-12l71 0c34,0 62,-28 62,-62l0 -427c0,-34 -28,-62 -62,-62l-72 0c-8,0 -11,-3 -11,-12l0 -1079c0,-7 6,-13 13,-13l112 0 0 -67c0,-125 117,-222 243,-223l4 0c3,0 5,-2 5,-5l0 -10c0,-6 -2,-7 -7,-7 -28,0 -59,-2 -94,-8 -7,-1 -7,-39 -15,-42 -5,-2 -18,32 -23,31 -32,-5 -66,-11 -102,-16 -5,-1 -5,-25 -9,-28 -4,-2 -12,16 -15,15 -30,-3 -67,-2 -97,-6 -6,-1 -9,-30 -15,-32 -5,-1 -15,24 -19,24 -18,-2 -36,0 -54,-1 -4,0 -8,-4 -8,-8l0 -98c0,-4 4,-8 8,-8zm912 464c0,-5 -5,-9 -14,-10 -33,0 -60,27 -60,60 0,34 27,61 60,61 33,0 60,-27 60,-61 0,-33 -27,-60 -60,-60m-264 -36c-1,-11 -10,-20 -29,-22 -68,0 -123,55 -123,124 0,68 55,123 123,123 68,0 123,-55 123,-123 0,-69 -55,-124 -123,-124m29 381c-1,-10 -10,-20 -29,-22 -68,0 -123,56 -123,124 0,68 55,123 123,123 68,0 123,-55 123,-123 0,-68 -55,-124 -123,-124m29 377c-1,-11 -10,-20 -29,-22 -68,0 -123,55 -123,124 0,68 55,123 123,123 68,0 123,-55 123,-123 0,-69 -55,-124 -123,-124m-90 -780l419 0c63,0 115,52 115,115l0 863c0,63 -52,115 -115,115l-419 0c-63,0 -115,-52 -115,-115l0 -863c0,-63 52,-115 115,-115zm1 35l416 0c49,0 89,40 89,88l0 847c0,48 -40,88 -89,88l-416 0c-48,0 -88,-40 -88,-88l0 -847c0,-48 40,-88 88,-88zm1817 1703c-14,4 -26,12 -26,48l0 31c0,16 13,29 29,29l0 0c17,0 30,-13 30,-29l0 -224c0,-16 -13,-29 -30,-29l0 0c-16,0 -29,13 -29,29l0 193m26 -388c-14,4 -26,12 -26,48l0 30c0,17 13,30 29,30l0 0c17,0 30,-13 30,-30l0 -223c0,-16 -13,-29 -30,-29l0 0c-16,0 -29,13 -29,29l0 193m32 -864c-15,3 -27,11 -27,48l0 30c0,17 14,30 30,30l0 0c16,0 29,-13 29,-30l0 -443c0,-16 -13,-29 -29,-29l0 0c-16,0 -30,13 -30,29l0 413m-471 3598c0,-5 -5,-10 -14,-10 -34,0 -61,27 -61,60 0,33 27,60 61,60 33,0 60,-27 60,-60 0,-33 -27,-60 -60,-60m-260 48c-2,-7 -5,-12 -16,-12l-10 0c-13,0 -24,11 -24,24l0 0c0,14 11,25 24,25l38 0c13,0 24,-11 24,-25l0 0c0,-13 -11,-24 -24,-24l-28 0m-348 4c-4,-12 -8,-21 -28,-21l-17 0c-24,0 -43,20 -43,43l0 0c0,24 19,43 43,43l153 0c23,0 42,-19 42,-43l0 0c0,-23 -19,-43 -42,-43l-136 0m-519 41c-3,-14 -11,-25 -45,-25l-30 0c-15,0 -28,12 -28,28l0 0c0,15 13,28 28,28l245 0c16,0 29,-13 29,-28l0 0c0,-16 -13,-28 -29,-28l-215 0"/>
 </g>
</svg>
