<?xml version="1.0" encoding="UTF-8"?>
<!DOCTYPE svg PUBLIC "-//W3C//DTD SVG 1.1//EN" "http://www.w3.org/Graphics/SVG/1.1/DTD/svg11.dtd">
<!-- Creator: CorelDRAW X8 -->
<svg xmlns="http://www.w3.org/2000/svg" xml:space="preserve" width="40mm" height="60mm" version="1.1" style="shape-rendering:geometricPrecision; text-rendering:geometricPrecision; image-rendering:optimizeQuality; fill-rule:evenodd; clip-rule:evenodd"
viewBox="0 0 4000 6000"
 xmlns:xlink="http://www.w3.org/1999/xlink">
 <defs>
  <style type="text/css">
   <![CDATA[
    .str0 {stroke:black;stroke-width:20;stroke-linejoin:bevel}
    .fil0 {fill:none}
   ]]>
  </style>
 </defs>
 <g id="图层_x0020_1">
  <metadata id="CorelCorpID_0Corel-Layer"/>
  <path class="fil0 str0" d="M2249 873c0,-77 63,-140 140,-140 77,0 139,63 139,140 0,49 -26,95 -70,120 -43,25 -96,25 -139,0 -43,-25 -70,-71 -70,-120zm-1296 4477l2039 0c46,0 84,-38 84,-84l0 -4534c0,-45 -40,-82 -84,-82l-656 0c-8,0 -16,3 -21,9 -9,8 -21,13 -33,13l-564 0c-12,0 -24,-5 -33,-13 -5,-6 -13,-9 -21,-9l-656 0c-45,0 -84,37 -84,82l0 4534c0,47 38,84 84,84l29 0"/>
 </g>
</svg>
