<?xml version="1.0" encoding="UTF-8"?>
<!DOCTYPE svg PUBLIC "-//W3C//DTD SVG 1.1//EN" "http://www.w3.org/Graphics/SVG/1.1/DTD/svg11.dtd">
<!-- Creator: CorelDRAW X8 -->
<svg xmlns="http://www.w3.org/2000/svg" xml:space="preserve" width="40mm" height="60mm" version="1.1" style="shape-rendering:geometricPrecision; text-rendering:geometricPrecision; image-rendering:optimizeQuality; fill-rule:evenodd; clip-rule:evenodd"
viewBox="0 0 4000 6000"
 xmlns:xlink="http://www.w3.org/1999/xlink">
 <defs>
  <style type="text/css">
   <![CDATA[
    .str1 {stroke:#332C2B;stroke-width:20;stroke-linecap:round;stroke-linejoin:round}
    .str0 {stroke:#332C2B;stroke-width:20;stroke-linecap:round;stroke-linejoin:round}
    .fil1 {fill:none}
    .fil0 {fill:none;fill-rule:nonzero}
   ]]>
  </style>
 </defs>
 <g id="图层_x0020_1">
  <metadata id="CorelCorpID_0Corel-Layer"/>
  <g id="_1487053988528">
   <polyline class="fil0 str0" points="3102,1453 3102,1462 3108,1461 3112,1456 3112,1450 3108,1445 3102,1443 3101,1260 "/>
   <path class="fil0 str0" d="M3101 1260c0,-44 1,-62 6,-72 5,-11 13,-15 32,-15 17,0 28,7 32,20 4,13 4,30 4,257"/>
   <line class="fil0 str0" x1="3175" y1="1450" x2="3175" y2= "1621" />
   <path class="fil0 str0" d="M3175 1621c0,34 0,52 -1,65 -1,24 -3,31 -12,39 -5,4 -14,7 -24,7 -26,0 -35,-12 -36,-43"/>
   <line class="fil0 str0" x1="3102" y1="1689" x2="3102" y2= "1442" />
   <path class="fil0 str0" d="M3102 1442c0,-4 0,-7 0,-11"/>
   <path class="fil0 str0" d="M3102 2475c0,-7 0,-18 0,-31 0,-66 1,-86 4,-99 3,-8 6,-12 10,-14 4,-2 9,-3 19,-3 17,0 29,9 32,25 3,18 6,89 6,159 0,76 -2,96 -8,101 -1,2 -2,2 -5,7 -4,8 -13,12 -26,12 -21,0 -31,-12 -32,-39"/>
   <line class="fil0 str0" x1="3102" y1="2593" x2="3102" y2= "2485" />
   <path class="fil0 str0" d="M3102 2485c0,-19 0,-14 0,-32"/>
   <path class="fil0 str0" d="M3102 2137c0,-6 0,-16 0,-30 0,-36 0,-80 1,-87 2,-19 13,-31 31,-31 23,0 32,11 34,42 3,41 5,100 5,151 0,46 -2,79 -4,87 -10,14 -13,18 -17,21 -4,2 -7,3 -17,3 -26,0 -33,-13 -33,-56"/>
   <line class="fil0 str0" x1="3102" y1="2237" x2="3102" y2= "2146" />
   <path class="fil0 str0" d="M3102 2146c0,-10 0,-21 0,-31"/>
   <polyline class="fil0 str0" points="833,2437 834,2427 833,2427 "/>
   <path class="fil0 str0" d="M833 2427c0,-35 0,-70 0,-106 0,-32 1,-47 6,-56 5,-10 12,-13 28,-13 15,0 26,7 30,19 3,12 4,30 4,164"/>
   <line class="fil0 str0" x1="901" y1="2435" x2="901" y2= "2440" />
   <path class="fil0 str0" d="M901 2440c0,103 0,125 -1,144 -1,10 -2,16 -4,21 -2,3 -3,5 -7,9"/>
   <line class="fil0 str0" x1="889" y1="2614" x2="889" y2= "2614" />
   <path class="fil0 str0" d="M889 2614c-5,4 -13,7 -22,7 -18,0 -25,-4 -29,-14 -4,-11 -5,-29 -5,-74 0,-46 0,-100 1,-118"/>
   <line class="fil0 str0" x1="3138" y1="4927" x2="3138" y2= "4917" />
   <path class="fil0 str0" d="M3138 4917c6,1 8,3 9,10 11,0 20,1 28,1"/>
   <line class="fil0 str0" x1="3175" y1="4928" x2="3178" y2= "4928" />
   <path class="fil0 str0" d="M3178 4928c46,0 46,0 47,-40"/>
   <polyline class="fil0 str0" points="3225,4888 3225,4885 3246,1780 "/>
   <path class="fil0 str0" d="M3246 1780c3,-440 -2,-654 -17,-687"/>
   <line class="fil0 str0" x1="3229" y1="1093" x2="3224" y2= "1085" />
   <path class="fil0 str0" d="M3224 1085c-9,-15 -9,-15 -49,-15"/>
   <line class="fil0 str0" x1="3175" y1="1070" x2="3071" y2= "1071" />
   <path class="fil0 str0" d="M3071 1071c1,-6 3,-9 10,-10 -1,-127 -83,-230 -196,-248"/>
   <line class="fil0 str0" x1="1121" y1="811" x2="1088" y2= "820" />
   <path class="fil0 str0" d="M1088 820c-102,29 -163,125 -166,260 -5,0 -8,-3 -9,-9"/>
   <line class="fil0 str0" x1="913" y1="1071" x2="831" y2= "1071" />
   <path class="fil0 str0" d="M831 1071c-52,-1 -52,-1 -52,36"/>
   <line class="fil0 str0" x1="779" y1="1107" x2="757" y2= "3642" />
   <path class="fil0 str0" d="M757 3642c-8,1002 -5,1219 16,1264"/>
   <line class="fil0 str0" x1="773" y1="4906" x2="778" y2= "4913" />
   <path class="fil0 str0" d="M778 4913c11,15 11,15 50,15"/>
   <line class="fil0 str0" x1="828" y1="4928" x2="932" y2= "4927" />
   <path class="fil0 str0" d="M932 4927c0,6 -3,8 -10,10 0,144 105,252 244,252"/>
   <polyline class="fil0 str0" points="2881,5188 2898,5183 2906,5181 "/>
   <path class="fil0 str0" d="M2906 5181c61,-22 61,-22 87,-45"/>
   <line class="fil0 str0" x1="2993" y1="5136" x2="2997" y2= "5133" />
   <path class="fil0 str0" d="M2997 5133c55,-49 82,-117 84,-216 6,1 9,3 10,10"/>
   <polyline class="fil0 str0" points="3091,4927 3153,4927 3160,4927 "/>
   <polyline class="fil0 str0" points="1810,1170 1820,1170 1820,1170 "/>
   <path class="fil0 str0" d="M1820 1170c7,0 14,0 20,0 36,0 43,-1 57,-11 17,-12 27,-33 27,-53 0,-30 -21,-57 -48,-63 -8,-2 -19,-2 -48,-2"/>
   <line class="fil0 str0" x1="1828" y1="1041" x2="1749" y2= "1041" />
   <path class="fil0 str0" d="M1749 1041c0,-3 2,-7 5,-9 -30,-46 -68,-71 -115,-74"/>
   <line class="fil0 str0" x1="1639" y1="958" x2="1298" y2= "961" />
   <path class="fil0 str0" d="M1298 961c-24,0 -30,1 -46,9 -51,23 -88,79 -88,136 0,48 24,94 65,124 26,19 44,24 89,25 76,3 150,4 209,4 120,0 142,-3 179,-27 26,-17 37,-30 58,-71 3,2 4,4 4,9"/>
   <line class="fil0 str0" x1="1768" y1="1170" x2="1783" y2= "1170" />
   <path class="fil0 str0" d="M1783 1170c28,0 28,0 42,0"/>
   <line class="fil0 str0" x1="1825" y1="1170" x2="1832" y2= "1170" />
   <line class="fil1 str1" x1="1118" y1="811" x2="2886" y2= "813" />
   <line class="fil1 str1" x1="1155" y1="5189" x2="2885" y2= "5188" />
  </g>
 </g>
</svg>
