<?xml version="1.0" encoding="UTF-8"?>
<!DOCTYPE svg PUBLIC "-//W3C//DTD SVG 1.1//EN" "http://www.w3.org/Graphics/SVG/1.1/DTD/svg11.dtd">
<!-- Creator: CorelDRAW X8 -->
<svg xmlns="http://www.w3.org/2000/svg" xml:space="preserve" width="40mm" height="60mm" version="1.1" style="shape-rendering:geometricPrecision; text-rendering:geometricPrecision; image-rendering:optimizeQuality; fill-rule:evenodd; clip-rule:evenodd"
viewBox="0 0 4000 6000"
 xmlns:xlink="http://www.w3.org/1999/xlink">
 <defs>
  <style type="text/css">
   <![CDATA[
    .str0 {stroke:black;stroke-width:7.62}
    .fil0 {fill:none}
   ]]>
  </style>
 </defs>
 <g id="图层_x0020_1">
  <metadata id="CorelCorpID_0Corel-Layer"/>
  <path class="fil0 str0" d="M1071 5323l1758 0c115,0 209,-94 209,-209l0 -4255c0,-115 -94,-209 -209,-209l-433 0 -271 0c-25,0 -32,13 -33,31l0 13c0,51 -41,92 -92,92l0 0c-51,0 -92,-41 -92,-92l0 -14c0,-22 -16,-30 -34,-30l-270 0 -433 0c-115,0 -209,94 -209,209l0 4255c0,115 94,209 209,209l41 0c20,0 37,17 50,27"/>
 </g>
</svg>
