<?xml version="1.0" encoding="UTF-8"?>
<!DOCTYPE svg PUBLIC "-//W3C//DTD SVG 1.1//EN" "http://www.w3.org/Graphics/SVG/1.1/DTD/svg11.dtd">
<!-- Creator: CorelDRAW X8 -->
<svg xmlns="http://www.w3.org/2000/svg" xml:space="preserve" width="40mm" height="60mm" version="1.1" style="shape-rendering:geometricPrecision; text-rendering:geometricPrecision; image-rendering:optimizeQuality; fill-rule:evenodd; clip-rule:evenodd"
viewBox="0 0 4000 6000"
 xmlns:xlink="http://www.w3.org/1999/xlink">
 <defs>
  <style type="text/css">
   <![CDATA[
    .str0 {stroke:black;stroke-width:7.62}
    .fil0 {fill:none;fill-rule:nonzero}
   ]]>
  </style>
 </defs>
 <g id="图层_x0020_1">
  <metadata id="CorelCorpID_0Corel-Layer"/>
  <path class="fil0 str0" d="M1152 5350c-138,0 -250,-112 -250,-249l0 -4202c0,-137 112,-249 250,-249l1696 0c138,0 250,112 250,249l0 4202c0,137 -112,249 -250,249l-1696 0zm1185 -4019c0,32 -26,58 -59,58l0 0c-32,0 -58,-26 -58,-58l0 -220c0,-32 26,-58 58,-58l0 0c33,0 59,26 59,58l0 220zm-227 732c0,61 -49,110 -110,110l0 0c-61,0 -110,-49 -110,-110l0 -132c0,-60 49,-110 110,-110l0 0c61,0 110,50 110,110l0 132zm-110 -322c-89,0 -161,-72 -161,-161l0 -571c0,-89 72,-161 161,-161 89,0 161,72 161,161l0 571c0,89 -72,161 -161,161zm0 -36c-69,0 -124,-56 -124,-125l0 -571c0,-68 55,-124 124,-124 69,0 124,56 124,124l0 571c0,69 -55,125 -124,125zm73 -696c0,41 -33,73 -73,73 -40,0 -73,-32 -73,-73 0,-40 33,-73 73,-73 40,0 73,33 73,73zm0 315c0,40 -33,73 -73,73 -40,0 -73,-33 -73,-73 0,-40 33,-73 73,-73 40,0 73,33 73,73zm-14 264c0,32 -27,58 -59,58 -32,0 -59,-26 -59,-58 0,-33 27,-59 59,-59 32,0 59,26 59,59z"/>
 </g>
</svg>
