<?xml version="1.0" encoding="UTF-8"?>
<!DOCTYPE svg PUBLIC "-//W3C//DTD SVG 1.1//EN" "http://www.w3.org/Graphics/SVG/1.1/DTD/svg11.dtd">
<!-- Creator: CorelDRAW X8 -->
<svg xmlns="http://www.w3.org/2000/svg" xml:space="preserve" width="40mm" height="60mm" version="1.1" style="shape-rendering:geometricPrecision; text-rendering:geometricPrecision; image-rendering:optimizeQuality; fill-rule:evenodd; clip-rule:evenodd"
viewBox="0 0 4000 6000"
 xmlns:xlink="http://www.w3.org/1999/xlink">
 <defs>
  <style type="text/css">
   <![CDATA[
    .fil0 {fill:black;fill-rule:nonzero}
   ]]>
  </style>
 </defs>
 <g id="图层_x0020_1">
  <metadata id="CorelCorpID_0Corel-Layer"/>
  <g>
   <path class="fil0" d="M1183 1234l7 0 0 1 -2 12 -1 12 -2 12 -1 12 -2 11 -1 10 -2 11 -1 9 -2 10 -1 9 -2 9 -1 8 -2 8 -2 8 -1 7 -2 7 -2 7 -2 6 -1 6 -2 5 -2 5 -2 5 -2 5 -2 4 -1 3 -2 3 -2 3 -2 3 -3 2 -2 2 -2 2 -3 1 -2 -7 1 -1 2 -1 2 -1 1 -2 2 -2 2 -2 1 -3 2 -4 2 -3 2 -4 1 -5 2 -5 2 -5 2 -6 1 -6 2 -6 2 -7 1 -7 2 -8 2 -8 1 -8 2 -9 1 -9 2 -10 1 -10 2 -10 1 -10 2 -11 1 -12 2 -12 1 -12 2 -12 0 0zm7 0l0 0 0 1 0 -1zm314 -445l1 7 0 0 -15 3 -14 4 -14 4 -15 5 -14 6 -14 6 -14 8 -13 8 -14 9 -13 10 -13 10 -12 11 -13 12 -12 12 -11 13 -12 14 -10 14 -11 15 -9 16 -10 17 -9 17 -8 17 -7 18 -7 19 -7 19 -6 20 -5 21 -4 21 -3 21 -3 23 -2 22 -1 23 -7 0 1 -23 2 -23 3 -23 3 -21 5 -22 5 -20 5 -21 7 -19 7 -19 8 -19 8 -18 9 -17 10 -16 10 -16 10 -16 11 -14 11 -14 12 -14 12 -12 13 -12 13 -12 13 -10 13 -10 14 -9 14 -8 14 -8 14 -7 15 -6 14 -5 15 -4 15 -4 15 -3 0 0zm992 -138l1 7 0 0 -26 4 -27 3 -28 4 -28 4 -29 4 -29 4 -30 4 -31 4 -30 4 -31 4 -32 4 -31 4 -32 4 -32 5 -33 4 -32 4 -33 5 -32 4 -33 5 -33 4 -32 5 -33 4 -32 5 -33 5 -32 4 -32 5 -32 5 -31 4 -32 5 -31 5 -30 5 -30 4 -1 -7 30 -4 30 -5 31 -5 31 -5 32 -4 32 -5 32 -5 32 -4 33 -5 32 -5 33 -4 32 -5 33 -4 33 -5 33 -4 32 -5 33 -4 32 -4 32 -5 32 -4 32 -4 31 -4 31 -4 31 -4 30 -4 30 -4 29 -4 29 -4 28 -4 28 -4 27 -3 26 -4 0 0zm278 96l-6 4 0 0 -6 -8 -5 -8 -6 -7 -7 -7 -6 -6 -7 -6 -7 -6 -7 -5 -8 -5 -7 -5 -8 -4 -8 -4 -8 -4 -9 -4 -8 -3 -9 -3 -9 -2 -9 -2 -9 -2 -10 -2 -9 -1 -10 -2 -9 0 -10 -1 -10 0 -10 0 -9 0 -10 0 -10 1 -10 0 -11 2 -10 1 -1 -7 11 -1 10 -1 10 -1 10 -1 10 0 10 -1 10 1 10 0 10 1 10 0 10 2 9 1 10 2 9 2 10 2 9 3 9 3 9 3 8 3 9 4 8 5 8 4 8 5 8 5 7 6 8 6 7 6 6 7 7 7 6 7 6 8 6 8 0 0zm91 393l-7 0 0 0 0 -15 -1 -15 0 -14 0 -14 0 -14 -1 -13 0 -13 -1 -13 -1 -13 -1 -13 -1 -12 -2 -13 -1 -12 -2 -12 -2 -12 -2 -11 -3 -12 -3 -11 -3 -12 -3 -11 -3 -11 -4 -12 -4 -11 -5 -11 -4 -11 -5 -11 -6 -11 -5 -11 -7 -11 -6 -12 -7 -11 -7 -11 6 -4 7 11 7 12 7 11 6 11 6 12 5 11 5 11 5 12 4 11 5 11 3 12 4 11 3 11 3 12 3 12 2 11 3 12 2 12 1 12 2 13 2 12 1 12 1 13 1 13 1 13 0 14 1 13 0 14 0 14 1 14 0 15 0 15 0 0zm6 3897l-7 0 0 0 0 -120 0 -123 0 -124 0 -125 0 -127 0 -128 0 -129 0 -130 0 -130 -1 -130 0 -131 0 -131 0 -131 -1 -131 0 -130 0 -129 -1 -129 0 -128 0 -126 -1 -126 0 -124 0 -122 -1 -120 0 -119 0 -116 0 -114 -1 -111 0 -109 0 -106 0 -102 0 -100 0 -96 7 0 0 96 0 100 0 102 0 106 0 109 1 111 0 114 0 116 0 119 1 120 0 122 0 124 1 126 0 126 0 128 1 129 0 129 0 130 1 131 0 131 0 131 0 131 1 130 0 130 0 130 0 129 0 128 0 127 0 125 0 124 0 123 0 120 0 0zm-316 314l1 -7 0 0 22 2 20 0 20 0 19 0 18 -2 17 -2 16 -3 15 -4 15 -4 13 -5 13 -6 12 -6 12 -8 10 -7 10 -9 10 -9 8 -10 8 -11 7 -11 7 -12 6 -13 6 -14 4 -14 5 -15 4 -15 3 -17 2 -16 3 -18 1 -18 1 -20 1 -19 0 -21 7 0 0 21 -1 20 -1 19 -1 19 -3 17 -2 18 -4 16 -3 16 -5 15 -5 15 -5 14 -7 13 -7 12 -7 12 -8 11 -9 10 -10 10 -10 9 -11 8 -12 8 -13 6 -13 6 -14 6 -15 4 -16 4 -16 3 -18 2 -18 2 -19 0 -20 0 -21 0 -22 -2 0 0zm-896 -73l0 -7 0 0 25 2 25 2 25 2 25 3 26 2 26 2 26 2 27 2 27 3 27 2 27 2 27 2 28 2 28 3 28 2 29 2 28 3 29 2 29 2 29 3 29 2 29 2 29 3 30 2 29 2 30 3 30 2 30 3 30 2 30 2 30 3 30 2 -1 7 -30 -2 -30 -3 -30 -2 -30 -2 -30 -3 -29 -2 -30 -3 -30 -2 -29 -2 -30 -3 -29 -2 -29 -2 -29 -3 -29 -2 -29 -2 -28 -3 -28 -2 -28 -2 -28 -3 -28 -2 -28 -2 -27 -2 -27 -2 -27 -3 -26 -2 -27 -2 -26 -2 -25 -2 -26 -3 -25 -2 -25 -2 -24 -2 0 0zm-323 -194l6 -3 0 0 8 14 8 14 8 13 8 12 8 11 8 11 9 10 8 9 9 9 9 8 9 8 9 7 9 6 10 7 9 5 10 5 10 5 10 5 11 4 10 3 11 3 10 3 11 3 11 3 11 2 12 2 11 2 12 1 12 2 12 1 12 1 12 1 0 7 -13 -1 -12 -1 -12 -1 -12 -2 -12 -2 -11 -1 -12 -2 -11 -3 -11 -2 -11 -3 -11 -3 -11 -3 -11 -4 -10 -4 -11 -4 -10 -5 -10 -6 -10 -5 -10 -7 -9 -6 -10 -8 -9 -8 -9 -8 -9 -9 -9 -10 -8 -10 -9 -11 -8 -11 -8 -13 -8 -13 -8 -13 -8 -15 0 0zm-86 -211l7 -2 0 0 2 5 2 6 2 6 2 6 2 6 3 6 2 7 3 7 2 7 3 7 3 7 3 7 2 7 3 8 3 7 3 7 3 8 3 7 3 7 3 7 3 8 3 7 3 6 3 7 3 7 2 6 3 6 3 6 3 6 2 6 3 5 2 5 -6 3 -2 -5 -3 -5 -3 -6 -2 -6 -3 -6 -3 -6 -3 -6 -3 -7 -3 -7 -3 -7 -3 -7 -3 -7 -3 -7 -3 -7 -3 -8 -2 -7 -3 -7 -3 -8 -3 -7 -3 -7 -3 -8 -2 -7 -3 -7 -3 -7 -2 -6 -3 -7 -2 -7 -2 -6 -3 -6 -2 -6 -2 -5 -2 -6 0 0zm-47 -366l7 -1 0 0 0 9 0 9 0 10 1 9 0 10 0 10 0 10 0 10 1 11 0 11 1 11 0 11 1 11 1 11 0 12 1 12 2 12 1 12 1 12 2 12 2 12 1 12 3 13 2 12 2 13 3 12 3 13 3 12 4 13 4 13 4 12 4 13 -7 2 -4 -12 -4 -13 -4 -13 -3 -13 -4 -12 -3 -13 -2 -13 -3 -13 -2 -12 -2 -13 -2 -12 -2 -12 -2 -13 -1 -12 -1 -12 -2 -12 -1 -11 0 -12 -1 -12 -1 -11 0 -11 -1 -11 0 -11 -1 -10 0 -11 0 -10 0 -10 0 -10 -1 -9 0 -10 0 -9 0 -8 0 0zm-32 -1496l7 0 0 0 0 36 0 38 1 40 0 41 1 44 1 45 1 46 1 47 1 48 1 50 1 50 1 51 1 51 1 52 1 52 2 52 1 53 1 52 1 52 2 51 1 52 1 50 1 50 2 49 1 48 1 46 1 46 1 44 1 42 1 41 1 39 1 37 -7 1 -1 -38 -1 -39 -1 -40 -1 -43 -1 -44 -1 -45 -1 -47 -1 -48 -2 -49 -1 -50 -1 -50 -1 -51 -2 -52 -1 -52 -1 -52 -1 -53 -2 -52 -1 -52 -1 -52 -1 -51 -1 -51 -1 -50 -1 -50 -1 -48 -1 -47 -1 -46 -1 -45 -1 -43 0 -42 -1 -40 0 -38 0 -36 0 0zm12 -1777l7 0 0 0 -2 47 -1 49 -1 50 -1 52 -2 54 0 55 -1 56 -1 58 -1 58 -1 60 0 60 -1 60 0 61 -1 61 0 62 0 61 -1 62 0 61 0 61 0 60 0 59 0 59 0 58 0 56 0 56 0 54 0 52 1 51 0 49 0 47 0 45 1 43 -7 0 -1 -43 0 -45 0 -47 -1 -49 0 -51 0 -52 0 -54 0 -56 0 -56 0 -58 0 -59 0 -59 0 -60 0 -61 0 -61 1 -62 0 -61 0 -62 1 -61 0 -61 1 -61 0 -60 1 -59 1 -58 1 -58 0 -56 1 -55 2 -54 1 -52 1 -51 1 -48 2 -47 0 0zm7 0l0 0 0 0 0 0zm-24 -303l6 -4 1 2 2 3 1 4 2 4 1 4 1 5 1 5 1 6 1 6 1 7 1 7 1 8 0 8 1 8 1 9 0 9 1 10 0 10 1 11 0 11 0 12 1 12 0 13 0 13 0 13 0 14 0 14 0 15 -1 16 0 15 0 17 0 16 -7 0 0 -17 0 -16 0 -16 1 -15 0 -15 0 -14 0 -14 0 -13 0 -13 0 -13 -1 -12 0 -12 0 -11 -1 -10 0 -11 -1 -9 0 -10 -1 -8 -1 -9 0 -8 -1 -7 -1 -7 -1 -7 -1 -6 -1 -5 -1 -5 -1 -5 -1 -4 -1 -4 -2 -3 -1 -2 -1 -2z"/>
  </g>
 </g>
</svg>
