<?xml version="1.0" encoding="UTF-8"?>
<!DOCTYPE svg PUBLIC "-//W3C//DTD SVG 1.1//EN" "http://www.w3.org/Graphics/SVG/1.1/DTD/svg11.dtd">
<!-- Creator: CorelDRAW X8 -->
<svg xmlns="http://www.w3.org/2000/svg" xml:space="preserve" width="40mm" height="60mm" version="1.1" style="shape-rendering:geometricPrecision; text-rendering:geometricPrecision; image-rendering:optimizeQuality; fill-rule:evenodd; clip-rule:evenodd"
viewBox="0 0 4000 6000"
 xmlns:xlink="http://www.w3.org/1999/xlink">
 <defs>
  <style type="text/css">
   <![CDATA[
    .str0 {stroke:black;stroke-width:7.62}
    .fil0 {fill:none}
   ]]>
  </style>
 </defs>
 <g id="图层_x0020_1">
  <metadata id="CorelCorpID_0Corel-Layer"/>
  <path class="fil0 str0" d="M578 5350c-15,-18 -50,-27 -74,-27 -82,0 -149,-67 -149,-149l0 -4375c0,-82 67,-149 149,-149l2992 0c82,0 149,67 149,149l0 4375c0,82 -67,149 -149,149l-3096 0m51 -2353c-3,0 -6,3 -7,9 0,22 18,40 40,40 22,0 40,-18 40,-40 0,-22 -18,-40 -40,-40 -22,0 -40,18 -40,40m3027 22c-21,6 -36,13 -36,49l0 29c0,41 34,75 75,75l0 0c41,0 74,-34 74,-75l0 -197c0,-41 -33,-74 -74,-74l0 0c-41,0 -75,33 -75,74l0 168"/>
 </g>
</svg>
