<?xml version="1.0" encoding="UTF-8"?>
<!DOCTYPE svg PUBLIC "-//W3C//DTD SVG 1.1//EN" "http://www.w3.org/Graphics/SVG/1.1/DTD/svg11.dtd">
<!-- Creator: CorelDRAW X8 -->
<svg xmlns="http://www.w3.org/2000/svg" xml:space="preserve" width="40mm" height="60mm" version="1.1" style="shape-rendering:geometricPrecision; text-rendering:geometricPrecision; image-rendering:optimizeQuality; fill-rule:evenodd; clip-rule:evenodd"
viewBox="0 0 4000 6000"
 xmlns:xlink="http://www.w3.org/1999/xlink">
 <defs>
  <style type="text/css">
   <![CDATA[
    .str0 {stroke:black;stroke-width:10}
    .fil0 {fill:none}
   ]]>
  </style>
 </defs>
 <g id="图层_x0020_1">
  <metadata id="CorelCorpID_0Corel-Layer"/>
  <path class="fil0 str0" d="M803 5350l2062 0c119,0 216,-97 216,-216l0 -24c0,-15 10,-29 35,-29l173 0c51,0 93,-41 93,-92l0 -3984c0,-51 -42,-93 -93,-93l-171 0c-24,0 -37,-21 -37,-38l0 -8c0,-119 -97,-216 -216,-216l-1730 0c-119,0 -216,97 -216,216l0 7c0,20 -13,39 -49,39l-159 0c-51,0 -93,42 -93,93l0 3984c0,51 42,92 93,92l180 0c8,0 28,11 28,33l0 20c0,119 97,216 216,216l317 0m557 -4662c0,-5 -5,-10 -15,-11 -34,0 -61,28 -61,62 0,34 27,62 61,62 35,0 62,-28 62,-62 0,-34 -27,-62 -62,-62m1239 1697c-19,5 -34,15 -34,63l0 40c0,21 17,39 38,39l0 0c22,0 39,-18 39,-39l0 -267c0,-21 -17,-39 -39,-39l0 0c-21,0 -38,18 -38,39l0 227m34 -618c-19,6 -34,16 -34,63l0 41c0,21 17,38 38,38l0 0c22,0 39,-17 39,-38l0 -629c0,-21 -17,-39 -39,-39l0 0c-21,0 -38,18 -38,39l0 588"/>
 </g>
</svg>
