<?xml version="1.0" encoding="UTF-8"?>
<!DOCTYPE svg PUBLIC "-//W3C//DTD SVG 1.1//EN" "http://www.w3.org/Graphics/SVG/1.1/DTD/svg11.dtd">
<!-- Creator: CorelDRAW X8 -->
<svg xmlns="http://www.w3.org/2000/svg" xml:space="preserve" width="40mm" height="60mm" version="1.1" style="shape-rendering:geometricPrecision; text-rendering:geometricPrecision; image-rendering:optimizeQuality; fill-rule:evenodd; clip-rule:evenodd"
viewBox="0 0 4000 6000"
 xmlns:xlink="http://www.w3.org/1999/xlink">
 <defs>
  <style type="text/css">
   <![CDATA[
    .str0 {stroke:#332C2B;stroke-width:20}
    .fil0 {fill:none}
   ]]>
  </style>
 </defs>
 <g id="图层_x0020_1">
  <metadata id="CorelCorpID_0Corel-Layer"/>
  <path class="fil0 str0" d="M3481 5124c-47,0 -60,62 -60,104 0,43 -34,77 -76,77l-2708 0 -42 0c-42,0 -76,-34 -76,-77l0 -2192c0,-7 4,-12 14,-12l41 0c22,0 40,-18 40,-40l0 -6 0 0 0 -134c0,-22 -18,-41 -40,-41l-40 0c-11,0 -15,-7 -15,-17l0 -2059c0,-42 34,-77 76,-77 1084,0 1645,0 2749,0 43,0 77,35 77,77l0 4623"/>
 </g>
</svg>
