<?xml version="1.0" encoding="UTF-8"?>
<!DOCTYPE svg PUBLIC "-//W3C//DTD SVG 1.1//EN" "http://www.w3.org/Graphics/SVG/1.1/DTD/svg11.dtd">
<!-- Creator: CorelDRAW X8 -->
<svg xmlns="http://www.w3.org/2000/svg" xml:space="preserve" width="40mm" height="60mm" version="1.1" style="shape-rendering:geometricPrecision; text-rendering:geometricPrecision; image-rendering:optimizeQuality; fill-rule:evenodd; clip-rule:evenodd"
viewBox="0 0 4000 6000"
 xmlns:xlink="http://www.w3.org/1999/xlink">
 <defs>
  <style type="text/css">
   <![CDATA[
    .str0 {stroke:black;stroke-width:7.62}
    .fil0 {fill:none}
   ]]>
  </style>
 </defs>
 <g id="图层_x0020_1">
  <metadata id="CorelCorpID_0Corel-Layer"/>
  <path class="fil0 str0" d="M864 675l197 0c4,0 9,4 8,8 -16,129 -69,344 -69,386l2 0c13,-115 112,-193 230,-205l27 -3c11,-1 13,-3 10,-14 -13,-63 -20,-125 -18,-189 0,-4 4,-8 8,-8l1487 0c5,0 8,4 8,8 7,63 -2,133 -12,199 0,5 0,7 4,7l22 0c122,-1 228,86 238,205l1 0 0 -7c0,-95 -68,-252 -76,-386 0,-4 4,-8 8,-8l197 0c5,0 9,4 9,8l0 4582c0,4 -4,8 -9,8l-191 -3c-5,0 -9,-4 -9,-8 2,-111 66,-225 74,-316l-1 0c-14,99 -87,192 -187,194l0 209c0,4 -4,8 -8,8l-1584 0c-4,0 -8,-4 -8,-8l0 -203c-112,-5 -204,-90 -220,-200l-2 0 0 1c0,43 61,222 64,369 0,4 -4,8 -9,8l-191 0c-5,0 -9,-4 -9,-8l0 -4626c0,-4 4,-8 9,-8zm524 1033c0,-6 -6,-12 -17,-13 -39,0 -71,33 -71,72 0,40 32,72 71,72 40,0 72,-32 72,-72 0,-39 -32,-72 -72,-72m-447 417c-12,3 -22,10 -22,40l0 26c0,14 11,25 25,25l0 0c13,0 25,-11 25,-25l0 -259c0,-14 -12,-25 -25,-25l0 0c-14,0 -25,11 -25,25l0 233m703 -961c-9,2 -16,6 -16,22l0 14c0,19 15,34 34,34l0 0c19,0 35,-15 35,-34l0 -77c0,-19 -16,-35 -35,-35l0 0c-19,0 -34,16 -34,35l0 63m-253 4039c-3,-11 -9,-19 -34,-19l-22 0c-11,0 -20,10 -20,21l0 0c0,11 9,21 20,21l124 0c11,0 21,-10 21,-21l0 0c0,-11 -10,-21 -21,-21l-102 0m674 -5c-3,-12 -8,-20 -27,-20l-17 0c-22,0 -41,18 -41,41l0 0c0,23 19,42 41,42l149 0c23,0 42,-19 42,-42l0 0c0,-23 -19,-41 -42,-41l-132 0m-71 -4478c0,-3 -2,-5 -6,-5 -13,0 -25,11 -25,25 0,14 12,25 25,25 14,0 25,-11 25,-25 0,-14 -11,-25 -25,-25m648 4514c-5,-21 -17,-37 -67,-37l-44 0c-22,0 -41,19 -41,41l0 0c0,23 19,42 41,42l333 0c23,0 41,-19 41,-42l0 0c0,-22 -19,-41 -41,-41l-289 0m-931 50c-3,-11 -9,-19 -34,-19l-22 0c-11,0 -20,10 -20,21l0 0c0,11 9,21 20,21l124 0c11,0 20,-10 20,-21l0 0c0,-11 -9,-21 -20,-21l-102 0m-564 -2532c-12,3 -22,10 -22,40l0 26c0,14 11,25 25,25l0 0c13,0 25,-11 25,-25l0 -276c0,-13 -12,-25 -25,-25l0 0c-14,0 -25,12 -25,25l0 250m2177 -233c-12,4 -22,10 -22,41l0 26c0,13 11,25 25,25l0 0c14,0 25,-12 25,-25l0 -483c0,-14 -11,-25 -25,-25l0 0c-14,0 -25,11 -25,25l0 457m-1664 -1447c-1,-8 -8,-15 -22,-16 -49,0 -89,40 -89,90 0,49 40,89 89,89 50,0 90,-40 90,-89 0,-50 -40,-90 -90,-90m23 823c-1,-7 -7,-14 -20,-15 -46,0 -83,37 -83,83 0,46 37,83 83,83 46,0 83,-37 83,-83 0,-46 -37,-83 -83,-83m25 -510c-1,-10 -9,-19 -28,-20 -64,0 -117,52 -117,117 0,65 53,117 117,117 65,0 118,-52 118,-117 0,-65 -53,-117 -118,-117m1 -355l0 0c91,0 165,75 165,166l0 804c0,91 -74,166 -165,166l0 0c-91,0 -166,-75 -166,-166l0 -804c0,-91 75,-166 166,-166zm-1 31l0 0c78,0 141,64 141,141l0 792c0,78 -63,141 -141,141l0 0c-78,0 -141,-63 -141,-141l0 -792c0,-77 63,-141 141,-141z"/>
 </g>
</svg>
