<?xml version="1.0" encoding="UTF-8"?>
<!DOCTYPE svg PUBLIC "-//W3C//DTD SVG 1.1//EN" "http://www.w3.org/Graphics/SVG/1.1/DTD/svg11.dtd">
<!-- Creator: CorelDRAW -->
<svg xmlns="http://www.w3.org/2000/svg" xml:space="preserve" width="40mm" height="60mm" style="shape-rendering:geometricPrecision; text-rendering:geometricPrecision; image-rendering:optimizeQuality; fill-rule:evenodd; clip-rule:evenodd"
viewBox="0 0 40 60"
 xmlns:xlink="http://www.w3.org/1999/xlink">
 <defs>
  <style type="text/css">
   <![CDATA[
    .str0 {stroke:#1F1A17;stroke-width:0.0762}
    .fil0 {fill:none}
   ]]>
  </style>
 </defs>
 <g id="图层_x0020_1">
  <metadata id="CorelCorpID_0Corel-Layer"/>
  <path class="fil0 str0" d="M10.7324 6.5167l4.5567 -0.0167c0.2561,0.0168 0.3874,0.1908 0.3939,0.4571l-0.0377 0.964c0.0086,0.5422 0.5938,0.76 1.0488,0.4616 0.0976,-0.064 0.1252,-0.0776 0.2499,-0.077l7.2309 0.0973c0.4052,0.0402 0.6332,-0.1298 0.6683,-0.5285 0.0125,-0.142 0.0115,-0.2877 0.0193,-0.4303l0.0298 -0.5436c0.013,-0.2452 0.1531,-0.3402 0.3776,-0.3336l4.1273 0.0145c0.9452,0.0033 1.8552,0.8493 1.8481,1.8058l-0.3241 43.2744c-0.0071,0.9564 -0.9365,1.845 -1.8804,1.8383l-18.3732 -0.1296c-0.9441,-0.0067 -1.9193,-0.7835 -1.9128,-1.7411l0.2916 -43.3392c0.0064,-0.9575 0.7408,-1.7699 1.686,-1.7734z"/>
 </g>
</svg>
