<?xml version="1.0" encoding="UTF-8"?>
<!DOCTYPE svg PUBLIC "-//W3C//DTD SVG 1.1//EN" "http://www.w3.org/Graphics/SVG/1.1/DTD/svg11.dtd">
<!-- Creator: CorelDRAW X8 -->
<svg xmlns="http://www.w3.org/2000/svg" xml:space="preserve" width="40mm" height="60mm" version="1.1" style="shape-rendering:geometricPrecision; text-rendering:geometricPrecision; image-rendering:optimizeQuality; fill-rule:evenodd; clip-rule:evenodd"
viewBox="0 0 4000 6000"
 xmlns:xlink="http://www.w3.org/1999/xlink">
 <defs>
  <style type="text/css">
   <![CDATA[
    .str0 {stroke:#332C2B;stroke-width:10}
    .fil0 {fill:none;fill-rule:nonzero}
   ]]>
  </style>
 </defs>
 <g id="图层_x0020_1">
  <metadata id="CorelCorpID_0Corel-Layer"/>
  <g id="_2929695311344">
   <g>
    <line class="fil0 str0" x1="3121" y1="703" x2="3121" y2= "734" />
    <line class="fil0 str0" x1="878" y1="3046" x2="879" y2= "5017" />
    <path class="fil0 str0" d="M879 5017c0,71 9,103 40,153"/>
    <line class="fil0 str0" x1="919" y1="5170" x2="935" y2= "5201" />
    <path class="fil0 str0" d="M935 5201c32,67 151,138 231,138"/>
    <line class="fil0 str0" x1="1166" y1="5339" x2="1189" y2= "5337" />
    <path class="fil0 str0" d="M1189 5337c167,-14 167,-14 192,-14"/>
    <line class="fil0 str0" x1="1381" y1="5323" x2="1385" y2= "5323" />
    <path class="fil0 str0" d="M1385 5323c33,0 69,3 196,14 74,7 298,13 471,13 70,0 73,0 368,-10"/>
    <line class="fil0 str0" x1="2420" y1="5340" x2="2466" y2= "5338" />
    <path class="fil0 str0" d="M2466 5338c108,-4 108,-4 217,-23"/>
    <line class="fil0 str0" x1="2683" y1="5315" x2="2730" y2= "5307" />
    <path class="fil0 str0" d="M2730 5307c30,-5 51,-8 68,-8"/>
    <line class="fil0 str0" x1="2798" y1="5299" x2="2805" y2= "5299" />
    <path class="fil0 str0" d="M2805 5299c23,0 23,0 50,23"/>
    <line class="fil0 str0" x1="2855" y1="5322" x2="2864" y2= "5329" />
    <path class="fil0 str0" d="M2864 5329c4,4 7,5 10,5"/>
    <line class="fil0 str0" x1="2874" y1="5334" x2="2920" y2= "5318" />
    <path class="fil0 str0" d="M2920 5318c60,-21 130,-80 155,-130 43,-96 45,-102 46,-138"/>
    <line class="fil0 str0" x1="3121" y1="5050" x2="3122" y2= "829" />
    <path class="fil0 str0" d="M3122 829c-1,124 -1,160 -3,160 0,0 -1,-1 -1,-3 -19,-142 -136,-258 -274,-271 -20,-2 -21,-2 -116,-25"/>
    <line class="fil0 str0" x1="2728" y1="690" x2="2722" y2= "688" />
    <path class="fil0 str0" d="M2722 688c-101,-25 -101,-25 -491,-33"/>
    <line class="fil0 str0" x1="2231" y1="655" x2="2011" y2= "650" />
    <path class="fil0 str0" d="M2011 650c-238,0 -353,3 -554,15"/>
    <polyline class="fil0 str0" points="1457,665 1402,667 1286,665 "/>
    <path class="fil0 str0" d="M1286 665c-3,0 -6,0 -9,0 -72,0 -100,7 -120,32"/>
    <polyline class="fil0 str0" points="1157,697 1152,703 1140,716 1139,717 1138,718 1119,722 1111,723 "/>
    <path class="fil0 str0" d="M1111 723c-15,3 -59,22 -80,35 -99,60 -151,158 -152,283"/>
    <line class="fil0 str0" x1="879" y1="1041" x2="878" y2= "3087" />
    <polyline class="fil0 str0" points="1920,1468 1920,1478 1924,1478 1928,1475 1934,1481 1934,1481 1934,1482 1933,1482 1932,1482 1937,1489 1936,1490 1935,1490 1934,1491 1934,1491 1934,1496 "/>
    <path class="fil0 str0" d="M1934 1496c0,4 -1,7 -4,27"/>
    <polyline class="fil0 str0" points="1930,1523 1929,1523 1927,1523 1927,1523 1926,1522 1925,1522 1926,1522 1921,1529 1921,1528 1920,1528 1914,1534 1914,1534 1914,1534 "/>
    <path class="fil0 str0" d="M1914 1534c-23,23 -36,53 -36,85 0,65 54,119 121,119 66,0 120,-54 120,-120 0,-39 -13,-63 -51,-99"/>
    <polyline class="fil0 str0" points="2068,1519 2065,1527 2068,1518 2062,1512 2063,1511 2064,1511 2059,1504 2061,1503 2063,1503 2062,1497 2069,1470 2067,1470 2069,1470 "/>
    <path class="fil0 str0" d="M2069 1470c1,1 2,1 3,1"/>
    <polyline class="fil0 str0" points="2072,1471 2076,1464 2077,1464 2077,1465 2078,1465 2079,1466 2085,1461 2066,1468 "/>
    <path class="fil0 str0" d="M2066 1468c35,-14 53,-45 53,-89 0,-68 -53,-122 -121,-122 -66,0 -119,54 -119,121 0,37 11,60 48,97"/>
    <polyline class="fil0 str0" points="1927,1475 1928,1475 1928,1475 1928,1475 1934,1481 "/>
    <polyline class="fil0 str0" points="1988,1820 1997,1827 1999,1824 1999,1820 "/>
    <path class="fil0 str0" d="M1999 1820c165,0 305,-146 305,-317 0,-174 -142,-316 -316,-316 -175,0 -317,142 -317,317 0,171 142,317 310,317 10,0 24,-1 50,-3"/>
    <path class="fil0 str0" d="M1994 1879c80,-5 123,-16 178,-45 121,-67 196,-193 196,-330 0,-207 -168,-376 -375,-376 -208,0 -376,168 -376,376 0,208 167,375 377,375 13,0 14,0 50,-3"/>
    <polyline class="fil0 str0" points="1996,2465 2007,2464 2007,2463 "/>
    <path class="fil0 str0" d="M2007 2463c111,-8 190,-91 190,-199 0,-113 -89,-202 -203,-202 -110,0 -200,90 -200,201 0,110 90,202 197,202 14,0 26,-2 57,-6"/>
   </g>
  </g>
 </g>
</svg>
