<?xml version="1.0" encoding="UTF-8"?>
<!DOCTYPE svg PUBLIC "-//W3C//DTD SVG 1.1//EN" "http://www.w3.org/Graphics/SVG/1.1/DTD/svg11.dtd">
<!-- Creator: CorelDRAW X8 -->
<svg xmlns="http://www.w3.org/2000/svg" xml:space="preserve" width="40mm" height="60mm" version="1.1" style="shape-rendering:geometricPrecision; text-rendering:geometricPrecision; image-rendering:optimizeQuality; fill-rule:evenodd; clip-rule:evenodd"
viewBox="0 0 4000 6000"
 xmlns:xlink="http://www.w3.org/1999/xlink">
 <defs>
  <style type="text/css">
   <![CDATA[
    .str0 {stroke:black;stroke-width:7.62}
    .fil0 {fill:none}
   ]]>
  </style>
 </defs>
 <g id="图层_x0020_1">
  <metadata id="CorelCorpID_0Corel-Layer"/>
  <path class="fil0 str0" d="M922 5350l2014 0c104,0 189,-85 189,-189l0 -4322c0,-104 -85,-189 -189,-189l-1872 0c-104,0 -189,85 -189,189l0 4322c0,104 85,189 189,189l230 0m580 -295l236 0c70,0 126,57 126,126l0 0c0,69 -56,126 -126,126l-236 0c-69,0 -126,-57 -126,-126l0 0c0,-69 57,-126 126,-126zm-23 -4322l252 0c18,0 32,14 32,31l0 0c0,18 -14,32 -32,32l-252 0c-17,0 -31,-14 -31,-32l0 0c0,-17 14,-31 31,-31zm-377 -18c31,0 56,24 56,55 0,30 -25,55 -56,55 -30,0 -55,-25 -55,-55 0,-31 25,-55 55,-55zm856 0c30,0 55,24 55,55 0,30 -25,55 -55,55 -31,0 -55,-25 -55,-55 0,-31 24,-55 55,-55z"/>
 </g>
</svg>
