<?xml version="1.0" encoding="UTF-8"?>
<!DOCTYPE svg PUBLIC "-//W3C//DTD SVG 1.1//EN" "http://www.w3.org/Graphics/SVG/1.1/DTD/svg11.dtd">
<!-- Creator: CorelDRAW X8 -->
<svg xmlns="http://www.w3.org/2000/svg" xml:space="preserve" width="40mm" height="60mm" version="1.1" style="shape-rendering:geometricPrecision; text-rendering:geometricPrecision; image-rendering:optimizeQuality; fill-rule:evenodd; clip-rule:evenodd"
viewBox="0 0 4000 6000"
 xmlns:xlink="http://www.w3.org/1999/xlink">
 <defs>
  <style type="text/css">
   <![CDATA[
    .str0 {stroke:#332C2B;stroke-width:7.62}
    .fil0 {fill:none}
   ]]>
  </style>
 </defs>
 <g id="图层_x0020_1">
  <metadata id="CorelCorpID_0Corel-Layer"/>
  <path class="fil0 str0" d="M852 5286l2112 0c101,0 184,-82 184,-184l0 -4268c0,-101 -83,-184 -184,-184l-1861 0c-101,0 -184,83 -184,184l0 4268c0,102 83,184 184,184 101,0 238,34 238,64m498 -4604l386 0c17,0 31,14 31,31l0 0c0,17 -14,31 -31,31l-386 0c-17,0 -31,-14 -31,-31l0 0c0,-17 14,-31 31,-31zm800 -1l92 0c25,0 46,21 46,46l0 0c0,25 -21,46 -46,46l-92 0c-25,0 -46,-21 -46,-46l0 0c0,-25 21,-46 46,-46zm295 38c34,0 62,28 62,62 0,35 -28,63 -62,63 -35,0 -63,-28 -63,-63 0,-34 28,-62 63,-62z"/>
 </g>
</svg>
