<?xml version="1.0" encoding="UTF-8"?>
<!DOCTYPE svg PUBLIC "-//W3C//DTD SVG 1.1//EN" "http://www.w3.org/Graphics/SVG/1.1/DTD/svg11.dtd">
<!-- Creator: CorelDRAW X8 -->
<svg xmlns="http://www.w3.org/2000/svg" xml:space="preserve" width="40mm" height="60mm" version="1.1" style="shape-rendering:geometricPrecision; text-rendering:geometricPrecision; image-rendering:optimizeQuality; fill-rule:evenodd; clip-rule:evenodd"
viewBox="0 0 4000 6000"
 xmlns:xlink="http://www.w3.org/1999/xlink">
 <defs>
  <style type="text/css">
   <![CDATA[
    .str0 {stroke:black;stroke-width:7.62}
    .fil0 {fill:none}
   ]]>
  </style>
 </defs>
 <g id="图层_x0020_1">
  <metadata id="CorelCorpID_0Corel-Layer"/>
  <path class="fil0 str0" d="M1037 5329l1830 0c113,0 206,-93 206,-206l0 -4267c0,-113 -93,-206 -206,-206l-112 0c-10,0 -19,8 -19,19l0 25c0,12 -10,22 -22,22l-96 0c-12,0 -22,-10 -22,-22l0 -25c0,-11 -8,-19 -18,-19l-238 0c-3,0 -6,2 -8,4l-13 15c-2,2 -5,4 -8,4l-144 0c-27,0 -50,22 -50,50l0 40c0,60 -49,109 -109,109l0 0c-59,0 -108,-49 -108,-109l0 -40c0,-28 -23,-50 -50,-50l-145 0c-3,0 -5,-1 -7,-3l-16 -17c-2,-2 -4,-3 -7,-3l-542 0c-113,0 -206,93 -206,206l0 4267c0,113 93,206 206,206l72 0c62,1 104,8 125,21"/>
 </g>
</svg>
