<?xml version="1.0" encoding="UTF-8"?>
<!DOCTYPE svg PUBLIC "-//W3C//DTD SVG 1.1//EN" "http://www.w3.org/Graphics/SVG/1.1/DTD/svg11.dtd">
<!-- Creator: CorelDRAW 2020 (64-Bit) -->
<svg xmlns="http://www.w3.org/2000/svg" xml:space="preserve" width="40mm" height="60mm" version="1.1" style="shape-rendering:geometricPrecision; text-rendering:geometricPrecision; image-rendering:optimizeQuality; fill-rule:evenodd; clip-rule:evenodd"
viewBox="0 0 4000 6000"
 xmlns:xlink="http://www.w3.org/1999/xlink"
 xmlns:xodm="http://www.corel.com/coreldraw/odm/2003">
 <defs>
  <style type="text/css">
   <![CDATA[
    .str0 {stroke:#332C2B;stroke-width:20;stroke-miterlimit:22.9256}
    .fil0 {fill:none}
   ]]>
  </style>
 </defs>
 <g id="图层_x0020_1">
  <metadata id="CorelCorpID_0Corel-Layer"/>
  <path class="fil0 str0" d="M-31878.89 5056.37l0 -456.01c440,-0.02 799.98,-360 799.98,-800l0 -5646.51c0,-440 -359.98,-799.99 -799.98,-800.01l0 -381.28c0,-27.5 -22.55,-50 -50.06,-50l-7875.85 0 0 179.54c0,55 -45,100 -100,100l-1154.67 0c-55,0 -100,-45 -100,-100l0 -179.54 -4268 0c-27.51,0 -50.06,22.5 -50.06,50l0 381.28 -0.26 0c-440,0 -800,360 -800,800.01l0 2059.86c0,83.27 116.09,74.42 116.09,137.08l0 136.16c0,127.79 126.15,122.44 199.94,122.44 202.02,0 365.79,163.77 365.79,365.79 0,202.02 -163.77,365.79 -365.79,365.79 -73.79,0 -199.94,-19.89 -199.94,94.66l0 133.57c0,62.66 -116.09,36.95 -116.09,132.45l0 2098.71c0,440.01 359.99,800 800,800l0.26 0 0 381.27c0,27.5 22.55,50.01 50.06,50.01l447.97 0 0 -179.54c0,-55 45,-100 100,-100l1804.97 0c55,0 100,45 100,100l0 179.54 762.58 0 0 -179.54c0,-55 45.01,-100 100,-100l2201.84 0c54.99,0 100,45 100,100l0 179.54 7881.16 0c27.51,0 50.06,-22.51 50.06,-50.01 0,-27.5 1.34,-85.94 29.79,-136.87"/>
  <path class="fil0 str0" d="M735.24 5103.15l141.02 0c0,136.06 111.32,247.38 247.38,247.38l1746.1 0c136.06,0 247.38,-111.32 247.39,-247.38l117.9 0c8.51,0 15.46,-6.97 15.46,-15.48l0 -2435.48 -55.52 0c-17,0 -30.92,-13.91 -30.92,-30.92l0 -357.06c0,-17.01 13.92,-30.92 30.92,-30.92l55.52 0 0 -1319.81c0,-8.51 -6.95,-15.48 -15.46,-15.48l-117.9 0 0 -0.08c0,-136.07 -111.33,-247.39 -247.39,-247.39l-636.98 0c-25.75,0 -23.01,35.9 -42.39,35.9l-42.11 0c-39.51,0 -37.86,39.01 -37.86,61.83 0,62.47 -50.64,113.11 -113.11,113.11 -62.48,0 -113.12,-50.64 -113.12,-113.11 0,-22.82 6.15,-61.83 -29.27,-61.83l-41.31 0c-19.37,0 -11.42,-35.9 -40.95,-35.9l-649 0c-136.06,0 -247.38,111.32 -247.38,247.39l0 0.08 -117.9 0c-8.51,0 -15.47,6.97 -15.47,15.48l0 138.52 55.52 0c17.01,0 30.92,13.92 30.92,30.93l0 558.15c0,17.01 -13.91,30.93 -30.92,30.93l-55.52 0 0 235.81 55.52 0c17.01,0 30.92,13.92 30.92,30.93l0 680.88c0,17 -13.91,30.92 -30.92,30.92l-55.52 0 0 2437.12c0,8.51 6.96,15.48 15.47,15.48 8.5,0 26.57,0.41 42.32,9.21"/>
 </g>
</svg>
