<?xml version="1.0" encoding="UTF-8"?>
<!DOCTYPE svg PUBLIC "-//W3C//DTD SVG 1.1//EN" "http://www.w3.org/Graphics/SVG/1.1/DTD/svg11.dtd">
<!-- Creator: CorelDRAW X8 -->
<svg xmlns="http://www.w3.org/2000/svg" xml:space="preserve" width="40mm" height="60mm" version="1.1" style="shape-rendering:geometricPrecision; text-rendering:geometricPrecision; image-rendering:optimizeQuality; fill-rule:evenodd; clip-rule:evenodd"
viewBox="0 0 4000 6000"
 xmlns:xlink="http://www.w3.org/1999/xlink">
 <defs>
  <style type="text/css">
   <![CDATA[
    .str0 {stroke:#332C2B;stroke-width:10}
    .fil0 {fill:none}
   ]]>
  </style>
 </defs>
 <g id="图层_x0020_1">
  <metadata id="CorelCorpID_0Corel-Layer"/>
  <path class="fil0 str0" d="M1279 840c-8,-30 -24,-54 -99,-54l-21 0c-34,0 -61,27 -61,61l0 0c0,33 27,60 61,60l93 0c33,0 61,-27 61,-60l0 0c0,-34 -28,-61 -61,-61l-72 0m447 14c2,-50 -57,-90 -79,-92 -76,0 -138,62 -138,139 0,77 62,139 138,139 77,0 139,-62 139,-139 0,-77 -62,-139 -139,-139m13 443c1,-13 -14,-23 -19,-23 -20,0 -35,15 -35,35 0,19 15,34 35,34 19,0 34,-15 34,-34 0,-20 -15,-35 -34,-35m477 3855c-7,-26 -21,-46 -85,-46l-54 0c-29,0 -52,23 -52,52l0 0c0,28 23,52 52,52l248 0c29,0 52,-24 52,-52l0 0c0,-29 -23,-52 -52,-52l-194 0m-1073 413l2131 0c105,0 197,-80 197,-185l0 -4324c0,-105 -86,-191 -191,-191l-1996 0c-105,0 -191,86 -191,191l0 4324c0,105 79,185 184,185l209 0"/>
 </g>
</svg>
