<?xml version="1.0" encoding="UTF-8"?>
<!DOCTYPE svg PUBLIC "-//W3C//DTD SVG 1.1//EN" "http://www.w3.org/Graphics/SVG/1.1/DTD/svg11.dtd">
<!-- Creator: CorelDRAW X8 -->
<svg xmlns="http://www.w3.org/2000/svg" xml:space="preserve" width="40mm" height="60mm" version="1.1" style="shape-rendering:geometricPrecision; text-rendering:geometricPrecision; image-rendering:optimizeQuality; fill-rule:evenodd; clip-rule:evenodd"
viewBox="0 0 4000 6000"
 xmlns:xlink="http://www.w3.org/1999/xlink">
 <defs>
  <style type="text/css">
   <![CDATA[
    .str0 {stroke:#332C2B;stroke-width:20}
    .fil0 {fill:none}
   ]]>
  </style>
 </defs>
 <g id="图层_x0020_1">
  <metadata id="CorelCorpID_0Corel-Layer"/>
  <path class="fil0 str0" d="M150 1182l630 0c76,0 140,55 159,128 8,30 35,53 68,53l0 0c31,0 57,-20 66,-48 26,-78 96,-128 178,-128l1314 0c82,0 151,50 177,128 10,28 36,48 67,48l0 0c33,0 61,-24 68,-55 18,-75 83,-126 160,-126l695 0 0 19 0 100 94 29 24 8 0 187 -24 7 -94 29 0 94 0 94 94 29 24 8 0 1980 -24 7 -94 29 0 94 0 94 94 29 24 8 0 791 -813 0c-77,0 -142,-51 -160,-126 -7,-31 -35,-55 -68,-55l0 0c-31,0 -57,20 -67,48 -26,78 -95,128 -177,128l-1314 0c-82,0 -152,-50 -178,-128 -9,-28 -35,-48 -66,-48l0 0c-33,0 -61,24 -69,55 -17,75 -82,126 -159,126l-629 0 0 -119 24 -7 94 -29 0 -94 0 -94 -94 -29 -24 -8 0 -187 24 -8 94 -29 0 -94 0 -93 -94 -30 -24 -7 0 -188 24 -7 94 -29 0 -94 0 -94 -94 -29 -24 -7 0 -188 24 -7 94 -29 0 -94 0 -94 -94 -29 -24 -7 0 -188 24 -7 94 -29 0 -94 0 -94 -94 -29 -24 -7 0 -188 24 -7 94 -29 0 -94 0 -94 -94 -29 -24 -7 0 -188 24 -7 94 -29 0 -94 0 -94 -94 -29 -24 -8 0 -188 24 -7 94 -29 0 -94 0 -94 -94 -29 -24 -7 0 -119zm3029 138l339 0c52,0 94,42 94,94l0 925c0,51 -42,93 -94,93l-339 0c-51,0 -93,-42 -93,-93l0 -925c0,-52 42,-94 93,-94zm-363 763l0 0c16,0 29,13 29,30l0 771c0,16 -13,30 -29,30l0 0c-16,0 -29,-14 -29,-30l0 -771c0,-17 13,-30 29,-30zm-1519 -814c26,0 47,21 47,47 0,26 -21,47 -47,47 -26,0 -47,-21 -47,-47 0,-26 21,-47 47,-47z"/>
  <path class="fil0 str0" d="M-26907 -7004l2695 0c323,0 596,236 677,549 34,130 151,226 291,226l0 0c132,0 244,-86 284,-205 112,-332 409,-545 759,-545l5619 0c350,0 647,213 759,545 40,119 152,205 284,205l0 0c142,0 262,-100 292,-233 75,-321 353,-542 682,-542l2974 0 0 84 0 427 402 124 102 32 0 801 -102 32 -402 124 0 402 0 401 402 125 102 31 0 8467 -102 31 -402 124 0 402 0 402 402 124 102 31 0 3386 -3477 0c-330,0 -608,-221 -682,-542 -31,-133 -150,-233 -292,-233l0 0c-132,0 -245,86 -285,205 -111,331 -408,545 -758,545l-5620 0c-349,0 -647,-214 -758,-545 -40,-119 -153,-205 -285,-205l0 0c-142,0 -261,100 -292,233 -74,321 -352,542 -682,542l-2689 0 0 -511 102 -31 401 -125 0 -401 0 -402 -401 -124 -102 -32 0 -801 102 -32 401 -124 0 -401 0 -402 -401 -124 -102 -32 0 -802 102 -32 401 -124 0 -401 0 -402 -401 -124 -102 -32 0 -801 102 -32 401 -124 0 -402 0 -401 -401 -124 -102 -32 0 -800 102 -32 401 -124 0 -402 0 -402 -401 -124 -102 -31 0 -802 102 -31 401 -124 0 -402 0 -402 -401 -124 -102 -31 0 -802 102 -31 401 -124 0 -402 0 -402 -401 -124 -102 -31 0 -804 102 -31 401 -125 0 -401 0 -402 -401 -124 -102 -32 0 -509zm12952 593l1450 0c220,0 400,180 400,400l0 3954c0,220 -180,400 -400,400l-1450 0c-221,0 -400,-180 -400,-400l0 -3954c0,-220 179,-400 400,-400zm-1553 3262l0 0c69,0 125,56 125,125l0 3300c0,69 -56,125 -125,125l0 0c-69,0 -125,-56 -125,-125l0 -3300c0,-69 56,-125 125,-125zm-6494 -3480c110,0 200,90 200,200 0,111 -90,200 -200,200 -111,0 -200,-89 -200,-200 0,-110 89,-200 200,-200z"/>
 </g>
</svg>
