<?xml version="1.0" encoding="UTF-8"?>
<!DOCTYPE svg PUBLIC "-//W3C//DTD SVG 1.1//EN" "http://www.w3.org/Graphics/SVG/1.1/DTD/svg11.dtd">
<!-- Creator: CorelDRAW X8 -->
<svg xmlns="http://www.w3.org/2000/svg" xml:space="preserve" width="40mm" height="60mm" version="1.1" style="shape-rendering:geometricPrecision; text-rendering:geometricPrecision; image-rendering:optimizeQuality; fill-rule:evenodd; clip-rule:evenodd"
viewBox="0 0 4000 6000"
 xmlns:xlink="http://www.w3.org/1999/xlink">
 <defs>
  <style type="text/css">
   <![CDATA[
    .fil0 {fill:#332C2A;fill-rule:nonzero}
   ]]>
  </style>
 </defs>
 <g id="图层_x0020_1">
  <metadata id="CorelCorpID_0Corel-Layer"/>
  <g>
   <path class="fil0" d="M858 844l0 11 0 0 -2 0 -2 0 -2 0 -2 0 -2 0 -2 0 -2 0 -2 0 -2 0 -2 0 -1 0 -2 0 -2 0 -1 0 -2 0 -2 0 -1 0 -2 -1 -1 0 -1 0 -2 0 -1 0 -1 -1 -1 0 -2 0 -1 -1 -1 0 -1 -1 -1 0 -1 -1 -1 0 -1 -1 6 -9 1 1 0 0 1 0 0 1 1 0 1 0 1 0 0 1 1 0 1 0 1 0 1 0 2 1 1 0 1 0 1 0 2 0 1 0 2 0 1 0 2 1 1 0 2 0 2 0 2 0 2 0 1 -1 2 0 2 0 2 0 2 0 3 0 0 0zm0 0l0 0 -1 0 1 0zm2267 -199l1 11 0 0 -64 5 -66 5 -68 6 -70 6 -71 7 -73 6 -74 7 -75 7 -76 7 -76 7 -78 7 -77 8 -78 7 -78 7 -78 8 -78 7 -78 7 -77 8 -76 7 -75 7 -75 6 -73 7 -72 6 -70 6 -69 6 -67 6 -65 5 -63 5 -61 5 -58 4 -56 3 -53 4 0 -11 52 -3 56 -4 58 -4 61 -5 63 -5 65 -5 67 -5 69 -6 70 -6 72 -7 73 -6 75 -7 75 -7 76 -7 77 -7 78 -8 78 -7 78 -7 78 -8 78 -7 77 -7 78 -8 76 -7 76 -7 75 -7 74 -6 73 -7 71 -6 70 -6 68 -6 66 -6 64 -5 0 0zm28 24l-10 0 0 0 0 -2 0 -1 0 -1 0 -1 -1 -1 0 -1 0 -1 0 -1 0 -1 0 0 0 -1 0 0 -1 -1 0 0 0 0 0 0 0 0 0 0 -1 -1 0 0 0 0 -1 0 -1 0 -1 0 -1 0 -1 -1 -1 0 -1 0 -2 0 -1 0 -2 1 -2 0 -1 -11 2 0 2 0 2 0 2 0 1 0 2 0 1 0 2 0 1 0 2 1 1 0 1 0 1 1 1 1 2 0 1 1 0 1 1 1 1 1 0 1 1 2 0 1 1 1 0 1 0 1 0 2 0 1 0 1 0 1 0 2 0 1 0 2 0 0zm40 4665l-11 0 0 0 -1 -124 -1 -129 -1 -135 -2 -139 -1 -143 -1 -147 -2 -151 -1 -154 -1 -156 -2 -159 -1 -161 -1 -162 -2 -163 -1 -163 -1 -164 -2 -163 -1 -163 -1 -162 -2 -161 -1 -158 -1 -156 -1 -154 -2 -151 -1 -147 -1 -143 -1 -138 -1 -134 -1 -129 -1 -124 -1 -117 -1 -111 -1 -104 10 0 1 104 1 111 1 117 1 124 1 128 2 134 1 139 1 143 1 147 1 151 2 153 1 157 1 158 1 161 2 162 1 162 1 164 2 164 1 163 2 163 1 162 1 161 2 158 1 157 1 154 2 151 1 147 1 143 1 139 2 135 1 129 1 124 0 0zm-11 0l0 0 0 0 0 0zm-11 21l1 -11 0 0 1 1 1 0 1 0 1 0 0 0 1 0 1 -1 0 0 1 0 0 0 1 0 0 0 0 0 0 0 1 0 0 -1 0 0 0 0 0 0 0 0 0 -1 1 0 0 -1 0 0 0 -1 0 0 0 -1 0 -1 0 -1 0 -1 0 -1 0 -1 11 0 0 1 0 1 0 2 0 1 0 1 0 1 0 1 -1 1 0 1 0 1 -1 1 0 1 -1 1 0 1 -1 1 -1 1 -1 1 0 0 -1 1 -1 1 -1 0 -1 0 -1 1 -2 0 -1 0 -1 0 -1 0 -1 0 -1 0 -2 0 -1 0 -1 0 0 0zm-2277 -167l0 -10 0 0 59 4 61 4 65 5 66 4 69 5 71 6 73 5 74 5 76 6 77 6 78 5 78 6 80 6 79 6 80 6 80 6 80 6 79 6 79 6 78 6 77 5 75 6 75 5 72 6 71 5 68 5 67 5 64 4 61 5 58 4 56 4 52 3 -1 11 -52 -3 -55 -4 -59 -4 -61 -5 -64 -4 -66 -5 -69 -5 -71 -6 -72 -5 -74 -5 -76 -6 -77 -6 -78 -5 -78 -6 -80 -6 -79 -6 -80 -6 -80 -6 -80 -6 -79 -6 -79 -6 -78 -6 -77 -5 -76 -6 -74 -5 -73 -6 -71 -5 -69 -5 -66 -5 -64 -4 -62 -5 -58 -4 0 0zm0 0l0 0 -1 0 1 0zm-26 -23l11 0 0 0 0 1 0 1 0 1 0 0 1 1 0 1 0 0 0 1 0 0 1 1 0 0 0 1 1 0 0 0 0 1 1 0 0 0 1 1 0 0 1 0 0 1 1 0 1 0 0 0 1 1 1 0 1 0 1 0 1 0 0 0 1 1 1 0 0 10 -2 0 -1 0 -1 0 -1 0 -1 0 -2 -1 -1 0 -1 0 -1 -1 -1 0 -1 -1 -1 0 -1 -1 -1 0 -1 -1 -1 -1 -1 0 -1 -1 0 -1 -1 -1 -1 -1 -1 -1 0 -1 -1 -1 0 -1 0 -1 -1 -1 0 -2 0 -1 0 -1 -1 -1 0 -2 0 0zm11 0l0 0 0 0 0 0zm-45 -4296l10 0 0 0 1 94 0 102 1 108 1 114 1 120 1 124 1 130 1 134 1 137 2 141 1 145 2 146 1 149 2 150 1 152 2 153 1 152 2 153 1 153 2 151 1 150 2 149 1 146 1 143 1 140 1 137 1 133 1 129 0 123 1 119 0 113 0 106 -11 0 0 -106 0 -113 0 -119 -1 -123 -1 -129 -1 -133 -1 -136 -1 -141 -1 -143 -1 -146 -1 -149 -2 -150 -1 -151 -2 -153 -1 -152 -2 -153 -2 -153 -1 -152 -2 -150 -1 -149 -2 -146 -1 -144 -1 -142 -2 -137 -1 -134 -1 -130 -1 -124 -1 -120 -1 -114 -1 -108 0 -102 0 -94 0 0zm23 -25l2 11 -1 0 -1 0 -1 0 -1 0 0 0 -1 0 -1 1 -1 0 0 0 -1 0 -1 0 0 1 -1 0 0 0 -1 1 0 0 0 0 -1 1 0 0 0 1 -1 0 0 1 0 0 -1 1 0 0 0 1 0 1 0 0 0 1 -1 1 0 1 0 1 0 1 -10 0 0 -2 0 -1 0 -1 0 -1 0 -2 0 -1 1 -1 0 -1 0 -1 1 -1 1 -2 0 -1 1 -1 0 0 1 -1 1 -1 1 -1 1 -1 1 0 1 -1 1 -1 1 0 1 -1 1 0 1 -1 1 0 1 0 2 0 1 -1 1 0 1 0 2 0 -1 0zm2 11l-1 0 0 0 1 0zm72 -36l9 7 -1 1 -2 1 -1 2 -1 1 -2 1 -2 1 -1 2 -2 1 -2 1 -2 1 -2 1 -2 1 -2 1 -2 1 -3 1 -2 0 -3 1 -3 1 -2 1 -3 1 -3 1 -3 0 -3 1 -3 1 -4 0 -3 1 -4 1 -3 0 -4 1 -4 1 -3 0 -4 1 -2 -11 4 -1 4 0 4 -1 3 0 4 -1 3 0 3 -1 3 -1 3 0 3 -1 3 -1 3 -1 3 0 2 -1 3 -1 2 -1 2 0 3 -1 2 -1 2 -1 1 -1 2 -1 2 -1 1 -1 2 0 1 -1 2 -1 1 -1 1 -1 1 -1 1 -1 0 -1z"/>
  </g>
 </g>
</svg>
