<?xml version="1.0" encoding="UTF-8"?>
<!DOCTYPE svg PUBLIC "-//W3C//DTD SVG 1.1//EN" "http://www.w3.org/Graphics/SVG/1.1/DTD/svg11.dtd">
<!-- Creator: CorelDRAW X8 -->
<svg xmlns="http://www.w3.org/2000/svg" xml:space="preserve" width="40mm" height="60mm" version="1.1" style="shape-rendering:geometricPrecision; text-rendering:geometricPrecision; image-rendering:optimizeQuality; fill-rule:evenodd; clip-rule:evenodd"
viewBox="0 0 4000 6000"
 xmlns:xlink="http://www.w3.org/1999/xlink">
 <defs>
  <style type="text/css">
   <![CDATA[
    .str0 {stroke:#332C2B;stroke-width:17.64}
    .fil0 {fill:none}
   ]]>
  </style>
 </defs>
 <g id="图层_x0020_1">
  <metadata id="CorelCorpID_0Corel-Layer"/>
  <path class="fil0 str0" d="M1020 5213l1817 0c79,0 143,-65 143,-145l0 -4244c0,-79 -91,-174 -169,-174l-300 0 -25 25 -934 0 -25 -25 -292 0c-79,0 -172,94 -172,174l0 4244c0,80 64,145 143,145 78,0 137,32 137,137m-116 -4490c-48,-28 -18,-94 25,-94 43,0 78,35 78,79 0,43 -35,78 -78,78 -43,0 -78,-35 -78,-78 0,-44 35,-79 78,-79"/>
 </g>
</svg>
