<?xml version="1.0" encoding="UTF-8"?>
<!DOCTYPE svg PUBLIC "-//W3C//DTD SVG 1.1//EN" "http://www.w3.org/Graphics/SVG/1.1/DTD/svg11.dtd">
<!-- Creator: CorelDRAW X8 -->
<svg xmlns="http://www.w3.org/2000/svg" xml:space="preserve" width="40mm" height="60mm" version="1.1" style="shape-rendering:geometricPrecision; text-rendering:geometricPrecision; image-rendering:optimizeQuality; fill-rule:evenodd; clip-rule:evenodd"
viewBox="0 0 4000 6000"
 xmlns:xlink="http://www.w3.org/1999/xlink">
 <defs>
  <style type="text/css">
   <![CDATA[
    .str0 {stroke:black;stroke-width:20}
    .fil0 {fill:none}
   ]]>
  </style>
 </defs>
 <g id="图层_x0020_1">
  <metadata id="CorelCorpID_0Corel-Layer"/>
  <path class="fil0 str0" d="M3050 5311l0 -242 0 -4232c0,-103 -83,-187 -186,-187 -233,0 -467,0 -701,0 -51,7 -72,47 -78,84 -9,52 -42,94 -94,94l0 0c-51,0 -82,-43 -93,-94 -9,-41 -30,-84 -70,-84l-692 0c-103,0 -186,84 -186,187l0 4326c0,103 83,187 186,187l1728 0c103,0 186,-84 186,-187"/>
 </g>
</svg>
