<?xml version="1.0" encoding="UTF-8"?>
<!DOCTYPE svg PUBLIC "-//W3C//DTD SVG 1.1//EN" "http://www.w3.org/Graphics/SVG/1.1/DTD/svg11.dtd">
<!-- Creator: CorelDRAW X8 -->
<svg xmlns="http://www.w3.org/2000/svg" xml:space="preserve" width="40mm" height="60mm" version="1.1" style="shape-rendering:geometricPrecision; text-rendering:geometricPrecision; image-rendering:optimizeQuality; fill-rule:evenodd; clip-rule:evenodd"
viewBox="0 0 4000 6000"
 xmlns:xlink="http://www.w3.org/1999/xlink">
 <defs>
  <style type="text/css">
   <![CDATA[
    .str0 {stroke:#332C2B;stroke-width:30;stroke-linejoin:bevel}
    .fil0 {fill:none}
   ]]>
  </style>
 </defs>
 <g id="图层_x0020_1">
  <metadata id="CorelCorpID_0Corel-Layer"/>
  <g id="_2338473695296">
   <path class="fil0 str0" d="M2491 789c0,-45 -36,-81 -80,-81 -45,0 -81,36 -81,81 0,45 36,81 81,81 44,0 80,-36 80,-81z"/>
   <path class="fil0 str0" d="M829 5302l0 -4604c0,-12 5,-25 14,-34 9,-9 22,-14 34,-14l798 0c13,0 24,8 29,19 6,12 17,19 30,19l532 0c13,0 24,-7 30,-19 5,-11 16,-19 29,-19l798 0c12,0 25,5 34,14 9,9 14,22 14,34l0 4604c0,12 -5,25 -14,34 -9,9 -22,14 -34,14l-2246 0c-12,0 -25,-5 -34,-14 -9,-9 -14,-22 -14,-34z"/>
  </g>
 </g>
</svg>
