<?xml version="1.0" encoding="UTF-8"?>
<!DOCTYPE svg PUBLIC "-//W3C//DTD SVG 1.1//EN" "http://www.w3.org/Graphics/SVG/1.1/DTD/svg11.dtd">
<!-- Creator: CorelDRAW X8 -->
<svg xmlns="http://www.w3.org/2000/svg" xml:space="preserve" width="40mm" height="60mm" version="1.1" style="shape-rendering:geometricPrecision; text-rendering:geometricPrecision; image-rendering:optimizeQuality; fill-rule:evenodd; clip-rule:evenodd"
viewBox="0 0 4000 6000"
 xmlns:xlink="http://www.w3.org/1999/xlink">
 <defs>
  <style type="text/css">
   <![CDATA[
    .str0 {stroke:#332C2B;stroke-width:7.62}
    .fil0 {fill:none}
   ]]>
  </style>
 </defs>
 <g id="图层_x0020_1">
  <metadata id="CorelCorpID_0Corel-Layer"/>
  <path class="fil0 str0" d="M884 5241l2048 0c101,0 184,-83 184,-184l0 -4223c0,-101 -83,-184 -184,-184l-59 0c-26,0 -37,12 -37,36l0 102c0,28 -22,50 -50,50 -28,0 -51,-22 -51,-50l0 -102c0,-22 -4,-36 -36,-36l-1209 0c-23,0 -34,16 -34,35l0 68c0,43 -35,79 -78,79 -43,0 -79,-36 -79,-79l0 -67c0,-20 -6,-36 -33,-36l-125 0c-101,0 -184,83 -184,184l0 4223c0,101 83,184 184,184 101,0 254,33 254,109m573 -4585c0,-52 -79,-64 -111,-64 -33,0 -59,26 -59,58l0 0c0,32 26,59 59,59l349 0c32,0 59,-27 59,-59l0 0c0,-32 -27,-58 -59,-58l-349 0"/>
 </g>
</svg>
