<?xml version="1.0" encoding="UTF-8"?>
<!DOCTYPE svg PUBLIC "-//W3C//DTD SVG 1.1//EN" "http://www.w3.org/Graphics/SVG/1.1/DTD/svg11.dtd">
<!-- Creator: CorelDRAW X8 -->
<svg xmlns="http://www.w3.org/2000/svg" xml:space="preserve" width="40mm" height="60mm" version="1.1" style="shape-rendering:geometricPrecision; text-rendering:geometricPrecision; image-rendering:optimizeQuality; fill-rule:evenodd; clip-rule:evenodd"
viewBox="0 0 4000 6000"
 xmlns:xlink="http://www.w3.org/1999/xlink">
 <defs>
  <style type="text/css">
   <![CDATA[
    .str0 {stroke:black;stroke-width:7.62}
    .fil0 {fill:none}
   ]]>
  </style>
 </defs>
 <g id="图层_x0020_1">
  <metadata id="CorelCorpID_0Corel-Layer"/>
  <path class="fil0 str0" d="M1027 5350l1762 0c128,0 232,-105 232,-233l0 -4234c0,-128 -104,-233 -232,-233l-486 0c-7,0 -121,0 -175,0 -14,0 -36,9 -36,33l0 47c0,43 -35,78 -78,78l0 0c-42,0 -77,-35 -77,-78l0 -44c0,-28 -16,-36 -35,-36 -46,0 -131,0 -132,0l-559 0c-128,0 -232,105 -232,233l0 4234c0,128 104,233 232,233l228 0"/>
 </g>
</svg>
