<?xml version="1.0" encoding="UTF-8"?>
<!DOCTYPE svg PUBLIC "-//W3C//DTD SVG 1.1//EN" "http://www.w3.org/Graphics/SVG/1.1/DTD/svg11.dtd">
<!-- Creator: CorelDRAW X8 -->
<svg xmlns="http://www.w3.org/2000/svg" xml:space="preserve" width="40mm" height="60mm" version="1.1" style="shape-rendering:geometricPrecision; text-rendering:geometricPrecision; image-rendering:optimizeQuality; fill-rule:evenodd; clip-rule:evenodd"
viewBox="0 0 4000 6000"
 xmlns:xlink="http://www.w3.org/1999/xlink">
 <defs>
  <style type="text/css">
   <![CDATA[
    .str0 {stroke:#332C2B;stroke-width:7.62}
    .fil0 {fill:none}
   ]]>
  </style>
 </defs>
 <g id="图层_x0020_1">
  <metadata id="CorelCorpID_0Corel-Layer"/>
  <path class="fil0 str0" d="M1926 1789c-41,11 -71,26 -71,96l0 8c0,82 66,148 147,148l0 0c81,0 148,-66 148,-148l0 -79c0,-81 -67,-148 -148,-148l0 0c-81,0 -147,67 -147,148l0 71m-342 -909c1,-21 -24,-38 -33,-39 -33,0 -59,27 -59,59 0,33 26,59 59,59 32,0 59,-26 59,-59 0,-32 -27,-59 -59,-59m-233 567c1,-27 -31,-48 -42,-49 -41,0 -74,33 -74,74 0,41 33,74 74,74 41,0 74,-33 74,-74 0,-41 -33,-74 -74,-74m44 -219c1,-27 -31,-48 -42,-49 -41,0 -74,33 -74,74 0,41 33,74 74,74 41,0 74,-33 74,-74 0,-41 -33,-74 -74,-74m45 -220c1,-26 -31,-48 -42,-48 -41,0 -74,33 -74,73 0,41 33,74 74,74 40,0 73,-33 73,-74 0,-40 -33,-73 -73,-73m0 -65l0 0c75,0 136,61 136,135l0 538c0,74 -61,136 -136,136l0 0c-75,0 -136,-62 -136,-136l0 -538c0,-74 61,-135 136,-135zm0 -21l0 0c89,0 162,73 162,162l0 532c0,89 -73,162 -162,162l0 0c-90,0 -163,-73 -163,-162l0 -532c0,-89 73,-162 163,-162zm1990 484c-21,6 -37,17 -37,67l0 326c0,23 19,42 41,42l0 0c23,0 42,-19 42,-42l0 -504c0,-22 -19,-41 -42,-41l0 0c-23,0 -41,19 -41,41l0 178m-2377 1047c-17,5 -30,14 -30,55l0 142c0,18 15,34 34,34l0 0c18,0 34,-15 34,-34l0 -271c0,-19 -16,-34 -34,-34l0 0c-19,0 -34,15 -34,34l0 129m38 -805c-17,4 -31,14 -31,55l0 341c0,18 16,34 34,34l0 0c19,0 34,-16 34,-34l0 -562c0,-19 -15,-34 -34,-34l0 0c-18,0 -34,15 -34,34l0 221m214 3614c291,0 1851,0 1852,0 149,-10 269,-135 270,-287l156 0c8,0 15,-6 15,-14l0 -4090c0,-8 -7,-14 -15,-14l-156 0 0 -5c0,-155 -123,-283 -277,-289 -3,0 -1666,-3 -1666,1 -144,17 -257,140 -257,288l0 5 -154 0c-8,0 -15,6 -15,14l0 4090c0,8 7,14 15,14l154 0c1,151 120,276 268,287 0,0 21,0 57,0"/>
 </g>
</svg>
