<?xml version="1.0" encoding="UTF-8"?>
<!DOCTYPE svg PUBLIC "-//W3C//DTD SVG 1.1//EN" "http://www.w3.org/Graphics/SVG/1.1/DTD/svg11.dtd">
<!-- Creator: CorelDRAW -->
<svg xmlns="http://www.w3.org/2000/svg" xml:space="preserve" width="40mm" height="60mm" style="shape-rendering:geometricPrecision; text-rendering:geometricPrecision; image-rendering:optimizeQuality; fill-rule:evenodd; clip-rule:evenodd"
viewBox="0 0 40 60"
 xmlns:xlink="http://www.w3.org/1999/xlink">
 <defs>
  <style type="text/css">
   <![CDATA[
    .str0 {stroke:#1F1A17;stroke-width:0.194}
    .fil0 {fill:none}
   ]]>
  </style>
 </defs>
 <g id="图层_x0020_1">
  <metadata id="CorelCorpID_0Corel-Layer"/>
  <g id="_259838264">
   <path id="_259838000" class="fil0 str0" d="M19.571 7.4171c0.3919,-0.238 0.5017,-0.2961 0.6416,-0.3381 0.1399,-0.0419 0.2508,-0.0506 0.6448,-0.0506 0.591,0 0.7933,0.1099 0.7933,0.4349 0,0.3165 -0.1517,0.4166 -0.6275,0.4166 -1.5372,0 -2.3252,-0.0118 -2.3898,-0.0377 -0.1098,-0.043 -0.211,-0.2228 -0.211,-0.3757 0,-0.2626 0.1572,-0.4025 0.4629,-0.4155"/>
   <line id="_259837952" class="fil0 str0" x1="18.8853" y1="7.051" x2="20.8574" y2= "7.0284" />
   <path id="_259837712" class="fil0 str0" d="M29.6251 53.0801c-6.0389,0.0011 -12.0789,0.0022 -18.1178,0.0022 -0.9839,-0.0281 -1.704,-0.5857 -1.9861,-1.5372"/>
   <line id="_259837544" class="fil0 str0" x1="9.5212" y1="51.5451" x2="9.4416" y2= "8.6259" />
   <path id="_259837448" class="fil0 str0" d="M9.4416 8.6259c0.0323,-0.6781 0.2519,-1.1841 0.69,-1.5835 0.4209,-0.3842 0.7912,-0.5156 1.4564,-0.5177"/>
   <line id="_259836920" class="fil0 str0" x1="11.588" y1="6.5247" x2="20.0264" y2= "6.5096" />
   <path id="_259836896" class="fil0 str0" d="M20.0264 6.5096c8.7924,-0.0172 8.7871,-0.0172 9.0163,0.0506 0.7557,0.2228 1.2509,0.7201 1.4845,1.4898 0.0258,0.0883 0.0312,0.1787 0.0312,0.5781"/>
   <line id="_259837832" class="fil0 str0" x1="30.5584" y1="8.6281" x2="30.5272" y2= "51.5289" />
   <path id="_259835744" class="fil0 str0" d="M30.5272 51.5289c-0.0399,0.2476 -0.3176,0.7439 -0.5458,0.9731 -0.3122,0.3144 -0.7234,0.5006 -1.2315,0.5609 -0.2497,0.029 -0.2863,0.0355 -0.3671,0.0592 -0.1969,0.057 -0.2831,0.1173 -0.5349,0.3778"/>
  </g>
 </g>
</svg>
