<?xml version="1.0" encoding="UTF-8"?>
<!DOCTYPE svg PUBLIC "-//W3C//DTD SVG 1.1//EN" "http://www.w3.org/Graphics/SVG/1.1/DTD/svg11.dtd">
<!-- Creator: CorelDRAW 2020 (64-Bit) -->
<svg xmlns="http://www.w3.org/2000/svg" xml:space="preserve" width="40mm" height="60mm" version="1.1" style="shape-rendering:geometricPrecision; text-rendering:geometricPrecision; image-rendering:optimizeQuality; fill-rule:evenodd; clip-rule:evenodd"
viewBox="0 0 4000 6000"
 xmlns:xlink="http://www.w3.org/1999/xlink"
 xmlns:xodm="http://www.corel.com/coreldraw/odm/2003">
 <defs>
  <style type="text/css">
   <![CDATA[
    .str0 {stroke:black;stroke-width:7.62;stroke-miterlimit:22.9256}
    .fil0 {fill:none}
   ]]>
  </style>
 </defs>
 <g id="图层_x0020_1">
  <metadata id="CorelCorpID_0Corel-Layer"/>
  <path class="fil0 str0" d="M1021.14 5322.49l1750.06 0c158.44,0 288.08,-129.64 288.08,-288.08l0 -4090.66c0,-158.45 -129.64,-288.08 -288.08,-288.08l-659.69 0c-23.8,0 -43.21,19.41 -43.21,43.21l0 44.67c0,39.61 -32.41,72.02 -72.02,72.02l0 0c-39.61,0 -72.02,-32.41 -72.02,-72.02l0 -44.67c0,-23.8 -19.41,-43.21 -43.21,-43.21l-665.46 0c-158.44,0 -288.07,129.63 -288.07,288.08l0 4090.66c0,158.44 129.63,288.08 288.07,288.08l45.17 0c118.35,0 160.11,16.26 182.45,33.18"/>
 </g>
</svg>
