<?xml version="1.0" encoding="UTF-8"?>
<!DOCTYPE svg PUBLIC "-//W3C//DTD SVG 1.1//EN" "http://www.w3.org/Graphics/SVG/1.1/DTD/svg11.dtd">
<!-- Creator: CorelDRAW X8 -->
<svg xmlns="http://www.w3.org/2000/svg" xml:space="preserve" width="40mm" height="60mm" version="1.1" style="shape-rendering:geometricPrecision; text-rendering:geometricPrecision; image-rendering:optimizeQuality; fill-rule:evenodd; clip-rule:evenodd"
viewBox="0 0 4000 6000"
 xmlns:xlink="http://www.w3.org/1999/xlink">
 <defs>
  <style type="text/css">
   <![CDATA[
    .str0 {stroke:#332C2B;stroke-width:10}
    .fil0 {fill:none}
   ]]>
  </style>
 </defs>
 <g id="图层_x0020_1">
  <metadata id="CorelCorpID_0Corel-Layer"/>
  <g id="_2297425969920">
   <path class="fil0 str0" d="M962 5215l1902 0c96,0 174,-79 174,-175l0 -4215c0,-96 -78,-175 -174,-175l-1698 0c-97,0 -175,79 -175,175l0 4215c0,96 78,175 175,175 96,0 195,49 195,135"/>
   <path class="fil0 str0" d="M1973 762c0,-19 2,-73 36,-73 33,0 61,27 61,61 0,33 -28,61 -61,61 -34,0 -61,-28 -61,-61 0,-34 27,-61 61,-61"/>
  </g>
 </g>
</svg>
