<?xml version="1.0" encoding="UTF-8"?>
<!DOCTYPE svg PUBLIC "-//W3C//DTD SVG 1.1//EN" "http://www.w3.org/Graphics/SVG/1.1/DTD/svg11.dtd">
<!-- Creator: CorelDRAW X8 -->
<svg xmlns="http://www.w3.org/2000/svg" xml:space="preserve" width="40mm" height="60mm" version="1.1" style="shape-rendering:geometricPrecision; text-rendering:geometricPrecision; image-rendering:optimizeQuality; fill-rule:evenodd; clip-rule:evenodd"
viewBox="0 0 4000 6000"
 xmlns:xlink="http://www.w3.org/1999/xlink">
 <defs>
  <style type="text/css">
   <![CDATA[
    .str0 {stroke:black;stroke-width:7.62}
    .fil0 {fill:none}
   ]]>
  </style>
 </defs>
 <g id="图层_x0020_1">
  <metadata id="CorelCorpID_0Corel-Layer"/>
  <path class="fil0 str0" d="M1630 1662c-23,6 -42,19 -42,76l0 49c0,26 21,47 47,47l0 0c26,0 47,-21 47,-47l0 -534c0,-26 -21,-47 -47,-47l0 0c-26,0 -47,21 -47,47l0 485m-242 -1052l288 0c80,0 146,66 146,146l0 1037c0,80 -66,146 -146,146l-288 0c80,0 146,-66 146,-146l0 -1038c0,-79 -66,-145 -146,-145zm-111 132c-1,-18 -17,-34 -50,-37 -116,0 -210,94 -210,211 0,116 94,210 210,210 116,0 211,-94 211,-210 0,-117 -95,-211 -211,-211m31 473c-1,-9 -10,-19 -28,-20 -64,0 -117,52 -117,117 0,64 53,117 117,117 65,0 117,-53 117,-117 0,-65 -52,-117 -117,-117m49 302c-1,-18 -16,-34 -49,-37 -114,0 -207,93 -207,207 0,115 93,208 207,208 115,0 208,-93 208,-208 0,-114 -93,-207 -208,-207m-143 -778l290 0c67,0 122,55 122,122l0 1003c0,67 -55,122 -122,122l-290 0c-67,0 -122,-55 -122,-122l0 -1003c0,-67 55,-122 122,-122zm-28 -64l640 0c89,0 162,73 162,162l0 1077c0,89 -73,162 -162,162l-640 0c-90,0 -163,-73 -163,-162l0 -1077c0,-89 73,-162 163,-162zm1940 999c-24,6 -42,19 -42,76l0 49c0,25 21,46 47,46l0 0c25,0 46,-21 46,-46l0 -535c0,-26 -21,-47 -46,-47l0 0c-26,0 -47,21 -47,47l0 486m-242 -1052l288 0c80,0 145,65 145,145l0 1037c0,80 -65,146 -145,146l-288 0c80,0 145,-65 145,-145l0 -1038c0,-80 -65,-145 -145,-145zm-112 132c-1,-18 -17,-35 -49,-37 -116,0 -211,94 -211,210 0,116 95,210 211,210 116,0 210,-94 210,-210 0,-116 -94,-210 -210,-210m30 473c0,-10 -9,-19 -27,-21 -65,0 -117,53 -117,117 0,65 52,117 117,117 64,0 117,-52 117,-117 0,-64 -53,-117 -117,-117m49 302c-1,-17 -17,-34 -49,-36 -115,0 -207,92 -207,207 0,114 92,207 207,207 114,0 207,-93 207,-207 0,-115 -93,-207 -207,-207m-143 -779l290 0c67,0 122,55 122,122l0 1004c0,67 -55,122 -122,122l-290 0c-67,0 -122,-55 -122,-122l0 -1004c0,-67 55,-122 122,-122zm-29 -64l640 0c90,0 163,73 163,162l0 1077c0,89 -73,163 -163,163l-640 0c-89,0 -162,-74 -162,-163l0 -1077c0,-89 73,-162 162,-162zm-713 2656c-23,6 -42,19 -42,76l0 49c0,26 21,47 47,47l0 0c26,0 47,-21 47,-47l0 -535c0,-25 -21,-46 -47,-46l0 0c-26,0 -47,21 -47,46l0 486m-242 -1052l288 0c80,0 146,66 146,146l0 1037c0,80 -66,145 -146,145l-288 0c80,0 146,-65 146,-145l0 -1038c0,-80 -66,-145 -146,-145zm-111 132c-1,-18 -17,-35 -50,-37 -116,0 -210,94 -210,210 0,117 94,211 210,211 116,0 211,-94 211,-211 0,-116 -95,-210 -211,-210m31 473c-1,-10 -10,-19 -28,-20 -64,0 -117,52 -117,117 0,64 53,116 117,116 65,0 117,-52 117,-116 0,-65 -52,-117 -117,-117m49 301c-1,-17 -16,-34 -49,-36 -114,0 -207,93 -207,207 0,115 93,207 207,207 115,0 208,-92 208,-207 0,-114 -93,-207 -208,-207m-143 -778l290 0c67,0 122,55 122,122l0 1003c0,67 -55,122 -122,122l-290 0c-67,0 -122,-55 -122,-122l0 -1003c0,-67 55,-122 122,-122zm-28 -65l640 0c89,0 162,73 162,163l0 1076c0,90 -73,163 -162,163l-640 0c-90,0 -163,-73 -163,-163l0 -1076c0,-90 73,-163 163,-163zm1940 999c-24,7 -42,19 -42,76l0 49c0,26 21,47 47,47l0 0c25,0 46,-21 46,-47l0 -534c0,-26 -21,-47 -46,-47l0 0c-26,0 -47,21 -47,47l0 485m-242 -1052l288 0c80,0 145,66 145,146l0 1037c0,80 -65,146 -145,146l-288 0c80,0 145,-66 145,-145l0 -1038c0,-80 -65,-146 -145,-146zm-112 132c-1,-17 -17,-34 -49,-37 -116,0 -211,95 -211,211 0,116 95,210 211,210 116,0 210,-94 210,-210 0,-116 -94,-211 -210,-211m30 474c0,-10 -9,-20 -27,-21 -65,0 -117,52 -117,117 0,65 52,117 117,117 64,0 117,-52 117,-117 0,-65 -53,-117 -117,-117m49 302c-1,-18 -17,-34 -49,-37 -115,0 -207,93 -207,208 0,114 92,207 207,207 114,0 207,-93 207,-207 0,-115 -93,-208 -207,-208m-143 -778l290 0c67,0 122,55 122,122l0 1003c0,67 -55,122 -122,122l-290 0c-67,0 -122,-55 -122,-122l0 -1003c0,-67 55,-122 122,-122zm-29 -64l640 0c90,0 163,73 163,162l0 1077c0,89 -73,162 -163,162l-640 0c-89,0 -162,-73 -162,-162l0 -1077c0,-89 73,-162 162,-162zm-713 2660c-23,6 -42,19 -42,76l0 49c0,26 21,47 47,47l0 0c26,0 47,-21 47,-47l0 -534c0,-26 -21,-47 -47,-47l0 0c-26,0 -47,21 -47,47l0 485m-242 -1052l288 0c80,0 146,66 146,146l0 1037c0,80 -66,146 -146,146l-288 0c80,0 146,-66 146,-146l0 -1038c0,-80 -66,-145 -146,-145zm-111 132c-1,-18 -17,-34 -50,-37 -116,0 -210,94 -210,210 0,117 94,211 210,211 116,0 211,-94 211,-211 0,-116 -95,-210 -211,-210m31 473c-1,-10 -10,-19 -28,-20 -64,0 -117,52 -117,117 0,64 53,117 117,117 65,0 117,-53 117,-117 0,-65 -52,-117 -117,-117m49 302c-1,-18 -16,-34 -49,-37 -114,0 -207,93 -207,207 0,115 93,208 207,208 115,0 208,-93 208,-208 0,-114 -93,-207 -208,-207m-143 -778l290 0c67,0 122,55 122,122l0 1003c0,67 -55,122 -122,122l-290 0c-67,0 -122,-55 -122,-122l0 -1003c0,-67 55,-122 122,-122zm-28 -65l640 0c89,0 162,74 162,163l0 1077c0,89 -73,162 -162,162l-640 0c-90,0 -163,-73 -163,-162l0 -1077c0,-89 73,-163 163,-163zm1940 999c-24,7 -42,19 -42,77l0 49c0,25 21,46 47,46l0 0c25,0 46,-21 46,-46l0 -535c0,-26 -21,-47 -46,-47l0 0c-26,0 -47,21 -47,47l0 486m-242 -1053l288 0c80,0 145,66 145,146l0 1037c0,80 -65,146 -145,146l-288 0c80,0 145,-65 145,-145l0 -1038c0,-80 -65,-146 -145,-146zm-112 133c-1,-18 -17,-35 -49,-37 -116,0 -211,94 -211,210 0,116 95,210 211,210 116,0 210,-94 210,-210 0,-116 -94,-210 -210,-210m30 473c0,-10 -9,-19 -27,-21 -65,0 -117,53 -117,117 0,65 52,117 117,117 64,0 117,-52 117,-117 0,-64 -53,-117 -117,-117m49 302c-1,-18 -17,-34 -49,-37 -115,0 -207,93 -207,208 0,114 92,207 207,207 114,0 207,-93 207,-207 0,-115 -93,-208 -207,-208m-143 -778l290 0c67,0 122,55 122,122l0 1003c0,68 -55,122 -122,122l-290 0c-67,0 -122,-54 -122,-122l0 -1003c0,-67 55,-122 122,-122zm-29 -64l640 0c90,0 163,73 163,162l0 1077c0,89 -73,162 -163,162l-640 0c-89,0 -162,-73 -162,-162l0 -1077c0,-89 73,-162 162,-162z"/>
 </g>
</svg>
