<?xml version="1.0" encoding="UTF-8"?>
<!DOCTYPE svg PUBLIC "-//W3C//DTD SVG 1.1//EN" "http://www.w3.org/Graphics/SVG/1.1/DTD/svg11.dtd">
<!-- Creator: CorelDRAW X8 -->
<svg xmlns="http://www.w3.org/2000/svg" xml:space="preserve" width="40mm" height="60mm" version="1.1" style="shape-rendering:geometricPrecision; text-rendering:geometricPrecision; image-rendering:optimizeQuality; fill-rule:evenodd; clip-rule:evenodd"
viewBox="0 0 4000 6000"
 xmlns:xlink="http://www.w3.org/1999/xlink">
 <defs>
  <style type="text/css">
   <![CDATA[
    .str0 {stroke:black;stroke-width:7.62}
    .fil0 {fill:none}
   ]]>
  </style>
 </defs>
 <g id="图层_x0020_1">
  <metadata id="CorelCorpID_0Corel-Layer"/>
  <path class="fil0 str0" d="M1004 5350l1847 0c111,0 202,-91 202,-201l0 -4298c0,-110 -91,-201 -202,-201l-701 0c-27,0 -59,11 -58,45l0 39c0,51 -42,92 -92,92l0 0c-50,0 -92,-41 -92,-92l0 -29c0,-39 -23,-55 -62,-55l-697 0c-111,0 -202,91 -202,201l0 4298c0,110 91,201 202,201l85 0"/>
 </g>
</svg>
