<?xml version="1.0" encoding="UTF-8"?>
<!DOCTYPE svg PUBLIC "-//W3C//DTD SVG 1.1//EN" "http://www.w3.org/Graphics/SVG/1.1/DTD/svg11.dtd">
<!-- Creator: CorelDRAW 2020 (64-Bit) -->
<svg xmlns="http://www.w3.org/2000/svg" xml:space="preserve" width="40mm" height="60mm" version="1.1" style="shape-rendering:geometricPrecision; text-rendering:geometricPrecision; image-rendering:optimizeQuality; fill-rule:evenodd; clip-rule:evenodd"
viewBox="0 0 4000 6000"
 xmlns:xlink="http://www.w3.org/1999/xlink"
 xmlns:xodm="http://www.corel.com/coreldraw/odm/2003">
 <defs>
  <style type="text/css">
   <![CDATA[
    .str1 {stroke:#332C2B;stroke-width:20;stroke-miterlimit:22.9256}
    .str0 {stroke:#E62129;stroke-width:20;stroke-miterlimit:22.9256}
    .fil0 {fill:none}
   ]]>
  </style>
   <clipPath id="id0">
    <rect x="-55686.31" y="-6179.46" width="12687.8" height="16724.85"/>
   </clipPath>
 </defs>
 <g id="图层_x0020_1">
  <metadata id="CorelCorpID_0Corel-Layer"/>
  <g style="clip-path:url(#id0)">
   <image x="-55686.31" y="-6179.46" width="12687.8" height="16724.85" xlink:href="T10 -11i（前膜全屏）_Images\T10 -11i（前膜全屏）_ImgID1.png"/>
  </g>
  <rect class="fil0 str0" x="-50740.47" y="-6008.54" width="7580" height="16390"/>
  <path class="fil0 str0" d="M-49666.85 -5818.04l1721.08 0c65,0 54.68,99.46 112.27,99.46l392.27 0c139.13,0 123.9,115.77 123.9,182.58 0,195.35 158.37,353.72 353.72,353.72 195.35,0 353.72,-158.37 353.72,-353.72 0,-66.81 -2.65,-182.58 119.28,-182.58l405.96 0c57.59,0 61.16,-99.46 112.27,-99.46l1738.29 0c495,0 900,405.01 900,900l0 14240.26c0,495 -405,900 -900,900l-5432.76 0c-495,0 -900,-405 -900,-900l0 -14240.26c0,-495 405,-900 900,-900z"/>
  <path class="fil0 str1" d="M-4277.46 5514.74l0 -5862.72c0,-494.98 -405.02,-900 -900,-900l-14240.26 0c-494.99,0 -900,405 -900,900l0 1738.29c0,51.11 99.46,54.68 99.46,112.27l0 405.96c0,121.93 115.77,119.28 182.58,119.28 195.35,0 353.72,158.37 353.72,353.72 0,195.35 -158.37,353.72 -353.72,353.72 -66.81,0 -182.58,-15.23 -182.58,123.9l0 392.27c0,57.59 -99.46,47.27 -99.46,112.27l0 1721.08c0,495 405,900 900,900l14240.26 0c495,0 900,-405 900,-900 0,-495 42.9,-804.27 163.28,-956.41"/>
  <path class="fil0 str1" d="M1080.24 5303.17l1700.54 0c143.58,0 261.05,-117.48 261.05,-261.06l0 -4130.53c0,-143.57 -117.47,-261.05 -261.05,-261.05l-504.21 0c-14.82,0 -15.86,28.85 -32.56,28.85l-117.75 0c-35.37,0 -34.6,33.58 -34.6,52.96 0,56.66 -45.94,102.6 -102.6,102.6 -56.66,0 -102.6,-45.94 -102.6,-102.6 0,-19.38 4.42,-52.96 -35.94,-52.96l-113.78 0c-16.71,0 -13.71,-28.85 -32.57,-28.85l-499.21 0c-143.58,0 -261.05,117.47 -261.05,261.05l0 4130.53c0,143.58 117.47,261.06 261.05,261.06 143.58,0 233.28,12.44 277.41,47.36"/>
 </g>
</svg>
