<?xml version="1.0" encoding="UTF-8"?>
<!DOCTYPE svg PUBLIC "-//W3C//DTD SVG 1.1//EN" "http://www.w3.org/Graphics/SVG/1.1/DTD/svg11.dtd">
<!-- Creator: CorelDRAW 2020 (64-Bit) -->
<svg xmlns="http://www.w3.org/2000/svg" xml:space="preserve" width="40mm" height="60mm" version="1.1" style="shape-rendering:geometricPrecision; text-rendering:geometricPrecision; image-rendering:optimizeQuality; fill-rule:evenodd; clip-rule:evenodd"
viewBox="0 0 4000 6000"
 xmlns:xlink="http://www.w3.org/1999/xlink"
 xmlns:xodm="http://www.corel.com/coreldraw/odm/2003">
 <defs>
  <style type="text/css">
   <![CDATA[
    .str0 {stroke:black;stroke-width:7.62;stroke-miterlimit:22.9256}
    .fil0 {fill:none}
   ]]>
  </style>
 </defs>
 <g id="图层_x0020_1">
  <metadata id="CorelCorpID_0Corel-Layer"/>
  <path class="fil0 str0" d="M1053.36 5338.89l1738.39 0c127.89,0 232.55,-104.66 232.55,-232.54l0 -4218.13c0,-127.87 -104.65,-232.55 -232.55,-232.55l-401.07 0 -305.97 0.02c-17.82,0 -32.4,14.55 -32.4,32.4l0 50.94c0,32.4 -26.51,58.91 -58.91,58.91l0 0c-32.4,0 -58.91,-26.55 -58.91,-58.91l0 -50.94c0,-17.81 -14.58,-32.4 -32.4,-32.4l-301.43 -0.02 -209.28 0c-4.86,0 -8.83,3.97 -8.83,8.84l0 0.91c0,9.11 -7.45,16.56 -16.56,16.56l-105.32 0c-9.11,0 -16.56,-7.46 -16.56,-16.56l0 -0.91c0,-4.86 -3.97,-8.84 -8.83,-8.84l-40.24 0c-127.9,0 -232.54,104.65 -232.54,232.55l0 4218.13c0,127.9 104.66,232.54 232.54,232.54l42.43 0c65.58,0 104.22,5.97 115.93,16.78"/>
 </g>
</svg>
