<?xml version="1.0" encoding="UTF-8"?>
<!DOCTYPE svg PUBLIC "-//W3C//DTD SVG 1.1//EN" "http://www.w3.org/Graphics/SVG/1.1/DTD/svg11.dtd">
<!-- Creator: CorelDRAW X8 -->
<svg xmlns="http://www.w3.org/2000/svg" xml:space="preserve" width="40mm" height="60mm" version="1.1" style="shape-rendering:geometricPrecision; text-rendering:geometricPrecision; image-rendering:optimizeQuality; fill-rule:evenodd; clip-rule:evenodd"
viewBox="0 0 4000 6000"
 xmlns:xlink="http://www.w3.org/1999/xlink">
 <defs>
  <style type="text/css">
   <![CDATA[
    .str0 {stroke:black;stroke-width:20}
    .fil0 {fill:none}
   ]]>
  </style>
 </defs>
 <g id="图层_x0020_1">
  <metadata id="CorelCorpID_0Corel-Layer"/>
  <path class="fil0 str0" d="M3266 923c-51,0 -102,0 -153,0 -9,0 -14,-9 -14,-15 0,-142 -116,-258 -258,-258l-189 0 -1304 0 -189 0c-142,0 -258,116 -258,258 0,7 -6,15 -16,15l-151 0c-67,0 -121,54 -121,121l0 3912c0,67 54,121 121,121 50,0 99,0 149,0 8,0 18,7 18,15 0,142 116,258 258,258l235 0 1212 0 235 0c142,0 258,-116 258,-258 0,-8 8,-15 18,-15l149 0c67,0 121,-54 121,-121l0 -3912c0,-67 -54,-121 -121,-121zm-80 889l0 0c19,0 34,16 34,35l0 537c0,19 -15,34 -34,34l0 0c-20,0 -35,-15 -35,-34l0 -537c0,-19 15,-35 35,-35zm0 728l0 0c19,0 34,15 34,35l0 263c0,20 -15,35 -34,35l0 0c-20,0 -35,-15 -35,-35l0 -263c0,-20 15,-35 35,-35zm-1974 -1769c29,0 53,24 53,53 0,30 -24,53 -53,53 -30,0 -53,-23 -53,-53 0,-29 23,-53 53,-53z"/>
 </g>
</svg>
