<?xml version="1.0" encoding="UTF-8"?>
<!DOCTYPE svg PUBLIC "-//W3C//DTD SVG 1.1//EN" "http://www.w3.org/Graphics/SVG/1.1/DTD/svg11.dtd">
<!-- Creator: CorelDRAW X8 -->
<svg xmlns="http://www.w3.org/2000/svg" xml:space="preserve" width="40mm" height="60mm" version="1.1" style="shape-rendering:geometricPrecision; text-rendering:geometricPrecision; image-rendering:optimizeQuality; fill-rule:evenodd; clip-rule:evenodd"
viewBox="0 0 4000 6000"
 xmlns:xlink="http://www.w3.org/1999/xlink">
 <defs>
  <style type="text/css">
   <![CDATA[
    .str0 {stroke:#332C2B;stroke-width:20}
    .fil0 {fill:none}
   ]]>
  </style>
 </defs>
 <g id="图层_x0020_1">
  <metadata id="CorelCorpID_0Corel-Layer"/>
  <path class="fil0 str0" d="M3169 1855c-39,0 -37,-36 -37,-36l2 -519c-5,-34 20,-41 20,-41l98 0 0 -151 -186 -1c30,-243 -172,-270 -172,-270l-131 -2 0 -20 520 24c19,1 18,-17 18,-17l12 -125c7,-21 -15,-22 -15,-22l-179 -16 -652 -3 -1 62 7 15 0 33c5,4 -22,68 -81,56 -59,-11 -63,-55 -63,-55l0 -36 11 -21 0 -55 -1641 -5c-20,1 -16,16 -16,16l13 133c1,20 19,17 19,17l524 -12 0 20 -132 0c-227,31 -186,268 -186,268l-175 1 -2 576 74 0c31,0 33,33 33,33l1 555c-1,26 -31,31 -31,31l-75 0 -1 167 70 3c40,0 37,37 37,37l-1 184c6,29 -28,31 -28,31l-77 0 0 2161 175 3c-23,259 189,275 189,275l130 2 2 17c0,0 -514,-19 -529,-21 -16,-1 -15,15 -15,15l-12 130c-11,42 26,33 26,33l177 9 338 3 0 -117 259 3 0 116 388 4 -1 -134c-2,-25 17,-23 17,-23l207 2c28,-7 26,17 26,17l1 138 393 4 0 -113 255 -1 0 115 254 2 113 0 155 -11c23,-1 23,-16 23,-16l-16 -144c-2,-22 -31,-19 -31,-19l-505 19 0 -17c360,39 299,-275 299,-275l3 0 186 2 -2 -3034 -82 0m-1468 -509l0 52c0,19 -16,34 -35,34l-59 0c-19,0 -35,-15 -35,-34l0 -52c0,-19 16,-35 35,-35l59 0c19,0 35,16 35,35zm504 -42l0 151c0,72 -60,130 -133,130l-143 0c-73,0 -133,-58 -133,-130l0 -151c0,-72 60,-131 133,-131l143 0c73,0 133,59 133,131zm-32 487l0 156c0,46 -37,84 -83,84l-177 0c-46,0 -83,-38 -83,-84l0 -156c0,-47 37,-85 83,-85l177 0c46,0 83,38 83,85zm-886 -1107l0 56c0,2 -2,4 -4,4l-57 0c-2,0 -4,-2 -4,-4l0 -56c0,-2 2,-4 4,-4l57 0c2,0 4,2 4,4z"/>
 </g>
</svg>
