<?xml version="1.0" encoding="UTF-8"?>
<!DOCTYPE svg PUBLIC "-//W3C//DTD SVG 1.1//EN" "http://www.w3.org/Graphics/SVG/1.1/DTD/svg11.dtd">
<!-- Creator: CorelDRAW X8 -->
<svg xmlns="http://www.w3.org/2000/svg" xml:space="preserve" width="40mm" height="60mm" version="1.1" style="shape-rendering:geometricPrecision; text-rendering:geometricPrecision; image-rendering:optimizeQuality; fill-rule:evenodd; clip-rule:evenodd"
viewBox="0 0 4000 6000"
 xmlns:xlink="http://www.w3.org/1999/xlink">
 <defs>
  <style type="text/css">
   <![CDATA[
    .str0 {stroke:black;stroke-width:7.62}
    .fil0 {fill:none}
   ]]>
  </style>
 </defs>
 <g id="图层_x0020_1">
  <metadata id="CorelCorpID_0Corel-Layer"/>
  <path class="fil0 str0" d="M1929 1110l178 0c73,0 133,59 133,132l0 187c0,73 -60,133 -133,133l-178 0c-73,0 -133,-60 -133,-133l0 -187c0,-73 60,-132 133,-132zm-341 206c-20,5 -35,12 -35,46l0 29c0,39 33,72 72,72l0 0c39,0 72,-33 72,-72l0 -111c0,-40 -33,-72 -72,-72l0 0c-39,0 -72,32 -72,72l0 82m401 3662c-6,-20 -17,-37 -67,-37l-43 0c-23,0 -42,19 -42,42l0 0c0,22 19,41 42,41l380 0c23,0 41,-19 41,-41l0 0c0,-23 -18,-42 -41,-42l-337 0m-903 363l1886 0c138,0 251,-113 251,-251l0 -4198c0,-138 -113,-251 -251,-251l-1740 0c-138,0 -251,113 -251,251l0 4198c0,138 113,251 251,251l77 0"/>
 </g>
</svg>
