<?xml version="1.0" encoding="UTF-8"?>
<!DOCTYPE svg PUBLIC "-//W3C//DTD SVG 1.1//EN" "http://www.w3.org/Graphics/SVG/1.1/DTD/svg11.dtd">
<!-- Creator: CorelDRAW -->
<svg xmlns="http://www.w3.org/2000/svg" xml:space="preserve" width="40mm" height="60mm" style="shape-rendering:geometricPrecision; text-rendering:geometricPrecision; image-rendering:optimizeQuality; fill-rule:evenodd; clip-rule:evenodd"
viewBox="0 0 40 60"
 xmlns:xlink="http://www.w3.org/1999/xlink">
 <defs>
  <style type="text/css">
   <![CDATA[
    .str0 {stroke:#1F1A17;stroke-width:0.194}
    .str1 {stroke:#1F1A17;stroke-width:0.194}
    .str2 {stroke:#1F1A17;stroke-width:0.2}
    .fil0 {fill:none}
    .fil1 {fill:none;fill-rule:nonzero}
   ]]>
  </style>
 </defs>
 <g id="图层_x0020_1">
  <metadata id="CorelCorpID_0Corel-Layer"/>
  <path class="fil0 str0" d="M8.7259 6.873c0.344,-0.306 0.4077,-0.3183 1.585,-0.3227l19.3585 -0.0493c1.1971,-0.0029 1.2608,0.0095 1.6048,0.3155 0.2641,0.2341 0.4429,0.5882 0.558,0.893l0.0087 44.5799c-0.0607,0.2785 -0.2698,0.6166 -0.5339,0.8507 -0.344,0.306 -0.4077,0.3184 -1.6349,0.3184l-19.3207 0.0357c-1.2507,0.0208 -1.3143,0.0084 -1.6583,-0.2976 -0.2642,-0.234 -0.4732,-0.5722 -0.534,-0.8507l0.0087 -44.5799c0.1152,-0.3047 0.2939,-0.6589 0.5581,-0.893"/>
  <line class="fil1 str1" x1="20.5794" y1="7.7705" x2="20.5794" y2= "7.8653" />
  <polyline class="fil1 str1" points="20.6664,7.8173 20.682,7.7627 22.3803,7.7783 "/>
  <path class="fil1 str1" d="M22.3803 7.7783c0.1316,0.01 0.1696,0.0279 0.2655,0.1238 0.0748,0.0748 0.1116,0.1797 0.1116,0.3147 0,0.2377 -0.1283,0.4039 -0.3392,0.4396 -0.1339,0.0235 -0.9306,0.0402 -1.8601,0.0402 -1.2039,0 -1.6313,-0.0145 -1.8522,-0.0647 -0.221,-0.0491 -0.2868,-0.1462 -0.2868,-0.4174 0,-0.3514 0.1629,-0.4496 0.7487,-0.4485"/>
  <line class="fil1 str1" x1="19.1678" y1="7.766" x2="20.8795" y2= "7.7705" />
  <path class="fil1 str1" d="M16.4273 7.6678c0.0424,-0.0011 0.0815,-0.0011 0.1183,-0.0011 0.4408,0 0.5546,0.0301 0.7141,0.1908 0.1172,0.1172 0.183,0.2745 0.183,0.4374 0,0.202 -0.0993,0.3917 -0.2678,0.5133 -0.1406,0.1027 -0.2678,0.1205 -0.8201,0.1205 -0.5501,0 -0.6985,-0.0491 -0.8603,-0.2868 -0.0681,-0.1015 -0.106,-0.2231 -0.106,-0.347 0,-0.3515 0.2633,-0.607 0.6438,-0.6249"/>
  <line class="fil1 str1" x1="16.0323" y1="7.67" x2="16.7286" y2= "7.6678" />
  <ellipse class="fil0 str2" cx="13.86" cy="8.3224" rx="0.7473" ry="0.7726"/>
 </g>
</svg>
