<?xml version="1.0" encoding="UTF-8"?>
<!DOCTYPE svg PUBLIC "-//W3C//DTD SVG 1.1//EN" "http://www.w3.org/Graphics/SVG/1.1/DTD/svg11.dtd">
<!-- Creator: CorelDRAW X8 -->
<svg xmlns="http://www.w3.org/2000/svg" xml:space="preserve" width="40mm" height="60mm" version="1.1" style="shape-rendering:geometricPrecision; text-rendering:geometricPrecision; image-rendering:optimizeQuality; fill-rule:evenodd; clip-rule:evenodd"
viewBox="0 0 4000 6000"
 xmlns:xlink="http://www.w3.org/1999/xlink">
 <defs>
  <style type="text/css">
   <![CDATA[
    .str0 {stroke:black;stroke-width:7.62}
    .fil0 {fill:none}
   ]]>
  </style>
 </defs>
 <g id="图层_x0020_1">
  <metadata id="CorelCorpID_0Corel-Layer"/>
  <path class="fil0 str0" d="M1005 5350l1837 0c106,0 193,-86 193,-192l0 -4316c0,-106 -87,-192 -193,-192l-1684 0c-106,0 -193,86 -193,192l0 4316c0,106 87,192 193,192l316 0m-128 -4527l570 0c106,0 192,87 192,193l0 999c0,105 -86,192 -192,192l-570 0c-106,0 -192,-87 -192,-192l0 -999c0,-106 86,-193 192,-193zm10 57l532 0c81,0 148,66 148,147l0 976c0,81 -67,148 -148,148l-532 0c-81,0 -148,-67 -148,-148l0 -976c0,-81 67,-147 148,-147zm107 82c-1,-14 -13,-27 -38,-29 -90,0 -163,73 -163,163 0,90 73,163 163,163 89,0 162,-73 162,-163 0,-90 -73,-163 -162,-163m38 458c-1,-14 -13,-27 -38,-29 -90,0 -163,73 -163,163 0,89 73,162 163,162 89,0 162,-73 162,-162 0,-90 -73,-163 -162,-163m448 32c-1,-14 -13,-27 -38,-29 -90,0 -163,73 -163,163 0,89 73,162 163,162 90,0 163,-73 163,-162 0,-90 -73,-163 -163,-163m33 485c-1,-11 -11,-21 -30,-22 -69,0 -126,56 -126,125 0,70 57,126 126,126 69,0 126,-56 126,-126 0,-69 -57,-125 -126,-125m-384 22c0,-11 -10,-21 -29,-22 -70,0 -126,56 -126,125 0,70 56,126 126,126 69,0 125,-56 125,-126 0,-69 -56,-125 -125,-125m426 -602c0,-5 -4,-10 -14,-10 -32,0 -59,26 -59,59 0,32 27,59 59,59 33,0 59,-27 59,-59 0,-33 -26,-59 -59,-59"/>
 </g>
</svg>
