<?xml version="1.0" encoding="UTF-8"?>
<!DOCTYPE svg PUBLIC "-//W3C//DTD SVG 1.1//EN" "http://www.w3.org/Graphics/SVG/1.1/DTD/svg11.dtd">
<!-- Creator: CorelDRAW X8 -->
<svg xmlns="http://www.w3.org/2000/svg" xml:space="preserve" width="40mm" height="60mm" version="1.1" style="shape-rendering:geometricPrecision; text-rendering:geometricPrecision; image-rendering:optimizeQuality; fill-rule:evenodd; clip-rule:evenodd"
viewBox="0 0 4000 6000"
 xmlns:xlink="http://www.w3.org/1999/xlink">
 <defs>
  <style type="text/css">
   <![CDATA[
    .str0 {stroke:black;stroke-width:7.62}
    .fil0 {fill:none}
   ]]>
  </style>
 </defs>
 <g id="图层_x0020_1">
  <metadata id="CorelCorpID_0Corel-Layer"/>
  <path class="fil0 str0" d="M1017 710c219,-26 424,-49 646,-60 5,0 9,0 13,5l31 39c4,5 9,6 15,6l542 1c6,0 7,0 12,-7l29 -37c5,-6 7,-7 15,-6 234,12 432,37 663,59 96,9 175,78 175,174l0 4220c0,96 -80,162 -175,174 -326,43 -648,72 -982,72 -334,0 -658,-33 -984,-72 -96,-11 -175,-78 -175,-174l0 -4220c0,-96 79,-163 175,-174zm1757 68c0,-5 -4,-9 -13,-10 -30,0 -55,24 -55,55 0,30 25,54 55,54 30,0 55,-24 55,-54 0,-31 -25,-55 -55,-55m-238 37c-3,-10 -7,-18 -26,-18l-15 0c-22,0 -39,17 -39,39l0 0c0,21 17,39 39,39l78 0c22,0 39,-18 39,-39l0 0c0,-22 -17,-39 -39,-39l-63 0"/>
 </g>
</svg>
