<?xml version="1.0" encoding="UTF-8"?>
<!DOCTYPE svg PUBLIC "-//W3C//DTD SVG 1.1//EN" "http://www.w3.org/Graphics/SVG/1.1/DTD/svg11.dtd">
<!-- Creator: CorelDRAW X8 -->
<svg xmlns="http://www.w3.org/2000/svg" xml:space="preserve" width="40mm" height="60mm" version="1.1" style="shape-rendering:geometricPrecision; text-rendering:geometricPrecision; image-rendering:optimizeQuality; fill-rule:evenodd; clip-rule:evenodd"
viewBox="0 0 4000 6000"
 xmlns:xlink="http://www.w3.org/1999/xlink">
 <defs>
  <style type="text/css">
   <![CDATA[
    .str0 {stroke:black;stroke-width:7.62}
    .fil0 {fill:none}
   ]]>
  </style>
 </defs>
 <g id="图层_x0020_1">
  <metadata id="CorelCorpID_0Corel-Layer"/>
  <path class="fil0 str0" d="M1323 791c-5,-19 -12,-33 -45,-33l-28 0c-38,0 -70,31 -70,69l0 0c0,39 32,70 70,70l293 0c39,0 70,-31 70,-70l0 0c0,-38 -31,-69 -70,-69l-265 0m-258 4554l1825 0c142,0 259,-116 259,-259l0 -4144c0,-142 -117,-259 -259,-259l-557 0c-3,0 -5,1 -6,3l-4 3c-2,2 -4,3 -6,3l-545 0c-2,0 -4,-1 -6,-3l-4 -3c-1,-2 -3,-3 -6,-3l-556 0c-142,0 -259,116 -259,259l0 4144c0,143 117,259 259,259l76 0c130,0 198,20 210,38"/>
 </g>
</svg>
