<?xml version="1.0" encoding="UTF-8"?>
<!DOCTYPE svg PUBLIC "-//W3C//DTD SVG 1.1//EN" "http://www.w3.org/Graphics/SVG/1.1/DTD/svg11.dtd">
<!-- Creator: CorelDRAW X8 -->
<svg xmlns="http://www.w3.org/2000/svg" xml:space="preserve" width="40mm" height="60mm" version="1.1" style="shape-rendering:geometricPrecision; text-rendering:geometricPrecision; image-rendering:optimizeQuality; fill-rule:evenodd; clip-rule:evenodd"
viewBox="0 0 4000 6000"
 xmlns:xlink="http://www.w3.org/1999/xlink">
 <defs>
  <style type="text/css">
   <![CDATA[
    .str0 {stroke:#332C2B;stroke-width:7.62}
    .fil0 {fill:none}
   ]]>
  </style>
 </defs>
 <g id="图层_x0020_1">
  <metadata id="CorelCorpID_0Corel-Layer"/>
  <path class="fil0 str0" d="M867 5231l2046 0c121,0 220,-99 220,-220l0 -4141c0,-121 -99,-220 -220,-220l-1769 0c-121,0 -221,99 -221,220l0 4141c0,121 100,220 221,220 121,0 261,51 261,119m223 -4493c-23,-40 -20,-103 18,-103 39,0 71,32 71,70 0,39 -32,70 -71,70 -38,0 -70,-31 -70,-70 0,-38 32,-70 70,-70m366 80c0,-36 -116,-47 -135,-47 -18,0 -34,16 -34,34l0 0c0,19 16,34 34,34l287 0c19,0 34,-15 34,-34l0 0c0,-18 -15,-34 -34,-34l-287 0m461 53c0,-51 -34,-56 -56,-56 -21,0 -39,18 -39,39l0 0c0,22 18,39 39,39l66 0c22,0 39,-17 39,-39l0 0c0,-21 -17,-39 -39,-39l-66 0"/>
 </g>
</svg>
