<?xml version="1.0" encoding="UTF-8"?>
<!DOCTYPE svg PUBLIC "-//W3C//DTD SVG 1.1//EN" "http://www.w3.org/Graphics/SVG/1.1/DTD/svg11.dtd">
<!-- Creator: CorelDRAW 2020 (64-Bit) -->
<svg xmlns="http://www.w3.org/2000/svg" xml:space="preserve" width="40mm" height="60mm" version="1.1" style="shape-rendering:geometricPrecision; text-rendering:geometricPrecision; image-rendering:optimizeQuality; fill-rule:evenodd; clip-rule:evenodd"
viewBox="0 0 4000 6000"
 xmlns:xlink="http://www.w3.org/1999/xlink"
 xmlns:xodm="http://www.corel.com/coreldraw/odm/2003">
 <defs>
  <style type="text/css">
   <![CDATA[
    .str1 {stroke:#332C2B;stroke-width:20;stroke-miterlimit:22.9256}
    .str0 {stroke:#E62129;stroke-width:20;stroke-miterlimit:22.9256}
    .fil0 {fill:none}
   ]]>
  </style>
   <clipPath id="id0">
    <rect x="-40283.35" y="-5349.94" width="12231.25" height="15791.9"/>
   </clipPath>
 </defs>
 <g id="图层_x0020_1">
  <metadata id="CorelCorpID_0Corel-Layer"/>
  <g style="clip-path:url(#id0)">
   <image x="-40283.35" y="-5349.94" width="12231.25" height="15791.9" xlink:href="12X -11i（前膜带壳）2_Images\12X -11i（前膜带壳）2_ImgID1.png"/>
  </g>
  <rect class="fil0 str0" x="-35293.94" y="-4974.88" width="6990" height="15270"/>
  <path class="fil0 str0" d="M-34509 -4813.48l1520.42 0c42.04,0 80.44,52.63 113.23,52.63l802.21 0c58.14,0 54.46,65.14 54.46,101.52l0 301.62c0,125.88 102.99,228.87 228.87,228.87l0 0c125.88,0 228.87,-102.99 228.87,-228.87l0 -301.62c0,-36.4 -3.99,-101.52 56.12,-101.52l791.12 0c32.79,0 82.43,-52.63 121.83,-52.63l1502.99 0c385,0 700,315.02 700,700l0 13584.37c0,385 -315,699.99 -700,699.99l-5420.12 0c-385,0 -700,-314.99 -700,-699.99l0 -13584.37c0,-385 315,-700 700,-700z"/>
  <path class="fil0 str1" d="M-5832.1 5861.16l0 -5793.08c0,-379.34 -312.9,-689.73 -695.32,-689.73l-13493.75 0c-382.41,0 -695.33,310.38 -695.33,689.73l0 1480.95c0,38.82 52.28,87.74 52.28,120.05l0 779.51c0,59.23 64.68,55.3 100.84,55.3l299.61 0c125.04,0 227.34,101.48 227.34,225.51l0 0c0,124.04 -102.3,225.52 -227.34,225.52l-299.61 0c-36.14,0 -100.84,-3.63 -100.84,53.66l0 790.44c0,32.31 -52.28,70.15 -52.28,111.57l0 1498.13c0,379.35 312.9,689.73 695.33,689.73l13493.75 0c382.43,0 695.32,-310.38 695.32,-689.73 0,-379.35 51.94,-534.05 119.41,-653.12"/>
  <path class="fil0 str1" d="M1030.27 5320.85l1807.27 0c119.99,0 218.18,-98.18 218.18,-218.18l0 -4233.96c0,-119.99 -98.18,-218.18 -218.18,-218.18l-468.45 0c-12.28,0 -27.75,16.4 -37.97,16.4l-246.58 0c-18.73,0 -17.49,20.3 -17.49,31.65l0 94c0,39.24 -32.1,71.34 -71.33,71.34l0 0c-39.24,0 -71.34,-32.1 -71.34,-71.34l0 -94c0,-11.34 1.15,-31.65 -16.97,-31.65l-250.03 0c-10.22,0 -22.19,-16.4 -35.3,-16.4l-473.88 0c-120,0 -218.18,98.18 -218.18,218.18l0 4233.96c0,120 98.18,218.18 218.18,218.18 120,0 158.22,14.42 196.56,29.68"/>
 </g>
</svg>
