<?xml version="1.0" encoding="UTF-8"?>
<!DOCTYPE svg PUBLIC "-//W3C//DTD SVG 1.1//EN" "http://www.w3.org/Graphics/SVG/1.1/DTD/svg11.dtd">
<!-- Creator: CorelDRAW X8 -->
<svg xmlns="http://www.w3.org/2000/svg" xml:space="preserve" width="40mm" height="60mm" version="1.1" style="shape-rendering:geometricPrecision; text-rendering:geometricPrecision; image-rendering:optimizeQuality; fill-rule:evenodd; clip-rule:evenodd"
viewBox="0 0 4000 6000"
 xmlns:xlink="http://www.w3.org/1999/xlink">
 <defs>
  <style type="text/css">
   <![CDATA[
    .str0 {stroke:black;stroke-width:7.62}
    .fil0 {fill:none}
   ]]>
  </style>
 </defs>
 <g id="图层_x0020_1">
  <metadata id="CorelCorpID_0Corel-Layer"/>
  <path class="fil0 str0" d="M1405 811c-1,-8 -7,-14 -21,-16 -47,0 -86,39 -86,87 0,48 39,87 86,87 48,0 87,-39 87,-87 0,-48 -39,-87 -87,-87m488 84c-6,-25 -20,-44 -81,-44l-52 0c-27,0 -50,22 -50,50l0 0c0,27 23,49 50,49l524 0c28,0 50,-22 50,-49l0 0c0,-28 -22,-50 -50,-50l-472 0m675 -35c-3,-12 -7,-21 -28,-21l-17 0c-24,0 -43,19 -43,43l0 0c0,24 19,44 43,44l99 0c24,0 44,-20 44,-44l0 0c0,-24 -20,-43 -44,-43l-82 0m-1672 4283l0 -3911c0,-242 189,-412 441,-450 257,-38 529,-51 794,-51 265,0 534,13 792,56 248,41 441,183 441,445l0 3696c0,243 -202,409 -441,450 -265,46 -528,53 -793,53 -266,0 -531,-22 -793,-53 -241,-28 -441,-207 -441,-450l0 -112"/>
 </g>
</svg>
