<?xml version="1.0" encoding="UTF-8"?>
<!DOCTYPE svg PUBLIC "-//W3C//DTD SVG 1.1//EN" "http://www.w3.org/Graphics/SVG/1.1/DTD/svg11.dtd">
<!-- Creator: CorelDRAW X8 -->
<svg xmlns="http://www.w3.org/2000/svg" xml:space="preserve" width="40mm" height="60mm" version="1.1" style="shape-rendering:geometricPrecision; text-rendering:geometricPrecision; image-rendering:optimizeQuality; fill-rule:evenodd; clip-rule:evenodd"
viewBox="0 0 4000 6000"
 xmlns:xlink="http://www.w3.org/1999/xlink">
 <defs>
  <style type="text/css">
   <![CDATA[
    .fil0 {fill:black;fill-rule:nonzero}
   ]]>
  </style>
 </defs>
 <g id="图层_x0020_1">
  <metadata id="CorelCorpID_0Corel-Layer"/>
  <g>
   <path class="fil0" d="M1370 724l0 5 0 0 -11 -1 -11 0 -10 -1 -10 -1 -10 0 -9 -1 -9 -1 -9 -1 -9 -1 -8 -1 -8 -2 -7 -1 -8 -1 -7 -1 -6 -2 -7 -1 -6 -2 -5 -2 -6 -1 -5 -2 -5 -2 -5 -2 -4 -2 -4 -2 -3 -2 -4 -2 -3 -2 -3 -2 -2 -3 -2 -2 -2 -3 -2 -2 4 -2 1 2 2 2 2 2 2 2 3 2 3 2 3 2 3 2 4 2 4 2 5 2 4 2 5 2 6 1 5 2 6 1 7 2 6 1 7 1 7 2 8 1 8 1 8 1 8 1 9 1 9 1 9 1 10 1 10 1 10 0 11 1 11 0 0 0zm0 5l0 0 0 0 0 0zm1145 -9l0 4 0 0 -28 0 -29 -1 -30 0 -31 0 -32 -1 -34 0 -34 0 -35 -1 -36 0 -37 0 -37 0 -38 0 -38 0 -39 0 -38 0 -40 0 -39 0 -39 0 -39 0 -39 1 -39 0 -39 0 -39 1 -37 0 -38 1 -37 0 -36 1 -35 1 -35 0 -34 1 -33 1 -31 1 0 -5 31 0 33 -1 34 -1 34 -1 36 -1 36 0 37 -1 37 0 38 -1 39 0 38 -1 39 0 40 0 39 0 39 -1 39 0 40 0 38 0 39 0 38 0 38 0 37 0 37 1 36 0 35 0 34 0 34 1 32 0 31 0 30 1 29 0 28 1 0 0zm331 319l-5 1 0 0 -2 -20 -2 -19 -2 -19 -3 -17 -3 -17 -4 -17 -4 -15 -4 -15 -5 -15 -5 -14 -6 -13 -6 -12 -7 -12 -7 -11 -8 -10 -9 -10 -9 -10 -10 -8 -11 -9 -11 -7 -12 -7 -14 -6 -13 -6 -15 -5 -16 -5 -17 -4 -17 -3 -19 -3 -20 -3 -21 -2 -21 -1 -23 -1 0 -4 23 1 22 1 21 2 20 2 18 3 18 4 17 4 16 4 15 6 14 6 14 6 12 7 12 8 11 8 10 9 10 10 8 10 9 10 7 12 7 12 6 13 6 13 5 14 5 14 5 15 4 16 3 17 3 17 3 18 3 18 2 19 2 20 0 0zm-7 3974l-4 0 0 0 2 -54 3 -68 2 -81 2 -93 3 -104 2 -115 2 -123 2 -132 2 -139 1 -146 2 -151 1 -155 2 -160 1 -161 1 -164 0 -164 1 -164 0 -163 0 -161 0 -158 0 -154 -1 -149 -1 -143 -1 -137 -1 -128 -2 -121 -2 -110 -2 -100 -3 -88 -3 -76 -3 -63 -4 -48 5 -1 4 49 3 62 3 76 2 89 3 100 2 110 1 120 2 129 1 137 1 143 0 149 1 154 0 158 0 161 -1 163 0 164 -1 164 -1 164 -1 161 -1 160 -1 155 -2 151 -2 146 -2 139 -2 132 -2 124 -2 114 -2 104 -2 93 -3 81 -2 68 -3 54 0 0zm-346 334l0 -5 0 0 22 -1 21 -1 21 -2 19 -2 19 -3 18 -3 17 -4 16 -4 15 -5 15 -5 14 -6 13 -7 12 -7 12 -8 11 -8 11 -9 9 -10 9 -10 9 -12 8 -12 7 -12 7 -14 6 -14 5 -16 5 -16 4 -17 4 -17 4 -19 3 -20 2 -21 2 -21 2 -23 4 0 -1 23 -2 22 -3 21 -3 20 -3 18 -4 18 -5 18 -5 16 -5 15 -6 15 -7 14 -8 13 -8 12 -8 11 -9 11 -10 10 -11 9 -11 9 -12 8 -13 7 -13 7 -14 6 -15 5 -16 5 -16 4 -18 4 -18 4 -18 2 -20 3 -20 1 -22 2 -22 1 0 0zm-1121 -8l0 -4 0 0 30 1 31 0 31 1 32 1 32 1 34 0 33 1 35 1 34 1 35 1 36 0 36 1 36 1 36 0 37 1 36 0 37 1 37 0 37 0 37 1 37 0 37 0 37 0 36 0 37 -1 36 0 36 0 35 -1 35 -1 35 -1 34 -1 34 -1 0 5 -34 1 -34 1 -35 1 -35 0 -35 1 -36 0 -36 1 -37 0 -36 0 -37 0 -37 0 -37 0 -37 0 -37 0 -37 -1 -37 0 -36 -1 -37 0 -36 -1 -36 -1 -36 0 -36 -1 -35 -1 -35 0 -34 -1 -33 -1 -34 -1 -32 -1 -32 0 -32 -1 -30 -1 -30 -1 0 0zm-235 -211l4 0 0 0 1 13 1 12 1 12 2 12 2 11 2 11 3 10 4 10 4 9 4 9 5 9 5 8 5 7 6 8 7 7 7 6 7 6 8 6 8 5 8 5 10 5 9 4 10 4 11 3 11 3 11 3 12 2 12 2 13 2 14 1 14 1 14 1 0 4 -15 0 -14 -1 -13 -2 -13 -1 -13 -2 -12 -3 -11 -2 -12 -3 -10 -4 -11 -4 -9 -4 -10 -5 -9 -5 -8 -5 -8 -6 -7 -7 -8 -6 -6 -7 -6 -8 -6 -8 -5 -8 -5 -9 -4 -9 -4 -10 -4 -10 -3 -10 -3 -11 -2 -11 -2 -12 -1 -12 -1 -13 0 -13 0 0zm15 -4157l4 0 0 0 -1 91 -1 100 -1 110 -1 117 -1 125 -1 132 -1 138 -1 143 -2 148 -1 152 -1 155 -1 157 -1 160 -1 160 -1 161 -1 161 -1 159 0 158 -1 155 0 153 -1 148 0 144 0 138 0 133 0 125 0 119 0 110 1 102 1 91 1 82 1 71 1 59 -4 0 -2 -59 -1 -71 -1 -81 -1 -92 0 -102 -1 -110 0 -119 0 -125 0 -133 0 -138 1 -144 0 -149 1 -152 0 -155 1 -158 1 -159 1 -161 1 -161 1 -160 1 -160 1 -157 1 -155 1 -152 1 -148 1 -143 1 -138 2 -132 1 -125 1 -117 1 -110 1 -100 1 -91 0 0zm218 -247l0 5 0 0 -14 1 -13 1 -12 1 -12 2 -12 2 -11 3 -10 3 -10 4 -10 4 -10 4 -8 5 -9 5 -8 6 -8 6 -7 7 -6 7 -7 8 -6 8 -5 8 -5 9 -5 10 -4 10 -4 10 -4 11 -3 12 -3 12 -2 13 -2 13 -1 13 -2 14 0 15 -1 15 -4 0 0 -15 1 -15 1 -14 2 -14 2 -13 2 -13 3 -12 3 -12 3 -11 4 -11 5 -10 5 -10 5 -9 6 -9 6 -8 6 -8 7 -7 8 -7 7 -6 9 -6 8 -6 9 -5 10 -4 10 -5 10 -3 11 -3 11 -3 12 -3 12 -1 13 -2 13 -1 14 -1 0 0zm0 5l0 0 0 0 0 0zm208 -80l4 2 -3 4 -3 4 -3 4 -4 4 -4 3 -4 4 -4 3 -5 4 -5 3 -5 3 -5 3 -5 3 -6 3 -6 3 -6 2 -7 3 -7 2 -7 2 -7 3 -7 2 -8 2 -8 2 -8 1 -9 2 -8 2 -9 1 -9 1 -10 1 -10 1 -9 1 -11 1 -10 1 0 -5 10 0 10 -1 10 -1 10 -1 9 -1 9 -1 9 -2 9 -1 8 -2 8 -2 8 -2 8 -2 7 -2 7 -2 7 -2 6 -3 7 -2 6 -3 6 -2 5 -3 6 -3 5 -3 5 -3 5 -3 4 -3 4 -4 4 -3 4 -4 3 -3 4 -4 3 -3 2 -4z"/>
  </g>
 </g>
</svg>
