<?xml version="1.0" encoding="UTF-8"?>
<!DOCTYPE svg PUBLIC "-//W3C//DTD SVG 1.1//EN" "http://www.w3.org/Graphics/SVG/1.1/DTD/svg11.dtd">
<!-- Creator: CorelDRAW 2020 (64-Bit) -->
<svg xmlns="http://www.w3.org/2000/svg" xml:space="preserve" width="40mm" height="60mm" version="1.1" style="shape-rendering:geometricPrecision; text-rendering:geometricPrecision; image-rendering:optimizeQuality; fill-rule:evenodd; clip-rule:evenodd"
viewBox="0 0 4000 6000"
 xmlns:xlink="http://www.w3.org/1999/xlink"
 xmlns:xodm="http://www.corel.com/coreldraw/odm/2003">
 <defs>
  <style type="text/css">
   <![CDATA[
    .str0 {stroke:#332C2B;stroke-width:20;stroke-miterlimit:22.9256}
    .fil0 {fill:none}
   ]]>
  </style>
   <clipPath id="id0">
    <rect x="-72148" y="-6990.76" width="27251.94" height="19841.51"/>
   </clipPath>
 </defs>
 <g id="图层_x0020_1">
  <metadata id="CorelCorpID_0Corel-Layer"/>
  <path class="fil0 str0" d="M-13073.11 6856.95l0 -5935.47c0,-714.99 -585.01,-1300 -1300,-1300l-13575.37 0c-715,0 -1300,585 -1300,1300l0 5274.01c0,715 585,1300 1300,1300l13575.37 0c715,0 1300,-585 1300,-1300 0,-715 259.26,-1244.07 468.29,-1519.24"/>
  <path class="fil0 str0" d="M-28892.59 6252.53l0 -1437.99c0,-467.5 382.49,-849.99 849.99,-849.99l1464.44 0c467.5,0 849.99,382.49 849.99,849.99l0 1437.99c0,467.5 -382.49,849.99 -849.99,849.99l-1464.44 0c-467.5,0 -849.99,-382.49 -849.99,-849.99z"/>
  <g style="clip-path:url(#id0)">
   <image transform="matrix(764.88 10.4877 -7.56757 551.913 -71881 -6990.76)" x="0" y="0" width="35.28" height="35.28" xlink:href="iPhone14 Plus -11i（背膜）（Casetify）3_Images\iPhone14 Plus -11i（背膜）（Casetify）3_ImgID1.png"/>
  </g>
  <rect class="fil0 str0" x="-55682.34" y="-4763.35" width="7874.01" height="16175.37" rx="1300" ry="1356.59"/>
  <rect class="fil0 str0" x="-55289.37" y="-4407.46" width="3137.97" height="3164.42" rx="823.98" ry="857.16"/>
  <g id="_1887615101632">
   <path class="fil0 str0" d="M1226.65 650.53l1532.44 0c207.75,0 377.73,169.98 377.73,377.74l0 3944.53c0,207.75 -169.98,377.73 -377.73,377.73l-1532.44 0c-207.76,0 -377.74,-169.98 -377.74,-377.73l0 -3944.53c0,-207.76 169.98,-377.74 377.74,-377.74z"/>
   <path class="fil0 str0" d="M1210.07 753.94l417.83 0c135.84,0 246.98,111.14 246.98,246.98l0 425.51c0,135.84 -111.14,246.98 -246.98,246.98l-417.83 0c-135.84,0 -246.97,-111.14 -246.97,-246.98l0 -425.51c0,-135.84 111.13,-246.98 246.97,-246.98z"/>
  </g>
 </g>
</svg>
