<?xml version="1.0" encoding="UTF-8"?>
<!DOCTYPE svg PUBLIC "-//W3C//DTD SVG 1.1//EN" "http://www.w3.org/Graphics/SVG/1.1/DTD/svg11.dtd">
<!-- Creator: CorelDRAW X8 -->
<svg xmlns="http://www.w3.org/2000/svg" xml:space="preserve" width="40mm" height="60mm" version="1.1" style="shape-rendering:geometricPrecision; text-rendering:geometricPrecision; image-rendering:optimizeQuality; fill-rule:evenodd; clip-rule:evenodd"
viewBox="0 0 4000 6000"
 xmlns:xlink="http://www.w3.org/1999/xlink">
 <defs>
  <style type="text/css">
   <![CDATA[
    .fil0 {fill:#332C2B;fill-rule:nonzero}
   ]]>
  </style>
 </defs>
 <g id="图层_x0020_1">
  <metadata id="CorelCorpID_0Corel-Layer"/>
  <g>
   <path class="fil0" d="M1368 816l18 10 -1 0 -3 5 -3 5 -3 5 -3 4 -3 5 -3 4 -4 4 -3 4 -3 3 -2 4 -3 3 -3 3 -3 3 -3 3 -3 3 -2 3 -3 2 -3 3 -2 2 -3 2 -2 2 -2 1 -3 2 -2 1 -2 1 -3 2 -2 1 -2 0 -3 1 -2 0 -2 1 -3 0 2 -20 0 0 0 0 1 0 1 -1 1 0 1 -1 1 0 2 -1 1 -1 2 -1 2 -2 2 -1 2 -2 2 -2 3 -2 2 -2 2 -2 3 -3 2 -2 3 -3 3 -3 2 -3 3 -3 3 -4 3 -4 3 -3 2 -4 3 -4 3 -5 3 -4 3 -5 3 -4 0 0zm18 10l-1 0 0 0 1 0zm73 -86l4 19 0 0 -3 1 -4 1 -4 1 -3 1 -4 1 -3 1 -3 1 -2 2 -3 1 -3 1 -2 2 -3 1 -2 2 -2 1 -2 2 -2 2 -2 2 -2 2 -2 2 -2 2 -2 2 -2 3 -2 2 -2 3 -2 3 -2 3 -2 3 -2 4 -2 3 -2 4 -2 4 -2 4 -18 -10 2 -4 2 -4 3 -4 2 -3 2 -4 2 -4 2 -3 2 -3 3 -3 2 -3 2 -3 3 -3 2 -3 2 -2 3 -3 2 -2 3 -2 3 -3 3 -2 3 -2 3 -2 3 -1 3 -2 3 -2 4 -1 3 -1 4 -2 4 -1 4 -1 4 -1 4 -1 4 -1 0 0zm0 0l0 0 4 -1 -4 1zm1116 -98l-1 20 0 0 -27 -1 -29 -1 -31 0 -33 0 -34 1 -36 1 -37 1 -38 2 -39 2 -40 3 -40 3 -41 3 -41 3 -42 4 -41 3 -42 4 -41 4 -40 5 -41 4 -39 5 -38 4 -38 5 -36 4 -35 5 -33 4 -32 5 -30 4 -28 5 -26 4 -23 4 -21 4 -19 3 -4 -19 19 -4 21 -4 24 -4 26 -4 28 -5 30 -4 32 -4 34 -5 34 -5 37 -4 37 -5 39 -4 39 -5 40 -4 41 -4 41 -5 42 -4 41 -3 42 -4 41 -3 41 -3 41 -3 40 -3 39 -2 38 -2 37 -1 36 -1 35 -1 33 0 31 0 29 1 28 1 0 0zm173 111l-19 8 0 0 -3 -7 -3 -6 -3 -7 -3 -6 -3 -6 -3 -5 -2 -5 -3 -5 -3 -4 -3 -4 -3 -4 -3 -4 -3 -3 -4 -3 -3 -3 -4 -3 -4 -2 -4 -3 -4 -2 -5 -2 -5 -2 -5 -2 -6 -1 -7 -2 -6 -1 -7 -1 -8 -2 -8 -1 -8 -1 -10 0 -9 -1 -10 -1 1 -20 10 1 10 1 10 1 8 1 9 1 8 1 8 1 7 2 7 1 6 2 7 2 6 3 5 2 6 3 5 3 4 3 5 3 4 4 5 4 4 4 3 4 4 5 3 5 4 5 3 5 3 5 3 6 3 6 3 7 3 6 3 7 4 7 0 0zm62 210l-19 4 0 0 -2 -5 -1 -5 -1 -6 -1 -6 -2 -6 -1 -6 -2 -6 -1 -7 -2 -6 -2 -7 -1 -7 -2 -7 -2 -7 -2 -7 -2 -7 -2 -8 -2 -7 -2 -7 -2 -7 -3 -7 -2 -7 -2 -7 -2 -7 -3 -7 -2 -6 -2 -7 -2 -6 -3 -6 -2 -6 -2 -5 -2 -6 -3 -5 19 -8 2 6 2 5 3 6 2 6 2 6 3 7 2 6 2 7 3 7 2 7 2 7 2 7 3 7 2 7 2 8 2 7 2 7 2 7 2 8 2 7 2 7 2 7 2 7 1 6 2 7 1 7 2 6 1 6 2 6 1 6 1 5 1 5 0 0zm25 259l-20 1 0 0 0 -10 0 -9 -1 -9 0 -9 0 -9 -1 -9 0 -8 0 -9 -1 -8 0 -8 -1 -9 0 -8 -1 -8 -1 -8 0 -7 -1 -8 -1 -8 0 -7 -1 -8 -1 -8 -1 -7 -1 -8 -1 -7 -1 -7 -1 -8 -1 -7 -2 -8 -1 -7 -1 -7 -2 -8 -1 -7 -1 -8 19 -4 2 8 1 7 1 8 2 8 1 7 1 8 1 7 2 8 1 7 1 8 1 7 1 8 1 8 0 7 1 8 1 8 1 8 0 8 1 8 1 8 0 8 1 8 0 9 1 8 0 9 0 8 1 9 0 9 0 9 1 9 0 10 0 9 0 0zm23 3586l-20 0 0 0 0 -87 0 -92 0 -97 0 -101 0 -105 0 -109 0 -112 -1 -115 0 -117 0 -120 -1 -122 0 -123 -1 -125 0 -125 -1 -126 0 -127 -1 -126 -1 -126 -1 -125 0 -124 -1 -123 -1 -121 -1 -118 -1 -117 -2 -113 -1 -111 -1 -107 -2 -103 -1 -99 -2 -95 -1 -90 -2 -84 20 -1 2 85 1 90 2 95 1 99 2 103 1 107 1 110 2 114 1 116 1 119 1 121 1 123 0 124 1 125 1 126 1 126 0 127 1 126 0 125 1 125 0 123 1 122 0 120 0 117 1 115 0 112 0 109 0 105 0 101 0 97 0 92 0 87 0 0zm-20 228l-19 -4 0 0 1 -8 1 -7 2 -8 1 -7 1 -8 1 -7 1 -8 1 -8 1 -7 1 -8 1 -7 1 -8 0 -7 1 -8 1 -7 0 -8 1 -7 0 -7 1 -7 0 -7 1 -7 0 -7 0 -7 0 -6 1 -7 0 -6 0 -6 0 -6 0 -6 0 -6 0 -5 0 -6 20 0 0 6 0 5 0 6 0 6 0 6 0 7 0 6 -1 7 0 6 0 7 0 7 -1 7 0 7 -1 7 0 8 -1 7 0 7 -1 8 -1 7 0 8 -1 8 -1 7 -1 8 -1 8 -1 8 -1 7 -1 8 -1 8 -2 8 -1 7 -1 8 -2 8 0 0zm-57 200l-18 -8 0 0 2 -4 2 -5 1 -4 2 -5 2 -5 2 -6 2 -5 2 -5 1 -6 2 -6 2 -5 2 -6 2 -6 2 -6 2 -7 1 -6 2 -6 2 -7 2 -6 2 -7 1 -7 2 -6 2 -7 1 -7 2 -7 2 -7 1 -7 2 -7 1 -7 2 -7 1 -7 2 -7 19 4 -1 7 -2 7 -1 7 -2 8 -1 7 -2 7 -1 7 -2 7 -2 7 -2 7 -1 6 -2 7 -2 7 -2 7 -2 6 -1 7 -2 6 -2 6 -2 7 -2 6 -2 6 -2 6 -2 5 -1 6 -2 6 -2 5 -2 5 -2 6 -2 5 -2 5 -2 4 -2 5 0 0zm-144 118l-3 -20 0 0 8 -1 8 -1 7 -1 7 -2 6 -1 6 -2 5 -1 6 -2 5 -2 4 -1 5 -2 4 -3 3 -2 4 -2 4 -3 3 -3 3 -3 3 -3 3 -3 3 -4 2 -3 3 -4 3 -5 2 -4 3 -5 3 -5 2 -6 3 -6 3 -6 2 -6 3 -7 3 -7 18 8 -2 7 -3 7 -3 6 -3 7 -3 6 -2 5 -3 6 -3 5 -3 5 -3 5 -3 5 -3 5 -4 4 -3 4 -4 4 -4 3 -4 4 -4 3 -5 3 -5 3 -5 2 -5 3 -5 2 -6 2 -6 2 -6 2 -7 1 -7 2 -7 1 -7 1 -8 2 -8 1 0 0zm-492 -8l1 -20 0 0 12 1 12 0 13 1 14 1 14 1 14 1 15 1 16 1 16 1 16 1 16 0 17 1 16 1 17 0 17 1 17 1 17 0 17 0 17 1 17 0 17 0 16 0 17 0 16 0 15 -1 16 0 15 -1 14 0 14 -1 13 -1 13 -1 12 -1 3 20 -13 1 -13 1 -14 1 -14 1 -15 0 -15 1 -15 0 -16 1 -16 0 -16 0 -17 0 -17 0 -17 0 -17 -1 -17 0 -17 0 -17 -1 -17 -1 -17 0 -17 -1 -17 -1 -16 0 -16 -1 -16 -1 -16 -1 -15 -1 -14 -1 -15 -1 -13 -1 -13 -1 -13 -1 -11 0 0 0zm-653 -72l4 -19 0 0 16 2 17 3 19 3 18 3 19 2 20 3 21 3 20 2 22 3 21 3 22 2 22 3 22 2 23 3 22 2 23 2 22 3 22 2 23 2 22 2 22 2 22 2 21 2 21 2 20 2 20 2 20 1 19 2 18 2 18 1 17 1 16 2 -1 20 -17 -2 -17 -1 -17 -1 -19 -2 -19 -2 -19 -1 -20 -2 -21 -2 -21 -2 -21 -2 -22 -2 -22 -2 -22 -2 -22 -2 -23 -2 -22 -3 -23 -2 -23 -3 -22 -2 -22 -2 -22 -3 -22 -3 -22 -2 -21 -3 -21 -2 -20 -3 -20 -3 -20 -2 -18 -3 -19 -3 -17 -3 -17 -3 0 0zm0 0l0 0 0 0 0 0zm-84 -58l17 -10 0 0 2 2 2 3 1 3 2 2 2 2 1 3 2 2 2 2 2 2 1 2 2 2 2 1 2 2 2 2 2 1 2 2 2 1 2 1 2 1 2 2 2 1 3 1 2 1 3 1 2 1 3 1 3 1 3 1 3 0 3 1 3 1 4 1 -4 19 -4 0 -4 -1 -3 -1 -4 -1 -3 -1 -3 -1 -3 -1 -4 -1 -3 -2 -3 -1 -2 -1 -3 -2 -3 -1 -3 -2 -2 -1 -3 -2 -2 -2 -3 -2 -2 -2 -3 -2 -2 -2 -2 -2 -2 -3 -2 -2 -2 -2 -2 -3 -2 -3 -2 -2 -2 -3 -2 -3 -2 -3 -2 -3 0 0zm0 0l0 0 0 0 0 0zm-159 -365l19 -6 0 0 4 11 4 12 4 11 4 12 5 12 4 12 5 12 4 13 5 12 5 12 5 13 5 12 5 12 5 12 5 13 5 12 5 12 6 12 5 12 5 11 6 12 5 11 5 11 5 11 6 10 5 11 5 10 5 9 5 10 5 9 5 8 5 9 -17 10 -5 -9 -5 -9 -5 -9 -5 -9 -6 -10 -5 -10 -5 -11 -5 -10 -6 -11 -5 -12 -6 -11 -5 -12 -5 -11 -6 -12 -5 -12 -5 -12 -5 -12 -6 -13 -5 -12 -5 -13 -5 -12 -5 -12 -5 -13 -5 -12 -4 -13 -5 -12 -4 -12 -5 -12 -4 -12 -4 -12 -4 -12 -4 -11 0 0zm-81 -598l20 -1 0 0 0 14 1 15 1 16 0 16 1 17 1 17 2 18 1 19 1 18 2 19 1 20 2 19 2 20 2 20 2 20 2 20 3 21 2 20 3 20 3 21 3 20 3 20 3 20 4 19 4 19 4 19 4 19 4 18 4 18 5 18 5 16 5 17 -19 6 -5 -17 -5 -17 -5 -18 -4 -18 -5 -18 -4 -19 -4 -20 -4 -19 -3 -20 -4 -20 -3 -20 -3 -21 -3 -20 -3 -20 -2 -21 -3 -20 -2 -21 -2 -20 -2 -20 -2 -20 -2 -20 -1 -19 -2 -19 -1 -19 -1 -18 -1 -18 -2 -18 -1 -17 0 -16 -1 -16 -1 -15 0 -14 0 0zm-16 -2498l20 1 0 0 -2 58 -2 63 -1 65 -1 69 -1 72 -1 75 -1 78 -1 79 0 82 0 84 0 85 0 86 0 87 0 88 1 89 0 89 1 89 1 88 0 88 2 87 1 87 1 85 1 83 2 82 1 79 2 78 2 74 2 72 2 69 2 66 2 62 3 58 -20 1 -3 -59 -2 -62 -2 -65 -2 -69 -2 -72 -2 -75 -2 -77 -1 -80 -2 -82 -1 -83 -1 -85 -1 -86 -2 -88 0 -88 -1 -88 -1 -89 0 -89 -1 -89 0 -88 0 -87 0 -86 0 -85 0 -84 0 -82 1 -80 1 -77 1 -75 1 -72 1 -69 1 -66 2 -62 2 -59 0 0zm82 -623l19 5 0 0 -6 21 -5 19 -6 20 -5 20 -5 19 -4 19 -4 19 -4 19 -4 19 -3 19 -3 19 -3 18 -3 19 -3 19 -2 18 -2 19 -2 19 -2 18 -2 19 -2 19 -1 19 -1 19 -2 19 -1 19 -1 20 -1 20 -1 19 -1 20 0 21 -1 20 -1 21 0 21 -20 -1 0 -21 1 -20 1 -21 0 -20 1 -20 1 -20 1 -20 1 -20 1 -19 2 -19 1 -20 1 -19 2 -19 2 -19 2 -19 2 -18 2 -19 2 -19 3 -19 3 -19 3 -19 3 -18 4 -19 3 -20 4 -19 4 -19 5 -20 5 -19 5 -20 5 -20 6 -20 6 -20 0 0zm134 -315l18 9 0 0 -5 8 -4 9 -5 9 -4 9 -5 9 -5 10 -4 9 -5 10 -5 11 -5 10 -4 10 -5 11 -5 10 -4 11 -5 11 -5 10 -4 11 -5 11 -4 10 -4 11 -4 10 -4 10 -4 10 -4 10 -4 10 -3 10 -4 9 -3 9 -3 9 -3 8 -2 9 -3 7 -19 -5 2 -8 3 -9 3 -9 3 -9 3 -9 4 -9 3 -10 4 -10 4 -10 4 -10 4 -11 4 -10 5 -11 4 -10 4 -11 5 -11 5 -10 4 -11 5 -11 5 -10 4 -11 5 -10 5 -11 5 -10 5 -10 4 -10 5 -10 5 -9 4 -9 5 -9 5 -9 4 -9 0 1zm18 9l0 0 0 -1 0 1zm9 -74l18 -8 0 2 1 2 0 2 0 1 0 2 0 2 0 2 0 2 -1 1 0 2 -1 2 0 2 -1 3 0 2 -1 2 -1 2 -1 3 -1 2 -1 3 -1 3 -1 3 -2 2 -1 3 -1 4 -2 3 -1 3 -2 3 -2 4 -2 3 -1 4 -2 4 -2 4 -18 -9 2 -4 2 -4 2 -4 1 -3 2 -3 1 -4 2 -3 1 -3 2 -3 1 -3 1 -2 1 -3 1 -3 1 -2 1 -2 1 -3 1 -2 1 -2 0 -1 1 -2 0 -2 1 -1 0 -2 0 -1 0 -1 0 -1 0 0 0 -1 0 0 0 0 0 0 1 0z"/>
  </g>
 </g>
</svg>
