<?xml version="1.0" encoding="UTF-8"?>
<!DOCTYPE svg PUBLIC "-//W3C//DTD SVG 1.1//EN" "http://www.w3.org/Graphics/SVG/1.1/DTD/svg11.dtd">
<!-- Creator: CorelDRAW X8 -->
<svg xmlns="http://www.w3.org/2000/svg" xml:space="preserve" width="40mm" height="60mm" version="1.1" style="shape-rendering:geometricPrecision; text-rendering:geometricPrecision; image-rendering:optimizeQuality; fill-rule:evenodd; clip-rule:evenodd"
viewBox="0 0 4000 6000"
 xmlns:xlink="http://www.w3.org/1999/xlink">
 <defs>
  <style type="text/css">
   <![CDATA[
    .str0 {stroke:#332C2B;stroke-width:20}
    .fil0 {fill:none}
   ]]>
  </style>
 </defs>
 <g id="图层_x0020_1">
  <metadata id="CorelCorpID_0Corel-Layer"/>
  <path class="fil0 str0" d="M467 5302l2928 0c75,0 138,-63 138,-138l0 -2142 -57 0c-26,0 -47,-22 -47,-47l0 0c0,-26 21,-47 47,-47l57 0 0 -2140c0,-76 -63,-138 -138,-138l-2769 0c-76,0 -138,62 -138,138l0 4376c0,75 62,138 138,138 76,0 123,28 123,48"/>
  <path class="fil0 str0" d="M-25188 14469c0,-78 -220,-222 -598,-222 -377,0 -686,-310 -686,-690l0 -21870c0,-379 309,-690 686,-690l13777 0c378,0 687,311 687,690l0 10696 -281 0c-128,0 -233,105 -233,234l0 0c0,129 105,234 233,234l281 0 0 10706c0,380 -309,690 -687,690l-14593 0"/>
 </g>
</svg>
