<?xml version="1.0" encoding="UTF-8"?>
<!DOCTYPE svg PUBLIC "-//W3C//DTD SVG 1.1//EN" "http://www.w3.org/Graphics/SVG/1.1/DTD/svg11.dtd">
<!-- Creator: CorelDRAW X8 -->
<svg xmlns="http://www.w3.org/2000/svg" xml:space="preserve" width="40mm" height="60mm" version="1.1" style="shape-rendering:geometricPrecision; text-rendering:geometricPrecision; image-rendering:optimizeQuality; fill-rule:evenodd; clip-rule:evenodd"
viewBox="0 0 4000 6000"
 xmlns:xlink="http://www.w3.org/1999/xlink">
 <defs>
  <style type="text/css">
   <![CDATA[
    .fil0 {fill:black;fill-rule:nonzero}
   ]]>
  </style>
 </defs>
 <g id="图层_x0020_1">
  <metadata id="CorelCorpID_0Corel-Layer"/>
  <g>
   <path class="fil0" d="M1209 674l0 -5 0 0 3 0 3 0 3 0 3 -1 3 0 2 0 3 0 3 -1 2 0 3 0 2 -1 3 0 2 -1 2 -1 3 0 2 -1 2 -1 2 0 2 -1 2 -1 2 -1 2 -1 2 0 2 -1 1 -1 2 -1 2 -1 1 -1 2 -2 1 -1 2 -1 1 -1 3 4 -1 1 -2 1 -1 2 -2 1 -2 1 -1 1 -2 1 -2 1 -2 1 -2 1 -2 1 -2 1 -2 1 -2 0 -2 1 -3 1 -2 1 -2 0 -3 1 -2 0 -3 1 -2 0 -3 1 -2 0 -3 1 -3 0 -3 0 -3 0 -3 1 -3 0 -3 0 -3 0 0 0zm-15 -5l15 0 0 5 -15 0 0 0 0 -5zm-26 31l-5 0 0 0 0 -2 0 -2 1 -1 0 -2 0 -1 1 -2 0 -1 1 -1 0 -2 1 -1 1 -1 0 -2 1 -1 1 -1 1 -1 1 -1 1 -1 1 -1 2 -1 1 -1 1 -1 1 0 2 -1 1 -1 1 0 2 -1 1 0 2 -1 1 0 2 0 1 0 2 0 0 5 -1 0 -2 0 -1 0 -1 0 -1 1 -2 0 -1 0 -1 1 -1 0 -1 1 -1 1 -1 0 -1 1 -1 1 -1 1 -1 0 -1 1 -1 1 -1 1 0 1 -1 1 -1 1 0 1 -1 2 0 1 -1 1 0 1 0 1 -1 2 0 1 0 1 0 2 0 0zm0 0l0 0 0 0 0 0zm-75 4622l70 -4622 5 0 -70 4622 -5 0 0 0zm0 0l0 0 0 0 0 0zm31 26l0 4 0 0 -2 0 -2 0 -1 0 -2 0 -1 0 -2 -1 -1 0 -1 -1 -2 -1 -1 0 -1 -1 -2 -1 -1 -1 -1 -1 -1 0 -1 -2 -1 -1 -1 -1 -1 -1 -1 -1 -1 -1 -1 -2 0 -1 -1 -1 0 -2 -1 -1 0 -2 -1 -1 0 -2 0 -1 0 -2 0 -1 5 0 0 1 0 1 0 2 0 1 1 1 0 1 0 2 1 1 0 1 1 1 0 1 1 1 1 1 1 1 0 1 1 1 1 1 1 1 1 0 1 1 1 1 1 0 1 1 1 0 2 1 1 0 1 1 1 0 2 0 1 0 1 0 2 1 0 0zm1724 4l-1724 0 0 -4 1724 0 0 0 0 4zm26 -30l5 0 0 0 0 1 0 2 -1 1 0 2 0 1 -1 2 0 1 -1 2 0 1 -1 1 -1 2 -1 1 0 1 -1 1 -1 1 -1 1 -1 2 -1 0 -2 1 -1 1 -1 1 -1 1 -2 0 -1 1 -1 1 -2 0 -1 1 -2 0 -1 0 -2 0 -1 0 -2 0 0 -4 1 -1 2 0 1 0 1 0 1 0 2 -1 1 0 1 -1 1 0 1 -1 1 0 1 -1 1 -1 1 0 1 -1 1 -1 1 -1 1 -1 1 -1 0 -1 1 -1 1 -1 0 -1 1 -1 0 -1 1 -2 0 -1 0 -1 0 -1 1 -2 0 -1 0 -1 0 0zm0 0l0 0 0 0 0 0zm28 -4436l5 0 0 0 0 111 0 122 0 133 -1 143 -1 152 0 160 -1 167 -1 173 -1 178 -1 181 -2 185 -1 186 -1 187 -1 187 -2 185 -1 184 -1 180 -2 176 -1 170 -1 165 -1 157 -2 148 -1 140 -1 129 -1 117 -1 105 0 92 -1 78 -1 62 0 45 0 28 0 10 -5 0 0 -10 0 -28 0 -45 1 -62 1 -78 0 -92 1 -105 1 -117 1 -129 1 -140 2 -148 1 -157 1 -165 1 -170 2 -176 1 -180 1 -184 2 -185 1 -187 1 -187 1 -186 2 -185 1 -181 1 -178 1 -173 1 -167 0 -160 1 -152 1 -143 0 -133 0 -122 0 -111 0 0zm-16 -197l5 -1 0 0 1 4 0 4 1 4 1 5 0 4 1 5 1 5 1 5 0 5 1 6 1 6 0 5 1 6 1 6 0 6 1 7 1 6 0 7 1 6 0 7 1 7 0 7 0 7 1 8 0 7 0 7 1 8 0 7 0 8 0 8 0 7 0 8 -5 0 0 -7 0 -8 0 -8 0 -7 0 -8 -1 -7 0 -8 0 -7 -1 -7 0 -7 0 -7 -1 -7 0 -7 -1 -7 0 -6 -1 -7 -1 -6 0 -6 -1 -6 -1 -6 0 -6 -1 -5 -1 -6 0 -5 -1 -5 -1 -5 0 -5 -1 -4 -1 -5 -1 -4 0 -4 -1 -4 0 0zm-24 -15l0 -5 0 0 2 0 1 0 1 0 2 0 1 0 1 0 2 0 1 1 1 0 1 0 1 0 1 1 1 0 1 1 1 0 1 1 1 0 1 1 1 1 1 0 0 1 1 1 1 1 0 1 1 1 0 1 1 1 0 1 1 1 0 2 0 1 1 1 -5 1 0 -1 -1 -1 0 -1 0 -1 -1 -1 0 -1 0 -1 -1 -1 0 0 -1 -1 0 -1 -1 0 0 -1 -1 0 -1 -1 0 0 -1 -1 -1 0 0 0 -1 -1 -1 0 -1 0 -1 0 -1 -1 -1 0 -1 0 -1 0 -2 0 -1 0 -1 0 -1 0 -2 0 0 0zm-1653 -5l1653 0 0 5 -1653 0 0 0 0 -5zm0 5l0 0 0 0 0 0zm-44 -19l3 -4 1 1 1 1 1 0 1 1 1 1 1 1 1 1 2 0 1 1 1 1 1 0 1 1 1 1 2 0 1 1 1 0 2 1 1 0 1 1 2 0 1 1 1 0 2 1 1 0 2 1 1 0 2 0 1 1 2 0 1 0 2 1 2 0 -1 5 -2 -1 -2 0 -1 0 -2 0 -1 -1 -2 0 -2 -1 -1 0 -2 0 -1 -1 -2 0 -1 -1 -2 0 -1 -1 -1 -1 -2 0 -1 -1 -1 0 -2 -1 -1 -1 -1 0 -2 -1 -1 -1 -1 -1 -1 0 -1 -1 -2 -1 -1 -1 -1 -1 -1 -1 -1 0 -1 -1z"/>
  </g>
 </g>
</svg>
