<?xml version="1.0" encoding="UTF-8"?>
<!DOCTYPE svg PUBLIC "-//W3C//DTD SVG 1.1//EN" "http://www.w3.org/Graphics/SVG/1.1/DTD/svg11.dtd">
<!-- Creator: CorelDRAW 2020 (64-Bit) -->
<svg xmlns="http://www.w3.org/2000/svg" xml:space="preserve" width="40mm" height="60mm" version="1.1" style="shape-rendering:geometricPrecision; text-rendering:geometricPrecision; image-rendering:optimizeQuality; fill-rule:evenodd; clip-rule:evenodd"
viewBox="0 0 4000 6000"
 xmlns:xlink="http://www.w3.org/1999/xlink"
 xmlns:xodm="http://www.corel.com/coreldraw/odm/2003">
 <defs>
  <style type="text/css">
   <![CDATA[
    .str0 {stroke:#E72D28;stroke-width:20;stroke-miterlimit:22.9256}
    .str1 {stroke:#222222;stroke-width:20;stroke-miterlimit:22.9256}
    .fil0 {fill:none}
   ]]>
  </style>
   <clipPath id="id0">
    <rect x="-26243.37" y="1090.94" width="4333.96" height="4640.4"/>
   </clipPath>
 </defs>
 <g id="图层_x0020_1">
  <metadata id="CorelCorpID_0Corel-Layer"/>
  <g style="clip-path:url(#id0)">
   <image x="-26243.37" y="1090.94" width="4333.96" height="4640.4" xlink:href="Bip 3-11i（手表）2_Images\Bip 3-11i（手表）2_ImgID1.png"/>
  </g>
  <rect class="fil0 str0" x="-25918.32" y="1166.92" width="3649" height="4412"/>
  <rect class="fil0 str0" x="-25781.02" y="1291.88" width="3374.4" height="4171.6" rx="745.58" ry="695.56"/>
  <path class="fil0 str1" d="M-10438.12 6375.48l0 -2271.3c0,-410.06 -335.52,-745.58 -745.58,-745.58l-2680.44 0c-410.07,0 -745.58,335.51 -745.58,745.58l0 1883.24c0,410.07 335.51,745.58 745.58,745.58l2680.44 0c410.07,0 745.58,-335.51 745.58,-745.58 0,-410.07 48.8,-587.03 117.15,-721.53"/>
  <path class="fil0 str1" d="M-10438.12 2768.32l0 -2271.3c0,-410.06 -335.52,-745.58 -745.58,-745.58l-2680.44 0c-410.07,0 -745.58,335.51 -745.58,745.58l0 1883.24c0,410.07 335.51,745.58 745.58,745.58l2680.44 0c410.07,0 745.58,-335.51 745.58,-745.58 0,-410.07 48.8,-587.03 117.15,-721.53"/>
  <path class="fil0 str1" d="M-6010.76 6375.48l0 -2271.3c0,-410.06 -335.52,-745.58 -745.58,-745.58l-2680.44 0c-410.07,0 -745.58,335.51 -745.58,745.58l0 1883.24c0,410.07 335.51,745.58 745.58,745.58l2680.44 0c410.07,0 745.58,-335.51 745.58,-745.58 0,-410.07 48.8,-587.03 117.15,-721.53"/>
  <path class="fil0 str1" d="M-1583.4 6375.48l0 -2271.3c0,-410.06 -335.52,-745.58 -745.58,-745.58l-2680.44 0c-410.07,0 -745.58,335.51 -745.58,745.58l0 1883.24c0,410.07 335.51,745.58 745.58,745.58l2680.44 0c410.07,0 745.58,-335.51 745.58,-745.58 0,-410.07 48.8,-587.03 117.15,-721.53"/>
  <path class="fil0 str1" d="M-6010.76 2768.32l0 -2271.3c0,-410.06 -335.52,-745.58 -745.58,-745.58l-2680.44 0c-410.07,0 -745.58,335.51 -745.58,745.58l0 1883.24c0,410.07 335.51,745.58 745.58,745.58l2680.44 0c410.07,0 745.58,-335.51 745.58,-745.58 0,-410.07 48.8,-587.03 117.15,-721.53"/>
  <path class="fil0 str1" d="M-1583.4 2768.32l0 -2271.3c0,-410.06 -335.52,-745.58 -745.58,-745.58l-2680.44 0c-410.07,0 -745.58,335.51 -745.58,745.58l0 1883.24c0,410.07 335.51,745.58 745.58,745.58l2680.44 0c410.07,0 745.58,-335.51 745.58,-745.58 0,-410.07 48.8,-587.03 117.15,-721.53"/>
  <g id="_2457854586080">
   <path class="fil0 str1" d="M872.97 2147.4l812.2 0c146.63,0 266.61,-119.98 266.61,-266.61l0 -958.5c0,-146.64 -119.97,-266.62 -266.61,-266.62l-673.43 0c-146.64,0 -266.61,119.98 -266.61,266.62l0 958.5c0,146.64 119.97,266.61 266.61,266.61 146.64,0 209.92,17.45 258.01,41.89"/>
   <path class="fil0 str1" d="M2162.86 2147.4l812.2 0c146.64,0 266.61,-119.98 266.61,-266.61l0 -958.5c0,-146.64 -119.97,-266.62 -266.61,-266.62l-673.43 0c-146.64,0 -266.61,119.98 -266.61,266.62l0 958.5c0,146.64 119.97,266.61 266.61,266.61 146.64,0 209.92,17.45 258.01,41.89"/>
   <path class="fil0 str1" d="M872.97 3730.59l812.2 0c146.63,0 266.61,-119.98 266.61,-266.61l0 -958.51c0,-146.63 -119.97,-266.61 -266.61,-266.61l-673.43 0c-146.64,0 -266.61,119.98 -266.61,266.61l0 958.51c0,146.64 119.97,266.61 266.61,266.61 146.64,0 209.92,17.45 258.01,41.89"/>
   <path class="fil0 str1" d="M872.97 5313.78l812.2 0c146.63,0 266.61,-119.98 266.61,-266.61l0 -958.51c0,-146.64 -119.97,-266.61 -266.61,-266.61l-673.43 0c-146.64,0 -266.61,119.97 -266.61,266.61l0 958.51c0,146.63 119.97,266.61 266.61,266.61 146.64,0 209.92,17.45 258.01,41.89"/>
   <path class="fil0 str1" d="M2162.86 3730.59l812.2 0c146.64,0 266.61,-119.98 266.61,-266.61l0 -958.51c0,-146.63 -119.97,-266.61 -266.61,-266.61l-673.43 0c-146.64,0 -266.61,119.98 -266.61,266.61l0 958.51c0,146.64 119.97,266.61 266.61,266.61 146.64,0 209.92,17.45 258.01,41.89"/>
   <path class="fil0 str1" d="M2162.86 5313.78l812.2 0c146.64,0 266.61,-119.98 266.61,-266.61l0 -958.51c0,-146.64 -119.97,-266.61 -266.61,-266.61l-673.43 0c-146.64,0 -266.61,119.97 -266.61,266.61l0 958.51c0,146.63 119.97,266.61 266.61,266.61 146.64,0 209.92,17.45 258.01,41.89"/>
  </g>
 </g>
</svg>
