<?xml version="1.0" encoding="UTF-8"?>
<!DOCTYPE svg PUBLIC "-//W3C//DTD SVG 1.1//EN" "http://www.w3.org/Graphics/SVG/1.1/DTD/svg11.dtd">
<!-- Creator: CorelDRAW X8 -->
<svg xmlns="http://www.w3.org/2000/svg" xml:space="preserve" width="40mm" height="60mm" version="1.1" style="shape-rendering:geometricPrecision; text-rendering:geometricPrecision; image-rendering:optimizeQuality; fill-rule:evenodd; clip-rule:evenodd"
viewBox="0 0 4000 6000"
 xmlns:xlink="http://www.w3.org/1999/xlink">
 <defs>
  <style type="text/css">
   <![CDATA[
    .str0 {stroke:#333333;stroke-width:18;stroke-linejoin:bevel}
    .fil0 {fill:none}
   ]]>
  </style>
 </defs>
 <g id="图层_x0020_1">
  <metadata id="CorelCorpID_0Corel-Layer"/>
  <path class="fil0 str0" d="M1137 1060c0,0 0,906 0,906 0,138 111,251 246,251 136,0 247,-113 247,-251 0,0 0,-906 0,-906 0,-75 -33,-142 -84,-188 -4,-3 -6,-8 -6,-12 0,-25 0,-107 0,-107 0,-34 -27,-62 -61,-62 0,0 -191,0 -191,0 -34,0 -62,28 -62,62 0,0 0,82 0,107 0,5 -2,9 -6,12 -52,46 -83,113 -83,188zm-50 4290c253,0 1740,0 1740,0 78,0 142,-64 142,-141 0,0 0,-4418 0,-4418 0,-77 -64,-141 -142,-141 0,0 -1654,0 -1654,0 -78,0 -142,64 -142,141 0,0 0,4418 0,4418 0,77 64,141 142,141 0,0 14,0 40,0"/>
 </g>
</svg>
