<?xml version="1.0" encoding="UTF-8"?>
<!DOCTYPE svg PUBLIC "-//W3C//DTD SVG 1.1//EN" "http://www.w3.org/Graphics/SVG/1.1/DTD/svg11.dtd">
<!-- Creator: CorelDRAW -->
<svg xmlns="http://www.w3.org/2000/svg" xml:space="preserve" width="40mm" height="60mm" style="shape-rendering:geometricPrecision; text-rendering:geometricPrecision; image-rendering:optimizeQuality; fill-rule:evenodd; clip-rule:evenodd"
viewBox="0 0 40 60"
 xmlns:xlink="http://www.w3.org/1999/xlink">
 <defs>
  <style type="text/css">
   <![CDATA[
    .str0 {stroke:#1F1A17;stroke-width:0.194}
    .fil0 {fill:none}
   ]]>
  </style>
 </defs>
 <g id="图层_x0020_1">
  <metadata id="CorelCorpID_0Corel-Layer"/>
  <g id="_555063288">
   <path id="_558295728" class="fil0 str0" d="M18.4913 50.6084l2.2285 -1.4053 0.1105 -0.0099 0.1105 0 0.7508 0.0071m-3.2003 1.4081z"/>
   <path id="_558295464" class="fil0 str0" d="M21.6916 49.2003c0.6234,-0.0015 0.7367,0.0113 0.9846,0.1161 0.5143,0.214 0.8514,0.7268 0.8514,1.2963 0,0.8387 -0.5893,1.3827 -1.5229,1.4068 -0.3641,0.0084 -1.0866,0.0141 -1.8941,0.0141 -1.6476,0 -2.0329,-0.0057 -2.3559,-0.0354 -0.3245,-0.0297 -0.4335,-0.0694 -0.6701,-0.2437 -0.3585,-0.2635 -0.578,-0.6984 -0.578,-1.1418 0,-0.6602 0.459,-1.2368 1.0951,-1.3756 0.1785,-0.0397 0.3981,-0.0468 1.2155,-0.0454"/>
   <line id="_558295752" class="fil0 str0" x1="18.8172" y1="49.1917" x2="22.026" y2= "49.2031" />
   <path id="_558295584" class="fil0 str0" d="M29.8857 52.9672c-6.215,0.2324 -6.5323,0.2395 -9.6575,0.2395 -3.9015,0 -8.8132,-0.1205 -9.4068,-0.2324 -0.8132,-0.1516 -1.5258,-0.663 -1.9239,-1.3813 -0.2691,-0.4845 -0.4788,-1.1036 -0.5043,-1.4804"/>
   <line id="_558295704" class="fil0 str0" x1="8.3932" y1="50.1126" x2="8.3762" y2= "30.0751" />
   <path id="_558295632" class="fil0 str0" d="M8.3762 30.0751c-0.0085,-11.7231 -0.0113,-8.792 0.017,-20.5136 0.0397,-0.6262 0.4802,-1.6023 0.9336,-2.0627 0.442,-0.4505 1.0781,-0.765 1.6731,-0.8274 0.5369,-0.0566 3.6381,-0.1657 4.7048,-0.1657 0.5369,0 0.5837,0.0481 0.5865,0.6219 0.0057,0.969 0.0794,1.2226 0.3911,1.3487 0.3116,0.1261 0.9378,0.1544 3.3362,0.1544 2.8433,0 3.2329,-0.0312 3.4751,-0.2777 0.1941,-0.1983 0.2281,-0.3272 0.2281,-0.8897 0,-0.0722 0,-0.1685 0,-0.2904 0.0014,-0.6191 0.0496,-0.6729 0.6049,-0.6729"/>
   <line id="_558295824" class="fil0 str0" x1="24.3266" y1="6.5" x2="26.4077" y2= "6.5638" />
   <path id="_558295920" class="fil0 str0" d="M26.4077 6.5638c2.7768,0.085 2.9128,0.0977 3.4185,0.3357 0.9364,0.4392 1.489,1.2028 1.7638,2.4395 0.0354,0.1587 0.0396,0.2409 0.0396,0.7764"/>
   <line id="_558296064" class="fil0 str0" x1="31.6296" y1="10.1154" x2="31.624" y2= "50.1126" />
   <path id="_558296856" class="fil0 str0" d="M31.624 50.1126c-0.0354,0.5001 -0.3712,1.3543 -0.7041,1.7935 -0.5044,0.6673 -1.0555,0.9591 -2.1066,1.1164 -0.34,0.0581 -0.4491,0.119 -0.8642,0.4774"/>
  </g>
 </g>
</svg>
