<?xml version="1.0" encoding="UTF-8"?>
<!DOCTYPE svg PUBLIC "-//W3C//DTD SVG 1.1//EN" "http://www.w3.org/Graphics/SVG/1.1/DTD/svg11.dtd">
<!-- Creator: CorelDRAW 2020 (64-Bit) -->
<svg xmlns="http://www.w3.org/2000/svg" xml:space="preserve" width="40mm" height="60mm" version="1.1" style="shape-rendering:geometricPrecision; text-rendering:geometricPrecision; image-rendering:optimizeQuality; fill-rule:evenodd; clip-rule:evenodd"
viewBox="0 0 4000 6000"
 xmlns:xlink="http://www.w3.org/1999/xlink"
 xmlns:xodm="http://www.corel.com/coreldraw/odm/2003">
 <defs>
  <style type="text/css">
   <![CDATA[
    .str0 {stroke:black;stroke-width:7.62;stroke-miterlimit:22.9256}
    .fil0 {fill:none}
   ]]>
  </style>
 </defs>
 <g id="图层_x0020_1">
  <metadata id="CorelCorpID_0Corel-Layer"/>
  <path class="fil0 str0" d="M1373.52 920.72c9.47,-60.89 -41.72,-103.55 -67.12,-105.52 -90.36,0 -163.6,73.24 -163.6,163.6 0,90.36 73.24,163.6 163.6,163.6 90.35,0 163.6,-73.24 163.6,-163.6 0,-90.36 -73.25,-163.6 -163.6,-163.6m67.12 467.59c9.47,-60.88 -41.72,-103.55 -67.12,-105.51 -90.36,0 -163.6,73.24 -163.6,163.6 0,90.35 73.24,163.59 163.6,163.59 90.35,0 163.6,-73.24 163.6,-163.59 0,-90.36 -73.25,-163.6 -163.6,-163.6m67.12 467.49c9.47,-60.88 -41.72,-103.55 -67.12,-105.51 -90.36,0 -163.6,73.24 -163.6,163.6 0,90.35 73.24,163.6 163.6,163.6 90.35,0 163.6,-73.25 163.6,-163.6 0,-90.36 -73.25,-163.6 -163.6,-163.6m308.18 -576.11c-14.44,3.87 -25.05,9.13 -25.05,33.93l0 20.55c0,28.63 23.42,52.06 52.05,52.06l0.01 0c28.61,0 52.05,-23.43 52.05,-52.06l0 -65.44c0,-28.63 -23.42,-52.05 -52.05,-52.05l-0.01 0c-28.63,0 -52.05,23.43 -52.05,52.05l0 44.89m103.63 298.92c7.4,-47.6 -32.62,-80.96 -52.48,-82.49 -70.64,0 -127.91,57.26 -127.91,127.9 0,70.64 57.27,127.91 127.91,127.91 70.64,0 127.9,-57.27 127.9,-127.91 0,-70.64 -57.26,-127.9 -127.9,-127.9m-457.67 -429.46l543.75 0c67.52,0 122.76,55.24 122.76,122.77l0 868.6c0,67.52 -55.24,122.76 -122.76,122.76l-543.75 0c-67.52,0 -122.76,-55.24 -122.76,-122.76l0 -868.6c0,-67.53 55.24,-122.77 122.76,-122.77zm0.99 -30.48l539.53 0c81.74,0 148.62,66.87 148.62,148.61l0 878.38c0,81.74 -66.88,148.61 -148.62,148.61l-539.53 0c-81.74,0 -148.62,-66.87 -148.62,-148.61l0 -878.38c0,-81.74 66.88,-148.61 148.62,-148.61zm-165.03 4572.13l1783.48 0c138.25,0 251.37,-113.12 251.37,-251.37l0 -4167.28c0,-138.26 -113.11,-251.38 -251.37,-251.38l-1618.1 0c-138.26,0 -251.37,113.12 -251.37,251.38l0 4167.28c0,138.25 113.11,251.37 251.37,251.37l59.41 0c94.04,2.56 148.31,12.54 162.82,29.97"/>
 </g>
</svg>
