<?xml version="1.0" encoding="UTF-8"?>
<!DOCTYPE svg PUBLIC "-//W3C//DTD SVG 1.1//EN" "http://www.w3.org/Graphics/SVG/1.1/DTD/svg11.dtd">
<!-- Creator: CorelDRAW 2020 (64-Bit) -->
<svg xmlns="http://www.w3.org/2000/svg" xml:space="preserve" width="40mm" height="60mm" version="1.1" style="shape-rendering:geometricPrecision; text-rendering:geometricPrecision; image-rendering:optimizeQuality; fill-rule:evenodd; clip-rule:evenodd"
viewBox="0 0 4000 6000"
 xmlns:xlink="http://www.w3.org/1999/xlink"
 xmlns:xodm="http://www.corel.com/coreldraw/odm/2003">
 <defs>
  <style type="text/css">
   <![CDATA[
    .str0 {stroke:#332C2B;stroke-width:7.62;stroke-linejoin:bevel;stroke-miterlimit:22.9256}
    .fil0 {fill:none}
   ]]>
  </style>
 </defs>
 <g id="图层_x0020_1">
  <metadata id="CorelCorpID_0Corel-Layer"/>
  <path class="fil0 str0" d="M1061.95 5288l1758.66 0c55.31,-0.03 108.6,-22.04 147.68,-61.17 39.09,-39.13 61.02,-92.19 60.99,-147.49l0 -4215c-0.04,-55.31 -22.04,-108.6 -61.17,-147.68 -39.14,-39.09 -92.19,-61.02 -147.5,-60.99l-198.8 0c-9.97,0 -19.65,3.33 -27.51,9.46 -7.86,6.14 -17.54,9.47 -27.51,9.47l-150.96 0c-9.97,0 -19.64,-3.33 -27.5,-9.47 -7.86,-6.12 -17.55,-9.46 -27.51,-9.46l-1194.63 0c-55.31,0.04 -108.6,22.04 -147.68,61.17 -39.08,39.14 -61.02,92.19 -60.99,147.5l0 4215c0.04,55.3 22.04,108.6 61.17,147.68 39.14,39.08 92.19,61.02 147.5,60.98l50.55 0c106.98,0 167.04,26.9 185.35,67.67"/>
 </g>
</svg>
