<?xml version="1.0" encoding="UTF-8"?>
<!DOCTYPE svg PUBLIC "-//W3C//DTD SVG 1.1//EN" "http://www.w3.org/Graphics/SVG/1.1/DTD/svg11.dtd">
<!-- Creator: CorelDRAW -->
<svg xmlns="http://www.w3.org/2000/svg" xml:space="preserve" width="40mm" height="60mm" style="shape-rendering:geometricPrecision; text-rendering:geometricPrecision; image-rendering:optimizeQuality; fill-rule:evenodd; clip-rule:evenodd"
viewBox="0 0 40 60"
 xmlns:xlink="http://www.w3.org/1999/xlink">
 <defs>
  <style type="text/css">
   <![CDATA[
    .str0 {stroke:#1F1A17;stroke-width:0.194}
    .fil0 {fill:none;fill-rule:nonzero}
   ]]>
  </style>
 </defs>
 <g id="图层_x0020_5">
  <metadata id="CorelCorpID_0Corel-Layer"/>
  <path class="fil0 str0" d="M28.5921 53.0423l-16.6861 -0.0135c-1.1713,-0.0494 -2.2398,-1.0948 -2.2683,-2.1347m-0.0559 -42.3599c0.0778,-1.3877 1.0026,-2.4046 2.2454,-2.4704 0.3248,-0.0175 1.0905,-0.0297 1.9333,-0.0091l4.6506 0.0425 0.011 -0.0122 0.0438 -0.0427m-8.8282 44.8518l-0.0559 -42.3599m8.9609 -1.7614c0,-0.0416 0,-0.0833 0,-0.1239 0,-0.2918 -0.0142,-0.4048 -0.0768,-0.6066m0.0746 0.9028l0.0022 -0.1723m3.2054 -0.0833c0.001,0.4399 -0.0088,0.4717 -0.158,0.5211 -0.1065,0.035 -1.0882,0.0712 -1.9394,0.0712 -0.9972,0 -1.1123,-0.0339 -1.1102,-0.3367m3.167 -0.7789l0.0427 0.044 0.011 0.0109 -0.0154 0.023 0.0023 0.4454m1.4665 -0.5923c-0.0657,-0.011 -0.1656,-0.0154 -0.2983,-0.0154 -0.3335,0 -0.8084,0.0329 -1.2088,0.0844m1.5654 -0.113l-0.011 -0.0033 -0.0363 0.0351 -0.011 0.0122m0.1328 0.6767c-0.0154,-0.5177 -0.0154,-0.5177 -0.0745,-0.7207m0.0745 0.7482l0 -0.0275m0.9719 -0.5298c0.0033,0.1755 0.0056,0.3149 0.0056,0.418 0,0.5583 -0.1295,0.758 -0.4893,0.758 -0.3247,0 -0.4761,-0.192 -0.4882,-0.6187m0.9325 -0.6352l0.0427 0.044 0.0121 0.0109 -0.0154 0.023m6.4974 2.318c-0.0778,-1.3878 -1.0026,-2.4047 -2.2454,-2.4704 -0.3248,-0.0176 -1.0905,-0.0297 -1.9384,-0.0297 -1.6938,0 -2.1457,0.0198 -2.353,0.1042m6.4809 44.7557l0.0559 -42.3598m-2.2246 44.4802c1.0717,-0.0351 2.1402,-1.0804 2.1687,-2.1204"/>
 </g>
</svg>
