<?xml version="1.0" encoding="UTF-8"?>
<!DOCTYPE svg PUBLIC "-//W3C//DTD SVG 1.1//EN" "http://www.w3.org/Graphics/SVG/1.1/DTD/svg11.dtd">
<!-- Creator: CorelDRAW X8 -->
<svg xmlns="http://www.w3.org/2000/svg" xml:space="preserve" width="40mm" height="60mm" version="1.1" style="shape-rendering:geometricPrecision; text-rendering:geometricPrecision; image-rendering:optimizeQuality; fill-rule:evenodd; clip-rule:evenodd"
viewBox="0 0 4000 6000"
 xmlns:xlink="http://www.w3.org/1999/xlink">
 <defs>
  <style type="text/css">
   <![CDATA[
    .str1 {stroke:#222222;stroke-width:20}
    .str0 {stroke:#222222;stroke-width:10}
    .fil0 {fill:none}
   ]]>
  </style>
 </defs>
 <g id="图层_x0020_1">
  <metadata id="CorelCorpID_0Corel-Layer"/>
  <g id="_2443962009536">
   <path class="fil0 str0" d="M841 5138l1829 0c269,0 489,-220 489,-489l0 -3510c0,-269 -220,-489 -489,-489l-1269 0c-268,0 -488,220 -488,489l0 3510c0,269 220,489 488,489 269,0 368,124 368,212"/>
   <path class="fil0 str0" d="M1993 4984c0,-74 -91,-143 -144,-143 -52,0 -95,43 -95,96l0 0c0,52 43,95 95,95l382 0c53,0 96,-43 96,-95l0 0c0,-53 -43,-96 -96,-96l-382 0"/>
   <path class="fil0 str0" d="M1939 845c0,-51 -88,-64 -111,-64 -22,0 -41,18 -41,41l0 0c0,23 19,41 41,41l412 0c23,0 41,-18 41,-41l0 0c0,-23 -18,-41 -41,-41l-412 0"/>
   <path class="fil0 str0" d="M1302 841c0,-19 6,-70 41,-70 34,0 62,28 62,63 0,35 -28,63 -62,63 -35,0 -63,-28 -63,-63 0,-35 28,-63 63,-63"/>
  </g>
  <path class="fil0 str1" d="M-1252 6187l0 -4866c0,-715 -585,-1300 -1300,-1300l-9337 0c-715,0 -1300,585 -1300,1300l0 3375c0,715 585,1300 1300,1300l9337 0c715,0 1300,-585 1300,-1300 0,-715 329,-976 564,-976"/>
  <path class="fil0 str1" d="M-1661 3124c-199,0 -381,241 -381,381 0,139 115,254 254,254l0 0c140,0 255,-115 255,-254l0 -1016c0,-140 -115,-254 -255,-254l0 0c-139,0 -254,114 -254,254l0 1016"/>
  <path class="fil0 str1" d="M-12670 3265c-136,0 -171,236 -171,296 0,60 49,109 109,109l0 0c60,0 109,-49 109,-109l0 -1095c0,-61 -49,-110 -109,-110l0 0c-60,0 -109,49 -109,110l0 1095"/>
  <path class="fil0 str1" d="M-12680 4960c-53,0 -186,-16 -186,-108 0,-92 74,-166 166,-166 92,0 167,74 167,166 0,92 -75,167 -167,167 -92,0 -166,-75 -166,-167"/>
 </g>
</svg>
