<?xml version="1.0" encoding="UTF-8"?>
<!DOCTYPE svg PUBLIC "-//W3C//DTD SVG 1.1//EN" "http://www.w3.org/Graphics/SVG/1.1/DTD/svg11.dtd">
<!-- Creator: CorelDRAW X8 -->
<svg xmlns="http://www.w3.org/2000/svg" xml:space="preserve" width="40mm" height="60mm" version="1.1" style="shape-rendering:geometricPrecision; text-rendering:geometricPrecision; image-rendering:optimizeQuality; fill-rule:evenodd; clip-rule:evenodd"
viewBox="0 0 4000 6000"
 xmlns:xlink="http://www.w3.org/1999/xlink">
 <defs>
  <style type="text/css">
   <![CDATA[
    .str0 {stroke:black;stroke-width:20}
    .fil0 {fill:none}
   ]]>
  </style>
 </defs>
 <g id="图层_x0020_1">
  <metadata id="CorelCorpID_0Corel-Layer"/>
  <path class="fil0 str0" d="M1121 650l1758 0c154,0 279,126 279,280l0 4140c0,154 -125,280 -279,280l-1758 0c-154,0 -279,-126 -279,-280l0 -4140c0,-154 125,-280 279,-280zm706 179l363 0c21,0 38,17 38,37l0 0c0,21 -17,38 -38,38l-363 0c-20,0 -37,-17 -37,-38l0 0c0,-20 17,-37 37,-37zm-226 -16l87 0c29,0 53,24 53,53l0 0c0,30 -24,54 -53,54l-87 0c-29,0 -53,-24 -53,-54l0 0c0,-29 24,-53 53,-53zm824 -4c32,0 58,25 58,57 0,32 -26,58 -58,58 -32,0 -58,-26 -58,-58 0,-32 26,-57 58,-57z"/>
 </g>
</svg>
