<?xml version="1.0" encoding="UTF-8"?>
<!DOCTYPE svg PUBLIC "-//W3C//DTD SVG 1.1//EN" "http://www.w3.org/Graphics/SVG/1.1/DTD/svg11.dtd">
<!-- Creator: CorelDRAW X8 -->
<svg xmlns="http://www.w3.org/2000/svg" xml:space="preserve" width="40mm" height="60mm" version="1.1" style="shape-rendering:geometricPrecision; text-rendering:geometricPrecision; image-rendering:optimizeQuality; fill-rule:evenodd; clip-rule:evenodd"
viewBox="0 0 4000 6000"
 xmlns:xlink="http://www.w3.org/1999/xlink">
 <defs>
  <style type="text/css">
   <![CDATA[
    .str0 {stroke:#332C2B;stroke-width:7.62}
    .fil0 {fill:none}
   ]]>
  </style>
 </defs>
 <g id="图层_x0020_1">
  <metadata id="CorelCorpID_0Corel-Layer"/>
  <path class="fil0 str0" d="M1389 1020c2,-45 -52,-81 -71,-83 -69,0 -126,56 -126,126 0,69 57,125 126,125 69,0 125,-56 125,-125 0,-70 -56,-126 -125,-126m369 83c2,-45 -51,-81 -71,-83 -69,0 -125,56 -125,126 0,69 56,125 125,125 70,0 126,-56 126,-125 0,-70 -56,-126 -126,-126m-222 378c2,-45 -52,-81 -72,-83 -69,0 -125,56 -125,126 0,69 56,125 125,125 70,0 126,-56 126,-125 0,-70 -56,-126 -126,-126m367 82c2,-46 -51,-81 -71,-83 -69,0 -125,56 -125,125 0,70 56,126 125,126 69,0 126,-56 126,-126 0,-69 -57,-125 -126,-125m-379 -334l455 0c45,0 83,38 83,83l0 455c0,45 -38,82 -83,82l-455 0c-45,0 -82,-37 -82,-82l0 -455c0,-45 37,-83 82,-83zm0 -79l455 0c89,0 162,73 162,162l0 455c0,89 -73,162 -162,162l-455 0c-89,0 -162,-73 -162,-162l0 -455c0,-89 73,-162 162,-162zm-335 4460l1925 0c144,0 263,-112 273,-254 4,-47 8,-46 60,-46l64 0c8,0 14,-6 14,-14l0 -2087c0,-8 -3,-11 -9,-11l-77 0c-16,0 -29,-13 -29,-29l0 -678c0,-16 13,-29 29,-29l77 0c7,0 9,-3 9,-8l0 -380c0,-10 -3,-13 -12,-13l-74 0c-16,0 -29,-13 -29,-28l0 -523c0,-15 13,-28 29,-28l76 0c8,0 10,-5 10,-10l0 -121c0,-8 -6,-14 -14,-14l-81 0c-28,0 -42,-11 -42,-46l0 -35c0,-151 -123,-274 -274,-274l-1658 0c-151,0 -274,123 -274,274l0 56c0,22 -16,33 -33,33l-90 0c-8,0 -14,7 -14,15l0 1240c0,6 2,10 10,10l94 0c19,0 34,15 34,34l0 385c0,19 -15,35 -34,35l-93 0c-6,0 -11,2 -11,11l0 2230c0,8 6,14 14,14l92 0c23,0 31,2 31,18 0,150 123,273 274,273l66 0c54,0 118,33 139,72"/>
 </g>
</svg>
