<?xml version="1.0" encoding="UTF-8"?>
<!DOCTYPE svg PUBLIC "-//W3C//DTD SVG 1.1//EN" "http://www.w3.org/Graphics/SVG/1.1/DTD/svg11.dtd">
<!-- Creator: CorelDRAW X8 -->
<svg xmlns="http://www.w3.org/2000/svg" xml:space="preserve" width="40mm" height="60mm" version="1.1" style="shape-rendering:geometricPrecision; text-rendering:geometricPrecision; image-rendering:optimizeQuality; fill-rule:evenodd; clip-rule:evenodd"
viewBox="0 0 4000 6000"
 xmlns:xlink="http://www.w3.org/1999/xlink">
 <defs>
  <style type="text/css">
   <![CDATA[
    .str0 {stroke:#332C2B;stroke-width:10}
    .fil0 {fill:none}
   ]]>
  </style>
 </defs>
 <g id="图层_x0020_1">
  <metadata id="CorelCorpID_0Corel-Layer"/>
  <path class="fil0 str0" d="M1629 855c-12,3 -21,8 -21,28l0 18c0,24 19,44 43,44l0 0c25,0 44,-20 44,-44l0 -107c0,-24 -19,-44 -44,-44l0 0c-24,0 -43,20 -43,44l0 89m158 -16c-11,3 -19,7 -19,26l0 15c0,22 18,40 39,40l0 0c22,0 40,-18 40,-40l0 -114c0,-21 -18,-39 -40,-39l0 0c-21,0 -39,18 -39,39l0 99m297 -70c2,-30 -34,-54 -47,-55 -46,0 -83,37 -83,83 0,46 37,83 83,83 46,0 83,-37 83,-83 0,-46 -37,-83 -83,-83m275 70c1,-17 -19,-31 -26,-31 -26,0 -47,21 -47,47 0,26 21,47 47,47 26,0 47,-21 47,-47 0,-26 -21,-47 -47,-47m-1274 4543l1921 0c129,0 235,-106 235,-235l0 -4230c0,-129 -106,-235 -235,-235l-1786 0c-129,0 -235,106 -235,235l0 4230c0,129 106,235 235,235l219 0"/>
 </g>
</svg>
