<?xml version="1.0" encoding="UTF-8"?>
<!DOCTYPE svg PUBLIC "-//W3C//DTD SVG 1.1//EN" "http://www.w3.org/Graphics/SVG/1.1/DTD/svg11.dtd">
<!-- Creator: CorelDRAW 2020 (64-Bit) -->
<svg xmlns="http://www.w3.org/2000/svg" xml:space="preserve" width="40mm" height="60mm" version="1.1" style="shape-rendering:geometricPrecision; text-rendering:geometricPrecision; image-rendering:optimizeQuality; fill-rule:evenodd; clip-rule:evenodd"
viewBox="0 0 4000 6000"
 xmlns:xlink="http://www.w3.org/1999/xlink"
 xmlns:xodm="http://www.corel.com/coreldraw/odm/2003">
 <defs>
  <style type="text/css">
   <![CDATA[
    .str1 {stroke:#332C2B;stroke-width:20;stroke-miterlimit:22.9256}
    .str0 {stroke:#332C2B;stroke-width:20;stroke-miterlimit:22.9256}
    .fil0 {fill:none}
   ]]>
  </style>
 </defs>
 <g id="图层_x0020_1">
  <metadata id="CorelCorpID_0Corel-Layer"/>
  <g id="_1497798873392">
   <g>
    <path class="fil0 str0" d="M868.11 700.77l0 127.89c0,53.59 46.77,50.25 73.08,50.25 10.75,0 16.36,-7.09 22.84,-11.42 7.34,10.96 15.92,11.42 27.4,11.42 13.54,0 19.36,-6.03 27.41,-11.42 5.15,14.21 38.74,17.17 50.24,0 21.31,14.26 11.95,11.42 47.96,11.42 -3.84,5.74 -9.03,8.03 -14.32,13.09 -5.57,5.33 -9.31,9.44 -14.8,14.88 -28.32,28.06 -55.38,80.29 -55.38,122.76l-123.32 0c-24.16,0 -38.83,12.88 -38.83,36.54l0 765.06c0,38.35 24.65,41.11 54.82,41.11 28.09,0 47.51,-2.29 75.36,-2.29l0 1228.67 -93.64 0c-21.98,0 -36.54,14.56 -36.54,36.54l0 1797.33c0,21.48 11.41,38.82 29.69,38.82l132.46 0c0,32.43 17.28,68.85 29.53,89.23 6.78,11.28 16.51,24.32 25.83,33.55l22.84 20.55c3.29,2.74 5.75,4.94 8.58,7.4 -8.63,0 -21.36,-0.74 -29.51,0.17 -12.98,1.47 -12.5,5.74 -20.73,11.25 -4.8,-13.25 -18.33,-11.42 -31.97,-11.42 -8.63,0 -15.23,5.57 -20.56,9.14 -17.02,-11.4 -40.91,-15.06 -52.52,2.28 -20.97,-14.04 -7.68,-11.42 -52.53,-11.42 -26.01,0 -43.39,23.67 -43.39,50.25l0 127.89c0,44.74 32.61,49.79 58.69,50.24l14.39 0c9.44,0 16.7,-5.67 20.55,-11.42 13.44,9 10.16,11.42 29.69,11.42 15.46,0 18.73,-5.61 27.41,-11.42 2.23,6.17 9.82,10.21 18.63,11.42l11.16 0c8.18,-1.11 15.98,-4.74 20.45,-11.42 6.48,4.34 12.09,11.42 22.84,11.42l1813.32 0c10.75,0 16.36,-7.08 22.84,-11.42 7.22,10.79 15.65,11.4 26.87,11.42l0.53 0c15.46,0 18.73,-5.61 27.41,-11.42 1.76,4.86 1.35,4.98 7.72,8.26 2.76,1.42 6.83,2.61 11.44,3.16l10.71 0c7.8,-0.97 15.57,-4.25 20.37,-11.42 15.47,10.36 11.87,11.35 27.28,11.42l8.05 0 1.21 0c27.87,0 47.96,-19.59 47.96,-43.39l0 -141.6c0,-23.34 -20.05,-43.39 -43.39,-43.39 -35.42,0 -23.59,-0.31 -41.11,11.42 -4.8,-13.25 -18.33,-11.42 -31.97,-11.42 -8.64,0 -15.24,5.57 -20.56,9.14 -17.02,-11.4 -40.91,-15.06 -52.52,2.28 -8.98,-6.01 -7.76,-10.33 -22.84,-11.41 -10.94,-0.79 -25.24,-0.01 -36.54,-0.01 4.6,-6.87 36.28,-28.45 56.38,-62.37 12.49,-21.06 29.71,-57.17 30.4,-88.36l130.18 0c19.01,0 31.97,-12.96 31.97,-31.97l0 -3880.12c0,-16.45 -16.6,-29.69 -34.26,-29.69l-127.89 0c-1.01,-45.37 -34.62,-107.36 -71.12,-136.71 -3.54,-2.85 -13.6,-11.21 -15.66,-14.02 42.36,0 35.58,4.51 59.38,-11.42 7.34,10.96 15.92,11.42 27.4,11.42 13.54,0 19.36,-6.03 27.41,-11.42 5.14,14.21 38.74,17.17 50.24,0 18.82,12.6 10.33,11.42 38.83,11.42 23.95,0 45.67,-19.49 45.67,-43.39l0 -141.6c0,-23.34 -20.05,-43.39 -43.39,-43.39l-7.47 0c-26.28,0.02 -17.49,0.6 -33.64,11.42 -3.24,-8.95 -10.46,-11.02 -19,-11.42l-12.33 0 -0.64 0c-8.64,0 -15.24,5.57 -20.56,9.14 -6.57,-4.41 -14.31,-7.79 -22,-9.14l-13.66 0c-6.57,1.35 -12.5,4.9 -16.86,11.42 -7.31,-4.89 -9.09,-11.42 -20.56,-11.42l-1813.32 0c-16.2,0 -16.05,5.34 -25.12,11.42 -3.24,-8.95 -10.45,-11.02 -19,-11.42l-12.33 0 -0.64 0c-8.63,0 -15.23,5.57 -20.56,9.14 -6.57,-4.41 -14.31,-7.79 -22,-9.14l-13.65 0c-6.58,1.35 -12.5,4.9 -16.87,11.42 -12.93,-8.66 -10.28,-10.92 -19.68,-11.42l-32.85 0c-26.01,0 -43.39,23.66 -43.39,50.24z"/>
    <path class="fil0 str0" d="M1133.03 1075.31l0 790.19c0,62.75 58.28,121.04 121.04,121.04l507 0c50.54,0 97.06,-39.83 112.24,-81.88 5.7,-15.79 8.8,-35.26 8.8,-57.43l0 -751.37c0,-44.88 -11.83,-77.24 -34.81,-99.93 -26.5,-26.17 -52.2,-41.66 -95.37,-41.66l-486.44 0c-74.88,0 -132.46,56.24 -132.46,121.04z"/>
    <path class="fil0 str0" d="M1265.49 5218.07l0 47.96c0,21.75 21.55,41.11 43.39,41.11l344.85 0c24.46,0 43.39,-23.21 43.39,-38.83l0 -52.52c0,-16.74 -22.08,-38.83 -38.82,-38.83l-351.71 0c-21.06,0 -41.1,20.05 -41.1,41.11z"/>
    <path class="fil0 str0" d="M1854.7 5204.37c0,34.51 -8.46,100.49 45.68,100.49l237.51 0c59.84,0 47.96,-62.39 47.96,-107.34 0,-22.57 -20.83,-43.39 -43.39,-43.39l-242.08 0c-26.37,0 -45.68,23.11 -45.68,50.24z"/>
    <path class="fil0 str0" d="M2370.84 5238.62c0,79.17 108.52,70.72 106.52,2.55 -0.84,-28.36 -25.4,-52.79 -54,-52.79 -25.98,0 -52.52,24.35 -52.52,50.24z"/>
   </g>
   <path class="fil0 str1" d="M2636.14 5171.27c36.06,0 65.3,29.24 65.3,65.3 0,36.07 -29.24,65.3 -65.3,65.3 -36.07,0 -65.3,-29.23 -65.3,-65.3 0,-36.06 29.23,-65.3 65.3,-65.3z"/>
   <path class="fil0 str1" d="M1268.64 1011.59l477.26 0c44.5,0 80.92,36.42 80.92,80.92l0 758.81c0,44.51 -36.42,80.92 -80.92,80.92l-477.26 0c-44.51,0 -80.92,-36.41 -80.92,-80.92l0 -758.81c0,-44.5 36.41,-80.92 80.92,-80.92z"/>
   <path class="fil0 str1" d="M1357.41 1056.56c88.98,0 161.11,72.13 161.11,161.12 0,88.98 -72.13,161.11 -161.11,161.11 -88.98,0 -161.11,-72.13 -161.11,-161.11 0,-88.99 72.13,-161.12 161.11,-161.12z"/>
   <path class="fil0 str1" d="M1357.41 1097.96c66.12,0 119.72,53.6 119.72,119.72 0,66.11 -53.6,119.71 -119.72,119.71 -66.12,0 -119.72,-53.6 -119.72,-119.71 0,-66.12 53.6,-119.72 119.72,-119.72z"/>
   <path class="fil0 str1" d="M1357.41 1511.71c66.12,0 119.72,53.6 119.72,119.72 0,66.12 -53.6,119.72 -119.72,119.72 -66.12,0 -119.72,-53.6 -119.72,-119.72 0,-66.12 53.6,-119.72 119.72,-119.72z"/>
   <path class="fil0 str1" d="M1661.26 1511.71c66.12,0 119.72,53.6 119.72,119.72 0,66.12 -53.6,119.72 -119.72,119.72 -66.12,0 -119.72,-53.6 -119.72,-119.72 0,-66.12 53.6,-119.72 119.72,-119.72z"/>
   <path class="fil0 str1" d="M1263.02 1829.12l119.54 0c21.2,0 38.54,17.34 38.54,38.54l0 0c0,21.2 -17.34,38.54 -38.54,38.54l-119.54 0c-21.19,0 -38.54,-17.34 -38.54,-38.54l0 0c0,-21.2 17.35,-38.54 38.54,-38.54z"/>
   <path class="fil0 str1" d="M2210.29 726.85l531.98 0c14.84,0 26.98,12.13 26.98,26.97l0 50.25c0,14.83 -12.14,26.97 -26.98,26.97l-531.98 0c-14.84,0 -26.98,-12.14 -26.98,-26.97l0 -50.25c0,-14.84 12.14,-26.97 26.98,-26.97z"/>
  </g>
 </g>
</svg>
