<?xml version="1.0" encoding="UTF-8"?>
<!DOCTYPE svg PUBLIC "-//W3C//DTD SVG 1.1//EN" "http://www.w3.org/Graphics/SVG/1.1/DTD/svg11.dtd">
<!-- Creator: CorelDRAW -->
<svg xmlns="http://www.w3.org/2000/svg" xml:space="preserve" width="40mm" height="60mm" style="shape-rendering:geometricPrecision; text-rendering:geometricPrecision; image-rendering:optimizeQuality; fill-rule:evenodd; clip-rule:evenodd"
viewBox="0 0 40 60"
 xmlns:xlink="http://www.w3.org/1999/xlink">
 <defs>
  <style type="text/css">
   <![CDATA[
    .str0 {stroke:#1F1A17;stroke-width:0.194}
    .fil0 {fill:none;fill-rule:nonzero}
   ]]>
  </style>
 </defs>
 <g id="图层_x0020_1">
  <metadata id="CorelCorpID_0Corel-Layer"/>
  <g id="_156126344">
   <g>
    <line id="_156120464" class="fil0 str0" x1="30.407" y1="6.5596" x2="30.407" y2= "6.8622" />
    <polyline id="_156125840" class="fil0 str0" points="9.6239,52.4433 9.6324,52.5413 9.6697,52.5413 9.7304,52.4731 9.7304,52.4433 28.2062,52.4465 "/>
    <path id="_156125600" class="fil0 str0" d="M28.2062 52.4465c0.4485,-0.0171 0.621,-0.0512 0.9023,-0.1758 0.6327,-0.2802 1.0748,-0.8181 1.2719,-1.5457 0.0255,-0.0937 0.0266,-0.1161 0.0266,-0.6104"/>
    <line id="_156016632" class="fil0 str0" x1="30.407" y1="50.1146" x2="30.456" y2= "8.8851" />
    <path id="_156016944" class="fil0 str0" d="M30.456 8.8851c-0.0319,-0.7649 -0.2834,-1.3433 -0.7776,-1.7864 -0.2695,-0.2429 -0.5944,-0.4102 -0.947,-0.4901"/>
    <line id="_156016992" class="fil0 str0" x1="28.7314" y1="6.6086" x2="28.7111" y2= "6.6033" />
    <path id="_156016680" class="fil0 str0" d="M28.7111 6.6033c-0.1992,-0.0447 -0.1992,-0.0447 -1.5158,-0.0447"/>
    <polyline id="_156017352" class="fil0 str0" points="27.1953,6.5586 23.8163,6.5596 23.8163,6.5905 23.7406,6.6129 23.7491,6.6203 23.7491,6.6353 "/>
    <path id="_156018072" class="fil0 str0" d="M23.7491 6.6353c0.0054,0.0053 0.0129,0.0106 0.0224,0.0149"/>
    <polyline id="_156017880" class="fil0 str0" points="23.7715,6.6502 23.779,6.6662 23.7257,6.7333 23.7332,6.7333 23.7406,6.7418 23.7491,6.7418 23.681,6.9229 23.6735,6.9154 23.6661,6.9154 23.6576,6.9069 23.6576,6.8994 23.6501,6.8994 23.5979,6.9602 23.5755,6.9303 23.5755,6.9229 23.567,6.9154 23.4839,6.9453 23.4839,6.9154 20.6461,6.9154 20.6461,6.9527 20.5481,6.99 20.5992,7.0369 20.6077,7.0432 "/>
    <path id="_156017640" class="fil0 str0" d="M20.6077 7.0432c-0.0149,0.0895 -0.0298,0.4485 -0.0298,0.7106"/>
    <line id="_156017448" class="fil0 str0" x1="20.5779" y1="7.7538" x2="20.5779" y2= "7.8134" />
    <path id="_156017736" class="fil0 str0" d="M20.5779 7.8134c0,0.3441 -0.2301,0.5838 -0.5625,0.5838 -0.3302,0 -0.5517,-0.2535 -0.557,-0.637 -0.0139,-0.898 -0.016,-0.9439 -0.0427,-0.9439 -0.0042,-0.001 -0.0117,0.0086 -0.0223,0.0309"/>
    <polyline id="_156017400" class="fil0 str0" points="19.3934,6.8472 19.3252,6.9069 19.2272,6.8696 19.2272,6.9154 16.3808,6.9154 16.3808,6.8771 16.3883,6.8696 16.3126,6.8398 "/>
    <path id="_156018120" class="fil0 str0" d="M16.3126 6.8398c0.0064,-0.0117 0.0107,-0.0192 0.015,-0.0235"/>
    <polyline id="_156017568" class="fil0 str0" points="16.3276,6.8163 16.3276,6.8089 16.335,6.8014 16.2828,6.7418 16.2903,6.7333 16.2977,6.7333 16.3052,6.7258 16.3126,6.7258 16.2445,6.5522 16.2445,6.5596 16.2221,6.5596 16.1699,6.5 16.1315,6.5522 16.0559,6.5298 16.0559,6.5596 13.1648,6.5596 "/>
    <path id="_156017472" class="fil0 str0" d="M13.1648 6.5596c-1.6181,0 -1.6181,0 -1.7907,0.0395"/>
    <line id="_156017616" class="fil0 str0" x1="11.3741" y1="6.5991" x2="11.3358" y2= "6.6076" />
    <path id="_156017664" class="fil0 str0" d="M11.3358 6.6076c-0.8054,0.1843 -1.4008,0.7872 -1.6512,1.6703"/>
    <line id="_156018648" class="fil0 str0" x1="9.6846" y1="8.2779" x2="9.6729" y2= "8.3099" />
    <path id="_156018384" class="fil0 str0" d="M9.6729 8.3099c-0.0234,0.0489 -0.0234,0.0489 -0.0288,2.2317"/>
    <line id="_156018336" class="fil0 str0" x1="9.6441" y1="10.5416" x2="9.544" y2= "49.5671" />
    <path id="_156018768" class="fil0 str0" d="M9.544 49.5671c0.0224,0.6967 0.0607,0.9512 0.2003,1.355 0.31,0.8969 0.9172,1.4125 1.7992,1.5276"/>
    <polyline id="_156018720" class="fil0 str0" points="11.5435,52.4497 11.9217,52.4986 11.9366,52.5029 "/>
    <path id="_156018288" class="fil0 str0" d="M11.9366 52.5029c0.4261,0.1076 0.7148,0.4208 0.9193,0.9971"/>
   </g>
  </g>
 </g>
</svg>
