<?xml version="1.0" encoding="UTF-8"?>
<!DOCTYPE svg PUBLIC "-//W3C//DTD SVG 1.1//EN" "http://www.w3.org/Graphics/SVG/1.1/DTD/svg11.dtd">
<!-- Creator: CorelDRAW X8 -->
<svg xmlns="http://www.w3.org/2000/svg" xml:space="preserve" width="40mm" height="60mm" version="1.1" style="shape-rendering:geometricPrecision; text-rendering:geometricPrecision; image-rendering:optimizeQuality; fill-rule:evenodd; clip-rule:evenodd"
viewBox="0 0 4000 6000"
 xmlns:xlink="http://www.w3.org/1999/xlink">
 <defs>
  <style type="text/css">
   <![CDATA[
    .str0 {stroke:#332C2B;stroke-width:20}
    .fil0 {fill:none}
   ]]>
  </style>
 </defs>
 <g id="图层_x0020_1">
  <metadata id="CorelCorpID_0Corel-Layer"/>
  <path class="fil0 str0" d="M873 5275l2123 0c72,0 131,-59 131,-131l0 -4363c0,-72 -59,-131 -131,-131l-741 0c0,0 -40,-1 -40,29l0 44c0,27 -22,49 -49,49l-293 0c-26,0 -49,-22 -49,-49l0 -44c0,-28 -44,-29 -44,-29l-112 0c0,0 -41,-2 -41,45l0 28c0,45 -37,81 -81,81l-280 0c-45,0 -82,-36 -82,-81l0 -28c0,-44 -64,-45 -64,-45l-84 0c-72,0 -131,59 -131,131l0 4363c0,72 59,131 131,131 72,0 129,43 129,75"/>
  <path class="fil0 str0" d="M-1728 6584l0 -6255c0,-214 -177,-389 -394,-389l-13173 0c-217,0 -394,175 -394,389l0 2203c0,0 -4,120 85,120l133 0c82,0 148,66 148,146l0 868c0,80 -66,146 -148,146l-133 0c-84,0 -85,132 -85,132l0 334c0,0 -9,120 134,120l84 0c136,0 247,110 247,243l0 831c0,133 -111,242 -247,242l-84 0c-132,0 -136,192 -136,192l0 250c0,214 179,389 396,389l13173 0c217,0 394,-175 394,-389 0,-213 125,-410 237,-410"/>
 </g>
</svg>
