<?xml version="1.0" encoding="UTF-8"?>
<!DOCTYPE svg PUBLIC "-//W3C//DTD SVG 1.1//EN" "http://www.w3.org/Graphics/SVG/1.1/DTD/svg11.dtd">
<!-- Creator: CorelDRAW 2020 (64-Bit) -->
<svg xmlns="http://www.w3.org/2000/svg" xml:space="preserve" width="40mm" height="60mm" version="1.1" style="shape-rendering:geometricPrecision; text-rendering:geometricPrecision; image-rendering:optimizeQuality; fill-rule:evenodd; clip-rule:evenodd"
viewBox="0 0 4000 6000"
 xmlns:xlink="http://www.w3.org/1999/xlink"
 xmlns:xodm="http://www.corel.com/coreldraw/odm/2003">
 <defs>
  <style type="text/css">
   <![CDATA[
    .str1 {stroke:#332C2B;stroke-width:20;stroke-miterlimit:22.9256}
    .str2 {stroke:#332C2B;stroke-width:20;stroke-miterlimit:22.9256}
    .str0 {stroke:#E62129;stroke-width:20;stroke-miterlimit:22.9256}
    .fil0 {fill:none}
   ]]>
  </style>
   <clipPath id="id0">
    <rect x="-60372.3" y="-5838.62" width="16183.21" height="16768.15"/>
   </clipPath>
 </defs>
 <g id="图层_x0020_1">
  <metadata id="CorelCorpID_0Corel-Layer"/>
  <g style="clip-path:url(#id0)">
   <image x="-60372.3" y="-5838.62" width="16183.21" height="16768.15" xlink:href="13 Pro -11i（背膜）_Images\13 Pro -11i（背膜）_ImgID1.png"/>
  </g>
  <rect class="fil0 str0" x="-52005.14" y="-5580.73" width="7460" height="16290"/>
  <rect class="fil0 str0" x="-51947.19" y="-5521.2" width="7344.1" height="16095.62" rx="800" ry="864.65"/>
  <rect class="fil0 str1" x="-51386.87" y="-4962.6" width="4153.24" height="4217.46" rx="694.83" ry="710.82"/>
  <rect class="fil0 str1" x="-51221.99" y="-4795.17" width="3823.48" height="3882.6" rx="639.67" ry="654.38"/>
  <rect class="fil0 str1" x="-51206.45" y="-4779.39" width="3792.4" height="3851.04" rx="545.95" ry="558.51"/>
  <path class="fil0 str1" d="M-50221.25 -4218.3c-190.69,0 -345.28,154.59 -345.28,345.28 0,190.69 154.59,345.28 345.28,345.28 190.69,0 345.28,-154.59 345.28,-345.28 0,-190.69 -154.59,-345.28 -345.28,-345.28 -190.69,0 -240.77,242.1 -240.77,271.2"/>
  <path class="fil0 str1" d="M-48330.42 -4218.3c-190.69,0 -345.28,154.59 -345.28,345.28 0,190.69 154.59,345.28 345.28,345.28 190.69,0 345.28,-154.59 345.28,-345.28 0,-190.69 -154.59,-345.28 -345.28,-345.28 -190.69,0 -240.77,242.1 -240.77,271.2"/>
  <path class="fil0 str1" d="M-50221.25 -2466.77c-249.88,0 -452.45,202.57 -452.45,452.45 0,249.88 202.57,452.45 452.45,452.45 249.88,0 452.45,-202.57 452.45,-452.45 0,-249.88 -202.57,-452.45 -452.45,-452.45 -249.88,0 -315.5,317.24 -315.5,355.38"/>
  <rect class="fil0 str1" x="-48610.9" y="-3158.65" width="556.95" height="292.37" rx="100" ry="100"/>
  <rect class="fil0 str1" x="-48823.85" y="-1831.77" width="850.65" height="226.24" rx="205.11" ry="217.85"/>
  <path class="fil0 str2" d="M-2166.73 6010.96l0 -6156.85c0,-439.99 -360.01,-800.01 -800,-800.01l-14495.62 0c-440,0 -800,360.01 -800,800.01l0 5744.09c0,440 360,800 800,800l14495.62 0c440,0 800,-360 800,-800 0,-440 36.61,-630.42 102.76,-752.13"/>
  <path class="fil0 str2" d="M-17703.75 5137.89l0 -2753.24c0,-385 315,-700 700,-700l2817.46 0c385,0 700,315 700,700l0 2753.24c0,385 -315,700 -700,700l-2817.46 0c-385,0 -700,-315 -700,-700z"/>
  <path class="fil0 str2" d="M-17520.54 5107.47l0 -2692.4c0,-302.5 247.5,-550 550,-550l2751.04 0c302.5,0 550,247.5 550,550l0 2692.4c0,302.5 -247.5,550 -550,550l-2751.04 0c-302.5,0 -550,-247.5 -550,-550z"/>
  <path class="fil0 str2" d="M-16959.45 4672.27c0,190.69 154.59,345.28 345.28,345.28 190.69,0 345.28,-154.59 345.28,-345.28 0,-190.69 -154.59,-345.28 -345.28,-345.28 -190.69,0 -345.28,154.59 -345.28,345.28 0,190.69 242.1,240.77 271.2,240.77"/>
  <path class="fil0 str2" d="M-16959.45 2781.44c0,190.69 154.59,345.28 345.28,345.28 190.69,0 345.28,-154.59 345.28,-345.28 0,-190.69 -154.59,-345.28 -345.28,-345.28 -190.69,0 -345.28,154.59 -345.28,345.28 0,190.69 242.1,240.77 271.2,240.77"/>
  <path class="fil0 str2" d="M-15207.92 4672.27c0,249.88 202.57,452.45 452.45,452.45 249.88,0 452.45,-202.57 452.45,-452.45 0,-249.88 -202.57,-452.45 -452.45,-452.45 -249.88,0 -452.45,202.57 -452.45,452.45 0,249.88 317.24,315.5 355.38,315.5"/>
  <path class="fil0 str2" d="M-15899.79 2961.91c0,55 45,100 100,100l92.37 0c55,0 100,-45 100,-100l0 -356.95c0,-55 -45,-100 -100,-100l-92.37 0c-55,0 -100,45 -100,100l0 356.95c0,0 4.37,-224.2 62.91,-255.29"/>
  <path class="fil0 str2" d="M-14572.92 3161.75c0,62.22 50.89,113.11 113.11,113.11l0.02 0c62.22,0 113.11,-50.89 113.11,-113.11l0 -624.43c0,-62.22 -50.89,-113.11 -113.11,-113.11l-0.02 0c-62.22,0 -113.11,50.89 -113.11,113.11l0 624.43c0,0 4.44,-228.29 58.68,-281.87"/>
  <g id="_2642596516096">
   <path class="fil0 str2" d="M1040.3 5325.85l1786.43 0c127.66,0 232.12,-104.45 232.12,-232.12l0 -4205.94c0,-127.67 -104.45,-232.12 -232.12,-232.12l-1666.66 0c-127.67,0 -232.12,104.45 -232.12,232.12l0 4205.94c0,127.67 104.45,232.12 232.12,232.12 127.66,0 182.92,10.63 218.23,29.82"/>
   <path class="fil0 str2" d="M1293.63 817.75l798.86 0c111.71,0 203.1,91.4 203.1,203.11l0 817.49c0,111.71 -91.39,203.11 -203.1,203.11l-798.86 0c-111.71,0 -203.11,-91.4 -203.11,-203.11l0 -817.49c0,-111.71 91.4,-203.11 203.11,-203.11z"/>
   <path class="fil0 str2" d="M1302.45 870.91l781.21 0c87.77,0 159.58,71.81 159.58,159.58l0 798.22c0,87.77 -71.81,159.59 -159.58,159.59l-781.21 0c-87.77,0 -159.58,-71.82 -159.58,-159.59l0 -798.22c0,-87.77 71.81,-159.58 159.58,-159.58z"/>
   <path class="fil0 str2" d="M1428.73 1033.71c-55.33,0 -100.19,44.85 -100.19,100.18 0,55.33 44.86,100.19 100.19,100.19 55.33,0 100.18,-44.86 100.18,-100.19 0,-55.33 -44.85,-100.18 -100.18,-100.18 -55.33,0 -69.86,70.25 -69.86,78.69"/>
   <path class="fil0 str2" d="M1977.36 1033.71c-55.33,0 -100.19,44.85 -100.19,100.18 0,55.33 44.86,100.19 100.19,100.19 55.33,0 100.18,-44.86 100.18,-100.19 0,-55.33 -44.85,-100.18 -100.18,-100.18 -55.33,0 -69.86,70.25 -69.86,78.69"/>
   <path class="fil0 str2" d="M1428.73 1541.92c-72.5,0 -131.28,58.78 -131.28,131.28 0,72.5 58.78,131.28 131.28,131.28 72.5,0 131.28,-58.78 131.28,-131.28 0,-72.5 -58.78,-131.28 -131.28,-131.28 -72.5,0 -91.55,92.05 -91.55,103.11"/>
   <path class="fil0 str2" d="M1924.99 1341.17c-15.95,0 -29.01,13.06 -29.01,29.02l0 26.8c0,15.96 13.06,29.01 29.01,29.01l103.57 0c15.96,0 29.02,-13.05 29.02,-29.01l0 -26.8c0,-15.96 -13.06,-29.02 -29.02,-29.02l-103.57 0c0,0 65.06,1.27 74.08,18.26"/>
   <path class="fil0 str2" d="M1867.01 1726.17c-18.05,0 -32.82,14.76 -32.82,32.82l0 0c0,18.06 14.77,32.82 32.82,32.82l181.18 0c18.05,0 32.82,-14.76 32.82,-32.82l0 0c0,-18.06 -14.77,-32.82 -32.82,-32.82l-181.18 0c0,0 66.24,1.29 81.78,17.02"/>
  </g>
 </g>
</svg>
