<?xml version="1.0" encoding="UTF-8"?>
<!DOCTYPE svg PUBLIC "-//W3C//DTD SVG 1.1//EN" "http://www.w3.org/Graphics/SVG/1.1/DTD/svg11.dtd">
<!-- Creator: CorelDRAW X8 -->
<svg xmlns="http://www.w3.org/2000/svg" xml:space="preserve" width="40mm" height="60mm" version="1.1" style="shape-rendering:geometricPrecision; text-rendering:geometricPrecision; image-rendering:optimizeQuality; fill-rule:evenodd; clip-rule:evenodd"
viewBox="0 0 4000 6000"
 xmlns:xlink="http://www.w3.org/1999/xlink">
 <defs>
  <style type="text/css">
   <![CDATA[
    .str0 {stroke:black;stroke-width:20}
    .fil0 {fill:none}
   ]]>
  </style>
 </defs>
 <g id="图层_x0020_1">
  <metadata id="CorelCorpID_0Corel-Layer"/>
  <path class="fil0 str0" d="M852 5350l2057 0c132,0 240,-108 240,-240l0 -4254c0,-113 -92,-206 -206,-206l-1886 0c-114,0 -206,93 -206,206l0 4254c0,132 108,240 240,240l337 0m1157 -4588c0,-5 -5,-9 -14,-10 -33,0 -60,27 -60,60 0,33 27,60 60,60 33,0 60,-27 60,-60 0,-33 -27,-60 -60,-60m-654 57c-6,-20 -16,-36 -65,-36l-41 0c-22,0 -39,18 -39,40l0 0c0,22 17,39 39,39l367 0c22,0 40,-17 40,-39l0 0c0,-22 -18,-40 -40,-40l-326 0m-223 19c-3,-14 -8,-24 -31,-24l-19 0c-26,0 -48,22 -48,49l0 0c0,26 22,48 48,48l96 0c26,0 48,-22 48,-48l0 0c0,-27 -22,-49 -48,-49l-77 0"/>
 </g>
</svg>
