<?xml version="1.0" encoding="UTF-8"?>
<!DOCTYPE svg PUBLIC "-//W3C//DTD SVG 1.1//EN" "http://www.w3.org/Graphics/SVG/1.1/DTD/svg11.dtd">
<!-- Creator: CorelDRAW 2020 (64-Bit) -->
<svg xmlns="http://www.w3.org/2000/svg" xml:space="preserve" width="40mm" height="60mm" version="1.1" style="shape-rendering:geometricPrecision; text-rendering:geometricPrecision; image-rendering:optimizeQuality; fill-rule:evenodd; clip-rule:evenodd"
viewBox="0 0 4000 6000"
 xmlns:xlink="http://www.w3.org/1999/xlink"
 xmlns:xodm="http://www.corel.com/coreldraw/odm/2003">
 <defs>
  <style type="text/css">
   <![CDATA[
    .fil0 {fill:#332C2B;fill-rule:nonzero}
   ]]>
  </style>
 </defs>
 <g id="图层_x0020_1">
  <metadata id="CorelCorpID_0Corel-Layer"/>
  <g>
   <path class="fil0" d="M1613.69 686.33l19.96 -1.16 0.01 0.91 -0.08 2.15 -0.11 2.09 -0.12 2.05 -0.16 2.02 -0.18 1.95 -0.19 1.91 -0.24 1.88 -0.25 1.82 -0.28 1.76 -0.3 1.75 -0.34 1.69 -0.36 1.62 -0.4 1.64 -0.43 1.56 -0.45 1.5 -0.51 1.52 -0.53 1.44 -0.57 1.4 -0.64 1.42 -0.66 1.33 -0.7 1.27 -0.76 1.26 -0.86 1.28 -0.91 1.2 -0.93 1.1 -1.01 1.07 -1.11 1.04 -1.17 0.96 -1.23 0.89 -1.32 0.81 -1.38 0.72 -1.41 0.6 -7.24 -18.64 0.09 -0.04 0.08 -0.04 0.08 -0.05 0.13 -0.09 0.17 -0.14 0.17 -0.16 0.21 -0.23 0.27 -0.32 0.25 -0.32 0.24 -0.36 0.3 -0.5 0.32 -0.59 0.32 -0.63 0.3 -0.66 0.31 -0.8 0.33 -0.86 0.29 -0.9 0.31 -1.02 0.29 -1.06 0.28 -1.12 0.26 -1.22 0.26 -1.27 0.24 -1.33 0.22 -1.42 0.21 -1.48 0.18 -1.52 0.17 -1.61 0.16 -1.69 0.12 -1.7 0.12 -1.81 0.09 -1.87 0.08 -1.91 0.01 0.91zm19.96 -1.16l0.03 0.44 -0.02 0.47 -0.01 -0.91zm3.71 -19.35l-4.96 19.38 -0.03 -0.01 -0.35 -0.08 -0.29 -0.06 -0.19 -0.03 -0.13 -0.01 -0.13 0 -0.03 0 0.1 -0.01 0.12 -0.02 0.16 -0.04 0.13 -0.03 0.25 -0.11 0.33 -0.15 0.2 -0.12 0.2 -0.14 0.23 -0.19 0.27 -0.25 0.19 -0.22 0.12 -0.16 0.06 -0.08 0.09 -0.16 0.06 -0.13 0.02 -0.04 -0.01 0.03 -0.01 0.05 -0.02 0.07 -0.04 0.21 -0.02 0.16 -0.02 0.19 -0.02 0.31 -0.01 0.27 0.01 0.32 0.01 0.4 -19.96 1.16 -0.05 -0.98 -0.01 -1.04 0.03 -1.05 0.06 -0.97 0.1 -1.05 0.16 -1.04 0.18 -0.97 0.24 -1.05 0.31 -1.05 0.35 -1.01 0.42 -1.02 0.52 -1.09 0.61 -1.06 0.62 -0.92 0.72 -0.96 0.85 -0.96 0.97 -0.93 1.01 -0.81 1 -0.7 1.06 -0.62 1.25 -0.61 1.23 -0.47 1.15 -0.35 1.24 -0.28 1.24 -0.2 1.3 -0.11 1.19 -0.02 1.17 0.04 1.23 0.11 1.21 0.17 1.17 0.22 1.17 0.28 -0.03 -0.01zm-4.96 19.38l-0.03 -0.01 0.74 0.19 -0.71 -0.18zm92.37 3.59l-7 18.74 0.01 0 -1.72 -0.62 -1.94 -0.66 -2.1 -0.69 -2.23 -0.71 -2.38 -0.72 -2.51 -0.73 -2.64 -0.76 -2.72 -0.76 -2.81 -0.77 -2.93 -0.78 -2.96 -0.79 -3.02 -0.78 -3.07 -0.79 -3.09 -0.78 -3.13 -0.79 -3.13 -0.77 -3.13 -0.78 -3.12 -0.75 -3.1 -0.76 -3.08 -0.74 -3.04 -0.73 -2.97 -0.72 -2.89 -0.69 -2.84 -0.67 -2.78 -0.67 -2.65 -0.64 -2.55 -0.61 -2.43 -0.59 -2.3 -0.55 -2.2 -0.54 -2.05 -0.51 -1.87 -0.48 4.96 -19.38 1.81 0.46 1.95 0.49 2.12 0.52 2.28 0.55 2.43 0.59 2.53 0.61 2.65 0.64 2.72 0.65 2.84 0.67 2.95 0.71 2.99 0.72 3.02 0.73 3.1 0.74 3.12 0.76 3.16 0.77 3.17 0.78 3.17 0.79 3.17 0.79 3.17 0.8 3.11 0.81 3.1 0.8 3.04 0.81 2.97 0.8 2.93 0.79 2.84 0.8 2.76 0.78 2.67 0.79 2.56 0.78 2.47 0.77 2.32 0.77 2.18 0.74 2.1 0.76 0.01 0zm-0.01 0l0.01 0 2.99 1.12 -3 -1.12zm19 25.89l-19.9 1.92 0 -0.01 -0.12 -1.25 -0.1 -1.12 -0.1 -1.09 -0.08 -0.97 -0.08 -0.85 -0.08 -0.79 -0.06 -0.6 -0.08 -0.57 -0.06 -0.43 -0.06 -0.29 -0.04 -0.19 -0.01 -0.05 0.01 0.05 0.08 0.19 0.17 0.32 0.18 0.3 0.2 0.28 0.22 0.25 0.19 0.19 0.21 0.17 0.1 0.08 -0.08 -0.05 -0.16 -0.1 -0.26 -0.13 -0.36 -0.17 -0.48 -0.21 -0.66 -0.28 -0.71 -0.28 -0.8 -0.31 -0.95 -0.37 -1.01 -0.38 -1.11 -0.41 7 -18.74 1.15 0.43 1.09 0.42 0.99 0.37 1.02 0.39 0.95 0.4 0.88 0.36 0.94 0.41 0.94 0.45 0.94 0.49 0.92 0.52 0.9 0.57 1 0.72 0.99 0.83 0.91 0.89 0.86 0.99 0.76 1.04 0.7 1.14 0.61 1.2 0.46 1.13 0.35 1.07 0.29 1.05 0.22 0.99 0.18 0.99 0.14 0.93 0.12 0.91 0.12 1 0.08 0.91 0.1 0.99 0.08 0.99 0.1 1.03 0.1 1.14 0.1 1.15 0 -0.01zm-19.9 1.92l0 -0.01 0.07 0.78 -0.07 -0.77zm261.99 2632.96l-19.9 1.92 0 0 -8.54 -89.15 -8.55 -89.81 -8.54 -90.37 -8.52 -90.82 -8.5 -91.15 -8.47 -91.38 -8.45 -91.49 -8.4 -91.5 -8.36 -91.39 -8.31 -91.17 -8.26 -90.85 -8.19 -90.4 -8.12 -89.85 -8.05 -89.19 -7.96 -88.43 -7.88 -87.54 -7.78 -86.54 -7.69 -85.45 -7.57 -84.23 -7.46 -82.91 -7.35 -81.47 -7.22 -79.93 -7.09 -78.27 -6.95 -76.5 -6.8 -74.62 -6.66 -72.63 -6.5 -70.54 -6.33 -68.32 -6.17 -66.01 -5.99 -63.57 -5.81 -61.03 -5.62 -58.37 19.9 -1.92 5.62 58.39 5.83 61.05 5.99 63.59 6.17 66.01 6.33 68.34 6.5 70.54 6.66 72.65 6.8 74.62 6.95 76.52 7.09 78.27 7.22 79.93 7.35 81.47 7.46 82.91 7.57 84.23 7.69 85.45 7.78 86.54 7.88 87.54 7.96 88.43 8.05 89.19 8.12 89.85 8.19 90.4 8.26 90.83 8.31 91.17 8.36 91.39 8.4 91.48 8.45 91.49 8.47 91.36 8.5 91.15 8.52 90.8 8.54 90.37 8.53 89.79 8.54 89.13 0 0zm170.27 1384.42l-19.8 2.8 0 0 -4.65 -32.98 -4.76 -33.84 -4.86 -34.66 -4.97 -35.5 -5.06 -36.29 -5.15 -37.07 -5.21 -37.84 -5.29 -38.57 -5.36 -39.3 -5.41 -40 -5.46 -40.7 -5.5 -41.35 -5.55 -42 -5.58 -42.62 -5.59 -43.23 -5.61 -43.83 -5.62 -44.39 -5.62 -44.94 -5.63 -45.47 -5.6 -45.99 -5.59 -46.47 -5.56 -46.95 -5.53 -47.41 -5.5 -47.84 -5.45 -48.25 -5.39 -48.65 -5.33 -49.03 -5.27 -49.39 -5.2 -49.72 -5.11 -50.04 -5.03 -50.36 -4.93 -50.62 19.9 -1.92 4.93 50.58 5.03 50.3 5.11 50 5.18 49.68 5.27 49.35 5.33 48.99 5.39 48.61 5.45 48.21 5.48 47.8 5.53 47.37 5.56 46.91 5.59 46.45 5.6 45.95 5.61 45.45 5.62 44.9 5.62 44.37 5.61 43.79 5.59 43.21 5.56 42.6 5.55 41.98 5.5 41.33 5.46 40.66 5.41 39.98 5.36 39.28 5.29 38.57 5.21 37.82 5.13 37.05 5.06 36.29 4.97 35.48 4.86 34.66 4.76 33.84 4.65 32.96 0 0zm108.15 402.37l-18.4 7.84 0 0 -3.9 -9.17 -3.88 -9.15 -3.86 -9.16 -3.81 -9.18 -3.79 -9.24 -3.77 -9.31 -3.72 -9.42 -3.71 -9.54 -3.67 -9.71 -3.63 -9.88 -3.61 -10.08 -3.58 -10.33 -3.54 -10.56 -3.51 -10.85 -3.48 -11.15 -3.45 -11.48 -3.41 -11.84 -3.38 -12.22 -3.35 -12.62 -3.32 -13.05 -3.27 -13.51 -3.25 -13.99 -3.21 -14.49 -3.18 -15.03 -3.15 -15.58 -3.12 -16.17 -3.08 -16.79 -3.05 -17.41 -3.01 -18.06 -2.99 -18.76 -2.95 -19.48 -2.92 -20.2 19.8 -2.8 2.9 20.08 2.93 19.32 2.97 18.62 2.99 17.92 3.01 17.25 3.06 16.61 3.08 15.99 3.11 15.42 3.14 14.83 3.17 14.31 3.21 13.79 3.23 13.31 3.26 12.85 3.29 12.42 3.32 12 3.35 11.64 3.39 11.26 3.42 10.95 3.45 10.65 3.48 10.38 3.5 10.13 3.55 9.9 3.57 9.72 3.61 9.53 3.65 9.4 3.68 9.3 3.71 9.19 3.75 9.14 3.79 9.1 3.82 9.1 3.86 9.11 3.9 9.15 0 0zm111.21 229.28l1.74 -19.92 -9.17 15.54 -4.79 -7.15 -4.74 -7.15 -4.68 -7.11 -4.63 -7.09 -4.56 -7.08 -4.51 -7.05 -4.44 -7.02 -4.39 -7 -4.32 -6.99 -4.26 -6.95 -4.21 -6.94 -4.13 -6.91 -4.07 -6.88 -4.01 -6.86 -3.94 -6.84 -3.88 -6.81 -3.81 -6.78 -3.75 -6.76 -3.68 -6.72 -3.61 -6.71 -3.54 -6.68 -3.47 -6.65 -3.4 -6.62 -3.33 -6.59 -3.26 -6.58 -3.18 -6.53 -3.12 -6.5 -3.05 -6.49 -2.96 -6.45 -2.89 -6.42 -2.82 -6.39 -2.75 -6.36 18.4 -7.84 2.67 6.2 2.76 6.25 2.83 6.28 2.9 6.31 2.97 6.33 3.06 6.38 3.12 6.41 3.2 6.44 3.27 6.47 3.34 6.5 3.41 6.55 3.48 6.56 3.55 6.59 3.62 6.62 3.69 6.66 3.75 6.68 3.82 6.71 3.9 6.74 3.95 6.76 4.01 6.8 4.09 6.81 4.15 6.86 4.2 6.87 4.28 6.89 4.33 6.92 4.4 6.96 4.45 6.97 4.52 7 4.57 7.01 4.64 7.05 4.7 7.07 4.75 7.09 -9.17 15.54zm9.17 -15.54l11.69 17.36 -20.86 -1.82 9.17 -15.54zm-688.99 -63.9l681.56 59.52 -1.74 19.92 -681.56 -59.52 -9.13 -10.03 10.87 -9.89zm-1.74 19.92l-9.19 -0.8 0.06 -9.23 9.13 10.03zm-80.24 -4619.93l19.98 -0.86 -0.01 -0.16 5.63 100.98 5.37 108.08 5.12 114.74 4.88 120.97 4.65 126.76 4.41 132.14 4.18 137.08 3.94 141.58 3.72 145.67 3.49 149.31 3.27 152.51 3.05 155.31 2.83 157.66 2.62 159.58 2.41 161.07 2.21 162.12 2 162.74 1.79 162.95 1.6 162.7 1.4 162.03 1.21 160.93 1.02 159.4 0.83 157.44 0.64 155.04 0.47 152.22 0.28 148.95 0.11 145.26 -0.06 141.13 -0.24 136.59 -0.4 131.6 -0.56 126.18 -0.73 120.34 -20 -0.14 0.73 -120.3 0.56 -126.16 0.4 -131.56 0.24 -136.57 0.06 -141.11 -0.11 -145.24 -0.28 -148.93 -0.47 -152.18 -0.64 -155.02 -0.83 -157.42 -1.02 -159.38 -1.21 -160.91 -1.4 -162.01 -1.6 -162.68 -1.79 -162.91 -2 -162.72 -2.21 -162.1 -2.41 -161.03 -2.62 -159.56 -2.83 -157.62 -3.05 -155.27 -3.27 -152.49 -3.49 -149.27 -3.72 -145.61 -3.94 -141.54 -4.16 -137.02 -4.41 -132.08 -4.65 -126.7 -4.88 -120.89 -5.12 -114.64 -5.37 -107.96 -5.61 -100.86 -0.01 -0.16zm0.01 0.16l-0.01 -0.16 0 -0.03 0.01 0.19zm-4.13 -21.38l7.42 -18.58 1.24 0.55 1.21 0.65 1.18 0.74 1.08 0.81 1.01 0.85 0.94 0.92 0.84 0.91 0.85 1.03 0.74 1.03 0.69 1.05 0.64 1.08 0.58 1.07 0.57 1.17 0.51 1.18 0.44 1.11 0.46 1.24 0.41 1.28 0.36 1.19 0.36 1.3 0.33 1.36 0.29 1.33 0.28 1.38 0.26 1.4 0.23 1.44 0.22 1.52 0.19 1.5 0.17 1.54 0.16 1.59 0.14 1.61 0.12 1.69 0.1 1.69 0.08 1.73 -19.98 0.86 -0.08 -1.53 -0.08 -1.47 -0.1 -1.39 -0.12 -1.37 -0.12 -1.31 -0.15 -1.26 -0.15 -1.22 -0.16 -1.12 -0.19 -1.1 -0.18 -1.06 -0.2 -0.98 -0.21 -0.95 -0.21 -0.84 -0.22 -0.8 -0.24 -0.81 -0.21 -0.66 -0.22 -0.58 -0.26 -0.65 -0.21 -0.48 -0.19 -0.39 -0.22 -0.41 -0.18 -0.32 -0.17 -0.25 -0.14 -0.19 -0.07 -0.09 -0.12 -0.13 -0.04 -0.04 -0.01 -0.01 0.04 0.03 0.1 0.06 0.09 0.05 0.1 0.05z"/>
  </g>
 </g>
</svg>
