<?xml version="1.0" encoding="UTF-8"?>
<!DOCTYPE svg PUBLIC "-//W3C//DTD SVG 1.1//EN" "http://www.w3.org/Graphics/SVG/1.1/DTD/svg11.dtd">
<!-- Creator: CorelDRAW X8 -->
<svg xmlns="http://www.w3.org/2000/svg" xml:space="preserve" width="40mm" height="60mm" version="1.1" style="shape-rendering:geometricPrecision; text-rendering:geometricPrecision; image-rendering:optimizeQuality; fill-rule:evenodd; clip-rule:evenodd"
viewBox="0 0 4000 6000"
 xmlns:xlink="http://www.w3.org/1999/xlink">
 <defs>
  <style type="text/css">
   <![CDATA[
    .str0 {stroke:black;stroke-width:7.62}
    .fil0 {fill:none}
   ]]>
  </style>
 </defs>
 <g id="图层_x0020_1">
  <metadata id="CorelCorpID_0Corel-Layer"/>
  <path class="fil0 str0" d="M1121 5350l1664 0c7,0 13,-6 13,-14l0 -129c121,-5 219,-99 230,-218l1 0 0 307c0,7 6,13 13,13l109 0c8,0 14,-6 14,-13l0 -3612c0,-23 -1,-20 -17,-20l-44 0c-15,0 -27,-12 -27,-27l0 -473c0,-15 12,-27 27,-27l48 0c9,0 13,-2 13,-15l0 -418c0,-7 -6,-13 -14,-13l-109 0c-7,0 -13,6 -13,13l0 282 -2 0c-13,-108 -105,-193 -216,-193l-11 0 0 -129c0,-8 -6,-14 -14,-14l-1567 0c-7,0 -13,6 -13,14l0 129c-114,1 -210,84 -230,193l-5 0 0 -282c0,-7 -6,-13 -13,-13l-109 0c-8,0 -14,6 -14,13l0 1231c0,15 3,15 16,15l45 0c15,0 27,12 27,27l0 451c0,15 -12,27 -27,27l-51 0c-8,0 -10,2 -10,10l0 129c0,10 1,11 11,11l50 0c15,0 27,12 27,27l0 192c0,15 -12,27 -27,27l-50 0c-9,0 -11,2 -11,11l0 2434c0,7 6,13 14,13l109 0c7,0 13,-6 13,-13l0 -307 1 0c10,118 107,213 227,218l0 129c0,8 6,14 14,14l66 0m128 -4295c-1,-13 -13,-26 -38,-27 -86,0 -156,70 -156,156 0,87 70,157 156,157 87,0 157,-70 157,-157 0,-86 -70,-156 -157,-156m877 4230c0,-2 -2,-4 -6,-5 -16,0 -28,13 -28,28 0,15 12,27 28,27 15,0 27,-12 27,-27 0,-15 -12,-28 -27,-28m-901 16c-4,-15 -13,-28 -51,-28l-33 0c-17,0 -31,14 -31,32l0 0c0,17 14,31 31,31l286 0c17,0 31,-14 31,-31l0 0c0,-18 -14,-32 -31,-32l-253 0m676 9c-3,-11 -7,-20 -27,-20l-16 0c-23,0 -41,19 -41,41l0 0c0,23 18,41 41,41l161 0c22,0 41,-18 41,-41l0 0c0,-22 -19,-41 -41,-41l-145 0m232 -4548c0,-2 -2,-4 -7,-5 -15,0 -27,13 -27,28 0,15 12,27 27,27 16,0 28,-12 28,-27 0,-15 -12,-28 -28,-28m-730 5c0,-2 -2,-4 -7,-5 -15,0 -27,13 -27,28 0,15 12,27 27,27 15,0 28,-12 28,-27 0,-15 -13,-28 -28,-28m338 378c-1,-13 -12,-26 -37,-27 -86,0 -156,70 -156,156 0,87 70,157 156,157 87,0 157,-70 157,-157 0,-86 -70,-156 -157,-156m-319 379c-1,-14 -13,-26 -38,-28 -86,0 -156,70 -156,157 0,86 70,156 156,156 87,0 157,-70 157,-156 0,-87 -70,-157 -157,-157m394 28c-1,-14 -12,-26 -37,-28 -86,0 -156,70 -156,157 0,86 70,156 156,156 87,0 157,-70 157,-156 0,-87 -70,-157 -157,-157m-163 -68c0,-5 -5,-10 -14,-11 -34,0 -61,28 -61,62 0,34 27,61 61,61 34,0 61,-27 61,-61 0,-34 -27,-62 -61,-62m-239 -376l476 0c111,0 202,91 202,201l0 475c0,111 -91,201 -202,201l-476 0c-111,0 -202,-90 -202,-201l0 -475c0,-110 91,-201 202,-201zm17 56l441 0c90,0 164,73 164,163l0 439c0,90 -74,164 -164,164l-441 0c-89,0 -163,-74 -163,-164l0 -439c0,-90 74,-163 163,-163z"/>
 </g>
</svg>
