<?xml version="1.0" encoding="UTF-8"?>
<!DOCTYPE svg PUBLIC "-//W3C//DTD SVG 1.1//EN" "http://www.w3.org/Graphics/SVG/1.1/DTD/svg11.dtd">
<!-- Creator: CorelDRAW X8 -->
<svg xmlns="http://www.w3.org/2000/svg" xml:space="preserve" width="40mm" height="60mm" version="1.1" style="shape-rendering:geometricPrecision; text-rendering:geometricPrecision; image-rendering:optimizeQuality; fill-rule:evenodd; clip-rule:evenodd"
viewBox="0 0 4000 6000"
 xmlns:xlink="http://www.w3.org/1999/xlink">
 <defs>
  <style type="text/css">
   <![CDATA[
    .str0 {stroke:#332C2B;stroke-width:7.62}
    .fil0 {fill:none;fill-rule:nonzero}
   ]]>
  </style>
 </defs>
 <g id="Katman_x0020_1">
  <metadata id="CorelCorpID_0Corel-Layer"/>
  <g id="_2235257041904">
   <path class="fil0 str0" d="M2970 650l36 405c-7,-42 -20,-76 -44,-108 -13,-16 -27,-30 -42,-43 -44,-36 -99,-50 -161,-54l-13 0 0 -175 -1494 0 0 175 -17 0c-62,4 -117,18 -160,54 -16,13 -30,27 -42,43 -25,32 -38,66 -45,108l42 -404 -174 0 0 4699 175 0 -37 -397c3,39 16,71 39,101 12,16 26,31 42,43 43,36 98,51 160,55l14 0 0 174 1499 0 0 -174 11 0c62,-4 117,-19 161,-55 15,-12 29,-27 42,-43 23,-30 36,-62 43,-101l-35 396 174 0 0 -4699 -174 0z"/>
   <path class="fil0 str0" d="M932 2651c0,11 -8,19 -19,19 -10,0 -19,-8 -19,-19l0 -246c0,-11 9,-19 19,-19 11,0 19,8 19,19l0 246z"/>
   <path class="fil0 str0" d="M932 2097c0,11 -8,19 -19,19 -10,0 -19,-8 -19,-19l0 -576c0,-11 9,-19 19,-19 11,0 19,8 19,19l0 576z"/>
   <path class="fil0 str0" d="M2206 727c13,0 23,10 23,22 0,13 -10,23 -23,23 -12,0 -22,-10 -22,-23 0,-12 10,-22 22,-22z"/>
   <path class="fil0 str0" d="M1870 1694c0,-64 52,-117 116,-117l27 0c64,0 117,53 117,117l0 102c0,65 -53,117 -117,117l-27 0c-64,0 -116,-52 -116,-117l0 -102z"/>
   <path class="fil0 str0" d="M1338 5283c-9,0 -16,-12 -16,-27 0,-14 7,-26 16,-26 9,0 16,12 16,26 0,15 -7,27 -16,27z"/>
   <path class="fil0 str0" d="M1367 1755c0,24 -19,44 -43,44l-19 0c-24,0 -43,-20 -43,-44l0 -20c0,-24 19,-43 43,-43l19 0c24,0 43,19 43,43l0 20z"/>
   <path class="fil0 str0" d="M1386 5283c-9,0 -16,-12 -16,-27 0,-14 7,-26 16,-26 9,0 16,12 16,26 0,15 -7,27 -16,27z"/>
   <path class="fil0 str0" d="M1333 1591l-43 0c-60,0 -109,-49 -109,-109l0 -294c0,-61 49,-110 109,-110l43 0c60,0 109,49 109,110l0 294c0,60 -49,109 -109,109z"/>
   <path class="fil0 str0" d="M1435 5283c-9,0 -16,-12 -16,-27 0,-14 7,-26 16,-26 9,0 16,12 16,26 0,15 -7,27 -16,27z"/>
   <path class="fil0 str0" d="M1483 5283c-9,0 -16,-12 -16,-27 0,-14 7,-26 16,-26 9,0 16,12 16,26 0,15 -7,27 -16,27z"/>
   <path class="fil0 str0" d="M1532 5283c-9,0 -17,-12 -17,-27 0,-14 8,-26 17,-26 9,0 16,12 16,26 0,15 -7,27 -16,27z"/>
   <path class="fil0 str0" d="M1655 5279c-11,0 -20,-9 -20,-20 0,-11 9,-20 20,-20 11,0 19,9 19,20 0,11 -8,20 -19,20z"/>
   <path class="fil0 str0" d="M2073 5298l-151 0c-26,0 -46,-20 -46,-45 0,-25 20,-46 46,-46l151 0c25,0 45,21 45,46 0,25 -20,45 -45,45z"/>
   <path class="fil0 str0" d="M2482 5302c-32,0 -57,-26 -57,-59 0,-32 25,-58 57,-58 31,0 56,26 56,58 0,33 -25,59 -56,59z"/>
   <path class="fil0 str0" d="M3084 1631c-8,0 -15,-7 -15,-15 0,-9 7,-15 15,-15 8,0 15,6 15,15 0,8 -7,15 -15,15z"/>
   <path class="fil0 str0" d="M3118 1557c0,20 -16,36 -36,36 -20,0 -37,-16 -37,-36l0 -393c0,-20 17,-36 37,-36 20,0 36,16 36,36l0 393z"/>
   <path class="fil0 str0" d="M1311 1296c-46,0 -83,-37 -83,-84 0,-46 37,-83 83,-83 47,0 84,37 84,83 0,47 -37,84 -84,84zm0 244c-46,0 -83,-37 -83,-83 0,-46 37,-84 83,-84 47,0 84,38 84,84 0,46 -37,83 -84,83zm24 -440l-47 0c-49,0 -88,39 -88,88l0 294c0,48 39,87 88,87l47 0c48,0 87,-39 87,-87l0 -294c0,-49 -39,-88 -87,-88z"/>
   <path class="fil0 str0" d="M1981 1894l37 0c51,0 92,-41 92,-92l0 -114c0,-51 -41,-92 -92,-92l-37 0c-51,0 -92,41 -92,92l0 114c0,51 41,92 92,92z"/>
  </g>
 </g>
</svg>
