<?xml version="1.0" encoding="UTF-8"?>
<!DOCTYPE svg PUBLIC "-//W3C//DTD SVG 1.1//EN" "http://www.w3.org/Graphics/SVG/1.1/DTD/svg11.dtd">
<!-- Creator: CorelDRAW X8 -->
<svg xmlns="http://www.w3.org/2000/svg" xml:space="preserve" width="40mm" height="60mm" version="1.1" style="shape-rendering:geometricPrecision; text-rendering:geometricPrecision; image-rendering:optimizeQuality; fill-rule:evenodd; clip-rule:evenodd"
viewBox="0 0 4000 6000"
 xmlns:xlink="http://www.w3.org/1999/xlink">
 <defs>
  <style type="text/css">
   <![CDATA[
    .str0 {stroke:#222222;stroke-width:20}
    .fil0 {fill:none}
   ]]>
  </style>
 </defs>
 <g id="图层_x0020_1">
  <metadata id="CorelCorpID_0Corel-Layer"/>
  <g id="_1816483570864">
   <path class="fil0 str0" d="M972 5243l1816 0c132,0 240,-108 240,-240l0 -4114c0,-131 -108,-239 -240,-239l-1533 0c-131,0 -239,108 -239,239l0 4114c0,132 108,240 239,240 132,0 265,78 265,107"/>
   <path class="fil0 str0" d="M1958 784c0,-9 18,-88 59,-88 41,0 75,33 75,75 0,41 -34,75 -75,75 -41,0 -75,-34 -75,-75 0,-42 34,-75 75,-75"/>
  </g>
  <path class="fil0 str0" d="M-6244 6646l0 -6067c0,-440 -360,-800 -800,-800l-13742 0c-440,0 -800,360 -800,800l0 5121c0,440 360,800 800,800l13742 0c440,0 800,-360 800,-800 0,-440 262,-883 358,-883"/>
  <path class="fil0 str0" d="M-21139 3354c-29,0 -294,-60 -294,-198 0,-138 112,-250 250,-250 138,0 250,112 250,250 0,138 -112,250 -250,250 -138,0 -250,-112 -250,-250"/>
 </g>
</svg>
