<?xml version="1.0" encoding="UTF-8"?>
<!DOCTYPE svg PUBLIC "-//W3C//DTD SVG 1.1//EN" "http://www.w3.org/Graphics/SVG/1.1/DTD/svg11.dtd">
<!-- Creator: CorelDRAW 2021 (64-Bit) -->
<svg xmlns="http://www.w3.org/2000/svg" xml:space="preserve" width="40mm" height="60mm" version="1.1" style="shape-rendering:geometricPrecision; text-rendering:geometricPrecision; image-rendering:optimizeQuality; fill-rule:evenodd; clip-rule:evenodd"
viewBox="0 0 4000 6000"
 xmlns:xlink="http://www.w3.org/1999/xlink"
 xmlns:xodm="http://www.corel.com/coreldraw/odm/2003">
 <defs>
  <style type="text/css">
   <![CDATA[
    .str0 {stroke:black;stroke-width:7.62;stroke-miterlimit:22.9256}
    .fil0 {fill:none}
   ]]>
  </style>
 </defs>
 <g id="图层_x0020_1">
  <metadata id="CorelCorpID_0Corel-Layer"/>
  <path class="fil0 str0" d="M957.68 5350l1949.03 0c110.81,0 201.49,-90.67 201.49,-201.49l0 -4297.02c0,-110.82 -90.67,-201.49 -201.49,-201.49l-583.59 0c-15.72,0 -33.79,8.42 -33.79,31.45l0 30.45c0,51.87 -42.45,94.32 -94.32,94.32l-383.24 0c-51.87,0 -94.31,-42.45 -94.31,-94.32l0 -27.47c0,-22.78 -15.01,-34.43 -34.04,-34.43l-590.13 0c-110.82,0 -201.49,90.67 -201.49,201.49l0 4297.02c0,110.82 90.67,201.49 201.49,201.49l91.06 0"/>
 </g>
</svg>
