<?xml version="1.0" encoding="UTF-8"?>
<!DOCTYPE svg PUBLIC "-//W3C//DTD SVG 1.1//EN" "http://www.w3.org/Graphics/SVG/1.1/DTD/svg11.dtd">
<!-- Creator: CorelDRAW 2020 (64-Bit) -->
<svg xmlns="http://www.w3.org/2000/svg" xml:space="preserve" width="40mm" height="60mm" version="1.1" style="shape-rendering:geometricPrecision; text-rendering:geometricPrecision; image-rendering:optimizeQuality; fill-rule:evenodd; clip-rule:evenodd"
viewBox="0 0 4000 6000"
 xmlns:xlink="http://www.w3.org/1999/xlink"
 xmlns:xodm="http://www.corel.com/coreldraw/odm/2003">
 <defs>
  <style type="text/css">
   <![CDATA[
    .str0 {stroke:#332C2B;stroke-width:20;stroke-miterlimit:22.9256}
    .str1 {stroke:#332C2B;stroke-width:20;stroke-linejoin:bevel;stroke-miterlimit:22.9256}
    .fil0 {fill:none}
   ]]>
  </style>
   <clipPath id="id0">
    <rect x="-78502" y="-29401.75" width="31730.76" height="21070.25"/>
   </clipPath>
   <clipPath id="id1">
    <rect x="-123341.97" y="-8190.1" width="27163.88" height="17638.88"/>
   </clipPath>
 </defs>
 <g id="图层_x0020_1">
  <metadata id="CorelCorpID_0Corel-Layer"/>
  <g style="clip-path:url(#id0)">
   <image x="-78502" y="-29401.75" width="31730.76" height="21070.24" xlink:href="MacBook Air 11 -11i（背膜）_Images\MacBook Air 11 -11i（背膜）_ImgID1.png"/>
  </g>
  <g style="clip-path:url(#id1)">
   <image x="-123341.97" y="-8190.1" width="27163.88" height="17638.88" xlink:href="MacBook Air 11 -11i（背膜）_Images\MacBook Air 11 -11i（背膜）_ImgID2.png"/>
  </g>
  <rect class="fil0 str0" x="-77078.35" y="-28356.34" width="30000" height="19200"/>
  <rect class="fil0 str0" x="-77008.28" y="-28281.45" width="29859.84" height="18991.25" rx="1599.39" ry="1400"/>
  <g id="_2051490219344">
   <path class="fil0 str1" d="M-62795.2 -16869.51c1.11,0.24 2.24,0.47 3.35,0.71 0,0 0,0 0,0 74.28,15.54 151.53,11.95 225.49,-4.91 0,0 0,0 0,0 89.05,-20.35 176.38,-47.12 260.39,-81.84 0,0 0,0 0,0 224.59,-92.84 475.79,-107.46 704.33,-24 0,0 0,0 0,0 87.73,32.07 175.65,64.57 265.37,90.46 0,0 0,0 0,0 97.3,28.08 196.71,34.96 296.99,9.04 0,0 0,0 0,0 125.05,-32.33 226.62,-102.53 314.72,-192.33 0,0 0,0 0,0 145.35,-148.16 266.01,-315.36 372.8,-492.36 0,0 0,0 0,0 89.29,-148 157.98,-305.53 213.04,-466.17 0,0 0,0 0,0 -353.72,-173.37 -582.41,-391.67 -611.23,-794.09 0,0 0,0 0,0 -28.85,-402.34 148.07,-812.47 493.12,-1020.66 0,0 0,0 0,0 -47.63,-66.51 -99.49,-125.03 -159.19,-176.62 0,0 0,0 0,0 -200.4,-173.17 -439.87,-245.75 -699.61,-263.04 0,0 0,0 0,0 -148.35,-9.87 -290.56,24.42 -430.14,70.01 0,0 0,0 0,0 -116,37.9 -231.59,77.01 -346.84,117.04 0,0 0,0 0,0 -55.32,19.22 -115.64,20.44 -171.49,2.72 0,0 0,0 0,0 -17.47,-5.53 -35.34,-9.8 -52.7,-15.57 0,0 0,0 0,0 -123.85,-41.44 -247.09,-84.8 -371.65,-124.05 0,0 0,0 0,0 -90.4,-28.46 -185.59,-43.49 -280.62,-39.63 0,0 0,0 0,0 -215.62,8.76 -444.25,68.2 -619.37,190.82 0,0 0,0 0,0 -143.03,100.16 -263.47,234.99 -356.03,386.71 0,0 0,0 0,0 -147.51,241.86 -205.48,523.82 -193.07,803.9 0,0 0,0 0,0 21.05,474.53 172.55,1376.59 968.16,1946.42 0,0 0,0 0,0 51.73,37.07 111.17,63.95 174.18,77.44z"/>
   <path class="fil0 str1" d="M-61095.94 -21445.06c9.26,68.17 2.56,125.86 -6.07,191.49 0,0 0,0 0,0 -31.06,236.42 -152.76,417.95 -322.16,581.48 0,0 0,0 0,0 -76.1,73.49 -163.81,122.98 -258.26,166.96 0,0 0,0 0,0 -70.46,32.84 -148.01,50.92 -225.58,61.09 0,0 0,0 0,0 -52.75,6.91 -110.85,6.14 -110.85,6.14 0,0 0,0 0,0 0,0 -0.94,-18.72 -0.94,-18.72 0,0 0,0 0,0 -6.77,-212.89 63.13,-389.93 177.23,-554.19 0,0 0,0 0,0 150.04,-214.45 359.11,-344.28 611.9,-409.23 0,0 0,0 0,0 43.58,-11.19 88.69,-16.65 134.73,-25.02z"/>
  </g>
  <path class="fil0 str0" d="M-28172.58 13028.15l16699.26 0c770,0 1400.01,-630.02 1400.01,-1400.01l0 -27059.84c0,-770 -630,-1400 -1400.01,-1400l-16191.25 0c-769.99,0 -1399.99,630 -1399.99,1400l0 27059.84c0,770 630,1400.01 1399.99,1400.01 769.99,0 1187.37,124.89 1375.22,288.93"/>
  <g id="_2051490214544">
   <path class="fil0 str1" d="M-21485.25 -2618.63c-0.24,1.11 -0.47,2.24 -0.71,3.35 0,0 0,0 0,0 -15.54,74.28 -11.95,151.53 4.91,225.49 0,0 0,0 0,0 20.35,89.05 47.12,176.38 81.84,260.39 0,0 0,0 0,0 92.84,224.59 107.46,475.79 24,704.33 0,0 0,0 0,0 -32.07,87.73 -64.57,175.65 -90.46,265.37 0,0 0,0 0,0 -28.08,97.3 -34.96,196.71 -9.04,296.99 0,0 0,0 0,0 32.33,125.05 102.53,226.62 192.33,314.72 0,0 0,0 0,0 148.16,145.35 315.36,266.01 492.36,372.8 0,0 0,0 0,0 148,89.29 305.53,157.98 466.17,213.04 0,0 0,0 0,0 173.37,-353.72 391.67,-582.41 794.09,-611.23 0,0 0,0 0,0 402.34,-28.85 812.47,148.07 1020.66,493.12 0,0 0,0 0,0 66.51,-47.63 125.03,-99.49 176.62,-159.19 0,0 0,0 0,0 173.17,-200.4 245.75,-439.87 263.04,-699.61 0,0 0,0 0,0 9.87,-148.35 -24.42,-290.56 -70.01,-430.14 0,0 0,0 0,0 -37.9,-116 -77.01,-231.59 -117.04,-346.84 0,0 0,0 0,0 -19.22,-55.32 -20.44,-115.64 -2.72,-171.49 0,0 0,0 0,0 5.53,-17.47 9.8,-35.34 15.57,-52.7 0,0 0,0 0,0 41.44,-123.85 84.8,-247.09 124.05,-371.65 0,0 0,0 0,0 28.46,-90.4 43.49,-185.59 39.63,-280.62 0,0 0,0 0,0 -8.76,-215.62 -68.2,-444.25 -190.82,-619.37 0,0 0,0 0,0 -100.16,-143.03 -234.99,-263.47 -386.71,-356.03 0,0 0,0 0,0 -241.86,-147.51 -523.82,-205.48 -803.9,-193.07 0,0 0,0 0,0 -474.53,21.05 -1376.59,172.55 -1946.42,968.16 0,0 0,0 0,0 -37.07,51.73 -63.95,111.17 -77.44,174.18z"/>
   <path class="fil0 str1" d="M-16909.7 -919.37c-68.17,9.26 -125.86,2.56 -191.49,-6.07 0,0 0,0 0,0 -236.42,-31.06 -417.95,-152.76 -581.48,-322.16 0,0 0,0 0,0 -73.49,-76.1 -122.98,-163.81 -166.96,-258.26 0,0 0,0 0,0 -32.84,-70.46 -50.92,-148.01 -61.09,-225.58 0,0 0,0 0,0 -6.91,-52.75 -6.14,-110.85 -6.14,-110.85 0,0 0,0 0,0 0,0 18.72,-0.94 18.72,-0.94 0,0 0,0 0,0 212.89,-6.77 389.93,63.13 554.19,177.23 0,0 0,0 0,0 214.45,150.04 344.28,359.11 409.23,611.9 0,0 0,0 0,0 11.19,43.58 16.65,88.69 25.02,134.73z"/>
  </g>
  <g id="_2051490215552">
   <path class="fil0 str0" d="M652.15 5310.63l2603.3 0c120.04,0 218.26,-98.22 218.26,-218.25l0 -4218.46c0,-120.04 -98.22,-218.25 -218.26,-218.25l-2524.11 0c-120.03,0 -218.24,98.21 -218.24,218.25l0 4218.46c0,120.03 98.21,218.25 218.24,218.25 120.04,0 185.11,19.47 214.39,45.04"/>
   <g>
    <path class="fil0 str1" d="M1694.66 2871.4c-0.04,0.17 -0.07,0.34 -0.11,0.52 0,0 0,0 0,0 -2.42,11.58 -1.86,23.62 0.77,35.15 0,0 0,0 0,0 3.17,13.88 7.34,27.5 12.75,40.59 0,0 0,0 0,0 14.48,35.02 16.76,74.18 3.74,109.8 0,0 0,0 0,0 -4.99,13.68 -10.06,27.39 -14.1,41.37 0,0 0,0 0,0 -4.38,15.17 -5.45,30.67 -1.41,46.3 0,0 0,0 0,0 5.04,19.5 15.99,35.33 29.99,49.06 0,0 0,0 0,0 23.09,22.66 49.16,41.47 76.75,58.12 0,0 0,0 0,0 23.07,13.92 47.63,24.63 72.68,33.21 0,0 0,0 0,0 27.02,-55.14 61.05,-90.79 123.79,-95.28 0,0 0,0 0,0 62.72,-4.5 126.66,23.08 159.11,76.87 0,0 0,0 0,0 10.37,-7.42 19.49,-15.51 27.54,-24.82 0,0 0,0 0,0 26.99,-31.24 38.31,-68.57 41,-109.06 0,0 0,0 0,0 1.54,-23.13 -3.81,-45.3 -10.91,-67.06 0,0 0,0 0,0 -5.91,-18.08 -12.01,-36.1 -18.25,-54.07 0,0 0,0 0,0 -2.99,-8.62 -3.18,-18.02 -0.42,-26.73 0,0 0,0 0,0 0.86,-2.72 1.53,-5.51 2.43,-8.22 0,0 0,0 0,0 6.46,-19.3 13.22,-38.52 19.33,-57.93 0,0 0,0 0,0 4.44,-14.1 6.78,-28.94 6.18,-43.75 0,0 0,0 0,0 -1.36,-33.62 -10.63,-69.26 -29.75,-96.56 0,0 0,0 0,0 -15.61,-22.29 -36.63,-41.07 -60.28,-55.5 0,0 0,0 0,0 -37.71,-23 -81.66,-32.03 -125.32,-30.1 0,0 0,0 0,0 -73.98,3.28 -214.6,26.9 -303.44,150.93 0,0 0,0 0,0 -5.78,8.07 -9.97,17.33 -12.07,27.16z"/>
    <path class="fil0 str1" d="M2407.96 3136.3c-10.63,1.44 -19.62,0.4 -29.85,-0.95 0,0 0,0 0,0 -36.86,-4.84 -65.16,-23.81 -90.65,-50.22 0,0 0,0 0,0 -11.46,-11.86 -19.17,-25.54 -26.03,-40.26 0,0 0,0 0,0 -5.12,-10.99 -7.94,-23.07 -9.52,-35.17 0,0 0,0 0,0 -1.08,-8.22 -0.96,-17.28 -0.96,-17.28 0,0 0,0 0,0 0,0 2.92,-0.14 2.92,-0.14 0,0 0,0 0,0 33.18,-1.06 60.78,9.84 86.39,27.63 0,0 0,0 0,0 33.43,23.38 53.67,55.98 63.8,95.39 0,0 0,0 0,0 1.74,6.79 2.59,13.82 3.9,21z"/>
   </g>
  </g>
 </g>
</svg>
