<?xml version="1.0" encoding="UTF-8"?>
<!DOCTYPE svg PUBLIC "-//W3C//DTD SVG 1.1//EN" "http://www.w3.org/Graphics/SVG/1.1/DTD/svg11.dtd">
<!-- Creator: CorelDRAW X8 -->
<svg xmlns="http://www.w3.org/2000/svg" xml:space="preserve" width="40mm" height="60mm" version="1.1" style="shape-rendering:geometricPrecision; text-rendering:geometricPrecision; image-rendering:optimizeQuality; fill-rule:evenodd; clip-rule:evenodd"
viewBox="0 0 4000 6000"
 xmlns:xlink="http://www.w3.org/1999/xlink">
 <defs>
  <style type="text/css">
   <![CDATA[
    .str1 {stroke:#222222;stroke-width:20}
    .str0 {stroke:#222222;stroke-width:10}
    .fil0 {fill:none}
   ]]>
  </style>
 </defs>
 <g id="图层_x0020_1">
  <metadata id="CorelCorpID_0Corel-Layer"/>
  <g id="_2140463668128">
   <path class="fil0 str0" d="M783 5176l2193 0c133,0 241,-109 241,-241l0 -4044c0,-133 -108,-241 -241,-241l-471 0 -52 67 -866 0 -53 -67 -470 0c-132,0 -240,108 -240,241l0 4044c0,132 108,241 240,241 133,0 277,74 277,174"/>
   <path class="fil0 str0" d="M2591 879c0,-60 -86,-62 -107,-62 -21,0 -38,18 -38,39l0 0c0,21 17,38 38,38l311 0c21,0 38,-17 38,-38l0 0c0,-21 -17,-40 -38,-39l-311 0"/>
  </g>
  <path class="fil0 str1" d="M-1466 6508l0 -5707c0,-346 -288,-630 -639,-630l-10750 0c-351,0 -639,284 -639,630l0 1235 177 137 0 2267 -177 139 0 1229c0,347 288,630 639,630l10750 0c351,0 639,-283 639,-630 0,-346 214,-725 452,-725"/>
  <path class="fil0 str1" d="M-12976 1764c-161,0 -166,231 -166,288 0,57 47,104 104,104l0 0c57,0 103,-47 103,-104l0 -840c0,-57 -46,-104 -103,-104l0 0c-57,0 -107,47 -104,104l0 840"/>
 </g>
</svg>
