<?xml version="1.0" encoding="UTF-8"?>
<!DOCTYPE svg PUBLIC "-//W3C//DTD SVG 1.1//EN" "http://www.w3.org/Graphics/SVG/1.1/DTD/svg11.dtd">
<!-- Creator: CorelDRAW 2020 (64-Bit) -->
<svg xmlns="http://www.w3.org/2000/svg" xml:space="preserve" width="40mm" height="60mm" version="1.1" style="shape-rendering:geometricPrecision; text-rendering:geometricPrecision; image-rendering:optimizeQuality; fill-rule:evenodd; clip-rule:evenodd"
viewBox="0 0 4000 6000"
 xmlns:xlink="http://www.w3.org/1999/xlink"
 xmlns:xodm="http://www.corel.com/coreldraw/odm/2003">
 <defs>
  <style type="text/css">
   <![CDATA[
    .str2 {stroke:#332C2B;stroke-width:20;stroke-miterlimit:22.9256}
    .str1 {stroke:#E62129;stroke-width:20;stroke-miterlimit:22.9256}
    .str0 {stroke:#E62129;stroke-width:20;stroke-miterlimit:22.9256}
    .fil0 {fill:none}
   ]]>
  </style>
   <clipPath id="id0">
    <rect x="-50162.3" y="-4137.6" width="8439.96" height="16027.95"/>
   </clipPath>
   <clipPath id="id1">
    <rect x="-72097.87" y="-6842.5" width="10124.72" height="19685"/>
   </clipPath>
 </defs>
 <g id="图层_x0020_1">
  <metadata id="CorelCorpID_0Corel-Layer"/>
  <g style="clip-path:url(#id0)">
   <image x="-50162.3" y="-4137.6" width="8439.96" height="16027.95" xlink:href="ZE553KL -11i（前膜带壳）_Images\ZE553KL -11i（前膜带壳）_ImgID1.png"/>
  </g>
  <g style="clip-path:url(#id1)">
   <image x="-72097.87" y="-6842.5" width="10124.72" height="19685" xlink:href="ZE553KL -11i（前膜带壳）_Images\ZE553KL -11i（前膜带壳）_ImgID2.png"/>
  </g>
  <rect class="fil0 str0" x="-49947.26" y="-3873.45" width="7700" height="15430"/>
  <rect class="fil0 str0" x="-49798.47" y="-3717.35" width="7402.42" height="15141.24" rx="800" ry="901.01"/>
  <circle class="fil0 str1" cx="-48127.65" cy="-3085.81" r="113.77"/>
  <rect class="fil0 str1" x="-47583.93" y="-3192.32" width="518.59" height="221.61" rx="317.83" ry="317.05"/>
  <rect class="fil0 str1" x="-46710.12" y="-3151.58" width="1244.19" height="157.44" rx="762.54" ry="225.25"/>
  <path class="fil0 str2" d="M-11436.94 7232.47l0 -6160.58c0,-434.04 -357.63,-789.19 -794.71,-789.19l-13451.78 0c-437.09,0 -794.71,355.14 -794.71,789.19l0 5724.02c0,434.05 357.62,789.19 794.71,789.19l13451.78 0c437.09,0 794.71,-355.14 794.71,-789.19 0,-434.05 77.92,-723.28 161.27,-839.7"/>
  <path class="fil0 str2" d="M-26010.39 5964.29c0,62.83 50.94,113.77 113.77,113.77 62.83,0 113.77,-50.94 113.77,-113.77 0,-62.83 -50.94,-113.77 -113.77,-113.77 -62.83,0 -113.77,50.94 -113.77,113.77 0,62.83 67.82,82.53 88.99,84.85"/>
  <path class="fil0 str2" d="M-26003.12 5309.76c0,60.94 49.86,110.8 110.8,110.8l0.01 0c60.94,0 110.8,-49.86 110.8,-110.8l0 -296.99c0,-60.94 -49.86,-110.8 -110.8,-110.8l-0.01 0c-60.94,0 -110.8,49.86 -110.8,110.8l0 296.99c0,0 3.34,-140.37 37.07,-162.86"/>
  <path class="fil0 str2" d="M-25962.39 4468.03c0,43.31 35.41,78.72 78.71,78.72l0.02 0c43.3,0 78.71,-35.41 78.71,-78.72l0 -1086.75c0,-43.31 -35.41,-78.72 -78.71,-78.72l-0.02 0c-43.3,0 -78.71,35.41 -78.71,78.72l0 1086.75c0,0 1.21,-157.42 37.92,-191.49"/>
  <g id="_1400044327696">
   <path class="fil0 str2" d="M973.44 5308.21l1911.89 0c135.35,0 246.09,-110.74 246.09,-246.09l0 -4165.5c0,-135.35 -110.74,-246.09 -246.09,-246.09l-1784.92 0c-135.35,0 -246.09,110.74 -246.09,246.09l0 4165.5c0,135.35 110.74,246.09 246.09,246.09 135.35,0 199.29,19.12 229.81,42.32"/>
   <path class="fil0 str2" d="M1368.29 809.8c-19.33,0 -35,15.67 -35,35 0,19.33 15.67,35 35,35 19.33,0 35,-15.67 35,-35 0,-19.33 -15.67,-35 -35,-35 -19.33,0 -25.39,20.87 -26.1,27.38"/>
   <path class="fil0 str2" d="M1569.63 812.04c-18.74,0 -34.08,15.34 -34.08,34.08l0 0.01c0,18.74 15.34,34.08 34.08,34.08l91.36 0c18.75,0 34.09,-15.34 34.09,-34.08l0 -0.01c0,-18.74 -15.34,-34.08 -34.09,-34.08l-91.36 0c0,0 43.18,1.03 50.1,11.4"/>
   <path class="fil0 str2" d="M1828.56 824.57c-13.32,0 -24.21,10.89 -24.21,24.21l0 0.01c0,13.32 10.89,24.21 24.21,24.21l334.3 0c13.33,0 24.22,-10.89 24.22,-24.21l0 -0.01c0,-13.32 -10.89,-24.21 -24.22,-24.21l-334.3 0c0,0 48.43,0.37 58.91,11.66"/>
  </g>
 </g>
</svg>
