<?xml version="1.0" encoding="UTF-8"?>
<!DOCTYPE svg PUBLIC "-//W3C//DTD SVG 1.1//EN" "http://www.w3.org/Graphics/SVG/1.1/DTD/svg11.dtd">
<!-- Creator: CorelDRAW X8 -->
<svg xmlns="http://www.w3.org/2000/svg" xml:space="preserve" width="40mm" height="60mm" version="1.1" style="shape-rendering:geometricPrecision; text-rendering:geometricPrecision; image-rendering:optimizeQuality; fill-rule:evenodd; clip-rule:evenodd"
viewBox="0 0 4000 6000"
 xmlns:xlink="http://www.w3.org/1999/xlink">
 <defs>
  <style type="text/css">
   <![CDATA[
    .str0 {stroke:#332C2B;stroke-width:7.62}
    .fil0 {fill:none}
   ]]>
  </style>
 </defs>
 <g id="图层_x0020_1">
  <metadata id="CorelCorpID_0Corel-Layer"/>
  <path class="fil0 str0" d="M911 5271l1950 0c125,0 228,-103 228,-228l0 -4157c0,-104 -72,-192 -168,-220 -17,-5 -22,-6 -46,4 -253,108 -553,181 -845,189 -270,-2 -563,-64 -833,-182 -38,-16 -37,-22 -79,-10 -95,27 -165,115 -165,219l0 4157c0,125 103,228 228,228 126,0 295,29 295,79m1411 -4700c-255,111 -561,186 -857,194 -279,-2 -583,-68 -860,-194l1717 0z"/>
 </g>
</svg>
