<?xml version="1.0" encoding="UTF-8"?>
<!DOCTYPE svg PUBLIC "-//W3C//DTD SVG 1.1//EN" "http://www.w3.org/Graphics/SVG/1.1/DTD/svg11.dtd">
<!-- Creator: CorelDRAW X8 -->
<svg xmlns="http://www.w3.org/2000/svg" xml:space="preserve" width="40mm" height="60mm" version="1.1" style="shape-rendering:geometricPrecision; text-rendering:geometricPrecision; image-rendering:optimizeQuality; fill-rule:evenodd; clip-rule:evenodd"
viewBox="0 0 4000 6000"
 xmlns:xlink="http://www.w3.org/1999/xlink">
 <defs>
  <style type="text/css">
   <![CDATA[
    .str0 {stroke:black;stroke-width:7.62}
    .fil0 {fill:none}
   ]]>
  </style>
 </defs>
 <g id="图层_x0020_1">
  <metadata id="CorelCorpID_0Corel-Layer"/>
  <path class="fil0 str0" d="M849 1082l118 0c12,-243 267,-265 261,-265l-395 -53c-4,-1 -8,-4 -8,-8l0 -98c0,-4 4,-8 8,-8l2326 0c4,0 8,4 8,8l0 95c0,5 -4,8 -8,8l-376 56c13,-2 238,9 250,265l118 0c5,0 8,3 8,8l0 3812c0,5 -3,8 -8,8l-118 0c-4,146 -122,262 -267,268l0 0 412 55c4,1 8,4 8,8l0 101c0,4 -4,8 -8,8l-2356 0c-4,0 -8,-4 -8,-8l0 -98c0,-4 4,-7 8,-8l409 -56c-2,1 -257,-22 -264,-270l-118 0c-5,0 -8,-3 -8,-8l0 -3812c0,-5 3,-8 8,-8zm1190 673c-1,-12 -11,-23 -33,-25 -77,0 -139,63 -139,140 0,76 62,139 139,139 77,0 139,-63 139,-139 0,-77 -62,-140 -139,-140m-1099 910c-15,4 -28,12 -28,49l0 32c0,17 14,31 31,31l0 0c17,0 30,-14 30,-31l0 -220c0,-17 -13,-30 -30,-30l0 0c-17,0 -31,13 -31,30l0 188m1534 2538c0,-3 -3,-5 -7,-5 -17,0 -31,13 -31,30 0,17 14,31 31,31 17,0 30,-14 30,-31 0,-17 -13,-30 -30,-30m-961 23c-6,-20 -17,-35 -65,-35l-42 0c-22,0 -39,18 -39,39l0 0c0,22 17,40 39,40l285 0c22,0 40,-18 40,-40l0 0c0,-21 -18,-39 -40,-39l-243 0m528 0l188 0c9,0 16,7 16,16l0 51c0,8 -7,15 -16,15l-188 0c-9,0 -16,-7 -16,-15l0 -51c0,-9 7,-16 16,-16zm-1001 -3022c-15,4 -28,13 -28,50l0 32c0,17 14,30 31,30l0 0c17,0 30,-13 30,-30l0 -509c0,-17 -13,-30 -30,-30l0 0c-17,0 -31,13 -31,30l0 477m2213 -646c-18,4 -31,14 -31,56l0 36c0,19 15,34 34,34l0 0c19,0 35,-15 35,-34l0 -421c0,-19 -16,-34 -35,-34l0 0c-19,0 -34,15 -34,34l0 385m-438 -965c0,-5 -5,-10 -14,-10 -33,0 -60,26 -60,59 0,33 27,60 60,60 33,0 60,-27 60,-60 0,-33 -27,-59 -60,-59m-1306 330l288 0c77,0 140,63 140,141l0 288c0,78 -63,141 -140,141l-288 0c-77,0 -140,-63 -140,-141l0 -288c0,-78 63,-141 140,-141zm0 30l288 0c61,0 111,50 111,111l0 288c0,61 -50,111 -111,111l-288 0c-61,0 -111,-50 -111,-111l0 -288c0,-61 50,-111 111,-111zm278 86c0,-6 -5,-11 -15,-12 -37,0 -66,30 -66,66 0,37 29,66 66,66 36,0 66,-29 66,-66 0,-36 -30,-66 -66,-66m-221 12c-1,-6 -5,-11 -16,-12 -36,0 -66,30 -66,66 0,37 30,66 66,66 37,0 66,-29 66,-66 0,-36 -29,-66 -66,-66m252 240c0,-5 -5,-11 -15,-11 -37,0 -66,29 -66,66 0,36 29,66 66,66 36,0 66,-30 66,-66 0,-37 -30,-66 -66,-66m-221 11c-1,-5 -5,-11 -16,-11 -36,0 -66,29 -66,66 0,36 30,66 66,66 37,0 66,-30 66,-66 0,-37 -29,-66 -66,-66"/>
 </g>
</svg>
