<?xml version="1.0" encoding="UTF-8"?>
<!DOCTYPE svg PUBLIC "-//W3C//DTD SVG 1.1//EN" "http://www.w3.org/Graphics/SVG/1.1/DTD/svg11.dtd">
<!-- Creator: CorelDRAW X8 -->
<svg xmlns="http://www.w3.org/2000/svg" xml:space="preserve" width="40mm" height="60mm" version="1.1" style="shape-rendering:geometricPrecision; text-rendering:geometricPrecision; image-rendering:optimizeQuality; fill-rule:evenodd; clip-rule:evenodd"
viewBox="0 0 4000 6000"
 xmlns:xlink="http://www.w3.org/1999/xlink">
 <defs>
  <style type="text/css">
   <![CDATA[
    .str0 {stroke:black;stroke-width:20;stroke-linejoin:bevel}
    .fil0 {fill:none}
   ]]>
  </style>
 </defs>
 <g id="图层_x0020_1">
  <metadata id="CorelCorpID_0Corel-Layer"/>
  <path class="fil0 str0" d="M1433 935c-1,-13 -12,-25 -36,-26 0,0 0,0 0,0 -83,0 -150,67 -150,150 0,0 0,0 0,0 0,83 67,151 150,151 0,0 0,0 0,0 83,0 151,-68 151,-151 0,0 0,0 0,0 0,-83 -68,-150 -151,-150m36 701c-1,-13 -12,-25 -36,-27 0,0 0,0 0,0 -83,0 -150,67 -150,151 0,0 0,0 0,0 0,83 67,150 150,150 0,0 0,0 0,0 83,0 151,-67 151,-150 0,0 0,0 0,0 0,-84 -68,-151 -151,-151m23 -279c-1,-10 -9,-19 -27,-20 0,0 0,0 0,0 -64,0 -115,51 -115,114 0,0 0,0 0,0 0,64 51,115 115,115 0,0 0,0 0,0 63,0 115,-51 115,-115 0,0 0,0 0,0 0,-63 -52,-114 -115,-114m-68 -72c0,-3 -3,-6 -8,-6 0,0 0,0 0,0 -20,0 -36,16 -36,36 0,0 0,0 0,0 0,20 16,36 36,36 0,0 0,0 0,0 20,0 36,-16 36,-36 0,0 0,0 0,0 0,-20 -16,-36 -36,-36m171 5c0,-3 -3,-5 -8,-6 0,0 0,0 0,0 -20,0 -36,16 -36,36 0,0 0,0 0,0 0,20 16,36 36,36 0,0 0,0 0,0 20,0 36,-16 36,-36 0,0 0,0 0,0 0,-20 -16,-36 -36,-36m315 41c0,0 9,0 9,0 0,0 0,0 0,0 4,0 4,1 4,4 0,0 0,0 0,0 0,0 1,113 1,113 0,0 0,0 0,0 0,3 0,4 4,4 0,0 0,0 0,0 0,0 35,0 35,0 0,0 0,0 0,0 9,0 10,1 6,12 0,0 0,0 0,0 0,0 -52,142 -52,142 0,0 0,0 0,0 0,2 -1,2 -4,2 0,0 0,0 0,0 0,0 -8,0 -8,0 0,0 0,0 0,0 -4,0 -4,0 -5,-7 0,0 0,0 0,0 0,0 -2,-99 -2,-99 0,0 0,0 0,0 0,-7 0,-8 -8,-8 0,0 0,0 0,0 0,0 -41,0 -41,0 0,0 0,0 0,0 -6,0 -6,0 -3,-6 0,0 0,0 0,0 0,0 59,-152 59,-152 0,0 0,0 0,0 2,-5 3,-5 5,-5zm-407 -451c0,0 0,0 0,0 0,0 0,0 0,0 150,0 273,122 273,272 0,0 0,0 0,0 0,0 0,660 0,660 0,0 0,0 0,0 0,150 -123,272 -273,272 0,0 0,0 0,0 0,0 0,0 0,0 0,0 0,0 0,0 -149,0 -272,-122 -272,-272 0,0 0,0 0,0 0,0 0,-660 0,-660 0,0 0,0 0,0 0,-150 123,-272 272,-272zm3 42c0,0 0,0 0,0 0,0 0,0 0,0 130,0 237,104 237,230 0,0 0,0 0,0 0,0 0,57 0,57 0,0 0,0 0,0 0,7 -1,10 -6,15 0,0 0,0 0,0 0,0 -66,62 -66,62 0,0 0,0 0,0 -5,5 -5,7 -5,14 0,0 0,0 0,0 0,0 0,362 0,362 0,0 0,0 0,0 0,6 0,8 5,12 0,0 0,0 0,0 0,0 68,70 68,70 0,0 0,0 0,0 4,4 4,5 4,10 0,0 0,0 0,0 0,0 0,58 0,58 0,0 0,0 0,0 0,126 -107,229 -237,229 0,0 0,0 0,0 0,0 0,0 0,0 0,0 0,0 0,0 -130,0 -236,-103 -236,-229 0,0 0,0 0,0 0,0 0,-42 0,-42 0,0 0,0 0,0 0,-6 0,-7 3,-10 0,0 0,0 0,0 0,0 73,-75 73,-75 0,0 0,0 0,0 4,-4 5,-6 5,-13 0,0 0,0 0,0 0,0 0,-381 0,-381 0,0 0,0 0,0 0,-3 -1,-4 -3,-6 0,0 0,0 0,0 0,0 -74,-72 -74,-72 0,0 0,0 0,0 -4,-4 -4,-5 -4,-11 0,0 0,0 0,0 0,0 0,-50 0,-50 0,0 0,0 0,0 0,-126 106,-230 236,-230zm-240 4379c45,0 281,28 290,134m-573 -134l2063 0c53,0 105,-22 142,-59 38,-38 59,-89 59,-142l0 -1506 -58 -143 0 -860 58 -144 0 -1511c0,-53 -21,-105 -59,-142 -38,-38 -89,-59 -142,-59l-1778 0c-53,0 -105,21 -142,59 -38,38 -59,89 -59,142l0 1511 58 144 0 860 -58 143 0 1506c0,53 21,104 59,142 38,38 89,59 142,59"/>
 </g>
</svg>
