<?xml version="1.0" encoding="UTF-8"?>
<!DOCTYPE svg PUBLIC "-//W3C//DTD SVG 1.1//EN" "http://www.w3.org/Graphics/SVG/1.1/DTD/svg11.dtd">
<!-- Creator: CorelDRAW X8 -->
<svg xmlns="http://www.w3.org/2000/svg" xml:space="preserve" width="40mm" height="60mm" version="1.1" style="shape-rendering:geometricPrecision; text-rendering:geometricPrecision; image-rendering:optimizeQuality; fill-rule:evenodd; clip-rule:evenodd"
viewBox="0 0 4000 6000"
 xmlns:xlink="http://www.w3.org/1999/xlink">
 <defs>
  <style type="text/css">
   <![CDATA[
    .str0 {stroke:black;stroke-width:10}
    .fil0 {fill:none}
   ]]>
  </style>
 </defs>
 <g id="图层_x0020_1">
  <metadata id="CorelCorpID_0Corel-Layer"/>
  <path class="fil0 str0" d="M992 5350l1902 0c104,0 189,-85 189,-189l0 -4322c0,-104 -85,-189 -189,-189l-614 0c-2,0 -3,0 -4,2l-8 8c-2,3 -3,3 -7,3l-139 0c-19,0 -29,6 -29,31l0 22c0,51 -42,93 -93,93l0 0c-51,0 -92,-42 -92,-93l0 -17c0,-28 -13,-36 -40,-36l-134 0c-4,0 -5,0 -7,-3l-6 -7c-2,-3 -2,-3 -6,-3l-609 0c-104,0 -189,85 -189,189l0 4322c0,104 85,189 189,189l146 0"/>
 </g>
</svg>
