<?xml version="1.0" encoding="UTF-8"?>
<!DOCTYPE svg PUBLIC "-//W3C//DTD SVG 1.1//EN" "http://www.w3.org/Graphics/SVG/1.1/DTD/svg11.dtd">
<!-- Creator: CorelDRAW 2020 (64-Bit) -->
<svg xmlns="http://www.w3.org/2000/svg" xml:space="preserve" width="40mm" height="60mm" version="1.1" style="shape-rendering:geometricPrecision; text-rendering:geometricPrecision; image-rendering:optimizeQuality; fill-rule:evenodd; clip-rule:evenodd"
viewBox="0 0 4000 6000"
 xmlns:xlink="http://www.w3.org/1999/xlink"
 xmlns:xodm="http://www.corel.com/coreldraw/odm/2003">
 <defs>
  <style type="text/css">
   <![CDATA[
    .str1 {stroke:#332C2B;stroke-width:20;stroke-miterlimit:22.9256}
    .str0 {stroke:#222222;stroke-width:20;stroke-miterlimit:22.9256}
    .fil0 {fill:none}
   ]]>
  </style>
   <clipPath id="id0">
    <rect x="-42731.52" y="-5887.95" width="19411.6" height="16868.94"/>
   </clipPath>
 </defs>
 <g id="图层_x0020_1">
  <metadata id="CorelCorpID_0Corel-Layer"/>
  <g style="clip-path:url(#id0)">
   <image x="-42731.52" y="-5887.95" width="19411.6" height="16868.94" xlink:href="Galaxy Note20 Ultra 5G-11i（背膜全包）_Images\Galaxy Note20 Ultra 5G-11i（背膜全包）_ImgID1.png"/>
  </g>
  <path class="fil0 str0" d="M-41414.97 10782.07l0 -9207.24 441.99 0c24.5,0 44.54,-20.04 44.54,-44.54l0 -1136.76c0,-24.5 -20.04,-44.54 -44.54,-44.54l-441.99 0 0 -659.09 441.99 0c24.5,0 44.54,-20.04 44.54,-44.54l0 -2093.74c0,-24.5 -20.04,-44.54 -44.54,-44.54l-441.99 0 0 -2922.32c0,-84.48 69.12,-153.6 153.6,-153.6l8215.5 0c84.48,0 153.6,69.12 153.6,153.6l0 15859.97c0,84.48 -69.12,153.6 -153.6,153.6l-8215.5 0c-84.48,0 -153.6,-69.12 -153.6,-153.6 0,-84.48 -30.84,-185.09 -121.43,-160.82"/>
  <path class="fil0 str1" d="M-40482.46 10704.26l6659.01 0c206.25,0 375,168.75 375,375l0 0c0,206.25 -168.75,375 -375,375l-6659.01 0c-206.25,0 -375,-168.75 -375,-375l0 0c0,-206.25 168.75,-375 375,-375z"/>
  <path class="fil0 str1" d="M-38796.12 10876.51c-104.11,0 -188.51,84.4 -188.51,188.51 0,104.11 84.4,188.51 188.51,188.51 104.11,0 188.51,-84.4 188.51,-188.51 0,-104.11 -84.4,-188.51 -188.51,-188.51 -104.11,0 -148.83,119.46 -148.83,206.15"/>
  <path class="fil0 str1" d="M-37560.44 10793.74c-142.21,0 -258.56,116.35 -258.56,258.56l0 0.01c0,142.21 116.35,258.56 258.56,258.56l617.5 0c142.21,0 258.56,-116.35 258.56,-258.56l0 -0.01c0,-142.21 -116.35,-258.56 -258.56,-258.56l-617.5 0c0,0 365.1,-1.6 365.1,124.08"/>
  <path class="fil0 str1" d="M-35774.35 10799.51c-148.24,0 -269.52,122.75 -269.52,272.79l0 0.01c0,150.04 121.28,272.79 269.52,272.79l643.68 0c148.24,0 269.52,-122.75 269.52,-272.79l0 -0.01c0,-150.04 -121.28,-272.79 -269.52,-272.79l-643.68 0c0,0 380.58,-1.69 380.58,130.91"/>
  <path class="fil0 str1" d="M-34396.76 10769.56c-126.16,0 -229.37,133.69 -229.37,297.1l0 0.01c0,163.4 103.21,297.09 229.37,297.09l547.78 0c126.16,0 229.37,-133.69 229.37,-297.09l0 -0.01c0,-163.41 -103.21,-297.1 -229.37,-297.1l-547.78 0c0,0 323.88,-1.84 323.88,142.57"/>
  <path class="fil0 str1" d="M-33823.44 -6445.95l-6659.01 0c-206.25,0 -375,168.75 -375,375l0 0c0,206.25 168.75,375 375,375l6659.01 0c206.25,0 375,-168.75 375,-375l0 0c0,-206.25 -168.75,-375 -375,-375z"/>
  <path class="fil0 str1" d="M-34325.43 -6174.32c107.29,0 195.06,87.76 195.06,195.07l0 0c0,107.31 -87.77,195.07 -195.06,195.07l-1845.61 0c-107.29,0 -195.06,-87.76 -195.06,-195.07l0 0c0,-107.31 87.77,-195.07 195.06,-195.07l1845.61 0c0,0 -869.89,45.34 -869.89,205.19"/>
  <path class="fil0 str1" d="M-39349.02 -6211.67c113.85,0 206.15,92.3 206.15,206.15 0,113.85 -92.3,206.15 -206.15,206.15 -113.85,0 -206.15,-92.3 -206.15,-206.15 0,-113.85 92.3,-206.15 206.15,-206.15 113.85,0 149.93,108.03 149.93,223.79"/>
  <rect class="fil0 str1" x="-40471.31" y="-5193.66" width="2960.11" height="4731.07" rx="450" ry="472.75"/>
  <rect class="fil0 str1" x="-40286.46" y="-5021.67" width="2590.41" height="4352.44" rx="350" ry="386.54"/>
  <path class="fil0 str1" d="M-39471.2 -4968.65c-354.36,0 -641.64,287.28 -641.64,641.64 0,354.36 287.28,641.64 641.64,641.64 354.36,0 641.64,-287.28 641.64,-641.64 0,-354.36 -287.28,-641.64 -641.64,-641.64 -354.36,0 -534.11,347.28 -534.11,491.15"/>
  <path class="fil0 str1" d="M-39471.2 -3508.49c-354.36,0 -641.64,287.28 -641.64,641.64 0,354.36 287.28,641.64 641.64,641.64 354.36,0 641.64,-287.28 641.64,-641.64 0,-354.36 -287.28,-641.64 -641.64,-641.64 -354.36,0 -534.11,347.28 -534.11,491.15"/>
  <path class="fil0 str1" d="M-39471.2 -2006.98c-354.36,0 -641.64,287.28 -641.64,641.64 0,354.36 287.28,641.64 641.64,641.64 354.36,0 641.64,-287.28 641.64,-641.64 0,-354.36 -287.28,-641.64 -641.64,-641.64 -354.36,0 -534.11,347.28 -534.11,491.15"/>
  <path class="fil0 str1" d="M-38199.47 -4571.75c-135.16,0 -244.74,109.58 -244.74,244.74 0,135.16 109.58,244.74 244.74,244.74 135.16,0 244.74,-109.58 244.74,-244.74 0,-135.16 -109.58,-244.74 -244.74,-244.74 -135.16,0 -203.72,132.46 -203.72,187.34"/>
  <path class="fil0 str1" d="M-38201.94 -3760.58c-147.81,0 -268.73,120.92 -268.73,268.72l0 630.45c0,147.8 120.92,268.72 268.73,268.72l0 0c147.8,0 268.72,-120.92 268.72,-268.72l0 -630.45c0,-147.8 -120.92,-268.72 -268.72,-268.72l0 0c0,0 -224.85,26.08 -224.85,305.54"/>
  <path class="fil0 str0" d="M-1926.38 6704.8l-9207.24 0 0 -441.99c0,-24.5 -20.04,-44.54 -44.54,-44.54l-1136.76 0c-24.5,0 -44.54,20.04 -44.54,44.54l0 441.99 -659.09 0 0 -441.99c0,-24.5 -20.04,-44.54 -44.54,-44.54l-2093.74 0c-24.5,0 -44.54,20.04 -44.54,44.54l0 441.99 -2922.32 0c-84.48,0 -153.6,-69.12 -153.6,-153.6l0 -8215.5c0,-84.48 69.12,-153.6 153.6,-153.6l15859.97 0c84.48,0 153.6,69.12 153.6,153.6l0 8215.5c0,84.48 -69.12,153.6 -153.6,153.6 -84.48,0 -185.09,30.84 -160.82,121.43"/>
  <path class="fil0 str1" d="M-2004.19 5772.29l0 -6659.01c0,-206.25 168.75,-375 375,-375l0 0c206.25,0 375,168.75 375,375l0 6659.01c0,206.25 -168.75,375 -375,375l0 0c-206.25,0 -375,-168.75 -375,-375z"/>
  <path class="fil0 str1" d="M-1831.94 4085.95c0,104.11 84.4,188.51 188.51,188.51 104.11,0 188.51,-84.4 188.51,-188.51 0,-104.11 -84.4,-188.51 -188.51,-188.51 -104.11,0 -188.51,84.4 -188.51,188.51 0,104.11 119.46,148.83 206.15,148.83"/>
  <path class="fil0 str1" d="M-1914.71 2850.27c0,142.21 116.35,258.56 258.56,258.56l0.01 0c142.21,0 258.56,-116.35 258.56,-258.56l0 -617.5c0,-142.21 -116.35,-258.56 -258.56,-258.56l-0.01 0c-142.21,0 -258.56,116.35 -258.56,258.56l0 617.5c0,0 -1.6,-365.1 124.08,-365.1"/>
  <path class="fil0 str1" d="M-1908.94 1064.18c0,148.24 122.75,269.52 272.79,269.52l0.01 0c150.04,0 272.79,-121.28 272.79,-269.52l0 -643.68c0,-148.24 -122.75,-269.52 -272.79,-269.52l-0.01 0c-150.04,0 -272.79,121.28 -272.79,269.52l0 643.68c0,0 -1.69,-380.58 130.91,-380.58"/>
  <path class="fil0 str1" d="M-1938.89 -313.41c0,126.16 133.69,229.37 297.1,229.37l0.01 0c163.4,0 297.09,-103.21 297.09,-229.37l0 -547.78c0,-126.16 -133.69,-229.37 -297.09,-229.37l-0.01 0c-163.41,0 -297.1,103.21 -297.1,229.37l0 547.78c0,0 -1.84,-323.88 142.57,-323.88"/>
  <path class="fil0 str1" d="M-19154.4 -886.73l0 6659.01c0,206.25 168.75,375 375,375l0 0c206.25,0 375,-168.75 375,-375l0 -6659.01c0,-206.25 -168.75,-375 -375,-375l0 0c-206.25,0 -375,168.75 -375,375z"/>
  <path class="fil0 str1" d="M-18882.77 -384.74c0,-107.29 87.76,-195.06 195.07,-195.06l0 0c107.31,0 195.07,87.77 195.07,195.06l0 1845.61c0,107.29 -87.76,195.06 -195.07,195.06l0 0c-107.31,0 -195.07,-87.77 -195.07,-195.06l0 -1845.61c0,0 45.34,869.89 205.19,869.89"/>
  <path class="fil0 str1" d="M-18920.12 4638.85c0,-113.85 92.3,-206.15 206.15,-206.15 113.85,0 206.15,92.3 206.15,206.15 0,113.85 -92.3,206.15 -206.15,206.15 -113.85,0 -206.15,-92.3 -206.15,-206.15 0,-113.85 108.03,-149.93 223.79,-149.93"/>
  <path class="fil0 str1" d="M-17902.1 5311.14l0 -2060.11c0,-247.5 202.5,-450 450,-450l3831.07 0c247.5,0 450,202.5 450,450l0 2060.11c0,247.5 -202.5,450 -450,450l-3831.07 0c-247.5,0 -450,-202.5 -450,-450z"/>
  <path class="fil0 str1" d="M-17730.12 5226.29l0 -1890.41c0,-192.5 157.5,-350 350,-350l3652.44 0c192.5,0 350,157.5 350,350l0 1890.41c0,192.5 -157.5,350 -350,350l-3652.44 0c-192.5,0 -350,-157.5 -350,-350z"/>
  <path class="fil0 str1" d="M-17677.1 4761.03c0,354.36 287.28,641.64 641.64,641.64 354.36,0 641.64,-287.28 641.64,-641.64 0,-354.36 -287.28,-641.64 -641.64,-641.64 -354.36,0 -641.64,287.28 -641.64,641.64 0,354.36 347.28,534.11 491.15,534.11"/>
  <path class="fil0 str1" d="M-16216.94 4761.03c0,354.36 287.28,641.64 641.64,641.64 354.36,0 641.64,-287.28 641.64,-641.64 0,-354.36 -287.28,-641.64 -641.64,-641.64 -354.36,0 -641.64,287.28 -641.64,641.64 0,354.36 347.28,534.11 491.15,534.11"/>
  <path class="fil0 str1" d="M-14715.43 4761.03c0,354.36 287.28,641.64 641.64,641.64 354.36,0 641.64,-287.28 641.64,-641.64 0,-354.36 -287.28,-641.64 -641.64,-641.64 -354.36,0 -641.64,287.28 -641.64,641.64 0,354.36 347.28,534.11 491.15,534.11"/>
  <path class="fil0 str1" d="M-17280.2 3489.3c0,135.16 109.58,244.74 244.74,244.74 135.16,0 244.74,-109.58 244.74,-244.74 0,-135.16 -109.58,-244.74 -244.74,-244.74 -135.16,0 -244.74,109.58 -244.74,244.74 0,135.16 132.46,203.72 187.34,203.72"/>
  <path class="fil0 str1" d="M-16469.03 3491.77c0,147.81 120.92,268.73 268.72,268.73l630.45 0c147.8,0 268.72,-120.92 268.72,-268.73l0 0c0,-147.8 -120.92,-268.72 -268.72,-268.72l-630.45 0c-147.8,0 -268.72,120.92 -268.72,268.72l0 0c0,0 26.08,224.85 305.54,224.85"/>
  <g id="_2776801522144">
   <path class="fil0 str0" d="M890.45 5179.17l0 -2417.51 116.06 0c6.43,0 11.69,-5.26 11.69,-11.7l0 -298.47c0,-6.43 -5.26,-11.7 -11.69,-11.7l-116.06 0 0 -173.05 116.06 0c6.43,0 11.69,-5.26 11.69,-11.7l0 -549.74c0,-6.44 -5.26,-11.7 -11.69,-11.7l-116.06 0 0 -767.3c0,-22.18 18.15,-40.33 40.33,-40.33l2157.12 0c22.18,0 40.33,18.15 40.33,40.33l0 4164.3c0,22.18 -18.15,40.33 -40.33,40.33l-2157.12 0c-22.18,0 -40.33,-18.15 -40.33,-40.33 0,-22.18 -8.09,-48.6 -31.88,-42.23"/>
   <path class="fil0 str1" d="M1135.3 5158.74l1748.43 0c54.16,0 98.47,44.31 98.47,98.47l0 0c0,54.15 -44.31,98.46 -98.47,98.46l-1748.43 0c-54.15,0 -98.46,-44.31 -98.46,-98.46l0 0c0,-54.16 44.31,-98.47 98.46,-98.47z"/>
   <path class="fil0 str1" d="M1578.08 5203.97c-27.34,0 -49.5,22.16 -49.5,49.5 0,27.33 22.16,49.49 49.5,49.49 27.33,0 49.49,-22.16 49.49,-49.49 0,-27.34 -22.16,-49.5 -49.49,-49.5 -27.34,0 -39.08,31.37 -39.08,54.13"/>
   <path class="fil0 str1" d="M1902.53 5182.24c-37.34,0 -67.89,30.55 -67.89,67.89l0 0c0,37.34 30.55,67.89 67.89,67.89l162.13 0c37.34,0 67.89,-30.55 67.89,-67.89l0 0c0,-37.34 -30.55,-67.89 -67.89,-67.89l-162.13 0c0,0 95.86,-0.42 95.86,32.58"/>
   <path class="fil0 str1" d="M2371.49 5183.75c-38.92,0 -70.76,32.23 -70.76,71.63l0 0c0,39.4 31.84,71.63 70.76,71.63l169.01 0c38.92,0 70.77,-32.23 70.77,-71.63l0 0c0,-39.4 -31.85,-71.63 -70.77,-71.63l-169.01 0c0,0 99.93,-0.44 99.93,34.38"/>
   <path class="fil0 str1" d="M2733.2 5175.89c-33.12,0 -60.22,35.1 -60.22,78.01l0 0c0,42.9 27.1,78.01 60.22,78.01l143.83 0c33.13,0 60.23,-35.11 60.23,-78.01l0 0c0,-42.91 -27.1,-78.01 -60.23,-78.01l-143.83 0c0,0 85.04,-0.48 85.04,37.43"/>
   <path class="fil0 str1" d="M2883.74 655.67l-1748.44 0c-54.15,0 -98.46,44.31 -98.46,98.46l0 0c0,54.16 44.31,98.46 98.46,98.46l1748.44 0c54.15,0 98.46,-44.3 98.46,-98.46l0 0c0,-54.15 -44.31,-98.46 -98.46,-98.46z"/>
   <path class="fil0 str1" d="M2751.93 726.99c28.17,0 51.22,23.04 51.22,51.22l0 0c0,28.17 -23.05,51.22 -51.22,51.22l-484.59 0c-28.18,0 -51.22,-23.05 -51.22,-51.22l0 0c0,-28.18 23.04,-51.22 51.22,-51.22l484.59 0c0,0 -228.4,11.9 -228.4,53.88"/>
   <path class="fil0 str1" d="M1432.9 717.18c29.9,0 54.13,24.24 54.13,54.13 0,29.89 -24.23,54.13 -54.13,54.13 -29.89,0 -54.12,-24.24 -54.12,-54.13 0,-29.89 24.23,-54.13 54.12,-54.13 29.9,0 39.37,28.37 39.37,58.76"/>
   <path class="fil0 str1" d="M1256.38 984.48l540.92 0c64.98,0 118.15,53.17 118.15,118.16l0 1005.91c0,64.98 -53.17,118.15 -118.15,118.15l-540.92 0c-64.98,0 -118.15,-53.17 -118.15,-118.15l0 -1005.91c0,-64.99 53.17,-118.16 118.15,-118.16z"/>
   <path class="fil0 str1" d="M1278.66 1029.64l496.36 0c50.54,0 91.9,41.35 91.9,91.9l0 959c0,50.55 -41.36,91.9 -91.9,91.9l-496.36 0c-50.54,0 -91.9,-41.35 -91.9,-91.9l0 -959c0,-50.55 41.36,-91.9 91.9,-91.9z"/>
   <path class="fil0 str1" d="M1400.82 1043.56c-93.04,0 -168.47,75.43 -168.47,168.47 0,93.05 75.43,168.48 168.47,168.48 93.05,0 168.48,-75.43 168.48,-168.48 0,-93.04 -75.43,-168.47 -168.48,-168.47 -93.04,0 -140.24,91.18 -140.24,128.96"/>
   <path class="fil0 str1" d="M1400.82 1426.95c-93.04,0 -168.47,75.43 -168.47,168.47 0,93.04 75.43,168.47 168.47,168.47 93.05,0 168.48,-75.43 168.48,-168.47 0,-93.04 -75.43,-168.47 -168.48,-168.47 -93.04,0 -140.24,91.18 -140.24,128.96"/>
   <path class="fil0 str1" d="M1400.82 1821.19c-93.04,0 -168.47,75.43 -168.47,168.48 0,93.04 75.43,168.47 168.47,168.47 93.05,0 168.48,-75.43 168.48,-168.47 0,-93.05 -75.43,-168.48 -168.48,-168.48 -93.04,0 -140.24,91.19 -140.24,128.96"/>
   <path class="fil0 str1" d="M1734.74 1147.77c-35.49,0 -64.26,28.77 -64.26,64.26 0,35.49 28.77,64.26 64.26,64.26 35.49,0 64.26,-28.77 64.26,-64.26 0,-35.49 -28.77,-64.26 -64.26,-64.26 -35.49,0 -53.49,34.78 -53.49,49.19"/>
   <path class="fil0 str1" d="M1734.09 1360.76c-38.81,0 -70.56,31.75 -70.56,70.55l0 165.54c0,38.81 31.75,70.56 70.56,70.56l0 0c38.81,0 70.56,-31.75 70.56,-70.56l0 -165.54c0,-38.8 -31.75,-70.55 -70.56,-70.55l0 0c0,0 -59.04,6.85 -59.04,80.22"/>
  </g>
 </g>
</svg>
