<?xml version="1.0" encoding="UTF-8"?>
<!DOCTYPE svg PUBLIC "-//W3C//DTD SVG 1.1//EN" "http://www.w3.org/Graphics/SVG/1.1/DTD/svg11.dtd">
<!-- Creator: CorelDRAW X8 -->
<svg xmlns="http://www.w3.org/2000/svg" xml:space="preserve" width="40mm" height="60mm" version="1.1" style="shape-rendering:geometricPrecision; text-rendering:geometricPrecision; image-rendering:optimizeQuality; fill-rule:evenodd; clip-rule:evenodd"
viewBox="0 0 4000 6000"
 xmlns:xlink="http://www.w3.org/1999/xlink">
 <defs>
  <style type="text/css">
   <![CDATA[
    .str0 {stroke:#332C2B;stroke-width:7.62}
    .fil0 {fill:none}
   ]]>
  </style>
 </defs>
 <g id="图层_x0020_1">
  <metadata id="CorelCorpID_0Corel-Layer"/>
  <path class="fil0 str0" d="M931 5350l0 -4477c0,-108 89,-191 197,-196 617,-34 1236,-38 1858,0 108,6 196,88 196,196l0 4204c0,108 -89,188 -196,197 -620,49 -1239,43 -1858,0 -108,-8 -197,-89 -197,-197 0,-108 -74,-197 -113,-197m550 -3988c-56,-15 -34,-71 0,-71 33,0 61,27 61,61 0,34 -28,61 -61,61 -34,0 -61,-27 -61,-61 0,-34 27,-61 61,-61m720 76c0,-49 -82,-62 -107,-62 -24,0 -44,20 -44,45l0 0c0,25 20,45 44,45l449 0c25,0 45,-20 45,-45l0 0c0,-25 -20,-45 -45,-45l-449 0"/>
 </g>
</svg>
