<?xml version="1.0" encoding="UTF-8"?>
<!DOCTYPE svg PUBLIC "-//W3C//DTD SVG 1.1//EN" "http://www.w3.org/Graphics/SVG/1.1/DTD/svg11.dtd">
<!-- Creator: CorelDRAW X8 -->
<svg xmlns="http://www.w3.org/2000/svg" xml:space="preserve" width="40mm" height="60mm" version="1.1" style="shape-rendering:geometricPrecision; text-rendering:geometricPrecision; image-rendering:optimizeQuality; fill-rule:evenodd; clip-rule:evenodd"
viewBox="0 0 4000 6000"
 xmlns:xlink="http://www.w3.org/1999/xlink">
 <defs>
  <style type="text/css">
   <![CDATA[
    .str0 {stroke:#333333;stroke-width:18;stroke-linejoin:bevel}
    .fil0 {fill:none}
   ]]>
  </style>
 </defs>
 <g id="图层_x0020_1">
  <metadata id="CorelCorpID_0Corel-Layer"/>
  <path class="fil0 str0" d="M1106 798c0,37 29,66 66,66 36,0 66,-29 66,-66 0,-36 -30,-65 -66,-65 -37,0 -66,29 -66,65zm-87 4552c253,0 1832,0 1832,0 101,0 184,-83 184,-184 0,0 0,-4332 0,-4332 0,-101 -83,-184 -184,-184 0,0 -1702,0 -1702,0 -101,0 -184,83 -184,184 0,0 0,4332 0,4332 0,101 83,184 184,184 0,0 13,0 38,0"/>
 </g>
</svg>
