<?xml version="1.0" encoding="UTF-8"?>
<!DOCTYPE svg PUBLIC "-//W3C//DTD SVG 1.1//EN" "http://www.w3.org/Graphics/SVG/1.1/DTD/svg11.dtd">
<!-- Creator: CorelDRAW 2020 (64-Bit) -->
<svg xmlns="http://www.w3.org/2000/svg" xml:space="preserve" width="40mm" height="60mm" version="1.1" style="shape-rendering:geometricPrecision; text-rendering:geometricPrecision; image-rendering:optimizeQuality; fill-rule:evenodd; clip-rule:evenodd"
viewBox="0 0 4000 6000"
 xmlns:xlink="http://www.w3.org/1999/xlink"
 xmlns:xodm="http://www.corel.com/coreldraw/odm/2003">
 <defs>
  <style type="text/css">
   <![CDATA[
    .str1 {stroke:#332C2B;stroke-width:20;stroke-miterlimit:22.9256}
    .str0 {stroke:#332C2B;stroke-width:20;stroke-miterlimit:22.9256}
    .fil0 {fill:none}
   ]]>
  </style>
 </defs>
 <g id="图层_x0020_1">
  <metadata id="CorelCorpID_0Corel-Layer"/>
  <g id="_1928790180560">
   <g>
    <path class="fil0 str0" d="M918.59 882.48l-168.63 -0.16c-19.46,0.33 -29.14,12.95 -29.14,27.02l0 725.14c0,16.11 17.49,26.86 34.18,26.86l104.99 0 0 1250.07 -107.43 0c-16.96,0 -31.74,10.35 -31.74,26.86l0 2155.9c0,35.58 57.64,26.85 85.45,26.85 37.44,0 74.88,0 112.32,0 10.35,124.46 116.7,229.51 251.48,229.51l1638.28 0c40.24,0 72.33,-7.82 100.49,-19.15 83.03,-33.41 148.07,-116.64 155.87,-210.36l170.69 -0.22c15.2,-1.72 29.52,-12.48 29.52,-29.08l0 -3401.08c0,-20.31 -15.85,-31.75 -29.3,-31.75l-119.64 0 0 -573.76 117.2 0c19.11,0 31.74,-12.64 31.74,-31.74l0 -139.17c0,-17.66 -9.76,-31.74 -26.86,-31.74l-173.35 0c-1.56,-70.03 -53.49,-152.71 -114.25,-190.95 -43.36,-27.29 -87.29,-41 -144.55,-41l-1630.96 0c-140.33,0 -245.62,102.78 -256.36,231.95z"/>
    <path class="fil0 str0" d="M1013.81 948.4l0 378.44c0,54.25 13.69,100.9 48.23,139.77 24.7,27.78 76.64,62.88 127.56,62.88l446.8 0c26.41,0 53.86,-10.96 72.47,-20.31 41.95,-21.08 69.58,-54.36 88.68,-96.88 8.81,-19.63 14.65,-51.94 14.65,-80.58l0 -388.2c0,-63.19 -20.62,-106.86 -60.42,-147.12 -41.05,-41.52 -93.3,-53.09 -154.44,-53.09l-368.68 0c-63.03,0 -113.37,11.68 -155.65,54.32 -41.58,41.93 -59.2,86.04 -59.2,150.77z"/>
    <path class="fil0 str0" d="M1077.29 967.93l0 344.26c0,54.44 7.96,78.65 31.69,109.92 15.8,20.83 56.64,48.78 92.83,48.78l424.83 0c64.16,0 124.52,-62.48 124.52,-144.05l0 -371.11c0,-89.8 -58.08,-148.94 -144.06,-148.94l-385.76 0c-25.47,0 -45.17,4.8 -63.2,12.49 -57.15,24.36 -80.85,78.94 -80.85,148.65z"/>
    <path class="fil0 str0" d="M1782.9 1734.58c0,10.93 3.18,32.92 5.44,43.39 5.03,23.27 16.32,51.42 29.16,70.94 33.36,50.7 97.99,93.2 160.72,93.2l26.86 0c103.58,0 195.32,-97.52 195.32,-205.09 0,-66.3 -33.61,-135.41 -85.89,-170.47 -11.57,-7.76 -18.81,-12.57 -32.08,-19.19 -101.26,-50.53 -226.38,-8.88 -280.86,103.35 -10.46,21.57 -18.67,59.63 -18.67,83.87z"/>
   </g>
   <path class="fil0 str1" d="M1224.34 847.99c60.46,0 109.48,49.02 109.48,109.49 0,60.47 -49.02,109.49 -109.48,109.49 -60.47,0 -109.49,-49.02 -109.49,-109.49 0,-60.47 49.02,-109.49 109.49,-109.49z"/>
   <path class="fil0 str1" d="M1602.79 847.99c60.46,0 109.49,49.02 109.49,109.49 0,60.47 -49.03,109.49 -109.49,109.49 -60.47,0 -109.49,-49.02 -109.49,-109.49 0,-60.47 49.02,-109.49 109.49,-109.49z"/>
   <path class="fil0 str1" d="M1224.34 1211.17c60.46,0 109.48,49.02 109.48,109.49 0,60.47 -49.02,109.49 -109.48,109.49 -60.47,0 -109.49,-49.02 -109.49,-109.49 0,-60.47 49.02,-109.49 109.49,-109.49z"/>
   <path class="fil0 str1" d="M1602.79 1211.17c60.46,0 109.49,49.02 109.49,109.49 0,60.47 -49.03,109.49 -109.49,109.49 -60.47,0 -109.49,-49.02 -109.49,-109.49 0,-60.47 49.02,-109.49 109.49,-109.49z"/>
  </g>
 </g>
</svg>
