<?xml version="1.0" encoding="UTF-8"?>
<!DOCTYPE svg PUBLIC "-//W3C//DTD SVG 1.1//EN" "http://www.w3.org/Graphics/SVG/1.1/DTD/svg11.dtd">
<!-- Creator: CorelDRAW -->
<svg xmlns="http://www.w3.org/2000/svg" xml:space="preserve" width="40mm" height="60mm" style="shape-rendering:geometricPrecision; text-rendering:geometricPrecision; image-rendering:optimizeQuality; fill-rule:evenodd; clip-rule:evenodd"
viewBox="0 0 40 60"
 xmlns:xlink="http://www.w3.org/1999/xlink">
 <defs>
  <style type="text/css">
   <![CDATA[
    .str0 {stroke:#1F1A17;stroke-width:0.194}
    .str1 {stroke:#1F1A17;stroke-width:0.2}
    .str2 {stroke:#1F1A17;stroke-width:0.2}
    .fil0 {fill:none}
   ]]>
  </style>
 </defs>
 <g id="图层_x0020_1">
  <metadata id="CorelCorpID_0Corel-Layer"/>
  <path id="_120883320" class="fil0 str0" d="M29.6414 8.0342l0.0067 -0.0934 0 0.1802m-0.0067 -0.0868z"/>
  <path id="_120883824" class="fil0 str0" d="M29.6481 8.121c0.0132,0.3027 0.0499,0.4272 0.3083,1.0412 0.2189,0.5206 0.2509,0.6725 0.3396,1.6326"/>
  <path id="_120876544" class="fil0 str0" d="M30.2696 10.6137c-0.2443,-1.128 -1.0082,-1.84 -1.9986,-1.8627"/>
  <line id="_120900008" class="fil0 str0" x1="28.271" y1="8.751" x2="27.8032" y2= "8.7491" />
  <line id="_120854088" class="fil0 str0" x1="27.89" y1="8.6557" x2="27.89" y2= "6.6506" />
  <path id="_120911544" class="fil0 str0" d="M27.8164 6.6836l-0.0132 0.0538 -15.7731 0.0066m15.7863 -0.0604z"/>
  <line id="_120909472" class="fil0 str0" x1="12.1169" y1="6.8307" x2="12.1169" y2= "8.8359" />
  <path id="_120860136" class="fil0 str0" d="M12.0301 8.7491c-0.0292,0 -0.0575,0 -0.0849,0 -0.8356,0 -1.3279,0.233 -1.7806,0.8432 -0.3132,0.4207 -0.4188,0.7498 -0.4603,1.4364"/>
  <path id="_164806232" class="fil0 str0" d="M9.7175 10.8476c0,-0.7875 0.0773,-1.1657 0.3867,-1.8787"/>
  <line id="_166358520" class="fil0 str0" x1="10.1042" y1="8.9689" x2="10.2627" y2= "8.5567" />
  <path id="_167884000" class="fil0 str0" d="M10.2627 8.5567c0.0669,-0.2216 0.0811,-0.3339 0.1094,-0.8573"/>
  <line id="_169215176" class="fil0 str0" x1="10.2787" y1="7.7937" x2="8.2735" y2= "7.7937" />
  <line id="_165002920" class="fil0 str0" x1="8.3603" y1="7.8805" x2="8.3603" y2= "52.1327" />
  <line id="_169163376" class="fil0 str0" x1="8.4537" y1="52.046" x2="10.4588" y2= "52.046" />
  <path id="_168984280" class="fil0 str0" d="M10.3655 51.9526c-0.0406,-0.5602 -0.0528,-0.6055 -0.3556,-1.311 -0.0217,-0.049 -0.0406,-0.0952 -0.0566,-0.1396 -0.1632,-0.43 -0.1679,-0.4602 -0.2424,-1.3902"/>
  <path id="_167852864" class="fil0 str0" d="M9.7373 49.292c0.1085,1.0582 0.9385,1.9259 1.876,1.9636"/>
  <line id="_167884560" class="fil0 str0" x1="11.6133" y1="51.2556" x2="12.2103" y2= "51.2575" />
  <line id="_164347792" class="fil0 str0" x1="12.1169" y1="51.3443" x2="12.1169" y2= "53.3494" />
  <line id="_164848848" class="fil0 str0" x1="12.2103" y1="53.2626" x2="27.9834" y2= "53.2626" />
  <line id="_165023864" class="fil0 str0" x1="27.89" y1="53.1693" x2="27.89" y2= "51.1641" />
  <path id="_165023640" class="fil0 str0" d="M27.9834 51.2575c0.0434,0 0.0839,0 0.1207,0 0.8092,0 1.2874,-0.2348 1.7486,-0.8592 0.2396,-0.3254 0.3188,-0.5263 0.4499,-1.1393"/>
  <path id="_120882480" class="fil0 str0" d="M30.2026 49.4061l0.067 0.033 -0.0208 0.2235m-0.0462 -0.2565z"/>
  <path id="_113197192" class="fil0 str0" d="M30.2488 49.6626c-0.0405,0.4395 -0.0405,0.4395 -0.3055,1.1007"/>
  <line id="_119917184" class="fil0 str0" x1="29.9433" y1="50.7633" x2="29.8103" y2= "51.0962" />
  <path id="_166476272" class="fil0 str0" d="M29.8103 51.0962c-0.1396,0.348 -0.1588,0.3837 -0.1787,0.9779 0.0585,-0.0038 0,0.008 0.09,0.0058"/>
  <line id="_119932976" class="fil0 str0" x1="29.7216" y1="52.0799" x2="31.7266" y2= "52.0865" />
  <line id="_165006840" class="fil0 str0" x1="31.6333" y1="51.9922" x2="31.6333" y2= "7.7399" />
  <line id="_119932472" class="fil0 str0" x1="31.5466" y1="7.8333" x2="29.5415" y2= "7.8333" />
  <line id="_119883584" class="fil0 str0" x1="29.6348" y1="7.9201" x2="29.6678" y2= "8.2276" />
  <line id="_120859296" class="fil0 str0" x1="8.6892" y1="44.0805" x2="8.7833" y2= "44.0938" />
  <path id="_164541096" class="fil0 str0" d="M8.8285 25.6204l0.0139 -0.0875 -0.0139 0 -0.0049 -0.7919m0.0049 0.8794z"/>
  <path id="_113198200" class="fil0 str0" d="M8.8236 24.741c-0.004,-0.4691 0.0514,-0.5663 0.3185,-0.5663"/>
  <line id="_82954888" class="fil0 str0" x1="9.1421" y1="24.1747" x2="9.1451" y2= "24.1747" />
  <path id="_165111472" class="fil0 str0" d="M9.1451 24.1747c0.1049,0 0.1385,0.0045 0.1731,0.022 0.0436,0.0236 0.0713,0.07 0.0891,0.1549 0.0326,0.1487 0.0386,0.3403 0.0386,1.2364"/>
  <line id="_164980072" class="fil0 str0" x1="9.4459" y1="25.588" x2="9.4459" y2= "25.5985" />
  <path id="_113197584" class="fil0 str0" d="M9.4459 25.5985c0,0.8628 -0.009,1.1377 -0.0386,1.2768 -0.0297,0.1392 -0.0881,0.1768 -0.2701,0.1768 -0.1623,0 -0.2266,-0.0298 -0.2661,-0.1252 -0.0396,-0.0954 -0.0525,-0.2511 -0.0525,-0.6449 0,-0.3028 0.007,-0.6414 0.0169,-0.8541"/>
  <path id="_82956960" class="fil0 str0" d="M8.8285 19.2393l0.007 -0.098 -0.007 0 -0.0128 -2.1774m0.0128 2.2754z"/>
  <path id="_164793408" class="fil0 str0" d="M8.8157 16.9639c-0.003,-0.4679 0.0089,-0.6559 0.0494,-0.7706 0.0406,-0.1148 0.1069,-0.1514 0.2731,-0.1514 0.1029,0 0.1949,0.0376 0.2335,0.0969"/>
  <line id="_164983040" class="fil0 str0" x1="9.3717" y1="16.1388" x2="9.3806" y2= "16.1517" />
  <path id="_113197416" class="fil0 str0" d="M9.3806 16.1517c0.0653,0.1019 0.0653,0.1019 0.0672,2.7077"/>
  <line id="_165034896" class="fil0 str0" x1="9.4478" y1="18.8594" x2="9.4478" y2= "19.2007" />
  <path id="_164805616" class="fil0 str0" d="M9.4478 19.2007c0.001,2.2655 -0.0029,2.7255 -0.0247,2.954 -0.0227,0.2285 -0.0673,0.2711 -0.2849,0.2711 -0.3087,0 -0.3235,-0.0525 -0.3235,-1.1397 0,-0.8171 0.0039,-1.2109 0.0208,-2.2635"/>
  <path id="_164321192" class="fil0 str0" d="M12.4528 7.9733c0,0.1225 0.1416,0.2446 0.2841,0.2446 0.1608,0 0.2918,-0.1319 0.2918,-0.2936 0,-0.1621 -0.1301,-0.2921 -0.2927,-0.2926 -0.1639,0 -0.2988,0.1376 -0.2912,0.2971 0.0008,0.0205 0.0097,0.0842 0.0142,0.1011"/>
  <rect class="fil0 str1" x="30.4479" y="13.8138" width="0.618786" height="5.8687" rx="0.3842" ry="0.3842"/>
  <path id="_164350984" class="fil0 str0" d="M11.5576 10.8825c0.0852,-0.3084 0.3127,-0.4982 0.5985,-0.4982 0.3839,0 0.6266,0.2383 0.6266,0.6168 0,0.343 -0.2761,0.619 -0.6212,0.619 -0.3408,0 -0.6093,-0.2707 -0.6093,-0.6125 0,-0.0518 0.0011,-0.0744 0.0205,-0.248"/>
  <path id="_164326232" class="fil0 str0" d="M14.195 10.8599l0 -0.1003 0.0313 0 -0.0227 0m-0.0086 0.1003z"/>
  <path id="_164312736" class="fil0 str0" d="M14.2036 10.7596c0.1736,-0.6546 0.5791,-0.9803 1.2186,-0.9792 0.6945,0 1.2467,0.5521 1.2467,1.2455 0,0.6837 -0.563,1.2467 -1.2467,1.2467 -0.7171,0 -1.2736,-0.5889 -1.2434,-1.3135 0.0022,-0.0335 0.0194,-0.2664 0.0248,-0.3214"/>
  <ellipse id="_164790160" class="fil0 str2" cx="23.6911" cy="52.2374" rx="0.242299" ry="0.289899"/>
  <ellipse id="_113197248" class="fil0 str2" cx="16.6259" cy="52.2344" rx="0.159399" ry="0.340999"/>
  <ellipse id="_165011936" class="fil0 str2" cx="16.3063" cy="52.2344" rx="0.159399" ry="0.340999"/>
  <ellipse id="_164329704" class="fil0 str2" cx="15.9867" cy="52.2344" rx="0.159399" ry="0.340999"/>
  <ellipse id="_120869992" class="fil0 str2" cx="15.6672" cy="52.2344" rx="0.159399" ry="0.340999"/>
  <ellipse id="_119933592" class="fil0 str2" cx="15.3476" cy="52.2344" rx="0.159399" ry="0.340999"/>
  <ellipse id="_164345608" class="fil0 str2" cx="15.028" cy="52.2344" rx="0.159399" ry="0.340999"/>
  <path class="fil0 str2" d="M19.17 51.7153l1.6347 0c0.1826,-0.0001 0.3307,0.148 0.3307,0.3306l0 0.4606c0,0.1825 -0.1481,0.3306 -0.3307,0.3306l-1.6347 0.0001c-0.1825,-0.0001 -0.3306,-0.1482 -0.3306,-0.3308l-0.0001 -0.4604c0.0001,-0.1827 0.1482,-0.3308 0.3308,-0.3308z"/>
  <ellipse class="fil0 str1" cx="18.7579" cy="7.8424" rx="0.8858" ry="0.843"/>
  <line id="_119936728" class="fil0 str0" x1="20.2179" y1="22.2861" x2="20.2252" y2= "22.1825" />
  <path id="_164328808" class="fil0 str0" d="M20.2252 22.1825c-0.0649,0.0031 -0.1036,0.0418 -0.1036,0.1036"/>
  <line id="_164357088" class="fil0 str0" x1="20.1216" y1="22.2861" x2="19.6476" y2= "22.2871" />
  <path id="_164338272" class="fil0 str0" d="M19.6476 22.2871c-0.747,0.0011 -1.0807,-0.1873 -1.1843,-0.6696 -0.0293,-0.1318 -0.0523,-0.7491 -0.0523,-1.3632 0,-0.5587 0.0188,-0.8192 0.0722,-1.0033 0.0523,-0.1831 0.1402,-0.2919 0.3389,-0.4175 0.203,-0.1297 0.2041,-0.1297 1.5359,-0.1297 0.5095,0 0.6957,0.0042 0.8359,0.0209 0.1391,0.0178 0.2155,0.044 0.3411,0.1203 0.3369,0.2062 0.4143,0.3976 0.4143,1.0201 0,0.5954 -0.0167,1.7242 -0.0262,1.7828 -0.0701,0.4174 -0.4321,0.6403 -1.0357,0.6392"/>
  <line id="_120898328" class="fil0 str0" x1="20.8874" y1="22.2871" x2="20.0023" y2= "22.2861" />
 </g>
</svg>
