<?xml version="1.0" encoding="UTF-8"?>
<!DOCTYPE svg PUBLIC "-//W3C//DTD SVG 1.1//EN" "http://www.w3.org/Graphics/SVG/1.1/DTD/svg11.dtd">
<!-- Creator: CorelDRAW X8 -->
<svg xmlns="http://www.w3.org/2000/svg" xml:space="preserve" width="40mm" height="60mm" version="1.1" style="shape-rendering:geometricPrecision; text-rendering:geometricPrecision; image-rendering:optimizeQuality; fill-rule:evenodd; clip-rule:evenodd"
viewBox="0 0 4000 6000"
 xmlns:xlink="http://www.w3.org/1999/xlink">
 <defs>
  <style type="text/css">
   <![CDATA[
    .str0 {stroke:black;stroke-width:10}
    .fil0 {fill:none}
   ]]>
  </style>
 </defs>
 <g id="图层_x0020_1">
  <metadata id="CorelCorpID_0Corel-Layer"/>
  <path class="fil0 str0" d="M1027 5295l1804 0c108,0 197,-89 197,-197l0 -4250c0,-109 -89,-198 -197,-198l-713 0c-12,0 -35,8 -35,33l0 16c0,41 -33,74 -74,74l0 0c-41,0 -74,-33 -74,-74l0 -14c0,-25 -18,-35 -37,-35l-729 0c-108,0 -197,89 -197,198l0 4250c0,108 89,197 197,197l55 0c47,0 99,19 119,55"/>
 </g>
</svg>
