<?xml version="1.0" encoding="UTF-8"?>
<!DOCTYPE svg PUBLIC "-//W3C//DTD SVG 1.1//EN" "http://www.w3.org/Graphics/SVG/1.1/DTD/svg11.dtd">
<!-- Creator: CorelDRAW X8 -->
<svg xmlns="http://www.w3.org/2000/svg" xml:space="preserve" width="20.514mm" height="47.0514mm" version="1.1" style="shape-rendering:geometricPrecision; text-rendering:geometricPrecision; image-rendering:optimizeQuality; fill-rule:evenodd; clip-rule:evenodd"
viewBox="0 0 2056 4717"
 xmlns:xlink="http://www.w3.org/1999/xlink">
 <defs>
  <style type="text/css">
   <![CDATA[
    .str0 {stroke:#332C2B;stroke-width:10.0244}
    .fil0 {fill:none}
   ]]>
  </style>
 </defs>
 <g id="图层_x0020_1">
  <metadata id="CorelCorpID_0Corel-Layer"/>
  <path class="fil0 str0" d="M502 4716c2,-62 -67,-125 -209,-125 0,0 -3,0 -3,0 -144,0 -261,-118 -261,-261l0 -4064c0,-144 117,-261 261,-261l426 0 44 46 202 0c0,0 20,-2 20,23l0 10c0,32 27,59 59,59l0 0c32,0 58,-27 58,-59l0 -10c2,-24 18,-23 18,-23l201 0 56 -46 416 0c144,0 261,117 261,261l0 4064c0,143 -117,261 -261,261l-1790 0"/>
 </g>
</svg>
