<?xml version="1.0" encoding="UTF-8"?>
<!DOCTYPE svg PUBLIC "-//W3C//DTD SVG 1.1//EN" "http://www.w3.org/Graphics/SVG/1.1/DTD/svg11.dtd">
<!-- Creator: CorelDRAW 2020 (64-Bit) -->
<svg xmlns="http://www.w3.org/2000/svg" xml:space="preserve" width="40mm" height="60mm" version="1.1" style="shape-rendering:geometricPrecision; text-rendering:geometricPrecision; image-rendering:optimizeQuality; fill-rule:evenodd; clip-rule:evenodd"
viewBox="0 0 4000 6000"
 xmlns:xlink="http://www.w3.org/1999/xlink"
 xmlns:xodm="http://www.corel.com/coreldraw/odm/2003">
 <defs>
  <style type="text/css">
   <![CDATA[
    .str1 {stroke:#332C2B;stroke-width:20;stroke-miterlimit:22.9256}
    .str2 {stroke:#E72D28;stroke-width:20;stroke-miterlimit:22.9256}
    .str0 {stroke:#222222;stroke-width:20;stroke-miterlimit:22.9256}
    .fil0 {fill:none}
   ]]>
  </style>
   <clipPath id="id0">
    <rect x="-30210.41" y="-3659.56" width="1590.27" height="14562.32"/>
   </clipPath>
   <clipPath id="id1">
    <rect x="-33649.82" y="-3583.62" width="1519.88" height="14461.24"/>
   </clipPath>
   <clipPath id="id2">
    <rect x="-19787.85" y="12022.03" width="7593.04" height="1137.76"/>
   </clipPath>
   <clipPath id="id3">
    <rect x="-19763.49" y="-6457.34" width="7493.78" height="1357.14"/>
   </clipPath>
 </defs>
 <g id="图层_x0020_1">
  <metadata id="CorelCorpID_0Corel-Layer"/>
  <g style="clip-path:url(#id0)">
   <image transform="matrix(1.70555E-14 -0.643978 0.643978 1.70555E-14 -30210.4 10902.8)" x="0" y="0" width="22613.06" height="2469.44" xlink:href="S5-11i（背膜半包）_Images\S5-11i（背膜半包）_ImgID1.png"/>
  </g>
  <g style="clip-path:url(#id1)">
   <image transform="matrix(1.678E-14 0.633578 -0.633578 1.678E-14 -32129.9 -3583.62)" x="0" y="0" width="22824.72" height="2398.88" xlink:href="S5-11i（背膜半包）_Images\S5-11i（背膜半包）_ImgID2.png"/>
  </g>
  <g style="clip-path:url(#id2)">
   <image transform="matrix(-0.339489 -0 -0 -0.339489 -12194.8 13159.8)" x="0" y="0" width="22366.1" height="3351.38" xlink:href="S5-11i（背膜半包）_Images\S5-11i（背膜半包）_ImgID3.png"/>
  </g>
  <g style="clip-path:url(#id3)">
   <image x="-19763.49" y="-6457.34" width="7493.78" height="1357.14" xlink:href="S5-11i（背膜半包）_Images\S5-11i（背膜半包）_ImgID4.png"/>
  </g>
  <path class="fil0 str0" d="M-9943.02 7777.49l0 -653.85c495.01,0 899.73,-405.05 899.73,-900.05l0 -5196.3c0,-495 -404.73,-899.96 -899.73,-899.96l0 -558.6c0,-27.48 -22.49,-49.99 -50,-49.99l-8881.21 0 0 233.78c0,55 -45,100 -100,100l-2260.63 0c-55,0 -100,-45 -100,-100l0 -233.78 -732.24 0c-27.51,0 -50,22.51 -50,49.99l0 558.63c-495,0 -899.8,404.93 -899.8,899.93l0 5196.3c0,495 404.8,899.93 899.8,899.93l0 558.71c0,27.5 22.49,50 50,50l2236.36 0 0 -283.55c0,-54.99 45,-100 100,-100l1302.86 0c55,0 100,45 100,100l0 283.55 8334.86 0c27.51,0 50,-22.51 50,-50 0,-27.49 8.11,-103.68 30.93,-147.84"/>
  <path class="fil0 str1" d="M-22152.99 4047.39c0,165 135,300 300,300l799.61 0c165,0 300,-135 300,-300l0 -823.46c0,-165 -135,-300 -300,-300l-799.61 0c-165,0 -300,135 -300,300l0 823.46c0,0 7.45,-280.27 122.55,-395.36"/>
  <path class="fil0 str1" d="M-20533.01 4006.18c0,165 135,300 300,300l151.85 0c165,0 300,-135 300,-300l0 -733.5c0,-165 -135,-300 -300,-300l-151.85 0c-165,0 -300,135 -300,300l0 733.5c0,0 8.07,-352.96 85.46,-429.7"/>
  <path class="fil0 str1" d="M-11424.78 6369.67c0,66 54,120 120,120l205.83 0c66,0 120,-54 120,-120l0 -588.15c0,-66 -54,-120 -120,-120l-205.83 0c-66,0 -120,54 -120,120l0 588.15c0,0 -0.93,-191.87 82.42,-283.16"/>
  <rect class="fil0 str2" x="22347.39" y="-38412.75" width="6996.3" height="13973.61" rx="900" ry="695.83"/>
  <rect class="fil0 str1" x="25123.59" y="-37548.84" width="1423.46" height="1399.61" rx="291.5" ry="300"/>
  <rect class="fil0 str1" x="25164.8" y="-35928.87" width="1333.5" height="751.85" rx="294.55" ry="300"/>
  <rect class="fil0 str1" x="22981.31" y="-26820.64" width="828.15" height="445.83" rx="120" ry="120"/>
  <g id="_2651959793952">
   <path class="fil0 str0" d="M604.49 5053.05l219.92 0c0,166.49 136.24,302.62 302.73,302.62l1747.77 0c166.5,0 302.7,-136.13 302.7,-302.62l187.89 0c9.24,0 16.81,-7.57 16.81,-16.82l0 -2987.18 -78.63 0c-18.5,0 -33.63,-15.13 -33.63,-33.63l0 -760.36c0,-18.5 15.13,-33.64 33.63,-33.64l78.63 0 0 -246.28c0,-9.26 -7.57,-16.82 -16.81,-16.82l-187.9 0c0,-166.49 -136.19,-302.65 -302.69,-302.65l-1747.77 0c-166.49,0 -302.69,136.16 -302.69,302.65l-187.92 0c-9.25,0 -16.82,7.56 -16.82,16.82l0 752.19 95.38 0c18.49,0 33.63,15.14 33.63,33.64l0 438.21c0,18.5 -15.13,33.64 -33.63,33.64l-95.38 0 0 2803.41c0,9.25 7.58,16.82 16.82,16.82 9.25,0 34.87,2.73 49.73,10.4"/>
   <path class="fil0 str1" d="M1859.11 946.25c-55.5,0 -100.91,45.4 -100.91,100.9l0 268.95c0,55.5 45.41,100.9 100.91,100.9l276.97 0c55.49,0 100.9,-45.4 100.9,-100.9l0 -268.95c0,-55.5 -45.41,-100.9 -100.9,-100.9l-276.97 0c0,0 94.26,2.5 132.97,41.22"/>
   <path class="fil0 str1" d="M1872.97 1491.12c-55.5,0 -100.91,45.41 -100.91,100.91l0 51.07c0,55.5 45.41,100.91 100.91,100.91l246.71 0c55.5,0 100.9,-45.41 100.9,-100.91l0 -51.07c0,-55.5 -45.4,-100.91 -100.9,-100.91l-246.71 0c0,0 118.71,2.72 144.53,28.75"/>
   <path class="fil0 str1" d="M1078.01 4554.66c-22.2,0 -40.36,18.16 -40.36,40.36l0 69.23c0,22.2 18.16,40.37 40.36,40.37l197.82 0c22.2,0 40.37,-18.17 40.37,-40.37l0 -69.23c0,-22.2 -18.17,-40.36 -40.37,-40.36l-197.82 0c0,0 64.54,-0.31 95.24,27.72"/>
  </g>
 </g>
</svg>
