<?xml version="1.0" encoding="UTF-8"?>
<!DOCTYPE svg PUBLIC "-//W3C//DTD SVG 1.1//EN" "http://www.w3.org/Graphics/SVG/1.1/DTD/svg11.dtd">
<!-- Creator: CorelDRAW X8 -->
<svg xmlns="http://www.w3.org/2000/svg" xml:space="preserve" width="40mm" height="60mm" version="1.1" style="shape-rendering:geometricPrecision; text-rendering:geometricPrecision; image-rendering:optimizeQuality; fill-rule:evenodd; clip-rule:evenodd"
viewBox="0 0 4000 6000"
 xmlns:xlink="http://www.w3.org/1999/xlink">
 <defs>
  <style type="text/css">
   <![CDATA[
    .str0 {stroke:black;stroke-width:7.62;stroke-linejoin:bevel}
    .fil0 {fill:none}
   ]]>
  </style>
 </defs>
 <g id="图层_x0020_1">
  <metadata id="CorelCorpID_0Corel-Layer"/>
  <path class="fil0 str0" d="M1033 700l0 1162c0,33 13,64 37,88 23,23 55,36 88,36l576 0c33,0 64,-13 88,-36 23,-24 36,-55 36,-88l0 -1087c0,-33 -13,-65 -36,-89 -24,-23 -55,-36 -88,-36l-576 0c-33,0 -65,13 -88,37 -24,23 -37,55 -37,88l0 31c0,43 -1,63 -16,78m1141 -207l0 1185c0,33 13,64 36,88 24,23 55,36 88,36l576 0c33,0 65,-13 88,-36 24,-24 37,-55 37,-88l0 -1087c0,-33 -13,-65 -37,-89 -23,-23 -55,-36 -88,-36l-576 0c-33,0 -65,13 -88,37 -23,23 -36,55 -36,88l0 47c0,85 -15,132 -30,139m-1095 1421l0 1161c0,33 13,65 37,89 23,23 55,36 88,36l576 0c33,0 64,-13 88,-36 23,-24 36,-56 36,-89l0 -1086c0,-33 -13,-65 -36,-89 -24,-23 -55,-36 -88,-36l-576 0c-33,0 -65,13 -88,36 -24,24 -37,56 -37,89l0 31c0,43 -1,63 -16,78m1141 -207l0 1184c0,33 13,65 36,89 24,23 55,36 88,36l576 0c33,0 65,-13 88,-36 24,-24 37,-56 37,-89l0 -1086c0,-33 -13,-65 -37,-89 -23,-23 -55,-36 -88,-36l-576 0c-33,0 -65,13 -88,36 -23,24 -36,56 -36,89l0 47c0,85 -15,132 -30,139m-1095 1421l0 1161c0,33 13,65 37,89 23,23 55,36 88,36l576 0c33,0 64,-13 88,-37 23,-23 36,-55 36,-88l0 -1086c0,-34 -13,-65 -36,-89 -24,-23 -55,-36 -88,-36l-576 0c-33,0 -65,13 -88,36 -24,24 -37,55 -37,89l0 31c0,43 -1,63 -16,78m1141 -207l0 1184c0,33 13,65 36,89 24,23 55,36 88,36l576 0c33,0 65,-13 88,-37 24,-23 37,-55 37,-88l0 -1086c0,-34 -13,-65 -37,-89 -23,-23 -55,-36 -88,-36l-576 0c-33,0 -65,13 -88,36 -23,24 -36,55 -36,89l0 47c0,85 -15,132 -30,139"/>
 </g>
</svg>
