<?xml version="1.0" encoding="UTF-8"?>
<!DOCTYPE svg PUBLIC "-//W3C//DTD SVG 1.1//EN" "http://www.w3.org/Graphics/SVG/1.1/DTD/svg11.dtd">
<!-- Creator: CorelDRAW X8 -->
<svg xmlns="http://www.w3.org/2000/svg" xml:space="preserve" width="40mm" height="60mm" version="1.1" style="shape-rendering:geometricPrecision; text-rendering:geometricPrecision; image-rendering:optimizeQuality; fill-rule:evenodd; clip-rule:evenodd"
viewBox="0 0 4000 6000"
 xmlns:xlink="http://www.w3.org/1999/xlink">
 <defs>
  <style type="text/css">
   <![CDATA[
    .fil0 {fill:#332C2B;fill-rule:nonzero}
    .fil1 {fill:#332C2B;fill-rule:nonzero}
   ]]>
  </style>
 </defs>
 <g id="图层_x0020_1">
  <metadata id="CorelCorpID_0Corel-Layer"/>
  <g id="_2302573454032">
   <polygon class="fil0" points="1821,943 1821,951 1822,951 1822,958 1814,958 1814,943 "/>
   <path class="fil0" d="M1820 952c3,-2 4,-3 5,-5 1,-2 2,-4 2,-7l7 0c0,4 -1,7 -3,10 -2,3 -4,6 -7,7l-4 -5z"/>
   <polygon class="fil0" points="1830,937 1831,937 1831,944 1830,944 "/>
   <path class="fil0" d="M1829 937c7,-4 11,-8 15,-13 3,-4 4,-9 4,-14l0 0c0,-8 -3,-16 -9,-21 -5,-5 -13,-9 -21,-9l0 0c-8,0 -16,4 -21,9 -5,5 -9,13 -9,21 0,9 3,16 8,21 5,5 13,8 22,8 3,0 6,-1 9,-1l2 -1zm20 -9c-1,2 -4,5 -6,7l1 6c-7,2 -12,3 -16,4 -4,0 -7,0 -10,0 -11,0 -20,-3 -27,-9 -6,-6 -10,-15 -10,-26 0,-10 4,-19 11,-26 7,-7 16,-11 26,-11l0 0c10,0 20,5 26,11 7,7 11,16 11,26l0 0c0,6 -2,12 -6,18z"/>
   <polygon class="fil0" points="2717,5020 2717,4833 2724,4833 2724,5020 "/>
   <path class="fil0" d="M2717 4833c0,-110 0,-110 -5,-122l6 -3c6,14 6,14 6,125l-7 0z"/>
   <polygon class="fil0" points="2712,4711 2710,4707 2717,4705 2718,4708 "/>
   <path class="fil0" d="M2710 4707c-8,-18 -18,-30 -32,-38 -15,-8 -34,-11 -61,-12l0 -7c28,1 48,5 64,13 16,9 27,22 36,42l-7 2z"/>
   <polygon class="fil0" points="2617,4657 1598,4647 1598,4640 2617,4650 "/>
   <path class="fil0" d="M1598 4647c-116,-1 -181,-1 -222,4 -39,4 -54,12 -71,28 -13,12 -20,19 -23,32 -4,12 -4,30 -4,62l-7 0c0,-33 0,-51 4,-64 4,-14 12,-22 26,-35 17,-17 33,-26 75,-30 40,-5 106,-5 222,-4l0 7z"/>
   <polygon class="fil0" points="1278,4773 1278,5110 1272,5110 1271,4773 "/>
   <path class="fil0" d="M1278 5110c1,83 0,136 -1,171 -2,36 -5,53 -10,65l-1 4 -4 -2c-2,-2 -4,-3 -5,-4 0,-1 -1,-1 -1,-2 -12,1 -24,2 -38,2 -14,1 -30,1 -45,1 -69,0 -115,-2 -158,-9 -43,-8 -83,-20 -139,-42l2 -6c56,21 96,34 138,41 43,7 89,9 157,9 16,0 31,0 45,0 14,-1 27,-2 39,-3l3 0 1 3c0,0 1,0 1,1l0 0c4,-11 6,-27 8,-58 1,-35 2,-88 2,-171l6 0z"/>
   <path class="fil0" d="M875 5289l0 -1 -6 -6 7 -7 -2 -9 8 0 2 -5 1 0 0 -3 7 0 -6 15 -4 0 2 9 -1 0 0 15 -3 -4 -1 0 -4 -4zm4 -6l1 -1 -2 0 0 0 1 1z"/>
   <path class="fil0" d="M885 5258c1,1 3,1 4,1 1,1 2,1 3,2l-4 5c0,0 -1,0 -1,0 -1,-1 -2,-1 -2,-1l0 -7z"/>
   <polygon class="fil0" points="888,5267 887,5265 890,5264 889,5263 896,5256 902,5256 902,5257 903,5257 903,5261 901,5261 899,5263 899,5264 898,5264 898,5264 897,5264 890,5271 "/>
   <path class="fil0" d="M898 5259c26,-15 44,-25 67,-34 23,-8 50,-16 93,-26l2 7c-43,10 -70,17 -93,26 -22,8 -40,18 -65,33l-4 -6z"/>
   <polygon class="fil0" points="1056,5205 1052,5199 1048,5197 1043,5198 1039,5202 1039,5208 1032,5207 1033,5198 1040,5191 1049,5190 1057,5194 1062,5201 "/>
   <path class="fil0" d="M1035 5211c-28,2 -48,4 -69,9 -21,5 -43,13 -76,25 -12,4 -19,7 -26,9 -8,1 -15,2 -26,3l0 -7c10,-1 17,-1 24,-3 7,-2 14,-4 25,-8 34,-13 56,-20 77,-25 22,-5 42,-8 71,-10l0 7z"/>
   <polygon class="fil0" points="835,5254 835,5250 828,5248 831,5241 827,5236 831,5232 834,5235 835,5234 841,5242 838,5245 845,5248 842,5251 842,5254 "/>
   <path class="fil0" d="M831 5236c-10,-16 -15,-26 -18,-40 -3,-13 -4,-30 -4,-59l7 0c0,29 0,45 3,58 3,13 8,22 18,38l-6 3z"/>
   <polygon class="fil0" points="809,5137 808,853 815,853 816,5137 "/>
   <path class="fil0" d="M808 853c0,-46 0,-46 23,-91l6 3c-22,43 -22,43 -22,88l-7 0z"/>
   <polygon class="fil0" points="831,762 842,740 844,741 844,738 847,738 850,735 854,735 857,738 862,736 865,739 865,746 859,746 859,745 851,748 851,743 844,753 844,752 837,765 "/>
   <path class="fil0" d="M863 743c40,17 66,27 93,34 28,6 57,10 103,13l0 7c-47,-3 -77,-7 -105,-14 -28,-6 -54,-17 -93,-34l2 -6z"/>
   <polygon class="fil0" points="1056,794 1054,787 1050,784 1055,779 1060,784 1062,793 "/>
   <polygon class="fil0" points="1052,785 1049,785 1047,784 1047,778 1050,778 1053,778 "/>
   <polygon class="fil0" points="1048,784 1042,785 1038,791 1032,787 1038,779 1047,778 "/>
   <path class="fil0" d="M1035 793c-26,-4 -47,-10 -71,-20 -24,-10 -51,-24 -88,-45l4 -6c36,21 63,35 86,45 24,10 44,15 70,19l-1 7z"/>
   <polygon class="fil0" points="875,722 876,722 872,718 877,714 880,717 884,713 884,730 881,727 880,727 "/>
   <path class="fil0" d="M871 714c1,-1 1,-1 2,-2 0,0 1,-1 1,-1l4 5 -1 2 -6 -4z"/>
   <polygon class="fil0" points="877,717 876,717 876,713 876,713 875,711 875,711 875,711 871,701 879,701 881,695 887,696 885,708 881,708 884,716 879,716 878,717 "/>
   <path class="fil0" d="M884 692c2,0 3,1 4,1 1,0 2,1 3,1l-3 6c-1,0 -1,0 -2,-1 -1,0 -1,0 -2,0l0 -7z"/>
   <polygon class="fil0" points="887,701 886,699 889,698 888,697 895,690 901,690 901,690 902,690 902,695 900,695 898,696 898,697 897,697 897,698 896,698 889,705 "/>
   <path class="fil0" d="M897 693c22,-13 49,-23 85,-29 36,-6 81,-8 138,-8l0 7c-56,0 -101,2 -137,8 -35,6 -61,15 -82,28l-4 -6z"/>
   <polygon class="fil0" points="1120,656 1178,656 1178,659 1185,661 1185,664 1188,664 1188,669 1171,665 1171,663 1120,663 "/>
   <path class="fil0" d="M1188 665c-1,2 -1,3 -2,5 -1,1 -2,2 -4,4l-5 -5c2,-1 2,-2 3,-3 0,-1 1,-2 1,-3l7 2z"/>
   <polygon class="fil0" points="1183,670 1189,679 1187,680 1190,680 1190,691 1177,674 "/>
   <path class="fil0" d="M1188 679c11,21 24,36 40,46 16,10 35,15 57,15 25,0 43,-4 59,-16 16,-13 31,-34 48,-66l6 3c-18,33 -33,55 -50,68 -18,13 -37,18 -63,18 -23,0 -43,-5 -60,-16 -17,-11 -32,-27 -43,-49l6 -3z"/>
   <polygon class="fil0" points="1395,663 1395,663 1395,656 1395,656 "/>
   <path class="fil0" d="M1394 656c1,0 2,0 3,0 0,1 1,1 2,1l-3 6 -1 0 0 -2 -1 -5zm1 7l0 -2 0 2zm0 0l0 0 0 -2 0 2z"/>
   <polygon class="fil0" points="1395,658 1401,650 1406,654 1400,662 "/>
   <path class="fil0" d="M1406 650c1,1 2,3 3,4 1,2 2,3 2,5l-6 1c-1,0 -1,-1 -2,-2 0,-1 -1,-2 -2,-3l5 -5z"/>
   <polygon class="fil0" points="1407,656 1422,652 1422,656 2882,658 2882,665 1415,663 1415,661 1409,663 "/>
   <path class="fil0" d="M2882 658c66,0 108,2 143,9 34,6 61,18 95,37l-4 6c-33,-19 -59,-30 -93,-37 -34,-6 -76,-8 -141,-8l0 -7z"/>
   <polygon class="fil0" points="3122,707 3122,709 3121,710 3124,713 3119,718 3111,710 3115,706 3117,706 3117,707 "/>
   <path class="fil0" d="M3124 718c-1,1 -2,2 -3,3 -2,1 -3,1 -4,2l-3 -7c1,0 2,0 3,-1 1,0 2,-1 2,-1l5 4z"/>
   <polygon class="fil0" points="3119,719 3121,732 3114,732 3110,741 3104,738 3098,743 3093,740 3093,737 3094,737 3098,734 3098,734 3107,725 3107,728 3109,725 3113,725 3112,720 "/>
   <path class="fil0" d="M3097 739c-27,16 -45,27 -68,35 -22,8 -49,15 -92,25l-2 -7c43,-9 70,-16 92,-24 22,-9 40,-19 66,-35l4 6z"/>
   <path class="fil0" d="M2939 794l3 5 9 1 1 0 4 -3 1 -6 6 1 -1 8 -7 7c-6,0 -12,-1 -18,-2l-4 -8 6 -3z"/>
   <path class="fil0" d="M2960 788c29,-2 47,-4 69,-9 21,-5 45,-13 85,-28 8,-3 14,-5 20,-6 6,-2 13,-3 23,-4l0 7c-9,1 -16,2 -22,3 -6,2 -11,3 -19,6 -40,15 -64,24 -86,29 -21,5 -40,7 -70,9l0 -7z"/>
   <polygon class="fil0" points="3160,744 3160,748 3166,750 3166,755 3164,756 3164,757 3167,761 3167,766 3162,766 3162,765 3161,764 3161,764 3153,755 3157,754 3150,751 3154,747 3154,744 "/>
   <path class="fil0" d="M3165 762c7,16 12,31 16,48 3,17 5,36 5,59 0,10 0,20 -1,32 -1,12 -1,26 -3,40l-6 -1c1,-14 2,-27 2,-39 1,-11 1,-22 1,-32 0,-22 -1,-41 -5,-58 -3,-16 -8,-31 -16,-46l7 -3z"/>
   <polygon class="fil0" points="3178,944 3175,943 3167,955 3164,949 3164,950 3159,940 3165,937 3168,942 3171,937 3173,938 3173,935 3180,935 3179,937 3180,937 "/>
   <path class="fil0" d="M3169 951c-4,4 -8,10 -10,18 -2,8 -3,19 -3,32l-7 0c0,-14 1,-25 4,-34 2,-9 6,-16 11,-21l5 5z"/>
   <path class="fil0" d="M3156 1001c5,154 16,297 5,450l-7 -1 6 -91 -11 -358 7 0z"/>
   <polygon class="fil0" points="3161,1451 3160,1454 3154,1454 3154,1451 "/>
   <polygon class="fil0" points="3160,1454 3160,1455 3154,1455 3154,1454 "/>
   <path class="fil0" d="M3160 1455c0,1 0,1 16,27l-6 4c-17,-28 -17,-28 -16,-31l6 0z"/>
   <polygon class="fil0" points="3176,1482 3185,1497 3185,1500 3185,1500 3192,1514 3187,1514 3186,1514 3188,1526 3185,1526 3185,5170 3178,5170 3178,1519 3180,1519 3178,1508 3181,1508 3177,1499 3178,1498 3170,1486 "/>
   <path class="fil0" d="M3185 5171c-1,13 -3,23 -8,36 -4,13 -12,28 -24,51l-6 -3c12,-23 20,-38 24,-50 4,-12 6,-22 7,-35l7 1z"/>
   <polygon class="fil0" points="3148,5251 3155,5251 3144,5265 3138,5260 3135,5261 3133,5255 3144,5250 3144,5255 3145,5253 3147,5254 3147,5251 "/>
   <path class="fil0" d="M3131 5260c-1,-2 -1,-3 -1,-4 0,-1 0,-2 0,-3 0,-1 0,-2 0,-3l7 1c-1,0 -1,1 -1,2 0,1 1,1 1,2 0,1 0,1 0,2l-6 3z"/>
   <polygon class="fil0" points="3137,5250 3137,5258 3116,5250 3118,5244 3134,5250 3134,5250 "/>
   <path class="fil0" d="M3116 5250c-46,-17 -46,-17 -146,-36l1 -6c100,19 100,19 147,36l-2 6z"/>
   <polygon class="fil0" points="2970,5214 2931,5207 2938,5192 2948,5191 2949,5198 2943,5199 2941,5202 2971,5208 "/>
   <path class="fil0" d="M2948 5191c1,0 2,0 3,0l3 0 -1 7 -3 0c0,0 -1,0 -1,0l-1 -7z"/>
   <polygon class="fil0" points="2956,5192 2961,5197 2963,5208 2957,5209 2955,5201 2951,5197 "/>
   <path class="fil0" d="M2961 5206c31,7 52,13 74,22 22,9 46,21 84,42l-3 6c-38,-21 -62,-33 -84,-42 -21,-9 -42,-15 -73,-22l2 -6z"/>
   <polygon class="fil0" points="3121,5273 3121,5276 3120,5276 3124,5281 3124,5285 3121,5287 3123,5297 3116,5297 3114,5307 3106,5305 3105,5304 3099,5309 3093,5306 3093,5303 3095,5303 3098,5300 3099,5300 3108,5291 3108,5298 3109,5298 3109,5293 3112,5293 3112,5290 3115,5290 3114,5283 3116,5282 3110,5276 3114,5272 3116,5272 3116,5273 "/>
   <path class="fil0" d="M3098 5305c-24,15 -54,25 -98,31 -44,7 -101,9 -178,9 -33,0 -54,0 -70,-2 -16,-2 -26,-5 -38,-11l-4 -2 2 -3c2,-2 3,-3 4,-5 2,-1 3,-2 4,-2l3 6c-1,0 -1,1 -2,1l0 1c9,4 19,7 32,8 15,2 36,3 69,3 77,0 134,-3 177,-9 43,-7 73,-16 95,-30l4 5z"/>
   <polygon class="fil0" points="2719,5325 2717,5323 2717,4984 2724,4984 2724,5322 2722,5322 "/>
   <polygon class="fil0" points="2427,1445 2427,1432 2434,1432 2434,1445 "/>
   <path class="fil0" d="M2431 1429c5,0 8,1 11,4 3,3 4,6 5,11l-7 1c-1,-3 -1,-6 -3,-7 -1,-1 -3,-2 -6,-2l0 -7z"/>
   <polygon class="fil0" points="2443,1441 2529,1441 2529,1448 2443,1448 "/>
   <path class="fil0" d="M2529 1441c18,-1 29,-4 37,-13 8,-10 13,-25 17,-49l7 1c-5,25 -10,42 -19,52 -9,11 -22,15 -42,16l0 -7z"/>
   <polygon class="fil0" points="2589,1382 2574,1394 2570,1389 2581,1378 2581,1372 2582,1372 2582,1369 2588,1369 2588,1381 2588,1381 "/>
   <path class="fil0" d="M2579 1373c-5,-13 -10,-22 -19,-28 -8,-6 -20,-9 -37,-9l1 -7c18,0 30,3 40,10 10,7 16,17 21,32l-6 2z"/>
   <polygon class="fil0" points="2523,1336 2367,1338 2367,1331 2523,1329 "/>
   <path class="fil0" d="M2367 1338c-13,0 -22,0 -29,1 -8,0 -12,0 -16,0l0 0c-7,0 -11,1 -14,2 -3,1 -6,3 -9,6 -4,4 -7,9 -10,16 -3,8 -5,18 -8,34l-7 -1c3,-16 6,-27 9,-35 3,-9 7,-14 11,-19 4,-4 7,-6 11,-7 4,-2 9,-2 16,-3 4,0 9,0 16,0 8,0 17,-1 30,-1l0 7z"/>
   <polygon class="fil0" points="2276,1400 2275,1400 2275,1393 2284,1393 2282,1404 2282,1404 2282,1407 2275,1407 "/>
   <path class="fil0" d="M2285 1403c2,13 7,22 17,28 11,7 26,10 47,10 27,-1 32,-1 43,-1l31 0 0 7 -31 0c-10,0 -16,0 -43,0 -22,1 -38,-3 -50,-10 -12,-7 -19,-18 -21,-33l7 -1z"/>
   <polygon class="fil0" points="2423,1440 2431,1440 2431,1447 2423,1447 "/>
   <path class="fil0" d="M2431 1440c11,0 17,0 47,1l1 0 -1 7 0 0c-31,-1 -36,-1 -47,-1l0 -7z"/>
   <polygon class="fil0" points="1997,1830 2010,1830 2010,1832 2013,1832 2013,1837 1997,1837 "/>
   <path class="fil0" d="M2009 1828c17,-1 32,-10 43,-23 11,-13 18,-30 18,-49 0,-21 -8,-40 -22,-53 -13,-14 -32,-22 -53,-22 -21,0 -40,8 -53,22 -14,13 -22,32 -22,53l0 4c1,20 9,37 22,50 13,13 31,21 50,21l4 -1c3,0 6,0 11,-1l2 0 0 -1zm48 -18c-8,10 -19,18 -31,22l0 1c-8,2 -14,2 -18,3 -5,1 -8,1 -12,1l-4 0c-21,0 -40,-8 -54,-22 -15,-14 -24,-33 -25,-55l0 -4c0,-23 9,-43 24,-58 15,-15 35,-24 58,-24 23,0 43,9 58,24 15,14 24,35 24,58 0,20 -8,39 -20,54z"/>
   <path class="fil0" d="M2012 1598c22,-2 39,-6 54,-10 17,-6 31,-13 48,-25 29,-19 53,-46 69,-76 16,-30 25,-65 25,-100 0,-59 -24,-112 -62,-151 -39,-38 -92,-62 -151,-62 -59,0 -112,24 -151,62 -38,39 -62,92 -62,151 0,58 24,111 62,150 38,38 90,62 148,62 6,0 12,0 20,-1zm56 -4c-5,2 -10,3 -15,4l0 3c-17,2 -29,3 -38,4l-3 0c-4,1 -9,2 -15,2l0 -1 -5 0c-60,0 -114,-25 -153,-64 -39,-40 -64,-95 -64,-155 0,-61 25,-116 65,-155 39,-40 94,-65 155,-65 60,0 116,25 155,65 40,39 65,94 65,155 0,37 -9,72 -26,103 -17,31 -41,59 -71,79 -18,12 -32,20 -50,25z"/>
   <path class="fil1" d="M1376 4689l1236 0c21,0 39,9 53,22 13,14 21,32 21,53l0 507c0,20 -8,39 -21,52 -14,14 -32,22 -53,22l-1236 0c-21,0 -39,-8 -53,-22 -13,-13 -22,-32 -22,-52l0 -507c0,-21 9,-39 22,-53 14,-13 32,-22 53,-22zm1236 7l-1236 0c-19,0 -36,8 -48,20 -12,12 -19,29 -19,48l0 507c0,19 7,35 19,47 12,13 29,20 48,20l1236 0c19,0 35,-7 48,-20 12,-12 19,-28 19,-47l0 -507c0,-19 -7,-36 -19,-48 -13,-12 -29,-20 -48,-20z"/>
  </g>
 </g>
</svg>
