<?xml version="1.0" encoding="UTF-8"?>
<!DOCTYPE svg PUBLIC "-//W3C//DTD SVG 1.1//EN" "http://www.w3.org/Graphics/SVG/1.1/DTD/svg11.dtd">
<!-- Creator: CorelDRAW X8 -->
<svg xmlns="http://www.w3.org/2000/svg" xml:space="preserve" width="40mm" height="60mm" version="1.1" style="shape-rendering:geometricPrecision; text-rendering:geometricPrecision; image-rendering:optimizeQuality; fill-rule:evenodd; clip-rule:evenodd"
viewBox="0 0 4000 6000"
 xmlns:xlink="http://www.w3.org/1999/xlink">
 <defs>
  <style type="text/css">
   <![CDATA[
    .str0 {stroke:black;stroke-width:7.62}
    .fil0 {fill:none}
   ]]>
  </style>
 </defs>
 <g id="图层_x0020_1">
  <metadata id="CorelCorpID_0Corel-Layer"/>
  <path class="fil0 str0" d="M741 5350c-13,-16 -24,-33 -55,-33l-28 0c-85,0 -154,-69 -154,-154l0 -4359c0,-85 69,-154 154,-154l2684 0c85,0 154,69 154,154l0 2135c0,4 -1,5 -5,5l-20 0c-24,0 -43,20 -43,44l0 0c0,24 19,43 43,43l17 0c6,0 8,2 8,9l0 2123c0,85 -69,154 -154,154l-2775 0"/>
 </g>
</svg>
