<?xml version="1.0" encoding="UTF-8"?>
<!DOCTYPE svg PUBLIC "-//W3C//DTD SVG 1.1//EN" "http://www.w3.org/Graphics/SVG/1.1/DTD/svg11.dtd">
<!-- Creator: CorelDRAW 2020 (64-Bit) -->
<svg xmlns="http://www.w3.org/2000/svg" xml:space="preserve" width="40mm" height="60mm" version="1.1" style="shape-rendering:geometricPrecision; text-rendering:geometricPrecision; image-rendering:optimizeQuality; fill-rule:evenodd; clip-rule:evenodd"
viewBox="0 0 4000 6000"
 xmlns:xlink="http://www.w3.org/1999/xlink"
 xmlns:xodm="http://www.corel.com/coreldraw/odm/2003">
 <defs>
  <style type="text/css">
   <![CDATA[
    .fil0 {fill:black;fill-rule:nonzero}
   ]]>
  </style>
 </defs>
 <g id="图层_x0020_1">
  <metadata id="CorelCorpID_0Corel-Layer"/>
  <g>
   <path class="fil0" d="M2927.23 5329.96l-1825.79 0 0 -6.24 1825.79 0 3.12 3.12 -3.12 3.12zm3.12 -3.12l0 3.12 -3.12 0 3.12 -3.12zm0 -4676.84l0 4676.84 -6.24 0 0 -4676.84 3.12 -3.12 3.12 3.12zm-3.12 -3.12l3.12 0 0 3.12 -3.12 -3.12zm-1726.02 0l1726.02 0 0 6.24 -1726.02 0 0 0 0 -6.24zm-19.33 0l19.33 0 0 6.24 -19.33 0 0 0 0 -6.24zm-105.99 112.23l-6.24 0 0 0 0.15 -5.77 0.43 -5.71 0.72 -5.61 0.99 -5.53 1.25 -5.43 1.51 -5.32 1.76 -5.22 2.01 -5.1 2.25 -4.96 2.48 -4.85 2.71 -4.7 2.91 -4.55 3.13 -4.4 3.33 -4.23 3.52 -4.08 3.73 -3.89 3.89 -3.73 4.08 -3.52 4.23 -3.33 4.4 -3.13 4.55 -2.91 4.7 -2.71 4.85 -2.48 4.96 -2.25 5.1 -2.01 5.22 -1.76 5.32 -1.51 5.43 -1.25 5.53 -0.99 5.61 -0.72 5.71 -0.43 5.77 -0.15 0 6.24 -5.45 0.13 -5.39 0.41 -5.31 0.68 -5.21 0.93 -5.13 1.19 -5.04 1.43 -4.92 1.66 -4.8 1.89 -4.7 2.13 -4.57 2.34 -4.44 2.55 -4.29 2.75 -4.16 2.97 -4.01 3.15 -3.84 3.32 -3.69 3.51 -3.51 3.69 -3.32 3.84 -3.15 4.01 -2.97 4.16 -2.75 4.29 -2.55 4.44 -2.34 4.57 -2.13 4.7 -1.89 4.8 -1.66 4.92 -1.43 5.04 -1.19 5.13 -0.93 5.21 -0.68 5.31 -0.41 5.39 -0.13 5.45 0 0zm-6.24 4458.62l0 -4458.62 6.24 0 0 4458.62 0 0 -6.24 0zm112.23 105.99l0 6.24 0 0 -5.77 -0.15 -5.71 -0.43 -5.61 -0.72 -5.53 -0.99 -5.43 -1.25 -5.32 -1.51 -5.22 -1.76 -5.1 -2.01 -4.96 -2.25 -4.85 -2.48 -4.7 -2.71 -4.55 -2.91 -4.4 -3.13 -4.23 -3.33 -4.08 -3.52 -3.89 -3.73 -3.73 -3.89 -3.52 -4.08 -3.33 -4.23 -3.13 -4.4 -2.91 -4.55 -2.71 -4.7 -2.48 -4.85 -2.25 -4.96 -2.01 -5.1 -1.76 -5.22 -1.51 -5.32 -1.25 -5.43 -0.99 -5.53 -0.72 -5.61 -0.43 -5.71 -0.15 -5.77 6.24 0 0.13 5.45 0.41 5.39 0.68 5.31 0.93 5.21 1.19 5.13 1.43 5.04 1.66 4.92 1.89 4.8 2.13 4.7 2.34 4.57 2.55 4.44 2.75 4.29 2.97 4.16 3.15 4.01 3.32 3.84 3.51 3.69 3.69 3.51 3.84 3.32 4.01 3.15 4.16 2.97 4.29 2.75 4.44 2.55 4.57 2.34 4.7 2.13 4.8 1.89 4.92 1.66 5.04 1.43 5.13 1.19 5.21 0.93 5.31 0.68 5.39 0.41 5.45 0.13 0 0zm66.39 6.24l-66.39 0 0 -6.24 66.39 0 0 0 0 6.24zm110.13 18.16l-4.98 3.76 -0.7 -0.85 -0.89 -0.89 -1.07 -0.94 -1.24 -0.95 -1.42 -0.95 -1.6 -0.98 -1.77 -0.98 -1.95 -0.97 -2.12 -0.96 -2.27 -0.95 -2.46 -0.93 -2.62 -0.93 -2.77 -0.89 -2.94 -0.88 -3.11 -0.84 -3.26 -0.83 -3.42 -0.78 -3.57 -0.75 -3.73 -0.72 -3.89 -0.68 -4.04 -0.64 -4.19 -0.59 -4.35 -0.54 -4.49 -0.51 -4.65 -0.44 -4.8 -0.4 -4.93 -0.35 -5.09 -0.28 -5.25 -0.22 -5.37 -0.17 -5.53 -0.1 -5.66 -0.03 0 -6.24 5.74 0.03 5.61 0.1 5.45 0.17 5.31 0.24 5.17 0.28 5.03 0.35 4.88 0.4 4.73 0.46 4.59 0.51 4.43 0.56 4.29 0.61 4.14 0.64 3.99 0.7 3.83 0.74 3.69 0.77 3.54 0.82 3.38 0.85 3.23 0.88 3.08 0.92 2.93 0.95 2.76 0.97 2.62 0.99 2.47 1.03 2.3 1.06 2.15 1.07 2.01 1.1 1.84 1.12 1.7 1.15 1.54 1.19 1.39 1.2 1.23 1.25 1.08 1.29z"/>
  </g>
 </g>
</svg>
