<?xml version="1.0" encoding="UTF-8"?>
<!DOCTYPE svg PUBLIC "-//W3C//DTD SVG 1.1//EN" "http://www.w3.org/Graphics/SVG/1.1/DTD/svg11.dtd">
<!-- Creator: CorelDRAW X8 -->
<svg xmlns="http://www.w3.org/2000/svg" xml:space="preserve" width="40mm" height="60mm" version="1.1" style="shape-rendering:geometricPrecision; text-rendering:geometricPrecision; image-rendering:optimizeQuality; fill-rule:evenodd; clip-rule:evenodd"
viewBox="0 0 4000 6000"
 xmlns:xlink="http://www.w3.org/1999/xlink">
 <defs>
  <style type="text/css">
   <![CDATA[
    .str0 {stroke:black;stroke-width:7.62}
    .fil0 {fill:none}
   ]]>
  </style>
 </defs>
 <g id="图层_x0020_1">
  <metadata id="CorelCorpID_0Corel-Layer"/>
  <path class="fil0 str0" d="M943 5350l1914 0c130,0 237,-106 237,-236l0 -4228c0,-130 -107,-236 -237,-236l-1714 0c-130,0 -237,106 -237,236l0 4228c0,130 107,236 237,236l231 0m98 -4203l1076 1c23,0 35,4 47,22l79 115c6,9 7,12 7,23l0 28c0,13 -1,16 -5,22l-80 120c-7,11 -20,13 -32,13l-1097 0c-18,0 -29,-2 -40,-16l-84 -116c-6,-9 -7,-13 -7,-22l0 -31c0,-10 1,-13 10,-25l83 -115c11,-14 21,-19 43,-19zm-103 162l0 28c-1,1 0,2 1,3l83 115c3,2 4,3 10,3l1098 0c4,0 6,0 10,-6l73 -109c2,-2 2,-3 2,-6l0 -26c0,-4 0,-5 -2,-7l-78 -113c-7,-8 -10,-8 -21,-8l-1073 0c-8,0 -13,1 -16,5l-84 112c-2,3 -3,6 -3,9zm365 -84c0,-10 -9,-19 -28,-21 -65,0 -118,53 -118,119 0,65 53,118 118,118 66,0 119,-53 119,-118 0,-66 -53,-119 -119,-119m845 103c-2,-9 -5,-15 -21,-15l-5 0c-18,0 -33,14 -33,32l0 0c0,18 15,33 33,33l53 0c18,0 32,-15 32,-33l0 0c0,-18 -14,-32 -32,-32l-48 0m-493 -67c-1,-10 -10,-19 -28,-21 -66,0 -119,53 -119,119 0,65 53,118 119,118 65,0 118,-53 118,-118 0,-66 -53,-119 -118,-119m334 21c0,-10 -9,-19 -28,-21 -65,0 -118,53 -118,119 0,65 53,118 118,118 66,0 119,-53 119,-118 0,-66 -53,-119 -119,-119"/>
 </g>
</svg>
