<?xml version="1.0" encoding="UTF-8"?>
<!DOCTYPE svg PUBLIC "-//W3C//DTD SVG 1.1//EN" "http://www.w3.org/Graphics/SVG/1.1/DTD/svg11.dtd">
<!-- Creator: CorelDRAW X8 -->
<svg xmlns="http://www.w3.org/2000/svg" xml:space="preserve" width="40mm" height="60mm" version="1.1" style="shape-rendering:geometricPrecision; text-rendering:geometricPrecision; image-rendering:optimizeQuality; fill-rule:evenodd; clip-rule:evenodd"
viewBox="0 0 4000 6000"
 xmlns:xlink="http://www.w3.org/1999/xlink">
 <defs>
  <style type="text/css">
   <![CDATA[
    .fil0 {fill:black;fill-rule:nonzero}
   ]]>
  </style>
 </defs>
 <g id="图层_x0020_1">
  <metadata id="CorelCorpID_0Corel-Layer"/>
  <g>
   <path class="fil0" d="M905 764l-1 -10 0 0 4 0 4 -1 4 0 4 0 4 -1 4 0 3 -1 4 0 3 -1 3 0 4 -1 3 -1 3 0 3 -1 3 -1 3 -1 3 -1 2 -1 3 -1 2 -1 3 -1 2 -1 2 -1 2 -1 2 -1 2 -2 2 -1 2 -1 2 -2 1 -1 2 -2 1 -1 8 7 -2 2 -2 1 -2 2 -2 2 -2 1 -2 2 -2 1 -3 1 -2 2 -3 1 -2 1 -3 2 -3 1 -2 1 -3 1 -3 1 -3 1 -3 1 -4 0 -3 1 -3 1 -4 1 -3 0 -4 1 -3 0 -4 1 -4 0 -4 1 -4 0 -4 0 -4 1 -4 0 0 0zm-1 -10l0 0 2 0 -2 0zm-42 56l-10 0 0 0 0 -4 0 -3 0 -3 1 -3 0 -3 0 -3 1 -2 1 -3 0 -3 1 -2 1 -2 1 -3 2 -2 1 -2 1 -2 2 -2 2 -1 2 -2 2 -1 2 -2 2 -1 2 -1 2 -1 3 -1 2 -1 3 -1 3 0 3 -1 3 0 3 -1 3 0 3 0 1 10 -3 0 -3 0 -3 1 -3 0 -2 0 -2 1 -3 1 -2 0 -2 1 -2 1 -1 1 -2 1 -2 1 -1 1 -1 1 -2 1 -1 2 -1 1 -1 2 -1 1 -1 2 0 2 -1 2 -1 2 0 2 -1 2 0 3 -1 2 0 3 0 3 0 3 0 3 0 0zm27 4427l-10 0 0 0 -2 -127 -2 -131 -2 -133 -1 -135 -1 -138 -1 -139 -1 -142 -1 -143 -1 -144 0 -145 -1 -146 0 -147 0 -148 -1 -147 0 -148 0 -148 -1 -147 0 -147 0 -145 -1 -145 0 -144 0 -142 -1 -140 -1 -139 0 -137 -1 -134 -1 -132 -1 -129 -1 -126 -2 -123 -1 -120 -2 -116 10 0 2 116 1 120 2 123 1 126 1 129 1 132 1 134 0 137 1 138 1 141 0 142 0 144 1 145 0 145 0 147 1 147 0 148 0 147 1 148 0 148 0 146 1 147 0 145 1 144 1 143 1 141 1 140 1 138 1 135 2 133 2 131 2 127 0 0zm53 56l0 10 0 0 -4 0 -5 0 -4 -1 -4 0 -4 -1 -3 -1 -4 0 -3 -1 -3 -1 -3 -2 -2 -1 -3 -2 -2 -1 -3 -2 -2 -2 -2 -2 -2 -2 -1 -3 -2 -2 -1 -3 -1 -2 -1 -3 -1 -3 -1 -3 0 -3 -1 -3 0 -3 -1 -4 0 -3 0 -4 0 -4 0 -4 10 0 0 4 0 4 0 3 0 3 1 3 0 3 1 3 0 3 1 2 1 3 0 2 1 2 1 2 1 2 2 2 1 1 1 2 2 1 1 2 2 1 2 1 2 1 3 1 2 1 3 1 3 1 3 0 4 1 3 0 4 1 4 0 4 0 0 0zm2179 52l0 10 0 0 -68 -2 -68 -2 -70 -1 -69 -2 -70 -2 -71 -1 -70 -2 -71 -2 -71 -1 -71 -2 -72 -2 -71 -1 -71 -2 -71 -2 -71 -1 -71 -2 -70 -2 -70 -1 -70 -2 -69 -2 -69 -1 -68 -2 -67 -1 -67 -2 -66 -1 -65 -2 -65 -1 -63 -2 -63 -1 -61 -2 -61 -1 -59 -2 0 -10 60 2 60 1 62 2 62 1 64 2 64 1 65 2 66 1 67 2 68 1 68 2 68 1 70 2 69 2 70 1 71 2 70 2 71 1 71 2 71 2 72 1 71 2 71 2 71 1 71 2 71 2 70 1 70 2 70 2 69 1 68 2 68 2 0 0zm49 -51l10 0 0 0 0 3 0 4 0 3 0 4 0 3 0 3 -1 3 0 3 0 3 -1 2 -1 3 -1 2 -1 3 -1 2 -1 3 -2 2 -1 2 -2 2 -2 1 -3 2 -2 1 -3 2 -3 1 -3 1 -3 1 -3 0 -4 1 -3 0 -4 1 -5 0 -4 0 -5 0 0 -10 5 0 4 0 4 0 4 -1 3 0 3 0 3 -1 3 -1 2 0 2 -1 2 -1 2 -1 1 -1 2 -2 1 -1 1 -1 1 -2 1 -1 1 -2 1 -2 1 -2 0 -2 1 -2 0 -3 0 -2 1 -3 0 -3 0 -3 0 -3 0 -3 0 -3 0 -4 0 0zm-73 -4604l10 0 0 0 1 115 2 120 2 126 2 131 3 136 2 140 2 144 3 147 2 151 2 153 3 156 2 157 3 159 2 160 3 160 3 161 2 161 3 161 2 159 3 158 2 157 3 154 2 152 3 148 2 146 2 142 2 137 3 134 2 128 2 123 1 117 2 111 -10 0 -2 -111 -1 -117 -2 -123 -2 -128 -3 -133 -2 -138 -2 -142 -2 -145 -3 -149 -2 -152 -3 -154 -2 -157 -3 -158 -2 -159 -3 -161 -2 -160 -3 -161 -3 -161 -2 -160 -3 -159 -2 -157 -3 -156 -2 -153 -2 -151 -3 -147 -2 -144 -2 -140 -3 -136 -2 -131 -2 -126 -2 -120 -1 -115 0 0zm-36 -35l0 -10 0 0 3 0 2 0 3 0 2 0 3 0 2 0 2 1 3 0 2 0 2 1 2 1 2 0 2 1 1 1 2 2 2 1 1 1 1 2 2 2 1 1 1 2 1 2 0 3 1 2 1 2 0 3 1 2 0 3 0 3 0 3 1 3 0 3 -10 0 0 -3 -1 -3 0 -2 0 -3 0 -2 -1 -3 0 -2 -1 -2 0 -1 -1 -2 0 -1 -1 -2 -1 -1 -1 -1 0 -1 -1 -1 -1 0 -1 -1 -1 -1 -1 0 -2 -1 -1 0 -2 -1 -1 0 -2 0 -2 -1 -2 0 -2 0 -2 0 -3 0 -2 0 -3 0 0 0zm-2156 109l-1 -10 0 0 62 -3 63 -3 63 -3 63 -4 64 -3 65 -3 65 -4 65 -3 66 -3 67 -4 66 -3 67 -4 68 -3 67 -4 68 -3 68 -4 69 -3 68 -4 69 -3 69 -4 70 -3 69 -4 69 -3 70 -4 69 -3 70 -4 70 -3 70 -4 69 -3 70 -3 69 -4 70 -3 0 10 -69 3 -70 4 -69 3 -70 3 -70 4 -69 3 -70 4 -70 3 -69 4 -70 3 -69 4 -69 3 -69 4 -69 3 -69 4 -68 3 -68 4 -68 3 -68 4 -67 3 -67 4 -67 3 -66 4 -66 3 -66 3 -65 4 -64 3 -64 3 -64 3 -63 4 -62 3 -62 3 0 0zm-1 -10l0 0 0 0 0 0zm-82 -7l5 -9 3 1 2 1 2 2 3 1 2 1 3 1 2 1 2 1 3 0 2 1 3 1 2 1 2 0 3 1 2 0 3 1 2 0 2 1 3 0 2 1 2 0 3 0 2 0 3 0 2 0 2 1 3 0 2 -1 3 0 2 0 2 0 3 0 1 10 -3 0 -2 0 -3 0 -2 0 -3 1 -3 0 -2 -1 -3 0 -2 0 -3 0 -3 0 -2 -1 -3 0 -2 0 -3 -1 -2 0 -3 -1 -3 0 -2 -1 -3 -1 -2 -1 -3 0 -3 -1 -2 -1 -3 -1 -2 -1 -3 -1 -2 -1 -3 -1 -2 -2 -3 -1 -3 -1z"/>
  </g>
 </g>
</svg>
