<?xml version="1.0" encoding="UTF-8"?>
<!DOCTYPE svg PUBLIC "-//W3C//DTD SVG 1.1//EN" "http://www.w3.org/Graphics/SVG/1.1/DTD/svg11.dtd">
<!-- Creator: CorelDRAW X8 -->
<svg xmlns="http://www.w3.org/2000/svg" xml:space="preserve" width="40mm" height="60mm" version="1.1" style="shape-rendering:geometricPrecision; text-rendering:geometricPrecision; image-rendering:optimizeQuality; fill-rule:evenodd; clip-rule:evenodd"
viewBox="0 0 4000 6000"
 xmlns:xlink="http://www.w3.org/1999/xlink">
 <defs>
  <style type="text/css">
   <![CDATA[
    .str0 {stroke:black;stroke-width:7.62}
    .fil0 {fill:none}
   ]]>
  </style>
 </defs>
 <g id="图层_x0020_1">
  <metadata id="CorelCorpID_0Corel-Layer"/>
  <path class="fil0 str0" d="M1289 777c-7,-25 -16,-44 -59,-44l-35 0c-49,0 -90,41 -90,90l0 0c0,49 41,90 90,90l332 0c49,0 89,-41 89,-90l0 0c0,-49 -40,-90 -89,-90l-297 0m-384 4617l2129 0c105,0 190,-86 190,-191l0 -4318c0,-105 -85,-191 -190,-191l-1950 0c-105,0 -190,86 -190,191l0 4318c0,105 85,191 190,191l107 0"/>
 </g>
</svg>
