<?xml version="1.0" encoding="UTF-8"?>
<!DOCTYPE svg PUBLIC "-//W3C//DTD SVG 1.1//EN" "http://www.w3.org/Graphics/SVG/1.1/DTD/svg11.dtd">
<!-- Creator: CorelDRAW X8 -->
<svg xmlns="http://www.w3.org/2000/svg" xml:space="preserve" width="40mm" height="60mm" version="1.1" style="shape-rendering:geometricPrecision; text-rendering:geometricPrecision; image-rendering:optimizeQuality; fill-rule:evenodd; clip-rule:evenodd"
viewBox="0 0 4000 6000"
 xmlns:xlink="http://www.w3.org/1999/xlink">
 <defs>
  <style type="text/css">
   <![CDATA[
    .str0 {stroke:black;stroke-width:7.62}
    .fil0 {fill:none}
   ]]>
  </style>
 </defs>
 <g id="图层_x0020_1">
  <metadata id="CorelCorpID_0Corel-Layer"/>
  <path class="fil0 str0" d="M1362 868c10,-66 -45,-111 -72,-113 -97,0 -175,78 -175,175 0,96 78,175 175,175 97,0 175,-79 175,-175 0,-97 -78,-175 -175,-175m404 134c6,-43 -30,-74 -48,-75 -65,0 -117,52 -117,117 0,64 52,116 117,116 64,0 116,-52 116,-116 0,-65 -52,-117 -116,-117m-284 450c10,-65 -45,-111 -72,-113 -97,0 -175,78 -175,175 0,97 78,175 175,175 97,0 175,-78 175,-175 0,-97 -78,-175 -175,-175m324 117c-16,4 -27,9 -27,36l0 22c0,30 25,55 56,55l0 0c30,0 55,-25 55,-55l0 -105c0,-31 -25,-56 -55,-56l0 0c-31,0 -56,25 -56,56l0 83m-261 323c5,-36 -25,-60 -39,-61 -53,0 -95,42 -95,94 0,53 42,95 95,95 52,0 94,-42 94,-95 0,-52 -42,-94 -94,-94m726 -162l0 0c86,0 157,70 157,156l0 64c0,86 -71,156 -157,156l0 0c-86,0 -156,-70 -156,-156l0 -64c0,-86 70,-156 156,-156zm-739 -665l743 0c99,0 181,81 181,180l0 700c0,99 -82,181 -181,181l-743 0c-100,0 -181,-82 -181,-181l0 -700c0,-99 81,-180 181,-180zm13 -41l719 0c128,0 232,105 232,232l0 689c0,127 -104,232 -232,232l-719 0c-128,0 -232,-105 -232,-232l0 -689c0,-127 104,-232 232,-232zm-15 4067l114 0c8,0 15,6 15,14l0 262c0,8 -7,14 -15,14l-114 0c-8,0 -15,-6 -15,-14l0 -262c0,-8 7,-14 15,-14zm-205 566l1746 0c138,0 252,-113 252,-251l0 -4179c0,-138 -114,-251 -252,-251l-1626 0c-138,0 -252,113 -252,251l0 4179c0,138 114,251 252,251l37 0c57,0 88,11 99,19"/>
 </g>
</svg>
