<?xml version="1.0" encoding="UTF-8"?>
<!DOCTYPE svg PUBLIC "-//W3C//DTD SVG 1.1//EN" "http://www.w3.org/Graphics/SVG/1.1/DTD/svg11.dtd">
<!-- Creator: CorelDRAW 2020 (64-Bit) -->
<svg xmlns="http://www.w3.org/2000/svg" xml:space="preserve" width="40mm" height="60mm" version="1.1" style="shape-rendering:geometricPrecision; text-rendering:geometricPrecision; image-rendering:optimizeQuality; fill-rule:evenodd; clip-rule:evenodd"
viewBox="0 0 4000 6000"
 xmlns:xlink="http://www.w3.org/1999/xlink"
 xmlns:xodm="http://www.corel.com/coreldraw/odm/2003">
 <defs>
  <style type="text/css">
   <![CDATA[
    .fil0 {fill:#332C2B;fill-rule:nonzero}
   ]]>
  </style>
 </defs>
 <g id="图层_x0020_1">
  <metadata id="CorelCorpID_0Corel-Layer"/>
  <g>
   <path class="fil0" d="M3090.9 691.16l-1978.23 10.95 -0.12 -20 1978.23 -10.95 10.06 9.99 -9.94 10.01zm-0.12 -20l10.05 -0.06 0.01 10.05 -10.06 -9.99zm7.97 1466.42l-20 -0.12 0 0 0.19 -33.99 0.18 -35.24 0.17 -36.45 0.17 -37.58 0.16 -38.69 0.15 -39.74 0.14 -40.72 0.14 -41.68 0.13 -42.57 0.12 -43.42 0.11 -44.2 0.1 -44.95 0.1 -45.65 0.09 -46.28 0.08 -46.88 0.07 -47.41 0.06 -47.91 0.06 -48.34 0.04 -48.74 0.04 -49.07 0.03 -49.36 0.02 -49.59 0.02 -49.78 0 -49.92 0 -50 -0.01 -50.04 -0.03 -50.01 -0.03 -49.95 -0.04 -49.84 -0.05 -49.66 -0.05 -49.45 -0.07 -49.18 20 -0.02 0.07 49.18 0.05 49.45 0.05 49.66 0.04 49.84 0.03 49.95 0.03 50.03 0.01 50.04 0 50 0 49.92 -0.02 49.78 -0.02 49.61 -0.03 49.36 -0.04 49.07 -0.04 48.74 -0.06 48.34 -0.06 47.91 -0.07 47.43 -0.08 46.88 -0.09 46.28 -0.1 45.65 -0.1 44.95 -0.11 44.22 -0.12 43.42 -0.13 42.57 -0.14 41.68 -0.14 40.74 -0.15 39.74 -0.16 38.69 -0.17 37.6 -0.17 36.45 -0.18 35.24 -0.19 34.01 0 0zm-32.88 2748.72l-19.98 -0.62 0 0 2.47 -83.08 2.33 -84.72 2.2 -86.24 2.06 -87.6 1.93 -88.81 1.8 -89.87 1.69 -90.79 1.57 -91.57 1.47 -92.17 1.36 -92.67 1.26 -92.98 1.17 -93.17 1.08 -93.21 0.99 -93.08 0.92 -92.84 0.85 -92.42 0.77 -91.86 0.72 -91.16 0.65 -90.31 0.61 -89.32 0.55 -88.16 0.51 -86.88 0.48 -85.43 0.44 -83.86 0.42 -82.11 0.39 -80.24 0.37 -78.21 0.37 -76.03 0.35 -73.71 0.36 -71.24 0.35 -68.62 0.37 -65.86 20 0.12 -0.37 65.84 -0.35 68.62 -0.36 71.24 -0.35 73.71 -0.37 76.03 -0.37 78.21 -0.39 80.24 -0.42 82.11 -0.44 83.86 -0.48 85.45 -0.51 86.88 -0.55 88.18 -0.61 89.32 -0.65 90.33 -0.72 91.16 -0.77 91.88 -0.85 92.44 -0.92 92.84 -0.99 93.1 -1.08 93.23 -1.17 93.19 -1.26 93 -1.36 92.69 -1.47 92.21 -1.57 91.59 -1.69 90.81 -1.8 89.91 -1.93 88.85 -2.06 87.62 -2.2 86.28 -2.33 84.78 -2.49 83.12 0 0zm-359.12 394.72l-3.44 -19.7 -0.01 0 20.65 -3.92 20.01 -4.4 19.34 -4.89 18.68 -5.37 18.04 -5.87 17.38 -6.35 16.72 -6.84 16.07 -7.33 15.43 -7.82 14.76 -8.31 14.13 -8.8 13.48 -9.3 12.84 -9.79 12.2 -10.29 11.56 -10.8 10.95 -11.3 10.31 -11.82 9.68 -12.32 9.06 -12.86 8.45 -13.38 7.82 -13.91 7.21 -14.46 6.59 -15.01 5.97 -15.56 5.35 -16.11 4.72 -16.69 4.11 -17.24 3.47 -17.83 2.85 -18.39 2.22 -18.98 1.58 -19.56 0.96 -20.14 19.98 0.62 -0.98 20.8 -1.64 20.24 -2.3 19.7 -2.97 19.15 -3.63 18.61 -4.29 18.06 -4.96 17.51 -5.63 16.99 -6.31 16.42 -6.97 15.89 -7.65 15.34 -8.32 14.79 -8.99 14.24 -9.66 13.7 -10.32 13.14 -10.99 12.6 -11.65 12.04 -12.3 11.48 -12.96 10.93 -13.62 10.39 -14.26 9.82 -14.89 9.28 -15.54 8.75 -16.17 8.2 -16.81 7.67 -17.44 7.14 -18.08 6.59 -18.7 6.09 -19.32 5.55 -19.96 5.05 -20.59 4.54 -21.21 4.02 -0.01 0zm-1378.11 84.63l-0.04 -20 0 0 33.24 -0.12 35.08 -0.26 36.79 -0.38 38.38 -0.52 39.85 -0.66 41.2 -0.79 42.42 -0.95 43.55 -1.09 44.53 -1.24 45.39 -1.39 46.14 -1.56 46.77 -1.72 47.28 -1.89 47.66 -2.05 47.93 -2.23 48.07 -2.4 48.09 -2.58 48.01 -2.76 47.79 -2.96 47.45 -3.14 46.99 -3.32 46.41 -3.54 45.72 -3.72 44.9 -3.94 43.95 -4.13 42.89 -4.34 41.71 -4.57 40.4 -4.77 38.98 -4.99 37.42 -5.22 35.76 -5.44 33.96 -5.66 3.44 19.7 -34.26 5.72 -36.02 5.48 -37.66 5.24 -39.18 5.01 -40.58 4.81 -41.87 4.57 -43.05 4.36 -44.09 4.15 -45.02 3.94 -45.82 3.74 -46.53 3.54 -47.09 3.34 -47.53 3.14 -47.87 2.96 -48.09 2.76 -48.17 2.6 -48.15 2.4 -47.99 2.23 -47.74 2.05 -47.34 1.89 -46.83 1.72 -46.2 1.56 -45.45 1.41 -44.59 1.24 -43.59 1.09 -42.48 0.95 -41.26 0.79 -39.91 0.66 -38.44 0.52 -36.85 0.38 -35.14 0.26 -33.32 0.12 0 0zm-442.97 -22.56l20 0.1 -9.29 -10.02 13.7 0.94 13.68 0.9 13.64 0.86 13.61 0.82 13.57 0.77 13.55 0.72 13.52 0.69 13.51 0.65 13.48 0.61 13.45 0.58 13.45 0.53 13.43 0.5 13.42 0.47 13.42 0.42 13.4 0.39 13.41 0.37 13.4 0.33 13.41 0.31 13.4 0.27 13.42 0.25 13.42 0.22 13.43 0.19 13.46 0.17 13.46 0.14 13.48 0.12 13.5 0.1 13.53 0.07 13.55 0.06 13.59 0.03 13.61 0.02 13.64 0 13.68 -0.02 0.04 20 -13.7 0.02 -13.68 0 -13.63 -0.02 -13.61 -0.03 -13.59 -0.06 -13.55 -0.07 -13.54 -0.1 -13.52 -0.12 -13.5 -0.14 -13.48 -0.17 -13.47 -0.19 -13.46 -0.22 -13.46 -0.25 -13.46 -0.27 -13.45 -0.31 -13.44 -0.33 -13.45 -0.37 -13.46 -0.39 -13.46 -0.44 -13.48 -0.47 -13.47 -0.5 -13.51 -0.53 -13.51 -0.58 -13.54 -0.61 -13.55 -0.65 -13.58 -0.69 -13.61 -0.74 -13.63 -0.77 -13.67 -0.82 -13.7 -0.86 -13.74 -0.9 -13.78 -0.96 -9.29 -10.02zm9.29 10.02l-9.33 -0.66 0.04 -9.36 9.29 10.02zm29.55 -4190.19l-18.84 4180.27 -20 -0.1 18.84 -4180.27 4.34 -8.19 15.66 8.29zm-20 -0.1l0.02 -5.23 4.32 -2.96 -4.34 8.19zm236.54 -471.28l19.96 1.14 -0.03 0.39 -2.07 19.78 -2.37 19.46 -2.67 19.18 -2.98 18.88 -3.29 18.58 -3.61 18.28 -3.93 17.97 -4.27 17.67 -4.59 17.36 -4.94 17.06 -5.29 16.76 -5.64 16.43 -5.99 16.14 -6.36 15.81 -6.73 15.5 -7.12 15.19 -7.49 14.86 -7.87 14.54 -8.26 14.23 -8.67 13.89 -9.06 13.57 -9.47 13.23 -9.88 12.91 -10.31 12.57 -10.72 12.23 -11.15 11.89 -11.58 11.55 -12.01 11.2 -12.45 10.86 -12.9 10.51 -13.35 10.15 -13.79 9.8 -11.32 -16.48 13.27 -9.44 12.81 -9.75 12.38 -10.09 11.95 -10.42 11.53 -10.74 11.1 -11.07 10.69 -11.41 10.28 -11.73 9.89 -12.05 9.48 -12.39 9.11 -12.71 8.7 -13.03 8.33 -13.37 7.96 -13.69 7.59 -14.02 7.23 -14.34 6.86 -14.67 6.51 -15 6.16 -15.31 5.81 -15.64 5.48 -15.97 5.15 -16.28 4.8 -16.62 4.49 -16.92 4.15 -17.25 3.85 -17.57 3.53 -17.88 3.23 -18.2 2.92 -18.52 2.61 -18.82 2.33 -19.14 2.05 -19.44 -0.03 0.39zm19.96 1.14l-0.01 0.19 -0.02 0.2 0.03 -0.39zm-19.27 -35.45l19.76 -3.12 0.16 1.1 0.14 1.09 0.12 1.09 0.1 1.06 0.09 1.12 0.07 1.13 0.06 1.08 0.05 1.16 0.02 1.1 0.02 1.12 0 1.14 0 1.14 -0.02 1.16 -0.02 1.13 -0.04 1.19 -0.04 1.19 -0.05 1.17 -0.05 1.18 -0.06 1.21 -0.07 1.22 -0.07 1.24 -0.07 1.25 -0.08 1.28 -0.08 1.25 -0.08 1.27 -0.08 1.33 -0.09 1.31 -0.08 1.33 -0.09 1.36 -0.08 1.37 -0.09 1.4 -0.08 1.4 -19.96 -1.14 0.08 -1.46 0.09 -1.42 0.08 -1.39 0.09 -1.38 0.08 -1.35 0.09 -1.33 0.08 -1.27 0.08 -1.29 0.08 -1.27 0.08 -1.22 0.07 -1.19 0.07 -1.16 0.05 -1.16 0.06 -1.13 0.05 -1.12 0.05 -1.09 0.04 -1.03 0.02 -1.01 0.02 -1.05 0.02 -0.96 0 -0.96 0 -0.94 -0.02 -0.92 -0.02 -0.9 -0.03 -0.84 -0.04 -0.86 -0.05 -0.81 -0.07 -0.78 -0.08 -0.82 -0.08 -0.75 -0.1 -0.75 -0.1 -0.7z"/>
  </g>
 </g>
</svg>
