<?xml version="1.0" encoding="UTF-8"?>
<!DOCTYPE svg PUBLIC "-//W3C//DTD SVG 1.1//EN" "http://www.w3.org/Graphics/SVG/1.1/DTD/svg11.dtd">
<!-- Creator: CorelDRAW X8 -->
<svg xmlns="http://www.w3.org/2000/svg" xml:space="preserve" width="40mm" height="60mm" version="1.1" style="shape-rendering:geometricPrecision; text-rendering:geometricPrecision; image-rendering:optimizeQuality; fill-rule:evenodd; clip-rule:evenodd"
viewBox="0 0 4000 6000"
 xmlns:xlink="http://www.w3.org/1999/xlink">
 <defs>
  <style type="text/css">
   <![CDATA[
    .str0 {stroke:#332C2B;stroke-width:20}
    .fil0 {fill:none}
   ]]>
  </style>
 </defs>
 <g id="图层_x0020_1">
  <metadata id="CorelCorpID_0Corel-Layer"/>
  <path class="fil0 str0" d="M979 5241l1822 0c121,0 220,-99 220,-220l0 -4151c0,-121 -99,-220 -220,-220l-1591 0c-121,0 -220,99 -220,220l0 4151c0,121 99,220 220,220 121,0 168,86 168,109m562 -3491l123 0c61,0 110,49 110,110l0 117c0,60 -49,110 -110,110l-123 0c-60,0 -110,-50 -110,-110l0 -117c0,-61 50,-110 110,-110zm-218 -1007l557 0c106,0 193,86 193,192l0 563c0,106 -87,193 -193,193l-557 0c-106,0 -193,-87 -193,-193l0 -563c0,-106 87,-192 193,-192zm6 52l544 0c83,0 152,68 152,151l0 542c0,83 -69,151 -152,151l-544 0c-83,0 -151,-68 -151,-151l0 -542c0,-83 68,-151 151,-151zm272 303c67,0 121,54 121,121 0,67 -54,121 -121,121 -67,0 -121,-54 -121,-121 0,-67 54,-121 121,-121zm-3 -277c54,0 98,44 98,98 0,54 -44,97 -98,97 -54,0 -97,-43 -97,-97 0,-54 43,-98 97,-98zm6 594c57,0 104,47 104,105 0,57 -47,104 -104,104 -58,0 -104,-47 -104,-104 0,-58 46,-105 104,-105zm301 -291c53,0 96,43 96,96 0,53 -43,96 -96,96 -53,0 -96,-43 -96,-96 0,-53 43,-96 96,-96zm-606 0c53,0 97,43 97,96 0,53 -44,96 -97,96 -53,0 -96,-43 -96,-96 0,-53 43,-96 96,-96z"/>
 </g>
</svg>
