<?xml version="1.0" encoding="UTF-8"?>
<!DOCTYPE svg PUBLIC "-//W3C//DTD SVG 1.1//EN" "http://www.w3.org/Graphics/SVG/1.1/DTD/svg11.dtd">
<!-- Creator: CorelDRAW X8 -->
<svg xmlns="http://www.w3.org/2000/svg" xml:space="preserve" width="40mm" height="60mm" version="1.1" style="shape-rendering:geometricPrecision; text-rendering:geometricPrecision; image-rendering:optimizeQuality; fill-rule:evenodd; clip-rule:evenodd"
viewBox="0 0 4000 6000"
 xmlns:xlink="http://www.w3.org/1999/xlink">
 <defs>
  <style type="text/css">
   <![CDATA[
    .str0 {stroke:#332C2B;stroke-width:7.62}
    .fil0 {fill:none}
   ]]>
  </style>
 </defs>
 <g id="图层_x0020_1">
  <metadata id="CorelCorpID_0Corel-Layer"/>
  <path class="fil0 str0" d="M964 5280l1850 0c122,0 222,-100 222,-222l0 -4186c0,-122 -100,-222 -222,-222l-1589 0c-122,0 -222,100 -222,222l0 4186c0,122 100,222 222,222 122,0 198,24 198,70m19 -4501l0 0c105,0 192,86 192,192l0 397c0,105 -87,192 -192,192l0 0c-106,0 -192,-87 -192,-192l0 -397c0,-106 86,-192 192,-192zm1 56l0 0c80,0 145,65 145,144l0 382c0,80 -65,145 -145,145l0 0c-79,0 -144,-65 -144,-145l0 -382c0,-79 65,-144 144,-144zm1 55c68,0 123,55 123,122 0,68 -55,123 -123,123 -68,0 -122,-55 -122,-123 0,-67 54,-122 122,-122zm1 318c68,0 122,55 122,123 0,68 -54,122 -122,122 -68,0 -123,-54 -123,-122 0,-68 55,-123 123,-123zm576 577c105,0 190,85 190,190 0,105 -85,190 -190,190 -105,0 -190,-85 -190,-190 0,-105 85,-190 190,-190zm-623 -162l97 0c30,0 55,25 55,55l0 0c0,30 -25,55 -55,55l-97 0c-31,0 -55,-25 -55,-55l0 0c0,-30 24,-55 55,-55z"/>
 </g>
</svg>
