<?xml version="1.0" encoding="UTF-8"?>
<!DOCTYPE svg PUBLIC "-//W3C//DTD SVG 1.1//EN" "http://www.w3.org/Graphics/SVG/1.1/DTD/svg11.dtd">
<!-- Creator: CorelDRAW X8 -->
<svg xmlns="http://www.w3.org/2000/svg" xml:space="preserve" width="40mm" height="60mm" version="1.1" style="shape-rendering:geometricPrecision; text-rendering:geometricPrecision; image-rendering:optimizeQuality; fill-rule:evenodd; clip-rule:evenodd"
viewBox="0 0 4000 6000"
 xmlns:xlink="http://www.w3.org/1999/xlink">
 <defs>
  <style type="text/css">
   <![CDATA[
    .str0 {stroke:black;stroke-width:7.62}
    .fil0 {fill:none}
   ]]>
  </style>
 </defs>
 <g id="图层_x0020_1">
  <metadata id="CorelCorpID_0Corel-Layer"/>
  <path class="fil0 str0" d="M1035 5350l1822 0c119,0 216,-97 216,-217l0 -4266c0,-119 -97,-217 -216,-217l-486 0 -238 0c-20,0 -36,0 -36,27l0 22c0,50 -41,92 -91,92l0 0c-51,0 -92,-42 -92,-92l0 -20c0,-27 -13,-29 -30,-29l-255 0 -486 0c-119,0 -216,98 -216,217l0 4266c0,120 97,217 216,217l80 0"/>
 </g>
</svg>
