<?xml version="1.0" encoding="UTF-8"?>
<!DOCTYPE svg PUBLIC "-//W3C//DTD SVG 1.1//EN" "http://www.w3.org/Graphics/SVG/1.1/DTD/svg11.dtd">
<!-- Creator: CorelDRAW X8 -->
<svg xmlns="http://www.w3.org/2000/svg" xml:space="preserve" width="40mm" height="60mm" version="1.1" style="shape-rendering:geometricPrecision; text-rendering:geometricPrecision; image-rendering:optimizeQuality; fill-rule:evenodd; clip-rule:evenodd"
viewBox="0 0 4000 6000"
 xmlns:xlink="http://www.w3.org/1999/xlink">
 <defs>
  <style type="text/css">
   <![CDATA[
    .str0 {stroke:#332C2B;stroke-width:10}
    .fil0 {fill:none}
   ]]>
  </style>
 </defs>
 <g id="图层_x0020_1">
  <metadata id="CorelCorpID_0Corel-Layer"/>
  <path class="fil0 str0" d="M1370 713c-4,-13 -9,-23 -31,-23l-18 0c-26,0 -47,21 -47,47l0 0c0,26 21,47 47,47l93 0c26,0 47,-21 47,-47l0 0c0,-26 -21,-47 -47,-47l-75 0m642 41c-5,-21 -17,-37 -68,-37l-43 0c-23,0 -42,19 -42,42l0 0c0,23 19,41 42,41l302 0c23,0 41,-18 41,-41l0 0c0,-23 -18,-42 -41,-42l-259 0m516 21c1,-24 -27,-43 -38,-44 -37,0 -66,30 -66,67 0,37 29,67 66,67 37,0 67,-30 67,-67 0,-37 -30,-67 -67,-67m-349 4541c-3,-13 -10,-22 -41,-22l-26 0c-13,0 -25,11 -25,25l0 0c0,13 12,25 25,25l86 0c14,0 25,-12 25,-25l0 0c0,-14 -11,-25 -25,-25l-60 0m-1060 160l2020 0c109,0 197,-89 197,-197l0 -4306c0,-108 -88,-197 -197,-197l-1922 0c-109,0 -197,89 -197,197l0 4306c0,108 88,197 197,197l179 0"/>
 </g>
</svg>
