<?xml version="1.0" encoding="UTF-8"?>
<!DOCTYPE svg PUBLIC "-//W3C//DTD SVG 1.1//EN" "http://www.w3.org/Graphics/SVG/1.1/DTD/svg11.dtd">
<!-- Creator: CorelDRAW X8 -->
<svg xmlns="http://www.w3.org/2000/svg" xml:space="preserve" width="40mm" height="60mm" version="1.1" style="shape-rendering:geometricPrecision; text-rendering:geometricPrecision; image-rendering:optimizeQuality; fill-rule:evenodd; clip-rule:evenodd"
viewBox="0 0 4000 6000"
 xmlns:xlink="http://www.w3.org/1999/xlink">
 <defs>
  <style type="text/css">
   <![CDATA[
    .str0 {stroke:black;stroke-width:7.62}
    .fil0 {fill:none}
   ]]>
  </style>
 </defs>
 <g id="图层_x0020_1">
  <metadata id="CorelCorpID_0Corel-Layer"/>
  <path class="fil0 str0" d="M1177 764c0,-5 -5,-10 -15,-11 -35,0 -64,29 -64,64 0,35 29,63 64,63 35,0 64,-28 64,-63 0,-35 -29,-64 -64,-64m-150 4578l1867 0c101,0 183,-82 183,-183l0 -4315c0,-101 -82,-183 -183,-183l-562 0c-2,0 -2,0 -4,2l-6 7c-2,2 -2,2 -5,2l-605 0c-3,0 -4,0 -5,-2l-4 -6c-2,-2 -3,-3 -7,-3l-560 0c-101,0 -183,82 -183,183l0 4315c0,101 82,183 183,183 34,0 71,7 101,19"/>
 </g>
</svg>
