<?xml version="1.0" encoding="UTF-8"?>
<!DOCTYPE svg PUBLIC "-//W3C//DTD SVG 1.1//EN" "http://www.w3.org/Graphics/SVG/1.1/DTD/svg11.dtd">
<!-- Creator: CorelDRAW X8 -->
<svg xmlns="http://www.w3.org/2000/svg" xml:space="preserve" width="40mm" height="60mm" version="1.1" style="shape-rendering:geometricPrecision; text-rendering:geometricPrecision; image-rendering:optimizeQuality; fill-rule:evenodd; clip-rule:evenodd"
viewBox="0 0 4000 6000"
 xmlns:xlink="http://www.w3.org/1999/xlink">
 <defs>
  <style type="text/css">
   <![CDATA[
    .str0 {stroke:#222222;stroke-width:20;stroke-linecap:round;stroke-linejoin:round}
    .fil0 {fill:none;fill-rule:nonzero}
    .fil1 {fill:#222222;fill-rule:nonzero}
   ]]>
  </style>
 </defs>
 <g id="图层_x0020_1">
  <metadata id="CorelCorpID_0Corel-Layer"/>
  <path class="fil0 str0" d="M-30434 11550c0,-353 -698,-722 -1084,-722 -387,0 -700,-314 -700,-700l0 -22740c0,-384 309,-696 692,-700l13719 0c369,4 670,293 691,658l0 10099c-10,74 -72,130 -149,130l-189 0c-83,0 -150,68 -150,150l0 1162c0,83 67,150 150,150l189 0c77,0 139,57 149,130l0 11002c-22,368 -326,659 -699,659l-14700 0"/>
  <g>
   <path class="fil1" d="M940 5350c0,1 -1,2 -2,2 -1,0 -2,-1 -2,-2l4 0zm-207 -135l0 -3 0 0 7 0 7 0 8 1 8 2 8 2 8 2 9 2 8 3 9 3 8 3 9 4 9 3 8 4 8 5 9 4 8 5 8 5 7 5 7 6 7 5 7 6 6 5 6 6 6 6 4 6 5 7 4 6 3 6 2 7 2 6 1 7 1 6 -4 0 0 -6 -2 -6 -1 -6 -3 -6 -3 -6 -3 -6 -5 -6 -4 -6 -6 -6 -5 -6 -6 -5 -7 -6 -7 -5 -7 -6 -8 -5 -7 -5 -8 -4 -8 -5 -9 -4 -8 -4 -8 -4 -9 -4 -8 -3 -9 -3 -8 -2 -9 -3 -8 -2 -8 -1 -7 -2 -8 -1 -7 0 -7 -1 0 0zm-134 -134l3 0 0 0 1 7 0 7 1 6 1 6 2 7 1 6 2 6 3 6 2 6 3 5 3 6 4 5 3 5 4 5 4 5 5 4 4 5 5 4 5 4 5 3 5 4 6 3 5 3 6 2 6 3 6 2 6 2 7 1 6 1 7 1 6 0 7 1 0 3 -7 0 -7 0 -7 -1 -6 -1 -7 -2 -6 -2 -6 -2 -6 -2 -6 -3 -6 -3 -6 -3 -5 -4 -5 -3 -6 -4 -4 -4 -5 -5 -4 -5 -5 -4 -4 -6 -3 -5 -4 -5 -3 -6 -3 -6 -3 -6 -2 -6 -2 -6 -2 -6 -2 -7 -1 -6 -1 -7 0 -7 0 -7 0 0zm0 0c0,-1 0,-2 2,-2 1,0 1,1 1,2l-3 0zm3 -4299l0 4299 -3 0 0 -4299 0 0 3 0zm-3 0c0,-1 0,-2 2,-2 1,0 1,1 1,2l-3 0zm132 -134l0 4 0 0 -6 0 -7 1 -6 1 -7 1 -6 1 -6 2 -6 2 -6 3 -6 2 -5 3 -6 3 -5 4 -5 3 -5 4 -4 4 -5 5 -4 4 -4 5 -4 5 -4 5 -3 5 -3 6 -3 5 -2 6 -3 6 -2 6 -2 6 -1 6 -1 7 -1 6 0 7 -1 6 -3 0 0 -7 0 -6 1 -7 1 -7 2 -6 2 -6 2 -7 2 -6 3 -6 3 -5 3 -6 3 -5 4 -6 4 -5 4 -4 4 -5 5 -5 5 -4 5 -4 5 -3 5 -4 6 -3 6 -3 6 -3 6 -2 6 -3 6 -1 7 -2 6 -1 7 -1 7 -1 6 0 0 0zm0 0c1,0 2,1 2,2 0,1 -1,2 -2,2l0 -4zm2594 4l-2594 0 0 -4 2594 0 0 0 0 4zm0 -4c1,0 2,1 2,2 0,1 -1,2 -2,2l0 -4zm132 126l-3 0 0 1 -1 -7 -1 -6 -1 -6 -1 -6 -2 -6 -2 -6 -2 -6 -2 -5 -3 -6 -3 -5 -3 -5 -4 -5 -3 -5 -4 -4 -4 -5 -4 -4 -5 -4 -4 -4 -5 -3 -5 -4 -5 -3 -6 -3 -5 -3 -6 -2 -5 -2 -6 -2 -6 -2 -6 -1 -6 -2 -6 0 -7 -1 -6 0 0 -4 7 0 6 1 6 1 7 1 6 1 6 2 6 2 6 2 6 3 5 3 6 3 5 3 5 3 5 4 5 4 4 4 5 5 4 4 4 5 3 5 4 5 3 5 3 6 3 5 2 6 3 6 2 6 1 6 2 6 1 6 1 7 0 6 0 0zm0 0c1,1 0,2 -1,2 -1,0 -2,0 -2,-1l3 -1zm-3 1910l0 -1910 3 0 0 1910 0 0 -3 0zm3 0c0,1 0,1 -1,1 -1,0 -2,0 -2,-1l3 0zm-30 26l0 -4 0 0 2 0 1 0 1 0 1 0 2 0 1 -1 1 0 1 0 1 -1 1 0 1 -1 1 -1 1 0 1 -1 1 -1 1 0 1 -1 1 -1 0 -1 1 -1 1 -1 1 -1 0 -1 1 -1 0 -1 1 -1 0 -1 1 -1 0 -1 0 -1 0 -1 1 -2 3 1 0 1 0 2 0 1 -1 1 0 1 -1 2 0 1 -1 1 -1 1 0 2 -1 1 -1 1 -1 1 -1 1 -1 1 -1 1 -1 0 -1 1 -1 1 -1 1 -1 0 -1 1 -1 1 -2 0 -1 1 -1 0 -2 0 -1 1 -1 0 -2 0 -1 0 -2 0 0 0zm0 0c-1,0 -1,-1 -1,-2 0,-1 0,-2 1,-2l0 4zm-35 -4l35 0 0 4 -35 0 0 0 0 -4zm0 4c-1,0 -2,-1 -2,-2 0,-1 1,-2 2,-2l0 4zm-27 27l-4 0 0 0 0 -2 1 -2 0 -1 0 -1 0 -2 1 -1 0 -2 1 -1 0 -2 1 -1 1 -1 1 -1 0 -2 1 -1 1 -1 1 -1 1 -1 1 -1 1 -1 2 -1 1 0 1 -1 1 -1 2 0 1 -1 2 0 1 -1 2 0 1 0 2 -1 1 0 2 0 0 4 -2 0 -1 0 -1 0 -2 1 -1 0 -1 0 -2 1 -1 0 -1 1 -1 0 -1 1 -1 1 -1 0 -1 1 -1 1 -1 1 -1 1 -1 1 -1 1 0 1 -1 1 -1 1 0 1 -1 1 0 1 -1 2 0 1 0 1 -1 2 0 1 0 1 0 2 0 0zm0 0c0,1 -1,1 -2,1 -1,0 -2,0 -2,-1l4 0zm-4 219l0 -219 4 0 0 219 0 0 -4 0zm4 0c0,1 -1,2 -2,2 -1,0 -2,-1 -2,-2l4 0zm27 27l0 3 0 0 -2 0 -1 0 -2 0 -1 0 -2 -1 -1 0 -2 0 -1 -1 -2 -1 -1 0 -1 -1 -1 -1 -2 -1 -1 -1 -1 0 -1 -1 -1 -2 -1 -1 -1 -1 0 -1 -1 -1 -1 -1 -1 -2 0 -1 -1 -1 0 -2 -1 -1 0 -2 0 -1 0 -2 -1 -1 0 -2 4 0 0 1 0 2 0 1 1 1 0 2 0 1 1 1 0 1 1 2 0 1 1 1 1 1 0 1 1 1 1 1 1 1 1 1 1 1 1 0 1 1 1 1 1 0 1 1 1 1 1 0 2 0 1 1 1 0 2 0 1 0 1 1 2 0 0 0zm0 0c1,0 1,0 1,1 0,2 0,2 -1,2l0 -3zm35 3l-35 0 0 -3 35 0 0 0 0 3zm0 -3c1,0 2,0 2,1 0,2 -1,2 -2,2l0 -3zm30 26l-3 0 0 0 -1 -1 0 -1 0 -1 0 -1 -1 -1 0 -2 -1 -1 0 -1 -1 -1 0 -1 -1 -1 -1 -1 -1 0 0 -1 -1 -1 -1 -1 -1 -1 -1 0 -1 -1 -1 -1 -1 0 -1 -1 -1 0 -1 -1 -1 0 -1 -1 -1 0 -2 0 -1 0 -1 -1 -1 0 -2 0 0 -3 2 0 1 0 2 0 1 0 1 0 2 1 1 0 1 1 2 0 1 1 1 0 1 1 1 1 1 1 1 0 1 1 1 1 1 1 1 1 1 1 1 1 1 1 0 1 1 2 1 1 0 1 1 1 0 2 1 1 0 1 0 2 0 1 0 0zm0 0c1,1 0,2 -1,2 -1,0 -2,-1 -2,-2l3 0zm-3 2080l0 -2080 3 0 0 2080 0 0 -3 0zm3 0c0,1 0,2 -1,2 -1,0 -2,-1 -2,-2l3 0zm-134 126l0 -3 0 0 7 -1 6 0 7 -1 6 -1 6 -1 6 -2 6 -2 6 -2 5 -2 6 -3 5 -3 5 -3 5 -4 5 -3 5 -4 4 -4 4 -4 4 -5 4 -4 4 -5 3 -5 4 -5 3 -6 2 -5 3 -6 2 -5 2 -6 2 -6 1 -6 1 -6 1 -7 1 -6 3 0 0 7 -1 6 -1 7 -2 6 -1 6 -2 6 -3 6 -2 6 -3 5 -3 6 -3 5 -4 5 -4 5 -4 5 -4 4 -4 5 -5 4 -5 4 -5 4 -5 3 -5 3 -6 3 -5 3 -6 3 -6 2 -6 2 -6 1 -6 2 -7 1 -6 1 -7 0 -7 0 0 0zm0 0c-1,0 -1,0 -1,-1 0,-2 0,-2 1,-2l0 3zm-2779 -3l2779 0 0 3 -2779 0 0 -3zm0 3c-1,0 -1,0 -1,-1 0,-2 0,-2 1,-2l0 3z"/>
  </g>
 </g>
</svg>
