<?xml version="1.0" encoding="UTF-8"?>
<!DOCTYPE svg PUBLIC "-//W3C//DTD SVG 1.1//EN" "http://www.w3.org/Graphics/SVG/1.1/DTD/svg11.dtd">
<!-- Creator: CorelDRAW X8 -->
<svg xmlns="http://www.w3.org/2000/svg" xml:space="preserve" width="40mm" height="60mm" version="1.1" style="shape-rendering:geometricPrecision; text-rendering:geometricPrecision; image-rendering:optimizeQuality; fill-rule:evenodd; clip-rule:evenodd"
viewBox="0 0 4000 6000"
 xmlns:xlink="http://www.w3.org/1999/xlink">
 <defs>
  <style type="text/css">
   <![CDATA[
    .str0 {stroke:#332C2B;stroke-width:10;stroke-linecap:round;stroke-linejoin:round}
    .fil0 {fill:none;fill-rule:nonzero}
   ]]>
  </style>
 </defs>
 <g id="图层_x0020_1">
  <metadata id="CorelCorpID_0Corel-Layer"/>
  <g id="_2965626492608">
   <g>
    <line class="fil0 str0" x1="3132" y1="652" x2="3132" y2= "686" />
    <polyline class="fil0 str0" points="1975,923 1975,934 1979,934 1981,931 "/>
    <path class="fil0 str0" d="M1981 931c3,-4 4,-5 4,-6 1,-1 1,-1 1,-3"/>
    <polyline class="fil0 str0" points="1986,922 1986,921 1994,920 1994,917 1992,915 1992,915 1999,910 1997,908 1996,908 1996,907 1996,907 2001,901 "/>
    <path class="fil0 str0" d="M2001 901c-3,-1 -3,-1 -4,-1"/>
    <polyline class="fil0 str0" points="1997,900 1995,900 1996,900 1997,891 1992,891 1991,884 1990,884 1989,885 1988,885 1987,885 1983,879 1982,879 1981,879 "/>
    <path class="fil0 str0" d="M1981 879c0,1 -1,2 -1,3"/>
    <polyline class="fil0 str0" points="1980,882 1973,878 1973,877 1973,878 1972,879 "/>
    <path class="fil0 str0" d="M1972 879c0,0 0,1 -1,2"/>
    <polyline class="fil0 str0" points="1971,881 1964,879 1964,885 1955,886 1955,888 1956,889 "/>
    <path class="fil0 str0" d="M1956 889c0,1 1,1 1,2"/>
    <polyline class="fil0 str0" points="1957,891 1951,895 1952,895 1952,896 1953,896 1953,897 1955,898 1950,905 1950,905 1950,905 1951,905 "/>
    <path class="fil0 str0" d="M1951 905c1,0 2,1 3,1"/>
    <polyline class="fil0 str0" points="1954,906 1952,914 1957,914 1959,922 1960,922 1961,921 1962,921 1963,920 1964,920 1968,926 1969,925 1969,925 1970,925 1975,930 1977,928 "/>
    <path class="fil0 str0" d="M1977 928c0,-1 0,-2 1,-5"/>
    <polyline class="fil0 str0" points="1978,923 1986,924 1986,921 1994,920 "/>
    <polyline class="fil0 str0" points="1988,652 2000,652 2000,652 2957,651 "/>
    <path class="fil0 str0" d="M2957 651c131,0 131,0 155,19"/>
    <line class="fil0 str0" x1="3112" y1="670" x2="3118" y2= "675" />
    <path class="fil0 str0" d="M3118 675c12,9 14,17 15,59"/>
    <line class="fil0 str0" x1="3133" y1="734" x2="3152" y2= "3019" />
    <path class="fil0 str0" d="M3152 3019c4,484 5,968 3,1453 -1,397 -1,297 -6,695 -3,69 -7,95 -21,141 -2,6 -18,25 -26,30 -10,6 -16,7 -50,9 -480,3 -360,3 -840,3 -731,0 -548,0 -1280,-3 -71,-1 -86,-16 -88,-82"/>
    <line class="fil0 str0" x1="844" y1="5265" x2="848" y2= "3418" />
    <path class="fil0 str0" d="M848 3418c1,-895 3,-1789 4,-2683"/>
    <line class="fil0 str0" x1="852" y1="735" x2="849" y2= "696" />
    <path class="fil0 str0" d="M849 696c0,0 0,-1 0,-2 0,-24 27,-40 74,-42 47,-2 157,-2 329,-2"/>
    <line class="fil0 str0" x1="1252" y1="650" x2="2033" y2= "652" />
    <polyline class="fil0 str0" points="1129,1250 1141,1250 1141,1247 "/>
    <path class="fil0 str0" d="M1141 1247c20,-3 34,-21 34,-43 0,-26 -21,-46 -47,-46 -26,0 -47,20 -47,47 0,27 21,47 48,45 7,0 13,-1 30,-6"/>
    <polyline class="fil0 str0" points="1125,1059 1137,1057 1137,1057 "/>
    <path class="fil0 str0" d="M1137 1057c75,-2 135,-67 135,-144 0,-82 -65,-148 -147,-148 -82,0 -147,66 -147,148 0,79 65,146 143,146 10,0 19,0 46,-4"/>
   </g>
  </g>
 </g>
</svg>
