<?xml version="1.0" encoding="UTF-8"?>
<!DOCTYPE svg PUBLIC "-//W3C//DTD SVG 1.1//EN" "http://www.w3.org/Graphics/SVG/1.1/DTD/svg11.dtd">
<!-- Creator: CorelDRAW -->
<svg xmlns="http://www.w3.org/2000/svg" xml:space="preserve" width="40mm" height="60mm" style="shape-rendering:geometricPrecision; text-rendering:geometricPrecision; image-rendering:optimizeQuality; fill-rule:evenodd; clip-rule:evenodd"
viewBox="0 0 40 60"
 xmlns:xlink="http://www.w3.org/1999/xlink">
 <defs>
  <style type="text/css">
   <![CDATA[
    .str0 {stroke:#1F1A17;stroke-width:0.194}
    .fil0 {fill:none;fill-rule:nonzero}
   ]]>
  </style>
 </defs>
 <g id="图层_x0020_6">
  <metadata id="CorelCorpID_0Corel-Layer"/>
  <path class="fil0 str0" d="M13.5739 9.8478l-0.0054 2.912m-3.2544 -0.338c-0.0097,-2.6109 -0.0043,-3.2955 0.0293,-3.6682 0.0336,-0.3716 0.1007,-0.5222 0.3607,-0.8071 0.3164,-0.3456 0.7367,-0.5222 1.2426,-0.5222 0.7865,0 1.4138,0.4724 1.5871,1.196 0.0358,0.1484 0.0423,0.3532 0.0401,1.2275m-3.2457 6.3765l-0.0141 -3.8025m3.2197 3.9357c-0.1679,0.7302 -0.793,1.1993 -1.5979,1.1993 -0.8353,0 -1.5448,-0.5883 -1.6077,-1.3325m3.21 0.1127l-0.0044 0.0205m0.0358 -1.2816c0,1.1256 0,1.1256 -0.0314,1.2611m0.0303 -3.7614l0.0011 2.5003m-4.0983 -6.7665l0.0119 43.3963m1.5882 -45.1491c-0.7887,0.2231 -1.4094,0.9046 -1.6001,1.7528m1.6499 -1.768l-0.0498 0.0152m1.4138 -0.0563c-1.2264,-0.0011 -1.2264,-0.0011 -1.364,0.0411m17.0701 -0.0368l-15.7061 -0.0043m18.0407 10.1432c0.0087,-2.5556 -0.0032,-5.1101 -0.0325,-7.6657 -0.0379,-0.6966 -0.1094,-0.9435 -0.4138,-1.4516 -0.2286,-0.3792 -0.5005,-0.6219 -0.9371,-0.8353 -0.3304,-0.1614 -0.4561,-0.1863 -0.9512,-0.1863m2.2317 44.5792l0.1029 -34.4403m-2.0529 36.8432c0.5113,-0.0184 1.1234,-0.3608 1.4744,-0.8266 0.3619,-0.4799 0.4735,-0.8472 0.4756,-1.5763m-1.95 2.4029l-16.8947 0.0133c-0.6824,-0.0556 -1.1255,-0.256 -1.5166,-0.6796 -0.2578,-0.2773 -0.5362,-0.8168 -0.5785,-1.1147m10.494 -35.8958c1.0659,0 1.9304,0.875 1.9304,1.9539 0,1.0789 -0.8645,1.9538 -1.9304,1.9538 -1.066,0 -1.9304,-0.8749 -1.9304,-1.9538 0,-1.0789 0.8644,-1.9539 1.9304,-1.9539zm-8.0594 2.3367c0.3596,0 0.6513,0.2846 0.6513,0.6357 0,0.351 -0.2917,0.6357 -0.6513,0.6357 -0.3596,0 -0.6513,-0.2847 -0.6513,-0.6357 0,-0.3511 0.2917,-0.6357 0.6513,-0.6357z"/>
 </g>
</svg>
