<?xml version="1.0" encoding="UTF-8"?>
<!DOCTYPE svg PUBLIC "-//W3C//DTD SVG 1.1//EN" "http://www.w3.org/Graphics/SVG/1.1/DTD/svg11.dtd">
<!-- Creator: CorelDRAW X8 -->
<svg xmlns="http://www.w3.org/2000/svg" xml:space="preserve" width="40mm" height="60mm" version="1.1" style="shape-rendering:geometricPrecision; text-rendering:geometricPrecision; image-rendering:optimizeQuality; fill-rule:evenodd; clip-rule:evenodd"
viewBox="0 0 4000 6000"
 xmlns:xlink="http://www.w3.org/1999/xlink">
 <defs>
  <style type="text/css">
   <![CDATA[
    .str0 {stroke:black;stroke-width:7.62}
    .fil0 {fill:none}
   ]]>
  </style>
 </defs>
 <g id="图层_x0020_1">
  <metadata id="CorelCorpID_0Corel-Layer"/>
  <path class="fil0 str0" d="M1158 676c277,-18 561,-26 842,-26 281,0 560,11 842,26 158,8 287,112 287,286l0 4068c0,158 -130,273 -287,287 -279,24 -560,33 -841,33 -281,0 -562,-14 -843,-33 -158,-11 -287,-129 -287,-287l0 -4068c0,-157 129,-276 287,-286zm1485 80c-1,-4 -5,-9 -13,-9 -31,0 -55,24 -55,55 0,30 24,55 55,55 30,0 55,-25 55,-55 0,-31 -25,-55 -55,-55m-720 45c-5,-19 -15,-34 -63,-34l-41 0c-22,0 -40,17 -40,39l0 0c0,21 18,39 40,39l406 0c21,0 39,-18 39,-39l0 0c0,-22 -18,-39 -39,-39l-365 0m193 4311c-10,-37 -24,-65 -87,-65l-53 0c-73,0 -133,60 -133,134l0 0c0,73 60,133 133,133l214 0c73,0 133,-60 133,-133l0 0c0,-74 -60,-134 -133,-134l-161 0m-309 -4251c-1,-4 -5,-9 -13,-9 -30,0 -55,24 -55,55 0,30 25,54 55,54 30,0 55,-24 55,-54 0,-31 -25,-55 -55,-55m-231 7c0,-4 -4,-9 -13,-9 -30,0 -55,24 -55,55 0,30 25,55 55,55 30,0 55,-25 55,-55 0,-31 -25,-55 -55,-55"/>
 </g>
</svg>
