<?xml version="1.0" encoding="UTF-8"?>
<!DOCTYPE svg PUBLIC "-//W3C//DTD SVG 1.1//EN" "http://www.w3.org/Graphics/SVG/1.1/DTD/svg11.dtd">
<!-- Creator: CorelDRAW X8 -->
<svg xmlns="http://www.w3.org/2000/svg" xml:space="preserve" width="40mm" height="60mm" version="1.1" style="shape-rendering:geometricPrecision; text-rendering:geometricPrecision; image-rendering:optimizeQuality; fill-rule:evenodd; clip-rule:evenodd"
viewBox="0 0 4000 6000"
 xmlns:xlink="http://www.w3.org/1999/xlink">
 <defs>
  <style type="text/css">
   <![CDATA[
    .str0 {stroke:black;stroke-width:7.62}
    .fil0 {fill:none}
   ]]>
  </style>
 </defs>
 <g id="图层_x0020_1">
  <metadata id="CorelCorpID_0Corel-Layer"/>
  <path class="fil0 str0" d="M1015 5350l1833 0c122,0 223,-100 223,-223l0 -4254c0,-123 -101,-223 -223,-223l-1696 0c-122,0 -223,100 -223,223l0 4254c0,123 101,223 223,223l70 0m6 -4562l297 0c90,0 164,73 164,163l0 774c0,90 -74,163 -164,163l-297 0c-90,0 -164,-73 -164,-163l0 -774c0,-90 74,-163 164,-163zm6 35l285 0c74,0 134,61 134,134l0 761c0,74 -60,134 -134,134l-285 0c-73,0 -134,-60 -134,-134l0 -761c0,-73 61,-134 134,-134zm65 77c-1,-10 -10,-20 -28,-21 -66,0 -119,53 -119,119 0,66 53,119 119,119 66,0 119,-53 119,-119 0,-66 -53,-119 -119,-119m246 253c-15,5 -26,10 -26,36l0 22c0,30 25,55 55,55l0 0c30,0 55,-25 55,-55l0 -256c0,-30 -25,-55 -55,-55l0 0c-30,0 -55,25 -55,55l0 234m63 127c0,-3 -2,-5 -7,-6 -16,0 -30,14 -30,30 0,17 14,30 30,30 16,0 30,-13 30,-30 0,-16 -14,-30 -30,-30m-248 -52c-1,-10 -10,-19 -28,-21 -66,0 -119,54 -119,119 0,66 53,119 119,119 66,0 119,-53 119,-119 0,-65 -53,-119 -119,-119m31 360c-1,-10 -10,-20 -28,-21 -66,0 -119,53 -119,119 0,66 53,119 119,119 66,0 119,-53 119,-119 0,-66 -53,-119 -119,-119"/>
 </g>
</svg>
