<?xml version="1.0" encoding="UTF-8"?>
<!DOCTYPE svg PUBLIC "-//W3C//DTD SVG 1.1//EN" "http://www.w3.org/Graphics/SVG/1.1/DTD/svg11.dtd">
<!-- Creator: CorelDRAW X8 -->
<svg xmlns="http://www.w3.org/2000/svg" xml:space="preserve" width="40mm" height="60mm" version="1.1" style="shape-rendering:geometricPrecision; text-rendering:geometricPrecision; image-rendering:optimizeQuality; fill-rule:evenodd; clip-rule:evenodd"
viewBox="0 0 4000 6000"
 xmlns:xlink="http://www.w3.org/1999/xlink">
 <defs>
  <style type="text/css">
   <![CDATA[
    .str0 {stroke:black;stroke-width:20}
    .fil0 {fill:none}
   ]]>
  </style>
 </defs>
 <g id="图层_x0020_1">
  <metadata id="CorelCorpID_0Corel-Layer"/>
  <path class="fil0 str0" d="M931 5350l1946 0c138,0 251,-113 251,-251l0 -4198c0,-138 -113,-251 -251,-251l-1754 0c-138,0 -251,113 -251,251l0 4198c0,138 113,251 251,251l280 0m248 -4589c0,-5 -5,-10 -14,-10 -32,0 -58,26 -58,58 0,32 26,58 58,58 32,0 58,-26 58,-58 0,-32 -26,-58 -58,-58m275 54c-4,-15 -12,-28 -51,-28l-33 0c-17,0 -31,14 -31,32l0 0c0,17 14,31 31,31l360 0c17,0 31,-14 31,-31l0 0c0,-18 -14,-32 -31,-32l-327 0m481 14c-2,-8 -5,-15 -20,-15l-12 0c-18,0 -32,14 -32,32l0 0c0,17 14,31 32,31l49 0c17,0 31,-14 31,-31l0 0c0,-18 -14,-32 -31,-32l-37 0m184 -9c0,-4 -4,-8 -12,-9 -27,0 -50,23 -50,51 0,27 23,50 50,50 28,0 51,-23 51,-50 0,-28 -23,-51 -51,-51"/>
 </g>
</svg>
