<?xml version="1.0" encoding="UTF-8"?>
<!DOCTYPE svg PUBLIC "-//W3C//DTD SVG 1.1//EN" "http://www.w3.org/Graphics/SVG/1.1/DTD/svg11.dtd">
<!-- Creator: CorelDRAW X8 -->
<svg xmlns="http://www.w3.org/2000/svg" xml:space="preserve" width="40mm" height="60mm" version="1.1" style="shape-rendering:geometricPrecision; text-rendering:geometricPrecision; image-rendering:optimizeQuality; fill-rule:evenodd; clip-rule:evenodd"
viewBox="0 0 4000 6000"
 xmlns:xlink="http://www.w3.org/1999/xlink">
 <defs>
  <style type="text/css">
   <![CDATA[
    .str0 {stroke:black;stroke-width:7.62;stroke-linecap:round;stroke-linejoin:round}
    .fil0 {fill:none}
   ]]>
  </style>
 </defs>
 <g id="圖層_x0020_1">
  <metadata id="CorelCorpID_0Corel-Layer"/>
  <g id="_1388459094688">
   <path class="fil0 str0" d="M919 5254l1921 0c143,0 260,-118 260,-261l0 -4082c0,-144 -117,-261 -260,-261l-1680 0c-143,0 -260,117 -260,261l0 1413c0,13 3,23 10,33 10,14 16,31 16,50l0 654c0,19 -6,36 -16,50 -7,10 -10,20 -10,33l0 1849c0,143 117,261 260,261 94,5 170,37 229,96"/>
   <circle class="fil0 str0" cx="2000" cy="1556" r="492"/>
   <circle class="fil0 str0" cx="2000" cy="1556" r="442"/>
   <path class="fil0 str0" d="M1780 1431c0,-9 11,-127 71,-127 60,0 109,49 109,109 0,60 -49,108 -109,108 -60,0 -108,-48 -108,-108 0,-60 48,-109 108,-109"/>
   <path class="fil0 str0" d="M2072 1427c0,-8 11,-123 71,-123 60,0 108,49 108,109 0,60 -48,108 -108,108 -60,0 -109,-48 -109,-108 0,-60 49,-109 109,-109"/>
   <path class="fil0 str0" d="M1776 1717c0,-7 15,-124 75,-124 60,0 109,48 109,108 0,60 -49,109 -109,109 -60,0 -108,-49 -108,-109 0,-60 48,-108 108,-108"/>
   <path class="fil0 str0" d="M2070 1720c0,-3 13,-127 73,-127 60,0 108,48 108,108 0,60 -48,109 -108,109 -60,0 -109,-49 -109,-109 0,-60 49,-108 109,-108"/>
  </g>
  <path class="fil0 str0" d="M-13022 4861l0 -6634c0,-495 -405,-900 -900,-900l-14100 0c-495,0 -900,405 -900,900l0 5800c0,495 405,900 900,900l4883 0c42,0 79,-11 114,-36 48,-33 107,-53 170,-53l2261 0c63,0 122,20 171,53 35,25 71,36 114,36l6387 0c495,0 900,-405 900,-900 18,-323 129,-586 333,-791"/>
  <circle class="fil0 str0" transform="matrix(2.84775E-14 -1.07525 1.07525 2.84775E-14 -25793.9 1126.94)" r="1581"/>
  <circle class="fil0 str0" transform="matrix(2.5546E-14 -0.964561 0.964561 2.5546E-14 -25793.9 1126.94)" r="1581"/>
  <path class="fil0 str0" d="M-26225 1887c-32,0 -437,-39 -437,-246 0,-207 168,-375 375,-375 207,0 375,168 375,375 0,207 -168,375 -375,375 -207,0 -375,-168 -375,-375"/>
  <path class="fil0 str0" d="M-26238 879c-29,0 -424,-37 -424,-244 0,-208 168,-375 375,-375 207,0 375,167 375,375 0,207 -168,375 -375,375 -207,0 -375,-168 -375,-375"/>
  <path class="fil0 str0" d="M-25237 1901c-24,0 -429,-53 -429,-260 0,-207 168,-375 375,-375 208,0 375,168 375,375 0,207 -167,375 -375,375 -207,0 -375,-168 -375,-375"/>
  <path class="fil0 str0" d="M-25227 884c-10,0 -439,-42 -439,-249 0,-208 168,-375 375,-375 208,0 375,167 375,375 0,207 -167,375 -375,375 -207,0 -375,-168 -375,-375"/>
 </g>
</svg>
