<?xml version="1.0" encoding="UTF-8"?>
<!DOCTYPE svg PUBLIC "-//W3C//DTD SVG 1.1//EN" "http://www.w3.org/Graphics/SVG/1.1/DTD/svg11.dtd">
<!-- Creator: CorelDRAW X8 -->
<svg xmlns="http://www.w3.org/2000/svg" xml:space="preserve" width="40mm" height="60mm" version="1.1" style="shape-rendering:geometricPrecision; text-rendering:geometricPrecision; image-rendering:optimizeQuality; fill-rule:evenodd; clip-rule:evenodd"
viewBox="0 0 4000 6000"
 xmlns:xlink="http://www.w3.org/1999/xlink">
 <defs>
  <style type="text/css">
   <![CDATA[
    .str0 {stroke:#332C2B;stroke-width:20}
    .fil0 {fill:none}
   ]]>
  </style>
 </defs>
 <g id="图层_x0020_1">
  <metadata id="CorelCorpID_0Corel-Layer"/>
  <g id="图形1.cdr">
   <path class="fil0 str0" d="M928 859l-4 4310 181 181 1790 0 181 -181 -25 -4352 -184 -167 -212 8 -11 11 -6 76c0,0 -2,21 -42,23 -40,2 -219,4 -219,4 0,0 -14,-4 -14,-44 0,-40 -5,-60 -5,-60l-58 0c0,0 -21,37 -83,37 -63,0 -502,-2 -502,-2 0,0 -29,-2 -38,-17 -8,-14 -255,0 -255,0l-316 0 -178 173z"/>
   <circle class="fil0 str0" cx="1983" cy="859" r="72"/>
  </g>
 </g>
</svg>
