<?xml version="1.0" encoding="UTF-8"?>
<!DOCTYPE svg PUBLIC "-//W3C//DTD SVG 1.1//EN" "http://www.w3.org/Graphics/SVG/1.1/DTD/svg11.dtd">
<!-- Creator: CorelDRAW X8 -->
<svg xmlns="http://www.w3.org/2000/svg" xml:space="preserve" width="40mm" height="60mm" version="1.1" style="shape-rendering:geometricPrecision; text-rendering:geometricPrecision; image-rendering:optimizeQuality; fill-rule:evenodd; clip-rule:evenodd"
viewBox="0 0 4000 6000"
 xmlns:xlink="http://www.w3.org/1999/xlink">
 <defs>
  <style type="text/css">
   <![CDATA[
    .str0 {stroke:black;stroke-width:10}
    .fil0 {fill:none}
   ]]>
  </style>
 </defs>
 <g id="图层_x0020_1">
  <metadata id="CorelCorpID_0Corel-Layer"/>
  <path class="fil0 str0" d="M956 5350l1976 0c100,0 183,-83 183,-184l0 -4332c0,-101 -82,-184 -183,-184l-1863 0c-101,0 -184,83 -184,184l0 4332c0,101 83,184 184,184l28 0m117 -4592c0,-5 -5,-11 -16,-12 -37,0 -67,31 -67,68 0,37 30,67 67,67 38,0 68,-30 68,-67 0,-37 -30,-68 -68,-68m344 12c0,-5 -5,-11 -16,-12 -37,0 -67,31 -67,68 0,37 30,67 67,67 38,0 68,-30 68,-67 0,-37 -30,-68 -68,-68"/>
 </g>
</svg>
