<?xml version="1.0" encoding="UTF-8"?>
<!DOCTYPE svg PUBLIC "-//W3C//DTD SVG 1.1//EN" "http://www.w3.org/Graphics/SVG/1.1/DTD/svg11.dtd">
<!-- Creator: CorelDRAW X8 -->
<svg xmlns="http://www.w3.org/2000/svg" xml:space="preserve" width="40mm" height="60mm" version="1.1" style="shape-rendering:geometricPrecision; text-rendering:geometricPrecision; image-rendering:optimizeQuality; fill-rule:evenodd; clip-rule:evenodd"
viewBox="0 0 4000 6000"
 xmlns:xlink="http://www.w3.org/1999/xlink">
 <defs>
  <style type="text/css">
   <![CDATA[
    .str0 {stroke:#332C2B;stroke-width:19.4}
    .fil0 {fill:none;fill-rule:nonzero}
   ]]>
  </style>
 </defs>
 <g id="图层_x0020_1">
  <metadata id="CorelCorpID_0Corel-Layer"/>
  <path class="fil0 str0" d="M3046 653l0 31m-1890 4656l0 10m0 0c-7,-2 -9,-5 -10,-14 -112,-16 -169,-64 -203,-172 -3,-10 -4,-27 -4,-65 19,-1068 5,-3325 5,-4280 0,-29 46,-97 84,-124 56,-39 80,-44 255,-43m0 0l428 1 0 2 10 1 0 -1 -1 4 9 5 -21 -5m0 0c18,5 20,6 30,11 0,-1 1,-3 1,-4 0,0 0,0 0,0m0 0l0 0 9 2 0 -2 0 0 87 0m0 0c67,0 75,6 79,61 4,47 35,77 78,77 43,0 75,-31 77,-77m0 0l1 -15m0 0c5,-38 20,-47 82,-46m0 0l104 0 0 -2 10 -2 0 -2 -1 -1 0 0 0 0 8 -6 1 0 0 1 9 -4 0 1 0 1 0 1 11 -1 0 1 407 -1m0 0c156,-1 170,1 212,19 64,27 107,76 129,148m0 0l2 6 2 12 2 47 11 2108m0 0c2,445 3,890 2,1335 -2,794 -3,799 -18,836 -42,112 -108,163 -220,166m0 0l-1805 0"/>
 </g>
</svg>
