<?xml version="1.0" encoding="UTF-8"?>
<!DOCTYPE svg PUBLIC "-//W3C//DTD SVG 1.1//EN" "http://www.w3.org/Graphics/SVG/1.1/DTD/svg11.dtd">
<!-- Creator: CorelDRAW X8 -->
<svg xmlns="http://www.w3.org/2000/svg" xml:space="preserve" width="40mm" height="60mm" version="1.1" style="shape-rendering:geometricPrecision; text-rendering:geometricPrecision; image-rendering:optimizeQuality; fill-rule:evenodd; clip-rule:evenodd"
viewBox="0 0 4000 6000"
 xmlns:xlink="http://www.w3.org/1999/xlink">
 <defs>
  <style type="text/css">
   <![CDATA[
    .str0 {stroke:black;stroke-width:7.62}
    .fil0 {fill:none}
   ]]>
  </style>
 </defs>
 <g id="图层_x0020_1">
  <metadata id="CorelCorpID_0Corel-Layer"/>
  <path class="fil0 str0" d="M1034 5350l1800 0c116,0 211,-95 211,-210l0 -4280c0,-115 -95,-210 -211,-210l-1668 0c-116,0 -211,95 -211,210l0 4280c0,115 95,210 211,210l193 0m661 -4614c-1,-6 -5,-11 -16,-12 -36,0 -65,30 -65,65 0,36 29,66 65,66 36,0 66,-30 66,-66 0,-35 -30,-65 -66,-65"/>
 </g>
</svg>
