<?xml version="1.0" encoding="UTF-8"?>
<!DOCTYPE svg PUBLIC "-//W3C//DTD SVG 1.1//EN" "http://www.w3.org/Graphics/SVG/1.1/DTD/svg11.dtd">
<!-- Creator: CorelDRAW X8 -->
<svg xmlns="http://www.w3.org/2000/svg" xml:space="preserve" width="40mm" height="60mm" version="1.1" style="shape-rendering:geometricPrecision; text-rendering:geometricPrecision; image-rendering:optimizeQuality; fill-rule:evenodd; clip-rule:evenodd"
viewBox="0 0 4000 6000"
 xmlns:xlink="http://www.w3.org/1999/xlink">
 <defs>
  <style type="text/css">
   <![CDATA[
    .fil0 {fill:black;fill-rule:nonzero}
   ]]>
  </style>
 </defs>
 <g id="图层_x0020_1">
  <metadata id="CorelCorpID_0Corel-Layer"/>
  <g>
   <path class="fil0" d="M985 828c2,-2 5,-2 6,0 2,2 2,4 0,6l-6 -6zm-63 31l-1 -9 0 0 3 0 3 0 2 0 3 -1 2 0 3 -1 2 0 3 0 2 -1 2 0 2 -1 3 -1 2 0 2 -1 2 0 2 -1 2 -1 2 -1 2 0 2 -1 1 -1 2 -1 2 -1 2 -1 1 -1 2 -1 1 -1 2 -1 1 -1 2 -1 1 -1 1 -1 6 6 -2 1 -1 1 -2 2 -1 1 -2 1 -2 1 -1 1 -2 1 -2 1 -2 1 -2 1 -2 1 -2 1 -2 1 -2 1 -2 1 -2 0 -3 1 -2 1 -2 0 -3 1 -2 1 -2 0 -3 1 -2 0 -3 1 -3 0 -2 0 -3 1 -3 0 -2 0 -3 1 0 0zm0 0c-2,0 -4,-2 -5,-4 0,-2 2,-4 4,-5l1 9zm-5 5l-8 0 0 0 0 0 0 -1 0 -1 0 0 0 -1 0 -1 0 0 1 -1 0 0 0 -1 0 -1 1 0 0 -1 0 0 1 -1 0 0 1 -1 0 0 0 -1 1 0 0 0 1 -1 1 0 0 0 1 -1 0 0 1 0 1 0 0 0 1 -1 1 0 0 0 1 9 -1 0 0 0 0 0 0 0 -1 0 0 0 0 0 0 0 0 0 -1 0 0 0 0 1 0 0 0 0 -1 0 0 0 0 0 0 1 0 0 0 0 0 0 -1 1 0 0 0 0 0 0 0 1 0 0 0 0 0 0 0 1 0 0 0 0 0 0zm0 0c0,3 -2,4 -4,4 -3,0 -4,-1 -4,-4l8 0zm32 4478l-8 0 0 0 0 -30 -1 -52 0 -73 -1 -92 -1 -109 -1 -125 -1 -140 -1 -152 -1 -165 -1 -174 -1 -183 -2 -190 -1 -195 -2 -200 -1 -202 -1 -204 -2 -203 -1 -201 -2 -198 -1 -193 -1 -186 -2 -179 -1 -170 -1 -158 -1 -147 -1 -133 -1 -117 -1 -101 0 -82 -1 -63 0 -42 0 -19 8 0 0 19 0 42 1 63 1 82 0 101 1 117 1 133 1 147 1 158 2 170 1 179 1 186 2 193 1 198 1 201 2 203 1 204 2 202 1 200 2 195 1 190 1 183 1 174 2 165 1 152 1 140 1 125 0 109 1 92 1 73 0 52 0 30 0 0zm0 0c0,2 -2,4 -4,4 -2,0 -4,-2 -4,-4l8 0zm4 4l0 8 0 0 -1 0 -1 0 0 0 -1 0 0 0 -1 -1 -1 0 0 0 -1 0 0 0 -1 -1 0 0 -1 0 0 -1 0 0 -1 -1 0 0 -1 0 0 -1 0 0 -1 -1 0 0 0 -1 0 0 0 -1 -1 0 0 -1 0 -1 0 0 0 -1 0 0 0 -1 8 0 0 0 0 0 0 1 0 0 0 0 0 0 0 0 0 1 0 0 1 0 0 0 0 0 0 0 0 0 0 1 0 0 0 0 0 0 1 0 0 0 0 0 0 0 0 0 0 1 0 0 1 0 0 0 0 0 0 0 0 0 0 0 1 0 0 0zm0 0c2,0 4,2 4,4 0,2 -2,4 -4,4l0 -8zm360 -135l5 7 0 0 -7 5 -8 6 -8 7 -8 6 -8 6 -9 6 -8 6 -9 6 -10 6 -9 6 -10 5 -9 6 -11 6 -10 5 -11 5 -10 5 -12 5 -11 5 -12 4 -12 4 -13 4 -12 4 -14 3 -13 4 -14 2 -14 3 -15 2 -15 1 -15 2 -16 1 -16 0 -16 0 0 -8 16 0 16 -1 15 -1 16 -1 14 -1 15 -2 14 -3 13 -3 13 -3 13 -3 13 -4 12 -3 12 -5 12 -4 11 -4 11 -5 11 -5 10 -5 11 -6 10 -5 9 -6 10 -5 9 -6 9 -6 9 -6 8 -6 9 -6 8 -6 8 -6 8 -6 8 -6 7 -6 0 0zm0 0c2,-1 5,-1 6,1 2,1 1,4 -1,6l-5 -7zm1502 -1523l6 5 0 1 -42 40 -43 42 -45 45 -46 46 -46 48 -48 49 -49 51 -49 52 -50 53 -50 53 -51 54 -52 55 -51 55 -52 55 -51 55 -52 55 -51 55 -51 54 -50 53 -50 53 -50 51 -49 50 -48 49 -47 47 -45 46 -45 44 -44 41 -42 40 -41 37 -39 35 -38 32 -36 29 -5 -7 36 -29 37 -32 40 -34 40 -37 42 -40 44 -41 45 -44 46 -45 47 -48 47 -48 49 -51 50 -51 50 -52 50 -54 51 -54 51 -54 52 -55 51 -55 52 -55 51 -55 52 -55 51 -54 50 -54 50 -53 49 -52 49 -50 48 -50 47 -48 45 -46 45 -44 43 -43 42 -40 0 0zm0 0c2,-2 5,-2 6,0 2,1 2,4 0,6l-6 -6zm289 -144l2 8 -1 0 -8 1 -8 1 -9 2 -8 1 -9 2 -9 2 -9 2 -9 2 -9 3 -9 3 -9 3 -9 3 -10 3 -9 4 -9 3 -9 4 -10 5 -9 4 -9 5 -9 5 -9 5 -9 6 -9 6 -9 6 -9 6 -9 7 -9 7 -8 8 -9 7 -8 8 -9 9 -8 8 -6 -5 8 -9 9 -9 8 -8 9 -8 9 -7 9 -7 9 -7 9 -7 9 -6 9 -6 9 -6 10 -5 9 -5 10 -5 9 -5 9 -4 10 -4 9 -4 10 -4 9 -3 9 -3 10 -3 9 -3 9 -3 9 -2 9 -2 9 -2 9 -2 9 -1 8 -2 9 -1 8 -1 0 0zm0 0c3,-1 5,1 5,3 0,2 -1,4 -4,5l-1 -8zm3 -3l8 -1 0 0 0 0 0 1 0 0 0 1 0 1 0 0 0 1 0 0 -1 0 0 1 0 1 0 0 0 0 -1 1 0 0 0 1 -1 0 0 0 0 1 -1 0 0 0 -1 1 0 0 -1 0 0 1 0 0 -1 0 0 0 -1 0 0 1 -1 0 0 0 -2 -8 0 0 1 -1 0 0 0 0 0 0 0 0 0 0 0 0 1 0 0 0 0 0 0 0 0 0 0 0 0 0 0 0 0 -1 0 0 0 0 0 0 1 0 0 0 0 0 0 0 0 0 0 -1 0 0 0 0 0 0 0 0 0 0 0 0 0 0zm0 0c0,-3 1,-5 3,-5 3,0 5,2 5,4l-8 1zm-252 -2882l8 0 0 0 2 30 3 41 4 52 5 61 5 71 7 79 7 86 7 94 9 99 8 105 10 109 9 114 10 116 10 119 11 120 10 122 11 121 10 121 11 120 10 118 11 115 9 111 10 107 9 102 9 96 9 90 7 83 8 74 6 66 6 57 5 46 4 36 -8 1 -4 -36 -5 -46 -6 -57 -7 -66 -7 -74 -8 -83 -8 -90 -9 -96 -9 -102 -10 -107 -10 -112 -10 -115 -10 -117 -11 -120 -10 -121 -11 -121 -11 -122 -10 -120 -10 -119 -10 -117 -10 -113 -9 -109 -9 -105 -8 -100 -8 -93 -7 -86 -6 -79 -6 -71 -4 -62 -4 -51 -3 -42 -2 -30 0 0zm0 0c0,-2 1,-4 4,-4 2,0 4,1 4,4l-8 0zm-6 -5l-1 -8 0 0 1 0 0 0 1 0 1 0 1 0 0 0 1 0 1 1 0 0 1 0 0 0 1 1 1 0 0 0 1 1 0 0 1 1 0 0 1 1 0 0 1 1 0 0 0 1 1 0 0 1 0 1 0 0 1 1 0 1 0 0 0 1 0 1 -8 0 0 0 0 0 0 -1 0 0 0 0 -1 0 0 -1 0 0 0 0 0 0 0 -1 0 0 -1 0 0 0 0 0 0 -1 0 0 -1 0 0 0 0 0 0 0 -1 0 0 0 0 -1 0 0 -1 0 0 0 0 0 0 0 -1 0 0 0 0 0 0 0zm0 0c-3,0 -5,-1 -5,-4 0,-2 2,-4 4,-4l1 8zm-667 70l-1 -8 0 0 17 -3 18 -2 19 -2 20 -2 21 -3 23 -2 23 -3 24 -3 24 -2 26 -3 25 -3 26 -2 26 -3 26 -3 26 -2 26 -3 25 -3 25 -2 25 -3 24 -2 23 -2 23 -2 21 -3 21 -2 19 -1 18 -2 16 -2 15 -1 13 -1 12 -1 9 -1 8 -1 1 8 -8 1 -9 1 -12 1 -13 1 -15 1 -17 2 -17 2 -20 2 -20 2 -21 2 -23 2 -23 2 -24 3 -25 2 -25 3 -25 2 -26 3 -26 3 -26 2 -26 3 -26 3 -26 2 -25 3 -24 3 -24 2 -23 3 -23 2 -21 3 -20 2 -19 3 -18 2 -17 2 0 0zm0 0c-2,0 -4,-2 -4,-4 0,-2 1,-4 3,-4l1 8zm-1260 135l-1 -9 0 0 33 -1 33 -1 35 -2 36 -2 37 -3 38 -3 39 -3 39 -3 41 -4 41 -4 41 -4 42 -4 43 -5 43 -4 42 -5 43 -5 43 -5 43 -5 43 -6 43 -5 42 -5 42 -6 42 -5 40 -5 41 -5 39 -6 39 -5 37 -5 37 -5 36 -4 34 -5 33 -4 1 8 -33 4 -34 5 -36 5 -36 4 -38 5 -39 6 -39 5 -41 5 -40 5 -42 6 -42 5 -42 5 -43 6 -43 5 -43 5 -43 5 -43 5 -43 5 -42 4 -43 5 -42 4 -41 5 -41 3 -41 4 -40 4 -38 3 -39 3 -37 2 -36 2 -34 2 -34 2 -32 1 0 0zm0 0c-3,0 -5,-2 -5,-4 0,-3 2,-5 4,-5l1 9zm-36 -14l6 -5 1 0 1 1 0 1 1 0 1 1 1 1 1 0 0 1 1 0 1 1 1 0 1 1 1 0 1 1 0 0 1 0 1 1 1 0 1 0 1 1 1 0 1 0 1 0 1 0 1 0 1 0 1 0 1 1 1 0 1 0 1 -1 1 0 1 9 -1 0 -2 0 -1 0 -1 0 -1 0 -2 0 -1 0 -1 -1 -1 0 -2 0 -1 0 -1 0 -1 -1 -1 0 -1 0 -2 -1 -1 0 -1 -1 -1 0 -1 -1 -1 0 -1 -1 -1 -1 -1 0 -1 -1 -1 -1 -1 0 -1 -1 -1 -1 -1 -1 -1 -1 -1 -1zm0 0c-1,-1 -1,-4 0,-6 2,-1 5,-1 6,1l-6 5z"/>
  </g>
 </g>
</svg>
