<?xml version="1.0" encoding="UTF-8"?>
<!DOCTYPE svg PUBLIC "-//W3C//DTD SVG 1.1//EN" "http://www.w3.org/Graphics/SVG/1.1/DTD/svg11.dtd">
<!-- Creator: CorelDRAW X8 -->
<svg xmlns="http://www.w3.org/2000/svg" xml:space="preserve" width="40mm" height="60mm" version="1.1" style="shape-rendering:geometricPrecision; text-rendering:geometricPrecision; image-rendering:optimizeQuality; fill-rule:evenodd; clip-rule:evenodd"
viewBox="0 0 4000 6000"
 xmlns:xlink="http://www.w3.org/1999/xlink">
 <defs>
  <style type="text/css">
   <![CDATA[
    .str0 {stroke:black;stroke-width:10}
    .fil0 {fill:none}
   ]]>
  </style>
 </defs>
 <g id="图层_x0020_1">
  <metadata id="CorelCorpID_0Corel-Layer"/>
  <path class="fil0 str0" d="M1021 5350l1808 0c136,0 246,-111 246,-246l0 -4208c0,-135 -110,-246 -246,-246l-1658 0c-136,0 -246,111 -246,246l0 4208c0,135 110,246 246,246l163 0m714 -3676c-2,-16 -15,-31 -44,-33 -102,0 -184,83 -184,184 0,102 82,185 184,185 102,0 184,-83 184,-185 0,-101 -82,-184 -184,-184m295 -418c-14,3 -24,8 -24,32l0 19c0,27 22,49 49,49l1 0c26,0 49,-22 49,-49l0 -65c0,-27 -22,-49 -49,-49l-1 0c-27,0 -49,22 -49,49l0 46m-367 -110c-51,14 -89,32 -89,120l0 73c0,101 83,184 184,184l0 0c102,0 185,-83 185,-184l0 -288c0,-101 -83,-184 -185,-184l0 0c-101,0 -184,83 -184,184l0 215"/>
 </g>
</svg>
