<?xml version="1.0" encoding="UTF-8"?>
<!DOCTYPE svg PUBLIC "-//W3C//DTD SVG 1.1//EN" "http://www.w3.org/Graphics/SVG/1.1/DTD/svg11.dtd">
<!-- Creator: CorelDRAW X8 -->
<svg xmlns="http://www.w3.org/2000/svg" xml:space="preserve" width="40mm" height="60mm" version="1.1" style="shape-rendering:geometricPrecision; text-rendering:geometricPrecision; image-rendering:optimizeQuality; fill-rule:evenodd; clip-rule:evenodd"
viewBox="0 0 4000 6000"
 xmlns:xlink="http://www.w3.org/1999/xlink">
 <defs>
  <style type="text/css">
   <![CDATA[
    .str0 {stroke:#222222;stroke-width:20}
    .fil0 {fill:none}
   ]]>
  </style>
 </defs>
 <g id="图层_x0020_1">
  <metadata id="CorelCorpID_0Corel-Layer"/>
  <g id="_1816402753600">
   <path class="fil0 str0" d="M920 5273l1918 0c133,0 242,-109 242,-242l0 -4139c0,-133 -109,-242 -242,-242l-1654 0c-133,0 -241,109 -241,242l0 4139c0,133 108,242 241,242 133,0 216,62 216,77"/>
   <path class="fil0 str0" d="M1348 4981c0,-27 -67,-52 -87,-52 -20,0 -37,16 -37,36l0 0c0,20 17,36 37,36l367 0c20,0 36,-16 36,-36l0 0c0,-20 -16,-36 -36,-36l-367 0"/>
   <path class="fil0 str0" d="M1324 1144c-108,0 -254,-128 -254,-223 0,-95 78,-173 172,-173l0 0c95,0 173,78 173,173l0 296c0,95 -78,172 -173,172l0 0c-94,0 -172,-77 -172,-172l0 -296"/>
   <path class="fil0 str0" d="M1184 1515c0,-5 15,-97 61,-97 47,0 84,38 84,84 0,47 -37,84 -84,84 -46,0 -84,-37 -84,-84 0,-46 38,-84 84,-84"/>
   <path class="fil0 str0" d="M2092 1950c-43,0 -251,-44 -251,-142 0,-98 81,-179 179,-179l61 0c99,0 179,81 179,179l0 71c0,99 -80,179 -179,179l-61 0c-98,0 -179,-80 -179,-179l0 -71"/>
  </g>
  <path class="fil0 str0" d="M-4803 6669l0 -6343c0,-440 -360,-800 -800,-800l-13696 0c-440,0 -800,360 -800,800l0 5470c0,440 360,800 800,800l13696 0c440,0 800,-360 800,-800 0,-440 204,-713 254,-713"/>
  <path class="fil0 str0" d="M-5769 5254c-89,0 -174,224 -174,290 0,65 53,119 119,119l0 0c66,0 120,-54 120,-119l0 -1216c0,-66 -54,-120 -120,-120l0 0c-66,0 -119,54 -119,120l0 1216"/>
  <path class="fil0 str0" d="M-18463 5333c0,357 -426,842 -739,842 -314,0 -571,-257 -571,-571l0 0c0,-314 257,-570 571,-570l979 0c313,0 570,256 570,570l0 0c0,314 -257,571 -570,571l-979 0"/>
  <path class="fil0 str0" d="M-17238 5796c-16,0 -319,-48 -319,-202 0,-153 124,-278 278,-278 153,0 277,125 277,278 0,154 -124,278 -277,278 -154,0 -278,-124 -278,-278"/>
  <path class="fil0 str0" d="M-15797 2794c0,142 -145,829 -471,829 -325,0 -591,-266 -591,-591l0 -203c0,-325 266,-592 591,-592l236 0c325,0 592,267 592,592l0 203c0,325 -267,591 -592,591l-236 0"/>
 </g>
</svg>
