<?xml version="1.0" encoding="UTF-8"?>
<!DOCTYPE svg PUBLIC "-//W3C//DTD SVG 1.1//EN" "http://www.w3.org/Graphics/SVG/1.1/DTD/svg11.dtd">
<!-- Creator: CorelDRAW 2020 (64-Bit) -->
<svg xmlns="http://www.w3.org/2000/svg" xml:space="preserve" width="40mm" height="60mm" version="1.1" style="shape-rendering:geometricPrecision; text-rendering:geometricPrecision; image-rendering:optimizeQuality; fill-rule:evenodd; clip-rule:evenodd"
viewBox="0 0 4000 6000"
 xmlns:xlink="http://www.w3.org/1999/xlink"
 xmlns:xodm="http://www.corel.com/coreldraw/odm/2003">
 <defs>
  <style type="text/css">
   <![CDATA[
    .str1 {stroke:#332C2B;stroke-width:20;stroke-miterlimit:22.9256}
    .str2 {stroke:#332C2B;stroke-width:20;stroke-miterlimit:22.9256}
    .str0 {stroke:#E62129;stroke-width:20;stroke-miterlimit:22.9256}
    .fil0 {fill:none}
   ]]>
  </style>
   <clipPath id="id0">
    <rect x="-47442.29" y="-5901.65" width="13676.82" height="17107.62"/>
   </clipPath>
 </defs>
 <g id="图层_x0020_1">
  <metadata id="CorelCorpID_0Corel-Layer"/>
  <g style="clip-path:url(#id0)">
   <image x="-47442.29" y="-5901.65" width="13676.82" height="17107.62" xlink:href="Y56 5G -11i（背膜）_Images\Y56 5G -11i（背膜）_ImgID1.png"/>
  </g>
  <rect class="fil0 str0" x="-46984.3" y="-5542.39" width="7560" height="16405"/>
  <rect class="fil0 str0" x="-46841.6" y="-5415.39" width="7274.6" height="16170.72" rx="900" ry="1111.95"/>
  <path class="fil0 str1" d="M-46009.42 -4032.23c-82.02,-391.59 60.28,-951.16 611.91,-951.16 551.63,0 998.8,447.17 998.8,998.8 0,551.63 -447.17,998.8 -998.8,998.8 -551.63,0 -998.8,-447.17 -998.8,-998.8 0,-551.63 447.17,-998.8 998.8,-998.8"/>
  <path class="fil0 str1" d="M-46009.42 -1838.51c-82.02,-391.59 60.28,-951.16 611.91,-951.16 551.63,0 998.8,447.17 998.8,998.8 0,551.63 -447.17,998.8 -998.8,998.8 -551.63,0 -998.8,-447.17 -998.8,-998.8 0,-551.63 447.17,-998.8 998.8,-998.8"/>
  <path class="fil0 str1" d="M-43885.03 -4349.39c-9.26,-104.51 28.49,-183.89 114.36,-183.89 85.87,0 156.11,70.23 156.11,156.1l0 702.49c0,85.86 -70.24,156.1 -156.1,156.1l-0.01 0c-85.86,0 -156.1,-70.24 -156.1,-156.1l0 -702.49c0,-85.86 70.24,-156.1 156.1,-156.1"/>
  <path class="fil0 str2" d="M-4100.99 6615.6l0 -6035.52c0,-494.98 -405.01,-900 -900,-900l-14370.71 0c-495,0 -900.01,405.01 -900.01,900l0 5474.6c0,495 405.01,900 900.01,900l14370.71 0c495,0 900,-405 900,-900 0,-495 39.36,-740.32 109.47,-917.59"/>
  <path class="fil0 str2" d="M-18888.55 6122.51c-391.59,82.02 -951.16,-60.28 -951.16,-611.91 0,-551.63 447.17,-998.8 998.8,-998.8 551.63,0 998.8,447.17 998.8,998.8 0,551.63 -447.17,998.8 -998.8,998.8 -551.63,0 -998.8,-447.17 -998.8,-998.8"/>
  <path class="fil0 str2" d="M-16694.83 6122.51c-391.59,82.02 -951.16,-60.28 -951.16,-611.91 0,-551.63 447.17,-998.8 998.8,-998.8 551.63,0 998.8,447.17 998.8,998.8 0,551.63 -447.17,998.8 -998.8,998.8 -551.63,0 -998.8,-447.17 -998.8,-998.8"/>
  <path class="fil0 str2" d="M-19205.71 3998.12c-104.51,9.26 -183.89,-28.49 -183.89,-114.36 0,-85.87 70.23,-156.11 156.1,-156.11l702.49 0c85.86,0 156.1,70.24 156.1,156.1l0 0.01c0,85.86 -70.24,156.1 -156.1,156.1l-702.49 0c-85.86,0 -156.1,-70.24 -156.1,-156.1"/>
  <g id="_2346826549952">
   <path class="fil0 str2" d="M1041.22 5324.07l1742.42 0c142.9,0 259.83,-116.93 259.83,-259.83l0 -4148.74c0,-142.91 -116.92,-259.83 -259.83,-259.83l-1580.48 0c-142.91,0 -259.83,116.92 -259.83,259.83l0 4148.74c0,142.9 116.92,259.83 259.83,259.83 142.9,0 213.72,11.36 264.9,31.6"/>
   <path class="fil0 str2" d="M1183.57 1054.98c-23.68,-113.05 17.41,-274.6 176.66,-274.6 159.25,0 288.35,129.1 288.35,288.35 0,159.26 -129.1,288.35 -288.35,288.35 -159.25,0 -288.35,-129.09 -288.35,-288.35 0,-159.25 129.1,-288.35 288.35,-288.35"/>
   <path class="fil0 str2" d="M1183.57 1688.29c-23.68,-113.05 17.41,-274.59 176.66,-274.59 159.25,0 288.35,129.09 288.35,288.35 0,159.25 -129.1,288.35 -288.35,288.35 -159.25,0 -288.35,-129.1 -288.35,-288.35 0,-159.26 129.1,-288.35 288.35,-288.35"/>
   <path class="fil0 str2" d="M1796.87 963.42c-2.67,-30.17 8.23,-53.09 33.02,-53.09 24.79,0 45.07,20.27 45.07,45.06l0 202.81c0,24.79 -20.28,45.06 -45.07,45.06l0 0c-24.79,0 -45.07,-20.27 -45.07,-45.06l0 -202.81c0,-24.78 20.28,-45.06 45.07,-45.06"/>
  </g>
 </g>
</svg>
