<?xml version="1.0" encoding="UTF-8"?>
<!DOCTYPE svg PUBLIC "-//W3C//DTD SVG 1.1//EN" "http://www.w3.org/Graphics/SVG/1.1/DTD/svg11.dtd">
<!-- Creator: CorelDRAW 2020 (64-Bit) -->
<svg xmlns="http://www.w3.org/2000/svg" xml:space="preserve" width="40mm" height="60mm" version="1.1" style="shape-rendering:geometricPrecision; text-rendering:geometricPrecision; image-rendering:optimizeQuality; fill-rule:evenodd; clip-rule:evenodd"
viewBox="0 0 4000 6000"
 xmlns:xlink="http://www.w3.org/1999/xlink"
 xmlns:xodm="http://www.corel.com/coreldraw/odm/2003">
 <defs>
  <style type="text/css">
   <![CDATA[
    .str1 {stroke:#332C2B;stroke-width:20;stroke-miterlimit:22.9256}
    .str0 {stroke:#E62129;stroke-width:20;stroke-miterlimit:22.9256}
    .fil0 {fill:none}
   ]]>
  </style>
   <clipPath id="id0">
    <rect x="-38070.25" y="-1310.57" width="6486.06" height="8292.3"/>
   </clipPath>
 </defs>
 <g id="图层_x0020_1">
  <metadata id="CorelCorpID_0Corel-Layer"/>
  <g style="clip-path:url(#id0)">
   <image x="-38070.25" y="-1310.57" width="6486.06" height="8292.3" xlink:href="‎Wave Lite -11i（手表）_Images\‎Wave Lite -11i（手表）_ImgID1.png"/>
  </g>
  <rect class="fil0 str0" x="-35898.53" y="325.1" width="3870" height="4630"/>
  <rect class="fil0 str0" x="-35801.08" y="462.68" width="3675.1" height="4350.06" rx="600" ry="496.31"/>
  <path class="fil0 str1" d="M-13416.47 6995.37l0 -2789.95c0,-329.99 -270.01,-600 -600,-600l-3150.06 0c-330,0 -600,270 -600,600l0 2475.1c0,330 270,600 600,600l3150.06 0c330,0 600,-270 600,-600 0,-330 50.27,-495.7 96.57,-556.56"/>
  <path class="fil0 str1" d="M-13416.47 2603.28l0 -2789.95c0,-329.99 -270.01,-600 -600,-600l-3150.06 0c-330,0 -600,270 -600,600l0 2475.1c0,330 270,600 600,600l3150.06 0c330,0 600,-270 600,-600 0,-330 50.27,-495.7 96.57,-556.56"/>
  <path class="fil0 str1" d="M-8664.54 6995.37l0 -2789.95c0,-329.99 -270.01,-600 -600,-600l-3150.06 0c-330,0 -600,270 -600,600l0 2475.1c0,330 270,600 600,600l3150.06 0c330,0 600,-270 600,-600 0,-330 50.27,-495.7 96.57,-556.56"/>
  <path class="fil0 str1" d="M-3912.61 6995.37l0 -2789.95c0,-329.99 -270.01,-600 -600,-600l-3150.06 0c-330,0 -600,270 -600,600l0 2475.1c0,330 270,600 600,600l3150.06 0c330,0 600,-270 600,-600 0,-330 50.27,-495.7 96.57,-556.56"/>
  <path class="fil0 str1" d="M-8664.54 2603.28l0 -2789.95c0,-329.99 -270.01,-600 -600,-600l-3150.06 0c-330,0 -600,270 -600,600l0 2475.1c0,330 270,600 600,600l3150.06 0c330,0 600,-270 600,-600 0,-330 50.27,-495.7 96.57,-556.56"/>
  <path class="fil0 str1" d="M-3912.61 2603.28l0 -2789.95c0,-329.99 -270.01,-600 -600,-600l-3150.06 0c-330,0 -600,270 -600,600l0 2475.1c0,330 270,600 600,600l3150.06 0c330,0 600,-270 600,-600 0,-330 50.27,-495.7 96.57,-556.56"/>
  <g id="_2096762431840">
   <path class="fil0 str1" d="M730 2116.09l939.95 0c111.17,0 202.14,-90.97 202.14,-202.14l0 -1061.28c0,-111.18 -90.97,-202.14 -202.14,-202.14l-833.88 0c-111.18,0 -202.14,90.96 -202.14,202.14l0 1061.28c0,111.17 90.96,202.14 202.14,202.14 111.18,0 167.01,16.93 187.51,32.53"/>
   <path class="fil0 str1" d="M2209.72 2116.09l939.95 0c111.17,0 202.14,-90.97 202.14,-202.14l0 -1061.28c0,-111.18 -90.97,-202.14 -202.14,-202.14l-833.88 0c-111.18,0 -202.14,90.96 -202.14,202.14l0 1061.28c0,111.17 90.96,202.14 202.14,202.14 111.18,0 167,16.93 187.51,32.53"/>
   <path class="fil0 str1" d="M730 3717.04l939.95 0c111.17,0 202.14,-90.97 202.14,-202.14l0 -1061.28c0,-111.17 -90.97,-202.14 -202.14,-202.14l-833.88 0c-111.18,0 -202.14,90.97 -202.14,202.14l0 1061.28c0,111.18 90.96,202.14 202.14,202.14 111.18,0 167.01,16.94 187.51,32.54"/>
   <path class="fil0 str1" d="M730 5317.99l939.95 0c111.17,0 202.14,-90.96 202.14,-202.14l0 -1061.27c0,-111.18 -90.97,-202.15 -202.14,-202.15l-833.88 0c-111.18,0 -202.14,90.97 -202.14,202.15l0 1061.27c0,111.18 90.96,202.14 202.14,202.14 111.18,0 167.01,16.94 187.51,32.54"/>
   <path class="fil0 str1" d="M2209.72 3717.04l939.95 0c111.17,0 202.14,-90.97 202.14,-202.14l0 -1061.28c0,-111.17 -90.97,-202.14 -202.14,-202.14l-833.88 0c-111.18,0 -202.14,90.97 -202.14,202.14l0 1061.28c0,111.18 90.96,202.14 202.14,202.14 111.18,0 167,16.94 187.51,32.54"/>
   <path class="fil0 str1" d="M2209.72 5317.99l939.95 0c111.17,0 202.14,-90.96 202.14,-202.14l0 -1061.27c0,-111.18 -90.97,-202.15 -202.14,-202.15l-833.88 0c-111.18,0 -202.14,90.97 -202.14,202.15l0 1061.27c0,111.18 90.96,202.14 202.14,202.14 111.18,0 167,16.94 187.51,32.54"/>
  </g>
 </g>
</svg>
