<?xml version="1.0" encoding="UTF-8"?>
<!DOCTYPE svg PUBLIC "-//W3C//DTD SVG 1.1//EN" "http://www.w3.org/Graphics/SVG/1.1/DTD/svg11.dtd">
<!-- Creator: CorelDRAW 2020 (64-Bit) -->
<svg xmlns="http://www.w3.org/2000/svg" xml:space="preserve" width="40mm" height="60mm" version="1.1" style="shape-rendering:geometricPrecision; text-rendering:geometricPrecision; image-rendering:optimizeQuality; fill-rule:evenodd; clip-rule:evenodd"
viewBox="0 0 4000 6000"
 xmlns:xlink="http://www.w3.org/1999/xlink"
 xmlns:xodm="http://www.corel.com/coreldraw/odm/2003">
 <defs>
  <style type="text/css">
   <![CDATA[
    .str0 {stroke:#332C2B;stroke-width:20;stroke-miterlimit:22.9256}
    .fil0 {fill:none}
   ]]>
  </style>
   <clipPath id="id0">
    <rect x="-41415.94" y="-12805.42" width="23868.56" height="23823.85"/>
   </clipPath>
 </defs>
 <g id="图层_x0020_1">
  <metadata id="CorelCorpID_0Corel-Layer"/>
  <g style="clip-path:url(#id0)">
   <image x="-41415.94" y="-12805.42" width="23868.56" height="23823.86" xlink:href="Galaxy Folder2 -11i（前膜全屏）_Images\Galaxy Folder2 -11i（前膜全屏）_ImgID1.png"/>
  </g>
  <rect class="fil0 str0" x="-32201.39" y="-12396.98" width="6020" height="12200"/>
  <path class="fil0 str0" d="M-31408.8 -12206.39l4434.84 0c330,0 600,270 600,600l0 10725.12c0,55 -45.01,100 -100,100l-5434.85 0c-54.99,0 -99.99,-45 -99.99,-100l0 -10725.12c0,-330 270,-600 600,-600z"/>
  <rect class="fil0 str0" x="-30076.74" y="-11749.19" width="2373.33" height="254.01" rx="300" ry="300"/>
  <circle class="fil0 str0" cx="-27273.34" cy="-11631.85" r="154.78"/>
  <path class="fil0 str0" d="M-2053.09 6058.73l0 -5592.94c0,-54.98 -45.01,-100 -100,-100l-10725.12 0c-330,0 -600,270 -600,600l0 4434.84c0,330 270,600 600,600l10725.12 0c55,0 100,-45 100,-99.99 0,-54.99 7.71,-280.76 90.4,-353.52"/>
  <path class="fil0 str0" d="M-13021.01 3941.57c0,69.85 57.15,127 127,127l0.01 0c69.85,0 127,-57.15 127,-127l0 -2119.33c0,-69.85 -57.15,-127 -127,-127l-0.01 0c-69.85,0 -127,57.15 -127,127l0 2119.33c0,0 2.7,-245.81 93.32,-321.87"/>
  <path class="fil0 str0" d="M-13058.45 1265.17c0,85.48 69.3,154.78 154.78,154.78 85.48,0 154.78,-69.3 154.78,-154.78 0,-85.48 -69.3,-154.78 -154.78,-154.78 -85.48,0 -154.78,69.3 -154.78,154.78 0,85.48 82.46,97.61 114.21,88.35"/>
  <g id="_2461980716128">
   <path class="fil0 str0" d="M1081.21 655.67l1824.38 0c135.75,0 246.83,111.07 246.83,246.82l0 4412.04c0,22.63 -18.52,41.14 -41.14,41.14l-2235.76 0c-22.62,0 -41.14,-18.51 -41.14,-41.14l0 -4412.04c0,-135.75 111.08,-246.82 246.83,-246.82z"/>
   <path class="fil0 str0" d="M1681.43 843.75l871.84 0c28.73,0 52.24,23.51 52.24,52.24l0 0.01c0,28.73 -23.51,52.24 -52.24,52.24l-871.84 0c-28.73,0 -52.24,-23.51 -52.24,-52.24l0 -0.01c0,-28.73 23.51,-52.24 52.24,-52.24z"/>
   <path class="fil0 str0" d="M2782.43 828.35c35.17,0 63.68,28.51 63.68,63.67 0,35.17 -28.51,63.67 -63.68,63.67 -35.16,0 -63.67,-28.5 -63.67,-63.67 0,-35.16 28.51,-63.67 63.67,-63.67z"/>
  </g>
 </g>
</svg>
