<?xml version="1.0" encoding="UTF-8"?>
<!DOCTYPE svg PUBLIC "-//W3C//DTD SVG 1.1//EN" "http://www.w3.org/Graphics/SVG/1.1/DTD/svg11.dtd">
<!-- Creator: CorelDRAW X8 -->
<svg xmlns="http://www.w3.org/2000/svg" xml:space="preserve" width="40mm" height="60mm" version="1.1" style="shape-rendering:geometricPrecision; text-rendering:geometricPrecision; image-rendering:optimizeQuality; fill-rule:evenodd; clip-rule:evenodd"
viewBox="0 0 4000 6000"
 xmlns:xlink="http://www.w3.org/1999/xlink">
 <defs>
  <style type="text/css">
   <![CDATA[
    .str0 {stroke:black;stroke-width:7.62}
    .fil0 {fill:none}
   ]]>
  </style>
 </defs>
 <g id="图层_x0020_1">
  <metadata id="CorelCorpID_0Corel-Layer"/>
  <path class="fil0 str0" d="M1643 1265c-18,5 -31,12 -31,43l0 25c0,36 29,65 65,65l0 0c35,0 64,-29 64,-65l0 -112c0,-35 -29,-65 -64,-65l0 0c-36,0 -65,30 -65,65l0 87m-365 -56c-56,15 -97,35 -97,131l0 79c0,111 91,201 201,201l0 0c110,0 201,-90 201,-201l0 -380c0,-110 -90,-201 -201,-201l0 0c-110,0 -201,91 -201,201l0 301m-49 3946l1730 0c130,0 237,-106 237,-237l0 -3652c0,-4 -1,-7 -4,-10l-27 -29c-3,-2 -4,-6 -4,-9l0 -225c0,-3 1,-7 4,-9l27 -29c3,-3 4,-6 4,-10l0 -232c0,-130 -107,-237 -237,-237l-1662 0c-130,0 -237,107 -237,237l0 4205c0,131 107,237 237,237l34 0c46,0 48,6 90,21"/>
 </g>
</svg>
