<?xml version="1.0" encoding="UTF-8"?>
<!DOCTYPE svg PUBLIC "-//W3C//DTD SVG 1.1//EN" "http://www.w3.org/Graphics/SVG/1.1/DTD/svg11.dtd">
<!-- Creator: CorelDRAW -->
<svg xmlns="http://www.w3.org/2000/svg" xml:space="preserve" width="40mm" height="60mm" style="shape-rendering:geometricPrecision; text-rendering:geometricPrecision; image-rendering:optimizeQuality; fill-rule:evenodd; clip-rule:evenodd"
viewBox="0 0 40 60"
 xmlns:xlink="http://www.w3.org/1999/xlink">
 <defs>
  <style type="text/css">
   <![CDATA[
    .str0 {stroke:#1F1A17;stroke-width:0.194}
    .fil0 {fill:none;fill-rule:nonzero}
   ]]>
  </style>
 </defs>
 <g id="图层_x0020_1">
  <metadata id="CorelCorpID_0Corel-Layer"/>
  <g id="_232454608">
   <path id="_232459648" class="fil0 str0" d="M21.9882 18.575c0.0011,0.0741 0.0011,0.1426 0.0011,0.2047 0,0.6641 -0.0414,0.8655 -0.2362,1.1399 -0.2624,0.3702 -0.6848,0.5803 -1.1639,0.5803"/>
   <line id="_232459768" class="fil0 str0" x1="20.5892" y1="20.4999" x2="19.7716" y2= "20.4585" />
   <path id="_232459720" class="fil0 str0" d="M19.7716 20.4585c-0.1089,-0.0065 -0.172,-0.0087 -0.2242,-0.0087 -0.0741,0 -0.1405,0.0044 -0.2886,0.0174 -0.0152,0.0011 -0.0305,0.0022 -0.0468,0.0022 -0.3778,0 -0.8579,-0.3527 -1.0419,-0.7654 -0.1067,-0.2373 -0.1263,-0.4463 -0.1263,-1.2923 0,-0.9896 0.1459,-1.3446 0.6826,-1.6559 0.2537,-0.147 0.92,-0.2483 1.6473,-0.2483 0.4507,0 0.9863,0.2091 1.2531,0.4878 0.2101,0.2188 0.2689,0.3201 0.3092,0.528 0.0402,0.208 0.0511,0.4638 0.0522,1.3293"/>
   <polyline id="_232460128" class="fil0 str0" points="13.2621,14.7482 13.2698,14.8407 13.2621,14.8331 13.2393,14.8331 13.2545,14.8331 "/>
   <path id="_232459888" class="fil0 str0" d="M13.2545 14.8331c-0.0686,0.3408 -0.2667,0.5106 -0.5977,0.5095 -0.3397,0 -0.6108,-0.2689 -0.6119,-0.6075 0,-0.3375 0.2755,-0.6141 0.6119,-0.6141 0.3375,0 0.6031,0.2668 0.6031,0.6054 0,0.049 -0.0021,0.0708 -0.0206,0.2297"/>
   <polyline id="_232459960" class="fil0 str0" points="11.1402,10.8135 11.1326,10.8984 11.1174,10.8984 11.1402,10.8984 "/>
   <path id="_232459672" class="fil0 str0" d="M11.1402 10.8984c-0.0011,0.0414 -0.0022,0.0926 -0.0022,0.1535 0,1.2303 0.0958,1.582 0.527,1.9467 0.2722,0.2308 0.6325,0.356 1.019,0.356 0.7088,0 1.276,-0.4573 1.4284,-1.1519 0.0447,-0.2025 0.098,-1.5307 0.098,-2.4398 0,-0.662 -0.0087,-0.7414 -0.0969,-0.8459 -0.0185,-0.0218 -0.0217,-0.0305 -0.074,-0.2167 -0.1426,-0.5041 -0.7567,-0.9091 -1.3794,-0.9091 -0.724,0 -1.3359,0.4943 -1.4752,1.1911 -0.0371,0.1872 -0.0414,0.245 -0.0425,0.5934"/>
   <line id="_232459792" class="fil0 str0" x1="11.1424" y1="9.5757" x2="11.1402" y2= "11.0911" />
   <line id="_232459816" class="fil0 str0" x1="19.9284" y1="6.5" x2="19.9284" y2= "6.5925" />
   <path id="_232460008" class="fil0 str0" d="M19.9284 6.5925c0.0359,0 0.0838,-0.0435 0.1001,-0.0925"/>
   <line id="_232459840" class="fil0 str0" x1="20.0285" y1="6.5" x2="28.9082" y2= "6.5229" />
   <path id="_232460032" class="fil0 str0" d="M28.9082 6.5229c1.0963,0.0032 1.9902,0.5487 2.4605,1.5035 0.1687,0.3407 0.2591,0.7033 0.2602,1.0441"/>
   <line id="_232460080" class="fil0 str0" x1="31.6289" y1="9.0705" x2="31.7508" y2= "41.2531" />
   <path id="_232459912" class="fil0 str0" d="M31.7508 41.2531c0.0272,7.179 -0.0021,9.4926 -0.1263,9.8965"/>
   <line id="_232459936" class="fil0 str0" x1="31.6245" y1="51.1496" x2="31.5875" y2= "51.3325" />
   <path id="_232461088" class="fil0 str0" d="M31.5875 51.3325c-0.2058,1.1214 -1.3162,2.1056 -2.4376,2.1589 -4.7708,0.0109 -3.5776,0.0098 -8.3494,0.0055"/>
   <line id="_232460824" class="fil0 str0" x1="20.8005" y1="53.4969" x2="10.6427" y2= "53.486" />
   <path id="_232461016" class="fil0 str0" d="M10.6427 53.486c-1.2488,-0.1328 -2.3517,-1.2586 -2.4028,-2.4518"/>
   <polyline id="_232460992" class="fil0 str0" points="8.2399,51.0342 8.2987,9.3285 8.2573,8.8908 "/>
   <path id="_232460488" class="fil0 str0" d="M8.2573 8.8908c-0.0011,-0.0152 -0.0022,-0.0315 -0.0022,-0.0501 0,-0.639 0.6108,-1.5535 1.3206,-1.9749 0.3386,-0.2003 0.7088,-0.3233 1.0811,-0.356"/>
   <line id="_232460944" class="fil0 str0" x1="10.6568" y1="6.5098" x2="20.2213" y2= "6.5" />
  </g>
 </g>
</svg>
