<?xml version="1.0" encoding="UTF-8"?>
<!DOCTYPE svg PUBLIC "-//W3C//DTD SVG 1.1//EN" "http://www.w3.org/Graphics/SVG/1.1/DTD/svg11.dtd">
<!-- Creator: CorelDRAW X8 -->
<svg xmlns="http://www.w3.org/2000/svg" xml:space="preserve" width="40mm" height="60mm" version="1.1" style="shape-rendering:geometricPrecision; text-rendering:geometricPrecision; image-rendering:optimizeQuality; fill-rule:evenodd; clip-rule:evenodd"
viewBox="0 0 4000 6000"
 xmlns:xlink="http://www.w3.org/1999/xlink">
 <defs>
  <style type="text/css">
   <![CDATA[
    .str0 {stroke:#332C2B;stroke-width:20}
    .fil0 {fill:none}
   ]]>
  </style>
 </defs>
 <g id="图层_x0020_1">
  <metadata id="CorelCorpID_0Corel-Layer"/>
  <path class="fil0 str0" d="M-3654 6562l0 -6654c0,-433 -338,-787 -750,-787l-14119 0c-413,0 -750,354 -750,787l0 5860c0,433 337,787 750,787l3076 0 107 -140 4063 0 120 140 6753 0c412,0 750,-354 750,-787 0,-432 302,-898 493,-898"/>
  <path class="fil0 str0" d="M-18913 5365l0 -860c0,-247 203,-450 450,-450l3784 0c248,0 450,203 450,450l0 860c0,248 -202,450 -450,450l-3784 0c-247,0 -450,-202 -450,-450z"/>
  <path class="fil0 str0" d="M-18692 5270l0 -670c0,-193 158,-351 350,-351l3570 0c193,0 351,158 351,351l0 670c0,193 -158,351 -351,351l-3570 0c-192,0 -350,-158 -350,-351z"/>
  <path class="fil0 str0" d="M-15375 4937c0,-201 163,-363 364,-363 201,0 364,162 364,363 0,201 -163,364 -364,364 -201,0 -364,-163 -364,-364z"/>
  <path class="fil0 str0" d="M-16425 4937c0,-201 163,-363 364,-363 201,0 364,162 364,363 0,201 -163,364 -364,364 -201,0 -364,-163 -364,-364z"/>
  <path class="fil0 str0" d="M-18314 4937c0,-202 165,-366 367,-366 203,0 367,164 367,366 0,203 -164,367 -367,367 -202,0 -367,-164 -367,-367z"/>
  <path class="fil0 str0" d="M-17153 5185l0 -494c0,-117 97,-214 215,-214l0 0c118,0 214,97 214,214l0 494c0,118 -96,215 -214,215l0 0c-118,0 -215,-97 -215,-215z"/>
  <g id="_1489976308512">
   <path class="fil0 str0" d="M915 5206l1941 0c126,0 229,-98 229,-219l0 -4118c0,-121 -103,-219 -229,-219l-1710 0c-126,0 -229,98 -229,219l0 897 41 31 0 1185 -41 36 0 1969c0,121 103,219 229,219 126,0 262,88 262,144"/>
   <path class="fil0 str0" d="M1264 755l251 0c72,0 131,59 131,131l0 1104c0,73 -59,132 -131,132l-251 0c-72,0 -131,-59 -131,-132l0 -1104c0,-72 59,-131 131,-131z"/>
   <path class="fil0 str0" d="M1292 820l195 0c56,0 102,46 102,102l0 1041c0,56 -46,102 -102,102l-195 0c-57,0 -103,-46 -103,-102l0 -1041c0,-56 46,-102 103,-102z"/>
   <path class="fil0 str0" d="M1389 1787c58,0 106,48 106,106 0,59 -48,106 -106,106 -59,0 -106,-47 -106,-106 0,-58 47,-106 106,-106z"/>
   <path class="fil0 str0" d="M1389 1481c58,0 106,48 106,106 0,59 -48,106 -106,106 -59,0 -106,-47 -106,-106 0,-58 47,-106 106,-106z"/>
   <path class="fil0 str0" d="M1389 930c59,0 107,48 107,107 0,59 -48,107 -107,107 -59,0 -107,-48 -107,-107 0,-59 48,-107 107,-107z"/>
   <path class="fil0 str0" d="M1316 1269l144 0c35,0 63,28 63,62l0 0c0,35 -28,63 -63,63l-144 0c-34,0 -62,-28 -62,-63l0 0c0,-34 28,-62 62,-62z"/>
  </g>
 </g>
</svg>
