<?xml version="1.0" encoding="UTF-8"?>
<!DOCTYPE svg PUBLIC "-//W3C//DTD SVG 1.1//EN" "http://www.w3.org/Graphics/SVG/1.1/DTD/svg11.dtd">
<!-- Creator: CorelDRAW X8 -->
<svg xmlns="http://www.w3.org/2000/svg" xml:space="preserve" width="40mm" height="60mm" version="1.1" style="shape-rendering:geometricPrecision; text-rendering:geometricPrecision; image-rendering:optimizeQuality; fill-rule:evenodd; clip-rule:evenodd"
viewBox="0 0 4000 6000"
 xmlns:xlink="http://www.w3.org/1999/xlink">
 <defs>
  <style type="text/css">
   <![CDATA[
    .str0 {stroke:black;stroke-width:7.62;stroke-linejoin:bevel}
    .fil0 {fill:none}
   ]]>
  </style>
 </defs>
 <g id="图层_x0020_1">
  <metadata id="CorelCorpID_0Corel-Layer"/>
  <path class="fil0 str0" d="M999 857l0 4286c0,55 21,108 60,146 39,39 91,61 146,61l1590 0c55,0 107,-22 146,-61 39,-39 60,-91 60,-146l0 -4286c0,-55 -21,-108 -60,-146 -39,-39 -91,-61 -146,-61l-1590 0c-55,0 -107,22 -146,61 -39,39 -60,91 -60,146zm557 -161l-365 0c-39,0 -77,15 -105,43 -27,28 -43,65 -43,104l0 675c0,40 16,77 43,105 28,27 66,43 105,43l365 0c39,0 77,-16 104,-43 28,-28 44,-65 44,-105l0 -675c-1,-39 -16,-77 -44,-104 -28,-28 -65,-43 -104,-43zm644 1305c0,-110 -90,-200 -200,-200 -110,0 -200,90 -200,200 0,110 90,200 200,200 110,0 200,-90 200,-200z"/>
 </g>
</svg>
