<?xml version="1.0" encoding="UTF-8"?>
<!DOCTYPE svg PUBLIC "-//W3C//DTD SVG 1.1//EN" "http://www.w3.org/Graphics/SVG/1.1/DTD/svg11.dtd">
<!-- Creator: CorelDRAW X8 -->
<svg xmlns="http://www.w3.org/2000/svg" xml:space="preserve" width="40mm" height="60mm" version="1.1" style="shape-rendering:geometricPrecision; text-rendering:geometricPrecision; image-rendering:optimizeQuality; fill-rule:evenodd; clip-rule:evenodd"
viewBox="0 0 4000 6000"
 xmlns:xlink="http://www.w3.org/1999/xlink">
 <defs>
  <style type="text/css">
   <![CDATA[
    .str0 {stroke:#332C2B;stroke-width:10}
    .fil0 {fill:none}
   ]]>
  </style>
 </defs>
 <g id="图层_x0020_1">
  <metadata id="CorelCorpID_0Corel-Layer"/>
  <path class="fil0 str0" d="M1311 794c-6,-22 -15,-39 -53,-39l-83 0c-45,0 -82,37 -82,81l0 0c0,45 37,82 82,82l214 0c44,0 81,-37 81,-82l0 0c0,-44 -37,-81 -81,-81l-131 0m-205 4595l1770 0c122,0 222,-100 222,-222l0 -4256c0,-122 -100,-222 -222,-222l-1646 0c-122,0 -222,100 -222,222l0 4256c0,122 100,222 222,222l274 0"/>
 </g>
</svg>
