<?xml version="1.0" encoding="UTF-8"?>
<!DOCTYPE svg PUBLIC "-//W3C//DTD SVG 1.1//EN" "http://www.w3.org/Graphics/SVG/1.1/DTD/svg11.dtd">
<!-- Creator: CorelDRAW 2020 (64-Bit) -->
<svg xmlns="http://www.w3.org/2000/svg" xml:space="preserve" width="40mm" height="60mm" version="1.1" style="shape-rendering:geometricPrecision; text-rendering:geometricPrecision; image-rendering:optimizeQuality; fill-rule:evenodd; clip-rule:evenodd"
viewBox="0 0 4000 6000"
 xmlns:xlink="http://www.w3.org/1999/xlink"
 xmlns:xodm="http://www.corel.com/coreldraw/odm/2003">
 <defs>
  <style type="text/css">
   <![CDATA[
    .str1 {stroke:#332C2B;stroke-width:20;stroke-miterlimit:22.9256}
    .str0 {stroke:#332C2B;stroke-width:20;stroke-miterlimit:22.9256}
    .fil0 {fill:none}
   ]]>
  </style>
 </defs>
 <g id="图层_x0020_1">
  <metadata id="CorelCorpID_0Corel-Layer"/>
  <g id="_2324368030352">
   <g>
    <path class="fil0 str0" d="M660.57 691.29l-40.76 0 0 180.87 136.86 5.79c42.93,5.81 84.17,7.19 130.27,14.94 41.01,6.89 80.63,16.63 122.76,22.44 43.97,6.07 84.55,10.32 134.88,10.32 -4.97,4.32 -55.89,25.12 -87.01,48 -82.63,60.74 -137.16,149.58 -137.16,267.88l0 61.14 -150.3 0 0 3393.17 150.3 0c0,110.14 2.29,172.85 63.69,259.83 4.47,6.34 8.95,12.52 14.64,18.48 19.44,20.34 23.64,28.98 51.93,49.97 27.42,20.34 32.27,22.96 60.64,38.7 5.85,3.24 4.31,2.54 11.87,5.97l11.21 6.62c-52.39,0 -90.74,0.19 -135.02,7.63 -43.17,7.26 -76.84,17.87 -121.5,23.7 -41.05,5.37 -88.09,7.33 -131.77,13.44l-100.82 6.17c-12.49,-0.08 -30.56,-3.96 -30.56,7.65l0 170.68 83.36 5.79c47.25,6.22 110.67,8.47 162.62,15.7 27.94,3.89 53.85,7.3 78.28,10.88 144.52,21.21 201.99,10.93 343.16,10.93 240.63,0 473.96,2.55 713.28,2.55 231.87,0 457.33,-2.55 690.35,-2.55 60.56,0 132.64,1.44 188.88,-4.72l430.71 -47.94 50.38 1.71c10.43,0 6.73,-7.9 6.08,-13.14l-3.53 -157.53c-24.58,0 -41.76,4.53 -64.76,1.07l-196.2 -15.23c-32.99,-5.18 -67.79,-19.51 -113.13,-26.99 -42.46,-7 -82.13,-7.25 -132.85,-7.25l4.92 -2.73c1.35,-0.68 3.6,-1.7 5.18,-2.45 62.42,-29.64 113.44,-69.86 153.32,-126.91 32.15,-46.01 55.66,-116.8 55.66,-176.15l0 -71.33 147.75 0 0 -3388.08c0,-5.87 -1.77,-7.64 -7.64,-7.64l-140.11 0 0 -78.97c0,-95.98 -52.82,-182.96 -119.35,-237.29 -6.26,-5.11 -12.18,-9.15 -18.91,-14.21 -7.38,-5.56 -12.28,-8.21 -20.16,-12.95 -30.74,-18.5 -24.65,-14.23 -53.95,-27.57l-11.8 -6.03c44.48,0 94.3,-7.32 134.88,-12.87 42.42,-5.79 82.86,-14.38 126.38,-21.36 51.59,-8.28 88.46,-9.02 132.5,-15.26 32.11,-4.54 77.11,-5.29 101.14,-8.39 19.58,-2.53 27.21,5.08 29.86,-10.31l0 -168.72c-72.49,0 -125.47,-4.42 -193.58,-7.66 -24.56,-1.17 -55.11,-5.11 -80.79,-8.37 -181.86,-23.1 -252.47,-19.63 -436.36,-19.63 -241.56,0 -479.78,-2.55 -723.46,-2.55 -221.99,0 -436.12,2.55 -657.24,2.55 -121.17,0 -194.7,-9.32 -318,8.06 -95.58,13.47 -203.94,30.15 -301.02,30.15z"/>
    <path class="fil0 str0" d="M1745.77 1534.49l0 145.2c0,90.46 78.06,170.68 168.13,170.68l147.75 0c90.17,0 168.13,-81.91 168.13,-157.94l0 -168.13c0,-58.86 -44.44,-115.94 -95.54,-141.37 -16.76,-8.34 -38.71,-16.57 -62.4,-16.57l-170.68 0c-19.61,0 -48.06,10.93 -61.18,17.78 -51.81,27.05 -94.21,84.76 -94.21,150.35z"/>
    <path class="fil0 str0" d="M1789.08 1542.13l0 132.46c0,68.77 61.96,132.47 132.46,132.47l135.02 0c54.66,0 105.8,-40.13 123.3,-90.67 13.36,-38.56 9.16,-108.61 9.16,-153.88 0,-106.48 -62.12,-155.4 -165.58,-155.4 -76.14,0 -144.67,-8.72 -193.73,40.64 -23.02,23.15 -40.63,59.44 -40.63,94.38z"/>
    <path class="fil0 str0" d="M2301.11 1478.44l0 257.29c0,45.19 41.43,86.62 86.61,86.62 28.01,0 57.94,3.45 83.3,-8.41 8.53,-4 21.05,-12.58 26.92,-18.94 6.39,-6.94 13.35,-17.47 17.2,-26.1 4.47,-10.01 7.59,-23.55 7.59,-38.26l0 -252.2c0,-50.07 -40.17,-91.7 -89.16,-91.7l-43.3 0c-48.97,0 -89.16,41.39 -89.16,91.7z"/>
    <path class="fil0 str0" d="M2155.91 754.97c0,22.36 1.07,38.38 20.25,53.63 10.8,8.58 23.83,15.15 43.43,15.15l476.37 0c57.29,0 87.28,-61.81 47.87,-103.91 -9.79,-10.46 -25.76,-18.36 -45.32,-18.36l-481.47 0c-30.88,0 -61.13,23.77 -61.13,53.49z"/>
    <path class="fil0 str0" d="M1855.31 5182.4c0,46.16 -3.65,38.39 26.11,68.14 9.13,9.14 21.42,26.12 37.58,26.12l147.74 0c21.38,0 28.89,-14.87 40.13,-26.12 28.4,-28.4 26.11,-18.06 26.11,-68.14 0,-19.69 -14.78,-38.21 -33.12,-38.21l-206.34 0c-22.68,0 -38.21,15.53 -38.21,38.21z"/>
    <path class="fil0 str0" d="M3080.62 2005.76l0 264.93c0,55.52 78.97,48.26 78.97,2.55l0 -267.48c0,-11.98 -4.74,-20.75 -10.8,-27.41 -23.83,-26.17 -68.17,-9.41 -68.17,27.41z"/>
    <path class="fil0 str0" d="M828.7 2324.19l0 259.84c0,57.82 78.97,52.09 78.97,7.64l0 -275.12c0,-20.5 -23.07,-35.5 -42.3,-34.05 -21.37,1.61 -36.67,19.92 -36.67,41.69z"/>
    <path class="fil0 str0" d="M3080.62 1559.96l0 264.93c0,12.69 4.22,20.69 10.66,27.55 27.15,28.89 68.31,6.02 68.31,-27.55l0 -262.38c0,-54.76 -78.97,-54.21 -78.97,-2.55z"/>
    <path class="fil0 str0" d="M2418.29 5212.97c0,58.56 56.85,106.86 118.96,78.19 75.5,-34.85 56.54,-162.26 -37.44,-162.26 -19.77,0 -46.86,14.02 -56.73,24.8 -11.85,12.95 -24.79,35.61 -24.79,59.27z"/>
    <path class="fil0 str0" d="M1320.35 5190.04c0,18.61 -0.33,17.41 10.19,33.12 -20.93,14.01 -8.71,49.12 16.15,52.49 8.87,1.21 14.7,-3.52 21.01,-4.62 10.3,-1.78 12.1,8.83 29.07,3.1 23.91,-8.06 11.14,0.55 28.3,1.69 6.95,0.46 16.44,-4.77 20.63,-5.03 5.34,-0.34 13.04,5.87 19.85,5.87 6.94,0 14.62,-6.29 19.89,-5.9 6.48,0.49 9.45,5.93 19.99,4.95 21.8,-2.03 40.98,-21.85 18.71,-55.1 23.64,-35.29 -2.84,-53.49 -22.92,-53.49 -10.17,0 -8.52,3.72 -15.68,4.13 -10.82,0.61 -2.07,-4.13 -22.53,-4.13 -11.21,0 -8.09,4.47 -17.51,4.19 -6.45,-0.19 -9.44,-4.19 -20.71,-4.19 -11.01,0 -10.26,5.09 -17.83,5.09 -8.54,0 -4.66,-5.09 -20.38,-5.09 -11.2,0 -8.09,4.47 -17.5,4.19 -6.46,-0.19 -22.71,-10.91 -39.05,2.94 -2.99,2.54 -9.68,11.33 -9.68,15.79z"/>
    <path class="fil0 str0" d="M1908.81 1605.81c0,102.34 148.64,112.62 159.13,6.25 3.89,-39.55 -31.9,-82.67 -69.98,-82.67l-15.28 0c-39.83,0 -73.87,36.45 -73.87,76.42z"/>
    <path class="fil0 str0" d="M1595.47 752.43c0,14.15 -1.07,20.36 10.28,30.47 21.54,19.19 58.5,10.86 58.5,-30.47 0,-39.25 -68.78,-39.85 -68.78,0z"/>
    <path class="fil0 str0" d="M1613.31 5243.54c0,49.29 66.23,50.8 66.23,0 0,-40.2 -66.23,-38.95 -66.23,0z"/>
   </g>
   <path class="fil0 str1" d="M2386.24 1457.22l52.07 0c16.55,0 30.09,13.54 30.09,30.08l0 47.7c0,16.55 -13.54,30.09 -30.09,30.09l-52.07 0c-16.55,0 -30.09,-13.54 -30.09,-30.09l0 -47.7c0,-16.54 13.54,-30.08 30.09,-30.08z"/>
   <path class="fil0 str1" d="M2387.46 1587.57l49.64 0c17.21,0 31.3,14.09 31.3,31.31l0 108.35c0,17.22 -14.09,31.3 -31.3,31.3l-49.64 0c-17.22,0 -31.31,-14.08 -31.31,-31.3l0 -108.35c0,-17.22 14.09,-31.31 31.31,-31.31z"/>
   <path class="fil0 str1" d="M2216.14 735.19c15.06,0 27.26,12.21 27.26,27.27 0,15.06 -12.2,27.26 -27.26,27.26 -15.06,0 -27.27,-12.2 -27.27,-27.26 0,-15.06 12.21,-27.27 27.27,-27.27z"/>
  </g>
  <g id="_2324368029488">
   <g>
    <path class="fil0 str0" d="M-24321.56 -5267.71l-135.47 0 0 601.13 454.89 19.25c142.67,19.33 279.72,23.91 432.94,49.66 136.33,22.91 268,55.27 408.01,74.59 146.16,20.17 281.04,34.3 448.3,34.3 -16.5,14.34 -185.74,83.49 -289.2,159.54 -274.62,201.86 -455.87,497.13 -455.87,890.33l0 203.2 -499.53 0 0 11277.61 499.53 0c0,366.05 7.63,574.48 211.69,863.58 14.86,21.06 29.74,41.62 48.65,61.42 64.61,67.61 78.58,96.3 172.61,166.06 91.13,67.61 107.27,76.34 201.56,128.64 19.44,10.78 14.3,8.43 39.44,19.83l37.25 22.01c-174.13,0 -301.57,0.63 -448.76,25.37 -143.48,24.11 -255.39,59.39 -403.82,78.78 -136.41,17.82 -292.78,24.36 -437.96,44.65l-335.09 20.5c-41.48,-0.26 -101.57,-13.14 -101.57,25.43l0 567.27 277.06 19.27c157.07,20.66 367.84,28.15 540.49,52.18 92.88,12.92 178.99,24.25 260.17,36.16 480.34,70.48 671.37,36.32 1140.55,36.32 799.77,0 1575.26,8.47 2370.67,8.47 770.66,0 1520,-8.47 2294.47,-8.47 201.29,0 440.86,4.78 627.78,-15.68l1431.49 -159.36 167.46 5.71c34.66,0 22.35,-26.28 20.19,-43.7l-11.72 -523.57c-81.68,0 -138.79,15.07 -215.25,3.58l-652.09 -50.64c-109.65,-17.22 -225.31,-64.83 -375.99,-89.68 -141.13,-23.28 -272.98,-24.12 -441.54,-24.12l16.34 -9.06c4.48,-2.26 11.97,-5.66 17.24,-8.16 207.44,-98.49 377.01,-232.17 509.55,-421.79 106.88,-152.91 185,-388.21 185,-585.46l0 -237.07 491.07 0 0 -11260.68c0,-19.51 -5.89,-25.4 -25.4,-25.4l-465.67 0 0 -262.47c0,-319.01 -175.55,-608.1 -396.67,-788.66 -20.8,-16.98 -40.49,-30.41 -62.84,-47.23 -24.55,-18.48 -40.81,-27.28 -67.02,-43.05 -102.16,-61.47 -81.93,-47.29 -179.29,-91.64l-39.24 -20.02c147.83,0 313.44,-24.35 448.29,-42.77 141.01,-19.27 275.42,-47.8 420.06,-71.01 171.44,-27.52 293.99,-29.98 440.36,-50.7 106.73,-15.11 256.3,-17.58 336.16,-27.91 65.08,-8.41 90.43,16.9 99.26,-34.24l0 -560.77c-240.93,0 -417.02,-14.71 -643.4,-25.47 -81.64,-3.88 -183.18,-16.98 -268.52,-27.82 -604.42,-76.77 -839.1,-65.24 -1450.28,-65.24 -802.88,0 -1594.62,-8.47 -2404.54,-8.47 -737.81,0 -1449.49,8.47 -2184.4,8.47 -402.73,0 -647.11,-30.97 -1056.93,26.8 -317.65,44.77 -677.81,100.2 -1000.47,100.2z"/>
    <path class="fil0 str0" d="M-20714.76 -2465.24l0 482.6c0,300.64 259.43,567.27 558.8,567.27l491.07 0c299.7,0 558.8,-272.22 558.8,-524.94l0 -558.8c0,-195.61 -147.71,-385.32 -317.55,-469.85 -55.69,-27.72 -128.66,-55.08 -207.38,-55.08l-567.27 0c-65.17,0 -159.75,36.33 -203.36,59.1 -172.2,89.9 -313.11,281.7 -313.11,499.7z"/>
    <path class="fil0 str0" d="M-20570.82 -2439.84l0 440.26c0,228.54 205.93,440.27 440.26,440.27l448.74 0c181.69,0 351.65,-133.39 409.83,-301.36 44.39,-128.15 30.43,-360.98 30.43,-511.44 0,-353.89 -206.45,-516.47 -550.33,-516.47 -253.06,0 -480.82,-29.01 -643.89,135.05 -76.49,76.94 -135.04,197.57 -135.04,313.69z"/>
    <path class="fil0 str0" d="M-18869.02 -2651.51l0 855.13c0,150.18 137.69,287.87 287.86,287.87 93.1,0 192.58,11.48 276.86,-27.95 28.36,-13.27 69.98,-41.8 89.46,-62.94 21.25,-23.05 44.37,-58.06 57.19,-86.74 14.86,-33.27 25.23,-78.26 25.23,-127.17l0 -838.2c0,-166.42 -133.51,-304.8 -296.34,-304.8l-143.93 0c-162.75,0 -296.33,137.58 -296.33,304.8z"/>
    <path class="fil0 str0" d="M-19351.62 -5056.05c0,74.29 3.57,127.55 67.32,178.22 35.88,28.52 79.19,50.38 144.34,50.38l1583.27 0c190.43,0 290.08,-205.45 159.11,-345.37 -32.55,-34.77 -85.61,-61.03 -150.64,-61.03l-1600.2 0c-102.64,0 -203.2,79 -203.2,177.8z"/>
    <path class="fil0 str0" d="M-20350.69 9659.04c0,153.42 -12.12,127.58 86.78,226.48 30.36,30.36 71.18,86.79 124.89,86.79l491.06 0c71.04,0 95.99,-49.42 133.35,-86.79 94.41,-94.41 86.79,-60.05 86.79,-226.48 0,-65.45 -49.12,-127 -110.07,-127l-685.8 0c-75.37,0 -127,51.63 -127,127z"/>
    <path class="fil0 str0" d="M-16278.22 -898.91l0 880.54c0,184.53 262.47,160.39 262.47,8.46l0 -889c0,-39.8 -15.76,-68.98 -35.9,-91.1 -79.21,-86.97 -226.57,-31.26 -226.57,91.1z"/>
    <path class="fil0 str0" d="M-23762.76 159.43l0 863.6c0,192.2 262.47,173.15 262.47,25.4l0 -914.4c0,-68.14 -76.67,-117.99 -140.59,-113.17 -71.02,5.37 -121.88,66.21 -121.88,138.57z"/>
    <path class="fil0 str0" d="M-16278.22 -2380.58l0 880.54c0,42.16 14.03,68.76 35.44,91.55 90.22,96.03 227.03,20.02 227.03,-91.55l0 -872.07c0,-181.98 -262.47,-180.17 -262.47,-8.47z"/>
    <path class="fil0 str0" d="M-18479.56 9760.64c0,194.62 188.96,355.17 395.37,259.89 250.95,-115.83 187.92,-539.29 -124.43,-539.29 -65.7,0 -155.75,46.58 -188.53,82.41 -39.39,43.04 -82.41,118.37 -82.41,196.99z"/>
    <path class="fil0 str0" d="M-22128.69 9684.44c0,61.85 -1.09,57.86 33.87,110.07 -69.57,46.58 -28.96,163.26 53.68,174.47 29.46,4 48.84,-11.71 69.82,-15.36 34.23,-5.94 40.22,29.33 96.62,10.31 79.48,-26.8 37.03,1.82 94.07,5.61 23.1,1.53 54.61,-15.86 68.54,-16.73 17.75,-1.12 43.36,19.5 66,19.5 23.06,0 48.58,-20.88 66.1,-19.58 21.54,1.6 31.41,19.7 66.42,16.44 72.48,-6.76 136.21,-72.63 62.21,-183.13 78.55,-117.3 -9.44,-177.8 -76.2,-177.8 -33.78,0 -28.32,12.39 -52.09,13.74 -35.96,2.04 -6.9,-13.74 -74.91,-13.74 -37.23,0 -26.88,14.88 -58.18,13.95 -21.45,-0.64 -31.39,-13.95 -68.82,-13.95 -36.62,0 -34.12,16.93 -59.26,16.93 -28.41,0 -15.5,-16.93 -67.74,-16.93 -37.23,0 -26.89,14.88 -58.18,13.95 -21.45,-0.64 -75.49,-36.27 -129.78,9.76 -9.95,8.43 -32.17,37.66 -32.17,52.49z"/>
    <path class="fil0 str0" d="M-20172.89 -2228.18c0,340.12 494.04,374.29 528.89,20.76 12.96,-131.46 -106.01,-274.76 -232.56,-274.76l-50.8 0c-132.37,0 -245.53,121.15 -245.53,254z"/>
    <path class="fil0 str0" d="M-21214.29 -5064.51c0,47.02 -3.57,67.66 34.17,101.29 71.57,63.77 194.43,36.09 194.43,-101.29 0,-130.46 -228.6,-132.44 -228.6,0z"/>
    <path class="fil0 str0" d="M-21155.02 9862.24c0,163.84 220.13,168.86 220.13,0 0,-133.6 -220.13,-129.45 -220.13,0z"/>
   </g>
   <path class="fil0 str1" d="M-18586.07 -2722.06l173.07 0c55,0 100,45 100,100l0 158.52c0,55 -45,100 -100,100l-173.07 0c-55,0 -100,-45 -100,-100l0 -158.52c0,-55 45,-100 100,-100z"/>
   <path class="fil0 str1" d="M-18582.02 -2288.8l164.97 0c57.23,0 104.05,46.82 104.05,104.05l0 360.1c0,57.23 -46.82,104.05 -104.05,104.05l-164.97 0c-57.23,0 -104.05,-46.82 -104.05,-104.05l0 -360.1c0,-57.23 46.82,-104.05 104.05,-104.05z"/>
   <path class="fil0 str1" d="M-19151.43 -5121.79c50.05,0 90.62,40.57 90.62,90.62 0,50.05 -40.57,90.62 -90.62,90.62 -50.05,0 -90.62,-40.57 -90.62,-90.62 0,-50.05 40.57,-90.62 90.62,-90.62z"/>
  </g>
 </g>
</svg>
