<?xml version="1.0" encoding="UTF-8"?>
<!DOCTYPE svg PUBLIC "-//W3C//DTD SVG 1.1//EN" "http://www.w3.org/Graphics/SVG/1.1/DTD/svg11.dtd">
<!-- Creator: CorelDRAW X8 -->
<svg xmlns="http://www.w3.org/2000/svg" xml:space="preserve" width="40mm" height="60mm" version="1.1" style="shape-rendering:geometricPrecision; text-rendering:geometricPrecision; image-rendering:optimizeQuality; fill-rule:evenodd; clip-rule:evenodd"
viewBox="0 0 4000 6000"
 xmlns:xlink="http://www.w3.org/1999/xlink">
 <defs>
  <style type="text/css">
   <![CDATA[
    .str0 {stroke:black;stroke-width:20}
    .fil0 {fill:none}
   ]]>
  </style>
 </defs>
 <g id="图层_x0020_1">
  <metadata id="CorelCorpID_0Corel-Layer"/>
  <path class="fil0 str0" d="M979 5350l1869 0c133,0 243,-109 243,-242l0 -4216c0,-133 -110,-242 -243,-242l-1696 0c-133,0 -243,109 -243,242l0 4216c0,133 110,242 243,242l41 0m422 -4668c-1,-5 -5,-10 -15,-10 -34,0 -61,27 -61,61 0,34 27,61 61,61 34,0 62,-27 62,-61 0,-34 -28,-61 -62,-61m314 48c-5,-17 -14,-30 -55,-30l-36 0c-18,0 -33,15 -33,33l0 0c0,19 15,34 33,34l354 0c19,0 34,-15 34,-34l0 0c0,-18 -15,-33 -34,-33l-318 0m611 -2c0,-5 -4,-10 -13,-10 -33,0 -59,26 -59,58 0,32 26,58 59,58 32,0 58,-26 58,-58 0,-32 -26,-58 -58,-58m-1090 20c-1,-3 -4,-6 -10,-7 -21,0 -38,18 -38,39 0,21 17,38 38,38 22,0 39,-17 39,-38 0,-21 -17,-39 -39,-39"/>
 </g>
</svg>
