<?xml version="1.0" encoding="UTF-8"?>
<!DOCTYPE svg PUBLIC "-//W3C//DTD SVG 1.1//EN" "http://www.w3.org/Graphics/SVG/1.1/DTD/svg11.dtd">
<!-- Creator: CorelDRAW X8 -->
<svg xmlns="http://www.w3.org/2000/svg" xml:space="preserve" width="40mm" height="60mm" version="1.1" style="shape-rendering:geometricPrecision; text-rendering:geometricPrecision; image-rendering:optimizeQuality; fill-rule:evenodd; clip-rule:evenodd"
viewBox="0 0 4000 6000"
 xmlns:xlink="http://www.w3.org/1999/xlink">
 <defs>
  <style type="text/css">
   <![CDATA[
    .str0 {stroke:black;stroke-width:7.62}
    .fil0 {fill:none}
   ]]>
  </style>
 </defs>
 <g id="图层_x0020_1">
  <metadata id="CorelCorpID_0Corel-Layer"/>
  <path class="fil0 str0" d="M1541 1161c-1,-6 -5,-11 -15,-12 -36,0 -65,29 -65,65 0,35 29,64 65,64 35,0 64,-29 64,-64 0,-36 -29,-65 -64,-65m-160 -268c-2,-14 -14,-27 -39,-29 -91,0 -165,74 -165,165 0,91 74,164 165,164 91,0 164,-73 164,-164 0,-91 -73,-165 -164,-165m430 29c-1,-14 -14,-27 -39,-29 -91,0 -165,74 -165,165 0,91 74,164 165,164 91,0 164,-73 164,-164 0,-91 -73,-165 -164,-165m39 419c-1,-14 -14,-27 -39,-29 -91,0 -165,74 -165,165 0,91 74,165 165,165 91,0 164,-74 164,-165 0,-91 -73,-165 -164,-165m-353 29c-2,-14 -14,-27 -39,-29 -91,0 -165,74 -165,165 0,91 74,165 165,165 91,0 164,-74 164,-165 0,-91 -73,-165 -164,-165m-28 -445l446 0c107,0 194,88 194,195l0 438c0,107 -87,195 -194,195l-446 0c-107,0 -194,-88 -194,-195l0 -438c0,-107 87,-195 194,-195zm-13 -44l473 0c123,0 223,100 223,223l0 471c0,122 -100,222 -223,222l-473 0c-123,0 -223,-100 -223,-222l0 -471c0,-123 100,-223 223,-223zm-274 4597l1838 0c109,0 199,-89 199,-199l0 -4302c0,-110 -90,-199 -199,-199l-1698 0c-109,0 -199,89 -199,199l0 4302c0,110 90,199 199,199l58 0"/>
 </g>
</svg>
