<?xml version="1.0" encoding="UTF-8"?>
<!DOCTYPE svg PUBLIC "-//W3C//DTD SVG 1.1//EN" "http://www.w3.org/Graphics/SVG/1.1/DTD/svg11.dtd">
<!-- Creator: CorelDRAW -->
<svg xmlns="http://www.w3.org/2000/svg" xml:space="preserve" width="40mm" height="60mm" style="shape-rendering:geometricPrecision; text-rendering:geometricPrecision; image-rendering:optimizeQuality; fill-rule:evenodd; clip-rule:evenodd"
viewBox="0 0 40 60"
 xmlns:xlink="http://www.w3.org/1999/xlink">
 <defs>
  <style type="text/css">
   <![CDATA[
    .str0 {stroke:#1F1A17;stroke-width:0.194}
    .str1 {stroke:#1F1A17;stroke-width:0.2}
    .fil0 {fill:none}
   ]]>
  </style>
 </defs>
 <g id="图层_x0020_14">
  <metadata id="CorelCorpID_0Corel-Layer"/>
  <path class="fil0 str0" d="M8.472 23.1872l0.0997 0c0.191,0 0.3472,0.1562 0.3472,0.3472l0 2.5058c0,0.191 -0.1562,0.3472 -0.3472,0.3472l-0.0997 0c-0.1911,0 -0.3473,-0.1562 -0.3473,-0.3472l0 -2.5058c0,-0.191 0.1562,-0.3472 0.3473,-0.3472z"/>
  <path class="fil0 str0" d="M32.4724 19.8261l0 0c0.2433,0 0.442,0.3038 0.442,0.6752l0 4.7955c0,0.3714 -0.1987,0.6752 -0.442,0.6752l0 0c-0.2431,0 -0.4418,-0.3038 -0.4418,-0.6752l0 -4.7955c0,-0.3714 0.1987,-0.6752 0.4418,-0.6752z"/>
  <line class="fil0 str0" x1="32.345" y1="10.9201" x2="31.285" y2= "10.9127" />
  <line class="fil0 str0" x1="31.3827" y1="10.814" x2="31.3837" y2= "10.2208" />
  <path class="fil0 str0" d="M31.3837 10.2208c0.001,-0.6855 -0.0042,-0.7342 -0.104,-1.0442 -0.2091,-0.6504 -0.6271,-1.1109 -1.2691,-1.3985 -0.3364,-0.1507 -0.4585,-0.1719 -1.0091,-0.1772 -7.4745,-0.0711 -5.6059,-0.0573 -13.0802,-0.1008 -2.8205,-0.016 -3.7723,0.0085 -4.0663,0.1051l-0.1231 0.0254 -0.0498 0.0095"/>
  <path class="fil0 str0" d="M11.6821 7.6401c-1.0378,0.19 -1.7891,1.1249 -1.8071,2.2486"/>
  <line class="fil0 str0" x1="9.875" y1="9.8887" x2="9.8771" y2= "11.0177" />
  <path class="fil0 str0" d="M9.7795 10.9201c-0.2006,0 -0.3767,0 -0.5306,0"/>
  <line class="fil0 str0" x1="9.2489" y1="10.9201" x2="7.6339" y2= "10.9275" />
  <path class="fil0 str0" d="M7.6339 10.9275c-0.121,0.0064 -0.1475,0.0191 -0.1762,0.0881 -0.0328,0.0764 -0.036,0.0966 -0.0445,0.3544"/>
  <line class="fil0 str0" x1="7.4132" y1="11.37" x2="7.1839" y2= "43.685" />
  <path class="fil0 str0" d="M9.9747 52.7851c-0.0976,-0.3004 -0.0976,-0.6205 -0.101,-1.6962l-1.5193 -0.0133c-0.8415,0 -0.8139,0.0011 -0.8564,-0.0372l-0.1294 -0.1995c-0.1592,-0.3437 -0.2165,-2.572 -0.1847,-7.1539"/>
  <line class="fil0 str0" x1="9.9747" y1="52.7851" x2="9.9832" y2= "52.8105" />
  <path class="fil0 str0" d="M9.9832 52.8105c0.2165,0.6622 0.6229,1.1089 1.2723,1.4007 0.3407,0.1528 0.4393,0.1697 1.0028,0.1751"/>
  <line class="fil0 str0" x1="12.2583" y1="54.3863" x2="25.8329" y2= "54.4892" />
  <path class="fil0 str0" d="M25.8329 54.4892c2.4778,0.019 3.2885,-0.0031 3.5665,-0.0997"/>
  <path class="fil0 str0" d="M29.3994 54.3895l0.1623 -0.034 0.0213 -0.0042m-0.1836 0.0382z"/>
  <path class="fil0 str0" d="M29.583 54.3513c0.9667,-0.1741 1.7614,-1.0983 1.7997,-2.0925"/>
  <line class="fil0 str0" x1="31.3827" y1="52.2588" x2="31.3827" y2= "50.9694" />
  <line class="fil0 str0" x1="31.4888" y1="51.0746" x2="32.9351" y2= "51.0788" />
  <path class="fil0 str0" d="M32.9351 51.0788c0.6006,0.0021 0.7289,-0.0042 0.7936,-0.0382 0.0648,-0.0329 0.0776,-0.1008 0.0818,-0.4181"/>
  <line class="fil0 str0" x1="33.8105" y1="50.6225" x2="34.0302" y2= "31.0036" />
  <path class="fil0 str0" d="M34.0302 31.0036c0.0477,-4.2264 0.0679,-8.4528 0.0625,-12.6791 -0.0063,-4.6041 -0.0775,-6.8346 -0.2292,-7.1774l-0.0636 -0.1262c-0.0329,-0.0467 -0.0743,-0.0711 -0.1455,-0.0849 -0.0848,-0.017 -0.1749,-0.0191 -0.5655,-0.0181"/>
  <line class="fil0 str0" x1="33.0889" y1="10.9179" x2="32.2252" y2= "10.9201" />
 </g>
 <g id="图层_x0020_15">
  <metadata id="CorelCorpID_1Corel-Layer"/>
  <rect class="fil0 str1" x="31.9463" y="27.6204" width="1.0314" height="10.3124" rx="0.2954" ry="0.2954"/>
  <rect class="fil0 str1" x="11.4667" y="9.0991" width="3.429" height="6.3754" rx="1.3716" ry="1.3716"/>
  <rect class="fil0 str1" x="11.9673" y="15.9032" width="2.1137" height="1.1112" rx="0.5556" ry="0.5556"/>
  <rect class="fil0 str1" x="19.7402" y="15.1706" width="3.8819" height="2.5162" rx="1.2333" ry="1.2333"/>
 </g>
</svg>
