<?xml version="1.0" encoding="UTF-8"?>
<!DOCTYPE svg PUBLIC "-//W3C//DTD SVG 1.1//EN" "http://www.w3.org/Graphics/SVG/1.1/DTD/svg11.dtd">
<!-- Creator: CorelDRAW X8 -->
<svg xmlns="http://www.w3.org/2000/svg" xml:space="preserve" width="40mm" height="60mm" version="1.1" style="shape-rendering:geometricPrecision; text-rendering:geometricPrecision; image-rendering:optimizeQuality; fill-rule:evenodd; clip-rule:evenodd"
viewBox="0 0 4000 6000"
 xmlns:xlink="http://www.w3.org/1999/xlink">
 <defs>
  <style type="text/css">
   <![CDATA[
    .str0 {stroke:#332C2B;stroke-width:10}
    .fil0 {fill:none;fill-rule:nonzero}
   ]]>
  </style>
 </defs>
 <g id="图层_x0020_1">
  <metadata id="CorelCorpID_0Corel-Layer"/>
  <g id="_2575164414336">
   <g>
    <line class="fil0 str0" x1="3241" y1="655" x2="3241" y2= "689" />
    <path class="fil0 str0" d="M1233 5234c0,7 0,14 0,21 0,33 3,63 10,91"/>
    <polyline class="fil0 str0" points="1243,5346 1247,5344 1248,5343 1249,5342 1249,5340 1250,5341 2333,5349 "/>
    <path class="fil0 str0" d="M2333 5349c308,3 414,-2 440,-18"/>
    <polyline class="fil0 str0" points="2773,5331 2771,5327 2769,5326 2769,5325 2767,5325 2772,5119 2771,5119 2772,5119 2774,5119 2776,5120 2782,5110 2781,5110 2783,5111 2784,5111 2785,5113 2795,5106 2795,5107 2796,5108 2796,5109 2797,5110 "/>
    <path class="fil0 str0" d="M2797 5110c124,-23 200,-94 229,-214 2,-9 4,-17 6,-25"/>
    <polyline class="fil0 str0" points="3032,4871 3031,4871 3036,4872 3037,4874 3039,4872 3041,4875 "/>
    <path class="fil0 str0" d="M3041 4875c1,2 1,4 1,6 0,1 0,3 -1,5"/>
    <polyline class="fil0 str0" points="3041,4886 3039,4889 3040,4890 3040,4892 3032,4894 3032,5233 "/>
    <path class="fil0 str0" d="M3032 5233c8,-1 11,-3 12,-11"/>
    <line class="fil0 str0" x1="3044" y1="5222" x2="3252" y2= "5222" />
    <path class="fil0 str0" d="M3252 5222c0,-8 -3,-11 -11,-12"/>
    <line class="fil0 str0" x1="3241" y1="5210" x2="3241" y2= "755" />
    <path class="fil0 str0" d="M3241 755c-6,0 -10,4 -11,12"/>
    <line class="fil0 str0" x1="3230" y1="767" x2="3021" y2= "767" />
    <path class="fil0 str0" d="M3021 767c1,7 4,10 11,11"/>
    <line class="fil0 str0" x1="3032" y1="778" x2="3032" y2= "1118" />
    <path class="fil0 str0" d="M3032 1118c-4,-1 -6,-2 -8,-4"/>
    <line class="fil0 str0" x1="3024" y1="1114" x2="3023" y2= "1116" />
    <path class="fil0 str0" d="M3023 1116c-2,-3 -3,-5 -3,-8 0,-3 1,-6 3,-8"/>
    <polyline class="fil0 str0" points="3023,1100 3021,1098 3024,1095 3024,1095 3025,1095 3026,1095 "/>
    <path class="fil0 str0" d="M3026 1095c-25,-115 -95,-183 -219,-214"/>
    <polyline class="fil0 str0" points="2807,881 2774,871 2774,870 2774,869 2775,868 2775,868 2766,861 2768,859 2769,859 2769,858 2769,857 2763,847 2764,847 2765,846 2768,846 2767,846 2769,729 "/>
    <path class="fil0 str0" d="M2769 729c0,-44 -2,-61 -12,-79 -2,1 -4,2 -6,5"/>
    <line class="fil0 str0" x1="2751" y1="655" x2="1228" y2= "664" />
    <path class="fil0 str0" d="M1228 664c1,3 2,4 6,6 -5,93 -6,107 -6,142"/>
    <line class="fil0 str0" x1="1228" y1="812" x2="1229" y2= "869" />
    <path class="fil0 str0" d="M1229 869c-2,0 -3,-1 -4,-1"/>
    <polyline class="fil0 str0" points="1225,868 1219,879 1217,877 1217,876 1216,875 1215,875 1206,882 1206,881 1205,880 1205,879 1204,879 1203,879 "/>
    <path class="fil0 str0" d="M1203 879c-81,13 -149,56 -191,121 -22,34 -30,55 -43,118"/>
    <polyline class="fil0 str0" points="969,1118 965,1115 964,1115 964,1114 962,1116 "/>
    <path class="fil0 str0" d="M962 1116c-2,-5 -3,-8 -3,-9 0,-2 1,-4 3,-7"/>
    <polyline class="fil0 str0" points="962,1100 960,1098 968,1095 "/>
    <path class="fil0 str0" d="M968 1095c0,0 0,0 0,0"/>
    <line class="fil0 str0" x1="968" y1="1095" x2="968" y2= "755" />
    <path class="fil0 str0" d="M968 755c-6,0 -10,4 -11,12"/>
    <line class="fil0 str0" x1="957" y1="767" x2="748" y2= "767" />
    <path class="fil0 str0" d="M748 767c0,7 5,11 11,11"/>
    <line class="fil0 str0" x1="759" y1="778" x2="759" y2= "5233" />
    <path class="fil0 str0" d="M759 5233c7,-1 11,-3 12,-11"/>
    <line class="fil0 str0" x1="771" y1="5222" x2="980" y2= "5222" />
    <path class="fil0 str0" d="M980 5222c0,-8 -4,-12 -12,-12"/>
    <polyline class="fil0 str0" points="968,5210 968,4871 974,4872 976,4872 976,4874 978,4872 981,4875 "/>
    <path class="fil0 str0" d="M981 4875c0,2 0,4 0,6 0,1 0,3 0,5"/>
    <polyline class="fil0 str0" points="981,4886 978,4889 980,4890 977,4893 975,4894 "/>
    <path class="fil0 str0" d="M975 4894c19,111 95,185 220,214"/>
    <polyline class="fil0 str0" points="1195,5108 1227,5117 1227,5115 1227,5117 1226,5121 1235,5127 1234,5128 1233,5128 "/>
    <path class="fil0 str0" d="M1233 5128c0,1 -1,2 -2,3"/>
    <polyline class="fil0 str0" points="1231,5131 1237,5141 1237,5141 1236,5142 1233,5142 1233,5279 "/>
    <polyline class="fil0 str0" points="3171,1919 3171,1930 3179,1929 3183,1923 3183,1915 3179,1909 3171,1907 "/>
    <path class="fil0 str0" d="M3171 1907c1,-22 1,-44 1,-67 0,-36 -2,-49 -8,-58 -7,-9 -17,-13 -46,-18"/>
    <polyline class="fil0 str0" points="3118,1764 3118,1766 3118,1765 3114,1766 3114,1768 "/>
    <path class="fil0 str0" d="M3114 1768c-25,8 -31,21 -30,71"/>
    <polyline class="fil0 str0" points="3084,1839 3084,1878 3087,2012 3087,2035 "/>
    <path class="fil0 str0" d="M3087 2035c0,0 0,0 0,0 0,24 7,30 50,39"/>
    <polyline class="fil0 str0" points="3137,2074 3137,2071 3141,2072 3141,2070 "/>
    <path class="fil0 str0" d="M3141 2070c22,-6 29,-20 29,-59 0,-3 0,-5 0,-8 -1,-27 -1,-54 -2,-81 0,-13 0,-21 3,-49"/>
    <polyline class="fil0 str0" points="3083,2308 3083,2296 3091,2298 3095,2303 3095,2311 3091,2317 3083,2319 "/>
    <path class="fil0 str0" d="M3083 2319c0,38 0,28 -1,66 0,37 2,51 9,60 7,9 17,13 46,17"/>
    <polyline class="fil0 str0" points="3137,2462 3137,2460 3141,2461 3141,2458 "/>
    <path class="fil0 str0" d="M3141 2458c23,-5 30,-20 30,-65"/>
    <line class="fil0 str0" x1="3171" y1="2393" x2="3167" y2= "2250" />
    <path class="fil0 str0" d="M3167 2250c0,-15 0,-23 0,-29 0,-8 0,-15 0,-29 0,-1 0,-1 0,-2 0,-21 -7,-26 -49,-38"/>
    <polyline class="fil0 str0" points="3118,2152 3118,2155 3118,2154 3114,2155 3114,2156 "/>
    <path class="fil0 str0" d="M3114 2156c-24,8 -30,21 -30,62 0,2 0,5 0,8 1,27 1,54 2,81 0,12 0,20 -3,46"/>
    <polyline class="fil0 str0" points="2502,5259 2502,5270 2506,5270 "/>
    <path class="fil0 str0" d="M2506 5270c5,-3 7,-7 7,-13"/>
    <line class="fil0 str0" x1="2513" y1="5257" x2="2516" y2= "5257" />
    <path class="fil0 str0" d="M2516 5257c16,-11 23,-22 23,-35 0,-20 -17,-37 -37,-37 -21,0 -37,17 -37,37 0,21 15,37 36,37 6,0 11,-1 27,-5"/>
    <polyline class="fil0 str0" points="2641,5300 2653,5298 2653,5298 "/>
    <path class="fil0 str0" d="M2653 5298c36,-2 66,-37 66,-77 0,-45 -35,-80 -80,-80 -45,0 -80,36 -80,80 0,45 37,82 81,79 7,0 12,-1 29,-3"/>
    <polyline class="fil0 str0" points="1453,5171 1464,5169 1464,5171 "/>
    <path class="fil0 str0" d="M1464 5171c51,-1 38,-1 89,-1 65,0 79,9 79,50 0,23 -9,38 -26,43 -15,5 -40,5 -151,6 -88,0 -116,-1 -136,-3 -19,-1 -27,-4 -34,-13 -7,-6 -11,-19 -11,-34 0,-32 14,-46 48,-48"/>
    <line class="fil0 str0" x1="1322" y1="5171" x2="1498" y2= "5171" />
    <line class="fil0 str0" x1="3171" y1="1562" x2="3183" y2= "1562" />
    <path class="fil0 str0" d="M3183 1562c0,-7 -3,-10 -11,-12"/>
    <polyline class="fil0 str0" points="3172,1550 3171,1472 3170,1472 3168,1462 3165,1462 3164,1464 3158,1454 3157,1455 3156,1455 3156,1456 "/>
    <path class="fil0 str0" d="M3156 1456c-1,0 -1,0 -1,1"/>
    <polyline class="fil0 str0" points="3155,1457 3154,1458 3145,1452 3145,1451 3145,1452 3144,1453 "/>
    <path class="fil0 str0" d="M3144 1453c0,0 0,1 -1,3"/>
    <polyline class="fil0 str0" points="3143,1456 3133,1454 3133,1453 3133,1457 3099,1457 3099,1458 3089,1460 3089,1463 3091,1464 3081,1470 3082,1471 3082,1472 "/>
    <path class="fil0 str0" d="M3082 1472c1,1 1,1 3,2"/>
    <polyline class="fil0 str0" points="3085,1474 3079,1483 3078,1483 3079,1483 3080,1484 3080,1484 "/>
    <path class="fil0 str0" d="M3080 1484c1,0 1,0 2,1"/>
    <polyline class="fil0 str0" points="3082,1485 3083,1485 3081,1495 3080,1495 3083,1495 3083,1651 3086,1651 3087,1662 3090,1662 3091,1661 3092,1661 3092,1660 3097,1669 3099,1668 3100,1668 3101,1667 3101,1666 3110,1672 "/>
    <path class="fil0 str0" d="M3110 1672c1,-2 1,-2 2,-3"/>
    <polyline class="fil0 str0" points="3112,1669 3112,1667 3112,1668 3122,1669 3122,1667 3122,1668 3156,1667 3156,1665 3166,1663 3166,1661 3165,1660 3165,1659 3165,1659 3174,1653 3172,1651 3172,1651 3171,1650 3171,1650 3177,1640 "/>
    <path class="fil0 str0" d="M3177 1640c-2,0 -2,-1 -3,-1"/>
    <polyline class="fil0 str0" points="3174,1639 3171,1639 3172,1639 3174,1629 3160,1640 3172,1629 3171,1516 "/>
    <polyline class="fil0 str0" points="839,2976 840,2964 846,2966 851,2972 851,2979 846,2985 839,2987 "/>
    <path class="fil0 str0" d="M839 2987c-1,55 -1,110 -1,164 -1,47 2,68 8,81 6,13 16,18 39,18"/>
    <line class="fil0 str0" x1="885" y1="3250" x2="889" y2= "3250" />
    <path class="fil0 str0" d="M889 3250c14,0 19,-1 24,-5 6,-4 10,-14 12,-31 5,-30 6,-69 6,-251"/>
    <line class="fil0 str0" x1="931" y1="2963" x2="931" y2= "2937" />
    <path class="fil0 str0" d="M931 2937c0,-134 -2,-180 -6,-203 -5,-24 -15,-31 -42,-31 -41,0 -45,12 -45,125 0,56 0,129 2,193"/>
    <polyline class="fil0 str0" points="2000,5266 2001,5277 2005,5277 "/>
    <path class="fil0 str0" d="M2005 5277c3,-3 4,-4 7,-7"/>
    <line class="fil0 str0" x1="2012" y1="5270" x2="2012" y2= "5266" />
    <path class="fil0 str0" d="M2012 5266c19,0 39,0 58,1 36,0 50,-2 59,-9 9,-7 13,-18 18,-48"/>
    <polyline class="fil0 str0" points="2147,5210 2144,5210 2144,5203 2143,5203 "/>
    <path class="fil0 str0" d="M2143 5203c-7,-22 -23,-31 -50,-31 -5,0 -202,3 -204,3 -20,1 -26,10 -35,51"/>
    <polyline class="fil0 str0" points="1854,5226 1852,5226 1856,5226 1856,5233 1858,5233 "/>
    <path class="fil0 str0" d="M1858 5233c4,25 20,32 63,32 2,0 4,0 6,0"/>
    <line class="fil0 str0" x1="1927" y1="5265" x2="2008" y2= "5264" />
    <path class="fil0 str0" d="M2008 5264c8,0 13,0 38,1"/>
    <polyline class="fil0 str0" points="1397,1221 1409,1221 1408,1226 "/>
    <path class="fil0 str0" d="M1408 1226c-5,5 -7,6 -12,6 -1,0 -2,0 -4,-1"/>
    <line class="fil0 str0" x1="1392" y1="1231" x2="1388" y2= "1228" />
    <path class="fil0 str0" d="M1388 1228c-20,17 -45,26 -71,26 -63,0 -115,-52 -115,-116 0,-64 51,-116 114,-116 34,0 51,8 95,43 4,3 7,5 10,7 28,21 60,31 93,31 25,0 52,-7 78,-19 29,-14 39,-17 54,-17 38,0 68,31 68,71 0,39 -30,71 -67,71"/>
    <line class="fil0 str0" x1="1647" y1="1209" x2="1642" y2= "1209" />
    <path class="fil0 str0" d="M1642 1209c-10,0 -10,0 -45,-15"/>
    <line class="fil0 str0" x1="1597" y1="1194" x2="1580" y2= "1186" />
    <path class="fil0 str0" d="M1580 1186c-20,-9 -41,-13 -63,-13 -51,0 -62,5 -148,69"/>
    <polyline class="fil0 str0" points="1498,811 1489,818 1493,822 "/>
    <path class="fil0 str0" d="M1493 822c9,0 15,-2 16,-5"/>
    <line class="fil0 str0" x1="1509" y1="817" x2="1510" y2= "811" />
    <path class="fil0 str0" d="M1510 811c53,1 40,1 92,1 54,1 72,-10 72,-45 0,-13 -1,-19 -4,-24 -3,-6 -10,-10 -20,-13 -19,-5 -48,-7 -137,-7 -104,0 -138,2 -160,7 -12,3 -20,7 -24,14 -3,5 -4,12 -4,25 0,37 13,44 82,43 46,0 91,0 137,-1"/>
   </g>
  </g>
 </g>
</svg>
