<?xml version="1.0" encoding="UTF-8"?>
<!DOCTYPE svg PUBLIC "-//W3C//DTD SVG 1.1//EN" "http://www.w3.org/Graphics/SVG/1.1/DTD/svg11.dtd">
<!-- Creator: CorelDRAW X8 -->
<svg xmlns="http://www.w3.org/2000/svg" xml:space="preserve" width="40mm" height="60mm" version="1.1" style="shape-rendering:geometricPrecision; text-rendering:geometricPrecision; image-rendering:optimizeQuality; fill-rule:evenodd; clip-rule:evenodd"
viewBox="0 0 4000 6000"
 xmlns:xlink="http://www.w3.org/1999/xlink">
 <defs>
  <style type="text/css">
   <![CDATA[
    .str0 {stroke:#332C2B;stroke-width:7.62;stroke-linejoin:bevel}
    .fil0 {fill:none}
   ]]>
  </style>
 </defs>
 <g id="图层_x0020_1">
  <metadata id="CorelCorpID_0Corel-Layer"/>
  <path class="fil0 str0" d="M779 5350l2443 -4c56,0 102,-46 102,-103l0 -4490c0,-27 -11,-54 -30,-73 -19,-19 -46,-30 -73,-30l-2443 6c-56,0 -102,46 -102,103l0 4488c0,27 11,54 30,73 19,19 45,30 73,30zm387 -4624c-37,0 -67,30 -67,67 0,36 30,66 67,66 37,0 67,-30 67,-66 0,-37 -30,-67 -67,-67z"/>
 </g>
</svg>
