<?xml version="1.0" encoding="UTF-8"?>
<!DOCTYPE svg PUBLIC "-//W3C//DTD SVG 1.1//EN" "http://www.w3.org/Graphics/SVG/1.1/DTD/svg11.dtd">
<!-- Creator: CorelDRAW -->
<svg xmlns="http://www.w3.org/2000/svg" xml:space="preserve" width="40mm" height="60mm" style="shape-rendering:geometricPrecision; text-rendering:geometricPrecision; image-rendering:optimizeQuality; fill-rule:evenodd; clip-rule:evenodd"
viewBox="0 0 40 60"
 xmlns:xlink="http://www.w3.org/1999/xlink">
 <defs>
  <style type="text/css">
   <![CDATA[
    .str0 {stroke:#1F1A17;stroke-width:0.0762}
    .fil0 {fill:none}
   ]]>
  </style>
 </defs>
 <g id="图层_x0020_1">
  <metadata id="CorelCorpID_0Corel-Layer"/>
  <g id="_48775328">
   <path id="_253714824" class="fil0 str0" d="M25.8017 6.7529c0.245,0 0.4437,0.1987 0.4437,0.4437 0,0.245 -0.1987,0.4438 -0.4437,0.4438 -0.2451,0 -0.4438,-0.1988 -0.4438,-0.4438 0,-0.245 0.1987,-0.4437 0.4438,-0.4437z"/>
   <path id="_48775520" class="fil0 str0" d="M11.7176 6.5l5.5095 0 0.4558 0.2574 4.6941 0 0.4755 -0.2574 5.4298 0c1.5185,0 2.7608,1.1997 2.7608,2.666l0 41.668c0,1.4663 -1.2423,2.666 -2.7608,2.666l-16.5647 0c-1.5184,0 -2.7607,-1.1997 -2.7607,-2.666l0 -41.668c0,-1.4663 1.2423,-2.666 2.7607,-2.666z"/>
  </g>
 </g>
</svg>
