<?xml version="1.0" encoding="UTF-8"?>
<!DOCTYPE svg PUBLIC "-//W3C//DTD SVG 1.1//EN" "http://www.w3.org/Graphics/SVG/1.1/DTD/svg11.dtd">
<!-- Creator: CorelDRAW X8 -->
<svg xmlns="http://www.w3.org/2000/svg" xml:space="preserve" width="40mm" height="60mm" version="1.1" style="shape-rendering:geometricPrecision; text-rendering:geometricPrecision; image-rendering:optimizeQuality; fill-rule:evenodd; clip-rule:evenodd"
viewBox="0 0 4000 6000"
 xmlns:xlink="http://www.w3.org/1999/xlink">
 <defs>
  <style type="text/css">
   <![CDATA[
    .str0 {stroke:black;stroke-width:7.62}
    .fil0 {fill:none}
   ]]>
  </style>
 </defs>
 <g id="图层_x0020_1">
  <metadata id="CorelCorpID_0Corel-Layer"/>
  <path class="fil0 str0" d="M2027 1589c0,-11 -10,-21 -31,-23 -72,0 -131,59 -131,132 0,72 59,131 131,131 73,0 132,-59 132,-131 0,-73 -59,-132 -132,-132m3 -223c196,0 354,158 354,352 0,194 -158,352 -354,352 -195,0 -354,-158 -354,-352 0,-194 159,-352 354,-352zm0 -15c204,0 369,164 369,367 0,202 -165,366 -369,366 -203,0 -368,-164 -368,-366 0,-203 165,-367 368,-367zm-542 359c-12,3 -22,7 -22,29l0 18c0,25 21,45 46,45l0 0c24,0 45,-20 45,-45l0 -79c0,-25 -21,-46 -45,-46l0 0c-25,0 -46,21 -46,46l0 61m567 -669c46,-1 91,4 134,13 33,7 92,64 48,140 -19,33 -30,112 18,156 48,43 144,49 177,0 66,-97 134,-59 170,-12 73,95 104,222 104,351 0,134 -41,259 -112,363 -20,29 -75,61 -134,2l-27 -26c-48,-49 -128,-49 -177,0l0 0c-45,44 -51,111 -12,164 37,50 4,115 -54,131 -43,11 -88,14 -135,14 -45,0 -91,-1 -133,-14 -68,-20 -85,-96 -60,-126 40,-48 36,-133 -8,-169 -49,-49 -129,-49 -177,0 -69,94 -118,83 -166,16 -71,-100 -106,-224 -106,-355 0,-137 43,-265 116,-369 42,-61 90,-36 150,26 53,54 137,46 176,2 39,-45 49,-111 13,-162 -37,-53 3,-118 46,-128 49,-10 99,-17 149,-17zm0 -47c385,0 697,311 697,695 0,384 -312,695 -697,695 -385,0 -697,-311 -697,-695 0,-384 312,-695 697,-695zm-1054 4350l2008 0c91,0 167,-70 175,-159l18 0c6,0 11,-5 11,-12l0 -4341c0,-6 -5,-11 -11,-11l-32 0 0 -2c-1,-96 -79,-175 -176,-175l-1882 0c-97,0 -176,79 -176,175l0 2 -32 0c-6,0 -11,5 -11,11l0 974c0,7 1,9 7,9l12 0c21,0 38,17 38,38l0 507c0,21 -17,38 -38,38l-13 0c-5,0 -6,1 -6,5l0 139c0,5 1,7 5,7l11 0c21,0 38,17 38,38l0 215c0,21 -17,38 -38,38l-8 0c-6,0 -8,2 -8,10l0 2323c0,7 5,12 11,12l33 0c8,89 84,159 175,159l51 0"/>
 </g>
</svg>
