<?xml version="1.0" encoding="UTF-8"?>
<!DOCTYPE svg PUBLIC "-//W3C//DTD SVG 1.1//EN" "http://www.w3.org/Graphics/SVG/1.1/DTD/svg11.dtd">
<!-- Creator: CorelDRAW X8 -->
<svg xmlns="http://www.w3.org/2000/svg" xml:space="preserve" width="40mm" height="60mm" version="1.1" style="shape-rendering:geometricPrecision; text-rendering:geometricPrecision; image-rendering:optimizeQuality; fill-rule:evenodd; clip-rule:evenodd"
viewBox="0 0 4000 6000"
 xmlns:xlink="http://www.w3.org/1999/xlink">
 <defs>
  <style type="text/css">
   <![CDATA[
    .fil0 {fill:#332C2B;fill-rule:nonzero}
   ]]>
  </style>
 </defs>
 <g id="图层_x0020_1">
  <metadata id="CorelCorpID_0Corel-Layer"/>
  <g id="_2025802754784">
   <g>
    <path class="fil0" d="M1265 4261l0 8 0 0 -3 0 -3 -1 -4 0 -3 0 -3 -1 -3 -1 -3 -1 -3 -1 -3 -1 -3 -1 -2 -2 -3 -2 -3 -1 -2 -2 -3 -2 -2 -2 -2 -2 -2 -3 -3 -2 -1 -3 -2 -2 -2 -3 -2 -3 -1 -3 -1 -3 -1 -3 -1 -3 -1 -3 -1 -4 0 -3 -1 -4 0 -3 8 0 0 3 0 3 1 3 0 3 1 3 1 3 1 3 1 2 1 3 2 2 1 3 2 2 1 2 2 2 2 2 2 2 2 2 2 2 3 1 2 2 2 1 3 2 2 1 3 1 3 1 2 1 3 0 3 1 3 1 2 0 3 0 3 0 0 0zm264 8l-264 0 0 -8 264 0 0 0 0 8zm55 -93l7 -5 0 0 2 4 2 4 2 4 1 4 1 4 1 4 0 4 0 4 0 4 0 4 -1 4 -1 4 -1 4 -1 4 -2 4 -2 4 -2 3 -3 4 -2 3 -3 3 -4 3 -3 3 -4 3 -4 2 -4 2 -4 2 -5 2 -4 1 -5 1 -5 1 -6 1 -5 0 0 -8 5 0 5 0 4 -1 5 -1 4 -1 4 -2 4 -2 4 -2 3 -2 3 -2 3 -2 3 -3 3 -3 2 -3 3 -3 2 -3 1 -3 2 -4 1 -3 1 -4 1 -3 0 -4 1 -3 0 -4 0 -4 -1 -3 0 -4 -1 -3 -1 -4 -2 -3 -2 -3 -2 -4 0 1zm7 -5l0 0 0 0 0 0zm-57 -23l0 -8 0 0 2 0 2 0 3 1 2 0 2 0 2 1 2 0 2 1 2 0 2 1 2 1 2 0 2 1 2 1 2 1 2 1 2 1 1 1 2 2 2 1 1 1 2 1 2 2 1 1 2 1 1 2 1 1 2 2 1 1 1 2 1 2 2 1 -7 5 -1 -2 -1 -1 -1 -2 -1 -1 -1 -1 -1 -2 -2 -1 -1 -1 -1 -2 -2 -1 -1 -1 -2 -1 -1 -1 -2 -1 -1 -1 -2 -1 -2 -1 -1 -1 -2 -1 -2 -1 -1 0 -2 -1 -2 -1 -2 0 -2 -1 -2 0 -1 0 -2 -1 -2 0 -2 0 -2 0 -2 0 0 0zm0 0l0 0 0 0 0 0zm-247 -1l0 -8 0 0 6 0 6 0 7 0 7 0 7 0 7 0 8 0 8 0 8 0 8 0 8 0 8 0 9 0 8 0 9 0 8 0 9 0 8 0 9 0 8 0 9 0 8 0 8 0 8 0 8 0 8 0 8 0 7 0 7 1 7 0 7 0 6 0 0 8 -7 0 -6 -1 -7 0 -7 0 -7 0 -8 0 -8 0 -8 0 -8 0 -8 -1 -8 0 -9 0 -8 0 -9 0 -8 0 -9 0 -8 0 -9 0 -8 0 -9 0 -8 0 -8 0 -8 0 -8 0 -8 1 -8 0 -7 0 -7 0 -7 0 -7 0 -6 0 -6 0 0 0zm-60 13l-4 -6 0 0 2 -2 2 -1 2 -1 2 -1 2 -1 1 -1 2 -1 2 -1 2 0 1 -1 2 -1 2 0 1 -1 2 0 2 -1 1 0 2 0 2 -1 2 0 2 0 1 0 2 -1 2 0 2 0 3 0 2 0 2 0 3 0 2 0 3 0 3 0 3 0 0 8 -3 0 -3 0 -3 0 -2 0 -3 0 -2 0 -2 0 -2 0 -2 0 -2 0 -2 0 -2 0 -1 1 -2 0 -2 0 -1 0 -2 1 -1 0 -2 0 -1 1 -1 0 -2 1 -1 1 -2 0 -1 1 -2 1 -2 1 -1 1 -2 1 -2 1 -2 1 -2 1 0 0zm-4 -6l0 0 0 0 0 0zm-17 50l-8 0 0 0 0 -2 1 -2 0 -2 0 -2 0 -2 0 -2 1 -2 0 -1 1 -2 0 -2 1 -2 1 -2 0 -1 1 -2 1 -2 1 -1 0 -2 1 -1 1 -2 1 -1 1 -2 1 -1 1 -2 1 -1 1 -1 2 -2 1 -1 1 -1 1 -1 1 -1 2 -1 1 -1 4 6 -1 1 -1 1 -1 1 -1 1 -1 1 -1 1 -1 1 -1 1 -1 1 -1 1 -1 1 0 2 -1 1 -1 1 -1 2 -1 1 0 2 -1 1 -1 2 0 1 -1 2 0 1 -1 2 0 1 -1 2 0 2 0 1 -1 2 0 2 0 1 0 2 0 2 0 0z"/>
   </g>
   <g>
    <path class="fil0" d="M1323 4320l-196 0 0 -8 196 0 4 4 -4 4zm4 -4l0 4 -4 0 4 -4zm0 -30l0 30 -7 0 0 -30 3 -4 4 4zm-4 -4l4 0 0 4 -4 -4zm-64 8l0 -8 0 0 3 0 3 0 2 0 3 0 2 0 2 0 2 0 2 0 2 0 2 0 1 0 2 0 2 0 1 0 2 0 1 1 2 0 1 0 2 0 1 0 2 0 1 0 2 0 2 0 2 0 2 -1 2 0 2 0 3 0 3 0 2 0 3 0 1 8 -3 0 -3 0 -3 0 -2 0 -3 0 -2 0 -2 0 -2 0 -2 0 -2 0 -1 0 -2 0 -1 0 -2 0 -1 0 -2 0 -1 0 -2 0 -1 0 -2 0 -2 0 -1 0 -2 0 -2 0 -2 0 -2 0 -2 0 -2 0 -3 0 -2 0 -3 0 -3 0 0 0zm0 0l0 0 0 0 0 0zm-95 -87l8 1 0 -1 0 4 0 3 1 3 0 4 1 3 0 3 1 4 1 3 1 3 1 4 2 3 1 3 2 3 2 3 2 3 2 3 2 3 3 3 3 2 3 3 3 2 4 2 4 2 4 2 4 2 5 1 5 2 5 1 6 1 6 0 6 1 7 0 0 8 -7 -1 -7 0 -6 -1 -6 -1 -6 -1 -5 -1 -5 -2 -5 -2 -4 -2 -5 -2 -4 -3 -3 -2 -4 -3 -3 -3 -3 -3 -3 -3 -2 -3 -3 -4 -2 -3 -2 -3 -1 -4 -2 -4 -1 -3 -1 -4 -1 -4 -1 -3 -1 -4 0 -3 -1 -4 0 -4 0 -3 -1 -3 0 -1zm0 1l0 -1 0 0 0 1zm101 -87l0 8 0 0 -8 0 -7 0 -6 1 -6 0 -6 1 -6 2 -5 1 -4 2 -5 1 -4 2 -4 2 -3 3 -4 2 -3 2 -2 3 -3 3 -2 3 -2 3 -2 3 -2 3 -2 3 -1 3 -1 4 -1 3 -1 3 -1 4 0 4 -1 3 0 4 -1 3 0 4 0 4 -8 -1 1 -3 0 -4 0 -4 1 -4 0 -4 1 -3 1 -4 1 -4 1 -4 1 -4 2 -3 1 -4 2 -3 2 -4 3 -3 2 -3 3 -3 3 -3 4 -3 3 -3 4 -2 5 -3 4 -2 5 -2 5 -1 6 -2 5 -1 7 -1 6 -1 7 -1 7 0 8 0 0 0zm0 8l0 0 0 0 0 0zm58 -1l-58 1 0 -8 58 -1 4 4 -4 4zm4 -4l0 4 -4 0 4 -4zm0 -28l0 28 -7 0 0 -28 3 -4 4 4zm-4 -4l4 0 0 4 -4 -4zm-271 9l0 -7 0 0 8 0 8 0 7 0 9 0 8 0 8 0 8 0 9 0 8 0 9 0 9 0 9 0 8 0 9 0 9 0 9 0 9 0 9 0 8 0 9 0 9 0 9 0 9 0 8 0 9 -1 8 0 9 0 8 0 8 0 8 0 8 0 8 -1 1 8 -8 0 -8 0 -9 1 -8 0 -8 0 -9 0 -8 0 -9 0 -8 0 -9 0 -9 0 -9 0 -9 0 -8 0 -9 0 -9 0 -9 0 -9 0 -9 0 -9 0 -8 0 -9 0 -9 0 -8 0 -9 0 -8 0 -8 0 -8 0 -9 0 -7 0 -8 0 -8 0 0 0zm-41 204l-3 7 0 0 -10 -5 -9 -6 -8 -7 -8 -7 -6 -7 -6 -8 -5 -8 -4 -8 -3 -9 -2 -9 -2 -9 -1 -9 0 -10 0 -9 1 -9 2 -9 2 -9 3 -9 4 -8 4 -8 5 -8 6 -7 6 -7 6 -7 7 -5 8 -6 8 -4 8 -4 9 -3 9 -3 10 -1 10 0 0 7 -9 1 -9 1 -9 2 -8 3 -8 3 -7 5 -7 5 -7 5 -6 6 -5 6 -6 7 -4 8 -4 7 -4 8 -2 8 -3 9 -1 8 -1 9 -1 8 0 9 1 9 2 8 2 8 3 9 4 7 5 8 5 7 6 7 7 7 7 6 9 5 9 5 0 0zm-3 7l0 0 0 0 0 0zm119 4l0 8 0 0 -4 0 -4 0 -4 0 -4 0 -4 0 -4 0 -4 0 -4 0 -3 0 -4 0 -4 0 -4 0 -4 0 -4 0 -3 0 -4 0 -4 -1 -4 0 -3 0 -4 -1 -4 0 -3 -1 -4 0 -3 -1 -4 0 -3 -1 -4 -1 -3 -1 -4 -1 -3 -1 -4 -2 -3 -1 3 -7 3 1 3 2 4 1 3 1 3 1 3 0 4 1 3 1 3 0 4 1 3 0 4 1 3 0 4 0 4 1 3 0 4 0 4 0 3 0 4 0 4 0 4 0 3 0 4 0 4 0 4 0 4 0 4 0 4 0 4 0 4 0 4 0 0 0z"/>
   </g>
   <g>
    <path class="fil0" d="M1529 4117l0 8 0 0 -4 0 -5 0 -4 0 -4 0 -4 0 -4 0 -4 0 -4 0 -4 0 -3 0 -4 0 -4 0 -3 0 -4 0 -3 0 -4 0 -3 0 -4 0 -3 0 -4 0 -4 0 -3 0 -4 0 -4 0 -4 0 -4 0 -4 0 -5 0 -4 0 -5 0 -4 0 -5 0 0 -8 5 0 4 0 5 0 4 0 5 0 4 0 4 0 4 0 4 0 4 0 3 0 4 0 4 0 3 0 4 0 3 0 4 0 3 0 4 0 3 0 4 0 4 0 3 0 4 0 4 0 4 0 4 0 4 0 4 0 4 0 5 0 4 0 0 0zm0 8l0 0 0 0 0 0zm103 73l-8 0 0 0 0 -4 -1 -4 0 -4 -1 -4 -1 -4 -1 -4 -1 -4 -1 -3 -2 -3 -1 -4 -2 -3 -2 -3 -2 -2 -2 -3 -2 -3 -3 -2 -3 -2 -3 -3 -3 -2 -4 -1 -3 -2 -4 -2 -4 -1 -4 -2 -5 -1 -5 -1 -5 -1 -5 0 -6 -1 -6 0 -6 0 -7 0 0 -8 7 0 6 0 6 1 6 0 6 1 5 1 6 1 5 1 4 2 5 1 4 2 4 2 4 2 3 2 4 3 3 2 3 3 3 3 2 3 3 3 2 3 2 4 1 4 2 3 1 4 2 4 1 4 0 4 1 4 1 5 0 4 1 5 0 0zm0 0l0 0 0 0 0 0zm-108 92l0 -8 0 0 8 0 8 0 8 -1 6 0 7 -1 6 -1 6 -2 5 -1 5 -2 4 -2 5 -2 3 -2 4 -2 3 -3 3 -2 3 -3 2 -3 2 -3 2 -3 2 -3 1 -4 2 -3 1 -4 1 -3 1 -4 0 -4 1 -4 0 -5 1 -4 0 -4 0 -5 0 -4 8 0 0 5 -1 4 0 5 0 4 -1 5 0 4 -1 4 -1 4 -1 4 -1 4 -2 4 -1 4 -2 4 -2 3 -3 4 -3 3 -3 3 -3 3 -4 3 -4 3 -4 2 -4 2 -5 2 -6 2 -5 2 -6 1 -7 1 -7 1 -7 1 -7 0 -9 1 -8 0 0 0zm0 -8l0 0 0 0 0 0zm-117 4l-8 0 4 -4 4 0 5 0 4 0 4 0 4 0 4 0 4 0 4 0 3 0 4 0 3 0 4 0 3 0 4 0 3 0 3 0 4 0 3 0 3 0 4 0 3 0 4 0 3 0 4 0 4 0 4 0 3 0 4 0 5 0 4 0 4 0 5 0 0 8 -5 0 -4 0 -4 0 -5 0 -4 0 -3 0 -4 0 -4 0 -4 0 -3 0 -4 0 -3 0 -4 0 -3 0 -3 0 -4 0 -3 0 -3 0 -4 0 -3 0 -4 0 -3 0 -4 0 -3 0 -4 0 -4 0 -4 0 -4 0 -4 0 -4 0 -5 0 -4 0 4 -4zm-8 0l0 -4 4 0 -4 4zm0 29l0 -29 8 0 0 29 -4 3 -4 -3zm4 3l-4 0 0 -3 4 3zm387 -7l0 7 0 0 -12 0 -12 0 -12 0 -12 0 -12 0 -12 0 -12 0 -13 0 -12 0 -12 0 -12 0 -12 0 -12 0 -12 0 -12 0 -12 0 -13 0 -12 0 -12 0 -12 0 -12 0 -12 0 -12 0 -12 0 -12 0 -12 0 -13 0 -12 0 -12 0 -12 0 -12 0 -12 0 0 -7 12 0 12 0 12 0 12 0 12 0 13 0 12 0 12 0 12 0 12 0 12 0 12 0 12 0 12 0 12 0 13 0 12 0 12 0 12 0 12 0 12 0 12 0 12 0 12 0 13 0 12 0 12 0 12 0 12 0 12 0 12 0 12 0 0 0zm185 -6l2 7 0 0 -4 1 -4 1 -4 1 -5 1 -5 0 -5 1 -6 0 -5 1 -6 0 -7 1 -6 0 -6 0 -7 0 -6 0 -7 0 -7 0 -7 0 -6 0 -7 0 -7 0 -7 0 -6 0 -7 0 -6 0 -6 0 -6 0 -6 0 -6 0 -5 0 -5 -1 -5 0 -5 0 0 -7 5 0 5 0 5 0 5 0 6 0 6 0 6 0 6 0 6 0 7 1 7 0 6 0 7 0 7 0 6 0 7 0 7 0 7 0 6 0 7 -1 6 0 6 0 6 0 6 -1 6 0 5 -1 5 0 5 -1 4 -1 5 0 3 -1 4 -1 0 0zm2 7l0 0 0 0 0 0zm-1 -209l2 -7 0 0 10 3 9 5 9 4 8 6 7 6 7 6 6 6 6 8 4 7 5 7 3 8 3 8 2 9 2 8 1 8 0 9 0 8 -1 9 -2 8 -2 8 -3 8 -4 8 -4 8 -5 7 -5 7 -6 7 -7 6 -8 6 -8 5 -8 5 -10 4 -10 4 -2 -7 9 -4 9 -4 8 -4 8 -5 7 -6 6 -5 6 -7 5 -6 5 -7 4 -7 3 -7 3 -8 2 -8 1 -7 1 -8 1 -8 -1 -8 -1 -8 -1 -8 -2 -7 -3 -8 -3 -7 -4 -7 -5 -7 -5 -7 -5 -6 -7 -6 -6 -5 -8 -5 -8 -5 -9 -4 -9 -3 0 0zm2 -7l0 0 1 0 -1 0zm-186 1l0 -8 0 0 4 0 5 0 6 0 5 0 6 0 6 0 6 0 6 0 6 0 7 0 6 -1 7 0 7 0 7 0 6 0 7 0 7 0 6 0 7 1 6 0 7 0 6 0 6 1 6 0 6 0 5 1 5 0 5 1 5 1 5 1 4 1 3 1 -2 7 -3 -1 -4 -1 -4 -1 -5 0 -4 -1 -6 -1 -5 0 -5 0 -6 -1 -6 0 -6 0 -7 -1 -6 0 -7 0 -6 0 -7 0 -7 0 -6 0 -7 0 -7 0 -7 0 -6 0 -7 0 -6 0 -6 1 -6 0 -6 0 -6 0 -5 0 -6 0 -5 0 -4 0 0 0zm-193 0l0 -8 0 0 6 0 6 0 6 0 6 0 6 0 6 0 7 0 6 0 6 0 6 0 6 0 6 0 6 0 5 0 6 0 6 0 6 0 6 0 6 0 6 0 6 0 6 0 6 0 6 0 6 0 6 0 6 0 6 0 7 0 6 0 6 0 6 0 0 8 -6 0 -6 0 -6 0 -7 0 -6 0 -6 0 -6 0 -6 0 -6 0 -6 0 -6 0 -6 0 -6 0 -6 0 -6 0 -6 0 -6 0 -6 0 -5 0 -6 0 -6 0 -6 0 -6 0 -6 0 -6 0 -7 0 -6 0 -6 0 -6 0 -6 0 -6 0 -6 0 0 0zm-192 -4l-8 0 4 -4 6 0 6 0 6 0 6 0 7 0 6 0 6 0 6 0 6 0 6 0 7 0 6 0 6 0 6 0 7 0 6 0 6 0 6 0 6 0 6 0 7 0 6 0 6 0 6 0 6 0 6 0 6 0 6 0 6 0 6 0 6 0 6 0 0 8 -6 0 -6 0 -6 0 -6 0 -6 0 -6 0 -6 0 -6 0 -6 0 -6 0 -6 0 -7 0 -6 0 -6 0 -6 0 -6 0 -6 0 -7 0 -6 0 -6 0 -6 0 -7 0 -6 0 -6 0 -6 0 -6 0 -6 0 -7 0 -6 0 -6 0 -6 0 -6 0 4 -4zm-8 0l0 -4 4 0 -4 4zm0 28l0 -28 8 0 0 28 -4 4 -4 -4zm4 4l-4 0 0 -4 4 4z"/>
   </g>
   <g>
    <path class="fil0" d="M911 5313l0 -187 7 0 0 187 -3 4 -4 -4zm4 4l-4 0 0 -4 4 4zm1397 0l-1397 0 0 -8 1397 0 4 4 -4 4zm4 -4l0 4 -4 0 4 -4zm0 -200l0 200 -8 0 0 -200 4 -4 4 4zm-4 -4l4 0 0 4 -4 -4zm-1397 0l1397 0 0 8 -1397 0 -4 -4 4 -4zm-4 4l0 -4 4 0 -4 4zm0 13l0 -13 7 0 0 13 0 0 -7 0z"/>
   </g>
   <g>
    <path class="fil0" d="M2611 4826l-1694 0 0 -8 1694 0 4 4 -4 4zm4 -4l0 4 -4 0 4 -4zm0 -201l0 201 -8 0 0 -201 4 -4 4 4zm-4 -4l4 0 0 4 -4 -4zm-1695 0l1695 0 0 8 -1695 0 -4 -4 4 -4zm-4 4l0 -4 4 0 -4 4zm2 201l-2 -201 8 0 1 201 -4 4 -3 -4zm3 4l-3 0 0 -4 3 4z"/>
   </g>
   <g>
    <path class="fil0" d="M2629 1673l0 8 0 0 -5 0 -7 0 -9 0 -10 0 -13 0 -13 0 -15 0 -17 1 -17 0 -19 0 -19 0 -20 0 -20 0 -21 0 -21 0 -21 1 -21 0 -21 0 -21 0 -20 0 -20 0 -19 0 -18 0 -17 0 -16 0 -15 0 -13 0 -12 0 -10 0 -9 0 -6 -1 -5 0 1 -7 4 0 7 0 8 0 10 0 12 0 13 0 15 1 16 0 17 0 18 -1 19 0 20 0 20 0 21 0 21 0 21 0 21 0 21 0 21 0 20 -1 20 0 19 0 19 0 17 0 16 0 16 0 13 0 13 -1 10 0 9 0 7 0 5 0 0 0zm61 2l0 7 0 0 -2 0 -2 0 -2 0 -2 0 -2 0 -2 0 -2 0 -2 0 -2 0 -2 0 -2 0 -2 0 -1 0 -2 0 -2 0 -2 0 -2 0 -2 -1 -1 0 -2 0 -2 0 -2 0 -2 0 -1 0 -2 0 -2 0 -2 0 -2 0 -2 0 -2 0 -2 0 -2 0 0 -8 2 0 2 0 2 0 2 0 2 0 2 0 2 0 2 1 2 0 1 0 2 0 2 0 2 0 2 0 2 0 1 0 2 0 2 0 2 0 2 0 2 0 1 0 2 0 2 0 2 0 2 1 2 0 2 0 2 0 2 0 2 0 2 0 0 0zm62 0l0 7 0 0 -2 0 -2 0 -2 0 -2 0 -2 0 -2 0 -2 0 -2 0 -2 0 -2 0 -1 0 -2 0 -2 0 -2 0 -2 0 -2 0 -2 0 -2 0 -2 0 -2 0 -2 0 -2 0 -1 0 -2 0 -2 0 -2 0 -2 0 -2 0 -2 0 -2 0 -2 0 -2 0 0 -7 2 0 2 0 2 0 2 0 2 0 2 0 2 0 2 0 2 0 1 0 2 0 2 0 2 0 2 0 2 0 2 0 2 0 2 0 2 0 2 0 2 0 1 0 2 0 2 0 2 0 2 0 2 0 2 0 2 0 2 0 2 0 2 0 0 0zm370 -4l2 8 0 0 -9 0 -8 1 -10 0 -10 1 -10 0 -11 0 -11 0 -12 1 -12 0 -12 0 -13 0 -13 0 -13 0 -13 0 -13 0 -13 1 -14 0 -13 0 -13 0 -13 0 -13 0 -13 0 -13 -1 -12 0 -12 0 -12 0 -11 0 -11 0 -11 0 -10 0 -9 0 -9 0 0 -7 9 0 9 0 10 0 11 0 11 0 11 0 12 0 12 0 12 0 13 0 13 0 13 0 13 0 13 0 13 0 14 0 13 0 13 0 13 0 13 0 13 0 13 -1 12 0 12 0 12 0 11 0 11 -1 10 0 10 0 9 -1 9 0 8 -1 -1 0zm2 8l0 0 0 0 0 0zm285 -209l8 2 -1 1 -5 11 -6 11 -6 10 -6 10 -6 10 -7 9 -7 9 -7 9 -8 8 -7 8 -8 8 -9 8 -8 7 -9 7 -8 6 -9 6 -10 6 -9 6 -10 6 -10 5 -10 5 -11 5 -10 4 -11 5 -11 4 -12 4 -11 3 -12 4 -12 3 -12 3 -12 3 -13 3 -2 -8 13 -2 12 -3 12 -3 12 -3 12 -4 11 -4 11 -3 11 -4 11 -5 10 -4 10 -5 10 -5 10 -5 10 -5 9 -6 9 -6 9 -6 9 -6 8 -7 8 -7 8 -7 8 -8 8 -8 7 -8 7 -9 7 -8 6 -10 7 -9 6 -10 6 -10 5 -11 6 -11 -1 1zm8 2l0 0 -1 1 1 -1zm-65 -329l6 -5 0 0 7 10 7 10 6 10 6 10 5 9 6 10 5 10 5 10 4 9 4 10 4 10 4 10 3 10 3 10 3 10 2 10 2 10 1 11 1 10 1 10 0 11 1 11 -1 10 -1 11 -1 11 -1 11 -2 12 -2 11 -3 12 -3 11 -3 12 -4 12 -8 -2 4 -12 4 -12 3 -11 2 -12 3 -11 1 -11 2 -11 1 -10 1 -11 0 -10 0 -11 -1 -10 0 -10 -1 -10 -2 -10 -2 -10 -2 -10 -2 -10 -3 -10 -3 -9 -4 -10 -4 -10 -4 -9 -4 -10 -5 -10 -5 -9 -5 -10 -6 -10 -6 -9 -6 -10 -6 -10 -7 -9 0 0zm-181 -125l2 -7 0 0 7 2 6 2 7 2 6 3 7 3 7 2 6 3 7 3 6 4 7 3 6 4 7 3 6 4 7 4 6 4 6 4 6 5 6 4 6 4 6 5 5 4 6 5 5 5 6 5 5 5 5 5 4 5 5 5 4 5 4 5 4 5 4 5 -6 5 -4 -5 -4 -5 -4 -5 -4 -5 -4 -5 -5 -5 -5 -5 -5 -5 -5 -4 -5 -5 -5 -5 -6 -4 -6 -5 -5 -4 -6 -4 -6 -4 -6 -5 -6 -3 -7 -4 -6 -4 -6 -4 -7 -3 -6 -4 -7 -3 -6 -3 -6 -3 -7 -2 -6 -3 -7 -2 -6 -3 -7 -2 -6 -2 0 0zm2 -7l0 0 -1 0 1 0zm-234 -8l0 -8 0 0 8 0 8 0 8 0 8 0 8 0 8 0 7 0 8 0 7 0 8 0 7 0 7 0 8 0 7 0 7 1 7 0 7 0 7 0 7 1 7 0 7 1 7 0 7 1 7 1 7 1 7 1 7 1 7 1 8 2 7 1 7 2 7 2 -2 7 -7 -2 -7 -1 -7 -2 -7 -1 -7 -1 -7 -2 -7 -1 -7 -1 -7 0 -6 -1 -7 -1 -7 0 -7 -1 -7 0 -7 0 -7 -1 -7 0 -7 0 -8 0 -7 0 -7 0 -7 0 -8 0 -7 0 -8 0 -7 0 -8 0 -8 0 -8 0 -8 0 -8 0 -8 0 0 0zm0 -8l0 0 0 0 0 0zm-374 0l374 0 0 8 -374 0 0 0 0 -8zm-118 13l-1 -7 0 0 4 -1 3 -1 4 0 4 -1 4 0 3 -1 4 0 4 -1 3 0 4 0 4 0 3 -1 4 0 3 0 4 0 4 0 3 0 4 0 3 0 4 0 4 0 3 0 4 0 4 0 4 0 3 0 4 0 4 0 4 0 4 0 4 0 4 0 0 8 -4 0 -4 0 -4 0 -4 0 -4 0 -4 0 -4 0 -3 0 -4 0 -4 0 -3 0 -4 -1 -4 0 -3 1 -4 0 -3 0 -4 0 -3 0 -4 0 -3 0 -4 0 -4 0 -3 1 -4 0 -3 0 -4 1 -3 0 -4 1 -4 0 -3 1 -4 0 -4 1 0 0zm0 0l0 0 1 0 -1 0zm-192 98l-5 -6 0 0 6 -4 5 -5 5 -4 5 -4 5 -4 5 -4 5 -4 6 -4 5 -4 5 -3 5 -4 6 -4 5 -3 6 -3 5 -4 6 -3 6 -3 6 -3 6 -3 6 -3 6 -3 7 -2 6 -3 7 -2 7 -3 7 -2 7 -2 8 -2 7 -2 8 -2 8 -2 9 -1 1 7 -8 2 -8 1 -8 2 -7 2 -8 2 -7 2 -7 3 -7 2 -6 2 -7 3 -6 2 -6 3 -6 3 -6 3 -6 3 -5 3 -6 3 -5 3 -6 3 -5 4 -5 3 -6 4 -5 3 -5 4 -5 4 -5 4 -5 4 -5 4 -5 4 -5 4 -6 4 -5 5 0 0zm-5 -6l0 0 0 0 0 0zm-75 121l-7 -3 0 0 1 -4 2 -4 2 -4 2 -4 2 -4 2 -4 2 -4 2 -4 3 -4 2 -4 2 -4 3 -4 2 -4 3 -4 3 -4 2 -4 3 -4 3 -4 3 -3 3 -4 2 -4 3 -4 3 -3 3 -4 3 -3 3 -3 3 -4 3 -3 3 -3 3 -3 3 -2 3 -3 5 6 -3 2 -3 3 -2 3 -3 3 -3 3 -3 3 -3 3 -3 3 -3 4 -3 3 -3 4 -2 3 -3 4 -3 4 -3 4 -2 3 -3 4 -3 4 -2 4 -3 4 -2 4 -2 4 -3 4 -2 4 -2 4 -2 4 -2 4 -2 4 -2 4 -2 3 -2 4 -1 4 0 0zm-32 211l-7 0 0 0 0 -9 0 -9 0 -8 0 -8 0 -8 0 -8 0 -8 0 -7 1 -7 0 -7 0 -6 1 -7 0 -6 1 -7 0 -6 1 -6 1 -6 1 -6 1 -6 1 -6 1 -5 2 -6 1 -6 2 -6 1 -6 2 -6 2 -6 3 -6 2 -6 2 -7 3 -6 3 -7 7 3 -3 7 -3 6 -2 6 -2 6 -2 6 -2 6 -2 6 -2 6 -1 6 -2 5 -1 6 -1 6 -2 6 -1 5 0 6 -1 6 -1 6 -1 6 0 6 -1 7 0 6 0 7 -1 6 0 7 0 8 0 7 0 8 -1 8 0 8 0 8 0 9 0 9 0 0zm0 247l-7 -1 0 -5 0 -5 1 -5 0 -7 0 -6 0 -7 0 -7 0 -8 0 -8 0 -8 0 -9 0 -8 0 -9 0 -9 0 -9 0 -9 0 -9 0 -9 0 -9 0 -9 0 -9 0 -9 -1 -8 0 -8 0 -9 0 -8 0 -7 0 -7 0 -7 0 -7 0 -6 0 -6 7 0 0 6 0 6 0 7 1 6 0 8 0 7 0 8 0 8 0 9 0 8 0 9 0 9 1 9 0 9 0 9 0 9 0 9 0 9 0 9 0 9 0 8 0 9 0 8 0 8 0 8 0 7 0 7 -1 7 0 6 0 6 0 5 -1 5z"/>
   </g>
   <g>
    <path class="fil0" d="M2087 1678l8 0 -4 4 -28 0 -29 0 -28 0 -29 0 -28 -1 -29 0 -29 0 -29 0 -28 0 -29 0 -29 0 -29 0 -29 0 -29 0 -29 0 -29 0 -29 0 -29 0 -29 0 -29 1 -29 0 -29 0 -29 0 -29 0 -29 0 -28 0 -29 0 -29 0 -29 0 -28 0 -29 0 -29 0 0 -7 29 0 29 0 28 0 29 0 29 -1 29 0 28 0 29 0 29 0 29 0 29 0 29 0 29 0 29 0 29 0 29 0 29 0 29 0 29 0 29 -1 29 0 29 0 29 0 28 1 29 0 29 0 29 0 28 0 29 0 28 0 29 0 28 1 -4 3zm8 0l0 4 -4 0 4 -4zm-8 -331l8 -1 0 0 0 5 0 6 0 7 1 7 0 8 0 9 0 9 0 10 0 11 0 11 0 11 0 12 0 12 0 12 0 13 0 12 0 13 0 13 0 12 0 13 -1 13 0 12 0 12 0 12 0 11 0 11 0 11 0 10 0 10 0 9 0 8 0 7 -8 0 0 -7 0 -8 0 -9 0 -10 0 -10 0 -11 1 -11 0 -11 0 -12 0 -12 0 -12 0 -13 0 -13 0 -12 0 -13 0 -13 0 -12 0 -13 0 -12 0 -12 0 -12 0 -11 0 -11 0 -11 0 -10 0 -9 0 -9 0 -8 0 -7 0 -7 -1 -5 0 -5 0 0zm0 0l0 0 0 -1 0 1zm-17 -86l8 -2 0 -1 0 3 1 3 1 2 1 3 1 3 1 2 0 3 1 3 1 2 0 3 1 3 1 2 0 3 1 3 1 3 0 2 1 3 0 3 1 3 0 3 1 2 0 3 1 3 0 3 0 3 1 2 0 3 0 3 0 3 1 3 0 3 0 2 -8 1 0 -3 0 -3 0 -3 0 -2 -1 -3 0 -3 0 -3 -1 -2 0 -3 0 -3 -1 -3 0 -2 -1 -3 0 -3 -1 -2 0 -3 -1 -3 0 -2 -1 -3 -1 -3 0 -3 -1 -2 -1 -3 0 -2 -1 -3 -1 -3 -1 -2 0 -3 -1 -2 -1 -3 -1 -3 -1 -2 0 0zm0 0l0 0 0 0 0 0zm-9 -27l7 -3 0 0 1 1 0 1 0 0 1 1 0 1 0 1 1 1 0 1 0 1 1 0 0 1 0 1 1 1 0 1 0 1 0 0 1 1 0 1 0 1 1 1 0 1 0 1 0 0 1 1 0 1 0 1 0 1 1 1 0 1 0 1 0 1 1 1 -8 2 0 -1 0 -1 0 -1 -1 -1 0 -1 0 -1 0 -1 -1 -1 0 0 0 -1 0 -1 -1 -1 0 -1 0 -1 0 0 -1 -1 0 -1 0 -1 -1 -1 0 0 0 -1 0 -1 -1 -1 0 -1 0 0 -1 -1 0 -1 0 -1 -1 -1 0 0 0 -1 -1 -1 0 0zm0 0l0 0 0 0 0 0zm-122 -161l5 -6 0 0 5 4 5 5 5 4 5 4 5 4 5 5 5 4 5 5 4 4 5 5 4 4 4 5 5 5 4 5 4 5 4 5 4 5 4 5 3 5 4 6 3 5 4 6 3 5 3 6 3 6 3 5 3 6 3 6 3 6 2 7 3 6 2 6 -7 3 -2 -6 -3 -7 -2 -6 -3 -6 -3 -5 -2 -6 -3 -6 -3 -5 -4 -6 -3 -5 -3 -6 -4 -5 -3 -5 -4 -5 -3 -5 -4 -5 -4 -5 -4 -5 -4 -5 -4 -5 -4 -4 -5 -5 -4 -5 -5 -4 -4 -4 -5 -5 -5 -4 -5 -4 -5 -4 -5 -5 -5 -4 -5 -4 0 0zm5 -6l0 0 0 1 0 -1zm-213 -64l0 -8 0 0 8 0 7 0 8 1 7 1 8 0 7 1 8 1 7 2 8 1 7 2 7 2 8 2 7 2 7 2 7 3 7 2 7 3 7 2 6 3 7 3 6 3 7 3 6 3 6 3 6 4 6 3 5 3 6 4 5 3 5 3 5 4 5 3 -5 6 -5 -3 -4 -3 -5 -4 -5 -3 -6 -3 -5 -3 -6 -4 -6 -3 -6 -3 -6 -3 -6 -3 -6 -3 -7 -3 -6 -3 -7 -2 -7 -3 -7 -2 -6 -3 -7 -2 -7 -2 -8 -2 -7 -2 -7 -1 -7 -2 -8 -1 -7 -1 -7 -1 -7 -1 -8 -1 -7 0 -7 0 -8 0 0 0zm0 0l0 0 0 0 0 0zm-490 0l1 -8 0 0 14 0 14 0 15 0 15 0 15 0 16 0 15 0 16 0 15 1 16 0 16 0 16 0 16 0 15 0 16 0 16 0 16 0 16 0 16 0 16 0 16 0 15 0 16 0 15 0 15 0 16 0 14 0 15 0 15 0 14 -1 14 0 14 0 0 8 -14 0 -14 0 -14 0 -15 0 -15 0 -14 0 -16 0 -15 0 -15 0 -16 0 -15 0 -16 0 -16 0 -16 0 -16 0 -16 0 -16 0 -16 0 -15 0 -16 0 -16 0 -16 0 -16 0 -15 0 -16 0 -15 0 -16 0 -15 0 -15 0 -15 0 -14 0 -14 0 -1 0zm1 0l-1 0 0 0 1 0zm-75 -9l75 1 -1 8 -74 -1 0 -8 0 0zm0 0l0 0 0 0 0 0zm-250 109l-5 -5 0 0 5 -5 5 -6 6 -4 6 -5 6 -5 6 -5 7 -5 7 -4 7 -5 7 -4 7 -5 8 -4 7 -4 8 -4 8 -4 8 -3 9 -4 8 -3 9 -3 9 -3 8 -3 9 -3 9 -2 10 -2 9 -2 9 -2 10 -2 9 -1 10 -1 9 0 10 -1 10 0 0 8 -10 0 -9 0 -10 1 -9 1 -9 1 -9 1 -10 2 -9 2 -9 2 -9 3 -8 2 -9 3 -9 3 -8 3 -8 3 -9 4 -8 3 -8 4 -7 4 -8 4 -7 4 -7 4 -7 5 -7 4 -7 4 -6 5 -6 5 -6 5 -6 4 -6 5 -5 5 -5 5 0 0zm0 0l0 0 0 0 0 0zm-112 237l-7 0 0 0 1 -10 1 -9 1 -9 2 -9 1 -9 2 -8 2 -9 2 -8 2 -8 2 -8 2 -8 3 -7 3 -8 3 -7 3 -8 3 -7 3 -7 4 -8 4 -7 4 -7 4 -7 5 -6 4 -7 5 -7 5 -7 6 -7 5 -7 6 -6 6 -7 7 -7 6 -7 7 -6 5 5 -6 7 -7 6 -6 7 -6 7 -6 6 -5 7 -6 7 -5 6 -4 7 -5 7 -4 7 -4 6 -4 7 -4 7 -4 7 -3 7 -3 7 -3 7 -3 8 -3 7 -2 8 -3 7 -2 8 -2 8 -2 8 -2 8 -1 9 -2 8 -1 9 -1 9 -2 9 -1 9 0 0zm0 0l0 0 0 1 0 -1zm25 146l-7 4 0 0 -2 -4 -1 -4 -2 -4 -2 -4 -1 -4 -2 -4 -1 -5 -1 -4 -2 -5 -1 -4 -1 -5 -1 -5 -2 -4 -1 -5 -1 -5 -1 -5 0 -5 -1 -5 -1 -5 0 -5 -1 -5 0 -5 -1 -5 0 -5 0 -5 0 -5 0 -5 0 -5 0 -5 0 -5 0 -5 1 -4 7 0 0 5 0 5 -1 4 0 5 0 5 0 5 0 5 1 4 0 5 0 5 1 5 0 5 1 5 0 5 1 5 1 5 1 4 1 5 1 5 1 5 1 4 1 5 2 4 1 5 1 4 2 4 1 4 2 4 1 4 2 4 1 4 2 3 0 0zm-7 4l0 0 2 3 -2 -3zm201 158l-3 7 0 0 -7 -3 -8 -3 -8 -3 -7 -3 -8 -4 -7 -3 -7 -4 -8 -4 -7 -4 -7 -4 -7 -4 -7 -5 -7 -4 -6 -5 -7 -5 -6 -5 -7 -5 -6 -6 -6 -5 -6 -6 -6 -6 -6 -6 -5 -6 -6 -6 -5 -7 -5 -6 -5 -7 -4 -7 -5 -7 -4 -7 -4 -8 -4 -7 7 -4 4 8 4 7 4 7 4 7 5 6 4 7 5 6 5 7 6 6 5 6 6 6 5 5 6 6 6 5 6 6 6 5 7 5 6 5 7 4 6 5 7 4 7 4 7 4 7 4 7 4 7 4 8 3 7 4 7 3 8 3 7 3 8 3 0 0zm0 0l0 0 0 -1 0 1zm145 27l0 7 0 0 -5 0 -5 0 -5 0 -5 0 -5 0 -5 -1 -5 0 -5 -1 -5 0 -5 -1 -5 -1 -5 0 -5 -1 -5 -1 -5 -1 -5 -1 -5 -1 -5 -1 -5 -1 -4 -1 -5 -2 -4 -1 -5 -1 -4 -1 -4 -1 -5 -2 -4 -1 -3 -1 -4 -2 -4 -1 -3 -1 -4 -1 3 -7 3 1 4 1 3 1 4 1 4 2 4 1 4 1 4 1 4 2 5 1 4 1 4 1 5 1 5 1 4 1 5 1 5 1 5 1 5 1 5 1 5 1 5 1 5 0 5 1 5 0 5 1 5 0 5 0 5 1 4 0 5 0 5 0 0 0zm0 0l0 0 0 0 0 0z"/>
   </g>
   <g>
    <path class="fil0" d="M561 5349l0 -3177 8 0 0 3177 -4 3 -4 -3zm4 3l-4 0 0 -3 4 3zm199 2l-199 -2 0 -7 199 1 4 4 -4 4zm4 -4l0 4 -4 0 4 -4zm0 -4699l0 4699 -8 0 0 -4699 4 -4 4 4zm-4 -4l4 0 0 4 -4 -4zm-195 4l-8 0 4 -4 3 0 4 0 4 -1 4 0 5 0 6 0 6 0 6 0 6 0 7 0 7 0 7 0 8 0 7 0 8 0 8 0 7 0 8 0 8 0 7 0 8 0 7 1 7 0 7 0 7 0 6 0 6 0 6 0 6 0 4 0 5 0 4 0 0 7 -4 0 -5 0 -5 0 -5 0 -6 0 -6 0 -6 0 -7 0 -7 0 -7 0 -7 0 -8 0 -7 0 -8 0 -8 0 -7 0 -8 0 -8 0 -7 0 -8 0 -7 0 -7 0 -7 0 -6 0 -6 0 -6 0 -6 0 -5 0 -4 0 -4 0 -4 0 -3 0 4 -3zm-8 0l0 -4 4 0 -4 4zm0 1521l0 -1521 8 0 0 1521 0 0 -8 0z"/>
   </g>
   <g>
    <path class="fil0" d="M2142 2077l-8 0 0 0 0 -11 0 -11 0 -11 0 -12 0 -11 0 -11 0 -11 0 -11 0 -11 0 -12 1 -11 0 -11 0 -11 0 -12 0 -11 1 -11 0 -11 0 -12 0 -11 0 -11 0 -11 0 -12 0 -11 0 -11 0 -11 0 -11 0 -12 -1 -11 0 -11 0 -11 -1 -11 0 -11 8 0 0 11 0 11 1 11 0 11 0 11 0 11 1 12 0 11 0 11 0 11 0 12 0 11 0 11 -1 11 0 12 0 11 0 11 0 11 0 12 -1 11 0 11 0 11 0 12 0 11 0 11 0 11 0 11 -1 11 0 12 0 11 1 11 0 11 0 0zm-8 0l0 0 0 0 0 0zm9 177l-8 0 0 0 0 -5 0 -6 0 -5 0 -6 0 -5 0 -6 0 -5 0 -6 0 -5 0 -6 0 -6 0 -5 0 -6 0 -5 0 -6 0 -5 0 -6 0 -6 0 -5 0 -6 0 -5 0 -6 0 -5 0 -6 0 -5 0 -6 0 -6 -1 -5 0 -6 0 -5 0 -6 0 -5 8 0 0 5 0 6 0 5 0 6 0 5 0 6 0 5 0 6 0 6 1 5 0 6 0 5 0 6 0 5 0 6 0 6 0 5 0 6 0 5 0 6 0 5 0 6 0 6 0 5 0 6 0 5 0 6 0 5 0 6 0 5 0 6 0 5 0 0zm0 0l0 0 0 0 0 0zm-9 446l1 -446 8 0 -1 446 -8 0 0 0zm0 0l0 0 0 0 0 0zm8 89l-8 1 0 0 0 -2 0 -3 0 -2 0 -3 0 -3 0 -2 -1 -3 0 -3 0 -3 0 -3 0 -2 0 -3 0 -3 0 -3 0 -3 1 -3 0 -3 0 -3 0 -3 0 -3 0 -3 0 -3 0 -3 0 -2 0 -3 0 -3 0 -3 0 -3 0 -3 0 -2 0 -3 0 -3 8 0 0 3 0 3 0 2 0 3 0 3 0 3 -1 3 0 3 0 3 0 2 0 3 0 3 0 3 0 3 0 3 0 3 0 3 0 3 0 3 0 3 0 3 0 2 0 3 0 3 0 3 0 2 0 3 0 3 0 2 0 3 1 2 0 3 0 -1zm-8 1l0 0 0 0 0 0zm8 358l-8 0 0 0 0 -5 0 -6 0 -8 0 -8 0 -10 0 -10 0 -11 1 -12 0 -13 0 -13 0 -13 0 -14 0 -15 0 -14 0 -15 0 -15 1 -15 0 -14 0 -15 0 -14 0 -14 0 -13 0 -13 0 -12 0 -12 -1 -11 0 -10 0 -8 0 -8 0 -7 -1 -6 0 -4 8 -1 0 5 0 6 1 6 0 8 0 9 0 10 0 11 0 12 0 12 0 13 0 13 0 14 0 14 0 15 0 14 0 15 0 15 0 15 0 14 0 15 0 14 -1 13 0 14 0 12 0 12 0 11 0 10 0 10 0 8 0 8 0 6 0 5 0 0zm0 179l-8 0 0 0 0 -6 0 -6 0 -5 0 -6 0 -6 1 -5 0 -6 0 -5 0 -6 0 -6 0 -5 0 -6 0 -6 0 -5 0 -6 0 -5 -1 -6 0 -6 0 -5 0 -6 0 -5 0 -6 0 -5 0 -6 0 -6 0 -5 0 -6 0 -5 0 -6 0 -5 0 -6 0 -5 8 0 0 5 0 6 0 5 0 6 0 5 0 6 0 5 0 6 0 5 0 6 0 6 0 5 0 6 0 5 0 6 0 6 0 5 0 6 0 5 0 6 0 6 0 5 0 6 0 6 0 5 0 6 0 5 0 6 0 6 0 5 0 6 0 6 0 0zm-8 0l0 -1 0 1 0 0zm52 310l-7 4 0 0 -5 -11 -5 -10 -4 -10 -4 -10 -4 -10 -3 -10 -3 -9 -3 -10 -3 -9 -2 -9 -2 -10 -2 -9 -1 -9 -1 -9 -1 -9 -1 -9 -1 -10 -1 -9 0 -9 0 -9 -1 -10 0 -9 0 -10 0 -10 1 -10 0 -10 0 -10 0 -11 0 -11 1 -11 0 -11 0 -11 8 0 -1 11 0 11 0 11 0 11 0 11 -1 10 0 10 0 10 0 10 0 9 0 10 0 9 1 10 0 9 1 9 0 9 1 9 1 9 1 9 2 9 2 9 2 9 2 9 2 9 3 10 3 9 3 9 4 10 4 10 4 10 5 10 5 10 0 0zm0 0l0 0 0 0 0 0zm78 101l-5 5 0 0 -3 -2 -2 -3 -3 -3 -3 -2 -3 -3 -3 -3 -2 -3 -3 -2 -3 -3 -3 -3 -2 -3 -3 -3 -2 -3 -3 -3 -3 -3 -2 -3 -3 -3 -2 -3 -3 -3 -2 -4 -3 -3 -2 -3 -2 -4 -3 -3 -2 -4 -2 -4 -2 -3 -2 -4 -3 -4 -2 -4 -2 -4 -2 -4 7 -4 2 4 2 4 2 4 2 4 2 4 2 3 3 4 2 3 2 4 2 3 3 4 2 3 2 3 3 3 2 3 3 3 2 3 3 3 2 3 3 3 2 3 3 3 3 3 2 2 3 3 3 3 2 3 3 2 3 3 3 2 3 3 2 3 0 0zm0 0l0 0 -4 -5 4 5zm259 95l0 7 0 0 -11 0 -11 0 -10 -1 -10 0 -11 -1 -9 -2 -10 -1 -10 -2 -9 -1 -9 -2 -10 -3 -8 -2 -9 -3 -9 -2 -8 -3 -8 -3 -8 -4 -8 -3 -8 -4 -8 -3 -7 -4 -7 -4 -8 -5 -7 -4 -7 -5 -6 -4 -7 -5 -6 -5 -7 -5 -6 -5 -6 -5 -6 -6 5 -5 6 5 6 5 6 5 6 5 7 5 6 5 7 4 6 5 7 4 7 4 7 4 8 4 7 3 8 4 8 3 7 4 9 3 8 2 8 3 9 3 8 2 9 2 9 2 10 2 9 2 10 1 9 1 10 1 10 1 11 0 10 1 11 0 0 0zm527 7l-527 0 0 -7 527 0 0 0 0 7zm151 -34l2 7 0 0 -4 2 -4 2 -5 2 -4 1 -5 2 -4 1 -4 2 -5 1 -4 2 -4 1 -5 1 -4 1 -5 1 -4 1 -5 1 -4 1 -5 0 -4 1 -5 1 -5 0 -5 1 -5 0 -5 1 -5 0 -5 0 -5 1 -5 0 -6 0 -5 0 -6 0 -6 0 -6 0 0 -7 6 0 6 0 6 0 5 0 5 -1 6 0 5 0 5 0 5 -1 5 0 4 -1 5 0 5 -1 4 0 5 -1 4 -1 5 -1 4 -1 5 -1 4 0 4 -2 5 -1 4 -1 4 -1 4 -1 5 -2 4 -1 4 -2 4 -1 5 -2 4 -2 5 -2 0 0zm0 0l0 0 0 0 0 0zm185 -169l7 4 0 0 -4 7 -4 7 -5 7 -4 7 -4 7 -5 7 -5 7 -5 6 -5 6 -5 7 -5 6 -6 6 -5 6 -6 6 -6 5 -5 6 -6 5 -7 6 -6 5 -6 5 -7 5 -6 4 -7 5 -7 4 -7 5 -7 4 -7 4 -7 4 -8 3 -7 4 -8 3 -8 3 -2 -7 7 -3 8 -3 7 -4 7 -3 7 -4 7 -4 7 -4 7 -4 7 -5 6 -4 7 -5 6 -4 6 -5 6 -5 7 -5 5 -6 6 -5 6 -6 5 -5 6 -6 5 -6 5 -6 5 -6 5 -7 5 -6 5 -6 4 -7 5 -7 4 -7 4 -7 4 -7 4 -7 0 0zm0 0l0 0 -1 1 1 -1zm44 -313l8 0 0 0 0 12 0 12 0 12 0 12 0 11 0 11 0 11 1 10 0 11 -1 10 0 10 0 10 0 9 -1 10 0 9 -1 10 -1 9 -1 9 -2 9 -1 10 -2 9 -2 9 -2 9 -2 9 -3 9 -3 9 -3 9 -4 9 -4 10 -4 9 -4 9 -5 10 -7 -4 5 -9 4 -9 4 -10 4 -9 4 -9 3 -9 3 -8 2 -9 3 -9 2 -9 2 -9 1 -9 2 -9 1 -9 1 -9 1 -9 1 -9 1 -9 0 -10 0 -10 1 -9 0 -10 0 -10 0 -11 0 -10 0 -11 0 -11 0 -11 -1 -12 0 -12 0 -12 0 -12 0 0zm8 0l0 0 0 0 0 0zm-8 -1438l8 0 0 0 0 45 0 44 0 45 0 45 0 45 0 45 0 45 0 45 0 45 0 45 0 45 0 45 0 44 0 45 0 45 0 45 0 45 0 45 0 45 0 45 0 45 0 45 0 45 0 45 0 45 0 45 0 45 0 45 0 45 0 45 0 45 0 45 -8 0 0 -45 0 -45 0 -45 0 -45 0 -45 0 -45 0 -45 0 -45 0 -45 0 -45 0 -45 0 -45 0 -45 0 -45 0 -45 0 -45 0 -45 0 -45 0 -45 1 -44 0 -45 0 -45 0 -45 0 -45 0 -45 0 -45 0 -45 0 -45 0 -45 0 -45 -1 -44 0 -45 0 0zm8 0l0 0 0 0 0 0zm-9 -181l8 1 0 0 0 5 0 6 0 5 0 6 0 6 0 5 0 6 0 6 0 5 0 6 0 6 0 5 0 6 0 5 0 6 0 6 0 5 0 6 0 6 0 5 0 6 0 5 0 6 0 6 0 5 0 6 0 6 0 5 1 6 0 5 0 6 0 6 -8 0 0 -6 0 -5 0 -6 0 -6 0 -5 0 -6 0 -6 0 -5 -1 -6 0 -5 0 -6 0 -6 0 -5 0 -6 0 -6 0 -5 0 -6 0 -6 0 -5 0 -6 0 -5 0 -6 0 -6 0 -5 0 -6 0 -6 0 -5 0 -6 0 -6 0 -5 0 -6 0 -5 0 -1zm0 1l0 -1 0 0 0 1zm7 -179l-7 -3 8 1 0 5 0 6 1 5 0 6 0 5 0 6 0 5 0 6 1 6 0 6 0 5 0 6 0 6 0 6 0 6 0 5 0 6 -1 6 0 6 0 6 0 6 0 5 0 6 0 6 0 5 -1 6 0 6 0 5 0 6 0 5 0 5 0 6 -8 -1 0 -5 0 -5 0 -6 1 -5 0 -6 0 -5 0 -6 0 -5 0 -6 0 -6 0 -6 1 -5 0 -6 0 -6 0 -6 0 -6 0 -5 0 -6 0 -6 0 -6 0 -6 0 -5 0 -6 0 -6 0 -5 0 -6 -1 -6 0 -5 0 -5 0 -6 -1 -5 0 -5 7 1zm-7 -3l6 -16 2 17 -8 -1zm-76 107l-4 -6 0 0 2 -2 3 -2 2 -2 3 -2 2 -2 3 -3 3 -2 3 -3 2 -3 3 -2 3 -3 3 -3 3 -3 3 -4 3 -3 2 -3 3 -4 3 -3 3 -4 3 -3 2 -4 3 -3 2 -4 3 -4 2 -4 2 -3 2 -4 2 -4 2 -4 2 -4 2 -3 1 -4 7 3 -1 4 -2 4 -2 4 -2 4 -2 4 -2 3 -3 4 -2 4 -2 4 -3 4 -3 4 -2 3 -3 4 -3 4 -3 3 -3 4 -3 3 -3 3 -3 4 -2 3 -3 3 -3 3 -3 3 -3 3 -3 2 -3 3 -3 3 -2 2 -3 2 -3 2 -2 2 -3 2 0 0zm-4 -6l0 0 0 0 0 0zm-119 72l-3 -7 0 0 4 -2 5 -1 4 -2 4 -1 4 -2 4 -2 4 -1 5 -2 4 -2 4 -2 4 -1 3 -2 4 -2 4 -2 4 -2 4 -2 4 -2 3 -2 4 -2 4 -2 3 -3 4 -2 4 -2 3 -2 4 -3 3 -2 4 -2 3 -3 4 -2 3 -3 3 -2 4 -3 4 6 -3 3 -3 2 -4 3 -3 2 -4 3 -3 2 -4 3 -4 2 -3 2 -4 3 -4 2 -3 2 -4 2 -4 3 -4 2 -4 2 -3 2 -4 2 -4 2 -4 2 -4 2 -4 1 -4 2 -4 2 -5 2 -4 1 -4 2 -4 2 -4 1 -5 2 -4 2 -4 1 0 0zm0 0l0 0 0 0 0 0zm-162 27l0 -8 0 0 5 0 6 0 6 0 5 0 6 0 6 -1 5 0 5 0 6 -1 5 -1 5 0 5 -1 5 0 5 -1 5 -1 5 -1 5 -1 5 -1 5 -1 4 -1 5 -1 5 -1 5 -1 4 -1 5 -1 4 -2 5 -1 4 -1 5 -2 4 -1 5 -2 4 -1 3 7 -5 2 -4 1 -5 2 -4 1 -5 1 -5 2 -4 1 -5 1 -5 1 -4 2 -5 1 -5 1 -5 1 -5 1 -4 1 -5 1 -5 1 -6 0 -5 1 -5 1 -5 0 -5 1 -6 1 -5 0 -5 1 -6 0 -6 0 -5 1 -6 0 -6 0 -6 0 -5 0 0 0zm-556 -8l556 0 0 8 -556 0 0 0 0 -8zm-187 7l0 -8 0 0 6 0 6 0 6 0 5 0 6 0 6 0 6 0 6 0 5 0 6 0 6 0 6 1 6 0 6 0 5 0 6 0 6 0 6 0 6 0 6 0 6 0 5 0 6 0 6 0 6 0 6 0 6 0 6 0 6 0 5 0 6 0 6 0 0 8 -6 0 -6 0 -5 0 -6 0 -6 0 -6 0 -6 0 -6 0 -6 0 -6 0 -6 0 -5 0 -6 0 -6 0 -6 -1 -6 0 -6 0 -5 0 -6 0 -6 0 -6 0 -6 0 -6 0 -5 0 -6 0 -6 0 -6 0 -6 0 -6 0 -5 0 -6 0 -6 0 0 0zm-187 0l0 -8 6 0 6 1 5 0 6 0 6 0 6 0 6 0 6 0 5 0 6 0 6 0 6 0 6 0 6 0 6 0 5 0 6 0 6 0 6 0 6 0 6 0 6 0 5 0 6 -1 6 0 6 0 6 0 6 0 6 0 5 0 6 0 6 0 0 8 -6 0 -6 0 -5 0 -6 0 -6 0 -6 0 -6 0 -6 0 -5 0 -6 0 -6 0 -6 0 -6 1 -6 0 -6 0 -6 0 -5 0 -6 0 -6 0 -6 0 -6 0 -6 0 -6 0 -6 0 -5 0 -6 0 -6 0 -6 -1 -6 0 -6 0 -6 0 -5 0z"/>
   </g>
   <g>
    <path class="fil0" d="M1167 1715l930 0 0 8 -930 0 0 0 0 -8zm-286 -87l5 -5 0 0 7 5 7 6 7 5 8 5 7 5 8 5 8 4 9 5 8 4 9 4 8 4 9 3 9 4 9 3 9 4 9 3 10 2 9 3 10 3 9 2 9 2 10 2 9 2 10 1 9 2 10 1 9 1 9 1 10 0 9 1 9 0 9 0 0 8 -9 0 -9 -1 -10 0 -9 -1 -10 -1 -9 -1 -10 -1 -9 -1 -10 -2 -10 -2 -9 -2 -10 -2 -9 -2 -10 -3 -9 -2 -10 -3 -9 -3 -9 -3 -10 -4 -9 -3 -9 -4 -9 -4 -8 -4 -9 -5 -8 -4 -9 -5 -8 -5 -8 -5 -7 -5 -8 -5 -7 -6 -7 -6 0 0zm0 0l0 0 0 1 0 -1zm-47 -47l6 -5 0 0 2 2 1 2 1 1 2 2 1 2 1 1 2 2 1 1 1 2 2 1 1 2 1 1 2 2 1 1 2 1 1 2 1 1 2 2 1 1 2 1 1 2 2 1 1 1 2 2 1 1 2 1 1 2 2 1 1 1 2 2 1 1 2 2 -5 5 -2 -1 -1 -1 -2 -2 -1 -1 -2 -2 -2 -1 -1 -1 -2 -2 -1 -1 -2 -1 -1 -2 -2 -1 -1 -1 -1 -2 -2 -1 -1 -2 -2 -1 -1 -2 -2 -1 -1 -2 -1 -1 -2 -2 -1 -1 -2 -2 -1 -1 -1 -2 -2 -1 -1 -2 -2 -2 -1 -1 -1 -2 -2 -2 0 0zm6 -5l0 0 0 0 0 0zm-36 -54l-7 -1 7 -2 1 2 1 3 1 2 1 2 1 2 2 2 1 1 1 2 1 2 1 2 1 2 1 2 1 1 1 2 1 2 1 2 1 1 1 2 1 2 1 1 1 2 1 2 2 1 1 2 1 1 1 2 1 2 2 1 1 2 1 2 2 2 1 1 -6 5 -1 -2 -2 -1 -1 -2 -1 -2 -2 -2 -1 -1 -1 -2 -1 -2 -2 -1 -1 -2 -1 -2 -1 -2 -1 -1 -1 -2 -1 -2 -1 -2 -2 -1 -1 -2 -1 -2 -1 -2 -1 -1 -1 -2 -1 -2 -1 -2 -1 -2 -1 -2 -1 -2 -1 -2 -1 -2 -2 -2 -1 -2 -1 -2 7 -1zm-7 -1l1 -12 6 10 -7 2zm7 88l-8 0 0 0 0 -2 0 -2 0 -3 0 -3 0 -2 0 -3 0 -3 0 -3 0 -2 0 -3 0 -3 0 -3 0 -3 0 -3 0 -3 0 -3 -1 -3 0 -3 0 -3 0 -3 0 -3 0 -3 0 -3 0 -2 0 -3 1 -3 0 -3 0 -2 0 -3 0 -2 0 -3 1 -2 7 1 0 2 0 2 -1 3 0 2 0 3 0 2 0 3 0 3 0 2 0 3 0 3 0 3 0 3 0 3 0 3 0 3 0 3 0 3 0 3 0 3 1 3 0 2 0 3 0 3 0 3 0 3 0 3 0 2 0 3 0 2 0 3 0 2 0 0zm-8 0l0 0 0 0 0 0zm2 628l-2 -628 8 0 1 628 0 0 -7 0zm7 0l0 0 0 0 0 0zm-1 357l-8 0 0 0 0 -12 1 -11 0 -11 0 -11 0 -12 0 -11 0 -11 0 -11 0 -11 0 -12 0 -11 0 -11 0 -11 0 -11 0 -11 0 -11 0 -11 0 -11 0 -12 0 -11 0 -11 1 -11 0 -11 0 -11 0 -11 0 -11 0 -11 0 -12 0 -11 0 -11 0 -11 0 -11 7 0 0 11 0 11 0 11 0 12 0 11 0 11 0 11 0 11 0 11 0 11 0 11 0 11 0 11 0 12 0 11 0 11 0 11 0 11 0 11 0 11 -1 11 0 12 0 11 0 11 0 11 0 11 0 11 0 12 0 11 0 11 0 11 0 12 0 0zm0 359l-8 0 0 0 0 -11 0 -12 0 -11 0 -11 0 -11 0 -11 0 -11 0 -12 0 -11 0 -11 0 -11 0 -11 0 -12 0 -11 0 -11 0 -11 0 -12 0 -11 0 -11 0 -11 0 -12 0 -11 0 -11 0 -11 0 -12 0 -11 0 -11 0 -11 0 -12 0 -11 0 -11 0 -11 8 0 0 11 0 11 0 11 0 12 0 11 0 11 0 11 0 12 0 11 0 11 0 11 0 12 0 11 0 11 0 11 0 12 0 11 0 11 0 11 0 12 0 11 0 11 0 11 0 11 0 12 0 11 0 11 0 11 0 11 0 11 0 12 0 11 0 0zm0 359l-8 0 0 0 0 -11 0 -12 0 -11 0 -11 0 -11 0 -12 0 -11 0 -11 0 -11 0 -11 0 -12 0 -11 0 -11 0 -11 0 -11 0 -12 0 -11 0 -11 0 -11 0 -12 0 -11 0 -11 0 -11 0 -11 0 -12 0 -11 0 -11 0 -11 0 -12 0 -11 0 -11 0 -11 8 0 0 11 0 11 0 11 0 12 0 11 0 11 0 11 0 12 0 11 0 11 0 11 0 11 0 12 0 11 0 11 0 11 0 12 0 11 0 11 0 11 0 11 0 12 0 11 0 11 0 11 0 11 0 12 0 11 0 11 0 11 0 12 0 11 0 0zm117 418l-6 5 0 0 -12 -12 -11 -13 -10 -12 -10 -12 -9 -12 -8 -12 -7 -12 -7 -12 -6 -12 -6 -12 -5 -12 -4 -12 -4 -12 -4 -12 -3 -12 -3 -13 -2 -12 -2 -13 -1 -12 -2 -14 -1 -13 -1 -13 0 -14 -1 -14 0 -14 0 -15 0 -15 0 -15 0 -16 0 -16 0 -16 0 -17 8 0 0 17 0 16 0 16 0 16 0 15 0 15 0 15 0 14 0 14 1 13 1 14 1 13 1 13 2 12 2 13 2 12 2 12 3 12 4 12 4 12 4 11 5 12 6 12 6 11 6 12 8 12 8 11 8 12 10 12 10 12 11 12 11 13 1 0zm-1 0l1 0 0 0 -1 0zm11 9l-5 6 0 0 -1 0 0 -1 0 0 -1 0 0 -1 -1 0 0 0 0 0 -1 -1 0 0 0 0 -1 0 0 -1 0 0 -1 0 0 0 0 -1 -1 0 0 0 0 0 -1 -1 0 0 0 0 0 -1 -1 0 0 0 -1 -1 0 0 0 -1 -1 0 0 -1 0 0 6 -5 0 1 0 0 1 1 0 0 0 0 1 1 0 0 0 0 0 0 1 1 0 0 0 0 0 0 0 0 1 1 0 0 0 0 0 0 1 0 0 0 0 1 0 0 1 0 0 0 0 1 1 0 0 0 1 0 0 1 1 0 0 0 1 1 0 0zm0 0l0 0 0 0 0 0zm95 62l-3 7 0 0 -5 -2 -4 -2 -4 -2 -4 -2 -4 -2 -4 -2 -3 -1 -3 -2 -4 -2 -3 -1 -3 -2 -2 -2 -3 -2 -3 -1 -3 -2 -2 -2 -3 -1 -2 -2 -3 -2 -2 -2 -3 -2 -2 -2 -3 -2 -2 -2 -3 -2 -2 -2 -3 -2 -3 -3 -3 -2 -3 -3 -3 -2 -3 -3 5 -6 3 3 3 2 3 3 3 3 3 2 3 2 2 2 3 2 2 3 3 1 2 2 2 2 3 2 2 2 3 1 2 2 3 2 2 1 3 2 2 2 3 1 3 2 3 2 3 1 3 2 4 2 3 1 4 2 4 2 4 2 5 2 4 2 0 0zm0 0l0 0 1 0 -1 0zm324 32l0 7 0 0 -10 1 -11 0 -11 0 -11 0 -11 0 -11 0 -11 0 -10 0 -11 1 -11 0 -11 0 -10 0 -11 -1 -11 0 -10 0 -11 -1 -10 0 -10 -1 -11 -1 -10 -1 -10 -1 -10 -1 -10 -2 -10 -2 -9 -2 -10 -2 -9 -2 -10 -3 -9 -3 -9 -3 -9 -4 -9 -4 3 -7 9 4 9 3 8 4 9 3 10 2 9 3 9 2 10 2 9 2 10 1 10 2 10 1 10 1 10 1 10 0 11 1 10 0 11 1 10 0 11 0 10 0 11 0 11 0 10 0 11 0 11 0 11 -1 11 0 11 0 11 0 10 0 11 0 0 0zm351 1l0 8 0 0 -11 0 -11 0 -11 0 -11 0 -11 0 -11 0 -11 0 -11 0 -11 0 -11 0 -10 -1 -11 0 -11 0 -11 0 -11 0 -11 0 -11 0 -11 0 -11 0 -11 0 -11 0 -11 0 -11 0 -11 0 -11 0 -11 0 -11 0 -11 0 -11 0 -11 -1 -11 0 -11 0 0 -7 11 0 11 0 11 0 11 0 11 0 11 0 11 0 11 0 11 0 11 0 11 0 11 0 11 0 11 0 11 0 11 1 11 0 11 0 11 0 11 0 11 0 11 0 10 0 11 0 11 0 11 0 11 0 11 0 11 0 11 0 11 0 11 0 0 0zm152 -24l3 8 0 0 -5 1 -4 2 -5 1 -4 2 -5 1 -4 2 -5 1 -4 1 -5 1 -4 2 -5 1 -4 1 -5 0 -4 1 -5 1 -5 1 -4 0 -5 1 -5 1 -5 0 -5 1 -5 0 -5 0 -5 1 -5 0 -5 0 -5 0 -6 1 -5 0 -5 0 -6 0 -6 0 0 -8 6 0 5 0 6 0 5 0 6 0 5 0 5 -1 5 0 5 0 5 -1 5 0 4 0 5 -1 5 -1 5 0 4 -1 5 0 4 -1 5 -1 4 -1 5 -1 4 -1 5 -1 4 -1 4 -1 5 -2 4 -1 4 -1 5 -2 4 -1 5 -2 4 -2 0 0zm0 0l0 0 0 0 0 0zm145 -97l6 5 0 0 -4 4 -4 4 -3 3 -4 4 -4 4 -4 4 -5 3 -4 4 -4 4 -5 3 -4 4 -5 3 -4 4 -5 3 -5 3 -4 4 -5 3 -5 3 -5 3 -5 3 -5 3 -5 3 -5 3 -5 2 -5 3 -5 2 -5 3 -5 2 -5 2 -5 3 -5 2 -5 2 -3 -8 5 -2 5 -2 5 -2 5 -2 5 -2 5 -2 5 -3 4 -2 5 -3 5 -3 5 -3 5 -2 5 -3 5 -3 5 -3 4 -4 5 -3 5 -3 4 -3 5 -4 4 -3 5 -4 4 -3 4 -4 4 -3 4 -4 4 -4 4 -3 4 -4 4 -4 3 -4 4 -3 0 0zm6 5l0 0 -1 0 1 0zm85 -205l8 1 0 0 -1 7 -1 8 -2 7 -1 7 -2 7 -1 8 -2 7 -2 6 -2 7 -3 7 -2 7 -2 7 -3 6 -3 7 -2 6 -3 6 -3 7 -3 6 -4 6 -3 6 -4 6 -3 6 -4 6 -4 6 -3 6 -4 6 -5 5 -4 6 -4 5 -4 6 -5 5 -4 6 -6 -5 4 -6 5 -5 4 -5 4 -6 4 -5 4 -6 4 -5 4 -6 4 -6 3 -6 4 -5 3 -6 4 -6 3 -6 3 -7 3 -6 3 -6 2 -6 3 -7 3 -6 2 -7 2 -6 2 -7 2 -7 2 -6 2 -7 2 -7 1 -7 2 -7 1 -7 1 -8 1 -7 0 0zm0 0l0 0 0 0 0 0zm4 -174l8 0 0 0 0 5 0 5 0 6 0 5 0 6 0 5 0 6 0 5 0 6 1 6 0 5 0 6 0 6 0 6 0 5 0 6 0 6 0 5 0 6 0 6 -1 5 0 6 0 5 0 6 0 5 -1 6 0 5 -1 5 0 5 -1 5 0 5 -1 5 -8 -1 1 -5 1 -5 0 -5 1 -5 0 -5 1 -5 0 -5 0 -6 0 -5 1 -5 0 -6 0 -5 0 -6 0 -6 0 -5 0 -6 0 -6 0 -5 0 -6 0 -6 0 -5 0 -6 0 -6 0 -5 0 -6 0 -6 -1 -5 0 -6 0 -5 0 -6 0 -5 0 -5 0 0zm8 0l0 0 0 0 0 0zm-1 -900l1 900 -8 0 -1 -900 8 0 0 0zm0 0l0 0 0 0 0 0zm-7 -538l8 0 0 -1 0 17 0 17 0 17 0 17 0 16 0 17 0 17 0 17 0 17 0 17 0 16 0 17 0 17 -1 17 0 17 0 17 0 16 0 17 0 17 0 17 0 17 0 17 -1 16 0 17 0 17 0 17 0 17 0 16 0 17 0 17 0 17 1 17 -8 0 0 -17 0 -17 0 -17 0 -17 0 -16 0 -17 0 -17 0 -17 0 -17 0 -16 0 -17 0 -17 0 -17 0 -17 0 -17 1 -16 0 -17 0 -17 0 -17 0 -17 0 -17 0 -16 0 -17 0 -17 0 -17 0 -17 0 -17 0 -16 0 -17 0 -17 0 -17 0 -16 0 0zm0 0l0 0 0 0 0 0zm-1 -91l8 0 0 0 0 2 0 3 0 3 0 3 0 3 0 2 0 3 0 3 0 3 0 3 0 2 0 3 0 3 0 3 0 3 0 3 0 2 0 3 0 3 0 3 0 3 1 3 0 3 0 2 0 3 0 3 0 3 0 3 0 3 0 3 0 3 0 3 -8 0 0 -3 0 -3 0 -3 0 -3 0 -3 0 -3 0 -3 0 -2 0 -3 0 -3 0 -3 0 -3 0 -3 0 -3 0 -2 0 -3 0 -3 -1 -3 0 -3 0 -3 0 -3 0 -2 0 -3 0 -3 0 -3 0 -3 0 -2 0 -3 0 -3 0 -3 0 -3 0 -2 0 0zm0 0l0 0 0 0 0 0zm5 -87l0 -8 4 4 0 3 0 2 0 3 0 3 0 3 0 3 0 2 0 3 0 3 0 3 0 3 0 2 0 3 0 3 0 3 0 3 0 3 0 3 0 2 0 3 0 3 0 3 0 3 -1 3 0 3 0 3 0 2 0 3 0 3 0 3 0 3 0 3 -8 0 0 -3 0 -3 0 -3 0 -3 1 -3 0 -3 0 -3 0 -2 0 -3 0 -3 0 -3 0 -3 0 -3 0 -3 0 -2 1 -3 0 -3 0 -3 0 -3 0 -3 0 -2 0 -3 0 -3 0 -3 0 -3 0 -2 0 -3 0 -3 0 -3 -1 -2 0 -3 0 -3 4 4zm0 -8l4 0 0 4 -4 -4z"/>
   </g>
   <g>
    <path class="fil0" d="M719 4329l0 249 -8 0 0 -249 4 -4 4 4zm-4 -4l4 0 0 4 -4 -4zm-85 31l-5 -6 0 0 2 -1 1 -2 2 -2 3 -1 2 -2 2 -1 3 -2 2 -1 3 -1 2 -1 3 -2 3 -1 3 -1 3 -1 3 -1 3 0 3 -1 3 -1 3 -1 3 0 4 -1 3 0 3 -1 3 0 3 0 4 0 3 0 3 -1 3 0 3 1 3 0 3 0 0 8 -3 -1 -3 0 -3 0 -3 0 -3 0 -3 0 -3 0 -3 1 -3 0 -3 0 -3 1 -3 0 -3 1 -3 1 -3 0 -3 1 -3 1 -3 1 -3 1 -2 0 -3 1 -3 2 -2 1 -3 1 -2 1 -2 1 -2 2 -2 1 -2 1 -2 2 -1 1 -2 2 0 0zm0 0l0 0 1 -1 -1 1zm-12 98l-8 0 0 0 0 -3 0 -4 0 -3 0 -4 0 -3 0 -4 0 -3 0 -4 0 -4 0 -3 0 -4 0 -4 0 -3 0 -4 0 -3 1 -4 0 -3 0 -4 0 -3 1 -4 0 -3 1 -3 1 -3 0 -3 1 -3 1 -3 1 -3 2 -2 1 -3 1 -2 2 -3 2 -2 5 6 -1 1 -1 2 -1 2 -2 2 -1 2 -1 3 0 2 -1 3 -1 3 -1 2 0 3 -1 3 0 4 0 3 -1 3 0 4 0 3 0 3 0 4 0 4 0 3 0 4 0 3 0 4 0 4 0 3 0 4 0 3 0 4 0 3 0 4 0 3 0 0zm11 97l-6 5 0 0 -1 -2 -2 -3 -1 -2 -1 -3 -1 -3 -1 -3 -1 -3 -1 -3 -1 -3 0 -3 -1 -3 0 -4 -1 -3 0 -4 0 -3 -1 -4 0 -3 0 -4 0 -3 0 -4 0 -4 0 -3 0 -4 0 -3 0 -3 0 -4 0 -3 0 -3 0 -3 0 -3 0 -3 0 -3 8 0 0 3 0 3 0 3 0 3 0 3 0 3 0 4 0 3 0 4 0 3 0 3 0 4 0 3 0 4 0 3 0 4 0 3 0 4 1 3 0 3 1 4 0 3 1 3 0 3 1 2 1 3 1 3 1 2 1 2 1 2 1 2 1 2 0 0zm82 27l8 0 -3 3 -3 1 -3 0 -2 1 -4 0 -3 0 -3 0 -3 0 -3 -1 -4 0 -3 -1 -4 0 -3 -1 -4 -1 -3 0 -4 -1 -3 -1 -3 -1 -4 -1 -3 -2 -3 -1 -3 -1 -3 -1 -3 -1 -3 -2 -2 -1 -3 -2 -2 -1 -2 -1 -2 -2 -2 -1 -1 -2 -2 -1 6 -5 1 1 1 1 2 1 1 1 2 2 2 1 2 1 3 1 2 2 3 1 3 1 3 1 3 1 3 1 3 1 3 1 3 1 4 1 3 1 3 1 4 0 3 1 3 0 3 1 3 0 3 0 3 0 3 0 3 0 2 0 3 -1 2 0 -3 4zm8 0l0 3 -3 0 3 -3z"/>
   </g>
   <g>
    <path class="fil0" d="M2246 4641l-109 0 0 -7 109 0 0 0 0 7zm24 17l-8 0 0 0 0 -1 0 -1 0 -1 0 -1 -1 0 0 -1 0 -1 0 -1 -1 0 0 -1 0 -1 -1 0 0 -1 -1 -1 0 0 -1 -1 0 0 -1 -1 -1 0 0 -1 -1 0 -1 -1 0 0 -1 0 -1 -1 -1 0 0 0 -1 0 -1 0 -1 -1 -1 0 0 0 0 -7 1 0 1 0 1 0 1 0 2 0 1 1 1 0 1 1 1 0 1 1 1 0 1 1 1 0 1 1 1 1 1 1 0 1 1 0 1 1 0 1 1 1 1 1 0 1 1 1 0 1 0 2 1 1 0 1 0 1 0 1 1 1 0 2 0 0zm-8 127l0 -127 8 0 0 127 0 0 -8 0zm-16 24l0 -7 0 0 0 0 1 0 1 -1 1 0 1 0 0 0 1 0 1 -1 1 0 0 0 1 -1 1 0 0 -1 1 0 1 -1 0 0 1 -1 0 0 1 -1 0 -1 1 0 0 -1 0 -1 1 0 0 -1 0 -1 0 -1 1 0 0 -1 0 -1 0 -1 0 -1 8 0 0 2 -1 1 0 1 0 1 0 1 -1 1 0 2 0 1 -1 1 0 1 -1 1 -1 1 0 1 -1 1 -1 0 0 1 -1 1 -1 1 -1 0 -1 1 -1 1 -1 0 -1 1 -1 0 -1 1 -1 0 -1 0 -2 1 -1 0 -1 0 -1 0 -1 0 0 0zm-109 -7l109 0 0 7 -109 0 0 0 0 -7zm-24 -17l8 0 0 0 0 1 0 1 0 1 0 1 0 0 1 1 0 1 0 1 1 0 0 1 0 1 1 0 0 1 1 1 0 0 1 1 0 0 1 1 1 0 0 1 1 0 0 1 1 0 1 0 1 1 0 0 1 0 1 0 1 0 1 1 0 0 1 0 0 7 -1 0 -1 0 -1 0 -2 0 -1 -1 -1 0 -1 0 -1 -1 -1 0 -1 -1 -1 0 -1 -1 -1 -1 -1 0 -1 -1 -1 -1 0 -1 -1 0 -1 -1 -1 -1 0 -1 -1 -1 0 -1 -1 -1 0 -1 -1 -2 0 -1 0 -1 0 -1 -1 -1 0 -1 0 -2 0 0zm8 -127l0 127 -8 0 0 -127 0 0 8 0zm16 -24l0 7 0 0 -1 0 0 0 -1 1 -1 0 -1 0 -1 0 0 0 -1 1 -1 0 -1 0 0 1 -1 0 0 1 -1 0 -1 1 0 0 -1 1 0 0 -1 1 0 1 -1 0 0 1 0 1 -1 0 0 1 0 1 -1 1 0 0 0 1 0 1 0 1 0 1 -8 0 0 -2 0 -1 1 -1 0 -1 0 -1 0 -1 1 -2 0 -1 1 -1 0 -1 1 -1 0 -1 1 -1 1 -1 1 0 0 -1 1 -1 1 -1 1 -1 1 0 1 -1 1 0 1 -1 1 0 1 -1 1 0 1 -1 1 0 2 0 1 0 1 0 1 0 0 0z"/>
   </g>
   <g>
    <path class="fil0" d="M2528 4641l-128 0 0 -7 128 0 0 0 0 7zm23 17l-7 0 0 0 0 -1 0 -1 0 -1 -1 -1 0 0 0 -1 0 -1 0 -1 -1 0 0 -1 -1 -1 0 0 0 -1 -1 -1 0 0 -1 -1 -1 0 0 -1 -1 0 0 -1 -1 0 -1 -1 0 0 -1 0 -1 -1 -1 0 0 0 -1 0 -1 0 -1 -1 -1 0 0 0 0 -7 1 0 1 0 1 0 1 0 1 0 2 1 1 0 1 1 1 0 1 1 1 0 1 1 1 0 1 1 1 1 0 1 1 1 1 0 1 1 0 1 1 1 1 1 0 1 1 1 0 1 0 2 1 1 0 1 0 1 0 1 0 1 0 2 0 0zm-7 127l0 -127 7 0 0 127 0 0 -7 0zm-16 24l0 -7 0 0 0 0 1 0 1 -1 1 0 1 0 0 0 1 0 1 -1 1 0 0 0 1 -1 1 0 0 -1 1 0 0 -1 1 0 1 -1 0 0 1 -1 0 -1 0 0 1 -1 0 -1 1 0 0 -1 0 -1 0 -1 0 0 1 -1 0 -1 0 -1 0 -1 7 0 0 2 0 1 0 1 0 1 0 1 -1 1 0 2 0 1 -1 1 0 1 -1 1 -1 1 0 1 -1 1 -1 0 -1 1 0 1 -1 1 -1 0 -1 1 -1 1 -1 0 -1 1 -1 0 -1 1 -1 0 -2 0 -1 1 -1 0 -1 0 -1 0 -1 0 0 0zm-128 -7l128 0 0 7 -128 0 0 0 0 -7zm-24 -17l8 0 0 0 0 1 0 1 0 1 0 1 0 0 0 1 1 1 0 1 0 0 0 1 1 1 0 0 1 1 0 1 1 0 0 1 1 0 0 1 1 0 1 1 0 0 1 1 1 0 0 0 1 1 1 0 1 0 1 0 0 0 1 1 1 0 1 0 0 7 -1 0 -2 0 -1 0 -1 0 -1 -1 -1 0 -1 0 -1 -1 -2 0 -1 -1 -1 0 -1 -1 0 -1 -1 0 -1 -1 -1 -1 -1 -1 -1 0 0 -1 -1 -1 -1 -1 0 -1 -1 -1 0 -1 -1 -1 0 -2 0 -1 -1 -1 0 -1 0 -1 0 -1 0 -2 0 0zm8 -127l0 127 -8 0 0 -127 0 0 8 0zm16 -24l0 7 0 0 -1 0 -1 0 -1 1 0 0 -1 0 -1 0 -1 0 -1 1 0 0 -1 0 -1 1 0 0 -1 1 -1 0 0 1 -1 0 0 1 -1 0 0 1 -1 1 0 0 -1 1 0 1 0 0 0 1 -1 1 0 1 0 0 0 1 0 1 0 1 0 1 -8 0 0 -2 0 -1 0 -1 0 -1 1 -1 0 -1 0 -2 1 -1 0 -1 1 -1 0 -1 1 -1 1 -1 0 -1 1 0 1 -1 1 -1 1 -1 1 -1 0 0 1 -1 1 0 1 -1 2 0 1 -1 1 0 1 -1 1 0 1 0 1 0 2 0 1 0 0 0z"/>
   </g>
   <g>
    <path class="fil0" d="M1140 4641l-127 0 0 -7 127 0 0 0 0 7zm24 17l-7 0 0 0 0 -1 -1 -1 0 -1 0 -1 0 -1 0 0 0 -1 -1 -1 0 -1 0 0 -1 -1 0 -1 -1 0 0 -1 -1 0 0 -1 -1 -1 0 0 -1 -1 -1 0 0 0 -1 -1 -1 0 0 0 -1 -1 -1 0 -1 0 0 0 -1 -1 -1 0 -1 0 -1 0 0 -7 1 0 2 0 1 0 1 0 1 0 1 1 1 0 2 0 1 1 1 1 1 0 1 1 1 0 0 1 1 1 1 1 1 0 1 1 0 1 1 1 1 1 0 1 1 1 0 1 1 1 0 1 0 2 1 1 0 1 0 1 0 1 0 2 0 0zm-7 127l0 -127 7 0 0 127 0 0 -7 0zm-17 24l0 -7 0 0 1 0 1 -1 1 0 1 0 0 0 1 0 1 0 1 -1 0 0 1 0 1 -1 0 0 1 -1 1 0 0 -1 1 0 0 -1 1 0 0 -1 1 -1 0 0 1 -1 0 -1 0 0 1 -1 0 -1 0 -1 0 -1 0 0 0 -1 1 -1 0 -1 7 0 0 1 0 2 0 1 0 1 -1 1 0 1 0 1 -1 2 0 1 -1 1 0 1 -1 1 -1 1 0 0 -1 1 -1 1 -1 1 -1 1 0 0 -1 1 -1 1 -1 0 -1 1 -1 0 -2 1 -1 0 -1 0 -1 1 -1 0 -1 0 -2 0 -1 0 0 0zm-127 -7l127 0 0 7 -127 0 0 0 0 -7zm-24 -17l7 0 0 0 0 1 0 1 0 1 1 0 0 1 0 1 0 1 1 1 0 0 0 1 1 1 0 0 1 1 0 1 1 0 0 1 1 0 0 1 1 0 0 1 1 0 1 1 1 0 0 0 1 1 1 0 1 0 0 0 1 0 1 0 1 1 1 0 0 7 -2 0 -1 0 -1 0 -1 0 -1 -1 -2 0 -1 0 -1 -1 -1 0 -1 -1 -1 0 -1 -1 -1 -1 -1 0 -1 -1 0 -1 -1 -1 -1 -1 -1 0 0 -1 -1 -1 0 -1 -1 -1 0 -1 -1 -2 0 -1 -1 -1 0 -1 0 -1 0 -1 0 -2 0 -1 0 0zm7 -127l0 127 -7 0 0 -127 0 0 7 0zm17 -24l0 7 0 0 -1 0 -1 0 -1 0 -1 1 0 0 -1 0 -1 0 -1 1 0 0 -1 0 -1 1 -1 0 0 0 -1 1 0 0 -1 1 0 1 -1 0 0 1 -1 0 0 1 -1 1 0 0 0 1 -1 1 0 1 0 0 0 1 -1 1 0 1 0 1 0 1 -7 0 0 -2 0 -1 0 -1 0 -1 0 -1 1 -2 0 -1 1 -1 0 -1 1 -1 0 -1 1 -1 0 -1 1 -1 1 -1 1 0 0 -1 1 -1 1 -1 1 0 1 -1 1 0 1 -1 1 -1 1 0 1 0 2 -1 1 0 1 0 1 0 1 0 2 0 0 0z"/>
   </g>
   <g>
    <path class="fil0" d="M2032 4692l-592 0 0 -8 592 0 0 0 0 8zm35 29l-8 0 0 0 0 -1 0 -2 0 -1 0 -2 -1 -1 0 -1 0 -2 -1 -1 0 -1 -1 -2 -1 -1 0 -1 -1 -1 -1 -1 -1 -2 -1 -1 -1 -1 -1 0 -1 -1 -1 -1 -1 -1 -1 -1 -1 0 -2 -1 -1 0 -1 -1 -2 0 -1 -1 -1 0 -2 0 -1 0 -1 0 0 -8 2 0 1 0 2 1 2 0 2 0 1 1 2 1 1 0 2 1 2 1 1 1 1 1 2 1 1 1 1 1 2 1 1 2 1 1 1 1 1 2 1 1 1 2 0 1 1 2 1 2 0 1 1 2 0 2 1 2 0 2 0 2 0 1 0 0zm-35 38l0 -8 0 0 1 0 1 0 2 0 1 0 1 -1 2 0 1 -1 1 0 2 -1 1 0 1 -1 1 -1 1 -1 1 -1 1 -1 1 0 1 -2 1 -1 1 -1 1 -1 0 -1 1 -1 1 -2 0 -1 1 -1 0 -2 0 -1 1 -2 0 -1 0 -1 0 -2 0 -2 8 0 0 2 0 2 0 2 -1 2 0 2 -1 1 0 2 -1 2 -1 2 0 1 -1 2 -1 1 -1 2 -1 1 -1 1 -1 2 -2 1 -1 1 -1 1 -2 1 -1 1 -1 1 -2 1 -2 1 -1 0 -2 1 -1 1 -2 0 -2 0 -2 1 -1 0 -2 0 0 0zm-592 -8l592 0 0 8 -592 0 0 0 0 -8zm-35 -30l7 0 0 0 1 2 0 2 0 1 0 1 0 2 1 1 0 2 1 1 0 1 1 2 1 1 0 1 1 1 1 1 1 1 1 2 1 0 1 1 1 1 1 1 1 1 1 1 1 0 1 1 2 0 1 1 1 0 2 1 1 0 1 0 2 0 1 0 0 8 -2 0 -2 0 -1 -1 -2 0 -2 0 -1 -1 -2 -1 -2 0 -1 -1 -2 -1 -1 -1 -2 -1 -1 -1 -1 -1 -2 -1 -1 -1 -1 -2 -1 -1 -1 -1 -1 -2 -1 -1 -1 -2 -1 -1 0 -2 -1 -2 -1 -2 0 -1 0 -2 -1 -2 0 -2 0 -2 0 -2 0 0zm35 -37l0 8 0 0 -1 0 -2 0 -1 0 -1 0 -2 1 -1 0 -1 1 -2 0 -1 1 -1 0 -1 1 -1 1 -1 1 -1 1 -1 0 -1 1 -1 1 -1 2 -1 1 -1 1 0 1 -1 1 -1 2 0 1 -1 1 0 2 -1 1 0 1 0 2 0 1 0 2 -1 1 -7 0 0 -1 0 -2 0 -2 1 -2 0 -2 0 -2 1 -1 1 -2 0 -2 1 -1 1 -2 1 -1 1 -2 1 -1 1 -1 1 -2 1 -1 2 -1 1 -1 1 -1 2 -1 1 -1 2 -1 1 -1 2 0 2 -1 1 -1 2 0 2 0 1 -1 2 0 2 0 0 0z"/>
   </g>
   <g>
    <path class="fil0" d="M1489 5160l-215 0 0 -8 215 0 0 0 0 8zm21 14l-8 0 0 0 0 -1 0 -1 0 0 0 -1 0 -1 0 0 -1 -1 0 -1 0 0 0 -1 -1 -1 0 0 0 -1 -1 0 0 -1 -1 0 0 -1 -1 0 0 -1 -1 0 0 0 -1 -1 -1 0 0 0 -1 -1 0 0 -1 0 -1 0 0 0 -1 0 -1 0 0 0 0 -8 1 0 1 0 1 0 1 0 1 1 1 0 1 0 1 1 1 0 1 1 1 0 1 1 0 0 1 1 1 1 1 0 0 1 1 1 1 1 0 1 1 0 0 1 1 1 0 1 1 1 0 1 0 1 0 1 1 1 0 2 0 1 0 1 0 0zm-21 21l0 -7 0 0 0 0 1 0 1 0 0 0 1 -1 1 0 0 0 1 0 0 -1 1 0 1 0 0 -1 1 0 0 0 1 -1 0 0 1 -1 0 0 1 -1 0 0 0 -1 1 -1 0 0 0 -1 0 0 1 -1 0 -1 0 0 0 -1 0 -1 0 -1 0 0 8 0 0 1 0 1 0 1 -1 1 0 1 0 1 0 1 -1 1 0 1 -1 1 0 1 -1 1 0 1 -1 0 -1 1 0 1 -1 1 -1 0 -1 1 0 1 -1 0 -1 1 -1 0 -1 1 -1 0 -1 0 -1 1 -1 0 -1 0 -1 0 -1 0 -1 0 0 0zm-215 -7l215 0 0 7 -215 0 0 0 0 -7zm-21 -14l8 0 0 0 0 0 0 1 0 1 0 1 0 0 0 1 0 1 1 0 0 1 0 0 1 1 0 1 0 0 1 1 0 0 1 1 0 0 1 1 0 0 1 0 0 1 1 0 0 0 1 1 1 0 0 0 1 0 1 1 0 0 1 0 1 0 0 0 0 7 -1 0 -1 0 -1 0 -1 0 -1 0 -1 -1 -1 0 -1 0 -1 -1 -1 0 -1 -1 -1 0 0 -1 -1 -1 -1 0 -1 -1 -1 -1 0 -1 -1 0 0 -1 -1 -1 0 -1 -1 -1 0 -1 -1 -1 0 -1 0 -1 -1 -1 0 -1 0 -1 0 -1 0 -1 0 0zm21 -22l0 8 0 0 0 0 -1 0 -1 0 0 0 -1 0 -1 0 0 0 -1 1 -1 0 0 0 -1 1 0 0 -1 0 0 1 -1 0 0 1 -1 0 0 1 -1 0 0 1 0 0 -1 1 0 1 0 0 -1 1 0 1 0 0 0 1 0 1 0 0 0 1 0 1 -8 0 0 -1 0 -1 0 -2 0 -1 1 -1 0 -1 0 -1 1 -1 0 -1 1 -1 0 -1 1 0 0 -1 1 -1 0 -1 1 -1 1 0 1 -1 1 -1 0 0 1 -1 1 0 1 -1 1 0 1 -1 1 0 1 0 1 -1 1 0 1 0 1 0 1 0 0 0z"/>
   </g>
   <g>
    <path class="fil0" d="M1489 5237l-215 0 0 -8 215 0 0 0 0 8zm21 14l-8 0 0 0 0 -1 0 0 0 -1 0 -1 0 0 0 -1 -1 -1 0 0 0 -1 0 -1 -1 0 0 -1 0 0 -1 -1 0 0 -1 -1 0 0 -1 -1 0 0 -1 -1 0 0 -1 0 -1 -1 0 0 -1 0 0 0 -1 -1 -1 0 0 0 -1 0 -1 0 0 0 0 -8 1 0 1 0 1 1 1 0 1 0 1 0 1 1 1 0 1 1 1 0 1 1 1 0 0 1 1 0 1 1 1 1 0 1 1 0 1 1 0 1 1 1 0 1 1 1 0 1 1 1 0 1 0 1 0 1 1 1 0 1 0 1 0 1 0 0zm-21 22l0 -8 0 0 0 0 1 0 1 0 0 0 1 0 1 0 0 -1 1 0 0 0 1 0 1 -1 0 0 1 -1 0 0 1 0 0 -1 1 0 0 -1 1 0 0 -1 0 -1 1 0 0 -1 0 0 0 -1 1 -1 0 0 0 -1 0 -1 0 0 0 -1 0 -1 8 0 0 1 0 1 0 1 -1 1 0 1 0 2 0 1 -1 1 0 0 -1 1 0 1 -1 1 0 1 -1 1 -1 1 0 0 -1 1 -1 1 -1 0 0 1 -1 1 -1 0 -1 1 -1 0 -1 1 -1 0 -1 0 -1 0 -1 1 -1 0 -1 0 -1 0 0 0zm-215 -8l215 0 0 8 -215 0 0 0 0 -8zm-21 -14l8 0 0 0 0 1 0 1 0 0 0 1 0 1 0 0 0 1 1 1 0 0 0 1 1 0 0 1 0 1 1 0 0 1 1 0 0 1 1 0 0 0 1 1 0 0 1 1 0 0 1 0 1 0 0 1 1 0 1 0 0 0 1 0 1 0 0 0 0 8 -1 0 -1 0 -1 0 -1 -1 -1 0 -1 0 -1 0 -1 -1 -1 0 -1 -1 -1 0 -1 -1 0 -1 -1 0 -1 -1 -1 -1 -1 0 0 -1 -1 -1 0 -1 -1 -1 0 -1 -1 -1 0 0 -1 -1 0 -1 0 -2 -1 -1 0 -1 0 -1 0 -1 0 -1 0 0zm21 -22l0 8 0 0 0 0 -1 0 -1 0 0 0 -1 0 -1 1 0 0 -1 0 -1 0 0 1 -1 0 0 0 -1 1 0 0 -1 1 0 0 -1 1 0 0 -1 1 0 0 0 1 -1 0 0 1 0 1 -1 0 0 1 0 1 0 0 0 1 0 1 0 0 0 1 -8 0 0 -1 0 -1 0 -1 0 -1 1 -1 0 -1 0 -1 1 -1 0 -1 1 -1 0 -1 1 -1 0 -1 1 -1 0 0 1 -1 1 -1 1 -1 1 0 0 -1 1 0 1 -1 1 0 1 -1 1 0 1 -1 1 0 1 0 1 0 1 -1 1 0 1 0 0 0z"/>
   </g>
   <g>
    <path class="fil0" d="M1401 3441l-9 -8 4 -6 10 8 -5 6 0 0zm0 0l0 0 -2 -2 2 2zm6 10l-5 -5 0 0 0 0 0 0 0 -1 0 0 0 0 0 0 0 0 0 0 0 0 0 0 1 -1 0 0 0 0 0 0 0 0 0 0 0 0 -1 -1 0 0 0 0 0 0 0 0 0 0 0 -1 0 0 0 0 0 0 0 0 0 0 -1 -1 0 0 0 0 5 -6 0 1 1 0 0 1 1 0 0 0 0 1 1 0 0 1 0 0 0 1 1 0 0 1 0 0 0 1 0 0 0 1 0 0 0 1 0 1 0 0 0 1 0 0 0 1 0 0 -1 1 0 0 0 1 0 0 -1 1 0 0 0 1 -1 0 0 0zm-15 1l5 -6 0 0 0 1 0 0 1 0 0 0 0 0 0 0 0 0 0 0 1 0 0 0 0 0 0 0 0 0 0 0 0 0 0 0 0 0 0 0 1 0 0 0 0 0 0 0 0 0 0 0 1 0 0 0 0 0 0 -1 0 0 0 0 1 0 0 0 5 5 0 0 0 1 -1 0 0 0 0 1 -1 0 0 0 -1 1 0 0 -1 0 0 0 0 0 -1 1 0 0 -1 0 0 0 -1 0 0 0 -1 0 -1 0 0 0 -1 0 0 0 -1 0 0 -1 -1 0 0 0 -1 0 -1 -1 0 0 -1 0 0 -1 0 0zm-8 -16l13 10 -5 6 -13 -10 5 -6 0 0zm0 0l0 0 0 0 0 0zm-13 3l0 -7 0 0 1 0 0 0 0 0 1 0 0 0 1 0 0 0 1 0 0 0 1 0 0 0 0 0 1 0 0 0 1 1 0 0 1 0 0 0 0 0 1 0 0 0 0 1 1 0 0 0 1 0 0 0 0 1 1 0 0 0 0 0 1 0 0 1 -5 6 0 0 0 0 0 -1 0 0 -1 0 0 0 0 0 0 0 -1 0 0 0 0 -1 0 0 -1 0 0 0 0 0 0 0 -1 0 0 0 0 0 0 0 -1 0 0 0 0 -1 0 0 -1 0 0 0 0 0 -1 0 0 0 0 0 -1 0 0 0 0 0zm-62 -7l62 0 0 7 -62 0 0 0 0 -7zm-40 -32l8 0 0 0 0 1 0 2 0 2 0 1 1 2 0 1 1 2 0 1 1 1 1 2 0 1 1 1 1 2 1 1 1 1 1 1 1 1 1 1 2 1 1 1 1 1 1 1 2 0 1 1 2 1 1 0 2 1 1 0 2 0 1 0 2 1 2 0 0 7 -2 0 -2 0 -2 0 -2 -1 -2 0 -2 -1 -2 0 -2 -1 -1 -1 -2 -1 -2 -1 -1 -1 -2 -1 -1 -1 -2 -1 -1 -1 -2 -2 -1 -1 -1 -2 -1 -1 -1 -2 -1 -2 -1 -1 -1 -2 -1 -2 0 -2 -1 -1 0 -2 0 -2 -1 -2 0 -2 0 -2 0 0zm8 -45l0 45 -8 0 0 -45 0 0 8 0zm11 -17l0 8 0 0 -1 0 0 0 -1 0 0 0 -1 0 0 0 -1 0 0 1 -1 0 0 0 -1 0 0 0 -1 1 0 0 -1 0 0 1 0 0 -1 0 0 1 0 0 -1 1 0 0 0 0 0 1 -1 0 0 1 0 0 0 0 0 1 0 0 0 1 0 0 -8 0 0 -1 0 -1 0 -1 1 0 0 -1 0 -1 0 -1 1 -1 0 -1 1 0 0 -1 1 -1 0 0 1 -1 0 0 1 -1 1 -1 0 0 1 -1 1 0 1 0 0 -1 1 0 1 -1 1 0 0 0 1 0 1 0 1 -1 1 0 1 0 1 0 0 0zm67 8l-67 0 0 -8 67 0 0 0 0 8zm39 32l-7 0 0 0 0 -2 0 -2 -1 -1 0 -2 0 -1 -1 -2 0 -1 -1 -2 0 -1 -1 -1 -1 -2 -1 -1 -1 -1 -1 -2 -1 -1 -1 -1 -1 -1 -1 -1 -1 -1 -1 -1 -2 -1 -1 0 -1 -1 -2 -1 -1 0 -2 -1 -1 0 -2 -1 -1 0 -2 0 -2 0 -1 0 0 -8 2 0 2 0 2 1 2 0 2 0 2 1 1 1 2 0 2 1 2 1 1 1 2 1 1 1 2 1 1 1 2 2 1 1 1 2 2 1 1 2 1 1 1 2 0 2 1 1 1 2 1 2 0 2 1 2 0 2 0 2 0 2 0 2 0 0zm-7 45l0 -45 7 0 0 45 -7 0 0 0zm0 0l0 0 0 0 0 0zm9 4l-4 6 0 0 -1 0 0 0 0 -1 0 0 -1 0 0 0 0 -1 0 0 -1 0 0 0 0 -1 0 0 0 0 -1 -1 0 0 0 0 0 -1 0 0 0 0 0 -1 -1 0 0 0 0 -1 0 0 0 0 0 -1 0 0 0 -1 0 0 0 0 0 -1 0 0 7 0 0 0 0 0 0 0 0 1 0 0 1 0 0 0 0 0 0 0 0 1 0 0 0 0 0 0 0 0 0 0 0 0 0 1 0 0 0 0 0 0 0 0 0 0 0 0 1 0 0 1 0 0 0 0 0 0 0 0 0 0 0 0 0 0 0 0zm0 0l0 0 1 1 -1 -1z"/>
   </g>
   <g>
    <path class="fil0" d="M1496 3346l-47 0 0 -8 47 0 0 0 0 8zm40 32l-8 0 0 0 0 -2 0 -2 0 -1 0 -2 -1 -1 0 -2 -1 -1 0 -2 -1 -1 -1 -1 0 -2 -1 -1 -1 -1 -1 -2 -1 -1 -1 -1 -1 -1 -1 -1 -2 -1 -1 -1 -1 -1 -1 0 -2 -1 -1 -1 -2 0 -1 -1 -2 0 -1 -1 -2 0 -1 0 -2 0 -2 0 0 -8 2 0 2 0 2 1 2 0 2 0 2 1 2 1 2 0 1 1 2 1 2 1 1 1 2 1 1 1 2 1 1 2 2 1 1 2 1 1 1 2 1 1 1 2 1 2 1 1 0 2 1 2 1 2 0 2 0 2 1 2 0 2 0 2 0 0zm-8 22l0 -22 8 0 0 22 0 0 -8 0zm-32 39l0 -7 0 0 2 0 2 -1 1 0 2 0 1 0 2 -1 1 0 2 -1 1 -1 2 0 1 -1 1 -1 1 -1 2 -1 1 -1 1 -1 1 -1 1 -1 1 -1 1 -2 1 -1 0 -1 1 -2 1 -1 0 -1 1 -2 0 -1 1 -2 0 -1 0 -2 0 -2 0 -1 8 0 0 2 0 2 -1 2 0 2 0 2 -1 1 -1 2 0 2 -1 2 -1 1 -1 2 -1 2 -1 1 -1 2 -1 1 -2 2 -1 1 -2 1 -1 1 -2 1 -1 1 -2 1 -2 1 -1 1 -2 1 -2 0 -2 1 -2 0 -2 1 -2 0 -2 0 -2 0 0 0zm-47 -7l47 0 0 7 -47 0 0 0 0 -7zm-39 -32l7 0 0 0 0 1 0 2 1 2 0 1 0 2 1 1 0 2 1 1 0 1 1 2 1 1 1 1 1 2 1 1 1 1 1 1 1 1 1 1 1 1 1 1 2 1 1 1 1 0 2 1 1 1 2 0 1 1 2 0 1 0 2 0 2 1 1 0 0 7 -2 0 -2 0 -2 0 -2 -1 -2 0 -2 -1 -1 0 -2 -1 -2 -1 -2 -1 -1 -1 -2 -1 -1 -1 -2 -1 -1 -1 -2 -1 -1 -2 -1 -1 -1 -2 -2 -1 -1 -2 -1 -2 0 -1 -1 -2 -1 -2 -1 -2 0 -1 -1 -2 0 -2 0 -2 0 -2 0 -2 0 0zm7 -22l0 22 -7 0 0 -22 0 0 7 0zm32 -40l0 8 0 0 -1 0 -2 0 -2 0 -1 0 -2 1 -1 0 -2 1 -1 0 -2 1 -1 1 -1 0 -2 1 -1 1 -1 1 -1 1 -1 1 -1 1 -1 1 -1 2 -1 1 -1 1 -1 2 -1 1 0 1 -1 2 0 1 -1 2 0 1 0 2 -1 1 0 2 0 2 -7 0 0 -2 0 -2 0 -2 0 -2 1 -2 0 -2 1 -2 1 -2 1 -1 0 -2 1 -2 1 -1 2 -2 1 -1 1 -2 1 -1 2 -2 1 -1 2 -1 1 -1 2 -1 1 -1 2 -1 2 -1 2 0 1 -1 2 -1 2 0 2 0 2 -1 2 0 2 0 0 0z"/>
   </g>
   <g>
    <path class="fil0" d="M1491 3359l-38 0 0 -7 38 0 0 0 0 7zm27 20l-7 0 0 0 0 -1 0 -1 -1 -1 0 -1 0 -1 0 -1 -1 -1 0 -1 0 0 -1 -1 0 -1 -1 -1 0 -1 -1 0 0 -1 -1 -1 -1 0 0 -1 -1 -1 -1 0 -1 -1 -1 0 0 -1 -1 0 -1 0 -1 -1 -1 0 -1 0 -1 0 -1 0 -1 -1 -1 0 0 -7 2 0 1 0 1 0 2 0 1 1 1 0 1 0 2 1 1 0 1 1 1 1 1 0 1 1 1 1 1 1 1 1 1 1 1 1 1 1 1 1 0 1 1 1 1 1 0 1 1 2 0 1 0 1 1 1 0 2 0 1 0 2 0 1 0 0zm-7 19l0 -19 7 0 0 19 0 0 -7 0zm-20 28l0 -8 0 0 1 0 1 0 1 0 1 0 1 -1 1 0 1 0 1 -1 1 0 0 0 1 -1 1 0 1 -1 1 0 0 -1 1 -1 1 0 0 -1 1 -1 0 -1 1 0 0 -1 1 -1 0 -1 0 -1 1 -1 0 -1 0 -1 0 -1 1 -1 0 -1 0 -1 7 0 0 2 0 1 0 2 0 1 -1 1 0 2 0 1 -1 1 0 1 -1 1 -1 2 0 1 -1 1 -1 1 -1 1 -1 1 -1 1 -1 0 -1 1 -1 1 -1 1 -1 0 -1 1 -1 0 -2 1 -1 0 -1 1 -1 0 -2 0 -1 0 -1 1 -2 0 0 0zm-38 -8l38 0 0 8 -38 0 0 0 0 -8zm-27 -20l7 0 0 0 0 1 0 1 1 1 0 1 0 1 0 1 1 1 0 1 0 1 1 1 0 1 1 0 0 1 1 1 0 1 1 0 1 1 0 1 1 0 1 1 1 0 1 1 0 0 1 0 1 1 1 0 1 0 1 1 1 0 1 0 1 0 1 0 0 8 -2 0 -1 -1 -1 0 -2 0 -1 0 -1 -1 -1 0 -2 -1 -1 0 -1 -1 -1 0 -1 -1 -1 -1 -1 -1 -1 0 -1 -1 -1 -1 -1 -1 -1 -1 -1 -1 0 -1 -1 -2 -1 -1 0 -1 -1 -1 0 -1 0 -2 -1 -1 0 -1 0 -2 0 -1 0 -2 0 0zm7 -19l0 19 -7 0 0 -19 0 0 7 0zm20 -27l0 7 0 0 -1 0 -1 1 -1 0 -1 0 -1 0 -1 0 -1 1 -1 0 -1 0 0 1 -1 0 -1 1 -1 0 -1 1 0 1 -1 0 -1 1 0 1 -1 0 0 1 -1 1 0 1 -1 1 0 0 0 1 -1 1 0 1 0 1 0 1 -1 1 0 1 0 1 -7 0 0 -1 0 -2 0 -1 0 -2 1 -1 0 -1 0 -1 1 -2 0 -1 1 -1 1 -1 0 -1 1 -1 1 -1 1 -1 1 -1 1 -1 1 -1 1 -1 1 -1 1 0 1 -1 1 -1 1 0 2 -1 1 0 1 0 1 -1 2 0 1 0 1 0 2 0 0 0z"/>
   </g>
   <g>
    <path class="fil0" d="M1356 3359l-61 0 0 -7 61 0 0 0 0 7zm22 15l-8 0 0 0 0 -1 0 -1 0 0 0 -1 0 -1 0 0 -1 -1 0 -1 0 0 0 -1 -1 -1 0 0 -1 -1 0 0 0 -1 -1 0 0 -1 -1 0 0 -1 -1 0 -1 0 0 -1 -1 0 -1 0 0 -1 -1 0 -1 0 0 0 -1 0 -1 -1 0 0 -1 0 0 -7 1 0 1 0 1 0 1 0 1 1 1 0 1 0 1 1 1 0 1 0 1 1 1 1 1 0 1 1 1 1 0 0 1 1 1 1 1 1 0 1 1 0 0 1 1 1 0 1 1 1 0 1 0 1 1 1 0 2 0 1 0 1 0 1 0 0zm-8 42l0 -42 8 0 0 42 0 0 -8 0zm-2 10l0 -8 0 0 1 0 0 0 0 0 0 0 0 0 0 0 0 0 0 0 0 0 0 0 0 0 0 0 1 0 0 0 0 -1 0 0 0 0 0 0 0 0 0 0 0 0 0 0 0 0 0 0 0 0 0 0 0 0 0 -1 0 0 0 0 0 0 0 0 8 0 0 1 0 0 0 1 0 0 0 0 0 1 -1 0 0 1 0 0 0 1 0 0 -1 0 0 1 0 0 -1 0 0 1 0 0 -1 0 0 1 0 0 -1 0 0 0 0 1 -1 0 0 0 -1 0 0 0 -1 0 0 0 -1 1 0 0 -1 0 0 0zm-58 -8l58 0 0 8 -58 0 0 0 0 -8zm-24 -17l7 0 0 0 0 1 0 1 0 1 0 0 1 1 0 1 0 1 0 1 1 0 0 1 1 1 0 0 1 1 0 1 1 0 0 1 1 1 0 0 1 1 1 0 0 1 1 0 1 0 1 1 0 0 1 0 1 0 1 1 1 0 0 0 1 0 1 0 0 8 -1 0 -1 -1 -2 0 -1 0 -1 0 -1 -1 -1 0 -1 0 -2 -1 -1 0 -1 -1 -1 -1 -1 0 0 -1 -1 -1 -1 -1 -1 0 -1 -1 -1 -1 0 -1 -1 -1 0 -1 -1 -1 -1 -1 0 -2 0 -1 -1 -1 0 -1 0 -1 0 -2 0 -1 0 -1 0 0zm7 -40l0 40 -7 0 0 -40 0 0 7 0zm2 -9l0 7 0 0 0 0 0 0 0 0 0 0 0 0 0 1 -1 0 0 0 0 0 0 0 0 0 0 0 0 0 0 0 0 0 0 0 0 0 0 0 0 0 -1 0 0 0 0 0 0 1 0 0 0 0 0 0 0 0 0 0 0 0 0 0 0 0 0 0 -7 0 0 0 0 -1 0 0 0 -1 0 0 0 -1 0 0 0 0 0 -1 1 0 0 -1 0 0 0 0 1 -1 0 0 0 0 1 -1 0 0 0 0 1 -1 0 0 1 0 0 0 0 0 1 -1 0 0 1 0 0 0 1 0 0 0 1 0 0 0 0 0z"/>
   </g>
   <g>
    <path class="fil0" d="M1243 3343l0 0 0 0 0 0 0 -4 0 4zm14 10l-8 0 0 0 0 -1 0 0 0 0 0 0 0 -1 0 0 0 0 -1 -1 0 0 0 0 0 0 0 -1 0 0 -1 0 0 0 0 -1 0 0 0 0 -1 0 0 0 0 -1 0 0 -1 0 0 0 0 0 0 0 -1 0 0 0 0 0 -1 0 0 0 0 0 0 -8 0 0 1 0 1 0 0 0 1 0 1 1 0 0 1 0 1 0 0 1 1 0 0 0 1 1 0 0 1 1 0 0 1 1 0 0 1 1 0 0 1 1 0 0 0 1 0 0 1 1 0 1 0 0 0 1 0 1 0 0 1 1 0 1 0 0zm-8 72l0 -72 8 0 0 72 0 0 -8 0zm-6 14l0 -7 0 0 0 0 0 0 1 0 0 -1 0 0 1 0 0 0 0 0 0 0 1 0 0 0 0 0 0 -1 1 0 0 0 0 0 0 0 0 -1 1 0 0 0 0 0 0 -1 0 0 0 0 1 -1 0 0 0 0 0 0 0 -1 0 0 0 0 0 -1 8 0 0 1 -1 1 0 0 0 1 0 1 0 0 0 1 -1 1 0 0 0 1 0 1 -1 0 0 1 -1 0 0 1 -1 0 0 1 -1 0 0 0 -1 1 0 0 -1 1 0 0 -1 0 -1 0 0 1 -1 0 -1 0 0 0 -1 0 -1 0 0 0 0 0zm-14 -14l7 0 0 0 0 1 0 0 0 0 1 1 0 0 0 0 0 0 0 1 0 0 0 0 0 1 1 0 0 0 0 0 0 1 0 0 0 0 1 0 0 0 0 1 0 0 1 0 0 0 0 0 1 0 0 0 0 0 0 0 1 1 0 0 0 0 1 0 0 7 -1 0 -1 0 0 0 -1 0 -1 0 0 0 -1 -1 -1 0 0 0 -1 0 -1 -1 0 0 -1 -1 0 0 -1 0 0 -1 -1 0 0 -1 0 0 -1 -1 0 0 0 -1 -1 -1 0 0 0 -1 -1 -1 0 0 0 -1 0 -1 0 0 0 -1 0 -1 0 0zm7 -72l0 72 -7 0 0 -72 0 0 7 0zm7 -14l0 8 0 0 -1 0 0 0 0 0 -1 0 0 0 0 0 0 0 -1 0 0 0 0 0 -1 0 0 1 0 0 0 0 -1 0 0 0 0 1 0 0 0 0 0 0 -1 1 0 0 0 0 0 0 0 1 0 0 0 0 0 1 -1 0 0 0 0 0 0 1 -7 0 0 -1 0 -1 0 0 0 -1 0 -1 0 0 1 -1 0 -1 0 0 1 -1 0 0 0 -1 1 0 0 -1 0 0 1 -1 0 0 1 -1 0 0 1 -1 0 0 1 0 1 -1 0 0 1 0 1 0 0 -1 1 0 1 0 0 0 1 0 1 0 0 0z"/>
   </g>
   <g>
    <path class="fil0" d="M2961 3346l-28 0 0 -8 28 0 0 0 0 8zm37 10l-8 3 0 0 0 -1 0 0 0 -1 -1 -1 0 0 -1 -1 -1 -1 0 0 -1 -1 -1 0 -1 -1 -1 0 -1 -1 -1 -1 -1 0 -1 0 -1 -1 -1 0 -1 -1 -2 0 -1 0 -1 -1 -1 0 -1 0 -1 0 -2 -1 -1 0 -1 0 -1 0 -1 0 -1 0 -1 0 0 -8 1 0 2 0 1 0 1 0 1 1 2 0 1 0 1 0 2 1 1 0 1 0 2 1 1 0 1 0 2 1 1 0 1 1 2 1 1 0 1 1 1 1 1 0 1 1 2 1 1 1 0 1 1 1 1 1 1 1 1 1 0 1 1 1 0 0zm0 0l0 0 -1 -2 1 2zm-16 13l5 -6 -1 0 0 0 1 0 0 0 0 0 0 0 0 0 1 0 0 0 0 0 0 0 1 0 0 0 0 0 0 0 0 -1 1 0 0 0 0 0 0 0 0 0 0 0 0 -1 0 0 0 0 1 0 0 0 0 -1 0 0 0 0 0 -1 -1 0 0 0 8 -3 0 1 0 1 0 1 0 1 0 1 0 1 0 0 0 1 -1 1 0 1 0 0 -1 1 0 1 -1 0 0 1 -1 0 0 1 -1 0 -1 0 0 1 -1 0 -1 0 0 0 -1 1 -1 0 -1 0 0 0 -1 0 -1 -1 -1 0 0 0 -1 0 -1 -1zm1 1l-1 -1 0 0 1 1zm-16 -9l1 -7 0 0 1 0 1 0 0 0 1 0 0 0 1 1 1 0 0 0 1 0 0 0 1 1 0 0 1 0 1 0 0 1 1 0 0 0 1 0 1 1 0 0 1 1 0 0 1 0 0 1 1 0 1 1 0 0 1 0 0 1 1 0 0 1 1 0 -5 6 0 0 -1 -1 -1 0 0 -1 -1 0 0 0 -1 -1 0 0 -1 0 0 -1 0 0 -1 0 0 -1 -1 0 0 0 -1 0 0 -1 -1 0 0 0 0 0 -1 0 0 -1 -1 0 0 0 -1 0 0 0 0 0 -1 0 0 0 -1 -1 0 0 -1 0 0 0zm1 -7l0 0 0 0 0 0zm-49 7l-1 -7 0 0 1 -1 2 0 1 0 2 0 2 0 1 -1 2 0 1 0 2 0 1 0 2 0 1 0 2 0 1 0 2 0 1 0 2 0 1 0 2 0 1 0 2 0 1 0 2 0 2 0 1 1 2 0 2 0 1 0 2 0 2 0 2 1 1 0 -1 7 -1 0 -2 0 -2 0 -2 0 -1 -1 -2 0 -1 0 -2 0 -2 0 -1 0 -2 0 -1 0 -2 0 -1 -1 -2 0 -1 0 -1 0 -2 0 -1 0 -2 0 -1 0 -1 1 -2 0 -1 0 -2 0 -1 0 -2 0 -1 0 -2 0 -1 1 -2 0 -1 0 0 0zm0 0l0 0 1 0 -1 0zm-12 8l-7 0 0 0 0 -1 0 0 0 -1 0 -1 0 -1 1 -1 0 -1 1 0 0 -1 1 -1 0 0 1 -1 0 0 1 -1 1 0 0 -1 1 0 1 -1 0 0 1 -1 1 0 0 0 1 -1 1 0 1 0 0 0 1 -1 1 0 1 0 0 0 1 0 1 0 1 7 -1 0 0 0 -1 0 0 0 -1 1 0 0 -1 0 0 0 -1 0 0 1 -1 0 0 0 -1 0 0 1 -1 0 0 0 -1 1 0 0 -1 0 0 1 0 0 -1 0 0 1 0 0 0 0 0 0 0 1 -1 0 0 0 0 1 0 0 0 0 0 0zm9 8l-1 8 0 0 -1 0 -1 0 0 0 -1 -1 -1 0 0 0 -1 0 -1 0 0 -1 -1 0 -1 0 0 -1 -1 0 0 -1 -1 0 -1 -1 0 0 -1 -1 0 0 -1 -1 0 0 0 -1 -1 -1 0 0 0 -1 -1 -1 0 -1 0 0 0 -1 0 -1 0 -1 0 -1 7 0 0 1 0 0 0 1 0 0 0 0 1 1 0 0 0 0 0 1 0 0 0 0 1 1 0 0 0 0 0 1 1 0 0 0 0 0 1 1 0 0 0 0 1 0 0 0 0 1 1 0 0 0 1 0 0 0 0 0 1 0 0 0 1 0 0 0zm-1 8l0 0 -1 0 1 0zm48 -8l0 8 1 0 -2 0 -1 0 -2 1 -2 0 -1 0 -2 0 -1 0 -2 0 -1 0 -2 0 -1 0 -2 0 -1 0 -2 0 -1 0 -2 0 -1 0 -2 0 -2 0 -1 0 -2 0 -1 0 -2 0 -1 0 -2 0 -1 0 -2 0 -1 0 -2 0 -1 -1 -2 0 -1 0 1 -8 1 1 2 0 1 0 2 0 1 0 1 0 2 0 1 1 2 0 1 0 2 0 1 0 2 0 1 0 2 0 1 0 1 0 2 0 1 0 2 0 1 0 2 0 1 0 2 -1 1 0 2 0 1 0 2 0 1 0 2 0 1 0 2 -1 0 0zm0 0l0 0 0 0 0 0zm39 31l-7 -1 0 0 0 -2 0 -1 0 -2 0 -1 -1 -1 0 -2 0 -1 -1 -1 0 -1 -1 -1 0 -1 -1 -1 0 0 -1 -1 -1 -1 -1 0 -1 -1 -1 -1 -1 0 -1 -1 -1 0 -2 0 -1 -1 -2 0 -1 0 -2 -1 -2 0 -2 0 -2 0 -1 0 -2 0 -3 0 0 -8 2 0 3 0 2 0 2 0 2 1 2 0 2 0 2 0 1 1 2 0 2 1 2 0 1 1 2 1 1 0 1 1 2 1 1 1 1 1 1 2 1 1 1 1 1 2 0 1 1 2 0 1 1 2 0 2 0 2 0 2 0 2 0 2 0 0zm-47 31l0 -7 0 0 3 0 3 -1 3 0 2 0 2 0 3 -1 2 0 2 0 1 -1 2 -1 2 0 1 -1 2 -1 1 0 1 -1 1 -1 1 -1 1 -1 1 0 1 -1 0 -1 1 -1 1 -1 0 -1 1 -2 0 -1 0 -1 1 -1 0 -1 0 -2 0 -1 1 -1 7 1 0 1 0 2 -1 1 0 2 0 1 -1 2 0 1 -1 2 -1 1 0 2 -1 1 -1 1 -1 2 -2 1 -1 1 -1 1 -2 1 -1 1 -2 1 -2 1 -1 1 -2 1 -2 0 -3 1 -2 0 -2 1 -3 0 -2 1 -3 0 -3 0 -3 0 -3 0 0 0zm-32 -7l32 0 0 7 -32 0 0 0 0 -7zm-33 -8l7 -3 0 0 0 0 0 1 0 0 1 0 0 0 0 1 1 0 0 1 1 0 0 1 1 0 0 0 1 1 1 0 1 1 0 0 1 1 1 0 1 1 1 0 1 0 1 1 1 0 2 0 1 1 1 0 1 0 2 0 1 0 1 1 2 0 1 0 0 7 -1 0 -2 0 -2 0 -1 0 -2 0 -1 -1 -2 0 -1 0 -2 -1 -1 0 -1 0 -2 -1 -1 0 -1 -1 -1 0 -1 -1 -1 0 -1 -1 -1 -1 -1 0 -1 -1 -1 0 0 -1 -1 -1 -1 0 0 -1 -1 -1 0 0 -1 -1 0 0 -1 -1 0 -1 0 0zm0 0l0 0 0 0 0 0zm13 -13l-5 6 2 1 -1 0 0 0 0 0 -1 0 0 0 0 0 0 0 -1 0 0 0 0 0 0 0 0 0 0 0 0 0 0 0 0 0 0 0 0 0 0 0 0 1 0 0 0 0 0 0 0 0 0 0 0 1 0 0 0 0 0 0 0 1 0 0 0 0 -7 3 0 -1 -1 0 0 -1 0 -1 0 0 0 -1 0 0 0 -1 0 -1 0 0 0 -1 0 -1 1 0 0 -1 0 -1 1 0 0 -1 1 0 0 -1 1 0 0 -1 1 0 1 0 0 0 1 -1 1 0 1 0 0 0 1 0 1 0 1 0 0 0 2 1zm-2 -1l1 1 1 0 -2 -1zm13 6l-1 7 0 0 -1 0 0 0 -1 0 0 0 -1 0 0 0 -1 0 0 -1 -1 0 0 0 -1 0 0 0 -1 0 0 -1 0 0 -1 0 0 0 -1 0 0 -1 -1 0 0 0 -1 0 0 0 0 -1 -1 0 0 0 -1 0 0 -1 0 0 -1 0 0 0 -1 -1 5 -6 0 0 0 1 1 0 0 0 0 0 1 0 0 1 0 0 1 0 0 0 0 0 1 0 0 1 0 0 1 0 0 0 0 0 1 0 0 0 0 1 1 0 0 0 1 0 0 0 0 0 1 0 0 0 0 0 1 0 0 1 0 0 1 0 0 0zm0 0l0 0 0 0 0 0zm57 0l1 7 0 0 -2 0 -1 1 -2 0 -2 0 -2 0 -2 0 -2 0 -1 0 -2 1 -2 0 -2 0 -2 0 -2 0 -2 0 -1 0 -2 0 -2 0 -2 0 -2 0 -2 0 -2 0 -1 0 -2 0 -2 -1 -2 0 -2 0 -2 0 -2 0 -2 0 -1 0 -2 -1 -2 0 1 -7 1 0 2 0 2 0 2 0 2 0 2 1 1 0 2 0 2 0 2 0 2 0 1 0 2 0 2 0 2 0 2 0 2 0 1 0 2 0 2 0 2 0 2 0 1 0 2 0 2 0 2 0 2 -1 1 0 2 0 2 0 2 0 1 0 0 0zm9 -9l8 0 0 0 0 1 0 1 0 1 -1 0 0 1 0 1 0 1 -1 0 0 1 0 1 -1 0 0 1 0 1 -1 0 0 1 -1 0 -1 1 0 0 -1 1 0 0 -1 1 -1 0 0 0 -1 1 -1 0 0 0 -1 0 -1 1 0 0 -1 0 -1 0 -1 0 -1 -7 1 0 0 -1 1 0 0 0 1 0 0 0 1 0 0 0 0 -1 1 0 0 0 1 0 0 0 0 -1 0 0 1 0 0 0 0 -1 1 0 0 0 0 -1 0 0 0 0 1 -1 0 0 0 0 0 -1 0 0 0 0 0 -1 0 0 0 -1 0 0zm-8 -8l0 -8 0 0 1 0 1 1 0 0 1 0 1 0 1 0 0 0 1 1 1 0 0 0 1 1 1 0 0 1 1 0 1 1 0 0 1 1 0 0 1 1 0 0 0 1 1 1 0 0 1 1 0 1 0 1 0 0 0 1 1 1 0 1 0 0 0 1 -8 0 0 0 0 -1 0 0 0 0 0 -1 0 0 0 -1 -1 0 0 0 0 -1 0 0 0 0 -1 -1 0 0 0 0 0 -1 -1 0 0 0 0 0 -1 -1 0 0 0 0 -1 0 0 0 0 0 -1 -1 0 0 0 0 -1 0 0 0 -1 0 0 0 0 0zm-49 -8l49 0 0 8 -49 0 0 0 0 -8zm0 8l0 0 0 0 0 0zm-37 -32l8 0 0 0 0 2 0 1 0 2 0 1 0 1 0 1 1 1 0 1 0 2 0 0 1 1 0 1 1 1 0 1 1 1 1 0 0 1 1 1 1 0 1 1 1 1 2 0 1 1 1 0 2 1 1 0 2 0 2 1 2 0 2 0 3 0 2 0 0 8 -3 0 -2 0 -3 -1 -2 0 -2 0 -2 -1 -2 0 -2 -1 -2 0 -1 -1 -2 -1 -2 0 -1 -1 -1 -1 -2 -1 -1 -1 -1 -1 -1 -1 -1 -2 0 -1 -1 -1 -1 -2 0 -1 -1 -1 0 -2 0 -1 0 -2 -1 -1 0 -2 0 -2 0 -1 0 -2 0 0zm47 -29l0 8 0 0 -2 0 -2 0 -1 0 -2 0 -2 0 -2 1 -1 0 -2 0 -2 1 -1 0 -2 1 -2 0 -1 1 -2 1 -1 0 -2 1 -1 1 -1 1 -2 1 -1 1 -1 0 -1 1 -1 1 -1 1 0 1 -1 1 -1 1 0 1 -1 1 0 1 0 1 0 1 -8 0 0 -2 1 -1 0 -2 1 -2 1 -1 0 -2 1 -1 1 -2 2 -1 1 -1 1 -1 2 -1 1 -2 2 -1 1 -1 2 0 1 -1 2 -1 2 -1 2 -1 2 0 1 -1 2 0 2 -1 2 0 2 -1 2 0 2 0 2 -1 2 0 2 0 2 0 0 0z"/>
   </g>
   <g>
    <path class="fil0" d="M2739 3441l-10 -8 5 -6 9 8 -4 6zm6 10l-6 -5 0 0 0 0 0 0 0 -1 0 0 1 0 0 0 0 0 0 0 0 0 0 0 0 -1 0 0 0 0 0 0 0 0 0 0 0 -1 0 0 0 0 0 0 0 0 0 0 -1 0 0 -1 0 0 0 0 0 0 0 0 0 0 0 -1 0 0 0 0 4 -6 1 1 0 0 1 1 0 0 0 0 1 1 0 0 0 1 0 0 1 1 0 0 0 1 0 0 0 1 0 0 0 1 0 0 0 1 0 1 0 0 0 1 0 0 0 1 0 0 0 1 0 0 -1 1 0 0 0 1 -1 0 0 1 0 0 0 0zm0 0l0 0 -3 3 3 -3zm-16 1l5 -6 0 0 0 1 1 0 0 0 0 0 0 0 0 0 1 0 0 0 0 0 0 0 0 0 0 0 0 0 0 0 0 0 1 0 0 0 0 0 0 0 0 0 0 0 0 0 1 0 0 0 0 0 0 0 0 0 0 0 1 -1 0 0 0 0 0 0 6 5 -1 0 0 1 0 0 -1 0 0 1 -1 0 0 0 0 1 -1 0 0 0 -1 0 0 0 -1 1 0 0 -1 0 0 0 -1 0 0 0 -1 0 0 0 -1 0 0 0 -1 0 -1 0 0 -1 -1 0 0 0 -1 0 0 -1 -1 0 0 0 -1 -1 0 0zm-8 -16l13 10 -5 6 -12 -10 4 -6 0 0zm0 0l0 0 0 0 0 0zm-13 3l0 -7 0 0 1 0 0 0 1 0 0 0 1 0 0 0 1 0 0 0 0 0 1 0 0 0 1 0 0 0 1 0 0 1 0 0 1 0 0 0 1 0 0 0 0 0 1 1 0 0 0 0 1 0 0 0 1 1 0 0 0 0 1 0 0 0 0 1 -4 6 0 0 -1 0 0 -1 0 0 0 0 -1 0 0 0 0 0 0 0 0 0 -1 -1 0 0 0 0 -1 0 0 0 0 0 0 0 0 0 -1 0 0 0 0 0 -1 0 0 -1 0 0 0 0 -1 0 0 0 0 0 -1 0 0 0 0 0 -1 0 0 0zm-62 -7l62 0 0 7 -62 0 0 0 0 -7zm-40 -32l8 0 0 0 0 1 0 2 0 2 1 1 0 2 0 1 1 2 1 1 0 1 1 2 1 1 0 1 1 2 1 1 1 1 1 1 1 1 2 1 1 1 1 1 1 1 2 1 1 0 2 1 1 1 1 0 2 1 2 0 1 0 2 0 1 1 2 0 0 7 -2 0 -2 0 -2 0 -2 -1 -2 0 -2 -1 -2 0 -1 -1 -2 -1 -2 -1 -2 -1 -1 -1 -2 -1 -1 -1 -2 -1 -1 -1 -1 -2 -2 -1 -1 -2 -1 -1 -1 -2 -1 -2 -1 -1 -1 -2 0 -2 -1 -2 0 -1 -1 -2 0 -2 0 -2 -1 -2 0 -2 0 0zm8 -45l0 45 -8 0 0 -45 0 0 8 0zm11 -17l0 8 0 0 -1 0 0 0 -1 0 0 0 -1 0 0 0 -1 0 0 1 -1 0 0 0 -1 0 0 0 0 1 -1 0 0 0 -1 1 0 0 0 0 -1 1 0 0 0 1 -1 0 0 0 0 1 0 0 -1 1 0 0 0 0 0 1 0 0 0 1 0 0 -8 0 0 -1 0 -1 1 -1 0 0 0 -1 0 -1 1 -1 0 -1 0 -1 1 0 0 -1 1 -1 0 0 1 -1 1 0 0 -1 1 -1 1 0 0 -1 1 0 1 0 1 -1 0 0 1 -1 1 0 1 0 1 0 0 0 1 -1 1 0 1 0 1 0 0 0zm67 8l-67 0 0 -8 67 0 0 0 0 8zm40 32l-8 0 0 0 0 -2 0 -2 0 -1 -1 -2 0 -1 0 -2 -1 -1 0 -2 -1 -1 -1 -1 -1 -2 0 -1 -1 -1 -1 -2 -1 -1 -1 -1 -1 -1 -2 -1 -1 -1 -1 -1 -1 -1 -2 0 -1 -1 -1 -1 -2 0 -1 -1 -2 0 -1 -1 -2 0 -2 0 -1 0 -2 0 0 -8 2 0 2 0 2 1 2 0 2 0 2 1 2 1 2 0 1 1 2 1 2 1 1 1 2 1 1 1 2 1 1 2 1 1 2 2 1 1 1 2 1 1 1 2 1 2 1 1 0 2 1 2 0 2 1 2 0 2 0 2 1 2 0 2 0 0zm-8 45l0 -45 8 0 0 45 -8 0 0 0zm0 0l0 0 0 0 0 0zm10 4l-5 6 0 0 0 0 -1 0 0 0 0 -1 0 0 -1 0 0 -1 0 0 0 0 -1 -1 0 0 0 0 0 0 0 -1 -1 0 0 0 0 -1 0 0 0 0 0 -1 0 0 0 0 0 -1 -1 0 0 -1 0 0 0 0 0 -1 0 0 0 0 0 -1 0 0 8 0 0 0 0 0 0 0 0 0 0 1 0 0 0 0 0 0 0 0 0 1 0 0 0 0 0 0 0 0 0 0 0 0 0 1 0 0 0 0 1 0 0 0 0 0 0 0 0 0 0 1 0 0 0 0 0 0 0 0 0 0 1 0 0 0 0 0zm0 0l0 0 0 1 0 -1z"/>
   </g>
   <g>
    <path class="fil0" d="M2834 3346l-48 0 0 -8 48 0 0 0 0 8zm39 32l-7 0 0 0 0 -2 -1 -2 0 -1 0 -2 0 -1 -1 -2 0 -1 -1 -2 -1 -1 0 -1 -1 -2 -1 -1 -1 -1 -1 -2 -1 -1 -1 -1 -1 -1 -1 -1 -1 -1 -2 -1 -1 -1 -1 0 -2 -1 -1 -1 -1 0 -2 -1 -1 0 -2 -1 -2 0 -1 0 -2 0 -1 0 0 -8 2 0 2 0 2 1 2 0 1 0 2 1 2 1 2 0 2 1 1 1 2 1 2 1 1 1 2 1 1 1 2 2 1 1 1 2 1 1 1 2 1 1 1 2 1 2 1 1 1 2 0 2 1 2 0 2 1 2 0 2 0 2 0 2 0 0zm-7 22l0 -22 7 0 0 22 0 0 -7 0zm-32 39l0 -7 0 0 1 0 2 -1 1 0 2 0 2 0 1 -1 2 0 1 -1 1 -1 2 0 1 -1 1 -1 2 -1 1 -1 1 -1 1 -1 1 -1 1 -1 1 -1 1 -2 1 -1 1 -1 0 -2 1 -1 1 -1 0 -2 1 -1 0 -2 0 -1 0 -2 1 -2 0 -1 7 0 0 2 0 2 0 2 -1 2 0 2 -1 1 0 2 -1 2 -1 2 -1 1 -1 2 -1 2 -1 1 -1 2 -1 1 -1 2 -2 1 -1 1 -2 1 -1 1 -2 1 -2 1 -1 1 -2 1 -2 1 -2 0 -2 1 -1 0 -2 1 -2 0 -2 0 -2 0 0 0zm-48 -7l48 0 0 7 -48 0 0 0 0 -7zm-39 -32l8 0 0 0 0 1 0 2 0 2 0 1 1 2 0 1 1 2 0 1 1 1 0 2 1 1 1 1 1 2 1 1 1 1 1 1 1 1 1 1 1 1 2 1 1 1 1 1 2 0 1 1 2 1 1 0 2 1 1 0 2 0 1 0 2 1 1 0 0 7 -2 0 -2 0 -2 0 -1 -1 -2 0 -2 -1 -2 0 -2 -1 -2 -1 -1 -1 -2 -1 -2 -1 -1 -1 -2 -1 -1 -1 -1 -1 -2 -2 -1 -1 -1 -2 -1 -1 -1 -2 -1 -2 -1 -1 -1 -2 -1 -2 0 -2 -1 -1 0 -2 -1 -2 0 -2 0 -2 0 -2 0 0zm8 -22l0 22 -8 0 0 -22 0 0 8 0zm31 -40l0 8 0 0 -1 0 -2 0 -1 0 -2 0 -1 1 -2 0 -1 1 -2 0 -1 1 -2 1 -1 0 -1 1 -2 1 -1 1 -1 1 -1 1 -1 1 -1 1 -1 2 -1 1 -1 1 -1 2 0 1 -1 1 -1 2 0 1 0 2 -1 1 0 2 0 1 0 2 0 2 -8 0 0 -2 0 -2 0 -2 1 -2 0 -2 1 -2 0 -2 1 -2 1 -1 1 -2 1 -2 1 -1 1 -2 1 -1 1 -2 2 -1 1 -2 1 -1 2 -1 1 -1 2 -1 2 -1 1 -1 2 -1 2 0 2 -1 2 -1 2 0 1 0 2 -1 2 0 2 0 0 0z"/>
   </g>
   <g>
    <path class="fil0" d="M2828 3359l-38 0 0 -7 38 0 0 0 0 7zm28 20l-8 0 0 0 0 -1 0 -1 0 -1 0 -1 -1 -1 0 -1 0 -1 -1 -1 0 0 0 -1 -1 -1 0 -1 -1 -1 -1 0 0 -1 -1 -1 0 0 -1 -1 -1 -1 -1 0 -1 -1 0 0 -1 -1 -1 0 -1 0 -1 -1 -1 0 -1 0 -1 0 -1 0 -1 -1 -1 0 0 -7 2 0 1 0 2 0 1 0 1 1 1 0 2 0 1 1 1 0 1 1 1 1 2 0 1 1 1 1 1 1 1 1 0 1 1 1 1 1 1 1 1 1 0 1 1 1 0 1 1 2 0 1 1 1 0 1 0 2 0 1 1 2 0 1 0 0zm-8 19l0 -19 8 0 0 19 0 0 -8 0zm-20 28l0 -8 0 0 1 0 1 0 1 0 1 0 1 -1 1 0 1 0 1 -1 1 0 1 0 0 -1 1 0 1 -1 1 0 1 -1 0 -1 1 0 0 -1 1 -1 1 -1 0 0 1 -1 0 -1 0 -1 1 -1 0 -1 0 -1 1 -1 0 -1 0 -1 0 -1 0 -1 8 0 0 2 -1 1 0 2 0 1 0 1 -1 2 0 1 -1 1 0 1 -1 1 0 2 -1 1 -1 1 -1 1 -1 1 0 1 -1 1 -1 0 -1 1 -1 1 -2 1 -1 0 -1 1 -1 0 -1 1 -2 0 -1 1 -1 0 -1 0 -2 0 -1 1 -2 0 0 0zm-38 -8l38 0 0 8 -38 0 0 0 0 -8zm-27 -20l8 0 0 0 0 1 0 1 0 1 0 1 0 1 1 1 0 1 0 1 1 1 0 1 0 1 1 0 1 1 0 1 1 1 0 0 1 1 1 1 0 0 1 1 1 0 1 1 1 0 1 0 0 1 1 0 1 0 1 1 1 0 1 0 1 0 1 0 0 8 -1 0 -2 -1 -1 0 -1 0 -2 0 -1 -1 -1 0 -1 -1 -2 0 -1 -1 -1 0 -1 -1 -1 -1 -1 -1 -1 0 -1 -1 -1 -1 -1 -1 -1 -1 0 -1 -1 -1 -1 -2 0 -1 -1 -1 0 -1 -1 -1 0 -2 0 -1 -1 -1 0 -2 0 -1 0 -2 0 0zm8 -19l0 19 -8 0 0 -19 0 0 8 0zm19 -27l0 7 0 0 -1 0 -1 1 -1 0 -1 0 -1 0 -1 0 -1 1 0 0 -1 0 -1 1 -1 0 -1 1 -1 0 0 1 -1 1 -1 0 0 1 -1 1 0 0 -1 1 -1 1 0 1 0 1 -1 0 0 1 0 1 -1 1 0 1 0 1 0 1 0 1 0 1 -8 0 0 -1 0 -2 0 -1 1 -2 0 -1 0 -1 1 -1 0 -2 1 -1 0 -1 1 -1 1 -1 0 -1 1 -1 1 -1 1 -1 1 -1 1 -1 1 -1 1 -1 1 0 1 -1 1 -1 2 0 1 -1 1 0 1 0 2 -1 1 0 1 0 2 0 1 0 0 0z"/>
   </g>
   <g>
    <path class="fil0" d="M2693 3359l-61 0 0 -7 61 0 0 0 0 7zm22 15l-7 0 0 0 0 -1 0 -1 -1 0 0 -1 0 -1 0 0 0 -1 -1 -1 0 0 0 -1 0 -1 -1 0 0 -1 -1 0 0 -1 -1 0 0 -1 -1 0 0 -1 -1 0 0 0 -1 -1 -1 0 0 0 -1 -1 -1 0 0 0 -1 0 -1 0 0 -1 -1 0 -1 0 0 -7 1 0 1 0 1 0 2 0 1 1 1 0 1 0 1 1 1 0 1 0 1 1 0 1 1 0 1 1 1 1 1 0 0 1 1 1 1 1 0 1 1 0 1 1 0 1 0 1 1 1 0 1 1 1 0 1 0 2 0 1 0 1 0 1 0 0zm-7 42l0 -42 7 0 0 42 0 0 -7 0zm-2 10l0 -8 0 0 0 0 0 0 0 0 0 0 0 0 0 0 0 0 0 0 1 0 0 0 0 0 0 0 0 0 0 0 0 -1 0 0 0 0 0 0 0 0 0 0 0 0 0 0 0 0 0 0 1 0 0 0 0 0 0 -1 0 0 0 0 0 0 0 0 7 0 0 1 0 0 0 1 0 0 0 0 0 1 0 0 -1 1 0 0 0 1 0 0 0 0 -1 1 0 0 0 0 -1 1 0 0 0 0 -1 1 0 0 0 0 -1 0 0 1 -1 0 0 0 0 0 -1 0 0 0 -1 0 0 1 -1 0 0 0 0 0zm-59 -8l59 0 0 8 -59 0 0 0 0 -8zm-24 -17l7 0 0 0 0 1 1 1 0 1 0 0 0 1 0 1 0 1 1 1 0 0 0 1 1 1 0 0 1 1 0 1 1 0 0 1 1 1 1 0 0 1 1 0 1 1 0 0 1 0 1 1 1 0 0 0 1 0 1 1 1 0 1 0 1 0 0 0 0 8 -1 0 -1 -1 -1 0 -2 0 -1 0 -1 -1 -1 0 -1 0 -1 -1 -1 0 -1 -1 -1 -1 -1 0 -1 -1 -1 -1 -1 -1 -1 0 -1 -1 0 -1 -1 -1 -1 -1 0 -1 -1 -1 0 -1 -1 -2 0 -1 0 -1 -1 -1 0 -1 0 -2 0 -1 0 -1 0 0zm7 -40l0 40 -7 0 0 -40 0 0 7 0zm2 -9l0 7 0 0 0 0 0 0 0 0 0 0 0 0 0 1 0 0 0 0 0 0 -1 0 0 0 0 0 0 0 0 0 0 0 0 0 0 0 0 0 0 0 0 0 0 0 0 0 0 1 0 0 0 0 0 0 0 0 -1 0 0 0 0 0 0 0 0 0 -7 0 0 0 0 -1 0 0 0 -1 0 0 0 -1 0 0 1 0 0 -1 0 0 0 -1 0 0 1 0 0 -1 0 0 1 0 0 -1 0 0 1 0 0 -1 0 0 1 0 0 0 1 0 0 -1 1 0 0 0 0 0 1 0 0 0 1 0 0 0 0 0z"/>
   </g>
   <g>
    <path class="fil0" d="M2580 3343l0 0 0 0 0 0 0 -4 0 4zm14 10l-8 0 0 0 0 -1 0 0 0 0 0 0 0 -1 0 0 0 0 0 -1 0 0 -1 0 0 0 0 -1 0 0 0 0 0 0 -1 -1 0 0 0 0 0 0 -1 0 0 -1 0 0 0 0 -1 0 0 0 0 0 0 0 -1 0 0 0 0 0 -1 0 0 0 0 -8 1 0 0 0 1 0 1 0 0 0 1 1 1 0 0 0 1 0 1 1 0 0 1 0 0 1 1 0 0 1 1 0 0 1 1 0 0 1 0 0 1 1 0 0 0 1 1 0 0 1 0 1 0 0 1 1 0 1 0 0 0 1 0 1 0 0zm-8 72l0 -72 8 0 0 72 0 0 -8 0zm-6 14l0 -7 0 0 0 0 1 0 0 0 0 -1 1 0 0 0 0 0 0 0 1 0 0 0 0 0 0 0 1 -1 0 0 0 0 0 0 1 0 0 -1 0 0 0 0 0 0 0 -1 1 0 0 0 0 -1 0 0 0 0 0 0 0 -1 0 0 0 0 0 -1 8 0 0 1 0 1 0 0 0 1 -1 1 0 0 0 1 0 1 -1 0 0 1 0 1 -1 0 0 1 0 0 -1 1 0 0 -1 1 0 0 -1 0 0 1 -1 0 0 1 -1 0 -1 0 0 0 -1 1 -1 0 0 0 -1 0 -1 0 0 0 -1 0 0 0zm-14 -14l8 0 0 0 0 1 0 0 0 0 0 1 0 0 0 0 0 0 0 1 0 0 0 0 1 1 0 0 0 0 0 0 0 1 1 0 0 0 0 0 0 0 0 1 1 0 0 0 0 0 1 0 0 0 0 0 0 0 1 0 0 1 0 0 1 0 0 0 0 7 -1 0 0 0 -1 0 -1 0 0 0 -1 0 -1 -1 0 0 -1 0 -1 0 0 -1 -1 0 0 -1 -1 0 0 0 -1 -1 0 0 -1 -1 0 0 -1 -1 0 0 0 -1 -1 -1 0 0 0 -1 0 -1 0 0 -1 -1 0 -1 0 0 0 -1 0 -1 0 0zm8 -72l0 72 -8 0 0 -72 0 0 8 0zm6 -14l0 8 0 0 0 0 -1 0 0 0 0 0 -1 0 0 0 0 0 0 0 -1 0 0 0 0 0 -1 1 0 0 0 0 0 0 0 0 -1 1 0 0 0 0 0 0 0 1 -1 0 0 0 0 0 0 1 0 0 0 0 0 1 0 0 0 0 0 0 0 1 -8 0 0 -1 0 -1 0 0 0 -1 1 -1 0 0 0 -1 0 -1 0 0 1 -1 0 0 0 -1 1 0 0 -1 1 0 0 -1 1 0 0 -1 1 0 0 -1 1 0 0 0 1 -1 1 0 0 0 1 0 1 -1 0 0 1 0 1 0 0 0 1 0 0 0z"/>
   </g>
   <g>
    <path class="fil0" d="M1308 4186l-47 0 0 -7 47 0 0 0 0 7zm24 16l-8 0 0 0 0 -1 0 0 0 -1 0 -1 0 -1 0 -1 -1 0 0 -1 0 -1 -1 0 0 -1 0 -1 -1 0 0 -1 -1 -1 0 0 -1 -1 0 0 -1 -1 -1 0 0 -1 -1 0 -1 0 0 -1 -1 0 -1 0 -1 0 0 -1 -1 0 -1 0 -1 0 -1 0 0 -7 2 0 1 0 1 0 1 0 1 0 1 1 1 0 2 0 1 1 1 0 1 1 1 1 0 0 1 1 1 1 1 0 1 1 1 1 0 1 1 1 1 1 0 1 1 1 0 1 1 1 0 1 0 1 0 1 1 2 0 1 0 1 0 1 0 0zm-24 24l0 -8 0 0 1 0 1 0 1 0 1 0 0 0 1 -1 1 0 1 0 0 0 1 -1 1 0 0 -1 1 0 1 -1 0 0 1 -1 0 0 1 -1 0 0 1 -1 0 -1 0 0 1 -1 0 -1 0 0 1 -1 0 -1 0 -1 0 0 0 -1 0 -1 0 -1 8 0 0 1 0 2 0 1 -1 1 0 1 0 1 0 1 -1 1 0 1 -1 1 0 1 -1 1 -1 1 0 1 -1 1 -1 1 -1 1 -1 0 -1 1 0 1 -1 0 -1 1 -1 0 -1 1 -2 0 -1 1 -1 0 -1 0 -1 0 -1 1 -1 0 -2 0 0 0zm-47 -8l47 0 0 8 -47 0 0 0 0 -8zm-23 -16l7 0 0 0 0 1 0 1 1 1 0 0 0 1 0 1 0 1 1 0 0 1 0 1 1 0 0 1 1 1 0 0 0 1 1 0 1 1 0 0 1 1 0 0 1 1 1 0 0 1 1 0 1 0 1 0 0 1 1 0 1 0 1 0 0 0 1 0 0 8 -1 0 -1 0 -1 -1 -1 0 -2 0 -1 0 -1 -1 -1 0 -1 -1 -1 0 -1 -1 -1 0 -1 -1 -1 -1 -1 0 0 -1 -1 -1 -1 -1 -1 -1 0 -1 -1 -1 0 -1 -1 -1 0 -1 -1 -1 0 -1 -1 -1 0 -1 0 -1 0 -1 0 -2 0 -1 0 0zm23 -23l0 7 0 0 -1 0 0 0 -1 0 -1 0 -1 1 0 0 -1 0 -1 0 -1 1 0 0 -1 0 -1 1 0 0 -1 1 0 0 -1 1 -1 0 0 1 0 1 -1 0 0 1 -1 1 0 0 0 1 -1 1 0 0 0 1 0 1 0 1 -1 1 0 0 0 1 -7 0 0 -1 0 -1 0 -1 0 -2 0 -1 1 -1 0 -1 1 -1 0 -1 1 -1 0 -1 1 -1 0 -1 1 -1 1 -1 1 -1 0 0 1 -1 1 -1 1 0 1 -1 1 -1 1 0 1 -1 1 0 1 0 1 -1 2 0 1 0 1 0 1 0 1 0 0 0z"/>
   </g>
   <g>
    <path class="fil0" d="M1626 3346l-28 0 0 -8 28 0 0 0 0 8zm37 10l-7 3 0 0 -1 -1 0 0 0 -1 -1 -1 0 0 -1 -1 0 -1 -1 0 -1 -1 -1 0 -1 -1 -1 0 -1 -1 -1 -1 -1 0 -1 0 -1 -1 -1 0 -1 -1 -1 0 -1 0 -2 -1 -1 0 -1 0 -1 0 -1 -1 -1 0 -2 0 -1 0 -1 0 -1 0 -1 0 0 -8 2 0 1 0 1 0 1 0 2 1 1 0 1 0 1 0 2 1 1 0 2 0 1 1 1 0 2 0 1 1 1 0 1 1 2 1 1 0 1 1 1 1 2 0 1 1 1 1 1 1 1 1 1 1 0 1 1 1 1 1 0 1 1 1 0 0zm-16 13l5 -6 -1 0 1 0 0 0 0 0 0 0 0 0 1 0 0 0 0 0 0 0 1 0 0 0 0 0 0 0 0 0 1 -1 0 0 0 0 0 0 0 0 0 0 0 0 1 -1 0 0 0 0 0 0 0 0 0 -1 0 0 0 0 0 -1 0 0 0 0 7 -3 0 1 0 1 0 1 0 1 0 1 0 1 0 0 0 1 0 1 -1 1 0 0 0 1 -1 1 0 0 -1 1 0 0 -1 1 -1 0 0 0 -1 1 -1 0 0 0 -1 0 -1 1 -1 0 0 0 -1 0 -1 0 -1 -1 0 0 -1 0 -1 0 -1 -1zm1 1l0 -1 -1 0 1 1zm-15 -9l1 -7 0 0 0 0 1 0 0 0 1 0 1 0 0 1 1 0 0 0 1 0 1 0 0 1 1 0 0 0 1 0 0 1 1 0 1 0 0 0 1 1 0 0 1 1 0 0 1 0 1 1 0 0 1 1 0 0 1 0 0 1 1 0 1 1 0 0 -5 6 0 0 -1 -1 0 0 -1 -1 0 0 -1 0 0 -1 -1 0 0 0 -1 -1 0 0 -1 0 0 -1 -1 0 0 0 -1 0 0 -1 0 0 -1 0 0 0 -1 0 0 -1 -1 0 0 0 0 0 -1 0 0 0 -1 0 0 0 -1 -1 0 0 0 0 0 0zm1 -7l0 0 0 0 0 0zm-50 7l-1 -7 0 0 2 -1 1 0 2 0 1 0 2 0 1 -1 2 0 1 0 2 0 1 0 2 0 1 0 2 0 1 0 2 0 1 0 2 0 1 0 2 0 1 0 2 0 2 0 1 0 2 0 1 1 2 0 2 0 1 0 2 0 2 0 2 1 2 0 -1 7 -2 0 -2 0 -2 0 -1 0 -2 -1 -2 0 -1 0 -2 0 -1 0 -2 0 -1 0 -2 0 -1 0 -2 -1 -1 0 -2 0 -1 0 -2 0 -1 0 -1 0 -2 0 -1 1 -2 0 -1 0 -2 0 -1 0 -1 0 -2 0 -1 0 -2 1 -1 0 -2 0 0 0zm0 0l0 0 1 0 -1 0zm-12 8l-7 0 0 0 0 -1 0 0 0 -1 0 -1 1 -1 0 -1 0 -1 1 0 0 -1 1 -1 0 0 1 -1 1 0 0 -1 1 0 0 -1 1 0 1 -1 0 0 1 -1 1 0 1 0 0 -1 1 0 1 0 1 0 0 -1 1 0 1 0 0 0 1 0 1 0 1 7 0 0 -1 0 0 0 -1 0 -1 1 0 0 -1 0 0 0 -1 0 0 1 -1 0 0 0 -1 0 0 1 -1 0 0 0 -1 1 0 0 0 0 -1 1 0 0 0 0 -1 1 0 0 0 0 0 0 0 1 0 0 0 0 -1 1 0 0 0 0 0 0zm9 8l-1 8 0 0 -1 0 0 0 -1 0 -1 -1 0 0 -1 0 -1 0 0 0 -1 -1 -1 0 0 0 -1 -1 -1 0 0 -1 -1 0 0 -1 -1 0 0 -1 -1 0 0 -1 -1 0 0 -1 0 -1 -1 0 0 -1 0 -1 -1 -1 0 0 0 -1 0 -1 0 -1 0 -1 7 0 0 1 0 0 1 1 0 0 0 0 0 1 0 0 0 0 0 1 0 0 1 0 0 1 0 0 0 0 1 1 0 0 0 0 0 0 1 1 0 0 0 0 1 0 0 0 1 1 0 0 0 0 1 0 0 0 1 0 0 0 1 0 0 0 0 0zm-1 8l0 0 -1 0 1 0zm48 -8l1 8 0 0 -2 0 -1 0 -2 1 -1 0 -2 0 -1 0 -2 0 -1 0 -2 0 -2 0 -1 0 -2 0 -1 0 -2 0 -1 0 -2 0 -1 0 -2 0 -1 0 -2 0 -1 0 -2 0 -1 0 -2 0 -1 0 -2 0 -1 0 -2 0 -1 0 -2 -1 -1 0 -2 0 1 -8 1 1 2 0 1 0 2 0 1 0 2 0 1 0 2 1 1 0 1 0 2 0 1 0 2 0 1 0 2 0 1 0 2 0 1 0 2 0 1 0 2 0 1 0 2 0 1 -1 2 0 1 0 2 0 1 0 2 0 1 0 2 0 1 -1 0 0zm0 0l0 0 0 0 0 0zm39 31l-7 -1 0 0 0 -2 0 -1 0 -2 0 -1 0 -1 -1 -2 0 -1 0 -1 -1 -1 0 -1 -1 -1 0 -1 -1 0 -1 -1 -1 -1 -1 0 -1 -1 -1 -1 -1 0 -1 -1 -1 0 -2 0 -1 -1 -2 0 -1 0 -2 -1 -2 0 -1 0 -2 0 -2 0 -2 0 -2 0 -1 -8 3 0 2 0 2 0 2 0 2 1 2 0 2 0 2 0 2 1 1 0 2 1 2 0 1 1 2 1 1 0 2 1 1 1 1 1 1 1 1 2 1 1 1 1 1 2 1 1 0 2 1 1 0 2 0 2 0 2 1 2 0 2 -1 2 0 0zm-46 31l0 -7 0 0 2 0 3 -1 3 0 2 0 3 0 2 -1 2 0 2 0 2 -1 1 -1 2 0 1 -1 2 -1 1 0 1 -1 1 -1 1 -1 1 -1 1 0 1 -1 1 -1 0 -1 1 -1 0 -1 1 -2 0 -1 1 -1 0 -1 0 -1 0 -2 1 -1 0 -1 7 1 0 1 0 2 0 1 -1 2 0 1 -1 2 0 1 -1 2 0 1 -1 2 -1 1 -1 1 -1 2 -1 1 -2 1 -1 1 -1 1 -2 1 -2 1 -1 1 -2 1 -2 1 -2 0 -2 1 -3 0 -2 1 -2 0 -3 1 -3 0 -2 0 -3 0 -3 0 0 0zm-32 -7l32 0 0 7 -32 0 0 0 0 -7zm-34 -8l7 -3 0 0 0 0 0 1 1 0 0 0 0 0 0 1 1 0 0 1 1 0 0 1 1 0 1 0 0 1 1 0 1 1 1 0 0 1 1 0 1 1 1 0 1 0 1 1 2 0 1 0 1 1 1 0 2 0 1 0 1 0 2 1 1 0 2 0 0 7 -2 0 -2 0 -1 0 -2 0 -2 0 -1 -1 -2 0 -1 0 -1 -1 -2 0 -1 0 -1 -1 -2 0 -1 -1 -1 0 -1 -1 -1 0 -1 -1 -1 -1 -1 0 -1 -1 0 0 -1 -1 -1 -1 -1 0 0 -1 -1 -1 0 0 -1 -1 0 0 0 -1 -1 -1 0 0zm0 0l0 0 0 0 0 0zm13 -13l-4 6 1 1 0 0 -1 0 0 0 -1 0 0 0 0 0 0 0 0 0 0 0 -1 0 0 0 0 0 0 0 0 0 0 0 0 0 0 0 0 0 0 0 0 1 0 0 0 0 0 0 0 0 0 0 0 1 0 0 0 0 0 0 0 1 0 0 0 0 -7 3 0 -1 0 0 0 -1 -1 -1 0 0 0 -1 0 0 0 -1 0 -1 0 0 1 -1 0 -1 0 0 0 -1 0 -1 1 0 0 -1 1 0 0 -1 1 0 0 -1 1 0 1 0 0 0 1 -1 1 0 1 0 0 0 1 0 1 0 1 0 1 0 1 1zm-1 -1l0 1 1 0 -1 -1zm12 6l-1 7 0 0 0 0 -1 0 0 0 -1 0 0 0 -1 0 0 0 -1 -1 0 0 -1 0 0 0 -1 0 0 0 -1 -1 0 0 -1 0 0 0 -1 0 0 -1 0 0 -1 0 0 0 -1 0 0 -1 -1 0 0 0 0 0 -1 -1 0 0 -1 0 0 0 0 -1 4 -6 0 0 1 1 0 0 0 0 1 0 0 0 0 1 1 0 0 0 0 0 1 0 0 0 0 1 1 0 0 0 0 0 1 0 0 0 0 0 1 1 0 0 0 0 1 0 0 0 0 0 1 0 0 0 1 0 0 0 0 1 1 0 0 0 0 0zm0 0l0 0 0 0 0 0zm58 0l1 7 0 0 -2 0 -2 1 -2 0 -2 0 -2 0 -2 0 -1 0 -2 0 -2 1 -2 0 -2 0 -2 0 -1 0 -2 0 -2 0 -2 0 -2 0 -2 0 -2 0 -2 0 -1 0 -2 0 -2 0 -2 -1 -2 0 -2 0 -2 0 -1 0 -2 0 -2 0 -2 -1 -2 0 1 -7 2 0 2 0 1 0 2 0 2 0 2 1 2 0 1 0 2 0 2 0 2 0 2 0 2 0 1 0 2 0 2 0 2 0 2 0 1 0 2 0 2 0 2 0 2 0 1 0 2 0 2 0 2 -1 2 0 1 0 2 0 2 0 2 0 0 0zm8 -9l8 0 0 0 0 1 0 1 0 1 0 0 -1 1 0 1 0 1 0 0 -1 1 0 1 0 0 -1 1 0 1 -1 0 0 1 -1 0 0 1 -1 0 0 1 -1 0 -1 1 0 0 -1 0 -1 1 0 0 -1 0 -1 0 0 1 -1 0 -1 0 -1 0 0 0 -1 -7 0 0 1 -1 0 0 1 0 0 0 0 0 1 0 0 0 1 -1 0 0 0 0 1 0 0 0 0 -1 1 0 0 0 0 0 1 -1 0 0 0 0 0 -1 0 0 1 0 0 -1 0 0 0 0 0 -1 0 0 0 0 0 -1 0 0 0 -1 0 0zm-8 -8l0 -8 0 0 1 0 1 1 1 0 0 0 1 0 1 0 1 0 0 1 1 0 1 0 0 1 1 0 1 1 0 0 1 1 0 0 1 1 0 0 1 1 0 0 1 1 0 1 0 0 1 1 0 1 0 1 1 0 0 1 0 1 0 1 0 0 0 1 -8 0 0 0 0 -1 0 0 0 0 0 -1 0 0 0 -1 0 0 0 0 -1 -1 0 0 0 0 0 -1 -1 0 0 0 0 -1 0 0 -1 0 0 0 0 -1 -1 0 0 0 0 0 -1 0 0 0 0 -1 -1 0 0 0 -1 0 0 0 0 0 -1 0 0 0zm-49 -8l49 0 0 8 -49 0 0 0 0 -8zm0 8l0 0 0 0 0 0zm-36 -32l7 0 0 0 0 2 0 1 0 2 0 1 0 1 1 1 0 1 0 2 0 1 1 0 0 1 1 1 0 1 1 1 0 1 1 0 1 1 1 1 0 0 1 1 2 1 1 0 1 1 1 0 2 1 2 0 1 0 2 1 2 0 2 0 3 0 2 0 0 8 -3 0 -2 0 -3 -1 -2 0 -2 0 -2 -1 -2 0 -2 -1 -2 0 -1 -1 -2 -1 -1 0 -2 -1 -1 -1 -1 -1 -1 -1 -1 -1 -1 -1 -1 -2 -1 -1 -1 -1 0 -2 -1 -1 0 -1 -1 -2 0 -1 0 -2 0 -1 0 -2 0 -2 -1 -1 1 -2 0 0zm46 -29l0 8 0 0 -2 0 -1 0 -2 0 -2 0 -2 0 -1 1 -2 0 -2 0 -1 1 -2 0 -2 1 -1 0 -2 1 -1 1 -2 0 -1 1 -2 1 -1 1 -1 1 -2 1 -1 0 -1 1 -1 1 0 1 -1 1 -1 1 0 1 -1 1 0 1 -1 1 0 1 0 1 -7 0 0 -2 0 -1 0 -2 1 -2 1 -1 1 -2 1 -1 1 -2 1 -1 1 -1 1 -1 2 -1 1 -2 2 -1 1 -1 2 0 2 -1 1 -1 2 -1 2 -1 2 0 2 -1 2 0 1 -1 2 0 2 -1 2 0 2 0 2 -1 2 0 2 0 2 0 0 0z"/>
   </g>
  </g>
 </g>
</svg>
