<?xml version="1.0" encoding="UTF-8"?>
<!DOCTYPE svg PUBLIC "-//W3C//DTD SVG 1.1//EN" "http://www.w3.org/Graphics/SVG/1.1/DTD/svg11.dtd">
<!-- Creator: CorelDRAW -->
<svg xmlns="http://www.w3.org/2000/svg" xml:space="preserve" width="40mm" height="60mm" style="shape-rendering:geometricPrecision; text-rendering:geometricPrecision; image-rendering:optimizeQuality; fill-rule:evenodd; clip-rule:evenodd"
viewBox="0 0 40 60"
 xmlns:xlink="http://www.w3.org/1999/xlink">
 <defs>
  <style type="text/css">
   <![CDATA[
    .str0 {stroke:#1F1A17;stroke-width:0.194}
    .fil0 {fill:none;fill-rule:nonzero}
   ]]>
  </style>
 </defs>
 <g id="图层_x0020_4">
  <metadata id="CorelCorpID_0Corel-Layer"/>
  <path class="fil0 str0" d="M20.2579 47.0982c0,-3.1093 -0.0292,-6.5398 -0.0584,-6.9192 -0.0167,-0.2201 -0.1021,-0.465 -0.2448,-0.6973 -0.3817,-0.6255 -0.9241,-0.9321 -1.6933,-0.9555 -3.0587,0 -4.2469,-0.0267 -7.3854,-0.0133 -0.6769,0.094 -0.8251,0.1389 -1.1159,0.3332 -0.4369,0.2909 -0.8097,0.8803 -0.8297,1.3093m11.3275 6.9428l0 0.0943m0 0c0,2.2445 -0.0056,2.733 -0.0337,3.1564 -0.0281,0.4233 -0.0639,0.5547 -0.2335,0.8489m0 0l-0.0067 0.0123m0 0c-0.3201,0.5602 -0.8737,0.942 -1.4384,0.9926 -0.2156,0.0203 -1.9595,0.0348 -4.0256,0.0348 -2.0347,0 -3.7302,-0.0145 -3.9436,-0.0337 -0.7591,-0.0685 -1.4923,-0.7568 -1.645,-1.5416 -0.0168,-0.0877 -0.0236,-0.2 -0.028,-0.4683m0 0l0.027 -10.0385"/>
  <path class="fil0 str0" d="M35.7141 47.0982c0,-3.1093 -0.0292,-6.5398 -0.0584,-6.9192 -0.0167,-0.2201 -0.1021,-0.465 -0.2448,-0.6973 -0.3817,-0.6255 -0.9241,-0.9321 -1.6933,-0.9555 -3.0587,0 -4.2469,-0.0267 -7.3854,-0.0133 -0.6769,0.094 -0.8251,0.1389 -1.1159,0.3332 -0.4369,0.2909 -0.8097,0.8803 -0.8297,1.3093m11.3275 6.9428l0 0.0943m0 0c0,2.2445 -0.0056,2.733 -0.0337,3.1564 -0.0281,0.4233 -0.0639,0.5547 -0.2335,0.8489m0 0l-0.0067 0.0123m0 0c-0.3201,0.5602 -0.8737,0.942 -1.4384,0.9926 -0.2156,0.0203 -1.9595,0.0348 -4.0256,0.0348 -2.0347,0 -3.7302,-0.0145 -3.9436,-0.0337 -0.7591,-0.0685 -1.4923,-0.7568 -1.645,-1.5416 -0.0169,-0.0877 -0.0236,-0.2 -0.028,-0.4683m0 0l0.027 -10.0385"/>
  <path class="fil0 str0" d="M35.7141 30.4819c0,-3.1093 -0.0292,-6.5397 -0.0584,-6.9192 -0.0167,-0.2201 -0.1021,-0.4649 -0.2448,-0.6973 -0.3817,-0.6255 -0.9241,-0.9321 -1.6933,-0.9555 -3.0587,0 -4.2469,-0.0266 -7.3854,-0.0133 -0.6769,0.094 -0.8251,0.1389 -1.1159,0.3333 -0.4369,0.2908 -0.8097,0.8802 -0.8297,1.3093m11.3275 6.9427l0 0.0943m0 0c0,2.2445 -0.0056,2.7331 -0.0337,3.1565 -0.0281,0.4232 -0.0639,0.5546 -0.2335,0.8488m0 0l-0.0067 0.0124m0 0c-0.3201,0.5602 -0.8737,0.942 -1.4384,0.9926 -0.2156,0.0203 -1.9595,0.0347 -4.0256,0.0347 -2.0347,0 -3.7302,-0.0144 -3.9436,-0.0336 -0.7591,-0.0685 -1.4923,-0.7568 -1.645,-1.5417 -0.0169,-0.0877 -0.0236,-0.1999 -0.028,-0.4683m0 0l0.027 -10.0384"/>
  <path class="fil0 str0" d="M20.291 30.4819c0,-3.1093 -0.0292,-6.5397 -0.0584,-6.9192 -0.0167,-0.2201 -0.102,-0.4649 -0.2448,-0.6973 -0.3817,-0.6255 -0.9241,-0.9321 -1.6932,-0.9555 -3.0587,0 -4.2469,-0.0266 -7.3854,-0.0133 -0.6769,0.094 -0.8251,0.1389 -1.116,0.3333 -0.4368,0.2908 -0.8096,0.8802 -0.8297,1.3093m11.3275 6.9427l0 0.0943m0 0c0,2.2445 -0.0055,2.7331 -0.0336,3.1565 -0.0281,0.4232 -0.064,0.5546 -0.2336,0.8488m0 0l-0.0067 0.0124m0 0c-0.32,0.5602 -0.8737,0.942 -1.4384,0.9926 -0.2156,0.0203 -1.9594,0.0347 -4.0255,0.0347 -2.0347,0 -3.7303,-0.0144 -3.9437,-0.0336 -0.759,-0.0685 -1.4923,-0.7568 -1.645,-1.5417 -0.0168,-0.0877 -0.0236,-0.1999 -0.0279,-0.4683m0 0l0.0269 -10.0384"/>
  <path class="fil0 str0" d="M20.291 13.8265c0,-3.1093 -0.0292,-6.5397 -0.0584,-6.9192 -0.0167,-0.2201 -0.102,-0.4649 -0.2448,-0.6973 -0.3817,-0.6255 -0.9241,-0.9321 -1.6932,-0.9555 -3.0587,0 -4.2469,-0.0266 -7.3854,-0.0132 -0.6769,0.0939 -0.8251,0.1388 -1.116,0.3332 -0.4368,0.2908 -0.8096,0.8803 -0.8297,1.3093m11.3275 6.9427l0 0.0943m0 0c0,2.2446 -0.0055,2.7331 -0.0336,3.1565 -0.0281,0.4232 -0.064,0.5546 -0.2336,0.8488m0 0l-0.0067 0.0124m0 0c-0.32,0.5602 -0.8737,0.942 -1.4384,0.9926 -0.2156,0.0203 -1.9594,0.0348 -4.0255,0.0348 -2.0347,0 -3.7303,-0.0145 -3.9437,-0.0337 -0.759,-0.0685 -1.4923,-0.7568 -1.645,-1.5417 -0.0168,-0.0877 -0.0236,-0.1999 -0.0279,-0.4682m0 0l0.0269 -10.0385"/>
  <path class="fil0 str0" d="M35.7592 13.8265c0,-3.1093 -0.0292,-6.5397 -0.0584,-6.9192 -0.0167,-0.2201 -0.1021,-0.4649 -0.2448,-0.6973 -0.3817,-0.6255 -0.9241,-0.9321 -1.6933,-0.9555 -3.0587,0 -4.2468,-0.0266 -7.3853,-0.0132 -0.677,0.0939 -0.8252,0.1388 -1.116,0.3332 -0.4369,0.2908 -0.8096,0.8803 -0.8297,1.3093m11.3275 6.9427l0 0.0943m0 0c0,2.2446 -0.0056,2.7331 -0.0337,3.1565 -0.028,0.4232 -0.0639,0.5546 -0.2335,0.8488m0 0l-0.0067 0.0124m0 0c-0.3201,0.5602 -0.8737,0.942 -1.4384,0.9926 -0.2156,0.0203 -1.9595,0.0348 -4.0256,0.0348 -2.0347,0 -3.7302,-0.0145 -3.9436,-0.0337 -0.7591,-0.0685 -1.4923,-0.7568 -1.645,-1.5417 -0.0168,-0.0877 -0.0236,-0.1999 -0.028,-0.4682m0 0l0.027 -10.0385"/>
 </g>
</svg>
