<?xml version="1.0" encoding="UTF-8"?>
<!DOCTYPE svg PUBLIC "-//W3C//DTD SVG 1.1//EN" "http://www.w3.org/Graphics/SVG/1.1/DTD/svg11.dtd">
<!-- Creator: CorelDRAW 2020 (64-Bit) -->
<svg xmlns="http://www.w3.org/2000/svg" xml:space="preserve" width="40mm" height="60mm" version="1.1" style="shape-rendering:geometricPrecision; text-rendering:geometricPrecision; image-rendering:optimizeQuality; fill-rule:evenodd; clip-rule:evenodd"
viewBox="0 0 4000 6000"
 xmlns:xlink="http://www.w3.org/1999/xlink"
 xmlns:xodm="http://www.corel.com/coreldraw/odm/2003">
 <defs>
  <style type="text/css">
   <![CDATA[
    .str1 {stroke:#332C2B;stroke-width:20;stroke-miterlimit:22.9256}
    .str2 {stroke:#332C2B;stroke-width:20;stroke-miterlimit:22.9256}
    .str0 {stroke:#E62129;stroke-width:20;stroke-miterlimit:22.9256}
    .fil0 {fill:none}
   ]]>
  </style>
   <clipPath id="id0">
    <rect x="-35135.53" y="-5218.51" width="12764.74" height="16848"/>
   </clipPath>
 </defs>
 <g id="图层_x0020_1">
  <metadata id="CorelCorpID_0Corel-Layer"/>
  <g style="clip-path:url(#id0)">
   <image x="-35135.53" y="-5218.51" width="12764.74" height="16848" xlink:href="80 -11i（前膜全屏）_Images\80 -11i（前膜全屏）_ImgID1.png"/>
  </g>
  <rect class="fil0 str0" x="-30028.89" y="-4849.35" width="7390" height="16160"/>
  <rect class="fil0 str0" x="-29969.09" y="-4683.99" width="7270.4" height="15853.72" rx="600" ry="645.96"/>
  <circle class="fil0 str1" cx="-26353.34" cy="-4161.21" r="200.09"/>
  <path class="fil0 str2" d="M-1747.41 6715.5l0 -6445.79c0,-329.98 -270.01,-599.99 -600,-599.99l-14653.72 0c-330,0 -600,270 -600,599.99l0 6070.41c0,329.99 270,600 600,600l14653.72 0c330,0 600,-270.01 600,-600 0,-329.99 34.81,-476.62 124.11,-581.63"/>
  <path class="fil0 str2" d="M-17278.44 3324.37c0,110.51 89.58,200.09 200.09,200.09 110.51,0 200.09,-89.58 200.09,-200.09 0,-110.51 -89.58,-200.09 -200.09,-200.09 -110.51,0 -200.09,89.58 -200.09,200.09 0,110.51 114.92,145.52 162.05,148.83"/>
  <g id="_2434838017120">
   <path class="fil0 str2" d="M992.95 5313.56l1896.08 0c97.06,0 176.49,-79.42 176.49,-176.49l0 -4310.5c0,-97.08 -79.42,-176.5 -176.49,-176.5l-1785.66 0c-97.06,0 -176.49,79.42 -176.49,176.5l0 4310.5c0,97.07 79.43,176.49 176.49,176.49 97.07,0 140.21,10.24 171.09,36.51"/>
   <path class="fil0 str2" d="M1990.48 744.99c-32.51,0 -58.86,26.35 -58.86,58.86 0,32.51 26.35,58.86 58.86,58.86 32.51,0 58.86,-26.35 58.86,-58.86 0,-32.51 -26.35,-58.86 -58.86,-58.86 -32.51,0 -42.81,33.81 -43.78,47.67"/>
  </g>
 </g>
</svg>
