<?xml version="1.0" encoding="UTF-8"?>
<!DOCTYPE svg PUBLIC "-//W3C//DTD SVG 1.1//EN" "http://www.w3.org/Graphics/SVG/1.1/DTD/svg11.dtd">
<!-- Creator: CorelDRAW X8 -->
<svg xmlns="http://www.w3.org/2000/svg" xml:space="preserve" width="40mm" height="60mm" version="1.1" style="shape-rendering:geometricPrecision; text-rendering:geometricPrecision; image-rendering:optimizeQuality; fill-rule:evenodd; clip-rule:evenodd"
viewBox="0 0 4000 6000"
 xmlns:xlink="http://www.w3.org/1999/xlink">
 <defs>
  <style type="text/css">
   <![CDATA[
    .str0 {stroke:black;stroke-width:7.62}
    .fil0 {fill:none}
   ]]>
  </style>
 </defs>
 <g id="图层_x0020_1">
  <metadata id="CorelCorpID_0Corel-Layer"/>
  <path class="fil0 str0" d="M887 5350l2132 0c68,0 123,-56 123,-123l0 -4453c0,-68 -55,-124 -123,-124l-2038 0c-68,0 -123,56 -123,124l0 4453c0,67 55,123 123,123l148 0m1931 -4541c0,-2 -2,-4 -6,-4 -14,0 -26,11 -26,26 0,14 12,25 26,25 14,0 26,-11 26,-25 0,-15 -12,-26 -26,-26m-1055 -32c-6,-23 -15,-39 -54,-39l-33 0c-45,0 -82,37 -82,82l0 0c0,45 37,82 82,82l914 0c45,0 82,-37 82,-82l0 0c0,-45 -37,-82 -82,-82l-881 0"/>
 </g>
</svg>
