<?xml version="1.0" encoding="UTF-8"?>
<!DOCTYPE svg PUBLIC "-//W3C//DTD SVG 1.1//EN" "http://www.w3.org/Graphics/SVG/1.1/DTD/svg11.dtd">
<!-- Creator: CorelDRAW X8 -->
<svg xmlns="http://www.w3.org/2000/svg" xml:space="preserve" width="40mm" height="60mm" version="1.1" style="shape-rendering:geometricPrecision; text-rendering:geometricPrecision; image-rendering:optimizeQuality; fill-rule:evenodd; clip-rule:evenodd"
viewBox="0 0 4000 6000"
 xmlns:xlink="http://www.w3.org/1999/xlink">
 <defs>
  <style type="text/css">
   <![CDATA[
    .str0 {stroke:black;stroke-width:20}
    .fil0 {fill:none}
   ]]>
  </style>
 </defs>
 <g id="图层_x0020_1">
  <metadata id="CorelCorpID_0Corel-Layer"/>
  <g id="_2781080193472">
   <path class="fil0 str0" d="M150 1208l466 0c90,0 167,54 196,139 13,36 47,62 88,62l0 0c39,0 73,-25 86,-60 31,-83 106,-136 195,-136l1180 0c89,0 164,53 195,136 13,35 47,60 86,60l0 0c41,0 75,-26 88,-62 29,-85 106,-139 196,-139l823 0 0 97 100 56 1 0 0 222 -1 1 -100 55 0 111 0 111 100 55 1 1 0 222 -1 1 -100 55 0 111 0 111 100 55 1 1 0 222 -1 0 -100 56 0 110 0 111 100 56 1 0 0 222 -1 1 -100 55 0 111 0 111 100 55 1 1 0 222 -1 0 -100 56 0 111 0 110 100 56 1 0 0 222 -1 1 -100 55 0 111 0 111 100 55 1 1 0 97 -924 0c-90,0 -167,-54 -196,-139 -13,-36 -47,-62 -87,-62l0 0c-40,0 -74,25 -87,60 -31,83 -106,136 -195,136l-1180 0c-89,0 -164,-53 -195,-136 -13,-35 -47,-60 -86,-60l0 0c-41,0 -75,26 -87,62 -30,85 -107,139 -197,139l-365 0 0 -97 -100 -56 -1 0 0 -222 1 -1 100 -55 0 -111 0 -111 -100 -55 -1 -1 0 -222 1 0 100 -56 0 -110 0 -111 -100 -56 -1 0 0 -222 1 -1 100 -55 0 -111 0 -111 -100 -55 -1 -1 0 -222 1 0 100 -56 0 -111 0 -110 -100 -56 -1 0 0 -222 1 -1 100 -55 0 -111 0 -111 -100 -55 -1 -1 0 -222 1 -1 100 -55 0 -111 0 -111 -100 -55 -1 0 0 -98z"/>
   <path class="fil0 str0" d="M1192 1306l265 0c29,0 52,23 52,52l0 0c0,28 -23,51 -52,51l-265 0c-28,0 -52,-23 -52,-51l0 0c0,-29 24,-52 52,-52z"/>
   <path class="fil0 str0" d="M3078 1345l403 0c70,0 126,55 126,122l0 894c0,67 -56,122 -126,122l-403 0c-70,0 -126,-55 -126,-122l0 -894c0,-67 56,-122 126,-122z"/>
   <path class="fil0 str0" d="M2697 1924l0 0c19,0 35,15 35,34l0 392c0,19 -16,35 -35,35l0 0c-19,0 -35,-16 -35,-35l0 -392c0,-19 16,-34 35,-34z"/>
   <path class="fil0 str0" d="M2697 2511l0 0c19,0 35,16 35,35l0 173c0,19 -16,34 -35,34l0 0c-19,0 -35,-15 -35,-34l0 -173c0,-19 16,-35 35,-35z"/>
  </g>
  <path class="fil0 str0" d="M-28887 -6854l2023 0c390,0 723,237 850,606 54,157 204,270 378,270l0 0c172,0 320,-110 376,-262 133,-360 460,-589 844,-589l5121 0c384,0 711,229 844,589 56,152 204,262 376,262l0 0c174,0 324,-113 378,-270 127,-369 460,-606 850,-606l3572 0 0 425 433 240 5 3 0 962 -5 3 -433 240 0 481 0 481 433 240 5 3 0 962 -5 3 -433 240 0 481 0 481 433 240 5 3 0 962 -5 3 -433 240 0 481 0 481 433 240 5 3 0 962 -5 3 -433 240 0 481 0 481 433 240 5 3 0 962 -5 3 -433 240 0 481 0 481 433 240 5 3 0 961 -6 3 -433 240 0 481 0 480 433 240 6 3 0 424 -4009 0c-391,0 -723,-236 -851,-605 -54,-157 -203,-270 -378,-270l0 0c-172,0 -319,109 -375,262 -134,360 -461,588 -845,588l-5121 0c-383,0 -711,-228 -844,-588 -56,-152 -203,-262 -375,-262l0 0c-175,0 -324,113 -378,270 -128,369 -460,605 -851,605l-1586 0 0 -424 -433 -240 -4 -3 0 -961 4 -3 433 -240 0 -481 0 -480 -433 -240 -4 -3 0 -963 4 -3 433 -240 0 -481 0 -480 -433 -240 -4 -3 0 -963 4 -3 433 -240 0 -481 0 -480 -433 -240 -4 -3 0 -963 4 -3 433 -240 0 -481 0 -480 -433 -240 -4 -3 0 -963 4 -3 433 -240 0 -481 0 -480 -433 -240 -4 -3 0 -963 4 -3 433 -240 0 -481 0 -480 -433 -240 -4 -3 0 -425z"/>
  <path class="fil0 str0" d="M-24366 -6428l1150 0c124,0 225,101 225,225l0 0c0,123 -101,225 -225,225l-1150 0c-124,0 -225,-102 -225,-225l0 0c0,-124 101,-225 225,-225z"/>
  <path class="fil0 str0" d="M-16186 -6257l1749 0c301,0 547,238 547,531l0 3874c0,292 -246,531 -547,531l-1749 0c-302,0 -547,-239 -547,-531l0 -3874c0,-293 245,-531 547,-531z"/>
  <path class="fil0 str0" d="M-17838 -3748l0 0c82,0 150,67 150,150l0 1700c0,82 -68,150 -150,150l0 0c-83,0 -150,-68 -150,-150l0 -1700c0,-83 67,-150 150,-150z"/>
  <path class="fil0 str0" d="M-17838 -1199l0 0c82,0 150,68 150,150l0 750c0,83 -68,150 -150,150l0 0c-83,0 -150,-67 -150,-150l0 -750c0,-82 67,-150 150,-150z"/>
 </g>
</svg>
