<?xml version="1.0" encoding="UTF-8"?>
<!DOCTYPE svg PUBLIC "-//W3C//DTD SVG 1.1//EN" "http://www.w3.org/Graphics/SVG/1.1/DTD/svg11.dtd">
<!-- Creator: CorelDRAW -->
<svg xmlns="http://www.w3.org/2000/svg" xml:space="preserve" width="40mm" height="60mm" style="shape-rendering:geometricPrecision; text-rendering:geometricPrecision; image-rendering:optimizeQuality; fill-rule:evenodd; clip-rule:evenodd"
viewBox="0 0 40 60"
 xmlns:xlink="http://www.w3.org/1999/xlink">
 <defs>
  <style type="text/css">
   <![CDATA[
    .str1 {stroke:#1F1A17;stroke-width:0.0762;stroke-linejoin:bevel}
    .str0 {stroke:#1F1A17;stroke-width:0.0762;stroke-linejoin:bevel}
    .fil0 {fill:none}
   ]]>
  </style>
 </defs>
 <g id="图层_x0020_1">
  <metadata id="CorelCorpID_0Corel-Layer"/>
  <g id="_166441200">
   <path id="_142548912" class="fil0 str0" d="M11.631 6.5l16.738 0c0.639,-0.0004 1.2519,0.253 1.704,0.7045 0.4521,0.4515 0.7063,1.0672 0.7067,1.7061l0 42.1787c0.0004,0.639 -0.253,1.2519 -0.7045,1.704 -0.4516,0.4521 -1.0672,0.7063 -1.7062,0.7067l-16.738 0c-0.639,0.0004 -1.2519,-0.2531 -1.704,-0.7046 -0.4521,-0.4515 -0.7063,-1.0671 -0.7067,-1.7061l0 -42.1787c-0.0004,-0.6389 0.253,-1.2518 0.7045,-1.7039 0.4516,-0.4521 1.0672,-0.7063 1.7062,-0.7067z"/>
   <path id="_142548624" class="fil0 str1" d="M21.5922 18.5439l0 -1.5714c-0.0002,-0.5534 -0.3739,-1.0363 -0.9097,-1.1745 -0.4476,-0.1155 -0.917,-0.1155 -1.3645,0 -0.5358,0.1386 -0.9099,0.6211 -0.9097,1.1744l0 1.5715c0.0002,0.5533 0.3738,1.0362 0.9096,1.1744 0.4476,0.1155 0.917,0.1156 1.3645,0 0.5358,-0.1385 0.9099,-0.621 0.9098,-1.1744z"/>
   <path id="_142548960" class="fil0 str1" d="M15.3002 17.4094c0.4828,-0.0003 0.9458,-0.1924 1.287,-0.534 0.3412,-0.3416 0.5327,-0.8025 0.5324,-1.2853l0.0001 -6.1252c-0.0003,-0.4828 -0.1924,-0.9458 -0.534,-1.287 -0.3416,-0.3412 -0.8025,-0.5327 -1.2853,-0.5324l-2.911 0c-0.4828,0.0003 -0.9458,0.1923 -1.287,0.534 -0.3412,0.3416 -0.5327,0.8025 -0.5324,1.2853l-0.0001 6.1252c0.0003,0.4828 0.1924,0.9457 0.534,1.2869 0.3416,0.3412 0.8025,0.5328 1.2853,0.5325l2.911 0z"/>
  </g>
 </g>
</svg>
