<?xml version="1.0" encoding="UTF-8"?>
<!DOCTYPE svg PUBLIC "-//W3C//DTD SVG 1.1//EN" "http://www.w3.org/Graphics/SVG/1.1/DTD/svg11.dtd">
<!-- Creator: CorelDRAW X8 -->
<svg xmlns="http://www.w3.org/2000/svg" xml:space="preserve" width="40mm" height="60mm" version="1.1" style="shape-rendering:geometricPrecision; text-rendering:geometricPrecision; image-rendering:optimizeQuality; fill-rule:evenodd; clip-rule:evenodd"
viewBox="0 0 4000 6000"
 xmlns:xlink="http://www.w3.org/1999/xlink">
 <defs>
  <style type="text/css">
   <![CDATA[
    .str0 {stroke:black;stroke-width:20}
    .fil0 {fill:none}
   ]]>
  </style>
 </defs>
 <g id="图层_x0020_1">
  <metadata id="CorelCorpID_0Corel-Layer"/>
  <path class="fil0 str0" d="M2375 786c0,-5 -4,-9 -13,-10 -30,0 -55,25 -55,56 0,30 25,55 55,55 31,0 56,-25 56,-55 0,-31 -25,-56 -56,-56m-444 52c-5,-20 -15,-35 -62,-35l-41 0c-21,0 -38,17 -38,39l0 0c0,21 17,38 38,38l373 0c21,0 38,-17 38,-38l0 0c0,-22 -17,-39 -38,-39l-332 0m743 0c-1,-5 -5,-9 -13,-10 -31,0 -56,25 -56,55 0,31 25,56 56,56 30,0 55,-25 55,-56 0,-30 -25,-55 -55,-55m-1657 4567l2063 0c73,0 133,-60 133,-132l0 -4436c0,-72 -60,-132 -133,-132l-1984 0c-73,0 -133,60 -133,132l0 4436c0,72 60,132 133,132l40 0"/>
 </g>
</svg>
