<?xml version="1.0" encoding="UTF-8"?>
<!DOCTYPE svg PUBLIC "-//W3C//DTD SVG 1.1//EN" "http://www.w3.org/Graphics/SVG/1.1/DTD/svg11.dtd">
<!-- Creator: CorelDRAW 2020 (64-Bit) -->
<svg xmlns="http://www.w3.org/2000/svg" xml:space="preserve" width="40mm" height="60mm" version="1.1" style="shape-rendering:geometricPrecision; text-rendering:geometricPrecision; image-rendering:optimizeQuality; fill-rule:evenodd; clip-rule:evenodd"
viewBox="0 0 4000 6000"
 xmlns:xlink="http://www.w3.org/1999/xlink"
 xmlns:xodm="http://www.corel.com/coreldraw/odm/2003">
 <defs>
  <style type="text/css">
   <![CDATA[
    .str0 {stroke:#332C2B;stroke-width:7.62;stroke-miterlimit:22.9256}
    .fil0 {fill:none}
   ]]>
  </style>
 </defs>
 <g id="图层_x0020_1">
  <metadata id="CorelCorpID_0Corel-Layer"/>
  <path class="fil0 str0" d="M2021.28 805.28c3.59,-23.14 -15.86,-39.36 -25.51,-40.1 -34.34,0 -62.17,27.83 -62.17,62.17 0,34.33 27.83,62.17 62.17,62.17 34.33,0 62.17,-27.84 62.17,-62.17 0,-34.34 -27.84,-62.17 -62.17,-62.17m-1023.12 4523.12l1872.42 0c108,0 196.35,-88.36 196.35,-196.35l0 -4239.93c0,-107.98 -88.35,-196.35 -196.35,-196.35l-411.48 0c-1.63,0 -3.03,0.58 -4.18,1.74l-5.41 5.41c-1.16,1.15 -2.56,1.73 -4.19,1.73l-852.82 0c-1.63,0 -3.03,-0.58 -4.19,-1.73l-5.41 -5.41c-1.15,-1.16 -2.55,-1.74 -4.18,-1.74l-411.48 0c-108,0 -196.35,88.36 -196.35,196.35l0 4239.93c0,107.99 88.35,196.35 196.35,196.35l40.94 0c121.51,0 199.36,29.49 219.09,67.37"/>
 </g>
</svg>
