<?xml version="1.0" encoding="UTF-8"?>
<!DOCTYPE svg PUBLIC "-//W3C//DTD SVG 1.1//EN" "http://www.w3.org/Graphics/SVG/1.1/DTD/svg11.dtd">
<!-- Creator: CorelDRAW X8 -->
<svg xmlns="http://www.w3.org/2000/svg" xml:space="preserve" width="40mm" height="60mm" version="1.1" style="shape-rendering:geometricPrecision; text-rendering:geometricPrecision; image-rendering:optimizeQuality; fill-rule:evenodd; clip-rule:evenodd"
viewBox="0 0 4000 6000"
 xmlns:xlink="http://www.w3.org/1999/xlink">
 <defs>
  <style type="text/css">
   <![CDATA[
    .str0 {stroke:black;stroke-width:7.62}
    .fil0 {fill:none}
   ]]>
  </style>
 </defs>
 <g id="图层_x0020_1">
  <metadata id="CorelCorpID_0Corel-Layer"/>
  <path class="fil0 str0" d="M1429 944c-13,4 -23,9 -23,31l0 19c0,27 22,48 48,48l0 0c26,0 48,-21 48,-48l0 -87c0,-26 -22,-48 -48,-48l0 0c-26,0 -48,22 -48,48l0 68m-174 -94c0,-9 -8,-18 -25,-19 -60,0 -109,49 -109,109 0,60 49,108 109,108 60,0 109,-48 109,-108 0,-60 -49,-109 -109,-109m25 309c0,-9 -8,-18 -25,-19 -60,0 -109,48 -109,108 0,61 49,109 109,109 60,0 109,-48 109,-109 0,-60 -49,-108 -109,-108m19 339c-1,-7 -7,-13 -19,-14 -44,0 -80,36 -80,80 0,44 36,80 80,80 44,0 79,-36 79,-80 0,-44 -35,-80 -79,-80m-2 -635l0 0c67,0 123,55 123,123l0 620c0,67 -56,123 -123,123l0 0c-68,0 -123,-56 -123,-123l0 -620c0,-68 55,-123 123,-123zm-3 -40l0 0c88,0 160,72 160,160l0 626c0,88 -72,160 -160,160l0 0c-88,0 -160,-72 -160,-160l0 -626c0,-88 72,-160 160,-160zm1422 4080l132 0c8,0 15,6 15,14l0 219c0,8 -7,15 -15,15l-132 0c-8,0 -14,-7 -14,-15l0 -219c0,-8 6,-14 14,-14zm-1584 468l1790 0c135,0 246,-111 246,-247l0 -4206c0,-136 -111,-247 -246,-247l-1660 0c-135,0 -246,111 -246,247l0 4206c0,136 111,247 246,247l101 0"/>
 </g>
</svg>
