<?xml version="1.0" encoding="UTF-8"?>
<!DOCTYPE svg PUBLIC "-//W3C//DTD SVG 1.1//EN" "http://www.w3.org/Graphics/SVG/1.1/DTD/svg11.dtd">
<!-- Creator: CorelDRAW X8 -->
<svg xmlns="http://www.w3.org/2000/svg" xml:space="preserve" width="40mm" height="60mm" version="1.1" style="shape-rendering:geometricPrecision; text-rendering:geometricPrecision; image-rendering:optimizeQuality; fill-rule:evenodd; clip-rule:evenodd"
viewBox="0 0 4000 6000"
 xmlns:xlink="http://www.w3.org/1999/xlink">
 <defs>
  <style type="text/css">
   <![CDATA[
    .str0 {stroke:#332C2B;stroke-width:10}
    .fil0 {fill:none}
   ]]>
  </style>
 </defs>
 <g id="图层_x0020_1">
  <metadata id="CorelCorpID_0Corel-Layer"/>
  <path class="fil0 str0" d="M1364 873c2,-38 -43,-68 -59,-69 -58,0 -104,47 -104,104 0,58 46,105 104,105 58,0 105,-47 105,-105 0,-57 -47,-104 -105,-104m44 426c2,-28 -32,-51 -44,-51 -43,0 -78,35 -78,78 0,43 35,78 78,78 43,0 78,-35 78,-78 0,-43 -35,-78 -78,-78m-3 -419l0 0c76,0 138,63 138,139l0 348c0,76 -62,138 -138,138l0 0c-76,0 -138,-62 -138,-138l0 -348c0,-76 62,-139 138,-139zm0 -62l0 0c110,0 200,90 200,201l0 348c0,110 -90,200 -200,200l0 0c-110,0 -200,-90 -200,-200l0 -348c0,-111 90,-201 200,-201zm813 956c3,-76 -86,-135 -119,-138 -115,0 -209,94 -209,209 0,115 94,209 209,209 116,0 209,-94 209,-209 0,-115 -93,-209 -209,-209m77 3476c-1,-9 -5,-27 -25,-27l-243 0c-14,0 -22,2 -28,8l-38 38c-17,17 -21,26 -23,53l0 46c0,28 7,36 27,55l27 27c16,16 23,16 49,16 132,0 264,0 396,0 16,0 26,-2 39,-15l44 -44c8,-9 10,-13 10,-24l0 -74c0,-14 -3,-20 -13,-30l-41 -41c-14,-14 -20,-15 -38,-15l-168 0m-992 385l1811 0c117,0 212,-96 212,-212l0 -4276c0,-116 -95,-212 -212,-212l-1734 0c-117,0 -212,96 -212,212l0 4276c0,116 95,212 212,212l173 0"/>
 </g>
</svg>
