<?xml version="1.0" encoding="UTF-8"?>
<!DOCTYPE svg PUBLIC "-//W3C//DTD SVG 1.1//EN" "http://www.w3.org/Graphics/SVG/1.1/DTD/svg11.dtd">
<!-- Creator: CorelDRAW X8 -->
<svg xmlns="http://www.w3.org/2000/svg" xml:space="preserve" width="40mm" height="60mm" version="1.1" style="shape-rendering:geometricPrecision; text-rendering:geometricPrecision; image-rendering:optimizeQuality; fill-rule:evenodd; clip-rule:evenodd"
viewBox="0 0 4000 6000"
 xmlns:xlink="http://www.w3.org/1999/xlink">
 <defs>
  <style type="text/css">
   <![CDATA[
    .str0 {stroke:black;stroke-width:7.62}
    .fil0 {fill:none}
   ]]>
  </style>
 </defs>
 <g id="图层_x0020_1">
  <metadata id="CorelCorpID_0Corel-Layer"/>
  <path class="fil0 str0" d="M1566 908c-2,-22 -21,-43 -62,-46 -144,0 -261,117 -261,261 0,144 117,261 261,261 144,0 261,-117 261,-261 0,-144 -117,-261 -261,-261m-36 590c-4,-16 -10,-28 -38,-28l-23 0c-31,0 -58,26 -58,58l0 0c0,32 27,58 58,58l198 0c32,0 58,-26 58,-58l0 0c0,-32 -26,-58 -58,-58l-175 0m-80 198c-1,-11 -11,-22 -32,-24 -74,0 -133,60 -133,134 0,73 59,133 133,133 74,0 133,-60 133,-133 0,-74 -59,-134 -133,-134m406 24c-1,-11 -11,-22 -32,-24 -74,0 -133,60 -133,134 0,73 59,133 133,133 74,0 133,-60 133,-133 0,-74 -59,-134 -133,-134m-461 -755l552 0c41,0 74,33 74,74l0 1004c0,41 -33,75 -74,75l-552 0c-41,0 -74,-34 -74,-75l0 -1004c0,-41 33,-74 74,-74zm-38 -43l625 0c51,0 92,42 92,93l0 1066c0,51 -41,92 -92,92l-625 0c-51,0 -93,-41 -93,-92l0 -1066c0,-51 42,-93 93,-93zm-154 4519l1760 0c179,0 325,-146 325,-324l0 -4021c0,-178 -146,-324 -325,-324l-1598 0c-179,0 -325,146 -325,324l0 4021c0,178 146,324 325,324l56 0c25,0 56,8 69,31"/>
 </g>
</svg>
