<?xml version="1.0" encoding="UTF-8"?>
<!DOCTYPE svg PUBLIC "-//W3C//DTD SVG 1.1//EN" "http://www.w3.org/Graphics/SVG/1.1/DTD/svg11.dtd">
<!-- Creator: CorelDRAW X8 -->
<svg xmlns="http://www.w3.org/2000/svg" xml:space="preserve" width="40mm" height="60mm" version="1.1" style="shape-rendering:geometricPrecision; text-rendering:geometricPrecision; image-rendering:optimizeQuality; fill-rule:evenodd; clip-rule:evenodd"
viewBox="0 0 4000 6000"
 xmlns:xlink="http://www.w3.org/1999/xlink">
 <defs>
  <style type="text/css">
   <![CDATA[
    .str0 {stroke:black;stroke-width:20}
    .fil0 {fill:none}
   ]]>
  </style>
 </defs>
 <g id="图层_x0020_1">
  <metadata id="CorelCorpID_0Corel-Layer"/>
  <path class="fil0 str0" d="M949 5350l1964 0c86,0 157,-70 157,-156l0 -4388c0,-86 -71,-156 -157,-156l-584 0c-9,0 -18,6 -18,18 0,15 0,30 0,44 0,26 -21,47 -47,47l-843 0c-26,0 -47,-21 -47,-47l0 -41c0,-9 -10,-21 -24,-21l-263 0c-86,0 -157,70 -157,156l0 4388c0,86 71,156 157,156l40 0"/>
 </g>
</svg>
