<?xml version="1.0" encoding="UTF-8"?>
<!DOCTYPE svg PUBLIC "-//W3C//DTD SVG 1.1//EN" "http://www.w3.org/Graphics/SVG/1.1/DTD/svg11.dtd">
<!-- Creator: CorelDRAW X8 -->
<svg xmlns="http://www.w3.org/2000/svg" xml:space="preserve" width="40mm" height="60mm" version="1.1" style="shape-rendering:geometricPrecision; text-rendering:geometricPrecision; image-rendering:optimizeQuality; fill-rule:evenodd; clip-rule:evenodd"
viewBox="0 0 4000 6000"
 xmlns:xlink="http://www.w3.org/1999/xlink">
 <defs>
  <style type="text/css">
   <![CDATA[
    .str0 {stroke:#332C2B;stroke-width:19.4}
    .fil0 {fill:none;fill-rule:nonzero}
   ]]>
  </style>
 </defs>
 <g id="图层_x0020_1">
  <metadata id="CorelCorpID_0Corel-Layer"/>
  <g id="_3106624475776">
   <g>
    <line class="fil0 str0" x1="3094" y1="650" x2="3094" y2= "683" />
    <line class="fil0 str0" x1="937" y1="5307" x2="937" y2= "5317" />
    <path class="fil0 str0" d="M937 5317c6,-2 9,-4 11,-10"/>
    <line class="fil0 str0" x1="948" y1="5307" x2="1497" y2= "5308" />
    <path class="fil0 str0" d="M1497 5308c169,1 175,0 199,-18 40,-30 42,-37 44,-165"/>
    <line class="fil0 str0" x1="1740" y1="5125" x2="1741" y2= "5104" />
    <path class="fil0 str0" d="M1741 5104c8,-51 52,-96 98,-100 16,-2 78,-3 153,-3 200,0 206,1 239,36 25,27 33,49 38,103"/>
    <polyline class="fil0 str0" points="2269,5140 2264,5140 2265,5140 2264,5143 2263,5143 2266,5143 2267,5144 2267,5146 2267,5146 2266,5146 "/>
    <path class="fil0 str0" d="M2266 5146c0,12 0,22 0,30 0,69 11,96 49,119 11,7 24,11 38,12 34,3 225,6 387,6 196,0 216,-3 267,-40 41,-29 74,-79 84,-125"/>
    <line class="fil0 str0" x1="3091" y1="5148" x2="3092" y2= "5145" />
    <path class="fil0 str0" d="M3092 5145c2,-5 2,-5 2,-229"/>
    <line class="fil0 str0" x1="3094" y1="4916" x2="3094" y2= "844" />
    <path class="fil0 str0" d="M3094 844c-2,-88 -72,-173 -157,-191 -9,-1 -21,-2 -53,-2"/>
    <polyline class="fil0 str0" points="2884,651 1096,656 1068,655 "/>
    <path class="fil0 str0" d="M1068 655c-60,0 -134,71 -158,152 -3,9 -3,18 -3,61"/>
    <line class="fil0 str0" x1="907" y1="868" x2="906" y2= "5101" />
    <path class="fil0 str0" d="M906 5101c1,72 25,122 76,163 36,30 54,36 130,45 4,0 7,1 9,2 19,4 22,6 60,39"/>
    <polyline class="fil0 str0" points="1274,725 1282,731 1283,730 1283,729 "/>
    <path class="fil0 str0" d="M1283 729c0,-1 0,-1 1,-3"/>
    <line class="fil0 str0" x1="1284" y1="726" x2="1284" y2= "725" />
    <path class="fil0 str0" d="M1284 725c40,9 60,32 60,71 0,40 -31,72 -72,72 -40,0 -71,-31 -71,-72 0,-40 31,-71 71,-71 5,0 11,0 26,2"/>
    <polyline class="fil0 str0" points="1550,721 1560,722 1561,721 1560,721 "/>
    <path class="fil0 str0" d="M1560 721c35,8 58,35 58,68 0,39 -31,70 -70,70 -46,0 -69,-23 -69,-69 0,-40 30,-69 70,-69 5,0 17,0 25,1"/>
    <polyline class="fil0 str0" points="1996,747 2006,747 2006,746 "/>
    <path class="fil0 str0" d="M2006 746c0,0 0,0 0,0 67,0 99,1 120,5 20,4 30,10 35,24 3,5 4,11 4,18 0,15 -7,29 -19,36 -17,9 -79,12 -279,12 -54,0 -83,0 -83,-2 0,0 0,0 0,0 0,0 0,0 15,-3"/>
    <line class="fil0 str0" x1="1799" y1="836" x2="1799" y2= "836" />
    <path class="fil0 str0" d="M1799 836c10,-1 14,-3 14,-4 0,-1 -2,-2 -7,-5 -13,-6 -20,-17 -20,-36 0,-30 23,-44 72,-44 42,0 32,0 73,1"/>
    <polyline class="fil0 str0" points="1931,748 1953,748 2027,747 "/>
   </g>
  </g>
 </g>
</svg>
