<?xml version="1.0" encoding="UTF-8"?>
<!DOCTYPE svg PUBLIC "-//W3C//DTD SVG 1.1//EN" "http://www.w3.org/Graphics/SVG/1.1/DTD/svg11.dtd">
<!-- Creator: CorelDRAW X8 -->
<svg xmlns="http://www.w3.org/2000/svg" xml:space="preserve" width="40mm" height="60mm" version="1.1" style="shape-rendering:geometricPrecision; text-rendering:geometricPrecision; image-rendering:optimizeQuality; fill-rule:evenodd; clip-rule:evenodd"
viewBox="0 0 4000 6000"
 xmlns:xlink="http://www.w3.org/1999/xlink">
 <defs>
  <style type="text/css">
   <![CDATA[
    .str0 {stroke:black;stroke-width:7.62}
    .fil0 {fill:none}
   ]]>
  </style>
 </defs>
 <g id="图层_x0020_1">
  <metadata id="CorelCorpID_0Corel-Layer"/>
  <g id="_1838814383264">
   <g>
    <path class="fil0 str0" d="M1228 650l0 0c332,0 603,271 603,603l0 1063c0,332 -271,603 -603,603l0 0c-331,0 -603,-271 -603,-603l0 -1063c0,-332 272,-603 603,-603z"/>
    <path class="fil0 str0" d="M1228 686l0 0c312,0 567,255 567,567l0 1063c0,312 -255,567 -567,567l0 0c-311,0 -566,-255 -566,-567l0 -1063c0,-312 255,-567 566,-567z"/>
    <path class="fil0 str0" d="M1233 1837c269,0 488,219 488,488 0,270 -219,488 -488,488 -270,0 -488,-218 -488,-488 0,-269 218,-488 488,-488z"/>
    <path class="fil0 str0" d="M902 2183l62 0c58,0 106,48 106,106l0 115c0,59 -48,106 -106,106l-62 0c-58,0 -106,-47 -106,-106l0 -115c0,-58 48,-106 106,-106z"/>
    <path class="fil0 str0" d="M1520 2219c-1,-9 -9,-17 -26,-18 -58,0 -106,47 -106,106 0,58 48,106 106,106 59,0 107,-48 107,-106 0,-59 -48,-106 -107,-106"/>
    <path class="fil0 str0" d="M1199 1931c-1,-4 -4,-7 -10,-7 -21,0 -38,17 -38,38 0,22 17,39 38,39 22,0 39,-17 39,-39 0,-21 -17,-38 -39,-38"/>
    <path class="fil0 str0" d="M1739 1360l4 828c-65,-220 -268,-381 -509,-381 -257,0 -471,182 -520,424l0 -835c75,206 259,357 504,357 245,0 513,-202 521,-393z"/>
    <path class="fil0 str0" d="M1655 1720c-1,-5 -6,-11 -16,-12 -38,0 -68,31 -68,68 0,37 30,68 68,68 37,0 67,-31 67,-68 0,-37 -30,-68 -67,-68"/>
    <path class="fil0 str0" d="M1222 752c272,0 492,220 492,492 0,85 -22,165 -60,235 3,-11 4,-22 4,-34 0,-85 -68,-153 -153,-153 -85,0 -153,68 -153,153 0,84 68,153 153,153 30,0 58,-9 81,-23 -90,99 -219,161 -364,161 -144,0 -273,-62 -363,-160l7 -3c25,16 54,26 86,26 85,0 154,-70 154,-155 0,-85 -69,-154 -154,-154 -85,0 -154,69 -154,154 0,17 2,34 8,50l-6 3c-44,-74 -70,-160 -70,-253 0,-272 220,-492 492,-492z"/>
    <path class="fil0 str0" d="M1259 813c-1,-13 -12,-25 -36,-27 -86,0 -155,69 -155,154 0,86 69,155 155,155 85,0 154,-69 154,-155 0,-85 -69,-154 -154,-154"/>
   </g>
   <g>
    <path class="fil0 str0" d="M1228 3081l0 0c332,0 603,271 603,603l0 1063c0,332 -271,603 -603,603l0 0c-331,0 -603,-271 -603,-603l0 -1063c0,-332 272,-603 603,-603z"/>
    <path class="fil0 str0" d="M1228 3117l0 0c312,0 567,255 567,567l0 1063c0,312 -255,567 -567,567l0 0c-311,0 -566,-255 -566,-567l0 -1063c0,-312 255,-567 566,-567z"/>
    <path class="fil0 str0" d="M1233 4268c269,0 488,218 488,488 0,270 -219,488 -488,488 -270,0 -488,-218 -488,-488 0,-270 218,-488 488,-488z"/>
    <path class="fil0 str0" d="M902 4614l62 0c58,0 106,48 106,106l0 115c0,58 -48,106 -106,106l-62 0c-58,0 -106,-48 -106,-106l0 -115c0,-58 48,-106 106,-106z"/>
    <path class="fil0 str0" d="M1520 4650c-1,-9 -9,-17 -26,-19 -58,0 -106,48 -106,106 0,59 48,106 106,106 59,0 107,-47 107,-106 0,-58 -48,-106 -107,-106"/>
    <path class="fil0 str0" d="M1199 4361c-1,-3 -4,-6 -10,-7 -21,0 -38,18 -38,39 0,21 17,39 38,39 22,0 39,-18 39,-39 0,-21 -17,-39 -39,-39"/>
    <path class="fil0 str0" d="M1739 3790l4 829c-65,-220 -268,-381 -509,-381 -257,0 -471,182 -520,424l0 -836c75,207 259,358 504,358 245,0 513,-202 521,-394z"/>
    <path class="fil0 str0" d="M1655 4151c-1,-6 -6,-11 -16,-12 -38,0 -68,30 -68,68 0,37 30,67 68,67 37,0 67,-30 67,-67 0,-38 -30,-68 -67,-68"/>
    <path class="fil0 str0" d="M1222 3183c272,0 492,220 492,492 0,85 -22,165 -60,235 3,-11 4,-23 4,-35 0,-84 -68,-153 -153,-153 -85,0 -153,69 -153,153 0,85 68,154 153,154 30,0 58,-9 81,-24 -90,99 -219,161 -364,161 -144,0 -273,-61 -363,-160l7 -3c25,17 54,26 86,26 85,0 154,-69 154,-154 0,-85 -69,-154 -154,-154 -85,0 -154,69 -154,154 0,17 2,34 8,49l-6 4c-44,-74 -70,-161 -70,-253 0,-272 220,-492 492,-492z"/>
    <path class="fil0 str0" d="M1259 3244c-1,-13 -12,-25 -36,-27 -86,0 -155,69 -155,154 0,85 69,154 155,154 85,0 154,-69 154,-154 0,-85 -69,-154 -154,-154"/>
   </g>
   <g>
    <path class="fil0 str0" d="M2772 650l0 0c331,0 603,271 603,603l0 1063c0,332 -272,603 -603,603l0 0c-332,0 -603,-271 -603,-603l0 -1063c0,-332 271,-603 603,-603z"/>
    <path class="fil0 str0" d="M2772 686l0 0c311,0 566,255 566,567l0 1063c0,312 -255,567 -566,567l0 0c-312,0 -567,-255 -567,-567l0 -1063c0,-312 255,-567 567,-567z"/>
    <path class="fil0 str0" d="M2776 1837c270,0 488,219 488,488 0,270 -218,488 -488,488 -270,0 -488,-218 -488,-488 0,-269 218,-488 488,-488z"/>
    <path class="fil0 str0" d="M2446 2183l61 0c58,0 106,48 106,106l0 115c0,59 -48,106 -106,106l-61 0c-59,0 -106,-47 -106,-106l0 -115c0,-58 47,-106 106,-106z"/>
    <path class="fil0 str0" d="M3063 2219c-1,-9 -9,-17 -25,-18 -59,0 -106,47 -106,106 0,58 47,106 106,106 58,0 106,-48 106,-106 0,-59 -48,-106 -106,-106"/>
    <path class="fil0 str0" d="M2742 1931c0,-4 -3,-7 -9,-7 -22,0 -39,17 -39,38 0,22 17,39 39,39 21,0 38,-17 38,-39 0,-21 -17,-38 -38,-38"/>
    <path class="fil0 str0" d="M3282 1360l4 828c-64,-220 -268,-381 -509,-381 -257,0 -471,182 -520,424l0 -835c75,206 260,357 505,357 244,0 513,-202 520,-393z"/>
    <path class="fil0 str0" d="M3198 1720c-1,-5 -6,-11 -16,-12 -37,0 -68,31 -68,68 0,37 31,68 68,68 37,0 67,-31 67,-68 0,-37 -30,-68 -67,-68"/>
    <path class="fil0 str0" d="M2765 752c272,0 492,220 492,492 0,85 -21,165 -59,235 2,-11 3,-22 3,-34 0,-85 -68,-153 -153,-153 -84,0 -153,68 -153,153 0,84 69,153 153,153 30,0 58,-9 82,-23 -90,99 -220,161 -365,161 -143,0 -273,-62 -363,-160l7 -3c25,16 54,26 86,26 85,0 154,-70 154,-155 0,-85 -69,-154 -154,-154 -85,0 -154,69 -154,154 0,17 3,34 8,50l-5 3c-45,-74 -71,-160 -71,-253 0,-272 221,-492 492,-492z"/>
    <path class="fil0 str0" d="M2802 813c-1,-13 -12,-25 -36,-27 -85,0 -154,69 -154,154 0,86 69,155 154,155 85,0 154,-69 154,-155 0,-85 -69,-154 -154,-154"/>
   </g>
   <g>
    <path class="fil0 str0" d="M2772 3081l0 0c331,0 603,271 603,603l0 1063c0,332 -272,603 -603,603l0 0c-332,0 -603,-271 -603,-603l0 -1063c0,-332 271,-603 603,-603z"/>
    <path class="fil0 str0" d="M2772 3117l0 0c311,0 566,255 566,567l0 1063c0,312 -255,567 -566,567l0 0c-312,0 -567,-255 -567,-567l0 -1063c0,-312 255,-567 567,-567z"/>
    <path class="fil0 str0" d="M2776 4268c270,0 488,218 488,488 0,270 -218,488 -488,488 -270,0 -488,-218 -488,-488 0,-270 218,-488 488,-488z"/>
    <path class="fil0 str0" d="M2446 4614l61 0c58,0 106,48 106,106l0 115c0,58 -48,106 -106,106l-61 0c-59,0 -106,-48 -106,-106l0 -115c0,-58 47,-106 106,-106z"/>
    <path class="fil0 str0" d="M3063 4650c-1,-9 -9,-17 -25,-19 -59,0 -106,48 -106,106 0,59 47,106 106,106 58,0 106,-47 106,-106 0,-58 -48,-106 -106,-106"/>
    <path class="fil0 str0" d="M2742 4361c0,-3 -3,-6 -9,-7 -22,0 -39,18 -39,39 0,21 17,39 39,39 21,0 38,-18 38,-39 0,-21 -17,-39 -38,-39"/>
    <path class="fil0 str0" d="M3282 3790l4 829c-64,-220 -268,-381 -509,-381 -257,0 -471,182 -520,424l0 -836c75,207 260,358 505,358 244,0 513,-202 520,-394z"/>
    <path class="fil0 str0" d="M3198 4151c-1,-6 -6,-11 -16,-12 -37,0 -68,30 -68,68 0,37 31,67 68,67 37,0 67,-30 67,-67 0,-38 -30,-68 -67,-68"/>
    <path class="fil0 str0" d="M2765 3183c272,0 492,220 492,492 0,85 -21,165 -59,235 2,-11 3,-23 3,-35 0,-84 -68,-153 -153,-153 -84,0 -153,69 -153,153 0,85 69,154 153,154 30,0 58,-9 82,-24 -90,99 -220,161 -365,161 -143,0 -273,-61 -363,-160l7 -3c25,17 54,26 86,26 85,0 154,-69 154,-154 0,-85 -69,-154 -154,-154 -85,0 -154,69 -154,154 0,17 3,34 8,49l-5 4c-45,-74 -71,-161 -71,-253 0,-272 221,-492 492,-492z"/>
    <path class="fil0 str0" d="M2802 3244c-1,-13 -12,-25 -36,-27 -85,0 -154,69 -154,154 0,85 69,154 154,154 85,0 154,-69 154,-154 0,-85 -69,-154 -154,-154"/>
   </g>
  </g>
  <g id="_1839344478784">
   <g>
    <path class="fil0 str0" d="M-14251 5000l0 0c0,-859 703,-1563 1563,-1563l2756 0c860,0 1563,704 1563,1563l0 0c0,859 -703,1563 -1563,1563l-2756 0c-860,0 -1563,-704 -1563,-1563z"/>
    <path class="fil0 str0" d="M-14157 5000l0 0c0,-808 661,-1468 1469,-1468l2756 0c808,0 1469,660 1469,1468l0 0c0,808 -661,1468 -1469,1468l-2756 0c-808,0 -1469,-660 -1469,-1468z"/>
    <path class="fil0 str0" d="M-11174 4989c0,-699 567,-1265 1265,-1265 699,0 1265,566 1265,1265 0,698 -566,1265 -1265,1265 -698,0 -1265,-567 -1265,-1265z"/>
    <path class="fil0 str0" d="M-10276 5845l0 -159c0,-151 123,-274 274,-274l298 0c151,0 275,123 275,274l0 159c0,151 -124,274 -275,274l-298 0c-151,0 -274,-123 -274,-274z"/>
    <path class="fil0 str0" d="M-10183 4245c-24,2 -46,23 -49,65 0,152 123,275 275,275 152,0 275,-123 275,-275 0,-152 -123,-275 -275,-275 -152,0 -275,123 -275,275"/>
    <path class="fil0 str0" d="M-10932 5077c-8,1 -16,8 -17,24 0,55 44,100 100,100 55,0 100,-45 100,-100 0,-55 -45,-100 -100,-100 -56,0 -100,45 -100,100"/>
    <path class="fil0 str0" d="M-12412 3677l2149 -10c-571,167 -988,694 -988,1319 0,665 472,1220 1099,1347l-2166 0c535,-193 927,-672 927,-1307 0,-635 -524,-1330 -1021,-1349z"/>
    <path class="fil0 str0" d="M-11477 3895c-14,2 -28,15 -30,42 0,96 78,175 175,175 96,0 175,-79 175,-175 0,-97 -79,-175 -175,-175 -97,0 -175,78 -175,175"/>
    <path class="fil0 str0" d="M-13987 5016c0,-704 571,-1275 1275,-1275 221,0 429,56 610,155 -28,-6 -58,-10 -89,-10 -219,0 -397,178 -397,397 0,219 178,397 397,397 219,0 397,-178 397,-397 0,-78 -22,-150 -61,-211 257,233 418,570 418,944 0,373 -160,708 -415,942l-8 -19c43,-64 67,-140 67,-222 0,-221 -179,-400 -400,-400 -220,0 -400,179 -400,400 0,221 180,400 400,400 45,0 88,-8 129,-21l9 13c-192,116 -417,182 -657,182 -704,0 -1275,-571 -1275,-1275z"/>
    <path class="fil0 str0" d="M-13828 4920c-34,3 -66,33 -70,95 0,221 179,400 400,400 220,0 400,-179 400,-400 0,-221 -180,-400 -400,-400 -221,0 -400,179 -400,400"/>
   </g>
   <g>
    <path class="fil0 str0" d="M-7951 5000l0 0c0,-859 703,-1563 1563,-1563l2756 0c860,0 1563,704 1563,1563l0 0c0,859 -703,1563 -1563,1563l-2756 0c-860,0 -1563,-704 -1563,-1563z"/>
    <path class="fil0 str0" d="M-7857 5000l0 0c0,-808 661,-1468 1469,-1468l2756 0c808,0 1469,660 1469,1468l0 0c0,808 -661,1468 -1469,1468l-2756 0c-808,0 -1469,-660 -1469,-1468z"/>
    <path class="fil0 str0" d="M-4874 4989c0,-699 567,-1265 1265,-1265 699,0 1265,566 1265,1265 0,698 -566,1265 -1265,1265 -698,0 -1265,-567 -1265,-1265z"/>
    <path class="fil0 str0" d="M-3976 5845l0 -159c0,-151 123,-274 274,-274l298 0c151,0 275,123 275,274l0 159c0,151 -124,274 -275,274l-298 0c-151,0 -274,-123 -274,-274z"/>
    <path class="fil0 str0" d="M-3883 4245c-24,2 -46,23 -49,65 0,152 123,275 275,275 152,0 275,-123 275,-275 0,-152 -123,-275 -275,-275 -152,0 -275,123 -275,275"/>
    <path class="fil0 str0" d="M-4632 5077c-8,1 -16,8 -17,24 0,55 44,100 100,100 55,0 100,-45 100,-100 0,-55 -45,-100 -100,-100 -56,0 -100,45 -100,100"/>
    <path class="fil0 str0" d="M-6112 3677l2149 -10c-571,167 -988,694 -988,1319 0,665 472,1220 1099,1347l-2166 0c535,-193 927,-672 927,-1307 0,-635 -524,-1330 -1021,-1349z"/>
    <path class="fil0 str0" d="M-5177 3895c-14,2 -28,15 -30,42 0,96 78,175 175,175 96,0 175,-79 175,-175 0,-97 -79,-175 -175,-175 -97,0 -175,78 -175,175"/>
    <path class="fil0 str0" d="M-7687 5016c0,-704 571,-1275 1275,-1275 221,0 429,56 610,155 -28,-6 -58,-10 -89,-10 -219,0 -397,178 -397,397 0,219 178,397 397,397 219,0 397,-178 397,-397 0,-78 -22,-150 -61,-211 257,233 418,570 418,944 0,373 -160,708 -415,942l-8 -19c43,-64 67,-140 67,-222 0,-221 -179,-400 -400,-400 -220,0 -400,179 -400,400 0,221 180,400 400,400 45,0 88,-8 129,-21l9 13c-192,116 -417,182 -657,182 -704,0 -1275,-571 -1275,-1275z"/>
    <path class="fil0 str0" d="M-7528 4920c-34,3 -66,33 -70,95 0,221 179,400 400,400 220,0 400,-179 400,-400 0,-221 -180,-400 -400,-400 -221,0 -400,179 -400,400"/>
   </g>
   <g>
    <path class="fil0 str0" d="M-14251 1000l0 0c0,-859 703,-1563 1563,-1563l2756 0c860,0 1563,704 1563,1563l0 0c0,859 -703,1563 -1563,1563l-2756 0c-860,0 -1563,-704 -1563,-1563z"/>
    <path class="fil0 str0" d="M-14157 1000l0 0c0,-808 661,-1468 1469,-1468l2756 0c808,0 1469,660 1469,1468l0 0c0,808 -661,1468 -1469,1468l-2756 0c-808,0 -1469,-660 -1469,-1468z"/>
    <path class="fil0 str0" d="M-11174 989c0,-699 567,-1265 1265,-1265 699,0 1265,566 1265,1265 0,698 -566,1265 -1265,1265 -698,0 -1265,-567 -1265,-1265z"/>
    <path class="fil0 str0" d="M-10276 1845l0 -159c0,-151 123,-274 274,-274l298 0c151,0 275,123 275,274l0 159c0,151 -124,274 -275,274l-298 0c-151,0 -274,-123 -274,-274z"/>
    <path class="fil0 str0" d="M-10183 245c-24,2 -46,23 -49,65 0,152 123,275 275,275 152,0 275,-123 275,-275 0,-152 -123,-275 -275,-275 -152,0 -275,123 -275,275"/>
    <path class="fil0 str0" d="M-10932 1077c-8,1 -16,8 -17,24 0,55 44,100 100,100 55,0 100,-45 100,-100 0,-55 -45,-100 -100,-100 -56,0 -100,45 -100,100"/>
    <path class="fil0 str0" d="M-12412 -323l2149 -10c-571,167 -988,694 -988,1319 0,665 472,1220 1099,1347l-2166 0c535,-193 927,-672 927,-1307 0,-635 -524,-1330 -1021,-1349z"/>
    <path class="fil0 str0" d="M-11477 -105c-14,2 -28,15 -30,42 0,96 78,175 175,175 96,0 175,-79 175,-175 0,-97 -79,-175 -175,-175 -97,0 -175,78 -175,175"/>
    <path class="fil0 str0" d="M-13987 1016c0,-704 571,-1275 1275,-1275 221,0 429,56 610,155 -28,-6 -58,-10 -89,-10 -219,0 -397,178 -397,397 0,219 178,397 397,397 219,0 397,-178 397,-397 0,-78 -22,-150 -61,-211 257,233 418,570 418,944 0,373 -160,708 -415,942l-8 -19c43,-64 67,-140 67,-222 0,-221 -179,-400 -400,-400 -220,0 -400,179 -400,400 0,221 180,400 400,400 45,0 88,-8 129,-21l9 13c-192,116 -417,182 -657,182 -704,0 -1275,-571 -1275,-1275z"/>
    <path class="fil0 str0" d="M-13828 920c-34,3 -66,33 -70,95 0,221 179,400 400,400 220,0 400,-179 400,-400 0,-221 -180,-400 -400,-400 -221,0 -400,179 -400,400"/>
   </g>
   <g>
    <path class="fil0 str0" d="M-7951 1000l0 0c0,-859 703,-1563 1563,-1563l2756 0c860,0 1563,704 1563,1563l0 0c0,859 -703,1563 -1563,1563l-2756 0c-860,0 -1563,-704 -1563,-1563z"/>
    <path class="fil0 str0" d="M-7857 1000l0 0c0,-808 661,-1468 1469,-1468l2756 0c808,0 1469,660 1469,1468l0 0c0,808 -661,1468 -1469,1468l-2756 0c-808,0 -1469,-660 -1469,-1468z"/>
    <path class="fil0 str0" d="M-4874 989c0,-699 567,-1265 1265,-1265 699,0 1265,566 1265,1265 0,698 -566,1265 -1265,1265 -698,0 -1265,-567 -1265,-1265z"/>
    <path class="fil0 str0" d="M-3976 1845l0 -159c0,-151 123,-274 274,-274l298 0c151,0 275,123 275,274l0 159c0,151 -124,274 -275,274l-298 0c-151,0 -274,-123 -274,-274z"/>
    <path class="fil0 str0" d="M-3883 245c-24,2 -46,23 -49,65 0,152 123,275 275,275 152,0 275,-123 275,-275 0,-152 -123,-275 -275,-275 -152,0 -275,123 -275,275"/>
    <path class="fil0 str0" d="M-4632 1077c-8,1 -16,8 -17,24 0,55 44,100 100,100 55,0 100,-45 100,-100 0,-55 -45,-100 -100,-100 -56,0 -100,45 -100,100"/>
    <path class="fil0 str0" d="M-6112 -323l2149 -10c-571,167 -988,694 -988,1319 0,665 472,1220 1099,1347l-2166 0c535,-193 927,-672 927,-1307 0,-635 -524,-1330 -1021,-1349z"/>
    <path class="fil0 str0" d="M-5177 -105c-14,2 -28,15 -30,42 0,96 78,175 175,175 96,0 175,-79 175,-175 0,-97 -79,-175 -175,-175 -97,0 -175,78 -175,175"/>
    <path class="fil0 str0" d="M-7687 1016c0,-704 571,-1275 1275,-1275 221,0 429,56 610,155 -28,-6 -58,-10 -89,-10 -219,0 -397,178 -397,397 0,219 178,397 397,397 219,0 397,-178 397,-397 0,-78 -22,-150 -61,-211 257,233 418,570 418,944 0,373 -160,708 -415,942l-8 -19c43,-64 67,-140 67,-222 0,-221 -179,-400 -400,-400 -220,0 -400,179 -400,400 0,221 180,400 400,400 45,0 88,-8 129,-21l9 13c-192,116 -417,182 -657,182 -704,0 -1275,-571 -1275,-1275z"/>
    <path class="fil0 str0" d="M-7528 920c-34,3 -66,33 -70,95 0,221 179,400 400,400 220,0 400,-179 400,-400 0,-221 -180,-400 -400,-400 -221,0 -400,179 -400,400"/>
   </g>
  </g>
 </g>
</svg>
