<?xml version="1.0" encoding="UTF-8"?>
<!DOCTYPE svg PUBLIC "-//W3C//DTD SVG 1.1//EN" "http://www.w3.org/Graphics/SVG/1.1/DTD/svg11.dtd">
<!-- Creator: CorelDRAW 2020 (64-Bit) -->
<svg xmlns="http://www.w3.org/2000/svg" xml:space="preserve" width="40mm" height="60mm" version="1.1" style="shape-rendering:geometricPrecision; text-rendering:geometricPrecision; image-rendering:optimizeQuality; fill-rule:evenodd; clip-rule:evenodd"
viewBox="0 0 4000 6000"
 xmlns:xlink="http://www.w3.org/1999/xlink"
 xmlns:xodm="http://www.corel.com/coreldraw/odm/2003">
 <defs>
  <style type="text/css">
   <![CDATA[
    .fil0 {fill:#323031;fill-rule:nonzero}
   ]]>
  </style>
 </defs>
 <g id="图层_x0020_1">
  <metadata id="CorelCorpID_0Corel-Layer"/>
  <g>
   <path class="fil0" d="M2266.16 827.01l2.62 -6.38 -0.01 -0.01 0.48 0.19 0.47 0.19 0.45 0.16 0.48 0.17 0.48 0.17 0.47 0.16 0.49 0.16 0.46 0.14 0.46 0.14 0.48 0.13 0.48 0.13 0.49 0.12 0.49 0.12 0.46 0.11 0.48 0.1 0.5 0.1 0.45 0.09 0.5 0.09 0.49 0.08 0.5 0.08 0.49 0.07 0.47 0.06 0.47 0.05 0.5 0.05 0.5 0.05 0.51 0.04 0.51 0.03 0.46 0.03 0.51 0.02 0.51 0.02 0.48 0.01 0.51 0 0 6.9 -0.57 0 -0.62 -0.01 -0.57 -0.02 -0.57 -0.02 -0.6 -0.03 -0.57 -0.05 -0.57 -0.04 -0.56 -0.05 -0.56 -0.05 -0.61 -0.07 -0.59 -0.08 -0.57 -0.09 -0.56 -0.08 -0.55 -0.1 -0.56 -0.09 -0.59 -0.11 -0.56 -0.12 -0.56 -0.12 -0.58 -0.13 -0.55 -0.14 -0.55 -0.14 -0.56 -0.15 -0.54 -0.15 -0.58 -0.16 -0.56 -0.18 -0.55 -0.18 -0.55 -0.18 -0.54 -0.19 -0.54 -0.19 -0.57 -0.22 -0.53 -0.21 -0.54 -0.21 -0.01 -0.01zm0.01 0.01l-0.01 -0.01 2.77 1.13 -2.76 -1.12zm-25.79 -25.61l6.36 -2.68 0 0 0.41 0.94 0.43 0.93 0.44 0.89 0.46 0.88 0.5 0.9 0.5 0.86 0.52 0.83 0.56 0.85 0.56 0.82 0.57 0.79 0.61 0.78 0.62 0.78 0.64 0.75 0.66 0.75 0.65 0.7 0.71 0.71 0.71 0.69 0.71 0.66 0.76 0.66 0.75 0.63 0.78 0.61 0.78 0.6 0.8 0.57 0.83 0.56 0.83 0.55 0.85 0.51 0.86 0.5 0.88 0.48 0.91 0.46 0.9 0.44 0.91 0.42 0.94 0.4 -2.62 6.38 -1.08 -0.46 -1.09 -0.48 -1.06 -0.52 -1.03 -0.54 -1.04 -0.56 -1 -0.58 -1.01 -0.61 -0.97 -0.63 -0.95 -0.64 -0.96 -0.69 -0.92 -0.7 -0.9 -0.71 -0.89 -0.75 -0.86 -0.76 -0.87 -0.78 -0.81 -0.81 -0.81 -0.81 -0.81 -0.86 -0.76 -0.87 -0.74 -0.87 -0.72 -0.9 -0.71 -0.92 -0.69 -0.95 -0.66 -0.96 -0.62 -0.95 -0.64 -1.01 -0.58 -1.02 -0.56 -1 -0.56 -1.04 -0.52 -1.07 -0.49 -1.07 -0.47 -1.08 0 0zm-0.12 -36.36l6.38 2.64 0.01 -0.01 -0.37 0.94 -0.35 0.95 -0.33 0.96 -0.31 0.97 -0.27 0.95 -0.25 0.97 -0.23 0.98 -0.2 0.97 -0.19 0.97 -0.14 0.99 -0.14 0.98 -0.1 0.97 -0.09 1.01 -0.06 0.96 -0.03 0.97 -0.01 1.01 0.01 1 0.04 0.96 0.06 0.98 0.1 0.99 0.11 0.99 0.13 0.97 0.16 0.99 0.18 0.96 0.21 0.96 0.24 0.97 0.27 0.99 0.27 0.94 0.31 0.95 0.33 0.96 0.37 0.95 0.37 0.94 -6.36 2.68 -0.45 -1.1 -0.41 -1.11 -0.39 -1.1 -0.37 -1.13 -0.33 -1.14 -0.29 -1.11 -0.28 -1.13 -0.25 -1.14 -0.22 -1.16 -0.18 -1.13 -0.17 -1.15 -0.13 -1.15 -0.1 -1.15 -0.08 -1.16 -0.04 -1.16 -0.01 -1.16 0.01 -1.13 0.03 -1.17 0.08 -1.16 0.09 -1.13 0.12 -1.17 0.16 -1.14 0.18 -1.15 0.21 -1.15 0.24 -1.13 0.27 -1.14 0.29 -1.13 0.33 -1.13 0.35 -1.11 0.37 -1.12 0.41 -1.11 0.43 -1.1 0.01 -0.01zm-0.01 0.01l0.01 -0.01 -0.67 1.61 0.66 -1.6zm44 -29.45l0 6.9 0 0 -1.55 0.03 -1.53 0.08 -1.51 0.15 -1.52 0.19 -1.48 0.26 -1.48 0.31 -1.46 0.36 -1.43 0.4 -1.42 0.47 -1.41 0.51 -1.36 0.56 -1.35 0.62 -1.33 0.65 -1.29 0.71 -1.28 0.76 -1.23 0.79 -1.22 0.85 -1.18 0.88 -1.15 0.93 -1.11 0.98 -1.09 1.02 -1.05 1.05 -0.99 1.09 -0.97 1.13 -0.93 1.18 -0.89 1.21 -0.85 1.25 -0.8 1.28 -0.75 1.31 -0.71 1.36 -0.67 1.39 -0.62 1.42 -6.38 -2.64 0.72 -1.66 0.77 -1.61 0.83 -1.58 0.89 -1.55 0.94 -1.5 0.99 -1.45 1.03 -1.41 1.09 -1.38 1.13 -1.33 1.19 -1.29 1.23 -1.23 1.25 -1.18 1.31 -1.14 1.35 -1.09 1.38 -1.04 1.42 -0.99 1.45 -0.93 1.48 -0.88 1.53 -0.83 1.55 -0.77 1.57 -0.72 1.62 -0.66 1.63 -0.59 1.66 -0.55 1.69 -0.48 1.7 -0.42 1.72 -0.35 1.74 -0.3 1.76 -0.23 1.77 -0.17 1.81 -0.1 1.79 -0.03 0 0zm17.98 3.57l-2.62 6.38 -0.01 0 -0.47 -0.19 -0.45 -0.18 -0.45 -0.17 -0.48 -0.17 -0.46 -0.17 -0.44 -0.14 -0.48 -0.16 -0.48 -0.15 -0.48 -0.13 -0.49 -0.15 -0.45 -0.12 -0.48 -0.12 -0.49 -0.12 -0.46 -0.11 -0.48 -0.1 -0.5 -0.1 -0.45 -0.09 -0.5 -0.09 -0.49 -0.08 -0.46 -0.07 -0.5 -0.07 -0.53 -0.07 -0.47 -0.06 -0.46 -0.04 -0.5 -0.05 -0.51 -0.04 -0.5 -0.03 -0.46 -0.03 -0.51 -0.02 -0.5 -0.02 -0.47 -0.01 -0.5 0 0 -6.9 0.56 0 0.61 0.01 0.56 0.02 0.57 0.02 0.6 0.03 0.56 0.05 0.57 0.04 0.56 0.05 0.6 0.06 0.59 0.08 0.53 0.07 0.56 0.07 0.6 0.09 0.55 0.1 0.56 0.09 0.59 0.11 0.56 0.12 0.56 0.12 0.58 0.13 0.55 0.14 0.56 0.14 0.57 0.16 0.55 0.15 0.54 0.17 0.54 0.17 0.54 0.16 0.58 0.2 0.54 0.19 0.52 0.19 0.57 0.21 0.53 0.22 0.53 0.21 -0.01 0zm-2.62 6.38l-0.01 0 -0.92 -0.38 0.93 0.38zm28.41 19.22l-6.36 2.68 0 0 -0.41 -0.94 -0.43 -0.93 -0.44 -0.89 -0.46 -0.88 -0.5 -0.89 -0.51 -0.87 -0.52 -0.84 -0.54 -0.83 -0.58 -0.82 -0.58 -0.81 -0.59 -0.77 -0.63 -0.77 -0.64 -0.76 -0.66 -0.75 -0.66 -0.71 -0.69 -0.7 -0.71 -0.69 -0.73 -0.66 -0.74 -0.66 -0.75 -0.62 -0.79 -0.62 -0.78 -0.6 -0.8 -0.57 -0.83 -0.56 -0.83 -0.55 -0.85 -0.51 -0.86 -0.5 -0.88 -0.48 -0.91 -0.46 -0.9 -0.44 -0.91 -0.42 -0.94 -0.4 2.62 -6.38 1.08 0.46 1.09 0.48 1.06 0.52 1.03 0.54 1.04 0.56 1 0.58 1.01 0.61 0.97 0.63 0.95 0.64 0.96 0.69 0.92 0.7 0.89 0.7 0.91 0.76 0.86 0.76 0.85 0.78 0.83 0.81 0.81 0.82 0.8 0.85 0.76 0.87 0.74 0.86 0.73 0.91 0.71 0.93 0.68 0.93 0.66 0.96 0.64 0.97 0.62 1 0.59 1.01 0.56 1.01 0.56 1.04 0.52 1.07 0.49 1.07 0.47 1.08 0 0zm0.11 36.35l-6.38 -2.62 -0.01 0 0.37 -0.94 0.35 -0.95 0.33 -0.96 0.31 -0.97 0.27 -0.95 0.25 -0.97 0.23 -0.97 0.2 -0.98 0.19 -0.98 0.15 -0.97 0.13 -0.97 0.1 -0.98 0.09 -1.01 0.06 -0.97 0.03 -0.99 0.02 -0.99 -0.02 -0.97 -0.04 -0.99 -0.06 -0.98 -0.09 -0.99 -0.12 -0.99 -0.12 -0.98 -0.17 -0.96 -0.18 -0.98 -0.22 -0.97 -0.23 -0.97 -0.25 -0.96 -0.29 -0.96 -0.31 -0.97 -0.32 -0.94 -0.37 -0.95 -0.37 -0.94 6.36 -2.68 0.45 1.1 0.41 1.11 0.4 1.12 0.35 1.11 0.33 1.12 0.31 1.14 0.27 1.13 0.24 1.13 0.22 1.14 0.19 1.16 0.16 1.16 0.12 1.13 0.11 1.15 0.08 1.16 0.04 1.15 0.02 1.17 -0.02 1.15 -0.03 1.15 -0.08 1.17 -0.09 1.13 -0.12 1.14 -0.15 1.17 -0.19 1.15 -0.21 1.14 -0.24 1.14 -0.27 1.13 -0.29 1.13 -0.33 1.13 -0.35 1.11 -0.37 1.12 -0.41 1.11 -0.43 1.1 -0.01 0zm0.01 0l-0.01 0 1.53 -3.72 -1.52 3.72zm-43.89 29.45l0 -6.9 0 0 1.55 -0.03 1.52 -0.08 1.52 -0.15 1.5 -0.19 1.49 -0.26 1.48 -0.31 1.45 -0.36 1.43 -0.4 1.42 -0.47 1.39 -0.51 1.35 -0.56 1.36 -0.62 1.32 -0.65 1.29 -0.71 1.28 -0.76 1.22 -0.79 1.21 -0.84 1.18 -0.89 1.14 -0.93 1.11 -0.97 1.08 -1.02 1.04 -1.05 1 -1.1 0.97 -1.12 0.92 -1.18 0.89 -1.22 0.85 -1.25 0.79 -1.27 0.75 -1.31 0.71 -1.37 0.67 -1.39 0.62 -1.41 6.38 2.62 -0.72 1.67 -0.77 1.61 -0.83 1.57 -0.87 1.55 -0.95 1.51 -0.99 1.45 -1.03 1.4 -1.08 1.38 -1.13 1.34 -1.18 1.28 -1.22 1.23 -1.24 1.18 -1.31 1.15 -1.34 1.09 -1.38 1.03 -1.41 1 -1.46 0.93 -1.48 0.88 -1.51 0.83 -1.56 0.77 -1.56 0.72 -1.61 0.66 -1.63 0.59 -1.66 0.55 -1.67 0.48 -1.71 0.42 -1.72 0.35 -1.73 0.3 -1.76 0.23 -1.78 0.17 -1.8 0.1 -1.79 0.03 0 0zm0 -3.45l0 0 0 0 0 0 0 3.45 0 -3.45zm604.37 4498.77l-1897.96 0 0 -6.9 1897.96 0 0 0 0 6.9zm143.28 -150.17l6.9 0 0 0 -0.19 7.72 -0.58 7.64 -0.96 7.52 -1.32 7.39 -1.68 7.27 -2.02 7.14 -2.37 6.98 -2.69 6.82 -3.01 6.65 -3.32 6.48 -3.62 6.28 -3.9 6.09 -4.19 5.9 -4.46 5.67 -4.73 5.44 -4.97 5.22 -5.21 4.97 -5.45 4.71 -5.67 4.47 -5.9 4.18 -6.09 3.9 -6.28 3.61 -6.48 3.32 -6.66 3.01 -6.81 2.68 -6.99 2.37 -7.12 2.01 -7.27 1.68 -7.39 1.32 -7.51 0.96 -7.62 0.58 -7.72 0.19 0 -6.9 7.38 -0.19 7.26 -0.56 7.17 -0.9 7.05 -1.26 6.93 -1.6 6.8 -1.93 6.65 -2.25 6.51 -2.56 6.34 -2.87 6.18 -3.16 6 -3.45 5.81 -3.72 5.62 -4 5.41 -4.25 5.21 -4.51 4.97 -4.73 4.75 -4.98 4.51 -5.2 4.24 -5.41 4.01 -5.62 3.72 -5.81 3.46 -6 3.16 -6.18 2.87 -6.35 2.57 -6.5 2.25 -6.66 1.94 -6.8 1.6 -6.93 1.26 -7.05 0.9 -7.18 0.56 -7.28 0.19 -7.38 0 0zm6.9 -4373.23l0 4373.23 -6.9 0 0 -4373.23 0 0 6.9 0zm-150.17 -143.38l0 -6.9 0 0 7.71 0.19 7.63 0.58 7.51 0.96 7.39 1.32 7.27 1.68 7.13 2.02 6.97 2.37 6.82 2.69 6.65 3.01 6.48 3.32 6.28 3.62 6.1 3.91 5.89 4.19 5.67 4.46 5.45 4.73 5.21 4.97 4.98 5.22 4.72 5.45 4.46 5.67 4.19 5.9 3.9 6.1 3.62 6.29 3.32 6.48 3.01 6.65 2.69 6.83 2.37 6.98 2.02 7.14 1.68 7.27 1.32 7.4 0.96 7.52 0.58 7.64 0.19 7.72 -6.9 0 -0.19 -7.38 -0.56 -7.28 -0.9 -7.18 -1.26 -7.06 -1.6 -6.93 -1.94 -6.8 -2.25 -6.66 -2.57 -6.51 -2.87 -6.35 -3.16 -6.18 -3.46 -6.01 -3.72 -5.82 -4.01 -5.62 -4.24 -5.41 -4.52 -5.21 -4.74 -4.98 -4.97 -4.75 -5.21 -4.51 -5.41 -4.26 -5.61 -3.99 -5.82 -3.73 -6 -3.46 -6.18 -3.16 -6.35 -2.87 -6.5 -2.57 -6.65 -2.25 -6.79 -1.94 -6.93 -1.6 -7.05 -1.26 -7.17 -0.9 -7.27 -0.56 -7.37 -0.19 0 0zm-642.17 -6.9l642.17 0 0 6.9 -642.17 0 0 0 0 -6.9zm-85.56 63.3l-6.36 -2.68 0 -0.01 1.53 -3.42 1.64 -3.33 1.77 -3.26 1.87 -3.17 1.98 -3.09 2.08 -3 2.2 -2.91 2.27 -2.83 2.39 -2.74 2.48 -2.63 2.56 -2.55 2.66 -2.44 2.73 -2.34 2.82 -2.24 2.88 -2.14 2.97 -2.04 3.05 -1.91 3.1 -1.81 3.17 -1.71 3.24 -1.59 3.29 -1.47 3.35 -1.35 3.4 -1.24 3.45 -1.12 3.5 -0.98 3.54 -0.87 3.59 -0.74 3.62 -0.6 3.65 -0.47 3.68 -0.34 3.72 -0.21 3.74 -0.07 0 6.9 -3.48 0.07 -3.46 0.19 -3.44 0.32 -3.39 0.45 -3.38 0.56 -3.33 0.68 -3.3 0.81 -3.26 0.92 -3.21 1.04 -3.16 1.14 -3.13 1.27 -3.07 1.37 -3 1.47 -2.95 1.59 -2.9 1.69 -2.83 1.79 -2.75 1.88 -2.7 2 -2.62 2.08 -2.55 2.18 -2.46 2.28 -2.4 2.37 -2.3 2.45 -2.21 2.54 -2.13 2.63 -2.04 2.71 -1.94 2.8 -1.84 2.87 -1.75 2.95 -1.63 3.02 -1.52 3.11 -1.43 3.18 0 -0.01zm-6.36 -2.68l0 -0.01 0.42 -0.98 -0.42 0.99zm-21.6 76.05l-6.56 -2.18 0 0 0.82 -2.44 0.82 -2.43 0.83 -2.43 0.84 -2.43 0.85 -2.44 0.86 -2.41 0.86 -2.42 0.86 -2.42 0.88 -2.41 0.88 -2.41 0.88 -2.38 0.88 -2.39 0.9 -2.38 0.89 -2.36 0.9 -2.35 0.9 -2.35 0.9 -2.33 0.9 -2.32 0.91 -2.31 0.9 -2.29 0.91 -2.29 0.9 -2.25 0.9 -2.24 0.9 -2.24 0.9 -2.21 0.89 -2.2 0.9 -2.18 0.89 -2.15 0.88 -2.13 0.88 -2.12 0.88 -2.1 0.87 -2.06 6.36 2.68 -0.87 2.06 -0.86 2.08 -0.88 2.1 -0.88 2.13 -0.89 2.15 -0.88 2.16 -0.89 2.18 -0.9 2.19 -0.88 2.22 -0.9 2.24 -0.9 2.25 -0.91 2.27 -0.9 2.27 -0.89 2.29 -0.9 2.32 -0.9 2.31 -0.88 2.33 -0.9 2.35 -0.89 2.34 -0.88 2.36 -0.88 2.37 -0.88 2.38 -0.88 2.37 -0.86 2.39 -0.86 2.4 -0.86 2.4 -0.84 2.41 -0.85 2.4 -0.82 2.41 -0.83 2.41 -0.82 2.41 -0.8 2.42 0 0zm-139.54 134.47l0 -6.9 0 0 6.65 -0.19 6.45 -0.55 6.25 -0.9 6.07 -1.24 5.89 -1.57 5.7 -1.88 5.53 -2.18 5.36 -2.48 5.2 -2.77 5.03 -3.04 4.87 -3.29 4.72 -3.55 4.56 -3.8 4.42 -4.01 4.27 -4.24 4.11 -4.45 3.98 -4.64 3.83 -4.82 3.7 -5 3.56 -5.15 3.42 -5.31 3.29 -5.44 3.17 -5.57 3.02 -5.67 2.91 -5.78 2.78 -5.87 2.66 -5.94 2.55 -6 2.42 -6.07 2.32 -6.09 2.2 -6.12 2.09 -6.14 6.56 2.18 -2.13 6.24 -2.24 6.24 -2.36 6.21 -2.48 6.17 -2.59 6.14 -2.72 6.08 -2.86 6.01 -2.97 5.92 -3.12 5.83 -3.25 5.73 -3.39 5.6 -3.54 5.49 -3.68 5.33 -3.84 5.18 -3.99 5.02 -4.14 4.84 -4.31 4.65 -4.47 4.44 -4.64 4.23 -4.82 4 -4.98 3.75 -5.17 3.49 -5.35 3.22 -5.52 2.95 -5.72 2.64 -5.91 2.34 -6.08 2 -6.27 1.67 -6.47 1.32 -6.65 0.96 -6.85 0.59 -7.03 0.19 0 0zm-139.55 -134.47l6.56 -2.18 0 0 2.09 6.14 2.21 6.12 2.31 6.1 2.42 6.06 2.55 6 2.67 5.94 2.77 5.88 2.9 5.77 3.04 5.67 3.16 5.58 3.29 5.43 3.42 5.31 3.57 5.15 3.69 5 3.83 4.82 3.98 4.64 4.12 4.45 4.27 4.24 4.42 4.01 4.56 3.8 4.72 3.55 4.87 3.29 5.03 3.04 5.2 2.77 5.36 2.48 5.52 2.18 5.71 1.88 5.89 1.57 6.06 1.24 6.26 0.9 6.45 0.55 6.65 0.19 0 6.9 -7.03 -0.19 -6.85 -0.59 -6.66 -0.96 -6.46 -1.32 -6.27 -1.67 -6.09 -2 -5.9 -2.34 -5.72 -2.64 -5.52 -2.95 -5.35 -3.22 -5.17 -3.49 -4.98 -3.75 -4.82 -4 -4.64 -4.23 -4.47 -4.44 -4.32 -4.65 -4.14 -4.84 -3.99 -5.02 -3.83 -5.18 -3.69 -5.33 -3.54 -5.49 -3.39 -5.61 -3.24 -5.72 -3.12 -5.83 -2.98 -5.93 -2.85 -6 -2.73 -6.08 -2.59 -6.14 -2.48 -6.18 -2.35 -6.2 -2.25 -6.24 -2.13 -6.24 0 0zm-27.96 -73.29l6.36 -2.7 0 0 0.88 2.06 0.88 2.1 0.89 2.11 0.89 2.13 0.89 2.16 0.9 2.18 0.9 2.19 0.9 2.21 0.9 2.23 0.91 2.25 0.9 2.25 0.9 2.28 0.9 2.3 0.91 2.3 0.9 2.32 0.9 2.33 0.9 2.34 0.89 2.36 0.89 2.36 0.89 2.37 0.89 2.4 0.87 2.38 0.88 2.4 0.87 2.4 0.87 2.42 0.86 2.41 0.85 2.42 0.84 2.43 0.85 2.43 0.82 2.43 0.82 2.43 0.82 2.43 -6.56 2.18 -0.8 -2.41 -0.82 -2.41 -0.82 -2.41 -0.83 -2.41 -0.84 -2.41 -0.85 -2.4 -0.84 -2.39 -0.87 -2.4 -0.85 -2.38 -0.88 -2.38 -0.87 -2.38 -0.87 -2.36 -0.89 -2.35 -0.89 -2.36 -0.89 -2.34 -0.88 -2.32 -0.9 -2.31 -0.9 -2.3 -0.89 -2.3 -0.9 -2.28 -0.9 -2.26 -0.9 -2.25 -0.89 -2.23 -0.9 -2.21 -0.9 -2.21 -0.88 -2.17 -0.9 -2.16 -0.89 -2.14 -0.89 -2.13 -0.87 -2.09 -0.88 -2.08 -0.88 -2.06 0 0zm0 0l0 0 0 0 0 0zm-85.55 -56.48l0 -6.9 0 0 3.74 0.07 3.71 0.21 3.68 0.34 3.66 0.47 3.62 0.61 3.58 0.74 3.54 0.86 3.5 0.99 3.45 1.11 3.41 1.25 3.34 1.35 3.3 1.47 3.23 1.6 3.17 1.7 3.12 1.81 3.03 1.93 2.97 2.04 2.89 2.13 2.82 2.25 2.74 2.34 2.65 2.46 2.56 2.53 2.47 2.64 2.38 2.74 2.29 2.83 2.19 2.92 2.08 3 1.98 3.09 1.88 3.18 1.76 3.27 1.65 3.33 1.52 3.42 -6.36 2.7 -1.42 -3.18 -1.53 -3.11 -1.64 -3.03 -1.74 -2.96 -1.84 -2.87 -1.94 -2.8 -2.03 -2.72 -2.13 -2.63 -2.22 -2.54 -2.31 -2.46 -2.38 -2.37 -2.47 -2.28 -2.54 -2.18 -2.62 -2.09 -2.69 -1.99 -2.77 -1.9 -2.83 -1.79 -2.88 -1.69 -2.97 -1.58 -3.01 -1.48 -3.06 -1.37 -3.12 -1.27 -3.17 -1.15 -3.21 -1.03 -3.26 -0.93 -3.3 -0.8 -3.32 -0.7 -3.38 -0.55 -3.4 -0.45 -3.44 -0.32 -3.45 -0.19 -3.48 -0.07 0 0zm-642.17 -6.9l642.17 0 0 6.9 -642.17 0 0 0 0 -6.9zm-143.27 150.28l-6.9 0 0 0 0.19 -7.72 0.58 -7.64 0.96 -7.52 1.32 -7.4 1.68 -7.27 2.02 -7.14 2.37 -6.98 2.69 -6.83 3.01 -6.65 3.32 -6.48 3.62 -6.29 3.9 -6.1 4.19 -5.9 4.46 -5.67 4.72 -5.45 4.98 -5.22 5.21 -4.97 5.45 -4.73 5.67 -4.46 5.89 -4.19 6.1 -3.91 6.28 -3.62 6.48 -3.32 6.65 -3.01 6.82 -2.69 6.97 -2.37 7.13 -2.02 7.27 -1.68 7.39 -1.32 7.51 -0.96 7.63 -0.58 7.71 -0.19 0 6.9 -7.37 0.19 -7.27 0.56 -7.17 0.9 -7.05 1.26 -6.93 1.6 -6.79 1.94 -6.65 2.25 -6.5 2.57 -6.35 2.87 -6.18 3.16 -6 3.46 -5.82 3.73 -5.61 3.99 -5.41 4.26 -5.21 4.51 -4.97 4.75 -4.74 4.98 -4.52 5.21 -4.24 5.41 -4.01 5.62 -3.72 5.82 -3.46 6.01 -3.16 6.18 -2.87 6.35 -2.57 6.51 -2.25 6.66 -1.94 6.8 -1.6 6.93 -1.26 7.06 -0.9 7.18 -0.56 7.28 -0.19 7.38 0 0zm-6.9 4373.23l0 -4373.23 6.9 0 0 4373.23 0 0 -6.9 0zm150.17 143.27l0 6.9 0 0 -7.71 -0.19 -7.63 -0.58 -7.51 -0.96 -7.39 -1.32 -7.27 -1.68 -7.12 -2.01 -6.98 -2.37 -6.81 -2.68 -6.66 -3.01 -6.48 -3.32 -6.28 -3.61 -6.1 -3.9 -5.89 -4.19 -5.67 -4.46 -5.45 -4.71 -5.21 -4.97 -4.97 -5.22 -4.73 -5.44 -4.46 -5.67 -4.19 -5.9 -3.9 -6.09 -3.62 -6.28 -3.32 -6.48 -3.01 -6.65 -2.69 -6.82 -2.37 -6.98 -2.02 -7.14 -1.68 -7.27 -1.32 -7.39 -0.96 -7.52 -0.58 -7.64 -0.19 -7.72 6.9 0 0.19 7.38 0.56 7.28 0.9 7.18 1.26 7.05 1.6 6.93 1.94 6.8 2.25 6.66 2.57 6.5 2.87 6.35 3.16 6.18 3.46 6 3.72 5.81 4.01 5.62 4.24 5.41 4.51 5.2 4.75 4.98 4.97 4.73 5.21 4.51 5.41 4.26 5.61 3.99 5.82 3.72 6 3.45 6.18 3.16 6.34 2.87 6.51 2.56 6.64 2.25 6.8 1.93 6.93 1.6 7.05 1.26 7.17 0.9 7.27 0.56 7.37 0.19 0 0zm37.13 6.9l-37.13 0 0 -6.9 37.13 0 0 0 0 6.9zm145.4 26.79l-3.48 5.96 -3.16 -1.83 -3.11 -1.79 -3.09 -1.76 -3.07 -1.7 -3.08 -1.65 -3.08 -1.62 -3.09 -1.55 -3.15 -1.52 -3.18 -1.47 -3.23 -1.41 -3.3 -1.36 -3.39 -1.32 -3.49 -1.26 -3.59 -1.21 -3.7 -1.15 -3.85 -1.1 -3.99 -1.05 -4.14 -0.98 -4.32 -0.93 -4.49 -0.86 -4.69 -0.81 -4.9 -0.74 -5.1 -0.68 -5.34 -0.62 -5.59 -0.54 -5.84 -0.49 -6.1 -0.4 -6.37 -0.34 -6.66 -0.26 -6.96 -0.2 -7.27 -0.11 -7.6 -0.04 0 -6.9 7.66 0.04 7.35 0.11 7.06 0.2 6.74 0.26 6.47 0.34 6.2 0.42 5.94 0.49 5.69 0.56 5.46 0.62 5.24 0.7 5.02 0.76 4.83 0.83 4.63 0.9 4.46 0.95 4.3 1.02 4.13 1.09 3.99 1.14 3.86 1.19 3.75 1.27 3.63 1.32 3.53 1.36 3.44 1.42 3.37 1.47 3.3 1.53 3.23 1.56 3.21 1.61 3.16 1.66 3.14 1.69 3.15 1.74 3.13 1.78 3.15 1.81 3.18 1.85z"/>
  </g>
 </g>
</svg>
