<?xml version="1.0" encoding="UTF-8"?>
<!DOCTYPE svg PUBLIC "-//W3C//DTD SVG 1.1//EN" "http://www.w3.org/Graphics/SVG/1.1/DTD/svg11.dtd">
<!-- Creator: CorelDRAW X8 -->
<svg xmlns="http://www.w3.org/2000/svg" xml:space="preserve" width="40mm" height="60mm" version="1.1" style="shape-rendering:geometricPrecision; text-rendering:geometricPrecision; image-rendering:optimizeQuality; fill-rule:evenodd; clip-rule:evenodd"
viewBox="0 0 4000 6000"
 xmlns:xlink="http://www.w3.org/1999/xlink">
 <defs>
  <style type="text/css">
   <![CDATA[
    .str0 {stroke:#332C2B;stroke-width:20}
    .fil0 {fill:none}
   ]]>
  </style>
 </defs>
 <g id="图层_x0020_1">
  <metadata id="CorelCorpID_0Corel-Layer"/>
  <g id="_2154346640064">
   <path class="fil0 str0" d="M1990 955c0,-66 -98,-110 -136,-110 -38,0 -70,31 -70,69l0 0c0,38 32,69 70,69l287 0c38,0 69,-31 69,-69l0 0c0,-38 -31,-69 -69,-69l-287 0"/>
   <path class="fil0 str0" d="M1536 945c0,-29 19,-142 79,-142 59,0 107,48 107,107 0,60 -48,108 -107,108 -60,0 -108,-48 -108,-108 0,-59 48,-107 108,-107"/>
   <path class="fil0 str0" d="M2742 941c0,-29 -37,-80 -69,-80 -31,0 -57,26 -57,57l0 0c0,32 26,57 57,57l57 0c31,0 57,-25 57,-57l0 0c0,-31 -26,-57 -57,-57l-57 0"/>
   <path class="fil0 str0" d="M3083 4982l0 -3966c0,0 3,-25 -28,-81 -30,-57 -93,-131 -161,-196 -69,-65 -137,-70 -162,-74 -25,-4 -416,-14 -416,-14l-590 -1c0,0 -377,7 -396,9 -19,2 -100,-4 -189,52 -88,57 -155,158 -155,158 0,0 -64,83 -69,147l0 3966c0,0 -4,27 30,94 34,67 105,141 170,197 65,55 152,65 187,66 35,0 415,11 415,11l691 0c0,0 263,-7 296,-10 32,-3 115,-4 187,-76 72,-72 118,-110 155,-180 37,-70 35,-102 35,-102z"/>
  </g>
  <path class="fil0 str0" d="M-31739 1899c-219,0 -362,319 -362,443 0,125 102,227 226,227l0 0c125,0 227,-102 227,-227l0 -936c0,-124 -102,-226 -227,-226l0 0c-124,0 -226,102 -226,226l0 936"/>
  <path class="fil0 str0" d="M-31774 3379c-93,0 -463,-62 -463,-256 0,-194 157,-351 351,-351 193,0 350,157 350,351 0,194 -157,351 -350,351 -194,0 -351,-157 -351,-351"/>
  <path class="fil0 str0" d="M-31787 -556c-93,0 -260,121 -260,223 0,103 84,186 186,186l0 0c103,0 186,-83 186,-186l0 -185c0,-102 -83,-186 -186,-186l0 0c-102,0 -186,84 -186,186l0 185"/>
  <path class="fil0 str0" d="M-18598 -1669l-12944 0c0,0 -80,-10 -265,89 -185,100 -427,305 -638,528 -212,223 -230,445 -243,527 -14,83 -45,1359 -45,1359l-3 1925c0,0 21,1231 28,1292 6,61 -14,327 172,617 185,289 516,507 516,507 0,0 270,207 478,224l12944 -1c0,0 89,13 307,-98 218,-111 460,-341 642,-552 182,-212 213,-498 215,-612 1,-114 37,-1353 37,-1353l0 -2256c0,0 -22,-860 -32,-966 -9,-106 -14,-375 -249,-610 -235,-235 -357,-385 -587,-506 -230,-121 -333,-114 -333,-114z"/>
 </g>
</svg>
