<?xml version="1.0" encoding="UTF-8"?>
<!DOCTYPE svg PUBLIC "-//W3C//DTD SVG 1.1//EN" "http://www.w3.org/Graphics/SVG/1.1/DTD/svg11.dtd">
<!-- Creator: CorelDRAW X8 -->
<svg xmlns="http://www.w3.org/2000/svg" xml:space="preserve" width="40mm" height="60mm" version="1.1" style="shape-rendering:geometricPrecision; text-rendering:geometricPrecision; image-rendering:optimizeQuality; fill-rule:evenodd; clip-rule:evenodd"
viewBox="0 0 4000 6000"
 xmlns:xlink="http://www.w3.org/1999/xlink">
 <defs>
  <style type="text/css">
   <![CDATA[
    .str0 {stroke:black;stroke-width:7.62}
    .fil0 {fill:none}
   ]]>
  </style>
 </defs>
 <g id="图层_x0020_1">
  <metadata id="CorelCorpID_0Corel-Layer"/>
  <path class="fil0 str0" d="M1298 846c-1,-8 -8,-16 -23,-17 -53,0 -96,43 -96,96 0,53 43,96 96,96 53,0 96,-43 96,-96 0,-53 -43,-96 -96,-96m23 252c-1,-8 -8,-16 -23,-17 -53,0 -96,43 -96,96 0,53 43,96 96,96 53,0 96,-43 96,-96 0,-53 -43,-96 -96,-96m18 243c0,-5 -5,-10 -15,-11 -34,0 -62,28 -62,62 0,34 28,62 62,62 35,0 62,-28 62,-62 0,-34 -27,-62 -62,-62m0 -537l0 0c92,0 167,75 167,167l0 427c0,92 -75,166 -167,166l0 0c-91,0 -166,-74 -166,-166l0 -427c0,-92 75,-167 166,-167zm-1 -51l0 0c118,0 214,96 214,214l0 437c0,117 -96,213 -214,213l0 0c-117,0 -213,-96 -213,-213l0 -437c0,-118 96,-214 213,-214zm-231 4615l1752 0c183,0 332,-149 332,-331l0 -4011c0,-182 -149,-331 -332,-331l-1596 0c-183,0 -332,149 -332,331l0 4011c0,182 149,331 332,331l53 0c50,0 79,12 89,27"/>
 </g>
</svg>
