<?xml version="1.0" encoding="UTF-8"?>
<!DOCTYPE svg PUBLIC "-//W3C//DTD SVG 1.1//EN" "http://www.w3.org/Graphics/SVG/1.1/DTD/svg11.dtd">
<!-- Creator: CorelDRAW 2020 (64-Bit) -->
<svg xmlns="http://www.w3.org/2000/svg" xml:space="preserve" width="40mm" height="60mm" version="1.1" style="shape-rendering:geometricPrecision; text-rendering:geometricPrecision; image-rendering:optimizeQuality; fill-rule:evenodd; clip-rule:evenodd"
viewBox="0 0 4000 6000"
 xmlns:xlink="http://www.w3.org/1999/xlink"
 xmlns:xodm="http://www.corel.com/coreldraw/odm/2003">
 <defs>
  <style type="text/css">
   <![CDATA[
    .str1 {stroke:#332C2B;stroke-width:20;stroke-miterlimit:22.9256}
    .str0 {stroke:#E62129;stroke-width:20;stroke-miterlimit:22.9256}
    .fil0 {fill:none}
   ]]>
  </style>
   <clipPath id="id0">
    <rect x="-48301.78" y="-5771.61" width="13489.87" height="17323.53"/>
   </clipPath>
 </defs>
 <g id="图层_x0020_1">
  <metadata id="CorelCorpID_0Corel-Layer"/>
  <g style="clip-path:url(#id0)">
   <image x="-48301.78" y="-5771.61" width="13489.87" height="17323.53" xlink:href="10 -11i（前膜全屏）_Images\10 -11i（前膜全屏）_ImgID1.png"/>
  </g>
  <rect class="fil0 str0" x="-42958.99" y="-5434.5" width="7760" height="16830"/>
  <path class="fil0 str0" d="M-41918.69 -5222.84l1841.43 0c38.01,0 53.65,51.63 84.53,51.63l646.12 0 0 248.89c0,143.7 117.57,261.27 261.27,261.27l0.02 0c143.7,0 261.27,-117.57 261.27,-261.27l0 -248.89 629.17 0c30.88,0 45.2,-51.63 94.45,-51.63l1861.14 0c495,0 900,405 900,900l0 14615.42c0,495 -405,900 -900,900l-5679.4 0c-495,0 -900,-405 -900,-900l0 -14615.42c0,-495 405,-900 900,-900z"/>
  <path class="fil0 str1" d="M-4438.58 5970.63l0 -6096.13c0,-494.99 -405.01,-900 -900,-900l-14615.42 0c-495,0 -900,405 -900,900l0 1861.14c0,49.25 51.63,63.57 51.63,94.45l0 629.17 248.89 0c143.7,0 261.27,117.57 261.27,261.27l0 0.02c0,143.7 -117.57,261.27 -261.27,261.27l-248.89 0 0 646.12c0,30.88 -51.63,46.52 -51.63,84.53l0 1841.43c0,495 405,900 900,900l14615.42 0c495,0 900,-405 900,-900 0,-495 87.04,-690.96 135.99,-745.86"/>
  <path class="fil0 str1" d="M1068.16 5311.92l1731.08 0c140.56,0 255.57,-115.01 255.57,-255.57l0 -4150.25c0,-140.56 -115.01,-255.57 -255.57,-255.57l-528.49 0c-13.99,0 -18.06,14.66 -26.82,14.66l-178.67 0 0 70.68c0,40.8 -33.38,74.19 -74.19,74.19l0 0c-40.81,0 -74.19,-33.39 -74.19,-74.19l0 -70.68 -183.48 0c-8.77,0 -13.21,-14.66 -24,-14.66l-522.9 0c-140.56,0 -255.57,115.01 -255.57,255.57l0 4150.25c0,140.56 115.01,255.57 255.57,255.57 140.56,0 196.21,24.71 211.79,38.61"/>
 </g>
</svg>
