<?xml version="1.0" encoding="UTF-8"?>
<!DOCTYPE svg PUBLIC "-//W3C//DTD SVG 1.1//EN" "http://www.w3.org/Graphics/SVG/1.1/DTD/svg11.dtd">
<!-- Creator: CorelDRAW X8 -->
<svg xmlns="http://www.w3.org/2000/svg" xml:space="preserve" width="40mm" height="60mm" version="1.1" style="shape-rendering:geometricPrecision; text-rendering:geometricPrecision; image-rendering:optimizeQuality; fill-rule:evenodd; clip-rule:evenodd"
viewBox="0 0 4000 6000"
 xmlns:xlink="http://www.w3.org/1999/xlink">
 <defs>
  <style type="text/css">
   <![CDATA[
    .str0 {stroke:#332C2B;stroke-width:10}
    .fil0 {fill:none}
   ]]>
  </style>
 </defs>
 <g id="图层_x0020_1">
  <metadata id="CorelCorpID_0Corel-Layer"/>
  <path class="fil0 str0" d="M1970 820c-6,-23 -19,-42 -77,-42l-50 0c-26,0 -48,21 -48,47l0 0c0,27 22,48 48,48l326 0c27,0 48,-21 48,-48l0 0c0,-26 -21,-47 -48,-47l-276 0m708 26c1,-25 -28,-44 -39,-45 -38,0 -68,31 -68,68 0,38 30,68 68,68 38,0 68,-30 68,-68 0,-37 -30,-68 -68,-68m-1583 4591l1893 0c148,0 269,-121 269,-268l0 -4164c0,-147 -121,-268 -269,-268l-1744 0c-148,0 -269,121 -269,268l0 4164c0,147 121,268 269,268l247 0"/>
 </g>
</svg>
