<?xml version="1.0" encoding="UTF-8"?>
<!DOCTYPE svg PUBLIC "-//W3C//DTD SVG 1.1//EN" "http://www.w3.org/Graphics/SVG/1.1/DTD/svg11.dtd">
<!-- Creator: CorelDRAW -->
<svg xmlns="http://www.w3.org/2000/svg" xml:space="preserve" width="40mm" height="60mm" style="shape-rendering:geometricPrecision; text-rendering:geometricPrecision; image-rendering:optimizeQuality; fill-rule:evenodd; clip-rule:evenodd"
viewBox="0 0 40 60"
 xmlns:xlink="http://www.w3.org/1999/xlink">
 <defs>
  <style type="text/css">
   <![CDATA[
    .str0 {stroke:#1F1A17;stroke-width:0.194}
    .fil0 {fill:none;fill-rule:nonzero}
   ]]>
  </style>
 </defs>
 <g id="图层_x0020_1">
  <metadata id="CorelCorpID_0Corel-Layer"/>
  <path class="fil0 str0" d="M21.1714 50.8278l0 0.1065m7.5493 2.3978l-0.0564 0.0075 0 0.0188 -0.0877 0.0351 0.0088 0 0 0.0175 0.0175 0.0176 -0.0714 0.0714m1.5848 -1.3042c-1.0937,1.0962 -1.0937,1.0962 -1.3956,1.1363m1.5973 -1.338l-0.2017 0.2017m1.4558 -4.8947c-0.0051,1.9895 0.0037,2.6986 0.0363,3.236 0.0012,0.0138 0.0012,0.0251 0.0012,0.0351 0,0.1228 -0.0463,0.1741 -1.2916,1.4219m1.343 -42.3406l-0.0889 37.6476m-10.0086 -40.7971c4.2457,-0.0138 6.9643,0.0087 7.2825,0.0601 0.1941,0.0313 0.2392,0.0714 1.4707,1.2942 0.867,0.8594 1.2716,1.2853 1.308,1.3742 0.02,0.0527 0.03,0.1542 0.0363,0.421m-17.1244 -3.1257l7.0269 -0.0238m-10.3807 0.1127c0.1441,-0.0777 0.1441,-0.0777 3.3538,-0.0889m-3.3675 0.0964l0.0137 -0.0075m-2.825 15.4394c-0.0439,-7.1747 -0.0113,-11.3427 0.1002,-12.4214 0.0313,-0.3007 0.0401,-0.3295 0.1441,-0.4673 0.4259,-0.5637 2.2513,-2.3728 2.567,-2.5432m-2.6647 38.8554l-0.1466 -23.4235m0.243 28.6339c-0.0639,-0.0151 -0.0639,-0.0151 -0.0964,-5.2104m0.129 5.2342l-0.0326 -0.0238m20.2865 2.6321c-5.8017,0.005 -11.6033,0.0087 -17.4038,0.0137 -0.2844,-0.0162 -0.3132,-0.0288 -0.5525,-0.2505 -0.7604,-0.6991 -2.126,-2.1085 -2.2976,-2.3715m20.3604 2.6083l-0.0714 0.0626 -0.0263 -0.0263 0 -0.0276 -0.0088 -0.0087m-9.426 -45.068l-0.1278 0.1191m1.3217 -0.9184c-0.1202,0 -0.1616,0.0026 -0.2104,0.0126 -0.0639,0.0125 -0.1228,0.0388 -0.1942,0.0864 -0.1266,0.0852 -0.2493,0.1929 -0.7893,0.7003m1.244 -0.7993l-0.0501 0m-0.8356 0.0113c-0.5449,-0.0012 -0.7178,0.0025 -0.8506,0.0163 -0.1328,0.0125 -0.1955,0.0338 -0.3082,0.1015 -0.2193,0.1315 -0.357,0.3821 -0.357,0.6502 0,0.4635 0.3019,0.7366 0.8343,0.7579 0.2067,0.0076 0.5525,0.0126 0.9258,0.0126 0.758,0 1.0223,-0.0088 1.2127,-0.0401 0.1905,-0.0314 0.2794,-0.0802 0.4084,-0.2268 0.1203,-0.1353 0.1867,-0.3132 0.1867,-0.5049 0,-0.5399 -0.3558,-0.7767 -1.1664,-0.778m0.0852 0.0126l-0.9709 -0.0013m0.9885 0.0639c-0.0025,-0.02 -0.0075,-0.0363 -0.0176,-0.0626m0.1065 0.0087l-0.0714 0.0715 -0.0175 -0.0176m-1.3881 44.1384l-0.0777 0.0914m1.3004 -0.9558c-0.1754,0 -0.2343,0.0024 -0.2994,0.0137 -0.0852,0.0138 -0.1541,0.0426 -0.2267,0.094 -0.1303,0.0914 -0.2381,0.208 -0.6966,0.7567m1.2753 -0.8644l-0.0526 0m0.5287 0.1303c-0.0438,-0.0113 -0.0827,-0.0502 -0.1065,-0.1065 -0.9521,-0.0063 -0.7141,-0.0051 -1.6675,-0.0075 -0.6677,-0.0026 -0.7554,0.0075 -0.9158,0.1002 -0.1916,0.1127 -0.3132,0.337 -0.3132,0.58 0,0.4247 0.2644,0.659 0.7642,0.6753 0.2231,0.0075 0.6139,0.0125 1.0386,0.0125 0.6176,0 1.1564,-0.01 1.2741,-0.0226 0.342,-0.0363 0.5951,-0.3182 0.5951,-0.6602 0,-0.5048 -0.3207,-0.7015 -1.1451,-0.7015"/>
 </g>
</svg>
