<?xml version="1.0" encoding="UTF-8"?>
<!DOCTYPE svg PUBLIC "-//W3C//DTD SVG 1.1//EN" "http://www.w3.org/Graphics/SVG/1.1/DTD/svg11.dtd">
<!-- Creator: CorelDRAW 2020 (64-Bit) -->
<svg xmlns="http://www.w3.org/2000/svg" xml:space="preserve" width="40mm" height="60mm" version="1.1" style="shape-rendering:geometricPrecision; text-rendering:geometricPrecision; image-rendering:optimizeQuality; fill-rule:evenodd; clip-rule:evenodd"
viewBox="0 0 4000 6000"
 xmlns:xlink="http://www.w3.org/1999/xlink"
 xmlns:xodm="http://www.corel.com/coreldraw/odm/2003">
 <defs>
  <style type="text/css">
   <![CDATA[
    .str0 {stroke:black;stroke-width:7.62;stroke-miterlimit:22.9256}
    .fil0 {fill:none}
   ]]>
  </style>
 </defs>
 <g id="图层_x0020_1">
  <metadata id="CorelCorpID_0Corel-Layer"/>
  <path class="fil0 str0" d="M2111.49 1030.72c0,6.84 0,241.35 0,241.38 0.17,340.05 275.94,615.65 616.04,615.65 340.22,0 616.03,-275.81 616.03,-616.04 0,-340.23 -275.81,-616.04 -616.03,-616.04 -340.23,0 -616.04,275.81 -616.04,616.04 0,0.06 0,0.12 0,0.19m-1468.26 -241.18c0,6.84 0,241.35 0,241.38 0.18,340.05 275.94,615.65 616.04,615.65 340.23,0 616.04,-275.81 616.04,-616.04 0,-340.23 -275.81,-616.04 -616.04,-616.04 -340.23,0 -616.04,275.81 -616.04,616.04 0,0.06 0,0.12 0,0.19m1468.26 1509.1c0,6.84 0,241.35 0,241.38 0.17,340.05 275.94,615.65 616.04,615.65 340.22,0 616.03,-275.81 616.03,-616.04 0,-340.23 -275.81,-616.04 -616.03,-616.04 -340.23,0 -616.04,275.81 -616.04,616.04 0,0.07 0,0.13 0,0.19m-1468.26 -241.18c0,6.84 0,241.35 0,241.38 0.18,340.05 275.94,615.65 616.04,615.65 340.23,0 616.04,-275.81 616.04,-616.04 0,-340.23 -275.81,-616.04 -616.04,-616.04 -340.23,0 -616.04,275.81 -616.04,616.04 0,0.07 0,0.13 0,0.19m1468.26 1476.46c0,6.84 0,241.35 0,241.38 0.17,340.05 275.94,615.65 616.04,615.65 340.22,0 616.03,-275.81 616.03,-616.04 0,-340.23 -275.81,-616.04 -616.03,-616.04 -340.23,0 -616.04,275.81 -616.04,616.04 0,0.07 0,0.13 0,0.19m-1468.26 -241.18c0,6.84 0,241.35 0,241.38 0.18,340.05 275.94,615.65 616.04,615.65 340.23,0 616.04,-275.81 616.04,-616.04 0,-340.23 -275.81,-616.04 -616.04,-616.04 -340.23,0 -616.04,275.81 -616.04,616.04 0,0.07 0,0.13 0,0.19"/>
 </g>
</svg>
