<?xml version="1.0" encoding="UTF-8"?>
<!DOCTYPE svg PUBLIC "-//W3C//DTD SVG 1.1//EN" "http://www.w3.org/Graphics/SVG/1.1/DTD/svg11.dtd">
<!-- Creator: CorelDRAW 2020 (64-Bit) -->
<svg xmlns="http://www.w3.org/2000/svg" xml:space="preserve" width="40mm" height="60mm" version="1.1" style="shape-rendering:geometricPrecision; text-rendering:geometricPrecision; image-rendering:optimizeQuality; fill-rule:evenodd; clip-rule:evenodd"
viewBox="0 0 4000 6000"
 xmlns:xlink="http://www.w3.org/1999/xlink"
 xmlns:xodm="http://www.corel.com/coreldraw/odm/2003">
 <defs>
  <style type="text/css">
   <![CDATA[
    .str1 {stroke:#222222;stroke-width:7.06;stroke-miterlimit:22.9256}
    .str0 {stroke:#222222;stroke-width:20;stroke-miterlimit:22.9256}
    .fil0 {fill:none}
   ]]>
  </style>
 </defs>
 <g id="图层_x0020_1">
  <metadata id="CorelCorpID_0Corel-Layer"/>
  <path class="fil0 str0" d="M-10875.55 5369.86c0,-1092.33 -885.5,-1977.83 -1977.83,-1977.83 -1092.33,0 -1977.83,885.5 -1977.83,1977.83 0,1092.33 885.5,1977.83 1977.83,1977.83 1092.33,0 1977.83,-885.5 1977.83,-1977.83 0,-1092.33 106.75,-1473.5 393.38,-1473.5"/>
  <path class="fil0 str0" d="M-10875.55 1145.34c0,-1092.33 -885.5,-1977.83 -1977.83,-1977.83 -1092.33,0 -1977.83,885.5 -1977.83,1977.83 0,1092.33 885.5,1977.83 1977.83,1977.83 1092.33,0 1977.83,-885.5 1977.83,-1977.83 0,-1092.33 106.75,-1473.5 393.38,-1473.5"/>
  <path class="fil0 str0" d="M-6571.66 5369.86c0,-1092.33 -885.5,-1977.83 -1977.83,-1977.83 -1092.33,0 -1977.83,885.5 -1977.83,1977.83 0,1092.33 885.5,1977.83 1977.83,1977.83 1092.33,0 1977.83,-885.5 1977.83,-1977.83 0,-1092.33 106.75,-1473.5 393.38,-1473.5"/>
  <path class="fil0 str0" d="M-2267.77 5369.86c0,-1092.33 -885.5,-1977.83 -1977.83,-1977.83 -1092.33,0 -1977.83,885.5 -1977.83,1977.83 0,1092.33 885.5,1977.83 1977.83,1977.83 1092.33,0 1977.83,-885.5 1977.83,-1977.83 0,-1092.33 106.75,-1473.5 393.38,-1473.5"/>
  <path class="fil0 str0" d="M-6571.66 1145.34c0,-1092.33 -885.5,-1977.83 -1977.83,-1977.83 -1092.33,0 -1977.83,885.5 -1977.83,1977.83 0,1092.33 885.5,1977.83 1977.83,1977.83 1092.33,0 1977.83,-885.5 1977.83,-1977.83 0,-1092.33 106.75,-1473.5 393.38,-1473.5"/>
  <path class="fil0 str0" d="M-2267.77 1145.34c0,-1092.33 -885.5,-1977.83 -1977.83,-1977.83 -1092.33,0 -1977.83,885.5 -1977.83,1977.83 0,1092.33 885.5,1977.83 1977.83,1977.83 1092.33,0 1977.83,-885.5 1977.83,-1977.83 0,-1092.33 106.75,-1473.5 393.38,-1473.5"/>
  <g id="_2680309220272">
   <path class="fil0 str1" d="M1227.19 2090.56c396.24,0 717.45,-321.21 717.45,-717.45 0,-396.23 -321.21,-717.44 -717.45,-717.44 -396.24,0 -717.45,321.21 -717.45,717.44 0,396.24 321.21,717.45 717.45,717.45 396.24,0 534.5,38.72 534.5,142.7"/>
   <path class="fil0 str1" d="M2759.61 2090.56c396.24,0 717.45,-321.21 717.45,-717.45 0,-396.23 -321.21,-717.44 -717.45,-717.44 -396.24,0 -717.45,321.21 -717.45,717.44 0,396.24 321.21,717.45 717.45,717.45 396.24,0 534.5,38.72 534.5,142.7"/>
   <path class="fil0 str1" d="M1227.19 3651.77c396.24,0 717.45,-321.21 717.45,-717.45 0,-396.23 -321.21,-717.44 -717.45,-717.44 -396.24,0 -717.45,321.21 -717.45,717.44 0,396.24 321.21,717.45 717.45,717.45 396.24,0 534.5,38.72 534.5,142.69"/>
   <path class="fil0 str1" d="M1227.19 5212.97c396.24,0 717.45,-321.21 717.45,-717.44 0,-396.24 -321.21,-717.45 -717.45,-717.45 -396.24,0 -717.45,321.21 -717.45,717.45 0,396.23 321.21,717.44 717.45,717.44 396.24,0 534.5,38.73 534.5,142.7"/>
   <path class="fil0 str1" d="M2759.61 3651.77c396.24,0 717.45,-321.21 717.45,-717.45 0,-396.23 -321.21,-717.44 -717.45,-717.44 -396.24,0 -717.45,321.21 -717.45,717.44 0,396.24 321.21,717.45 717.45,717.45 396.24,0 534.5,38.72 534.5,142.69"/>
   <path class="fil0 str1" d="M2759.61 5212.97c396.24,0 717.45,-321.21 717.45,-717.44 0,-396.24 -321.21,-717.45 -717.45,-717.45 -396.24,0 -717.45,321.21 -717.45,717.45 0,396.23 321.21,717.44 717.45,717.44 396.24,0 534.5,38.73 534.5,142.7"/>
  </g>
 </g>
</svg>
