<?xml version="1.0" encoding="UTF-8"?>
<!DOCTYPE svg PUBLIC "-//W3C//DTD SVG 1.1//EN" "http://www.w3.org/Graphics/SVG/1.1/DTD/svg11.dtd">
<!-- Creator: CorelDRAW 2020 (64-Bit) -->
<svg xmlns="http://www.w3.org/2000/svg" xml:space="preserve" width="40mm" height="60mm" version="1.1" style="shape-rendering:geometricPrecision; text-rendering:geometricPrecision; image-rendering:optimizeQuality; fill-rule:evenodd; clip-rule:evenodd"
viewBox="0 0 4000 6000"
 xmlns:xlink="http://www.w3.org/1999/xlink"
 xmlns:xodm="http://www.corel.com/coreldraw/odm/2003">
 <defs>
  <style type="text/css">
   <![CDATA[
    .str0 {stroke:black;stroke-width:7.62;stroke-miterlimit:22.9256}
    .fil0 {fill:none}
   ]]>
  </style>
 </defs>
 <g id="图层_x0020_1">
  <metadata id="CorelCorpID_0Corel-Layer"/>
  <path class="fil0 str0" d="M1068.74 5326.53l1714.56 0c135.98,0 247.24,-111.26 247.24,-247.24l0 -4176.38c0,-135.97 -111.26,-247.24 -247.24,-247.24l-545.93 0c-2.47,0 -4.59,0.88 -6.34,2.62l-3.7 3.71c-1.74,1.74 -3.87,2.63 -6.34,2.63l-132.08 0c-19.73,0 -35.82,16.08 -35.82,35.81l0 38.65c0,32.83 -26.86,59.69 -59.69,59.69l0 0c-32.83,0 -59.69,-26.86 -59.69,-59.69l0 -38.65c0,-19.73 -16.09,-35.81 -35.82,-35.81l-132.08 0c-2.47,0 -4.6,-0.89 -6.34,-2.63l-3.7 -3.71c-1.75,-1.74 -3.87,-2.62 -6.34,-2.62l-545.93 0c-135.98,0 -247.24,111.26 -247.24,247.24l0 4176.38c0,135.98 111.26,247.24 247.24,247.24l30.83 0c95.59,0 146.91,16.57 158.17,29.14"/>
 </g>
</svg>
