<?xml version="1.0" encoding="UTF-8"?>
<!DOCTYPE svg PUBLIC "-//W3C//DTD SVG 1.1//EN" "http://www.w3.org/Graphics/SVG/1.1/DTD/svg11.dtd">
<!-- Creator: CorelDRAW X8 -->
<svg xmlns="http://www.w3.org/2000/svg" xml:space="preserve" width="40mm" height="60mm" version="1.1" style="shape-rendering:geometricPrecision; text-rendering:geometricPrecision; image-rendering:optimizeQuality; fill-rule:evenodd; clip-rule:evenodd"
viewBox="0 0 4000 6000"
 xmlns:xlink="http://www.w3.org/1999/xlink">
 <defs>
  <style type="text/css">
   <![CDATA[
    .str0 {stroke:black;stroke-width:20}
    .fil0 {fill:none}
   ]]>
  </style>
 </defs>
 <g id="图层_x0020_1">
  <metadata id="CorelCorpID_0Corel-Layer"/>
  <path class="fil0 str0" d="M1186 650l1628 0c188,0 341,154 341,341l0 4018c0,187 -153,341 -341,341l-1628 0c-188,0 -341,-154 -341,-341l0 -4018c0,-187 153,-341 341,-341zm478 109l672 0c32,0 59,27 59,59l0 0c0,32 -27,58 -59,58l-672 0c-32,0 -59,-26 -59,-58l0 0c0,-32 27,-59 59,-59zm1067 -7c36,0 65,30 65,66 0,36 -29,65 -65,65 -36,0 -66,-29 -66,-65 0,-36 30,-66 66,-66z"/>
 </g>
</svg>
