<?xml version="1.0" encoding="UTF-8"?>
<!DOCTYPE svg PUBLIC "-//W3C//DTD SVG 1.1//EN" "http://www.w3.org/Graphics/SVG/1.1/DTD/svg11.dtd">
<!-- Creator: CorelDRAW X8 -->
<svg xmlns="http://www.w3.org/2000/svg" xml:space="preserve" width="40mm" height="60mm" version="1.1" style="shape-rendering:geometricPrecision; text-rendering:geometricPrecision; image-rendering:optimizeQuality; fill-rule:evenodd; clip-rule:evenodd"
viewBox="0 0 4000 6000"
 xmlns:xlink="http://www.w3.org/1999/xlink">
 <defs>
  <style type="text/css">
   <![CDATA[
    .str0 {stroke:black;stroke-width:7.62}
    .fil0 {fill:none}
   ]]>
  </style>
 </defs>
 <g id="图层_x0020_1">
  <metadata id="CorelCorpID_0Corel-Layer"/>
  <path class="fil0 str0" d="M1077 5325l1670 0c159,0 290,-131 290,-290l0 -4095c0,-160 -131,-290 -290,-290l-579 0c-29,0 -57,12 -57,58l0 20c0,56 -46,101 -102,101l0 0c-56,0 -102,-45 -102,-101l0 -22c0,-44 -28,-56 -59,-56l-595 0c-159,0 -290,130 -290,290l0 4095c0,159 131,290 290,290l40 0c29,0 50,12 72,25"/>
 </g>
</svg>
