<?xml version="1.0" encoding="UTF-8"?>
<!DOCTYPE svg PUBLIC "-//W3C//DTD SVG 1.1//EN" "http://www.w3.org/Graphics/SVG/1.1/DTD/svg11.dtd">
<!-- Creator: CorelDRAW -->
<svg xmlns="http://www.w3.org/2000/svg" xml:space="preserve" width="40mm" height="60mm" style="shape-rendering:geometricPrecision; text-rendering:geometricPrecision; image-rendering:optimizeQuality; fill-rule:evenodd; clip-rule:evenodd"
viewBox="0 0 40 60"
 xmlns:xlink="http://www.w3.org/1999/xlink">
 <defs>
  <style type="text/css">
   <![CDATA[
    .str0 {stroke:#1F1A17;stroke-width:0.194}
    .str2 {stroke:#1F1A17;stroke-width:0.194}
    .str1 {stroke:#1F1A17;stroke-width:0.2}
    .fil0 {fill:none}
    .fil1 {fill:none;fill-rule:nonzero}
   ]]>
  </style>
 </defs>
 <g id="图层_x0020_16">
  <metadata id="CorelCorpID_0Corel-Layer"/>
  <path class="fil0 str0" d="M6.1329 21.3273l0.0781 0c0.1497,0 0.2722,0.1921 0.2722,0.4269l0 3.0812c0,0.2348 -0.1225,0.4269 -0.2722,0.4269l-0.0781 0c-0.1498,0 -0.2723,-0.1921 -0.2723,-0.4269l0 -3.0812c0,-0.2348 0.1225,-0.4269 0.2723,-0.4269z"/>
  <line class="fil0 str0" x1="30.0809" y1="8.295" x2="29.0209" y2= "8.2876" />
  <line class="fil0 str0" x1="29.1186" y1="8.1889" x2="29.1196" y2= "7.5957" />
  <path class="fil0 str0" d="M29.1196 7.5957c0.001,-0.6855 -0.0042,-0.7342 -0.104,-1.0442 -0.2091,-0.6504 -0.6271,-1.1109 -1.2691,-1.3985 -0.3364,-0.1507 -0.4585,-0.1719 -1.0091,-0.1772 -7.4745,-0.0711 -5.6059,-0.0573 -13.0802,-0.1008 -2.8205,-0.016 -3.7723,0.0085 -4.0663,0.1051l-0.1231 0.0254 -0.0498 0.0095"/>
  <path class="fil0 str0" d="M9.418 5.015c-1.0378,0.19 -1.7891,1.1249 -1.8071,2.2486"/>
  <line class="fil0 str0" x1="7.6109" y1="7.2636" x2="7.613" y2= "8.3926" />
  <path class="fil0 str0" d="M7.5154 8.295c-0.2006,0 -0.3767,0 -0.5306,0"/>
  <line class="fil0 str0" x1="6.9848" y1="8.295" x2="5.3698" y2= "8.3024" />
  <path class="fil0 str0" d="M5.3698 8.3024c-0.121,0.0064 -0.1475,0.0191 -0.1762,0.0881 -0.0328,0.0764 -0.036,0.0966 -0.0445,0.3544"/>
  <line class="fil0 str0" x1="5.1491" y1="8.7449" x2="4.9198" y2= "41.0599" />
  <path class="fil0 str0" d="M7.7106 50.16c-0.0976,-0.3004 -0.0976,-0.6205 -0.101,-1.6962l-1.5193 -0.0133c-0.8415,0 -0.8139,0.0011 -0.8564,-0.0372l-0.1294 -0.1995c-0.1592,-0.3437 -0.2165,-2.572 -0.1847,-7.1539"/>
  <line class="fil0 str0" x1="7.7106" y1="50.16" x2="7.7191" y2= "50.1854" />
  <path class="fil0 str0" d="M7.7191 50.1854c0.2165,0.6622 0.6229,1.1089 1.2723,1.4007 0.3407,0.1528 0.4393,0.1697 1.0028,0.1751"/>
  <line class="fil0 str0" x1="9.9942" y1="51.7612" x2="23.5688" y2= "51.8641" />
  <path class="fil0 str0" d="M23.5688 51.8641c2.4778,0.019 3.2885,-0.0031 3.5665,-0.0997"/>
  <path class="fil0 str0" d="M27.1353 51.7644l0.1623 -0.034 0.0213 -0.0042m-0.1836 0.0382z"/>
  <path class="fil0 str0" d="M27.3189 51.7262c0.9667,-0.1741 1.7614,-1.0983 1.7997,-2.0925"/>
  <line class="fil0 str0" x1="29.1186" y1="49.6337" x2="29.1186" y2= "48.3443" />
  <line class="fil0 str0" x1="29.2247" y1="48.4495" x2="30.671" y2= "48.4537" />
  <path class="fil0 str0" d="M30.671 48.4537c0.6006,0.0021 0.7289,-0.0042 0.7936,-0.0382 0.0648,-0.0329 0.0776,-0.1008 0.0818,-0.4181"/>
  <line class="fil0 str0" x1="31.5464" y1="47.9974" x2="31.7661" y2= "28.3785" />
  <path class="fil0 str0" d="M31.7661 28.3785c0.0477,-4.2264 0.0679,-8.4528 0.0625,-12.6791 -0.0063,-4.6041 -0.0775,-6.8346 -0.2292,-7.1774l-0.0636 -0.1262c-0.0329,-0.0467 -0.0743,-0.0711 -0.1455,-0.0849 -0.0848,-0.017 -0.1749,-0.0191 -0.5655,-0.0181"/>
  <line class="fil0 str0" x1="30.8248" y1="8.2928" x2="29.9611" y2= "8.295" />
  <rect class="fil0 str1" x="9.0854" y="7.3318" width="3.5052" height="6.2019" rx="1.7272" ry="1.7272"/>
  <path class="fil1 str2" d="M19.9034 16.7286c0.001,0.0659 0.001,0.1264 0.001,0.1825 0,0.5981 -0.0518,0.8216 -0.2677,1.1445 -0.3131,0.4696 -0.7817,0.6888 -1.4716,0.6888 -0.9016,0 -1.5213,-0.4545 -1.6865,-1.233 -0.0292,-0.1382 -0.0475,-0.4869 -0.0475,-0.8756 0,-0.9458 0.0929,-1.274 0.4675,-1.6454 0.3153,-0.3121 0.7126,-0.4568 1.2524,-0.4568 1.1532,0 1.7567,0.6176 1.7567,1.7977 0,0.1457 -0.0043,0.3153 -0.0119,0.5204"/>
  <rect class="fil0 str1" x="5.7895" y="12.3442" width="0.8405" height="6.7058" rx="0.2456" ry="0.2456"/>
  <rect class="fil0 str1" x="10.1629" y="14.9013" width="1.452" height="1.2897" rx="0.3411" ry="0.3411"/>
 </g>
 <g id="图层_x0020_17">
  <metadata id="CorelCorpID_1Corel-Layer"/>
  <rect class="fil0 str1" x="29.833" y="9.299" width="0.889" height="10.6172" rx="0.405" ry="0.405"/>
 </g>
</svg>
