<?xml version="1.0" encoding="UTF-8"?>
<!DOCTYPE svg PUBLIC "-//W3C//DTD SVG 1.1//EN" "http://www.w3.org/Graphics/SVG/1.1/DTD/svg11.dtd">
<!-- Creator: CorelDRAW X8 -->
<svg xmlns="http://www.w3.org/2000/svg" xml:space="preserve" width="40mm" height="60mm" version="1.1" style="shape-rendering:geometricPrecision; text-rendering:geometricPrecision; image-rendering:optimizeQuality; fill-rule:evenodd; clip-rule:evenodd"
viewBox="0 0 4000 6000"
 xmlns:xlink="http://www.w3.org/1999/xlink">
 <defs>
  <style type="text/css">
   <![CDATA[
    .str0 {stroke:#222222;stroke-width:20}
    .fil0 {fill:none}
   ]]>
  </style>
 </defs>
 <g id="图层_x0020_1">
  <metadata id="CorelCorpID_0Corel-Layer"/>
  <path class="fil0 str0" d="M1487 5350c0,-46 -121,-107 -245,-107 -124,0 -225,-101 -225,-225l0 -4143c0,-124 101,-225 225,-225l712 0 0 95c0,33 27,60 60,60l0 0c33,0 60,-27 60,-60l0 -95 721 0c124,0 225,101 225,225l0 4143c0,124 -101,225 -225,225l-1815 0"/>
  <path class="fil0 str0" d="M-5501 5071c-165,0 -388,438 -388,888 0,450 -368,818 -818,818l-15030 0c-450,0 -818,-368 -818,-818l0 -2582 344 0c120,0 218,-98 218,-218l0 0c0,-120 -98,-218 -218,-218l-344 0 0 -2614c0,-450 368,-818 818,-818l15030 0c450,0 818,368 818,818l0 6585"/>
 </g>
</svg>
