<?xml version="1.0" encoding="UTF-8"?>
<!DOCTYPE svg PUBLIC "-//W3C//DTD SVG 1.1//EN" "http://www.w3.org/Graphics/SVG/1.1/DTD/svg11.dtd">
<!-- Creator: CorelDRAW 2020 (64-Bit) -->
<svg xmlns="http://www.w3.org/2000/svg" xml:space="preserve" width="40mm" height="60mm" version="1.1" style="shape-rendering:geometricPrecision; text-rendering:geometricPrecision; image-rendering:optimizeQuality; fill-rule:evenodd; clip-rule:evenodd"
viewBox="0 0 4000 6000"
 xmlns:xlink="http://www.w3.org/1999/xlink"
 xmlns:xodm="http://www.corel.com/coreldraw/odm/2003">
 <defs>
  <style type="text/css">
   <![CDATA[
    .str1 {stroke:#332C2B;stroke-width:20;stroke-miterlimit:22.9256}
    .str2 {stroke:#332C2B;stroke-width:20;stroke-miterlimit:22.9256}
    .str0 {stroke:#E62129;stroke-width:20;stroke-miterlimit:22.9256}
    .fil0 {fill:none}
   ]]>
  </style>
   <clipPath id="id0">
    <rect x="-57049.5" y="-7044.74" width="17253.53" height="19145.85"/>
   </clipPath>
 </defs>
 <g id="图层_x0020_1">
  <metadata id="CorelCorpID_0Corel-Layer"/>
  <g style="clip-path:url(#id0)">
   <image x="-57049.5" y="-7044.74" width="17253.53" height="19145.85" xlink:href="Reno9 Pro -11i（背膜）_Images\Reno9 Pro -11i（背膜）_ImgID1.png"/>
  </g>
  <rect class="fil0 str0" x="-54740.15" y="-5595.06" width="7420" height="16230"/>
  <rect class="fil0 str0" x="-54665.99" y="-5547.44" width="7271.68" height="16089.79" rx="800" ry="989.06"/>
  <path class="fil0 str1" d="M-53140.05 -4947.98c-549.53,0 -995.02,445.49 -995.02,995.02 0,549.53 445.49,995.02 995.02,995.02 549.53,0 995.02,-445.49 995.02,-995.02 0,-549.53 -445.49,-995.02 -995.02,-995.02 -549.53,0 -588.6,450.14 -591.25,496.44"/>
  <path class="fil0 str1" d="M-53140.05 -2770.97c-549.53,0 -995.02,445.49 -995.02,995.02 0,549.53 445.49,995.02 995.02,995.02 549.53,0 995.02,-445.49 995.02,-995.02 0,-549.53 -445.49,-995.02 -995.02,-995.02 -549.53,0 -588.6,450.14 -591.25,496.44"/>
  <path class="fil0 str1" d="M-51376.1 -4383.44c-237.47,0 -429.98,192.51 -429.98,429.98 0,237.47 192.51,429.98 429.98,429.98 237.47,0 429.98,-192.51 429.98,-429.98 0,-237.47 -192.51,-429.98 -429.98,-429.98 -237.47,0 -254.35,194.52 -255.5,214.53"/>
  <path class="fil0 str1" d="M-51376.1 -2205.9c-238.19,0 -431.28,193.09 -431.28,431.28 0,238.19 193.09,431.28 431.28,431.28 238.19,0 431.28,-193.09 431.28,-431.28 0,-238.19 -193.09,-431.28 -431.28,-431.28 -238.19,0 -255.12,195.11 -256.27,215.18"/>
  <path class="fil0 str2" d="M-6286.87 5872.4l0 -6163.8c0,-439.99 -360,-800.01 -800,-800.01l-14489.78 0c-440.01,0 -800.01,360.01 -800.01,800.01l0 5671.67c0,440 360,800 800.01,800l14489.78 0c440.01,0 800,-360 800,-800 0,-440 40.37,-533.41 93.95,-634.62"/>
  <path class="fil0 str2" d="M-21777.2 4654.34c0,549.53 445.49,995.02 995.02,995.02 549.53,0 995.02,-445.49 995.02,-995.02 0,-549.53 -445.49,-995.02 -995.02,-995.02 -549.53,0 -995.02,445.49 -995.02,995.02 0,549.53 450.14,588.6 496.44,591.25"/>
  <path class="fil0 str2" d="M-19600.19 4654.34c0,549.53 445.49,995.02 995.02,995.02 549.53,0 995.02,-445.49 995.02,-995.02 0,-549.53 -445.49,-995.02 -995.02,-995.02 -549.53,0 -995.02,445.49 -995.02,995.02 0,549.53 450.14,588.6 496.44,591.25"/>
  <path class="fil0 str2" d="M-21212.66 2890.39c0,237.47 192.51,429.98 429.98,429.98 237.47,0 429.98,-192.51 429.98,-429.98 0,-237.47 -192.51,-429.98 -429.98,-429.98 -237.47,0 -429.98,192.51 -429.98,429.98 0,237.47 194.52,254.35 214.53,255.5"/>
  <path class="fil0 str2" d="M-19035.12 2890.39c0,238.19 193.09,431.28 431.28,431.28 238.19,0 431.28,-193.09 431.28,-431.28 0,-238.19 -193.09,-431.28 -431.28,-431.28 -238.19,0 -431.28,193.09 -431.28,431.28 0,238.19 195.11,255.12 215.18,256.27"/>
  <g id="_2283108542128">
   <path class="fil0 str2" d="M1026.91 5328.39l1790.06 0c127.78,0 232.33,-104.55 232.33,-232.34l0 -4208.05c0,-127.78 -104.55,-232.33 -232.33,-232.33l-1647.14 0c-127.78,0 -232.33,104.55 -232.33,232.33l0 4208.05c0,127.79 104.55,232.34 232.33,232.34 127.78,0 154.91,11.72 184.3,27.28"/>
   <path class="fil0 str2" d="M1380.65 829.76c-159.59,0 -288.97,129.38 -288.97,288.97 0,159.59 129.38,288.97 288.97,288.97 159.59,0 288.97,-129.38 288.97,-288.97 0,-159.59 -129.38,-288.97 -288.97,-288.97 -159.59,0 -170.94,130.73 -171.71,144.18"/>
   <path class="fil0 str2" d="M1380.65 1462c-159.59,0 -288.97,129.38 -288.97,288.97 0,159.59 129.38,288.97 288.97,288.97 159.59,0 288.97,-129.38 288.97,-288.97 0,-159.59 -129.38,-288.97 -288.97,-288.97 -159.59,0 -170.94,130.73 -171.71,144.17"/>
   <path class="fil0 str2" d="M1892.93 993.71c-68.97,0 -124.87,55.91 -124.87,124.88 0,68.96 55.9,124.87 124.87,124.87 68.96,0 124.87,-55.91 124.87,-124.87 0,-68.97 -55.91,-124.88 -124.87,-124.88 -68.97,0 -73.87,56.49 -74.2,62.3"/>
   <path class="fil0 str2" d="M1892.93 1626.1c-69.17,0 -125.25,56.08 -125.25,125.25 0,69.18 56.08,125.25 125.25,125.25 69.17,0 125.25,-56.07 125.25,-125.25 0,-69.17 -56.08,-125.25 -125.25,-125.25 -69.17,0 -74.09,56.67 -74.43,62.49"/>
  </g>
 </g>
</svg>
