<?xml version="1.0" encoding="UTF-8"?>
<!DOCTYPE svg PUBLIC "-//W3C//DTD SVG 1.1//EN" "http://www.w3.org/Graphics/SVG/1.1/DTD/svg11.dtd">
<!-- Creator: CorelDRAW 2020 (64-Bit) -->
<svg xmlns="http://www.w3.org/2000/svg" xml:space="preserve" width="40mm" height="60mm" version="1.1" style="shape-rendering:geometricPrecision; text-rendering:geometricPrecision; image-rendering:optimizeQuality; fill-rule:evenodd; clip-rule:evenodd"
viewBox="0 0 4000 6000"
 xmlns:xlink="http://www.w3.org/1999/xlink"
 xmlns:xodm="http://www.corel.com/coreldraw/odm/2003">
 <defs>
  <style type="text/css">
   <![CDATA[
    .str1 {stroke:#332C2B;stroke-width:20;stroke-miterlimit:22.9256}
    .str0 {stroke:#E62129;stroke-width:20;stroke-miterlimit:22.9256}
    .fil0 {fill:none}
   ]]>
  </style>
   <clipPath id="id0">
    <rect x="-46016.74" y="-5512.54" width="19038.73" height="16720.47"/>
   </clipPath>
 </defs>
 <g id="图层_x0020_1">
  <metadata id="CorelCorpID_0Corel-Layer"/>
  <g style="clip-path:url(#id0)">
   <image x="-46016.74" y="-5512.54" width="19038.73" height="16720.47" xlink:href="Galaxy S23 Ultra -11i（UV）_Images\Galaxy S23 Ultra -11i（UV）_ImgID1.png"/>
  </g>
  <rect class="fil0 str0" x="-44443.47" y="-5346.54" width="7810" height="16340"/>
  <rect class="fil0 str0" x="-44333.07" y="-5161.33" width="7589.2" height="16015.96" rx="100" ry="115.81"/>
  <path class="fil0 str1" d="M-5069.05 6629.89l0 -7464.93c0,-54.99 -45.01,-100 -100,-100l-15815.96 0c-55,0 -100,45 -100,100l0 7389.2c0,55 45,100 100,100l15815.96 0c55,0 100,-45 100,-100 0,-55 7.3,-135.53 25.82,-163.31"/>
  <path class="fil0 str1" d="M888.75 5348.11l2187.11 0c16.11,0 29.3,-13.19 29.3,-29.3l0 -4633.84c0,-16.12 -13.18,-29.3 -29.3,-29.3l-2164.92 0c-16.12,0 -29.3,13.18 -29.3,29.3l0 4633.84c0,16.11 13.18,29.3 29.3,29.3 16.11,0 39.71,2.13 47.85,7.56"/>
 </g>
</svg>
