<?xml version="1.0" encoding="UTF-8"?>
<!DOCTYPE svg PUBLIC "-//W3C//DTD SVG 1.1//EN" "http://www.w3.org/Graphics/SVG/1.1/DTD/svg11.dtd">
<!-- Creator: CorelDRAW X8 -->
<svg xmlns="http://www.w3.org/2000/svg" xml:space="preserve" width="40mm" height="60mm" version="1.1" style="shape-rendering:geometricPrecision; text-rendering:geometricPrecision; image-rendering:optimizeQuality; fill-rule:evenodd; clip-rule:evenodd"
viewBox="0 0 4000 6000"
 xmlns:xlink="http://www.w3.org/1999/xlink">
 <defs>
  <style type="text/css">
   <![CDATA[
    .str0 {stroke:black;stroke-width:7.62}
    .fil0 {fill:none}
   ]]>
  </style>
 </defs>
 <g id="图层_x0020_1">
  <metadata id="CorelCorpID_0Corel-Layer"/>
  <path class="fil0 str0" d="M1002 5350l1828 0c152,0 275,-124 275,-275l0 -4150c0,-151 -123,-275 -275,-275l-1660 0c-152,0 -275,124 -275,275l0 4150c0,151 123,275 275,275l59 0m739 -4628c-5,-17 -14,-31 -56,-31l-36 0c-19,0 -35,16 -35,35l0 0c0,19 16,34 35,34l253 0c19,0 34,-15 34,-34l0 0c0,-19 -15,-35 -34,-35l-217 0"/>
 </g>
</svg>
