<?xml version="1.0" encoding="UTF-8"?>
<!DOCTYPE svg PUBLIC "-//W3C//DTD SVG 1.1//EN" "http://www.w3.org/Graphics/SVG/1.1/DTD/svg11.dtd">
<!-- Creator: CorelDRAW 2020 (64-Bit) -->
<svg xmlns="http://www.w3.org/2000/svg" xml:space="preserve" width="40mm" height="60mm" version="1.1" style="shape-rendering:geometricPrecision; text-rendering:geometricPrecision; image-rendering:optimizeQuality; fill-rule:evenodd; clip-rule:evenodd"
viewBox="0 0 4000 6000"
 xmlns:xlink="http://www.w3.org/1999/xlink"
 xmlns:xodm="http://www.corel.com/coreldraw/odm/2003">
 <defs>
  <style type="text/css">
   <![CDATA[
    .str1 {stroke:#332C2B;stroke-width:20;stroke-miterlimit:22.9256}
    .str0 {stroke:#E62129;stroke-width:20;stroke-miterlimit:22.9256}
    .fil0 {fill:none}
   ]]>
  </style>
   <clipPath id="id0">
    <rect x="-46708.04" y="-6350.07" width="14525.5" height="17015.58"/>
   </clipPath>
 </defs>
 <g id="图层_x0020_1">
  <metadata id="CorelCorpID_0Corel-Layer"/>
  <g style="clip-path:url(#id0)">
   <image x="-46708.04" y="-6350.07" width="14525.5" height="17015.58" xlink:href="Z28  -11i（前膜全屏）_Images\Z28  -11i（前膜全屏）_ImgID1.png"/>
  </g>
  <rect class="fil0 str0" x="-40247.36" y="-6201.83" width="7630" height="16620"/>
  <path class="fil0 str0" d="M-39176.89 -5961.65l1730.39 0c57.27,0 104.78,84.66 153.32,84.66l331.42 0c168.31,0 149.1,131.02 149.1,208.35 0,203.48 164.96,368.44 368.44,368.44 203.48,0 368.44,-164.96 368.44,-368.44 0,-77.33 -13.92,-208.35 138.52,-208.35l345.37 0c48.54,0 97.39,-84.66 156.97,-84.66l1747.09 0c467.5,0 850,382.52 850,850l0 14454.88c0,467.5 -382.5,850 -850,850l-5489.06 0c-467.5,0 -850,-382.5 -850,-850l0 -14454.88c0,-467.5 382.5,-850 850,-850z"/>
  <path class="fil0 str1" d="M-6994.07 4992.91l0 -5985.16c0,-467.49 -382.51,-850 -850,-850l-14454.88 0c-467.48,0 -850,382.5 -850,850l0 1747.09c0,59.58 84.66,108.43 84.66,156.97l0 345.37c0,152.44 131.02,138.52 208.35,138.52 203.48,0 368.44,164.96 368.44,368.44 0,203.48 -164.96,368.44 -368.44,368.44 -77.33,0 -208.35,-19.21 -208.35,149.1l0 331.42c0,48.54 -84.66,96.05 -84.66,153.32l0 1730.39c0,467.5 382.5,850 850,850l14454.88 0c467.5,0 850,-382.5 850,-850 0,-467.5 40.26,-774.73 119.64,-970.52"/>
  <path class="fil0 str1" d="M1056.99 5315.98l1728.48 0c135.01,0 245.48,-110.47 245.48,-245.48l0 -4174.49c0,-135.01 -110.46,-245.48 -245.48,-245.48l-504.54 0c-17.21,0 -31.32,24.45 -45.34,24.45l-99.74 0c-44.02,0 -40,37.84 -40,60.17 0,58.76 -47.64,106.4 -106.41,106.4 -58.76,0 -106.4,-47.64 -106.4,-106.4 0,-22.33 5.55,-60.17 -43.06,-60.17l-95.71 0c-14.02,0 -27.74,-24.45 -44.28,-24.45l-499.72 0c-135.02,0 -245.48,110.46 -245.48,245.48l0 4174.49c0,135.01 110.46,245.48 245.48,245.48 135.01,0 223.73,11.63 280.28,34.55"/>
 </g>
</svg>
