<?xml version="1.0" encoding="UTF-8"?>
<!DOCTYPE svg PUBLIC "-//W3C//DTD SVG 1.1//EN" "http://www.w3.org/Graphics/SVG/1.1/DTD/svg11.dtd">
<!-- Creator: CorelDRAW 2020 (64-Bit) -->
<svg xmlns="http://www.w3.org/2000/svg" xml:space="preserve" width="40mm" height="60mm" version="1.1" style="shape-rendering:geometricPrecision; text-rendering:geometricPrecision; image-rendering:optimizeQuality; fill-rule:evenodd; clip-rule:evenodd"
viewBox="0 0 4000 6000"
 xmlns:xlink="http://www.w3.org/1999/xlink"
 xmlns:xodm="http://www.corel.com/coreldraw/odm/2003">
 <defs>
  <style type="text/css">
   <![CDATA[
    .str1 {stroke:#332C2B;stroke-width:20;stroke-miterlimit:22.9256}
    .str2 {stroke:#332C2B;stroke-width:20;stroke-miterlimit:22.9256}
    .str0 {stroke:#E62129;stroke-width:20;stroke-miterlimit:22.9256}
    .fil0 {fill:none}
   ]]>
  </style>
   <clipPath id="id0">
    <rect x="-42290.58" y="-6240.55" width="13068.04" height="16785.68"/>
   </clipPath>
 </defs>
 <g id="图层_x0020_1">
  <metadata id="CorelCorpID_0Corel-Layer"/>
  <g style="clip-path:url(#id0)">
   <image x="-42290.58" y="-6240.55" width="13068.04" height="16785.68" xlink:href="Nova 10 SE -11i（背膜）_Images\Nova 10 SE -11i（背膜）_ImgID1.png"/>
  </g>
  <rect class="fil0 str0" x="-42050.27" y="-5948.94" width="7550" height="16240"/>
  <rect class="fil0 str0" x="-41971.88" y="-5843.87" width="7393.22" height="16022.51" rx="900" ry="986.4"/>
  <rect class="fil0 str1" x="-41445.23" y="-5447.03" width="2476.5" height="4774.41" rx="1500" ry="1493.79"/>
  <rect class="fil0 str1" x="-38780.12" y="-4413.24" width="340" height="706.45" rx="300" ry="300"/>
  <path class="fil0 str2" d="M-2980.5 5559.65l0 -6082.69c0,-495 -405.01,-900.01 -900,-900.01l-14222.51 0c-494.99,0 -900,405 -900,900.01l0 5593.21c0,495.01 405.01,900 900,900l14222.51 0c495,0 900,-404.99 900,-900 0,-495.01 87.98,-649.35 212.34,-743.28"/>
  <path class="fil0 str2" d="M-18606.17 4205.28c0,681.04 557.21,1238.25 1238.25,1238.25l2297.91 0c681.04,0 1238.25,-557.21 1238.25,-1238.25l0 0c0,-681.04 -557.21,-1238.25 -1238.25,-1238.25l-2297.91 0c-681.04,0 -1238.25,557.21 -1238.25,1238.25 0,681.04 788.49,777.04 851.99,779.68"/>
  <path class="fil0 str2" d="M-17572.38 2608.42c0,93.5 76.5,170 170,170l366.45 0c93.5,0 170,-76.5 170,-170l0 0c0,-93.5 -76.5,-170 -170,-170l-366.45 0c-93.5,0 -170,76.5 -170,170 0,93.5 112.54,126.87 153.22,120.92"/>
  <g id="_1359396123104">
   <path class="fil0 str2" d="M1042.08 5294.2l1760.94 0c143.3,0 260.55,-117.25 260.55,-260.55l0 -4117.43c0,-143.3 -117.25,-260.55 -260.55,-260.55l-1619.24 0c-143.31,0 -260.55,117.25 -260.55,260.55l0 4117.43c0,143.3 117.24,260.55 260.55,260.55 143.31,0 187.99,25.47 215.18,61.47"/>
   <path class="fil0 str2" d="M1434.17 770.55c-197.17,0 -358.48,161.32 -358.48,358.48l0 665.24c0,197.17 161.31,358.48 358.48,358.48l0 0c197.16,0 358.47,-161.31 358.47,-358.48l0 -665.24c0,-197.16 -161.31,-358.48 -358.47,-358.48 -197.17,0 -224.96,228.27 -225.72,246.66"/>
   <path class="fil0 str2" d="M1896.46 1069.84c-27.07,0 -49.22,22.14 -49.22,49.21l0 106.09c0,27.07 22.15,49.21 49.22,49.21l0 0c27.07,0 49.21,-22.14 49.21,-49.21l0 -106.09c0,-27.07 -22.14,-49.21 -49.21,-49.21 -27.07,0 -36.73,32.58 -35.01,44.35"/>
  </g>
 </g>
</svg>
