<?xml version="1.0" encoding="UTF-8"?>
<!DOCTYPE svg PUBLIC "-//W3C//DTD SVG 1.1//EN" "http://www.w3.org/Graphics/SVG/1.1/DTD/svg11.dtd">
<!-- Creator: CorelDRAW X8 -->
<svg xmlns="http://www.w3.org/2000/svg" xml:space="preserve" width="40mm" height="60mm" version="1.1" style="shape-rendering:geometricPrecision; text-rendering:geometricPrecision; image-rendering:optimizeQuality; fill-rule:evenodd; clip-rule:evenodd"
viewBox="0 0 4000 6000"
 xmlns:xlink="http://www.w3.org/1999/xlink">
 <defs>
  <style type="text/css">
   <![CDATA[
    .str0 {stroke:black;stroke-width:7.62}
    .fil0 {fill:none}
   ]]>
  </style>
 </defs>
 <g id="图层_x0020_1">
  <metadata id="CorelCorpID_0Corel-Layer"/>
  <path class="fil0 str0" d="M1642 702c0,-5 -4,-10 -13,-11 -32,0 -58,26 -58,58 0,32 26,57 58,57 31,0 57,-25 57,-57 0,-32 -26,-58 -57,-58m379 11c0,-5 -4,-10 -13,-11 -32,0 -58,26 -58,58 0,32 26,57 58,57 32,0 57,-25 57,-57 0,-32 -25,-58 -57,-58m458 31c-4,-13 -9,-23 -31,-23l-18 0c-26,0 -47,21 -47,47l0 0c0,25 21,46 47,46l90 0c26,0 47,-21 47,-46l0 0c0,-26 -21,-47 -47,-47l-72 0m-1448 4600l1828 0c157,0 286,-129 286,-287l0 -4075c0,-158 -129,-287 -286,-287l-1604 0c-157,0 -286,129 -286,287l0 4075c0,158 129,287 286,287l82 0c117,0 192,21 243,51"/>
 </g>
</svg>
