<?xml version="1.0" encoding="UTF-8"?>
<!DOCTYPE svg PUBLIC "-//W3C//DTD SVG 1.1//EN" "http://www.w3.org/Graphics/SVG/1.1/DTD/svg11.dtd">
<!-- Creator: CorelDRAW X8 -->
<svg xmlns="http://www.w3.org/2000/svg" xml:space="preserve" width="40mm" height="60mm" version="1.1" style="shape-rendering:geometricPrecision; text-rendering:geometricPrecision; image-rendering:optimizeQuality; fill-rule:evenodd; clip-rule:evenodd"
viewBox="0 0 4000 6000"
 xmlns:xlink="http://www.w3.org/1999/xlink">
 <defs>
  <style type="text/css">
   <![CDATA[
    .str0 {stroke:black;stroke-width:7.62}
    .fil0 {fill:none}
   ]]>
  </style>
 </defs>
 <g id="图层_x0020_1">
  <metadata id="CorelCorpID_0Corel-Layer"/>
  <path class="fil0 str0" d="M916 5350l1970 0c138,0 251,-113 251,-251l0 -91 106 0c6,0 12,-6 12,-12l0 -3992c0,-6 -6,-12 -12,-12l-106 0 0 -91c0,-138 -113,-251 -251,-251l-1772 0c-138,0 -251,113 -251,251l0 91 -106 0c-6,0 -12,6 -12,12l0 3992c0,6 6,12 12,12l106 0 0 91c0,138 113,251 251,251l58 0m-375 -2722c-14,4 -25,12 -25,46l0 29c0,16 13,28 28,28l0 0c16,0 28,-12 28,-28l0 -324c0,-16 -12,-28 -28,-28l0 0c-15,0 -28,12 -28,28l0 295m1262 -1666c-1,-10 -10,-19 -28,-21 -65,0 -118,53 -118,119 0,65 53,118 118,118 65,0 118,-53 118,-118 0,-66 -53,-119 -118,-119m26 338c-1,-9 -9,-18 -26,-20 -61,0 -111,50 -111,111 0,61 50,111 111,111 61,0 110,-50 110,-111 0,-61 -49,-111 -110,-111m26 278c-1,-10 -9,-18 -26,-20 -61,0 -111,50 -111,111 0,61 50,111 111,111 61,0 110,-50 110,-111 0,-61 -49,-111 -110,-111m27 254c0,-10 -9,-19 -27,-20 -65,0 -117,52 -117,116 0,65 52,117 117,117 64,0 116,-52 116,-117 0,-64 -52,-116 -116,-116m-2 -871l0 0c100,0 182,82 182,182l0 803c0,99 -82,181 -182,181l0 0c-100,0 -181,-82 -181,-181l0 -803c0,-100 81,-182 181,-182zm0 42l0 0c77,0 139,63 139,140l0 803c0,76 -62,139 -139,139l0 0c-76,0 -139,-63 -139,-139l0 -803c0,-77 63,-140 139,-140zm251 282c-13,4 -22,8 -22,29l0 18c0,24 20,44 45,44l0 0c24,0 44,-20 44,-44l0 -80c0,-24 -20,-44 -44,-44l0 0c-25,0 -45,20 -45,44l0 62m968 1339c-14,4 -26,12 -26,48l0 31c0,16 13,30 29,30l0 0c17,0 30,-14 30,-30l0 -613c0,-16 -13,-29 -30,-29l0 0c-16,0 -29,13 -29,29l0 582m-2384 -1086c-18,5 -32,14 -32,58l0 37c0,19 16,35 36,35l0 0c19,0 35,-16 35,-35l0 -522c0,-20 -16,-36 -35,-36l0 0c-20,0 -36,16 -36,36l0 485"/>
 </g>
</svg>
