<?xml version="1.0" encoding="UTF-8"?>
<!DOCTYPE svg PUBLIC "-//W3C//DTD SVG 1.1//EN" "http://www.w3.org/Graphics/SVG/1.1/DTD/svg11.dtd">
<!-- Creator: CorelDRAW 2020 (64-Bit) -->
<svg xmlns="http://www.w3.org/2000/svg" xml:space="preserve" width="40mm" height="60mm" version="1.1" style="shape-rendering:geometricPrecision; text-rendering:geometricPrecision; image-rendering:optimizeQuality; fill-rule:evenodd; clip-rule:evenodd"
viewBox="0 0 4000 6000"
 xmlns:xlink="http://www.w3.org/1999/xlink"
 xmlns:xodm="http://www.corel.com/coreldraw/odm/2003">
 <defs>
  <style type="text/css">
   <![CDATA[
    .str0 {stroke:black;stroke-width:7.62;stroke-miterlimit:22.9256}
    .fil0 {fill:none}
   ]]>
  </style>
 </defs>
 <g id="图层_x0020_1">
  <metadata id="CorelCorpID_0Corel-Layer"/>
  <path class="fil0 str0" d="M1062.96 5336.34l1750.45 0c121.96,0 221.77,-99.81 221.77,-221.77l0 -4237.13c0,-121.95 -99.79,-221.77 -221.77,-221.77l-441.3 0 -277.47 2.93c-19.39,0.21 -35.21,15.82 -35.21,35.22l0 51.49c0,36.31 -29.71,66.03 -66.03,66.03l0 0c-36.32,0 -66.03,-29.73 -66.03,-66.03l0 -51.49c0,-19.38 -15.82,-35.01 -35.21,-35.22l-271.61 -2.93 -447.16 0c-121.97,0 -221.77,99.79 -221.77,221.77l0 4237.13c0,121.97 99.81,221.77 221.77,221.77l51.65 0c56.38,0 88.65,9.25 98.99,19.33"/>
 </g>
</svg>
