<?xml version="1.0" encoding="UTF-8"?>
<!DOCTYPE svg PUBLIC "-//W3C//DTD SVG 1.1//EN" "http://www.w3.org/Graphics/SVG/1.1/DTD/svg11.dtd">
<!-- Creator: CorelDRAW X8 -->
<svg xmlns="http://www.w3.org/2000/svg" xml:space="preserve" width="40mm" height="60mm" version="1.1" style="shape-rendering:geometricPrecision; text-rendering:geometricPrecision; image-rendering:optimizeQuality; fill-rule:evenodd; clip-rule:evenodd"
viewBox="0 0 4000 6000"
 xmlns:xlink="http://www.w3.org/1999/xlink">
 <defs>
  <style type="text/css">
   <![CDATA[
    .str0 {stroke:black;stroke-width:7.62}
    .fil0 {fill:none}
   ]]>
  </style>
 </defs>
 <g id="图层_x0020_1">
  <metadata id="CorelCorpID_0Corel-Layer"/>
  <path class="fil0 str0" d="M597 5350l2790 0c9,0 16,-7 16,-16l0 -4668c0,-2 0,-4 -1,-6 -20,-3 -39,-4 -60,-4l-313 0c-16,0 -17,1 -12,14l81 224c8,21 -3,44 -24,52l0 0c-20,7 -43,-3 -51,-24l-82 -226c-5,-13 -7,-15 -21,-3 -92,76 -174,252 -177,386l-3 144c0,90 -52,95 -70,95 -35,2 -58,-52 -60,-85l-9 -154c-7,-132 -84,-305 -173,-382 -13,-12 -16,-12 -20,-1l-82 226c-8,21 -31,31 -52,24l0 0c-20,-8 -32,-31 -24,-52l89 -216c9,-21 9,-22 -14,-22l-305 0 -18 0 -297 0c-8,0 -8,0 -6,7l84 231c8,21 -3,44 -24,52l0 0c-20,7 -44,-3 -51,-24l-78 -237c-5,-15 -8,-18 -22,-6 -95,74 -184,264 -187,400l-3 128c-2,105 -50,106 -59,106 -8,0 -61,1 -66,-90l-8 -149c-8,-136 -87,-314 -180,-389 -10,-8 -11,-6 -16,7l-84 230c-7,21 -30,31 -51,24l0 0c-21,-8 -32,-31 -24,-52l87 -238c1,-5 1,-6 -6,-6l-365 0c-9,0 -16,7 -16,16l0 4668c0,9 7,16 16,16l135 0m588 -1174c-1,-3 -4,-6 -10,-7 -22,0 -40,18 -40,40 0,22 18,40 40,40 22,0 40,-18 40,-40 0,-22 -18,-40 -40,-40m624 -582c-2,-7 -5,-13 -18,-13l-10 0c-15,0 -27,13 -27,27l0 0c0,15 12,27 27,27l112 0c15,0 27,-12 27,-27l0 0c0,-14 -12,-27 -27,-27l-102 0m719 602c0,-3 -3,-6 -9,-7 -22,0 -40,18 -40,40 0,22 18,40 40,40 22,0 40,-18 40,-40 0,-22 -18,-40 -40,-40m-692 -458c-2,-7 -5,-13 -18,-13l-10 0c-15,0 -27,12 -27,27l0 0c0,15 12,27 27,27l112 0c15,0 27,-12 27,-27l0 0c0,-15 -12,-27 -27,-27l-102 0m18 139c-2,-8 -5,-13 -18,-13l-10 0c-15,0 -27,12 -27,27l0 0c0,14 12,26 27,26l112 0c15,0 27,-12 27,-26l0 0c0,-15 -12,-27 -27,-27l-102 0m18 139c-2,-8 -5,-13 -18,-13l-10 0c-15,0 -27,12 -27,27l0 0c0,14 12,26 27,26l112 0c15,0 27,-12 27,-26l0 0c0,-15 -12,-27 -27,-27l-102 0"/>
 </g>
</svg>
