<?xml version="1.0" encoding="UTF-8"?>
<!DOCTYPE svg PUBLIC "-//W3C//DTD SVG 1.1//EN" "http://www.w3.org/Graphics/SVG/1.1/DTD/svg11.dtd">
<!-- Creator: CorelDRAW X8 -->
<svg xmlns="http://www.w3.org/2000/svg" xml:space="preserve" width="40mm" height="60mm" version="1.1" style="shape-rendering:geometricPrecision; text-rendering:geometricPrecision; image-rendering:optimizeQuality; fill-rule:evenodd; clip-rule:evenodd"
viewBox="0 0 4000 6000"
 xmlns:xlink="http://www.w3.org/1999/xlink">
 <defs>
  <style type="text/css">
   <![CDATA[
    .str0 {stroke:#332C2B;stroke-width:20}
    .fil0 {fill:none}
   ]]>
  </style>
 </defs>
 <g id="图层_x0020_1">
  <metadata id="CorelCorpID_0Corel-Layer"/>
  <path class="fil0 str0" d="M891 5240l439 0 1500 0c154,0 279,-124 279,-276l0 -4038c0,-152 -125,-276 -279,-276l-495 0c-89,0 -134,21 -165,95 -24,57 -62,81 -109,81 -53,0 -87,-23 -109,-93 -22,-70 -97,-83 -176,-83l-480 0c-153,0 -278,124 -278,276l0 4038c0,152 125,276 278,276 0,0 22,0 27,0 17,0 164,0 162,110"/>
 </g>
</svg>
