<?xml version="1.0" encoding="UTF-8"?>
<!DOCTYPE svg PUBLIC "-//W3C//DTD SVG 1.1//EN" "http://www.w3.org/Graphics/SVG/1.1/DTD/svg11.dtd">
<!-- Creator: CorelDRAW X8 -->
<svg xmlns="http://www.w3.org/2000/svg" xml:space="preserve" width="40mm" height="60mm" version="1.1" style="shape-rendering:geometricPrecision; text-rendering:geometricPrecision; image-rendering:optimizeQuality; fill-rule:evenodd; clip-rule:evenodd"
viewBox="0 0 4000 6000"
 xmlns:xlink="http://www.w3.org/1999/xlink">
 <defs>
  <style type="text/css">
   <![CDATA[
    .str0 {stroke:black;stroke-width:7.62}
    .fil0 {fill:none}
   ]]>
  </style>
 </defs>
 <g id="图层_x0020_1">
  <metadata id="CorelCorpID_0Corel-Layer"/>
  <path class="fil0 str0" d="M983 5350l1856 0c106,0 193,-87 193,-193l0 -4310c0,-169 -47,-193 -193,-193l-836 0 0 1327c0,153 -125,278 -278,278l-757 0 0 2898c0,106 87,193 193,193l252 0m-271 -4700l766 0c13,0 24,11 24,24l0 1322c0,107 -88,196 -196,196l-734 0c-13,0 -23,-11 -23,-24l0 -1355c0,-89 73,-163 163,-163zm216 105c-2,-18 -18,-35 -50,-37 -117,0 -211,94 -211,211 0,116 94,211 211,211 116,0 211,-95 211,-211 0,-117 -95,-211 -211,-211m50 526c-2,-18 -18,-34 -50,-37 -117,0 -211,95 -211,211 0,117 94,211 211,211 116,0 211,-94 211,-211 0,-116 -95,-211 -211,-211m50 535c-2,-18 -18,-35 -50,-37 -117,0 -211,94 -211,211 0,116 94,210 211,210 116,0 211,-94 211,-210 0,-117 -95,-211 -211,-211m494 -388c-1,-12 -11,-23 -33,-25 -78,0 -141,63 -141,141 0,78 63,141 141,141 78,0 141,-63 141,-141 0,-78 -63,-141 -141,-141m33 -493c-1,-12 -11,-23 -33,-25 -78,0 -141,64 -141,141 0,78 63,142 141,142 78,0 141,-64 141,-142 0,-77 -63,-141 -141,-141m17 342c0,-6 -6,-12 -17,-13 -41,0 -74,33 -74,74 0,41 33,75 74,75 41,0 74,-34 74,-75 0,-41 -33,-74 -74,-74"/>
 </g>
</svg>
