<?xml version="1.0" encoding="UTF-8"?>
<!DOCTYPE svg PUBLIC "-//W3C//DTD SVG 1.1//EN" "http://www.w3.org/Graphics/SVG/1.1/DTD/svg11.dtd">
<!-- Creator: CorelDRAW X8 -->
<svg xmlns="http://www.w3.org/2000/svg" xml:space="preserve" width="40mm" height="60mm" version="1.1" style="shape-rendering:geometricPrecision; text-rendering:geometricPrecision; image-rendering:optimizeQuality; fill-rule:evenodd; clip-rule:evenodd"
viewBox="0 0 4000 6000"
 xmlns:xlink="http://www.w3.org/1999/xlink">
 <defs>
  <style type="text/css">
   <![CDATA[
    .str0 {stroke:black;stroke-width:7.62}
    .fil0 {fill:none}
   ]]>
  </style>
 </defs>
 <g id="图层_x0020_1">
  <metadata id="CorelCorpID_0Corel-Layer"/>
  <path class="fil0 str0" d="M1357 738c-1,-4 -5,-9 -13,-9 -29,0 -52,23 -52,52 0,29 23,53 52,53 29,0 53,-24 53,-53 0,-29 -24,-52 -53,-52m596 43c-5,-19 -15,-34 -61,-34l-39 0c-21,0 -38,17 -38,38l0 0c0,20 17,37 38,37l314 0c20,0 37,-17 37,-37l0 0c0,-21 -17,-38 -37,-38l-275 0m-851 4579l1863 0c100,0 182,-82 182,-182l0 -4303c0,-100 -82,-182 -182,-182l-1782 0c-100,0 -182,82 -182,182l0 4303c0,100 82,182 182,182 14,0 43,9 45,33"/>
 </g>
</svg>
