<?xml version="1.0" encoding="UTF-8"?>
<!DOCTYPE svg PUBLIC "-//W3C//DTD SVG 1.1//EN" "http://www.w3.org/Graphics/SVG/1.1/DTD/svg11.dtd">
<!-- Creator: CorelDRAW 2020 (64-Bit) -->
<svg xmlns="http://www.w3.org/2000/svg" xml:space="preserve" width="40mm" height="60mm" version="1.1" style="shape-rendering:geometricPrecision; text-rendering:geometricPrecision; image-rendering:optimizeQuality; fill-rule:evenodd; clip-rule:evenodd"
viewBox="0 0 4000 6000"
 xmlns:xlink="http://www.w3.org/1999/xlink"
 xmlns:xodm="http://www.corel.com/coreldraw/odm/2003">
 <defs>
  <style type="text/css">
   <![CDATA[
    .str0 {stroke:black;stroke-width:7.62;stroke-miterlimit:22.9256}
    .fil0 {fill:none}
   ]]>
  </style>
 </defs>
 <g id="图层_x0020_1">
  <metadata id="CorelCorpID_0Corel-Layer"/>
  <path class="fil0 str0" d="M3094.19 1767.6c-16.27,4.36 -29.2,13.25 -29.2,53.28l0 34.25c0,18 14.72,32.72 32.72,32.72l0.01 0c17.99,0 32.72,-14.72 32.72,-32.72l0 -438.72c0,-18 -14.72,-32.72 -32.72,-32.72l-0.01 0c-18,0 -32.72,14.73 -32.72,32.72l0 404.47m-513.56 -1079.58c1.52,-9.75 -6.67,-16.58 -10.74,-16.89 -14.46,0 -26.18,11.72 -26.18,26.18 0,14.46 11.72,26.18 26.18,26.18 14.46,0 26.18,-11.72 26.18,-26.18 0,-14.46 -11.72,-26.18 -26.18,-26.18m-1177.85 437.38c4.55,-29.23 -20.03,-49.71 -32.23,-50.66 -43.37,0 -78.54,35.17 -78.54,78.55 0,43.37 35.17,78.54 78.54,78.54 43.38,0 78.55,-35.17 78.55,-78.54 0,-43.38 -35.17,-78.55 -78.55,-78.55m309.99 50.66c4.55,-29.23 -20.03,-49.71 -32.23,-50.66 -43.37,0 -78.54,35.17 -78.54,78.55 0,43.37 35.17,78.54 78.54,78.54 43.38,0 78.55,-35.17 78.55,-78.54 0,-43.38 -35.17,-78.55 -78.55,-78.55m-242.91 331.42c4.54,-29.23 -20.04,-49.72 -32.23,-50.66 -43.38,0 -78.54,35.17 -78.54,78.54 0,43.38 35.16,78.55 78.54,78.55 43.38,0 78.55,-35.17 78.55,-78.55 0,-43.37 -35.17,-78.54 -78.55,-78.54m309.99 53.27c4.54,-29.23 -20.03,-49.71 -32.23,-50.65 -43.37,0 -78.54,35.16 -78.54,78.54 0,43.38 35.17,78.54 78.54,78.54 43.38,0 78.55,-35.16 78.55,-78.54 0,-43.38 -35.17,-78.54 -78.55,-78.54m-294.66 -351.91l309.41 0c73.78,0 134.15,60.36 134.15,134.14l0 313.25c0,73.78 -60.37,134.14 -134.15,134.14l-309.41 0c-73.77,0 -134.14,-60.36 -134.14,-134.14l0 -313.25c0,-73.78 60.37,-134.14 134.14,-134.14zm5.2 -28.06l300.86 0c89.77,0 163.22,73.45 163.22,163.22l0 311.7c0,89.78 -73.45,163.22 -163.22,163.22l-300.86 0c-89.77,0 -163.22,-73.44 -163.22,-163.22l0 -311.7c0,-89.77 73.45,-163.22 163.22,-163.22zm-414.66 1125.65c-14.98,4.01 -26.87,12.19 -26.87,49.02l0 31.51c0,16.56 13.55,30.1 30.11,30.1l0 0c16.56,0 30.11,-13.54 30.11,-30.1l0 -492.22c0,-16.56 -13.55,-30.1 -30.11,-30.1l0 0c-16.56,0 -30.11,13.54 -30.11,30.1l0 460.71m4.34 744.03c-13.8,3.7 -23.94,8.73 -23.94,32.42l0 19.65c0,27.36 22.38,49.74 49.74,49.74l0.01 0c27.35,0 49.74,-22.38 49.74,-49.74l0 -377.02c0,-27.36 -22.38,-49.74 -49.74,-49.74l-0.01 0c-27.36,0 -49.74,22.39 -49.74,49.74l0 357.37m588.82 2288.41c-4.37,-16.28 -13.26,-29.21 -53.29,-29.21l-34.25 0c-18,0 -32.72,14.73 -32.72,32.73l0 0c0,17.97 14.72,32.72 32.72,32.72l268.54 0c18,0 32.72,-14.72 32.72,-32.72l0 0c0,-18 -14.75,-32.73 -32.72,-32.73l-234.29 0m573.33 10.25c-3.21,-11.98 -7.58,-20.79 -28.16,-20.79l-17.06 0c-23.76,0 -43.19,19.44 -43.19,43.2l0 0.01c0,23.75 19.43,43.19 43.19,43.19l146.62 0c23.76,0 43.2,-19.44 43.2,-43.19l0 -0.01c0,-23.76 -19.44,-43.2 -43.2,-43.2l-129.56 0m426.64 35.1c1.36,-8.77 -6.01,-14.91 -9.67,-15.2 -13.01,0 -23.56,10.55 -23.56,23.57 0,13.01 10.55,23.56 23.56,23.56 13.02,0 23.57,-10.55 23.57,-23.56 0,-13.02 -10.55,-23.57 -23.57,-23.57m218.93 1.55c3.03,-19.48 -13.35,-33.14 -21.48,-33.77 -28.92,0 -52.36,23.45 -52.36,52.37 0,28.92 23.44,52.36 52.36,52.36 28.92,0 52.36,-23.44 52.36,-52.36 0,-28.92 -23.44,-52.37 -52.36,-52.37m390.88 -4523.89l189.59 0c4.32,0 7.86,3.57 7.86,7.86l0 4645.38c0,4.3 -3.57,7.86 -7.86,7.86l-194.83 0c-4.28,0 -8.5,-3.58 -7.85,-7.86 19.88,-131.65 31.28,-264.17 31.42,-394.98l-2.94 0c-18.29,118.79 -119.84,211.06 -242.68,214.83l0 191.37c0,7.21 -5.89,13.1 -13.09,13.1l-1418.77 0c-7.2,0 -13.09,-5.89 -13.09,-13.1l0 -191.32c-123.39,-3.19 -225.56,-95.69 -243.91,-214.88l-8.16 0c0.41,129.22 11.77,260.06 31.4,390.07 0.65,4.28 -3.57,7.86 -7.85,7.86l-194.83 0c-4.29,0 -7.86,-3.57 -7.86,-7.86l0 -4645.39c0,-4.28 3.54,-7.86 7.86,-7.86l189.59 0c4.32,0 8.2,3.56 7.85,7.86 -10.4,127.52 -25.37,254.64 -26.14,381.95l9.88 0c22.35,-114.37 122.23,-201.86 242.17,-204.96l0 -189.28c0,-7.21 5.89,-13.09 13.09,-13.09l1418.77 0c7.2,0 13.09,5.88 13.09,13.09l0 189.33c119.39,3.66 218.67,90.94 240.94,204.91l4.61 0c-1.13,-125.66 -15.84,-251.15 -26.11,-377.03 -0.35,-4.31 3.53,-7.86 7.85,-7.86z"/>
 </g>
</svg>
