<?xml version="1.0" encoding="UTF-8"?>
<!DOCTYPE svg PUBLIC "-//W3C//DTD SVG 1.1//EN" "http://www.w3.org/Graphics/SVG/1.1/DTD/svg11.dtd">
<!-- Creator: CorelDRAW X8 -->
<svg xmlns="http://www.w3.org/2000/svg" xml:space="preserve" width="40mm" height="60mm" version="1.1" style="shape-rendering:geometricPrecision; text-rendering:geometricPrecision; image-rendering:optimizeQuality; fill-rule:evenodd; clip-rule:evenodd"
viewBox="0 0 4000 6000"
 xmlns:xlink="http://www.w3.org/1999/xlink">
 <defs>
  <style type="text/css">
   <![CDATA[
    .str0 {stroke:black;stroke-width:7.62}
    .fil0 {fill:none}
   ]]>
  </style>
 </defs>
 <g id="图层_x0020_1">
  <metadata id="CorelCorpID_0Corel-Layer"/>
  <path class="fil0 str0" d="M1957 3069c0,-8 0,-85 0,-85 0,-367 -298,-665 -665,-665 -368,0 -665,298 -665,665 0,367 297,665 665,665 367,0 665,-298 665,-665 0,0 0,0 0,0m1416 85c0,-8 0,-85 0,-85 0,-367 -298,-665 -665,-665 -367,0 -665,298 -665,665 0,367 298,665 665,665 368,0 665,-298 665,-665 0,0 0,0 0,0m-1416 1786c0,-8 0,-85 0,-85 0,-367 -298,-665 -665,-665 -368,0 -665,298 -665,665 0,367 297,665 665,665 367,0 665,-298 665,-665 0,0 0,0 0,0m1416 85c0,-8 0,-85 0,-85 0,-367 -298,-665 -665,-665 -367,0 -665,298 -665,665 0,367 298,665 665,665 368,0 665,-298 665,-665 0,0 0,0 0,0m-1416 -3285c0,-8 0,-85 0,-85 0,-367 -298,-665 -665,-665 -368,0 -665,298 -665,665 0,367 297,665 665,665 367,0 665,-298 665,-665 0,0 0,0 0,0m1416 85c0,-8 0,-85 0,-85 0,-367 -298,-665 -665,-665 -367,0 -665,298 -665,665 0,367 298,665 665,665 368,0 665,-298 665,-665 0,0 0,0 0,0"/>
 </g>
</svg>
