<?xml version="1.0" encoding="UTF-8"?>
<!DOCTYPE svg PUBLIC "-//W3C//DTD SVG 1.1//EN" "http://www.w3.org/Graphics/SVG/1.1/DTD/svg11.dtd">
<!-- Creator: CorelDRAW 2020 (64-Bit) -->
<svg xmlns="http://www.w3.org/2000/svg" xml:space="preserve" width="40mm" height="60mm" version="1.1" style="shape-rendering:geometricPrecision; text-rendering:geometricPrecision; image-rendering:optimizeQuality; fill-rule:evenodd; clip-rule:evenodd"
viewBox="0 0 4000 6000"
 xmlns:xlink="http://www.w3.org/1999/xlink"
 xmlns:xodm="http://www.corel.com/coreldraw/odm/2003">
 <defs>
  <style type="text/css">
   <![CDATA[
    .str0 {stroke:#332C2B;stroke-width:7.62;stroke-miterlimit:22.9256}
    .fil0 {fill:none}
   ]]>
  </style>
 </defs>
 <g id="图层_x0020_1">
  <metadata id="CorelCorpID_0Corel-Layer"/>
  <path class="fil0 str0" d="M2161.91 994.75c0,6.17 0,218.19 0,218.22 0.16,307.43 249.47,556.59 556.95,556.59 307.59,0 556.95,-249.35 556.95,-556.94 0,-307.6 -249.36,-556.95 -556.95,-556.95 -307.59,0 -556.95,249.35 -556.95,556.95 0,0.05 0,0.11 0,0.17m-1450.92 -218.04c0,6.17 0,218.19 0,218.22 0.16,307.43 249.47,556.59 556.95,556.59 307.59,0 556.95,-249.35 556.95,-556.94 0,-307.6 -249.36,-556.95 -556.95,-556.95 -307.6,0 -556.95,249.35 -556.95,556.95 0,0.05 0,0.11 0,0.17m1450.92 1558.05c0,6.18 0,218.19 0,218.22 0.16,307.44 249.47,556.6 556.95,556.6 307.59,0 556.95,-249.35 556.95,-556.95 0,-307.6 -249.36,-556.95 -556.95,-556.95 -307.59,0 -556.95,249.35 -556.95,556.95 0,0.06 0,0.12 0,0.18m-1450.92 -218.05c0,6.18 0,218.19 0,218.22 0.16,307.44 249.47,556.6 556.95,556.6 307.59,0 556.95,-249.35 556.95,-556.95 0,-307.6 -249.36,-556.95 -556.95,-556.95 -307.6,0 -556.95,249.35 -556.95,556.95 0,0.06 0,0.12 0,0.18m1450.92 1591.96c0,6.18 0,218.19 0,218.22 0.16,307.44 249.47,556.6 556.95,556.6 307.59,0 556.95,-249.35 556.95,-556.95 0,-307.6 -249.36,-556.95 -556.95,-556.95 -307.59,0 -556.95,249.35 -556.95,556.95 0,0.06 0,0.12 0,0.18m-1450.92 -218.05c0,6.18 0,218.19 0,218.22 0.16,307.44 249.47,556.6 556.95,556.6 307.59,0 556.95,-249.35 556.95,-556.95 0,-307.6 -249.36,-556.95 -556.95,-556.95 -307.6,0 -556.95,249.35 -556.95,556.95 0,0.06 0,0.12 0,0.18"/>
 </g>
</svg>
