<?xml version="1.0" encoding="UTF-8"?>
<!DOCTYPE svg PUBLIC "-//W3C//DTD SVG 1.1//EN" "http://www.w3.org/Graphics/SVG/1.1/DTD/svg11.dtd">
<!-- Creator: CorelDRAW X8 -->
<svg xmlns="http://www.w3.org/2000/svg" xml:space="preserve" width="40mm" height="60mm" version="1.1" style="shape-rendering:geometricPrecision; text-rendering:geometricPrecision; image-rendering:optimizeQuality; fill-rule:evenodd; clip-rule:evenodd"
viewBox="0 0 4000 6000"
 xmlns:xlink="http://www.w3.org/1999/xlink">
 <defs>
  <style type="text/css">
   <![CDATA[
    .str0 {stroke:black;stroke-width:7.62}
    .fil0 {fill:none}
   ]]>
  </style>
 </defs>
 <g id="图层_x0020_1">
  <metadata id="CorelCorpID_0Corel-Layer"/>
  <path class="fil0 str0" d="M911 5350l2002 0c114,0 206,-93 206,-206l0 -4288c0,-113 -92,-206 -206,-206l-1826 0c-114,0 -206,93 -206,206l0 4288c0,113 92,206 206,206l190 0m1139 -4621c0,-6 -5,-11 -15,-12 -35,0 -63,29 -63,64 0,35 28,63 63,63 35,0 64,-28 64,-63 0,-35 -29,-64 -64,-64m-488 60c-4,-15 -13,-28 -51,-28l-34 0c-17,0 -31,14 -31,32l0 0c0,17 14,32 31,32l355 0c17,0 32,-15 32,-32l0 0c0,-18 -15,-32 -32,-32l-321 0m-241 14c-2,-9 -5,-15 -20,-15l-13 0c-17,0 -32,14 -32,31l0 0c0,18 15,32 32,32l64 0c17,0 31,-14 31,-32l0 0c0,-17 -14,-31 -31,-31l-51 0m407 4344c-9,-36 -22,-63 -84,-63l-52 0c-71,0 -130,59 -130,130l0 0c0,72 59,131 130,131l261 0c71,0 130,-59 130,-131l0 0c0,-71 -59,-130 -130,-130l-209 0"/>
 </g>
</svg>
