<?xml version="1.0" encoding="UTF-8"?>
<!DOCTYPE svg PUBLIC "-//W3C//DTD SVG 1.1//EN" "http://www.w3.org/Graphics/SVG/1.1/DTD/svg11.dtd">
<!-- Creator: CorelDRAW X8 -->
<svg xmlns="http://www.w3.org/2000/svg" xml:space="preserve" width="40mm" height="60mm" version="1.1" style="shape-rendering:geometricPrecision; text-rendering:geometricPrecision; image-rendering:optimizeQuality; fill-rule:evenodd; clip-rule:evenodd"
viewBox="0 0 4000 6000"
 xmlns:xlink="http://www.w3.org/1999/xlink">
 <defs>
  <style type="text/css">
   <![CDATA[
    .str0 {stroke:black;stroke-width:20}
    .fil0 {fill:none}
   ]]>
  </style>
 </defs>
 <g id="图层_x0020_1">
  <metadata id="CorelCorpID_0Corel-Layer"/>
  <path class="fil0 str0" d="M903 5350l2084 0c75,0 135,-61 135,-135l0 -4430c0,-74 -60,-135 -135,-135l-1974 0c-75,0 -135,61 -135,135l0 4430c0,74 60,135 135,135l192 0m662 -367l299 0c75,0 136,61 136,136l0 0c0,75 -61,136 -136,136l-299 0c-75,0 -136,-61 -136,-136l0 0c0,-75 61,-136 136,-136zm-298 -4288c33,0 59,26 59,59 0,33 -26,60 -59,60 -33,0 -60,-27 -60,-60 0,-33 27,-59 60,-59zm1248 61c29,0 51,23 51,51 0,28 -22,51 -51,51 -28,0 -51,-23 -51,-51 0,-28 23,-51 51,-51zm-1084 20c17,0 30,14 30,31 0,17 -13,30 -30,30 -17,0 -31,-13 -31,-30 0,-17 14,-31 31,-31zm543 -15l81 0c24,0 44,20 44,44l0 0c0,25 -20,45 -44,45l-81 0c-25,0 -45,-20 -45,-45l0 0c0,-24 20,-44 45,-44zm-411 12l289 0c19,0 34,15 34,34l0 0c0,19 -15,34 -34,34l-289 0c-18,0 -34,-15 -34,-34l0 0c0,-19 16,-34 34,-34z"/>
 </g>
</svg>
