<?xml version="1.0" encoding="UTF-8"?>
<!DOCTYPE svg PUBLIC "-//W3C//DTD SVG 1.1//EN" "http://www.w3.org/Graphics/SVG/1.1/DTD/svg11.dtd">
<!-- Creator: CorelDRAW 2020 (64-Bit) -->
<svg xmlns="http://www.w3.org/2000/svg" xml:space="preserve" width="40mm" height="60mm" version="1.1" style="shape-rendering:geometricPrecision; text-rendering:geometricPrecision; image-rendering:optimizeQuality; fill-rule:evenodd; clip-rule:evenodd"
viewBox="0 0 4000 6000"
 xmlns:xlink="http://www.w3.org/1999/xlink"
 xmlns:xodm="http://www.corel.com/coreldraw/odm/2003">
 <defs>
  <style type="text/css">
   <![CDATA[
    .str0 {stroke:black;stroke-width:7.62;stroke-miterlimit:22.9256}
    .fil0 {fill:none}
   ]]>
  </style>
 </defs>
 <g id="图层_x0020_1">
  <metadata id="CorelCorpID_0Corel-Layer"/>
  <path class="fil0 str0" d="M1247.91 914.23c5.4,-34.79 -23.84,-59.16 -38.35,-60.29 -51.63,0 -93.47,41.85 -93.47,93.48 0,51.62 41.84,93.47 93.47,93.47 51.62,0 93.47,-41.85 93.47,-93.47 0,-51.63 -41.85,-93.48 -93.47,-93.48m355.34 70.82c4.16,-26.75 -18.34,-45.51 -29.5,-46.37 -39.71,0 -71.9,32.19 -71.9,71.9 0,39.71 32.19,71.9 71.9,71.9 39.71,0 71.9,-32.19 71.9,-71.9 0,-39.71 -32.19,-71.9 -71.9,-71.9m-287.49 413.89c5.4,-34.78 -23.84,-59.16 -38.35,-60.28 -51.63,0 -93.47,41.84 -93.47,93.47 0,51.62 41.84,93.47 93.47,93.47 51.62,0 93.47,-41.85 93.47,-93.47 0,-51.63 -41.85,-93.47 -93.47,-93.47m355.34 67.94c4.16,-26.76 -18.34,-45.51 -29.5,-46.37 -39.71,0 -71.9,32.19 -71.9,71.9 0,39.71 32.19,71.9 71.9,71.9 39.71,0 71.9,-32.19 71.9,-71.9 0,-39.71 -32.19,-71.9 -71.9,-71.9m-350.37 -417.02l386.22 0c62.9,0 114.36,51.46 114.36,114.37l0 378.61c0,62.9 -51.46,114.36 -114.36,114.36l-386.22 0c-62.91,0 -114.37,-51.46 -114.37,-114.36l0 -378.61c0,-62.91 51.46,-114.37 114.37,-114.37zm-121.79 568.28c17.86,34.04 75.64,61.49 109.5,61.49l406.51 0c45.03,0 90.12,-26.83 109.44,-67.68 0.58,-1.23 1.9,-1.87 3.23,-1.58 1.33,0.3 2.25,1.45 2.25,2.81l0 157.82c0,1.37 -0.93,2.52 -2.27,2.81 -1.34,0.29 -2.67,-0.38 -3.23,-1.63 -16.78,-37.51 -56.65,-63.93 -99.91,-63.93l-425.53 0c-42.2,0 -82.82,25.59 -99.91,63.88 -0.55,1.26 -1.88,1.93 -3.22,1.64 -1.34,-0.28 -2.28,-1.44 -2.28,-2.81l0 -151.49c0,-1.34 0.89,-2.47 2.19,-2.79 1.3,-0.32 2.61,0.27 3.23,1.46zm191.57 193.76c5.41,-34.78 -23.84,-59.16 -38.35,-60.28 -51.63,0 -93.47,41.84 -93.47,93.47 0,51.62 41.84,93.47 93.47,93.47 51.62,0 93.47,-41.85 93.47,-93.47 0,-51.63 -41.85,-93.47 -93.47,-93.47m-39.64 -21.69l400.75 0c57.82,0 105.12,47.3 105.12,105.12l0 20.89c0,57.82 -47.3,105.12 -105.12,105.12l-400.75 0c-57.82,0 -105.12,-47.3 -105.12,-105.12l0 -20.89c0,-57.82 47.3,-105.12 105.12,-105.12zm-2.05 -715.42l401.53 0c78.14,0 142.06,63.92 142.06,142.05l0 703.11c0,78.13 -63.92,142.06 -142.06,142.06l-401.53 0c-78.13,0 -142.06,-63.93 -142.06,-142.06l0 -703.11c0,-78.13 63.93,-142.05 142.06,-142.05zm-133.26 4528.02l1780.97 0c125.32,0 227.86,-102.54 227.86,-227.86l0 -4217.84c0,-125.32 -102.53,-227.85 -227.86,-227.85l-1658.16 0c-125.33,0 -227.86,102.53 -227.86,227.85l0 4217.84c0,125.32 102.53,227.86 227.86,227.86l21.53 0c59.1,0 90.89,10.24 104.63,26.45"/>
 </g>
</svg>
