<?xml version="1.0" encoding="UTF-8"?>
<!DOCTYPE svg PUBLIC "-//W3C//DTD SVG 1.1//EN" "http://www.w3.org/Graphics/SVG/1.1/DTD/svg11.dtd">
<!-- Creator: CorelDRAW X8 -->
<svg xmlns="http://www.w3.org/2000/svg" xml:space="preserve" width="40mm" height="60mm" version="1.1" style="shape-rendering:geometricPrecision; text-rendering:geometricPrecision; image-rendering:optimizeQuality; fill-rule:evenodd; clip-rule:evenodd"
viewBox="0 0 4000 6000"
 xmlns:xlink="http://www.w3.org/1999/xlink">
 <defs>
  <style type="text/css">
   <![CDATA[
    .str0 {stroke:black;stroke-width:7.62}
    .fil0 {fill:none}
   ]]>
  </style>
 </defs>
 <g id="图层_x0020_1">
  <metadata id="CorelCorpID_0Corel-Layer"/>
  <path class="fil0 str0" d="M1740 761c0,-4 -4,-8 -11,-8 -27,0 -48,21 -48,47 0,26 21,48 48,48 26,0 47,-22 47,-48 0,-26 -21,-47 -47,-47m230 41c-5,-18 -15,-33 -59,-33l-38 0c-20,0 -37,17 -37,37l0 0c0,20 17,36 37,36l275 0c20,0 37,-16 37,-36l0 0c0,-20 -17,-37 -37,-37l-237 0m-841 4547l1702 0c157,0 285,-128 285,-284l0 -4090c0,-156 -128,-284 -285,-284l-1522 0c-157,0 -285,128 -285,284l0 4090c0,156 128,284 285,284l48 0c46,0 94,12 122,42"/>
 </g>
</svg>
