<?xml version="1.0" encoding="UTF-8"?>
<!DOCTYPE svg PUBLIC "-//W3C//DTD SVG 1.1//EN" "http://www.w3.org/Graphics/SVG/1.1/DTD/svg11.dtd">
<!-- Creator: CorelDRAW X8 -->
<svg xmlns="http://www.w3.org/2000/svg" xml:space="preserve" width="40mm" height="60mm" version="1.1" style="shape-rendering:geometricPrecision; text-rendering:geometricPrecision; image-rendering:optimizeQuality; fill-rule:evenodd; clip-rule:evenodd"
viewBox="0 0 4000 6000"
 xmlns:xlink="http://www.w3.org/1999/xlink">
 <defs>
  <style type="text/css">
   <![CDATA[
    .str0 {stroke:#332C2B;stroke-width:19.4}
    .fil0 {fill:none;fill-rule:nonzero}
   ]]>
  </style>
 </defs>
 <g id="图层_x0020_1">
  <metadata id="CorelCorpID_0Corel-Layer"/>
  <path class="fil0 str0" d="M3074 651l0 35m-211 106l0 11m0 0c-4,-1 -5,-1 -9,-4 -1,-5 -2,-7 -2,-11m0 0l3 -5 0 0m0 0c-5,-1 -5,-1 -36,-6m0 0l0 0 0 -3 0 6 -10 3m0 0c0,1 1,3 3,6 -11,11 -17,27 -17,43 0,38 31,68 68,68 38,0 68,-30 68,-69 0,-36 -30,-67 -65,-67 -17,0 -29,4 -55,21m0 0l0 1 0 1 1 1 -7 6 1 0 0 1 1 0 -11 15m-1873 4479l-7 9 4 1 3 1 3 0 8 -6 1 -5 1932 0m0 0c69,-3 115,-27 161,-87 38,-49 46,-75 46,-147m0 0l9 -3406m0 0c2,-580 0,-795 -9,-826 -24,-93 -71,-144 -150,-167 -23,-6 -65,-7 -925,-5m0 0l-864 1m0 0c-60,1 -73,3 -101,16 -59,27 -93,71 -113,144 -4,13 -4,19 -4,69m0 0l4 4179 -1 45m0 0c0,76 81,164 167,181m0 0l9 2m0 0c25,5 25,5 38,10m0 0l5 2 0 1 -2 1 0 1 -1 2 20 45"/>
 </g>
</svg>
