<?xml version="1.0" encoding="UTF-8"?>
<!DOCTYPE svg PUBLIC "-//W3C//DTD SVG 1.1//EN" "http://www.w3.org/Graphics/SVG/1.1/DTD/svg11.dtd">
<!-- Creator: CorelDRAW 2020 (64-Bit) -->
<svg xmlns="http://www.w3.org/2000/svg" xml:space="preserve" width="40mm" height="60mm" version="1.1" style="shape-rendering:geometricPrecision; text-rendering:geometricPrecision; image-rendering:optimizeQuality; fill-rule:evenodd; clip-rule:evenodd"
viewBox="0 0 4000 6000"
 xmlns:xlink="http://www.w3.org/1999/xlink"
 xmlns:xodm="http://www.corel.com/coreldraw/odm/2003">
 <defs>
  <style type="text/css">
   <![CDATA[
    .str0 {stroke:black;stroke-width:7.62;stroke-miterlimit:22.9256}
    .fil0 {fill:none}
   ]]>
  </style>
 </defs>
 <g id="图层_x0020_1">
  <metadata id="CorelCorpID_0Corel-Layer"/>
  <path class="fil0 str0" d="M542.35 5330.75l2819.02 0c85.35,0 155.19,-69.84 155.19,-155.19l0 -4370.37c0,-85.34 -69.84,-155.19 -155.19,-155.19l-1320.35 0c-9.24,0 -13.69,3.47 -13.69,14.56l0 25.25c0,20.59 -16.85,37.44 -37.44,37.44l0 0c-20.6,0 -37.45,-16.87 -37.45,-37.44l0 -23.39c0,-14.32 -6.62,-16.42 -17.46,-16.42l-1296.35 0c-85.35,0 -155.19,69.84 -155.19,155.19l0 4370.37c0,85.36 69.84,155.19 155.19,155.19l19.89 0c46.64,0 74.74,6.76 85.2,19.25"/>
 </g>
</svg>
