<?xml version="1.0" encoding="UTF-8"?>
<!DOCTYPE svg PUBLIC "-//W3C//DTD SVG 1.1//EN" "http://www.w3.org/Graphics/SVG/1.1/DTD/svg11.dtd">
<!-- Creator: CorelDRAW X8 -->
<svg xmlns="http://www.w3.org/2000/svg" xml:space="preserve" width="40mm" height="60mm" version="1.1" style="shape-rendering:geometricPrecision; text-rendering:geometricPrecision; image-rendering:optimizeQuality; fill-rule:evenodd; clip-rule:evenodd"
viewBox="0 0 4000 6000"
 xmlns:xlink="http://www.w3.org/1999/xlink">
 <defs>
  <style type="text/css">
   <![CDATA[
    .str0 {stroke:black;stroke-width:10}
    .fil0 {fill:none}
   ]]>
  </style>
 </defs>
 <g id="图层_x0020_1">
  <metadata id="CorelCorpID_0Corel-Layer"/>
  <path class="fil0 str0" d="M1433 738c-1,-5 -5,-10 -14,-10 -32,0 -57,25 -57,57 0,32 25,57 57,57 32,0 57,-25 57,-57 0,-32 -25,-57 -57,-57m521 54c-5,-19 -15,-34 -61,-34l-43 0c-21,0 -38,17 -38,38l0 0c0,21 17,38 38,38l350 0c21,0 38,-17 38,-38l0 0c0,-21 -17,-38 -38,-38l-307 0m698 -10c0,-5 -4,-10 -13,-10 -32,0 -58,25 -58,57 0,32 26,57 58,57 31,0 57,-25 57,-57 0,-32 -26,-57 -57,-57m-1546 4588l1818 0c144,0 261,-117 261,-261l0 -4145c0,-143 -117,-260 -261,-260l-1672 0c-144,0 -261,117 -261,260l0 4145c0,144 117,261 261,261l76 0c90,0 153,13 186,34"/>
 </g>
</svg>
