<?xml version="1.0" encoding="UTF-8"?>
<!DOCTYPE svg PUBLIC "-//W3C//DTD SVG 1.1//EN" "http://www.w3.org/Graphics/SVG/1.1/DTD/svg11.dtd">
<!-- Creator: CorelDRAW -->
<svg xmlns="http://www.w3.org/2000/svg" xml:space="preserve" width="40mm" height="60mm" style="shape-rendering:geometricPrecision; text-rendering:geometricPrecision; image-rendering:optimizeQuality; fill-rule:evenodd; clip-rule:evenodd"
viewBox="0 0 40 60"
 xmlns:xlink="http://www.w3.org/1999/xlink">
 <defs>
  <style type="text/css">
   <![CDATA[
    .str0 {stroke:#1F1A17;stroke-width:0.194}
    .fil0 {fill:none;fill-rule:nonzero}
   ]]>
  </style>
 </defs>
 <g id="图层_x0020_9">
  <metadata id="CorelCorpID_0Corel-Layer"/>
  <path class="fil0 str0" d="M28.6323 53.4733l-17.0231 0.0267c-0.0401,-0.0066 -0.0856,-0.0111 -0.1368,-0.0155 -0.9218,-0.0745 -1.3098,-0.2224 -1.7434,-0.6661 -0.2647,-0.2713 -0.5582,-0.7983 -0.6027,-1.083m19.506 1.7379c1.0719,-0.0355 1.8535,-0.6549 2.1716,-1.7178 0.0289,-0.0979 0.0333,-0.1946 0.0356,-0.635m0 0l0.0589 -21.1238m0 0c0.0189,-7.0395 0.0155,-14.0789 -0.01,-21.1172m0 0l-0.0011 -0.03m0 0c-0.02,-0.4415 -0.02,-0.4415 -0.1657,-0.8251m0 0l-0.0089 -0.0256m0 0c-0.3036,-0.8039 -0.9985,-1.3631 -1.8046,-1.4521 -0.1902,-0.0211 -0.6483,-0.0345 -1.1286,-0.0345m0 0l-0.0734 0m0 0c-1.242,-0.0011 -1.242,-0.0011 -1.2487,0.8773m0 0l-0.0011 0.0523m0 0c-0.0111,0.3513 -0.1534,0.6093 -0.4414,0.8028l-0.04 0.0289c-0.1145,0.0923 -0.1145,0.0923 -3.2001,0.0845l-0.974 -0.0023c-2.2571,-0.0055 -1.6923,-0.0022 -3.9494,-0.0244 -0.278,-0.0211 -0.3491,-0.0623 -0.5382,-0.3102 -0.1768,-0.2302 -0.1923,-0.3002 -0.1957,-0.8584l0 -0.1023c-0.0033,-0.5604 -0.0033,-0.5604 -2.4372,-0.5604m0 0l-0.4459 0m0 0c-3.4447,0.0011 -3.5426,0.01 -4.0785,0.3458 -0.5381,0.338 -1.0118,1.034 -1.0541,1.5478m0 0l-0.0122 0.4881 0.0367 42.8537"/>
 </g>
</svg>
