<?xml version="1.0" encoding="UTF-8"?>
<!DOCTYPE svg PUBLIC "-//W3C//DTD SVG 1.1//EN" "http://www.w3.org/Graphics/SVG/1.1/DTD/svg11.dtd">
<!-- Creator: CorelDRAW X8 -->
<svg xmlns="http://www.w3.org/2000/svg" xml:space="preserve" width="40mm" height="60mm" version="1.1" style="shape-rendering:geometricPrecision; text-rendering:geometricPrecision; image-rendering:optimizeQuality; fill-rule:evenodd; clip-rule:evenodd"
viewBox="0 0 4000 6000"
 xmlns:xlink="http://www.w3.org/1999/xlink">
 <defs>
  <style type="text/css">
   <![CDATA[
    .str0 {stroke:black;stroke-width:7.62}
    .fil0 {fill:none}
   ]]>
  </style>
 </defs>
 <g id="图层_x0020_1">
  <metadata id="CorelCorpID_0Corel-Layer"/>
  <path class="fil0 str0" d="M942 5193l0 -4300c0,-42 45,-83 85,-95 290,-87 643,-148 973,-148 329,0 700,49 989,134 40,12 69,21 69,92l-19 4270c0,65 -33,65 -76,76 -321,86 -624,134 -962,127 -338,-6 -689,-64 -983,-166 -39,-14 -76,-35 -76,-76l0 -166m1659 -4167c-1,-5 -6,-11 -16,-12 -38,0 -69,31 -69,69 0,38 31,68 69,68 37,0 68,-30 68,-68 0,-38 -31,-69 -68,-69m-629 57c-5,-17 -15,-31 -57,-31l-37 0c-19,0 -35,16 -35,35l0 0c0,19 16,35 35,35l323 0c19,0 35,-16 35,-35l0 0c0,-19 -16,-35 -35,-35l-286 0m-356 38c-3,-11 -7,-19 -25,-19l-15 0c-21,0 -38,18 -38,39l0 0c0,20 17,38 38,38l76 0c21,0 38,-18 38,-38l0 0c0,-21 -17,-39 -38,-39l-61 0m-189 17c-3,-10 -7,-18 -25,-18l-15 0c-21,0 -38,17 -38,38l0 0c0,21 17,38 38,38l89 0c20,0 38,-17 38,-38l0 0c0,-21 -18,-38 -38,-38l-74 0"/>
 </g>
</svg>
