<?xml version="1.0" encoding="UTF-8"?>
<!DOCTYPE svg PUBLIC "-//W3C//DTD SVG 1.1//EN" "http://www.w3.org/Graphics/SVG/1.1/DTD/svg11.dtd">
<!-- Creator: CorelDRAW -->
<svg xmlns="http://www.w3.org/2000/svg" xml:space="preserve" width="40mm" height="60mm" style="shape-rendering:geometricPrecision; text-rendering:geometricPrecision; image-rendering:optimizeQuality; fill-rule:evenodd; clip-rule:evenodd"
viewBox="0 0 40 60"
 xmlns:xlink="http://www.w3.org/1999/xlink">
 <defs>
  <style type="text/css">
   <![CDATA[
    .str0 {stroke:#1F1A17;stroke-width:0.194}
    .fil0 {fill:none;fill-rule:nonzero}
   ]]>
  </style>
 </defs>
 <g id="图层_x0020_1">
  <metadata id="CorelCorpID_0Corel-Layer"/>
  <path class="fil0 str0" d="M12.9178 18.0414l0 0.09 0 -0.0074 -0.0222 0 0.0074 0m-1.4484 34.7979c0.4267,0.0212 0.522,0.1154 0.5855,0.5781m-0.5929 -0.5781l0 -0.0074 0.0148 0 -0.0074 0 0 0.0074m-2.4235 -2.1058c-0.001,0.0105 -0.0021,0.0233 -0.0021,0.037 0,0.2764 0.2689,0.8978 0.5251,1.2112 0.4585,0.5612 1.045,0.828 1.8931,0.8576m-2.4298 -44.2652l0.0476 41.756 -0.0339 0.4034m2.0826 -44.3129c-0.5336,0.0423 -1.1975,0.4044 -1.5596,0.8502 -0.2805,0.3451 -0.5272,0.9433 -0.5367,1.3033m19.734 -2.1567l-17.6377 0.0032m19.8579 21.6429c0.0159,-6.3821 0.0148,-12.7642 -0.0042,-19.1464 -0.0392,-0.7263 -0.3028,-1.3753 -0.7348,-1.8094 -0.3864,-0.3875 -1.0079,-0.6776 -1.4812,-0.6903m2.163 44.2631l0.0572 -22.617m-2.2382 24.7726c1.1011,-0.0561 2.1535,-1.0958 2.181,-2.1556m-21.3878 2.1588l0 0.09 0.0826 -0.0445 0.0032 -0.0127 0.0116 -0.0402 19.1094 0.0042m-14.8161 -41.4955c-0.0011,0.7422 -0.0022,0.5569 0.0053,1.298m-0.0021 -3.2842l-0.0032 1.9862m-2.9105 -2.9073c0.1408,-0.5368 0.8067,-1.0037 1.4314,-1.0037 0.559,0 1.1022,0.3779 1.3594,0.9465 0.1123,0.2488 0.1239,0.343 0.1229,0.9783m-2.9137 -0.9211l-0.0424 0.1598 -0.001 0.0032 -0.0361 6.6098m2.9794 -0.6427c-0.0021,0.3558 -0.0064,0.5199 -0.0159,0.6353 -0.0159,0.2064 -0.0477,0.2837 -0.234,0.5812 -0.2731,0.4373 -0.7326,0.6935 -1.2387,0.6935 -0.7253,0 -1.3531,-0.5336 -1.4908,-1.2673m2.9953 -2.8375l-0.0149 0.0826 -0.0074 0 0.0223 0 -0.0159 2.1122m-1.0037 3.478c-0.0625,0.2753 -0.2403,0.4277 -0.4966,0.4277 -0.2879,0 -0.5145,-0.2265 -0.5145,-0.5135 0,-0.2837 0.2318,-0.5156 0.5166,-0.5156 0.288,0 0.5157,0.234 0.504,0.5177 -0.0032,0.0689 -0.0127,0.1207 -0.055,0.2859"/>
 </g>
</svg>
