<?xml version="1.0" encoding="UTF-8"?>
<!DOCTYPE svg PUBLIC "-//W3C//DTD SVG 1.1//EN" "http://www.w3.org/Graphics/SVG/1.1/DTD/svg11.dtd">
<!-- Creator: CorelDRAW 2020 (64-Bit) -->
<svg xmlns="http://www.w3.org/2000/svg" xml:space="preserve" width="40mm" height="60mm" version="1.1" style="shape-rendering:geometricPrecision; text-rendering:geometricPrecision; image-rendering:optimizeQuality; fill-rule:evenodd; clip-rule:evenodd"
viewBox="0 0 4000 6000"
 xmlns:xlink="http://www.w3.org/1999/xlink"
 xmlns:xodm="http://www.corel.com/coreldraw/odm/2003">
 <defs>
  <style type="text/css">
   <![CDATA[
    .str0 {stroke:black;stroke-width:7.62;stroke-miterlimit:22.9256}
    .fil0 {fill:none}
   ]]>
  </style>
 </defs>
 <g id="图层_x0020_1">
  <metadata id="CorelCorpID_0Corel-Layer"/>
  <path class="fil0 str0" d="M1620.87 795.13c2.53,-16.25 -11.13,-27.64 -17.91,-28.16 -24.11,0 -43.66,19.55 -43.66,43.66 0,24.11 19.55,43.66 43.66,43.66 24.11,0 43.66,-19.55 43.66,-43.66 0,-24.11 -19.55,-43.66 -43.66,-43.66m319.32 37.84c-6.03,-22.52 -18.34,-40.4 -73.72,-40.4l-47.38 0c-24.9,0 -45.26,20.37 -45.26,45.27l0 0.01c0,24.88 20.36,45.27 45.26,45.27l391.03 0c24.9,0 45.27,-20.37 45.27,-45.27l0 -0.01c0,-24.9 -20.39,-45.27 -45.27,-45.27l-343.65 0m702.36 39.43c3.75,-24.08 -16.48,-40.94 -26.53,-41.72 -35.71,0 -64.68,28.96 -64.68,64.68 0,35.71 28.97,64.68 64.68,64.68 35.72,0 64.68,-28.97 64.68,-64.68 0,-35.72 -28.96,-64.68 -64.68,-64.68m-565.75 4248.36c-9.01,-33.66 -21.27,-58.37 -79.04,-58.37l-47.88 0c-66.7,0 -121.27,54.57 -121.27,121.26l0 0.03c0,66.65 54.57,121.26 121.27,121.26l336.34 0c66.7,0 121.26,-54.57 121.26,-121.26l0 -0.03c0,-66.69 -54.6,-121.26 -121.26,-121.26l-288.46 0m-878.75 311.92l1729.84 0c194.79,0 354.16,-159.37 354.16,-354.16l0 -3900.04c0,-194.79 -159.37,-354.16 -354.16,-354.16l-1474.58 0c-194.79,0 -354.16,159.37 -354.16,354.16l0 3900.04c0,194.8 159.37,354.16 354.16,354.16l82.72 0c343.31,0 476.64,53.51 521.95,91.64"/>
 </g>
</svg>
