<?xml version="1.0" encoding="UTF-8"?>
<!DOCTYPE svg PUBLIC "-//W3C//DTD SVG 1.1//EN" "http://www.w3.org/Graphics/SVG/1.1/DTD/svg11.dtd">
<!-- Creator: CorelDRAW X8 -->
<svg xmlns="http://www.w3.org/2000/svg" xml:space="preserve" width="40mm" height="60mm" version="1.1" style="shape-rendering:geometricPrecision; text-rendering:geometricPrecision; image-rendering:optimizeQuality; fill-rule:evenodd; clip-rule:evenodd"
viewBox="0 0 4000 6000"
 xmlns:xlink="http://www.w3.org/1999/xlink">
 <defs>
  <style type="text/css">
   <![CDATA[
    .str0 {stroke:black;stroke-width:7.62}
    .fil0 {fill:none}
   ]]>
  </style>
 </defs>
 <g id="图层_x0020_1">
  <metadata id="CorelCorpID_0Corel-Layer"/>
  <path class="fil0 str0" d="M1041 5350l1820 0c110,0 199,-89 199,-198l0 -4304c0,-109 -89,-198 -199,-198l-1722 0c-110,0 -199,89 -199,198l0 4304c0,109 89,198 199,198l156 0m-120 -4597c-1,-5 -6,-11 -16,-11 -35,0 -64,29 -64,64 0,36 29,65 64,65 36,0 65,-29 65,-65 0,-35 -29,-64 -65,-64"/>
 </g>
</svg>
