<?xml version="1.0" encoding="UTF-8"?>
<!DOCTYPE svg PUBLIC "-//W3C//DTD SVG 1.1//EN" "http://www.w3.org/Graphics/SVG/1.1/DTD/svg11.dtd">
<!-- Creator: CorelDRAW 2020 (64-Bit) -->
<svg xmlns="http://www.w3.org/2000/svg" xml:space="preserve" width="40mm" height="60mm" version="1.1" style="shape-rendering:geometricPrecision; text-rendering:geometricPrecision; image-rendering:optimizeQuality; fill-rule:evenodd; clip-rule:evenodd"
viewBox="0 0 4000 6000"
 xmlns:xlink="http://www.w3.org/1999/xlink"
 xmlns:xodm="http://www.corel.com/coreldraw/odm/2003">
 <defs>
  <style type="text/css">
   <![CDATA[
    .str0 {stroke:#332C2B;stroke-width:20;stroke-miterlimit:22.9256}
    .fil0 {fill:none}
   ]]>
  </style>
 </defs>
 <g id="图层_x0020_1">
  <metadata id="CorelCorpID_0Corel-Layer"/>
  <path class="fil0 str0" d="M-18602.39 8825.17l0 -691.19 0.26 0c440,0 800,-360 800,-800l0 -5723.06c0,-440 -360,-800 -800,-800l-0.26 0 0 -626.02c0,-27.5 -22.37,-50 -49.89,-50l-7525.11 0 0 339.6c0,55 -45,100 -100,100l-1383.97 0c-55,0 -100,-45 -100,-100l0 -339.6 -670.03 0 0 339.6c0,55 -45,100 -100,100l-1973.09 0c-55,0 -100,-45 -100,-100l0 -339.6 -2440.61 0c-27.52,0 -49.89,22.5 -49.89,50l0 626.02c-439.87,0.13 -799.76,360.08 -799.76,800l0 1664.39c0,74.18 83.71,116.79 83.71,161.94l0 2103.43c0,45.15 -83.71,90.07 -83.71,146.71l0 1646.59c0,439.92 359.87,799.87 799.76,800l0 626.03c0,27.49 22.37,49.99 49.89,49.99l14392.81 0c27.52,0 49.89,-22.5 49.89,-49.99 0,-27.49 6.95,-83.79 26.63,-104.14"/>
  <path class="fil0 str0" d="M-33560.02 4478.92c0,105.94 85.88,191.82 191.82,191.82 105.94,0 191.82,-85.88 191.82,-191.82 0,-105.94 -85.88,-191.82 -191.82,-191.82 -105.94,0 -191.82,85.88 -191.82,191.82 0,105.94 139.63,147.68 156.83,148.34"/>
  <g id="_1999281461312">
   <path class="fil0 str0" d="M723.83 5116.81l201.87 0 0 0.07c0,128.51 105.14,233.65 233.65,233.65l1671.48 0c128.5,0 233.64,-105.14 233.64,-233.65l0 -0.07 182.84 0c8.03,0 14.6,-6.54 14.6,-14.57l0 -2197.78 -99.18 0c-16.07,0 -29.21,-13.15 -29.21,-29.21l0 -404.2c0,-16.06 13.14,-29.21 29.21,-29.21l99.18 0 0 -195.69 -99.18 0c-16.07,0 -29.21,-13.14 -29.21,-29.2l0 -576.26c0,-16.06 13.14,-29.21 29.21,-29.21l99.18 0 0 -712.8c0,-8.04 -6.57,-14.57 -14.6,-14.57l-182.84 0c-0.03,-128.47 -105.16,-233.58 -233.64,-233.58l-486.11 0c-21.66,0 -34.11,24.45 -47.29,24.45l-614.33 0c-13.19,0 -26.31,-24.45 -42.85,-24.45l-480.9 0c-128.48,0 -233.61,105.11 -233.65,233.58l-182.84 0c-8.03,0 -14.6,6.53 -14.6,14.57l0 4203.56c0,8.03 6.57,14.57 14.6,14.57 8.03,0 24.47,2.03 30.42,7.78"/>
   <path class="fil0 str0" d="M1993.2 748.29c-30.94,0 -56.03,25.08 -56.03,56.02 0,30.94 25.09,56.03 56.03,56.03 30.94,0 56.02,-25.09 56.02,-56.03 0,-30.94 -25.08,-56.02 -56.02,-56.02 -30.94,0 -43.13,40.78 -43.33,45.8"/>
  </g>
 </g>
</svg>
