<?xml version="1.0" encoding="UTF-8"?>
<!DOCTYPE svg PUBLIC "-//W3C//DTD SVG 1.1//EN" "http://www.w3.org/Graphics/SVG/1.1/DTD/svg11.dtd">
<!-- Creator: CorelDRAW X8 -->
<svg xmlns="http://www.w3.org/2000/svg" xml:space="preserve" width="40mm" height="60mm" version="1.1" style="shape-rendering:geometricPrecision; text-rendering:geometricPrecision; image-rendering:optimizeQuality; fill-rule:evenodd; clip-rule:evenodd"
viewBox="0 0 4000 6000"
 xmlns:xlink="http://www.w3.org/1999/xlink">
 <defs>
  <style type="text/css">
   <![CDATA[
    .str0 {stroke:black;stroke-width:7.62}
    .fil0 {fill:none}
   ]]>
  </style>
 </defs>
 <g id="图层_x0020_1">
  <metadata id="CorelCorpID_0Corel-Layer"/>
  <path class="fil0 str0" d="M2168 1216c0,-6 -6,-12 -17,-13 -42,0 -75,33 -75,75 0,41 33,75 75,75 41,0 75,-34 75,-75 0,-42 -34,-75 -75,-75m-280 13c-1,-6 -6,-12 -18,-13 -41,0 -75,33 -75,75 0,41 34,75 75,75 41,0 75,-34 75,-75 0,-42 -34,-75 -75,-75m18 304c-1,-7 -6,-12 -18,-13 -41,0 -75,33 -75,75 0,41 34,75 75,75 41,0 75,-34 75,-75 0,-42 -34,-75 -75,-75m314 19c-1,-7 -6,-12 -18,-13 -42,0 -75,33 -75,75 0,41 33,75 75,75 41,0 75,-34 75,-75 0,-42 -34,-75 -75,-75m-149 -423c191,0 345,154 345,345 0,190 -154,345 -345,345 -191,0 -345,-155 -345,-345 0,-191 154,-345 345,-345zm0 -62c228,0 413,185 413,413 0,228 -185,413 -413,413 -228,0 -413,-185 -413,-413 0,-228 185,-413 413,-413zm43 981c-1,-16 -15,-31 -44,-33 -104,0 -188,84 -188,187 0,104 84,188 188,188 103,0 187,-84 187,-188 0,-103 -84,-187 -187,-187m-991 3340l1864 0c102,0 186,-84 186,-187l0 -4279c0,-103 -84,-187 -186,-187l-1744 0c-102,0 -186,84 -186,187l0 4279c0,103 84,187 186,187l47 0c35,0 80,30 98,47"/>
 </g>
</svg>
