<?xml version="1.0" encoding="UTF-8"?>
<!DOCTYPE svg PUBLIC "-//W3C//DTD SVG 1.1//EN" "http://www.w3.org/Graphics/SVG/1.1/DTD/svg11.dtd">
<!-- Creator: CorelDRAW X8 -->
<svg xmlns="http://www.w3.org/2000/svg" xml:space="preserve" width="40mm" height="60mm" version="1.1" style="shape-rendering:geometricPrecision; text-rendering:geometricPrecision; image-rendering:optimizeQuality; fill-rule:evenodd; clip-rule:evenodd"
viewBox="0 0 4000 6000"
 xmlns:xlink="http://www.w3.org/1999/xlink">
 <defs>
  <style type="text/css">
   <![CDATA[
    .str0 {stroke:black;stroke-width:20}
    .fil0 {fill:none}
   ]]>
  </style>
 </defs>
 <g id="图层_x0020_1">
  <metadata id="CorelCorpID_0Corel-Layer"/>
  <path class="fil0 str0" d="M852 5350l2223 0c53,0 97,-43 97,-96l0 -4508c0,-53 -44,-96 -97,-96l-2150 0c-53,0 -97,43 -97,96l0 4508c0,53 44,96 97,96l52 0m1597 -4641c0,-4 -4,-8 -11,-9 -27,0 -49,22 -49,49 0,27 22,49 49,49 27,0 49,-22 49,-49 0,-27 -22,-49 -49,-49m-648 50c-5,-18 -14,-31 -57,-31l-36 0c-19,0 -35,15 -35,34l0 0c0,20 16,35 35,35l370 0c19,0 34,-15 34,-35l0 0c0,-19 -15,-34 -34,-34l-334 0m512 5c-3,-12 -7,-20 -27,-20l-17 0c-23,0 -42,18 -42,41l0 0c0,23 19,42 42,42l70 0c23,0 42,-19 42,-42l0 0c0,-23 -19,-41 -42,-41l-53 0m558 19c-1,-2 -3,-4 -7,-5 -15,0 -28,13 -28,28 0,16 13,28 28,28 15,0 28,-12 28,-28 0,-15 -13,-28 -28,-28"/>
 </g>
</svg>
