<?xml version="1.0" encoding="UTF-8"?>
<!DOCTYPE svg PUBLIC "-//W3C//DTD SVG 1.1//EN" "http://www.w3.org/Graphics/SVG/1.1/DTD/svg11.dtd">
<!-- Creator: CorelDRAW X8 -->
<svg xmlns="http://www.w3.org/2000/svg" xml:space="preserve" width="40mm" height="60mm" version="1.1" style="shape-rendering:geometricPrecision; text-rendering:geometricPrecision; image-rendering:optimizeQuality; fill-rule:evenodd; clip-rule:evenodd"
viewBox="0 0 4000 6000"
 xmlns:xlink="http://www.w3.org/1999/xlink">
 <defs>
  <style type="text/css">
   <![CDATA[
    .str0 {stroke:#332C2B;stroke-width:7.62}
    .fil0 {fill:none}
   ]]>
  </style>
 </defs>
 <g id="图层_x0020_1">
  <metadata id="CorelCorpID_0Corel-Layer"/>
  <path class="fil0 str0" d="M914 5350l1872 0c228,0 414,-186 414,-414l0 -3872c0,-228 -186,-414 -414,-414l-1572 0c-228,0 -414,186 -414,414l0 3872c0,228 186,414 414,414l179 0m1319 -4492c1,-12 -13,-22 -19,-22 -18,0 -33,15 -33,33 0,18 15,33 33,33 19,0 33,-15 33,-33 0,-18 -14,-33 -33,-33m-806 40c-6,-21 -17,-37 -68,-37l-43 0c-23,0 -41,18 -41,41l0 0c0,23 18,41 41,41l482 0c23,0 41,-18 41,-41l0 0c0,-23 -18,-41 -41,-41l-439 0m742 17c-2,-9 -6,-16 -21,-16l-7 0c-18,0 -33,15 -33,33l0 0c0,18 15,33 33,33l47 0c18,0 33,-15 33,-33l0 0c0,-18 -15,-33 -33,-33l-40 0"/>
 </g>
</svg>
