<?xml version="1.0" encoding="UTF-8"?>
<!DOCTYPE svg PUBLIC "-//W3C//DTD SVG 1.1//EN" "http://www.w3.org/Graphics/SVG/1.1/DTD/svg11.dtd">
<!-- Creator: CorelDRAW X8 -->
<svg xmlns="http://www.w3.org/2000/svg" xml:space="preserve" width="40mm" height="60mm" version="1.1" style="shape-rendering:geometricPrecision; text-rendering:geometricPrecision; image-rendering:optimizeQuality; fill-rule:evenodd; clip-rule:evenodd"
viewBox="0 0 4000 6000"
 xmlns:xlink="http://www.w3.org/1999/xlink">
 <defs>
  <style type="text/css">
   <![CDATA[
    .str0 {stroke:#332C2B;stroke-width:10}
    .fil0 {fill:none}
   ]]>
  </style>
 </defs>
 <g id="图层_x0020_1">
  <metadata id="CorelCorpID_0Corel-Layer"/>
  <path class="fil0 str0" d="M1208 797c1,-22 -25,-39 -34,-40 -34,0 -61,27 -61,61 0,33 27,60 61,60 33,0 60,-27 60,-60 0,-34 -27,-61 -60,-61m260 48c0,-13 -15,-23 -20,-23 -19,0 -34,15 -34,35 0,19 15,34 34,34 19,0 35,-15 35,-34 0,-20 -16,-35 -35,-35m551 3c-7,-28 -23,-51 -93,-51l-59 0c-32,0 -57,26 -57,57l0 0c0,32 25,57 57,57l421 0c31,0 57,-25 57,-57l0 0c0,-31 -26,-57 -57,-57l-362 0m-933 4616l1963 0c131,0 238,-107 238,-238l0 -4224c0,-131 -107,-238 -238,-238l-1804 0c-131,0 -238,107 -238,238l0 4224c0,131 107,238 238,238l280 0"/>
 </g>
</svg>
