<?xml version="1.0" encoding="UTF-8"?>
<!DOCTYPE svg PUBLIC "-//W3C//DTD SVG 1.1//EN" "http://www.w3.org/Graphics/SVG/1.1/DTD/svg11.dtd">
<!-- Creator: CorelDRAW X8 -->
<svg xmlns="http://www.w3.org/2000/svg" xml:space="preserve" width="40mm" height="60mm" version="1.1" style="shape-rendering:geometricPrecision; text-rendering:geometricPrecision; image-rendering:optimizeQuality; fill-rule:evenodd; clip-rule:evenodd"
viewBox="0 0 4000 6000"
 xmlns:xlink="http://www.w3.org/1999/xlink">
 <defs>
  <style type="text/css">
   <![CDATA[
    .str0 {stroke:#332C2B;stroke-width:7.62}
    .fil0 {fill:none}
   ]]>
  </style>
 </defs>
 <g id="图层_x0020_1">
  <metadata id="CorelCorpID_0Corel-Layer"/>
  <path class="fil0 str0" d="M879 650l579 0c233,0 424,191 424,424l0 562c0,233 -191,424 -424,424l-579 0c-233,0 -424,-191 -424,-424l0 -562c0,-233 191,-424 424,-424zm1663 0l579 0c233,0 424,191 424,424l0 562c0,233 -191,424 -424,424l-579 0c-233,0 -424,-191 -424,-424l0 -562c0,-233 191,-424 424,-424zm-1663 1645l579 0c233,0 424,191 424,424l0 562c0,233 -191,424 -424,424l-579 0c-233,0 -424,-191 -424,-424l0 -562c0,-233 191,-424 424,-424zm1663 0l579 0c233,0 424,191 424,424l0 562c0,233 -191,424 -424,424l-579 0c-233,0 -424,-191 -424,-424l0 -562c0,-233 191,-424 424,-424zm-1663 1645l579 0c233,0 424,191 424,424l0 562c0,233 -191,424 -424,424l-579 0c-233,0 -424,-191 -424,-424l0 -562c0,-233 191,-424 424,-424zm1663 0l579 0c233,0 424,191 424,424l0 562c0,233 -191,424 -424,424l-579 0c-233,0 -424,-191 -424,-424l0 -562c0,-233 191,-424 424,-424zm-1661 -3246l578 0c208,0 378,170 378,378l0 563c0,208 -170,378 -378,378l-578 0c-208,0 -378,-170 -378,-378l0 -563c0,-208 170,-378 378,-378zm1662 0l578 0c208,0 378,170 378,378l0 563c0,208 -170,378 -378,378l-578 0c-207,0 -377,-170 -377,-378l0 -563c0,-208 170,-378 377,-378zm-1662 1645l578 0c208,0 378,170 378,378l0 563c0,208 -170,378 -378,378l-578 0c-208,0 -378,-170 -378,-378l0 -563c0,-208 170,-378 378,-378zm1662 0l578 0c208,0 378,170 378,378l0 563c0,208 -170,378 -378,378l-578 0c-207,0 -377,-170 -377,-378l0 -563c0,-208 170,-378 377,-378zm-1662 1646l578 0c208,0 378,169 378,377l0 564c0,207 -170,377 -378,377l-578 0c-208,0 -378,-170 -378,-377l0 -564c0,-208 170,-377 378,-377zm1662 0l578 0c208,0 378,169 378,377l0 564c0,207 -170,377 -378,377l-578 0c-207,0 -377,-170 -377,-377l0 -564c0,-208 170,-377 377,-377zm-1762 -2878c-137,-80 -87,-389 105,-389 191,0 346,155 346,346 0,192 -155,347 -346,347 -192,0 -347,-155 -347,-347 0,-191 155,-346 347,-346m1558 389c-138,-80 -87,-389 104,-389 191,0 346,155 346,346 0,192 -155,347 -346,347 -191,0 -347,-155 -347,-347 0,-191 156,-346 347,-346m-1767 2034c-137,-80 -87,-389 105,-389 191,0 346,155 346,347 0,191 -155,346 -346,346 -192,0 -347,-155 -347,-346 0,-192 155,-347 347,-347m1558 389c-138,-80 -87,-389 104,-389 191,0 346,155 346,347 0,191 -155,346 -346,346 -191,0 -347,-155 -347,-346 0,-192 156,-347 347,-347m-1767 2034c-137,-80 -87,-389 105,-389 191,0 346,156 346,347 0,191 -155,346 -346,346 -192,0 -347,-155 -347,-346 0,-191 155,-347 347,-347m1558 389c-138,-80 -87,-389 104,-389 191,0 346,156 346,347 0,191 -155,346 -346,346 -191,0 -347,-155 -347,-346 0,-191 156,-347 347,-347m-1186 -2318c-138,-79 -87,-388 104,-388 192,0 347,155 347,346 0,192 -155,347 -347,347 -191,0 -346,-155 -346,-347 0,-191 155,-346 346,-346m1558 388c-137,-79 -87,-388 105,-388 191,0 346,155 346,346 0,192 -155,347 -346,347 -192,0 -347,-155 -347,-347 0,-191 155,-346 347,-346m-1767 2034c-138,-80 -87,-389 104,-389 192,0 347,155 347,346 0,192 -155,347 -347,347 -191,0 -346,-155 -346,-347 0,-191 155,-346 346,-346m1558 389c-137,-80 -87,-389 105,-389 191,0 346,155 346,346 0,192 -155,347 -346,347 -192,0 -347,-155 -347,-347 0,-191 155,-346 347,-346m-1767 2034c-138,-80 -87,-389 104,-389 192,0 347,155 347,347 0,191 -155,346 -347,346 -191,0 -346,-155 -346,-346 0,-192 155,-347 346,-347m1558 389c-137,-80 -87,-389 105,-389 191,0 346,155 346,347 0,191 -155,346 -346,346 -192,0 -347,-155 -347,-346 0,-192 155,-347 347,-347m-1624 -3598c-59,-34 -37,-165 44,-165 82,0 148,66 148,147 0,82 -66,148 -148,148 -81,0 -147,-66 -147,-148 0,-81 66,-147 147,-147m1618 165c-58,-34 -37,-165 45,-165 81,0 147,66 147,147 0,82 -66,148 -147,148 -82,0 -148,-66 -148,-148 0,-81 66,-147 148,-147m-1707 1810c-59,-34 -37,-165 44,-165 82,0 148,66 148,147 0,82 -66,148 -148,148 -81,0 -147,-66 -147,-148 0,-81 66,-147 147,-147m1618 165c-58,-34 -37,-165 45,-165 81,0 147,66 147,147 0,82 -66,148 -147,148 -82,0 -148,-66 -148,-148 0,-81 66,-147 148,-147m-1707 1811c-59,-34 -37,-166 44,-166 82,0 148,66 148,148 0,81 -66,147 -148,147 -81,0 -147,-66 -147,-147 0,-82 66,-148 147,-148m1618 166c-58,-34 -37,-166 45,-166 81,0 147,66 147,148 0,81 -66,147 -147,147 -82,0 -148,-66 -148,-147 0,-82 66,-148 148,-148m-2417 -2393c-29,-17 -18,-80 21,-80 40,0 72,32 72,71 0,40 -32,72 -72,72 -39,0 -71,-32 -71,-72 0,-39 32,-71 71,-71m1641 80c-29,-17 -18,-80 21,-80 40,0 72,32 72,71 0,40 -32,72 -72,72 -39,0 -71,-32 -71,-72 0,-39 32,-71 71,-71m-1683 1725c-29,-16 -18,-80 21,-80 40,0 72,32 72,71 0,40 -32,72 -72,72 -39,0 -71,-32 -71,-72 0,-39 32,-71 71,-71m1641 80c-29,-16 -18,-80 21,-80 40,0 72,32 72,71 0,40 -32,72 -72,72 -39,0 -71,-32 -71,-72 0,-39 32,-71 71,-71m-1683 1725c-29,-16 -18,-80 21,-80 40,0 72,32 72,71 0,40 -32,72 -72,72 -39,0 -71,-32 -71,-72 0,-39 32,-71 71,-71m1641 80c-29,-16 -18,-80 21,-80 40,0 72,32 72,71 0,40 -32,72 -72,72 -39,0 -71,-32 -71,-72 0,-39 32,-71 71,-71"/>
 </g>
</svg>
