<?xml version="1.0" encoding="UTF-8"?>
<!DOCTYPE svg PUBLIC "-//W3C//DTD SVG 1.1//EN" "http://www.w3.org/Graphics/SVG/1.1/DTD/svg11.dtd">
<!-- Creator: CorelDRAW X8 -->
<svg xmlns="http://www.w3.org/2000/svg" xml:space="preserve" width="40mm" height="60mm" version="1.1" style="shape-rendering:geometricPrecision; text-rendering:geometricPrecision; image-rendering:optimizeQuality; fill-rule:evenodd; clip-rule:evenodd"
viewBox="0 0 4000 6000"
 xmlns:xlink="http://www.w3.org/1999/xlink">
 <defs>
  <style type="text/css">
   <![CDATA[
    .str0 {stroke:#332C2B;stroke-width:7.62}
    .fil0 {fill:none}
   ]]>
  </style>
 </defs>
 <g id="图层_x0020_1">
  <metadata id="CorelCorpID_0Corel-Layer"/>
  <path class="fil0 str0" d="M964 5350l1851 0c169,0 307,-138 307,-307l0 -4086c0,-169 -138,-307 -307,-307l-1630 0c-169,0 -307,138 -307,307l0 4086c0,169 138,307 307,307m104 -4663l533 0c198,0 361,163 361,361l0 570c0,199 -163,362 -361,362l-533 0c-199,0 -361,-163 -361,-362l0 -570c0,-198 162,-361 361,-361zm-11 44l554 0c167,0 303,136 303,303l0 590c0,167 -136,303 -303,303l-554 0c-166,0 -303,-136 -303,-303l0 -590c0,-167 137,-303 303,-303zm-60 312c-116,-116 -83,-264 63,-264 145,0 263,118 263,264 0,145 -118,263 -263,263 -146,0 -264,-118 -264,-263 0,-146 118,-264 264,-264m-64 853c-115,-115 -83,-262 62,-262 145,0 262,117 262,262 0,144 -117,262 -262,262 -145,0 -262,-118 -262,-262 0,-145 117,-262 262,-262m480 -33c-118,-117 -84,-266 63,-266 147,0 267,119 267,266 0,148 -120,267 -267,267 -147,0 -267,-119 -267,-267 0,-147 120,-266 267,-266m1 706c-41,-41 -30,-93 22,-93 51,0 92,41 92,93 0,51 -41,92 -92,92 -52,0 -93,-41 -93,-92 0,-52 41,-93 93,-93m155 -25c-18,-19 -13,-42 10,-42 23,0 42,19 42,42 0,23 -19,42 -42,42 -23,0 -42,-19 -42,-42 0,-23 19,-42 42,-42m-203 -703c-43,-43 -31,-98 23,-98 54,0 98,44 98,98 0,54 -44,98 -98,98 -54,0 -98,-44 -98,-98 0,-54 44,-98 98,-98"/>
 </g>
</svg>
