<?xml version="1.0" encoding="UTF-8"?>
<!DOCTYPE svg PUBLIC "-//W3C//DTD SVG 1.1//EN" "http://www.w3.org/Graphics/SVG/1.1/DTD/svg11.dtd">
<!-- Creator: CorelDRAW X8 -->
<svg xmlns="http://www.w3.org/2000/svg" xml:space="preserve" width="40mm" height="60mm" version="1.1" style="shape-rendering:geometricPrecision; text-rendering:geometricPrecision; image-rendering:optimizeQuality; fill-rule:evenodd; clip-rule:evenodd"
viewBox="0 0 4000 6000"
 xmlns:xlink="http://www.w3.org/1999/xlink">
 <defs>
  <style type="text/css">
   <![CDATA[
    .str0 {stroke:#332C2B;stroke-width:7.62}
    .fil0 {fill:none}
   ]]>
  </style>
 </defs>
 <g id="图层_x0020_1">
  <metadata id="CorelCorpID_0Corel-Layer"/>
  <path class="fil0 str0" d="M982 5350l1898 0c119,0 216,-97 216,-216l0 -4268c0,-119 -97,-216 -216,-216l-1760 0c-119,0 -216,97 -216,216l0 4268c0,119 97,216 216,216l168 0m514 -4646c1,-23 -26,-41 -35,-41 -35,0 -63,28 -63,63 0,35 28,63 63,63 34,0 63,-28 63,-63 0,-35 -29,-63 -63,-63m226 58c-4,-13 -11,-24 -44,-24l-28 0c-15,0 -27,12 -27,27l0 0c0,15 12,27 27,27l146 0c15,0 27,-12 27,-27l0 0c0,-15 -12,-27 -27,-27l-118 0m307 9c1,-17 -19,-31 -27,-31 -26,0 -47,21 -47,47 0,26 21,47 47,47 27,0 48,-21 48,-47 0,-26 -21,-47 -48,-47"/>
 </g>
</svg>
