<?xml version="1.0" encoding="UTF-8"?>
<!DOCTYPE svg PUBLIC "-//W3C//DTD SVG 1.1//EN" "http://www.w3.org/Graphics/SVG/1.1/DTD/svg11.dtd">
<!-- Creator: CorelDRAW -->
<svg xmlns="http://www.w3.org/2000/svg" xml:space="preserve" width="40mm" height="60mm" style="shape-rendering:geometricPrecision; text-rendering:geometricPrecision; image-rendering:optimizeQuality; fill-rule:evenodd; clip-rule:evenodd"
viewBox="0 0 40 60"
 xmlns:xlink="http://www.w3.org/1999/xlink">
 <defs>
  <style type="text/css">
   <![CDATA[
    .str0 {stroke:#1F1A17;stroke-width:0.194}
    .fil0 {fill:none;fill-rule:nonzero}
   ]]>
  </style>
 </defs>
 <g id="图层_x0020_1">
  <metadata id="CorelCorpID_0Corel-Layer"/>
  <g id="_209456736">
   <polyline id="_206718744" class="fil0 str0" points="17.2,10.8985 17.2,10.9917 17.1539,10.9763 "/>
   <path id="_206714856" class="fil0 str0" d="M17.1539 10.9763c-0.0175,-0.023 -0.0394,-0.0756 -0.0394,-0.0931"/>
   <polyline id="_206718192" class="fil0 str0" points="17.1145,10.8832 17.1375,10.8283 17.1769,10.8053 "/>
   <path id="_206719872" class="fil0 str0" d="M17.1769 10.8053c-0.1392,-0.2324 -0.3475,-0.3661 -0.57,-0.3661 -0.3343,0 -0.6172,0.2872 -0.6172,0.627 0,0.3409 0.2807,0.6172 0.6271,0.6172 0.342,0 0.6139,-0.2763 0.6139,-0.6227 0,-0.2641 -0.1721,-0.4944 -0.3684,-0.4944 -0.1249,0 -0.1995,0.0636 -0.501,0.4254"/>
   <line id="_206719632" class="fil0 str0" x1="20.9524" y1="10.5883" x2="20.8976" y2= "10.6573" />
   <path id="_206720592" class="fil0 str0" d="M20.8976 10.6573c-0.0187,-0.0208 -0.0263,-0.034 -0.0384,-0.069"/>
   <line id="_206720448" class="fil0 str0" x1="20.8592" y1="10.5883" x2="19.137" y2= "10.5762" />
   <path id="_206720496" class="fil0 str0" d="M19.137 10.5762c-0.4527,-0.0033 -0.6358,0.0022 -0.763,0.0208 -0.126,0.0187 -0.1896,0.0505 -0.262,0.1283 -0.0756,0.0822 -0.1194,0.2028 -0.1194,0.3299 0,0.1579 0.0679,0.3026 0.1764,0.3772"/>
   <line id="_206720568" class="fil0 str0" x1="18.169" y1="11.4324" x2="18.1723" y2= "11.4357" />
   <path id="_206721144" class="fil0 str0" d="M18.1723 11.4357c0.1513,0.103 0.1513,0.103 1.8022,0.1096"/>
   <line id="_206722944" class="fil0 str0" x1="19.9745" y1="11.5453" x2="20.0195" y2= "11.5464" />
   <path id="_206723136" class="fil0 str0" d="M20.0195 11.5464c1.0754,0.0044 1.3878,-0.0011 1.6125,-0.0285 0.125,-0.0143 0.205,-0.0362 0.262,-0.0713 0.0461,-0.0274 0.0768,-0.0614 0.1206,-0.1337 0.0439,-0.0713 0.0669,-0.1579 0.0669,-0.2577 0,-0.3869 -0.1951,-0.4845 -0.9636,-0.4845 -0.547,0 -0.8583,0.0187 -1.0743,0.0636"/>
   <polyline id="_206722824" class="fil0 str0" points="20.0436,10.6343 20.0436,10.6497 20.0513,10.6573 20.0513,10.665 20.0589,10.6738 19.9965,10.7198 20.0042,10.7275 19.9504,10.7823 19.9658,10.7976 19.7246,11.1627 "/>
   <polyline id="_206724024" class="fil0 str0" points="29.0941,49.5857 29.0469,49.6635 29.036,49.6514 29.0239,49.6383 29.0086,49.6175 29.0009,49.578 12.3842,49.5879 "/>
   <path id="_206723472" class="fil0 str0" d="M12.3842 49.5879c-0.4692,-0.011 -0.6961,-0.0779 -1.0217,-0.3037 -0.3869,-0.2664 -0.6884,-0.6961 -0.7783,-1.1116"/>
   <line id="_206724480" class="fil0 str0" x1="10.5842" y1="48.1726" x2="10.5228" y2= "41.0383" />
   <path id="_206724552" class="fil0 str0" d="M10.5228 41.0383c-0.0329,-3.8072 -0.046,-7.6155 -0.0395,-11.4227"/>
   <line id="_206724576" class="fil0 str0" x1="10.4833" y1="29.6156" x2="10.513" y2= "11.5716" />
   <path id="_206725584" class="fil0 str0" d="M10.513 11.5716c0.0317,-0.6742 0.2576,-1.1445 0.7355,-1.5293 0.0482,-0.0394 0.0822,-0.0712 0.1414,-0.1348 0.2587,-0.2774 0.2587,-0.2774 5.8802,-0.2675"/>
   <line id="_206724912" class="fil0 str0" x1="17.2701" y1="9.64" x2="27.5484" y2= "9.6598" />
   <path id="_206719848" class="fil0 str0" d="M27.5484 9.6598c0.5229,0.0109 0.6391,0.0285 0.8836,0.1359 0.5064,0.2225 0.8912,0.6731 1.0578,1.2376 0.0241,0.0811 0.0285,0.1623 0.0285,0.5416"/>
   <polyline id="_206729232" class="fil0 str0" points="29.5183,11.5749 29.4821,47.7637 29.4898,48.1058 "/>
   <path id="_206730192" class="fil0 str0" d="M29.4898 48.1058c0,0.3332 -0.2993,0.8265 -0.6709,1.1082 -0.2324,0.1754 -0.502,0.2884 -0.8079,0.3377"/>
   <line id="_206731968" class="fil0 str0" x1="28.011" y1="49.5517" x2="27.7402" y2= "49.601" />
   <path id="_209455320" class="fil0 str0" d="M27.7402 49.601c-0.3157,0.0855 -0.4757,0.2872 -0.604,0.7619"/>
  </g>
 </g>
</svg>
