<?xml version="1.0" encoding="UTF-8"?>
<!DOCTYPE svg PUBLIC "-//W3C//DTD SVG 1.1//EN" "http://www.w3.org/Graphics/SVG/1.1/DTD/svg11.dtd">
<!-- Creator: CorelDRAW X8 -->
<svg xmlns="http://www.w3.org/2000/svg" xml:space="preserve" width="40mm" height="60mm" version="1.1" style="shape-rendering:geometricPrecision; text-rendering:geometricPrecision; image-rendering:optimizeQuality; fill-rule:evenodd; clip-rule:evenodd"
viewBox="0 0 4000 6000"
 xmlns:xlink="http://www.w3.org/1999/xlink">
 <defs>
  <style type="text/css">
   <![CDATA[
    .fil0 {fill:black;fill-rule:nonzero}
   ]]>
  </style>
 </defs>
 <g id="图层_x0020_1">
  <metadata id="CorelCorpID_0Corel-Layer"/>
  <g>
   <path class="fil0" d="M1193 1127l20 5 0 0 -2 8 -2 8 -2 7 -2 7 -2 7 -2 7 -2 6 -2 7 -2 5 -2 6 -1 6 -2 5 -2 5 -2 5 -1 4 -2 5 -2 4 -2 4 -1 3 -2 4 -1 3 -2 3 -2 3 -1 2 -2 3 -2 2 -2 2 -2 2 -2 2 -2 1 -3 1 -3 1 -3 -20 0 0 -1 0 1 0 0 0 1 -1 1 -1 1 -1 1 -2 1 -2 1 -2 2 -2 1 -3 2 -3 1 -4 2 -3 1 -4 2 -4 2 -4 1 -5 2 -5 2 -5 1 -5 2 -6 2 -5 2 -6 2 -7 2 -6 1 -7 2 -7 2 -7 2 -8 2 -8 0 0zm20 5l0 0 0 0 0 0zm381 -421l2 20 0 0 -18 2 -17 3 -17 2 -17 4 -16 4 -15 4 -16 5 -15 6 -14 6 -15 6 -13 8 -14 8 -13 9 -12 9 -13 10 -12 11 -11 12 -12 13 -11 13 -10 14 -11 16 -9 16 -10 17 -9 18 -9 20 -9 20 -8 21 -8 23 -8 23 -7 25 -7 26 -7 27 -20 -5 7 -27 7 -26 8 -26 8 -24 8 -23 8 -22 9 -21 10 -19 9 -19 10 -18 11 -17 10 -16 12 -15 11 -14 12 -14 12 -12 13 -12 13 -11 14 -10 14 -9 14 -9 14 -7 15 -8 16 -6 16 -6 16 -5 16 -5 17 -4 17 -3 18 -3 18 -3 18 -2 0 0zm894 -71l1 20 0 0 -24 1 -23 1 -25 1 -25 1 -25 1 -26 2 -27 1 -27 2 -28 2 -28 2 -28 2 -28 2 -29 3 -29 2 -29 2 -30 3 -29 2 -30 3 -30 3 -29 2 -30 3 -30 3 -29 3 -29 2 -30 3 -28 3 -29 3 -29 3 -28 2 -27 3 -28 3 -27 2 -2 -20 27 -2 28 -3 27 -3 28 -2 29 -3 29 -3 29 -3 29 -2 29 -3 30 -3 29 -3 30 -3 30 -2 29 -3 30 -3 29 -2 30 -3 29 -2 29 -2 29 -3 29 -2 28 -2 28 -2 27 -2 28 -2 26 -1 27 -2 25 -1 25 -1 25 -1 24 -1 23 -1 0 0zm307 159l-17 10 0 0 -7 -12 -7 -11 -7 -11 -7 -10 -6 -10 -7 -8 -7 -9 -7 -8 -7 -7 -7 -7 -7 -6 -7 -6 -7 -5 -8 -5 -7 -5 -8 -4 -8 -4 -9 -3 -9 -3 -9 -3 -9 -2 -10 -2 -10 -2 -10 -2 -12 -1 -11 -1 -12 -1 -12 -1 -13 0 -14 0 -14 0 -14 0 -1 -20 15 0 14 0 14 0 13 0 13 1 13 1 12 1 11 1 11 2 11 2 11 2 10 3 10 3 9 3 10 4 9 4 8 5 9 5 8 6 8 5 8 7 8 7 8 7 7 8 7 8 8 9 7 10 7 10 7 10 7 11 7 12 7 12 0 0zm61 389l-20 0 0 0 0 -10 0 -9 0 -11 0 -10 0 -11 0 -11 -1 -12 0 -11 0 -12 0 -13 -1 -12 0 -12 -1 -13 -1 -13 -1 -13 -1 -13 -1 -13 -2 -13 -2 -13 -2 -13 -2 -12 -2 -13 -3 -13 -3 -12 -3 -13 -4 -12 -4 -11 -4 -12 -4 -11 -5 -11 -6 -11 -5 -10 17 -10 6 11 6 11 5 12 5 12 4 12 4 12 4 13 3 13 3 13 3 13 3 13 2 13 2 14 2 13 1 13 2 13 1 14 1 13 1 13 1 13 0 12 1 13 0 12 0 12 0 12 1 12 0 11 0 11 0 10 0 11 0 9 0 10 0 0zm-3 3854l-20 0 0 0 0 -93 0 -99 1 -103 0 -108 0 -112 1 -115 0 -119 1 -123 0 -125 1 -127 0 -129 0 -132 1 -132 0 -134 0 -134 1 -135 0 -135 0 -135 0 -134 0 -133 0 -131 0 -130 0 -129 0 -125 0 -123 0 -121 0 -116 -1 -113 0 -109 -1 -105 -1 -100 0 -95 20 0 0 95 1 100 1 104 0 110 1 113 0 116 0 121 0 123 0 125 0 129 0 130 0 131 0 133 0 134 0 135 0 135 -1 135 0 134 0 134 -1 132 0 132 0 129 -1 127 0 125 -1 123 0 119 -1 115 0 112 0 108 -1 103 0 99 0 93 0 0zm-50 188l-17 -10 0 0 4 -6 3 -5 2 -5 3 -5 3 -5 2 -5 3 -5 2 -5 2 -5 2 -5 2 -5 2 -5 1 -5 2 -5 2 -5 1 -6 1 -5 1 -5 2 -6 1 -5 1 -6 0 -6 1 -5 1 -6 1 -6 0 -6 0 -7 1 -6 0 -7 0 -6 0 -7 1 -7 20 0 -1 7 0 7 0 7 0 7 -1 7 0 6 -1 7 0 6 -1 6 -1 6 -1 6 -1 6 -1 6 -1 6 -1 6 -2 5 -1 6 -2 5 -2 6 -1 5 -2 6 -2 5 -3 6 -2 5 -2 5 -3 6 -2 5 -3 5 -3 6 -3 5 -3 6 -4 5 0 0zm-71 92l-15 -14 0 0 2 -1 2 -2 2 -3 2 -2 2 -2 3 -3 2 -3 2 -2 3 -3 2 -3 2 -3 3 -3 2 -3 3 -3 2 -3 3 -4 2 -3 3 -3 2 -3 2 -3 3 -3 2 -3 2 -3 2 -3 2 -3 2 -3 2 -3 2 -3 2 -2 2 -3 1 -2 1 -2 17 10 -1 2 -2 3 -1 3 -2 2 -2 3 -2 3 -2 3 -2 3 -3 3 -2 3 -2 4 -3 3 -2 3 -2 3 -3 3 -2 4 -3 3 -2 3 -3 3 -2 3 -3 4 -3 3 -2 3 -2 3 -3 2 -2 3 -3 3 -2 2 -2 3 -2 2 -2 2 -2 2 0 0zm-119 34l2 -19 0 0 4 0 4 0 4 1 4 0 4 1 3 0 4 0 3 1 3 0 3 0 4 0 3 0 2 0 3 0 3 -1 3 0 3 -1 2 0 3 -1 3 -1 3 -1 2 -2 3 -1 3 -2 3 -2 3 -2 3 -2 4 -3 3 -2 3 -4 4 -3 3 -4 15 14 -4 4 -4 4 -4 4 -4 3 -3 3 -4 3 -4 2 -4 2 -3 2 -4 2 -3 2 -4 1 -4 2 -3 1 -4 1 -3 0 -4 1 -4 0 -3 1 -4 0 -3 0 -4 0 -4 0 -3 0 -4 -1 -4 0 -3 0 -4 -1 -4 0 -4 -1 -4 0 -4 -1 0 0zm-945 -83l2 -20 0 0 26 2 27 2 28 2 27 2 29 2 29 3 29 2 29 2 30 3 30 2 30 3 31 2 30 3 31 2 31 3 31 3 31 2 31 3 31 3 31 3 31 2 30 3 31 3 30 3 30 3 30 3 29 3 30 3 28 3 29 3 27 3 28 3 -2 19 -28 -3 -27 -3 -29 -2 -28 -3 -30 -3 -29 -3 -30 -3 -30 -3 -30 -3 -30 -3 -31 -3 -31 -2 -31 -3 -31 -3 -31 -3 -31 -2 -31 -3 -31 -3 -30 -2 -31 -3 -30 -2 -31 -3 -30 -2 -30 -3 -29 -2 -29 -2 -29 -3 -28 -2 -28 -2 -27 -2 -27 -2 -27 -2 0 0zm-504 -611l20 -1 0 0 2 43 3 40 5 38 6 37 7 34 9 33 9 31 11 29 12 28 12 26 14 24 14 23 16 21 16 20 16 19 17 17 18 16 19 14 18 14 20 12 19 11 20 10 20 9 21 8 20 8 20 6 21 5 20 5 21 4 20 3 20 2 20 2 -2 20 -20 -2 -21 -2 -20 -4 -22 -4 -21 -4 -21 -6 -21 -6 -22 -8 -21 -8 -21 -10 -20 -10 -21 -12 -20 -13 -19 -14 -20 -15 -18 -17 -18 -18 -18 -19 -16 -21 -16 -22 -15 -24 -14 -25 -14 -27 -12 -28 -11 -31 -10 -31 -8 -34 -8 -36 -6 -37 -5 -39 -3 -41 -2 -43 0 0zm-8 -3017l20 0 0 0 -1 73 -1 77 -1 78 -1 82 -1 83 0 86 -1 89 -1 90 -1 92 0 93 -1 95 0 96 0 98 -1 99 0 99 0 101 0 101 0 101 1 102 0 101 1 102 0 102 1 101 1 101 1 101 2 99 1 99 2 98 1 96 2 96 2 93 3 92 -20 1 -3 -92 -2 -94 -2 -95 -1 -97 -2 -97 -1 -99 -2 -100 -1 -100 -1 -101 -1 -102 0 -102 -1 -101 0 -102 -1 -102 0 -101 0 -101 0 -101 0 -99 1 -99 0 -98 0 -96 1 -95 0 -94 1 -91 1 -91 1 -88 0 -86 1 -84 1 -81 1 -79 1 -76 1 -73 0 0zm37 -518l20 5 0 0 -3 14 -3 15 -3 15 -3 16 -2 16 -3 16 -2 17 -2 17 -2 17 -1 17 -2 17 -1 18 -1 17 -1 18 -1 17 -1 18 -1 17 -1 18 0 17 -1 17 0 17 -1 16 0 17 -1 16 0 15 0 16 0 15 0 14 -1 14 0 14 0 13 0 12 -20 0 0 -12 0 -13 0 -14 1 -14 0 -15 0 -14 0 -16 0 -16 1 -16 0 -16 1 -17 0 -17 1 -17 0 -17 1 -18 1 -17 1 -18 1 -18 1 -17 1 -18 1 -18 2 -17 2 -17 1 -18 2 -17 3 -16 2 -17 2 -16 3 -16 3 -16 3 -15 3 -15 0 0zm0 0l0 0 0 0 0 0zm21 -205l19 -6 1 4 1 5 2 4 0 5 1 5 1 5 0 6 1 5 0 6 0 6 0 6 0 6 0 6 0 6 -1 7 0 6 -1 7 -1 7 -1 7 -1 8 -1 7 -2 8 -1 7 -2 8 -1 8 -2 9 -2 8 -2 9 -2 8 -2 9 -3 9 -2 9 -20 -5 3 -9 2 -9 3 -9 2 -8 2 -8 1 -9 2 -8 2 -8 1 -7 2 -8 1 -7 1 -7 1 -7 1 -7 1 -7 1 -6 0 -7 1 -6 0 -6 0 -6 0 -6 0 -5 0 -5 0 -6 -1 -4 0 -5 -1 -5 0 -4 -1 -5 -1 -4 -1 -4 -1 -3z"/>
  </g>
 </g>
</svg>
