<?xml version="1.0" encoding="UTF-8"?>
<!DOCTYPE svg PUBLIC "-//W3C//DTD SVG 1.1//EN" "http://www.w3.org/Graphics/SVG/1.1/DTD/svg11.dtd">
<!-- Creator: CorelDRAW X8 -->
<svg xmlns="http://www.w3.org/2000/svg" xml:space="preserve" width="40mm" height="60mm" version="1.1" style="shape-rendering:geometricPrecision; text-rendering:geometricPrecision; image-rendering:optimizeQuality; fill-rule:evenodd; clip-rule:evenodd"
viewBox="0 0 4000 6000"
 xmlns:xlink="http://www.w3.org/1999/xlink">
 <defs>
  <style type="text/css">
   <![CDATA[
    .str0 {stroke:black;stroke-width:7.62}
    .fil0 {fill:none}
   ]]>
  </style>
 </defs>
 <g id="图层_x0020_1">
  <metadata id="CorelCorpID_0Corel-Layer"/>
  <path class="fil0 str0" d="M1369 720c-1,-12 -11,-23 -32,-24 -76,0 -137,61 -137,137 0,76 61,137 137,137 76,0 137,-61 137,-137 0,-76 -61,-137 -137,-137m-228 77c-1,-7 -7,-13 -19,-14 -42,0 -77,35 -77,77 0,43 35,78 77,78 43,0 77,-35 77,-78 0,-42 -34,-77 -77,-77m237 4239l1337 0c10,0 18,8 18,18l0 94c0,9 -8,17 -18,17l-1337 0c-10,0 -18,-8 -18,-17l0 -94c0,-10 8,-18 18,-18zm-428 352l2062 0c113,0 205,-93 205,-206l0 -4288c0,-113 -92,-206 -205,-206l-1922 0c-113,0 -205,93 -205,206l0 4288c0,113 92,206 205,206l37 0"/>
 </g>
</svg>
