<?xml version="1.0" encoding="UTF-8"?>
<!DOCTYPE svg PUBLIC "-//W3C//DTD SVG 1.1//EN" "http://www.w3.org/Graphics/SVG/1.1/DTD/svg11.dtd">
<!-- Creator: CorelDRAW X8 -->
<svg xmlns="http://www.w3.org/2000/svg" xml:space="preserve" width="40mm" height="60mm" version="1.1" style="shape-rendering:geometricPrecision; text-rendering:geometricPrecision; image-rendering:optimizeQuality; fill-rule:evenodd; clip-rule:evenodd"
viewBox="0 0 4000 6000"
 xmlns:xlink="http://www.w3.org/1999/xlink">
 <defs>
  <style type="text/css">
   <![CDATA[
    .str0 {stroke:black;stroke-width:7.62}
    .fil0 {fill:none}
   ]]>
  </style>
 </defs>
 <g id="图层_x0020_1">
  <metadata id="CorelCorpID_0Corel-Layer"/>
  <path class="fil0 str0" d="M806 5319l0 -4577c0,-38 31,-67 68,-69 285,-9 532,-16 816,-20 8,0 10,0 13,5l21 34c4,7 6,8 13,8l554 0c6,0 9,-1 11,-6l15 -35c3,-8 6,-9 15,-9 269,4 525,11 794,20 37,1 68,31 68,68l0 4516c0,37 -31,66 -68,68 -375,14 -749,28 -1124,28 -376,0 -754,-13 -1128,-28 -37,-2 -68,-31 -68,-68l0 -79m385 -4396c-3,-12 -8,-21 -28,-21l-17 0c-23,0 -42,19 -42,43l0 0c0,23 19,42 42,42l86 0c23,0 42,-19 42,-42l0 0c0,-24 -19,-43 -42,-43l-69 0m1279 -12c0,-5 -5,-10 -15,-11 -36,0 -65,29 -65,65 0,35 29,64 65,64 36,0 65,-29 65,-64 0,-36 -29,-65 -65,-65"/>
 </g>
</svg>
