<?xml version="1.0" encoding="UTF-8"?>
<!DOCTYPE svg PUBLIC "-//W3C//DTD SVG 1.1//EN" "http://www.w3.org/Graphics/SVG/1.1/DTD/svg11.dtd">
<!-- Creator: CorelDRAW X8 -->
<svg xmlns="http://www.w3.org/2000/svg" xml:space="preserve" width="40mm" height="60mm" version="1.1" style="shape-rendering:geometricPrecision; text-rendering:geometricPrecision; image-rendering:optimizeQuality; fill-rule:evenodd; clip-rule:evenodd"
viewBox="0 0 4000 6000"
 xmlns:xlink="http://www.w3.org/1999/xlink">
 <defs>
  <style type="text/css">
   <![CDATA[
    .str0 {stroke:black;stroke-width:7.62}
    .fil0 {fill:none}
   ]]>
  </style>
 </defs>
 <g id="图层_x0020_1">
  <metadata id="CorelCorpID_0Corel-Layer"/>
  <path class="fil0 str0" d="M1086 5350l1717 0c122,0 222,-100 222,-222l0 -4256c0,-122 -100,-222 -222,-222l-469 0c-4,0 -3,0 -7,2l-16 14c-2,1 -4,2 -9,2l-178 0c-21,0 -35,10 -35,32l0 22c0,50 -41,90 -90,90l0 0c-50,0 -91,-40 -91,-90l0 -16c0,-27 -16,-38 -41,-38l-169 0c-5,0 -6,0 -9,-3l-10 -12c-2,-2 -5,-3 -8,-3l-474 0c-122,0 -222,100 -222,222l0 4256c0,122 100,222 222,222l48 0"/>
 </g>
</svg>
