<?xml version="1.0" encoding="UTF-8"?>
<!DOCTYPE svg PUBLIC "-//W3C//DTD SVG 1.1//EN" "http://www.w3.org/Graphics/SVG/1.1/DTD/svg11.dtd">
<!-- Creator: CorelDRAW 2020 (64-Bit) -->
<svg xmlns="http://www.w3.org/2000/svg" xml:space="preserve" width="40mm" height="60mm" version="1.1" style="shape-rendering:geometricPrecision; text-rendering:geometricPrecision; image-rendering:optimizeQuality; fill-rule:evenodd; clip-rule:evenodd"
viewBox="0 0 4000 6000"
 xmlns:xlink="http://www.w3.org/1999/xlink"
 xmlns:xodm="http://www.corel.com/coreldraw/odm/2003">
 <defs>
  <style type="text/css">
   <![CDATA[
    .str0 {stroke:#332C2B;stroke-width:7.62;stroke-miterlimit:22.9256}
    .fil0 {fill:none}
   ]]>
  </style>
 </defs>
 <g id="图层_x0020_1">
  <metadata id="CorelCorpID_0Corel-Layer"/>
  <path class="fil0 str0" d="M2021.55 726.82c2.75,-17.66 -12.1,-30.04 -19.47,-30.61 -26.22,0 -47.47,21.25 -47.47,47.47 0,26.21 21.25,47.47 47.47,47.47 26.21,0 47.46,-21.26 47.46,-47.47 0,-26.22 -21.25,-47.47 -47.46,-47.47m-1370.09 4627.2l2653.94 0c50.58,0 91.97,-41.38 91.97,-91.97l0 -4483.8c0,-50.59 -41.4,-91.97 -91.97,-91.97l-2585.06 0c-50.57,0 -91.97,41.4 -91.97,91.97l0 4483.8c0,50.58 41.38,91.97 91.97,91.97l63.7 0c59.36,0 97.59,12.57 116,32.26"/>
 </g>
</svg>
