<?xml version="1.0" encoding="UTF-8"?>
<!DOCTYPE svg PUBLIC "-//W3C//DTD SVG 1.1//EN" "http://www.w3.org/Graphics/SVG/1.1/DTD/svg11.dtd">
<!-- Creator: CorelDRAW -->
<svg xmlns="http://www.w3.org/2000/svg" xml:space="preserve" width="40mm" height="60mm" style="shape-rendering:geometricPrecision; text-rendering:geometricPrecision; image-rendering:optimizeQuality; fill-rule:evenodd; clip-rule:evenodd"
viewBox="0 0 40 60"
 xmlns:xlink="http://www.w3.org/1999/xlink">
 <defs>
  <style type="text/css">
   <![CDATA[
    .str0 {stroke:#1F1A17;stroke-width:0.2}
    .fil0 {fill:none}
   ]]>
  </style>
 </defs>
 <g id="图层_x0020_1">
  <metadata id="CorelCorpID_0Corel-Layer"/>
  <path class="fil0 str0" d="M11.2558 6.5l2.3993 0.0403 0.1909 0.0131 0.058 0.756 0.1516 0.4771c0.0477,0.0221 0.2119,0.2235 0.2835,0.2567 1.1841,0.0194 2.3683,0.0387 3.5525,0.0581l7.4341 -0.0933 0.2782 -0.2172 0.2445 -0.2231 0.0707 -1.0677 2.8748 0c1.0331,0 1.8535,0.8952 1.8535,1.935l0 43.1743c0,1.0399 -0.8452,1.8907 -1.8783,1.8907l-17.5382 0c-1.0331,0 -1.8783,-0.8508 -1.8783,-1.8907l0 -43.1743c0,-1.0398 0.8702,-1.9523 1.9032,-1.935z"/>
 </g>
</svg>
