<?xml version="1.0" encoding="UTF-8"?>
<!DOCTYPE svg PUBLIC "-//W3C//DTD SVG 1.1//EN" "http://www.w3.org/Graphics/SVG/1.1/DTD/svg11.dtd">
<!-- Creator: CorelDRAW X8 -->
<svg xmlns="http://www.w3.org/2000/svg" xml:space="preserve" width="40mm" height="60mm" version="1.1" style="shape-rendering:geometricPrecision; text-rendering:geometricPrecision; image-rendering:optimizeQuality; fill-rule:evenodd; clip-rule:evenodd"
viewBox="0 0 4000 6000"
 xmlns:xlink="http://www.w3.org/1999/xlink">
 <defs>
  <style type="text/css">
   <![CDATA[
    .str0 {stroke:black;stroke-width:7.62}
    .fil0 {fill:none}
   ]]>
  </style>
 </defs>
 <g id="图层_x0020_1">
  <metadata id="CorelCorpID_0Corel-Layer"/>
  <path class="fil0 str0" d="M2016 752c0,-5 -5,-10 -14,-10 -31,0 -57,25 -57,57 0,32 26,58 57,58 32,0 58,-26 58,-58 0,-32 -26,-57 -58,-57m-729 4608c-15,-24 -58,-40 -96,-40 -105,0 -191,-86 -191,-191l0 -4278c0,-105 86,-191 191,-191 562,0 1085,0 1646,0 105,0 191,86 191,191l0 4278c0,105 -86,191 -191,191l-1771 0"/>
 </g>
</svg>
