<?xml version="1.0" encoding="UTF-8"?>
<!DOCTYPE svg PUBLIC "-//W3C//DTD SVG 1.1//EN" "http://www.w3.org/Graphics/SVG/1.1/DTD/svg11.dtd">
<!-- Creator: CorelDRAW -->
<svg xmlns="http://www.w3.org/2000/svg" xml:space="preserve" width="40mm" height="60mm" style="shape-rendering:geometricPrecision; text-rendering:geometricPrecision; image-rendering:optimizeQuality; fill-rule:evenodd; clip-rule:evenodd"
viewBox="0 0 40 60"
 xmlns:xlink="http://www.w3.org/1999/xlink">
 <defs>
  <style type="text/css">
   <![CDATA[
    .str0 {stroke:#1F1A17;stroke-width:0.194}
    .fil0 {fill:none;fill-rule:nonzero}
   ]]>
  </style>
 </defs>
 <g id="图层_x0020_1">
  <metadata id="CorelCorpID_0Corel-Layer"/>
  <path class="fil0 str0" d="M31.9585 47.1197l0.0013 1.1194 -0.1399 -37.7493m-23.5844 38.5706c0.106,2.8011 0.4826,3.1018 4.7875,3.8302 2.3801,0.4028 4.8882,0.6094 7.382,0.6094 2.9868,0 5.8729,-0.2903 8.4255,-0.8461 2.5905,-0.5649 3.1346,-1.3325 3.1293,-4.4148m-23.9191 -36.7568l0.1948 37.5781m23.5844 -38.5706c-0.0092,-2.435 -0.6251,-3.1816 -2.8782,-3.4863 -2.4337,-0.3309 -5.2636,-0.5035 -8.2516,-0.5035 -2.8482,0 -5.7644,0.1569 -8.5275,0.4577 -2.3866,0.2602 -3.1215,0.5296 -3.6485,1.3404 -0.391,0.6028 -0.4826,1.2227 -0.4734,3.1842m9.9202 -3.4693l2.3761 0.0092m-0.306 0.7506c-1.7262,0.0039 -2.2113,-0.0039 -2.4532,-0.0393 -0.242,-0.034 -0.3008,-0.1046 -0.3008,-0.3504 0,-0.2916 0.1478,-0.3714 0.6839,-0.3701m2.197 0.7598l-0.1269 0m2.5487 -0.0902c-0.1439,0.0863 -0.1439,0.0863 -2.4218,0.0902m2.4296 -0.0942l-0.0078 0.004m-0.7624 -0.6722c0.4211,-0.0026 0.6185,0.0144 0.7375,0.0667 0.119,0.051 0.1622,0.136 0.1622,0.3191 0,0.1242 -0.051,0.2354 -0.1295,0.2824m-2.4819 -0.6564l1.7117 -0.0118"/>
 </g>
</svg>
