<?xml version="1.0" encoding="UTF-8"?>
<!DOCTYPE svg PUBLIC "-//W3C//DTD SVG 1.1//EN" "http://www.w3.org/Graphics/SVG/1.1/DTD/svg11.dtd">
<!-- Creator: CorelDRAW X8 -->
<svg xmlns="http://www.w3.org/2000/svg" xml:space="preserve" width="40mm" height="60mm" version="1.1" style="shape-rendering:geometricPrecision; text-rendering:geometricPrecision; image-rendering:optimizeQuality; fill-rule:evenodd; clip-rule:evenodd"
viewBox="0 0 4000 6000"
 xmlns:xlink="http://www.w3.org/1999/xlink">
 <defs>
  <style type="text/css">
   <![CDATA[
    .str0 {stroke:black;stroke-width:7.62}
    .fil0 {fill:none}
   ]]>
  </style>
 </defs>
 <g id="图层_x0020_1">
  <metadata id="CorelCorpID_0Corel-Layer"/>
  <path class="fil0 str0" d="M1010 5350l1828 -3c22,0 33,-2 50,-17l260 -229c6,-5 7,-10 7,-16l0 -4162c0,-17 -4,-27 -19,-43l-237 -206c-22,-20 -34,-24 -70,-24l-1679 3c-10,0 -12,1 -16,4l-283 256c-6,5 -6,7 -6,14l0 4156c0,11 -1,12 7,19l272 239c9,8 13,9 28,9l33 0m1693 -4493c-1,-6 -5,-11 -15,-12 -35,0 -64,29 -64,64 0,35 29,64 64,64 35,0 63,-29 63,-64 0,-35 -28,-64 -63,-64m-959 -29c-6,-23 -19,-41 -74,-41l-48 0c-25,0 -45,20 -45,45l0 0c0,25 20,46 45,46l439 0c25,0 45,-21 45,-46l0 0c0,-25 -20,-45 -45,-45l-391 0m-291 27c-3,-13 -8,-22 -30,-22l-18 0c-25,0 -45,21 -45,46l0 0c0,25 20,45 45,45l91 0c25,0 46,-20 46,-45l0 0c0,-25 -21,-46 -46,-46l-73 0m-178 22c0,-2 -2,-4 -6,-4 -15,0 -28,12 -28,27 0,15 13,27 28,27 15,0 27,-12 27,-27 0,-15 -12,-27 -27,-27"/>
 </g>
</svg>
