<?xml version="1.0" encoding="UTF-8"?>
<!DOCTYPE svg PUBLIC "-//W3C//DTD SVG 1.1//EN" "http://www.w3.org/Graphics/SVG/1.1/DTD/svg11.dtd">
<!-- Creator: CorelDRAW X8 -->
<svg xmlns="http://www.w3.org/2000/svg" xml:space="preserve" width="40mm" height="60mm" version="1.1" style="shape-rendering:geometricPrecision; text-rendering:geometricPrecision; image-rendering:optimizeQuality; fill-rule:evenodd; clip-rule:evenodd"
viewBox="0 0 4000 6000"
 xmlns:xlink="http://www.w3.org/1999/xlink">
 <defs>
  <style type="text/css">
   <![CDATA[
    .fil0 {fill:#332C2B;fill-rule:nonzero}
   ]]>
  </style>
 </defs>
 <g id="图层_x0020_1">
  <metadata id="CorelCorpID_0Corel-Layer"/>
  <g>
   <path class="fil0" d="M1058 5237l1 -12 0 0 5 1 5 -1 4 0 5 -1 5 -1 4 -1 5 -1 4 -2 5 -1 4 -2 4 -2 4 -3 4 -2 3 -3 4 -3 3 -3 4 -3 3 -3 3 -4 3 -3 2 -4 3 -4 2 -4 2 -4 2 -4 1 -4 2 -5 1 -4 1 -5 1 -4 0 -5 1 -5 11 0 0 6 -1 5 -1 5 -1 6 -1 5 -2 5 -2 4 -2 5 -2 5 -3 4 -2 4 -3 5 -3 4 -4 4 -3 3 -4 4 -4 3 -4 3 -4 3 -4 3 -5 3 -4 2 -5 2 -5 2 -5 2 -5 1 -5 1 -5 1 -5 1 -6 1 -5 0 -6 0 0 0zm0 0c-3,0 -5,-3 -5,-6 0,-3 3,-6 6,-6l-1 12zm-103 -109l12 0 0 0 0 5 0 5 0 5 1 4 1 5 1 4 1 5 2 4 2 4 2 4 2 4 2 4 3 4 2 4 3 3 3 4 3 3 4 3 3 3 4 3 4 2 4 3 4 2 4 2 4 2 5 1 4 2 5 1 4 1 5 1 5 0 5 0 -1 12 -5 0 -5 -1 -6 -1 -5 -1 -5 -1 -5 -2 -5 -2 -5 -2 -5 -2 -4 -3 -4 -2 -5 -3 -4 -3 -4 -4 -3 -3 -4 -4 -3 -3 -4 -4 -3 -4 -3 -5 -2 -4 -3 -5 -2 -4 -2 -5 -2 -5 -1 -5 -1 -5 -1 -5 -1 -5 -1 -5 0 -6 0 -5 0 0zm0 0c0,-3 3,-6 6,-6 3,0 6,3 6,6l-12 0zm111 -102l-1 12 0 0 -4 0 -5 0 -5 0 -5 1 -5 1 -4 1 -5 1 -4 2 -4 2 -4 2 -5 2 -4 2 -3 2 -4 3 -4 3 -3 3 -3 3 -3 3 -3 4 -3 3 -3 4 -2 4 -3 4 -2 4 -1 4 -2 5 -2 4 -1 4 -1 5 -1 5 0 4 0 5 -12 0 1 -6 0 -5 1 -5 1 -5 2 -5 1 -5 2 -5 2 -5 2 -4 3 -5 3 -4 3 -4 3 -4 3 -4 4 -4 3 -3 4 -4 4 -3 4 -3 5 -3 4 -2 5 -3 4 -2 5 -2 5 -1 5 -2 5 -1 5 -1 6 -1 5 0 5 -1 6 0 0 0zm0 0c3,1 5,3 5,6 0,3 -2,6 -6,6l1 -12zm103 109l-11 0 0 0 0 -5 0 -5 -1 -4 -1 -5 0 -5 -2 -4 -1 -4 -1 -5 -2 -4 -2 -4 -2 -4 -3 -4 -2 -4 -3 -3 -3 -4 -3 -3 -3 -4 -3 -3 -4 -3 -4 -2 -3 -3 -4 -2 -4 -2 -5 -2 -4 -2 -4 -2 -5 -1 -4 -2 -5 -1 -5 0 -5 -1 -5 0 1 -12 5 1 6 0 5 1 5 1 5 2 5 1 5 2 5 2 5 2 4 3 5 3 4 3 4 3 4 3 4 3 3 4 4 4 3 4 3 4 3 4 3 4 2 5 2 4 2 5 2 5 1 5 2 5 1 5 0 5 1 6 0 5 0 5 0 0zm0 0c0,4 -3,6 -6,6 -3,0 -5,-3 -5,-6l11 0zm-467 -4418c-3,-1 -4,-5 -3,-7 1,-3 5,-5 8,-4l-5 11zm168 -10l1 11 1 0 -8 1 -7 1 -7 1 -7 1 -7 1 -6 1 -7 1 -6 0 -7 1 -6 0 -6 1 -6 0 -5 0 -6 0 -6 0 -5 0 -5 0 -5 0 -5 0 -5 0 -5 -1 -4 0 -5 -1 -4 0 -4 -1 -4 -1 -4 -1 -4 0 -4 -1 -3 -2 -3 -1 -4 -1 5 -11 2 2 4 1 3 1 3 1 4 0 3 1 4 1 4 1 4 0 4 1 4 0 5 0 4 1 5 0 5 0 5 0 5 0 6 0 5 0 6 0 5 -1 6 0 6 -1 7 0 6 -1 6 0 7 -1 7 -1 6 -1 7 -1 7 -1 8 -1 0 0zm0 0c3,-1 6,1 6,4 1,4 -1,6 -4,7l-2 -11zm2194 -17l-1 11 0 0 -30 -3 -38 -3 -44 -2 -50 -3 -57 -2 -62 -2 -66 -2 -71 -1 -75 -1 -78 -1 -82 -1 -83 -1 -86 0 -87 0 -89 0 -89 0 -88 1 -89 1 -88 1 -86 1 -84 2 -82 2 -80 2 -76 2 -72 2 -68 3 -63 3 -58 3 -52 4 -47 4 -39 4 -33 4 -1 -11 33 -5 39 -4 47 -3 52 -4 58 -3 64 -3 68 -3 72 -2 76 -3 79 -2 83 -2 84 -1 86 -1 88 -2 88 0 89 -1 89 0 89 0 87 0 86 0 83 1 82 0 78 1 75 2 71 1 67 2 62 2 56 2 51 2 44 3 38 3 30 3 0 0zm0 0c3,0 6,3 5,6 0,3 -3,5 -6,5l1 -11zm193 189l-11 2 0 0 -1 -11 -1 -9 -2 -10 -1 -9 -2 -9 -2 -9 -2 -8 -2 -8 -3 -7 -2 -8 -4 -7 -3 -7 -3 -6 -4 -6 -5 -6 -4 -6 -5 -5 -6 -5 -6 -5 -6 -5 -7 -4 -7 -4 -8 -4 -8 -3 -9 -3 -10 -3 -10 -3 -10 -3 -12 -2 -12 -2 -13 -2 -13 -1 1 -11 14 1 13 2 12 2 12 2 11 3 11 3 10 3 9 3 9 4 8 4 8 4 7 5 7 5 7 5 6 6 5 6 5 6 5 6 4 7 4 7 4 7 3 8 3 8 3 8 2 8 2 9 2 9 2 9 2 9 1 10 1 10 1 10 0 0zm0 0c1,3 -1,6 -5,7 -3,0 -5,-2 -6,-5l11 -2zm12 4268l-11 -2 0 1 6 -85 6 -97 5 -110 4 -122 3 -132 3 -141 2 -149 2 -156 1 -163 1 -168 0 -172 -1 -175 0 -178 -1 -178 -2 -179 -1 -178 -2 -175 -3 -173 -2 -169 -2 -164 -3 -157 -3 -151 -3 -143 -2 -133 -3 -123 -3 -113 -3 -100 -2 -87 -3 -72 -2 -58 -2 -41 -2 -23 11 -2 2 25 2 41 3 57 2 73 3 87 2 100 3 112 3 124 3 133 2 143 3 150 3 158 2 164 3 169 2 173 2 175 2 178 1 179 1 178 1 178 0 175 0 172 -1 168 -1 163 -1 156 -3 150 -2 141 -4 132 -4 121 -5 110 -5 98 -7 85 0 0zm0 0c0,3 -3,5 -6,5 -3,-1 -5,-3 -5,-6l11 1zm-158 161l-2 -11 0 0 9 -2 9 -2 9 -2 8 -2 8 -2 7 -3 7 -2 7 -3 7 -3 6 -3 6 -4 5 -3 6 -4 5 -4 4 -4 5 -5 4 -5 4 -4 4 -6 3 -5 4 -5 3 -6 3 -6 2 -7 3 -6 2 -7 2 -7 2 -7 1 -8 2 -8 1 -8 1 -9 11 2 -1 8 -1 9 -2 8 -1 8 -2 8 -2 7 -3 8 -2 7 -3 6 -3 7 -3 6 -4 6 -4 6 -4 6 -4 5 -5 5 -5 5 -5 4 -6 5 -5 4 -6 4 -7 4 -6 3 -7 3 -8 3 -7 3 -8 3 -8 2 -9 2 -9 2 -9 2 -9 2 0 0zm0 0c-3,0 -6,-2 -7,-5 0,-3 2,-6 5,-6l2 11zm-2199 15l2 -12 -1 0 39 5 45 4 51 4 55 3 61 3 64 3 69 3 72 2 75 2 78 1 80 2 82 0 84 1 85 0 85 0 86 0 86 -1 85 -1 84 -1 83 -2 81 -2 79 -2 77 -2 74 -3 70 -3 67 -4 62 -3 58 -4 53 -5 48 -4 42 -5 36 -5 2 11 -36 5 -43 5 -48 5 -53 4 -58 4 -63 4 -66 3 -71 3 -74 3 -76 3 -79 2 -82 2 -83 1 -84 2 -85 1 -86 0 -86 1 -85 0 -85 -1 -84 0 -82 -1 -80 -1 -78 -2 -76 -2 -72 -2 -68 -2 -65 -3 -60 -3 -56 -4 -51 -4 -45 -4 -39 -4 0 0zm0 0c-3,-1 -5,-4 -5,-7 0,-3 3,-5 6,-5l-1 12zm-191 -216l11 0 0 0 1 11 0 10 2 10 1 10 2 10 2 9 3 9 3 9 3 9 3 8 4 8 5 8 4 7 5 7 5 7 6 6 6 7 6 6 6 5 7 6 7 5 8 5 8 4 8 5 8 4 9 3 9 4 10 3 10 3 10 2 10 2 11 2 -2 12 -11 -2 -11 -3 -10 -2 -11 -3 -9 -4 -10 -3 -9 -4 -9 -4 -9 -5 -8 -5 -8 -5 -8 -5 -7 -6 -7 -6 -6 -6 -7 -7 -6 -7 -5 -7 -5 -8 -5 -8 -5 -8 -4 -8 -4 -9 -3 -9 -3 -9 -3 -10 -2 -10 -2 -10 -2 -10 -1 -11 -1 -11 0 -11 0 0zm0 0c0,-3 2,-6 5,-6 4,0 6,3 6,6l-11 0zm-9 -4238l11 1 0 0 -2 42 -3 60 -2 75 -2 90 -1 103 -1 115 -1 127 -1 137 0 146 -1 154 0 161 0 167 1 171 0 175 1 178 1 178 1 180 1 178 1 176 1 174 2 169 1 165 1 158 2 150 1 142 2 133 1 122 1 110 2 97 1 83 1 69 1 52 -11 0 -1 -52 -1 -68 -2 -84 -1 -97 -1 -110 -2 -122 -1 -133 -1 -142 -2 -150 -1 -158 -2 -165 -1 -169 -1 -173 -1 -177 -1 -178 -1 -179 -1 -179 -1 -178 0 -175 -1 -171 0 -167 0 -161 0 -154 1 -146 0 -137 1 -127 1 -115 2 -104 2 -89 2 -76 2 -59 3 -43 0 0zm0 0c0,-3 3,-6 6,-5 3,0 6,3 5,6l-11 -1zm158 -162l2 11 -1 0 -8 1 -9 2 -8 1 -8 2 -8 2 -7 2 -7 3 -6 3 -7 3 -6 3 -6 3 -5 3 -6 4 -5 4 -5 4 -4 5 -5 5 -4 5 -3 5 -4 5 -3 6 -4 6 -3 6 -2 7 -3 6 -2 8 -2 7 -2 8 -2 7 -1 9 -2 8 -1 9 -11 -1 1 -9 1 -9 2 -9 2 -8 2 -8 2 -8 2 -7 3 -8 3 -6 3 -7 4 -7 3 -6 4 -6 4 -5 5 -6 5 -5 5 -5 5 -4 5 -5 6 -4 6 -4 7 -3 6 -4 7 -3 7 -3 8 -2 7 -3 8 -2 9 -2 8 -2 9 -1 9 -1 0 0zm0 0c3,-1 6,2 6,5 1,3 -2,6 -5,6l-1 -11zm171 -61l9 8 -2 2 -2 2 -2 2 -3 3 -3 2 -3 2 -3 2 -4 2 -4 2 -4 2 -4 2 -4 2 -5 2 -5 2 -5 2 -6 2 -5 2 -6 2 -7 2 -6 2 -7 2 -6 2 -8 2 -7 2 -7 2 -8 2 -8 1 -9 2 -8 2 -9 2 -9 2 -9 2 -2 -11 9 -2 9 -2 8 -2 9 -2 8 -2 8 -2 8 -1 7 -2 8 -2 7 -2 6 -2 7 -2 6 -2 6 -2 6 -2 5 -2 6 -2 5 -1 4 -2 5 -2 4 -2 4 -2 4 -2 4 -2 3 -2 3 -2 3 -2 2 -1 2 -2 2 -2 2 -2 1 -2zm0 0c2,-2 6,-2 8,0 3,2 3,5 1,8l-9 -8z"/>
  </g>
 </g>
</svg>
