<?xml version="1.0" encoding="UTF-8"?>
<!DOCTYPE svg PUBLIC "-//W3C//DTD SVG 1.1//EN" "http://www.w3.org/Graphics/SVG/1.1/DTD/svg11.dtd">
<!-- Creator: CorelDRAW X8 -->
<svg xmlns="http://www.w3.org/2000/svg" xml:space="preserve" width="40mm" height="60mm" version="1.1" style="shape-rendering:geometricPrecision; text-rendering:geometricPrecision; image-rendering:optimizeQuality; fill-rule:evenodd; clip-rule:evenodd"
viewBox="0 0 4000 6000"
 xmlns:xlink="http://www.w3.org/1999/xlink">
 <defs>
  <style type="text/css">
   <![CDATA[
    .str0 {stroke:black;stroke-width:7.62;stroke-linejoin:bevel}
    .fil0 {fill:none}
   ]]>
  </style>
 </defs>
 <g id="图层_x0020_1">
  <metadata id="CorelCorpID_0Corel-Layer"/>
  <path class="fil0 str0" d="M965 5071c0,47 9,94 26,138 22,55 66,98 121,118 41,15 84,23 127,23l150 0c17,0 34,-8 46,-21 11,-13 28,-20 46,-20l1038 0c18,0 35,7 46,20 12,13 29,21 47,21l149 0c43,0 86,-8 127,-23 55,-20 99,-63 121,-118 17,-44 26,-91 26,-138l0 -4142c0,-47 -9,-94 -26,-138 -22,-55 -66,-98 -121,-118 -41,-15 -84,-23 -127,-23l-243 0c-9,0 -17,4 -24,10 -6,6 -9,14 -9,23l0 22c0,11 -5,22 -13,30 -8,8 -19,13 -31,13l-882 0c-12,0 -23,-5 -31,-13 -8,-8 -13,-19 -13,-30l0 -22c0,-9 -3,-17 -9,-23 -7,-7 -15,-10 -24,-10l-243 0c-43,0 -86,8 -127,23 -55,20 -99,63 -121,118 -17,44 -26,91 -26,138l0 4142"/>
 </g>
</svg>
