<?xml version="1.0" encoding="UTF-8"?>
<!DOCTYPE svg PUBLIC "-//W3C//DTD SVG 1.1//EN" "http://www.w3.org/Graphics/SVG/1.1/DTD/svg11.dtd">
<!-- Creator: CorelDRAW 2020 (64-Bit) -->
<svg xmlns="http://www.w3.org/2000/svg" xml:space="preserve" width="40mm" height="60mm" version="1.1" style="shape-rendering:geometricPrecision; text-rendering:geometricPrecision; image-rendering:optimizeQuality; fill-rule:evenodd; clip-rule:evenodd"
viewBox="0 0 4000 6000"
 xmlns:xlink="http://www.w3.org/1999/xlink"
 xmlns:xodm="http://www.corel.com/coreldraw/odm/2003">
 <defs>
  <style type="text/css">
   <![CDATA[
    .str0 {stroke:#332C2B;stroke-width:20;stroke-miterlimit:22.9256}
    .fil0 {fill:none}
   ]]>
  </style>
 </defs>
 <g id="图层_x0020_1">
  <metadata id="CorelCorpID_0Corel-Layer"/>
  <path class="fil0 str0" d="M-26377.13 8510.99l0 -622.86c522.34,-0.18 949.67,-427.61 949.67,-950l0 1632.56c0,54.91 45.01,99.94 100,99.94l439.49 0c54.99,0 100,-45.02 100,-99.94l0 -8682.49c0,-54.92 -45,-99.94 -100,-99.94l-439.49 0c-55,0 -100,45.03 -100,99.94l0 1632.45c0,-522.39 -427.33,-949.82 -949.67,-950l0 -605.37c0,-27.5 -22.37,-50 -50.01,-50l-11246.25 0 0 422.7c0,54.99 -45,100 -100,100l-1990.75 0c-55,0 -100,-45 -100,-100l0 -422.7 -680.46 0c-27.65,0 -50.01,22.51 -50.01,50l0 605.37c-522.48,0.03 -949.95,427.52 -949.95,950l0 -1632.45c0,-54.92 -45,-99.94 -100,-99.94l-474.88 0c-55,0 -100,45.03 -100,99.94l0 2386.56 212.25 0c61.4,0 111.65,50.25 111.65,111.65l0 0.01c0,61.4 -50.24,111.65 -111.65,111.65l-212.25 0 0 6072.62c0,54.91 45.01,99.94 100,99.94l474.88 0c54.99,0 100,-45.02 100,-99.94l0 -1632.56c0,522.48 427.47,949.97 949.95,950l0 622.86c0,27.48 22.38,50 50.01,50l2130.94 0 0 -435.3c0,-55 45.02,-100 100,-100l2101.88 0c54.98,0 100,45.02 100,100l0 435.3 448.63 0 0 -435.3c0,-55 45.02,-100 100,-100l1530.37 0c54.98,0 100,45.02 100,100l0 435.3 7505.64 0c27.62,0 50.01,-22.5 50.01,-50zm1097.87 -2233.17c-83.34,95.25 -79.66,412.01 -79.66,412.01l0 -1157.14c0,-49.96 40.88,-90.83 90.83,-90.83l120.97 0c49.95,0 90.83,40.88 90.83,90.83l0 1157.14c0,49.95 -40.87,90.83 -90.83,90.83l-120.97 0c-49.96,0 -90.83,-40.87 -90.83,-90.83m90.21 -2602.74c-128.98,109.81 -120.21,486.29 -120.21,486.29l0 -724.73c0,-70.28 57.51,-127.78 127.79,-127.78l165.23 0c70.28,0 127.79,57.51 127.79,127.78l0 724.73c0,70.27 -57.5,127.78 -127.79,127.78l-165.23 0c-70.29,0 -127.79,-57.5 -127.79,-127.78m30.2 -2030.48c-31.09,38.03 -30.2,163.83 -30.2,163.83l0 -217.12c0,-28.57 23.4,-51.94 51.94,-51.94l76.35 0c28.54,0 51.94,23.4 51.94,51.94l0 217.12c0,28.54 -23.37,51.94 -51.94,51.94l-76.35 0c-28.57,0 -51.94,-23.37 -51.94,-51.94m-15918.28 3995.64l0 -1393.56c0,-495 405,-899.99 899.99,-899.99l1605.21 0c495.01,0 899.99,404.99 899.99,899.99l0 1393.56c0,495 -404.98,899.99 -899.99,899.99l-1605.21 0c-494.99,0 -899.99,-404.99 -899.99,-899.99zm85.36 -52.84l0 -1287.88c0,-457.47 374.28,-831.76 831.76,-831.76l1570.95 0c457.48,0 831.76,374.29 831.76,831.76l0 1287.88c0,457.47 -374.28,831.76 -831.76,831.76l-1570.95 0c-457.48,0 -831.76,-374.29 -831.76,-831.76zm696.58 658.46c-189.18,-31.75 -582.67,-213.39 -582.67,-597.39 0,-384 311.28,-695.28 695.28,-695.28 384,0 695.28,311.28 695.28,695.28 0,384 -311.28,695.28 -695.28,695.28 -384,0 -695.28,-311.28 -695.28,-695.28m2184.58 597.39c-189.18,-31.75 -582.67,-213.39 -582.67,-597.39 0,-384 311.28,-695.28 695.28,-695.28 384,0 695.28,311.28 695.28,695.28 0,384 -311.28,695.28 -695.28,695.28 -384,0 -695.28,-311.28 -695.28,-695.28m-226.96 -801.54c-189.18,-31.75 -582.67,-213.39 -582.67,-597.39 0,-384 311.28,-695.28 695.28,-695.28 384,0 695.28,311.28 695.28,695.28 0,384 -311.28,695.28 -695.28,695.28 -384,0 -695.28,-311.28 -695.28,-695.28m-477.2 244.61c-80.63,-13.53 -248.34,-90.95 -248.34,-254.61 0,-163.66 132.67,-296.33 296.33,-296.33 163.66,0 296.33,132.67 296.33,296.33 0,163.66 -132.67,296.33 -296.33,296.33 -163.66,0 -296.33,-132.67 -296.33,-296.33"/>
  <path class="fil0 str0" d="M838.98 4927.19l167.94 0c0.05,140.84 115.29,256.06 256.14,256.06l-440.18 0c-14.81,0 -26.95,12.13 -26.95,26.96l0 118.5c0,14.83 12.14,26.96 26.95,26.96l2341.04 0c14.81,0 26.94,-12.13 26.94,-26.96l0 -118.5c0,-14.83 -12.14,-26.96 -26.94,-26.96l-440.16 0c140.85,0 256.1,-115.22 256.15,-256.06l163.22 0c7.42,0 13.49,-6.03 13.49,-13.48l0 -3032.3 -113.98 0c-14.82,0 -26.96,-12.13 -26.96,-26.96l0 -536.76c0,-14.83 12.13,-26.97 26.96,-26.97l113.98 0 0 -183.47c0,-7.45 -6.07,-13.48 -13.49,-13.48l-163.22 0c-0.01,-140.88 -115.27,-256.13 -256.15,-256.13l440.16 0c14.81,0 26.94,-12.14 26.94,-26.97l0 -128.04c0,-14.83 -12.14,-26.96 -26.94,-26.96l-643.48 0 0 57.23c0,16.55 -13.55,30.1 -30.11,30.1l0 0c-16.56,0 -30.11,-13.54 -30.11,-30.1l0 -57.23 -1637.34 0c-14.81,0 -26.95,12.14 -26.95,26.96l0 128.04c0,14.83 12.14,26.97 26.95,26.97l440.18 0c-140.87,0 -256.13,115.25 -256.14,256.13l-167.94 0c-7.41,0 -13.48,6.03 -13.48,13.48l0 574.56 117.36 0c14.83,0 26.97,12.14 26.97,26.97l0 566.72c0,14.82 -12.14,26.96 -26.97,26.96l-117.36 0 0 120.97 117.36 0c14.83,0 26.97,12.13 26.97,26.96l0 412.63c0,14.82 -12.14,26.96 -26.97,26.96l-117.36 0 0 2023.73c0,7.44 6.06,13.48 13.48,13.48zm602.12 296.02c-25.68,-22.47 -111.09,-21.48 -111.09,-21.48l312 0c13.47,0 24.49,11.02 24.49,24.49l0 32.61c0,13.47 -11.02,24.5 -24.49,24.5l-312 0c-13.47,0 -24.49,-11.02 -24.49,-24.5l0 -32.61c0,-13.47 11.02,-24.49 24.49,-24.49m701.77 24.32c-29.61,-34.78 -131.12,-32.41 -131.12,-32.41l195.41 0c18.95,0 34.45,15.51 34.45,34.45l0 44.56c0,18.94 -15.5,34.45 -34.45,34.45l-195.41 0c-18.94,0 -34.45,-15.5 -34.45,-34.45l0 -44.56c0,-18.95 15.5,-34.45 34.45,-34.45m547.48 8.14c-10.26,-8.38 -44.18,-8.14 -44.18,-8.14l58.55 0c7.7,0 14,6.31 14,14l0 20.59c0,7.69 -6.31,14 -14,14l-58.55 0c-7.69,0 -14,-6.3 -14,-14l0 -20.59c0,-7.7 6.3,-14 14,-14m-1077.33 -4292l375.74 0c133.47,0 242.66,109.2 242.66,242.66l0 432.81c0,133.46 -109.19,242.66 -242.66,242.66l-375.74 0c-133.47,0 -242.66,-109.2 -242.66,-242.66l0 -432.81c0,-133.46 109.19,-242.66 242.66,-242.66zm14.25 23.01l347.25 0c123.34,0 224.26,100.92 224.26,224.27l0 423.57c0,123.35 -100.92,224.26 -224.26,224.26l-347.25 0c-123.35,0 -224.27,-100.91 -224.27,-224.26l0 -423.57c0,-123.35 100.92,-224.27 224.27,-224.27zm-177.54 187.82c8.56,-51.01 57.53,-157.11 161.07,-157.11 103.54,0 187.47,83.93 187.47,187.47 0,103.54 -83.93,187.47 -187.47,187.47 -103.54,0 -187.47,-83.93 -187.47,-187.47 0,-103.54 83.93,-187.47 187.47,-187.47m-161.07 589.03c8.56,-51.01 57.53,-157.11 161.07,-157.11 103.54,0 187.47,83.93 187.47,187.47 0,103.54 -83.93,187.47 -187.47,187.47 -103.54,0 -187.47,-83.93 -187.47,-187.47 0,-103.54 83.93,-187.47 187.47,-187.47m216.12 -61.19c8.56,-51.01 57.53,-157.11 161.07,-157.11 103.54,0 187.47,83.93 187.47,187.47 0,103.54 -83.93,187.47 -187.47,187.47 -103.54,0 -187.47,-83.93 -187.47,-187.47 0,-103.54 83.93,-187.47 187.47,-187.47m-65.95 -128.66c3.65,-21.74 24.52,-66.96 68.65,-66.96 44.12,0 79.9,35.77 79.9,79.9 0,44.13 -35.78,79.9 -79.9,79.9 -44.13,0 -79.9,-35.77 -79.9,-79.9 0,-44.13 35.77,-79.9 79.9,-79.9"/>
 </g>
</svg>
