<?xml version="1.0" encoding="UTF-8"?>
<!DOCTYPE svg PUBLIC "-//W3C//DTD SVG 1.1//EN" "http://www.w3.org/Graphics/SVG/1.1/DTD/svg11.dtd">
<!-- Creator: CorelDRAW X8 -->
<svg xmlns="http://www.w3.org/2000/svg" xml:space="preserve" width="40mm" height="60mm" version="1.1" style="shape-rendering:geometricPrecision; text-rendering:geometricPrecision; image-rendering:optimizeQuality; fill-rule:evenodd; clip-rule:evenodd"
viewBox="0 0 4000 6000"
 xmlns:xlink="http://www.w3.org/1999/xlink">
 <defs>
  <style type="text/css">
   <![CDATA[
    .str0 {stroke:#332C2B;stroke-width:7.62}
    .fil0 {fill:none}
   ]]>
  </style>
 </defs>
 <g id="图层_x0020_1">
  <metadata id="CorelCorpID_0Corel-Layer"/>
  <path class="fil0 str0" d="M972 5350l1887 0c132,0 241,-108 241,-241l0 -4218c0,-133 -109,-241 -241,-241l-1718 0c-132,0 -241,108 -241,241l0 4218c0,133 109,241 241,241l118 0m8 -4546l437 0c66,0 120,54 120,121l0 858c0,67 -54,121 -120,121l-437 0c-66,0 -121,-54 -121,-121l0 -858c0,-67 55,-121 121,-121zm0 36l437 0c46,0 84,38 84,85l0 858c0,47 -38,85 -84,85l-437 0c-46,0 -85,-38 -85,-85l0 -858c0,-47 39,-85 85,-85zm360 847c-12,4 -22,8 -22,30l0 11c0,25 21,46 46,46l0 0c24,0 45,-21 45,-46l0 -194c0,-25 -20,-45 -45,-45l0 0c-25,0 -46,20 -46,45l0 183m-217 -844c-1,-12 -11,-24 -34,-25 -79,0 -143,64 -143,143 0,79 64,143 143,143 80,0 144,-64 144,-143 0,-79 -64,-143 -144,-143m34 390c-1,-12 -11,-24 -34,-26 -79,0 -143,65 -143,144 0,79 64,143 143,143 80,0 144,-64 144,-143 0,-79 -64,-144 -144,-144m34 386c-1,-12 -11,-23 -34,-25 -79,0 -143,64 -143,143 0,79 64,143 143,143 80,0 144,-64 144,-143 0,-79 -64,-143 -144,-143"/>
 </g>
</svg>
