<?xml version="1.0" encoding="UTF-8"?>
<!DOCTYPE svg PUBLIC "-//W3C//DTD SVG 1.1//EN" "http://www.w3.org/Graphics/SVG/1.1/DTD/svg11.dtd">
<!-- Creator: CorelDRAW 2020 (64-Bit) -->
<svg xmlns="http://www.w3.org/2000/svg" xml:space="preserve" width="40mm" height="60mm" version="1.1" style="shape-rendering:geometricPrecision; text-rendering:geometricPrecision; image-rendering:optimizeQuality; fill-rule:evenodd; clip-rule:evenodd"
viewBox="0 0 4000 6000"
 xmlns:xlink="http://www.w3.org/1999/xlink"
 xmlns:xodm="http://www.corel.com/coreldraw/odm/2003">
 <defs>
  <style type="text/css">
   <![CDATA[
    .str1 {stroke:#332C2B;stroke-width:20;stroke-miterlimit:22.9256}
    .str2 {stroke:#332C2B;stroke-width:20;stroke-miterlimit:22.9256}
    .str0 {stroke:#E62129;stroke-width:20;stroke-miterlimit:22.9256}
    .fil0 {fill:none}
   ]]>
  </style>
   <clipPath id="id0">
    <rect x="-46606.26" y="-5948.89" width="19408.41" height="17666.64"/>
   </clipPath>
 </defs>
 <g id="图层_x0020_1">
  <metadata id="CorelCorpID_0Corel-Layer"/>
  <g style="clip-path:url(#id0)">
   <image x="-46606.26" y="-5948.89" width="19408.41" height="17666.64" xlink:href="Xperia Pro -11i（背膜）_Images\Xperia Pro -11i（背膜）_ImgID1.png"/>
  </g>
  <rect class="fil0 str0" x="-44727.56" y="-5576.29" width="7620" height="17020"/>
  <path class="fil0 str0" d="M-43701.12 -5137.08l1284.5 0 0 240.28c0,123.69 101.18,224.86 224.85,224.86l0 0c123.69,0 224.87,-101.17 224.87,-224.86l0 -240.28 157.36 0c105.25,0 151.25,149.9 232.26,149.9l1305.94 0c81.01,0 142.18,-149.9 263.25,-149.9l1851.21 0c328.88,0 597.97,270.01 597.97,599.99l0 14843.45c0,330 -269.09,600 -597.97,600l-5544.24 0c-328.88,0 -597.97,-270 -597.97,-600l0 -14843.45c0,-330 269.09,-599.99 597.97,-599.99z"/>
  <rect class="fil0 str0" x="-36642.47" y="-5576.29" width="7620" height="17020"/>
  <rect class="fil0 str0" x="-36282.2" y="-5184.7" width="6923.29" height="16362.72" rx="700" ry="782.15"/>
  <rect class="fil0 str1" x="-35709.31" y="-4368.79" width="1468.43" height="4458.89" rx="800" ry="840.87"/>
  <circle class="fil0 str1" cx="-35307.8" cy="-4628.72" r="246.14"/>
  <circle class="fil0 str1" cx="-34639" cy="-4628.72" r="246.14"/>
  <path class="fil0 str2" d="M-2250.79 6126.17l0 -5881.81c0,-384.99 -315.01,-700 -700.01,-700l-14962.71 0c-385.01,0 -700,315 -700,700l0 5523.3c0,385 314.99,700 700,700l14962.71 0c385.01,0 700.01,-315 700.01,-700 0,-385 43.84,-495.12 103.37,-575.82"/>
  <path class="fil0 str2" d="M-17797.61 5160.56c0,403.82 330.39,734.21 734.21,734.21l2990.47 0c403.82,0 734.21,-330.39 734.21,-734.21l0 -0.01c0,-403.82 -330.39,-734.21 -734.21,-734.21l-2990.47 0c-403.83,0 -734.21,330.39 -734.21,734.22 0,403.83 478.98,630.14 709.16,669.83"/>
  <path class="fil0 str2" d="M-18303.68 5493.26c0,135.94 110.2,246.14 246.14,246.14 135.94,0 246.14,-110.2 246.14,-246.14 0,-135.94 -110.2,-246.14 -246.14,-246.14 -135.94,0 -246.14,110.2 -246.14,246.14 0,135.94 156.23,205.55 202.54,211.51"/>
  <path class="fil0 str2" d="M-18303.68 4824.46c0,135.94 110.2,246.14 246.14,246.14 135.94,0 246.14,-110.2 246.14,-246.14 0,-135.94 -110.2,-246.14 -246.14,-246.14 -135.94,0 -246.14,110.2 -246.14,246.14 0,135.94 162.84,195.69 211.79,200.32"/>
  <g id="_1667293579040">
   <path class="fil0 str2" d="M1102.8 5326.17l1678.87 0c109.89,0 199.81,-89.92 199.81,-199.81l0 -4270.88c0,-109.9 -89.92,-199.81 -199.81,-199.81l-1576.54 0c-109.89,0 -199.81,89.91 -199.81,199.81l0 4270.88c0,109.89 89.92,199.81 199.81,199.81 109.89,0 141.32,12.51 164.36,29.5"/>
   <path class="fil0 str2" d="M1378.42 888.56c-115.27,0 -209.57,94.3 -209.57,209.57l0 853.58c0,115.27 94.3,209.57 209.57,209.57l0 0c115.26,0 209.57,-94.3 209.57,-209.57l0 -853.58c0,-115.27 -94.31,-209.57 -209.57,-209.57 -115.27,0 -179.87,136.72 -191.2,202.42"/>
   <path class="fil0 str2" d="M1283.45 744.11c-38.8,0 -70.25,31.45 -70.25,70.25 0,38.81 31.45,70.26 70.25,70.26 38.8,0 70.26,-31.45 70.26,-70.26 0,-38.8 -31.46,-70.25 -70.26,-70.25 -38.8,0 -58.67,44.59 -60.37,57.81"/>
   <path class="fil0 str2" d="M1474.35 744.11c-38.8,0 -70.26,31.45 -70.26,70.25 0,38.81 31.46,70.26 70.26,70.26 38.8,0 70.26,-31.45 70.26,-70.26 0,-38.8 -31.46,-70.25 -70.26,-70.25 -38.8,0 -55.86,46.48 -57.18,60.45"/>
  </g>
 </g>
</svg>
