<?xml version="1.0" encoding="UTF-8"?>
<!DOCTYPE svg PUBLIC "-//W3C//DTD SVG 1.1//EN" "http://www.w3.org/Graphics/SVG/1.1/DTD/svg11.dtd">
<!-- Creator: CorelDRAW 2020 (64-Bit) -->
<svg xmlns="http://www.w3.org/2000/svg" xml:space="preserve" width="40mm" height="60mm" version="1.1" style="shape-rendering:geometricPrecision; text-rendering:geometricPrecision; image-rendering:optimizeQuality; fill-rule:evenodd; clip-rule:evenodd"
viewBox="0 0 4000 6000"
 xmlns:xlink="http://www.w3.org/1999/xlink"
 xmlns:xodm="http://www.corel.com/coreldraw/odm/2003">
 <defs>
  <style type="text/css">
   <![CDATA[
    .str0 {stroke:#332C2B;stroke-width:7.62;stroke-miterlimit:22.9256}
    .fil0 {fill:none}
   ]]>
  </style>
 </defs>
 <g id="图层_x0020_1">
  <metadata id="CorelCorpID_0Corel-Layer"/>
  <path class="fil0 str0" d="M2031.65 1268.12c5.26,-33.83 -23.18,-57.54 -37.3,-58.63 -50.2,0 -90.89,40.7 -90.89,90.9 0,50.2 40.69,90.9 90.89,90.9 50.21,0 90.9,-40.7 90.9,-90.9 0,-50.2 -40.69,-90.9 -90.9,-90.9m37.3 415.74c5.26,-33.83 -23.18,-57.54 -37.3,-58.63 -50.2,0 -90.89,40.7 -90.89,90.9 0,50.2 40.69,90.9 90.89,90.9 50.21,0 90.9,-40.7 90.9,-90.9 0,-50.2 -40.69,-90.9 -90.9,-90.9m-0.15 -413.13l0 0c79.91,0 145.3,65.39 145.3,145.3l0 356.75c0,79.92 -65.39,145.3 -145.3,145.3l0 0c-79.92,0 -145.31,-65.38 -145.31,-145.3l0 -356.75c0,-79.91 65.39,-145.3 145.31,-145.3zm-3.08 -43.59l0 0c102.52,0 186.39,83.87 186.39,186.39l0 365.27c0,102.51 -83.87,186.38 -186.39,186.38l0 0c-102.52,0 -186.39,-83.87 -186.39,-186.38l0 -365.27c0,-102.52 83.87,-186.39 186.39,-186.39zm35.55 877.01c4.56,-29.31 -20.08,-49.86 -32.32,-50.81 -43.5,0 -78.77,35.28 -78.77,78.78 0,43.51 35.27,78.78 78.77,78.78 43.51,0 78.78,-35.27 78.78,-78.78 0,-43.5 -35.27,-78.78 -78.78,-78.78m-1025.09 3385.7l1855.04 0c172.09,0 312.9,-140.8 312.9,-312.91l0 -4040.29c0,-172.1 -140.8,-312.91 -312.9,-312.91l-1661.79 0c-172.1,0 -312.91,140.81 -312.91,312.91l0 4040.29c0,172.11 140.81,312.91 312.91,312.91l61.28 0c144.64,0 215.29,17.19 264.56,33.89"/>
 </g>
</svg>
