<?xml version="1.0" encoding="UTF-8"?>
<!DOCTYPE svg PUBLIC "-//W3C//DTD SVG 1.1//EN" "http://www.w3.org/Graphics/SVG/1.1/DTD/svg11.dtd">
<!-- Creator: CorelDRAW X8 -->
<svg xmlns="http://www.w3.org/2000/svg" xml:space="preserve" width="40mm" height="60mm" version="1.1" style="shape-rendering:geometricPrecision; text-rendering:geometricPrecision; image-rendering:optimizeQuality; fill-rule:evenodd; clip-rule:evenodd"
viewBox="0 0 4000 6000"
 xmlns:xlink="http://www.w3.org/1999/xlink">
 <defs>
  <style type="text/css">
   <![CDATA[
    .str0 {stroke:black;stroke-width:7.62}
    .fil0 {fill:none}
   ]]>
  </style>
 </defs>
 <g id="图层_x0020_1">
  <metadata id="CorelCorpID_0Corel-Layer"/>
  <g id="_2184500354656">
   <path class="fil0 str0" d="M499 2050l754 0c83,0 151,-68 151,-150l0 -1099c0,-83 -68,-151 -151,-151l-591 0c-83,0 -150,68 -150,151l0 1099c0,82 67,150 150,150 83,0 137,50 137,78"/>
   <path class="fil0 str0" d="M499 3661l754 0c83,0 151,-68 151,-151l0 -1099c0,-82 -68,-150 -151,-150l-591 0c-83,0 -150,68 -150,150l0 1099c0,83 67,151 150,151 83,0 137,49 137,78"/>
   <path class="fil0 str0" d="M499 5272l754 0c83,0 151,-68 151,-151l0 -1099c0,-83 -68,-150 -151,-150l-591 0c-83,0 -150,67 -150,150l0 1099c0,83 67,151 150,151 83,0 137,49 137,78"/>
   <path class="fil0 str0" d="M1548 2050l754 0c83,0 150,-68 150,-150l0 -1099c0,-83 -67,-151 -150,-151l-591 0c-83,0 -151,68 -151,151l0 1099c0,82 68,150 151,150 83,0 136,50 136,78"/>
   <path class="fil0 str0" d="M1548 3661l754 0c83,0 150,-68 150,-151l0 -1099c0,-82 -67,-150 -150,-150l-591 0c-83,0 -151,68 -151,150l0 1099c0,83 68,151 151,151 83,0 136,49 136,78"/>
   <path class="fil0 str0" d="M1548 5272l754 0c83,0 150,-68 150,-151l0 -1099c0,-83 -67,-150 -150,-150l-591 0c-83,0 -151,67 -151,150l0 1099c0,83 68,151 151,151 83,0 136,49 136,78"/>
   <path class="fil0 str0" d="M2596 2050l755 0c83,0 150,-68 150,-150l0 -1099c0,-83 -67,-151 -150,-151l-591 0c-83,0 -151,68 -151,151l0 1099c0,82 68,150 151,150 83,0 136,50 136,78"/>
   <path class="fil0 str0" d="M2596 3661l755 0c83,0 150,-68 150,-151l0 -1099c0,-82 -67,-150 -150,-150l-591 0c-83,0 -151,68 -151,150l0 1099c0,83 68,151 151,151 83,0 136,49 136,78"/>
   <path class="fil0 str0" d="M2596 5272l755 0c83,0 150,-68 150,-151l0 -1099c0,-83 -67,-150 -150,-150l-591 0c-83,0 -151,67 -151,150l0 1099c0,83 68,151 151,151 83,0 136,49 136,78"/>
   <path class="fil0 str0" d="M692 697l524 0c75,0 137,61 137,136l0 1033c0,75 -62,137 -137,137l-524 0c-76,0 -137,-62 -137,-137l0 -1033c0,-75 61,-136 137,-136z"/>
   <path class="fil0 str0" d="M692 2307l524 0c75,0 137,62 137,137l0 1033c0,75 -62,136 -137,136l-524 0c-76,0 -137,-61 -137,-136l0 -1033c0,-75 61,-137 137,-137z"/>
   <path class="fil0 str0" d="M692 3918l524 0c75,0 137,62 137,137l0 1032c0,76 -62,137 -137,137l-524 0c-76,0 -137,-61 -137,-137l0 -1032c0,-75 61,-137 137,-137z"/>
   <path class="fil0 str0" d="M1741 697l524 0c75,0 137,61 137,136l0 1033c0,75 -62,137 -137,137l-524 0c-76,0 -137,-62 -137,-137l0 -1033c0,-75 61,-136 137,-136z"/>
   <path class="fil0 str0" d="M1741 2307l524 0c75,0 137,62 137,137l0 1033c0,75 -62,136 -137,136l-524 0c-76,0 -137,-61 -137,-136l0 -1033c0,-75 61,-137 137,-137z"/>
   <path class="fil0 str0" d="M1741 3918l524 0c75,0 137,62 137,137l0 1032c0,76 -62,137 -137,137l-524 0c-76,0 -137,-61 -137,-137l0 -1032c0,-75 61,-137 137,-137z"/>
   <path class="fil0 str0" d="M2789 697l525 0c75,0 136,61 136,136l0 1033c0,75 -61,137 -136,137l-525 0c-75,0 -136,-62 -136,-137l0 -1033c0,-75 61,-136 136,-136z"/>
   <path class="fil0 str0" d="M2789 2307l525 0c75,0 136,62 136,137l0 1033c0,75 -61,136 -136,136l-525 0c-75,0 -136,-61 -136,-136l0 -1033c0,-75 61,-137 136,-137z"/>
   <path class="fil0 str0" d="M2789 3918l525 0c75,0 136,62 136,137l0 1032c0,76 -61,137 -136,137l-525 0c-75,0 -136,-61 -136,-137l0 -1032c0,-75 61,-137 136,-137z"/>
   <path class="fil0 str0" d="M802 1662c-1,-16 -14,-30 -42,-32 -98,0 -178,80 -178,178 0,98 80,178 178,178 99,0 178,-80 178,-178 0,-98 -79,-178 -178,-178"/>
   <path class="fil0 str0" d="M802 3272c-1,-15 -14,-29 -42,-31 -98,0 -178,80 -178,178 0,98 80,178 178,178 99,0 178,-80 178,-178 0,-98 -79,-178 -178,-178"/>
   <path class="fil0 str0" d="M802 4883c-1,-15 -14,-29 -42,-31 -98,0 -178,79 -178,178 0,98 80,178 178,178 99,0 178,-80 178,-178 0,-99 -79,-178 -178,-178"/>
   <path class="fil0 str0" d="M1851 1662c-1,-16 -14,-30 -42,-32 -98,0 -178,80 -178,178 0,98 80,178 178,178 99,0 178,-80 178,-178 0,-98 -79,-178 -178,-178"/>
   <path class="fil0 str0" d="M1851 3272c-1,-15 -14,-29 -42,-31 -98,0 -178,80 -178,178 0,98 80,178 178,178 99,0 178,-80 178,-178 0,-98 -79,-178 -178,-178"/>
   <path class="fil0 str0" d="M1851 4883c-1,-15 -14,-29 -42,-31 -98,0 -178,79 -178,178 0,98 80,178 178,178 99,0 178,-80 178,-178 0,-99 -79,-178 -178,-178"/>
   <path class="fil0 str0" d="M2900 1662c-1,-16 -14,-30 -42,-32 -98,0 -178,80 -178,178 0,98 80,178 178,178 98,0 178,-80 178,-178 0,-98 -80,-178 -178,-178"/>
   <path class="fil0 str0" d="M2900 3272c-1,-15 -14,-29 -42,-31 -98,0 -178,80 -178,178 0,98 80,178 178,178 98,0 178,-80 178,-178 0,-98 -80,-178 -178,-178"/>
   <path class="fil0 str0" d="M2900 4883c-1,-15 -14,-29 -42,-31 -98,0 -178,79 -178,178 0,98 80,178 178,178 98,0 178,-80 178,-178 0,-99 -80,-178 -178,-178"/>
   <path class="fil0 str0" d="M802 1208c-1,-15 -14,-29 -42,-31 -98,0 -178,79 -178,178 0,98 80,178 178,178 99,0 178,-80 178,-178 0,-99 -79,-178 -178,-178"/>
   <path class="fil0 str0" d="M802 2819c-1,-15 -14,-29 -42,-31 -98,0 -178,79 -178,178 0,98 80,177 178,177 99,0 178,-79 178,-177 0,-99 -79,-178 -178,-178"/>
   <path class="fil0 str0" d="M802 4430c-1,-15 -14,-29 -42,-32 -98,0 -178,80 -178,178 0,99 80,178 178,178 99,0 178,-79 178,-178 0,-98 -79,-178 -178,-178"/>
   <path class="fil0 str0" d="M1851 1208c-1,-15 -14,-29 -42,-31 -98,0 -178,79 -178,178 0,98 80,178 178,178 99,0 178,-80 178,-178 0,-99 -79,-178 -178,-178"/>
   <path class="fil0 str0" d="M1851 2819c-1,-15 -14,-29 -42,-31 -98,0 -178,79 -178,178 0,98 80,177 178,177 99,0 178,-79 178,-177 0,-99 -79,-178 -178,-178"/>
   <path class="fil0 str0" d="M1851 4430c-1,-15 -14,-29 -42,-32 -98,0 -178,80 -178,178 0,99 80,178 178,178 99,0 178,-79 178,-178 0,-98 -79,-178 -178,-178"/>
   <path class="fil0 str0" d="M2900 1208c-1,-15 -14,-29 -42,-31 -98,0 -178,79 -178,178 0,98 80,178 178,178 98,0 178,-80 178,-178 0,-99 -80,-178 -178,-178"/>
   <path class="fil0 str0" d="M2900 2819c-1,-15 -14,-29 -42,-31 -98,0 -178,79 -178,178 0,98 80,177 178,177 98,0 178,-79 178,-177 0,-99 -80,-178 -178,-178"/>
   <path class="fil0 str0" d="M2900 4430c-1,-15 -14,-29 -42,-32 -98,0 -178,80 -178,178 0,99 80,178 178,178 98,0 178,-79 178,-178 0,-98 -80,-178 -178,-178"/>
   <path class="fil0 str0" d="M802 752c-1,-15 -14,-29 -42,-31 -98,0 -178,80 -178,178 0,98 80,178 178,178 99,0 178,-80 178,-178 0,-98 -79,-178 -178,-178"/>
   <path class="fil0 str0" d="M802 2363c-1,-15 -14,-29 -42,-31 -98,0 -178,79 -178,178 0,98 80,178 178,178 99,0 178,-80 178,-178 0,-99 -79,-178 -178,-178"/>
   <path class="fil0 str0" d="M802 3974c-1,-15 -14,-29 -42,-31 -98,0 -178,79 -178,177 0,99 80,178 178,178 99,0 178,-79 178,-178 0,-98 -79,-177 -178,-177"/>
   <path class="fil0 str0" d="M1851 752c-1,-15 -14,-29 -42,-31 -98,0 -178,80 -178,178 0,98 80,178 178,178 99,0 178,-80 178,-178 0,-98 -79,-178 -178,-178"/>
   <path class="fil0 str0" d="M1851 2363c-1,-15 -14,-29 -42,-31 -98,0 -178,79 -178,178 0,98 80,178 178,178 99,0 178,-80 178,-178 0,-99 -79,-178 -178,-178"/>
   <path class="fil0 str0" d="M1851 3974c-1,-15 -14,-29 -42,-31 -98,0 -178,79 -178,177 0,99 80,178 178,178 99,0 178,-79 178,-178 0,-98 -79,-177 -178,-177"/>
   <path class="fil0 str0" d="M2900 752c-1,-15 -14,-29 -42,-31 -98,0 -178,80 -178,178 0,98 80,178 178,178 98,0 178,-80 178,-178 0,-98 -80,-178 -178,-178"/>
   <path class="fil0 str0" d="M2900 2363c-1,-15 -14,-29 -42,-31 -98,0 -178,79 -178,178 0,98 80,178 178,178 98,0 178,-80 178,-178 0,-99 -80,-178 -178,-178"/>
   <path class="fil0 str0" d="M2900 3974c-1,-15 -14,-29 -42,-31 -98,0 -178,79 -178,177 0,99 80,178 178,178 98,0 178,-79 178,-178 0,-98 -80,-177 -178,-177"/>
   <path class="fil0 str0" d="M1215 1718c-1,-8 -9,-17 -25,-18 -57,0 -103,46 -103,103 0,57 46,103 103,103 57,0 103,-46 103,-103 0,-57 -46,-103 -103,-103"/>
   <path class="fil0 str0" d="M1215 3329c-1,-9 -9,-17 -25,-18 -57,0 -103,46 -103,103 0,57 46,103 103,103 57,0 103,-46 103,-103 0,-57 -46,-103 -103,-103"/>
   <path class="fil0 str0" d="M1215 4940c-1,-9 -9,-17 -25,-18 -57,0 -103,46 -103,103 0,57 46,103 103,103 57,0 103,-46 103,-103 0,-57 -46,-103 -103,-103"/>
   <path class="fil0 str0" d="M2264 1718c-1,-8 -9,-17 -25,-18 -57,0 -103,46 -103,103 0,57 46,103 103,103 57,0 103,-46 103,-103 0,-57 -46,-103 -103,-103"/>
   <path class="fil0 str0" d="M2264 3329c-1,-9 -9,-17 -25,-18 -57,0 -103,46 -103,103 0,57 46,103 103,103 57,0 103,-46 103,-103 0,-57 -46,-103 -103,-103"/>
   <path class="fil0 str0" d="M2264 4940c-1,-9 -9,-17 -25,-18 -57,0 -103,46 -103,103 0,57 46,103 103,103 57,0 103,-46 103,-103 0,-57 -46,-103 -103,-103"/>
   <path class="fil0 str0" d="M3312 1718c0,-8 -8,-17 -24,-18 -57,0 -103,46 -103,103 0,57 46,103 103,103 57,0 103,-46 103,-103 0,-57 -46,-103 -103,-103"/>
   <path class="fil0 str0" d="M3312 3329c0,-9 -8,-17 -24,-18 -57,0 -103,46 -103,103 0,57 46,103 103,103 57,0 103,-46 103,-103 0,-57 -46,-103 -103,-103"/>
   <path class="fil0 str0" d="M3312 4940c0,-9 -8,-17 -24,-18 -57,0 -103,46 -103,103 0,57 46,103 103,103 57,0 103,-46 103,-103 0,-57 -46,-103 -103,-103"/>
  </g>
  <path class="fil0 str0" d="M-13992 5968l0 -2014c0,-221 -181,-402 -402,-402l-2934 0c-221,0 -402,181 -402,402l0 1577c0,221 181,402 402,402l2934 0c221,0 402,-181 402,-402 0,-221 132,-364 209,-364"/>
  <path class="fil0 str0" d="M-9692 5968l0 -2014c0,-221 -181,-402 -402,-402l-2934 0c-221,0 -402,181 -402,402l0 1577c0,221 181,402 402,402l2934 0c221,0 402,-181 402,-402 0,-221 132,-364 209,-364"/>
  <path class="fil0 str0" d="M-5392 5968l0 -2014c0,-221 -181,-402 -402,-402l-2934 0c-221,0 -402,181 -402,402l0 1577c0,221 181,402 402,402l2934 0c221,0 402,-181 402,-402 0,-221 132,-364 209,-364"/>
  <path class="fil0 str0" d="M-13992 3168l0 -2014c0,-221 -181,-402 -402,-402l-2934 0c-221,0 -402,181 -402,402l0 1577c0,221 181,402 402,402l2934 0c221,0 402,-181 402,-402 0,-221 132,-364 209,-364"/>
  <path class="fil0 str0" d="M-9692 3168l0 -2014c0,-221 -181,-402 -402,-402l-2934 0c-221,0 -402,181 -402,402l0 1577c0,221 181,402 402,402l2934 0c221,0 402,-181 402,-402 0,-221 132,-364 209,-364"/>
  <path class="fil0 str0" d="M-5392 3168l0 -2014c0,-221 -181,-402 -402,-402l-2934 0c-221,0 -402,181 -402,402l0 1577c0,221 181,402 402,402l2934 0c221,0 402,-181 402,-402 0,-221 132,-364 209,-364"/>
  <path class="fil0 str0" d="M-13992 368l0 -2014c0,-221 -181,-402 -402,-402l-2934 0c-221,0 -402,181 -402,402l0 1577c0,221 181,402 402,402l2934 0c221,0 402,-181 402,-402 0,-221 132,-364 209,-364"/>
  <path class="fil0 str0" d="M-9692 368l0 -2014c0,-221 -181,-402 -402,-402l-2934 0c-221,0 -402,181 -402,402l0 1577c0,221 181,402 402,402l2934 0c221,0 402,-181 402,-402 0,-221 132,-364 209,-364"/>
  <path class="fil0 str0" d="M-5392 368l0 -2014c0,-221 -181,-402 -402,-402l-2934 0c-221,0 -402,181 -402,402l0 1577c0,221 181,402 402,402l2934 0c221,0 402,-181 402,-402 0,-221 132,-364 209,-364"/>
  <path class="fil0 str0" d="M-17606 5453l0 -1399c0,-201 165,-366 366,-366l2755 0c201,0 366,165 366,366l0 1399c0,201 -165,365 -366,365l-2755 0c-201,0 -366,-164 -366,-365z"/>
  <path class="fil0 str0" d="M-13306 5453l0 -1399c0,-201 165,-366 366,-366l2755 0c201,0 366,165 366,366l0 1399c0,201 -165,365 -366,365l-2755 0c-201,0 -366,-164 -366,-365z"/>
  <path class="fil0 str0" d="M-9006 5453l0 -1399c0,-201 165,-366 366,-366l2755 0c201,0 366,165 366,366l0 1399c0,201 -165,365 -366,365l-2755 0c-201,0 -366,-164 -366,-365z"/>
  <path class="fil0 str0" d="M-17606 2653l0 -1399c0,-201 165,-366 366,-366l2755 0c201,0 366,165 366,366l0 1399c0,201 -165,365 -366,365l-2755 0c-201,0 -366,-164 -366,-365z"/>
  <path class="fil0 str0" d="M-13306 2653l0 -1399c0,-201 165,-366 366,-366l2755 0c201,0 366,165 366,366l0 1399c0,201 -165,365 -366,365l-2755 0c-201,0 -366,-164 -366,-365z"/>
  <path class="fil0 str0" d="M-9006 2653l0 -1399c0,-201 165,-366 366,-366l2755 0c201,0 366,165 366,366l0 1399c0,201 -165,365 -366,365l-2755 0c-201,0 -366,-164 -366,-365z"/>
  <path class="fil0 str0" d="M-17606 -147l0 -1399c0,-201 165,-366 366,-366l2755 0c201,0 366,165 366,366l0 1399c0,201 -165,365 -366,365l-2755 0c-201,0 -366,-164 -366,-365z"/>
  <path class="fil0 str0" d="M-13306 -147l0 -1399c0,-201 165,-366 366,-366l2755 0c201,0 366,165 366,366l0 1399c0,201 -165,365 -366,365l-2755 0c-201,0 -366,-164 -366,-365z"/>
  <path class="fil0 str0" d="M-9006 -147l0 -1399c0,-201 165,-366 366,-366l2755 0c201,0 366,165 366,366l0 1399c0,201 -165,365 -366,365l-2755 0c-201,0 -366,-164 -366,-365z"/>
  <path class="fil0 str0" d="M-15029 5157c-41,3 -79,38 -84,112 0,262 212,475 475,475 262,0 475,-213 475,-475 0,-262 -213,-475 -475,-475 -263,0 -475,213 -475,475"/>
  <path class="fil0 str0" d="M-10729 5157c-41,3 -79,38 -84,112 0,262 212,475 475,475 262,0 475,-213 475,-475 0,-262 -213,-475 -475,-475 -263,0 -475,213 -475,475"/>
  <path class="fil0 str0" d="M-6429 5157c-41,3 -79,38 -84,112 0,262 212,475 475,475 262,0 475,-213 475,-475 0,-262 -213,-475 -475,-475 -263,0 -475,213 -475,475"/>
  <path class="fil0 str0" d="M-15029 2357c-41,3 -79,38 -84,112 0,262 212,475 475,475 262,0 475,-213 475,-475 0,-262 -213,-475 -475,-475 -263,0 -475,213 -475,475"/>
  <path class="fil0 str0" d="M-10729 2357c-41,3 -79,38 -84,112 0,262 212,475 475,475 262,0 475,-213 475,-475 0,-262 -213,-475 -475,-475 -263,0 -475,213 -475,475"/>
  <path class="fil0 str0" d="M-6429 2357c-41,3 -79,38 -84,112 0,262 212,475 475,475 262,0 475,-213 475,-475 0,-262 -213,-475 -475,-475 -263,0 -475,213 -475,475"/>
  <path class="fil0 str0" d="M-15029 -443c-41,3 -79,38 -84,112 0,262 212,475 475,475 262,0 475,-213 475,-475 0,-262 -213,-475 -475,-475 -263,0 -475,213 -475,475"/>
  <path class="fil0 str0" d="M-10729 -443c-41,3 -79,38 -84,112 0,262 212,475 475,475 262,0 475,-213 475,-475 0,-262 -213,-475 -475,-475 -263,0 -475,213 -475,475"/>
  <path class="fil0 str0" d="M-6429 -443c-41,3 -79,38 -84,112 0,262 212,475 475,475 262,0 475,-213 475,-475 0,-262 -213,-475 -475,-475 -263,0 -475,213 -475,475"/>
  <path class="fil0 str0" d="M-16240 5157c-40,3 -78,38 -84,112 0,262 213,475 475,475 263,0 475,-213 475,-475 0,-262 -212,-475 -475,-475 -262,0 -475,213 -475,475"/>
  <path class="fil0 str0" d="M-11940 5157c-40,3 -78,38 -84,112 0,262 213,475 475,475 263,0 475,-213 475,-475 0,-262 -212,-475 -475,-475 -262,0 -475,213 -475,475"/>
  <path class="fil0 str0" d="M-7640 5157c-40,3 -78,38 -84,112 0,262 213,475 475,475 263,0 475,-213 475,-475 0,-262 -212,-475 -475,-475 -262,0 -475,213 -475,475"/>
  <path class="fil0 str0" d="M-16240 2357c-40,3 -78,38 -84,112 0,262 213,475 475,475 263,0 475,-213 475,-475 0,-262 -212,-475 -475,-475 -262,0 -475,213 -475,475"/>
  <path class="fil0 str0" d="M-11940 2357c-40,3 -78,38 -84,112 0,262 213,475 475,475 263,0 475,-213 475,-475 0,-262 -212,-475 -475,-475 -262,0 -475,213 -475,475"/>
  <path class="fil0 str0" d="M-7640 2357c-40,3 -78,38 -84,112 0,262 213,475 475,475 263,0 475,-213 475,-475 0,-262 -212,-475 -475,-475 -262,0 -475,213 -475,475"/>
  <path class="fil0 str0" d="M-16240 -443c-40,3 -78,38 -84,112 0,262 213,475 475,475 263,0 475,-213 475,-475 0,-262 -212,-475 -475,-475 -262,0 -475,213 -475,475"/>
  <path class="fil0 str0" d="M-11940 -443c-40,3 -78,38 -84,112 0,262 213,475 475,475 263,0 475,-213 475,-475 0,-262 -212,-475 -475,-475 -262,0 -475,213 -475,475"/>
  <path class="fil0 str0" d="M-7640 -443c-40,3 -78,38 -84,112 0,262 213,475 475,475 263,0 475,-213 475,-475 0,-262 -212,-475 -475,-475 -262,0 -475,213 -475,475"/>
  <path class="fil0 str0" d="M-17457 5157c-40,3 -78,38 -84,112 0,262 213,475 475,475 263,0 475,-213 475,-475 0,-262 -212,-475 -475,-475 -262,0 -475,213 -475,475"/>
  <path class="fil0 str0" d="M-13157 5157c-40,3 -78,38 -84,112 0,262 213,475 475,475 263,0 475,-213 475,-475 0,-262 -212,-475 -475,-475 -262,0 -475,213 -475,475"/>
  <path class="fil0 str0" d="M-8857 5157c-40,3 -78,38 -84,112 0,262 213,475 475,475 263,0 475,-213 475,-475 0,-262 -212,-475 -475,-475 -262,0 -475,213 -475,475"/>
  <path class="fil0 str0" d="M-17457 2357c-40,3 -78,38 -84,112 0,262 213,475 475,475 263,0 475,-213 475,-475 0,-262 -212,-475 -475,-475 -262,0 -475,213 -475,475"/>
  <path class="fil0 str0" d="M-13157 2357c-40,3 -78,38 -84,112 0,262 213,475 475,475 263,0 475,-213 475,-475 0,-262 -212,-475 -475,-475 -262,0 -475,213 -475,475"/>
  <path class="fil0 str0" d="M-8857 2357c-40,3 -78,38 -84,112 0,262 213,475 475,475 263,0 475,-213 475,-475 0,-262 -212,-475 -475,-475 -262,0 -475,213 -475,475"/>
  <path class="fil0 str0" d="M-17457 -443c-40,3 -78,38 -84,112 0,262 213,475 475,475 263,0 475,-213 475,-475 0,-262 -212,-475 -475,-475 -262,0 -475,213 -475,475"/>
  <path class="fil0 str0" d="M-13157 -443c-40,3 -78,38 -84,112 0,262 213,475 475,475 263,0 475,-213 475,-475 0,-262 -212,-475 -475,-475 -262,0 -475,213 -475,475"/>
  <path class="fil0 str0" d="M-8857 -443c-40,3 -78,38 -84,112 0,262 213,475 475,475 263,0 475,-213 475,-475 0,-262 -212,-475 -475,-475 -262,0 -475,213 -475,475"/>
  <path class="fil0 str0" d="M-14878 4056c-23,2 -45,23 -48,65 0,152 123,275 275,275 151,0 275,-123 275,-275 0,-152 -124,-275 -275,-275 -152,0 -275,123 -275,275"/>
  <path class="fil0 str0" d="M-10578 4056c-23,2 -45,23 -48,65 0,152 123,275 275,275 151,0 275,-123 275,-275 0,-152 -124,-275 -275,-275 -152,0 -275,123 -275,275"/>
  <path class="fil0 str0" d="M-6278 4056c-23,2 -45,23 -48,65 0,152 123,275 275,275 151,0 275,-123 275,-275 0,-152 -124,-275 -275,-275 -152,0 -275,123 -275,275"/>
  <path class="fil0 str0" d="M-14878 1256c-23,2 -45,23 -48,65 0,152 123,275 275,275 151,0 275,-123 275,-275 0,-152 -124,-275 -275,-275 -152,0 -275,123 -275,275"/>
  <path class="fil0 str0" d="M-10578 1256c-23,2 -45,23 -48,65 0,152 123,275 275,275 151,0 275,-123 275,-275 0,-152 -124,-275 -275,-275 -152,0 -275,123 -275,275"/>
  <path class="fil0 str0" d="M-6278 1256c-23,2 -45,23 -48,65 0,152 123,275 275,275 151,0 275,-123 275,-275 0,-152 -124,-275 -275,-275 -152,0 -275,123 -275,275"/>
  <path class="fil0 str0" d="M-14878 -1544c-23,2 -45,23 -48,65 0,152 123,275 275,275 151,0 275,-123 275,-275 0,-152 -124,-275 -275,-275 -152,0 -275,123 -275,275"/>
  <path class="fil0 str0" d="M-10578 -1544c-23,2 -45,23 -48,65 0,152 123,275 275,275 151,0 275,-123 275,-275 0,-152 -124,-275 -275,-275 -152,0 -275,123 -275,275"/>
  <path class="fil0 str0" d="M-6278 -1544c-23,2 -45,23 -48,65 0,152 123,275 275,275 151,0 275,-123 275,-275 0,-152 -124,-275 -275,-275 -152,0 -275,123 -275,275"/>
 </g>
</svg>
