<?xml version="1.0" encoding="UTF-8"?>
<!DOCTYPE svg PUBLIC "-//W3C//DTD SVG 1.1//EN" "http://www.w3.org/Graphics/SVG/1.1/DTD/svg11.dtd">
<!-- Creator: CorelDRAW X8 -->
<svg xmlns="http://www.w3.org/2000/svg" xml:space="preserve" width="40mm" height="60mm" version="1.1" style="shape-rendering:geometricPrecision; text-rendering:geometricPrecision; image-rendering:optimizeQuality; fill-rule:evenodd; clip-rule:evenodd"
viewBox="0 0 4000 6000"
 xmlns:xlink="http://www.w3.org/1999/xlink">
 <defs>
  <style type="text/css">
   <![CDATA[
    .str0 {stroke:black;stroke-width:7.62}
    .fil0 {fill:none}
   ]]>
  </style>
 </defs>
 <g id="图层_x0020_1">
  <metadata id="CorelCorpID_0Corel-Layer"/>
  <path class="fil0 str0" d="M1668 903c-1,-13 -13,-26 -38,-28 -88,0 -160,72 -160,160 0,89 72,161 160,161 89,0 161,-72 161,-161 0,-88 -72,-160 -161,-160m-338 28c-1,-13 -13,-26 -38,-28 -89,0 -161,72 -161,160 0,89 72,161 161,161 89,0 161,-72 161,-161 0,-88 -72,-160 -161,-160m41 428c-1,-13 -13,-26 -38,-28 -89,0 -161,72 -161,161 0,88 72,160 161,160 89,0 161,-72 161,-160 0,-89 -72,-161 -161,-161m410 32c-1,-14 -13,-27 -38,-29 -88,0 -160,72 -160,161 0,89 72,160 160,160 89,0 161,-71 161,-160 0,-89 -72,-161 -161,-161m-169 -84c-1,-5 -5,-10 -15,-11 -34,0 -61,28 -61,61 0,34 27,62 61,62 34,0 61,-28 61,-62 0,-33 -27,-61 -61,-61m-193 -341l388 0c113,0 205,92 205,205l0 391c0,113 -92,205 -205,205l-388 0c-113,0 -205,-92 -205,-205l0 -391c0,-113 92,-205 205,-205zm-30 -61l438 0c135,0 245,110 245,245l0 445c0,134 -110,245 -245,245l-438 0c-135,0 -245,-111 -245,-245l0 -445c0,-135 110,-245 245,-245zm-248 4550l1881 0c135,0 246,-111 246,-247l0 -4188c0,-135 -111,-246 -246,-246l-1710 0c-135,0 -246,111 -246,246l0 4188c0,136 111,247 246,247 45,0 90,7 130,19"/>
 </g>
</svg>
