<?xml version="1.0" encoding="UTF-8"?>
<!DOCTYPE svg PUBLIC "-//W3C//DTD SVG 1.1//EN" "http://www.w3.org/Graphics/SVG/1.1/DTD/svg11.dtd">
<!-- Creator: CorelDRAW 2020 (64-Bit) -->
<svg xmlns="http://www.w3.org/2000/svg" xml:space="preserve" width="40mm" height="60mm" version="1.1" style="shape-rendering:geometricPrecision; text-rendering:geometricPrecision; image-rendering:optimizeQuality; fill-rule:evenodd; clip-rule:evenodd"
viewBox="0 0 4000 6000"
 xmlns:xlink="http://www.w3.org/1999/xlink"
 xmlns:xodm="http://www.corel.com/coreldraw/odm/2003">
 <defs>
  <style type="text/css">
   <![CDATA[
    .str2 {stroke:#332C2B;stroke-width:20;stroke-miterlimit:22.9256}
    .str1 {stroke:#E62129;stroke-width:20;stroke-miterlimit:22.9256}
    .str0 {stroke:#E62129;stroke-width:20;stroke-miterlimit:22.9256}
    .fil0 {fill:none}
   ]]>
  </style>
   <clipPath id="id0">
    <rect x="-64026.24" y="-9664.42" width="26297.8" height="25076.53"/>
   </clipPath>
 </defs>
 <g id="图层_x0020_1">
  <metadata id="CorelCorpID_0Corel-Layer"/>
  <g style="clip-path:url(#id0)">
   <image x="-64026.24" y="-9664.42" width="26297.8" height="25076.53" xlink:href="Galaxy Tab S6 Lite (2022) -11i（前膜带壳）_Images\Galaxy Tab S6 Lite (2022) -11i（前膜带壳）_ImgID1.png"/>
  </g>
  <rect class="fil0 str0" x="-53677.03" y="-9322.98" width="15430" height="24450"/>
  <rect class="fil0 str0" x="-53499.44" y="-9154.97" width="15074.82" height="24082.94" rx="600" ry="585.08"/>
  <circle class="fil0 str1" cx="-45943.42" cy="-8905.14" r="162.06"/>
  <path class="fil0 str2" d="M-21106.05 14920.3l14208.74 0c327.8,0 596.02,-268.89 596.02,-597.52l0 -22787.87c0,-328.63 -268.21,-597.51 -596.02,-597.51l-13782.76 0c-327.81,0 -596.02,268.88 -596.02,597.51l0 22787.87c0,328.64 268.21,597.52 596.02,597.52 327.81,0 638.09,31.69 767.74,141.49"/>
  <path class="fil0 str2" d="M-13770.08 -9024.86c-89.5,0 -162.06,72.56 -162.06,162.06 0,89.5 72.56,162.06 162.06,162.06 89.5,0 162.06,-72.56 162.06,-162.06 0,-89.5 -72.56,-162.06 -162.06,-162.06 -89.5,0 -133.57,134.94 -49.56,197.12"/>
  <g id="_2341262872848">
   <path class="fil0 str2" d="M569.82 5330.85l2771.28 0c64.13,0 116.61,-52.48 116.61,-116.61l0 -4447.11c0,-64.13 -52.48,-116.6 -116.61,-116.6l-2696.46 0c-64.13,0 -116.61,52.47 -116.61,116.6l0 4447.11c0,64.14 52.48,116.61 116.61,116.61 64.13,0 101.02,8.62 121.2,19.68"/>
   <path class="fil0 str2" d="M1996.49 667.58c-17.4,0 -31.5,14.11 -31.5,31.5 0,17.39 14.1,31.49 31.5,31.49 17.39,0 31.49,-14.1 31.49,-31.49 0,-17.39 -14.1,-31.5 -31.49,-31.5 -17.4,0 -25.96,26.23 -9.63,38.31"/>
  </g>
 </g>
</svg>
