<?xml version="1.0" encoding="UTF-8"?>
<!DOCTYPE svg PUBLIC "-//W3C//DTD SVG 1.1//EN" "http://www.w3.org/Graphics/SVG/1.1/DTD/svg11.dtd">
<!-- Creator: CorelDRAW X8 -->
<svg xmlns="http://www.w3.org/2000/svg" xml:space="preserve" width="40mm" height="60mm" version="1.1" style="shape-rendering:geometricPrecision; text-rendering:geometricPrecision; image-rendering:optimizeQuality; fill-rule:evenodd; clip-rule:evenodd"
viewBox="0 0 4000 6000"
 xmlns:xlink="http://www.w3.org/1999/xlink">
 <defs>
  <style type="text/css">
   <![CDATA[
    .str0 {stroke:black;stroke-width:7.62}
    .fil0 {fill:none;fill-rule:nonzero}
   ]]>
  </style>
 </defs>
 <g id="图层_x0020_1">
  <metadata id="CorelCorpID_0Corel-Layer"/>
  <path class="fil0 str0" d="M769 872c0,-122 100,-222 223,-222l2016 0c123,0 223,100 223,222l0 4256c0,122 -100,222 -223,222l-2016 0c-123,0 -223,-100 -223,-222l0 -4256zm1366 270c0,75 -60,135 -135,135 -75,0 -135,-60 -135,-135 0,-74 60,-135 135,-135 75,0 135,61 135,135zm0 350c0,74 -60,135 -135,135 -75,0 -135,-61 -135,-135 0,-75 60,-135 135,-135 75,0 135,60 135,135zm357 -147c0,28 -25,51 -55,51l0 0c-31,0 -56,-23 -56,-51l0 -88c0,-28 25,-51 56,-51l0 0c30,0 55,23 55,51l0 88zm-889 0c0,28 -25,51 -56,51l0 0c-30,0 -55,-23 -55,-51l0 -88c0,-28 25,-51 55,-51l0 0c31,0 56,23 56,51l0 88z"/>
 </g>
</svg>
