<?xml version="1.0" encoding="UTF-8"?>
<!DOCTYPE svg PUBLIC "-//W3C//DTD SVG 1.1//EN" "http://www.w3.org/Graphics/SVG/1.1/DTD/svg11.dtd">
<!-- Creator: CorelDRAW X8 -->
<svg xmlns="http://www.w3.org/2000/svg" xml:space="preserve" width="40mm" height="60mm" version="1.1" style="shape-rendering:geometricPrecision; text-rendering:geometricPrecision; image-rendering:optimizeQuality; fill-rule:evenodd; clip-rule:evenodd"
viewBox="0 0 4000 6000"
 xmlns:xlink="http://www.w3.org/1999/xlink">
 <defs>
  <style type="text/css">
   <![CDATA[
    .str0 {stroke:black;stroke-width:7.62}
    .fil0 {fill:none}
   ]]>
  </style>
 </defs>
 <g id="图层_x0020_1">
  <metadata id="CorelCorpID_0Corel-Layer"/>
  <path class="fil0 str0" d="M977 5350l1872 0c133,0 243,-109 243,-243l0 -4214c0,-134 -110,-243 -243,-243l-1698 0c-133,0 -243,109 -243,243l0 4214c0,134 110,243 243,243l169 0m-15 -4456c-1,-10 -9,-19 -27,-21 -62,0 -113,51 -113,114 0,63 51,114 113,114 63,0 114,-51 114,-114 0,-63 -51,-114 -114,-114m268 273c-11,3 -20,7 -20,28l0 1c0,24 19,43 42,43l0 0c24,0 43,-19 43,-43l0 -44c0,-23 -19,-42 -43,-42l0 0c-23,0 -42,19 -42,42l0 43m-249 -366l0 0c96,0 174,79 174,175l0 949c0,96 -78,174 -174,174l0 0c-96,0 -175,-78 -175,-174l0 -949c0,-96 79,-175 175,-175zm0 37l0 0c76,0 138,62 138,138l0 949c0,76 -62,138 -138,138l0 0c-76,0 -138,-62 -138,-138l0 -949c0,-76 62,-138 138,-138zm25 419c-1,-9 -9,-18 -27,-20 -63,0 -113,51 -113,114 0,63 50,114 113,114 63,0 114,-51 114,-114 0,-63 -51,-114 -114,-114m27 309c-1,-9 -9,-18 -27,-20 -63,0 -113,51 -113,114 0,63 50,114 113,114 63,0 114,-51 114,-114 0,-63 -51,-114 -114,-114m27 294c-1,-10 -9,-19 -27,-20 -63,0 -113,50 -113,113 0,63 50,114 113,114 63,0 114,-51 114,-114 0,-63 -51,-113 -114,-113"/>
 </g>
</svg>
