<?xml version="1.0" encoding="UTF-8"?>
<!DOCTYPE svg PUBLIC "-//W3C//DTD SVG 1.1//EN" "http://www.w3.org/Graphics/SVG/1.1/DTD/svg11.dtd">
<!-- Creator: CorelDRAW 2021 (64-Bit) -->
<svg xmlns="http://www.w3.org/2000/svg" xml:space="preserve" width="40mm" height="60mm" version="1.1" style="shape-rendering:geometricPrecision; text-rendering:geometricPrecision; image-rendering:optimizeQuality; fill-rule:evenodd; clip-rule:evenodd"
viewBox="0 0 4000 6000"
 xmlns:xlink="http://www.w3.org/1999/xlink"
 xmlns:xodm="http://www.corel.com/coreldraw/odm/2003">
 <defs>
  <style type="text/css">
   <![CDATA[
    .str0 {stroke:#332C2B;stroke-width:7.62;stroke-linecap:round;stroke-linejoin:round;stroke-miterlimit:22.9256}
    .fil0 {fill:none}
   ]]>
  </style>
 </defs>
 <g id="图层_x0020_1">
  <metadata id="CorelCorpID_0Corel-Layer"/>
  <path class="fil0 str0" d="M938.54 5273.57l1904.48 0c112.88,0 205.24,-92.36 205.24,-205.24l0 -4176.13c0,-130.09 -106.44,-236.53 -236.53,-236.53l-1629.95 0c-130.09,0 -236.53,106.44 -236.53,236.53l0 4176.12c0,112.89 92.36,205.25 205.24,205.25 112.88,0 214.78,32.02 214.78,82.1m-135.81 -4554.76l396.5 0c73.51,0 133.66,60.15 133.66,133.66l0 941.69c0,73.51 -60.15,133.65 -133.66,133.65l-396.5 0c-73.51,0 -133.66,-60.14 -133.66,-133.65l0 -941.69c0,-73.51 60.15,-133.66 133.66,-133.66zm7.57 506.41l380.05 0c59.44,0 108.07,48.63 108.07,108.07l0 449.57c0,59.43 -48.63,108.06 -108.07,108.06l-380.05 0c-59.43,0 -108.06,-48.63 -108.06,-108.06l0 -449.57c0,-59.44 48.63,-108.07 108.06,-108.07zm21.37 171.57c-62.08,-35.84 -31.38,-149.44 32.96,-149.44 64.33,0 116.48,52.15 116.48,116.49 0,64.33 -52.15,116.48 -116.48,116.48 -64.34,0 -116.49,-52.15 -116.49,-116.48 0,-64.34 52.15,-116.49 116.49,-116.49m238.23 150.6c-62.08,-35.84 -31.38,-149.44 32.96,-149.44 64.33,0 116.48,52.15 116.48,116.48 0,64.34 -52.15,116.48 -116.48,116.48 -64.34,0 -116.49,-52.14 -116.49,-116.48 0,-64.33 52.15,-116.48 116.49,-116.48m-35.63 397.34c-62.08,-35.84 -31.37,-149.44 32.96,-149.44 64.33,0 116.48,52.15 116.48,116.48 0,64.33 -52.15,116.48 -116.48,116.48 -64.33,0 -116.48,-52.15 -116.48,-116.48 0,-64.33 52.15,-116.48 116.48,-116.48m-300.18 151.44c-62.08,-35.85 -31.37,-149.44 32.96,-149.44 64.33,0 116.48,52.15 116.48,116.48 0,64.33 -52.15,116.48 -116.48,116.48 -64.33,0 -116.48,-52.15 -116.48,-116.48 0,-64.33 52.15,-116.48 116.48,-116.48m81.25 -472.18c-102.18,-58.99 -51.64,-245.94 54.24,-245.94 105.88,0 191.7,85.83 191.7,191.71 0,105.88 -85.82,191.7 -191.7,191.7 -105.88,0 -191.71,-85.82 -191.71,-191.7 0,-105.88 85.83,-191.71 191.71,-191.71m-208.38 -16.53l409.98 0c42.23,0 76.78,34.55 76.78,76.78l0 269.47c0,42.23 -34.55,76.78 -76.78,76.78l-409.98 0c-42.23,0 -76.78,-34.55 -76.78,-76.78l0 -269.47c0,-42.23 34.55,-76.78 76.78,-76.78z"/>
 </g>
</svg>
