<?xml version="1.0" encoding="UTF-8"?>
<!DOCTYPE svg PUBLIC "-//W3C//DTD SVG 1.1//EN" "http://www.w3.org/Graphics/SVG/1.1/DTD/svg11.dtd">
<!-- Creator: CorelDRAW X8 -->
<svg xmlns="http://www.w3.org/2000/svg" xml:space="preserve" width="40mm" height="60mm" version="1.1" style="shape-rendering:geometricPrecision; text-rendering:geometricPrecision; image-rendering:optimizeQuality; fill-rule:evenodd; clip-rule:evenodd"
viewBox="0 0 4000 6000"
 xmlns:xlink="http://www.w3.org/1999/xlink">
 <defs>
  <style type="text/css">
   <![CDATA[
    .str0 {stroke:#332C2B;stroke-width:20}
    .fil0 {fill:none}
   ]]>
  </style>
 </defs>
 <g id="图层_x0020_1">
  <metadata id="CorelCorpID_0Corel-Layer"/>
  <g id="_3003137229808">
   <path class="fil0 str0" d="M888 5211l2131 0c51,0 93,-42 93,-93l0 -4375c0,-51 -42,-93 -93,-93l-1997 0c-51,0 -93,42 -93,93l0 4375c0,51 42,93 93,93 51,0 139,22 139,139"/>
   <path class="fil0 str0" d="M1810 4866c30,-51 -95,-95 -95,-95l641 0c40,0 73,33 73,74l0 0c0,40 -33,73 -73,73l-641 0c-40,0 -73,-33 -73,-73l0 0c0,-41 33,-74 73,-74"/>
   <path class="fil0 str0" d="M1844 1594c178,-272 21,-347 -3,-497 -15,-98 81,-179 180,-179 99,0 184,80 179,179 -7,126 -184,226 0,490 69,112 -34,279 -176,279 -139,0 -245,-162 -180,-272z"/>
  </g>
 </g>
</svg>
