<?xml version="1.0" encoding="UTF-8"?>
<!DOCTYPE svg PUBLIC "-//W3C//DTD SVG 1.1//EN" "http://www.w3.org/Graphics/SVG/1.1/DTD/svg11.dtd">
<!-- Creator: CorelDRAW X8 -->
<svg xmlns="http://www.w3.org/2000/svg" xml:space="preserve" width="40mm" height="60mm" version="1.1" style="shape-rendering:geometricPrecision; text-rendering:geometricPrecision; image-rendering:optimizeQuality; fill-rule:evenodd; clip-rule:evenodd"
viewBox="0 0 4000 6000"
 xmlns:xlink="http://www.w3.org/1999/xlink">
 <defs>
  <style type="text/css">
   <![CDATA[
    .str0 {stroke:black;stroke-width:7.62}
    .fil0 {fill:none}
   ]]>
  </style>
 </defs>
 <g id="图层_x0020_1">
  <metadata id="CorelCorpID_0Corel-Layer"/>
  <path class="fil0 str0" d="M-20681 -2391c-2,-21 -20,-41 -59,-44 -138,0 -250,112 -250,250 0,138 112,250 250,250 138,0 250,-112 250,-250 0,-138 -112,-250 -250,-250"/>
  <path class="fil0 str0" d="M-20559 19238c-4,-55 -52,-107 -153,-115 -359,0 -650,291 -650,650 0,359 291,650 650,650 359,0 650,-291 650,-650 0,-359 -291,-650 -650,-650"/>
  <path class="fil0 str0" d="M-28115 21238c0,-361 -621,-713 -968,-713 -346,0 -630,-284 -630,-630l0 -22240c0,-347 284,-630 630,-630 5547,0 11094,0 16640,0 347,0 630,283 630,630l0 22240c0,346 -283,630 -630,630l-17539 0"/>
  <g id="_2222244966256">
   <path class="fil0 str0" d="M2042 763c0,-4 -4,-8 -11,-8 -27,0 -49,22 -49,48 0,27 22,49 49,49 26,0 48,-22 48,-49 0,-26 -22,-48 -48,-48"/>
   <path class="fil0 str0" d="M2066 4962c-1,-11 -10,-21 -30,-23 -70,0 -126,57 -126,127 0,69 56,126 126,126 70,0 126,-57 126,-126 0,-70 -56,-127 -126,-127"/>
   <path class="fil0 str0" d="M599 5350c0,-70 -121,-138 -188,-138 -67,0 -122,-55 -122,-123l0 -4317c0,-67 55,-122 122,-122 1077,0 2153,0 3230,0 67,0 122,55 122,122l0 4317c0,68 -55,123 -122,123l-3404 0"/>
  </g>
 </g>
</svg>
