<?xml version="1.0" encoding="UTF-8"?>
<!DOCTYPE svg PUBLIC "-//W3C//DTD SVG 1.1//EN" "http://www.w3.org/Graphics/SVG/1.1/DTD/svg11.dtd">
<!-- Creator: CorelDRAW X8 -->
<svg xmlns="http://www.w3.org/2000/svg" xml:space="preserve" width="40mm" height="60mm" version="1.1" style="shape-rendering:geometricPrecision; text-rendering:geometricPrecision; image-rendering:optimizeQuality; fill-rule:evenodd; clip-rule:evenodd"
viewBox="0 0 4000 6000"
 xmlns:xlink="http://www.w3.org/1999/xlink">
 <defs>
  <style type="text/css">
   <![CDATA[
    .str0 {stroke:#332C2B;stroke-width:10}
    .fil0 {fill:none}
   ]]>
  </style>
 </defs>
 <g id="图层_x0020_1">
  <metadata id="CorelCorpID_0Corel-Layer"/>
  <path class="fil0 str0" d="M1186 650c131,0 262,0 392,0 42,0 19,29 74,29l264 0c13,0 18,6 18,16l0 49c0,36 30,66 66,66l0 0c36,0 66,-30 66,-66l0 -49c0,-13 10,-16 18,-16 86,0 172,0 258,0 47,0 23,-29 81,-29l391 0c129,0 235,106 235,235l0 4230c0,129 -106,235 -235,235l-1628 0c-129,0 -235,-106 -235,-235l0 -4230c0,-129 106,-235 235,-235z"/>
 </g>
</svg>
