<?xml version="1.0" encoding="UTF-8"?>
<!DOCTYPE svg PUBLIC "-//W3C//DTD SVG 1.1//EN" "http://www.w3.org/Graphics/SVG/1.1/DTD/svg11.dtd">
<!-- Creator: CorelDRAW X8 -->
<svg xmlns="http://www.w3.org/2000/svg" xml:space="preserve" width="40mm" height="60mm" version="1.1" style="shape-rendering:geometricPrecision; text-rendering:geometricPrecision; image-rendering:optimizeQuality; fill-rule:evenodd; clip-rule:evenodd"
viewBox="0 0 4000 6000"
 xmlns:xlink="http://www.w3.org/1999/xlink">
 <defs>
  <style type="text/css">
   <![CDATA[
    .str0 {stroke:#332C2B;stroke-width:17.64}
    .fil0 {fill:none}
   ]]>
  </style>
 </defs>
 <g id="图层_x0020_1">
  <metadata id="CorelCorpID_0Corel-Layer"/>
  <path class="fil0 str0" d="M895 5159l1938 0c150,0 272,-122 272,-272l0 -3965c0,-150 -122,-272 -272,-272l-1562 0c-149,0 -272,122 -272,272l0 3965c0,150 123,272 272,272 150,0 331,55 331,191m361 -4583c24,-24 -7,-62 -34,-62 -27,0 -49,22 -49,49l0 0c0,27 22,49 49,49l521 0c26,0 48,-22 48,-49l0 0c0,-27 -22,-49 -48,-49l-521 0m-255 59c-16,-16 -11,-65 17,-65 29,0 52,23 52,51 0,28 -23,51 -52,51 -28,0 -51,-23 -51,-51 0,-28 23,-51 51,-51"/>
 </g>
</svg>
