<?xml version="1.0" encoding="UTF-8"?>
<!DOCTYPE svg PUBLIC "-//W3C//DTD SVG 1.1//EN" "http://www.w3.org/Graphics/SVG/1.1/DTD/svg11.dtd">
<!-- Creator: CorelDRAW -->
<svg xmlns="http://www.w3.org/2000/svg" xml:space="preserve" width="40mm" height="60mm" style="shape-rendering:geometricPrecision; text-rendering:geometricPrecision; image-rendering:optimizeQuality; fill-rule:evenodd; clip-rule:evenodd"
viewBox="0 0 40 60"
 xmlns:xlink="http://www.w3.org/1999/xlink">
 <defs>
  <style type="text/css">
   <![CDATA[
    .str0 {stroke:#1F1A17;stroke-width:0.194}
    .str1 {stroke:#1F1A17;stroke-width:0.2}
    .fil1 {fill:none}
    .fil0 {fill:none;fill-rule:nonzero}
   ]]>
  </style>
 </defs>
 <g id="图层_x0020_1">
  <metadata id="CorelCorpID_0Corel-Layer"/>
  <g id="_46979296">
   <polyline id="_46981024" class="fil0 str0" points="13.0434,15.5664 13.0434,15.6584 13.0144,15.6584 13.0364,15.6584 "/>
   <path id="_46981792" class="fil0 str0" d="M13.0364 15.6584c-0.044,0.4166 -0.3917,0.7263 -0.8153,0.7263 -0.4626,-0.001 -0.8292,-0.3687 -0.8292,-0.8303 0,-0.4616 0.3666,-0.8282 0.8292,-0.8282 0.4666,-0.001 0.8363,0.3736 0.8243,0.8362 -0.001,0.06 -0.002,0.075 -0.024,0.2588"/>
   <path id="_46981816" class="fil0 str0" d="M13.0434 13.0737c-0.033,0.4985 -0.3667,0.8332 -0.8303,0.8332 -0.4566,0 -0.8282,-0.3717 -0.8282,-0.8272 0,-0.4636 0.3686,-0.8353 0.8292,-0.8353 0.4606,0 0.8253,0.3657 0.8253,0.8273 0,0.0579 -0.002,0.0809 -0.018,0.2647"/>
   <path id="_46978264" class="fil0 str0" d="M11.1101 14.2136c-0.006,-0.6594 -0.005,-0.4945 -0.008,-1.1549 -0.002,-0.5505 0.009,-0.6145 0.1489,-0.8073 0.2138,-0.2957 0.4446,-0.3847 0.9971,-0.3847 0.5115,0 0.7623,0.1149 0.9751,0.4446 0.1159,0.1809 0.1159,0.1819 0.1119,1.9723"/>
   <line id="_46978576" class="fil0 str0" x1="13.3351" y1="14.2836" x2="13.3341" y2= "14.8571" />
   <path id="_46978600" class="fil0 str0" d="M13.3341 14.8571c-0.002,1.139 -0.002,1.139 -0.018,1.1909"/>
   <line id="_46977904" class="fil0 str0" x1="13.3161" y1="16.048" x2="13.3081" y2= "16.078" />
   <path id="_46978048" class="fil0 str0" d="M13.3081 16.078c-0.0959,0.4326 -0.4456,0.6544 -1.029,0.6544 -0.5376,0 -0.7174,-0.05 -0.9272,-0.2548 -0.2398,-0.2348 -0.2558,-0.3207 -0.2558,-1.3578 0,-0.3566 0.005,-0.7313 0.014,-1.026"/>
   <line id="_46979008" class="fil0 str0" x1="12.2151" y1="19.1562" x2="12.2151" y2= "19.2481" />
   <path id="_46981696" class="fil0 str0" d="M12.2151 19.2481c-0.0559,-0.015 -0.0909,-0.0519 -0.0929,-0.0989 -0.019,0.001 -0.039,0.002 -0.0579,0.002 -0.2978,0 -0.4436,-0.1898 -0.4436,-0.5785 0,-0.4466 0.1618,-0.6174 0.5844,-0.6174 0.4776,0 0.6295,0.1548 0.6295,0.6424 0,0.4017 -0.1689,0.5685 -0.5765,0.5685 -0.054,0 -0.1079,-0.002 -0.2488,-0.01"/>
   <line id="_46979272" class="fil0 str0" x1="20.5626" y1="19.319" x2="20.4706" y2= "19.312" />
   <path id="_183526960" class="fil0 str0" d="M20.4706 19.312c0.004,0.047 0.021,0.067 0.085,0.099 -0.1609,0.5695 -0.5725,0.8832 -1.1589,0.8832 -0.6904,0 -0.9402,-0.074 -1.201,-0.3567 -0.2577,-0.2797 -0.3087,-0.4596 -0.3087,-1.098 0,-0.8423 0.012,-1.126 0.053,-1.3398 0.0419,-0.2138 0.1069,-0.3207 0.3067,-0.5026 0.2538,-0.2318 0.5545,-0.3207 1.082,-0.3207 0.6824,0 1.1859,0.4167 1.2479,1.0331 0.0189,0.1808 0.0299,0.5066 0.0299,0.8403 0,0.3117 -0.01,0.5794 -0.0269,0.7033 -0.012,0.0899 -0.012,0.0919 -0.024,0.2638"/>
   <path id="_183159152" class="fil0 str0" d="M30.085 14.972c-0.005,-0.6045 -0.01,-1.208 -0.014,-1.8114 -0.002,-0.4076 0.014,-0.5815 0.062,-0.6864 0.0489,-0.1049 0.1298,-0.1409 0.3187,-0.1419"/>
   <line id="_245570672" class="fil0 str0" x1="30.4517" y1="12.3323" x2="30.4896" y2= "12.3313" />
   <path id="_245571272" class="fil0 str0" d="M30.4896 12.3313c0.0979,0 0.1289,0.008 0.1609,0.04 0.041,0.0419 0.0659,0.1269 0.0819,0.2827 0.03,0.2738 0.035,0.6255 0.035,2.274"/>
   <line id="_245570648" class="fil0 str0" x1="30.7674" y1="14.928" x2="30.7674" y2= "15.2867" />
   <path id="_245571176" class="fil0 str0" d="M30.7674 15.2867c0,1.5186 -0.008,1.9792 -0.038,2.21 -0.03,0.2318 -0.0889,0.2927 -0.2857,0.2927 -0.1169,0.001 -0.1679,-0.005 -0.2108,-0.0229 -0.054,-0.023 -0.088,-0.067 -0.1109,-0.1449 -0.042,-0.1369 -0.051,-0.3347 -0.051,-1.079 0,-0.6385 0.009,-1.3498 0.021,-1.6915"/>
   <polyline id="_245571920" class="fil0 str0" points="7.8321,19.0853 7.839,18.9864 7.8321,18.9864 "/>
   <path id="_245571992" class="fil0 str0" d="M7.8321 18.9864c-0.008,-1.2489 -0.007,-0.9372 -0.012,-2.1861 -0.002,-0.4856 0.01,-0.6674 0.0519,-0.7793 0.043,-0.1129 0.1109,-0.1468 0.2948,-0.1468"/>
   <line id="_245572160" class="fil0 str0" x1="8.1668" y1="15.8742" x2="8.2077" y2= "15.8742" />
   <path id="_245571824" class="fil0 str0" d="M8.2077 15.8742c0.1019,-0.0021 0.1349,0.0059 0.1669,0.0449 0.0429,0.05 0.0689,0.1529 0.0859,0.3387 0.031,0.3277 0.037,0.7483 0.036,2.7216"/>
   <line id="_245571464" class="fil0 str0" x1="8.4965" y1="18.9794" x2="8.4965" y2= "19.42" />
   <path id="_245572016" class="fil0 str0" d="M8.4965 19.42c0,1.6185 -0.017,2.5647 -0.047,2.6626 -0.042,0.1338 -0.1319,0.1928 -0.2977,0.1928 -0.1139,0 -0.1529,-0.005 -0.1909,-0.021 -0.0489,-0.022 -0.0789,-0.0659 -0.0989,-0.1438 -0.0359,-0.1379 -0.0419,-0.3188 -0.0419,-1.129 0,-0.7913 0.008,-1.7235 0.0189,-2.1161"/>
   <polyline id="_245572112" class="fil0 str0" points="30.3126,12.0546 29.6892,12.0546 29.6892,12.0186 29.7461,11.9557 29.7741,11.9557 "/>
   <path id="_245571560" class="fil0 str0" d="M29.7383 11.9557c-0.0959,-1.168 -0.7833,-2.0132 -1.8973,-2.3369 -0.2517,-0.073 -0.3017,-0.077 -0.9521,-0.076"/>
   <polyline id="_245571704" class="fil0 str0" points="26.8889,9.5428 11.6107,9.5778 11.242,9.5558 "/>
   <path id="_245572256" class="fil0 str0" d="M11.242 9.5558c-0.014,-0.001 -0.029,-0.001 -0.045,-0.001 -0.6993,0 -1.6145,0.6325 -1.9882,1.3738 -0.1868,0.3696 -0.2548,0.6694 -0.2797,1.2179 -0.055,-0.005 -0.08,-0.03 -0.0919,-0.0919"/>
   <line id="_245572208" class="fil0 str0" x1="8.8372" y1="12.0546" x2="7.5413" y2= "12.0646" />
   <path id="_245572352" class="fil0 str0" d="M7.5413 12.0646c-0.0889,0.009 -0.1069,0.0269 -0.1358,0.1349"/>
   <line id="_245568920" class="fil0 str0" x1="7.4055" y1="12.1995" x2="7.1817" y2= "37.9912" />
   <path id="_245568968" class="fil0 str0" d="M7.1817 37.9912c-0.087,10.073 -0.06,12.25 0.1578,12.7046"/>
   <line id="_245568800" class="fil0 str0" x1="7.3395" y1="50.6958" x2="7.3885" y2= "50.7727" />
   <path id="_245568416" class="fil0 str0" d="M7.3885 50.7727c0.0959,0.1529 0.0959,0.1529 0.4755,0.1509"/>
   <polyline id="_245568776" class="fil0 str0" points="7.864,50.9236 9.029,50.9176 9.029,50.9466 8.972,51.0095 8.9361,51.0095 "/>
   <path id="_245568344" class="fil0 str0" d="M8.9361 51.0095c0.0479,1.221 0.9701,2.222 2.209,2.3999 0.0969,0.015 0.1598,0.017 0.4466,0.016"/>
   <line id="_245568440" class="fil0 str0" x1="11.5917" y1="53.4254" x2="25.2853" y2= "53.3724" />
   <path id="_245568512" class="fil0 str0" d="M25.2853 53.3724c1.3188,-0.005 1.7684,0.002 2.1441,0.035 0.024,0.003 0.043,0.004 0.059,0.004 0.3347,0 0.9601,-0.2658 1.3138,-0.5585 0.6174,-0.5105 0.8382,-0.9801 0.9571,-2.0342 0.044,0 0.0719,0.033 0.0849,0.0989"/>
   <line id="_245568632" class="fil0 str0" x1="29.8442" y1="50.9176" x2="30.7424" y2= "50.9216" />
   <path id="_245568680" class="fil0 str0" d="M30.7424 50.9216c0.5335,0.002 0.5335,0.002 0.5385,-0.3657"/>
   <line id="_245569544" class="fil0 str0" x1="31.2809" y1="50.5559" x2="31.5137" y2= "31.4961" />
   <path id="_245569760" class="fil0 str0" d="M31.5137 31.4961c0.051,-4.0953 0.073,-8.1906 0.0669,-12.2869 -0.0069,-4.463 -0.0819,-6.6191 -0.2437,-6.9428 -0.1029,-0.2058 -0.1269,-0.2138 -0.6514,-0.2128"/>
   <line id="_245569856" class="fil0 str0" x1="30.6855" y1="12.0536" x2="30.1629" y2= "12.0546" />
   <rect id="_284409312" class="fil1 str1" x="10.778" y="11.285" width="2.895" height="6.042" rx="1.4475" ry="1.4475"/>
   <rect id="_245569976" class="fil1 str1" x="7.821" y="25.212" width="0.684" height="2.413" rx="0.342" ry="0.342"/>
  </g>
 </g>
</svg>
