<?xml version="1.0" encoding="UTF-8"?>
<!DOCTYPE svg PUBLIC "-//W3C//DTD SVG 1.1//EN" "http://www.w3.org/Graphics/SVG/1.1/DTD/svg11.dtd">
<!-- Creator: CorelDRAW X8 -->
<svg xmlns="http://www.w3.org/2000/svg" xml:space="preserve" width="40mm" height="60mm" version="1.1" style="shape-rendering:geometricPrecision; text-rendering:geometricPrecision; image-rendering:optimizeQuality; fill-rule:evenodd; clip-rule:evenodd"
viewBox="0 0 4000 6000"
 xmlns:xlink="http://www.w3.org/1999/xlink">
 <defs>
  <style type="text/css">
   <![CDATA[
    .str0 {stroke:#332C2B;stroke-width:20}
    .fil0 {fill:none}
   ]]>
  </style>
 </defs>
 <g id="图层_x0020_1">
  <metadata id="CorelCorpID_0Corel-Layer"/>
  <g id="_2149036122880">
   <path class="fil0 str0" d="M765 2048l976 0c115,0 209,-94 209,-209l0 -980c0,-115 -94,-209 -209,-209l-723 0c-115,0 -209,94 -209,209l0 980c0,115 94,209 209,209 115,0 209,45 209,88"/>
   <path class="fil0 str0" d="M765 3655l976 0c115,0 209,-94 209,-209l0 -980c0,-115 -94,-209 -209,-209l-723 0c-115,0 -209,94 -209,209l0 980c0,115 94,209 209,209 115,0 209,45 209,88"/>
   <path class="fil0 str0" d="M765 5262l976 0c115,0 209,-94 209,-209l0 -980c0,-115 -94,-209 -209,-209l-723 0c-115,0 -209,94 -209,209l0 980c0,115 94,209 209,209 115,0 209,45 209,88"/>
   <path class="fil0 str0" d="M2050 2048l976 0c115,0 209,-94 209,-209l0 -980c0,-115 -94,-209 -209,-209l-723 0c-115,0 -209,94 -209,209l0 980c0,115 94,209 209,209 115,0 210,45 210,88"/>
   <path class="fil0 str0" d="M2050 3655l976 0c115,0 209,-94 209,-209l0 -980c0,-115 -94,-209 -209,-209l-723 0c-115,0 -209,94 -209,209l0 980c0,115 94,209 209,209 115,0 210,45 210,88"/>
   <path class="fil0 str0" d="M2050 5262l976 0c115,0 209,-94 209,-209l0 -980c0,-115 -94,-209 -209,-209l-723 0c-115,0 -209,94 -209,209l0 980c0,115 94,209 209,209 115,0 210,45 210,88"/>
  </g>
  <path class="fil0 str0" d="M-18451 6759l0 -3037c0,-357 -293,-650 -650,-650l-3050 0c-358,0 -650,293 -650,650l0 2250c0,358 292,650 650,650l3050 0c357,0 650,-292 650,-650 0,-357 141,-652 273,-652"/>
  <path class="fil0 str0" d="M-13451 6759l0 -3037c0,-357 -293,-650 -650,-650l-3050 0c-358,0 -650,293 -650,650l0 2250c0,358 292,650 650,650l3050 0c357,0 650,-292 650,-650 0,-357 141,-652 273,-652"/>
  <path class="fil0 str0" d="M-8451 6759l0 -3037c0,-357 -293,-650 -650,-650l-3050 0c-358,0 -650,293 -650,650l0 2250c0,358 292,650 650,650l3050 0c357,0 650,-292 650,-650 0,-357 141,-652 273,-652"/>
  <path class="fil0 str0" d="M-18451 2759l0 -3037c0,-357 -293,-650 -650,-650l-3050 0c-358,0 -650,293 -650,650l0 2250c0,358 292,650 650,650l3050 0c357,0 650,-292 650,-650 0,-357 141,-652 273,-652"/>
  <path class="fil0 str0" d="M-13451 2759l0 -3037c0,-357 -293,-650 -650,-650l-3050 0c-358,0 -650,293 -650,650l0 2250c0,358 292,650 650,650l3050 0c357,0 650,-292 650,-650 0,-357 141,-652 273,-652"/>
  <path class="fil0 str0" d="M-8451 2759l0 -3037c0,-357 -293,-650 -650,-650l-3050 0c-358,0 -650,293 -650,650l0 2250c0,358 292,650 650,650l3050 0c357,0 650,-292 650,-650 0,-357 141,-652 273,-652"/>
 </g>
</svg>
