<?xml version="1.0" encoding="UTF-8"?>
<!DOCTYPE svg PUBLIC "-//W3C//DTD SVG 1.1//EN" "http://www.w3.org/Graphics/SVG/1.1/DTD/svg11.dtd">
<!-- Creator: CorelDRAW X8 -->
<svg xmlns="http://www.w3.org/2000/svg" xml:space="preserve" width="40mm" height="60mm" version="1.1" style="shape-rendering:geometricPrecision; text-rendering:geometricPrecision; image-rendering:optimizeQuality; fill-rule:evenodd; clip-rule:evenodd"
viewBox="0 0 4000 6000"
 xmlns:xlink="http://www.w3.org/1999/xlink">
 <defs>
  <style type="text/css">
   <![CDATA[
    .str0 {stroke:black;stroke-width:7.62}
    .fil0 {fill:none}
   ]]>
  </style>
 </defs>
 <g id="图层_x0020_1">
  <metadata id="CorelCorpID_0Corel-Layer"/>
  <path class="fil0 str0" d="M922 5350l1962 0c143,0 260,-117 260,-260l0 -4180c0,-143 -117,-260 -260,-260l-1768 0c-143,0 -260,117 -260,260l0 4180c0,143 117,260 260,260l261 0m1089 -4674c0,-3 -3,-6 -9,-7 -22,0 -39,18 -39,40 0,22 17,39 39,39 22,0 39,-17 39,-39 0,-22 -17,-40 -39,-40m-566 54c-4,-14 -11,-25 -46,-25l-30 0c-15,0 -28,12 -28,28l0 0c0,16 13,28 28,28l369 0c16,0 29,-12 29,-28l0 0c0,-16 -13,-28 -29,-28l-339 0m-240 -7c-1,-3 -4,-6 -10,-7 -22,0 -39,18 -39,40 0,21 17,39 39,39 22,0 40,-18 40,-39 0,-22 -18,-40 -40,-40m1155 18c0,-2 -2,-4 -6,-5 -13,0 -23,11 -23,24 0,13 10,24 23,24 13,0 24,-11 24,-24 0,-13 -11,-24 -24,-24"/>
 </g>
</svg>
