<?xml version="1.0" encoding="UTF-8"?>
<!DOCTYPE svg PUBLIC "-//W3C//DTD SVG 1.1//EN" "http://www.w3.org/Graphics/SVG/1.1/DTD/svg11.dtd">
<!-- Creator: CorelDRAW X8 -->
<svg xmlns="http://www.w3.org/2000/svg" xml:space="preserve" width="40mm" height="60mm" version="1.1" style="shape-rendering:geometricPrecision; text-rendering:geometricPrecision; image-rendering:optimizeQuality; fill-rule:evenodd; clip-rule:evenodd"
viewBox="0 0 4000 6000"
 xmlns:xlink="http://www.w3.org/1999/xlink">
 <defs>
  <style type="text/css">
   <![CDATA[
    .str0 {stroke:black;stroke-width:7.62}
    .fil0 {fill:none}
   ]]>
  </style>
 </defs>
 <g id="图层_x0020_1">
  <metadata id="CorelCorpID_0Corel-Layer"/>
  <path class="fil0 str0" d="M892 5350l2078 0c105,0 191,-86 191,-191l0 -4318c0,-105 -86,-191 -191,-191l-1940 0c-105,0 -191,86 -191,191l0 4318c0,105 86,191 191,191l263 0m1023 -4567c0,-5 -4,-9 -13,-10 -31,0 -56,25 -56,56 0,31 25,56 56,56 31,0 56,-25 56,-56 0,-31 -25,-56 -56,-56m-339 52c-5,-18 -15,-33 -60,-33l-38 0c-20,0 -37,17 -37,37l0 0c0,20 17,36 37,36l277 0c20,0 36,-16 36,-36l0 0c0,-20 -16,-37 -36,-37l-239 0m-192 -9c0,-5 -4,-9 -13,-10 -30,0 -55,25 -55,56 0,31 25,56 55,56 31,0 56,-25 56,-56 0,-31 -25,-56 -56,-56"/>
 </g>
</svg>
