<?xml version="1.0" encoding="UTF-8"?>
<!DOCTYPE svg PUBLIC "-//W3C//DTD SVG 1.1//EN" "http://www.w3.org/Graphics/SVG/1.1/DTD/svg11.dtd">
<!-- Creator: CorelDRAW X8 -->
<svg xmlns="http://www.w3.org/2000/svg" xml:space="preserve" width="40mm" height="60mm" version="1.1" style="shape-rendering:geometricPrecision; text-rendering:geometricPrecision; image-rendering:optimizeQuality; fill-rule:evenodd; clip-rule:evenodd"
viewBox="0 0 4000 6000"
 xmlns:xlink="http://www.w3.org/1999/xlink">
 <defs>
  <style type="text/css">
   <![CDATA[
    .str0 {stroke:black;stroke-width:20}
    .fil0 {fill:none}
   ]]>
  </style>
 </defs>
 <g id="图层_x0020_1">
  <metadata id="CorelCorpID_0Corel-Layer"/>
  <path class="fil0 str0" d="M1187 650l459 0c5,9 14,15 25,15l253 0c5,0 9,3 9,8l0 44c0,37 30,67 67,67l0 0c37,0 67,-30 67,-67l0 -45c0,-5 2,-7 7,-7l255 0c11,0 20,-6 25,-15l459 0c121,0 221,99 221,221l0 4258c0,122 -100,221 -221,221l-1626 0c-121,0 -221,-99 -221,-221l0 -4258c0,-122 100,-221 221,-221z"/>
 </g>
</svg>
