<?xml version="1.0" encoding="UTF-8"?>
<!DOCTYPE svg PUBLIC "-//W3C//DTD SVG 1.1//EN" "http://www.w3.org/Graphics/SVG/1.1/DTD/svg11.dtd">
<!-- Creator: CorelDRAW X8 -->
<svg xmlns="http://www.w3.org/2000/svg" xml:space="preserve" width="40mm" height="60mm" version="1.1" style="shape-rendering:geometricPrecision; text-rendering:geometricPrecision; image-rendering:optimizeQuality; fill-rule:evenodd; clip-rule:evenodd"
viewBox="0 0 4000 6000"
 xmlns:xlink="http://www.w3.org/1999/xlink">
 <defs>
  <style type="text/css">
   <![CDATA[
    .str0 {stroke:#332C2B;stroke-width:10}
    .fil0 {fill:none;fill-rule:nonzero}
   ]]>
  </style>
 </defs>
 <g id="图层_x0020_1">
  <metadata id="CorelCorpID_0Corel-Layer"/>
  <g id="_1875415995264">
   <g>
    <line class="fil0 str0" x1="3278" y1="657" x2="3278" y2= "686" />
    <path class="fil0 str0" d="M1155 5272c0,25 1,26 9,48"/>
    <polyline class="fil0 str0" points="1164,5320 1167,5319 1167,5318 1169,5317 1169,5315 1170,5316 "/>
    <path class="fil0 str0" d="M1170 5316c68,1 137,3 205,4 51,0 72,-3 88,-13"/>
    <polyline class="fil0 str0" points="1463,5307 1462,5305 1460,5304 1460,5302 1458,5302 "/>
    <path class="fil0 str0" d="M1458 5302c0,-15 -3,-52 -8,-79 -1,0 -3,2 -5,5"/>
    <line class="fil0 str0" x1="1445" y1="5228" x2="1151" y2= "5236" />
    <path class="fil0 str0" d="M1151 5236c0,2 2,3 5,5 -1,8 -2,15 -2,27 0,9 0,22 1,42"/>
    <line class="fil0 str0" x1="2782" y1="5341" x2="2782" y2= "5350" />
    <path class="fil0 str0" d="M2782 5350c-6,0 -8,-3 -9,-9"/>
    <line class="fil0 str0" x1="2773" y1="5341" x2="2723" y2= "5342" />
    <path class="fil0 str0" d="M2723 5342c-25,0 -35,-2 -50,-10 2,-3 4,-5 5,-5"/>
    <polyline class="fil0 str0" points="2678,5327 2677,5326 2678,5271 "/>
    <path class="fil0 str0" d="M2678 5271c0,-40 -1,-47 -10,-61 -11,-19 -33,-32 -56,-32 -33,0 -60,24 -63,57"/>
    <line class="fil0 str0" x1="2549" y1="5235" x2="2547" y2= "5294" />
    <path class="fil0 str0" d="M2547 5294c0,26 -2,35 -7,51"/>
    <polyline class="fil0 str0" points="2540,5345 2535,5340 2472,5341 "/>
    <path class="fil0 str0" d="M2472 5341c-114,0 -206,-2 -340,-9"/>
    <polyline class="fil0 str0" points="2132,5332 2137,5327 2136,5326 2137,5262 "/>
    <path class="fil0 str0" d="M2137 5262c0,-47 0,-47 -69,-50"/>
    <line class="fil0 str0" x1="2068" y1="5212" x2="2057" y2= "5212" />
    <path class="fil0 str0" d="M2057 5212c-40,-1 -73,-2 -99,-2 -94,0 -95,1 -96,55 0,9 0,19 0,28 -1,26 -2,36 -8,52"/>
    <line class="fil0 str0" x1="1854" y1="5345" x2="1849" y2= "5340" />
    <path class="fil0 str0" d="M1849 5340c-14,1 -134,2 -284,2 -408,0 -439,-2 -548,-36"/>
    <line class="fil0 str0" x1="1017" y1="5306" x2="959" y2= "5290" />
    <path class="fil0 str0" d="M959 5290c-36,-9 -74,-17 -170,-34 0,-1 0,-2 0,-3"/>
    <polyline class="fil0 str0" points="789,5253 790,5253 791,5253 786,5249 787,5248 788,5248 788,5247 789,5247 786,5242 "/>
    <path class="fil0 str0" d="M786 5242c1,0 1,0 2,-1"/>
    <polyline class="fil0 str0" points="788,5241 791,5241 841,5116 838,5116 "/>
    <path class="fil0 str0" d="M838 5116c0,0 2,0 3,0"/>
    <polyline class="fil0 str0" points="841,5116 844,5111 848,5115 852,5112 853,5113 853,5116 854,5117 864,5120 "/>
    <path class="fil0 str0" d="M864 5120c122,36 122,36 315,55"/>
    <polyline class="fil0 str0" points="1179,5175 1196,5177 1194,5171 1191,5167 "/>
    <path class="fil0 str0" d="M1191 5167c-2,0 -4,0 -5,0 -1,0 -3,0 -6,1"/>
    <line class="fil0 str0" x1="1180" y1="5168" x2="1176" y2= "5175" />
    <path class="fil0 str0" d="M1176 5175c-111,-7 -186,-79 -198,-191"/>
    <polyline class="fil0 str0" points="978,4984 976,4958 973,4958 967,4964 967,4968 873,4970 "/>
    <path class="fil0 str0" d="M873 4970c-38,0 -53,-2 -69,-11 2,-3 4,-5 6,-5"/>
    <line class="fil0 str0" x1="810" y1="4954" x2="809" y2= "4953" />
    <path class="fil0 str0" d="M809 4953c-5,-492 -8,-985 -9,-1477 -2,-758 -1,-781 18,-810"/>
    <polyline class="fil0 str0" points="818,2666 819,2666 820,2668 821,2668 823,2671 "/>
    <path class="fil0 str0" d="M823 2671c1,0 4,0 7,0 54,0 64,-3 75,-27 2,-5 3,-9 2,-12 0,-7 -2,-18 -17,-75 -6,-23 -9,-40 -9,-52 0,-13 4,-22 15,-31 5,-4 6,-5 6,-7 0,-11 -19,-21 -40,-21"/>
    <line class="fil0 str0" x1="862" y1="2446" x2="835" y2= "2446" />
    <path class="fil0 str0" d="M835 2446c-24,0 -31,-1 -31,-7 0,-1 0,-1 0,-1 2,-3 4,-5 6,-6"/>
    <polyline class="fil0 str0" points="810,2432 809,2432 806,2322 "/>
    <path class="fil0 str0" d="M806 2322c0,-41 3,-56 12,-72"/>
    <polyline class="fil0 str0" points="818,2250 819,2250 820,2251 821,2252 823,2255 "/>
    <path class="fil0 str0" d="M823 2255c3,0 6,0 11,0 55,0 68,-5 73,-28 0,-3 0,-6 0,-9"/>
    <line class="fil0 str0" x1="907" y1="2218" x2="907" y2= "2215" />
    <path class="fil0 str0" d="M907 2215c1,-8 1,-8 -30,-159"/>
    <line class="fil0 str0" x1="877" y1="2056" x2="866" y2= "2004" />
    <path class="fil0 str0" d="M866 2004c-17,-86 -26,-149 -26,-192 0,-63 12,-81 56,-90 5,-1 7,-2 7,-4 0,-11 -17,-17 -47,-17 -2,0 -4,0 -6,0"/>
    <line class="fil0 str0" x1="850" y1="1701" x2="832" y2= "1701" />
    <path class="fil0 str0" d="M832 1701c-21,0 -28,-1 -28,-6 0,0 0,-2 0,-3 2,-3 4,-4 6,-5"/>
    <polyline class="fil0 str0" points="810,1687 809,1686 804,1284 "/>
    <path class="fil0 str0" d="M804 1284c-1,-128 2,-171 14,-190"/>
    <polyline class="fil0 str0" points="818,1094 819,1094 820,1096 821,1096 823,1099 986,1099 "/>
    <path class="fil0 str0" d="M986 1099c0,-6 -4,-10 -10,-10 0,-5 0,-9 0,-14 0,-97 27,-156 92,-199 36,-24 57,-31 128,-38"/>
    <line class="fil0 str0" x1="1196" y1="838" x2="1193" y2= "832" />
    <path class="fil0 str0" d="M1193 832c-4,-2 -6,-3 -11,-3"/>
    <polyline class="fil0 str0" points="1182,829 1178,834 1176,839 "/>
    <path class="fil0 str0" d="M1176 839c-86,0 -189,17 -350,57 -24,6 -32,7 -48,7 -1,0 -3,0 -4,0"/>
    <polyline class="fil0 str0" points="774,903 774,898 775,897 776,897 772,894 773,893 774,893 774,892 774,892 771,888 772,887 773,887 717,751 718,750 720,750 719,744 723,744 724,738 723,738 "/>
    <path class="fil0 str0" d="M723 738c2,1 4,1 4,1"/>
    <polyline class="fil0 str0" points="727,739 728,741 732,736 732,736 733,737 733,738 735,739 740,736 740,737 740,738 740,738 "/>
    <path class="fil0 str0" d="M740 738c269,-80 350,-88 846,-88 251,0 354,4 375,15"/>
    <polyline class="fil0 str0" points="1961,665 1961,666 1960,667 1959,668 1956,670 "/>
    <path class="fil0 str0" d="M1956 670c0,2 0,5 0,9"/>
    <line class="fil0 str0" x1="1956" y1="679" x2="1958" y2= "739" />
    <path class="fil0 str0" d="M1958 739c4,18 21,31 42,31 25,0 42,-18 42,-44"/>
    <line class="fil0 str0" x1="2042" y1="726" x2="2042" y2= "693" />
    <path class="fil0 str0" d="M2042 693c0,-3 0,-5 0,-7 0,-26 1,-34 7,-34 1,0 1,0 2,1"/>
    <line class="fil0 str0" x1="2051" y1="653" x2="2053" y2= "653" />
    <path class="fil0 str0" d="M2053 653c1,2 2,3 3,4"/>
    <line class="fil0 str0" x1="2056" y1="657" x2="2795" y2= "668" />
    <path class="fil0 str0" d="M2795 668c58,3 85,8 201,35 62,15 82,18 282,40"/>
    <line class="fil0 str0" x1="3278" y1="743" x2="3278" y2= "742" />
    <path class="fil0 str0" d="M3278 742c0,1 0,2 0,4"/>
    <line class="fil0 str0" x1="3278" y1="746" x2="3282" y2= "749" />
    <path class="fil0 str0" d="M3282 749c-1,1 -1,1 -1,2"/>
    <polyline class="fil0 str0" points="3281,751 3280,751 3279,751 3283,756 3282,757 3281,757 3281,758 3279,758 3281,764 3276,764 3275,769 3273,769 3219,905 3217,904 3214,909 "/>
    <path class="fil0 str0" d="M3214 909c-1,-1 -1,-1 -2,-2"/>
    <polyline class="fil0 str0" points="3212,907 3212,907 3211,906 3207,909 3206,904 3205,904 "/>
    <path class="fil0 str0" d="M3205 904c-177,-46 -291,-65 -402,-65"/>
    <polyline class="fil0 str0" points="2803,839 2804,845 2809,849 2816,849 2821,845 2823,840 "/>
    <path class="fil0 str0" d="M2823 840c110,10 186,82 197,187 1,16 2,26 2,56 0,7 0,16 0,26 6,-1 9,-4 10,-10"/>
    <line class="fil0 str0" x1="3032" y1="1099" x2="3126" y2= "1097" />
    <path class="fil0 str0" d="M3126 1097c38,0 53,2 69,10"/>
    <polyline class="fil0 str0" points="3195,1107 3195,1109 3193,1109 3193,1111 3190,1112 "/>
    <path class="fil0 str0" d="M3190 1112c0,2 0,3 0,6 0,19 -3,70 -8,137 -3,-2 -5,-4 -5,-5"/>
    <polyline class="fil0 str0" points="3177,1250 3092,1258 3084,1259 "/>
    <path class="fil0 str0" d="M3084 1259c1,1 2,3 5,5"/>
    <line class="fil0 str0" x1="3089" y1="1264" x2="3088" y2= "1342" />
    <path class="fil0 str0" d="M3088 1342c0,120 4,328 9,457"/>
    <polyline class="fil0 str0" points="3097,1799 3100,1798 3101,1796 3102,1795 3102,1794 3103,1795 3145,1793 "/>
    <path class="fil0 str0" d="M3145 1793c24,0 35,2 50,10"/>
    <polyline class="fil0 str0" points="3195,1803 3195,1804 3193,1805 3193,1806 3190,1808 3182,4023 "/>
    <path class="fil0 str0" d="M3182 4023c-1,316 -1,633 0,949 -3,-2 -5,-4 -5,-5"/>
    <line class="fil0 str0" x1="3177" y1="4967" x2="3012" y2= "4968" />
    <path class="fil0 str0" d="M3012 4968c0,4 3,7 9,9 -6,100 -73,177 -167,195"/>
    <polyline class="fil0 str0" points="2854,5172 2803,5178 2805,5183 2810,5186 2816,5186 2821,5183 2823,5177 "/>
    <path class="fil0 str0" d="M2823 5177c5,0 10,0 15,0 96,0 175,-16 316,-64"/>
    <polyline class="fil0 str0" points="3154,5113 3154,5116 3159,5115 3159,5118 3164,5120 3164,5118 "/>
    <path class="fil0 str0" d="M3164 5118c0,1 0,3 0,4"/>
    <polyline class="fil0 str0" points="3164,5122 3169,5125 3168,5126 3167,5127 3166,5129 3164,5129 3167,5134 3167,5135 3212,5250 3212,5249 3211,5250 3209,5250 3210,5256 3206,5256 3208,5256 3207,5261 3205,5260 3204,5260 3203,5260 3202,5259 3202,5258 3198,5263 3197,5262 3197,5261 3196,5261 3197,5261 3193,5265 3191,5263 3191,5263 3190,5262 "/>
    <path class="fil0 str0" d="M3190 5262c-138,56 -244,79 -362,78"/>
    <line class="fil0 str0" x1="2828" y1="5340" x2="2744" y2= "5340" />
    <polyline class="fil0 str0" points="1997,1116 1988,1116 1989,1122 1994,1125 2001,1125 2006,1122 2007,1116 2021,1116 "/>
    <path class="fil0 str0" d="M2021 1116c17,0 21,-1 38,-3"/>
    <polyline class="fil0 str0" points="2059,1113 2059,1111 2058,1110 2067,1106 2067,1106 2066,1105 2066,1104 2074,1098 2074,1098 2073,1098 2073,1097 2072,1097 2079,1089 2079,1088 2078,1088 2077,1088 2076,1088 2080,1079 2079,1078 2076,1078 2077,1068 2076,1068 2075,1059 2072,1059 2069,1049 2069,1050 2068,1050 2066,1052 2060,1044 2059,1044 2059,1044 2058,1044 2058,1045 2050,1039 "/>
    <path class="fil0 str0" d="M2050 1039c0,1 -1,2 -1,2"/>
    <polyline class="fil0 str0" points="2049,1041 2040,1038 2040,1037 "/>
    <path class="fil0 str0" d="M2040 1037c0,1 0,2 0,4"/>
    <polyline class="fil0 str0" points="2040,1041 1936,1043 1936,1045 1937,1046 1929,1049 1929,1050 1929,1051 1929,1052 1921,1057 1922,1057 1922,1058 1923,1058 1923,1059 1924,1059 1918,1067 1918,1067 1919,1068 1920,1068 "/>
    <path class="fil0 str0" d="M1920 1068c0,1 -1,3 -4,10"/>
    <polyline class="fil0 str0" points="1916,1078 1911,1069 1918,1078 1917,1088 1916,1088 1920,1088 1921,1098 1924,1098 1924,1097 1928,1106 1929,1106 1929,1105 1930,1105 1936,1113 1937,1111 1937,1111 1938,1110 1938,1111 1946,1116 "/>
    <path class="fil0 str0" d="M1946 1116c0,0 1,-1 1,-2"/>
    <polyline class="fil0 str0" points="1947,1114 1955,1118 1956,1117 1956,1115 1956,1116 2036,1116 "/>
    <line class="fil0 str0" x1="1997" y1="1018" x2="2015" y2= "1017" />
    <path class="fil0 str0" d="M2015 1017c23,-2 28,-2 32,-2 4,-1 6,-1 9,-3"/>
    <line class="fil0 str0" x1="2056" y1="1012" x2="2058" y2= "1011" />
    <path class="fil0 str0" d="M2058 1011c14,-8 24,-25 24,-43 0,-17 -9,-34 -23,-42 -11,-7 -27,-9 -72,-9 -55,0 -77,15 -77,51 0,32 22,49 61,49"/>
    <line class="fil0 str0" x1="1971" y1="1017" x2="2036" y2= "1017" />
    <polyline class="fil0 str0" points="1689,5299 1699,5299 1699,5297 1700,5297 "/>
    <path class="fil0 str0" d="M1700 5297c12,-9 18,-17 18,-28 0,-14 -14,-27 -29,-27 -16,0 -28,12 -28,28 0,17 10,28 28,28 6,0 8,-1 21,-3"/>
    <polyline class="fil0 str0" points="2288,759 2298,757 2298,756 2301,756 "/>
    <path class="fil0 str0" d="M2301 756c14,-7 22,-18 22,-31 0,-18 -16,-34 -35,-34 -19,0 -34,15 -34,35 0,19 13,32 32,32 7,0 12,-1 25,-4"/>
    <polyline class="fil0 str0" points="1680,1116 1691,1114 1691,1115 "/>
    <path class="fil0 str0" d="M1691 1115c51,-3 90,-46 90,-100 0,-56 -45,-101 -101,-101 -57,0 -102,45 -102,101 0,58 47,104 102,101 8,0 13,0 31,-3"/>
    <path class="fil0 str0" d="M1373 1116c65,-7 102,-44 102,-101 0,-57 -46,-102 -102,-102 -56,0 -102,45 -102,101 0,58 44,101 102,101 9,0 9,0 31,-2"/>
   </g>
  </g>
 </g>
</svg>
