<?xml version="1.0" encoding="UTF-8"?>
<!DOCTYPE svg PUBLIC "-//W3C//DTD SVG 1.1//EN" "http://www.w3.org/Graphics/SVG/1.1/DTD/svg11.dtd">
<!-- Creator: CorelDRAW 2020 (64-Bit) -->
<svg xmlns="http://www.w3.org/2000/svg" xml:space="preserve" width="40mm" height="60mm" version="1.1" style="shape-rendering:geometricPrecision; text-rendering:geometricPrecision; image-rendering:optimizeQuality; fill-rule:evenodd; clip-rule:evenodd"
viewBox="0 0 4000 6000"
 xmlns:xlink="http://www.w3.org/1999/xlink"
 xmlns:xodm="http://www.corel.com/coreldraw/odm/2003">
 <defs>
  <style type="text/css">
   <![CDATA[
    .str0 {stroke:#332C2B;stroke-width:20;stroke-miterlimit:22.9256}
    .fil0 {fill:none}
   ]]>
  </style>
 </defs>
 <g id="图层_x0020_1">
  <metadata id="CorelCorpID_0Corel-Layer"/>
  <path class="fil0 str0" d="M-23415.57 5744.71c0,-2075.33 0,-4148.85 0,-6224.54 0,-302.5 245.64,-549.99 545.87,-550l0 -200.01c0,-27.49 28.02,-50 56.03,-50l3720.93 0 0 72.28c0,55 44.66,100 99.25,100l1803.68 0c54.59,0 99.25,-45 99.25,-100l0 -72.28 365.9 0 0 72.28c0,55 44.67,100 99.26,100l931.28 0c54.59,0 99.25,-45 99.25,-100l0 -72.28 7489.49 0c28.01,0 56.03,22.51 56.03,50l0 200.01c300.23,0 545.88,247.5 545.88,550l0 6224.54c0,302.5 -245.65,550 -545.88,550l0 200c0,27.49 -28.02,49.99 -56.03,49.99l-14708.29 0c-28.01,0 -56.03,-22.5 -56.03,-49.99l0 -200c-300.23,-0.01 -545.87,-247.5 -545.87,-550z"/>
  <path class="fil0 str0" d="M-22963.54 2753.9c-54.9,11.24 -217.99,-19.32 -217.99,-130.89 0,-111.57 90.44,-202.01 202.01,-202.01 111.57,0 202.01,90.44 202.01,202.01 0,111.57 -90.44,202.01 -202.01,202.01 -111.57,0 -202.01,-90.44 -202.01,-202.01"/>
  <g id="_2311648479232">
   <path class="fil0 str0" d="M1074.12 655.67c612.99,0 1225.46,0 1838.56,0 89.35,0 162.45,72.55 162.45,161.24l59.08 0c8.12,0 14.77,8.27 14.77,16.54l0 1099.07 -21.35 0c-16.25,0 -29.54,13.19 -29.54,29.31l0 532.76c0,16.12 13.29,29.32 29.54,29.32l21.35 0 0 108.07 -21.35 0c-16.25,0 -29.54,13.2 -29.54,29.32l0 275.08c0,16.12 13.29,29.31 29.54,29.31l21.35 0 0 2212.19c0,8.28 -6.65,16.55 -14.77,16.55l-59.08 0c0,88.68 -73.1,161.24 -162.45,161.24l-1838.56 0c-89.35,0 -162.46,-72.56 -162.46,-161.24l-59.07 0c-8.12,0 -14.77,-8.27 -14.77,-16.55l0 -4344.43c0,-8.27 6.65,-16.54 14.77,-16.54l59.07 0c0,-88.69 73.11,-161.24 162.46,-161.24z"/>
   <path class="fil0 str0" d="M1957.52 789.19c-3.32,-16.22 5.71,-64.39 38.66,-64.39 32.96,0 59.67,26.71 59.67,59.67 0,32.95 -26.71,59.67 -59.67,59.67 -32.95,0 -59.67,-26.72 -59.67,-59.67 0,-32.96 26.72,-59.67 59.67,-59.67"/>
  </g>
 </g>
</svg>
