<?xml version="1.0" encoding="UTF-8"?>
<!DOCTYPE svg PUBLIC "-//W3C//DTD SVG 1.1//EN" "http://www.w3.org/Graphics/SVG/1.1/DTD/svg11.dtd">
<!-- Creator: CorelDRAW X8 -->
<svg xmlns="http://www.w3.org/2000/svg" xml:space="preserve" width="40mm" height="60mm" version="1.1" style="shape-rendering:geometricPrecision; text-rendering:geometricPrecision; image-rendering:optimizeQuality; fill-rule:evenodd; clip-rule:evenodd"
viewBox="0 0 4000 6000"
 xmlns:xlink="http://www.w3.org/1999/xlink">
 <defs>
  <style type="text/css">
   <![CDATA[
    .str0 {stroke:black;stroke-width:7.62}
    .fil0 {fill:none}
   ]]>
  </style>
 </defs>
 <g id="图层_x0020_1">
  <metadata id="CorelCorpID_0Corel-Layer"/>
  <path class="fil0 str0" d="M1013 5335l0 -4543c0,-30 25,-48 54,-55 150,-35 309,-64 471,-84 30,-4 66,-2 81,33 15,35 36,92 101,92l574 0c53,0 98,-41 104,-93 3,-24 15,-40 63,-34 162,20 306,48 472,86 29,7 54,25 54,55l0 4414c0,30 -25,49 -54,54 -305,52 -622,90 -932,90 -313,0 -624,-41 -934,-90 -29,-4 -54,-24 -54,-54l0 -132"/>
 </g>
</svg>
