<?xml version="1.0" encoding="UTF-8"?>
<!DOCTYPE svg PUBLIC "-//W3C//DTD SVG 1.1//EN" "http://www.w3.org/Graphics/SVG/1.1/DTD/svg11.dtd">
<!-- Creator: CorelDRAW X8 -->
<svg xmlns="http://www.w3.org/2000/svg" xml:space="preserve" width="40mm" height="60mm" version="1.1" style="shape-rendering:geometricPrecision; text-rendering:geometricPrecision; image-rendering:optimizeQuality; fill-rule:evenodd; clip-rule:evenodd"
viewBox="0 0 4000 6000"
 xmlns:xlink="http://www.w3.org/1999/xlink">
 <defs>
  <style type="text/css">
   <![CDATA[
    .str0 {stroke:#332C2B;stroke-width:10}
    .fil0 {fill:none;fill-rule:nonzero}
   ]]>
  </style>
 </defs>
 <g id="图层_x0020_1">
  <metadata id="CorelCorpID_0Corel-Layer"/>
  <path class="fil0 str0" d="M937 1738c-193,4 -335,5 -377,6 -10,0 -34,1 -59,-13 -11,-6 -20,-14 -28,-24 -84,-105 -145,-221 -165,-355 -45,-306 182,-740 681,-699 237,19 417,133 518,346 86,183 87,372 -5,555 -23,45 -52,87 -81,129 -12,17 -26,30 -42,39 -32,19 -64,18 -78,18 -57,-2 -188,-1 -364,-2zm2126 0c-193,4 -334,5 -376,6 -10,0 -35,1 -60,-13 -10,-6 -20,-14 -28,-24 -84,-105 -145,-221 -165,-355 -45,-306 182,-740 681,-699 237,19 417,133 518,346 87,183 87,372 -5,555 -23,45 -52,87 -80,129 -13,17 -27,30 -43,39 -31,19 -63,18 -77,18 -58,-2 -189,-1 -365,-2zm-2126 1803c-193,4 -335,5 -377,6 -10,0 -34,1 -59,-13 -11,-6 -20,-14 -28,-24 -84,-106 -145,-221 -165,-356 -45,-306 182,-739 681,-699 237,20 417,134 518,347 86,183 87,372 -5,555 -23,45 -52,87 -81,129 -12,17 -26,30 -42,39 -32,18 -64,18 -78,17 -57,-1 -188,0 -364,-1zm2126 0c-193,4 -334,5 -376,6 -10,0 -35,1 -60,-13 -10,-6 -20,-14 -28,-24 -84,-106 -145,-221 -165,-356 -45,-306 182,-739 681,-699 237,20 417,134 518,347 87,183 87,372 -5,555 -23,45 -52,87 -80,129 -13,17 -27,30 -43,39 -31,18 -63,18 -77,17 -58,-1 -189,0 -365,-1zm-2126 1803c-193,4 -335,5 -377,6 -10,0 -34,1 -59,-13 -11,-6 -20,-14 -28,-24 -84,-105 -145,-221 -165,-356 -45,-306 182,-739 681,-698 237,19 417,133 518,346 86,183 87,372 -5,555 -23,45 -52,87 -81,129 -12,17 -26,30 -42,39 -32,18 -64,18 -78,17 -57,-1 -188,0 -364,-1zm2126 0c-193,4 -334,5 -376,6 -10,0 -35,1 -60,-13 -10,-6 -20,-14 -28,-24 -84,-105 -145,-221 -165,-356 -45,-306 182,-739 681,-698 237,19 417,133 518,346 87,183 87,372 -5,555 -23,45 -52,87 -80,129 -13,17 -27,30 -43,39 -31,18 -63,18 -77,17 -58,-1 -189,0 -365,-1z"/>
 </g>
</svg>
