<?xml version="1.0" encoding="UTF-8"?>
<!DOCTYPE svg PUBLIC "-//W3C//DTD SVG 1.1//EN" "http://www.w3.org/Graphics/SVG/1.1/DTD/svg11.dtd">
<!-- Creator: CorelDRAW 2020 (64-Bit) -->
<svg xmlns="http://www.w3.org/2000/svg" xml:space="preserve" width="40mm" height="60mm" version="1.1" style="shape-rendering:geometricPrecision; text-rendering:geometricPrecision; image-rendering:optimizeQuality; fill-rule:evenodd; clip-rule:evenodd"
viewBox="0 0 4000 6000"
 xmlns:xlink="http://www.w3.org/1999/xlink"
 xmlns:xodm="http://www.corel.com/coreldraw/odm/2003">
 <defs>
  <style type="text/css">
   <![CDATA[
    .str1 {stroke:#332C2B;stroke-width:20;stroke-miterlimit:22.9256}
    .str0 {stroke:#E62129;stroke-width:20;stroke-miterlimit:22.9256}
    .fil0 {fill:none}
   ]]>
  </style>
   <clipPath id="id0">
    <rect x="-49499.16" y="-4353.26" width="12987.01" height="16749.34"/>
   </clipPath>
 </defs>
 <g id="图层_x0020_1">
  <metadata id="CorelCorpID_0Corel-Layer"/>
  <g style="clip-path:url(#id0)">
   <image x="-49499.16" y="-4353.26" width="12987.01" height="16749.34" xlink:href="V40s -11i（前膜全屏）_Images\V40s -11i（前膜全屏）_ImgID1.png"/>
  </g>
  <rect class="fil0 str0" x="-44203.5" y="-4133.21" width="7650" height="16350"/>
  <path class="fil0 str0" d="M-42986.97 -3921.55l1623.01 0c128.49,0 179,151.95 259.8,151.95l312.55 0c105.8,0 100.22,110.8 100.22,175.38 0,179.74 145.7,325.44 325.44,325.44 179.74,0 325.44,-145.7 325.44,-325.44 0,-64.58 -6.18,-176.37 107.23,-175.38l322.71 0c80.8,0 128.66,-151.95 247.9,-151.95l1592.66 0c495,0 900,405.01 900,900l0 14046.59c0,495 -405,900 -900,900l-5216.96 0c-495.01,0 -900,-405 -900,-900l0 -14046.59c0,-495 404.99,-900 900,-900z"/>
  <path class="fil0 str1" d="M-7683.91 6527.22l0 -5648.23c0,-494.99 -405.01,-900 -900,-900l-14046.59 0c-494.99,0 -900,405 -900,900l0 1592.66c0,119.24 151.95,167.1 151.95,247.9l0 322.71c-0.99,113.41 110.8,107.23 175.38,107.23 179.74,0 325.44,145.7 325.44,325.44 0,179.74 -145.7,325.44 -325.44,325.44 -64.58,0 -175.38,-5.58 -175.38,100.22l0 312.55c0,80.8 -151.95,131.31 -151.95,259.8l0 1623.01c0,495.01 405,900 900,900l14046.59 0c495,0 900,-404.99 900,-900 0,-495.01 99.9,-682.22 156.79,-752.33"/>
  <path class="fil0 str1" d="M1100.13 5304.48l1658.82 0c145.37,0 264.32,-118.94 264.32,-264.32l0 -4125.31c0,-145.37 -118.94,-264.32 -264.32,-264.32l-467.75 0c-35.01,0 -49.07,44.63 -72.8,44.63l-94.78 0c-33.3,-0.29 -31.49,32.54 -31.49,51.5 0,52.79 -42.79,95.58 -95.58,95.58 -52.78,0 -95.58,-42.79 -95.58,-95.58 0,-18.96 1.64,-51.5 -29.43,-51.5l-91.79 0c-23.73,0 -38.57,-44.63 -76.3,-44.63l-476.66 0c-145.38,0 -264.32,118.94 -264.32,264.32l0 4125.31c0,145.38 118.94,264.32 264.32,264.32 145.38,0 200.36,29.34 220.95,46.05"/>
 </g>
</svg>
