<?xml version="1.0" encoding="UTF-8"?>
<!DOCTYPE svg PUBLIC "-//W3C//DTD SVG 1.1//EN" "http://www.w3.org/Graphics/SVG/1.1/DTD/svg11.dtd">
<!-- Creator: CorelDRAW X8 -->
<svg xmlns="http://www.w3.org/2000/svg" xml:space="preserve" width="40mm" height="60mm" version="1.1" style="shape-rendering:geometricPrecision; text-rendering:geometricPrecision; image-rendering:optimizeQuality; fill-rule:evenodd; clip-rule:evenodd"
viewBox="0 0 4000 6000"
 xmlns:xlink="http://www.w3.org/1999/xlink">
 <defs>
  <style type="text/css">
   <![CDATA[
    .str0 {stroke:black;stroke-width:7.62}
    .fil0 {fill:none;fill-rule:nonzero}
   ]]>
  </style>
 </defs>
 <g id="图层_x0020_1">
  <metadata id="CorelCorpID_0Corel-Layer"/>
  <path class="fil0 str0" d="M3033 825l0 236c0,-141 -114,-255 -254,-255l0 -156 -1558 0 0 156c-140,0 -254,114 -254,255l0 0 0 -298 -156 0 0 4474 156 0 0 -298 0 0c0,141 114,255 254,255l0 0 0 156 1558 0 0 -156c140,0 254,-114 254,-255l0 298 156 0 0 -298 0 0 0 -3878 0 0 0 -298 -156 0 0 62zm-1628 349c0,70 -57,127 -127,127 -70,0 -127,-57 -127,-127 0,-71 57,-128 127,-128 70,0 127,57 127,128zm-70 502c0,32 -26,57 -57,57 -31,0 -57,-25 -57,-57 0,-31 26,-56 57,-56 31,0 57,25 57,56zm424 -948c0,8 -6,14 -14,14 -8,0 -14,-6 -14,-14 0,-8 6,-14 14,-14 8,0 14,6 14,14zm1392 1040c0,24 -19,43 -43,43l0 0c-23,0 -42,-19 -42,-43l0 -453c0,-23 19,-42 42,-42l0 0c24,0 43,19 43,42l0 453zm-2227 418c0,20 -16,35 -35,35l0 0c-20,0 -36,-15 -36,-35l0 -495c0,-20 16,-36 36,-36l0 0c19,0 35,16 35,36l0 495zm0 467c0,20 -16,36 -35,36l0 0c-20,0 -36,-16 -36,-36l0 -241c0,-19 16,-35 36,-35l0 0c19,0 35,16 35,35l0 241zm970 2622l0 0 31 23c0,0 0,0 0,0 1,1 3,2 5,2 0,0 0,1 1,1 0,0 0,-1 0,-1l133 0c0,0 0,1 0,1 1,0 1,-1 1,-1 2,0 4,-1 5,-2 0,0 0,0 0,0l31 -23 0 0c2,-2 3,-4 3,-6l0 -31c0,-5 -4,-8 -8,-8l-197 0c-4,0 -8,3 -8,8l0 31c0,2 1,4 3,6zm-569 4c0,16 -13,29 -28,29 -16,0 -29,-13 -29,-29 0,-15 13,-28 29,-28 15,0 28,13 28,28zm61 0c0,16 -13,29 -28,29 -16,0 -29,-13 -29,-29 0,-15 13,-28 29,-28 15,0 28,13 28,28zm61 0c0,16 -13,29 -28,29 -16,0 -29,-13 -29,-29 0,-15 13,-28 29,-28 15,0 28,13 28,28zm61 0c0,16 -13,29 -29,29 -15,0 -28,-13 -28,-29 0,-15 13,-28 28,-28 16,0 29,13 29,28zm61 0c0,16 -13,29 -29,29 -15,0 -28,-13 -28,-29 0,-15 13,-28 28,-28 16,0 29,13 29,28zm60 0c0,16 -12,29 -28,29 -16,0 -28,-13 -28,-29 0,-15 12,-28 28,-28 16,0 28,13 28,28zm1041 0c0,16 13,29 28,29 16,0 29,-13 29,-29 0,-15 -13,-28 -29,-28 -15,0 -28,13 -28,28zm-61 0c0,16 13,29 28,29 16,0 29,-13 29,-29 0,-15 -13,-28 -29,-28 -15,0 -28,13 -28,28zm-61 0c0,16 13,29 29,29 15,0 28,-13 28,-29 0,-15 -13,-28 -28,-28 -16,0 -29,13 -29,28zm-61 0c0,16 13,29 29,29 15,0 28,-13 28,-29 0,-15 -13,-28 -28,-28 -16,0 -29,13 -29,28zm-61 0c0,16 13,29 29,29 15,0 28,-13 28,-29 0,-15 -13,-28 -28,-28 -16,0 -29,13 -29,28zm-60 0c0,16 12,29 28,29 16,0 28,-13 28,-29 0,-15 -12,-28 -28,-28 -16,0 -28,13 -28,28zm285 -4516c0,32 -25,57 -56,57 -32,0 -57,-25 -57,-57 0,-31 25,-56 57,-56 31,0 56,25 56,56zm-632 1015c91,0 165,74 165,165 0,91 -74,165 -165,165 -91,0 -165,-74 -165,-165 0,-91 74,-165 165,-165z"/>
 </g>
</svg>
