<?xml version="1.0" encoding="UTF-8"?>
<!DOCTYPE svg PUBLIC "-//W3C//DTD SVG 1.1//EN" "http://www.w3.org/Graphics/SVG/1.1/DTD/svg11.dtd">
<!-- Creator: CorelDRAW X8 -->
<svg xmlns="http://www.w3.org/2000/svg" xml:space="preserve" width="40mm" height="60mm" version="1.1" style="shape-rendering:geometricPrecision; text-rendering:geometricPrecision; image-rendering:optimizeQuality; fill-rule:evenodd; clip-rule:evenodd"
viewBox="0 0 4000 6000"
 xmlns:xlink="http://www.w3.org/1999/xlink">
 <defs>
  <style type="text/css">
   <![CDATA[
    .str0 {stroke:black;stroke-width:20}
    .fil0 {fill:none}
   ]]>
  </style>
 </defs>
 <g id="图层_x0020_1">
  <metadata id="CorelCorpID_0Corel-Layer"/>
  <path class="fil0 str0" d="M897 5350l1994 0c138,0 252,-113 252,-252l0 -4196c0,-139 -114,-252 -252,-252l-1782 0c-138,0 -252,113 -252,252l0 4196c0,139 114,252 252,252l210 0m1155 -4650c0,-5 -5,-9 -13,-10 -32,0 -57,26 -57,57 0,31 25,56 57,56 31,0 56,-25 56,-56 0,-31 -25,-57 -56,-57m-580 51c-6,-24 -19,-43 -78,-43l-51 0c-26,0 -48,21 -48,48l0 0c0,27 22,48 48,48l523 0c27,0 49,-21 49,-48l0 0c0,-27 -22,-48 -49,-48l-472 0m-316 25c-3,-12 -7,-20 -27,-20l-15 0c-23,0 -41,18 -41,40l0 0c0,23 18,41 41,41l80 0c22,0 40,-18 40,-41l0 0c0,-22 -18,-40 -40,-40l-65 0m422 4546c-6,-24 -19,-43 -79,-43l-50 0c-27,0 -48,21 -48,48l0 0c0,26 21,48 48,48l517 0c26,0 48,-22 48,-48l0 0c0,-27 -22,-48 -48,-48l-467 0m-551 -4506c0,-5 -4,-10 -13,-10 -31,0 -56,25 -56,56 0,31 25,56 56,56 31,0 56,-25 56,-56 0,-31 -25,-56 -56,-56m1510 32c0,-3 -3,-6 -8,-6 -18,0 -32,14 -32,32 0,18 14,32 32,32 18,0 32,-14 32,-32 0,-18 -14,-32 -32,-32"/>
 </g>
</svg>
