<?xml version="1.0" encoding="UTF-8"?>
<!DOCTYPE svg PUBLIC "-//W3C//DTD SVG 1.1//EN" "http://www.w3.org/Graphics/SVG/1.1/DTD/svg11.dtd">
<!-- Creator: CorelDRAW 2020 (64-Bit) -->
<svg xmlns="http://www.w3.org/2000/svg" xml:space="preserve" width="40mm" height="60mm" version="1.1" style="shape-rendering:geometricPrecision; text-rendering:geometricPrecision; image-rendering:optimizeQuality; fill-rule:evenodd; clip-rule:evenodd"
viewBox="0 0 4000 6000"
 xmlns:xlink="http://www.w3.org/1999/xlink"
 xmlns:xodm="http://www.corel.com/coreldraw/odm/2003">
 <defs>
  <style type="text/css">
   <![CDATA[
    .str1 {stroke:#332C2B;stroke-width:20;stroke-miterlimit:22.9256}
    .str0 {stroke:#E72D28;stroke-width:20;stroke-miterlimit:22.9256}
    .fil0 {fill:none}
   ]]>
  </style>
   <clipPath id="id0">
    <rect x="-38312.06" y="-6009.5" width="13620.31" height="16841.72"/>
   </clipPath>
 </defs>
 <g id="图层_x0020_1">
  <metadata id="CorelCorpID_0Corel-Layer"/>
  <g style="clip-path:url(#id0)">
   <image x="-38312.06" y="-6009.5" width="13620.31" height="16841.72" xlink:href="Pixel 7 Pro -11i（前膜带壳）_Images\Pixel 7 Pro -11i（前膜带壳）_ImgID1.png"/>
  </g>
  <rect class="fil0 str0" x="-32622.74" y="-5641.04" width="7660" height="16290"/>
  <path class="fil0 str0" d="M-32035.29 -5495.51l1339.52 0c19.76,0 29.98,29 51.79,29l3741.23 0c21.81,0 28.8,-29 51.79,-29l1300.77 0c275,0 499.99,224.99 499.99,499.98l0 14996.66c0,274.99 -224.99,499.99 -499.99,499.99l-6485.1 0c-275,0 -499.99,-225 -499.99,-499.99l0 -14996.66c0,-274.99 224.99,-499.98 499.99,-499.98z"/>
  <path class="fil0 str1" d="M-4929.25 6001.73l0 -6641.9c0,-271.32 -223.61,-493.31 -496.87,-493.31l-14902.88 0c-273.27,0 -496.86,221.98 -496.86,493.31 0,2129.38 0,4258.73 0,6398.48 0,271.33 223.59,493.31 496.86,493.31l14902.88 0c273.27,0 496.87,-221.98 496.87,-493.31 0,-271.33 49.03,-454.21 112.54,-528.3"/>
  <path class="fil0 str1" d="M940.89 5311.67l1996.8 0c80.13,0 145.69,-65.56 145.69,-145.68l0 -4369.77c0,-80.13 -65.56,-145.69 -145.69,-145.69l-379.02 0c-6.7,0 -8.74,8.45 -15.09,8.45l-1090.13 0c-6.35,0 -9.33,-8.45 -15.09,-8.45l-390.31 0c-80.13,0 -145.69,65.56 -145.69,145.69l0 4369.77c0,80.12 65.56,145.68 145.69,145.68 80.13,0 128.39,13.03 162.31,38.86"/>
 </g>
</svg>
