<?xml version="1.0" encoding="UTF-8"?>
<!DOCTYPE svg PUBLIC "-//W3C//DTD SVG 1.1//EN" "http://www.w3.org/Graphics/SVG/1.1/DTD/svg11.dtd">
<!-- Creator: CorelDRAW -->
<svg xmlns="http://www.w3.org/2000/svg" xml:space="preserve" width="40mm" height="60mm" style="shape-rendering:geometricPrecision; text-rendering:geometricPrecision; image-rendering:optimizeQuality; fill-rule:evenodd; clip-rule:evenodd"
viewBox="0 0 40 60"
 xmlns:xlink="http://www.w3.org/1999/xlink">
 <defs>
  <style type="text/css">
   <![CDATA[
    .str0 {stroke:#1F1A17;stroke-width:0.0762}
    .fil0 {fill:none}
   ]]>
  </style>
 </defs>
 <g id="图层_x0020_1">
  <metadata id="CorelCorpID_0Corel-Layer"/>
  <g id="_172206832">
   <path id="_173375080" class="fil0 str0" d="M8.4988 6.5l23.0024 0c0.7028,0 1.2778,0.6316 1.2778,1.4035l0 44.193c0,0.772 -0.575,1.4035 -1.2778,1.4035l-23.0024 0c-0.7028,0 -1.2778,-0.6315 -1.2778,-1.4035l0 -44.193c0,-0.7719 0.575,-1.4035 1.2778,-1.4035z"/>
   <path id="_173373232" class="fil0 str0" d="M17.8619 7.7705l4.2125 0c0.2582,0 0.4695,0.2043 0.4695,0.4539l0 0c0,0.2497 -0.2113,0.4539 -0.4695,0.4539l-4.2125 0c-0.2582,0 -0.4695,-0.2042 -0.4695,-0.4539l0 0c0,-0.2496 0.2113,-0.4539 0.4695,-0.4539z"/>
  </g>
 </g>
</svg>
