<?xml version="1.0" encoding="UTF-8"?>
<!DOCTYPE svg PUBLIC "-//W3C//DTD SVG 1.1//EN" "http://www.w3.org/Graphics/SVG/1.1/DTD/svg11.dtd">
<!-- Creator: CorelDRAW X8 -->
<svg xmlns="http://www.w3.org/2000/svg" xml:space="preserve" width="40mm" height="60mm" version="1.1" style="shape-rendering:geometricPrecision; text-rendering:geometricPrecision; image-rendering:optimizeQuality; fill-rule:evenodd; clip-rule:evenodd"
viewBox="0 0 4000 6000"
 xmlns:xlink="http://www.w3.org/1999/xlink">
 <defs>
  <style type="text/css">
   <![CDATA[
    .str0 {stroke:black;stroke-width:7.62}
    .fil0 {fill:none}
   ]]>
  </style>
 </defs>
 <g id="图层_x0020_1">
  <metadata id="CorelCorpID_0Corel-Layer"/>
  <path class="fil0 str0" d="M957 5350l1954 0c116,0 211,-95 211,-211l0 -4278c0,-116 -95,-211 -211,-211l-1822 0c-116,0 -211,95 -211,211l0 4278c0,116 95,211 211,211l111 0m272 -4573c0,-5 -5,-9 -13,-10 -32,0 -57,26 -57,57 0,31 25,57 57,57 31,0 57,-26 57,-57 0,-31 -26,-57 -57,-57m510 50c-5,-20 -16,-36 -66,-36l-43 0c-22,0 -40,18 -40,40l0 0c0,23 18,41 40,41l276 0c22,0 40,-18 40,-41l0 0c0,-22 -18,-40 -40,-40l-233 0m-227 20c-3,-11 -7,-20 -26,-20l-16 0c-23,0 -41,19 -41,41l0 0c0,23 18,41 41,41l81 0c22,0 41,-18 41,-41l0 0c0,-22 -19,-41 -41,-41l-65 0"/>
 </g>
</svg>
