<?xml version="1.0" encoding="UTF-8"?>
<!DOCTYPE svg PUBLIC "-//W3C//DTD SVG 1.1//EN" "http://www.w3.org/Graphics/SVG/1.1/DTD/svg11.dtd">
<!-- Creator: CorelDRAW X8 -->
<svg xmlns="http://www.w3.org/2000/svg" xml:space="preserve" width="40mm" height="60mm" version="1.1" style="shape-rendering:geometricPrecision; text-rendering:geometricPrecision; image-rendering:optimizeQuality; fill-rule:evenodd; clip-rule:evenodd"
viewBox="0 0 4000 6000"
 xmlns:xlink="http://www.w3.org/1999/xlink">
 <defs>
  <style type="text/css">
   <![CDATA[
    .str0 {stroke:black;stroke-width:7.62}
    .fil0 {fill:none}
   ]]>
  </style>
 </defs>
 <g id="图层_x0020_1">
  <metadata id="CorelCorpID_0Corel-Layer"/>
  <path class="fil0 str0" d="M2598 760c0,-4 -4,-8 -12,-9 -29,0 -53,24 -53,53 0,29 24,53 53,53 29,0 53,-24 53,-53 0,-29 -24,-53 -53,-53m-654 41c-6,-22 -18,-39 -72,-39l-46 0c-24,0 -44,20 -44,44l0 0c0,24 20,44 44,44l364 0c25,0 44,-20 44,-44l0 0c0,-24 -19,-44 -44,-44l-318 0m504 25c-4,-12 -8,-21 -29,-21l-18 0c-24,0 -44,20 -44,44l0 0c0,24 20,44 44,44l81 0c25,0 44,-20 44,-44l0 0c0,-24 -19,-44 -44,-44l-63 0m-1343 4593l1900 0c115,0 208,-94 208,-208l0 -4284c0,-114 -93,-208 -208,-208l-1784 0c-115,0 -208,94 -208,208l0 4284c0,114 93,208 208,208l49 0"/>
 </g>
</svg>
