<?xml version="1.0" encoding="UTF-8"?>
<!DOCTYPE svg PUBLIC "-//W3C//DTD SVG 1.1//EN" "http://www.w3.org/Graphics/SVG/1.1/DTD/svg11.dtd">
<!-- Creator: CorelDRAW X8 -->
<svg xmlns="http://www.w3.org/2000/svg" xml:space="preserve" width="40mm" height="60mm" version="1.1" style="shape-rendering:geometricPrecision; text-rendering:geometricPrecision; image-rendering:optimizeQuality; fill-rule:evenodd; clip-rule:evenodd"
viewBox="0 0 4000 6000"
 xmlns:xlink="http://www.w3.org/1999/xlink">
 <defs>
  <style type="text/css">
   <![CDATA[
    .str0 {stroke:black;stroke-width:20}
    .fil0 {fill:none}
   ]]>
  </style>
 </defs>
 <g id="图层_x0020_1">
  <metadata id="CorelCorpID_0Corel-Layer"/>
  <path class="fil0 str0" d="M2751 5340l248 0c11,0 21,-11 21,-24l0 -4642c0,-13 -10,-24 -21,-24l-225 0c-12,0 -22,11 -22,24l0 4642c0,13 10,24 22,24l5 0c15,0 26,4 32,10m-503 -10l248 0c12,0 21,-11 21,-24l0 -4642c0,-13 -9,-24 -21,-24l-225 0c-12,0 -21,11 -21,24l0 4642c0,13 9,24 21,24l6 0c14,0 25,4 31,10m-503 -10l248 0c12,0 22,-11 22,-24l0 -4642c0,-13 -10,-24 -22,-24l-225 0c-11,0 -21,11 -21,24l0 4642c0,13 10,24 21,24l6 0c14,0 25,4 32,10m-503 -10l248 0c11,0 21,-11 21,-24l0 -4642c0,-13 -10,-24 -21,-24l-225 0c-12,0 -22,11 -22,24l0 4642c0,13 10,24 22,24l5 0c15,0 26,4 32,10m-503 -10l248 0c12,0 21,-11 21,-24l0 -4642c0,-13 -9,-24 -21,-24l-225 0c-12,0 -21,11 -21,24l0 4642c0,13 9,24 21,24l6 0c14,0 25,4 31,10"/>
 </g>
</svg>
