<?xml version="1.0" encoding="UTF-8"?>
<!DOCTYPE svg PUBLIC "-//W3C//DTD SVG 1.1//EN" "http://www.w3.org/Graphics/SVG/1.1/DTD/svg11.dtd">
<!-- Creator: CorelDRAW X8 -->
<svg xmlns="http://www.w3.org/2000/svg" xml:space="preserve" width="40mm" height="60mm" version="1.1" style="shape-rendering:geometricPrecision; text-rendering:geometricPrecision; image-rendering:optimizeQuality; fill-rule:evenodd; clip-rule:evenodd"
viewBox="0 0 4000 6000"
 xmlns:xlink="http://www.w3.org/1999/xlink">
 <defs>
  <style type="text/css">
   <![CDATA[
    .str0 {stroke:black;stroke-width:7.62}
    .fil0 {fill:none}
   ]]>
  </style>
 </defs>
 <g id="图层_x0020_1">
  <metadata id="CorelCorpID_0Corel-Layer"/>
  <path class="fil0 str0" d="M1200 762c0,-5 -5,-11 -16,-12 -38,0 -68,31 -68,68 0,38 30,68 68,68 37,0 68,-30 68,-68 0,-37 -31,-68 -68,-68m-156 4575l1816 0c108,0 197,-88 197,-196l0 -4283c0,-108 -89,-196 -197,-196l-530 0c-2,0 -3,0 -4,2l-9 9c-1,2 -3,2 -4,2l-595 0c-3,0 -6,0 -7,-2l-8 -8c-3,-2 -6,-3 -9,-3l-522 0c-108,0 -197,88 -197,196l0 4283c0,108 89,196 197,196l38 0c32,0 65,10 79,25"/>
 </g>
</svg>
