<?xml version="1.0" encoding="UTF-8"?>
<!DOCTYPE svg PUBLIC "-//W3C//DTD SVG 1.1//EN" "http://www.w3.org/Graphics/SVG/1.1/DTD/svg11.dtd">
<!-- Creator: CorelDRAW X8 -->
<svg xmlns="http://www.w3.org/2000/svg" xml:space="preserve" width="40mm" height="60mm" version="1.1" style="shape-rendering:geometricPrecision; text-rendering:geometricPrecision; image-rendering:optimizeQuality; fill-rule:evenodd; clip-rule:evenodd"
viewBox="0 0 4000 6000"
 xmlns:xlink="http://www.w3.org/1999/xlink">
 <defs>
  <style type="text/css">
   <![CDATA[
    .str0 {stroke:black;stroke-width:7.62}
    .fil0 {fill:none}
   ]]>
  </style>
 </defs>
 <g id="图层_x0020_1">
  <metadata id="CorelCorpID_0Corel-Layer"/>
  <path class="fil0 str0" d="M2061 887c-2,-20 -20,-39 -57,-42 -131,0 -238,107 -238,238 0,132 107,239 238,239 132,0 239,-107 239,-239 0,-131 -107,-238 -239,-238m4 593c-4,-16 -10,-27 -36,-27l-21 0c-30,0 -55,25 -55,55l0 0c0,30 25,54 55,54l105 0c30,0 55,-24 55,-54l0 0c0,-30 -25,-55 -55,-55l-84 0m-389 3462c-10,-38 -31,-68 -124,-68l-81 0c-42,0 -76,34 -76,76l0 0c0,42 34,77 76,77l1268 0c42,0 77,-35 77,-77l0 0c0,-42 -35,-76 -77,-76l-1187 0m-498 545l1959 0c131,0 238,-107 238,-238l0 -4224c0,-131 -107,-238 -238,-238l-1840 0c-131,0 -238,107 -238,238l0 4224c0,131 107,238 238,238l84 0"/>
 </g>
</svg>
