<?xml version="1.0" encoding="UTF-8"?>
<!DOCTYPE svg PUBLIC "-//W3C//DTD SVG 1.1//EN" "http://www.w3.org/Graphics/SVG/1.1/DTD/svg11.dtd">
<!-- Creator: CorelDRAW X8 -->
<svg xmlns="http://www.w3.org/2000/svg" xml:space="preserve" width="40mm" height="60mm" version="1.1" style="shape-rendering:geometricPrecision; text-rendering:geometricPrecision; image-rendering:optimizeQuality; fill-rule:evenodd; clip-rule:evenodd"
viewBox="0 0 4000 6000"
 xmlns:xlink="http://www.w3.org/1999/xlink">
 <defs>
  <style type="text/css">
   <![CDATA[
    .str0 {stroke:#222222;stroke-width:20}
    .fil0 {fill:none}
   ]]>
  </style>
 </defs>
 <g id="图层_x0020_1">
  <metadata id="CorelCorpID_0Corel-Layer"/>
  <path class="fil0 str0" d="M962 5253l1857 0c120,0 219,-99 219,-219l0 -4165c0,-120 -99,-219 -219,-219l-716 0 0 48c0,44 -36,79 -80,79l0 0c-43,0 -79,-35 -79,-79l0 -48 -727 0c-120,0 -219,99 -219,219l0 4165c0,120 99,219 219,219 121,0 241,68 241,97"/>
  <path class="fil0 str0" d="M-15006 5719l0 -6349c0,-412 -338,-750 -750,-750l-14240 0c-413,0 -750,338 -750,750l0 2448 163 0c150,0 272,122 272,272l0 0c0,150 -122,272 -272,272l-163 0 0 2484c0,413 337,750 750,750l14240 0c412,0 750,-337 750,-750 0,-412 233,-824 332,-824"/>
 </g>
</svg>
