<?xml version="1.0" encoding="UTF-8"?>
<!DOCTYPE svg PUBLIC "-//W3C//DTD SVG 1.1//EN" "http://www.w3.org/Graphics/SVG/1.1/DTD/svg11.dtd">
<!-- Creator: CorelDRAW 2020 (64-Bit) -->
<svg xmlns="http://www.w3.org/2000/svg" xml:space="preserve" width="40mm" height="60mm" version="1.1" style="shape-rendering:geometricPrecision; text-rendering:geometricPrecision; image-rendering:optimizeQuality; fill-rule:evenodd; clip-rule:evenodd"
viewBox="0 0 4000 6000"
 xmlns:xlink="http://www.w3.org/1999/xlink"
 xmlns:xodm="http://www.corel.com/coreldraw/odm/2003">
 <defs>
  <style type="text/css">
   <![CDATA[
    .str1 {stroke:#332C2B;stroke-width:20;stroke-miterlimit:22.9256}
    .str0 {stroke:#E62129;stroke-width:20;stroke-miterlimit:22.9256}
    .fil0 {fill:none}
   ]]>
  </style>
   <clipPath id="id0">
    <rect x="-26773.85" y="-730.36" width="4878.39" height="7411.4"/>
   </clipPath>
 </defs>
 <g id="图层_x0020_1">
  <metadata id="CorelCorpID_0Corel-Layer"/>
  <g style="clip-path:url(#id0)">
   <image x="-26773.85" y="-730.36" width="4878.39" height="7411.4" xlink:href="Galaxy Watch Active -11i_Images\Galaxy Watch Active -11i_ImgID1.png"/>
  </g>
  <circle class="fil0 str0" cx="-24295.26" cy="3000" r="2000"/>
  <circle class="fil0 str0" cx="-24295.26" cy="3000" r="1856.07"/>
  <path class="fil0 str1" d="M-15952.91 5190.75c0,1025.08 830.99,1856.07 1856.07,1856.07 1025.08,0 1856.07,-830.99 1856.07,-1856.07 0,-1025.08 -830.99,-1856.07 -1856.07,-1856.07 -1025.08,0 -1856.07,830.99 -1856.07,1856.07 0,1025.08 11.78,1612.59 11.78,1612.59m-11.78 -6248.09c0,1025.08 830.99,1856.07 1856.07,1856.07 1025.08,0 1856.07,-830.99 1856.07,-1856.07 0,-1025.08 -830.99,-1856.07 -1856.07,-1856.07 -1025.08,0 -1856.07,830.99 -1856.07,1856.07 0,1025.08 11.78,1612.59 11.78,1612.59m4179.22 3022.91c0,1025.08 830.99,1856.07 1856.07,1856.07 1025.08,0 1856.07,-830.99 1856.07,-1856.07 0,-1025.08 -830.99,-1856.07 -1856.07,-1856.07 -1025.08,0 -1856.07,830.99 -1856.07,1856.07 0,1025.08 11.78,1612.59 11.78,1612.59m4179.22 -1612.59c0,1025.08 830.99,1856.07 1856.07,1856.07 1025.08,0 1856.07,-830.99 1856.07,-1856.07 0,-1025.08 -830.99,-1856.07 -1856.07,-1856.07 -1025.08,0 -1856.07,830.99 -1856.07,1856.07 0,1025.08 11.78,1612.59 11.78,1612.59m-4202.78 -6248.09c0,1025.08 830.99,1856.07 1856.07,1856.07 1025.08,0 1856.07,-830.99 1856.07,-1856.07 0,-1025.08 -830.99,-1856.07 -1856.07,-1856.07 -1025.08,0 -1856.07,830.99 -1856.07,1856.07 0,1025.08 11.78,1612.59 11.78,1612.59m4179.22 -1612.59c0,1025.08 830.99,1856.07 1856.07,1856.07 1025.08,0 1856.07,-830.99 1856.07,-1856.07 0,-1025.08 -830.99,-1856.07 -1856.07,-1856.07 -1025.08,0 -1856.07,830.99 -1856.07,1856.07 0,1025.08 11.78,1612.59 11.78,1612.59"/>
  <path class="fil0 str1" d="M1092.15 650.53c-398.36,0 -721.3,322.94 -721.3,721.3 0,398.37 322.94,721.3 721.3,721.3 398.37,0 721.3,-322.93 721.3,-721.3 0,-398.36 -322.93,-721.3 -721.3,-721.3 -398.36,0 -626.68,4.58 -626.68,4.58m2428.12 -4.58c-398.37,0 -721.3,322.94 -721.3,721.3 0,398.37 322.93,721.3 721.3,721.3 398.36,0 721.3,-322.93 721.3,-721.3 0,-398.36 -322.94,-721.3 -721.3,-721.3 -398.37,0 -626.68,4.58 -626.68,4.58m-1174.76 1624.12c-398.36,0 -721.3,322.94 -721.3,721.3 0,398.36 322.94,721.3 721.3,721.3 398.37,0 721.3,-322.94 721.3,-721.3 0,-398.36 -322.93,-721.3 -721.3,-721.3 -398.36,0 -626.68,4.58 -626.68,4.58m626.68 1624.12c-398.36,0 -721.3,322.93 -721.3,721.3 0,398.36 322.94,721.3 721.3,721.3 398.37,0 721.3,-322.94 721.3,-721.3 0,-398.37 -322.93,-721.3 -721.3,-721.3 -398.36,0 -626.68,4.57 -626.68,4.57m2428.12 -1633.27c-398.37,0 -721.3,322.94 -721.3,721.3 0,398.36 322.93,721.3 721.3,721.3 398.36,0 721.3,-322.94 721.3,-721.3 0,-398.36 -322.94,-721.3 -721.3,-721.3 -398.37,0 -626.68,4.58 -626.68,4.58m626.68 1624.12c-398.37,0 -721.3,322.93 -721.3,721.3 0,398.36 322.93,721.3 721.3,721.3 398.36,0 721.3,-322.94 721.3,-721.3 0,-398.37 -322.94,-721.3 -721.3,-721.3 -398.37,0 -626.68,4.57 -626.68,4.57"/>
 </g>
</svg>
