<?xml version="1.0" encoding="UTF-8"?>
<!DOCTYPE svg PUBLIC "-//W3C//DTD SVG 1.1//EN" "http://www.w3.org/Graphics/SVG/1.1/DTD/svg11.dtd">
<!-- Creator: CorelDRAW X8 -->
<svg xmlns="http://www.w3.org/2000/svg" xml:space="preserve" width="40mm" height="60mm" version="1.1" style="shape-rendering:geometricPrecision; text-rendering:geometricPrecision; image-rendering:optimizeQuality; fill-rule:evenodd; clip-rule:evenodd"
viewBox="0 0 4000 6000"
 xmlns:xlink="http://www.w3.org/1999/xlink">
 <defs>
  <style type="text/css">
   <![CDATA[
    .str0 {stroke:black;stroke-width:7.62}
    .fil0 {fill:none}
   ]]>
  </style>
 </defs>
 <g id="图层_x0020_1">
  <metadata id="CorelCorpID_0Corel-Layer"/>
  <path class="fil0 str0" d="M979 5350l1885 0c106,0 193,-87 193,-193l0 -4314c0,-106 -87,-193 -193,-193l-1728 0c-106,0 -193,87 -193,193l0 4314c0,106 87,193 193,193l180 0m-118 -4599c-1,-7 -7,-14 -20,-15 -45,0 -81,37 -81,82 0,45 36,81 81,81 46,0 82,-36 82,-81 0,-45 -36,-82 -82,-82"/>
 </g>
</svg>
