<?xml version="1.0" encoding="UTF-8"?>
<!DOCTYPE svg PUBLIC "-//W3C//DTD SVG 1.1//EN" "http://www.w3.org/Graphics/SVG/1.1/DTD/svg11.dtd">
<!-- Creator: CorelDRAW 2020 (64-Bit) -->
<svg xmlns="http://www.w3.org/2000/svg" xml:space="preserve" width="40mm" height="60mm" version="1.1" style="shape-rendering:geometricPrecision; text-rendering:geometricPrecision; image-rendering:optimizeQuality; fill-rule:evenodd; clip-rule:evenodd"
viewBox="0 0 4000 6000"
 xmlns:xlink="http://www.w3.org/1999/xlink"
 xmlns:xodm="http://www.corel.com/coreldraw/odm/2003">
 <defs>
  <style type="text/css">
   <![CDATA[
    .str1 {stroke:#332C2B;stroke-width:20;stroke-miterlimit:22.9256}
    .str0 {stroke:#E72D28;stroke-width:20;stroke-miterlimit:22.9256}
    .str2 {stroke:#222222;stroke-width:20;stroke-miterlimit:22.9256}
    .fil0 {fill:none}
   ]]>
  </style>
   <clipPath id="id0">
    <rect x="-37513.34" y="-5761.23" width="14215.23" height="17285.72"/>
   </clipPath>
 </defs>
 <g id="图层_x0020_1">
  <metadata id="CorelCorpID_0Corel-Layer"/>
  <g style="clip-path:url(#id0)">
   <image x="-37513.34" y="-5761.23" width="14215.23" height="17285.72" xlink:href="Y22-11i（背膜）_Images\Y22-11i（背膜）_ImgID1.png"/>
  </g>
  <rect class="fil0 str0" x="-37250.65" y="-5257.97" width="7610" height="16430"/>
  <rect class="fil0 str0" x="-37142.26" y="-5158.01" width="7393.22" height="16255.36" rx="800" ry="822.73"/>
  <rect class="fil0 str1" x="-36772.4" y="-4780.95" width="3984.6" height="4664.33" rx="550" ry="556.43"/>
  <rect class="fil0 str1" x="-36643.69" y="-4669.97" width="3761.08" height="4442.36" rx="519.15" ry="529.95"/>
  <circle class="fil0 str1" cx="-35519.86" cy="-3526.39" r="986.9"/>
  <circle class="fil0 str1" cx="-35519.86" cy="-1428.25" r="986.9"/>
  <rect class="fil0 str1" x="-34286.9" y="-2891.4" width="912.82" height="325.44" rx="104.07" ry="100"/>
  <path class="fil0 str2" d="M-1589.18 6396.01l0 -6200.68c0,-439.99 -360.01,-800 -800,-800l-14655.36 0c-440,0 -800,360 -800,800l0 5793.22c0,440 360,800 800,800l14655.36 0c440,0 800,-360 800,-800 0,-440 112.26,-950.74 244.55,-1114.79"/>
  <path class="fil0 str2" d="M-17467.48 5868.7l0 -2884.62c0,-302.5 247.49,-549.99 549.99,-549.99l3564.35 0c302.5,0 549.99,247.49 549.99,549.99l0 2884.62c0,302.5 -247.49,549.99 -549.99,549.99l-3564.35 0c-302.5,0 -549.99,-247.49 -549.99,-549.99z"/>
  <path class="fil0 str2" d="M-17356.5 5770.84l0 -2722.8c0,-285.53 233.61,-519.14 519.15,-519.14l3404.07 0c285.53,0 519.15,233.61 519.15,519.14l0 2722.8c0,285.53 -233.62,519.14 -519.15,519.14l-3404.07 0c-285.54,0 -519.15,-233.61 -519.15,-519.14z"/>
  <path class="fil0 str2" d="M-17199.82 5166.15c0,545.05 441.85,986.9 986.9,986.9 545.05,0 986.9,-441.85 986.9,-986.9 0,-545.05 -441.85,-986.9 -986.9,-986.9 -545.05,0 -986.9,441.85 -986.9,986.9 0,545.05 469.63,644.35 570.17,654.93"/>
  <path class="fil0 str2" d="M-15101.68 5166.15c0,545.05 441.85,986.9 986.9,986.9 545.05,0 986.9,-441.85 986.9,-986.9 0,-545.05 -441.85,-986.9 -986.9,-986.9 -545.05,0 -986.9,441.85 -986.9,986.9 0,545.05 591.35,729.02 694.54,721.08"/>
  <path class="fil0 str2" d="M-15577.93 3833.19c0,55 45,100 100,100l125.44 0c55,0 100,-45 100,-100l0 -712.82c0,-55 -45,-100 -100,-100l-125.44 0c-55,0 -100,45 -100,100l0 712.82c0,0 10.58,-323.27 87.31,-400"/>
  <g id="_2455794285296">
   <path class="fil0 str2" d="M1052.24 5286.01l1766.26 0c125.33,0 227.88,-102.55 227.88,-227.88l0 -4174.58c0,-125.33 -102.55,-227.88 -227.88,-227.88l-1650.2 0c-125.33,0 -227.88,102.55 -227.88,227.88l0 4174.58c0,125.34 102.55,227.88 227.88,227.88 125.33,0 270.82,31.98 317.55,69.66"/>
   <path class="fil0 str2" d="M1202.44 763.08l821.68 0c86.17,0 156.67,70.49 156.67,156.66l0 1015.31c0,86.16 -70.5,156.66 -156.67,156.66l-821.68 0c-86.17,0 -156.67,-70.5 -156.67,-156.66l0 -1015.31c0,-86.17 70.5,-156.66 156.67,-156.66z"/>
   <path class="fil0 str2" d="M1230.31 794.69l775.59 0c81.34,0 147.88,66.54 147.88,147.88l0 969.65c0,81.33 -66.54,147.88 -147.88,147.88l-775.59 0c-81.33,0 -147.87,-66.55 -147.87,-147.88l0 -969.65c0,-81.34 66.54,-147.88 147.87,-147.88z"/>
   <path class="fil0 str2" d="M1402.56 839.32c-155.26,0 -281.12,125.86 -281.12,281.12 0,155.26 125.86,281.12 281.12,281.12 155.26,0 281.12,-125.86 281.12,-281.12 0,-155.26 -125.86,-281.12 -281.12,-281.12 -155.26,0 -183.54,133.77 -186.56,162.41"/>
   <path class="fil0 str2" d="M1402.56 1436.98c-155.26,0 -281.12,125.86 -281.12,281.11 0,155.26 125.86,281.12 281.12,281.12 155.26,0 281.12,-125.86 281.12,-281.12 0,-155.25 -125.86,-281.11 -281.12,-281.11 -155.26,0 -207.66,168.44 -205.4,197.83"/>
   <path class="fil0 str2" d="M1782.25 1301.32c-15.66,0 -28.48,12.81 -28.48,28.48l0 35.73c0,15.67 12.82,28.49 28.48,28.49l203.05 0c15.67,0 28.49,-12.82 28.49,-28.49l0 -35.73c0,-15.67 -12.82,-28.48 -28.49,-28.48l-203.05 0c0,0 92.09,3.01 113.94,24.87"/>
  </g>
 </g>
</svg>
