<?xml version="1.0" encoding="UTF-8"?>
<!DOCTYPE svg PUBLIC "-//W3C//DTD SVG 1.1//EN" "http://www.w3.org/Graphics/SVG/1.1/DTD/svg11.dtd">
<!-- Creator: CorelDRAW X8 -->
<svg xmlns="http://www.w3.org/2000/svg" xml:space="preserve" width="40mm" height="60mm" version="1.1" style="shape-rendering:geometricPrecision; text-rendering:geometricPrecision; image-rendering:optimizeQuality; fill-rule:evenodd; clip-rule:evenodd"
viewBox="0 0 4000 6000"
 xmlns:xlink="http://www.w3.org/1999/xlink">
 <defs>
  <style type="text/css">
   <![CDATA[
    .str0 {stroke:black;stroke-width:7.62}
    .fil0 {fill:none}
   ]]>
  </style>
 </defs>
 <g id="图层_x0020_1">
  <metadata id="CorelCorpID_0Corel-Layer"/>
  <path class="fil0 str0" d="M1047 5308l1748 0c131,0 238,-107 238,-237l0 -4183c0,-131 -107,-238 -238,-238l-684 0c-20,0 -33,8 -33,30l0 50c0,42 -34,76 -75,76l0 0c-42,0 -76,-34 -76,-76l0 -50c0,-23 -11,-30 -28,-30l-694 0c-131,0 -238,107 -238,238l0 4183c0,130 107,237 238,237l53 0c30,0 55,27 67,42"/>
 </g>
</svg>
