<?xml version="1.0" encoding="UTF-8"?>
<!DOCTYPE svg PUBLIC "-//W3C//DTD SVG 1.1//EN" "http://www.w3.org/Graphics/SVG/1.1/DTD/svg11.dtd">
<!-- Creator: CorelDRAW X8 -->
<svg xmlns="http://www.w3.org/2000/svg" xml:space="preserve" width="40mm" height="60mm" version="1.1" style="shape-rendering:geometricPrecision; text-rendering:geometricPrecision; image-rendering:optimizeQuality; fill-rule:evenodd; clip-rule:evenodd"
viewBox="0 0 4000 6000"
 xmlns:xlink="http://www.w3.org/1999/xlink">
 <defs>
  <style type="text/css">
   <![CDATA[
    .str0 {stroke:black;stroke-width:7.62}
    .fil0 {fill:none}
   ]]>
  </style>
 </defs>
 <g id="图层_x0020_1">
  <metadata id="CorelCorpID_0Corel-Layer"/>
  <path class="fil0 str0" d="M814 5253l0 -4330c0,-125 104,-214 228,-228 317,-35 626,-45 949,-45 193,0 421,8 621,20 32,1 25,0 25,25 0,42 34,76 76,76l0 0c41,0 76,-34 76,-76 0,-16 -6,-14 17,-13 57,4 108,9 152,13 224,22 228,103 228,228l0 4154c0,125 -104,212 -228,228 -320,41 -644,45 -966,45 -323,0 -622,-13 -950,-45 -125,-13 -228,-103 -228,-228l0 -142m1081 -4211c-6,-21 -18,-38 -71,-38l-46 0c-24,0 -43,19 -43,43l0 0c0,24 19,44 43,44l459 0c24,0 44,-20 44,-44l0 0c0,-24 -20,-43 -44,-43l-413 0"/>
 </g>
</svg>
