<?xml version="1.0" encoding="UTF-8"?>
<!DOCTYPE svg PUBLIC "-//W3C//DTD SVG 1.1//EN" "http://www.w3.org/Graphics/SVG/1.1/DTD/svg11.dtd">
<!-- Creator: CorelDRAW 2020 (64-Bit) -->
<svg xmlns="http://www.w3.org/2000/svg" xml:space="preserve" width="40mm" height="60mm" version="1.1" style="shape-rendering:geometricPrecision; text-rendering:geometricPrecision; image-rendering:optimizeQuality; fill-rule:evenodd; clip-rule:evenodd"
viewBox="0 0 4000 6000"
 xmlns:xlink="http://www.w3.org/1999/xlink"
 xmlns:xodm="http://www.corel.com/coreldraw/odm/2003">
 <defs>
  <style type="text/css">
   <![CDATA[
    .str1 {stroke:#332C2B;stroke-width:20;stroke-miterlimit:22.9256}
    .str2 {stroke:#332C2B;stroke-width:20;stroke-miterlimit:22.9256}
    .str0 {stroke:#E62129;stroke-width:20;stroke-miterlimit:22.9256}
    .fil0 {fill:none}
    .fil1 {fill:#222222;fill-rule:nonzero}
   ]]>
  </style>
   <clipPath id="id0">
    <rect x="-60372.3" y="-5838.62" width="16183.21" height="16768.15"/>
   </clipPath>
   <clipPath id="id1">
    <rect x="-91698.98" y="-5838.62" width="16183.21" height="16768.15"/>
   </clipPath>
 </defs>
 <g id="图层_x0020_1">
  <metadata id="CorelCorpID_0Corel-Layer"/>
  <g style="clip-path:url(#id0)">
   <image x="-60372.3" y="-5838.62" width="16183.21" height="16768.15" xlink:href="13 Pro -11i（前膜全包）_Images\13 Pro -11i（前膜全包）_ImgID1.png"/>
  </g>
  <rect class="fil0 str0" x="-52005.14" y="-5580.73" width="7460" height="16290"/>
  <path class="fil0 str0" d="M-51147.18 -5521.2l5744.09 0c439.88,0 799.81,359.8 800.01,799.64l270 0c27.49,0 50,22.27 50,49.84l0 14396.31c0,27.57 -22.51,49.84 -50,49.84l-270 0c-0.01,440 -360.01,799.99 -800.01,799.99l-5744.09 0c-440,0 -799.99,-359.99 -800,-799.99l-270.01 0c-27.49,0 -49.99,-22.27 -49.99,-49.84l0 -7404.32 133.03 0c55.01,0 100,-45 100,-100l0 -1035.91c0,-55 -44.99,-100 -100,-100l-133.03 0 0 -470.5 133.03 0c55.01,0 100,-45 100,-100l0 -2060.15c0,-55 -44.99,-100 -100,-100l-133.03 0 0 -3025.43c0,-27.57 22.5,-49.84 49.99,-49.84l270.01 0c0.2,-439.84 360.12,-799.64 800,-799.64z"/>
  <rect class="fil0 str1" x="-51386.87" y="-4962.6" width="4153.24" height="4217.46" rx="694.83" ry="710.82"/>
  <rect class="fil0 str1" x="-51206.45" y="-4779.39" width="3792.4" height="3851.04" rx="545.95" ry="558.51"/>
  <path class="fil0 str1" d="M-50221.25 -4218.3c-190.69,0 -345.28,154.59 -345.28,345.28 0,190.69 154.59,345.28 345.28,345.28 190.69,0 345.28,-154.59 345.28,-345.28 0,-190.69 -154.59,-345.28 -345.28,-345.28 -190.69,0 -240.77,242.1 -240.77,271.2"/>
  <path class="fil0 str1" d="M-48330.42 -4218.3c-190.69,0 -345.28,154.59 -345.28,345.28 0,190.69 154.59,345.28 345.28,345.28 190.69,0 345.28,-154.59 345.28,-345.28 0,-190.69 -154.59,-345.28 -345.28,-345.28 -190.69,0 -240.77,242.1 -240.77,271.2"/>
  <path class="fil0 str1" d="M-50221.25 -2466.77c-249.88,0 -452.45,202.57 -452.45,452.45 0,249.88 202.57,452.45 452.45,452.45 249.88,0 452.45,-202.57 452.45,-452.45 0,-249.88 -202.57,-452.45 -452.45,-452.45 -249.88,0 -315.5,317.24 -315.5,355.38"/>
  <rect class="fil0 str1" x="-48610.9" y="-3158.65" width="556.95" height="292.37" rx="100" ry="100"/>
  <rect class="fil0 str1" x="-48823.85" y="-1831.77" width="850.65" height="226.24" rx="205.11" ry="217.85"/>
  <path class="fil0 str2" d="M-10170.11 6509.33l0 -310.67c440,-0.01 799.99,-360 799.99,-800l0 -5744.09c0,-440 -359.99,-800 -799.99,-800.01l0 -270c0,-27.49 -22.27,-50 -49.84,-50l-14396.31 0c-27.57,0 -49.84,22.51 -49.84,50l0 270c-439.84,0.2 -799.64,360.13 -799.64,800.01l0 5744.09c0,439.88 359.8,799.8 799.64,800l0 270.01c0,27.49 22.27,49.99 49.84,49.99l3025.43 0 0 -133.03c0,-55.01 45,-100 100,-100l2060.15 0c55,0 100,44.99 100,100l0 133.03 470.5 0 0 -133.03c0,-55.01 45,-100 100,-100l1035.91 0c55,0 100,44.99 100,100l0 133.03 7404.32 0c27.57,0 49.84,-22.5 49.84,-49.99 0,-27.49 1.09,-90.53 22.18,-112.03"/>
  <path class="fil0 str2" d="M-24907.14 4938.35l0 -2753.24c0,-385 315,-700 700,-700l2817.46 0c385,0 700,315 700,700l0 2753.24c0,385 -315,700 -700,700l-2817.46 0c-385,0 -700,-315 -700,-700z"/>
  <path class="fil0 str2" d="M-24723.93 4907.93l0 -2692.4c0,-302.5 247.5,-550 550,-550l2751.04 0c302.5,0 550,247.5 550,550l0 2692.4c0,302.5 -247.5,550 -550,550l-2751.04 0c-302.5,0 -550,-247.5 -550,-550z"/>
  <path class="fil0 str2" d="M-24162.84 4472.73c0,190.69 154.59,345.28 345.28,345.28 190.69,0 345.28,-154.59 345.28,-345.28 0,-190.69 -154.59,-345.28 -345.28,-345.28 -190.69,0 -345.28,154.59 -345.28,345.28 0,190.69 242.1,240.77 271.2,240.77"/>
  <path class="fil0 str2" d="M-24162.84 2581.9c0,190.69 154.59,345.28 345.28,345.28 190.69,0 345.28,-154.59 345.28,-345.28 0,-190.69 -154.59,-345.28 -345.28,-345.28 -190.69,0 -345.28,154.59 -345.28,345.28 0,190.69 242.1,240.77 271.2,240.77"/>
  <path class="fil0 str2" d="M-22411.31 4472.73c0,249.88 202.57,452.45 452.45,452.45 249.88,0 452.45,-202.57 452.45,-452.45 0,-249.88 -202.57,-452.45 -452.45,-452.45 -249.88,0 -452.45,202.57 -452.45,452.45 0,249.88 317.24,315.5 355.38,315.5"/>
  <path class="fil0 str2" d="M-23103.18 2762.37c0,55 45,100 100,100l92.37 0c55,0 100,-45 100,-100l0 -356.95c0,-55 -45,-100 -100,-100l-92.37 0c-55,0 -100,45 -100,100l0 356.95c0,0 -0.18,-199.12 35.1,-243.5"/>
  <path class="fil0 str2" d="M-21776.31 2962.21c0,62.22 50.89,113.11 113.11,113.11l0.02 0c62.22,0 113.11,-50.89 113.11,-113.11l0 -624.43c0,-62.22 -50.89,-113.11 -113.11,-113.11l-0.02 0c-62.22,0 -113.11,50.89 -113.11,113.11l0 624.43c0,0 4.04,-151.92 34.36,-198.78"/>
  <path class="fil0 str0" d="M-59170.54 -5521.2l5744.09 0c439.88,0 799.81,359.8 800.01,799.64l270 0c27.49,0 50,22.27 50,49.84l0 14396.31c0,27.57 -22.51,49.84 -50,49.84l-270 0c-0.01,440 -360.01,799.99 -800.01,799.99l-5744.09 0c-440,0 -799.99,-359.99 -800,-799.99l-270.01 0c-27.49,0 -49.99,-22.27 -49.99,-49.84l0 -7404.32 133.03 0c55.01,0 100,-45 100,-100l0 -1035.91c0,-55 -44.99,-100 -100,-100l-133.03 0 0 -470.5 133.03 0c55.01,0 100,-45 100,-100l0 -2060.15c0,-55 -44.99,-100 -100,-100l-133.03 0 0 -3025.43c0,-27.57 22.5,-49.84 49.99,-49.84l270.01 0c0.2,-439.84 360.12,-799.64 800,-799.64z"/>
  <g style="clip-path:url(#id1)">
   <image x="-91698.98" y="-5838.62" width="16183.21" height="16768.15" xlink:href="13 Pro -11i（前膜全包）_Images\13 Pro -11i（前膜全包）_ImgID2.png"/>
  </g>
  <path class="fil0 str1" d="M-81547.93 -4218.3c-190.69,0 -345.28,154.59 -345.28,345.28 0,190.69 154.59,345.28 345.28,345.28 190.69,0 345.28,-154.59 345.28,-345.28 0,-190.69 -154.59,-345.28 -345.28,-345.28 -190.69,0 -240.77,242.1 -240.77,271.2"/>
  <path class="fil0 str1" d="M-79657.1 -4218.3c-190.69,0 -345.28,154.59 -345.28,345.28 0,190.69 154.59,345.28 345.28,345.28 190.69,0 345.28,-154.59 345.28,-345.28 0,-190.69 -154.59,-345.28 -345.28,-345.28 -190.69,0 -240.77,242.1 -240.77,271.2"/>
  <path class="fil0 str1" d="M-81547.93 -2466.77c-249.88,0 -452.45,202.57 -452.45,452.45 0,249.88 202.57,452.45 452.45,452.45 249.88,0 452.45,-202.57 452.45,-452.45 0,-249.88 -202.57,-452.45 -452.45,-452.45 -249.88,0 -315.5,317.24 -315.5,355.38"/>
  <rect class="fil0 str1" x="-79937.57" y="-3158.65" width="556.95" height="292.37" rx="100" ry="100"/>
  <rect class="fil0 str1" x="-80150.53" y="-1831.77" width="850.65" height="226.24" rx="205.11" ry="217.85"/>
  <path class="fil0 str0" d="M-84743.5 -5498.76l-5744.09 0c-439.88,0 -799.81,359.8 -800.01,799.64l-270 0c-27.49,0 -50,22.27 -50,49.84l0 14396.31c0,27.57 22.51,49.84 50,49.84l270 0c0.01,440 360.01,799.99 800.01,799.99l5744.09 0c440,0 799.99,-359.99 800,-799.99l270.01 0c27.49,0 49.99,-22.27 49.99,-49.84l0 -7439.6 -133.03 0c-54.99,0 -100,-45 -100,-100l0 -1080c0,-55 44.99,-100 100,-100l133.03 0 0 -391.13 -133.03 0c-54.99,0 -100,-45 -100,-100l0 -2108.66c0,-55 44.99,-100 100,-100l133.03 0 0 -2976.92c0,-27.57 -22.51,-49.84 -49.99,-49.84l-270.01 0c-0.2,-439.84 -360.12,-799.64 -800,-799.64z"/>
  <path class="fil0 str0" d="M-104937.06 -5279.47l5744.09 0c439.88,0 799.81,359.8 800.01,799.64l270 0c27.49,0 50,22.27 50,49.84l0 14396.31c0,27.57 -22.51,49.84 -50,49.84l-270 0c-0.01,440 -360.01,799.99 -800.01,799.99l-5744.09 0c-440,0 -799.99,-359.99 -800,-799.99l-270.01 0c-27.49,0 -49.99,-22.27 -49.99,-49.84l0 -7404.32 133.03 0c55.01,0 100,-45 100,-100l0 -1035.91c0,-55 -44.99,-100 -100,-100l-133.03 0 0 -470.5 133.03 0c55.01,0 100,-45 100,-100l0 -2060.15c0,-55 -44.99,-100 -100,-100l-133.03 0 0 -3025.43c0,-27.57 22.5,-49.84 49.99,-49.84l270.01 0c0.2,-439.84 360.12,-799.64 800,-799.64z"/>
  <path class="fil0 str1" d="M-87580.37 -5204.52c130.3,0 235.92,105.62 235.92,235.92 0,130.3 -105.62,235.92 -235.92,235.92 -130.3,0 -235.92,-105.62 -235.92,-235.92 0,-130.3 105.62,-235.92 235.92,-235.92z"/>
  <g>
   <path class="fil1" d="M-79562.34 28275.93l0 5744.09 -10.8 15.76 0 -5744.09 0 0 10.8 -15.76zm-810.44 -784.25l10.8 -15.76 -0.47 -0.75 41.01 1.06 40.5 3.12 39.92 5.14 39.31 7.08 38.63 8.98 37.88 10.85 37.13 12.64 36.29 14.39 35.42 16.09 34.47 17.74 33.51 19.33 32.46 20.88 31.39 22.37 30.24 23.82 29.06 25.2 27.83 26.55 26.53 27.83 25.19 29.08 23.81 30.26 22.36 31.39 20.87 32.48 19.32 33.52 17.73 34.5 16.08 35.43 14.38 36.31 12.63 37.15 10.83 37.93 8.98 38.66 7.07 39.34 5.12 39.98 3.1 40.56 1.06 41.1 -10.8 15.76 -1.04 -40.9 -3.1 -40.38 -5.1 -39.84 -7.05 -39.22 -8.96 -38.56 -10.79 -37.85 -12.61 -37.07 -14.36 -36.25 -16.06 -35.37 -17.69 -34.46 -19.3 -33.46 -20.85 -32.44 -22.34 -31.37 -23.77 -30.22 -25.17 -29.04 -26.51 -27.81 -27.79 -26.53 -29.04 -25.18 -30.22 -23.8 -31.35 -22.35 -32.44 -20.86 -33.47 -19.31 -34.45 -17.72 -35.38 -16.07 -36.25 -14.39 -37.09 -12.62 -37.86 -10.83 -38.59 -8.98 -39.25 -7.08 -39.88 -5.12 -40.44 -3.12 -40.97 -1.06 -0.47 -0.75zm0.47 0.75l-0.47 0 0 -0.75 0.47 0.75zm10.33 -286.51l0 270 -10.8 15.76 0 -270 0 0 10.8 -15.76zm-60.17 -33.49l9.86 -17.26 0 0 2.59 0.07 2.56 0.19 2.52 0.33 2.49 0.44 2.43 0.56 2.39 0.69 2.32 0.8 2.29 0.9 2.23 1.01 2.16 1.12 2.1 1.22 2.04 1.31 1.97 1.41 1.89 1.5 1.82 1.58 1.75 1.67 1.66 1.76 1.57 1.83 1.5 1.91 1.4 1.98 1.3 2.05 1.21 2.11 1.12 2.18 1.01 2.24 0.9 2.3 0.8 2.36 0.68 2.41 0.57 2.46 0.45 2.51 0.32 2.57 0.2 2.61 0.07 2.67 -10.8 15.76 -0.05 -2.45 -0.2 -2.45 -0.3 -2.43 -0.43 -2.39 -0.55 -2.36 -0.66 -2.33 -0.76 -2.28 -0.88 -2.24 -0.99 -2.18 -1.08 -2.14 -1.19 -2.07 -1.28 -2.01 -1.38 -1.94 -1.46 -1.87 -1.55 -1.81 -1.64 -1.72 -1.71 -1.65 -1.8 -1.56 -1.87 -1.48 -1.93 -1.39 -2.02 -1.29 -2.06 -1.2 -2.14 -1.1 -2.19 -0.99 -2.25 -0.9 -2.3 -0.78 -2.35 -0.67 -2.39 -0.56 -2.43 -0.44 -2.48 -0.31 -2.5 -0.19 -2.55 -0.07 0 0zm-14386.45 -17.26l14396.31 0 -9.86 17.26 -14396.31 0 0 0 9.86 -17.26zm-49.37 50.75l-10.8 15.76 0 0 0.07 -2.69 0.21 -2.7 0.34 -2.71 0.49 -2.74 0.65 -2.79 0.81 -2.89 1.04 -3.06 1.31 -3.36 1.67 -3.68 2.06 -4.04 2.42 -4.21 2.59 -4.08 2.6 -3.66 2.37 -3.04 2.26 -2.63 2.17 -2.3 2.12 -2.03 2.09 -1.82 2.09 -1.66 2.13 -1.53 2.17 -1.38 2.19 -1.28 2.25 -1.16 2.29 -1.03 2.33 -0.93 2.37 -0.81 2.42 -0.69 2.46 -0.58 2.5 -0.44 2.54 -0.33 2.56 -0.19 2.6 -0.07 -9.86 17.26 -2.54 0.07 -2.5 0.19 -2.46 0.31 -2.42 0.44 -2.36 0.54 -2.32 0.67 -2.25 0.77 -2.21 0.87 -2.13 0.97 -2.05 1.06 -1.97 1.14 -1.89 1.22 -1.77 1.27 -1.67 1.32 -1.53 1.32 -1.34 1.29 -1.13 1.18 -0.86 1.01 -0.59 0.74 -0.18 0.26 0.01 -0.02 0.02 -0.03 -0.14 0.28 -0.33 0.74 -0.47 1.18 -0.52 1.58 -0.53 1.85 -0.47 2.03 -0.39 2.16 -0.28 2.29 -0.19 2.36 -0.05 2.43 0 0zm-10.8 285.76l0 -270 10.8 -15.76 0 270 -10.33 16.51 -0.47 -0.75zm10.8 -15.76l0 16.51 -10.33 0 10.33 -16.51zm-799.99 800.01l-10.8 15.76 0 0 1.06 -41.14 3.11 -40.65 5.14 -40.14 7.12 -39.58 9.06 -39.01 10.98 -38.44 12.89 -37.87 14.8 -37.39 16.76 -36.91 18.71 -36.39 20.57 -35.66 22.17 -34.5 23.51 -33.01 24.72 -31.41 25.87 -29.85 27.03 -28.35 28.2 -26.89 29.34 -25.44 30.47 -23.97 31.55 -22.48 32.6 -20.96 33.6 -19.38 34.59 -17.77 35.49 -16.11 36.35 -14.41 37.17 -12.64 37.95 -10.84 38.67 -8.99 39.33 -7.07 39.95 -5.12 40.52 -3.1 41.04 -1.05 -9.86 17.26 -40.98 1.05 -40.44 3.1 -39.89 5.1 -39.25 7.07 -38.57 8.95 -37.85 10.82 -37.05 12.6 -36.23 14.35 -35.33 16.05 -34.39 17.67 -33.38 19.26 -32.34 20.78 -31.21 22.24 -30.03 23.63 -28.78 24.94 -27.46 26.19 -26.03 27.29 -24.51 28.27 -22.88 29.09 -21.21 29.77 -19.57 30.42 -18.07 31.34 -16.73 32.57 -15.4 33.91 -13.94 35.21 -12.37 36.35 -10.66 37.36 -8.88 38.23 -7.02 39 -5.08 39.7 -3.09 40.31 -1.04 40.88 0 0zm-10.8 5759.85l0 -5744.09 10.8 -15.76 0 5744.09 0 0 -10.8 15.76zm810.79 784.24l-10.8 15.76 0.47 0.75 -41.03 -1.05 -40.51 -3.1 -39.94 -5.12 -39.32 -7.07 -38.64 -8.97 -37.91 -10.84 -37.13 -12.63 -36.31 -14.38 -35.43 -16.08 -34.5 -17.74 -33.51 -19.33 -32.48 -20.87 -31.4 -22.37 -30.26 -23.82 -29.07 -25.2 -27.85 -26.54 -26.54 -27.84 -25.2 -29.08 -23.82 -30.27 -22.37 -31.39 -20.88 -32.48 -19.33 -33.53 -17.74 -34.51 -16.09 -35.44 -14.38 -36.32 -12.64 -37.15 -10.84 -37.94 -8.98 -38.67 -7.08 -39.35 -5.12 -39.99 -3.1 -40.57 -1.06 -41.11 10.8 -15.76 1.04 40.91 3.1 40.39 5.1 39.85 7.06 39.23 8.96 38.57 10.8 37.86 12.62 37.07 14.36 36.26 16.07 35.38 17.7 34.47 19.31 33.47 20.86 32.44 22.35 31.37 23.78 30.23 25.18 29.04 26.52 27.82 27.81 26.52 29.05 25.18 30.24 23.8 31.36 22.35 32.46 20.85 33.47 19.31 34.48 17.72 35.39 16.06 36.27 14.38 37.09 12.61 37.89 10.82 38.6 8.97 39.26 7.07 39.9 5.1 40.45 3.1 40.99 1.05 0.47 0.75zm-0.47 -0.75l0.47 0 0 0.75 -0.47 -0.75zm-10.33 286.52l0 -270.01 10.8 -15.76 0 270.01 0 0 -10.8 15.76zm60.17 33.48l-9.86 17.26 0 0 -2.59 -0.07 -2.56 -0.19 -2.52 -0.33 -2.49 -0.44 -2.43 -0.56 -2.39 -0.69 -2.32 -0.8 -2.29 -0.9 -2.23 -1.01 -2.16 -1.12 -2.1 -1.21 -2.04 -1.32 -1.97 -1.41 -1.89 -1.49 -1.82 -1.59 -1.75 -1.67 -1.66 -1.75 -1.57 -1.83 -1.5 -1.91 -1.4 -1.98 -1.3 -2.05 -1.21 -2.11 -1.12 -2.18 -1.01 -2.24 -0.9 -2.3 -0.8 -2.36 -0.68 -2.41 -0.57 -2.46 -0.45 -2.51 -0.32 -2.57 -0.2 -2.61 -0.07 -2.67 10.8 -15.76 0.05 2.45 0.2 2.45 0.3 2.43 0.43 2.39 0.55 2.36 0.66 2.33 0.76 2.28 0.88 2.24 0.99 2.18 1.08 2.14 1.19 2.07 1.28 2.01 1.38 1.94 1.46 1.87 1.55 1.81 1.64 1.71 1.71 1.65 1.8 1.57 1.87 1.47 1.93 1.39 2.02 1.3 2.06 1.19 2.14 1.1 2.19 0.99 2.25 0.9 2.3 0.78 2.35 0.67 2.39 0.56 2.43 0.44 2.48 0.31 2.5 0.19 2.55 0.07 0 0zm7429.74 17.26l-7439.6 0 9.86 -17.26 7439.6 0 0.47 0.75 -10.33 16.51zm10.33 -16.51l0 16.51 -10.33 0 10.33 -16.51zm0 -133.03l0 133.03 -10.8 15.76 0 -133.03 0 0 10.8 -15.76zm99.53 -100.75l-9.86 17.26 0 0 -5.1 0.13 -5.02 0.39 -4.96 0.63 -4.87 0.88 -4.78 1.1 -4.68 1.35 -4.58 1.55 -4.48 1.77 -4.34 1.98 -4.21 2.17 -4.08 2.35 -3.92 2.52 -3.76 2.68 -3.57 2.8 -3.35 2.91 -3.1 2.95 -2.81 2.96 -2.49 2.86 -2.06 2.61 -1.62 2.28 -1.3 2.01 -1.18 2.05 -1.24 2.41 -1.32 2.93 -1.37 3.43 -1.31 3.88 -1.2 4.2 -1.03 4.42 -0.83 4.64 -0.61 4.76 -0.38 4.89 -0.12 5 -10.8 15.76 0.14 -5.26 0.4 -5.23 0.67 -5.2 0.93 -5.2 1.21 -5.22 1.52 -5.28 1.83 -5.4 2.23 -5.63 2.7 -5.93 3.2 -6.21 3.64 -6.33 3.92 -6.11 3.96 -5.56 3.9 -4.95 3.81 -4.4 3.81 -4 3.86 -3.69 3.93 -3.39 3.99 -3.14 4.08 -2.92 4.2 -2.7 4.3 -2.47 4.41 -2.27 4.5 -2.04 4.6 -1.83 4.7 -1.59 4.78 -1.37 4.88 -1.14 4.95 -0.88 5.02 -0.65 5.1 -0.39 5.16 -0.13 0 0zm1070.14 17.26l-1080 0 9.86 -17.26 1080 0 0 0 -9.86 17.26zm110.33 83.49l-10.8 15.76 0 0 -0.12 -5.03 -0.39 -4.97 -0.63 -4.92 -0.87 -4.85 -1.11 -4.78 -1.34 -4.7 -1.56 -4.6 -1.79 -4.5 -2 -4.4 -2.2 -4.29 -2.4 -4.16 -2.6 -4.03 -2.78 -3.92 -2.96 -3.76 -3.14 -3.61 -3.31 -3.47 -3.45 -3.31 -3.63 -3.13 -3.77 -2.97 -3.9 -2.78 -4.05 -2.6 -4.17 -2.41 -4.3 -2.2 -4.4 -2 -4.52 -1.8 -4.62 -1.57 -4.72 -1.34 -4.81 -1.12 -4.88 -0.88 -4.97 -0.63 -5.03 -0.39 -5.11 -0.13 9.86 -17.26 5.15 0.13 5.09 0.39 5.01 0.65 4.94 0.88 4.85 1.12 4.74 1.36 4.66 1.59 4.56 1.8 4.44 2.02 4.32 2.22 4.21 2.43 4.07 2.62 3.94 2.8 3.79 2.99 3.65 3.15 3.49 3.33 3.33 3.49 3.16 3.65 3 3.8 2.8 3.94 2.62 4.07 2.42 4.22 2.24 4.33 2.02 4.46 1.81 4.56 1.58 4.68 1.38 4.78 1.13 4.88 0.89 4.97 0.65 5.06 0.39 5.15 0.14 5.23 0 0zm-10.8 148.79l0 -133.03 10.8 -15.76 0 133.03 -10.33 16.51 -0.47 -0.75zm0.47 0.75l-0.47 0 0 -0.75 0.47 0.75zm391.13 0l-391.13 0 9.86 -17.26 391.13 0 0.47 0.75 -10.33 16.51zm10.33 -16.51l0 16.51 -10.33 0 10.33 -16.51zm0 -133.03l0 133.03 -10.8 15.76 0 -133.03 0 0 10.8 -15.76zm99.53 -100.75l-9.86 17.26 0 0 -5.1 0.13 -5.02 0.39 -4.96 0.63 -4.87 0.88 -4.78 1.1 -4.68 1.35 -4.58 1.55 -4.48 1.77 -4.34 1.98 -4.21 2.17 -4.08 2.35 -3.92 2.52 -3.76 2.68 -3.57 2.8 -3.35 2.91 -3.1 2.95 -2.81 2.96 -2.49 2.86 -2.06 2.61 -1.62 2.28 -1.3 2.01 -1.18 2.05 -1.24 2.41 -1.32 2.93 -1.37 3.43 -1.31 3.88 -1.2 4.2 -1.03 4.42 -0.83 4.64 -0.61 4.76 -0.38 4.89 -0.12 5 -10.8 15.76 0.14 -5.26 0.4 -5.23 0.67 -5.2 0.93 -5.2 1.21 -5.22 1.52 -5.28 1.83 -5.4 2.23 -5.63 2.7 -5.93 3.2 -6.21 3.64 -6.33 3.92 -6.11 3.96 -5.56 3.9 -4.95 3.81 -4.4 3.81 -4 3.86 -3.69 3.93 -3.39 3.99 -3.14 4.08 -2.92 4.2 -2.7 4.3 -2.47 4.41 -2.27 4.5 -2.04 4.6 -1.83 4.7 -1.59 4.78 -1.37 4.88 -1.14 4.95 -0.88 5.02 -0.65 5.1 -0.39 5.16 -0.13 0 0zm2098.8 17.26l-2108.66 0 9.86 -17.26 2108.66 0 0 0 -9.86 17.26zm110.33 83.49l-10.8 15.76 0 0 -0.12 -5.03 -0.39 -4.97 -0.63 -4.92 -0.87 -4.85 -1.11 -4.78 -1.34 -4.7 -1.56 -4.6 -1.79 -4.5 -2 -4.4 -2.2 -4.29 -2.4 -4.16 -2.6 -4.03 -2.78 -3.92 -2.96 -3.76 -3.14 -3.61 -3.31 -3.47 -3.45 -3.31 -3.63 -3.13 -3.77 -2.97 -3.9 -2.78 -4.05 -2.6 -4.17 -2.41 -4.3 -2.2 -4.4 -2 -4.52 -1.8 -4.62 -1.57 -4.72 -1.34 -4.81 -1.12 -4.88 -0.88 -4.97 -0.63 -5.03 -0.39 -5.11 -0.13 9.86 -17.26 5.15 0.13 5.09 0.39 5.01 0.65 4.94 0.88 4.85 1.12 4.74 1.36 4.66 1.59 4.56 1.8 4.44 2.02 4.32 2.22 4.21 2.43 4.07 2.62 3.94 2.8 3.79 2.99 3.65 3.15 3.49 3.33 3.33 3.49 3.16 3.65 3 3.8 2.8 3.94 2.62 4.07 2.42 4.22 2.24 4.33 2.02 4.46 1.81 4.56 1.58 4.68 1.38 4.78 1.13 4.88 0.89 4.97 0.65 5.06 0.39 5.15 0.14 5.23 0 0zm-10.8 148.79l0 -133.03 10.8 -15.76 0 133.03 -10.33 16.51 -0.47 -0.75zm0.47 0.75l-0.47 0 0 -0.75 0.47 0.75zm2976.92 0l-2976.92 0 9.86 -17.26 2976.92 0 0 0 -9.86 17.26zm49.37 -50.74l10.8 -15.76 0 0 -0.07 2.69 -0.21 2.7 -0.34 2.7 -0.49 2.75 -0.65 2.79 -0.81 2.89 -1.04 3.07 -1.31 3.34 -1.67 3.69 -2.09 4.07 -2.39 4.17 -2.59 4.08 -2.6 3.66 -2.37 3.04 -2.26 2.63 -2.17 2.3 -2.12 2.03 -2.09 1.82 -2.09 1.66 -2.13 1.53 -2.17 1.38 -2.19 1.28 -2.25 1.16 -2.29 1.03 -2.33 0.93 -2.37 0.81 -2.42 0.69 -2.46 0.58 -2.5 0.44 -2.54 0.33 -2.56 0.19 -2.6 0.07 9.86 -17.26 2.54 -0.07 2.5 -0.19 2.46 -0.31 2.42 -0.44 2.36 -0.54 2.32 -0.67 2.25 -0.77 2.21 -0.87 2.13 -0.97 2.05 -1.06 1.97 -1.14 1.89 -1.22 1.77 -1.27 1.67 -1.32 1.53 -1.32 1.34 -1.29 1.13 -1.18 0.86 -1.01 0.59 -0.74 0.18 -0.26 -0.01 0.02 0.01 -0.01 0.11 -0.23 0.33 -0.75 0.47 -1.18 0.52 -1.57 0.53 -1.85 0.47 -2.03 0.39 -2.17 0.28 -2.28 0.19 -2.36 0.05 -2.43 0 0zm10.8 -285.77l0 270.01 -10.8 15.76 0 -270.01 10.33 -16.51 0.47 0.75zm-10.8 15.76l0 -16.51 10.33 0 -10.33 16.51zm799.64 -800l10.8 -15.76 0 0 -1.06 41.13 -3.11 40.64 -5.14 40.13 -7.11 39.57 -9.06 39 -10.97 38.43 -12.88 37.86 -14.8 37.38 -16.75 36.89 -18.7 36.39 -20.55 35.65 -22.17 34.5 -23.5 33.01 -24.71 31.4 -25.86 29.85 -27.02 28.35 -28.18 26.88 -29.33 25.45 -30.45 23.97 -31.54 22.48 -32.58 20.96 -33.6 19.38 -34.56 17.78 -35.48 16.11 -36.33 14.42 -37.17 12.65 -37.92 10.85 -38.66 9 -39.32 7.08 -39.93 5.14 -40.51 3.12 -41.02 1.06 9.86 -17.26 40.96 -1.06 40.43 -3.12 39.87 -5.12 39.24 -7.08 38.56 -8.96 37.82 -10.83 37.05 -12.61 36.21 -14.36 35.32 -16.05 34.36 -17.68 33.38 -19.26 32.32 -20.78 31.2 -22.24 30.01 -23.63 28.77 -24.95 27.44 -26.18 26.02 -27.29 24.5 -28.27 22.87 -29.08 21.2 -29.75 19.55 -30.42 18.07 -31.35 16.72 -32.55 15.39 -33.91 13.94 -35.2 12.36 -36.34 10.65 -37.35 8.88 -38.22 7.01 -38.99 5.08 -39.69 3.09 -40.3 1.04 -40.87 0 0z"/>
  </g>
  <g>
   <path class="fil1" d="M-80102.83 31435.58l9.86 -17.26 0 0 12.11 -0.31 11.95 -0.91 11.77 -1.49 11.58 -2.07 11.36 -2.63 11.15 -3.16 10.91 -3.69 10.64 -4.19 10.37 -4.69 10.09 -5.16 9.77 -5.62 9.43 -6.05 9.08 -6.46 8.69 -6.83 8.28 -7.17 7.82 -7.46 7.31 -7.66 6.73 -7.77 6.08 -7.73 5.42 -7.61 4.82 -7.52 4.43 -7.71 4.23 -8.26 4.05 -8.97 3.8 -9.64 3.45 -10.21 3.03 -10.67 2.55 -11.02 2.02 -11.33 1.47 -11.6 0.9 -11.81 0.3 -12.01 10.8 -15.76 -0.32 12.27 -0.92 12.15 -1.53 12.02 -2.12 11.91 -2.73 11.8 -3.33 11.73 -3.97 11.71 -4.64 11.78 -5.39 11.93 -6.19 12.1 -6.93 12.05 -7.46 11.62 -7.74 10.89 -7.92 10.09 -8.11 9.35 -8.31 8.72 -8.56 8.16 -8.84 7.67 -9.13 7.17 -9.42 6.7 -9.71 6.23 -9.99 5.74 -10.27 5.26 -10.53 4.75 -10.78 4.25 -11.01 3.73 -11.25 3.2 -11.46 2.65 -11.66 2.07 -11.85 1.51 -12.01 0.91 -12.17 0.31 0 0zm-236.39 -236.67l10.8 -15.76 0 0 0.3 12.04 0.91 11.89 1.49 11.74 2.06 11.56 2.63 11.36 3.16 11.16 3.7 10.92 4.21 10.68 4.71 10.42 5.19 10.16 5.67 9.85 6.13 9.55 6.57 9.24 6.98 8.89 7.41 8.54 7.8 8.18 8.17 7.8 8.55 7.41 8.9 6.99 9.23 6.57 9.56 6.13 9.86 5.67 10.17 5.2 10.43 4.71 10.69 4.22 10.94 3.7 11.19 3.17 11.38 2.64 11.6 2.07 11.79 1.49 11.95 0.91 12.12 0.31 -9.86 17.26 -12.16 -0.31 -12.01 -0.91 -11.83 -1.51 -11.64 -2.07 -11.44 -2.64 -11.21 -3.19 -10.98 -3.72 -10.73 -4.22 -10.47 -4.73 -10.19 -5.22 -9.9 -5.69 -9.58 -6.15 -9.27 -6.59 -8.92 -7.01 -8.57 -7.43 -8.21 -7.82 -7.82 -8.2 -7.43 -8.58 -7.02 -8.93 -6.59 -9.26 -6.15 -9.59 -5.69 -9.91 -5.23 -10.2 -4.73 -10.48 -4.23 -10.74 -3.72 -11 -3.2 -11.24 -2.65 -11.46 -2.08 -11.68 -1.51 -11.88 -0.91 -12.07 -0.32 -12.24 0 0zm246.25 -252.43l-9.86 17.26 0 0 -12.11 0.31 -11.95 0.91 -11.77 1.49 -11.58 2.07 -11.36 2.63 -11.15 3.16 -10.91 3.69 -10.64 4.19 -10.37 4.69 -10.09 5.16 -9.77 5.62 -9.43 6.05 -9.08 6.46 -8.69 6.83 -8.28 7.17 -7.82 7.46 -7.31 7.66 -6.73 7.77 -6.08 7.73 -5.42 7.61 -4.82 7.52 -4.43 7.71 -4.23 8.26 -4.05 8.97 -3.8 9.64 -3.45 10.21 -3.03 10.67 -2.55 11.02 -2.02 11.33 -1.47 11.6 -0.9 11.81 -0.3 12.01 -10.8 15.76 0.32 -12.27 0.92 -12.15 1.53 -12.02 2.12 -11.91 2.73 -11.8 3.33 -11.73 3.97 -11.71 4.64 -11.78 5.39 -11.93 6.19 -12.1 6.93 -12.05 7.46 -11.62 7.74 -10.89 7.92 -10.09 8.11 -9.35 8.31 -8.72 8.56 -8.16 8.84 -7.67 9.13 -7.17 9.42 -6.7 9.71 -6.23 9.99 -5.74 10.27 -5.26 10.53 -4.75 10.78 -4.25 11.01 -3.73 11.25 -3.2 11.46 -2.65 11.66 -2.07 11.85 -1.51 12.01 -0.91 12.17 -0.31 0 0zm236.39 236.67l-10.8 15.76 0 0 -0.3 -12.04 -0.91 -11.89 -1.49 -11.74 -2.06 -11.56 -2.63 -11.36 -3.16 -11.16 -3.7 -10.92 -4.21 -10.68 -4.71 -10.42 -5.19 -10.16 -5.67 -9.85 -6.13 -9.55 -6.57 -9.24 -6.98 -8.89 -7.41 -8.54 -7.8 -8.18 -8.17 -7.8 -8.55 -7.41 -8.9 -6.99 -9.23 -6.57 -9.56 -6.13 -9.86 -5.67 -10.17 -5.2 -10.43 -4.71 -10.69 -4.22 -10.94 -3.7 -11.19 -3.17 -11.38 -2.64 -11.6 -2.07 -11.79 -1.49 -11.95 -0.91 -12.12 -0.31 9.86 -17.26 12.16 0.31 12.01 0.91 11.83 1.51 11.64 2.07 11.44 2.64 11.21 3.19 10.98 3.72 10.73 4.22 10.47 4.73 10.19 5.22 9.9 5.69 9.58 6.15 9.27 6.59 8.92 7.01 8.57 7.43 8.21 7.82 7.82 8.2 7.43 8.58 7.02 8.93 6.59 9.26 6.15 9.59 5.69 9.91 5.23 10.2 4.73 10.48 4.23 10.74 3.72 11 3.2 11.24 2.65 11.46 2.08 11.68 1.51 11.88 0.91 12.07 0.32 12.24 0 0z"/>
  </g>
  <g>
   <g>
    <path class="fil1" d="M-17991.16 23099.41l5744.09 0 -9.86 17.26 -5744.09 0 0 0 9.86 -17.26zm-809.87 816.9l9.86 -17.26 -10.33 16.51 1.07 -41.12 3.13 -40.64 5.16 -40.12 7.13 -39.57 9.07 -39 11 -38.41 12.89 -37.88 14.82 -37.36 16.77 -36.9 18.72 -36.38 20.56 -35.64 22.18 -34.48 23.51 -33 24.72 -31.39 25.87 -29.83 27.03 -28.34 28.2 -26.88 29.34 -25.42 30.46 -23.96 31.55 -22.47 32.59 -20.95 33.6 -19.37 34.58 -17.76 35.48 -16.1 36.34 -14.4 37.17 -12.64 37.94 -10.82 38.66 -8.99 39.32 -7.06 39.94 -5.12 40.51 -3.1 41.03 -1.05 -9.86 17.26 -40.97 1.05 -40.43 3.1 -39.88 5.1 -39.24 7.06 -38.56 8.95 -37.84 10.8 -37.05 12.6 -36.22 14.34 -35.32 16.04 -34.38 17.66 -33.38 19.25 -32.33 20.77 -31.21 22.23 -30.02 23.62 -28.78 24.94 -27.46 26.16 -26.03 27.28 -24.51 28.27 -22.9 29.07 -21.21 29.74 -19.56 30.42 -18.08 31.34 -16.74 32.54 -15.39 33.9 -13.96 35.18 -12.37 36.34 -10.68 37.33 -8.89 38.22 -7.03 38.99 -5.1 39.68 -3.11 40.3 -1.05 40.86 -10.33 16.51zm10.33 -16.51l-0.01 16.51 -10.32 0 10.33 -16.51zm-270.47 -0.75l270 0 -9.86 17.26 -270 0 0 0 9.86 -17.26zm-49.53 50.59l-10.8 15.76 0 0 0.08 -2.7 0.2 -2.7 0.35 -2.71 0.49 -2.75 0.65 -2.81 0.84 -2.93 1.06 -3.07 1.31 -3.32 1.7 -3.73 2.15 -4.18 2.42 -4.17 2.6 -4.05 2.61 -3.64 2.36 -2.98 2.24 -2.58 2.17 -2.26 2.11 -2.01 2.09 -1.79 2.1 -1.64 2.13 -1.52 2.16 -1.37 2.2 -1.26 2.25 -1.15 2.29 -1.04 2.34 -0.91 2.37 -0.8 2.42 -0.69 2.46 -0.57 2.49 -0.44 2.54 -0.32 2.56 -0.2 2.59 -0.06 -9.86 17.26 -2.53 0.06 -2.5 0.2 -2.46 0.3 -2.41 0.44 -2.36 0.55 -2.32 0.65 -2.27 0.76 -2.2 0.87 -2.13 0.96 -2.07 1.05 -1.98 1.14 -1.9 1.21 -1.79 1.26 -1.68 1.32 -1.55 1.33 -1.37 1.29 -1.15 1.2 -0.9 1.04 -0.62 0.78 -0.19 0.26 0 0.01 0 -0.01 -0.07 0.12 -0.3 0.69 -0.49 1.22 -0.52 1.55 -0.52 1.81 -0.47 2.01 -0.39 2.17 -0.29 2.29 -0.18 2.36 -0.06 2.44 0 0zm-10.8 14412.07l0 -14396.31 10.8 -15.76 0 14396.31 0 0 -10.8 15.76zm60.33 33.33l-9.86 17.26 0 0 -2.58 -0.06 -2.56 -0.2 -2.52 -0.31 -2.48 -0.45 -2.43 -0.56 -2.38 -0.68 -2.34 -0.78 -2.29 -0.9 -2.23 -1.01 -2.17 -1.11 -2.11 -1.21 -2.04 -1.29 -1.98 -1.41 -1.9 -1.49 -1.83 -1.57 -1.76 -1.66 -1.67 -1.74 -1.58 -1.83 -1.5 -1.9 -1.42 -1.96 -1.31 -2.05 -1.22 -2.11 -1.13 -2.17 -1.01 -2.24 -0.91 -2.3 -0.8 -2.35 -0.7 -2.41 -0.57 -2.46 -0.45 -2.52 -0.33 -2.57 -0.19 -2.62 -0.08 -2.67 10.8 -15.76 0.06 2.47 0.19 2.44 0.31 2.43 0.43 2.4 0.55 2.36 0.66 2.33 0.78 2.27 0.89 2.24 0.99 2.18 1.09 2.13 1.2 2.05 1.29 2.01 1.38 1.94 1.48 1.86 1.56 1.79 1.65 1.72 1.72 1.64 1.81 1.55 1.88 1.47 1.94 1.37 2.02 1.29 2.07 1.19 2.15 1.09 2.19 0.99 2.25 0.88 2.3 0.78 2.36 0.66 2.39 0.56 2.42 0.43 2.48 0.31 2.5 0.2 2.54 0.06 0 0zm260.14 17.26l-270 0 9.86 -17.26 270 0 0.47 0.75 -10.33 16.51zm9.86 -17.26l0.47 0 0 0.75 -0.47 -0.75zm800.01 799.99l-9.86 17.26 0 0 -41.03 -1.05 -40.51 -3.1 -39.94 -5.12 -39.32 -7.07 -38.64 -8.97 -37.91 -10.83 -37.13 -12.64 -36.32 -14.37 -35.43 -16.09 -34.49 -17.73 -33.52 -19.33 -32.47 -20.88 -31.41 -22.37 -30.26 -23.81 -29.07 -25.2 -27.84 -26.54 -26.55 -27.84 -25.2 -29.08 -23.82 -30.27 -22.37 -31.39 -20.88 -32.49 -19.33 -33.52 -17.74 -34.51 -16.09 -35.44 -14.39 -36.32 -12.63 -37.15 -10.85 -37.94 -8.98 -38.67 -7.08 -39.35 -5.12 -39.99 -3.1 -40.57 -1.06 -41.11 10.8 -15.76 1.04 40.91 3.1 40.39 5.1 39.85 7.06 39.23 8.96 38.57 10.81 37.86 12.61 37.07 14.37 36.26 16.07 35.38 17.7 34.47 19.31 33.46 20.86 32.45 22.35 31.37 23.78 30.23 25.18 29.04 26.53 27.82 27.8 26.52 29.05 25.18 30.24 23.79 31.37 22.35 32.45 20.86 33.48 19.31 34.47 17.71 35.39 16.07 36.28 14.37 37.09 12.62 37.89 10.81 38.6 8.97 39.26 7.07 39.9 5.1 40.45 3.1 40.99 1.05 0 0zm5734.23 17.26l-5744.09 0 9.86 -17.26 5744.09 0 0 0 -9.86 17.26zm809.86 -817.25l-9.86 17.26 10.33 -16.51 -1.06 41.14 -3.11 40.65 -5.14 40.14 -7.12 39.58 -9.06 39.01 -10.99 38.44 -12.88 37.87 -14.81 37.38 -16.75 36.9 -18.72 36.42 -20.56 35.64 -22.17 34.5 -23.52 33.01 -24.72 31.41 -25.87 29.85 -27.03 28.36 -28.2 26.88 -29.34 25.44 -30.47 23.97 -31.55 22.48 -32.59 20.96 -33.61 19.38 -34.59 17.77 -35.49 16.11 -36.35 14.4 -37.17 12.65 -37.95 10.83 -38.67 8.99 -39.33 7.07 -39.95 5.12 -40.52 3.1 -41.04 1.05 9.86 -17.26 40.98 -1.05 40.44 -3.1 39.89 -5.1 39.25 -7.07 38.57 -8.95 37.85 -10.81 37.05 -12.61 36.23 -14.34 35.33 -16.05 34.39 -17.67 33.39 -19.26 32.33 -20.78 31.21 -22.24 30.03 -23.63 28.78 -24.94 27.46 -26.18 26.03 -27.3 24.51 -28.27 22.9 -29.09 21.2 -29.75 19.55 -30.44 18.08 -31.34 16.74 -32.56 15.39 -33.92 13.95 -35.2 12.36 -36.35 10.67 -37.36 8.88 -38.23 7.02 -39 5.08 -39.7 3.09 -40.31 1.04 -40.88 10.33 -16.51zm-10.33 16.51l0 -16.51 10.33 0 -10.33 16.51zm270.48 0.75l-270.01 0 9.86 -17.26 270.01 0 0 0 -9.86 17.26zm49.52 -50.59l10.8 -15.76 0 0 -0.08 2.7 -0.2 2.7 -0.35 2.71 -0.49 2.75 -0.65 2.81 -0.84 2.93 -1.06 3.07 -1.31 3.32 -1.7 3.73 -2.11 4.1 -2.45 4.25 -2.66 4.12 -2.53 3.53 -2.38 3.02 -2.27 2.6 -2.13 2.23 -2.11 2.01 -2.1 1.8 -2.1 1.64 -2.13 1.52 -2.16 1.37 -2.2 1.26 -2.25 1.15 -2.29 1.04 -2.34 0.91 -2.37 0.8 -2.42 0.69 -2.46 0.57 -2.49 0.44 -2.54 0.32 -2.56 0.2 -2.59 0.06 9.86 -17.26 2.53 -0.06 2.5 -0.2 2.46 -0.3 2.41 -0.44 2.36 -0.55 2.32 -0.65 2.27 -0.76 2.2 -0.87 2.13 -0.96 2.07 -1.05 1.98 -1.14 1.9 -1.21 1.79 -1.26 1.68 -1.32 1.54 -1.32 1.35 -1.29 1.19 -1.23 0.89 -1.02 0.58 -0.74 0.27 -0.37 -0.04 0.06 -0.05 0.09 0.11 -0.2 0.3 -0.69 0.49 -1.22 0.52 -1.55 0.52 -1.81 0.47 -2.01 0.39 -2.17 0.29 -2.29 0.18 -2.36 0.06 -2.44 0 0zm10.8 -7455.36l0 7439.6 -10.8 15.76 0 -7439.6 10.33 -16.51 0.47 0.75zm-0.47 -0.75l0.47 0 0 0.75 -0.47 -0.75zm-133.03 0l133.03 0 -9.86 17.26 -133.03 0 0 0 9.86 -17.26zm-110.33 -83.49l10.8 -15.76 0 0 0.12 5.03 0.39 4.97 0.63 4.92 0.87 4.85 1.11 4.78 1.34 4.69 1.56 4.6 1.79 4.51 2 4.39 2.2 4.29 2.4 4.16 2.6 4.04 2.79 3.91 2.95 3.76 3.14 3.62 3.31 3.47 3.46 3.3 3.62 3.14 3.77 2.97 3.9 2.78 4.05 2.6 4.17 2.4 4.3 2.21 4.41 2 4.51 1.8 4.62 1.56 4.73 1.35 4.8 1.12 4.89 0.88 4.96 0.63 5.03 0.39 5.11 0.13 -9.86 17.26 -5.15 -0.13 -5.09 -0.39 -5 -0.65 -4.95 -0.88 -4.84 -1.12 -4.75 -1.37 -4.66 -1.58 -4.55 -1.8 -4.45 -2.02 -4.32 -2.23 -4.21 -2.42 -4.07 -2.62 -3.94 -2.8 -3.79 -2.99 -3.64 -3.16 -3.5 -3.32 -3.33 -3.49 -3.16 -3.66 -2.99 -3.8 -2.81 -3.93 -2.62 -4.08 -2.42 -4.22 -2.24 -4.33 -2.02 -4.45 -1.81 -4.57 -1.58 -4.68 -1.38 -4.77 -1.13 -4.88 -0.89 -4.97 -0.65 -5.06 -0.39 -5.15 -0.14 -5.23 0 0zm10.8 -1095.76l0 1080 -10.8 15.76 0 -1080 0 0 10.8 -15.76zm99.53 -100.75l-9.86 17.26 0 0 -5.1 0.13 -5.02 0.39 -4.96 0.63 -4.87 0.88 -4.78 1.1 -4.69 1.35 -4.58 1.55 -4.47 1.77 -4.35 1.98 -4.21 2.17 -4.08 2.35 -3.92 2.52 -3.76 2.67 -3.56 2.8 -3.35 2.91 -3.12 2.98 -2.8 2.93 -2.46 2.84 -2.08 2.64 -1.62 2.28 -1.32 2.05 -1.17 2.01 -1.22 2.39 -1.33 2.94 -1.37 3.45 -1.32 3.87 -1.19 4.18 -1.03 4.44 -0.83 4.63 -0.61 4.77 -0.38 4.89 -0.12 5 -10.8 15.76 0.14 -5.26 0.4 -5.23 0.67 -5.21 0.93 -5.19 1.21 -5.22 1.51 -5.28 1.84 -5.41 2.23 -5.63 2.69 -5.9 3.2 -6.23 3.67 -6.37 3.9 -6.07 3.96 -5.56 3.88 -4.92 3.82 -4.44 3.84 -4.01 3.84 -3.66 3.91 -3.39 4 -3.16 4.1 -2.91 4.18 -2.7 4.3 -2.47 4.41 -2.27 4.51 -2.04 4.59 -1.83 4.7 -1.59 4.79 -1.37 4.88 -1.14 4.95 -0.88 5.02 -0.65 5.1 -0.39 5.16 -0.13 0 0zm123.17 17.26l-133.03 0 9.86 -17.26 133.03 0 0.47 0.75 -10.33 16.51zm10.33 -16.51l0 16.51 -10.33 0 10.33 -16.51zm0 -391.13l0 391.13 -10.8 15.76 0 -391.13 10.33 -16.51 0.47 0.75zm-0.47 -0.75l0.47 0 0 0.75 -0.47 -0.75zm-133.03 0l133.03 0 -9.86 17.26 -133.03 0 0 0 9.86 -17.26zm-110.33 -83.49l10.8 -15.76 0 0 0.12 5.03 0.39 4.97 0.63 4.92 0.87 4.85 1.11 4.78 1.34 4.69 1.56 4.6 1.79 4.51 2 4.39 2.2 4.29 2.4 4.16 2.6 4.04 2.79 3.91 2.95 3.76 3.14 3.62 3.31 3.47 3.46 3.3 3.62 3.14 3.77 2.97 3.9 2.78 4.05 2.6 4.17 2.4 4.3 2.21 4.41 2 4.51 1.8 4.62 1.56 4.73 1.35 4.8 1.12 4.89 0.88 4.96 0.63 5.03 0.39 5.11 0.13 -9.86 17.26 -5.15 -0.13 -5.09 -0.39 -5 -0.65 -4.95 -0.88 -4.84 -1.12 -4.75 -1.37 -4.66 -1.58 -4.55 -1.8 -4.45 -2.02 -4.32 -2.23 -4.21 -2.42 -4.07 -2.62 -3.94 -2.8 -3.79 -2.99 -3.64 -3.16 -3.5 -3.32 -3.33 -3.49 -3.16 -3.66 -2.99 -3.8 -2.81 -3.93 -2.62 -4.08 -2.42 -4.22 -2.24 -4.33 -2.02 -4.45 -1.81 -4.57 -1.58 -4.68 -1.38 -4.77 -1.13 -4.88 -0.89 -4.97 -0.65 -5.06 -0.39 -5.15 -0.14 -5.23 0 0zm10.8 -2124.42l0 2108.66 -10.8 15.76 0 -2108.66 0 0 10.8 -15.76zm99.53 -100.75l-9.86 17.26 0 0 -5.1 0.13 -5.02 0.39 -4.96 0.63 -4.87 0.88 -4.78 1.1 -4.69 1.35 -4.58 1.55 -4.47 1.77 -4.35 1.98 -4.21 2.17 -4.08 2.35 -3.92 2.52 -3.76 2.67 -3.56 2.8 -3.35 2.91 -3.12 2.98 -2.8 2.93 -2.46 2.84 -2.08 2.64 -1.62 2.28 -1.32 2.05 -1.17 2.01 -1.22 2.39 -1.33 2.94 -1.37 3.45 -1.32 3.87 -1.19 4.18 -1.03 4.44 -0.83 4.63 -0.61 4.77 -0.38 4.89 -0.12 5 -10.8 15.76 0.14 -5.26 0.4 -5.23 0.67 -5.21 0.93 -5.19 1.21 -5.22 1.51 -5.28 1.84 -5.41 2.23 -5.63 2.69 -5.9 3.2 -6.23 3.67 -6.37 3.9 -6.07 3.96 -5.56 3.88 -4.92 3.82 -4.44 3.84 -4.01 3.84 -3.66 3.91 -3.39 4 -3.16 4.1 -2.91 4.18 -2.7 4.3 -2.47 4.41 -2.27 4.51 -2.04 4.59 -1.83 4.7 -1.59 4.79 -1.37 4.88 -1.14 4.95 -0.88 5.02 -0.65 5.1 -0.39 5.16 -0.13 0 0zm123.17 17.26l-133.03 0 9.86 -17.26 133.03 0 0.47 0.75 -10.33 16.51zm10.33 -16.51l0 16.51 -10.33 0 10.33 -16.51zm0 -2976.92l0 2976.92 -10.8 15.76 0 -2976.92 0 0 10.8 -15.76zm-60.32 -33.33l9.86 -17.26 0 0 2.58 0.06 2.56 0.2 2.51 0.31 2.49 0.45 2.43 0.56 2.38 0.68 2.34 0.78 2.28 0.9 2.24 1.01 2.16 1.11 2.11 1.21 2.04 1.29 1.98 1.41 1.9 1.49 1.83 1.57 1.76 1.66 1.67 1.74 1.58 1.83 1.5 1.9 1.42 1.96 1.31 2.05 1.22 2.11 1.13 2.17 1.01 2.24 0.91 2.3 0.8 2.35 0.7 2.41 0.57 2.46 0.45 2.52 0.33 2.57 0.19 2.62 0.08 2.67 -10.8 15.76 -0.06 -2.47 -0.19 -2.44 -0.31 -2.43 -0.43 -2.4 -0.55 -2.36 -0.66 -2.33 -0.78 -2.27 -0.89 -2.24 -0.99 -2.18 -1.09 -2.13 -1.2 -2.05 -1.29 -2.01 -1.38 -1.94 -1.48 -1.86 -1.56 -1.79 -1.65 -1.72 -1.72 -1.64 -1.81 -1.55 -1.88 -1.47 -1.94 -1.37 -2.02 -1.29 -2.07 -1.19 -2.14 -1.09 -2.2 -0.99 -2.24 -0.88 -2.3 -0.78 -2.36 -0.66 -2.39 -0.56 -2.43 -0.43 -2.47 -0.31 -2.5 -0.2 -2.54 -0.06 0 0zm-260.15 -17.26l270.01 0 -9.86 17.26 -270.01 0 -0.47 -0.75 10.33 -16.51zm-9.86 17.26l-0.47 0 0 -0.75 0.47 0.75zm-800 -799.64l9.86 -17.26 0 0 41.02 1.05 40.5 3.1 39.93 5.12 39.31 7.06 38.63 8.97 37.9 10.82 37.12 12.63 36.31 14.37 35.42 16.08 34.48 17.72 33.52 19.32 32.47 20.87 31.4 22.36 30.25 23.8 29.07 25.19 27.84 26.53 26.54 27.82 25.21 29.07 23.82 30.25 22.37 31.38 20.88 32.47 19.33 33.52 17.75 34.48 16.09 35.43 14.4 36.3 12.64 37.15 10.86 37.91 8.99 38.66 7.09 39.34 5.14 39.97 3.12 40.55 1.07 41.1 -10.8 15.76 -1.05 -40.88 -3.12 -40.39 -5.12 -39.83 -7.07 -39.22 -8.97 -38.56 -10.82 -37.83 -12.62 -37.07 -14.38 -36.24 -16.07 -35.37 -17.71 -34.44 -19.31 -33.46 -20.86 -32.43 -22.35 -31.36 -23.78 -30.21 -25.19 -29.03 -26.52 -27.8 -27.8 -26.51 -29.05 -25.17 -30.23 -23.78 -31.36 -22.34 -32.45 -20.85 -33.48 -19.3 -34.46 -17.7 -35.38 -16.06 -36.27 -14.37 -37.08 -12.61 -37.88 -10.8 -38.59 -8.97 -39.25 -7.06 -39.89 -5.1 -40.44 -3.1 -40.98 -1.05 0 0z"/>
   </g>
   <g>
    <path class="fil1" d="M-14847.55 23630.32l-10.8 15.76 0 0 -0.3 -12.04 -0.91 -11.89 -1.49 -11.74 -2.06 -11.56 -2.63 -11.36 -3.16 -11.16 -3.7 -10.92 -4.21 -10.68 -4.71 -10.42 -5.19 -10.16 -5.67 -9.85 -6.13 -9.55 -6.57 -9.24 -6.98 -8.89 -7.41 -8.54 -7.8 -8.18 -8.17 -7.8 -8.55 -7.41 -8.9 -6.99 -9.23 -6.57 -9.56 -6.13 -9.86 -5.67 -10.17 -5.2 -10.43 -4.71 -10.69 -4.22 -10.94 -3.7 -11.19 -3.17 -11.38 -2.64 -11.6 -2.07 -11.79 -1.49 -11.95 -0.91 -12.12 -0.31 9.86 -17.26 12.16 0.31 12.01 0.91 11.83 1.51 11.64 2.07 11.44 2.64 11.21 3.19 10.98 3.72 10.73 4.22 10.47 4.73 10.19 5.22 9.9 5.69 9.58 6.15 9.27 6.59 8.92 7.01 8.57 7.43 8.21 7.82 7.82 8.2 7.43 8.58 7.02 8.93 6.59 9.26 6.15 9.59 5.69 9.91 5.23 10.2 4.73 10.48 4.23 10.74 3.72 11 3.2 11.24 2.65 11.46 2.08 11.68 1.51 11.88 0.91 12.07 0.32 12.24 0 0zm-246.25 252.43l9.86 -17.26 0 0 12.11 -0.31 11.95 -0.91 11.77 -1.49 11.58 -2.07 11.36 -2.63 11.15 -3.16 10.91 -3.69 10.64 -4.19 10.37 -4.69 10.09 -5.16 9.77 -5.62 9.43 -6.05 9.08 -6.46 8.69 -6.83 8.28 -7.17 7.82 -7.46 7.31 -7.66 6.73 -7.77 6.08 -7.73 5.42 -7.61 4.82 -7.52 4.43 -7.71 4.23 -8.26 4.05 -8.97 3.8 -9.64 3.45 -10.21 3.03 -10.67 2.55 -11.02 2.02 -11.33 1.47 -11.6 0.9 -11.81 0.3 -12.01 10.8 -15.76 -0.32 12.27 -0.92 12.15 -1.53 12.02 -2.12 11.91 -2.73 11.8 -3.33 11.73 -3.97 11.71 -4.64 11.78 -5.39 11.93 -6.19 12.1 -6.93 12.05 -7.46 11.62 -7.74 10.89 -7.92 10.09 -8.11 9.35 -8.31 8.72 -8.56 8.16 -8.84 7.67 -9.13 7.17 -9.42 6.7 -9.71 6.23 -9.99 5.74 -10.27 5.26 -10.53 4.75 -10.78 4.25 -11.01 3.73 -11.25 3.2 -11.46 2.65 -11.66 2.07 -11.85 1.51 -12.01 0.91 -12.17 0.31 0 0zm-236.39 -236.67l10.8 -15.76 0 0 0.3 12.04 0.91 11.89 1.49 11.74 2.06 11.56 2.63 11.36 3.16 11.16 3.7 10.92 4.21 10.68 4.71 10.42 5.19 10.16 5.67 9.85 6.13 9.55 6.57 9.24 6.98 8.89 7.41 8.54 7.8 8.18 8.17 7.8 8.55 7.41 8.9 6.99 9.23 6.57 9.56 6.13 9.86 5.67 10.17 5.2 10.43 4.71 10.69 4.22 10.94 3.7 11.19 3.17 11.38 2.64 11.6 2.07 11.79 1.49 11.95 0.91 12.12 0.31 -9.86 17.26 -12.16 -0.31 -12.01 -0.91 -11.83 -1.51 -11.64 -2.07 -11.44 -2.64 -11.21 -3.19 -10.98 -3.72 -10.73 -4.22 -10.47 -4.73 -10.19 -5.22 -9.9 -5.69 -9.58 -6.15 -9.27 -6.59 -8.92 -7.01 -8.57 -7.43 -8.21 -7.82 -7.82 -8.2 -7.43 -8.58 -7.02 -8.93 -6.59 -9.26 -6.15 -9.59 -5.69 -9.91 -5.23 -10.2 -4.73 -10.48 -4.23 -10.74 -3.72 -11 -3.2 -11.24 -2.65 -11.46 -2.08 -11.68 -1.51 -11.88 -0.91 -12.07 -0.32 -12.24 0 0zm246.25 -252.43l-9.86 17.26 0 0 -12.11 0.31 -11.95 0.91 -11.77 1.49 -11.58 2.07 -11.36 2.63 -11.15 3.16 -10.91 3.69 -10.64 4.19 -10.37 4.69 -10.09 5.16 -9.77 5.62 -9.43 6.05 -9.08 6.46 -8.69 6.83 -8.28 7.17 -7.82 7.46 -7.31 7.66 -6.73 7.77 -6.08 7.73 -5.42 7.61 -4.82 7.52 -4.43 7.71 -4.23 8.26 -4.05 8.97 -3.8 9.64 -3.45 10.21 -3.03 10.67 -2.55 11.02 -2.02 11.33 -1.47 11.6 -0.9 11.81 -0.3 12.01 -10.8 15.76 0.32 -12.27 0.92 -12.15 1.53 -12.02 2.12 -11.91 2.73 -11.8 3.33 -11.73 3.97 -11.71 4.64 -11.78 5.39 -11.93 6.19 -12.1 6.93 -12.05 7.46 -11.62 7.74 -10.89 7.92 -10.09 8.11 -9.35 8.31 -8.72 8.56 -8.16 8.84 -7.67 9.13 -7.17 9.42 -6.7 9.71 -6.23 9.99 -5.74 10.27 -5.26 10.53 -4.75 10.78 -4.25 11.01 -3.73 11.25 -3.2 11.46 -2.65 11.66 -2.07 11.85 -1.51 12.01 -0.91 12.17 -0.31 0 0z"/>
   </g>
  </g>
  <g>
   <g>
    <path class="fil1" d="M1159.68 647.04l1677.3 0 -9.86 17.26 -1677.3 0 0 0 9.86 -17.26zm-243.47 250.76l9.86 -17.26 -10.33 16.51 0.32 -12.1 0.92 -11.99 1.53 -11.87 2.12 -11.76 2.71 -11.66 3.32 -11.6 3.95 -11.61 4.63 -11.68 5.39 -11.85 6.17 -11.97 6.88 -11.93 7.4 -11.5 7.68 -10.79 7.86 -9.99 8.04 -9.26 8.25 -8.66 8.49 -8.1 8.77 -7.59 9.05 -7.12 9.33 -6.65 9.61 -6.17 9.89 -5.7 10.17 -5.23 10.42 -4.72 10.65 -4.22 10.9 -3.71 11.11 -3.17 11.33 -2.63 11.51 -2.07 11.68 -1.5 11.86 -0.9 12 -0.31 -9.86 17.26 -11.94 0.31 -11.78 0.9 -11.62 1.48 -11.43 2.07 -11.23 2.59 -11.01 3.15 -10.78 3.67 -10.53 4.16 -10.26 4.66 -9.97 5.13 -9.67 5.58 -9.35 5.99 -8.99 6.41 -8.61 6.78 -8.21 7.11 -7.75 7.38 -7.25 7.6 -6.68 7.7 -6.04 7.67 -5.38 7.53 -4.78 7.44 -4.4 7.63 -4.19 8.15 -4.01 8.83 -3.77 9.5 -3.43 10.07 -3 10.52 -2.53 10.88 -2.02 11.18 -1.47 11.43 -0.9 11.65 -0.3 11.84 -10.33 16.51zm10.33 -16.51l-0.01 16.51 -10.32 0 10.33 -16.51zm-79.31 -0.75l78.84 0 -9.86 17.26 -78.84 0 0 0 9.86 -17.26zm-14.13 15.3l-10.8 15.76 0 0 0.03 -0.89 0.07 -0.9 0.12 -0.94 0.18 -1.01 0.25 -1.1 0.36 -1.24 0.48 -1.4 0.76 -1.91 0.99 -2.14 1.16 -2.26 1.66 -2.89 1.77 -2.76 1.51 -2.11 1.31 -1.67 1.24 -1.43 0.96 -0.98 0.85 -0.82 0.83 -0.7 0.72 -0.57 0.74 -0.53 0.74 -0.48 0.73 -0.41 0.71 -0.37 0.73 -0.33 0.73 -0.28 0.74 -0.25 0.74 -0.21 0.75 -0.17 0.74 -0.13 0.77 -0.11 0.78 -0.05 0.78 -0.02 -9.86 17.26 -0.72 0.02 -0.7 0.05 -0.69 0.09 -0.68 0.13 -0.67 0.15 -0.64 0.17 -0.62 0.21 -0.59 0.24 -0.57 0.25 -0.53 0.27 -0.51 0.29 -0.44 0.28 -0.4 0.29 -0.38 0.29 -0.23 0.2 -0.17 0.16 -0.02 0.02 0.32 -0.37 0.45 -0.57 0.69 -0.97 1.01 -1.58 0.96 -1.67 0.52 -1 0.39 -0.86 0.24 -0.59 0.02 -0.04 -0.04 0.14 -0.07 0.3 -0.08 0.43 -0.06 0.52 -0.05 0.58 -0.01 0.61 0 0zm-10.8 4219.56l0 -4203.8 10.8 -15.76 0 4203.8 0 0 -10.8 15.76zm24.93 -1.96l-9.86 17.26 0 0 -0.77 -0.02 -0.77 -0.05 -0.76 -0.11 -0.72 -0.13 -0.73 -0.16 -0.71 -0.2 -0.7 -0.24 -0.68 -0.26 -0.67 -0.3 -0.63 -0.33 -0.64 -0.36 -0.6 -0.39 -0.59 -0.42 -0.56 -0.44 -0.54 -0.46 -0.53 -0.5 -0.5 -0.51 -0.47 -0.55 -0.45 -0.57 -0.42 -0.58 -0.39 -0.61 -0.36 -0.64 -0.34 -0.65 -0.31 -0.67 -0.27 -0.69 -0.24 -0.72 -0.22 -0.73 -0.17 -0.75 -0.14 -0.78 -0.1 -0.8 -0.06 -0.82 -0.03 -0.86 10.8 -15.76 0.01 0.64 0.06 0.66 0.08 0.66 0.12 0.66 0.15 0.65 0.18 0.65 0.22 0.64 0.25 0.63 0.29 0.61 0.3 0.61 0.34 0.58 0.37 0.57 0.4 0.56 0.41 0.53 0.45 0.51 0.48 0.49 0.49 0.48 0.52 0.44 0.54 0.42 0.55 0.4 0.58 0.37 0.6 0.34 0.61 0.31 0.63 0.28 0.64 0.26 0.66 0.22 0.67 0.18 0.69 0.16 0.7 0.13 0.7 0.09 0.71 0.05 0.73 0.02 0 0zm68.98 17.26l-78.84 0 9.86 -17.26 78.84 0 0.47 0.75 -10.33 16.51zm9.86 -17.26l0.47 0 0 0.75 -0.47 -0.75zm233.61 233.6l-9.86 17.26 0 0 -11.99 -0.31 -11.86 -0.9 -11.67 -1.5 -11.51 -2.07 -11.29 -2.62 -11.08 -3.17 -10.86 -3.69 -10.61 -4.2 -10.36 -4.71 -10.08 -5.18 -9.81 -5.65 -9.49 -6.11 -9.18 -6.53 -8.84 -6.97 -8.5 -7.36 -8.15 -7.76 -7.75 -8.13 -7.37 -8.51 -6.97 -8.85 -6.54 -9.18 -6.1 -9.5 -5.66 -9.81 -5.19 -10.09 -4.71 -10.37 -4.2 -10.62 -3.7 -10.88 -3.18 -11.11 -2.63 -11.32 -2.08 -11.54 -1.5 -11.72 -0.9 -11.92 -0.32 -12.07 10.8 -15.76 0.3 11.87 0.9 11.74 1.48 11.58 2.06 11.42 2.61 11.22 3.14 11.03 3.68 10.8 4.18 10.56 4.69 10.31 5.15 10.05 5.64 9.75 6.08 9.46 6.52 9.16 6.93 8.81 7.35 8.47 7.73 8.11 8.11 7.74 8.48 7.34 8.82 6.95 9.14 6.51 9.47 6.09 9.77 5.63 10.06 5.16 10.32 4.69 10.57 4.2 10.82 3.67 11.06 3.15 11.25 2.62 11.45 2.07 11.63 1.48 11.8 0.9 11.95 0.31 0 0zm1667.44 17.26l-1677.3 0 9.86 -17.26 1677.3 0 0 0 -9.86 17.26zm243.47 -250.86l-9.86 17.26 10.33 -16.51 -0.32 12.1 -0.91 12 -1.52 11.87 -2.12 11.77 -2.71 11.66 -3.32 11.6 -3.94 11.61 -4.63 11.69 -5.38 11.82 -6.15 11.98 -6.9 11.96 -7.4 11.51 -7.68 10.79 -7.86 9.99 -8.04 9.28 -8.25 8.65 -8.5 8.1 -8.76 7.59 -9.05 7.14 -9.34 6.64 -9.61 6.19 -9.9 5.7 -10.16 5.22 -10.42 4.73 -10.66 4.23 -10.9 3.7 -11.11 3.17 -11.33 2.64 -11.52 2.07 -11.68 1.5 -11.87 0.9 -12 0.31 9.86 -17.26 11.94 -0.31 11.79 -0.9 11.62 -1.48 11.44 -2.07 11.23 -2.6 11.01 -3.15 10.78 -3.66 10.54 -4.17 10.26 -4.67 9.98 -5.12 9.66 -5.58 9.35 -6.01 9 -6.4 8.61 -6.78 8.2 -7.11 7.76 -7.4 7.25 -7.59 6.66 -7.7 6.04 -7.67 5.38 -7.55 4.8 -7.45 4.38 -7.6 4.19 -8.16 4.02 -8.86 3.77 -9.49 3.42 -10.07 3 -10.54 2.53 -10.88 2.02 -11.19 1.46 -11.43 0.89 -11.66 0.3 -11.84 10.33 -16.51zm-10.33 16.51l0 -16.51 10.33 0 -10.33 16.51zm79.31 0.75l-78.84 0 9.86 -17.26 78.84 0 0 0 -9.86 17.26zm14.13 -15.3l10.8 -15.76 0 0 -0.03 0.89 -0.07 0.9 -0.12 0.94 -0.18 1.01 -0.25 1.1 -0.36 1.24 -0.48 1.4 -0.76 1.91 -0.99 2.14 -1.16 2.26 -1.66 2.89 -1.77 2.76 -1.51 2.11 -1.31 1.67 -1.24 1.43 -0.96 0.98 -0.85 0.82 -0.83 0.7 -0.72 0.57 -0.74 0.53 -0.74 0.48 -0.73 0.41 -0.71 0.37 -0.73 0.33 -0.73 0.28 -0.74 0.25 -0.74 0.21 -0.75 0.17 -0.74 0.13 -0.77 0.11 -0.78 0.05 -0.78 0.02 9.86 -17.26 0.72 -0.02 0.7 -0.05 0.69 -0.09 0.68 -0.13 0.67 -0.15 0.64 -0.17 0.62 -0.21 0.59 -0.24 0.57 -0.25 0.53 -0.27 0.51 -0.29 0.44 -0.28 0.4 -0.29 0.38 -0.29 0.23 -0.2 0.17 -0.16 0.02 -0.02 -0.32 0.37 -0.45 0.57 -0.69 0.97 -1.01 1.58 -0.96 1.67 -0.52 1 -0.39 0.86 -0.24 0.59 -0.02 0.04 0.04 -0.14 0.07 -0.3 0.08 -0.43 0.06 -0.52 0.05 -0.58 0.01 -0.61 0 0zm10.8 -2188.16l0 2172.4 -10.8 15.76 0 -2172.4 10.33 -16.51 0.47 0.75zm-0.47 -0.75l0.47 0 0 0.75 -0.47 -0.75zm-38.85 0l38.85 0 -9.86 17.26 -38.85 0 0 0 9.86 -17.26zm-39.53 -12.69l10.8 -15.76 0 0 0.03 1.4 0.11 1.38 0.18 1.39 0.25 1.38 0.31 1.36 0.38 1.34 0.45 1.31 0.52 1.3 0.57 1.26 0.63 1.24 0.7 1.19 0.75 1.18 0.8 1.12 0.85 1.09 0.91 1.04 0.96 1 1 0.96 1.05 0.91 1.09 0.86 1.13 0.81 1.17 0.75 1.21 0.69 1.24 0.64 1.28 0.58 1.3 0.52 1.35 0.45 1.36 0.39 1.38 0.32 1.41 0.26 1.44 0.18 1.44 0.11 1.48 0.04 -9.86 17.26 -1.52 -0.04 -1.5 -0.11 -1.48 -0.2 -1.45 -0.26 -1.44 -0.32 -1.4 -0.41 -1.37 -0.47 -1.34 -0.52 -1.32 -0.6 -1.26 -0.66 -1.25 -0.71 -1.19 -0.77 -1.17 -0.83 -1.11 -0.88 -1.07 -0.93 -1.04 -0.98 -0.98 -1.02 -0.93 -1.08 -0.89 -1.13 -0.82 -1.16 -0.77 -1.2 -0.72 -1.25 -0.67 -1.28 -0.59 -1.32 -0.54 -1.36 -0.47 -1.39 -0.42 -1.42 -0.33 -1.46 -0.27 -1.5 -0.2 -1.53 -0.11 -1.56 -0.05 -1.6 0 0zm10.8 -331.13l0 315.37 -10.8 15.76 0 -315.37 0 0 10.8 -15.76zm28.73 -29.95l-9.86 17.26 0 0 -1.47 0.04 -1.43 0.11 -1.43 0.18 -1.4 0.26 -1.36 0.3 -1.33 0.39 -1.3 0.44 -1.26 0.49 -1.2 0.56 -1.18 0.6 -1.11 0.64 -1.04 0.67 -0.97 0.69 -0.9 0.71 -0.77 0.66 -0.65 0.63 -0.49 0.51 -0.21 0.23 0.01 0 0.34 -0.5 0.63 -0.98 0.49 -0.84 0.29 -0.57 0.14 -0.3 -0.09 0.23 -0.22 0.65 -0.23 0.8 -0.23 1.01 -0.21 1.17 -0.16 1.24 -0.1 1.3 -0.03 1.37 -10.8 15.76 0.05 -1.63 0.12 -1.64 0.22 -1.68 0.31 -1.71 0.41 -1.81 0.57 -1.96 0.7 -2.05 0.95 -2.43 1.32 -2.88 1.59 -3.09 1.89 -3.28 2.15 -3.36 1.98 -2.78 1.75 -2.22 1.63 -1.89 1.45 -1.51 1.37 -1.31 1.35 -1.18 1.32 -1.03 1.31 -0.95 1.34 -0.85 1.33 -0.76 1.34 -0.7 1.38 -0.62 1.4 -0.55 1.4 -0.48 1.43 -0.41 1.46 -0.34 1.48 -0.26 1.49 -0.2 1.51 -0.11 1.53 -0.04 0 0zm28.99 17.26l-38.85 0 9.86 -17.26 38.85 0 0.47 0.75 -10.33 16.51zm10.33 -16.51l0 16.51 -10.33 0 10.33 -16.51zm0 -114.21l0 114.21 -10.8 15.76 0 -114.21 10.33 -16.51 0.47 0.75zm-0.47 -0.75l0.47 0 0 0.75 -0.47 -0.75zm-38.85 0l38.85 0 -9.86 17.26 -38.85 0 0 0 9.86 -17.26zm-39.53 -12.69l10.8 -15.76 0 0 0.03 1.4 0.11 1.38 0.18 1.39 0.25 1.38 0.31 1.36 0.38 1.34 0.45 1.31 0.52 1.3 0.57 1.26 0.63 1.24 0.7 1.19 0.75 1.18 0.8 1.12 0.85 1.09 0.91 1.04 0.96 1 1 0.96 1.05 0.91 1.09 0.86 1.13 0.81 1.17 0.75 1.21 0.69 1.24 0.64 1.28 0.58 1.3 0.52 1.35 0.45 1.36 0.39 1.38 0.32 1.41 0.26 1.44 0.18 1.44 0.11 1.48 0.04 -9.86 17.26 -1.52 -0.04 -1.5 -0.11 -1.48 -0.2 -1.45 -0.26 -1.44 -0.32 -1.4 -0.41 -1.37 -0.47 -1.34 -0.52 -1.32 -0.6 -1.26 -0.66 -1.25 -0.71 -1.19 -0.77 -1.17 -0.83 -1.11 -0.88 -1.07 -0.93 -1.04 -0.98 -0.98 -1.02 -0.93 -1.08 -0.89 -1.13 -0.82 -1.16 -0.77 -1.2 -0.72 -1.25 -0.67 -1.28 -0.59 -1.32 -0.54 -1.36 -0.47 -1.39 -0.42 -1.42 -0.33 -1.46 -0.27 -1.5 -0.2 -1.53 -0.11 -1.56 -0.05 -1.6 0 0zm10.8 -631.5l0 615.74 -10.8 15.76 0 -615.74 0 0 10.8 -15.76zm28.73 -29.95l-9.86 17.26 0 0 -1.47 0.04 -1.43 0.11 -1.43 0.18 -1.4 0.26 -1.36 0.3 -1.33 0.39 -1.3 0.44 -1.26 0.49 -1.2 0.56 -1.18 0.6 -1.11 0.64 -1.04 0.67 -0.97 0.69 -0.9 0.71 -0.77 0.66 -0.65 0.63 -0.49 0.51 -0.21 0.23 0.01 0 0.34 -0.5 0.63 -0.98 0.49 -0.84 0.29 -0.57 0.14 -0.3 -0.09 0.23 -0.22 0.65 -0.23 0.8 -0.23 1.01 -0.21 1.17 -0.16 1.24 -0.1 1.3 -0.03 1.37 -10.8 15.76 0.05 -1.63 0.12 -1.64 0.22 -1.68 0.31 -1.71 0.41 -1.81 0.57 -1.96 0.7 -2.05 0.95 -2.43 1.32 -2.88 1.59 -3.09 1.89 -3.28 2.15 -3.36 1.98 -2.78 1.75 -2.22 1.63 -1.89 1.45 -1.51 1.37 -1.31 1.35 -1.18 1.32 -1.03 1.31 -0.95 1.34 -0.85 1.33 -0.76 1.34 -0.7 1.38 -0.62 1.4 -0.55 1.4 -0.48 1.43 -0.41 1.46 -0.34 1.48 -0.26 1.49 -0.2 1.51 -0.11 1.53 -0.04 0 0zm28.99 17.26l-38.85 0 9.86 -17.26 38.85 0 0.47 0.75 -10.33 16.51zm10.33 -16.51l0 16.51 -10.33 0 10.33 -16.51zm0 -869.28l0 869.28 -10.8 15.76 0 -869.28 0 0 10.8 -15.76zm-24.93 1.96l9.86 -17.26 0 0 0.77 0.02 0.77 0.05 0.76 0.11 0.72 0.13 0.73 0.16 0.71 0.2 0.7 0.24 0.68 0.26 0.67 0.3 0.63 0.33 0.64 0.36 0.6 0.39 0.59 0.42 0.56 0.44 0.54 0.46 0.53 0.5 0.5 0.51 0.47 0.55 0.45 0.57 0.42 0.58 0.39 0.61 0.36 0.64 0.34 0.65 0.31 0.67 0.27 0.69 0.24 0.72 0.22 0.73 0.17 0.75 0.14 0.78 0.1 0.8 0.06 0.82 0.03 0.86 -10.8 15.76 -0.01 -0.64 -0.06 -0.66 -0.08 -0.66 -0.12 -0.66 -0.15 -0.65 -0.18 -0.65 -0.22 -0.64 -0.25 -0.63 -0.29 -0.61 -0.3 -0.61 -0.34 -0.58 -0.37 -0.57 -0.4 -0.56 -0.41 -0.53 -0.45 -0.51 -0.48 -0.49 -0.49 -0.48 -0.52 -0.44 -0.54 -0.42 -0.55 -0.4 -0.58 -0.37 -0.6 -0.34 -0.61 -0.31 -0.63 -0.28 -0.64 -0.26 -0.66 -0.22 -0.67 -0.18 -0.69 -0.16 -0.7 -0.13 -0.7 -0.09 -0.71 -0.05 -0.73 -0.02 0 0zm-68.98 -17.26l78.84 0 -9.86 17.26 -78.84 0 -0.47 -0.75 10.33 -16.51zm-9.86 17.26l-0.47 0 0 -0.75 0.47 0.75zm-233.61 -233.5l9.86 -17.26 0 0 11.99 0.31 11.85 0.9 11.67 1.5 11.5 2.07 11.3 2.61 11.07 3.17 10.86 3.7 10.61 4.19 10.36 4.7 10.08 5.19 9.8 5.65 9.49 6.09 9.18 6.54 8.84 6.96 8.5 7.36 8.14 7.75 7.76 8.14 7.37 8.5 6.97 8.85 6.54 9.17 6.1 9.49 5.65 9.81 5.2 10.08 4.71 10.37 4.21 10.62 3.7 10.88 3.18 11.1 2.63 11.32 2.08 11.53 1.51 11.72 0.91 11.9 0.32 12.08 -10.8 15.76 -0.3 -11.86 -0.91 -11.74 -1.49 -11.58 -2.06 -11.41 -2.61 -11.22 -3.14 -11.02 -3.68 -10.8 -4.19 -10.56 -4.69 -10.31 -5.16 -10.04 -5.63 -9.75 -6.08 -9.45 -6.52 -9.15 -6.93 -8.81 -7.35 -8.46 -7.74 -8.12 -8.1 -7.73 -8.48 -7.34 -8.82 -6.94 -9.14 -6.52 -9.47 -6.07 -9.76 -5.63 -10.06 -5.17 -10.32 -4.68 -10.57 -4.19 -10.82 -3.68 -11.05 -3.15 -11.26 -2.61 -11.44 -2.07 -11.63 -1.48 -11.79 -0.9 -11.95 -0.31 0 0z"/>
   </g>
   <g>
    <path class="fil1" d="M2077.96 802.6l-10.8 15.76 0 0 -0.08 -3.44 -0.27 -3.41 -0.42 -3.38 -0.6 -3.33 -0.76 -3.29 -0.92 -3.23 -1.06 -3.16 -1.22 -3.1 -1.37 -3.02 -1.5 -2.95 -1.65 -2.85 -1.78 -2.78 -1.92 -2.69 -2.02 -2.58 -2.16 -2.48 -2.27 -2.38 -2.37 -2.27 -2.49 -2.16 -2.59 -2.03 -2.68 -1.92 -2.79 -1.78 -2.86 -1.65 -2.96 -1.51 -3.03 -1.37 -3.11 -1.23 -3.18 -1.07 -3.25 -0.92 -3.32 -0.77 -3.37 -0.61 -3.43 -0.42 -3.46 -0.27 -3.53 -0.09 9.86 -17.26 3.57 0.09 3.52 0.27 3.47 0.44 3.41 0.61 3.36 0.77 3.29 0.94 3.22 1.09 3.15 1.23 3.07 1.39 2.98 1.53 2.9 1.67 2.81 1.8 2.72 1.94 2.61 2.05 2.51 2.18 2.41 2.29 2.29 2.4 2.18 2.52 2.06 2.62 1.94 2.71 1.8 2.82 1.67 2.91 1.54 2.99 1.39 3.08 1.24 3.16 1.1 3.24 0.94 3.31 0.78 3.39 0.62 3.45 0.44 3.52 0.27 3.57 0.1 3.66 0 0zm-79.22 85.4l9.86 -17.26 0 0 3.52 -0.09 3.46 -0.27 3.41 -0.42 3.35 -0.61 3.29 -0.76 3.22 -0.91 3.15 -1.06 3.06 -1.2 2.97 -1.35 2.88 -1.47 2.77 -1.6 2.66 -1.7 2.53 -1.81 2.38 -1.87 2.22 -1.92 2.02 -1.93 1.78 -1.87 1.48 -1.7 1.14 -1.44 0.76 -1.06 0.46 -0.72 0.43 -0.74 0.53 -1.04 0.7 -1.56 0.8 -2.05 0.83 -2.46 0.78 -2.73 0.68 -2.96 0.56 -3.1 0.4 -3.23 0.26 -3.33 0.08 -3.42 10.8 -15.76 -0.1 3.68 -0.28 3.65 -0.46 3.67 -0.66 3.68 -0.86 3.72 -1.08 3.81 -1.33 3.94 -1.66 4.21 -2.06 4.54 -2.51 4.9 -2.89 5.02 -3.12 4.88 -3.1 4.34 -2.94 3.76 -2.86 3.3 -2.78 2.91 -2.76 2.63 -2.78 2.42 -2.82 2.21 -2.87 2.05 -2.94 1.88 -2.99 1.72 -3.06 1.57 -3.13 1.41 -3.2 1.26 -3.25 1.1 -3.32 0.95 -3.39 0.78 -3.43 0.61 -3.49 0.44 -3.52 0.27 -3.58 0.09 0 0zm-69.36 -69.64l10.8 -15.76 0 0 0.08 3.44 0.27 3.41 0.42 3.38 0.6 3.33 0.76 3.29 0.92 3.23 1.06 3.16 1.22 3.1 1.37 3.02 1.5 2.95 1.65 2.85 1.78 2.78 1.92 2.69 2.02 2.58 2.16 2.48 2.27 2.38 2.37 2.27 2.49 2.16 2.59 2.03 2.68 1.92 2.79 1.78 2.86 1.65 2.96 1.51 3.03 1.37 3.11 1.23 3.18 1.07 3.25 0.92 3.32 0.77 3.37 0.61 3.43 0.42 3.46 0.27 3.53 0.09 -9.86 17.26 -3.57 -0.09 -3.52 -0.27 -3.47 -0.44 -3.41 -0.61 -3.36 -0.77 -3.29 -0.94 -3.22 -1.09 -3.15 -1.23 -3.07 -1.39 -2.98 -1.53 -2.9 -1.67 -2.81 -1.8 -2.72 -1.94 -2.61 -2.05 -2.51 -2.18 -2.41 -2.29 -2.29 -2.4 -2.18 -2.52 -2.06 -2.62 -1.94 -2.71 -1.8 -2.82 -1.67 -2.91 -1.54 -2.99 -1.39 -3.08 -1.24 -3.16 -1.1 -3.24 -0.94 -3.31 -0.78 -3.39 -0.62 -3.45 -0.44 -3.52 -0.27 -3.57 -0.1 -3.66 0 0zm79.22 -85.4l-9.86 17.26 0 0 -3.52 0.09 -3.46 0.27 -3.41 0.42 -3.35 0.61 -3.29 0.76 -3.22 0.91 -3.15 1.06 -3.06 1.2 -2.97 1.35 -2.88 1.47 -2.77 1.6 -2.66 1.7 -2.53 1.81 -2.38 1.87 -2.22 1.92 -2.02 1.93 -1.78 1.87 -1.48 1.7 -1.14 1.44 -0.76 1.06 -0.46 0.72 -0.43 0.74 -0.53 1.04 -0.7 1.56 -0.8 2.05 -0.83 2.46 -0.78 2.73 -0.68 2.96 -0.56 3.1 -0.4 3.23 -0.26 3.33 -0.08 3.42 -10.8 15.76 0.1 -3.68 0.28 -3.65 0.46 -3.67 0.66 -3.68 0.86 -3.72 1.08 -3.81 1.33 -3.94 1.66 -4.21 2.06 -4.54 2.51 -4.9 2.89 -5.02 3.12 -4.88 3.1 -4.34 2.94 -3.76 2.86 -3.3 2.78 -2.91 2.76 -2.63 2.78 -2.42 2.82 -2.21 2.87 -2.05 2.94 -1.88 2.99 -1.72 3.06 -1.57 3.13 -1.41 3.2 -1.26 3.25 -1.1 3.32 -0.95 3.39 -0.78 3.43 -0.61 3.49 -0.44 3.52 -0.27 3.58 -0.09 0 0z"/>
   </g>
  </g>
 </g>
</svg>
