<?xml version="1.0" encoding="UTF-8"?>
<!DOCTYPE svg PUBLIC "-//W3C//DTD SVG 1.1//EN" "http://www.w3.org/Graphics/SVG/1.1/DTD/svg11.dtd">
<!-- Creator: CorelDRAW X8 -->
<svg xmlns="http://www.w3.org/2000/svg" xml:space="preserve" width="40mm" height="60mm" version="1.1" style="shape-rendering:geometricPrecision; text-rendering:geometricPrecision; image-rendering:optimizeQuality; fill-rule:evenodd; clip-rule:evenodd"
viewBox="0 0 4000 6000"
 xmlns:xlink="http://www.w3.org/1999/xlink">
 <defs>
  <style type="text/css">
   <![CDATA[
    .str0 {stroke:black;stroke-width:7.62}
    .fil0 {fill:none}
   ]]>
  </style>
 </defs>
 <g id="图层_x0020_1">
  <metadata id="CorelCorpID_0Corel-Layer"/>
  <path class="fil0 str0" d="M1045 5350l1822 0c128,0 232,-104 232,-231l0 -4238c0,-127 -104,-231 -232,-231l-308 0c-8,0 -13,4 -13,12l0 5c0,18 -14,32 -32,32l0 0c-17,0 -32,-14 -32,-32l0 -5c0,-9 -6,-12 -12,-12l-280 0c-4,0 -6,1 -9,4l-14 21c-3,4 -5,4 -10,4l-480 0c-5,0 -6,-1 -10,-6l-12 -19c-2,-3 -5,-4 -8,-4l-514 0c-128,0 -232,104 -232,231l0 4238c0,127 104,231 232,231l40 0m30 -4568c-1,-7 -7,-14 -21,-15 -48,0 -87,39 -87,87 0,48 39,87 87,87 48,0 87,-39 87,-87 0,-48 -39,-87 -87,-87"/>
 </g>
</svg>
