<?xml version="1.0" encoding="UTF-8"?>
<!DOCTYPE svg PUBLIC "-//W3C//DTD SVG 1.1//EN" "http://www.w3.org/Graphics/SVG/1.1/DTD/svg11.dtd">
<!-- Creator: CorelDRAW X8 -->
<svg xmlns="http://www.w3.org/2000/svg" xml:space="preserve" width="40mm" height="60mm" version="1.1" style="shape-rendering:geometricPrecision; text-rendering:geometricPrecision; image-rendering:optimizeQuality; fill-rule:evenodd; clip-rule:evenodd"
viewBox="0 0 4000 6000"
 xmlns:xlink="http://www.w3.org/1999/xlink">
 <defs>
  <style type="text/css">
   <![CDATA[
    .str0 {stroke:black;stroke-width:7.62}
    .fil0 {fill:none}
   ]]>
  </style>
 </defs>
 <g id="图层_x0020_1">
  <metadata id="CorelCorpID_0Corel-Layer"/>
  <path class="fil0 str0" d="M1014 5350l1839 0c124,0 226,-102 226,-227l0 -4246c0,-125 -102,-227 -226,-227l-480 0c-7,0 -13,2 -16,6l-17 24c-3,5 -6,6 -12,6l-225 0c-13,0 -35,6 -35,26l0 61c0,34 -27,61 -61,61l0 0c-34,0 -61,-27 -61,-61l0 -53c0,-25 -23,-34 -29,-34l-230 0c-8,0 -10,-1 -13,-6l-18 -25c-2,-4 -6,-5 -11,-5l-498 0c-124,0 -226,102 -226,227l0 4246c0,125 102,227 226,227l140 0"/>
 </g>
</svg>
