<?xml version="1.0" encoding="UTF-8"?>
<!DOCTYPE svg PUBLIC "-//W3C//DTD SVG 1.1//EN" "http://www.w3.org/Graphics/SVG/1.1/DTD/svg11.dtd">
<!-- Creator: CorelDRAW X8 -->
<svg xmlns="http://www.w3.org/2000/svg" xml:space="preserve" width="40mm" height="60mm" version="1.1" style="shape-rendering:geometricPrecision; text-rendering:geometricPrecision; image-rendering:optimizeQuality; fill-rule:evenodd; clip-rule:evenodd"
viewBox="0 0 4000 6000"
 xmlns:xlink="http://www.w3.org/1999/xlink">
 <defs>
  <style type="text/css">
   <![CDATA[
    .str0 {stroke:#332C2B;stroke-width:20}
    .fil0 {fill:none}
   ]]>
  </style>
 </defs>
 <g id="图层_x0020_1">
  <metadata id="CorelCorpID_0Corel-Layer"/>
  <path class="fil0 str0" d="M919 5257l1895 0c147,0 267,-120 267,-267l0 -4073c0,-147 -120,-267 -267,-267l-591 0c0,0 -72,0 -72,51l0 66c0,22 -17,39 -39,39l-196 0c-21,0 -39,-17 -39,-39l0 -66c0,-51 -71,-51 -71,-51l-603 0c-147,0 -268,120 -268,267l0 4073c0,147 121,267 268,267 0,0 3,0 3,0 170,0 197,54 192,93"/>
 </g>
</svg>
