<?xml version="1.0" encoding="UTF-8"?>
<!DOCTYPE svg PUBLIC "-//W3C//DTD SVG 1.1//EN" "http://www.w3.org/Graphics/SVG/1.1/DTD/svg11.dtd">
<!-- Creator: CorelDRAW 2020 (64-Bit) -->
<svg xmlns="http://www.w3.org/2000/svg" xml:space="preserve" width="40mm" height="60mm" version="1.1" style="shape-rendering:geometricPrecision; text-rendering:geometricPrecision; image-rendering:optimizeQuality; fill-rule:evenodd; clip-rule:evenodd"
viewBox="0 0 4000 6000"
 xmlns:xlink="http://www.w3.org/1999/xlink"
 xmlns:xodm="http://www.corel.com/coreldraw/odm/2003">
 <defs>
  <style type="text/css">
   <![CDATA[
    .str0 {stroke:black;stroke-width:7.62;stroke-miterlimit:22.9256}
    .fil0 {fill:none}
   ]]>
  </style>
 </defs>
 <g id="图层_x0020_1">
  <metadata id="CorelCorpID_0Corel-Layer"/>
  <path class="fil0 str0" d="M1452.82 701.56c-3.39,8.36 -61.61,46.33 -174.65,113.91 -150.76,86 -166.39,216.82 -165.8,394.76 2.1,642.29 3.36,1332.16 15.5,2008.55 7.09,395.13 11.48,802.42 27.02,1189.73 8.89,221.55 12.89,442.34 47.64,638.91 28.74,142.53 136.23,195.66 247.63,230.47 118.76,37.11 243.71,60.81 369.44,67.2 286.89,14.58 571.9,17.54 722.05,-13.62 193.31,-38.23 221.47,-187.82 253.77,-419.9 59.77,-429.45 78.63,-822.02 79.01,-1270 0.25,-305.11 -10,-607.38 -16.05,-906.01 -8.09,-399.41 -24.57,-785.91 -63.36,-1152.01 -26.58,-250.93 -52.83,-490.22 -106.15,-706.62 -43.74,-167.57 -190.97,-213.8 -334.18,-219.37 -114.6,-4.45 -262.03,-1.09 -414.34,10.72 -246.03,19.08 -498.01,52.41 -662.18,147.19 -48.31,26.3 -85,39.99 -110.06,41.05"/>
 </g>
</svg>
