<?xml version="1.0" encoding="UTF-8"?>
<!DOCTYPE svg PUBLIC "-//W3C//DTD SVG 1.1//EN" "http://www.w3.org/Graphics/SVG/1.1/DTD/svg11.dtd">
<!-- Creator: CorelDRAW -->
<svg xmlns="http://www.w3.org/2000/svg" xml:space="preserve" width="40mm" height="60mm" style="shape-rendering:geometricPrecision; text-rendering:geometricPrecision; image-rendering:optimizeQuality; fill-rule:evenodd; clip-rule:evenodd"
viewBox="0 0 40 60"
 xmlns:xlink="http://www.w3.org/1999/xlink">
 <defs>
  <style type="text/css">
   <![CDATA[
    .str0 {stroke:#1F1A17;stroke-width:0.0762}
    .str1 {stroke:#1F1A17;stroke-width:0.0762;stroke-linejoin:bevel}
    .fil0 {fill:none}
   ]]>
  </style>
 </defs>
 <g id="图层_x0020_1">
  <metadata id="CorelCorpID_0Corel-Layer"/>
  <line class="fil0 str0" x1="-278.103" y1="-15.6353" x2="-277.903" y2= "-15.6353" />
  <g id="_136239264">
   <path id="_137349952" class="fil0 str1" d="M9.5713 53.5l20.8574 0c0.3335,-0.0002 0.6549,-0.1329 0.8906,-0.3689 0.2357,-0.2359 0.368,-0.5559 0.3678,-0.8895l0 -44.4832c-0.0002,-0.3336 -0.1329,-0.6549 -0.3689,-0.8906 -0.236,-0.2357 -0.556,-0.368 -0.8895,-0.3678l-20.8574 0c-0.3335,0.0002 -0.6549,0.1329 -0.8906,0.3689 -0.2357,0.236 -0.3679,0.5559 -0.3678,0.8895l0 44.4832c0.0003,0.3336 0.133,0.655 0.369,0.8907 0.2359,0.2357 0.5559,0.3679 0.8894,0.3677z"/>
   <path id="_197182608" class="fil0 str1" d="M16.6959 7.7061c0,0.3475 -0.2817,0.6291 -0.6292,0.6291 -0.3475,0 -0.6291,-0.2816 -0.6291,-0.6291 0,-0.3475 0.2816,-0.6292 0.6291,-0.6292 0.3475,0 0.6292,0.2817 0.6292,0.6292z"/>
   <path id="_136961368" class="fil0 str1" d="M18.3327 8.1937c-0.1294,0.0001 -0.2529,-0.0513 -0.3445,-0.1427 -0.0915,-0.0914 -0.143,-0.2155 -0.1431,-0.3449 -0.0001,-0.1294 0.0512,-0.253 0.1427,-0.3445 0.0914,-0.0916 0.2155,-0.1431 0.3449,-0.1432l3.3346 0c0.1294,0 0.253,0.0513 0.3445,0.1427 0.0916,0.0915 0.1431,0.2156 0.1431,0.345 0.0001,0.1294 -0.0512,0.2529 -0.1426,0.3445 -0.0915,0.0915 -0.2156,0.143 -0.345,0.1431l-3.3346 0z"/>
  </g>
 </g>
</svg>
