<?xml version="1.0" encoding="UTF-8"?>
<!DOCTYPE svg PUBLIC "-//W3C//DTD SVG 1.1//EN" "http://www.w3.org/Graphics/SVG/1.1/DTD/svg11.dtd">
<!-- Creator: CorelDRAW X8 -->
<svg xmlns="http://www.w3.org/2000/svg" xml:space="preserve" width="40mm" height="60mm" version="1.1" style="shape-rendering:geometricPrecision; text-rendering:geometricPrecision; image-rendering:optimizeQuality; fill-rule:evenodd; clip-rule:evenodd"
viewBox="0 0 4000 6000"
 xmlns:xlink="http://www.w3.org/1999/xlink">
 <defs>
  <style type="text/css">
   <![CDATA[
    .str0 {stroke:black;stroke-width:7.62}
    .fil0 {fill:none}
   ]]>
  </style>
 </defs>
 <g id="图层_x0020_1">
  <metadata id="CorelCorpID_0Corel-Layer"/>
  <path class="fil0 str0" d="M2015 713c-1,-6 -6,-11 -16,-12 -37,0 -67,30 -67,67 0,36 30,66 67,66 37,0 67,-30 67,-66 0,-37 -30,-67 -67,-67m-955 4623l1800 0c116,0 211,-94 211,-210l0 -35 114 0c8,0 14,-7 14,-15l0 -2284c0,-15 -3,-20 -17,-20l-67 0c-8,0 -15,-7 -15,-15l0 -283c0,-8 7,-15 15,-15l69 0c12,0 15,-2 15,-15l0 -134c0,-16 -7,-21 -19,-21l-65 0c-8,0 -15,-7 -15,-15l0 -662c0,-8 7,-15 15,-15l64 0c15,0 20,-6 20,-23l0 -652c0,-8 -6,-14 -14,-14l-114 0 0 -36c0,-115 -95,-210 -211,-210 -566,0 -1122,0 -1688,0 -116,0 -211,95 -211,210l0 36 -114 0c-8,0 -14,6 -14,14l0 4154c0,8 6,15 14,15l114 0 0 35c0,116 95,210 211,210l33 0c30,0 63,11 80,26"/>
 </g>
</svg>
