<?xml version="1.0" encoding="UTF-8"?>
<!DOCTYPE svg PUBLIC "-//W3C//DTD SVG 1.1//EN" "http://www.w3.org/Graphics/SVG/1.1/DTD/svg11.dtd">
<!-- Creator: CorelDRAW 2020 (64-Bit) -->
<svg xmlns="http://www.w3.org/2000/svg" xml:space="preserve" width="40mm" height="60mm" version="1.1" style="shape-rendering:geometricPrecision; text-rendering:geometricPrecision; image-rendering:optimizeQuality; fill-rule:evenodd; clip-rule:evenodd"
viewBox="0 0 4000 6000"
 xmlns:xlink="http://www.w3.org/1999/xlink"
 xmlns:xodm="http://www.corel.com/coreldraw/odm/2003">
 <defs>
  <style type="text/css">
   <![CDATA[
    .str0 {stroke:black;stroke-width:7.62;stroke-miterlimit:22.9256}
    .fil0 {fill:none}
   ]]>
  </style>
 </defs>
 <g id="图层_x0020_1">
  <metadata id="CorelCorpID_0Corel-Layer"/>
  <path class="fil0 str0" d="M2461.55 750.04c3.54,-22.78 -15.61,-38.74 -25.11,-39.48 -33.8,0 -61.2,27.4 -61.2,61.2 0,33.8 27.4,61.2 61.2,61.2 33.8,0 61.2,-27.4 61.2,-61.2 0,-33.8 -27.4,-61.2 -61.2,-61.2m-583.76 97.1c-5.36,-20.01 -16.29,-35.9 -65.48,-35.9l-42.09 0c-22.12,0 -40.21,18.1 -40.21,40.22l0 0c0,22.11 18.09,40.22 40.21,40.22l500.1 0c22.12,0 40.21,-18.1 40.21,-40.22l0 0c0,-22.12 -18.1,-40.22 -40.21,-40.22l-458.01 0m-943.15 4570.06l2247.45 0c50.01,0 90.93,-40.92 90.93,-90.92l0 -4504.31c0,-50.01 -40.92,-90.92 -90.93,-90.92l-2196.2 0c-50.01,0 -90.93,40.91 -90.93,90.92l0 4504.31c0,50 40.92,90.92 90.93,90.92l30 0c31.88,0 50.05,6.22 56.68,13.85"/>
 </g>
</svg>
