<?xml version="1.0" encoding="UTF-8"?>
<!DOCTYPE svg PUBLIC "-//W3C//DTD SVG 1.1//EN" "http://www.w3.org/Graphics/SVG/1.1/DTD/svg11.dtd">
<!-- Creator: CorelDRAW 2020 (64-Bit) -->
<svg xmlns="http://www.w3.org/2000/svg" xml:space="preserve" width="40mm" height="60mm" version="1.1" style="shape-rendering:geometricPrecision; text-rendering:geometricPrecision; image-rendering:optimizeQuality; fill-rule:evenodd; clip-rule:evenodd"
viewBox="0 0 4000 6000"
 xmlns:xlink="http://www.w3.org/1999/xlink"
 xmlns:xodm="http://www.corel.com/coreldraw/odm/2003">
 <defs>
  <style type="text/css">
   <![CDATA[
    .str0 {stroke:#332C2B;stroke-width:20;stroke-miterlimit:22.9256}
    .fil0 {fill:none}
   ]]>
  </style>
   <clipPath id="id0">
    <rect x="-43897.87" y="-3990.9" width="15055.08" height="15055.08"/>
   </clipPath>
 </defs>
 <g id="图层_x0020_1">
  <metadata id="CorelCorpID_0Corel-Layer"/>
  <g style="clip-path:url(#id0)">
   <image x="-43897.87" y="-3990.9" width="15055.08" height="15055.08" xlink:href="H8 pro-11i（背膜）_Images\H8 pro-11i（背膜）_ImgID1.png"/>
  </g>
  <rect class="fil0 str0" x="-43658.37" y="-3807.76" width="7090" height="14730"/>
  <path class="fil0 str0" d="M-42668.5 -3560.81l1744.14 0c11.38,31.38 41.55,53.96 76.74,53.96l263.67 0c75.78,0 62.69,131.19 62.69,206.13 0,231.36 187.56,418.92 418.92,418.92 231.36,0 418.92,-187.56 418.92,-418.92 0,-74.94 -23,-206.13 58.29,-206.13l314.3 0c35.19,0 65.36,-22.58 76.74,-53.96l1675.87 0c412.49,0 750,337.5 750,750l0 12637.48c0,412.5 -337.51,750.01 -750,750.01l-5110.28 0c-412.5,0 -750,-337.51 -750,-750.01l0 -12637.48c0,-412.5 337.5,-750 750,-750z"/>
  <rect class="fil0 str0" x="-36188.29" y="-3807.76" width="7090" height="14730"/>
  <rect class="fil0 str0" x="-36077.34" y="-3640.19" width="6868.1" height="14352.49" rx="800" ry="868.74"/>
  <path class="fil0 str0" d="M-35060.86 -3162.98c-310.46,0 -564.46,254 -564.46,564.46l0 1082.57c0,310.46 254,564.46 564.46,564.46l0.01 0c310.46,0 564.46,-254 564.46,-564.46l0 -1082.57c0,-310.46 -254,-564.46 -564.46,-564.46l-0.01 0c0,0 -440.95,86.01 -440.95,421.15"/>
  <path class="fil0 str0" d="M-32644.92 -753.75c-360.44,0 -652.64,292.2 -652.64,652.64 0,360.44 292.2,652.64 652.64,652.64 360.44,0 652.64,-292.2 652.64,-652.64 0,-360.44 -292.2,-652.64 -652.64,-652.64 -360.44,0 -513.72,454.21 -513.72,577.68"/>
  <path class="fil0 str0" d="M-3318.99 6649.31l0 -6109.48c0,-439.99 -360.01,-800 -800,-800l-12752.48 0c-440,0 -800,360 -800,800l0 5268.11c0,440 360,799.99 800,799.99l12752.48 0c440,0 800,-359.99 800,-799.99 0,-440 255.72,-1628.63 636.72,-1628.63"/>
  <path class="fil0 str0" d="M-17194.27 5591.46c0,310.46 254,564.46 564.46,564.46l1082.57 0c310.46,0 564.46,-254 564.46,-564.46l0 -0.01c0,-310.46 -254,-564.46 -564.46,-564.46l-1082.57 0c-310.46,0 -564.46,254 -564.46,564.46l0 0.01c0,0 86.01,440.95 421.15,440.95"/>
  <path class="fil0 str0" d="M-14785.04 3175.52c0,360.44 292.2,652.64 652.64,652.64 360.44,0 652.64,-292.2 652.64,-652.64 0,-360.44 -292.2,-652.64 -652.64,-652.64 -360.44,0 -652.64,292.2 -652.64,652.64 0,360.44 454.21,513.72 577.68,513.72"/>
  <g id="_2813109601376">
   <path class="fil0 str0" d="M910.13 5156.02l1915.69 0c137.96,0 250.85,-112.88 250.85,-250.85l0 -3998.65c0,-137.97 -112.89,-250.85 -250.85,-250.85l-1651.87 0c-137.96,0 -250.84,112.88 -250.84,250.85l0 3998.65c0,137.97 112.88,250.85 250.84,250.85 137.97,0 510.68,80.18 510.68,199.65"/>
   <path class="fil0 str0" d="M1241.83 805.3c-97.34,0 -176.99,79.64 -176.99,176.99l0 339.45c0,97.35 79.65,176.99 176.99,176.99l0.01 0c97.34,0 176.99,-79.64 176.99,-176.99l0 -339.45c0,-97.35 -79.65,-176.99 -176.99,-176.99l-0.01 0c0,0 -138.26,26.97 -138.26,132.06"/>
   <path class="fil0 str0" d="M1999.37 1560.74c-113.02,0 -204.64,91.62 -204.64,204.64 0,113.02 91.62,204.64 204.64,204.64 113.02,0 204.64,-91.62 204.64,-204.64 0,-113.02 -91.62,-204.64 -204.64,-204.64 -113.02,0 -161.08,142.42 -161.08,181.13"/>
  </g>
 </g>
</svg>
