<?xml version="1.0" encoding="UTF-8"?>
<!DOCTYPE svg PUBLIC "-//W3C//DTD SVG 1.1//EN" "http://www.w3.org/Graphics/SVG/1.1/DTD/svg11.dtd">
<!-- Creator: CorelDRAW -->
<svg xmlns="http://www.w3.org/2000/svg" xml:space="preserve" width="40mm" height="60mm" style="shape-rendering:geometricPrecision; text-rendering:geometricPrecision; image-rendering:optimizeQuality; fill-rule:evenodd; clip-rule:evenodd"
viewBox="0 0 40 60"
 xmlns:xlink="http://www.w3.org/1999/xlink">
 <defs>
  <style type="text/css">
   <![CDATA[
    .str0 {stroke:#1F1A17;stroke-width:0.0762}
    .fil0 {fill:none}
   ]]>
  </style>
 </defs>
 <g id="图层_x0020_1">
  <metadata id="CorelCorpID_0Corel-Layer"/>
  <g id="_176379824">
   <path id="_175912136" class="fil0 str0" d="M31.0378 7.0997l0 45.8006c0,0.3298 -0.2701,0.5997 -0.6001,0.5997l-20.8754 0c-0.33,0 -0.6001,-0.2699 -0.6001,-0.5997l0 -45.8006c0,-0.3298 0.2701,-0.5997 0.6001,-0.5997l20.8754 0c0.33,0 0.6001,0.2699 0.6001,0.5997z"/>
   <path id="_175919120" class="fil0 str0" d="M14.337 10.0489l0 6.6084c0,0.9578 -0.767,1.7414 -1.7046,1.7414l0 0c-0.9375,0 -1.7045,-0.7836 -1.7045,-1.7414l0 -6.6084c0,-0.9578 0.767,-1.7414 1.7045,-1.7414l0 0c0.9376,0 1.7046,0.7836 1.7046,1.7414z"/>
   <path id="_176379584" class="fil0 str0" d="M16.4785 10.4881c0,0.3412 -0.2767,0.6178 -0.6179,0.6178 -0.3411,0 -0.6178,-0.2766 -0.6178,-0.6178 0,-0.3412 0.2767,-0.6179 0.6178,-0.6179 0.3412,0 0.6179,0.2767 0.6179,0.6179z"/>
   <path id="_175919672" class="fil0 str0" d="M16.4785 12.5536c0,0.33 -0.2676,0.5976 -0.5976,0.5976 -0.33,0 -0.5976,-0.2676 -0.5976,-0.5976 0,-0.33 0.2676,-0.5976 0.5976,-0.5976 0.33,0 0.5976,0.2676 0.5976,0.5976z"/>
   <path id="_176379296" class="fil0 str0" d="M16.4091 14.1957c0,0.2881 -0.2336,0.5216 -0.5216,0.5216 -0.2881,0 -0.5217,-0.2335 -0.5217,-0.5216 0,-0.288 0.2336,-0.5216 0.5217,-0.5216 0.288,0 0.5216,0.2336 0.5216,0.5216z"/>
  </g>
 </g>
</svg>
