<?xml version="1.0" encoding="UTF-8"?>
<!DOCTYPE svg PUBLIC "-//W3C//DTD SVG 1.1//EN" "http://www.w3.org/Graphics/SVG/1.1/DTD/svg11.dtd">
<!-- Creator: CorelDRAW X8 -->
<svg xmlns="http://www.w3.org/2000/svg" xml:space="preserve" width="40mm" height="60mm" version="1.1" style="shape-rendering:geometricPrecision; text-rendering:geometricPrecision; image-rendering:optimizeQuality; fill-rule:evenodd; clip-rule:evenodd"
viewBox="0 0 4000 6000"
 xmlns:xlink="http://www.w3.org/1999/xlink">
 <defs>
  <style type="text/css">
   <![CDATA[
    .str0 {stroke:black;stroke-width:7.62}
    .fil0 {fill:none}
   ]]>
  </style>
 </defs>
 <g id="图层_x0020_1">
  <metadata id="CorelCorpID_0Corel-Layer"/>
  <path class="fil0 str0" d="M1043 5350l1760 0c149,0 238,-78 238,-238l0 -4224c0,-159 -58,-238 -238,-238l-545 0c-5,0 -104,0 -145,0 -18,0 -29,7 -29,25l0 20c0,45 -37,82 -82,82l0 0c-45,0 -82,-37 -82,-82l0 -21c0,-17 -10,-24 -21,-24 -41,0 -127,0 -132,0l-570 0c-175,0 -238,80 -238,238l0 4224c0,148 100,238 238,238l233 0"/>
 </g>
</svg>
