<?xml version="1.0" encoding="UTF-8"?>
<!DOCTYPE svg PUBLIC "-//W3C//DTD SVG 1.1//EN" "http://www.w3.org/Graphics/SVG/1.1/DTD/svg11.dtd">
<!-- Creator: CorelDRAW X8 -->
<svg xmlns="http://www.w3.org/2000/svg" xml:space="preserve" width="40mm" height="60mm" version="1.1" style="shape-rendering:geometricPrecision; text-rendering:geometricPrecision; image-rendering:optimizeQuality; fill-rule:evenodd; clip-rule:evenodd"
viewBox="0 0 4000 6000"
 xmlns:xlink="http://www.w3.org/1999/xlink">
 <defs>
  <style type="text/css">
   <![CDATA[
    .fil0 {fill:#332C2B;fill-rule:nonzero}
   ]]>
  </style>
 </defs>
 <g id="图层_x0020_1">
  <metadata id="CorelCorpID_0Corel-Layer"/>
  <g>
   <path class="fil0" d="M1149 1189l18 9 -1 2 -2 2 -2 3 -2 3 -1 2 -2 3 -2 2 -2 2 -2 2 -2 2 -2 3 -2 2 -1 1 -2 2 -2 2 -2 2 -1 1 -2 2 -2 1 -2 2 -1 1 -2 1 -2 1 -1 2 -2 1 -2 1 -2 0 -1 1 -2 1 -2 1 -2 0 -1 1 -2 0 -3 -20 0 0 1 0 1 0 1 -1 1 0 1 -1 1 0 1 -1 1 0 1 -1 1 -1 2 -1 1 -1 1 -1 2 -1 1 -2 2 -1 1 -1 2 -2 1 -1 2 -2 1 -2 2 -2 2 -2 1 -2 2 -2 2 -2 2 -2 2 -3 1 -2 2 -3 2 -2 -1 1zm18 9l0 1 -1 1 1 -2zm11 -12l-17 12 0 0 0 -1 0 0 -1 0 0 -1 0 0 0 0 0 0 0 0 0 0 1 1 0 0 0 0 1 0 1 0 1 1 1 -1 1 0 1 0 0 0 1 -1 0 0 0 0 1 0 0 0 0 0 0 0 -1 0 0 0 0 1 0 0 -1 1 0 0 -18 -9 1 -1 0 -1 1 -1 0 0 1 -1 1 -1 0 -1 1 -1 1 0 0 -1 1 -1 1 0 2 -1 1 -1 1 0 2 0 2 0 1 0 2 0 1 0 1 1 1 1 1 0 1 1 1 0 0 1 1 1 1 0 0 1 1 1 0 0 1 1 0 0zm0 0l0 0 1 2 -1 -2zm441 689l-17 11 0 0 -8 -13 -9 -15 -9 -16 -11 -17 -11 -19 -13 -20 -13 -21 -13 -21 -14 -23 -15 -23 -15 -24 -16 -25 -15 -25 -17 -25 -16 -26 -16 -26 -17 -25 -16 -26 -17 -26 -16 -25 -16 -25 -16 -24 -16 -24 -15 -24 -15 -22 -14 -22 -14 -21 -13 -19 -12 -19 -12 -17 -11 -16 -10 -14 17 -12 10 15 11 16 11 17 13 19 13 19 14 21 14 22 15 22 15 24 16 24 16 24 16 25 16 26 17 25 16 26 17 26 16 25 16 26 16 25 16 25 16 25 15 24 15 23 14 23 13 22 13 21 13 20 11 18 11 18 10 16 8 14 8 14 0 -1zm-17 11l0 0 0 0 0 0zm11 -5l17 -10 0 0 1 2 1 3 0 2 -1 3 -1 1 -1 2 -1 0 0 1 -1 1 -1 1 -1 0 0 1 -1 0 -1 1 -1 0 -1 0 0 1 -1 0 -1 0 -1 1 -1 0 -1 0 -1 0 -1 0 -1 0 -1 0 -1 0 -2 0 -1 -1 -2 -1 -2 -1 -2 -2 17 -11 -1 -1 -2 -1 -1 -1 -1 0 -1 -1 0 0 -1 0 0 0 0 0 0 0 0 0 0 0 1 0 0 0 0 0 0 0 0 0 1 0 0 0 0 0 0 -1 0 0 0 1 0 0 0 0 0 0 -1 1 0 1 -1 2 0 1 0 3 1 2 0 0zm0 0l0 0 1 2 -1 -2zm-428 -739l17 -10 0 0 12 22 12 22 13 23 13 23 13 24 14 24 14 24 14 25 14 25 15 25 14 25 15 26 15 25 14 25 15 26 15 25 15 25 14 25 15 25 14 24 14 24 14 24 14 23 13 22 14 22 12 22 13 21 12 20 11 19 11 19 10 18 10 17 -17 10 -10 -17 -10 -18 -11 -18 -12 -20 -12 -20 -12 -21 -13 -21 -13 -22 -13 -23 -14 -23 -14 -24 -14 -24 -14 -24 -15 -25 -14 -25 -15 -25 -15 -25 -15 -26 -15 -25 -14 -25 -15 -26 -15 -25 -14 -25 -15 -25 -14 -25 -14 -24 -13 -24 -13 -24 -13 -23 -13 -23 -12 -22 -12 -22 0 0zm17 -10l0 0 0 0 0 0zm-12 -19l16 12 0 0 0 0 0 1 -1 0 0 0 0 1 0 0 -1 0 0 1 0 0 0 1 0 0 -1 0 0 1 0 0 0 0 0 1 0 0 0 0 0 1 0 0 0 0 0 1 0 0 0 0 0 0 0 0 0 0 0 0 0 0 -1 0 0 0 0 -1 -17 10 -1 -1 0 -1 -1 -1 0 -2 0 -1 0 -1 0 -1 0 -1 0 -1 0 -1 0 -1 0 -1 0 -1 0 -1 1 -1 0 -1 0 -1 0 -1 1 -1 0 0 0 -1 1 -1 0 -1 1 -1 0 0 0 -1 1 -1 0 -1 1 0 0 -1 1 -1 0 0 0 0zm16 12l0 0 0 0 0 0zm672 -473l4 19 0 0 -34 8 -32 8 -31 9 -30 9 -29 10 -28 10 -27 11 -27 12 -25 12 -25 13 -23 13 -23 13 -23 14 -21 14 -21 15 -20 15 -20 15 -19 16 -18 16 -18 16 -17 16 -17 17 -16 16 -16 17 -16 17 -15 18 -15 17 -14 17 -15 18 -14 17 -13 18 -14 17 -16 -12 14 -18 14 -17 14 -18 14 -18 15 -17 15 -18 16 -17 15 -17 16 -17 17 -17 17 -17 18 -17 18 -16 19 -17 19 -15 20 -16 20 -15 22 -15 22 -15 22 -14 24 -14 24 -13 25 -13 26 -12 27 -12 27 -11 29 -11 30 -10 30 -10 32 -8 33 -9 34 -7 0 0zm797 196l-11 16 0 0 -21 -14 -22 -14 -23 -13 -23 -13 -24 -12 -24 -12 -25 -11 -25 -11 -26 -11 -26 -10 -26 -9 -26 -9 -27 -9 -26 -8 -27 -7 -27 -7 -26 -6 -27 -5 -26 -5 -26 -5 -26 -4 -26 -3 -25 -2 -25 -2 -24 -1 -24 -1 -23 0 -23 1 -22 2 -21 2 -21 3 -19 3 -4 -19 20 -4 21 -3 22 -2 23 -2 23 -1 24 0 24 1 25 1 26 2 25 2 26 4 27 3 26 5 27 5 27 6 27 6 27 7 27 7 27 8 27 9 27 9 26 9 26 11 26 10 26 11 25 12 25 12 24 13 24 13 23 13 22 14 22 14 0 1zm0 -1l0 1 0 0 0 -1zm4 31l-18 -8 0 0 0 -1 0 -1 1 0 0 -1 0 -1 1 0 0 -1 0 0 0 -1 0 0 0 0 0 -1 0 0 1 0 0 0 0 0 0 0 0 0 0 0 0 0 0 0 0 0 0 0 0 1 0 0 0 0 0 0 0 0 0 0 0 0 0 0 0 0 11 -16 1 0 1 1 1 1 1 1 1 1 1 1 0 1 1 1 0 1 1 2 0 1 0 1 1 1 0 1 0 2 -1 1 0 1 0 1 0 1 0 0 -1 1 0 1 0 1 0 1 -1 1 0 0 0 1 0 1 -1 0 0 1 0 1 -1 0 0 1zm0 -1l0 1 0 0 0 -1zm-462 1049l-18 -8 0 0 10 -23 11 -24 12 -26 12 -27 13 -29 13 -30 14 -31 15 -33 15 -33 15 -34 16 -35 15 -36 16 -36 17 -37 16 -37 16 -37 17 -38 16 -37 17 -38 16 -37 16 -37 16 -36 16 -36 15 -35 15 -35 15 -33 14 -33 14 -32 13 -30 13 -29 12 -28 11 -26 18 8 -11 26 -12 28 -13 29 -13 30 -14 32 -14 33 -14 33 -15 35 -16 35 -16 36 -15 36 -17 37 -16 37 -16 38 -17 37 -16 38 -17 37 -16 37 -16 37 -16 36 -16 36 -16 35 -15 34 -15 34 -14 32 -14 31 -14 30 -13 29 -12 28 -12 25 -11 25 -10 22 0 0zm-9 -3l18 8 0 0 -1 2 -2 2 -1 1 -2 1 -2 1 -1 0 -2 0 -1 0 -1 0 -2 0 -1 0 -1 -1 -1 0 0 -1 -1 0 -1 0 -1 -1 -1 0 0 -1 -1 -1 -1 0 -1 -1 0 -1 -1 -1 -1 -1 0 -1 -1 -1 0 -2 0 -1 0 -2 0 -2 1 -2 18 8 0 -1 1 -2 0 -1 -1 -1 0 -1 0 0 0 -1 0 0 -1 0 0 -1 0 0 0 0 0 0 0 0 0 0 0 0 0 0 0 0 0 0 0 0 0 0 0 0 -1 0 0 0 -1 0 0 0 -1 0 -1 1 -2 1 -1 1 -1 1 0 1 0 0zm0 0l0 0 0 -1 0 1zm470 -1035l19 8 0 0 -12 25 -12 27 -12 29 -13 30 -14 31 -15 32 -15 33 -15 34 -16 35 -16 36 -16 36 -17 36 -17 37 -16 37 -17 37 -17 37 -17 37 -17 37 -17 36 -16 36 -17 35 -16 35 -15 34 -15 33 -15 32 -14 31 -14 30 -13 29 -13 27 -11 25 -11 24 -10 22 -18 -8 10 -22 11 -24 11 -26 13 -27 13 -28 13 -30 15 -31 14 -32 16 -33 15 -34 16 -35 17 -35 16 -36 17 -37 17 -36 16 -37 17 -37 17 -38 17 -37 17 -36 17 -37 16 -36 16 -35 16 -35 15 -34 15 -33 14 -32 14 -31 14 -30 12 -29 12 -27 11 -25 0 0zm0 0l0 0 0 0 0 0zm30 -9l-11 17 0 0 -1 -1 0 0 -1 0 0 0 0 -1 -1 0 0 0 0 0 0 0 0 0 0 0 0 0 1 0 0 0 0 0 1 0 0 0 1 0 0 0 1 -1 0 0 0 0 0 0 0 0 0 0 0 0 0 0 0 1 -1 0 0 1 0 0 0 1 -19 -8 1 -1 0 -1 1 -1 0 -1 1 -1 0 -1 1 -1 1 -1 1 -1 0 -1 1 0 1 -1 1 -1 2 0 1 -1 1 0 2 -1 1 0 1 0 2 0 1 1 1 0 1 0 1 0 1 1 1 0 1 1 1 0 0 1 1 0 1 1 1 0 0 0zm0 0l0 0 0 0 0 0zm222 794l-20 1 0 0 -1 -20 -1 -22 -1 -22 -2 -24 -1 -25 -3 -26 -2 -27 -3 -27 -3 -28 -3 -29 -4 -29 -4 -29 -5 -29 -5 -30 -5 -29 -6 -29 -6 -29 -7 -29 -7 -28 -8 -27 -8 -27 -9 -26 -10 -25 -9 -23 -11 -23 -11 -21 -12 -20 -12 -19 -13 -17 -13 -15 -14 -13 -14 -11 11 -17 16 13 15 14 15 17 13 18 13 19 13 21 11 22 11 24 10 24 10 26 9 26 8 27 8 28 8 29 6 29 7 29 6 29 5 30 5 30 5 29 4 30 4 29 3 29 3 28 3 27 2 27 2 26 2 25 2 24 1 23 1 22 1 20 0 0zm-13 882l-20 0 0 0 0 -31 0 -32 1 -31 0 -32 0 -31 1 -31 1 -31 0 -31 1 -31 1 -30 1 -30 0 -30 1 -30 1 -29 1 -29 1 -28 0 -29 1 -28 1 -27 0 -27 1 -27 0 -26 1 -25 0 -25 0 -25 0 -24 0 -24 0 -22 0 -23 0 -21 -1 -21 0 -20 20 -1 0 20 1 21 0 22 0 23 0 22 0 24 0 24 0 25 0 25 -1 26 0 26 -1 26 0 27 -1 28 -1 28 0 28 -1 29 -1 29 -1 29 -1 29 0 30 -1 30 -1 31 -1 30 0 31 -1 31 -1 31 0 31 0 32 -1 31 0 32 0 31 0 0zm0 1949l-20 0 0 0 0 -42 0 -44 0 -46 0 -48 0 -50 0 -51 0 -53 0 -55 0 -57 0 -57 0 -59 0 -61 0 -61 -1 -63 0 -63 0 -64 0 -65 0 -66 0 -66 0 -67 0 -68 0 -67 0 -68 0 -68 0 -68 0 -68 0 -68 0 -68 0 -68 0 -67 0 -67 1 -66 20 0 -1 66 0 67 0 67 0 68 0 68 0 68 0 68 0 68 0 68 0 68 0 67 0 68 0 67 0 66 0 66 0 65 0 64 0 63 1 63 0 61 0 61 0 59 0 57 0 57 0 54 0 54 0 51 0 50 0 48 0 46 0 44 0 42 0 0zm-66 404l-18 -8 0 0 3 -8 4 -10 3 -10 3 -10 3 -11 3 -12 3 -12 3 -12 3 -13 3 -13 3 -14 2 -13 3 -14 2 -14 3 -15 2 -14 2 -14 2 -14 2 -14 2 -14 1 -14 2 -14 1 -13 1 -14 2 -13 1 -12 0 -12 1 -12 1 -11 0 -11 0 -10 0 -9 20 0 0 10 0 10 0 11 -1 11 -1 12 -1 12 -1 13 -1 13 -1 14 -1 13 -2 14 -2 14 -1 14 -2 15 -2 14 -2 14 -3 15 -2 14 -2 14 -3 14 -3 14 -2 14 -3 13 -3 13 -3 13 -3 12 -3 12 -4 12 -3 11 -3 10 -4 10 -4 9 0 0zm0 0l0 0 -2 5 2 -5zm-79 113l-10 -17 0 0 2 -2 3 -1 3 -2 2 -3 3 -2 3 -3 2 -3 3 -3 3 -3 2 -3 3 -4 3 -3 2 -4 3 -4 2 -4 3 -3 2 -4 2 -4 3 -4 2 -4 2 -4 2 -3 2 -4 2 -4 2 -4 2 -3 1 -4 2 -3 1 -3 2 -3 1 -3 1 -3 18 8 -1 3 -1 3 -2 3 -1 4 -2 3 -1 4 -2 3 -2 4 -2 4 -2 4 -3 4 -2 4 -2 4 -3 4 -2 4 -3 4 -2 4 -3 4 -2 4 -3 4 -3 4 -3 4 -3 4 -3 3 -3 4 -3 3 -3 3 -3 3 -4 3 -3 3 -3 2 -4 2 0 0zm0 0l0 0 0 0 0 0zm-28 -5l18 -10 0 0 0 1 0 0 0 0 0 0 0 0 0 0 0 0 0 -1 -1 0 0 0 0 0 -1 0 0 0 0 0 -1 0 0 0 0 0 0 0 0 0 0 0 0 0 0 0 0 0 0 0 1 -1 0 0 0 0 0 0 1 0 0 0 1 -1 0 0 10 17 0 1 -1 0 0 0 -1 0 0 1 -1 0 0 0 -1 1 -1 0 0 0 -1 1 -1 0 -1 0 -1 0 -1 1 -1 0 -1 0 -1 0 -2 0 -1 -1 -1 0 -1 0 -2 -1 -1 -1 -1 0 -1 -1 -1 -1 -1 -1 0 -1 -1 -1 -1 -1 -1 -1 0 0zm18 -10l0 0 0 1 0 -1zm-501 -864l17 -10 0 0 9 16 10 18 10 20 12 22 13 24 14 25 14 26 15 27 16 29 16 30 17 30 17 31 18 32 18 33 18 32 18 33 18 33 18 33 19 32 18 33 17 31 18 32 17 30 16 30 16 29 16 28 15 26 14 25 13 24 12 22 12 20 10 18 -18 10 -10 -18 -11 -21 -13 -22 -13 -23 -14 -25 -15 -27 -15 -27 -16 -29 -17 -30 -17 -30 -17 -32 -18 -32 -18 -32 -18 -33 -18 -32 -19 -33 -18 -33 -18 -33 -18 -32 -17 -32 -17 -31 -17 -31 -17 -29 -15 -29 -15 -27 -15 -27 -13 -25 -13 -23 -12 -22 -11 -20 -10 -18 -8 -16 0 0zm0 0l0 0 -1 -1 1 1zm9 -4l-18 9 0 0 -1 -2 0 -2 0 -3 0 -1 1 -2 1 -1 0 -1 1 -1 0 -1 1 0 1 -1 0 0 1 -1 1 -1 0 0 1 0 1 -1 0 0 1 -1 1 0 1 0 0 -1 1 0 1 0 1 0 2 -1 1 0 2 1 2 0 2 1 2 2 1 2 -17 10 1 1 1 2 2 1 2 0 1 0 1 0 0 0 1 0 0 0 0 0 0 0 0 0 0 0 0 0 0 0 0 0 0 0 -1 1 0 0 0 0 0 0 0 0 0 0 1 -1 0 0 0 0 0 -1 1 -1 0 -1 0 -2 0 -2 -1 -2 0 1zm0 -1l0 1 0 0 0 -1zm471 881l-18 10 0 0 -11 -20 -12 -21 -12 -22 -13 -24 -13 -24 -13 -25 -14 -26 -15 -27 -14 -27 -15 -28 -15 -29 -16 -29 -15 -29 -16 -30 -16 -30 -16 -30 -16 -31 -16 -30 -16 -31 -16 -30 -16 -31 -16 -30 -16 -30 -16 -29 -15 -30 -16 -28 -15 -29 -15 -27 -14 -27 -14 -27 -14 -25 -14 -25 18 -9 13 24 14 26 15 26 14 27 15 28 15 28 15 29 16 29 16 30 15 30 16 30 16 30 16 31 17 30 16 31 16 30 16 30 16 31 15 29 16 30 15 29 15 28 15 28 15 28 14 26 14 26 14 25 13 25 13 23 12 22 12 21 11 20 0 0zm0 28l-17 -11 0 0 0 0 0 0 0 0 0 0 0 -1 1 0 0 0 0 0 0 0 0 0 0 -1 0 0 0 0 0 0 0 -1 0 0 0 0 0 0 0 0 0 -1 0 0 0 0 -1 0 0 -1 0 0 0 0 0 -1 0 0 0 0 0 0 0 -1 -1 0 18 -10 0 1 1 1 0 1 0 0 1 1 0 1 0 1 1 0 0 1 0 1 0 1 0 1 0 1 1 1 0 0 0 1 0 1 0 1 0 1 0 1 0 1 -1 1 0 1 0 1 0 1 0 1 -1 0 0 1 -1 1 0 1 0 1 -1 1 0 0zm0 0l0 0 0 0 0 0zm-567 299l-5 -20 0 0 14 -3 16 -4 16 -5 16 -5 18 -5 18 -5 18 -6 19 -6 19 -6 19 -6 20 -7 20 -8 20 -7 20 -8 20 -9 20 -9 20 -9 20 -9 19 -10 19 -10 19 -11 18 -11 18 -11 18 -12 16 -12 16 -13 16 -13 14 -13 14 -14 13 -14 11 -14 11 -15 17 11 -12 16 -12 15 -14 15 -14 15 -15 13 -16 14 -17 13 -17 12 -18 13 -18 11 -19 11 -19 11 -20 11 -20 10 -20 9 -20 10 -20 9 -20 8 -21 8 -20 8 -20 7 -20 7 -20 7 -19 6 -19 7 -19 5 -18 6 -17 5 -17 4 -16 5 -16 4 -14 4 0 0zm-263 8l4 -20 0 0 5 1 7 1 6 1 7 1 8 0 7 1 8 1 9 0 8 0 8 1 9 0 9 0 9 0 9 0 9 0 9 0 9 -1 9 0 9 -1 9 0 9 -1 8 0 9 -1 8 -1 8 -1 8 -1 8 -1 7 -1 7 -1 7 -2 6 -1 6 -2 5 20 -7 1 -6 2 -7 1 -8 2 -7 1 -8 1 -8 1 -9 1 -8 1 -9 1 -9 0 -9 1 -9 0 -9 1 -9 0 -9 1 -10 0 -9 0 -9 0 -9 0 -9 0 -9 0 -9 -1 -8 0 -9 -1 -8 0 -8 -1 -8 -1 -7 0 -7 -1 -7 -1 -6 -1 0 0zm4 -20l0 0 1 0 -1 0zm-629 -327l16 -13 0 0 12 14 12 14 13 13 14 14 14 14 15 13 15 13 16 14 16 13 17 12 18 13 18 13 18 12 19 12 19 12 19 11 21 11 20 11 21 11 21 10 21 10 22 9 22 9 22 9 23 8 23 8 23 7 23 7 24 7 24 6 23 5 25 5 -4 20 -25 -5 -24 -6 -24 -6 -24 -7 -24 -7 -23 -7 -24 -8 -23 -8 -22 -9 -23 -10 -22 -9 -22 -10 -21 -11 -21 -10 -21 -11 -20 -12 -20 -11 -20 -12 -19 -12 -19 -13 -18 -13 -18 -12 -17 -14 -17 -13 -16 -13 -16 -14 -15 -14 -14 -14 -14 -14 -14 -14 -12 -14 -12 -14 -1 0zm1 0l-1 0 0 -1 1 1zm-1 -28l17 10 0 0 0 1 0 0 -1 1 0 0 0 0 0 1 0 0 0 0 -1 1 0 0 0 0 0 0 0 0 0 0 0 0 0 0 0 0 0 0 0 0 0 0 0 0 0 0 0 0 0 0 0 0 0 0 0 0 0 0 1 1 0 0 0 0 0 0 -16 13 0 -1 -1 -1 0 -1 -1 -1 0 0 -1 -1 0 -1 -1 -1 0 -1 0 -1 0 -1 -1 -1 0 -2 0 0 0 -1 0 -1 0 -2 1 0 0 -1 0 -1 0 -1 1 -1 0 -1 0 -1 1 0 0 -1 0 -1 1 -1 0 0 0 -1 1 -1 0 0 0 0zm17 10l0 0 0 1 0 -1zm433 -688l17 11 0 0 -11 17 -12 18 -13 19 -13 19 -13 20 -14 21 -15 22 -14 22 -15 22 -16 23 -15 23 -16 23 -16 24 -16 24 -16 24 -16 23 -16 24 -16 24 -16 23 -16 24 -15 23 -15 22 -15 23 -14 21 -14 21 -13 21 -13 20 -13 19 -12 19 -11 17 -10 17 -10 15 -17 -10 10 -16 10 -17 12 -17 11 -19 13 -19 13 -20 13 -20 14 -22 15 -21 14 -23 15 -22 16 -23 15 -24 16 -23 16 -24 16 -24 16 -24 16 -23 16 -24 16 -24 16 -23 16 -23 15 -23 15 -23 15 -22 14 -21 14 -21 14 -20 13 -20 12 -18 12 -18 11 -17 0 0zm17 11l0 0 0 0 0 0zm-9 -7l-17 -11 0 0 1 -2 2 -1 1 -1 2 -1 2 0 1 -1 2 0 2 0 1 0 1 1 1 0 1 0 1 1 1 0 1 1 1 1 1 0 1 1 1 1 0 1 1 1 1 1 0 1 1 1 1 1 0 2 0 1 0 2 0 2 0 1 -1 2 -1 2 -17 -11 0 1 0 1 -1 1 0 0 0 1 0 1 1 0 0 1 0 0 0 0 0 1 0 0 0 0 0 0 0 0 0 0 0 0 0 0 0 0 0 0 1 0 0 0 0 0 1 0 0 0 1 0 1 0 1 0 1 -1 0 0 1 -1 1 -1 0 0zm0 0l0 0 1 -1 -1 1zm-465 651l-16 -11 0 0 11 -15 11 -16 13 -17 13 -18 14 -19 14 -20 16 -21 15 -22 16 -22 17 -23 17 -24 17 -23 17 -24 18 -25 17 -24 17 -24 18 -25 17 -24 17 -24 16 -23 17 -23 16 -22 15 -22 15 -21 14 -20 13 -20 13 -18 12 -17 11 -16 10 -14 9 -13 8 -12 17 11 -8 12 -9 13 -10 15 -11 16 -12 17 -13 18 -14 19 -14 20 -15 21 -15 22 -16 23 -16 23 -17 23 -17 24 -17 24 -17 24 -18 25 -17 24 -18 24 -17 24 -17 24 -17 23 -16 23 -16 23 -16 22 -15 21 -15 20 -14 19 -13 18 -13 17 -11 16 -11 15 0 -1zm-16 -11l0 0 0 -1 0 1zm-16 13l16 -13 0 1 0 -1 -1 0 0 0 0 0 0 0 0 -1 -1 0 0 0 0 0 0 0 1 0 0 0 0 0 0 0 0 0 0 0 0 0 0 0 1 0 0 0 0 0 0 0 0 0 0 0 0 0 0 0 0 0 0 0 0 0 0 0 0 1 0 0 16 11 -1 1 -1 1 -1 1 -1 1 -1 1 0 0 -1 1 -1 0 -1 1 -1 0 -1 0 -1 1 -1 0 -1 0 -1 0 -1 0 -1 0 -1 0 -2 0 -1 0 -1 0 -1 0 -1 0 -1 -1 -1 0 -1 -1 -1 0 -1 -1 -1 -1 -1 0 -1 -1 -1 -2 0 1zm16 -13l0 1 0 0 0 -1zm-174 -433l20 -1 0 0 1 15 2 16 2 16 2 16 3 15 3 16 3 16 3 15 4 16 4 15 4 16 4 15 5 15 5 15 5 14 5 15 5 14 6 14 6 14 6 13 6 13 6 13 6 13 6 12 6 12 7 11 6 11 7 11 6 10 7 9 6 10 7 8 -16 13 -7 -10 -7 -9 -7 -10 -6 -11 -7 -11 -7 -11 -6 -12 -7 -12 -6 -12 -6 -13 -7 -13 -6 -14 -6 -14 -6 -14 -5 -14 -6 -14 -5 -15 -5 -15 -5 -15 -5 -16 -4 -15 -5 -16 -4 -15 -3 -16 -4 -16 -3 -16 -3 -16 -3 -16 -2 -17 -2 -16 -2 -16 -1 -16 0 0zm0 0l0 0 0 0 0 0zm4 -78l19 3 0 0 0 1 0 1 0 2 0 2 0 2 -1 2 0 2 0 2 0 3 0 3 -1 2 0 3 0 3 0 3 0 3 0 3 0 2 -1 3 0 3 0 3 0 3 0 3 0 2 0 3 0 2 0 3 0 2 0 2 0 2 0 1 0 2 0 1 -20 1 0 -2 0 -1 0 -2 0 -2 0 -2 0 -3 0 -2 0 -2 0 -3 0 -3 0 -3 0 -2 0 -3 1 -3 0 -3 0 -3 0 -3 0 -3 0 -3 0 -3 0 -3 1 -3 0 -2 0 -3 0 -3 0 -2 1 -2 0 -2 0 -2 0 -2 1 -2 0 -1 0 0zm19 3l0 0 1 -2 -1 2zm53 -379l20 3 0 0 -2 9 -2 10 -1 10 -2 10 -2 11 -2 12 -2 12 -3 12 -2 12 -2 12 -3 13 -2 13 -3 13 -3 13 -2 13 -3 13 -2 14 -3 13 -3 13 -2 13 -3 13 -2 12 -3 13 -2 12 -3 12 -2 12 -2 11 -2 11 -2 10 -2 10 -2 10 -2 9 -19 -3 1 -10 2 -9 2 -10 2 -11 2 -11 2 -11 3 -12 2 -12 2 -12 3 -13 3 -12 2 -13 3 -13 2 -13 3 -13 3 -14 2 -13 3 -13 2 -13 3 -13 3 -13 2 -12 2 -13 3 -12 2 -12 2 -12 2 -11 2 -11 2 -11 2 -10 1 -9 2 -9 0 0zm19 -183l20 0 0 0 0 5 0 5 -1 6 0 5 0 5 0 6 -1 5 0 5 0 6 -1 5 0 6 -1 6 0 5 -1 6 0 6 -1 5 -1 6 0 6 -1 6 -1 6 -1 6 0 6 -1 6 -1 6 -1 6 -1 6 -1 7 -1 6 -1 6 0 7 -1 6 -1 7 -20 -3 1 -7 1 -6 1 -7 1 -6 1 -6 0 -6 1 -7 1 -6 1 -6 1 -6 1 -6 0 -6 1 -6 1 -5 1 -6 0 -6 1 -6 0 -5 1 -6 0 -5 1 -6 0 -5 1 -6 0 -5 0 -5 1 -5 0 -6 0 -5 0 -5 1 -5 0 -5 0 -5 0 0zm-12 -1682l20 0 0 0 0 40 0 43 0 45 1 47 0 49 0 51 1 53 0 53 1 55 0 57 1 57 0 57 1 59 1 59 0 59 1 59 1 60 0 59 1 59 0 58 1 58 0 57 1 56 0 54 1 54 0 52 0 50 0 49 0 46 0 45 0 42 0 40 -20 0 0 -40 0 -42 0 -45 0 -46 0 -49 0 -50 0 -52 -1 -54 0 -54 -1 -56 0 -57 -1 -58 0 -58 -1 -59 0 -59 -1 -59 -1 -60 0 -59 -1 -59 -1 -58 0 -58 -1 -57 0 -56 -1 -55 0 -54 -1 -53 0 -50 0 -50 -1 -47 0 -45 0 -43 0 -40 0 0zm-33 -207l20 -5 0 0 2 6 1 7 2 7 2 7 2 7 1 6 2 7 1 7 2 7 1 7 2 6 1 7 1 7 2 7 1 7 1 6 1 7 1 7 1 6 1 7 1 7 1 6 0 7 1 6 0 7 1 6 0 6 1 7 0 6 0 6 0 6 0 7 -20 0 0 -6 0 -6 0 -6 0 -6 -1 -6 0 -7 0 -6 -1 -6 -1 -6 0 -7 -1 -6 -1 -6 -1 -7 -1 -6 -1 -7 -1 -6 -1 -7 -1 -7 -1 -6 -1 -7 -2 -7 -1 -6 -2 -7 -1 -7 -2 -6 -1 -7 -2 -7 -1 -6 -2 -7 -2 -7 -2 -6 -2 -7 0 0zm-70 -366l20 1 0 0 0 15 0 15 0 15 1 14 1 14 1 14 1 13 1 13 2 13 2 12 2 12 2 12 3 12 2 11 3 11 2 11 3 10 3 11 3 10 3 10 3 10 3 10 3 9 3 10 3 9 3 9 3 9 3 10 3 9 2 9 3 9 3 9 -20 5 -2 -9 -3 -9 -2 -8 -3 -9 -3 -9 -3 -10 -3 -9 -3 -9 -3 -10 -3 -9 -3 -10 -3 -10 -3 -11 -3 -10 -3 -11 -3 -10 -3 -11 -2 -12 -3 -11 -2 -12 -3 -12 -2 -12 -2 -13 -1 -13 -2 -13 -1 -14 -1 -14 -1 -15 -1 -14 0 -15 0 -16 0 -16 0 0zm80 -429l18 8 0 0 -5 11 -5 11 -5 12 -5 12 -4 13 -4 13 -4 13 -4 14 -4 14 -3 14 -4 14 -3 15 -3 15 -2 14 -3 15 -2 15 -2 15 -2 15 -2 14 -2 15 -1 14 -2 14 -1 14 -1 13 -1 14 -1 12 -1 13 -1 12 0 11 -1 11 0 10 0 10 -20 -1 0 -10 0 -10 1 -11 0 -12 1 -12 1 -12 1 -13 1 -13 1 -14 1 -14 2 -14 1 -14 2 -15 2 -15 2 -15 2 -15 2 -15 3 -15 3 -15 3 -15 3 -15 3 -15 4 -14 3 -15 4 -14 4 -13 5 -14 4 -13 5 -13 5 -12 6 -12 5 -11 0 1zm18 8l0 0 0 0 0 0zm-2 -81l18 -8 1 2 1 2 0 2 1 2 0 2 0 2 1 3 0 2 0 2 0 3 0 2 -1 3 0 2 0 3 -1 2 0 3 -1 3 0 3 -1 3 -1 3 -1 3 -1 3 -1 3 -1 3 -1 3 -1 3 -1 4 -2 3 -1 4 -1 3 -2 4 -2 4 -18 -8 2 -4 1 -3 1 -4 2 -3 1 -3 1 -3 1 -3 1 -3 1 -3 1 -3 1 -3 1 -3 1 -2 0 -3 1 -2 0 -3 1 -2 0 -2 0 -2 0 -2 1 -2 0 -2 0 -2 0 -1 0 -2 0 -1 -1 -2 0 -1 0 -1 0 -1 -1 -1 0 -1z"/>
  </g>
 </g>
</svg>
