<?xml version="1.0" encoding="UTF-8"?>
<!DOCTYPE svg PUBLIC "-//W3C//DTD SVG 1.1//EN" "http://www.w3.org/Graphics/SVG/1.1/DTD/svg11.dtd">
<!-- Creator: CorelDRAW X8 -->
<svg xmlns="http://www.w3.org/2000/svg" xml:space="preserve" width="40mm" height="60mm" version="1.1" style="shape-rendering:geometricPrecision; text-rendering:geometricPrecision; image-rendering:optimizeQuality; fill-rule:evenodd; clip-rule:evenodd"
viewBox="0 0 4000 6000"
 xmlns:xlink="http://www.w3.org/1999/xlink">
 <defs>
  <style type="text/css">
   <![CDATA[
    .str0 {stroke:black;stroke-width:7.62}
    .fil0 {fill:none}
   ]]>
  </style>
 </defs>
 <g id="图层_x0020_1">
  <metadata id="CorelCorpID_0Corel-Layer"/>
  <path class="fil0 str0" d="M993 5350l1851 0c114,0 192,-93 192,-208l0 -4284c0,-115 -78,-208 -192,-208l-631 1c-11,0 -81,0 -116,0 -24,0 -33,7 -33,28l0 27c0,37 -30,67 -66,67l0 0c-37,0 -67,-30 -67,-67l0 -25c0,-21 -12,-30 -30,-30 -57,0 -91,-1 -118,-1l-612 0c-114,0 -207,93 -207,208l0 4284c0,115 93,208 207,208l246 0"/>
 </g>
</svg>
