<?xml version="1.0" encoding="UTF-8"?>
<!DOCTYPE svg PUBLIC "-//W3C//DTD SVG 1.1//EN" "http://www.w3.org/Graphics/SVG/1.1/DTD/svg11.dtd">
<!-- Creator: CorelDRAW X8 -->
<svg xmlns="http://www.w3.org/2000/svg" xml:space="preserve" width="40mm" height="60mm" version="1.1" style="shape-rendering:geometricPrecision; text-rendering:geometricPrecision; image-rendering:optimizeQuality; fill-rule:evenodd; clip-rule:evenodd"
viewBox="0 0 4000 6000"
 xmlns:xlink="http://www.w3.org/1999/xlink">
 <defs>
  <style type="text/css">
   <![CDATA[
    .str0 {stroke:#332C2B;stroke-width:7.62}
    .fil0 {fill:none;fill-rule:nonzero}
   ]]>
  </style>
 </defs>
 <g id="Layer_x0020_1">
  <metadata id="CorelCorpID_0Corel-Layer"/>
  <path class="fil0 str0" d="M1561 675c17,0 30,13 30,30l0 399c0,17 -13,30 -30,30l-222 0c-16,0 -30,-13 -30,-30l0 -399c0,-17 14,-30 30,-30l222 0zm1257 2c17,0 30,14 30,30l0 237c0,16 -13,30 -30,30l-226 0c-17,0 -30,-14 -30,-30l0 -237c0,-16 13,-30 30,-30l226 0zm0 326c17,0 30,13 30,30l0 232c0,16 -13,29 -30,29l-226 0c-17,0 -30,-13 -30,-29l0 -232c0,-17 13,-30 30,-30l226 0zm-2 319c16,0 30,13 30,30l0 234c0,16 -14,30 -30,30l-222 0c-16,0 -30,-14 -30,-30l0 -234c0,-17 14,-30 30,-30l222 0zm0 324c16,0 30,14 30,30l0 231c0,16 -14,30 -30,30l-222 0c-16,0 -30,-14 -30,-30l0 -231c0,-16 14,-30 30,-30l222 0zm1 318c17,0 30,13 30,29l0 316c0,16 -13,29 -30,29l-224 0c-16,0 -30,-13 -30,-29l0 -316c0,-16 14,-29 30,-29l224 0zm-537 378c-17,0 -30,-14 -30,-30l0 -236c0,-16 13,-30 30,-30l222 0c16,0 30,14 30,30l0 236c0,16 -14,30 -30,30l-222 0zm222 23c16,0 30,13 30,30l0 238c0,16 -14,29 -30,29l-222 0c-17,0 -30,-13 -30,-29l0 -238c0,-17 13,-30 30,-30l222 0zm314 1c16,0 30,13 30,29l0 1527c0,16 -14,30 -30,30l-222 0c-16,0 -30,-14 -30,-30l0 -1527c0,-16 14,-29 30,-29l222 0zm-536 1586c-17,0 -30,-14 -30,-30l0 -234c0,-17 13,-30 30,-30l222 0c16,0 30,13 30,30l0 234c0,16 -14,30 -30,30l-222 0zm222 28c16,0 30,13 30,30l0 230c0,17 -14,30 -30,30l-222 0c-17,0 -30,-13 -30,-30l0 -230c0,-17 13,-30 30,-30l222 0zm315 0c17,0 30,13 30,29l0 316c0,16 -13,29 -30,29l-224 0c-16,0 -30,-13 -30,-29l0 -316c0,-16 14,-29 30,-29l224 0zm-1 402c16,0 30,14 30,30l0 233c0,16 -14,29 -30,29l-222 0c-16,0 -30,-13 -30,-29l0 -233c0,-16 14,-30 30,-30l222 0zm0 322c16,0 30,14 30,30l0 233c0,16 -14,29 -30,29l-222 0c-16,0 -30,-13 -30,-29l0 -233c0,-16 14,-30 30,-30l222 0zm3 324c17,0 30,13 30,30l0 234c0,16 -13,30 -30,30l-228 0c-17,0 -30,-14 -30,-30l0 -234c0,-17 13,-30 30,-30l228 0zm-539 294c-17,0 -30,-13 -30,-30l0 -637c0,-16 13,-29 30,-29l222 0c16,0 30,13 30,29l0 637c0,17 -14,30 -30,30l-222 0zm-941 0c-16,0 -30,-14 -30,-30l0 -236c0,-16 14,-30 30,-30l222 0c17,0 30,14 30,30l0 236c0,16 -13,30 -30,30l-222 0zm-158 -1c-17,0 -31,-14 -31,-30l0 -395c0,-17 14,-31 31,-31l66 0c16,0 30,14 30,31l0 395c0,16 -14,30 -30,30l-66 0zm0 -488c-17,0 -31,-13 -31,-30l0 -229c0,-17 14,-30 31,-30l66 0c16,0 30,13 30,30l0 229c0,17 -14,30 -30,30l-66 0zm0 -320c-17,0 -31,-14 -31,-31l0 -228c0,-17 14,-31 31,-31l66 0c16,0 30,14 30,31l0 228c0,17 -14,31 -30,31l-66 0zm0 -324c-17,0 -31,-13 -31,-30l0 -227c0,-17 14,-31 31,-31l66 0c16,0 30,14 30,31l0 227c0,17 -14,30 -30,30l-66 0zm0 -322c-17,0 -31,-14 -31,-30l0 -231c0,-17 14,-30 31,-30l66 0c16,0 30,13 30,30l0 231c0,16 -14,30 -30,30l-66 0zm0 -321c-17,0 -31,-14 -31,-30l0 -232c0,-17 14,-31 31,-31l66 0c16,0 30,14 30,31l0 232c0,16 -14,30 -30,30l-66 0zm0 -321c-17,0 -31,-14 -31,-31l0 -234c0,-16 14,-30 31,-30l66 0c16,0 30,14 30,30l0 234c0,17 -14,31 -30,31l-66 0zm0 -322c-17,0 -31,-14 -31,-30l0 -234c0,-17 14,-31 31,-31l66 0c16,0 30,14 30,31l0 234c0,16 -14,30 -30,30l-66 0zm0 -321c-17,0 -31,-14 -31,-31l0 -234c0,-16 14,-30 31,-30l66 0c16,0 30,14 30,30l0 234c0,17 -14,31 -30,31l-66 0zm0 -324c-17,0 -31,-13 -31,-30l0 -234c0,-17 14,-30 31,-30l66 0c16,0 30,13 30,30l0 234c0,17 -14,30 -30,30l-66 0zm0 -320c-17,0 -31,-13 -31,-30l0 -234c0,-17 14,-30 31,-30l66 0c16,0 30,13 30,30l0 234c0,17 -14,30 -30,30l-66 0zm0 -323c-17,0 -31,-14 -31,-30l0 -232c0,-17 14,-31 31,-31l66 0c16,0 30,14 30,31l0 232c0,16 -14,30 -30,30l-66 0zm380 -456c17,0 30,13 30,29l0 238c0,16 -13,30 -30,30l-222 0c-16,0 -30,-14 -30,-30l0 -238c0,-16 14,-29 30,-29l222 0zm314 -161c17,0 30,13 30,29l0 238c0,16 -13,30 -30,30l-222 0c-16,0 -30,-14 -30,-30l0 -238c0,-16 14,-29 30,-29l222 0zm61 -287c0,-17 14,-30 30,-30l222 0c17,0 30,13 30,30l0 476c0,16 -13,30 -30,30l-222 0c-16,0 -30,-14 -30,-30l0 -476zm-61 -31c17,0 30,14 30,30l0 233c0,16 -13,29 -30,29l-222 0c-16,0 -30,-13 -30,-29l0 -233c0,-16 14,-30 30,-30l222 0zm405 697c-17,0 -30,-14 -30,-30l0 -638c0,-17 13,-30 30,-30l222 0c16,0 30,13 30,30l0 638c0,16 -14,30 -30,30l-222 0zm-62 131c0,17 -13,30 -30,30l-222 0c-16,0 -30,-13 -30,-30l0 -232c0,-17 14,-30 30,-30l222 0c17,0 30,13 30,30l0 232zm62 189c-17,0 -30,-13 -30,-30l0 -234c0,-17 13,-30 30,-30l222 0c16,0 30,13 30,30l0 234c0,17 -14,30 -30,30l-222 0zm-62 132c0,17 -13,30 -30,30l-222 0c-16,0 -30,-13 -30,-30l0 -231c0,-16 14,-29 30,-29l222 0c17,0 30,13 30,29l0 231zm62 190c-17,0 -30,-13 -30,-29l0 -235c0,-16 13,-29 30,-29l222 0c16,0 30,13 30,29l0 235c0,16 -14,29 -30,29l-222 0zm-314 162c-16,0 -30,-13 -30,-29l0 -233c0,-16 14,-30 30,-30l222 0c17,0 30,14 30,30l0 233c0,16 -13,29 -30,29l-222 0zm-405 -375c17,0 30,13 30,29l0 233c0,16 -13,30 -30,30l-222 0c-16,0 -30,-14 -30,-30l0 -233c0,-16 14,-29 30,-29l222 0zm62 -132c0,-16 14,-30 30,-30l222 0c17,0 30,14 30,30l0 236c0,17 -13,30 -30,30l-222 0c-16,0 -30,-13 -30,-30l0 -236zm0 -322c0,-17 14,-30 30,-30l222 0c17,0 30,13 30,30l0 235c0,17 -13,30 -30,30l-222 0c-16,0 -30,-13 -30,-30l0 -235zm-62 129c17,0 30,13 30,30l0 237c0,17 -13,30 -30,30l-222 0c-16,0 -30,-13 -30,-30l0 -237c0,-17 14,-30 30,-30l222 0zm344 748c0,17 -13,30 -30,30l-222 0c-16,0 -30,-13 -30,-30l0 -230c0,-17 14,-30 30,-30l222 0c17,0 30,13 30,30l0 230zm61 272c-16,0 -30,-13 -30,-30l0 -231c0,-16 14,-29 30,-29l222 0c17,0 30,13 30,29l0 231c0,17 -13,30 -30,30l-222 0zm-405 -80l-222 0c-16,0 -30,-13 -30,-30l0 -234c0,-16 14,-30 30,-30l222 0c17,0 30,14 30,30l0 234c0,17 -13,30 -30,30zm344 132c0,17 -13,30 -30,30l-222 0c-16,0 -30,-13 -30,-30l0 -236c0,-16 14,-29 30,-29l222 0c17,0 30,13 30,29l0 236zm313 240c0,16 -13,30 -30,30l-222 0c-16,0 -30,-14 -30,-30l0 -234c0,-17 14,-30 30,-30l222 0c17,0 30,13 30,30l0 234zm62 190c-17,0 -30,-13 -30,-30l0 -234c0,-16 13,-30 30,-30l222 0c16,0 30,14 30,30l0 234c0,17 -14,30 -30,30l-222 0zm-62 132c0,17 -13,30 -30,30l-222 0c-16,0 -30,-13 -30,-30l0 -236c0,-16 14,-29 30,-29l222 0c17,0 30,13 30,29l0 236zm62 194c-17,0 -30,-14 -30,-30l0 -236c0,-16 13,-30 30,-30l222 0c16,0 30,14 30,30l0 236c0,16 -14,30 -30,30l-222 0zm-62 126c0,17 -13,30 -30,30l-222 0c-16,0 -30,-13 -30,-30l0 -232c0,-17 14,-30 30,-30l222 0c17,0 30,13 30,30l0 232zm62 194c-17,0 -30,-13 -30,-29l0 -236c0,-17 13,-30 30,-30l222 0c16,0 30,13 30,30l0 236c0,16 -14,29 -30,29l-222 0zm-314 159c-16,0 -30,-13 -30,-29l0 -233c0,-16 14,-30 30,-30l222 0c17,0 30,14 30,30l0 233c0,16 -13,29 -30,29l-222 0zm-405 -374c17,0 30,14 30,30l0 234c0,17 -13,30 -30,30l-222 0c-16,0 -30,-13 -30,-30l0 -234c0,-16 14,-30 30,-30l222 0zm62 -128c0,-16 14,-30 30,-30l222 0c17,0 30,14 30,30l0 233c0,16 -13,29 -30,29l-222 0c-16,0 -30,-13 -30,-29l0 -233zm-62 -195c17,0 30,13 30,30l0 234c0,16 -13,30 -30,30l-222 0c-16,0 -30,-14 -30,-30l0 -234c0,-17 14,-30 30,-30l222 0zm62 -130c0,-17 14,-30 30,-30l222 0c17,0 30,13 30,30l0 235c0,17 -13,30 -30,30l-222 0c-16,0 -30,-13 -30,-30l0 -235zm-62 -192c17,0 30,13 30,30l0 234c0,16 -13,30 -30,30l-222 0c-16,0 -30,-14 -30,-30l0 -234c0,-17 14,-30 30,-30l222 0zm0 -30l-222 0c-16,0 -30,-13 -30,-29l0 -235c0,-16 14,-29 30,-29l222 0c17,0 30,13 30,29l0 235c0,16 -13,29 -30,29zm62 -101c0,-16 14,-30 30,-30l222 0c17,0 30,14 30,30l0 234c0,17 -13,30 -30,30l-222 0c-16,0 -30,-13 -30,-30l0 -234zm282 1201c0,16 -13,29 -30,29l-222 0c-16,0 -30,-13 -30,-29l0 -233c0,-16 14,-30 30,-30l222 0c17,0 30,14 30,30l0 233zm61 273c-16,0 -30,-14 -30,-30l0 -234c0,-17 14,-30 30,-30l222 0c17,0 30,13 30,30l0 234c0,16 -13,30 -30,30l-222 0zm-405 -83l-222 0c-16,0 -30,-13 -30,-30l0 -229c0,-16 14,-30 30,-30l222 0c17,0 30,14 30,30l0 229c0,17 -13,30 -30,30zm344 135c0,16 -13,29 -30,29l-222 0c-16,0 -30,-13 -30,-29l0 -235c0,-16 14,-29 30,-29l222 0c17,0 30,13 30,29l0 235zm313 240c0,16 -13,30 -30,30l-222 0c-16,0 -30,-14 -30,-30l0 -234c0,-17 14,-30 30,-30l222 0c17,0 30,13 30,30l0 234zm62 191c-17,0 -30,-13 -30,-30l0 -232c0,-17 13,-30 30,-30l222 0c16,0 30,13 30,30l0 232c0,17 -14,30 -30,30l-222 0zm-314 161c-16,0 -30,-13 -30,-29l0 -233c0,-16 14,-30 30,-30l222 0c17,0 30,14 30,30l0 233c0,16 -13,29 -30,29l-222 0zm-405 -372c17,0 30,13 30,30l0 232c0,17 -13,30 -30,30l-222 0c-16,0 -30,-13 -30,-30l0 -232c0,-17 14,-30 30,-30l222 0zm0 -30l-222 0c-16,0 -30,-14 -30,-30l0 -233c0,-16 14,-29 30,-29l222 0c17,0 30,13 30,29l0 233c0,16 -13,30 -30,30zm62 -101c0,-16 14,-29 30,-29l222 0c17,0 30,13 30,29l0 233c0,16 -13,30 -30,30l-222 0c-16,0 -30,-14 -30,-30l0 -233zm282 555c0,16 -13,30 -30,30l-222 0c-16,0 -30,-14 -30,-30l0 -234c0,-17 14,-30 30,-30l222 0c17,0 30,13 30,30l0 234zm30 484l0 -478c0,-17 14,-30 30,-30l224 0c17,0 30,13 30,30l0 478c0,16 -13,29 -30,29l-224 0c-16,0 -30,-13 -30,-29zm-374 -294l-222 0c-16,0 -30,-13 -30,-30l0 -234c0,-16 14,-30 30,-30l222 0c17,0 30,14 30,30l0 234c0,17 -13,30 -30,30zm62 -102c0,-17 14,-30 30,-30l222 0c17,0 30,13 30,30l0 396c0,16 -13,29 -30,29l-222 0c-16,0 -30,-13 -30,-29l0 -396zm-442 -3601c-17,0 -31,-14 -31,-31l0 -234c0,-16 14,-30 31,-30l66 0c16,0 30,14 30,30l0 234c0,17 -14,31 -30,31l-66 0zm0 -324c-17,0 -31,-14 -31,-30l0 -232c0,-17 14,-31 31,-31l66 0c16,0 30,14 30,31l0 232c0,16 -14,30 -30,30l-66 0zm-60 -273l0 4594c0,32 26,58 58,58l1642 0c32,0 58,-26 58,-58l0 -4594c0,-27 -21,-48 -48,-48l-1662 0c-27,0 -48,21 -48,48zm149 243l0 -232c0,-13 -10,-24 -23,-24l-66 0c-13,0 -24,11 -24,24l0 232c0,13 11,23 24,23l66 0c13,0 23,-10 23,-23zm0 323l0 -234c0,-13 -10,-23 -23,-23l-66 0c-13,0 -24,10 -24,23l0 234c0,13 11,24 24,24l66 0c13,0 23,-11 23,-24zm383 4051l222 0c13,0 23,-11 23,-23l0 -396c0,-13 -10,-23 -23,-23l-222 0c-13,0 -23,10 -23,23l0 396c0,12 10,23 23,23zm-69 -581c0,-13 -10,-23 -23,-23l-222 0c-12,0 -23,10 -23,23l0 234c0,13 11,23 23,23l222 0c13,0 23,-10 23,-23l0 -234zm628 558l0 -478c0,-13 -10,-23 -23,-23l-224 0c-13,0 -23,10 -23,23l0 478c0,12 10,23 23,23l224 0c13,0 23,-11 23,-23zm-337 -741l-222 0c-13,0 -23,10 -23,23l0 234c0,12 10,23 23,23l222 0c13,0 23,-11 23,-23l0 -234c0,-13 -10,-23 -23,-23zm-222 -42l222 0c13,0 23,-11 23,-23l0 -233c0,-12 -10,-23 -23,-23l-222 0c-13,0 -23,11 -23,23l0 233c0,12 10,23 23,23zm-69 -418c0,-12 -10,-22 -23,-22l-222 0c-12,0 -23,10 -23,22l0 233c0,13 11,23 23,23l222 0c13,0 23,-10 23,-23l0 -233zm-268 323l0 232c0,13 11,23 23,23l222 0c13,0 23,-10 23,-23l0 -232c0,-13 -10,-23 -23,-23l-222 0c-12,0 -23,10 -23,23zm895 313l0 -233c0,-13 -10,-23 -23,-23l-222 0c-13,0 -23,10 -23,23l0 233c0,12 10,22 23,22l222 0c13,0 23,-10 23,-22zm314 -162l0 -232c0,-13 -10,-23 -23,-23l-222 0c-13,0 -23,10 -23,23l0 232c0,13 10,23 23,23l222 0c13,0 23,-10 23,-23zm-337 -418l-222 0c-13,0 -23,10 -23,23l0 234c0,13 10,23 23,23l222 0c13,0 23,-10 23,-23l0 -234c0,-13 -10,-23 -23,-23zm-313 -241l-222 0c-13,0 -23,11 -23,23l0 235c0,12 10,23 23,23l222 0c13,0 23,-11 23,-23l0 -235c0,-12 -10,-23 -23,-23zm-291 -136c0,-13 -10,-23 -23,-23l-222 0c-12,0 -23,10 -23,23l0 229c0,13 11,23 23,23l222 0c13,0 23,-10 23,-23l0 -229zm627 312l0 -234c0,-13 -10,-23 -23,-23l-222 0c-13,0 -23,10 -23,23l0 234c0,12 10,23 23,23l222 0c13,0 23,-11 23,-23zm-336 -499l-222 0c-13,0 -23,11 -23,23l0 233c0,12 10,23 23,23l222 0c13,0 23,-11 23,-23l0 -233c0,-12 -10,-23 -23,-23zm-222 -688l222 0c13,0 23,-10 23,-23l0 -234c0,-13 -10,-23 -23,-23l-222 0c-13,0 -23,10 -23,23l0 234c0,13 10,23 23,23zm-69 -420c0,-12 -10,-23 -23,-23l-222 0c-12,0 -23,11 -23,23l0 235c0,12 11,23 23,23l222 0c13,0 23,-11 23,-23l0 -235zm-268 324l0 234c0,12 11,23 23,23l222 0c13,0 23,-11 23,-23l0 -234c0,-13 -10,-23 -23,-23l-222 0c-12,0 -23,10 -23,23zm337 420l222 0c13,0 23,-10 23,-23l0 -235c0,-13 -10,-23 -23,-23l-222 0c-13,0 -23,10 -23,23l0 235c0,13 10,23 23,23zm-337 -98l0 234c0,13 11,23 23,23l222 0c13,0 23,-10 23,-23l0 -234c0,-13 -10,-23 -23,-23l-222 0c-12,0 -23,10 -23,23zm337 421l222 0c13,0 23,-11 23,-23l0 -233c0,-12 -10,-23 -23,-23l-222 0c-13,0 -23,11 -23,23l0 233c0,12 10,23 23,23zm-337 -98l0 234c0,13 11,23 23,23l222 0c13,0 23,-10 23,-23l0 -234c0,-13 -10,-23 -23,-23l-222 0c-12,0 -23,10 -23,23zm895 314l0 -232c0,-13 -10,-23 -23,-23l-222 0c-13,0 -23,10 -23,23l0 232c0,13 10,23 23,23l222 0c13,0 23,-10 23,-23zm314 -158l0 -236c0,-13 -10,-23 -23,-23l-222 0c-13,0 -23,10 -23,23l0 236c0,12 10,23 23,23l222 0c13,0 23,-11 23,-23zm-337 -420l-222 0c-13,0 -23,10 -23,23l0 232c0,13 10,23 23,23l222 0c13,0 23,-10 23,-23l0 -232c0,-13 -10,-23 -23,-23zm337 99l0 -236c0,-13 -10,-23 -23,-23l-222 0c-13,0 -23,10 -23,23l0 236c0,13 10,23 23,23l222 0c13,0 23,-10 23,-23zm-337 -423l-222 0c-13,0 -23,11 -23,23l0 236c0,13 10,23 23,23l222 0c13,0 23,-10 23,-23l0 -236c0,-12 -10,-23 -23,-23zm337 97l0 -234c0,-12 -10,-23 -23,-23l-222 0c-13,0 -23,11 -23,23l0 234c0,13 10,23 23,23l222 0c13,0 23,-10 23,-23zm-337 -417l-222 0c-13,0 -23,10 -23,23l0 234c0,13 10,23 23,23l222 0c13,0 23,-10 23,-23l0 -234c0,-13 -10,-23 -23,-23zm-313 -242l-222 0c-13,0 -23,11 -23,23l0 236c0,13 10,23 23,23l222 0c13,0 23,-10 23,-23l0 -236c0,-12 -10,-23 -23,-23zm-314 -160l-222 0c-12,0 -23,10 -23,23l0 234c0,13 11,23 23,23l222 0c13,0 23,-10 23,-23l0 -234c0,-13 -10,-23 -23,-23zm650 337l0 -231c0,-12 -10,-23 -23,-23l-222 0c-13,0 -23,11 -23,23l0 231c0,13 10,23 23,23l222 0c13,0 23,-10 23,-23zm-336 -495l-222 0c-13,0 -23,10 -23,23l0 230c0,13 10,23 23,23l222 0c13,0 23,-10 23,-23l0 -230c0,-13 -10,-23 -23,-23zm-559 -465l0 237c0,13 11,23 23,23l222 0c13,0 23,-10 23,-23l0 -237c0,-13 -10,-23 -23,-23l-222 0c-12,0 -23,10 -23,23zm337 99l222 0c13,0 23,-10 23,-23l0 -235c0,-13 -10,-23 -23,-23l-222 0c-13,0 -23,10 -23,23l0 235c0,13 10,23 23,23zm0 323l222 0c13,0 23,-10 23,-23l0 -236c0,-12 -10,-23 -23,-23l-222 0c-13,0 -23,11 -23,23l0 236c0,13 10,23 23,23zm-337 -98l0 233c0,13 11,23 23,23l222 0c13,0 23,-10 23,-23l0 -233c0,-12 -10,-22 -23,-22l-222 0c-12,0 -23,10 -23,22zm895 317l0 -233c0,-13 -10,-23 -23,-23l-222 0c-13,0 -23,10 -23,23l0 233c0,12 10,23 23,23l222 0c13,0 23,-11 23,-23zm314 -162l0 -235c0,-12 -10,-23 -23,-23l-222 0c-13,0 -23,11 -23,23l0 235c0,12 10,23 23,23l222 0c13,0 23,-11 23,-23zm-337 -414l-222 0c-13,0 -23,10 -23,22l0 231c0,13 10,23 23,23l222 0c13,0 23,-10 23,-23l0 -231c0,-12 -10,-22 -23,-22zm337 91l0 -234c0,-13 -10,-23 -23,-23l-222 0c-13,0 -23,10 -23,23l0 234c0,13 10,23 23,23l222 0c13,0 23,-10 23,-23zm-337 -414l-222 0c-13,0 -23,10 -23,23l0 232c0,13 10,23 23,23l222 0c13,0 23,-10 23,-23l0 -232c0,-13 -10,-23 -23,-23zm337 94l0 -638c0,-13 -10,-23 -23,-23l-222 0c-13,0 -23,10 -23,23l0 638c0,13 10,23 23,23l222 0c13,0 23,-10 23,-23zm-895 -637l0 233c0,12 10,23 23,23l222 0c13,0 23,-11 23,-23l0 -233c0,-13 -10,-23 -23,-23l-222 0c-13,0 -23,10 -23,23zm336 500l222 0c13,0 23,-10 23,-23l0 -476c0,-13 -10,-23 -23,-23l-222 0c-13,0 -23,10 -23,23l0 476c0,13 10,23 23,23zm-336 -183l0 238c0,13 10,23 23,23l222 0c13,0 23,-10 23,-23l0 -238c0,-12 -10,-23 -23,-23l-222 0c-13,0 -23,11 -23,23zm-314 161l0 238c0,13 11,23 23,23l222 0c13,0 23,-10 23,-23l0 -238c0,-12 -10,-23 -23,-23l-222 0c-12,0 -23,11 -23,23zm-46 397l0 -232c0,-13 -10,-24 -23,-24l-66 0c-13,0 -24,11 -24,24l0 232c0,13 11,23 24,23l66 0c13,0 23,-10 23,-23zm0 323l0 -234c0,-13 -10,-24 -23,-24l-66 0c-13,0 -24,11 -24,24l0 234c0,13 11,23 24,23l66 0c13,0 23,-10 23,-23zm0 320l0 -234c0,-13 -10,-23 -23,-23l-66 0c-13,0 -24,10 -24,23l0 234c0,13 11,24 24,24l66 0c13,0 23,-11 23,-24zm0 323l0 -234c0,-13 -10,-23 -23,-23l-66 0c-13,0 -24,10 -24,23l0 234c0,13 11,24 24,24l66 0c13,0 23,-11 23,-24zm0 322l0 -234c0,-13 -10,-24 -23,-24l-66 0c-13,0 -24,11 -24,24l0 234c0,13 11,23 24,23l66 0c13,0 23,-10 23,-23zm0 321l0 -234c0,-13 -10,-23 -23,-23l-66 0c-13,0 -24,10 -24,23l0 234c0,13 11,24 24,24l66 0c13,0 23,-11 23,-24zm0 322l0 -232c0,-13 -10,-24 -23,-24l-66 0c-13,0 -24,11 -24,24l0 232c0,13 11,23 24,23l66 0c13,0 23,-10 23,-23zm0 321l0 -231c0,-13 -10,-24 -23,-24l-66 0c-13,0 -24,11 -24,24l0 231c0,13 11,23 24,23l66 0c13,0 23,-10 23,-23zm0 322l0 -227c0,-13 -10,-24 -23,-24l-66 0c-13,0 -24,11 -24,24l0 227c0,13 11,23 24,23l66 0c13,0 23,-10 23,-23zm0 323l0 -228c0,-13 -10,-24 -23,-24l-66 0c-13,0 -24,11 -24,24l0 228c0,13 11,24 24,24l66 0c13,0 23,-11 23,-24zm0 321l0 -229c0,-13 -10,-23 -23,-23l-66 0c-13,0 -24,10 -24,23l0 229c0,13 11,24 24,24l66 0c13,0 23,-11 23,-24zm0 488l0 -395c0,-13 -10,-24 -23,-24l-66 0c-13,0 -24,11 -24,24l0 395c0,13 11,23 24,23l66 0c13,0 23,-10 23,-23zm314 1l0 -236c0,-13 -10,-23 -23,-23l-222 0c-12,0 -23,10 -23,23l0 236c0,13 11,23 23,23l222 0c13,0 23,-10 23,-23zm941 0l0 -637c0,-12 -10,-23 -23,-23l-222 0c-13,0 -23,11 -23,23l0 637c0,13 10,23 23,23l222 0c13,0 23,-10 23,-23zm43 -234l0 234c0,13 10,23 23,23l228 0c13,0 23,-10 23,-23l0 -234c0,-13 -10,-23 -23,-23l-228 0c-13,0 -23,10 -23,23zm3 -324l0 233c0,12 10,23 23,23l222 0c13,0 23,-11 23,-23l0 -233c0,-13 -10,-23 -23,-23l-222 0c-13,0 -23,10 -23,23zm0 -322l0 233c0,12 10,23 23,23l222 0c13,0 23,-11 23,-23l0 -233c0,-13 -10,-23 -23,-23l-222 0c-13,0 -23,10 -23,23zm-1 -403l0 316c0,12 10,22 23,22l224 0c13,0 23,-10 23,-22l0 -316c0,-12 -10,-22 -23,-22l-224 0c-13,0 -23,10 -23,22zm-313 1l0 230c0,13 10,23 23,23l222 0c13,0 23,-10 23,-23l0 -230c0,-13 -10,-23 -23,-23l-222 0c-13,0 -23,10 -23,23zm268 -88l0 -234c0,-13 -10,-23 -23,-23l-222 0c-13,0 -23,10 -23,23l0 234c0,13 10,23 23,23l222 0c13,0 23,-10 23,-23zm46 -1527l0 1527c0,13 10,23 23,23l222 0c13,0 23,-10 23,-23l0 -1527c0,-12 -10,-23 -23,-23l-222 0c-13,0 -23,11 -23,23zm-314 0l0 238c0,12 10,22 23,22l222 0c13,0 23,-10 23,-22l0 -238c0,-13 -10,-23 -23,-23l-222 0c-13,0 -23,10 -23,23zm268 -83l0 -236c0,-13 -10,-23 -23,-23l-222 0c-13,0 -23,10 -23,23l0 236c0,13 10,23 23,23l222 0c13,0 23,-10 23,-23zm45 -319l0 316c0,12 10,22 23,22l224 0c13,0 23,-10 23,-22l0 -316c0,-12 -10,-22 -23,-22l-224 0c-13,0 -23,10 -23,22zm1 -317l0 231c0,13 10,23 23,23l222 0c13,0 23,-10 23,-23l0 -231c0,-13 -10,-23 -23,-23l-222 0c-13,0 -23,10 -23,23zm0 -324l0 234c0,12 10,23 23,23l222 0c13,0 23,-11 23,-23l0 -234c0,-13 -10,-23 -23,-23l-222 0c-13,0 -23,10 -23,23zm-2 -319l0 232c0,12 10,23 23,23l226 0c13,0 23,-11 23,-23l0 -232c0,-13 -10,-23 -23,-23l-226 0c-13,0 -23,10 -23,23zm0 -326l0 237c0,13 10,23 23,23l226 0c13,0 23,-10 23,-23l0 -237c0,-12 -10,-23 -23,-23l-226 0c-13,0 -23,11 -23,23zm-1253 -2l0 399c0,13 11,23 23,23l222 0c13,0 23,-10 23,-23l0 -399c0,-13 -10,-23 -23,-23l-222 0c-12,0 -23,10 -23,23z"/>
 </g>
</svg>
