<?xml version="1.0" encoding="UTF-8"?>
<!DOCTYPE svg PUBLIC "-//W3C//DTD SVG 1.1//EN" "http://www.w3.org/Graphics/SVG/1.1/DTD/svg11.dtd">
<!-- Creator: CorelDRAW X8 -->
<svg xmlns="http://www.w3.org/2000/svg" xml:space="preserve" width="40mm" height="60mm" version="1.1" style="shape-rendering:geometricPrecision; text-rendering:geometricPrecision; image-rendering:optimizeQuality; fill-rule:evenodd; clip-rule:evenodd"
viewBox="0 0 4000 6000"
 xmlns:xlink="http://www.w3.org/1999/xlink">
 <defs>
  <style type="text/css">
   <![CDATA[
    .str0 {stroke:#332C2B;stroke-width:19.4}
    .fil0 {fill:none;fill-rule:nonzero}
   ]]>
  </style>
 </defs>
 <g id="图层_x0020_1">
  <metadata id="CorelCorpID_0Corel-Layer"/>
  <g id="_2482134709136">
   <g>
    <line class="fil0 str0" x1="3041" y1="652" x2="3041" y2= "682" />
    <line class="fil0 str0" x1="3037" y1="5255" x2="3037" y2= "5264" />
    <path class="fil0 str0" d="M3037 5264c-5,-2 -7,-4 -9,-9 -389,1 -778,1 -1167,1"/>
    <line class="fil0 str0" x1="1861" y1="5256" x2="1190" y2= "5255" />
    <path class="fil0 str0" d="M1190 5255c-111,-3 -188,-64 -220,-173 -3,-9 -3,-12 -4,-61"/>
    <line class="fil0 str0" x1="966" y1="5021" x2="960" y2= "2954" />
    <path class="fil0 str0" d="M960 2954c-1,-689 -1,-1378 2,-2067 3,-79 30,-138 84,-183 57,-48 89,-54 269,-54 125,0 132,1 144,20 4,5 12,10 20,11 20,4 73,4 522,3"/>
    <line class="fil0 str0" x1="2001" y1="684" x2="2501" y2= "682" />
    <path class="fil0 str0" d="M2501 682c34,-2 41,-4 50,-17 0,-1 1,-2 1,-3 10,-11 11,-11 139,-11 150,-1 173,1 214,19 65,28 109,79 131,156 3,10 4,20 4,62"/>
    <line class="fil0 str0" x1="3040" y1="888" x2="3037" y2= "5056" />
    <path class="fil0 str0" d="M3037 5056c0,2 0,4 0,5 0,50 -38,116 -88,152 -39,29 -72,38 -147,43 -4,1 -7,1 -10,1 -66,7 -110,32 -166,93"/>
   </g>
  </g>
 </g>
</svg>
