<?xml version="1.0" encoding="UTF-8"?>
<!DOCTYPE svg PUBLIC "-//W3C//DTD SVG 1.1//EN" "http://www.w3.org/Graphics/SVG/1.1/DTD/svg11.dtd">
<!-- Creator: CorelDRAW X8 -->
<svg xmlns="http://www.w3.org/2000/svg" xml:space="preserve" width="40mm" height="60mm" version="1.1" style="shape-rendering:geometricPrecision; text-rendering:geometricPrecision; image-rendering:optimizeQuality; fill-rule:evenodd; clip-rule:evenodd"
viewBox="0 0 4000 6000"
 xmlns:xlink="http://www.w3.org/1999/xlink">
 <defs>
  <style type="text/css">
   <![CDATA[
    .str0 {stroke:black;stroke-width:7.62}
    .fil1 {fill:none;fill-rule:nonzero}
    .fil0 {fill:#242222;fill-rule:nonzero}
   ]]>
  </style>
 </defs>
 <g id="图层_x0020_1">
  <metadata id="CorelCorpID_0Corel-Layer"/>
  <g>
   <path class="fil0" d="M2000 4653c-192,0 -349,156 -349,348 0,193 157,349 349,349 192,0 349,-156 349,-349 0,-192 -157,-348 -349,-348zm0 6c189,0 343,153 343,342 0,190 -154,343 -343,343 -189,0 -343,-153 -343,-343 0,-189 154,-342 343,-342zm0 -4009c-192,0 -349,156 -349,349 0,191 154,346 345,348l0 -132 -29 0 0 -433 66 0 0 433 -34 0 0 132 1 0c192,0 349,-156 349,-348 0,-193 -157,-349 -349,-349zm0 6c189,0 343,153 343,343 0,187 -151,340 -338,342l0 -120 34 0 0 -445 -78 0 0 445 29 0 0 120c-184,-5 -333,-157 -333,-342 0,-190 154,-343 343,-343zm-1180 691c0,0 0,1 0,1 0,0 0,0 0,0 0,0 -40,185 -69,421 -56,445 -103,1083 -103,1083 362,44 758,88 1182,101 79,2 168,3 262,3 543,0 1260,-33 1260,-33l-64 -799c-5,-74 -48,-381 -61,-454l-44 -263c-167,40 -532,52 -912,52 -82,0 -165,-1 -247,-2 -551,-6 -1204,-110 -1204,-110zm4 6c62,10 680,104 1200,110 86,1 169,2 247,2 454,0 760,-17 907,-51l44 257c13,76 55,381 61,453l63 794c-70,3 -743,33 -1254,33 -99,0 -187,-1 -262,-4 -432,-13 -833,-58 -1176,-100 5,-63 50,-659 102,-1078 25,-194 56,-355 68,-416zm-4 1597c0,0 0,1 0,1 0,0 0,0 0,0 0,0 -40,185 -69,421 -56,445 -103,1082 -103,1082 362,45 758,89 1182,102 79,2 168,3 262,3 543,0 1260,-33 1260,-33l-64 -799c-5,-74 -48,-381 -61,-454l-44 -263c-167,40 -532,52 -912,52 -82,0 -165,-1 -247,-2 -551,-6 -1204,-110 -1204,-110zm4 6c62,10 680,104 1200,110 86,1 169,1 247,1 454,0 760,-16 907,-50l44 257c13,76 55,381 61,453l63 793c-70,4 -743,33 -1254,33 -99,0 -187,-1 -262,-3 -432,-13 -833,-58 -1176,-101 5,-63 50,-658 102,-1077 25,-194 56,-355 68,-416z"/>
   <path id="1" class="fil1 str0" d="M2000 4653c-192,0 -349,156 -349,348 0,193 157,349 349,349 192,0 349,-156 349,-349 0,-192 -157,-348 -349,-348zm0 6c189,0 343,153 343,342 0,190 -154,343 -343,343 -189,0 -343,-153 -343,-343 0,-189 154,-342 343,-342zm0 -4009c-192,0 -349,156 -349,349 0,191 154,346 345,348l0 -132 -29 0 0 -433 66 0 0 433 -34 0 0 132 1 0c192,0 349,-156 349,-348 0,-193 -157,-349 -349,-349zm0 6c189,0 343,153 343,343 0,187 -151,340 -338,342l0 -120 34 0 0 -445 -78 0 0 445 29 0 0 120c-184,-5 -333,-157 -333,-342 0,-190 154,-343 343,-343zm-1180 691c0,0 0,1 0,1 0,0 0,0 0,0 0,0 -40,185 -69,421 -56,445 -103,1083 -103,1083 362,44 758,88 1182,101 79,2 168,3 262,3 543,0 1260,-33 1260,-33l-64 -799c-5,-74 -48,-381 -61,-454l-44 -263c-167,40 -532,52 -912,52 -82,0 -165,-1 -247,-2 -551,-6 -1204,-110 -1204,-110zm4 6c62,10 680,104 1200,110 86,1 169,2 247,2 454,0 760,-17 907,-51l44 257c13,76 55,381 61,453l63 794c-70,3 -743,33 -1254,33 -99,0 -187,-1 -262,-4 -432,-13 -833,-58 -1176,-100 5,-63 50,-659 102,-1078 25,-194 56,-355 68,-416zm-4 1597c0,0 0,1 0,1 0,0 0,0 0,0 0,0 -40,185 -69,421 -56,445 -103,1082 -103,1082 362,45 758,89 1182,102 79,2 168,3 262,3 543,0 1260,-33 1260,-33l-64 -799c-5,-74 -48,-381 -61,-454l-44 -263c-167,40 -532,52 -912,52 -82,0 -165,-1 -247,-2 -551,-6 -1204,-110 -1204,-110zm4 6c62,10 680,104 1200,110 86,1 169,1 247,1 454,0 760,-16 907,-50l44 257c13,76 55,381 61,453l63 793c-70,4 -743,33 -1254,33 -99,0 -187,-1 -262,-3 -432,-13 -833,-58 -1176,-101 5,-63 50,-658 102,-1077 25,-194 56,-355 68,-416z"/>
  </g>
 </g>
</svg>
