<?xml version="1.0" encoding="UTF-8"?>
<!DOCTYPE svg PUBLIC "-//W3C//DTD SVG 1.1//EN" "http://www.w3.org/Graphics/SVG/1.1/DTD/svg11.dtd">
<!-- Creator: CorelDRAW -->
<svg xmlns="http://www.w3.org/2000/svg" xml:space="preserve" width="40mm" height="60mm" style="shape-rendering:geometricPrecision; text-rendering:geometricPrecision; image-rendering:optimizeQuality; fill-rule:evenodd; clip-rule:evenodd"
viewBox="0 0 40 60"
 xmlns:xlink="http://www.w3.org/1999/xlink">
 <defs>
  <style type="text/css">
   <![CDATA[
    .str0 {stroke:#1F1A17;stroke-width:0.194}
    .fil0 {fill:none;fill-rule:nonzero}
   ]]>
  </style>
 </defs>
 <g id="图层_x0020_1">
  <metadata id="CorelCorpID_0Corel-Layer"/>
  <path class="fil0 str0" d="M32.5459 11.0583c0,12.3517 -0.4538,24.8939 -0.1367,37.2168m-24.8429 -21.0215c-0.0748,-2.6685 -0.1122,-4.9915 -0.1122,-6.9692 0,-4.8117 0.1439,-7.6529 0.4347,-8.6158 0.4165,-1.3916 1.1369,-3.1576 2.3374,-3.961 1.4581,-0.9773 3.2126,-1.2076 9.1787,-1.2076 0.105,0 0.2101,0 0.3166,0m-11.5348 42.784l-0.6204 -22.0304m5.1989 25.7655c-3.1593,-0.2994 -4.2619,-1.199 -4.5785,-3.7351m6.5317 3.8675l-1.9532 -0.1324m8.2272 0.4807c-1.0953,0.0015 -1.0953,0.0015 -6.274,-0.3483m6.6943 0.3483l-0.4203 0m11.4168 -5.2247c0.0014,0.0474 0.0028,0.0949 0.0028,0.1439 0,0.9212 -0.2087,2.0309 -0.498,2.6498 -0.3958,0.8463 -0.8103,1.2609 -1.6509,1.6523 -1.0305,0.4808 -2.1446,0.6089 -6.3662,0.7327 -1.0204,0.0302 -1.8034,0.0446 -2.4842,0.046m1.5329 -46.9998c3.7005,0 5.4651,0.177 6.8857,0.6937 1.8884,0.6852 2.7146,1.8625 2.7146,3.8646m-13.2015 -4.5583l3.6012 0m-2.3461 0.6477c0.1223,0.0014 0.9957,0.0086 1.1195,0.0043m-4.2284 -0.0317l3.1089 0.0274m-3.6214 1.1342c-0.141,-0.0979 -0.2288,-0.2937 -0.2288,-0.5096 0,-0.4303 0.2332,-0.6361 0.7413,-0.652m-0.4952 1.1745l-0.0173 -0.0129m0.5758 0.1353c-0.1986,-0.0101 -0.3196,-0.0245 -0.3987,-0.0447 -0.0605,-0.0158 -0.0921,-0.0316 -0.1598,-0.0777m5.5803 0.1728l-5.0218 -0.0504m6.6597 -1.0335c0.0993,0.108 0.1569,0.2692 0.1569,0.4404 0,0.2174 -0.0921,0.4189 -0.2375,0.5197 -0.1857,0.128 -0.2893,0.1367 -1.5573,0.1238m1.6336 -1.0896l0.0043 0.0057m-2.5188 -0.2317c1.4638,0 1.7804,0.0043 2.0453,0.0288 0.1511,0.0129 0.2461,0.0331 0.3137,0.0662 0.0518,0.0259 0.0821,0.0518 0.1555,0.131"/>
 </g>
</svg>
