<?xml version="1.0" encoding="UTF-8"?>
<!DOCTYPE svg PUBLIC "-//W3C//DTD SVG 1.1//EN" "http://www.w3.org/Graphics/SVG/1.1/DTD/svg11.dtd">
<!-- Creator: CorelDRAW X8 -->
<svg xmlns="http://www.w3.org/2000/svg" xml:space="preserve" width="40mm" height="60mm" version="1.1" style="shape-rendering:geometricPrecision; text-rendering:geometricPrecision; image-rendering:optimizeQuality; fill-rule:evenodd; clip-rule:evenodd"
viewBox="0 0 4000 6000"
 xmlns:xlink="http://www.w3.org/1999/xlink">
 <defs>
  <style type="text/css">
   <![CDATA[
    .str0 {stroke:#332C2B;stroke-width:20}
    .fil0 {fill:none}
   ]]>
  </style>
 </defs>
 <g id="图层_x0020_1">
  <metadata id="CorelCorpID_0Corel-Layer"/>
  <g id="_1766890914096">
   <path class="fil0 str0" d="M957 5255l1874 0c116,0 212,-96 212,-212l0 -4181c0,-116 -96,-212 -212,-212l-578 0 -18 15 -418 0 -21 -15 -591 0c-117,0 -212,96 -212,212l0 4181c0,116 95,212 212,212 0,0 2,0 3,0 122,0 82,95 78,95"/>
   <path class="fil0 str0" d="M2875 809c10,-15 6,-71 -18,-70 -33,0 -59,26 -59,58 0,33 26,59 59,59 32,0 59,-26 59,-59 0,-32 -27,-58 -59,-58"/>
  </g>
 </g>
</svg>
