<?xml version="1.0" encoding="UTF-8"?>
<!DOCTYPE svg PUBLIC "-//W3C//DTD SVG 1.1//EN" "http://www.w3.org/Graphics/SVG/1.1/DTD/svg11.dtd">
<!-- Creator: CorelDRAW 2020 (64-Bit) -->
<svg xmlns="http://www.w3.org/2000/svg" xml:space="preserve" width="40mm" height="60mm" version="1.1" style="shape-rendering:geometricPrecision; text-rendering:geometricPrecision; image-rendering:optimizeQuality; fill-rule:evenodd; clip-rule:evenodd"
viewBox="0 0 4000 6000"
 xmlns:xlink="http://www.w3.org/1999/xlink"
 xmlns:xodm="http://www.corel.com/coreldraw/odm/2003">
 <defs>
  <style type="text/css">
   <![CDATA[
    .str0 {stroke:black;stroke-width:7.62;stroke-miterlimit:22.9256}
    .fil0 {fill:none}
   ]]>
  </style>
 </defs>
 <g id="图层_x0020_1">
  <metadata id="CorelCorpID_0Corel-Layer"/>
  <path class="fil0 str0" d="M1051.04 5331.46l1749.46 0c120.86,0 219.76,-98.9 219.76,-219.75l0 -4236.28c0,-120.87 -98.88,-219.76 -219.76,-219.76l-687.71 0c-19.67,0 -35.72,16.04 -35.72,35.72l0 14.56c0,46.02 -37.65,83.68 -83.67,83.68l0 0c-46.02,0 -83.67,-37.66 -83.67,-83.68l0 -14.56c0,-19.67 -16.05,-35.72 -35.72,-35.72l-687.72 0c-120.87,0 -219.75,98.88 -219.75,219.76l0 4236.28c0,120.87 98.89,219.75 219.75,219.75l31.12 0c74.78,0 118.09,14.57 132.89,24.21"/>
 </g>
</svg>
