<?xml version="1.0" encoding="UTF-8"?>
<!DOCTYPE svg PUBLIC "-//W3C//DTD SVG 1.1//EN" "http://www.w3.org/Graphics/SVG/1.1/DTD/svg11.dtd">
<!-- Creator: CorelDRAW 2020 (64-Bit) -->
<svg xmlns="http://www.w3.org/2000/svg" xml:space="preserve" width="40mm" height="60mm" version="1.1" style="shape-rendering:geometricPrecision; text-rendering:geometricPrecision; image-rendering:optimizeQuality; fill-rule:evenodd; clip-rule:evenodd"
viewBox="0 0 4000 6000"
 xmlns:xlink="http://www.w3.org/1999/xlink"
 xmlns:xodm="http://www.corel.com/coreldraw/odm/2003">
 <defs>
  <style type="text/css">
   <![CDATA[
    .str0 {stroke:black;stroke-width:7.62;stroke-miterlimit:22.9256}
    .fil0 {fill:none}
   ]]>
  </style>
 </defs>
 <g id="图层_x0020_1">
  <metadata id="CorelCorpID_0Corel-Layer"/>
  <path class="fil0 str0" d="M1999.09 1083.83c291.28,0 527.41,236.13 527.41,527.41 0,291.28 -236.13,527.41 -527.41,527.41 -291.28,0 -527.41,-236.13 -527.41,-527.41 0,-291.28 236.13,-527.41 527.41,-527.41zm0 -25.12c305.15,0 552.53,247.38 552.53,552.53 0,305.15 -247.38,552.52 -552.53,552.52 -305.15,0 -552.53,-247.37 -552.53,-552.52 0,-305.15 247.38,-552.53 552.53,-552.53zm40.23 -143.71c5.82,-37.39 -25.62,-63.59 -41.21,-64.8 -55.49,0 -100.46,44.98 -100.46,100.46 0,55.49 44.97,100.46 100.46,100.46 55.48,0 100.46,-44.97 100.46,-100.46 0,-55.48 -44.98,-100.46 -100.46,-100.46m703.71 724.87c5.82,-37.39 -25.62,-63.59 -41.21,-64.8 -55.49,0 -100.46,44.98 -100.46,100.46 0,55.48 44.97,100.46 100.46,100.46 55.48,0 100.46,-44.98 100.46,-100.46 0,-55.48 -44.98,-100.46 -100.46,-100.46m-622.28 729.81c5.82,-37.39 -25.62,-63.59 -41.22,-64.8 -55.48,0 -100.46,44.98 -100.46,100.46 0,55.49 44.98,100.46 100.46,100.46 55.49,0 100.46,-44.97 100.46,-100.46 0,-55.48 -44.97,-100.46 -100.46,-100.46m-620.27 -597.72c5.82,-37.39 -25.62,-63.59 -41.21,-64.8 -55.49,0 -100.46,44.98 -100.46,100.46 0,55.49 44.97,100.46 100.46,100.46 55.48,0 100.45,-44.97 100.45,-100.46 0,-55.48 -44.97,-100.46 -100.45,-100.46m663.46 -671.22c426.73,0 772.65,345.93 772.65,772.65 0,426.73 -345.92,772.65 -772.65,772.65 -426.72,0 -772.65,-345.92 -772.65,-772.65 0,-426.72 345.93,-772.65 772.65,-772.65zm-0.89 -26.29c440.6,0 797.77,357.17 797.77,797.76 0,440.59 -357.17,797.76 -797.77,797.76 -440.59,0 -797.76,-357.17 -797.76,-797.76 0,-440.59 357.17,-797.76 797.76,-797.76zm-1076.79 4508.82l1964.74 0c114.33,0 207.87,-93.54 207.87,-207.87l0 -4252.66c0,-114.33 -93.54,-207.87 -207.87,-207.87l-1785.5 0c-114.33,0 -207.87,93.54 -207.87,207.87l0 819.83c0,12.91 2.33,23.96 7.54,35.77l44.84 101.65c5.21,11.81 7.54,22.86 7.54,35.77l0 1007.19c0,10.1 -1.41,18.73 -4.64,28.3l-50.64 150.31c-3.23,9.57 -4.64,18.2 -4.64,28.3l0 2045.54c0,114.33 93.54,207.87 207.87,207.87l99.27 0c113.47,0 175.69,15.29 189.57,31.6"/>
 </g>
</svg>
