<?xml version="1.0" encoding="UTF-8"?>
<!DOCTYPE svg PUBLIC "-//W3C//DTD SVG 1.1//EN" "http://www.w3.org/Graphics/SVG/1.1/DTD/svg11.dtd">
<!-- Creator: CorelDRAW X8 -->
<svg xmlns="http://www.w3.org/2000/svg" xml:space="preserve" width="40mm" height="60mm" version="1.1" style="shape-rendering:geometricPrecision; text-rendering:geometricPrecision; image-rendering:optimizeQuality; fill-rule:evenodd; clip-rule:evenodd"
viewBox="0 0 4000 6000"
 xmlns:xlink="http://www.w3.org/1999/xlink">
 <defs>
  <style type="text/css">
   <![CDATA[
    .str0 {stroke:#333333;stroke-width:18;stroke-linejoin:bevel}
    .fil0 {fill:none}
   ]]>
  </style>
 </defs>
 <g id="图层_x0020_1">
  <metadata id="CorelCorpID_0Corel-Layer"/>
  <path class="fil0 str0" d="M1056 5306c359,0 1753,0 1753,0 121,0 220,-99 220,-221 0,0 0,-4214 0,-4214 0,-121 -99,-221 -220,-221 0,0 -475,0 -475,0 -27,0 -61,1 -86,5 -63,10 -111,48 -155,103 -22,27 -55,44 -93,44 -42,0 -79,-21 -100,-53 -30,-36 -62,-60 -87,-75 -41,-22 -86,-24 -136,-24 0,0 -486,0 -486,0 -121,0 -220,100 -220,221 0,0 0,4214 0,4214 0,122 99,221 220,221 0,0 39,0 105,0 132,0 168,9 204,44"/>
 </g>
</svg>
