<?xml version="1.0" encoding="UTF-8"?>
<!DOCTYPE svg PUBLIC "-//W3C//DTD SVG 1.1//EN" "http://www.w3.org/Graphics/SVG/1.1/DTD/svg11.dtd">
<!-- Creator: CorelDRAW X8 -->
<svg xmlns="http://www.w3.org/2000/svg" xml:space="preserve" width="40mm" height="60mm" version="1.1" style="shape-rendering:geometricPrecision; text-rendering:geometricPrecision; image-rendering:optimizeQuality; fill-rule:evenodd; clip-rule:evenodd"
viewBox="0 0 4000 6000"
 xmlns:xlink="http://www.w3.org/1999/xlink">
 <defs>
  <style type="text/css">
   <![CDATA[
    .str0 {stroke:black;stroke-width:20}
    .fil0 {fill:none}
   ]]>
  </style>
 </defs>
 <g id="图层_x0020_1">
  <metadata id="CorelCorpID_0Corel-Layer"/>
  <path class="fil0 str0" d="M490 674l2969 0c34,0 61,28 61,61l0 4554c0,34 -27,61 -61,61l-2918 0c-34,0 -61,-27 -61,-61l0 -2212c0,-12 9,-22 21,-22l20 0c24,0 43,-19 43,-43l0 0c0,-24 -19,-43 -43,-43l-20 0c-12,0 -21,-10 -21,-21l0 -2213c0,-33 27,-61 61,-61l26 0c46,3 80,-5 103,-24"/>
 </g>
</svg>
