<?xml version="1.0" encoding="UTF-8"?>
<!DOCTYPE svg PUBLIC "-//W3C//DTD SVG 1.1//EN" "http://www.w3.org/Graphics/SVG/1.1/DTD/svg11.dtd">
<!-- Creator: CorelDRAW X8 -->
<svg xmlns="http://www.w3.org/2000/svg" xml:space="preserve" width="40mm" height="60mm" version="1.1" style="shape-rendering:geometricPrecision; text-rendering:geometricPrecision; image-rendering:optimizeQuality; fill-rule:evenodd; clip-rule:evenodd"
viewBox="0 0 4000 6000"
 xmlns:xlink="http://www.w3.org/1999/xlink">
 <defs>
  <style type="text/css">
   <![CDATA[
    .str0 {stroke:black;stroke-width:20}
    .fil0 {fill:none}
   ]]>
  </style>
 </defs>
 <g id="图层_x0020_1">
  <metadata id="CorelCorpID_0Corel-Layer"/>
  <path class="fil0 str0" d="M920 5350l1975 0c142,0 258,-116 258,-258l0 -4184c0,-142 -116,-258 -258,-258l-1790 0c-142,0 -258,116 -258,258l0 4184c0,142 116,258 258,258l332 0m219 -4657c0,-5 -5,-9 -13,-10 -32,0 -57,25 -57,57 0,31 25,56 57,56 31,0 56,-25 56,-56 0,-32 -25,-57 -56,-57m290 54c-5,-19 -15,-33 -60,-33l-39 0c-20,0 -37,16 -37,37l0 0c0,20 17,37 37,37l361 0c21,0 38,-17 38,-37l0 0c0,-21 -17,-37 -38,-37l-322 0m550 21c-3,-9 -6,-16 -21,-16l-13 0c-18,0 -32,15 -32,33l0 0c0,17 14,32 32,32l84 0c18,0 32,-15 32,-32l0 0c0,-18 -14,-33 -32,-33l-71 0m-409 4424c-9,-34 -21,-59 -79,-59l-49 0c-67,0 -122,55 -122,123l0 0c0,67 55,122 122,122l303 0c68,0 123,-55 123,-122l0 0c0,-68 -55,-123 -123,-123l-254 0m883 -4364c-1,-4 -4,-8 -12,-8 -27,0 -48,22 -48,48 0,27 21,49 48,49 27,0 49,-22 49,-49 0,-26 -22,-48 -49,-48"/>
 </g>
</svg>
