<?xml version="1.0" encoding="UTF-8"?>
<!DOCTYPE svg PUBLIC "-//W3C//DTD SVG 1.1//EN" "http://www.w3.org/Graphics/SVG/1.1/DTD/svg11.dtd">
<!-- Creator: CorelDRAW 2020 (64-Bit) -->
<svg xmlns="http://www.w3.org/2000/svg" xml:space="preserve" width="40mm" height="60mm" version="1.1" style="shape-rendering:geometricPrecision; text-rendering:geometricPrecision; image-rendering:optimizeQuality; fill-rule:evenodd; clip-rule:evenodd"
viewBox="0 0 4000 6000"
 xmlns:xlink="http://www.w3.org/1999/xlink"
 xmlns:xodm="http://www.corel.com/coreldraw/odm/2003">
 <defs>
  <style type="text/css">
   <![CDATA[
    .str0 {stroke:#332C2B;stroke-width:7.62;stroke-miterlimit:22.9256}
    .fil0 {fill:none}
   ]]>
  </style>
 </defs>
 <g id="图层_x0020_1">
  <metadata id="CorelCorpID_0Corel-Layer"/>
  <path class="fil0 str0" d="M777.24 1038.9c-46.52,12.46 -80.67,29.41 -80.67,109.25l0 66.19c0,92.19 75.42,167.61 167.6,167.61l0.05 0c92.12,0 167.59,-75.42 167.59,-167.61l0 -263.58c0,-92.19 -75.42,-167.6 -167.59,-167.6l-0.05 0c-92.18,0 -167.6,75.47 -167.6,167.6l0 197.39m-78.27 4189.28l2669.15 0c73.48,0 133.6,-60.12 133.6,-133.59l0 -4414.57c0,-73.48 -60.12,-133.6 -133.6,-133.6l-2588.1 0c-73.48,0 -133.6,60.12 -133.6,133.6l0 4414.57c0,73.47 60.12,133.59 133.6,133.59l50.98 0c46.51,0 63.84,3.17 77.48,18.24"/>
 </g>
</svg>
