<?xml version="1.0" encoding="UTF-8"?>
<!DOCTYPE svg PUBLIC "-//W3C//DTD SVG 1.1//EN" "http://www.w3.org/Graphics/SVG/1.1/DTD/svg11.dtd">
<!-- Creator: CorelDRAW X8 -->
<svg xmlns="http://www.w3.org/2000/svg" xml:space="preserve" width="40mm" height="60mm" version="1.1" style="shape-rendering:geometricPrecision; text-rendering:geometricPrecision; image-rendering:optimizeQuality; fill-rule:evenodd; clip-rule:evenodd"
viewBox="0 0 4000 6000"
 xmlns:xlink="http://www.w3.org/1999/xlink">
 <defs>
  <style type="text/css">
   <![CDATA[
    .str0 {stroke:black;stroke-width:7.62}
    .fil0 {fill:none}
   ]]>
  </style>
 </defs>
 <g id="图层_x0020_1">
  <metadata id="CorelCorpID_0Corel-Layer"/>
  <path class="fil0 str0" d="M911 5350l1958 0c136,0 248,-112 248,-248l0 -4204c0,-136 -112,-248 -248,-248l-1738 0c-136,0 -248,112 -248,248l0 4204c0,136 112,248 248,248l365 0m-119 -4547c-12,-46 -28,-80 -106,-80l-65 0c-90,0 -164,75 -164,166l0 0c0,91 74,165 164,165l384 0c90,0 163,-74 163,-165l0 0c0,-91 -73,-166 -163,-166l-319 0"/>
 </g>
</svg>
