<?xml version="1.0" encoding="UTF-8"?>
<!DOCTYPE svg PUBLIC "-//W3C//DTD SVG 1.1//EN" "http://www.w3.org/Graphics/SVG/1.1/DTD/svg11.dtd">
<!-- Creator: CorelDRAW X8 -->
<svg xmlns="http://www.w3.org/2000/svg" xml:space="preserve" width="40mm" height="60mm" version="1.1" style="shape-rendering:geometricPrecision; text-rendering:geometricPrecision; image-rendering:optimizeQuality; fill-rule:evenodd; clip-rule:evenodd"
viewBox="0 0 4000 6000"
 xmlns:xlink="http://www.w3.org/1999/xlink">
 <defs>
  <style type="text/css">
   <![CDATA[
    .str0 {stroke:#332C2B;stroke-width:19.4}
    .str1 {stroke:#332C2B;stroke-width:20}
    .fil1 {fill:none}
    .fil0 {fill:none;fill-rule:nonzero}
   ]]>
  </style>
 </defs>
 <g id="图层_x0020_1">
  <metadata id="CorelCorpID_0Corel-Layer"/>
  <g id="_1521766697712">
   <path class="fil0 str0" d="M3079 821c-12,-84 -91,-162 -172,-170 -7,-1 -20,-1 -40,-1"/>
   <path class="fil0 str0" d="M1062 656c-1,-1 -3,-1 -4,-1 -15,0 -40,12 -77,36 -33,21 -63,65 -80,118 -3,9 -3,18 -3,60"/>
   <line class="fil0 str0" x1="898" y1="869" x2="903" y2= "4319" />
   <path class="fil0 str0" d="M903 4300c3,688 -1,802 0,853 0,3 -1,4 -1,6 0,17 30,69 56,95 30,31 81,58 115,60 387,16 1163,36 1413,36 201,0 331,-5 386,-15 26,-5 31,-7 50,-21 6,-5 7,-5 30,-13 56,-18 116,-87 129,-148 1,-8 2,-19 2,-57"/>
   <line class="fil0 str0" x1="3083" y1="5096" x2="3100" y2= "1989" />
   <path class="fil0 str0" d="M3100 1989c5,-869 2,-1098 -17,-1156 -2,-9 -3,-11 -4,-24"/>
   <polyline class="fil0 str0" points="1666,937 1666,926 1664,926 "/>
   <path class="fil0 str0" d="M1664 926c-2,1 -2,1 -6,4"/>
   <line class="fil0 str0" x1="1658" y1="930" x2="1656" y2= "931" />
   <path class="fil0 str0" d="M1656 931c0,3 0,4 0,5 0,2 0,3 1,7"/>
   <line class="fil0 str0" x1="1657" y1="943" x2="1665" y2= "947" />
   <path class="fil0 str0" d="M1665 947c-8,32 -33,53 -63,53 -37,0 -66,-29 -66,-65 0,-44 22,-65 65,-65 36,0 65,28 65,64 0,5 -2,20 -3,25"/>
   <path class="fil0 str0" d="M1454 952c-6,84 -82,154 -170,154 -93,0 -170,-77 -170,-171 0,-93 77,-170 170,-170 94,0 171,76 171,170 0,10 0,10 -4,39"/>
   <line class="fil1 str1" x1="1058" y1="655" x2="2894" y2= "650" />
  </g>
 </g>
</svg>
