<?xml version="1.0" encoding="UTF-8"?>
<!DOCTYPE svg PUBLIC "-//W3C//DTD SVG 1.1//EN" "http://www.w3.org/Graphics/SVG/1.1/DTD/svg11.dtd">
<!-- Creator: CorelDRAW X8 -->
<svg xmlns="http://www.w3.org/2000/svg" xml:space="preserve" width="40mm" height="60mm" version="1.1" style="shape-rendering:geometricPrecision; text-rendering:geometricPrecision; image-rendering:optimizeQuality; fill-rule:evenodd; clip-rule:evenodd"
viewBox="0 0 4000 6000"
 xmlns:xlink="http://www.w3.org/1999/xlink">
 <defs>
  <style type="text/css">
   <![CDATA[
    .str0 {stroke:#332C2B;stroke-width:7.62}
    .fil0 {fill:none}
   ]]>
  </style>
 </defs>
 <g id="图层_x0020_1">
  <metadata id="CorelCorpID_0Corel-Layer"/>
  <path class="fil0 str0" d="M1171 650l1406 0c50,0 38,26 79,26l0 0c41,0 29,-26 77,-26l96 0c136,0 246,111 246,246l0 4208c0,135 -110,246 -246,246l-1658 0c-136,0 -246,-111 -246,-246l0 -4208c0,-135 110,-246 246,-246zm141 309c2,-53 -60,-95 -83,-96 -80,0 -146,65 -146,146 0,80 66,146 146,146 81,0 146,-66 146,-146 0,-81 -65,-146 -146,-146m38 669c1,-25 -28,-45 -39,-45 -38,0 -69,31 -69,69 0,38 31,69 69,69 38,0 69,-31 69,-69 0,-38 -31,-69 -69,-69m887 292c3,-67 -76,-119 -104,-122 -102,0 -185,83 -185,185 0,102 83,184 185,184 102,0 184,-82 184,-184 0,-102 -82,-185 -184,-185"/>
 </g>
</svg>
