<?xml version="1.0" encoding="UTF-8"?>
<!DOCTYPE svg PUBLIC "-//W3C//DTD SVG 1.1//EN" "http://www.w3.org/Graphics/SVG/1.1/DTD/svg11.dtd">
<!-- Creator: CorelDRAW X8 -->
<svg xmlns="http://www.w3.org/2000/svg" xml:space="preserve" width="40mm" height="60mm" version="1.1" style="shape-rendering:geometricPrecision; text-rendering:geometricPrecision; image-rendering:optimizeQuality; fill-rule:evenodd; clip-rule:evenodd"
viewBox="0 0 4000 6000"
 xmlns:xlink="http://www.w3.org/1999/xlink">
 <defs>
  <style type="text/css">
   <![CDATA[
    .str0 {stroke:black;stroke-width:7.62}
    .fil0 {fill:none}
   ]]>
  </style>
 </defs>
 <g id="图层_x0020_1">
  <metadata id="CorelCorpID_0Corel-Layer"/>
  <path class="fil0 str0" d="M1514 907c-1,-20 -19,-38 -55,-41 -130,0 -235,105 -235,234 0,130 105,235 235,235 130,0 235,-105 235,-235 0,-129 -105,-234 -235,-234m-99 718c-5,-17 -14,-31 -58,-31l-37 0c-19,0 -35,16 -35,35l0 0c0,20 16,36 35,36l380 0c20,0 36,-16 36,-36l0 0c0,-19 -16,-35 -36,-35l-343 0m18 140c-1,-10 -10,-20 -29,-21 -67,0 -121,54 -121,121 0,66 54,121 121,121 67,0 121,-55 121,-121 0,-67 -54,-121 -121,-121m357 21c-1,-10 -10,-20 -29,-21 -67,0 -121,54 -121,121 0,66 54,121 121,121 67,0 121,-55 121,-121 0,-67 -54,-121 -121,-121m-397 -870l466 0c52,0 94,42 94,94l0 1044c0,52 -42,95 -94,95l-466 0c-52,0 -94,-43 -94,-95l0 -1044c0,-52 42,-94 94,-94zm-22 -51l512 0c65,0 119,53 119,119l0 1095c0,65 -54,119 -119,119l-512 0c-65,0 -119,-54 -119,-119l0 -1095c0,-66 54,-119 119,-119zm77 4599c-18,-13 -55,-33 -88,-33l-29 0c-129,0 -234,-105 -234,-234l0 -1990c0,-6 0,-8 3,-13l21 -29c3,-5 4,-8 4,-14l0 -1296c0,-11 0,-15 -5,-24l-20 -38c-3,-6 -3,-8 -3,-14l0 -781c0,-128 105,-234 234,-234l1680 0c129,0 234,106 234,234l0 4199c0,129 -105,234 -234,234l-1829 0"/>
 </g>
</svg>
