<?xml version="1.0" encoding="UTF-8"?>
<!DOCTYPE svg PUBLIC "-//W3C//DTD SVG 1.1//EN" "http://www.w3.org/Graphics/SVG/1.1/DTD/svg11.dtd">
<!-- Creator: CorelDRAW X8 -->
<svg xmlns="http://www.w3.org/2000/svg" xml:space="preserve" width="40mm" height="60mm" version="1.1" style="shape-rendering:geometricPrecision; text-rendering:geometricPrecision; image-rendering:optimizeQuality; fill-rule:evenodd; clip-rule:evenodd"
viewBox="0 0 4000 6000"
 xmlns:xlink="http://www.w3.org/1999/xlink">
 <defs>
  <style type="text/css">
   <![CDATA[
    .str0 {stroke:#332C2B;stroke-width:19.4}
    .fil0 {fill:none;fill-rule:nonzero}
   ]]>
  </style>
 </defs>
 <g id="图层_x0020_1">
  <metadata id="CorelCorpID_0Corel-Layer"/>
  <g id="_1332796942480">
   <g>
    <line class="fil0 str0" x1="2788" y1="651" x2="2788" y2= "680" />
    <line class="fil0 str0" x1="1258" y1="5295" x2="1258" y2= "5304" />
    <path class="fil0 str0" d="M1258 5304c5,-1 8,-4 9,-9 218,0 435,0 652,1 17,-2 19,-2 35,-18 14,-13 26,-14 167,-14 114,0 114,0 134,20 13,13 13,13 193,13"/>
    <line class="fil0 str0" x1="2448" y1="5297" x2="2449" y2= "5297" />
    <path class="fil0 str0" d="M2449 5297c139,0 278,-1 288,-3 16,-3 29,-11 44,-29 6,-7 8,-15 8,-49"/>
    <line class="fil0 str0" x1="2789" y1="5216" x2="2816" y2= "1518" />
    <path class="fil0 str0" d="M2816 1518c-8,-759 -9,-795 -27,-820"/>
    <polyline class="fil0 str0" points="2789,698 2786,690 2785,687 "/>
    <path class="fil0 str0" d="M2785 687c-4,-9 -26,-29 -37,-33 -15,-4 -25,-4 -660,-4"/>
    <line class="fil0 str0" x1="2088" y1="650" x2="1445" y2= "651" />
    <path class="fil0 str0" d="M1445 651c-44,0 -54,1 -71,5 -100,22 -186,118 -190,213"/>
    <line class="fil0 str0" x1="1184" y1="869" x2="1192" y2= "5042" />
    <path class="fil0 str0" d="M1192 5042c-2,19 -3,26 -6,42 0,1 0,3 0,5 0,27 26,85 53,119 44,55 103,83 186,87 14,1 26,2 35,4 34,6 53,17 91,51"/>
    <polyline class="fil0 str0" points="1617,999 1624,1005 1626,1002 1626,1000 1627,999 1667,999 "/>
    <path class="fil0 str0" d="M1667 999c74,0 104,12 135,54 14,18 22,38 24,58"/>
    <line class="fil0 str0" x1="1826" y1="1111" x2="1831" y2= "1755" />
    <path class="fil0 str0" d="M1831 1755c2,209 1,222 -14,258 -16,35 -54,66 -91,73 -11,3 -56,4 -108,4 -120,0 -141,-5 -177,-44 -18,-20 -30,-45 -32,-68"/>
    <line class="fil0 str0" x1="1409" y1="1978" x2="1411" y2= "1106" />
    <path class="fil0 str0" d="M1411 1106c0,-34 37,-80 76,-96 23,-10 33,-11 93,-11"/>
    <line class="fil0 str0" x1="1580" y1="999" x2="1645" y2= "999" />
    <path class="fil0 str0" d="M1555 2117c19,0 14,0 33,0 54,0 66,2 80,19 11,12 18,28 18,45 0,21 -10,41 -26,54 -14,12 -29,13 -134,13 -36,0 -52,-1 -63,-3 -11,-3 -18,-7 -27,-18 -12,-12 -18,-29 -18,-46 0,-37 26,-63 64,-64"/>
    <line class="fil0 str0" x1="1482" y1="2117" x2="1583" y2= "2117" />
    <path class="fil0 str0" d="M1620 1053c7,0 14,0 19,0 70,0 94,10 118,50 10,18 13,32 13,55"/>
    <line class="fil0 str0" x1="1770" y1="1158" x2="1754" y2= "1497" />
    <path class="fil0 str0" d="M1754 1497c-6,127 -8,221 -8,290 0,102 4,138 19,165 1,2 2,4 2,6 0,13 -21,43 -40,57 -22,17 -37,19 -122,19 -80,0 -107,-11 -130,-53"/>
    <line class="fil0 str0" x1="1475" y1="1981" x2="1471" y2= "1975" />
    <path class="fil0 str0" d="M1471 1975c-6,-9 -6,-9 -16,-188"/>
    <line class="fil0 str0" x1="1455" y1="1787" x2="1450" y2= "1697" />
    <path class="fil0 str0" d="M1450 1697c-9,-164 -13,-286 -13,-374 0,-127 5,-165 27,-191"/>
    <line class="fil0 str0" x1="1464" y1="1132" x2="1464" y2= "1131" />
    <path class="fil0 str0" d="M1464 1131c2,-2 2,-2 5,-11"/>
    <line class="fil0 str0" x1="1469" y1="1120" x2="1470" y2= "1116" />
    <path class="fil0 str0" d="M1470 1116c6,-19 30,-45 52,-55 17,-7 25,-8 67,-8 7,0 14,0 23,0"/>
    <line class="fil0 str0" x1="1612" y1="1053" x2="1648" y2= "1053" />
    <path class="fil0 str0" d="M1618 1122c3,0 5,0 8,0 58,0 75,18 75,76 0,42 -4,62 -16,74 -11,12 -29,17 -68,17 -37,0 -56,-5 -68,-17 -11,-13 -16,-33 -16,-72 0,-33 5,-51 17,-62 11,-11 30,-16 65,-16"/>
    <line class="fil0 str0" x1="1615" y1="1122" x2="1646" y2= "1122" />
    <path class="fil0 str0" d="M1618 1438c2,0 5,0 7,0 58,0 76,17 76,76 0,42 -4,62 -16,74 -11,12 -30,17 -68,17 -37,0 -56,-5 -68,-18 -11,-12 -16,-33 -16,-73 0,-36 7,-53 26,-66 14,-10 17,-10 69,-10"/>
    <line class="fil0 str0" x1="1628" y1="1438" x2="1646" y2= "1438" />
    <path class="fil0 str0" d="M1618 1766c2,-1 5,-1 7,-1 58,0 76,18 76,77 0,41 -4,62 -16,74 -11,12 -30,17 -68,17 -37,0 -56,-5 -68,-18 -11,-12 -16,-33 -16,-73 0,-37 7,-54 26,-67 14,-9 17,-10 69,-9"/>
    <line class="fil0 str0" x1="1628" y1="1766" x2="1646" y2= "1766" />
   </g>
  </g>
 </g>
</svg>
