<?xml version="1.0" encoding="UTF-8"?>
<!DOCTYPE svg PUBLIC "-//W3C//DTD SVG 1.1//EN" "http://www.w3.org/Graphics/SVG/1.1/DTD/svg11.dtd">
<!-- Creator: CorelDRAW X8 -->
<svg xmlns="http://www.w3.org/2000/svg" xml:space="preserve" width="40mm" height="60mm" version="1.1" style="shape-rendering:geometricPrecision; text-rendering:geometricPrecision; image-rendering:optimizeQuality; fill-rule:evenodd; clip-rule:evenodd"
viewBox="0 0 4000 6000"
 xmlns:xlink="http://www.w3.org/1999/xlink">
 <defs>
  <style type="text/css">
   <![CDATA[
    .str0 {stroke:black;stroke-width:7.62}
    .fil0 {fill:none}
   ]]>
  </style>
 </defs>
 <g id="图层_x0020_1">
  <metadata id="CorelCorpID_0Corel-Layer"/>
  <path class="fil0 str0" d="M1047 5350l1772 0c103,0 187,-84 187,-187l0 -4326c0,-103 -84,-187 -187,-187l-587 0c-1,0 -2,1 -3,2l-4 7c0,1 -1,1 -2,1l-417 0c-2,0 -3,-1 -3,-2l-3 -7c0,-1 -1,-1 -2,-1l-617 0c-103,0 -187,84 -187,187l0 4326c0,103 84,187 187,187l119 0m122 -4534c-1,-5 -4,-9 -12,-9 -28,0 -50,22 -50,50 0,28 22,50 50,50 28,0 50,-22 50,-50 0,-28 -22,-50 -50,-50m-200 9c0,-5 -4,-9 -12,-9 -28,0 -50,22 -50,50 0,28 22,50 50,50 28,0 51,-22 51,-50 0,-28 -23,-50 -51,-50"/>
 </g>
</svg>
