<?xml version="1.0" encoding="UTF-8"?>
<!DOCTYPE svg PUBLIC "-//W3C//DTD SVG 1.1//EN" "http://www.w3.org/Graphics/SVG/1.1/DTD/svg11.dtd">
<!-- Creator: CorelDRAW 2020 (64-Bit) -->
<svg xmlns="http://www.w3.org/2000/svg" xml:space="preserve" width="40mm" height="60mm" version="1.1" style="shape-rendering:geometricPrecision; text-rendering:geometricPrecision; image-rendering:optimizeQuality; fill-rule:evenodd; clip-rule:evenodd"
viewBox="0 0 4000 6000"
 xmlns:xlink="http://www.w3.org/1999/xlink"
 xmlns:xodm="http://www.corel.com/coreldraw/odm/2003">
 <defs>
  <style type="text/css">
   <![CDATA[
    .str1 {stroke:#332C2B;stroke-width:20;stroke-miterlimit:22.9256}
    .str0 {stroke:#222222;stroke-width:20;stroke-miterlimit:22.9256}
    .fil0 {fill:none}
   ]]>
  </style>
 </defs>
 <g id="图层_x0020_1">
  <metadata id="CorelCorpID_0Corel-Layer"/>
  <path class="fil0 str0" d="M-5463.23 7373.41l0.14 -564.83c605,0 1100,-495 1100,-1100l50.05 -1.54 89.85 1591.7c3.1,54.9 44.99,100 100,100l268.65 0c55.01,0 100,-45.02 100,-100l0 -3668.63 -289 0c-110,0 -200,-90 -200,-200l0 -563.83c0,-110 90,-200 200,-200l289 0 0 -3628.94c0,-54.98 -45,-100 -100,-100l-269.31 0c-55,0 -96.93,45.12 -100,100l-89.35 1590.8 -49.89 1.82c0,-605 -495.16,-1100.06 -1100.14,-1100.04l0 -457.96c0,-27.5 -22.49,-50 -50,-50l-13357.38 0c-27.51,0 -50,22.5 -50,50l0 458.02c-604.99,0 -1105.82,495.02 -1099.15,1099.98l-47.53 0.43 -114.37 -1592.89c-3.93,-54.81 -22.37,-100.16 -77.34,-100.16l-269.31 0c-55,0 -100,45.01 -100,100l0 8261.4c0,54.99 44.99,100 100,100l268.98 0c55.01,0 96.83,-45.14 100,-100l91.86 -1591.22 47.71 1.06c0,605 494.15,1100 1099.15,1100l0 458c0,27.5 22.49,50 50,50l1819.69 0 0 -371.15c0,-55 45,-100 100,-100l2265.34 0c55,0 100,45 100,100l0 371.15 429.21 0 0 -371.15c0,-55 45,-100 100,-100l1032.67 0c55,0 100,45 100,100l0 371.15 7410.47 0c27.51,0 49.99,-22.51 50,-50 0.01,-27.49 1.2,-98.5 28.98,-123.64"/>
  <path class="fil0 str1" d="M-19337.25 5790.68c0,330 269.99,599.99 599.99,599.99l1101.9 0c330,0 599.99,-269.99 599.99,-599.99l0 -1009.3c0,-330 -269.99,-599.99 -599.99,-599.99l-1101.9 0c-330,0 -599.99,269.99 -599.99,599.99l0 1009.3c0,0 19.21,-960.34 386.98,-1153.49"/>
  <path class="fil0 str1" d="M-16936.54 3217.38c0,330 270,600 600,600l136.15 0c330,0 600,-270 600,-600l0 -141.45c0,-330 -270,-600 -600,-600l-136.15 0c-330,0 -600,270 -600,600l0 141.45c0,0 -6.17,-216.33 136.7,-304.97"/>
  <path class="fil0 str1" d="M-6081.56 5542.4c0,55 45,100 100,100l589.79 0c55,0 100,-45 100,-100l0 -493.95c0,-55 -45,-100 -100,-100l-589.79 0c-55,0 -100,45 -100,100l0 493.95c0,0 16.55,-437.98 122.39,-483.62"/>
  <path class="fil0 str1" d="M-20587 4101.12c0,126.4 102.47,228.87 228.87,228.87 126.4,0 228.87,-102.47 228.87,-228.87 0,-126.4 -102.47,-228.87 -228.87,-228.87 -126.4,0 -228.87,102.47 -228.87,228.87 0,126.4 121.82,122.25 148.94,121.58"/>
  <path class="fil0 str1" d="M-4055.68 1269.33c0,63.2 51.24,114.44 114.44,114.44 63.2,0 114.44,-51.24 114.44,-114.44 0,-63.2 -51.24,-114.44 -114.44,-114.44 -63.2,0 -114.44,51.24 -114.44,114.44 0,63.2 87.45,80.95 98.03,78.63"/>
  <g id="_1923753011936">
   <path class="fil0 str0" d="M821.51 4874.59l157.33 0.04c0,168.52 137.87,306.4 306.39,306.4l0.43 13.94 -443.35 25.02c-15.29,0.87 -27.85,12.54 -27.85,27.86l0 74.83c0,15.32 12.53,27.85 27.85,27.85l1021.86 0 0 -80.5c0,-30.64 25.06,-55.7 55.7,-55.7l157.05 0c30.64,0 55.71,25.06 55.71,55.7l0 80.5 1010.8 0c15.32,0 27.85,-12.53 27.85,-27.85l0 -75.02c0,-15.32 -12.56,-26.99 -27.85,-27.85l-443.1 -24.89 -0.51 -13.89c168.52,0 306.41,-137.92 306.41,-306.44l127.56 0c7.66,0 13.92,-6.26 13.92,-13.92l0 -3720.55c0,-7.66 -6.26,-13.93 -13.92,-13.93l-127.58 0c0,-168.51 -137.88,-308.01 -306.39,-306.15l-0.12 -13.24 443.69 -31.86c15.26,-1.09 27.89,-6.23 27.89,-21.54l0 -75.01c0,-15.32 -12.53,-27.86 -27.85,-27.86l-2301.12 0c-15.32,0 -27.85,12.53 -27.85,27.86l0 74.92c0,15.32 12.57,26.97 27.85,27.85l443.22 25.59 -0.3 13.29c-168.52,0 -306.39,137.64 -306.39,306.15l-127.57 0c-7.66,0 -13.93,6.27 -13.93,13.93l0 506.85 103.38 0c15.32,0 27.85,12.54 27.85,27.86l0 630.98c0,15.32 -12.53,27.86 -27.85,27.86l-103.38 0 0 119.55 103.38 0c15.32,0 27.85,12.53 27.85,27.85l0 287.64c0,15.32 -12.53,27.85 -27.85,27.85l-103.38 0 0 2064.11c0,7.66 6.27,13.92 13.93,13.92 7.65,0.01 27.43,0.34 34.44,8.08"/>
   <path class="fil0 str1" d="M1262.36 1010.14c-91.92,0 -167.12,75.2 -167.12,167.12l0 306.92c0,91.92 75.2,167.12 167.12,167.12l281.13 0c91.92,0 167.12,-75.2 167.12,-167.12l0 -306.92c0,-91.92 -75.2,-167.12 -167.12,-167.12l-281.13 0c0,0 267.49,5.35 321.29,107.79"/>
   <path class="fil0 str1" d="M1979.13 1678.83c-91.92,0 -167.13,75.21 -167.13,167.13l0 37.92c0,91.92 75.21,167.12 167.13,167.12l39.4 0c91.91,0 167.12,-75.2 167.12,-167.12l0 -37.92c0,-91.92 -75.21,-167.13 -167.12,-167.13l-39.4 0c0,0 60.25,-1.72 84.94,38.08"/>
   <path class="fil0 str1" d="M1331.52 4702.37c-15.32,0 -27.86,12.53 -27.86,27.85l0 164.28c0,15.32 12.54,27.85 27.86,27.85l137.58 0c15.32,0 27.86,-12.53 27.86,-27.85l0 -164.28c0,-15.32 -12.54,-27.85 -27.86,-27.85l-137.58 0c0,0 121.99,4.61 134.71,34.09"/>
   <path class="fil0 str1" d="M1732.97 662.04c-35.21,0 -63.75,28.54 -63.75,63.75 0,35.2 28.54,63.75 63.75,63.75 35.21,0 63.75,-28.55 63.75,-63.75 0,-35.21 -28.54,-63.75 -63.75,-63.75 -35.21,0 -34.05,33.93 -33.86,41.48"/>
   <path class="fil0 str1" d="M2521.73 5266.65c-17.6,0 -31.87,14.27 -31.87,31.88 0,17.6 14.27,31.87 31.87,31.87 17.61,0 31.88,-14.27 31.88,-31.87 0,-17.61 -14.27,-31.88 -31.88,-31.88 -17.6,0 -22.54,24.36 -21.9,27.31"/>
  </g>
 </g>
</svg>
