<?xml version="1.0" encoding="UTF-8"?>
<!DOCTYPE svg PUBLIC "-//W3C//DTD SVG 1.1//EN" "http://www.w3.org/Graphics/SVG/1.1/DTD/svg11.dtd">
<!-- Creator: CorelDRAW X8 -->
<svg xmlns="http://www.w3.org/2000/svg" xml:space="preserve" width="40mm" height="60mm" version="1.1" style="shape-rendering:geometricPrecision; text-rendering:geometricPrecision; image-rendering:optimizeQuality; fill-rule:evenodd; clip-rule:evenodd"
viewBox="0 0 4000 6000"
 xmlns:xlink="http://www.w3.org/1999/xlink">
 <defs>
  <style type="text/css">
   <![CDATA[
    .str0 {stroke:black;stroke-width:7.62}
    .fil0 {fill:none}
   ]]>
  </style>
 </defs>
 <g id="图层_x0020_1">
  <metadata id="CorelCorpID_0Corel-Layer"/>
  <path class="fil0 str0" d="M2053 1703c-1,-17 -16,-32 -46,-34 -107,0 -194,86 -194,193 0,108 87,194 194,194 107,0 194,-86 194,-194 0,-107 -87,-193 -194,-193m-810 -796c0,-11 -9,-20 -28,-22 -67,0 -121,54 -121,121 0,67 54,121 121,121 67,0 121,-54 121,-121 0,-67 -54,-121 -121,-121m16 314c0,-6 -5,-11 -16,-12 -39,0 -70,31 -70,70 0,38 31,69 70,69 38,0 70,-31 70,-69 0,-39 -32,-70 -70,-70m28 228c0,-10 -9,-19 -28,-21 -67,0 -121,54 -121,121 0,67 54,121 121,121 67,0 121,-54 121,-121 0,-67 -54,-121 -121,-121m1 -529l0 0c78,0 143,64 143,142l0 500c0,78 -65,143 -143,143l0 0c-79,0 -143,-65 -143,-143l0 -500c0,-78 64,-142 143,-142zm2 -36l0 0c96,0 175,79 175,176l0 507c0,96 -79,175 -175,175l0 0c-97,0 -176,-79 -176,-175l0 -507c0,-97 79,-176 176,-176zm29 4555c-23,-10 -57,-15 -85,-15 -120,0 -217,-98 -217,-218l0 -4250c0,-119 97,-217 217,-217l1768 0c120,0 217,98 217,217l0 4250c0,120 -97,218 -217,218l-1932 0"/>
 </g>
</svg>
