<?xml version="1.0" encoding="UTF-8"?>
<!DOCTYPE svg PUBLIC "-//W3C//DTD SVG 1.1//EN" "http://www.w3.org/Graphics/SVG/1.1/DTD/svg11.dtd">
<!-- Creator: CorelDRAW X8 -->
<svg xmlns="http://www.w3.org/2000/svg" xml:space="preserve" width="40mm" height="60mm" version="1.1" style="shape-rendering:geometricPrecision; text-rendering:geometricPrecision; image-rendering:optimizeQuality; fill-rule:evenodd; clip-rule:evenodd"
viewBox="0 0 4000 6000"
 xmlns:xlink="http://www.w3.org/1999/xlink">
 <defs>
  <style type="text/css">
   <![CDATA[
    .fil0 {fill:#332C2B;fill-rule:nonzero}
   ]]>
  </style>
 </defs>
 <g id="图层_x0020_1">
  <metadata id="CorelCorpID_0Corel-Layer"/>
  <g>
   <path class="fil0" d="M599 680l0 -20 0 0 4 0 4 0 4 0 3 -1 3 0 3 0 2 -1 3 0 2 -1 2 0 1 -1 2 0 1 -1 1 0 1 -1 1 0 1 -1 0 0 0 -1 1 0 0 0 0 -1 0 0 0 0 0 0 0 0 1 0 0 -1 0 0 0 0 0 0 0 0 20 0 0 1 0 1 -1 1 0 1 0 1 0 2 -1 1 0 1 -1 2 -1 1 -1 2 -1 1 -1 1 -2 2 -1 1 -2 1 -2 1 -2 1 -2 1 -2 1 -2 1 -3 1 -2 1 -3 0 -3 1 -3 0 -4 1 -3 0 -4 1 -4 0 -4 0 -5 0 0 0zm-75 75l-20 0 0 0 0 -5 0 -5 1 -4 0 -5 2 -5 1 -4 1 -5 2 -4 2 -4 2 -4 2 -4 3 -4 3 -4 2 -3 3 -4 4 -3 3 -3 3 -3 4 -3 4 -3 4 -2 4 -3 4 -2 4 -2 4 -1 5 -2 4 -1 5 -1 5 -1 4 -1 5 0 5 0 0 20 -4 0 -4 0 -3 1 -4 1 -4 0 -3 1 -4 2 -3 1 -4 1 -3 2 -3 2 -3 2 -3 2 -3 2 -3 3 -2 2 -3 3 -2 2 -2 3 -3 3 -2 3 -1 3 -2 4 -2 3 -1 3 -1 4 -1 3 -1 4 -1 4 0 4 0 3 0 4 0 0zm-20 4508l0 -4508 20 0 0 4508 0 0 -20 0zm97 77l0 20 0 0 -5 0 -5 0 -5 -1 -5 -1 -5 -1 -4 -1 -5 -2 -4 -2 -4 -2 -5 -2 -4 -2 -4 -2 -3 -3 -4 -3 -4 -3 -3 -3 -3 -4 -3 -3 -3 -4 -3 -4 -2 -4 -3 -4 -2 -4 -2 -4 -2 -4 -1 -5 -1 -5 -1 -4 -1 -5 -1 -5 0 -5 0 -5 20 0 0 4 0 4 0 4 1 4 1 3 1 4 1 4 2 3 1 4 2 3 2 3 2 3 2 3 2 3 3 3 2 3 3 2 3 2 2 3 3 2 4 2 3 2 3 1 4 2 3 1 4 2 3 1 4 0 4 1 4 1 4 0 4 0 0 0zm2800 20l-2800 0 0 -20 2800 0 0 0 0 20zm75 -95l20 0 0 0 0 5 0 4 -1 5 0 5 -2 4 -1 5 -1 4 -2 5 -2 4 -2 4 -2 4 -3 4 -3 4 -2 3 -3 4 -4 3 -3 3 -3 3 -4 3 -4 3 -4 2 -4 3 -4 2 -4 2 -4 1 -5 2 -4 1 -5 1 -5 1 -4 1 -5 0 -5 0 0 -20 4 0 4 0 3 -1 4 -1 4 0 3 -1 4 -2 3 -1 4 -1 3 -2 3 -2 3 -2 3 -2 3 -2 3 -3 2 -2 3 -3 2 -2 2 -3 3 -3 2 -3 1 -3 2 -4 2 -3 1 -3 1 -4 1 -4 1 -3 1 -4 0 -4 0 -3 0 -4 0 0zm20 -2203l0 2203 -20 0 0 -2203 0 0 20 0zm-15 2l-9 -18 0 0 1 0 1 -1 2 0 1 0 1 0 1 0 1 0 1 0 1 0 1 0 1 0 1 0 1 1 1 0 1 1 1 0 0 1 1 0 1 1 1 1 0 0 1 1 1 1 0 1 1 1 0 1 1 1 0 1 0 1 0 1 0 1 0 2 -20 0 0 0 0 0 1 0 0 0 0 0 0 1 0 0 0 0 0 0 0 0 0 1 0 0 0 0 1 0 0 0 0 0 0 0 0 0 0 0 0 0 1 0 0 0 0 0 0 1 0 0 1 0 0 0 0 -1 0 0 0 0 0 0 1 0 0 0zm0 0l0 0 -4 2 4 -2zm-35 5l4 -20 0 0 1 0 0 0 1 0 1 0 1 0 0 0 1 0 1 0 1 0 0 0 1 0 1 0 1 0 0 0 1 0 1 0 0 0 1 0 1 0 0 0 1 -1 1 0 0 0 1 0 1 0 1 -1 0 0 1 0 1 0 0 0 1 -1 0 0 9 18 -1 1 -1 0 -1 1 -1 0 -1 0 -1 1 -1 0 -1 0 -1 0 -1 1 -1 0 -2 0 -1 0 -1 1 -1 0 -1 0 -1 0 -1 0 -1 0 -1 0 -1 0 -1 0 -1 0 -2 0 -1 0 -1 0 -1 0 -1 0 -1 0 -1 0 -1 0 -2 0 0 0zm-47 -46l19 -4 0 0 0 1 1 2 0 1 1 1 0 2 1 1 1 1 0 2 1 1 1 1 1 1 0 1 1 1 1 2 1 1 1 1 1 1 2 1 1 0 1 1 1 1 1 1 1 1 2 0 1 1 1 0 2 1 1 0 1 1 2 0 1 1 2 0 -4 20 -2 -1 -2 0 -2 -1 -2 -1 -2 0 -2 -1 -2 -1 -2 -1 -2 -1 -2 -1 -2 -1 -2 -1 -1 -2 -2 -1 -2 -1 -1 -2 -2 -1 -1 -2 -2 -2 -1 -1 -2 -2 -1 -2 -1 -2 -1 -1 -1 -2 -1 -2 -1 -2 -1 -2 -1 -2 0 -3 -1 -2 0 -2 0 0zm58 -72l0 20 0 0 -3 0 -2 1 -2 0 -2 0 -3 1 -2 1 -2 0 -2 1 -1 1 -2 1 -2 1 -2 2 -1 1 -2 2 -1 1 -2 2 -1 1 -1 2 -2 2 -1 2 0 2 -1 2 -1 2 -1 2 0 2 0 2 -1 2 0 3 0 2 0 2 1 3 0 2 -19 4 -1 -3 0 -4 -1 -3 0 -4 0 -3 1 -4 0 -3 1 -3 1 -3 1 -3 1 -3 2 -3 1 -3 2 -3 2 -3 2 -2 2 -2 2 -3 2 -2 3 -2 2 -2 3 -2 3 -1 3 -2 3 -1 3 -1 3 -1 3 -1 3 -1 4 0 3 -1 4 0 0 0zm24 5l-8 19 0 0 -1 0 0 -1 -1 0 0 0 -1 0 0 0 -1 -1 0 0 -1 0 0 0 -1 0 0 0 -1 0 0 -1 -1 0 0 0 -1 0 0 0 -1 0 0 0 -1 0 0 0 -1 0 0 0 -1 -1 0 0 -1 0 0 0 -1 0 0 0 -1 0 0 0 0 -20 0 0 1 0 1 0 1 0 1 0 0 1 1 0 1 0 1 0 0 0 1 0 1 0 1 0 1 0 0 0 1 1 1 0 1 0 0 0 1 0 1 1 1 0 0 0 1 0 1 1 1 0 0 0 1 0 1 1 0 0 1 0 1 0 0 0zm-5 3l20 0 0 0 0 1 0 1 0 2 0 1 0 1 -1 1 0 1 -1 1 0 1 -1 0 0 1 -1 1 -1 1 -1 0 0 1 -1 1 -1 0 -1 1 -1 0 -1 0 -1 1 -1 0 -1 0 -1 0 -1 0 -1 0 -1 0 -1 0 -1 0 -1 -1 -1 0 -1 0 8 -19 0 0 -1 0 0 0 0 0 0 0 0 0 -1 0 0 0 0 0 0 0 0 0 -1 0 0 0 0 1 0 0 0 0 0 0 0 0 0 0 -1 0 0 0 0 1 0 0 0 0 0 0 0 0 0 0 0 1 0 0 -1 0 0 0 0 0 0 0zm20 -2203l0 2203 -20 0 0 -2203 0 0 20 0zm-95 -76l0 -20 0 0 4 0 5 0 5 1 5 1 4 1 5 1 4 2 5 2 4 1 4 3 4 2 4 2 4 3 4 3 3 3 3 3 4 3 3 4 2 3 3 4 3 4 2 4 2 4 2 4 2 5 1 4 1 5 2 4 0 5 1 5 0 5 0 5 -20 0 0 -4 0 -4 0 -4 -1 -4 -1 -3 -1 -4 -1 -3 -1 -4 -2 -3 -2 -3 -1 -4 -2 -3 -3 -3 -2 -2 -2 -3 -3 -3 -2 -2 -3 -3 -3 -2 -3 -2 -3 -2 -3 -2 -4 -2 -3 -1 -3 -1 -4 -2 -3 -1 -4 0 -4 -1 -4 -1 -4 0 -3 0 0 0zm-2855 -20l2855 0 0 20 -2855 0 0 -20z"/>
  </g>
 </g>
</svg>
