<?xml version="1.0" encoding="UTF-8"?>
<!DOCTYPE svg PUBLIC "-//W3C//DTD SVG 1.1//EN" "http://www.w3.org/Graphics/SVG/1.1/DTD/svg11.dtd">
<!-- Creator: CorelDRAW 2020 (64-Bit) -->
<svg xmlns="http://www.w3.org/2000/svg" xml:space="preserve" width="40mm" height="60mm" version="1.1" style="shape-rendering:geometricPrecision; text-rendering:geometricPrecision; image-rendering:optimizeQuality; fill-rule:evenodd; clip-rule:evenodd"
viewBox="0 0 4000 6000"
 xmlns:xlink="http://www.w3.org/1999/xlink"
 xmlns:xodm="http://www.corel.com/coreldraw/odm/2003">
 <defs>
  <style type="text/css">
   <![CDATA[
    .str0 {stroke:black;stroke-width:20;stroke-miterlimit:22.9256}
    .fil0 {fill:none}
   ]]>
  </style>
 </defs>
 <g id="图层_x0020_1">
  <metadata id="CorelCorpID_0Corel-Layer"/>
  <path class="fil0 str0" d="M-17931.71 -1028.93c0,123.03 0,96.05 0,219.07 0,29.13 -15.06,53.67 -39.92,53.67 -494.06,0 -898.29,402.85 -898.29,895.21l0 721.14 0 4277.12 0 721.15c0,492.35 404.23,895.22 898.29,895.22 12.95,0 39.92,18.18 39.92,47.01l0 225.73c0,273.51 224.57,497.34 499.04,497.34l12875.49 0c274.47,0 499.04,-223.81 499.04,-497.34l0 -223.03c0,-22.33 21.39,-49.71 39.93,-49.71 494.06,0 898.29,-402.86 898.29,-895.22l0 -870.34 0 -3978.73 0 -870.34c0,-492.36 -404.23,-895.21 -898.29,-895.21 -22.67,0 -39.93,-21.7 -39.93,-41.2l0 -231.54c0,-273.53 -224.59,-497.34 -499.04,-497.34l-12875.49 0c-274.45,0 -499.04,223.81 -499.04,497.34z"/>
  <path class="fil0 str0" d="M-16065.43 -965.38l0 0c0,-62.91 51.64,-114.39 114.78,-114.39l1966.24 0c63.14,0 114.8,51.48 114.8,114.39l0 0c0,62.92 -51.66,114.39 -114.8,114.39l-1966.24 0c-63.14,0 -114.78,-51.47 -114.78,-114.39z"/>
  <path class="fil0 str0" d="M-13370.81 -965.37l0 -0.02c0,-62.91 51.64,-114.38 114.77,-114.38l868.36 0c63.13,0 114.77,51.47 114.77,114.38l0 0.02c0,62.92 -51.64,114.38 -114.77,114.38l-868.36 0c-63.13,0 -114.77,-51.46 -114.77,-114.38z"/>
  <g id="_1554960221232">
   <path class="fil0 str0" d="M3201.9 929.97c-36.71,0 -28.66,0 -65.37,0 -8.69,0 -16.02,-4.49 -16.02,-11.91 0,-147.43 -120.21,-268.06 -267.14,-268.06l-215.19 0 -1276.35 0 -215.2 0c-146.92,0 -267.14,120.63 -267.14,268.06 0,3.87 -5.43,11.91 -14.03,11.91l-67.36 0c-81.62,0 -148.41,67.02 -148.41,148.92l0 3842.21c0,81.91 66.78,148.92 148.41,148.92l66.55 0c6.67,0 14.84,6.39 14.84,11.92 0,147.43 120.21,268.06 267.14,268.06l259.72 0 1187.3 0 259.72 0c146.93,0 267.14,-120.63 267.14,-268.06 0,-6.77 6.48,-11.92 12.3,-11.92l69.09 0c81.63,0 148.41,-67.02 148.41,-148.92l0 -3842.21c0,-81.9 -66.78,-148.92 -148.41,-148.92z"/>
   <path class="fil0 str0" d="M3182.94 1486.9l0 0c18.77,0 34.13,15.41 34.13,34.25l0 586.75c0,18.84 -15.36,34.26 -34.13,34.26l0 0c-18.78,0 -34.14,-15.42 -34.14,-34.26l0 -586.75c0,-18.84 15.36,-34.25 34.14,-34.25z"/>
   <path class="fil0 str0" d="M3182.94 2291l0 0c18.77,0 34.13,15.41 34.13,34.25l0 259.13c0,18.84 -15.36,34.25 -34.13,34.25l0 0c-18.78,0 -34.14,-15.41 -34.14,-34.25l0 -259.13c0,-18.84 15.36,-34.25 34.14,-34.25z"/>
  </g>
 </g>
</svg>
