<?xml version="1.0" encoding="UTF-8"?>
<!DOCTYPE svg PUBLIC "-//W3C//DTD SVG 1.1//EN" "http://www.w3.org/Graphics/SVG/1.1/DTD/svg11.dtd">
<!-- Creator: CorelDRAW X8 -->
<svg xmlns="http://www.w3.org/2000/svg" xml:space="preserve" width="40mm" height="60mm" version="1.1" style="shape-rendering:geometricPrecision; text-rendering:geometricPrecision; image-rendering:optimizeQuality; fill-rule:evenodd; clip-rule:evenodd"
viewBox="0 0 4000 6000"
 xmlns:xlink="http://www.w3.org/1999/xlink">
 <defs>
  <style type="text/css">
   <![CDATA[
    .str0 {stroke:black;stroke-width:7.62}
    .fil0 {fill:none}
   ]]>
  </style>
 </defs>
 <g id="图层_x0020_1">
  <metadata id="CorelCorpID_0Corel-Layer"/>
  <path class="fil0 str0" d="M1228 755c0,-5 -5,-11 -16,-12 -37,0 -67,31 -67,68 0,37 30,67 67,67 38,0 68,-30 68,-67 0,-37 -30,-68 -68,-68m-200 4563l1882 0c97,0 176,-80 176,-177l0 -4303c0,-97 -79,-176 -176,-176l-483 0c-3,0 -5,1 -7,3l-3 3c-2,2 -4,3 -7,3l-788 0c-3,0 -5,-1 -7,-3l-3 -3c-2,-2 -4,-3 -7,-3l-483 0c-97,0 -176,79 -176,176l0 4303c0,97 79,177 176,177l54 0c78,0 141,14 189,44"/>
 </g>
</svg>
