<?xml version="1.0" encoding="UTF-8"?>
<!DOCTYPE svg PUBLIC "-//W3C//DTD SVG 1.1//EN" "http://www.w3.org/Graphics/SVG/1.1/DTD/svg11.dtd">
<!-- Creator: CorelDRAW X8 -->
<svg xmlns="http://www.w3.org/2000/svg" xml:space="preserve" width="40mm" height="60mm" version="1.1" style="shape-rendering:geometricPrecision; text-rendering:geometricPrecision; image-rendering:optimizeQuality; fill-rule:evenodd; clip-rule:evenodd"
viewBox="0 0 4000 6000"
 xmlns:xlink="http://www.w3.org/1999/xlink">
 <defs>
  <style type="text/css">
   <![CDATA[
    .str0 {stroke:black;stroke-width:7.62}
    .fil0 {fill:none}
   ]]>
  </style>
 </defs>
 <g id="图层_x0020_1">
  <metadata id="CorelCorpID_0Corel-Layer"/>
  <path class="fil0 str0" d="M155 3816c60,56 100,129 122,220 63,298 167,560 316,740 79,95 178,176 284,253 358,249 693,310 1246,321 365,3 793,-24 1073,-247 287,-199 430,-453 528,-840 62,-262 134,-878 118,-1394 -13,-367 -45,-683 -111,-1030 -32,-169 -85,-319 -149,-458 -87,-186 -206,-346 -381,-471 -217,-153 -431,-209 -670,-233 -457,-54 -834,-26 -1204,81 -363,97 -767,409 -921,760 -108,244 -158,446 -189,826 -45,569 -39,1123 60,1692 9,56 2,121 -21,193"/>
 </g>
</svg>
