<?xml version="1.0" encoding="UTF-8"?>
<!DOCTYPE svg PUBLIC "-//W3C//DTD SVG 1.1//EN" "http://www.w3.org/Graphics/SVG/1.1/DTD/svg11.dtd">
<!-- Creator: CorelDRAW X8 -->
<svg xmlns="http://www.w3.org/2000/svg" xml:space="preserve" width="40mm" height="60mm" version="1.1" style="shape-rendering:geometricPrecision; text-rendering:geometricPrecision; image-rendering:optimizeQuality; fill-rule:evenodd; clip-rule:evenodd"
viewBox="0 0 4000 6000"
 xmlns:xlink="http://www.w3.org/1999/xlink">
 <defs>
  <style type="text/css">
   <![CDATA[
    .str0 {stroke:#222222;stroke-width:20}
    .fil0 {fill:none}
   ]]>
  </style>
 </defs>
 <g id="图层_x0020_1">
  <metadata id="CorelCorpID_0Corel-Layer"/>
  <g id="_1895552689392">
   <path class="fil0 str0" d="M1450 5350c0,-25 -113,-85 -252,-85 -139,0 -252,-113 -252,-252l0 -4111c0,-139 113,-252 252,-252l1624 0c138,0 252,113 252,252l0 4111c0,139 -114,252 -252,252l-1896 0"/>
   <path class="fil0 str0" d="M1968 799c0,-14 11,-79 51,-79 40,0 72,32 72,72 0,40 -32,72 -72,72 -40,0 -72,-32 -72,-72 0,-40 32,-72 72,-72"/>
  </g>
  <path class="fil0 str0" d="M-5704 4481c-79,0 -265,356 -265,789 0,434 -355,789 -788,789l-12856 0c-434,0 -788,-355 -788,-789l0 -5077c0,-433 354,-788 788,-788l12856 0c433,0 788,355 788,788l0 5927"/>
  <path class="fil0 str0" d="M-19935 2864c-45,0 -248,-36 -248,-161 0,-124 101,-225 225,-225 125,0 225,101 225,225 0,125 -100,225 -225,225 -124,0 -225,-100 -225,-225"/>
 </g>
</svg>
