<?xml version="1.0" encoding="UTF-8"?>
<!DOCTYPE svg PUBLIC "-//W3C//DTD SVG 1.1//EN" "http://www.w3.org/Graphics/SVG/1.1/DTD/svg11.dtd">
<!-- Creator: CorelDRAW X8 -->
<svg xmlns="http://www.w3.org/2000/svg" xml:space="preserve" width="35.3624mm" height="47.1mm" version="1.1" style="shape-rendering:geometricPrecision; text-rendering:geometricPrecision; image-rendering:optimizeQuality; fill-rule:evenodd; clip-rule:evenodd"
viewBox="0 0 1734 2309"
 xmlns:xlink="http://www.w3.org/1999/xlink">
 <defs>
  <style type="text/css">
   <![CDATA[
    .str0 {stroke:black;stroke-width:9.80649}
    .fil0 {fill:none}
   ]]>
  </style>
 </defs>
 <g id="图层_x0020_1">
  <metadata id="CorelCorpID_0Corel-Layer"/>
  <path class="fil0 str0" d="M1535 2309c0,-12 44,-62 91,-62 47,0 86,-38 86,-85l0 -2071c0,-48 -39,-86 -86,-86l-621 0c-6,0 -10,3 -10,9l0 11c0,9 -8,16 -17,16l-228 0c-9,0 -17,-7 -17,-16l0 -11c0,-4 -2,-9 -10,-9l-632 0c-48,0 -86,38 -86,86l0 2071c0,47 38,85 86,85l1643 0"/>
 </g>
</svg>
