<?xml version="1.0" encoding="UTF-8"?>
<!DOCTYPE svg PUBLIC "-//W3C//DTD SVG 1.1//EN" "http://www.w3.org/Graphics/SVG/1.1/DTD/svg11.dtd">
<!-- Creator: CorelDRAW 2020 (64-Bit) -->
<svg xmlns="http://www.w3.org/2000/svg" xml:space="preserve" width="40mm" height="60mm" version="1.1" style="shape-rendering:geometricPrecision; text-rendering:geometricPrecision; image-rendering:optimizeQuality; fill-rule:evenodd; clip-rule:evenodd"
viewBox="0 0 4000 6000"
 xmlns:xlink="http://www.w3.org/1999/xlink"
 xmlns:xodm="http://www.corel.com/coreldraw/odm/2003">
 <defs>
  <style type="text/css">
   <![CDATA[
    .str1 {stroke:#332C2B;stroke-width:20;stroke-miterlimit:22.9256}
    .str0 {stroke:#332C2B;stroke-width:20;stroke-miterlimit:22.9256}
    .fil0 {fill:none}
   ]]>
  </style>
 </defs>
 <g id="图层_x0020_1">
  <metadata id="CorelCorpID_0Corel-Layer"/>
  <path class="fil0 str0" d="M7573.94 7900.66l16271.88 0 0 -933.05c0,243.51 199.22,442.73 442.73,442.73l0.01 0c243.51,0 442.73,-199.22 442.73,-442.73l0 -6919.77c0,-243.51 -199.22,-442.73 -442.73,-442.73l-0.01 0c-243.51,0 -442.73,199.22 -442.73,442.73l0 -913.79 -16271.88 0 0 913.79c0,-243.51 -199.22,-442.73 -442.73,-442.73l-0.01 0c-243.51,0 -442.73,199.22 -442.73,442.73l0 6919.77c0,243.51 199.22,442.73 442.73,442.73l0.01 0c243.51,0 442.73,-199.22 442.73,-442.73l0 933.05zm-625.82 -3050.31c0,-89.19 72.31,-161.5 161.5,-161.5 89.19,0 161.5,72.31 161.5,161.5 0,89.19 -72.31,161.5 -161.5,161.5 -89.19,0 -161.5,-72.31 -161.5,-161.5zm3498.56 2792.48l0 0c0,-95.8 78.38,-174.18 174.18,-174.18l1854.3 0c95.8,0 174.18,78.38 174.18,174.18l0 0c0,95.8 -78.38,174.18 -174.18,174.18l-1854.3 0c-95.8,0 -174.18,-78.38 -174.18,-174.18zm2918.13 0l0 0c0,-95.8 78.38,-174.18 174.18,-174.18l1008.73 0c95.8,0 174.18,78.38 174.18,174.18l0 0c0,95.8 -78.38,174.18 -174.18,174.18l-1008.73 0c-95.8,0 -174.18,-78.38 -174.18,-174.18zm10916.25 -1620.11l-0.02 0c-129.16,0 -234.81,-105.66 -234.81,-234.81l0 -1478.93c0,-129.15 105.65,-234.81 234.81,-234.81l0.02 0c129.16,0 234.81,105.66 234.81,234.81l0 1478.93c0,129.15 -105.65,234.81 -234.81,234.81zm0 -2048.33l-0.02 0c-108.54,0 -197.33,-88.79 -197.33,-197.33l0 -579.62c0,-108.54 88.79,-197.33 197.33,-197.33l0.02 0c108.54,0 197.33,88.79 197.33,197.33l0 579.62c0,108.54 -88.79,197.33 -197.33,197.33zm7.72 -1154.79l-15.46 0c-69.12,0 -125.67,-56.55 -125.67,-125.67l0 -0.02c0,-69.12 56.55,-125.67 125.67,-125.67l15.46 0c69.12,0 125.67,56.55 125.67,125.67l0 0.02c0,69.12 -56.55,125.67 -125.67,125.67zm28.72 -498.31l-101.56 0c-88.49,0 -160.89,-72.4 -160.89,-160.89l0 -778.99c0,-88.49 72.4,-160.89 160.89,-160.89l101.56 0c88.49,0 160.89,72.4 160.89,160.89l0 778.99c0,88.49 -72.4,160.89 -160.89,160.89zm36.94 -1561.86l-153.41 0c-133.67,0 -243.01,-109.35 -243.01,-243.01l0 -400.88c0,-133.66 109.34,-243.01 243.01,-243.01l153.41 0c133.67,0 243.01,109.35 243.01,243.01l0 400.88c0,133.66 -109.34,243.01 -243.01,243.01z"/>
  <rect class="fil0 str1" transform="matrix(3.21968E-14 -1.21568 1.0079 2.66937E-14 8042.14 6764.62)" width="1358.2" height="5238.76" rx="945.97" ry="945.97"/>
  <rect class="fil0 str1" transform="matrix(2.09022E-14 -0.789221 0.556869 1.47484E-14 8316.4 4791.83)" width="1358.2" height="5238.76" rx="945.97" ry="945.97"/>
  <g id="_1649610522448">
   <path class="fil0 str0" d="M851.59 886.33l0 4238.68 243.05 0c-63.43,0 -115.33,51.9 -115.33,115.33l0 0c0,63.43 51.9,115.33 115.33,115.33l1802.54 0c63.43,0 115.33,-51.9 115.33,-115.33l0 0c0,-63.43 -51.9,-115.33 -115.33,-115.33l238.04 0 0 -4238.68 -238.04 0c63.43,0 115.33,-51.9 115.33,-115.33l0 0c0,-63.43 -51.9,-115.33 -115.33,-115.33l-1802.54 0c-63.43,0 -115.33,51.9 -115.33,115.33l0 0c0,63.43 51.9,115.33 115.33,115.33l-243.05 0zm794.58 -163.02c23.23,0 42.07,18.83 42.07,42.07 0,23.23 -18.84,42.07 -42.07,42.07 -23.24,0 -42.07,-18.84 -42.07,-42.07 0,-23.24 18.83,-42.07 42.07,-42.07zm-727.42 911.34l0 0c24.95,0 45.37,20.42 45.37,45.37l0 483.03c0,24.96 -20.42,45.38 -45.37,45.38l0 0c-24.96,0 -45.37,-20.42 -45.37,-45.38l0 -483.03c0,-24.95 20.41,-45.37 45.37,-45.37zm0 760.15l0 0c24.95,0 45.37,20.42 45.37,45.37l0 262.77c0,24.95 -20.42,45.37 -45.37,45.37l0 0c-24.96,0 -45.37,-20.42 -45.37,-45.37l0 -262.77c0,-24.95 20.41,-45.37 45.37,-45.37zm422.02 2843.59l0 -0.01c0,-33.64 27.53,-61.16 61.17,-61.16l385.25 0c33.64,0 61.17,27.52 61.17,61.16l0 0.01c0,33.64 -27.53,61.16 -61.17,61.16l-385.25 0c-33.64,0 -61.17,-27.52 -61.17,-61.16zm533.58 0l0 -0.01c0,-28.27 23.13,-51.4 51.4,-51.4l150.99 0c28.27,0 51.4,23.13 51.4,51.4l0 0.01c0,28.27 -23.13,51.4 -51.4,51.4l-150.99 0c-28.27,0 -51.4,-23.13 -51.4,-51.4zm300.81 2.01l0 -4.03c0,-18 14.73,-32.73 32.74,-32.73l0 0c18.01,0 32.74,14.73 32.74,32.73l0 4.03c0,18.01 -14.73,32.74 -32.74,32.74l0 0c-18.01,0 -32.74,-14.73 -32.74,-32.74zm129.81 7.48l0 -26.45c0,-23.06 18.86,-41.91 41.91,-41.91l202.92 0c23.05,0 41.91,18.85 41.91,41.91l0 26.45c0,23.05 -18.86,41.91 -41.91,41.91l-202.92 0c-23.05,0 -41.91,-18.86 -41.91,-41.91zm406.85 9.62l0 -39.96c0,-34.82 28.48,-63.3 63.3,-63.3l104.43 0c34.81,0 63.3,28.48 63.3,63.3l0 39.96c0,34.82 -28.49,63.31 -63.3,63.31l-104.43 0c-34.82,0 -63.3,-28.49 -63.3,-63.31z"/>
   <rect class="fil0 str1" x="1147.52" y="1008.29" width="430.11" height="1375.43" rx="299.57" ry="248.36"/>
   <rect class="fil0 str1" x="1661.41" y="1079.73" width="279.23" height="759.93" rx="194.48" ry="137.22"/>
  </g>
 </g>
</svg>
