<?xml version="1.0" encoding="UTF-8"?>
<!DOCTYPE svg PUBLIC "-//W3C//DTD SVG 1.1//EN" "http://www.w3.org/Graphics/SVG/1.1/DTD/svg11.dtd">
<!-- Creator: CorelDRAW X8 -->
<svg xmlns="http://www.w3.org/2000/svg" xml:space="preserve" width="40mm" height="60mm" version="1.1" style="shape-rendering:geometricPrecision; text-rendering:geometricPrecision; image-rendering:optimizeQuality; fill-rule:evenodd; clip-rule:evenodd"
viewBox="0 0 4000 6000"
 xmlns:xlink="http://www.w3.org/1999/xlink">
 <defs>
  <style type="text/css">
   <![CDATA[
    .str0 {stroke:black;stroke-width:7.62}
    .fil0 {fill:none;fill-rule:nonzero}
   ]]>
  </style>
 </defs>
 <g id="图层_x0020_1">
  <metadata id="CorelCorpID_0Corel-Layer"/>
  <g>
   <path class="fil0 str0" d="M895 5163l0 -4326c0,-103 84,-187 187,-187l1836 0c103,0 187,84 187,187l0 4326c0,103 -84,187 -187,187l-1836 0c-103,0 -187,-84 -187,-187zm942 -4373l0 0c0,-17 14,-31 31,-31l264 0c17,0 31,14 31,31l0 0c0,17 -14,31 -31,31l-264 0c-17,0 -31,-14 -31,-31zm474 55c-30,0 -54,-25 -54,-55 0,-30 24,-54 54,-54 30,0 55,24 55,54 0,30 -25,55 -55,55zm-614 0c-31,0 -55,-25 -55,-55 0,-30 24,-54 55,-54 30,0 54,24 54,54 0,30 -24,55 -54,55z"/>
  </g>
 </g>
</svg>
