<?xml version="1.0" encoding="UTF-8"?>
<!DOCTYPE svg PUBLIC "-//W3C//DTD SVG 1.1//EN" "http://www.w3.org/Graphics/SVG/1.1/DTD/svg11.dtd">
<!-- Creator: CorelDRAW X8 -->
<svg xmlns="http://www.w3.org/2000/svg" xml:space="preserve" width="40mm" height="60mm" version="1.1" style="shape-rendering:geometricPrecision; text-rendering:geometricPrecision; image-rendering:optimizeQuality; fill-rule:evenodd; clip-rule:evenodd"
viewBox="0 0 4000 6000"
 xmlns:xlink="http://www.w3.org/1999/xlink">
 <defs>
  <style type="text/css">
   <![CDATA[
    .str0 {stroke:#222222;stroke-width:20}
    .fil0 {fill:none}
   ]]>
  </style>
 </defs>
 <g id="图层_x0020_1">
  <metadata id="CorelCorpID_0Corel-Layer"/>
  <g id="_2271728404512">
   <g>
    <path class="fil0 str0" d="M1224 5121l1552 0c103,0 187,-84 187,-187l0 -3868c0,-103 -84,-187 -187,-187l-1552 0c-103,0 -187,84 -187,187l0 3868c0,103 84,187 187,187z"/>
    <path class="fil0 str0" d="M1970 981c0,-5 11,-65 42,-65 30,0 55,25 55,55 0,31 -25,56 -55,56 -31,0 -56,-25 -56,-56 0,-30 25,-55 56,-55"/>
   </g>
   <path class="fil0 str0" d="M3024 5296c0,-10 11,-68 44,-68 34,0 61,28 61,61 0,34 -27,61 -61,61 -33,0 -60,-27 -60,-61 0,-33 27,-61 60,-61"/>
   <path class="fil0 str0" d="M886 5296c0,-10 11,-68 44,-68 34,0 61,28 61,61 0,34 -27,61 -61,61 -33,0 -60,-27 -60,-61 0,-33 27,-61 60,-61"/>
   <path class="fil0 str0" d="M3112 718c0,-11 11,-68 44,-68 34,0 61,27 61,61 0,33 -27,61 -61,61 -33,0 -60,-28 -60,-61 0,-34 27,-61 60,-61"/>
   <path class="fil0 str0" d="M799 718c0,-11 11,-68 45,-68 33,0 60,27 60,61 0,33 -27,61 -60,61 -34,0 -61,-28 -61,-61 0,-34 27,-61 61,-61"/>
  </g>
  <g id="_2271728404384">
   <path class="fil0 str0" d="M-9476 5887l0 -5774c0,-383 -313,-696 -696,-696l-14391 0c-383,0 -696,313 -696,696l0 5774c0,383 313,696 696,696l14391 0c383,0 696,-313 696,-696z"/>
   <path class="fil0 str0" d="M-24878 3112c-19,0 -242,-41 -242,-155 0,-115 92,-207 207,-207 114,0 207,92 207,207 0,114 -93,207 -207,207 -115,0 -207,-93 -207,-207"/>
  </g>
  <path class="fil0 str0" d="M-8826 -809c-39,0 -252,-41 -252,-166 0,-124 101,-226 226,-226 125,0 226,102 226,226 0,125 -101,226 -226,226 -125,0 -226,-101 -226,-226"/>
  <path class="fil0 str0" d="M-8826 7144c-39,0 -252,-40 -252,-165 0,-125 101,-226 226,-226 125,0 226,101 226,226 0,125 -101,226 -226,226 -125,0 -226,-101 -226,-226"/>
  <path class="fil0 str0" d="M-25857 -1135c-39,0 -252,-41 -252,-166 0,-125 101,-226 226,-226 125,0 226,101 226,226 0,125 -101,226 -226,226 -125,0 -226,-101 -226,-226"/>
  <path class="fil0 str0" d="M-25857 7467c-39,0 -252,-41 -252,-166 0,-125 101,-226 226,-226 125,0 226,101 226,226 0,125 -101,226 -226,226 -125,0 -226,-101 -226,-226"/>
 </g>
</svg>
