<?xml version="1.0" encoding="UTF-8"?>
<!DOCTYPE svg PUBLIC "-//W3C//DTD SVG 1.1//EN" "http://www.w3.org/Graphics/SVG/1.1/DTD/svg11.dtd">
<!-- Creator: CorelDRAW X8 -->
<svg xmlns="http://www.w3.org/2000/svg" xml:space="preserve" width="40mm" height="60mm" version="1.1" style="shape-rendering:geometricPrecision; text-rendering:geometricPrecision; image-rendering:optimizeQuality; fill-rule:evenodd; clip-rule:evenodd"
viewBox="0 0 4000 6000"
 xmlns:xlink="http://www.w3.org/1999/xlink">
 <defs>
  <style type="text/css">
   <![CDATA[
    .str0 {stroke:black;stroke-width:7.62}
    .fil0 {fill:none}
   ]]>
  </style>
 </defs>
 <g id="图层_x0020_1">
  <metadata id="CorelCorpID_0Corel-Layer"/>
  <path class="fil0 str0" d="M2021 726c0,-5 -5,-11 -16,-12 -37,0 -67,31 -67,68 0,37 30,67 67,67 37,0 68,-30 68,-67 0,-37 -31,-68 -68,-68m-976 4625l1870 0c82,0 150,-67 150,-150l0 -4389c0,-83 -68,-150 -150,-150l-1798 0c-82,0 -150,67 -150,150l0 4389c0,83 68,150 150,150l16 0c9,0 23,5 28,11"/>
 </g>
</svg>
