<?xml version="1.0" encoding="UTF-8"?>
<!DOCTYPE svg PUBLIC "-//W3C//DTD SVG 1.1//EN" "http://www.w3.org/Graphics/SVG/1.1/DTD/svg11.dtd">
<!-- Creator: CorelDRAW 2020 (64-Bit) -->
<svg xmlns="http://www.w3.org/2000/svg" xml:space="preserve" width="40mm" height="60mm" version="1.1" style="shape-rendering:geometricPrecision; text-rendering:geometricPrecision; image-rendering:optimizeQuality; fill-rule:evenodd; clip-rule:evenodd"
viewBox="0 0 4000 6000"
 xmlns:xlink="http://www.w3.org/1999/xlink"
 xmlns:xodm="http://www.corel.com/coreldraw/odm/2003">
 <defs>
  <style type="text/css">
   <![CDATA[
    .str0 {stroke:#E72D28;stroke-width:20;stroke-miterlimit:22.9256}
    .str1 {stroke:#222222;stroke-width:20;stroke-miterlimit:22.9256}
    .fil0 {fill:none}
   ]]>
  </style>
   <clipPath id="id0">
    <rect x="-34390.16" y="-6686.69" width="11362.08" height="16147.83"/>
   </clipPath>
 </defs>
 <g id="图层_x0020_1">
  <metadata id="CorelCorpID_0Corel-Layer"/>
  <g style="clip-path:url(#id0)">
   <image x="-34390.16" y="-6686.69" width="11362.08" height="16147.83" xlink:href="lris 59-11i（前膜全屏）_Images\lris 59-11i（前膜全屏）_ImgID1.png"/>
  </g>
  <rect class="fil0 str0" x="-30837.88" y="-6435.17" width="7380" height="15560"/>
  <path class="fil0 str0" d="M-29781.64 -6202.34l1701.94 0c57.78,0 79.45,86.95 127.64,86.95l374.41 0c119.53,0 107.23,139.47 107.23,225.23 0,193.61 156.96,350.57 350.57,350.57 193.61,0 350.57,-156.96 350.57,-350.57 0,-85.76 2.26,-225.23 107.9,-225.23l368.27 0c48.19,0 71.5,-86.95 117.71,-86.95l1661.28 0c467.5,0 850,382.51 850,850l0 13446.39c0,467.5 -382.5,850 -850,850l-5267.52 0c-467.5,0 -850,-382.5 -850,-850l0 -13446.39c0,-467.5 382.5,-850 850,-850z"/>
  <path class="fil0 str1" d="M-2773.92 6167.74l0 -5704.08c0,-467.49 -382.51,-850 -850,-850l-13446.39 0c-467.49,0 -850,382.5 -850,850l0 1661.28c0,46.21 86.95,69.52 86.95,117.71l0 368.27c0,105.64 139.47,107.9 225.23,107.9 193.61,0 350.57,156.96 350.57,350.57 0,193.61 -156.96,350.57 -350.57,350.57 -85.76,0 -225.23,-12.3 -225.23,107.23l0 374.41c0,48.19 -86.95,69.86 -86.95,127.64l0 1701.94c0,467.5 382.5,850 850,850l13446.39 0c467.5,0 850,-382.5 850,-850 0,-467.5 68.5,-871.63 199.47,-1092.57"/>
  <path class="fil0 str1" d="M1052.52 5289.44l1746.99 0c143.18,0 260.34,-117.15 260.34,-260.33l0 -4118.25c0,-143.18 -117.15,-260.33 -260.34,-260.33l-508.8 0c-14.15,0 -21.29,26.63 -36.05,26.63l-112.79 0c-32.35,0 -33.05,42.72 -33.05,68.98 0,59.3 -48.07,107.37 -107.37,107.37 -59.29,0 -107.36,-48.07 -107.36,-107.37 0,-26.26 3.76,-68.98 -32.85,-68.98l-114.67 0c-14.76,0 -21.39,-26.63 -39.09,-26.63l-521.25 0c-143.19,0 -260.34,117.15 -260.34,260.33l0 4118.25c0,143.18 117.15,260.33 260.34,260.33 143.18,0 266.95,20.98 334.62,61.09"/>
 </g>
</svg>
