<?xml version="1.0" encoding="UTF-8"?>
<!DOCTYPE svg PUBLIC "-//W3C//DTD SVG 1.1//EN" "http://www.w3.org/Graphics/SVG/1.1/DTD/svg11.dtd">
<!-- Creator: CorelDRAW X8 -->
<svg xmlns="http://www.w3.org/2000/svg" xml:space="preserve" width="40mm" height="60mm" version="1.1" style="shape-rendering:geometricPrecision; text-rendering:geometricPrecision; image-rendering:optimizeQuality; fill-rule:evenodd; clip-rule:evenodd"
viewBox="0 0 4000 6000"
 xmlns:xlink="http://www.w3.org/1999/xlink">
 <defs>
  <style type="text/css">
   <![CDATA[
    .str0 {stroke:black;stroke-width:20}
    .fil0 {fill:none}
   ]]>
  </style>
 </defs>
 <g id="图层_x0020_1">
  <metadata id="CorelCorpID_0Corel-Layer"/>
  <path class="fil0 str0" d="M1185 653l1615 -3c155,0 269,130 270,286l22 4122c0,155 -112,285 -268,286l-1639 6c-155,1 -264,-115 -264,-271l-13 -4155c0,-156 122,-271 277,-271zm-27 95l382 0c34,0 62,28 62,62l0 16c0,34 -28,62 -62,62l-382 0c-35,0 -63,-28 -63,-62l0 -16c0,-34 28,-62 63,-62z"/>
 </g>
</svg>
