<?xml version="1.0" encoding="UTF-8"?>
<!DOCTYPE svg PUBLIC "-//W3C//DTD SVG 1.1//EN" "http://www.w3.org/Graphics/SVG/1.1/DTD/svg11.dtd">
<!-- Creator: CorelDRAW 2020 (64-Bit) -->
<svg xmlns="http://www.w3.org/2000/svg" xml:space="preserve" width="40mm" height="60mm" version="1.1" style="shape-rendering:geometricPrecision; text-rendering:geometricPrecision; image-rendering:optimizeQuality; fill-rule:evenodd; clip-rule:evenodd"
viewBox="0 0 4000 6000"
 xmlns:xlink="http://www.w3.org/1999/xlink"
 xmlns:xodm="http://www.corel.com/coreldraw/odm/2003">
 <defs>
  <style type="text/css">
   <![CDATA[
    .str1 {stroke:#332C2B;stroke-width:20;stroke-miterlimit:22.9256}
    .str2 {stroke:#332C2B;stroke-width:20;stroke-miterlimit:22.9256}
    .str0 {stroke:#E62129;stroke-width:20;stroke-miterlimit:22.9256}
    .fil0 {fill:none}
   ]]>
  </style>
   <clipPath id="id0">
    <rect x="-66966.46" y="-8712.89" width="14654.94" height="16353.27"/>
   </clipPath>
   <clipPath id="id1">
    <rect x="-45055.67" y="-8807.86" width="14630.1" height="16493.12"/>
   </clipPath>
 </defs>
 <g id="图层_x0020_1">
  <metadata id="CorelCorpID_0Corel-Layer"/>
  <g style="clip-path:url(#id0)">
   <image x="-66966.46" y="-8712.89" width="14654.94" height="16353.27" xlink:href="Magic Vs Ultimate -11i(背膜)_Images\Magic Vs Ultimate -11i(背膜)_ImgID1.png"/>
  </g>
  <g style="clip-path:url(#id1)">
   <image x="-45055.67" y="-8807.86" width="14630.1" height="16493.12" xlink:href="Magic Vs Ultimate -11i(背膜)_Images\Magic Vs Ultimate -11i(背膜)_ImgID2.png"/>
  </g>
  <rect class="fil0 str0" x="-44844.99" y="-8558.77" width="14150" height="16030"/>
  <path class="fil0 str0" d="M-37394.28 -8315.35l5955.14 0c357.5,0 650,292.51 650,650l0 14231.3c0,357.49 -292.5,649.99 -650,649.99l-5955.14 0c-110,0 -200,-89.99 -200,-200l0 -15131.28c0,-110.01 90,-200.01 200,-200.01z"/>
  <circle class="fil0 str1" cx="-34208.11" cy="-7787.21" r="166.69"/>
  <path class="fil0 str0" d="M-38154.07 -8348.5l-5955.14 0c-357.5,0 -650,292.5 -650,650.01l0 14297.58c0,357.51 292.5,650 650,650l5955.14 0c110,0 200,-90 200,-200l0 -15197.59c0,-109.99 -90,-200 -200,-200z"/>
  <path class="fil0 str1" d="M-43733.75 -8024.63l1781.31 0c110,0 200,90 200,200l0 4504.51c0,357.5 -292.5,650 -650,650l-1781.31 0c-110,0 -200,-90 -200,-200l0 -4504.51c0,-357.5 292.5,-650 650,-650z"/>
  <rect class="fil0 str1" x="-41619.33" y="-4418.35" width="357.19" height="1074.21" rx="200" ry="196.13"/>
  <rect class="fil0 str0" x="-66815.46" y="-8558.77" width="14150" height="16030"/>
  <rect class="fil0 str0" x="-66456.14" y="-8161.9" width="13431.36" height="15272.76" rx="400" ry="360.9"/>
  <circle class="fil0 str1" cx="-56390.2" cy="-7769.97" r="203.73"/>
  <path class="fil0 str2" d="M-3664.96 3798.06l0 -6391.7c0,-110 -90,-200 -200,-200l-15197.59 0c-109.99,0 -200,90 -200,200l0 5955.14c0,357.5 292.5,650 650.01,650l14297.58 0c357.51,0 650,-292.5 650,-650 0,-357.5 38.54,-552.91 115.93,-648.82"/>
  <path class="fil0 str2" d="M-18938.68 2986.04c0,357.5 292.5,650 650,650l4504.51 0c110,0 200,-90 200,-200l0 -1781.31c0,-357.5 -292.5,-650 -650,-650l-4504.51 0c-110,0 -200,90 -200,200l0 1781.31c0,0 9.74,-785.91 200.24,-932.76"/>
  <path class="fil0 str2" d="M-15332.4 693.03c0,98.23 80.36,178.59 178.59,178.59l717.03 0c98.23,0 178.59,-80.36 178.59,-178.59l0 -0.01c0,-98.23 -80.36,-178.59 -178.59,-178.59l-717.03 0c-98.24,0 -178.59,80.36 -178.59,178.6 0,98.24 117.87,132.57 176.74,134.56"/>
  <g id="_2265736610080">
   <path class="fil0 str2" d="M1039.52 5320.99l1911.78 0c32.91,0 59.82,-26.91 59.82,-59.82l0 -4545.68c0,-32.9 -26.91,-59.82 -59.82,-59.82l-1781.21 0c-106.93,0 -194.41,87.49 -194.41,194.42l0 4276.49c0,106.93 87.48,194.41 194.41,194.41 106.93,0 165.38,11.53 194.07,34.68"/>
   <path class="fil0 str2" d="M1282.4 752.54c-106.93,0 -194.42,87.49 -194.42,194.42l0 1347.32c0,32.91 26.92,59.82 59.82,59.82l532.8 0c106.93,0 194.41,-87.48 194.41,-194.41l0 -1347.33c0,-32.9 -26.92,-59.82 -59.82,-59.82l-532.79 0c0,0 235.06,2.91 278.99,59.89"/>
   <path class="fil0 str2" d="M1968.25 1831.2c-29.39,0 -53.42,24.04 -53.42,53.42l0 214.46c0,29.39 24.03,53.42 53.42,53.42l0 0c29.38,0 53.42,-24.03 53.42,-53.42l0 -214.46c0,-29.39 -24.04,-53.42 -53.42,-53.42 -29.39,0 -39.66,35.25 -40.25,52.86"/>
  </g>
 </g>
</svg>
