<?xml version="1.0" encoding="UTF-8"?>
<!DOCTYPE svg PUBLIC "-//W3C//DTD SVG 1.1//EN" "http://www.w3.org/Graphics/SVG/1.1/DTD/svg11.dtd">
<!-- Creator: CorelDRAW X8 -->
<svg xmlns="http://www.w3.org/2000/svg" xml:space="preserve" width="40mm" height="60mm" version="1.1" style="shape-rendering:geometricPrecision; text-rendering:geometricPrecision; image-rendering:optimizeQuality; fill-rule:evenodd; clip-rule:evenodd"
viewBox="0 0 4000 6000"
 xmlns:xlink="http://www.w3.org/1999/xlink">
 <defs>
  <style type="text/css">
   <![CDATA[
    .str0 {stroke:#332C2B;stroke-width:7.62}
    .fil0 {fill:none}
   ]]>
  </style>
 </defs>
 <g id="图层_x0020_1">
  <metadata id="CorelCorpID_0Corel-Layer"/>
  <path class="fil0 str0" d="M902 5350c-24,-20 -73,-26 -108,-26 -75,0 -136,-61 -136,-135l0 -4404c0,-74 61,-135 136,-135l2413 0c74,0 135,61 135,135l0 4404c0,74 -61,135 -135,135l-2494 0m357 -4547c2,-40 -46,-72 -64,-73 -61,0 -111,50 -111,111 0,62 50,112 111,112 62,0 112,-50 112,-112 0,-61 -50,-111 -112,-111"/>
 </g>
</svg>
