<?xml version="1.0" encoding="UTF-8"?>
<!DOCTYPE svg PUBLIC "-//W3C//DTD SVG 1.1//EN" "http://www.w3.org/Graphics/SVG/1.1/DTD/svg11.dtd">
<!-- Creator: CorelDRAW X8 -->
<svg xmlns="http://www.w3.org/2000/svg" xml:space="preserve" width="40mm" height="60mm" version="1.1" style="shape-rendering:geometricPrecision; text-rendering:geometricPrecision; image-rendering:optimizeQuality; fill-rule:evenodd; clip-rule:evenodd"
viewBox="0 0 4000 6000"
 xmlns:xlink="http://www.w3.org/1999/xlink">
 <defs>
  <style type="text/css">
   <![CDATA[
    .str0 {stroke:#332C2B;stroke-width:20}
    .str2 {stroke:#332C2B;stroke-width:10}
    .str1 {stroke:#322C2A;stroke-width:20}
    .fil0 {fill:none}
    .fil1 {fill:none;fill-rule:nonzero}
    .fil2 {fill:#322C2A;fill-rule:nonzero}
   ]]>
  </style>
 </defs>
 <g id="图层_x0020_1">
  <metadata id="CorelCorpID_0Corel-Layer"/>
  <path class="fil0 str0" d="M-200 5463c-16,-9 -231,91 -231,358 0,1 0,10 0,10 0,401 -328,730 -730,730l-13023 0c-402,0 -730,-329 -730,-730l0 -5257c0,-402 328,-730 730,-730l13023 0c402,0 730,328 730,730l0 6077"/>
  <path class="fil1 str1" d="M-14510 2278c-149,-4 -165,143 -165,143 -19,200 43,389 43,389l0 744m150 -271c0,-34 -151,12 -150,261 0,1 0,10 0,10 0,68 55,123 123,123 67,0 122,-55 122,-123l0 -744 -1 -1c3,-8 61,-192 43,-388 0,0 -16,-147 -165,-143l0 0"/>
  <g id="_1466402506144">
   <path class="fil0 str2" d="M1292 5350c3,-5 -29,-74 -114,-74 -1,0 -3,0 -3,0 -128,0 -233,-105 -233,-233l0 -4160c0,-128 105,-233 233,-233l1679 0c128,0 233,105 233,233l0 4160c0,128 -105,233 -233,233l-1941 0"/>
   <g>
    <path class="fil2" d="M2263 731l1 -9 0 0 1 0 0 0 1 0 1 0 1 0 1 0 2 1 2 0 1 1 2 0 2 1 3 1 2 1 2 1 3 1 2 2 2 1 3 2 2 2 2 2 2 2 3 3 2 2 1 3 2 3 2 4 1 3 1 4 1 4 0 4 1 5 0 4 -10 0 0 -4 -1 -4 0 -3 -1 -4 -1 -3 -1 -3 -1 -2 -1 -3 -2 -2 -1 -2 -2 -2 -2 -2 -2 -2 -1 -1 -2 -2 -2 -1 -2 -1 -2 -1 -2 -1 -2 -1 -2 -1 -2 0 -1 -1 -2 0 -2 -1 -1 0 -1 0 -1 0 -1 0 0 0 -1 -1 0 0 0 0zm1 -9l0 0 0 -1 0 1zm-124 23l0 -10 -2 0 0 0 1 0 1 0 1 -1 2 0 1 -1 3 0 2 -1 3 0 3 -1 3 -1 3 -1 4 -1 4 0 4 -1 4 -1 4 -1 5 0 5 -1 5 -1 5 0 5 -1 6 -1 5 0 6 0 6 -1 5 0 6 0 6 0 6 1 6 0 6 1 -1 9 -5 0 -6 0 -6 -1 -6 0 -5 0 -6 0 -6 1 -5 0 -5 0 -6 1 -5 0 -5 1 -5 1 -4 0 -5 1 -4 1 -4 1 -4 0 -4 1 -4 1 -3 1 -3 1 -3 0 -3 1 -2 1 -2 0 -2 1 -1 0 -1 0 -1 1 -1 0 0 0 -1 0zm1 0l0 0 -1 0 1 0zm-239 -10l238 0 0 10 -238 0 0 -10zm3 10l0 -10 0 0 8 0 7 1 7 0 6 1 6 1 6 2 5 1 5 2 5 2 4 2 4 2 4 2 4 2 3 3 3 2 2 2 3 3 2 2 2 3 1 2 2 3 1 2 1 2 0 2 1 3 0 2 0 2 -1 2 -1 2 -2 2 -2 1 -2 0 -1 -10 0 0 -1 1 0 0 0 0 0 0 0 0 0 -1 -1 -1 0 -2 -1 -1 0 -2 -1 -2 -2 -1 -1 -2 -2 -2 -2 -2 -2 -2 -2 -3 -3 -2 -3 -2 -4 -2 -3 -1 -4 -2 -4 -2 -5 -1 -5 -2 -5 -1 -6 -1 -6 -1 -6 0 -7 -1 -7 0 0 0zm0 0l0 0 0 0 0 0zm-3 0l0 -10 0 0 0 0 0 0 0 0 0 0 0 0 0 0 0 0 1 0 0 0 0 0 0 0 0 0 0 0 0 0 0 0 1 0 0 0 0 0 0 0 0 0 0 0 0 0 1 0 0 0 0 0 0 0 0 0 0 0 0 0 0 0 0 0 0 0 0 10 0 0 0 0 0 0 0 0 0 0 0 0 0 0 0 0 0 0 -1 0 0 0 0 0 0 0 0 0 0 0 0 0 -1 0 0 0 0 0 0 0 0 0 0 0 0 0 0 0 -1 0 0 0 0 0 0 0 0 0 0 0 0 0 0 0 0 0zm-34 34l-10 0 0 0 0 -2 0 -2 0 -2 1 -3 0 -2 1 -2 1 -2 0 -2 1 -2 1 -2 1 -2 1 -1 2 -2 1 -2 1 -1 2 -2 1 -1 2 -2 2 -1 1 -1 2 -2 2 -1 2 -1 2 0 2 -1 2 -1 2 -1 2 0 2 0 3 -1 2 0 2 0 0 10 -2 0 -1 0 -2 0 -2 1 -1 0 -2 1 -2 0 -1 1 -2 0 -1 1 -2 1 -1 1 -1 1 -2 1 -1 1 -1 1 -1 1 -1 2 -1 1 -1 1 -1 2 -1 1 -1 1 0 2 -1 2 -1 1 0 2 0 1 -1 2 0 2 0 2 0 1 0 0zm34 34l0 10 0 0 -2 0 -2 0 -3 0 -2 -1 -2 0 -2 -1 -2 0 -2 -1 -2 -1 -2 -1 -2 -1 -2 -1 -1 -1 -2 -2 -2 -1 -1 -2 -2 -1 -1 -2 -1 -1 -2 -2 -1 -2 -1 -2 -1 -2 -1 -2 0 -2 -1 -2 -1 -2 0 -2 -1 -2 0 -2 0 -2 0 -3 10 0 0 2 0 2 0 1 1 2 0 2 0 1 1 2 1 1 0 2 1 1 1 2 1 1 1 2 1 1 1 1 1 1 1 1 1 1 2 2 1 0 1 1 2 1 1 1 2 1 1 0 2 1 2 0 1 1 2 0 2 0 1 0 2 0 0 0zm238 10l-238 0 0 -10 238 0 1 10 -1 0zm1 0l-1 0 0 0 1 0zm0 0l0 0 -2 -10 0 0 3 0 -1 10zm-2 -10l1 0 2 0 -3 0zm124 14l1 10 0 0 -6 0 -5 1 -6 0 -6 0 -6 0 -6 0 -5 0 -6 -1 -5 0 -5 -1 -6 0 -5 -1 -5 0 -4 -1 -5 -1 -4 -1 -5 0 -4 -1 -4 -1 -3 -1 -4 0 -3 -1 -3 -1 -3 -1 -2 0 -2 -1 -2 0 -2 -1 -1 0 -1 -1 -1 0 -1 0 4 -10 0 1 1 0 1 0 1 0 1 1 2 0 2 1 3 1 3 0 2 1 4 1 3 1 3 0 4 1 4 1 4 1 5 0 4 1 5 1 5 0 4 1 6 0 5 1 5 0 5 1 6 0 5 0 6 0 5 0 6 0 6 -1 5 0 0 0zm1 10l0 0 0 0 0 0zm41 -56l9 -4 1 2 0 5 -1 4 0 4 -1 4 -1 4 -1 4 -2 3 -2 3 -1 3 -2 3 -3 2 -2 2 -2 2 -2 2 -3 2 -2 2 -2 1 -3 1 -2 1 -2 1 -2 1 -3 1 -2 0 -1 1 -2 0 -2 1 -1 0 -1 0 -1 0 -1 1 0 0 -1 0 -1 -10 0 0 1 0 0 0 1 -1 1 0 1 0 1 0 2 -1 2 0 1 -1 2 0 2 -1 2 -1 2 -1 2 -1 2 -1 2 -1 2 -2 1 -1 2 -2 2 -2 2 -2 1 -2 2 -2 1 -3 1 -2 1 -3 1 -3 1 -3 0 -4 1 -4 0 -4 0 2zm9 -4l1 1 0 1 -1 -2zm0 0l0 0 -9 4 0 0 9 -4z"/>
   </g>
  </g>
 </g>
</svg>
