<?xml version="1.0" encoding="UTF-8"?>
<!DOCTYPE svg PUBLIC "-//W3C//DTD SVG 1.1//EN" "http://www.w3.org/Graphics/SVG/1.1/DTD/svg11.dtd">
<!-- Creator: CorelDRAW X8 -->
<svg xmlns="http://www.w3.org/2000/svg" xml:space="preserve" width="40mm" height="60mm" version="1.1" style="shape-rendering:geometricPrecision; text-rendering:geometricPrecision; image-rendering:optimizeQuality; fill-rule:evenodd; clip-rule:evenodd"
viewBox="0 0 4000 6000"
 xmlns:xlink="http://www.w3.org/1999/xlink">
 <defs>
  <style type="text/css">
   <![CDATA[
    .str0 {stroke:#332C2B;stroke-width:19.4}
    .fil0 {fill:none;fill-rule:nonzero}
   ]]>
  </style>
 </defs>
 <g id="图层_x0020_1">
  <metadata id="CorelCorpID_0Corel-Layer"/>
  <g id="_2482209804112">
   <g>
    <line class="fil0 str0" x1="3246" y1="652" x2="3246" y2= "686" />
    <polyline class="fil0 str0" points="2182,1671 2182,1681 2188,1678 2192,1673 2192,1667 2188,1662 2182,1661 "/>
    <path class="fil0 str0" d="M2182 1661c-9,-116 -97,-200 -210,-200 -117,0 -211,94 -211,212 0,115 96,210 211,210 115,0 210,-96 210,-210 0,-26 -5,-51 -15,-75"/>
    <polyline class="fil0 str0" points="2167,1598 2166,1599 2166,1599 2165,1600 2159,1593 "/>
    <path class="fil0 str0" d="M2159 1593c-1,0 -1,1 -3,3 -15,-6 -20,-7 -198,-37"/>
    <polyline class="fil0 str0" points="3246,5233 3237,5230 3237,5230 3237,5232 3236,5233 834,5233 "/>
    <path class="fil0 str0" d="M834 5233c-20,-2 -48,-20 -54,-35"/>
    <line class="fil0 str0" x1="780" y1="5198" x2="778" y2= "5195" />
    <path class="fil0 str0" d="M778 5195c-3,-4 -3,-4 -5,-221"/>
    <line class="fil0 str0" x1="773" y1="4974" x2="771" y2= "4865" />
    <path class="fil0 str0" d="M771 4865c-5,-473 -9,-946 -12,-1419 -3,-442 -4,-884 -5,-1326 -1,-790 4,-1306 14,-1410 4,-43 16,-57 47,-57 33,0 44,12 45,53"/>
    <line class="fil0 str0" x1="860" y1="706" x2="857" y2= "1332" />
    <path class="fil0 str0" d="M857 1332c4,143 104,246 238,246 110,0 203,-73 231,-183 4,-16 5,-25 4,-68"/>
    <line class="fil0 str0" x1="1330" y1="1327" x2="1327" y2= "872" />
    <path class="fil0 str0" d="M1327 872c0,-19 0,-35 0,-50 0,-105 1,-135 7,-150 5,-16 16,-20 54,-21 282,-1 564,-1 845,-1"/>
    <line class="fil0 str0" x1="2233" y1="650" x2="3080" y2= "651" />
    <path class="fil0 str0" d="M3080 651c68,1 87,20 86,86"/>
    <line class="fil0 str0" x1="3166" y1="737" x2="3158" y2= "3848" />
    <path class="fil0 str0" d="M3158 3848c-3,1216 -3,1269 7,1332 0,1 0,2 0,3 0,22 -20,39 -60,50 -48,14 -91,50 -138,117"/>
   </g>
  </g>
 </g>
</svg>
