<?xml version="1.0" encoding="UTF-8"?>
<!DOCTYPE svg PUBLIC "-//W3C//DTD SVG 1.1//EN" "http://www.w3.org/Graphics/SVG/1.1/DTD/svg11.dtd">
<!-- Creator: CorelDRAW X8 -->
<svg xmlns="http://www.w3.org/2000/svg" xml:space="preserve" width="40mm" height="60mm" version="1.1" style="shape-rendering:geometricPrecision; text-rendering:geometricPrecision; image-rendering:optimizeQuality; fill-rule:evenodd; clip-rule:evenodd"
viewBox="0 0 4000 6000"
 xmlns:xlink="http://www.w3.org/1999/xlink">
 <defs>
  <style type="text/css">
   <![CDATA[
    .str0 {stroke:black;stroke-width:7.62}
    .fil0 {fill:none}
   ]]>
  </style>
 </defs>
 <g id="图层_x0020_1">
  <metadata id="CorelCorpID_0Corel-Layer"/>
  <path class="fil0 str0" d="M1975 5324l0 -373c0,-65 -53,-119 -118,-119l-1055 0c-65,0 -118,54 -118,119l0 281c0,65 53,118 118,118l1055 0c65,0 118,-53 118,-118l0 -50m-787 -131c-16,1 -30,15 -32,43 0,101 82,183 183,183 101,0 183,-82 183,-183 0,-101 -82,-183 -183,-183 -101,0 -183,82 -183,183m658 -120c4,13 9,23 32,23l19 0c27,0 49,-22 49,-48l0 0c0,-27 -22,-49 -49,-49l-88 0c-27,0 -49,22 -49,49l0 0c0,26 22,48 49,48l69 0m-1062 53c-16,1 -31,15 -33,43 0,101 82,183 183,183 102,0 184,-82 184,-183 0,-101 -82,-183 -184,-183 -101,0 -183,82 -183,183m2565 231l0 -373c0,-65 -53,-119 -118,-119l-1055 0c-65,0 -118,54 -118,119l0 281c0,65 53,118 118,118l1055 0c65,0 118,-53 118,-118l0 -50m-787 -131c-15,1 -30,15 -32,43 0,101 82,183 183,183 101,0 183,-82 183,-183 0,-101 -82,-183 -183,-183 -101,0 -183,82 -183,183m658 -120c4,13 9,23 32,23l19 0c27,0 49,-22 49,-48l0 0c0,-27 -22,-49 -49,-49l-88 0c-27,0 -49,22 -49,49l0 0c0,26 22,48 49,48l69 0m-1062 53c-16,1 -30,15 -33,43 0,101 82,183 184,183 101,0 183,-82 183,-183 0,-101 -82,-183 -183,-183 -102,0 -184,82 -184,183m-117 -466l0 -373c0,-65 -53,-119 -118,-119l-1055 0c-65,0 -118,54 -118,119l0 281c0,65 53,118 118,118l1055 0c65,0 118,-53 118,-118l0 -50m-787 -131c-16,1 -30,15 -32,43 0,101 82,183 183,183 101,0 183,-82 183,-183 0,-101 -82,-183 -183,-183 -101,0 -183,82 -183,183m658 -120c4,13 9,23 32,23l19 0c27,0 49,-22 49,-49l0 0c0,-26 -22,-48 -49,-48l-88 0c-27,0 -49,22 -49,48l0 0c0,27 22,49 49,49l69 0m-1062 53c-16,1 -31,15 -33,43 0,101 82,183 183,183 102,0 184,-82 184,-183 0,-101 -82,-183 -184,-183 -101,0 -183,82 -183,183m2565 231l0 -373c0,-65 -53,-119 -118,-119l-1055 0c-65,0 -118,54 -118,119l0 281c0,65 53,118 118,118l1055 0c65,0 118,-53 118,-118l0 -50m-787 -131c-15,1 -30,15 -32,43 0,101 82,183 183,183 101,0 183,-82 183,-183 0,-101 -82,-183 -183,-183 -101,0 -183,82 -183,183m658 -120c4,13 9,23 32,23l19 0c27,0 49,-22 49,-49l0 0c0,-26 -22,-48 -49,-48l-88 0c-27,0 -49,22 -49,48l0 0c0,27 22,49 49,49l69 0m-1062 53c-16,1 -30,15 -33,43 0,101 82,183 184,183 101,0 183,-82 183,-183 0,-101 -82,-183 -183,-183 -102,0 -184,82 -184,183m-117 -466l0 -373c0,-65 -53,-119 -118,-119l-1055 0c-65,0 -118,54 -118,119l0 281c0,65 53,118 118,118l1055 0c65,0 118,-53 118,-118l0 -50m-787 -131c-16,1 -30,15 -32,43 0,101 82,183 183,183 101,0 183,-82 183,-183 0,-101 -82,-183 -183,-183 -101,0 -183,82 -183,183m658 -120c4,13 9,23 32,23l19 0c27,0 49,-22 49,-49l0 0c0,-26 -22,-48 -49,-48l-88 0c-27,0 -49,22 -49,48l0 0c0,27 22,49 49,49l69 0m-1062 53c-16,1 -31,15 -33,43 0,101 82,183 183,183 102,0 184,-82 184,-183 0,-101 -82,-183 -184,-183 -101,0 -183,82 -183,183m2565 231l0 -373c0,-65 -53,-119 -118,-119l-1055 0c-65,0 -118,54 -118,119l0 281c0,65 53,118 118,118l1055 0c65,0 118,-53 118,-118l0 -50m-787 -131c-15,1 -30,15 -32,43 0,101 82,183 183,183 101,0 183,-82 183,-183 0,-101 -82,-183 -183,-183 -101,0 -183,82 -183,183m658 -120c4,13 9,23 32,23l19 0c27,0 49,-22 49,-49l0 0c0,-26 -22,-48 -49,-48l-88 0c-27,0 -49,22 -49,48l0 0c0,27 22,49 49,49l69 0m-1062 53c-16,1 -30,15 -33,43 0,101 82,183 184,183 101,0 183,-82 183,-183 0,-101 -82,-183 -183,-183 -102,0 -184,82 -184,183m-117 -466l0 -373c0,-66 -53,-119 -118,-119l-1055 0c-65,0 -118,53 -118,119l0 280c0,66 53,119 118,119l1055 0c65,0 118,-53 118,-119l0 -49m-787 -131c-16,1 -30,15 -32,43 0,101 82,183 183,183 101,0 183,-82 183,-183 0,-101 -82,-183 -183,-183 -101,0 -183,82 -183,183m658 -120c4,13 9,23 32,23l19 0c27,0 49,-22 49,-49l0 0c0,-27 -22,-49 -49,-49l-88 0c-27,0 -49,22 -49,49l0 0c0,27 22,49 49,49l69 0m-1062 53c-16,1 -31,14 -33,43 0,101 82,183 183,183 102,0 184,-82 184,-183 0,-101 -82,-183 -184,-183 -101,0 -183,82 -183,183m2565 231l0 -373c0,-66 -53,-119 -118,-119l-1055 0c-65,0 -118,53 -118,119l0 280c0,66 53,119 118,119l1055 0c65,0 118,-53 118,-119l0 -49m-787 -131c-15,1 -30,15 -32,43 0,101 82,183 183,183 101,0 183,-82 183,-183 0,-101 -82,-183 -183,-183 -101,0 -183,82 -183,183m658 -120c4,13 9,23 32,23l19 0c27,0 49,-22 49,-49l0 0c0,-27 -22,-49 -49,-49l-88 0c-27,0 -49,22 -49,49l0 0c0,27 22,49 49,49l69 0m-1062 53c-16,1 -30,14 -33,43 0,101 82,183 184,183 101,0 183,-82 183,-183 0,-101 -82,-183 -183,-183 -102,0 -184,82 -184,183m-117 -466l0 -374c0,-65 -53,-118 -118,-118l-1055 0c-65,0 -118,53 -118,118l0 281c0,66 53,119 118,119l1055 0c65,0 118,-53 118,-119l0 -49m-787 -131c-16,1 -30,15 -32,43 0,101 82,183 183,183 101,0 183,-82 183,-183 0,-101 -82,-183 -183,-183 -101,0 -183,82 -183,183m658 -120c4,13 9,23 32,23l19 0c27,0 49,-22 49,-49l0 0c0,-27 -22,-49 -49,-49l-88 0c-27,0 -49,22 -49,49l0 0c0,27 22,49 49,49l69 0m-1062 53c-16,1 -31,14 -33,43 0,101 82,183 183,183 102,0 184,-82 184,-183 0,-101 -82,-183 -184,-183 -101,0 -183,82 -183,183m2565 231l0 -374c0,-65 -53,-118 -118,-118l-1055 0c-65,0 -118,53 -118,118l0 281c0,66 53,119 118,119l1055 0c65,0 118,-53 118,-119l0 -49m-787 -131c-15,1 -30,15 -32,43 0,101 82,183 183,183 101,0 183,-82 183,-183 0,-101 -82,-183 -183,-183 -101,0 -183,82 -183,183m658 -120c4,13 9,23 32,23l19 0c27,0 49,-22 49,-49l0 0c0,-27 -22,-49 -49,-49l-88 0c-27,0 -49,22 -49,49l0 0c0,27 22,49 49,49l69 0m-1062 53c-16,1 -30,14 -33,43 0,101 82,183 184,183 101,0 183,-82 183,-183 0,-101 -82,-183 -183,-183 -102,0 -184,82 -184,183m-117 -466l0 -374c0,-65 -53,-118 -118,-118l-1055 0c-65,0 -118,53 -118,118l0 281c0,65 53,119 118,119l1055 0c65,0 118,-54 118,-119l0 -49m-787 -131c-16,1 -30,15 -32,43 0,101 82,183 183,183 101,0 183,-82 183,-183 0,-101 -82,-183 -183,-183 -101,0 -183,82 -183,183m658 -120c4,13 9,23 32,23l19 0c27,0 49,-22 49,-49l0 0c0,-27 -22,-49 -49,-49l-88 0c-27,0 -49,22 -49,49l0 0c0,27 22,49 49,49l69 0m-1062 53c-16,1 -31,14 -33,43 0,101 82,183 183,183 102,0 184,-82 184,-183 0,-101 -82,-183 -184,-183 -101,0 -183,82 -183,183m2565 231l0 -374c0,-65 -53,-118 -118,-118l-1055 0c-65,0 -118,53 -118,118l0 281c0,65 53,119 118,119l1055 0c65,0 118,-54 118,-119l0 -49m-787 -131c-15,1 -30,15 -32,43 0,101 82,183 183,183 101,0 183,-82 183,-183 0,-101 -82,-183 -183,-183 -101,0 -183,82 -183,183m658 -120c4,13 9,23 32,23l19 0c27,0 49,-22 49,-49l0 0c0,-27 -22,-49 -49,-49l-88 0c-27,0 -49,22 -49,49l0 0c0,27 22,49 49,49l69 0m-1062 53c-16,1 -30,14 -33,43 0,101 82,183 184,183 101,0 183,-82 183,-183 0,-101 -82,-183 -183,-183 -102,0 -184,82 -184,183m-117 -466l0 -374c0,-65 -53,-118 -118,-118l-1055 0c-65,0 -118,53 -118,118l0 281c0,65 53,119 118,119l1055 0c65,0 118,-54 118,-119l0 -49m-787 -131c-16,1 -30,14 -32,43 0,101 82,183 183,183 101,0 183,-82 183,-183 0,-101 -82,-183 -183,-183 -101,0 -183,82 -183,183m658 -120c4,13 9,23 32,23l19 0c27,0 49,-22 49,-49l0 0c0,-27 -22,-49 -49,-49l-88 0c-27,0 -49,22 -49,49l0 0c0,27 22,49 49,49l69 0m-1062 52c-16,2 -31,15 -33,44 0,101 82,183 183,183 102,0 184,-82 184,-183 0,-101 -82,-183 -184,-183 -101,0 -183,82 -183,183m2565 231l0 -374c0,-65 -53,-118 -118,-118l-1055 0c-65,0 -118,53 -118,118l0 281c0,65 53,119 118,119l1055 0c65,0 118,-54 118,-119l0 -49m-787 -131c-15,1 -30,14 -32,43 0,101 82,183 183,183 101,0 183,-82 183,-183 0,-101 -82,-183 -183,-183 -101,0 -183,82 -183,183m658 -120c4,13 9,23 32,23l19 0c27,0 49,-22 49,-49l0 0c0,-27 -22,-49 -49,-49l-88 0c-27,0 -49,22 -49,49l0 0c0,27 22,49 49,49l69 0m-1062 52c-16,2 -30,15 -33,44 0,101 82,183 184,183 101,0 183,-82 183,-183 0,-101 -82,-183 -183,-183 -102,0 -184,82 -184,183"/>
 </g>
</svg>
