<?xml version="1.0" encoding="UTF-8"?>
<!DOCTYPE svg PUBLIC "-//W3C//DTD SVG 1.1//EN" "http://www.w3.org/Graphics/SVG/1.1/DTD/svg11.dtd">
<!-- Creator: CorelDRAW X8 -->
<svg xmlns="http://www.w3.org/2000/svg" xml:space="preserve" width="40mm" height="60mm" version="1.1" style="shape-rendering:geometricPrecision; text-rendering:geometricPrecision; image-rendering:optimizeQuality; fill-rule:evenodd; clip-rule:evenodd"
viewBox="0 0 4000 6000"
 xmlns:xlink="http://www.w3.org/1999/xlink">
 <defs>
  <style type="text/css">
   <![CDATA[
    .str0 {stroke:black;stroke-width:7.62}
    .fil0 {fill:none}
   ]]>
  </style>
 </defs>
 <g id="图层_x0020_1">
  <metadata id="CorelCorpID_0Corel-Layer"/>
  <path class="fil0 str0" d="M857 5241l370 -110 0 -2c-126,0 -228,-103 -228,-228l0 -5 -111 0c-7,0 -13,-6 -13,-13l0 -2020c0,-8 2,-10 9,-10l60 0c18,0 33,-15 33,-34l0 -396c0,-18 -15,-34 -33,-34l-59 0c-8,0 -10,-1 -10,-9l0 -63c0,-7 2,-8 9,-8l49 0c12,0 21,-9 21,-21l0 -520c0,-12 -9,-21 -21,-21l-49 0c-7,0 -9,-3 -9,-10l0 -594c0,-7 6,-13 13,-13l111 0 0 -57c0,-125 102,-228 228,-228l0 -2 -389 -84c-7,-1 -13,-6 -13,-13l0 -83c0,-7 6,-13 13,-13l2324 0c7,0 13,6 13,13l0 80c0,8 -6,12 -13,13l-384 88 0 1c122,4 220,105 220,228l0 57 110 0c8,0 13,6 13,13l0 3740c0,7 -5,13 -13,13l-110 0 0 5c0,123 -98,224 -220,228l0 0 377 102c7,1 13,5 13,13l0 93c0,7 -6,13 -13,13l-2298 0c-7,0 -13,-6 -13,-13l0 -83c0,-7 6,-11 13,-13zm691 -4025c-1,-14 -13,-28 -39,-30 -94,0 -169,76 -169,169 0,93 75,169 169,169 93,0 168,-76 168,-169 0,-93 -75,-169 -168,-169m-95 491c0,-9 -8,-17 -23,-18 -56,0 -101,45 -101,101 0,55 45,100 101,100 55,0 100,-45 100,-100 0,-56 -45,-101 -100,-101m258 18c0,-9 -8,-17 -23,-18 -56,0 -101,45 -101,101 0,55 45,100 101,100 55,0 100,-45 100,-100 0,-56 -45,-101 -100,-101m25 248c0,-9 -8,-17 -23,-18 -56,0 -101,45 -101,101 0,55 45,100 101,100 55,0 100,-45 100,-100 0,-56 -45,-101 -100,-101m-214 17c-1,-8 -9,-16 -24,-17 -56,0 -101,45 -101,100 0,56 45,101 101,101 55,0 100,-45 100,-101 0,-55 -45,-100 -100,-100m-29 -832l296 0c80,0 146,65 146,145l0 823c0,80 -66,145 -146,145l-296 0c-80,0 -146,-65 -146,-145l0 -823c0,-80 66,-145 146,-145zm16 39l272 0c67,0 121,54 121,121l0 777c0,67 -54,122 -121,122l-272 0c-67,0 -122,-55 -122,-122l0 -777c0,-67 55,-121 122,-121zm1022 4154c-3,-13 -10,-24 -42,-24l-27 0c-15,0 -26,12 -26,26l0 0c0,15 11,26 26,26l219 0c15,0 26,-11 26,-26l0 0c0,-14 -11,-26 -26,-26l-192 0m-392 -11c-3,-11 -7,-20 -26,-20l-16 0c-22,0 -40,19 -40,41l0 0c0,22 18,40 40,40l148 0c22,0 40,-18 40,-40l0 0c0,-22 -18,-41 -40,-41l-132 0m-288 -4473c0,-2 -2,-4 -6,-4 -14,0 -26,11 -26,26 0,14 12,26 26,26 15,0 26,-12 26,-26 0,-15 -11,-26 -26,-26m427 22c-1,-5 -3,-9 -12,-9l-8 0c-11,0 -20,9 -20,20l0 0c0,10 9,19 20,19l39 0c11,0 19,-9 19,-19l0 0c0,-11 -8,-20 -19,-20l-31 0m172 4496c0,-2 -2,-4 -6,-4 -13,0 -23,11 -23,24 0,12 10,23 23,23 13,0 24,-11 24,-23 0,-13 -11,-24 -24,-24m-745 2c-3,-13 -8,-22 -29,-22l-18 0c-25,0 -46,20 -46,45l0 0c0,25 21,46 46,46l317 0c25,0 45,-21 45,-46l0 0c0,-25 -20,-45 -45,-45l-299 0"/>
 </g>
</svg>
