<?xml version="1.0" encoding="UTF-8"?>
<!DOCTYPE svg PUBLIC "-//W3C//DTD SVG 1.1//EN" "http://www.w3.org/Graphics/SVG/1.1/DTD/svg11.dtd">
<!-- Creator: CorelDRAW X8 -->
<svg xmlns="http://www.w3.org/2000/svg" xml:space="preserve" width="40mm" height="60mm" version="1.1" style="shape-rendering:geometricPrecision; text-rendering:geometricPrecision; image-rendering:optimizeQuality; fill-rule:evenodd; clip-rule:evenodd"
viewBox="0 0 4000 6000"
 xmlns:xlink="http://www.w3.org/1999/xlink">
 <defs>
  <style type="text/css">
   <![CDATA[
    .str0 {stroke:black;stroke-width:7.62}
    .fil0 {fill:none}
   ]]>
  </style>
 </defs>
 <g id="图层_x0020_1">
  <metadata id="CorelCorpID_0Corel-Layer"/>
  <path class="fil0 str0" d="M1054 5350l1771 0c130,0 236,-106 236,-236l0 -4228c0,-130 -106,-236 -236,-236l-524 0c-2,0 -4,1 -6,2l-10 12c-2,3 -4,3 -8,3l-141 0c-29,0 -49,15 -49,48l0 58c0,46 -36,83 -82,83l0 0c-45,0 -82,-37 -82,-83l0 -55c0,-44 -28,-51 -46,-51l-144 0c-6,0 -8,0 -11,-4l-8 -9c-3,-3 -6,-4 -11,-4l-528 0c-130,0 -236,106 -236,236l0 4228c0,130 106,236 236,236l68 0"/>
 </g>
</svg>
