<?xml version="1.0" encoding="UTF-8"?>
<!DOCTYPE svg PUBLIC "-//W3C//DTD SVG 1.1//EN" "http://www.w3.org/Graphics/SVG/1.1/DTD/svg11.dtd">
<!-- Creator: CorelDRAW X8 -->
<svg xmlns="http://www.w3.org/2000/svg" xml:space="preserve" width="40mm" height="60mm" version="1.1" style="shape-rendering:geometricPrecision; text-rendering:geometricPrecision; image-rendering:optimizeQuality; fill-rule:evenodd; clip-rule:evenodd"
viewBox="0 0 4000 6000"
 xmlns:xlink="http://www.w3.org/1999/xlink">
 <defs>
  <style type="text/css">
   <![CDATA[
    .str0 {stroke:black;stroke-width:7.62}
    .fil0 {fill:none}
   ]]>
  </style>
 </defs>
 <g id="图层_x0020_1">
  <metadata id="CorelCorpID_0Corel-Layer"/>
  <path class="fil0 str0" d="M2019 751c0,-5 -5,-11 -15,-11 -36,0 -66,29 -66,65 0,37 30,66 66,66 36,0 66,-29 66,-66 0,-36 -30,-65 -66,-65m-982 4575l1830 0c103,0 186,-84 186,-186l0 -4293c0,-102 -83,-186 -186,-186l-1704 0c-103,0 -186,84 -186,186l0 4293c0,102 83,186 186,186 38,0 83,15 104,35"/>
 </g>
</svg>
