<?xml version="1.0" encoding="UTF-8"?>
<!DOCTYPE svg PUBLIC "-//W3C//DTD SVG 1.1//EN" "http://www.w3.org/Graphics/SVG/1.1/DTD/svg11.dtd">
<!-- Creator: CorelDRAW X8 -->
<svg xmlns="http://www.w3.org/2000/svg" xml:space="preserve" width="40mm" height="60mm" version="1.1" style="shape-rendering:geometricPrecision; text-rendering:geometricPrecision; image-rendering:optimizeQuality; fill-rule:evenodd; clip-rule:evenodd"
viewBox="0 0 4000 6000"
 xmlns:xlink="http://www.w3.org/1999/xlink">
 <defs>
  <style type="text/css">
   <![CDATA[
    .str0 {stroke:#332C2B;stroke-width:20}
    .fil0 {fill:none}
   ]]>
  </style>
 </defs>
 <g id="图层_x0020_1">
  <metadata id="CorelCorpID_0Corel-Layer"/>
  <g id="_2528637079632">
   <path class="fil0 str0" d="M3051 5232c0,54 -57,67 -57,67l-466 51 -1048 0c0,0 -350,-37 -442,-47 -93,-10 -89,-71 -89,-71l0 -4466c0,0 -1,-62 75,-68 77,-6 429,-48 429,-48l1092 0 440 54c0,0 53,6 66,62"/>
   <line class="fil0 str0" x1="3051" y1="5232" x2="3051" y2= "766" />
   <path class="fil0 str0" d="M2273 833c0,-20 0,-56 25,-56 25,0 44,20 44,44 0,25 -19,45 -44,45 -25,0 -44,-20 -44,-45 0,-24 19,-44 44,-44"/>
   <path class="fil0 str0" d="M2501 758c-34,0 -62,28 -62,62 0,34 28,62 62,62 34,0 62,-28 62,-62 0,-34 -28,-62 -62,-62 -34,0 -43,53 -43,85"/>
   <path class="fil0 str0" d="M2019 843c0,-61 -148,-67 -174,-67 -26,0 -47,21 -47,47l0 0c0,26 21,47 47,47l304 0c27,0 48,-21 48,-47l0 0c0,-26 -22,-48 -48,-47l-304 0"/>
   <path class="fil0 str0" d="M1593 844c0,-52 -44,-77 -73,-77 -29,0 -53,24 -53,54l0 0c0,29 24,53 53,53l80 0c29,0 53,-24 53,-53l0 0c0,-30 -24,-55 -53,-54l-80 0"/>
  </g>
  <path class="fil0 str0" d="M-3402 -600c185,0 230,197 230,197l176 1600 0 3599c0,0 -128,1199 -161,1517 -33,317 -245,304 -245,304l-15333 0c0,0 -213,4 -233,-258 -20,-263 -165,-1473 -165,-1473l0 -3748 185 -1513c0,0 20,-181 213,-225"/>
  <line class="fil0 str0" x1="-3402" y1="-600" x2="-18735" y2= "-600" />
  <path class="fil0 str0" d="M-18506 2071c-66,0 -192,-1 -192,-86 0,-84 69,-152 153,-152 84,0 153,68 153,152 0,85 -69,153 -153,153 -84,0 -153,-68 -153,-153"/>
  <path class="fil0 str0" d="M-18761 1289c0,117 95,212 212,212 117,0 212,-95 212,-212 0,-117 -95,-212 -212,-212 -117,0 -212,95 -212,212 0,117 182,146 291,146"/>
  <path class="fil0 str0" d="M-18471 2944c-209,0 -231,507 -231,597 0,89 73,162 162,162l0 0c90,0 163,-73 163,-162l0 -1046c0,-89 -73,-162 -163,-162l0 0c-89,0 -164,73 -162,162l0 1046"/>
  <path class="fil0 str0" d="M-18466 4407c-181,0 -265,149 -265,249 0,101 83,183 183,183l0 0c101,0 183,-82 183,-183l0 -273c0,-101 -82,-183 -183,-183l0 0c-100,0 -185,82 -183,183l0 273"/>
 </g>
</svg>
