<?xml version="1.0" encoding="UTF-8"?>
<!DOCTYPE svg PUBLIC "-//W3C//DTD SVG 1.1//EN" "http://www.w3.org/Graphics/SVG/1.1/DTD/svg11.dtd">
<!-- Creator: CorelDRAW -->
<svg xmlns="http://www.w3.org/2000/svg" xml:space="preserve" width="40mm" height="60mm" style="shape-rendering:geometricPrecision; text-rendering:geometricPrecision; image-rendering:optimizeQuality; fill-rule:evenodd; clip-rule:evenodd"
viewBox="0 0 40 60"
 xmlns:xlink="http://www.w3.org/1999/xlink">
 <defs>
  <style type="text/css">
   <![CDATA[
    .str0 {stroke:#1F1A17;stroke-width:0.194}
    .fil0 {fill:none;fill-rule:nonzero}
   ]]>
  </style>
 </defs>
 <g id="图层_x0020_1">
  <metadata id="CorelCorpID_0Corel-Layer"/>
  <g id="_274335800">
   <line id="_276544432" class="fil0 str0" x1="29.2482" y1="51.9267" x2="29.2482" y2= "52.0123" />
   <path id="_276544384" class="fil0 str0" d="M29.2482 52.0123c-0.0444,-0.0171 -0.0665,-0.0382 -0.0856,-0.0856 -5.6967,0.001 -11.3922,0.001 -17.0888,0.002 -1.0706,-0.0332 -1.834,-0.6304 -2.1372,-1.6709 -0.0262,-0.0906 -0.0302,-0.1672 -0.0312,-0.5882"/>
   <line id="_276544240" class="fil0 str0" x1="9.9054" y1="49.6696" x2="9.8591" y2= "9.7572" />
   <path id="_276544216" class="fil0 str0" d="M9.8591 9.7572c0.0332,-0.7322 0.285,-1.2922 0.7775,-1.7232 0.2719,-0.2388 0.5982,-0.4049 0.9528,-0.4845 0.2276,-0.0514 0.4824,-0.0614 1.4715,-0.0584"/>
   <polyline id="_276544048" class="fil0 str0" points="13.0609,7.4911 16.6293,7.5032 16.6222,7.5173 16.6857,7.5314 16.6857,7.5243 16.6857,7.5455 "/>
   <path id="_275990752" class="fil0 str0" d="M16.6857 7.5455c-0.003,0.004 -0.0081,0.0111 -0.0141,0.0221"/>
   <polyline id="_274330472" class="fil0 str0" points="16.6716,7.5676 16.7219,7.6099 16.7219,7.6029 16.7219,7.6099 16.7149,7.617 16.7149,7.6311 16.735,7.6452 "/>
   <path id="_274329776" class="fil0 str0" d="M16.735 7.6452c0.1068,0.0715 0.1068,0.0715 0.6104,0.0876"/>
   <line id="_274338464" class="fil0 str0" x1="17.3454" y1="7.7328" x2="17.44" y2= "7.7358" />
   <path id="_276544936" class="fil0 str0" d="M17.44 7.7358c0.2428,0.0081 0.3173,0.0172 0.4664,0.0594"/>
   <polyline id="_275303680" class="fil0 str0" points="17.9064,7.7952 17.9064,7.7811 17.8701,7.8315 17.857,7.8456 17.8802,8.3522 "/>
   <path id="_275310088" class="fil0 str0" d="M17.8802 8.3522c0.0171,0.3687 0.2739,0.6225 0.6305,0.6225 0.3767,0 0.6254,-0.2619 0.6416,-0.6738"/>
   <line id="_276521392" class="fil0 str0" x1="19.1523" y1="8.3009" x2="19.1664" y2= "7.9292" />
   <path id="_274356152" class="fil0 str0" d="M19.1664 7.9292c0.006,-0.1601 0.0151,-0.2054 0.0533,-0.2478"/>
   <line id="_274356176" class="fil0 str0" x1="19.2197" y1="7.6814" x2="19.2056" y2= "7.6814" />
   <path id="_274355960" class="fil0 str0" d="M19.2056 7.6814c0.0262,0.0091 0.0474,0.0262 0.0645,0.0504 0.0665,-0.0101 0.1692,-0.0151 0.3082,-0.0151 0.3434,0 0.8329,0.0312 1.2328,0.0785"/>
   <line id="_274356128" class="fil0 str0" x1="20.8111" y1="7.7952" x2="20.8111" y2= "7.7811" />
   <path id="_274354520" class="fil0 str0" d="M20.8111 7.7811c-0.0091,0.0263 -0.0252,0.0474 -0.0494,0.0645 -0.001,0.0322 -0.002,0.0695 -0.002,0.1108 0,0.7645 0.1611,1.0183 0.6446,1.0183 0.3787,0 0.6345,-0.27 0.6395,-0.6748"/>
   <line id="_274355024" class="fil0 str0" x1="22.0438" y1="8.2999" x2="22.0489" y2= "7.9363" />
   <path id="_276545704" class="fil0 str0" d="M22.0489 7.9363c0.006,-0.1692 0.0201,-0.2156 0.0755,-0.2549"/>
   <line id="_276544336" class="fil0 str0" x1="22.1244" y1="7.6814" x2="22.1103" y2= "7.6814" />
   <path id="_274355888" class="fil0 str0" d="M22.1103 7.6814c0.0262,0.0091 0.0474,0.0262 0.0645,0.0504"/>
   <polyline id="_274356488" class="fil0 str0" points="22.1748,7.7318 22.6582,7.7026 22.8184,7.7066 "/>
   <path id="_274356632" class="fil0 str0" d="M22.8184 7.7066c0.0352,0 0.0614,0.001 0.0775,0.001"/>
   <line id="_274356536" class="fil0 str0" x1="22.8959" y1="7.7076" x2="22.907" y2= "7.7076" />
   <path id="_274356272" class="fil0 str0" d="M22.907 7.7076c0.0574,0 0.0574,0 0.1823,-0.0826"/>
   <polyline id="_274356584" class="fil0 str0" points="23.0893,7.625 23.1124,7.6099 23.3239,7.4961 23.331,7.5032 23.3814,7.4599 23.3884,7.4669 23.3884,7.474 23.3955,7.482 23.3955,7.4961 23.4599,7.482 23.4599,7.4961 23.467,7.5032 26.4855,7.5022 "/>
   <path id="_274356056" class="fil0 str0" d="M26.4855 7.5022c1.6316,0 1.6316,0 1.8008,0.0382"/>
   <line id="_274356008" class="fil0 str0" x1="28.2863" y1="7.5404" x2="28.3226" y2= "7.5485" />
   <path id="_274356224" class="fil0 str0" d="M28.3226 7.5485c0.8027,0.1813 1.408,0.7755 1.6527,1.6226 0.0272,0.0916 0.0303,0.151 0.0323,0.5892"/>
   <line id="_274356560" class="fil0 str0" x1="30.0076" y1="9.7603" x2="30.1294" y2= "38.6108" />
   <path id="_274356248" class="fil0 str0" d="M30.1294 38.6108c0.0313,7.2376 -0.002,10.9702 -0.0997,11.4859 -0.0926,0.4895 -0.4633,1.0918 -0.8551,1.3879 -0.29,0.2195 -0.6355,0.3596 -1.0122,0.4089 -0.6607,0.0866 -0.7151,0.1279 -0.8631,0.6466"/>
  </g>
 </g>
</svg>
