<?xml version="1.0" encoding="UTF-8"?>
<!DOCTYPE svg PUBLIC "-//W3C//DTD SVG 1.1//EN" "http://www.w3.org/Graphics/SVG/1.1/DTD/svg11.dtd">
<!-- Creator: CorelDRAW 2021 (64-Bit) -->
<svg xmlns="http://www.w3.org/2000/svg" xml:space="preserve" width="40mm" height="60mm" version="1.1" style="shape-rendering:geometricPrecision; text-rendering:geometricPrecision; image-rendering:optimizeQuality; fill-rule:evenodd; clip-rule:evenodd"
viewBox="0 0 4000 6000"
 xmlns:xlink="http://www.w3.org/1999/xlink"
 xmlns:xodm="http://www.corel.com/coreldraw/odm/2003">
 <defs>
  <style type="text/css">
   <![CDATA[
    .str0 {stroke:#332C2B;stroke-width:7.62;stroke-linecap:round;stroke-linejoin:round;stroke-miterlimit:22.9256}
    .fil0 {fill:none}
   ]]>
  </style>
 </defs>
 <g id="图层_x0020_1">
  <metadata id="CorelCorpID_0Corel-Layer"/>
  <path class="fil0 str0" d="M315.05 5013.98c47.4,0 97.88,71.43 97.88,157.67 0,86.24 70.56,156.8 156.8,156.8l2945.22 0c86.24,0 156.8,-70.56 156.8,-156.8l0 -2122.41 -82.93 0c-30.09,0 -54.71,-24.62 -54.71,-54.72l0 0c0,-30.09 24.62,-54.72 54.71,-54.72l82.93 0 0 -2127.33c0,-86.24 -70.56,-156.8 -156.8,-156.8l-2945.22 0c-86.24,0 -156.8,70.56 -156.8,156.8l0 4543.2"/>
 </g>
</svg>
