<?xml version="1.0" encoding="UTF-8"?>
<!DOCTYPE svg PUBLIC "-//W3C//DTD SVG 1.1//EN" "http://www.w3.org/Graphics/SVG/1.1/DTD/svg11.dtd">
<!-- Creator: CorelDRAW X8 -->
<svg xmlns="http://www.w3.org/2000/svg" xml:space="preserve" width="40mm" height="60mm" version="1.1" style="shape-rendering:geometricPrecision; text-rendering:geometricPrecision; image-rendering:optimizeQuality; fill-rule:evenodd; clip-rule:evenodd"
viewBox="0 0 4000 6000"
 xmlns:xlink="http://www.w3.org/1999/xlink">
 <defs>
  <style type="text/css">
   <![CDATA[
    .str0 {stroke:black;stroke-width:7.62}
    .fil0 {fill:none}
   ]]>
  </style>
 </defs>
 <g id="图层_x0020_1">
  <metadata id="CorelCorpID_0Corel-Layer"/>
  <path class="fil0 str0" d="M834 830c-1,-13 -13,-26 -37,-28 -86,0 -156,70 -156,156 0,86 70,155 156,155 86,0 156,-69 156,-155 0,-86 -70,-156 -156,-156m-207 4548c-10,-5 -25,-15 -45,-15l-20 0c-33,0 -61,-27 -61,-60l0 -4564c0,-34 28,-61 61,-61l2950 0c34,0 61,27 61,61l0 4564c0,33 -27,60 -61,60l-3003 0"/>
 </g>
</svg>
