<?xml version="1.0" encoding="UTF-8"?>
<!DOCTYPE svg PUBLIC "-//W3C//DTD SVG 1.1//EN" "http://www.w3.org/Graphics/SVG/1.1/DTD/svg11.dtd">
<!-- Creator: CorelDRAW X8 -->
<svg xmlns="http://www.w3.org/2000/svg" xml:space="preserve" width="40mm" height="60mm" version="1.1" style="shape-rendering:geometricPrecision; text-rendering:geometricPrecision; image-rendering:optimizeQuality; fill-rule:evenodd; clip-rule:evenodd"
viewBox="0 0 4000 6000"
 xmlns:xlink="http://www.w3.org/1999/xlink">
 <defs>
  <style type="text/css">
   <![CDATA[
    .str0 {stroke:black;stroke-width:7.62}
    .fil0 {fill:none}
   ]]>
  </style>
 </defs>
 <g id="图层_x0020_1">
  <metadata id="CorelCorpID_0Corel-Layer"/>
  <path class="fil0 str0" d="M827 5135l0 -4168c0,-164 134,-291 298,-298 187,-8 344,-15 530,-19 9,0 11,0 16,6l22 25c5,5 11,7 22,7l587 0c12,0 15,-1 21,-7l23 -23c7,-7 9,-7 18,-7 181,4 328,10 511,18 164,7 298,134 298,298l0 4064c0,164 -134,292 -298,299 -290,11 -583,20 -875,20 -291,0 -582,-7 -875,-20 -164,-8 -298,-135 -298,-299l0 -105m1915 -4157c-1,-7 -7,-14 -21,-16 -49,0 -89,40 -89,89 0,50 40,89 89,89 49,0 89,-39 89,-89 0,-49 -40,-89 -89,-89m247 103c-4,-14 -9,-24 -33,-24l-19 0c-27,0 -50,22 -50,50l0 0c0,27 23,49 50,49l91 0c27,0 49,-22 49,-49l0 0c0,-28 -22,-50 -49,-50l-72 0"/>
 </g>
</svg>
