<?xml version="1.0" encoding="UTF-8"?>
<!DOCTYPE svg PUBLIC "-//W3C//DTD SVG 1.1//EN" "http://www.w3.org/Graphics/SVG/1.1/DTD/svg11.dtd">
<!-- Creator: CorelDRAW X8 -->
<svg xmlns="http://www.w3.org/2000/svg" xml:space="preserve" width="40mm" height="60mm" version="1.1" style="shape-rendering:geometricPrecision; text-rendering:geometricPrecision; image-rendering:optimizeQuality; fill-rule:evenodd; clip-rule:evenodd"
viewBox="0 0 4000 6000"
 xmlns:xlink="http://www.w3.org/1999/xlink">
 <defs>
  <style type="text/css">
   <![CDATA[
    .str0 {stroke:black;stroke-width:7.62}
    .fil0 {fill:none}
   ]]>
  </style>
 </defs>
 <g id="图层_x0020_1">
  <metadata id="CorelCorpID_0Corel-Layer"/>
  <g id="_2208659009520">
   <path class="fil0 str0" d="M886 5299l1960 0c147,0 268,-121 268,-268l0 -4113c0,-147 -121,-268 -268,-268l-1646 0c-147,0 -268,121 -268,268l0 4113c0,147 121,268 268,268 148,0 308,26 308,51"/>
   <path class="fil0 str0" d="M1440 774c0,-9 5,-51 29,-51 24,0 43,19 43,43 0,24 -19,43 -43,43 -24,0 -43,-19 -43,-43 0,-24 19,-43 43,-43"/>
   <path class="fil0 str0" d="M1606 774c0,-9 5,-51 29,-51 24,0 43,19 43,43 0,24 -19,43 -43,43 -24,0 -43,-19 -43,-43 0,-24 19,-43 43,-43"/>
   <path class="fil0 str0" d="M2378 774c0,-9 6,-51 30,-51 23,0 43,19 43,43 0,24 -20,43 -43,43 -24,0 -43,-19 -43,-43 0,-24 19,-43 43,-43"/>
   <path class="fil0 str0" d="M1956 764c0,-10 -60,-20 -73,-20 -13,0 -24,11 -24,24l0 0c0,13 11,24 24,24l276 0c13,0 24,-11 24,-24l0 0c0,-13 -11,-24 -24,-24l-276 0"/>
  </g>
 </g>
</svg>
