<?xml version="1.0" encoding="UTF-8"?>
<!DOCTYPE svg PUBLIC "-//W3C//DTD SVG 1.1//EN" "http://www.w3.org/Graphics/SVG/1.1/DTD/svg11.dtd">
<!-- Creator: CorelDRAW X8 -->
<svg xmlns="http://www.w3.org/2000/svg" xml:space="preserve" width="40mm" height="60mm" version="1.1" style="shape-rendering:geometricPrecision; text-rendering:geometricPrecision; image-rendering:optimizeQuality; fill-rule:evenodd; clip-rule:evenodd"
viewBox="0 0 4000 6000"
 xmlns:xlink="http://www.w3.org/1999/xlink">
 <defs>
  <style type="text/css">
   <![CDATA[
    .str0 {stroke:#222222;stroke-width:20}
    .fil0 {fill:none}
   ]]>
  </style>
 </defs>
 <g id="图层_x0020_1">
  <metadata id="CorelCorpID_0Corel-Layer"/>
  <g id="_2300796152336">
   <path class="fil0 str0" d="M681 5225l966 0c134,0 243,-109 243,-243l0 -888c0,-134 -109,-243 -243,-243l-675 0c-134,0 -243,109 -243,243l0 888c0,134 109,243 243,243 134,0 335,59 335,125"/>
   <path class="fil0 str0" d="M681 3625l966 0c134,0 243,-109 243,-243l0 -889c0,-133 -109,-243 -243,-243l-675 0c-134,0 -243,110 -243,243l0 889c0,134 109,243 243,243 134,0 335,58 335,125"/>
   <path class="fil0 str0" d="M681 2025l966 0c134,0 243,-110 243,-244l0 -888c0,-134 -109,-243 -243,-243l-675 0c-134,0 -243,109 -243,243l0 888c0,134 109,244 243,244 134,0 335,58 335,124"/>
   <path class="fil0 str0" d="M2110 5225l966 0c134,0 243,-109 243,-243l0 -888c0,-134 -109,-243 -243,-243l-675 0c-134,0 -243,109 -243,243l0 888c0,134 109,243 243,243 134,0 335,59 335,125"/>
   <path class="fil0 str0" d="M2110 3625l966 0c134,0 243,-109 243,-243l0 -889c0,-133 -109,-243 -243,-243l-675 0c-134,0 -243,110 -243,243l0 889c0,134 109,243 243,243 134,0 335,58 335,125"/>
   <path class="fil0 str0" d="M2110 2025l966 0c134,0 243,-110 243,-244l0 -888c0,-134 -109,-243 -243,-243l-675 0c-134,0 -243,109 -243,243l0 888c0,134 109,244 243,244 134,0 335,58 335,124"/>
  </g>
  <path class="fil0 str0" d="M-9993 6919l0 -2899c0,-401 -328,-729 -729,-729l-2665 0c-401,0 -729,328 -729,729l0 2026c0,401 328,729 729,729l2665 0c401,0 729,-328 729,-729 0,-401 176,-1006 374,-1006"/>
  <path class="fil0 str0" d="M-14793 6919l0 -2899c0,-401 -328,-729 -729,-729l-2665 0c-401,0 -729,328 -729,729l0 2026c0,401 328,729 729,729l2665 0c401,0 729,-328 729,-729 0,-401 176,-1006 374,-1006"/>
  <path class="fil0 str0" d="M-19593 6919l0 -2899c0,-401 -328,-729 -729,-729l-2665 0c-401,0 -729,328 -729,729l0 2026c0,401 328,729 729,729l2665 0c401,0 729,-328 729,-729 0,-401 176,-1006 374,-1006"/>
  <path class="fil0 str0" d="M-9993 2632l0 -2898c0,-401 -328,-729 -729,-729l-2665 0c-401,0 -729,328 -729,729l0 2025c0,401 328,729 729,729l2665 0c401,0 729,-328 729,-729 0,-401 176,-1005 374,-1005"/>
  <path class="fil0 str0" d="M-14793 2632l0 -2898c0,-401 -328,-729 -729,-729l-2665 0c-401,0 -729,328 -729,729l0 2025c0,401 328,729 729,729l2665 0c401,0 729,-328 729,-729 0,-401 176,-1005 374,-1005"/>
  <path class="fil0 str0" d="M-19593 2632l0 -2898c0,-401 -328,-729 -729,-729l-2665 0c-401,0 -729,328 -729,729l0 2025c0,401 328,729 729,729l2665 0c401,0 729,-328 729,-729 0,-401 176,-1005 374,-1005"/>
 </g>
</svg>
