<?xml version="1.0" encoding="UTF-8"?>
<!DOCTYPE svg PUBLIC "-//W3C//DTD SVG 1.1//EN" "http://www.w3.org/Graphics/SVG/1.1/DTD/svg11.dtd">
<!-- Creator: CorelDRAW X8 -->
<svg xmlns="http://www.w3.org/2000/svg" xml:space="preserve" width="40mm" height="60mm" version="1.1" style="shape-rendering:geometricPrecision; text-rendering:geometricPrecision; image-rendering:optimizeQuality; fill-rule:evenodd; clip-rule:evenodd"
viewBox="0 0 4000 6000"
 xmlns:xlink="http://www.w3.org/1999/xlink">
 <defs>
  <style type="text/css">
   <![CDATA[
    .fil0 {fill:black;fill-rule:nonzero}
   ]]>
  </style>
 </defs>
 <g id="图层_x0020_1">
  <metadata id="CorelCorpID_0Corel-Layer"/>
  <g>
   <path class="fil0" d="M1249 1337l10 17 0 1 -5 2 -5 3 -4 2 -5 2 -4 2 -5 2 -4 2 -4 2 -4 2 -4 2 -4 2 -4 2 -4 1 -4 2 -4 1 -3 2 -4 1 -4 2 -3 1 -3 1 -4 1 -3 1 -3 1 -3 1 -3 1 -3 1 -3 0 -3 1 -3 0 -3 1 -2 0 -3 1 -2 -20 2 -1 2 0 2 0 3 -1 2 0 3 -1 3 -1 2 0 3 -1 3 -1 3 -1 3 -1 3 -1 4 -1 3 -1 3 -2 4 -1 3 -2 4 -1 4 -2 3 -1 4 -2 4 -2 4 -2 4 -2 5 -2 4 -2 4 -2 5 -2 4 -2 5 -3 4 -2 0 0zm10 17l0 0 0 1 0 -1zm799 -420l9 18 0 0 -20 9 -20 10 -21 9 -22 10 -23 11 -23 10 -23 11 -24 11 -25 11 -25 11 -26 12 -25 12 -27 12 -26 12 -27 12 -27 13 -27 13 -27 13 -27 13 -27 14 -28 13 -27 14 -27 14 -27 14 -27 14 -27 15 -26 14 -26 15 -26 15 -25 15 -25 15 -25 15 -10 -17 24 -15 25 -15 26 -15 26 -15 26 -15 27 -15 27 -14 27 -15 27 -14 27 -14 27 -14 28 -13 27 -14 28 -13 27 -13 27 -13 27 -13 27 -12 26 -12 26 -13 26 -11 26 -12 25 -11 24 -12 25 -11 23 -10 23 -11 23 -10 21 -10 21 -9 21 -10 19 -9 0 0zm830 -293l6 19 0 0 -25 7 -26 7 -25 8 -26 7 -26 8 -26 7 -26 8 -26 8 -27 9 -26 8 -27 8 -26 9 -27 8 -26 9 -27 9 -27 9 -26 10 -27 9 -26 9 -26 10 -26 10 -27 9 -25 10 -26 11 -26 10 -25 10 -26 11 -25 10 -24 11 -25 11 -24 11 -24 11 -9 -18 24 -11 25 -11 25 -11 24 -11 26 -11 25 -10 26 -11 25 -10 26 -10 26 -10 27 -10 26 -10 26 -10 27 -9 26 -9 27 -10 27 -9 26 -9 27 -9 26 -8 27 -9 27 -8 26 -9 27 -8 26 -8 26 -8 26 -7 26 -8 26 -8 26 -7 25 -7 25 -7 0 0zm0 0l0 0 -2 0 2 0zm34 25l-20 0 0 0 0 0 0 1 0 0 0 0 0 0 0 0 0 0 0 -1 -1 0 0 0 -1 -1 0 0 0 -1 -1 0 -1 -1 0 0 -1 -1 0 0 -1 0 -1 -1 0 0 -1 0 0 -1 -1 0 0 0 0 0 -1 0 0 0 0 0 1 0 0 0 1 0 -6 -19 2 -1 2 0 2 0 1 0 2 0 1 1 1 0 2 1 1 0 1 1 1 0 1 1 2 1 1 0 1 1 1 1 1 1 1 1 1 1 1 0 1 1 1 1 1 1 0 1 1 2 1 1 1 1 0 1 1 2 0 1 1 2 0 2 0 0zm-34 4665l-20 0 0 0 1 -127 1 -130 1 -133 0 -137 1 -139 1 -142 1 -144 1 -146 1 -148 1 -150 0 -151 1 -153 1 -153 1 -155 1 -155 1 -155 1 -155 1 -156 1 -155 1 -154 2 -154 1 -152 1 -152 1 -150 1 -148 2 -146 1 -144 1 -142 2 -139 1 -137 1 -133 2 -130 20 0 -2 130 -1 134 -1 136 -2 139 -1 142 -1 144 -2 146 -1 149 -1 150 -1 151 -1 152 -2 154 -1 154 -1 155 -1 156 -1 155 -1 155 -1 155 -1 155 -1 153 -1 153 0 151 -1 150 -1 148 -1 147 -1 144 -1 141 -1 140 0 136 -1 133 -1 130 -1 127 0 0zm-30 29l0 -20 0 0 2 0 1 0 2 0 1 0 1 0 1 0 1 0 0 0 1 -1 0 0 0 0 0 0 0 0 0 0 0 0 0 1 0 0 0 0 0 0 0 0 0 0 0 0 0 -1 0 0 0 -1 0 -1 0 0 0 -2 0 -1 0 -1 0 -1 0 -1 20 0 0 1 0 2 0 1 0 1 0 2 0 1 0 2 0 1 -1 1 0 2 0 1 -1 1 -1 2 0 1 -1 2 -1 1 -2 1 -1 1 -1 1 -2 1 -1 1 -2 0 -1 1 -2 0 -1 0 -2 1 -2 0 -1 0 -2 0 -2 0 -1 0 -2 0 0 0zm0 -20l0 0 0 0 0 0zm-1747 -27l1 -20 0 0 48 2 49 2 50 1 51 2 52 2 52 1 53 2 54 1 54 2 55 2 55 1 56 2 56 1 56 2 57 1 57 2 57 1 57 2 57 1 57 2 57 1 56 2 57 1 57 1 56 2 56 1 55 1 55 1 54 2 54 1 54 1 52 1 0 20 -53 -1 -53 -1 -54 -1 -55 -2 -55 -1 -55 -1 -56 -1 -56 -2 -56 -1 -57 -1 -57 -2 -57 -1 -57 -2 -57 -1 -57 -2 -57 -1 -57 -2 -56 -1 -57 -2 -56 -1 -55 -2 -56 -1 -54 -2 -55 -2 -53 -1 -53 -2 -53 -1 -51 -2 -51 -2 -50 -1 -49 -2 -49 -2 0 0zm-29 -29l20 0 0 0 0 1 0 2 0 1 0 1 0 1 0 1 0 1 1 1 0 0 0 1 0 0 0 0 0 0 0 0 -1 -1 0 0 0 0 0 0 -1 -1 0 0 0 0 1 0 0 1 1 0 0 0 1 0 1 0 1 0 2 0 1 0 1 0 2 0 -1 20 -1 0 -2 0 -2 0 -1 0 -2 0 -1 0 -1 0 -2 -1 -1 0 -2 0 -1 -1 -1 0 -2 -1 -1 -1 -2 -1 -1 -1 -1 -1 -1 -2 -1 -1 -1 -2 0 -1 -1 -1 0 -2 0 -1 0 -2 -1 -1 0 -1 0 -2 0 -1 0 -2 0 -1 0 -2 0 0zm40 -3736l20 0 0 0 -1 90 -1 95 -2 100 -1 105 -2 109 -2 112 -2 116 -2 119 -2 122 -2 124 -3 127 -2 128 -2 129 -2 131 -2 131 -2 131 -2 132 -2 131 -2 130 -2 130 -1 128 -2 126 -1 124 -1 122 0 119 -1 115 0 113 0 108 1 104 0 100 2 95 1 90 -20 0 -1 -90 -2 -95 0 -99 -1 -105 0 -108 0 -113 1 -115 0 -119 1 -122 1 -124 2 -127 1 -128 2 -129 2 -130 2 -132 2 -131 2 -131 2 -132 2 -130 2 -130 2 -128 3 -126 2 -124 2 -122 2 -119 2 -116 2 -113 2 -108 1 -105 2 -100 1 -95 1 -90 0 0zm126 -210l12 16 -1 0 -7 5 -6 4 -7 4 -6 4 -6 5 -6 4 -5 4 -6 5 -5 4 -5 5 -5 5 -4 4 -5 5 -4 5 -4 5 -4 6 -4 5 -3 6 -3 6 -3 6 -3 6 -3 7 -2 7 -2 7 -2 8 -2 8 -1 8 -2 8 -1 9 0 9 -1 10 0 10 -20 0 0 -11 1 -10 1 -10 1 -9 1 -9 2 -9 1 -9 3 -8 2 -8 3 -8 2 -7 4 -7 3 -7 4 -7 3 -6 5 -7 4 -6 4 -5 5 -6 5 -5 5 -6 5 -5 6 -5 5 -5 6 -4 6 -5 6 -5 7 -4 6 -4 7 -5 7 -4 7 -5 -1 1zm12 16l-1 0 1 0 0 0zm79 -93l19 -8 1 3 0 3 0 3 0 3 -1 2 -1 3 -2 2 -1 3 -2 2 -1 2 -2 3 -3 2 -2 3 -3 3 -2 2 -3 3 -4 3 -3 3 -4 3 -3 4 -4 3 -5 3 -4 4 -5 3 -4 4 -6 4 -5 4 -5 4 -6 4 -6 4 -6 5 -6 4 -12 -16 6 -5 6 -4 6 -4 6 -4 5 -4 5 -4 5 -4 5 -3 5 -4 4 -3 4 -4 4 -3 3 -3 4 -3 3 -3 3 -2 3 -3 2 -2 2 -3 2 -2 2 -2 2 -2 1 -2 1 -1 1 -2 1 -1 0 -1 0 0 0 0 0 0 0 0 0 1z"/>
  </g>
 </g>
</svg>
