<?xml version="1.0" encoding="UTF-8"?>
<!DOCTYPE svg PUBLIC "-//W3C//DTD SVG 1.1//EN" "http://www.w3.org/Graphics/SVG/1.1/DTD/svg11.dtd">
<!-- Creator: CorelDRAW -->
<svg xmlns="http://www.w3.org/2000/svg" xml:space="preserve" width="40mm" height="60mm" style="shape-rendering:geometricPrecision; text-rendering:geometricPrecision; image-rendering:optimizeQuality; fill-rule:evenodd; clip-rule:evenodd"
viewBox="0 0 40 60"
 xmlns:xlink="http://www.w3.org/1999/xlink">
 <defs>
  <style type="text/css">
   <![CDATA[
    .str0 {stroke:#1F1A17;stroke-width:0.194}
    .fil0 {fill:none;fill-rule:nonzero}
   ]]>
  </style>
 </defs>
 <g id="图层_x0020_1">
  <metadata id="CorelCorpID_0Corel-Layer"/>
  <g id="_232086536">
   <g>
    <line id="_232086656" class="fil0 str0" x1="30.5755" y1="6.533" x2="30.5755" y2= "6.8526" />
    <line id="_232086440" class="fil0 str0" x1="30.5755" y1="52.6113" x2="30.5755" y2= "52.7073" />
    <path id="_232086224" class="fil0 str0" d="M30.5755 52.7073c-0.0497,-0.0181 -0.0734,-0.0429 -0.096,-0.096"/>
    <line id="_232086584" class="fil0 str0" x1="30.4795" y1="52.6113" x2="11.0427" y2= "52.6079" />
    <path id="_232086272" class="fil0 str0" d="M11.0427 52.6079c-0.1852,-0.0068 -0.2383,-0.0158 -0.4066,-0.0712 -0.5431,-0.1795 -1.0287,-0.7046 -1.1405,-1.2365"/>
    <line id="_232086392" class="fil0 str0" x1="9.4956" y1="51.3002" x2="9.4244" y2= "8.3354" />
    <path id="_232088048" class="fil0 str0" d="M9.4244 8.3354c0.0351,-0.6596 0.2474,-1.0977 0.7104,-1.4591"/>
    <line id="_232088096" class="fil0 str0" x1="10.1348" y1="6.8763" x2="10.1878" y2= "6.8345" />
    <path id="_232088912" class="fil0 str0" d="M10.1878 6.8345c0.4213,-0.3285 0.4213,-0.3285 4.0981,-0.3274"/>
    <line id="_232089080" class="fil0 str0" x1="14.2859" y1="6.5071" x2="14.7523" y2= "6.5071" />
    <path id="_232089128" class="fil0 str0" d="M14.7523 6.5071c2.5036,0 2.9846,0.0056 3.2252,0.0384 0.2394,0.0327 0.2823,0.0982 0.2823,0.4392"/>
    <line id="_232088672" class="fil0 str0" x1="18.2598" y1="6.9847" x2="18.2598" y2= "7.048" />
    <path id="_232090496" class="fil0 str0" d="M18.2598 7.048c0.0011,0.9406 0.0011,0.9406 1.3799,0.9406"/>
    <line id="_232090592" class="fil0 str0" x1="19.6397" y1="7.9886" x2="19.7312" y2= "7.9886" />
    <path id="_232090832" class="fil0 str0" d="M19.7312 7.9886c1.5843,0 1.7063,-0.0113 1.8542,-0.1682 0.1073,-0.1129 0.1276,-0.2157 0.1276,-0.6493"/>
    <polyline id="_232092560" class="fil0 str0" points="21.713,7.1711 21.713,7.048 21.704,6.8809 "/>
    <path id="_232093784" class="fil0 str0" d="M21.704 6.8809c-0.0305,-0.3829 -0.0305,-0.3829 2.3139,-0.3806"/>
    <line id="_232093304" class="fil0 str0" x1="24.0179" y1="6.5003" x2="25.0455" y2= "6.5014" />
    <path id="_232093688" class="fil0 str0" d="M25.0455 6.5014c1.9717,0.0012 3.7875,0.0192 4.0055,0.0384 0.6346,0.0565 1.2964,0.6539 1.4387,1.2975 0.0248,0.113 0.0259,0.1773 0.0237,2.4009"/>
    <line id="_232094288" class="fil0 str0" x1="30.5134" y1="10.2382" x2="30.475" y2= "51.071" />
    <path id="_214738560" class="fil0 str0" d="M30.475 51.071c0.0034,0.07 0.0056,0.1242 0.0056,0.1637 0,0.5918 -0.69,1.2501 -1.4172,1.3551"/>
    <polyline id="_214738872" class="fil0 str0" points="29.0634,52.5898 28.684,52.644 28.6557,52.6497 "/>
    <path id="_214738608" class="fil0 str0" d="M28.6557 52.6497c-0.4844,0.1095 -0.7419,0.3173 -1.057,0.8503"/>
   </g>
  </g>
 </g>
</svg>
