<?xml version="1.0" encoding="UTF-8"?>
<!DOCTYPE svg PUBLIC "-//W3C//DTD SVG 1.1//EN" "http://www.w3.org/Graphics/SVG/1.1/DTD/svg11.dtd">
<!-- Creator: CorelDRAW -->
<svg xmlns="http://www.w3.org/2000/svg" xml:space="preserve" width="40mm" height="60mm" style="shape-rendering:geometricPrecision; text-rendering:geometricPrecision; image-rendering:optimizeQuality; fill-rule:evenodd; clip-rule:evenodd"
viewBox="0 0 40 60"
 xmlns:xlink="http://www.w3.org/1999/xlink">
 <defs>
  <style type="text/css">
   <![CDATA[
    .str1 {stroke:#1F1A17;stroke-width:0.0762}
    .str0 {stroke:#1F1A17;stroke-width:0.0762}
    .fil1 {fill:none}
    .fil0 {fill:none;fill-rule:nonzero}
   ]]>
  </style>
 </defs>
 <g id="图层_x0020_1">
  <metadata id="CorelCorpID_0Corel-Layer"/>
  <g id="_159590768">
   <path id="_164519104" class="fil0 str0" d="M31.0346 51.498c-0.0011,0.4549 -0.3926,1.1338 -0.8678,1.5016 -0.4017,0.31 -0.7796,0.4344 -1.5038,0.4933 -4.1731,0.0113 -5.9484,0.0068 -10.1214,0.0022m12.5281 -36.7425l-0.0351 34.7454m-2.9001 -44.998c0.8329,0 1.0965,0.0215 1.3307,0.1063 0.783,0.2863 1.3024,0.8498 1.5593,1.6917 0.0305,0.1029 0.0373,0.2082 0.0384,0.6529 0.0068,2.6002 0.0091,5.2015 0.0068,7.8017m-19.6397 -10.2526l16.7045 0m-19.0026 1.5377c0.2783,-0.7343 0.852,-1.256 1.635,-1.4891 0.1426,-0.0418 0.2297,-0.0486 0.6631,-0.0486m-2.3072 1.5637l0.0091 -0.026m-0.1799 0.8803c0.0203,-0.4594 0.0203,-0.4594 0.1708,-0.8543m-0.172 0.8838l0.0012 -0.0295m-0.0102 21.0711c-0.0192,-7.0131 -0.0158,-14.0274 0.009,-21.0416m0.0487 42.09l-0.0577 -21.0484m2.4079 23.4981c-1.1519,-0.0362 -1.9768,-0.6777 -2.3129,-1.7968 -0.0305,-0.1007 -0.0362,-0.198 -0.0373,-0.6529m9.5421 2.4576l-7.1919 -0.0079"/>
   <path id="_159311912" class="fil1 str1" d="M24.6795 7.031c0.2835,0 0.5132,0.2298 0.5132,0.5132 0,0.2834 -0.2297,0.5132 -0.5132,0.5132 -0.2833,0 -0.5131,-0.2298 -0.5131,-0.5132 0,-0.2834 0.2298,-0.5132 0.5131,-0.5132z"/>
   <path id="_159311456" class="fil1 str1" d="M17.8024 7.101l4.2789 0c0.3133,0 0.5696,0.1889 0.5696,0.4199l0 0c0,0.2309 -0.2563,0.4198 -0.5696,0.4198l-4.2789 0c-0.3132,0 -0.5695,-0.1889 -0.5695,-0.4198l0 0c0,-0.231 0.2563,-0.4199 0.5695,-0.4199z"/>
   <path id="_422344144" class="fil1 str1" d="M14.5998 7.1714l0.4681 0c0.2224,0 0.4044,0.1937 0.4044,0.4305l0 0.0001c0,0.2368 -0.182,0.4305 -0.4044,0.4305l-0.4681 0c-0.2225,0 -0.4045,-0.1937 -0.4045,-0.4305l0 -0.0001c0,-0.2368 0.182,-0.4305 0.4045,-0.4305z"/>
  </g>
 </g>
</svg>
