<?xml version="1.0" encoding="UTF-8"?>
<!DOCTYPE svg PUBLIC "-//W3C//DTD SVG 1.1//EN" "http://www.w3.org/Graphics/SVG/1.1/DTD/svg11.dtd">
<!-- Creator: CorelDRAW X7 -->
<svg xmlns="http://www.w3.org/2000/svg" xml:space="preserve" width="40mm" height="60mm" version="1.1" style="shape-rendering:geometricPrecision; text-rendering:geometricPrecision; image-rendering:optimizeQuality; fill-rule:evenodd; clip-rule:evenodd"
viewBox="0 0 4000 6000"
 xmlns:xlink="http://www.w3.org/1999/xlink">
 <defs>
  <style type="text/css">
   <![CDATA[
    .str0 {stroke:black;stroke-width:17.64}
    .fil0 {fill:none}
   ]]>
  </style>
 </defs>
 <g id="图层_x0020_1">
  <metadata id="CorelCorpID_0Corel-Layer"/>
  <g id="_2757228764352">
   <path class="fil0 str0" d="M864 5271l2077 0c107,0 195,-89 195,-198l0 -4225c0,-109 -88,-198 -195,-198l-1808 0c-108,0 -195,89 -195,198l0 4225c0,109 87,198 195,198 108,0 348,33 348,79"/>
   <path class="fil0 str0" d="M1836 889c0,-13 -32,-33 -58,-33 -25,0 -46,21 -46,47l0 0c0,25 21,46 46,46l524 0c26,0 47,-21 47,-46l0 0c0,-26 -21,-47 -47,-47l-524 0"/>
  </g>
 </g>
</svg>
