<?xml version="1.0" encoding="UTF-8"?>
<!DOCTYPE svg PUBLIC "-//W3C//DTD SVG 1.1//EN" "http://www.w3.org/Graphics/SVG/1.1/DTD/svg11.dtd">
<!-- Creator: CorelDRAW X8 -->
<svg xmlns="http://www.w3.org/2000/svg" xml:space="preserve" width="40mm" height="60mm" version="1.1" style="shape-rendering:geometricPrecision; text-rendering:geometricPrecision; image-rendering:optimizeQuality; fill-rule:evenodd; clip-rule:evenodd"
viewBox="0 0 4000 6000"
 xmlns:xlink="http://www.w3.org/1999/xlink">
 <defs>
  <style type="text/css">
   <![CDATA[
    .str0 {stroke:black;stroke-width:7.62}
    .fil0 {fill:none}
   ]]>
  </style>
 </defs>
 <g id="图层_x0020_1">
  <metadata id="CorelCorpID_0Corel-Layer"/>
  <path class="fil0 str0" d="M2341 760c0,-6 -5,-11 -15,-11 -34,0 -62,28 -62,63 0,34 28,62 62,62 35,0 63,-28 63,-62 0,-35 -28,-63 -63,-63m-322 69c-4,-18 -14,-32 -58,-32l-38 0c-20,0 -36,16 -36,36l0 0c0,20 16,36 36,36l179 0c20,0 36,-16 36,-36l0 0c0,-20 -16,-36 -36,-36l-141 0m-273 -23c-1,-5 -5,-10 -15,-11 -35,0 -63,28 -63,63 0,34 28,62 63,62 35,0 63,-28 63,-62 0,-35 -28,-63 -63,-63m-625 4579l1869 0c18,0 26,-2 37,-15l131 -154c11,-13 12,-18 12,-39l0 -4286c0,-12 -2,-19 -10,-28l-113 -145c-8,-10 -17,-14 -32,-14l-1836 0c-20,0 -27,3 -42,20l-114 133c-15,17 -17,29 -17,48l0 4268c0,15 0,21 10,34l130 168c6,7 11,10 20,10l17 0c15,0 34,9 44,19"/>
 </g>
</svg>
