<?xml version="1.0" encoding="UTF-8"?>
<!DOCTYPE svg PUBLIC "-//W3C//DTD SVG 1.1//EN" "http://www.w3.org/Graphics/SVG/1.1/DTD/svg11.dtd">
<!-- Creator: CorelDRAW X8 -->
<svg xmlns="http://www.w3.org/2000/svg" xml:space="preserve" width="40mm" height="60mm" version="1.1" style="shape-rendering:geometricPrecision; text-rendering:geometricPrecision; image-rendering:optimizeQuality; fill-rule:evenodd; clip-rule:evenodd"
viewBox="0 0 4000 6000"
 xmlns:xlink="http://www.w3.org/1999/xlink">
 <defs>
  <style type="text/css">
   <![CDATA[
    .str0 {stroke:#332C2B;stroke-width:7.62}
    .fil0 {fill:none}
   ]]>
  </style>
 </defs>
 <g id="图层_x0020_1">
  <metadata id="CorelCorpID_0Corel-Layer"/>
  <path class="fil0 str0" d="M907 5275l1934 0c139,0 252,-113 252,-251l0 -4123c0,-138 -113,-251 -252,-251l-1652 0c-139,0 -252,113 -252,251l0 1537c0,15 0,18 5,33l11 37c3,13 4,15 4,28l0 431c0,8 0,9 -2,17l-15 56c-2,7 -3,9 -3,16l0 1968c0,138 113,251 252,251 138,0 230,33 230,75m-107 -4579l159 0c82,0 148,67 148,148l0 878c0,81 -66,147 -148,147l-159 0c-81,0 -147,-66 -147,-147l0 -878c0,-81 66,-148 147,-148zm0 41l159 0c57,0 104,47 104,104l0 886c0,57 -47,103 -104,103l-159 0c-57,0 -103,-46 -103,-103l0 -886c0,-57 46,-104 103,-104zm29 52c66,0 120,53 120,120 0,66 -54,120 -120,120 -66,0 -120,-54 -120,-120 0,-67 54,-120 120,-120zm2 322c66,0 120,54 120,120 0,66 -54,120 -120,120 -66,0 -120,-54 -120,-120 0,-66 54,-120 120,-120zm-1 287c67,0 120,53 120,120 0,66 -53,120 -120,120 -66,0 -120,-54 -120,-120 0,-67 54,-120 120,-120zm-38 276l78 0c24,0 44,20 44,44l0 0c0,24 -20,44 -44,44l-78 0c-24,0 -44,-20 -44,-44l0 0c0,-24 20,-44 44,-44z"/>
 </g>
</svg>
