<?xml version="1.0" encoding="UTF-8"?>
<!DOCTYPE svg PUBLIC "-//W3C//DTD SVG 1.1//EN" "http://www.w3.org/Graphics/SVG/1.1/DTD/svg11.dtd">
<!-- Creator: CorelDRAW X8 -->
<svg xmlns="http://www.w3.org/2000/svg" xml:space="preserve" width="40mm" height="60mm" version="1.1" style="shape-rendering:geometricPrecision; text-rendering:geometricPrecision; image-rendering:optimizeQuality; fill-rule:evenodd; clip-rule:evenodd"
viewBox="0 0 4000 6000"
 xmlns:xlink="http://www.w3.org/1999/xlink">
 <defs>
  <style type="text/css">
   <![CDATA[
    .fil0 {fill:#222222;fill-rule:nonzero}
   ]]>
  </style>
 </defs>
 <g id="图层_x0020_1">
  <metadata id="CorelCorpID_0Corel-Layer"/>
  <g>
   <path class="fil0" d="M1045 5358c-6,0 -10,-5 -10,-10 0,-6 4,-10 10,-10l0 20zm1552 0l-1552 0 0 -20 1552 0 0 0 0 20zm0 -20c5,0 10,4 10,10 0,5 -5,10 -10,10l0 -20zm201 21l-201 -1 0 -20 201 1 0 20 0 0zm0 -20c5,0 10,5 10,10 0,6 -5,10 -10,10l0 -20zm288 -288l20 0 0 0 0 15 -1 16 -2 16 -3 15 -3 15 -5 14 -5 15 -5 14 -6 13 -7 14 -7 13 -8 12 -9 12 -9 12 -10 11 -10 11 -11 10 -11 10 -12 9 -12 8 -12 8 -13 8 -13 7 -14 6 -14 5 -14 5 -15 4 -15 4 -15 3 -16 1 -15 2 -16 0 0 -20 15 0 14 -1 15 -2 14 -3 14 -3 14 -4 13 -4 13 -6 13 -5 12 -7 12 -7 12 -7 11 -8 11 -9 11 -9 10 -9 9 -10 9 -11 9 -11 8 -11 7 -12 7 -12 7 -12 6 -13 5 -13 4 -14 4 -13 3 -14 3 -14 2 -15 1 -15 0 -14 0 0zm0 0c0,-6 5,-10 10,-10 6,0 10,4 10,10l-20 0zm20 -4104l0 4104 -20 0 0 -4104 0 0 20 0zm-20 0c0,-6 5,-10 10,-10 6,0 10,4 10,10l-20 0zm-281 -286l0 -20 0 0 16 1 15 1 15 2 15 3 15 3 14 5 14 4 14 6 13 6 13 7 13 7 12 8 12 9 12 9 10 10 11 10 10 10 9 11 9 12 9 12 7 12 8 13 6 13 6 14 6 13 4 15 4 14 3 15 3 15 2 15 1 15 0 16 -20 0 0 -15 -1 -14 -2 -14 -2 -14 -3 -14 -4 -14 -4 -13 -5 -13 -6 -12 -6 -13 -7 -12 -7 -11 -8 -11 -8 -11 -9 -10 -9 -10 -10 -10 -10 -9 -11 -8 -11 -8 -11 -8 -12 -7 -12 -6 -13 -6 -13 -5 -13 -4 -13 -4 -14 -3 -14 -3 -14 -2 -14 -1 -15 -1 0 0zm0 0c-6,0 -10,-4 -10,-10 0,-5 5,-10 10,-10l0 20zm-4 0l0 -20 0 0 0 0 0 0 0 0 0 0 0 0 1 0 0 0 0 0 0 0 0 0 0 0 0 0 0 0 1 0 0 0 0 0 0 0 0 0 0 0 0 0 1 0 0 0 0 0 0 0 0 0 0 0 0 0 0 0 1 0 0 0 0 0 0 0 0 20 0 0 0 0 0 0 -1 0 0 0 0 0 0 0 0 0 0 0 0 0 0 0 -1 0 0 0 0 0 0 0 0 0 0 0 0 0 -1 0 0 0 0 0 0 0 0 0 0 0 0 0 0 0 -1 0 0 0 0 0 0 0 0 0 0 0 0 0zm0 0c-6,0 -10,-4 -10,-10 0,-5 4,-10 10,-10l0 20zm-203 -21l203 1 0 20 -204 -1 1 -20 0 0zm-1 20c-5,0 -9,-5 -9,-10 0,-6 4,-10 10,-10l-1 20zm-1192 -20l1193 0 0 20 -1193 0 0 -20 0 0zm0 20c-6,0 -10,-4 -10,-10 0,-6 4,-10 10,-10l0 20zm-200 -18l200 -2 0 20 -200 2 0 0 0 -20zm0 20c-5,0 -10,-4 -10,-10 0,-5 5,-10 10,-10l0 20zm-291 286l-20 0 0 0 0 -16 2 -16 2 -15 3 -15 3 -15 5 -15 5 -14 5 -14 7 -14 6 -13 8 -13 8 -12 9 -12 9 -12 10 -11 10 -10 11 -11 11 -9 12 -9 12 -9 13 -8 13 -7 13 -7 14 -6 14 -5 14 -5 15 -4 15 -3 15 -3 16 -1 15 -1 16 -1 0 20 -15 1 -14 1 -15 1 -14 3 -14 3 -14 3 -13 5 -13 5 -13 6 -13 6 -12 7 -12 7 -11 8 -11 8 -11 9 -10 10 -9 10 -10 10 -8 11 -8 11 -8 12 -7 12 -7 12 -5 13 -6 13 -4 13 -4 14 -4 14 -2 14 -2 14 -2 15 0 15 0 0zm0 0c0,5 -5,10 -10,10 -6,0 -10,-5 -10,-10l20 0zm-20 4104l0 -4104 20 0 0 4104 0 0 -20 0zm20 0c0,5 -5,10 -10,10 -6,0 -10,-5 -10,-10l20 0zm288 288l1 20 -1 0 -16 0 -15 -2 -16 -2 -15 -2 -15 -4 -14 -4 -15 -5 -14 -5 -13 -6 -14 -7 -13 -8 -12 -8 -12 -8 -12 -9 -11 -10 -11 -10 -10 -11 -10 -11 -9 -12 -9 -12 -8 -12 -7 -13 -7 -14 -6 -13 -5 -14 -5 -15 -5 -14 -3 -15 -3 -15 -2 -16 -1 -16 0 -15 20 0 0 14 1 15 2 15 3 14 3 14 4 13 4 14 5 13 6 13 7 12 7 12 7 12 8 11 9 11 9 11 9 10 10 9 11 9 11 9 11 8 12 7 12 7 12 7 13 5 13 6 13 4 14 4 14 3 14 3 15 2 14 1 15 0 0 0zm0 0c6,0 10,4 10,10 0,6 -4,10 -10,10l0 -20zm68 18l-67 2 -1 -20 67 -2 1 20zm-1 -20c6,0 10,4 11,9 0,6 -5,10 -10,11l-1 -20z"/>
  </g>
 </g>
</svg>
