<?xml version="1.0" encoding="UTF-8"?>
<!DOCTYPE svg PUBLIC "-//W3C//DTD SVG 1.1//EN" "http://www.w3.org/Graphics/SVG/1.1/DTD/svg11.dtd">
<!-- Creator: CorelDRAW X8 -->
<svg xmlns="http://www.w3.org/2000/svg" xml:space="preserve" width="40mm" height="60mm" version="1.1" style="shape-rendering:geometricPrecision; text-rendering:geometricPrecision; image-rendering:optimizeQuality; fill-rule:evenodd; clip-rule:evenodd"
viewBox="0 0 4000 6000"
 xmlns:xlink="http://www.w3.org/1999/xlink">
 <defs>
  <style type="text/css">
   <![CDATA[
    .str0 {stroke:black;stroke-width:7.62}
    .fil0 {fill:none}
   ]]>
  </style>
 </defs>
 <g id="图层_x0020_1">
  <metadata id="CorelCorpID_0Corel-Layer"/>
  <path class="fil0 str0" d="M1083 5350l1761 0c112,0 204,-92 204,-205l0 -4290c0,-113 -92,-205 -204,-205l-576 0c-2,0 -3,0 -5,2l-6 7c-2,2 -3,2 -6,2l-160 0c-16,0 -26,10 -26,29l0 46c0,36 -30,65 -66,65l0 0c-36,0 -66,-29 -66,-65l0 -45c0,-24 -16,-30 -32,-30l-149 0c-3,0 -3,0 -6,-3l-5 -6c-2,-2 -3,-2 -6,-2l-579 0c-112,0 -204,92 -204,205l0 4290c0,113 92,205 204,205l63 0"/>
 </g>
</svg>
