<?xml version="1.0" encoding="UTF-8"?>
<!DOCTYPE svg PUBLIC "-//W3C//DTD SVG 1.1//EN" "http://www.w3.org/Graphics/SVG/1.1/DTD/svg11.dtd">
<!-- Creator: CorelDRAW X8 -->
<svg xmlns="http://www.w3.org/2000/svg" xml:space="preserve" width="40mm" height="60mm" version="1.1" style="shape-rendering:geometricPrecision; text-rendering:geometricPrecision; image-rendering:optimizeQuality; fill-rule:evenodd; clip-rule:evenodd"
viewBox="0 0 4000 6000"
 xmlns:xlink="http://www.w3.org/1999/xlink">
 <defs>
  <style type="text/css">
   <![CDATA[
    .str0 {stroke:#332C2B;stroke-width:7.62}
    .fil0 {fill:none}
   ]]>
  </style>
 </defs>
 <g id="Katman_x0020_1">
  <metadata id="CorelCorpID_0Corel-Layer"/>
  <g id="_2235170213728">
   <path class="fil0 str0" d="M809 650l1362 0 0 77c0,15 12,26 26,26l476 0c15,0 27,-11 27,-26l0 -77 489 0 1 150c-173,27 -226,20 -364,32 0,0 247,-17 213,204l149 0c-5,1259 -8,2658 -8,3938l-131 1c0,0 34,195 -168,191 0,0 105,34 311,48l0 136 -2383 -1 1 -152c0,0 175,-2 344,-34 0,0 -217,24 -204,-189l-135 1 0 -3933 151 -2c0,0 -37,-211 230,-205 0,0 -285,-27 -388,-38l1 -135 0 -12z"/>
   <circle class="fil0 str0" cx="1474" cy="736" r="29"/>
   <rect class="fil0 str0" x="1140" y="1064" width="286" height="1043" rx="84" ry="195"/>
   <rect class="fil0 str0" x="851" y="1520" width="73.6872" height="627.706" rx="31" ry="169"/>
   <rect class="fil0 str0" x="853" y="2321" width="66.253" height="309.617" rx="28" ry="83"/>
   <circle class="fil0 str0" cx="2481" cy="5262" r="55"/>
   <rect class="fil0 str0" x="1882" y="5221" width="231.978" height="87.3326" rx="48" ry="55"/>
   <rect class="fil0 str0" x="3078" y="1719" width="68.2289" height="351.305" rx="29" ry="95"/>
   <rect class="fil0 str0" x="1313" y="5229" width="250.244" height="81.8743" rx="27" ry="27"/>
   <circle class="fil0 str0" cx="1652" cy="5270" r="27"/>
   <rect class="fil0 str0" x="1232" y="2172" width="98.2496" height="98.2497" rx="24" ry="15"/>
   <rect class="fil0 str0" x="1862" y="1832" width="267" height="267" rx="77" ry="49"/>
  </g>
 </g>
</svg>
