<?xml version="1.0" encoding="UTF-8"?>
<!DOCTYPE svg PUBLIC "-//W3C//DTD SVG 1.1//EN" "http://www.w3.org/Graphics/SVG/1.1/DTD/svg11.dtd">
<!-- Creator: CorelDRAW X8 -->
<svg xmlns="http://www.w3.org/2000/svg" xml:space="preserve" width="40mm" height="60mm" version="1.1" style="shape-rendering:geometricPrecision; text-rendering:geometricPrecision; image-rendering:optimizeQuality; fill-rule:evenodd; clip-rule:evenodd"
viewBox="0 0 4000 6000"
 xmlns:xlink="http://www.w3.org/1999/xlink">
 <defs>
  <style type="text/css">
   <![CDATA[
    .str0 {stroke:black;stroke-width:20}
    .fil0 {fill:none}
   ]]>
  </style>
 </defs>
 <g id="图层_x0020_1">
  <metadata id="CorelCorpID_0Corel-Layer"/>
  <path class="fil0 str0" d="M934 5350l301 0 1596 0c129,0 235,-111 235,-246l0 -4208c0,-135 -106,-246 -235,-246l-597 0c-1,15 -13,26 -27,26l-138 0 0 46c0,31 -25,56 -56,56 -31,0 -56,-25 -56,-56l0 -46 -140 0c-14,0 -26,-11 -28,-26l-597 0c-129,0 -234,111 -234,246l0 4208c0,135 104,245 232,246 0,0 40,0 41,0"/>
 </g>
</svg>
