<?xml version="1.0" encoding="UTF-8"?>
<!DOCTYPE svg PUBLIC "-//W3C//DTD SVG 1.1//EN" "http://www.w3.org/Graphics/SVG/1.1/DTD/svg11.dtd">
<!-- Creator: CorelDRAW 2020 (64-Bit) -->
<svg xmlns="http://www.w3.org/2000/svg" xml:space="preserve" width="40mm" height="60mm" version="1.1" style="shape-rendering:geometricPrecision; text-rendering:geometricPrecision; image-rendering:optimizeQuality; fill-rule:evenodd; clip-rule:evenodd"
viewBox="0 0 4000 6000"
 xmlns:xlink="http://www.w3.org/1999/xlink"
 xmlns:xodm="http://www.corel.com/coreldraw/odm/2003">
 <defs>
  <style type="text/css">
   <![CDATA[
    .str0 {stroke:black;stroke-width:7.62;stroke-miterlimit:22.9256}
    .fil0 {fill:none}
   ]]>
  </style>
 </defs>
 <g id="图层_x0020_1">
  <metadata id="CorelCorpID_0Corel-Layer"/>
  <path class="fil0 str0" d="M507.15 5329.2l2853.01 0c90.69,0 164.9,-74.21 164.9,-164.91l0 -4343.72c0,-90.69 -74.21,-164.9 -164.9,-164.9l-2733.52 0c-90.69,0 -164.9,74.21 -164.9,164.9l0 2103.34c0,10.81 8.82,19.64 19.64,19.64l64.63 0c29.7,0 54,24.29 54,53.99l0 0.01c0,29.7 -24.3,54 -54,54l-64.63 0c-10.82,0 -19.64,8.82 -19.64,19.63l0 2093.11c0,90.7 74.21,164.91 164.9,164.91l40.27 0c84.71,0 100.51,9.52 120.8,26.47"/>
 </g>
</svg>
