<?xml version="1.0" encoding="UTF-8"?>
<!DOCTYPE svg PUBLIC "-//W3C//DTD SVG 1.1//EN" "http://www.w3.org/Graphics/SVG/1.1/DTD/svg11.dtd">
<!-- Creator: CorelDRAW 2020 (64-Bit) -->
<svg xmlns="http://www.w3.org/2000/svg" xml:space="preserve" width="40mm" height="60mm" version="1.1" style="shape-rendering:geometricPrecision; text-rendering:geometricPrecision; image-rendering:optimizeQuality; fill-rule:evenodd; clip-rule:evenodd"
viewBox="0 0 4000 6000"
 xmlns:xlink="http://www.w3.org/1999/xlink"
 xmlns:xodm="http://www.corel.com/coreldraw/odm/2003">
 <defs>
  <style type="text/css">
   <![CDATA[
    .str2 {stroke:#332C2B;stroke-width:20;stroke-miterlimit:22.9256}
    .str1 {stroke:#E62129;stroke-width:20;stroke-miterlimit:22.9256}
    .str0 {stroke:#E62129;stroke-width:20;stroke-miterlimit:22.9256}
    .fil0 {fill:none}
   ]]>
  </style>
   <clipPath id="id0">
    <rect x="-46995.76" y="-5469.47" width="16303.83" height="16920.13"/>
   </clipPath>
 </defs>
 <g id="图层_x0020_1">
  <metadata id="CorelCorpID_0Corel-Layer"/>
  <g style="clip-path:url(#id0)">
   <image x="-46995.76" y="-5469.47" width="16303.83" height="16920.13" xlink:href="Galaxy F04 -11i（前膜全屏）_Images\Galaxy F04 -11i（前膜全屏）_ImgID1.png"/>
  </g>
  <rect class="fil0 str0" x="-46776.78" y="-5229.49" width="7590" height="16420"/>
  <path class="fil0 str0" d="M-45734.26 -5031.05l1617.65 0c61.86,-1.99 114.76,58.27 150.09,58.27l573.66 0c103.88,0 91.65,75.95 91.65,117.25 0,182.29 147.78,330.07 330.07,330.07 182.29,0 330.07,-147.78 330.07,-330.07 0,-41.3 -5.19,-117.25 91.16,-117.25l584.63 0c35.33,0 98.81,-58.27 147.61,-58.27l1588.38 0c467.5,0 850,382.52 850,850l0 14321.89c0,467.5 -382.5,850 -850,850l-5504.97 0c-467.5,0 -850.01,-382.5 -850.01,-850l0 -14321.89c0,-467.5 382.51,-850 850.01,-850z"/>
  <rect class="fil0 str1" x="-38574.69" y="-5229.49" width="7590" height="16420"/>
  <rect class="fil0 str1" x="-38517.63" y="-5146.46" width="7475.88" height="16233.82" rx="1000" ry="900.38"/>
  <path class="fil0 str1" d="M-37280.18 -4571.75c-357.1,0 -646.58,289.48 -646.58,646.58 0,357.1 289.48,646.58 646.58,646.58 357.1,0 646.58,-289.48 646.58,-646.58 0,-357.1 -289.48,-646.58 -646.58,-646.58 -357.1,0 -491.3,407.04 -507.84,550.91"/>
  <path class="fil0 str1" d="M-37280.18 -3104.51c-357.1,0 -646.58,289.48 -646.58,646.58 0,357.1 289.48,646.58 646.58,646.58 357.1,0 646.58,-289.48 646.58,-646.58 0,-357.1 -289.48,-646.58 -646.58,-646.58 -357.1,0 -491.3,407.04 -507.84,550.91"/>
  <path class="fil0 str1" d="M-36192.82 -3391.41c-111.42,0 -201.74,90.32 -201.74,201.74 0,111.42 90.32,201.74 201.74,201.74 111.42,0 201.74,-90.32 201.74,-201.74 0,-111.42 -90.32,-201.74 -201.74,-201.74 -111.42,0 -153.29,127 -158.45,171.89"/>
  <path class="fil0 str2" d="M-3712.12 6466.75l0 -6012.63c0,-467.48 -382.52,-850 -850,-850l-14321.89 0c-467.48,0 -850,382.5 -850,850l0 1588.38c0,48.8 58.27,112.28 58.27,147.61l0 584.63c0,96.35 75.95,91.16 117.25,91.16 182.29,0 330.07,147.78 330.07,330.07 0,182.29 -147.78,330.07 -330.07,330.07 -41.3,0 -117.25,-12.23 -117.25,91.65l0 573.66c0,35.33 -60.26,88.23 -58.27,150.09l0 1617.65c0,467.5 382.5,850.01 850,850.01l14321.89 0c467.5,0 850,-382.51 850,-850.01 0,-467.5 25.18,-701.08 135.98,-891.26"/>
  <path class="fil0 str2" d="M1044.56 5310.99l1748.95 0c135.98,0 247.25,-111.27 247.25,-247.25l0 -4165.94c0,-135.98 -111.26,-247.25 -247.25,-247.25l-462.02 0c-14.2,0 -32.66,16.95 -42.94,16.95l-170.06 0c-28.02,0 -26.51,22.1 -26.51,34.11 0,53.02 -42.99,96.01 -96.02,96.01 -53.02,0 -96.01,-42.99 -96.01,-96.01 0,-12.01 3.56,-34.11 -26.65,-34.11l-166.87 0c-10.28,0 -25.66,-17.52 -43.66,-16.95l-470.54 0c-135.99,0 -247.25,111.27 -247.25,247.25l0 4165.94c0,135.98 111.26,247.25 247.25,247.25 135.99,0 203.93,7.32 259.25,39.55"/>
 </g>
</svg>
