<?xml version="1.0" encoding="UTF-8"?>
<!DOCTYPE svg PUBLIC "-//W3C//DTD SVG 1.1//EN" "http://www.w3.org/Graphics/SVG/1.1/DTD/svg11.dtd">
<!-- Creator: CorelDRAW X8 -->
<svg xmlns="http://www.w3.org/2000/svg" xml:space="preserve" width="40mm" height="60mm" version="1.1" style="shape-rendering:geometricPrecision; text-rendering:geometricPrecision; image-rendering:optimizeQuality; fill-rule:evenodd; clip-rule:evenodd"
viewBox="0 0 4000 6000"
 xmlns:xlink="http://www.w3.org/1999/xlink">
 <defs>
  <style type="text/css">
   <![CDATA[
    .fil0 {fill:black;fill-rule:nonzero}
   ]]>
  </style>
 </defs>
 <g id="图层_x0020_1">
  <metadata id="CorelCorpID_0Corel-Layer"/>
  <g>
   <path class="fil0" d="M1720 665l20 0 0 0 0 1 0 2 0 1 -1 2 0 1 0 2 0 1 0 1 0 2 0 1 0 1 -1 1 0 1 0 2 0 1 0 1 -1 1 0 1 0 1 -1 1 0 1 -1 1 0 1 -1 1 0 1 -1 1 -1 1 -1 1 -2 1 -1 0 -1 1 -2 0 -4 -19 -1 0 0 0 -1 0 0 1 -1 0 0 0 0 1 0 0 0 0 0 0 0 0 0 -1 0 0 0 0 0 -1 0 0 0 -1 0 0 1 -1 0 -1 0 -1 0 -1 0 -1 0 -1 0 -1 0 -1 0 -1 1 -1 0 -1 0 -2 0 -1 0 -2 0 1zm20 0l0 0 0 0 0 0zm1 -23l0 20 0 0 0 0 -1 0 0 0 -1 0 0 0 0 0 -1 0 0 0 0 0 0 0 0 0 0 0 1 0 0 -1 0 0 0 0 1 0 0 -1 0 0 0 0 0 0 0 0 0 0 0 0 0 0 0 1 0 0 0 1 0 0 0 1 0 1 0 1 -20 0 0 -2 0 -1 0 -1 0 -1 0 -1 0 -1 0 -1 0 -1 1 -1 0 -1 1 -2 0 -1 1 -1 0 -1 1 -1 1 -1 1 -1 1 -1 1 0 1 -1 1 -1 1 0 1 0 1 -1 1 0 1 0 1 0 1 0 1 0 1 0 1 0 1 0 0 0zm0 0l0 0 0 0 0 0zm520 -2l0 20 0 0 -18 0 -18 0 -18 0 -17 0 -18 0 -17 0 -17 0 -17 0 -17 0 -17 0 -16 0 -17 0 -16 0 -16 0 -16 0 -16 0 -16 1 -16 0 -16 0 -16 0 -15 0 -16 0 -16 0 -15 0 -15 0 -16 0 -15 0 -16 0 -15 0 -15 0 -15 0 -16 1 0 -20 16 -1 15 0 15 0 15 0 16 0 15 0 15 0 16 0 15 0 16 0 15 0 16 0 16 0 16 0 16 0 15 -1 17 0 16 0 16 0 16 0 17 0 16 0 17 0 17 0 17 0 17 0 17 0 18 0 17 0 18 0 18 0 18 0 0 0zm0 0l0 0 0 0 0 0zm26 26l-20 0 0 0 0 -1 0 -1 0 -1 -1 -1 0 -1 0 -1 0 0 0 -1 0 0 0 0 0 0 0 0 0 0 0 0 1 1 0 0 0 0 1 0 0 1 0 0 0 0 0 0 0 0 -1 -1 0 0 -1 0 0 0 -1 0 -1 0 -1 0 -1 0 -1 0 0 -20 1 0 2 0 1 0 1 0 1 0 1 0 1 1 2 0 1 0 1 0 1 1 1 0 2 1 1 0 1 1 2 1 1 1 1 2 0 1 1 1 1 1 0 2 0 1 1 1 0 2 0 1 0 1 0 1 1 2 0 1 0 1 0 2 0 0zm-9 4668l-20 0 0 0 1 -123 0 -129 1 -134 1 -139 0 -143 1 -146 0 -151 1 -153 0 -156 1 -158 0 -160 1 -162 0 -162 0 -163 0 -164 1 -163 0 -163 0 -161 0 -161 0 -158 1 -157 0 -154 0 -151 0 -147 0 -144 0 -139 0 -135 0 -130 0 -125 0 -119 0 -112 0 -106 20 0 0 106 0 112 0 119 0 125 0 130 0 135 0 139 0 144 0 147 0 151 0 154 -1 157 0 158 0 161 0 161 0 163 -1 163 0 164 0 163 0 162 -1 162 0 160 -1 158 0 156 -1 153 0 151 -1 146 0 143 -1 139 -1 134 0 129 -1 123 0 0zm-26 26l0 -20 0 0 1 0 1 0 1 0 1 0 1 0 0 0 1 0 0 -1 0 0 1 0 0 0 0 0 -1 1 0 0 0 0 0 0 0 0 0 1 -1 0 0 0 0 0 1 -1 0 0 0 0 0 0 0 -1 0 -1 0 0 0 -1 0 -1 0 -1 0 -1 20 0 0 1 0 1 0 2 0 1 0 1 0 1 0 1 -1 1 0 1 0 1 0 1 -1 2 0 1 -1 1 -1 1 -1 2 -1 1 -1 1 -1 1 -1 1 -2 0 -1 1 -1 0 -2 1 -1 0 -1 0 -2 1 -1 0 -2 0 -1 0 -2 0 -1 0 0 0zm-509 -4l0 -20 0 0 14 0 15 0 15 1 15 0 16 0 15 0 16 0 16 0 17 0 16 1 16 0 17 0 17 0 16 0 17 0 17 0 16 0 17 1 17 0 16 0 17 0 16 0 17 0 16 0 16 0 16 0 15 1 16 0 15 0 15 0 15 0 14 0 0 20 -15 0 -14 0 -15 0 -15 0 -16 0 -15 -1 -16 0 -16 0 -16 0 -17 0 -16 0 -17 0 -16 0 -17 0 -17 -1 -16 0 -17 0 -17 0 -17 0 -16 0 -17 0 -16 0 -17 -1 -16 0 -16 0 -16 0 -15 0 -16 0 -15 0 -15 -1 -15 0 -14 0 0 0zm-22 -25l20 0 0 0 0 1 0 1 0 1 0 1 0 0 0 1 0 0 0 1 0 0 0 0 0 0 0 0 0 0 0 0 0 0 0 0 -1 0 0 -1 0 0 0 0 0 0 -1 0 0 0 0 0 1 0 0 0 0 0 0 0 1 0 0 0 1 0 1 0 0 20 -1 0 -2 0 -1 0 -1 0 -1 0 -1 0 -1 -1 -1 0 -1 0 -1 -1 -2 0 -1 -1 -1 -1 -1 0 -1 -1 -1 -1 -1 -2 0 -1 -1 -1 0 -1 -1 -1 0 -1 -1 -1 0 -1 0 -2 0 -1 0 -1 0 -1 0 -1 0 -1 0 -1 0 -2 0 0zm-1 -4666l20 0 0 0 0 109 0 116 1 122 0 128 1 133 0 137 0 142 0 146 1 150 0 152 0 156 0 158 0 159 1 161 0 163 0 163 0 163 0 163 0 163 0 161 0 161 -1 158 0 157 0 154 0 151 0 148 -1 144 0 139 0 135 -1 131 0 124 0 119 -20 0 0 -119 0 -124 1 -131 0 -135 0 -140 1 -143 0 -148 0 -151 0 -154 0 -157 1 -158 0 -161 0 -161 0 -163 0 -163 0 -163 0 -163 0 -163 -1 -161 0 -159 0 -158 0 -156 0 -152 -1 -150 0 -146 0 -142 0 -137 -1 -133 0 -128 -1 -122 0 -116 0 -109 0 0zm0 0l0 0 0 0 0 0zm-1 -7l12 -15 1 0 1 1 0 0 1 1 0 0 1 1 0 1 1 0 0 1 0 1 1 0 0 1 0 1 1 0 0 1 0 1 0 0 0 1 1 1 0 1 0 0 0 1 0 1 0 0 0 1 0 1 1 1 0 0 0 1 0 1 0 1 0 1 -20 0 0 -1 0 0 0 -1 0 0 0 -1 0 0 0 -1 -1 0 0 0 0 -1 0 0 0 0 0 -1 0 0 0 0 0 0 0 0 0 0 0 -1 0 0 0 0 0 0 0 0 0 0 0 0 0 0 0 0 0 0 0 0 0 0 0 0 0 0z"/>
  </g>
 </g>
</svg>
