<?xml version="1.0" encoding="UTF-8"?>
<!DOCTYPE svg PUBLIC "-//W3C//DTD SVG 1.1//EN" "http://www.w3.org/Graphics/SVG/1.1/DTD/svg11.dtd">
<!-- Creator: CorelDRAW 2020 (64-Bit) -->
<svg xmlns="http://www.w3.org/2000/svg" xml:space="preserve" width="40mm" height="60mm" version="1.1" style="shape-rendering:geometricPrecision; text-rendering:geometricPrecision; image-rendering:optimizeQuality; fill-rule:evenodd; clip-rule:evenodd"
viewBox="0 0 4000 6000"
 xmlns:xlink="http://www.w3.org/1999/xlink"
 xmlns:xodm="http://www.corel.com/coreldraw/odm/2003">
 <defs>
  <style type="text/css">
   <![CDATA[
    .str0 {stroke:#242323;stroke-width:20;stroke-linecap:round;stroke-linejoin:round;stroke-miterlimit:4}
    .fil0 {fill:none;fill-rule:nonzero}
   ]]>
  </style>
 </defs>
 <g id="图层_x0020_1">
  <metadata id="CorelCorpID_0Corel-Layer"/>
  <path class="fil0 str0" d="M945.73 658.2c-50.73,26.07 -112.19,38.77 -184.4,38.13 -85.35,0.11 -138.61,-1.86 -141.23,117.62 -7.34,339.74 -3.74,4090.24 -7.52,4436.44 -0.91,79.1 9.91,100.59 112.02,103.09 162.1,3.94 2290.52,-0.25 2623.14,2.19 19.45,0.12 25.01,-2 25.02,-25.31 0.18,-404.68 2.5,-4444.74 1.01,-4602.04 -0.23,-24.01 -3.83,-24.8 -26.87,-24.66 -55.77,0.34 -2403.33,-7.58 -2585.57,-7.33 -62.35,-2.62 -106.5,-16.17 -132.45,-40.66"/>
 </g>
</svg>
