<?xml version="1.0" encoding="UTF-8"?>
<!DOCTYPE svg PUBLIC "-//W3C//DTD SVG 1.1//EN" "http://www.w3.org/Graphics/SVG/1.1/DTD/svg11.dtd">
<!-- Creator: CorelDRAW 2020 (64-Bit) -->
<svg xmlns="http://www.w3.org/2000/svg" xml:space="preserve" width="40mm" height="60mm" version="1.1" style="shape-rendering:geometricPrecision; text-rendering:geometricPrecision; image-rendering:optimizeQuality; fill-rule:evenodd; clip-rule:evenodd"
viewBox="0 0 4000 6000"
 xmlns:xlink="http://www.w3.org/1999/xlink"
 xmlns:xodm="http://www.corel.com/coreldraw/odm/2003">
 <defs>
  <style type="text/css">
   <![CDATA[
    .str0 {stroke:black;stroke-width:7.62;stroke-linejoin:bevel;stroke-miterlimit:22.9256}
    .fil0 {fill:none}
   ]]>
  </style>
 </defs>
 <g id="_0">
  <metadata id="CorelCorpID_0Corel-Layer"/>
  <path class="fil0 str0" d="M1514.96 720.54l-310.34 0c-33.07,0 -63.67,17.37 -80.2,45.54 -16.57,28.16 -16.57,62.88 0,91.07 16.53,28.17 47.13,45.51 80.2,45.51l310.34 0c51.14,0 92.61,-40.76 92.61,-91.05 0,-50.31 -41.47,-91.07 -92.61,-91.07zm-608.57 4629.46l1941.24 0c140.27,0 253.97,-111.79 253.97,-249.69l0 -4200.62c0,-66.22 -26.76,-129.73 -74.39,-176.55 -47.62,-46.83 -112.22,-73.14 -179.58,-73.14l-1695.26 0c-67.36,0 -131.96,26.31 -179.58,73.14 -47.63,46.82 -74.39,110.33 -74.39,176.55l0 4200.62c0,66.22 26.76,129.73 74.39,176.55 47.62,46.83 112.22,73.14 179.58,73.14"/>
 </g>
</svg>
