<?xml version="1.0" encoding="UTF-8"?>
<!DOCTYPE svg PUBLIC "-//W3C//DTD SVG 1.1//EN" "http://www.w3.org/Graphics/SVG/1.1/DTD/svg11.dtd">
<!-- Creator: CorelDRAW X8 -->
<svg xmlns="http://www.w3.org/2000/svg" xml:space="preserve" width="40mm" height="60mm" version="1.1" style="shape-rendering:geometricPrecision; text-rendering:geometricPrecision; image-rendering:optimizeQuality; fill-rule:evenodd; clip-rule:evenodd"
viewBox="0 0 4000 6000"
 xmlns:xlink="http://www.w3.org/1999/xlink">
 <defs>
  <style type="text/css">
   <![CDATA[
    .str0 {stroke:#332C2B;stroke-width:19.4}
    .fil0 {fill:none;fill-rule:nonzero}
   ]]>
  </style>
 </defs>
 <g id="图层_x0020_1">
  <metadata id="CorelCorpID_0Corel-Layer"/>
  <g id="_2002457033936">
   <line class="fil0 str0" x1="2343" y1="832" x2="1291" y2= "832" />
   <path class="fil0 str0" d="M1291 832c-62,-2 -71,-15 -74,-101 0,-24 -2,-35 -7,-56"/>
   <polyline class="fil0 str0" points="1210,675 1209,675 1208,676 1208,676 1203,667 1201,668 1200,668 "/>
   <path class="fil0 str0" d="M1200 668c-25,-17 -28,-18 -50,-18 -44,0 -106,23 -144,55 -40,32 -68,74 -89,134 -4,10 -5,22 -6,64"/>
   <line class="fil0 str0" x1="911" y1="903" x2="913" y2= "5129" />
   <path class="fil0 str0" d="M913 5129c15,116 121,215 238,220 2,0 11,0 27,0"/>
   <line class="fil0 str0" x1="1178" y1="5349" x2="1689" y2= "5346" />
   <path class="fil0 str0" d="M1689 5346c36,-2 44,-21 44,-116"/>
   <line class="fil0 str0" x1="1733" y1="5230" x2="1733" y2= "5167" />
   <path class="fil0 str0" d="M1733 5167c0,-67 42,-117 104,-122 25,-2 133,-4 223,-4 130,0 154,7 188,56 14,20 19,38 19,71"/>
   <line class="fil0 str0" x1="2267" y1="5168" x2="2267" y2= "5176" />
   <path class="fil0 str0" d="M2267 5176c1,145 1,145 19,160"/>
   <line class="fil0 str0" x1="2286" y1="5336" x2="2287" y2= "5337" />
   <path class="fil0 str0" d="M2287 5337c13,12 25,13 95,13"/>
   <line class="fil0 str0" x1="2382" y1="5350" x2="2855" y2= "5348" />
   <path class="fil0 str0" d="M2855 5348c44,-3 115,-37 151,-73 38,-39 68,-102 74,-152"/>
   <line class="fil0 str0" x1="3080" y1="5123" x2="3088" y2= "2007" />
   <path class="fil0 str0" d="M3088 2007c2,-846 0,-1133 -10,-1163 -33,-80 -54,-111 -101,-146 -39,-29 -91,-48 -133,-48 -10,0 -18,2 -45,9"/>
   <polyline class="fil0 str0" points="2799,659 2799,659 2800,660 2800,661 2790,666 2792,667 2778,685 2777,685 2778,685 2778,686 2778,686 2779,687 2774,696 2776,696 2777,697 "/>
   <path class="fil0 str0" d="M2777 697c-3,14 -3,28 -4,69 0,40 -23,62 -65,62"/>
   <line class="fil0 str0" x1="2708" y1="828" x2="2317" y2= "832" />
  </g>
 </g>
</svg>
