<?xml version="1.0" encoding="UTF-8"?>
<!DOCTYPE svg PUBLIC "-//W3C//DTD SVG 1.1//EN" "http://www.w3.org/Graphics/SVG/1.1/DTD/svg11.dtd">
<!-- Creator: CorelDRAW X8 -->
<svg xmlns="http://www.w3.org/2000/svg" xml:space="preserve" width="28.0149mm" height="47.0509mm" version="1.1" style="shape-rendering:geometricPrecision; text-rendering:geometricPrecision; image-rendering:optimizeQuality; fill-rule:evenodd; clip-rule:evenodd"
viewBox="0 0 2806 4713"
 xmlns:xlink="http://www.w3.org/1999/xlink">
 <defs>
  <style type="text/css">
   <![CDATA[
    .str0 {stroke:#332C2B;stroke-width:10.0178}
    .fil0 {fill:none}
   ]]>
  </style>
 </defs>
 <g id="图层_x0020_1">
  <metadata id="CorelCorpID_0Corel-Layer"/>
  <g id="_2824391217744">
   <path class="fil0 str0" d="M1737 116c1,-4 5,-14 -11,-14 -17,0 -32,15 -32,32 0,18 15,33 33,33 17,0 32,-15 32,-33 0,-17 -15,-32 -32,-32"/>
   <path class="fil0 str0" d="M283 4713c1,-35 -16,-62 -94,-62 0,0 -4,0 -4,0 -98,0 -177,-79 -177,-177l0 -4292c0,-97 79,-177 177,-177l2439 0c98,0 177,80 177,177l0 4292c0,98 -79,177 -177,177l-1029 0c0,0 -26,3 -26,-28l0 -3 0 -50c0,-43 -35,-78 -79,-78l-174 0c-44,0 -79,35 -79,78l0 53c0,30 -27,28 -27,28l-1210 0"/>
  </g>
 </g>
</svg>
