<?xml version="1.0" encoding="UTF-8"?>
<!DOCTYPE svg PUBLIC "-//W3C//DTD SVG 1.1//EN" "http://www.w3.org/Graphics/SVG/1.1/DTD/svg11.dtd">
<!-- Creator: CorelDRAW X8 -->
<svg xmlns="http://www.w3.org/2000/svg" xml:space="preserve" width="40mm" height="60mm" version="1.1" style="shape-rendering:geometricPrecision; text-rendering:geometricPrecision; image-rendering:optimizeQuality; fill-rule:evenodd; clip-rule:evenodd"
viewBox="0 0 4000 6000"
 xmlns:xlink="http://www.w3.org/1999/xlink">
 <defs>
  <style type="text/css">
   <![CDATA[
    .str0 {stroke:#332C2B;stroke-width:7.62}
    .fil0 {fill:none}
   ]]>
  </style>
 </defs>
 <g id="图层_x0020_1">
  <metadata id="CorelCorpID_0Corel-Layer"/>
  <path class="fil0 str0" d="M852 5259l2043 0c139,0 253,-113 253,-252l0 -4105c0,-139 -114,-252 -253,-252l-1751 0c-139,0 -252,113 -252,252l0 4105c0,139 113,252 252,252 139,0 275,45 269,91m728 -3943c-162,90 -327,-73 -327,-184 0,-110 93,-201 206,-201l0 0c114,0 207,91 207,201l0 238c0,111 -93,201 -207,201l0 0c-113,0 -206,-90 -206,-201l0 -238m564 149c-50,31 -101,-25 -101,-62 0,-37 29,-68 64,-68l0 0c35,0 64,31 64,68l0 81c0,37 -29,68 -64,68l0 0c-35,0 -64,-31 -64,-68l0 -81m-281 597c-134,-36 -79,-224 18,-224 97,0 175,79 175,176 0,97 -78,175 -175,175 -97,0 -175,-78 -175,-175 0,-97 78,-176 175,-176"/>
 </g>
</svg>
