<?xml version="1.0" encoding="UTF-8"?>
<!DOCTYPE svg PUBLIC "-//W3C//DTD SVG 1.1//EN" "http://www.w3.org/Graphics/SVG/1.1/DTD/svg11.dtd">
<!-- Creator: CorelDRAW X8 -->
<svg xmlns="http://www.w3.org/2000/svg" xml:space="preserve" width="40mm" height="60mm" version="1.1" style="shape-rendering:geometricPrecision; text-rendering:geometricPrecision; image-rendering:optimizeQuality; fill-rule:evenodd; clip-rule:evenodd"
viewBox="0 0 4000 6000"
 xmlns:xlink="http://www.w3.org/1999/xlink">
 <defs>
  <style type="text/css">
   <![CDATA[
    .str0 {stroke:#332C2B;stroke-width:20}
    .fil0 {fill:none}
   ]]>
  </style>
   <clipPath id="id0">
    <rect x="-56581" y="19650" width="29100" height="20408"/>
   </clipPath>
 </defs>
 <g id="图层_x0020_1">
  <metadata id="CorelCorpID_0Corel-Layer"/>
  <g style="clip-path:url(#id0)">
   <image transform="matrix(0.000405719 -1 1 0.000405719 -56580.7 40046.2)" x="0" y="0" width="20396" height="29091" xlink:href="Oukitel K9—11i （前膜带壳）_Images\Oukitel K9—11i （前膜带壳）_ImgID1.png"/>
  </g>
  <path class="fil0 str0" d="M898 5269c581,0 1404,0 1984,0 121,0 220,-100 220,-222l0 -4175c0,-122 -99,-222 -220,-222l-574 0c-10,28 -21,35 -50,35l-155 0c0,0 -37,-1 -37,44l0 46c0,30 -25,55 -55,55l0 0c-29,0 -54,-25 -54,-55l0 -46c0,-45 -37,-44 -37,-44l-156 0c-22,0 -33,-10 -50,-35l-573 0c-121,0 -219,100 -219,222l0 4175c0,122 98,222 219,222 0,0 2,0 3,0 89,0 101,74 100,81"/>
  <path class="fil0 str0" d="M-1048 7744c0,-2152 0,-5204 0,-7356 0,-447 -370,-813 -823,-813l-15480 0c-452,0 -823,366 -823,813l0 2129c104,37 131,79 131,186l0 576c0,0 -6,137 163,137l170 0c111,0 203,91 203,201l0 0c0,111 -92,201 -203,201l-170 0c-169,0 -163,137 -163,137l0 578c0,82 -39,123 -131,185l0 2126c0,447 371,813 823,813l15480 0c453,0 823,-366 823,-813 0,0 0,-9 0,-10 -1,-332 275,-377 299,-370"/>
 </g>
</svg>
