<?xml version="1.0" encoding="UTF-8"?>
<!DOCTYPE svg PUBLIC "-//W3C//DTD SVG 1.1//EN" "http://www.w3.org/Graphics/SVG/1.1/DTD/svg11.dtd">
<!-- Creator: CorelDRAW X8 -->
<svg xmlns="http://www.w3.org/2000/svg" xml:space="preserve" width="40mm" height="60mm" version="1.1" style="shape-rendering:geometricPrecision; text-rendering:geometricPrecision; image-rendering:optimizeQuality; fill-rule:evenodd; clip-rule:evenodd"
viewBox="0 0 4000 6000"
 xmlns:xlink="http://www.w3.org/1999/xlink">
 <defs>
  <style type="text/css">
   <![CDATA[
    .str0 {stroke:#222222;stroke-width:20}
    .fil0 {fill:none}
   ]]>
  </style>
 </defs>
 <g id="图层_x0020_1">
  <metadata id="CorelCorpID_0Corel-Layer"/>
  <g id="_2817349788336">
   <path class="fil0 str0" d="M150 1182l621 0c81,0 149,52 170,129 8,30 35,52 67,52l0 0c32,0 59,-21 68,-50 22,-76 89,-126 168,-126l1327 0c79,0 145,50 168,126 9,29 35,50 67,50l0 0c32,0 60,-22 68,-52 21,-77 89,-129 169,-129l689 0 0 19 0 100 94 29 24 8 0 187 -24 7 -94 29 0 94 0 94 94 29 24 8 0 188 -24 7 -94 29 0 94 0 94 94 29 24 7 0 188 -24 7 -94 29 0 94 0 94 94 29 24 7 0 188 -24 7 -94 29 0 94 0 94 94 29 24 8 0 187 -24 7 -94 29 0 94 0 94 94 29 24 7 0 188 -24 7 -94 29 0 94 0 94 94 29 24 8 0 187 -24 8 -94 29 0 94 0 94 94 29 24 7 0 187 -24 8 -94 29 0 100 0 19 -689 0c-80,0 -148,-52 -169,-129 -8,-30 -35,-52 -68,-52l0 0c-31,0 -58,21 -67,50 -23,76 -89,126 -168,126l-1327 0c-79,0 -146,-50 -168,-126 -9,-29 -36,-50 -67,-50l0 0c-33,0 -60,22 -68,52 -21,77 -89,129 -169,129l-622 0 0 -119 24 -7 94 -29 0 -94 0 -94 -94 -29 -24 -8 0 -187 24 -8 94 -29 0 -94 0 -93 -94 -30 -24 -7 0 -188 24 -7 94 -29 0 -94 0 -94 -94 -29 -24 -7 0 -188 24 -7 94 -29 0 -94 0 -94 -94 -29 -24 -7 0 -188 24 -7 94 -29 0 -94 0 -94 -94 -29 -24 -7 0 -188 24 -7 94 -29 0 -94 0 -94 -94 -29 -24 -7 0 -188 24 -7 94 -29 0 -94 0 -94 -94 -29 -24 -8 0 -188 24 -7 94 -29 0 -94 0 -94 -94 -29 -24 -7 0 -119z"/>
   <path class="fil0 str0" d="M3131 1287l316 0c45,0 81,36 81,81l0 842c0,45 -36,82 -81,82l-316 0c-45,0 -82,-37 -82,-82l0 -842c0,-45 37,-81 82,-81z"/>
   <path class="fil0 str0" d="M3608 1720l0 0c19,0 35,15 35,35l0 234c0,19 -16,35 -35,35l0 0c-20,0 -35,-16 -35,-35l0 -234c0,-20 15,-35 35,-35z"/>
   <path class="fil0 str0" d="M2816 2081l0 0c16,0 29,13 29,29l0 772c0,16 -13,29 -29,29l0 0c-16,0 -30,-13 -30,-29l0 -772c0,-16 14,-29 30,-29z"/>
   <circle class="fil0 str0" cx="1296" cy="1317" r="47"/>
  </g>
  <path class="fil0 str0" d="M-28469 -7581l2658 0c343,0 633,222 723,553 35,127 152,222 290,222l0 0c135,0 251,-91 287,-215 97,-323 382,-535 719,-535l5674 0c337,0 622,212 719,535 36,124 152,215 287,215l0 0c138,0 255,-95 290,-222 90,-331 380,-553 723,-553l2947 0 0 84 0 427 402 124 101 31 0 802 -101 32 -402 124 0 402 0 401 402 124 101 32 0 803 -101 31 -402 124 0 402 0 402 402 124 101 31 0 802 -101 31 -402 124 0 402 0 402 402 124 101 31 0 802 -101 32 -402 124 0 401 0 402 402 124 101 32 0 800 -101 32 -402 124 0 402 0 401 402 125 101 31 0 802 -101 31 -402 124 0 402 0 402 402 124 101 31 0 802 -101 32 -402 124 0 402 0 401 402 125 101 31 0 802 -101 31 -402 124 0 427 0 85 -2946 0c-344,0 -634,-223 -724,-554 -35,-127 -151,-221 -290,-221l0 0c-135,0 -250,90 -287,214 -97,323 -382,536 -719,536l-5674 0c-336,0 -622,-213 -718,-536 -37,-124 -152,-214 -288,-214l0 0c-138,0 -255,94 -289,221 -90,331 -381,554 -724,554l-2658 0 0 -511 102 -32 402 -124 0 -401 0 -402 -402 -124 -102 -32 0 -801 102 -32 402 -124 0 -402 0 -401 -402 -125 -102 -31 0 -802 102 -32 402 -124 0 -402 0 -401 -402 -124 -102 -32 0 -801 102 -32 402 -124 0 -402 0 -401 -402 -125 -102 -31 0 -801 102 -31 402 -124 0 -402 0 -402 -402 -124 -102 -31 0 -802 102 -31 402 -125 0 -401 0 -402 -402 -124 -102 -32 0 -801 102 -31 402 -124 0 -402 0 -402 -402 -124 -102 -32 0 -803 102 -32 402 -124 0 -401 0 -402 -402 -124 -102 -32 0 -509z"/>
  <path class="fil0 str0" d="M-15724 -7133l1350 0c193,0 350,157 350,350l0 3600c0,193 -157,350 -350,350l-1350 0c-192,0 -350,-157 -350,-350l0 -3600c0,-193 158,-350 350,-350z"/>
  <path class="fil0 str0" d="M-13684 -5280l0 0c82,0 150,67 150,150l0 1000c0,82 -68,150 -150,150l0 0c-83,0 -150,-68 -150,-150l0 -1000c0,-83 67,-150 150,-150z"/>
  <path class="fil0 str0" d="M-17071 -3736l0 0c69,0 125,56 125,125l0 3300c0,69 -56,125 -125,125l0 0c-69,0 -125,-56 -125,-125l0 -3300c0,-69 56,-125 125,-125z"/>
  <circle class="fil0 str0" cx="-23568" cy="-7004" r="200"/>
 </g>
</svg>
