<?xml version="1.0" encoding="UTF-8"?>
<!DOCTYPE svg PUBLIC "-//W3C//DTD SVG 1.1//EN" "http://www.w3.org/Graphics/SVG/1.1/DTD/svg11.dtd">
<!-- Creator: CorelDRAW X8 -->
<svg xmlns="http://www.w3.org/2000/svg" xml:space="preserve" width="40mm" height="60mm" version="1.1" style="shape-rendering:geometricPrecision; text-rendering:geometricPrecision; image-rendering:optimizeQuality; fill-rule:evenodd; clip-rule:evenodd"
viewBox="0 0 4000 6000"
 xmlns:xlink="http://www.w3.org/1999/xlink">
 <defs>
  <style type="text/css">
   <![CDATA[
    .str0 {stroke:black;stroke-width:20}
    .fil0 {fill:none}
   ]]>
  </style>
 </defs>
 <g id="图层_x0020_1">
  <metadata id="CorelCorpID_0Corel-Layer"/>
  <path class="fil0 str0" d="M939 5350l2086 0c20,0 36,-16 36,-37l0 -4626c0,-21 -16,-37 -36,-37l-2020 0c-20,0 -36,16 -36,37l0 4626c0,21 16,37 36,37l87 0m190 -4119c-1,-6 -6,-11 -16,-12 -37,0 -66,30 -66,66 0,37 29,67 66,67 37,0 66,-30 66,-67 0,-36 -29,-66 -66,-66m34 -428c-1,-14 -13,-26 -37,-28 -88,0 -158,71 -158,158 0,87 70,158 158,158 87,0 157,-71 157,-158 0,-87 -70,-158 -157,-158"/>
 </g>
</svg>
