<?xml version="1.0" encoding="UTF-8"?>
<!DOCTYPE svg PUBLIC "-//W3C//DTD SVG 1.1//EN" "http://www.w3.org/Graphics/SVG/1.1/DTD/svg11.dtd">
<!-- Creator: CorelDRAW X8 -->
<svg xmlns="http://www.w3.org/2000/svg" xml:space="preserve" width="40mm" height="60mm" version="1.1" style="shape-rendering:geometricPrecision; text-rendering:geometricPrecision; image-rendering:optimizeQuality; fill-rule:evenodd; clip-rule:evenodd"
viewBox="0 0 4000 6000"
 xmlns:xlink="http://www.w3.org/1999/xlink">
 <defs>
  <style type="text/css">
   <![CDATA[
    .str0 {stroke:#332C2B;stroke-width:19.4}
    .fil0 {fill:none;fill-rule:nonzero}
   ]]>
  </style>
 </defs>
 <g id="图层_x0020_1">
  <metadata id="CorelCorpID_0Corel-Layer"/>
  <g id="_2224555180768">
   <path class="fil0 str0" d="M3096 650l0 33m-905 1000l0 10m0 0c-3,-1 -7,-4 -9,-6m0 0l0 -7 3 -5 5 -2m0 0c-21,-112 -99,-182 -205,-182 -113,0 -206,92 -206,205 0,114 93,206 206,206 115,0 206,-91 206,-207 0,-53 -12,-76 -38,-76 -17,0 -50,4 -200,28m262 -492l-9 1m0 0c0,-3 0,-4 0,-7 3,-2 4,-3 9,-4 0,-1 0,-3 0,-4 0,-134 -100,-236 -230,-236 -126,0 -230,103 -230,230 0,127 103,231 230,231 126,0 231,-104 231,-230 0,-39 -9,-50 -37,-50 -21,0 -72,5 -250,27m-233 43l-9 1m0 0c0,-3 0,-4 1,-7 3,-3 4,-3 9,-4 0,-42 -32,-75 -72,-75 -42,0 -76,33 -76,74 0,41 34,74 74,74 43,0 75,-33 75,-77 0,-10 -1,-16 -3,-21 -2,-6 -6,-9 -13,-12 -12,-5 -31,-6 -84,-6m1483 4145l-1926 0m0 0c-119,1 -263,-130 -263,-245m0 0c0,-2321 2,-2664 2,-4121 0,-108 154,-210 236,-223 10,-2 11,-2 58,-2m0 0l191 0 -1 1m0 0c0,2 0,3 -1,4m0 0l-2 2m0 0c14,17 34,27 57,27 27,0 41,-8 75,-41m0 0l3 7 1319 3m0 0c113,0 202,58 247,161 17,39 19,52 19,116m0 0c4,1002 -3,3198 -3,4099 -22,121 -126,206 -259,213 -84,4 -136,30 -204,101"/>
  </g>
 </g>
</svg>
