<?xml version="1.0" encoding="UTF-8"?>
<!DOCTYPE svg PUBLIC "-//W3C//DTD SVG 1.1//EN" "http://www.w3.org/Graphics/SVG/1.1/DTD/svg11.dtd">
<!-- Creator: CorelDRAW -->
<svg xmlns="http://www.w3.org/2000/svg" xml:space="preserve" width="40mm" height="60mm" style="shape-rendering:geometricPrecision; text-rendering:geometricPrecision; image-rendering:optimizeQuality; fill-rule:evenodd; clip-rule:evenodd"
viewBox="0 0 40 60"
 xmlns:xlink="http://www.w3.org/1999/xlink">
 <defs>
  <style type="text/css">
   <![CDATA[
    .str0 {stroke:#1F1A17;stroke-width:0.194}
    .fil0 {fill:none;fill-rule:nonzero}
   ]]>
  </style>
 </defs>
 <g id="图层_x0020_1">
  <metadata id="CorelCorpID_0Corel-Layer"/>
  <g id="_275929672">
   <path id="_215885280" class="fil0 str0" d="M29.942 53.4989c-6.9973,0 -12.7654,0 -19.7628,0.0011 -0.4343,-0.0159 -0.6947,-0.1216 -0.9573,-0.3866 -0.2138,-0.2149 -0.3525,-0.4775 -0.3684,-0.6913"/>
   <line id="_215884944" class="fil0 str0" x1="8.8535" y1="52.4221" x2="8.7875" y2= "30.0043" />
   <path id="_274022000" class="fil0 str0" d="M8.7875 30.0043c-0.0216,-7.3474 -0.0193,-14.6961 0.0069,-22.0447 0.0386,-0.6459 0.3229,-1.112 0.8175,-1.3394"/>
   <line id="_215885352" class="fil0 str0" x1="9.6119" y1="6.6202" x2="9.671" y2= "6.586" />
   <path id="_275928952" class="fil0 str0" d="M9.671 6.586c0.0989,-0.0693 0.0989,-0.0693 3.2917,-0.0682"/>
   <line id="_215885184" class="fil0 str0" x1="12.9627" y1="6.5178" x2="18.7059" y2= "6.5212" />
   <path id="_275916232" class="fil0 str0" d="M18.7059 6.5212c0.282,0 0.3354,0.0046 0.4082,0.0342 0.1751,0.0716 0.191,0.1273 0.1921,0.6344"/>
   <line id="_275905456" class="fil0 str0" x1="19.3062" y1="7.1898" x2="19.3062" y2= "7.5491" />
   <path id="_215884464" class="fil0 str0" d="M19.3062 7.5491c0,0.6277 0.2422,0.9426 0.7243,0.9437 0.4298,0.0012 0.7164,-0.3058 0.7243,-0.7743"/>
   <line id="_215885568" class="fil0 str0" x1="20.7548" y1="7.7185" x2="20.7594" y2= "7.4002" />
   <path id="_275925856" class="fil0 str0" d="M20.7594 7.4002c0.0102,-0.6311 0.0102,-0.6311 0.033,-0.6834"/>
   <polyline id="_215884728" class="fil0 str0" points="20.7924,6.7168 20.8037,6.6884 20.8094,6.6736 "/>
   <path id="_275920720" class="fil0 str0" d="M20.8094 6.6736c0.0626,-0.1796 0.0626,-0.1796 4.0012,-0.1706"/>
   <line id="_215885448" class="fil0 str0" x1="24.8106" y1="6.503" x2="25.1392" y2= "6.5042" />
   <path id="_215885256" class="fil0 str0" d="M25.1392 6.5042c2.8358,0.0068 2.1274,0.0034 4.9632,0.0216 0.465,0.0375 0.9608,0.4696 1.1029,0.9619 0.0193,0.066 0.0228,0.1387 0.0216,0.473"/>
   <line id="_215883768" class="fil0 str0" x1="31.2269" y1="7.9607" x2="31.2019" y2= "52.4801" />
   <path id="_215883288" class="fil0 str0" d="M31.2019 52.4801c-0.0011,0.3036 -0.3923,0.7641 -0.7755,0.9119 -0.1296,0.05 -0.2115,0.0682 -0.4844,0.1069"/>
  </g>
 </g>
</svg>
