<?xml version="1.0" encoding="UTF-8"?>
<!DOCTYPE svg PUBLIC "-//W3C//DTD SVG 1.1//EN" "http://www.w3.org/Graphics/SVG/1.1/DTD/svg11.dtd">
<!-- Creator: CorelDRAW X8 -->
<svg xmlns="http://www.w3.org/2000/svg" xml:space="preserve" width="40mm" height="60mm" version="1.1" style="shape-rendering:geometricPrecision; text-rendering:geometricPrecision; image-rendering:optimizeQuality; fill-rule:evenodd; clip-rule:evenodd"
viewBox="0 0 4000 6000"
 xmlns:xlink="http://www.w3.org/1999/xlink">
 <defs>
  <style type="text/css">
   <![CDATA[
    .str0 {stroke:black;stroke-width:7.62}
    .fil0 {fill:none}
   ]]>
  </style>
 </defs>
 <g id="图层_x0020_1">
  <metadata id="CorelCorpID_0Corel-Layer"/>
  <path class="fil0 str0" d="M733 5145l502 0c7,0 9,0 9,-5l0 -11c0,-5 -1,-7 -10,-9 -147,-19 -226,-131 -226,-264l0 -39 -205 0c-8,0 -15,-8 -15,-16l0 -3635c0,-9 7,-16 15,-16l205 0 0 -8c0,-133 98,-244 226,-264 10,-2 10,-3 10,-8l0 -7c0,-6 -2,-8 -8,-8l-471 0c-9,0 -16,-7 -16,-16l0 -173c0,-9 7,-16 16,-16l2470 0c9,0 16,7 16,16l0 173c0,9 -7,16 -16,16l-460 0c-4,0 -4,0 -4,4l0 14c0,3 0,3 4,4 130,18 232,130 232,265l0 8 204 0c9,0 16,7 16,16l0 3635c0,8 -7,16 -16,16l-204 0 0 39c0,135 -102,248 -233,265 -4,1 -3,2 -3,6l0 12c0,6 0,6 6,6l490 0c8,0 16,8 16,16l0 173c0,9 -8,16 -16,16l-2534 0c-8,0 -16,-7 -16,-16l0 -173c0,-8 8,-16 16,-16zm593 -4142c-1,-15 -14,-29 -41,-31 -95,0 -173,78 -173,174 0,95 78,173 173,173 96,0 173,-78 173,-173 0,-96 -77,-174 -173,-174m108 4269c-6,-20 -16,-36 -65,-36l-41 0c-21,0 -39,18 -39,40l0 0c0,21 18,39 39,39l361 0c22,0 39,-18 39,-39l0 0c0,-22 -18,-40 -39,-40l-320 0m651 10c-4,-15 -9,-27 -36,-27l-21 0c-31,0 -56,25 -56,55l0 0c0,31 25,56 56,56l170 0c30,0 55,-25 55,-56l0 0c0,-30 -25,-55 -55,-55l-149 0m-412 -4071c0,-2 -3,-5 -8,-5 -17,0 -31,14 -31,31 0,18 14,32 31,32 18,0 32,-14 32,-32 0,-17 -14,-31 -32,-31m165 -30c0,-6 -5,-12 -16,-13 -39,0 -71,32 -71,71 0,39 32,71 71,71 39,0 70,-32 70,-71 0,-39 -31,-71 -70,-71m-802 871c-18,5 -32,15 -32,59l0 38c0,20 16,36 36,36l0 0c20,0 36,-16 36,-36l0 -267c0,-20 -16,-36 -36,-36l0 0c-20,0 -36,16 -36,36l0 229m34 846c-18,4 -32,14 -32,59l0 37c0,20 16,37 36,37l0 0c20,0 36,-17 36,-37l0 -437c0,-20 -16,-36 -36,-36l0 0c-20,0 -36,16 -36,36l0 400m2305 -968c-18,4 -32,14 -32,59l0 37c0,20 16,37 36,37l0 0c20,0 36,-17 36,-37l0 -261c0,-20 -16,-36 -36,-36l0 0c-20,0 -36,16 -36,36l0 224m29 336c-18,4 -32,14 -32,59l0 37c0,20 16,37 36,37l0 0c20,0 36,-17 36,-37l0 -264c0,-20 -16,-36 -36,-36l0 0c-20,0 -36,16 -36,36l0 227m-666 2848c-5,-18 -15,-32 -59,-32l-38 0c-20,0 -36,16 -36,36l0 0c0,20 16,36 36,36l365 0c20,0 37,-16 37,-36l0 0c0,-20 -17,-36 -37,-36l-327 0m728 -3846l63 0c9,0 16,8 16,16l0 158c0,8 -7,15 -16,15l-63 0c-8,0 -16,-7 -16,-15l0 -158c0,-8 8,-16 16,-16z"/>
 </g>
</svg>
