<?xml version="1.0" encoding="UTF-8"?>
<!DOCTYPE svg PUBLIC "-//W3C//DTD SVG 1.1//EN" "http://www.w3.org/Graphics/SVG/1.1/DTD/svg11.dtd">
<!-- Creator: CorelDRAW X8 -->
<svg xmlns="http://www.w3.org/2000/svg" xml:space="preserve" width="40mm" height="60mm" version="1.1" style="shape-rendering:geometricPrecision; text-rendering:geometricPrecision; image-rendering:optimizeQuality; fill-rule:evenodd; clip-rule:evenodd"
viewBox="0 0 4000 6000"
 xmlns:xlink="http://www.w3.org/1999/xlink">
 <defs>
  <style type="text/css">
   <![CDATA[
    .str0 {stroke:#332C2B;stroke-width:20}
    .fil0 {fill:none}
   ]]>
  </style>
 </defs>
 <g id="图层_x0020_1">
  <metadata id="CorelCorpID_0Corel-Layer"/>
  <path class="fil0 str0" d="M950 5240l1877 0c123,0 223,-101 223,-224l0 -4143c0,-122 -100,-223 -223,-223l-447 0 -43 45 -244 0c0,0 -29,1 -29,27l0 46c0,34 -28,61 -62,61l0 0c-33,0 -61,-27 -61,-61l0 -52c0,-21 -30,-21 -30,-21l-243 0 -41 -45 -439 0c-123,0 -223,101 -223,223l0 4143c0,123 100,224 223,224 123,0 172,64 172,110"/>
  <path class="fil0 str0" d="M-1493 6465l0 -6141c0,-401 -334,-729 -741,-729l-13721 0c-407,0 -741,328 -741,729l0 1457 148 140 0 793c0,0 5,97 92,97l151 0c112,0 203,90 203,200l0 0c0,110 -91,200 -203,200l-171 0c-71,0 -72,97 -72,97l0 793 -148 134 0 1430c0,401 334,728 741,728l13721 0c407,0 741,-327 741,-728 0,-401 236,-580 334,-580"/>
 </g>
</svg>
