<?xml version="1.0" encoding="UTF-8"?>
<!DOCTYPE svg PUBLIC "-//W3C//DTD SVG 1.1//EN" "http://www.w3.org/Graphics/SVG/1.1/DTD/svg11.dtd">
<!-- Creator: CorelDRAW 2020 (64-Bit) -->
<svg xmlns="http://www.w3.org/2000/svg" xml:space="preserve" width="40mm" height="60mm" version="1.1" style="shape-rendering:geometricPrecision; text-rendering:geometricPrecision; image-rendering:optimizeQuality; fill-rule:evenodd; clip-rule:evenodd"
viewBox="0 0 4000 6000"
 xmlns:xlink="http://www.w3.org/1999/xlink"
 xmlns:xodm="http://www.corel.com/coreldraw/odm/2003">
 <defs>
  <style type="text/css">
   <![CDATA[
    .str0 {stroke:black;stroke-width:7.62;stroke-linejoin:bevel;stroke-miterlimit:22.9256}
    .fil0 {fill:none}
   ]]>
  </style>
 </defs>
 <g id="图层_x0020_1">
  <metadata id="CorelCorpID_0Corel-Layer"/>
  <path class="fil0 str0" d="M1167.41 4917.13c35.84,10.05 34.01,3.66 110.78,61.65 47.29,36.96 208.92,117.32 264.17,142.87 171.9,79.5 423.48,161.16 610.84,204.42 92.33,21.32 192.68,39.32 287.19,23.68 80.47,-13.31 116.44,-51.71 150.78,-123.21 80.09,-166.74 135.14,-567.43 159.25,-763.06 62.45,-506.63 76.48,-942.89 75.46,-1457.83 1.02,-514.94 -13.01,-951.2 -75.46,-1457.83 -24.11,-195.63 -79.16,-596.32 -159.25,-763.06 -34.34,-71.49 -70.31,-109.9 -150.78,-123.21 -77.77,-12.86 -160.08,-2.84 -236.56,12.65 -197.37,40 -482.72,132.77 -661.47,215.45 -55.27,25.57 -216.85,105.9 -264.17,142.87 -54.43,42.54 -94.14,112.22 -108.06,179 -13.81,66.27 -9.4,179.05 -4.48,247.57 12.2,169.72 44.13,291.94 70.12,455.43 32.38,203.72 39.81,410.01 47.56,614.5 2.96,77.99 5.96,155.71 7.46,234.12 1.5,78.41 1.49,157.51 1.24,242.51 0.25,85 0.26,164.1 -1.24,242.51 -1.5,78.41 -4.5,156.13 -7.46,234.12 -7.75,204.49 -15.18,410.78 -47.56,614.5 -25.99,163.49 -57.92,285.72 -70.12,455.43 -4.92,68.52 -9.33,181.3 4.48,247.57 13.92,66.79 53.63,136.46 108.06,179 75.61,59.68 112.31,100.43 110.12,122.25"/>
 </g>
</svg>
