<?xml version="1.0" encoding="UTF-8"?>
<!DOCTYPE svg PUBLIC "-//W3C//DTD SVG 1.1//EN" "http://www.w3.org/Graphics/SVG/1.1/DTD/svg11.dtd">
<!-- Creator: CorelDRAW X8 -->
<svg xmlns="http://www.w3.org/2000/svg" xml:space="preserve" width="40mm" height="60mm" version="1.1" style="shape-rendering:geometricPrecision; text-rendering:geometricPrecision; image-rendering:optimizeQuality; fill-rule:evenodd; clip-rule:evenodd"
viewBox="0 0 4000 6000"
 xmlns:xlink="http://www.w3.org/1999/xlink">
 <defs>
  <style type="text/css">
   <![CDATA[
    .str1 {stroke:#222222;stroke-width:20}
    .str0 {stroke:black;stroke-width:7.62}
    .fil0 {fill:none}
   ]]>
  </style>
 </defs>
 <g id="图层_x0020_1">
  <metadata id="CorelCorpID_0Corel-Layer"/>
  <g id="_2271757081280">
   <path class="fil0 str0" d="M2748 5119c147,0 267,-120 267,-267l0 -3794c0,-147 -120,-267 -267,-267l-425 0c-3,0 -4,10 -8,10l-617 0c-4,0 -4,-10 -8,-10l-438 0c-147,0 -267,120 -267,267l0 3794c0,147 120,267 267,267l1496 0z"/>
   <path class="fil0 str0" d="M1286 906c-1,-5 -5,-9 -13,-10 -30,0 -54,24 -54,54 0,30 24,54 54,54 30,0 54,-24 54,-54 0,-30 -24,-54 -54,-54"/>
   <path class="fil0 str1" d="M3024 5296c0,-10 11,-68 44,-68 34,0 61,28 61,61 0,34 -27,61 -61,61 -33,0 -60,-27 -60,-61 0,-33 27,-61 60,-61"/>
   <path class="fil0 str1" d="M886 5296c0,-10 11,-68 44,-68 34,0 61,28 61,61 0,34 -27,61 -61,61 -33,0 -60,-27 -60,-61 0,-33 27,-61 60,-61"/>
   <path class="fil0 str1" d="M3112 718c0,-11 11,-68 44,-68 34,0 61,27 61,61 0,33 -27,61 -61,61 -33,0 -60,-28 -60,-61 0,-34 27,-61 60,-61"/>
   <path class="fil0 str1" d="M799 718c0,-11 11,-68 45,-68 33,0 60,27 60,61 0,33 -27,61 -60,61 -34,0 -61,-28 -61,-61 0,-34 27,-61 61,-61"/>
  </g>
  <path class="fil0 str0" d="M-14529 218c0,-546 -447,-993 -994,-993l-14113 0c-546,0 -993,447 -993,993l0 1580c0,13 36,14 36,30l0 2296c0,14 -36,15 -36,30l0 1628c0,546 447,993 993,993l14113 0c547,0 994,-447 994,-993l0 -5564z"/>
  <path class="fil0 str0" d="M-30202 5657c-17,2 -33,17 -36,48 0,110 90,200 200,200 111,0 200,-90 200,-200 0,-111 -89,-200 -200,-200 -110,0 -200,89 -200,200"/>
  <path class="fil0 str1" d="M-13870 -809c-40,0 -253,-41 -253,-166 0,-124 101,-226 226,-226 125,0 226,102 226,226 0,125 -101,226 -226,226 -125,0 -226,-101 -226,-226"/>
  <path class="fil0 str1" d="M-13870 7144c-40,0 -253,-40 -253,-165 0,-125 101,-226 226,-226 125,0 226,101 226,226 0,125 -101,226 -226,226 -125,0 -226,-101 -226,-226"/>
  <path class="fil0 str1" d="M-30901 -1135c-40,0 -253,-41 -253,-166 0,-125 101,-226 226,-226 125,0 226,101 226,226 0,125 -101,226 -226,226 -125,0 -226,-101 -226,-226"/>
  <path class="fil0 str1" d="M-30901 7467c-40,0 -253,-41 -253,-166 0,-125 101,-226 226,-226 125,0 226,101 226,226 0,125 -101,226 -226,226 -125,0 -226,-101 -226,-226"/>
 </g>
</svg>
