<?xml version="1.0" encoding="UTF-8"?>
<!DOCTYPE svg PUBLIC "-//W3C//DTD SVG 1.1//EN" "http://www.w3.org/Graphics/SVG/1.1/DTD/svg11.dtd">
<!-- Creator: CorelDRAW X8 -->
<svg xmlns="http://www.w3.org/2000/svg" xml:space="preserve" width="40mm" height="60mm" version="1.1" style="shape-rendering:geometricPrecision; text-rendering:geometricPrecision; image-rendering:optimizeQuality; fill-rule:evenodd; clip-rule:evenodd"
viewBox="0 0 4000 6000"
 xmlns:xlink="http://www.w3.org/1999/xlink">
 <defs>
  <style type="text/css">
   <![CDATA[
    .str0 {stroke:black;stroke-width:7.62}
    .fil0 {fill:none}
   ]]>
  </style>
 </defs>
 <g id="图层_x0020_1">
  <metadata id="CorelCorpID_0Corel-Layer"/>
  <path class="fil0 str0" d="M1478 985c-2,-19 -18,-36 -52,-39 -121,0 -218,98 -218,219 0,121 97,219 218,219 121,0 219,-98 219,-219 0,-121 -98,-219 -219,-219m-186 -52l373 0c47,0 85,39 85,86l0 357c0,46 -38,85 -85,85l-373 0c-47,0 -86,-39 -86,-85l0 -357c0,-47 39,-86 86,-86zm79 634c-1,-11 -11,-21 -31,-23 -73,0 -131,59 -131,131 0,73 58,131 131,131 72,0 131,-58 131,-131 0,-72 -59,-131 -131,-131m303 23c-1,-11 -11,-21 -31,-23 -73,0 -132,59 -132,131 0,73 59,131 132,131 72,0 131,-58 131,-131 0,-72 -59,-131 -131,-131m20 305c-1,-7 -6,-12 -17,-13 -41,0 -73,32 -73,73 0,40 32,73 73,73 40,0 72,-33 72,-73 0,-41 -32,-73 -72,-73m145 -413l0 510c0,53 -43,96 -96,96l-369 0c-53,0 -96,-43 -96,-96l0 -510c0,39 32,71 71,71l418 0c40,0 72,-32 72,-71zm-479 -544l400 0c70,0 127,57 127,127l0 942c0,69 -57,126 -127,126l-400 0c-70,0 -127,-57 -127,-126l0 -942c0,-70 57,-127 127,-127zm-203 4510l1809 0c122,0 221,-100 221,-222l0 -4256c0,-122 -99,-222 -221,-222l-1670 0c-122,0 -221,100 -221,222l0 4256c0,122 99,222 221,222l82 0"/>
 </g>
</svg>
