<?xml version="1.0" encoding="UTF-8"?>
<!DOCTYPE svg PUBLIC "-//W3C//DTD SVG 1.1//EN" "http://www.w3.org/Graphics/SVG/1.1/DTD/svg11.dtd">
<!-- Creator: CorelDRAW X8 -->
<svg xmlns="http://www.w3.org/2000/svg" xml:space="preserve" width="40mm" height="60mm" version="1.1" style="shape-rendering:geometricPrecision; text-rendering:geometricPrecision; image-rendering:optimizeQuality; fill-rule:evenodd; clip-rule:evenodd"
viewBox="0 0 4000 6000"
 xmlns:xlink="http://www.w3.org/1999/xlink">
 <defs>
  <style type="text/css">
   <![CDATA[
    .str0 {stroke:black;stroke-width:7.62}
    .fil0 {fill:none}
   ]]>
  </style>
 </defs>
 <g id="图层_x0020_1">
  <metadata id="CorelCorpID_0Corel-Layer"/>
  <path class="fil0 str0" d="M876 5350l2078 0c94,0 170,-77 170,-170l0 -4360c0,-93 -76,-170 -170,-170 -209,0 -414,0 -617,0 -15,0 -31,27 -46,27 -193,0 -384,0 -576,0 -17,0 -34,-27 -51,-27 -203,0 -408,0 -617,0 -94,0 -171,77 -171,170l0 4360c0,93 77,170 171,170l269 0m1439 -4573c-1,-5 -5,-9 -14,-10 -33,0 -60,27 -60,60 0,32 27,59 60,59 33,0 59,-27 59,-59 0,-33 -26,-60 -59,-60m-1450 6c-4,-14 -9,-25 -33,-25l-20 0c-28,0 -51,23 -51,51l0 0c0,29 23,52 51,52l126 0c28,0 51,-23 51,-52l0 0c0,-28 -23,-51 -51,-51l-106 0"/>
 </g>
</svg>
