<?xml version="1.0" encoding="UTF-8"?>
<!DOCTYPE svg PUBLIC "-//W3C//DTD SVG 1.1//EN" "http://www.w3.org/Graphics/SVG/1.1/DTD/svg11.dtd">
<!-- Creator: CorelDRAW 2020 (64-Bit) -->
<svg xmlns="http://www.w3.org/2000/svg" xml:space="preserve" width="40mm" height="60mm" version="1.1" style="shape-rendering:geometricPrecision; text-rendering:geometricPrecision; image-rendering:optimizeQuality; fill-rule:evenodd; clip-rule:evenodd"
viewBox="0 0 4000 6000"
 xmlns:xlink="http://www.w3.org/1999/xlink"
 xmlns:xodm="http://www.corel.com/coreldraw/odm/2003">
 <defs>
  <style type="text/css">
   <![CDATA[
    .str0 {stroke:#332C2B;stroke-width:7.62;stroke-miterlimit:22.9256}
    .fil0 {fill:none}
   ]]>
  </style>
 </defs>
 <g id="图层_x0020_1">
  <metadata id="CorelCorpID_0Corel-Layer"/>
  <path class="fil0 str0" d="M796.76 5258.51c-3.25,-3.47 -5.23,-29.89 -1.57,-32.9l38.17 -31.41c9.54,-7.85 14.58,-18.5 14.58,-30.87l0 -104.04c0,-9.38 -2.8,-17.44 -8.62,-24.79l-19.86 -25.14 0 -225.06c0,-9.38 2.8,-17.44 8.61,-24.79l8.46 -10.7c5.81,-7.35 8.61,-15.41 8.61,-24.79l0 -105.13c0,-11.74 -4.49,-21.84 -13.21,-29.7l-38.92 -35.09c-4.03,-3.62 -6.1,-8.29 -6.1,-13.7l0 -6.64c0,-4.01 1.11,-7.46 3.44,-10.73l37.91 -53.04c17.93,-25.09 44.52,-38.71 75.35,-38.61l842.57 2.78c29.46,0.09 54.81,13.11 72.05,37l42.49 58.9c3.15,4.36 4.65,9.02 4.65,14.4l0 6.72c0,6.17 -2,11.52 -6.06,16.17l-2.64 3.02c-6.09,6.99 -9.09,14.99 -9.09,24.26l0 607.24c0,9 2.83,16.77 8.6,23.68l0.59 0.7c5.76,6.91 8.6,14.68 8.6,23.68l0 8c0,5.3 -1.46,9.88 -4.51,14.21l-32.4 45.83c-17.24,24.39 -42.95,37.71 -72.83,37.71l-829.29 0c-25.61,0 -47.65,-9.56 -65.14,-28.27l-64.44 -68.9zm0 -1258.56c-3.25,-3.47 -5.23,-29.89 -1.57,-32.9l38.17 -31.41c9.54,-7.86 14.58,-18.51 14.58,-30.88l0 -104.04c0,-9.37 -2.8,-17.43 -8.62,-24.79l-19.86 -25.13 0 -225.06c0,-9.38 2.8,-17.44 8.61,-24.8l8.46 -10.69c5.81,-7.36 8.61,-15.42 8.61,-24.79l0 -105.14c0,-11.73 -4.49,-21.83 -13.21,-29.69l-38.92 -35.09c-4.03,-3.63 -6.1,-8.29 -6.1,-13.71l0 -6.63c0,-4.02 1.11,-7.47 3.44,-10.73l37.91 -53.04c17.93,-25.09 44.52,-38.72 75.35,-38.62l842.57 2.78c29.46,0.1 54.81,13.12 72.05,37.01l42.49 58.9c3.15,4.36 4.65,9.02 4.65,14.4l0 6.71c0,6.18 -2,11.52 -6.06,16.18l-2.64 3.02c-6.09,6.98 -9.09,14.99 -9.09,24.26l0 607.23c0,9 2.83,16.78 8.6,23.68l0.59 0.71c5.76,6.91 8.6,14.68 8.6,23.68l0 8c0,5.3 -1.46,9.88 -4.51,14.2l-32.4 45.84c-17.24,24.39 -42.95,37.71 -72.83,37.71l-829.29 0c-25.61,0 -47.65,-9.57 -65.14,-28.27l-64.44 -68.9zm0 -1258.57c-3.25,-3.47 -5.23,-29.88 -1.57,-32.9l38.17 -31.41c9.54,-7.85 14.58,-18.5 14.58,-30.87l0 -104.04c0,-9.38 -2.8,-17.44 -8.62,-24.79l-19.86 -25.14 0 -225.06c0,-9.38 2.8,-17.44 8.61,-24.79l8.46 -10.7c5.81,-7.35 8.61,-15.41 8.61,-24.79l0 -105.13c0,-11.74 -4.49,-21.84 -13.21,-29.7l-38.92 -35.09c-4.03,-3.62 -6.1,-8.29 -6.1,-13.7l0 -6.64c0,-4.01 1.11,-7.46 3.44,-10.73l37.91 -53.04c17.93,-25.09 44.52,-38.71 75.35,-38.61l842.57 2.78c29.46,0.09 54.81,13.11 72.05,37.01l42.49 58.89c3.15,4.37 4.65,9.02 4.65,14.4l0 6.72c0,6.17 -2,11.52 -6.06,16.17l-2.64 3.02c-6.09,6.99 -9.09,15 -9.09,24.26l0 607.24c0,9 2.83,16.77 8.6,23.68l0.59 0.7c5.76,6.91 8.6,14.68 8.6,23.69l0 8c0,5.29 -1.46,9.87 -4.51,14.2l-32.4 45.83c-17.24,24.39 -42.95,37.71 -72.83,37.71l-829.29 0c-25.61,0 -47.65,-9.56 -65.14,-28.27l-64.44 -68.9zm0 -1258.56c-3.25,-3.47 -5.23,-29.89 -1.57,-32.9l38.17 -31.41c9.54,-7.86 14.58,-18.51 14.58,-30.87l0 -104.05c0,-9.37 -2.8,-17.43 -8.62,-24.79l-19.86 -25.13 0 -225.06c0,-9.38 2.8,-17.44 8.61,-24.79l8.46 -10.7c5.81,-7.36 8.61,-15.42 8.61,-24.79l0 -105.14c0,-11.73 -4.49,-21.83 -13.21,-29.69l-38.92 -35.09c-4.03,-3.63 -6.1,-8.29 -6.1,-13.71l0 -6.63c0,-4.02 1.11,-7.46 3.44,-10.73l37.91 -53.04c17.93,-25.09 44.52,-38.72 75.35,-38.62l842.57 2.78c29.46,0.1 54.81,13.12 72.05,37.01l42.49 58.9c3.15,4.36 4.65,9.02 4.65,14.4l0 6.71c0,6.18 -2,11.52 -6.06,16.18l-2.64 3.02c-6.09,6.98 -9.09,14.99 -9.09,24.26l0 607.23c0,9 2.83,16.78 8.6,23.68l0.59 0.71c5.76,6.91 8.6,14.68 8.6,23.68l0 8c0,5.3 -1.46,9.88 -4.51,14.2l-32.4 45.84c-17.24,24.39 -42.95,37.71 -72.83,37.71l-829.29 0c-25.61,0 -47.65,-9.57 -65.14,-28.27l-64.44 -68.9zm1334.52 3775.69c-3.25,-3.47 -5.23,-29.89 -1.57,-32.9l38.17 -31.41c9.54,-7.85 14.58,-18.5 14.58,-30.87l0 -104.04c0,-9.38 -2.8,-17.44 -8.62,-24.79l-19.86 -25.14 0 -225.06c0,-9.38 2.8,-17.44 8.61,-24.79l8.46 -10.7c5.81,-7.35 8.61,-15.41 8.61,-24.79l0 -105.13c0,-11.74 -4.49,-21.84 -13.21,-29.7l-38.92 -35.09c-4.03,-3.62 -6.1,-8.29 -6.1,-13.7l0 -6.64c0,-4.01 1.11,-7.46 3.44,-10.73l37.9 -53.04c17.93,-25.09 44.53,-38.71 75.36,-38.61l842.57 2.78c29.46,0.09 54.81,13.11 72.04,37l42.5 58.9c3.14,4.36 4.65,9.02 4.65,14.4l0 6.72c0,6.17 -2,11.52 -6.06,16.17l-2.64 3.02c-6.09,6.99 -9.09,14.99 -9.09,24.26l0 607.24c0,9 2.83,16.77 8.6,23.68l0.59 0.7c5.76,6.91 8.6,14.68 8.6,23.68l0 8c0,5.3 -1.46,9.88 -4.51,14.21l-32.4 45.83c-17.24,24.39 -42.95,37.71 -72.83,37.71l-829.29 0c-25.61,0 -47.65,-9.56 -65.14,-28.27l-64.44 -68.9zm0 -1258.56c-3.25,-3.47 -5.23,-29.89 -1.57,-32.9l38.17 -31.41c9.54,-7.86 14.58,-18.51 14.58,-30.88l0 -104.04c0,-9.37 -2.8,-17.43 -8.62,-24.79l-19.86 -25.13 0 -225.06c0,-9.38 2.8,-17.44 8.61,-24.8l8.46 -10.69c5.81,-7.36 8.61,-15.42 8.61,-24.79l0 -105.14c0,-11.73 -4.49,-21.83 -13.21,-29.69l-38.92 -35.09c-4.03,-3.63 -6.1,-8.29 -6.1,-13.71l0 -6.63c0,-4.02 1.11,-7.47 3.44,-10.73l37.9 -53.04c17.93,-25.09 44.53,-38.72 75.36,-38.62l842.57 2.78c29.46,0.1 54.81,13.12 72.04,37.01l42.5 58.9c3.14,4.36 4.65,9.02 4.65,14.4l0 6.71c0,6.18 -2,11.52 -6.06,16.18l-2.64 3.02c-6.09,6.98 -9.09,14.99 -9.09,24.26l0 607.23c0,9 2.83,16.78 8.6,23.68l0.59 0.71c5.76,6.91 8.6,14.68 8.6,23.68l0 8c0,5.3 -1.46,9.88 -4.51,14.2l-32.4 45.84c-17.24,24.39 -42.95,37.71 -72.83,37.71l-829.29 0c-25.61,0 -47.65,-9.57 -65.14,-28.27l-64.44 -68.9zm0 -1258.57c-3.25,-3.47 -5.23,-29.88 -1.57,-32.9l38.17 -31.41c9.54,-7.85 14.58,-18.5 14.58,-30.87l0 -104.04c0,-9.38 -2.8,-17.44 -8.62,-24.79l-19.86 -25.14 0 -225.06c0,-9.38 2.8,-17.44 8.61,-24.79l8.46 -10.7c5.81,-7.35 8.61,-15.41 8.61,-24.79l0 -105.13c0,-11.74 -4.49,-21.84 -13.21,-29.7l-38.92 -35.09c-4.03,-3.62 -6.1,-8.29 -6.1,-13.7l0 -6.64c0,-4.01 1.11,-7.46 3.44,-10.73l37.9 -53.04c17.93,-25.09 44.53,-38.71 75.36,-38.61l842.57 2.78c29.46,0.09 54.81,13.11 72.04,37.01l42.5 58.89c3.14,4.37 4.65,9.02 4.65,14.4l0 6.72c0,6.17 -2,11.52 -6.06,16.17l-2.64 3.02c-6.09,6.99 -9.09,15 -9.09,24.26l0 607.24c0,9 2.83,16.77 8.6,23.68l0.59 0.7c5.76,6.91 8.6,14.68 8.6,23.69l0 8c0,5.29 -1.46,9.87 -4.51,14.2l-32.4 45.83c-17.24,24.39 -42.95,37.71 -72.83,37.71l-829.29 0c-25.61,0 -47.65,-9.56 -65.14,-28.27l-64.44 -68.9zm0 -1258.56c-3.25,-3.47 -5.23,-29.89 -1.57,-32.9l38.17 -31.41c9.54,-7.86 14.58,-18.51 14.58,-30.87l0 -104.05c0,-9.37 -2.8,-17.43 -8.62,-24.79l-19.86 -25.13 0 -225.06c0,-9.38 2.8,-17.44 8.61,-24.79l8.46 -10.7c5.81,-7.36 8.61,-15.42 8.61,-24.79l0 -105.14c0,-11.73 -4.49,-21.83 -13.21,-29.69l-38.92 -35.09c-4.03,-3.63 -6.1,-8.29 -6.1,-13.71l0 -6.63c0,-4.02 1.11,-7.46 3.44,-10.73l37.9 -53.04c17.93,-25.09 44.53,-38.72 75.36,-38.62l842.57 2.78c29.46,0.1 54.81,13.12 72.04,37.01l42.5 58.9c3.14,4.36 4.65,9.02 4.65,14.4l0 6.71c0,6.18 -2,11.52 -6.06,16.18l-2.64 3.02c-6.09,6.98 -9.09,14.99 -9.09,24.26l0 607.23c0,9 2.83,16.78 8.6,23.68l0.59 0.71c5.76,6.91 8.6,14.68 8.6,23.68l0 8c0,5.3 -1.46,9.88 -4.51,14.2l-32.4 45.84c-17.24,24.39 -42.95,37.71 -72.83,37.71l-829.29 0c-25.61,0 -47.65,-9.57 -65.14,-28.27l-64.44 -68.9z"/>
 </g>
</svg>
