<?xml version="1.0" encoding="UTF-8"?>
<!DOCTYPE svg PUBLIC "-//W3C//DTD SVG 1.1//EN" "http://www.w3.org/Graphics/SVG/1.1/DTD/svg11.dtd">
<!-- Creator: CorelDRAW X8 -->
<svg xmlns="http://www.w3.org/2000/svg" xml:space="preserve" width="40mm" height="60mm" version="1.1" style="shape-rendering:geometricPrecision; text-rendering:geometricPrecision; image-rendering:optimizeQuality; fill-rule:evenodd; clip-rule:evenodd"
viewBox="0 0 4000 6000"
 xmlns:xlink="http://www.w3.org/1999/xlink">
 <defs>
  <style type="text/css">
   <![CDATA[
    .str0 {stroke:black;stroke-width:7.62}
    .fil0 {fill:none}
   ]]>
  </style>
 </defs>
 <g id="图层_x0020_1">
  <metadata id="CorelCorpID_0Corel-Layer"/>
  <path class="fil0 str0" d="M976 5350l1887 0c119,0 216,-97 216,-216l0 -4268c0,-119 -97,-216 -216,-216l-567 0c-47,0 -98,0 -146,0 -24,0 -35,10 -35,29l0 27c0,59 -48,108 -108,108l0 0c-59,0 -108,-49 -108,-108l0 -18c0,-27 -18,-38 -44,-38l-137 0 -581 0c-119,0 -216,97 -216,216l0 4268c0,119 97,216 216,216l243 0"/>
 </g>
</svg>
