<?xml version="1.0" encoding="UTF-8"?>
<!DOCTYPE svg PUBLIC "-//W3C//DTD SVG 1.1//EN" "http://www.w3.org/Graphics/SVG/1.1/DTD/svg11.dtd">
<!-- Creator: CorelDRAW X8 -->
<svg xmlns="http://www.w3.org/2000/svg" xml:space="preserve" width="40mm" height="60mm" version="1.1" style="shape-rendering:geometricPrecision; text-rendering:geometricPrecision; image-rendering:optimizeQuality; fill-rule:evenodd; clip-rule:evenodd"
viewBox="0 0 4000 6000"
 xmlns:xlink="http://www.w3.org/1999/xlink">
 <defs>
  <style type="text/css">
   <![CDATA[
    .str0 {stroke:black;stroke-width:7.62}
    .fil0 {fill:none}
   ]]>
  </style>
 </defs>
 <g id="图层_x0020_1">
  <metadata id="CorelCorpID_0Corel-Layer"/>
  <path class="fil0 str0" d="M837 5191l0 -4221c0,-165 135,-293 301,-301 188,-8 338,-15 526,-19 23,0 23,22 52,22l589 0c21,0 25,-21 42,-21 183,4 331,10 515,18 166,7 301,136 301,301l0 4059c0,165 -135,294 -301,300 -292,12 -568,21 -862,21 -294,0 -567,-7 -862,-21 -166,-7 -301,-135 -301,-300l0 -139m1911 -4140c0,-7 -7,-15 -21,-16 -50,0 -90,41 -90,90 0,50 40,90 90,90 50,0 90,-40 90,-90 0,-49 -40,-90 -90,-90m249 104c-4,-14 -9,-24 -33,-24l-19 0c-28,0 -50,22 -50,50l0 0c0,27 22,50 50,50l91 0c28,0 50,-23 50,-50l0 0c0,-28 -22,-50 -50,-50l-72 0"/>
 </g>
</svg>
