<?xml version="1.0" encoding="UTF-8"?>
<!DOCTYPE svg PUBLIC "-//W3C//DTD SVG 1.1//EN" "http://www.w3.org/Graphics/SVG/1.1/DTD/svg11.dtd">
<!-- Creator: CorelDRAW X8 -->
<svg xmlns="http://www.w3.org/2000/svg" xml:space="preserve" width="40mm" height="60mm" version="1.1" style="shape-rendering:geometricPrecision; text-rendering:geometricPrecision; image-rendering:optimizeQuality; fill-rule:evenodd; clip-rule:evenodd"
viewBox="0 0 4000 6000"
 xmlns:xlink="http://www.w3.org/1999/xlink">
 <defs>
  <style type="text/css">
   <![CDATA[
    .str0 {stroke:#332C2B;stroke-width:17.64}
    .fil0 {fill:none}
   ]]>
  </style>
 </defs>
 <g id="图层_x0020_1">
  <metadata id="CorelCorpID_0Corel-Layer"/>
  <path class="fil0 str0" d="M1037 650l0 4541c0,88 71,159 159,159l1722 0c88,0 159,-71 159,-159l0 -4329c0,-87 -71,-158 -159,-158l-1722 0c-88,0 -159,71 -159,158 0,88 -94,128 -114,128m246 -75c-25,-35 -4,-91 39,-91 43,0 78,34 78,77 0,43 -35,78 -78,78 -43,0 -77,-35 -77,-78 0,-43 34,-77 77,-77"/>
 </g>
</svg>
