<?xml version="1.0" encoding="UTF-8"?>
<!DOCTYPE svg PUBLIC "-//W3C//DTD SVG 1.1//EN" "http://www.w3.org/Graphics/SVG/1.1/DTD/svg11.dtd">
<!-- Creator: CorelDRAW 2020 (64-Bit) -->
<svg xmlns="http://www.w3.org/2000/svg" xml:space="preserve" width="40mm" height="60mm" version="1.1" style="shape-rendering:geometricPrecision; text-rendering:geometricPrecision; image-rendering:optimizeQuality; fill-rule:evenodd; clip-rule:evenodd"
viewBox="0 0 4000 6000"
 xmlns:xlink="http://www.w3.org/1999/xlink"
 xmlns:xodm="http://www.corel.com/coreldraw/odm/2003">
 <defs>
  <style type="text/css">
   <![CDATA[
    .str1 {stroke:#332C2B;stroke-width:20;stroke-miterlimit:22.9256}
    .str0 {stroke:#E62129;stroke-width:20;stroke-miterlimit:22.9256}
    .fil0 {fill:none}
   ]]>
  </style>
   <clipPath id="id0">
    <rect x="-43230.72" y="-5869.7" width="13829.28" height="16902.44"/>
   </clipPath>
 </defs>
 <g id="图层_x0020_1">
  <metadata id="CorelCorpID_0Corel-Layer"/>
  <g style="clip-path:url(#id0)">
   <image x="-43230.72" y="-5869.7" width="13829.27" height="16902.44" xlink:href="IQOO U5e -11i（前膜全屏）_Images\IQOO U5e -11i（前膜全屏）_ImgID1.png"/>
  </g>
  <rect class="fil0 str0" x="-37306.79" y="-5603.33" width="7580" height="16400"/>
  <path class="fil0 str0" d="M-36272.37 -5500.45l1450.35 0c52.77,0 75.42,61.54 126.57,61.54l695.77 0c171.2,0 148.34,138.41 148.34,223.66 0,191.42 155.18,346.6 346.6,346.6 191.42,0 346.6,-155.18 346.6,-346.6 0,-85.25 2.27,-223.66 170.83,-223.66l651.96 0c51.15,0 86.37,-61.54 126.57,-61.54l1447.58 0c495.01,0 900.01,405.01 900.01,900l0 14380.49c0,495 -405,900 -900.01,900l-5511.17 0c-495.01,0 -900,-405 -900,-900l0 -14380.49c0,-494.99 404.99,-900 900,-900z"/>
  <path class="fil0 str1" d="M-2879.28 6441.3l0 -5955.67c0,-495 -405.01,-900.01 -900,-900.01l-14380.49 0c-494.99,0 -900,405 -900,900.01l0 1447.58c0,40.2 61.54,75.42 61.54,126.57l0 651.96c0,168.56 138.41,170.83 223.66,170.83 191.42,0 346.6,155.18 346.6,346.6 0,191.42 -155.18,346.6 -346.6,346.6 -85.25,0 -223.66,-22.86 -223.66,148.34l0 695.77c0,51.15 -61.54,73.8 -61.54,126.57l0 1450.35c0,495.01 405.01,900 900,900l14380.49 0c495,0 900,-404.99 900,-900 0,-495.01 81.78,-677.47 202.17,-834.9"/>
  <path class="fil0 str1" d="M1074.8 5292.53l1708.61 0c142.01,0 258.21,-116.19 258.21,-258.2l0 -4125.6c0,-142.01 -116.19,-258.2 -258.21,-258.2l-415.29 0c-11.53,0 -21.64,17.66 -36.31,17.66l-187.04 0c-48.36,0 -49.01,39.7 -49.01,64.16 0,54.92 -44.52,99.44 -99.44,99.44 -54.91,0 -99.43,-44.52 -99.43,-99.44 0,-24.46 6.56,-64.16 -42.56,-64.16l-199.61 0c-14.67,0 -21.17,-17.66 -36.31,-17.66l-416.09 0c-142.01,0 -258.2,116.19 -258.2,258.2l0 4125.6c0,142.01 116.19,258.2 258.2,258.2 142.02,0 194.36,23.46 239.53,58"/>
 </g>
</svg>
