<?xml version="1.0" encoding="UTF-8"?>
<!DOCTYPE svg PUBLIC "-//W3C//DTD SVG 1.1//EN" "http://www.w3.org/Graphics/SVG/1.1/DTD/svg11.dtd">
<!-- Creator: CorelDRAW -->
<svg xmlns="http://www.w3.org/2000/svg" xml:space="preserve" width="40mm" height="60mm" style="shape-rendering:geometricPrecision; text-rendering:geometricPrecision; image-rendering:optimizeQuality; fill-rule:evenodd; clip-rule:evenodd"
viewBox="0 0 40 60"
 xmlns:xlink="http://www.w3.org/1999/xlink">
 <defs>
  <style type="text/css">
   <![CDATA[
    .str0 {stroke:#1F1A17;stroke-width:0.0762;stroke-linejoin:bevel}
    .fil0 {fill:none}
   ]]>
  </style>
 </defs>
 <g id="图层_x0020_1">
  <metadata id="CorelCorpID_0Corel-Layer"/>
  <g id="_330808920">
   <path id="_330806544" class="fil0 str0" d="M11.5509 6.5007l4.059 0.0003c0.2563,0 0.1513,0.1057 0.3019,0.1056l1.3981 0c0.1322,-0.0001 0.1037,-0.1095 0.1744,-0.1066l10.9638 0c0.5365,0 1.051,0.2131 1.4303,0.5925 0.3794,0.3793 0.5925,0.8938 0.5925,1.4303l0 42.9544c0,1.1172 -0.9056,2.0228 -2.0228,2.0228l-16.8962 0c-0.5365,0 -1.051,-0.2131 -1.4303,-0.5925 -0.3794,-0.3793 -0.5925,-0.8938 -0.5925,-1.4303l0 -42.9544c0,-0.5365 0.2131,-1.051 0.5925,-1.4303 0.3793,-0.3794 0.8928,-0.5918 1.4293,-0.5918z"/>
   <path id="_330806304" class="fil0 str0" d="M28.9488 8.0495c0,-0.3122 -0.2531,-0.5652 -0.5652,-0.5652 -0.3122,0 -0.5652,0.253 -0.5652,0.5652 0,0.3121 0.253,0.5651 0.5652,0.5651 0.3121,0 0.5652,-0.253 0.5652,-0.5651z"/>
  </g>
 </g>
</svg>
