<?xml version="1.0" encoding="UTF-8"?>
<!DOCTYPE svg PUBLIC "-//W3C//DTD SVG 1.1//EN" "http://www.w3.org/Graphics/SVG/1.1/DTD/svg11.dtd">
<!-- Creator: CorelDRAW X8 -->
<svg xmlns="http://www.w3.org/2000/svg" xml:space="preserve" width="40mm" height="60mm" version="1.1" style="shape-rendering:geometricPrecision; text-rendering:geometricPrecision; image-rendering:optimizeQuality; fill-rule:evenodd; clip-rule:evenodd"
viewBox="0 0 4000 6000"
 xmlns:xlink="http://www.w3.org/1999/xlink">
 <defs>
  <style type="text/css">
   <![CDATA[
    .str0 {stroke:black;stroke-width:7.62}
    .fil0 {fill:none}
   ]]>
  </style>
 </defs>
 <g id="图层_x0020_1">
  <metadata id="CorelCorpID_0Corel-Layer"/>
  <path class="fil0 str0" d="M3153 1390l339 0c49,0 90,40 90,90l0 934c0,49 -41,90 -90,90l-339 0c-49,0 -90,-41 -90,-90l0 -934c0,-50 41,-90 90,-90zm-273 637l0 0c12,0 22,10 22,22l0 810c0,13 -10,23 -22,23l0 0c-13,0 -23,-10 -23,-23l0 -810c0,-12 10,-22 23,-22zm-880 -698c22,0 39,18 39,39 0,22 -17,40 -39,40 -22,0 -40,-18 -40,-40 0,-21 18,-39 40,-39zm-1783 -79l688 0c74,0 137,50 154,123 7,33 36,57 71,57l0 0c34,0 62,-23 70,-54 20,-69 80,-115 152,-115l1297 0c72,0 133,46 152,115 8,31 37,54 70,54l0 0c35,0 64,-24 72,-57 16,-73 79,-123 153,-123l573 0c4,0 7,3 7,7l0 6 0 97c0,3 2,6 5,7l85 26 19 6c3,1 4,3 4,6l0 171c0,3 -1,5 -4,6l-19 6 -85 26c-3,1 -5,4 -5,7l0 85 0 85c0,3 2,6 5,7l85 26 19 6c3,1 4,3 4,6l0 171c0,3 -1,6 -4,7l-19 5 -85 27c-3,1 -5,3 -5,6l0 86 0 85c0,3 2,6 5,7l85 26 19 6c3,0 4,3 4,6l0 170c0,3 -1,6 -4,7l-19 6 -85 26c-3,1 -5,3 -5,6l0 86 0 85c0,3 2,6 5,7l85 26 19 6c3,1 4,3 4,6l0 171c0,3 -1,5 -4,6l-19 6 -85 26c-3,1 -5,4 -5,7l0 85 0 86c0,3 2,5 5,6l85 27 19 5c3,1 4,4 4,7l0 170c0,3 -1,5 -4,6l-19 6 -85 26c-3,1 -5,4 -5,7l0 85 0 86c0,3 2,5 5,6l85 27 19 5c3,1 4,4 4,7l0 170c0,3 -1,6 -4,7l-19 5 -85 27c-3,1 -5,3 -5,6l0 86 0 85c0,3 2,6 5,6l85 27 19 6c3,0 4,3 4,6l0 171c0,3 -1,5 -4,6l-19 6 -85 26c-3,1 -5,4 -5,7l0 85 0 85c0,3 2,6 5,7l85 26 19 6c3,1 4,3 4,6l0 171c0,3 -1,5 -4,6l-19 6 -85 26c-3,1 -5,4 -5,7l0 97 0 6c0,4 -3,7 -7,7l-573 0c-74,0 -137,-50 -153,-123 -8,-33 -37,-58 -72,-58l0 0c-33,0 -62,23 -70,54 -19,69 -80,116 -152,116l-1297 0c-72,0 -132,-47 -151,-116 -9,-31 -37,-54 -71,-54l0 0c-35,0 -64,25 -71,58 -17,73 -80,123 -154,123l-688 0c-3,0 -6,-3 -6,-7l0 -103c0,-3 1,-6 4,-6l19 -6 85 -26c3,-1 5,-4 5,-7l0 -85 0 -86c0,-3 -2,-5 -5,-6l-85 -27 -19 -5c-3,-1 -4,-4 -4,-7l0 -170c0,-3 1,-6 4,-7l19 -5 85 -27c3,-1 5,-3 5,-6l0 -86 0 -85c0,-3 -2,-6 -5,-7l-85 -26 -19 -6c-3,-1 -4,-3 -4,-6l0 -171c0,-3 1,-5 4,-6l19 -6 85 -26c3,-1 5,-4 5,-7l0 -85 0 -86c0,-3 -2,-5 -5,-6l-85 -27 -19 -5c-3,-1 -4,-4 -4,-7l0 -170c0,-3 1,-6 4,-6l19 -6 85 -27c3,0 5,-3 5,-6l0 -85 0 -86c0,-3 -2,-5 -5,-6l-85 -27 -19 -5c-3,-1 -4,-4 -4,-7l0 -170c0,-3 1,-6 4,-7l19 -5 85 -27c3,-1 5,-3 5,-6l0 -86 0 -85c0,-3 -2,-6 -5,-6l-85 -27 -19 -6c-3,0 -4,-3 -4,-6l0 -170c0,-3 1,-6 4,-7l19 -5 85 -27c3,-1 5,-3 5,-6l0 -86 0 -85c0,-3 -2,-6 -5,-7l-85 -26 -19 -6c-3,-1 -4,-3 -4,-6l0 -171c0,-3 1,-5 4,-6l19 -6 85 -26c3,-1 5,-4 5,-7l0 -85 0 -86c0,-3 -2,-5 -5,-6l-85 -26 -19 -6c-3,-1 -4,-3 -4,-7l0 -170c0,-3 1,-6 4,-7l19 -5 85 -27c3,-1 5,-3 5,-6l0 -86 0 -85c0,-3 -2,-6 -5,-7l-85 -26 -19 -6c-3,-1 -4,-3 -4,-6l0 -103c0,-4 3,-7 6,-7z"/>
 </g>
</svg>
