<?xml version="1.0" encoding="UTF-8"?>
<!DOCTYPE svg PUBLIC "-//W3C//DTD SVG 1.1//EN" "http://www.w3.org/Graphics/SVG/1.1/DTD/svg11.dtd">
<!-- Creator: CorelDRAW X8 -->
<svg xmlns="http://www.w3.org/2000/svg" xml:space="preserve" width="40mm" height="60mm" version="1.1" style="shape-rendering:geometricPrecision; text-rendering:geometricPrecision; image-rendering:optimizeQuality; fill-rule:evenodd; clip-rule:evenodd"
viewBox="0 0 4000 6000"
 xmlns:xlink="http://www.w3.org/1999/xlink">
 <defs>
  <style type="text/css">
   <![CDATA[
    .str0 {stroke:#222222;stroke-width:20}
    .fil0 {fill:none}
   ]]>
  </style>
 </defs>
 <g id="图层_x0020_1">
  <metadata id="CorelCorpID_0Corel-Layer"/>
  <path class="fil0 str0" d="M3308 5350c0,-74 104,-100 153,-100 48,0 87,-39 87,-88l0 -4424c0,-49 -39,-88 -87,-88l-2445 0 -20 16 -365 0 -22 -16 -126 0c-49,0 -88,39 -88,88l0 1585 135 0c17,0 32,14 32,32l0 616c0,17 -15,32 -32,32l-135 0 0 2159c0,49 39,88 88,88l113 0 14 -16 398 0 15 16 2582 0"/>
  <path class="fil0 str0" d="M-18647 18079c0,-463 656,-626 958,-626 302,0 550,-247 550,-550l0 -27743c0,-303 -248,-550 -550,-550l-15325 0 -129 100 -2286 0 -142 -100 -790 0c-302,0 -549,247 -549,550l0 9939 845 0c110,0 200,90 200,200l0 3863c0,110 -90,200 -200,200l-845 0 0 13541c0,303 247,550 549,550l711 0 86 -103 2497 0 92 103 16192 0"/>
 </g>
</svg>
