<?xml version="1.0" encoding="UTF-8"?>
<!DOCTYPE svg PUBLIC "-//W3C//DTD SVG 1.1//EN" "http://www.w3.org/Graphics/SVG/1.1/DTD/svg11.dtd">
<!-- Creator: CorelDRAW X8 -->
<svg xmlns="http://www.w3.org/2000/svg" xml:space="preserve" width="40mm" height="60mm" version="1.1" style="shape-rendering:geometricPrecision; text-rendering:geometricPrecision; image-rendering:optimizeQuality; fill-rule:evenodd; clip-rule:evenodd"
viewBox="0 0 4000 6000"
 xmlns:xlink="http://www.w3.org/1999/xlink">
 <defs>
  <style type="text/css">
   <![CDATA[
    .str0 {stroke:black;stroke-width:20;stroke-linejoin:bevel}
    .fil0 {fill:none}
   ]]>
  </style>
 </defs>
 <g id="图层_x0020_1">
  <metadata id="CorelCorpID_0Corel-Layer"/>
  <path class="fil0 str0" d="M3186 650c0,0 -138,0 -138,0 -11,0 -10,9 -10,9 0,0 1,545 1,545 0,0 2,38 -39,38 0,0 -38,-2 -37,-39 11,-290 -245,-347 -271,-349 -26,-2 -27,-25 -27,-25 0,0 3,-118 4,-147 1,-28 -35,-32 -35,-32 0,0 -1286,0 -1286,0 0,0 -23,1 -23,21 -1,21 -1,160 -1,160 0,0 -2,18 -26,20 -23,1 -287,26 -286,362 0,28 -36,26 -36,26 0,0 -34,1 -34,-28 0,-28 -3,-542 -3,-542 0,0 2,-19 -15,-19 0,0 -121,0 -121,0 0,0 -18,25 -18,25 0,0 4,508 4,508 0,0 -18,29 -18,29 0,0 0,505 0,505 0,0 0,0 0,0 0,1 0,15 23,16 23,1 81,0 81,0 0,0 34,1 35,35 1,33 -7,308 -7,308 0,0 -1,22 -35,21 -35,0 -88,2 -88,2 0,0 -9,1 -9,12 0,0 0,341 0,341 0,0 104,0 104,0 16,0 30,13 30,30 0,0 0,478 0,478 0,16 -14,30 -30,30 0,0 -104,0 -104,0 0,0 0,1801 0,1801 0,0 23,28 23,28 0,0 0,485 1,509 0,19 13,22 19,22 0,0 2,0 2,0 0,0 58,-2 95,0 0,0 12,0 12,0 25,-2 24,-16 24,-16 0,0 -3,-503 -3,-503 0,-41 45,-37 45,-37 0,0 35,1 35,41 3,363 318,362 318,362 0,0 1310,2 1310,2 344,-24 320,-370 323,-379 3,-10 5,-26 39,-28 35,-1 37,25 37,25 0,0 -1,489 -3,509 -2,20 15,24 15,24 0,0 108,0 108,0 31,0 38,-31 38,-31 0,0 -2,-514 -2,-514 0,0 22,-29 22,-29 0,0 0,-2274 0,-2274 -4,-1 -9,-1 -9,-1 0,0 -69,2 -103,0 -34,-2 -33,-32 -33,-32 0,0 -4,-1093 -3,-1106 1,-12 15,-10 15,-10 0,0 96,2 110,4 15,1 20,-8 20,-8 0,0 0,-101 0,-101 0,0 -28,-45 -28,-45 0,0 -6,-538 -6,-546 1,-7 -5,-7 -6,-7zm-1512 303c40,0 73,32 73,72 0,40 -33,72 -73,72 -26,0 -50,-14 -62,-36 0,0 -139,0 -139,0 -17,51 -64,87 -120,87 -69,0 -126,-56 -126,-125 0,-69 57,-126 126,-126 59,0 108,41 122,95 0,0 135,0 135,0 12,-23 36,-39 64,-39z"/>
 </g>
</svg>
