<?xml version="1.0" encoding="UTF-8"?>
<!DOCTYPE svg PUBLIC "-//W3C//DTD SVG 1.1//EN" "http://www.w3.org/Graphics/SVG/1.1/DTD/svg11.dtd">
<!-- Creator: CorelDRAW 2020 (64-Bit) -->
<svg xmlns="http://www.w3.org/2000/svg" xml:space="preserve" width="40mm" height="60mm" version="1.1" style="shape-rendering:geometricPrecision; text-rendering:geometricPrecision; image-rendering:optimizeQuality; fill-rule:evenodd; clip-rule:evenodd"
viewBox="0 0 4000 6000"
 xmlns:xlink="http://www.w3.org/1999/xlink"
 xmlns:xodm="http://www.corel.com/coreldraw/odm/2003">
 <defs>
  <style type="text/css">
   <![CDATA[
    .str2 {stroke:#332C2B;stroke-width:20;stroke-miterlimit:22.9256}
    .str1 {stroke:#E62129;stroke-width:20;stroke-miterlimit:22.9256}
    .str0 {stroke:#E62129;stroke-width:20;stroke-miterlimit:22.9256}
    .fil0 {fill:none}
   ]]>
  </style>
   <clipPath id="id0">
    <rect x="-35711.96" y="-5679.3" width="14381.61" height="14724.36"/>
   </clipPath>
 </defs>
 <g id="图层_x0020_1">
  <metadata id="CorelCorpID_0Corel-Layer"/>
  <g style="clip-path:url(#id0)">
   <image x="-35711.96" y="-5679.3" width="14381.6" height="14724.36" xlink:href="King Kong mini 3 -11i（前膜）_Images\King Kong mini 3 -11i（前膜）_ImgID1.png"/>
  </g>
  <rect class="fil0 str0" x="-34914.37" y="-4889.78" width="6286.48" height="13100"/>
  <polygon class="fil0 str1" points="-34380.26,-4315.72 -33093.36,-4477.43 -32988.78,-4387.41 -32851.59,-4298.29 -32583.33,-4298.29 -32429.72,-4126.31 -31111.05,-4126.31 -30948.8,-4292.8 -30693.51,-4292.8 -30587.5,-4350.13 -30462.01,-4476.91 -29158.51,-4311.55 -29158.51,7513.09 -30492.18,7698.26 -30616.58,7593.53 -30756.65,7537.85 -32809.76,7537.85 -32935.24,7594.04 -33043.42,7672.32 -34380.4,7519.07 "/>
  <circle class="fil0 str1" cx="-33180.35" cy="-4157.14" r="183.09"/>
  <rect class="fil0 str1" x="-30736.8" y="-4238.99" width="526.98" height="218.79" rx="458.16" ry="572.48"/>
  <polyline class="fil0 str2" points="-2603.48,5244.42 -14518.08,5244.28 -14679.79,3957.38 -14589.77,3852.8 -14500.65,3715.61 -14500.65,3447.35 -14328.67,3293.74 -14328.67,1975.07 -14495.16,1812.82 -14495.16,1557.53 -14552.49,1451.52 -14679.27,1326.03 -14513.91,22.53 -2689.27,22.53 -2504.1,1356.2 -2608.83,1480.6 -2664.51,1620.67 -2664.51,3673.78 -2608.32,3799.26 -2530.04,3907.44 -2683.29,5244.42 -2737.98,5244.42 "/>
  <path class="fil0 str2" d="M-14542.59 4044.37c0,101.12 81.97,183.09 183.09,183.09 101.12,0 183.09,-81.97 183.09,-183.09 0,-101.12 -81.97,-183.09 -183.09,-183.09 -101.12,0 -183.09,81.97 -183.09,183.09 0,101.12 147.55,150.33 197.16,139.3"/>
  <g id="_2414019756768">
   <polyline class="fil0 str2" points="985.53,5317.31 985.59,718.09 1482.35,655.67 1522.72,690.42 1575.68,724.82 1679.23,724.82 1738.52,791.21 2247.55,791.21 2310.18,726.94 2408.73,726.94 2449.65,704.81 2498.09,655.87 3001.26,719.7 3001.26,5284.19 2486.44,5355.67 2438.42,5315.24 2384.36,5293.75 1591.82,5293.75 1543.39,5315.44 1501.63,5345.65 985.53,5286.5 985.53,5265.39 "/>
   <path class="fil0 str2" d="M1448.77 708.63c-39.03,0 -70.67,31.64 -70.67,70.67 0,39.04 31.64,70.68 70.67,70.68 39.03,0 70.68,-31.64 70.68,-70.68 0,-39.03 -31.65,-70.67 -70.68,-70.67 -39.03,0 -58.03,56.96 -53.77,76.11"/>
  </g>
 </g>
</svg>
