<?xml version="1.0" encoding="UTF-8"?>
<!DOCTYPE svg PUBLIC "-//W3C//DTD SVG 1.1//EN" "http://www.w3.org/Graphics/SVG/1.1/DTD/svg11.dtd">
<!-- Creator: CorelDRAW X8 -->
<svg xmlns="http://www.w3.org/2000/svg" xml:space="preserve" width="40mm" height="60mm" version="1.1" style="shape-rendering:geometricPrecision; text-rendering:geometricPrecision; image-rendering:optimizeQuality; fill-rule:evenodd; clip-rule:evenodd"
viewBox="0 0 4000 6000"
 xmlns:xlink="http://www.w3.org/1999/xlink">
 <defs>
  <style type="text/css">
   <![CDATA[
    .str0 {stroke:#332C2B;stroke-width:7.62}
    .fil0 {fill:none;fill-rule:nonzero}
   ]]>
  </style>
 </defs>
 <g id="Katman_x0020_1">
  <metadata id="CorelCorpID_0Corel-Layer"/>
  <g>
   <path class="fil0 str0" d="M929 4948c15,119 136,208 244,230l0 172 1641 0 0 -169c118,-15 228,-108 244,-233 1,-6 9,-6 10,0 2,12 2,26 -1,41 -5,28 -15,153 -15,314l182 0 0 -4653 -173 0c0,22 -3,288 15,385 2,15 2,29 0,42 -1,5 -9,5 -9,0 -19,-141 -170,-232 -297,-232l-26 0 0 -171 -1491 0 0 171c-3,0 -16,0 -19,0 -144,4 -275,95 -292,232 -1,5 -9,5 -10,0 -2,-13 -2,-27 1,-42 17,-97 15,-375 15,-385l-182 0 0 4653 169 0c0,-161 -10,-286 -15,-314 -3,-15 -2,-29 -1,-41 1,-6 9,-6 10,0zm273 301c0,-12 10,-21 22,-21 12,0 22,9 22,21 0,12 -10,22 -22,22 -12,0 -22,-10 -22,-22zm63 0c0,-12 9,-21 21,-21 12,0 22,9 22,21 0,12 -10,22 -22,22 -12,0 -21,-10 -21,-22zm62 0c0,-12 9,-21 21,-21 12,0 22,9 22,21 0,12 -10,22 -22,22 -12,0 -21,-10 -21,-22zm62 0c0,-12 10,-21 21,-21 12,0 22,9 22,21 0,12 -10,22 -22,22 -11,0 -21,-10 -21,-22zm62 0c0,-12 10,-21 22,-21 12,0 21,9 21,21 0,12 -9,22 -21,22 -12,0 -22,-10 -22,-22zm62 0c0,-12 10,-21 22,-21 12,0 21,9 21,21 0,12 -9,22 -21,22 -12,0 -22,-10 -22,-22zm62 0c0,-12 10,-21 22,-21 12,0 22,9 22,21 0,12 -10,22 -22,22 -12,0 -22,-10 -22,-22zm62 0c0,-12 10,-21 22,-21 12,0 22,9 22,21 0,12 -10,22 -22,22 -12,0 -22,-10 -22,-22zm156 0c0,-12 10,-21 22,-21 12,0 21,9 21,21 0,12 -9,22 -21,22 -12,0 -22,-10 -22,-22zm988 0c0,12 -9,22 -21,22 -12,0 -22,-10 -22,-22 0,-12 10,-21 22,-21 12,0 21,9 21,21zm-62 0c0,12 -10,22 -21,22 -12,0 -22,-10 -22,-22 0,-12 10,-21 22,-21 11,0 21,9 21,21zm-62 0c0,12 -10,22 -22,22 -12,0 -21,-10 -21,-22 0,-12 9,-21 21,-21 12,0 22,9 22,21zm-62 0c0,12 -10,22 -22,22 -12,0 -21,-10 -21,-22 0,-12 9,-21 21,-21 12,0 22,9 22,21zm-62 0c0,12 -10,22 -22,22 -12,0 -22,-10 -22,-22 0,-12 10,-21 22,-21 12,0 22,9 22,21zm-62 0c0,12 -10,22 -22,22 -12,0 -22,-10 -22,-22 0,-12 10,-21 22,-21 12,0 22,9 22,21zm-63 0c0,12 -9,22 -21,22 -12,0 -22,-10 -22,-22 0,-12 10,-21 22,-21 12,0 21,9 21,21zm-62 0c0,12 -9,22 -21,22 -12,0 -22,-10 -22,-22 0,-12 10,-21 22,-21 12,0 21,9 21,21zm-156 0c0,12 -9,22 -21,22 -12,0 -22,-10 -22,-22 0,-12 10,-21 22,-21 12,0 21,9 21,21zm-120 -41c23,0 42,18 42,41 0,23 -19,41 -42,41l-157 0c-22,0 -41,-18 -41,-41 0,-23 19,-41 41,-41l157 0zm-174 -4090c0,31 -25,56 -56,56 -31,0 -57,-25 -57,-56 0,-31 26,-56 57,-56 31,0 56,25 56,56zm-185 28c-15,0 -28,-13 -28,-28 0,-15 13,-28 28,-28 15,0 28,13 28,28 0,15 -13,28 -28,28zm-499 115c-79,0 -143,-64 -143,-143 0,-79 64,-143 143,-143l286 0c79,0 143,64 143,143 0,79 -64,143 -143,143l-286 0zm1911 251c-14,0 -25,-11 -25,-24l0 -124c0,-14 11,-25 25,-25l21 0c13,0 24,11 24,25l0 124c0,13 -11,24 -24,24l-21 0zm-2268 449c-24,0 -44,-20 -44,-44l0 -214c0,-24 20,-44 44,-44l0 0c24,0 44,20 44,44l0 214c0,24 -20,44 -44,44l0 0zm1240 -217c12,50 -37,112 -88,109 -13,-43 36,-104 88,-109zm-201 451c-99,-104 -118,-296 14,-331 21,-5 42,-3 61,7 25,12 48,12 73,0 37,-17 75,-14 109,8 11,7 20,17 31,27 -75,49 -66,150 10,185 -12,39 -33,73 -60,102 -22,23 -44,27 -73,15 -28,-11 -47,-20 -87,-3 -32,13 -53,16 -78,-10zm1207 76l0 -569c0,-22 18,-41 40,-41 23,0 41,19 41,41l0 569c0,23 -18,41 -41,41 -22,0 -40,-18 -40,-41zm-2246 546c-24,0 -44,-20 -44,-44l0 -372c0,-24 20,-44 44,-44l0 0c24,0 44,20 44,44l0 372c0,24 -20,44 -44,44l0 0z"/>
  </g>
 </g>
</svg>
