<?xml version="1.0" encoding="UTF-8"?>
<!DOCTYPE svg PUBLIC "-//W3C//DTD SVG 1.1//EN" "http://www.w3.org/Graphics/SVG/1.1/DTD/svg11.dtd">
<!-- Creator: CorelDRAW 2020 (64-Bit) -->
<svg xmlns="http://www.w3.org/2000/svg" xml:space="preserve" width="40mm" height="60mm" version="1.1" style="shape-rendering:geometricPrecision; text-rendering:geometricPrecision; image-rendering:optimizeQuality; fill-rule:evenodd; clip-rule:evenodd"
viewBox="0 0 4000 6000"
 xmlns:xlink="http://www.w3.org/1999/xlink"
 xmlns:xodm="http://www.corel.com/coreldraw/odm/2003">
 <defs>
  <style type="text/css">
   <![CDATA[
    .str1 {stroke:#332C2B;stroke-width:20;stroke-miterlimit:22.9256}
    .str0 {stroke:#E62129;stroke-width:20;stroke-miterlimit:22.9256}
    .fil0 {fill:none}
   ]]>
  </style>
   <clipPath id="id0">
    <rect x="-36002.95" y="582.6" width="6139.31" height="6330.25"/>
   </clipPath>
 </defs>
 <g id="图层_x0020_1">
  <metadata id="CorelCorpID_0Corel-Layer"/>
  <g style="clip-path:url(#id0)">
   <image x="-36002.95" y="582.6" width="6139.31" height="6330.25" xlink:href="Watch R Talk Go -11i_Images\Watch R Talk Go -11i_ImgID1.png"/>
  </g>
  <ellipse class="fil0 str0" cx="-33275.42" cy="3852.64" rx="2298.5" ry="2298.51"/>
  <circle class="fil0 str0" cx="-33295.42" cy="3852.64" r="1806.94"/>
  <path class="fil0 str1" d="M-18015.89 898.68c0,997.95 808.99,1806.94 1806.94,1806.94 997.95,0 1806.94,-808.99 1806.94,-1806.94 0,-997.95 -808.99,-1806.94 -1806.94,-1806.94 -997.95,0 -1806.94,808.99 -1806.94,1806.94 0,997.95 -44.99,1650.63 -44.99,1650.63"/>
  <path class="fil0 str1" d="M-18015.89 5047.36c0,997.95 808.99,1806.94 1806.94,1806.94 997.95,0 1806.94,-808.99 1806.94,-1806.94 0,-997.95 -808.99,-1806.94 -1806.94,-1806.94 -997.95,0 -1806.94,808.99 -1806.94,1806.94 0,997.95 -44.99,1650.63 -44.99,1650.63"/>
  <path class="fil0 str1" d="M-13888.39 898.68c0,997.95 808.99,1806.94 1806.94,1806.94 997.95,0 1806.94,-808.99 1806.94,-1806.94 0,-997.95 -808.99,-1806.94 -1806.94,-1806.94 -997.95,0 -1806.94,808.99 -1806.94,1806.94 0,997.95 -44.99,1650.63 -44.99,1650.63"/>
  <path class="fil0 str1" d="M-9760.89 898.68c0,997.95 808.99,1806.94 1806.94,1806.94 997.95,0 1806.94,-808.99 1806.94,-1806.94 0,-997.95 -808.99,-1806.94 -1806.94,-1806.94 -997.95,0 -1806.94,808.99 -1806.94,1806.94 0,997.95 -44.99,1650.63 -44.99,1650.63"/>
  <path class="fil0 str1" d="M-13888.39 5047.36c0,997.95 808.99,1806.94 1806.94,1806.94 997.95,0 1806.94,-808.99 1806.94,-1806.94 0,-997.95 -808.99,-1806.94 -1806.94,-1806.94 -997.95,0 -1806.94,808.99 -1806.94,1806.94 0,997.95 -44.99,1650.63 -44.99,1650.63"/>
  <path class="fil0 str1" d="M-9760.89 5047.36c0,997.95 808.99,1806.94 1806.94,1806.94 997.95,0 1806.94,-808.99 1806.94,-1806.94 0,-997.95 -808.99,-1806.94 -1806.94,-1806.94 -997.95,0 -1806.94,808.99 -1806.94,1806.94 0,997.95 -44.99,1650.63 -44.99,1650.63"/>
  <g id="_2932528393552">
   <path class="fil0 str1" d="M2811.19 668.28c-393.69,0 -712.83,319.15 -712.83,712.84 0,393.68 319.14,712.83 712.83,712.83 393.69,0 712.84,-319.15 712.84,-712.83 0,-393.69 -319.15,-712.84 -712.84,-712.84 -393.69,0 -651.17,-17.75 -651.17,-17.75"/>
   <path class="fil0 str1" d="M1174.55 668.28c-393.69,0 -712.84,319.15 -712.84,712.84 0,393.68 319.15,712.83 712.84,712.83 393.69,0 712.83,-319.15 712.83,-712.83 0,-393.69 -319.14,-712.84 -712.83,-712.84 -393.69,0 -651.18,-17.75 -651.18,-17.75"/>
   <path class="fil0 str1" d="M2811.19 2296.57c-393.69,0 -712.83,319.15 -712.83,712.84 0,393.69 319.14,712.83 712.83,712.83 393.69,0 712.84,-319.14 712.84,-712.83 0,-393.69 -319.15,-712.84 -712.84,-712.84 -393.69,0 -651.17,-17.75 -651.17,-17.75"/>
   <path class="fil0 str1" d="M2811.19 3924.86c-393.69,0 -712.83,319.15 -712.83,712.84 0,393.69 319.14,712.83 712.83,712.83 393.69,0 712.84,-319.14 712.84,-712.83 0,-393.69 -319.15,-712.84 -712.84,-712.84 -393.69,0 -651.17,-17.75 -651.17,-17.75"/>
   <path class="fil0 str1" d="M1174.55 2296.57c-393.69,0 -712.84,319.15 -712.84,712.84 0,393.69 319.15,712.83 712.84,712.83 393.69,0 712.83,-319.14 712.83,-712.83 0,-393.69 -319.14,-712.84 -712.83,-712.84 -393.69,0 -651.18,-17.75 -651.18,-17.75"/>
   <path class="fil0 str1" d="M1174.55 3924.86c-393.69,0 -712.84,319.15 -712.84,712.84 0,393.69 319.15,712.83 712.84,712.83 393.69,0 712.83,-319.14 712.83,-712.83 0,-393.69 -319.14,-712.84 -712.83,-712.84 -393.69,0 -651.18,-17.75 -651.18,-17.75"/>
  </g>
 </g>
</svg>
