<?xml version="1.0" encoding="UTF-8"?>
<!DOCTYPE svg PUBLIC "-//W3C//DTD SVG 1.1//EN" "http://www.w3.org/Graphics/SVG/1.1/DTD/svg11.dtd">
<!-- Creator: CorelDRAW 2020 (64-Bit) -->
<svg xmlns="http://www.w3.org/2000/svg" xml:space="preserve" width="40mm" height="60mm" version="1.1" style="shape-rendering:geometricPrecision; text-rendering:geometricPrecision; image-rendering:optimizeQuality; fill-rule:evenodd; clip-rule:evenodd"
viewBox="0 0 4000 6000"
 xmlns:xlink="http://www.w3.org/1999/xlink"
 xmlns:xodm="http://www.corel.com/coreldraw/odm/2003">
 <defs>
  <style type="text/css">
   <![CDATA[
    .str1 {stroke:#332C2B;stroke-width:20;stroke-miterlimit:22.9256}
    .str0 {stroke:#E72D28;stroke-width:20;stroke-miterlimit:22.9256}
    .str2 {stroke:#222222;stroke-width:7.62;stroke-miterlimit:22.9256}
    .fil0 {fill:none}
   ]]>
  </style>
   <clipPath id="id0">
    <rect x="-31655.02" y="-4198.05" width="7675.91" height="14871.71"/>
   </clipPath>
   <clipPath id="id1">
    <rect x="-35857.6" y="-4067.24" width="1355.1" height="14675.56"/>
   </clipPath>
 </defs>
 <g id="图层_x0020_1">
  <metadata id="CorelCorpID_0Corel-Layer"/>
  <g style="clip-path:url(#id0)">
   <image x="-31655.02" y="-4198.05" width="7675.91" height="14871.7" xlink:href="Y51-11i（背膜半包）_Images\Y51-11i（背膜半包）_ImgID1.png"/>
  </g>
  <g style="clip-path:url(#id1)">
   <image x="-35857.6" y="-4067.24" width="1355.1" height="14675.56" xlink:href="Y51-11i（背膜半包）_Images\Y51-11i（背膜半包）_ImgID2.png"/>
  </g>
  <rect class="fil0 str0" x="-31389.33" y="-3989.23" width="7170" height="14380"/>
  <rect class="fil0 str0" x="-31245.82" y="-3862.23" width="6882.98" height="14112.53" rx="400" ry="346.03"/>
  <circle class="fil0 str1" cx="-30074.98" cy="-3121.04" r="466.38"/>
  <circle class="fil0 str1" cx="-30075.74" cy="-2255.34" r="211.67"/>
  <rect class="fil0 str1" x="-35543.32" y="-3462.63" width="600" height="13313.07" rx="49.99" ry="114.66"/>
  <rect class="fil0 str1" x="-35404.41" y="-1620.52" width="327.42" height="2301.88" rx="600" ry="600"/>
  <rect class="fil0 str1" x="-35404.41" y="906.25" width="327.42" height="1223.72" rx="600" ry="318.97"/>
  <rect class="fil0 str1" x="-32413.65" y="-3462.63" width="600" height="13313.07" rx="49.99" ry="114.66"/>
  <rect class="fil0 str1" x="-32274.74" y="-1620.52" width="327.42" height="2301.88" rx="600" ry="600"/>
  <rect class="fil0 str1" x="-32274.74" y="906.25" width="327.42" height="1223.72" rx="600" ry="318.97"/>
  <rect class="fil0 str1" x="-23920.52" y="-3462.63" width="600" height="13313.07" rx="49.99" ry="114.66"/>
  <path class="fil0 str2" d="M-16078.2 6172.78l0 -6082.98c0,-220 180,-400 400,-400l13312.53 0c220,0 400,180 400,400l0 6082.98c0,220 -180,400 -400,400l-13312.53 0c-220,0 -400,-180 -400,-400z"/>
  <path class="fil0 str2" d="M-15803.39 5401.94c0,-257.58 208.8,-466.38 466.38,-466.38 257.58,0 466.38,208.8 466.38,466.38 0,257.58 -208.8,466.38 -466.38,466.38 -257.58,0 -466.38,-208.8 -466.38,-466.38z"/>
  <path class="fil0 str2" d="M-14682.98 5402.7c0,-116.9 94.77,-211.67 211.67,-211.67 116.9,0 211.67,94.77 211.67,211.67 0,116.9 -94.77,211.67 -211.67,211.67 -116.9,0 -211.67,-94.77 -211.67,-211.67z"/>
  <path class="fil0 str2" d="M-15678.58 7690.61l0 -500.01c0,-27.49 22.5,-50 49.98,-50l13213.11 0c27.48,0 49.98,22.51 49.98,50l0 500.01c0,27.48 -22.5,49.99 -49.98,49.99l-13213.11 0c-27.48,0 -49.98,-22.51 -49.98,-49.99z"/>
  <path class="fil0 str2" d="M-13836.49 7438l0 -0.02c0,-90.04 73.66,-163.7 163.7,-163.7l1974.48 0c90.04,0 163.7,73.66 163.7,163.7l0 0.02c0,90.04 -73.66,163.7 -163.7,163.7l-1974.48 0c-90.04,0 -163.7,-73.66 -163.7,-163.7z"/>
  <path class="fil0 str2" d="M-11309.72 7438l0 -0.02c0,-90.04 73.66,-163.7 163.7,-163.7l896.32 0c90.04,0 163.7,73.66 163.7,163.7l0 0.02c0,90.04 -73.66,163.7 -163.7,163.7l-896.32 0c-90.04,0 -163.7,-73.66 -163.7,-163.7z"/>
  <path class="fil0 str2" d="M-15678.58 -802.52l0 -500.01c0,-27.49 22.5,-50 49.98,-50l13213.11 0c27.48,0 49.98,22.51 49.98,50l0 500.01c0,27.48 -22.5,49.99 -49.98,49.99l-13213.11 0c-27.48,0 -49.98,-22.51 -49.98,-49.99z"/>
  <g id="_1497789125856">
   <path class="fil0 str2" d="M1001.37 655.67l2025.85 0c73.27,0 133.22,59.95 133.22,133.22l0 4433.57c0,73.26 -59.95,133.21 -133.22,133.21l-2025.85 0c-73.27,0 -133.22,-59.95 -133.22,-133.21l0 -4433.57c0,-73.27 59.95,-133.22 133.22,-133.22z"/>
   <path class="fil0 str2" d="M1258.08 747.19c85.79,0 155.33,69.54 155.33,155.33 0,85.78 -69.54,155.32 -155.33,155.32 -85.78,0 -155.32,-69.54 -155.32,-155.32 0,-85.79 69.54,-155.33 155.32,-155.33z"/>
   <path class="fil0 str2" d="M1257.83 1120.33c38.93,0 70.49,31.56 70.49,70.5 0,38.93 -31.56,70.49 -70.49,70.49 -38.93,0 -70.49,-31.56 -70.49,-70.49 0,-38.94 31.56,-70.5 70.49,-70.5z"/>
   <path class="fil0 str2" d="M495.87 788.76l166.52 0c9.16,0 16.66,7.49 16.66,16.65l0 4400.45c0,9.16 -7.5,16.65 -16.66,16.65l-166.52 0c-9.15,0 -16.65,-7.49 -16.65,-16.65l0 -4400.45c0,-9.16 7.5,-16.65 16.65,-16.65z"/>
   <path class="fil0 str2" d="M580 1402.24l0.01 0c29.98,0 54.52,24.54 54.52,54.52l0 657.58c0,29.99 -24.54,54.52 -54.52,54.52l-0.01 0c-29.99,0 -54.52,-24.53 -54.52,-54.52l0 -657.58c0,-29.98 24.53,-54.52 54.52,-54.52z"/>
   <path class="fil0 str2" d="M580 2243.75l0.01 0c29.98,0 54.52,24.54 54.52,54.52l0 298.51c0,29.99 -24.54,54.52 -54.52,54.52l-0.01 0c-29.99,0 -54.52,-24.53 -54.52,-54.52l0 -298.51c0,-29.98 24.53,-54.52 54.52,-54.52z"/>
   <path class="fil0 str2" d="M3324.4 788.76l166.52 0c9.16,0 16.65,7.49 16.65,16.65l0 4400.45c0,9.16 -7.49,16.65 -16.65,16.65l-166.52 0c-9.15,0 -16.65,-7.49 -16.65,-16.65l0 -4400.45c0,-9.16 7.5,-16.65 16.65,-16.65z"/>
  </g>
 </g>
</svg>
