<?xml version="1.0" encoding="UTF-8"?>
<!DOCTYPE svg PUBLIC "-//W3C//DTD SVG 1.1//EN" "http://www.w3.org/Graphics/SVG/1.1/DTD/svg11.dtd">
<!-- Creator: CorelDRAW X8 -->
<svg xmlns="http://www.w3.org/2000/svg" xml:space="preserve" width="40mm" height="60mm" version="1.1" style="shape-rendering:geometricPrecision; text-rendering:geometricPrecision; image-rendering:optimizeQuality; fill-rule:evenodd; clip-rule:evenodd"
viewBox="0 0 4000 6000"
 xmlns:xlink="http://www.w3.org/1999/xlink">
 <defs>
  <style type="text/css">
   <![CDATA[
    .str0 {stroke:black;stroke-width:20}
    .fil0 {fill:none}
   ]]>
  </style>
 </defs>
 <g id="图层_x0020_1">
  <metadata id="CorelCorpID_0Corel-Layer"/>
  <path class="fil0 str0" d="M938 5350l1954 0c125,0 227,-106 227,-235l0 -4230c0,-129 -102,-235 -227,-235l-1784 0c-125,0 -227,106 -227,235l0 4230c0,129 101,235 225,235l97 0m86 -4658c35,0 64,28 64,63 0,36 -29,64 -64,64 -35,0 -64,-28 -64,-64 0,-35 29,-63 64,-63zm576 4334l270 0c75,0 136,61 136,136l0 0c0,75 -61,136 -136,136l-270 0c-74,0 -136,-61 -136,-136l0 0c0,-75 62,-136 136,-136zm-16 -4320l295 0c24,0 43,19 43,43l0 0c0,23 -19,43 -43,43l-295 0c-23,0 -43,-20 -43,-43l0 0c0,-24 20,-43 43,-43z"/>
 </g>
</svg>
