<?xml version="1.0" encoding="UTF-8"?>
<!DOCTYPE svg PUBLIC "-//W3C//DTD SVG 1.1//EN" "http://www.w3.org/Graphics/SVG/1.1/DTD/svg11.dtd">
<!-- Creator: CorelDRAW X8 -->
<svg xmlns="http://www.w3.org/2000/svg" xml:space="preserve" width="40mm" height="60mm" version="1.1" style="shape-rendering:geometricPrecision; text-rendering:geometricPrecision; image-rendering:optimizeQuality; fill-rule:evenodd; clip-rule:evenodd"
viewBox="0 0 4000 6000"
 xmlns:xlink="http://www.w3.org/1999/xlink">
 <defs>
  <style type="text/css">
   <![CDATA[
    .str0 {stroke:#333333;stroke-width:18;stroke-linejoin:bevel}
    .fil0 {fill:none}
   ]]>
  </style>
 </defs>
 <g id="图层_x0020_1">
  <metadata id="CorelCorpID_0Corel-Layer"/>
  <path class="fil0 str0" d="M892 5350c322,0 1985,0 1985,0 128,0 234,-105 234,-234 0,0 0,-4232 0,-4232 0,-129 -106,-234 -234,-234 0,0 -821,0 -821,0 -38,0 -68,31 -68,68 0,0 0,1323 0,1323 0,122 -100,222 -222,222 0,0 -809,0 -809,0 -37,0 -68,30 -68,68 0,0 0,2785 0,2785 0,129 106,234 234,234 0,0 24,0 67,0"/>
 </g>
</svg>
