<?xml version="1.0" encoding="UTF-8"?>
<!DOCTYPE svg PUBLIC "-//W3C//DTD SVG 1.1//EN" "http://www.w3.org/Graphics/SVG/1.1/DTD/svg11.dtd">
<!-- Creator: CorelDRAW X8 -->
<svg xmlns="http://www.w3.org/2000/svg" xml:space="preserve" width="40mm" height="60mm" version="1.1" style="shape-rendering:geometricPrecision; text-rendering:geometricPrecision; image-rendering:optimizeQuality; fill-rule:evenodd; clip-rule:evenodd"
viewBox="0 0 4000 6000"
 xmlns:xlink="http://www.w3.org/1999/xlink">
 <defs>
  <style type="text/css">
   <![CDATA[
    .str0 {stroke:#222222;stroke-width:20}
    .fil0 {fill:none}
   ]]>
  </style>
 </defs>
 <g id="图层_x0020_1">
  <metadata id="CorelCorpID_0Corel-Layer"/>
  <path class="fil0 str0" d="M948 5161l1853 0c138,0 251,-113 251,-251l0 -4009c0,-138 -113,-251 -251,-251l-716 0 0 118c0,33 -25,60 -57,60l0 0c-32,0 -58,-27 -58,-60l0 -118 -712 0c-138,0 -251,113 -251,251l0 4009c0,138 113,251 251,251 138,0 262,78 262,189"/>
  <path class="fil0 str0" d="M-1442 7132l0 -6638c0,-495 -405,-900 -900,-900l-14365 0c-495,0 -900,405 -900,900l0 2563 424 0c119,0 216,92 216,206l0 0c0,113 -97,206 -216,206l-424 0 0 2552c0,495 405,900 900,900l14365 0c495,0 900,-405 900,-900 0,-495 281,-938 678,-938"/>
 </g>
</svg>
