<?xml version="1.0" encoding="UTF-8"?>
<!DOCTYPE svg PUBLIC "-//W3C//DTD SVG 1.1//EN" "http://www.w3.org/Graphics/SVG/1.1/DTD/svg11.dtd">
<!-- Creator: CorelDRAW 2020 (64-Bit) -->
<svg xmlns="http://www.w3.org/2000/svg" xml:space="preserve" width="40mm" height="60mm" version="1.1" style="shape-rendering:geometricPrecision; text-rendering:geometricPrecision; image-rendering:optimizeQuality; fill-rule:evenodd; clip-rule:evenodd"
viewBox="0 0 4000 6000"
 xmlns:xlink="http://www.w3.org/1999/xlink"
 xmlns:xodm="http://www.corel.com/coreldraw/odm/2003">
 <defs>
  <style type="text/css">
   <![CDATA[
    .str0 {stroke:black;stroke-width:7.62;stroke-miterlimit:22.9256}
    .fil0 {fill:none}
   ]]>
  </style>
 </defs>
 <g id="图层_x0020_1">
  <metadata id="CorelCorpID_0Corel-Layer"/>
  <path class="fil0 str0" d="M1611.99 773.38c-3.1,-11.57 -7.32,-20.07 -27.19,-20.07l-16.46 0c-22.94,0 -41.7,18.77 -41.7,41.7l0 0.01c0,22.94 18.76,41.7 41.7,41.7l83.41 0c22.94,0 41.7,-18.76 41.7,-41.7l0 -0.01c0,-22.93 -18.76,-41.7 -41.7,-41.7l-66.95 0m366.98 52.98c-5.11,-19.09 -15.54,-34.24 -62.47,-34.24l-40.15 0c-21.1,0 -38.36,17.26 -38.36,38.36l0 0.01c0,21.09 17.26,38.36 38.36,38.36l283.6 0c21.1,0 38.36,-17.26 38.36,-38.36l0 -0.01c0,-21.1 -17.27,-38.36 -38.36,-38.36l-243.45 0m498.68 15.8c3.87,-24.83 -17.02,-42.23 -27.38,-43.04 -36.85,0 -66.72,29.87 -66.72,66.73 0,36.86 29.87,66.73 66.72,66.73 36.86,0 66.73,-29.87 66.73,-66.73 0,-36.86 -29.87,-66.73 -66.73,-66.73m211.34 51.92c2.41,-15.52 -10.64,-26.39 -17.11,-26.89 -23.04,0 -41.71,18.67 -41.71,41.7 0,23.04 18.67,41.71 41.71,41.71 23.03,0 41.7,-18.67 41.7,-41.71 0,-23.03 -18.67,-41.7 -41.7,-41.7m-1644.99 4543.13l1972.4 -2.71c37.14,-0.05 65.36,-17.77 95.09,-40.04 55.69,-41.74 98.7,-86.23 137.29,-140.09 21.13,-29.49 38.14,-57.13 38.14,-93.41l0 -4116.33c0,-36.51 -14.92,-66.12 -38.62,-93.9 -40.28,-47.2 -83.88,-91.09 -129.96,-131.26 -27.88,-24.3 -57.85,-39.56 -94.84,-39.56l-1797.41 0c-37.3,0 -68.22,14.73 -95.47,40.2 -43.97,41.1 -85.6,82.34 -124.46,127.43 -23.64,27.42 -37.98,57.05 -37.98,93.25l0 4119.31c0,36.45 15.75,65.27 38.49,93.76 39.62,49.6 84.76,101.98 142.03,143.85 29.9,21.87 57.93,39.75 94.97,39.7l120.32 -0.2c118.62,-0.6 185.65,20.92 211.86,42.7"/>
 </g>
</svg>
