<?xml version="1.0" encoding="UTF-8"?>
<!DOCTYPE svg PUBLIC "-//W3C//DTD SVG 1.1//EN" "http://www.w3.org/Graphics/SVG/1.1/DTD/svg11.dtd">
<!-- Creator: CorelDRAW X8 -->
<svg xmlns="http://www.w3.org/2000/svg" xml:space="preserve" width="40mm" height="60mm" version="1.1" style="shape-rendering:geometricPrecision; text-rendering:geometricPrecision; image-rendering:optimizeQuality; fill-rule:evenodd; clip-rule:evenodd"
viewBox="0 0 4000 6000"
 xmlns:xlink="http://www.w3.org/1999/xlink">
 <defs>
  <style type="text/css">
   <![CDATA[
    .str0 {stroke:black;stroke-width:7.62}
    .fil0 {fill:none}
   ]]>
  </style>
 </defs>
 <g id="图层_x0020_1">
  <metadata id="CorelCorpID_0Corel-Layer"/>
  <path class="fil0 str0" d="M1033 5310l1795 0c135,0 246,-111 246,-246l0 -4168c0,-135 -111,-246 -246,-246l-250 0c-2,0 -3,0 -4,2l-5 5c-1,1 -2,1 -4,1l-1122 0c-1,0 -2,0 -3,-1l-5 -6c-1,-1 -2,-1 -3,-1l-260 0c-135,0 -246,111 -246,246l0 4168c0,135 111,246 246,246l60 0c37,0 66,24 81,40"/>
 </g>
</svg>
