<?xml version="1.0" encoding="utf-8"?>
<!-- Generator: Adobe Illustrator 16.0.0, SVG Export Plug-In . SVG Version: 6.00 Build 0)  -->
<!DOCTYPE svg PUBLIC "-//W3C//DTD SVG 1.1//EN" "http://www.w3.org/Graphics/SVG/1.1/DTD/svg11.dtd">
<svg version="1.1" id="图层_1" xmlns="http://www.w3.org/2000/svg" xmlns:xlink="http://www.w3.org/1999/xlink" x="0px" y="0px"
	 width="113.386px" height="170.079px" viewBox="0 0 113.386 170.079" enable-background="new 0 0 113.386 170.079"
	 xml:space="preserve">
<g>
	<path fill-rule="evenodd" clip-rule="evenodd" d="M27.571,85.047c0-20.355,0.002-40.711-0.006-61.066
		c-0.001-1.184,0.243-2.282,0.931-3.252c1.096-1.543,2.606-2.303,4.498-2.303c15.796,0,31.59,0,47.385,0c0.035,0,0.068,0,0.104,0
		c2.574,0.011,4.699,1.726,5.225,4.243c0.088,0.423,0.109,0.866,0.109,1.3c0.006,14.968,0.004,29.936,0.004,44.903
		c0,25.777,0.002,51.555,0,77.332c0,2.373-1.328,4.333-3.471,5.127c-0.666,0.247-1.354,0.322-2.063,0.322
		c-15.301-0.004-30.601-0.003-45.902-0.003c-0.506,0-1.012,0.002-1.517-0.001c-2.511-0.013-4.625-1.689-5.169-4.135
		c-0.108-0.487-0.124-1.003-0.124-1.505C27.57,125.688,27.571,105.368,27.571,85.047z M85.021,85.071c0-20.298,0-40.596,0-60.895
		c0-0.206,0-0.413-0.004-0.62c-0.014-0.751-0.211-1.455-0.604-2.093c-0.932-1.515-2.295-2.241-4.076-2.24
		c-15.762,0.006-31.522,0.003-47.282,0.004c-0.115,0-0.23,0-0.345,0.003c-0.938,0.02-1.784,0.313-2.527,0.877
		c-1.283,0.975-1.837,2.29-1.837,3.889c0.005,40.688,0.004,81.376,0.004,122.063c0,0.126-0.002,0.253,0.003,0.379
		c0.035,1.019,0.346,1.941,0.995,2.731c0.959,1.168,2.205,1.692,3.715,1.691c15.749-0.008,31.499-0.005,47.247-0.005
		c0.15,0,0.299-0.002,0.449-0.009c1.025-0.043,1.928-0.406,2.695-1.077c1.098-0.957,1.572-2.178,1.572-3.633
		C85.018,125.782,85.021,105.427,85.021,85.071z"/>
	<path fill-rule="evenodd" clip-rule="evenodd" d="M40.305,59.331c-5.16-0.002-9.345-4.199-9.342-9.37
		c0.002-5.168,4.189-9.348,9.36-9.345c5.167,0.004,9.353,4.196,9.347,9.363C49.666,55.144,45.469,59.334,40.305,59.331z
		 M31.756,49.957c-0.011,4.715,3.812,8.563,8.52,8.579c4.729,0.015,8.596-3.818,8.606-8.534c0.011-4.733-3.815-8.58-8.545-8.589
		C35.596,41.404,31.766,45.217,31.756,49.957z"/>
	<path fill-rule="evenodd" clip-rule="evenodd" d="M40.328,21.484c5.176,0.021,9.357,4.216,9.343,9.373
		c-0.014,5.217-4.223,9.366-9.472,9.34c-5.118-0.026-9.257-4.254-9.235-9.435C30.984,25.648,35.208,21.464,40.328,21.484z
		 M31.756,30.844c0.004,4.741,3.822,8.556,8.567,8.56c4.723,0.003,8.565-3.848,8.559-8.576c-0.007-4.703-3.859-8.552-8.559-8.55
		C35.589,22.28,31.752,26.117,31.756,30.844z"/>
	<path fill-rule="evenodd" clip-rule="evenodd" d="M51.349,43.382c-1.648,0.005-2.958-1.292-2.966-2.938
		c-0.007-1.638,1.307-2.968,2.94-2.978c1.623-0.009,2.964,1.32,2.976,2.951C54.311,42.045,52.986,43.377,51.349,43.382z
		 M53.503,40.468c0.017-1.196-0.942-2.188-2.13-2.203c-1.197-0.015-2.182,0.934-2.208,2.129c-0.026,1.177,0.941,2.179,2.134,2.207
		C52.477,42.629,53.487,41.651,53.503,40.468z"/>
</g>
</svg>
