<?xml version="1.0" encoding="UTF-8"?>
<!DOCTYPE svg PUBLIC "-//W3C//DTD SVG 1.1//EN" "http://www.w3.org/Graphics/SVG/1.1/DTD/svg11.dtd">
<!-- Creator: CorelDRAW X8 -->
<svg xmlns="http://www.w3.org/2000/svg" xml:space="preserve" width="40mm" height="60mm" version="1.1" style="shape-rendering:geometricPrecision; text-rendering:geometricPrecision; image-rendering:optimizeQuality; fill-rule:evenodd; clip-rule:evenodd"
viewBox="0 0 4000 6000"
 xmlns:xlink="http://www.w3.org/1999/xlink">
 <defs>
  <style type="text/css">
   <![CDATA[
    .str0 {stroke:#332C2B;stroke-width:10}
    .fil0 {fill:none;fill-rule:nonzero}
   ]]>
  </style>
 </defs>
 <g id="图层_x0020_1">
  <metadata id="CorelCorpID_0Corel-Layer"/>
  <g id="_2929716816304">
   <g>
    <line class="fil0 str0" x1="3105" y1="654" x2="3105" y2= "684" />
    <polyline class="fil0 str0" points="895,3002 895,3012 902,3010 906,3005 906,2998 902,2993 895,2991 896,881 "/>
    <path class="fil0 str0" d="M896 881c5,-111 100,-213 213,-226"/>
    <line class="fil0 str0" x1="1109" y1="655" x2="2848" y2= "650" />
    <path class="fil0 str0" d="M2848 650c85,4 154,35 201,92 29,35 54,96 56,135"/>
    <line class="fil0 str0" x1="3105" y1="877" x2="3104" y2= "5133" />
    <path class="fil0 str0" d="M3104 5133c-11,122 -120,217 -248,217"/>
    <polyline class="fil0 str0" points="2856,5350 1133,5348 1111,5349 "/>
    <path class="fil0 str0" d="M1111 5349c-55,0 -142,-54 -175,-109 -24,-39 -39,-83 -41,-115"/>
    <line class="fil0 str0" x1="895" y1="5125" x2="895" y2= "2961" />
    <line class="fil0 str0" x1="1748" y1="1036" x2="1749" y2= "1026" />
    <path class="fil0 str0" d="M1749 1026c5,0 8,3 10,9 68,-6 118,-60 118,-128 0,-71 -58,-129 -130,-129 -71,0 -129,58 -129,129 0,72 60,131 130,129 9,0 16,-1 37,-4"/>
    <path class="fil0 str0" d="M1455 1036c83,-10 130,-58 130,-131 0,-73 -58,-132 -131,-132 -73,0 -131,59 -131,131 0,75 57,131 131,131 10,0 11,0 38,-3"/>
    <line class="fil0 str0" x1="1199" y1="962" x2="1206" y2= "960" />
    <path class="fil0 str0" d="M1206 960c11,-2 14,-2 16,-3 3,-1 4,-2 8,-4"/>
    <line class="fil0 str0" x1="1230" y1="953" x2="1233" y2= "951" />
    <path class="fil0 str0" d="M1233 951c16,-11 26,-30 26,-49 0,-33 -27,-59 -60,-59 -32,0 -58,26 -58,59 0,33 25,59 57,59 5,0 10,-1 23,-3"/>
    <path class="fil0 str0" d="M2000 1866c48,-5 67,-11 93,-29 47,-31 75,-84 75,-139 0,-94 -76,-170 -169,-170 -93,0 -169,76 -169,169 0,93 74,168 166,168 11,0 24,-1 49,-3"/>
   </g>
  </g>
 </g>
</svg>
