<?xml version="1.0" encoding="UTF-8"?>
<!DOCTYPE svg PUBLIC "-//W3C//DTD SVG 1.1//EN" "http://www.w3.org/Graphics/SVG/1.1/DTD/svg11.dtd">
<!-- Creator: CorelDRAW X8 -->
<svg xmlns="http://www.w3.org/2000/svg" xml:space="preserve" width="40mm" height="60mm" version="1.1" style="shape-rendering:geometricPrecision; text-rendering:geometricPrecision; image-rendering:optimizeQuality; fill-rule:evenodd; clip-rule:evenodd"
viewBox="0 0 4000 6000"
 xmlns:xlink="http://www.w3.org/1999/xlink">
 <defs>
  <style type="text/css">
   <![CDATA[
    .str0 {stroke:black;stroke-width:7.62}
    .fil0 {fill:none}
   ]]>
  </style>
 </defs>
 <g id="图层_x0020_1">
  <metadata id="CorelCorpID_0Corel-Layer"/>
  <path class="fil0 str0" d="M1020 5350l1791 0c123,0 225,-101 225,-225l0 -4250c0,-124 -102,-225 -225,-225l-546 0c-2,0 -75,0 -136,0 -36,0 -48,11 -48,37l0 34c0,47 -38,85 -84,85l0 0c-47,0 -85,-38 -85,-85l0 -29c0,-29 -21,-42 -41,-42 -43,0 -124,0 -127,0l-555 0c-123,0 -225,101 -225,225l0 4250c0,124 102,225 225,225l225 0"/>
 </g>
</svg>
