<?xml version="1.0" encoding="UTF-8"?>
<!DOCTYPE svg PUBLIC "-//W3C//DTD SVG 1.1//EN" "http://www.w3.org/Graphics/SVG/1.1/DTD/svg11.dtd">
<!-- Creator: CorelDRAW X8 -->
<svg xmlns="http://www.w3.org/2000/svg" xml:space="preserve" width="40mm" height="60mm" version="1.1" style="shape-rendering:geometricPrecision; text-rendering:geometricPrecision; image-rendering:optimizeQuality; fill-rule:evenodd; clip-rule:evenodd"
viewBox="0 0 4000 6000"
 xmlns:xlink="http://www.w3.org/1999/xlink">
 <defs>
  <style type="text/css">
   <![CDATA[
    .str0 {stroke:black;stroke-width:18;stroke-linejoin:bevel}
    .fil0 {fill:none}
   ]]>
  </style>
 </defs>
 <g id="图层_x0020_1">
  <metadata id="CorelCorpID_0Corel-Layer"/>
  <path class="fil0 str0" d="M2125 2620c2,9 1,17 0,26 -4,33 -21,58 -43,81 -10,10 -22,17 -35,23 -9,5 -20,7 -30,9 -7,1 -15,0 -15,0 0,0 0,-2 0,-2 -1,-30 9,-54 24,-77 20,-30 48,-48 82,-57 5,-2 11,-2 17,-3zm106 203c-45,29 -69,69 -65,123 4,55 34,90 81,114 -8,21 -17,43 -28,63 -15,24 -30,46 -50,66 -11,13 -25,22 -41,26 -13,4 -26,3 -39,-1 -12,-3 -23,-7 -34,-12 -31,-11 -61,-10 -91,2 -12,5 -25,10 -39,13 -4,0 -8,2 -12,2 -13,0 -26,-5 -37,-12 -13,-8 -24,-19 -34,-31 -23,-28 -43,-59 -57,-93 -13,-30 -23,-61 -28,-93 -4,-29 -5,-58 0,-88 8,-45 29,-83 66,-110 24,-18 51,-26 81,-27 12,0 23,2 34,6 16,5 32,11 48,16 2,1 5,2 7,2 7,3 15,3 22,0 16,-5 31,-11 46,-16 19,-6 37,-11 57,-9 34,2 66,12 92,35 8,7 15,15 21,24zm-1040 2527l1618 0c172,0 313,-141 313,-313l0 -4074c0,-172 -141,-313 -313,-313l-1618 0c-172,0 -313,141 -313,313l0 4074c0,172 141,313 313,313zm59 -4657l492 0c170,0 309,139 309,309l0 541c0,170 -139,306 -309,306l-498 0c-170,0 -310,-136 -310,-306l0 -535c0,-170 145,-315 316,-315zm3 34l487 0c152,0 276,124 276,276l0 534c0,152 -124,277 -276,277l-487 0c-152,0 -276,-125 -276,-277l0 -534c0,-152 124,-276 276,-276zm-66 280c-107,-107 -77,-243 58,-243 134,0 243,109 243,243 0,134 -109,243 -243,243 -135,0 -243,-109 -243,-243 0,-134 108,-243 243,-243m-58 778c-107,-107 -77,-243 58,-243 134,0 243,109 243,243 0,134 -109,243 -243,243 -135,0 -243,-109 -243,-243 0,-134 108,-243 243,-243m437 -24c-107,-106 -77,-242 57,-242 135,0 243,108 243,242 0,135 -108,243 -243,243 -134,0 -243,-108 -243,-243 0,-134 109,-242 243,-242m-20 631c-43,-43 -31,-97 22,-97 54,0 97,43 97,97 0,53 -43,96 -97,96 -53,0 -96,-43 -96,-96 0,-54 43,-97 96,-97m158 7c-14,-15 -10,-33 8,-33 19,0 34,15 34,33 0,19 -15,33 -34,33 -18,0 -33,-14 -33,-33 0,-18 15,-33 33,-33m-191 -649c-43,-43 -31,-98 23,-98 55,0 99,44 99,98 0,54 -44,98 -99,98 -54,0 -98,-44 -98,-98 0,-54 44,-98 98,-98"/>
 </g>
</svg>
