<?xml version="1.0" encoding="UTF-8"?>
<!DOCTYPE svg PUBLIC "-//W3C//DTD SVG 1.1//EN" "http://www.w3.org/Graphics/SVG/1.1/DTD/svg11.dtd">
<!-- Creator: CorelDRAW 2020 (64-Bit) -->
<svg xmlns="http://www.w3.org/2000/svg" xml:space="preserve" width="40mm" height="60mm" version="1.1" style="shape-rendering:geometricPrecision; text-rendering:geometricPrecision; image-rendering:optimizeQuality; fill-rule:evenodd; clip-rule:evenodd"
viewBox="0 0 4000 6000"
 xmlns:xlink="http://www.w3.org/1999/xlink"
 xmlns:xodm="http://www.corel.com/coreldraw/odm/2003">
 <defs>
  <style type="text/css">
   <![CDATA[
    .str1 {stroke:#332C2B;stroke-width:20;stroke-miterlimit:22.9256}
    .str2 {stroke:#332C2B;stroke-width:20;stroke-miterlimit:22.9256}
    .str0 {stroke:#E62129;stroke-width:20;stroke-miterlimit:22.9256}
    .fil0 {fill:none}
   ]]>
  </style>
   <clipPath id="id0">
    <rect x="-50434.37" y="-4897.9" width="16971.67" height="17271.52"/>
   </clipPath>
 </defs>
 <g id="图层_x0020_1">
  <metadata id="CorelCorpID_0Corel-Layer"/>
  <g style="clip-path:url(#id0)">
   <image x="-50434.37" y="-4897.9" width="16971.67" height="17271.52" xlink:href="Hot 11 2022 -11i（前膜带壳）_Images\Hot 11 2022 -11i（前膜带壳）_ImgID1.png"/>
  </g>
  <rect class="fil0 str0" x="-41500.02" y="-4538.5" width="7660" height="16680"/>
  <path class="fil0 str0" d="M-40417.52 -4355.36l1477.46 0c72.48,0 164.79,121.17 232.14,121.17l2071.69 0c67.35,0 143.79,-121.17 238.09,-121.17l1475.62 0c495,0 900,405.03 900,900l0 14517.78c0,495 -405,899.99 -900,899.99l-5495 0c-495,0 -900,-404.99 -900,-899.99l0 -14517.78c0,-494.99 405,-900 900,-900z"/>
  <circle class="fil0 str1" cx="-37662.12" cy="-3642.75" r="168.02"/>
  <path class="fil0 str2" d="M-4253.22 6208.6l0 -5869.47c0,-488.2 -402.51,-887.66 -894.47,-887.66l-14428.84 0c-491.94,0 -894.48,399.45 -894.48,887.66l0 1455.39c0,93.01 120.42,168.4 120.42,234.83l0 2043.29c0,66.43 -120.42,157.47 -120.42,228.96l0 1457.21c0,488.21 402.52,887.66 894.48,887.66l14428.84 0c491.97,0 894.47,-399.45 894.47,-887.66 0,-488.21 33.4,-682.58 99.55,-806.94"/>
  <path class="fil0 str2" d="M-19976.41 3041.07c0,92.8 75.22,168.02 168.02,168.02 92.8,0 168.02,-75.22 168.02,-168.02 0,-92.8 -75.22,-168.02 -168.02,-168.02 -92.8,0 -168.02,75.22 -168.02,168.02 0,92.8 117.75,120.99 134.28,119.67"/>
  <g id="_1281014218800">
   <path class="fil0 str2" d="M1064.99 5324.2l1714.81 0c141.77,0 257.77,-116 257.77,-257.77l0 -4158.13c0,-141.76 -116,-257.77 -257.77,-257.77l-422.64 0c-27.01,0 -48.91,34.7 -68.2,34.7l-593.36 0c-19.29,0 -45.73,-34.7 -66.49,-34.7l-423.17 0c-141.77,0 -257.77,116 -257.77,257.77l0 4158.13c0,141.77 116,257.77 257.77,257.77 141.78,0 165.36,11.18 192.27,26.33"/>
   <path class="fil0 str2" d="M1995.13 806.51c-26.58,0 -48.12,21.54 -48.12,48.12 0,26.58 21.54,48.13 48.12,48.13 26.58,0 48.13,-21.55 48.13,-48.13 0,-26.58 -21.55,-48.12 -48.13,-48.12 -26.58,0 -34.65,33.72 -34.27,38.46"/>
  </g>
 </g>
</svg>
