<?xml version="1.0" encoding="UTF-8"?>
<!DOCTYPE svg PUBLIC "-//W3C//DTD SVG 1.1//EN" "http://www.w3.org/Graphics/SVG/1.1/DTD/svg11.dtd">
<!-- Creator: CorelDRAW X8 -->
<svg xmlns="http://www.w3.org/2000/svg" xml:space="preserve" width="40mm" height="60mm" version="1.1" style="shape-rendering:geometricPrecision; text-rendering:geometricPrecision; image-rendering:optimizeQuality; fill-rule:evenodd; clip-rule:evenodd"
viewBox="0 0 4000 6000"
 xmlns:xlink="http://www.w3.org/1999/xlink">
 <defs>
  <style type="text/css">
   <![CDATA[
    .str0 {stroke:black;stroke-width:7.62}
    .fil0 {fill:none}
   ]]>
  </style>
 </defs>
 <g id="图层_x0020_1">
  <metadata id="CorelCorpID_0Corel-Layer"/>
  <path class="fil0 str0" d="M1966 797c-6,-20 -17,-36 -68,-36l-43 0c-23,0 -41,18 -41,41l0 0c0,23 18,41 41,41l303 0c23,0 41,-18 41,-41l0 0c0,-23 -18,-41 -41,-41l-260 0m-182 -3c0,-4 -4,-8 -11,-9 -28,0 -50,22 -50,50 0,27 22,49 50,49 27,0 49,-22 49,-49 0,-28 -22,-50 -49,-50m-246 -2c0,-5 -5,-10 -15,-11 -34,0 -63,28 -63,63 0,35 29,63 63,63 35,0 63,-28 63,-63 0,-35 -28,-63 -63,-63m-490 4578l2016 0c76,0 138,-62 138,-138l0 -4388c0,-76 -62,-138 -138,-138l-1940 0c-76,0 -138,62 -138,138l0 4388c0,76 62,138 138,138l37 0c23,0 50,20 65,36"/>
 </g>
</svg>
