<?xml version="1.0" encoding="UTF-8"?>
<!DOCTYPE svg PUBLIC "-//W3C//DTD SVG 1.1//EN" "http://www.w3.org/Graphics/SVG/1.1/DTD/svg11.dtd">
<!-- Creator: CorelDRAW X8 -->
<svg xmlns="http://www.w3.org/2000/svg" xml:space="preserve" width="40mm" height="60mm" version="1.1" style="shape-rendering:geometricPrecision; text-rendering:geometricPrecision; image-rendering:optimizeQuality; fill-rule:evenodd; clip-rule:evenodd"
viewBox="0 0 4000 6000"
 xmlns:xlink="http://www.w3.org/1999/xlink">
 <defs>
  <style type="text/css">
   <![CDATA[
    .str0 {stroke:black;stroke-width:7.62}
    .fil0 {fill:none}
   ]]>
  </style>
 </defs>
 <g id="图层_x0020_1">
  <metadata id="CorelCorpID_0Corel-Layer"/>
  <path class="fil0 str0" d="M1695 951c-1,-12 -11,-23 -33,-25 -76,0 -138,62 -138,138 0,77 62,139 138,139 77,0 139,-62 139,-139 0,-76 -62,-138 -139,-138m-262 25c-1,-12 -11,-23 -33,-25 -76,0 -138,62 -138,138 0,77 62,139 138,139 76,0 138,-62 138,-139 0,-76 -62,-138 -138,-138m33 350c-1,-12 -11,-23 -33,-25 -76,0 -138,62 -138,138 0,77 62,139 138,139 76,0 138,-62 138,-139 0,-76 -62,-138 -138,-138m331 25c-1,-12 -11,-23 -33,-25 -76,0 -138,62 -138,138 0,77 62,139 138,139 77,0 138,-62 138,-139 0,-76 -61,-138 -138,-138m-295 387c-4,-14 -9,-25 -35,-25l-21 0c-29,0 -54,24 -54,53l0 0c0,30 25,54 54,54l108 0c29,0 54,-24 54,-54l0 0c0,-29 -25,-53 -54,-53l-87 0m24 -711l310 0c84,0 153,69 153,153l0 578c0,84 -69,153 -153,153l-310 0c-84,0 -153,-69 -153,-153l0 -578c0,-84 69,-153 153,-153zm-17 -36l337 0c96,0 175,79 175,175l0 611c0,97 -79,175 -175,175l-337 0c-96,0 -175,-78 -175,-175l0 -611c0,-96 79,-175 175,-175zm12 4484c-16,-37 -72,-52 -96,-52 -204,0 -371,-167 -371,-371l0 -4 -109 0c-8,0 -14,-7 -14,-15l0 -2057c0,-16 6,-21 21,-21l65 0c11,0 20,-9 20,-20l0 -252c0,-11 -9,-21 -20,-21l-74 0c-9,0 -12,-2 -12,-12l0 -140c0,-10 4,-11 11,-11l75 0c11,0 20,-9 20,-20l0 -572c0,-11 -9,-20 -20,-20l-73 0c-10,0 -13,-4 -13,-13l0 -709c0,-8 6,-15 14,-15l109 0 0 -4c0,-204 167,-371 371,-371l1484 0c204,0 371,167 371,371l0 4 109 0c8,0 14,7 14,15l0 3868c0,8 -6,15 -14,15l-109 0 0 4c0,204 -167,371 -371,371l-1782 0"/>
 </g>
</svg>
