<?xml version="1.0" encoding="UTF-8"?>
<!DOCTYPE svg PUBLIC "-//W3C//DTD SVG 1.1//EN" "http://www.w3.org/Graphics/SVG/1.1/DTD/svg11.dtd">
<!-- Creator: CorelDRAW 2020 (64-Bit) -->
<svg xmlns="http://www.w3.org/2000/svg" xml:space="preserve" width="40mm" height="60mm" version="1.1" style="shape-rendering:geometricPrecision; text-rendering:geometricPrecision; image-rendering:optimizeQuality; fill-rule:evenodd; clip-rule:evenodd"
viewBox="0 0 4000 6000"
 xmlns:xlink="http://www.w3.org/1999/xlink"
 xmlns:xodm="http://www.corel.com/coreldraw/odm/2003">
 <defs>
  <style type="text/css">
   <![CDATA[
    .str1 {stroke:#332C2B;stroke-width:7.62;stroke-miterlimit:22.9256}
    .str0 {stroke:#222222;stroke-width:7.62;stroke-miterlimit:22.9256}
    .fil0 {fill:none}
   ]]>
  </style>
 </defs>
 <g id="图层_x0020_1">
  <metadata id="CorelCorpID_0Corel-Layer"/>
  <path class="fil0 str0" d="M-18110.89 7871.15l0 -263.17c385.07,0 700.33,-314.87 700.33,-699.97l0 -5986.37c0,-385.22 -315.17,-700.02 -700.33,-700.02l0 -245.92c0,-55 -44.99,-100.01 -99.97,-100.01l-14313.82 0c-54.97,0 -99.99,45 -99.97,100.01l0.07 245.94 -2.71 0c-385,0 -700,315.01 -700,700l0 5986.37c0,384.99 317.64,699.94 702.64,699.94l0 200.36c0,55 44.98,100 99.97,100l14313.82 0c54.99,0 99.97,-45 99.97,-100 0,-55 8.81,-97.87 25.02,-114.41"/>
  <path class="fil0 str1" d="M-30754.37 74.06c0,68.75 56.24,124.99 124.99,124.99l1856.11 0c68.75,0 124.99,-56.24 124.99,-124.99l0 -0.02c0,-68.75 -56.24,-124.99 -124.99,-124.99l-1856.11 0c-68.77,0 -124.99,56.25 -124.99,125.01 0,68.76 91.24,97.18 127.62,95.19"/>
  <path class="fil0 str1" d="M-27949.2 74.06c0,68.75 56.24,124.99 124.99,124.99l877.13 0c68.75,0 124.99,-56.24 124.99,-124.99l0 -0.02c0,-68.75 -56.24,-124.99 -124.99,-124.99l-877.13 0c-68.77,0 -124.99,56.25 -124.99,125.01 0,68.76 80.77,96.17 111.52,93.52"/>
  <path class="fil0 str1" d="M-33176.73 4296.82c0,53.84 44.05,97.89 97.89,97.89l0.01 0c53.84,0 97.89,-44.05 97.89,-97.89l0 -784.53c0,-53.84 -44.05,-97.89 -97.89,-97.89l-0.01 0c-53.84,0 -97.89,44.05 -97.89,97.89l0 784.53c0,0 5.6,-170.37 40,-217.67"/>
  <path class="fil0 str1" d="M-33209.62 5283.34c0,80.37 65.15,145.52 145.52,145.52 80.37,0 145.52,-65.15 145.52,-145.52 0,-80.37 -65.15,-145.52 -145.52,-145.52 -80.37,0 -145.52,65.15 -145.52,145.52 0,80.37 106.33,110.7 151.53,106.84"/>
  <path class="fil0 str1" d="M-33209.62 2517.39c0,80.37 65.15,145.52 145.52,145.52 80.37,0 145.52,-65.15 145.52,-145.52 0,-80.37 -65.15,-145.52 -145.52,-145.52 -80.37,0 -145.52,65.15 -145.52,145.52 0,80.37 116.52,102.13 159.79,89.17"/>
  <g id="_1945766768416">
   <path class="fil0 str0" d="M818.41 5148.87l77.71 0c0,113.71 92.98,206.8 206.69,206.8l1767.7 0c113.75,0 206.71,-93.06 206.71,-206.8l72.61 0c16.24,0 29.54,-13.28 29.54,-29.52l0 -4226.68c0,-16.23 -13.29,-29.52 -29.54,-29.52l-72.62 0.02 0 -0.8c0,-113.68 -93.02,-206.7 -206.7,-206.7l-1767.7 0c-113.68,0 -206.68,93.8 -206.68,207.48l-59.17 0c-16.24,0 -29.53,13.28 -29.53,29.52l0 4226.68c0,16.24 13.29,29.52 29.53,29.52 16.24,0 28.9,2.6 33.79,7.39"/>
   <path class="fil0 str1" d="M3120.79 1415.42c-20.3,0 -36.91,16.61 -36.91,36.91l0 548.08c0,20.3 16.61,36.91 36.91,36.91l0 0c20.31,0 36.91,-16.61 36.91,-36.91l0 -548.08c0,-20.31 -16.61,-36.91 -36.91,-36.91 -20.31,0 -28.7,26.94 -28.11,37.69"/>
   <path class="fil0 str1" d="M3120.79 2243.75c-20.3,0 -36.91,16.61 -36.91,36.91l0 259c0,20.3 16.61,36.91 36.91,36.91l0 0c20.31,0 36.91,-16.61 36.91,-36.91l0 -259c0,-20.31 -16.61,-36.91 -36.91,-36.91 -20.31,0 -28.4,23.85 -27.62,32.93"/>
   <path class="fil0 str1" d="M1873.86 700.13c-15.9,0 -28.9,13.01 -28.9,28.91l0 0c0,15.9 13,28.9 28.9,28.9l231.66 0c15.9,0 28.91,-13 28.91,-28.9l0 0c0,-15.9 -13.01,-28.91 -28.91,-28.91l-231.66 0c0,0 50.31,1.65 64.28,11.81"/>
   <path class="fil0 str1" d="M1582.56 690.42c-23.74,0 -42.98,19.24 -42.98,42.97 0,23.73 19.24,42.97 42.98,42.97 23.73,0 42.97,-19.24 42.97,-42.97 0,-23.73 -19.24,-42.97 -42.97,-42.97 -23.74,0 -32.69,31.4 -31.55,44.74"/>
   <path class="fil0 str1" d="M2399.3 690.42c-23.73,0 -42.97,19.24 -42.97,42.97 0,23.73 19.24,42.97 42.97,42.97 23.74,0 42.97,-19.24 42.97,-42.97 0,-23.73 -19.23,-42.97 -42.97,-42.97 -23.73,0 -30.15,34.4 -26.33,47.18"/>
  </g>
 </g>
</svg>
