<?xml version="1.0" encoding="UTF-8"?>
<!DOCTYPE svg PUBLIC "-//W3C//DTD SVG 1.1//EN" "http://www.w3.org/Graphics/SVG/1.1/DTD/svg11.dtd">
<!-- Creator: CorelDRAW -->
<svg xmlns="http://www.w3.org/2000/svg" xml:space="preserve" width="40mm" height="60mm" style="shape-rendering:geometricPrecision; text-rendering:geometricPrecision; image-rendering:optimizeQuality; fill-rule:evenodd; clip-rule:evenodd"
viewBox="0 0 40 60"
 xmlns:xlink="http://www.w3.org/1999/xlink">
 <defs>
  <style type="text/css">
   <![CDATA[
    .str0 {stroke:#1F1A17;stroke-width:0.194}
    .fil0 {fill:none;fill-rule:nonzero}
   ]]>
  </style>
 </defs>
 <g id="图层_x0020_1">
  <metadata id="CorelCorpID_0Corel-Layer"/>
  <g id="_274595368">
   <line id="_274598440" class="fil0 str0" x1="20.0895" y1="8.0649" x2="20.0895" y2= "8.1809" />
   <path id="_274597888" class="fil0 str0" d="M20.0895 8.1809c0.0451,0 0.1052,-0.0559 0.127,-0.116"/>
   <line id="_273761328" class="fil0 str0" x1="20.2165" y1="8.0649" x2="21.9657" y2= "8.0526" />
   <path id="_47434696" class="fil0 str0" d="M21.9657 8.0526c0.4753,-0.0027 0.6896,0.0177 0.8194,0.0765 0.1296,0.0587 0.1761,0.157 0.1774,0.3741"/>
   <line id="_275025312" class="fil0 str0" x1="22.9625" y1="8.5032" x2="22.9625" y2= "8.5483" />
   <path id="_275024208" class="fil0 str0" d="M22.9625 8.5483c0,0.1352 -0.0082,0.1789 -0.0464,0.2225 -0.0478,0.0574 -0.1474,0.0915 -0.3263,0.1148 -0.3168,0.0409 -0.7224,0.0478 -2.6259,0.0478"/>
   <line id="_275026800" class="fil0 str0" x1="19.9639" y1="8.9334" x2="19.6225" y2= "8.9334" />
   <path id="_275003856" class="fil0 str0" d="M19.6225 8.9334c-1.3628,0 -1.8366,-0.0137 -2.0811,-0.0588 -0.243,-0.045 -0.3154,-0.1324 -0.3154,-0.3851 0,-0.2881 0.1461,-0.4096 0.5121,-0.4274"/>
   <line id="_275024136" class="fil0 str0" x1="17.7381" y1="8.0621" x2="20.4582" y2= "8.0649" />
   <polyline id="_273774120" class="fil0 str0" points="14.3229,6.5546 14.4485,6.5546 14.439,6.5451 19.8382,6.5027 "/>
   <path id="_274596400" class="fil0 str0" d="M19.8382 6.5027c1.7506,-0.0137 3.3893,0.0219 7.7658,0.1707 3.0465,0.1038 4.2385,1.4502 4.2331,4.7834"/>
   <line id="_47437312" class="fil0 str0" x1="31.8371" y1="11.4568" x2="31.7702" y2= "47.8768" />
   <path id="_275006040" class="fil0 str0" d="M31.7702 47.8768c0,0.0027 0,0.0055 0,0.0082 0,1.7724 -0.8794,3.3919 -2.3187,4.2686 -1.8202,1.1075 -4.001,1.3464 -12.2815,1.3464 -4.4257,0 -6.7443,-0.5954 -8.0566,-2.0687 -0.7032,-0.7893 -0.9558,-1.58 -0.9504,-2.9591"/>
   <line id="_275018088" class="fil0 str0" x1="8.163" y1="48.4722" x2="8.2982" y2= "18.7966" />
   <path id="_273758472" class="fil0 str0" d="M8.2982 18.7966c0.0328,-7.3329 0.0437,-7.9761 0.1447,-8.6357 0.3906,-2.5248 1.453,-3.4629 4.0215,-3.5503"/>
   <line id="_273760032" class="fil0 str0" x1="12.4644" y1="6.6106" x2="14.6711" y2= "6.5355" />
  </g>
 </g>
</svg>
