<?xml version="1.0" encoding="UTF-8"?>
<!DOCTYPE svg PUBLIC "-//W3C//DTD SVG 1.1//EN" "http://www.w3.org/Graphics/SVG/1.1/DTD/svg11.dtd">
<!-- Creator: CorelDRAW 2020 (64-Bit) -->
<svg xmlns="http://www.w3.org/2000/svg" xml:space="preserve" width="40mm" height="60mm" version="1.1" style="shape-rendering:geometricPrecision; text-rendering:geometricPrecision; image-rendering:optimizeQuality; fill-rule:evenodd; clip-rule:evenodd"
viewBox="0 0 4000 6000"
 xmlns:xlink="http://www.w3.org/1999/xlink"
 xmlns:xodm="http://www.corel.com/coreldraw/odm/2003">
 <defs>
  <style type="text/css">
   <![CDATA[
    .str0 {stroke:#222222;stroke-width:7.62;stroke-miterlimit:22.9256}
    .fil0 {fill:none}
   ]]>
  </style>
 </defs>
 <g id="图层_x0020_1">
  <metadata id="CorelCorpID_0Corel-Layer"/>
  <path class="fil0 str0" d="M-2686.03 7519.29l0 -390.95c456.7,-12.6 826.31,-390.08 826.31,-849.68l0 -5994.09c0,-459.56 -369.66,-836.91 -826.31,-849.57l0 -293.25c0,-55 -44.98,-100 -100,-100l-13956.29 0c-55.02,0 -100,45 -100,100l0 293.06c-460.31,8.47 -834.23,387.52 -834.23,849.76l0 5994.09c0,462.24 373.93,841.46 834.23,849.94l0 296.43c0,55 44.98,100 100,100l1439.63 0c77.67,0 89.57,-24.45 89.57,-66.54l0 -213.66c0,-27.49 22.5,-50 50,-50l2168.75 0c27.5,0 50,22.5 50,50l0 214.66c0,35.44 20.49,65.54 75.35,65.54l479.59 0c62.46,0 85.94,-29.79 85.94,-70.5l0 -209.7c0,-27.49 22.5,-50 50,-50l956.18 0c27.5,0 50,22.5 50,50l0 196.13c0,50.32 45.48,84.07 81.64,84.07l8379.64 0c55.02,0 100,-45.01 100,-100 0,-54.99 8.71,-126.72 44.54,-171.92"/>
  <path class="fil0 str0" d="M-16939.98 3283.26c0,-1394.03 1130.09,-2524.12 2524.12,-2524.12 1394.03,0 2524.12,1130.09 2524.12,2524.12 0,1394.03 -1130.09,2524.12 -2524.12,2524.12 -1394.03,0 -2524.12,-1130.09 -2524.12,-2524.12z"/>
  <g id="_2672472985600">
   <path class="fil0 str0" d="M734.17 5104.99l116.17 0c3.74,135.71 115.91,245.54 252.48,245.54l1781.15 0c136.56,0 248.69,-109.84 252.46,-245.54l87.13 0c16.35,0 29.72,-13.36 29.72,-29.71l0 -4147.14c0,-16.35 -13.37,-29.72 -29.72,-29.72l-87.08 0c-2.52,-136.78 -115.15,-247.89 -252.51,-247.89l-1781.15 0c-137.35,0 -250.04,111.12 -252.56,247.89l-88.08 0c-16.35,0 -29.72,13.37 -29.72,29.72l0 427.79c0,23.08 7.27,26.61 19.77,26.61l63.49 0c8.17,0 14.86,6.69 14.86,14.86l0 644.45c0,8.17 -6.69,14.86 -14.86,14.86l-63.78 0c-10.54,0 -19.48,6.09 -19.48,22.39l0 142.51c0,18.56 8.85,25.54 20.95,25.54l62.31 0c8.17,0 14.86,6.68 14.86,14.85l0 284.13c0,8.18 -6.69,14.86 -14.86,14.86l-58.28 0c-14.95,0 -24.98,13.52 -24.98,24.26l0 2490.03c0,16.35 13.37,29.71 29.72,29.71 16.34,0 37.65,2.59 51.08,13.24"/>
   <path class="fil0 str0" d="M1992.91 869.4c414.24,0 750.04,335.81 750.04,750.05 0,414.24 -335.8,750.05 -750.04,750.05 -414.24,0 -750.05,-335.81 -750.05,-750.05 0,-414.24 335.81,-750.05 750.05,-750.05z"/>
  </g>
 </g>
</svg>
