<?xml version="1.0" encoding="UTF-8"?>
<!DOCTYPE svg PUBLIC "-//W3C//DTD SVG 1.1//EN" "http://www.w3.org/Graphics/SVG/1.1/DTD/svg11.dtd">
<!-- Creator: CorelDRAW X8 -->
<svg xmlns="http://www.w3.org/2000/svg" xml:space="preserve" width="40mm" height="60mm" version="1.1" style="shape-rendering:geometricPrecision; text-rendering:geometricPrecision; image-rendering:optimizeQuality; fill-rule:evenodd; clip-rule:evenodd"
viewBox="0 0 4000 6000"
 xmlns:xlink="http://www.w3.org/1999/xlink">
 <defs>
  <style type="text/css">
   <![CDATA[
    .str0 {stroke:#332C2B;stroke-width:7.62}
    .fil0 {fill:none}
   ]]>
  </style>
 </defs>
 <g id="图层_x0020_1">
  <metadata id="CorelCorpID_0Corel-Layer"/>
  <path class="fil0 str0" d="M925 5231l1881 0c148,0 269,-121 269,-269l0 -4043c0,-148 -121,-269 -269,-269l-1561 0c-148,0 -270,121 -270,269l0 4043c0,148 122,269 270,269 148,0 270,64 270,119m-137 -4161c91,-157 -2,-388 -103,-388 -101,0 -184,83 -184,184l0 711c0,101 83,184 184,184l253 0c101,0 184,-83 184,-184l0 -711c0,-101 -83,-184 -184,-184l-253 0"/>
 </g>
</svg>
