<?xml version="1.0" encoding="UTF-8"?>
<!DOCTYPE svg PUBLIC "-//W3C//DTD SVG 1.1//EN" "http://www.w3.org/Graphics/SVG/1.1/DTD/svg11.dtd">
<!-- Creator: CorelDRAW X8 -->
<svg xmlns="http://www.w3.org/2000/svg" xml:space="preserve" width="40mm" height="60mm" version="1.1" style="shape-rendering:geometricPrecision; text-rendering:geometricPrecision; image-rendering:optimizeQuality; fill-rule:evenodd; clip-rule:evenodd"
viewBox="0 0 4000 6000"
 xmlns:xlink="http://www.w3.org/1999/xlink">
 <defs>
  <style type="text/css">
   <![CDATA[
    .str0 {stroke:black;stroke-width:7.62}
    .fil0 {fill:none}
   ]]>
  </style>
 </defs>
 <g id="图层_x0020_1">
  <metadata id="CorelCorpID_0Corel-Layer"/>
  <path class="fil0 str0" d="M894 5350l2002 0c158,0 288,-129 288,-287l0 -4126c0,-158 -130,-287 -288,-287l-1792 0c-158,0 -288,129 -288,287l0 4126c0,158 130,287 288,287l78 0m487 -4589c0,-5 -4,-9 -13,-10 -30,0 -55,25 -55,55 0,31 25,56 55,56 31,0 55,-25 55,-56 0,-30 -24,-55 -55,-55m319 46c-5,-20 -16,-35 -65,-35l-41 0c-22,0 -40,18 -40,40l0 0c0,21 18,39 40,39l287 0c21,0 39,-18 39,-39l0 0c0,-22 -18,-40 -39,-40l-246 0"/>
 </g>
</svg>
