<?xml version="1.0" encoding="UTF-8"?>
<!DOCTYPE svg PUBLIC "-//W3C//DTD SVG 1.1//EN" "http://www.w3.org/Graphics/SVG/1.1/DTD/svg11.dtd">
<!-- Creator: CorelDRAW -->
<svg xmlns="http://www.w3.org/2000/svg" xml:space="preserve" width="40mm" height="60mm" style="shape-rendering:geometricPrecision; text-rendering:geometricPrecision; image-rendering:optimizeQuality; fill-rule:evenodd; clip-rule:evenodd"
viewBox="0 0 40 60"
 xmlns:xlink="http://www.w3.org/1999/xlink">
 <defs>
  <style type="text/css">
   <![CDATA[
    .str1 {stroke:#1F1A17;stroke-width:0.194}
    .str0 {stroke:#1F1A17;stroke-width:0.2}
    .fil0 {fill:none}
    .fil1 {fill:none;fill-rule:nonzero}
   ]]>
  </style>
 </defs>
 <g id="图层_x0020_11">
  <metadata id="CorelCorpID_0Corel-Layer"/>
  <rect class="fil0 str0" x="10.5389" y="9.6914" width="8.4679" height="3.0526" rx="1.5263" ry="1.5263"/>
 </g>
 <g id="图层_x0020_12">
  <metadata id="CorelCorpID_1Corel-Layer"/>
  <line class="fil1 str1" x1="33.7628" y1="31.846" x2="33.8023" y2= "18.8841" />
  <path class="fil1 str1" d="M33.6477 44.8145c0.0636,-4.3225 0.1031,-8.6449 0.1151,-12.9685"/>
  <line class="fil1 str1" x1="33.629" y1="46.1193" x2="33.6477" y2= "44.8145" />
  <path class="fil1 str1" d="M32.8911 52.4046c0.4671,0.0022 0.5428,-0.0077 0.5823,-0.0801l0.012 -0.0175c0.0526,-0.0735 0.0526,-0.0735 0.1436,-6.1877"/>
  <path class="fil1 str1" d="M6.8346 41.9954c-0.0417,6.5615 0.0274,9.7546 0.2214,10.1723 0.2948,0.3729 0.4912,0.3383 1.0077,0.322l1.1141 0.0147c0.0636,1.2105 0.4068,1.9517 1.136,2.4539 0.3476,0.2391 0.7446,0.3762 1.1338,0.3926l17.8524 -0.0153c0.7643,-0.0943 1.4693,-0.624 1.7961,-1.3476 0.2204,-0.4902 0.2818,-0.6976 0.3366,-1.5957l1.4584 0.0123"/>
  <line class="fil1 str1" x1="6.8982" y1="31.8536" x2="6.8346" y2= "41.9954" />
  <path class="fil1 str1" d="M7.1087 11.7797c-0.0976,6.691 -0.1678,13.3819 -0.2105,20.0739"/>
  <line class="fil1 str1" x1="7.1098" y1="11.6843" x2="7.1087" y2= "11.7797" />
  <path class="fil1 str1" d="M7.7129 11.3071c-0.5976,-0.0021 -0.5976,-0.0021 -0.6031,0.3772"/>
  <path class="fil1 str1" d="M11.4081 8.3729c-0.4945,0.0098 -1.08,0.2916 -1.4671,0.7039 -0.5187,0.5527 -0.7064,1.0371 -0.7656,2.2378 -0.1009,-0.0019 0,0 -0.1061,-0.002l-1.3564 -0.0055"/>
  <line class="fil1 str1" x1="26.4479" y1="8.3542" x2="11.4081" y2= "8.3729" />
  <path class="fil1 str1" d="M26.4479 8.3542c0.3169,0.0132 0.3794,0.0395 0.5494,0.2281 0.2182,0.2423 0.2818,0.284 0.4364,0.284 0.0943,0 0.1908,-0.0384 0.2895,-0.1162 0.0186,-0.0143 0.0395,-0.0318 0.0614,-0.0516 0.3673,-0.3289 0.42,-0.3476 0.9923,-0.3476 1.7062,0 2.5327,0.9892 2.6398,2.9622l0.8011 -0.0081 0.7994 0.0033c0.3326,-0.0019 0.4414,-0.0139 0.5625,0.2467 0.1583,0.3555 0.2369,2.6261 0.2226,7.3291"/>
 </g>
 <g id="图层_x0020_13">
  <metadata id="CorelCorpID_2Corel-Layer"/>
  <ellipse class="fil0 str0" cx="20.2446" cy="11.091" rx="0.3354" ry="0.3239"/>
  <ellipse class="fil0 str0" cx="20.3053" cy="18.907" rx="2.0479" ry="2.1224"/>
  <rect class="fil0 str0" x="31.7023" y="12.6419" width="1.3497" height="6.5396" rx="0.6748" ry="0.6748"/>
  <rect class="fil0 str0" x="7.6101" y="16.5375" width="0.9624" height="6.6419" rx="0.4812" ry="0.4812"/>
  <rect class="fil0 str0" x="7.6847" y="24.5141" width="0.9736" height="3.6019" rx="0.4868" ry="0.4868"/>
 </g>
</svg>
