<?xml version="1.0" encoding="UTF-8"?>
<!DOCTYPE svg PUBLIC "-//W3C//DTD SVG 1.1//EN" "http://www.w3.org/Graphics/SVG/1.1/DTD/svg11.dtd">
<!-- Creator: CorelDRAW 2020 (64-Bit) -->
<svg xmlns="http://www.w3.org/2000/svg" xml:space="preserve" width="40mm" height="60mm" version="1.1" style="shape-rendering:geometricPrecision; text-rendering:geometricPrecision; image-rendering:optimizeQuality; fill-rule:evenodd; clip-rule:evenodd"
viewBox="0 0 4000 6000"
 xmlns:xlink="http://www.w3.org/1999/xlink"
 xmlns:xodm="http://www.corel.com/coreldraw/odm/2003">
 <defs>
  <style type="text/css">
   <![CDATA[
    .str1 {stroke:#332C2B;stroke-width:20;stroke-miterlimit:22.9256}
    .str0 {stroke:#E62129;stroke-width:20;stroke-miterlimit:22.9256}
    .fil0 {fill:none}
   ]]>
  </style>
   <clipPath id="id0">
    <rect x="-42967.99" y="-8965.65" width="17291.98" height="17085.76"/>
   </clipPath>
 </defs>
 <g id="图层_x0020_1">
  <metadata id="CorelCorpID_0Corel-Layer"/>
  <g style="clip-path:url(#id0)">
   <image x="-42967.99" y="-8965.65" width="17291.98" height="17085.76" xlink:href="Y15A -11i（前膜全屏）_Images\Y15A -11i（前膜全屏）_ImgID1.png"/>
  </g>
  <rect class="fil0 str0" x="-33485.58" y="-8623.62" width="7520" height="16400"/>
  <path class="fil0 str0" d="M-32572.57 -8475.46l1721.53 0c54.56,0 32.13,68.28 70.09,68.28l530.62 0c177.74,0 146.81,159.43 146.81,259 0,214.07 173.55,387.62 387.62,387.62 214.07,0 387.62,-173.55 387.62,-387.62 0,-99.57 -22.99,-259 154.74,-259l485.47 0c37.96,0 38.68,-68.28 70.09,-68.28l1739.4 0c440,0 800,360 800,800l0 14545.71c0,440 -360,800 -800,800l-5693.99 0c-440,0 -799.99,-360 -799.99,-800l0 -14545.71c0,-440 359.99,-800 799.99,-800z"/>
  <path class="fil0 str1" d="M-3460.45 5836.85l0 -6239.03c0,-439.99 -360.01,-800 -800,-800l-14545.71 0c-440,0 -800,360 -800,800l0 1739.4c0,31.41 68.28,32.13 68.28,70.09l0 485.47c0,177.73 159.43,154.74 259,154.74 214.07,0 387.62,173.55 387.62,387.62 0,214.07 -173.55,387.62 -387.62,387.62 -99.57,0 -259,-30.93 -259,146.81l0 530.62c0,37.96 -68.28,15.53 -68.28,70.09l0 1721.53c0,440 360,799.99 800,799.99l14545.71 0c440,0 800,-359.99 800,-799.99 0,-440 88.31,-810.2 233.83,-979.54"/>
  <path class="fil0 str1" d="M1019.55 5283.43l1790.25 0c126.25,0 229.55,-103.3 229.55,-229.55l0 -4173.8c0,-126.25 -103.3,-229.55 -229.55,-229.55l-499.11 0c-9.02,0 -9.22,19.59 -20.12,19.59l-139.3 0c-51,0 -44.4,45.75 -44.4,74.32 0,61.43 -49.8,111.23 -111.23,111.23 -61.42,0 -111.22,-49.8 -111.22,-111.23 0,-28.57 8.87,-74.32 -42.13,-74.32l-152.25 0c-10.9,0 -4.46,-19.59 -20.12,-19.59l-493.98 0c-126.25,0 -229.55,103.3 -229.55,229.55l0 4173.8c0,126.25 103.3,229.55 229.55,229.55 126.26,0 232.48,25.34 281.07,67.1"/>
 </g>
</svg>
