<?xml version="1.0" encoding="UTF-8"?>
<!DOCTYPE svg PUBLIC "-//W3C//DTD SVG 1.1//EN" "http://www.w3.org/Graphics/SVG/1.1/DTD/svg11.dtd">
<!-- Creator: CorelDRAW -->
<svg xmlns="http://www.w3.org/2000/svg" xml:space="preserve" width="40mm" height="60mm" style="shape-rendering:geometricPrecision; text-rendering:geometricPrecision; image-rendering:optimizeQuality; fill-rule:evenodd; clip-rule:evenodd"
viewBox="0 0 40 60"
 xmlns:xlink="http://www.w3.org/1999/xlink">
 <defs>
  <style type="text/css">
   <![CDATA[
    .str0 {stroke:#1F1A17;stroke-width:0.0762}
    .fil0 {fill:none}
   ]]>
  </style>
 </defs>
 <g id="图层_x0020_1">
  <metadata id="CorelCorpID_0Corel-Layer"/>
  <g id="_547066464">
   <path id="_547066320" class="fil0 str0" d="M20.7036 9.671c0,0.3771 -0.3058,0.6829 -0.6828,0.6829 -0.3771,0 -0.6829,-0.3058 -0.6829,-0.6829 0,-0.3771 0.3058,-0.6829 0.6829,-0.6829 0.377,0 0.6828,0.3058 0.6828,0.6829z"/>
   <path id="_547066920" class="fil0 str0" d="M21.4678 12.388l0 2.7028c0,0.8191 -0.6562,1.4893 -1.4582,1.4893l0 0c-0.8021,0 -1.4583,-0.6702 -1.4583,-1.4893l0 -2.7028c0,-0.8191 0.6562,-1.4893 1.4583,-1.4893l0 0c0.802,0 1.4582,0.6702 1.4582,1.4893z"/>
   <path id="_547066536" class="fil0 str0" d="M21.905 18.9099c0,1.0599 -0.8596,1.9195 -1.9196,1.9195 -1.0599,0 -1.9195,-0.8596 -1.9195,-1.9195 0,-1.06 0.8596,-1.9196 1.9195,-1.9196 1.06,0 1.9196,0.8596 1.9196,1.9196z"/>
   <path id="_547066968" class="fil0 str0" d="M31.4079 9.4126l0 41.1748c0,1.6019 -1.3145,2.9126 -2.9212,2.9126l-16.9734 0c-1.6067,0 -2.9213,-1.3107 -2.9213,-2.9126l0 -41.1748c0,-1.602 1.3146,-2.9126 2.9213,-2.9126l16.9734 0c1.6067,0 2.9212,1.3106 2.9212,2.9126z"/>
  </g>
 </g>
</svg>
