<?xml version="1.0" encoding="UTF-8"?>
<!DOCTYPE svg PUBLIC "-//W3C//DTD SVG 1.1//EN" "http://www.w3.org/Graphics/SVG/1.1/DTD/svg11.dtd">
<!-- Creator: CorelDRAW 2020 (64-Bit) -->
<svg xmlns="http://www.w3.org/2000/svg" xml:space="preserve" width="40mm" height="60mm" version="1.1" style="shape-rendering:geometricPrecision; text-rendering:geometricPrecision; image-rendering:optimizeQuality; fill-rule:evenodd; clip-rule:evenodd"
viewBox="0 0 4000 6000"
 xmlns:xlink="http://www.w3.org/1999/xlink"
 xmlns:xodm="http://www.corel.com/coreldraw/odm/2003">
 <defs>
  <style type="text/css">
   <![CDATA[
    .str0 {stroke:black;stroke-width:7.62;stroke-linejoin:bevel;stroke-miterlimit:22.9256}
    .fil0 {fill:none}
   ]]>
  </style>
 </defs>
 <g id="图层_x0020_1">
  <metadata id="CorelCorpID_0Corel-Layer"/>
  <path class="fil0 str0" d="M1603.19 1259.57c0,-134.24 -108.82,-243.07 -243.06,-243.07 -134.24,0 -243.06,108.83 -243.06,243.07 0,134.23 108.82,243.06 243.06,243.06 134.24,0 243.06,-108.82 243.06,-243.06zm0 558c0,-134.24 -108.82,-243.06 -243.06,-243.06 -134.24,0 -243.06,108.82 -243.06,243.06 0,134.24 108.82,243.06 243.06,243.06 134.24,0 243.06,-108.82 243.06,-243.06l0 0zm376.97 -674.94c0,-57.87 -46.92,-104.79 -104.8,-104.79 -57.87,0 -104.79,46.92 -104.79,104.79 0,57.88 46.92,104.79 104.79,104.79 57.88,0 104.8,-46.91 104.8,-104.79l0 0zm144.09 394.93c0,-134.24 -108.83,-243.06 -243.06,-243.06 -134.24,0 -243.06,108.82 -243.07,243.06 0,134.24 108.82,243.06 243.06,243.06 134.24,0 243.07,-108.82 243.07,-243.06zm-42.83 292.28c0,-19.31 -15.66,-34.97 -34.97,-34.97 -19.31,0 -34.97,15.66 -34.97,34.97 0,19.31 15.66,34.97 34.97,34.97 19.31,0 34.97,-15.66 34.97,-34.97zm-101.26 111.38c0,-57.88 -46.92,-104.79 -104.8,-104.8 -57.87,0 -104.79,46.92 -104.79,104.8 0,57.88 46.92,104.79 104.79,104.79 57.88,0 104.8,-46.91 104.8,-104.79l0 0zm-886.38 -128.58c0,73.35 29.14,143.68 81,195.54 51.86,51.86 122.2,81 195.54,81l497.77 0c152.72,0 276.53,-123.81 276.53,-276.54l0 -544.34c0,-73.35 -29.13,-143.68 -80.99,-195.54 -51.86,-51.86 -122.2,-81 -195.54,-81l-497.77 0c-73.34,0 -143.68,29.14 -195.54,81 -51.86,51.86 -81,122.19 -81,195.54l0 544.34zm-40.75 43.67c0,73.34 29.13,143.68 80.99,195.54 51.86,51.86 122.2,80.99 195.54,80.99l599.66 0c152.72,0 276.53,-123.81 276.53,-276.53l0 -640.41c0,-73.34 -29.13,-143.68 -80.99,-195.54 -51.86,-51.86 -122.2,-81 -195.54,-81l-570.55 0c-81.06,0 -158.8,32.2 -216.12,89.53 -57.32,57.32 -89.52,135.06 -89.52,216.12l0 611.3zm630.8 3356.88l-327.48 0c-12.48,0 -24.01,6.65 -30.25,17.46 -6.24,10.81 -6.24,24.12 0,34.93 6.24,10.81 17.77,17.47 30.25,17.47l327.48 0c19.29,0 34.93,-15.64 34.93,-34.93 0,-19.29 -15.64,-34.93 -34.93,-34.93zm176.11 34.93c0,-17.69 -14.33,-32.02 -32.02,-32.02 -17.68,0 -32.02,14.33 -32.02,32.02 0,17.68 14.34,32.02 32.02,32.02 17.69,0 32.02,-14.34 32.02,-32.02zm237.97 -35.66l-167.38 0c-12.74,0 -24.51,6.8 -30.88,17.83 -6.37,11.03 -6.37,24.62 0,35.66 6.37,11.03 18.14,17.83 30.88,17.83l167.38 0c19.69,0 35.66,-15.97 35.66,-35.66 0,-19.69 -15.97,-35.66 -35.66,-35.66zm134.63 35.66c0,-17.69 -14.33,-32.02 -32.02,-32.02 -17.68,0 -32.02,14.33 -32.02,32.02 0,17.68 14.34,32.02 32.02,32.02 17.69,0 32.02,-14.34 32.02,-32.02zm308.56 -34.93l-196.49 0c-12.48,0 -24.01,6.65 -30.25,17.46 -6.24,10.81 -6.24,24.12 0,34.93 6.24,10.81 17.77,17.47 30.25,17.47l196.49 0c19.29,0 34.93,-15.64 34.93,-34.93 0,-19.29 -15.64,-34.93 -34.93,-34.93zm-1783.24 136.81l2490.29 0 0 -215.41 -564.71 0 0 -37.84c84.92,0 166.36,-33.74 226.41,-93.78 60.05,-60.05 93.79,-141.5 93.79,-226.42l241.02 0 0 -1159.83 -223.73 0c-8.83,0 -16.05,-7.22 -16.05,-16.05l0 -497.19c0,-8.83 7.22,-16.06 16.05,-16.06l223.73 0 0 -322.95 -223.72 0c-8.83,0 -16.06,-7.23 -16.06,-16.07l0 -1096.2c0,-8.83 7.23,-16.06 16.06,-16.06l223.72 0 0 -441.49 -241.02 0c0,-176.84 -143.36,-320.2 -320.2,-320.2l0 -43.86 541.43 0 0 -180.59 -2472.83 0.01 -0.19 180.48 491.39 0.49 64.78 0 0 43.47c-84.92,0 -166.36,33.73 -226.41,93.78 -60.05,60.05 -93.79,141.5 -93.79,226.42l-232.87 0 0 979.67 214.84 0c8.84,0 16.06,7.22 16.06,16.05l0 566.38c0,8.84 -7.22,16.06 -16.06,16.06l-214.84 0 0 2003.74 232.87 0c0,84.92 33.74,166.37 93.79,226.42 60.05,60.04 141.49,93.78 226.41,93.78l0 37.84 -550.16 0 0 215.41z"/>
 </g>
</svg>
