<?xml version="1.0" encoding="UTF-8"?>
<!DOCTYPE svg PUBLIC "-//W3C//DTD SVG 1.1//EN" "http://www.w3.org/Graphics/SVG/1.1/DTD/svg11.dtd">
<!-- Creator: CorelDRAW X8 -->
<svg xmlns="http://www.w3.org/2000/svg" xml:space="preserve" width="40mm" height="60mm" version="1.1" style="shape-rendering:geometricPrecision; text-rendering:geometricPrecision; image-rendering:optimizeQuality; fill-rule:evenodd; clip-rule:evenodd"
viewBox="0 0 4000 6000"
 xmlns:xlink="http://www.w3.org/1999/xlink">
 <defs>
  <style type="text/css">
   <![CDATA[
    .str0 {stroke:black;stroke-width:7.62}
    .fil0 {fill:none}
   ]]>
  </style>
 </defs>
 <g id="图层_x0020_1">
  <metadata id="CorelCorpID_0Corel-Layer"/>
  <path class="fil0 str0" d="M873 5191l2057 0c109,0 197,-89 197,-197l0 -4147c0,-108 -88,-197 -197,-197l-1713 0c-108,0 -197,89 -197,197l0 4147c0,108 89,197 197,197 109,0 275,60 275,159m1076 -4563c-35,-21 -11,-79 21,-79 33,0 59,27 59,59 0,32 -26,59 -59,59 -32,0 -59,-27 -59,-59 0,-32 27,-59 59,-59m-257 79c-36,-21 -12,-79 21,-79 32,0 59,27 59,59 0,32 -27,59 -59,59 -33,0 -59,-27 -59,-59 0,-32 26,-59 59,-59m-396 72c27,-15 0,-45 0,-45l238 0c18,0 32,14 32,32l0 0c0,17 -14,31 -32,31l-238 0c-17,0 -32,-14 -32,-31l0 0c0,-18 15,-32 32,-32"/>
 </g>
</svg>
