<?xml version="1.0" encoding="UTF-8"?>
<!DOCTYPE svg PUBLIC "-//W3C//DTD SVG 1.1//EN" "http://www.w3.org/Graphics/SVG/1.1/DTD/svg11.dtd">
<!-- Creator: CorelDRAW X8 -->
<svg xmlns="http://www.w3.org/2000/svg" xml:space="preserve" width="40mm" height="60mm" version="1.1" style="shape-rendering:geometricPrecision; text-rendering:geometricPrecision; image-rendering:optimizeQuality; fill-rule:evenodd; clip-rule:evenodd"
viewBox="0 0 4000 6000"
 xmlns:xlink="http://www.w3.org/1999/xlink">
 <defs>
  <style type="text/css">
   <![CDATA[
    .str0 {stroke:#332C2B;stroke-width:7.62}
    .fil0 {fill:none}
   ]]>
  </style>
 </defs>
 <g id="图层_x0020_1">
  <metadata id="CorelCorpID_0Corel-Layer"/>
  <path class="fil0 str0" d="M889 5350l1948 0c171,0 311,-140 311,-310l0 -4080c0,-170 -140,-310 -311,-310l-1674 0c-171,0 -311,140 -311,310l0 4080c0,170 140,310 311,310l281 0m-227 -4562l0 0c92,0 168,75 168,168l0 320c0,92 -76,168 -168,168l0 0c-93,0 -168,-76 -168,-168l0 -320c0,-93 75,-168 168,-168zm0 38l0 0c71,0 129,58 129,130l0 320c0,71 -58,130 -129,130l0 0c-71,0 -130,-59 -130,-130l0 -320c0,-72 59,-130 130,-130zm63 105c2,-39 -44,-69 -60,-70 -59,0 -107,48 -107,107 0,59 48,106 107,106 59,0 106,-47 106,-106 0,-59 -47,-107 -106,-107m59 375c1,-39 -45,-70 -61,-71 -59,0 -107,48 -107,107 0,59 48,107 107,107 59,0 107,-48 107,-107 0,-59 -48,-107 -107,-107m39 409c2,-26 -29,-47 -40,-47 -40,0 -72,32 -72,71 0,40 32,72 72,72 39,0 71,-32 71,-72 0,-39 -32,-71 -71,-71m703 194c-43,11 -74,27 -74,100l0 17c0,84 69,153 153,153l0 0c84,0 153,-69 153,-153l0 -95c0,-84 -69,-152 -153,-152l0 0c-84,0 -153,69 -153,152l0 78"/>
 </g>
</svg>
