<?xml version="1.0" encoding="UTF-8"?>
<!DOCTYPE svg PUBLIC "-//W3C//DTD SVG 1.1//EN" "http://www.w3.org/Graphics/SVG/1.1/DTD/svg11.dtd">
<!-- Creator: CorelDRAW X8 -->
<svg xmlns="http://www.w3.org/2000/svg" xml:space="preserve" width="40mm" height="60mm" version="1.1" style="shape-rendering:geometricPrecision; text-rendering:geometricPrecision; image-rendering:optimizeQuality; fill-rule:evenodd; clip-rule:evenodd"
viewBox="0 0 4000 6000"
 xmlns:xlink="http://www.w3.org/1999/xlink">
 <defs>
  <style type="text/css">
   <![CDATA[
    .str0 {stroke:black;stroke-width:10}
    .fil0 {fill:none}
   ]]>
  </style>
 </defs>
 <g id="图层_x0020_1">
  <metadata id="CorelCorpID_0Corel-Layer"/>
  <path class="fil0 str0" d="M998 5350l1822 0c113,0 206,-93 206,-206l0 -4288c0,-113 -93,-206 -206,-206l-695 0c-28,0 -36,8 -36,25l0 14c0,52 -42,94 -94,94l0 0c-51,0 -93,-42 -93,-94l0 -9c0,-18 -9,-30 -28,-30l-694 0c-113,0 -206,93 -206,206l0 4288c0,113 93,206 206,206l180 0"/>
 </g>
</svg>
