<?xml version="1.0" encoding="UTF-8"?>
<!DOCTYPE svg PUBLIC "-//W3C//DTD SVG 1.1//EN" "http://www.w3.org/Graphics/SVG/1.1/DTD/svg11.dtd">
<!-- Creator: CorelDRAW 2020 (64-Bit) -->
<svg xmlns="http://www.w3.org/2000/svg" xml:space="preserve" width="40mm" height="60mm" version="1.1" style="shape-rendering:geometricPrecision; text-rendering:geometricPrecision; image-rendering:optimizeQuality; fill-rule:evenodd; clip-rule:evenodd"
viewBox="0 0 4000 6000"
 xmlns:xlink="http://www.w3.org/1999/xlink"
 xmlns:xodm="http://www.corel.com/coreldraw/odm/2003">
 <defs>
  <style type="text/css">
   <![CDATA[
    .str0 {stroke:black;stroke-width:20;stroke-miterlimit:22.9256}
    .fil0 {fill:none}
   ]]>
  </style>
 </defs>
 <g id="图层_x0020_1">
  <metadata id="CorelCorpID_0Corel-Layer"/>
  <path class="fil0 str0" d="M491.45 5336.14l2931.8 0c83.98,0 152.69,-68.72 152.69,-152.68l0 -4375.1c0,-83.97 -68.72,-152.69 -152.69,-152.69l-2859.7 0c-83.97,0 -152.69,68.71 -152.69,152.69l0 2286.44c0,13.74 11.21,24.94 24.94,24.94l91.81 0c26.38,0 47.95,21.58 47.95,47.95l0 0.01c0,26.37 -21.58,47.95 -47.95,47.95l-91.81 0c-13.73,0 -24.94,11.2 -24.94,24.94l0 1942.87c0,83.97 68.71,152.68 152.69,152.68l24.33 0c59.77,0 90.33,7.32 96.43,19.53"/>
 </g>
</svg>
