<?xml version="1.0" encoding="UTF-8"?>
<!DOCTYPE svg PUBLIC "-//W3C//DTD SVG 1.1//EN" "http://www.w3.org/Graphics/SVG/1.1/DTD/svg11.dtd">
<!-- Creator: CorelDRAW X8 -->
<svg xmlns="http://www.w3.org/2000/svg" xml:space="preserve" width="40mm" height="60mm" version="1.1" style="shape-rendering:geometricPrecision; text-rendering:geometricPrecision; image-rendering:optimizeQuality; fill-rule:evenodd; clip-rule:evenodd"
viewBox="0 0 4000 6000"
 xmlns:xlink="http://www.w3.org/1999/xlink">
 <defs>
  <style type="text/css">
   <![CDATA[
    .fil0 {fill:#332C2B;fill-rule:nonzero}
   ]]>
  </style>
 </defs>
 <g id="图层_x0020_1">
  <metadata id="CorelCorpID_0Corel-Layer"/>
  <g>
   <path class="fil0" d="M598 1686l0 -5 0 0 11 0 10 0 11 0 10 -1 11 0 11 0 10 0 11 0 10 0 11 0 11 0 10 0 11 0 10 0 11 0 11 0 10 0 11 0 10 0 11 0 11 0 10 0 11 0 10 0 11 0 11 0 10 0 11 0 10 0 11 0 11 0 10 0 0 5 -10 0 -11 0 -11 0 -10 0 -11 0 -10 0 -11 0 -11 0 -10 0 -11 0 -10 0 -11 0 -11 0 -10 -1 -11 0 -10 0 -11 0 -11 0 -10 0 -11 0 -10 0 -11 0 -11 0 -10 1 -11 0 -10 0 -11 0 -11 0 -10 0 -11 0 -10 0 -11 1 0 0zm-160 -71l4 -3 0 0 3 5 4 4 4 4 4 4 4 4 5 4 4 4 4 3 4 3 5 3 4 3 5 3 5 3 4 2 5 2 5 3 5 2 5 2 5 1 5 2 5 1 5 2 6 1 5 1 5 1 6 0 6 1 5 1 6 0 6 0 6 0 6 0 0 5 -6 0 -6 0 -6 -1 -6 0 -6 0 -6 -1 -5 -1 -6 -1 -5 -1 -6 -1 -5 -1 -5 -2 -6 -2 -5 -1 -5 -2 -5 -2 -5 -3 -5 -2 -5 -2 -4 -3 -5 -3 -5 -3 -4 -3 -5 -4 -4 -3 -4 -4 -5 -3 -4 -4 -4 -5 -4 -4 -4 -4 -4 -5 0 0zm-57 -67l3 -3 0 0 2 2 2 2 1 2 2 2 2 3 2 2 1 2 2 2 2 2 2 2 2 2 1 2 2 2 2 2 2 2 2 3 1 2 2 2 2 2 2 2 2 2 2 2 1 2 2 2 2 2 2 2 2 3 1 2 2 2 2 2 2 2 2 2 -4 3 -2 -2 -1 -2 -2 -2 -2 -2 -2 -3 -2 -2 -1 -2 -2 -2 -2 -2 -2 -2 -2 -2 -1 -2 -2 -2 -2 -2 -2 -2 -2 -2 -2 -3 -1 -2 -2 -2 -2 -2 -2 -2 -2 -2 -1 -2 -2 -2 -2 -2 -2 -3 -2 -2 -1 -2 -2 -2 -2 -2 -1 -2 -2 -2 0 0zm-38 -112l4 0 0 0 0 4 0 4 0 3 1 4 0 4 0 4 1 3 0 4 1 4 1 3 0 4 1 3 1 4 1 3 1 4 1 3 2 3 1 4 1 3 2 3 1 4 2 3 1 3 2 3 2 3 2 3 2 4 2 3 2 3 2 3 2 3 2 3 -3 3 -3 -4 -2 -3 -2 -3 -2 -3 -2 -3 -2 -3 -2 -3 -2 -4 -2 -3 -1 -3 -2 -4 -1 -3 -2 -3 -1 -4 -2 -3 -1 -4 -1 -3 -1 -4 -1 -3 -1 -4 -1 -3 -1 -4 0 -4 -1 -3 -1 -4 0 -4 0 -4 -1 -3 0 -4 0 -4 0 -4 0 -4 0 0zm-1 -486l4 0 0 0 1 15 0 15 1 15 0 16 0 15 1 15 0 15 0 15 0 16 0 15 0 15 0 15 0 15 0 16 0 15 0 15 0 15 0 15 0 15 0 16 0 15 0 15 -1 15 0 15 0 16 0 15 0 15 0 15 -1 15 0 16 0 15 0 15 -4 0 0 -15 0 -15 0 -16 0 -15 0 -15 0 -15 1 -15 0 -16 0 -15 0 -15 0 -15 0 -15 0 -16 1 -15 0 -15 0 -15 0 -15 0 -15 0 -16 0 -15 0 -15 0 -15 0 -15 -1 -16 0 -15 0 -15 0 -15 0 -15 -1 -15 0 -16 -1 -15 0 -15 0 0zm91 -225l3 3 0 0 -5 6 -5 6 -6 6 -5 6 -5 6 -4 6 -5 6 -4 7 -5 6 -4 6 -3 7 -4 6 -4 7 -3 6 -3 7 -3 7 -3 6 -3 7 -2 7 -2 7 -2 8 -2 7 -2 7 -1 8 -2 7 -1 8 -1 8 0 8 -1 8 0 8 0 8 0 9 -4 0 0 -8 0 -9 0 -8 0 -8 1 -9 1 -7 1 -8 1 -8 2 -8 1 -7 2 -8 2 -7 3 -7 2 -7 3 -7 3 -7 3 -7 3 -7 3 -7 4 -6 4 -7 4 -6 4 -7 4 -6 4 -6 5 -7 5 -6 5 -6 5 -6 5 -6 6 -6 5 -6 0 0zm180 -77l0 5 0 0 -7 0 -7 0 -6 0 -7 0 -6 1 -6 1 -7 1 -6 1 -6 1 -6 1 -5 2 -6 1 -6 2 -5 2 -6 2 -5 2 -6 3 -5 2 -5 3 -5 3 -6 3 -5 3 -5 4 -5 3 -4 4 -5 4 -5 4 -5 4 -5 4 -4 5 -5 4 -5 5 -3 -3 5 -5 5 -5 4 -4 5 -5 5 -4 5 -4 5 -4 5 -3 5 -4 5 -3 5 -4 5 -3 6 -3 5 -3 5 -2 6 -3 5 -2 6 -2 6 -2 6 -2 5 -2 6 -1 6 -2 7 -1 6 -1 6 -1 6 0 7 -1 6 -1 7 0 7 0 7 0 0 0zm666 0l0 4 0 0 -21 1 -21 0 -20 0 -21 1 -21 0 -21 0 -21 0 -21 0 -20 0 -21 1 -21 0 -21 0 -21 0 -21 0 -20 0 -21 0 -21 0 -21 0 -21 0 -20 0 -21 0 -21 0 -21 -1 -21 0 -21 0 -20 0 -21 0 -21 0 -21 -1 -21 0 -21 0 -20 0 0 -5 21 0 20 1 21 0 21 0 21 0 21 0 20 1 21 0 21 0 21 0 21 0 21 0 20 0 21 0 21 0 21 0 21 0 20 0 21 0 21 0 21 0 21 0 21 0 20 0 21 0 21 0 21 -1 21 0 20 0 21 -1 21 0 21 0 0 0zm193 89l-4 3 0 0 -4 -6 -5 -5 -5 -5 -5 -5 -5 -4 -6 -5 -5 -4 -5 -4 -5 -4 -5 -4 -6 -4 -5 -4 -6 -3 -5 -3 -6 -3 -6 -3 -5 -3 -6 -2 -6 -3 -6 -2 -7 -2 -6 -2 -6 -1 -7 -2 -6 -1 -7 -1 -7 -1 -7 -1 -7 0 -7 -1 -8 0 -7 0 0 -4 8 0 7 0 7 0 8 1 7 1 7 1 6 1 7 1 7 1 6 2 7 2 6 2 6 2 6 3 6 2 6 3 6 3 6 3 6 3 5 4 6 3 5 4 6 4 5 4 5 4 5 5 6 4 5 5 5 5 5 5 5 5 5 6 0 0zm79 211l-5 0 0 0 0 -8 0 -8 0 -7 0 -8 -1 -7 0 -7 -1 -8 -1 -7 -1 -7 -2 -6 -1 -7 -2 -7 -2 -7 -2 -6 -2 -7 -2 -6 -3 -6 -2 -7 -3 -6 -3 -6 -3 -6 -4 -6 -3 -6 -4 -6 -4 -6 -4 -6 -4 -6 -4 -6 -5 -5 -5 -6 -5 -6 -5 -5 4 -3 5 5 5 6 5 6 4 6 5 5 4 6 4 6 4 6 4 6 3 6 4 7 3 6 3 6 3 6 3 7 2 6 2 7 3 6 2 7 2 7 1 7 2 7 1 7 1 7 1 7 1 7 1 8 0 7 1 7 0 8 0 8 0 8 0 0zm-1 449l-4 0 0 0 -1 -14 0 -14 -1 -14 0 -14 0 -14 -1 -14 0 -14 0 -14 -1 -14 0 -14 0 -15 0 -14 0 -14 0 -14 0 -14 0 -14 0 -14 0 -14 0 -14 0 -14 0 -14 0 -14 1 -14 0 -14 0 -14 1 -14 0 -14 0 -14 1 -14 0 -14 1 -14 0 -14 5 0 -1 14 0 14 -1 14 0 14 -1 14 0 14 0 14 -1 14 0 14 0 14 0 14 0 14 -1 14 0 14 0 14 0 14 0 14 0 14 0 14 0 14 1 14 0 14 0 14 0 15 0 14 1 14 0 14 0 14 1 14 0 14 1 14 0 14 0 0zm-86 211l-4 -3 0 0 5 -6 5 -5 5 -6 5 -6 4 -5 5 -6 4 -6 4 -6 4 -6 4 -6 4 -6 3 -6 4 -6 3 -6 3 -6 3 -6 2 -7 3 -6 2 -7 3 -6 2 -7 1 -7 2 -7 1 -7 2 -7 1 -7 1 -8 0 -7 1 -8 0 -7 0 -8 0 -8 4 0 0 8 0 8 0 8 0 7 -1 8 -1 7 -1 8 -1 7 -2 7 -1 7 -2 7 -2 7 -2 7 -3 6 -2 7 -3 6 -3 7 -3 6 -3 6 -4 7 -4 6 -3 6 -4 6 -4 6 -4 6 -5 6 -4 5 -5 6 -4 6 -5 6 -5 5 -5 6 0 0zm-188 80l0 -5 0 0 8 1 7 0 6 0 7 -1 7 0 6 -1 7 -1 6 -1 7 -1 6 -1 6 -2 6 -1 6 -2 6 -2 5 -2 6 -3 6 -2 5 -3 6 -3 5 -3 5 -3 6 -4 5 -3 5 -4 5 -4 5 -4 5 -4 5 -4 5 -5 5 -5 5 -5 4 -5 4 3 -5 5 -5 5 -5 5 -5 5 -5 4 -5 5 -5 4 -5 4 -6 4 -5 3 -5 4 -6 3 -5 3 -6 3 -5 3 -6 2 -6 3 -6 2 -6 2 -6 2 -6 2 -6 1 -7 1 -6 2 -7 1 -6 1 -7 0 -7 1 -6 0 -7 0 -8 0 -7 0 0 0zm-341 -3l4 0 -2 -3 11 0 10 0 11 0 11 0 10 0 11 0 10 0 11 0 11 0 10 0 11 0 10 0 11 -1 11 0 10 0 11 0 10 0 11 0 11 0 10 0 11 0 10 0 11 0 11 0 10 1 11 0 10 0 11 0 11 0 10 1 11 0 10 0 0 5 -10 0 -11 -1 -10 0 -11 0 -11 -1 -10 0 -11 0 -10 0 -11 0 -11 0 -10 0 -11 0 -10 0 -11 0 -11 0 -10 0 -11 0 -10 0 -11 0 -11 0 -10 0 -11 0 -10 0 -11 0 -11 0 -10 1 -11 0 -10 0 -11 0 -11 0 -10 0 -11 0 -2 -2zm2 2l-2 0 0 -2 2 2zm-2 -4l4 0 0 0 0 0 0 0 0 0 0 0 0 0 0 0 0 0 0 0 0 0 0 0 0 0 0 0 0 1 0 0 0 0 0 0 0 0 0 0 0 0 0 0 0 0 0 0 0 0 0 0 0 0 0 0 0 0 0 0 0 0 0 1 0 0 -4 0 0 0 0 -1 0 0 0 0 0 0 0 0 0 0 0 0 0 0 0 0 0 0 0 0 0 0 0 0 0 0 0 0 0 0 0 0 0 -1 0 0 0 0 0 0 0 0 0 0 0 0 0 0 0 0 0 0 0 0 0 0 0 0 0 0zm1762 3l-1 -5 0 0 11 0 11 0 10 0 11 -1 11 0 10 0 11 0 10 0 11 0 11 0 10 0 11 0 10 0 11 0 11 0 10 0 11 0 10 0 11 0 11 0 10 0 11 0 10 0 11 0 11 0 10 0 11 0 10 0 11 0 11 0 10 0 11 0 0 5 -11 0 -10 0 -11 0 -11 0 -10 0 -11 0 -10 0 -11 0 -11 0 -10 0 -11 0 -10 0 -11 0 -11 -1 -10 0 -11 0 -10 0 -11 0 -11 0 -10 0 -11 0 -10 0 -11 0 -11 1 -10 0 -11 0 -10 0 -11 0 -11 0 -10 0 -11 0 -10 1 0 0zm-160 -71l3 -3 0 0 4 5 4 4 4 4 4 4 4 4 4 4 4 4 5 3 4 3 4 3 5 3 4 3 5 3 5 2 5 2 4 3 5 2 5 2 5 1 5 2 6 1 5 2 5 1 6 1 5 1 6 0 5 1 6 1 6 0 6 0 5 0 6 0 1 5 -7 0 -6 0 -6 -1 -5 0 -6 0 -6 -1 -6 -1 -5 -1 -6 -1 -5 -1 -6 -1 -5 -2 -5 -2 -5 -1 -5 -2 -5 -2 -5 -3 -5 -2 -5 -2 -5 -3 -4 -3 -5 -3 -5 -3 -4 -4 -4 -3 -5 -4 -4 -3 -4 -4 -4 -5 -4 -4 -4 -4 -4 -5 0 0zm-58 -67l4 -3 0 0 2 2 1 2 2 2 2 2 2 3 1 2 2 2 2 2 2 2 1 2 2 2 2 2 2 2 2 2 1 2 2 3 2 2 2 2 2 2 2 2 1 2 2 2 2 2 2 2 2 2 1 2 2 3 2 2 2 2 2 2 1 2 2 2 -3 3 -2 -2 -2 -2 -2 -2 -1 -2 -2 -3 -2 -2 -2 -2 -2 -2 -1 -2 -2 -2 -2 -2 -2 -2 -2 -2 -1 -2 -2 -2 -2 -2 -2 -3 -2 -2 -2 -2 -1 -2 -2 -2 -2 -2 -2 -2 -2 -2 -1 -2 -2 -3 -2 -2 -2 -2 -1 -2 -2 -2 -2 -2 -2 -2 0 0zm-38 -112l5 0 0 0 0 4 0 4 0 3 0 4 1 4 0 4 0 3 1 4 1 4 0 3 1 4 1 3 1 4 1 3 1 4 1 3 1 3 1 4 2 3 1 3 2 4 1 3 2 3 2 3 1 3 2 3 2 4 2 3 2 3 2 3 3 3 2 3 -4 3 -2 -4 -2 -3 -2 -3 -3 -3 -2 -3 -2 -3 -1 -3 -2 -4 -2 -3 -2 -3 -1 -4 -2 -3 -1 -3 -2 -4 -1 -3 -1 -4 -1 -3 -2 -4 -1 -3 0 -4 -1 -3 -1 -4 -1 -4 0 -3 -1 -4 0 -4 -1 -4 0 -3 0 -4 -1 -4 0 -4 0 -4 0 0zm-1 -486l5 0 0 0 0 15 1 15 0 15 1 16 0 15 0 15 0 15 1 15 0 16 0 15 0 15 0 15 0 15 0 16 0 15 0 15 0 15 0 15 -1 15 0 16 0 15 0 15 0 15 0 15 0 16 -1 15 0 15 0 15 0 15 0 16 0 15 0 15 -5 0 0 -15 0 -15 1 -16 0 -15 0 -15 0 -15 0 -15 0 -16 0 -15 1 -15 0 -15 0 -15 0 -16 0 -15 0 -15 0 -15 0 -15 0 -15 0 -16 0 -15 0 -15 0 -15 0 -15 0 -16 0 -15 0 -15 -1 -15 0 -15 0 -15 -1 -16 0 -15 -1 -15 0 0zm92 -225l3 3 0 0 -5 6 -6 6 -5 6 -5 6 -5 6 -5 6 -4 6 -5 7 -4 6 -4 6 -4 7 -4 6 -3 7 -3 6 -4 7 -3 7 -2 6 -3 7 -3 7 -2 7 -2 8 -2 7 -1 7 -2 8 -1 7 -1 8 -1 8 -1 8 0 8 0 8 0 8 0 9 -5 0 0 -8 0 -9 0 -8 1 -8 1 -9 0 -7 2 -8 1 -8 1 -8 2 -7 2 -8 2 -7 2 -7 3 -7 2 -7 3 -7 3 -7 4 -7 3 -7 4 -6 3 -7 4 -6 4 -7 5 -6 4 -6 5 -7 4 -6 5 -6 6 -6 5 -6 5 -6 6 -6 0 0zm179 -77l0 5 0 0 -7 0 -6 0 -7 0 -6 0 -7 1 -6 1 -6 1 -6 1 -6 1 -6 1 -6 2 -6 1 -5 2 -6 2 -5 2 -6 2 -5 3 -5 2 -6 3 -5 3 -5 3 -5 3 -5 4 -5 3 -5 4 -5 4 -5 4 -4 4 -5 4 -5 5 -4 4 -5 5 -3 -3 4 -5 5 -5 5 -4 5 -5 5 -4 4 -4 5 -4 5 -3 5 -4 6 -3 5 -4 5 -3 5 -3 6 -3 5 -2 5 -3 6 -2 6 -2 5 -2 6 -2 6 -2 6 -1 6 -2 6 -1 6 -1 7 -1 6 0 6 -1 7 -1 7 0 6 0 7 0 0 0zm667 0l0 4 0 0 -21 1 -21 0 -21 0 -21 1 -21 0 -20 0 -21 0 -21 0 -21 0 -21 1 -20 0 -21 0 -21 0 -21 0 -21 0 -21 0 -20 0 -21 0 -21 0 -21 0 -21 0 -21 0 -20 -1 -21 0 -21 0 -21 0 -21 0 -20 0 -21 -1 -21 0 -21 0 -21 0 0 -5 21 0 21 1 21 0 21 0 20 0 21 0 21 1 21 0 21 0 20 0 21 0 21 0 21 0 21 0 21 0 20 0 21 0 21 0 21 0 21 0 21 0 20 0 21 0 21 0 21 0 21 0 20 -1 21 0 21 0 21 -1 21 0 21 0 0 0zm192 89l-3 3 0 0 -5 -6 -5 -5 -5 -5 -5 -5 -5 -4 -5 -5 -5 -4 -5 -4 -6 -4 -5 -4 -5 -4 -6 -4 -5 -3 -6 -3 -5 -3 -6 -3 -6 -3 -6 -2 -6 -3 -6 -2 -6 -2 -6 -2 -7 -1 -6 -2 -7 -1 -6 -1 -7 -1 -7 -1 -7 0 -8 -1 -7 0 -7 0 0 -4 7 0 8 0 7 0 7 1 7 1 7 1 7 1 7 1 6 1 7 2 6 2 7 2 6 2 6 3 6 2 6 3 6 3 6 3 5 3 6 4 5 3 6 4 5 4 6 4 5 4 5 5 5 4 5 5 5 5 5 5 5 5 5 6 0 0zm79 211l-4 0 0 0 0 -8 0 -8 0 -7 -1 -8 0 -7 -1 -7 0 -8 -1 -7 -2 -7 -1 -6 -1 -7 -2 -7 -2 -7 -2 -6 -2 -7 -2 -6 -3 -6 -3 -7 -3 -6 -3 -6 -3 -6 -3 -6 -4 -6 -3 -6 -4 -6 -4 -6 -4 -6 -5 -6 -4 -5 -5 -6 -5 -6 -5 -5 3 -3 5 5 5 6 5 6 5 6 4 5 4 6 5 6 3 6 4 6 4 6 3 7 3 6 4 6 2 6 3 7 3 6 2 7 2 6 2 7 2 7 2 7 1 7 2 7 1 7 1 7 1 7 0 8 1 7 0 7 0 8 0 8 0 8 0 0zm0 449l-5 0 0 0 0 -14 -1 -14 0 -14 0 -14 -1 -14 0 -14 0 -14 -1 -14 0 -14 0 -14 0 -15 0 -14 -1 -14 0 -14 0 -14 0 -14 0 -14 0 -14 1 -14 0 -14 0 -14 0 -14 0 -14 1 -14 0 -14 0 -14 1 -14 0 -14 0 -14 1 -14 0 -14 1 -14 4 0 0 14 -1 14 0 14 -1 14 0 14 0 14 -1 14 0 14 0 14 0 14 -1 14 0 14 0 14 0 14 0 14 0 14 0 14 0 14 0 14 0 14 0 14 0 14 1 14 0 15 0 14 0 14 1 14 0 14 0 14 1 14 0 14 1 14 0 0zm-87 211l-3 -3 0 0 5 -6 5 -5 5 -6 4 -6 5 -5 4 -6 5 -6 4 -6 4 -6 4 -6 3 -6 4 -6 3 -6 3 -6 3 -6 3 -6 3 -7 3 -6 2 -7 2 -6 2 -7 2 -7 2 -7 1 -7 1 -7 1 -7 1 -8 1 -7 0 -8 1 -7 0 -8 -1 -8 5 0 0 8 0 8 0 8 -1 7 0 8 -1 7 -1 8 -2 7 -1 7 -2 7 -2 7 -2 7 -2 7 -2 6 -3 7 -3 6 -3 7 -3 6 -3 6 -3 7 -4 6 -4 6 -4 6 -4 6 -4 6 -4 6 -5 5 -4 6 -5 6 -5 6 -5 5 -5 6 0 0zm-187 80l0 -5 0 0 7 1 7 0 7 0 7 -1 6 0 7 -1 6 -1 7 -1 6 -1 6 -1 6 -2 6 -1 6 -2 6 -2 6 -2 6 -3 5 -2 6 -3 5 -3 6 -3 5 -3 5 -4 5 -3 6 -4 5 -4 5 -4 5 -4 5 -4 5 -5 4 -5 5 -5 5 -5 3 3 -5 5 -4 5 -5 5 -5 5 -5 4 -5 5 -6 4 -5 4 -5 4 -5 3 -6 4 -5 3 -6 3 -5 3 -6 3 -6 2 -5 3 -6 2 -6 2 -6 2 -6 2 -7 1 -6 1 -6 2 -7 1 -7 1 -6 0 -7 1 -7 0 -7 0 -7 0 -7 0 0 0zm-341 -3l4 0 -2 -3 10 0 11 0 11 0 10 0 11 0 10 0 11 0 11 0 10 0 11 0 10 0 11 0 11 -1 10 0 11 0 10 0 11 0 11 0 10 0 11 0 10 0 11 0 11 0 10 0 11 1 10 0 11 0 11 0 10 0 11 1 10 0 11 0 0 5 -11 0 -10 -1 -11 0 -10 0 -11 -1 -11 0 -10 0 -11 0 -10 0 -11 0 -11 0 -10 0 -11 0 -10 0 -11 0 -11 0 -10 0 -11 0 -10 0 -11 0 -11 0 -10 0 -11 0 -10 0 -11 0 -11 1 -10 0 -11 0 -10 0 -11 0 -11 0 -10 0 -2 -2zm2 2l-2 0 0 -2 2 2zm0 -2l0 -5 2 3 0 0 0 0 0 0 0 0 0 0 0 0 0 0 0 0 0 0 0 0 0 0 0 0 0 0 0 1 0 0 0 0 0 0 0 0 0 0 0 0 0 0 0 0 0 0 0 0 0 0 0 0 0 0 0 0 0 0 0 0 0 1 0 0 -4 0 0 0 0 -1 0 0 0 0 0 0 0 0 0 0 0 0 0 0 0 0 0 0 0 0 0 0 0 0 0 0 0 0 0 0 0 0 0 -1 0 0 0 0 0 0 0 0 0 0 0 0 0 0 0 0 0 0 0 0 0 0 0 0 0 0 2 2zm0 -5l2 0 0 3 -2 -3zm-2436 1831l0 -4 0 0 10 -1 11 0 10 0 11 0 11 0 10 0 11 0 10 0 11 0 11 -1 10 0 11 0 10 0 11 0 11 0 10 0 11 0 10 1 11 0 11 0 10 0 11 0 10 0 11 0 11 0 10 0 11 0 10 0 11 0 11 0 10 0 11 0 0 4 -11 0 -10 0 -11 0 -11 0 -10 0 -11 0 -10 0 -11 0 -11 0 -10 0 -11 0 -10 0 -11 0 -11 0 -10 0 -11 0 -10 0 -11 0 -11 0 -10 0 -11 0 -10 0 -11 0 -11 0 -10 0 -11 0 -10 0 -11 0 -11 1 -10 0 -11 0 -10 0 0 0zm-160 -70l3 -3 0 0 4 4 4 5 4 4 4 4 4 4 4 3 4 4 5 3 4 4 4 3 5 3 5 3 4 2 5 3 5 2 4 2 5 2 5 2 5 2 5 1 6 2 5 1 5 1 6 1 5 1 6 1 5 1 6 0 6 0 6 1 6 0 6 0 0 4 -6 0 -6 0 -6 0 -6 0 -6 -1 -6 -1 -6 0 -5 -1 -6 -1 -5 -2 -5 -1 -6 -1 -5 -2 -5 -2 -5 -2 -5 -2 -5 -2 -5 -2 -5 -3 -5 -3 -4 -2 -5 -4 -5 -3 -4 -3 -4 -3 -5 -4 -4 -4 -4 -4 -4 -4 -4 -4 -4 -5 -4 -4 0 0zm-58 -68l4 -3 0 0 2 3 1 2 2 2 2 2 2 2 1 2 2 2 2 2 2 2 1 3 2 2 2 2 2 2 2 2 1 2 2 2 2 2 2 2 2 2 2 2 1 3 2 2 2 2 2 2 2 2 1 2 2 2 2 2 2 2 2 2 1 3 2 2 -3 3 -2 -3 -2 -2 -2 -2 -1 -2 -2 -2 -2 -2 -2 -2 -2 -2 -1 -2 -2 -2 -2 -3 -2 -2 -2 -2 -1 -2 -2 -2 -2 -2 -2 -2 -2 -2 -2 -2 -1 -2 -2 -2 -2 -3 -2 -2 -2 -2 -1 -2 -2 -2 -2 -2 -2 -2 -1 -2 -2 -3 -2 -2 -2 -2 0 0zm-38 -112l5 0 0 0 0 4 0 4 0 4 0 4 1 3 0 4 0 4 1 3 1 4 0 4 1 3 1 4 1 3 1 4 1 3 1 3 1 4 1 3 2 4 1 3 2 3 1 3 2 4 2 3 1 3 2 3 2 3 2 3 2 3 2 3 3 3 2 3 -4 3 -2 -3 -2 -3 -2 -3 -2 -3 -3 -3 -2 -4 -1 -3 -2 -3 -2 -3 -2 -4 -1 -3 -2 -3 -1 -4 -2 -3 -1 -4 -1 -3 -1 -4 -1 -3 -1 -4 -1 -3 -1 -4 -1 -3 -1 -4 0 -4 -1 -4 0 -3 -1 -4 0 -4 0 -4 -1 -4 0 -4 0 -4 0 0zm-1 -485l5 -1 0 0 0 16 1 15 0 15 1 15 0 15 0 16 0 15 1 15 0 15 0 15 0 15 0 16 0 15 0 15 0 15 0 15 0 16 0 15 0 15 -1 15 0 15 0 16 0 15 0 15 0 15 0 15 -1 16 0 15 0 15 0 15 0 15 0 15 -5 0 0 -15 1 -15 0 -15 0 -15 0 -15 0 -16 0 -15 0 -15 1 -15 0 -15 0 -16 0 -15 0 -15 0 -15 0 -15 0 -16 0 -15 0 -15 0 -15 0 -15 0 -15 0 -16 0 -15 0 -15 0 -15 0 -15 -1 -16 0 -15 0 -15 -1 -15 0 -15 -1 -15 0 0zm92 -226l3 3 0 0 -5 6 -6 6 -5 6 -5 6 -5 7 -5 6 -4 6 -5 6 -4 6 -4 7 -4 6 -4 7 -3 6 -3 7 -4 6 -3 7 -2 7 -3 7 -2 7 -3 7 -2 7 -2 7 -1 8 -2 7 -1 8 -1 8 -1 7 -1 8 0 8 0 9 0 8 0 8 -5 1 0 -9 0 -8 1 -9 0 -8 1 -8 1 -8 1 -8 1 -7 1 -8 2 -8 2 -7 2 -7 2 -8 3 -7 2 -7 3 -7 3 -6 4 -7 3 -7 4 -7 3 -6 4 -7 4 -6 5 -6 4 -7 5 -6 5 -6 4 -6 6 -6 5 -7 5 -6 6 -6 0 0zm179 -76l0 4 0 0 -6 0 -7 0 -7 0 -6 1 -7 0 -6 1 -6 1 -6 1 -6 1 -6 2 -6 1 -5 2 -6 2 -6 2 -5 2 -6 2 -5 2 -5 3 -6 3 -5 3 -5 3 -5 3 -5 3 -5 4 -5 3 -5 4 -5 4 -4 4 -5 5 -5 4 -4 5 -5 4 -3 -3 5 -4 4 -5 5 -5 5 -4 5 -4 5 -4 4 -4 5 -4 5 -4 6 -3 5 -3 5 -3 5 -3 6 -3 5 -3 6 -2 5 -2 6 -3 5 -2 6 -1 6 -2 6 -2 6 -1 6 -1 6 -1 7 -1 6 -1 7 -1 6 0 7 0 6 0 7 0 0 0zm667 -1l0 5 0 0 -21 0 -21 0 -21 1 -21 0 -20 0 -21 1 -21 0 -21 0 -21 0 -21 0 -20 0 -21 0 -21 0 -21 0 -21 0 -21 0 -20 0 -21 0 -21 0 -21 0 -21 0 -20 0 -21 0 -21 0 -21 0 -21 -1 -21 0 -20 0 -21 0 -21 0 -21 -1 -21 0 0 -4 21 0 21 0 21 0 21 1 20 0 21 0 21 0 21 0 21 0 21 1 20 0 21 0 21 0 21 0 21 0 20 0 21 0 21 0 21 0 21 0 21 0 20 0 21 0 21 -1 21 0 21 0 20 0 21 0 21 -1 21 0 21 0 21 -1 0 0zm192 89l-3 3 0 0 -5 -5 -5 -5 -5 -5 -5 -5 -5 -5 -5 -4 -5 -5 -5 -4 -5 -4 -6 -4 -5 -3 -6 -4 -5 -3 -6 -4 -5 -3 -6 -3 -6 -2 -6 -3 -6 -2 -6 -2 -6 -2 -6 -2 -7 -2 -6 -1 -7 -1 -6 -2 -7 0 -7 -1 -7 -1 -8 0 -7 0 -7 0 0 -5 7 0 8 0 7 1 7 0 7 1 7 1 7 1 7 1 6 2 7 2 6 1 7 3 6 2 6 2 6 3 6 2 6 3 6 3 5 4 6 3 5 4 6 4 5 4 6 4 5 4 5 4 5 5 5 5 5 4 5 6 5 5 5 5 0 0zm79 211l-4 0 0 0 0 -8 0 -7 0 -8 0 -7 -1 -8 -1 -7 0 -7 -1 -7 -2 -7 -1 -7 -1 -7 -2 -6 -2 -7 -2 -7 -2 -6 -2 -7 -3 -6 -3 -6 -2 -6 -3 -7 -4 -6 -3 -6 -4 -6 -3 -6 -4 -6 -4 -6 -4 -5 -5 -6 -4 -6 -5 -6 -5 -5 -5 -6 3 -3 5 6 5 6 5 5 5 6 4 6 4 6 5 6 4 6 3 6 4 6 3 6 3 6 4 7 2 6 3 6 3 7 2 6 2 7 2 7 2 6 2 7 1 7 2 7 1 7 1 7 1 8 0 7 1 7 0 8 0 8 0 7 0 8 0 0zm0 449l-5 0 0 0 0 -14 -1 -14 0 -14 0 -14 -1 -14 0 -14 0 -14 -1 -14 0 -14 0 -14 0 -14 0 -14 0 -14 -1 -14 0 -14 0 -14 0 -14 1 -14 0 -14 0 -14 0 -14 0 -15 0 -14 1 -14 0 -14 0 -14 1 -14 0 -14 0 -14 1 -14 0 -14 1 -14 4 0 0 14 -1 14 0 14 -1 14 0 14 0 14 -1 14 0 14 0 15 0 14 -1 14 0 14 0 14 0 14 0 14 0 14 0 14 0 14 0 14 0 14 0 14 0 14 1 14 0 14 0 14 0 14 1 14 0 14 0 14 1 14 0 14 1 14 0 0zm-87 212l-3 -3 0 0 5 -6 5 -6 5 -5 4 -6 5 -6 4 -6 5 -5 4 -6 4 -6 4 -6 3 -6 4 -6 3 -6 3 -6 3 -7 3 -6 3 -6 3 -7 2 -6 2 -7 2 -7 2 -6 2 -7 1 -7 1 -7 1 -8 1 -7 1 -7 0 -8 1 -8 0 -8 -1 -8 5 0 0 8 0 8 0 8 -1 8 0 7 -1 8 -1 7 -2 8 -1 7 -2 7 -1 7 -3 6 -2 7 -2 7 -3 6 -3 7 -2 6 -4 7 -3 6 -3 6 -4 6 -4 6 -3 6 -5 6 -4 6 -4 6 -4 6 -5 6 -5 5 -5 6 -5 6 -5 6 0 0zm-187 79l0 -4 0 0 7 0 7 0 7 0 7 0 6 -1 7 0 7 -1 6 -1 6 -1 6 -2 6 -1 6 -2 6 -2 6 -2 6 -2 6 -2 5 -3 6 -2 5 -3 6 -3 5 -4 5 -3 5 -4 6 -3 5 -4 5 -4 5 -5 5 -4 5 -5 4 -4 5 -5 5 -5 3 3 -5 5 -4 5 -5 5 -5 4 -5 5 -5 4 -6 4 -5 4 -5 4 -5 4 -6 3 -5 3 -6 4 -5 2 -6 3 -6 3 -5 2 -6 2 -6 3 -6 1 -6 2 -7 2 -6 1 -6 1 -7 1 -6 1 -7 1 -7 0 -7 1 -7 0 -7 0 -7 -1 0 0zm-341 -3l4 0 -2 -2 10 0 11 0 11 0 10 0 11 0 10 0 11 0 11 -1 10 0 11 0 10 0 11 0 11 0 10 0 11 0 10 0 11 0 11 0 10 0 11 0 10 0 11 0 11 0 10 0 11 0 10 0 11 0 11 1 10 0 11 0 10 1 11 0 0 4 -11 0 -10 0 -11 -1 -10 0 -11 0 -11 0 -10 0 -11 -1 -10 0 -11 0 -11 0 -10 0 -11 0 -10 0 -11 0 -11 0 -10 0 -11 0 -10 0 -11 1 -11 0 -10 0 -11 0 -10 0 -11 0 -11 0 -10 0 -11 0 -10 0 -11 0 -11 0 -10 0 -2 -2zm2 2l-2 0 0 -2 2 2zm0 -2l0 -4 2 2 0 0 0 0 0 0 0 0 0 1 0 0 0 0 0 0 0 0 0 0 0 0 0 0 0 0 0 0 0 0 0 0 0 0 0 0 0 0 0 0 0 0 0 1 0 0 0 0 0 0 0 0 0 0 0 0 0 0 0 0 0 0 0 0 -4 0 0 0 0 0 0 0 0 0 0 0 0 0 0 0 0 0 0 0 0 0 0 -1 0 0 0 0 0 0 0 0 0 0 0 0 0 0 0 0 0 0 0 0 0 0 0 0 0 0 0 0 0 0 0 0 0 -1 0 0 0 0 0 0 0 0 2 2zm0 -4l2 0 0 2 -2 -2zm1759 5l0 -4 0 0 11 -1 10 0 11 0 11 0 10 0 11 0 10 0 11 0 11 0 10 -1 11 0 10 0 11 0 11 0 10 0 11 0 10 0 11 1 11 0 10 0 11 0 10 0 11 0 11 0 10 0 11 0 10 0 11 0 11 0 10 0 11 0 10 0 0 4 -10 0 -11 0 -10 0 -11 0 -11 0 -10 0 -11 0 -10 0 -11 0 -11 0 -10 0 -11 0 -10 0 -11 0 -11 0 -10 0 -11 0 -10 0 -11 0 -11 0 -10 0 -11 0 -10 0 -11 0 -11 0 -10 0 -11 0 -10 0 -11 1 -11 0 -10 0 -11 0 0 0zm-160 -70l4 -3 0 0 4 4 3 5 4 4 4 4 5 4 4 3 4 4 4 3 5 4 4 3 5 3 4 3 5 2 4 3 5 2 5 2 5 2 5 2 5 2 5 1 5 2 5 1 6 1 5 1 6 1 5 1 6 1 6 0 5 0 6 1 6 0 6 0 0 4 -6 0 -6 0 -6 0 -6 0 -6 -1 -5 -1 -6 0 -6 -1 -5 -1 -6 -2 -5 -1 -5 -1 -5 -2 -6 -2 -5 -2 -5 -2 -5 -2 -5 -2 -4 -3 -5 -3 -5 -2 -4 -4 -5 -3 -4 -3 -5 -3 -4 -4 -4 -4 -5 -4 -4 -4 -4 -4 -4 -5 -4 -4 0 0zm-57 -68l4 -3 0 0 1 3 2 2 2 2 1 2 2 2 2 2 2 2 1 2 2 2 2 3 2 2 2 2 1 2 2 2 2 2 2 2 2 2 1 2 2 2 2 2 2 3 2 2 2 2 1 2 2 2 2 2 2 2 2 2 1 2 2 2 2 3 2 2 -4 3 -1 -3 -2 -2 -2 -2 -2 -2 -2 -2 -1 -2 -2 -2 -2 -2 -2 -2 -2 -2 -1 -3 -2 -2 -2 -2 -2 -2 -2 -2 -2 -2 -1 -2 -2 -2 -2 -2 -2 -2 -2 -2 -1 -3 -2 -2 -2 -2 -2 -2 -2 -2 -1 -2 -2 -2 -2 -2 -2 -3 -1 -2 -2 -2 0 0zm-38 -112l4 0 0 0 0 4 0 4 1 4 0 4 0 3 1 4 0 4 1 3 0 4 1 4 1 3 0 4 1 3 1 4 1 3 2 3 1 4 1 3 1 4 2 3 1 3 2 3 2 4 1 3 2 3 2 3 2 3 2 3 2 3 2 3 2 3 3 3 -4 3 -2 -3 -3 -3 -2 -3 -2 -3 -2 -3 -2 -4 -2 -3 -2 -3 -1 -3 -2 -4 -2 -3 -1 -3 -2 -4 -1 -3 -1 -4 -2 -3 -1 -4 -1 -3 -1 -4 -1 -3 -1 -4 0 -3 -1 -4 -1 -4 0 -4 -1 -3 0 -4 -1 -4 0 -4 0 -4 0 -4 0 -4 0 0zm-1 -485l4 -1 0 0 1 16 0 15 1 15 0 15 1 15 0 16 0 15 0 15 0 15 0 15 0 15 1 16 0 15 0 15 -1 15 0 15 0 16 0 15 0 15 0 15 0 15 0 16 0 15 -1 15 0 15 0 15 0 16 0 15 0 15 0 15 -1 15 0 15 -4 0 0 -15 0 -15 0 -15 0 -15 1 -15 0 -16 0 -15 0 -15 0 -15 0 -15 0 -16 1 -15 0 -15 0 -15 0 -15 0 -16 0 -15 0 -15 0 -15 0 -15 0 -15 0 -16 0 -15 0 -15 0 -15 -1 -15 0 -16 0 -15 -1 -15 0 -15 0 -15 -1 -15 0 0zm91 -226l4 3 0 0 -6 6 -5 6 -5 6 -5 6 -5 7 -5 6 -5 6 -4 6 -4 6 -4 7 -4 6 -4 7 -3 6 -4 7 -3 6 -3 7 -3 7 -2 7 -3 7 -2 7 -2 7 -2 7 -2 8 -1 7 -1 8 -1 8 -1 7 -1 8 0 8 -1 9 0 8 0 8 -4 1 0 -9 0 -8 0 -9 1 -8 0 -8 1 -8 1 -8 1 -7 2 -8 2 -8 2 -7 2 -7 2 -8 2 -7 3 -7 3 -7 3 -6 3 -7 4 -7 3 -7 4 -6 4 -7 4 -6 4 -6 5 -7 4 -6 5 -6 5 -6 5 -6 5 -7 6 -6 5 -6 0 0zm180 -76l0 4 0 0 -7 0 -7 0 -6 0 -7 1 -6 0 -6 1 -6 1 -6 1 -6 1 -6 2 -6 1 -6 2 -6 2 -5 2 -6 2 -5 2 -5 2 -6 3 -5 3 -5 3 -5 3 -5 3 -5 3 -5 4 -5 3 -5 4 -5 4 -5 4 -4 5 -5 4 -5 5 -4 4 -4 -3 5 -4 5 -5 5 -5 4 -4 5 -4 5 -4 5 -4 5 -4 5 -4 5 -3 5 -3 6 -3 5 -3 5 -3 6 -3 5 -2 6 -2 5 -3 6 -2 6 -1 6 -2 6 -2 6 -1 6 -1 6 -1 6 -1 7 -1 6 -1 7 0 6 0 7 0 7 0 0 0zm666 -1l0 5 0 0 -21 0 -20 0 -21 1 -21 0 -21 0 -21 1 -21 0 -20 0 -21 0 -21 0 -21 0 -21 0 -20 0 -21 0 -21 0 -21 0 -21 0 -21 0 -20 0 -21 0 -21 0 -21 0 -21 0 -21 0 -20 0 -21 -1 -21 0 -21 0 -21 0 -20 0 -21 -1 -21 0 0 -4 21 0 21 0 20 0 21 1 21 0 21 0 21 0 20 0 21 0 21 1 21 0 21 0 21 0 20 0 21 0 21 0 21 0 21 0 21 0 20 0 21 0 21 0 21 0 21 -1 20 0 21 0 21 0 21 0 21 -1 21 0 20 0 21 -1 0 0zm193 89l-3 3 0 0 -5 -5 -5 -5 -5 -5 -5 -5 -5 -5 -5 -4 -5 -5 -6 -4 -5 -4 -5 -4 -6 -3 -5 -4 -5 -3 -6 -4 -6 -3 -5 -3 -6 -2 -6 -3 -6 -2 -6 -2 -6 -2 -7 -2 -6 -2 -6 -1 -7 -1 -7 -2 -7 0 -7 -1 -7 -1 -7 0 -7 0 -8 0 0 -5 8 0 7 0 8 1 7 0 7 1 7 1 7 1 6 1 7 2 7 2 6 1 6 3 6 2 7 2 6 3 6 2 5 3 6 3 6 4 5 3 6 4 5 4 6 4 5 4 5 4 6 4 5 5 5 5 5 4 5 6 5 5 5 5 0 0zm79 211l-5 0 0 0 1 -8 0 -7 -1 -8 0 -7 0 -8 -1 -7 -1 -7 -1 -7 -1 -7 -1 -7 -2 -7 -1 -6 -2 -7 -2 -7 -3 -6 -2 -7 -2 -6 -3 -6 -3 -6 -3 -7 -3 -6 -3 -6 -4 -6 -4 -6 -4 -6 -4 -6 -4 -5 -4 -6 -5 -6 -4 -6 -5 -5 -5 -6 3 -3 5 6 5 6 5 5 4 6 5 6 4 6 4 6 4 6 4 6 3 6 4 6 3 6 3 7 3 6 3 6 2 7 3 6 2 7 2 7 2 6 2 7 1 7 1 7 2 7 1 7 0 8 1 7 1 7 0 8 0 8 0 7 0 8 0 0zm-1 449l-4 0 0 0 0 -14 -1 -14 0 -14 -1 -14 0 -14 -1 -14 0 -14 0 -14 0 -14 0 -14 -1 -14 0 -14 0 -14 0 -14 0 -14 0 -14 0 -14 0 -14 0 -14 0 -14 1 -14 0 -15 0 -14 0 -14 0 -14 1 -14 0 -14 1 -14 0 -14 0 -14 1 -14 0 -14 5 0 -1 14 0 14 -1 14 0 14 0 14 -1 14 0 14 0 14 -1 15 0 14 0 14 0 14 0 14 0 14 0 14 -1 14 0 14 1 14 0 14 0 14 0 14 0 14 0 14 0 14 1 14 0 14 0 14 1 14 0 14 1 14 0 14 0 14 0 0zm-86 212l-3 -3 0 0 5 -6 5 -6 4 -5 5 -6 5 -6 4 -6 4 -5 4 -6 4 -6 4 -6 4 -6 3 -6 4 -6 3 -6 3 -7 3 -6 3 -6 2 -7 3 -6 2 -7 2 -7 2 -6 1 -7 2 -7 1 -7 1 -8 1 -7 1 -7 0 -8 0 -8 0 -8 0 -8 4 0 1 8 0 8 -1 8 0 8 -1 7 -1 8 -1 7 -1 8 -1 7 -2 7 -2 7 -2 6 -2 7 -3 7 -2 6 -3 7 -3 6 -3 7 -3 6 -4 6 -3 6 -4 6 -4 6 -4 6 -4 6 -4 6 -5 6 -4 6 -5 5 -5 6 -5 6 -5 6 0 0zm-188 79l1 -4 0 0 7 0 7 0 7 0 6 0 7 -1 7 0 6 -1 6 -1 7 -1 6 -2 6 -1 6 -2 6 -2 6 -2 6 -2 5 -2 6 -3 5 -2 6 -3 5 -3 6 -4 5 -3 5 -4 5 -3 5 -4 5 -4 5 -5 5 -4 5 -5 5 -4 5 -5 5 -5 3 3 -5 5 -5 5 -5 5 -5 4 -5 5 -5 4 -5 4 -5 4 -5 4 -6 4 -5 3 -6 3 -5 4 -6 2 -5 3 -6 3 -6 2 -6 2 -6 3 -6 1 -6 2 -6 2 -6 1 -7 1 -6 1 -7 1 -7 1 -6 0 -7 1 -7 0 -7 0 -8 -1 0 0zm-341 -3l5 0 -3 -2 11 0 11 0 10 0 11 0 10 0 11 0 11 0 10 -1 11 0 10 0 11 0 11 0 10 0 11 0 10 0 11 0 11 0 10 0 11 0 10 0 11 0 11 0 10 0 11 0 10 0 11 0 11 0 10 1 11 0 10 0 11 1 11 0 -1 4 -10 0 -11 0 -10 -1 -11 0 -10 0 -11 0 -11 0 -10 -1 -11 0 -10 0 -11 0 -11 0 -10 0 -11 0 -10 0 -11 0 -11 0 -10 0 -11 0 -10 1 -11 0 -11 0 -10 0 -11 0 -10 0 -11 0 -11 0 -10 0 -11 0 -10 0 -11 0 -11 0 -2 -2zm2 2l-2 0 0 -2 2 2zm0 -2l0 -4 3 2 0 0 0 0 0 0 0 0 0 1 0 0 0 0 0 0 0 0 0 0 0 0 0 0 0 0 0 0 0 0 0 0 0 0 0 0 0 0 0 0 0 0 0 1 0 0 0 0 0 0 0 0 0 0 0 0 0 0 0 0 0 0 0 0 -5 0 0 0 0 0 0 0 0 0 0 0 0 0 0 0 0 0 0 0 0 0 0 -1 0 0 0 0 0 0 0 0 0 0 0 0 0 0 0 0 0 0 0 0 0 0 0 0 0 0 0 0 0 0 0 0 0 -1 0 0 0 0 0 0 0 0 2 2zm0 -4l3 0 0 2 -3 -2zm-2430 1844l0 -5 0 0 11 0 10 0 11 0 10 -1 11 0 11 0 10 0 11 0 10 0 11 0 11 0 10 0 11 0 10 0 11 0 11 0 10 0 11 0 10 0 11 0 11 0 10 0 11 0 10 0 11 0 11 0 10 0 11 0 10 0 11 0 11 1 10 0 0 4 -10 0 -11 0 -11 0 -10 0 -11 0 -10 0 -11 0 -11 0 -10 0 -11 0 -10 0 -11 0 -11 0 -10 0 -11 -1 -10 0 -11 0 -11 0 -10 0 -11 0 -10 0 -11 0 -11 1 -10 0 -11 0 -10 0 -11 0 -11 0 -10 0 -11 0 -10 0 -11 1 0 0zm-160 -71l4 -3 0 0 3 5 4 4 4 4 4 4 4 4 5 4 4 4 4 3 4 3 5 3 4 3 5 3 5 3 4 2 5 2 5 3 5 2 5 2 5 1 5 2 5 1 5 2 6 1 5 1 6 1 5 0 6 1 5 1 6 0 6 0 6 0 6 0 0 5 -6 0 -6 0 -6 -1 -6 0 -6 0 -5 -1 -6 -1 -6 -1 -5 -1 -6 -1 -5 -1 -5 -2 -6 -1 -5 -2 -5 -2 -5 -2 -5 -2 -5 -3 -5 -2 -4 -3 -5 -3 -5 -3 -4 -3 -5 -3 -4 -4 -4 -4 -5 -3 -4 -4 -4 -5 -4 -4 -4 -4 -4 -5 0 0zm-57 -67l3 -3 0 0 2 2 2 2 2 2 1 2 2 3 2 2 2 2 1 2 2 2 2 2 2 2 1 2 2 2 2 2 2 3 2 2 1 2 2 2 2 2 2 2 2 2 2 2 1 2 2 2 2 2 2 2 2 3 1 2 2 2 2 2 2 2 2 2 -4 3 -2 -2 -1 -2 -2 -2 -2 -2 -2 -3 -2 -2 -1 -2 -2 -2 -2 -2 -2 -2 -2 -2 -1 -2 -2 -2 -2 -2 -2 -2 -2 -2 -2 -3 -1 -2 -2 -2 -2 -2 -2 -2 -2 -2 -1 -2 -2 -2 -2 -2 -2 -2 -1 -3 -2 -2 -2 -2 -2 -2 -1 -2 -2 -2 0 0zm-38 -112l4 0 0 0 0 4 0 4 0 3 1 4 0 4 0 4 1 3 0 4 1 4 1 3 0 4 1 3 1 4 1 3 1 4 1 3 2 3 1 4 1 3 2 3 1 4 2 3 1 3 2 3 2 3 2 4 2 3 2 3 2 3 2 3 2 3 2 3 -3 3 -2 -3 -3 -4 -2 -3 -2 -3 -2 -3 -2 -3 -2 -3 -2 -4 -2 -3 -1 -3 -2 -4 -1 -3 -2 -3 -1 -4 -2 -3 -1 -4 -1 -3 -1 -4 -1 -3 -1 -4 -1 -3 -1 -4 0 -4 -1 -3 -1 -4 0 -4 0 -4 -1 -3 0 -4 0 -4 0 -4 0 -4 0 0zm-1 -486l4 0 0 0 1 15 0 15 1 16 0 15 0 15 1 15 0 15 0 15 0 16 0 15 0 15 0 15 0 15 0 16 0 15 0 15 0 15 0 15 0 16 0 15 0 15 0 15 -1 15 0 15 0 16 0 15 0 15 0 15 0 15 -1 16 0 15 0 15 -4 0 0 -15 0 -15 0 -16 0 -15 0 -15 0 -15 1 -15 0 -16 0 -15 0 -15 0 -15 0 -15 0 -16 1 -15 0 -15 0 -15 0 -15 0 -15 0 -16 0 -15 0 -15 0 -15 0 -15 0 -16 -1 -15 0 -15 0 -15 0 -15 -1 -15 0 -16 -1 -15 0 -15 0 0zm91 -225l3 3 0 0 -5 6 -5 6 -6 6 -5 6 -5 6 -4 6 -5 6 -4 7 -4 6 -5 6 -3 7 -4 6 -4 7 -3 6 -3 7 -3 7 -3 6 -3 7 -2 7 -2 7 -2 8 -2 7 -2 7 -1 8 -2 7 -1 8 -1 8 0 8 -1 8 0 8 0 9 0 8 -4 0 0 -8 0 -9 0 -8 0 -8 1 -8 1 -8 1 -8 1 -8 2 -8 1 -7 2 -8 2 -7 3 -7 2 -7 3 -7 3 -7 3 -7 3 -7 3 -6 4 -7 4 -7 4 -6 4 -7 4 -6 5 -6 4 -6 5 -7 5 -6 5 -6 5 -6 6 -6 5 -6 0 0zm180 -77l0 5 0 0 -7 0 -7 0 -6 0 -7 0 -6 1 -6 1 -7 1 -6 1 -6 1 -6 1 -5 2 -6 1 -6 2 -5 2 -6 2 -5 2 -6 3 -5 2 -5 3 -5 3 -6 3 -5 3 -5 4 -5 3 -4 4 -5 4 -5 4 -5 4 -5 4 -4 5 -5 4 -5 5 -3 -3 5 -5 5 -5 4 -4 5 -5 5 -4 5 -4 5 -4 5 -3 5 -4 5 -3 5 -4 5 -3 6 -3 5 -2 5 -3 6 -3 5 -2 6 -2 6 -2 6 -2 5 -2 6 -1 6 -1 7 -2 6 -1 6 -1 6 0 7 -1 6 0 7 -1 7 0 7 0 0 0zm666 0l0 4 0 0 -21 1 -21 0 -20 0 -21 1 -21 0 -21 0 -21 0 -21 0 -20 1 -21 0 -21 0 -21 0 -21 0 -20 0 -21 0 -21 0 -21 0 -21 0 -21 0 -20 0 -21 0 -21 0 -21 -1 -21 0 -21 0 -20 0 -21 0 -21 0 -21 -1 -21 0 -20 0 -21 0 0 -5 21 0 20 1 21 0 21 0 21 0 21 1 20 0 21 0 21 0 21 0 21 0 21 0 20 0 21 0 21 1 21 0 21 0 21 0 20 -1 21 0 21 0 21 0 21 0 20 0 21 0 21 0 21 -1 21 0 21 0 20 0 21 -1 21 0 0 0zm193 89l-4 3 0 0 -4 -6 -5 -5 -5 -5 -5 -5 -5 -4 -5 -5 -6 -4 -5 -4 -5 -4 -5 -4 -6 -4 -5 -4 -6 -3 -5 -3 -6 -3 -6 -3 -5 -3 -6 -2 -6 -3 -6 -2 -7 -2 -6 -2 -6 -1 -7 -2 -6 -1 -7 -1 -7 -1 -7 -1 -7 0 -7 -1 -7 0 -8 0 0 -4 8 0 7 0 7 0 8 1 7 1 7 1 7 1 6 1 7 1 6 2 7 2 6 2 6 2 6 3 6 2 6 3 6 3 6 3 6 3 5 4 6 3 5 4 6 4 5 4 5 4 5 5 6 4 5 5 5 5 5 5 5 5 5 6 0 0zm79 211l-5 0 0 0 0 -8 0 -8 0 -7 0 -8 -1 -7 0 -7 -1 -7 -1 -8 -1 -7 -2 -6 -1 -7 -2 -7 -2 -7 -2 -6 -2 -7 -2 -6 -3 -6 -2 -7 -3 -6 -3 -6 -3 -6 -4 -6 -3 -6 -4 -6 -4 -6 -4 -6 -4 -6 -4 -6 -5 -5 -5 -6 -4 -6 -6 -5 4 -3 5 5 5 6 5 6 4 6 5 5 4 6 4 6 4 6 4 6 3 7 4 6 3 6 3 6 3 7 3 6 2 6 3 7 2 7 2 6 2 7 1 7 2 7 1 7 1 7 1 7 1 7 1 8 0 7 1 8 0 7 0 8 0 8 0 0zm-1 449l-4 0 0 0 -1 -14 0 -14 -1 -14 0 -14 0 -14 -1 -14 0 -14 0 -14 0 -14 -1 -14 0 -14 0 -15 0 -14 0 -14 0 -14 0 -14 0 -14 0 -14 0 -14 0 -14 0 -14 1 -14 0 -14 0 -14 0 -14 1 -14 0 -14 0 -14 1 -14 0 -14 1 -14 0 -14 5 0 -1 14 0 14 -1 14 0 14 -1 14 0 14 0 14 -1 14 0 14 0 14 0 14 0 14 0 14 -1 14 0 14 0 14 0 14 0 14 0 14 0 14 1 14 0 15 0 14 0 14 0 14 1 14 0 14 0 14 1 14 0 14 1 14 0 14 0 0zm-86 211l-4 -3 0 0 5 -6 5 -5 5 -6 5 -6 4 -5 5 -6 4 -6 4 -6 4 -6 4 -6 4 -6 3 -6 4 -6 3 -6 3 -6 3 -6 3 -7 2 -6 2 -7 3 -6 2 -7 1 -7 2 -7 2 -7 1 -7 1 -7 1 -7 0 -8 1 -8 0 -7 0 -8 0 -8 4 0 0 8 0 8 0 8 0 7 -1 8 -1 7 -1 8 -1 7 -2 7 -1 7 -2 7 -2 7 -2 7 -3 6 -2 7 -3 6 -3 7 -3 6 -3 6 -4 7 -3 6 -4 6 -4 6 -4 6 -4 6 -5 6 -4 5 -5 6 -4 6 -5 6 -5 5 -5 6 0 0zm-188 80l0 -4 0 0 8 0 7 0 6 0 7 -1 7 0 6 -1 7 -1 6 -1 7 -1 6 -1 6 -2 6 -1 6 -2 6 -2 5 -2 6 -3 6 -2 5 -3 6 -3 5 -3 5 -3 6 -3 5 -4 5 -4 5 -4 5 -4 5 -4 5 -4 5 -5 5 -5 5 -5 4 -5 4 3 -5 5 -5 5 -5 5 -5 5 -5 4 -5 5 -5 4 -5 4 -6 4 -5 3 -5 4 -6 3 -5 3 -6 3 -5 3 -6 2 -6 3 -6 2 -6 2 -6 2 -6 2 -6 1 -7 2 -6 1 -6 1 -7 1 -7 0 -7 1 -6 0 -7 0 -7 0 -8 0 0 0zm-341 -3l4 0 -2 -3 11 0 10 0 11 0 11 0 10 0 11 0 10 0 11 0 11 0 10 0 11 0 10 0 11 0 11 -1 10 0 11 0 10 0 11 0 11 0 10 0 11 0 10 0 11 0 11 0 10 1 11 0 10 0 11 0 11 0 10 1 11 0 10 1 0 4 -10 0 -11 -1 -10 0 -11 0 -11 -1 -10 0 -11 0 -10 0 -11 0 -11 0 -10 0 -11 0 -10 0 -11 0 -11 0 -10 0 -11 0 -10 0 -11 0 -11 0 -10 0 -11 0 -10 0 -11 0 -11 0 -10 1 -11 0 -10 0 -11 0 -11 0 -10 0 -11 0 -2 -2zm2 2l-2 0 0 -2 2 2zm-2 -4l4 0 0 0 0 0 0 0 0 0 0 0 0 0 0 0 0 0 0 0 0 0 0 0 0 0 0 1 0 0 0 0 0 0 0 0 0 0 0 0 0 0 0 0 0 0 0 0 0 0 0 0 0 0 0 0 0 0 0 0 0 1 0 0 0 0 -4 0 0 0 0 0 0 -1 0 0 0 0 0 0 0 0 0 0 0 0 0 0 0 0 0 0 0 0 0 0 0 0 0 0 0 0 0 0 0 0 0 -1 0 0 0 0 0 0 0 0 0 0 0 0 0 0 0 0 0 0 0 0 0 0 0 0zm1762 3l0 -5 0 0 10 0 11 0 10 0 11 -1 11 0 10 0 11 0 10 0 11 0 11 0 10 0 11 0 10 0 11 0 11 0 10 0 11 0 10 0 11 0 11 0 10 0 11 0 10 0 11 0 11 0 10 0 11 0 10 0 11 0 11 0 10 1 11 0 0 4 -11 0 -10 0 -11 0 -11 0 -10 0 -11 0 -10 0 -11 0 -11 0 -10 0 -11 0 -10 0 -11 0 -11 0 -10 -1 -11 0 -10 0 -11 0 -11 0 -10 0 -11 0 -10 0 -11 1 -11 0 -10 0 -11 0 -10 0 -11 0 -11 0 -10 0 -11 0 -10 1 0 0zm-160 -71l3 -3 0 0 4 5 4 4 4 4 4 4 4 4 4 4 4 4 5 3 4 3 4 3 5 3 5 3 4 3 5 2 5 2 4 3 5 2 5 2 5 1 5 2 6 1 5 2 5 1 6 1 5 1 6 0 5 1 6 1 6 0 6 0 6 0 6 0 0 5 -6 0 -7 0 -5 -1 -6 0 -6 0 -6 -1 -6 -1 -5 -1 -6 -1 -5 -1 -6 -1 -5 -2 -5 -1 -5 -2 -5 -2 -5 -2 -5 -2 -5 -3 -5 -2 -5 -3 -4 -3 -5 -3 -5 -3 -4 -3 -4 -4 -5 -4 -4 -3 -4 -4 -4 -5 -4 -4 -4 -4 -4 -5 0 0zm0 0l0 0 0 0 0 0zm-58 -67l4 -3 0 0 2 2 1 2 2 2 2 2 2 3 1 2 2 2 2 2 2 2 1 2 2 2 2 2 2 2 2 2 1 3 2 2 2 2 2 2 2 2 2 2 1 2 2 2 2 2 2 2 2 2 1 2 2 3 2 2 2 2 2 2 1 2 2 2 -3 3 -2 -2 -2 -2 -2 -2 -1 -2 -2 -3 -2 -2 -2 -2 -2 -2 -1 -2 -2 -2 -2 -2 -2 -2 -2 -2 -1 -2 -2 -2 -2 -2 -2 -3 -2 -2 -2 -2 -1 -2 -2 -2 -2 -2 -2 -2 -2 -2 -1 -2 -2 -2 -2 -3 -2 -2 -1 -2 -2 -2 -2 -2 -2 -2 0 0zm-38 -112l5 0 0 0 0 4 0 4 0 3 0 4 1 4 0 4 0 3 1 4 1 4 0 3 1 4 1 3 1 4 1 3 1 4 1 3 1 3 1 4 2 3 1 3 2 4 1 3 2 3 2 3 1 3 2 4 2 3 2 3 2 3 2 3 3 3 2 3 -4 3 -2 -3 -2 -4 -2 -3 -2 -3 -3 -3 -2 -3 -1 -3 -2 -4 -2 -3 -2 -3 -1 -4 -2 -3 -1 -3 -2 -4 -1 -3 -1 -4 -1 -3 -1 -4 -1 -3 -1 -4 -1 -3 -1 -4 -1 -4 0 -3 -1 -4 0 -4 -1 -4 0 -3 0 -4 -1 -4 0 -4 0 -4 0 0zm-1 -486l5 0 0 0 0 15 1 15 0 16 1 15 0 15 0 15 0 15 1 15 0 16 0 15 0 15 0 15 0 15 0 16 0 15 0 15 0 15 0 15 0 16 -1 15 0 15 0 15 0 15 0 15 0 16 0 15 -1 15 0 15 0 15 0 16 0 15 0 15 -5 0 0 -15 1 -15 0 -16 0 -15 0 -15 0 -15 0 -15 0 -16 1 -15 0 -15 0 -15 0 -15 0 -16 0 -15 0 -15 0 -15 0 -15 0 -15 0 -16 0 -15 0 -15 0 -15 0 -15 0 -16 0 -15 0 -15 -1 -15 0 -15 0 -15 -1 -16 0 -15 -1 -15 0 0zm92 -225l3 3 0 0 -5 6 -6 6 -5 6 -5 6 -5 6 -5 6 -4 6 -5 7 -4 6 -4 6 -4 7 -4 6 -3 7 -3 6 -4 7 -3 7 -2 6 -3 7 -2 7 -3 7 -2 8 -2 7 -1 7 -2 8 -1 7 -1 8 -1 8 -1 8 0 8 0 8 0 9 0 8 -5 0 0 -8 0 -9 0 -8 1 -8 1 -8 0 -8 2 -8 1 -8 1 -8 2 -7 2 -8 2 -7 2 -7 3 -7 2 -7 3 -7 3 -7 4 -7 3 -6 4 -7 3 -7 4 -6 4 -7 5 -6 4 -6 5 -6 5 -7 4 -6 6 -6 5 -6 5 -6 6 -6 0 0zm179 -77l0 5 0 0 -6 0 -7 0 -7 0 -6 0 -7 1 -6 1 -6 1 -6 1 -6 1 -6 1 -6 2 -6 1 -5 2 -6 2 -5 2 -6 2 -5 3 -5 2 -6 3 -5 3 -5 3 -5 3 -5 4 -5 3 -5 4 -5 4 -5 4 -4 4 -5 4 -5 5 -4 4 -5 5 -3 -3 4 -5 5 -5 5 -4 5 -5 5 -4 4 -4 5 -4 5 -3 5 -4 6 -3 5 -4 5 -3 5 -3 6 -2 5 -3 5 -3 6 -2 6 -2 5 -2 6 -2 6 -2 6 -1 6 -1 6 -2 6 -1 7 -1 6 0 6 -1 7 0 7 -1 6 0 7 0 0 0zm667 0l0 4 0 0 -21 1 -21 0 -21 0 -21 1 -20 0 -21 0 -21 0 -21 0 -21 1 -21 0 -20 0 -21 0 -21 0 -21 0 -21 0 -21 0 -20 0 -21 0 -21 0 -21 0 -21 0 -20 0 -21 -1 -21 0 -21 0 -21 0 -21 0 -20 0 -21 -1 -21 0 -21 0 -21 0 0 -5 21 0 21 1 21 0 21 0 20 0 21 1 21 0 21 0 21 0 21 0 20 0 21 0 21 0 21 0 21 1 20 0 21 0 21 0 21 -1 21 0 21 0 20 0 21 0 21 0 21 0 21 0 20 -1 21 0 21 0 21 0 21 -1 21 0 0 0zm192 89l-3 3 0 0 -5 -6 -5 -5 -5 -5 -5 -5 -5 -4 -5 -5 -5 -4 -5 -4 -5 -4 -6 -4 -5 -4 -6 -4 -5 -3 -6 -3 -5 -3 -6 -3 -6 -3 -6 -2 -6 -3 -6 -2 -6 -2 -6 -2 -7 -1 -6 -2 -7 -1 -6 -1 -7 -1 -7 -1 -7 0 -8 -1 -7 0 -7 0 0 -4 7 0 8 0 7 0 7 1 7 1 7 1 7 1 7 1 6 1 7 2 6 2 7 2 6 2 6 3 6 2 6 3 6 3 6 3 5 3 6 4 5 3 6 4 5 4 6 4 5 4 5 5 5 4 5 5 5 5 5 5 5 5 5 6 0 0zm79 211l-4 0 0 0 0 -8 0 -8 0 -7 -1 -8 0 -7 -1 -7 0 -7 -1 -8 -2 -7 -1 -6 -1 -7 -2 -7 -2 -7 -2 -6 -2 -7 -2 -6 -3 -6 -3 -7 -2 -6 -4 -6 -3 -6 -3 -6 -4 -6 -3 -6 -4 -6 -4 -6 -4 -6 -5 -6 -4 -5 -5 -6 -5 -6 -5 -5 3 -3 5 5 5 6 5 6 5 6 4 5 4 6 5 6 3 6 4 6 4 7 3 6 3 6 4 6 2 7 3 6 3 6 2 7 2 7 2 6 2 7 2 7 1 7 2 7 1 7 1 7 1 7 0 8 1 7 0 8 0 7 0 8 0 8 0 0zm0 449l-5 0 0 0 0 -14 -1 -14 0 -14 0 -14 -1 -14 0 -14 0 -14 -1 -14 0 -14 0 -14 0 -14 0 -15 0 -14 -1 -14 0 -14 0 -14 0 -14 1 -14 0 -14 0 -14 0 -14 0 -14 0 -14 1 -14 0 -14 0 -14 1 -14 0 -14 0 -14 1 -14 0 -14 1 -14 4 0 0 14 -1 14 0 14 -1 14 0 14 0 14 -1 14 0 14 0 14 0 14 -1 14 0 14 0 14 0 14 0 14 0 14 0 14 0 14 0 14 0 14 0 14 0 15 1 14 0 14 0 14 0 14 1 14 0 14 0 14 1 14 0 14 1 14 0 0zm-87 211l-3 -3 0 0 5 -6 5 -5 5 -6 4 -6 5 -5 4 -6 5 -6 4 -6 4 -6 4 -6 3 -6 4 -6 3 -6 3 -6 3 -6 3 -6 3 -7 3 -6 2 -7 2 -6 2 -7 2 -7 2 -7 1 -7 1 -7 1 -7 1 -7 1 -8 0 -8 1 -7 0 -8 -1 -8 5 0 0 8 0 8 0 8 -1 7 0 8 -1 7 -1 8 -2 7 -1 7 -2 7 -2 7 -2 7 -2 7 -2 6 -3 7 -3 6 -2 7 -4 6 -3 6 -3 7 -4 6 -4 6 -4 6 -4 6 -4 6 -4 6 -5 5 -4 6 -5 6 -5 6 -5 5 -5 6 0 0zm-187 80l0 -4 0 0 7 0 7 0 7 0 7 -1 6 0 7 -1 6 -1 7 -1 6 -1 6 -1 6 -2 6 -1 6 -2 6 -2 6 -2 6 -3 5 -2 6 -3 5 -3 6 -3 5 -3 5 -3 5 -4 6 -4 5 -4 5 -4 5 -4 5 -4 5 -5 4 -5 5 -5 5 -5 3 3 -5 5 -4 5 -5 5 -5 5 -5 4 -5 5 -6 4 -5 4 -5 4 -5 3 -6 4 -5 3 -6 3 -5 3 -6 3 -6 2 -5 3 -6 2 -6 2 -6 2 -6 2 -7 1 -6 2 -6 1 -7 1 -6 1 -7 0 -7 1 -7 0 -7 0 -7 0 -7 0 0 0zm-341 -3l4 0 -2 -3 10 0 11 0 11 0 10 0 11 0 10 0 11 0 11 0 10 0 11 0 10 0 11 0 11 0 10 -1 11 0 10 0 11 0 11 0 10 0 11 0 10 0 11 0 11 0 10 0 11 1 10 0 11 0 11 0 10 0 11 1 10 0 11 1 0 4 -11 0 -10 -1 -11 0 -10 0 -11 -1 -11 0 -10 0 -11 0 -10 0 -11 0 -11 0 -10 0 -11 0 -10 0 -11 0 -11 0 -10 0 -11 0 -10 0 -11 0 -11 0 -10 0 -11 0 -10 0 -11 0 -11 1 -10 0 -11 0 -10 0 -11 0 -11 0 -10 0 -2 -2zm2 2l-2 0 0 -2 2 2zm-2 -4l4 0 0 0 0 0 0 0 0 0 0 0 0 0 0 0 0 0 0 0 0 0 0 0 0 0 0 1 0 0 0 0 0 0 0 0 0 0 0 0 0 0 0 0 0 0 0 0 0 0 0 0 0 0 0 0 0 0 0 0 0 1 0 0 0 0 -4 0 0 0 0 0 0 -1 0 0 0 0 0 0 0 0 0 0 0 0 0 0 0 0 0 0 0 0 0 0 0 0 0 0 0 0 0 0 0 0 0 -1 0 0 0 0 0 0 0 0 0 0 0 0 0 0 0 0 0 0 0 0 0 0 0 0z"/>
  </g>
 </g>
</svg>
