<?xml version="1.0" encoding="UTF-8"?>
<!DOCTYPE svg PUBLIC "-//W3C//DTD SVG 1.1//EN" "http://www.w3.org/Graphics/SVG/1.1/DTD/svg11.dtd">
<!-- Creator: CorelDRAW X8 -->
<svg xmlns="http://www.w3.org/2000/svg" xml:space="preserve" width="40mm" height="60mm" version="1.1" style="shape-rendering:geometricPrecision; text-rendering:geometricPrecision; image-rendering:optimizeQuality; fill-rule:evenodd; clip-rule:evenodd"
viewBox="0 0 4000 6000"
 xmlns:xlink="http://www.w3.org/1999/xlink">
 <defs>
  <style type="text/css">
   <![CDATA[
    .fil0 {fill:#332C2B;fill-rule:nonzero}
   ]]>
  </style>
 </defs>
 <g id="图层_x0020_1">
  <metadata id="CorelCorpID_0Corel-Layer"/>
  <g>
   <path class="fil0" d="M3268 5112l-198 0 0 -3 198 0 0 0 0 3zm30 -32l3 0 0 0 0 1 0 2 -1 2 0 1 0 2 -1 1 0 2 -1 1 0 2 -1 1 -1 1 -1 2 -1 1 -1 1 -1 1 -1 2 -1 1 -1 1 -1 1 -1 0 -2 1 -1 1 -1 1 -2 0 -1 1 -2 1 -1 0 -2 0 -2 1 -1 0 -2 0 -2 0 0 -3 2 0 1 0 2 0 1 -1 2 0 1 0 2 -1 1 0 1 -1 1 -1 2 0 1 -1 1 -1 1 -1 1 -1 1 -1 1 -1 1 -1 1 -1 1 -1 1 -1 0 -1 1 -2 0 -1 1 -1 0 -2 1 -1 0 -1 0 -2 1 -1 0 -2 0 -1 0 0zm3 -4174l0 4174 -3 0 0 -4174 0 0 3 0zm-33 -29l0 -4 0 0 2 1 2 0 1 0 2 0 2 1 1 0 2 0 1 1 2 1 1 0 1 1 2 1 1 1 1 1 1 1 1 1 1 1 1 1 1 2 1 1 1 1 1 1 1 2 0 1 1 2 0 1 1 2 0 1 0 2 1 2 0 1 0 2 -3 0 0 -2 0 -1 -1 -2 0 -1 0 -1 -1 -2 0 -1 -1 -2 0 -1 -1 -1 0 -1 -1 -2 -1 -1 -1 -1 -1 -1 -1 -1 -1 -1 -1 -1 -1 -1 -1 0 -1 -1 -2 -1 -1 -1 -1 0 -1 -1 -2 0 -1 -1 -2 0 -1 0 -2 0 -1 0 -2 0 0 0zm-199 -4l199 0 0 4 -199 0 -1 -2 1 -2zm0 4l-1 0 0 -2 1 2zm-267 -225l0 -4 0 0 12 1 12 1 12 1 12 2 12 2 12 3 11 4 12 4 11 4 11 5 11 6 11 6 10 6 10 7 10 7 9 7 9 8 9 8 8 9 8 8 8 10 7 9 6 10 7 10 5 10 5 11 5 11 4 11 3 11 3 11 2 12 2 12 -3 0 -2 -11 -2 -12 -3 -11 -3 -11 -4 -11 -4 -11 -6 -10 -5 -11 -6 -9 -7 -10 -7 -10 -7 -9 -8 -8 -8 -9 -9 -8 -9 -8 -9 -7 -10 -7 -10 -7 -10 -6 -10 -5 -11 -6 -11 -5 -11 -4 -12 -4 -11 -4 -12 -3 -11 -2 -12 -2 -12 -1 -12 -1 -12 0 0 0zm-1626 -4l1626 0 0 4 -1626 0 0 0 0 -4zm-267 229l0 -4 -2 2 2 -12 2 -12 3 -11 3 -11 4 -11 5 -11 5 -11 6 -10 6 -10 6 -10 8 -9 7 -10 8 -8 8 -9 9 -8 9 -8 10 -7 9 -7 10 -7 11 -6 10 -6 11 -6 11 -5 11 -4 12 -4 11 -4 12 -3 12 -2 12 -2 12 -1 12 -1 12 -1 0 4 -12 0 -12 1 -12 1 -11 2 -12 2 -12 3 -11 4 -12 4 -11 4 -11 5 -10 6 -11 5 -10 6 -10 7 -10 7 -9 7 -9 8 -9 8 -8 9 -8 8 -7 9 -7 10 -7 10 -6 9 -5 11 -5 10 -5 11 -4 11 -3 11 -3 11 -2 12 -2 11 -1 2zm1 -2l0 2 -1 0 1 -2zm-178 -2l177 0 0 4 -177 0 0 0 0 -4zm-30 33l-3 0 0 0 0 -2 0 -1 1 -2 0 -2 0 -1 1 -2 0 -1 1 -2 0 -1 1 -2 1 -1 1 -1 1 -1 1 -2 1 -1 1 -1 1 -1 1 -1 1 -1 1 -1 2 -1 1 -1 2 0 1 -1 1 -1 2 0 1 0 2 -1 2 0 1 0 2 0 2 -1 0 4 -2 0 -1 0 -2 0 -1 0 -2 0 -1 1 -2 0 -1 1 -1 0 -1 1 -2 1 -1 1 -1 0 -1 1 -1 1 -1 1 -1 1 -1 1 -1 1 -1 1 -1 2 0 1 -1 1 0 1 -1 2 0 1 -1 2 0 1 0 1 -1 2 0 1 0 2 0 0zm-3 4174l0 -4174 3 0 0 4174 0 0 -3 0zm33 29l0 3 0 0 -2 0 -2 0 -1 0 -2 -1 -2 0 -1 0 -2 -1 -1 -1 -1 0 -2 -1 -1 -1 -2 -1 -1 0 -1 -1 -1 -1 -1 -1 -1 -2 -1 -1 -1 -1 -1 -1 -1 -2 -1 -1 -1 -1 0 -2 -1 -1 0 -2 -1 -1 0 -2 0 -1 -1 -2 0 -2 0 -1 3 0 0 1 0 2 1 1 0 2 0 1 1 1 0 2 1 1 0 1 1 2 0 1 1 1 1 1 1 1 1 1 1 1 1 1 1 1 1 1 1 1 1 1 2 0 1 1 1 1 1 0 2 1 1 0 2 0 1 1 2 0 1 0 2 0 0 0zm176 3l-176 0 0 -3 176 0 1 1 -1 2zm0 -3l1 0 0 1 -1 -1zm257 239l0 4 0 0 -12 -1 -13 -1 -12 -1 -12 -2 -12 -3 -12 -3 -12 -4 -11 -4 -12 -5 -11 -5 -10 -6 -11 -6 -10 -7 -10 -7 -9 -8 -9 -8 -9 -8 -8 -9 -8 -9 -7 -9 -7 -10 -7 -10 -6 -11 -5 -10 -5 -11 -5 -12 -4 -11 -3 -12 -3 -12 -2 -12 -1 -12 -1 -12 3 -1 1 13 1 12 2 12 3 12 3 11 4 11 4 11 5 11 6 11 6 10 6 10 7 10 7 9 8 9 8 9 9 8 9 8 9 7 10 7 10 7 10 6 11 6 11 5 11 5 11 4 12 4 11 3 12 3 12 2 13 1 12 1 12 0 0 0zm1648 4l-1648 0 0 -4 1648 0 0 0 0 4zm257 -243l0 3 2 -1 -1 12 -1 12 -2 12 -3 12 -3 12 -4 11 -4 12 -5 11 -6 10 -6 11 -6 10 -7 10 -8 9 -8 9 -8 9 -9 8 -9 8 -9 8 -10 7 -10 7 -11 6 -10 6 -11 5 -11 5 -12 4 -12 4 -11 3 -12 3 -13 2 -12 1 -13 1 -12 1 0 -4 12 0 13 -1 12 -1 12 -2 12 -3 12 -3 11 -4 11 -4 12 -5 10 -5 11 -6 10 -6 10 -7 10 -7 9 -7 9 -8 9 -8 8 -9 8 -9 7 -9 7 -10 6 -10 6 -10 6 -11 5 -11 4 -11 4 -11 3 -11 3 -12 2 -12 1 -12 1 -13 1 -1zm-1 1l0 -1 1 0 -1 1zm100 -3502l3 0 0 0 0 2 0 2 0 3 1 2 0 2 1 2 1 2 0 1 1 2 1 2 1 2 1 2 1 1 2 2 1 1 1 2 2 1 1 2 2 1 2 1 1 1 2 1 2 1 2 1 2 1 2 0 2 1 2 0 2 1 2 0 2 0 2 0 0 3 -2 0 -3 0 -2 0 -2 -1 -2 0 -2 -1 -2 -1 -3 0 -2 -1 -1 -1 -2 -1 -2 -1 -2 -2 -2 -1 -1 -1 -2 -2 -1 -2 -2 -1 -1 -2 -1 -2 -2 -1 -1 -2 -1 -2 -1 -2 0 -2 -1 -2 -1 -3 0 -2 -1 -2 0 -2 0 -3 0 -2 0 0zm3 -504l0 504 -3 0 0 -504 0 0 3 0zm42 -45l0 3 0 0 -2 0 -2 0 -2 0 -2 1 -2 0 -2 1 -2 0 -2 1 -2 1 -2 1 -2 1 -1 1 -2 1 -2 1 -1 2 -2 1 -1 1 -1 2 -2 2 -1 1 -1 2 -1 2 -1 1 -1 2 0 2 -1 2 -1 2 0 2 -1 2 0 2 0 3 0 2 -3 0 0 -3 0 -2 0 -2 1 -2 0 -3 1 -2 1 -2 0 -2 1 -2 1 -2 1 -2 2 -2 1 -1 1 -2 2 -2 1 -1 2 -2 1 -1 2 -1 2 -2 2 -1 2 -1 1 -1 2 -1 3 -1 2 0 2 -1 2 -1 2 0 2 0 3 0 2 0 0 0zm0 1l0 0 0 0 0 0 0 -1 0 1zm45 44l-3 0 0 0 0 -2 0 -3 0 -2 -1 -2 0 -2 -1 -2 -1 -2 0 -2 -1 -2 -1 -1 -1 -2 -1 -2 -1 -1 -2 -2 -1 -2 -1 -1 -2 -1 -1 -2 -2 -1 -1 -1 -2 -1 -2 -1 -2 -1 -2 -1 -2 -1 -1 0 -2 -1 -2 0 -3 -1 -2 0 -2 0 -2 0 0 -3 2 0 3 0 2 0 2 0 2 1 2 1 3 0 2 1 2 1 2 1 1 1 2 1 2 2 2 1 1 1 2 2 1 1 2 2 1 2 1 1 2 2 1 2 1 2 1 2 0 2 1 2 1 2 0 3 1 2 0 2 0 2 0 3 0 0zm-3 504l0 -504 3 0 0 504 0 0 -3 0zm-42 45l0 -3 0 0 2 0 2 0 2 0 3 -1 2 0 2 -1 1 0 2 -1 2 -1 2 -1 2 -1 2 -1 1 -1 2 -1 1 -2 2 -1 1 -2 1 -1 2 -2 1 -1 1 -2 1 -2 1 -2 1 -2 0 -1 1 -2 1 -2 0 -2 1 -2 0 -3 0 -2 0 -2 3 0 0 2 0 3 0 2 -1 2 0 2 -1 3 -1 2 0 2 -1 2 -1 2 -1 2 -2 1 -1 2 -1 2 -2 1 -1 2 -2 2 -1 1 -2 1 -2 2 -2 1 -1 1 -2 1 -2 1 -2 0 -3 1 -2 1 -2 0 -2 1 -2 0 -3 0 -2 0 0 0zm0 -1l0 0 0 0 0 0 0 1 0 -1zm-45 942l3 0 0 0 0 2 0 2 0 1 1 2 0 2 1 2 0 2 1 1 1 2 1 2 0 1 1 2 1 1 2 1 1 2 1 1 1 1 2 1 1 2 1 1 2 1 2 0 1 1 2 1 1 1 2 0 2 1 2 0 2 1 1 0 2 0 2 0 0 3 -2 0 -2 0 -2 0 -2 -1 -2 0 -2 -1 -2 0 -1 -1 -2 -1 -2 -1 -2 -1 -1 -1 -2 -1 -1 -1 -2 -1 -1 -2 -2 -1 -1 -2 -1 -1 -1 -2 -1 -1 -1 -2 -1 -2 -1 -2 -1 -1 0 -2 -1 -2 0 -2 -1 -2 0 -2 0 -2 0 -2 0 0zm3 -654l0 654 -3 0 0 -654 0 0 3 0zm37 -40l0 3 0 0 -2 0 -2 0 -1 1 -2 0 -2 0 -2 1 -2 0 -1 1 -2 1 -1 1 -2 1 -2 1 -1 1 -1 1 -2 1 -1 1 -1 1 -1 2 -2 1 -1 2 -1 1 0 2 -1 1 -1 2 -1 2 0 1 -1 2 0 2 -1 2 0 2 0 2 0 1 -3 0 0 -2 0 -2 0 -2 1 -2 0 -2 1 -2 0 -1 1 -2 1 -2 1 -2 1 -1 1 -2 1 -2 1 -1 1 -2 2 -1 1 -1 2 -2 1 -1 2 -1 1 -1 2 -1 2 -1 2 -1 1 0 2 -1 2 -1 2 0 2 0 2 -1 2 0 2 0 0 0zm0 2l0 0 0 0 0 0 0 -2 0 2zm41 38l-3 0 0 0 -1 -1 0 -2 0 -2 0 -2 -1 -2 0 -2 -1 -1 0 -2 -1 -2 -1 -1 -1 -2 -1 -1 -1 -2 -1 -1 -1 -2 -1 -1 -2 -1 -1 -1 -1 -1 -2 -1 -1 -1 -2 -1 -2 -1 -1 -1 -2 -1 -2 0 -1 -1 -2 0 -2 0 -2 -1 -2 0 -2 0 0 -3 2 0 2 0 2 1 2 0 2 0 2 1 2 1 2 0 2 1 1 1 2 1 2 1 1 1 2 1 1 2 2 1 1 1 1 2 2 1 1 2 1 2 1 1 1 2 0 2 1 2 1 1 0 2 1 2 0 2 0 2 1 2 0 2 0 0zm-3 654l0 -654 3 0 0 654 0 0 -3 0zm-38 40l0 -3 0 0 2 0 2 0 2 0 2 -1 2 0 1 -1 2 0 2 -1 1 -1 2 -1 2 0 1 -1 2 -1 1 -2 1 -1 2 -1 1 -1 1 -2 1 -1 1 -1 1 -2 1 -1 1 -2 1 -2 0 -1 1 -2 0 -2 1 -2 0 -2 0 -1 0 -2 1 -2 3 0 0 2 -1 2 0 2 0 2 -1 2 0 2 -1 2 -1 1 0 2 -1 2 -1 2 -1 1 -1 2 -2 1 -1 2 -1 1 -2 2 -1 1 -2 1 -1 1 -2 1 -2 1 -1 1 -2 1 -2 1 -2 0 -2 1 -2 0 -2 1 -2 0 -2 0 -2 0 0 0zm0 -1l0 0 0 0 0 0 0 1 0 -1zm-2491 -47l4 0 0 0 0 1 0 2 0 2 0 2 1 2 0 2 1 1 0 2 1 2 1 1 1 2 1 1 1 2 1 1 1 2 1 1 2 1 1 1 1 1 2 1 1 1 2 1 2 1 1 1 2 1 2 0 1 1 2 0 2 0 2 1 2 0 2 0 0 3 -2 0 -2 0 -2 -1 -2 0 -2 0 -2 -1 -2 -1 -2 0 -2 -1 -1 -1 -2 -1 -2 -1 -1 -1 -2 -1 -1 -2 -2 -1 -1 -1 -1 -2 -2 -1 -1 -2 -1 -2 -1 -1 -1 -2 0 -2 -1 -2 -1 -1 0 -2 -1 -2 0 -2 0 -2 0 -2 -1 -2 0 0zm4 -329l0 329 -4 0 0 -329 0 0 4 0zm37 -40l0 3 0 0 -2 0 -2 0 -2 0 -2 0 -2 1 -1 0 -2 1 -2 1 -1 0 -2 1 -2 1 -1 1 -2 1 -1 1 -1 1 -2 2 -1 1 -1 1 -1 2 -1 1 -1 2 -1 1 -1 2 -1 1 0 2 -1 2 0 2 -1 1 0 2 0 2 0 2 0 2 -4 0 1 -2 0 -2 0 -2 0 -2 1 -2 0 -2 1 -2 1 -2 0 -2 1 -1 1 -2 1 -2 1 -1 2 -2 1 -1 1 -2 2 -1 1 -1 2 -1 1 -2 2 -1 2 -1 1 0 2 -1 2 -1 2 -1 2 0 2 -1 2 0 2 0 2 0 2 0 0 0zm0 1l0 0 0 0 0 0 0 -1 0 1zm40 39l-3 0 0 0 0 -2 0 -2 0 -2 -1 -2 0 -1 -1 -2 0 -2 -1 -2 -1 -1 0 -2 -1 -1 -1 -2 -1 -1 -1 -2 -2 -1 -1 -1 -1 -2 -2 -1 -1 -1 -1 -1 -2 -1 -1 -1 -2 -1 -2 0 -1 -1 -2 -1 -2 0 -2 -1 -2 0 -1 0 -2 0 -2 0 0 -3 2 0 2 0 2 0 2 0 2 1 2 0 2 1 1 1 2 1 2 0 2 1 1 1 2 2 1 1 2 1 1 1 2 2 1 1 1 2 1 1 1 2 1 2 1 1 1 2 1 2 0 2 1 2 0 2 1 2 0 2 0 2 0 2 0 0zm-3 329l0 -329 3 0 0 329 0 0 -3 0zm-37 40l0 -3 0 0 2 0 2 0 1 -1 2 0 2 0 2 -1 2 0 1 -1 2 -1 2 -1 1 -1 2 -1 1 -1 1 -1 2 -1 1 -1 1 -1 2 -2 1 -1 1 -2 1 -1 1 -2 0 -1 1 -2 1 -2 0 -1 1 -2 0 -2 1 -2 0 -2 0 -2 0 -1 3 0 0 2 0 2 0 2 -1 2 0 2 -1 2 0 1 -1 2 -1 2 -1 2 -1 1 -1 2 -1 2 -1 1 -1 2 -2 1 -1 1 -2 2 -1 1 -2 1 -1 1 -2 1 -2 1 -2 1 -1 0 -2 1 -2 1 -2 0 -2 0 -2 1 -2 0 -2 0 0 0zm0 -2l0 0 0 0 0 0 0 2 0 -2zm1087 -828l3 0 0 0 0 7 1 7 1 7 1 7 2 7 1 7 3 6 2 7 3 6 3 6 4 6 3 6 4 5 4 5 5 6 5 4 4 5 6 5 5 4 5 4 6 3 6 4 6 3 6 3 7 2 6 3 7 1 7 2 7 1 7 1 7 1 7 0 0 3 -7 0 -7 -1 -8 -1 -7 -1 -7 -2 -6 -2 -7 -2 -7 -2 -6 -3 -6 -3 -6 -4 -6 -4 -6 -4 -5 -4 -6 -5 -5 -4 -4 -5 -5 -6 -4 -5 -4 -6 -4 -6 -4 -6 -3 -6 -3 -6 -2 -7 -2 -7 -2 -6 -2 -7 -1 -7 -1 -8 -1 -7 0 -7 0 0zm3 -115l0 115 -3 0 0 -115 0 0 3 0zm141 -144l0 3 0 0 -7 0 -7 1 -7 0 -7 2 -7 1 -7 2 -6 2 -7 3 -6 3 -6 3 -6 3 -6 4 -5 4 -5 4 -6 5 -4 4 -5 5 -5 5 -4 6 -4 5 -3 6 -4 6 -3 6 -3 6 -2 7 -3 6 -1 7 -2 7 -1 7 -1 7 -1 7 0 7 -3 0 0 -7 1 -8 1 -7 1 -7 2 -7 2 -7 2 -6 2 -7 3 -6 3 -7 4 -6 4 -6 4 -5 4 -6 5 -5 4 -5 5 -5 6 -4 5 -5 6 -4 6 -3 6 -4 6 -3 6 -3 7 -2 7 -3 6 -2 7 -1 7 -2 8 -1 7 0 7 0 0 0zm0 1l0 0 0 0 0 0 0 -1 0 1zm145 143l-3 0 0 0 0 -7 -1 -7 -1 -7 -1 -7 -2 -7 -2 -7 -2 -6 -2 -7 -3 -6 -3 -6 -4 -6 -3 -6 -4 -5 -4 -6 -5 -5 -5 -5 -4 -4 -6 -5 -5 -4 -5 -4 -6 -4 -6 -3 -6 -3 -6 -3 -7 -3 -6 -2 -7 -2 -7 -1 -7 -2 -7 0 -7 -1 -8 0 0 -3 8 0 7 0 7 1 8 2 7 1 6 2 7 3 7 2 6 3 6 3 6 4 6 3 6 4 5 5 6 4 5 5 4 5 5 5 4 6 4 5 4 6 3 6 4 7 3 6 2 7 2 6 2 7 2 7 1 7 1 7 1 8 0 7 0 0zm-3 115l0 -115 3 0 0 115 0 0 -3 0zm-142 144l0 -3 0 0 8 0 7 -1 7 -1 7 -1 7 -2 7 -1 6 -3 7 -2 6 -3 6 -3 6 -4 6 -3 5 -4 5 -4 6 -5 4 -5 5 -4 5 -6 4 -5 4 -5 3 -6 4 -6 3 -6 3 -6 2 -7 2 -6 2 -7 2 -7 1 -7 1 -7 1 -7 0 -7 3 0 0 7 -1 7 -1 8 -1 7 -2 7 -2 6 -2 7 -2 7 -3 6 -4 6 -3 6 -4 6 -4 6 -4 5 -5 6 -4 5 -5 4 -6 5 -5 4 -6 4 -6 4 -6 4 -6 3 -6 3 -7 2 -7 2 -6 2 -7 2 -8 1 -7 1 -7 1 -8 0 0 0zm0 -2l0 0 0 0 0 0 0 2 0 -2zm-709 -889l-14 1 -1 -3 15 -1 1 3 -1 0zm1 0l-1 0 0 0 1 0zm13 -4l-13 4 -1 -3 13 -4 1 3 0 0zm0 0l0 0 0 0 0 0zm11 -7l-11 7 -2 -3 12 -7 2 2 -1 1zm1 -1l0 1 -1 0 1 -1zm10 -8l-10 8 -2 -2 10 -8 3 2 -1 0zm1 0l-1 0 0 0 1 0zm8 -10l-8 10 -3 -2 9 -10 2 2 0 0zm0 0l0 0 0 0 0 0zm6 -13l-6 13 -2 -2 6 -12 3 1 -1 0zm1 0l-1 0 0 0 1 0zm3 -13l-3 13 -3 -1 3 -13 3 1 0 0zm0 0l0 0 0 0 0 0zm2 -14l-2 14 -3 -1 2 -14 3 0 0 1zm0 -1l0 1 0 0 0 -1zm-2 -13l2 13 -3 1 -2 -14 3 -1 0 1zm0 -1l0 1 0 0 0 -1zm-3 -13l3 13 -3 1 -3 -13 2 -1 1 0zm-1 0l0 0 1 0 -1 0zm-6 -12l6 12 -2 1 -6 -12 2 -2 0 1zm0 -1l0 1 0 0 0 -1zm-8 -10l8 10 -2 2 -9 -10 2 -2 1 0zm-1 0l0 0 1 0 -1 0zm-10 -8l10 8 -2 3 -10 -9 1 -2 1 0zm-1 0l1 0 0 0 -1 0zm-11 -7l11 7 -1 2 -12 -7 2 -2 0 0zm0 0l0 0 0 0 0 0zm-13 -4l13 4 -1 3 -13 -4 0 -3 1 0zm-1 0l0 0 1 0 -1 0zm-14 -2l14 2 0 3 -15 -2 0 -3 1 0zm-1 0l0 0 1 0 -1 0zm-14 2l14 -2 1 3 -14 2 -1 -3 0 0zm0 0l0 0 0 0 0 0zm-13 4l13 -4 1 3 -13 4 -1 -3 0 0zm0 0l0 0 0 0 0 0zm-12 7l12 -7 1 2 -11 7 -2 -2 0 0zm0 0l0 0 0 0 0 0zm-11 8l11 -8 2 2 -11 9 -2 -3 0 0zm0 0l0 0 0 0 0 0zm-8 10l8 -10 2 2 -8 10 -3 -1 1 -1zm-1 1l1 0 0 -1 -1 1zm-6 12l6 -12 3 1 -6 12 -3 -1 0 0zm0 0l0 0 0 0 0 0zm-4 13l4 -13 3 1 -4 13 -3 0 0 -1zm0 1l0 -1 0 0 0 1zm-1 14l1 -14 3 0 -1 14 -3 0 0 0zm0 0l0 0 0 0 0 0zm1 14l-1 -14 3 0 1 13 -3 1 0 0zm0 0l0 0 0 0 0 0zm4 13l-4 -13 3 -1 4 13 -3 1 0 0zm0 0l0 0 0 0 0 0zm6 13l-6 -13 3 -1 6 12 -2 2 -1 0zm1 0l0 0 -1 0 1 0zm8 10l-8 -10 2 -2 8 10 -2 2 0 0zm0 0l0 0 0 0 0 0zm11 8l-11 -8 2 -2 11 8 -2 3 0 -1zm0 1l0 0 0 -1 0 1zm12 7l-12 -7 2 -3 11 7 -1 3 0 0zm0 0l0 0 0 0 0 0zm13 4l-13 -4 1 -3 13 4 -1 3 0 0zm0 0l0 0 0 0 0 0zm14 1l-14 -1 1 -3 14 1 0 3 -1 0zm1 0l-1 0 0 0 1 0zm295 -1l-14 1 0 -3 13 -1 1 3 0 0zm0 0l0 0 0 0 0 0zm13 -4l-13 4 -1 -3 13 -4 1 3 0 0zm0 0l0 0 0 0 0 0zm13 -7l-13 7 -1 -3 12 -7 2 2 0 1zm0 -1l0 1 0 0 0 -1zm10 -8l-10 8 -2 -2 10 -8 2 2 0 0zm0 0l0 0 0 0 0 0zm9 -10l-9 10 -2 -2 8 -10 3 2 0 0zm0 0l0 0 0 0 0 0zm6 -13l-6 13 -3 -2 6 -12 3 1 0 0zm0 0l0 0 0 0 0 0zm5 -13l-5 13 -3 -1 5 -13 3 1 0 0zm0 0l0 0 0 0 0 0zm1 -14l-1 14 -3 -1 1 -14 3 0 0 1zm0 -1l0 1 0 0 0 -1zm-1 -13l1 13 -3 1 -1 -14 3 -1 0 1zm0 -1l0 0 0 1 0 -1zm-5 -13l5 13 -3 1 -5 -13 3 -1 0 0zm0 0l0 0 0 0 0 0zm-6 -12l6 12 -3 1 -6 -12 3 -2 0 1zm0 -1l0 1 0 0 0 -1zm-9 -10l9 10 -3 2 -8 -10 2 -2 0 0zm0 0l0 0 0 0 0 0zm-10 -8l10 8 -2 3 -10 -9 2 -2 0 0zm0 0l0 0 0 0 0 0zm-13 -7l13 7 -2 2 -12 -7 1 -2 0 0zm0 0l0 0 0 0 0 0zm-13 -4l13 4 -1 3 -13 -4 1 -3 0 0zm0 0l0 0 0 0 0 0zm-14 -2l14 2 -1 3 -13 -2 0 -3 0 0zm0 0l0 0 0 0 0 0zm-15 2l15 -2 0 3 -15 2 0 -3 0 0zm0 0l0 0 0 0 0 0zm-13 4l13 -4 1 3 -13 4 -2 -3 1 0zm-1 0l0 0 1 0 -1 0zm-11 7l11 -7 2 2 -12 7 -1 -2 0 0zm0 0l0 0 0 0 0 0zm-11 8l11 -8 2 2 -11 9 -2 -3 0 0zm0 0l0 0 0 0 0 0zm-9 10l9 -10 2 2 -8 10 -3 -1 0 -1zm0 1l0 0 0 -1 0 1zm-6 12l6 -12 3 1 -6 12 -3 -1 0 0zm0 0l0 0 0 0 0 0zm-4 13l4 -13 3 1 -4 13 -3 0 0 -1zm0 1l0 0 0 -1 0 1zm-2 13l2 -13 3 0 -2 14 -3 0 0 -1zm0 1l0 0 0 -1 0 1zm2 14l-2 -14 3 -1 2 14 -3 1 0 0zm0 0l0 0 0 0 0 0zm4 13l-4 -13 3 -1 4 13 -3 1 0 0zm0 0l0 0 0 0 0 0zm6 13l-6 -13 3 -1 6 12 -3 2 0 0zm0 0l0 0 0 0 0 0zm9 10l-9 -10 3 -2 8 10 -2 2 0 0zm0 0l0 0 0 0 0 0zm11 8l-11 -8 2 -2 11 8 -2 3 0 -1zm0 1l0 0 0 -1 0 1zm11 7l-11 -7 1 -3 12 7 -1 3 -1 0zm1 0l-1 0 0 0 1 0zm13 4l-13 -4 1 -3 13 4 -1 3 0 0zm0 0l0 0 0 0 0 0zm15 1l-15 -1 0 -3 15 1 0 3 0 0zm0 0l0 0 0 0 0 0zm23 46l-330 0 0 -3 330 0 0 3 0 0zm0 0l0 0 0 0 0 0zm30 -4l-30 4 0 -3 30 -4 0 3 0 0zm0 0l0 0 0 0 0 0zm27 -11l-27 11 -1 -3 27 -11 2 3 -1 0zm1 0l0 0 -1 0 1 0zm12 -9l-12 9 -2 -3 12 -8 2 2 0 0zm0 0l0 0 0 0 0 0zm12 -10l-12 10 -2 -2 12 -10 2 2 0 0zm0 0l0 0 0 0 0 0zm9 -11l-9 11 -3 -2 10 -11 2 2 0 0zm0 0l0 0 0 0 0 0zm9 -12l-9 12 -2 -2 8 -12 3 1 0 1zm0 -1l0 1 0 0 0 -1zm11 -28l-11 28 -3 -1 11 -28 3 1 0 0zm0 0l0 0 0 0 0 0zm4 -30l-4 30 -3 -1 4 -29 3 0 0 0zm0 0l0 0 0 0 0 0zm-4 -29l4 29 -3 0 -4 -29 3 -1 0 1zm0 -1l0 1 0 0 0 -1zm-11 -27l11 27 -3 2 -11 -28 3 -2 0 1zm0 -1l0 1 0 0 0 -1zm-9 -12l9 12 -3 2 -8 -12 2 -2 0 0zm0 0l0 0 0 0 0 0zm-9 -11l9 11 -2 2 -10 -12 3 -2 0 1zm0 -1l0 0 0 1 0 -1zm-12 -10l12 10 -2 3 -12 -10 2 -3 0 0zm0 0l0 0 0 0 0 0zm-12 -8l12 8 -2 3 -12 -8 1 -3 1 0zm-1 0l0 0 1 0 -1 0zm-27 -11l27 11 -1 3 -27 -11 1 -3 0 0zm0 0l0 0 0 0 0 0zm-30 -4l30 4 0 3 -30 -4 0 -3 0 0zm0 0l0 0 0 0 0 0zm-330 0l330 0 0 3 -330 0 0 -3 0 0zm0 0l0 0 0 0 0 0zm-30 4l30 -4 0 3 -30 4 0 -3 0 0zm0 0l0 0 0 0 0 0zm-28 11l28 -11 1 3 -28 11 -1 -3 0 0zm0 0l0 0 0 0 0 0zm-13 8l13 -8 1 3 -12 8 -2 -3 0 0zm0 0l0 0 0 0 0 0zm-11 10l11 -10 2 3 -11 10 -2 -3 0 0zm0 0l0 0 0 0 0 0zm-10 12l10 -12 3 2 -10 12 -3 -2 0 0zm0 0l0 0 0 0 0 0zm-8 12l8 -12 3 2 -9 12 -2 -1 0 -1zm0 1l0 0 0 -1 0 1zm-12 27l12 -27 2 1 -11 28 -3 -1 0 -1zm0 1l0 0 0 -1 0 1zm-4 29l4 -29 3 0 -4 29 -3 0 0 0zm0 0l0 0 0 0 0 0zm4 30l-4 -30 3 0 4 29 -3 1 0 0zm0 0l0 0 0 0 0 0zm12 28l-12 -28 3 -1 11 28 -2 2 0 -1zm0 1l0 0 0 -1 0 1zm8 12l-8 -12 2 -2 9 12 -3 2 0 0zm0 0l0 0 0 0 0 0zm10 11l-10 -11 3 -2 10 11 -3 2 0 0zm0 0l0 0 0 0 0 0zm11 10l-11 -10 2 -2 11 10 -2 2 0 0zm0 0l0 0 0 0 0 0zm13 9l-13 -9 2 -2 12 8 -1 3 0 0zm0 0l0 0 0 0 0 0zm28 11l-28 -11 1 -3 28 11 -1 3 0 0zm0 0l0 0 0 0 0 0zm30 4l-30 -4 0 -3 30 4 0 3 0 0zm0 0l0 0 0 0 0 0zm469 -29l-15 14 -2 -2 14 -15 1 0 2 3zm-3 -3l0 0 1 0 -1 0zm20 -8l-18 11 -1 -3 17 -11 1 0 1 3zm-2 -3l0 0 1 0 -1 0zm21 -3l-19 6 -1 -3 19 -6 0 0 1 3zm-1 -3l0 0 0 0 0 0zm21 1l-20 2 -1 -3 20 -2 0 0 1 3zm-1 -3l0 0 0 0 0 0zm63 3l-63 0 0 -3 63 0 1 3 -1 0zm1 0l-1 0 0 0 1 0zm17 -3l-17 3 -1 -3 18 -3 1 3 -1 0zm1 0l-1 0 0 0 1 0zm16 -7l-16 7 -2 -3 17 -6 1 2 0 0zm0 0l0 0 0 0 0 0zm15 -10l-15 10 -2 -2 15 -11 2 2 0 1zm0 -1l0 0 0 1 0 -1zm11 -14l-11 14 -2 -2 10 -14 3 1 0 1zm0 -1l0 0 0 1 0 -1zm7 -16l-7 16 -3 -1 7 -16 3 1 0 0zm0 0l0 0 0 0 0 0zm2 -18l-2 18 -3 -1 2 -17 3 0 0 0zm0 0l0 0 0 0 0 0zm-2 -18l2 18 -3 0 -2 -18 3 0 0 0zm0 0l0 0 0 0 0 0zm-7 -17l7 17 -3 1 -7 -16 3 -2 0 0zm0 0l0 0 0 0 0 0zm-11 -14l11 14 -3 2 -10 -15 2 -2 0 1zm0 -1l0 0 0 1 0 -1zm-15 -11l15 11 -2 3 -15 -11 2 -3 0 0zm0 0l0 0 0 0 0 0zm-16 -7l16 7 -1 3 -17 -7 1 -3 1 0zm-1 0l0 0 1 0 -1 0zm-17 -2l17 2 0 3 -18 -2 0 -3 1 0zm-1 0l0 0 1 0 -1 0zm-63 0l63 0 0 3 -63 0 0 0 0 -3zm0 3l0 0 0 0 0 0zm-19 -5l20 2 -1 3 -20 -2 0 0 1 -3zm-1 3l0 0 0 0 0 0zm-18 -9l19 6 -1 3 -19 -7 -1 0 2 -2zm-1 2l-1 0 0 0 1 0zm-17 -13l18 11 -2 2 -17 -10 -1 -1 2 -2zm-1 3l-1 -1 0 0 1 1zm-13 -17l15 14 -3 2 -14 -14 0 0 2 -2zm-2 2l0 0 0 0 0 0zm-10 -16l12 14 -2 2 -13 -14 3 -2 0 0zm0 0l0 0 0 0 0 0zm-14 -12l14 12 -2 2 -14 -12 2 -2 0 0zm0 0l0 0 0 0 0 0zm-30 -19l30 19 -2 3 -30 -20 1 -2 1 0zm-1 0l0 0 1 0 -1 0zm-34 -12l34 12 -1 3 -34 -12 1 -3 0 0zm0 0l0 0 0 0 0 0zm-36 -4l36 4 0 3 -36 -4 0 -3 0 0zm0 0l0 0 0 0 0 0zm-324 0l324 0 0 3 -324 0 0 -3 0 0zm0 0l0 0 0 0 0 0zm-21 1l21 -1 0 3 -21 1 -1 -3 1 0zm-1 0l1 0 0 0 -1 0zm-20 5l20 -5 1 3 -21 5 -1 -3 1 0zm-1 0l1 0 0 0 -1 0zm-20 7l20 -7 1 3 -20 6 -1 -2 0 0zm0 0l0 0 0 0 0 0zm-18 9l18 -9 2 2 -19 10 -1 -3 0 0zm0 0l0 0 0 0 0 0zm-18 11l18 -11 1 3 -17 11 -2 -2 0 -1zm0 1l0 -1 0 0 0 1zm-16 13l16 -13 2 2 -16 14 -2 -2 0 -1zm0 1l0 -1 0 0 0 1zm-14 16l14 -16 2 2 -14 16 -2 -2 0 0zm0 0l0 0 0 0 0 0zm-12 18l12 -18 2 2 -11 17 -3 -1 0 0zm0 0l0 0 0 0 0 0zm-10 19l10 -19 3 1 -10 19 -3 -1 0 0zm0 0l0 0 0 0 0 0zm-7 21l7 -21 3 1 -7 21 -3 -1 0 0zm0 0l0 0 0 0 0 0zm-4 21l4 -21 3 1 -4 20 -3 0 0 0zm0 0l0 0 0 0 0 0zm-2 21l2 -21 3 0 -1 21 -4 0 0 0zm0 0l0 0 0 0 0 0zm2 21l-2 -21 4 0 1 21 -3 0 0 0zm0 0l0 0 0 0 0 0zm4 21l-4 -21 3 -1 4 21 -3 1 0 0zm0 0l0 0 0 0 0 0zm7 20l-7 -20 3 -1 7 20 -3 1 0 0zm0 0l0 0 0 0 0 0zm10 19l-10 -19 3 -1 10 19 -3 1 0 0zm0 0l0 0 0 0 0 0zm12 19l-12 -19 3 -1 11 18 -2 2 0 0zm0 0l0 0 0 0 0 0zm14 16l-14 -16 2 -2 14 16 -2 2 0 0zm0 0l0 0 0 0 0 0zm16 14l-16 -14 2 -2 16 14 -2 2 0 0zm0 0l0 0 0 0 0 0zm18 12l-18 -12 2 -2 17 11 -1 3 0 0zm0 0l0 0 0 0 0 0zm18 9l-18 -9 1 -3 19 9 -2 3 0 0zm0 0l0 0 0 0 0 0zm20 7l-20 -7 1 -3 20 7 0 3 -1 0zm1 0l0 0 -1 0 1 0zm20 4l-20 -4 0 -3 21 4 0 3 -1 0zm1 0l-1 0 0 0 1 0zm21 2l-21 -2 0 -3 21 2 0 3 0 0zm0 0l0 0 0 0 0 0zm324 0l-324 0 0 -3 324 0 0 3 0 0zm0 0l0 0 0 0 0 0zm36 -4l-36 4 0 -3 36 -4 0 3 0 0zm0 0l0 0 0 0 0 0zm34 -12l-34 12 -1 -3 34 -12 2 3 -1 0zm1 0l-1 0 0 0 1 0zm30 -19l-30 19 -2 -3 30 -19 2 3 0 0zm0 0l0 0 0 0 0 0zm14 -13l-14 13 -2 -3 14 -12 2 2 0 0zm0 0l0 0 0 0 0 0zm12 -13l-12 13 -3 -2 13 -13 0 0 2 2zm-2 -2l0 0 0 0 0 0z"/>
  </g>
 </g>
</svg>
