<?xml version="1.0" encoding="UTF-8"?>
<!DOCTYPE svg PUBLIC "-//W3C//DTD SVG 1.1//EN" "http://www.w3.org/Graphics/SVG/1.1/DTD/svg11.dtd">
<!-- Creator: CorelDRAW X8 -->
<svg xmlns="http://www.w3.org/2000/svg" xml:space="preserve" width="40mm" height="60mm" version="1.1" style="shape-rendering:geometricPrecision; text-rendering:geometricPrecision; image-rendering:optimizeQuality; fill-rule:evenodd; clip-rule:evenodd"
viewBox="0 0 4000 6000"
 xmlns:xlink="http://www.w3.org/1999/xlink">
 <defs>
  <style type="text/css">
   <![CDATA[
    .str0 {stroke:black;stroke-width:7.62}
    .fil0 {fill:none}
   ]]>
  </style>
 </defs>
 <g id="图层_x0020_1">
  <metadata id="CorelCorpID_0Corel-Layer"/>
  <path class="fil0 str0" d="M929 5350l1963 0c136,0 248,-112 248,-248l0 -4204c0,-136 -112,-248 -248,-248l-1784 0c-136,0 -248,112 -248,248l0 4204c0,136 112,248 248,248l268 0m573 -4427l131 0c64,0 117,53 117,118l0 130c0,65 -53,118 -117,118l-131 0c-65,0 -118,-53 -118,-118l0 -130c0,-65 53,-118 118,-118zm72 506c-4,-16 -9,-27 -35,-27l-22 0c-29,0 -45,0 -45,30l0 53c0,29 15,26 45,26l93 0c30,0 45,3 45,-26l0 -53c0,-30 -15,-30 -45,-30l-71 0"/>
 </g>
</svg>
