<?xml version="1.0" encoding="UTF-8"?>
<!DOCTYPE svg PUBLIC "-//W3C//DTD SVG 1.1//EN" "http://www.w3.org/Graphics/SVG/1.1/DTD/svg11.dtd">
<!-- Creator: CorelDRAW X8 -->
<svg xmlns="http://www.w3.org/2000/svg" xml:space="preserve" width="40mm" height="60mm" version="1.1" style="shape-rendering:geometricPrecision; text-rendering:geometricPrecision; image-rendering:optimizeQuality; fill-rule:evenodd; clip-rule:evenodd"
viewBox="0 0 4000 6000"
 xmlns:xlink="http://www.w3.org/1999/xlink">
 <defs>
  <style type="text/css">
   <![CDATA[
    .fil0 {fill:#332C2B;fill-rule:nonzero}
   ]]>
  </style>
 </defs>
 <g id="FC_x0020_RegisterMark_x0020_Layer2">
  <metadata id="CorelCorpID_0Corel-Layer"/>
  <g id="_2235130563648">
   <g>
    <path class="fil0" d="M1683 1106l0 -3 0 0 3 0 3 0 3 0 3 -1 3 0 3 -1 3 -1 3 -1 3 -2 2 -1 3 -1 2 -2 3 -2 2 -1 2 -2 2 -2 3 -3 1 -2 2 -2 2 -3 2 -2 1 -3 1 -2 2 -3 1 -3 1 -3 1 -2 0 -3 1 -3 0 -3 0 -4 0 -3 3 0 0 4 0 3 -1 3 0 3 -1 3 -1 3 -1 3 -1 3 -1 3 -2 3 -1 2 -2 3 -2 3 -1 2 -2 2 -3 3 -2 2 -2 2 -3 2 -2 1 -3 2 -2 2 -3 1 -3 1 -3 1 -3 1 -3 1 -3 1 -3 1 -3 0 -4 0 -3 0 0 0zm-64 -64l3 0 0 0 0 3 0 4 1 3 0 3 1 3 1 2 1 3 1 3 1 3 1 2 2 3 1 2 2 3 2 2 2 2 2 3 2 2 2 2 2 1 3 2 2 2 3 1 3 1 2 2 3 1 3 1 3 1 3 0 3 1 3 0 3 0 3 0 0 3 -3 0 -3 0 -4 0 -3 -1 -3 -1 -3 -1 -3 -1 -3 -1 -3 -1 -2 -1 -3 -2 -3 -2 -2 -1 -3 -2 -2 -2 -2 -2 -2 -3 -2 -2 -2 -2 -2 -3 -2 -3 -1 -2 -2 -3 -1 -3 -1 -3 -1 -3 -1 -3 -1 -3 0 -3 -1 -3 0 -3 0 -4 0 0zm64 -64l0 3 0 0 -3 0 -3 0 -3 1 -3 0 -3 1 -3 1 -3 1 -3 1 -2 1 -3 1 -3 2 -2 1 -3 2 -2 2 -2 2 -2 2 -2 2 -2 2 -2 3 -2 2 -1 2 -2 3 -1 3 -1 2 -1 3 -1 3 -1 3 -1 3 0 3 -1 3 0 3 0 3 -3 0 0 -3 0 -3 1 -4 0 -3 1 -3 1 -3 1 -3 1 -3 1 -3 2 -2 1 -3 2 -3 2 -2 2 -3 2 -2 2 -2 2 -2 2 -2 3 -2 2 -2 3 -2 3 -1 2 -1 3 -2 3 -1 3 -1 3 -1 3 -1 3 0 4 0 3 -1 3 0 0 0zm64 64l-3 0 0 0 0 -3 0 -3 0 -3 -1 -3 0 -3 -1 -3 -1 -3 -1 -3 -2 -2 -1 -3 -1 -3 -2 -2 -2 -2 -2 -3 -1 -2 -3 -2 -2 -2 -2 -2 -2 -2 -3 -2 -2 -1 -3 -2 -2 -1 -3 -1 -3 -1 -3 -1 -3 -1 -3 -1 -3 0 -3 -1 -3 0 -3 0 0 -3 3 0 4 1 3 0 3 0 3 1 3 1 3 1 3 1 3 2 3 1 2 1 3 2 2 2 3 2 2 2 2 2 3 2 2 2 1 3 2 2 2 3 1 3 2 2 1 3 1 3 1 3 1 3 1 3 0 3 1 4 0 3 0 3 0 0z"/>
   </g>
   <g>
    <path class="fil0" d="M1523 1042l4 0 0 0 0 2 0 1 0 1 0 2 1 1 0 1 0 1 1 2 0 1 1 1 1 1 0 1 1 1 1 1 1 1 1 1 0 1 1 1 1 1 1 0 2 1 1 1 1 0 1 1 1 0 1 1 2 0 1 0 1 1 2 0 1 0 1 0 0 3 -1 0 -2 0 -1 0 -2 0 -1 -1 -2 0 -1 -1 -1 0 -2 -1 -1 0 -1 -1 -1 -1 -2 -1 -1 -1 -1 -1 -1 -1 -1 -1 -1 -1 -1 -1 -1 -1 0 -1 -1 -1 -1 -2 0 -1 -1 -1 0 -2 -1 -1 0 -2 0 -1 -1 -2 0 -1 0 -2 0 0zm30 -30l0 4 0 0 -1 0 -1 0 -2 0 -1 0 -1 0 -2 1 -1 0 -1 1 -1 0 -1 1 -1 0 -2 1 -1 1 -1 1 -1 1 0 0 -1 1 -1 1 -1 1 -1 1 0 1 -1 2 -1 1 0 1 -1 1 0 1 0 2 -1 1 0 1 0 2 0 1 0 1 -4 0 0 -1 0 -2 1 -1 0 -2 0 -1 1 -2 0 -1 1 -1 0 -2 1 -1 1 -1 0 -2 1 -1 1 -1 1 -1 1 -1 1 -1 1 -1 1 -1 2 -1 1 0 1 -1 1 -1 2 0 1 -1 1 0 2 -1 1 0 2 0 1 -1 2 0 1 0 0 0zm0 4l0 0 0 0 0 0zm30 26l-3 0 0 0 0 -1 0 -1 0 -2 -1 -1 0 -1 0 -2 -1 -1 0 -1 -1 -1 0 -1 -1 -2 -1 -1 0 -1 -1 -1 -1 -1 -1 -1 -1 0 -1 -1 -1 -1 -1 -1 -1 -1 -1 0 -1 -1 -1 0 -1 -1 -2 0 -1 -1 -1 0 -2 0 -1 0 -1 0 -2 0 0 -4 2 0 1 0 2 1 1 0 2 0 1 1 2 0 1 1 1 0 2 1 1 1 1 0 1 1 1 1 2 1 1 1 1 1 1 1 0 1 1 1 1 2 1 1 0 1 1 2 1 1 0 1 0 2 1 1 0 2 0 1 0 2 0 1 0 0zm-30 30l0 -3 0 0 2 0 1 0 1 0 2 -1 1 0 1 0 2 -1 1 0 1 -1 1 0 1 -1 1 -1 1 0 1 -1 1 -1 1 -1 1 -1 1 -1 1 -1 0 -1 1 -1 1 -1 0 -1 1 -1 0 -2 1 -1 0 -1 0 -1 1 -2 0 -1 0 -1 0 -2 3 0 0 2 0 1 0 2 0 1 -1 2 0 1 0 2 -1 1 -1 1 0 2 -1 1 -1 1 -1 1 0 1 -1 1 -1 1 -1 1 -2 1 -1 1 -1 1 -1 1 -1 1 -2 0 -1 1 -1 0 -2 1 -1 0 -2 1 -1 0 -2 0 -1 0 -2 0 0 0z"/>
   </g>
   <g>
    <path class="fil0" d="M1368 923l0 3 0 0 -6 0 -6 1 -6 0 -5 1 -6 2 -5 1 -6 2 -5 2 -5 2 -5 3 -5 3 -5 3 -4 3 -5 4 -4 3 -4 4 -4 4 -4 4 -3 5 -3 4 -3 5 -3 5 -3 5 -2 5 -2 5 -2 6 -1 5 -2 6 -1 6 0 5 -1 6 0 6 -3 0 0 -6 1 -6 1 -6 1 -6 1 -6 2 -5 1 -6 3 -5 2 -5 3 -5 2 -5 3 -5 4 -5 3 -4 4 -5 4 -4 4 -4 4 -4 5 -3 5 -3 4 -4 5 -2 6 -3 5 -2 5 -3 6 -1 5 -2 6 -1 6 -1 6 -1 6 -1 6 0 0 0zm119 119l-3 0 0 0 0 -6 0 -6 -1 -5 -1 -6 -1 -6 -2 -5 -2 -6 -2 -5 -2 -5 -3 -5 -2 -5 -4 -5 -3 -4 -3 -5 -4 -4 -4 -4 -4 -4 -4 -3 -4 -4 -5 -3 -5 -3 -4 -3 -5 -3 -6 -2 -5 -2 -5 -2 -6 -1 -5 -2 -6 -1 -6 0 -6 -1 -6 0 0 -3 6 0 6 1 6 1 6 1 6 1 6 2 5 1 5 3 6 2 5 3 5 2 5 4 4 3 5 3 4 4 4 4 4 4 4 5 3 4 4 5 3 5 3 5 2 5 3 5 2 5 2 6 1 5 2 6 1 6 0 6 1 6 0 6 0 0zm-119 119l0 -3 0 0 6 0 6 0 6 -1 6 -1 5 -1 6 -2 5 -2 5 -2 6 -2 5 -3 4 -2 5 -3 5 -4 4 -3 4 -4 4 -4 4 -4 4 -4 3 -4 3 -5 4 -5 2 -4 3 -5 2 -6 2 -5 2 -5 2 -6 1 -5 1 -6 1 -6 0 -6 0 -6 3 0 0 6 -1 6 0 6 -1 6 -2 6 -1 6 -2 5 -2 6 -3 5 -2 5 -3 5 -3 5 -4 4 -3 5 -4 4 -4 4 -4 4 -4 4 -5 4 -4 3 -5 3 -5 3 -5 2 -6 3 -5 2 -5 2 -6 1 -6 2 -6 1 -6 1 -6 0 -6 0 0 0zm-119 -119l3 0 0 0 0 6 1 6 0 6 1 6 2 5 1 6 2 5 2 5 2 6 3 5 3 4 3 5 3 5 3 4 4 4 4 4 4 4 4 4 5 3 4 4 5 3 5 2 5 3 5 2 5 2 6 2 5 2 6 1 5 1 6 1 6 0 6 0 0 3 -6 0 -6 0 -6 -1 -6 -1 -6 -2 -5 -1 -6 -2 -5 -2 -5 -3 -6 -2 -5 -3 -4 -3 -5 -3 -5 -4 -4 -4 -4 -4 -4 -4 -4 -4 -3 -5 -4 -4 -3 -5 -2 -5 -3 -5 -2 -5 -3 -6 -1 -5 -2 -6 -1 -6 -1 -6 -1 -6 -1 -6 0 -6 0 0z"/>
   </g>
   <g>
    <path class="fil0" d="M3094 1531l3 0 0 0 0 2 0 2 0 2 0 2 1 1 0 2 1 1 1 1 0 1 1 1 1 0 1 1 1 1 1 0 1 1 1 0 1 0 2 1 1 0 1 0 2 0 2 0 1 1 2 0 2 0 1 0 2 0 2 0 2 0 2 -1 2 0 2 0 0 3 -2 0 -2 0 -2 0 -2 0 -2 0 -2 0 -1 0 -2 0 -2 0 -2 0 -1 0 -2 0 -1 0 -2 0 -1 -1 -2 0 -1 -1 -2 0 -1 -1 -1 -1 -1 0 -1 -1 -1 -2 -1 -1 -1 -1 0 -1 -1 -2 0 -2 -1 -1 0 -2 0 -2 0 -3 0 0zm3 -150l0 150 -3 0 0 -150 0 0 3 0zm37 -22l0 3 0 0 -2 0 -2 0 -2 0 -2 0 -2 0 -2 0 -1 0 -2 0 -2 0 -1 0 -2 0 -2 0 -1 0 -1 0 -2 1 -1 0 -1 0 -1 1 -1 0 -1 1 -1 1 -1 0 -1 1 0 1 -1 1 -1 2 0 1 -1 1 0 2 0 2 0 2 0 2 -3 0 0 -2 0 -3 0 -1 1 -2 0 -2 1 -1 0 -2 1 -1 1 -1 1 -1 1 -1 1 -1 1 -1 2 -1 1 0 1 -1 2 0 1 0 2 -1 1 0 2 0 1 0 2 0 2 0 2 0 1 0 2 0 2 0 2 0 2 0 2 0 2 0 0 0zm0 3l0 0 0 -3 0 0 0 0 0 3zm40 19l-3 0 0 0 0 -2 0 -2 -1 -2 0 -2 0 -1 -1 -1 0 -2 -1 -1 -1 -1 0 -1 -1 0 -1 -1 -1 -1 -1 0 -1 -1 -2 0 -1 0 -1 -1 -1 0 -2 0 -1 0 -2 0 -2 0 -1 0 -2 0 -2 0 -2 0 -1 0 -2 0 -2 0 -2 0 -2 0 0 -3 2 0 2 0 2 0 1 0 2 0 2 0 2 0 2 0 1 0 2 0 2 0 1 0 2 0 1 1 2 0 1 0 2 1 1 0 1 1 1 1 1 1 2 1 0 1 1 1 1 1 1 2 0 1 1 2 0 2 0 1 0 3 1 2 0 0zm-3 150l0 -150 3 0 0 150 0 0 -3 0zm-37 19l0 3 0 -3 2 0 2 0 2 1 2 0 1 0 2 0 2 0 2 0 1 0 2 -1 2 0 1 0 2 0 1 0 1 -1 1 0 2 0 1 -1 1 0 1 -1 1 -1 1 0 0 -1 1 -1 1 -1 0 -1 1 -2 0 -1 0 -2 1 -2 0 -2 0 -2 3 0 -1 3 0 2 0 2 0 1 -1 2 0 2 -1 1 -1 1 -1 1 0 2 -2 1 -1 0 -1 1 -1 1 -1 0 -2 1 -1 0 -2 1 -1 0 -2 0 -1 0 -2 0 -2 0 -1 0 -2 0 -2 0 -2 0 -2 0 -1 0 -2 0 -2 0 -2 0 0 -3zm0 3l0 0 0 -3 0 0 0 3z"/>
   </g>
   <g>
    <path class="fil0" d="M827 1776l0 255 -3 0 0 -255 0 0 3 0zm45 -50l0 3 0 0 -2 0 -2 0 -3 0 -2 1 -2 0 -2 1 -2 1 -2 1 -2 0 -2 2 -2 1 -2 1 -2 1 -1 2 -2 1 -2 2 -1 1 -2 2 -1 2 -1 2 -1 2 -1 1 -1 3 -1 2 -1 2 -1 2 0 2 -1 2 0 3 -1 2 0 3 0 2 -3 0 0 -3 1 -2 0 -3 0 -2 1 -2 0 -3 1 -2 1 -2 1 -3 1 -2 1 -2 2 -2 1 -2 1 -2 2 -2 1 -1 2 -2 2 -2 2 -1 1 -1 2 -2 2 -1 2 -1 3 -1 2 -1 2 -1 2 0 3 -1 2 0 2 -1 3 0 2 0 0 0zm48 50l-3 0 0 0 0 -2 0 -3 0 -2 0 -3 -1 -2 -1 -2 0 -2 -1 -2 -1 -2 -1 -3 -1 -1 -1 -2 -2 -2 -1 -2 -1 -2 -2 -1 -1 -2 -2 -1 -2 -2 -1 -1 -2 -1 -2 -1 -2 -2 -2 0 -2 -1 -2 -1 -2 -1 -3 0 -2 -1 -2 0 -2 0 -3 0 0 -3 3 0 2 0 3 1 2 0 2 1 3 0 2 1 2 1 2 1 2 1 2 1 2 2 2 1 2 1 2 2 1 2 2 1 1 2 2 2 1 2 1 2 1 2 2 2 0 3 1 2 1 2 1 3 0 2 1 2 0 3 0 2 0 3 0 0zm-3 255l0 -255 3 0 0 255 0 0 -3 0zm-45 50l0 -3 0 0 3 0 2 0 2 0 2 -1 3 0 2 -1 2 -1 2 -1 2 0 2 -2 2 -1 2 -1 1 -1 2 -2 2 -1 1 -2 2 -1 1 -2 1 -2 2 -2 1 -2 1 -1 1 -3 1 -2 1 -2 0 -2 1 -2 1 -2 0 -3 0 -2 0 -3 0 -2 3 0 0 3 0 2 0 3 -1 2 0 2 -1 3 -1 2 -1 2 0 3 -2 2 -1 2 -1 2 -1 2 -2 2 -1 2 -2 1 -1 2 -2 2 -2 1 -2 1 -2 2 -2 1 -2 1 -2 1 -2 1 -2 1 -3 0 -2 1 -2 0 -3 1 -2 0 -3 0 0 0zm-48 -50l3 0 0 0 0 2 0 3 1 2 0 3 1 2 0 2 1 2 1 2 1 2 1 3 1 1 1 2 1 2 1 2 2 2 1 1 2 2 2 1 1 2 2 1 2 1 2 1 2 2 2 0 2 1 2 1 2 1 2 0 2 1 3 0 2 0 2 0 0 3 -2 0 -3 0 -2 -1 -2 0 -3 -1 -2 0 -2 -1 -2 -1 -3 -1 -2 -1 -2 -1 -2 -2 -1 -1 -2 -1 -2 -2 -2 -2 -1 -1 -2 -2 -1 -2 -1 -2 -2 -2 -1 -2 -1 -2 -1 -3 -1 -2 -1 -2 0 -3 -1 -2 0 -2 0 -3 -1 -2 0 -3 0 0z"/>
   </g>
   <g>
    <path class="fil0" d="M3085 1774l0 653 -3 0 0 -653 0 0 3 0zm49 -50l0 3 0 0 -3 0 -2 0 -3 0 -2 1 -3 0 -2 1 -2 0 -2 1 -3 1 -2 1 -2 1 -2 2 -2 1 -1 1 -2 2 -2 1 -2 2 -1 2 -2 2 -1 1 -1 2 -1 2 -1 2 -1 2 -1 3 -1 2 -1 2 0 2 -1 3 0 2 0 2 0 3 -3 0 0 -3 0 -2 1 -3 0 -2 1 -3 0 -2 1 -2 1 -3 1 -2 1 -2 1 -2 2 -2 1 -2 2 -2 1 -2 2 -2 2 -1 2 -2 2 -1 2 -2 2 -1 2 -1 2 -1 3 -1 2 -1 2 -1 3 -1 2 0 3 -1 2 0 3 0 3 0 0 0zm52 50l-3 0 0 0 0 -3 0 -2 -1 -2 0 -3 -1 -2 0 -2 -1 -2 -1 -3 -1 -2 -1 -2 -1 -2 -2 -2 -1 -1 -1 -2 -2 -2 -2 -2 -1 -1 -2 -2 -2 -1 -2 -1 -2 -2 -2 -1 -2 -1 -2 -1 -2 -1 -3 0 -2 -1 -2 0 -3 -1 -2 0 -3 0 -2 0 0 -3 2 0 3 0 3 0 2 1 3 0 2 1 3 1 2 1 2 1 2 1 3 1 2 1 2 2 2 1 2 2 1 1 2 2 2 2 1 2 2 2 1 2 1 2 1 2 2 2 0 3 1 2 1 2 1 3 0 2 0 3 1 2 0 3 0 0zm-3 653l0 -653 3 0 0 653 0 0 -3 0zm-49 50l0 -3 0 0 2 0 3 0 2 0 3 -1 2 0 2 -1 3 0 2 -1 2 -1 2 -1 2 -1 2 -2 2 -1 2 -1 2 -2 1 -1 2 -2 2 -2 1 -2 1 -1 2 -2 1 -2 1 -2 1 -2 1 -3 1 -2 0 -2 1 -2 0 -3 1 -2 0 -2 0 -3 3 0 0 3 -1 2 0 3 0 2 -1 3 -1 2 -1 2 0 3 -2 2 -1 2 -1 2 -1 2 -2 2 -1 2 -2 2 -2 2 -1 1 -2 2 -2 1 -2 2 -2 1 -3 1 -2 1 -2 1 -2 1 -3 1 -2 1 -3 0 -2 1 -3 0 -3 0 -2 0 0 0zm-52 -50l3 0 0 0 0 3 0 2 0 2 1 3 0 2 1 2 1 2 1 3 1 2 1 2 1 2 1 2 1 1 2 2 1 2 2 2 2 1 2 2 1 1 2 1 2 2 2 1 2 1 3 1 2 1 2 0 2 1 3 0 2 1 3 0 2 0 3 0 0 3 -3 0 -3 0 -2 0 -3 -1 -2 0 -3 -1 -2 -1 -2 -1 -3 -1 -2 -1 -2 -1 -2 -1 -2 -2 -2 -1 -2 -2 -2 -1 -2 -2 -1 -2 -2 -2 -1 -2 -2 -2 -1 -2 -1 -2 -1 -2 -1 -3 -1 -2 0 -2 -1 -3 0 -2 -1 -3 0 -2 0 -3 0 0z"/>
   </g>
   <g>
    <path class="fil0" d="M827 2513l0 407 -3 0 0 -407 0 0 3 0zm45 -49l0 2 0 0 -2 0 -2 1 -3 0 -2 0 -2 1 -2 0 -2 1 -2 1 -2 1 -2 1 -2 1 -2 1 -2 2 -1 1 -2 2 -2 1 -1 2 -2 1 -1 2 -1 2 -1 2 -1 2 -1 2 -1 2 -1 2 -1 2 0 3 -1 2 0 2 -1 3 0 2 0 2 -3 0 0 -2 1 -3 0 -2 0 -3 1 -2 0 -2 1 -3 1 -2 1 -2 1 -2 1 -2 2 -2 1 -2 1 -2 2 -2 1 -2 2 -1 2 -2 2 -2 1 -1 2 -1 2 -1 2 -2 3 -1 2 0 2 -1 2 -1 3 0 2 -1 2 0 3 0 2 0 0 0zm48 49l-3 0 0 0 0 -2 0 -2 0 -3 0 -2 -1 -2 -1 -3 0 -2 -1 -2 -1 -2 -1 -2 -1 -2 -1 -2 -2 -2 -1 -2 -1 -1 -2 -2 -1 -1 -2 -2 -2 -1 -1 -2 -2 -1 -2 -1 -2 -1 -2 -1 -2 -1 -2 -1 -2 0 -3 -1 -2 0 -2 0 -2 -1 -3 0 0 -2 3 0 2 0 3 0 2 1 2 0 3 1 2 1 2 0 2 1 2 2 2 1 2 1 2 1 2 2 2 2 1 1 2 2 1 2 2 2 1 2 1 2 1 2 2 2 0 2 1 2 1 3 1 2 0 2 1 3 0 2 0 3 0 2 0 0zm-3 407l0 -407 3 0 0 407 0 0 -3 0zm-45 49l0 -2 0 0 3 0 2 -1 2 0 2 0 3 -1 2 0 2 -1 2 -1 2 -1 2 -1 2 -1 2 -1 1 -2 2 -1 2 -2 1 -1 2 -2 1 -1 1 -2 2 -2 1 -2 1 -2 1 -2 1 -2 1 -2 0 -2 1 -3 1 -2 0 -2 0 -3 0 -2 0 -2 3 0 0 2 0 3 0 2 -1 3 0 2 -1 2 -1 3 -1 2 0 2 -2 2 -1 2 -1 2 -1 2 -2 2 -1 2 -2 2 -1 1 -2 2 -2 2 -2 1 -2 1 -2 1 -2 2 -2 1 -2 0 -2 1 -3 1 -2 0 -2 1 -3 0 -2 0 -3 0 0 0zm-48 -49l3 0 0 0 0 2 0 2 1 3 0 2 1 2 0 3 1 2 1 2 1 2 1 2 1 2 1 2 1 2 1 2 2 1 1 2 2 1 2 2 1 1 2 2 2 1 2 1 2 1 2 1 2 1 2 1 2 0 2 1 2 0 3 0 2 1 2 0 0 2 -2 0 -3 0 -2 0 -2 -1 -3 0 -2 -1 -2 -1 -2 0 -3 -1 -2 -2 -2 -1 -2 -1 -1 -1 -2 -2 -2 -2 -2 -1 -1 -2 -2 -2 -1 -2 -1 -2 -2 -2 -1 -2 -1 -2 -1 -2 -1 -2 -1 -3 0 -2 -1 -2 0 -3 0 -2 -1 -3 0 -2 0 0z"/>
   </g>
   <g>
    <path class="fil0" d="M1264 5213l0 2 0 0 -2 0 -1 1 -1 0 -2 0 -1 0 -1 1 -2 0 -1 1 -1 0 -1 1 -1 0 -1 1 -1 1 -1 1 -1 0 -1 1 -1 1 -1 1 -1 1 -1 1 0 1 -1 2 -1 1 0 1 -1 1 0 1 0 2 -1 1 0 1 0 2 0 1 0 2 -3 0 0 -2 0 -2 0 -1 1 -2 0 -1 0 -1 1 -2 0 -1 1 -1 1 -2 0 -1 1 -1 1 -1 1 -1 1 -2 1 -1 1 -1 1 -1 1 0 1 -1 1 -1 2 -1 1 0 1 -1 2 -1 1 0 1 0 2 -1 1 0 2 0 1 0 2 0 0 0zm30 30l-3 0 0 0 0 -2 0 -1 0 -2 -1 -1 0 -1 0 -2 -1 -1 0 -1 -1 -1 0 -1 -1 -2 -1 -1 0 -1 -1 -1 -1 -1 -1 -1 -1 -1 -1 0 -1 -1 -1 -1 -1 -1 -1 0 -1 -1 -2 0 -1 -1 -1 0 -1 -1 -2 0 -1 0 -1 0 -2 -1 -1 0 0 -2 1 0 2 0 1 0 2 0 1 1 2 0 1 0 1 1 2 1 1 0 1 1 2 1 1 1 1 0 1 1 1 1 1 1 1 2 1 1 1 1 0 1 1 1 1 2 0 1 1 1 0 2 1 1 0 1 0 2 1 1 0 2 0 2 0 0zm-30 29l0 -2 0 0 1 0 2 -1 1 0 1 0 2 0 1 -1 1 0 1 -1 2 0 1 -1 1 0 1 -1 1 -1 1 -1 1 0 1 -1 1 -1 1 -1 1 -1 0 -1 1 -1 1 -2 0 -1 1 -1 0 -1 1 -1 0 -2 0 -1 1 -1 0 -2 0 -1 0 -1 3 0 0 1 0 2 -1 1 0 2 0 1 -1 1 0 2 -1 1 0 1 -1 2 -1 1 0 1 -1 1 -1 2 -1 1 -1 1 -1 1 -1 1 -1 0 -1 1 -2 1 -1 1 -1 0 -2 1 -1 1 -1 0 -2 0 -1 1 -2 0 -1 0 -2 0 -1 0 0 0zm-30 -29l3 0 0 0 0 1 0 1 0 2 0 1 1 1 0 2 0 1 1 1 0 1 1 1 1 2 0 1 1 1 1 1 1 1 1 1 1 1 1 0 1 1 1 1 1 1 1 0 1 1 1 0 1 1 2 0 1 1 1 0 2 0 1 0 1 1 2 0 0 2 -2 0 -1 0 -2 0 -1 0 -2 -1 -1 0 -1 0 -2 -1 -1 -1 -1 0 -2 -1 -1 -1 -1 -1 -1 0 -1 -1 -1 -1 -1 -1 -1 -1 -1 -2 -1 -1 -1 -1 0 -1 -1 -2 -1 -1 0 -1 -1 -2 0 -1 0 -1 -1 -2 0 -1 0 -2 0 -1 0 0z"/>
   </g>
   <g>
    <path class="fil0" d="M1334 5213l0 2 0 0 -1 0 -1 1 -2 0 -1 0 -1 0 -2 1 -1 0 -1 1 -1 0 -2 1 -1 0 -1 1 -1 1 -1 1 -1 0 -1 1 -1 1 -1 1 0 1 -1 1 -1 1 -1 2 0 1 -1 1 0 1 -1 1 0 2 0 1 0 1 -1 2 0 1 0 2 -3 0 0 -2 1 -2 0 -1 0 -2 0 -1 1 -1 0 -2 1 -1 0 -1 1 -2 1 -1 1 -1 0 -1 1 -1 1 -2 1 -1 1 -1 1 -1 1 0 2 -1 1 -1 1 -1 1 0 2 -1 1 -1 1 0 2 0 1 -1 2 0 1 0 2 0 1 0 0 0zm30 30l-3 0 0 0 0 -2 0 -1 0 -2 0 -1 0 -1 -1 -2 0 -1 -1 -1 0 -1 -1 -1 0 -2 -1 -1 -1 -1 -1 -1 -1 -1 -1 -1 0 -1 -1 0 -1 -1 -2 -1 -1 -1 -1 0 -1 -1 -1 0 -1 -1 -2 0 -1 -1 -1 0 -2 0 -1 0 -1 -1 -2 0 0 -2 2 0 1 0 2 0 1 0 2 1 1 0 2 0 1 1 1 1 2 0 1 1 1 1 1 1 1 0 1 1 1 1 1 1 1 2 1 1 1 1 1 1 1 1 0 2 1 1 0 1 1 2 0 1 1 1 0 2 0 1 0 2 0 2 0 0zm-30 29l0 -2 0 0 2 0 1 -1 1 0 2 0 1 0 1 -1 2 0 1 -1 1 0 1 -1 1 0 1 -1 2 -1 1 -1 1 0 0 -1 1 -1 1 -1 1 -1 1 -1 1 -1 0 -2 1 -1 0 -1 1 -1 0 -1 1 -2 0 -1 0 -1 0 -2 0 -1 0 -1 3 0 0 1 0 2 0 1 0 2 -1 1 0 1 -1 2 0 1 -1 1 0 2 -1 1 -1 1 -1 1 -1 2 -1 1 -1 1 -1 1 -1 1 -1 0 -1 1 -1 1 -1 1 -2 0 -1 1 -1 1 -2 0 -1 0 -2 1 -1 0 -2 0 -1 0 -2 0 0 0zm-30 -29l3 0 0 0 0 1 0 1 1 2 0 1 0 1 0 2 1 1 0 1 1 1 0 1 1 2 1 1 1 1 0 1 1 1 1 1 1 1 1 0 1 1 1 1 1 1 1 0 2 1 1 0 1 1 1 0 2 1 1 0 1 0 2 0 1 1 1 0 0 2 -1 0 -2 0 -1 0 -2 0 -1 -1 -2 0 -1 0 -1 -1 -2 -1 -1 0 -1 -1 -1 -1 -2 -1 -1 0 -1 -1 -1 -1 -1 -1 -1 -1 -1 -2 0 -1 -1 -1 -1 -1 -1 -2 0 -1 -1 -1 0 -2 -1 -1 0 -1 0 -2 0 -1 -1 -2 0 -1 0 0z"/>
   </g>
   <g>
    <path class="fil0" d="M1405 5213l0 2 0 0 -2 0 -1 1 -1 0 -2 0 -1 0 -1 1 -1 0 -2 1 -1 0 -1 1 -1 0 -1 1 -1 1 -1 1 -1 0 -1 1 -1 1 -1 1 -1 1 -1 1 0 1 -1 2 -1 1 0 1 -1 1 0 1 0 2 -1 1 0 1 0 2 0 1 0 2 -3 0 0 -2 0 -2 0 -1 1 -2 0 -1 0 -1 1 -2 0 -1 1 -1 1 -2 0 -1 1 -1 1 -1 1 -2 1 -1 1 -1 1 -1 1 -1 1 0 1 -1 1 -1 2 -1 1 0 1 -1 2 -1 1 0 1 0 2 -1 1 0 2 0 1 0 2 0 0 0zm30 30l-3 0 0 0 0 -2 0 -1 0 -2 -1 -1 0 -1 0 -2 -1 -1 0 -1 -1 -1 0 -1 -1 -2 -1 -1 0 -1 -1 -1 -1 -1 -1 -1 -1 -1 -1 0 -1 -1 -1 -1 -1 -1 -1 0 -1 -1 -2 0 -1 -1 -1 0 -1 -1 -2 0 -1 0 -1 0 -2 -1 -1 0 0 -2 1 0 2 0 1 0 2 0 1 1 2 0 1 0 1 1 2 1 1 0 1 1 2 1 1 1 1 0 1 1 1 1 1 1 1 2 1 1 1 1 0 1 1 1 1 2 0 1 1 1 0 2 1 1 0 1 0 2 1 1 0 2 0 2 0 0zm-30 29l0 -2 0 0 1 0 2 -1 1 0 1 0 2 0 1 -1 1 0 1 -1 2 0 1 -1 1 0 1 -1 1 -1 1 -1 1 0 1 -1 1 -1 1 -1 1 -1 0 -1 1 -1 1 -2 0 -1 1 -1 0 -1 1 -1 0 -2 0 -1 1 -1 0 -2 0 -1 0 -1 3 0 0 1 0 2 -1 1 0 2 0 1 -1 1 0 2 -1 1 0 1 -1 2 -1 1 0 1 -1 1 -1 2 -1 1 -1 1 -1 1 -1 1 -1 0 -1 1 -2 1 -1 1 -1 0 -2 1 -1 1 -1 0 -2 0 -1 1 -2 0 -1 0 -2 0 -1 0 0 0zm-30 -29l3 0 0 0 0 1 0 1 0 2 0 1 1 1 0 2 0 1 1 1 0 1 1 1 1 2 0 1 1 1 1 1 1 1 1 1 1 1 1 0 1 1 1 1 1 1 1 0 1 1 1 0 2 1 1 0 1 1 1 0 2 0 1 0 1 1 2 0 0 2 -2 0 -1 0 -2 0 -1 0 -2 -1 -1 0 -1 0 -2 -1 -1 -1 -1 0 -2 -1 -1 -1 -1 -1 -1 0 -1 -1 -1 -1 -1 -1 -1 -1 -1 -2 -1 -1 -1 -1 0 -1 -1 -2 -1 -1 0 -1 -1 -2 0 -1 0 -1 -1 -2 0 -1 0 -2 0 -1 0 0z"/>
   </g>
   <g>
    <path class="fil0" d="M1475 5213l0 2 0 0 -1 0 -1 1 -2 0 -1 0 -1 0 -2 1 -1 0 -1 1 -1 0 -2 1 -1 0 -1 1 -1 1 -1 1 -1 0 -1 1 -1 1 -1 1 0 1 -1 1 -1 1 0 2 -1 1 -1 1 0 1 -1 1 0 2 0 1 0 1 -1 2 0 1 0 2 -3 0 1 -2 0 -2 0 -1 0 -2 0 -1 1 -1 0 -2 1 -1 0 -1 1 -2 1 -1 1 -1 0 -1 1 -2 1 -1 1 -1 1 -1 1 -1 1 0 2 -1 1 -1 1 -1 1 0 2 -1 1 -1 1 0 2 0 1 -1 2 0 1 0 2 0 1 0 0 0zm30 30l-3 0 0 0 0 -2 0 -1 0 -2 0 -1 0 -1 -1 -2 0 -1 -1 -1 0 -1 -1 -1 0 -2 -1 -1 -1 -1 -1 -1 -1 -1 0 -1 -1 -1 -1 0 -1 -1 -1 -1 -2 -1 -1 0 -1 -1 -1 0 -1 -1 -2 0 -1 -1 -1 0 -2 0 -1 0 -1 -1 -2 0 0 -2 2 0 1 0 2 0 1 0 2 1 1 0 2 0 1 1 1 1 2 0 1 1 1 1 1 1 1 0 1 1 1 1 1 1 1 2 1 1 1 1 1 1 1 1 0 2 1 1 0 1 1 2 0 1 1 1 0 2 0 1 0 2 0 2 0 0zm-30 29l0 -2 0 0 2 0 1 -1 1 0 2 0 1 0 1 -1 2 0 1 -1 1 0 1 -1 1 0 2 -1 1 -1 1 -1 1 0 1 -1 0 -1 1 -1 1 -1 1 -1 1 -1 0 -2 1 -1 0 -1 1 -1 0 -1 1 -2 0 -1 0 -1 0 -2 0 -1 0 -1 3 0 0 1 0 2 0 1 0 2 -1 1 0 1 -1 2 0 1 -1 1 0 2 -1 1 -1 1 -1 1 -1 2 -1 1 -1 1 -1 1 -1 1 -1 0 -1 1 -1 1 -1 1 -2 0 -1 1 -1 1 -2 0 -1 0 -2 1 -1 0 -2 0 -1 0 -2 0 0 0zm-30 -29l3 0 0 0 0 1 0 1 1 2 0 1 0 1 0 2 1 1 0 1 1 1 1 1 0 2 1 1 1 1 0 1 1 1 1 1 1 1 1 0 1 1 1 1 1 1 1 0 2 1 1 0 1 1 1 0 2 1 1 0 1 0 2 0 1 1 1 0 0 2 -1 0 -2 0 -1 0 -2 0 -1 -1 -2 0 -1 0 -1 -1 -2 -1 -1 0 -1 -1 -1 -1 -2 -1 -1 0 -1 -1 -1 -1 -1 -1 -1 -1 -1 -2 0 -1 -1 -1 -1 -1 -1 -2 0 -1 -1 -1 0 -2 -1 -1 0 -1 0 -2 0 -1 0 -2 -1 -1 0 0z"/>
   </g>
   <g>
    <path class="fil0" d="M1546 5213l0 2 0 0 -1 0 -2 1 -1 0 -2 0 -1 0 -1 1 -1 0 -2 1 -1 0 -1 1 -1 0 -1 1 -1 1 -1 1 -1 0 -1 1 -1 1 -1 1 -1 1 -1 1 0 1 -1 2 -1 1 0 1 -1 1 0 1 0 2 -1 1 0 1 0 2 0 1 0 2 -3 0 0 -2 0 -2 0 -1 1 -2 0 -1 0 -1 1 -2 0 -1 1 -1 1 -2 0 -1 1 -1 1 -1 1 -1 1 -2 1 -1 1 -1 1 -1 1 0 1 -1 1 -1 2 -1 1 0 1 -1 2 -1 1 0 1 0 2 -1 1 0 2 0 1 0 2 0 0 0zm30 30l-3 0 0 0 0 -2 0 -1 0 -2 -1 -1 0 -1 0 -2 -1 -1 0 -1 -1 -1 0 -1 -1 -2 -1 -1 0 -1 -1 -1 -1 -1 -1 -1 -1 -1 -1 0 -1 -1 -1 -1 -1 -1 -1 0 -1 -1 -2 0 -1 -1 -1 0 -1 -1 -2 0 -1 0 -1 0 -2 -1 -1 0 0 -2 1 0 2 0 1 0 2 0 1 1 2 0 1 0 2 1 1 1 1 0 1 1 2 1 1 1 1 0 1 1 1 1 1 1 1 1 1 2 1 1 0 1 1 1 1 2 0 1 1 1 0 2 1 1 0 1 0 2 1 1 0 2 0 2 0 0zm-30 29l0 -2 0 0 1 0 2 -1 1 0 1 0 2 0 1 -1 1 0 1 -1 2 0 1 -1 1 0 1 -1 1 -1 1 -1 1 0 1 -1 1 -1 1 -1 1 -1 0 -1 1 -1 1 -2 0 -1 1 -1 0 -1 1 -1 0 -2 0 -1 1 -1 0 -2 0 -1 0 -1 3 0 0 1 0 2 -1 1 0 2 0 1 -1 1 0 2 -1 1 0 1 -1 2 -1 1 0 1 -1 1 -1 2 -1 1 -1 1 -1 1 -1 1 -1 0 -1 1 -2 1 -1 1 -1 0 -1 1 -2 1 -1 0 -2 0 -1 1 -2 0 -1 0 -2 0 -1 0 0 0zm-30 -29l3 0 0 0 0 1 0 1 0 2 0 1 1 1 0 2 0 1 1 1 0 1 1 1 1 2 0 1 1 1 1 1 1 1 1 1 1 1 1 0 1 1 1 1 1 1 1 0 1 1 1 0 2 1 1 0 1 1 1 0 2 0 1 0 2 1 1 0 0 2 -2 0 -1 0 -2 0 -1 0 -2 -1 -1 0 -1 0 -2 -1 -1 -1 -1 0 -2 -1 -1 -1 -1 -1 -1 0 -1 -1 -1 -1 -1 -1 -1 -1 -1 -2 -1 -1 -1 -1 0 -1 -1 -2 -1 -1 0 -1 -1 -2 0 -1 0 -1 -1 -2 0 -1 0 -2 0 -1 0 0z"/>
   </g>
   <g>
    <path class="fil0" d="M1616 5213l0 2 0 0 -1 0 -1 1 -2 0 -1 0 -1 0 -2 1 -1 0 -1 1 -1 0 -1 1 -2 0 -1 1 -1 1 -1 1 -1 0 -1 1 -1 1 0 1 -1 1 -1 1 -1 1 0 2 -1 1 -1 1 0 1 0 1 -1 2 0 1 0 1 -1 2 0 1 0 2 -2 0 0 -2 0 -2 0 -1 0 -2 0 -1 1 -1 0 -2 1 -1 0 -1 1 -2 1 -1 1 -1 0 -1 1 -1 1 -2 1 -1 1 -1 1 -1 2 0 1 -1 1 -1 1 -1 1 0 2 -1 1 -1 2 0 1 0 1 -1 2 0 1 0 2 0 1 0 0 0zm30 30l-2 0 0 0 -1 -2 0 -1 0 -2 0 -1 0 -1 -1 -2 0 -1 -1 -1 0 -1 -1 -1 0 -2 -1 -1 -1 -1 -1 -1 -1 -1 0 -1 -1 -1 -1 0 -1 -1 -1 -1 -2 -1 -1 0 -1 -1 -1 0 -1 -1 -2 0 -1 -1 -1 0 -1 0 -2 0 -1 -1 -2 0 0 -2 2 0 1 0 2 0 1 0 2 1 1 0 2 0 1 1 1 1 2 0 1 1 1 1 1 1 1 0 1 1 2 1 1 1 0 1 1 2 1 1 1 1 1 1 0 2 1 1 0 1 1 2 0 1 1 1 0 2 0 1 0 2 0 2 0 0zm-30 29l0 -2 0 0 2 0 1 -1 2 0 1 0 1 0 1 -1 2 0 1 -1 1 0 1 -1 1 0 2 -1 1 -1 1 -1 1 0 1 -1 0 -1 1 -1 1 -1 1 -1 1 -1 0 -2 1 -1 0 -1 1 -1 0 -1 1 -2 0 -1 0 -1 0 -2 0 -1 1 -1 2 0 0 1 0 2 0 1 0 2 -1 1 0 1 -1 2 0 1 -1 1 0 2 -1 1 -1 1 -1 1 -1 2 0 1 -1 1 -2 1 -1 1 -1 0 -1 1 -1 1 -1 1 -2 0 -1 1 -1 1 -2 0 -1 0 -2 1 -1 0 -2 0 -1 0 -2 0 0 0zm-29 -29l2 0 0 0 0 1 0 1 1 2 0 1 0 1 1 2 0 1 0 1 1 1 1 1 0 2 1 1 1 1 1 1 0 1 1 1 1 1 1 0 1 1 1 1 1 1 2 0 1 1 1 0 1 1 1 0 2 1 1 0 1 0 2 0 1 1 1 0 0 2 -1 0 -2 0 -1 0 -2 0 -1 -1 -1 0 -2 0 -1 -1 -2 -1 -1 0 -1 -1 -1 -1 -1 -1 -2 0 -1 -1 -1 -1 -1 -1 -1 -1 -1 -2 0 -1 -1 -1 -1 -1 -1 -2 0 -1 -1 -1 0 -2 -1 -1 0 -1 0 -2 0 -1 0 -2 0 -1 0 0z"/>
   </g>
   <g>
    <path class="fil0" d="M1795 5213l0 2 0 0 -1 0 -2 1 -1 0 -1 0 -2 0 -1 1 -1 0 -2 1 -1 0 -1 1 -1 0 -1 1 -1 1 -1 1 -1 0 -1 1 -1 1 -1 1 -1 1 0 1 -1 1 -1 2 0 1 -1 1 0 1 -1 1 0 2 -1 1 0 1 0 2 0 1 0 2 -3 0 0 -2 0 -2 0 -1 1 -2 0 -1 0 -1 1 -2 0 -1 1 -1 1 -2 0 -1 1 -1 1 -1 1 -1 1 -2 1 -1 1 -1 1 -1 1 0 1 -1 2 -1 1 -1 1 0 1 -1 2 -1 1 0 2 0 1 -1 1 0 2 0 1 0 2 0 0 0zm30 30l-3 0 0 0 0 -2 0 -1 0 -2 0 -1 -1 -1 0 -2 -1 -1 0 -1 -1 -1 0 -1 -1 -2 -1 -1 0 -1 -1 -1 -1 -1 -1 -1 -1 -1 -1 0 -1 -1 -1 -1 -1 -1 -1 0 -1 -1 -1 0 -2 -1 -1 0 -1 -1 -2 0 -1 0 -1 0 -2 -1 -1 0 0 -2 2 0 1 0 2 0 1 0 1 1 2 0 1 0 2 1 1 1 1 0 1 1 2 1 1 1 1 0 1 1 1 1 1 1 1 2 1 1 1 1 1 1 0 1 1 2 1 1 0 1 1 2 0 1 0 1 1 2 0 1 0 2 0 2 0 0zm-30 29l0 -2 0 0 1 0 2 -1 1 0 1 0 2 0 1 -1 1 0 2 -1 1 0 1 -1 1 0 1 -1 1 -1 1 -1 1 0 1 -1 1 -1 1 -1 1 -1 0 -1 1 -1 1 -2 0 -1 1 -1 0 -1 1 -1 0 -2 1 -1 0 -1 0 -2 0 -1 0 -1 3 0 0 1 0 2 0 1 -1 2 0 1 0 1 -1 2 0 1 -1 1 -1 2 0 1 -1 1 -1 1 -1 2 -1 1 -1 1 -1 1 -1 1 -1 0 -1 1 -2 1 -1 1 -1 0 -1 1 -2 1 -1 0 -2 0 -1 1 -1 0 -2 0 -1 0 -2 0 0 0zm-30 -29l3 0 0 0 0 1 0 1 0 2 0 1 1 1 0 2 1 1 0 1 1 1 0 1 1 2 1 1 0 1 1 1 1 1 1 1 1 1 1 0 1 1 1 1 1 1 1 0 1 1 1 0 2 1 1 0 1 1 2 0 1 0 1 0 2 1 1 0 0 2 -2 0 -1 0 -2 0 -1 0 -1 -1 -2 0 -1 0 -2 -1 -1 -1 -1 0 -1 -1 -2 -1 -1 -1 -1 0 -1 -1 -1 -1 -1 -1 -1 -1 -1 -2 -1 -1 -1 -1 0 -1 -1 -2 -1 -1 0 -1 -1 -2 0 -1 0 -1 -1 -2 0 -1 0 -2 0 -1 0 0z"/>
   </g>
   <g>
    <path class="fil0" d="M1861 5243l2 0 0 0 0 2 1 2 0 2 0 3 1 2 0 2 1 2 1 2 1 2 1 2 1 2 1 2 1 2 2 1 1 2 2 2 1 1 2 2 2 1 1 1 2 1 2 1 2 1 2 1 2 1 2 1 2 0 3 1 2 0 2 1 2 0 3 0 0 3 -3 0 -2 -1 -3 0 -2 0 -2 -1 -3 0 -2 -1 -2 -1 -2 -1 -2 -1 -2 -1 -2 -2 -2 -1 -2 -1 -2 -2 -1 -1 -2 -2 -1 -2 -2 -2 -1 -2 -2 -2 -1 -2 -1 -2 -1 -2 -1 -2 0 -2 -1 -2 -1 -3 0 -2 0 -3 0 -2 0 -2 0 0zm48 -49l0 3 0 0 -3 0 -2 0 -2 1 -2 0 -3 1 -2 0 -2 1 -2 1 -2 1 -2 1 -2 1 -2 1 -1 1 -2 1 -2 2 -1 1 -2 2 -1 2 -2 1 -1 2 -1 2 -1 2 -1 2 -1 2 -1 2 -1 2 0 2 -1 2 0 3 0 2 -1 2 0 3 -2 0 0 -3 0 -2 0 -3 0 -2 1 -3 1 -2 0 -2 1 -2 1 -2 1 -2 1 -2 2 -2 1 -2 2 -2 1 -2 2 -2 1 -1 2 -2 2 -1 2 -1 2 -2 2 -1 2 -1 2 -1 2 -1 2 -1 3 0 2 -1 2 0 3 0 2 -1 3 0 0 0zm184 3l-184 0 0 -3 184 0 0 0 0 3zm48 46l-3 0 0 0 0 -3 0 -2 0 -2 -1 -3 0 -2 -1 -2 -1 -2 0 -2 -1 -2 -1 -2 -1 -2 -2 -2 -1 -2 -1 -1 -2 -2 -1 -2 -2 -1 -1 -2 -2 -1 -2 -1 -2 -1 -2 -1 -2 -1 -2 -1 -2 -1 -2 -1 -2 0 -2 -1 -2 0 -3 -1 -2 0 -2 0 0 -3 2 0 3 1 2 0 2 0 3 1 2 0 2 1 2 1 3 1 2 1 2 1 2 2 2 1 1 1 2 2 2 1 1 2 2 2 1 2 2 2 1 2 1 2 1 2 1 2 1 2 1 2 0 2 1 3 0 2 1 3 0 2 0 3 0 0zm-48 48l0 -3 0 0 2 0 2 0 3 -1 2 0 2 -1 2 0 2 -1 2 -1 2 -1 2 -1 2 -1 2 -1 2 -1 2 -1 1 -2 2 -1 1 -2 2 -2 1 -1 1 -2 2 -2 1 -2 1 -2 1 -2 0 -2 1 -2 1 -2 0 -2 1 -3 0 -2 0 -2 0 -2 3 0 0 2 0 2 -1 3 0 2 -1 3 0 2 -1 2 -1 2 -1 2 -1 2 -1 2 -1 2 -2 2 -1 2 -2 2 -1 2 -2 1 -2 2 -1 1 -2 1 -2 2 -2 1 -2 1 -3 1 -2 1 -2 1 -2 0 -3 1 -2 0 -2 0 -3 1 -2 0 0 0zm-184 -3l184 0 0 3 -184 0 0 0 0 -3z"/>
   </g>
   <g>
    <path class="fil0" d="M2199 5272l0 -2 0 0 2 0 1 -1 2 0 1 0 1 0 1 -1 2 0 1 -1 1 0 1 -1 1 0 2 -1 1 -1 1 -1 1 0 1 -1 0 -1 1 -1 1 -1 1 -1 1 -1 0 -2 1 -1 0 -1 1 -1 0 -1 1 -2 0 -1 0 -1 0 -2 0 -1 0 -1 3 0 0 1 0 2 0 1 0 2 -1 1 0 1 -1 2 0 1 -1 1 0 2 -1 1 -1 1 -1 1 -1 2 0 1 -1 1 -2 1 -1 1 -1 0 -1 1 -1 1 -1 1 -2 0 -1 1 -1 1 -2 0 -1 0 -2 1 -1 0 -2 0 -1 0 -2 0 0 0zm-29 -29l2 0 0 0 0 1 0 1 1 2 0 1 0 1 1 2 0 1 0 1 1 1 1 1 0 2 1 1 1 1 0 1 1 1 1 1 1 1 1 0 1 1 1 1 1 1 1 0 2 1 1 0 1 1 1 0 2 1 1 0 1 0 2 0 1 1 1 0 0 2 -1 0 -2 0 -1 0 -2 0 -1 -1 -1 0 -2 0 -1 -1 -2 -1 -1 0 -1 -1 -1 -1 -1 -1 -2 0 -1 -1 -1 -1 -1 -1 -1 -1 -1 -2 0 -1 -1 -1 -1 -1 -1 -2 0 -1 -1 -1 0 -2 -1 -1 0 -1 0 -2 0 -1 0 -2 0 -1 0 0zm29 -30l0 2 0 0 -1 0 -1 1 -2 0 -1 0 -1 0 -2 1 -1 0 -1 1 -1 0 -2 1 -1 0 -1 1 -1 1 -1 1 -1 0 -1 1 -1 1 -1 1 0 1 -1 1 -1 1 0 2 -1 1 -1 1 0 1 0 1 -1 2 0 1 0 1 -1 2 0 1 0 2 -2 0 0 -2 0 -2 0 -1 0 -2 0 -1 1 -1 0 -2 1 -1 0 -1 1 -2 1 -1 1 -1 0 -1 1 -1 1 -2 1 -1 1 -1 1 -1 2 0 1 -1 1 -1 1 -1 1 0 2 -1 1 -1 2 0 1 0 1 -1 2 0 1 0 2 0 1 0 0 0zm30 30l-3 0 0 0 0 -2 0 -1 0 -2 0 -1 0 -1 -1 -2 0 -1 -1 -1 0 -1 -1 -1 0 -2 -1 -1 -1 -1 -1 -1 -1 -1 0 -1 -1 -1 -1 0 -1 -1 -1 -1 -2 -1 -1 0 -1 -1 -1 0 -1 -1 -2 0 -1 -1 -1 0 -1 0 -2 0 -1 -1 -2 0 0 -2 2 0 1 0 2 0 1 0 2 1 1 0 2 0 1 1 1 1 2 0 1 1 1 1 1 1 1 0 1 1 2 1 1 1 0 2 1 1 1 1 1 1 1 1 0 2 1 1 0 1 1 2 0 1 1 1 0 2 0 1 0 2 0 2 0 0z"/>
   </g>
   <g>
    <path class="fil0" d="M2516 5243l-3 0 0 0 0 -2 0 -1 0 -2 0 -1 -1 -1 0 -2 0 -1 -1 -1 0 -1 -1 -1 -1 -2 0 -1 -1 -1 -1 -1 -1 -1 -1 -1 -1 -1 -1 0 -1 -1 -1 -1 -1 -1 -1 0 -1 -1 -1 0 -1 -1 -2 0 -1 -1 -1 0 -2 0 -1 0 -1 -1 -2 0 0 -2 2 0 1 0 2 0 1 0 2 1 1 0 1 0 2 1 1 1 1 0 2 1 1 1 1 1 1 0 1 1 1 1 1 1 1 2 1 1 1 1 1 1 0 1 1 2 1 1 0 1 1 2 0 1 0 1 1 2 0 1 0 2 0 2 0 0zm-30 29l0 -2 0 0 2 0 1 -1 1 0 2 0 1 0 1 -1 2 0 1 -1 1 0 1 -1 1 0 1 -1 1 -1 1 -1 1 0 1 -1 1 -1 1 -1 1 -1 1 -1 0 -1 1 -2 1 -1 0 -1 1 -1 0 -1 0 -2 1 -1 0 -1 0 -2 0 -1 0 -1 3 0 0 1 0 2 0 1 -1 2 0 1 0 1 -1 2 0 1 -1 1 -1 2 0 1 -1 1 -1 1 -1 2 -1 1 -1 1 -1 1 -1 1 -1 0 -1 1 -1 1 -2 1 -1 0 -1 1 -2 1 -1 0 -1 0 -2 1 -1 0 -2 0 -1 0 -2 0 0 0zm-30 -29l3 0 0 0 0 1 0 1 0 2 1 1 0 1 0 2 1 1 0 1 1 1 0 1 1 2 1 1 0 1 1 1 1 1 1 1 1 1 1 0 1 1 1 1 1 1 1 0 1 1 2 0 1 1 1 0 1 1 2 0 1 0 1 0 2 1 1 0 0 2 -1 0 -2 0 -1 0 -2 0 -1 -1 -2 0 -1 0 -1 -1 -2 -1 -1 0 -1 -1 -1 -1 -2 -1 -1 0 -1 -1 -1 -1 -1 -1 -1 -1 -1 -2 -1 -1 0 -1 -1 -1 -1 -2 0 -1 -1 -1 0 -2 -1 -1 0 -1 0 -2 -1 -1 0 -2 0 -1 0 0zm30 -30l0 2 0 0 -1 0 -2 1 -1 0 -1 0 -2 0 -1 1 -1 0 -1 1 -2 0 -1 1 -1 0 -1 1 -1 1 -1 1 -1 0 -1 1 -1 1 -1 1 -1 1 0 1 -1 1 -1 2 0 1 -1 1 0 1 -1 1 0 2 0 1 -1 1 0 2 0 1 0 2 -3 0 0 -2 0 -2 1 -1 0 -2 0 -1 1 -1 0 -2 1 -1 0 -1 1 -2 1 -1 0 -1 1 -1 1 -1 1 -2 1 -1 1 -1 1 -1 1 0 2 -1 1 -1 1 -1 1 0 2 -1 1 -1 1 0 2 0 1 -1 2 0 1 0 2 0 1 0 0 0z"/>
   </g>
   <g>
    <path class="fil0" d="M2639 5176l0 3 0 0 -4 0 -3 0 -3 0 -4 1 -3 1 -3 1 -3 1 -3 1 -3 1 -3 2 -3 2 -2 1 -3 2 -2 2 -3 2 -2 3 -2 2 -2 3 -2 2 -2 3 -2 3 -1 2 -2 3 -1 3 -1 4 -1 3 -1 3 -1 3 -1 4 0 3 0 4 0 3 -3 0 0 -4 0 -3 1 -4 0 -3 1 -4 1 -3 1 -3 1 -4 2 -3 1 -3 2 -3 2 -3 2 -3 2 -2 2 -3 2 -2 2 -3 3 -2 2 -2 3 -2 3 -2 3 -2 3 -1 3 -2 3 -1 3 -1 3 -1 4 -1 3 0 4 -1 3 0 4 0 0 0zm68 71l-2 0 0 0 0 -3 -1 -4 0 -3 -1 -4 0 -3 -1 -3 -1 -3 -2 -4 -1 -3 -1 -3 -2 -2 -2 -3 -1 -3 -2 -2 -2 -3 -3 -2 -2 -3 -2 -2 -3 -2 -2 -2 -3 -1 -3 -2 -3 -2 -3 -1 -3 -1 -3 -1 -3 -1 -3 -1 -3 -1 -4 0 -3 0 -3 0 0 -3 3 0 4 0 3 1 4 0 3 1 3 1 3 1 3 1 3 2 3 1 3 2 3 2 3 2 2 2 3 2 2 3 3 2 2 3 2 2 2 3 1 3 2 3 2 3 1 3 1 4 1 3 1 3 1 4 1 3 0 4 0 3 0 4 0 0zm-68 71l0 -2 0 0 3 0 3 -1 4 0 3 -1 3 0 3 -1 3 -1 3 -2 3 -1 3 -2 3 -1 3 -2 2 -2 3 -2 2 -2 2 -2 3 -3 2 -2 2 -3 1 -3 2 -2 2 -3 1 -3 1 -3 2 -3 1 -3 1 -4 0 -3 1 -3 0 -4 1 -3 0 -4 2 0 0 4 0 3 0 4 -1 4 -1 3 -1 3 -1 4 -1 3 -1 3 -2 3 -2 3 -1 3 -2 3 -2 3 -2 2 -3 3 -2 2 -3 2 -2 2 -3 2 -3 2 -3 2 -3 1 -3 2 -3 1 -3 1 -3 1 -3 1 -4 1 -3 0 -4 0 -3 0 0 0zm-69 -71l3 0 0 0 0 4 0 3 0 4 1 3 1 3 1 4 1 3 1 3 1 3 2 3 1 3 2 2 2 3 2 3 2 2 2 3 2 2 3 2 2 2 3 2 2 2 3 1 3 2 3 1 3 2 3 1 3 1 3 0 4 1 3 0 3 1 4 0 0 2 -4 0 -3 0 -4 0 -3 -1 -4 -1 -3 -1 -3 -1 -3 -1 -3 -2 -3 -1 -3 -2 -3 -2 -3 -2 -2 -2 -3 -2 -2 -2 -2 -3 -2 -2 -2 -3 -2 -3 -2 -3 -2 -3 -1 -3 -2 -3 -1 -3 -1 -4 -1 -3 -1 -3 0 -4 -1 -4 0 -3 0 -4 0 0z"/>
   </g>
   <g>
    <path class="fil0" d="M3002 4981l3 1 0 0 -4 9 -4 8 -4 8 -5 8 -5 8 -5 8 -6 7 -6 8 -6 7 -6 7 -7 7 -6 6 -7 7 -7 6 -8 6 -7 6 -8 5 -7 5 -8 5 -8 5 -8 4 -9 4 -8 4 -8 3 -9 3 -8 3 -9 3 -9 2 -8 1 -9 2 -8 1 -9 1 0 -3 8 -1 9 -1 8 -1 9 -2 8 -2 9 -3 8 -2 9 -3 8 -4 8 -4 8 -4 8 -4 8 -4 8 -5 8 -5 7 -6 8 -5 7 -6 7 -6 7 -7 6 -6 7 -7 6 -7 6 -7 6 -7 5 -8 6 -7 5 -8 4 -8 5 -8 4 -9 3 -8 0 0zm3 1l0 0 0 0 0 0zm13 -59l0 3 1 -1 0 2 0 1 -1 2 0 2 0 2 -1 2 0 2 -1 2 0 2 0 2 -1 2 0 2 -1 1 0 2 0 2 -1 2 0 2 -1 2 0 2 -1 2 0 1 -1 2 0 2 -1 2 0 1 -1 2 0 2 -1 1 0 2 -1 1 0 2 -1 1 -3 -1 1 -1 0 -2 1 -1 1 -2 0 -1 1 -2 0 -2 1 -1 0 -2 1 -2 0 -1 1 -2 0 -2 1 -2 0 -2 0 -1 1 -2 0 -2 1 -2 0 -2 1 -2 0 -2 0 -2 1 -2 0 -2 0 -2 1 -1 0 -2 0 -2 1 -2 0 -2 0 -2 2 -1zm-2 1l1 -1 1 0 -2 1zm9 2l-7 0 0 -3 7 0 2 1 -2 2zm0 -3l2 0 0 1 -2 -1zm-1 366l0 -365 3 0 0 365 -2 2 -1 -2zm1 2l-1 0 0 -2 1 2zm194 -2l2 0 -1 2 -6 0 -7 1 -7 1 -6 0 -6 1 -7 0 -6 0 -6 1 -6 0 -7 1 -6 0 -6 0 -6 0 -6 0 -6 0 -5 0 -6 0 -6 0 -6 0 -6 0 -6 0 -6 0 -6 -1 -6 0 -6 0 -5 -1 -6 0 -6 -1 -6 0 -7 -1 -6 -1 -6 0 0 -3 7 1 6 0 6 1 6 1 6 0 6 1 6 0 6 0 5 1 6 0 6 0 6 0 6 0 6 1 6 0 6 0 5 0 6 0 6 -1 6 0 6 0 6 0 6 -1 7 0 6 0 6 -1 6 0 7 -1 6 0 7 -1 6 0 7 -1 -1 1zm2 0l0 2 -1 0 1 -2zm10 -426l-10 426 -2 0 9 -426 3 0 0 0zm0 0l0 0 0 0 0 0zm0 -3826l0 3826 -3 0 0 -3826 3 0 0 0zm0 0l0 0 0 0 0 0zm-7 -366l7 366 -3 0 -6 -366 1 -1 1 1zm-1 -1l1 0 0 1 -1 -1zm-196 1l-3 0 1 -1 6 -1 6 -1 7 0 6 -1 6 0 6 -1 6 0 6 -1 6 0 6 0 6 -1 6 0 6 0 6 0 6 0 6 0 6 0 6 0 6 0 6 0 6 1 7 0 6 0 6 0 6 1 7 0 6 1 7 0 6 1 7 0 6 1 7 1 0 2 -7 0 -7 -1 -6 0 -7 -1 -6 0 -6 -1 -7 0 -6 -1 -6 0 -7 0 -6 -1 -6 0 -6 0 -6 0 -6 0 -6 0 -6 0 -6 0 -6 0 -6 0 -6 0 -6 0 -6 1 -6 0 -6 0 -6 1 -6 0 -6 1 -6 0 -6 1 -6 1 -7 0 2 -1zm-3 0l0 -1 1 0 -1 1zm0 398l0 -398 3 0 0 398 -2 2 -1 -2zm3 0l0 2 -2 0 2 -2zm-9 -1l7 0 0 3 -7 0 -2 -2 2 -1zm0 3l-1 0 -1 -2 2 2zm-16 -58l3 -1 0 0 1 1 0 1 1 2 0 2 1 1 0 2 1 1 0 2 1 2 0 2 1 1 0 2 1 2 0 2 1 2 0 2 1 1 0 2 0 2 1 2 0 2 1 2 0 2 0 2 1 2 0 2 1 2 0 1 0 2 1 2 0 2 0 2 -3 0 0 -1 0 -2 -1 -2 0 -2 0 -2 -1 -2 0 -2 0 -2 -1 -2 0 -1 0 -2 -1 -2 0 -2 -1 -2 0 -2 -1 -2 0 -2 0 -2 -1 -1 0 -2 -1 -2 0 -2 -1 -1 0 -2 -1 -2 0 -1 -1 -2 0 -2 -1 -1 -1 -2 0 -1 -1 -1 0 0zm-212 -161l1 -2 0 0 8 1 8 2 9 2 8 2 8 3 8 3 8 3 8 3 8 3 8 4 8 4 8 4 7 4 8 5 7 5 7 5 7 5 7 5 7 6 6 6 6 6 6 6 6 7 6 6 5 7 6 8 5 7 4 7 5 8 4 8 4 8 4 9 -3 1 -3 -9 -4 -8 -4 -7 -5 -8 -5 -8 -5 -7 -5 -7 -5 -7 -6 -6 -6 -7 -6 -6 -6 -6 -6 -6 -7 -6 -7 -5 -7 -5 -7 -5 -7 -5 -7 -4 -8 -5 -7 -4 -8 -4 -8 -3 -8 -4 -8 -3 -8 -3 -8 -3 -8 -2 -8 -2 -8 -2 -9 -2 -8 -2 0 0zm1 -2l0 0 0 0 0 0zm-42 -4l3 0 -1 -1 0 0 0 0 1 0 1 0 1 0 1 0 1 1 1 0 2 0 1 0 2 0 1 0 2 1 2 0 2 0 2 0 1 1 2 0 2 0 2 0 1 0 2 1 2 0 1 0 1 0 1 0 2 0 1 0 0 0 1 1 0 0 1 0 -1 2 0 0 0 0 -1 0 -1 0 -1 0 -1 0 -1 0 -1 0 -2 -1 -1 0 -2 0 -2 0 -1 0 -2 -1 -2 0 -2 0 -2 0 -1 0 -2 -1 -2 0 -2 0 -1 0 -2 0 -1 0 -1 -1 -2 0 -1 0 -1 0 0 0 -1 0 0 0 -1 0 -1 -2zm1 2l-1 0 0 -2 1 2zm2 -198l0 196 -3 0 0 -196 1 -1 2 1zm-2 -1l2 0 0 1 -2 -1zm-1500 0l1500 0 0 2 -1500 0 -2 -1 2 -1zm-2 1l0 -1 2 0 -2 1zm0 196l0 -196 3 0 0 196 -1 2 -2 -2zm3 0l0 2 -1 0 1 -2zm-41 6l-1 -2 0 0 1 0 0 0 1 -1 0 0 1 0 2 0 1 0 1 0 1 0 2 0 2 -1 1 0 2 0 2 0 2 0 1 -1 2 0 2 0 2 0 2 -1 1 0 2 0 1 0 2 0 1 0 1 -1 1 0 1 0 1 0 1 0 0 0 0 0 1 3 0 0 -1 0 -1 0 0 0 -1 0 -1 0 -2 0 -1 1 -1 0 -2 0 -1 0 -2 0 -2 0 -2 1 -1 0 -2 0 -2 0 -2 0 -2 1 -1 0 -2 0 -2 0 -1 0 -2 1 -1 0 -1 0 -1 0 -1 0 -1 0 -1 0 0 0 0 0 0 0zm-1 -2l0 0 0 0 0 0zm-211 163l-3 -1 0 0 4 -9 4 -8 4 -8 5 -8 4 -7 5 -7 6 -8 5 -7 6 -6 6 -7 6 -6 6 -6 6 -6 7 -6 7 -5 7 -5 7 -5 7 -5 8 -5 7 -4 8 -4 8 -4 8 -4 8 -3 8 -3 8 -3 8 -3 8 -3 8 -2 9 -2 8 -2 8 -1 1 2 -8 2 -9 2 -8 2 -8 2 -8 2 -8 3 -8 3 -8 3 -8 4 -8 3 -8 4 -7 4 -8 5 -7 4 -7 5 -7 5 -7 5 -7 5 -7 6 -6 6 -6 6 -6 6 -6 7 -6 6 -5 7 -5 7 -5 7 -5 8 -5 8 -4 7 -4 8 -3 9 0 0zm-16 58l0 -3 -1 1 0 -2 0 -2 1 -2 0 -2 0 -1 1 -2 0 -2 1 -2 0 -2 0 -2 1 -2 0 -2 1 -2 0 -2 0 -2 1 -1 0 -2 1 -2 0 -2 1 -2 0 -2 1 -1 0 -2 1 -2 0 -2 1 -1 0 -2 1 -1 0 -2 1 -2 0 -1 1 -1 3 1 -1 1 0 1 -1 2 -1 1 0 2 -1 2 0 1 -1 2 0 2 -1 1 0 2 -1 2 0 2 -1 1 0 2 0 2 -1 2 0 2 -1 2 0 2 -1 2 0 2 0 1 -1 2 0 2 0 2 -1 2 0 2 0 2 -1 2 0 2 0 1 -2 2zm2 -2l-1 2 -1 0 2 -2zm-9 -1l7 0 0 3 -7 0 -2 -2 2 -1zm0 3l-2 0 0 -2 2 2zm1 -400l0 398 -3 0 0 -398 2 -1 1 1zm-1 -1l1 0 0 1 -1 -1zm-195 -4l-3 0 2 -2 6 0 7 -1 6 0 7 -1 6 0 7 0 6 -1 6 0 7 0 6 0 6 0 6 0 6 0 6 0 6 0 6 0 6 1 6 0 6 0 6 1 6 0 6 0 6 1 5 0 6 1 6 1 6 0 6 1 6 1 7 0 6 1 6 1 0 2 -7 0 -6 -1 -6 -1 -6 0 -6 -1 -6 -1 -6 0 -6 -1 -6 0 -6 -1 -6 0 -5 -1 -6 0 -6 0 -6 -1 -6 0 -6 0 -6 0 -6 0 -6 0 -6 0 -6 0 -6 0 -7 0 -6 0 -6 0 -6 1 -7 0 -6 0 -7 1 -6 1 -7 0 1 -1zm-3 0l0 -1 2 -1 -2 2zm-8 459l8 -459 3 0 -8 459 -3 0 0 0zm0 0l0 0 0 0 0 0zm0 3738l0 -3738 3 0 0 3738 -3 0 0 0zm0 0l0 0 0 0 0 0zm8 422l-8 -422 3 0 8 422 -2 1 -1 -1zm1 1l-1 0 0 -1 1 1zm198 1l3 0 -1 1 -7 1 -6 0 -6 1 -7 1 -6 0 -6 1 -7 0 -6 0 -7 1 -6 0 -7 0 -6 1 -7 0 -6 0 -6 0 -7 0 -6 0 -7 0 -6 -1 -6 0 -7 0 -6 0 -6 -1 -6 0 -6 -1 -6 0 -6 -1 -6 0 -6 -1 -5 -1 -6 -1 -6 -1 1 -2 5 0 6 1 6 1 5 1 6 0 6 1 6 1 6 0 6 0 6 1 6 0 7 0 6 1 6 0 7 0 6 0 7 0 6 0 6 0 7 0 6 0 7 -1 6 0 7 0 6 -1 6 0 7 -1 6 0 7 -1 6 0 6 -1 6 -1 -1 2zm3 0l0 1 -1 0 1 -1zm-7 -366l0 3 1 -2 1 12 0 11 1 11 0 12 1 11 0 11 1 12 0 11 0 12 1 11 0 11 0 12 1 11 0 11 0 12 0 11 0 12 1 11 0 11 0 12 0 11 0 11 0 12 0 11 0 12 0 11 0 12 0 11 -1 11 0 12 0 11 0 12 -3 0 0 -12 0 -11 1 -12 0 -11 0 -12 0 -11 0 -11 0 -12 0 -11 0 -12 0 -11 0 -11 0 -12 0 -11 0 -11 -1 -12 0 -11 0 -12 0 -11 0 -11 -1 -12 0 -11 0 -11 -1 -12 0 -11 0 -11 -1 -12 0 -11 -1 -12 0 -11 -1 -11 0 -12 1 -1zm-1 1l-1 -1 2 0 -1 1zm11 2l-10 0 0 -3 10 0 2 1 -2 2zm0 -3l1 0 1 1 -2 -1zm16 60l-3 1 0 0 -1 -1 0 -2 -1 -1 0 -2 -1 -2 0 -1 -1 -2 0 -2 -1 -1 0 -2 -1 -2 0 -2 -1 -2 0 -2 -1 -2 0 -2 -1 -2 0 -2 0 -2 -1 -2 0 -2 -1 -2 0 -2 0 -2 -1 -2 0 -2 -1 -2 0 -2 0 -2 -1 -2 0 -1 0 -2 3 -1 0 2 0 2 1 2 0 2 0 2 1 2 0 2 0 2 1 2 0 2 0 2 1 2 0 2 1 2 0 2 1 2 0 1 0 2 1 2 0 2 1 2 0 2 1 2 0 2 1 1 0 2 1 2 0 1 1 2 1 1 0 2 1 1 0 0zm220 166l-3 0 1 2 -9 -2 -9 -3 -8 -2 -9 -2 -9 -3 -8 -3 -8 -4 -9 -3 -8 -4 -8 -3 -8 -4 -8 -5 -8 -4 -7 -5 -8 -5 -7 -5 -7 -5 -7 -6 -7 -5 -7 -6 -6 -6 -7 -7 -6 -6 -5 -7 -6 -7 -5 -7 -5 -8 -5 -7 -5 -8 -4 -8 -4 -8 -4 -9 3 -1 3 8 4 9 5 7 4 8 5 8 5 7 5 7 6 7 6 7 5 6 7 7 6 6 7 6 6 5 7 6 7 5 8 5 7 5 8 4 7 5 8 4 8 4 8 4 8 4 9 3 8 3 8 3 9 3 8 2 9 3 9 2 9 2 1 1zm-1 -1l1 0 0 1 -1 -1zm-2 204l0 -203 3 0 0 203 -2 1 -1 -1zm1 1l-1 0 0 -1 1 1zm1563 0l-1563 0 0 -2 1563 0 1 1 -1 1zm1 -1l0 1 -1 0 1 -1zm0 -203l0 203 -3 0 0 -203 2 -1 1 1zm-3 0l0 -1 2 0 -2 1z"/>
   </g>
  </g>
 </g>
</svg>
