<?xml version="1.0" encoding="UTF-8"?>
<!DOCTYPE svg PUBLIC "-//W3C//DTD SVG 1.1//EN" "http://www.w3.org/Graphics/SVG/1.1/DTD/svg11.dtd">
<!-- Creator: CorelDRAW X8 -->
<svg xmlns="http://www.w3.org/2000/svg" xml:space="preserve" width="40mm" height="60mm" version="1.1" style="shape-rendering:geometricPrecision; text-rendering:geometricPrecision; image-rendering:optimizeQuality; fill-rule:evenodd; clip-rule:evenodd"
viewBox="0 0 4000 6000"
 xmlns:xlink="http://www.w3.org/1999/xlink">
 <defs>
  <style type="text/css">
   <![CDATA[
    .str0 {stroke:#332C2B;stroke-width:7.62}
    .fil0 {fill:none}
   ]]>
  </style>
 </defs>
 <g id="图层_x0020_1">
  <metadata id="CorelCorpID_0Corel-Layer"/>
  <path class="fil0 str0" d="M863 5248l2136 0c76,0 138,-62 138,-138l0 -4322c0,-76 -62,-138 -138,-138l-1918 0c-76,0 -138,62 -138,138l0 4322c0,76 62,138 138,138 76,0 196,48 196,102m367 -4503c-27,-27 -8,-64 17,-64 26,0 47,21 47,47 0,25 -21,46 -47,46 -25,0 -46,-21 -46,-46 0,-26 21,-47 46,-47m-254 65c-3,-31 -34,-50 -51,-50 -17,0 -32,14 -32,31l0 0c0,18 15,32 32,32l98 0c17,0 31,-14 31,-32l0 0c0,-17 -14,-31 -31,-31l-98 0m576 45c0,-25 -66,-43 -81,-43 -16,0 -29,13 -29,29l0 0c0,16 13,29 29,29l377 0c16,0 29,-13 29,-29l0 0c0,-16 -13,-29 -29,-29l-377 0"/>
 </g>
</svg>
