<?xml version="1.0" encoding="UTF-8"?>
<!DOCTYPE svg PUBLIC "-//W3C//DTD SVG 1.1//EN" "http://www.w3.org/Graphics/SVG/1.1/DTD/svg11.dtd">
<!-- Creator: CorelDRAW 2020 (64-Bit) -->
<svg xmlns="http://www.w3.org/2000/svg" xml:space="preserve" width="40mm" height="60mm" version="1.1" style="shape-rendering:geometricPrecision; text-rendering:geometricPrecision; image-rendering:optimizeQuality; fill-rule:evenodd; clip-rule:evenodd"
viewBox="0 0 4000 6000"
 xmlns:xlink="http://www.w3.org/1999/xlink"
 xmlns:xodm="http://www.corel.com/coreldraw/odm/2003">
 <defs>
  <style type="text/css">
   <![CDATA[
    .str0 {stroke:black;stroke-width:7.62;stroke-miterlimit:22.9256}
    .fil0 {fill:none}
   ]]>
  </style>
 </defs>
 <g id="图层_x0020_1">
  <metadata id="CorelCorpID_0Corel-Layer"/>
  <path class="fil0 str0" d="M980.43 878.77l2038.63 0c5.3,0 9.65,4.35 9.65,9.65l0 116.89c0,5.31 -4.35,9.65 -9.65,9.65l-2038.63 0c-5.31,0 -9.65,-4.34 -9.65,-9.65l0 -116.89c0,-5.3 4.34,-9.65 9.65,-9.65zm877.9 251.95l278.91 0c65.7,0 119.45,53.75 119.45,119.44l0 714.65c0,65.7 -53.75,119.45 -119.45,119.45l-278.91 0c-65.7,0 -119.45,-53.75 -119.45,-119.45l0 -714.65c0,-65.69 53.75,-119.44 119.45,-119.44zm-885.47 3830.77l2053.76 0c5.31,0 9.65,4.35 9.65,9.65l0 116.89c0,5.31 -4.34,9.65 -9.65,9.65l-2053.76 0c-5.3,0 -9.65,-4.34 -9.65,-9.65l0 -116.89c0,-5.3 4.35,-9.65 9.65,-9.65zm-39.83 364.23l2042.78 0c124.95,0 227.17,-102.22 227.17,-227.16l0 -4221.4c0,-124.94 -102.22,-227.16 -227.17,-227.16l-1951.63 0c-124.94,0 -227.16,102.22 -227.16,227.16l0 4221.4c0,124.94 102.22,227.16 227.16,227.16l52.32 0c62.92,0 98.39,11.6 107.43,24.28"/>
 </g>
</svg>
