<?xml version="1.0" encoding="UTF-8"?>
<!DOCTYPE svg PUBLIC "-//W3C//DTD SVG 1.1//EN" "http://www.w3.org/Graphics/SVG/1.1/DTD/svg11.dtd">
<!-- Creator: CorelDRAW -->
<svg xmlns="http://www.w3.org/2000/svg" xml:space="preserve" width="40mm" height="60mm" style="shape-rendering:geometricPrecision; text-rendering:geometricPrecision; image-rendering:optimizeQuality; fill-rule:evenodd; clip-rule:evenodd"
viewBox="0 0 40 60"
 xmlns:xlink="http://www.w3.org/1999/xlink">
 <defs>
  <style type="text/css">
   <![CDATA[
    .str0 {stroke:#1F1A17;stroke-width:0.194}
    .fil0 {fill:none;fill-rule:nonzero}
   ]]>
  </style>
 </defs>
 <g id="图层_x0020_9">
  <metadata id="CorelCorpID_0Corel-Layer"/>
  <path class="fil0 str0" d="M33.3128 10.2115l-0.0691 39.8617 0.0142 0.4465m-3.6943 -44.0149c0.6555,0 0.792,0.0106 1.0401,0.0779 1.3377,0.3597 2.2857,1.3112 2.6577,2.6702 0.0443,0.1613 0.0532,0.3243 0.0514,0.9586m-16.7068 -3.7103l12.9576 0.0036m-19.8892 0.0514c0.0957,-0.0585 0.0957,-0.0585 6.9316,-0.055m-7.0007 0.0833l0.0691 -0.0283m5.8401 46.9438c-3.5898,0 -4.7504,-0.0142 -5.4095,-0.0656 -0.6591,-0.0496 -0.9799,-0.1506 -1.4902,-0.466 -0.8983,-0.5546 -1.6337,-1.6319 -1.7045,-2.493 -0.0496,-0.6272 -0.2233,-23.9609 -0.2233,-30.1873 0,-7.4507 0.0585,-10.4203 0.2162,-10.9306 0.4678,-1.5114 1.3165,-2.3832 2.7021,-2.773m6.1626 46.9155l-0.2534 0m3.8077 -0.326c-0.062,0.326 -0.062,0.326 -3.5543,0.326m3.5933 -1.0862l-0.0354 0.7353 -0.0036 0.0249m1.5078 -1.0029c-0.0726,-0.3208 -0.3738,-0.5511 -0.7194,-0.5511 -0.4375,0 -0.7263,0.3065 -0.7494,0.7938m1.4936 0l-0.0248 -0.2427m3.2496 1.3254c-2.2804,0.0088 -2.7198,-0.0036 -2.9413,-0.078 -0.2197,-0.0762 -0.2622,-0.2251 -0.2835,-1.0047m3.2248 1.0827l6.0403 -0.0656c0.6911,-0.0744 1.274,-0.2818 1.7489,-0.6255 0.737,-0.5316 1.3891,-1.6035 1.3891,-2.2857m-15.3464 -42.2872l4.4064 0c0.3723,0 0.6768,0.3046 0.6768,0.6768l0 0c0,0.3723 -0.3045,0.6768 -0.6768,0.6768l-4.4064 0c-0.3722,0 -0.6767,-0.3045 -0.6767,-0.6768l0 0c0,-0.3722 0.3045,-0.6768 0.6767,-0.6768z"/>
 </g>
</svg>
