<?xml version="1.0" encoding="UTF-8"?>
<!DOCTYPE svg PUBLIC "-//W3C//DTD SVG 1.1//EN" "http://www.w3.org/Graphics/SVG/1.1/DTD/svg11.dtd">
<!-- Creator: CorelDRAW 2020 (64-Bit) -->
<svg xmlns="http://www.w3.org/2000/svg" xml:space="preserve" width="40mm" height="60mm" version="1.1" style="shape-rendering:geometricPrecision; text-rendering:geometricPrecision; image-rendering:optimizeQuality; fill-rule:evenodd; clip-rule:evenodd"
viewBox="0 0 4000 6000"
 xmlns:xlink="http://www.w3.org/1999/xlink"
 xmlns:xodm="http://www.corel.com/coreldraw/odm/2003">
 <defs>
  <style type="text/css">
   <![CDATA[
    .str1 {stroke:#332C2B;stroke-width:20;stroke-miterlimit:22.9256}
    .str0 {stroke:#E62129;stroke-width:20;stroke-miterlimit:22.9256}
    .fil0 {fill:none}
   ]]>
  </style>
   <clipPath id="id0">
    <rect x="-49368.82" y="-25992.58" width="16818.78" height="15667.49"/>
   </clipPath>
   <clipPath id="id1">
    <rect x="-43183.91" y="-1665.03" width="18332.6" height="17273.38"/>
   </clipPath>
 </defs>
 <g id="图层_x0020_1">
  <metadata id="CorelCorpID_0Corel-Layer"/>
  <g style="clip-path:url(#id0)">
   <image x="-49368.82" y="-25992.58" width="16818.78" height="15667.49" xlink:href="Galaxy S23 -11i（背膜全包）_Images\Galaxy S23 -11i（背膜全包）_ImgID1.png"/>
  </g>
  <rect class="fil0 str0" x="-49073.14" y="-25428.47" width="7090" height="14630"/>
  <path class="fil0 str0" d="M-48154.29 -25259.13l1219.53 0c39.56,0 95.19,47.01 127.34,47.01l2592.93 0c32.15,0 71.24,-47.01 130.64,-47.01l1181.86 0c412.5,0 750,337.51 750,750l0 12782.2c0,412.49 -337.5,749.99 -750,749.99l-5252.3 0c-412.5,0 -750,-337.5 -750,-749.99l0 -12782.2c0,-412.5 337.5,-750 750,-750z"/>
  <circle class="fil0 str0" cx="-45516.17" cy="-24828.52" r="118.73"/>
  <rect class="fil0 str0" x="-41560.72" y="-25428.47" width="7090" height="14630"/>
  <rect class="fil0 str0" x="-41403.74" y="-25291.47" width="6776.04" height="14352.29" rx="800" ry="1056.34"/>
  <path class="fil0 str0" d="M-40274.66 -24891.59c-395.27,0 -715.7,320.43 -715.7,715.7 0,395.27 320.43,715.7 715.7,715.7 395.27,0 715.7,-320.43 715.7,-715.7 0,-395.27 -320.43,-715.7 -715.7,-715.7 -395.27,0 -492.68,435.25 -474.16,594"/>
  <path class="fil0 str0" d="M-40274.66 -23269.01c-395.27,0 -715.7,320.43 -715.7,715.7 0,395.27 320.43,715.7 715.7,715.7 395.27,0 715.7,-320.43 715.7,-715.7 0,-395.27 -320.43,-715.7 -715.7,-715.7 -395.27,0 -492.68,435.25 -474.16,594"/>
  <path class="fil0 str0" d="M-40274.66 -21646.43c-395.27,0 -715.7,320.43 -715.7,715.7 0,395.27 320.43,715.7 715.7,715.7 395.27,0 715.7,-320.43 715.7,-715.7 0,-395.27 -320.43,-715.7 -715.7,-715.7 -395.27,0 -492.68,435.25 -474.16,594"/>
  <path class="fil0 str0" d="M-38865.6 -24408.05c-122.02,0 -220.94,98.92 -220.94,220.94 0,122.02 98.92,220.94 220.94,220.94 122.02,0 220.94,-98.92 220.94,-220.94 0,-122.02 -98.92,-220.94 -220.94,-220.94 -122.02,0 -152.09,134.36 -146.38,183.37"/>
  <g style="clip-path:url(#id1)">
   <image x="-43183.91" y="-1665.03" width="18332.6" height="17273.39" xlink:href="Galaxy S23 -11i（背膜全包）_Images\Galaxy S23 -11i（背膜全包）_ImgID2.png"/>
  </g>
  <path class="fil0 str0" d="M-32459.05 -381.23l7090 0 0 14630 -7090 0 0 -14630zm956.98 137l5176.04 0c440,0 800,360 800,800.01l0 12752.28c0,440.01 -360,800 -800,800l-5176.04 0c-440,0 -800,-359.99 -800,-800l0 -12752.28c0,-440.01 360,-800.01 800,-800.01zm329.08 399.88c-395.27,0 -715.7,320.43 -715.7,715.7 0,395.27 320.43,715.7 715.7,715.7 395.27,0 715.7,-320.43 715.7,-715.7 0,-395.27 -320.43,-715.7 -715.7,-715.7 -395.27,0 -492.68,435.25 -474.16,594m474.16 1028.58c-395.27,0 -715.7,320.43 -715.7,715.7 0,395.27 320.43,715.7 715.7,715.7 395.27,0 715.7,-320.43 715.7,-715.7 0,-395.27 -320.43,-715.7 -715.7,-715.7 -395.27,0 -492.68,435.25 -474.16,594m474.16 1028.58c-395.27,0 -715.7,320.43 -715.7,715.7 0,395.27 320.43,715.7 715.7,715.7 395.27,0 715.7,-320.43 715.7,-715.7 0,-395.27 -320.43,-715.7 -715.7,-715.7 -395.27,0 -492.68,435.25 -474.16,594m1883.22 -3355.62c-122.02,0 -220.94,98.92 -220.94,220.94 0,122.02 98.92,220.94 220.94,220.94 122.02,0 220.94,-98.92 220.94,-220.94 0,-122.02 -98.92,-220.94 -220.94,-220.94 -122.02,0 -152.09,134.36 -146.38,183.37"/>
  <path class="fil0 str0" d="M-35780.48 -244.23c430.83,0 784.91,345.16 799.48,772.62l736.17 0c27.5,0 50,22.54 50,49.91l0 12688.36c0,27.37 -22.5,49.91 -50,49.91l-735.76 0c-4.61,436.13 -362.73,791.49 -799.89,791.49l1328.79 0c27.5,0 50,22.5 50,50l0 633.68c0,27.5 -22.5,50 -50,50l-7804.29 0c-27.5,0 -50,-22.5 -50,-50l0 -633.68c0,-27.5 22.5,-50 50,-50l1299.46 0c-437.16,0 -795.28,-355.36 -799.89,-791.49l-735.76 0c-27.49,0 -50,-22.54 -50,-49.91l0 -12688.36c0,-27.37 22.51,-49.91 50,-49.91l736.17 0c14.57,-427.46 368.65,-772.62 799.48,-772.62l-1299.46 0c-27.5,0 -50,-22.5 -50,-50l0 -633.68c0,-27.5 22.5,-50 50,-50l7804.29 0c27.5,0 50,22.5 50,50l0 633.68c0,27.5 -22.5,50 -50,50l-1328.79 0z"/>
  <circle class="fil0 str0" cx="-39247.63" cy="-620.72" r="156"/>
  <rect class="fil0 str0" x="-42373.32" y="2238.97" width="379.02" height="2208.18" rx="289.73" ry="304.72"/>
  <rect class="fil0 str0" x="-42373.32" y="5182.96" width="379.02" height="1328.98" rx="289.73" ry="183.39"/>
  <rect class="fil0 str0" x="-40637.11" y="14312.76" width="1042.91" height="335.14" rx="100" ry="100"/>
  <rect class="fil0 str0" x="-38844.62" y="14256.62" width="997.71" height="449.79" rx="427.68" ry="600"/>
  <rect class="fil0 str0" x="-37265.39" y="14266.62" width="1431.52" height="409.95" rx="613.64" ry="546.85"/>
  <circle class="fil0 str0" cx="-37548.17" cy="14471.52" r="136.71"/>
  <path class="fil0 str0" d="M-39218.38 739.19c-122.02,0 -220.94,98.92 -220.94,220.94 0,122.02 98.92,220.94 220.94,220.94 122.02,0 220.94,-98.92 220.94,-220.94 0,-122.02 -98.92,-220.94 -220.94,-220.94 -122.02,0 -152.09,134.36 -146.38,183.37"/>
  <path class="fil0 str0" d="M-40617.44 3420.81c-395.27,0 -715.7,320.43 -715.7,715.7 0,395.27 320.43,715.7 715.7,715.7 395.27,0 715.7,-320.43 715.7,-715.7 0,-395.27 -320.43,-715.7 -715.7,-715.7 -395.27,0 -492.68,435.25 -474.16,594"/>
  <path class="fil0 str0" d="M-40577.44 1838.23c-395.27,0 -715.7,320.43 -715.7,715.7 0,395.27 320.43,715.7 715.7,715.7 395.27,0 715.7,-320.43 715.7,-715.7 0,-395.27 -320.43,-715.7 -715.7,-715.7 -395.27,0 -492.68,435.25 -474.16,594"/>
  <path class="fil0 str0" d="M-40597.44 255.65c-395.27,0 -715.7,320.43 -715.7,715.7 0,395.27 320.43,715.7 715.7,715.7 395.27,0 715.7,-320.43 715.7,-715.7 0,-395.27 -320.43,-715.7 -715.7,-715.7 -395.27,0 -492.68,435.25 -474.16,594"/>
  <path class="fil0 str1" d="M-20744.35 -1088.89c0,-430.83 345.16,-784.91 772.62,-799.48l0 -736.17c0,-27.5 22.54,-50 49.91,-50l12688.36 0c27.37,0 49.91,22.5 49.91,50l0 735.76c436.13,4.61 791.49,362.73 791.49,799.89l0 -1328.79c0,-27.5 22.5,-50 50,-50l633.68 0c27.5,0 50,22.5 50,50l0 7804.29c0,27.5 -22.5,50 -50,50l-633.68 0c-27.5,0 -50,-22.5 -50,-50l0 -1299.46c0,437.16 -355.36,795.28 -791.49,799.89l0 735.76c0,27.49 -22.54,50 -49.91,50l-12688.36 0c-27.37,0 -49.91,-22.51 -49.91,-50l0 -736.17c-427.46,-14.57 -772.62,-368.65 -772.62,-799.48l0 1299.46c0,27.5 -22.5,50 -50,50l-633.68 0c-27.5,0 -50,-22.5 -50,-50l0 -7804.29c0,-27.5 22.5,-50 50,-50l633.68 0c27.5,0 50,22.5 50,50l0 1328.79zm-532.49 3467.15c0,-86.16 69.84,-156 156,-156 86.16,0 156,69.84 156,156 0,86.16 -69.84,156 -156,156 -86.16,0 -156,-69.84 -156,-156zm3015.69 2936.19l0 -0.02c0,-104.23 85.27,-189.5 189.5,-189.5l1829.18 0c104.23,0 189.5,85.27 189.5,189.5l0 0.02c0,104.23 -85.27,189.5 -189.5,189.5l-1829.18 0c-104.23,0 -189.5,-85.27 -189.5,-189.5zm2943.99 0l0 -0.02c0,-104.23 85.27,-189.5 189.5,-189.5l949.98 0c104.23,0 189.5,85.27 189.5,189.5l0 0.02c0,104.23 -85.27,189.5 -189.5,189.5l-949.98 0c-104.23,0 -189.5,-85.27 -189.5,-189.5zm9129.8 -1646.72l0 -842.91c0,-55 45,-100 100,-100l135.14 0c55,0 100,45 100,100l0 842.91c0,55 -45,100 -100,100l-135.14 0c-55,0 -100,-45 -100,-100zm-56.14 -1917.37l0 -547.93c0,-123.69 101.19,-224.89 224.89,-224.89l0 0c123.71,0 224.9,101.2 224.9,224.89l0 547.93c0,123.69 -101.19,224.89 -224.9,224.89l0 0c-123.7,0 -224.89,-101.2 -224.89,-224.89zm10 -1559.32l0 -1021.58c0,-112.74 92.23,-204.97 204.97,-204.97l0 0c112.75,0 204.98,92.23 204.98,204.97l0 1021.58c0,112.74 -92.23,204.97 -204.98,204.97l0 0c-112.74,0 -204.97,-92.23 -204.97,-204.97zm68.19 487.76c0,-75.5 61.21,-136.71 136.71,-136.71 75.5,0 136.71,61.21 136.71,136.71 0,75.5 -61.21,136.71 -136.71,136.71 -75.5,0 -136.71,-61.21 -136.71,-136.71zm-13595.62 1670.21c0,122.02 98.92,220.94 220.94,220.94 122.02,0 220.94,-98.92 220.94,-220.94 0,-122.02 -98.92,-220.94 -220.94,-220.94 -122.02,0 -220.94,98.92 -220.94,220.94 0,122.02 134.36,152.09 183.37,146.38m2498.25 1252.68c0,395.27 320.43,715.7 715.7,715.7 395.27,0 715.7,-320.43 715.7,-715.7 0,-395.27 -320.43,-715.7 -715.7,-715.7 -395.27,0 -715.7,320.43 -715.7,715.7 0,395.27 435.25,492.68 594,474.16m-2176.58 -514.16c0,395.27 320.43,715.7 715.7,715.7 395.27,0 715.7,-320.43 715.7,-715.7 0,-395.27 -320.43,-715.7 -715.7,-715.7 -395.27,0 -715.7,320.43 -715.7,715.7 0,395.27 435.25,492.68 594,474.16m-2176.58 -454.16c0,395.27 320.43,715.7 715.7,715.7 395.27,0 715.7,-320.43 715.7,-715.7 0,-395.27 -320.43,-715.7 -715.7,-715.7 -395.27,0 -715.7,320.43 -715.7,715.7 0,395.27 435.25,492.68 594,474.16"/>
  <path class="fil0 str1" d="M2762.3 873.65c128,0 233.2,102.54 237.52,229.54l218.72 0c8.17,0 14.86,6.7 14.86,14.83l0 3769.7c0,8.13 -6.69,14.83 -14.86,14.83l-218.59 0c-1.37,129.57 -107.77,235.15 -237.65,235.15l394.78 0c8.17,0 14.86,6.68 14.86,14.85l0 188.27c0,8.17 -6.69,14.85 -14.86,14.85l-2318.65 0c-8.17,0 -14.85,-6.68 -14.85,-14.85l0 -188.27c0,-8.17 6.68,-14.85 14.85,-14.85l386.07 0c-129.88,0 -236.28,-105.58 -237.65,-235.15l-218.59 0c-8.17,0 -14.86,-6.7 -14.86,-14.83l0 -3769.7c0,-8.13 6.69,-14.83 14.86,-14.83l218.72 0c4.32,-127 109.52,-229.54 237.52,-229.54l-386.07 0c-8.17,0 -14.85,-6.69 -14.85,-14.86l0 -188.26c0,-8.17 6.68,-14.86 14.85,-14.86l2318.65 0c8.17,0 14.86,6.69 14.86,14.86l0 188.26c0,8.17 -6.69,14.86 -14.86,14.86l-394.78 0zm-1030.09 -158.21c25.6,0 46.35,20.75 46.35,46.35 0,25.6 -20.75,46.35 -46.35,46.35 -25.6,0 -46.35,-20.75 -46.35,-46.35 0,-25.6 20.75,-46.35 46.35,-46.35zm-872.34 895.96l0.01 0c30.96,0 56.3,25.34 56.3,56.3l0 543.45c0,30.97 -25.34,56.3 -56.3,56.3l-0.01 0c-30.97,0 -56.3,-25.33 -56.3,-56.3l0 -543.45c0,-30.96 25.33,-56.3 56.3,-56.3zm0 874.66l0.01 0c30.96,0 56.3,25.33 56.3,56.3l0 282.24c0,30.96 -25.34,56.3 -56.3,56.3l-0.01 0c-30.97,0 -56.3,-25.34 -56.3,-56.3l0 -282.24c0,-30.97 25.33,-56.3 56.3,-56.3zm489.24 2712.45l250.43 0c16.34,0 29.71,13.37 29.71,29.71l0 40.15c0,16.34 -13.37,29.71 -29.71,29.71l-250.43 0c-16.34,0 -29.71,-13.37 -29.71,-29.71l0 -40.15c0,-16.34 13.37,-29.71 29.71,-29.71zm569.65 -16.68l162.79 0c36.75,0 66.81,30.07 66.81,66.82l0 0c0,36.75 -30.06,66.82 -66.81,66.82l-162.79 0c-36.75,0 -66.81,-30.07 -66.81,-66.82l0 0c0,-36.75 30.06,-66.82 66.81,-66.82zm463.27 2.97l303.51 0c33.5,0 60.9,27.41 60.9,60.9l0 0c0,33.5 -27.4,60.9 -60.9,60.9l-303.51 0c-33.49,0 -60.89,-27.4 -60.89,-60.9l0 0c0,-33.49 27.4,-60.9 60.89,-60.9zm-144.91 20.26c22.43,0 40.62,18.19 40.62,40.62 0,22.43 -18.19,40.62 -40.62,40.62 -22.43,0 -40.62,-18.19 -40.62,-40.62 0,-22.43 18.19,-40.62 40.62,-40.62zm-496.22 -4039.24c-36.25,0 -65.64,29.39 -65.64,65.64 0,36.25 29.39,65.64 65.64,65.64 36.25,0 65.64,-29.39 65.64,-65.64 0,-36.25 -29.39,-65.64 -65.64,-65.64 -36.25,0 -45.18,39.92 -43.49,54.48m-372.17 742.23c-117.43,0 -212.63,95.2 -212.63,212.63 0,117.43 95.2,212.63 212.63,212.63 117.44,0 212.64,-95.2 212.64,-212.63 0,-117.43 -95.2,-212.63 -212.64,-212.63 -117.43,0 -146.37,129.31 -140.87,176.47m152.76 -646.66c-117.44,0 -212.64,95.2 -212.64,212.64 0,117.43 95.2,212.63 212.64,212.63 117.43,0 212.63,-95.2 212.63,-212.63 0,-117.44 -95.2,-212.64 -212.63,-212.64 -117.44,0 -146.38,129.32 -140.88,176.48m134.93 -646.66c-117.43,0 -212.63,95.2 -212.63,212.63 0,117.44 95.2,212.64 212.63,212.64 117.44,0 212.64,-95.2 212.64,-212.64 0,-117.43 -95.2,-212.63 -212.64,-212.63 -117.43,0 -146.37,129.31 -140.87,176.48"/>
 </g>
</svg>
