<?xml version="1.0" encoding="UTF-8"?>
<!DOCTYPE svg PUBLIC "-//W3C//DTD SVG 1.1//EN" "http://www.w3.org/Graphics/SVG/1.1/DTD/svg11.dtd">
<!-- Creator: CorelDRAW X8 -->
<svg xmlns="http://www.w3.org/2000/svg" xml:space="preserve" width="40mm" height="60mm" version="1.1" style="shape-rendering:geometricPrecision; text-rendering:geometricPrecision; image-rendering:optimizeQuality; fill-rule:evenodd; clip-rule:evenodd"
viewBox="0 0 4000 6000"
 xmlns:xlink="http://www.w3.org/1999/xlink">
 <defs>
  <style type="text/css">
   <![CDATA[
    .str0 {stroke:black;stroke-width:7.62}
    .fil0 {fill:none}
   ]]>
  </style>
 </defs>
 <g id="图层_x0020_1">
  <metadata id="CorelCorpID_0Corel-Layer"/>
  <path class="fil0 str0" d="M1052 5299l1742 0c132,0 241,-109 241,-241l0 -4168c0,-132 -108,-240 -241,-240l-547 0c-3,0 -6,1 -9,3l-4 5c-3,3 -5,4 -9,4l-113 0c-19,0 -35,15 -35,35l0 20c0,41 -33,74 -74,74l0 0c-41,0 -74,-33 -74,-74l0 -20c0,-20 -16,-35 -35,-35l-114 0c-3,0 -6,-1 -8,-4l-5 -5c-2,-2 -5,-3 -8,-3l-553 0c-132,0 -241,108 -241,240l0 4168c0,132 109,241 241,241l63 0c77,-1 137,16 182,51"/>
 </g>
</svg>
