<?xml version="1.0" encoding="UTF-8"?>
<!DOCTYPE svg PUBLIC "-//W3C//DTD SVG 1.1//EN" "http://www.w3.org/Graphics/SVG/1.1/DTD/svg11.dtd">
<!-- Creator: CorelDRAW X8 -->
<svg xmlns="http://www.w3.org/2000/svg" xml:space="preserve" width="40mm" height="60mm" version="1.1" style="shape-rendering:geometricPrecision; text-rendering:geometricPrecision; image-rendering:optimizeQuality; fill-rule:evenodd; clip-rule:evenodd"
viewBox="0 0 4000 6000"
 xmlns:xlink="http://www.w3.org/1999/xlink">
 <defs>
  <style type="text/css">
   <![CDATA[
    .fil0 {fill:black;fill-rule:nonzero}
   ]]>
  </style>
 </defs>
 <g id="图层_x0020_1">
  <metadata id="CorelCorpID_0Corel-Layer"/>
  <g>
   <path class="fil0" d="M2833 5355l-1837 0 0 -10 1837 0 0 0 0 10zm238 -248l10 0 0 0 0 13 -1 12 -1 13 -3 12 -2 12 -4 12 -4 11 -4 11 -5 11 -6 11 -5 10 -7 11 -7 9 -7 10 -8 9 -8 8 -9 9 -9 7 -9 8 -10 7 -10 6 -10 6 -11 6 -11 5 -11 4 -12 4 -12 3 -12 3 -12 2 -12 2 -13 1 -13 0 0 -10 12 0 13 -1 12 -2 11 -2 12 -2 11 -4 11 -3 11 -5 10 -4 11 -6 10 -5 9 -7 10 -6 9 -7 8 -8 9 -8 8 -8 7 -9 7 -9 7 -9 6 -10 6 -10 5 -10 5 -11 4 -10 4 -11 3 -12 3 -11 2 -12 1 -12 1 -12 0 -12 0 0zm10 -91l0 91 -10 0 0 -91 0 0 10 0zm0 -4032l0 4032 -10 0 0 -4032 0 0 10 0zm0 -91l0 91 -10 0 0 -91 0 0 10 0zm-248 -238l0 -10 0 0 13 0 13 1 12 2 12 2 12 3 12 3 12 4 11 5 11 4 11 6 10 6 10 6 10 7 9 8 9 8 9 8 8 8 8 9 7 10 7 9 7 11 5 10 6 11 5 11 4 11 4 11 4 12 2 12 3 12 1 13 1 12 0 13 -10 0 0 -12 -1 -12 -1 -12 -2 -12 -3 -11 -3 -12 -4 -11 -4 -10 -5 -11 -5 -10 -6 -10 -6 -10 -7 -9 -7 -9 -7 -9 -8 -8 -9 -8 -8 -8 -9 -7 -10 -6 -9 -7 -10 -5 -11 -5 -10 -5 -11 -5 -11 -3 -11 -3 -12 -3 -12 -2 -11 -2 -13 -1 -12 0 0 0zm-1666 -10l1666 0 0 10 -1666 0 0 0 0 -10zm-238 248l-10 0 0 0 0 -13 1 -12 1 -13 3 -12 2 -12 4 -12 4 -11 4 -11 5 -11 6 -11 6 -10 6 -11 7 -9 7 -10 8 -9 8 -8 9 -8 9 -8 9 -8 10 -7 10 -6 10 -6 11 -6 11 -4 11 -5 12 -4 12 -3 12 -3 12 -2 12 -2 13 -1 13 0 0 10 -12 0 -13 1 -11 2 -12 2 -12 3 -11 3 -11 3 -11 5 -10 5 -11 5 -10 5 -9 7 -10 6 -9 7 -8 8 -9 8 -8 8 -7 9 -7 9 -7 9 -6 10 -6 10 -5 10 -5 11 -4 10 -4 11 -3 12 -3 11 -2 12 -1 12 -1 12 0 12 0 0zm-10 91l0 -91 10 0 0 91 0 0 -10 0zm0 4032l0 -4032 10 0 0 4032 0 0 -10 0zm0 91l0 -91 10 0 0 91 0 0 -10 0zm248 238l0 10 0 0 -13 0 -13 -1 -12 -2 -12 -2 -12 -3 -12 -3 -12 -4 -11 -4 -11 -5 -11 -6 -10 -6 -10 -6 -10 -7 -9 -8 -9 -7 -9 -9 -8 -8 -8 -9 -7 -10 -7 -9 -6 -11 -6 -10 -6 -11 -5 -11 -4 -11 -4 -11 -4 -12 -2 -12 -3 -12 -1 -13 -1 -12 0 -13 10 0 0 12 1 12 1 12 2 12 3 11 3 12 4 11 4 10 5 11 5 10 6 10 6 10 7 9 7 9 7 9 8 8 9 8 8 8 9 7 10 6 9 7 10 5 11 6 10 4 11 5 11 3 11 4 12 2 12 2 11 2 13 1 12 0 0 0zm204 10l-204 0 0 -10 204 0 0 10zm-149 -3919l29 0 0 10 -29 0 0 0 0 -10zm-148 -137l10 0 0 0 0 7 1 7 1 7 1 6 2 7 1 7 3 6 2 6 3 6 3 6 3 6 4 6 4 5 4 5 4 5 5 5 4 5 5 4 6 4 5 4 6 3 5 4 6 3 6 3 7 2 6 2 7 2 6 2 7 1 7 1 7 0 7 0 0 10 -7 0 -8 0 -7 -1 -8 -2 -7 -1 -7 -2 -7 -3 -6 -2 -7 -3 -6 -3 -7 -4 -6 -4 -5 -4 -6 -4 -5 -5 -5 -5 -5 -5 -5 -5 -4 -6 -4 -6 -4 -6 -4 -6 -3 -6 -3 -7 -3 -7 -2 -7 -2 -7 -2 -7 -1 -7 -1 -7 -1 -8 0 -7 0 0zm10 -342l0 342 -10 0 0 -342 0 0 10 0zm138 -148l0 10 0 0 -7 0 -7 1 -7 0 -7 2 -6 1 -7 2 -6 2 -7 3 -6 2 -6 4 -5 3 -6 3 -5 4 -6 4 -5 5 -4 4 -5 5 -4 5 -4 5 -4 6 -4 5 -3 6 -3 6 -3 6 -2 6 -3 7 -1 6 -2 7 -1 7 -1 7 -1 7 0 7 -10 0 0 -8 1 -7 1 -8 1 -7 2 -7 2 -7 2 -7 3 -7 3 -6 3 -7 4 -6 4 -6 4 -6 4 -5 5 -6 5 -5 5 -5 5 -4 6 -5 5 -4 6 -4 7 -3 6 -4 7 -2 6 -3 7 -2 7 -2 7 -2 8 -1 7 -1 8 -1 7 0 0 0zm29 10l-29 0 0 -10 29 0 0 0 0 10zm148 138l-10 0 0 0 -1 -7 0 -7 -1 -7 -1 -7 -2 -7 -2 -6 -2 -7 -2 -6 -3 -6 -3 -6 -3 -6 -4 -5 -4 -6 -4 -5 -4 -5 -5 -5 -5 -4 -5 -5 -5 -4 -5 -4 -6 -3 -5 -3 -6 -4 -7 -2 -6 -3 -6 -2 -7 -2 -6 -1 -7 -2 -7 0 -7 -1 -7 0 0 -10 7 0 8 1 7 1 8 1 7 2 7 2 7 2 6 2 7 3 6 4 6 3 6 4 6 4 6 5 5 4 5 5 5 5 5 6 4 5 4 6 4 6 4 6 3 7 3 6 3 7 2 7 2 7 2 7 1 7 1 8 0 7 1 8 0 0zm-10 342l0 -342 10 0 0 342 0 0 -10 0zm-138 147l0 -10 0 0 7 0 7 0 7 -1 7 -1 6 -2 7 -2 6 -2 6 -2 7 -3 6 -3 5 -4 6 -3 5 -4 5 -4 5 -4 5 -5 5 -5 4 -5 4 -5 4 -5 4 -6 3 -6 3 -6 3 -6 2 -6 2 -6 2 -7 2 -7 1 -6 1 -7 0 -7 1 -7 10 0 -1 7 0 8 -1 7 -1 7 -2 7 -2 7 -2 7 -3 7 -3 7 -3 6 -4 6 -4 6 -4 6 -4 6 -5 5 -5 5 -5 5 -5 5 -6 4 -6 4 -6 4 -6 4 -6 3 -7 3 -6 2 -7 3 -7 2 -7 1 -8 2 -7 1 -8 0 -7 0 0 0zm0 -5l0 0 0 0 0 0 0 5 0 -5zm-15 207l0 -10 0 0 4 0 3 0 3 -1 4 0 3 -1 3 -1 3 -1 3 -1 3 -1 2 -2 3 -1 3 -2 2 -2 3 -2 2 -2 2 -2 3 -2 2 -3 1 -2 2 -3 2 -2 2 -3 1 -3 1 -3 1 -3 1 -3 1 -3 1 -3 1 -3 0 -3 0 -4 0 -3 10 0 0 4 0 4 -1 3 0 4 -1 4 -1 3 -1 4 -2 3 -1 4 -2 3 -1 3 -2 3 -3 3 -2 3 -2 2 -3 3 -2 2 -3 3 -3 2 -3 2 -3 2 -3 2 -3 2 -3 1 -4 1 -3 2 -4 1 -3 0 -4 1 -4 1 -4 0 -4 0 0 0zm-74 -75l10 0 0 0 0 3 0 4 0 3 1 3 1 3 0 3 1 3 2 3 1 3 1 3 2 3 2 2 1 3 2 2 2 3 3 2 2 2 2 2 3 2 2 2 3 2 3 1 2 2 3 1 3 1 3 1 3 1 3 1 4 0 3 1 3 0 3 0 0 10 -3 0 -4 0 -4 -1 -4 -1 -3 0 -4 -1 -3 -2 -4 -1 -3 -1 -3 -2 -3 -2 -3 -2 -3 -2 -3 -2 -3 -3 -3 -2 -2 -3 -2 -2 -3 -3 -2 -3 -2 -3 -1 -3 -2 -3 -2 -4 -1 -3 -1 -4 -1 -3 -1 -4 -1 -4 0 -3 0 -4 0 -4 0 0zm74 -75l0 10 0 0 -3 0 -3 0 -3 1 -4 0 -3 1 -3 1 -3 1 -3 1 -3 2 -2 1 -3 2 -3 1 -2 2 -3 2 -2 2 -2 2 -3 2 -2 3 -2 2 -1 3 -2 2 -2 3 -1 3 -1 3 -2 3 -1 3 0 3 -1 3 -1 3 0 3 0 4 0 3 -10 0 0 -4 0 -4 0 -3 1 -4 1 -4 1 -3 1 -4 1 -3 2 -3 2 -4 1 -3 2 -3 2 -3 3 -3 2 -2 2 -3 3 -2 3 -3 3 -2 3 -2 3 -2 3 -2 3 -1 3 -2 4 -1 3 -2 4 -1 3 0 4 -1 4 0 4 -1 3 0 0 0zm75 75l-10 0 0 0 0 -3 0 -4 0 -3 -1 -3 -1 -3 -1 -3 -1 -3 -1 -3 -1 -3 -1 -3 -2 -3 -2 -2 -2 -3 -1 -2 -2 -3 -3 -2 -2 -2 -2 -2 -3 -2 -2 -2 -3 -1 -3 -2 -2 -1 -3 -2 -3 -1 -3 -1 -3 -1 -3 -1 -4 0 -3 -1 -3 0 -4 0 0 -10 4 0 4 1 4 0 4 1 3 0 4 1 3 2 4 1 3 2 3 1 3 2 3 2 3 2 3 2 3 3 2 2 3 3 2 2 2 3 3 3 2 3 1 3 2 4 1 3 2 3 1 4 1 3 1 4 0 4 1 3 0 4 0 4 0 0zm-5 0l0 0 0 0 0 0 5 0 -5 0zm515 260l10 0 0 0 0 9 1 9 1 9 2 9 2 8 2 9 3 8 3 8 4 8 3 8 5 7 4 7 5 7 6 7 5 6 6 7 6 6 7 5 7 5 7 5 7 5 7 4 8 4 8 4 8 3 8 3 9 2 8 2 9 2 9 1 9 1 9 0 0 10 -10 0 -9 -1 -10 -1 -9 -2 -9 -2 -9 -3 -9 -3 -8 -3 -8 -4 -9 -4 -7 -4 -8 -5 -7 -6 -8 -5 -6 -6 -7 -6 -6 -7 -6 -7 -6 -7 -5 -7 -5 -8 -4 -8 -4 -8 -4 -8 -4 -9 -3 -8 -2 -9 -2 -9 -2 -10 -1 -9 -1 -10 0 -9 0 0zm188 -188l0 10 0 0 -9 0 -9 0 -9 2 -9 1 -8 2 -9 3 -8 2 -8 4 -8 3 -8 4 -7 4 -7 5 -7 5 -7 5 -7 6 -6 6 -6 6 -5 6 -6 7 -5 7 -4 7 -5 8 -3 8 -4 7 -3 8 -3 9 -2 8 -2 9 -2 9 -1 9 -1 9 0 9 -10 0 0 -10 1 -9 1 -10 2 -9 2 -9 2 -9 3 -9 4 -8 4 -9 4 -8 4 -8 5 -7 5 -8 6 -7 6 -7 6 -6 7 -7 6 -5 8 -6 7 -5 8 -5 7 -5 9 -4 8 -4 8 -3 9 -3 9 -3 9 -2 9 -1 10 -2 9 0 10 0 0 0zm188 188l-10 0 0 0 0 -9 -1 -9 -1 -9 -1 -9 -2 -9 -3 -8 -3 -9 -3 -8 -3 -7 -4 -8 -5 -8 -4 -7 -5 -7 -5 -7 -6 -6 -6 -6 -6 -6 -7 -6 -6 -5 -7 -5 -8 -5 -7 -4 -8 -4 -8 -3 -8 -4 -8 -2 -8 -3 -9 -2 -9 -1 -9 -2 -9 0 -9 0 0 -10 10 0 9 0 10 2 9 1 9 2 9 3 9 3 8 3 9 4 8 4 8 5 7 5 8 5 7 6 7 5 6 7 6 6 6 7 6 7 5 8 5 7 5 8 4 8 3 9 4 8 3 9 2 9 2 9 2 9 1 10 1 9 0 10 0 0zm-188 188l0 -10 0 0 9 0 9 -1 9 -1 9 -2 9 -2 8 -2 8 -3 8 -3 8 -4 8 -4 7 -4 8 -5 7 -5 6 -5 7 -5 6 -6 6 -7 6 -6 5 -7 5 -7 4 -7 5 -7 4 -8 3 -8 3 -8 3 -8 3 -9 2 -8 1 -9 1 -9 1 -9 0 -9 10 0 0 9 -1 10 -1 9 -2 10 -2 9 -2 9 -3 8 -4 9 -3 8 -4 8 -5 8 -5 8 -5 7 -6 7 -6 7 -6 7 -6 6 -7 6 -7 5 -8 6 -7 5 -8 4 -8 4 -9 4 -8 3 -9 3 -9 3 -9 2 -9 2 -10 1 -9 1 -10 0 0 0zm0 -5l0 0 0 0 0 0 0 5 0 -5zm-641 -729l0 -319 10 0 0 319 0 0 -10 0zm-132 141l0 -10 0 0 7 0 7 0 6 -1 7 -1 6 -2 6 -2 7 -2 5 -2 6 -3 6 -3 5 -3 6 -3 5 -4 5 -4 5 -4 4 -4 5 -5 4 -5 4 -5 3 -5 4 -5 3 -6 3 -5 3 -6 2 -6 2 -6 2 -6 1 -7 1 -6 1 -7 1 -6 0 -7 10 0 0 7 -1 7 -1 7 -1 7 -2 7 -1 7 -3 6 -2 7 -3 6 -3 6 -4 6 -3 6 -4 5 -5 6 -4 5 -5 5 -5 4 -5 5 -5 4 -6 4 -5 4 -6 3 -6 3 -7 3 -6 3 -7 2 -6 2 -7 1 -7 2 -7 1 -7 0 -8 0 0 0zm0 -5l0 0 0 0 0 0 0 5 0 -5zm-141 -136l10 0 0 0 0 7 1 6 1 7 1 6 1 7 2 6 2 6 2 6 3 6 3 5 3 6 4 5 3 5 4 5 4 5 5 5 4 4 5 4 5 4 5 4 5 3 6 3 6 3 5 3 6 2 6 2 7 2 6 2 7 1 6 1 7 0 6 0 0 10 -7 0 -7 0 -7 -1 -7 -2 -7 -1 -6 -2 -7 -2 -6 -3 -7 -3 -6 -3 -6 -3 -5 -4 -6 -4 -5 -4 -6 -5 -4 -4 -5 -5 -5 -5 -4 -6 -4 -5 -3 -6 -4 -6 -3 -6 -3 -6 -2 -7 -3 -6 -2 -7 -1 -7 -1 -7 -1 -7 -1 -7 0 -7 0 0zm10 -319l0 319 -10 0 0 -319 0 0 10 0zm131 -141l0 10 0 0 -6 0 -7 1 -6 1 -7 1 -6 1 -7 2 -6 2 -6 2 -5 3 -6 3 -6 3 -5 4 -5 3 -5 4 -5 4 -4 5 -5 4 -4 5 -4 5 -3 5 -4 5 -3 6 -3 6 -3 5 -2 6 -2 6 -2 7 -1 6 -1 6 -1 7 -1 7 0 6 -10 0 0 -7 1 -7 1 -7 1 -7 1 -7 2 -7 3 -6 2 -6 3 -7 3 -6 4 -6 3 -6 4 -5 4 -5 5 -6 5 -4 4 -5 6 -5 5 -4 6 -4 5 -3 6 -4 6 -3 7 -3 6 -2 7 -3 6 -2 7 -1 7 -1 7 -1 7 -1 7 0 0 0zm0 5l0 0 0 0 0 0 0 -5 0 5zm142 136l-10 0 0 0 0 -6 -1 -7 -1 -7 -1 -6 -1 -6 -2 -7 -2 -6 -2 -6 -3 -5 -3 -6 -3 -6 -4 -5 -3 -5 -4 -5 -4 -5 -5 -4 -4 -5 -5 -4 -5 -4 -5 -3 -6 -4 -5 -3 -6 -3 -6 -3 -5 -2 -7 -2 -6 -2 -6 -1 -7 -1 -6 -1 -7 -1 -7 0 0 -10 8 0 7 1 7 1 7 1 7 1 6 2 7 3 6 2 7 3 6 3 6 4 5 3 6 4 5 4 5 5 5 5 5 4 4 6 5 5 4 5 3 6 4 6 3 6 3 7 2 6 3 6 1 7 2 7 1 7 1 7 1 7 0 7 0 0zm-142 66l0 -10 0 0 3 0 3 0 3 -1 3 0 2 -1 3 0 3 -1 2 -1 3 -1 2 -2 2 -1 3 -1 2 -2 2 -2 2 -1 2 -2 2 -2 1 -2 2 -2 2 -2 1 -3 1 -2 2 -2 1 -3 1 -2 1 -3 0 -3 1 -2 0 -3 1 -3 0 -3 0 -3 10 0 0 4 0 3 -1 3 0 4 -1 3 -1 3 -1 3 -1 3 -1 3 -2 3 -1 2 -2 3 -2 3 -2 2 -2 3 -2 2 -2 2 -3 2 -2 2 -3 2 -2 2 -3 1 -3 2 -3 1 -3 1 -3 1 -3 1 -3 1 -4 0 -3 1 -3 0 -4 0 0 0zm-65 -66l10 0 0 0 0 3 0 3 0 3 1 3 1 2 0 3 1 3 1 2 1 3 2 2 1 2 1 3 2 2 2 2 1 2 2 2 2 2 2 1 2 2 2 2 3 1 2 1 2 2 3 1 2 1 3 1 3 0 2 1 3 0 3 1 3 0 2 0 0 10 -3 0 -3 0 -4 -1 -3 0 -3 -1 -3 -1 -3 -1 -3 -1 -3 -1 -3 -2 -3 -1 -2 -2 -3 -2 -2 -2 -3 -2 -2 -2 -2 -2 -2 -3 -2 -2 -2 -3 -2 -3 -1 -2 -2 -3 -1 -3 -1 -3 -1 -3 -1 -3 -1 -3 0 -4 -1 -3 0 -3 0 -4 0 0zm65 -65l0 10 0 0 -2 0 -3 0 -3 0 -3 1 -2 1 -3 0 -3 1 -2 1 -3 1 -2 2 -2 1 -3 1 -2 2 -2 2 -2 1 -2 2 -2 2 -1 2 -2 2 -2 2 -1 3 -1 2 -2 2 -1 3 -1 2 -1 3 0 3 -1 2 -1 3 0 3 0 3 0 2 -10 0 0 -3 0 -3 1 -4 0 -3 1 -3 1 -3 1 -3 1 -3 1 -3 2 -3 1 -3 2 -2 2 -3 2 -2 2 -3 2 -2 2 -2 3 -2 2 -2 3 -2 2 -2 3 -1 3 -2 3 -1 3 -1 3 -1 3 -1 3 -1 3 0 4 -1 3 0 3 0 0 0zm66 65l-10 0 0 0 0 -2 0 -3 -1 -3 0 -3 -1 -2 0 -3 -1 -3 -1 -2 -1 -3 -2 -2 -1 -2 -1 -3 -2 -2 -2 -2 -1 -2 -2 -2 -2 -2 -2 -1 -2 -2 -2 -2 -3 -1 -2 -1 -2 -2 -3 -1 -2 -1 -3 -1 -3 0 -2 -1 -3 -1 -3 0 -3 0 -3 0 0 -10 4 0 3 0 3 1 4 0 3 1 3 1 3 1 3 1 3 1 3 2 3 1 2 2 3 2 2 2 3 2 2 2 2 2 2 3 2 2 2 3 2 2 1 3 2 3 1 3 1 3 1 3 1 3 1 3 0 3 1 4 0 3 0 3 0 0zm-66 384l0 -10 0 0 3 0 3 0 3 0 3 -1 2 0 3 -1 3 -1 2 -1 3 -1 2 -1 2 -2 3 -1 2 -2 2 -1 2 -2 2 -2 2 -2 1 -2 2 -2 2 -2 1 -2 1 -3 2 -2 1 -3 1 -2 1 -3 0 -2 1 -3 0 -3 1 -2 0 -3 0 -3 10 0 0 3 0 4 -1 3 0 3 -1 3 -1 3 -1 3 -1 3 -1 3 -2 3 -1 3 -2 3 -2 2 -2 3 -2 2 -2 2 -2 2 -3 2 -2 2 -3 2 -2 2 -3 2 -3 1 -3 1 -3 1 -3 2 -3 0 -3 1 -4 1 -3 0 -3 0 -4 0 0 0zm-65 -65l10 0 0 0 0 3 0 3 0 2 1 3 1 3 0 2 1 3 1 2 1 3 2 2 1 3 1 2 2 2 2 2 1 2 2 2 2 2 2 2 2 1 2 2 3 1 2 2 2 1 3 1 2 1 3 1 3 1 2 0 3 1 3 0 3 0 2 0 0 10 -3 0 -3 0 -4 0 -3 -1 -3 -1 -3 0 -3 -2 -3 -1 -3 -1 -3 -1 -3 -2 -2 -2 -3 -2 -2 -2 -3 -2 -2 -2 -2 -2 -2 -2 -2 -3 -2 -2 -2 -3 -1 -3 -2 -3 -1 -3 -1 -3 -1 -3 -1 -3 -1 -3 0 -3 -1 -3 0 -4 0 -3 0 0zm65 -66l0 10 0 0 -2 0 -3 0 -3 1 -3 0 -2 1 -3 1 -3 1 -2 1 -3 1 -2 1 -2 1 -3 2 -2 1 -2 2 -2 2 -2 1 -2 2 -1 2 -2 3 -2 2 -1 2 -1 2 -2 3 -1 2 -1 3 -1 2 0 3 -1 3 -1 2 0 3 0 3 0 3 -10 0 0 -4 0 -3 1 -3 0 -3 1 -4 1 -3 1 -3 1 -3 1 -3 2 -2 1 -3 2 -3 2 -2 2 -3 2 -2 2 -3 2 -2 3 -2 2 -2 3 -2 2 -1 3 -2 3 -1 3 -2 3 -1 3 -1 3 -1 3 0 3 -1 4 0 3 -1 3 0 0 0zm66 66l-10 0 0 0 0 -3 0 -3 -1 -3 0 -2 -1 -3 0 -3 -1 -2 -1 -3 -1 -2 -2 -3 -1 -2 -1 -2 -2 -2 -2 -3 -1 -2 -2 -2 -2 -1 -2 -2 -2 -2 -2 -1 -3 -2 -2 -1 -2 -1 -3 -1 -2 -1 -3 -1 -3 -1 -2 -1 -3 0 -3 -1 -3 0 -3 0 0 -10 4 0 3 1 3 0 4 1 3 0 3 1 3 1 3 1 3 2 3 1 3 2 2 1 3 2 2 2 3 2 2 2 2 3 2 2 2 3 2 2 2 3 1 3 2 2 1 3 1 3 1 3 1 3 1 4 0 3 1 3 0 3 0 4 0 0z"/>
  </g>
 </g>
</svg>
