<?xml version="1.0" encoding="UTF-8"?>
<!DOCTYPE svg PUBLIC "-//W3C//DTD SVG 1.1//EN" "http://www.w3.org/Graphics/SVG/1.1/DTD/svg11.dtd">
<!-- Creator: CorelDRAW X8 -->
<svg xmlns="http://www.w3.org/2000/svg" xml:space="preserve" width="40mm" height="60mm" version="1.1" style="shape-rendering:geometricPrecision; text-rendering:geometricPrecision; image-rendering:optimizeQuality; fill-rule:evenodd; clip-rule:evenodd"
viewBox="0 0 4000 6000"
 xmlns:xlink="http://www.w3.org/1999/xlink">
 <defs>
  <style type="text/css">
   <![CDATA[
    .str0 {stroke:black;stroke-width:7.62}
    .fil0 {fill:none}
   ]]>
  </style>
 </defs>
 <g id="图层_x0020_1">
  <metadata id="CorelCorpID_0Corel-Layer"/>
  <path class="fil0 str0" d="M900 5350l2006 0c139,0 252,-113 252,-252l0 -4196c0,-139 -113,-252 -252,-252l-1812 0c-139,0 -252,113 -252,252l0 4196c0,139 113,252 252,252l203 0m-97 -4562c0,-5 -4,-9 -14,-10 -32,0 -58,26 -58,59 0,32 26,58 58,58 33,0 59,-26 59,-58 0,-33 -26,-59 -59,-59m751 54c-6,-21 -17,-37 -69,-37l-44 0c-23,0 -42,19 -42,42l0 0c0,23 19,42 42,42l368 0c23,0 42,-19 42,-42l0 0c0,-23 -19,-42 -42,-42l-324 0m-440 -12c0,-5 -4,-9 -12,-10 -30,0 -54,24 -54,54 0,30 24,54 54,54 29,0 53,-24 53,-54 0,-30 -24,-54 -53,-54"/>
 </g>
</svg>
