<?xml version="1.0" encoding="UTF-8"?>
<!DOCTYPE svg PUBLIC "-//W3C//DTD SVG 1.1//EN" "http://www.w3.org/Graphics/SVG/1.1/DTD/svg11.dtd">
<!-- Creator: CorelDRAW -->
<svg xmlns="http://www.w3.org/2000/svg" xml:space="preserve" width="40mm" height="60mm" style="shape-rendering:geometricPrecision; text-rendering:geometricPrecision; image-rendering:optimizeQuality; fill-rule:evenodd; clip-rule:evenodd"
viewBox="0 0 40 60"
 xmlns:xlink="http://www.w3.org/1999/xlink">
 <defs>
  <style type="text/css">
   <![CDATA[
    .str0 {stroke:#1F1A17;stroke-width:0.194}
    .str1 {stroke:#1F1A17;stroke-width:0.2}
    .fil1 {fill:none}
    .fil0 {fill:none;fill-rule:nonzero}
   ]]>
  </style>
 </defs>
 <g id="图层_x0020_1">
  <metadata id="CorelCorpID_0Corel-Layer"/>
  <g id="_245568512">
   <path id="_245568368" class="fil0 str0" d="M19.809 18.6257c-0.0447,-0.0308 -0.0636,-0.0627 -0.0636,-0.1054 -0.1959,0 -0.521,-0.1661 -0.7258,-0.3699 -0.2675,-0.2664 -0.4116,-0.6254 -0.4116,-1.0231 0.0198,-0.6502 0.0149,-0.4871 0.0348,-1.1374 0.0596,-0.4016 0.4146,-0.8302 0.8242,-0.9972 0.1352,-0.0547 0.2346,-0.0786 0.6095,-0.1442"/>
   <polyline id="_284288424" class="fil0 str0" points="20.0765,14.8485 20.0765,14.8565 20.154,14.8634 20.154,14.8565 20.154,14.8704 "/>
   <path id="_46977904" class="fil0 str0" d="M20.154 14.8704c0.6502,0.0616 1.1315,0.4802 1.2657,1.0986 0.0248,0.1134 0.0408,0.4017 0.0408,0.7258 0,0.8153 -0.0865,1.1096 -0.4256,1.4427 -0.2754,0.2714 -0.516,0.3649 -1.0708,0.4176"/>
   <polyline id="_284496616" class="fil0 str0" points="19.9641,18.5551 19.9641,18.5123 19.9641,18.5412 19.8866,18.5412 19.8866,18.5481 19.8866,18.5342 "/>
   <path id="_284284824" class="fil0 str0" d="M19.8866 18.5342c-0.0597,-0.002 -0.0826,-0.005 -0.2466,-0.0288"/>
   <path id="_284288496" class="fil0 str0" d="M13.4511 13.7464c-0.0626,0.3142 -0.3141,0.5269 -0.6224,0.5269 -0.344,0 -0.6333,-0.2893 -0.6333,-0.6333 0.001,-0.351 0.2824,-0.6333 0.6333,-0.6333 0.3629,0 0.6383,0.2813 0.6294,0.6423 -0.001,0.0507 -0.002,0.0636 -0.0209,0.2236"/>
   <path id="_284288376" class="fil0 str0" d="M13.4122 11.1926c-0.0666,0.3122 -0.3042,0.514 -0.6065,0.514 -0.342,0 -0.6124,-0.2734 -0.6124,-0.6184 0,-0.343 0.2674,-0.6115 0.6124,-0.6115 0.352,0 0.6135,0.2645 0.6115,0.6214 0,0.0497 -0.001,0.0627 -0.0119,0.2218"/>
   <polyline id="_284288280" class="fil0 str0" points="13.4886,16.6879 13.4886,16.7793 13.4608,16.7793 13.4817,16.7793 "/>
   <path id="_284495608" class="fil0 str0" d="M13.4817 16.7793c-0.0597,0.3421 -0.3331,0.5767 -0.6712,0.5777 -0.3708,0 -0.683,-0.3122 -0.684,-0.684 0,-0.3749 0.3112,-0.6891 0.684,-0.6891 0.3788,0.001 0.6781,0.3003 0.6781,0.6801 0,0.0537 -0.002,0.0766 -0.0209,0.2496"/>
   <path id="_285705048" class="fil0 str0" d="M11.7407 12.3828c-0.0049,-0.176 -0.0099,-0.6741 -0.0099,-1.038 0,-0.6244 0.0517,-0.7944 0.3191,-1.0678 0.1969,-0.2008 0.4703,-0.3152 0.7576,-0.3152 0.6324,0 1.0559,0.4564 1.0728,1.1563 0.008,0.3043 0.012,0.7726 0.012,1.2746 0,1.2001 -0.009,1.5192 -0.0517,1.7748 -0.0249,0.1431 -0.0597,0.2436 -0.1164,0.3271 -0.0447,0.0666 -0.0964,0.1193 -0.2207,0.2237 -0.1968,0.165 -0.4454,0.2575 -0.6969,0.2575 -0.5011,-0.001 -0.9426,-0.352 -1.048,-0.8352 -0.0209,-0.0954 -0.0318,-0.3997 -0.0318,-0.863 0,-0.334 0.006,-0.7665 0.0139,-1.0141"/>
   <path id="_245571992" class="fil0 str0" d="M14.1438 14.1376c-0.1044,0.6294 -0.6711,1.0967 -1.3293,1.0967 -0.6801,0 -1.2786,-0.5309 -1.3422,-1.1911 -0.005,-0.0527 -0.007,-0.176 -0.005,-0.3828"/>
   <line id="_245572160" class="fil0 str0" x1="11.4673" y1="13.6604" x2="11.4971" y2= "10.7025" />
   <path id="_284495680" class="fil0 str0" d="M11.4971 10.7025c0.1024,-0.5717 0.704,-1.0509 1.3204,-1.0509 0.7298,0 1.3223,0.5697 1.3492,1.2985 0.0278,0.7715 0.0437,1.4904 0.0437,2.0412 0,0.4901 -0.0109,0.8232 -0.0328,0.9554"/>
   <line id="_46979008" class="fil0 str0" x1="14.1776" y1="13.9467" x2="14.1756" y2= "13.9567" />
   <path id="_245571704" class="fil0 str0" d="M14.1756 13.9567c-0.0219,0.1382 -0.0219,0.1382 -0.0308,0.2824"/>
   <line id="_245568800" class="fil0 str0" x1="14.1448" y1="14.2391" x2="14.1438" y2= "14.25" />
   <rect id="_244979472" class="fil1 str1" x="9.6727" y="8.3462" width="20.6545" height="43.3076" rx="3.28" ry="3.28"/>
  </g>
 </g>
</svg>
