<?xml version="1.0" encoding="UTF-8"?>
<!DOCTYPE svg PUBLIC "-//W3C//DTD SVG 1.1//EN" "http://www.w3.org/Graphics/SVG/1.1/DTD/svg11.dtd">
<!-- Creator: CorelDRAW X8 -->
<svg xmlns="http://www.w3.org/2000/svg" xml:space="preserve" width="40mm" height="60mm" version="1.1" style="shape-rendering:geometricPrecision; text-rendering:geometricPrecision; image-rendering:optimizeQuality; fill-rule:evenodd; clip-rule:evenodd"
viewBox="0 0 4000 6000"
 xmlns:xlink="http://www.w3.org/1999/xlink">
 <defs>
  <style type="text/css">
   <![CDATA[
    .str0 {stroke:#332C2B;stroke-width:7.62}
    .fil0 {fill:none}
   ]]>
  </style>
 </defs>
 <g id="图层_x0020_1">
  <metadata id="CorelCorpID_0Corel-Layer"/>
  <path class="fil0 str0" d="M919 5187l1932 0c127,0 230,-104 230,-231l0 -4075c0,-127 -103,-231 -230,-231l-1634 0c-127,0 -231,104 -231,231l0 4075c0,127 104,231 231,231 127,0 266,32 266,163m-143 -4528c-49,-28 -14,-101 27,-101 41,0 75,33 75,74 0,42 -34,75 -75,75 -41,0 -74,-33 -74,-75 0,-41 33,-74 74,-74m234 101c-49,-28 -14,-101 27,-101 42,0 75,33 75,74 0,42 -33,75 -75,75 -41,0 -74,-33 -74,-75 0,-41 33,-74 74,-74m741 91c-30,-18 -9,-63 17,-63 25,0 46,21 46,46 0,26 -21,46 -46,46 -26,0 -46,-20 -46,-46 0,-25 20,-46 46,-46m142 63c-31,-18 -9,-63 17,-63 25,0 46,21 46,46 0,26 -21,47 -46,47 -26,0 -47,-21 -47,-47 0,-25 21,-46 47,-46m-534 65c0,-26 -82,-41 -99,-41 -18,0 -32,14 -32,32l0 0c0,17 14,31 32,31l250 0c18,0 32,-14 32,-31l0 0c0,-18 -14,-32 -32,-32l-250 0"/>
 </g>
</svg>
