<?xml version="1.0" encoding="UTF-8"?>
<!DOCTYPE svg PUBLIC "-//W3C//DTD SVG 1.1//EN" "http://www.w3.org/Graphics/SVG/1.1/DTD/svg11.dtd">
<!-- Creator: CorelDRAW X8 -->
<svg xmlns="http://www.w3.org/2000/svg" xml:space="preserve" width="40mm" height="60mm" version="1.1" style="shape-rendering:geometricPrecision; text-rendering:geometricPrecision; image-rendering:optimizeQuality; fill-rule:evenodd; clip-rule:evenodd"
viewBox="0 0 4000 6000"
 xmlns:xlink="http://www.w3.org/1999/xlink">
 <defs>
  <style type="text/css">
   <![CDATA[
    .str0 {stroke:black;stroke-width:20}
    .fil0 {fill:none}
   ]]>
  </style>
 </defs>
 <g id="图层_x0020_1">
  <metadata id="CorelCorpID_0Corel-Layer"/>
  <path class="fil0 str0" d="M935 5350l1909 0c149,0 271,-122 271,-271l0 -4158c0,-149 -122,-271 -271,-271l-1688 0c-149,0 -271,122 -271,271l0 4158c0,149 122,271 271,271l251 0m641 -3776c-1,-15 -14,-29 -41,-31 -96,0 -173,78 -173,173 0,96 77,173 173,173 96,0 173,-77 173,-173 0,-95 -77,-173 -173,-173m-771 -80c-1,-5 -6,-11 -16,-12 -38,0 -68,31 -68,68 0,38 30,68 68,68 37,0 68,-30 68,-68 0,-37 -31,-68 -68,-68m-3 -659l0 0c87,0 158,72 158,159l0 295c0,87 -71,159 -158,159l0 0c-87,0 -158,-72 -158,-159l0 -295c0,-87 71,-159 158,-159zm3 73l0 0c54,0 98,44 98,98l0 271c0,54 -44,98 -98,98l0 0c-54,0 -98,-44 -98,-98l0 -271c0,-54 44,-98 98,-98zm16 44c-1,-6 -6,-11 -16,-12 -38,0 -68,31 -68,68 0,37 30,68 68,68 37,0 68,-31 68,-68 0,-37 -31,-68 -68,-68m16 290c-1,-6 -6,-12 -16,-12 -38,0 -68,30 -68,67 0,38 30,68 68,68 37,0 68,-30 68,-68 0,-37 -31,-67 -68,-67"/>
 </g>
</svg>
