<?xml version="1.0" encoding="UTF-8"?>
<!DOCTYPE svg PUBLIC "-//W3C//DTD SVG 1.1//EN" "http://www.w3.org/Graphics/SVG/1.1/DTD/svg11.dtd">
<!-- Creator: CorelDRAW X8 -->
<svg xmlns="http://www.w3.org/2000/svg" xml:space="preserve" width="40mm" height="60mm" version="1.1" style="shape-rendering:geometricPrecision; text-rendering:geometricPrecision; image-rendering:optimizeQuality; fill-rule:evenodd; clip-rule:evenodd"
viewBox="0 0 4000 6000"
 xmlns:xlink="http://www.w3.org/1999/xlink">
 <defs>
  <style type="text/css">
   <![CDATA[
    .str0 {stroke:#332C2B;stroke-width:7.62}
    .fil0 {fill:none}
   ]]>
  </style>
 </defs>
 <g id="图层_x0020_1">
  <metadata id="CorelCorpID_0Corel-Layer"/>
  <path class="fil0 str0" d="M832 5350l2111 0c128,0 232,-104 232,-232l0 -4236c0,-128 -104,-232 -232,-232l-1886 0c-128,0 -232,104 -232,232l0 4236c0,128 104,232 232,232l242 0m1127 -4628c0,-21 -24,-37 -33,-38 -32,0 -58,26 -58,58 0,32 26,58 58,58 32,0 58,-26 58,-58 0,-32 -26,-58 -58,-58m-411 62c-5,-19 -16,-34 -62,-34l-40 0c-21,0 -38,18 -38,38l0 0c0,21 17,39 38,39l285 0c20,0 38,-18 38,-39l0 0c0,-20 -18,-38 -38,-38l-245 0m-519 29c-5,-20 -17,-37 -67,-37l-10 0c-23,0 -42,19 -42,42l0 0c0,22 19,41 42,41l90 0c23,0 42,-18 42,-41l0 0c0,-23 -19,-42 -42,-42l-80 0"/>
 </g>
</svg>
