<?xml version="1.0" encoding="UTF-8"?>
<!DOCTYPE svg PUBLIC "-//W3C//DTD SVG 1.1//EN" "http://www.w3.org/Graphics/SVG/1.1/DTD/svg11.dtd">
<!-- Creator: CorelDRAW X8 -->
<svg xmlns="http://www.w3.org/2000/svg" xml:space="preserve" width="40mm" height="60mm" version="1.1" style="shape-rendering:geometricPrecision; text-rendering:geometricPrecision; image-rendering:optimizeQuality; fill-rule:evenodd; clip-rule:evenodd"
viewBox="0 0 4000 6000"
 xmlns:xlink="http://www.w3.org/1999/xlink">
 <defs>
  <style type="text/css">
   <![CDATA[
    .str0 {stroke:black;stroke-width:7.62;stroke-linejoin:bevel}
    .fil0 {fill:none}
   ]]>
  </style>
 </defs>
 <g id="图层_x0020_1">
  <metadata id="CorelCorpID_0Corel-Layer"/>
  <path class="fil0 str0" d="M1245 802c0,-37 -31,-67 -68,-67 -37,0 -67,30 -67,67 0,38 30,68 67,68 37,0 68,-30 68,-68zm1020 -146c5,4 11,6 18,6l295 0c7,0 13,-2 18,-6 5,-4 11,-6 18,-6l230 0c63,0 122,25 166,69 44,44 69,104 69,166l0 4230c0,62 -24,122 -68,166 -44,44 -104,69 -167,69l-1688 0c-63,0 -122,-25 -166,-69 -44,-44 -69,-104 -69,-166l0 -4230c0,-62 24,-122 68,-166 44,-44 104,-69 167,-69l1091 0c7,0 13,2 18,6z"/>
 </g>
</svg>
