<?xml version="1.0" encoding="UTF-8"?>
<!DOCTYPE svg PUBLIC "-//W3C//DTD SVG 1.1//EN" "http://www.w3.org/Graphics/SVG/1.1/DTD/svg11.dtd">
<!-- Creator: CorelDRAW X8 -->
<svg xmlns="http://www.w3.org/2000/svg" xml:space="preserve" width="40mm" height="60mm" version="1.1" style="shape-rendering:geometricPrecision; text-rendering:geometricPrecision; image-rendering:optimizeQuality; fill-rule:evenodd; clip-rule:evenodd"
viewBox="0 0 4000 6000"
 xmlns:xlink="http://www.w3.org/1999/xlink">
 <defs>
  <style type="text/css">
   <![CDATA[
    .str0 {stroke:#332C2B;stroke-width:19.4}
    .fil0 {fill:none}
   ]]>
  </style>
 </defs>
 <g id="图层_x0020_1">
  <metadata id="CorelCorpID_0Corel-Layer"/>
  <g id="_2708848660400">
   <line class="fil0 str0" x1="2094" y1="779" x2="2094" y2= "788" />
   <path class="fil0 str0" d="M2094 788c-3,0 -8,-4 -10,-9 -74,-1 -148,-1 -223,-2 -46,0 -64,1 -77,3 -13,2 -19,5 -27,14 -7,8 -12,20 -12,33 0,21 11,38 27,43 15,5 73,7 246,7 142,0 202,-2 214,-6 19,-6 30,-23 30,-44 0,-43 -19,-51 -133,-51"/>
   <line class="fil0 str0" x1="2129" y1="776" x2="2110" y2= "776" />
   <path class="fil0 str0" d="M2110 776c-44,0 -55,1 -67,5 -12,5 -20,10 -49,36"/>
   <line class="fil0 str0" x1="1994" y1="817" x2="1981" y2= "828" />
   <line class="fil0 str0" x1="2568" y1="810" x2="2561" y2= "815" />
   <path class="fil0 str0" d="M2561 815c-1,-2 -2,-4 -2,-6 0,-2 1,-4 3,-7"/>
   <line class="fil0 str0" x1="2562" y1="802" x2="2564" y2= "801" />
   <path class="fil0 str0" d="M2564 801c-13,-23 -34,-37 -57,-37 -33,0 -62,29 -62,63 0,34 29,63 63,63 34,0 63,-29 63,-61 0,-19 -8,-31 -32,-45"/>
   <line class="fil0 str0" x1="2539" y1="784" x2="2538" y2= "788" />
   <path class="fil0 str0" d="M2538 788c-14,1 -21,6 -53,37"/>
   <line class="fil0 str0" x1="3101" y1="5317" x2="1073" y2= "5317" />
   <path class="fil0 str0" d="M1073 5317c-102,-3 -176,-60 -205,-158 -4,-13 -4,-12 -4,-329"/>
   <line class="fil0 str0" x1="864" y1="4830" x2="858" y2= "1667" />
   <path class="fil0 str0" d="M858 1667c-2,-799 -2,-799 11,-831 17,-46 31,-71 55,-95 30,-29 81,-55 115,-58"/>
   <line class="fil0 str0" x1="1039" y1="683" x2="2915" y2= "682" />
   <path class="fil0 str0" d="M2915 682c63,1 77,3 103,15 61,27 101,74 122,143 2,9 3,18 3,59"/>
   <line class="fil0 str0" x1="3143" y1="899" x2="3140" y2= "5157" />
   <path class="fil0 str0" d="M3140 5157c-6,33 -40,88 -71,113"/>
   <line class="fil0 str0" x1="3069" y1="5270" x2="3064" y2= "5274" />
   <path class="fil0 str0" d="M3064 5274c-31,25 -31,25 -112,41"/>
   <line class="fil0 str0" x1="2952" y1="5315" x2="2940" y2= "5318" />
  </g>
 </g>
</svg>
