<?xml version="1.0" encoding="UTF-8"?>
<!DOCTYPE svg PUBLIC "-//W3C//DTD SVG 1.1//EN" "http://www.w3.org/Graphics/SVG/1.1/DTD/svg11.dtd">
<!-- Creator: CorelDRAW X8 -->
<svg xmlns="http://www.w3.org/2000/svg" xml:space="preserve" width="40mm" height="60mm" version="1.1" style="shape-rendering:geometricPrecision; text-rendering:geometricPrecision; image-rendering:optimizeQuality; fill-rule:evenodd; clip-rule:evenodd"
viewBox="0 0 4000 6000"
 xmlns:xlink="http://www.w3.org/1999/xlink">
 <defs>
  <style type="text/css">
   <![CDATA[
    .str0 {stroke:#333333;stroke-width:18;stroke-linejoin:bevel}
    .fil0 {fill:none}
   ]]>
  </style>
 </defs>
 <g id="图层_x0020_1">
  <metadata id="CorelCorpID_0Corel-Layer"/>
  <path class="fil0 str0" d="M1039 5318c263,0 1828,0 1828,0 84,0 152,-69 152,-153 0,0 0,-4362 0,-4362 0,-84 -68,-153 -152,-153 0,0 -714,0 -714,0 -42,0 -76,34 -77,76 0,42 -33,77 -76,77 -43,0 -76,-35 -76,-77 -1,-42 -35,-76 -77,-76 0,0 -714,0 -714,0 -84,0 -152,69 -152,153 0,0 0,4362 0,4362 0,84 68,153 152,153 0,0 15,0 42,0 67,0 76,6 87,32"/>
 </g>
</svg>
