<?xml version="1.0" encoding="UTF-8"?>
<!DOCTYPE svg PUBLIC "-//W3C//DTD SVG 1.1//EN" "http://www.w3.org/Graphics/SVG/1.1/DTD/svg11.dtd">
<!-- Creator: CorelDRAW X8 -->
<svg xmlns="http://www.w3.org/2000/svg" xml:space="preserve" width="40mm" height="60mm" version="1.1" style="shape-rendering:geometricPrecision; text-rendering:geometricPrecision; image-rendering:optimizeQuality; fill-rule:evenodd; clip-rule:evenodd"
viewBox="0 0 4000 6000"
 xmlns:xlink="http://www.w3.org/1999/xlink">
 <defs>
  <style type="text/css">
   <![CDATA[
    .str0 {stroke:#332C2B;stroke-width:19.4}
    .fil0 {fill:none;fill-rule:nonzero}
   ]]>
  </style>
 </defs>
 <g id="图层_x0020_1">
  <metadata id="CorelCorpID_0Corel-Layer"/>
  <g id="_2232774451264">
   <polyline class="fil0 str0" points="1250,1374 1250,1366 1247,1367 1243,1371 "/>
   <path class="fil0 str0" d="M1243 1371c-1,2 -1,3 -1,5"/>
   <line class="fil0 str0" x1="1242" y1="1376" x2="1241" y2= "1376" />
   <path class="fil0 str0" d="M1241 1376c-9,7 -14,15 -14,23 0,11 11,21 23,21 13,0 23,-10 23,-23 0,-13 -9,-22 -23,-22 -4,0 -7,0 -17,3"/>
   <line class="fil0 str0" x1="1250" y1="2216" x2="1249" y2= "2217" />
   <path class="fil0 str0" d="M1249 2217c-6,1 -6,1 -7,1"/>
   <line class="fil0 str0" x1="1242" y1="2218" x2="1241" y2= "2218" />
   <path class="fil0 str0" d="M1241 2218c-9,6 -15,14 -15,22 0,12 12,22 24,22 13,0 23,-10 23,-23 0,-14 -8,-22 -22,-22 -5,0 -9,1 -18,3"/>
   <polyline class="fil0 str0" points="1991,953 1983,955 1983,954 1982,954 "/>
   <path class="fil0 str0" d="M1982 954c-10,6 -15,14 -15,22 0,12 11,23 23,23 13,0 23,-11 23,-24 0,-14 -8,-22 -23,-22 -5,0 -8,1 -16,2"/>
   <polyline class="fil0 str0" points="2731,1374 2723,1375 2723,1376 2723,1376 "/>
   <path class="fil0 str0" d="M2723 1376c-10,6 -15,14 -15,23 0,11 11,21 23,21 13,0 23,-10 23,-23 0,-16 -13,-25 -31,-21 -2,1 -3,1 -8,2"/>
   <line class="fil0 str0" x1="2731" y1="2216" x2="2729" y2= "2217" />
   <path class="fil0 str0" d="M2729 2217c-5,1 -5,1 -6,1"/>
   <line class="fil0 str0" x1="2723" y1="2218" x2="2723" y2= "2218" />
   <path class="fil0 str0" d="M2723 2218c-9,4 -15,13 -15,22 0,12 10,22 23,22 13,0 23,-10 23,-23 0,-13 -9,-22 -22,-22 -5,0 -11,1 -17,3"/>
   <polyline class="fil0 str0" points="1991,2639 1983,2641 1983,2640 1982,2640 "/>
   <path class="fil0 str0" d="M1982 2640c-10,6 -15,14 -15,22 0,12 11,23 23,23 13,0 23,-11 23,-24 0,-14 -8,-22 -23,-22 -5,0 -8,1 -16,2"/>
   <line class="fil0 str0" x1="1991" y1="1796" x2="1982" y2= "1797" />
   <path class="fil0 str0" d="M1982 1797c-10,6 -15,14 -15,22 0,12 11,23 23,23 13,0 23,-11 23,-24 0,-14 -8,-22 -23,-22 -5,0 -8,1 -16,2"/>
   <polyline class="fil0 str0" points="1975,1123 1967,1125 1967,1124 "/>
   <path class="fil0 str0" d="M1967 1124c-74,6 -135,77 -135,157 0,90 72,162 161,162 90,0 162,-72 162,-162 0,-89 -71,-160 -160,-160"/>
   <line class="fil0 str0" x1="1995" y1="1121" x2="1995" y2= "1121" />
   <path class="fil0 str0" d="M1995 1121c-10,0 -10,0 -43,4"/>
   <line class="fil0 str0" x1="1952" y1="1125" x2="1951" y2= "1125" />
   <path class="fil0 str0" d="M1438 1659c-80,5 -145,77 -145,160 0,90 72,161 162,161 89,0 161,-71 161,-161 0,-93 -78,-167 -170,-161"/>
   <line class="fil0 str0" x1="1446" y1="1658" x2="1414" y2= "1661" />
   <path class="fil0 str0" d="M2510 1659c-79,5 -145,77 -145,160 1,90 73,161 162,161 90,0 161,-71 162,-161 0,-93 -79,-167 -170,-161"/>
   <line class="fil0 str0" x1="2519" y1="1658" x2="2486" y2= "1661" />
   <path class="fil0 str0" d="M1975 2195c-80,5 -145,77 -145,160 0,90 72,162 161,162 89,0 162,-73 162,-162 0,-93 -79,-167 -170,-161"/>
   <line class="fil0 str0" x1="1983" y1="2194" x2="1951" y2= "2197" />
   <polyline class="fil0 str0" points="3157,1849 3149,1850 3149,1852 "/>
   <path class="fil0 str0" d="M3149 1852c2,3 2,3 5,5"/>
   <line class="fil0 str0" x1="3154" y1="1857" x2="3156" y2= "1857" />
   <path class="fil0 str0" d="M3156 1857c0,1 0,3 0,4 0,104 -27,242 -69,357 -170,460 -607,766 -1096,766 -644,0 -1167,-524 -1167,-1168 0,-643 523,-1166 1166,-1166 215,0 425,59 606,169 375,230 562,561 562,994"/>
   <polyline class="fil0 str0" points="3158,1813 3158,1818 3156,1873 "/>
   <polyline class="fil0 str0" points="1269,3740 1268,3748 1267,3748 "/>
   <path class="fil0 str0" d="M1267 3748c-1,0 -1,0 -2,0"/>
   <line class="fil0 str0" x1="1265" y1="3748" x2="1264" y2= "3748" />
   <path class="fil0 str0" d="M1264 3748c-1,-2 -1,-2 -3,-3"/>
   <polyline class="fil0 str0" points="1261,3745 1261,3742 1259,3742 "/>
   <path class="fil0 str0" d="M1259 3742c-9,6 -14,14 -14,22 0,12 11,23 23,23 13,0 24,-11 24,-24 0,-14 -10,-22 -25,-22 -4,0 -6,0 -16,2"/>
   <polyline class="fil0 str0" points="1269,4582 1261,4584 1261,4584 1259,4584 "/>
   <path class="fil0 str0" d="M1259 4584c-9,6 -14,14 -14,22 0,3 1,5 2,8 4,10 11,15 21,15 13,0 24,-11 24,-24 0,-13 -10,-22 -24,-22 -4,0 -6,1 -17,3"/>
   <line class="fil0 str0" x1="2009" y1="3318" x2="2008" y2= "3318" />
   <path class="fil0 str0" d="M2008 3318c-6,2 -6,2 -8,2"/>
   <line class="fil0 str0" x1="2000" y1="3320" x2="2000" y2= "3320" />
   <path class="fil0 str0" d="M2000 3320c-9,6 -15,14 -15,22 0,12 11,22 24,22 13,0 23,-10 23,-23 0,-13 -9,-22 -23,-22 -4,0 -7,1 -17,3"/>
   <polyline class="fil0 str0" points="2749,3740 2741,3743 2741,3742 2741,3742 "/>
   <path class="fil0 str0" d="M2741 3742c-10,7 -15,14 -15,22 0,12 11,23 23,23 13,0 24,-11 24,-24 0,-14 -9,-22 -24,-22 -4,0 -8,1 -16,2"/>
   <polyline class="fil0 str0" points="2749,4582 2741,4584 2741,4584 2741,4584 "/>
   <path class="fil0 str0" d="M2741 4584c-10,7 -15,15 -15,23 0,11 11,22 24,22 12,0 23,-11 23,-24 0,-13 -9,-22 -23,-22 -5,0 -7,1 -17,3"/>
   <path class="fil0 str0" d="M2009 5004c-1,1 -8,2 -9,2 -10,6 -14,13 -14,21 0,13 10,23 23,23 13,0 23,-10 23,-23 0,-13 -9,-22 -23,-22 -4,0 -11,2 -17,3"/>
   <path class="fil0 str0" d="M2009 4161c-7,2 -7,2 -9,2 -9,6 -15,14 -15,22 0,12 11,22 24,22 13,0 23,-10 23,-23 0,-13 -9,-22 -23,-22 -4,0 -6,1 -17,3"/>
   <polyline class="fil0 str0" points="1993,3489 1985,3491 1985,3490 "/>
   <path class="fil0 str0" d="M1985 3490c-73,6 -135,78 -135,158 0,89 72,161 162,161 90,0 161,-72 161,-162 0,-89 -71,-160 -160,-160"/>
   <line class="fil0 str0" x1="2013" y1="3487" x2="2013" y2= "3487" />
   <path class="fil0 str0" d="M2013 3487c-10,0 -10,0 -43,4"/>
   <line class="fil0 str0" x1="1970" y1="3491" x2="1969" y2= "3491" />
   <path class="fil0 str0" d="M1456 4025c-81,6 -145,76 -145,160 0,90 72,162 162,162 89,0 162,-73 162,-162 0,-93 -79,-167 -170,-161"/>
   <line class="fil0 str0" x1="1465" y1="4024" x2="1432" y2= "4027" />
   <path class="fil0 str0" d="M2529 4025c-75,0 -145,78 -145,160 0,89 72,162 162,162 88,0 161,-73 161,-162 0,-89 -72,-161 -161,-161"/>
   <line class="fil0 str0" x1="2546" y1="4024" x2="2545" y2= "4024" />
   <path class="fil0 str0" d="M2545 4024c-9,0 -9,0 -39,3"/>
   <line class="fil0 str0" x1="2506" y1="4027" x2="2504" y2= "4027" />
   <path class="fil0 str0" d="M1993 4561c-81,6 -145,76 -145,160 0,90 71,162 161,162 90,0 162,-72 162,-162 0,-89 -72,-161 -160,-161"/>
   <line class="fil0 str0" x1="2011" y1="4560" x2="2009" y2= "4560" />
   <path class="fil0 str0" d="M2009 4560c-4,0 -4,0 -29,2"/>
   <line class="fil0 str0" x1="1980" y1="4562" x2="1969" y2= "4563" />
   <polyline class="fil0 str0" points="3175,4215 3167,4216 3167,4218 "/>
   <path class="fil0 str0" d="M3167 4218c1,2 3,3 5,5"/>
   <line class="fil0 str0" x1="3172" y1="4223" x2="3174" y2= "4223" />
   <path class="fil0 str0" d="M3174 4223c0,1 0,2 0,4 0,103 -27,244 -69,357 -170,460 -607,766 -1096,766 -643,0 -1166,-523 -1166,-1166 0,-645 522,-1168 1165,-1168 641,0 1168,523 1168,1158 0,23 0,36 -2,65"/>
  </g>
 </g>
</svg>
