<?xml version="1.0" encoding="UTF-8"?>
<!DOCTYPE svg PUBLIC "-//W3C//DTD SVG 1.1//EN" "http://www.w3.org/Graphics/SVG/1.1/DTD/svg11.dtd">
<!-- Creator: CorelDRAW X8 -->
<svg xmlns="http://www.w3.org/2000/svg" xml:space="preserve" width="40mm" height="60mm" version="1.1" style="shape-rendering:geometricPrecision; text-rendering:geometricPrecision; image-rendering:optimizeQuality; fill-rule:evenodd; clip-rule:evenodd"
viewBox="0 0 4000 6000"
 xmlns:xlink="http://www.w3.org/1999/xlink">
 <defs>
  <style type="text/css">
   <![CDATA[
    .str0 {stroke:black;stroke-width:7.62}
    .fil0 {fill:none}
   ]]>
  </style>
 </defs>
 <g id="图层_x0020_1">
  <metadata id="CorelCorpID_0Corel-Layer"/>
  <path class="fil0 str0" d="M1040 5350l1767 0c130,0 237,-107 237,-237l0 -4226c0,-130 -107,-237 -237,-237l-521 0c-12,0 -127,0 -180,0 -18,0 -33,6 -33,24l0 27c0,39 -32,72 -72,72l0 0c-39,0 -71,-33 -71,-72l0 -21c0,-25 -14,-30 -37,-30 -52,0 -164,0 -176,0l-524 0c-130,0 -237,107 -237,237l0 4226c0,130 107,237 237,237l227 0"/>
 </g>
</svg>
