<?xml version="1.0" encoding="UTF-8"?>
<!DOCTYPE svg PUBLIC "-//W3C//DTD SVG 1.1//EN" "http://www.w3.org/Graphics/SVG/1.1/DTD/svg11.dtd">
<!-- Creator: CorelDRAW X8 -->
<svg xmlns="http://www.w3.org/2000/svg" xml:space="preserve" width="40mm" height="60mm" version="1.1" style="shape-rendering:geometricPrecision; text-rendering:geometricPrecision; image-rendering:optimizeQuality; fill-rule:evenodd; clip-rule:evenodd"
viewBox="0 0 4000 6000"
 xmlns:xlink="http://www.w3.org/1999/xlink">
 <defs>
  <style type="text/css">
   <![CDATA[
    .str0 {stroke:#222222;stroke-width:20}
    .fil0 {fill:none}
   ]]>
  </style>
 </defs>
 <g id="图层_x0020_1">
  <metadata id="CorelCorpID_0Corel-Layer"/>
  <g id="_1504212333136">
   <path class="fil0 str0" d="M1274 1964c363,0 657,-294 657,-657 0,-363 -294,-657 -657,-657 -363,0 -657,294 -657,657 0,363 294,657 657,657 363,0 479,0 479,0"/>
   <path class="fil0 str0" d="M1274 3657c363,0 657,-294 657,-657 0,-363 -294,-657 -657,-657 -363,0 -657,294 -657,657 0,363 294,657 657,657 363,0 479,0 479,0"/>
   <path class="fil0 str0" d="M1274 5350c363,0 657,-294 657,-657 0,-363 -294,-657 -657,-657 -363,0 -657,294 -657,657 0,363 294,657 657,657 363,0 479,0 479,0"/>
   <path class="fil0 str0" d="M2726 1964c363,0 657,-294 657,-657 0,-363 -294,-657 -657,-657 -363,0 -657,294 -657,657 0,363 294,657 657,657 363,0 478,0 478,0"/>
   <path class="fil0 str0" d="M2726 3657c363,0 657,-294 657,-657 0,-363 -294,-657 -657,-657 -363,0 -657,294 -657,657 0,363 294,657 657,657 363,0 478,0 478,0"/>
   <path class="fil0 str0" d="M2726 5350c363,0 657,-294 657,-657 0,-363 -294,-657 -657,-657 -363,0 -657,294 -657,657 0,363 294,657 657,657 363,0 478,0 478,0"/>
  </g>
  <g id="_1504798843584">
   <path class="fil0 str0" d="M-12049 5172c0,-1072 -869,-1941 -1941,-1941 -1072,0 -1941,869 -1941,1941 0,1071 869,1940 1941,1940 1072,0 1941,-869 1941,-1940 0,-1072 0,-1414 0,-1414"/>
   <path class="fil0 str0" d="M-7049 5172c0,-1072 -869,-1941 -1941,-1941 -1072,0 -1941,869 -1941,1941 0,1071 869,1940 1941,1940 1072,0 1941,-869 1941,-1940 0,-1072 0,-1414 0,-1414"/>
   <path class="fil0 str0" d="M-2049 5172c0,-1072 -869,-1941 -1941,-1941 -1072,0 -1941,869 -1941,1941 0,1071 869,1940 1941,1940 1072,0 1941,-869 1941,-1940 0,-1072 0,-1414 0,-1414"/>
   <path class="fil0 str0" d="M-12049 885c0,-1071 -869,-1940 -1941,-1940 -1072,0 -1941,869 -1941,1940 0,1072 869,1941 1941,1941 1072,0 1941,-869 1941,-1941 0,-1071 0,-1413 0,-1413"/>
   <path class="fil0 str0" d="M-7049 885c0,-1071 -869,-1940 -1941,-1940 -1072,0 -1941,869 -1941,1940 0,1072 869,1941 1941,1941 1072,0 1941,-869 1941,-1941 0,-1071 0,-1413 0,-1413"/>
   <path class="fil0 str0" d="M-2049 885c0,-1071 -869,-1940 -1941,-1940 -1072,0 -1941,869 -1941,1940 0,1072 869,1941 1941,1941 1072,0 1941,-869 1941,-1941 0,-1071 0,-1413 0,-1413"/>
  </g>
 </g>
</svg>
