<?xml version="1.0" encoding="UTF-8"?>
<!DOCTYPE svg PUBLIC "-//W3C//DTD SVG 1.1//EN" "http://www.w3.org/Graphics/SVG/1.1/DTD/svg11.dtd">
<!-- Creator: CorelDRAW X8 -->
<svg xmlns="http://www.w3.org/2000/svg" xml:space="preserve" width="40mm" height="60mm" version="1.1" style="shape-rendering:geometricPrecision; text-rendering:geometricPrecision; image-rendering:optimizeQuality; fill-rule:evenodd; clip-rule:evenodd"
viewBox="0 0 4000 6000"
 xmlns:xlink="http://www.w3.org/1999/xlink">
 <defs>
  <style type="text/css">
   <![CDATA[
    .str0 {stroke:#222222;stroke-width:20}
    .fil0 {fill:none}
   ]]>
  </style>
 </defs>
 <g id="图层_x0020_1">
  <metadata id="CorelCorpID_0Corel-Layer"/>
  <path class="fil0 str0" d="M1945 1175c-14,4 -25,9 -25,33l0 20c0,28 23,50 51,50l0 0c27,0 50,-22 50,-50l0 -141c0,-28 -23,-50 -50,-50l0 0c-28,0 -51,23 -51,50l0 121m-450 -468l0 0c200,0 364,167 364,372l0 789c0,204 -164,372 -364,372l0 0c-200,0 -364,-168 -364,-372l0 -789c0,-205 164,-372 364,-372zm0 25l0 0c187,0 341,162 341,360l0 762c0,198 -154,359 -341,359l0 0c-188,0 -341,-161 -341,-359l0 -762c0,-198 153,-360 341,-360zm12 700c0,-4 -4,-8 -12,-8 -28,0 -50,22 -50,50 0,28 22,50 50,50 28,0 50,-22 50,-50 0,-28 -22,-50 -50,-50m0 -608c147,0 266,119 266,266 0,147 -119,266 -266,266 -147,0 -266,-119 -266,-266 0,-147 119,-266 266,-266zm0 1328c-147,0 -266,-119 -266,-266 0,-147 119,-266 266,-266 147,0 266,119 266,266 0,147 -119,266 -266,266zm-421 3119l1785 0c143,0 259,-116 259,-259l0 -4128c0,-142 -116,-259 -259,-259l-1668 0c-143,0 -259,117 -259,259l0 881c0,6 1,11 4,15l31 52c3,5 5,10 5,15l0 994c0,6 -2,10 -5,15l-31 52c-3,5 -4,10 -4,15l0 2089c0,143 116,259 259,259l43 0c91,7 159,25 205,54"/>
 </g>
</svg>
