<?xml version="1.0" encoding="UTF-8"?>
<!DOCTYPE svg PUBLIC "-//W3C//DTD SVG 1.1//EN" "http://www.w3.org/Graphics/SVG/1.1/DTD/svg11.dtd">
<!-- Creator: CorelDRAW 2020 (64-Bit) -->
<svg xmlns="http://www.w3.org/2000/svg" xml:space="preserve" width="40mm" height="60mm" version="1.1" style="shape-rendering:geometricPrecision; text-rendering:geometricPrecision; image-rendering:optimizeQuality; fill-rule:evenodd; clip-rule:evenodd"
viewBox="0 0 4000 6000"
 xmlns:xlink="http://www.w3.org/1999/xlink"
 xmlns:xodm="http://www.corel.com/coreldraw/odm/2003">
 <defs>
  <style type="text/css">
   <![CDATA[
    .str1 {stroke:#232222;stroke-width:20;stroke-miterlimit:22.9256}
    .str0 {stroke:#222222;stroke-width:20;stroke-miterlimit:22.9256}
    .fil0 {fill:none}
   ]]>
  </style>
 </defs>
 <g id="图层_x0020_1">
  <metadata id="CorelCorpID_0Corel-Layer"/>
  <g id="_2716726841616">
   <path class="fil0 str0" d="M1962.88 799.49c0,-15.33 6.74,-66.45 41.71,-66.45 34.96,0 63.3,28.35 63.3,63.31 0,34.96 -28.34,63.31 -63.3,63.31 -34.97,0 -63.31,-28.35 -63.31,-63.31 0,-34.96 28.34,-63.31 63.31,-63.31"/>
   <path class="fil0 str0" d="M2797.84 650l-1600.19 0c0,0 -34.31,0.2 -71.39,22.81 -34.63,18.67 -169.28,104.68 -169.28,104.68 0,0 -40.26,20.97 -40.26,76.99l0 4329.26c0,0 -1.25,23.68 17.96,34.62 19.21,10.94 197.56,124.07 197.56,124.07 0,0 15.57,8.57 51.8,7.47l1627.98 0c38.78,-1.23 55.72,-7.47 55.72,-7.47 0,0 178.35,-113.13 197.56,-124.07 19.21,-10.94 17.96,-34.62 17.96,-34.62l0 -4347.09c0,0 2.38,-39.19 -31.77,-60.32 -40,-26.54 -191.24,-116.97 -191.24,-116.97 0,0 -17.04,-8.87 -62.41,-9.36z"/>
  </g>
  <path class="fil0 str1" d="M-18142.82 2891.04c-57.37,0 -248.65,-25.22 -248.65,-156.06 0,-130.84 106.07,-236.91 236.91,-236.91 130.84,0 236.91,106.07 236.91,236.91 0,130.84 -106.07,236.91 -236.91,236.91 -130.84,0 -236.91,-106.07 -236.91,-236.91"/>
  <path class="fil0 str1" d="M-3001.89 4758.2c-265.91,0 -274.96,528.07 -271.32,645.89 3.64,117.82 -24.75,168.46 -24.75,168.46 0,0 -374.85,580.05 -411.07,642.53 -36.23,62.47 -114.7,58.42 -114.7,58.42l-14072.66 0c-185.62,0 -255.1,-130.95 -255.1,-130.95 0,0 -284.96,-437.91 -346.83,-550.56 -74.89,-120.58 -75.57,-232.17 -75.57,-232.17l0 -5204.34c1.62,-147.56 31.03,-202.98 31.03,-202.98 0,0 299.61,-491.87 387.54,-621.98 70,-111.07 199.85,-103.33 199.85,-103.33l14131.74 0c0,0 78.47,-4.05 114.7,58.42 36.22,62.47 411.07,642.53 411.07,642.53 0,0 20.66,55.08 24.75,181.23l0 6306.75"/>
 </g>
</svg>
