<?xml version="1.0" encoding="UTF-8"?>
<!DOCTYPE svg PUBLIC "-//W3C//DTD SVG 1.1//EN" "http://www.w3.org/Graphics/SVG/1.1/DTD/svg11.dtd">
<!-- Creator: CorelDRAW X8 -->
<svg xmlns="http://www.w3.org/2000/svg" xml:space="preserve" width="40mm" height="60mm" version="1.1" style="shape-rendering:geometricPrecision; text-rendering:geometricPrecision; image-rendering:optimizeQuality; fill-rule:evenodd; clip-rule:evenodd"
viewBox="0 0 4000 6000"
 xmlns:xlink="http://www.w3.org/1999/xlink">
 <defs>
  <style type="text/css">
   <![CDATA[
    .str0 {stroke:black;stroke-width:7.62}
    .fil0 {fill:none}
   ]]>
  </style>
 </defs>
 <g id="图层_x0020_1">
  <metadata id="CorelCorpID_0Corel-Layer"/>
  <path class="fil0 str0" d="M847 5350l0 -4607c0,-51 42,-93 93,-93l785 0c8,0 11,1 16,6l30 31c4,4 6,5 12,5l451 0c9,0 13,-1 17,-7l21 -27c4,-6 11,-8 18,-8l770 0c51,0 93,42 93,93l0 4512c0,51 -42,93 -93,93l-2120 0c-51,0 -93,-42 -93,-93l0 -46m1612 -4524c0,-5 -4,-10 -13,-10 -31,0 -56,25 -56,56 0,30 25,55 56,55 31,0 56,-25 56,-55 0,-31 -25,-56 -56,-56"/>
 </g>
</svg>
