<?xml version="1.0" encoding="UTF-8"?>
<!DOCTYPE svg PUBLIC "-//W3C//DTD SVG 1.1//EN" "http://www.w3.org/Graphics/SVG/1.1/DTD/svg11.dtd">
<!-- Creator: CorelDRAW X8 -->
<svg xmlns="http://www.w3.org/2000/svg" xml:space="preserve" width="40mm" height="60mm" version="1.1" style="shape-rendering:geometricPrecision; text-rendering:geometricPrecision; image-rendering:optimizeQuality; fill-rule:evenodd; clip-rule:evenodd"
viewBox="0 0 4000 6000"
 xmlns:xlink="http://www.w3.org/1999/xlink">
 <defs>
  <style type="text/css">
   <![CDATA[
    .str0 {stroke:black;stroke-width:7.62}
    .fil0 {fill:none}
   ]]>
  </style>
 </defs>
 <g id="图层_x0020_1">
  <metadata id="CorelCorpID_0Corel-Layer"/>
  <path class="fil0 str0" d="M2057 959c-1,-19 -18,-37 -52,-40 -123,0 -223,100 -223,223 0,122 100,222 223,222 122,0 222,-100 222,-222 0,-123 -100,-223 -222,-223m20 500c-1,-7 -7,-14 -20,-15 -48,0 -86,38 -86,86 0,47 38,85 86,85 47,0 85,-38 85,-85 0,-48 -38,-86 -85,-86m50 224c-1,-18 -17,-35 -50,-37 -118,0 -214,95 -214,213 0,118 96,214 214,214 118,0 213,-96 213,-214 0,-118 -95,-213 -213,-213m-1058 3759l1994 0c112,0 204,-92 204,-204l0 -4292c0,-112 -92,-204 -204,-204l-1882 0c-112,0 -204,92 -204,204l0 4292c0,112 92,204 204,204l65 0"/>
 </g>
</svg>
