<?xml version="1.0" encoding="UTF-8"?>
<!DOCTYPE svg PUBLIC "-//W3C//DTD SVG 1.1//EN" "http://www.w3.org/Graphics/SVG/1.1/DTD/svg11.dtd">
<!-- Creator: CorelDRAW 2020 (64-Bit) -->
<svg xmlns="http://www.w3.org/2000/svg" xml:space="preserve" width="40mm" height="60mm" version="1.1" style="shape-rendering:geometricPrecision; text-rendering:geometricPrecision; image-rendering:optimizeQuality; fill-rule:evenodd; clip-rule:evenodd"
viewBox="0 0 4000 6000"
 xmlns:xlink="http://www.w3.org/1999/xlink"
 xmlns:xodm="http://www.corel.com/coreldraw/odm/2003">
 <defs>
  <style type="text/css">
   <![CDATA[
    .str0 {stroke:#332C2B;stroke-width:20;stroke-miterlimit:22.9256}
    .fil0 {fill:none}
   ]]>
  </style>
   <clipPath id="id0">
    <rect x="-36173.72" y="-4918.46" width="13357.37" height="16201.19"/>
   </clipPath>
 </defs>
 <g id="图层_x0020_1">
  <metadata id="CorelCorpID_0Corel-Layer"/>
  <g style="clip-path:url(#id0)">
   <image x="-36173.72" y="-4918.46" width="13357.36" height="16201.19" xlink:href="F5 Youth -11i（前膜全屏）_Images\F5 Youth -11i（前膜全屏）_ImgID1.png"/>
  </g>
  <rect class="fil0 str0" x="-30666" y="-4644.27" width="7600" height="15650.01"/>
  <rect class="fil0 str0" x="-30517.87" y="-4506.68" width="7303.74" height="15364.66" rx="800" ry="752.65"/>
  <circle class="fil0 str0" cx="-28258.21" cy="-4079.05" r="199.76"/>
  <circle class="fil0 str0" cx="-25472.8" cy="-4098.9" r="146.85"/>
  <rect class="fil0 str0" x="-27514.05" y="-4189.52" width="1308.37" height="199.76" rx="300" ry="300"/>
  <path class="fil0 str0" d="M-3659.73 6151.74l0 -6161.47c0,-439.99 -360.01,-800 -800,-800l-13764.66 0c-440,0 -800,360 -800,800l0 5703.74c0,440 360,800 800,800l13764.66 0c440,0 800,-360 800,-800 0,-440 42.38,-466.68 106.54,-555.98"/>
  <path class="fil0 str0" d="M-18796.53 4234.35c0,110.32 89.44,199.76 199.76,199.76 110.32,0 199.76,-89.44 199.76,-199.76 0,-110.32 -89.44,-199.76 -199.76,-199.76 -110.32,0 -199.76,89.44 -199.76,199.76 0,110.32 129,129.13 151.49,133.1"/>
  <path class="fil0 str0" d="M-18763.47 1448.94c0,81.1 65.75,146.85 146.85,146.85 81.1,0 146.85,-65.75 146.85,-146.85 0,-81.1 -65.75,-146.85 -146.85,-146.85 -81.1,0 -146.85,65.75 -146.85,146.85 0,81.1 95.94,100.03 113.14,100.03"/>
  <path class="fil0 str0" d="M-18707.24 3390.3c0,54.94 44.94,99.88 99.88,99.88l0 0c54.94,0 99.88,-44.94 99.88,-99.88l0 -1108.61c0,-54.94 -44.94,-99.88 -99.88,-99.88l0 0c-54.94,0 -99.88,44.94 -99.88,99.88l0 1108.61c0,0 -0.63,-232.68 69.48,-324.62"/>
  <g id="_2496474712416">
   <path class="fil0 str0" d="M1120.49 650.53l1744.76 0c134.59,0 244.71,110.12 244.71,244.72l0 4210.56c0,134.6 -110.12,244.72 -244.71,244.72l-1744.76 0c-134.59,0 -244.71,-110.12 -244.71,-244.72l0 -4210.56c0,-134.6 110.12,-244.72 244.71,-244.72z"/>
   <path class="fil0 str0" d="M1567 720.23c33.74,0 61.1,27.36 61.1,61.11 0,33.74 -27.36,61.1 -61.1,61.1 -33.75,0 -61.11,-27.36 -61.11,-61.1 0,-33.75 27.36,-61.11 61.11,-61.11z"/>
   <path class="fil0 str0" d="M2419.05 730.34c24.8,0 44.92,20.12 44.92,44.93 0,24.8 -20.12,44.92 -44.92,44.92 -24.81,0 -44.93,-20.12 -44.93,-44.92 0,-24.81 20.12,-44.93 44.93,-44.93z"/>
   <path class="fil0 str0" d="M1825.19 747.55l339.12 0c16.81,0 30.55,13.74 30.55,30.55l0 0c0,16.8 -13.74,30.55 -30.55,30.55l-339.12 0c-16.81,0 -30.55,-13.75 -30.55,-30.55l0 0c0,-16.81 13.74,-30.55 30.55,-30.55z"/>
  </g>
 </g>
</svg>
