<?xml version="1.0" encoding="UTF-8"?>
<!DOCTYPE svg PUBLIC "-//W3C//DTD SVG 1.1//EN" "http://www.w3.org/Graphics/SVG/1.1/DTD/svg11.dtd">
<!-- Creator: CorelDRAW X8 -->
<svg xmlns="http://www.w3.org/2000/svg" xml:space="preserve" width="40mm" height="60mm" version="1.1" style="shape-rendering:geometricPrecision; text-rendering:geometricPrecision; image-rendering:optimizeQuality; fill-rule:evenodd; clip-rule:evenodd"
viewBox="0 0 4000 6000"
 xmlns:xlink="http://www.w3.org/1999/xlink">
 <defs>
  <style type="text/css">
   <![CDATA[
    .str0 {stroke:black;stroke-width:20}
    .fil0 {fill:none}
   ]]>
  </style>
 </defs>
 <g id="图层_x0020_1">
  <metadata id="CorelCorpID_0Corel-Layer"/>
  <g id="_2314186966640">
   <path class="fil0 str0" d="M887 5213l2051 0c97,0 175,-79 175,-176l0 -4211c0,-97 -78,-176 -175,-176l-1772 0c-96,0 -175,79 -175,176l0 4211c0,97 79,176 175,176 96,0 235,55 235,137"/>
   <path class="fil0 str0" d="M1607 820c-28,-16 -12,-69 19,-69 31,0 56,25 56,56 0,31 -25,56 -56,56 -31,0 -56,-25 -56,-56 0,-31 25,-56 56,-56"/>
   <path class="fil0 str0" d="M1885 819c32,-32 8,-56 -16,-56 -23,0 -43,19 -43,42l0 0c0,23 20,42 43,42l371 0c24,0 43,-19 43,-42l0 0c0,-23 -19,-42 -43,-42l-371 0"/>
  </g>
 </g>
</svg>
