<?xml version="1.0" encoding="UTF-8"?>
<!DOCTYPE svg PUBLIC "-//W3C//DTD SVG 1.1//EN" "http://www.w3.org/Graphics/SVG/1.1/DTD/svg11.dtd">
<!-- Creator: CorelDRAW -->
<svg xmlns="http://www.w3.org/2000/svg" xml:space="preserve" width="40mm" height="60mm" style="shape-rendering:geometricPrecision; text-rendering:geometricPrecision; image-rendering:optimizeQuality; fill-rule:evenodd; clip-rule:evenodd"
viewBox="0 0 40 60"
 xmlns:xlink="http://www.w3.org/1999/xlink">
 <defs>
  <style type="text/css">
   <![CDATA[
    .str0 {stroke:#1F1A17;stroke-width:0.194}
    .str1 {stroke:#1F1A17;stroke-width:0.194}
    .str2 {stroke:#1F1A17;stroke-width:0.2}
    .fil0 {fill:none}
    .fil1 {fill:none;fill-rule:nonzero}
   ]]>
  </style>
 </defs>
 <g id="图层_x0020_1">
  <metadata id="CorelCorpID_0Corel-Layer"/>
  <path class="fil0 str0" d="M8.7259 6.873c0.344,-0.306 0.4077,-0.3183 1.585,-0.3227l19.3585 -0.0493c1.1971,-0.0029 1.2608,0.0095 1.6048,0.3155 0.2641,0.2341 0.4429,0.5882 0.558,0.893l0.0087 44.5799c-0.0607,0.2785 -0.2698,0.6166 -0.5339,0.8507 -0.344,0.306 -0.4077,0.3184 -1.6349,0.3184l-19.3207 0.0357c-1.2507,0.0208 -1.3143,0.0084 -1.6583,-0.2976 -0.2642,-0.234 -0.4732,-0.5722 -0.534,-0.8507l0.0087 -44.5799c0.1152,-0.3047 0.2939,-0.6589 0.5581,-0.893"/>
  <line class="fil1 str1" x1="19.441" y1="8.248" x2="19.441" y2= "8.1533" />
  <path class="fil1 str1" d="M19.3463 8.2538c-0.2419,0.0055 -0.4158,0.002 -0.5462,0.002 -0.603,0 -0.7969,-0.1192 -0.7969,-0.487 0,-0.2141 0.117,-0.379 0.3087,-0.4359 0.1472,-0.0446 0.3935,-0.0568 1.1225,-0.0568 0.5729,0 0.8203,0.0078 0.9875,0.029 0.1672,0.0211 0.2497,0.0568 0.3311,0.1415 0.0736,0.0769 0.117,0.1973 0.117,0.3244 0,0.37 -0.2017,0.486 -0.8382,0.4837 -0.292,-0.0011 -0.583,0.0007 -0.875,-0.0026"/>
  <ellipse class="fil0 str2" cx="21.9514" cy="7.7802" rx="0.5386" ry="0.551"/>
  <ellipse class="fil0 str2" cx="23.6459" cy="7.8042" rx="0.5456" ry="0.5441"/>
  <ellipse class="fil0 str2" cx="16.9548" cy="7.88" rx="0.7302" ry="0.6939"/>
  <ellipse class="fil0 str2" cx="15.1349" cy="7.945" rx="0.5666" ry="0.5613"/>
 </g>
</svg>
