<?xml version="1.0" encoding="UTF-8"?>
<!DOCTYPE svg PUBLIC "-//W3C//DTD SVG 1.1//EN" "http://www.w3.org/Graphics/SVG/1.1/DTD/svg11.dtd">
<!-- Creator: CorelDRAW X8 -->
<svg xmlns="http://www.w3.org/2000/svg" xml:space="preserve" width="40mm" height="60mm" version="1.1" style="shape-rendering:geometricPrecision; text-rendering:geometricPrecision; image-rendering:optimizeQuality; fill-rule:evenodd; clip-rule:evenodd"
viewBox="0 0 4000 6000"
 xmlns:xlink="http://www.w3.org/1999/xlink">
 <defs>
  <style type="text/css">
   <![CDATA[
    .str0 {stroke:black;stroke-width:7.62}
    .fil0 {fill:none}
   ]]>
  </style>
 </defs>
 <g id="图层_x0020_2">
  <metadata id="CorelCorpID_0Corel-Layer"/>
  <path class="fil0 str0" d="M1290 1503c-2,0 -4,2 -4,6 0,13 10,23 23,23 13,0 23,-10 23,-23 0,-13 -10,-24 -23,-24 -13,0 -23,11 -23,24m508 41c-14,4 -24,9 -24,34l0 20c0,28 23,52 51,52l0 0c28,0 52,-24 52,-52l0 -190c0,-29 -24,-52 -52,-52l0 0c-28,0 -51,23 -51,52l0 170m-1125 3766l0 -632 47 -578 109 0 0 -562 -109 0 -47 -578 0 -632 47 -540 94 -54 0 -531 -94 -62 -47 -531 809 0c70,0 128,58 128,128l0 106 522 0 0 1249 -522 0 0 106c0,71 -58,129 -128,129l284 0 0 632 -284 0c70,0 128,58 128,128l0 1461c0,71 -58,129 -128,129l284 0 0 632 -1093 0zm1192 -1892l-91 60 0 493 90 58 35 557 205 0c77,0 139,-62 139,-138l0 427 671 0 0 -427c0,76 63,138 139,138l189 0 38 -594 103 0 0 -531 -103 0 -38 -593 -189 0c-76,0 -139,62 -139,138l0 -427 -671 0 0 427c0,-76 -62,-138 -139,-138l-205 0 -34 550z"/>
 </g>
</svg>
