<?xml version="1.0" encoding="UTF-8"?>
<!DOCTYPE svg PUBLIC "-//W3C//DTD SVG 1.1//EN" "http://www.w3.org/Graphics/SVG/1.1/DTD/svg11.dtd">
<!-- Creator: CorelDRAW X8 -->
<svg xmlns="http://www.w3.org/2000/svg" xml:space="preserve" width="40mm" height="60mm" version="1.1" style="shape-rendering:geometricPrecision; text-rendering:geometricPrecision; image-rendering:optimizeQuality; fill-rule:evenodd; clip-rule:evenodd"
viewBox="0 0 4000 6000"
 xmlns:xlink="http://www.w3.org/1999/xlink">
 <defs>
  <style type="text/css">
   <![CDATA[
    .str0 {stroke:#332C2B;stroke-width:20}
    .fil0 {fill:none}
   ]]>
  </style>
 </defs>
 <g id="图层_x0020_1">
  <metadata id="CorelCorpID_0Corel-Layer"/>
  <path class="fil0 str0" d="M2657 672l0 944c0,56 44,105 102,105l308 0c57,0 102,-49 102,-105l0 -860c0,-57 -45,-106 -102,-106l-308 0c-58,0 -102,49 -102,106l0 53m408 644c10,0 18,8 18,18 0,10 -8,18 -18,18 -10,0 -18,-8 -18,-18 0,-10 8,-18 18,-18zm-301 -2l97 0c27,0 50,21 50,47l0 122c0,26 -23,47 -50,47l-97 0c-28,0 -50,-21 -50,-47l0 -122c0,-26 22,-47 50,-47zm47 -789c64,0 116,52 116,116 0,64 -52,116 -116,116 -64,0 -116,-52 -116,-116 0,-64 52,-116 116,-116zm0 362c64,0 116,52 116,116 0,64 -52,116 -116,116 -64,0 -116,-52 -116,-116 0,-64 52,-116 116,-116zm253 -298c31,0 57,26 57,57 0,32 -26,57 -57,57 -32,0 -57,-25 -57,-57 0,-31 25,-57 57,-57zm4 776c32,0 59,26 59,58 0,32 -27,58 -59,58 -32,0 -58,-26 -58,-58 0,-32 26,-58 58,-58zm-1019 -830l0 944c0,56 44,105 101,105l308 0c58,0 102,-49 102,-105l0 -860c0,-57 -44,-106 -102,-106l-308 0c-57,0 -101,49 -101,106l0 53m408 644c10,0 18,8 18,18 0,10 -8,18 -18,18 -10,0 -19,-8 -19,-18 0,-10 9,-18 19,-18zm-302 -2l97 0c28,0 50,21 50,47l0 122c0,26 -22,47 -50,47l-97 0c-27,0 -50,-21 -50,-47l0 -122c0,-26 23,-47 50,-47zm47 -789c64,0 116,52 116,116 0,64 -52,116 -116,116 -64,0 -116,-52 -116,-116 0,-64 52,-116 116,-116zm0 362c64,0 116,52 116,116 0,64 -52,116 -116,116 -64,0 -116,-52 -116,-116 0,-64 52,-116 116,-116zm253 -298c32,0 57,26 57,57 0,32 -25,57 -57,57 -31,0 -57,-25 -57,-57 0,-31 26,-57 57,-57zm5 776c32,0 58,26 58,58 0,32 -26,58 -58,58 -32,0 -58,-26 -58,-58 0,-32 26,-58 58,-58zm-1020 -830l0 944c0,56 44,105 102,105l308 0c57,0 101,-49 101,-105l0 -860c0,-57 -44,-106 -101,-106l-308 0c-58,0 -102,49 -102,106l0 53m408 644c10,0 18,8 18,18 0,10 -8,18 -18,18 -10,0 -18,-8 -18,-18 0,-10 8,-18 18,-18zm-301 -2l96 0c28,0 51,21 51,47l0 122c0,26 -23,47 -51,47l-96 0c-28,0 -50,-21 -50,-47l0 -122c0,-26 22,-47 50,-47zm47 -789c64,0 116,52 116,116 0,64 -52,116 -116,116 -65,0 -117,-52 -117,-116 0,-64 52,-116 117,-116zm0 362c64,0 116,52 116,116 0,64 -52,116 -116,116 -65,0 -117,-52 -117,-116 0,-64 52,-116 117,-116zm253 -298c31,0 57,26 57,57 0,32 -26,57 -57,57 -32,0 -57,-25 -57,-57 0,-31 25,-57 57,-57zm4 776c32,0 58,26 58,58 0,32 -26,58 -58,58 -32,0 -58,-26 -58,-58 0,-32 26,-58 58,-58zm-1020 -830l0 944c0,56 45,105 102,105l308 0c58,0 102,-49 102,-105l0 -860c0,-57 -44,-106 -102,-106l-308 0c-57,0 -102,49 -102,106l0 53m408 644c10,0 18,8 18,18 0,10 -8,18 -18,18 -10,0 -18,-8 -18,-18 0,-10 8,-18 18,-18zm-301 -2l97 0c27,0 50,21 50,47l0 122c0,26 -23,47 -50,47l-97 0c-27,0 -50,-21 -50,-47l0 -122c0,-26 23,-47 50,-47zm47 -789c64,0 116,52 116,116 0,64 -52,116 -116,116 -64,0 -116,-52 -116,-116 0,-64 52,-116 116,-116zm0 362c64,0 116,52 116,116 0,64 -52,116 -116,116 -64,0 -116,-52 -116,-116 0,-64 52,-116 116,-116zm253 -298c32,0 57,26 57,57 0,32 -25,57 -57,57 -31,0 -57,-25 -57,-57 0,-31 26,-57 57,-57zm5 776c32,0 58,26 58,58 0,32 -26,58 -58,58 -32,0 -58,-26 -58,-58 0,-32 26,-58 58,-58zm1414 379l0 944c0,57 44,106 102,106l308 0c57,0 102,-49 102,-106l0 -860c0,-56 -45,-105 -102,-105l-308 0c-58,0 -102,49 -102,105l0 54m408 644c10,0 18,8 18,18 0,10 -8,18 -18,18 -10,0 -18,-8 -18,-18 0,-10 8,-18 18,-18zm-301 -3l97 0c27,0 50,21 50,47l0 123c0,25 -23,47 -50,47l-97 0c-28,0 -50,-22 -50,-47l0 -123c0,-26 22,-47 50,-47zm47 -789c64,0 116,52 116,116 0,65 -52,116 -116,116 -64,0 -116,-51 -116,-116 0,-64 52,-116 116,-116zm0 362c64,0 116,52 116,116 0,65 -52,117 -116,117 -64,0 -116,-52 -116,-117 0,-64 52,-116 116,-116zm253 -297c31,0 57,25 57,57 0,31 -26,57 -57,57 -32,0 -57,-26 -57,-57 0,-32 25,-57 57,-57zm4 775c32,0 59,26 59,58 0,32 -27,58 -59,58 -32,0 -58,-26 -58,-58 0,-32 26,-58 58,-58zm-1019 -830l0 944c0,57 44,106 101,106l308 0c58,0 102,-49 102,-106l0 -860c0,-56 -44,-105 -102,-105l-308 0c-57,0 -101,49 -101,105l0 54m408 644c10,0 18,8 18,18 0,10 -8,18 -18,18 -10,0 -19,-8 -19,-18 0,-10 9,-18 19,-18zm-302 -3l97 0c28,0 50,21 50,47l0 123c0,25 -22,47 -50,47l-97 0c-27,0 -50,-22 -50,-47l0 -123c0,-26 23,-47 50,-47zm47 -789c64,0 116,52 116,116 0,65 -52,116 -116,116 -64,0 -116,-51 -116,-116 0,-64 52,-116 116,-116zm0 362c64,0 116,52 116,116 0,65 -52,117 -116,117 -64,0 -116,-52 -116,-117 0,-64 52,-116 116,-116zm253 -297c32,0 57,25 57,57 0,31 -25,57 -57,57 -31,0 -57,-26 -57,-57 0,-32 26,-57 57,-57zm5 775c32,0 58,26 58,58 0,32 -26,58 -58,58 -32,0 -58,-26 -58,-58 0,-32 26,-58 58,-58zm-1020 -830l0 944c0,57 44,106 102,106l308 0c57,0 101,-49 101,-106l0 -860c0,-56 -44,-105 -101,-105l-308 0c-58,0 -102,49 -102,105l0 54m408 644c10,0 18,8 18,18 0,10 -8,18 -18,18 -10,0 -18,-8 -18,-18 0,-10 8,-18 18,-18zm-301 -3l96 0c28,0 51,21 51,47l0 123c0,25 -23,47 -51,47l-96 0c-28,0 -50,-22 -50,-47l0 -123c0,-26 22,-47 50,-47zm47 -789c64,0 116,52 116,116 0,65 -52,116 -116,116 -65,0 -117,-51 -117,-116 0,-64 52,-116 117,-116zm0 362c64,0 116,52 116,116 0,65 -52,117 -116,117 -65,0 -117,-52 -117,-117 0,-64 52,-116 117,-116zm253 -297c31,0 57,25 57,57 0,31 -26,57 -57,57 -32,0 -57,-26 -57,-57 0,-32 25,-57 57,-57zm4 775c32,0 58,26 58,58 0,32 -26,58 -58,58 -32,0 -58,-26 -58,-58 0,-32 26,-58 58,-58zm-1020 -830l0 944c0,57 45,106 102,106l308 0c58,0 102,-49 102,-106l0 -860c0,-56 -44,-105 -102,-105l-308 0c-57,0 -102,49 -102,105l0 54m408 644c10,0 18,8 18,18 0,10 -8,18 -18,18 -10,0 -18,-8 -18,-18 0,-10 8,-18 18,-18zm-301 -3l97 0c27,0 50,21 50,47l0 123c0,25 -23,47 -50,47l-97 0c-27,0 -50,-22 -50,-47l0 -123c0,-26 23,-47 50,-47zm47 -789c64,0 116,52 116,116 0,65 -52,116 -116,116 -64,0 -116,-51 -116,-116 0,-64 52,-116 116,-116zm0 362c64,0 116,52 116,116 0,65 -52,117 -116,117 -64,0 -116,-52 -116,-117 0,-64 52,-116 116,-116zm253 -297c32,0 57,25 57,57 0,31 -25,57 -57,57 -31,0 -57,-26 -57,-57 0,-32 26,-57 57,-57zm5 775c32,0 58,26 58,58 0,32 -26,58 -58,58 -32,0 -58,-26 -58,-58 0,-32 26,-58 58,-58zm1414 380l0 944c0,56 44,105 102,105l308 0c57,0 102,-49 102,-105l0 -860c0,-57 -45,-106 -102,-106l-308 0c-58,0 -102,49 -102,106l0 53m408 644c10,0 18,8 18,18 0,10 -8,18 -18,18 -10,0 -18,-8 -18,-18 0,-10 8,-18 18,-18zm-301 -2l97 0c27,0 50,21 50,47l0 122c0,26 -23,47 -50,47l-97 0c-28,0 -50,-21 -50,-47l0 -122c0,-26 22,-47 50,-47zm47 -789c64,0 116,52 116,116 0,64 -52,116 -116,116 -64,0 -116,-52 -116,-116 0,-64 52,-116 116,-116zm0 362c64,0 116,52 116,116 0,64 -52,116 -116,116 -64,0 -116,-52 -116,-116 0,-64 52,-116 116,-116zm253 -297c31,0 57,25 57,56 0,32 -26,57 -57,57 -32,0 -57,-25 -57,-57 0,-31 25,-56 57,-56zm4 775c32,0 59,26 59,58 0,32 -27,58 -59,58 -32,0 -58,-26 -58,-58 0,-32 26,-58 58,-58zm-1019 -830l0 944c0,56 44,105 101,105l308 0c58,0 102,-49 102,-105l0 -860c0,-57 -44,-106 -102,-106l-308 0c-57,0 -101,49 -101,106l0 53m408 644c10,0 18,8 18,18 0,10 -8,18 -18,18 -10,0 -19,-8 -19,-18 0,-10 9,-18 19,-18zm-302 -2l97 0c28,0 50,21 50,47l0 122c0,26 -22,47 -50,47l-97 0c-27,0 -50,-21 -50,-47l0 -122c0,-26 23,-47 50,-47zm47 -789c64,0 116,52 116,116 0,64 -52,116 -116,116 -64,0 -116,-52 -116,-116 0,-64 52,-116 116,-116zm0 362c64,0 116,52 116,116 0,64 -52,116 -116,116 -64,0 -116,-52 -116,-116 0,-64 52,-116 116,-116zm253 -297c32,0 57,25 57,56 0,32 -25,57 -57,57 -31,0 -57,-25 -57,-57 0,-31 26,-56 57,-56zm5 775c32,0 58,26 58,58 0,32 -26,58 -58,58 -32,0 -58,-26 -58,-58 0,-32 26,-58 58,-58zm-1020 -830l0 944c0,56 44,105 102,105l308 0c57,0 101,-49 101,-105l0 -860c0,-57 -44,-106 -101,-106l-308 0c-58,0 -102,49 -102,106l0 53m408 644c10,0 18,8 18,18 0,10 -8,18 -18,18 -10,0 -18,-8 -18,-18 0,-10 8,-18 18,-18zm-301 -2l96 0c28,0 51,21 51,47l0 122c0,26 -23,47 -51,47l-96 0c-28,0 -50,-21 -50,-47l0 -122c0,-26 22,-47 50,-47zm47 -789c64,0 116,52 116,116 0,64 -52,116 -116,116 -65,0 -117,-52 -117,-116 0,-64 52,-116 117,-116zm0 362c64,0 116,52 116,116 0,64 -52,116 -116,116 -65,0 -117,-52 -117,-116 0,-64 52,-116 117,-116zm253 -297c31,0 57,25 57,56 0,32 -26,57 -57,57 -32,0 -57,-25 -57,-57 0,-31 25,-56 57,-56zm4 775c32,0 58,26 58,58 0,32 -26,58 -58,58 -32,0 -58,-26 -58,-58 0,-32 26,-58 58,-58zm-1020 -830l0 944c0,56 45,105 102,105l308 0c58,0 102,-49 102,-105l0 -860c0,-57 -44,-106 -102,-106l-308 0c-57,0 -102,49 -102,106l0 53m408 644c10,0 18,8 18,18 0,10 -8,18 -18,18 -10,0 -18,-8 -18,-18 0,-10 8,-18 18,-18zm-301 -2l97 0c27,0 50,21 50,47l0 122c0,26 -23,47 -50,47l-97 0c-27,0 -50,-21 -50,-47l0 -122c0,-26 23,-47 50,-47zm47 -789c64,0 116,52 116,116 0,64 -52,116 -116,116 -64,0 -116,-52 -116,-116 0,-64 52,-116 116,-116zm0 362c64,0 116,52 116,116 0,64 -52,116 -116,116 -64,0 -116,-52 -116,-116 0,-64 52,-116 116,-116zm253 -297c32,0 57,25 57,56 0,32 -25,57 -57,57 -31,0 -57,-25 -57,-57 0,-31 26,-56 57,-56zm5 775c32,0 58,26 58,58 0,32 -26,58 -58,58 -32,0 -58,-26 -58,-58 0,-32 26,-58 58,-58zm1414 379l0 944c0,57 44,106 102,106l308 0c57,0 102,-49 102,-106l0 -860c0,-56 -45,-105 -102,-105l-308 0c-58,0 -102,49 -102,105l0 54m408 644c10,0 18,8 18,18 0,10 -8,18 -18,18 -10,0 -18,-8 -18,-18 0,-10 8,-18 18,-18zm-301 -3l97 0c27,0 50,22 50,47l0 123c0,25 -23,47 -50,47l-97 0c-28,0 -50,-22 -50,-47l0 -123c0,-25 22,-47 50,-47zm47 -789c64,0 116,52 116,116 0,65 -52,117 -116,117 -64,0 -116,-52 -116,-117 0,-64 52,-116 116,-116zm0 362c64,0 116,52 116,117 0,64 -52,116 -116,116 -64,0 -116,-52 -116,-116 0,-65 52,-117 116,-117zm253 -297c31,0 57,26 57,57 0,31 -26,57 -57,57 -32,0 -57,-26 -57,-57 0,-31 25,-57 57,-57zm4 775c32,0 59,26 59,58 0,32 -27,59 -59,59 -32,0 -58,-27 -58,-59 0,-32 26,-58 58,-58zm-1019 -830l0 944c0,57 44,106 101,106l308 0c58,0 102,-49 102,-106l0 -860c0,-56 -44,-105 -102,-105l-308 0c-57,0 -101,49 -101,105l0 54m408 644c10,0 18,8 18,18 0,10 -8,18 -18,18 -10,0 -19,-8 -19,-18 0,-10 9,-18 19,-18zm-302 -3l97 0c28,0 50,22 50,47l0 123c0,25 -22,47 -50,47l-97 0c-27,0 -50,-22 -50,-47l0 -123c0,-25 23,-47 50,-47zm47 -789c64,0 116,52 116,116 0,65 -52,117 -116,117 -64,0 -116,-52 -116,-117 0,-64 52,-116 116,-116zm0 362c64,0 116,52 116,117 0,64 -52,116 -116,116 -64,0 -116,-52 -116,-116 0,-65 52,-117 116,-117zm253 -297c32,0 57,26 57,57 0,31 -25,57 -57,57 -31,0 -57,-26 -57,-57 0,-31 26,-57 57,-57zm5 775c32,0 58,26 58,58 0,32 -26,59 -58,59 -32,0 -58,-27 -58,-59 0,-32 26,-58 58,-58zm-1020 -830l0 944c0,57 44,106 102,106l308 0c57,0 101,-49 101,-106l0 -860c0,-56 -44,-105 -101,-105l-308 0c-58,0 -102,49 -102,105l0 54m408 644c10,0 18,8 18,18 0,10 -8,18 -18,18 -10,0 -18,-8 -18,-18 0,-10 8,-18 18,-18zm-301 -3l96 0c28,0 51,22 51,47l0 123c0,25 -23,47 -51,47l-96 0c-28,0 -50,-22 -50,-47l0 -123c0,-25 22,-47 50,-47zm47 -789c64,0 116,52 116,116 0,65 -52,117 -116,117 -65,0 -117,-52 -117,-117 0,-64 52,-116 117,-116zm0 362c64,0 116,52 116,117 0,64 -52,116 -116,116 -65,0 -117,-52 -117,-116 0,-65 52,-117 117,-117zm253 -297c31,0 57,26 57,57 0,31 -26,57 -57,57 -32,0 -57,-26 -57,-57 0,-31 25,-57 57,-57zm4 775c32,0 58,26 58,58 0,32 -26,59 -58,59 -32,0 -58,-27 -58,-59 0,-32 26,-58 58,-58zm-1020 -830l0 944c0,57 45,106 102,106l308 0c58,0 102,-49 102,-106l0 -860c0,-56 -44,-105 -102,-105l-308 0c-57,0 -102,49 -102,105l0 54m408 644c10,0 18,8 18,18 0,10 -8,18 -18,18 -10,0 -18,-8 -18,-18 0,-10 8,-18 18,-18zm-301 -3l97 0c27,0 50,22 50,47l0 123c0,25 -23,47 -50,47l-97 0c-27,0 -50,-22 -50,-47l0 -123c0,-25 23,-47 50,-47zm47 -789c64,0 116,52 116,116 0,65 -52,117 -116,117 -64,0 -116,-52 -116,-117 0,-64 52,-116 116,-116zm0 362c64,0 116,52 116,117 0,64 -52,116 -116,116 -64,0 -116,-52 -116,-116 0,-65 52,-117 116,-117zm253 -297c32,0 57,26 57,57 0,31 -25,57 -57,57 -31,0 -57,-26 -57,-57 0,-31 26,-57 57,-57zm5 775c32,0 58,26 58,58 0,32 -26,59 -58,59 -32,0 -58,-27 -58,-59 0,-32 26,-58 58,-58z"/>
 </g>
</svg>
