<?xml version="1.0" encoding="UTF-8"?>
<!DOCTYPE svg PUBLIC "-//W3C//DTD SVG 1.1//EN" "http://www.w3.org/Graphics/SVG/1.1/DTD/svg11.dtd">
<!-- Creator: CorelDRAW 2020 (64-Bit) -->
<svg xmlns="http://www.w3.org/2000/svg" xml:space="preserve" width="40mm" height="60mm" version="1.1" style="shape-rendering:geometricPrecision; text-rendering:geometricPrecision; image-rendering:optimizeQuality; fill-rule:evenodd; clip-rule:evenodd"
viewBox="0 0 4000 6000"
 xmlns:xlink="http://www.w3.org/1999/xlink"
 xmlns:xodm="http://www.corel.com/coreldraw/odm/2003">
 <defs>
  <style type="text/css">
   <![CDATA[
    .str1 {stroke:#332C2B;stroke-width:20;stroke-miterlimit:22.9256}
    .str0 {stroke:#E72D28;stroke-width:20;stroke-miterlimit:22.9256}
    .str2 {stroke:#222222;stroke-width:20;stroke-miterlimit:22.9256}
    .fil0 {fill:none}
   ]]>
  </style>
   <clipPath id="id0">
    <rect x="-36397.47" y="-6634.12" width="14026.48" height="16041.9"/>
   </clipPath>
 </defs>
 <g id="图层_x0020_1">
  <metadata id="CorelCorpID_0Corel-Layer"/>
  <g style="clip-path:url(#id0)">
   <image x="-36397.47" y="-6634.12" width="14026.47" height="16041.9" xlink:href="Twist 2 Pro-11i（前膜带壳）_Images\Twist 2 Pro-11i（前膜带壳）_ImgID1.png"/>
  </g>
  <rect class="fil0 str0" x="-30091.49" y="-6451.44" width="7460" height="15660"/>
  <rect class="fil0 str0" x="-29919.84" y="-6303.27" width="7116.7" height="15361.77" rx="700" ry="865.88"/>
  <rect class="fil0 str1" x="-26976.26" y="-5822.82" width="1201.22" height="239.45" rx="331.22" ry="300"/>
  <circle class="fil0 str1" cx="-24733.56" cy="-5697.46" r="197.11"/>
  <circle class="fil0 str1" cx="-23816.78" cy="-5697.46" r="197.11"/>
  <path class="fil0 str2" d="M-2430.5 6167.05l0 -6020.03c0,-379.58 -312.96,-690.16 -695.45,-690.16l-13870.92 0c-382.49,0 -695.44,310.57 -695.44,690.16l0 5636.38c0,379.59 312.95,690.16 695.44,690.16l13870.92 0c382.5,0 695.45,-310.57 695.45,-690.16 0,-379.59 51.53,-1071.98 308.18,-1376.25"/>
  <path class="fil0 str2" d="M-17261.85 3460.26c0,65.85 53.87,119.72 119.72,119.72l0.01 0c65.85,0 119.72,-53.87 119.72,-119.72l0 -961.78c0,-65.85 -53.87,-119.72 -119.72,-119.72l-0.01 0c-65.85,0 -119.72,53.87 -119.72,119.72l0 961.78c0,0 20.83,-297.95 78.38,-360.79"/>
  <path class="fil0 str2" d="M-17333.6 1337.28c0,108.86 88.25,197.11 197.11,197.11 108.86,0 197.11,-88.25 197.11,-197.11 0,-108.86 -88.25,-197.11 -197.11,-197.11 -108.86,0 -197.11,88.25 -197.11,197.11 0,108.86 121.71,142.26 136.26,143.58"/>
  <path class="fil0 str2" d="M-17333.6 420.5c0,108.86 88.25,197.11 197.11,197.11 108.86,0 197.11,-88.25 197.11,-197.11 0,-108.86 -88.25,-197.11 -197.11,-197.11 -108.86,0 -197.11,88.25 -197.11,197.11 0,108.86 134.27,140.92 158.08,140.92"/>
  <g id="_1824163780912">
   <path class="fil0 str2" d="M995.27 5286.91l1859.86 0c116.07,0 211.03,-94.97 211.03,-211.04l0 -4209.17c0,-116.07 -94.96,-211.03 -211.03,-211.03l-1723.46 0c-116.07,0 -211.03,94.96 -211.03,211.03l0 4209.17c0,116.07 94.96,211.04 211.03,211.04 116.07,0 252.56,21.3 300.81,68.76"/>
   <path class="fil0 str2" d="M1844.15 800.51c-19.85,0 -36.09,16.24 -36.09,36.09l0 0.01c0,19.85 16.24,36.09 36.09,36.09l289.96 0c19.85,0 36.09,-16.24 36.09,-36.09l0 -0.01c0,-19.85 -16.24,-36.09 -36.09,-36.09l-289.96 0c0,0 89.83,6.28 108.77,23.63"/>
   <path class="fil0 str2" d="M2484.19 778.88c-32.82,0 -59.43,26.61 -59.43,59.42 0,32.82 26.61,59.43 59.43,59.43 32.81,0 59.42,-26.61 59.42,-59.43 0,-32.81 -26.61,-59.42 -59.42,-59.42 -32.82,0 -42.89,36.69 -43.29,41.08"/>
   <path class="fil0 str2" d="M2760.57 778.88c-32.81,0 -59.42,26.61 -59.42,59.42 0,32.82 26.61,59.43 59.42,59.43 32.82,0 59.43,-26.61 59.43,-59.43 0,-32.81 -26.61,-59.42 -59.43,-59.42 -32.81,0 -42.48,40.48 -42.48,47.66"/>
  </g>
 </g>
</svg>
