<?xml version="1.0" encoding="UTF-8"?>
<!DOCTYPE svg PUBLIC "-//W3C//DTD SVG 1.1//EN" "http://www.w3.org/Graphics/SVG/1.1/DTD/svg11.dtd">
<!-- Creator: CorelDRAW X8 -->
<svg xmlns="http://www.w3.org/2000/svg" xml:space="preserve" width="40mm" height="60mm" version="1.1" style="shape-rendering:geometricPrecision; text-rendering:geometricPrecision; image-rendering:optimizeQuality; fill-rule:evenodd; clip-rule:evenodd"
viewBox="0 0 4000 6000"
 xmlns:xlink="http://www.w3.org/1999/xlink">
 <defs>
  <style type="text/css">
   <![CDATA[
    .str0 {stroke:#222222;stroke-width:20}
    .str1 {stroke:#222222;stroke-width:10}
    .fil0 {fill:none}
   ]]>
  </style>
 </defs>
 <g id="图层_x0020_1">
  <metadata id="CorelCorpID_0Corel-Layer"/>
  <path class="fil0 str0" d="M-862 6671l0 -6492c0,-440 -360,-800 -800,-800l-14566 0c-440,0 -800,360 -800,800l0 5703c0,440 360,800 800,800l14566 0c440,0 800,-360 800,-800 0,-440 192,-819 473,-819"/>
  <rect class="fil0 str0" transform="matrix(2.64845E-14 -1 0.990865 2.62426E-14 -16635.4 6275.94)" width="2531" height="2637" rx="600" ry="600"/>
  <rect class="fil0 str0" transform="matrix(2.84319E-14 -1.07353 0.998048 2.64328E-14 -16445.9 6134.64)" width="2099" height="2249" rx="421" ry="421"/>
  <path class="fil0 str0" d="M-14560 5910c-130,0 -427,-58 -427,-247 0,-188 153,-341 341,-341 189,0 341,153 341,341 0,189 -152,341 -341,341 -188,0 -341,-152 -341,-341"/>
  <path class="fil0 str0" d="M-15917 5883c-88,0 -415,-31 -415,-220 0,-188 153,-341 341,-341 189,0 341,153 341,341 0,189 -152,341 -341,341 -188,0 -341,-152 -341,-341"/>
  <path class="fil0 str0" d="M-15935 4469c-49,0 -276,-3 -276,-124 0,-122 99,-220 220,-220 122,0 220,98 220,220 0,121 -98,220 -220,220 -121,0 -220,-99 -220,-220"/>
  <path class="fil0 str0" d="M-15399 4240c0,144 -85,243 -164,243 -79,0 -143,-64 -143,-143l0 0c0,-79 64,-144 143,-144l971 0c79,0 144,65 144,144l0 0c0,79 -65,143 -144,143l-971 0"/>
  <g id="_2099571183728">
   <path class="fil0 str1" d="M972 5216l1833 0c125,0 226,-101 226,-225l0 -4115c0,-124 -101,-226 -226,-226l-1610 0c-125,0 -226,102 -226,226l0 4115c0,124 101,225 226,225 124,0 231,55 231,134"/>
   <rect class="fil0 str1" x="1083" y="761" width="715" height="738" rx="169" ry="168"/>
   <rect class="fil0 str1" x="1123" y="814" width="637" height="634" rx="128" ry="119"/>
   <path class="fil0 str1" d="M1187 1347c0,-37 16,-120 69,-120 54,0 97,43 97,96 0,53 -43,96 -97,96 -53,0 -96,-43 -96,-96 0,-53 43,-96 96,-96"/>
   <path class="fil0 str1" d="M1194 964c0,-25 9,-117 62,-117 54,0 97,43 97,96 0,53 -43,96 -97,96 -53,0 -96,-43 -96,-96 0,-53 43,-96 96,-96"/>
   <path class="fil0 str1" d="M1594 959c0,-14 0,-78 35,-78 34,0 62,28 62,62 0,34 -28,62 -62,62 -35,0 -62,-28 -62,-62 0,-34 27,-62 62,-62"/>
   <path class="fil0 str1" d="M1658 1110c-40,0 -68,-24 -68,-46 0,-22 18,-41 40,-41l0 0c22,0 41,19 41,41l0 274c0,22 -19,41 -41,41l0 0c-22,0 -40,-19 -40,-41l0 -274"/>
  </g>
 </g>
</svg>
