<?xml version="1.0" encoding="UTF-8"?>
<!DOCTYPE svg PUBLIC "-//W3C//DTD SVG 1.1//EN" "http://www.w3.org/Graphics/SVG/1.1/DTD/svg11.dtd">
<!-- Creator: CorelDRAW -->
<svg xmlns="http://www.w3.org/2000/svg" xml:space="preserve" width="40mm" height="60mm" style="shape-rendering:geometricPrecision; text-rendering:geometricPrecision; image-rendering:optimizeQuality; fill-rule:evenodd; clip-rule:evenodd"
viewBox="0 0 40 60"
 xmlns:xlink="http://www.w3.org/1999/xlink">
 <defs>
  <style type="text/css">
   <![CDATA[
    .str0 {stroke:#1F1A17;stroke-width:0.194}
    .fil0 {fill:none;fill-rule:nonzero}
   ]]>
  </style>
 </defs>
 <g id="图层_x0020_5">
  <metadata id="CorelCorpID_0Corel-Layer"/>
  <path class="fil0 str0" d="M15.3073 53.0853l0 0.0848m1.683 -46.8555l0.8479 -0.0316 1.4409 0.0543c0.0916,0.426 0.1163,1.2535 0.6889,1.2535 0.1856,0 0.3582,-0.0918 0.4708,-0.2508 0.0908,-0.1283 0.1017,-0.1874 0.1017,-0.5803 0,-0.075 0.0052,-0.1849 0.0035,-0.3699 1.0665,-0.0316 2.2007,-0.0572 3.2188,-0.1069l0.1955 0.2004c0.0779,0.0317 0.2762,0.0395 0.8951,0.0366l2.0361 -0.0148c0.1594,-0.0047 0.1901,-0.0725 0.23,-0.2033 0.0103,-0.1135 0.416,-0.1105 0.4884,-0.1105 1.6119,-0.002 2.4914,1.1745 2.6007,2.6598 0.0632,0.8577 0.0761,2.4269 0.0582,7.487m-0.1164 34.6361c-0.2171,1.2346 -1.213,2.0805 -2.4536,2.0844 -5.9603,0.0188 -9.0048,0.0273 -15.1316,0.0143 -1.4072,-0.0161 -2.4031,-0.8619 -2.6493,-2.0656l-0.1454 -34.6051m0 0c-0.0179,-5.0601 -0.005,-6.6294 0.0722,-7.6404 0.014,-0.5098 0.2202,-1.1068 0.4748,-1.4849 0.5054,-0.7531 1.1913,-1.0807 2.2622,-1.0807 0.0315,0 0.0641,0 0.1113,0.0061l0.1749 0.2534 1.1537 0.0276c0.0744,-0.0018 0.1865,-0.1318 0.2734,-0.2229 0.1533,-0.0523 0.2626,-0.082 0.6405,-0.0781m0.5051 2.426l0 0.0128m-0.5051 -2.4388l1.3522 -0.0064c0.1934,-0.0122 0.2427,-0.0053 0.2832,0.0233 0.0069,0.0048 0.0138,0.0108 0.0197,0.0187 0.081,0.0958 0.0919,0.0997 0.2734,0.0997 0.0356,0 0.079,-0.001 0.1283,-0.003m13.1601 44.6596l0.1164 -34.6361"/>
 </g>
</svg>
