<?xml version="1.0" encoding="UTF-8"?>
<!DOCTYPE svg PUBLIC "-//W3C//DTD SVG 1.1//EN" "http://www.w3.org/Graphics/SVG/1.1/DTD/svg11.dtd">
<!-- Creator: CorelDRAW X8 -->
<svg xmlns="http://www.w3.org/2000/svg" xml:space="preserve" width="40mm" height="60mm" version="1.1" style="shape-rendering:geometricPrecision; text-rendering:geometricPrecision; image-rendering:optimizeQuality; fill-rule:evenodd; clip-rule:evenodd"
viewBox="0 0 4000 6000"
 xmlns:xlink="http://www.w3.org/1999/xlink">
 <defs>
  <style type="text/css">
   <![CDATA[
    .str0 {stroke:black;stroke-width:7.62}
    .fil0 {fill:none}
   ]]>
  </style>
 </defs>
 <g id="图层_x0020_1">
  <metadata id="CorelCorpID_0Corel-Layer"/>
  <path class="fil0 str0" d="M539 5350c-12,-10 -29,-16 -44,-16 -82,0 -149,-68 -149,-150l0 -4385c0,-82 67,-149 149,-149l3010 0c82,0 149,67 149,149l0 4385c0,82 -67,150 -149,150l-3074 0m-38 -4446c-7,0 -14,7 -15,20 0,49 39,88 88,88 48,0 87,-39 87,-88 0,-48 -39,-87 -87,-87 -49,0 -88,39 -88,87"/>
 </g>
</svg>
