<?xml version="1.0" encoding="UTF-8"?>
<!DOCTYPE svg PUBLIC "-//W3C//DTD SVG 1.1//EN" "http://www.w3.org/Graphics/SVG/1.1/DTD/svg11.dtd">
<!-- Creator: CorelDRAW X8 -->
<svg xmlns="http://www.w3.org/2000/svg" xml:space="preserve" width="40mm" height="60mm" version="1.1" style="shape-rendering:geometricPrecision; text-rendering:geometricPrecision; image-rendering:optimizeQuality; fill-rule:evenodd; clip-rule:evenodd"
viewBox="0 0 4000 6000"
 xmlns:xlink="http://www.w3.org/1999/xlink">
 <defs>
  <style type="text/css">
   <![CDATA[
    .fil0 {fill:black;fill-rule:nonzero}
   ]]>
  </style>
 </defs>
 <g id="图层_x0020_1">
  <metadata id="CorelCorpID_0Corel-Layer"/>
  <g>
   <path class="fil0" d="M201 659c-1,-1 -1,-3 1,-4 1,-1 3,-1 4,0l-5 4zm124 35l0 6 -1 0 -5 0 -6 0 -5 0 -5 -1 -5 0 -5 -1 -5 0 -5 -1 -5 0 -4 -1 -5 -1 -4 -1 -4 -1 -4 -1 -4 -1 -4 -1 -4 -2 -4 -1 -3 -2 -4 -1 -3 -2 -4 -1 -3 -2 -3 -2 -3 -2 -2 -2 -3 -2 -3 -2 -2 -3 -2 -2 -3 -2 -2 -3 5 -4 2 3 2 2 2 2 2 2 3 2 2 2 3 2 3 2 2 2 3 1 3 2 4 1 3 2 3 1 4 2 3 1 4 1 4 1 4 1 4 1 4 1 5 1 4 1 5 0 5 1 4 0 5 1 5 0 5 1 6 0 5 0 6 0 0 0zm0 0c1,0 3,2 3,3 0,2 -2,3 -4,3l1 -6zm3371 17l0 6 0 0 -84 0 -93 -1 -101 0 -109 -1 -116 0 -121 -1 -127 -1 -131 0 -135 -1 -138 -1 -141 0 -141 -1 -142 -1 -142 -1 -141 0 -140 -1 -137 -1 -133 0 -130 -1 -125 -1 -119 0 -113 -1 -106 0 -98 -1 -90 0 -80 -1 -69 0 -59 0 -47 0 -35 -1 -21 0 -7 0 0 -6 7 0 21 0 35 0 47 1 59 0 69 0 80 1 90 0 98 1 106 0 113 1 119 0 125 1 130 1 133 0 137 1 140 1 141 0 142 1 142 1 141 1 141 0 138 1 135 1 131 0 127 1 122 0 115 1 109 1 101 0 93 1 84 0 0 0zm0 0c2,0 3,1 3,3 0,2 -1,3 -3,3l0 -6zm84 73l-6 0 0 0 0 -3 0 -4 -1 -3 -1 -4 -1 -3 -1 -3 -1 -3 -2 -3 -2 -3 -2 -3 -2 -3 -2 -3 -2 -2 -3 -3 -2 -2 -3 -3 -3 -2 -3 -2 -3 -2 -3 -2 -3 -1 -3 -2 -3 -1 -4 -2 -3 -1 -4 -1 -3 -1 -4 -1 -3 0 -4 -1 -3 0 -4 0 0 -6 4 0 4 0 4 1 3 0 4 1 4 1 4 1 3 2 4 1 3 2 4 1 3 2 4 2 3 2 3 2 3 3 3 2 3 3 2 3 3 2 2 3 2 3 2 4 2 3 2 3 2 4 1 3 1 4 1 3 1 4 0 4 0 4 0 0zm0 0c0,1 -1,3 -3,3 -1,0 -3,-1 -3,-3l6 0zm1 4492l-6 0 0 0 1 -108 1 -115 1 -121 1 -125 2 -131 1 -135 1 -140 1 -142 2 -147 1 -149 1 -151 1 -154 1 -155 1 -156 1 -157 0 -158 1 -158 0 -157 0 -156 0 -156 0 -153 0 -152 -1 -149 -1 -146 -1 -144 -1 -139 -2 -136 -2 -131 -2 -126 -3 -121 -2 -115 -4 -109 6 0 4 109 2 115 3 121 2 126 2 131 2 136 1 139 1 144 1 146 1 149 0 152 0 153 0 156 0 156 0 157 -1 158 0 158 -1 157 -1 156 -1 155 -1 154 -1 151 -1 149 -1 147 -2 143 -1 139 -1 135 -2 131 -1 125 -1 121 -1 115 -1 108 0 0zm0 0c0,2 -2,3 -3,3 -2,0 -3,-1 -3,-3l6 0zm-72 74l0 -6 0 0 3 0 4 0 3 -1 3 0 3 -1 3 -1 3 -1 3 -1 3 -2 3 -1 3 -2 3 -2 2 -2 3 -2 2 -2 2 -2 2 -2 3 -3 1 -3 2 -2 2 -3 2 -3 1 -3 1 -3 2 -3 1 -3 1 -3 0 -3 1 -4 0 -3 1 -3 0 -4 6 0 0 4 -1 4 0 3 -1 4 -1 3 -1 4 -1 3 -1 4 -1 3 -2 3 -2 3 -2 3 -2 3 -2 3 -2 3 -2 2 -3 3 -2 2 -3 2 -3 2 -3 2 -3 2 -3 2 -3 1 -3 2 -4 1 -3 1 -4 1 -3 0 -4 1 -3 0 -4 0 0 0zm0 0c-2,0 -3,-1 -3,-3 0,-1 1,-3 3,-3l0 6zm-3364 3l0 -6 0 0 81 0 86 0 90 0 94 0 97 0 101 0 104 0 107 0 109 0 111 0 114 0 114 0 116 0 117 -1 118 0 118 0 118 0 117 0 117 0 117 0 115 0 113 0 112 -1 110 0 107 0 105 0 102 0 99 0 94 0 92 -1 86 0 83 0 0 6 -83 0 -86 1 -92 0 -94 0 -99 0 -102 0 -105 0 -107 0 -110 0 -112 1 -113 0 -115 0 -117 0 -117 0 -117 0 -118 0 -118 0 -118 0 -117 1 -116 0 -114 0 -114 0 -111 0 -109 0 -107 0 -104 0 -101 0 -97 0 -94 0 -90 0 -86 0 -81 0 0 0zm0 0c-2,0 -3,-1 -3,-3 0,-2 1,-3 3,-3l0 6zm-105 -98l6 0 0 0 0 4 0 4 1 4 0 4 1 4 1 4 1 4 1 4 2 4 2 4 2 4 2 4 2 3 2 4 3 3 3 4 3 3 3 3 4 3 3 3 4 3 5 2 4 2 4 2 5 2 5 2 6 1 5 2 6 1 6 0 6 1 7 0 0 6 -7 0 -7 -1 -6 0 -6 -1 -6 -2 -5 -1 -6 -2 -5 -2 -5 -2 -4 -3 -5 -2 -4 -3 -4 -3 -4 -3 -3 -4 -4 -3 -3 -4 -3 -4 -2 -3 -3 -4 -2 -4 -2 -4 -2 -5 -1 -4 -2 -4 -1 -4 -1 -5 -1 -4 0 -4 -1 -5 0 -4 0 -4 0 0zm0 0c0,-2 1,-3 3,-3 1,0 3,1 3,3l-6 0zm-1 -4475l6 0 0 0 0 9 0 29 0 46 0 62 0 78 0 93 0 106 0 119 0 130 0 140 0 150 0 159 0 165 0 173 0 177 0 182 0 185 0 187 0 189 0 188 0 188 0 186 0 183 0 180 1 174 0 168 0 162 0 153 0 145 0 134 0 124 0 111 -6 0 0 -111 0 -124 0 -134 0 -145 0 -153 0 -162 0 -168 -1 -174 0 -180 0 -183 0 -186 0 -188 0 -188 0 -189 0 -187 0 -185 0 -182 0 -177 0 -173 0 -165 0 -159 0 -150 0 -140 0 -130 0 -119 0 -106 0 -93 0 -78 0 -62 0 -46 0 -29 0 -9 0 0zm0 0c0,-2 1,-3 3,-3 1,0 3,1 3,3l-6 0zm85 -86l1 6 0 0 -5 0 -4 1 -4 0 -4 1 -3 1 -4 1 -4 1 -4 1 -3 2 -4 2 -3 2 -3 2 -3 2 -3 2 -3 3 -3 2 -3 3 -2 3 -2 3 -3 3 -2 3 -2 4 -1 3 -2 4 -2 3 -1 4 -1 4 -1 4 0 4 -1 4 0 4 0 4 -6 0 0 -5 0 -4 1 -4 0 -5 1 -4 1 -4 2 -4 1 -4 2 -3 2 -4 2 -4 2 -3 3 -4 2 -3 3 -3 3 -3 3 -3 3 -2 3 -3 4 -2 3 -3 4 -2 3 -2 4 -1 4 -2 4 -1 4 -1 4 -1 4 -1 5 0 4 -1 5 0 -1 0zm1 0c1,0 3,2 3,3 0,2 -2,3 -3,3l0 -6zm153 -46l5 4 -2 2 -2 3 -2 2 -2 2 -3 3 -3 2 -3 2 -3 2 -3 2 -4 2 -4 2 -4 2 -4 2 -4 2 -5 1 -5 2 -5 1 -5 2 -5 1 -6 2 -6 1 -6 1 -6 1 -7 1 -6 1 -7 1 -7 1 -8 0 -7 1 -8 0 -8 1 -8 0 -1 -6 9 0 8 -1 7 0 8 -1 7 0 7 -1 7 -1 6 -1 7 -1 6 -1 6 -1 6 -1 5 -2 5 -1 6 -1 4 -2 5 -1 5 -2 4 -2 4 -1 4 -2 3 -2 4 -2 3 -2 3 -2 3 -2 2 -2 3 -2 2 -2 2 -2 2 -3 1 -2zm0 0c1,-1 3,-1 5,0 1,0 1,2 0,4l-5 -4z"/>
  </g>
 </g>
</svg>
