<?xml version="1.0" encoding="UTF-8"?>
<!DOCTYPE svg PUBLIC "-//W3C//DTD SVG 1.1//EN" "http://www.w3.org/Graphics/SVG/1.1/DTD/svg11.dtd">
<!-- Creator: CorelDRAW X8 -->
<svg xmlns="http://www.w3.org/2000/svg" xml:space="preserve" width="40mm" height="60mm" version="1.1" style="shape-rendering:geometricPrecision; text-rendering:geometricPrecision; image-rendering:optimizeQuality; fill-rule:evenodd; clip-rule:evenodd"
viewBox="0 0 4000 6000"
 xmlns:xlink="http://www.w3.org/1999/xlink">
 <defs>
  <style type="text/css">
   <![CDATA[
    .str0 {stroke:black;stroke-width:7.62}
    .fil0 {fill:none;fill-rule:nonzero}
   ]]>
  </style>
 </defs>
 <g id="图层_x0020_1">
  <metadata id="CorelCorpID_0Corel-Layer"/>
  <g>
   <path class="fil0 str0" d="M3189 948l0 0c20,0 37,17 37,38l0 485c0,21 -17,38 -37,38l0 0c-21,0 -38,-17 -38,-38l0 -485c0,-21 17,-38 38,-38l0 0zm-2388 398l0 0c15,0 27,12 27,27l0 628c0,15 -12,28 -27,28l0 0c-15,0 -27,-13 -27,-28l0 -628c0,-15 12,-27 27,-27l0 0zm0 973l0 0c15,0 28,12 28,27l0 264c0,15 -13,27 -28,27l0 0c-15,0 -27,-12 -27,-27l0 -264c0,-15 12,-27 27,-27l0 0zm326 -1334c0,-62 51,-113 114,-113 63,0 114,51 114,113 0,63 -51,114 -114,114 -63,0 -114,-51 -114,-114l0 0zm0 295c0,-63 51,-114 114,-114 63,0 114,51 114,114 0,62 -51,113 -114,113 -63,0 -114,-51 -114,-113l0 0zm0 294c0,-63 51,-114 114,-114 63,0 114,51 114,114 0,62 -51,113 -114,113 -63,0 -114,-51 -114,-113l0 0zm47 269c0,-34 27,-61 61,-61 33,0 60,27 60,61 0,33 -27,60 -60,60 -34,0 -61,-27 -61,-60l0 0zm67 -1018l0 0c86,0 155,70 155,156l0 607c0,86 -69,155 -155,155l0 0c-86,0 -155,-69 -155,-155l0 -607c0,-86 69,-156 155,-156l0 0zm0 33l0 0c74,0 133,60 133,133l0 577c0,74 -59,133 -133,133l0 0c-74,0 -134,-59 -134,-133l0 -577c0,-73 60,-133 134,-133l0 0zm-69 -208l1656 0c157,0 285,127 287,283l0 1 0 3 0 5 141 0c14,0 26,12 26,26l0 4064c0,14 -12,26 -26,26l-141 0 0 0c0,8 0,22 -1,30l0 5c-11,115 -101,232 -239,253 -16,3 -31,4 -47,4l-1656 0c-72,0 -138,-27 -189,-71 -49,-41 -91,-111 -97,-199 -1,-10 -1,-13 -1,-22l0 0c-50,0 -91,0 -141,0 -14,0 -26,-12 -26,-26l0 -4065c0,-14 12,-25 26,-25l141 0 0 -8c0,-21 3,-41 7,-61l1 -2c0,-1 0,-2 1,-3 11,-46 33,-88 64,-122 42,-48 100,-83 170,-93 14,-2 29,-3 44,-3l0 0z"/>
  </g>
 </g>
</svg>
