<?xml version="1.0" encoding="UTF-8"?>
<!DOCTYPE svg PUBLIC "-//W3C//DTD SVG 1.1//EN" "http://www.w3.org/Graphics/SVG/1.1/DTD/svg11.dtd">
<!-- Creator: CorelDRAW X8 -->
<svg xmlns="http://www.w3.org/2000/svg" xml:space="preserve" width="40mm" height="60mm" version="1.1" style="shape-rendering:geometricPrecision; text-rendering:geometricPrecision; image-rendering:optimizeQuality; fill-rule:evenodd; clip-rule:evenodd"
viewBox="0 0 4000 6000"
 xmlns:xlink="http://www.w3.org/1999/xlink">
 <defs>
  <style type="text/css">
   <![CDATA[
    .str0 {stroke:black;stroke-width:7.62}
    .fil0 {fill:none}
   ]]>
  </style>
 </defs>
 <g id="图层_x0020_1">
  <metadata id="CorelCorpID_0Corel-Layer"/>
  <path class="fil0 str0" d="M792 1486l-530 0c-6,0 -11,5 -11,11l0 75c0,10 1,18 11,23l83 51c3,2 5,4 5,11l0 154c0,9 -7,21 -15,25l-78 48c-5,2 -6,4 -6,9l0 107c0,9 1,12 6,15l88 51c3,2 5,5 5,12l-2 157c0,8 -7,20 -15,25l-77 47c-4,2 -5,4 -5,8l0 101c0,14 1,19 11,25l80 48c4,2 6,5 6,12l0 154c0,9 -7,21 -15,25l-73 44c-9,5 -10,9 -10,21l0 92c0,12 4,22 12,27l84 49c3,2 5,5 5,11l0 153c0,9 -7,21 -14,25l-76 46c-7,4 -10,11 -10,20l0 85c0,12 2,24 13,31l82 49c3,2 5,5 5,11l0 156c0,9 -7,21 -14,25l-77 46c-7,4 -9,8 -9,17l0 98c0,10 2,16 8,19l87 51c3,2 5,5 5,12l0 153c0,9 -7,21 -14,25l-79 48c-5,2 -7,7 -7,14l0 100c0,10 1,14 9,19l86 52c3,2 5,4 5,11l0 153c0,9 -7,21 -14,25l-80 48c-4,2 -6,6 -6,12l0 75c0,6 5,11 11,11l532 0c82,0 150,-63 159,-142l1 0c0,-80 65,-144 145,-144l0 0c79,0 145,64 145,144l1 0c9,79 77,142 159,142l1128 0c82,0 150,-63 159,-142l0 0c1,-81 67,-147 147,-147l0 0c81,0 147,66 148,147l1 0c8,79 76,140 158,140l465 0c29,0 40,-12 40,-34l0 -76c0,-7 5,-14 8,-16l81 -50c8,-5 11,-10 11,-21l0 -107c0,-11 -6,-18 -13,-22l-73 -45c-7,-5 -15,-17 -15,-25l0 -142c0,-7 2,-10 6,-12l82 -51c11,-6 13,-11 13,-19l0 -102c0,-12 -4,-21 -12,-26l-74 -45c-7,-4 -15,-16 -15,-25l0 -144c0,-7 2,-9 6,-11l87 -53c7,-4 8,-7 8,-17l0 -105c0,-12 -5,-18 -10,-22l-78 -47c-7,-4 -15,-16 -15,-25l0 -140c0,-6 2,-9 6,-11l89 -57c5,-3 8,-9 8,-13l0 -105c0,-9 -6,-20 -14,-25l-76 -45c-8,-5 -15,-17 -15,-26l0 -142c0,-6 2,-9 6,-11l84 -52c11,-7 12,-10 12,-22l0 -103c0,-9 -4,-14 -9,-18l-76 -45c-7,-4 -15,-16 -15,-25l0 -146c0,-7 2,-10 6,-12l88 -53c4,-3 6,-8 6,-14l0 -108c0,-9 -6,-18 -12,-21l-73 -46c-7,-4 -15,-16 -15,-25l0 -142c0,-7 2,-9 6,-12l80 -47c12,-7 14,-13 14,-25l0 -101c0,-11 -3,-15 -11,-20l-76 -45c-8,-5 -15,-17 -15,-26l0 -70c0,-14 -7,-23 -24,-23l-103 0c-12,0 -24,19 -13,30 29,29 46,69 46,112l0 347c0,87 -71,159 -159,159l-247 0c-88,0 -160,-72 -160,-159l0 -255c0,-15 -13,-22 -26,-22l-24 0c-6,0 -13,4 -19,10 -26,26 -56,45 -95,45l0 0c-105,0 -131,-87 -132,-107l0 -8c0,-88 -69,-160 -157,-160l-373 0c-10,0 -19,9 -19,29l0 71c0,22 -18,40 -40,40l0 0c-12,0 -22,-7 -31,-15 -4,-4 -8,-5 -16,-5l-179 0c-17,0 -31,-14 -31,-32l0 -73c0,-10 -11,-15 -20,-15l-419 0c-88,0 -160,70 -162,159l-2 9c-11,69 -69,122 -141,122l0 0c-67,0 -147,-63 -147,-130 0,-88 -72,-160 -160,-160zm328 416c10,3 18,7 18,25l0 14c0,21 -17,38 -38,38l0 0c-20,0 -37,-17 -37,-38l0 -83c0,-20 17,-37 37,-37l0 0c21,0 38,17 38,37l0 69m-15 270c11,3 20,8 20,28l0 17c0,23 -19,42 -43,42l0 0c-23,0 -42,-19 -42,-42l0 -173c0,-23 19,-42 42,-42l0 0c24,0 43,19 43,42l0 156m-20 271c11,3 20,7 20,28l0 17c0,23 -19,42 -43,42l0 0c-23,0 -42,-19 -42,-42l0 -183c0,-23 19,-42 42,-42l0 0c24,0 43,19 43,42l0 166m1717 -111c13,4 23,8 23,31l0 19c0,26 -22,48 -48,48l0 0c-26,0 -48,-22 -48,-48l0 -307c0,-26 21,-48 48,-48l0 0c26,0 48,22 48,48l0 288m-17 1439c14,4 24,9 24,33l0 21c0,28 -23,51 -51,51l0 0c-28,0 -51,-23 -51,-51l0 -309c0,-28 23,-51 51,-51l0 0c28,0 51,23 51,51l0 288"/>
 </g>
</svg>
