<?xml version="1.0" encoding="UTF-8"?>
<!DOCTYPE svg PUBLIC "-//W3C//DTD SVG 1.1//EN" "http://www.w3.org/Graphics/SVG/1.1/DTD/svg11.dtd">
<!-- Creator: CorelDRAW X8 -->
<svg xmlns="http://www.w3.org/2000/svg" xml:space="preserve" width="40mm" height="60mm" version="1.1" style="shape-rendering:geometricPrecision; text-rendering:geometricPrecision; image-rendering:optimizeQuality; fill-rule:evenodd; clip-rule:evenodd"
viewBox="0 0 4000 6000"
 xmlns:xlink="http://www.w3.org/1999/xlink">
 <defs>
  <style type="text/css">
   <![CDATA[
    .str0 {stroke:#222222;stroke-width:20}
    .fil0 {fill:none}
   ]]>
  </style>
 </defs>
 <g id="图层_x0020_1">
  <metadata id="CorelCorpID_0Corel-Layer"/>
  <path class="fil0 str0" d="M3290 5310l0 -4570c0,-13 -11,-24 -25,-25l-2329 -65c-145,-4 -264,119 -264,263l0 4174c0,144 119,268 264,263l2329 -90c14,-1 25,-12 25,-26 0,-13 11,-80 38,-80"/>
  <path class="fil0 str0" d="M-6036 13104l0 -18227c0,-55 -45,-99 -100,-100l-9292 -260c-577,-17 -1050,472 -1050,1050l0 16645c0,578 473,1073 1050,1050l9292 -360c55,-2 100,-45 100,-100 0,-54 41,-319 149,-319"/>
 </g>
</svg>
