<?xml version="1.0" encoding="UTF-8"?>
<!DOCTYPE svg PUBLIC "-//W3C//DTD SVG 1.1//EN" "http://www.w3.org/Graphics/SVG/1.1/DTD/svg11.dtd">
<!-- Creator: CorelDRAW 2020 (64-Bit) -->
<svg xmlns="http://www.w3.org/2000/svg" xml:space="preserve" width="40mm" height="60mm" version="1.1" style="shape-rendering:geometricPrecision; text-rendering:geometricPrecision; image-rendering:optimizeQuality; fill-rule:evenodd; clip-rule:evenodd"
viewBox="0 0 4000 6000"
 xmlns:xlink="http://www.w3.org/1999/xlink"
 xmlns:xodm="http://www.corel.com/coreldraw/odm/2003">
 <defs>
  <style type="text/css">
   <![CDATA[
    .str0 {stroke:#332C2B;stroke-width:20;stroke-miterlimit:22.9256}
    .fil0 {fill:none}
   ]]>
  </style>
 </defs>
 <g id="图层_x0020_1">
  <metadata id="CorelCorpID_0Corel-Layer"/>
  <path class="fil0 str0" d="M536.4 5329.99l2801.12 0c88.27,0 160.49,-72.22 160.49,-160.49l0 -4353.34c0,-88.27 -72.22,-160.49 -160.49,-160.49l-2688.24 0c-88.27,0 -160.49,72.22 -160.49,160.49l0 1897.81c0,9.95 8.11,18.06 18.06,18.06l27.6 0c16.55,0 30.09,13.54 30.09,30.09l0 461.42c0,16.55 -13.54,30.09 -30.09,30.09l-27.6 0c-9.95,0 -18.06,8.11 -18.06,18.05l0 1897.82c0,88.27 72.22,160.49 160.49,160.49l39.06 0c63.66,0 90.42,12.21 100.18,25.68"/>
 </g>
</svg>
