<?xml version="1.0" encoding="UTF-8"?>
<!DOCTYPE svg PUBLIC "-//W3C//DTD SVG 1.1//EN" "http://www.w3.org/Graphics/SVG/1.1/DTD/svg11.dtd">
<!-- Creator: CorelDRAW 2020 (64-Bit) -->
<svg xmlns="http://www.w3.org/2000/svg" xml:space="preserve" width="40mm" height="60mm" version="1.1" style="shape-rendering:geometricPrecision; text-rendering:geometricPrecision; image-rendering:optimizeQuality; fill-rule:evenodd; clip-rule:evenodd"
viewBox="0 0 4000 6000"
 xmlns:xlink="http://www.w3.org/1999/xlink"
 xmlns:xodm="http://www.corel.com/coreldraw/odm/2003">
 <defs>
  <style type="text/css">
   <![CDATA[
    .str1 {stroke:#332C2B;stroke-width:20;stroke-miterlimit:22.9256}
    .str0 {stroke:#E62129;stroke-width:20;stroke-miterlimit:22.9256}
    .fil0 {fill:none}
   ]]>
  </style>
   <clipPath id="id0">
    <rect x="-41631.74" y="-3765.81" width="15081.59" height="18279.69"/>
   </clipPath>
 </defs>
 <g id="图层_x0020_1">
  <metadata id="CorelCorpID_0Corel-Layer"/>
  <g style="clip-path:url(#id0)">
   <image x="-41631.74" y="-3765.81" width="15081.59" height="18279.69" xlink:href="Vision 2 Plus -11i（前膜全屏）_Images\Vision 2 Plus -11i（前膜全屏）_ImgID1.png"/>
  </g>
  <rect class="fil0 str0" x="-34769.16" y="-2976.28" width="7780" height="17200"/>
  <path class="fil0 str0" d="M-33693.12 -2740.8l1535.26 0c61.6,0 115.38,63.21 152.16,63.21l591.07 0c115.34,0 108.55,110.56 108.55,171.55 0,237.32 192.39,429.71 429.71,429.71 237.32,0 429.71,-192.39 429.71,-429.71 0,-60.99 -15.18,-171.55 106.77,-171.55l593.73 0c36.78,0 89.24,-63.21 158.12,-63.21l1522.84 0c467.5,0 850,382.51 850,850l0 15039.15c0,467.5 -382.5,850 -850,850l-5627.92 0c-467.5,0 -850,-382.5 -850,-850l0 -15039.15c0,-467.5 382.5,-850 850,-850z"/>
  <path class="fil0 str1" d="M-3655.37 6045.63l0 -6188.84c0,-467.49 -382.51,-850 -850,-850l-15039.15 0c-467.49,0 -850,382.5 -850,850l0 1522.84c0,68.88 63.21,121.34 63.21,158.12l0 593.73c0,121.95 110.56,106.77 171.55,106.77 237.32,0 429.71,192.39 429.71,429.71 0,237.32 -192.39,429.71 -429.71,429.71 -60.99,0 -171.55,-6.79 -171.55,108.55l0 591.07c0,36.78 -63.21,90.56 -63.21,152.16l0 1535.26c0,467.5 382.5,850 850,850l15039.15 0c467.5,0 850,-382.5 850,-850 0,-467.5 58.23,-772.74 137.61,-924.88"/>
  <path class="fil0 str1" d="M1053 5312.21l1723.53 0c130.19,0 236.72,-106.53 236.72,-236.72l0 -4188.24c0,-130.19 -106.53,-236.72 -236.72,-236.72l-424.1 0c-19.18,0 -33.79,17.6 -44.03,17.6l-165.35 0c-33.96,0 -29.73,30.79 -29.73,47.78 0,66.09 -53.58,119.67 -119.67,119.67 -66.09,0 -119.67,-53.58 -119.67,-119.67 0,-16.99 1.89,-47.78 -30.23,-47.78l-164.61 0c-10.24,0 -25.22,-17.6 -42.37,-17.6l-427.56 0c-130.19,0 -236.72,106.52 -236.72,236.72l0 4188.24c0,130.19 106.53,236.72 236.72,236.72 130.2,0 215.2,16.21 257.57,38.32"/>
 </g>
</svg>
