<?xml version="1.0" encoding="UTF-8"?>
<!DOCTYPE svg PUBLIC "-//W3C//DTD SVG 1.1//EN" "http://www.w3.org/Graphics/SVG/1.1/DTD/svg11.dtd">
<!-- Creator: CorelDRAW X8 -->
<svg xmlns="http://www.w3.org/2000/svg" xml:space="preserve" width="40mm" height="60mm" version="1.1" style="shape-rendering:geometricPrecision; text-rendering:geometricPrecision; image-rendering:optimizeQuality; fill-rule:evenodd; clip-rule:evenodd"
viewBox="0 0 4000 6000"
 xmlns:xlink="http://www.w3.org/1999/xlink">
 <defs>
  <style type="text/css">
   <![CDATA[
    .str0 {stroke:black;stroke-width:7.62}
    .fil0 {fill:none}
   ]]>
  </style>
 </defs>
 <g id="图层_x0020_1">
  <metadata id="CorelCorpID_0Corel-Layer"/>
  <path class="fil0 str0" d="M980 5350l1871 0c133,0 241,-108 241,-241l0 -4218c0,-133 -108,-241 -241,-241l-1702 0c-133,0 -241,108 -241,241l0 4218c0,133 108,241 241,241l229 0m-61 -4556l422 0c99,0 181,81 181,180l0 904c0,100 -82,181 -181,181l-422 0c-99,0 -181,-81 -181,-181l0 -904c0,-99 82,-180 181,-180zm35 38l343 0c99,0 180,82 180,181l0 822c0,5 -4,9 -9,9l-686 0c-4,0 -9,-4 -9,-9l0 -822c0,-99 82,-181 181,-181zm-181 1027l705 0c1,97 -75,170 -166,170l-366 0c-78,0 -170,-95 -173,-170zm225 -957c-1,-12 -12,-23 -34,-25 -79,0 -143,64 -143,143 0,79 64,143 143,143 79,0 143,-64 143,-143 0,-79 -64,-143 -143,-143m302 439c-19,5 -33,12 -33,44l0 27c0,37 31,68 68,68l0 0c37,0 68,-31 68,-68l0 -368c0,-37 -31,-67 -68,-67l0 0c-37,0 -68,30 -68,67l0 341m-241 -131c-1,-12 -12,-23 -34,-25 -79,0 -143,64 -143,143 0,79 64,143 143,143 79,0 143,-64 143,-143 0,-79 -64,-143 -143,-143m34 350c-1,-12 -12,-23 -34,-25 -79,0 -143,64 -143,143 0,79 64,143 143,143 79,0 143,-64 143,-143 0,-79 -64,-143 -143,-143"/>
 </g>
</svg>
