<?xml version="1.0" encoding="UTF-8"?>
<!DOCTYPE svg PUBLIC "-//W3C//DTD SVG 1.1//EN" "http://www.w3.org/Graphics/SVG/1.1/DTD/svg11.dtd">
<!-- Creator: CorelDRAW 2020 (64-Bit) -->
<svg xmlns="http://www.w3.org/2000/svg" xml:space="preserve" width="40mm" height="60mm" version="1.1" style="shape-rendering:geometricPrecision; text-rendering:geometricPrecision; image-rendering:optimizeQuality; fill-rule:evenodd; clip-rule:evenodd"
viewBox="0 0 4000 6000"
 xmlns:xlink="http://www.w3.org/1999/xlink"
 xmlns:xodm="http://www.corel.com/coreldraw/odm/2003">
 <defs>
  <style type="text/css">
   <![CDATA[
    .str0 {stroke:black;stroke-width:7.62;stroke-miterlimit:22.9256}
    .fil0 {fill:none}
   ]]>
  </style>
 </defs>
 <g id="图层_x0020_1">
  <metadata id="CorelCorpID_0Corel-Layer"/>
  <path class="fil0 str0" d="M2015.4 719.61c-0.41,-5.53 -5.28,-10.71 -15.4,-11.49 -35.99,0 -65.16,29.18 -65.16,65.17 0,35.99 29.17,65.16 65.16,65.16 35.99,0 65.16,-29.17 65.16,-65.16 0,-35.99 -29.17,-65.17 -65.16,-65.17m-966.68 4619.24l1837.92 0c94.26,0 171.4,-77.13 171.4,-171.39l0 -4334.58c0,-94.26 -77.13,-171.39 -171.4,-171.39l-1742.48 0c-94.27,0 -171.4,77.13 -171.4,171.39l0 4334.58c0,94.27 77.13,171.39 171.4,171.39l68.17 0c56.47,0 90.83,13.61 95.02,22.64"/>
 </g>
</svg>
