<?xml version="1.0" encoding="UTF-8"?>
<!DOCTYPE svg PUBLIC "-//W3C//DTD SVG 1.1//EN" "http://www.w3.org/Graphics/SVG/1.1/DTD/svg11.dtd">
<!-- Creator: CorelDRAW -->
<svg xmlns="http://www.w3.org/2000/svg" xml:space="preserve" width="40mm" height="60mm" style="shape-rendering:geometricPrecision; text-rendering:geometricPrecision; image-rendering:optimizeQuality; fill-rule:evenodd; clip-rule:evenodd"
viewBox="0 0 40 60"
 xmlns:xlink="http://www.w3.org/1999/xlink">
 <defs>
  <style type="text/css">
   <![CDATA[
    .str0 {stroke:#1F1A17;stroke-width:0.194}
    .fil0 {fill:none;fill-rule:nonzero}
   ]]>
  </style>
 </defs>
 <g id="图层_x0020_1">
  <metadata id="CorelCorpID_0Corel-Layer"/>
  <g id="_46324576">
   <polyline id="_251545848" class="fil0 str0" points="24.6139,49.3428 24.6139,49.4336 24.6673,49.4186 "/>
   <path id="_215120824" class="fil0 str0" d="M24.6587 49.2596c0.0118,-0.0459 0.0171,-0.0929 0.0171,-0.1388 0,-0.2604 -0.1932,-0.4632 -0.4419,-0.4632 -0.2465,0 -0.4568,0.2092 -0.4568,0.4568 0,0.2455 0.2039,0.4526 0.4451,0.4526 0.2369,0 0.4493,-0.1911 0.4493,-0.4046"/>
   <path id="_251545992" class="fil0 str0" d="M27.3675 50.7346c-2.7846,0.1974 -3.5466,0.2263 -4.4613,0.2263 -0.254,0 -0.3223,-0.0032 -0.3885,-0.0214 -0.0758,-0.0203 -0.1153,-0.0598 -0.1356,-0.1366 -0.0181,-0.0694 -0.0224,-0.142 -0.0224,-0.4173 0,-0.0256 0,-0.0545 0,-0.0843"/>
   <line id="_252029248" class="fil0 str0" x1="22.3597" y1="50.3013" x2="22.3629" y2= "49.2831" />
   <path id="_46323424" class="fil0 str0" d="M22.3629 49.2831c0.0032,-0.9009 -0.4311,-1.5092 -1.1921,-1.6704 -0.1366,-0.0288 -0.6436,-0.0491 -1.2274,-0.0491 -1.3566,0 -1.6341,0.0715 -2.0407,0.5284 -0.2786,0.3127 -0.3768,0.6073 -0.3746,1.1185"/>
   <line id="_215121544" class="fil0 str0" x1="17.5281" y1="49.2105" x2="17.5323" y2= "50.2298" />
   <path id="_215120944" class="fil0 str0" d="M17.5323 50.2298c0,0.0192 0,0.0362 0,0.0533 0,0.6511 -0.0192,0.681 -0.4482,0.681 -0.9051,0 -4.5051,-0.1825 -5.1423,-0.2605 -1.0267,-0.1259 -1.5615,-0.3607 -1.8678,-0.8196 -0.2551,-0.3821 -0.3116,-0.6639 -0.3383,-1.6917"/>
   <line id="_251816248" class="fil0 str0" x1="9.7357" y1="48.1923" x2="9.7282" y2= "29.9958" />
   <path id="_215120920" class="fil0 str0" d="M9.7282 29.9958c-0.0032,-6.0634 0.0139,-12.1278 0.0512,-18.1923 0.0054,-1.0022 0.0214,-1.1398 0.1601,-1.4504 0.3736,-0.8379 1.1303,-1.0738 3.8338,-1.1965 0.1057,-0.0043 0.1932,-0.0075 0.2615,-0.0075"/>
   <line id="_215120896" class="fil0 str0" x1="14.0348" y1="9.1491" x2="14.0722" y2= "9.1491" />
   <path id="_215120872" class="fil0 str0" d="M14.0722 9.1491c0.4002,0 0.4002,0 0.4045,0.8336"/>
   <polyline id="_252030232" class="fil0 str0" points="14.4767,9.9827 14.4777,10.0606 14.4948,10.2666 "/>
   <path id="_252030472" class="fil0 str0" d="M14.4948 10.2666c0.0587,0.2583 0.3031,0.4429 0.5827,0.4429 0.2765,0.0011 0.5124,-0.1793 0.5796,-0.4408"/>
   <line id="_215120536" class="fil0 str0" x1="15.6571" y1="10.2687" x2="15.6635" y2= "10.2463" />
   <path id="_215120512" class="fil0 str0" d="M15.6635 10.2463c0.0128,-0.0416 0.0128,-0.0416 0.0213,-0.5667"/>
   <polyline id="_215120392" class="fil0 str0" points="15.6848,9.6796 15.688,9.416 15.7062,9.2527 "/>
   <path id="_215120056" class="fil0 str0" d="M15.7062 9.2527c0.0502,-0.1751 0.2316,-0.2167 0.9414,-0.2167 0.6147,0 0.6147,0 0.6201,0.6297 0.0074,0.7802 0.0907,0.9713 0.4514,1.0246 0.2017,0.031 1.5626,0.0534 3.1731,0.0534 1.6084,0 2.9628,-0.0224 3.1613,-0.0523 0.2423,-0.0374 0.4259,-0.2583 0.4451,-0.5369"/>
   <line id="_215120032" class="fil0 str0" x1="24.4986" y1="10.1545" x2="24.5018" y2= "9.8866" />
   <path id="_215120008" class="fil0 str0" d="M24.5018 9.8866c0.0064,-0.5507 0.0064,-0.5507 0.0182,-0.5859"/>
   <line id="_215119984" class="fil0 str0" x1="24.52" y1="9.3007" x2="24.5253" y2= "9.2825" />
   <path id="_215119960" class="fil0 str0" d="M24.5253 9.2825c0.0416,-0.1472 0.1121,-0.1771 0.4162,-0.1771"/>
   <line id="_215119696" class="fil0 str0" x1="24.9415" y1="9.1054" x2="26.0932" y2= "9.163" />
   <path id="_215123224" class="fil0 str0" d="M26.0932 9.163c2.5114,0.126 3.2072,0.2892 3.6555,0.8592"/>
   <line id="_252029440" class="fil0 str0" x1="29.7487" y1="10.0222" x2="29.8256" y2= "10.114" />
   <path id="_252029200" class="fil0 str0" d="M29.8256 10.114c0.3447,0.413 0.3447,0.413 0.3991,7.1925"/>
   <line id="_252029296" class="fil0 str0" x1="30.2247" y1="17.3065" x2="30.2364" y2= "18.7987" />
   <path id="_215121424" class="fil0 str0" d="M30.2364 18.7987c0.0299,3.7323 0.0417,7.4647 0.0331,11.1971"/>
   <line id="_251816488" class="fil0 str0" x1="30.2695" y1="29.9958" x2="30.2322" y2= "47.1602" />
   <path id="_213753728" class="fil0 str0" d="M30.2322 47.1602c-0.0438,1.7536 -0.1291,2.2968 -0.428,2.7344 -0.348,0.5102 -0.8176,0.6874 -2.2211,0.84"/>
   <line id="_215122504" class="fil0 str0" x1="27.5831" y1="50.7346" x2="27.3675" y2= "50.7698" />
  </g>
 </g>
</svg>
