<?xml version="1.0" encoding="UTF-8"?>
<!DOCTYPE svg PUBLIC "-//W3C//DTD SVG 1.1//EN" "http://www.w3.org/Graphics/SVG/1.1/DTD/svg11.dtd">
<!-- Creator: CorelDRAW X8 -->
<svg xmlns="http://www.w3.org/2000/svg" xml:space="preserve" width="40mm" height="60mm" version="1.1" style="shape-rendering:geometricPrecision; text-rendering:geometricPrecision; image-rendering:optimizeQuality; fill-rule:evenodd; clip-rule:evenodd"
viewBox="0 0 4000 6000"
 xmlns:xlink="http://www.w3.org/1999/xlink">
 <defs>
  <style type="text/css">
   <![CDATA[
    .str0 {stroke:black;stroke-width:20}
    .fil0 {fill:none}
   ]]>
  </style>
 </defs>
 <g id="图层_x0020_1">
  <metadata id="CorelCorpID_0Corel-Layer"/>
  <path class="fil0 str0" d="M974 5350l742 0c36,0 72,-59 51,-89 -15,-22 -24,-49 -24,-78l0 0c0,-76 63,-139 140,-139l236 0c77,0 139,63 139,139l0 0c0,30 -5,46 -17,69 -21,36 9,99 63,98 186,0 371,0 557,0 124,0 225,-101 225,-225l0 -4250c0,-124 -101,-225 -225,-225l-367 0c-11,0 -19,5 -19,12l0 117c0,1 0,2 0,3 0,2 0,3 0,5 0,31 -25,56 -57,56 -20,0 -38,-11 -48,-27 -3,-4 -3,-5 -9,-5l-836 0c-18,0 -32,-15 -32,-32l0 -108c0,-10 -10,-21 -21,-21l-333 0c-124,0 -225,101 -225,225l0 4250c0,124 101,225 225,225l46 0"/>
 </g>
</svg>
