<?xml version="1.0" encoding="UTF-8"?>
<!DOCTYPE svg PUBLIC "-//W3C//DTD SVG 1.1//EN" "http://www.w3.org/Graphics/SVG/1.1/DTD/svg11.dtd">
<!-- Creator: CorelDRAW 2020 (64-Bit) -->
<svg xmlns="http://www.w3.org/2000/svg" xml:space="preserve" width="40mm" height="60mm" version="1.1" style="shape-rendering:geometricPrecision; text-rendering:geometricPrecision; image-rendering:optimizeQuality; fill-rule:evenodd; clip-rule:evenodd"
viewBox="0 0 4000 6000"
 xmlns:xlink="http://www.w3.org/1999/xlink"
 xmlns:xodm="http://www.corel.com/coreldraw/odm/2003">
 <defs>
  <style type="text/css">
   <![CDATA[
    .str0 {stroke:black;stroke-width:7.62;stroke-miterlimit:22.9256}
    .fil0 {fill:none}
   ]]>
  </style>
 </defs>
 <g id="图层_x0020_1">
  <metadata id="CorelCorpID_0Corel-Layer"/>
  <path class="fil0 str0" d="M1185.87 745.26c-0.4,-5.44 -5.2,-10.53 -15.14,-11.3 -35.39,0 -64.09,28.7 -64.09,64.09 0,35.38 28.7,64.08 64.09,64.08 35.39,0 64.08,-28.7 64.08,-64.08 0,-35.39 -28.69,-64.09 -64.08,-64.09m-134.44 4584.94l1795.82 0c108.78,0 197.79,-89.03 197.79,-197.78l0 -4273.33c0,-108.76 -89,-197.79 -197.79,-197.79 -565.37,0 -1098.54,0 -1664.23,0 -108.79,0 -197.78,89 -197.78,197.79l0 4273.33c0,108.78 89.01,197.78 197.78,197.78l60.17 0c70.99,0 115.02,9.85 132.21,31.1"/>
 </g>
</svg>
