<?xml version="1.0" encoding="UTF-8"?>
<!DOCTYPE svg PUBLIC "-//W3C//DTD SVG 1.1//EN" "http://www.w3.org/Graphics/SVG/1.1/DTD/svg11.dtd">
<!-- Creator: CorelDRAW X8 -->
<svg xmlns="http://www.w3.org/2000/svg" xml:space="preserve" width="40mm" height="60mm" version="1.1" style="shape-rendering:geometricPrecision; text-rendering:geometricPrecision; image-rendering:optimizeQuality; fill-rule:evenodd; clip-rule:evenodd"
viewBox="0 0 4000 6000"
 xmlns:xlink="http://www.w3.org/1999/xlink">
 <defs>
  <style type="text/css">
   <![CDATA[
    .str0 {stroke:#332C2B;stroke-width:20}
    .fil0 {fill:none}
   ]]>
  </style>
 </defs>
 <g id="图层_x0020_1">
  <metadata id="CorelCorpID_0Corel-Layer"/>
  <path class="fil0 str0" d="M1806 844l365 0c18,0 32,14 32,31l0 0c0,18 -14,32 -32,32l-365 0c-18,0 -32,-14 -32,-32l0 0c0,-17 14,-31 32,-31 17,0 94,7 94,48m92 4027c106,0 192,85 192,191 0,107 -86,192 -192,192 -106,0 -192,-85 -192,-192 0,-106 86,-191 192,-191 106,0 136,138 136,222m-1142 209l1783 0c174,0 317,-142 317,-315l0 -4070c0,-173 -143,-315 -317,-315l-1538 0c-174,0 -317,142 -317,315l0 4070c0,173 143,315 317,315"/>
 </g>
</svg>
