<?xml version="1.0" encoding="UTF-8"?>
<!DOCTYPE svg PUBLIC "-//W3C//DTD SVG 1.1//EN" "http://www.w3.org/Graphics/SVG/1.1/DTD/svg11.dtd">
<!-- Creator: CorelDRAW X8 -->
<svg xmlns="http://www.w3.org/2000/svg" xml:space="preserve" width="40mm" height="60mm" version="1.1" style="shape-rendering:geometricPrecision; text-rendering:geometricPrecision; image-rendering:optimizeQuality; fill-rule:evenodd; clip-rule:evenodd"
viewBox="0 0 4000 6000"
 xmlns:xlink="http://www.w3.org/1999/xlink">
 <defs>
  <style type="text/css">
   <![CDATA[
    .str0 {stroke:black;stroke-width:7.62}
    .fil0 {fill:none}
   ]]>
  </style>
 </defs>
 <g id="图层_x0020_1">
  <metadata id="CorelCorpID_0Corel-Layer"/>
  <path class="fil0 str0" d="M451 921c67,0 77,-73 77,-133 0,-60 49,-110 110,-110l2801 0c60,0 110,50 110,110l0 1996c0,11 -4,15 -14,15l-20 0c-15,0 -27,12 -27,27l0 0c0,15 12,28 27,28l15 0c14,0 18,4 19,19l0 284c0,8 -2,11 -13,11l-23 0c-15,0 -27,12 -27,28l0 0c0,15 12,27 27,27l23 0c8,0 13,3 13,14l0 2003c0,61 -50,110 -110,110l-2801 0c-61,0 -110,-49 -110,-110l0 -4590"/>
 </g>
</svg>
