<?xml version="1.0" encoding="UTF-8"?>
<!DOCTYPE svg PUBLIC "-//W3C//DTD SVG 1.1//EN" "http://www.w3.org/Graphics/SVG/1.1/DTD/svg11.dtd">
<!-- Creator: CorelDRAW X8 -->
<svg xmlns="http://www.w3.org/2000/svg" xml:space="preserve" width="40mm" height="60mm" version="1.1" style="shape-rendering:geometricPrecision; text-rendering:geometricPrecision; image-rendering:optimizeQuality; fill-rule:evenodd; clip-rule:evenodd"
viewBox="0 0 4000 6000"
 xmlns:xlink="http://www.w3.org/1999/xlink">
 <defs>
  <style type="text/css">
   <![CDATA[
    .str0 {stroke:black;stroke-width:7.62}
    .fil0 {fill:none}
   ]]>
  </style>
 </defs>
 <g id="图层_x0020_1">
  <metadata id="CorelCorpID_0Corel-Layer"/>
  <path class="fil0 str0" d="M572 750l2856 0c79,0 144,65 144,144l0 4212c0,79 -65,144 -144,144l-2856 0c-79,0 -144,-65 -144,-144l0 -4212c0,-79 65,-144 144,-144zm77 147l80 0c15,0 28,13 28,29l0 0c0,16 -13,29 -28,29l-51 0c-5,0 -6,0 -9,5 -12,26 -38,44 -69,44 -42,0 -77,-35 -77,-77 0,-43 35,-77 77,-77 31,0 57,17 69,43 2,3 4,4 8,4l10 0"/>
 </g>
</svg>
