<?xml version="1.0" encoding="UTF-8"?>
<!DOCTYPE svg PUBLIC "-//W3C//DTD SVG 1.1//EN" "http://www.w3.org/Graphics/SVG/1.1/DTD/svg11.dtd">
<!-- Creator: CorelDRAW X8 -->
<svg xmlns="http://www.w3.org/2000/svg" xml:space="preserve" width="40mm" height="60mm" version="1.1" style="shape-rendering:geometricPrecision; text-rendering:geometricPrecision; image-rendering:optimizeQuality; fill-rule:evenodd; clip-rule:evenodd"
viewBox="0 0 4000 6000"
 xmlns:xlink="http://www.w3.org/1999/xlink">
 <defs>
  <style type="text/css">
   <![CDATA[
    .str0 {stroke:#333333;stroke-width:20;stroke-linejoin:bevel}
    .fil0 {fill:none}
   ]]>
  </style>
 </defs>
 <g id="图层_x0020_1">
  <metadata id="CorelCorpID_0Corel-Layer"/>
  <path class="fil0 str0" d="M1014 5350c327,0 1800,0 1800,0 137,0 249,-112 249,-248 0,0 0,-4204 0,-4204 0,-136 -112,-248 -249,-248 0,0 -1628,0 -1628,0 -137,0 -249,112 -249,248 0,0 0,4204 0,4204 0,136 112,248 249,248 0,0 29,0 79,0m1510 -4560c0,42 -34,77 -77,77 -43,0 -78,-35 -78,-77 0,-43 35,-78 78,-78 43,0 77,35 77,78zm-248 0c0,34 -27,62 -62,62 -34,0 -62,-28 -62,-62 0,-35 28,-63 62,-63 35,0 62,28 62,63zm-356 -39c0,0 0,0 0,0 0,21 -18,39 -39,39 0,0 -264,0 -264,0 -21,0 -39,-18 -39,-39 0,0 0,0 0,0 0,-22 18,-39 39,-39 0,0 264,0 264,0 21,0 39,17 39,39zm-1032 23c0,17 -14,31 -31,31 -17,0 -31,-14 -31,-31 0,-17 14,-31 31,-31 17,0 31,14 31,31z"/>
 </g>
</svg>
