<?xml version="1.0" encoding="UTF-8"?>
<!DOCTYPE svg PUBLIC "-//W3C//DTD SVG 1.1//EN" "http://www.w3.org/Graphics/SVG/1.1/DTD/svg11.dtd">
<!-- Creator: CorelDRAW X8 -->
<svg xmlns="http://www.w3.org/2000/svg" xml:space="preserve" width="40mm" height="60mm" version="1.1" style="shape-rendering:geometricPrecision; text-rendering:geometricPrecision; image-rendering:optimizeQuality; fill-rule:evenodd; clip-rule:evenodd"
viewBox="0 0 4000 6000"
 xmlns:xlink="http://www.w3.org/1999/xlink">
 <defs>
  <style type="text/css">
   <![CDATA[
    .str0 {stroke:#332C2B;stroke-width:20}
    .fil0 {fill:none}
   ]]>
  </style>
 </defs>
 <g id="图层_x0020_1">
  <metadata id="CorelCorpID_0Corel-Layer"/>
  <path class="fil0 str0" d="M-1095 6917c0,-110 0,-6833 0,-6833 0,-110 -90,-199 -200,-199l-15048 0c-110,0 -200,89 -200,199 -147,3953 0,6463 0,6573 0,110 90,200 200,200l15048 0c110,0 200,-90 200,-200 0,0 0,-9 0,-10 0,-224 114,-110 114,-85"/>
  <path class="fil0 str0" d="M-16338 4693l0 -1803c0,-83 68,-151 151,-151l0 0c82,0 150,68 150,151l0 1803c0,83 -68,151 -150,151l0 0c-83,0 -151,-68 -151,-150 0,0 0,-9 0,-10 0,-182 152,-344 153,-338"/>
  <g id="_2165497822176">
   <path class="fil0 str0" d="M942 5316c33,0 2056,0 2056,0 33,0 60,-27 60,-60l0 -4526c0,-33 -27,-60 -60,-60 -1189,-45 -1944,0 -1977,0 -33,0 -60,27 -60,60l0 4526c0,33 27,60 60,60 0,0 2,0 3,0 67,0 33,34 25,34"/>
   <path class="fil0 str0" d="M1611 731l543 0c25,0 45,21 45,46l0 0c0,24 -20,45 -45,45l-543 0c-25,0 -45,-21 -45,-45l0 0c0,-25 20,-45 45,-46 0,0 3,0 3,0 55,0 103,46 102,46"/>
  </g>
 </g>
</svg>
