<?xml version="1.0" encoding="UTF-8"?>
<!DOCTYPE svg PUBLIC "-//W3C//DTD SVG 1.1//EN" "http://www.w3.org/Graphics/SVG/1.1/DTD/svg11.dtd">
<!-- Creator: CorelDRAW 2020 (64-Bit) -->
<svg xmlns="http://www.w3.org/2000/svg" xml:space="preserve" width="40mm" height="60mm" version="1.1" style="shape-rendering:geometricPrecision; text-rendering:geometricPrecision; image-rendering:optimizeQuality; fill-rule:evenodd; clip-rule:evenodd"
viewBox="0 0 4000 6000"
 xmlns:xlink="http://www.w3.org/1999/xlink"
 xmlns:xodm="http://www.corel.com/coreldraw/odm/2003">
 <defs>
  <style type="text/css">
   <![CDATA[
    .str0 {stroke:black;stroke-width:7.62;stroke-miterlimit:22.9256}
    .fil0 {fill:none}
   ]]>
  </style>
 </defs>
 <g id="图层_x0020_1">
  <metadata id="CorelCorpID_0Corel-Layer"/>
  <path class="fil0 str0" d="M1023.06 5325.98l1763.77 0c135.31,0 246.05,-110.73 246.05,-246.04l0 -4178.23c0,-135.31 -110.73,-246.04 -246.05,-246.04l-677.77 0c-19.35,0 -35.14,15.78 -35.14,35.14l0 36.65c0,44.28 -36.23,80.52 -80.52,80.52l0 0c-44.29,0 -80.52,-36.24 -80.52,-80.52l0 -36.65c0,-19.35 -15.79,-35.14 -35.14,-35.14l-677.77 0c-135.32,0 -246.05,110.72 -246.05,246.04l0 4178.23c0,135.32 110.74,246.04 246.05,246.04l43.89 0c103.29,0 156.55,17.56 180.12,29.69"/>
 </g>
</svg>
