<?xml version="1.0" encoding="UTF-8"?>
<!DOCTYPE svg PUBLIC "-//W3C//DTD SVG 1.1//EN" "http://www.w3.org/Graphics/SVG/1.1/DTD/svg11.dtd">
<!-- Creator: CorelDRAW -->
<svg xmlns="http://www.w3.org/2000/svg" xml:space="preserve" width="40mm" height="60mm" style="shape-rendering:geometricPrecision; text-rendering:geometricPrecision; image-rendering:optimizeQuality; fill-rule:evenodd; clip-rule:evenodd"
viewBox="0 0 40 60"
 xmlns:xlink="http://www.w3.org/1999/xlink">
 <defs>
  <style type="text/css">
   <![CDATA[
    .str0 {stroke:#1F1A17;stroke-width:0.194}
    .fil0 {fill:none}
   ]]>
  </style>
 </defs>
 <g id="图层_x0020_1">
  <metadata id="CorelCorpID_0Corel-Layer"/>
  <g id="_259839368">
   <path id="_555063744" class="fil0 str0" d="M21.1307 7.0715c-0.8548,-0.0049 -1.7108,0.0178 -2.5656,0.0142 -0.5663,-0.0024 -0.7954,0.0145 -0.9361,0.0715 -0.1394,0.057 -0.1855,0.1504 -0.1855,0.3807"/>
   <line id="_554798392" class="fil0 str0" x1="17.4435" y1="7.5379" x2="17.4435" y2= "7.561" />
   <path id="_260418304" class="fil0 str0" d="M17.4435 7.561c0,0.1528 0.0085,0.2013 0.0436,0.251 0.0461,0.063 0.1395,0.1018 0.3092,0.1285 0.2983,0.0461 0.6803,0.0546 2.4712,0.0534"/>
   <line id="_262131624" class="fil0 str0" x1="20.2675" y1="7.9939" x2="20.4202" y2= "7.9939" />
   <path id="_261971024" class="fil0 str0" d="M20.4202 7.9939c1.1835,0 1.5375,-0.0122 1.7715,-0.0655 0.131,-0.0291 0.2074,-0.0716 0.2474,-0.1382 0.0339,-0.0546 0.046,-0.1213 0.046,-0.2583 0,-0.3941 -0.1612,-0.4583 -1.1518,-0.4595"/>
   <line id="_555063384" class="fil0 str0" x1="21.3333" y1="7.0724" x2="21.0604" y2= "7.0711" />
   <path id="_262131912" class="fil0 str0" d="M21.0604 7.0711c-0.4825,0 -0.5965,0.0061 -0.7384,0.0413 -0.1406,0.0339 -0.234,0.0788 -0.6002,0.2897"/>
   <line id="_554797312" class="fil0 str0" x1="19.7218" y1="7.4021" x2="19.5157" y2= "7.521" />
   <path id="_554798512" class="fil0 str0" d="M29.5942 53.0623c-3.4157,0.1164 -2.5621,0.0873 -5.979,0.2049"/>
   <line id="_261970664" class="fil0 str0" x1="23.6152" y1="53.2672" x2="23.5764" y2= "53.2672" />
   <path id="_555475264" class="fil0 str0" d="M23.5764 53.2672c-0.6826,0 -0.6826,0 -0.6826,-0.6317"/>
   <line id="_555475288" class="fil0 str0" x1="22.8938" y1="52.6355" x2="22.8938" y2= "52.5991" />
   <path id="_555474952" class="fil0 str0" d="M22.8938 52.5991c0,-0.0715 0,-0.1576 0,-0.2571"/>
   <line id="_555475048" class="fil0 str0" x1="22.8938" y1="52.342" x2="22.8962" y2= "51.7879" />
   <path id="_555475384" class="fil0 str0" d="M22.8962 51.7879c0.0024,-0.8645 -0.4244,-1.4187 -1.1458,-1.4865 -0.1552,-0.0146 -0.9131,-0.0243 -1.7933,-0.0243 -2.0432,0 -2.0977,0.0073 -2.4784,0.3516 -0.3032,0.2753 -0.422,0.5699 -0.4196,1.044"/>
   <line id="_555475408" class="fil0 str0" x1="17.0591" y1="51.6727" x2="17.0627" y2= "52.5288" />
   <path id="_555475480" class="fil0 str0" d="M17.0627 52.5288c0,0.0121 0,0.0254 0,0.0376 0,0.6875 -0.0121,0.6996 -0.6669,0.6996 -2.5026,-0.0715 -1.8769,-0.0534 -4.3784,-0.1261 -2.0564,-0.1092 -3.3381,-1.1556 -3.6169,-2.9525 -0.0158,-0.1055 -0.0207,-0.2571 -0.0207,-0.6633"/>
   <line id="_555475504" class="fil0 str0" x1="8.3798" y1="49.5241" x2="8.4065" y2= "9.6332" />
   <path id="_555475576" class="fil0 str0" d="M8.4065 9.6332c0.0182,-0.8694 0.7324,-1.9764 1.5957,-2.476 0.9324,-0.5383 0.9506,-0.5396 7.8232,-0.6099"/>
   <line id="_555475648" class="fil0 str0" x1="17.8254" y1="6.5473" x2="21.6037" y2= "6.5085" />
   <path id="_555474904" class="fil0 str0" d="M21.6037 6.5085c1.7084,-0.017 2.0382,-0.0109 2.2031,0.04 0.1649,0.0521 0.1952,0.1564 0.2001,0.6972 0.006,0.5711 0.0485,0.6996 0.2958,0.89 0.137,0.1067 0.3068,0.1649 0.4741,0.1649 0.3905,0 0.7203,-0.2922 0.7627,-0.6766"/>
   <path id="_555475744" class="fil0 str0" d="M25.5395 7.624l0.0012 -0.0109 0.0109 -0.542m-0.0121 0.5529z"/>
   <path id="_555476368" class="fil0 str0" d="M25.5516 7.0711c0.0037,-0.1782 0.0073,-0.234 0.0243,-0.2922 0.0485,-0.1734 0.1394,-0.2061 0.5602,-0.2061 1.6417,0 2.7815,0.1249 3.3853,0.3722 1.0877,0.4438 1.8528,1.4405 2.0286,2.6421"/>
   <line id="_555476392" class="fil0 str0" x1="31.55" y1="9.5871" x2="31.6203" y2= "49.5217" />
   <path id="_555476008" class="fil0 str0" d="M31.6203 49.5217c-0.0739,1.8115 -1.0294,3.0932 -2.5826,3.4618 -0.2098,0.0497 -0.3323,0.0691 -0.7567,0.1164 -0.0388,0.0036 -0.0727,0.0085 -0.1018,0.0121 -0.3007,0.0424 -0.3565,0.0825 -0.5444,0.388"/>
  </g>
 </g>
</svg>
