<?xml version="1.0" encoding="utf-8"?>
<!-- Generator: Adobe Illustrator 25.4.1, SVG Export Plug-In . SVG Version: 6.00 Build 0)  -->
<svg version="1.1" id="Layer_1" xmlns="http://www.w3.org/2000/svg" xmlns:xlink="http://www.w3.org/1999/xlink" x="0px" y="0px"
	 viewBox="0 0 340.16 510.24" style="enable-background:new 0 0 340.16 510.24;" xml:space="preserve">
<style type="text/css">
	.st0{fill:none;stroke:#000000;stroke-miterlimit:10;}
</style>
<path class="st0" d="M85.78,165.1L85.78,165.1c-11.49,0-20.81-9.32-20.81-20.81V47.4c0-11.49,9.32-20.81,20.81-20.81h0
	c11.49,0,20.81,9.32,20.81,20.81v96.89C106.59,155.78,97.27,165.1,85.78,165.1z"/>
<path class="st0" d="M129.78,111.23L129.78,111.23c-8.06,0-14.6-6.53-14.6-14.6V45.82c0-8.06,6.53-14.6,14.6-14.6h0
	c8.06,0,14.6,6.53,14.6,14.6v50.81C144.38,104.69,137.84,111.23,129.78,111.23z"/>
<path class="st0" d="M35.77,154.01L35.77,154.01c-1.96,0-3.54-1.59-3.54-3.54V95.19c0-1.96,1.59-3.54,3.54-3.54h0
	c1.96,0,3.54,1.59,3.54,3.54v55.28C39.31,152.42,37.73,154.01,35.77,154.01z"/>
<path class="st0" d="M35.79,209.99L35.79,209.99c-1.96,0-3.54-1.59-3.54-3.54V178.1c0-1.96,1.59-3.54,3.54-3.54h0
	c1.96,0,3.54,1.59,3.54,3.54v28.35C39.33,208.41,37.74,209.99,35.79,209.99z"/>
<path class="st0" d="M46.57,470.66h201.73c0,0,8.56,0,8.56,0c3.13,0,5.67-2.54,5.67-5.67V461c0-0.39,0.32-0.71,0.71-0.71
	s0.71,0.32,0.71,0.71c0,0,0,6.9,0,6.9c0,1.57,1.27,2.83,2.83,2.83h11.34c1.57,0,2.83-1.27,2.83-2.83V20.02
	c0-1.57-1.27-2.83-2.83-2.83h-11.34c-1.57,0-2.83,1.27-2.83,2.83v2.65c0,0.39-0.32,0.71-0.71,0.71c-0.39,0-0.71-0.32-0.71-0.71V20.1
	c0-3.13-2.54-5.67-5.67-5.67c0,0-8.56,0-8.56,0c0,0-188.37,0-188.37,0h-8.56c-3.13,0-5.67,2.54-5.67,5.67c0,0,0,2.57,0,2.57
	c0,0.39-0.32,0.71-0.71,0.71c-0.39,0-0.71-0.32-0.71-0.71v-2.57c0-1.57-1.27-2.83-2.83-2.83H30.12c-1.57,0-2.83,1.27-2.83,2.83
	v447.87c0,1.57,1.27,2.83,2.83,2.83h11.34c1.57,0,2.83-1.27,2.83-2.83V461c0-0.39,0.32-0.71,0.71-0.71c0.39,0,0.71,0.32,0.71,0.71
	v3.99c0,3.13,2.54,5.67,5.67,5.67c0,0,8.56,0,8.56,0"/>
</svg>
