<?xml version="1.0" encoding="UTF-8"?>
<!DOCTYPE svg PUBLIC "-//W3C//DTD SVG 1.1//EN" "http://www.w3.org/Graphics/SVG/1.1/DTD/svg11.dtd">
<!-- Creator: CorelDRAW X8 -->
<svg xmlns="http://www.w3.org/2000/svg" xml:space="preserve" width="40mm" height="60mm" version="1.1" style="shape-rendering:geometricPrecision; text-rendering:geometricPrecision; image-rendering:optimizeQuality; fill-rule:evenodd; clip-rule:evenodd"
viewBox="0 0 4000 6000"
 xmlns:xlink="http://www.w3.org/1999/xlink">
 <defs>
  <style type="text/css">
   <![CDATA[
    .str0 {stroke:black;stroke-width:7.62}
    .fil0 {fill:none}
   ]]>
  </style>
 </defs>
 <g id="图层_x0020_1">
  <metadata id="CorelCorpID_0Corel-Layer"/>
  <path class="fil0 str0" d="M1003 5350l1830 0c116,0 211,-95 211,-210l0 -4280c0,-115 -95,-210 -211,-210 -569,0 -1096,0 -1666,0 -116,0 -211,95 -211,210l0 4280c0,115 95,210 211,210l277 0m-246 -4603c0,-7 -6,-14 -19,-15 -46,0 -83,37 -83,83 0,45 37,82 83,82 46,0 83,-37 83,-82 0,-46 -37,-83 -83,-83"/>
 </g>
</svg>
