<?xml version="1.0" encoding="UTF-8"?>
<!DOCTYPE svg PUBLIC "-//W3C//DTD SVG 1.1//EN" "http://www.w3.org/Graphics/SVG/1.1/DTD/svg11.dtd">
<!-- Creator: CorelDRAW -->
<svg xmlns="http://www.w3.org/2000/svg" xml:space="preserve" width="40mm" height="60mm" style="shape-rendering:geometricPrecision; text-rendering:geometricPrecision; image-rendering:optimizeQuality; fill-rule:evenodd; clip-rule:evenodd"
viewBox="0 0 40 60"
 xmlns:xlink="http://www.w3.org/1999/xlink">
 <defs>
  <style type="text/css">
   <![CDATA[
    .str0 {stroke:#1F1A17;stroke-width:0.194}
    .fil0 {fill:none;fill-rule:nonzero}
   ]]>
  </style>
 </defs>
 <g id="图层_x0020_1">
  <metadata id="CorelCorpID_0Corel-Layer"/>
  <path class="fil0 str0" d="M28.758 53.4573l-0.1859 0.0346c-3.8711,0.0081 -6.2791,0.0104 -10.1501,0.0058 -3.9507,-0.0035 -2.9628,0 -6.9134,-0.0254 -0.4923,-0.0196 -0.626,-0.0542 -1.0191,-0.2709 -0.6179,-0.3401 -0.9972,-0.8231 -1.2381,-1.5771 -0.0461,-0.1418 -0.0461,-0.1429 -0.0588,-0.7158m21.6681 0.1533c0.0011,0.0968 0.0023,0.1752 0.0023,0.2363 0,0.5902 -0.3816,1.2854 -0.9315,1.6981 -0.3228,0.2421 -0.7147,0.3965 -1.1735,0.4611m2.1246 -44.851l-0.0219 42.4555m-5.7191 -44.5605c3.938,0.0034 3.9519,0.0046 4.5755,0.3919 0.6052,0.377 1.1113,1.1194 1.1655,1.7131m-6.5479 -2.1062l0.8069 0.0012m-2.8636 0.4058c-0.023,-0.4081 -0.023,-0.4081 2.0567,-0.407m-2.0509 1.0571l-0.0011 -0.491 -0.0047 -0.1591m-1.3648 0.6432c-0.0012,0.5568 0.2363,0.852 0.6859,0.852 0.4426,0 0.6859,-0.2998 0.6847,-0.8451m-1.3695 -0.4991l-0.0011 0.4922m-1.7362 -0.4323c0,-0.0069 0,-0.0138 0,-0.0196 0,-0.5591 0.0358,-0.5844 0.8531,-0.5844 0.8427,0 0.8854,0.0265 0.8842,0.5441m-1.7349 0.6167l-0.0024 -0.5568m-1.3695 0.3897c-0.0011,0.5891 0.234,0.8946 0.6894,0.8946 0.4058,0 0.6836,-0.2963 0.6825,-0.7275m-1.3719 -0.6559l0 0.4888m-8.5561 0.8992c0.2098,-0.5914 0.3608,-0.8531 0.664,-1.1563 0.3712,-0.3712 0.9511,-0.6583 1.4226,-0.7032 0.2455,-0.0242 1.8364,-0.0427 3.5506,-0.0427 2.0405,0 2.4624,0.007 2.6722,0.0438 0.2087,0.0369 0.2479,0.1107 0.2467,0.4704m-8.5907 1.4837l0.0346 -0.0957m-0.1326 8.3959c-0.0057,-2.6204 0.0058,-5.2396 0.0346,-7.8587 0.0138,-0.2168 0.0323,-0.3401 0.0634,-0.4415m-0.0242 42.4059l-0.0738 -34.1057"/>
 </g>
</svg>
