<?xml version="1.0" encoding="UTF-8"?>
<!DOCTYPE svg PUBLIC "-//W3C//DTD SVG 1.1//EN" "http://www.w3.org/Graphics/SVG/1.1/DTD/svg11.dtd">
<!-- Creator: CorelDRAW X8 -->
<svg xmlns="http://www.w3.org/2000/svg" xml:space="preserve" width="40mm" height="60mm" version="1.1" style="shape-rendering:geometricPrecision; text-rendering:geometricPrecision; image-rendering:optimizeQuality; fill-rule:evenodd; clip-rule:evenodd"
viewBox="0 0 4000 6000"
 xmlns:xlink="http://www.w3.org/1999/xlink">
 <defs>
  <style type="text/css">
   <![CDATA[
    .str0 {stroke:black;stroke-width:7.62}
    .fil0 {fill:none}
   ]]>
  </style>
 </defs>
 <g id="图层_x0020_1">
  <metadata id="CorelCorpID_0Corel-Layer"/>
  <path class="fil0 str0" d="M984 5350l1879 0c114,0 208,-94 208,-208l0 -4284c0,-114 -94,-208 -208,-208l-1726 0c-114,0 -208,94 -208,208l0 4284c0,114 94,208 208,208l162 0m991 -4055c-18,5 -31,11 -31,42l0 25c0,35 29,64 64,64l0 0c35,0 64,-29 64,-64l0 -103c0,-35 -29,-64 -64,-64l0 0c-35,0 -64,29 -64,64l0 78m-259 -403l0 0c96,0 175,79 175,176l0 407c0,97 -79,176 -175,176l0 0c-97,0 -176,-79 -176,-176l0 -407c0,-97 79,-176 176,-176zm1 39l0 0c79,0 144,64 144,144l0 389c0,80 -65,145 -144,145l0 0c-80,0 -145,-65 -145,-145l0 -389c0,-80 65,-144 145,-144zm18 134c-1,-6 -6,-12 -18,-13 -41,0 -74,34 -74,75 0,41 33,74 74,74 41,0 74,-33 74,-74 0,-41 -33,-75 -74,-75m19 307c0,-6 -6,-12 -17,-13 -41,0 -74,34 -74,75 0,41 33,74 74,74 41,0 74,-33 74,-74 0,-41 -33,-75 -74,-75m44 514c-1,-15 -15,-30 -44,-32 -103,0 -186,83 -186,186 0,102 83,185 186,185 103,0 186,-83 186,-185 0,-103 -83,-186 -186,-186"/>
 </g>
</svg>
