<?xml version="1.0" encoding="UTF-8"?>
<!DOCTYPE svg PUBLIC "-//W3C//DTD SVG 1.1//EN" "http://www.w3.org/Graphics/SVG/1.1/DTD/svg11.dtd">
<!-- Creator: CorelDRAW 2020 (64-Bit) -->
<svg xmlns="http://www.w3.org/2000/svg" xml:space="preserve" width="40mm" height="60mm" version="1.1" style="shape-rendering:geometricPrecision; text-rendering:geometricPrecision; image-rendering:optimizeQuality; fill-rule:evenodd; clip-rule:evenodd"
viewBox="0 0 4000 6000"
 xmlns:xlink="http://www.w3.org/1999/xlink"
 xmlns:xodm="http://www.corel.com/coreldraw/odm/2003">
 <defs>
  <style type="text/css">
   <![CDATA[
    .str0 {stroke:black;stroke-width:7.62;stroke-miterlimit:22.9256}
    .fil0 {fill:none}
   ]]>
  </style>
 </defs>
 <g id="图层_x0020_1">
  <metadata id="CorelCorpID_0Corel-Layer"/>
  <path class="fil0 str0" d="M2897.29 775.4c2.97,-19.13 -13.12,-32.54 -21.1,-33.16 -28.39,0 -51.4,23.02 -51.4,51.41 0,28.39 23.01,51.41 51.4,51.41 28.4,0 51.41,-23.02 51.41,-51.41 0,-28.39 -23.01,-51.41 -51.41,-51.41m-971.22 51.22c-4.45,-16.63 -13.53,-29.82 -54.4,-29.82l-34.97 0c-18.38,0 -33.41,15.03 -33.41,33.41l0 0c0,18.38 15.03,33.42 33.41,33.42l342.76 0c18.38,0 33.41,-15.04 33.41,-33.42l0 0c0,-18.38 -15.04,-33.41 -33.41,-33.41l-307.79 0m-1066.24 4570.09l2315.03 0c112.71,0 204.92,-92.22 204.92,-204.93l0 -4268.2c0,-112.71 -92.21,-204.93 -204.92,-204.93l-2211.92 0c-112.71,0 -204.92,92.22 -204.92,204.93l0 4268.2c0,112.71 92.21,204.93 204.92,204.93l64.36 0c59.81,0 94.95,12.36 110.51,21.94"/>
 </g>
</svg>
