<?xml version="1.0" encoding="UTF-8"?>
<!DOCTYPE svg PUBLIC "-//W3C//DTD SVG 1.1//EN" "http://www.w3.org/Graphics/SVG/1.1/DTD/svg11.dtd">
<!-- Creator: CorelDRAW 2020 (64-Bit) -->
<svg xmlns="http://www.w3.org/2000/svg" xml:space="preserve" width="40mm" height="60mm" version="1.1" style="shape-rendering:geometricPrecision; text-rendering:geometricPrecision; image-rendering:optimizeQuality; fill-rule:evenodd; clip-rule:evenodd"
viewBox="0 0 4000 6000"
 xmlns:xlink="http://www.w3.org/1999/xlink"
 xmlns:xodm="http://www.corel.com/coreldraw/odm/2003">
 <defs>
  <style type="text/css">
   <![CDATA[
    .str0 {stroke:black;stroke-width:7.62;stroke-miterlimit:22.9256}
    .fil0 {fill:none}
   ]]>
  </style>
 </defs>
 <g id="图层_x0020_1">
  <metadata id="CorelCorpID_0Corel-Layer"/>
  <path class="fil0 str0" d="M1976.98 811.92c-35.75,-20.64 -14.36,-79.36 21.27,-79.36 35.62,0 64.51,28.89 64.51,64.52 0,35.62 -28.89,64.51 -64.51,64.51 -35.63,0 -64.51,-28.89 -64.51,-64.51 0,-35.63 28.88,-64.52 64.51,-64.52m-1004 4593.87l1832.16 0c123.91,0 225.29,-101.4 225.29,-225.28l0 -4220.19c0,-123.89 -101.4,-225.29 -225.29,-225.29l-1666.02 0c-123.89,0 -225.29,101.38 -225.29,225.29l0 4220.19c0,123.9 101.38,225.28 225.29,225.28l48.59 0c72.16,0 112.56,9.01 126.25,29.24"/>
 </g>
</svg>
