<?xml version="1.0" encoding="UTF-8"?>
<!DOCTYPE svg PUBLIC "-//W3C//DTD SVG 1.1//EN" "http://www.w3.org/Graphics/SVG/1.1/DTD/svg11.dtd">
<!-- Creator: CorelDRAW X8 -->
<svg xmlns="http://www.w3.org/2000/svg" xml:space="preserve" width="40mm" height="60mm" version="1.1" style="shape-rendering:geometricPrecision; text-rendering:geometricPrecision; image-rendering:optimizeQuality; fill-rule:evenodd; clip-rule:evenodd"
viewBox="0 0 4000 6000"
 xmlns:xlink="http://www.w3.org/1999/xlink">
 <defs>
  <style type="text/css">
   <![CDATA[
    .str0 {stroke:black;stroke-width:7.62}
    .fil0 {fill:none}
   ]]>
  </style>
 </defs>
 <g id="图层_x0020_1">
  <metadata id="CorelCorpID_0Corel-Layer"/>
  <path class="fil0 str0" d="M1007 5350l1789 0c176,0 319,-144 319,-320l0 -4060c0,-176 -143,-320 -319,-320l-1592 0c-176,0 -319,144 -319,320l0 4060c0,176 143,320 319,320l138 0m18 -4632c0,-4 -4,-9 -13,-9 -30,0 -54,24 -54,54 0,30 24,55 54,55 31,0 55,-25 55,-55 0,-30 -24,-54 -55,-54m562 52c-5,-19 -16,-35 -64,-35l-41 0c-21,0 -39,18 -39,40l0 0c0,21 18,39 39,39l399 0c21,0 39,-18 39,-39l0 0c0,-22 -18,-40 -39,-40l-358 0m596 19c-3,-12 -7,-21 -28,-21l-16 0c-24,0 -43,20 -43,43l0 0c0,23 19,43 43,43l85 0c23,0 42,-20 42,-43l0 0c0,-23 -19,-43 -42,-43l-69 0m-464 4358c-9,-35 -21,-60 -81,-60l-49 0c-68,0 -124,56 -124,124l0 0c0,68 56,124 124,124l337 0c69,0 125,-56 125,-124l0 0c0,-68 -56,-124 -125,-124l-288 0m845 -4305c0,-6 -5,-11 -15,-12 -36,0 -65,29 -65,65 0,36 29,65 65,65 36,0 65,-29 65,-65 0,-36 -29,-65 -65,-65"/>
 </g>
</svg>
