<?xml version="1.0" encoding="UTF-8"?>
<!DOCTYPE svg PUBLIC "-//W3C//DTD SVG 1.1//EN" "http://www.w3.org/Graphics/SVG/1.1/DTD/svg11.dtd">
<!-- Creator: CorelDRAW X8 -->
<svg xmlns="http://www.w3.org/2000/svg" xml:space="preserve" width="40mm" height="60mm" version="1.1" style="shape-rendering:geometricPrecision; text-rendering:geometricPrecision; image-rendering:optimizeQuality; fill-rule:evenodd; clip-rule:evenodd"
viewBox="0 0 4000 6000"
 xmlns:xlink="http://www.w3.org/1999/xlink">
 <defs>
  <style type="text/css">
   <![CDATA[
    .str0 {stroke:black;stroke-width:7.62}
    .fil0 {fill:none}
   ]]>
  </style>
 </defs>
 <g id="图层_x0020_1">
  <metadata id="CorelCorpID_0Corel-Layer"/>
  <path class="fil0 str0" d="M985 5350l1897 0c120,0 219,-98 219,-219l0 -4262c0,-121 -99,-219 -219,-219l-561 0c-6,0 -12,1 -15,4l-39 29c-7,5 -9,6 -19,6l-156 0c-12,0 -29,14 -29,35l0 51c0,34 -28,61 -62,61l0 0c-34,0 -61,-27 -61,-61l0 -56c0,-19 -23,-30 -35,-30l-156 0c-12,0 -13,-1 -20,-6l-36 -29c-4,-3 -5,-4 -14,-4l-561 0c-120,0 -219,98 -219,219l0 4262c0,121 99,219 219,219l109 0"/>
 </g>
</svg>
