<?xml version="1.0" encoding="UTF-8"?>
<!DOCTYPE svg PUBLIC "-//W3C//DTD SVG 1.1//EN" "http://www.w3.org/Graphics/SVG/1.1/DTD/svg11.dtd">
<!-- Creator: CorelDRAW X8 -->
<svg xmlns="http://www.w3.org/2000/svg" xml:space="preserve" width="40mm" height="60mm" version="1.1" style="shape-rendering:geometricPrecision; text-rendering:geometricPrecision; image-rendering:optimizeQuality; fill-rule:evenodd; clip-rule:evenodd"
viewBox="0 0 4000 6000"
 xmlns:xlink="http://www.w3.org/1999/xlink">
 <defs>
  <style type="text/css">
   <![CDATA[
    .str0 {stroke:black;stroke-width:7.62}
    .fil0 {fill:none}
   ]]>
  </style>
 </defs>
 <g id="图层_x0020_1">
  <metadata id="CorelCorpID_0Corel-Layer"/>
  <path class="fil0 str0" d="M2040 755c-1,-13 -13,-26 -37,-28 -88,0 -159,71 -159,159 0,88 71,159 159,159 87,0 159,-71 159,-159 0,-88 -72,-159 -159,-159m22 396c0,-7 -6,-13 -19,-14 -44,0 -80,36 -80,80 0,44 36,80 80,80 44,0 80,-36 80,-80 0,-44 -36,-80 -80,-80m-862 4241c-13,-34 -39,-52 -64,-52 -110,0 -200,-90 -200,-201l0 -4246c0,-111 90,-201 200,-201l1840 0c110,0 200,90 200,201l0 4246c0,111 -90,201 -200,201l-1937 0"/>
 </g>
</svg>
