<?xml version="1.0" encoding="UTF-8"?>
<!DOCTYPE svg PUBLIC "-//W3C//DTD SVG 1.1//EN" "http://www.w3.org/Graphics/SVG/1.1/DTD/svg11.dtd">
<!-- Creator: CorelDRAW 2020 (64-Bit) -->
<svg xmlns="http://www.w3.org/2000/svg" xml:space="preserve" width="40mm" height="60mm" version="1.1" style="shape-rendering:geometricPrecision; text-rendering:geometricPrecision; image-rendering:optimizeQuality; fill-rule:evenodd; clip-rule:evenodd"
viewBox="0 0 4000 6000"
 xmlns:xlink="http://www.w3.org/1999/xlink"
 xmlns:xodm="http://www.corel.com/coreldraw/odm/2003">
 <defs>
  <style type="text/css">
   <![CDATA[
    .str1 {stroke:#332C2B;stroke-width:20;stroke-miterlimit:22.9256}
    .str0 {stroke:#E62129;stroke-width:20;stroke-miterlimit:22.9256}
    .fil0 {fill:none}
   ]]>
  </style>
   <clipPath id="id0">
    <rect x="-38437.39" y="-5395.13" width="8012.58" height="16961.96"/>
   </clipPath>
 </defs>
 <g id="图层_x0020_1">
  <metadata id="CorelCorpID_0Corel-Layer"/>
  <g style="clip-path:url(#id0)">
   <image transform="matrix(1.49637E-14 0.564996 -0.564996 1.49637E-14 -30424.8 -5395.13)" x="0" y="0" width="30021.38" height="14181.66" xlink:href="GH10i -11i（前膜带壳）_Images\GH10i -11i（前膜带壳）_ImgID1.png"/>
  </g>
  <rect class="fil0 str0" x="-38298.14" y="-5157.35" width="7663.99" height="16516"/>
  <path class="fil0 str0" d="M-37285.17 -4908.64l1639.06 0c58.38,0 139.85,66.41 180.68,66.41l655.27 0c99.77,0 86.54,99.19 86.54,159.04 0,144.3 116.98,261.28 261.28,261.28 144.3,0 261.28,-116.98 261.28,-261.28 0,-59.85 -11.54,-159.04 86.24,-159.04l682.06 0c40.83,0 92.2,-66.41 159.51,-66.41l1626.15 0c439.99,0 800,360.01 800,800l0 14418.28c0,440 -360.01,800 -800,800l-5638.07 0c-440.01,0 -800,-360 -800,-800l0 -14418.28c0,-440 359.99,-800 800,-800z"/>
  <path class="fil0 str1" d="M-4419.15 6487.41l0 -6114.5c0,-433.91 -357.76,-788.96 -795.01,-788.96l-14328.28 0c-437.25,0 -795.01,355.04 -795.01,788.96l0 1603.69c0,66.38 66,117.04 66,157.3l0 672.64c0,96.43 98.57,85.05 158.04,85.05 143.4,0 259.65,115.37 259.65,257.67 0,142.31 -116.25,257.67 -259.65,257.67 -59.47,0 -158.04,-13.04 -158.04,85.35l0 646.22c0,40.26 -66,120.61 -66,178.18l0 1616.42c0,433.94 357.75,788.95 795.01,788.95l14328.28 0c437.26,0 795.01,-355.01 795.01,-788.95 0,-433.94 46.82,-615.17 105.03,-758.05"/>
  <path class="fil0 str1" d="M1022.36 5311.99l1790.87 0c128.04,0 232.81,-104.77 232.81,-232.81l0 -4195.84c0,-128.04 -104.77,-232.81 -232.81,-232.81l-473.22 0c-19.59,0 -34.54,19.33 -46.42,19.33l-198.49 0c-28.45,0 -25.09,28.86 -25.09,46.28 0,41.99 -34.04,76.03 -76.04,76.03 -41.99,0 -76.03,-34.04 -76.03,-76.03 0,-17.42 3.85,-46.28 -25.19,-46.28l-190.68 0c-11.89,0 -35.6,-19.33 -52.58,-19.33l-476.98 0c-128.05,0 -232.81,104.76 -232.81,232.81l0 4195.84c0,128.05 104.76,232.81 232.81,232.81 128.04,0 189.93,16.21 227.86,38.54"/>
 </g>
</svg>
