<?xml version="1.0" encoding="UTF-8"?>
<!DOCTYPE svg PUBLIC "-//W3C//DTD SVG 1.1//EN" "http://www.w3.org/Graphics/SVG/1.1/DTD/svg11.dtd">
<!-- Creator: CorelDRAW X8 -->
<svg xmlns="http://www.w3.org/2000/svg" xml:space="preserve" width="40mm" height="60mm" version="1.1" style="shape-rendering:geometricPrecision; text-rendering:geometricPrecision; image-rendering:optimizeQuality; fill-rule:evenodd; clip-rule:evenodd"
viewBox="0 0 4000 6000"
 xmlns:xlink="http://www.w3.org/1999/xlink">
 <defs>
  <style type="text/css">
   <![CDATA[
    .str0 {stroke:#332C2B;stroke-width:7.62}
    .fil0 {fill:none}
   ]]>
  </style>
 </defs>
 <g id="图层_x0020_1">
  <metadata id="CorelCorpID_0Corel-Layer"/>
  <path class="fil0 str0" d="M989 5350l1011 0 925 0c23,0 30,-3 48,-17l118 -93c13,-13 17,-20 17,-43l0 -4369c0,-23 -6,-34 -17,-45l-127 -120c-12,-12 -22,-13 -40,-13 -170,0 -295,0 -465,0 -16,0 -24,6 -29,15l-26 37c-7,12 -12,13 -26,13l-18 0 -21 0c-70,5 -90,5 -144,41 -119,78 -104,168 -195,165l0 0 0 0 0 0 0 0c-91,3 -76,-87 -195,-165 -54,-36 -74,-36 -144,-41l-21 0 -18 0c-14,0 -19,-1 -26,-13l-26 -37c-5,-9 -13,-15 -29,-15 -170,0 -295,0 -465,0 -18,0 -28,1 -40,13l-127 120c-11,11 -17,22 -17,45l0 4369c0,23 4,30 17,43l118 93c18,14 25,17 48,17l20 0"/>
 </g>
</svg>
