<?xml version="1.0" encoding="UTF-8"?>
<!DOCTYPE svg PUBLIC "-//W3C//DTD SVG 1.1//EN" "http://www.w3.org/Graphics/SVG/1.1/DTD/svg11.dtd">
<!-- Creator: CorelDRAW X8 -->
<svg xmlns="http://www.w3.org/2000/svg" xml:space="preserve" width="40mm" height="60mm" version="1.1" style="shape-rendering:geometricPrecision; text-rendering:geometricPrecision; image-rendering:optimizeQuality; fill-rule:evenodd; clip-rule:evenodd"
viewBox="0 0 4000 6000"
 xmlns:xlink="http://www.w3.org/1999/xlink">
 <defs>
  <style type="text/css">
   <![CDATA[
    .str0 {stroke:black;stroke-width:7.62}
    .fil0 {fill:none}
   ]]>
  </style>
 </defs>
 <g id="图层_x0020_1">
  <metadata id="CorelCorpID_0Corel-Layer"/>
  <path class="fil0 str0" d="M1314 5350c-26,-27 -55,-43 -101,-43l-41 0c-123,0 -223,-101 -223,-223l0 -4210c0,-123 100,-224 223,-224l458 0c2,0 4,1 6,3l4 4c1,2 4,3 6,3l237 0c24,0 44,20 44,44l0 40c0,41 33,73 73,73l0 0c40,0 73,-32 73,-73l0 -40c0,-24 20,-44 44,-44l240 0c2,0 4,-1 6,-3l4 -4c1,-2 4,-3 6,-3l455 0c123,0 223,101 223,224l0 4210c0,122 -100,223 -223,223l-1781 0"/>
 </g>
</svg>
