<?xml version="1.0" encoding="UTF-8"?>
<!DOCTYPE svg PUBLIC "-//W3C//DTD SVG 1.1//EN" "http://www.w3.org/Graphics/SVG/1.1/DTD/svg11.dtd">
<!-- Creator: CorelDRAW X8 -->
<svg xmlns="http://www.w3.org/2000/svg" xml:space="preserve" width="40mm" height="60mm" version="1.1" style="shape-rendering:geometricPrecision; text-rendering:geometricPrecision; image-rendering:optimizeQuality; fill-rule:evenodd; clip-rule:evenodd"
viewBox="0 0 4000 6000"
 xmlns:xlink="http://www.w3.org/1999/xlink">
 <defs>
  <style type="text/css">
   <![CDATA[
    .str0 {stroke:#332C2B;stroke-width:7.62}
    .fil0 {fill:none}
   ]]>
  </style>
 </defs>
 <g id="Layer_x0020_1">
  <metadata id="CorelCorpID_0Corel-Layer"/>
  <path class="fil0 str0" d="M2063 2790c38,17 72,33 95,51l4 3c9,7 16,13 23,21 8,10 12,18 13,28 1,3 1,7 1,10 0,7 -1,14 -5,23 0,2 -1,4 -2,7 -1,2 -2,4 -2,5 -5,14 -9,26 -11,39 -1,6 -2,11 -2,17 0,15 4,31 11,48l1 4c4,10 8,20 10,30 1,4 2,7 2,11 0,11 -4,22 -12,33 -10,13 -23,24 -34,33 -31,25 -73,47 -120,63 -41,13 -80,13 -93,13 -6,0 -12,0 -17,-1 -43,-4 -65,-15 -89,-33 -27,-20 -47,-54 -51,-88 -1,-5 -1,-8 -1,-12l0 -2c0,-15 5,-36 12,-56l1 -3c1,-3 2,-5 3,-7 2,-6 5,-11 6,-17 2,-4 2,-9 2,-14 0,-15 -6,-31 -12,-45 -1,-2 -2,-4 -3,-6 0,-3 -1,-4 -2,-5 -7,-18 -10,-26 -10,-42l0 -1c0,-1 0,-2 1,-3 1,-19 4,-30 13,-48 3,-8 11,-19 18,-28 7,-9 14,-13 19,-17 21,37 58,58 104,58 1,0 2,0 4,0 53,-2 94,-28 111,-73 4,1 9,3 12,4zm-383 174c-14,-14 -29,-38 -32,-65 2,0 4,0 6,0 37,-1 64,19 74,27 25,20 38,46 38,73 -1,1 -2,1 -3,1 -29,0 -63,-15 -83,-36zm-1058 -2182c-51,0 -108,3 -147,39 -40,37 -49,93 -50,145 -2,62 -2,4023 0,4085 1,51 10,99 50,135 39,36 102,37 153,37 34,0 219,0 219,0l1824 1c0,0 612,1 666,-1 46,-1 96,-7 132,-40 36,-32 43,-82 47,-128 2,-42 2,-4059 0,-4100 -4,-47 -13,-100 -50,-132 -37,-31 -83,-39 -129,-40 -54,-2 -666,-2 -666,-2l-1817 0c0,0 -197,1 -232,1zm3072 -127l0 4695 -25 0 0 -4695 25 0zm-59 4668l0 25 -3329 0 0 -25 3329 0zm0 -4673l0 25 -3329 0 0 -25 3329 0z"/>
 </g>
</svg>
