<?xml version="1.0" encoding="UTF-8"?>
<!DOCTYPE svg PUBLIC "-//W3C//DTD SVG 1.1//EN" "http://www.w3.org/Graphics/SVG/1.1/DTD/svg11.dtd">
<!-- Creator: CorelDRAW X8 -->
<svg xmlns="http://www.w3.org/2000/svg" xml:space="preserve" width="40mm" height="60mm" version="1.1" style="shape-rendering:geometricPrecision; text-rendering:geometricPrecision; image-rendering:optimizeQuality; fill-rule:evenodd; clip-rule:evenodd"
viewBox="0 0 4000 6000"
 xmlns:xlink="http://www.w3.org/1999/xlink">
 <defs>
  <style type="text/css">
   <![CDATA[
    .str0 {stroke:#332C2B;stroke-width:7.62}
    .fil0 {fill:none}
   ]]>
  </style>
 </defs>
 <g id="图层_x0020_1">
  <metadata id="CorelCorpID_0Corel-Layer"/>
  <path class="fil0 str0" d="M1014 5350l1857 0c102,0 186,-84 186,-186l0 -4328c0,-102 -84,-186 -186,-186l-1742 0c-102,0 -186,84 -186,186l0 4328c0,102 84,186 186,186l177 0m723 -4583c1,-20 -22,-36 -31,-36 -30,0 -55,24 -55,55 0,30 25,55 55,55 31,0 55,-25 55,-55 0,-31 -24,-55 -55,-55"/>
 </g>
</svg>
