<?xml version="1.0" encoding="UTF-8"?>
<!DOCTYPE svg PUBLIC "-//W3C//DTD SVG 1.1//EN" "http://www.w3.org/Graphics/SVG/1.1/DTD/svg11.dtd">
<!-- Creator: CorelDRAW X8 -->
<svg xmlns="http://www.w3.org/2000/svg" xml:space="preserve" width="40mm" height="60mm" version="1.1" style="shape-rendering:geometricPrecision; text-rendering:geometricPrecision; image-rendering:optimizeQuality; fill-rule:evenodd; clip-rule:evenodd"
viewBox="0 0 4000 6000"
 xmlns:xlink="http://www.w3.org/1999/xlink">
 <defs>
  <style type="text/css">
   <![CDATA[
    .str0 {stroke:black;stroke-width:7.62}
    .fil0 {fill:none}
   ]]>
  </style>
 </defs>
 <g id="图层_x0020_1">
  <metadata id="CorelCorpID_0Corel-Layer"/>
  <path class="fil0 str0" d="M837 5276l0 -4512c0,-48 42,-72 95,-78 249,-25 423,-30 687,-36 42,0 95,73 126,73l486 -1c110,0 98,-71 160,-70 237,4 419,24 657,35 93,4 115,26 115,77l0 4449c0,41 -3,62 -116,73 -349,33 -698,64 -1047,64 -357,0 -712,-43 -1068,-64 -66,-4 -95,-31 -95,-69l0 -22m655 -4414c0,-5 -4,-9 -13,-10 -31,0 -56,25 -56,56 0,31 25,56 56,56 31,0 56,-25 56,-56 0,-31 -25,-56 -56,-56"/>
 </g>
</svg>
