<?xml version="1.0" encoding="UTF-8"?>
<!DOCTYPE svg PUBLIC "-//W3C//DTD SVG 1.1//EN" "http://www.w3.org/Graphics/SVG/1.1/DTD/svg11.dtd">
<!-- Creator: CorelDRAW 2020 (64-Bit) -->
<svg xmlns="http://www.w3.org/2000/svg" xml:space="preserve" width="40mm" height="60mm" version="1.1" style="shape-rendering:geometricPrecision; text-rendering:geometricPrecision; image-rendering:optimizeQuality; fill-rule:evenodd; clip-rule:evenodd"
viewBox="0 0 4000 6000"
 xmlns:xlink="http://www.w3.org/1999/xlink"
 xmlns:xodm="http://www.corel.com/coreldraw/odm/2003">
 <defs>
  <style type="text/css">
   <![CDATA[
    .str0 {stroke:#332C2B;stroke-width:20;stroke-miterlimit:22.9256}
    .fil0 {fill:none}
   ]]>
  </style>
 </defs>
 <g id="图层_x0020_1">
  <metadata id="CorelCorpID_0Corel-Layer"/>
  <path class="fil0 str0" d="M-29103.13 6313.56l0 -430.49 0.08 0c330,0 600,-270 600,-600l0 -6096.64c0,-330 -270,-600 -600,-600l-0.08 0 0 -350c0,-27.5 -22.54,-50 -49.77,-50l-7967.21 0 0 228.32c0,55 -45,100 -100,100l-1003.86 0c-55,0 -100,-45 -100,-100l0 -228.32 -476.56 0 0 228.32c0,55 -45,100 -100,100l-1943.13 0c-55,0 -100,-45 -100,-100l0 -228.32 -3017.83 0c-27.23,0 -49.77,22.5 -49.77,50l0 350c-329.93,0.09 -599.84,270.05 -599.84,600l0 6096.64c0,329.95 269.91,599.91 599.84,600l0 350.01c0,27.5 22.54,49.99 49.77,49.99l14808.59 0c27.23,0 49.77,-22.49 49.77,-49.99 0,-27.5 6.55,-92.8 29.7,-116.5"/>
  <path class="fil0 str0" d="M-44280.95 2227.49c0,119.87 97.17,217.04 217.04,217.04 119.87,0 217.04,-97.17 217.04,-217.04 0,-119.87 -97.17,-217.04 -217.04,-217.04 -119.87,0 -217.04,97.17 -217.04,217.04 0,119.87 141.08,161.78 164.24,165.09"/>
  <g id="_2271988203824">
   <path class="fil0 str0" d="M807.73 5180.58l125.61 0 0 0.02c0,96.29 78.78,175.07 175.07,175.07l1778.87 0c96.29,0 175.07,-78.78 175.07,-175.07l0 -0.02 102.12 0c8.03,0 14.59,-6.58 14.59,-14.52l0 -2324.67 -66.62 0c-16.04,0 -29.17,-13.13 -29.17,-29.18l0 -292.91c0,-16.05 13.13,-29.18 29.17,-29.18l66.62 0 0 -139.05 -66.62 0c-16.04,0 -29.17,-13.13 -29.17,-29.17l0 -566.97c0,-16.05 13.13,-29.18 29.17,-29.18l66.62 0 0 -880.54c0,-7.94 -6.56,-14.52 -14.59,-14.52l-102.12 0c-0.02,-96.27 -78.79,-175.02 -175.07,-175.02l-1778.87 0c-96.27,0 -175.04,78.75 -175.07,175.02l-102.12 0c-8.03,0 -14.59,6.58 -14.59,14.52l0 4320.85c0,7.94 6.56,14.52 14.59,14.52 8.02,0 27.07,1.91 33.99,8.66"/>
   <path class="fil0 str0" d="M1999.97 752c-34.98,0 -63.33,28.35 -63.33,63.33 0,34.97 28.35,63.33 63.33,63.33 34.97,0 63.32,-28.36 63.32,-63.33 0,-34.98 -28.35,-63.33 -63.32,-63.33 -34.98,0 -47.21,41.16 -48.17,47.92"/>
  </g>
 </g>
</svg>
