<?xml version="1.0" encoding="UTF-8"?>
<!DOCTYPE svg PUBLIC "-//W3C//DTD SVG 1.1//EN" "http://www.w3.org/Graphics/SVG/1.1/DTD/svg11.dtd">
<!-- Creator: CorelDRAW 2020 (64-Bit) -->
<svg xmlns="http://www.w3.org/2000/svg" xml:space="preserve" width="40mm" height="60mm" version="1.1" style="shape-rendering:geometricPrecision; text-rendering:geometricPrecision; image-rendering:optimizeQuality; fill-rule:evenodd; clip-rule:evenodd"
viewBox="0 0 4000 6000"
 xmlns:xlink="http://www.w3.org/1999/xlink"
 xmlns:xodm="http://www.corel.com/coreldraw/odm/2003">
 <defs>
  <style type="text/css">
   <![CDATA[
    .str0 {stroke:black;stroke-width:7.62;stroke-miterlimit:22.9256}
    .fil0 {fill:none}
   ]]>
  </style>
 </defs>
 <g id="图层_x0020_1">
  <metadata id="CorelCorpID_0Corel-Layer"/>
  <path class="fil0 str0" d="M1008.92 5328.11l1846.89 0c122.87,0 223.41,-100.54 223.41,-223.41l0 -52.64 121.88 0c9.69,0 17.62,-7.93 17.62,-17.62l0 -2223.77c0,-9.71 -7.92,-17.62 -17.62,-17.62l-79.69 0c-8.07,0 -14.68,-6.61 -14.68,-14.68l0 -236.37c0,-8.08 6.61,-14.69 14.68,-14.69l79.69 0c9.7,0 17.62,-7.91 17.62,-17.62l0 -124.65c0,-9.7 -7.92,-17.62 -17.62,-17.62l-79.69 0c-8.07,0 -14.68,-6.6 -14.68,-14.68l0 -537.84c0,-8.07 6.61,-14.68 14.68,-14.68l79.69 0c9.7,0 17.62,-7.92 17.62,-17.62l0 -838.93c0,-9.69 -7.94,-17.62 -17.62,-17.62l-121.88 0 0 -52.64c0,-122.87 -100.54,-223.41 -223.41,-223.41l-1711.62 0c-122.87,0 -223.41,100.55 -223.41,223.41l0 52.64 -121.88 0c-9.68,0 -17.62,7.93 -17.62,17.62l0 4090.77c0,9.69 7.93,17.62 17.62,17.62l121.88 0 0 52.64c0,122.87 100.53,223.41 223.41,223.41l30.23 0c72.53,0 110.41,9.08 111.89,21.89"/>
 </g>
</svg>
