<?xml version="1.0" encoding="UTF-8"?>
<!DOCTYPE svg PUBLIC "-//W3C//DTD SVG 1.1//EN" "http://www.w3.org/Graphics/SVG/1.1/DTD/svg11.dtd">
<!-- Creator: CorelDRAW 2020 (64-Bit) -->
<svg xmlns="http://www.w3.org/2000/svg" xml:space="preserve" width="40mm" height="60mm" version="1.1" style="shape-rendering:geometricPrecision; text-rendering:geometricPrecision; image-rendering:optimizeQuality; fill-rule:evenodd; clip-rule:evenodd"
viewBox="0 0 4000 6000"
 xmlns:xlink="http://www.w3.org/1999/xlink"
 xmlns:xodm="http://www.corel.com/coreldraw/odm/2003">
 <defs>
  <style type="text/css">
   <![CDATA[
    .str0 {stroke:black;stroke-width:7.62;stroke-miterlimit:22.9256}
    .fil0 {fill:none}
   ]]>
  </style>
 </defs>
 <g id="图层_x0020_1">
  <metadata id="CorelCorpID_0Corel-Layer"/>
  <path class="fil0 str0" d="M2017.43 786.01c3.39,-21.79 -14.94,-37.07 -24.03,-37.77 -32.35,0 -58.57,26.22 -58.57,58.57 0,32.34 26.22,58.56 58.57,58.56 32.35,0 58.57,-26.22 58.57,-58.56 0,-32.35 -26.22,-58.57 -58.57,-58.57m-969.6 4578.21l1850.74 0c95.19,0 173.08,-77.89 173.08,-173.08l0 -4324.62c0,-95.2 -77.88,-173.08 -173.08,-173.08l-1762.28 0c-95.2,0 -173.08,77.88 -173.08,173.08l0 4324.62c0,95.19 77.88,173.08 173.08,173.08l24.98 0c74.34,0 115.55,10.27 129.42,29.22"/>
 </g>
</svg>
