<?xml version="1.0" encoding="UTF-8"?>
<!DOCTYPE svg PUBLIC "-//W3C//DTD SVG 1.1//EN" "http://www.w3.org/Graphics/SVG/1.1/DTD/svg11.dtd">
<!-- Creator: CorelDRAW X8 -->
<svg xmlns="http://www.w3.org/2000/svg" xml:space="preserve" width="40mm" height="60mm" version="1.1" style="shape-rendering:geometricPrecision; text-rendering:geometricPrecision; image-rendering:optimizeQuality; fill-rule:evenodd; clip-rule:evenodd"
viewBox="0 0 4000 6000"
 xmlns:xlink="http://www.w3.org/1999/xlink">
 <defs>
  <style type="text/css">
   <![CDATA[
    .str0 {stroke:black;stroke-width:7.62}
    .fil0 {fill:none}
   ]]>
  </style>
 </defs>
 <g id="图层_x0020_1">
  <metadata id="CorelCorpID_0Corel-Layer"/>
  <path class="fil0 str0" d="M1197 772c0,-5 -5,-10 -15,-11 -34,0 -63,28 -63,63 0,35 29,63 63,63 35,0 64,-28 64,-63 0,-35 -29,-63 -64,-63m-137 4562l1813 0c99,0 180,-81 180,-180l0 -4313c0,-99 -81,-180 -180,-180l-600 0c-3,0 -5,1 -7,3l-3 3c-2,2 -4,3 -7,3l-488 0c-3,0 -5,-1 -7,-3l-3 -3c-2,-2 -4,-3 -7,-3l-594 0c-99,0 -180,81 -180,180l0 4313c0,99 81,180 180,180l71 0c41,0 78,9 114,27"/>
 </g>
</svg>
