<?xml version="1.0" encoding="UTF-8"?>
<!DOCTYPE svg PUBLIC "-//W3C//DTD SVG 1.1//EN" "http://www.w3.org/Graphics/SVG/1.1/DTD/svg11.dtd">
<!-- Creator: CorelDRAW X8 -->
<svg xmlns="http://www.w3.org/2000/svg" xml:space="preserve" width="26.7264mm" height="47.0264mm" version="1.1" style="shape-rendering:geometricPrecision; text-rendering:geometricPrecision; image-rendering:optimizeQuality; fill-rule:evenodd; clip-rule:evenodd"
viewBox="0 0 2674 4706"
 xmlns:xlink="http://www.w3.org/1999/xlink">
 <defs>
  <style type="text/css">
   <![CDATA[
    .str0 {stroke:#332C2B;stroke-width:3.52232}
    .fil0 {fill:none}
   ]]>
  </style>
 </defs>
 <g id="图层_x0020_1">
  <metadata id="CorelCorpID_0Corel-Layer"/>
  <g id="_2579761107632">
   <path class="fil0 str0" d="M1250 4395l199 0c47,0 85,38 85,84l0 0c0,47 -34,85 -80,85 -68,0 -136,0 -204,0 -46,0 -85,-38 -85,-85l0 0c0,-46 39,-84 85,-84 0,0 2,0 2,0 126,-1 103,56 82,65"/>
   <path class="fil0 str0" d="M0 4621l2473 0c110,0 200,-90 200,-200l0 -4219c0,-110 -90,-200 -200,-200l-2247 0c-109,0 -199,90 -199,200l0 4219c0,110 90,200 199,200 0,0 5,0 5,0 107,-1 105,58 90,84"/>
   <path class="fil0 str0" d="M1684 117c0,-2 -1,-16 -9,-16 -21,0 -38,17 -38,38 0,21 17,38 38,38 21,0 38,-17 38,-38 0,-21 -17,-38 -38,-38"/>
  </g>
 </g>
</svg>
