<?xml version="1.0" encoding="UTF-8"?>
<!DOCTYPE svg PUBLIC "-//W3C//DTD SVG 1.1//EN" "http://www.w3.org/Graphics/SVG/1.1/DTD/svg11.dtd">
<!-- Creator: CorelDRAW X8 -->
<svg xmlns="http://www.w3.org/2000/svg" xml:space="preserve" width="40mm" height="60mm" version="1.1" style="shape-rendering:geometricPrecision; text-rendering:geometricPrecision; image-rendering:optimizeQuality; fill-rule:evenodd; clip-rule:evenodd"
viewBox="0 0 4000 6000"
 xmlns:xlink="http://www.w3.org/1999/xlink">
 <defs>
  <style type="text/css">
   <![CDATA[
    .str0 {stroke:#332C2B;stroke-width:7.62}
    .fil0 {fill:none;fill-rule:nonzero}
   ]]>
  </style>
 </defs>
 <g id="图层_x0020_1">
  <metadata id="CorelCorpID_0Corel-Layer"/>
  <path class="fil0 str0" d="M1272 697c19,0 35,17 35,38l0 93c0,21 -16,39 -35,39l-94 0c-19,0 -35,-18 -35,-39l0 -93c0,-21 16,-38 35,-38l94 0zm1551 2c20,0 37,16 37,37l0 218c0,20 -17,37 -37,37l-69 0c-20,0 -37,-17 -37,-37l0 -218c0,-21 17,-37 37,-37l69 0zm4 320c20,0 36,16 36,36l0 220c0,20 -16,36 -36,36l-208 0c-20,0 -36,-16 -36,-36l0 -220c0,-20 16,-36 36,-36l208 0zm-274 339c0,19 -17,35 -37,35l-207 0c-20,0 -37,-16 -37,-35l0 -624c0,-19 17,-35 37,-35l207 0c20,0 37,16 37,35l0 624zm276 -19c20,0 37,16 37,37l0 218c0,20 -17,36 -37,36l-69 0c-20,0 -37,-16 -37,-36l0 -218c0,-21 17,-37 37,-37l69 0zm-2 319c20,0 36,16 36,36l0 220c0,20 -16,36 -36,36l-208 0c-20,0 -36,-16 -36,-36l0 -220c0,-20 16,-36 36,-36l208 0zm0 322c20,0 36,15 36,35l0 299c0,20 -16,36 -36,36l-208 0c-20,0 -36,-16 -36,-36l0 -299c0,-20 16,-35 36,-35l208 0zm-311 397c20,0 36,16 36,36l0 220c0,20 -16,36 -36,36l-206 0c-20,0 -37,-16 -37,-36l0 -220c0,-20 17,-36 37,-36l206 0zm311 1c20,0 36,16 36,36l0 1498c0,20 -16,36 -36,36l-208 0c-20,0 -36,-16 -36,-36l0 -1498c0,-20 16,-36 36,-36l208 0zm-517 1571c-20,0 -37,-16 -37,-36l0 -221c0,-20 17,-37 37,-37l206 0c20,0 36,17 36,37l0 221c0,20 -16,36 -36,36l-206 0zm517 26c20,0 36,16 36,36l0 299c0,19 -16,35 -36,35l-208 0c-20,0 -36,-16 -36,-35l0 -299c0,-20 16,-36 36,-36l208 0zm-1 400c20,0 36,16 36,36l0 223c0,20 -16,37 -36,37l-206 0c-20,0 -36,-17 -36,-37l0 -223c0,-20 16,-36 36,-36l206 0zm0 318c20,0 36,16 36,36l0 223c0,20 -16,37 -36,37l-206 0c-20,0 -36,-17 -36,-37l0 -223c0,-20 16,-36 36,-36l206 0zm0 320c20,0 36,16 36,36l0 223c0,20 -16,36 -36,36l-206 0c-20,0 -36,-16 -36,-36l0 -223c0,-20 16,-36 36,-36l206 0zm-826 297c-20,0 -36,-16 -36,-36l0 -462c0,-20 16,-36 36,-36l207 0c21,0 37,16 37,36l0 462c0,20 -16,36 -37,36l-207 0zm-312 -4c-20,0 -37,-16 -37,-36l0 -383c0,-20 17,-36 37,-36l207 0c20,0 37,16 37,36l0 383c0,20 -17,36 -37,36l-207 0zm-311 -1c-20,0 -36,-17 -36,-37l0 -221c0,-20 16,-36 36,-36l206 0c20,0 36,16 36,36l0 221c0,20 -16,37 -36,37l-206 0zm-199 0c-19,0 -35,-16 -35,-36l0 -242c0,-20 16,-36 35,-36l94 0c19,0 35,16 35,36l0 242c0,20 -16,36 -35,36l-94 0zm199 -320c-20,0 -36,-16 -36,-36l0 -221c0,-20 16,-37 36,-37l206 0c20,0 36,17 36,37l0 221c0,20 -16,36 -36,36l-206 0zm-199 -19c-19,0 -35,-16 -35,-36l0 -245c0,-20 16,-36 35,-36l94 0c19,0 35,16 35,36l0 245c0,20 -16,36 -35,36l-94 0zm163 -555c0,-20 16,-36 36,-36l206 0c20,0 36,16 36,36l0 222c0,20 -16,36 -36,36l-206 0c-20,0 -36,-16 -36,-36l0 -222zm-163 214c-19,0 -35,-16 -35,-36l0 -245c0,-20 16,-36 35,-36l94 0c19,0 35,16 35,36l0 245c0,20 -16,36 -35,36l-94 0zm0 -342c-19,0 -35,-16 -35,-36l0 -245c0,-20 16,-36 35,-36l94 0c19,0 35,16 35,36l0 245c0,20 -16,36 -35,36l-94 0zm0 -341c-19,0 -35,-16 -35,-36l0 -245c0,-20 16,-36 35,-36l94 0c19,0 35,16 35,36l0 245c0,20 -16,36 -35,36l-94 0zm0 -342c-19,0 -35,-16 -35,-36l0 -245c0,-20 16,-36 35,-36l94 0c19,0 35,16 35,36l0 245c0,20 -16,36 -35,36l-94 0zm0 -341c-19,0 -35,-16 -35,-36l0 -245c0,-20 16,-36 35,-36l94 0c19,0 35,16 35,36l0 245c0,20 -16,36 -35,36l-94 0zm0 -342c-19,0 -35,-16 -35,-36l0 -245c0,-19 16,-36 35,-36l94 0c19,0 35,17 35,36l0 245c0,20 -16,36 -35,36l-94 0zm0 -341c-19,0 -35,-16 -35,-36l0 -245c0,-20 16,-36 35,-36l94 0c19,0 35,16 35,36l0 245c0,20 -16,36 -35,36l-94 0zm0 -341c-19,0 -35,-17 -35,-37l0 -244c0,-20 16,-36 35,-36l94 0c19,0 35,16 35,36l0 244c0,20 -16,37 -35,37l-94 0zm0 -342c-19,0 -35,-16 -35,-36l0 -245c0,-20 16,-36 35,-36l94 0c19,0 35,16 35,36l0 245c0,20 -16,36 -35,36l-94 0zm0 -341c-19,0 -35,-17 -35,-36l0 -245c0,-20 16,-36 35,-36l94 0c19,0 35,16 35,36l0 245c0,19 -16,36 -35,36l-94 0zm199 -375l206 0c20,0 36,17 36,37l0 221c0,20 -16,36 -36,36l-206 0c-20,0 -36,-16 -36,-36l0 -221c0,-20 16,-37 36,-37zm206 -477c20,0 36,17 36,36l0 379c0,20 -16,36 -36,36l-208 0c-20,0 -36,-16 -36,-36l0 -379c0,-19 16,-36 36,-36l208 0zm348 35l0 222c0,20 -16,37 -36,37l-206 0c-20,0 -37,-17 -37,-37l0 -222c0,-20 17,-36 37,-36l206 0c20,0 36,16 36,36zm69 496c-21,0 -37,-16 -37,-36l0 -461c0,-19 16,-35 37,-35l207 0c20,0 36,16 36,35l0 461c0,20 -16,36 -36,36l-207 0zm-69 44c0,20 -16,36 -36,36l-206 0c-20,0 -37,-16 -37,-36l0 -221c0,-20 17,-37 37,-37l206 0c20,0 36,17 36,37l0 221zm311 241c0,20 -16,36 -36,36l-206 0c-20,0 -36,-16 -36,-36l0 -221c0,-20 16,-37 36,-37l206 0c20,0 36,17 36,37l0 221zm68 194c-20,0 -37,-16 -37,-36l0 -219c0,-20 17,-37 37,-37l206 0c20,0 36,17 36,37l0 219c0,20 -16,36 -36,36l-206 0zm-68 125c0,21 -16,37 -36,37l-206 0c-20,0 -36,-16 -36,-37l0 -221c0,-20 16,-36 36,-36l206 0c20,0 36,16 36,36l0 221zm68 195c-20,0 -37,-16 -37,-36l0 -220c0,-20 17,-36 37,-36l206 0c20,0 36,16 36,36l0 220c0,20 -16,36 -36,36l-206 0zm-68 125c0,20 -16,36 -36,36l-206 0c-20,0 -36,-16 -36,-36l0 -221c0,-20 16,-36 36,-36l206 0c20,0 36,16 36,36l0 221zm68 195c-20,0 -37,-17 -37,-37l0 -218c0,-20 17,-36 37,-36l206 0c20,0 36,16 36,36l0 218c0,20 -16,37 -36,37l-206 0zm-310 161c-20,0 -36,-16 -36,-36l0 -221c0,-20 16,-37 36,-37l206 0c20,0 36,17 36,37l0 221c0,20 -16,36 -36,36l-206 0zm-417 -373c20,0 36,16 36,36l0 221c0,20 -16,37 -36,37l-206 0c-20,0 -36,-17 -36,-37l0 -221c0,-20 16,-36 36,-36l206 0zm69 -124c0,-20 17,-36 37,-36l206 0c20,0 36,16 36,36l0 221c0,20 -16,37 -36,37l-206 0c-20,0 -37,-17 -37,-37l0 -221zm-69 -196c20,0 36,17 36,37l0 221c0,20 -16,36 -36,36l-206 0c-20,0 -36,-16 -36,-36l0 -221c0,-20 16,-37 36,-37l206 0zm69 -125c0,-20 17,-36 37,-36l206 0c20,0 36,16 36,36l0 221c0,20 -16,36 -36,36l-206 0c-20,0 -37,-16 -37,-36l0 -221zm0 -320c0,-20 17,-36 37,-36l206 0c20,0 36,16 36,36l0 222c0,20 -16,36 -36,36l-206 0c-20,0 -37,-16 -37,-36l0 -222zm-69 126c20,0 36,16 36,36l0 221c0,20 -16,37 -36,37l-206 0c-20,0 -36,-17 -36,-37l0 -221c0,-20 16,-36 36,-36l206 0zm348 1056c0,20 -16,36 -36,36l-206 0c-20,0 -37,-16 -37,-36l0 -221c0,-20 17,-37 37,-37l206 0c20,0 36,17 36,37l0 221zm311 239c0,20 -16,37 -36,37l-206 0c-20,0 -36,-17 -36,-37l0 -221c0,-20 16,-36 36,-36l206 0c20,0 36,16 36,36l0 221zm68 195c-20,0 -37,-17 -37,-37l0 -219c0,-20 17,-36 37,-36l206 0c20,0 36,16 36,36l0 219c0,20 -16,37 -36,37l-206 0zm-68 123c0,20 -16,37 -36,37l-206 0c-20,0 -36,-17 -36,-37l0 -221c0,-20 16,-36 36,-36l206 0c20,0 36,16 36,36l0 221zm68 196c-20,0 -37,-16 -37,-36l0 -219c0,-21 17,-37 37,-37l206 0c20,0 36,16 36,37l0 219c0,20 -16,36 -36,36l-206 0zm-68 124c0,20 -16,36 -36,36l-206 0c-20,0 -36,-16 -36,-36l0 -221c0,-20 16,-37 36,-37l206 0c20,0 36,17 36,37l0 221zm68 198c-20,0 -37,-17 -37,-37l0 -221c0,-20 17,-36 37,-36l206 0c20,0 36,16 36,36l0 221c0,20 -16,37 -36,37l-206 0zm-310 158c-20,0 -36,-17 -36,-37l0 -221c0,-20 16,-36 36,-36l206 0c20,0 36,16 36,36l0 221c0,20 -16,37 -36,37l-206 0zm-417 -373c20,0 36,16 36,36l0 221c0,20 -16,36 -36,36l-206 0c-20,0 -36,-16 -36,-36l0 -221c0,-20 16,-36 36,-36l206 0zm69 -126c0,-20 17,-36 37,-36l206 0c20,0 36,16 36,36l0 221c0,20 -16,37 -36,37l-206 0c-20,0 -37,-17 -37,-37l0 -221zm-69 -194c20,0 36,16 36,36l0 221c0,21 -16,37 -36,37l-206 0c-20,0 -36,-16 -36,-37l0 -221c0,-20 16,-36 36,-36l206 0zm69 -124c0,-20 17,-36 37,-36l206 0c20,0 36,16 36,36l0 221c0,21 -16,37 -36,37l-206 0c-20,0 -37,-16 -37,-37l0 -221zm-69 -196c20,0 36,17 36,37l0 221c0,20 -16,36 -36,36l-206 0c-20,0 -36,-16 -36,-36l0 -221c0,-20 16,-37 36,-37l206 0zm0 -24l-206 0c-20,0 -36,-16 -36,-36l0 -221c0,-20 16,-37 36,-37l206 0c20,0 36,17 36,37l0 221c0,20 -16,36 -36,36zm69 -99c0,-20 17,-37 37,-37l206 0c20,0 36,17 36,37l0 221c0,20 -16,36 -36,36l-206 0c-20,0 -37,-16 -37,-36l0 -221zm279 1180c0,20 -16,36 -36,36l-206 0c-20,0 -37,-16 -37,-36l0 -221c0,-21 17,-37 37,-37l206 0c20,0 36,16 36,37l0 221zm311 239c0,20 -16,36 -36,36l-206 0c-20,0 -36,-16 -36,-36l0 -221c0,-20 16,-37 36,-37l206 0c20,0 36,17 36,37l0 221zm68 200c-20,0 -37,-17 -37,-37l0 -221c0,-20 17,-36 37,-36l206 0c20,0 36,16 36,36l0 221c0,20 -16,37 -36,37l-206 0zm-68 120c0,20 -16,36 -36,36l-206 0c-20,0 -36,-16 -36,-36l0 -222c0,-20 16,-36 36,-36l206 0c20,0 36,16 36,36l0 222zm68 199c-20,0 -37,-16 -37,-36l0 -221c0,-20 17,-37 37,-37l206 0c20,0 36,17 36,37l0 221c0,20 -16,36 -36,36l-206 0zm-658 -339c0,-20 17,-36 37,-36l206 0c20,0 36,16 36,36l0 222c0,20 -16,36 -36,36l-206 0c-20,0 -37,-16 -37,-36l0 -222zm-69 -197c20,0 36,16 36,36l0 221c0,20 -16,37 -36,37l-206 0c-20,0 -36,-17 -36,-37l0 -221c0,-20 16,-36 36,-36l206 0zm0 -26l-206 0c-20,0 -36,-16 -36,-36l0 -221c0,-20 16,-37 36,-37l206 0c20,0 36,17 36,37l0 221c0,20 -16,36 -36,36zm69 -98c0,-20 17,-36 37,-36l206 0c20,0 36,16 36,36l0 221c0,20 -16,37 -36,37l-206 0c-20,0 -37,-17 -37,-37l0 -221zm279 862c0,20 -16,37 -36,37l-206 0c-20,0 -37,-17 -37,-37l0 -221c0,-20 17,-36 37,-36l206 0c20,0 36,16 36,36l0 221zm378 -180l207 0c20,0 37,17 37,36l0 623c0,19 -17,35 -37,35l-207 0c-20,0 -37,-16 -37,-35l0 -623c0,-19 17,-36 37,-36zm-67 96c0,21 -16,37 -36,37l-206 0c-20,0 -36,-16 -36,-37l0 -212c0,-20 16,-37 36,-37l206 0c20,0 36,17 36,37l0 212zm-1064 -3498c-19,0 -35,-16 -35,-36l0 -245c0,-20 16,-36 35,-36l94 0c19,0 35,16 35,36l0 245c0,20 -16,36 -35,36l-94 0zm-77 -481l-12 651 -3 1609 4 1634 11 648c0,44 35,79 79,79l1644 0c43,0 78,-35 78,-79l9 -602 3 -1653 -3 -1679 -9 -608c0,-44 -35,-79 -78,-79l-1644 0c-44,0 -79,35 -79,79zm1182 4542c0,14 11,25 26,25l207 0c15,0 27,-11 27,-25l0 -623c0,-14 -12,-25 -27,-25l-207 0c-15,0 -26,11 -26,25l0 623zm-594 -2052l206 0c14,0 26,-12 26,-27l0 -221c0,-14 -12,-26 -26,-26l-206 0c-15,0 -27,12 -27,26l0 221c0,15 12,27 27,27zm-338 -407l0 221c0,14 12,26 26,26l206 0c15,0 26,-12 26,-26l0 -221c0,-15 -11,-27 -26,-27l-206 0c-14,0 -26,12 -26,27zm0 1278l0 221c0,15 12,27 26,27l206 0c15,0 26,-12 26,-27l0 -221c0,-14 -11,-26 -26,-26l-206 0c-14,0 -26,12 -26,26zm932 -1677l0 220c0,14 12,26 27,26l206 0c14,0 26,-12 26,-26l0 -220c0,-14 -12,-26 -26,-26l-206 0c-15,0 -27,12 -27,26zm-986 810l0 -245c0,-14 -11,-26 -25,-26l-94 0c-14,0 -25,12 -25,26l0 245c0,14 11,26 25,26l94 0c14,0 25,-12 25,-26zm1296 -809l0 1498c0,15 12,26 26,26l208 0c14,0 26,-11 26,-26l0 -1498c0,-15 -12,-26 -26,-26l-208 0c-14,0 -26,11 -26,26zm-51 1179l0 -221c0,-14 -12,-26 -26,-26l-206 0c-15,0 -27,12 -27,26l0 221c0,15 12,27 27,27l206 0c14,0 26,-12 26,-27zm51 418l0 299c0,14 12,25 26,25l208 0c14,0 26,-11 26,-25l0 -299c0,-14 -12,-26 -26,-26l-208 0c-14,0 -26,12 -26,26zm-1296 -2837l0 -245c0,-14 -11,-26 -25,-26l-94 0c-14,0 -25,12 -25,26l0 245c0,14 11,26 25,26l94 0c14,0 25,-12 25,-26zm392 2363l206 0c14,0 26,-12 26,-27l0 -221c0,-14 -12,-26 -26,-26l-206 0c-15,0 -27,12 -27,26l0 221c0,15 12,27 27,27zm543 214l0 -221c0,-14 -11,-26 -26,-26l-206 0c-14,0 -26,12 -26,26l0 221c0,15 12,27 26,27l206 0c15,0 26,-12 26,-27zm-26 718l-206 0c-14,0 -26,12 -26,27l0 212c0,15 12,27 26,27l206 0c15,0 26,-12 26,-27l0 -212c0,-15 -11,-27 -26,-27zm336 -556l0 -221c0,-15 -12,-27 -26,-27l-206 0c-15,0 -27,12 -27,27l0 221c0,14 12,26 27,26l206 0c14,0 26,-12 26,-26zm-1191 -462l0 221c0,15 12,26 26,26l206 0c15,0 26,-11 26,-26l0 -221c0,-15 -11,-26 -26,-26l-206 0c-14,0 -26,11 -26,26zm0 -320l0 221c0,15 12,27 26,27l206 0c15,0 26,-12 26,-27l0 -221c0,-14 -11,-26 -26,-26l-206 0c-14,0 -26,12 -26,26zm1191 1423l0 -221c0,-15 -12,-27 -26,-27l-206 0c-15,0 -27,12 -27,27l0 221c0,14 12,26 27,26l206 0c14,0 26,-12 26,-26zm-336 -411l-206 0c-14,0 -26,12 -26,26l0 222c0,14 12,26 26,26l206 0c15,0 26,-12 26,-26l0 -222c0,-14 -11,-26 -26,-26zm336 91l0 -221c0,-14 -12,-26 -26,-26l-206 0c-15,0 -27,12 -27,26l0 221c0,15 12,26 27,26l206 0c14,0 26,-11 26,-26zm-26 -3525l-207 0c-15,0 -26,11 -26,25l0 624c0,14 11,25 26,25l207 0c15,0 27,-11 27,-25l0 -624c0,-14 -12,-25 -27,-25zm77 346l0 220c0,14 12,26 26,26l208 0c14,0 26,-12 26,-26l0 -220c0,-14 -12,-26 -26,-26l-208 0c-14,0 -26,12 -26,26zm-387 2129l-206 0c-14,0 -26,12 -26,27l0 221c0,14 12,26 26,26l206 0c15,0 26,-12 26,-26l0 -221c0,-15 -11,-27 -26,-27zm-517 1315l206 0c14,0 26,-12 26,-26l0 -222c0,-14 -12,-26 -26,-26l-206 0c-15,0 -27,12 -27,26l0 222c0,14 12,26 27,26zm-80 -728c0,-15 -12,-27 -26,-27l-206 0c-14,0 -26,12 -26,27l0 221c0,14 12,26 26,26l206 0c14,0 26,-12 26,-26l0 -221zm1118 -3035l0 218c0,14 12,26 27,26l69 0c15,0 27,-12 27,-26l0 -218c0,-15 -12,-27 -27,-27l-69 0c-15,0 -27,12 -27,27zm-1038 2163l206 0c14,0 26,-12 26,-26l0 -221c0,-15 -12,-27 -26,-27l-206 0c-15,0 -27,12 -27,27l0 221c0,14 12,26 27,26zm904 -884l0 299c0,14 12,26 26,26l208 0c14,0 26,-12 26,-26l0 -299c0,-14 -12,-25 -26,-25l-208 0c-14,0 -26,11 -26,25zm-984 479c0,-15 -12,-26 -26,-26l-206 0c-14,0 -26,11 -26,26l0 221c0,14 12,26 26,26l206 0c14,0 26,-12 26,-26l0 -221zm597 1330l-206 0c-14,0 -26,11 -26,26l0 221c0,14 12,26 26,26l206 0c15,0 26,-12 26,-26l0 -221c0,-15 -11,-26 -26,-26zm-311 721l-206 0c-15,0 -27,12 -27,26l0 221c0,15 12,26 27,26l206 0c14,0 26,-11 26,-26l0 -221c0,-14 -12,-26 -26,-26zm0 -961l-206 0c-15,0 -27,12 -27,27l0 221c0,14 12,26 27,26l206 0c14,0 26,-12 26,-26l0 -221c0,-15 -12,-27 -26,-27zm698 -1890l0 220c0,15 12,26 26,26l208 0c14,0 26,-11 26,-26l0 -220c0,-14 -12,-26 -26,-26l-208 0c-14,0 -26,12 -26,26zm-904 2484l206 0c14,0 26,-12 26,-27l0 -221c0,-14 -12,-26 -26,-26l-206 0c-15,0 -27,12 -27,26l0 221c0,15 12,27 27,27zm-536 -3443l0 93c0,16 11,28 25,28l94 0c14,0 25,-12 25,-28l0 -93c0,-15 -11,-28 -25,-28l-94 0c-14,0 -25,13 -25,28zm1053 533l-206 0c-14,0 -26,12 -26,27l0 221c0,14 12,26 26,26l206 0c15,0 26,-12 26,-26l0 -221c0,-15 -11,-27 -26,-27zm-311 -241l-206 0c-15,0 -27,12 -27,27l0 221c0,14 12,26 27,26l206 0c14,0 26,-12 26,-26l0 -221c0,-15 -12,-27 -26,-27zm-233 -292l0 222c0,15 12,27 27,27l206 0c14,0 26,-12 26,-27l0 -222c0,-14 -12,-26 -26,-26l-206 0c-15,0 -27,12 -27,26zm571 460l0 -461c0,-14 -12,-25 -26,-25l-207 0c-15,0 -27,11 -27,25l0 461c0,14 12,26 27,26l207 0c14,0 26,-12 26,-26zm-936 3394l0 -245c0,-15 -11,-26 -25,-26l-94 0c-14,0 -25,11 -25,26l0 245c0,14 11,26 25,26l94 0c14,0 25,-12 25,-26zm286 70c15,0 26,-12 26,-26l0 -222c0,-14 -11,-26 -26,-26l-206 0c-14,0 -26,12 -26,26l0 222c0,14 12,26 26,26l206 0zm959 -2665l0 -220c0,-14 -12,-26 -26,-26l-206 0c-15,0 -27,12 -27,26l0 220c0,14 12,26 27,26l206 0c14,0 26,-12 26,-26zm-336 -406l-206 0c-14,0 -26,12 -26,26l0 221c0,15 12,27 26,27l206 0c15,0 26,-12 26,-27l0 -221c0,-14 -11,-26 -26,-26zm-909 3342l0 -245c0,-14 -11,-26 -25,-26l-94 0c-14,0 -25,12 -25,26l0 245c0,14 11,26 25,26l94 0c14,0 25,-12 25,-26zm1245 -3256l0 -219c0,-15 -12,-27 -26,-27l-206 0c-15,0 -27,12 -27,27l0 219c0,15 12,26 27,26l206 0c14,0 26,-11 26,-26zm-1245 1207l0 -245c0,-14 -11,-25 -25,-25l-94 0c-14,0 -25,11 -25,25l0 245c0,15 11,26 25,26l94 0c14,0 25,-11 25,-26zm0 -683l0 -244c0,-15 -11,-26 -25,-26l-94 0c-14,0 -25,11 -25,26l0 244c0,15 11,26 25,26l94 0c14,0 25,-11 25,-26zm0 1366l0 -245c0,-14 -11,-26 -25,-26l-94 0c-14,0 -25,12 -25,26l0 245c0,15 11,26 25,26l94 0c14,0 25,-11 25,-26zm0 -1024l0 -245c0,-14 -11,-26 -25,-26l-94 0c-14,0 -25,12 -25,26l0 245c0,14 11,26 25,26l94 0c14,0 25,-12 25,-26zm1245 732l0 -219c0,-15 -12,-27 -26,-27l-206 0c-15,0 -27,12 -27,27l0 219c0,14 12,26 27,26l206 0c14,0 26,-12 26,-26zm-1245 -1415l0 -245c0,-14 -11,-26 -25,-26l-94 0c-14,0 -25,12 -25,26l0 245c0,14 11,26 25,26l94 0c14,0 25,-12 25,-26zm0 -341l0 -245c0,-15 -11,-26 -25,-26l-94 0c-14,0 -25,11 -25,26l0 245c0,14 11,26 25,26l94 0c14,0 25,-12 25,-26zm0 2390l0 -245c0,-14 -11,-26 -25,-26l-94 0c-14,0 -25,12 -25,26l0 245c0,14 11,26 25,26l94 0c14,0 25,-12 25,-26zm80 -2445l206 0c15,0 26,-12 26,-26l0 -221c0,-15 -11,-26 -26,-26l-206 0c-14,0 -26,11 -26,26l0 221c0,14 12,26 26,26zm-80 2786l0 -245c0,-14 -11,-26 -25,-26l-94 0c-14,0 -25,12 -25,26l0 245c0,15 11,26 25,26l94 0c14,0 25,-11 25,-26zm52 -3511l0 379c0,14 12,26 26,26l208 0c15,0 26,-12 26,-26l0 -379c0,-14 -11,-26 -26,-26l-208 0c-14,0 -26,12 -26,26zm260 4213l0 -221c0,-15 -12,-27 -26,-27l-206 0c-14,0 -26,12 -26,27l0 221c0,14 12,26 26,26l206 0c14,0 26,-12 26,-26zm286 -2641l-206 0c-15,0 -27,11 -27,26l0 221c0,14 12,26 27,26l206 0c14,0 26,-12 26,-26l0 -221c0,-15 -12,-26 -26,-26zm-544 -773l0 221c0,15 12,27 26,27l206 0c15,0 26,-12 26,-27l0 -221c0,-14 -11,-26 -26,-26l-206 0c-14,0 -26,12 -26,26zm883 3739l0 -462c0,-14 -12,-26 -27,-26l-207 0c-14,0 -26,12 -26,26l0 462c0,14 12,26 26,26l207 0c15,0 27,-12 27,-26zm360 -225l0 223c0,14 12,26 26,26l206 0c14,0 26,-12 26,-26l0 -223c0,-15 -12,-26 -26,-26l-206 0c-14,0 -26,11 -26,26zm-905 -3428l206 0c14,0 26,-12 26,-26l0 -222c0,-14 -12,-26 -26,-26l-206 0c-15,0 -27,12 -27,26l0 222c0,14 12,26 27,26zm853 1331l0 -219c0,-15 -12,-26 -26,-26l-206 0c-15,0 -27,11 -27,26l0 219c0,15 12,27 27,27l206 0c14,0 26,-12 26,-27zm-336 -1044l-206 0c-14,0 -26,11 -26,26l0 221c0,15 12,26 26,26l206 0c15,0 26,-11 26,-26l0 -221c0,-15 -11,-26 -26,-26zm0 957l-206 0c-14,0 -26,12 -26,26l0 221c0,15 12,26 26,26l206 0c15,0 26,-11 26,-26l0 -221c0,-14 -11,-26 -26,-26zm388 1864l0 223c0,15 12,26 26,26l206 0c14,0 26,-11 26,-26l0 -223c0,-14 -12,-26 -26,-26l-206 0c-14,0 -26,12 -26,26zm-905 -2789l206 0c14,0 26,-11 26,-26l0 -221c0,-15 -12,-26 -26,-26l-206 0c-15,0 -27,11 -27,26l0 221c0,15 12,26 27,26zm517 607l-206 0c-14,0 -26,12 -26,26l0 221c0,15 12,27 26,27l206 0c15,0 26,-12 26,-27l0 -221c0,-14 -11,-26 -26,-26zm388 1864l0 223c0,15 12,27 26,27l206 0c14,0 26,-12 26,-27l0 -223c0,-14 -12,-26 -26,-26l-206 0c-14,0 -26,12 -26,26zm-362 -1936l0 -221c0,-15 -11,-27 -26,-27l-206 0c-14,0 -26,12 -26,27l0 221c0,14 12,26 26,26l206 0c15,0 26,-12 26,-26zm-935 2794l0 -242c0,-15 -11,-26 -25,-26l-94 0c-14,0 -25,11 -25,26l0 242c0,14 11,26 25,26l94 0c14,0 25,-12 25,-26zm1245 -2956l0 -218c0,-14 -12,-26 -26,-26l-206 0c-15,0 -27,12 -27,26l0 218c0,15 12,27 27,27l206 0c14,0 26,-12 26,-27zm-620 2957l0 -383c0,-14 -12,-26 -27,-26l-207 0c-15,0 -26,12 -26,26l0 383c0,15 11,26 26,26l207 0c15,0 27,-11 27,-26zm-571 -3096l0 221c0,15 12,27 26,27l206 0c15,0 26,-12 26,-27l0 -221c0,-14 -11,-26 -26,-26l-206 0c-14,0 -26,12 -26,26zm258 3094l0 -221c0,-14 -12,-26 -26,-26l-206 0c-14,0 -26,12 -26,26l0 221c0,15 12,27 26,27l206 0c14,0 26,-12 26,-27zm-258 -3413l0 221c0,14 12,26 26,26l206 0c15,0 26,-12 26,-26l0 -221c0,-15 -11,-27 -26,-27l-206 0c-14,0 -26,12 -26,27zm338 407l206 0c14,0 26,-12 26,-27l0 -221c0,-14 -12,-26 -26,-26l-206 0c-15,0 -27,12 -27,26l0 221c0,15 12,27 27,27zm1044 -886l0 218c0,14 12,26 27,26l69 0c15,0 27,-12 27,-26l0 -218c0,-15 -12,-27 -27,-27l-69 0c-15,0 -27,12 -27,27z"/>
 </g>
</svg>
