<?xml version="1.0" encoding="UTF-8"?>
<!DOCTYPE svg PUBLIC "-//W3C//DTD SVG 1.1//EN" "http://www.w3.org/Graphics/SVG/1.1/DTD/svg11.dtd">
<!-- Creator: CorelDRAW -->
<svg xmlns="http://www.w3.org/2000/svg" xml:space="preserve" width="40mm" height="60mm" style="shape-rendering:geometricPrecision; text-rendering:geometricPrecision; image-rendering:optimizeQuality; fill-rule:evenodd; clip-rule:evenodd"
viewBox="0 0 40 60"
 xmlns:xlink="http://www.w3.org/1999/xlink">
 <defs>
  <style type="text/css">
   <![CDATA[
    .str0 {stroke:#1F1A17;stroke-width:0.194}
    .fil0 {fill:none;fill-rule:nonzero}
   ]]>
  </style>
 </defs>
 <g id="图层_x0020_1">
  <metadata id="CorelCorpID_0Corel-Layer"/>
  <g id="_215885424">
   <path id="_275905288" class="fil0 str0" d="M21.1491 50.6504c0.737,0.0023 0.9401,0.055 1.1981,0.3131 0.1862,0.1862 0.2895,0.4285 0.2895,0.6798 0,0.3411 -0.1874,0.6619 -0.5015,0.8594 -0.1402,0.0886 -0.2794,0.1178 -0.5711,0.1222"/>
   <line id="_275905312" class="fil0 str0" x1="21.5641" y1="52.6249" x2="18.258" y2= "52.6003" />
   <path id="_275905336" class="fil0 str0" d="M18.258 52.6003c-0.4016,-0.0674 -0.7483,-0.5071 -0.7483,-0.9503 0,-0.4543 0.3254,-0.8627 0.7562,-0.9513 0.1088,-0.0224 0.2412,-0.0269 0.6462,-0.0258 1.2767,0.0067 0.9727,-0.0314 2.2494,-0.0224"/>
   <line id="_46620312" class="fil0 str0" x1="29.175" y1="53.4787" x2="12.6296" y2= "53.5" />
   <path id="_275904784" class="fil0 str0" d="M12.6296 53.5c-1.7984,0 -1.7984,0 -1.9499,-0.0359"/>
   <line id="_46620456" class="fil0 str0" x1="10.6797" y1="53.4641" x2="10.5989" y2= "53.4439" />
   <path id="_46620096" class="fil0 str0" d="M10.5989 53.4439c-1.1487,-0.2389 -2.0148,-1.1667 -2.1988,-2.3548"/>
   <line id="_46623984" class="fil0 str0" x1="8.4001" y1="51.0891" x2="8.2834" y2= "18.8172" />
   <path id="_215885496" class="fil0 str0" d="M8.2834 18.8172c-0.028,-7.8105 -0.0079,-9.159 0.1458,-10.033 0.2166,-1.2206 1.3138,-2.1775 2.5826,-2.2504"/>
   <line id="_46623624" class="fil0 str0" x1="11.0118" y1="6.5338" x2="12.1976" y2= "6.5236" />
   <path id="_275914144" class="fil0 str0" d="M12.1976 6.5236c0.8358,-0.0067 1.0613,0.0023 1.1746,0.0461 0.1122,0.0448 0.1391,0.1335 0.138,0.4599"/>
   <line id="_274021760" class="fil0 str0" x1="13.5102" y1="7.0296" x2="13.5102" y2= "7.5289" />
   <path id="_215884896" class="fil0 str0" d="M13.5102 7.5289c-0.0011,0.534 0.2177,0.8167 0.6339,0.8167 0.3848,0 0.6283,-0.2648 0.6372,-0.6922"/>
   <line id="_215886336" class="fil0 str0" x1="14.7813" y1="7.6534" x2="14.7791" y2= "7.0173" />
   <path id="_215884032" class="fil0 str0" d="M14.7791 7.0173c-0.0023,-0.5082 -0.0023,-0.5082 1.1398,-0.5082"/>
   <line id="_215885688" class="fil0 str0" x1="15.9189" y1="6.5091" x2="16.0389" y2= "6.5091" />
   <path id="_214262888" class="fil0 str0" d="M16.0389 6.5091c1.0052,0 1.2947,0.0089 1.4405,0.0437 0.1459,0.0348 0.1829,0.1055 0.1885,0.3478"/>
   <line id="_215883744" class="fil0 str0" x1="17.6679" y1="6.9006" x2="17.6623" y2= "7.5838" />
   <path id="_170387104" class="fil0 str0" d="M17.6623 7.5838c-0.0056,0.5969 -0.0056,0.5969 1.8758,0.5957"/>
   <line id="_215886312" class="fil0 str0" x1="19.5381" y1="8.1795" x2="19.924" y2= "8.1795" />
   <path id="_215886024" class="fil0 str0" d="M19.924 8.1795c1.5515,-0.0011 1.9969,-0.0123 2.2202,-0.0594 0.2243,-0.046 0.2827,-0.1391 0.2928,-0.4633"/>
   <line id="_275929024" class="fil0 str0" x1="22.437" y1="7.6568" x2="22.4336" y2= "6.9343" />
   <path id="_215885760" class="fil0 str0" d="M22.4336 6.9343c-0.0101,-0.4353 -0.0101,-0.4353 1.6683,-0.4342"/>
   <line id="_275930920" class="fil0 str0" x1="24.1019" y1="6.5001" x2="24.5551" y2= "6.5012" />
   <path id="_275929528" class="fil0 str0" d="M24.5551 6.5012c1.151,0 2.1641,0.0191 2.2516,0.0415 0.1907,0.0494 0.2098,0.0988 0.2087,0.552"/>
   <line id="_275929576" class="fil0 str0" x1="27.0154" y1="7.0947" x2="27.0154" y2= "7.5345" />
   <path id="_275929360" class="fil0 str0" d="M27.0154 7.5345c-0.0012,0.6114 0.1896,0.8717 0.6394,0.8717 0.3826,0 0.626,-0.2671 0.6339,-0.6922"/>
   <line id="_275929864" class="fil0 str0" x1="28.2887" y1="7.714" x2="28.2865" y2= "7.1003" />
   <path id="_46621104" class="fil0 str0" d="M28.2865 7.1003c-0.0023,-0.506 0.065,-0.58 0.5238,-0.58 1.5269,0 2.6679,0.9637 2.9012,2.4513"/>
   <polyline id="_275929552" class="fil0 str0" points="31.7115,8.9716 31.7272,9.4585 31.6779,50.5697 31.7059,51.0038 "/>
   <path id="_46620432" class="fil0 str0" d="M31.7059 51.0038c0.0012,0.0124 0.0012,0.0247 0.0012,0.0393 0,0.6855 -0.6249,1.6481 -1.3441,2.0699 -0.3567,0.2098 -0.7595,0.3331 -1.188,0.3657"/>
  </g>
 </g>
</svg>
