<?xml version="1.0" encoding="UTF-8"?>
<!DOCTYPE svg PUBLIC "-//W3C//DTD SVG 1.1//EN" "http://www.w3.org/Graphics/SVG/1.1/DTD/svg11.dtd">
<!-- Creator: CorelDRAW -->
<svg xmlns="http://www.w3.org/2000/svg" xml:space="preserve" width="40mm" height="60mm" style="shape-rendering:geometricPrecision; text-rendering:geometricPrecision; image-rendering:optimizeQuality; fill-rule:evenodd; clip-rule:evenodd"
viewBox="0 0 40 60"
 xmlns:xlink="http://www.w3.org/1999/xlink">
 <defs>
  <style type="text/css">
   <![CDATA[
    .str0 {stroke:#1F1A17;stroke-width:0.194}
    .fil0 {fill:none}
   ]]>
  </style>
 </defs>
 <g id="图层_x0020_1">
  <metadata id="CorelCorpID_0Corel-Layer"/>
  <g id="_162051192">
   <path id="_112154064" class="fil0 str0" d="M27.0539 54.6836c-5.8987,0.0012 -11.2146,0.0218 -17.1124,0.0228 -0.5263,-0.0177 -0.8242,-0.1068 -1.2087,-0.3612 -0.4528,-0.2994 -0.8329,-0.8521 -0.9466,-1.3774"/>
   <line id="_112614144" class="fil0 str0" x1="7.7862" y1="52.9678" x2="7.7102" y2= "10.1036" />
   <path id="_115022600" class="fil0 str0" d="M7.7102 10.1036c0.033,-0.7499 0.2796,-1.307 0.7773,-1.7541 0.272,-0.2433 0.6002,-0.4173 0.9635,-0.5119"/>
   <line id="_116223680" class="fil0 str0" x1="9.451" y1="7.8376" x2="9.5006" y2= "7.821" />
   <path id="_118969336" class="fil0 str0" d="M9.5006 7.821c0.0792,-0.0319 0.0792,-0.0319 2.8738,-0.0309"/>
   <line id="_118972808" class="fil0 str0" x1="12.3744" y1="7.7901" x2="17.3061" y2= "7.7912" />
   <path id="_119003272" class="fil0 str0" d="M17.3061 7.7912c0.2391,0.0077 0.2841,0.021 0.3404,0.1003 0.023,0.033 0.0374,0.0858 0.0803,0.2995"/>
   <path id="_119004560" class="fil0 str0" d="M17.7268 8.191l-0.0154 0 -0.0077 0.0077 0.0077 0.0473 0.0077 -0.0088m0.0077 -0.0462z"/>
   <path id="_118948840" class="fil0 str0" d="M17.7191 8.2372c0.0991,0.3985 0.3017,0.577 0.6518,0.577 0.3877,0 0.5902,-0.2214 0.6904,-0.7565"/>
   <path id="_118998344" class="fil0 str0" d="M19.0613 8.0577l-0.0077 -0.0077 -0.0077 0 0 -0.0463m0.0154 0.054z"/>
   <path id="_118994088" class="fil0 str0" d="M19.0459 8.0037c0.0033,0 0.0121,0.0023 0.0231,0.0078"/>
   <line id="_118979640" class="fil0 str0" x1="19.069" y1="8.0115" x2="19.069" y2= "7.9884" />
   <path id="_118972528" class="fil0 str0" d="M19.069 7.9884c0.0695,-0.1608 0.1398,-0.1949 0.4207,-0.2071 0.7145,-0.0318 2.7935,-0.0572 4.7412,-0.0572 2.8112,0 2.929,0.0089 3.4486,0.2301 0.6101,0.2599 1.1297,0.871 1.3016,1.5283"/>
   <line id="_118993640" class="fil0 str0" x1="28.9811" y1="9.4825" x2="29.4138" y2= "31.1233" />
   <path id="_118988488" class="fil0 str0" d="M29.4138 31.1233c0.0914,4.5364 0.1366,8.3639 0.1366,11.4822 0,5.8192 -0.1134,9.1477 -0.3425,9.9868 -0.0529,0.196 -0.0497,0.201 -0.1741,0.4107 -0.0452,0.0573 -0.0581,0.0637 -0.1596,0.2786"/>
   <line id="_118964800" class="fil0 str0" x1="28.8742" y1="53.2816" x2="28.8688" y2= "53.2959" />
   <path id="_118826560" class="fil0 str0" d="M28.8688 53.2959c-0.1542,0.447 -0.5573,0.8997 -1.0142,1.1363 -0.2995,0.1553 -0.4316,0.1916 -1.0075,0.2709 -0.337,0.0463 -0.1143,0.0013 -1.0254,0.0014"/>
  </g>
 </g>
</svg>
