<?xml version="1.0" encoding="UTF-8"?>
<!DOCTYPE svg PUBLIC "-//W3C//DTD SVG 1.1//EN" "http://www.w3.org/Graphics/SVG/1.1/DTD/svg11.dtd">
<!-- Creator: CorelDRAW X8 -->
<svg xmlns="http://www.w3.org/2000/svg" xml:space="preserve" width="40mm" height="60mm" version="1.1" style="shape-rendering:geometricPrecision; text-rendering:geometricPrecision; image-rendering:optimizeQuality; fill-rule:evenodd; clip-rule:evenodd"
viewBox="0 0 4000 6000"
 xmlns:xlink="http://www.w3.org/1999/xlink">
 <defs>
  <style type="text/css">
   <![CDATA[
    .str0 {stroke:black;stroke-width:7.62}
    .fil0 {fill:none}
   ]]>
  </style>
   <clipPath id="id0">
    <rect x="-35820" y="-10313" width="18159" height="18159"/>
   </clipPath>
 </defs>
 <g id="图层_x0020_1">
  <metadata id="CorelCorpID_0Corel-Layer"/>
  <g style="clip-path:url(#id0)">
   <image x="-35820" y="-10313" width="18159" height="18159" xlink:href="Rog Phone 5S Pro — 12G（前膜带壳）_Images\Rog Phone 5S Pro — 12G（前膜带壳）_ImgID1.png"/>
  </g>
  <path class="fil0 str0" d="M1088 5350l1717 0c109,0 197,-89 197,-197l0 -4306c0,-108 -88,-197 -197,-197l-174 0c-10,0 -25,6 -25,26l0 13c0,29 -24,53 -53,53l0 0c-29,0 -53,-24 -53,-53l0 -14c0,-15 -10,-25 -22,-25 -422,0 -857,0 -1283,0 -109,0 -197,89 -197,197l0 4306c0,108 88,197 197,197l60 0"/>
 </g>
</svg>
