<?xml version="1.0" encoding="UTF-8"?>
<!DOCTYPE svg PUBLIC "-//W3C//DTD SVG 1.1//EN" "http://www.w3.org/Graphics/SVG/1.1/DTD/svg11.dtd">
<!-- Creator: CorelDRAW X8 -->
<svg xmlns="http://www.w3.org/2000/svg" xml:space="preserve" width="40mm" height="60mm" version="1.1" style="shape-rendering:geometricPrecision; text-rendering:geometricPrecision; image-rendering:optimizeQuality; fill-rule:evenodd; clip-rule:evenodd"
viewBox="0 0 4000 6000"
 xmlns:xlink="http://www.w3.org/1999/xlink">
 <defs>
  <style type="text/css">
   <![CDATA[
    .str0 {stroke:black;stroke-width:7.62}
    .fil0 {fill:none}
   ]]>
  </style>
 </defs>
 <g id="图层_x0020_1">
  <metadata id="CorelCorpID_0Corel-Layer"/>
  <path class="fil0 str0" d="M971 5350l1880 0c121,0 220,-100 220,-223l0 -4254c0,-123 -99,-223 -220,-223l-474 0c-6,0 -9,3 -10,7l-13 33c-2,3 -3,5 -7,5l-695 0c-2,0 -5,-2 -5,-5l-13 -37c0,-2 -3,-3 -5,-3l-480 0c-121,0 -220,100 -220,223l0 4254c0,123 99,223 220,223l171 0"/>
 </g>
</svg>
