<?xml version="1.0" encoding="UTF-8"?>
<!DOCTYPE svg PUBLIC "-//W3C//DTD SVG 1.1//EN" "http://www.w3.org/Graphics/SVG/1.1/DTD/svg11.dtd">
<!-- Creator: CorelDRAW X8 -->
<svg xmlns="http://www.w3.org/2000/svg" xml:space="preserve" width="40mm" height="60mm" version="1.1" style="shape-rendering:geometricPrecision; text-rendering:geometricPrecision; image-rendering:optimizeQuality; fill-rule:evenodd; clip-rule:evenodd"
viewBox="0 0 4000 6000"
 xmlns:xlink="http://www.w3.org/1999/xlink">
 <defs>
  <style type="text/css">
   <![CDATA[
    .str0 {stroke:#332C2B;stroke-width:17.64}
    .fil0 {fill:none}
   ]]>
  </style>
 </defs>
 <g id="图层_x0020_1">
  <metadata id="CorelCorpID_0Corel-Layer"/>
  <path class="fil0 str0" d="M997 5350l0 -4471c0,-94 103,-195 196,-201 596,-41 1185,-36 1777,9 93,7 190,98 190,192l0 4177c0,94 -76,187 -169,196 -109,11 -218,19 -327,25 -5,0 -6,2 -6,-3 0,-23 -19,-42 -41,-42l0 0c-23,0 -42,19 -42,42 0,9 1,7 -8,8 -325,14 -652,11 -980,-4 -6,-1 -5,0 -5,-6 0,-23 -19,-41 -42,-41l0 0c-20,0 -38,15 -41,35 -1,9 3,7 -9,7 -108,-6 -216,-13 -324,-21 -93,-7 -169,-102 -169,-196 0,-94 -77,-178 -157,-157m1100 -4174c12,-21 -7,-48 -30,-48 -24,0 -43,19 -43,43l0 0c0,23 19,43 43,43l328 0c24,0 43,-20 43,-43l0 0c0,-24 -19,-43 -43,-43l-328 0m-177 66c-32,-32 -7,-76 21,-76 28,0 50,22 50,50 0,27 -22,50 -50,50 -28,0 -50,-23 -50,-50 0,-28 22,-50 50,-50m758 56c-17,-17 -13,-52 14,-52 27,0 48,22 48,49 0,26 -21,48 -48,48 -27,0 -49,-22 -49,-48 0,-27 22,-49 49,-49"/>
 </g>
</svg>
