<?xml version="1.0" encoding="UTF-8"?>
<!DOCTYPE svg PUBLIC "-//W3C//DTD SVG 1.1//EN" "http://www.w3.org/Graphics/SVG/1.1/DTD/svg11.dtd">
<!-- Creator: CorelDRAW X8 -->
<svg xmlns="http://www.w3.org/2000/svg" xml:space="preserve" width="40mm" height="60mm" version="1.1" style="shape-rendering:geometricPrecision; text-rendering:geometricPrecision; image-rendering:optimizeQuality; fill-rule:evenodd; clip-rule:evenodd"
viewBox="0 0 4000 6000"
 xmlns:xlink="http://www.w3.org/1999/xlink">
 <defs>
  <style type="text/css">
   <![CDATA[
    .str0 {stroke:black;stroke-width:7.62}
    .fil0 {fill:none}
   ]]>
  </style>
 </defs>
 <g id="图层_x0020_1">
  <metadata id="CorelCorpID_0Corel-Layer"/>
  <path class="fil0 str0" d="M2068 1075c-2,-19 -19,-37 -54,-40 -125,0 -226,102 -226,227 0,125 101,227 226,227 126,0 227,-102 227,-227 0,-125 -101,-227 -227,-227m54 581c-2,-19 -19,-37 -54,-40 -125,0 -226,102 -226,227 0,125 101,227 226,227 126,0 227,-102 227,-227 0,-125 -101,-227 -227,-227m-530 40c-1,-19 -18,-37 -53,-40 -125,0 -227,102 -227,227 0,125 102,227 227,227 125,0 227,-102 227,-227 0,-125 -102,-227 -227,-227m59 -503c-1,-19 -18,-37 -53,-40 -126,0 -227,102 -227,227 0,125 101,227 227,227 125,0 226,-102 226,-227 0,-125 -101,-227 -226,-227m-492 -42l1198 0c78,0 142,64 142,142l0 784c0,85 -70,155 -155,155l-1185 0c-27,0 -49,-22 -49,-49l0 -983c0,-27 22,-49 49,-49zm56 4311l1801 0c166,0 303,-136 303,-302l0 -4047c0,-167 -137,-303 -303,-303l-1604 0c-147,0 -271,107 -297,246 -6,33 11,49 43,49l1215 0c97,0 177,80 177,177l0 825c0,98 -80,178 -177,178l-1196 0c-50,0 -68,22 -68,76l0 2799c0,166 137,302 303,302l40 0c41,0 99,24 115,48"/>
 </g>
</svg>
