<?xml version="1.0" encoding="UTF-8"?>
<!DOCTYPE svg PUBLIC "-//W3C//DTD SVG 1.1//EN" "http://www.w3.org/Graphics/SVG/1.1/DTD/svg11.dtd">
<!-- Creator: CorelDRAW X8 -->
<svg xmlns="http://www.w3.org/2000/svg" xml:space="preserve" width="40mm" height="60mm" version="1.1" style="shape-rendering:geometricPrecision; text-rendering:geometricPrecision; image-rendering:optimizeQuality; fill-rule:evenodd; clip-rule:evenodd"
viewBox="0 0 4000 6000"
 xmlns:xlink="http://www.w3.org/1999/xlink">
 <defs>
  <style type="text/css">
   <![CDATA[
    .str0 {stroke:#222222;stroke-width:20;stroke-linejoin:bevel}
    .fil0 {fill:none}
   ]]>
  </style>
 </defs>
 <g id="图层_x0020_1">
  <metadata id="CorelCorpID_0Corel-Layer"/>
  <g id="_2898667497872">
   <path class="fil0 str0" d="M967 5000l1866 0c46,0 90,-18 123,-51 33,-33 51,-77 51,-123l0 -3652c0,-46 -18,-91 -51,-123 -33,-33 -77,-51 -123,-51l-445 0c-34,0 -62,25 -66,58 -3,27 -25,47 -52,47l-533 0c-27,0 -50,-20 -53,-47 -3,-33 -32,-58 -65,-58l-452 0c-46,0 -90,18 -123,51 -33,33 -51,77 -51,123l0 3652c0,46 18,91 51,123 33,33 77,51 123,51 46,0 177,29 177,67"/>
   <path class="fil0 str0" d="M895 720c0,-14 -8,-70 -41,-70 -32,0 -59,27 -59,59 0,33 27,60 59,60 33,0 60,-27 60,-60 0,-32 -27,-59 -60,-59"/>
   <path class="fil0 str0" d="M3186 724c0,-13 -8,-74 -40,-74 -33,0 -60,27 -60,59 0,33 27,60 60,60 32,0 59,-27 59,-60 0,-32 -27,-59 -59,-59"/>
   <path class="fil0 str0" d="M3103 5303c0,-13 -10,-72 -43,-72 -33,0 -60,27 -60,60 0,32 27,59 60,59 33,0 59,-27 59,-59 0,-33 -26,-60 -59,-60"/>
   <path class="fil0 str0" d="M897 5304c0,-10 10,-73 43,-73 33,0 60,27 60,60 0,32 -27,59 -60,59 -33,0 -59,-27 -59,-59 0,-33 26,-60 59,-60"/>
  </g>
  <path class="fil0 str0" d="M-6717 6664l0 -7069c0,-176 -70,-343 -194,-467 -124,-124 -291,-194 -466,-193l-13840 0c-175,0 -343,69 -467,193 -124,124 -193,291 -193,467l0 1686c0,127 96,234 222,248 101,12 178,97 178,199l0 2019c0,102 -77,188 -178,199 -126,14 -222,121 -222,249l0 1711c0,175 70,343 194,467 124,124 291,193 466,193l13840 0c175,0 343,-70 467,-194 124,-123 193,-291 193,-466 0,-175 109,-670 251,-670"/>
  <path class="fil0 str0" d="M-22939 6938c-52,0 -263,29 -263,153 0,125 101,225 225,225 124,0 225,-100 225,-225 0,-124 -101,-225 -225,-225 -124,0 -225,101 -225,225"/>
  <path class="fil0 str0" d="M-22922 -1744c-51,0 -280,29 -280,153 0,125 101,225 225,225 124,0 225,-100 225,-225 0,-124 -101,-225 -225,-225 -124,0 -225,101 -225,225"/>
  <path class="fil0 str0" d="M-5571 -1429c-48,0 -271,39 -271,163 0,125 101,225 225,225 124,0 225,-100 225,-225 0,-124 -101,-225 -225,-225 -124,0 -225,101 -225,225"/>
  <path class="fil0 str0" d="M-5566 6930c-38,0 -276,-39 -276,-164 0,-124 101,-225 225,-225 124,0 225,101 225,225 0,125 -101,225 -225,225 -124,0 -225,-100 -225,-225"/>
 </g>
</svg>
