<?xml version="1.0" encoding="UTF-8"?>
<!DOCTYPE svg PUBLIC "-//W3C//DTD SVG 1.1//EN" "http://www.w3.org/Graphics/SVG/1.1/DTD/svg11.dtd">
<!-- Creator: CorelDRAW X8 -->
<svg xmlns="http://www.w3.org/2000/svg" xml:space="preserve" width="40mm" height="60mm" version="1.1" style="shape-rendering:geometricPrecision; text-rendering:geometricPrecision; image-rendering:optimizeQuality; fill-rule:evenodd; clip-rule:evenodd"
viewBox="0 0 4000 6000"
 xmlns:xlink="http://www.w3.org/1999/xlink">
 <defs>
  <style type="text/css">
   <![CDATA[
    .str0 {stroke:#332C2B;stroke-width:20}
    .fil0 {fill:none}
   ]]>
  </style>
 </defs>
 <g id="图层_x0020_1">
  <metadata id="CorelCorpID_0Corel-Layer"/>
  <g id="_1721384469104">
   <path class="fil0 str0" d="M937 5298l219 17c3,1 6,1 9,1 226,30 523,28 704,32 94,3 171,3 264,0 324,-7 1007,4 1013,-175l0 -2115 0 -2231c-6,-179 -689,-168 -1013,-175 -93,-2 -170,-3 -264,0 -322,7 -1009,-4 -1015,175l0 2231 0 2115c2,77 131,119 302,142"/>
   <rect class="fil0 str0" x="1772" y="992" width="455" height="1210" rx="228" ry="226"/>
   <path class="fil0 str0" d="M2041 1098c-2,-15 -14,-29 -41,-31 -95,0 -172,77 -172,172 0,95 77,171 172,171 95,0 172,-76 172,-171 0,-95 -77,-172 -172,-172"/>
   <path class="fil0 str0" d="M1997 1524c-5,-17 -11,-30 -41,-30l-25 0c-34,0 -62,28 -62,63l0 0c0,34 28,62 62,62l138 0c34,0 62,-28 62,-62l0 0c0,-35 -28,-63 -62,-63l-113 0"/>
   <path class="fil0 str0" d="M2009 1794c-17,-32 -27,-56 -75,-56l-37 0c-34,0 -62,28 -62,62l0 207c0,34 28,62 62,62l206 0c34,0 62,-28 62,-62l0 -207c0,-34 -28,-62 -62,-62l-169 0"/>
  </g>
 </g>
</svg>
