<?xml version="1.0" encoding="UTF-8"?>
<!DOCTYPE svg PUBLIC "-//W3C//DTD SVG 1.1//EN" "http://www.w3.org/Graphics/SVG/1.1/DTD/svg11.dtd">
<!-- Creator: CorelDRAW X8 -->
<svg xmlns="http://www.w3.org/2000/svg" xml:space="preserve" width="40mm" height="60mm" version="1.1" style="shape-rendering:geometricPrecision; text-rendering:geometricPrecision; image-rendering:optimizeQuality; fill-rule:evenodd; clip-rule:evenodd"
viewBox="0 0 4000 6000"
 xmlns:xlink="http://www.w3.org/1999/xlink">
 <defs>
  <style type="text/css">
   <![CDATA[
    .str0 {stroke:#222222;stroke-width:20}
    .fil0 {fill:none;fill-rule:nonzero}
   ]]>
  </style>
 </defs>
 <g id="图层_x0020_1">
  <metadata id="CorelCorpID_0Corel-Layer"/>
  <path class="fil0 str0" d="M3237 2436c-23,0 -41,-19 -41,-42l0 -626c0,-23 18,-42 41,-42l0 0c23,0 42,19 42,42l0 626c0,23 -19,42 -42,42l0 0zm-2478 -644c-25,0 -47,-22 -47,-47l0 -540c0,-26 22,-47 47,-47l0 0c26,0 48,21 48,47l0 540c0,25 -22,47 -48,47l0 0zm11 645c-23,0 -42,-18 -42,-41l0 -302c0,-23 19,-42 42,-42l0 0c23,0 41,19 41,42l0 302c0,23 -18,41 -41,41l0 0zm162 2913l1975 0c111,0 200,-90 200,-200l0 -6 184 0c17,0 31,-14 31,-31l0 -4204c0,-17 -14,-31 -31,-31l-184 0 0 -28c0,-110 -89,-200 -200,-200l-1814 0c-111,0 -200,90 -200,200l0 28 -184 0c-17,0 -31,14 -31,31l0 4204c0,17 14,31 31,31l184 0 0 6c0,110 89,200 200,200l48 0m462 -4345c-37,0 -67,-30 -67,-67 0,-37 30,-67 67,-67 37,0 67,30 67,67 0,37 -30,67 -67,67zm-313 111c-98,0 -178,-80 -178,-178 0,-98 80,-177 178,-177 98,0 178,79 178,177 0,98 -80,178 -178,178zm710 846c-88,0 -159,-72 -159,-160l0 -105c0,-87 71,-159 159,-159l0 0c88,0 159,72 159,159l0 105c0,88 -71,160 -159,160l0 0z"/>
 </g>
</svg>
