<?xml version="1.0" encoding="UTF-8"?>
<!DOCTYPE svg PUBLIC "-//W3C//DTD SVG 1.1//EN" "http://www.w3.org/Graphics/SVG/1.1/DTD/svg11.dtd">
<!-- Creator: CorelDRAW X8 -->
<svg xmlns="http://www.w3.org/2000/svg" xml:space="preserve" width="40mm" height="60mm" version="1.1" style="shape-rendering:geometricPrecision; text-rendering:geometricPrecision; image-rendering:optimizeQuality; fill-rule:evenodd; clip-rule:evenodd"
viewBox="0 0 4000 6000"
 xmlns:xlink="http://www.w3.org/1999/xlink">
 <defs>
  <style type="text/css">
   <![CDATA[
    .str0 {stroke:black;stroke-width:7.62}
    .fil0 {fill:none}
   ]]>
  </style>
 </defs>
 <g id="图层_x0020_1">
  <metadata id="CorelCorpID_0Corel-Layer"/>
  <path class="fil0 str0" d="M1936 1662c-40,11 -70,26 -70,95l0 5c0,80 66,145 146,145l0 0c80,0 145,-65 145,-145l0 -72c0,-80 -65,-146 -145,-146l0 0c-80,0 -146,66 -146,146l0 67m-242 -754c-21,6 -37,17 -37,68l0 44c0,23 18,41 41,41l0 0c23,0 42,-18 42,-41l0 -257c0,-23 -19,-41 -42,-41l0 0c-23,0 -41,18 -41,41l0 213m-213 -268c-1,-16 -14,-30 -42,-32 -100,0 -181,81 -181,180 0,100 81,180 181,180 99,0 180,-80 180,-180 0,-99 -81,-180 -180,-180m42 425c-1,-15 -14,-29 -42,-32 -100,0 -181,81 -181,181 0,99 81,180 181,180 99,0 180,-81 180,-180 0,-100 -81,-181 -180,-181m42 441c-1,-15 -14,-29 -42,-31 -100,0 -181,80 -181,180 0,99 81,180 181,180 99,0 180,-81 180,-180 0,-100 -81,-180 -180,-180m-101 -823l382 0c58,0 105,47 105,104l0 1227c0,58 -47,105 -105,105l-382 0c-57,0 -104,-47 -104,-105l0 -1227c0,-57 47,-104 104,-104zm-17 -40l413 0c63,0 114,52 114,114l0 1288c0,63 -51,114 -114,114l-413 0c-63,0 -114,-51 -114,-114l0 -1288c0,-62 51,-114 114,-114zm96 4639c-21,-36 -69,-68 -105,-68 -135,0 -245,-110 -245,-245l0 -4142c0,-135 110,-245 245,-245l1590 0c135,0 245,110 245,245l0 4142c0,135 -110,245 -245,245l-1745 0"/>
 </g>
</svg>
