<?xml version="1.0" encoding="UTF-8"?>
<!DOCTYPE svg PUBLIC "-//W3C//DTD SVG 1.1//EN" "http://www.w3.org/Graphics/SVG/1.1/DTD/svg11.dtd">
<!-- Creator: CorelDRAW X8 -->
<svg xmlns="http://www.w3.org/2000/svg" xml:space="preserve" width="40mm" height="60mm" version="1.1" style="shape-rendering:geometricPrecision; text-rendering:geometricPrecision; image-rendering:optimizeQuality; fill-rule:evenodd; clip-rule:evenodd"
viewBox="0 0 4000 6000"
 xmlns:xlink="http://www.w3.org/1999/xlink">
 <defs>
  <style type="text/css">
   <![CDATA[
    .str0 {stroke:black;stroke-width:7.62}
    .fil0 {fill:none}
   ]]>
  </style>
 </defs>
 <g id="图层_x0020_1">
  <metadata id="CorelCorpID_0Corel-Layer"/>
  <path class="fil0 str0" d="M1079 5295l1715 0c119,0 215,-97 215,-216l0 -4214c0,-118 -96,-215 -215,-215l-668 0c-24,0 -43,19 -43,42l0 52c0,43 -35,78 -77,78l0 0c-43,0 -78,-35 -78,-78l0 -52c0,-23 -19,-42 -42,-42l-680 0c-119,0 -215,97 -215,215l0 4214c0,119 96,216 215,216l76 0c132,0 213,18 245,55"/>
 </g>
</svg>
