<?xml version="1.0" encoding="UTF-8"?>
<!DOCTYPE svg PUBLIC "-//W3C//DTD SVG 1.1//EN" "http://www.w3.org/Graphics/SVG/1.1/DTD/svg11.dtd">
<!-- Creator: CorelDRAW X8 -->
<svg xmlns="http://www.w3.org/2000/svg" xml:space="preserve" width="40mm" height="60mm" version="1.1" style="shape-rendering:geometricPrecision; text-rendering:geometricPrecision; image-rendering:optimizeQuality; fill-rule:evenodd; clip-rule:evenodd"
viewBox="0 0 4000 6000"
 xmlns:xlink="http://www.w3.org/1999/xlink">
 <defs>
  <style type="text/css">
   <![CDATA[
    .str0 {stroke:#332C2B;stroke-width:20}
    .fil0 {fill:none}
   ]]>
  </style>
 </defs>
 <g id="图层_x0020_1">
  <metadata id="CorelCorpID_0Corel-Layer"/>
  <path class="fil0 str0" d="M928 5273l1975 0c93,0 169,-76 169,-169l0 -4285c0,-93 -76,-169 -169,-169l-1773 0c-93,0 -169,76 -169,169l0 4285c0,93 76,169 169,169 92,0 166,32 166,77m-68 -4603l413 0c96,0 175,78 175,174l0 1050c0,96 -79,174 -175,174l-413 0c-96,0 -175,-78 -175,-174l0 -1050c0,-96 79,-174 175,-174zm15 43l386 0c80,0 145,66 145,146l0 1016c0,80 -65,145 -145,145l-386 0c-80,0 -146,-65 -146,-145l0 -1016c0,-80 66,-146 146,-146zm461 1121c-71,0 -90,-95 -90,-129 0,-34 28,-62 63,-62l0 0c34,0 62,28 62,62l0 170c0,34 -28,62 -62,62l0 0c-35,0 -63,-28 -63,-62l0 -170m-331 -704c-152,-94 -50,-256 60,-256 109,0 197,88 197,197 0,110 -88,198 -197,198 -110,0 -198,-88 -198,-198 0,-109 88,-197 198,-197m-61 676c-152,-94 -49,-256 60,-256 109,0 198,88 198,197 0,110 -89,198 -198,198 -109,0 -198,-88 -198,-198 0,-109 89,-197 198,-197m-58 676c-150,-94 -49,-253 59,-253 108,0 195,87 195,195 0,108 -87,195 -195,195 -108,0 -195,-87 -195,-195 0,-108 87,-195 195,-195m607 861c-153,-96 -50,-260 61,-260 111,0 200,89 200,200 0,111 -89,200 -200,200 -111,0 -200,-89 -200,-200 0,-111 89,-200 200,-200"/>
 </g>
</svg>
