<?xml version="1.0" encoding="UTF-8"?>
<!DOCTYPE svg PUBLIC "-//W3C//DTD SVG 1.1//EN" "http://www.w3.org/Graphics/SVG/1.1/DTD/svg11.dtd">
<!-- Creator: CorelDRAW X8 -->
<svg xmlns="http://www.w3.org/2000/svg" xml:space="preserve" width="40mm" height="60mm" version="1.1" style="shape-rendering:geometricPrecision; text-rendering:geometricPrecision; image-rendering:optimizeQuality; fill-rule:evenodd; clip-rule:evenodd"
viewBox="0 0 4000 6000"
 xmlns:xlink="http://www.w3.org/1999/xlink">
 <defs>
  <style type="text/css">
   <![CDATA[
    .str0 {stroke:#332C2B;stroke-width:20}
    .fil0 {fill:none}
   ]]>
  </style>
 </defs>
 <g id="图层_x0020_1">
  <metadata id="CorelCorpID_0Corel-Layer"/>
  <g id="_1979982236240">
   <path class="fil0 str0" d="M954 5227l1855 0c130,0 237,-106 237,-236l0 -4105c0,-130 -107,-236 -237,-236l-1597 0c-130,0 -236,106 -236,236l0 4105c0,130 106,236 236,236 130,0 310,38 310,123"/>
   <path class="fil0 str0" d="M1939 1410c-70,0 -93,85 -93,100 0,16 13,28 28,28l25 0c0,0 26,-3 26,32l0 97c0,48 39,87 87,87l0 0c47,0 87,-39 87,-87l0 -97c0,-33 25,-32 25,-32l22 0c15,0 28,-12 28,-28l0 -539c0,-15 -13,-28 -28,-28l-41 0c-27,0 -24,-41 -24,-41l0 -16c0,-38 -31,-69 -69,-69l0 0c-38,0 -69,31 -69,69l0 16c0,0 6,41 -26,41l-43 0c-15,0 -28,13 -28,28l0 539m166 -696l0 0"/>
  </g>
  <path class="fil0 str0" d="M-1416 6819l0 -6668c0,-468 -383,-850 -850,-850l-14756 0c-467,0 -850,382 -850,850l0 5742c0,468 383,850 850,850l14756 0c467,0 850,-382 850,-850 0,-467 134,-1113 441,-1113"/>
  <path class="fil0 str0" d="M-15139 3278c0,254 305,334 360,334 55,0 100,-45 100,-100l0 -88c0,0 -11,-94 116,-94l348 0c171,0 312,-140 312,-312l0 0c0,-172 -141,-312 -312,-312l-348 0c-120,0 -116,-93 -116,-93l0 -78c0,-55 -45,-100 -100,-100l-1938 0c-55,0 -101,45 -101,100l0 149c0,96 -149,85 -149,85l-57 0c-137,0 -248,111 -248,247l0 0c0,136 111,248 248,248l57 0c0,0 149,-19 149,94l0 154c0,55 46,100 101,100l1938 0m-2504 -596l0 0"/>
 </g>
</svg>
