<?xml version="1.0" encoding="UTF-8"?>
<!DOCTYPE svg PUBLIC "-//W3C//DTD SVG 1.1//EN" "http://www.w3.org/Graphics/SVG/1.1/DTD/svg11.dtd">
<!-- Creator: CorelDRAW X8 -->
<svg xmlns="http://www.w3.org/2000/svg" xml:space="preserve" width="40mm" height="60mm" version="1.1" style="shape-rendering:geometricPrecision; text-rendering:geometricPrecision; image-rendering:optimizeQuality; fill-rule:evenodd; clip-rule:evenodd"
viewBox="0 0 4000 6000"
 xmlns:xlink="http://www.w3.org/1999/xlink">
 <defs>
  <style type="text/css">
   <![CDATA[
    .str0 {stroke:#332C2B;stroke-width:7.62}
    .fil0 {fill:none}
   ]]>
  </style>
 </defs>
 <g id="图层_x0020_1">
  <metadata id="CorelCorpID_0Corel-Layer"/>
  <path class="fil0 str0" d="M820 5280l2151 0c115,0 209,-94 209,-209l0 -4212c0,-115 -94,-209 -209,-209l-1887 0c-115,0 -209,94 -209,209l0 4212c0,115 94,209 209,209 116,0 263,14 263,70m632 -4536c0,-23 -112,-44 -129,-44 -17,0 -31,14 -31,31l0 0c0,17 14,30 31,30l366 0c16,0 30,-13 30,-30l0 0c0,-17 -14,-31 -30,-31l-366 0m-171 61c-47,-12 -28,-81 0,-81 28,0 51,23 51,51 0,28 -23,51 -51,51 -28,0 -51,-23 -51,-51 0,-28 23,-51 51,-51m701 81c-46,-12 -28,-81 0,-81 29,0 51,23 51,51 0,28 -22,51 -51,51 -28,0 -50,-23 -50,-51 0,-28 22,-51 50,-51"/>
 </g>
</svg>
