<?xml version="1.0" encoding="UTF-8"?>
<!DOCTYPE svg PUBLIC "-//W3C//DTD SVG 1.1//EN" "http://www.w3.org/Graphics/SVG/1.1/DTD/svg11.dtd">
<!-- Creator: CorelDRAW X8 -->
<svg xmlns="http://www.w3.org/2000/svg" xml:space="preserve" width="40mm" height="60mm" version="1.1" style="shape-rendering:geometricPrecision; text-rendering:geometricPrecision; image-rendering:optimizeQuality; fill-rule:evenodd; clip-rule:evenodd"
viewBox="0 0 4000 6000"
 xmlns:xlink="http://www.w3.org/1999/xlink">
 <defs>
  <style type="text/css">
   <![CDATA[
    .str0 {stroke:#332C2B;stroke-width:7.62}
    .fil0 {fill:none;fill-rule:nonzero}
   ]]>
  </style>
 </defs>
 <g id="Layer_x0020_1">
  <metadata id="CorelCorpID_0Corel-Layer"/>
  <path class="fil0 str0" d="M3789 1820l0 197c0,51 -32,97 -74,124 -22,13 -44,18 -69,22 -30,4 -132,18 -101,68 13,22 31,47 48,74 20,31 32,87 33,141 -1,53 -13,113 -33,145 -17,27 -35,52 -48,74 -12,19 -3,45 19,52 29,9 60,13 92,17 65,7 133,71 133,145l0 204c0,0 61,1 61,1l0 -1 14 -636 0 -3 0 -624 0 -1c0,0 -75,1 -75,1zm-384 1208l0 -179c0,-73 -68,-152 -133,-159 -32,-4 -63,-8 -92,-17 -22,-7 -31,-38 -19,-57 13,-22 31,-47 48,-74 20,-31 32,-87 33,-140 -1,-54 -13,-114 -33,-146 -17,-27 -35,-52 -48,-74 -12,-19 -3,-42 19,-49 29,-10 60,-16 92,-20 65,-7 133,-78 133,-152l0 -197c0,0 61,-1 61,-1l0 2 14 635 0 3 0 624 0 1c0,0 -75,0 -75,0zm-755 424l650 -16 0 -45 -405 -4c-145,-10 -229,-113 -229,-258l0 0c0,-66 32,-129 85,-169 25,-18 49,-33 73,-47 7,-4 10,-13 8,-21 -4,-14 -7,-30 -7,-45 0,-92 94,-166 190,-166 6,0 11,0 16,0 10,1 19,-7 20,-17l0 -1 -1 -173 1 -173 0 0c-1,-11 -10,-19 -20,-18 -5,1 -10,1 -16,1 -96,0 -190,-75 -190,-167 0,-15 3,-30 7,-45 2,-8 -1,-17 -8,-21 -24,-13 -53,-29 -78,-47 -27,-20 -48,-46 -62,-75 -14,-28 -22,-61 -22,-94 0,-145 88,-248 233,-257l405 -5 0 -44 -650 -3c-34,0 -61,27 -61,61l0 1789c0,33 27,60 61,60zm899 578l0 -392 -671 0 0 392 671 0zm0 433l0 -391 -671 0 0 391 671 0zm-2084 -386c10,9 15,16 15,27 0,2 0,3 0,5 -1,4 -2,10 -5,16l-2 4c-7,18 -14,34 -14,54 0,16 4,32 13,52 6,15 9,24 9,32 0,10 -5,18 -16,28 -71,65 -169,95 -245,75 -30,-9 -69,-29 -83,-80 -2,-5 -2,-10 -2,-16 0,-11 3,-23 8,-35 8,-17 14,-33 14,-49 0,-13 -4,-22 -10,-33l-3 -7c-6,-11 -9,-24 -9,-37 0,-9 1,-18 4,-27 3,-10 8,-20 14,-29 7,-10 13,-18 20,-25 33,35 64,49 103,46 51,-4 77,-32 94,-59 33,12 68,34 95,58zm-391 101c-27,-13 -47,-37 -50,-62 22,2 39,8 53,18 21,16 34,39 39,56 -14,-2 -29,-6 -42,-12zm-207 -1065l0 -64 -389 0c-3,0 -5,2 -5,4l0 145c0,2 2,4 4,4 72,17 118,91 85,172 -13,33 -48,67 -81,81 -81,33 -174,-30 -191,-102 -1,-2 -2,-3 -4,-3l-146 0c-2,0 -4,2 -4,4l0 417 0 835 0 35c0,2 2,4 4,4l889 0c40,0 73,33 73,74l0 363 0 264c0,2 2,4 5,4l1045 0c3,0 5,-2 5,-4l0 -105c0,-2 -2,-4 -4,-5 -129,-30 -126,-224 -21,-287 56,-33 178,-24 196,54 0,2 2,3 4,3l105 0c3,0 5,-2 5,-4l0 -435 0 -796 0 -369c0,-3 -2,-5 -5,-5l-105 0c-2,0 -4,2 -4,4 -25,103 -162,97 -221,44 -81,-74 -74,-254 48,-283 2,-1 4,-2 4,-4l0 -105c0,-2 -2,-4 -5,-4l-351 0 -235 0 -87 0 -308 0 -88 0 -129 0 0 64c0,22 -18,40 -41,40l-7 0c-23,0 -41,-18 -41,-40zm598 -1429c10,8 15,15 15,27 0,1 0,2 0,4 -1,4 -2,10 -5,16l-2 4c-7,18 -14,34 -14,55 0,15 4,32 13,51 6,15 9,24 9,33 0,9 -5,18 -16,27 -71,65 -169,95 -245,75 -30,-8 -69,-29 -83,-79 -2,-6 -2,-11 -2,-17 0,-11 3,-22 8,-35 8,-17 14,-33 14,-49 0,-13 -4,-22 -10,-33l-3 -7c-6,-11 -9,-24 -9,-37 0,-9 1,-18 4,-27 3,-10 8,-20 14,-29 7,-10 13,-18 20,-25 33,35 64,49 103,46 51,-4 77,-32 94,-59 33,12 68,34 95,59zm-391 100c-27,-13 -47,-37 -50,-62 22,2 39,8 53,19 21,15 34,38 39,55 -14,-2 -29,-6 -42,-12zm28 -1130l0 264 0 363c0,41 -33,74 -73,74l-889 0c-2,0 -4,2 -4,4l0 35 0 835 0 417c0,2 2,4 4,4l146 0c2,0 4,-1 4,-3 17,-72 110,-135 191,-102 33,14 68,48 81,81 33,81 -13,155 -85,172 -2,0 -4,2 -4,4l0 145c0,2 2,4 5,4l389 0 0 -64c0,-22 18,-40 41,-40l7 0c23,0 41,18 41,40l0 64 129 0 88 0 308 0 87 0 235 0 351 0c3,0 5,-2 5,-4l0 -105c0,-2 -2,-3 -4,-4 -122,-29 -129,-209 -48,-283 59,-53 196,-59 221,44 0,2 2,4 4,4l105 0c3,0 5,-2 5,-5l0 -369 0 -796 0 -435c0,-2 -2,-4 -5,-4l-105 0c-2,0 -4,1 -4,3 -18,78 -140,87 -196,54 -105,-63 -108,-257 21,-287 2,-1 4,-3 4,-5l0 -105c0,-2 -2,-4 -5,-4l-1045 0c-3,0 -5,2 -5,4z"/>
 </g>
</svg>
