<?xml version="1.0" encoding="UTF-8"?>
<!DOCTYPE svg PUBLIC "-//W3C//DTD SVG 1.1//EN" "http://www.w3.org/Graphics/SVG/1.1/DTD/svg11.dtd">
<!-- Creator: CorelDRAW 2020 (64-Bit) -->
<svg xmlns="http://www.w3.org/2000/svg" xml:space="preserve" width="40mm" height="60mm" version="1.1" style="shape-rendering:geometricPrecision; text-rendering:geometricPrecision; image-rendering:optimizeQuality; fill-rule:evenodd; clip-rule:evenodd"
viewBox="0 0 4000 6000"
 xmlns:xlink="http://www.w3.org/1999/xlink"
 xmlns:xodm="http://www.corel.com/coreldraw/odm/2003">
 <defs>
  <style type="text/css">
   <![CDATA[
    .str1 {stroke:#332C2B;stroke-width:20;stroke-miterlimit:22.9256}
    .str0 {stroke:#E62129;stroke-width:20;stroke-miterlimit:22.9256}
    .fil0 {fill:none}
   ]]>
  </style>
   <clipPath id="id0">
    <rect x="-39300.43" y="-5689.25" width="13980.04" height="16746.92"/>
   </clipPath>
 </defs>
 <g id="图层_x0020_1">
  <metadata id="CorelCorpID_0Corel-Layer"/>
  <g style="clip-path:url(#id0)">
   <image x="-39300.43" y="-5689.25" width="13980.03" height="16746.92" xlink:href="Y54S -11i（前膜全屏）_Images\Y54S -11i（前膜全屏）_ImgID1.png"/>
  </g>
  <rect class="fil0 str0" x="-33052.26" y="-5509.84" width="7540" height="16420.01"/>
  <path class="fil0 str0" d="M-32074.66 -5366.96l1652.88 0c71.17,0 64.84,76.33 105.92,76.33l479.88 0c227.85,0 199.64,137.29 199.64,220.34 0,198.37 160.81,359.18 359.18,359.18 198.37,0 359.18,-160.81 359.18,-359.18 0,-83.05 -28.21,-220.34 177.15,-220.34l473.97 0c41.08,0 53.27,-76.33 95.33,-76.33l1681.67 0c467.5,0 850,382.53 850,850l0 14457.75c0,467.5 -382.5,850 -850,850l-5584.8 0c-467.5,0 -850,-382.5 -850,-850l0 -14457.75c0,-467.5 382.5,-850 850,-850z"/>
  <path class="fil0 str1" d="M-3010.68 6382.79l0 -6113.97c0,-467.49 -382.51,-850 -850,-850l-14457.75 0c-467.47,0 -850,382.5 -850,850l0 1681.67c0,42.06 76.33,54.25 76.33,95.33l0 473.97c0,205.36 137.29,177.15 220.34,177.15 198.37,0 359.18,160.81 359.18,359.18 0,198.37 -160.81,359.18 -359.18,359.18 -83.05,0 -220.34,-28.21 -220.34,199.64l0 479.88c0,41.08 -76.33,34.75 -76.33,105.92l0 1652.88c0,467.5 382.5,850 850,850l14457.75 0c467.5,0 850,-382.5 850,-850 0,-467.5 63.62,-677.55 190.62,-841.59"/>
  <path class="fil0 str1" d="M1037.95 5295.73l1757.71 0c134.4,0 244.37,-109.97 244.37,-244.37l0 -4156.46c0,-134.4 -109.97,-244.37 -244.37,-244.37l-483.47 0c-12.09,0 -15.59,21.94 -27.4,21.94l-136.26 0c-59.04,0 -50.93,39.47 -50.93,63.35 0,57.03 -46.23,103.26 -103.26,103.26 -57.03,0 -103.26,-46.23 -103.26,-103.26 0,-23.88 8.11,-63.35 -57.4,-63.35l-137.96 0c-11.81,0 -9.99,-21.94 -30.45,-21.94l-475.19 0c-134.4,0 -244.37,109.96 -244.37,244.37l0 4156.46c0,134.4 109.97,244.37 244.37,244.37 134.4,0 194.79,18.29 241.95,54.8"/>
 </g>
</svg>
