<?xml version="1.0" encoding="UTF-8"?>
<!DOCTYPE svg PUBLIC "-//W3C//DTD SVG 1.1//EN" "http://www.w3.org/Graphics/SVG/1.1/DTD/svg11.dtd">
<!-- Creator: CorelDRAW X8 -->
<svg xmlns="http://www.w3.org/2000/svg" xml:space="preserve" width="40mm" height="60mm" version="1.1" style="shape-rendering:geometricPrecision; text-rendering:geometricPrecision; image-rendering:optimizeQuality; fill-rule:evenodd; clip-rule:evenodd"
viewBox="0 0 4000 6000"
 xmlns:xlink="http://www.w3.org/1999/xlink">
 <defs>
  <style type="text/css">
   <![CDATA[
    .str0 {stroke:#332C2B;stroke-width:7.62}
    .fil0 {fill:none}
   ]]>
  </style>
 </defs>
 <g id="图层_x0020_1">
  <metadata id="CorelCorpID_0Corel-Layer"/>
  <path class="fil0 str0" d="M960 5350l1851 0c162,0 295,-133 295,-295l0 -4110c0,-162 -133,-295 -295,-295l-141 0c-12,0 -22,8 -22,24l0 123c0,51 -42,92 -93,92l-1080 0c-50,0 -92,-41 -92,-92l0 -129c0,-14 -4,-18 -20,-18l-174 0c-162,0 -295,133 -295,295l0 4110c0,162 133,295 295,295l291 0"/>
 </g>
</svg>
