<?xml version="1.0" encoding="UTF-8"?>
<!DOCTYPE svg PUBLIC "-//W3C//DTD SVG 1.1//EN" "http://www.w3.org/Graphics/SVG/1.1/DTD/svg11.dtd">
<!-- Creator: CorelDRAW X8 -->
<svg xmlns="http://www.w3.org/2000/svg" xml:space="preserve" width="40mm" height="60mm" version="1.1" style="shape-rendering:geometricPrecision; text-rendering:geometricPrecision; image-rendering:optimizeQuality; fill-rule:evenodd; clip-rule:evenodd"
viewBox="0 0 4000 6000"
 xmlns:xlink="http://www.w3.org/1999/xlink">
 <defs>
  <style type="text/css">
   <![CDATA[
    .fil0 {fill:#332C2B;fill-rule:nonzero}
   ]]>
  </style>
 </defs>
 <g id="Katman_x0020_1">
  <metadata id="CorelCorpID_0Corel-Layer"/>
  <g>
   <path class="fil0" d="M3063 4940l2 0 0 0 0 12 -1 13 -1 12 -3 12 -2 12 -3 12 -4 11 -4 11 -5 11 -6 11 -5 10 -7 10 -6 10 -7 9 -8 9 -8 9 -8 8 -9 8 -9 8 -9 7 -10 7 -10 6 -10 6 -11 5 -11 5 -11 4 -11 4 -12 3 -12 3 -12 2 -12 1 -13 1 0 -2 13 -1 12 -2 12 -2 11 -2 12 -4 11 -3 11 -5 11 -4 11 -6 10 -5 10 -6 9 -7 10 -7 9 -8 8 -7 8 -9 8 -8 8 -9 7 -10 6 -9 7 -10 5 -10 5 -11 5 -11 4 -11 4 -11 3 -12 3 -11 2 -12 2 -13 0 -12 1 -12 0 0zm2 -96l0 96 -2 0 0 -96 1 -2 1 2zm-2 0l0 -2 1 0 -1 2zm149 1l-148 0 0 -3 148 0 2 2 -2 1zm2 -1l0 1 -2 0 2 -1zm0 -3697l0 3697 -3 0 0 -3697 1 -2 2 2zm-2 -2l2 0 0 2 -2 -2zm-148 0l148 0 0 3 -148 0 -1 -1 1 -2zm0 3l-1 0 0 -1 1 1zm1 -77l0 76 -2 0 0 -76 0 0 2 0zm-253 -253l0 3 0 -3 13 0 13 1 13 2 12 2 12 3 12 3 12 4 12 5 11 5 11 6 10 6 11 6 9 7 10 8 9 8 9 8 8 9 8 9 8 10 7 10 7 10 6 11 5 11 5 11 5 11 4 12 3 12 3 12 2 13 2 12 1 13 0 13 -2 0 -1 -13 -1 -12 -1 -13 -2 -12 -3 -12 -4 -12 -3 -12 -5 -11 -5 -11 -6 -11 -6 -11 -6 -10 -7 -10 -8 -9 -7 -9 -9 -9 -9 -8 -9 -8 -9 -8 -10 -7 -10 -6 -11 -6 -10 -6 -11 -5 -12 -4 -11 -4 -12 -4 -12 -2 -13 -3 -12 -1 -13 -1 -13 0 0 -3zm483 3l-483 0 0 -3 483 0 2 1 -2 2zm2 -2l0 2 -2 0 2 -2zm0 -169l0 169 -3 0 0 -169 1 -1 2 1zm-2 -1l2 0 0 1 -2 -1zm-2590 0l2590 0 0 2 -2590 0 -2 -1 2 -1zm-2 1l0 -1 2 0 -2 1zm0 169l0 -169 3 0 0 169 -1 2 -2 -2zm2 2l-2 0 0 -2 2 2zm491 0l-491 0 0 -3 491 0 0 3zm-250 250l-3 0 0 0 1 -13 1 -13 1 -12 2 -13 3 -12 4 -12 4 -12 4 -11 5 -11 6 -11 6 -11 7 -10 7 -10 7 -10 8 -9 9 -9 8 -8 10 -8 9 -8 10 -7 10 -6 11 -6 11 -6 11 -5 11 -5 12 -4 12 -3 12 -3 13 -2 12 -2 13 -1 13 0 0 3 -13 0 -12 1 -13 1 -12 3 -12 2 -12 4 -12 4 -11 4 -11 5 -11 6 -10 6 -11 6 -9 7 -10 8 -9 8 -9 8 -8 9 -8 9 -7 9 -7 10 -7 10 -6 11 -5 11 -5 11 -5 11 -4 12 -3 12 -3 12 -2 12 -2 12 -1 13 0 13 0 0zm-3 75l0 -75 3 0 0 75 -1 1 -2 -1zm3 0l0 1 -1 0 1 -1zm-133 -1l132 0 0 2 -132 0 -1 -1 1 -1zm-1 1l0 -1 1 0 -1 1zm0 3699l0 -3699 3 0 0 3699 -2 1 -1 -1zm1 1l-1 0 0 -1 1 1zm132 0l-132 0 0 -2 132 0 1 1 -1 1zm0 -2l1 0 0 1 -1 -1zm-2 96l0 -95 3 0 0 95 0 0 -3 0zm240 252l0 -2 0 2 -12 -1 -12 -1 -12 -2 -12 -3 -12 -3 -11 -4 -11 -4 -11 -5 -11 -5 -10 -6 -10 -6 -10 -7 -10 -7 -9 -8 -8 -8 -9 -8 -8 -9 -7 -9 -7 -9 -7 -10 -6 -10 -6 -10 -5 -11 -5 -11 -4 -11 -4 -11 -3 -12 -3 -12 -2 -12 -1 -12 -1 -13 -1 -12 3 0 0 12 1 12 2 13 2 12 2 11 3 12 4 11 4 11 5 11 5 11 6 10 6 10 7 9 7 10 7 9 8 8 8 9 9 7 9 8 9 7 10 7 10 6 10 5 11 6 10 4 12 5 11 3 11 4 12 2 12 2 12 2 12 1 0 2zm-455 -2l455 0 0 2 -455 0 -1 -1 1 -1zm-1 1l0 -1 1 0 -1 1zm0 159l0 -159 2 0 0 159 -1 1 -1 -1zm1 1l-1 0 0 -1 1 1zm2564 0l-2564 0 0 -2 2564 0 2 1 -2 1zm2 -1l0 1 -2 0 2 -1zm0 -159l0 159 -3 0 0 -159 1 -1 2 1zm-2 -1l2 0 0 1 -2 -1zm-467 0l467 0 0 2 -467 0 0 -2 0 0zm298 -3955l0 3 0 0 -2 0 -2 0 -1 0 -2 0 -2 1 -2 0 -1 1 -2 1 -1 0 -2 1 -1 1 -2 1 -1 1 -1 1 -2 2 -1 1 -1 1 -1 2 -1 1 -1 2 -1 1 -1 2 -1 1 -1 2 0 2 -1 2 0 1 -1 2 0 2 0 2 0 2 0 2 -3 0 0 -2 0 -2 0 -2 1 -2 0 -2 1 -2 0 -2 1 -2 1 -2 1 -1 1 -2 1 -2 1 -1 1 -2 1 -1 1 -2 1 -1 2 -2 1 -1 2 -1 1 -1 2 -1 2 -1 1 -1 2 0 2 -1 1 -1 2 0 2 -1 2 0 2 0 2 0 0 0zm38 41l-3 0 0 0 0 -2 0 -2 0 -2 0 -2 -1 -2 0 -1 -1 -2 -1 -2 0 -2 -1 -1 -1 -2 -1 -1 -1 -2 -1 -1 -1 -2 -1 -1 -1 -1 -2 -2 -1 -1 -1 -1 -2 -1 -1 -1 -2 -1 -1 0 -2 -1 -2 -1 -1 0 -2 -1 -2 0 -1 0 -2 0 -2 0 0 -3 2 0 2 0 2 0 2 1 1 0 2 1 2 1 2 0 1 1 2 1 2 1 1 1 2 1 1 1 1 2 2 1 1 2 1 1 1 2 1 1 1 2 1 2 1 1 1 2 1 2 0 2 1 2 0 2 0 2 1 2 0 2 0 2 0 0zm-3 506l0 -506 3 0 0 506 0 0 -3 0zm-35 41l0 -2 0 0 2 0 2 0 1 -1 2 0 2 0 1 -1 2 0 2 -1 1 -1 2 -1 1 -1 2 -1 1 -1 1 -1 2 -1 1 -1 1 -2 1 -1 1 -2 1 -1 1 -2 1 -1 1 -2 0 -2 1 -1 1 -2 0 -2 1 -2 0 -2 0 -2 0 -2 0 -2 3 0 0 2 0 2 -1 2 0 2 0 2 -1 2 0 2 -1 2 -1 2 -1 2 -1 1 -1 2 -1 2 -1 1 -1 2 -1 1 -2 2 -1 1 -1 1 -2 1 -1 1 -2 1 -2 1 -1 1 -2 1 -2 1 -2 0 -1 1 -2 0 -2 0 -2 0 -2 0 0 0zm-38 -41l3 0 0 0 0 2 0 2 0 2 0 2 1 2 0 2 1 2 0 1 1 2 1 2 1 1 1 2 1 1 1 2 1 1 1 2 1 1 2 1 1 1 1 1 2 1 1 1 2 1 1 1 2 1 1 0 2 1 2 0 2 0 1 1 2 0 2 0 0 2 -2 0 -2 0 -2 0 -2 0 -2 -1 -1 0 -2 -1 -2 -1 -1 -1 -2 -1 -2 -1 -1 -1 -2 -1 -1 -1 -2 -1 -1 -2 -1 -1 -1 -2 -1 -1 -1 -2 -1 -1 -1 -2 -1 -2 -1 -2 -1 -2 0 -2 -1 -2 0 -1 -1 -2 0 -3 0 -2 0 -2 0 0zm3 -506l0 506 -3 0 0 -506 0 0 3 0zm-2219 302l1 1 0 0 0 1 -1 0 0 1 0 0 -1 1 0 0 0 1 -1 0 0 1 -1 0 0 1 0 0 0 1 -1 1 0 0 0 1 0 0 -1 1 0 1 0 0 0 1 0 0 -1 1 0 1 0 0 0 1 0 1 0 0 0 1 0 0 0 1 0 1 -3 0 0 -1 0 -1 0 0 0 -1 0 -1 1 -1 0 0 0 -1 0 -1 0 0 0 -1 0 -1 1 0 0 -1 0 -1 0 0 1 -1 0 -1 0 0 1 -1 0 0 0 -1 1 -1 0 0 0 -1 1 0 0 -1 1 0 0 -1 1 0 0 -1 1 0 0 0zm0 0l0 0 0 0 0 0zm20 -9l0 3 0 0 -1 0 -1 0 0 0 -1 0 -1 0 0 0 -1 0 -1 0 0 1 -1 0 0 0 -1 0 -1 0 0 0 -1 1 0 0 -1 0 -1 0 0 1 -1 0 0 0 -1 1 0 0 -1 0 0 1 -1 0 0 0 -1 1 0 0 -1 1 0 0 -1 0 -1 -1 0 -1 1 0 0 -1 1 0 0 -1 1 0 0 0 1 -1 0 0 1 -1 0 0 1 0 1 -1 0 0 1 0 1 0 0 -1 1 0 0 0 1 0 1 -1 1 0 0 0 1 0 1 0 0 0 1 0 1 0 0 -1 1 0 1 0 1 0 0 0zm28 29l-3 0 0 0 0 -2 0 -1 0 -1 0 -1 0 -2 -1 -1 0 -1 -1 -1 0 -1 -1 -2 0 -1 -1 -1 -1 -1 0 -1 -1 -1 -1 0 -1 -1 -1 -1 -1 -1 -1 -1 -1 0 -1 -1 -1 -1 -1 0 -2 -1 -1 0 -1 0 -1 -1 -1 0 -2 0 -1 0 -1 0 0 -3 1 0 1 1 2 0 1 0 2 0 1 1 1 0 2 1 1 0 1 1 1 1 1 0 2 1 1 1 1 1 1 1 1 1 1 1 0 1 1 1 1 1 1 1 0 2 1 1 0 1 1 1 0 2 0 1 1 2 0 1 0 1 0 2 0 0zm-3 532l0 -532 3 0 0 532 0 0 -3 0zm-25 29l0 -3 0 0 1 0 1 0 2 0 1 0 1 -1 1 0 1 0 2 -1 1 0 1 -1 1 -1 1 0 1 -1 1 -1 1 -1 1 0 1 -1 1 -1 0 -1 1 -1 1 -1 0 -1 1 -1 0 -2 1 -1 0 -1 1 -1 0 -1 0 -2 0 -1 0 -1 0 -2 3 0 0 2 0 1 0 2 -1 1 0 1 0 2 -1 1 0 1 -1 2 0 1 -1 1 -1 1 -1 1 0 1 -1 1 -1 1 -1 1 -1 1 -1 1 -2 1 -1 1 -1 0 -1 1 -1 1 -2 0 -1 0 -1 1 -2 0 -1 0 -2 1 -1 0 -1 0 0 0zm-29 -29l3 0 0 0 0 2 0 1 0 1 0 2 1 1 0 1 0 1 1 1 0 2 1 1 1 1 0 1 1 1 1 1 0 1 1 1 1 0 1 1 1 1 1 1 1 0 1 1 1 1 2 0 1 1 1 0 1 0 1 1 2 0 1 0 1 0 2 0 0 3 -2 0 -1 0 -2 -1 -1 0 -1 0 -2 -1 -1 0 -1 0 -2 -1 -1 -1 -1 0 -1 -1 -1 -1 -1 -1 -1 -1 -1 -1 -1 -1 -1 -1 -1 -1 -1 -1 -1 -1 0 -1 -1 -1 -1 -2 0 -1 -1 -1 0 -2 0 -1 0 -1 -1 -2 0 -1 0 -2 0 0zm3 -532l0 532 -3 0 0 -532 3 0zm27 1028l0 -2 0 0 1 0 1 -1 2 0 1 0 2 0 1 -1 1 0 1 -1 2 0 1 -1 1 0 1 -1 1 -1 1 -1 1 -1 1 -1 1 -1 1 -1 1 -1 1 -1 0 -1 1 -1 1 -1 0 -1 1 -2 0 -1 0 -1 1 -2 0 -1 0 -1 0 -2 0 -1 3 0 0 1 0 2 0 1 -1 2 0 1 0 2 -1 1 -1 2 0 1 -1 1 -1 2 0 1 -1 1 -1 1 -1 1 -1 1 -1 1 -1 1 -1 1 -1 1 -2 1 -1 0 -1 1 -2 1 -1 0 -1 1 -2 0 -1 1 -2 0 -1 0 -2 0 -1 0 0 0zm-31 -30l3 0 0 0 0 1 0 2 0 1 0 1 1 2 0 1 1 1 0 2 1 1 0 1 1 1 1 1 0 1 1 1 1 1 1 1 1 1 1 1 1 1 1 1 1 1 1 0 2 1 1 0 1 1 1 0 2 1 1 0 1 0 2 0 1 1 2 0 0 2 -2 0 -2 0 -1 0 -2 0 -1 -1 -1 0 -2 -1 -1 0 -2 -1 -1 -1 -1 0 -1 -1 -2 -1 -1 -1 -1 -1 -1 -1 -1 -1 -1 -1 -1 -1 -1 -1 0 -1 -1 -2 -1 -1 0 -1 -1 -2 0 -1 -1 -2 0 -1 0 -2 -1 -1 0 -2 0 -1 0 0zm3 -245l0 245 -3 0 0 -245 0 0 3 0zm6 -22l2 2 0 0 0 1 -1 0 0 1 -1 0 0 1 -1 0 0 1 0 0 -1 1 0 0 0 1 -1 1 0 0 0 1 -1 0 0 1 0 1 0 0 -1 1 0 1 0 0 0 1 0 1 -1 0 0 1 0 1 0 0 0 1 0 1 0 0 0 1 0 1 -3 0 0 -1 0 -1 0 -1 0 0 1 -1 0 -1 0 -1 0 0 0 -1 0 -1 0 0 1 -1 0 -1 0 -1 0 0 1 -1 0 -1 0 0 1 -1 0 -1 0 0 1 -1 0 0 0 -1 1 -1 0 0 1 -1 0 0 1 -1 0 -1 1 0 0 -1 0 0zm2 2l0 0 0 0 0 0zm20 -10l0 2 0 0 -1 0 -1 0 -1 0 0 0 -1 0 -1 0 0 1 -1 0 -1 0 0 0 -1 0 -1 0 0 1 -1 0 -1 0 0 0 -1 1 0 0 -1 0 -1 0 0 1 -1 0 0 0 -1 1 0 0 -1 1 -1 0 0 0 -1 1 0 0 -1 1 0 0 -2 -2 1 0 0 -1 1 0 0 -1 1 0 0 0 1 -1 1 0 0 -1 1 0 1 0 0 -1 1 0 0 0 1 -1 1 0 0 0 1 -1 1 0 1 0 0 0 1 -1 1 0 0 0 1 0 1 0 1 0 0 0 1 0 1 0 1 0 1 0 0 0zm30 30l-3 0 0 0 0 -2 0 -1 0 -1 0 -2 -1 -1 0 -1 0 -2 -1 -1 0 -1 -1 -1 -1 -2 0 -1 -1 -1 -1 -1 -1 -1 -1 -1 -1 -1 -1 -1 -1 0 -1 -1 -1 -1 -1 -1 -1 0 -2 -1 -1 0 -1 -1 -1 0 -2 0 -1 -1 -2 0 -1 0 -1 0 0 -2 1 0 2 0 1 0 2 0 1 0 2 1 1 0 1 1 2 1 1 0 1 1 2 1 1 1 1 0 1 1 1 1 1 1 1 2 1 1 1 1 0 1 1 1 1 2 0 1 1 1 1 2 0 1 0 2 1 1 0 2 0 1 0 2 0 0zm-3 245l0 -245 3 0 0 245 0 0 -3 0zm1169 2700l0 -3 0 0 1 0 1 0 1 0 1 0 1 0 1 0 1 -1 0 0 1 0 1 0 1 0 1 -1 1 0 1 0 1 -1 1 0 1 -1 1 0 0 0 1 -1 1 0 1 -1 1 0 0 -1 1 -1 1 0 1 -1 0 0 1 -1 1 -1 1 0 0 -1 2 2 -1 0 0 1 -1 1 -1 1 -1 0 0 1 -1 0 -1 1 -1 1 -1 0 -1 1 0 0 -1 1 -1 0 -1 1 -1 0 -1 1 -1 0 -1 0 -1 1 -1 0 -1 0 -1 1 -1 0 -1 0 -1 0 -1 0 -1 0 -1 1 -1 0 -1 0 -1 0 0 0zm-163 -3l163 0 0 3 -163 0 0 -3zm-42 -41l3 0 0 0 0 2 0 2 0 2 1 2 0 2 1 2 0 2 1 2 1 2 0 1 1 2 1 2 2 1 1 2 1 2 1 1 2 1 1 2 2 1 1 1 2 1 1 1 2 1 2 1 2 1 1 0 2 1 2 0 2 1 2 0 2 0 2 0 0 3 -2 0 -2 -1 -2 0 -2 0 -2 -1 -2 0 -2 -1 -2 -1 -2 -1 -2 -1 -2 -1 -1 -1 -2 -1 -2 -1 -1 -2 -2 -1 -1 -2 -1 -1 -2 -2 -1 -2 -1 -2 -1 -1 -1 -2 -1 -2 0 -2 -1 -2 0 -2 -1 -3 0 -2 -1 -2 0 -2 0 -2 0 0zm12 -31l2 1 0 0 0 1 -1 1 -1 1 0 0 -1 1 0 1 -1 1 -1 1 0 0 -1 1 0 1 0 1 -1 1 0 1 -1 1 0 1 -1 0 0 1 0 1 0 1 -1 1 0 1 0 1 0 1 -1 1 0 1 0 1 0 1 0 1 0 1 0 2 0 1 -3 0 0 -2 0 -1 0 -1 0 -1 1 -1 0 -1 0 -1 0 -1 0 -1 1 -1 0 -1 0 -1 0 -1 1 -1 0 -1 0 -1 1 -1 0 -1 1 -1 0 -1 1 -1 0 -1 1 -1 0 -1 1 -1 1 -1 0 0 1 -1 0 -1 1 -1 1 -1 0 0 0 0zm30 -13l0 2 0 0 -1 0 -1 0 -1 0 -1 0 -1 0 -1 1 -1 0 -1 0 -1 0 -1 0 -1 1 -1 0 -1 0 0 1 -1 0 -1 0 -1 1 -1 0 -1 1 -1 0 0 1 -1 0 -1 1 -1 0 -1 1 0 0 -1 1 -1 1 -1 0 0 1 -1 1 -1 0 -2 -1 1 -1 1 -1 1 -1 0 0 1 -1 1 -1 1 0 1 -1 0 0 1 -1 1 0 1 -1 1 -1 1 0 1 0 1 -1 1 0 1 -1 1 0 1 0 1 -1 1 0 1 0 1 -1 1 0 1 0 1 0 1 0 1 0 1 0 1 0 1 0 0 0zm163 2l-163 0 0 -2 163 0 0 0 0 2zm41 42l-2 0 0 0 0 -3 0 -2 -1 -2 0 -2 0 -2 -1 -2 -1 -2 0 -2 -1 -1 -1 -2 -1 -2 -1 -2 -1 -1 -1 -2 -1 -1 -2 -2 -1 -1 -1 -1 -2 -2 -2 -1 -1 -1 -2 -1 -1 -1 -2 -1 -2 0 -2 -1 -2 -1 -1 0 -2 0 -2 -1 -2 0 -2 0 0 -2 2 0 2 0 2 0 2 0 2 1 2 1 2 0 2 1 2 1 2 1 1 1 2 1 2 1 1 2 2 1 1 2 2 1 1 2 1 1 1 2 1 2 1 2 1 2 1 2 1 2 0 2 1 2 1 2 0 2 0 2 0 2 0 3 0 0zm-12 31l-2 -2 0 0 1 -1 1 0 0 -1 1 -1 0 -1 1 -1 1 0 0 -1 1 -1 0 -1 1 -1 0 -1 1 -1 0 0 0 -1 1 -1 0 -1 0 -1 1 -1 0 -1 0 -1 1 -1 0 -1 0 -1 0 -1 0 -1 1 -1 0 -1 0 -1 0 -1 0 -1 0 -1 2 0 0 1 0 1 0 1 0 1 0 1 0 1 0 1 0 1 -1 2 0 1 0 1 -1 1 0 1 0 1 -1 1 0 1 0 1 -1 1 0 1 -1 1 0 0 -1 1 0 1 -1 1 0 1 -1 1 -1 1 0 1 -1 0 0 1 -1 1 -1 1 0 0zm0 0l0 0 0 0 0 0zm-93 -4185l0 -2 0 0 1 0 1 0 2 -1 1 0 1 0 1 0 1 -1 1 0 1 -1 1 0 1 -1 1 0 1 -1 1 -1 1 -1 1 0 1 -1 0 -1 1 -1 1 -1 0 -1 1 -1 0 -1 1 -1 0 -1 1 -1 0 -1 0 -1 1 -2 0 -1 0 -1 0 -1 2 0 0 1 0 1 0 2 0 1 0 1 -1 2 0 1 -1 1 0 1 -1 1 0 1 -1 2 -1 1 -1 1 -1 1 0 0 -1 1 -1 1 -1 1 -1 1 -1 0 -2 1 -1 1 -1 0 -1 1 -1 0 -2 0 -1 1 -1 0 -1 0 -2 0 -1 0 0 0zm-27 -26l3 0 0 0 0 1 0 1 0 1 0 2 1 1 0 1 0 1 1 1 0 1 1 1 0 1 1 1 1 1 0 1 1 1 1 1 1 0 1 1 0 1 1 1 1 0 1 1 1 0 2 1 1 0 1 1 1 0 1 0 1 0 1 1 2 0 1 0 0 2 -2 0 -1 0 -1 0 -2 0 -1 -1 -1 0 -1 0 -1 -1 -2 0 -1 -1 -1 -1 -1 0 -1 -1 -1 -1 -1 -1 -1 -1 -1 0 -1 -1 0 -1 -1 -1 -1 -2 0 -1 -1 -1 -1 -1 0 -1 0 -1 -1 -2 0 -1 0 -1 -1 -2 0 -1 0 -1 0 0zm27 -27l0 3 0 0 -1 0 -2 0 -1 0 -1 0 -1 0 -1 1 -1 0 -1 1 -2 0 -1 1 -1 0 -1 1 -1 0 0 1 -1 1 -1 1 -1 1 -1 0 0 1 -1 1 -1 1 0 1 -1 1 0 1 -1 1 0 2 0 1 -1 1 0 1 0 1 0 1 0 2 -3 0 0 -2 0 -1 1 -1 0 -2 0 -1 1 -1 0 -1 0 -2 1 -1 1 -1 0 -1 1 -1 1 -1 0 -1 1 -1 1 -1 1 -1 1 -1 1 -1 1 0 1 -1 1 -1 1 0 2 -1 1 0 1 -1 1 0 2 0 1 -1 1 0 1 0 2 0 0 0zm26 27l-2 0 0 0 0 -2 0 -1 0 -1 -1 -1 0 -1 0 -1 -1 -2 0 -1 -1 -1 0 -1 -1 -1 0 -1 -1 -1 -1 -1 0 0 -1 -1 -1 -1 -1 -1 -1 -1 -1 0 -1 -1 -1 0 -1 -1 -1 0 -1 -1 -1 0 -1 -1 -1 0 -1 0 -2 0 -1 0 -1 0 0 -3 1 0 2 0 1 0 1 1 1 0 2 0 1 1 1 0 1 1 1 0 2 1 1 1 1 0 1 1 1 1 1 1 0 1 1 1 1 1 1 1 1 1 0 1 1 1 0 1 1 2 0 1 1 1 0 1 0 2 0 1 0 1 0 2 0 0zm-165 16l0 -18 3 0 0 18 -3 0zm-139 124l0 -3 8 0 7 0 7 -1 6 -1 7 -1 7 -2 6 -2 6 -2 6 -3 6 -2 6 -3 6 -3 5 -4 6 -3 5 -4 4 -4 5 -4 4 -5 5 -4 3 -5 4 -5 3 -5 3 -5 3 -6 3 -5 2 -6 2 -6 1 -5 1 -6 1 -6 1 -6 0 -7 3 0 -1 7 0 6 -1 6 -1 6 -2 6 -2 6 -2 6 -3 5 -2 6 -4 5 -3 5 -4 5 -4 5 -4 5 -4 4 -5 5 -5 4 -5 4 -5 3 -6 4 -6 3 -5 3 -7 3 -6 2 -6 2 -7 2 -6 2 -7 1 -7 1 -7 1 -7 1 -8 0zm-478 -3l478 0 0 3 -478 0 0 -3zm-143 -121l3 0 0 7 0 6 1 6 1 6 2 5 2 6 2 6 3 5 2 6 3 5 4 5 4 5 3 5 5 4 4 5 5 4 5 4 5 4 5 3 6 4 5 3 6 3 6 2 6 3 7 2 6 2 7 2 7 1 7 1 7 1 7 0 7 0 0 3 -7 0 -7 -1 -8 -1 -7 -1 -7 -1 -6 -2 -7 -2 -6 -2 -7 -2 -6 -3 -6 -3 -6 -3 -5 -4 -6 -3 -5 -4 -5 -4 -5 -5 -4 -4 -4 -5 -4 -5 -4 -5 -4 -5 -3 -5 -3 -6 -2 -5 -3 -6 -1 -6 -2 -6 -1 -6 -1 -6 -1 -6 0 -7zm3 -18l0 18 -3 0 0 -18 3 0zm140 -124l0 3 -7 0 -7 0 -7 1 -7 1 -7 2 -7 1 -6 2 -7 2 -6 3 -6 2 -6 3 -5 4 -6 3 -5 4 -5 3 -5 4 -5 5 -4 4 -5 5 -3 4 -4 5 -4 5 -3 6 -2 5 -3 5 -2 6 -2 6 -2 6 -1 5 -1 6 0 7 0 6 -3 0 0 -7 1 -6 1 -6 1 -6 2 -6 1 -6 3 -6 2 -5 3 -6 3 -5 4 -5 4 -5 4 -5 4 -5 4 -4 5 -5 5 -4 5 -3 6 -4 5 -4 6 -3 6 -3 6 -3 7 -2 6 -2 7 -2 6 -2 7 -1 7 -1 8 -1 7 -1 7 0zm477 3l-477 0 0 -3 477 0 0 3zm143 121l-3 0 0 -6 -1 -7 -1 -6 -1 -5 -1 -6 -2 -6 -2 -6 -3 -5 -3 -5 -3 -6 -3 -5 -4 -5 -4 -4 -4 -5 -4 -4 -5 -5 -5 -4 -5 -3 -5 -4 -6 -3 -5 -4 -6 -3 -6 -2 -6 -3 -7 -2 -6 -2 -7 -1 -6 -2 -7 -1 -7 -1 -7 0 -8 0 0 -3 8 0 7 1 7 1 7 1 7 1 7 2 6 2 7 2 6 2 6 3 6 3 6 3 5 4 6 4 5 3 5 4 5 5 4 4 4 5 4 5 4 5 3 5 4 5 2 6 3 5 2 6 2 6 2 6 1 6 1 6 0 6 1 7zm802 -233l0 -3 0 0 3 0 3 0 3 -1 3 0 3 -1 2 -1 3 -1 3 -1 2 -1 3 -1 3 -2 2 -1 2 -2 2 -2 3 -2 2 -2 2 -2 2 -2 1 -3 2 -2 1 -3 2 -2 1 -3 1 -2 1 -3 1 -3 1 -3 1 -3 0 -3 1 -3 0 -3 0 -3 3 0 0 3 -1 3 0 3 -1 3 0 4 -1 3 -1 3 -1 2 -1 3 -2 3 -1 3 -2 2 -2 3 -1 2 -2 3 -2 2 -3 2 -2 2 -2 2 -3 2 -2 1 -3 2 -2 1 -3 2 -3 1 -3 1 -3 1 -3 0 -3 1 -3 0 -3 1 -3 0 0 0zm-62 -64l2 0 0 0 1 3 0 3 0 3 1 3 0 3 1 3 1 3 1 3 1 2 2 3 1 3 2 2 1 2 2 3 2 2 2 2 2 2 2 2 2 2 3 2 2 1 3 2 2 1 3 1 2 1 3 1 3 1 3 1 3 0 3 1 3 0 3 0 0 3 -3 0 -4 -1 -3 0 -3 -1 -3 0 -3 -1 -3 -1 -2 -1 -3 -2 -3 -1 -2 -2 -3 -1 -2 -2 -3 -2 -2 -2 -2 -2 -2 -2 -2 -3 -2 -2 -2 -3 -1 -2 -2 -3 -1 -3 -1 -2 -1 -3 -1 -3 -1 -3 -1 -4 0 -3 -1 -3 0 -3 0 -3 0 0zm62 -64l0 2 0 0 -3 0 -3 0 -3 1 -3 0 -3 1 -3 1 -3 1 -2 1 -3 1 -2 1 -3 2 -2 2 -3 1 -2 2 -2 2 -2 2 -2 2 -2 2 -2 3 -1 2 -2 3 -1 2 -2 3 -1 3 -1 2 -1 3 -1 3 0 3 -1 3 0 3 0 3 -1 4 -2 0 0 -4 0 -3 1 -3 0 -3 1 -3 1 -3 1 -3 1 -3 1 -3 1 -3 2 -3 1 -2 2 -3 2 -2 2 -2 2 -3 2 -2 2 -2 3 -2 2 -2 3 -1 2 -2 3 -1 3 -1 2 -2 3 -1 3 0 3 -1 3 -1 3 0 4 0 3 0 0 0zm62 64l-3 0 0 0 0 -4 0 -3 -1 -3 0 -3 -1 -3 -1 -3 -1 -3 -1 -2 -1 -3 -1 -3 -2 -2 -1 -3 -2 -2 -1 -3 -2 -2 -2 -2 -2 -2 -3 -2 -2 -2 -2 -1 -2 -2 -3 -2 -3 -1 -2 -1 -3 -1 -3 -1 -2 -1 -3 -1 -3 0 -3 -1 -3 0 -3 0 0 -2 3 0 3 0 3 0 3 1 3 1 3 0 3 1 3 2 3 1 2 1 3 2 2 1 3 2 2 2 2 2 3 2 2 3 2 2 1 2 2 3 2 2 1 3 2 3 1 3 1 3 1 3 1 3 0 3 1 3 0 3 1 3 0 4 0 0zm-28 4526l0 -3 0 0 1 0 1 0 1 0 1 0 1 0 1 0 1 0 1 0 1 0 1 -1 1 0 1 0 0 0 1 -1 1 0 1 0 1 -1 1 0 1 0 1 -1 0 0 1 -1 1 0 1 -1 1 0 0 -1 1 0 1 -1 1 0 0 -1 1 0 1 -1 1 2 0 1 -1 0 -1 1 -1 1 0 0 -1 1 -1 0 -1 1 -1 0 -1 1 0 0 -1 0 -1 1 -1 0 -1 1 -1 0 -1 0 -1 1 -1 0 -1 0 -1 1 -1 0 -1 0 -1 0 -1 0 -1 1 -1 0 -1 0 -1 0 -1 0 -1 0 -1 0 0 0zm-351 -3l351 0 0 3 -351 0 0 -3zm-42 -34l3 0 0 0 0 2 0 1 0 2 0 2 1 1 0 2 1 2 1 1 0 2 1 1 1 2 1 1 1 1 2 2 1 1 1 1 1 1 2 1 1 2 2 0 1 1 2 1 2 1 2 1 1 0 2 1 2 0 2 1 2 0 2 0 2 0 2 0 0 3 -2 0 -2 0 -2 0 -3 -1 -2 0 -2 -1 -1 0 -2 -1 -2 -1 -2 0 -2 -1 -1 -1 -2 -1 -2 -1 -1 -2 -2 -1 -1 -1 -1 -2 -2 -1 -1 -1 -1 -2 -1 -1 -1 -2 -1 -2 0 -1 -1 -2 -1 -2 0 -2 0 -2 -1 -1 0 -2 0 -2 0 0zm12 -26l2 1 0 0 -1 1 0 1 -1 0 0 1 -1 1 -1 0 0 1 -1 1 0 0 -1 1 0 1 -1 0 0 1 -1 1 0 1 0 0 -1 1 0 1 0 1 -1 1 0 0 0 1 0 1 -1 1 0 1 0 1 0 0 0 1 0 1 0 1 0 1 0 1 -3 0 0 -1 0 -1 0 -1 0 -1 0 -1 1 -1 0 -1 0 -1 0 -1 0 -1 1 0 0 -1 0 -1 1 -1 0 -1 0 -1 1 0 0 -1 1 -1 0 -1 1 -1 0 0 1 -1 0 -1 1 -1 0 0 1 -1 1 -1 0 0 1 -1 1 -1 0 0 0 0zm30 -11l0 2 0 0 -1 0 -1 0 -1 0 -1 0 -1 0 -1 1 -1 0 -1 0 -1 0 -1 0 -1 1 -1 0 -1 0 -1 0 -1 1 0 0 -1 0 -1 1 -1 0 -1 0 -1 1 -1 0 0 1 -1 0 -1 1 -1 0 0 1 -1 0 -1 1 -1 0 0 1 -1 0 -2 -1 1 -1 1 -1 1 0 0 -1 1 0 1 -1 1 0 1 -1 0 0 1 -1 1 0 1 -1 1 0 1 -1 1 0 1 0 1 -1 1 0 1 0 1 -1 0 0 1 0 1 0 2 -1 1 0 1 0 1 0 1 0 1 0 1 0 1 0 1 0 0 0zm351 2l-351 0 0 -2 351 0 0 0 0 2zm42 35l-3 0 0 0 0 -2 0 -2 0 -1 -1 -2 0 -2 -1 -1 0 -2 -1 -2 -1 -1 -1 -2 -1 -1 -1 -1 -1 -2 -1 -1 -1 -1 -1 -2 -2 -1 -1 -1 -2 -1 -1 -1 -2 -1 -1 -1 -2 0 -2 -1 -2 -1 -1 0 -2 -1 -2 0 -2 0 -2 -1 -2 0 -2 0 0 -2 2 0 2 0 2 0 2 0 2 1 2 0 2 1 2 1 2 0 2 1 1 1 2 1 2 1 1 1 2 1 1 1 2 2 1 1 1 2 1 1 2 1 1 2 1 2 0 1 1 2 1 2 0 1 1 2 0 2 0 2 1 2 0 2 0 0zm-13 26l-1 -2 0 0 0 0 1 -1 1 -1 0 0 1 -1 0 -1 1 0 0 -1 1 -1 0 0 1 -1 0 -1 1 -1 0 0 1 -1 0 -1 0 -1 1 0 0 -1 0 -1 1 -1 0 -1 0 0 0 -1 1 -1 0 -1 0 -1 0 -1 0 -1 0 0 0 -1 0 -1 3 0 0 1 0 1 0 1 -1 1 0 1 0 0 0 1 0 1 0 1 -1 1 0 1 0 1 -1 1 0 1 0 0 -1 1 0 1 -1 1 0 1 0 1 -1 0 0 1 -1 1 -1 1 0 0 -1 1 0 1 -1 0 -1 1 0 1 -1 0 -1 1 0 0zm0 0l0 0 0 0 0 0zm-1117 11l0 -3 0 0 1 0 1 0 1 0 1 0 1 0 1 0 1 0 1 0 1 0 1 -1 1 0 1 0 1 0 1 -1 0 0 1 0 1 -1 1 0 1 0 1 -1 1 0 0 -1 1 0 1 -1 1 0 1 -1 0 0 1 -1 1 0 0 -1 1 0 1 -1 2 2 -1 1 -1 0 -1 1 0 0 -1 1 -1 1 -1 0 -1 1 -1 0 0 1 -1 0 -1 0 -1 1 -1 0 -1 1 -1 0 -1 0 -1 1 -1 0 -1 0 -1 1 -1 0 0 0 -2 0 -1 0 -1 1 -1 0 -1 0 -1 0 -1 0 -1 0 -1 0 0 0zm-351 -3l351 0 0 3 -351 0 0 -3zm-42 -34l3 0 0 0 0 2 0 1 0 2 1 2 0 1 1 2 0 2 1 1 1 2 0 1 1 2 1 1 2 1 1 2 1 1 1 1 2 1 1 1 2 2 1 0 2 1 1 1 2 1 2 1 2 0 1 1 2 0 2 1 2 0 2 0 2 0 2 0 0 3 -2 0 -2 0 -2 0 -2 -1 -2 0 -2 -1 -2 0 -2 -1 -2 -1 -2 0 -2 -1 -1 -1 -2 -1 -1 -1 -2 -2 -1 -1 -2 -1 -1 -2 -1 -1 -2 -1 -1 -2 -1 -1 -1 -2 0 -2 -1 -1 -1 -2 0 -2 -1 -2 0 -2 -1 -1 0 -2 0 -2 0 0zm13 -27l1 2 0 0 0 1 -1 1 -1 0 0 1 -1 0 0 1 -1 1 -1 0 0 1 -1 1 0 1 -1 0 0 1 0 1 -1 1 0 0 -1 1 0 1 0 1 0 0 -1 1 0 1 0 1 0 1 -1 1 0 0 0 1 0 1 0 1 0 1 0 1 0 1 -3 0 0 -1 0 -1 0 -1 0 -1 1 -1 0 -1 0 -1 0 -1 0 -1 1 -1 0 -1 0 0 0 -1 1 -1 0 -1 1 -1 0 -1 0 0 1 -1 0 -1 1 -1 0 -1 1 0 0 -1 1 -1 1 -1 0 0 1 -1 1 -1 0 0 1 -1 1 -1 0 0zm29 -11l0 3 0 0 -1 0 -1 0 -1 0 -1 0 -1 0 -1 0 -1 1 -1 0 -1 0 -1 0 -1 0 -1 1 -1 0 0 0 -1 0 -1 1 -1 0 -1 0 -1 1 -1 0 -1 1 0 0 -1 1 -1 0 -1 1 0 0 -1 1 -1 0 -1 1 0 0 -1 1 -1 0 -1 -2 0 0 1 -1 1 0 1 -1 0 -1 1 0 1 -1 1 0 1 -1 0 0 1 -1 1 0 1 0 1 -1 1 0 1 -1 1 0 1 0 1 -1 1 0 1 0 1 0 1 -1 1 0 1 0 1 0 1 0 1 0 1 0 1 -1 1 0 1 0 0 0zm351 3l-351 0 0 -3 351 0 0 0 0 3zm42 35l-3 0 0 0 0 -2 0 -2 0 -2 0 -1 -1 -2 0 -2 -1 -1 -1 -2 -1 -1 0 -2 -1 -1 -1 -2 -1 -1 -2 -1 -1 -2 -1 -1 -2 -1 -1 -1 -1 -1 -2 -1 -2 -1 -1 -1 -2 -1 -2 0 -1 -1 -2 0 -2 -1 -2 0 -2 -1 -2 0 -2 0 -2 0 0 -3 2 0 2 1 2 0 2 0 3 1 1 0 2 1 2 0 2 1 2 1 2 1 1 1 2 1 2 1 1 1 2 1 1 2 1 1 1 1 2 2 1 1 1 2 1 2 1 1 0 2 1 2 1 1 0 2 0 2 1 2 0 2 0 2 0 0zm-12 26l-2 -2 0 0 0 0 1 -1 1 -1 0 0 1 -1 1 -1 0 0 1 -1 0 -1 1 0 0 -1 1 -1 0 -1 0 0 1 -1 0 -1 1 -1 0 0 0 -1 1 -1 0 -1 0 -1 0 0 1 -1 0 -1 0 -1 0 -1 0 -1 0 -1 0 -1 0 0 0 -1 3 0 0 1 0 1 0 1 0 1 0 0 -1 1 0 1 0 1 0 1 0 1 -1 1 0 1 0 1 -1 1 0 0 0 1 -1 1 0 1 -1 1 0 0 -1 1 0 1 -1 1 0 1 -1 0 -1 1 0 1 -1 0 0 1 -1 1 -1 0 0 1 0 0zm0 0l0 0 -1 0 1 0z"/>
  </g>
 </g>
</svg>
