<?xml version="1.0" encoding="UTF-8"?>
<!DOCTYPE svg PUBLIC "-//W3C//DTD SVG 1.1//EN" "http://www.w3.org/Graphics/SVG/1.1/DTD/svg11.dtd">
<!-- Creator: CorelDRAW X8 -->
<svg xmlns="http://www.w3.org/2000/svg" xml:space="preserve" width="40mm" height="60mm" version="1.1" style="shape-rendering:geometricPrecision; text-rendering:geometricPrecision; image-rendering:optimizeQuality; fill-rule:evenodd; clip-rule:evenodd"
viewBox="0 0 4000 6000"
 xmlns:xlink="http://www.w3.org/1999/xlink">
 <defs>
  <style type="text/css">
   <![CDATA[
    .str0 {stroke:black;stroke-width:7.62}
    .fil0 {fill:none}
   ]]>
  </style>
 </defs>
 <g id="图层_x0020_1">
  <metadata id="CorelCorpID_0Corel-Layer"/>
  <path class="fil0 str0" d="M932 716c352,-39 713,-66 1069,-66 357,0 710,18 1067,66 55,7 100,45 100,100l0 4378c0,56 -45,96 -100,101 -354,30 -711,55 -1067,55 -357,0 -718,-24 -1069,-55 -55,-5 -100,-45 -100,-101l0 -4378c0,-55 45,-94 100,-100zm1724 45c0,-4 -4,-8 -12,-8 -27,0 -50,22 -50,50 0,28 23,50 50,50 28,0 51,-22 51,-50 0,-28 -23,-50 -51,-50m-733 46c-5,-18 -15,-33 -60,-33l-39 0c-20,0 -36,17 -36,37l0 0c0,20 16,37 36,37l385 0c20,0 37,-17 37,-37l0 0c0,-20 -17,-37 -37,-37l-346 0"/>
 </g>
</svg>
