<?xml version="1.0" encoding="UTF-8"?>
<!DOCTYPE svg PUBLIC "-//W3C//DTD SVG 1.1//EN" "http://www.w3.org/Graphics/SVG/1.1/DTD/svg11.dtd">
<!-- Creator: CorelDRAW 2020 (64-Bit) -->
<svg xmlns="http://www.w3.org/2000/svg" xml:space="preserve" width="40mm" height="60mm" version="1.1" style="shape-rendering:geometricPrecision; text-rendering:geometricPrecision; image-rendering:optimizeQuality; fill-rule:evenodd; clip-rule:evenodd"
viewBox="0 0 4000 6000"
 xmlns:xlink="http://www.w3.org/1999/xlink"
 xmlns:xodm="http://www.corel.com/coreldraw/odm/2003">
 <defs>
  <style type="text/css">
   <![CDATA[
    .str0 {stroke:#332C2B;stroke-width:20;stroke-miterlimit:22.9256}
    .fil0 {fill:none}
   ]]>
  </style>
   <clipPath id="id0">
    <rect x="-85251.28" y="-6893.51" width="27155.64" height="19707.02"/>
   </clipPath>
 </defs>
 <g id="图层_x0020_1">
  <metadata id="CorelCorpID_0Corel-Layer"/>
  <path class="fil0 str0" d="M-12550.37 7069.94l0 -5836.01c0,-769.99 -630,-1399.99 -1399.99,-1399.99l-13322.5 0c-769.97,0 -1399.99,629.99 -1399.99,1399.99l0 2353.17c0,514.08 234.06,359.02 251.83,333.05 167,-244.04 465.94,-796.02 1200.85,-796.02l2079.4 0c660,0 1200,540 1200,1200l0 1908.75c0,706.43 -520.8,990.46 -739.48,1195.91 -29.66,27.87 -70.49,231.51 248.96,231.51l10480.93 0c770,0 1399.99,-630 1399.99,-1399.99 0,-769.99 161.31,-1084.6 306.83,-1256.58"/>
  <g style="clip-path:url(#id0)">
   <image transform="matrix(764.923 6.64466 -4.79458 551.944 -85082.1 -6893.51)" x="0" y="0" width="35.28" height="35.28" xlink:href="iPhone14 Pro Max -11i（背膜）（Casetify）2_Images\iPhone14 Pro Max -11i（背膜）（Casetify）2_ImgID1.png"/>
  </g>
  <path class="fil0 str0" d="M-64155.53 -4467.53l2353.17 0c770,0 1399.99,630.02 1399.99,1399.99l0 13322.5c0,770 -629.99,1399.99 -1399.99,1399.99l-5026.38 0c-769.99,0 -1399.99,-629.99 -1399.99,-1399.99l0 -10480.93c0,-319.45 203.64,-278.62 231.51,-248.96 205.45,218.68 489.48,739.48 1195.91,739.48l1908.75 0c660,0 1200,-540 1200,-1200l0 -2079.4c0,-734.91 -551.98,-1033.85 -796.02,-1200.85 -25.97,-17.77 -181.03,-251.83 333.05,-251.83z"/>
  <path class="fil0 str0" d="M2039.52 650.53l685.99 0c224.47,0 408.12,183.66 408.12,408.12l0 3883.76c0,224.47 -183.65,408.12 -408.12,408.12l-1465.28 0c-224.47,0 -408.12,-183.65 -408.12,-408.12l0 -3055.39c0,-93.12 59.36,-81.22 67.48,-72.57 59.9,63.75 142.7,215.57 348.63,215.57l556.44 0c192.4,0 349.82,-157.42 349.82,-349.82l0 -606.19c0,-214.24 -160.91,-301.38 -232.05,-350.07 -7.57,-5.18 -52.78,-73.41 97.09,-73.41z"/>
 </g>
</svg>
