<?xml version="1.0" encoding="UTF-8"?>
<!DOCTYPE svg PUBLIC "-//W3C//DTD SVG 1.1//EN" "http://www.w3.org/Graphics/SVG/1.1/DTD/svg11.dtd">
<!-- Creator: CorelDRAW 2020 (64-Bit) -->
<svg xmlns="http://www.w3.org/2000/svg" xml:space="preserve" width="40mm" height="60mm" version="1.1" style="shape-rendering:geometricPrecision; text-rendering:geometricPrecision; image-rendering:optimizeQuality; fill-rule:evenodd; clip-rule:evenodd"
viewBox="0 0 4000 6000"
 xmlns:xlink="http://www.w3.org/1999/xlink"
 xmlns:xodm="http://www.corel.com/coreldraw/odm/2003">
 <defs>
  <style type="text/css">
   <![CDATA[
    .str0 {stroke:black;stroke-width:10;stroke-miterlimit:22.9256}
    .fil0 {fill:none}
   ]]>
  </style>
 </defs>
 <g id="图层_x0020_1">
  <metadata id="CorelCorpID_0Corel-Layer"/>
  <path class="fil0 str0" d="M1300.69 771.9c28.61,0 51.81,23.2 51.81,51.81 0,28.62 -23.2,51.82 -51.81,51.82 -28.62,0 -51.82,-23.2 -51.82,-51.82 0,-28.61 23.2,-51.81 51.82,-51.81zm182.12 -1.52c29.46,0 53.34,23.88 53.34,53.33 0,29.46 -23.88,53.34 -53.34,53.34 -29.46,0 -53.34,-23.88 -53.34,-53.34 0,-29.45 23.88,-53.33 53.34,-53.33zm103.49 1167.53c-33.39,72.63 -107.92,121.95 -193.95,121.95 -116.24,0 -212.63,-90.43 -212.63,-208.06l0 -718.84c0,-116.52 94.99,-211.94 211.36,-212.62 0.23,0 0.48,-0.01 0.72,-0.01 115.48,0 210.26,92.36 213.11,207.29 0.03,1.12 0.06,2.24 0.06,3.36 1.11,239.08 0.02,478.44 0.01,717.56 0,31.78 -5.35,60.37 -18.68,89.37zm-507.34 3386.38l1704.41 0c93.88,0 170.69,-76.81 170.69,-170.69 0,-1428.56 39.2,-2911.96 -0.07,-4333.6 -2.71,-94.23 -79.84,-165.72 -173.49,-165.72 -525.69,-0.04 -1060.24,-9.63 -1584.76,0.03 -92.28,1.87 -167.2,77.94 -167.2,170.65l0 4328.64c0,93.88 76.81,170.69 170.68,170.69l46.67 0c78.38,0 120.37,11.72 126.61,25.71"/>
 </g>
</svg>
