<?xml version="1.0" encoding="UTF-8"?>
<!DOCTYPE svg PUBLIC "-//W3C//DTD SVG 1.1//EN" "http://www.w3.org/Graphics/SVG/1.1/DTD/svg11.dtd">
<!-- Creator: CorelDRAW 2020 (64-Bit) -->
<svg xmlns="http://www.w3.org/2000/svg" xml:space="preserve" width="40mm" height="60mm" version="1.1" style="shape-rendering:geometricPrecision; text-rendering:geometricPrecision; image-rendering:optimizeQuality; fill-rule:evenodd; clip-rule:evenodd"
viewBox="0 0 4000 6000"
 xmlns:xlink="http://www.w3.org/1999/xlink"
 xmlns:xodm="http://www.corel.com/coreldraw/odm/2003">
 <defs>
  <style type="text/css">
   <![CDATA[
    .str0 {stroke:#332C2B;stroke-width:20;stroke-miterlimit:22.9256}
    .fil0 {fill:none}
   ]]>
  </style>
 </defs>
 <g id="图层_x0020_1">
  <metadata id="CorelCorpID_0Corel-Layer"/>
  <path class="fil0 str0" d="M-23379.88 9216.32l0 -5841.8 -7700 0 0 5700 7700 0 0 -116.83c0,0 1.69,-171.32 84.37,-239.45"/>
  <path class="fil0 str0" d="M-23379.88 2496.38l0 -5841.8 -7700 0 0 5700 7700 0 0 -116.83c0,0 1.69,-171.32 84.37,-239.45"/>
  <path class="fil0 str0" d="M-15124.88 9216.32l0 -5841.8 -7700 0 0 5700 7700 0 0 -116.83c0,0 1.69,-171.32 84.37,-239.45"/>
  <path class="fil0 str0" d="M-6869.88 9216.32l0 -5841.8 -7700 0 0 5700 7700 0 0 -116.83c0,0 1.69,-171.32 84.37,-239.45"/>
  <path class="fil0 str0" d="M-15124.88 2496.38l0 -5841.8 -7700 0 0 5700 7700 0 0 -116.83c0,0 1.69,-171.32 84.37,-239.45"/>
  <path class="fil0 str0" d="M-6869.88 2496.38l0 -5841.8 -7700 0 0 5700 7700 0 0 -116.83c0,0 1.69,-171.32 84.37,-239.45"/>
  <g id="_2096963635632">
   <path class="fil0 str0" d="M778.3 2145.32l1130.16 0 0 -1489.65 -1102.73 0 0 1489.65 22.6 0c0,0 33.15,0.32 46.33,16.32"/>
   <path class="fil0 str0" d="M2078.34 2145.32l1130.16 0 0 -1489.65 -1102.72 0 0 1489.65 22.6 0c0,0 33.14,0.32 46.32,16.32"/>
   <path class="fil0 str0" d="M778.3 3742.33l1130.16 0 0 -1489.64 -1102.73 0 0 1489.64 22.6 0c0,0 33.15,0.33 46.33,16.32"/>
   <path class="fil0 str0" d="M778.3 5339.35l1130.16 0 0 -1489.65 -1102.73 0 0 1489.65 22.6 0c0,0 33.15,0.33 46.33,16.32"/>
   <path class="fil0 str0" d="M2078.34 3742.33l1130.16 0 0 -1489.64 -1102.72 0 0 1489.64 22.6 0c0,0 33.14,0.33 46.32,16.32"/>
   <path class="fil0 str0" d="M2078.34 5339.35l1130.16 0 0 -1489.65 -1102.72 0 0 1489.65 22.6 0c0,0 33.14,0.33 46.32,16.32"/>
  </g>
 </g>
</svg>
