<?xml version="1.0" encoding="UTF-8"?>
<!DOCTYPE svg PUBLIC "-//W3C//DTD SVG 1.1//EN" "http://www.w3.org/Graphics/SVG/1.1/DTD/svg11.dtd">
<!-- Creator: CorelDRAW X8 -->
<svg xmlns="http://www.w3.org/2000/svg" xml:space="preserve" width="40mm" height="60mm" version="1.1" style="shape-rendering:geometricPrecision; text-rendering:geometricPrecision; image-rendering:optimizeQuality; fill-rule:evenodd; clip-rule:evenodd"
viewBox="0 0 4000 6000"
 xmlns:xlink="http://www.w3.org/1999/xlink">
 <defs>
  <style type="text/css">
   <![CDATA[
    .str0 {stroke:#332C2B;stroke-width:19.4}
    .fil0 {fill:none;fill-rule:nonzero}
   ]]>
  </style>
 </defs>
 <g id="图层_x0020_1">
  <metadata id="CorelCorpID_0Corel-Layer"/>
  <path class="fil0 str0" d="M3362 650l0 35m-2062 4488l0 12 8 -2 4 -6 0 -8 -4 -7 -7 -1m0 0c9,-57 69,-105 132,-105 77,0 139,61 139,137 0,76 -62,139 -138,139 -75,0 -138,-61 -138,-135 0,-10 0,-13 6,-51m-363 25l1 -12 -12 12 13 -12m0 0c6,-66 77,-124 152,-124 87,0 157,70 157,158 0,87 -70,157 -158,157 -45,0 -88,-20 -118,-54 -30,-34 -44,-79 -37,-122m0 0l6 -29m-305 42c7,-54 37,-84 84,-84 47,0 85,37 85,83 0,47 -38,85 -84,85 -47,0 -84,-37 -84,-83 0,-6 1,-12 3,-30m658 -1114l2 -13 -14 13 13 -13m0 0c10,-58 68,-105 132,-105 77,0 139,61 139,137 0,77 -62,139 -138,139 -77,0 -138,-61 -138,-137m0 0l0 -1m0 0c0,-9 0,-9 5,-42m0 0l1 -5m-363 25l1 -13 -12 13 13 -13m0 0c6,-65 78,-123 151,-123 88,0 158,70 158,157 0,87 -70,158 -157,158 -45,0 -88,-20 -119,-54 -30,-35 -43,-79 -37,-123m0 0l6 -29m-305 43c8,-56 37,-85 85,-85 46,0 84,37 84,84 0,46 -38,84 -84,84 -48,0 -83,-36 -83,-84 0,-8 0,-9 2,-29m2445 16c10,-74 65,-125 137,-125 77,0 138,61 138,138 -1,77 -62,138 -138,138 -76,0 -138,-62 -138,-137 0,-10 1,-14 5,-41m-364 25l2 -13 -13 13 12 -13m0 0c12,-70 77,-123 153,-123 87,0 157,70 157,158 0,86 -71,157 -158,157 -87,0 -156,-70 -156,-156m0 0l0 -1m0 0c0,-10 0,-10 5,-45m0 0l0 -4m-303 43l1 -13 -13 13 14 -13m0 0c2,-47 29,-71 80,-71 47,1 86,39 85,85 0,47 -38,84 -84,84 -46,0 -84,-37 -84,-81 0,-8 1,-14 4,-34m-856 -976l2 -12 -8 1 -4 5m0 0c-1,2 -1,4 -1,5 0,3 1,4 2,8m0 0l8 5m0 0c-19,65 -70,107 -133,107 -85,0 -140,-54 -140,-138 1,-76 63,-138 139,-138 76,0 137,62 137,139m0 0l0 2m0 0c0,2 0,2 -2,28m0 0l-1 13m-633 -55l0 12 8 -2 5 -6 0 -8 -5 -7 -6 -1m0 0c8,-65 78,-123 151,-123 87,0 158,71 158,158 0,87 -70,157 -157,157 -86,0 -158,-70 -158,-154 0,-13 1,-19 8,-53m-305 43c7,-55 37,-84 85,-84 46,0 84,37 84,84 0,46 -38,84 -85,84 -46,0 -83,-37 -83,-83 0,-6 1,-10 3,-30m2596 -107l2 -13m0 0c8,3 8,4 10,14 70,24 105,69 105,134 0,77 -61,138 -138,138 -76,0 -138,-62 -138,-139 0,-75 63,-137 139,-137m0 0l1 0m0 0c3,0 3,0 31,2m0 0l14 2m-537 119l13 0m0 0c-1,-8 -4,-11 -12,-12 9,-67 79,-123 152,-123 87,0 157,71 157,158 0,87 -70,157 -157,157 -87,0 -156,-69 -156,-156m0 0l0 -1m0 0c0,-10 0,-10 5,-46m0 0l0 -4m-303 43l1 -12 -13 12 14 -12m0 0c3,-47 30,-70 80,-70 57,0 85,28 85,84 0,47 -38,85 -85,85 -45,0 -83,-38 -83,-83 0,-7 1,-13 4,-33m-856 -1086l2 -13 -8 2 -4 5m0 0c-1,2 -1,4 -1,5 0,2 1,4 2,8m0 0l8 4m0 0c-20,66 -70,107 -133,107 -85,0 -140,-53 -139,-138 0,-92 46,-138 137,-138 77,0 138,62 138,140 0,7 0,12 -3,42m-633 -54l0 11 8 -2 5 -6 0 -8 -5 -6 -6 -2m0 0c17,-75 76,-123 152,-123 87,0 157,70 157,157 0,87 -70,158 -158,158 -85,0 -156,-71 -156,-155 0,-13 0,-17 7,-51m-305 43c7,-55 37,-85 84,-85 47,0 85,37 85,84 0,47 -38,84 -84,84 -47,0 -84,-36 -84,-82 0,-7 1,-10 3,-31m2596 -108l2 -12m0 0c8,2 8,3 10,13 71,27 105,71 105,135 0,77 -61,138 -138,138 -76,0 -138,-62 -138,-139 0,-75 63,-137 140,-137m0 0l1 0m0 0c3,0 3,0 30,2m0 0l14 1m-537 121l13 0m0 0c-1,-8 -4,-12 -12,-13 8,-66 78,-123 152,-123 87,0 158,70 158,157 0,87 -71,158 -158,158 -87,0 -156,-70 -156,-156m0 0l0 -1m0 0c0,-10 0,-10 5,-46m0 0l0 -3m-303 43l1 -13 -13 13 14 -13m0 0c3,-46 30,-69 80,-69 48,0 85,37 85,84 0,46 -38,84 -85,84 -45,0 -83,-37 -83,-82 0,-7 1,-14 4,-34m-1129 -1086l2 -12 -14 12 13 -12m0 0c16,-64 67,-105 133,-105 76,0 138,61 138,138 0,92 -46,138 -138,138 -76,0 -138,-61 -138,-138m0 0l0 -1m0 0c0,-8 0,-8 5,-41m0 0l1 -5m-363 25l1 -13 -12 13 13 -13m0 0c6,-65 78,-124 151,-124 88,0 158,71 158,158 0,87 -70,157 -157,157 -45,0 -88,-19 -119,-54 -30,-34 -43,-79 -37,-122m0 0l6 -29m-305 42c7,-55 37,-85 85,-85 47,0 84,38 84,85 0,46 -38,84 -85,84 -46,0 -83,-37 -83,-83 0,-6 1,-13 3,-31m2445 16c11,-75 65,-124 137,-124 77,0 138,61 138,138 -1,77 -62,138 -138,138 -75,0 -138,-62 -138,-137 0,-10 1,-15 5,-41m-364 25l2 -13 -13 13 12 -13m0 0c7,-66 78,-124 152,-124 88,0 158,70 158,158 0,87 -71,157 -158,157 -87,0 -156,-69 -156,-156m0 0l0 -1m0 0c0,-9 0,-9 5,-44m0 0l0 -4m-303 42l1 -12 -13 12 14 -12m0 0c2,-47 29,-71 80,-71 47,0 86,38 85,85 0,46 -38,84 -84,84 -46,0 -84,-37 -84,-82 0,-7 1,-13 4,-34m658 4390c10,-73 65,-124 137,-124 77,0 138,61 138,138 -1,77 -62,138 -138,138 -76,0 -138,-62 -138,-137 0,-10 1,-14 5,-41m-364 25l2 -13 -13 13 12 -13m0 0c12,-70 77,-123 153,-123 87,0 157,70 157,157 0,87 -71,158 -158,158 -87,0 -156,-70 -156,-156m0 0l0 -1m0 0c0,-10 0,-10 5,-45m0 0l0 -4m-303 43l1 -13 -13 13 14 -13m0 0c2,-47 29,-71 80,-71 47,0 86,38 85,85 0,46 -38,84 -84,84 -46,0 -84,-37 -84,-81 0,-8 1,-14 4,-34"/>
 </g>
</svg>
