<?xml version="1.0" encoding="UTF-8"?>
<!DOCTYPE svg PUBLIC "-//W3C//DTD SVG 1.1//EN" "http://www.w3.org/Graphics/SVG/1.1/DTD/svg11.dtd">
<!-- Creator: CorelDRAW -->
<svg xmlns="http://www.w3.org/2000/svg" xml:space="preserve" width="40mm" height="60mm" style="shape-rendering:geometricPrecision; text-rendering:geometricPrecision; image-rendering:optimizeQuality; fill-rule:evenodd; clip-rule:evenodd"
viewBox="0 0 40 60"
 xmlns:xlink="http://www.w3.org/1999/xlink">
 <defs>
  <style type="text/css">
   <![CDATA[
    .str0 {stroke:#1F1A17;stroke-width:0.194}
    .fil0 {fill:none;fill-rule:nonzero}
   ]]>
  </style>
 </defs>
 <g id="图层_x0020_1">
  <metadata id="CorelCorpID_0Corel-Layer"/>
  <path class="fil0 str0" d="M31.8805 30.0164l0 0.1082 0.067 -0.0165 0.0411 -0.0575 0 -0.0753 -0.0411 -0.0587 -0.067 -0.0165m-0.0717 0.2633c0.0141,-0.3515 0.0306,-0.4855 0.0717,-0.5972m-0.0129 21.8882l-0.0588 -21.291m-19.6451 23.1109c2.8334,0.1834 4.1889,0.2257 7.1739,0.2257 0.2163,0 0.4456,0 0.6877,0 0.154,0 0.3021,0 0.4432,0 3.1883,0 3.9114,-0.02 6.7176,-0.1764 2.175,-0.121 2.9615,-0.1822 3.4106,-0.2645 0.4503,-0.0811 0.6654,-0.1998 0.9358,-0.5161 0.2728,-0.3209 0.3362,-0.5267 0.3351,-1.0886m-19.7403 1.8175l0.0364 0.0024m-4.1347 -12.6488c-0.0447,7.6146 -0.0071,10.6537 0.1399,11.1757 0.2763,0.6877 0.4632,0.9334 0.8653,1.1345 0.3103,0.1564 0.3045,0.1552 3.0931,0.3362m-3.9067 -45.0719l-0.1916 32.4255m0.1916 -32.4255c0.0318,-0.395 0.4044,-0.897 0.8171,-1.1004 0.281,-0.1387 0.3057,-0.1423 1.8399,-0.261 0,0 0.2918,-0.0151 0.2918,-0.0151l-0.0026 0.6735m1.6365 0.1857c-0.0212,0.5008 -0.3527,0.8394 -0.8229,0.8394 -0.5291,0 -0.8171,-0.3621 -0.8136,-1.0251m1.6365 0.1857l-0.0442 -0.7021c0,0 -0.0115,-0.2424 -0.0229,-0.32 0.0082,-0.0005 0.2602,-0.0177 0.741,-0.0306l0.2395 -0.0022c0,0 0.0003,0.0092 0.0318,0.8868m0.0118 0.368l-0.0118 -0.368m0.9076 0.2951c0,0.0223 0,0.047 0,0.0729 0,0.3233 -0.1375,0.4843 -0.4138,0.482 -0.2974,-0.0024 -0.4573,-0.1634 -0.482,-0.482m0.8958 -0.1494l0 0.0765m0 -0.0765c0,-0.3 -0.0569,-0.7869 0.0282,-1.0509 0.3186,-0.1623 1.2756,-0.1823 5.6149,-0.1823 3.6892,0 7.7522,0.1752 10.1435,0.4362 0.8958,0.0975 1.4096,0.6466 1.4401,1.5401 -0.0011,7.1409 -0.0011,14.2829 -0.0023,21.4238"/>
 </g>
</svg>
