<?xml version="1.0" encoding="UTF-8"?>
<!DOCTYPE svg PUBLIC "-//W3C//DTD SVG 1.1//EN" "http://www.w3.org/Graphics/SVG/1.1/DTD/svg11.dtd">
<!-- Creator: CorelDRAW X8 -->
<svg xmlns="http://www.w3.org/2000/svg" xml:space="preserve" width="40mm" height="60mm" version="1.1" style="shape-rendering:geometricPrecision; text-rendering:geometricPrecision; image-rendering:optimizeQuality; fill-rule:evenodd; clip-rule:evenodd"
viewBox="0 0 4000 6000"
 xmlns:xlink="http://www.w3.org/1999/xlink">
 <defs>
  <style type="text/css">
   <![CDATA[
    .str0 {stroke:black;stroke-width:7.62}
    .fil0 {fill:none}
   ]]>
  </style>
 </defs>
 <g id="图层_x0020_1">
  <metadata id="CorelCorpID_0Corel-Layer"/>
  <path class="fil0 str0" d="M1772 1473c-3,-11 -7,-20 -27,-20l-17 0c-23,0 -41,19 -41,42l0 0c0,23 18,42 41,42l189 0c23,0 42,-19 42,-42l0 0c0,-23 -19,-42 -42,-42l-172 0m-354 -546c-2,-15 -15,-30 -43,-32 -99,0 -179,81 -179,180 0,99 80,179 179,179 99,0 180,-80 180,-179 0,-99 -81,-180 -180,-180m43 435c-2,-16 -15,-30 -43,-32 -99,0 -179,80 -179,179 0,99 80,180 179,180 99,0 180,-81 180,-180 0,-99 -81,-179 -180,-179m32 430c-1,-11 -11,-22 -32,-23 -74,0 -134,60 -134,134 0,75 60,135 134,135 74,0 135,-60 135,-135 0,-74 -61,-134 -135,-134m-89 -863l652 0c77,0 139,62 139,139l0 903c0,76 -62,139 -139,139l-652 0c-77,0 -139,-63 -139,-139l0 -903c0,-77 62,-139 139,-139zm-21 -28l690 0c85,0 154,69 154,154l0 932c0,85 -69,154 -154,154l-690 0c-85,0 -154,-69 -154,-154l0 -932c0,-85 69,-154 154,-154zm-223 4538l1848 0c126,0 228,-103 228,-229l0 -4225c0,-125 -102,-228 -228,-228l-1726 0c-126,0 -228,103 -228,228l0 963c0,6 0,9 3,15l28 55c2,5 2,7 2,12l0 1071c0,9 0,11 -4,17l-27 49c-2,4 -2,6 -2,11l0 2032c0,126 102,229 228,229l21 0c19,0 36,8 50,18"/>
 </g>
</svg>
