<?xml version="1.0" encoding="UTF-8"?>
<!DOCTYPE svg PUBLIC "-//W3C//DTD SVG 1.1//EN" "http://www.w3.org/Graphics/SVG/1.1/DTD/svg11.dtd">
<!-- Creator: CorelDRAW X8 -->
<svg xmlns="http://www.w3.org/2000/svg" xml:space="preserve" width="40mm" height="60mm" version="1.1" style="shape-rendering:geometricPrecision; text-rendering:geometricPrecision; image-rendering:optimizeQuality; fill-rule:evenodd; clip-rule:evenodd"
viewBox="0 0 4000 6000"
 xmlns:xlink="http://www.w3.org/1999/xlink">
 <defs>
  <style type="text/css">
   <![CDATA[
    .str0 {stroke:black;stroke-width:20}
    .fil0 {fill:none}
   ]]>
  </style>
 </defs>
 <g id="图层_x0020_1">
  <metadata id="CorelCorpID_0Corel-Layer"/>
  <path class="fil0 str0" d="M1144 650l1712 0c146,0 266,120 266,266l0 4168c0,146 -120,266 -266,266l-1712 0c-146,0 -266,-120 -266,-266l0 -4168c0,-146 120,-266 266,-266zm40 92l265 0c68,0 123,55 123,122l0 640c0,67 -55,123 -123,123l-265 0c-67,0 -122,-56 -122,-123l0 -640c0,-67 55,-122 122,-122zm816 793l0 0c84,0 153,69 153,153l0 108c0,84 -69,153 -153,153l0 0c-84,0 -153,-69 -153,-153l0 -108c0,-84 69,-153 153,-153z"/>
 </g>
</svg>
