<?xml version="1.0" encoding="UTF-8"?>
<!DOCTYPE svg PUBLIC "-//W3C//DTD SVG 1.1//EN" "http://www.w3.org/Graphics/SVG/1.1/DTD/svg11.dtd">
<!-- Creator: CorelDRAW X8 -->
<svg xmlns="http://www.w3.org/2000/svg" xml:space="preserve" width="40mm" height="60mm" version="1.1" style="shape-rendering:geometricPrecision; text-rendering:geometricPrecision; image-rendering:optimizeQuality; fill-rule:evenodd; clip-rule:evenodd"
viewBox="0 0 4000 6000"
 xmlns:xlink="http://www.w3.org/1999/xlink">
 <defs>
  <style type="text/css">
   <![CDATA[
    .str0 {stroke:#332C2B;stroke-width:17.59}
    .fil0 {fill:none}
   ]]>
  </style>
 </defs>
 <g id="图层_x0020_1">
  <metadata id="CorelCorpID_0Corel-Layer"/>
  <path class="fil0 str0" d="M1127 1091c0,-187 153,-340 340,-340l0 0c187,0 341,153 341,340l0 557c0,187 -154,341 -341,341l0 0c-187,0 -340,-154 -340,-341l0 -557zm232 225c-1,-8 -8,-16 -24,-18 -57,0 -102,46 -102,103 0,56 45,102 102,102 56,0 102,-46 102,-102 0,-57 -46,-103 -102,-103m131 -498l0 0c161,0 292,132 292,293l0 555c0,160 -131,292 -292,292l0 0c-161,0 -292,-132 -292,-292l0 -555c0,-161 131,-293 292,-293zm51 114c-2,-18 -17,-35 -50,-38 -117,0 -212,95 -212,212 0,117 95,212 212,212 117,0 211,-95 211,-212 0,-117 -94,-212 -211,-212m156 440c-1,-8 -8,-16 -24,-18 -57,0 -103,46 -103,103 0,56 46,102 103,102 56,0 102,-46 102,-102 0,-57 -46,-103 -102,-103m-240 312c-1,-8 -8,-16 -24,-18 -57,0 -102,46 -102,103 0,56 45,102 102,102 56,0 102,-46 102,-102 0,-57 -46,-103 -102,-103m288 19c-1,-9 -8,-17 -24,-18 -57,0 -103,45 -103,102 0,56 46,102 103,102 56,0 102,-46 102,-102 0,-57 -46,-102 -102,-102m-703 3623l2000 0c115,0 208,-94 208,-208l0 -4151c0,-114 -93,-207 -208,-207l-1731 0c-114,0 -208,93 -208,207l0 881c0,32 0,20 15,45 13,21 20,46 20,72l0 945c0,26 -7,50 -20,71 -15,26 -15,13 -15,46l0 2091c0,114 94,208 208,208 114,0 232,61 232,134"/>
  <path class="fil0 str0" d="M7789 5243c-641,0 -1166,-525 -1166,-1166l0 0c0,-640 525,-1165 1166,-1165l1907 0c641,0 1165,525 1165,1165l0 0c0,641 -524,1166 -1165,1166l-1907 0z"/>
  <path class="fil0 str0" d="M8560 4447c-30,2 -58,29 -62,83 0,193 157,350 350,350 194,0 350,-157 350,-350 0,-193 -156,-350 -350,-350 -193,0 -350,157 -350,350"/>
  <path class="fil0 str0" d="M6794 4081l0 0c0,-550 450,-1000 1000,-1000l1900 0c550,0 1000,450 1000,1000l0 0c0,550 -450,1000 -1000,1000l-1900 0c-550,0 -1000,-450 -1000,-1000z"/>
  <path class="fil0 str0" d="M7181 3908c-62,4 -119,58 -128,171 0,400 325,725 725,725 401,0 725,-325 725,-725 0,-400 -324,-725 -725,-725 -400,0 -725,325 -725,725"/>
  <path class="fil0 str0" d="M8560 3544c-30,2 -58,28 -62,83 0,193 157,350 350,350 194,0 350,-157 350,-350 0,-194 -156,-350 -350,-350 -193,0 -350,156 -350,350"/>
  <path class="fil0 str0" d="M9566 4447c-29,2 -57,29 -61,83 0,193 156,350 350,350 193,0 350,-157 350,-350 0,-193 -157,-350 -350,-350 -194,0 -350,157 -350,350"/>
  <path class="fil0 str0" d="M9568 3544c-30,2 -58,28 -62,83 0,193 157,350 350,350 193,0 350,-157 350,-350 0,-194 -157,-350 -350,-350 -193,0 -350,156 -350,350"/>
  <path class="fil0 str0" d="M21907 6032l0 -6847c0,-391 -319,-710 -710,-710l-14208 0c-390,0 -710,319 -710,710l0 5927c0,391 320,710 710,710l3013 0c111,0 69,1 157,-51 71,-42 154,-66 243,-66l3235 0c89,0 173,24 244,67 88,52 47,50 158,50l7158 0c391,0 710,-319 710,-710 0,-390 209,-796 460,-796"/>
 </g>
</svg>
