<?xml version="1.0" encoding="UTF-8"?>
<!DOCTYPE svg PUBLIC "-//W3C//DTD SVG 1.1//EN" "http://www.w3.org/Graphics/SVG/1.1/DTD/svg11.dtd">
<!-- Creator: CorelDRAW 2020 (64-Bit) -->
<svg xmlns="http://www.w3.org/2000/svg" xml:space="preserve" width="40mm" height="60mm" version="1.1" style="shape-rendering:geometricPrecision; text-rendering:geometricPrecision; image-rendering:optimizeQuality; fill-rule:evenodd; clip-rule:evenodd"
viewBox="0 0 4000 6000"
 xmlns:xlink="http://www.w3.org/1999/xlink"
 xmlns:xodm="http://www.corel.com/coreldraw/odm/2003">
 <defs>
  <style type="text/css">
   <![CDATA[
    .str0 {stroke:#332C2B;stroke-width:7.62;stroke-miterlimit:22.9256}
    .fil0 {fill:none}
   ]]>
  </style>
 </defs>
 <g id="图层_x0020_1">
  <metadata id="CorelCorpID_0Corel-Layer"/>
  <path class="fil0 str0" d="M23513 6834.14l0 -6781.89c0,-329.98 -270.2,-599.98 -599.99,-599.98l-14673.49 0c-329.79,0 -599.99,270.19 -599.99,599.98l0 5996.96c0,329.8 270,599.99 599.99,599.99l14673.49 0c329.99,0 599.99,-269.99 599.99,-599.99 0,-330 -5.09,-556.98 215.39,-556.98"/>
  <circle class="fil0 str0" transform="matrix(2.39374E-14 -0.903826 0.903826 2.39374E-14 8158.73 3043.34)" r="171.98"/>
  <path class="fil0 str0" d="M1096.43 655.67l1793.95 0c97.1,0 176.54,79.45 176.54,176.54l0 4346.92c0,97.1 -79.44,176.54 -176.54,176.54l-1793.95 0c-97.1,0 -176.54,-79.44 -176.54,-176.54l0 -4346.92c0,-97.09 79.44,-176.54 176.54,-176.54zm899.15 121.75c25.26,0 45.73,20.47 45.73,45.73 0,25.26 -20.47,45.74 -45.73,45.74 -25.26,0 -45.74,-20.48 -45.74,-45.74 0,-25.26 20.48,-45.73 45.74,-45.73z"/>
 </g>
</svg>
