<?xml version="1.0" encoding="UTF-8"?>
<!DOCTYPE svg PUBLIC "-//W3C//DTD SVG 1.1//EN" "http://www.w3.org/Graphics/SVG/1.1/DTD/svg11.dtd">
<!-- Creator: CorelDRAW X8 -->
<svg xmlns="http://www.w3.org/2000/svg" xml:space="preserve" width="40mm" height="60mm" version="1.1" style="shape-rendering:geometricPrecision; text-rendering:geometricPrecision; image-rendering:optimizeQuality; fill-rule:evenodd; clip-rule:evenodd"
viewBox="0 0 4000 6000"
 xmlns:xlink="http://www.w3.org/1999/xlink">
 <defs>
  <style type="text/css">
   <![CDATA[
    .str0 {stroke:black;stroke-width:7.62}
    .fil0 {fill:none}
   ]]>
  </style>
 </defs>
 <g id="图层_x0020_1">
  <metadata id="CorelCorpID_0Corel-Layer"/>
  <path class="fil0 str0" d="M2697 860c160,0 291,131 291,291l0 12 166 0 0 132 -65 0c-12,0 -22,10 -22,22l0 519c0,12 10,22 22,22l65 0 0 2998 -166 0 0 -6c0,160 -131,291 -291,291l606 -48 8 241 -570 72 -107 0 0 -146c0,-41 -33,-74 -73,-74l0 0c-41,0 -74,33 -74,74l0 146 -132 0 0 -181c0,-21 -18,-39 -39,-39l0 0c-21,0 -39,18 -39,39l0 181 -151 0 0 -146c0,-44 -35,-79 -79,-79l-164 0c-44,0 -80,35 -80,79l0 146 -726 0 -388 -77 11 -224 530 36c-160,0 -291,-131 -291,-291l0 -2 -160 0 0 -2076 69 0c12,0 22,-10 22,-22l0 -242c0,-12 -10,-22 -22,-22l-69 0 0 -186 79 0c12,0 22,-10 22,-22l0 -584c0,-12 -10,-22 -22,-22l-79 0 0 -517 160 0 0 -4c0,-160 131,-291 291,-291l-513 55 -28 -196 364 -125 1696 0 489 99 -27 222 -514 -55zm-1525 4371l225 0c19,0 35,16 35,35l0 0c0,19 -16,35 -35,35l-225 0c-19,0 -35,-16 -35,-35l0 0c0,-19 16,-35 35,-35zm788 -3663c112,0 203,90 203,202 0,112 -91,203 -203,203 -112,0 -202,-91 -202,-203 0,-112 90,-202 202,-202zm-663 -637c71,0 129,58 129,129 0,71 -58,129 -129,129 -72,0 -130,-58 -130,-129 0,-71 58,-129 130,-129zm281 0c71,0 129,58 129,129 0,71 -58,129 -129,129 -71,0 -129,-58 -129,-129 0,-71 58,-129 129,-129zm259 73c37,0 66,30 66,66 0,37 -29,66 -66,66 -36,0 -66,-29 -66,-66 0,-36 30,-66 66,-66zm385 -308c22,0 40,18 40,40 0,23 -18,41 -40,41 -23,0 -41,-18 -41,-41 0,-22 18,-40 41,-40z"/>
 </g>
</svg>
