<?xml version="1.0" encoding="UTF-8"?>
<!DOCTYPE svg PUBLIC "-//W3C//DTD SVG 1.1//EN" "http://www.w3.org/Graphics/SVG/1.1/DTD/svg11.dtd">
<!-- Creator: CorelDRAW 2020 (64-Bit) -->
<svg xmlns="http://www.w3.org/2000/svg" xml:space="preserve" width="40mm" height="60mm" version="1.1" style="shape-rendering:geometricPrecision; text-rendering:geometricPrecision; image-rendering:optimizeQuality; fill-rule:evenodd; clip-rule:evenodd"
viewBox="0 0 4000 6000"
 xmlns:xlink="http://www.w3.org/1999/xlink"
 xmlns:xodm="http://www.corel.com/coreldraw/odm/2003">
 <defs>
  <style type="text/css">
   <![CDATA[
    .str0 {stroke:black;stroke-width:25.4;stroke-linecap:round;stroke-linejoin:round;stroke-miterlimit:10}
    .fil0 {fill:none;fill-rule:nonzero}
    .fil1 {fill:black;fill-rule:nonzero}
   ]]>
  </style>
 </defs>
 <g id="圖層_x0020_1">
  <metadata id="CorelCorpID_0Corel-Layer"/>
  <path class="fil0 str0" d="M-27166.37 -9326.63c-21.92,46.25 -32.63,95.29 -32.63,143.85l0 17200.02c0,50.68 10.71,99.72 32.63,143.85l224.37 495.3c54.96,123.61 177.49,202.23 313.45,200.11l10739.95 0c133.84,2.12 256.37,-76.5 313.46,-200.11l224.36 -495.3c19.8,-44.13 30.51,-93.17 30.51,-143.85l0 -71.96c0,-53.89 44.54,-98.43 100.54,-100.55l300.56 -2.11c53.89,0 98.43,-44.54 98.43,-100.54l0 -300.57c0,-53.88 -44.54,-98.42 -98.43,-98.42l-300.56 0c-56,0 -100.54,-44.54 -100.54,-100.54l0 -15925.79c0,-9.47 -8.53,-18 -19.05,-18 -54.95,0 -99.49,-44.54 -99.49,-99.48 0,-54.94 44.54,-99.48 99.49,-101.6 10.52,-2.12 19.05,-10.65 19.05,-22.22l0 -258.24c0,-48.56 -10.71,-97.6 -30.51,-143.85l-224.36 -495.3c-57.09,-121.49 -179.62,-200.11 -313.46,-200.11l-10739.95 0c-135.96,0 -258.49,78.62 -313.45,200.11l-224.37 495.3z"/>
  <g>
   <path class="fil1" d="M514.18 743.96l-6.32 0 0 0 0.01 -1.17 0.02 -1.18 0.04 -1.19 0.06 -1.18 0.08 -1.16 0.08 -1.18 0.1 -1.18 0.13 -1.2 0.14 -1.17 0.16 -1.16 0.16 -1.18 0.19 -1.18 0.21 -1.17 0.22 -1.17 0.24 -1.19 0.26 -1.16 0.26 -1.15 0.29 -1.18 0.31 -1.17 0.32 -1.15 0.33 -1.16 0.35 -1.16 0.38 -1.15 0.38 -1.15 0.41 -1.15 0.42 -1.14 0.44 -1.15 0.45 -1.12 0.47 -1.14 0.49 -1.13 0.5 -1.12 0.52 -1.12 5.72 2.7 -0.48 1.04 -0.48 1.06 -0.45 1.03 -0.43 1.06 -0.43 1.06 -0.4 1.05 -0.4 1.08 -0.37 1.05 -0.36 1.07 -0.34 1.07 -0.33 1.06 -0.31 1.08 -0.3 1.09 -0.29 1.07 -0.25 1.06 -0.26 1.11 -0.24 1.08 -0.22 1.07 -0.2 1.09 -0.19 1.09 -0.17 1.08 -0.16 1.1 -0.14 1.1 -0.14 1.09 -0.11 1.08 -0.1 1.08 -0.08 1.1 -0.06 1.1 -0.06 1.1 -0.04 1.07 -0.02 1.1 -0.01 1.09 0 0zm0 0c0,1.74 -1.42,3.16 -3.16,3.16 -1.74,0 -3.16,-1.42 -3.16,-3.16l6.32 0zm-6.32 4282.1l0 -4282.1 6.32 0 0 4282.1 0 0 -6.32 0zm6.32 0c0,1.74 -1.42,3.16 -3.16,3.16 -1.74,0 -3.16,-1.42 -3.16,-3.16l6.32 0zm7.84 34.51l-5.76 2.6 0.05 0.11 -0.52 -1.08 -0.51 -1.08 -0.5 -1.1 -0.46 -1.09 -0.46 -1.11 -0.44 -1.11 -0.42 -1.11 -0.41 -1.13 -0.39 -1.14 -0.37 -1.13 -0.36 -1.15 -0.33 -1.14 -0.32 -1.14 -0.31 -1.17 -0.29 -1.17 -0.26 -1.15 -0.26 -1.17 -0.24 -1.19 -0.22 -1.18 -0.21 -1.18 -0.19 -1.2 -0.16 -1.19 -0.16 -1.19 -0.14 -1.19 -0.13 -1.22 -0.1 -1.22 -0.09 -1.21 -0.07 -1.19 -0.06 -1.22 -0.04 -1.23 -0.02 -1.22 -0.01 -1.22 6.32 0 0.01 1.14 0.02 1.14 0.04 1.13 0.06 1.12 0.07 1.15 0.07 1.13 0.1 1.1 0.11 1.12 0.14 1.11 0.14 1.13 0.16 1.11 0.17 1.08 0.19 1.1 0.2 1.1 0.22 1.07 0.24 1.09 0.26 1.09 0.25 1.07 0.29 1.05 0.3 1.08 0.31 1.06 0.32 1.05 0.35 1.05 0.35 1.04 0.37 1.03 0.4 1.03 0.4 1.03 0.42 1.01 0.44 1.01 0.44 1 0.47 1 0.48 0.98 0.05 0.11zm-0.05 -0.11c0.77,1.56 0.14,3.47 -1.42,4.24 -1.56,0.77 -3.47,0.14 -4.24,-1.42l5.66 -2.82zm50.15 126.02l-55.86 -123.31 5.76 -2.6 55.86 123.31 0.01 0.02 -5.77 2.58zm5.76 -2.6c0.71,1.59 0.01,3.47 -1.58,4.18 -1.59,0.71 -3.47,0.01 -4.18,-1.58l5.76 -2.6zm75.16 47.96l0 6.32 0.05 0 -3.28 -0.01 -3.25 -0.12 -3.24 -0.25 -3.21 -0.38 -3.17 -0.47 -3.14 -0.59 -3.11 -0.71 -3.07 -0.82 -3.03 -0.92 -2.98 -1.04 -2.93 -1.14 -2.9 -1.24 -2.84 -1.35 -2.79 -1.44 -2.73 -1.55 -2.66 -1.64 -2.61 -1.73 -2.55 -1.83 -2.47 -1.92 -2.42 -2.01 -2.34 -2.1 -2.26 -2.19 -2.19 -2.27 -2.1 -2.35 -2.03 -2.43 -1.95 -2.53 -1.85 -2.59 -1.76 -2.66 -1.68 -2.75 -1.58 -2.82 -1.48 -2.89 -1.38 -2.96 5.78 -2.56 1.28 2.74 1.38 2.69 1.46 2.6 1.56 2.55 1.64 2.48 1.71 2.41 1.81 2.33 1.87 2.25 1.96 2.19 2.03 2.11 2.1 2.03 2.16 1.94 2.24 1.87 2.29 1.78 2.37 1.69 2.41 1.61 2.48 1.52 2.53 1.43 2.59 1.34 2.62 1.25 2.68 1.14 2.73 1.06 2.76 0.96 2.81 0.86 2.85 0.76 2.87 0.65 2.92 0.55 2.95 0.45 2.97 0.34 3 0.23 3.03 0.12 3.04 0.01 0.05 0zm-0.05 0c1.74,-0.02 3.19,1.37 3.21,3.11 0.02,1.74 -1.37,3.19 -3.11,3.21l-0.1 -6.32zm2673.86 6.32l-2673.81 0 0 -6.32 2673.81 0 0.05 0 -0.05 6.32zm0 -6.32c1.74,0 3.16,1.42 3.16,3.16 0,1.74 -1.42,3.16 -3.16,3.16l0 -6.32zm75.16 -47.96l5.76 2.6 -0.01 0.03 -1.43 2.95 -1.52 2.89 -1.63 2.81 -1.71 2.74 -1.8 2.67 -1.89 2.58 -1.97 2.53 -2.05 2.42 -2.12 2.35 -2.21 2.27 -2.28 2.19 -2.36 2.1 -2.41 2.01 -2.48 1.92 -2.56 1.82 -2.61 1.73 -2.66 1.64 -2.72 1.55 -2.78 1.44 -2.83 1.35 -2.88 1.24 -2.91 1.13 -2.96 1.04 -3.01 0.93 -3.04 0.82 -3.08 0.7 -3.12 0.6 -3.13 0.47 -3.16 0.38 -3.21 0.25 -3.2 0.12 -3.24 0.01 0.1 -6.32 3 -0.01 2.98 -0.12 2.95 -0.23 2.94 -0.34 2.91 -0.45 2.88 -0.54 2.84 -0.66 2.82 -0.76 2.79 -0.85 2.74 -0.96 2.71 -1.07 2.68 -1.14 2.61 -1.25 2.58 -1.34 2.52 -1.43 2.48 -1.52 2.43 -1.61 2.36 -1.7 2.3 -1.78 2.25 -1.87 2.18 -1.94 2.12 -2.03 2.05 -2.11 1.98 -2.19 1.91 -2.26 1.83 -2.33 1.75 -2.42 1.68 -2.47 1.59 -2.56 1.51 -2.61 1.42 -2.69 1.33 -2.75 -0.01 0.03zm0.01 -0.03c0.73,-1.58 2.62,-2.27 4.2,-1.54 1.58,0.73 2.27,2.62 1.54,4.2l-5.74 -2.66zm61.6 -120.68l-55.85 123.31 -5.76 -2.6 55.85 -123.31 5.76 2.6zm-5.76 -2.6c0.71,-1.59 2.59,-2.29 4.18,-1.58 1.59,0.71 2.29,2.59 1.58,4.18l-5.76 -2.6zm7.32 -34.51l6.32 0 0 0 -0.01 1.22 -0.02 1.22 -0.04 1.22 -0.05 1.21 -0.08 1.23 -0.09 1.21 -0.1 1.18 -0.12 1.22 -0.13 1.2 -0.16 1.2 -0.16 1.18 -0.18 1.18 -0.2 1.2 -0.21 1.18 -0.23 1.16 -0.24 1.17 -0.26 1.16 -0.27 1.16 -0.29 1.16 -0.3 1.14 -0.31 1.14 -0.33 1.15 -0.35 1.12 -0.35 1.12 -0.38 1.14 -0.39 1.11 -0.41 1.1 -0.41 1.09 -0.42 1.09 -0.45 1.1 -0.46 1.08 -0.48 1.07 -5.76 -2.6 0.44 -0.99 0.42 -1 0.41 -1 0.4 -1.01 0.39 -1.03 0.37 -1.04 0.37 -1.03 0.34 -1.02 0.33 -1.06 0.33 -1.06 0.31 -1.05 0.29 -1.06 0.28 -1.08 0.27 -1.06 0.25 -1.08 0.24 -1.08 0.22 -1.09 0.21 -1.1 0.21 -1.1 0.18 -1.08 0.16 -1.1 0.16 -1.12 0.14 -1.12 0.13 -1.1 0.1 -1.12 0.1 -1.14 0.09 -1.13 0.06 -1.11 0.05 -1.13 0.04 -1.14 0.02 -1.14 0.01 -1.14 0 0zm0 0c0,-1.74 1.42,-3.16 3.16,-3.16 1.74,0 3.16,1.42 3.16,3.16l-6.32 0zm6.32 -17.91l0 17.91 -6.32 0 0 -17.91 0 0 6.32 0zm-6.32 0c0,-1.74 1.42,-3.16 3.16,-3.16 1.74,0 3.16,1.42 3.16,3.16l-6.32 0zm28.17 -28.2l0.04 6.32 0.1 0 -1.15 0.07 -1.13 0.12 -1.11 0.18 -1.09 0.23 -1.07 0.27 -1.06 0.33 -1.02 0.37 -1.01 0.41 -0.97 0.46 -0.95 0.5 -0.93 0.55 -0.9 0.58 -0.85 0.61 -0.83 0.66 -0.8 0.69 -0.75 0.74 -0.74 0.75 -0.67 0.78 -0.66 0.83 -0.61 0.85 -0.55 0.87 -0.53 0.9 -0.48 0.93 -0.43 0.94 -0.38 0.96 -0.35 1.01 -0.29 1.01 -0.24 1.01 -0.18 1.04 -0.15 1.07 -0.08 1.07 -0.03 1.09 -6.32 0 0.03 -1.41 0.12 -1.41 0.17 -1.37 0.24 -1.36 0.32 -1.35 0.39 -1.31 0.43 -1.27 0.5 -1.26 0.57 -1.24 0.62 -1.19 0.67 -1.16 0.73 -1.13 0.79 -1.09 0.82 -1.05 0.89 -1.02 0.92 -0.97 0.97 -0.92 1.02 -0.89 1.05 -0.84 1.11 -0.79 1.14 -0.74 1.17 -0.69 1.21 -0.64 1.25 -0.58 1.27 -0.53 1.3 -0.47 1.34 -0.41 1.35 -0.35 1.39 -0.29 1.41 -0.22 1.43 -0.16 1.45 -0.09 0.1 0zm-0.1 0c1.74,-0.06 3.22,1.3 3.28,3.04 0.06,1.74 -1.3,3.22 -3.04,3.28l-0.24 -6.32zm74.96 5.8l-74.82 0.52 -0.04 -6.32 74.82 -0.52 0.02 0 0.02 6.32zm-0.04 -6.32c1.74,-0.01 3.17,1.4 3.18,3.14 0.01,1.74 -1.4,3.17 -3.14,3.18l-0.04 -6.32zm21.37 -21.87l6.32 0 0 0 -0.03 1.46 -0.11 1.44 -0.18 1.4 -0.24 1.4 -0.31 1.37 -0.38 1.34 -0.44 1.31 -0.49 1.29 -0.56 1.25 -0.61 1.21 -0.68 1.18 -0.71 1.14 -0.77 1.11 -0.83 1.07 -0.88 1.02 -0.91 0.97 -0.97 0.94 -1 0.88 -1.04 0.82 -1.09 0.8 -1.13 0.72 -1.15 0.68 -1.19 0.62 -1.24 0.57 -1.25 0.49 -1.27 0.44 -1.31 0.39 -1.35 0.32 -1.36 0.24 -1.37 0.17 -1.41 0.12 -1.41 0.03 0 -6.32 1.09 -0.03 1.07 -0.08 1.07 -0.15 1.04 -0.18 1.01 -0.24 1.01 -0.29 0.99 -0.34 0.97 -0.39 0.94 -0.43 0.91 -0.48 0.91 -0.52 0.85 -0.56 0.83 -0.6 0.82 -0.66 0.78 -0.68 0.75 -0.72 0.71 -0.75 0.68 -0.8 0.63 -0.81 0.59 -0.85 0.57 -0.9 0.52 -0.92 0.47 -0.95 0.44 -0.97 0.39 -0.99 0.34 -1.01 0.28 -1.06 0.25 -1.05 0.18 -1.08 0.14 -1.12 0.09 -1.12 0.03 -1.14 0 0zm0 0c0,-1.74 1.42,-3.16 3.16,-3.16 1.74,0 3.16,1.42 3.16,3.16l-6.32 0zm6.32 -74.83l0 74.83 -6.32 0 0 -74.83 0 0 6.32 0zm-6.32 0c0,-1.74 1.42,-3.16 3.16,-3.16 1.74,0 3.16,1.42 3.16,3.16l-6.32 0zm-21.35 -21.35l0 -6.32 0 0 1.41 0.03 1.41 0.12 1.37 0.17 1.36 0.24 1.34 0.32 1.31 0.37 1.28 0.45 1.25 0.49 1.23 0.57 1.19 0.61 1.16 0.68 1.11 0.71 1.08 0.77 1.06 0.83 1 0.87 0.97 0.91 0.91 0.97 0.87 1 0.83 1.06 0.77 1.08 0.71 1.11 0.68 1.16 0.61 1.19 0.57 1.23 0.49 1.25 0.45 1.28 0.37 1.31 0.32 1.34 0.24 1.36 0.17 1.37 0.12 1.41 0.03 1.41 -6.32 0 -0.03 -1.09 -0.08 -1.07 -0.15 -1.07 -0.18 -1.04 -0.24 -1.02 -0.29 -1.01 -0.33 -0.98 -0.39 -0.97 -0.43 -0.95 -0.47 -0.91 -0.52 -0.9 -0.57 -0.87 -0.59 -0.84 -0.63 -0.8 -0.69 -0.78 -0.71 -0.75 -0.75 -0.71 -0.78 -0.69 -0.8 -0.63 -0.84 -0.59 -0.87 -0.57 -0.9 -0.52 -0.91 -0.47 -0.95 -0.43 -0.97 -0.39 -0.98 -0.33 -1.01 -0.29 -1.02 -0.24 -1.04 -0.18 -1.07 -0.15 -1.07 -0.08 -1.09 -0.03 0 0zm0 0c-1.74,0 -3.16,-1.42 -3.16,-3.16 0,-1.74 1.42,-3.16 3.16,-3.16l0 6.32zm-74.82 -6.32l74.82 0 0 6.32 -74.82 0 0 0 0 -6.32zm0 6.32c-1.74,0 -3.16,-1.42 -3.16,-3.16 0,-1.74 1.42,-3.16 3.16,-3.16l0 6.32zm-28.19 -28.19l6.32 0 0 0 0.03 1.14 0.09 1.12 0.14 1.12 0.18 1.08 0.24 1.05 0.3 1.05 0.35 1.03 0.38 0.99 0.43 0.96 0.48 0.95 0.53 0.92 0.55 0.87 0.61 0.85 0.65 0.83 0.68 0.8 0.73 0.75 0.75 0.72 0.79 0.69 0.82 0.63 0.86 0.62 0.87 0.56 0.92 0.51 0.96 0.49 0.97 0.44 0.99 0.39 1 0.34 1.06 0.28 1.05 0.25 1.08 0.18 1.12 0.14 1.12 0.09 1.14 0.03 0 6.32 -1.46 -0.03 -1.44 -0.11 -1.4 -0.18 -1.4 -0.24 -1.37 -0.31 -1.34 -0.38 -1.32 -0.44 -1.29 -0.51 -1.25 -0.56 -1.2 -0.61 -1.18 -0.67 -1.17 -0.74 -1.1 -0.78 -1.06 -0.83 -1.03 -0.89 -0.97 -0.92 -0.93 -0.99 -0.88 -1.02 -0.83 -1.05 -0.79 -1.11 -0.73 -1.15 -0.67 -1.18 -0.62 -1.21 -0.57 -1.26 -0.5 -1.29 -0.43 -1.31 -0.38 -1.33 -0.32 -1.39 -0.24 -1.4 -0.18 -1.4 -0.11 -1.44 -0.03 -1.46 0 0zm0 0c0,-1.74 1.42,-3.16 3.16,-3.16 1.74,0 3.16,1.42 3.16,3.16l-6.32 0zm6.32 -3964.86l0 3964.86 -6.32 0 0 -3964.86 0 0 6.32 0zm-6.32 0c0,-1.74 1.42,-3.16 3.16,-3.16 1.74,0 3.16,1.42 3.16,3.16l-6.32 0zm-1.59 -1.32l0 -6.32 0 0 0.37 0.01 0.38 0.02 0.5 0.06 0.37 0.08 0.32 0.07 0.37 0.1 0.4 0.13 0.36 0.14 0.32 0.14 0.39 0.2 0.34 0.2 0.22 0.14 0.32 0.2 0.34 0.26 0.24 0.2 0.32 0.29 0.29 0.3 0.18 0.21 0.25 0.28 0.26 0.36 0.17 0.26 0.21 0.33 0.16 0.3 0.18 0.36 0.15 0.36 0.12 0.33 0.13 0.43 0.07 0.28 0.08 0.36 0.07 0.51 0.02 0.37 0.01 0.36 -6.32 0 -0.01 -0.08 0 -0.07 0.01 0.07 -0.02 -0.06 -0.03 -0.14 0.01 0.01 -0.04 -0.07 -0.01 -0.06 -0.02 -0.02 -0.04 -0.08 -0.03 -0.05 -0.07 -0.1 0 0 -0.05 -0.06 -0.12 -0.13 -0.01 -0.02 -0.02 -0.01 -0.1 -0.08 -0.02 -0.02 -0.06 -0.04 -0.16 -0.1 -0.06 -0.04 -0.01 0 -0.1 -0.04 -0.08 -0.04 -0.04 -0.01 -0.07 -0.02 -0.14 -0.03 -0.11 -0.02 0.04 0 -0.12 0 -0.11 -0.01 0 0zm0 0c-1.74,0 -3.16,-1.42 -3.16,-3.16 0,-1.74 1.42,-3.16 3.16,-3.16l0 6.32zm-27.92 -27.93l6.32 0 0 0 0.03 1.11 0.08 1.09 0.15 1.1 0.18 1.06 0.24 1.05 0.29 1.03 0.34 0.98 0.39 0.99 0.43 0.96 0.48 0.93 0.51 0.9 0.57 0.88 0.61 0.85 0.63 0.82 0.67 0.77 0.73 0.76 0.75 0.72 0.78 0.67 0.82 0.65 0.83 0.6 0.89 0.55 0.92 0.54 0.91 0.47 0.96 0.43 0.98 0.39 1 0.34 1.03 0.29 1.04 0.24 1.06 0.18 1.1 0.15 1.09 0.08 1.11 0.03 0 6.32 -1.43 -0.03 -1.43 -0.12 -1.38 -0.17 -1.38 -0.24 -1.36 -0.32 -1.31 -0.37 -1.32 -0.44 -1.26 -0.51 -1.24 -0.55 -1.21 -0.63 -1.16 -0.66 -1.13 -0.73 -1.11 -0.78 -1.04 -0.83 -1.02 -0.87 -0.97 -0.94 -0.91 -0.96 -0.89 -1.01 -0.83 -1.06 -0.77 -1.09 -0.73 -1.14 -0.67 -1.16 -0.62 -1.21 -0.55 -1.24 -0.51 -1.25 -0.44 -1.32 -0.37 -1.33 -0.32 -1.35 -0.24 -1.38 -0.17 -1.38 -0.12 -1.43 -0.03 -1.43 0 0zm0 0c0,-1.74 1.42,-3.16 3.16,-3.16 1.74,0 3.16,1.42 3.16,3.16l-6.32 0zm27.3 -28.4l1.24 6.2 -0.5 0.06 -1.12 0.07 -1.1 0.12 -1.09 0.18 -1.08 0.23 -1.05 0.27 -1.02 0.32 -1.03 0.38 -0.97 0.4 -0.97 0.47 -0.93 0.5 -0.93 0.55 -0.88 0.58 -0.84 0.62 -0.82 0.65 -0.79 0.71 -0.76 0.73 -0.72 0.76 -0.68 0.8 -0.64 0.82 -0.61 0.87 -0.56 0.87 -0.52 0.92 -0.48 0.94 -0.43 0.96 -0.39 0.99 -0.34 0.99 -0.29 1.03 -0.24 1.05 -0.18 1.06 -0.15 1.1 -0.08 1.09 -0.03 1.11 -6.32 0 0.03 -1.43 0.12 -1.43 0.17 -1.38 0.24 -1.38 0.32 -1.35 0.37 -1.33 0.44 -1.31 0.51 -1.27 0.55 -1.24 0.62 -1.2 0.66 -1.18 0.74 -1.15 0.77 -1.09 0.82 -1.06 0.88 -1.02 0.92 -0.98 0.96 -0.93 1.01 -0.89 1.04 -0.85 1.1 -0.8 1.14 -0.74 1.15 -0.69 1.19 -0.64 1.23 -0.59 1.27 -0.54 1.29 -0.46 1.32 -0.42 1.35 -0.35 1.36 -0.29 1.39 -0.22 1.42 -0.16 1.42 -0.09 -0.5 0.06zm0.5 -0.06c1.74,-0.06 3.22,1.3 3.28,3.04 0.06,1.74 -1.3,3.22 -3.04,3.28l-0.24 -6.32zm1.71 -2.37l6.32 0 0 0 -0.01 0.39 -0.02 0.38 -0.06 0.51 -0.07 0.38 -0.06 0.31 -0.11 0.46 -0.13 0.36 -0.13 0.37 -0.16 0.38 -0.15 0.32 -0.19 0.35 -0.18 0.32 -0.24 0.36 -0.23 0.32 -0.2 0.25 -0.25 0.29 -0.26 0.28 -0.27 0.27 -0.32 0.28 -0.26 0.21 -0.26 0.21 -0.32 0.22 -0.32 0.21 -0.32 0.18 -0.35 0.19 -0.32 0.15 -0.3 0.13 -0.38 0.15 -0.36 0.12 -0.3 0.1 -0.39 0.1 -0.37 0.08 -1.24 -6.2 0.11 -0.02 0.11 -0.04 0.16 -0.04 0.12 -0.04 0.08 -0.03 0.14 -0.07 0.12 -0.05 0.09 -0.05 0.1 -0.06 0.08 -0.05 0.08 -0.06 0.12 -0.09 0.12 -0.09 0.04 -0.04 0.07 -0.07 0.08 -0.08 0.05 -0.07 0.1 -0.13 0.07 -0.08 0.02 -0.04 0.06 -0.1 0.05 -0.09 0.05 -0.12 0.04 -0.06 0.03 -0.11 0.03 -0.1 0.01 -0.04 0.04 -0.19 0.03 -0.12 0 -0.01 0 -0.14 0.01 -0.15 0 0zm0 0c0,-1.74 1.42,-3.16 3.16,-3.16 1.74,0 3.16,1.42 3.16,3.16l-6.32 0zm6.32 -64.29l0 64.29 -6.32 0 0 -64.29 0 0 6.32 0zm-6.32 0c0,-1.74 1.42,-3.16 3.16,-3.16 1.74,0 3.16,1.42 3.16,3.16l-6.32 0zm-7.32 -34.51l5.76 -2.6 0.03 0.06 0.47 1.11 0.45 1.12 0.45 1.12 0.43 1.14 0.4 1.12 0.41 1.13 0.39 1.15 0.37 1.15 0.35 1.13 0.35 1.14 0.34 1.16 0.31 1.16 0.29 1.15 0.29 1.16 0.27 1.16 0.26 1.17 0.24 1.16 0.23 1.16 0.21 1.17 0.2 1.18 0.18 1.18 0.16 1.16 0.16 1.17 0.13 1.19 0.12 1.18 0.1 1.16 0.09 1.18 0.08 1.18 0.05 1.18 0.04 1.18 0.02 1.18 0.01 1.17 -6.32 0 -0.01 -1.09 -0.02 -1.1 -0.04 -1.08 -0.05 -1.1 -0.06 -1.08 -0.09 -1.1 -0.1 -1.1 -0.1 -1.1 -0.13 -1.07 -0.14 -1.09 -0.16 -1.12 -0.16 -1.08 -0.18 -1.08 -0.21 -1.09 -0.21 -1.1 -0.22 -1.08 -0.24 -1.09 -0.25 -1.08 -0.27 -1.08 -0.29 -1.09 -0.29 -1.08 -0.3 -1.06 -0.33 -1.08 -0.33 -1.09 -0.35 -1.05 -0.37 -1.07 -0.37 -1.07 -0.4 -1.06 -0.39 -1.06 -0.41 -1.04 -0.43 -1.06 -0.45 -1.05 0.03 0.06zm-0.03 -0.06c-0.68,-1.6 0.07,-3.47 1.67,-4.15 1.6,-0.68 3.47,0.07 4.15,1.67l-5.82 2.48zm-50.06 -125.85l55.85 123.31 -5.76 2.6 -55.85 -123.31 5.74 -2.65 0.02 0.05zm-5.76 2.6c-0.71,-1.59 -0.01,-3.47 1.58,-4.18 1.59,-0.71 3.47,-0.01 4.18,1.58l-5.76 2.6zm-75.16 -47.96l0 -6.32 0 0 3.24 0.06 3.2 0.18 3.19 0.29 3.17 0.4 3.13 0.52 3.11 0.63 3.07 0.74 3.04 0.84 3.01 0.95 2.95 1.05 2.92 1.16 2.87 1.25 2.82 1.35 2.78 1.45 2.72 1.55 2.67 1.65 2.6 1.72 2.55 1.82 2.48 1.92 2.41 1.99 2.36 2.08 2.28 2.17 2.2 2.24 2.13 2.33 2.05 2.4 1.97 2.49 1.89 2.56 1.8 2.62 1.71 2.71 1.63 2.77 1.52 2.84 1.43 2.9 -5.72 2.7 -1.33 -2.7 -1.42 -2.64 -1.51 -2.59 -1.59 -2.51 -1.68 -2.44 -1.75 -2.38 -1.83 -2.31 -1.91 -2.24 -1.97 -2.15 -2.06 -2.1 -2.12 -2.01 -2.18 -1.94 -2.25 -1.85 -2.3 -1.78 -2.37 -1.68 -2.44 -1.62 -2.47 -1.53 -2.52 -1.43 -2.58 -1.35 -2.62 -1.25 -2.69 -1.17 -2.7 -1.08 -2.75 -0.97 -2.79 -0.89 -2.82 -0.78 -2.85 -0.68 -2.89 -0.59 -2.91 -0.48 -2.93 -0.38 -2.97 -0.27 -2.98 -0.16 -3 -0.06 0 0zm0 0c-1.74,0 -3.16,-1.42 -3.16,-3.16 0,-1.74 1.42,-3.16 3.16,-3.16l0 6.32zm-2673.81 -6.32l2673.81 0 0 6.32 -2673.81 0 0 0 0 -6.32zm0 6.32c-1.74,0 -3.16,-1.42 -3.16,-3.16 0,-1.74 1.42,-3.16 3.16,-3.16l0 6.32zm-75.16 47.96l-5.76 -2.6 0 0 1.38 -2.91 1.48 -2.84 1.58 -2.78 1.68 -2.72 1.76 -2.62 1.85 -2.56 1.95 -2.49 2.03 -2.41 2.1 -2.32 2.19 -2.25 2.26 -2.17 2.34 -2.09 2.41 -1.99 2.47 -1.92 2.56 -1.81 2.59 -1.73 2.67 -1.65 2.73 -1.55 2.79 -1.45 2.83 -1.35 2.89 -1.25 2.93 -1.16 2.98 -1.05 3.03 -0.95 3.07 -0.84 3.09 -0.74 3.14 -0.63 3.18 -0.52 3.2 -0.4 3.23 -0.29 3.25 -0.18 3.28 -0.06 0 6.32 -3.04 0.06 -3.03 0.16 -3.01 0.27 -2.98 0.38 -2.94 0.48 -2.92 0.59 -2.89 0.68 -2.85 0.78 -2.81 0.89 -2.76 0.97 -2.73 1.08 -2.69 1.17 -2.63 1.25 -2.59 1.35 -2.53 1.43 -2.47 1.53 -2.43 1.61 -2.36 1.69 -2.29 1.78 -2.25 1.85 -2.16 1.93 -2.1 2.01 -2.03 2.09 -1.96 2.16 -1.87 2.23 -1.81 2.31 -1.71 2.38 -1.64 2.44 -1.56 2.5 -1.46 2.58 -1.38 2.64 -1.28 2.69 0 0zm0 0c-0.71,1.59 -2.59,2.29 -4.18,1.58 -1.59,-0.71 -2.29,-2.59 -1.58,-4.18l5.76 2.6zm-61.62 120.71l55.86 -123.31 5.76 2.6 -55.86 123.31 -0.02 0.05 -5.74 -2.65zm5.76 2.6c-0.71,1.59 -2.59,2.29 -4.18,1.58 -1.59,-0.71 -2.29,-2.59 -1.58,-4.18l5.76 2.6z"/>
  </g>
 </g>
</svg>
