<?xml version="1.0" encoding="UTF-8"?>
<!DOCTYPE svg PUBLIC "-//W3C//DTD SVG 1.1//EN" "http://www.w3.org/Graphics/SVG/1.1/DTD/svg11.dtd">
<!-- Creator: CorelDRAW 2020 (64-Bit) -->
<svg xmlns="http://www.w3.org/2000/svg" xml:space="preserve" width="40mm" height="60mm" version="1.1" style="shape-rendering:geometricPrecision; text-rendering:geometricPrecision; image-rendering:optimizeQuality; fill-rule:evenodd; clip-rule:evenodd"
viewBox="0 0 4000 6000"
 xmlns:xlink="http://www.w3.org/1999/xlink"
 xmlns:xodm="http://www.corel.com/coreldraw/odm/2003">
 <defs>
  <style type="text/css">
   <![CDATA[
    .str1 {stroke:#332C2B;stroke-width:20;stroke-miterlimit:22.9256}
    .str0 {stroke:#E62129;stroke-width:20;stroke-miterlimit:22.9256}
    .fil0 {fill:none}
   ]]>
  </style>
   <clipPath id="id0">
    <rect x="-34901.37" y="-1354.53" width="5460.24" height="5923.65"/>
   </clipPath>
 </defs>
 <g id="图层_x0020_1">
  <metadata id="CorelCorpID_0Corel-Layer"/>
  <g style="clip-path:url(#id0)">
   <image x="-34901.37" y="-1354.53" width="5460.24" height="5923.65" xlink:href="Evolve 3 -11i（手表）_Images\Evolve 3 -11i（手表）_ImgID1.png"/>
  </g>
  <circle class="fil0 str0" cx="-32268.85" cy="1539.5" r="2370"/>
  <circle class="fil0 str0" cx="-32268.85" cy="1539.5" r="2009.57"/>
  <path class="fil0 str1" d="M-13917.71 5503.5c0,-1109.85 -899.72,-2009.57 -2009.57,-2009.57 -1109.85,0 -2009.57,899.72 -2009.57,2009.57 0,1109.85 899.72,2009.57 2009.57,2009.57 1109.85,0 2009.57,-899.72 2009.57,-2009.57 0,-1109.85 26.12,-1295.22 26.12,-1295.22"/>
  <path class="fil0 str1" d="M-13917.71 988.29c0,-1109.85 -899.72,-2009.57 -2009.57,-2009.57 -1109.85,0 -2009.57,899.72 -2009.57,2009.57 0,1109.85 899.72,2009.57 2009.57,2009.57 1109.85,0 2009.57,-899.72 2009.57,-2009.57 0,-1109.85 26.12,-1295.22 26.12,-1295.22"/>
  <path class="fil0 str1" d="M-9493.87 5503.5c0,-1109.85 -899.72,-2009.57 -2009.57,-2009.57 -1109.85,0 -2009.57,899.72 -2009.57,2009.57 0,1109.85 899.72,2009.57 2009.57,2009.57 1109.85,0 2009.57,-899.72 2009.57,-2009.57 0,-1109.85 26.12,-1295.22 26.12,-1295.22"/>
  <path class="fil0 str1" d="M-5070.03 5503.5c0,-1109.85 -899.72,-2009.57 -2009.57,-2009.57 -1109.85,0 -2009.57,899.72 -2009.57,2009.57 0,1109.85 899.72,2009.57 2009.57,2009.57 1109.85,0 2009.57,-899.72 2009.57,-2009.57 0,-1109.85 26.12,-1295.22 26.12,-1295.22"/>
  <path class="fil0 str1" d="M-9493.87 988.29c0,-1109.85 -899.72,-2009.57 -2009.57,-2009.57 -1109.85,0 -2009.57,899.72 -2009.57,2009.57 0,1109.85 899.72,2009.57 2009.57,2009.57 1109.85,0 2009.57,-899.72 2009.57,-2009.57 0,-1109.85 26.12,-1295.22 26.12,-1295.22"/>
  <path class="fil0 str1" d="M-5070.03 988.29c0,-1109.85 -899.72,-2009.57 -2009.57,-2009.57 -1109.85,0 -2009.57,899.72 -2009.57,2009.57 0,1109.85 899.72,2009.57 2009.57,2009.57 1109.85,0 2009.57,-899.72 2009.57,-2009.57 0,-1109.85 26.12,-1295.22 26.12,-1295.22"/>
  <g id="_2096699785904">
   <path class="fil0 str1" d="M1169.88 2115.67c404.58,0 732.57,-327.98 732.57,-732.57 0,-404.59 -327.99,-732.57 -732.57,-732.57 -404.59,0 -732.57,327.98 -732.57,732.57 0,404.59 327.98,732.57 732.57,732.57 404.58,0 472.16,9.52 472.16,9.52"/>
   <path class="fil0 str1" d="M2815.86 2115.67c404.58,0 732.57,-327.98 732.57,-732.57 0,-404.59 -327.99,-732.57 -732.57,-732.57 -404.59,0 -732.57,327.98 -732.57,732.57 0,404.59 327.98,732.57 732.57,732.57 404.58,0 472.16,9.52 472.16,9.52"/>
   <path class="fil0 str1" d="M1169.88 3728.34c404.58,0 732.57,-327.99 732.57,-732.57 0,-404.59 -327.99,-732.57 -732.57,-732.57 -404.59,0 -732.57,327.98 -732.57,732.57 0,404.58 327.98,732.57 732.57,732.57 404.58,0 472.16,9.52 472.16,9.52"/>
   <path class="fil0 str1" d="M1169.88 5341.01c404.58,0 732.57,-327.99 732.57,-732.57 0,-404.59 -327.99,-732.57 -732.57,-732.57 -404.59,0 -732.57,327.98 -732.57,732.57 0,404.58 327.98,732.57 732.57,732.57 404.58,0 472.16,9.52 472.16,9.52"/>
   <path class="fil0 str1" d="M2815.86 3728.34c404.58,0 732.57,-327.99 732.57,-732.57 0,-404.59 -327.99,-732.57 -732.57,-732.57 -404.59,0 -732.57,327.98 -732.57,732.57 0,404.58 327.98,732.57 732.57,732.57 404.58,0 472.16,9.52 472.16,9.52"/>
   <path class="fil0 str1" d="M2815.86 5341.01c404.58,0 732.57,-327.99 732.57,-732.57 0,-404.59 -327.99,-732.57 -732.57,-732.57 -404.59,0 -732.57,327.98 -732.57,732.57 0,404.58 327.98,732.57 732.57,732.57 404.58,0 472.16,9.52 472.16,9.52"/>
  </g>
 </g>
</svg>
