<?xml version="1.0" encoding="UTF-8"?>
<!DOCTYPE svg PUBLIC "-//W3C//DTD SVG 1.1//EN" "http://www.w3.org/Graphics/SVG/1.1/DTD/svg11.dtd">
<!-- Creator: CorelDRAW X8 -->
<svg xmlns="http://www.w3.org/2000/svg" xml:space="preserve" width="40mm" height="60mm" version="1.1" style="shape-rendering:geometricPrecision; text-rendering:geometricPrecision; image-rendering:optimizeQuality; fill-rule:evenodd; clip-rule:evenodd"
viewBox="0 0 4000 6000"
 xmlns:xlink="http://www.w3.org/1999/xlink">
 <defs>
  <style type="text/css">
   <![CDATA[
    .str0 {stroke:black;stroke-width:20}
    .fil0 {fill:none}
   ]]>
  </style>
 </defs>
 <g id="图层_x0020_1">
  <metadata id="CorelCorpID_0Corel-Layer"/>
  <path class="fil0 str0" d="M1310 5350c0,0 -11,-65 -162,-77 -151,-12 -269,-100 -269,-260l0 -4056c0,-140 87,-257 216,-276 129,-19 226,-29 271,-31 44,-2 61,43 61,54 0,11 1,87 1,87 0,0 2,50 50,50 47,0 392,1 392,1 0,0 36,-3 36,26 0,28 0,36 0,36 0,0 -3,20 32,20 36,0 127,0 127,0 0,0 25,3 25,-29 0,-32 0,-33 0,-33 0,0 0,-20 31,-20 32,0 384,0 384,0 0,0 64,1 64,-63 0,-65 0,-74 0,-74 0,0 3,-49 56,-49 103,-4 103,41 103,41 0,0 0,29 0,55 0,25 4,70 58,70 54,0 55,-38 55,-38 0,0 0,-58 0,-66 0,-8 46,-59 133,-9 88,49 147,137 147,248l0 4056c0,156 -112,243 -258,259 -91,14 -181,25 -269,34l0 -82c0,-41 -33,-75 -74,-75l-1035 0c-41,0 -75,34 -75,75l0 78c-127,-13 -218,-26 -262,-29"/>
 </g>
</svg>
