<?xml version="1.0" encoding="UTF-8"?>
<!DOCTYPE svg PUBLIC "-//W3C//DTD SVG 1.1//EN" "http://www.w3.org/Graphics/SVG/1.1/DTD/svg11.dtd">
<!-- Creator: CorelDRAW 2020 (64-Bit) -->
<svg xmlns="http://www.w3.org/2000/svg" xml:space="preserve" width="40mm" height="60mm" version="1.1" style="shape-rendering:geometricPrecision; text-rendering:geometricPrecision; image-rendering:optimizeQuality; fill-rule:evenodd; clip-rule:evenodd"
viewBox="0 0 4000 6000"
 xmlns:xlink="http://www.w3.org/1999/xlink"
 xmlns:xodm="http://www.corel.com/coreldraw/odm/2003">
 <defs>
  <style type="text/css">
   <![CDATA[
    .str0 {stroke:#332C2B;stroke-width:7.62;stroke-miterlimit:22.9256}
    .fil0 {fill:none}
   ]]>
  </style>
 </defs>
 <g id="图层_x0020_1">
  <metadata id="CorelCorpID_0Corel-Layer"/>
  <path class="fil0 str0" d="M1565.43 1009.97c17.8,-114.44 -78.42,-194.63 -126.16,-198.32 -169.83,0 -307.51,137.67 -307.51,307.5 0,169.83 137.68,307.51 307.51,307.51 169.83,0 307.5,-137.68 307.5,-307.51 0,-169.83 -137.67,-307.5 -307.5,-307.5m126.16 913.96c17.8,-114.44 -78.42,-194.64 -126.16,-198.33 -169.83,0 -307.51,137.68 -307.51,307.51 0,169.83 137.68,307.51 307.51,307.51 169.83,0 307.5,-137.68 307.5,-307.51 0,-169.83 -137.67,-307.51 -307.5,-307.51m-281.58 -737.81l609.18 0c46.94,0 85.34,38.41 85.34,85.34l0 1235.3c0,46.93 -38.4,85.34 -85.34,85.34l-609.18 0c-46.94,0 -85.34,-38.41 -85.34,-85.34l0 -1235.3c0,-46.93 38.4,-85.34 85.34,-85.34zm847.77 308.75c-20.89,5.6 -37.48,17.02 -37.48,68.39l0 43.95c0,23.1 18.9,42 42,42l0 0c23.09,0 42,-18.9 42,-42l0 -209.75c0,-23.1 -18.9,-41.99 -42,-41.99l0 0c-23.1,0 -42,18.91 -42,41.99l0 165.8m-150.86 -410.35l227.14 0c44.48,0 80.87,36.39 80.87,80.87l0 1290.85c0,44.48 -36.39,80.88 -80.87,80.88l-227.14 0c44.48,0 80.87,-36.4 80.87,-80.88l0 -1290.85c0,-44.48 -36.39,-80.87 -80.87,-80.87zm-708.56 -27.87l953.66 0c52.88,0 96.15,43.27 96.15,96.15l0 1323.8c0,52.88 -43.27,96.15 -96.15,96.15l-953.66 0c-52.88,0 -96.15,-43.27 -96.15,-96.15l0 -1323.8c0,-52.88 43.27,-96.15 96.15,-96.15zm-118.78 4607.37l1862.57 0c109.21,0 198.57,-89.36 198.57,-198.57l0 -4282.95c0,-109.21 -89.35,-198.57 -198.57,-198.57l-1717.9 0c-109.22,0 -198.57,89.36 -198.57,198.57l0 4282.95c0,109.21 89.35,198.57 198.57,198.57l49.31 0c65.08,0 98.49,9.42 119.56,19.91"/>
 </g>
</svg>
