<?xml version="1.0" encoding="UTF-8"?>
<!DOCTYPE svg PUBLIC "-//W3C//DTD SVG 1.1//EN" "http://www.w3.org/Graphics/SVG/1.1/DTD/svg11.dtd">
<!-- Creator: CorelDRAW X8 -->
<svg xmlns="http://www.w3.org/2000/svg" xml:space="preserve" width="40mm" height="60mm" version="1.1" style="shape-rendering:geometricPrecision; text-rendering:geometricPrecision; image-rendering:optimizeQuality; fill-rule:evenodd; clip-rule:evenodd"
viewBox="0 0 4000 6000"
 xmlns:xlink="http://www.w3.org/1999/xlink">
 <defs>
  <style type="text/css">
   <![CDATA[
    .str0 {stroke:#332C2B;stroke-width:19.4}
    .fil0 {fill:none;fill-rule:nonzero}
   ]]>
  </style>
 </defs>
 <g id="图层_x0020_1">
  <metadata id="CorelCorpID_0Corel-Layer"/>
  <g id="_1898021090592">
   <line class="fil0 str0" x1="3072" y1="3213" x2="3070" y2= "3246" />
   <path class="fil0 str0" d="M3070 3246c-13,-3 -20,-7 -25,-13 -29,32 -35,56 -35,144 0,41 1,102 5,206 13,388 18,584 18,707 0,258 -35,381 -140,486 -85,85 -175,119 -313,120"/>
   <line class="fil0 str0" x1="2580" y1="4896" x2="1521" y2= "4868" />
   <path class="fil0 str0" d="M1521 4868c-101,0 -162,3 -241,15"/>
   <line class="fil0 str0" x1="1280" y1="4883" x2="1254" y2= "4885" />
   <path class="fil0 str0" d="M1254 4885c-74,0 -189,-78 -252,-170 -7,-9 -13,-16 -24,-28 -46,-49 -46,-49 -49,-1162"/>
   <polyline class="fil0 str0" points="929,3525 928,2965 940,2965 "/>
   <path class="fil0 str0" d="M940 2965c3,3 4,3 10,5"/>
   <line class="fil0 str0" x1="950" y1="2970" x2="962" y2= "2953" />
   <path class="fil0 str0" d="M962 2953c8,8 10,15 13,33"/>
   <line class="fil0 str0" x1="975" y1="2986" x2="997" y2= "2988" />
   <path class="fil0 str0" d="M997 2988c0,7 0,8 -2,15"/>
   <polyline class="fil0 str0" points="995,3003 990,3008 1065,3079 "/>
   <path class="fil0 str0" d="M1065 3079c98,93 124,113 169,129 44,16 83,19 251,21"/>
   <line class="fil0 str0" x1="1485" y1="3229" x2="1613" y2= "3230" />
   <path class="fil0 str0" d="M1613 3230c221,3 442,5 664,6 301,1 377,-3 432,-23 57,-21 107,-62 288,-238"/>
   <line class="fil0 str0" x1="2997" y1="2975" x2="3003" y2= "2981" />
   <path class="fil0 str0" d="M3003 2981c0,6 0,8 2,14"/>
   <line class="fil0 str0" x1="3005" y1="2995" x2="3027" y2= "2993" />
   <path class="fil0 str0" d="M3027 2993c0,12 -3,19 -12,32"/>
   <polyline class="fil0 str0" points="3015,3025 3027,3043 3005,3048 3005,3408 "/>
   <polyline class="fil0 str0" points="2912,1793 2912,1826 2935,1820 2948,1803 2948,1780 2935,1763 2912,1758 2913,1613 "/>
   <path class="fil0 str0" d="M2913 1613c0,-231 -36,-324 -165,-420 -112,-83 -177,-89 -973,-89 -396,0 -452,7 -555,68 -134,78 -195,192 -199,374"/>
   <line class="fil0 str0" x1="1021" y1="1546" x2="1019" y2= "2290" />
   <path class="fil0 str0" d="M1019 2290c-1,292 3,396 20,474 17,78 43,119 121,187 96,84 155,99 381,97"/>
   <line class="fil0 str0" x1="1541" y1="3048" x2="2602" y2= "3040" />
   <path class="fil0 str0" d="M2602 3040c139,-26 270,-156 302,-301 8,-36 8,-42 8,-200"/>
   <line class="fil0 str0" x1="2912" y1="2539" x2="2913" y2= "1769" />
   <path class="fil0 str0" d="M2913 1769c0,-111 5,-121 112,-201"/>
   <line class="fil0 str0" x1="2535" y1="4341" x2="2562" y2= "4318" />
   <path class="fil0 str0" d="M2562 4318c7,14 7,17 8,32 -15,17 -21,21 -38,23 -62,315 -249,473 -562,473 -319,0 -575,-256 -575,-574 0,-317 258,-575 575,-575 315,0 572,257 572,572 0,37 0,38 -15,141"/>
   <path class="fil0 str0" d="M2785 2565c-11,185 -135,310 -307,310 -172,0 -310,-137 -310,-309 0,-172 137,-309 309,-309 171,0 307,135 307,306 0,21 -1,31 -6,98"/>
   <path class="fil0 str0" d="M1785 2565c-15,188 -136,310 -311,310 -169,0 -307,-139 -307,-309 0,-171 138,-309 308,-309 172,0 308,136 308,305 0,23 -1,42 -8,99"/>
   <path class="fil0 str0" d="M1738 1563c-12,162 -117,268 -266,268 -146,0 -265,-119 -265,-266 0,-149 118,-266 266,-266 147,0 263,116 263,263 0,19 -1,28 -6,89"/>
   <path class="fil0 str0" d="M2743 1563c-11,162 -117,268 -268,268 -147,0 -265,-119 -265,-267 0,-148 118,-265 267,-265 148,0 264,116 264,263 0,19 -1,28 -6,89"/>
  </g>
 </g>
</svg>
