<?xml version="1.0" encoding="UTF-8"?>
<!DOCTYPE svg PUBLIC "-//W3C//DTD SVG 1.1//EN" "http://www.w3.org/Graphics/SVG/1.1/DTD/svg11.dtd">
<!-- Creator: CorelDRAW X8 -->
<svg xmlns="http://www.w3.org/2000/svg" xml:space="preserve" width="40mm" height="60mm" version="1.1" style="shape-rendering:geometricPrecision; text-rendering:geometricPrecision; image-rendering:optimizeQuality; fill-rule:evenodd; clip-rule:evenodd"
viewBox="0 0 4000 6000"
 xmlns:xlink="http://www.w3.org/1999/xlink">
 <defs>
  <style type="text/css">
   <![CDATA[
    .str0 {stroke:#332C2B;stroke-width:20}
    .fil0 {fill:none}
   ]]>
  </style>
 </defs>
 <g id="图层_x0020_1">
  <metadata id="CorelCorpID_0Corel-Layer"/>
  <path class="fil0 str0" d="M3122 5237l-2093 0c-83,0 -151,-68 -151,-151l0 -2070c0,-30 39,-28 39,-28l647 0c42,0 76,-33 76,-75l0 -1793c0,-41 -34,-75 -76,-75l-647 0c-43,0 -39,-35 -39,-35l0 -210c0,-82 68,-150 151,-150l1906 0c83,0 151,68 151,150l0 4286c0,83 -68,151 -151,151 -82,0 -222,43 -222,113"/>
  <path class="fil0 str0" d="M-4486 -1179l0 6966c0,275 -225,500 -500,500l-6890 0c-101,2 -91,-130 -91,-130l0 -2153c0,-138 -113,-250 -250,-250l-5968 0c-137,0 -250,112 -250,250l0 2153c0,145 -117,130 -117,130l-697 0c-275,0 -500,-225 -500,-500l0 -6346c0,-275 225,-500 500,-500l14263 0c275,0 500,225 500,500 0,275 144,740 377,740"/>
 </g>
</svg>
