<?xml version="1.0" encoding="UTF-8"?>
<!DOCTYPE svg PUBLIC "-//W3C//DTD SVG 1.1//EN" "http://www.w3.org/Graphics/SVG/1.1/DTD/svg11.dtd">
<!-- Creator: CorelDRAW X8 -->
<svg xmlns="http://www.w3.org/2000/svg" xml:space="preserve" width="40mm" height="60mm" version="1.1" style="shape-rendering:geometricPrecision; text-rendering:geometricPrecision; image-rendering:optimizeQuality; fill-rule:evenodd; clip-rule:evenodd"
viewBox="0 0 4000 6000"
 xmlns:xlink="http://www.w3.org/1999/xlink">
 <defs>
  <style type="text/css">
   <![CDATA[
    .fil0 {fill:black;fill-rule:nonzero}
   ]]>
  </style>
 </defs>
 <g id="图层_x0020_1">
  <metadata id="CorelCorpID_0Corel-Layer"/>
  <g>
   <path class="fil0" d="M1156 1145l5 3 0 0 -7 13 -6 12 -6 12 -6 12 -6 11 -6 11 -6 11 -6 11 -6 10 -6 9 -6 10 -6 9 -6 8 -6 9 -6 8 -5 7 -6 8 -6 7 -6 6 -5 7 -6 6 -5 5 -6 5 -6 5 -5 5 -6 4 -5 4 -6 3 -5 4 -5 2 -6 3 -5 2 -2 -5 5 -2 5 -2 5 -3 6 -3 5 -3 5 -4 6 -4 5 -5 6 -4 5 -6 6 -5 5 -6 6 -6 5 -7 6 -6 6 -8 5 -7 6 -8 6 -8 6 -9 5 -9 6 -9 6 -10 6 -10 6 -10 6 -11 6 -11 6 -11 6 -12 7 -12 6 -13 6 -12 0 -1zm0 1l0 -1 1 -1 -1 2zm309 -333l3 4 0 0 -8 6 -10 7 -9 7 -9 7 -10 7 -10 8 -10 8 -11 8 -10 8 -10 9 -11 9 -10 9 -11 10 -11 10 -10 10 -11 10 -10 11 -11 10 -10 11 -10 12 -10 11 -10 12 -10 12 -9 12 -10 13 -9 13 -9 13 -8 13 -8 13 -8 14 -7 14 -7 14 -5 -3 7 -14 8 -14 7 -13 9 -14 8 -13 9 -13 9 -13 9 -13 10 -12 10 -12 10 -12 10 -12 10 -11 11 -11 10 -11 11 -11 10 -10 11 -10 10 -10 11 -10 11 -9 10 -9 11 -9 10 -8 11 -8 10 -8 10 -8 9 -7 10 -8 9 -6 10 -7 8 -6 0 0zm888 -89l-1 5 0 0 -30 -11 -30 -11 -30 -9 -29 -9 -30 -8 -29 -6 -29 -6 -29 -5 -29 -4 -29 -3 -28 -3 -29 -1 -28 0 -28 0 -28 1 -28 3 -27 3 -28 4 -27 5 -27 6 -27 7 -27 8 -26 8 -27 10 -26 10 -26 12 -26 12 -26 13 -25 14 -26 15 -25 16 -25 17 -3 -4 25 -17 26 -16 25 -15 26 -14 26 -14 26 -12 26 -11 26 -11 27 -10 27 -8 27 -8 27 -7 27 -6 27 -5 28 -4 28 -3 28 -3 28 -1 28 -1 28 1 29 1 29 2 29 4 29 4 29 5 29 6 29 6 30 8 30 9 29 9 30 11 30 11 0 0zm600 838l-5 1 0 0 -8 -36 -8 -36 -9 -35 -9 -35 -9 -34 -10 -33 -11 -33 -11 -33 -12 -31 -13 -31 -13 -31 -14 -29 -14 -29 -16 -29 -16 -27 -17 -27 -18 -27 -19 -25 -19 -25 -21 -24 -21 -23 -23 -22 -23 -22 -25 -21 -26 -20 -26 -19 -28 -18 -29 -18 -30 -16 -32 -16 -32 -15 -34 -14 1 -5 35 14 32 15 32 16 30 17 30 17 28 19 26 19 26 20 25 21 24 22 22 23 22 23 21 24 19 25 19 26 18 26 17 27 17 28 15 28 15 29 14 30 13 31 13 31 12 32 11 32 11 33 10 34 9 34 9 35 9 35 8 36 8 36 0 0zm74 1385l-5 0 0 0 0 -33 0 -35 0 -36 0 -37 0 -39 0 -40 0 -40 0 -42 -1 -43 0 -43 0 -44 -1 -45 0 -46 -1 -45 -1 -47 -2 -46 -1 -47 -2 -47 -2 -47 -2 -47 -3 -47 -3 -47 -4 -46 -4 -47 -4 -45 -5 -46 -5 -44 -5 -45 -7 -43 -6 -42 -8 -42 -7 -41 5 -1 7 41 8 42 6 42 7 44 5 44 6 45 4 45 5 46 3 46 4 47 3 47 3 47 2 47 2 47 2 47 2 47 1 46 1 46 1 46 0 46 1 45 0 44 1 43 0 43 0 42 0 40 0 40 0 39 0 37 0 36 0 35 0 33 0 0zm-47 1271l-6 0 0 0 4 -33 3 -34 3 -36 3 -36 3 -38 2 -39 3 -40 2 -41 3 -42 2 -42 2 -43 2 -43 2 -44 2 -44 1 -44 2 -45 1 -44 1 -44 2 -43 1 -44 1 -42 1 -43 0 -41 1 -41 0 -40 1 -39 0 -37 0 -37 1 -35 0 -34 -1 -32 0 -31 5 0 1 31 0 32 0 34 0 35 -1 37 0 37 0 39 -1 40 -1 41 0 41 -1 43 -1 43 -1 43 -1 44 -2 44 -1 44 -2 44 -1 44 -2 44 -2 44 -2 43 -2 43 -2 42 -3 42 -2 41 -3 40 -2 39 -3 38 -3 37 -3 35 -3 34 -3 33 0 0zm-281 817l-4 -3 0 0 19 -23 18 -23 17 -23 16 -22 15 -22 14 -22 13 -23 13 -22 12 -22 11 -22 11 -23 10 -22 9 -23 9 -23 8 -23 7 -24 7 -24 7 -24 6 -25 6 -25 6 -26 5 -26 5 -27 4 -28 5 -28 4 -29 4 -30 4 -30 4 -31 3 -32 4 -33 3 -34 6 0 -4 34 -4 33 -3 32 -4 32 -4 30 -4 30 -4 29 -5 28 -4 28 -5 27 -5 26 -6 26 -6 25 -6 25 -7 25 -7 24 -7 23 -9 24 -8 23 -10 23 -10 22 -10 23 -11 22 -12 23 -13 22 -14 22 -14 23 -15 22 -16 22 -17 23 -18 23 -19 23 0 0zm-191 168l-3 -4 0 0 5 -4 6 -3 5 -4 6 -5 6 -4 6 -5 6 -5 6 -5 7 -5 6 -5 7 -5 7 -6 6 -6 7 -5 7 -6 7 -6 6 -6 7 -6 7 -6 6 -6 7 -5 6 -6 6 -6 6 -6 6 -5 5 -6 6 -5 5 -6 4 -5 5 -5 4 -5 4 -4 4 3 -4 5 -4 5 -5 5 -5 5 -5 5 -5 6 -6 5 -6 6 -6 6 -6 5 -6 6 -6 6 -7 6 -6 6 -7 6 -7 6 -7 6 -6 6 -7 5 -7 6 -7 6 -6 5 -7 5 -6 5 -7 5 -6 5 -6 5 -6 4 -6 5 -5 4 -6 3 -5 4 0 0zm-786 99l1 -5 0 0 25 7 26 7 25 6 25 6 24 5 25 4 25 4 24 4 25 2 24 3 25 1 24 1 24 0 25 0 24 -1 24 -2 24 -3 24 -3 24 -4 25 -5 24 -6 24 -7 24 -7 24 -9 24 -9 25 -10 24 -11 24 -13 25 -13 24 -14 25 -15 24 -16 3 4 -24 16 -25 16 -25 14 -24 13 -25 12 -24 11 -25 11 -24 9 -24 9 -25 7 -24 7 -24 6 -25 5 -24 4 -24 3 -25 3 -24 2 -24 1 -25 1 -24 -1 -24 -1 -25 -1 -25 -2 -24 -3 -25 -4 -25 -4 -25 -4 -24 -5 -25 -6 -26 -6 -25 -7 -25 -7 0 0zm-457 -278l4 -3 0 0 8 10 9 9 9 10 10 10 10 10 11 10 11 10 12 10 12 10 12 9 13 10 14 10 13 10 14 9 15 10 14 9 15 9 16 9 15 9 16 9 16 8 16 9 17 8 17 8 17 7 17 7 17 7 17 7 18 6 18 6 17 6 18 5 -1 5 -18 -5 -18 -6 -18 -6 -17 -6 -18 -7 -17 -7 -17 -7 -17 -8 -17 -8 -17 -8 -16 -8 -16 -9 -16 -8 -16 -9 -15 -9 -15 -10 -15 -9 -15 -10 -14 -9 -13 -10 -14 -10 -13 -10 -12 -9 -12 -10 -12 -10 -11 -10 -11 -10 -10 -10 -10 -10 -10 -10 -8 -10 -9 -10 0 0zm-133 -468l5 0 0 0 0 18 0 17 0 16 0 17 0 16 0 15 0 15 1 15 1 15 1 14 1 15 1 14 2 14 2 13 3 14 3 14 3 13 4 13 4 14 4 13 5 14 6 13 6 14 7 13 7 14 8 14 9 14 9 14 11 15 10 15 12 15 12 15 -4 3 -12 -15 -12 -15 -11 -15 -10 -15 -9 -14 -9 -14 -8 -14 -7 -14 -7 -14 -7 -14 -5 -13 -6 -14 -4 -14 -4 -13 -4 -14 -3 -13 -3 -14 -3 -14 -2 -14 -2 -14 -1 -14 -2 -14 -1 -15 0 -14 -1 -16 0 -15 0 -15 0 -16 0 -17 0 -16 0 -17 0 -18 0 0zm29 -347l5 0 0 0 -1 9 -1 9 -1 9 -1 10 -1 10 -1 10 -1 11 -1 11 -2 11 -1 12 -1 11 -1 12 -1 12 -1 12 -2 13 -1 12 -1 12 -1 12 -1 12 -1 12 -1 12 -1 12 -1 11 0 12 -1 11 -1 10 0 11 -1 10 0 10 0 9 -1 9 0 8 -5 0 0 -8 0 -9 1 -9 0 -10 1 -10 0 -11 1 -11 1 -11 0 -11 1 -12 1 -11 1 -12 1 -12 1 -12 1 -13 1 -12 1 -12 2 -12 1 -12 1 -12 1 -12 1 -12 1 -11 2 -12 1 -11 1 -10 1 -11 1 -10 1 -10 1 -9 1 -9 1 -8 0 0zm72 -591l6 1 0 0 -2 14 -2 15 -1 16 -2 16 -2 17 -2 18 -2 18 -3 19 -2 19 -2 20 -3 20 -2 20 -3 20 -2 20 -3 21 -3 21 -2 20 -3 21 -2 21 -3 20 -3 20 -2 20 -3 20 -2 19 -2 19 -3 18 -2 18 -2 18 -2 16 -2 16 -2 16 -2 14 -5 0 2 -15 2 -15 2 -16 2 -17 2 -17 2 -18 3 -19 2 -19 2 -19 3 -20 2 -19 3 -21 2 -20 3 -21 3 -20 2 -21 3 -21 3 -20 2 -21 3 -20 2 -20 3 -20 2 -19 2 -20 2 -18 3 -19 2 -17 2 -17 2 -17 1 -16 2 -15 1 -14 0 0zm33 -689l5 0 0 0 0 17 0 17 0 18 0 18 0 19 -1 19 0 20 0 20 -1 21 -1 21 0 22 -1 22 -1 22 0 22 -1 23 -1 23 -1 22 -1 24 -1 23 -2 23 -1 23 -1 24 -2 23 -1 23 -2 23 -2 23 -1 23 -2 23 -2 23 -2 22 -2 22 -2 22 -6 -1 3 -22 2 -22 2 -22 2 -22 1 -23 2 -23 2 -23 2 -23 1 -23 2 -24 1 -23 1 -23 1 -23 2 -24 1 -23 1 -23 1 -22 1 -23 0 -22 1 -23 1 -21 0 -22 1 -21 0 -21 1 -20 0 -20 0 -19 1 -19 0 -18 0 -18 0 -17 0 -17 0 0zm-41 -718l5 0 0 0 2 17 2 18 2 19 2 20 2 21 2 22 1 22 2 23 2 23 2 24 1 25 2 24 2 25 1 25 2 25 1 26 2 25 1 25 1 25 1 25 2 25 1 24 1 24 1 23 0 23 1 22 1 22 0 21 1 20 0 19 0 19 0 17 -5 0 0 -17 0 -18 -1 -20 0 -20 0 -21 -1 -21 -1 -23 -1 -23 0 -23 -1 -24 -2 -24 -1 -25 -1 -25 -1 -25 -1 -25 -2 -25 -1 -25 -2 -26 -1 -25 -2 -25 -2 -24 -1 -24 -2 -24 -2 -24 -2 -22 -2 -23 -1 -21 -2 -21 -2 -20 -2 -19 -2 -19 -2 -17 0 0zm-107 -628l5 -1 0 0 4 16 4 18 4 18 4 18 4 19 4 20 4 20 4 20 4 21 4 21 4 21 3 21 4 22 4 22 4 21 3 22 4 22 4 21 3 22 3 21 4 21 3 21 3 20 3 20 3 20 2 19 3 18 2 18 2 18 3 16 2 16 1 16 -5 0 -2 -15 -1 -16 -3 -17 -2 -17 -2 -18 -3 -19 -2 -19 -3 -19 -3 -20 -3 -21 -3 -20 -4 -21 -3 -22 -3 -21 -4 -21 -4 -22 -3 -22 -4 -22 -4 -21 -4 -22 -3 -21 -4 -21 -4 -21 -4 -21 -4 -20 -4 -20 -4 -20 -4 -19 -4 -18 -4 -18 -4 -17 -4 -17 0 0zm38 -438l4 3 1 0 -7 13 -6 14 -5 13 -6 13 -5 14 -4 13 -4 13 -4 13 -4 14 -3 13 -2 13 -3 13 -2 14 -2 13 -1 13 -1 13 -1 14 -1 13 0 13 0 14 0 13 1 14 1 14 1 13 2 14 2 14 2 14 2 14 3 14 3 15 3 14 3 15 -5 1 -3 -15 -3 -14 -3 -15 -3 -14 -2 -14 -2 -14 -2 -14 -2 -14 -1 -14 -1 -14 -1 -13 0 -14 0 -14 0 -13 1 -14 0 -13 2 -13 1 -14 2 -13 2 -14 3 -13 2 -13 3 -14 4 -13 4 -13 4 -14 5 -13 4 -13 6 -14 5 -13 6 -14 7 -14 0 0zm0 0l0 0 0 1 0 -1zm60 -190l4 -2 2 3 1 3 1 4 0 3 1 3 0 4 1 3 0 4 0 4 -1 3 0 5 -1 4 0 4 -2 5 -1 5 -1 5 -2 6 -2 5 -2 6 -3 7 -2 7 -3 7 -3 7 -4 8 -4 8 -4 9 -4 9 -5 10 -5 10 -5 11 -6 11 -6 12 -4 -3 6 -11 5 -11 6 -11 5 -10 4 -10 5 -9 4 -9 3 -8 4 -8 3 -7 3 -7 3 -7 2 -6 2 -6 2 -6 2 -5 1 -5 1 -5 2 -5 0 -4 1 -4 0 -4 1 -4 0 -3 0 -4 -1 -3 0 -3 -1 -3 0 -3 -1 -3 -1 -3 -1 -3z"/>
  </g>
 </g>
</svg>
