<?xml version="1.0" encoding="UTF-8"?>
<!DOCTYPE svg PUBLIC "-//W3C//DTD SVG 1.1//EN" "http://www.w3.org/Graphics/SVG/1.1/DTD/svg11.dtd">
<!-- Creator: CorelDRAW X8 -->
<svg xmlns="http://www.w3.org/2000/svg" xml:space="preserve" width="40mm" height="60mm" version="1.1" style="shape-rendering:geometricPrecision; text-rendering:geometricPrecision; image-rendering:optimizeQuality; fill-rule:evenodd; clip-rule:evenodd"
viewBox="0 0 4000 6000"
 xmlns:xlink="http://www.w3.org/1999/xlink">
 <defs>
  <style type="text/css">
   <![CDATA[
    .str0 {stroke:#332C2B;stroke-width:10;stroke-linecap:round;stroke-linejoin:round}
    .fil0 {fill:none;fill-rule:nonzero}
   ]]>
  </style>
 </defs>
 <g id="图层_x0020_1">
  <metadata id="CorelCorpID_0Corel-Layer"/>
  <g id="_2575118942224">
   <g>
    <line class="fil0 str0" x1="3209" y1="659" x2="3209" y2= "687" />
    <line class="fil0 str0" x1="849" y1="659" x2="849" y2= "668" />
    <path class="fil0 str0" d="M849 668c-5,-1 -7,-3 -9,-9"/>
    <line class="fil0 str0" x1="840" y1="659" x2="782" y2= "659" />
    <path class="fil0 str0" d="M782 659c0,5 4,9 9,9"/>
    <line class="fil0 str0" x1="791" y1="668" x2="791" y2= "850" />
    <path class="fil0 str0" d="M791 850c6,-1 10,-4 10,-9"/>
    <line class="fil0 str0" x1="801" y1="841" x2="917" y2= "841" />
    <path class="fil0 str0" d="M917 841c0,-6 -3,-9 -8,-10"/>
    <polyline class="fil0 str0" points="909,831 918,790 924,795 925,801 923,806 918,808 926,850 "/>
    <path class="fil0 str0" d="M926 850c4,-2 7,-5 7,-9"/>
    <line class="fil0 str0" x1="933" y1="841" x2="1041" y2= "841" />
    <path class="fil0 str0" d="M1041 841c0,-6 -3,-9 -8,-10"/>
    <polyline class="fil0 str0" points="1033,831 1042,790 1048,795 1049,801 1047,806 1042,808 1050,850 "/>
    <path class="fil0 str0" d="M1050 850c4,-2 7,-5 7,-9"/>
    <line class="fil0 str0" x1="1057" y1="841" x2="1165" y2= "841" />
    <path class="fil0 str0" d="M1165 841c-1,-6 -3,-9 -8,-10"/>
    <polyline class="fil0 str0" points="1157,831 1165,790 1172,795 1173,801 1171,806 1165,808 1174,850 "/>
    <path class="fil0 str0" d="M1174 850c4,-2 7,-5 7,-9"/>
    <polyline class="fil0 str0" points="1181,841 1278,841 1277,843 1273,850 "/>
    <path class="fil0 str0" d="M1273 850c-5,0 -7,-1 -11,-3"/>
    <line class="fil0 str0" x1="1262" y1="847" x2="1260" y2= "842" />
    <path class="fil0 str0" d="M1260 842c-114,14 -164,37 -205,92 -31,41 -43,89 -44,175 -5,-1 -8,-3 -9,-9"/>
    <line class="fil0 str0" x1="1002" y1="1100" x2="820" y2= "1100" />
    <path class="fil0 str0" d="M820 1100c1,5 5,9 9,9"/>
    <line class="fil0 str0" x1="829" y1="1109" x2="829" y2= "4909" />
    <path class="fil0 str0" d="M829 4909c7,0 9,-2 10,-9"/>
    <line class="fil0 str0" x1="839" y1="4900" x2="1021" y2= "4900" />
    <path class="fil0 str0" d="M1021 4900c-1,6 -3,8 -10,9 0,103 39,177 112,214 28,14 62,22 155,38"/>
    <polyline class="fil0 str0" points="1278,5161 1277,5165 1272,5168 1266,5168 1261,5165 1260,5159 1163,5159 1163,5161 "/>
    <path class="fil0 str0" d="M1163 5161c0,3 0,3 5,6"/>
    <polyline class="fil0 str0" points="1168,5167 1170,5168 1162,5210 1157,5206 1154,5196 1162,5191 1154,5150 "/>
    <path class="fil0 str0" d="M1154 5150c-5,2 -7,4 -8,9"/>
    <polyline class="fil0 str0" points="1146,5159 1039,5159 1039,5161 "/>
    <path class="fil0 str0" d="M1039 5161c0,3 0,3 5,6"/>
    <polyline class="fil0 str0" points="1044,5167 1046,5168 1038,5210 1033,5206 1031,5196 1038,5191 1030,5150 "/>
    <path class="fil0 str0" d="M1030 5150c-5,2 -7,4 -8,9"/>
    <polyline class="fil0 str0" points="1022,5159 915,5159 915,5161 "/>
    <path class="fil0 str0" d="M915 5161c0,3 0,3 5,6"/>
    <polyline class="fil0 str0" points="920,5167 922,5168 914,5210 909,5206 907,5196 914,5191 906,5150 905,5150 "/>
    <path class="fil0 str0" d="M905 5150c-4,2 -5,4 -7,9"/>
    <line class="fil0 str0" x1="898" y1="5159" x2="782" y2= "5159" />
    <path class="fil0 str0" d="M782 5159c0,6 3,8 9,9"/>
    <line class="fil0 str0" x1="791" y1="5168" x2="791" y2= "5350" />
    <path class="fil0 str0" d="M791 5350c6,0 9,-3 10,-10"/>
    <line class="fil0 str0" x1="801" y1="5340" x2="917" y2= "5341" />
    <path class="fil0 str0" d="M917 5341c0,-5 -3,-9 -8,-10"/>
    <polyline class="fil0 str0" points="909,5331 918,5290 924,5296 925,5301 923,5306 918,5309 926,5350 "/>
    <path class="fil0 str0" d="M926 5350c4,-1 7,-4 7,-9"/>
    <line class="fil0 str0" x1="933" y1="5341" x2="1041" y2= "5341" />
    <path class="fil0 str0" d="M1041 5341c0,-5 -3,-9 -8,-10"/>
    <polyline class="fil0 str0" points="1033,5331 1042,5290 1048,5296 1049,5301 1047,5306 1042,5309 1050,5350 "/>
    <path class="fil0 str0" d="M1050 5350c4,-1 7,-4 7,-9"/>
    <line class="fil0 str0" x1="1057" y1="5341" x2="1165" y2= "5341" />
    <path class="fil0 str0" d="M1165 5341c-1,-5 -3,-9 -8,-10"/>
    <polyline class="fil0 str0" points="1157,5331 1165,5290 1172,5296 1173,5301 1171,5306 1165,5309 1174,5350 "/>
    <path class="fil0 str0" d="M1174 5350c4,-1 7,-4 7,-9"/>
    <line class="fil0 str0" x1="1181" y1="5341" x2="2838" y2= "5341" />
    <path class="fil0 str0" d="M2838 5341c0,-5 -3,-8 -8,-10"/>
    <polyline class="fil0 str0" points="2830,5331 2839,5290 2846,5296 2846,5301 2844,5306 2839,5309 2847,5350 "/>
    <path class="fil0 str0" d="M2847 5350c4,-1 7,-4 7,-9"/>
    <line class="fil0 str0" x1="2854" y1="5341" x2="2962" y2= "5341" />
    <path class="fil0 str0" d="M2962 5341c0,-5 -3,-9 -8,-10"/>
    <polyline class="fil0 str0" points="2954,5331 2963,5290 2969,5296 2970,5301 2968,5306 2963,5309 2971,5350 "/>
    <path class="fil0 str0" d="M2971 5350c4,-1 7,-4 7,-9"/>
    <line class="fil0 str0" x1="2978" y1="5341" x2="3086" y2= "5341" />
    <path class="fil0 str0" d="M3086 5341c-1,-5 -3,-9 -8,-10"/>
    <polyline class="fil0 str0" points="3078,5331 3086,5290 3093,5296 3094,5301 3092,5306 3086,5309 3095,5350 3098,5349 3102,5345 3102,5340 3218,5341 "/>
    <path class="fil0 str0" d="M3218 5341c0,-6 -3,-9 -9,-10"/>
    <line class="fil0 str0" x1="3209" y1="5331" x2="3209" y2= "5150" />
    <path class="fil0 str0" d="M3209 5150c-3,0 -5,1 -7,3"/>
    <polyline class="fil0 str0" points="3202,5153 3200,5159 3084,5159 "/>
    <path class="fil0 str0" d="M3084 5159c0,5 1,6 7,9"/>
    <polyline class="fil0 str0" points="3091,5168 3083,5210 3078,5206 3075,5196 3083,5191 3075,5150 "/>
    <path class="fil0 str0" d="M3075 5150c-4,1 -7,4 -8,9"/>
    <line class="fil0 str0" x1="3067" y1="5159" x2="2960" y2= "5159" />
    <path class="fil0 str0" d="M2960 5159c0,5 2,6 7,9"/>
    <polyline class="fil0 str0" points="2967,5168 2959,5210 2954,5206 2952,5196 2959,5191 2951,5150 "/>
    <path class="fil0 str0" d="M2951 5150c-5,1 -6,3 -8,9"/>
    <line class="fil0 str0" x1="2943" y1="5159" x2="2836" y2= "5159" />
    <path class="fil0 str0" d="M2836 5159c0,5 1,6 7,9"/>
    <polyline class="fil0 str0" points="2843,5168 2835,5210 2830,5206 2828,5196 2835,5191 2827,5150 "/>
    <path class="fil0 str0" d="M2827 5150c-5,2 -6,4 -8,9"/>
    <polyline class="fil0 str0" points="2819,5159 2722,5159 2724,5154 2728,5150 2733,5150 2738,5152 2741,5157 "/>
    <path class="fil0 str0" d="M2741 5157c181,-18 245,-88 248,-266 6,0 8,3 9,9"/>
    <line class="fil0 str0" x1="2998" y1="4900" x2="3180" y2= "4900" />
    <path class="fil0 str0" d="M3180 4900c0,-6 -3,-8 -9,-9"/>
    <line class="fil0 str0" x1="3171" y1="4891" x2="3171" y2= "1784" />
    <path class="fil0 str0" d="M3171 1784c-5,0 -8,3 -9,10 -83,0 -87,-2 -89,-51 -3,-61 -5,-190 -5,-309 0,-136 1,-175 8,-195 7,-19 20,-24 66,-24 9,0 22,0 38,0 0,-6 -3,-8 -9,-9"/>
    <line class="fil0 str0" x1="3171" y1="1206" x2="3171" y2= "1090" />
    <path class="fil0 str0" d="M3171 1090c-5,0 -8,3 -9,10"/>
    <line class="fil0 str0" x1="3162" y1="1100" x2="2980" y2= "1100" />
    <path class="fil0 str0" d="M2980 1100c0,-6 3,-9 9,-10 0,-1 0,-1 0,-2 0,-111 -50,-192 -136,-220 -27,-9 -55,-15 -131,-29"/>
    <line class="fil0 str0" x1="2722" y1="839" x2="2726" y2= "832" />
    <path class="fil0 str0" d="M2726 832c2,0 4,-1 6,0 1,0 2,0 4,0"/>
    <polyline class="fil0 str0" points="2736,832 2740,835 2741,841 2838,841 "/>
    <path class="fil0 str0" d="M2838 841c0,-6 -3,-9 -8,-10"/>
    <polyline class="fil0 str0" points="2830,831 2839,790 2846,795 2846,801 2844,806 2839,808 2847,850 "/>
    <path class="fil0 str0" d="M2847 850c4,-2 7,-5 7,-9"/>
    <line class="fil0 str0" x1="2854" y1="841" x2="2962" y2= "841" />
    <path class="fil0 str0" d="M2962 841c0,-6 -3,-9 -8,-10"/>
    <polyline class="fil0 str0" points="2954,831 2963,790 2969,795 2970,801 2968,806 2963,808 2971,850 "/>
    <path class="fil0 str0" d="M2971 850c4,-2 7,-5 7,-9"/>
    <line class="fil0 str0" x1="2978" y1="841" x2="3086" y2= "841" />
    <path class="fil0 str0" d="M3086 841c-1,-6 -3,-9 -8,-10"/>
    <polyline class="fil0 str0" points="3078,831 3086,790 3093,795 3094,801 3092,806 3086,808 3095,850 "/>
    <path class="fil0 str0" d="M3095 850c4,-2 7,-5 7,-9"/>
    <line class="fil0 str0" x1="3102" y1="841" x2="3218" y2= "841" />
    <path class="fil0 str0" d="M3218 841c0,-6 -3,-9 -9,-10"/>
    <line class="fil0 str0" x1="3209" y1="831" x2="3209" y2= "650" />
    <path class="fil0 str0" d="M3209 650c-5,0 -8,3 -9,9"/>
    <line class="fil0 str0" x1="3200" y1="659" x2="3084" y2= "659" />
    <path class="fil0 str0" d="M3084 659c0,5 1,5 7,9"/>
    <polyline class="fil0 str0" points="3091,668 3083,709 3078,706 3076,702 3076,700 3075,696 "/>
    <path class="fil0 str0" d="M3075 696c3,-2 6,-4 8,-5"/>
    <line class="fil0 str0" x1="3083" y1="691" x2="3075" y2= "650" />
    <path class="fil0 str0" d="M3075 650c-5,2 -7,4 -8,9"/>
    <line class="fil0 str0" x1="3067" y1="659" x2="2960" y2= "659" />
    <path class="fil0 str0" d="M2960 659c0,5 1,5 7,9"/>
    <polyline class="fil0 str0" points="2967,668 2959,709 2954,706 2953,704 2952,697 2952,696 "/>
    <path class="fil0 str0" d="M2952 696c2,-2 5,-4 7,-5"/>
    <line class="fil0 str0" x1="2959" y1="691" x2="2951" y2= "650" />
    <path class="fil0 str0" d="M2951 650c-5,2 -6,4 -8,9"/>
    <line class="fil0 str0" x1="2943" y1="659" x2="2836" y2= "659" />
    <path class="fil0 str0" d="M2836 659c0,5 1,5 7,9"/>
    <polyline class="fil0 str0" points="2843,668 2835,709 2830,706 2828,696 2835,691 2827,650 "/>
    <path class="fil0 str0" d="M2827 650c-5,2 -6,4 -8,9"/>
    <line class="fil0 str0" x1="2819" y1="659" x2="1163" y2= "659" />
    <path class="fil0 str0" d="M1163 659c0,4 1,6 7,9"/>
    <polyline class="fil0 str0" points="1170,668 1162,709 1157,706 1154,696 "/>
    <path class="fil0 str0" d="M1154 696c3,-2 5,-4 8,-5"/>
    <line class="fil0 str0" x1="1162" y1="691" x2="1154" y2= "650" />
    <path class="fil0 str0" d="M1154 650c-5,2 -7,4 -8,9"/>
    <line class="fil0 str0" x1="1146" y1="659" x2="1039" y2= "659" />
    <path class="fil0 str0" d="M1039 659c0,4 1,6 7,9"/>
    <polyline class="fil0 str0" points="1046,668 1038,709 1033,706 1031,696 "/>
    <path class="fil0 str0" d="M1031 696c2,-2 4,-4 7,-5"/>
    <line class="fil0 str0" x1="1038" y1="691" x2="1030" y2= "650" />
    <path class="fil0 str0" d="M1030 650c-5,2 -7,4 -8,9"/>
    <line class="fil0 str0" x1="1022" y1="659" x2="915" y2= "659" />
    <path class="fil0 str0" d="M915 659c0,4 1,6 7,9"/>
    <polyline class="fil0 str0" points="922,668 914,709 909,706 907,696 "/>
    <path class="fil0 str0" d="M907 696c2,-2 4,-4 7,-5"/>
    <line class="fil0 str0" x1="914" y1="691" x2="906" y2= "650" />
    <path class="fil0 str0" d="M906 650c-5,2 -6,4 -8,9"/>
    <line class="fil0 str0" x1="898" y1="659" x2="813" y2= "659" />
    <line class="fil0 str0" x1="865" y1="2680" x2="856" y2= "2680" />
    <path class="fil0 str0" d="M856 2680c1,-6 4,-10 10,-10"/>
    <line class="fil0 str0" x1="866" y1="2670" x2="865" y2= "2612" />
    <path class="fil0 str0" d="M865 2612c0,-11 0,-22 0,-33 -1,-46 11,-64 41,-64 28,0 41,15 43,48 1,22 1,64 1,111 0,77 0,106 -2,126 -2,19 -5,28 -14,35 -8,6 -17,9 -28,9 -25,0 -39,-16 -41,-46"/>
    <line class="fil0 str0" x1="865" y1="2798" x2="865" y2= "2643" />
    <path class="fil0 str0" d="M948 2088c-1,-82 -1,-165 -1,-247 -1,-23 -4,-30 -12,-37 -7,-6 -18,-10 -29,-10 -29,0 -40,14 -42,51 -4,80 -7,248 -7,381 0,112 2,161 6,161 1,0 1,-1 4,-6 1,-2 2,-3 3,-3 0,0 0,0 5,8"/>
    <line class="fil0 str0" x1="875" y1="2386" x2="876" y2= "2387" />
    <path class="fil0 str0" d="M876 2387c4,8 15,12 30,12 28,0 41,-14 42,-48"/>
    <line class="fil0 str0" x1="948" y1="2351" x2="948" y2= "2108" />
    <path class="fil0 str0" d="M948 2108c-1,-32 -1,-24 0,-57"/>
    <line class="fil0 str0" x1="2000" y1="5321" x2="2000" y2= "5311" />
    <path class="fil0 str0" d="M2000 5311c6,1 9,3 10,10 22,0 16,0 39,0 34,0 40,-1 54,-8 18,-11 29,-30 29,-51 0,-25 -17,-50 -38,-58 -12,-4 -32,-5 -94,-5 -51,0 -70,1 -83,3 -14,2 -21,6 -30,16 -12,13 -18,27 -18,43 0,35 25,59 64,60"/>
    <line class="fil0 str0" x1="1933" y1="5321" x2="2037" y2= "5321" />
    <polyline class="fil0 str0" points="2524,5336 2534,5336 2534,5334 "/>
    <path class="fil0 str0" d="M2534 5334c38,-1 57,-23 57,-66 0,-38 -30,-69 -68,-69 -39,0 -69,31 -69,69 0,37 30,68 66,68 6,0 11,-1 27,-4"/>
    <line class="fil0 str0" x1="3135" y1="2457" x2="3144" y2= "2455" />
    <path class="fil0 str0" d="M3144 2455c-1,-4 -3,-6 -9,-7 1,-42 1,-32 1,-74 0,-40 -1,-49 -5,-58 -7,-15 -21,-24 -37,-24 -28,0 -41,15 -43,49 -1,22 -2,64 -2,111 0,67 2,126 4,137 3,20 18,33 39,33 27,0 41,-16 43,-46"/>
    <line class="fil0 str0" x1="3135" y1="2576" x2="3135" y2= "2420" />
    <polyline class="fil0 str0" points="1521,1463 1522,1454 1521,1454 1521,1243 "/>
    <path class="fil0 str0" d="M1521 1243c0,-140 0,-140 -4,-155"/>
    <line class="fil0 str0" x1="1517" y1="1088" x2="1516" y2= "1084" />
    <path class="fil0 str0" d="M1516 1084c-20,-69 -83,-116 -154,-116 -71,0 -134,47 -154,115"/>
    <line class="fil0 str0" x1="1208" y1="1083" x2="1207" y2= "1084" />
    <path class="fil0 str0" d="M1207 1084c-6,20 -6,20 -5,260"/>
    <line class="fil0 str0" x1="1202" y1="1344" x2="1202" y2= "1811" />
    <path class="fil0 str0" d="M1202 1811c4,79 77,147 159,147 79,0 147,-59 159,-136"/>
    <line class="fil0 str0" x1="1520" y1="1822" x2="1522" y2= "1426" />
    <line class="fil0 str0" x1="1698" y1="735" x2="1698" y2= "725" />
    <path class="fil0 str0" d="M1698 725c5,0 7,2 9,8"/>
    <polyline class="fil0 str0" points="1707,733 1716,731 1716,730 1715,729 1715,729 1714,728 1714,727 1720,722 1719,721 1718,721 1718,720 1718,720 1723,714 "/>
    <path class="fil0 str0" d="M1723 714c-1,-1 -2,-1 -3,-1"/>
    <polyline class="fil0 str0" points="1720,713 1718,713 1719,713 1720,704 1717,704 1716,696 1714,696 1714,697 "/>
    <path class="fil0 str0" d="M1714 697c-1,0 -1,0 -3,1"/>
    <polyline class="fil0 str0" points="1711,698 1707,691 1707,692 1706,692 1706,693 1705,693 1705,693 1698,689 1698,689 1698,690 "/>
    <path class="fil0 str0" d="M1698 690c0,0 0,1 -1,3"/>
    <polyline class="fil0 str0" points="1697,693 1689,691 1689,691 1689,695 1681,696 1681,698 1681,698 "/>
    <path class="fil0 str0" d="M1681 698c0,1 0,1 1,2"/>
    <polyline class="fil0 str0" points="1682,700 1676,705 1676,705 1676,706 1677,706 1677,706 1678,707 1673,713 1674,713 1674,714 "/>
    <path class="fil0 str0" d="M1674 714c1,0 2,0 3,1"/>
    <polyline class="fil0 str0" points="1677,715 1676,723 1675,723 1679,723 1681,731 1682,731 1683,731 1683,731 1684,730 1685,730 1689,736 1691,735 1691,734 1692,733 1692,734 1698,739 "/>
    <path class="fil0 str0" d="M1698 739c0,-2 0,-2 1,-3"/>
    <polyline class="fil0 str0" points="1699,736 1699,734 1699,735 1707,736 1707,733 1716,731 "/>
    <polyline class="fil0 str0" points="2304,5287 2314,5285 2314,5284 2322,5282 2322,5281 2322,5280 2322,5280 2321,5279 2322,5279 2328,5275 "/>
    <path class="fil0 str0" d="M2328 5275c-1,-2 -2,-2 -4,-4"/>
    <polyline class="fil0 str0" points="2324,5271 2325,5271 2329,5265 "/>
    <path class="fil0 str0" d="M2329 5265c-1,-1 -3,-1 -4,-1 0,0 0,0 0,0"/>
    <polyline class="fil0 str0" points="2325,5264 2326,5264 2327,5256 2324,5256 2322,5248 2320,5248 2319,5249 2319,5249 2315,5242 2311,5245 2304,5241 2304,5241 "/>
    <path class="fil0 str0" d="M2304 5241c0,1 0,1 0,3"/>
    <polyline class="fil0 str0" points="2304,5244 2304,5245 2295,5243 2295,5243 2295,5247 2288,5248 2288,5250 2288,5251 2288,5252 2282,5256 2285,5259 2281,5266 "/>
    <path class="fil0 str0" d="M2281 5266c1,0 1,0 3,1"/>
    <polyline class="fil0 str0" points="2284,5267 2282,5275 2286,5275 2288,5283 2289,5283 2290,5282 2291,5282 2291,5281 2291,5282 2295,5289 "/>
    <path class="fil0 str0" d="M2295 5289c2,-2 3,-3 4,-4"/>
    <polyline class="fil0 str0" points="2299,5285 2299,5285 2306,5289 "/>
    <path class="fil0 str0" d="M2306 5289c0,-1 0,-2 0,-3 0,-1 0,-1 0,-1"/>
    <polyline class="fil0 str0" points="2306,5285 2306,5287 2314,5289 2314,5284 2322,5282 "/>
    <polyline class="fil0 str0" points="1589,5287 1599,5284 1599,5285 1607,5283 1607,5282 1606,5281 1606,5280 1605,5280 1605,5279 1612,5274 1610,5273 1610,5273 1609,5272 1610,5272 1614,5266 "/>
    <path class="fil0 str0" d="M1614 5266c-1,-1 -2,-1 -2,-1"/>
    <polyline class="fil0 str0" points="1612,5265 1610,5265 1610,5265 1612,5256 1608,5256 1607,5249 1605,5249 1605,5250 "/>
    <path class="fil0 str0" d="M1605 5250c-1,0 -1,0 -2,0"/>
    <polyline class="fil0 str0" points="1603,5250 1598,5243 1598,5244 1597,5244 1597,5245 1596,5245 1596,5246 1590,5242 1590,5241 1590,5242 1589,5243 "/>
    <path class="fil0 str0" d="M1589 5243c0,0 0,1 -1,2"/>
    <polyline class="fil0 str0" points="1588,5245 1580,5243 1580,5247 1572,5250 1572,5250 1573,5251 1573,5252 1566,5256 1570,5260 1565,5267 "/>
    <path class="fil0 str0" d="M1565 5267c1,0 2,0 3,0"/>
    <polyline class="fil0 str0" points="1568,5267 1566,5275 1571,5275 1573,5283 1574,5283 1574,5283 1575,5283 1576,5282 1580,5288 1581,5287 1582,5287 1583,5286 1590,5291 "/>
    <path class="fil0 str0" d="M1590 5291c0,-2 0,-2 1,-3"/>
    <polyline class="fil0 str0" points="1591,5288 1591,5286 1591,5287 1599,5288 1599,5285 1607,5283 "/>
    <path class="fil0 str0" d="M1532 5287c9,-2 10,-2 18,-4"/>
    <polyline class="fil0 str0" points="1550,5283 1550,5282 1549,5281 1549,5280 1548,5280 1548,5279 1555,5274 1553,5273 1552,5273 1552,5272 1552,5272 1557,5266 "/>
    <path class="fil0 str0" d="M1557 5266c-1,-1 -2,-1 -2,-1"/>
    <polyline class="fil0 str0" points="1555,5265 1552,5265 1553,5265 1555,5256 1551,5256 1550,5249 1548,5249 1548,5250 "/>
    <path class="fil0 str0" d="M1548 5250c-1,0 -1,0 -2,0"/>
    <polyline class="fil0 str0" points="1546,5250 1541,5243 1541,5244 1540,5244 1540,5245 1539,5245 1539,5246 1532,5242 1532,5241 1532,5242 1532,5243 "/>
    <path class="fil0 str0" d="M1532 5243c0,0 0,1 -1,2"/>
    <polyline class="fil0 str0" points="1531,5245 1523,5243 1523,5247 1515,5250 1515,5250 1515,5251 1515,5252 1516,5252 1510,5256 1510,5257 1510,5258 1512,5259 1507,5266 1508,5266 1508,5267 "/>
    <path class="fil0 str0" d="M1508 5267c1,0 1,0 3,0"/>
    <polyline class="fil0 str0" points="1511,5267 1510,5275 1509,5275 1513,5275 1515,5283 1516,5283 1517,5283 1517,5283 1518,5282 1519,5282 1524,5288 1525,5287 1525,5286 1526,5285 1526,5286 1532,5291 "/>
    <path class="fil0 str0" d="M1532 5291c0,-2 0,-2 1,-3"/>
    <polyline class="fil0 str0" points="1533,5288 1533,5286 1533,5287 1541,5288 1541,5285 1550,5283 "/>
    <polyline class="fil0 str0" points="1475,5287 1492,5283 1492,5282 1491,5281 1491,5280 1490,5280 1490,5279 1497,5274 1496,5273 1495,5273 1495,5272 1499,5266 "/>
    <path class="fil0 str0" d="M1499 5266c-1,-1 -2,-1 -2,-1"/>
    <polyline class="fil0 str0" points="1497,5265 1495,5265 1496,5265 1498,5256 1493,5256 1491,5249 1490,5249 1490,5250 1488,5250 1484,5243 1481,5246 1474,5242 "/>
    <path class="fil0 str0" d="M1474 5242c0,1 0,1 -1,3"/>
    <polyline class="fil0 str0" points="1473,5245 1466,5243 1466,5247 1457,5250 1457,5250 1458,5251 1458,5252 1459,5252 1453,5256 1453,5257 1453,5258 1455,5259 1450,5266 1451,5266 1451,5267 "/>
    <path class="fil0 str0" d="M1451 5267c1,0 1,0 3,0"/>
    <polyline class="fil0 str0" points="1454,5267 1453,5275 1452,5275 1456,5275 1457,5283 1459,5283 1459,5283 1460,5283 1461,5282 1462,5282 1466,5288 1468,5287 1468,5286 1468,5285 1468,5286 1475,5291 "/>
    <path class="fil0 str0" d="M1475 5291c0,-2 0,-2 1,-3"/>
    <polyline class="fil0 str0" points="1476,5288 1476,5286 1476,5287 1484,5288 1484,5285 1492,5283 "/>
    <polyline class="fil0 str0" points="1418,5287 1435,5283 1435,5282 1434,5281 1434,5280 1433,5280 1433,5279 1440,5274 1439,5273 1438,5273 1437,5272 1442,5266 "/>
    <path class="fil0 str0" d="M1442 5266c-2,-1 -2,-1 -3,-1"/>
    <polyline class="fil0 str0" points="1439,5265 1437,5265 1439,5265 1441,5256 1436,5256 1434,5249 1433,5249 1433,5250 1431,5250 1427,5243 1424,5246 1417,5242 "/>
    <path class="fil0 str0" d="M1417 5242c0,1 0,1 -1,3"/>
    <polyline class="fil0 str0" points="1416,5245 1408,5243 1408,5247 1400,5250 1400,5250 1401,5251 1401,5252 1394,5256 1398,5260 1393,5267 "/>
    <path class="fil0 str0" d="M1393 5267c1,0 1,0 4,0"/>
    <polyline class="fil0 str0" points="1397,5267 1395,5275 1395,5275 1399,5275 1400,5283 1402,5283 1403,5283 1404,5283 1404,5282 1408,5288 1409,5287 1410,5287 1411,5286 1418,5291 "/>
    <path class="fil0 str0" d="M1418 5291c0,-2 0,-2 1,-3"/>
    <polyline class="fil0 str0" points="1419,5288 1419,5286 1419,5287 1427,5288 1427,5285 1435,5283 "/>
    <path class="fil0 str0" d="M1360 5287c9,-2 10,-2 17,-4"/>
    <polyline class="fil0 str0" points="1377,5283 1377,5282 1377,5281 1377,5280 1376,5280 1376,5279 1383,5274 1382,5273 1381,5273 1380,5272 1384,5266 "/>
    <path class="fil0 str0" d="M1384 5266c-1,-1 -1,-1 -2,-1"/>
    <polyline class="fil0 str0" points="1382,5265 1380,5265 1381,5265 1382,5256 1379,5256 1377,5249 1375,5249 1375,5250 1374,5250 1370,5243 1367,5246 1360,5242 "/>
    <path class="fil0 str0" d="M1360 5242c0,1 0,1 -1,3"/>
    <polyline class="fil0 str0" points="1359,5245 1351,5243 1351,5247 1343,5250 1343,5250 1344,5251 1344,5252 1337,5256 1340,5260 1336,5267 "/>
    <path class="fil0 str0" d="M1336 5267c1,0 1,0 3,0"/>
    <polyline class="fil0 str0" points="1339,5267 1337,5275 1342,5275 1344,5283 1344,5283 1345,5283 1346,5283 1347,5282 1351,5288 1352,5287 1353,5287 1353,5286 1360,5291 "/>
    <path class="fil0 str0" d="M1360 5291c1,-2 1,-2 2,-3"/>
    <polyline class="fil0 str0" points="1362,5288 1362,5286 1362,5287 1369,5288 1369,5285 1377,5283 "/>
    <path class="fil0 str0" d="M1302 5287c10,-2 11,-2 18,-4"/>
    <polyline class="fil0 str0" points="1320,5283 1320,5282 1320,5281 1320,5280 1319,5280 1319,5279 1325,5274 1324,5273 1323,5273 1322,5272 1323,5272 1328,5266 "/>
    <path class="fil0 str0" d="M1328 5266c-2,-1 -2,-1 -3,-1"/>
    <polyline class="fil0 str0" points="1325,5265 1323,5265 1324,5265 1325,5256 1322,5256 1320,5249 1319,5249 1318,5250 "/>
    <path class="fil0 str0" d="M1318 5250c0,0 -1,0 -2,0"/>
    <polyline class="fil0 str0" points="1316,5250 1311,5243 1311,5244 1311,5244 1311,5245 1310,5245 1309,5246 1303,5242 1303,5241 1303,5242 1302,5243 "/>
    <path class="fil0 str0" d="M1302 5243c0,0 0,1 0,2"/>
    <polyline class="fil0 str0" points="1302,5245 1294,5243 1294,5247 1286,5250 1286,5250 1287,5251 1287,5252 1280,5256 1283,5260 1279,5267 "/>
    <path class="fil0 str0" d="M1279 5267c1,0 1,0 3,0"/>
    <polyline class="fil0 str0" points="1282,5267 1280,5275 1285,5275 1287,5283 1287,5283 1288,5283 1289,5283 1289,5282 1294,5288 1295,5287 1296,5287 1296,5286 1303,5291 "/>
    <path class="fil0 str0" d="M1303 5291c1,-2 1,-2 2,-3"/>
    <polyline class="fil0 str0" points="1305,5288 1305,5286 1305,5287 1312,5288 1312,5285 1320,5283 "/>
   </g>
  </g>
 </g>
</svg>
