<?xml version="1.0" encoding="UTF-8"?>
<!DOCTYPE svg PUBLIC "-//W3C//DTD SVG 1.1//EN" "http://www.w3.org/Graphics/SVG/1.1/DTD/svg11.dtd">
<!-- Creator: CorelDRAW X8 -->
<svg xmlns="http://www.w3.org/2000/svg" xml:space="preserve" width="40mm" height="60mm" version="1.1" style="shape-rendering:geometricPrecision; text-rendering:geometricPrecision; image-rendering:optimizeQuality; fill-rule:evenodd; clip-rule:evenodd"
viewBox="0 0 4000 6000"
 xmlns:xlink="http://www.w3.org/1999/xlink">
 <defs>
  <style type="text/css">
   <![CDATA[
    .str0 {stroke:black;stroke-width:7.62}
    .fil0 {fill:none}
   ]]>
  </style>
 </defs>
 <g id="图层_x0020_1">
  <metadata id="CorelCorpID_0Corel-Layer"/>
  <path class="fil0 str0" d="M951 5350l2001 0c82,0 149,-67 149,-149l0 -4402c0,-82 -67,-149 -149,-149l-1904 0c-82,0 -149,67 -149,149l0 4402c0,82 67,149 149,149l56 0m207 -4582l0 0c155,0 282,127 282,282l0 686c0,155 -127,282 -282,282l0 0c-155,0 -281,-127 -281,-282l0 -686c0,-155 126,-282 281,-282zm-1 45l2 0c135,0 245,110 245,244l0 44c0,10 -2,16 -9,23l-67 67c-6,6 -7,10 -7,17l0 379c0,7 0,10 6,16l72 76c4,4 5,6 5,13l0 42c0,135 -110,245 -245,245l-2 0c-134,0 -244,-110 -244,-245l0 -35c0,-11 2,-15 7,-20l70 -75c6,-6 7,-10 7,-20l0 -378c0,-7 0,-8 -4,-12l-72 -73c-7,-7 -8,-10 -8,-20l0 -44c0,-134 110,-244 244,-244zm38 105c-1,-13 -13,-26 -37,-28 -86,0 -156,70 -156,156 0,87 70,157 156,157 86,0 156,-70 156,-157 0,-86 -70,-156 -156,-156m37 727c-1,-13 -13,-25 -37,-27 -86,0 -156,70 -156,156 0,86 70,156 156,156 86,0 156,-70 156,-156 0,-86 -70,-156 -156,-156m27 -280c-1,-10 -9,-18 -27,-20 -61,0 -111,50 -111,112 0,61 50,111 111,111 62,0 112,-50 112,-111 0,-62 -50,-112 -112,-112m-71 -84c-1,-3 -4,-6 -9,-7 -21,0 -37,17 -37,38 0,20 16,37 37,37 20,0 37,-17 37,-37 0,-21 -17,-38 -37,-38m174 10c0,-3 -3,-6 -8,-7 -21,0 -38,17 -38,38 0,20 17,37 38,37 20,0 37,-17 37,-37 0,-21 -17,-38 -37,-38m331 60l7 0c1,0 2,1 2,3l-2 107c0,5 2,7 7,7l35 1c10,0 11,2 8,12l-48 146c-1,3 -1,4 -4,4l-10 0c-4,0 -5,-1 -5,-7l-3 -106c0,-5 0,-6 -7,-6l-35 -1c-10,0 -10,-1 -6,-13l58 -145c1,-2 0,-2 3,-2z"/>
 </g>
</svg>
