<?xml version="1.0" encoding="UTF-8"?>
<!DOCTYPE svg PUBLIC "-//W3C//DTD SVG 1.1//EN" "http://www.w3.org/Graphics/SVG/1.1/DTD/svg11.dtd">
<!-- Creator: CorelDRAW X8 -->
<svg xmlns="http://www.w3.org/2000/svg" xml:space="preserve" width="40mm" height="60mm" version="1.1" style="shape-rendering:geometricPrecision; text-rendering:geometricPrecision; image-rendering:optimizeQuality; fill-rule:evenodd; clip-rule:evenodd"
viewBox="0 0 4000 6000"
 xmlns:xlink="http://www.w3.org/1999/xlink">
 <defs>
  <style type="text/css">
   <![CDATA[
    .str0 {stroke:black;stroke-width:7.62}
    .fil0 {fill:none}
   ]]>
  </style>
 </defs>
 <g id="图层_x0020_1">
  <metadata id="CorelCorpID_0Corel-Layer"/>
  <path class="fil0 str0" d="M985 5350l1876 0c145,0 264,-119 264,-265l0 -4170c0,-146 -119,-265 -264,-265l-1722 0c-145,0 -264,119 -264,265l0 4170c0,146 119,265 264,265l58 0m851 -3768c-1,-17 -16,-32 -47,-35 -109,0 -198,89 -198,199 0,110 89,198 198,198 110,0 199,-88 199,-198 0,-110 -89,-199 -199,-199m-790 -807l381 0c82,0 149,67 149,149l0 0c0,82 -67,149 -149,149l-381 0c-82,0 -149,-67 -149,-149l0 0c0,-82 67,-149 149,-149zm0 33l381 0c64,0 116,52 116,116l0 0c0,64 -52,116 -116,116l-381 0c-64,0 -116,-52 -116,-116l0 0c0,-64 52,-116 116,-116zm397 53c0,-6 -6,-12 -17,-13 -41,0 -75,34 -75,75 0,41 34,74 75,74 41,0 74,-33 74,-74 0,-41 -33,-75 -74,-75m-347 -13c-1,-9 -9,-17 -25,-19 -60,0 -108,48 -108,108 0,59 48,107 108,107 59,0 107,-48 107,-107 0,-60 -48,-108 -107,-108"/>
 </g>
</svg>
