<?xml version="1.0" encoding="UTF-8"?>
<!DOCTYPE svg PUBLIC "-//W3C//DTD SVG 1.1//EN" "http://www.w3.org/Graphics/SVG/1.1/DTD/svg11.dtd">
<!-- Creator: CorelDRAW X8 -->
<svg xmlns="http://www.w3.org/2000/svg" xml:space="preserve" width="40mm" height="60mm" version="1.1" style="shape-rendering:geometricPrecision; text-rendering:geometricPrecision; image-rendering:optimizeQuality; fill-rule:evenodd; clip-rule:evenodd"
viewBox="0 0 4000 6000"
 xmlns:xlink="http://www.w3.org/1999/xlink">
 <defs>
  <style type="text/css">
   <![CDATA[
    .str0 {stroke:black;stroke-width:7.62}
    .fil0 {fill:none}
   ]]>
  </style>
 </defs>
 <g id="图层_x0020_1">
  <metadata id="CorelCorpID_0Corel-Layer"/>
  <path class="fil0 str0" d="M929 5350l1988 0c97,0 176,-80 176,-177l0 -4346c0,-97 -79,-177 -176,-177l-1834 0c-97,0 -176,80 -176,177l0 4346c0,97 79,177 176,177l171 0m1078 -4664c0,-5 -5,-10 -14,-10 -31,0 -57,25 -57,57 0,31 26,57 57,57 32,0 58,-26 58,-57 0,-32 -26,-57 -58,-57m-362 54c-4,-17 -13,-30 -53,-30l-34 0c-18,0 -33,15 -33,33l0 0c0,18 15,33 33,33l283 0c17,0 32,-15 32,-33l0 0c0,-18 -15,-33 -32,-33l-249 0m-193 -14c0,-5 -4,-10 -13,-10 -32,0 -57,25 -57,57 0,31 25,57 57,57 31,0 57,-26 57,-57 0,-32 -26,-57 -57,-57"/>
 </g>
</svg>
