<?xml version="1.0" encoding="UTF-8"?>
<!DOCTYPE svg PUBLIC "-//W3C//DTD SVG 1.1//EN" "http://www.w3.org/Graphics/SVG/1.1/DTD/svg11.dtd">
<!-- Creator: CorelDRAW X8 -->
<svg xmlns="http://www.w3.org/2000/svg" xml:space="preserve" width="40mm" height="60mm" version="1.1" style="shape-rendering:geometricPrecision; text-rendering:geometricPrecision; image-rendering:optimizeQuality; fill-rule:evenodd; clip-rule:evenodd"
viewBox="0 0 4000 6000"
 xmlns:xlink="http://www.w3.org/1999/xlink">
 <defs>
  <style type="text/css">
   <![CDATA[
    .str0 {stroke:black;stroke-width:7.62}
    .fil0 {fill:none}
   ]]>
  </style>
 </defs>
 <g id="图层_x0020_1">
  <metadata id="CorelCorpID_0Corel-Layer"/>
  <path class="fil0 str0" d="M1059 5326l1766 0c117,0 213,-96 213,-213l0 -4249c0,-118 -96,-214 -213,-214l-536 0 -187 0c-18,0 -26,5 -26,27l0 24c0,43 -35,78 -78,78l0 0c-43,0 -78,-35 -78,-78l0 -16c0,-28 -11,-35 -32,-35l-176 0 -537 0c-117,0 -213,96 -213,214l0 4249c0,117 96,213 213,213l49 0c39,0 52,10 80,24"/>
 </g>
</svg>
