<?xml version="1.0" encoding="UTF-8"?>
<!DOCTYPE svg PUBLIC "-//W3C//DTD SVG 1.1//EN" "http://www.w3.org/Graphics/SVG/1.1/DTD/svg11.dtd">
<!-- Creator: CorelDRAW -->
<svg xmlns="http://www.w3.org/2000/svg" xml:space="preserve" width="40mm" height="60mm" style="shape-rendering:geometricPrecision; text-rendering:geometricPrecision; image-rendering:optimizeQuality; fill-rule:evenodd; clip-rule:evenodd"
viewBox="0 0 40 60"
 xmlns:xlink="http://www.w3.org/1999/xlink">
 <defs>
  <style type="text/css">
   <![CDATA[
    .str0 {stroke:#1F1A17;stroke-width:0.2}
    .fil0 {fill:none}
   ]]>
  </style>
 </defs>
 <g id="图层_x0020_2">
  <metadata id="CorelCorpID_0Corel-Layer"/>
  <g id="_176268360">
   <path id="_172599536" class="fil0 str0" d="M8.2328 6.8143l2.8546 -0.3143 17.6842 0 2.9956 0.2275 -0.0072 1.0663 -4.0978 0.4103c0,0 2.1456,0.0269 2.468,2.468l1.169 0 0 38.4959 -1.1699 0c0,0 -0.2318,2.2116 -2.4605,2.4606 0,0 0.9217,0.0668 1.227,0.1118 0.3052,0.045 2.8714,0.4327 2.8714,0.4327l0 1.0678c0,0 -2.8986,0.2308 -3.2665,0.2428 -0.3679,0.0119 -16.445,0.0163 -16.445,0.0163 0,0 -0.8349,-0.0215 -1.5333,-0.0753 -0.6984,-0.0537 -2.2896,-0.1783 -2.2896,-0.1783l0 -1.0352 4.1852 -0.6217c0,0 -2.4036,0.0849 -2.4712,-2.4212l-1.246 0 -0.0868 -38.4962 1.2473 0.0043c0,0 0.1176,-2.3619 2.5317,-2.3935 0,0 -0.5007,-0.0639 -1.1917,-0.1851 -0.6909,-0.1211 -2.0733,-0.2635 -2.0733,-0.2635l-0.8485 0.006 -0.0467 -1.026z"/>
   <path id="_172804752" class="fil0 str0" d="M9.2342 24.5653l0 0c0.1701,0 0.3092,0.1449 0.3092,0.322l0 2.6734c0,0.1772 -0.1391,0.322 -0.3092,0.322l0 0c-0.17,0 -0.3091,-0.1448 -0.3091,-0.322l0 -2.6734c0,-0.1771 0.1391,-0.322 0.3091,-0.322z"/>
   <path id="_90176648" class="fil0 str0" d="M30.7922 26.4848l0 0c0.17,0 0.3091,0.1449 0.3091,0.322l0 2.6734c0,0.1771 -0.1391,0.322 -0.3091,0.322l0 0c-0.17,0 -0.3091,-0.1449 -0.3091,-0.322l0 -2.6734c0,-0.1771 0.1391,-0.322 0.3091,-0.322z"/>
   <path id="_176235152" class="fil0 str0" d="M30.7922 22.8189l0 0c0.17,0 0.3091,0.1449 0.3091,0.322l0 2.6734c0,0.1771 -0.1391,0.322 -0.3091,0.322l0 0c-0.17,0 -0.3091,-0.1449 -0.3091,-0.322l0 -2.6734c0,-0.1771 0.1391,-0.322 0.3091,-0.322z"/>
   <path id="_171929808" class="fil0 str0" d="M30.7922 16.0743l0 0c0.17,0 0.3091,0.145 0.3091,0.322l0 4.3898c0,0.177 -0.1391,0.322 -0.3091,0.322l0 0c-0.17,0 -0.3091,-0.1449 -0.3091,-0.322l0 -4.3898c0,-0.1771 0.1391,-0.322 0.3091,-0.322z"/>
   <path id="_120091416" class="fil0 str0" d="M13.5941 52.941l2.5043 0c0.1358,0 0.2468,-0.1111 0.2468,-0.2468l0 0c0,-0.1357 -0.111,-0.2468 -0.2468,-0.2468l-2.5043 0c-0.1358,0 -0.2468,0.1111 -0.2468,0.2468l0 0c0,0.1357 0.111,0.2468 0.2468,0.2468z"/>
   <path id="_173011712" class="fil0 str0" d="M19.298 52.1544l1.3362 0c0.254,0 0.4617,0.1823 0.4617,0.4051l0 0.0155c0,0.2229 -0.2077,0.4051 -0.4617,0.4051l-1.3362 0c-0.2539,0 -0.4617,-0.1822 -0.4617,-0.4051l0 -0.0155c0,-0.2228 0.2078,-0.4051 0.4617,-0.4051z"/>
   <path id="_178826952" class="fil0 str0" d="M22.8529 52.498l0.5846 0c0.0695,0 0.1264,0.0484 0.1264,0.1076l0 0.2132c0,0.0592 -0.0569,0.1076 -0.1264,0.1076l-0.5846 0c-0.0695,0 -0.1263,-0.0484 -0.1263,-0.1076l0 -0.2132c0,-0.0592 0.0568,-0.1076 0.1263,-0.1076z"/>
   <path id="_172548856" class="fil0 str0" d="M25.2597 52.0553c0.3166,0 0.5734,0.2568 0.5734,0.5734 0,0.3166 -0.2568,0.5734 -0.5734,0.5734 -0.3166,0 -0.5733,-0.2568 -0.5733,-0.5734 0,-0.3166 0.2567,-0.5734 0.5733,-0.5734z"/>
   <path id="_173036576" class="fil0 str0" d="M20.0024 11.0027c0.3934,0 0.7124,0.319 0.7124,0.7124 0,0.3934 -0.319,0.7124 -0.7124,0.7124 -0.3934,0 -0.7124,-0.319 -0.7124,-0.7124 0,-0.3934 0.319,-0.7124 0.7124,-0.7124z"/>
   <path id="_176270320" class="fil0 str0" d="M20.0024 13.8187c0.3934,0 0.7124,0.319 0.7124,0.7124 0,0.3934 -0.319,0.7124 -0.7124,0.7124 -0.3934,0 -0.7124,-0.319 -0.7124,-0.7124 0,-0.3934 0.319,-0.7124 0.7124,-0.7124z"/>
   <path id="_173040272" class="fil0 str0" d="M20.0024 16.3881c0.3391,0 0.6141,0.275 0.6141,0.6141 0,0.3391 -0.275,0.6141 -0.6141,0.6141 -0.3391,0 -0.6141,-0.275 -0.6141,-0.6141 0,-0.3391 0.275,-0.6141 0.6141,-0.6141z"/>
   <path id="_127375016" class="fil0 str0" d="M22.5575 11.9504l0 0c0.3417,0 0.6211,0.2695 0.6211,0.599l0 2.0282c0,0.3294 -0.2794,0.599 -0.6211,0.599l0 0c-0.3416,0 -0.6211,-0.2696 -0.6211,-0.599l0 -2.0282c0,-0.3295 0.2795,-0.599 0.6211,-0.599z"/>
   <path id="_178251576" class="fil0 str0" d="M19.9978 10.5881l0 0c0.6164,0 1.1206,0.5071 1.1206,1.1269l0 5.124c0,0.6198 -0.5042,1.1269 -1.1206,1.1269l0 0c-0.6164,0 -1.1207,-0.5071 -1.1207,-1.1269l0 -5.124c0,-0.6198 0.5043,-1.1269 1.1207,-1.1269z"/>
   <path id="_173015632" class="fil0 str0" d="M20.0274 10.4122l0 0c0.7599,0 1.3816,0.6217 1.3816,1.3817l0 5.1319c0,0.7599 -0.6217,1.3816 -1.3816,1.3816l0 0c-0.76,0 -1.3817,-0.6217 -1.3817,-1.3816l0 -5.1319c0,-0.76 0.6217,-1.3817 1.3817,-1.3817z"/>
   <path id="_172574224" class="fil0 str0" d="M19.9974 19.183l0 0c0.5644,0 1.0262,0.4481 1.0262,0.9959l0 1.2007c0,0.5478 -0.4618,0.996 -1.0262,0.996l0 0c-0.5644,0 -1.0262,-0.4482 -1.0262,-0.996l0 -1.2007c0,-0.5478 0.4618,-0.9959 1.0262,-0.9959z"/>
  </g>
 </g>
</svg>
