<?xml version="1.0" encoding="UTF-8"?>
<!DOCTYPE svg PUBLIC "-//W3C//DTD SVG 1.1//EN" "http://www.w3.org/Graphics/SVG/1.1/DTD/svg11.dtd">
<!-- Creator: CorelDRAW X8 -->
<svg xmlns="http://www.w3.org/2000/svg" xml:space="preserve" width="40mm" height="60mm" version="1.1" style="shape-rendering:geometricPrecision; text-rendering:geometricPrecision; image-rendering:optimizeQuality; fill-rule:evenodd; clip-rule:evenodd"
viewBox="0 0 4000 6000"
 xmlns:xlink="http://www.w3.org/1999/xlink">
 <defs>
  <style type="text/css">
   <![CDATA[
    .str0 {stroke:black;stroke-width:10}
    .fil0 {fill:none}
   ]]>
  </style>
 </defs>
 <g id="图层_x0020_1">
  <metadata id="CorelCorpID_0Corel-Layer"/>
  <path class="fil0 str0" d="M1688 946l63 0c4,0 8,3 8,8l0 154c0,4 -4,8 -8,8l-63 0c-5,0 -9,-4 -9,-8l0 -154c0,-5 4,-8 9,-8zm-241 -49c-1,-14 -14,-28 -40,-30 -93,0 -168,75 -168,168 0,93 75,168 168,168 93,0 168,-75 168,-168 0,-93 -75,-168 -168,-168m40 390c-1,-14 -14,-27 -40,-29 -93,0 -168,75 -168,167 0,93 75,168 168,168 93,0 168,-75 168,-168 0,-92 -75,-167 -168,-167m40 392c-1,-14 -14,-27 -40,-29 -93,0 -168,75 -168,167 0,93 75,168 168,168 93,0 168,-75 168,-168 0,-92 -75,-167 -168,-167m-176 -776l572 0c24,0 43,20 43,43l0 1080c0,24 -19,43 -43,43l-572 0c-24,0 -43,-19 -43,-43l0 -1080c0,-23 19,-43 43,-43zm-23 -42l615 0c28,0 51,23 51,51l0 1138c0,28 -23,51 -51,51l-615 0c-28,0 -52,-23 -52,-51l0 -1138c0,-28 24,-51 52,-51zm98 4577c-33,-59 -106,-135 -150,-135 -142,0 -258,-117 -258,-259l0 -1775c0,-9 1,-16 6,-27l47 -101c5,-13 6,-17 6,-32l0 -1388c0,-17 -1,-23 -8,-35l-39 -65c-7,-13 -8,-19 -8,-37l-4 -588c-1,-142 116,-258 258,-258l1688 0c142,0 258,116 258,258l0 4048c0,142 -116,259 -258,259l-1850 0"/>
 </g>
</svg>
