<?xml version="1.0" encoding="UTF-8"?>
<!DOCTYPE svg PUBLIC "-//W3C//DTD SVG 1.1//EN" "http://www.w3.org/Graphics/SVG/1.1/DTD/svg11.dtd">
<!-- Creator: CorelDRAW X8 -->
<svg xmlns="http://www.w3.org/2000/svg" xml:space="preserve" width="40mm" height="60mm" version="1.1" style="shape-rendering:geometricPrecision; text-rendering:geometricPrecision; image-rendering:optimizeQuality; fill-rule:evenodd; clip-rule:evenodd"
viewBox="0 0 4000 6000"
 xmlns:xlink="http://www.w3.org/1999/xlink">
 <defs>
  <style type="text/css">
   <![CDATA[
    .str0 {stroke:#332C2B;stroke-width:10;stroke-linecap:round;stroke-linejoin:round}
    .fil0 {fill:none;fill-rule:nonzero}
   ]]>
  </style>
 </defs>
 <g id="图层_x0020_1">
  <metadata id="CorelCorpID_0Corel-Layer"/>
  <g id="_2929737839344">
   <g>
    <line class="fil0 str0" x1="3175" y1="650" x2="3175" y2= "682" />
    <polyline class="fil0 str0" points="825,2976 825,2986 826,2986 826,4988 830,4988 836,4981 836,4978 3185,4978 "/>
    <path class="fil0 str0" d="M3185 4978c0,-7 -3,-10 -10,-11 0,-1330 0,-2660 0,-3990 -1,-79 -13,-111 -67,-194"/>
    <polyline class="fil0 str0" points="3108,783 3108,783 3108,783 3107,783 3106,785 3101,781 3101,781 3100,782 "/>
    <path class="fil0 str0" d="M3100 782c0,1 -1,1 -1,2"/>
    <polyline class="fil0 str0" points="3099,784 3093,782 3093,787 3086,787 3086,791 3087,791 3081,795 3082,795 3082,796 3083,797 2945,918 2943,909 "/>
    <path class="fil0 str0" d="M2943 909c0,0 0,-2 0,-4"/>
    <polyline class="fil0 str0" points="2943,905 2948,900 2951,900 2959,901 2961,902 "/>
    <path class="fil0 str0" d="M2961 902c103,-111 115,-126 122,-154"/>
    <polyline class="fil0 str0" points="3083,748 3076,748 3075,749 "/>
    <path class="fil0 str0" d="M3075 749c-46,-41 -112,-67 -182,-71"/>
    <line class="fil0 str0" x1="2893" y1="678" x2="2027" y2= "668" />
    <path class="fil0 str0" d="M2027 668c-316,-3 -531,0 -828,15"/>
    <polyline class="fil0 str0" points="1199,683 1136,685 1097,685 "/>
    <path class="fil0 str0" d="M1097 685c-2,0 -4,0 -5,0 -48,0 -125,33 -159,69"/>
    <polyline class="fil0 str0" points="933,754 917,769 918,770 925,770 925,771 1055,918 1058,912 1058,905 1053,900 1046,899 1039,903 901,782 901,783 900,783 900,783 900,784 894,781 893,785 887,784 887,783 887,789 881,791 881,792 881,793 883,795 878,798 878,799 879,799 879,800 881,801 "/>
    <path class="fil0 str0" d="M881 801c-46,70 -55,101 -55,184"/>
    <line class="fil0 str0" x1="826" y1="985" x2="825" y2= "3018" />
    <polyline class="fil0 str0" points="978,5150 978,5161 984,5160 988,5157 "/>
    <path class="fil0 str0" d="M988 5157c1,-5 1,-6 1,-11"/>
    <polyline class="fil0 str0" points="989,5146 987,5142 1056,5080 "/>
    <path class="fil0 str0" d="M1056 5080c1,4 2,6 2,8 0,2 0,3 0,5"/>
    <line class="fil0 str0" x1="1058" y1="5093" x2="1053" y2= "5098" />
    <path class="fil0 str0" d="M1053 5098c-2,0 -4,0 -5,0 -2,0 -4,0 -8,-2 -107,112 -120,128 -126,155"/>
    <polyline class="fil0 str0" points="914,5251 922,5250 922,5251 "/>
    <path class="fil0 str0" d="M922 5251c37,32 53,42 88,57"/>
    <line class="fil0 str0" x1="1010" y1="5308" x2="1015" y2= "5310" />
    <path class="fil0 str0" d="M1015 5310c56,24 56,24 503,34"/>
    <line class="fil0 str0" x1="1518" y1="5344" x2="1556" y2= "5345" />
    <path class="fil0 str0" d="M1556 5345c157,3 303,5 449,5 214,0 435,-3 691,-10 215,-6 239,-9 295,-32 54,-22 81,-45 97,-77 -2,-1 -4,-1 -6,-1 -1,0 -1,0 -2,0"/>
    <line class="fil0 str0" x1="3080" y1="5230" x2="2946" y2= "5080" />
    <path class="fil0 str0" d="M2946 5080c4,-2 6,-2 8,-2 1,0 3,0 4,0"/>
    <line class="fil0 str0" x1="2958" y1="5078" x2="2963" y2= "5083" />
    <path class="fil0 str0" d="M2963 5083c0,2 0,3 0,4 0,3 0,4 -1,9"/>
    <polyline class="fil0 str0" points="2962,5096 3101,5220 3101,5219 3101,5219 3102,5218 3102,5217 3102,5218 3108,5221 "/>
    <path class="fil0 str0" d="M3108 5221c0,-1 0,-2 0,-3 0,-1 0,-1 0,-1"/>
    <polyline class="fil0 str0" points="3108,5217 3115,5218 3115,5213 3121,5211 3120,5210 3120,5209 3120,5208 3120,5207 3119,5207 3123,5204 3123,5203 3123,5202 3122,5202 3121,5201 "/>
    <path class="fil0 str0" d="M3121 5201c43,-65 54,-106 54,-200 0,-6 0,-12 0,-18 -6,0 -9,3 -10,11"/>
    <line class="fil0 str0" x1="3165" y1="4994" x2="815" y2= "4994" />
    <path class="fil0 str0" d="M815 4994c0,6 3,9 10,10 0,3 0,6 0,8 0,88 11,123 67,207"/>
    <polyline class="fil0 str0" points="892,5219 892,5219 893,5219 893,5218 894,5218 894,5217 899,5221 900,5220 "/>
    <path class="fil0 str0" d="M900 5220c0,-2 1,-3 1,-5"/>
    <polyline class="fil0 str0" points="901,5215 901,5218 908,5220 908,5215 914,5215 914,5212 913,5211 919,5207 918,5207 918,5206 917,5206 917,5205 1011,5121 "/>
    <polyline class="fil0 str0" points="1686,1419 1695,1411 1697,1413 "/>
    <path class="fil0 str0" d="M1697 1413c0,1 0,2 1,5 71,-6 123,-62 123,-133 0,-75 -61,-135 -135,-135 -75,0 -135,60 -135,135 0,75 62,137 136,134 9,0 17,-1 38,-4"/>
    <path class="fil0 str0" d="M2306 1415c80,-10 124,-54 124,-124 0,-69 -54,-124 -123,-124 -69,0 -124,55 -124,123 0,69 54,124 121,124 9,0 12,-1 39,-3"/>
    <line class="fil0 str0" x1="2125" y1="1288" x2="2136" y2= "1286" />
    <path class="fil0 str0" d="M2136 1286c-2,-6 -5,-8 -11,-10 0,-62 -9,-83 -41,-100 -16,-9 -39,-11 -94,-11 -91,0 -116,24 -116,115 0,41 2,62 7,77 4,15 12,25 29,37 16,11 31,14 74,14 44,0 64,0 78,-3 15,-3 24,-7 35,-16 22,-18 28,-37 28,-82"/>
    <line class="fil0 str0" x1="2125" y1="1307" x2="2125" y2= "1245" />
    <line class="fil0 str0" x1="2000" y1="1099" x2="2000" y2= "1088" />
    <path class="fil0 str0" d="M2000 1088c7,1 11,5 11,11"/>
    <line class="fil0 str0" x1="2011" y1="1099" x2="2162" y2= "1099" />
    <path class="fil0 str0" d="M2162 1099c180,0 180,0 197,5"/>
    <line class="fil0 str0" x1="2359" y1="1104" x2="2366" y2= "1107" />
    <path class="fil0 str0" d="M2366 1107c80,21 137,96 137,180 0,91 -67,169 -157,184"/>
    <line class="fil0 str0" x1="2346" y1="1471" x2="1700" y2= "1472" />
    <path class="fil0 str0" d="M1700 1472c-53,0 -73,-4 -108,-24 -57,-32 -93,-95 -93,-162 0,-97 76,-179 172,-186"/>
    <line class="fil0 str0" x1="1671" y1="1100" x2="2043" y2= "1099" />
    <polyline class="fil0 str0" points="2000,1074 2011,1074 2011,1073 2322,1075 "/>
    <path class="fil0 str0" d="M2322 1075c22,0 29,1 51,7 92,25 155,109 155,204 0,104 -77,194 -178,210"/>
    <line class="fil0 str0" x1="2350" y1="1496" x2="1699" y2= "1497" />
    <path class="fil0 str0" d="M1699 1497c-57,1 -81,-5 -120,-28 -65,-38 -106,-107 -106,-182 0,-111 87,-205 196,-212"/>
    <line class="fil0 str0" x1="1669" y1="1075" x2="2043" y2= "1074" />
    <polyline class="fil0 str0" points="2000,2151 2011,2151 2011,2150 "/>
    <path class="fil0 str0" d="M2011 2150c96,-3 172,-83 172,-180 0,-101 -83,-184 -183,-184 -101,0 -184,83 -184,184 0,99 82,182 179,182 12,0 23,-1 53,-5"/>
   </g>
  </g>
 </g>
</svg>
