<?xml version="1.0" encoding="UTF-8"?>
<!DOCTYPE svg PUBLIC "-//W3C//DTD SVG 1.1//EN" "http://www.w3.org/Graphics/SVG/1.1/DTD/svg11.dtd">
<!-- Creator: CorelDRAW X8 -->
<svg xmlns="http://www.w3.org/2000/svg" xml:space="preserve" width="40mm" height="60mm" version="1.1" style="shape-rendering:geometricPrecision; text-rendering:geometricPrecision; image-rendering:optimizeQuality; fill-rule:evenodd; clip-rule:evenodd"
viewBox="0 0 4000 6000"
 xmlns:xlink="http://www.w3.org/1999/xlink">
 <defs>
  <style type="text/css">
   <![CDATA[
    .str0 {stroke:#222222;stroke-width:20}
    .fil0 {fill:none}
   ]]>
  </style>
 </defs>
 <g id="图层_x0020_1">
  <metadata id="CorelCorpID_0Corel-Layer"/>
  <path class="fil0 str0" d="M953 5153l1855 0c131,0 239,-108 239,-239l0 -4025c0,-131 -108,-239 -239,-239l-351 0c-21,0 -31,2 -41,17 -10,16 -27,26 -47,26l-290 0 0 82c0,30 -25,55 -55,55l0 0c-30,0 -55,-25 -55,-55l0 -82 -290 0c-20,0 -37,-10 -47,-26 -10,-15 -27,-17 -42,-17l-354 0c-132,0 -239,108 -239,239l0 4025c0,131 107,239 239,239 131,0 292,100 292,197"/>
  <path class="fil0 str0" d="M-8378 6866l0 -6327c0,-455 -378,-827 -840,-827l-14122 0c-461,0 -839,372 -839,827l0 1211c0,75 7,108 61,143 54,35 89,95 89,163l0 1003 289 0c106,0 193,85 193,189l0 0c0,105 -87,190 -193,190l-289 0 0 1003c0,68 -35,128 -89,163 -54,35 -61,91 -61,143l0 1225c0,454 378,826 839,826l14122 0c462,0 840,-372 840,-826 0,-455 455,-895 741,-895"/>
 </g>
</svg>
