<?xml version="1.0" encoding="UTF-8"?>
<!DOCTYPE svg PUBLIC "-//W3C//DTD SVG 1.1//EN" "http://www.w3.org/Graphics/SVG/1.1/DTD/svg11.dtd">
<!-- Creator: CorelDRAW X8 -->
<svg xmlns="http://www.w3.org/2000/svg" xml:space="preserve" width="40mm" height="60mm" version="1.1" style="shape-rendering:geometricPrecision; text-rendering:geometricPrecision; image-rendering:optimizeQuality; fill-rule:evenodd; clip-rule:evenodd"
viewBox="0 0 4000 6000"
 xmlns:xlink="http://www.w3.org/1999/xlink">
 <defs>
  <style type="text/css">
   <![CDATA[
    .str0 {stroke:black;stroke-width:7.62;stroke-linejoin:bevel}
    .fil0 {fill:none}
   ]]>
  </style>
 </defs>
 <g id="图层_x0020_1">
  <metadata id="CorelCorpID_0Corel-Layer"/>
  <path class="fil0 str0" d="M3037 868c0,-58 -23,-114 -64,-154 -41,-41 -96,-64 -153,-64l-1640 0c-57,0 -113,23 -154,64 -40,41 -63,96 -63,154l0 4264c0,58 23,114 64,154 41,41 96,64 153,64l1640 0c57,0 113,-23 154,-64 40,-41 63,-96 63,-154l0 -4264zm-1772 -59c0,-49 -40,-89 -89,-89 -50,0 -90,40 -90,89 0,50 40,90 90,90 49,0 89,-40 89,-90z"/>
 </g>
</svg>
