<?xml version="1.0" encoding="UTF-8"?>
<!DOCTYPE svg PUBLIC "-//W3C//DTD SVG 1.1//EN" "http://www.w3.org/Graphics/SVG/1.1/DTD/svg11.dtd">
<!-- Creator: CorelDRAW 2020 (64-Bit) -->
<svg xmlns="http://www.w3.org/2000/svg" xml:space="preserve" width="40mm" height="60mm" version="1.1" style="shape-rendering:geometricPrecision; text-rendering:geometricPrecision; image-rendering:optimizeQuality; fill-rule:evenodd; clip-rule:evenodd"
viewBox="0 0 4000 6000"
 xmlns:xlink="http://www.w3.org/1999/xlink"
 xmlns:xodm="http://www.corel.com/coreldraw/odm/2003">
 <defs>
  <style type="text/css">
   <![CDATA[
    .str0 {stroke:black;stroke-width:7.62;stroke-miterlimit:22.9256}
    .fil0 {fill:none}
   ]]>
  </style>
 </defs>
 <g id="图层_x0020_1">
  <metadata id="CorelCorpID_0Corel-Layer"/>
  <path class="fil0 str0" d="M1390.65 5259.04c-3.98,-14.83 -12.07,-26.59 -48.52,-26.59l-31.18 0c-16.39,0 -29.79,13.4 -29.79,29.79l0 0c0,16.39 13.4,29.8 29.79,29.8l322.26 0c16.39,0 29.79,-13.41 29.79,-29.8l0 0c0,-16.39 -13.4,-29.79 -29.79,-29.79l-291.08 0m419.99 -3707.13c-0.15,-1.9 -1.82,-3.67 -5.29,-3.94 -12.34,0 -22.34,10.01 -22.34,22.35 0,12.34 10,22.35 22.34,22.35 12.34,0 22.35,-10.01 22.35,-22.35 0,-12.34 -10.01,-22.35 -22.35,-22.35m-411.19 -520.86l445.96 0c57.36,0 104.29,46.93 104.29,104.28l0 455.89c0,57.35 -46.93,104.28 -104.29,104.28l-445.96 0c-57.36,0 -104.28,-46.93 -104.28,-104.28l0 -455.89c0,-57.35 46.92,-104.28 104.28,-104.28zm-10.92 -20.86l467.8 0c65.55,0 119.18,53.63 119.18,119.18l0 467.8c0,65.56 -53.63,119.19 -119.18,119.19l-467.8 0c-65.55,0 -119.19,-53.63 -119.19,-119.19l0 -467.8c0,-65.55 53.64,-119.18 119.19,-119.18zm244.17 120.92c-0.14,-1.9 -1.81,-3.67 -5.28,-3.94 -12.34,0 -22.35,10.01 -22.35,22.35 0,12.34 10.01,22.35 22.35,22.35 12.34,0 22.35,-10.01 22.35,-22.35 0,-12.34 -10.01,-22.35 -22.35,-22.35m-165.77 176.3c-0.48,-6.32 -6.05,-12.23 -17.61,-13.13 -41.14,0 -74.49,33.35 -74.49,74.49 0,41.14 33.35,74.49 74.49,74.49 41.14,0 74.49,-33.35 74.49,-74.49 0,-41.14 -33.35,-74.49 -74.49,-74.49m199.14 222.27c-0.42,-5.69 -5.44,-11.01 -15.85,-11.82 -37.02,0 -67.04,30.02 -67.04,67.04 0,37.03 30.02,67.05 67.04,67.05 37.03,0 67.05,-30.02 67.05,-67.05 0,-37.02 -30.02,-67.04 -67.05,-67.04m193.23 -195.12c-0.42,-5.69 -5.44,-11.02 -15.85,-11.82 -37.02,0 -67.04,30.02 -67.04,67.04 0,37.03 30.02,67.04 67.04,67.04 37.03,0 67.05,-30.01 67.05,-67.04 0,-37.02 -30.02,-67.04 -67.05,-67.04m1329.38 613.51c-20.75,5.56 -37.22,16.9 -37.22,67.93l0 43.65c0,22.94 18.76,41.71 41.71,41.71l0 0c22.94,0 41.72,-18.77 41.72,-41.71l0 -349.86c0,-22.94 -18.77,-41.7 -41.72,-41.7l0 0c-22.95,0 -41.71,18.77 -41.71,41.7l0 306.21m-2121.76 47.55c-22.24,5.96 -39.89,18.1 -39.89,72.77l0 46.77c0,24.58 20.11,44.69 44.69,44.69l0.01 0c24.57,0 44.69,-20.11 44.69,-44.69l0 -218.94c0,-24.58 -20.11,-44.69 -44.69,-44.69l-0.01 0c-24.58,0 -44.69,20.11 -44.69,44.69l0 172.17m40.41 773.82c-22.23,5.96 -39.88,18.1 -39.88,72.77l0 46.77c0,24.58 20.1,44.69 44.69,44.69l0 0c24.57,0 44.76,-20.11 44.69,-44.69l-1.49 -516.9c-0.07,-24.59 -20.11,-44.69 -44.69,-44.69l-0.01 0c-24.58,0 -44.76,20.12 -44.69,44.69l1.5 470.13m1092.13 2316.83c-3.33,-12.41 -7.85,-21.51 -29.14,-21.51l-17.64 0c-24.59,0 -44.7,20.11 -44.7,44.69l0 0.01c0,24.56 20.11,44.69 44.7,44.69l148.98 0c24.58,0 44.69,-20.11 44.69,-44.69l0 -0.01c0,-24.58 -20.12,-44.69 -44.69,-44.69l-131.34 0m503.06 50.56c-3.97,-14.83 -12.07,-26.59 -48.52,-26.59l-31.18 0c-16.38,0 -29.79,13.4 -29.79,29.79l0 0c0,16.39 13.41,29.8 29.79,29.8l322.27 0c16.39,0 29.79,-13.41 29.79,-29.8l0 0c0,-16.39 -13.41,-29.79 -29.79,-29.79l-291.09 0m-1568.97 -89.53l366.49 0 0 -1.14c-92.9,-10.07 -166.65,-86.54 -172.44,-180.62l-200.01 0c-4.91,0 -8.94,-4.02 -8.94,-8.94l0 -3879.47c0,-4.91 4.02,-8.93 8.94,-8.93l199.63 0 0 -11.92c0,-107.39 121.86,-191.84 179.01,-191.84l-372.68 0c-8.19,0 -14.9,-6.7 -14.9,-14.89l0 -178.78c0,-8.2 6.7,-14.9 14.9,-14.9l2339 0c8.2,0 14.9,6.7 14.9,14.9l0 178.78c0,8.19 -6.7,14.89 -14.9,14.89l-360.84 0c93.11,6.13 167.17,96.27 167.17,191.84l0 11.92 199.63 0c4.92,0 8.94,4.02 8.94,8.93l0 3879.47c0,4.91 -4.03,8.94 -8.94,8.94l-200.01 0c-5.79,94.12 -79.6,170.62 -172.56,180.63l0 1.13 366.61 0c8.2,0 14.9,6.7 14.9,14.89l0 178.78c0,8.2 -6.7,14.9 -14.9,14.9l-2339 0c-8.2,0 -14.9,-6.7 -14.9,-14.9l0 -178.78c0,-8.19 6.7,-14.89 14.9,-14.89z"/>
 </g>
</svg>
