<?xml version="1.0" encoding="UTF-8"?>
<!DOCTYPE svg PUBLIC "-//W3C//DTD SVG 1.1//EN" "http://www.w3.org/Graphics/SVG/1.1/DTD/svg11.dtd">
<!-- Creator: CorelDRAW X8 -->
<svg xmlns="http://www.w3.org/2000/svg" xml:space="preserve" width="40mm" height="60mm" version="1.1" style="shape-rendering:geometricPrecision; text-rendering:geometricPrecision; image-rendering:optimizeQuality; fill-rule:evenodd; clip-rule:evenodd"
viewBox="0 0 4000 6000"
 xmlns:xlink="http://www.w3.org/1999/xlink">
 <defs>
  <style type="text/css">
   <![CDATA[
    .str0 {stroke:black;stroke-width:7.62}
    .fil0 {fill:none}
   ]]>
  </style>
 </defs>
 <g id="图层_x0020_1">
  <metadata id="CorelCorpID_0Corel-Layer"/>
  <path class="fil0 str0" d="M2452 704c0,-4 -4,-8 -12,-9 -29,0 -53,24 -53,53 0,29 24,52 53,52 29,0 52,-23 52,-52 0,-29 -23,-53 -52,-53m-522 43c-4,-17 -14,-30 -56,-30l-36 0c-19,0 -35,15 -35,34l0 0c0,19 16,35 35,35l340 0c19,0 34,-16 34,-35l0 0c0,-19 -16,-34 -34,-34l-304 0m-242 -4c-1,-4 -5,-8 -13,-9 -29,0 -53,24 -53,53 0,29 24,52 53,52 29,0 53,-23 53,-52 0,-29 -24,-53 -53,-53m-229 22c0,-3 -3,-6 -9,-7 -20,0 -37,17 -37,38 0,20 17,37 37,37 21,0 38,-17 38,-37 0,-21 -17,-38 -38,-38m-390 4571l1890 0c114,0 206,-92 206,-205l0 -4220c0,-113 -92,-206 -206,-206l-1738 0c-114,0 -206,93 -206,206l0 4220c0,113 92,205 206,205l34 0c33,0 73,46 95,69"/>
 </g>
</svg>
