<?xml version="1.0" encoding="UTF-8"?>
<!DOCTYPE svg PUBLIC "-//W3C//DTD SVG 1.1//EN" "http://www.w3.org/Graphics/SVG/1.1/DTD/svg11.dtd">
<!-- Creator: CorelDRAW X8 -->
<svg xmlns="http://www.w3.org/2000/svg" xml:space="preserve" width="40mm" height="60mm" version="1.1" style="shape-rendering:geometricPrecision; text-rendering:geometricPrecision; image-rendering:optimizeQuality; fill-rule:evenodd; clip-rule:evenodd"
viewBox="0 0 4000 6000"
 xmlns:xlink="http://www.w3.org/1999/xlink">
 <defs>
  <style type="text/css">
   <![CDATA[
    .str0 {stroke:#332C2B;stroke-width:7.62}
    .fil0 {fill:none}
   ]]>
  </style>
 </defs>
 <g id="图层_x0020_1">
  <metadata id="CorelCorpID_0Corel-Layer"/>
  <path class="fil0 str0" d="M2816 840c121,0 219,98 219,219l0 32 170 0 0 126 -118 0 0 602 118 0 0 3109 -170 0 0 12c0,120 -98,218 -219,218l379 0 0 192 -2415 0 0 -192 442 0c-121,0 -219,-98 -219,-218l0 -30 -200 0 0 -1972 141 0 0 -1241 -141 0 0 -623 200 0 0 -15c0,-121 98,-219 219,-219l-413 0 0 -190 2411 0 0 190 -404 0zm-1524 59l1443 0c110,0 200,90 200,200l0 670c0,110 -90,200 -200,200l-1443 0c-110,0 -200,-90 -200,-200l0 -670c0,-110 90,-200 200,-200zm-7 105l326 0c62,0 113,51 113,113l0 636c0,63 -51,114 -113,114l-326 0c-62,0 -113,-51 -113,-114l0 -636c0,-62 51,-113 113,-113zm1121 -315l143 0c34,0 62,27 62,61l0 0c0,34 -28,62 -62,62l-143 0c-34,0 -61,-28 -61,-62l0 0c0,-34 27,-61 61,-61zm-1061 4501l341 0c30,0 56,25 56,56l0 0c0,31 -26,56 -56,56l-341 0c-30,0 -55,-25 -55,-56l0 0c0,-31 25,-56 55,-56zm563 0l182 0c30,0 54,24 54,54l0 0c0,29 -24,54 -54,54l-182 0c-30,0 -54,-25 -54,-54l0 0c0,-30 24,-54 54,-54zm564 -3c30,0 54,24 54,54 0,30 -24,54 -54,54 -30,0 -54,-24 -54,-54 0,-30 24,-54 54,-54zm-1133 -4143c51,0 93,42 93,93 0,52 -42,94 -93,94 -52,0 -94,-42 -94,-94 0,-51 42,-93 94,-93zm450 -359c38,0 69,31 69,70 0,38 -31,69 -69,69 -39,0 -70,-31 -70,-69 0,-39 31,-70 70,-70zm-180 27c20,0 37,16 37,37 0,20 -17,36 -37,36 -20,0 -37,-16 -37,-36 0,-21 17,-37 37,-37zm-271 609c52,0 94,42 94,93 0,52 -42,94 -94,94 -51,0 -93,-42 -93,-94 0,-51 42,-93 93,-93zm-2 275c52,0 94,42 94,94 0,51 -42,93 -94,93 -51,0 -93,-42 -93,-93 0,-52 42,-94 93,-94zm268 -495l0 0c31,0 57,26 57,57l0 71c0,32 -26,57 -57,57l0 0c-31,0 -57,-25 -57,-57l0 -71c0,-31 26,-57 57,-57zm35 -140l1068 0c103,0 186,84 186,186l0 583c0,102 -83,186 -186,186l-1068 0c73,-5 131,-66 131,-140l0 -675c0,-74 -58,-135 -131,-140z"/>
 </g>
</svg>
