<?xml version="1.0" encoding="UTF-8"?>
<!DOCTYPE svg PUBLIC "-//W3C//DTD SVG 1.1//EN" "http://www.w3.org/Graphics/SVG/1.1/DTD/svg11.dtd">
<!-- Creator: CorelDRAW -->
<svg xmlns="http://www.w3.org/2000/svg" xml:space="preserve" width="40mm" height="60mm" style="shape-rendering:geometricPrecision; text-rendering:geometricPrecision; image-rendering:optimizeQuality; fill-rule:evenodd; clip-rule:evenodd"
viewBox="0 0 40 60"
 xmlns:xlink="http://www.w3.org/1999/xlink">
 <defs>
  <style type="text/css">
   <![CDATA[
    .str0 {stroke:#1F1A17;stroke-width:0.194}
    .fil0 {fill:none;fill-rule:nonzero}
   ]]>
  </style>
 </defs>
 <g id="图层_x0020_1">
  <metadata id="CorelCorpID_0Corel-Layer"/>
  <g id="_208151296">
   <line id="_206281336" class="fil0 str0" x1="15.081" y1="10.5689" x2="15.0366" y2= "10.644" />
   <path id="_206281168" class="fil0 str0" d="M15.0366 10.644c-0.0338,-0.0666 -0.0349,-0.0687 -0.0349,-0.0803 0,-0.0074 0.0011,-0.018 0.0043,-0.0465"/>
   <polyline id="_206281840" class="fil0 str0" points="15.006,10.5172 15.044,10.4875 15.0958,10.4791 "/>
   <path id="_206281312" class="fil0 str0" d="M15.0958 10.4791c-0.0105,-0.2865 -0.2315,-0.5138 -0.5001,-0.5138 -0.2981,0 -0.5434,0.2389 -0.5434,0.5286 0,0.2876 0.2358,0.5233 0.5244,0.5233 0.2812,0 0.5255,-0.2389 0.5255,-0.5138 0,-0.1787 -0.0571,-0.2569 -0.3204,-0.4356"/>
   <polyline id="_206281576" class="fil0 str0" points="14.7818,10.0678 14.7744,10.0752 14.7744,10.1122 "/>
   <path id="_206281696" class="fil0 str0" d="M14.7744 10.1122c-0.1374,0.018 -0.1903,0.0571 -0.4197,0.3003"/>
   <polyline id="_206281504" class="fil0 str0" points="20.9933,10.0974 20.933,10.1577 20.9182,10.1429 "/>
   <path id="_206280448" class="fil0 str0" d="M20.9182 10.1429c-0.0021,-0.0159 -0.0032,-0.0212 -0.0074,-0.0381"/>
   <polyline id="_206280400" class="fil0 str0" points="20.9108,10.1048 20.9034,10.0974 19.1568,10.0868 "/>
   <path id="_206280928" class="fil0 str0" d="M19.1568 10.0868c-0.5159,-0.0031 -0.7242,0.0127 -0.8511,0.0614 -0.1269,0.0497 -0.1681,0.1311 -0.1681,0.3319 0,0.1777 0.0825,0.2982 0.2315,0.3415 0.1417,0.0413 0.3912,0.0487 1.6325,0.0508 0.9727,0.0021 1.2623,-0.0021 1.4685,-0.019 0.1142,-0.0085 0.1882,-0.0223 0.24,-0.0423 0.0434,-0.0169 0.0709,-0.0381 0.11,-0.0804 0.0518,-0.056 0.0824,-0.1512 0.0824,-0.2527 0,-0.3351 -0.1564,-0.4039 -0.9325,-0.4039"/>
   <line id="_206280760" class="fil0 str0" x1="20.97" y1="10.0741" x2="20.8611" y2= "10.0741" />
   <path id="_206275600" class="fil0 str0" d="M20.8611 10.0741c-0.3457,-0.001 -0.4292,0.0074 -0.5402,0.0508 -0.1111,0.0433 -0.1904,0.0994 -0.5097,0.3626"/>
   <line id="_208157656" class="fil0 str0" x1="19.8112" y1="10.4875" x2="19.7119" y2= "10.5689" />
   <line id="_206284456" class="fil0 str0" x1="29.7136" y1="49.9047" x2="29.647" y2= "49.9576" />
   <path id="_169615104" class="fil0 str0" d="M29.647 49.9576c-0.0053,-0.0095 -0.0105,-0.0169 -0.0158,-0.0222"/>
   <polyline id="_46382536" class="fil0 str0" points="29.6312,49.9354 29.6312,49.9121 29.6238,49.9047 12.4135,49.9069 "/>
   <path id="_206286592" class="fil0 str0" d="M12.4135 49.9069c-1.0477,-0.0265 -1.8079,-0.6196 -2.0955,-1.6335 -0.0264,-0.0931 -0.0317,-0.1872 -0.0317,-0.5889"/>
   <line id="_206287552" class="fil0 str0" x1="10.2863" y1="47.6845" x2="10.2377" y2= "10.9136" />
   <path id="_206286568" class="fil0 str0" d="M10.2377 10.9136c0.0306,-0.7147 0.2611,-1.2423 0.7284,-1.6662 0.4356,-0.3965 0.8321,-0.5361 1.5225,-0.5371"/>
   <line id="_206286520" class="fil0 str0" x1="12.4886" y1="8.7103" x2="27.5589" y2= "8.7018" />
   <path id="_206286952" class="fil0 str0" d="M27.5589 8.7018c0.5265,0.0116 0.6481,0.0328 0.923,0.1565 0.6228,0.2812 1.051,0.7855 1.2487,1.4696 0.0264,0.0909 0.0317,0.1808 0.0317,0.5879"/>
   <line id="_206286616" class="fil0 str0" x1="29.7623" y1="10.9158" x2="29.7316" y2= "48.2544" />
   <path id="_206286928" class="fil0 str0" d="M29.7316 48.2544c-0.0433,0.2759 -0.3256,0.7802 -0.5804,1.0361 -0.3341,0.3341 -0.7105,0.5138 -1.2434,0.592 -0.6978,0.1026 -1.1609,0.5636 -1.4231,1.4157"/>
  </g>
 </g>
</svg>
