<?xml version="1.0" encoding="UTF-8"?>
<!DOCTYPE svg PUBLIC "-//W3C//DTD SVG 1.1//EN" "http://www.w3.org/Graphics/SVG/1.1/DTD/svg11.dtd">
<!-- Creator: CorelDRAW -->
<svg xmlns="http://www.w3.org/2000/svg" xml:space="preserve" width="40mm" height="60mm" style="shape-rendering:geometricPrecision; text-rendering:geometricPrecision; image-rendering:optimizeQuality; fill-rule:evenodd; clip-rule:evenodd"
viewBox="0 0 40 60"
 xmlns:xlink="http://www.w3.org/1999/xlink">
 <defs>
  <style type="text/css">
   <![CDATA[
    .str0 {stroke:#1F1A17;stroke-width:0.194}
    .fil0 {fill:none;fill-rule:nonzero}
   ]]>
  </style>
 </defs>
 <g id="图层_x0020_1">
  <metadata id="CorelCorpID_0Corel-Layer"/>
  <g id="_256195752">
   <line id="_256194864" class="fil0 str0" x1="22.534" y1="7.3077" x2="19.2092" y2= "7.3213" />
   <path id="_256922472" class="fil0 str0" d="M19.2092 7.3213c-0.7918,-0.0054 -1.0626,0.0097 -1.1716,0.0615 -0.1542,0.0733 -0.2502,0.233 -0.2502,0.4164 0,0.2341 0.1348,0.4099 0.3398,0.4455 0.1607,0.0281 1.4574,0.0486 2.9882,0.0486 1.493,0 2.7325,-0.0194 2.8944,-0.0475 0.2071,-0.0345 0.3484,-0.2114 0.3484,-0.438 0,-0.3064 -0.1683,-0.4563 -0.5372,-0.479 -0.2633,-0.0172 -0.753,-0.0211 -1.287,-0.0211"/>
   <polyline id="_226482224" class="fil0 str0" points="28.4354,53.4815 22.9849,53.4751 22.9547,53.4707 "/>
   <path id="_256197672" class="fil0 str0" d="M22.9547 53.4707c-0.2147,-0.0291 -0.2147,-0.0291 -0.2147,-1.6343"/>
   <line id="_256197528" class="fil0 str0" x1="22.74" y1="51.8364" x2="22.74" y2= "51.612" />
   <path id="_226484024" class="fil0 str0" d="M22.74 51.612c0,-0.0464 0,-0.0928 0,-0.1413 -0.0021,-0.6451 -0.4606,-1.1641 -1.0744,-1.2169 -0.1597,-0.014 -0.7627,-0.0238 -1.4866,-0.0238 -2.0119,0 -2.0885,0.013 -2.4574,0.4122 -0.3258,0.3538 -0.3323,0.398 -0.3312,2.219"/>
   <polyline id="_256198224" class="fil0 str0" points="17.3904,52.8612 17.3904,53.1978 17.3925,53.2604 "/>
   <path id="_256130832" class="fil0 str0" d="M17.3925 53.2604c0.0097,0.2395 0.0097,0.2395 -1.794,0.2395"/>
   <line id="_47033192" class="fil0 str0" x1="15.5985" y1="53.4999" x2="15.1292" y2= "53.4999" />
   <path id="_256195776" class="fil0 str0" d="M15.1292 53.4999c-1.7422,-0.0011 -3.4823,-0.0184 -3.6301,-0.0367 -1.4078,-0.1758 -2.4629,-1.2126 -2.6905,-2.642"/>
   <line id="_256921776" class="fil0 str0" x1="8.8086" y1="50.8212" x2="8.649" y2= "17.0552" />
   <path id="_226482584" class="fil0 str0" d="M8.649 17.0552c-0.0216,-4.4953 -0.0054,-6.1858 0.0668,-7.1578 0.0723,-0.973 0.2082,-1.4445 0.5739,-1.9979 0.5373,-0.8155 1.4316,-1.3366 2.3723,-1.3852"/>
   <line id="_226482008" class="fil0 str0" x1="11.662" y1="6.5143" x2="13.7937" y2= "6.5036" />
   <path id="_226481864" class="fil0 str0" d="M13.7937 6.5036c1.4801,-0.0087 1.7854,-0.0033 1.9364,0.0302 0.151,0.0345 0.1791,0.1035 0.1791,0.4369 0,0.0226 0,0.0464 0,0.0712"/>
   <line id="_226482272" class="fil0 str0" x1="15.9092" y1="7.0419" x2="15.9049" y2= "7.6665" />
   <path id="_226482296" class="fil0 str0" d="M15.9049 7.6665c-0.0022,0.4639 0.2244,0.7379 0.6127,0.7379 0.2082,0 0.4272,-0.1208 0.5286,-0.2923 0.0766,-0.1285 0.0853,-0.177 0.0831,-0.4801"/>
   <line id="_256195704" class="fil0 str0" x1="17.1293" y1="7.632" x2="17.1261" y2= "7.0818" />
   <path id="_226482368" class="fil0 str0" d="M17.1261 7.0818c0,-0.0162 0,-0.0313 0,-0.0464 0,-0.4973 0.0194,-0.5211 0.439,-0.5318"/>
   <line id="_226482392" class="fil0 str0" x1="17.5651" y1="6.5036" x2="22.9666" y2= "6.5036" />
   <path id="_226482440" class="fil0 str0" d="M22.9666 6.5036c3.218,-0.0011 2.4132,-0.0033 5.6323,0.0162 1.3711,0.138 2.4705,1.1672 2.7218,2.5459"/>
   <line id="_226482464" class="fil0 str0" x1="31.3207" y1="9.0657" x2="31.325" y2= "9.0873" />
   <path id="_226482512" class="fil0 str0" d="M31.325 9.0873c0.0356,0.1963 0.0356,0.1963 0.0345,0.5771"/>
   <line id="_226482536" class="fil0 str0" x1="31.3595" y1="9.6644" x2="31.3401" y2= "50.7975" />
   <path id="_226482560" class="fil0 str0" d="M31.3401 50.7975c0,0.2114 -0.1715,0.7465 -0.3398,1.0637 -0.4854,0.9094 -1.3841,1.5081 -2.3992,1.5977"/>
   <line id="_226481888" class="fil0 str0" x1="28.6011" y1="53.4589" x2="28.3076" y2= "53.4848" />
  </g>
 </g>
</svg>
