<?xml version="1.0" encoding="UTF-8"?>
<!DOCTYPE svg PUBLIC "-//W3C//DTD SVG 1.1//EN" "http://www.w3.org/Graphics/SVG/1.1/DTD/svg11.dtd">
<!-- Creator: CorelDRAW -->
<svg xmlns="http://www.w3.org/2000/svg" xml:space="preserve" width="40mm" height="60mm" style="shape-rendering:geometricPrecision; text-rendering:geometricPrecision; image-rendering:optimizeQuality; fill-rule:evenodd; clip-rule:evenodd"
viewBox="0 0 40 60"
 xmlns:xlink="http://www.w3.org/1999/xlink">
 <defs>
  <style type="text/css">
   <![CDATA[
    .str0 {stroke:#1F1A17;stroke-width:0.194}
    .fil0 {fill:none;fill-rule:nonzero}
   ]]>
  </style>
 </defs>
 <g id="图层_x0020_1">
  <metadata id="CorelCorpID_0Corel-Layer"/>
  <path class="fil0 str0" d="M31.1114 50.8902c0.0012,0.0121 0.0012,0.0253 0.0012,0.0386 0,0.7181 -0.6432,1.715 -1.3915,2.1554 -0.4501,0.2656 -0.6252,0.315 -1.4983,0.4158l-16.5899 -0.0054m19.4845 -44.412l0.0169 0.5057 -0.0519 40.8457 0.029 0.4562m-6.453 -44.3817c1.873,-0.0061 3.7195,0.0096 3.9017,0.0337 1.3445,0.1726 2.3425,1.1634 2.5573,2.5404m-8.7279 -2.5669l2.2689 -0.0072m-15.7928 3.0786c0.0857,-1.7234 1.2226,-2.9761 2.7782,-3.0606 0.2776,-0.0145 1.8839,-0.0265 3.5674,-0.0265 2.2641,0 2.6346,0.0085 2.8265,0.0676 0.1906,0.0591 0.2244,0.1749 0.2594,0.8858 0.0193,0.4248 0.0399,0.4296 1.622,0.4296 1.2045,0 1.5038,-0.012 1.6522,-0.0712 0.1485,-0.0579 0.1822,-0.175 0.1895,-0.6493 0.0072,-0.502 0.1291,-0.6275 0.6287,-0.6468m-13.4683 44.3214l-0.0556 -41.25m2.7673 43.9075c-1.3939,-0.0749 -2.6744,-1.33 -2.7117,-2.6575"/>
 </g>
</svg>
