<?xml version="1.0" encoding="UTF-8"?>
<!DOCTYPE svg PUBLIC "-//W3C//DTD SVG 1.1//EN" "http://www.w3.org/Graphics/SVG/1.1/DTD/svg11.dtd">
<!-- Creator: CorelDRAW X8 -->
<svg xmlns="http://www.w3.org/2000/svg" xml:space="preserve" width="40mm" height="60mm" version="1.1" style="shape-rendering:geometricPrecision; text-rendering:geometricPrecision; image-rendering:optimizeQuality; fill-rule:evenodd; clip-rule:evenodd"
viewBox="0 0 4000 6000"
 xmlns:xlink="http://www.w3.org/1999/xlink">
 <defs>
  <style type="text/css">
   <![CDATA[
    .fil0 {fill:black;fill-rule:nonzero}
   ]]>
  </style>
 </defs>
 <g id="图层_x0020_1">
  <metadata id="CorelCorpID_0Corel-Layer"/>
  <g>
   <path class="fil0" d="M1173 648c4,-4 10,-4 14,0 4,4 4,10 0,14l-14 -14zm-134 50l-1 -20 0 0 7 0 6 0 7 0 6 0 6 -1 5 0 6 -1 6 0 5 -1 5 0 5 -1 5 -1 5 -1 4 -1 5 0 4 -1 4 -1 4 -2 4 -1 4 -1 3 -1 4 -1 3 -2 3 -1 3 -1 3 -2 2 -1 3 -2 2 -1 2 -2 2 -2 2 -1 14 14 -3 2 -3 3 -2 2 -3 2 -4 2 -3 2 -3 1 -4 2 -3 2 -4 1 -4 2 -4 1 -4 1 -4 2 -5 1 -4 1 -5 1 -5 1 -5 1 -5 1 -5 1 -5 0 -6 1 -5 1 -6 0 -6 1 -6 0 -6 1 -7 0 -6 0 -7 0 -6 0 0 0zm0 0c-6,0 -10,-4 -10,-10 -1,-5 4,-10 9,-10l1 20zm-66 57l-20 -2 0 0 1 -6 1 -5 1 -5 1 -5 1 -4 1 -5 2 -4 1 -4 2 -3 2 -4 2 -3 3 -3 2 -3 3 -2 3 -3 3 -2 3 -2 3 -2 3 -1 4 -2 3 -1 3 -1 4 -1 3 -1 4 0 4 -1 3 0 4 -1 4 0 3 0 4 0 4 -1 1 20 -4 1 -3 0 -4 0 -3 0 -4 1 -3 0 -3 1 -3 0 -3 1 -2 0 -3 1 -2 1 -3 1 -2 1 -2 1 -2 2 -2 1 -2 1 -1 2 -2 2 -1 2 -2 2 -1 2 -2 3 -1 3 -1 3 -1 3 -1 4 -1 4 -1 4 0 5 -1 5 0 0zm0 0c0,5 -5,9 -10,9 -6,-1 -10,-5 -10,-11l20 2zm34 4535l-20 0 0 0 -1 -57 -2 -76 -1 -95 -1 -110 -2 -126 -1 -140 -1 -151 -2 -163 -1 -173 -2 -180 -1 -188 -1 -193 -2 -197 -1 -199 -2 -202 -1 -201 -1 -199 -1 -197 -2 -193 -1 -187 -1 -180 -1 -172 -1 -162 -1 -151 0 -138 -1 -125 -1 -110 0 -93 0 -75 0 -55 -1 -35 0 -14 20 2 0 12 1 35 0 55 0 75 0 93 1 110 1 125 0 138 1 151 1 162 1 172 1 180 1 187 2 193 1 197 1 199 1 201 2 201 1 200 2 197 1 193 1 188 2 180 1 173 2 162 1 152 1 140 2 126 1 110 1 94 2 77 1 57 0 0zm0 0c0,5 -4,10 -10,10 -5,0 -10,-4 -10,-10l20 0zm43 44l-2 20 0 0 -3 0 -3 0 -3 -1 -4 -1 -3 -1 -3 -1 -3 -1 -2 -1 -3 -1 -3 -2 -2 -1 -3 -2 -2 -2 -3 -1 -2 -2 -2 -3 -2 -2 -2 -2 -1 -2 -2 -3 -2 -3 -1 -2 -1 -3 -1 -3 -1 -2 -1 -3 -1 -3 -1 -3 0 -3 -1 -4 0 -3 0 -3 20 0 0 2 0 2 1 3 0 2 0 2 1 2 1 2 0 2 1 2 1 2 1 2 1 1 1 2 1 2 1 1 2 2 1 1 2 1 1 2 2 1 1 1 2 1 2 1 2 1 2 1 2 1 2 0 2 1 2 0 3 1 2 0 3 0 0 0zm0 0c5,1 9,5 9,11 0,5 -5,10 -11,9l2 -20zm1996 -13l0 20 0 0 -16 1 -25 0 -32 1 -39 0 -46 1 -52 1 -58 1 -63 1 -67 1 -71 1 -75 1 -78 1 -80 1 -82 1 -84 1 -84 1 -85 1 -84 1 -84 1 -83 0 -81 1 -79 1 -76 0 -72 0 -69 0 -65 0 -60 -1 -54 0 -48 -1 -43 -1 -35 -1 -28 -2 2 -20 27 2 35 1 42 1 48 1 55 0 59 1 65 0 69 0 72 0 76 0 79 -1 81 -1 82 0 84 -1 85 -1 85 -1 84 -1 84 -1 82 -1 80 -1 78 -1 74 -1 72 -1 67 -1 63 -1 57 -1 52 -1 46 -1 40 0 32 -1 25 0 16 -1 0 0zm0 0c6,0 10,5 10,10 0,6 -4,10 -10,10l0 -20zm3 -3l20 0 0 0 0 1 0 1 0 2 0 1 0 1 -1 1 0 1 0 1 -1 1 0 1 -1 1 -1 1 0 1 -1 1 -1 1 0 0 -1 1 -1 1 -1 1 -1 0 -1 1 -1 0 -1 1 -1 1 -1 0 -1 0 -1 1 -1 0 -1 0 -1 0 -1 0 -2 0 0 -20 0 0 0 0 1 0 0 0 0 0 0 0 0 0 0 0 1 0 0 0 0 0 0 0 0 0 0 0 0 0 0 -1 1 0 0 0 0 0 0 0 0 0 0 0 0 0 0 -1 0 0 0 0 0 0 0 0 0 0 0 -1 0 0 0 0 0 0zm0 0c0,-5 5,-10 10,-10 6,0 10,4 10,10l-20 0zm-4 -4623l20 0 0 0 0 32 0 54 0 74 0 94 0 110 0 127 0 142 0 154 1 167 0 176 0 185 0 193 0 198 1 202 0 206 0 207 0 206 0 206 1 202 0 197 0 192 0 185 0 175 1 165 0 154 0 140 0 125 0 110 0 91 0 72 0 52 0 30 -20 0 0 -30 0 -51 0 -73 0 -91 0 -110 0 -125 0 -140 0 -154 -1 -165 0 -175 0 -185 0 -191 0 -198 -1 -202 0 -206 0 -206 0 -207 0 -206 -1 -202 0 -198 0 -193 0 -185 0 -176 -1 -167 0 -154 0 -142 0 -127 0 -110 0 -94 0 -74 0 -54 0 -32 0 0zm0 0c0,-5 4,-10 10,-10 5,0 10,5 10,10l-20 0zm1 2l0 -20 0 0 1 0 1 0 1 0 1 0 1 0 0 0 1 1 1 0 1 0 1 1 1 0 0 1 1 0 1 1 1 0 0 1 1 1 0 0 1 1 1 1 0 1 0 0 1 1 0 1 1 1 0 1 0 1 0 0 1 2 0 0 0 1 0 1 -20 0 0 0 0 0 0 0 0 1 0 0 0 0 0 0 0 0 0 0 0 0 0 0 0 0 0 0 0 0 0 0 0 0 0 0 0 0 0 0 0 0 0 0 0 0 0 0 1 0 -1 0 1 0 0 1 0 -1 0 1 0 0 0 0 0 0 0 0zm0 0c-6,0 -10,-5 -10,-10 0,-6 4,-10 10,-10l0 20zm-1550 0l0 -20 0 0 45 -1 48 0 50 0 53 0 54 0 57 0 58 0 59 0 60 0 60 0 62 0 61 0 62 0 61 0 61 0 59 0 59 0 58 0 55 0 55 0 52 0 49 0 47 0 44 0 42 0 37 0 34 0 31 0 26 0 22 1 17 0 12 0 0 20 -12 0 -17 0 -22 -1 -26 0 -31 0 -34 0 -37 0 -42 0 -44 0 -47 0 -49 0 -52 0 -55 0 -55 0 -58 0 -59 0 -59 0 -61 0 -61 0 -62 0 -61 0 -62 0 -60 0 -60 0 -59 0 -58 0 -57 0 -54 0 -53 0 -50 0 -48 0 -45 1 0 0zm0 0c-5,0 -10,-5 -10,-10 0,-6 5,-10 10,-10l0 20zm-457 1l0 -20 -1 0 4 0 6 0 7 0 8 0 10 0 11 0 12 0 13 0 14 0 15 0 15 0 16 0 17 0 17 0 18 0 18 0 18 0 18 0 19 0 18 0 18 0 18 -1 18 0 17 0 17 0 16 0 16 0 14 0 14 0 13 0 12 0 11 0 0 20 -10 0 -13 0 -13 0 -14 0 -14 0 -16 0 -16 0 -17 0 -17 0 -18 0 -18 1 -18 0 -18 0 -19 0 -18 0 -18 0 -18 0 -18 0 -17 0 -17 0 -16 0 -15 0 -15 0 -14 0 -13 0 -12 0 -11 0 -9 0 -9 0 -7 0 -5 0 -4 0 0 0zm0 0c-6,1 -10,-4 -10,-9 -1,-6 4,-10 9,-11l1 20zm-106 -42l15 -12 2 2 2 2 2 2 2 2 2 1 2 2 2 2 3 1 2 2 2 2 3 1 2 1 3 2 2 1 3 1 3 1 3 1 3 1 3 1 3 1 3 1 3 1 3 0 3 1 4 1 3 0 4 0 3 1 4 0 4 0 4 0 4 0 0 20 -5 0 -4 0 -4 0 -4 0 -4 -1 -4 0 -4 -1 -4 0 -4 -1 -3 -1 -4 -1 -4 -1 -3 -1 -4 -1 -3 -1 -3 -1 -4 -1 -3 -2 -3 -1 -3 -2 -3 -2 -3 -1 -3 -2 -3 -2 -3 -2 -2 -2 -3 -2 -3 -3 -2 -2 -2 -2 -3 -3 -2 -3zm0 0c-4,-4 -3,-10 1,-14 4,-3 11,-3 14,2l-15 12z"/>
  </g>
 </g>
</svg>
