<?xml version="1.0" encoding="UTF-8"?>
<!DOCTYPE svg PUBLIC "-//W3C//DTD SVG 1.1//EN" "http://www.w3.org/Graphics/SVG/1.1/DTD/svg11.dtd">
<!-- Creator: CorelDRAW X8 -->
<svg xmlns="http://www.w3.org/2000/svg" xml:space="preserve" width="40mm" height="60mm" version="1.1" style="shape-rendering:geometricPrecision; text-rendering:geometricPrecision; image-rendering:optimizeQuality; fill-rule:evenodd; clip-rule:evenodd"
viewBox="0 0 4000 6000"
 xmlns:xlink="http://www.w3.org/1999/xlink">
 <defs>
  <style type="text/css">
   <![CDATA[
    .str0 {stroke:black;stroke-width:7.62}
    .fil0 {fill:none}
   ]]>
  </style>
 </defs>
 <g id="图层_x0020_1">
  <metadata id="CorelCorpID_0Corel-Layer"/>
  <path class="fil0 str0" d="M1207 777c-1,-5 -6,-10 -15,-11 -35,0 -64,28 -64,63 0,35 29,63 64,63 34,0 63,-28 63,-63 0,-35 -29,-63 -63,-63m-111 4571l1756 0c111,0 202,-90 202,-201l0 -4284c0,-111 -91,-202 -202,-202l-522 0c-3,0 -5,1 -6,3l-10 9c-2,2 -4,3 -7,3l-584 0c-3,0 -5,-1 -7,-3l-10 -9c-1,-2 -3,-3 -6,-3l-522 0c-111,0 -202,91 -202,202l0 4284c0,111 91,201 202,201l32 0c32,0 55,5 71,13"/>
 </g>
</svg>
