<?xml version="1.0" encoding="UTF-8"?>
<!DOCTYPE svg PUBLIC "-//W3C//DTD SVG 1.1//EN" "http://www.w3.org/Graphics/SVG/1.1/DTD/svg11.dtd">
<!-- Creator: CorelDRAW -->
<svg xmlns="http://www.w3.org/2000/svg" xml:space="preserve" width="40mm" height="60mm" style="shape-rendering:geometricPrecision; text-rendering:geometricPrecision; image-rendering:optimizeQuality; fill-rule:evenodd; clip-rule:evenodd"
viewBox="0 0 40 60"
 xmlns:xlink="http://www.w3.org/1999/xlink">
 <defs>
  <style type="text/css">
   <![CDATA[
    .str0 {stroke:#1F1A17;stroke-width:0.0762}
    .fil0 {fill:none}
   ]]>
  </style>
 </defs>
 <g id="图层_x0020_1">
  <metadata id="CorelCorpID_0Corel-Layer"/>
  <g id="_157864592">
   <path id="_157864616" class="fil0 str0" d="M7.8748 48.7585l0.1849 -19.5263 1.1544 0.0397 0.0227 -4.1332 -1.1638 -0.0105 0.0047 -1.4583 1.1725 0.0387 0.0462 -7.1462 -1.1605 -0.0134 0.0527 -5.6864 1.2853 0.0258 0.0005 -0.5811c0,0 0.0481,-0.8444 0.7398,-1.5049 0,0 0.739,-0.8263 1.9526,-0.738l-1.5372 -0.0957 -0.9047 0 -0.4206 -0.0112 -1.4462 0.2693 -0.3476 -1.2102 1.08 -0.262 0.932 -0.1218 0.9654 -0.1328 1.7819 0.0124 13.3898 0.2767 1.0504 0.0135 2.1545 0.0529 0.6084 0.0369c0,0 2.6336,0.3997 3.2441,0.5909l-0.2942 1.2872 -1.015 -0.2722c0,0 -1.1768,-0.2059 -1.3681,-0.125l-2.03 0.0073c0,0 1.2063,-0.1103 2.03,0.8017 0,0 0.4634,0.2648 0.7429,1.4196l0.0074 0.7428 1.2627 0.0105 -0.045 3.5542 -1.1277 -0.0301 -0.0254 5.4947 1.1254 0.0222 -0.1905 28.8319 -1.2459 -0.0213 0 0.4945c0,0 -0.0721,0.6919 -0.4678,1.2085 0,0 -0.4735,0.5866 -0.8137,0.749 0,0 -0.7176,0.3432 -1.1577,0.3469 0,0 1.369,0.0937 1.5676,0.0864 0,0 1.0104,0.0058 1.3062,-0.0864 0.2959,-0.0923 1.0726,-0.1993 1.0726,-0.1993l0.27 1.2213 -1.3426 0.2435 -0.8134 0.1154 -0.621 0.088 -0.4112 0.0254 -0.3846 -0.0093 -0.81 0.0056 -1.0357 -0.0406 0.0222 -0.6272 -0.0222 -0.428c0,0 -0.1944,-0.61 -0.6652,-0.5512l-0.1838 0c0,0 -0.3972,0.0295 -0.5884,0.5296l0 1.0665 -8.6961 -0.1724 0.0157 -0.8487c0,0 0.0059,-0.367 -0.4528,-0.5109l-3.5618 -0.0462c0,0 -0.355,0.0682 -0.4142,0.4612l-0.0259 0.8708 -1.7014 -0.0571 -0.8285 -0.0812 -1.1268 -0.1818 -1.3901 -0.3237 0.3678 -1.1915 1.2209 0.2942 0.662 0.0662 1.9858 -0.0588c0,0 -1.1473,0 -1.9196,-1.1107 0,0 -0.4119,-0.5442 -0.4561,-1.2062l0 -0.559 -1.269 -0.0311z"/>
   <g>
    <path id="_157864352" class="fil0 str0" d="M18.7703 52.3706l0 0c0,-0.2791 0.2284,-0.5075 0.5075,-0.5075l1.6696 0c0.2792,0 0.5075,0.2284 0.5075,0.5075l0 0c0,0.2792 -0.2283,0.5075 -0.5075,0.5075l-1.6696 0c-0.2791,0 -0.5075,-0.2283 -0.5075,-0.5075z"/>
    <path id="_157863968" class="fil0 str0" d="M21.9902 52.8169l0.0069 -0.6773c0.0007,-0.0725 0.0594,-0.1311 0.1302,-0.1304l2.1991 0.0236c0.0708,0.0007 0.1282,0.0606 0.1275,0.1331l-0.007 0.6773c-0.0007,0.0725 -0.0593,0.1312 -0.1302,0.1304l-2.199 -0.0235c-0.0709,-0.0008 -0.1283,-0.0607 -0.1275,-0.1332z"/>
    <path id="_157864016" class="fil0 str0" d="M12.1091 10.5754l0 -0.0001c0,-0.7478 0.6119,-1.3596 1.3597,-1.3596l0 0c0.7478,0 1.3597,0.6118 1.3597,1.3596l0 0.0001c0,0.7478 -0.6119,1.3596 -1.3597,1.3596l0 0c-0.7478,0 -1.3597,-0.6118 -1.3597,-1.3596z"/>
    <path id="_157864160" class="fil0 str0" d="M15.2665 10.6715l0 0c0,-0.3372 0.2758,-0.6131 0.613,-0.6131l0 0c0.3372,0 0.6131,0.2759 0.6131,0.6131l0 0c0,0.3372 -0.2759,0.613 -0.6131,0.613l0 0c-0.3372,0 -0.613,-0.2758 -0.613,-0.613z"/>
   </g>
  </g>
 </g>
</svg>
