<?xml version="1.0" encoding="UTF-8"?>
<!DOCTYPE svg PUBLIC "-//W3C//DTD SVG 1.1//EN" "http://www.w3.org/Graphics/SVG/1.1/DTD/svg11.dtd">
<!-- Creator: CorelDRAW -->
<svg xmlns="http://www.w3.org/2000/svg" xml:space="preserve" width="40mm" height="60mm" style="shape-rendering:geometricPrecision; text-rendering:geometricPrecision; image-rendering:optimizeQuality; fill-rule:evenodd; clip-rule:evenodd"
viewBox="0 0 40 60"
 xmlns:xlink="http://www.w3.org/1999/xlink">
 <defs>
  <style type="text/css">
   <![CDATA[
    .str0 {stroke:#1F1A17;stroke-width:0.194}
    .fil0 {fill:none;fill-rule:nonzero}
   ]]>
  </style>
 </defs>
 <g id="图层_x0020_1">
  <metadata id="CorelCorpID_0Corel-Layer"/>
  <path class="fil0 str0" d="M28.945 53.4988c-6.7855,0 -10.9247,0.0012 -17.709,0.0012 -1.5939,-0.04 -2.7083,-0.8224 -3.0474,-2.1378 -0.0606,-0.2338 -0.0618,-0.2508 -0.063,-0.7886m20.8649 2.9131l-0.4046 0.0121m3.0754 -2.2578c-0.2216,1.2016 -1.3615,2.1609 -2.6708,2.2457m2.7338 -2.5024l-0.0109 0.029 -0.0412 0.1708 -0.0109 0.0569m0.1902 -20.9582c0.0339,4.2963 0.0496,8.5927 0.0472,12.8889 -0.0036,5.3501 -0.0509,7.4504 -0.1744,7.8126m-0.046 -42.258l0.1732 21.5565m-2.6866 -23.7367c0.3113,0.0097 0.4009,0.0242 0.682,0.1126 0.9714,0.3053 1.5818,0.9945 1.8314,2.0676m-2.5134 -2.1802l-4.329 -0.0424 -0.155 0 -0.3004 0.3258 -0.0521 0.0775 -0.0509 0.0594 -8.6873 0.027 -0.2746 -0.3359 -0.1067 -0.1575 -4.3229 0.0473m-2.7822 23.7731c-0.0073,-6.9295 0,-13.8578 0.023,-20.7861 0.04,-1.1181 0.4179,-1.9429 1.1325,-2.4734 0.4445,-0.3307 0.9993,-0.5051 1.6267,-0.5136m-2.7604 44.0263l-0.0218 -20.2532"/>
 </g>
</svg>
