<?xml version="1.0" encoding="UTF-8"?>
<!DOCTYPE svg PUBLIC "-//W3C//DTD SVG 1.1//EN" "http://www.w3.org/Graphics/SVG/1.1/DTD/svg11.dtd">
<!-- Creator: CorelDRAW X8 -->
<svg xmlns="http://www.w3.org/2000/svg" xml:space="preserve" width="40mm" height="60mm" version="1.1" style="shape-rendering:geometricPrecision; text-rendering:geometricPrecision; image-rendering:optimizeQuality; fill-rule:evenodd; clip-rule:evenodd"
viewBox="0 0 4000 6000"
 xmlns:xlink="http://www.w3.org/1999/xlink">
 <defs>
  <style type="text/css">
   <![CDATA[
    .str0 {stroke:#332C2B;stroke-width:7.62;stroke-linejoin:bevel}
    .fil0 {fill:none}
   ]]>
  </style>
 </defs>
 <g id="图层_x0020_1">
  <metadata id="CorelCorpID_0Corel-Layer"/>
  <path class="fil0 str0" d="M628 3988l81 976c4,53 49,94 102,94l678 0 -102 -1352 0 -1420 100 -1336 -680 0c-54,0 -99,42 -103,95l-76 992 0 1951zm1690 1143c-21,0 -38,17 -38,38 0,21 17,38 38,38 21,0 37,-17 37,-38 0,-21 -16,-38 -37,-38zm-46 -635l0 -39 87 0 0 39 -87 0zm-2 -2988l0 40 88 0 0 -40 -88 0zm40 -710c-21,0 -37,17 -37,38 0,20 16,37 37,37 21,0 38,-17 38,-37 0,-21 -17,-38 -38,-38zm546 4470l0 -182c0,-4 2,-7 4,-9 2,-3 6,-4 9,-4l372 0c3,0 7,1 9,4 2,2 4,5 4,9l0 182c0,4 -2,7 -4,9 -2,3 -6,4 -9,4l-372 0c-3,0 -6,-1 -9,-4 -2,-2 -4,-5 -4,-9zm475 -298c0,20 -8,39 -22,53 -14,14 -34,22 -54,22l-387 0c-1,0 -2,-1 -2,-1 -1,-1 -1,-2 -1,-3l32 -92 325 0c3,0 6,-1 8,-3 3,-3 4,-6 4,-9l0 -931 93 -36c0,-1 2,-1 2,0 1,1 2,2 2,3l0 997zm117 -1255c-20,0 -37,17 -37,38 0,21 17,38 37,38 21,0 38,-17 38,-38 0,-21 -17,-38 -38,-38zm-1 -1508c-21,0 -38,17 -38,37 0,21 17,38 38,38 21,0 38,-17 38,-38 0,-20 -17,-37 -38,-37zm-591 -1481l0 183c0,3 2,6 4,9 3,2 6,4 9,4l372 0c3,-1 7,-2 9,-4 2,-3 4,-6 4,-9l0 -183c0,-3 -2,-6 -4,-9 -3,-2 -6,-3 -9,-3l-372 0c-3,0 -6,1 -9,3 -2,3 -4,6 -4,9zm471 1292l0 -995c0,-20 -8,-39 -22,-53 -14,-14 -33,-22 -53,-22l-387 0c-1,0 -2,0 -3,1 0,1 0,2 0,3l31 92 325 0c3,0 7,1 9,3 2,3 4,6 4,9l0 929 92 36c1,0 2,0 3,-1 1,0 1,-1 1,-2zm70 3036c4,13 1,27 -7,38 -8,11 -21,17 -35,17l-55 0c-5,1 -9,4 -9,9 -1,5 2,10 7,11 34,9 71,5 103,-11l88 215c2,4 2,8 -1,11 -2,4 -6,6 -10,6l-1048 0c-4,0 -7,0 -10,-1 -108,-31 -219,-48 -331,-51l-1525 0c-36,0 -66,-28 -69,-64l-106 -1250 145 0 0 -1953 -147 0 102 -1248c3,-36 33,-63 69,-63l1229 -7 0 189c0,4 1,7 4,9 2,3 5,4 9,4l145 0c3,0 7,-1 9,-4 2,-2 4,-5 4,-9l0 -190c0,-1 0,-2 1,-2 0,-1 1,-1 2,-1 85,10 171,6 255,-12 88,-19 176,-35 265,-47l991 0c2,0 4,1 5,3 1,2 1,4 0,6l-90 219c-1,2 -2,3 -4,2 -33,-11 -69,-10 -101,5 -4,1 -5,5 -4,9 2,4 4,6 8,5 19,-4 37,-7 56,-8 12,-2 23,2 32,10 9,7 14,18 14,30 0,21 2,41 5,62 0,3 3,6 7,6 4,-1 6,-3 7,-6 8,-34 5,-69 -9,-100 0,-2 0,-4 2,-4l195 -95c4,-3 9,-2 12,0 4,2 6,6 6,11l0 4390c0,5 -2,9 -6,11 -3,2 -8,3 -12,1l-186 -99c14,-36 13,-76 -3,-112 -4,-3 -9,-4 -13,-1 -5,2 -7,7 -6,12l10 47zm-2765 -4242c-21,0 -37,17 -37,38 0,21 16,38 37,38 21,0 38,-17 38,-38 0,-21 -17,-38 -38,-38zm7 4315c-21,0 -38,17 -38,37 0,21 17,38 38,38 20,0 37,-17 37,-38 0,-20 -17,-37 -37,-37z"/>
 </g>
</svg>
