<?xml version="1.0" encoding="UTF-8"?>
<!DOCTYPE svg PUBLIC "-//W3C//DTD SVG 1.1//EN" "http://www.w3.org/Graphics/SVG/1.1/DTD/svg11.dtd">
<!-- Creator: CorelDRAW X8 -->
<svg xmlns="http://www.w3.org/2000/svg" xml:space="preserve" width="40mm" height="60mm" version="1.1" style="shape-rendering:geometricPrecision; text-rendering:geometricPrecision; image-rendering:optimizeQuality; fill-rule:evenodd; clip-rule:evenodd"
viewBox="0 0 4000 6000"
 xmlns:xlink="http://www.w3.org/1999/xlink">
 <defs>
  <style type="text/css">
   <![CDATA[
    .str0 {stroke:black;stroke-width:7.62}
    .fil0 {fill:none}
   ]]>
  </style>
 </defs>
 <g id="图层_x0020_1">
  <metadata id="CorelCorpID_0Corel-Layer"/>
  <path class="fil0 str0" d="M964 5350l1887 0c124,0 226,-102 226,-226l0 -4248c0,-124 -102,-226 -226,-226l-1702 0c-124,0 -226,102 -226,226l0 4248c0,124 102,226 226,226l325 0m-241 -4558l498 0c74,0 135,61 135,136l0 858c0,75 -61,136 -135,136l-498 0c-74,0 -135,-61 -135,-136l0 -858c0,-75 61,-136 135,-136zm27 35l442 0c63,0 115,52 115,115l0 463c0,63 -52,115 -115,115l-442 0c-63,0 -115,-52 -115,-115l0 -463c0,-63 52,-115 115,-115zm-111 679c1,15 46,50 81,50l506 0c35,0 83,-30 83,-50l-5 251c-1,66 -42,121 -108,121l-446 0c-66,0 -112,-55 -112,-121l1 -251zm188 105c0,-11 -10,-21 -30,-23 -71,0 -128,58 -128,128 0,71 57,128 128,128 71,0 128,-57 128,-128 0,-70 -57,-128 -128,-128m690 -396c-23,6 -41,18 -41,74l0 47c0,25 21,45 45,45l0 0c25,0 46,-20 46,-45l0 -264c0,-25 -21,-45 -46,-45l0 0c-24,0 -45,20 -45,45l0 217m-619 -372c0,-10 -10,-21 -30,-22 -71,0 -128,57 -128,128 0,71 57,128 128,128 71,0 128,-57 128,-128 0,-71 -57,-128 -128,-128m374 22c-1,-10 -10,-21 -30,-22 -71,0 -128,57 -128,128 0,71 57,128 128,128 71,0 128,-57 128,-128 0,-71 -57,-128 -128,-128m-311 366c0,-11 -10,-21 -30,-22 -70,0 -128,57 -128,128 0,70 58,128 128,128 71,0 128,-58 128,-128 0,-71 -57,-128 -128,-128m374 22c-1,-11 -10,-21 -30,-22 -71,0 -128,57 -128,128 0,70 57,128 128,128 71,0 128,-58 128,-128 0,-71 -57,-128 -128,-128"/>
 </g>
</svg>
