<?xml version="1.0" encoding="UTF-8"?>
<!DOCTYPE svg PUBLIC "-//W3C//DTD SVG 1.1//EN" "http://www.w3.org/Graphics/SVG/1.1/DTD/svg11.dtd">
<!-- Creator: CorelDRAW 2020 (64-Bit) -->
<svg xmlns="http://www.w3.org/2000/svg" xml:space="preserve" width="40mm" height="60mm" version="1.1" style="shape-rendering:geometricPrecision; text-rendering:geometricPrecision; image-rendering:optimizeQuality; fill-rule:evenodd; clip-rule:evenodd"
viewBox="0 0 4000 6000"
 xmlns:xlink="http://www.w3.org/1999/xlink"
 xmlns:xodm="http://www.corel.com/coreldraw/odm/2003">
 <defs>
  <style type="text/css">
   <![CDATA[
    .str1 {stroke:#332C2B;stroke-width:20;stroke-miterlimit:22.9256}
    .str0 {stroke:#E62129;stroke-width:20;stroke-miterlimit:22.9256}
    .fil0 {fill:none}
   ]]>
  </style>
   <clipPath id="id0">
    <rect x="-37895.05" y="-1090.82" width="7117.64" height="8173.98"/>
   </clipPath>
 </defs>
 <g id="图层_x0020_1">
  <metadata id="CorelCorpID_0Corel-Layer"/>
  <g style="clip-path:url(#id0)">
   <image x="-37895.05" y="-1090.82" width="7117.64" height="8173.98" xlink:href="Watch A1 -11i（手表）_Images\Watch A1 -11i（手表）_ImgID1.png"/>
  </g>
  <circle class="fil0 str0" cx="-34408.67" cy="3068.54" r="2250"/>
  <circle class="fil0 str0" cx="-34408.67" cy="3068.54" r="1957.96"/>
  <path class="fil0 str1" d="M-16071.66 3556.68c0,-1081.35 -876.61,-1957.96 -1957.96,-1957.96 -1081.35,0 -1957.96,876.61 -1957.96,1957.96 0,1081.35 876.61,1957.96 1957.96,1957.96 1081.35,0 1957.96,-876.61 1957.96,-1957.96 0,-1081.35 -0.05,-1116.59 -0.05,-1116.59"/>
  <path class="fil0 str1" d="M-16071.66 -943.92c0,-1081.35 -876.61,-1957.96 -1957.96,-1957.96 -1081.35,0 -1957.96,876.61 -1957.96,1957.96 0,1081.35 876.61,1957.96 1957.96,1957.96 1081.35,0 1957.96,-876.61 1957.96,-1957.96 0,-1081.35 -0.05,-1116.59 -0.05,-1116.59"/>
  <path class="fil0 str1" d="M-11944.15 3556.68c0,-1081.35 -876.61,-1957.96 -1957.96,-1957.96 -1081.35,0 -1957.96,876.61 -1957.96,1957.96 0,1081.35 876.61,1957.96 1957.96,1957.96 1081.35,0 1957.96,-876.61 1957.96,-1957.96 0,-1081.35 -0.05,-1116.59 -0.05,-1116.59"/>
  <path class="fil0 str1" d="M-7816.64 3556.68c0,-1081.35 -876.61,-1957.96 -1957.96,-1957.96 -1081.35,0 -1957.96,876.61 -1957.96,1957.96 0,1081.35 876.61,1957.96 1957.96,1957.96 1081.35,0 1957.96,-876.61 1957.96,-1957.96 0,-1081.35 -0.05,-1116.59 -0.05,-1116.59"/>
  <path class="fil0 str1" d="M-11944.15 -943.92c0,-1081.35 -876.61,-1957.96 -1957.96,-1957.96 -1081.35,0 -1957.96,876.61 -1957.96,1957.96 0,1081.35 876.61,1957.96 1957.96,1957.96 1081.35,0 1957.96,-876.61 1957.96,-1957.96 0,-1081.35 -0.05,-1116.59 -0.05,-1116.59"/>
  <path class="fil0 str1" d="M-7816.64 -943.92c0,-1081.35 -876.61,-1957.96 -1957.96,-1957.96 -1081.35,0 -1957.96,876.61 -1957.96,1957.96 0,1081.35 876.61,1957.96 1957.96,1957.96 1081.35,0 1957.96,-876.61 1957.96,-1957.96 0,-1081.35 -0.05,-1116.59 -0.05,-1116.59"/>
  <g id="_2642230698960">
   <path class="fil0 str1" d="M1123.88 2162.72c417.58,0 756.1,-338.51 756.1,-756.09 0,-417.58 -338.52,-756.1 -756.1,-756.1 -417.58,0 -756.09,338.52 -756.09,756.1 0,417.58 338.51,756.09 756.09,756.09 417.58,0 431.19,-0.02 431.19,-0.02"/>
   <path class="fil0 str1" d="M2861.86 2162.72c417.58,0 756.09,-338.51 756.09,-756.09 0,-417.58 -338.51,-756.1 -756.09,-756.1 -417.58,0 -756.1,338.52 -756.1,756.1 0,417.58 338.52,756.09 756.1,756.09 417.58,0 431.19,-0.02 431.19,-0.02"/>
   <path class="fil0 str1" d="M1123.88 3756.63c417.58,0 756.1,-338.52 756.1,-756.1 0,-417.58 -338.52,-756.1 -756.1,-756.1 -417.58,0 -756.09,338.52 -756.09,756.1 0,417.58 338.51,756.1 756.09,756.1 417.58,0 431.19,-0.02 431.19,-0.02"/>
   <path class="fil0 str1" d="M1123.88 5350.53c417.58,0 756.1,-338.52 756.1,-756.1 0,-417.58 -338.52,-756.09 -756.1,-756.09 -417.58,0 -756.09,338.51 -756.09,756.09 0,417.58 338.51,756.1 756.09,756.1 417.58,0 431.19,-0.02 431.19,-0.02"/>
   <path class="fil0 str1" d="M2861.86 3756.63c417.58,0 756.09,-338.52 756.09,-756.1 0,-417.58 -338.51,-756.1 -756.09,-756.1 -417.58,0 -756.1,338.52 -756.1,756.1 0,417.58 338.52,756.1 756.1,756.1 417.58,0 431.19,-0.02 431.19,-0.02"/>
   <path class="fil0 str1" d="M2861.86 5350.53c417.58,0 756.09,-338.52 756.09,-756.1 0,-417.58 -338.51,-756.09 -756.09,-756.09 -417.58,0 -756.1,338.51 -756.1,756.09 0,417.58 338.52,756.1 756.1,756.1 417.58,0 431.19,-0.02 431.19,-0.02"/>
  </g>
 </g>
</svg>
