<?xml version="1.0" encoding="UTF-8"?>
<!DOCTYPE svg PUBLIC "-//W3C//DTD SVG 1.1//EN" "http://www.w3.org/Graphics/SVG/1.1/DTD/svg11.dtd">
<!-- Creator: CorelDRAW 2020 (64-Bit) -->
<svg xmlns="http://www.w3.org/2000/svg" xml:space="preserve" width="40mm" height="60mm" version="1.1" style="shape-rendering:geometricPrecision; text-rendering:geometricPrecision; image-rendering:optimizeQuality; fill-rule:evenodd; clip-rule:evenodd"
viewBox="0 0 4000 6000"
 xmlns:xlink="http://www.w3.org/1999/xlink"
 xmlns:xodm="http://www.corel.com/coreldraw/odm/2003">
 <defs>
  <style type="text/css">
   <![CDATA[
    .str0 {stroke:#222222;stroke-width:20;stroke-miterlimit:22.9256}
    .fil0 {fill:none}
   ]]>
  </style>
 </defs>
 <g id="图层_x0020_1">
  <metadata id="CorelCorpID_0Corel-Layer"/>
  <path class="fil0 str0" d="M-3598.12 4443.06c-401.29,0 -415.37,1212.64 -415.37,1516.16 0,303.52 -248.33,551.84 -551.86,551.84l-12654.65 0c-303.52,0 -551.85,-248.32 -551.85,-551.84l0 -5811.19c0,-303.52 248.33,-551.85 551.85,-551.85l12654.65 0c303.52,0 551.86,248.34 551.86,551.85l0 6604.94"/>
  <path class="fil0 str0" d="M-17218.95 3034.64c0,410.99 348.95,779.4 779.4,779.4 430.45,0 779.4,-369.74 779.4,-779.4 0,-409.66 -130.01,-568.98 -369.45,-681.65 -239.44,-112.67 -39.55,-252.91 -39.55,-434.02 0,-181.11 -163.38,-364.9 -364.9,-364.9 -201.52,0 -364.9,184.41 -364.9,364.9 0,180.49 204.38,312.65 39.35,414.95 -165.03,102.3 -459.35,289.73 -459.35,700.72 0,410.99 401.84,524.11 725.96,524.11"/>
  <g id="_2680521214928">
   <path class="fil0 str0" d="M1572.77 5355.67c0,-133.07 -402.11,-137.73 -502.76,-137.73 -100.65,0 -182.99,-82.35 -182.99,-183l0 -4196.28c0,-100.64 82.34,-182.99 182.99,-182.99l1926.99 0c100.65,0 182.99,82.35 182.99,182.99l0 4196.28c0,100.65 -82.35,183 -182.99,183l-2190.2 0"/>
   <path class="fil0 str0" d="M2039.8 839.01c-136.28,0 -258.45,115.71 -258.45,258.45 0,142.74 122.61,258.45 258.45,258.45 135.84,0 188.67,-43.11 226.04,-122.51 37.36,-79.4 83.86,-13.11 143.92,-13.11 60.05,0 121,-54.18 121,-121 0,-66.83 -61.15,-121.01 -121,-121.01 -59.85,0 -103.68,67.78 -137.6,13.05 -33.92,-54.72 -96.08,-152.32 -232.36,-152.32 -136.28,0 -173.79,133.25 -173.79,240.73"/>
  </g>
 </g>
</svg>
