<?xml version="1.0" encoding="UTF-8"?>
<!DOCTYPE svg PUBLIC "-//W3C//DTD SVG 1.1//EN" "http://www.w3.org/Graphics/SVG/1.1/DTD/svg11.dtd">
<!-- Creator: CorelDRAW X8 -->
<svg xmlns="http://www.w3.org/2000/svg" xml:space="preserve" width="40mm" height="60mm" version="1.1" style="shape-rendering:geometricPrecision; text-rendering:geometricPrecision; image-rendering:optimizeQuality; fill-rule:evenodd; clip-rule:evenodd"
viewBox="0 0 4000 6000"
 xmlns:xlink="http://www.w3.org/1999/xlink">
 <defs>
  <style type="text/css">
   <![CDATA[
    .str1 {stroke:#332C2B;stroke-width:20}
    .str0 {stroke:#332C2B;stroke-width:10}
    .fil0 {fill:none}
   ]]>
  </style>
 </defs>
 <g id="图层_x0020_1">
  <metadata id="CorelCorpID_0Corel-Layer"/>
  <g id="_1316101305248">
   <path class="fil0 str0" d="M980 5227l1822 0c120,0 218,-98 218,-218l0 -4141c0,-120 -98,-218 -218,-218l-1587 0c-120,0 -218,98 -218,218l0 4141c0,120 98,218 218,218 120,0 213,39 213,123"/>
   <rect class="fil0 str0" x="1069" y="746" width="678" height="978" rx="191" ry="195"/>
   <rect class="fil0 str0" x="1127" y="810" width="561" height="844" rx="136" ry="145"/>
   <circle class="fil0 str0" cx="1277" cy="953" r="106"/>
   <circle class="fil0 str0" cx="1277" cy="1232" r="106"/>
   <circle class="fil0 str0" cx="1277" cy="1509" r="106"/>
   <circle class="fil0 str0" cx="1541" cy="953" r="106"/>
   <path class="fil0 str0" d="M2119 1743c0,-113 -45,-196 -135,-196 -90,0 -163,73 -163,163l0 60c0,90 73,164 163,164l55 0c90,0 163,-74 163,-164l0 -60c0,-90 -73,-163 -163,-163l-55 0"/>
  </g>
  <path class="fil0 str1" d="M-777 6679l0 -6685c0,-440 -360,-800 -800,-800l-15202 0c-440,0 -800,360 -800,800l0 5823c0,440 360,800 800,800l15202 0c440,0 800,-360 800,-800 0,-440 142,-779 450,-779"/>
  <rect class="fil0 str1" transform="matrix(2.63332E-14 -0.994287 1.01497 2.68809E-14 -17228.9 6352.66)" width="2505" height="3537" rx="704" ry="704"/>
  <rect class="fil0 str1" transform="matrix(2.17555E-14 -0.821441 0.875938 2.31988E-14 -16991.8 6141.39)" width="2505" height="3537" rx="609" ry="609"/>
  <circle class="fil0 str1" transform="matrix(2.64845E-14 -1 1 2.64845E-14 -16465.8 5589.91)" r="390"/>
  <circle class="fil0 str1" transform="matrix(2.64845E-14 -1 1 2.64845E-14 -15443.9 5589.91)" r="390"/>
  <circle class="fil0 str1" transform="matrix(2.64845E-14 -1 1 2.64845E-14 -14425.3 5589.91)" r="390"/>
  <circle class="fil0 str1" transform="matrix(2.64845E-14 -1 1 2.64845E-14 -16465.8 4621.97)" r="390"/>
  <path class="fil0 str1" d="M-13568 2501c-413,0 -719,164 -719,494 0,330 270,600 600,600l220 0c330,0 600,-270 600,-600l0 -201c0,-330 -270,-600 -600,-600l-220 0c-330,0 -600,270 -600,600l0 201"/>
 </g>
</svg>
