<?xml version="1.0" encoding="UTF-8"?>
<!DOCTYPE svg PUBLIC "-//W3C//DTD SVG 1.1//EN" "http://www.w3.org/Graphics/SVG/1.1/DTD/svg11.dtd">
<!-- Creator: CorelDRAW -->
<svg xmlns="http://www.w3.org/2000/svg" xml:space="preserve" width="40mm" height="60mm" style="shape-rendering:geometricPrecision; text-rendering:geometricPrecision; image-rendering:optimizeQuality; fill-rule:evenodd; clip-rule:evenodd"
viewBox="0 0 40 60"
 xmlns:xlink="http://www.w3.org/1999/xlink">
 <defs>
  <style type="text/css">
   <![CDATA[
    .str0 {stroke:#1F1A17;stroke-width:0.194}
    .fil0 {fill:none;fill-rule:nonzero}
   ]]>
  </style>
 </defs>
 <g id="图层_x0020_1">
  <metadata id="CorelCorpID_0Corel-Layer"/>
  <g id="_157547984">
   <g>
    <line id="_157549376" class="fil0 str0" x1="31.1056" y1="6.5" x2="31.1056" y2= "6.8072" />
    <line id="_157549040" class="fil0 str0" x1="15.0717" y1="8.1306" x2="15.0717" y2= "8.2229" />
    <path id="_157548944" class="fil0 str0" d="M15.0717 8.2229c-0.0315,-0.0162 -0.0576,-0.0347 -0.0847,-0.0608"/>
    <polyline id="_157548800" class="fil0 str0" points="14.987,8.1621 14.987,8.1002 15.0185,8.0536 15.0641,8.0383 "/>
    <path id="_157549400" class="fil0 str0" d="M15.0641 8.0383c-0.0673,-0.3006 -0.2942,-0.4906 -0.5885,-0.4906 -0.3528,0 -0.6188,0.2594 -0.6188,0.6047 0,0.355 0.2617,0.6188 0.6134,0.6188 0.3409,0 0.6123,-0.2703 0.6123,-0.6091 0,-0.2508 -0.1411,-0.4494 -0.3192,-0.4494 -0.1107,0 -0.1878,0.0423 -0.4918,0.2725"/>
    <line id="_157548992" class="fil0 str0" x1="20.6497" y1="7.8006" x2="20.5802" y2= "7.8538" />
    <path id="_157548896" class="fil0 str0" d="M20.5802 7.8538c-0.0065,-0.0119 -0.0097,-0.0185 -0.0152,-0.0228"/>
    <polyline id="_157549304" class="fil0 str0" points="20.565,7.831 20.565,7.8082 20.5574,7.8006 18.6956,7.7898 "/>
    <path id="_157549832" class="fil0 str0" d="M18.6956 7.7898c-0.545,-0.0033 -0.7502,0.0097 -0.8772,0.0553 -0.127,0.0456 -0.1661,0.1205 -0.1661,0.3181"/>
    <line id="_157549856" class="fil0 str0" x1="17.6523" y1="8.1632" x2="17.6523" y2= "8.1817" />
    <path id="_157550216" class="fil0 str0" d="M17.6523 8.1817c0,0.1259 0.0076,0.1661 0.0391,0.2073 0.0401,0.0521 0.1215,0.0847 0.2692,0.1053 0.2606,0.038 0.5949,0.0456 2.1604,0.0456"/>
    <line id="_157549784" class="fil0 str0" x1="20.121" y1="8.5399" x2="20.2502" y2= "8.5399" />
    <path id="_157550000" class="fil0 str0" d="M20.2502 8.5399c1.0021,0 1.3104,-0.0119 1.5123,-0.0553 0.1118,-0.0239 0.1781,-0.0598 0.2139,-0.114 0.0293,-0.0456 0.0391,-0.101 0.0391,-0.2128 0,-0.3398 -0.1281,-0.3832 -1.1313,-0.3854"/>
    <line id="_157549976" class="fil0 str0" x1="20.8842" y1="7.7724" x2="20.6182" y2= "7.7724" />
    <path id="_157549880" class="fil0 str0" d="M20.6182 7.7724c-0.4679,-0.0011 -0.5775,0.0054 -0.7078,0.0402 -0.1302,0.0336 -0.2117,0.0781 -0.5265,0.2844"/>
    <line id="_157549592" class="fil0 str0" x1="19.3839" y1="8.097" x2="19.2037" y2= "8.2153" />
    <polyline id="_157549736" class="fil0 str0" points="21.1035,49.2844 21.0264,49.33 21.0264,49.3148 21.0189,49.3072 21.0189,49.292 21.0113,49.2844 19.4468,49.2834 "/>
    <path id="_157550048" class="fil0 str0" d="M19.4468 49.2834c-0.6492,0 -0.6492,0 -0.7675,0.0249"/>
    <line id="_157550672" class="fil0 str0" x1="18.6793" y1="49.3083" x2="18.6641" y2= "49.3116" />
    <path id="_157550888" class="fil0 str0" d="M18.6641 49.3116c-0.5982,0.127 -1.0314,0.6655 -1.0314,1.281 0,0.6612 0.5135,1.2323 1.1671,1.2985 0.1433,0.0141 0.6503,0.0239 1.2289,0.0239 0.5689,0 1.0618,-0.0098 1.2029,-0.0239 0.6634,-0.0652 1.1736,-0.6319 1.1736,-1.3017 0,-0.6221 -0.4342,-1.1508 -1.0476,-1.2778 -0.1357,-0.0282 -0.4343,-0.0489 -0.697,-0.05"/>
    <line id="_157550720" class="fil0 str0" x1="20.6606" y1="49.2616" x2="20.5542" y2= "49.2616" />
    <path id="_157550648" class="fil0 str0" d="M20.5542 49.2616c-0.2215,-0.0043 -0.2834,0.013 -0.4006,0.1162 -0.1173,0.1031 -0.2269,0.2367 -0.71,0.8598"/>
    <line id="_157550288" class="fil0 str0" x1="19.4436" y1="50.2376" x2="19.2113" y2= "50.5384" />
    <polyline id="_157550984" class="fil0 str0" points="30.0591,52.815 30.0048,52.8844 29.9668,52.815 11.527,52.8106 "/>
    <path id="_157550552" class="fil0 str0" d="M11.527 52.8106c-1.2724,-0.0651 -2.3624,-1.0856 -2.5665,-2.4047"/>
    <line id="_157550768" class="fil0 str0" x1="8.9605" y1="50.4059" x2="8.8943" y2= "9.4095" />
    <path id="_157550840" class="fil0 str0" d="M8.8943 9.4095c0.0869,-1.6773 1.2355,-2.8889 2.7391,-2.89"/>
    <line id="_157550384" class="fil0 str0" x1="11.6334" y1="6.5195" x2="28.6152" y2= "6.5043" />
    <path id="_157550432" class="fil0 str0" d="M28.6152 6.5043c1.2496,0.1086 2.333,1.1823 2.4774,2.4558"/>
    <polyline id="_157551344" class="fil0 str0" points="31.0926,8.9601 31.1035,9.4106 31.085,50.3636 "/>
    <path id="_157551752" class="fil0 str0" d="M31.085 50.3636c0,0.6861 -0.6101,1.6295 -1.3277,2.0551 -0.3572,0.2117 -0.7589,0.3409 -1.179,0.3767"/>
    <line id="_157551368" class="fil0 str0" x1="28.5783" y1="52.7954" x2="28.334" y2= "52.8226" />
    <path id="_157551632" class="fil0 str0" d="M28.334 52.8226c-0.3594,0.0629 -0.5385,0.2225 -0.76,0.6774"/>
   </g>
  </g>
 </g>
</svg>
