<?xml version="1.0" encoding="UTF-8"?>
<!DOCTYPE svg PUBLIC "-//W3C//DTD SVG 1.1//EN" "http://www.w3.org/Graphics/SVG/1.1/DTD/svg11.dtd">
<!-- Creator: CorelDRAW X8 -->
<svg xmlns="http://www.w3.org/2000/svg" xml:space="preserve" width="40mm" height="60mm" version="1.1" style="shape-rendering:geometricPrecision; text-rendering:geometricPrecision; image-rendering:optimizeQuality; fill-rule:evenodd; clip-rule:evenodd"
viewBox="0 0 4000 6000"
 xmlns:xlink="http://www.w3.org/1999/xlink">
 <defs>
  <style type="text/css">
   <![CDATA[
    .str0 {stroke:black;stroke-width:7.62;stroke-linejoin:bevel}
    .fil0 {fill:none}
   ]]>
  </style>
 </defs>
 <g id="图层_x0020_1">
  <metadata id="CorelCorpID_0Corel-Layer"/>
  <path class="fil0 str0" d="M-28736 10636c0,-146 261,-354 454,-354 193,0 350,-157 350,-350l0 -29739c0,-92 -37,-182 -103,-247 -65,-66 -154,-103 -247,-103l-20972 0c-93,0 -182,37 -248,103 -66,66 -102,155 -102,247l0 29739c0,93 37,182 102,247 66,66 155,103 248,103l21447 0"/>
  <path class="fil0 str0" d="M3522 5350c0,-22 40,-54 69,-54 29,0 53,-24 53,-53l0 -4540c0,-14 -5,-27 -15,-37 -10,-10 -24,-16 -38,-16l-3201 0c-14,0 -28,6 -38,16 -10,10 -16,23 -15,37l0 4540c0,14 5,27 15,37 10,10 24,16 38,16l3274 0"/>
 </g>
</svg>
