<?xml version="1.0" encoding="UTF-8"?>
<!DOCTYPE svg PUBLIC "-//W3C//DTD SVG 1.1//EN" "http://www.w3.org/Graphics/SVG/1.1/DTD/svg11.dtd">
<!-- Creator: CorelDRAW X8 -->
<svg xmlns="http://www.w3.org/2000/svg" xml:space="preserve" width="40mm" height="60mm" version="1.1" style="shape-rendering:geometricPrecision; text-rendering:geometricPrecision; image-rendering:optimizeQuality; fill-rule:evenodd; clip-rule:evenodd"
viewBox="0 0 4000 6000"
 xmlns:xlink="http://www.w3.org/1999/xlink">
 <defs>
  <style type="text/css">
   <![CDATA[
    .str0 {stroke:black;stroke-width:7.62}
    .fil0 {fill:none}
   ]]>
  </style>
 </defs>
 <g id="图层_x0020_1">
  <metadata id="CorelCorpID_0Corel-Layer"/>
  <path class="fil0 str0" d="M941 5350l1865 0c166,0 302,-136 302,-302l0 -4096c0,-166 -136,-302 -302,-302l-1612 0c-166,0 -267,136 -268,302l-34 4096c-1,166 136,302 302,302l273 0m1316 -4610c0,-5 -4,-10 -13,-10 -33,0 -59,26 -59,58 0,33 26,59 59,59 32,0 58,-26 58,-59 0,-32 -26,-58 -58,-58m-781 47c-5,-21 -17,-37 -68,-37l-44 0c-23,0 -42,19 -42,42l0 0c0,23 19,42 42,42l284 0c23,0 42,-19 42,-42l0 0c0,-23 -19,-42 -42,-42l-240 0m-253 20c-3,-14 -9,-24 -33,-24l-19 0c-28,0 -51,22 -51,50l0 0c0,28 23,50 51,50l87 0c28,0 50,-22 50,-50l0 0c0,-28 -22,-50 -50,-50l-68 0"/>
 </g>
</svg>
