<?xml version="1.0" encoding="UTF-8"?>
<!DOCTYPE svg PUBLIC "-//W3C//DTD SVG 1.1//EN" "http://www.w3.org/Graphics/SVG/1.1/DTD/svg11.dtd">
<!-- Creator: CorelDRAW X8 -->
<svg xmlns="http://www.w3.org/2000/svg" xml:space="preserve" width="40mm" height="60mm" version="1.1" style="shape-rendering:geometricPrecision; text-rendering:geometricPrecision; image-rendering:optimizeQuality; fill-rule:evenodd; clip-rule:evenodd"
viewBox="0 0 4000 6000"
 xmlns:xlink="http://www.w3.org/1999/xlink">
 <defs>
  <style type="text/css">
   <![CDATA[
    .fil0 {fill:#332C2B;fill-rule:nonzero}
   ]]>
  </style>
 </defs>
 <g id="Katman_x0020_1">
  <metadata id="CorelCorpID_0Corel-Layer"/>
  <g id="_2236827953008">
   <g>
    <path class="fil0" d="M715 764l0 -114 2 0 0 114 -1 2 -1 -2zm1 2l-1 -1 0 -1 1 2zm446 74l0 -3 0 3 -15 -4 -14 -3 -14 -3 -14 -4 -14 -3 -14 -3 -14 -3 -14 -3 -14 -3 -14 -2 -14 -3 -14 -3 -14 -2 -14 -3 -14 -2 -14 -3 -14 -2 -14 -2 -14 -2 -14 -2 -14 -2 -13 -2 -14 -2 -14 -2 -14 -2 -14 -1 -13 -2 -14 -1 -14 -2 -14 -1 -13 -1 -14 -1 0 -3 14 1 13 2 14 1 14 1 14 2 14 1 13 2 14 2 14 1 14 2 14 2 14 2 14 2 14 2 13 3 14 2 14 2 14 3 14 2 14 3 14 3 14 2 14 3 14 3 14 3 14 3 15 3 14 3 14 3 14 4 14 3 14 3 0 3zm0 -3l5 2 -5 1 0 -3zm-223 318l0 -2 -1 1 0 -16 0 -15 1 -15 2 -14 1 -15 3 -14 2 -13 3 -14 3 -13 4 -12 4 -12 5 -12 5 -12 5 -11 6 -11 7 -10 7 -10 7 -10 8 -9 8 -9 9 -8 10 -8 10 -7 10 -7 11 -7 12 -6 12 -6 12 -5 14 -5 13 -4 15 -4 15 -3 0 3 -15 3 -14 4 -14 4 -13 4 -12 6 -12 5 -12 6 -11 7 -10 7 -10 7 -9 8 -9 8 -8 9 -8 9 -7 9 -7 10 -7 10 -5 11 -6 11 -5 12 -5 11 -4 13 -3 12 -4 13 -3 13 -2 14 -2 14 -2 14 -1 14 -1 15 -1 15 0 16 -1 1zm1 -1l0 1 -1 0 1 -1zm-128 -1l127 0 0 2 -127 0 -1 -1 1 -1zm-1 1l0 -1 1 0 -1 1zm-8 3663l8 -3663 2 0 -7 3663 -2 1 -1 -1zm1 1l-1 0 0 -1 1 1zm149 0l-149 0 0 -2 149 0 1 1 -1 1zm0 -2l1 0 0 1 -1 -1zm222 318l-1 -3 1 3 -14 -2 -14 -3 -14 -3 -12 -3 -13 -4 -12 -4 -12 -5 -11 -6 -11 -5 -10 -7 -10 -6 -9 -8 -9 -8 -8 -8 -8 -9 -8 -9 -7 -10 -6 -11 -6 -11 -6 -11 -5 -12 -4 -13 -4 -13 -3 -14 -3 -15 -2 -15 -2 -15 -1 -16 -1 -17 0 -17 0 -18 1 -19 3 0 -1 19 -1 18 0 17 1 17 1 16 2 15 2 15 3 14 3 14 4 13 5 13 4 12 6 11 6 11 6 11 7 9 7 10 8 8 9 9 8 7 10 8 9 6 11 7 10 5 11 6 12 4 12 5 12 4 13 3 13 3 14 2 14 2 0 3zm0 -3l5 1 -5 2 0 -3zm-450 66l-2 0 1 -1 14 1 14 1 15 1 14 0 14 0 14 0 14 0 14 0 14 -1 14 -1 15 -1 14 -1 14 -1 14 -2 14 -2 14 -2 14 -2 14 -2 14 -3 14 -3 14 -2 14 -4 14 -3 14 -3 14 -4 14 -4 14 -4 14 -4 14 -4 14 -5 14 -5 14 -5 1 3 -14 5 -14 4 -14 5 -14 4 -14 4 -14 4 -14 4 -14 4 -14 3 -14 4 -14 3 -14 3 -14 3 -14 2 -15 3 -14 2 -14 2 -14 2 -14 1 -14 2 -14 1 -14 1 -15 1 -14 0 -14 1 -14 0 -14 0 -14 0 -15 -1 -14 -1 -14 -1 -14 -1 1 -1zm-2 0l0 -1 1 0 -1 1zm0 153l0 -153 2 0 0 153 -1 1 -1 -1zm1 1l-1 0 0 -1 1 1zm2560 0l-2560 0 0 -2 2560 0 1 1 -1 1zm1 -1l0 1 -1 0 1 -1zm0 -156l0 156 -2 0 0 -156 1 -1 1 1zm-1 -1l1 -1 0 2 -1 -1zm-469 -64l0 2 0 -2 14 5 15 5 14 4 14 5 15 4 14 4 14 4 15 3 14 4 15 3 14 3 15 3 14 3 15 2 15 2 14 3 15 1 15 2 14 2 15 1 15 1 15 1 14 1 15 1 15 0 15 0 15 0 15 0 15 -1 15 0 15 -1 15 -1 0 2 -15 1 -15 1 -15 1 -15 0 -15 0 -15 0 -15 0 -15 0 -15 -1 -15 0 -14 -1 -15 -1 -15 -2 -15 -1 -14 -2 -15 -2 -15 -2 -14 -3 -15 -2 -15 -3 -14 -3 -15 -3 -14 -3 -15 -3 -14 -4 -15 -4 -14 -4 -14 -4 -15 -4 -14 -5 -14 -5 -15 -5 1 -2zm-1 2l-5 -1 6 -1 -1 2zm240 -318l0 2 1 -1 2 18 1 17 0 17 0 16 -1 16 -1 15 -2 15 -2 14 -3 14 -4 13 -4 13 -4 12 -6 12 -5 11 -7 11 -7 10 -7 10 -9 9 -9 9 -9 8 -10 7 -11 8 -11 6 -12 6 -13 6 -13 5 -14 4 -14 4 -16 4 -15 3 -17 2 -17 2 0 -2 17 -2 16 -2 16 -3 15 -4 14 -4 14 -4 13 -5 13 -6 12 -6 11 -7 11 -7 9 -7 10 -8 9 -9 8 -9 7 -9 7 -10 7 -11 5 -11 5 -12 5 -12 4 -12 4 -14 2 -13 3 -14 2 -15 1 -15 0 -16 1 -16 -1 -17 -1 -17 -1 -18 1 -1zm-1 1l0 -1 1 0 -1 1zm142 1l-141 0 0 -2 141 0 2 1 -2 1zm2 -1l0 1 -2 0 2 -1zm0 -3670l0 3670 -3 0 0 -3670 1 -1 2 1zm-2 -1l2 0 0 1 -2 -1zm-150 0l150 0 0 3 -150 0 -1 -2 1 -1zm0 3l-1 0 0 -2 1 2zm-245 -312l0 2 0 -2 17 3 15 3 15 4 15 4 14 5 13 5 13 6 12 6 11 6 11 8 11 7 10 8 9 8 9 9 8 9 8 10 7 10 7 11 6 10 6 12 5 12 5 12 4 12 4 13 3 13 2 14 2 14 2 15 1 15 1 15 0 15 0 16 -2 0 0 -16 0 -15 -1 -15 -1 -15 -2 -14 -2 -14 -3 -14 -3 -13 -3 -13 -5 -13 -4 -12 -5 -11 -6 -11 -6 -11 -7 -11 -7 -10 -7 -9 -9 -9 -8 -9 -10 -8 -9 -8 -11 -7 -11 -7 -11 -7 -12 -6 -13 -6 -13 -5 -14 -5 -14 -4 -15 -4 -16 -3 -16 -3 0 -2zm0 2l-8 -1 8 -1 0 2zm476 -45l2 0 -1 1 -14 0 -15 1 -14 0 -15 1 -14 1 -15 0 -14 1 -15 1 -15 1 -14 1 -15 1 -15 1 -14 1 -15 2 -15 1 -15 1 -15 2 -15 1 -15 2 -15 1 -15 2 -15 2 -15 2 -15 1 -15 2 -16 2 -15 2 -15 2 -15 3 -16 2 -15 2 -16 2 0 -2 15 -2 16 -3 15 -2 16 -2 15 -2 15 -2 15 -2 15 -2 16 -2 15 -2 15 -1 15 -2 15 -2 15 -1 15 -2 15 -1 15 -2 15 -1 14 -1 15 -1 15 -1 15 -1 14 -1 15 -1 15 -1 14 -1 15 -1 14 0 15 -1 14 0 14 -1 15 0 -1 1zm2 0l0 1 -1 0 1 -1zm0 -141l0 141 -2 0 0 -141 1 -1 1 1zm-1 -1l1 0 0 1 -1 -1zm-2561 0l2561 0 0 2 -2561 0 -1 -1 1 -1zm-1 1l0 -1 1 0 -1 1z"/>
   </g>
   <g>
    <path class="fil0" d="M918 1651l0 0 0 0 0 0 0 1 0 -1zm-25 -24l2 0 0 0 0 1 0 1 1 2 0 1 0 1 0 1 1 1 0 1 1 1 0 1 1 1 0 1 1 1 1 0 0 1 1 1 1 1 1 0 0 1 1 1 1 0 1 1 1 0 1 1 1 0 1 0 1 1 1 0 1 0 1 0 2 0 1 1 0 2 -2 0 -1 0 -1 0 -1 -1 -1 0 -2 0 -1 -1 -1 0 -1 -1 -1 0 -1 -1 -1 0 -1 -1 -1 -1 -1 -1 -1 0 -1 -1 0 -1 -1 -1 -1 -1 0 -1 -1 -1 -1 -1 0 -1 -1 -1 0 -1 0 -2 -1 -1 0 -1 0 -1 0 -2 0 -1 0 0zm2 -224l0 224 -2 0 0 -224 0 0 2 0zm22 -25l1 2 0 0 -1 0 -2 0 -1 0 -1 1 -1 0 -1 0 -1 1 -1 0 -1 0 -1 1 -1 0 -1 1 -1 1 0 0 -1 1 -1 1 -1 1 0 0 -1 1 -1 1 0 1 -1 1 0 1 -1 1 0 1 -1 1 0 1 0 1 0 1 -1 1 0 1 0 2 -2 0 0 -2 0 -1 0 -1 0 -1 1 -2 0 -1 0 -1 1 -1 0 -1 1 -1 1 -1 0 -1 1 -1 1 -1 0 -1 1 -1 1 -1 1 -1 1 0 1 -1 1 -1 1 0 1 -1 1 0 1 -1 1 0 2 0 1 -1 1 0 1 0 1 0 2 0 -1 0zm1 2l0 0 0 0 0 0zm0 0l0 0 -1 -2 0 0 1 0 0 2zm-1 -2l0 0 1 0 -1 0zm26 25l-3 0 0 0 0 -2 0 -1 0 -1 0 -1 -1 -1 0 -1 0 -1 -1 -1 0 -1 -1 -1 0 -1 -1 -1 0 -1 -1 -1 -1 0 0 -1 -1 -1 -1 -1 -1 0 -1 -1 -1 -1 -1 0 -1 -1 -1 0 -1 0 -1 -1 -1 0 -1 0 -1 -1 -1 0 -1 0 -1 0 0 -2 1 0 1 0 2 0 1 0 1 1 1 0 1 0 1 1 1 0 2 1 1 0 1 1 1 1 0 0 1 1 1 1 1 1 1 1 1 1 0 1 1 1 1 1 0 1 1 1 0 1 0 1 1 1 0 2 0 1 0 1 0 1 1 2 0 0zm-3 224l0 -224 3 0 0 224 0 0 -3 0zm-22 25l0 -2 0 0 1 -1 1 0 1 0 1 0 1 0 1 -1 1 0 1 0 1 -1 1 0 1 -1 1 0 1 -1 1 -1 1 0 1 -1 0 -1 1 -1 1 0 0 -1 1 -1 0 -1 1 -1 0 -1 1 -1 0 -1 0 -1 1 -1 0 -1 0 -2 0 -1 0 -1 3 0 -1 1 0 2 0 1 0 1 0 1 -1 1 0 2 0 1 -1 1 0 1 -1 1 -1 1 0 1 -1 1 -1 1 -1 1 -1 0 -1 1 0 1 -1 1 -1 0 -1 1 -2 0 -1 1 -1 0 -1 1 -1 0 -1 0 -1 1 -2 0 -1 0 -1 0 0 0z"/>
   </g>
   <g>
    <path class="fil0" d="M904 2378l0 0 0 0 0 0 0 1 0 -1zm0 -2l0 0 0 0 0 0zm-30 -27l2 0 0 0 0 1 0 2 0 1 1 1 0 2 0 1 1 1 0 1 1 2 0 1 1 1 1 1 1 1 0 1 1 1 1 1 1 1 1 1 1 1 1 1 1 0 2 1 1 1 1 0 1 1 2 0 1 1 1 0 2 0 1 0 1 0 2 0 0 3 -2 0 -1 0 -2 0 -1 -1 -2 0 -1 0 -2 -1 -1 -1 -1 0 -2 -1 -1 -1 -1 0 -1 -1 -1 -1 -1 -1 -1 -1 -1 -1 -1 -1 -1 -1 -1 -1 -1 -2 -1 -1 0 -1 -1 -2 -1 -1 0 -1 0 -2 -1 -1 0 -2 0 -1 0 -2 0 -1 0 0zm2 -226l0 226 -2 0 0 -226 0 0 2 0zm27 -30l1 2 0 0 -2 0 -1 0 -1 0 -2 1 -1 0 -1 0 -2 1 -1 0 -1 1 -1 0 -2 1 -1 1 -1 1 -1 0 -1 1 -1 1 -1 1 -1 1 0 1 -1 1 -1 2 -1 1 0 1 -1 1 0 1 -1 2 0 1 0 1 -1 2 0 1 0 1 0 2 -2 0 0 -2 0 -1 0 -2 0 -1 1 -2 0 -1 0 -1 1 -2 1 -1 0 -1 1 -2 1 -1 1 -1 1 -1 1 -1 1 -1 1 -1 1 -1 1 -1 1 -1 1 -1 1 -1 2 0 1 -1 1 0 2 -1 1 0 2 -1 1 0 2 0 1 0 2 0 -1 0zm1 2l0 0 0 0 0 0zm0 0l0 0 -1 -2 0 0 1 0 0 2zm-1 -2l1 0 0 0 -1 0zm31 30l-2 0 0 0 0 -2 -1 -1 0 -1 0 -2 0 -1 -1 -1 0 -2 -1 -1 0 -1 -1 -1 0 -1 -1 -2 -1 -1 -1 -1 -1 -1 -1 -1 -1 -1 -1 -1 -1 0 -1 -1 -1 -1 -1 -1 -1 0 -1 -1 -2 0 -1 -1 -1 0 -2 0 -1 -1 -1 0 -2 0 -1 0 0 -2 1 0 2 0 1 0 2 0 1 1 2 0 1 1 2 0 1 1 1 0 1 1 2 1 1 1 1 1 1 1 1 1 1 1 1 1 1 1 1 1 1 1 0 2 1 1 1 1 0 2 1 1 0 1 0 2 1 1 0 2 0 1 0 2 0 0zm-2 226l0 -226 2 0 0 226 0 0 -2 0zm-28 30l0 -3 0 0 1 0 2 0 1 0 1 0 2 0 1 -1 1 0 2 -1 1 0 1 -1 1 -1 1 0 1 -1 1 -1 1 -1 1 -1 1 -1 1 -1 1 -1 1 -1 1 -1 0 -1 1 -1 0 -2 1 -1 0 -1 1 -1 0 -2 0 -1 0 -1 1 -2 0 -1 2 0 0 1 0 2 0 1 -1 2 0 1 0 2 -1 1 0 1 -1 2 -1 1 0 1 -1 2 -1 1 -1 1 -1 1 -1 1 -1 1 -1 1 -1 1 -1 1 -2 0 -1 1 -1 1 -1 0 -2 1 -1 1 -2 0 -1 0 -2 1 -1 0 -2 0 -1 0 0 0zm0 -3l0 0 0 0 0 0z"/>
   </g>
   <g>
    <path class="fil0" d="M3105 3449l0 0 0 0 0 0 0 1 0 -1zm-46 -45l3 0 0 0 0 2 0 3 0 2 1 2 0 2 1 2 0 2 1 2 1 2 1 2 1 2 1 1 1 2 2 2 1 1 2 2 1 1 2 2 1 1 2 1 2 1 2 1 2 1 1 1 2 1 2 1 2 0 3 1 2 0 2 0 2 1 2 0 0 2 -2 0 -2 0 -3 -1 -2 0 -2 0 -2 -1 -2 -1 -3 -1 -2 -1 -2 -1 -1 -1 -2 -1 -2 -1 -2 -1 -2 -2 -1 -1 -2 -2 -1 -2 -1 -1 -2 -2 -1 -2 -1 -2 -1 -2 -1 -2 -1 -2 -1 -2 0 -2 -1 -3 0 -2 0 -2 -1 -2 0 -3 0 0zm3 -381l0 381 -3 0 0 -381 3 0zm42 -46l2 2 -1 0 -2 0 -2 0 -2 1 -2 0 -3 0 -2 1 -2 1 -2 0 -2 1 -1 1 -2 1 -2 2 -2 1 -1 1 -2 1 -1 2 -2 1 -1 2 -2 2 -1 1 -1 2 -1 2 -1 2 -1 2 -1 2 0 2 -1 2 0 2 -1 2 0 2 0 2 0 3 -3 0 0 -3 1 -2 0 -2 0 -3 1 -2 0 -2 1 -2 1 -2 1 -2 1 -2 1 -2 1 -2 2 -2 1 -2 1 -1 2 -2 1 -1 2 -2 2 -1 2 -1 2 -2 1 -1 2 -1 2 -1 3 -1 2 0 2 -1 2 0 2 -1 3 0 2 0 2 0 -1 0zm2 2l0 0 -1 0 1 0zm0 0l0 0 -2 -2 1 0 0 0 1 2zm-1 -2l0 0 0 0 0 0zm46 46l-2 0 0 0 0 -3 0 -2 -1 -2 0 -2 -1 -2 0 -2 -1 -2 -1 -2 -1 -2 0 -2 -2 -2 -1 -2 -1 -1 -1 -2 -2 -2 -1 -1 -1 -2 -2 -1 -2 -1 -1 -1 -2 -2 -2 -1 -2 -1 -2 -1 -2 0 -2 -1 -2 -1 -2 0 -2 0 -2 -1 -2 0 -3 0 0 -2 3 0 2 0 2 0 3 1 2 0 2 1 2 0 2 1 2 1 2 1 2 1 2 2 2 1 1 1 2 2 2 1 1 2 2 1 1 2 1 2 2 2 1 2 1 2 1 2 0 2 1 2 1 2 0 2 1 3 0 2 0 2 0 3 0 0zm-2 381l0 -381 2 0 0 381 0 0 -2 0zm-44 46l0 -2 0 0 3 0 2 -1 2 0 2 0 2 -1 2 0 2 -1 2 -1 2 -1 2 -1 2 -1 2 -1 1 -1 2 -1 1 -2 2 -1 1 -2 2 -1 1 -2 1 -2 1 -1 2 -2 0 -2 1 -2 1 -2 1 -2 0 -2 1 -2 0 -2 1 -2 0 -3 0 -2 2 0 0 2 0 3 0 2 -1 2 0 3 -1 2 -1 2 0 2 -1 2 -1 2 -1 2 -2 2 -1 2 -1 1 -2 2 -1 2 -2 1 -2 2 -1 1 -2 1 -2 1 -2 1 -2 1 -2 1 -2 1 -2 1 -2 1 -2 0 -3 0 -2 1 -2 0 -3 0 0 0z"/>
   </g>
   <g>
    <path class="fil0" d="M3106 4501l0 0 0 0 0 0 0 1 0 -1zm-43 -42l2 0 0 0 1 2 0 2 0 2 0 2 1 2 0 2 1 2 1 2 0 1 1 2 1 2 1 2 2 1 1 2 1 1 1 2 2 1 1 1 2 1 1 2 2 1 2 1 1 0 2 1 2 1 2 1 2 0 2 1 2 0 2 0 2 0 2 0 0 3 -2 0 -2 0 -3 -1 -2 0 -2 -1 -2 0 -2 -1 -2 -1 -2 0 -1 -1 -2 -1 -2 -1 -2 -2 -1 -1 -2 -1 -1 -2 -2 -1 -1 -2 -1 -1 -2 -2 -1 -2 -1 -2 -1 -1 -1 -2 0 -2 -1 -2 -1 -2 0 -2 0 -3 -1 -2 0 -2 0 -2 0 0zm2 -758l0 758 -2 0 0 -758 2 0zm40 -42l2 0 -1 1 -2 0 -2 0 -2 1 -2 0 -2 0 -2 1 -2 1 -2 0 -2 1 -1 1 -2 1 -2 1 -1 1 -2 1 -1 2 -2 1 -1 1 -1 2 -1 1 -2 2 -1 2 -1 1 -1 2 0 2 -1 2 -1 2 0 2 -1 1 0 2 0 2 0 3 -1 2 -2 0 0 -3 0 -2 1 -2 0 -2 0 -2 1 -2 1 -2 0 -2 1 -2 1 -2 1 -2 1 -1 2 -2 1 -2 1 -1 2 -2 1 -1 2 -1 1 -2 2 -1 2 -1 2 -1 1 -1 2 -1 2 -1 2 0 2 -1 2 0 2 -1 3 0 2 0 2 0 -1 1zm2 0l0 1 -1 0 1 -1zm0 0l0 0 -2 0 0 0 1 -1 1 1zm-2 0l0 -1 1 0 -1 1zm44 42l-3 0 0 0 0 -2 0 -3 0 -2 0 -2 -1 -1 0 -2 -1 -2 -1 -2 -1 -2 -1 -2 -1 -1 -1 -2 -1 -2 -1 -1 -1 -2 -2 -1 -1 -1 -1 -2 -2 -1 -2 -1 -1 -1 -2 -1 -2 -1 -1 -1 -2 0 -2 -1 -2 -1 -2 0 -2 0 -2 -1 -2 0 -2 0 0 -2 2 0 2 0 2 0 3 1 2 0 2 1 2 0 2 1 1 1 2 1 2 1 2 1 2 1 1 2 2 1 1 1 2 2 1 1 1 2 1 2 2 1 1 2 1 2 0 2 1 2 1 2 0 2 1 2 0 2 1 2 0 2 0 3 0 0zm-3 758l0 -758 3 0 0 758 0 0 -3 0zm-40 43l0 -3 0 0 2 0 2 0 2 0 2 0 2 -1 2 0 2 -1 2 -1 1 -1 2 0 2 -1 1 -1 2 -2 2 -1 1 -1 1 -1 2 -2 1 -1 1 -2 1 -1 1 -2 1 -2 1 -2 1 -1 1 -2 1 -2 0 -2 1 -2 0 -2 0 -2 0 -2 0 -2 3 0 0 2 0 2 -1 2 0 3 -1 2 0 2 -1 2 -1 2 0 2 -1 1 -1 2 -2 2 -1 2 -1 1 -1 2 -2 1 -1 2 -2 1 -1 1 -2 2 -2 1 -2 1 -2 1 -1 0 -2 1 -2 1 -2 0 -2 1 -3 0 -2 1 -2 0 -2 0 0 0z"/>
   </g>
   <g>
    <path class="fil0" d="M1920 5267l148 0 0 2 -148 0 0 0 0 -2zm-38 -37l2 2 0 -1 0 2 1 2 0 2 0 1 1 2 0 2 1 1 0 2 1 2 1 1 1 2 1 1 0 1 2 2 1 1 1 1 1 1 1 2 2 1 1 1 2 1 1 0 2 1 1 1 2 1 1 0 2 1 2 0 1 0 2 0 2 1 2 0 0 2 -2 0 -2 0 -2 0 -2 -1 -2 0 -1 -1 -2 0 -2 -1 -2 -1 -1 0 -2 -1 -1 -1 -2 -1 -1 -2 -2 -1 -1 -1 -1 -1 -1 -2 -1 -1 -1 -2 -1 -1 -1 -2 -1 -1 -1 -2 -1 -2 0 -2 -1 -1 0 -2 -1 -2 0 -2 0 -2 0 -2 0 -1zm0 1l0 0 0 -1 0 1zm2 1l0 0 -2 -2 0 0 2 1 0 1zm0 -1l0 1 0 0 0 -1zm36 -38l0 3 0 0 -2 0 -2 0 -2 0 -1 1 -2 0 -2 0 -1 1 -2 1 -1 0 -2 1 -1 1 -2 1 -1 1 -2 1 -1 1 -1 1 -1 1 -1 2 -1 1 -1 1 -1 2 -1 1 -1 2 -1 1 0 2 -1 2 0 1 -1 2 0 2 0 2 0 1 -1 2 -2 0 0 -2 0 -2 0 -1 1 -2 0 -2 1 -2 0 -2 1 -1 1 -2 1 -2 1 -1 1 -2 1 -1 1 -2 1 -1 1 -1 1 -2 2 -1 1 -1 2 -1 1 -1 2 -1 1 -1 2 -1 2 0 2 -1 1 0 2 -1 2 0 2 0 2 0 2 -1 0 0zm148 3l-148 0 0 -3 148 0 0 0 0 3zm35 35l3 0 -3 0 0 -2 0 -1 0 -2 0 -2 -1 -2 0 -1 -1 -2 0 -1 -1 -2 -1 -2 -1 -1 -1 -2 -1 -1 -1 -1 -1 -2 -1 -1 -1 -1 -1 -1 -2 -1 -1 -1 -2 -1 -1 -1 -2 -1 -1 0 -2 -1 -2 -1 -1 0 -2 0 -2 -1 -1 0 -2 0 -2 0 0 -3 2 1 2 0 2 0 2 0 1 1 2 0 2 1 2 0 1 1 2 1 2 1 1 1 2 1 1 1 1 1 2 2 1 1 1 1 1 2 1 1 1 2 1 1 1 2 1 2 1 1 0 2 1 2 0 2 0 2 1 1 0 2 0 2 -3 0zm3 0l0 0 -3 0 0 0 3 0zm-38 38l0 -2 0 0 2 0 2 -1 1 0 2 0 2 0 1 -1 2 0 2 -1 1 -1 2 -1 1 0 2 -1 1 -1 2 -1 1 -2 1 -1 1 -1 1 -1 1 -2 1 -1 1 -1 1 -2 1 -1 1 -2 0 -2 1 -1 0 -2 1 -2 0 -1 0 -2 0 -2 0 -2 3 0 0 2 0 2 -1 2 0 2 0 2 -1 1 0 2 -1 2 -1 2 -1 1 -1 2 -1 1 -1 2 -1 1 -1 2 -1 1 -2 1 -1 1 -1 2 -2 1 -1 1 -2 1 -2 0 -1 1 -2 1 -2 0 -2 1 -1 0 -2 1 -2 0 -2 0 -2 0 0 0z"/>
   </g>
   <g>
    <path class="fil0" d="M1617 5232l0 -2 0 0 1 0 1 0 1 0 1 0 0 -1 1 0 1 0 1 0 1 -1 1 0 0 -1 1 0 1 -1 1 0 0 -1 1 0 0 -1 1 -1 1 0 0 -1 1 -1 0 -1 0 0 1 -1 0 -1 0 -1 1 -1 0 -1 0 -1 0 -1 0 0 0 -1 3 0 0 1 0 1 -1 1 0 1 0 1 0 1 -1 1 0 1 0 1 -1 1 0 0 -1 1 0 1 -1 1 -1 1 0 0 -1 1 -1 1 -1 0 -1 1 0 0 -1 1 -1 0 -1 1 -1 0 -1 1 -1 0 -1 0 -1 0 -1 0 -1 0 -1 0 0 0zm0 0l0 0 0 0 0 0zm-21 -20l2 0 0 0 0 1 0 0 0 1 1 1 0 1 0 1 0 1 1 1 0 1 0 0 1 1 0 1 1 1 0 0 1 1 1 1 0 0 1 1 1 0 0 1 1 0 1 1 1 0 1 1 0 0 1 0 1 0 1 1 1 0 1 0 1 0 1 0 0 2 -1 0 -1 0 -1 0 -1 0 -1 0 -1 0 -1 -1 -1 0 -1 -1 -1 0 -1 -1 -1 0 -1 -1 -1 0 0 -1 -1 -1 -1 0 0 -1 -1 -1 -1 -1 0 -1 -1 0 0 -1 -1 -1 0 -1 0 -1 -1 -1 0 -1 0 -1 0 -1 0 -1 0 -1 0 0zm21 -21l0 2 0 0 -1 0 -1 0 -1 0 -1 0 -1 1 -1 0 -1 0 0 0 -1 1 -1 0 -1 1 -1 0 0 1 -1 0 -1 1 0 0 -1 1 -1 1 0 0 -1 1 0 1 -1 1 0 1 0 0 -1 1 0 1 0 1 0 1 -1 1 0 1 0 1 0 1 -2 0 0 -2 0 -1 0 -1 0 -1 0 -1 1 -1 0 -1 0 -1 1 -1 0 0 1 -1 0 -1 1 -1 1 -1 0 -1 1 0 1 -1 0 -1 1 0 1 -1 1 0 1 -1 1 0 1 -1 1 0 1 0 1 -1 1 0 1 0 1 0 1 0 1 0 0 0zm21 21l-3 0 0 0 0 -1 0 -1 0 -1 0 -1 0 -1 -1 -1 0 -1 0 -1 -1 0 0 -1 0 -1 -1 -1 0 -1 -1 0 -1 -1 0 -1 -1 0 0 -1 -1 0 -1 -1 -1 0 0 -1 -1 0 -1 -1 -1 0 -1 0 -1 0 0 -1 -1 0 -1 0 -1 0 -1 0 0 -2 1 0 1 0 1 0 1 0 1 0 1 1 1 0 1 0 1 1 1 0 1 1 0 0 1 1 1 0 1 1 1 1 0 0 1 1 1 1 0 1 1 1 0 1 1 0 0 1 0 1 1 1 0 1 0 1 0 1 1 1 0 1 0 2 0 0z"/>
   </g>
   <g>
    <path class="fil0" d="M1451 5295l0 -2 0 0 3 0 2 0 3 -1 3 0 3 -1 3 -1 2 -1 3 -1 3 -1 2 -1 3 -2 2 -1 2 -2 2 -1 2 -2 3 -2 1 -2 2 -2 2 -2 2 -3 1 -2 1 -3 2 -2 1 -3 1 -2 1 -3 1 -3 0 -2 1 -3 0 -3 0 -3 0 -3 3 0 0 3 0 3 -1 3 0 3 -1 3 -1 3 -1 3 -1 2 -1 3 -1 3 -2 2 -1 3 -2 2 -2 2 -2 2 -2 3 -2 2 -2 1 -2 2 -3 2 -2 2 -3 1 -2 1 -3 2 -3 1 -3 1 -2 0 -3 1 -3 1 -3 0 -3 0 -3 0 0 0zm-61 -60l3 0 0 0 0 3 0 3 0 3 1 3 0 2 1 3 1 3 1 2 1 3 2 2 1 3 1 2 2 3 2 2 2 2 2 2 2 2 2 2 2 1 2 2 2 1 3 2 2 1 3 1 3 1 2 1 3 1 3 1 3 0 3 1 3 0 3 0 0 2 -4 0 -3 0 -3 0 -3 -1 -3 -1 -2 0 -3 -1 -3 -1 -3 -2 -2 -1 -3 -1 -2 -2 -3 -2 -2 -2 -2 -1 -2 -2 -2 -3 -2 -2 -2 -2 -2 -2 -1 -3 -2 -2 -1 -3 -1 -3 -1 -2 -1 -3 -1 -3 -1 -3 0 -3 -1 -3 0 -3 0 -3 0 0zm61 -60l0 2 0 0 -3 0 -3 0 -3 1 -3 0 -3 1 -3 1 -2 0 -3 1 -3 2 -2 1 -3 1 -2 2 -2 1 -2 2 -2 2 -2 2 -2 2 -2 2 -2 2 -2 2 -1 3 -1 2 -2 3 -1 2 -1 3 -1 3 -1 2 0 3 -1 3 0 3 0 3 0 3 -3 0 0 -3 0 -3 1 -3 0 -3 1 -3 1 -3 1 -3 1 -3 1 -2 1 -3 2 -2 1 -3 2 -2 2 -3 2 -2 2 -2 2 -2 2 -2 2 -1 3 -2 2 -2 3 -1 2 -2 3 -1 3 -1 3 -1 2 -1 3 0 3 -1 3 0 3 0 4 0 0 0zm60 60l-3 0 0 0 0 -3 0 -3 0 -3 -1 -3 0 -3 -1 -2 -1 -3 -1 -3 -1 -2 -2 -3 -1 -2 -1 -3 -2 -2 -2 -2 -2 -2 -1 -2 -3 -2 -2 -2 -2 -2 -2 -1 -2 -2 -3 -1 -2 -1 -3 -2 -3 -1 -2 0 -3 -1 -3 -1 -3 0 -3 -1 -2 0 -3 0 0 -2 3 0 3 0 3 0 3 1 3 0 2 1 3 1 3 1 3 1 2 2 3 1 2 2 3 1 2 2 2 2 2 2 2 2 2 2 2 3 2 2 1 3 2 2 1 3 1 2 1 3 1 3 1 3 1 3 0 3 1 3 0 3 0 3 0 0z"/>
   </g>
   <g>
    <path class="fil0" d="M1924 1998l157 0 0 3 -157 0 0 0 0 -3zm-89 -85l2 0 0 0 1 4 0 4 0 5 1 4 1 4 1 4 2 4 1 4 2 4 2 3 2 4 2 3 3 4 2 3 3 3 3 3 3 3 3 3 3 2 4 3 3 2 4 2 3 2 4 2 4 1 4 2 4 1 4 1 4 0 5 1 4 0 5 0 0 3 -5 0 -4 -1 -5 0 -4 -1 -4 -1 -5 -1 -4 -1 -4 -2 -4 -2 -4 -2 -3 -2 -4 -2 -3 -3 -4 -2 -3 -3 -3 -3 -3 -3 -3 -3 -2 -4 -3 -3 -2 -4 -2 -3 -2 -4 -2 -4 -2 -4 -1 -4 -1 -4 -1 -5 -1 -4 0 -4 -1 -5 0 -4 0 0zm3 -21l-1 21 -2 0 0 -21 3 0zm86 -89l0 3 0 0 -5 0 -4 0 -5 1 -4 0 -4 1 -4 2 -4 1 -4 1 -4 2 -3 2 -4 2 -3 2 -4 3 -3 2 -3 3 -3 3 -3 3 -3 3 -2 3 -3 4 -2 3 -2 4 -2 3 -2 4 -1 4 -2 4 -1 4 -1 4 0 5 -1 4 0 4 0 5 -3 0 0 -5 1 -4 0 -5 1 -4 1 -4 1 -5 2 -4 1 -4 2 -4 2 -3 2 -4 2 -4 3 -3 2 -4 3 -3 3 -3 3 -3 3 -3 4 -2 3 -3 4 -2 3 -2 4 -2 4 -2 4 -1 4 -2 5 -1 4 -1 4 -1 5 0 4 -1 5 0 0 0zm157 3l-157 0 0 -3 157 0 0 0 0 3zm88 86l-2 0 0 0 0 -5 0 -4 -1 -4 -1 -5 -1 -4 -1 -4 -1 -4 -2 -4 -1 -4 -2 -3 -2 -4 -3 -3 -2 -4 -3 -3 -2 -3 -3 -3 -3 -3 -3 -3 -4 -2 -3 -3 -3 -2 -4 -2 -4 -2 -4 -2 -3 -1 -4 -1 -5 -2 -4 -1 -4 0 -4 -1 -5 0 -4 0 0 -3 5 0 4 1 4 0 5 1 4 1 4 1 4 2 4 1 4 2 4 2 4 2 3 2 4 3 3 2 3 3 3 3 3 3 3 4 3 3 2 3 3 4 2 4 2 3 1 4 2 4 1 4 2 5 1 4 0 4 1 5 0 4 0 5 0 0zm-2 20l0 -20 2 0 0 20 0 0 -2 0zm-86 89l0 -3 0 0 4 0 5 0 4 -1 4 0 4 -1 5 -1 4 -2 3 -1 4 -2 4 -2 4 -2 3 -2 3 -3 4 -2 3 -3 3 -3 3 -3 2 -3 3 -3 2 -4 3 -3 2 -4 2 -3 1 -4 2 -4 1 -4 1 -4 1 -4 1 -4 1 -5 0 -4 0 -5 2 0 0 5 0 4 -1 5 0 4 -1 5 -2 4 -1 4 -2 4 -1 4 -2 4 -2 3 -3 4 -2 3 -3 4 -3 3 -3 3 -3 3 -3 3 -3 2 -4 3 -3 2 -4 2 -4 2 -4 2 -4 2 -4 1 -4 1 -4 1 -5 1 -4 0 -4 1 -5 0 0 0z"/>
   </g>
   <g>
    <path class="fil0" d="M1952 1718l109 0 0 2 -109 0 0 0 0 -2zm-117 -115l2 0 0 0 1 6 0 6 1 6 1 5 1 6 2 5 2 5 2 6 2 5 2 5 3 4 3 5 3 5 4 4 3 4 4 4 4 4 4 4 5 3 4 3 5 3 5 3 5 2 5 3 5 2 5 2 6 1 5 1 6 2 6 0 5 1 6 0 0 2 -6 0 -6 0 -6 -1 -5 -1 -6 -1 -5 -2 -6 -2 -5 -2 -5 -2 -5 -3 -5 -3 -5 -3 -5 -3 -4 -4 -4 -3 -4 -4 -4 -4 -4 -4 -4 -5 -3 -4 -3 -5 -3 -5 -2 -5 -3 -5 -2 -6 -2 -5 -1 -6 -2 -5 -1 -6 0 -6 -1 -6 0 -6 0 0zm3 -349l-1 349 -2 0 0 -349 3 0zm114 -117l0 3 0 0 -6 0 -5 0 -6 1 -6 1 -5 1 -6 2 -5 2 -5 2 -5 2 -5 3 -5 2 -5 3 -4 4 -5 3 -4 4 -4 3 -4 4 -3 5 -4 4 -3 4 -3 5 -3 5 -2 5 -2 5 -2 5 -2 5 -2 6 -1 5 -1 6 -1 6 0 6 0 5 -3 0 0 -6 1 -6 0 -5 2 -6 1 -6 1 -5 2 -6 2 -5 3 -5 2 -5 3 -5 3 -5 3 -5 4 -4 4 -4 4 -4 4 -4 4 -4 4 -3 5 -4 5 -3 5 -3 5 -2 5 -2 5 -3 6 -1 5 -2 6 -1 5 -1 6 -1 6 -1 6 0 0 0zm109 3l-109 0 0 -3 109 0 0 0 0 3zm118 114l-3 0 0 0 0 -5 0 -6 -1 -6 -1 -6 -2 -5 -1 -6 -2 -5 -2 -5 -2 -5 -3 -5 -3 -5 -3 -5 -3 -4 -3 -4 -4 -5 -4 -4 -4 -3 -4 -4 -4 -3 -5 -4 -4 -3 -5 -2 -5 -3 -5 -2 -5 -2 -6 -2 -5 -2 -6 -1 -5 -1 -6 -1 -6 0 -6 0 0 -3 6 0 6 1 6 1 6 1 6 1 5 2 6 1 5 3 5 2 5 2 5 3 5 3 4 4 5 3 4 4 4 4 4 4 4 4 3 4 3 5 4 5 2 5 3 5 2 5 2 5 2 6 2 5 1 6 1 6 1 6 0 5 1 6 0 0zm-3 349l0 -349 3 0 0 349 0 0 -3 0zm-115 117l0 -2 0 0 6 0 6 -1 6 0 5 -1 6 -2 5 -1 6 -2 5 -2 5 -3 5 -2 5 -3 4 -3 5 -3 4 -3 4 -4 4 -4 4 -4 4 -4 3 -4 3 -5 3 -5 3 -4 3 -5 2 -5 2 -6 2 -5 1 -5 2 -6 1 -5 1 -6 0 -6 0 -6 3 0 -1 6 0 6 -1 6 -1 6 -1 5 -2 6 -2 5 -2 6 -2 5 -3 5 -2 5 -4 5 -3 4 -3 5 -4 4 -4 4 -4 4 -4 3 -5 4 -4 3 -5 3 -5 3 -5 3 -5 2 -5 2 -6 2 -5 2 -6 1 -6 1 -6 1 -6 0 -6 0 0 0z"/>
   </g>
   <g>
    <path class="fil0" d="M1961 1683l92 0 0 2 -92 0 0 0 0 -2zm-95 -93l3 0 0 0 0 5 0 5 1 4 0 5 1 4 2 5 1 4 2 4 2 4 2 4 2 4 2 4 3 4 3 3 3 3 3 4 3 3 3 3 4 2 3 3 4 2 4 3 4 2 4 1 4 2 4 2 5 1 4 1 5 1 4 0 5 1 5 0 0 2 -5 0 -5 0 -5 -1 -4 -1 -5 -1 -4 -1 -5 -2 -4 -1 -4 -2 -4 -2 -4 -3 -4 -2 -4 -3 -3 -3 -4 -3 -3 -3 -3 -3 -3 -3 -3 -4 -3 -4 -2 -4 -2 -3 -3 -5 -1 -4 -2 -4 -2 -4 -1 -5 -1 -5 -1 -4 0 -5 -1 -5 0 -5 0 0zm3 -327l0 327 -3 0 0 -327 3 0zm92 -95l0 3 0 0 -5 0 -5 0 -4 1 -5 1 -4 1 -5 1 -4 1 -4 2 -4 2 -4 2 -4 2 -4 2 -3 3 -4 3 -3 3 -3 3 -3 3 -3 3 -3 4 -3 3 -2 4 -2 4 -2 4 -2 4 -2 4 -1 5 -2 4 -1 4 0 5 -1 4 0 5 0 5 -3 0 0 -5 1 -5 0 -5 1 -4 1 -5 1 -4 2 -5 2 -4 1 -4 3 -4 2 -4 2 -4 3 -4 3 -3 3 -4 3 -3 3 -3 4 -3 3 -3 4 -3 4 -2 4 -2 4 -2 4 -2 4 -2 5 -2 4 -1 5 -1 4 -1 5 0 5 -1 5 0 0 0zm92 3l-92 0 0 -3 92 0 0 0 0 3zm94 92l-2 0 0 0 0 -5 0 -5 -1 -4 -1 -5 -1 -4 -1 -4 -2 -5 -1 -4 -2 -4 -2 -4 -2 -4 -3 -4 -2 -3 -3 -4 -3 -3 -3 -3 -3 -3 -4 -3 -3 -3 -4 -3 -3 -2 -4 -2 -4 -2 -4 -2 -5 -2 -4 -1 -4 -1 -5 -2 -4 0 -5 -1 -4 0 -5 0 0 -3 5 0 4 1 5 0 5 1 4 1 5 1 4 2 5 2 4 2 4 2 4 2 4 2 3 3 4 3 3 3 4 3 3 3 3 4 3 3 2 4 3 4 2 4 2 4 2 4 2 4 1 5 1 4 1 5 1 5 1 4 0 5 0 5 0 0zm-2 327l0 -327 2 0 0 327 0 0 -2 0zm-92 95l0 -2 0 0 5 0 4 -1 5 0 4 -1 5 -1 4 -1 4 -2 5 -2 4 -1 4 -2 4 -3 3 -2 4 -3 3 -2 4 -3 3 -3 3 -4 3 -3 3 -3 2 -4 3 -4 2 -4 2 -4 2 -4 1 -4 2 -4 1 -5 1 -4 1 -5 1 -4 0 -5 0 -5 2 0 0 5 0 5 -1 5 -1 4 -1 5 -1 5 -1 4 -2 4 -2 4 -2 4 -2 4 -3 4 -2 4 -3 4 -3 3 -3 3 -4 3 -3 3 -4 3 -3 3 -4 2 -4 3 -4 2 -4 2 -5 1 -4 2 -5 1 -4 1 -5 1 -5 1 -4 0 -5 0 0 0z"/>
   </g>
   <g>
    <path class="fil0" d="M2007 1393l0 -3 0 0 4 0 5 0 4 -1 5 0 4 -1 4 -1 4 -2 4 -1 4 -2 4 -2 4 -2 3 -3 4 -2 3 -3 3 -2 3 -3 3 -3 3 -4 2 -3 3 -3 2 -4 2 -4 2 -3 2 -4 2 -4 1 -4 1 -5 1 -4 1 -4 1 -5 0 -4 0 -5 2 0 0 5 0 5 -1 4 0 5 -1 4 -2 4 -1 4 -2 5 -2 4 -2 3 -2 4 -2 4 -3 3 -2 4 -3 3 -3 3 -3 3 -4 3 -3 3 -4 2 -3 3 -4 2 -4 2 -4 2 -4 1 -4 2 -5 1 -4 1 -4 1 -5 0 -5 1 -4 0 0 0zm-91 -91l3 0 0 0 0 5 0 4 1 5 0 4 1 4 2 5 1 4 2 4 1 4 2 3 2 4 3 4 2 3 3 3 3 4 2 3 4 3 3 2 3 3 4 2 3 3 4 2 4 2 3 2 4 1 5 2 4 1 4 1 4 0 5 1 4 0 5 0 0 3 -5 0 -4 -1 -5 0 -4 -1 -5 -1 -4 -1 -4 -2 -4 -1 -4 -2 -4 -2 -4 -2 -4 -3 -3 -2 -4 -3 -3 -3 -3 -3 -3 -3 -3 -3 -3 -3 -2 -4 -3 -4 -2 -4 -2 -3 -2 -4 -1 -5 -2 -4 -1 -4 -1 -4 -1 -5 0 -4 -1 -5 0 -5 0 0zm91 -90l0 2 0 0 -5 0 -4 1 -5 0 -4 1 -4 1 -4 1 -5 2 -4 1 -3 2 -4 2 -4 2 -3 2 -4 3 -3 2 -3 3 -4 3 -2 3 -3 3 -3 4 -2 3 -3 4 -2 3 -2 4 -1 4 -2 4 -1 4 -2 4 -1 5 0 4 -1 4 0 5 0 4 -3 0 0 -4 1 -5 0 -4 1 -5 1 -4 1 -5 2 -4 1 -4 2 -4 2 -4 2 -4 3 -3 2 -4 3 -3 3 -4 3 -3 3 -3 3 -3 4 -2 3 -3 4 -2 4 -2 4 -2 4 -2 4 -2 4 -1 4 -1 5 -1 4 -1 5 -1 4 0 5 0 0 0zm90 90l-2 0 0 0 0 -4 0 -5 -1 -4 -1 -4 -1 -5 -1 -4 -1 -4 -2 -4 -2 -4 -2 -4 -2 -3 -2 -4 -3 -3 -2 -4 -3 -3 -3 -3 -3 -3 -3 -3 -3 -2 -4 -3 -3 -2 -4 -2 -4 -2 -4 -2 -4 -1 -4 -2 -4 -1 -4 -1 -5 -1 -4 0 -5 -1 -4 0 0 -2 4 0 5 0 5 1 4 1 4 1 5 1 4 1 4 2 4 2 4 2 4 2 3 2 4 3 3 2 4 3 3 3 3 3 3 4 2 3 3 4 2 3 2 4 2 4 2 4 2 4 1 4 2 5 1 4 0 5 1 4 0 5 0 4 0 0z"/>
   </g>
   <g>
    <path class="fil0" d="M2007 1623l0 -3 0 0 3 0 4 0 3 0 4 -1 3 -1 3 -1 3 -1 4 -1 3 -1 3 -2 2 -2 3 -1 3 -2 3 -2 2 -2 2 -3 3 -2 2 -3 2 -2 2 -3 2 -3 1 -3 2 -3 1 -3 1 -3 1 -3 1 -3 1 -4 1 -3 0 -3 0 -4 1 -3 2 0 0 3 0 4 -1 3 0 4 -1 3 -1 4 -1 3 -2 3 -1 3 -2 4 -1 3 -2 2 -2 3 -2 3 -3 3 -2 2 -2 2 -3 3 -3 2 -2 2 -3 2 -3 1 -3 2 -4 1 -3 2 -3 1 -3 1 -4 0 -3 1 -4 1 -4 0 -3 0 0 0zm-72 -71l3 0 0 0 0 3 0 4 1 3 0 3 1 4 1 3 1 3 1 3 2 3 1 3 2 3 2 3 2 3 2 2 2 3 2 2 2 3 3 2 3 2 2 2 3 1 3 2 3 2 3 1 3 1 3 1 4 1 3 1 3 1 4 0 3 0 4 0 0 3 -4 0 -4 0 -3 -1 -4 -1 -3 0 -3 -1 -4 -1 -3 -2 -3 -1 -3 -2 -3 -1 -3 -2 -3 -2 -3 -2 -2 -3 -3 -2 -2 -2 -2 -3 -2 -3 -2 -3 -2 -2 -2 -3 -1 -3 -2 -4 -1 -3 -1 -3 -1 -4 -1 -3 -1 -4 0 -3 0 -4 -1 -3 0 0zm72 -72l0 3 0 0 -4 0 -3 0 -4 1 -3 0 -3 1 -4 1 -3 1 -3 1 -3 2 -3 1 -3 2 -3 2 -2 1 -3 3 -3 2 -2 2 -2 2 -2 3 -2 2 -2 3 -2 3 -2 3 -1 3 -2 3 -1 3 -1 3 -1 3 -1 4 0 3 -1 4 0 3 0 4 -3 0 1 -4 0 -4 0 -3 1 -4 1 -3 1 -4 1 -3 1 -3 1 -3 2 -3 2 -3 2 -3 2 -3 2 -3 2 -2 2 -3 3 -2 2 -2 3 -2 3 -2 3 -2 3 -2 3 -2 3 -1 3 -1 4 -1 3 -1 3 -1 4 -1 3 0 4 -1 4 0 0 0zm71 72l-2 0 0 0 -1 -4 0 -3 0 -4 -1 -3 -1 -4 -1 -3 -1 -3 -1 -3 -1 -3 -2 -3 -1 -3 -2 -3 -2 -3 -2 -2 -2 -3 -3 -2 -2 -2 -2 -3 -3 -2 -3 -1 -3 -2 -2 -2 -3 -1 -3 -2 -4 -1 -3 -1 -3 -1 -3 -1 -4 0 -3 -1 -4 0 -3 0 0 -3 3 0 4 1 4 0 3 1 4 1 3 1 3 1 3 1 4 1 3 2 3 2 3 2 2 2 3 2 3 2 2 2 2 3 3 2 2 3 2 3 2 3 1 3 2 3 1 3 2 3 1 3 1 4 1 3 0 4 1 3 0 4 0 4 0 0z"/>
   </g>
   <g>
    <path class="fil0" d="M2346 1494l57 0 0 2 -57 0 0 0 0 -2zm-44 -42l3 0 0 0 0 2 0 2 0 2 1 3 0 2 1 1 0 2 1 2 1 2 1 2 1 2 1 1 1 2 1 2 2 1 1 2 1 1 2 1 1 1 2 2 2 1 2 1 1 1 2 1 2 0 2 1 2 0 2 1 2 0 2 1 2 0 2 0 0 2 -2 0 -2 0 -2 0 -2 -1 -3 0 -2 -1 -2 0 -2 -1 -2 -1 -2 -1 -1 -1 -2 -1 -2 -2 -2 -1 -1 -1 -2 -2 -1 -1 -2 -2 -1 -2 -1 -1 -1 -2 -1 -2 -1 -2 -1 -2 -1 -2 -1 -2 0 -2 -1 -2 0 -2 0 -2 -1 -3 0 -2 0 0zm3 -36l0 36 -3 0 0 -36 3 0zm41 -44l0 2 0 0 -2 0 -2 0 -2 1 -2 0 -2 0 -2 1 -2 1 -2 0 -2 1 -1 1 -2 1 -2 1 -2 1 -1 2 -2 1 -1 1 -1 2 -2 1 -1 2 -1 2 -1 1 -1 2 -1 2 -1 2 -1 2 0 1 -1 2 0 2 -1 3 0 2 0 2 0 2 -3 0 0 -2 1 -3 0 -2 0 -2 1 -2 0 -2 1 -2 1 -2 1 -2 1 -2 1 -2 1 -2 1 -1 1 -2 2 -2 1 -1 2 -2 1 -1 2 -1 2 -2 2 -1 1 -1 2 -1 2 -1 2 -1 2 0 2 -1 3 0 2 -1 2 0 2 0 2 0 0 0zm57 2l-57 0 0 -2 57 0 0 0 0 2zm44 42l-2 0 0 0 0 -2 0 -2 -1 -2 0 -3 -1 -2 0 -2 -1 -1 -1 -2 0 -2 -1 -2 -1 -2 -1 -1 -2 -2 -1 -2 -1 -1 -1 -2 -2 -1 -1 -1 -2 -2 -2 -1 -1 -1 -2 -1 -2 -1 -2 -1 -2 0 -2 -1 -2 -1 -2 0 -2 0 -2 -1 -2 0 -2 0 0 -2 2 0 3 0 2 0 2 1 2 0 2 1 2 0 2 1 2 1 2 1 2 1 2 1 1 2 2 1 2 1 1 2 2 1 1 2 1 2 2 1 1 2 1 2 1 2 1 2 1 2 0 2 1 2 0 2 1 2 0 2 0 3 0 2 0 0zm-2 36l0 -36 2 0 0 36 0 0 -2 0zm-42 44l0 -2 0 0 2 0 2 0 2 -1 2 0 2 -1 2 0 2 -1 2 0 2 -1 2 -1 2 -1 1 -1 2 -1 2 -2 1 -1 2 -1 1 -2 1 -1 1 -2 2 -2 1 -1 1 -2 1 -2 0 -2 1 -2 1 -2 0 -1 1 -3 0 -2 1 -2 0 -2 0 -2 2 0 0 2 0 3 0 2 -1 2 0 2 -1 2 0 2 -1 2 -1 2 -1 2 -1 2 -1 2 -2 1 -1 2 -1 2 -2 1 -1 2 -2 1 -2 1 -1 2 -2 1 -2 1 -2 1 -2 1 -2 1 -2 0 -2 1 -2 0 -2 1 -2 0 -3 0 -2 0 0 0z"/>
   </g>
   <g>
    <path class="fil0" d="M3111 1819l0 0 0 0 0 0 0 1 0 -1zm0 -2l0 0 0 0 0 0zm-32 -29l2 0 0 0 0 1 0 2 0 1 1 2 0 1 0 2 1 1 0 1 1 2 1 1 0 1 1 1 1 1 1 2 1 1 1 1 1 1 1 1 1 0 1 1 1 1 2 1 1 0 1 1 2 1 1 0 1 0 2 1 1 0 2 0 1 0 2 0 0 3 -2 0 -1 0 -2 -1 -2 0 -1 0 -2 -1 -1 0 -2 -1 -1 0 -1 -1 -2 -1 -1 -1 -1 -1 -2 -1 -1 -1 -1 -1 -1 -1 -1 -1 -1 -1 -1 -1 -1 -2 0 -1 -1 -1 -1 -2 0 -1 -1 -2 0 -1 -1 -2 0 -1 0 -2 0 -2 0 -1 0 0zm2 -242l0 242 -2 0 0 -242 2 0zm29 -32l1 3 0 0 -2 0 -1 0 -2 0 -1 0 -2 1 -1 0 -1 0 -2 1 -1 1 -1 0 -2 1 -1 1 -1 1 -1 0 -1 1 -1 1 -1 1 -1 1 -1 2 -1 1 -1 1 0 1 -1 1 -1 2 0 1 -1 1 0 2 0 1 -1 2 0 1 0 2 0 1 -2 0 0 -1 0 -2 0 -2 0 -1 1 -2 0 -1 1 -2 0 -1 1 -2 1 -1 0 -1 1 -2 1 -1 1 -1 1 -1 1 -1 1 -1 1 -1 2 -1 1 -1 1 -1 2 -1 1 -1 1 0 2 -1 1 0 2 -1 1 0 2 0 1 -1 2 0 2 0 -1 0zm1 3l0 0 0 0 0 0zm0 0l0 0 -1 -3 0 0 1 0 0 3zm-1 -3l0 0 1 0 -1 0zm33 32l-3 0 0 0 0 -1 0 -2 0 -1 0 -2 -1 -1 0 -2 0 -1 -1 -1 -1 -2 0 -1 -1 -1 -1 -1 -1 -1 0 -2 -1 -1 -1 -1 -1 -1 -1 -1 -2 0 -1 -1 -1 -1 -1 -1 -1 0 -2 -1 -1 -1 -1 0 -2 0 -1 -1 -2 0 -1 0 -2 0 -1 0 0 -3 1 0 2 0 2 1 1 0 2 0 1 1 2 0 1 1 2 0 1 1 1 1 2 1 1 1 1 1 1 1 1 1 1 1 1 1 1 1 1 1 1 2 1 1 1 1 0 2 1 1 0 2 1 1 0 2 0 1 1 2 0 2 0 1 0 0zm-3 242l0 -242 3 0 0 242 0 0 -3 0zm-29 32l0 -3 0 0 1 0 2 0 1 0 2 0 1 -1 2 0 1 0 1 -1 2 -1 1 0 1 -1 1 -1 1 -1 2 0 1 -1 1 -1 1 -1 1 -1 0 -2 1 -1 1 -1 1 -1 0 -1 1 -2 1 -1 0 -1 0 -2 1 -1 0 -2 0 -1 0 -2 0 -1 3 0 0 1 0 2 -1 2 0 1 0 2 -1 1 0 2 -1 1 0 2 -1 1 -1 1 -1 2 -1 1 -1 1 -1 1 -1 1 -1 1 -1 1 -1 1 -1 1 -2 1 -1 1 -1 1 -2 0 -1 1 -2 0 -1 1 -2 0 -1 0 -2 1 -2 0 -1 0 0 0zm0 -3l0 0 0 0 0 0z"/>
   </g>
   <g>
    <path class="fil0" d="M3110 2228l3 0 0 2 -3 0 0 0 0 -2zm-38 -35l3 0 0 0 0 2 0 2 0 1 1 2 0 2 0 2 1 1 1 2 0 1 1 2 1 1 1 2 1 1 1 1 1 2 1 1 1 1 2 1 1 1 1 1 2 1 1 1 2 0 1 1 2 1 1 0 2 1 2 0 1 1 2 0 2 0 2 0 0 2 -2 0 -2 0 -2 0 -2 0 -2 -1 -1 0 -2 -1 -2 -1 -1 0 -2 -1 -2 -1 -1 -1 -2 -1 -1 -1 -1 -1 -2 -2 -1 -1 -1 -1 -1 -2 -1 -1 -1 -2 -1 -1 -1 -2 -1 -1 0 -2 -1 -2 0 -2 -1 -1 0 -2 0 -2 0 -2 -1 -2 0 0zm3 -226l0 226 -3 0 0 -226 3 0zm35 -37l0 2 0 0 -2 0 -2 0 -2 0 -1 1 -2 0 -2 1 -1 0 -2 1 -1 1 -2 0 -1 1 -2 1 -1 1 -1 1 -2 1 -1 1 -1 1 -1 2 -1 1 -1 1 -1 2 -1 1 -1 2 0 1 -1 2 -1 2 0 1 0 2 -1 2 0 1 0 2 0 2 -3 0 1 -2 0 -2 0 -2 0 -2 1 -1 0 -2 1 -2 0 -2 1 -1 1 -2 1 -1 1 -2 1 -1 1 -2 1 -1 1 -1 2 -2 1 -1 1 -1 2 -1 1 -1 2 -1 2 -1 1 0 2 -1 2 -1 1 0 2 -1 2 0 2 0 2 0 2 0 0 0zm0 2l0 0 0 0 0 0zm3 0l-3 0 0 -2 3 0 0 0 0 2zm0 -2l0 0 0 0 0 0zm37 37l-2 0 0 0 0 -2 -1 -2 0 -1 0 -2 -1 -2 0 -1 -1 -2 0 -2 -1 -1 -1 -2 0 -1 -1 -2 -1 -1 -1 -1 -1 -2 -2 -1 -1 -1 -1 -1 -1 -1 -2 -1 -1 -1 -2 -1 -1 0 -2 -1 -1 -1 -2 0 -1 -1 -2 0 -2 -1 -2 0 -1 0 -2 0 0 -2 2 0 2 0 2 0 1 0 2 1 2 0 2 1 1 1 2 0 2 1 1 1 2 1 1 1 1 1 2 1 1 2 1 1 1 1 2 2 1 1 1 2 1 1 0 2 1 1 1 2 0 2 1 2 0 1 1 2 0 2 0 2 0 2 0 0zm-2 226l0 -226 2 0 0 226 0 0 -2 0zm-35 37l0 -2 0 0 2 0 1 0 2 0 2 -1 2 0 1 -1 2 0 1 -1 2 0 1 -1 2 -1 1 -1 2 -1 1 -1 1 -1 1 -1 2 -1 1 -2 1 -1 1 -1 1 -2 0 -1 1 -2 1 -1 0 -2 1 -2 1 -1 0 -2 0 -2 0 -1 1 -2 0 -2 2 0 0 2 0 2 0 2 -1 2 0 1 -1 2 0 2 -1 2 -1 1 0 2 -1 1 -1 2 -1 1 -1 2 -2 1 -1 1 -1 2 -2 1 -1 1 -1 1 -2 1 -1 1 -2 1 -2 0 -1 1 -2 1 -2 0 -2 1 -1 0 -2 0 -2 0 -2 0 0 0z"/>
   </g>
  </g>
 </g>
</svg>
