<?xml version="1.0" encoding="UTF-8"?>
<!DOCTYPE svg PUBLIC "-//W3C//DTD SVG 1.1//EN" "http://www.w3.org/Graphics/SVG/1.1/DTD/svg11.dtd">
<!-- Creator: CorelDRAW X8 -->
<svg xmlns="http://www.w3.org/2000/svg" xml:space="preserve" width="40mm" height="60mm" version="1.1" style="shape-rendering:geometricPrecision; text-rendering:geometricPrecision; image-rendering:optimizeQuality; fill-rule:evenodd; clip-rule:evenodd"
viewBox="0 0 4000 6000"
 xmlns:xlink="http://www.w3.org/1999/xlink">
 <defs>
  <style type="text/css">
   <![CDATA[
    .str0 {stroke:black;stroke-width:7.62}
    .fil0 {fill:none}
   ]]>
  </style>
 </defs>
 <g id="图层_x0020_1">
  <metadata id="CorelCorpID_0Corel-Layer"/>
  <path class="fil0 str0" d="M1316 5350c-25,-36 -81,-56 -126,-56 -121,0 -221,-100 -221,-221l0 -4203c0,-121 100,-220 221,-220l410 0c2,0 3,0 4,2l7 6c2,3 4,4 7,4l291 0c20,0 33,8 33,30l0 32c0,35 28,63 62,63l0 0c35,0 63,-28 63,-63l0 -32c0,-27 13,-30 30,-30l312 0c2,0 3,-1 5,-3l6 -7c1,-2 2,-2 4,-2l386 0c121,0 221,99 221,220l0 4203c0,121 -100,221 -221,221l-1798 0"/>
 </g>
</svg>
