<?xml version="1.0" encoding="UTF-8"?>
<!DOCTYPE svg PUBLIC "-//W3C//DTD SVG 1.1//EN" "http://www.w3.org/Graphics/SVG/1.1/DTD/svg11.dtd">
<!-- Creator: CorelDRAW X8 -->
<svg xmlns="http://www.w3.org/2000/svg" xml:space="preserve" width="40mm" height="60mm" version="1.1" style="shape-rendering:geometricPrecision; text-rendering:geometricPrecision; image-rendering:optimizeQuality; fill-rule:evenodd; clip-rule:evenodd"
viewBox="0 0 4000 6000"
 xmlns:xlink="http://www.w3.org/1999/xlink">
 <defs>
  <style type="text/css">
   <![CDATA[
    .str0 {stroke:#222222;stroke-width:20}
    .fil0 {fill:none}
   ]]>
  </style>
 </defs>
 <g id="图层_x0020_1">
  <metadata id="CorelCorpID_0Corel-Layer"/>
  <g id="_1630932144592">
   <path class="fil0 str0" d="M973 5193l1861 0c106,0 193,-87 193,-193l0 -4157c0,-106 -87,-193 -193,-193l-1619 0c-106,0 -193,87 -193,193l0 4157c0,106 87,193 193,193 106,0 193,67 193,157"/>
   <path class="fil0 str0" d="M1357 864c0,-86 -78,-106 -117,-106 -39,0 -70,32 -70,70l0 0c0,39 31,70 70,70l240 0c38,0 70,-31 70,-70l0 0c0,-38 -32,-70 -70,-70l-240 0"/>
  </g>
  <path class="fil0 str0" d="M-1248 6791l0 -6761c0,-385 -315,-700 -700,-700l-15099 0c-385,0 -700,315 -700,700l0 5881c0,385 315,700 700,700l15099 0c385,0 700,-315 700,-700 0,-385 243,-702 569,-702"/>
  <path class="fil0 str0" d="M-16970 5396c-311,0 -385,285 -385,425 0,140 115,254 255,254l0 0c140,0 255,-114 255,-254l0 -871c0,-140 -115,-255 -255,-255l0 0c-140,0 -255,115 -255,255l0 871"/>
 </g>
</svg>
