<?xml version="1.0" encoding="UTF-8"?>
<!DOCTYPE svg PUBLIC "-//W3C//DTD SVG 1.1//EN" "http://www.w3.org/Graphics/SVG/1.1/DTD/svg11.dtd">
<!-- Creator: CorelDRAW X8 -->
<svg xmlns="http://www.w3.org/2000/svg" xml:space="preserve" width="40mm" height="60mm" version="1.1" style="shape-rendering:geometricPrecision; text-rendering:geometricPrecision; image-rendering:optimizeQuality; fill-rule:evenodd; clip-rule:evenodd"
viewBox="0 0 4000 6000"
 xmlns:xlink="http://www.w3.org/1999/xlink">
 <defs>
  <style type="text/css">
   <![CDATA[
    .str0 {stroke:black;stroke-width:7.62}
    .fil0 {fill:none}
   ]]>
  </style>
 </defs>
 <g id="图层_x0020_1">
  <metadata id="CorelCorpID_0Corel-Layer"/>
  <path class="fil0 str0" d="M1801 1294c21,0 38,17 38,38 0,21 -17,38 -38,38 -21,0 -38,-17 -38,-38 0,-21 17,-38 38,-38zm1218 60l476 0c72,0 130,58 130,130l0 769c0,72 -58,130 -130,130l-476 0c-72,0 -130,-58 -130,-130l0 -769c0,-72 58,-130 130,-130zm-342 513l0 0c15,0 27,12 27,27l0 410c0,14 -12,27 -27,27l0 0c-15,0 -27,-13 -27,-27l0 -410c0,-15 12,-27 27,-27zm0 650l0 0c15,0 27,12 27,27l0 195c0,15 -12,27 -27,27l0 0c-15,0 -27,-12 -27,-27l0 -195c0,-15 12,-27 27,-27zm-2482 -1267l523 0c81,0 149,54 169,132 6,24 27,41 52,41l0 0c26,0 47,-17 53,-41 19,-78 87,-132 168,-132l1291 0c80,0 149,54 168,132 6,24 27,41 53,41l0 0c25,0 46,-17 52,-41 19,-78 88,-132 169,-132l817 0c3,0 5,2 5,4l0 94 0 102c0,2 1,3 2,4l90 50c2,1 3,2 3,4l0 203c0,2 -1,3 -3,4l-90 50c-1,1 -2,2 -2,4l0 102 0 101c0,2 1,3 2,4l90 50c2,1 3,2 3,4l0 204c0,1 -1,3 -3,3l-90 51c-1,0 -2,2 -2,3l0 102 0 102c0,1 1,3 2,3l90 50c2,1 3,3 3,4l0 204c0,1 -1,3 -3,4l-90 50c-1,1 -2,2 -2,4l0 101 0 102c0,1 1,3 2,4l90 50c2,1 3,2 3,4l0 203c0,2 -1,3 -3,4l-90 50c-1,1 -2,2 -2,4l0 102 0 101c0,2 1,3 2,4l90 50c2,1 3,2 3,4l0 203c0,2 -1,3 -3,4l-90 50c-1,1 -2,3 -2,4l0 102 0 101c0,2 1,3 2,4l90 50c2,1 3,3 3,4l0 203c0,2 -1,3 -3,4l-91 51c-1,1 -2,2 -2,4l0 101 0 102c0,1 1,3 2,4l91 50c2,1 3,3 3,4l0 104c0,2 -2,4 -5,4l-912 0c-81,0 -150,-54 -169,-132 -6,-24 -27,-42 -52,-42l0 0c-26,0 -47,18 -53,42 -19,78 -88,132 -169,132l-1290 0c-81,0 -149,-54 -168,-132 -6,-24 -27,-42 -53,-42l0 0c-25,0 -47,18 -52,42 -19,78 -88,132 -169,132l-428 0c-3,0 -5,-2 -5,-4l0 -3 0 -102c0,-1 -1,-3 -2,-4l-90 -50c-2,-1 -3,-2 -3,-4l0 -203c0,-1 1,-3 3,-4l90 -50c1,-1 2,-2 2,-4l0 -101 0 -102c0,-1 -1,-3 -2,-4l-90 -50c-2,-1 -3,-2 -3,-4l0 -203c0,-2 1,-3 3,-4l90 -50c1,-1 2,-2 2,-4l0 -102 0 -101c0,-2 -1,-3 -2,-4l-90 -50c-2,-1 -3,-2 -3,-4l0 -203c0,-2 1,-3 3,-4l90 -50c1,-1 2,-3 2,-4l0 -102 0 -101c0,-2 -1,-3 -2,-4l-90 -50c-2,-1 -3,-3 -3,-4l0 -204c0,-1 1,-3 3,-4l90 -50c1,0 2,-2 2,-3l0 -102 0 -102c0,-1 -1,-3 -2,-3l-90 -51c-2,0 -3,-2 -3,-3l0 -204c0,-2 1,-3 3,-4l90 -50c1,-1 2,-2 2,-4l0 -101 0 -102c0,-2 -1,-3 -2,-4l-90 -50c-2,-1 -3,-2 -3,-4l0 -203c0,-2 1,-3 3,-4l90 -50c1,-1 2,-2 2,-4l0 -102 0 -101c0,-2 -1,-3 -2,-4l-90 -50c-2,-1 -3,-2 -3,-4l0 -196c0,-2 2,-4 5,-4z"/>
 </g>
</svg>
