<?xml version="1.0" encoding="UTF-8"?>
<!DOCTYPE svg PUBLIC "-//W3C//DTD SVG 1.1//EN" "http://www.w3.org/Graphics/SVG/1.1/DTD/svg11.dtd">
<!-- Creator: CorelDRAW 2020 (64-Bit) -->
<svg xmlns="http://www.w3.org/2000/svg" xml:space="preserve" width="40mm" height="60mm" version="1.1" style="shape-rendering:geometricPrecision; text-rendering:geometricPrecision; image-rendering:optimizeQuality; fill-rule:evenodd; clip-rule:evenodd"
viewBox="0 0 4000 6000"
 xmlns:xlink="http://www.w3.org/1999/xlink"
 xmlns:xodm="http://www.corel.com/coreldraw/odm/2003">
 <defs>
  <style type="text/css">
   <![CDATA[
    .str1 {stroke:#332C2B;stroke-width:20;stroke-miterlimit:22.9256}
    .str0 {stroke:#E62129;stroke-width:20;stroke-miterlimit:22.9256}
    .fil0 {fill:none}
   ]]>
  </style>
   <clipPath id="id0">
    <rect x="-36071.91" y="-8266.02" width="7669.22" height="16073.85"/>
   </clipPath>
   <clipPath id="id1">
    <rect x="-27183.07" y="-8196.83" width="1279.9" height="15921.99"/>
   </clipPath>
 </defs>
 <g id="图层_x0020_1">
  <metadata id="CorelCorpID_0Corel-Layer"/>
  <g style="clip-path:url(#id0)">
   <image x="-36071.91" y="-8266.02" width="7669.22" height="16073.85" xlink:href="Note 10 -11i（前膜半包）_Images\Note 10 -11i（前膜半包）_ImgID1.png"/>
  </g>
  <g style="clip-path:url(#id1)">
   <image x="-27183.07" y="-8196.83" width="1279.9" height="15921.99" xlink:href="Note 10 -11i（前膜半包）_Images\Note 10 -11i（前膜半包）_ImgID2.png"/>
  </g>
  <rect class="fil0 str0" x="-35946.45" y="-8113.38" width="7420" height="15780"/>
  <path class="fil0 str0" d="M-35097.29 -7953.5l1588.57 0c34.82,0 72.55,37.68 96.62,37.68l878.57 0 0 285.89c0,152.06 124.42,276.49 276.49,276.49l0.01 0c152.07,0 276.49,-124.43 276.49,-276.49l0 -285.89 895.79 0c24.07,0 52.87,-37.68 87.36,-37.68l1621.78 0c412.5,0 750,337.52 750,750l0 0.02 344.92 0c27.5,0 50,22.61 50,50.17l0 2226.77 -148.89 0c-55,0 -100,45 -100,100l0 2111.7c0,55 45,100 100,100l148.89 0 0 466.22 -148.89 0c-55,0 -100,45 -100,100l0 910.14c0,55 45,100 100,100l148.89 0 0 4262.86 -148.89 0c-55,0 -100,45 -100,100l0 2071.05c0,55 45,100 100,100l148.89 0 0 1180.1c0,27.56 -22.5,50.17 -50,50.17l-344.92 0c-0.04,412.47 -337.52,749.93 -750,749.93l-5721.68 0c-412.48,0 -749.96,-337.46 -750,-749.93l-344.93 0c-27.49,0 -49.99,-22.61 -49.99,-50.17l0 -13828.84c0,-27.56 22.5,-50.17 49.99,-50.17l344.93 0 0 -0.02c0,-412.5 337.5,-750 750,-750z"/>
  <path class="fil0 str1" d="M-5960.75 3986.73l0 -382c412.47,-0.04 749.93,-337.52 749.93,-750l0 -5721.68c0,-412.48 -337.46,-749.96 -749.93,-750l0 -344.92c0,-27.5 -22.61,-50 -50.17,-50l-1180.1 0 0 148.89c0,55 -45,100 -100,100l-2071.05 0c-55,0 -100,-45 -100,-100l0 -148.89 -4262.86 0 0 148.89c0,55 -45,100 -100,100l-910.14 0c-55,0 -100,-45 -100,-100l0 -148.89 -466.22 0 0 148.89c0,55 -45,100 -100,100l-2111.7 0c-55,0 -100,-45 -100,-100l0 -148.89 -2226.77 0c-27.56,0 -50.17,22.5 -50.17,50l0 344.92 -0.02 0c-412.48,0 -750,337.5 -750,750l0 1621.78c0,34.49 37.68,63.29 37.68,87.36l0 895.79 285.89 0c152.06,0 276.49,124.42 276.49,276.49l0 0.01c0,152.07 -124.43,276.49 -276.49,276.49l-285.89 0 0 878.57c0,24.07 -37.68,61.8 -37.68,96.62l0 1588.57c0,412.5 337.5,750 750,750l0.02 0 0 344.93c0,27.49 22.61,49.99 50.17,49.99l13828.84 0c27.56,0 50.17,-22.5 50.17,-49.99 0,-27.49 2.52,-61.85 20.99,-81.28"/>
  <path class="fil0 str1" d="M776.58 5122.09l116.36 0c0.01,125.64 102.82,228.44 228.46,228.44l1742.94 0c125.64,0 228.45,-102.8 228.46,-228.44l105.07 0c8.38,0 15.23,-6.89 15.23,-15.29l0 -359.48 -45.35 0c-16.76,0 -30.47,-13.71 -30.47,-30.46l0 -630.88c0,-16.75 13.71,-30.46 30.47,-30.46l45.35 0 0 -1298.55 -45.35 0c-16.76,0 -30.47,-13.71 -30.47,-30.46l0 -277.25c0,-16.75 13.71,-30.46 30.47,-30.46l45.35 0 0 -142.02 -45.35 0c-16.76,0 -30.47,-13.7 -30.47,-30.46l0 -643.26c0,-16.76 13.71,-30.46 30.47,-30.46l45.35 0 0 -678.32c0,-8.39 -6.85,-15.28 -15.23,-15.28l-105.07 0 0 -0.01c0,-125.65 -102.81,-228.46 -228.46,-228.46l-494.03 0c-10.51,0 -19.28,11.48 -26.61,11.48l-272.87 0 0 87.08c0,46.32 -37.91,84.23 -84.23,84.23l0 0c-46.33,0 -84.23,-37.91 -84.23,-84.23l0 -87.08 -267.63 0c-7.33,0 -18.82,-11.48 -29.43,-11.48l-483.91 0c-125.65,0 -228.46,102.81 -228.46,228.46l0 0.01 -105.07 0c-8.38,0 -15.23,6.89 -15.23,15.28l0 4212.52c0,8.4 6.85,15.29 15.23,15.29 8.37,0 18.84,0.76 24.76,6.39"/>
 </g>
</svg>
