<?xml version="1.0" encoding="UTF-8"?>
<!DOCTYPE svg PUBLIC "-//W3C//DTD SVG 1.1//EN" "http://www.w3.org/Graphics/SVG/1.1/DTD/svg11.dtd">
<!-- Creator: CorelDRAW -->
<svg xmlns="http://www.w3.org/2000/svg" xml:space="preserve" width="40mm" height="60mm" style="shape-rendering:geometricPrecision; text-rendering:geometricPrecision; image-rendering:optimizeQuality; fill-rule:evenodd; clip-rule:evenodd"
viewBox="0 0 40 60"
 xmlns:xlink="http://www.w3.org/1999/xlink">
 <defs>
  <style type="text/css">
   <![CDATA[
    .str0 {stroke:#1F1A17;stroke-width:0.0762}
    .fil0 {fill:none}
   ]]>
  </style>
 </defs>
 <g id="图层_x0020_1">
  <metadata id="CorelCorpID_0Corel-Layer"/>
  <g id="_253721400">
   <path id="_253721712" class="fil0 str0" d="M10.3175 6.5l19.365 0c1.3314,0 2.4206,1.1218 2.4206,2.493l0 42.014c0,1.3711 -1.0892,2.493 -2.4206,2.493l-19.365 0c-1.3314,0 -2.4206,-1.1219 -2.4206,-2.493l0 -42.014c0,-1.3712 1.0892,-2.493 2.4206,-2.493z"/>
   <path id="_256608504" class="fil0 str0" d="M13.3241 7.7965l1.8288 0c0.3377,0 0.6139,0.1828 0.6139,0.4062l0 0c0,0.2235 -0.2762,0.4062 -0.6139,0.4062l-1.8288 0c-0.3377,0 -0.614,-0.1827 -0.614,-0.4062l0 0c0,-0.2234 0.2763,-0.4062 0.614,-0.4062z"/>
   <path id="_252819624" class="fil0 str0" d="M17.5303 7.8108l4.9435 0c0.2181,0 0.3965,0.1933 0.3965,0.4296l0 0c0,0.2362 -0.1784,0.4295 -0.3965,0.4295l-4.9435 0c-0.2181,0 -0.3966,-0.1933 -0.3966,-0.4295l0 0c0,-0.2363 0.1785,-0.4296 0.3966,-0.4296z"/>
   <path id="_253021168" class="fil0 str0" d="M26.0479 7.7414c0.2688,0 0.4867,0.218 0.4867,0.4867 0,0.2687 -0.2179,0.4866 -0.4867,0.4866 -0.2687,0 -0.4866,-0.2179 -0.4866,-0.4866 0,-0.2687 0.2179,-0.4867 0.4866,-0.4867z"/>
  </g>
 </g>
</svg>
