<?xml version="1.0" encoding="UTF-8"?>
<!DOCTYPE svg PUBLIC "-//W3C//DTD SVG 1.1//EN" "http://www.w3.org/Graphics/SVG/1.1/DTD/svg11.dtd">
<!-- Creator: CorelDRAW -->
<svg xmlns="http://www.w3.org/2000/svg" xml:space="preserve" width="40mm" height="60mm" style="shape-rendering:geometricPrecision; text-rendering:geometricPrecision; image-rendering:optimizeQuality; fill-rule:evenodd; clip-rule:evenodd"
viewBox="0 0 40 60"
 xmlns:xlink="http://www.w3.org/1999/xlink">
 <defs>
  <style type="text/css">
   <![CDATA[
    .str0 {stroke:black;stroke-width:0.09;stroke-linejoin:bevel}
    .fil0 {fill:none}
   ]]>
  </style>
 </defs>
 <g id="图层_x0020_1">
  <metadata id="CorelCorpID_0Corel-Layer"/>
  <path class="fil0 str0" d="M26.9361 6.5034c-0.0532,0 -0.0953,0.0416 -0.1016,0.1002 -0.0155,0.1442 -0.0513,0.2527 -0.1817,0.252 0,0 -5.3642,-0.0093 -5.3642,-0.0093 -0.1912,0 -0.3424,0.1693 -0.3649,0.4073 -0.0557,0.5863 -0.4525,1.0279 -0.9237,1.0279 -0.4713,0 -0.8681,-0.4416 -0.9237,-1.0279 -0.0226,-0.238 -0.1837,-0.4172 -0.3659,-0.4169 0,0 -1.5039,0.0002 -1.5039,0.0002 -0.184,0 -0.3531,-0.1013 -0.4398,-0.2635 0,0 -0.0393,-0.0734 -0.0393,-0.0734 0,0 -4.2475,0 -4.2475,0 0,0 -0.6457,0.0279 -0.6457,0.0279 -0.1957,0.0194 -0.3905,0.0474 -0.5837,0.0837 -0.1195,0.0247 -0.2366,0.0607 -0.3494,0.1073 0,0 -0.0067,0.0027 -0.0067,0.0027 0,0 -0.0069,0.0024 -0.0069,0.0024 -0.2861,0.0988 -0.5496,0.255 -0.7733,0.4587 -0.449,0.4597 -0.7025,1.0759 -0.7062,1.7179 0,0 0,42.1981 0,42.1981 0.0038,0.643 0.2568,1.2587 0.7061,1.7185 0.2239,0.2038 0.4871,0.36 0.7733,0.4587 0,0 0.007,0.0024 0.007,0.0024 0,0 0.0068,0.0028 0.0068,0.0028 0.1128,0.0466 0.2298,0.0825 0.3493,0.1073 0.1933,0.0363 0.388,0.0642 0.5837,0.0837 0,0 0.6457,0.0279 0.6457,0.0279 0,0 15.0402,0 15.0402,0 0,0 0.6457,-0.0279 0.6457,-0.0279 0.1956,-0.0195 0.3904,-0.0474 0.5837,-0.0837 0.1194,-0.0248 0.2365,-0.0607 0.3493,-0.1073 0,0 0.0068,-0.0028 0.0068,-0.0028 0,0 0.0069,-0.0024 0.0069,-0.0024 0.2861,-0.0987 0.5495,-0.255 0.7733,-0.4587 0.4489,-0.4596 0.7025,-1.0758 0.7062,-1.7178 0,0 0,-42.1981 0,-42.1981 -0.0039,-0.643 -0.2568,-1.2587 -0.7061,-1.7185 -0.2239,-0.2038 -0.4872,-0.36 -0.7734,-0.4588 0,0 -0.0069,-0.0024 -0.0069,-0.0024 0,0 -0.0068,-0.0028 -0.0068,-0.0028 -0.1128,-0.0465 -0.2299,-0.0825 -0.3493,-0.1072 -0.1933,-0.0363 -0.3881,-0.0643 -0.5837,-0.0837 0,0 -0.6457,-0.0279 -0.6457,-0.0279 0,0 -0.584,0.0034 -0.584,0.0034z"/>
 </g>
</svg>
