<?xml version="1.0" encoding="UTF-8"?>
<!DOCTYPE svg PUBLIC "-//W3C//DTD SVG 1.1//EN" "http://www.w3.org/Graphics/SVG/1.1/DTD/svg11.dtd">
<!-- Creator: CorelDRAW X8 -->
<svg xmlns="http://www.w3.org/2000/svg" xml:space="preserve" width="40mm" height="60mm" version="1.1" style="shape-rendering:geometricPrecision; text-rendering:geometricPrecision; image-rendering:optimizeQuality; fill-rule:evenodd; clip-rule:evenodd"
viewBox="0 0 4000 6000"
 xmlns:xlink="http://www.w3.org/1999/xlink">
 <defs>
  <style type="text/css">
   <![CDATA[
    .str0 {stroke:#332C2B;stroke-width:7.62}
    .fil0 {fill:none}
   ]]>
  </style>
 </defs>
 <g id="图层_x0020_1">
  <metadata id="CorelCorpID_0Corel-Layer"/>
  <path class="fil0 str0" d="M990 5350l1891 0c130,0 235,-106 235,-235l0 -4230c0,-129 -105,-235 -235,-235l-1762 0c-129,0 -235,106 -235,235l0 4230c0,129 106,235 235,235l192 0m794 -3573c3,-62 -69,-110 -96,-112 -93,0 -168,76 -168,169 0,93 75,169 168,169 94,0 169,-76 169,-169 0,-93 -75,-169 -169,-169m-560 -624l1117 0c101,0 183,83 183,184l0 0c0,101 -82,183 -183,183l-1117 0c-101,0 -183,-82 -183,-183l0 0c0,-101 82,-184 183,-184zm0 46l1117 0c76,0 138,62 138,138l0 0c0,75 -62,137 -138,137l-1117 0c-75,0 -137,-62 -137,-137l0 0c0,-76 62,-138 137,-138zm1187 97c2,-42 -49,-76 -67,-77 -65,0 -117,52 -117,117 0,65 52,118 117,118 65,0 118,-53 118,-118 0,-65 -53,-117 -118,-117m-204 77c2,-42 -48,-76 -66,-77 -65,0 -118,52 -118,117 0,65 53,118 118,118 65,0 117,-53 117,-118 0,-65 -52,-117 -117,-117m-222 77c2,-42 -48,-76 -66,-77 -65,0 -118,52 -118,117 0,65 53,118 118,118 64,0 117,-53 117,-118 0,-65 -53,-117 -117,-117m-212 77c2,-42 -48,-76 -66,-77 -65,0 -118,52 -118,117 0,65 53,118 118,118 65,0 117,-53 117,-118 0,-65 -52,-117 -117,-117m-212 77c1,-42 -49,-76 -67,-77 -65,0 -118,52 -118,117 0,65 53,118 118,118 65,0 117,-53 117,-118 0,-65 -52,-117 -117,-117"/>
 </g>
</svg>
