<?xml version="1.0" encoding="UTF-8"?>
<!DOCTYPE svg PUBLIC "-//W3C//DTD SVG 1.1//EN" "http://www.w3.org/Graphics/SVG/1.1/DTD/svg11.dtd">
<!-- Creator: CorelDRAW X8 -->
<svg xmlns="http://www.w3.org/2000/svg" xml:space="preserve" width="40mm" height="60mm" version="1.1" style="shape-rendering:geometricPrecision; text-rendering:geometricPrecision; image-rendering:optimizeQuality; fill-rule:evenodd; clip-rule:evenodd"
viewBox="0 0 4000 6000"
 xmlns:xlink="http://www.w3.org/1999/xlink">
 <defs>
  <style type="text/css">
   <![CDATA[
    .str0 {stroke:black;stroke-width:7.62}
    .fil0 {fill:none}
   ]]>
  </style>
 </defs>
 <g id="图层_x0020_1">
  <metadata id="CorelCorpID_0Corel-Layer"/>
  <path class="fil0 str0" d="M2045 1816c-1,-16 -15,-30 -43,-32 -102,0 -184,82 -184,183 0,101 82,183 184,183 101,0 183,-82 183,-183 0,-101 -82,-183 -183,-183m-408 -456c-12,3 -21,7 -21,28l0 18c0,24 20,44 44,44l0 0c24,0 44,-20 44,-44l0 -129c0,-25 -20,-44 -44,-44l0 0c-24,0 -44,19 -44,44l0 111m-220 -524c-1,-14 -13,-27 -38,-29 -89,0 -162,73 -162,162 0,89 73,161 162,161 89,0 161,-72 161,-161 0,-89 -72,-162 -161,-162m35 367c-1,-13 -13,-26 -38,-28 -89,0 -161,72 -161,161 0,89 72,162 161,162 89,0 161,-73 161,-162 0,-89 -72,-161 -161,-161m41 373c-1,-14 -13,-27 -38,-29 -89,0 -162,72 -162,162 0,89 73,161 162,161 89,0 161,-72 161,-161 0,-90 -72,-162 -161,-162m-105 -700l447 0c48,0 88,40 88,88l0 866c0,48 -40,88 -88,88l-447 0c-48,0 -88,-40 -88,-88l0 -866c0,-48 40,-88 88,-88zm0 -36l455 0c63,0 114,51 114,113l0 891c0,62 -51,113 -114,113l-455 0c-63,0 -114,-51 -114,-113l0 -891c0,-62 51,-113 114,-113zm-147 4549l1748 0c106,0 194,-88 194,-194l0 -4261c0,-107 -88,-194 -194,-194l-1622 0c-106,0 -194,87 -194,194l0 4261c0,106 88,194 194,194l77 0c56,0 101,19 121,51"/>
 </g>
</svg>
