<?xml version="1.0" encoding="UTF-8"?>
<!DOCTYPE svg PUBLIC "-//W3C//DTD SVG 1.1//EN" "http://www.w3.org/Graphics/SVG/1.1/DTD/svg11.dtd">
<!-- Creator: CorelDRAW 2020 (64-Bit) -->
<svg xmlns="http://www.w3.org/2000/svg" xml:space="preserve" width="40mm" height="60mm" version="1.1" style="shape-rendering:geometricPrecision; text-rendering:geometricPrecision; image-rendering:optimizeQuality; fill-rule:evenodd; clip-rule:evenodd"
viewBox="0 0 4000 6000"
 xmlns:xlink="http://www.w3.org/1999/xlink"
 xmlns:xodm="http://www.corel.com/coreldraw/odm/2003">
 <defs>
  <style type="text/css">
   <![CDATA[
    .str0 {stroke:#332C2B;stroke-width:7.62;stroke-miterlimit:22.9256}
    .fil0 {fill:none}
   ]]>
  </style>
 </defs>
 <g id="图层_x0020_1">
  <metadata id="CorelCorpID_0Corel-Layer"/>
  <path class="fil0 str0" d="M2021.15 771.57c3.59,-23.06 -15.8,-39.23 -25.42,-39.97 -34.23,0 -61.98,27.75 -61.98,61.97 0,34.23 27.75,61.98 61.98,61.98 34.22,0 61.97,-27.75 61.97,-61.98 0,-34.22 -27.75,-61.97 -61.97,-61.97m1296.16 1507.62c0,13 -10.6,23.61 -23.6,23.61m0 0l-154.78 0c-9.74,0 -17.71,7.97 -17.71,17.71l0 347.43c0,9.74 7.97,17.7 17.71,17.7l154.78 0m0 0c13,0 23.6,10.61 23.6,23.61m0 0l0 2327.33c0,8.21 -6.71,14.92 -14.92,14.92l-206.41 0 0 29.24c0,139.7 -114.37,254.07 -254.07,254.07l-1862.71 0m2338.11 -3055.62l0 -1285.32c0,-8.21 -6.71,-14.92 -14.92,-14.92l-206.41 0 0 -29.24c0,-139.7 -114.33,-254.07 -254.07,-254.07 -564.83,0 -1081.35,0 -1646.19,0 -139.73,0 -254.06,114.33 -254.06,254.07l0 29.24 -206.41 0c-8.21,0 -14.92,6.71 -14.92,14.92l0 952.68c0,13 10.6,23.61 23.6,23.61l153.46 0c9.74,0 17.71,7.97 17.71,17.7l0 677.13c0,9.73 -7.97,17.7 -17.71,17.7l-153.46 0c-13,0 -23.6,10.61 -23.6,23.61l0 2330.28c0,8.21 6.71,14.92 14.92,14.92l206.41 0 0 29.24c0,139.74 114.37,254.07 254.06,254.07l71.6 0c197.1,0 312.41,35.42 364.66,60.83"/>
 </g>
</svg>
