<?xml version="1.0" encoding="UTF-8"?>
<!DOCTYPE svg PUBLIC "-//W3C//DTD SVG 1.1//EN" "http://www.w3.org/Graphics/SVG/1.1/DTD/svg11.dtd">
<!-- Creator: CorelDRAW X8 -->
<svg xmlns="http://www.w3.org/2000/svg" xml:space="preserve" width="40mm" height="60mm" version="1.1" style="shape-rendering:geometricPrecision; text-rendering:geometricPrecision; image-rendering:optimizeQuality; fill-rule:evenodd; clip-rule:evenodd"
viewBox="0 0 4000 6000"
 xmlns:xlink="http://www.w3.org/1999/xlink">
 <defs>
  <style type="text/css">
   <![CDATA[
    .str0 {stroke:#332C2B;stroke-width:10}
    .fil0 {fill:none}
   ]]>
  </style>
 </defs>
 <g id="图层_x0020_1">
  <metadata id="CorelCorpID_0Corel-Layer"/>
  <path class="fil0 str0" d="M1684 805c0,-19 -22,-33 -30,-34 -29,0 -52,23 -52,52 0,29 23,52 52,52 29,0 52,-23 52,-52 0,-29 -23,-52 -52,-52m302 48c-5,-20 -16,-36 -65,-36l-42 0c-22,0 -40,18 -40,40l0 0c0,22 18,40 40,40l303 0c22,0 40,-18 40,-40l0 0c0,-22 -18,-40 -40,-40l-261 0m-867 4567l1779 0c190,0 346,-155 346,-346l0 -4008c0,-191 -156,-346 -346,-346l-1606 0c-190,0 -346,155 -346,346l0 4008c0,191 156,346 346,346l275 0"/>
 </g>
</svg>
