<?xml version="1.0" encoding="UTF-8"?>
<!DOCTYPE svg PUBLIC "-//W3C//DTD SVG 1.1//EN" "http://www.w3.org/Graphics/SVG/1.1/DTD/svg11.dtd">
<!-- Creator: CorelDRAW X8 -->
<svg xmlns="http://www.w3.org/2000/svg" xml:space="preserve" width="40mm" height="60mm" version="1.1" style="shape-rendering:geometricPrecision; text-rendering:geometricPrecision; image-rendering:optimizeQuality; fill-rule:evenodd; clip-rule:evenodd"
viewBox="0 0 4000 6000"
 xmlns:xlink="http://www.w3.org/1999/xlink">
 <defs>
  <style type="text/css">
   <![CDATA[
    .str0 {stroke:black;stroke-width:7.62}
    .fil0 {fill:none}
   ]]>
  </style>
 </defs>
 <g id="图层_x0020_1">
  <metadata id="CorelCorpID_0Corel-Layer"/>
  <g id="_2185025852272">
   <path class="fil0 str0" d="M572 2074l744 0c66,0 120,-54 120,-120l0 -1184c0,-66 -54,-120 -120,-120l-605 0c-66,0 -120,54 -120,120l0 1184c0,66 54,120 120,120 66,0 147,44 147,74"/>
   <path class="fil0 str0" d="M572 3675l744 0c66,0 120,-54 120,-120l0 -1184c0,-66 -54,-120 -120,-120l-605 0c-66,0 -120,54 -120,120l0 1184c0,66 54,120 120,120 66,0 147,44 147,74"/>
   <path class="fil0 str0" d="M572 5275l744 0c66,0 120,-54 120,-120l0 -1183c0,-66 -54,-120 -120,-120l-605 0c-66,0 -120,54 -120,120l0 1183c0,66 54,120 120,120 66,0 147,44 147,75"/>
   <path class="fil0 str0" d="M1568 2074l744 0c66,0 120,-54 120,-120l0 -1184c0,-66 -54,-120 -120,-120l-605 0c-66,0 -120,54 -120,120l0 1184c0,66 54,120 120,120 66,0 147,44 147,74"/>
   <path class="fil0 str0" d="M1568 3675l744 0c66,0 120,-54 120,-120l0 -1184c0,-66 -54,-120 -120,-120l-605 0c-66,0 -120,54 -120,120l0 1184c0,66 54,120 120,120 66,0 147,44 147,74"/>
   <path class="fil0 str0" d="M1568 5275l744 0c66,0 120,-54 120,-120l0 -1183c0,-66 -54,-120 -120,-120l-605 0c-66,0 -120,54 -120,120l0 1183c0,66 54,120 120,120 66,0 147,44 147,75"/>
   <path class="fil0 str0" d="M2564 2074l744 0c66,0 120,-54 120,-120l0 -1184c0,-66 -54,-120 -120,-120l-605 0c-66,0 -120,54 -120,120l0 1184c0,66 54,120 120,120 66,0 147,44 147,74"/>
   <path class="fil0 str0" d="M2564 3675l744 0c66,0 120,-54 120,-120l0 -1184c0,-66 -54,-120 -120,-120l-605 0c-66,0 -120,54 -120,120l0 1184c0,66 54,120 120,120 66,0 147,44 147,74"/>
   <path class="fil0 str0" d="M2564 5275l744 0c66,0 120,-54 120,-120l0 -1183c0,-66 -54,-120 -120,-120l-605 0c-66,0 -120,54 -120,120l0 1183c0,66 54,120 120,120 66,0 147,44 147,75"/>
   <path class="fil0 str0" d="M760 691l499 0c69,0 125,57 125,125l0 1081c0,69 -56,125 -125,125l-499 0c-69,0 -125,-56 -125,-125l0 -1081c0,-68 56,-125 125,-125z"/>
   <path class="fil0 str0" d="M760 2292l499 0c69,0 125,56 125,125l0 1081c0,69 -56,125 -125,125l-499 0c-69,0 -125,-56 -125,-125l0 -1081c0,-69 56,-125 125,-125z"/>
   <path class="fil0 str0" d="M760 3893l499 0c69,0 125,56 125,125l0 1081c0,69 -56,125 -125,125l-499 0c-69,0 -125,-56 -125,-125l0 -1081c0,-69 56,-125 125,-125z"/>
   <path class="fil0 str0" d="M1756 691l499 0c69,0 125,57 125,125l0 1081c0,69 -56,125 -125,125l-499 0c-69,0 -125,-56 -125,-125l0 -1081c0,-68 56,-125 125,-125z"/>
   <path class="fil0 str0" d="M1756 2292l499 0c69,0 125,56 125,125l0 1081c0,69 -56,125 -125,125l-499 0c-69,0 -125,-56 -125,-125l0 -1081c0,-69 56,-125 125,-125z"/>
   <path class="fil0 str0" d="M1756 3893l499 0c69,0 125,56 125,125l0 1081c0,69 -56,125 -125,125l-499 0c-69,0 -125,-56 -125,-125l0 -1081c0,-69 56,-125 125,-125z"/>
   <path class="fil0 str0" d="M2752 691l499 0c69,0 125,57 125,125l0 1081c0,69 -56,125 -125,125l-499 0c-69,0 -125,-56 -125,-125l0 -1081c0,-68 56,-125 125,-125z"/>
   <path class="fil0 str0" d="M2752 2292l499 0c69,0 125,56 125,125l0 1081c0,69 -56,125 -125,125l-499 0c-69,0 -125,-56 -125,-125l0 -1081c0,-69 56,-125 125,-125z"/>
   <path class="fil0 str0" d="M2752 3893l499 0c69,0 125,56 125,125l0 1081c0,69 -56,125 -125,125l-499 0c-69,0 -125,-56 -125,-125l0 -1081c0,-69 56,-125 125,-125z"/>
   <path class="fil0 str0" d="M1171 1799c-4,-14 -10,-25 -35,-25l-21 0c-30,0 -54,24 -54,53l0 0c0,29 24,53 54,53l106 0c30,0 54,-24 54,-53l0 0c0,-29 -24,-53 -54,-53l-85 0"/>
   <path class="fil0 str0" d="M1171 3400c-4,-15 -10,-25 -35,-25l-21 0c-30,0 -54,24 -54,53l0 0c0,29 24,53 54,53l106 0c30,0 54,-24 54,-53l0 0c0,-29 -24,-53 -54,-53l-85 0"/>
   <path class="fil0 str0" d="M1171 5001c-4,-15 -10,-26 -35,-26l-21 0c-30,0 -54,24 -54,54l0 0c0,29 24,53 54,53l106 0c30,0 54,-24 54,-53l0 0c0,-30 -24,-54 -54,-54l-85 0"/>
   <path class="fil0 str0" d="M2167 1799c-4,-14 -10,-25 -35,-25l-21 0c-30,0 -54,24 -54,53l0 0c0,29 24,53 54,53l107 0c29,0 53,-24 53,-53l0 0c0,-29 -24,-53 -53,-53l-86 0"/>
   <path class="fil0 str0" d="M2167 3400c-4,-15 -10,-25 -35,-25l-21 0c-30,0 -54,24 -54,53l0 0c0,29 24,53 54,53l107 0c29,0 53,-24 53,-53l0 0c0,-29 -24,-53 -53,-53l-86 0"/>
   <path class="fil0 str0" d="M2167 5001c-4,-15 -10,-26 -35,-26l-21 0c-30,0 -54,24 -54,54l0 0c0,29 24,53 54,53l107 0c29,0 53,-24 53,-53l0 0c0,-30 -24,-54 -53,-54l-86 0"/>
   <path class="fil0 str0" d="M3163 1799c-4,-14 -10,-25 -35,-25l-21 0c-29,0 -53,24 -53,53l0 0c0,29 24,53 53,53l107 0c29,0 53,-24 53,-53l0 0c0,-29 -24,-53 -53,-53l-86 0"/>
   <path class="fil0 str0" d="M3163 3400c-4,-15 -10,-25 -35,-25l-21 0c-29,0 -53,24 -53,53l0 0c0,29 24,53 53,53l107 0c29,0 53,-24 53,-53l0 0c0,-29 -24,-53 -53,-53l-86 0"/>
   <path class="fil0 str0" d="M3163 5001c-4,-15 -10,-26 -35,-26l-21 0c-29,0 -53,24 -53,54l0 0c0,29 24,53 53,53l107 0c29,0 53,-24 53,-53l0 0c0,-30 -24,-54 -53,-54l-86 0"/>
   <path class="fil0 str0" d="M875 1749c0,-8 -8,-16 -23,-17 -54,0 -98,43 -98,98 0,54 44,97 98,97 54,0 98,-43 98,-97 0,-55 -44,-98 -98,-98"/>
   <path class="fil0 str0" d="M875 3350c0,-9 -8,-16 -23,-17 -54,0 -98,43 -98,97 0,54 44,98 98,98 54,0 98,-44 98,-98 0,-54 -44,-97 -98,-97"/>
   <path class="fil0 str0" d="M875 4951c0,-9 -8,-16 -23,-18 -54,0 -98,44 -98,98 0,54 44,98 98,98 54,0 98,-44 98,-98 0,-54 -44,-98 -98,-98"/>
   <path class="fil0 str0" d="M1871 1749c0,-8 -8,-16 -23,-17 -54,0 -98,43 -98,98 0,54 44,97 98,97 54,0 98,-43 98,-97 0,-55 -44,-98 -98,-98"/>
   <path class="fil0 str0" d="M1871 3350c0,-9 -8,-16 -23,-17 -54,0 -98,43 -98,97 0,54 44,98 98,98 54,0 98,-44 98,-98 0,-54 -44,-97 -98,-97"/>
   <path class="fil0 str0" d="M1871 4951c0,-9 -8,-16 -23,-18 -54,0 -98,44 -98,98 0,54 44,98 98,98 54,0 98,-44 98,-98 0,-54 -44,-98 -98,-98"/>
   <path class="fil0 str0" d="M2867 1749c0,-8 -7,-16 -23,-17 -54,0 -98,43 -98,98 0,54 44,97 98,97 54,0 98,-43 98,-97 0,-55 -44,-98 -98,-98"/>
   <path class="fil0 str0" d="M2867 3350c0,-9 -7,-16 -23,-17 -54,0 -98,43 -98,97 0,54 44,98 98,98 54,0 98,-44 98,-98 0,-54 -44,-97 -98,-97"/>
   <path class="fil0 str0" d="M2867 4951c0,-9 -7,-16 -23,-18 -54,0 -98,44 -98,98 0,54 44,98 98,98 54,0 98,-44 98,-98 0,-54 -44,-98 -98,-98"/>
   <path class="fil0 str0" d="M901 1218c-1,-16 -15,-31 -45,-34 -106,0 -192,86 -192,193 0,106 86,192 192,192 106,0 192,-86 192,-192 0,-107 -86,-193 -192,-193"/>
   <path class="fil0 str0" d="M901 2819c-1,-16 -15,-31 -45,-34 -106,0 -192,86 -192,192 0,106 86,192 192,192 106,0 192,-86 192,-192 0,-106 -86,-192 -192,-192"/>
   <path class="fil0 str0" d="M901 4420c-1,-16 -15,-32 -45,-34 -106,0 -192,86 -192,192 0,106 86,192 192,192 106,0 192,-86 192,-192 0,-106 -86,-192 -192,-192"/>
   <path class="fil0 str0" d="M1897 1218c-1,-16 -15,-31 -45,-34 -106,0 -192,86 -192,193 0,106 86,192 192,192 106,0 192,-86 192,-192 0,-107 -86,-193 -192,-193"/>
   <path class="fil0 str0" d="M1897 2819c-1,-16 -15,-31 -45,-34 -106,0 -192,86 -192,192 0,106 86,192 192,192 106,0 192,-86 192,-192 0,-106 -86,-192 -192,-192"/>
   <path class="fil0 str0" d="M1897 4420c-1,-16 -15,-32 -45,-34 -106,0 -192,86 -192,192 0,106 86,192 192,192 106,0 192,-86 192,-192 0,-106 -86,-192 -192,-192"/>
   <path class="fil0 str0" d="M2893 1218c-1,-16 -15,-31 -45,-34 -106,0 -192,86 -192,193 0,106 86,192 192,192 106,0 192,-86 192,-192 0,-107 -86,-193 -192,-193"/>
   <path class="fil0 str0" d="M2893 2819c-1,-16 -15,-31 -45,-34 -106,0 -192,86 -192,192 0,106 86,192 192,192 106,0 192,-86 192,-192 0,-106 -86,-192 -192,-192"/>
   <path class="fil0 str0" d="M2893 4420c-1,-16 -15,-32 -45,-34 -106,0 -192,86 -192,192 0,106 86,192 192,192 106,0 192,-86 192,-192 0,-106 -86,-192 -192,-192"/>
   <path class="fil0 str0" d="M898 767c-2,-16 -16,-31 -46,-34 -106,0 -192,86 -192,192 0,106 86,192 192,192 106,0 192,-86 192,-192 0,-106 -86,-192 -192,-192"/>
   <path class="fil0 str0" d="M898 2368c-2,-16 -16,-32 -46,-34 -106,0 -192,86 -192,192 0,106 86,192 192,192 106,0 192,-86 192,-192 0,-106 -86,-192 -192,-192"/>
   <path class="fil0 str0" d="M898 3969c-2,-17 -16,-32 -46,-34 -106,0 -192,86 -192,192 0,106 86,192 192,192 106,0 192,-86 192,-192 0,-106 -86,-192 -192,-192"/>
   <path class="fil0 str0" d="M1894 767c-2,-16 -16,-31 -46,-34 -106,0 -192,86 -192,192 0,106 86,192 192,192 106,0 192,-86 192,-192 0,-106 -86,-192 -192,-192"/>
   <path class="fil0 str0" d="M1894 2368c-2,-16 -16,-32 -46,-34 -106,0 -192,86 -192,192 0,106 86,192 192,192 106,0 192,-86 192,-192 0,-106 -86,-192 -192,-192"/>
   <path class="fil0 str0" d="M1894 3969c-2,-17 -16,-32 -46,-34 -106,0 -192,86 -192,192 0,106 86,192 192,192 106,0 192,-86 192,-192 0,-106 -86,-192 -192,-192"/>
   <path class="fil0 str0" d="M2890 767c-1,-16 -16,-31 -46,-34 -106,0 -192,86 -192,192 0,106 86,192 192,192 106,0 192,-86 192,-192 0,-106 -86,-192 -192,-192"/>
   <path class="fil0 str0" d="M2890 2368c-1,-16 -16,-32 -46,-34 -106,0 -192,86 -192,192 0,106 86,192 192,192 106,0 192,-86 192,-192 0,-106 -86,-192 -192,-192"/>
   <path class="fil0 str0" d="M2890 3969c-1,-17 -16,-32 -46,-34 -106,0 -192,86 -192,192 0,106 86,192 192,192 106,0 192,-86 192,-192 0,-106 -86,-192 -192,-192"/>
  </g>
  <path class="fil0 str0" d="M-14509 6530l0 -2090c0,-186 -152,-337 -338,-337l-3327 0c-185,0 -337,151 -337,337l0 1700c0,185 152,337 337,337l3327 0c186,0 338,-152 338,-337 0,-186 124,-414 210,-414"/>
  <path class="fil0 str0" d="M-10009 6530l0 -2090c0,-186 -152,-337 -338,-337l-3327 0c-185,0 -337,151 -337,337l0 1700c0,185 152,337 337,337l3327 0c186,0 338,-152 338,-337 0,-186 124,-414 210,-414"/>
  <path class="fil0 str0" d="M-5509 6530l0 -2090c0,-186 -152,-337 -338,-337l-3327 0c-185,0 -337,151 -337,337l0 1700c0,185 152,337 337,337l3327 0c186,0 338,-152 338,-337 0,-186 124,-414 210,-414"/>
  <path class="fil0 str0" d="M-14509 3730l0 -2090c0,-186 -152,-337 -338,-337l-3327 0c-185,0 -337,151 -337,337l0 1700c0,185 152,337 337,337l3327 0c186,0 338,-152 338,-337 0,-186 124,-414 210,-414"/>
  <path class="fil0 str0" d="M-10009 3730l0 -2090c0,-186 -152,-337 -338,-337l-3327 0c-185,0 -337,151 -337,337l0 1700c0,185 152,337 337,337l3327 0c186,0 338,-152 338,-337 0,-186 124,-414 210,-414"/>
  <path class="fil0 str0" d="M-5509 3730l0 -2090c0,-186 -152,-337 -338,-337l-3327 0c-185,0 -337,151 -337,337l0 1700c0,185 152,337 337,337l3327 0c186,0 338,-152 338,-337 0,-186 124,-414 210,-414"/>
  <path class="fil0 str0" d="M-14509 930l0 -2090c0,-186 -152,-337 -338,-337l-3327 0c-185,0 -337,151 -337,337l0 1700c0,185 152,337 337,337l3327 0c186,0 338,-152 338,-337 0,-186 124,-414 210,-414"/>
  <path class="fil0 str0" d="M-10009 930l0 -2090c0,-186 -152,-337 -338,-337l-3327 0c-185,0 -337,151 -337,337l0 1700c0,185 152,337 337,337l3327 0c186,0 338,-152 338,-337 0,-186 124,-414 210,-414"/>
  <path class="fil0 str0" d="M-5509 930l0 -2090c0,-186 -152,-337 -338,-337l-3327 0c-185,0 -337,151 -337,337l0 1700c0,185 152,337 337,337l3327 0c186,0 338,-152 338,-337 0,-186 124,-414 210,-414"/>
  <path class="fil0 str0" d="M-18395 6002l0 -1402c0,-194 158,-353 352,-353l3038 0c193,0 352,159 352,353l0 1402c0,194 -159,352 -352,352l-3038 0c-194,0 -352,-158 -352,-352z"/>
  <path class="fil0 str0" d="M-13895 6002l0 -1402c0,-194 158,-353 352,-353l3038 0c193,0 352,159 352,353l0 1402c0,194 -159,352 -352,352l-3038 0c-194,0 -352,-158 -352,-352z"/>
  <path class="fil0 str0" d="M-9395 6002l0 -1402c0,-194 158,-353 352,-353l3038 0c193,0 352,159 352,353l0 1402c0,194 -159,352 -352,352l-3038 0c-194,0 -352,-158 -352,-352z"/>
  <path class="fil0 str0" d="M-18395 3202l0 -1402c0,-194 158,-353 352,-353l3038 0c193,0 352,159 352,353l0 1402c0,194 -159,352 -352,352l-3038 0c-194,0 -352,-158 -352,-352z"/>
  <path class="fil0 str0" d="M-13895 3202l0 -1402c0,-194 158,-353 352,-353l3038 0c193,0 352,159 352,353l0 1402c0,194 -159,352 -352,352l-3038 0c-194,0 -352,-158 -352,-352z"/>
  <path class="fil0 str0" d="M-9395 3202l0 -1402c0,-194 158,-353 352,-353l3038 0c193,0 352,159 352,353l0 1402c0,194 -159,352 -352,352l-3038 0c-194,0 -352,-158 -352,-352z"/>
  <path class="fil0 str0" d="M-18395 402l0 -1403c0,-193 158,-352 352,-352l3038 0c193,0 352,159 352,352l0 1403c0,194 -159,352 -352,352l-3038 0c-194,0 -352,-158 -352,-352z"/>
  <path class="fil0 str0" d="M-13895 402l0 -1403c0,-193 158,-352 352,-352l3038 0c193,0 352,159 352,352l0 1403c0,194 -159,352 -352,352l-3038 0c-194,0 -352,-158 -352,-352z"/>
  <path class="fil0 str0" d="M-9395 402l0 -1403c0,-193 158,-352 352,-352l3038 0c193,0 352,159 352,352l0 1403c0,194 -159,352 -352,352l-3038 0c-194,0 -352,-158 -352,-352z"/>
  <path class="fil0 str0" d="M-15280 4848c-42,11 -72,26 -72,98l0 59c0,82 67,150 150,150l0 0c82,0 150,-68 150,-150l0 -300c0,-83 -68,-150 -150,-150l0 0c-83,0 -150,67 -150,150l0 241"/>
  <path class="fil0 str0" d="M-10780 4848c-42,11 -72,26 -72,98l0 59c0,82 67,150 150,150l0 0c82,0 150,-68 150,-150l0 -300c0,-83 -68,-150 -150,-150l0 0c-83,0 -150,67 -150,150l0 241"/>
  <path class="fil0 str0" d="M-6280 4848c-42,11 -72,26 -72,98l0 59c0,82 67,150 150,150l0 0c82,0 150,-68 150,-150l0 -300c0,-83 -68,-150 -150,-150l0 0c-83,0 -150,67 -150,150l0 241"/>
  <path class="fil0 str0" d="M-15280 2048c-42,11 -72,26 -72,98l0 59c0,82 67,150 150,150l0 0c82,0 150,-68 150,-150l0 -300c0,-83 -68,-150 -150,-150l0 0c-83,0 -150,67 -150,150l0 241"/>
  <path class="fil0 str0" d="M-10780 2048c-42,11 -72,26 -72,98l0 59c0,82 67,150 150,150l0 0c82,0 150,-68 150,-150l0 -300c0,-83 -68,-150 -150,-150l0 0c-83,0 -150,67 -150,150l0 241"/>
  <path class="fil0 str0" d="M-6280 2048c-42,11 -72,26 -72,98l0 59c0,82 67,150 150,150l0 0c82,0 150,-68 150,-150l0 -300c0,-83 -68,-150 -150,-150l0 0c-83,0 -150,67 -150,150l0 241"/>
  <path class="fil0 str0" d="M-15280 -752c-42,11 -72,26 -72,98l0 59c0,82 67,150 150,150l0 0c82,0 150,-68 150,-150l0 -300c0,-83 -68,-150 -150,-150l0 0c-83,0 -150,67 -150,150l0 241"/>
  <path class="fil0 str0" d="M-10780 -752c-42,11 -72,26 -72,98l0 59c0,82 67,150 150,150l0 0c82,0 150,-68 150,-150l0 -300c0,-83 -68,-150 -150,-150l0 0c-83,0 -150,67 -150,150l0 241"/>
  <path class="fil0 str0" d="M-6280 -752c-42,11 -72,26 -72,98l0 59c0,82 67,150 150,150l0 0c82,0 150,-68 150,-150l0 -300c0,-83 -68,-150 -150,-150l0 0c-83,0 -150,67 -150,150l0 241"/>
  <path class="fil0 str0" d="M-15422 5678c-23,2 -45,22 -48,65 0,152 123,275 275,275 151,0 275,-123 275,-275 0,-152 -124,-275 -275,-275 -152,0 -275,123 -275,275"/>
  <path class="fil0 str0" d="M-10922 5678c-23,2 -45,22 -48,65 0,152 123,275 275,275 151,0 275,-123 275,-275 0,-152 -124,-275 -275,-275 -152,0 -275,123 -275,275"/>
  <path class="fil0 str0" d="M-6422 5678c-23,2 -45,22 -48,65 0,152 123,275 275,275 151,0 275,-123 275,-275 0,-152 -124,-275 -275,-275 -152,0 -275,123 -275,275"/>
  <path class="fil0 str0" d="M-15422 2878c-23,2 -45,22 -48,65 0,152 123,275 275,275 151,0 275,-123 275,-275 0,-152 -124,-275 -275,-275 -152,0 -275,123 -275,275"/>
  <path class="fil0 str0" d="M-10922 2878c-23,2 -45,22 -48,65 0,152 123,275 275,275 151,0 275,-123 275,-275 0,-152 -124,-275 -275,-275 -152,0 -275,123 -275,275"/>
  <path class="fil0 str0" d="M-6422 2878c-23,2 -45,22 -48,65 0,152 123,275 275,275 151,0 275,-123 275,-275 0,-152 -124,-275 -275,-275 -152,0 -275,123 -275,275"/>
  <path class="fil0 str0" d="M-15422 78c-23,2 -45,22 -48,65 0,152 123,275 275,275 151,0 275,-123 275,-275 0,-152 -124,-275 -275,-275 -152,0 -275,123 -275,275"/>
  <path class="fil0 str0" d="M-10922 78c-23,2 -45,22 -48,65 0,152 123,275 275,275 151,0 275,-123 275,-275 0,-152 -124,-275 -275,-275 -152,0 -275,123 -275,275"/>
  <path class="fil0 str0" d="M-6422 78c-23,2 -45,22 -48,65 0,152 123,275 275,275 151,0 275,-123 275,-275 0,-152 -124,-275 -275,-275 -152,0 -275,123 -275,275"/>
  <path class="fil0 str0" d="M-16914 5605c-45,4 -88,44 -95,128 0,298 242,540 540,540 298,0 540,-242 540,-540 0,-298 -242,-540 -540,-540 -298,0 -540,242 -540,540"/>
  <path class="fil0 str0" d="M-12414 5605c-45,4 -88,44 -95,128 0,298 242,540 540,540 298,0 540,-242 540,-540 0,-298 -242,-540 -540,-540 -298,0 -540,242 -540,540"/>
  <path class="fil0 str0" d="M-7914 5605c-45,4 -88,44 -95,128 0,298 242,540 540,540 298,0 540,-242 540,-540 0,-298 -242,-540 -540,-540 -298,0 -540,242 -540,540"/>
  <path class="fil0 str0" d="M-16914 2805c-45,4 -88,44 -95,128 0,298 242,540 540,540 298,0 540,-242 540,-540 0,-298 -242,-540 -540,-540 -298,0 -540,242 -540,540"/>
  <path class="fil0 str0" d="M-12414 2805c-45,4 -88,44 -95,128 0,298 242,540 540,540 298,0 540,-242 540,-540 0,-298 -242,-540 -540,-540 -298,0 -540,242 -540,540"/>
  <path class="fil0 str0" d="M-7914 2805c-45,4 -88,44 -95,128 0,298 242,540 540,540 298,0 540,-242 540,-540 0,-298 -242,-540 -540,-540 -298,0 -540,242 -540,540"/>
  <path class="fil0 str0" d="M-16914 5c-45,4 -88,44 -95,128 0,298 242,540 540,540 298,0 540,-242 540,-540 0,-298 -242,-540 -540,-540 -298,0 -540,242 -540,540"/>
  <path class="fil0 str0" d="M-12414 5c-45,4 -88,44 -95,128 0,298 242,540 540,540 298,0 540,-242 540,-540 0,-298 -242,-540 -540,-540 -298,0 -540,242 -540,540"/>
  <path class="fil0 str0" d="M-7914 5c-45,4 -88,44 -95,128 0,298 242,540 540,540 298,0 540,-242 540,-540 0,-298 -242,-540 -540,-540 -298,0 -540,242 -540,540"/>
  <path class="fil0 str0" d="M-18182 5615c-46,4 -89,44 -95,128 0,298 242,540 540,540 298,0 540,-242 540,-540 0,-298 -242,-540 -540,-540 -298,0 -540,242 -540,540"/>
  <path class="fil0 str0" d="M-13682 5615c-46,4 -89,44 -95,128 0,298 242,540 540,540 298,0 540,-242 540,-540 0,-298 -242,-540 -540,-540 -298,0 -540,242 -540,540"/>
  <path class="fil0 str0" d="M-9182 5615c-46,4 -89,44 -95,128 0,298 242,540 540,540 298,0 540,-242 540,-540 0,-298 -242,-540 -540,-540 -298,0 -540,242 -540,540"/>
  <path class="fil0 str0" d="M-18182 2815c-46,4 -89,44 -95,128 0,298 242,540 540,540 298,0 540,-242 540,-540 0,-298 -242,-540 -540,-540 -298,0 -540,242 -540,540"/>
  <path class="fil0 str0" d="M-13682 2815c-46,4 -89,44 -95,128 0,298 242,540 540,540 298,0 540,-242 540,-540 0,-298 -242,-540 -540,-540 -298,0 -540,242 -540,540"/>
  <path class="fil0 str0" d="M-9182 2815c-46,4 -89,44 -95,128 0,298 242,540 540,540 298,0 540,-242 540,-540 0,-298 -242,-540 -540,-540 -298,0 -540,242 -540,540"/>
  <path class="fil0 str0" d="M-18182 15c-46,4 -89,44 -95,128 0,298 242,540 540,540 298,0 540,-242 540,-540 0,-298 -242,-540 -540,-540 -298,0 -540,242 -540,540"/>
  <path class="fil0 str0" d="M-13682 15c-46,4 -89,44 -95,128 0,298 242,540 540,540 298,0 540,-242 540,-540 0,-298 -242,-540 -540,-540 -298,0 -540,242 -540,540"/>
  <path class="fil0 str0" d="M-9182 15c-46,4 -89,44 -95,128 0,298 242,540 540,540 298,0 540,-242 540,-540 0,-298 -242,-540 -540,-540 -298,0 -540,242 -540,540"/>
 </g>
</svg>
