<?xml version="1.0" encoding="UTF-8"?>
<!DOCTYPE svg PUBLIC "-//W3C//DTD SVG 1.1//EN" "http://www.w3.org/Graphics/SVG/1.1/DTD/svg11.dtd">
<!-- Creator: CorelDRAW X8 -->
<svg xmlns="http://www.w3.org/2000/svg" xml:space="preserve" width="40mm" height="60mm" version="1.1" style="shape-rendering:geometricPrecision; text-rendering:geometricPrecision; image-rendering:optimizeQuality; fill-rule:evenodd; clip-rule:evenodd"
viewBox="0 0 4000 6000"
 xmlns:xlink="http://www.w3.org/1999/xlink">
 <defs>
  <style type="text/css">
   <![CDATA[
    .str0 {stroke:black;stroke-width:7.62}
    .fil0 {fill:none}
   ]]>
  </style>
 </defs>
 <g id="图层_x0020_1">
  <metadata id="CorelCorpID_0Corel-Layer"/>
  <path class="fil0 str0" d="M2520 757c-5,-18 -15,-32 -58,-32l-37 0c-19,0 -35,16 -35,36l0 0c0,19 16,35 35,35l292 0c19,0 35,-16 35,-35l0 0c0,-20 -16,-36 -35,-36l-255 0m-629 -15c0,-2 -2,-4 -6,-5 -14,0 -25,12 -25,26 0,14 11,25 25,25 14,0 25,-11 25,-25 0,-14 -11,-26 -25,-26m-487 34c-7,2 -12,5 -12,17l0 4c0,14 11,26 25,26l0 0c14,0 25,-12 25,-26l0 -25c0,-14 -11,-25 -25,-25l0 0c-14,0 -25,11 -25,25l0 21m187 518c-1,-9 -9,-17 -25,-18 -58,0 -105,47 -105,105 0,59 47,106 105,106 58,0 106,-47 106,-106 0,-58 -48,-105 -106,-105m0 -106c117,0 211,95 211,211 0,117 -94,211 -211,211 -117,0 -211,-94 -211,-211 0,-116 94,-211 211,-211zm0 -21c128,0 232,104 232,232 0,128 -104,232 -232,232 -128,0 -232,-104 -232,-232 0,-128 104,-232 232,-232zm-90 593c0,-8 -8,-16 -23,-17 -55,0 -99,44 -99,98 0,55 44,99 99,99 54,0 98,-44 98,-99 0,-54 -44,-98 -98,-98m26 289c-1,-8 -8,-16 -23,-17 -55,0 -99,44 -99,98 0,55 44,99 99,99 54,0 98,-44 98,-99 0,-54 -44,-98 -98,-98m246 -171c-13,3 -23,8 -23,32l0 19c0,27 22,50 49,50l0 0c27,0 49,-23 49,-50l0 -98c0,-27 -22,-49 -49,-49l0 0c-27,0 -49,22 -49,49l0 79m-290 -778l355 0c65,0 118,54 118,119l0 940c0,65 -53,118 -118,118l-355 0c-65,0 -118,-53 -118,-118l0 -940c0,-65 53,-119 118,-119zm-20 -15l397 0c67,0 123,55 123,122l0 963c0,68 -56,123 -123,123l-397 0c-67,0 -122,-55 -122,-123l0 -963c0,-67 55,-122 122,-122zm106 4187c-5,-21 -17,-37 -68,-37l-45 0c-23,0 -42,19 -42,42l0 0c0,23 19,42 42,42l393 0c23,0 42,-19 42,-42l0 0c0,-23 -19,-42 -42,-42l-348 0m644 11c-3,-13 -8,-23 -30,-23l-18 0c-26,0 -47,21 -47,47l0 0c0,25 21,46 47,46l163 0c26,0 46,-21 46,-46l0 0c0,-26 -21,-47 -46,-47l-145 0m532 48c-5,-20 -16,-35 -64,-35l-41 0c-22,0 -39,17 -39,39l0 0c0,22 17,39 39,39l309 0c22,0 40,-17 40,-39l0 0c0,-22 -18,-39 -40,-39l-268 0m360 -4319c125,4 227,107 230,233 -1,-77 -33,-239 -73,-361 -1,-5 4,-9 9,-9l228 0c4,0 8,4 8,9 -7,127 -59,309 -59,383l0 3699c0,85 61,278 59,415 0,5 -4,9 -8,9l-228 0c-5,0 -10,-4 -9,-9 25,-124 73,-277 73,-372l0 -7c0,129 -103,235 -230,239l0 230c0,8 -7,14 -14,14l-1520 0c-8,0 -14,-6 -14,-14l0 -230c-123,-10 -220,-114 -220,-239l0 -15 -8 0 0 22c0,95 48,248 73,372 1,5 -4,9 -9,9l-228 0c-4,0 -8,-4 -8,-9 -2,-137 59,-330 59,-415l0 -2027c0,-4 3,-6 7,-6l65 0c8,0 14,-6 14,-14l0 -278c0,-7 -6,-14 -14,-14l-63 0c-5,0 -9,-2 -9,-8l0 -110c0,-5 2,-7 8,-7l69 0c8,0 15,-6 15,-14l0 -605c0,-8 -7,-14 -15,-14l-69 0c-5,0 -8,-3 -8,-8l0 -594c0,-74 -52,-256 -59,-383 0,-5 4,-9 8,-9l228 0c5,0 10,4 9,9 -41,125 -73,293 -73,367l0 7 8 0 0 -7c0,-125 97,-229 220,-239l0 -213c0,-8 6,-14 14,-14l1520 0c7,0 14,6 14,14l0 213zm230 233c0,2 0,4 0,5 0,-1 0,-3 0,-5z"/>
 </g>
</svg>
