<?xml version="1.0" encoding="UTF-8"?>
<!DOCTYPE svg PUBLIC "-//W3C//DTD SVG 1.1//EN" "http://www.w3.org/Graphics/SVG/1.1/DTD/svg11.dtd">
<!-- Creator: CorelDRAW X8 -->
<svg xmlns="http://www.w3.org/2000/svg" xml:space="preserve" width="40mm" height="60mm" version="1.1" style="shape-rendering:geometricPrecision; text-rendering:geometricPrecision; image-rendering:optimizeQuality; fill-rule:evenodd; clip-rule:evenodd"
viewBox="0 0 4000 6000"
 xmlns:xlink="http://www.w3.org/1999/xlink">
 <defs>
  <style type="text/css">
   <![CDATA[
    .str0 {stroke:black;stroke-width:7.62}
    .fil0 {fill:none}
   ]]>
  </style>
 </defs>
 <g id="图层_x0020_1">
  <metadata id="CorelCorpID_0Corel-Layer"/>
  <path class="fil0 str0" d="M1351 914c-1,-14 -13,-27 -38,-29 -91,0 -164,74 -164,164 0,91 73,164 164,164 90,0 163,-73 163,-164 0,-90 -73,-164 -163,-164m33 482c-1,-12 -12,-24 -34,-26 -80,0 -145,65 -145,145 0,80 65,145 145,145 80,0 145,-65 145,-145 0,-80 -65,-145 -145,-145m358 26c-1,-12 -12,-24 -35,-26 -80,0 -145,65 -145,145 0,80 65,145 145,145 80,0 145,-65 145,-145 0,-80 -65,-145 -145,-145m-375 381c-3,-12 -8,-21 -28,-21l-17 0c-24,0 -44,20 -44,43l0 0c0,24 20,44 44,44l107 0c24,0 43,-20 43,-44l0 0c0,-23 -19,-43 -43,-43l-90 0m-12 -880l509 0c47,0 85,39 85,86l0 812c0,47 -38,85 -85,85l-509 0c-47,0 -86,-38 -86,-85l0 -812c0,-47 39,-86 86,-86zm-31 -42l567 0c52,0 94,42 94,94l0 876c0,52 -42,94 -94,94l-567 0c-51,0 -94,-42 -94,-94l0 -876c0,-52 43,-94 94,-94zm-155 4508l1782 0c129,0 235,-106 235,-235l0 -4168c0,-129 -106,-234 -235,-234l-1632 0c-129,0 -235,105 -235,234l0 4168c0,129 106,235 235,235l48 0c57,0 104,32 122,63"/>
 </g>
</svg>
