<?xml version="1.0" encoding="UTF-8"?>
<!DOCTYPE svg PUBLIC "-//W3C//DTD SVG 1.1//EN" "http://www.w3.org/Graphics/SVG/1.1/DTD/svg11.dtd">
<!-- Creator: CorelDRAW X8 -->
<svg xmlns="http://www.w3.org/2000/svg" xml:space="preserve" width="40mm" height="60mm" version="1.1" style="shape-rendering:geometricPrecision; text-rendering:geometricPrecision; image-rendering:optimizeQuality; fill-rule:evenodd; clip-rule:evenodd"
viewBox="0 0 4000 6000"
 xmlns:xlink="http://www.w3.org/1999/xlink">
 <defs>
  <style type="text/css">
   <![CDATA[
    .str0 {stroke:black;stroke-width:7.62}
    .fil0 {fill:none}
   ]]>
  </style>
 </defs>
 <g id="图层_x0020_1">
  <metadata id="CorelCorpID_0Corel-Layer"/>
  <path class="fil0 str0" d="M867 5350l2066 0c143,0 261,-117 261,-261l0 -4178c0,-143 -118,-261 -261,-261l-1866 0c-143,0 -261,118 -261,261l0 4178c0,144 118,261 261,261l301 0m1394 -4603c0,-5 -5,-10 -15,-11 -36,0 -65,29 -65,65 0,36 29,65 65,65 36,0 65,-29 65,-65 0,-36 -29,-65 -65,-65m-886 54c-6,-24 -19,-42 -76,-42l-48 0c-26,0 -47,21 -47,47l0 0c0,25 21,46 47,46l531 0c26,0 47,-21 47,-46l0 0c0,-26 -21,-47 -47,-47l-483 0m133 4306c-8,-30 -19,-52 -70,-52l-43 0c-59,0 -108,48 -108,108l0 0c0,59 49,108 108,108l414 0c60,0 108,-49 108,-108l0 0c0,-60 -48,-108 -108,-108l-371 0"/>
 </g>
</svg>
