<?xml version="1.0" encoding="UTF-8"?>
<!DOCTYPE svg PUBLIC "-//W3C//DTD SVG 1.1//EN" "http://www.w3.org/Graphics/SVG/1.1/DTD/svg11.dtd">
<!-- Creator: CorelDRAW X8 -->
<svg xmlns="http://www.w3.org/2000/svg" xml:space="preserve" width="40mm" height="60mm" version="1.1" style="shape-rendering:geometricPrecision; text-rendering:geometricPrecision; image-rendering:optimizeQuality; fill-rule:evenodd; clip-rule:evenodd"
viewBox="0 0 4000 6000"
 xmlns:xlink="http://www.w3.org/1999/xlink">
 <defs>
  <style type="text/css">
   <![CDATA[
    .str0 {stroke:black;stroke-width:7.62}
    .fil0 {fill:none}
   ]]>
  </style>
 </defs>
 <g id="图层_x0020_1">
  <metadata id="CorelCorpID_0Corel-Layer"/>
  <path class="fil0 str0" d="M2018 737c-1,-7 -6,-12 -17,-13 -41,0 -74,33 -74,73 0,41 33,73 74,73 40,0 73,-32 73,-73 0,-40 -33,-73 -73,-73m-974 4595l1826 0c100,0 182,-82 182,-182l0 -4305c0,-100 -82,-182 -182,-182 -572,0 -1134,0 -1706,0 -100,0 -182,82 -182,182l0 4305c0,100 82,182 182,182l42 0c33,0 51,16 74,31"/>
 </g>
</svg>
