<?xml version="1.0" encoding="UTF-8"?>
<!DOCTYPE svg PUBLIC "-//W3C//DTD SVG 1.1//EN" "http://www.w3.org/Graphics/SVG/1.1/DTD/svg11.dtd">
<!-- Creator: CorelDRAW X8 -->
<svg xmlns="http://www.w3.org/2000/svg" xml:space="preserve" width="40mm" height="60mm" version="1.1" style="shape-rendering:geometricPrecision; text-rendering:geometricPrecision; image-rendering:optimizeQuality; fill-rule:evenodd; clip-rule:evenodd"
viewBox="0 0 4000 6000"
 xmlns:xlink="http://www.w3.org/1999/xlink">
 <defs>
  <style type="text/css">
   <![CDATA[
    .str0 {stroke:#332C2B;stroke-width:7.62}
    .fil0 {fill:none}
   ]]>
  </style>
 </defs>
 <g id="图层_x0020_1">
  <metadata id="CorelCorpID_0Corel-Layer"/>
  <path class="fil0 str0" d="M835 5227l2149 0c99,0 181,-82 181,-181l0 -4216c0,-99 -82,-180 -181,-180l-395 0c-17,26 -47,43 -80,43 -34,0 -63,-17 -81,-43l-1297 0c-99,0 -180,81 -180,180l0 4216c0,99 81,181 180,181 100,0 214,64 214,123m659 -4220c-57,-33 -59,-199 59,-199 118,0 214,96 214,214 0,118 -96,214 -214,214 -118,0 -214,-96 -214,-214 0,-118 96,-214 214,-214m316 216c-9,-5 -9,-31 10,-31 18,0 33,15 33,33 0,19 -15,34 -33,34 -19,0 -34,-15 -34,-34 0,-18 15,-33 34,-33m-321 479c-43,0 -71,0 -71,-36 0,-36 29,-65 65,-65l0 0c35,0 65,29 65,65l0 95c0,36 -30,65 -65,65l0 0c-36,0 -65,-29 -65,-65l0 -95"/>
 </g>
</svg>
