<?xml version="1.0" encoding="UTF-8"?>
<!DOCTYPE svg PUBLIC "-//W3C//DTD SVG 1.1//EN" "http://www.w3.org/Graphics/SVG/1.1/DTD/svg11.dtd">
<!-- Creator: CorelDRAW X8 -->
<svg xmlns="http://www.w3.org/2000/svg" xml:space="preserve" width="40mm" height="60mm" version="1.1" style="shape-rendering:geometricPrecision; text-rendering:geometricPrecision; image-rendering:optimizeQuality; fill-rule:evenodd; clip-rule:evenodd"
viewBox="0 0 4000 6000"
 xmlns:xlink="http://www.w3.org/1999/xlink">
 <defs>
  <style type="text/css">
   <![CDATA[
    .str0 {stroke:black;stroke-width:7.62}
    .fil0 {fill:none}
   ]]>
  </style>
 </defs>
 <g id="图层_x0020_1">
  <metadata id="CorelCorpID_0Corel-Layer"/>
  <path class="fil0 str0" d="M958 5288l-192 0c-6,0 -11,-4 -8,-10 58,-107 62,-244 2,-333 -3,-4 -3,-4 -3,-8l0 -2095c0,-6 4,-9 11,-9l119 0c15,0 28,-12 28,-27l0 -427c0,-15 -13,-27 -28,-27l-119 0c-8,0 -11,-4 -11,-12l0 -349c0,-8 2,-11 11,-11l122 0c15,0 27,-12 27,-27l0 -275c0,-16 -12,-28 -27,-28l-122 0c-7,0 -11,-5 -11,-11l0 -542c0,-4 0,-4 1,-7 57,-122 66,-314 0,-431 -3,-5 3,-9 8,-9l159 0c5,0 12,4 7,10 -76,100 -56,311 1,432l2 0c12,-132 124,-237 260,-237l62 0 0 -165c0,-8 6,-14 14,-14l1458 0c8,0 14,6 14,14l0 165 62 0c136,0 248,105 260,237l2 0c64,-107 69,-344 2,-396 -7,-6 1,-10 6,-10l160 0c9,0 11,5 4,11 -66,68 -57,277 1,389 3,6 3,7 3,16l0 216 -131 0c-12,0 -22,10 -22,22l0 176c0,12 10,22 22,22l131 0 0 111 -134 0c-15,0 -28,12 -28,27l0 620c0,15 13,27 28,27l134 0 0 2613c0,5 0,5 -3,9 -48,62 -71,223 1,335 4,7 0,11 -6,11l-160 0c-8,0 -11,-5 -6,-12 68,-88 63,-294 -2,-338l-2 0c-12,123 -111,216 -234,229l-500 0c-23,0 -42,18 -42,41l0 127c0,9 -3,12 -12,12l-57 0c-10,0 -13,-4 -13,-12l0 -99c0,-23 -18,-42 -41,-42l-344 0c-23,0 -41,19 -41,42l0 99c0,7 -2,12 -11,12l-62 0c-8,0 -12,-4 -12,-12l0 -127c0,-23 -19,-41 -41,-41l-486 0c-123,-13 -222,-106 -234,-229l-2 0c-56,61 -76,222 -1,336 4,7 0,11 -7,11l-40 0m953 -4232l-187 0c-5,0 -10,-2 -18,-14 -28,-41 -76,-68 -130,-68l-303 0c-87,0 -158,71 -158,158l0 0c0,87 71,158 158,158l303 0c54,0 102,-27 130,-68 8,-12 12,-14 18,-14l187 0c42,0 76,-34 76,-76l0 0c0,-42 -34,-76 -76,-76z"/>
 </g>
</svg>
