<?xml version="1.0" encoding="UTF-8"?>
<!DOCTYPE svg PUBLIC "-//W3C//DTD SVG 1.1//EN" "http://www.w3.org/Graphics/SVG/1.1/DTD/svg11.dtd">
<!-- Creator: CorelDRAW 2020 (64-Bit) -->
<svg xmlns="http://www.w3.org/2000/svg" xml:space="preserve" width="40mm" height="60mm" version="1.1" style="shape-rendering:geometricPrecision; text-rendering:geometricPrecision; image-rendering:optimizeQuality; fill-rule:evenodd; clip-rule:evenodd"
viewBox="0 0 4000 6000"
 xmlns:xlink="http://www.w3.org/1999/xlink"
 xmlns:xodm="http://www.corel.com/coreldraw/odm/2003">
 <defs>
  <style type="text/css">
   <![CDATA[
    .str0 {stroke:#332C2B;stroke-width:20;stroke-miterlimit:22.9256}
    .fil0 {fill:none}
   ]]>
  </style>
   <clipPath id="id0">
    <rect x="-15431.82" y="-11375.53" width="5366.18" height="5677.77"/>
   </clipPath>
 </defs>
 <g id="图层_x0020_1">
  <metadata id="CorelCorpID_0Corel-Layer"/>
  <g style="clip-path:url(#id0)">
   <image x="-15431.82" y="-11375.53" width="5366.18" height="5677.77" xlink:href="Unity—(前膜全屏)_Images\Unity—(前膜全屏)_ImgID1.png"/>
  </g>
  <rect class="fil0 str0" x="-14785.76" y="-10666.97" width="3933.43" height="4648"/>
  <rect class="fil0 str0" x="-14661.04" y="-10517.01" width="3655.6" height="4353.51" rx="676.72" ry="452.35"/>
  <path class="fil0 str0" d="M12627.5 1469.08l-2983.47 0c-372.2,0 -676.72,-304.52 -676.72,-676.71l0 -3000.09c0,-372.19 304.51,-676.71 676.72,-676.71l2302.16 0c372.21,0 676.72,304.52 676.72,676.71l0 3000.09c0,372.19 -304.51,676.71 -676.72,676.71 -114.79,0 -154.33,-5.15 -154.33,53.28"/>
  <path class="fil0 str0" d="M16516.08 1469.08l-2983.47 0c-372.2,0 -676.72,-304.52 -676.72,-676.71l0 -3000.09c0,-372.19 304.51,-676.71 676.72,-676.71l2302.16 0c372.21,0 676.72,304.52 676.72,676.71l0 3000.09c0,372.19 -304.51,676.71 -676.72,676.71 -114.79,0 -154.33,-5.15 -154.33,53.28"/>
  <path class="fil0 str0" d="M12627.5 6095.21l-2983.47 0c-372.2,0 -676.72,-304.52 -676.72,-676.71l0 -3000.09c0,-372.19 304.51,-676.71 676.72,-676.71l2302.16 0c372.21,0 676.72,304.52 676.72,676.71l0 3000.09c0,372.19 -304.51,676.71 -676.72,676.71 -114.79,0 -154.33,-5.15 -154.33,53.28"/>
  <path class="fil0 str0" d="M16516.08 6095.21l-2983.47 0c-372.2,0 -676.72,-304.52 -676.72,-676.71l0 -3000.09c0,-372.19 304.51,-676.71 676.72,-676.71l2302.16 0c372.21,0 676.72,304.52 676.72,676.71l0 3000.09c0,372.19 -304.51,676.71 -676.72,676.71 -114.79,0 -154.33,-5.15 -154.33,53.28"/>
  <path class="fil0 str0" d="M12627.5 10734.25l-2983.47 0c-372.2,0 -676.72,-304.52 -676.72,-676.71l0 -3000.09c0,-372.19 304.51,-676.71 676.72,-676.71l2302.16 0c372.21,0 676.72,304.52 676.72,676.71l0 3000.09c0,372.19 -304.51,676.71 -676.72,676.71 -114.79,0 -154.33,-5.15 -154.33,53.28"/>
  <path class="fil0 str0" d="M16516.08 10734.25l-2983.47 0c-372.2,0 -676.72,-304.52 -676.72,-676.71l0 -3000.09c0,-372.19 304.51,-676.71 676.72,-676.71l2302.16 0c372.21,0 676.72,304.52 676.72,676.71l0 3000.09c0,372.19 -304.51,676.71 -676.72,676.71 -114.79,0 -154.33,-5.15 -154.33,53.28"/>
  <g id="_2593010772960">
   <path class="fil0 str0" d="M1954.14 2152.27l-1025.62 0c-127.95,0 -232.64,-104.68 -232.64,-232.63l0 -1031.34c0,-127.95 104.68,-232.63 232.64,-232.63l791.41 0c127.96,0 232.64,104.68 232.64,232.63l0 1031.34c0,127.95 -104.68,232.63 -232.64,232.63 -39.46,0 -53.05,-1.77 -53.05,18.32"/>
   <path class="fil0 str0" d="M3290.92 2152.27l-1025.63 0c-127.95,0 -232.63,-104.68 -232.63,-232.63l0 -1031.34c0,-127.95 104.68,-232.63 232.63,-232.63l791.42 0c127.95,0 232.63,104.68 232.63,232.63l0 1031.34c0,127.95 -104.68,232.63 -232.63,232.63 -39.46,0 -53.06,-1.77 -53.06,18.32"/>
   <path class="fil0 str0" d="M1954.14 3742.59l-1025.62 0c-127.95,0 -232.64,-104.68 -232.64,-232.63l0 -1031.34c0,-127.94 104.68,-232.63 232.64,-232.63l791.41 0c127.96,0 232.64,104.69 232.64,232.63l0 1031.34c0,127.95 -104.68,232.63 -232.64,232.63 -39.46,0 -53.05,-1.77 -53.05,18.32"/>
   <path class="fil0 str0" d="M3290.92 3742.59l-1025.63 0c-127.95,0 -232.63,-104.68 -232.63,-232.63l0 -1031.34c0,-127.94 104.68,-232.63 232.63,-232.63l791.42 0c127.95,0 232.63,104.69 232.63,232.63l0 1031.34c0,127.95 -104.68,232.63 -232.63,232.63 -39.46,0 -53.06,-1.77 -53.06,18.32"/>
   <path class="fil0 str0" d="M1954.14 5337.35l-1025.62 0c-127.95,0 -232.64,-104.68 -232.64,-232.63l0 -1031.34c0,-127.94 104.68,-232.63 232.64,-232.63l791.41 0c127.96,0 232.64,104.69 232.64,232.63l0 1031.34c0,127.95 -104.68,232.63 -232.64,232.63 -39.46,0 -53.05,-1.77 -53.05,18.32"/>
   <path class="fil0 str0" d="M3290.92 5337.35l-1025.63 0c-127.95,0 -232.63,-104.68 -232.63,-232.63l0 -1031.34c0,-127.94 104.68,-232.63 232.63,-232.63l791.42 0c127.95,0 232.63,104.69 232.63,232.63l0 1031.34c0,127.95 -104.68,232.63 -232.63,232.63 -39.46,0 -53.06,-1.77 -53.06,18.32"/>
  </g>
 </g>
</svg>
