<?xml version="1.0" encoding="UTF-8"?>
<!DOCTYPE svg PUBLIC "-//W3C//DTD SVG 1.1//EN" "http://www.w3.org/Graphics/SVG/1.1/DTD/svg11.dtd">
<!-- Creator: CorelDRAW X8 -->
<svg xmlns="http://www.w3.org/2000/svg" xml:space="preserve" width="40mm" height="60mm" version="1.1" style="shape-rendering:geometricPrecision; text-rendering:geometricPrecision; image-rendering:optimizeQuality; fill-rule:evenodd; clip-rule:evenodd"
viewBox="0 0 4000 6000"
 xmlns:xlink="http://www.w3.org/1999/xlink">
 <defs>
  <style type="text/css">
   <![CDATA[
    .str0 {stroke:black;stroke-width:7.62}
    .fil0 {fill:none}
   ]]>
  </style>
 </defs>
 <g id="图层_x0020_1">
  <metadata id="CorelCorpID_0Corel-Layer"/>
  <path class="fil0 str0" d="M-11397 4911c89,0 160,71 160,160 0,88 -71,160 -160,160 -88,0 -160,-72 -160,-160 0,-89 72,-160 160,-160z"/>
  <path class="fil0 str0" d="M-26728 16819l15458 0c55,0 100,-45 100,-100l0 -23300c0,-55 -45,-100 -100,-100l-15300 0c-55,0 -100,45 -100,100l0 23300c0,55 45,100 100,100 55,0 142,57 142,112"/>
  <g id="_2806632209440">
   <path class="fil0 str0" d="M3503 2957c18,0 32,15 32,32 0,18 -14,32 -32,32 -17,0 -32,-14 -32,-32 0,-17 15,-32 32,-32z"/>
   <path class="fil0 str0" d="M452 5328l3077 0c10,0 19,-9 19,-20l0 -4638c0,-11 -9,-20 -19,-20l-3046 0c-11,0 -20,9 -20,20l0 4638c0,11 9,20 20,20 11,0 28,11 28,22"/>
  </g>
 </g>
</svg>
