<?xml version="1.0" encoding="UTF-8"?>
<!DOCTYPE svg PUBLIC "-//W3C//DTD SVG 1.1//EN" "http://www.w3.org/Graphics/SVG/1.1/DTD/svg11.dtd">
<!-- Creator: CorelDRAW X8 -->
<svg xmlns="http://www.w3.org/2000/svg" xml:space="preserve" width="40mm" height="60mm" version="1.1" style="shape-rendering:geometricPrecision; text-rendering:geometricPrecision; image-rendering:optimizeQuality; fill-rule:evenodd; clip-rule:evenodd"
viewBox="0 0 4000 6000"
 xmlns:xlink="http://www.w3.org/1999/xlink">
 <defs>
  <style type="text/css">
   <![CDATA[
    .str0 {stroke:black;stroke-width:7.62}
    .fil0 {fill:none}
   ]]>
  </style>
 </defs>
 <g id="图层_x0020_1">
  <metadata id="CorelCorpID_0Corel-Layer"/>
  <path class="fil0 str0" d="M1418 891c-1,-17 -17,-33 -49,-36 -113,0 -204,92 -204,205 0,113 91,205 204,205 114,0 205,-92 205,-205 0,-113 -91,-205 -205,-205m49 479c-1,-17 -17,-33 -49,-36 -113,0 -204,92 -204,205 0,113 91,205 204,205 114,0 205,-92 205,-205 0,-113 -91,-205 -205,-205m19 484c0,-5 -5,-11 -16,-11 -36,0 -66,29 -66,66 0,37 30,66 66,66 37,0 67,-29 67,-66 0,-37 -30,-66 -67,-66m349 -722c-10,3 -18,6 -18,24l0 14c0,20 17,36 36,36l0 0c20,0 36,-16 36,-36l0 -124c0,-20 -16,-36 -36,-36l0 0c-19,0 -36,16 -36,36l0 110m55 133c0,-8 -7,-15 -20,-16 -48,0 -87,39 -87,87 0,48 39,86 87,86 48,0 86,-38 86,-86 0,-48 -38,-87 -86,-87m-461 -380l459 0c80,0 147,66 147,147l0 882c0,81 -67,147 -147,147l-459 0c-81,0 -147,-66 -147,-147l0 -882c0,-81 66,-147 147,-147zm-4 -24l465 0c96,0 175,79 175,175l0 875c0,96 -79,175 -175,175l-465 0c-96,0 -175,-79 -175,-175l0 -875c0,-96 79,-175 175,-175zm-318 4509l1866 0c175,0 319,-143 319,-318l0 -4009c0,-175 -144,-318 -319,-318l-1642 0c-175,0 -319,143 -319,318l0 484c0,14 5,27 15,37l46 54c10,11 14,24 14,38l0 1221c0,12 -2,22 -9,31l-56 87c-7,10 -10,20 -10,32l0 2025c0,175 144,318 319,318l73 0c131,0 221,21 269,55"/>
 </g>
</svg>
