<?xml version="1.0" encoding="UTF-8"?>
<!DOCTYPE svg PUBLIC "-//W3C//DTD SVG 1.1//EN" "http://www.w3.org/Graphics/SVG/1.1/DTD/svg11.dtd">
<!-- Creator: CorelDRAW X8 -->
<svg xmlns="http://www.w3.org/2000/svg" xml:space="preserve" width="40mm" height="60mm" version="1.1" style="shape-rendering:geometricPrecision; text-rendering:geometricPrecision; image-rendering:optimizeQuality; fill-rule:evenodd; clip-rule:evenodd"
viewBox="0 0 4000 6000"
 xmlns:xlink="http://www.w3.org/1999/xlink">
 <defs>
  <style type="text/css">
   <![CDATA[
    .str0 {stroke:black;stroke-width:7.62}
    .fil0 {fill:none}
   ]]>
  </style>
 </defs>
 <g id="图层_x0020_1">
  <metadata id="CorelCorpID_0Corel-Layer"/>
  <path class="fil0 str0" d="M1081 5297l1713 0c115,0 210,-94 210,-210l0 -4227c0,-115 -95,-210 -210,-210l-81 0c-4,0 -6,1 -6,4l0 18c0,5 -3,8 -8,8l-299 0c-4,0 -8,-3 -8,-8l0 -17c0,-3 -3,-5 -5,-5l-18 0c-2,0 -3,0 -5,2l-8 7c-2,3 -3,3 -7,3l-244 0c-22,0 -32,11 -32,31l0 48c0,40 -33,73 -74,73l0 0c-40,0 -73,-33 -73,-73l0 -45c0,-26 -14,-34 -33,-34l-245 0c-2,0 -4,-1 -6,-3l-7 -7c-2,-2 -3,-2 -6,-2l-183 0c-4,0 -8,1 -8,6l0 18c0,5 -3,8 -8,8l-131 0c-5,0 -8,-3 -8,-8l0 -19c0,-4 -2,-5 -6,-5l-79 0c-115,0 -210,95 -210,210l0 4227c0,116 95,210 210,210l33 0c30,0 59,25 72,53"/>
 </g>
</svg>
