<?xml version="1.0" encoding="UTF-8"?>
<!DOCTYPE svg PUBLIC "-//W3C//DTD SVG 1.1//EN" "http://www.w3.org/Graphics/SVG/1.1/DTD/svg11.dtd">
<!-- Creator: CorelDRAW X8 -->
<svg xmlns="http://www.w3.org/2000/svg" xml:space="preserve" width="40mm" height="60mm" version="1.1" style="shape-rendering:geometricPrecision; text-rendering:geometricPrecision; image-rendering:optimizeQuality; fill-rule:evenodd; clip-rule:evenodd"
viewBox="0 0 4000 6000"
 xmlns:xlink="http://www.w3.org/1999/xlink">
 <defs>
  <style type="text/css">
   <![CDATA[
    .str0 {stroke:#332C2B;stroke-width:7.62}
    .fil0 {fill:none}
   ]]>
  </style>
 </defs>
 <g id="图层_x0020_1">
  <metadata id="CorelCorpID_0Corel-Layer"/>
  <path class="fil0 str0" d="M857 5239l2081 0c113,0 205,-93 205,-206l0 -4177c0,-113 -92,-206 -205,-206l-1803 0c-113,0 -206,93 -206,206l0 4177c0,113 93,206 206,206 113,0 233,66 233,111m11 -4603c62,0 111,50 111,111 0,61 -49,111 -111,111 -61,0 -111,-50 -111,-111 0,-61 50,-111 111,-111zm1206 67c26,0 46,20 46,46 0,25 -20,46 -46,46 -25,0 -46,-21 -46,-46 0,-26 21,-46 46,-46zm-692 0l296 0c23,0 43,19 43,42l0 0c0,24 -20,43 -43,43l-296 0c-23,0 -42,-19 -42,-43l0 0c0,-23 19,-42 42,-42z"/>
 </g>
</svg>
