<?xml version="1.0" encoding="UTF-8"?>
<!DOCTYPE svg PUBLIC "-//W3C//DTD SVG 1.1//EN" "http://www.w3.org/Graphics/SVG/1.1/DTD/svg11.dtd">
<!-- Creator: CorelDRAW X8 -->
<svg xmlns="http://www.w3.org/2000/svg" xml:space="preserve" width="40mm" height="60mm" version="1.1" style="shape-rendering:geometricPrecision; text-rendering:geometricPrecision; image-rendering:optimizeQuality; fill-rule:evenodd; clip-rule:evenodd"
viewBox="0 0 4000 6000"
 xmlns:xlink="http://www.w3.org/1999/xlink">
 <defs>
  <style type="text/css">
   <![CDATA[
    .str0 {stroke:#332C2B;stroke-width:7.62}
    .fil0 {fill:none}
   ]]>
  </style>
 </defs>
 <g id="Слой_x0020_1">
  <metadata id="CorelCorpID_0Corel-Layer"/>
  <path class="fil0 str0" d="M921 5350l2043 0c98,0 179,-81 179,-179l0 -4342c0,-98 -81,-179 -179,-179l-1928 0c-98,0 -179,81 -179,179l0 4342c0,98 81,179 179,179l88 0m1080 -4521l0 0c0,18 -15,33 -33,33l-344 0c-18,0 -32,-15 -32,-33l0 0c0,-18 14,-33 32,-33l344 0c18,0 33,15 33,33zm249 -3c0,28 -23,52 -52,52 -29,0 -52,-24 -52,-52 0,-29 23,-53 52,-53 29,0 52,24 52,53z"/>
 </g>
</svg>
