<?xml version="1.0" encoding="UTF-8"?>
<!DOCTYPE svg PUBLIC "-//W3C//DTD SVG 1.1//EN" "http://www.w3.org/Graphics/SVG/1.1/DTD/svg11.dtd">
<!-- Creator: CorelDRAW X8 -->
<svg xmlns="http://www.w3.org/2000/svg" xml:space="preserve" width="40mm" height="60mm" version="1.1" style="shape-rendering:geometricPrecision; text-rendering:geometricPrecision; image-rendering:optimizeQuality; fill-rule:evenodd; clip-rule:evenodd"
viewBox="0 0 4000 6000"
 xmlns:xlink="http://www.w3.org/1999/xlink">
 <defs>
  <style type="text/css">
   <![CDATA[
    .str0 {stroke:#332C2B;stroke-width:19.4}
    .fil0 {fill:none;fill-rule:nonzero}
   ]]>
  </style>
 </defs>
 <g id="图层_x0020_1">
  <metadata id="CorelCorpID_0Corel-Layer"/>
  <g id="_1575851232096">
   <g>
    <line class="fil0 str0" x1="3068" y1="650" x2="3068" y2= "680" />
    <line class="fil0 str0" x1="1077" y1="5320" x2="1077" y2= "5329" />
    <path class="fil0 str0" d="M1077 5329c7,0 9,-3 11,-9"/>
    <line class="fil0 str0" x1="1088" y1="5320" x2="2848" y2= "5319" />
    <path class="fil0 str0" d="M2848 5319c111,-6 216,-116 220,-232"/>
    <line class="fil0 str0" x1="3068" y1="5087" x2="3077" y2= "2288" />
    <path class="fil0 str0" d="M3077 2288c5,-1280 4,-1332 -13,-1433 -18,-108 -115,-200 -214,-205"/>
    <line class="fil0 str0" x1="2850" y1="650" x2="1132" y2= "651" />
    <path class="fil0 str0" d="M1132 651c-67,7 -137,53 -172,113 -21,37 -38,88 -40,119"/>
    <polyline class="fil0 str0" points="920,883 925,5051 922,5093 "/>
    <path class="fil0 str0" d="M922 5093c0,1 0,2 0,3 0,30 27,98 53,131 41,54 100,86 166,92"/>
    <line class="fil0 str0" x1="1141" y1="5319" x2="1174" y2= "5322" />
    <path class="fil0 str0" d="M1174 5322c18,3 25,8 45,28"/>
    <polyline class="fil0 str0" points="1484,799 1491,806 1492,805 "/>
    <path class="fil0 str0" d="M1492 805c1,-2 2,-4 2,-6"/>
    <line class="fil0 str0" x1="1494" y1="799" x2="1668" y2= "799" />
    <path class="fil0 str0" d="M1668 799c104,4 182,66 204,162 6,24 8,90 8,291 0,164 -1,177 -20,220 -26,60 -80,105 -144,121 -20,5 -61,6 -202,6 -237,0 -247,-1 -279,-11 -74,-25 -128,-87 -141,-161 -3,-17 -4,-46 -3,-113"/>
    <line class="fil0 str0" x1="1091" y1="1314" x2="1093" y2= "1014" />
    <path class="fil0 str0" d="M1093 1014c0,-50 2,-61 15,-89 28,-64 80,-106 146,-121 21,-5 36,-5 108,-5"/>
    <polyline class="fil0 str0" points="1362,799 1476,799 1506,798 "/>
    <line class="fil0 str0" x1="2039" y1="1198" x2="2049" y2= "1197" />
    <path class="fil0 str0" d="M2049 1197c-1,8 -2,9 -10,11"/>
    <line class="fil0 str0" x1="2039" y1="1208" x2="2040" y2= "1314" />
    <path class="fil0 str0" d="M2040 1314c0,30 0,40 -3,49 -2,10 -5,16 -17,35"/>
    <polyline class="fil0 str0" points="2020,1398 2020,1397 2019,1396 2018,1396 2018,1395 2010,1402 2010,1401 2010,1401 2009,1401 2000,1406 2000,1404 1999,1404 1999,1403 "/>
    <path class="fil0 str0" d="M1999 1403c-1,1 -3,1 -6,1 -8,0 -19,-2 -32,-6 0,-1 1,-2 1,-3"/>
    <polyline class="fil0 str0" points="1962,1395 1962,1395 1962,1394 1962,1395 1954,1390 1955,1389 1955,1388 1948,1381 1948,1381 1949,1381 1949,1380 1950,1380 "/>
    <path class="fil0 str0" d="M1950 1380c-8,-12 -9,-16 -11,-39 -3,-42 -4,-109 -4,-173"/>
    <line class="fil0 str0" x1="1935" y1="1168" x2="1935" y2= "1168" />
    <path class="fil0 str0" d="M1935 1168c0,-84 0,-103 3,-121 3,-18 6,-25 23,-48"/>
    <polyline class="fil0 str0" points="1961,999 1962,999 1962,1000 1962,1000 1963,1001 1970,994 1970,995 1971,995 1971,996 1979,991 1980,991 1980,992 1981,993 1981,993 "/>
    <path class="fil0 str0" d="M1981 993c3,0 5,0 7,0 6,0 12,1 31,6"/>
    <line class="fil0 str0" x1="2019" y1="999" x2="2019" y2= "997" />
    <path class="fil0 str0" d="M2019 997c0,2 0,2 -1,5"/>
    <polyline class="fil0 str0" points="2018,1002 2027,1007 2027,1005 2027,1006 2027,1007 2027,1008 2026,1008 2033,1015 2033,1015 2033,1016 2032,1016 2031,1017 "/>
    <path class="fil0 str0" d="M2031 1017c9,17 10,34 10,126 0,34 -1,58 -2,77"/>
   </g>
  </g>
 </g>
</svg>
