<?xml version="1.0" encoding="UTF-8"?>
<!DOCTYPE svg PUBLIC "-//W3C//DTD SVG 1.1//EN" "http://www.w3.org/Graphics/SVG/1.1/DTD/svg11.dtd">
<!-- Creator: CorelDRAW X8 -->
<svg xmlns="http://www.w3.org/2000/svg" xml:space="preserve" width="40mm" height="60mm" version="1.1" style="shape-rendering:geometricPrecision; text-rendering:geometricPrecision; image-rendering:optimizeQuality; fill-rule:evenodd; clip-rule:evenodd"
viewBox="0 0 4000 6000"
 xmlns:xlink="http://www.w3.org/1999/xlink">
 <defs>
  <style type="text/css">
   <![CDATA[
    .str0 {stroke:#332C2B;stroke-width:7.62}
    .fil0 {fill:none}
   ]]>
  </style>
 </defs>
 <g id="图层_x0020_1">
  <metadata id="CorelCorpID_0Corel-Layer"/>
  <path class="fil0 str0" d="M993 5350l1845 -5c130,-1 236,-106 236,-236l0 -4224c0,-129 -106,-235 -236,-235l-550 0c-12,0 -15,0 -19,8l-6 13c-3,6 -9,6 -15,6l-494 0c-5,0 -10,-2 -11,-7l-3 -9c-4,-11 -5,-11 -16,-11l-562 0c-130,0 -236,106 -236,235l0 4224c0,130 106,236 236,236l127 0m-52 -4546c1,-24 -27,-43 -37,-44 -37,0 -66,30 -66,66 0,37 29,66 66,66 36,0 66,-29 66,-66 0,-36 -30,-66 -66,-66"/>
 </g>
</svg>
