<?xml version="1.0" encoding="UTF-8"?>
<!DOCTYPE svg PUBLIC "-//W3C//DTD SVG 1.1//EN" "http://www.w3.org/Graphics/SVG/1.1/DTD/svg11.dtd">
<!-- Creator: CorelDRAW 2020 (64-Bit) -->
<svg xmlns="http://www.w3.org/2000/svg" xml:space="preserve" width="40mm" height="60mm" version="1.1" style="shape-rendering:geometricPrecision; text-rendering:geometricPrecision; image-rendering:optimizeQuality; fill-rule:evenodd; clip-rule:evenodd"
viewBox="0 0 4000 6000"
 xmlns:xlink="http://www.w3.org/1999/xlink"
 xmlns:xodm="http://www.corel.com/coreldraw/odm/2003">
 <defs>
  <style type="text/css">
   <![CDATA[
    .str0 {stroke:#332C2B;stroke-width:7.62;stroke-miterlimit:22.9256}
    .fil0 {fill:none}
   ]]>
  </style>
 </defs>
 <g id="图层_x0020_1">
  <metadata id="CorelCorpID_0Corel-Layer"/>
  <path class="fil0 str0" d="M1000.16 5294.82l1808.2 0c140.15,0 254.82,-114.66 254.82,-254.81l0 -4129.52c0,-140.15 -114.67,-254.82 -254.82,-254.82l-708.72 0c-24.38,0 -44.27,19.88 -44.27,44.27l0 66.13c0,33.99 -27.8,61.79 -61.8,61.79l0 0c-33.99,0 -61.8,-27.8 -61.8,-61.79l0 -66.13c0,-24.39 -19.89,-44.27 -44.27,-44.27l-709.06 0c-140.15,0 -254.82,114.67 -254.82,254.82l0 4129.52c0,140.15 114.67,254.81 254.82,254.81l116.48 0c149.42,0 229.13,33.71 259.62,60.85"/>
 </g>
</svg>
