<?xml version="1.0" encoding="UTF-8"?>
<!DOCTYPE svg PUBLIC "-//W3C//DTD SVG 1.1//EN" "http://www.w3.org/Graphics/SVG/1.1/DTD/svg11.dtd">
<!-- Creator: CorelDRAW X8 -->
<svg xmlns="http://www.w3.org/2000/svg" xml:space="preserve" width="40mm" height="60mm" version="1.1" style="shape-rendering:geometricPrecision; text-rendering:geometricPrecision; image-rendering:optimizeQuality; fill-rule:evenodd; clip-rule:evenodd"
viewBox="0 0 4000 6000"
 xmlns:xlink="http://www.w3.org/1999/xlink">
 <defs>
  <style type="text/css">
   <![CDATA[
    .str0 {stroke:black;stroke-width:7.62}
    .fil0 {fill:none}
   ]]>
  </style>
 </defs>
 <g id="图层_x0020_1">
  <metadata id="CorelCorpID_0Corel-Layer"/>
  <path class="fil0 str0" d="M1952 4872c0,-2 0,-76 0,-76 0,-311 -243,-554 -554,-554 -306,0 -554,248 -554,554 0,306 248,554 554,554 306,0 554,-248 554,-554 0,0 0,0 0,0m1204 76c0,-2 0,-76 0,-76 -1,-311 -244,-554 -554,-554 -306,0 -554,248 -554,554 0,306 248,554 554,554 306,0 554,-248 554,-554 0,0 0,0 0,0m-1204 -1121c0,-2 0,-77 0,-77 0,-311 -243,-553 -554,-553 -306,0 -554,248 -554,554 0,306 248,554 554,554 306,0 554,-248 554,-554 0,0 0,0 0,0m1204 76c0,-2 0,-77 0,-77 -1,-311 -244,-553 -554,-553 -306,0 -554,248 -554,554 0,306 248,554 554,554 306,0 554,-248 554,-554 0,0 0,0 0,0m-1204 -1122c0,-1 0,-76 0,-76 0,-311 -243,-554 -554,-554 -306,0 -554,248 -554,554 0,306 248,554 554,554 306,0 554,-248 554,-554 0,0 0,0 0,0m1204 76c0,-1 0,-76 0,-76 -1,-311 -244,-554 -554,-554 -306,0 -554,248 -554,554 0,306 248,554 554,554 306,0 554,-248 554,-554 0,0 0,0 0,0m-1204 -1121c0,-2 0,-77 0,-77 0,-310 -243,-553 -554,-553 -306,0 -554,248 -554,554 0,306 248,554 554,554 306,0 554,-248 554,-554 0,0 0,0 0,0m1204 76c0,-2 0,-77 0,-77 -1,-310 -244,-553 -554,-553 -306,0 -554,248 -554,554 0,306 248,554 554,554 306,0 554,-248 554,-554 0,0 0,0 0,0"/>
 </g>
</svg>
