<?xml version="1.0" encoding="UTF-8"?>
<!DOCTYPE svg PUBLIC "-//W3C//DTD SVG 1.1//EN" "http://www.w3.org/Graphics/SVG/1.1/DTD/svg11.dtd">
<!-- Creator: CorelDRAW 2020 (64-Bit) -->
<svg xmlns="http://www.w3.org/2000/svg" xml:space="preserve" width="40mm" height="60mm" version="1.1" style="shape-rendering:geometricPrecision; text-rendering:geometricPrecision; image-rendering:optimizeQuality; fill-rule:evenodd; clip-rule:evenodd"
viewBox="0 0 4000 6000"
 xmlns:xlink="http://www.w3.org/1999/xlink"
 xmlns:xodm="http://www.corel.com/coreldraw/odm/2003">
 <defs>
  <style type="text/css">
   <![CDATA[
    .str1 {stroke:#332C2B;stroke-width:20;stroke-miterlimit:22.9256}
    .str2 {stroke:#332C2B;stroke-width:20;stroke-miterlimit:22.9256}
    .str0 {stroke:#E62129;stroke-width:20;stroke-miterlimit:22.9256}
    .fil0 {fill:none}
   ]]>
  </style>
   <clipPath id="id0">
    <rect x="-46840.17" y="-4952.7" width="12907.99" height="16298.83"/>
   </clipPath>
 </defs>
 <g id="图层_x0020_1">
  <metadata id="CorelCorpID_0Corel-Layer"/>
  <g style="clip-path:url(#id0)">
   <image x="-46840.17" y="-4952.7" width="12907.99" height="16298.84" xlink:href="V21s -11i（背膜）_Images\V21s -11i（背膜）_ImgID1.png"/>
  </g>
  <rect class="fil0 str0" x="-46637.73" y="-4801.24" width="7390" height="15970"/>
  <rect class="fil0 str0" x="-46542.63" y="-4688.79" width="7199.8" height="15729.65" rx="900" ry="920.71"/>
  <rect class="fil0 str1" x="-45932.3" y="-4118.97" width="2244.79" height="3889.37" rx="350" ry="351.88"/>
  <rect class="fil0 str1" x="-45792.15" y="-3977.31" width="1964.49" height="3606.05" rx="250" ry="266.28"/>
  <path class="fil0 str1" d="M-44796.61 -3790.36c-364.4,0 -659.8,295.4 -659.8,659.8 0,364.4 295.4,659.8 659.8,659.8 364.4,0 659.8,-295.4 659.8,-659.8 0,-364.4 -295.4,-659.8 -659.8,-659.8 -364.4,0 -443.18,494.42 -443.18,613.49"/>
  <path class="fil0 str1" d="M-45279.47 -2293.73c-239.28,0 -433.25,193.97 -433.25,433.25 0,239.28 193.97,433.25 433.25,433.25 239.28,0 433.25,-193.97 433.25,-433.25 0,-239.28 -193.97,-433.25 -433.25,-433.25 -239.28,0 -291.01,324.66 -291.01,402.84"/>
  <path class="fil0 str1" d="M-44308.78 -2293.73c-239.28,0 -433.25,193.97 -433.25,433.25 0,239.28 193.97,433.25 433.25,433.25 239.28,0 433.25,-193.97 433.25,-433.25 0,-239.28 -193.97,-433.25 -433.25,-433.25 -239.28,0 -291.01,324.66 -291.01,402.84"/>
  <path class="fil0 str1" d="M-45289.28 -1017.19c-119.64,0 -216.62,96.98 -216.62,216.62 0,119.64 96.98,216.62 216.62,216.62 119.64,0 216.62,-96.98 216.62,-216.62 0,-119.64 -96.98,-216.62 -216.62,-216.62 -119.64,0 -145.5,162.32 -145.5,201.42"/>
  <path class="fil0 str2" d="M-2079.6 6314.35l0 -6001.72c0,-495 -405.01,-900 -900,-900l-13929.64 0c-495,0 -900.01,404.99 -900.01,900l0 5399.79c0,495.01 405.01,900.01 900.01,900.01l13929.64 0c495,0 900,-405 900,-900.01 0,-495.01 84.75,-803.96 202.16,-974.29"/>
  <path class="fil0 str2" d="M-17239.43 5652.1l0 -1544.79c0,-192.5 157.5,-350 350,-350l3189.37 0c192.5,0 350,157.5 350,350l0 1544.79c0,192.5 -157.5,350 -350,350l-3189.37 0c-192.5,0 -350,-157.5 -350,-350z"/>
  <path class="fil0 str2" d="M-17097.77 5611.95l0 -1464.49c0,-137.5 112.5,-250 250,-250l3106.05 0c137.5,0 250,112.5 250,250l0 1464.49c0,137.5 -112.5,250 -250,250l-3106.05 0c-137.5,0 -250,-112.5 -250,-250z"/>
  <path class="fil0 str2" d="M-16910.82 4866.41c0,364.4 295.4,659.8 659.8,659.8 364.4,0 659.8,-295.4 659.8,-659.8 0,-364.4 -295.4,-659.8 -659.8,-659.8 -364.4,0 -659.8,295.4 -659.8,659.8 0,364.4 494.42,443.18 613.49,443.18"/>
  <path class="fil0 str2" d="M-15414.19 5349.27c0,239.28 193.97,433.25 433.25,433.25 239.28,0 433.25,-193.97 433.25,-433.25 0,-239.28 -193.97,-433.25 -433.25,-433.25 -239.28,0 -433.25,193.97 -433.25,433.25 0,239.28 324.66,291.01 402.84,291.01"/>
  <path class="fil0 str2" d="M-15414.19 4378.58c0,239.28 193.97,433.25 433.25,433.25 239.28,0 433.25,-193.97 433.25,-433.25 0,-239.28 -193.97,-433.25 -433.25,-433.25 -239.28,0 -433.25,193.97 -433.25,433.25 0,239.28 324.66,291.01 402.84,291.01"/>
  <path class="fil0 str2" d="M-14137.65 5359.08c0,119.64 96.98,216.62 216.62,216.62 119.64,0 216.62,-96.98 216.62,-216.62 0,-119.64 -96.98,-216.62 -216.62,-216.62 -119.64,0 -216.62,96.98 -216.62,216.62 0,119.64 162.32,145.5 201.42,145.5"/>
  <g id="_2209921289776">
   <path class="fil0 str2" d="M1019.34 5296.03l1770.55 0c146.03,0 265.51,-119.48 265.51,-265.5l0 -4109.35c0,-146.03 -119.48,-265.51 -265.51,-265.51l-1592.98 0c-146.03,0 -265.51,119.48 -265.51,265.51l0 4109.35c0,146.02 119.48,265.5 265.51,265.5 146.04,0 237.18,25 287.43,59.64"/>
   <path class="fil0 str2" d="M1214.71 823.77l455.72 0c56.79,0 103.25,46.47 103.25,103.26l0 940.88c0,56.79 -46.46,103.25 -103.25,103.25l-455.72 0c-56.79,0 -103.25,-46.46 -103.25,-103.25l0 -940.88c0,-56.79 46.46,-103.26 103.25,-103.26z"/>
   <path class="fil0 str2" d="M1226.55 865.56l432.04 0c40.56,0 73.75,33.19 73.75,73.76l0 916.3c0,40.57 -33.19,73.75 -73.75,73.75l-432.04 0c-40.56,0 -73.75,-33.18 -73.75,-73.75l0 -916.3c0,-40.57 33.19,-73.76 73.75,-73.76z"/>
   <path class="fil0 str2" d="M1446.49 920.71c-107.5,0 -194.64,87.15 -194.64,194.65 0,107.5 87.14,194.65 194.64,194.65 107.5,0 194.65,-87.15 194.65,-194.65 0,-107.5 -87.15,-194.65 -194.65,-194.65 -107.5,0 -130.74,145.86 -130.74,180.99"/>
   <path class="fil0 str2" d="M1304.05 1362.23c-70.59,0 -127.82,57.22 -127.82,127.81 0,70.59 57.23,127.82 127.82,127.82 70.58,0 127.81,-57.23 127.81,-127.82 0,-70.59 -57.23,-127.81 -127.81,-127.81 -70.59,0 -85.85,95.78 -85.85,118.84"/>
   <path class="fil0 str2" d="M1590.41 1362.23c-70.59,0 -127.82,57.22 -127.82,127.81 0,70.59 57.23,127.82 127.82,127.82 70.58,0 127.81,-57.23 127.81,-127.82 0,-70.59 -57.23,-127.81 -127.81,-127.81 -70.59,0 -85.85,95.78 -85.85,118.84"/>
   <path class="fil0 str2" d="M1301.15 1738.82c-35.29,0 -63.9,28.61 -63.9,63.9 0,35.3 28.61,63.91 63.9,63.91 35.3,0 63.91,-28.61 63.91,-63.91 0,-35.29 -28.61,-63.9 -63.91,-63.9 -35.29,0 -42.92,47.89 -42.92,59.42"/>
  </g>
 </g>
</svg>
