<?xml version="1.0" encoding="UTF-8"?>
<!DOCTYPE svg PUBLIC "-//W3C//DTD SVG 1.1//EN" "http://www.w3.org/Graphics/SVG/1.1/DTD/svg11.dtd">
<!-- Creator: CorelDRAW X8 -->
<svg xmlns="http://www.w3.org/2000/svg" xml:space="preserve" width="40mm" height="60mm" version="1.1" style="shape-rendering:geometricPrecision; text-rendering:geometricPrecision; image-rendering:optimizeQuality; fill-rule:evenodd; clip-rule:evenodd"
viewBox="0 0 4000 6000"
 xmlns:xlink="http://www.w3.org/1999/xlink">
 <defs>
  <style type="text/css">
   <![CDATA[
    .str0 {stroke:#332C2B;stroke-width:7.62}
    .fil0 {fill:none}
   ]]>
  </style>
 </defs>
 <g id="图层_x0020_1">
  <metadata id="CorelCorpID_0Corel-Layer"/>
  <path class="fil0 str0" d="M1050 5350l1788 0c103,0 187,-84 187,-186l0 -4328c0,-102 -84,-186 -187,-186l-454 0c-13,0 -17,-1 -28,10l-6 6c-6,7 -16,9 -25,9l-656 0c-11,0 -14,-2 -23,-10l-3 -4c-8,-10 -18,-11 -26,-11l-455 0c-103,0 -187,84 -187,186l0 4328c0,102 84,186 187,186l151 0m728 -4546c2,-28 -31,-49 -43,-50 -42,0 -76,34 -76,76 0,42 34,76 76,76 42,0 76,-34 76,-76 0,-42 -34,-76 -76,-76"/>
 </g>
</svg>
