<?xml version="1.0" encoding="UTF-8"?>
<!DOCTYPE svg PUBLIC "-//W3C//DTD SVG 1.1//EN" "http://www.w3.org/Graphics/SVG/1.1/DTD/svg11.dtd">
<!-- Creator: CorelDRAW -->
<svg xmlns="http://www.w3.org/2000/svg" xml:space="preserve" width="40mm" height="60mm" style="shape-rendering:geometricPrecision; text-rendering:geometricPrecision; image-rendering:optimizeQuality; fill-rule:evenodd; clip-rule:evenodd"
viewBox="0 0 40 60"
 xmlns:xlink="http://www.w3.org/1999/xlink">
 <defs>
  <style type="text/css">
   <![CDATA[
    .str0 {stroke:#1F1A17;stroke-width:0.194}
    .fil0 {fill:none;fill-rule:nonzero}
   ]]>
  </style>
 </defs>
 <g id="图层_x0020_2">
  <metadata id="CorelCorpID_0Corel-Layer"/>
  <g id="_157010136">
   <path id="_158556136" class="fil0 str0" d="M34.3166 52.3222l-0.0354 -9.4244 -0.0097 -0.033c-0.0183,-0.0645 -0.0183,-0.0645 -0.2758,-0.1012l-11.2632 0.0025 -0.0488 -0.0012m11.6329 9.5573c0.0036,1.1628 0.0036,1.1628 -0.1013,1.1579l-6.1361 0.0159m-5.5212 -8.4153c-0.0329,3.27 -0.0269,2.4525 -0.039,5.7212 -0.0073,1.84 0.0232,2.5879 0.1086,2.6611 0.0402,0.0354 1.2958,0.0428 5.4516,0.033m-5.5139 -9.1584l-0.0073 0.7431m0.1257 -2.3158c-0.1037,-0.0123 -0.1037,-0.0123 -0.1184,1.5727"/>
   <g>
    <path id="_158578928" class="fil0 str0" d="M34.3166 34.1637l-0.0354 -9.4244 -0.0097 -0.033c-0.0183,-0.0646 -0.0183,-0.0646 -0.2758,-0.1013l-11.2632 0.0025 -0.0488 -0.0012m11.6329 9.5574c0.0036,1.1627 0.0036,1.1627 -0.1013,1.1579l-6.1361 0.0159m-5.5212 -8.4154c-0.0329,3.27 -0.0269,2.4525 -0.039,5.7213 -0.0073,1.8399 0.0232,2.5879 0.1086,2.6611 0.0402,0.0354 1.2958,0.0427 5.4516,0.033m-5.5139 -9.1584l-0.0073 0.743m0.1257 -2.3158c-0.1037,-0.0123 -0.1037,-0.0123 -0.1184,1.5728"/>
    <path id="_156318384" class="fil0 str0" d="M17.3803 52.3222l-0.0354 -9.4244 -0.0097 -0.033c-0.0183,-0.0645 -0.0183,-0.0645 -0.2758,-0.1012l-11.2632 0.0025 -0.0488 -0.0012m11.6329 9.5573c0.0037,1.1628 0.0037,1.1628 -0.1012,1.1579l-6.1362 0.0159m-5.5212 -8.4153c-0.0329,3.27 -0.0268,2.4525 -0.039,5.7212 -0.0072,1.84 0.0232,2.5879 0.1086,2.6611 0.0403,0.0354 1.2958,0.0428 5.4516,0.033m-5.5138 -9.1584l-0.0074 0.7431m0.1257 -2.3158c-0.1036,-0.0123 -0.1036,-0.0123 -0.1183,1.5727"/>
   </g>
   <path id="_125633616" class="fil0 str0" d="M17.4122 34.1637l-0.0354 -9.4244 -0.0097 -0.033c-0.0183,-0.0646 -0.0183,-0.0646 -0.2758,-0.1013l-11.2632 0.0025 -0.0488 -0.0012m11.6329 9.5574c0.0036,1.1627 0.0036,1.1627 -0.1012,1.1579l-6.1362 0.0159m-5.5212 -8.4154c-0.0329,3.27 -0.0268,2.4525 -0.039,5.7213 -0.0073,1.8399 0.0232,2.5879 0.1086,2.6611 0.0402,0.0354 1.2958,0.0427 5.4516,0.033m-5.5138 -9.1584l-0.0074 0.743m0.1257 -2.3158c-0.1037,-0.0123 -0.1037,-0.0123 -0.1183,1.5728"/>
   <path id="_161470744" class="fil0 str0" d="M17.4122 16.0591l-0.0354 -9.4244 -0.0097 -0.033c-0.0183,-0.0645 -0.0183,-0.0645 -0.2758,-0.1012l-11.2632 0.0025 -0.0488 -0.0012m11.6329 9.5573c0.0036,1.1628 0.0036,1.1628 -0.1012,1.1579l-6.1362 0.0159m-5.5212 -8.4153c-0.0329,3.2699 -0.0268,2.4525 -0.039,5.7212 -0.0073,1.8399 0.0232,2.5879 0.1086,2.6611 0.0402,0.0354 1.2958,0.0428 5.4516,0.033m-5.5138 -9.1584l-0.0074 0.7431m0.1257 -2.3158c-0.1037,-0.0123 -0.1037,-0.0123 -0.1183,1.5727"/>
   <path id="_161469904" class="fil0 str0" d="M34.4172 16.0591l-0.0354 -9.4244 -0.0098 -0.033c-0.0183,-0.0645 -0.0183,-0.0645 -0.2757,-0.1012l-11.2632 0.0025 -0.0488 -0.0012m11.6329 9.5573c0.0036,1.1628 0.0036,1.1628 -0.1013,1.1579l-6.1361 0.0159m-5.5212 -8.4153c-0.0329,3.2699 -0.0269,2.4525 -0.039,5.7212 -0.0073,1.8399 0.0232,2.5879 0.1086,2.6611 0.0402,0.0354 1.2958,0.0428 5.4516,0.033m-5.5139 -9.1584l-0.0073 0.7431m0.1257 -2.3158c-0.1037,-0.0123 -0.1037,-0.0123 -0.1184,1.5727"/>
  </g>
 </g>
</svg>
