<?xml version="1.0" encoding="UTF-8"?>
<!DOCTYPE svg PUBLIC "-//W3C//DTD SVG 1.1//EN" "http://www.w3.org/Graphics/SVG/1.1/DTD/svg11.dtd">
<!-- Creator: CorelDRAW X8 -->
<svg xmlns="http://www.w3.org/2000/svg" xml:space="preserve" width="40mm" height="60mm" version="1.1" style="shape-rendering:geometricPrecision; text-rendering:geometricPrecision; image-rendering:optimizeQuality; fill-rule:evenodd; clip-rule:evenodd"
viewBox="0 0 4000 6000"
 xmlns:xlink="http://www.w3.org/1999/xlink">
 <defs>
  <style type="text/css">
   <![CDATA[
    .str0 {stroke:black;stroke-width:7.62}
    .fil0 {fill:none}
   ]]>
  </style>
 </defs>
 <g id="图层_x0020_1">
  <metadata id="CorelCorpID_0Corel-Layer"/>
  <path class="fil0 str0" d="M1512 1018c17,-106 -72,-179 -116,-183 -156,0 -283,127 -283,283 0,157 127,283 283,283 157,0 283,-126 283,-283 0,-156 -126,-283 -283,-283m116 788c17,-106 -72,-180 -116,-183 -156,0 -283,127 -283,283 0,156 127,283 283,283 157,0 283,-127 283,-283 0,-156 -126,-283 -283,-283m433 -118c-3,-12 -7,-21 -28,-21l-17 0c-24,0 -44,19 -44,43l0 0c0,24 20,44 44,44l188 0c24,0 44,-20 44,-44l0 0c0,-24 -20,-43 -44,-43l-171 0m-595 -513l813 0c71,0 129,58 129,129l0 1013c0,71 -58,129 -129,129l-813 0c-71,0 -129,-58 -129,-129l0 -1013c0,-71 58,-129 129,-129zm-27 -37l852 0c80,0 145,65 145,145l0 1050c0,80 -65,145 -145,145l-852 0c-80,0 -145,-65 -145,-145l0 -1050c0,-80 65,-145 145,-145zm-135 4558l1776 0c136,0 247,-111 247,-247l0 -4165c0,-136 -111,-247 -247,-247l-1640 0c-136,0 -247,111 -247,247l0 4165c0,136 111,247 247,247l79 0c80,0 134,19 160,41"/>
 </g>
</svg>
