<?xml version="1.0" encoding="UTF-8"?>
<!DOCTYPE svg PUBLIC "-//W3C//DTD SVG 1.1//EN" "http://www.w3.org/Graphics/SVG/1.1/DTD/svg11.dtd">
<!-- Creator: CorelDRAW -->
<svg xmlns="http://www.w3.org/2000/svg" xml:space="preserve" width="40mm" height="60mm" style="shape-rendering:geometricPrecision; text-rendering:geometricPrecision; image-rendering:optimizeQuality; fill-rule:evenodd; clip-rule:evenodd"
viewBox="0 0 40 60"
 xmlns:xlink="http://www.w3.org/1999/xlink">
 <defs>
  <style type="text/css">
   <![CDATA[
    .str0 {stroke:#1F1A17;stroke-width:0.194}
    .str1 {stroke:#1F1A17;stroke-width:0.2}
    .fil1 {fill:none}
    .fil0 {fill:none;fill-rule:nonzero}
   ]]>
  </style>
 </defs>
 <g id="图层_x0020_1">
  <metadata id="CorelCorpID_0Corel-Layer"/>
  <g id="_238403128">
   <line id="_213766856" class="fil0 str0" x1="13.5051" y1="6.5186" x2="16.8086" y2= "6.5004" />
   <path id="_213766976" class="fil0 str0" d="M16.8086 6.5004c0.4895,-0.0026 0.4895,-0.0026 0.6523,0.3099"/>
   <line id="_48588096" class="fil0 str0" x1="17.4609" y1="6.8103" x2="17.5065" y2= "6.8988" />
   <path id="_213767000" class="fil0 str0" d="M17.5065 6.8988c0.0247,0.0469 0.0469,0.0834 0.069,0.1107 0.1927,0.2318 0.5481,0.2695 2.4844,0.2695 1.1471,0 2.0534,-0.039 2.2005,-0.0963 0.194,-0.0755 0.2161,-0.0977 0.5156,-0.5156 0.0208,-0.03 0.0404,-0.0521 0.0586,-0.0651"/>
   <line id="_238402576" class="fil0 str0" x1="22.8346" y1="6.602" x2="22.8567" y2= "6.5746" />
   <path id="_238281536" class="fil0 str0" d="M22.8567 6.5746c0.0274,-0.056 0.0274,-0.056 2.6706,-0.0521"/>
   <line id="_238403992" class="fil0 str0" x1="25.5273" y1="6.5225" x2="26.8568" y2= "6.5238" />
   <path id="_238280720" class="fil0 str0" d="M26.8568 6.5238c3.0468,0.0039 3.5481,0.0091 3.8307,0.0391 0.7183,0.0791 1.1548,0.8543 1.1562,1.5104"/>
   <line id="_238280456" class="fil0 str0" x1="31.8437" y1="8.0733" x2="31.8958" y2= "33.4536" />
   <path id="_238281680" class="fil0 str0" d="M31.8958 33.4536c0.0222,11.0743 -0.0247,16.711 -0.1497,18.1706 -0.0638,0.7305 -0.4128,1.4206 -0.8659,1.7058"/>
   <line id="_238281824" class="fil0 str0" x1="30.8802" y1="53.33" x2="30.8255" y2= "53.3716" />
   <path id="_238281896" class="fil0 str0" d="M30.8255 53.3716c-0.151,0.1342 -0.151,0.1342 -8.2188,0.125"/>
   <line id="_238281440" class="fil0 str0" x1="22.6067" y1="53.4966" x2="9.8749" y2= "53.4823" />
   <path id="_238281656" class="fil0 str0" d="M9.8749 53.4823c-0.8607,0 -1.2409,-0.1836 -1.5911,-0.7656 -0.1094,-0.181 -0.1732,-0.3672 -0.1849,-0.5378"/>
   <line id="_238281848" class="fil0 str0" x1="8.0989" y1="52.1789" x2="8.151" y2= "42.2336" />
   <path id="_238281704" class="fil0 str0" d="M8.151 42.2336c0.0585,-11.2995 0.1093,-22.599 0.1549,-33.8986"/>
   <line id="_238281920" class="fil0 str0" x1="8.3059" y1="8.335" x2="8.2577" y2= "7.8376" />
   <path id="_238282664" class="fil0 str0" d="M8.2577 7.8376c-0.0013,-0.013 -0.0026,-0.0273 -0.0026,-0.0403 0,-0.3542 0.461,-0.9193 0.9037,-1.1094"/>
   <line id="_238282400" class="fil0 str0" x1="9.1588" y1="6.6879" x2="9.1861" y2= "6.6762" />
   <path id="_238282592" class="fil0 str0" d="M9.1861 6.6762c0.2943,-0.1263 0.2943,-0.1263 2.3555,-0.1433"/>
   <line id="_238282640" class="fil0 str0" x1="11.5416" y1="6.5329" x2="13.7344" y2= "6.5174" />
   <circle id="_238405216" class="fil1 str1" cx="27.7056" cy="8.00266" r="0.650791"/>
   <circle id="_213763616" class="fil1 str1" cx="16.5835" cy="8.83118" r="0.110102"/>
   <circle id="_213765680" class="fil1 str1" cx="12.6415" cy="8.17378" r="0.619935"/>
  </g>
 </g>
</svg>
