<?xml version="1.0" encoding="UTF-8"?>
<!DOCTYPE svg PUBLIC "-//W3C//DTD SVG 1.1//EN" "http://www.w3.org/Graphics/SVG/1.1/DTD/svg11.dtd">
<!-- Creator: CorelDRAW X8 -->
<svg xmlns="http://www.w3.org/2000/svg" xml:space="preserve" width="40mm" height="60mm" version="1.1" style="shape-rendering:geometricPrecision; text-rendering:geometricPrecision; image-rendering:optimizeQuality; fill-rule:evenodd; clip-rule:evenodd"
viewBox="0 0 4000 6000"
 xmlns:xlink="http://www.w3.org/1999/xlink">
 <defs>
  <style type="text/css">
   <![CDATA[
    .fil0 {fill:#332C2B;fill-rule:nonzero}
   ]]>
  </style>
 </defs>
 <g id="图层_x0020_1">
  <metadata id="CorelCorpID_0Corel-Layer"/>
  <path class="fil0" d="M-4433 3638l945 290c-145,532 -387,926 -725,1185 -337,258 -764,387 -1283,387 -642,0 -1169,-219 -1583,-658 -413,-438 -620,-1038 -620,-1799 0,-804 208,-1430 623,-1875 415,-445 962,-668 1639,-668 591,0 1072,175 1440,525 221,207 385,504 495,892l-965 229c-57,-249 -176,-447 -357,-592 -183,-145 -403,-217 -662,-217 -358,0 -650,128 -872,385 -224,257 -335,673 -335,1249 0,609 110,1045 329,1303 221,260 506,389 858,389 260,0 484,-82 670,-247 187,-165 322,-424 403,-778z"/>
  <path class="fil0" d="M3091 3599l888 273c-136,500 -364,871 -681,1114 -317,242 -719,364 -1206,364 -604,0 -1099,-206 -1488,-618 -388,-413 -583,-976 -583,-1692 0,-756 196,-1343 586,-1762 390,-419 904,-628 1540,-628 556,0 1007,165 1354,494 207,194 362,473 465,838l-907 216c-54,-235 -166,-421 -336,-557 -171,-137 -378,-204 -622,-204 -337,0 -611,120 -820,362 -210,241 -315,632 -315,1174 0,572 104,982 310,1225 207,244 476,365 806,365 245,0 455,-77 631,-232 175,-155 302,-399 378,-732z"/>
 </g>
</svg>
