<?xml version="1.0" encoding="UTF-8"?>
<!DOCTYPE svg PUBLIC "-//W3C//DTD SVG 1.1//EN" "http://www.w3.org/Graphics/SVG/1.1/DTD/svg11.dtd">
<!-- Creator: CorelDRAW X8 -->
<svg xmlns="http://www.w3.org/2000/svg" xml:space="preserve" width="40mm" height="60mm" version="1.1" style="shape-rendering:geometricPrecision; text-rendering:geometricPrecision; image-rendering:optimizeQuality; fill-rule:evenodd; clip-rule:evenodd"
viewBox="0 0 4000 6000"
 xmlns:xlink="http://www.w3.org/1999/xlink">
 <defs>
  <style type="text/css">
   <![CDATA[
    .str0 {stroke:black;stroke-width:7.62}
    .fil0 {fill:none}
   ]]>
  </style>
 </defs>
 <g id="图层_x0020_1">
  <metadata id="CorelCorpID_0Corel-Layer"/>
  <path class="fil0 str0" d="M938 5350l1934 0c127,0 231,-104 231,-231l0 -4238c0,-127 -104,-231 -231,-231l-1744 0c-127,0 -231,104 -231,231l0 4238c0,127 104,231 231,231l102 0m44 -4647c-1,-7 -7,-14 -19,-15 -46,0 -83,37 -83,83 0,45 37,82 83,82 45,0 82,-37 82,-82 0,-46 -37,-83 -82,-83m564 54c-4,-14 -9,-24 -32,-24l-20 0c-27,0 -49,23 -49,50l0 0c0,27 22,49 49,49l475 0c27,0 50,-22 50,-49l0 0c0,-27 -23,-50 -50,-50l-455 0m29 4491c-4,-14 -9,-24 -33,-24l-19 0c-27,0 -50,23 -50,50l0 0c0,27 23,49 50,49l475 0c27,0 49,-22 49,-49l0 0c0,-27 -22,-50 -49,-50l-456 0"/>
 </g>
</svg>
