<?xml version="1.0" encoding="UTF-8"?>
<!DOCTYPE svg PUBLIC "-//W3C//DTD SVG 1.1//EN" "http://www.w3.org/Graphics/SVG/1.1/DTD/svg11.dtd">
<!-- Creator: CorelDRAW 2020 (64-Bit) -->
<svg xmlns="http://www.w3.org/2000/svg" xml:space="preserve" width="40mm" height="60mm" version="1.1" style="shape-rendering:geometricPrecision; text-rendering:geometricPrecision; image-rendering:optimizeQuality; fill-rule:evenodd; clip-rule:evenodd"
viewBox="0 0 4000 6000"
 xmlns:xlink="http://www.w3.org/1999/xlink"
 xmlns:xodm="http://www.corel.com/coreldraw/odm/2003">
 <defs>
  <style type="text/css">
   <![CDATA[
    .str0 {stroke:black;stroke-width:7.62;stroke-miterlimit:22.9256}
    .fil0 {fill:none}
   ]]>
  </style>
 </defs>
 <g id="图层_x0020_1">
  <metadata id="CorelCorpID_0Corel-Layer"/>
  <path class="fil0 str0" d="M2556.17 1957.2l514.45 0c97.15,0 176.64,-79.49 176.64,-176.65l0 -948.24c0,-97.16 -79.49,-176.64 -176.64,-176.64l-385.86 0c-97.15,0 -176.64,79.48 -176.64,176.64l0 948.24c0,97.16 79.49,176.65 176.64,176.65l14.89 0c63.25,0 93.63,14.06 103.24,24.14m-1131.01 -24.14l514.45 0c97.15,0 176.64,-79.49 176.64,-176.65l0 -948.24c0,-97.16 -79.49,-176.64 -176.64,-176.64l-385.86 0c-97.15,0 -176.64,79.48 -176.64,176.64l0 948.24c0,97.16 79.49,176.65 176.64,176.65l14.89 0c63.25,0 93.63,14.06 103.24,24.14m-1131.01 -24.14l514.45 0c97.15,0 176.64,-79.49 176.64,-176.65l0 -948.24c0,-97.16 -79.49,-176.64 -176.64,-176.64l-385.86 0c-97.15,0 -176.64,79.48 -176.64,176.64l0 948.24c0,97.16 79.49,176.65 176.64,176.65l14.89 0c63.25,0 93.63,14.06 103.24,24.14m1521.86 1679.09l514.45 0c97.15,0 176.64,-79.49 176.64,-176.64l0 -948.25c0,-97.15 -79.49,-176.64 -176.64,-176.64l-385.86 0c-97.15,0 -176.64,79.49 -176.64,176.64l0 948.25c0,97.15 79.49,176.64 176.64,176.64l14.89 0c63.25,0 93.63,14.07 103.24,24.14m-1131.01 -24.14l514.45 0c97.15,0 176.64,-79.49 176.64,-176.64l0 -948.25c0,-97.15 -79.49,-176.64 -176.64,-176.64l-385.86 0c-97.15,0 -176.64,79.49 -176.64,176.64l0 948.25c0,97.15 79.49,176.64 176.64,176.64l14.89 0c63.25,0 93.63,14.07 103.24,24.14m-1131.01 -24.14l514.45 0c97.15,0 176.64,-79.49 176.64,-176.64l0 -948.25c0,-97.15 -79.49,-176.64 -176.64,-176.64l-385.86 0c-97.15,0 -176.64,79.49 -176.64,176.64l0 948.25c0,97.15 79.49,176.64 176.64,176.64l14.89 0c63.25,0 93.63,14.07 103.24,24.14m1521.86 1646.95l514.45 0c97.15,0 176.64,-79.49 176.64,-176.64l0 -948.24c0,-97.16 -79.49,-176.64 -176.64,-176.64l-385.86 0c-97.15,0 -176.64,79.48 -176.64,176.64l0 948.24c0,97.16 79.49,176.64 176.64,176.64l14.89 0c63.25,0 93.63,14.07 103.24,24.15m-1131.01 -24.15l514.45 0c97.15,0 176.64,-79.49 176.64,-176.64l0 -948.24c0,-97.16 -79.49,-176.64 -176.64,-176.64l-385.86 0c-97.15,0 -176.64,79.48 -176.64,176.64l0 948.24c0,97.16 79.49,176.64 176.64,176.64l14.89 0c63.25,0 93.63,14.07 103.24,24.15m-1131.01 -24.15l514.45 0c97.15,0 176.64,-79.49 176.64,-176.64l0 -948.24c0,-97.16 -79.49,-176.64 -176.64,-176.64l-385.86 0c-97.15,0 -176.64,79.48 -176.64,176.64l0 948.24c0,97.16 79.49,176.64 176.64,176.64l14.89 0c63.25,0 93.63,14.07 103.24,24.15"/>
 </g>
</svg>
