<?xml version="1.0" encoding="UTF-8"?>
<!DOCTYPE svg PUBLIC "-//W3C//DTD SVG 1.1//EN" "http://www.w3.org/Graphics/SVG/1.1/DTD/svg11.dtd">
<!-- Creator: CorelDRAW -->
<svg xmlns="http://www.w3.org/2000/svg" xml:space="preserve" width="40mm" height="60mm" style="shape-rendering:geometricPrecision; text-rendering:geometricPrecision; image-rendering:optimizeQuality; fill-rule:evenodd; clip-rule:evenodd"
viewBox="0 0 40 60"
 xmlns:xlink="http://www.w3.org/1999/xlink">
 <defs>
  <style type="text/css">
   <![CDATA[
    .str0 {stroke:#1F1A17;stroke-width:0.194}
    .fil0 {fill:none}
   ]]>
  </style>
 </defs>
 <g id="图层_x0020_3">
  <metadata id="CorelCorpID_0Corel-Layer"/>
  <path class="fil0 str0" d="M9.6503 51.0081c0.0208,1.0788 0.5249,1.9032 1.4071,2.3044 0.2545,0.1158 0.4112,0.1487 0.8863,0.1875l16.2464 -0.0089c0.6796,-0.0379 1.3683,-0.4591 1.7305,-1.0589 0.3104,-0.5149 0.3742,-0.7584 0.3742,-1.4301m-20.6196 -42.7555l-0.0249 42.7615m0.0249 -42.7615c0,-0.6388 0.3054,-1.2855 0.8244,-1.7466l8.3882 0.0419 0.0339 0.065 0.2924 0.5908c0.1527,0.2495 0.4551,0.4081 0.7754,0.4081 0.4122,0 0.6817,-0.1986 0.8882,-0.6547 0.0988,-0.2185 0.1687,-0.3552 0.2096,-0.4092l8.3802 -0.0419c0.5589,0.507 0.8373,1.1258 0.8822,1.9562m-0.0549 42.5459l0.0549 -42.5459"/>
 </g>
</svg>
