<?xml version="1.0" encoding="UTF-8"?>
<!DOCTYPE svg PUBLIC "-//W3C//DTD SVG 1.1//EN" "http://www.w3.org/Graphics/SVG/1.1/DTD/svg11.dtd">
<!-- Creator: CorelDRAW X8 -->
<svg xmlns="http://www.w3.org/2000/svg" xml:space="preserve" width="40mm" height="60mm" version="1.1" style="shape-rendering:geometricPrecision; text-rendering:geometricPrecision; image-rendering:optimizeQuality; fill-rule:evenodd; clip-rule:evenodd"
viewBox="0 0 4000 6000"
 xmlns:xlink="http://www.w3.org/1999/xlink">
 <defs>
  <style type="text/css">
   <![CDATA[
    .str0 {stroke:#332C2B;stroke-width:7.62}
    .fil0 {fill:none}
   ]]>
  </style>
 </defs>
 <g id="图层_x0020_1">
  <metadata id="CorelCorpID_0Corel-Layer"/>
  <path class="fil0 str0" d="M208 5254l1589 0 0 -27c0,-19 16,-35 35,-35l401 0c20,0 35,16 35,35l0 27 1379 0c80,0 145,-65 145,-145l0 -4314c0,-80 -65,-145 -145,-145l-188 0c-15,31 -46,52 -82,52 -36,0 -67,-21 -82,-52l-2521 0 0 13c0,21 -18,39 -40,39l-194 0c-21,0 -39,-18 -39,-39l0 -13 -100 0c-80,0 -145,65 -145,145l0 312 58 0c19,0 35,16 35,35l0 602c0,19 -16,35 -35,35l-58 0 0 3330c0,80 65,145 145,145 80,0 166,43 166,96m109 -4486c-36,-21 -22,-86 23,-86 45,0 81,37 81,82 0,45 -36,81 -81,81 -45,0 -82,-36 -82,-81 0,-45 37,-82 82,-82"/>
 </g>
</svg>
