<?xml version="1.0" encoding="UTF-8"?>
<!DOCTYPE svg PUBLIC "-//W3C//DTD SVG 1.1//EN" "http://www.w3.org/Graphics/SVG/1.1/DTD/svg11.dtd">
<!-- Creator: CorelDRAW X8 -->
<svg xmlns="http://www.w3.org/2000/svg" xml:space="preserve" width="40mm" height="60mm" version="1.1" style="shape-rendering:geometricPrecision; text-rendering:geometricPrecision; image-rendering:optimizeQuality; fill-rule:evenodd; clip-rule:evenodd"
viewBox="0 0 4000 6000"
 xmlns:xlink="http://www.w3.org/1999/xlink">
 <defs>
  <style type="text/css">
   <![CDATA[
    .str0 {stroke:black;stroke-width:7.62}
    .fil0 {fill:none}
   ]]>
  </style>
 </defs>
 <g id="图层_x0020_1">
  <metadata id="CorelCorpID_0Corel-Layer"/>
  <path class="fil0 str0" d="M1059 5321l1762 0c129,0 235,-105 235,-234l0 -4203c0,-128 -106,-234 -235,-234l-461 0c-2,0 -4,1 -6,3l-4 4c-2,1 -4,2 -7,2l-209 0c-26,0 -47,22 -47,48l0 40c0,48 -39,87 -87,87l0 0c-48,0 -87,-39 -87,-87l0 -40c0,-26 -21,-48 -47,-48l-209 0c-3,0 -5,-1 -7,-2l-4 -4c-2,-2 -4,-3 -7,-3l-460 0c-129,0 -235,106 -235,234l0 4203c0,129 106,234 235,234l63 0c68,0 106,13 110,29"/>
 </g>
</svg>
