<?xml version="1.0" encoding="UTF-8"?>
<!DOCTYPE svg PUBLIC "-//W3C//DTD SVG 1.1//EN" "http://www.w3.org/Graphics/SVG/1.1/DTD/svg11.dtd">
<!-- Creator: CorelDRAW X8 -->
<svg xmlns="http://www.w3.org/2000/svg" xml:space="preserve" width="40mm" height="60mm" version="1.1" style="shape-rendering:geometricPrecision; text-rendering:geometricPrecision; image-rendering:optimizeQuality; fill-rule:evenodd; clip-rule:evenodd"
viewBox="0 0 4000 6000"
 xmlns:xlink="http://www.w3.org/1999/xlink">
 <defs>
  <style type="text/css">
   <![CDATA[
    .str0 {stroke:#332C2B;stroke-width:19.4}
    .fil0 {fill:none;fill-rule:nonzero}
   ]]>
  </style>
 </defs>
 <g id="图层_x0020_1">
  <metadata id="CorelCorpID_0Corel-Layer"/>
  <g id="_2078420004960">
   <g>
    <line class="fil0 str0" x1="3084" y1="650" x2="3084" y2= "682" />
    <polyline class="fil0 str0" points="1833,869 1833,878 1839,876 "/>
    <path class="fil0 str0" d="M1839 876c2,-3 3,-5 3,-7 0,-3 -1,-6 -4,-9 6,-12 9,-25 9,-38 0,-43 -34,-75 -79,-75 -44,0 -77,33 -77,78 0,43 35,78 79,78 18,0 37,-8 52,-21 15,-13 24,-30 24,-46 0,-6 -1,-9 -2,-12 -2,-3 -5,-6 -10,-10 -10,-6 -25,-13 -78,-35"/>
    <line class="fil0 str0" x1="2195" y1="1572" x2="2186" y2= "1568" />
    <path class="fil0 str0" d="M2186 1568c2,-2 3,-4 4,-5"/>
    <line class="fil0 str0" x1="2190" y1="1563" x2="2191" y2= "1563" />
    <path class="fil0 str0" d="M2191 1563c-33,-71 -105,-116 -184,-116 -113,0 -205,91 -205,204 0,113 92,204 205,204 112,0 204,-91 204,-203 0,-59 -29,-127 -55,-127 -13,0 -33,5 -176,40"/>
    <polyline class="fil0 str0" points="3078,5227 3069,5228 3069,5227 3069,5226 1164,5227 "/>
    <path class="fil0 str0" d="M1164 5227c-117,-4 -231,-116 -235,-231"/>
    <line class="fil0 str0" x1="929" y1="4996" x2="917" y2= "1742" />
    <path class="fil0 str0" d="M917 1742c-2,-546 0,-663 15,-721 2,-10 7,-16 24,-29 14,-12 15,-12 116,-12"/>
    <line class="fil0 str0" x1="1072" y1="980" x2="1406" y2= "980" />
    <path class="fil0 str0" d="M1406 980c92,0 92,0 112,-8"/>
    <line class="fil0 str0" x1="1518" y1="972" x2="1520" y2= "971" />
    <path class="fil0 str0" d="M1520 971c49,-21 75,-65 75,-128"/>
    <line class="fil0 str0" x1="1595" y1="843" x2="1595" y2= "752" />
    <path class="fil0 str0" d="M1595 752c0,-2 0,-3 0,-5 0,-77 15,-96 77,-96"/>
    <line class="fil0 str0" x1="1672" y1="651" x2="2821" y2= "652" />
    <path class="fil0 str0" d="M2821 652c41,0 49,0 65,4 66,17 123,56 156,108 23,38 40,84 41,117"/>
    <line class="fil0 str0" x1="3083" y1="881" x2="3082" y2= "5006" />
    <path class="fil0 str0" d="M3082 5006c0,30 -28,95 -56,129 -47,58 -108,87 -195,93 -96,6 -154,38 -220,122"/>
   </g>
  </g>
 </g>
</svg>
