<?xml version="1.0" encoding="UTF-8"?>
<!DOCTYPE svg PUBLIC "-//W3C//DTD SVG 1.1//EN" "http://www.w3.org/Graphics/SVG/1.1/DTD/svg11.dtd">
<!-- Creator: CorelDRAW X8 -->
<svg xmlns="http://www.w3.org/2000/svg" xml:space="preserve" width="40mm" height="60mm" version="1.1" style="shape-rendering:geometricPrecision; text-rendering:geometricPrecision; image-rendering:optimizeQuality; fill-rule:evenodd; clip-rule:evenodd"
viewBox="0 0 4000 6000"
 xmlns:xlink="http://www.w3.org/1999/xlink">
 <defs>
  <style type="text/css">
   <![CDATA[
    .str0 {stroke:black;stroke-width:20}
    .fil0 {fill:none}
   ]]>
  </style>
 </defs>
 <g id="图层_x0020_1">
  <metadata id="CorelCorpID_0Corel-Layer"/>
  <path class="fil0 str0" d="M1092 650l1816 0c150,0 273,123 273,273l0 4154c0,150 -123,273 -273,273l-1816 0c-150,0 -273,-123 -273,-273l0 -4154c0,-150 123,-273 273,-273zm243 154c37,0 67,30 67,67 0,37 -30,67 -67,67 -37,0 -67,-30 -67,-67 0,-37 30,-67 67,-67zm531 31l281 0c20,0 36,16 36,36l0 0c0,20 -16,37 -36,37l-281 0c-20,0 -36,-17 -36,-37l0 0c0,-20 16,-36 36,-36zm519 0l82 0c20,0 37,16 37,36l0 0c0,20 -17,37 -37,37l-82 0c-20,0 -37,-17 -37,-37l0 0c0,-20 17,-36 37,-36zm521 -5c23,0 41,19 41,41 0,23 -18,41 -41,41 -22,0 -40,-18 -40,-41 0,-22 18,-41 40,-41z"/>
 </g>
</svg>
