<?xml version="1.0" encoding="UTF-8"?>
<!DOCTYPE svg PUBLIC "-//W3C//DTD SVG 1.1//EN" "http://www.w3.org/Graphics/SVG/1.1/DTD/svg11.dtd">
<!-- Creator: CorelDRAW X8 -->
<svg xmlns="http://www.w3.org/2000/svg" xml:space="preserve" width="40mm" height="60mm" version="1.1" style="shape-rendering:geometricPrecision; text-rendering:geometricPrecision; image-rendering:optimizeQuality; fill-rule:evenodd; clip-rule:evenodd"
viewBox="0 0 4000 6000"
 xmlns:xlink="http://www.w3.org/1999/xlink">
 <defs>
  <style type="text/css">
   <![CDATA[
    .str0 {stroke:#332C2B;stroke-width:10}
    .fil0 {fill:none}
   ]]>
  </style>
 </defs>
 <g id="图层_x0020_1">
  <metadata id="CorelCorpID_0Corel-Layer"/>
  <path class="fil0 str0" d="M1442 1070c2,-67 -77,-120 -105,-122 -102,0 -185,82 -185,184 0,102 83,185 185,185 102,0 184,-83 184,-185 0,-102 -82,-184 -184,-184m-23 432c-3,-12 -7,-21 -27,-21l-17 0c-23,0 -42,19 -42,43l0 0c0,23 19,42 42,42l130 0c23,0 42,-19 42,-42l0 0c0,-24 -19,-43 -42,-43l-113 0m100 251c1,-49 -56,-87 -77,-89 -75,0 -135,61 -135,135 0,75 60,135 135,135 74,0 135,-60 135,-135 0,-74 -61,-135 -135,-135m396 89c2,-49 -56,-87 -77,-89 -75,0 -135,60 -135,135 0,75 60,135 135,135 75,0 135,-60 135,-135 0,-75 -60,-135 -135,-135m-456 -627l585 0c33,0 60,27 60,60l0 856c0,33 -27,60 -60,60l-585 0c-33,0 -60,-27 -60,-60l0 -856c0,-33 27,-60 60,-60zm0 -83l585 0c62,0 113,51 113,114l0 914c0,63 -51,114 -113,114l-585 0c-62,0 -113,-51 -113,-114l0 -914c0,-63 51,-114 113,-114zm-23 -161l1700 0c125,0 229,94 244,215l153 0c8,0 15,6 15,15l0 4234c0,9 -7,15 -15,15l-152 0c-13,124 -118,221 -245,221l-1700 0c-126,0 -232,-97 -245,-221l-151 0c-8,0 -15,-6 -15,-15l0 -2177 70 0c16,0 30,-13 30,-30l0 -255c0,-16 -14,-30 -30,-30l-39 0c-25,0 -31,-7 -31,-29l0 -121c0,-28 4,-31 33,-31l39 0c16,0 30,-14 30,-30l0 -556c0,-16 -14,-30 -30,-30l-31 0c-40,0 -42,-7 -42,-48l0 -897c0,-9 8,-15 16,-15l152 0c16,-121 120,-215 244,-215z"/>
 </g>
</svg>
