<?xml version="1.0" encoding="UTF-8"?>
<!DOCTYPE svg PUBLIC "-//W3C//DTD SVG 1.1//EN" "http://www.w3.org/Graphics/SVG/1.1/DTD/svg11.dtd">
<!-- Creator: CorelDRAW 2020 (64-Bit) -->
<svg xmlns="http://www.w3.org/2000/svg" xml:space="preserve" width="40mm" height="60mm" version="1.1" style="shape-rendering:geometricPrecision; text-rendering:geometricPrecision; image-rendering:optimizeQuality; fill-rule:evenodd; clip-rule:evenodd"
viewBox="0 0 4000 6000"
 xmlns:xlink="http://www.w3.org/1999/xlink"
 xmlns:xodm="http://www.corel.com/coreldraw/odm/2003">
 <defs>
  <style type="text/css">
   <![CDATA[
    .str0 {stroke:#332C2B;stroke-width:20;stroke-miterlimit:22.9256}
    .fil0 {fill:none}
   ]]>
  </style>
 </defs>
 <g id="图层_x0020_1">
  <metadata id="CorelCorpID_0Corel-Layer"/>
  <path class="fil0 str0" d="M28217.52 -12186.01c0,-1165.32 944.68,-2110 2110,-2110 1165.32,0 2110,944.68 2110,2110 0,1165.32 -944.68,2110 -2110,2110 -1165.32,0 -2110,-944.68 -2110,-2110z"/>
  <line class="fil0 str0" x1="28217.52" y1="-12186.01" x2="28217.52" y2= "-14165.08" />
  <path class="fil0 str0" d="M28217.52 -16855.87c0,-1165.32 944.68,-2110 2110,-2110 1165.32,0 2110,944.68 2110,2110 0,1165.32 -944.68,2110 -2110,2110 -1165.32,0 -2110,-944.68 -2110,-2110z"/>
  <line class="fil0 str0" x1="28217.52" y1="-16855.87" x2="28217.52" y2= "-18834.94" />
  <path class="fil0 str0" d="M32890.1 -12186.01c0,-1165.32 944.68,-2110 2110,-2110 1165.32,0 2110,944.68 2110,2110 0,1165.32 -944.68,2110 -2110,2110 -1165.32,0 -2110,-944.68 -2110,-2110z"/>
  <line class="fil0 str0" x1="32890.1" y1="-12186.01" x2="32890.1" y2= "-14165.08" />
  <path class="fil0 str0" d="M32890.1 -16855.87c0,-1165.32 944.68,-2110 2110,-2110 1165.32,0 2110,944.68 2110,2110 0,1165.32 -944.68,2110 -2110,2110 -1165.32,0 -2110,-944.68 -2110,-2110z"/>
  <line class="fil0 str0" x1="32890.1" y1="-16855.87" x2="32890.1" y2= "-18834.94" />
  <path class="fil0 str0" d="M37504.44 -12186.01c0,-1165.32 944.68,-2110 2110,-2110 1165.32,0 2110,944.68 2110,2110 0,1165.32 -944.68,2110 -2110,2110 -1165.32,0 -2110,-944.68 -2110,-2110z"/>
  <line class="fil0 str0" x1="37504.44" y1="-12186.01" x2="37504.44" y2= "-14165.08" />
  <path class="fil0 str0" d="M37504.44 -16855.87c0,-1165.32 944.68,-2110 2110,-2110 1165.32,0 2110,944.68 2110,2110 0,1165.32 -944.68,2110 -2110,2110 -1165.32,0 -2110,-944.68 -2110,-2110z"/>
  <line class="fil0 str0" x1="37504.44" y1="-16855.87" x2="37504.44" y2= "-18834.94" />
  <g id="_2274179466816">
   <path class="fil0 str0" d="M2805.88 5355.65c-405.49,0 -734.21,-328.72 -734.21,-734.21 0,-405.5 328.72,-734.22 734.21,-734.22 405.5,0 734.22,328.72 734.22,734.22 0,405.49 -328.72,734.21 -734.22,734.21z"/>
   <line class="fil0 str0" x1="2805.88" y1="5355.65" x2="2117.23" y2= "5355.65" />
   <path class="fil0 str0" d="M1180.92 5355.65c-405.5,0 -734.22,-328.72 -734.22,-734.21 0,-405.5 328.72,-734.22 734.22,-734.22 405.49,0 734.21,328.72 734.21,734.22 0,405.49 -328.72,734.21 -734.21,734.21z"/>
   <line class="fil0 str0" x1="1180.92" y1="5355.65" x2="492.26" y2= "5355.65" />
   <path class="fil0 str0" d="M2805.88 3729.74c-405.49,0 -734.21,-328.72 -734.21,-734.22 0,-405.49 328.72,-734.21 734.21,-734.21 405.5,0 734.22,328.72 734.22,734.21 0,405.5 -328.72,734.22 -734.22,734.22z"/>
   <line class="fil0 str0" x1="2805.88" y1="3729.74" x2="2117.23" y2= "3729.74" />
   <path class="fil0 str0" d="M1180.92 3729.74c-405.5,0 -734.22,-328.72 -734.22,-734.22 0,-405.49 328.72,-734.21 734.22,-734.21 405.49,0 734.21,328.72 734.21,734.21 0,405.5 -328.72,734.22 -734.21,734.22z"/>
   <line class="fil0 str0" x1="1180.92" y1="3729.74" x2="492.26" y2= "3729.74" />
   <path class="fil0 str0" d="M2805.88 2124.09c-405.49,0 -734.21,-328.72 -734.21,-734.21 0,-405.5 328.72,-734.22 734.21,-734.22 405.5,0 734.22,328.72 734.22,734.22 0,405.49 -328.72,734.21 -734.22,734.21z"/>
   <line class="fil0 str0" x1="2805.88" y1="2124.09" x2="2117.23" y2= "2124.09" />
   <path class="fil0 str0" d="M1180.92 2124.09c-405.5,0 -734.22,-328.72 -734.22,-734.21 0,-405.5 328.72,-734.22 734.22,-734.22 405.49,0 734.21,328.72 734.21,734.22 0,405.49 -328.72,734.21 -734.21,734.21z"/>
   <line class="fil0 str0" x1="1180.92" y1="2124.09" x2="492.26" y2= "2124.09" />
  </g>
 </g>
</svg>
