<?xml version="1.0" encoding="UTF-8"?>
<!DOCTYPE svg PUBLIC "-//W3C//DTD SVG 1.1//EN" "http://www.w3.org/Graphics/SVG/1.1/DTD/svg11.dtd">
<!-- Creator: CorelDRAW X8 -->
<svg xmlns="http://www.w3.org/2000/svg" xml:space="preserve" width="40mm" height="60mm" version="1.1" style="shape-rendering:geometricPrecision; text-rendering:geometricPrecision; image-rendering:optimizeQuality; fill-rule:evenodd; clip-rule:evenodd"
viewBox="0 0 4000 6000"
 xmlns:xlink="http://www.w3.org/1999/xlink">
 <defs>
  <style type="text/css">
   <![CDATA[
    .str0 {stroke:#332C2B;stroke-width:7.62}
    .fil0 {fill:none}
   ]]>
  </style>
 </defs>
 <g id="图层_x0020_1">
  <metadata id="CorelCorpID_0Corel-Layer"/>
  <path class="fil0 str0" d="M1002 5350l1901 0c121,0 220,-99 220,-220l0 -4260c0,-121 -99,-220 -220,-220l-1806 0c-121,0 -220,99 -220,220l0 4260c0,121 99,220 220,220l214 0m1142 -4625c0,-14 -15,-24 -21,-25 -20,0 -37,17 -37,37 0,20 17,37 37,37 20,0 37,-17 37,-37 0,-20 -17,-37 -37,-37m-72 22c0,-16 -19,-29 -26,-30 -24,0 -44,20 -44,45 0,25 20,45 44,45 25,0 45,-20 45,-45 0,-25 -20,-45 -45,-45m-416 26c-4,-16 -13,-28 -52,-28l-33 0c-18,0 -32,14 -32,32l0 0c0,17 14,31 32,31l352 0c18,0 32,-14 32,-31l0 0c0,-18 -14,-32 -32,-32l-319 0m-635 13c0,-17 -20,-31 -28,-31 -26,0 -47,21 -47,47 0,27 21,48 47,48 27,0 48,-21 48,-48 0,-26 -21,-47 -48,-47"/>
 </g>
</svg>
