<?xml version="1.0" encoding="UTF-8"?>
<!DOCTYPE svg PUBLIC "-//W3C//DTD SVG 1.1//EN" "http://www.w3.org/Graphics/SVG/1.1/DTD/svg11.dtd">
<!-- Creator: CorelDRAW 2020 (64-Bit) -->
<svg xmlns="http://www.w3.org/2000/svg" xml:space="preserve" width="40mm" height="60mm" version="1.1" style="shape-rendering:geometricPrecision; text-rendering:geometricPrecision; image-rendering:optimizeQuality; fill-rule:evenodd; clip-rule:evenodd"
viewBox="0 0 4000 6000"
 xmlns:xlink="http://www.w3.org/1999/xlink"
 xmlns:xodm="http://www.corel.com/coreldraw/odm/2003">
 <defs>
  <style type="text/css">
   <![CDATA[
    .str2 {stroke:#332C2B;stroke-width:20;stroke-miterlimit:22.9256}
    .str1 {stroke:#E62129;stroke-width:20;stroke-miterlimit:22.9256}
    .str0 {stroke:#E62129;stroke-width:20;stroke-miterlimit:22.9256}
    .fil0 {fill:none}
   ]]>
  </style>
   <clipPath id="id0">
    <rect x="-44880.52" y="-5825.07" width="12961.62" height="16641.04"/>
   </clipPath>
 </defs>
 <g id="图层_x0020_1">
  <metadata id="CorelCorpID_0Corel-Layer"/>
  <g style="clip-path:url(#id0)">
   <image x="-44880.52" y="-5825.07" width="12961.62" height="16641.04" xlink:href="Moto X40 -11i（前膜全屏）_Images\Moto X40 -11i（前膜全屏）_ImgID1.png"/>
  </g>
  <rect class="fil0 str0" x="-39713.11" y="-5509.69" width="7400" height="16120"/>
  <path class="fil0 str0" d="M-39003.34 -5419.74l1054.74 0c54.57,0 98.15,47.24 133.7,47.24l3619.54 0c35.55,0 74.5,-47.24 147.58,-47.24l1024.9 0c330,0 600,270.01 600,600l0 14678.48c0,330 -270,600 -600,600l-5980.46 0c-330,0 -600,-270 -600,-600l0 -14678.48c0,-330 270,-600 600,-600z"/>
  <circle class="fil0 str1" cx="-36003.81" cy="-4846.63" r="195.13"/>
  <path class="fil0 str2" d="M-5766.9 5905.35l0 -6331.04c0,-329.99 -270.01,-600 -600,-600l-14678.48 0c-329.99,0 -600,270 -600,600l0 1024.9c0,73.08 47.24,112.03 47.24,147.58l0 3619.54c0,35.55 -47.24,79.13 -47.24,133.7l0 1054.74c0,330 270,600 600,600l14678.48 0c330,0 600,-270 600,-600 0,-330 51.71,-456.73 90.08,-516.26"/>
  <path class="fil0 str2" d="M-21267.4 2555.24c0,107.77 87.36,195.13 195.13,195.13 107.77,0 195.13,-87.36 195.13,-195.13 0,-107.77 -87.36,-195.13 -195.13,-195.13 -107.77,0 -195.13,87.36 -195.13,195.13 0,107.77 117.75,135.91 157.43,142.52"/>
  <g id="_1706112540560">
   <path class="fil0 str2" d="M1009.58 5324.02l1863.4 0c97.12,0 176.6,-79.47 176.6,-176.6l0 -4320.29c0,-97.13 -79.47,-176.6 -176.6,-176.6l-301.66 0c-21.51,0 -32.97,13.9 -43.44,13.9l-1065.33 0c-10.46,0 -23.29,-13.9 -39.35,-13.9l-310.44 0c-97.13,0 -176.6,79.47 -176.6,176.6l0 4320.29c0,97.13 79.47,176.6 176.6,176.6 97.13,0 134.43,15.22 151.95,26.51"/>
   <path class="fil0 str2" d="M1995.61 761.78c-31.72,0 -57.43,25.71 -57.43,57.43 0,31.72 25.71,57.43 57.43,57.43 31.72,0 57.43,-25.71 57.43,-57.43 0,-31.72 -25.71,-57.43 -57.43,-57.43 -31.72,0 -40,34.66 -41.95,46.34"/>
  </g>
 </g>
</svg>
