<?xml version="1.0" encoding="UTF-8"?>
<!DOCTYPE svg PUBLIC "-//W3C//DTD SVG 1.1//EN" "http://www.w3.org/Graphics/SVG/1.1/DTD/svg11.dtd">
<!-- Creator: CorelDRAW X8 -->
<svg xmlns="http://www.w3.org/2000/svg" xml:space="preserve" width="40mm" height="60mm" version="1.1" style="shape-rendering:geometricPrecision; text-rendering:geometricPrecision; image-rendering:optimizeQuality; fill-rule:evenodd; clip-rule:evenodd"
viewBox="0 0 4000 6000"
 xmlns:xlink="http://www.w3.org/1999/xlink">
 <defs>
  <style type="text/css">
   <![CDATA[
    .str0 {stroke:#332C2B;stroke-width:7.62}
    .fil0 {fill:none}
   ]]>
  </style>
 </defs>
 <g id="图层_x0020_1">
  <metadata id="CorelCorpID_0Corel-Layer"/>
  <path class="fil0 str0" d="M485 5308l2845 0c102,0 185,-84 185,-186l0 -4286c0,-102 -83,-186 -185,-186l-2650 0c-102,0 -185,84 -185,186l0 4286c0,102 83,186 185,186 102,0 164,23 159,42m9 -4218c-97,26 -173,-115 -173,-173 0,-57 47,-104 105,-104l0 0c57,0 104,47 104,104l0 315c0,58 -47,105 -104,105l0 0c-58,0 -105,-47 -105,-105l0 -315"/>
 </g>
</svg>
