<?xml version="1.0" encoding="UTF-8"?>
<!DOCTYPE svg PUBLIC "-//W3C//DTD SVG 1.1//EN" "http://www.w3.org/Graphics/SVG/1.1/DTD/svg11.dtd">
<!-- Creator: CorelDRAW X8 -->
<svg xmlns="http://www.w3.org/2000/svg" xml:space="preserve" width="40mm" height="60mm" version="1.1" style="shape-rendering:geometricPrecision; text-rendering:geometricPrecision; image-rendering:optimizeQuality; fill-rule:evenodd; clip-rule:evenodd"
viewBox="0 0 4000 6000"
 xmlns:xlink="http://www.w3.org/1999/xlink">
 <defs>
  <style type="text/css">
   <![CDATA[
    .str0 {stroke:black;stroke-width:7.62}
    .fil0 {fill:none;fill-rule:nonzero}
   ]]>
  </style>
 </defs>
 <g id="图层_x0020_1">
  <metadata id="CorelCorpID_0Corel-Layer"/>
  <g>
   <path class="fil0 str0" d="M740 1095l0 3828 -31 353 178 0 0 -356c0,131 106,237 236,237l0 193 1754 0 0 -193c130,0 236,-106 236,-237l0 356 184 0 -37 -358 0 -3823 46 -356 -193 0 0 356c0,-131 -106,-237 -236,-237l0 -208 -1754 0 0 208c-130,0 -236,106 -236,237l0 -356 -193 0 46 356zm385 15l0 0c0,-82 67,-149 149,-149l252 0c81,0 148,67 148,149l0 0c0,81 -67,148 -148,148l-252 0c-82,0 -149,-67 -149,-148zm24 0l0 0c0,-70 57,-126 126,-126l249 0c69,0 126,56 126,126l0 0c0,69 -57,126 -126,126l-249 0c-69,0 -126,-57 -126,-126zm125 74c-40,0 -73,-33 -73,-74 0,-41 33,-75 73,-75 41,0 74,34 74,75 0,41 -33,74 -74,74zm251 0c-41,0 -74,-33 -74,-74 0,-41 33,-75 74,-75 41,0 74,34 74,75 0,41 -33,74 -74,74zm-748 1112l0 -638c0,-20 16,-37 37,-37l0 0c20,0 37,17 37,37l0 638c0,20 -17,37 -37,37l0 0c-21,0 -37,-17 -37,-37zm0 482l0 -282c0,-21 16,-37 37,-37l0 0c20,0 37,16 37,37l0 282c0,20 -17,37 -37,37l0 0c-21,0 -37,-17 -37,-37zm784 2474l0 39c0,8 -6,15 -14,15l-192 0c-8,0 -15,-7 -15,-15l0 -39c0,-4 2,-7 5,-10l20 -21c3,-3 7,-4 11,-4l150 0c4,0 7,1 10,4l21 21c3,3 4,6 4,10zm157 46c-12,0 -22,-10 -22,-22 0,-12 10,-22 22,-22 13,0 23,10 23,22 0,12 -10,22 -23,22zm0 0c-12,0 -22,-10 -22,-22 0,-12 10,-22 22,-22 13,0 23,10 23,22 0,12 -10,22 -23,22zm809 -4477c-37,0 -67,-30 -67,-67 0,-37 30,-67 67,-67 37,0 66,30 66,67 0,37 -29,67 -66,67z"/>
  </g>
 </g>
</svg>
