<?xml version="1.0" encoding="UTF-8"?>
<!DOCTYPE svg PUBLIC "-//W3C//DTD SVG 1.1//EN" "http://www.w3.org/Graphics/SVG/1.1/DTD/svg11.dtd">
<!-- Creator: CorelDRAW 2020 (64-Bit) -->
<svg xmlns="http://www.w3.org/2000/svg" xml:space="preserve" width="40mm" height="60mm" version="1.1" style="shape-rendering:geometricPrecision; text-rendering:geometricPrecision; image-rendering:optimizeQuality; fill-rule:evenodd; clip-rule:evenodd"
viewBox="0 0 4000 6000"
 xmlns:xlink="http://www.w3.org/1999/xlink"
 xmlns:xodm="http://www.corel.com/coreldraw/odm/2003">
 <defs>
  <style type="text/css">
   <![CDATA[
    .str0 {stroke:black;stroke-width:7.62;stroke-miterlimit:22.9256}
    .fil0 {fill:none}
   ]]>
  </style>
 </defs>
 <g id="图层_x0020_1">
  <metadata id="CorelCorpID_0Corel-Layer"/>
  <path class="fil0 str0" d="M-11283.86 -566.25c444.75,0 807.01,363.98 807.01,808.72l0 5465.93 0 166.8c0,444.75 -362.26,808.5 -807.01,808.5l0 601.62c0,27.47 -22.38,50 -49.92,50l-6750.57 0c-26.73,0 -28.05,-22.5 -28.05,-50l0 -433.4c0,-27.5 -22.49,-50 -50,-50l-4419.19 0c-27.51,0 -50,22.5 -50,50l0 433.4c0,27.48 2.64,50 -25.91,50l-2961.17 0c-27.54,0 -49.92,-22.51 -49.92,-50l0 -601.68c-444.76,0 -808.25,-363.69 -808.25,-808.44l0 -5632.73c0,-444.74 363.49,-808.64 808.25,-808.64l0 -601.49c0,-27.51 22.38,-50 49.92,-50l14284.89 0c27.54,0 49.92,22.49 49.92,50l0 601.41z"/>
  <path class="fil0 str0" d="M-26031.34 5856.67l0 -1956.29c0,-178.24 145.83,-324.07 324.07,-324.07l3023.64 0c178.24,0 324.07,145.83 324.07,324.07l0 1956.29c0,178.24 -145.83,324.07 -324.07,324.07l-3023.64 0c-178.24,0 -324.07,-145.83 -324.07,-324.07z"/>
  <path class="fil0 str0" d="M-25886.43 5751.69l0 -1757.01c0,-162.55 132.98,-295.53 295.53,-295.53l2802.23 0c162.55,0 295.53,132.98 295.53,295.53l0 1757.01c0,162.55 -132.98,295.53 -295.53,295.53l-2802.23 0c-162.55,0 -295.53,-132.98 -295.53,-295.53z"/>
  <path class="fil0 str0" d="M-22778.16 5612.13c-41.63,11.15 -72.19,26.32 -72.19,97.77l0 59.23c0,82.5 67.49,149.99 149.98,149.99l0.04 0c82.42,0 149.98,-67.49 149.98,-149.99l0 -370.02c0,-82.5 -67.49,-149.99 -149.98,-149.99l-0.04 0c-82.49,0 -149.98,67.56 -149.98,149.99l0 310.79"/>
  <path class="fil0 str0" d="M-24003.07 4199.06c-42.46,3.19 -82.15,40.59 -88.14,118.21 0,276.14 223.86,500 500,500 276.14,0 500,-223.86 500,-500 0,-276.14 -223.86,-500 -500,-500 -276.14,0 -500,223.86 -500,500"/>
  <path class="fil0 str0" d="M-24003.07 5315.95c-42.46,3.19 -82.15,40.59 -88.14,118.21 0,276.14 223.86,500 500,500 276.14,0 500,-223.86 500,-500 0,-276.14 -223.86,-500 -500,-500 -276.14,0 -500,223.86 -500,500"/>
  <path class="fil0 str0" d="M-25564.9 5297.19c-47.96,3.6 -92.82,45.86 -99.59,133.58 0,312.04 252.96,565 565,565 312.04,0 565,-252.96 565,-565 0,-312.04 -252.96,-565 -565,-565 -312.04,0 -565,252.96 -565,565"/>
  <g id="_1928699108704">
   <path class="fil0 str0" d="M3058.27 5118.61c0,130.65 -106.92,237.06 -237.56,237.06l-1605.62 0 -49 0c-130.64,0 -237.5,-106.41 -237.5,-237.06l-176.72 0c-8.07,0 -14.69,-6.57 -14.69,-14.66l0 -1982.98c0,-7.85 6.61,-8.24 14.69,-8.24l127.31 0c8.08,0 14.69,-6.61 14.69,-14.69l0 -1298.14c0,-8.08 -6.61,-14.69 -14.69,-14.69l-127.31 0c-8.07,0 -14.69,0.78 -14.69,-7.61l0 -869.84c0,-8.09 6.61,-14.67 14.69,-14.67l176.74 0c0,-130.64 106.84,-237.42 237.48,-237.42l1654.62 0c130.64,0 237.53,106.78 237.53,237.42l176.69 0c8.08,0 14.69,6.58 14.69,14.67l0 4196.19c0,8.09 -6.61,14.66 -14.69,14.66l-176.66 0z"/>
   <path class="fil0 str0" d="M1171.53 786.54l574.66 0c52.36,0 95.2,42.83 95.2,95.19l0 888.2c0,52.36 -42.84,95.19 -95.2,95.19l-574.66 0c-52.35,0 -95.19,-42.83 -95.19,-95.19l0 -888.2c0,-52.36 42.84,-95.19 95.19,-95.19z"/>
   <path class="fil0 str0" d="M1202.37 829.1l516.12 0c47.75,0 86.82,39.07 86.82,86.82l0 823.15c0,47.75 -39.07,86.81 -86.82,86.81l-516.12 0c-47.75,0 -86.81,-39.06 -86.81,-86.81l0 -823.15c0,-47.75 39.06,-86.82 86.81,-86.82z"/>
   <path class="fil0 str0" d="M1243.37 1742.16c-3.28,-12.23 -7.73,-21.21 -28.72,-21.21l-17.4 0c-24.24,0 -44.06,19.83 -44.06,44.06l0 0.01c0,24.21 19.82,44.06 44.06,44.06l108.69 0c24.24,0 44.06,-19.83 44.06,-44.06l0 -0.01c0,-24.23 -19.84,-44.06 -44.06,-44.06l-91.29 0"/>
   <path class="fil0 str0" d="M1658.46 1382.34c-0.94,-12.47 -11.93,-24.13 -34.73,-25.89 -81.11,0 -146.87,65.76 -146.87,146.88 0,81.11 65.76,146.87 146.87,146.87 81.12,0 146.88,-65.76 146.88,-146.87 0,-81.12 -65.76,-146.88 -146.88,-146.88"/>
   <path class="fil0 str0" d="M1330.37 1382.34c-0.94,-12.47 -11.92,-24.13 -34.72,-25.89 -81.12,0 -146.88,65.76 -146.88,146.88 0,81.11 65.76,146.87 146.88,146.87 81.11,0 146.87,-65.76 146.87,-146.87 0,-81.12 -65.76,-146.88 -146.87,-146.88"/>
   <path class="fil0 str0" d="M1335.88 923.55c-1.06,-14.08 -13.47,-27.26 -39.24,-29.25 -91.66,0 -165.97,74.31 -165.97,165.97 0,91.66 74.31,165.97 165.97,165.97 91.66,0 165.97,-74.31 165.97,-165.97 0,-91.66 -74.31,-165.97 -165.97,-165.97"/>
  </g>
 </g>
</svg>
