<?xml version="1.0" encoding="UTF-8"?>
<!DOCTYPE svg PUBLIC "-//W3C//DTD SVG 1.1//EN" "http://www.w3.org/Graphics/SVG/1.1/DTD/svg11.dtd">
<!-- Creator: CorelDRAW X8 -->
<svg xmlns="http://www.w3.org/2000/svg" xml:space="preserve" width="40mm" height="60mm" version="1.1" style="shape-rendering:geometricPrecision; text-rendering:geometricPrecision; image-rendering:optimizeQuality; fill-rule:evenodd; clip-rule:evenodd"
viewBox="0 0 4000 6000"
 xmlns:xlink="http://www.w3.org/1999/xlink">
 <defs>
  <style type="text/css">
   <![CDATA[
    .str3 {stroke:#222222;stroke-width:7.62}
    .str4 {stroke:#222222;stroke-width:7.62}
    .str0 {stroke:#222222;stroke-width:7.62}
    .str1 {stroke:#222222;stroke-width:7.62}
    .str5 {stroke:#222222;stroke-width:7.62}
    .str2 {stroke:#222222;stroke-width:7.62}
    .fil1 {fill:none;fill-rule:nonzero}
    .fil0 {fill:#222222;fill-rule:nonzero}
   ]]>
  </style>
 </defs>
 <g id="图层_x0020_1">
  <metadata id="CorelCorpID_0Corel-Layer"/>
  <g>
   <path class="fil0" d="M-3111 568l0 6664 -8 0 0 -6664 0 0 8 0zm-1030 -1083l0 -8 0 0 53 1 52 4 52 7 50 10 50 12 49 15 48 17 47 20 45 21 45 24 43 27 42 28 40 31 39 32 37 34 36 36 34 38 32 40 31 41 29 43 27 44 24 46 23 47 21 48 18 50 16 50 14 52 12 53 9 54 6 54 4 56 2 56 -8 0 -2 -56 -3 -55 -7 -54 -9 -53 -11 -53 -14 -51 -16 -50 -19 -50 -20 -48 -23 -46 -24 -46 -27 -44 -28 -42 -31 -41 -32 -39 -34 -38 -35 -36 -37 -34 -39 -32 -40 -30 -41 -28 -43 -26 -44 -24 -45 -22 -47 -19 -47 -17 -49 -15 -49 -12 -50 -9 -52 -7 -51 -4 -53 -2 0 0zm-13867 -8l13867 0 0 8 -13867 0 0 0 0 -8zm-1021 1091l-8 0 0 0 1 -56 4 -56 7 -54 9 -54 11 -53 14 -52 16 -50 19 -50 20 -48 23 -47 25 -46 27 -44 28 -43 31 -41 32 -40 34 -38 36 -36 37 -34 39 -32 41 -31 42 -28 43 -27 44 -24 46 -21 46 -20 48 -17 49 -15 50 -12 51 -10 51 -7 52 -4 53 -1 0 8 -52 2 -52 4 -51 7 -51 9 -49 12 -48 15 -48 17 -46 19 -46 22 -44 24 -42 26 -42 28 -40 30 -39 32 -37 34 -35 36 -34 38 -32 39 -30 41 -29 42 -26 44 -25 46 -23 46 -20 48 -18 50 -16 50 -14 51 -12 53 -9 53 -6 54 -4 55 -1 56 0 0zm-8 5337l0 -5337 8 0 0 5337 0 0 -8 0zm1029 1083l0 8 0 0 -53 -1 -52 -5 -51 -7 -51 -9 -50 -12 -49 -15 -48 -17 -46 -20 -46 -22 -44 -24 -43 -26 -42 -28 -41 -31 -39 -32 -37 -34 -36 -37 -34 -37 -32 -40 -31 -41 -28 -43 -27 -44 -25 -46 -23 -47 -20 -48 -19 -50 -16 -51 -14 -51 -11 -53 -9 -54 -7 -54 -4 -56 -1 -56 8 0 1 56 4 55 6 54 9 53 12 53 14 51 16 50 18 49 20 48 23 47 25 45 26 44 29 43 30 41 32 39 34 38 35 35 37 34 39 33 40 30 42 28 42 26 44 24 46 22 46 19 48 17 48 15 49 12 51 9 51 7 52 4 52 2 0 0zm13867 8l-13867 0 0 -8 13867 0 0 0 0 8zm1022 -1091l8 0 0 0 -2 56 -4 56 -6 54 -9 54 -12 53 -14 51 -16 51 -18 50 -21 48 -23 47 -24 46 -27 44 -29 43 -31 41 -32 40 -34 37 -36 37 -37 34 -39 32 -40 31 -42 28 -43 26 -45 24 -45 22 -47 20 -48 17 -49 15 -50 12 -50 9 -52 7 -52 5 -53 1 0 -8 53 -2 51 -4 52 -7 50 -9 49 -12 49 -15 47 -17 47 -19 45 -22 44 -24 43 -26 41 -28 40 -30 39 -33 37 -34 35 -35 34 -38 32 -39 31 -41 28 -43 27 -44 24 -45 23 -47 20 -48 19 -49 16 -50 14 -51 11 -53 9 -53 7 -54 3 -55 2 -56 0 0zm749 -1270l0 9 -28 2 -29 5 -29 9 -30 13 -31 16 -31 19 -31 23 -31 25 -32 28 -31 31 -31 34 -31 35 -30 39 -30 40 -29 42 -28 44 -27 46 -27 48 -25 49 -24 51 -23 51 -21 53 -20 54 -18 54 -17 56 -14 55 -13 57 -11 56 -8 57 -6 56 -4 57 -1 56 -8 0 1 -57 4 -56 6 -57 9 -57 10 -57 13 -57 15 -56 16 -55 19 -55 20 -54 21 -53 23 -52 24 -51 26 -49 26 -48 28 -46 28 -45 29 -42 30 -41 31 -38 30 -36 32 -34 31 -31 32 -28 31 -26 32 -23 31 -19 31 -16 31 -13 30 -10 30 -6 29 -2z"/>
  </g>
  <path class="fil1 str0" d="M-12645 5631c-35,0 -274,-34 -274,-158 0,-124 101,-225 225,-225 125,0 225,101 225,225 0,124 -100,225 -225,225 -124,0 -225,-101 -225,-225"/>
  <path class="fil1 str1" d="M-13514 5832c-70,0 -669,-61 -669,-351 0,-290 235,-525 525,-525 290,0 525,235 525,525 0,290 -235,525 -525,525 -290,0 -525,-235 -525,-525"/>
  <path class="fil1 str2" d="M-15094 6081l-2725 0c-330,0 -600,-270 -600,-600 0,-330 270,-600 600,-600l2725 0c330,0 600,270 600,600 0,330 -270,600 -600,600z"/>
  <path class="fil1 str2" d="M-15119 5956l-2700 0c-261,0 -475,-214 -475,-475 0,-261 214,-475 475,-475l2700 0c262,0 475,214 475,475 0,261 -213,475 -475,475z"/>
  <path class="fil1 str3" d="M-15045 5764c-64,0 -484,-62 -484,-283 0,-221 179,-400 400,-400 221,0 400,179 400,400 0,221 -179,400 -400,400 -221,0 -400,-179 -400,-400"/>
  <path class="fil1 str4" d="M-16428 5764c-86,0 -466,-62 -466,-283 0,-221 180,-400 400,-400 221,0 400,179 400,400 0,221 -179,400 -400,400 -220,0 -400,-179 -400,-400"/>
  <path class="fil1 str5" d="M-17758 5217c-101,0 -486,43 -486,264 0,221 180,400 400,400 221,0 400,-179 400,-400 0,-221 -179,-400 -400,-400 -220,0 -400,179 -400,400"/>
  <g>
   <g>
    <path class="fil0" d="M2759 5136l-1816 0 0 -9 1816 0 0 0 0 9zm293 -293l10 0 0 0 -1 15 -1 15 -2 15 -3 14 -3 14 -4 14 -5 14 -5 13 -6 13 -7 13 -7 12 -8 12 -9 11 -9 12 -9 10 -10 10 -11 10 -11 9 -11 9 -12 8 -12 8 -13 7 -13 6 -13 6 -14 6 -14 4 -15 4 -14 3 -15 3 -15 2 -16 1 -15 0 0 -9 15 -1 15 -1 14 -2 15 -2 14 -3 14 -4 13 -4 14 -6 13 -5 12 -7 13 -6 11 -8 12 -8 11 -8 11 -9 10 -9 9 -10 10 -11 8 -10 9 -11 7 -12 7 -12 7 -12 6 -13 5 -13 4 -13 4 -13 4 -14 2 -14 2 -14 1 -15 1 -14 0 0zm10 -3904l0 3904 -10 0 0 -3904 0 0 10 0zm-303 -284l0 -10 0 0 15 1 16 1 15 2 15 2 14 3 15 4 14 5 14 5 13 6 13 7 13 7 12 7 12 8 11 9 11 9 11 10 10 10 9 11 9 11 9 12 8 12 7 12 7 12 6 13 5 14 5 13 4 14 3 15 3 14 2 15 1 15 1 15 -10 0 -1 -15 -1 -14 -2 -14 -2 -14 -4 -14 -4 -14 -4 -13 -5 -13 -6 -12 -7 -13 -7 -11 -7 -12 -9 -11 -8 -11 -10 -10 -9 -10 -10 -9 -11 -9 -11 -9 -12 -8 -11 -7 -13 -7 -12 -6 -13 -6 -14 -5 -13 -4 -14 -4 -14 -3 -15 -3 -14 -2 -15 -1 -15 0 0 0zm-1463 -10l1463 0 0 10 -1463 0 0 0 0 -10zm-293 294l-10 0 0 0 1 -15 1 -15 2 -15 2 -14 4 -15 4 -14 5 -13 5 -14 6 -13 7 -12 7 -12 8 -12 8 -12 9 -11 10 -11 10 -10 10 -10 11 -9 12 -9 12 -8 12 -7 13 -7 13 -7 13 -6 14 -5 14 -5 14 -4 15 -3 15 -2 15 -2 15 -1 16 -1 0 10 -15 0 -15 1 -15 2 -14 3 -14 3 -14 4 -14 4 -13 5 -13 6 -13 6 -12 7 -12 7 -11 8 -11 9 -11 9 -10 9 -10 10 -9 10 -9 11 -8 11 -7 12 -7 11 -7 13 -6 12 -5 13 -5 13 -4 14 -3 14 -2 14 -2 14 -1 14 -1 15 0 0zm-10 3904l0 -3904 10 0 0 3904 0 0 -10 0zm303 284l0 9 0 0 -16 0 -15 -1 -15 -2 -15 -3 -15 -3 -14 -4 -14 -4 -14 -6 -13 -6 -13 -6 -13 -7 -12 -8 -12 -8 -12 -9 -11 -9 -10 -10 -10 -10 -10 -10 -9 -12 -8 -11 -8 -12 -7 -12 -7 -13 -6 -13 -5 -13 -5 -14 -4 -14 -4 -14 -2 -14 -2 -15 -1 -15 -1 -15 10 0 1 14 1 15 2 14 2 14 3 14 4 13 5 13 5 13 6 13 7 12 7 12 7 12 8 11 9 10 9 11 10 10 10 9 11 9 11 8 11 8 12 8 12 6 13 7 13 5 13 6 14 4 14 4 14 3 14 2 15 2 15 1 15 1 0 0zm337 223l-10 0 0 -10 -2 -10 -2 -9 -3 -10 -4 -10 -5 -9 -6 -10 -6 -9 -7 -10 -8 -9 -8 -9 -9 -9 -10 -8 -10 -8 -11 -8 -11 -8 -12 -8 -12 -7 -13 -6 -13 -7 -13 -6 -14 -5 -14 -5 -14 -5 -15 -4 -14 -4 -15 -3 -15 -3 -15 -2 -16 -1 -15 -1 -15 -1 0 -9 16 0 15 1 16 2 15 2 16 2 15 4 15 3 15 5 14 5 15 5 14 5 14 7 13 6 13 7 12 7 13 8 11 8 11 8 11 9 10 8 9 9 9 10 8 9 7 10 7 10 6 10 5 10 4 11 4 10 2 11 2 10 0 11z"/>
   </g>
   <g>
    <path class="fil0" d="M1398 2367l0 10 0 0 -3 0 -2 0 -3 1 -2 1 -2 1 -2 2 -2 2 -2 2 -2 2 -2 2 -2 3 -1 3 -2 3 -1 3 -2 3 -1 3 -1 3 -1 4 -1 3 -1 3 -1 3 -1 3 0 3 -1 3 0 3 -1 3 0 2 0 2 -1 2 0 1 0 2 0 1 -10 0 0 -2 0 -1 0 -2 1 -2 0 -2 0 -3 1 -3 0 -3 1 -3 1 -3 0 -3 1 -3 1 -4 1 -3 1 -4 2 -3 1 -4 1 -3 2 -4 2 -3 2 -3 2 -3 2 -3 2 -3 3 -3 2 -2 3 -2 3 -2 4 -1 3 -2 4 0 4 0 0 0zm68 68l-10 0 0 0 0 -3 0 -3 -1 -3 0 -3 -1 -3 -1 -2 0 -3 -2 -3 -1 -2 -1 -3 -1 -2 -2 -3 -2 -2 -1 -2 -2 -2 -2 -2 -2 -2 -2 -2 -2 -2 -3 -1 -2 -2 -2 -1 -3 -2 -3 -1 -2 -1 -3 -1 -3 -1 -3 0 -2 -1 -3 0 -3 0 -3 0 0 -10 3 0 4 0 3 0 3 1 4 1 3 1 3 1 3 1 3 1 3 2 3 1 3 2 3 2 2 2 3 2 2 3 2 2 2 2 2 3 2 3 2 2 2 3 1 3 2 3 1 3 1 4 1 3 1 3 0 4 1 3 0 3 0 4 0 0zm-68 68l0 -10 0 0 3 0 3 0 3 0 2 -1 3 -1 3 0 3 -1 2 -1 3 -1 3 -2 2 -1 2 -2 3 -1 2 -2 2 -2 2 -2 2 -2 2 -2 1 -2 2 -2 2 -3 1 -2 1 -3 1 -2 2 -3 0 -3 1 -2 1 -3 0 -3 1 -3 0 -3 0 -3 10 0 0 3 0 4 -1 3 0 4 -1 3 -1 3 -1 3 -1 4 -2 3 -1 3 -2 2 -2 3 -2 3 -2 2 -2 3 -2 2 -2 3 -3 2 -2 2 -3 2 -3 1 -3 2 -3 2 -3 1 -3 1 -3 1 -3 1 -4 1 -3 0 -3 1 -4 0 -3 0 0 0zm-69 -68l10 0 0 0 0 3 1 3 0 3 1 3 0 3 1 2 1 3 1 3 1 2 1 3 2 2 1 3 2 2 2 2 2 2 1 2 2 2 3 2 2 2 2 1 2 2 3 1 2 2 3 1 3 1 2 1 3 0 3 1 3 1 3 0 3 0 3 0 0 10 -4 0 -3 0 -4 -1 -3 0 -3 -1 -4 -1 -3 -1 -3 -1 -3 -1 -3 -2 -3 -2 -3 -1 -2 -2 -3 -2 -2 -2 -3 -3 -2 -2 -2 -3 -2 -2 -2 -3 -2 -3 -1 -2 -2 -3 -1 -3 -2 -4 -1 -3 0 -3 -1 -3 -1 -4 0 -3 -1 -4 0 -3 0 0zm69 -68l0 10 -3 0 -3 0 -3 0 -3 1 -3 0 -3 1 -2 1 -3 1 -3 1 -2 2 -3 1 -2 2 -2 1 -2 2 -3 2 -2 2 -1 2 -2 2 -2 2 -2 2 -1 3 -2 2 -1 3 -1 2 -1 3 -1 3 -1 2 0 3 -1 3 0 3 -1 3 0 3 -10 0 0 -4 1 -3 0 -3 1 -4 1 -3 0 -3 1 -4 2 -3 1 -3 2 -3 1 -3 2 -2 2 -3 2 -3 2 -2 2 -2 3 -3 2 -2 3 -2 2 -2 3 -2 3 -1 3 -2 3 -1 3 -1 3 -1 4 -1 3 -1 3 -1 4 0 3 0 4 0z"/>
   </g>
   <g>
    <path class="fil0" d="M1395 2011l0 10 0 0 -6 0 -7 1 -6 2 -6 3 -5 4 -6 4 -5 5 -5 5 -4 6 -4 7 -4 7 -4 7 -4 8 -3 8 -3 8 -3 8 -2 8 -3 8 -2 9 -2 8 -2 8 -1 7 -1 8 -2 7 -1 7 0 6 -1 6 -1 5 0 4 0 4 0 3 -1 2 -10 0 1 -3 0 -3 0 -4 0 -4 1 -6 1 -5 1 -7 1 -7 1 -7 1 -7 2 -8 1 -8 2 -9 3 -8 2 -9 3 -8 3 -9 3 -8 3 -8 4 -8 4 -8 4 -7 5 -7 5 -7 5 -6 6 -6 6 -4 6 -5 7 -3 8 -2 7 -2 8 0 0 0zm153 152l-10 0 0 0 0 -7 0 -7 -1 -7 -2 -7 -1 -7 -2 -7 -2 -7 -3 -6 -3 -7 -3 -6 -3 -6 -4 -6 -4 -5 -4 -6 -5 -5 -5 -5 -5 -4 -5 -5 -5 -4 -6 -4 -5 -4 -6 -3 -7 -3 -6 -3 -6 -3 -7 -2 -7 -2 -7 -2 -7 -1 -7 -1 -7 0 -8 0 0 -10 8 0 8 0 8 1 7 2 8 1 7 2 7 3 7 3 7 3 6 3 7 4 6 4 6 4 6 4 5 5 6 5 5 6 4 5 5 6 4 6 4 6 4 6 3 7 3 7 3 7 2 7 2 7 2 8 2 7 0 8 1 7 0 8 0 0zm-153 153l0 -10 0 0 8 0 7 -1 7 -1 7 -1 7 -1 7 -2 7 -3 6 -2 6 -3 7 -3 6 -4 5 -3 6 -4 5 -4 5 -5 5 -5 5 -5 5 -5 4 -5 4 -6 4 -6 3 -6 3 -6 3 -6 3 -7 2 -6 2 -7 1 -7 2 -7 1 -7 0 -7 0 -8 10 0 0 8 -1 8 0 8 -2 7 -2 7 -2 8 -2 7 -3 7 -3 7 -3 6 -4 7 -4 6 -4 6 -5 6 -4 5 -5 5 -6 5 -5 5 -6 5 -6 4 -6 4 -7 4 -6 3 -7 3 -7 3 -7 2 -7 2 -8 2 -7 1 -8 1 -8 1 -8 0 0 0zm-152 -153l10 0 0 0 0 8 0 7 1 7 2 7 1 7 2 7 2 6 3 7 3 6 3 6 3 6 4 6 4 6 4 5 5 5 4 5 5 5 6 5 5 4 6 4 5 3 6 4 7 3 6 3 6 2 7 3 7 2 7 1 7 1 7 1 7 1 7 0 0 10 -7 0 -8 -1 -8 -1 -7 -1 -8 -2 -7 -2 -7 -2 -7 -3 -7 -3 -6 -3 -7 -4 -6 -4 -6 -4 -6 -5 -5 -5 -6 -5 -5 -5 -4 -5 -5 -6 -4 -6 -4 -6 -4 -7 -3 -6 -3 -7 -3 -7 -2 -7 -3 -8 -1 -7 -2 -7 -1 -8 0 -8 0 -8 0 0zm152 -152l0 10 -7 0 -7 0 -7 1 -7 1 -7 2 -7 2 -7 2 -6 3 -6 3 -7 3 -6 3 -5 4 -6 4 -5 4 -6 5 -5 4 -4 5 -5 5 -4 6 -4 5 -4 6 -3 6 -3 6 -3 7 -3 6 -2 7 -2 7 -1 7 -2 7 -1 7 0 7 0 7 -10 0 0 -8 0 -7 1 -8 2 -7 1 -8 3 -7 2 -7 3 -7 3 -7 3 -7 4 -6 4 -6 4 -6 5 -6 4 -5 5 -6 6 -5 5 -5 6 -4 6 -4 6 -4 7 -4 6 -3 7 -3 7 -3 7 -3 7 -2 8 -1 7 -2 8 -1 8 0 7 0z"/>
   </g>
   <g>
    <path class="fil0" d="M1232 992l0 767 -10 0 0 -767 0 0 10 0zm163 -174l0 10 0 0 -8 0 -8 1 -8 1 -8 1 -8 2 -8 2 -8 3 -7 3 -7 3 -7 4 -7 4 -7 4 -6 5 -7 5 -6 5 -5 5 -6 6 -5 6 -5 6 -4 7 -5 6 -4 7 -3 7 -4 7 -2 8 -3 7 -2 8 -2 8 -2 8 -1 8 0 9 0 8 -10 0 0 -9 0 -9 2 -8 1 -9 2 -8 2 -9 3 -8 3 -8 4 -7 4 -8 4 -7 4 -7 5 -7 5 -6 6 -7 6 -6 6 -6 6 -5 7 -5 6 -5 7 -5 8 -4 7 -4 8 -3 8 -3 8 -3 8 -2 9 -2 8 -2 9 -1 9 -1 8 0 0 0zm174 174l-10 0 0 0 0 -8 0 -9 -2 -8 -1 -8 -2 -8 -2 -8 -3 -7 -3 -8 -3 -7 -3 -7 -4 -7 -5 -6 -4 -7 -5 -6 -5 -6 -6 -6 -5 -5 -6 -5 -7 -5 -6 -5 -7 -4 -7 -4 -7 -4 -7 -3 -7 -3 -8 -3 -8 -2 -8 -2 -8 -1 -8 -1 -8 -1 -9 0 0 -10 9 0 9 1 9 1 8 2 9 2 8 2 8 3 8 3 8 3 7 4 7 4 8 5 6 5 7 5 6 5 6 6 6 6 6 7 5 6 5 7 4 7 4 7 4 8 4 7 3 8 3 8 2 9 2 8 1 9 1 8 1 9 0 9 0 0zm-10 767l0 -767 10 0 0 767 0 0 -10 0zm-164 174l0 -10 0 0 9 0 8 -1 8 -1 8 -1 8 -2 8 -2 8 -3 7 -3 7 -3 7 -4 7 -4 7 -4 6 -5 7 -4 6 -6 5 -5 6 -6 5 -6 5 -6 4 -6 5 -7 4 -7 3 -7 3 -7 3 -8 3 -7 2 -8 2 -8 1 -8 2 -8 0 -8 0 -9 10 0 0 9 -1 9 -1 9 -1 8 -2 9 -2 8 -3 8 -3 8 -4 7 -4 8 -4 7 -4 7 -5 7 -5 7 -6 6 -6 6 -6 6 -6 5 -7 5 -6 5 -8 5 -7 4 -7 4 -8 3 -8 4 -8 2 -8 3 -9 2 -8 1 -9 1 -9 1 -9 0 0 0zm-173 -174l10 0 0 0 0 9 0 8 1 8 2 8 2 8 2 8 3 7 2 8 4 7 3 7 4 7 5 7 4 6 5 6 5 6 6 6 5 5 6 6 7 4 6 5 7 4 7 4 7 4 7 3 7 3 8 3 8 2 8 2 8 1 8 1 8 1 8 0 0 10 -8 0 -9 -1 -9 -1 -8 -1 -9 -2 -8 -3 -8 -2 -8 -4 -8 -3 -7 -4 -8 -4 -7 -5 -6 -5 -7 -5 -6 -5 -6 -6 -6 -6 -6 -6 -5 -7 -5 -7 -4 -7 -4 -7 -4 -8 -4 -7 -3 -8 -3 -8 -2 -8 -2 -9 -1 -8 -2 -9 0 -9 0 -9 0 0z"/>
   </g>
   <g>
    <path class="fil0" d="M1267 992l0 760 -10 0 0 -760 0 0 10 0zm128 -139l0 10 0 0 -6 0 -7 1 -6 1 -6 1 -7 1 -6 2 -6 2 -5 2 -6 3 -6 3 -5 3 -5 3 -5 4 -5 4 -5 4 -4 4 -5 5 -4 4 -4 5 -3 5 -4 5 -3 6 -3 5 -2 6 -2 6 -2 6 -2 6 -2 6 -1 6 -1 7 0 6 0 7 -10 0 0 -7 0 -7 1 -7 2 -7 1 -7 2 -6 2 -7 3 -6 2 -6 4 -6 3 -6 4 -5 3 -6 5 -5 4 -5 4 -5 5 -5 5 -4 6 -4 5 -4 6 -4 5 -3 6 -3 7 -3 6 -2 6 -2 7 -2 7 -2 6 -1 7 -1 7 -1 7 0 0 0zm139 139l-10 0 0 0 0 -7 0 -6 -1 -7 -1 -6 -2 -6 -2 -6 -2 -6 -2 -6 -3 -6 -2 -5 -3 -6 -4 -5 -3 -5 -4 -5 -4 -4 -5 -5 -4 -4 -5 -4 -5 -4 -5 -4 -5 -3 -5 -3 -6 -3 -6 -3 -5 -2 -6 -2 -6 -2 -7 -1 -6 -1 -6 -1 -7 -1 -7 0 0 -10 8 0 7 1 7 1 6 1 7 2 7 2 6 2 6 2 6 3 6 3 6 3 6 4 5 4 6 4 5 4 4 5 5 5 4 5 5 5 3 6 4 5 3 6 3 6 3 6 3 6 2 7 2 6 1 7 2 7 0 7 1 7 0 7 0 0zm-10 760l0 -760 10 0 0 760 0 0 -10 0zm-129 139l0 -10 0 0 7 0 7 -1 6 -1 6 -1 7 -1 6 -2 6 -2 5 -2 6 -3 6 -3 5 -3 5 -3 5 -4 5 -4 5 -4 4 -4 5 -4 4 -5 4 -5 3 -5 4 -5 3 -6 2 -5 3 -6 2 -6 2 -6 2 -6 2 -6 1 -6 1 -7 0 -6 0 -7 10 0 0 7 -1 7 0 7 -2 7 -1 7 -2 6 -2 7 -3 6 -3 6 -3 6 -3 6 -4 6 -3 5 -5 5 -4 5 -5 5 -4 5 -5 4 -6 4 -5 4 -6 4 -6 3 -6 3 -6 3 -6 2 -6 3 -7 2 -7 1 -6 1 -7 1 -7 1 -8 0 0 0zm-138 -139l10 0 0 0 0 7 0 6 1 7 1 6 2 6 2 6 2 6 2 6 2 6 3 5 3 6 4 5 3 5 4 5 4 5 5 4 4 4 5 4 5 4 5 4 5 3 5 3 6 3 6 3 5 2 6 2 6 2 7 1 6 1 6 1 7 1 6 0 0 10 -7 0 -7 -1 -7 -1 -6 -1 -7 -1 -7 -2 -6 -3 -6 -2 -7 -3 -6 -3 -5 -3 -6 -4 -5 -4 -6 -4 -5 -4 -5 -5 -4 -5 -4 -5 -5 -5 -3 -5 -4 -6 -3 -6 -4 -6 -2 -6 -3 -6 -2 -7 -2 -6 -1 -7 -2 -7 -1 -7 0 -7 0 -7 0 0z"/>
   </g>
   <g>
    <path class="fil0" d="M1395 1632l0 10 0 0 -5 0 -4 1 -5 1 -5 2 -4 3 -4 3 -4 3 -4 4 -3 4 -3 5 -4 4 -3 5 -3 6 -2 5 -3 6 -2 6 -2 6 -2 6 -2 5 -2 6 -1 6 -1 5 -2 6 -1 5 -1 5 0 4 -1 5 0 3 -1 4 0 3 0 2 0 2 -10 0 0 -2 0 -3 0 -3 1 -4 0 -4 1 -4 1 -5 1 -5 1 -5 1 -6 1 -6 2 -5 1 -6 2 -7 2 -6 3 -6 2 -6 3 -6 3 -6 3 -5 3 -6 3 -5 4 -5 4 -5 4 -4 5 -4 5 -4 5 -3 5 -2 6 -2 6 -1 6 0 0 0zm118 117l-10 0 0 0 0 -5 0 -6 -1 -5 -1 -5 -1 -6 -2 -5 -1 -5 -2 -5 -3 -4 -2 -5 -2 -5 -3 -4 -3 -4 -3 -4 -4 -4 -3 -4 -4 -3 -4 -4 -4 -3 -4 -3 -5 -3 -4 -2 -5 -3 -5 -2 -5 -2 -5 -1 -5 -2 -5 -1 -5 -1 -6 -1 -5 0 -6 0 0 -10 7 0 5 0 6 1 6 1 6 1 5 2 6 2 5 2 5 2 6 3 4 3 5 3 5 3 4 4 5 3 4 4 4 4 3 4 4 5 3 5 3 4 3 5 2 5 3 5 2 6 2 5 1 6 2 6 1 5 0 6 1 6 0 6 0 0zm-118 118l0 -10 0 0 6 0 5 -1 6 0 5 -1 5 -1 5 -2 5 -2 5 -2 5 -2 5 -2 4 -3 5 -2 4 -3 4 -4 4 -3 4 -4 3 -3 4 -4 3 -4 3 -5 3 -4 2 -4 2 -5 3 -5 2 -5 1 -5 2 -5 1 -5 1 -5 1 -6 0 -5 0 -6 10 0 0 6 -1 6 0 6 -1 6 -2 6 -1 5 -2 6 -2 5 -3 5 -2 5 -3 5 -3 5 -3 5 -4 4 -3 4 -4 4 -4 4 -5 4 -4 4 -5 3 -5 3 -4 3 -6 2 -5 3 -5 2 -6 2 -5 1 -6 2 -6 1 -6 0 -5 1 -7 0 0 0zm-117 -118l10 0 0 0 0 6 0 5 1 6 1 5 1 5 2 5 1 5 2 5 2 5 3 5 2 4 3 4 3 5 3 4 4 4 3 3 4 4 4 3 4 4 4 3 5 2 4 3 5 2 5 2 4 2 5 2 6 2 5 1 5 1 5 0 6 1 5 0 0 10 -6 0 -6 -1 -5 0 -6 -1 -6 -2 -6 -1 -5 -2 -5 -2 -6 -3 -5 -2 -5 -3 -4 -3 -5 -3 -4 -4 -5 -4 -4 -4 -4 -4 -3 -4 -4 -4 -3 -5 -3 -5 -3 -5 -3 -5 -2 -5 -2 -5 -2 -6 -1 -5 -2 -6 -1 -6 -1 -6 0 -6 0 -6 0 0zm117 -117l0 10 -5 0 -6 0 -5 1 -5 1 -5 1 -6 2 -5 1 -4 2 -5 2 -5 3 -4 2 -5 3 -4 3 -4 3 -4 4 -4 3 -3 4 -4 4 -3 4 -3 4 -3 4 -2 5 -3 5 -2 4 -2 5 -1 5 -2 5 -1 6 -1 5 -1 5 0 6 0 5 -10 0 0 -6 0 -6 1 -6 1 -5 2 -6 1 -6 2 -5 2 -6 2 -5 3 -5 3 -5 3 -4 3 -5 4 -5 3 -4 4 -4 4 -4 5 -3 4 -4 5 -3 4 -3 5 -3 5 -3 6 -2 5 -2 5 -2 6 -2 6 -1 6 -1 5 -1 6 0 6 0z"/>
   </g>
   <g>
    <path class="fil0" d="M1395 1247l0 10 0 0 -5 1 -5 1 -4 1 -5 2 -4 2 -4 3 -4 3 -4 3 -3 4 -4 4 -3 4 -3 5 -3 5 -2 5 -3 5 -2 6 -2 5 -2 6 -2 5 -2 6 -1 5 -1 6 -2 5 -1 5 -1 5 0 4 -1 5 0 4 -1 3 0 4 0 2 0 3 -10 0 0 -3 0 -3 0 -4 1 -4 0 -4 1 -4 1 -5 1 -5 1 -5 1 -6 1 -5 2 -6 1 -6 2 -5 2 -6 3 -6 2 -6 3 -5 3 -6 3 -5 3 -5 3 -5 4 -5 4 -4 5 -4 4 -4 5 -3 5 -2 6 -3 5 -1 6 -1 6 -1 0 0zm118 118l-10 0 0 0 0 -5 0 -6 -1 -5 -1 -6 -1 -5 -2 -5 -1 -5 -2 -5 -3 -5 -2 -4 -2 -5 -3 -4 -3 -4 -3 -4 -4 -4 -3 -4 -4 -4 -4 -3 -4 -3 -4 -3 -5 -3 -4 -3 -5 -2 -5 -2 -5 -2 -5 -2 -5 -1 -5 -1 -5 -1 -6 -1 -5 0 -6 -1 0 -10 7 1 5 0 6 1 6 1 6 1 5 2 6 2 5 2 5 2 6 3 4 2 5 4 5 3 4 3 5 4 4 4 4 4 3 4 4 5 3 4 3 5 3 5 2 5 3 5 2 6 2 5 1 6 2 5 1 6 0 6 1 6 0 6 0 0zm-118 118l0 -10 0 0 6 0 5 -1 6 -1 5 -1 5 -1 5 -1 5 -2 5 -2 5 -2 5 -2 4 -3 5 -3 4 -3 4 -3 4 -3 4 -4 3 -4 4 -3 3 -5 3 -4 3 -4 2 -5 2 -4 3 -5 2 -5 1 -5 2 -5 1 -5 1 -6 1 -5 0 -5 0 -6 10 0 0 6 -1 6 0 6 -1 6 -2 5 -1 6 -2 5 -2 6 -3 5 -2 5 -3 5 -3 5 -3 4 -4 5 -3 4 -4 4 -4 4 -5 4 -4 3 -5 4 -5 3 -4 2 -6 3 -5 2 -5 3 -6 1 -5 2 -6 1 -6 1 -6 1 -5 1 -7 0 0 0zm-117 -118l10 0 0 0 0 6 0 5 1 5 1 6 1 5 2 5 1 5 2 5 2 5 3 4 2 5 3 4 3 4 3 5 4 3 3 4 4 4 4 3 4 3 4 3 5 3 4 3 5 2 5 2 4 2 5 2 6 1 5 1 5 1 5 1 6 1 5 0 0 10 -6 0 -6 -1 -5 -1 -6 -1 -6 -1 -6 -2 -5 -1 -5 -3 -6 -2 -5 -3 -5 -2 -4 -3 -5 -4 -4 -3 -5 -4 -4 -4 -4 -4 -3 -4 -4 -5 -3 -4 -3 -5 -3 -5 -3 -5 -2 -5 -2 -6 -2 -5 -1 -6 -2 -5 -1 -6 -1 -6 0 -6 0 -6 0 0zm117 -118l0 10 -5 1 -6 0 -5 1 -5 1 -5 1 -6 1 -5 2 -4 2 -5 2 -5 2 -4 3 -5 3 -4 3 -4 3 -4 3 -4 4 -3 4 -4 4 -3 4 -3 4 -3 4 -2 5 -3 4 -2 5 -2 5 -1 5 -2 5 -1 5 -1 6 -1 5 0 6 0 5 -10 0 0 -6 0 -6 1 -6 1 -6 2 -5 1 -6 2 -5 2 -6 2 -5 3 -5 3 -5 3 -5 3 -4 4 -5 3 -4 4 -4 4 -4 5 -4 4 -3 5 -3 4 -4 5 -2 5 -3 6 -2 5 -2 5 -2 6 -2 6 -1 6 -1 5 -1 6 0 6 -1z"/>
   </g>
   <g>
    <path class="fil0" d="M1395 877l0 -10 0 0 7 1 6 1 5 1 6 3 5 2 4 4 5 3 4 4 4 5 3 4 4 5 3 6 3 5 2 6 2 6 3 5 2 6 1 6 2 6 2 6 1 6 1 6 1 6 1 5 1 5 0 5 1 5 0 5 0 4 1 4 0 3 0 3 -10 0 0 -3 0 -3 -1 -4 0 -4 0 -4 -1 -5 0 -4 -1 -6 -1 -5 -1 -5 -1 -6 -1 -6 -2 -5 -1 -6 -2 -6 -2 -5 -2 -6 -2 -5 -2 -5 -3 -5 -3 -5 -3 -5 -3 -4 -3 -4 -4 -3 -4 -3 -4 -3 -4 -2 -4 -2 -5 -2 -4 0 -6 -1 0 0zm-107 108l-10 0 0 0 0 -6 0 -6 1 -6 1 -6 2 -5 1 -6 2 -5 2 -6 2 -5 3 -5 3 -5 3 -5 3 -4 4 -5 3 -4 4 -4 4 -4 5 -4 4 -3 5 -4 4 -3 5 -2 5 -3 6 -2 5 -3 5 -1 6 -2 6 -1 6 -1 5 -1 6 0 6 -1 0 10 -5 0 -6 1 -5 1 -5 1 -5 1 -6 1 -5 2 -4 2 -5 2 -5 2 -4 3 -5 3 -4 3 -4 3 -4 3 -4 4 -3 4 -4 4 -3 4 -3 4 -3 4 -2 5 -3 4 -2 5 -2 5 -1 5 -2 5 -1 5 -1 6 -1 5 0 5 0 6 0 0zm107 108l0 10 0 0 -6 -1 -6 0 -5 -1 -6 -1 -6 -1 -6 -2 -5 -2 -5 -2 -6 -2 -5 -3 -5 -2 -4 -3 -5 -4 -4 -3 -5 -4 -4 -4 -4 -4 -3 -4 -4 -5 -3 -4 -3 -5 -3 -5 -3 -5 -2 -5 -2 -6 -2 -5 -1 -6 -2 -5 -1 -6 -1 -6 0 -6 0 -6 10 0 0 6 0 5 1 5 1 6 1 5 2 5 1 5 2 5 2 5 3 4 2 5 3 4 3 4 3 4 4 4 3 4 4 4 4 3 4 3 4 3 5 3 4 3 5 2 5 2 4 2 5 2 6 1 5 1 5 1 5 1 6 0 5 1 0 0zm108 -108l10 0 0 0 0 6 -1 6 0 6 -1 6 -2 5 -1 6 -2 5 -2 6 -3 5 -2 5 -3 5 -3 5 -3 4 -4 5 -3 4 -4 4 -4 4 -5 4 -4 3 -5 4 -5 3 -4 2 -6 3 -5 2 -5 2 -6 2 -5 2 -6 1 -6 1 -6 1 -5 0 -7 1 0 -10 6 -1 5 0 6 -1 5 -1 5 -1 5 -1 5 -2 5 -2 5 -2 5 -2 4 -3 5 -3 4 -3 4 -3 4 -3 4 -4 3 -4 4 -4 3 -4 3 -4 3 -4 2 -5 2 -4 3 -5 2 -5 1 -5 2 -5 1 -5 1 -6 1 -5 0 -5 0 -6 0 0zm-108 -108l0 -10 7 1 5 0 6 1 6 1 6 1 5 2 6 1 5 3 5 2 6 3 4 2 5 3 5 4 4 3 5 4 4 4 4 4 3 4 4 5 3 4 3 5 3 5 2 5 3 5 2 6 2 5 1 6 2 5 1 6 0 6 1 6 0 6 -10 0 0 -6 0 -5 -1 -5 -1 -6 -1 -5 -2 -5 -1 -5 -2 -5 -3 -5 -2 -4 -2 -5 -3 -4 -3 -4 -3 -4 -4 -4 -3 -4 -4 -4 -4 -3 -4 -3 -4 -3 -5 -3 -4 -3 -5 -2 -5 -2 -5 -2 -5 -2 -5 -1 -5 -1 -5 -1 -6 -1 -5 -1 -6 0z"/>
   </g>
  </g>
 </g>
</svg>
