<?xml version="1.0" encoding="UTF-8"?>
<!DOCTYPE svg PUBLIC "-//W3C//DTD SVG 1.1//EN" "http://www.w3.org/Graphics/SVG/1.1/DTD/svg11.dtd">
<!-- Creator: CorelDRAW X8 -->
<svg xmlns="http://www.w3.org/2000/svg" xml:space="preserve" width="40mm" height="60mm" version="1.1" style="shape-rendering:geometricPrecision; text-rendering:geometricPrecision; image-rendering:optimizeQuality; fill-rule:evenodd; clip-rule:evenodd"
viewBox="0 0 4000 6000"
 xmlns:xlink="http://www.w3.org/1999/xlink">
 <defs>
  <style type="text/css">
   <![CDATA[
    .str0 {stroke:black;stroke-width:7.62}
    .fil0 {fill:none;fill-rule:nonzero}
   ]]>
  </style>
 </defs>
 <g id="图层_x0020_1">
  <metadata id="CorelCorpID_0Corel-Layer"/>
  <path class="fil0 str0" d="M3161 1089l65 -340 -178 0 0 333c-4,-138 -117,-248 -255,-248l0 -184 -1586 0 0 184c-140,0 -254,114 -254,255l0 -340 -179 0 65 340 0 0 0 3822 0 0 -65 340 179 0 0 -340c0,141 114,255 254,255l0 184 1586 0 0 -184c138,0 251,-110 255,-248l0 333 178 0 -65 -340 0 -3822zm-1721 340c0,78 -64,141 -142,141l0 0c-78,0 -142,-63 -142,-141l0 -284c0,-78 64,-141 142,-141l0 0c78,0 142,63 142,141l0 284zm-142 113c-62,0 -113,-51 -113,-113l0 -284c0,-62 51,-113 113,-113 62,0 113,51 113,113l0 284c0,62 -51,113 -113,113zm64 -397c0,36 -29,64 -64,64 -35,0 -64,-28 -64,-64 0,-35 29,-63 64,-63 35,0 64,28 64,63zm0 284c0,35 -29,63 -64,63 -35,0 -64,-28 -64,-63 0,-36 29,-64 64,-64 35,0 64,28 64,64zm-15 262c0,31 -25,56 -56,56 -31,0 -57,-25 -57,-56 0,-32 26,-57 57,-57 31,0 56,25 56,57zm816 70c0,90 -73,163 -163,163 -90,0 -163,-73 -163,-163 0,-90 73,-163 163,-163 90,0 163,73 163,163zm-1239 475c0,15 -12,28 -28,28l0 0c-16,0 -28,-13 -28,-28l0 -482c0,-15 12,-28 28,-28l0 0c16,0 28,13 28,28l0 482zm0 403c0,16 -12,28 -28,28l0 0c-16,0 -28,-12 -28,-28l0 -198c0,-16 12,-28 28,-28l0 0c16,0 28,12 28,28l0 198zm2211 -906c0,20 -15,35 -35,35l0 0c-19,0 -35,-15 -35,-35l0 -467c0,-20 16,-36 35,-36l0 0c20,0 35,16 35,36l0 467zm-611 -1026c0,7 6,14 14,14 8,0 14,-7 14,-14 0,-8 -6,-15 -14,-15 -8,0 -14,7 -14,15zm-396 4558c0,24 -20,43 -43,43l-170 0c-23,0 -42,-19 -42,-43l0 0c0,-23 19,-42 42,-42l170 0c23,0 43,19 43,42l0 0zm-814 0c0,14 -12,25 -25,25 -14,0 -25,-11 -25,-25 0,-14 11,-25 25,-25 13,0 25,11 25,25zm65 0c0,14 -11,25 -25,25 -13,0 -25,-11 -25,-25 0,-14 12,-25 25,-25 14,0 25,11 25,25zm65 0c0,14 -11,25 -24,25 -14,0 -25,-11 -25,-25 0,-14 11,-25 25,-25 13,0 24,11 24,25zm66 0c0,14 -11,25 -25,25 -14,0 -25,-11 -25,-25 0,-14 11,-25 25,-25 14,0 25,11 25,25zm65 0c0,14 -11,25 -24,25 -14,0 -25,-11 -25,-25 0,-14 11,-25 25,-25 13,0 24,11 24,25zm192 0c0,8 -7,14 -15,14 -7,0 -14,-6 -14,-14 0,-8 7,-14 14,-14 8,0 15,6 15,14zm806 -14c0,31 -25,57 -56,57 -31,0 -57,-26 -57,-57 0,-31 26,-57 57,-57 31,0 56,26 56,57z"/>
 </g>
</svg>
