<?xml version="1.0" encoding="UTF-8"?>
<!DOCTYPE svg PUBLIC "-//W3C//DTD SVG 1.1//EN" "http://www.w3.org/Graphics/SVG/1.1/DTD/svg11.dtd">
<!-- Creator: CorelDRAW X8 -->
<svg xmlns="http://www.w3.org/2000/svg" xml:space="preserve" width="40mm" height="60mm" version="1.1" style="shape-rendering:geometricPrecision; text-rendering:geometricPrecision; image-rendering:optimizeQuality; fill-rule:evenodd; clip-rule:evenodd"
viewBox="0 0 4000 6000"
 xmlns:xlink="http://www.w3.org/1999/xlink">
 <defs>
  <style type="text/css">
   <![CDATA[
    .str0 {stroke:#332C2B;stroke-width:7.62}
    .fil0 {fill:none;fill-rule:nonzero}
   ]]>
  </style>
 </defs>
 <g id="Layer_x0020_1">
  <metadata id="CorelCorpID_0Corel-Layer"/>
  <path class="fil0 str0" d="M2159 680l0 158 -1552 0 0 -158 1552 0zm-1176 201c15,0 27,13 27,28l0 364c0,15 -12,27 -27,27l-203 0c-15,0 -27,-12 -27,-27l0 -364c0,-15 12,-28 27,-28l203 0zm1145 3c15,0 28,12 28,27l0 216c0,15 -13,27 -28,27l-206 0c-15,0 -27,-12 -27,-27l0 -216c0,-15 12,-27 27,-27l206 0zm0 297c15,0 28,12 28,27l0 211c0,15 -13,27 -28,27l-206 0c-15,0 -27,-12 -27,-27l0 -211c0,-15 12,-27 27,-27l206 0zm-1 290c15,0 27,12 27,27l0 214c0,15 -12,27 -27,27l-203 0c-15,0 -27,-12 -27,-27l0 -214c0,-15 12,-27 27,-27l203 0zm0 296c15,0 27,12 27,27l0 211c0,15 -12,27 -27,27l-203 0c-15,0 -27,-12 -27,-27l0 -211c0,-15 12,-27 27,-27l203 0zm1349 186c28,0 51,22 51,50l0 1993c0,28 -23,51 -51,51l-1204 0c-28,0 -51,-23 -51,-51l0 -1993c0,-28 23,-50 51,-50l1204 0zm-1322 2256c0,14 -12,26 -26,26l-205 0c-15,0 -27,-12 -27,-26l0 -288c0,-15 12,-27 27,-27l205 0c14,0 26,12 26,27l0 288zm-27 52c15,0 27,12 27,27l0 212c0,15 -12,27 -27,27l-203 0c-15,0 -27,-12 -27,-27l0 -212c0,-15 12,-27 27,-27l203 0zm0 294c15,0 27,12 27,27l0 212c0,15 -12,27 -27,27l-203 0c-15,0 -27,-12 -27,-27l0 -212c0,-15 12,-27 27,-27l203 0zm3 295c15,0 27,12 27,27l0 213c0,15 -12,27 -27,27l-209 0c-15,0 -27,-12 -27,-27l0 -213c0,-15 12,-27 27,-27l209 0zm-492 268c-15,0 -27,-13 -27,-28l0 -580c0,-15 12,-27 27,-27l202 0c15,0 27,12 27,27l0 580c0,15 -12,28 -27,28l-202 0zm-858 -1c-15,0 -27,-12 -27,-27l0 -215c0,-15 12,-27 27,-27l203 0c15,0 27,12 27,27l0 215c0,15 -12,27 -27,27l-203 0zm-144 0c-15,0 -28,-13 -28,-28l0 -360c0,-15 13,-28 28,-28l60 0c15,0 28,13 28,28l0 360c0,15 -13,28 -28,28l-60 0zm0 -445c-15,0 -28,-12 -28,-27l0 -209c0,-15 13,-28 28,-28l60 0c15,0 28,13 28,28l0 209c0,15 -13,27 -28,27l-60 0zm0 -292c-15,0 -28,-12 -28,-28l0 -208c0,-16 13,-28 28,-28l60 0c15,0 28,12 28,28l0 208c0,16 -13,28 -28,28l-60 0zm0 -295c-15,0 -28,-12 -28,-28l0 -207c0,-15 13,-27 28,-27l60 0c15,0 28,12 28,27l0 207c0,16 -13,28 -28,28l-60 0zm0 -294c-15,0 -28,-12 -28,-27l0 -210c0,-16 13,-28 28,-28l60 0c15,0 28,12 28,28l0 210c0,15 -13,27 -28,27l-60 0zm0 -292c-15,0 -28,-13 -28,-28l0 -211c0,-16 13,-28 28,-28l60 0c15,0 28,12 28,28l0 211c0,15 -13,28 -28,28l-60 0zm0 -293c-15,0 -28,-13 -28,-28l0 -213c0,-15 13,-28 28,-28l60 0c15,0 28,13 28,28l0 213c0,15 -13,28 -28,28l-60 0zm0 -293c-15,0 -28,-13 -28,-28l0 -213c0,-15 13,-28 28,-28l60 0c15,0 28,13 28,28l0 213c0,15 -13,28 -28,28l-60 0zm0 -293c-15,0 -28,-13 -28,-28l0 -213c0,-15 13,-28 28,-28l60 0c15,0 28,13 28,28l0 213c0,15 -13,28 -28,28l-60 0zm0 -295c-15,0 -28,-12 -28,-28l0 -213c0,-15 13,-27 28,-27l60 0c15,0 28,12 28,27l0 213c0,16 -13,28 -28,28l-60 0zm0 -292c-15,0 -28,-12 -28,-28l0 -213c0,-15 13,-27 28,-27l60 0c15,0 28,12 28,27l0 213c0,16 -13,28 -28,28l-60 0zm0 -294c-15,0 -28,-13 -28,-28l0 -212c0,-15 13,-27 28,-27l60 0c15,0 28,12 28,27l0 212c0,15 -13,28 -28,28l-60 0zm347 -417c15,0 27,13 27,28l0 216c0,15 -12,27 -27,27l-203 0c-15,0 -27,-12 -27,-27l0 -216c0,-15 12,-28 27,-28l203 0zm286 -146c15,0 27,12 27,27l0 216c0,15 -12,28 -27,28l-203 0c-15,0 -27,-13 -27,-28l0 -216c0,-15 12,-27 27,-27l203 0zm56 -262c0,-15 12,-27 27,-27l202 0c15,0 27,12 27,27l0 434c0,15 -12,28 -27,28l-202 0c-15,0 -27,-13 -27,-28l0 -434zm-56 -27c15,0 27,12 27,27l0 212c0,15 -12,27 -27,27l-203 0c-15,0 -27,-12 -27,-27l0 -212c0,-15 12,-27 27,-27l203 0zm369 634c-15,0 -27,-12 -27,-27l0 -582c0,-15 12,-27 27,-27l202 0c15,0 27,12 27,27l0 582c0,15 -12,27 -27,27l-202 0zm-57 120c0,15 -12,27 -27,27l-202 0c-15,0 -27,-12 -27,-27l0 -212c0,-15 12,-27 27,-27l202 0c15,0 27,12 27,27l0 212zm57 172c-15,0 -27,-12 -27,-27l0 -213c0,-15 12,-28 27,-28l202 0c15,0 27,13 27,28l0 213c0,15 -12,27 -27,27l-202 0zm-57 121c0,15 -12,27 -27,27l-202 0c-15,0 -27,-12 -27,-27l0 -211c0,-14 12,-27 27,-27l202 0c15,0 27,13 27,27l0 211zm286 146c0,15 -12,27 -27,27l-202 0c-15,0 -27,-12 -27,-27l0 -214c0,-15 12,-27 27,-27l202 0c15,0 27,12 27,27l0 214zm56 318c-15,0 -27,-12 -27,-27l0 -288c0,-14 12,-26 27,-26l205 0c14,0 26,12 26,26l0 288c0,15 -12,27 -26,27l-205 0zm-285 3c-15,0 -27,-12 -27,-27l0 -215c0,-15 12,-27 27,-27l202 0c15,0 27,12 27,27l0 215c0,15 -12,27 -27,27l-202 0zm-57 118c0,15 -12,27 -27,27l-202 0c-15,0 -27,-12 -27,-27l0 -210c0,-15 12,-28 27,-28l202 0c15,0 27,13 27,28l0 210zm286 -70l0 217c0,15 -12,27 -27,27l-202 0c-15,0 -27,-12 -27,-27l0 -217c0,-15 12,-27 27,-27l202 0c15,0 27,12 27,27zm57 1420c-15,0 -27,-13 -27,-27l0 -1392c0,-15 12,-27 27,-27l203 0c15,0 27,12 27,27l0 1392c0,14 -12,27 -27,27l-203 0zm-286 0c-15,0 -27,-12 -27,-27l0 -214c0,-15 12,-27 27,-27l202 0c15,0 27,12 27,27l0 214c0,15 -12,27 -27,27l-202 0zm-57 118c0,15 -12,27 -27,27l-202 0c-15,0 -27,-12 -27,-27l0 -213c0,-15 12,-28 27,-28l202 0c15,0 27,13 27,28l0 213zm57 172c-15,0 -27,-12 -27,-27l0 -211c0,-15 12,-27 27,-27l202 0c15,0 27,12 27,27l0 211c0,15 -12,27 -27,27l-202 0zm-57 122c0,15 -12,27 -27,27l-202 0c-15,0 -27,-12 -27,-27l0 -214c0,-15 12,-27 27,-27l202 0c15,0 27,12 27,27l0 214zm57 174c-15,0 -27,-12 -27,-27l0 -212c0,-15 12,-27 27,-27l202 0c15,0 27,12 27,27l0 212c0,15 -12,27 -27,27l-202 0zm-286 147c-15,0 -27,-12 -27,-27l0 -212c0,-15 12,-27 27,-27l202 0c15,0 27,12 27,27l0 212c0,15 -12,27 -27,27l-202 0zm-369 -339c15,0 27,12 27,27l0 212c0,15 -12,27 -27,27l-203 0c-15,0 -27,-12 -27,-27l0 -212c0,-15 12,-27 27,-27l203 0zm56 -120c0,-14 12,-27 27,-27l203 0c15,0 27,13 27,27l0 212c0,15 -12,28 -27,28l-203 0c-15,0 -27,-13 -27,-28l0 -212zm-56 -174c15,0 27,12 27,27l0 212c0,15 -12,27 -27,27l-203 0c-15,0 -27,-12 -27,-27l0 -212c0,-15 12,-27 27,-27l203 0zm56 -121c0,-15 12,-27 27,-27l203 0c15,0 27,12 27,27l0 214c0,15 -12,27 -27,27l-203 0c-15,0 -27,-12 -27,-27l0 -214zm-56 -172c15,0 27,12 27,27l0 209c0,15 -12,27 -27,27l-203 0c-15,0 -27,-12 -27,-27l0 -209c0,-15 12,-27 27,-27l203 0zm56 -122c0,-15 12,-27 27,-27l203 0c15,0 27,12 27,27l0 212c0,15 -12,27 -27,27l-203 0c-15,0 -27,-12 -27,-27l0 -212zm-56 -175c15,0 27,12 27,27l0 213c0,15 -12,27 -27,27l-203 0c-15,0 -27,-12 -27,-27l0 -213c0,-15 12,-27 27,-27l203 0zm56 -117c0,-15 12,-27 27,-27l203 0c15,0 27,12 27,27l0 212c0,15 -12,27 -27,27l-203 0c-15,0 -27,-12 -27,-27l0 -212zm-56 -178c15,0 27,12 27,27l0 214c0,14 -12,27 -27,27l-203 0c-15,0 -27,-13 -27,-27l0 -214c0,-15 12,-27 27,-27l203 0zm56 -119c0,-15 12,-27 27,-27l203 0c15,0 27,12 27,27l0 215c0,15 -12,27 -27,27l-203 0c-15,0 -27,-12 -27,-27l0 -215zm-56 -175c15,0 27,12 27,27l0 214c0,15 -12,27 -27,27l-203 0c-15,0 -27,-12 -27,-27l0 -214c0,-15 12,-27 27,-27l203 0zm56 -119c0,-15 12,-27 27,-27l203 0c15,0 27,12 27,27l0 214c0,15 -12,27 -27,27l-203 0c-15,0 -27,-12 -27,-27l0 -214zm-56 -175c15,0 27,12 27,27l0 213c0,15 -12,27 -27,27l-203 0c-15,0 -27,-12 -27,-27l0 -213c0,-15 12,-27 27,-27l203 0zm598 316c0,15 -12,27 -27,27l-202 0c-15,0 -27,-12 -27,-27l0 -213c0,-15 12,-27 27,-27l202 0c15,0 27,12 27,27l0 213zm57 174c-15,0 -27,-12 -27,-27l0 -214c0,-15 12,-27 27,-27l202 0c15,0 27,12 27,27l0 214c0,15 -12,27 -27,27l-202 0zm-57 120c0,15 -12,27 -27,27l-202 0c-15,0 -27,-12 -27,-27l0 -215c0,-15 12,-27 27,-27l202 0c15,0 27,12 27,27l0 215zm57 177c-15,0 -27,-13 -27,-28l0 -215c0,-15 12,-27 27,-27l202 0c15,0 27,12 27,27l0 215c0,15 -12,28 -27,28l-202 0zm-57 115c0,15 -12,27 -27,27l-202 0c-15,0 -27,-12 -27,-27l0 -212c0,-15 12,-27 27,-27l202 0c15,0 27,12 27,27l0 212zm0 294c0,15 -12,28 -27,28l-202 0c-15,0 -27,-13 -27,-28l0 -211c0,-15 12,-28 27,-28l202 0c15,0 27,13 27,28l0 211zm57 -117c-15,0 -27,-12 -27,-27l0 -215c0,-15 12,-28 27,-28l202 0c15,0 27,13 27,28l0 215c0,15 -12,27 -27,27l-202 0zm-599 -1196c0,-15 12,-27 27,-27l203 0c15,0 27,12 27,27l0 215c0,15 -12,27 -27,27l-203 0c-15,0 -27,-12 -27,-27l0 -215zm-56 -173c15,0 27,12 27,27l0 213c0,15 -12,27 -27,27l-203 0c-15,0 -27,-12 -27,-27l0 -213c0,-15 12,-27 27,-27l203 0zm56 -118c0,-15 12,-27 27,-27l203 0c15,0 27,12 27,27l0 211c0,15 -12,27 -27,27l-203 0c-15,0 -27,-12 -27,-27l0 -211zm-56 -176c15,0 27,13 27,28l0 211c0,15 -12,28 -27,28l-203 0c-15,0 -27,-13 -27,-28l0 -211c0,-15 12,-28 27,-28l203 0zm369 77l202 0c15,0 27,12 27,27l0 212c0,15 -12,27 -27,27l-202 0c-15,0 -27,-12 -27,-27l0 -212c0,-15 12,-27 27,-27zm-313 -196c0,-15 12,-28 27,-28l203 0c15,0 27,13 27,28l0 215c0,15 -12,27 -27,27l-203 0c-15,0 -27,-12 -27,-27l0 -215zm0 -295c0,-15 12,-27 27,-27l203 0c15,0 27,12 27,27l0 215c0,15 -12,28 -27,28l-203 0c-15,0 -27,-13 -27,-28l0 -215zm-56 118c15,0 27,13 27,28l0 216c0,15 -12,27 -27,27l-203 0c-15,0 -27,-12 -27,-27l0 -216c0,-15 12,-28 27,-28l203 0zm313 3033c0,15 -12,27 -27,27l-203 0c-15,0 -27,-12 -27,-27l0 -214c0,-15 12,-27 27,-27l203 0c15,0 27,12 27,27l0 214zm28 441l0 -436c0,-15 12,-27 27,-27l204 0c15,0 27,12 27,27l0 436c0,15 -12,27 -27,27l-204 0c-15,0 -27,-12 -27,-27zm-341 -268l-203 0c-15,0 -27,-12 -27,-27l0 -213c0,-15 12,-27 27,-27l203 0c15,0 27,12 27,27l0 213c0,15 -12,27 -27,27zm56 -93c0,-15 12,-27 27,-27l203 0c15,0 27,12 27,27l0 361c0,15 -12,27 -27,27l-203 0c-15,0 -27,-12 -27,-27l0 -361zm-403 -3283c-15,0 -28,-12 -28,-27l0 -213c0,-16 13,-28 28,-28l60 0c15,0 28,12 28,28l0 213c0,15 -13,27 -28,27l-60 0zm0 -294c-15,0 -28,-13 -28,-28l0 -212c0,-15 13,-27 28,-27l60 0c15,0 28,12 28,27l0 212c0,15 -13,28 -28,28l-60 0zm1523 4009l0 158 -1552 0 0 -158 1552 0zm-1645 -4511c-66,3 -185,24 -188,152 0,2 0,3 0,3l0 358 54 0 0 3673 -54 0 0 343c0,6 0,13 0,19 0,0 0,0 0,0 1,15 3,31 8,46 4,14 10,30 19,42 9,11 19,20 31,28 11,8 24,14 37,19 12,5 27,7 40,10 12,3 25,4 37,6 25,2 49,1 74,0 5,0 10,0 15,0l2730 0c0,0 85,-2 97,-2 49,-1 101,-8 138,-43 31,-28 43,-67 49,-108 1,-2 1,-5 2,-9 0,0 1,-16 0,-42l0 -170 -1 -581 1 -317 0 -695c-6,-3 -13,-5 -18,-9 -7,-5 -12,-11 -15,-19 -6,-15 -6,-30 -6,-46l0 -637c0,-17 15,-40 30,-47 3,-2 6,-3 9,-3l-1 -695 1 -318 0 -582 0 -139c0,-1 0,-3 -1,-4 0,-31 0,-49 0,-52 -3,-49 -13,-101 -51,-136 -28,-26 -63,-36 -100,-40 -3,-1 -7,-1 -10,-1l-34 -2c0,0 -2830,0 -2830,0 -15,0 -33,-1 -35,-1 -8,-1 -17,-1 -28,-1zm204 474l0 -212c0,-12 -10,-21 -22,-21l-60 0c-12,0 -22,9 -22,21l0 212c0,12 10,21 22,21l60 0c12,0 22,-9 22,-21zm0 295l0 -213c0,-12 -10,-22 -22,-22l-60 0c-12,0 -22,10 -22,22l0 213c0,12 10,21 22,21l60 0c12,0 22,-9 22,-21zm348 3692l203 0c11,0 21,-9 21,-21l0 -361c0,-12 -10,-21 -21,-21l-203 0c-11,0 -21,9 -21,21l0 361c0,12 10,21 21,21zm-83 -550l-203 0c-11,0 -21,9 -21,21l0 213c0,12 10,21 21,21l203 0c11,0 21,-9 21,-21l0 -213c0,-12 -10,-21 -21,-21zm593 529l0 -436c0,-11 -9,-21 -21,-21l-204 0c-12,0 -21,10 -21,21l0 436c0,12 9,21 21,21l204 0c12,0 21,-9 21,-21zm-307 -675l-203 0c-11,0 -21,9 -21,20l0 214c0,12 10,21 21,21l203 0c11,0 21,-9 21,-21l0 -214c0,-11 -10,-20 -21,-20zm-510 -2771l0 216c0,12 10,21 21,21l203 0c11,0 21,-9 21,-21l0 -216c0,-12 -10,-21 -21,-21l-203 0c-11,0 -21,9 -21,21zm307 90l203 0c11,0 21,-9 21,-21l0 -215c0,-11 -10,-21 -21,-21l-203 0c-11,0 -21,10 -21,21l0 215c0,12 10,21 21,21zm0 295l203 0c11,0 21,-10 21,-21l0 -215c0,-12 -10,-21 -21,-21l-203 0c-11,0 -21,9 -21,21l0 215c0,11 10,21 21,21zm265 199c0,11 9,21 21,21l202 0c12,0 21,-10 21,-21l0 -212c0,-12 -9,-21 -21,-21l-202 0c-12,0 -21,9 -21,21l0 212zm-572 -288l0 211c0,12 10,21 21,21l203 0c11,0 21,-9 21,-21l0 -211c0,-12 -10,-21 -21,-21l-203 0c-11,0 -21,9 -21,21zm307 380l203 0c11,0 21,-10 21,-21l0 -211c0,-11 -10,-21 -21,-21l-203 0c-11,0 -21,10 -21,21l0 211c0,11 10,21 21,21zm-307 -87l0 213c0,12 10,21 21,21l203 0c11,0 21,-9 21,-21l0 -213c0,-12 -10,-21 -21,-21l-203 0c-11,0 -21,9 -21,21zm307 382l203 0c11,0 21,-10 21,-21l0 -215c0,-12 -10,-21 -21,-21l-203 0c-11,0 -21,9 -21,21l0 215c0,11 10,21 21,21zm795 933l0 -215c0,-12 -9,-21 -21,-21l-202 0c-12,0 -21,9 -21,21l0 215c0,11 9,21 21,21l202 0c12,0 21,-10 21,-21zm-307 -88l-202 0c-12,0 -21,9 -21,21l0 211c0,12 9,21 21,21l202 0c12,0 21,-9 21,-21l0 -211c0,-12 -9,-21 -21,-21zm0 -295l-202 0c-12,0 -21,9 -21,21l0 212c0,11 9,21 21,21l202 0c12,0 21,-10 21,-21l0 -212c0,-12 -9,-21 -21,-21zm307 90l0 -215c0,-11 -9,-21 -21,-21l-202 0c-12,0 -21,10 -21,21l0 215c0,12 9,21 21,21l202 0c12,0 21,-9 21,-21zm-307 -385l-202 0c-12,0 -21,9 -21,21l0 215c0,12 9,21 21,21l202 0c12,0 21,-9 21,-21l0 -215c0,-12 -9,-21 -21,-21zm307 89l0 -214c0,-11 -9,-21 -21,-21l-202 0c-12,0 -21,10 -21,21l0 214c0,11 9,20 21,20l202 0c12,0 21,-9 21,-20zm-307 -381l-202 0c-12,0 -21,9 -21,21l0 213c0,12 9,21 21,21l202 0c12,0 21,-9 21,-21l0 -213c0,-12 -9,-21 -21,-21zm-795 -55l0 213c0,12 10,21 21,21l203 0c11,0 21,-9 21,-21l0 -213c0,-12 -10,-21 -21,-21l-203 0c-11,0 -21,9 -21,21zm307 382l203 0c11,0 21,-9 21,-20l0 -214c0,-12 -10,-21 -21,-21l-203 0c-11,0 -21,9 -21,21l0 214c0,11 10,20 21,20zm-307 -88l0 214c0,11 10,21 21,21l203 0c11,0 21,-10 21,-21l0 -214c0,-11 -10,-21 -21,-21l-203 0c-11,0 -21,10 -21,21zm307 384l203 0c11,0 21,-9 21,-21l0 -215c0,-11 -10,-21 -21,-21l-203 0c-11,0 -21,10 -21,21l0 215c0,12 10,21 21,21zm-307 -90l0 214c0,11 10,20 21,20l203 0c11,0 21,-9 21,-20l0 -214c0,-12 -10,-21 -21,-21l-203 0c-11,0 -21,9 -21,21zm307 384l203 0c11,0 21,-10 21,-21l0 -212c0,-12 -10,-21 -21,-21l-203 0c-11,0 -21,9 -21,21l0 212c0,11 10,21 21,21zm-307 -89l0 213c0,12 10,21 21,21l203 0c11,0 21,-9 21,-21l0 -213c0,-12 -10,-21 -21,-21l-203 0c-11,0 -21,9 -21,21zm307 381l203 0c11,0 21,-10 21,-21l0 -212c0,-12 -10,-21 -21,-21l-203 0c-11,0 -21,9 -21,21l0 212c0,11 10,21 21,21zm-307 -84l0 209c0,11 10,21 21,21l203 0c11,0 21,-10 21,-21l0 -209c0,-11 -10,-21 -21,-21l-203 0c-11,0 -21,10 -21,21zm307 380l203 0c11,0 21,-10 21,-21l0 -214c0,-11 -10,-21 -21,-21l-203 0c-11,0 -21,10 -21,21l0 214c0,11 10,21 21,21zm-307 -87l0 212c0,11 10,21 21,21l203 0c11,0 21,-10 21,-21l0 -212c0,-12 -10,-21 -21,-21l-203 0c-11,0 -21,9 -21,21zm307 380l203 0c11,0 21,-9 21,-21l0 -212c0,-11 -10,-20 -21,-20l-203 0c-11,0 -21,9 -21,20l0 212c0,12 10,21 21,21zm-307 -86l0 212c0,11 10,21 21,21l203 0c11,0 21,-10 21,-21l0 -212c0,-12 -10,-21 -21,-21l-203 0c-11,0 -21,9 -21,21zm816 285l0 -212c0,-12 -9,-21 -21,-21l-202 0c-12,0 -21,9 -21,21l0 212c0,11 9,21 21,21l202 0c12,0 21,-10 21,-21zm286 -147l0 -212c0,-12 -9,-21 -21,-21l-202 0c-12,0 -21,9 -21,21l0 212c0,11 9,21 21,21l202 0c12,0 21,-10 21,-21zm-307 -382l-202 0c-12,0 -21,10 -21,21l0 214c0,11 9,21 21,21l202 0c12,0 21,-10 21,-21l0 -214c0,-11 -9,-21 -21,-21zm307 86l0 -211c0,-11 -9,-21 -21,-21l-202 0c-12,0 -21,10 -21,21l0 211c0,11 9,21 21,21l202 0c12,0 21,-10 21,-21zm-307 -379l-202 0c-12,0 -21,9 -21,21l0 213c0,12 9,21 21,21l202 0c12,0 21,-9 21,-21l0 -213c0,-12 -9,-21 -21,-21zm307 89l0 -214c0,-12 -9,-21 -21,-21l-202 0c-12,0 -21,9 -21,21l0 214c0,11 9,20 21,20l202 0c12,0 21,-9 21,-20zm286 0l0 -1392c0,-12 -9,-21 -20,-21l-203 0c-11,0 -21,9 -21,21l0 1392c0,11 10,20 21,20l203 0c11,0 20,-9 20,-20zm-530 -1393l0 217c0,12 9,21 21,21l202 0c12,0 21,-9 21,-21l0 -217c0,-11 -9,-20 -21,-20l-202 0c-12,0 -21,9 -21,20zm-63 -161l-202 0c-12,0 -21,9 -21,21l0 210c0,12 9,21 21,21l202 0c12,0 21,-9 21,-21l0 -210c0,-12 -9,-21 -21,-21zm307 86l0 -215c0,-12 -9,-21 -21,-21l-202 0c-12,0 -21,9 -21,21l0 215c0,11 9,21 21,21l202 0c12,0 21,-10 21,-21zm287 -3l0 -288c0,-11 -9,-20 -20,-20l-205 0c-11,0 -21,9 -21,20l0 288c0,11 10,20 21,20l205 0c11,0 20,-9 20,-20zm-308 -525l-202 0c-12,0 -21,9 -21,20l0 214c0,11 9,21 21,21l202 0c12,0 21,-10 21,-21l0 -214c0,-11 -9,-20 -21,-20zm-286 -143l-202 0c-12,0 -21,9 -21,20l0 211c0,11 9,21 21,21l202 0c12,0 21,-10 21,-21l0 -211c0,-11 -9,-20 -21,-20zm307 83l0 -213c0,-12 -9,-21 -21,-21l-202 0c-12,0 -21,9 -21,21l0 213c0,12 9,21 21,21l202 0c12,0 21,-9 21,-21zm-307 -378l-202 0c-12,0 -21,10 -21,21l0 212c0,12 9,21 21,21l202 0c12,0 21,-9 21,-21l0 -212c0,-11 -9,-21 -21,-21zm307 86l0 -582c0,-11 -9,-21 -21,-21l-202 0c-12,0 -21,10 -21,21l0 582c0,12 9,21 21,21l202 0c12,0 21,-9 21,-21zm-816 -580l0 212c0,11 10,21 21,21l203 0c11,0 21,-10 21,-21l0 -212c0,-12 -10,-21 -21,-21l-203 0c-11,0 -21,9 -21,21zm307 455l202 0c12,0 21,-9 21,-21l0 -434c0,-11 -9,-21 -21,-21l-202 0c-12,0 -21,10 -21,21l0 434c0,12 9,21 21,21zm-307 -166l0 216c0,12 10,21 21,21l203 0c11,0 21,-9 21,-21l0 -216c0,-12 -10,-21 -21,-21l-203 0c-11,0 -21,9 -21,21zm-286 147l0 216c0,12 10,21 21,21l203 0c11,0 21,-9 21,-21l0 -216c0,-12 -10,-21 -21,-21l-203 0c-11,0 -21,9 -21,21zm-41 361l0 -212c0,-12 -10,-21 -22,-21l-60 0c-12,0 -22,9 -22,21l0 212c0,12 10,21 22,21l60 0c12,0 22,-9 22,-21zm0 294l0 -213c0,-12 -10,-21 -22,-21l-60 0c-12,0 -22,9 -22,21l0 213c0,12 10,22 22,22l60 0c12,0 22,-10 22,-22zm0 292l0 -213c0,-12 -10,-21 -22,-21l-60 0c-12,0 -22,9 -22,21l0 213c0,12 10,22 22,22l60 0c12,0 22,-10 22,-22zm0 295l0 -213c0,-12 -10,-22 -22,-22l-60 0c-12,0 -22,10 -22,22l0 213c0,12 10,21 22,21l60 0c12,0 22,-9 22,-21zm0 293l0 -213c0,-12 -10,-22 -22,-22l-60 0c-12,0 -22,10 -22,22l0 213c0,12 10,22 22,22l60 0c12,0 22,-10 22,-22zm0 293l0 -213c0,-12 -10,-22 -22,-22l-60 0c-12,0 -22,10 -22,22l0 213c0,12 10,22 22,22l60 0c12,0 22,-10 22,-22zm0 293l0 -211c0,-12 -10,-22 -22,-22l-60 0c-12,0 -22,10 -22,22l0 211c0,12 10,22 22,22l60 0c12,0 22,-10 22,-22zm0 293l0 -210c0,-12 -10,-22 -22,-22l-60 0c-12,0 -22,10 -22,22l0 210c0,11 10,21 22,21l60 0c12,0 22,-10 22,-21zm0 293l0 -207c0,-12 -10,-21 -22,-21l-60 0c-12,0 -22,9 -22,21l0 207c0,12 10,22 22,22l60 0c12,0 22,-10 22,-22zm0 295l0 -208c0,-12 -10,-22 -22,-22l-60 0c-12,0 -22,10 -22,22l0 208c0,12 10,22 22,22l60 0c12,0 22,-10 22,-22zm0 293l0 -209c0,-12 -10,-21 -22,-21l-60 0c-12,0 -22,9 -22,21l0 209c0,11 10,21 22,21l60 0c12,0 22,-10 22,-21zm0 444l0 -360c0,-12 -10,-22 -22,-22l-60 0c-12,0 -22,10 -22,22l0 360c0,12 10,22 22,22l60 0c12,0 22,-10 22,-22zm286 1l0 -215c0,-11 -10,-21 -21,-21l-203 0c-11,0 -21,10 -21,21l0 215c0,12 10,21 21,21l203 0c11,0 21,-9 21,-21zm857 0l0 -580c0,-12 -9,-21 -21,-21l-202 0c-12,0 -21,9 -21,21l0 580c0,12 9,21 21,21l202 0c12,0 21,-9 21,-21zm39 -213l0 213c0,12 10,21 21,21l209 0c11,0 21,-9 21,-21l0 -213c0,-12 -10,-21 -21,-21l-209 0c-11,0 -21,9 -21,21zm3 -295l0 212c0,11 10,21 21,21l203 0c11,0 20,-10 20,-21l0 -212c0,-12 -9,-21 -20,-21l-203 0c-11,0 -21,9 -21,21zm0 -294l0 212c0,12 10,21 21,21l203 0c11,0 20,-9 20,-21l0 -212c0,-11 -9,-21 -20,-21l-203 0c-11,0 -21,10 -21,21zm225 -388l-205 0c-11,0 -21,10 -21,21l0 288c0,11 10,20 21,20l205 0c11,0 20,-9 20,-20l0 -288c0,-11 -9,-21 -20,-21zm-225 -2106l0 211c0,11 10,21 21,21l203 0c11,0 20,-10 20,-21l0 -211c0,-11 -9,-21 -20,-21l-203 0c-11,0 -21,10 -21,21zm0 -296l0 214c0,11 10,21 21,21l203 0c11,0 20,-10 20,-21l0 -214c0,-11 -9,-21 -20,-21l-203 0c-11,0 -21,10 -21,21zm-2 -290l0 211c0,12 10,21 21,21l206 0c12,0 21,-9 21,-21l0 -211c0,-12 -9,-21 -21,-21l-206 0c-11,0 -21,9 -21,21zm0 -297l0 216c0,11 10,21 21,21l206 0c12,0 21,-10 21,-21l0 -216c0,-12 -9,-21 -21,-21l-206 0c-11,0 -21,9 -21,21zm-1142 -2l0 364c0,11 10,21 21,21l203 0c11,0 21,-10 21,-21l0 -364c0,-12 -10,-21 -21,-21l-203 0c-11,0 -21,9 -21,21zm1468 1095l0 1991c0,26 20,47 45,47l1203 0c26,0 46,-21 46,-47l0 -1991c0,-25 -20,-46 -46,-46l-1203 0c-25,0 -45,21 -45,46zm1395 1387c33,0 52,-43 52,-76l0 -312 0 -317c0,-33 -19,-77 -52,-77 0,0 -17,21 -17,36l-2 362 2 350c1,17 17,34 17,34z"/>
 </g>
</svg>
