<?xml version="1.0" encoding="UTF-8"?>
<!DOCTYPE svg PUBLIC "-//W3C//DTD SVG 1.1//EN" "http://www.w3.org/Graphics/SVG/1.1/DTD/svg11.dtd">
<!-- Creator: CorelDRAW X8 -->
<svg xmlns="http://www.w3.org/2000/svg" xml:space="preserve" width="40mm" height="60mm" version="1.1" style="shape-rendering:geometricPrecision; text-rendering:geometricPrecision; image-rendering:optimizeQuality; fill-rule:evenodd; clip-rule:evenodd"
viewBox="0 0 4000 6000"
 xmlns:xlink="http://www.w3.org/1999/xlink">
 <defs>
  <style type="text/css">
   <![CDATA[
    .str0 {stroke:#332C2B;stroke-width:10}
    .fil0 {fill:none}
   ]]>
  </style>
 </defs>
 <g id="图层_x0020_1">
  <metadata id="CorelCorpID_0Corel-Layer"/>
  <path class="fil0 str0" d="M1199 650c235,0 470,0 705,0 20,0 32,17 32,31l0 60c0,36 29,65 64,65l0 0c35,0 64,-29 64,-65 0,-18 0,-37 0,-56 0,-21 18,-35 38,-35l699 0c123,0 224,101 224,224l0 4252c0,123 -101,224 -224,224l-1602 0c-123,0 -224,-101 -224,-224l0 -4252c0,-123 101,-224 224,-224z"/>
 </g>
</svg>
