<?xml version="1.0" encoding="UTF-8"?>
<!DOCTYPE svg PUBLIC "-//W3C//DTD SVG 1.1//EN" "http://www.w3.org/Graphics/SVG/1.1/DTD/svg11.dtd">
<!-- Creator: CorelDRAW X8 -->
<svg xmlns="http://www.w3.org/2000/svg" xml:space="preserve" width="40mm" height="60mm" version="1.1" style="shape-rendering:geometricPrecision; text-rendering:geometricPrecision; image-rendering:optimizeQuality; fill-rule:evenodd; clip-rule:evenodd"
viewBox="0 0 4000 6000"
 xmlns:xlink="http://www.w3.org/1999/xlink">
 <defs>
  <style type="text/css">
   <![CDATA[
    .str0 {stroke:#332C2B;stroke-width:20}
    .fil0 {fill:none}
   ]]>
  </style>
 </defs>
 <g id="图层_x0020_1">
  <metadata id="CorelCorpID_0Corel-Layer"/>
  <path class="fil0 str0" d="M786 5166l2123 0c168,0 305,-137 305,-305l0 -3906c0,-168 -137,-305 -305,-305l-1745 0c-168,0 -305,137 -305,305l0 3906c0,168 137,305 305,305 168,0 318,96 318,184m314 -4503l473 0c33,0 61,27 61,61l0 0c0,33 -28,60 -61,60l-473 0c-33,0 -60,-27 -60,-60l0 0c0,-34 27,-61 60,-61z"/>
 </g>
</svg>
