<?xml version="1.0" encoding="UTF-8"?>
<!DOCTYPE svg PUBLIC "-//W3C//DTD SVG 1.1//EN" "http://www.w3.org/Graphics/SVG/1.1/DTD/svg11.dtd">
<!-- Creator: CorelDRAW X8 -->
<svg xmlns="http://www.w3.org/2000/svg" xml:space="preserve" width="40mm" height="60mm" version="1.1" style="shape-rendering:geometricPrecision; text-rendering:geometricPrecision; image-rendering:optimizeQuality; fill-rule:evenodd; clip-rule:evenodd"
viewBox="0 0 4000 6000"
 xmlns:xlink="http://www.w3.org/1999/xlink">
 <defs>
  <style type="text/css">
   <![CDATA[
    .str0 {stroke:black;stroke-width:7.62}
    .fil0 {fill:none}
   ]]>
  </style>
 </defs>
 <g id="图层_x0020_1">
  <metadata id="CorelCorpID_0Corel-Layer"/>
  <path class="fil0 str0" d="M978 5350l1868 0c128,0 232,-104 232,-232l0 -4236c0,-127 -104,-232 -232,-232l-1692 0c-128,0 -232,105 -232,232l0 4236c0,128 104,232 232,232l104 0m-60 -4635c0,-5 -5,-10 -14,-11 -33,0 -59,27 -59,59 0,33 26,59 59,59 33,0 59,-26 59,-59 0,-32 -26,-59 -59,-59m756 66c-5,-20 -15,-35 -63,-35l-40 0c-22,0 -39,17 -39,39l0 0c0,21 17,39 39,39l333 0c22,0 39,-18 39,-39l0 0c0,-22 -17,-39 -39,-39l-293 0m-342 -20c0,-5 -5,-10 -14,-11 -33,0 -59,27 -59,59 0,33 26,59 59,59 33,0 59,-26 59,-59 0,-32 -26,-59 -59,-59"/>
 </g>
</svg>
