<?xml version="1.0" encoding="UTF-8"?>
<!DOCTYPE svg PUBLIC "-//W3C//DTD SVG 1.1//EN" "http://www.w3.org/Graphics/SVG/1.1/DTD/svg11.dtd">
<!-- Creator: CorelDRAW -->
<svg xmlns="http://www.w3.org/2000/svg" xml:space="preserve" width="40mm" height="60mm" style="shape-rendering:geometricPrecision; text-rendering:geometricPrecision; image-rendering:optimizeQuality; fill-rule:evenodd; clip-rule:evenodd"
viewBox="0 0 40 60"
 xmlns:xlink="http://www.w3.org/1999/xlink">
 <defs>
  <style type="text/css">
   <![CDATA[
    .str0 {stroke:#1F1A17;stroke-width:0.194}
    .fil0 {fill:none;fill-rule:nonzero}
   ]]>
  </style>
 </defs>
 <g id="图层_x0020_1">
  <metadata id="CorelCorpID_0Corel-Layer"/>
  <path class="fil0 str0" d="M28.1072 52.8476l-15.9401 0.0384 -0.2286 -0.0131c-0.5208,-0.0277 -0.9694,-0.1288 -1.3435,-0.3032 -0.8769,-0.4077 -1.4555,-1.3856 -1.4771,-2.5031m-0.0301 -40.8631l0.0301 40.8631m21.8965 -40.8631c-0.0637,-1.542 -0.5425,-2.497 -1.4759,-2.9518 -0.5834,-0.2827 -1.1391,-0.3657 -2.4502,-0.3657 -1.3688,0 -1.4121,0.0193 -1.4446,0.6689 -0.0049,0.101 -0.0132,0.1839 -0.0253,0.2489 -0.0962,0.5545 -0.5869,1.0381 -1.0994,1.0802 -0.1912,0.0156 -1.6587,0.0264 -3.635,0.0264 -2.8254,0 -5.533,-0.0216 -5.6689,-0.0456 -0.3885,-0.0663 -0.7963,-0.4187 -0.9515,-0.8216 -0.0601,-0.1576 -0.0697,-0.2178 -0.0962,-0.5822 -0.0012,-0.024 -0.0036,-0.0469 -0.006,-0.0674 -0.0565,-0.4498 -0.1889,-0.5076 -1.1595,-0.5076 -1.5685,0 -2.2049,0.1299 -2.822,0.5786 -0.7144,0.5197 -1.0681,1.4049 -1.0921,2.7389m21.8568 40.3495l0.0698 -40.3495m-2.9072 43.6441c1.8968,-0.077 2.8338,-1.1656 2.8374,-3.2946"/>
 </g>
</svg>
