<?xml version="1.0" encoding="UTF-8"?>
<!DOCTYPE svg PUBLIC "-//W3C//DTD SVG 1.1//EN" "http://www.w3.org/Graphics/SVG/1.1/DTD/svg11.dtd">
<!-- Creator: CorelDRAW X8 -->
<svg xmlns="http://www.w3.org/2000/svg" xml:space="preserve" width="40mm" height="60mm" version="1.1" style="shape-rendering:geometricPrecision; text-rendering:geometricPrecision; image-rendering:optimizeQuality; fill-rule:evenodd; clip-rule:evenodd"
viewBox="0 0 4000 6000"
 xmlns:xlink="http://www.w3.org/1999/xlink">
 <defs>
  <style type="text/css">
   <![CDATA[
    .str0 {stroke:black;stroke-width:7.62}
    .fil0 {fill:none}
   ]]>
  </style>
 </defs>
 <g id="图层_x0020_1">
  <metadata id="CorelCorpID_0Corel-Layer"/>
  <path class="fil0 str0" d="M950 5350l1899 0c150,0 273,-123 273,-273l0 -4154c0,-150 -123,-273 -273,-273l-188 0c-13,0 -20,3 -20,18l0 5c0,31 -26,56 -57,56l0 0c-32,0 -57,-25 -57,-56l0 -4c0,-13 -9,-19 -20,-19l-1356 0c-150,0 -273,123 -273,273l0 4154c0,150 123,273 273,273l281 0"/>
 </g>
</svg>
