<?xml version="1.0" encoding="UTF-8"?>
<!DOCTYPE svg PUBLIC "-//W3C//DTD SVG 1.1//EN" "http://www.w3.org/Graphics/SVG/1.1/DTD/svg11.dtd">
<!-- Creator: CorelDRAW X8 -->
<svg xmlns="http://www.w3.org/2000/svg" xml:space="preserve" width="40mm" height="60mm" version="1.1" style="shape-rendering:geometricPrecision; text-rendering:geometricPrecision; image-rendering:optimizeQuality; fill-rule:evenodd; clip-rule:evenodd"
viewBox="0 0 4000 6000"
 xmlns:xlink="http://www.w3.org/1999/xlink">
 <defs>
  <style type="text/css">
   <![CDATA[
    .str0 {stroke:black;stroke-width:7.62}
    .fil0 {fill:none}
   ]]>
  </style>
 </defs>
 <g id="图层_x0020_1">
  <metadata id="CorelCorpID_0Corel-Layer"/>
  <path class="fil0 str0" d="M730 985c-49,13 -85,31 -85,116l0 71c0,97 80,178 178,178l0 0c97,0 178,-81 178,-178l0 -267c0,-97 -81,-178 -178,-178l0 0c-98,0 -178,81 -178,178l0 196m11 4219l2608 0c100,0 181,-81 181,-181l0 -4308c0,-100 -81,-181 -181,-181l-2528 0c-100,0 -181,81 -181,181l0 4308c0,100 81,181 181,181l98 0c70,0 118,11 143,30"/>
 </g>
</svg>
