<?xml version="1.0" encoding="UTF-8"?>
<!DOCTYPE svg PUBLIC "-//W3C//DTD SVG 1.1//EN" "http://www.w3.org/Graphics/SVG/1.1/DTD/svg11.dtd">
<!-- Creator: CorelDRAW X8 -->
<svg xmlns="http://www.w3.org/2000/svg" xml:space="preserve" width="40mm" height="60mm" version="1.1" style="shape-rendering:geometricPrecision; text-rendering:geometricPrecision; image-rendering:optimizeQuality; fill-rule:evenodd; clip-rule:evenodd"
viewBox="0 0 4000 6000"
 xmlns:xlink="http://www.w3.org/1999/xlink">
 <defs>
  <style type="text/css">
   <![CDATA[
    .str0 {stroke:#332C2B;stroke-width:7.62}
    .fil0 {fill:none;fill-rule:nonzero}
   ]]>
  </style>
 </defs>
 <g id="Layer_x0020_1">
  <metadata id="CorelCorpID_0Corel-Layer"/>
  <path class="fil0 str0" d="M837 1013c0,65 -53,118 -119,118 -65,0 -118,-53 -118,-118 0,-66 53,-119 118,-119 66,0 119,53 119,119zm2565 1c0,65 -53,118 -118,118 -66,0 -119,-53 -119,-118 0,-66 53,-119 119,-119 65,0 118,53 118,119zm0 3972c0,66 -53,119 -118,119 -66,0 -119,-53 -119,-119 0,-65 53,-118 119,-118 65,0 118,53 118,118zm-2802 1c0,-65 53,-118 118,-118 66,0 119,53 119,118 0,66 -53,119 -119,119 -65,0 -118,-53 -118,-119zm-53 -4336c-49,1 -96,7 -134,42 -38,34 -52,87 -55,136 -3,44 -1,337 -1,337 0,0 0,1 1,1l101 0c6,0 9,3 12,8 2,2 3,6 3,9l2 1816 -2 1816c0,3 -1,7 -3,9 -3,5 -6,8 -12,8l-101 0c-1,0 -1,1 -1,1 0,0 -2,293 1,337 3,49 17,102 55,136 38,35 85,41 134,42 16,1 261,1 601,1 838,0 2258,-1 2282,-1 54,0 116,-1 158,-39 43,-38 53,-97 55,-151 0,-32 1,-1096 1,-2159 0,-1063 -1,-2127 -1,-2159 -2,-54 -12,-113 -55,-151 -42,-38 -104,-39 -158,-39 -24,0 -1444,-1 -2282,-1 -340,0 -585,0 -601,1z"/>
 </g>
</svg>
