<?xml version="1.0" encoding="UTF-8"?>
<!DOCTYPE svg PUBLIC "-//W3C//DTD SVG 1.1//EN" "http://www.w3.org/Graphics/SVG/1.1/DTD/svg11.dtd">
<!-- Creator: CorelDRAW X8 -->
<svg xmlns="http://www.w3.org/2000/svg" xml:space="preserve" width="40mm" height="60mm" version="1.1" style="shape-rendering:geometricPrecision; text-rendering:geometricPrecision; image-rendering:optimizeQuality; fill-rule:evenodd; clip-rule:evenodd"
viewBox="0 0 4000 6000"
 xmlns:xlink="http://www.w3.org/1999/xlink">
 <defs>
  <style type="text/css">
   <![CDATA[
    .str0 {stroke:black;stroke-width:7.62;stroke-linejoin:bevel}
    .fil0 {fill:none}
   ]]>
  </style>
 </defs>
 <g id="图层_x0020_1">
  <metadata id="CorelCorpID_0Corel-Layer"/>
  <path class="fil0 str0" d="M2845 696c0,-14 7,-28 18,-36 11,-9 25,-12 39,-9 95,24 161,110 161,207l0 4279c0,56 -23,111 -62,151 -40,39 -95,62 -151,62l-1700 0c-56,0 -110,-22 -150,-62 -40,-40 -63,-95 -63,-151l0 -4279c0,-97 66,-183 161,-207 14,-3 28,0 39,9 11,8 18,22 18,36l0 49c0,25 10,48 27,65 17,17 40,27 64,27l1508 0c24,0 47,-10 64,-27 17,-17 27,-40 27,-65l0 -49z"/>
 </g>
</svg>
