<?xml version="1.0" encoding="UTF-8"?>
<!DOCTYPE svg PUBLIC "-//W3C//DTD SVG 1.1//EN" "http://www.w3.org/Graphics/SVG/1.1/DTD/svg11.dtd">
<!-- Creator: CorelDRAW -->
<svg xmlns="http://www.w3.org/2000/svg" xml:space="preserve" width="40mm" height="60mm" style="shape-rendering:geometricPrecision; text-rendering:geometricPrecision; image-rendering:optimizeQuality; fill-rule:evenodd; clip-rule:evenodd"
viewBox="0 0 40 60"
 xmlns:xlink="http://www.w3.org/1999/xlink">
 <defs>
  <style type="text/css">
   <![CDATA[
    .str0 {stroke:#1F1A17;stroke-width:0.194}
    .fil0 {fill:none;fill-rule:nonzero}
   ]]>
  </style>
 </defs>
 <g id="图层_x0020_1">
  <metadata id="CorelCorpID_0Corel-Layer"/>
  <line class="fil0 str0" x1="18.5676" y1="5.6174" x2="19.7383" y2= "5.6193" />
  <path class="fil0 str0" d="M19.7383 5.6193c0.9329,0 1.1328,0.0079 1.2882,0.0523 0.0876,0.0261 0.1359,0.064 0.1607,0.1254 0.0183,0.0484 0.0222,0.0967 0.0222,0.2456"/>
  <line class="fil0 str0" x1="21.2094" y1="6.0426" x2="21.2094" y2= "6.0805" />
  <path class="fil0 str0" d="M21.2094 6.0805c0,0.1398 -0.0052,0.1856 -0.0248,0.23 -0.0261,0.0588 -0.0797,0.0941 -0.1751,0.1189 -0.1698,0.0418 -0.3867,0.0497 -1.4019,0.0497"/>
  <line class="fil0 str0" x1="19.6076" y1="6.4791" x2="19.5553" y2= "6.4791" />
  <path class="fil0 str0" d="M19.5553 6.4791c-1.7272,0 -2.5256,-0.0079 -3.022,-0.0288 -0.4966,-0.0209 -0.6978,-0.0549 -0.7644,-0.1294 -0.0392,-0.0431 -0.064,-0.1567 -0.064,-0.2887 0,-0.3319 0.0888,-0.4207 0.4285,-0.4325"/>
  <line class="fil0 str0" x1="16.1334" y1="5.5997" x2="18.4905" y2= "5.6154" />
  <path class="fil0 str0" d="M18.4905 5.6154c0.1058,0.0013 0.1816,0.0063 0.3083,0.0024"/>
  <path class="fil0 str0" d="M28.5223 52c-7.2188,-0.0301 -12.8083,-0.0588 -20.0271,-0.0889 -0.5122,-0.0157 -0.729,-0.094 -0.9838,-0.3567 -0.2901,-0.2979 -0.5096,-0.8545 -0.5292,-1.3327"/>
  <line class="fil0 str0" x1="6.9822" y1="50.2217" x2="6.8241" y2= "6.9795" />
  <path class="fil0 str0" d="M6.8241 6.9795c0.0484,-1.2909 0.5475,-1.9142 1.5836,-1.9795"/>
  <line class="fil0 str0" x1="8.4077" y1="5" x2="11.7839" y2= "5.0065" />
  <path class="fil0 str0" d="M11.7839 5.0065c9.5679,0.0183 7.1757,0.0105 16.7436,0.0536 0.7801,0.0457 1.3419,0.5174 1.4555,1.2242 0.0131,0.0824 0.017,0.1973 0.017,0.588"/>
  <polyline class="fil0 str0" points="30,6.8723 29.9726,50.6555 29.9817,50.9364 "/>
  <path class="fil0 str0" d="M29.9817 50.9364c0,0.5436 -0.6323,1.0009 -1.4633,1.0597"/>
  <line class="fil0 str0" x1="28.5184" y1="51.9961" x2="28.05" y2= "51.998" />
 </g>
</svg>
