<?xml version="1.0" encoding="UTF-8"?>
<!DOCTYPE svg PUBLIC "-//W3C//DTD SVG 1.1//EN" "http://www.w3.org/Graphics/SVG/1.1/DTD/svg11.dtd">
<!-- Creator: CorelDRAW X8 -->
<svg xmlns="http://www.w3.org/2000/svg" xml:space="preserve" width="40mm" height="60mm" version="1.1" style="shape-rendering:geometricPrecision; text-rendering:geometricPrecision; image-rendering:optimizeQuality; fill-rule:evenodd; clip-rule:evenodd"
viewBox="0 0 4000 6000"
 xmlns:xlink="http://www.w3.org/1999/xlink">
 <defs>
  <style type="text/css">
   <![CDATA[
    .str0 {stroke:#332C2B;stroke-width:7.62}
    .fil0 {fill:none}
   ]]>
  </style>
 </defs>
 <g id="图层_x0020_1">
  <metadata id="CorelCorpID_0Corel-Layer"/>
  <path class="fil0 str0" d="M2016 704c0,-6 -5,-11 -16,-12 -38,0 -68,31 -68,68 0,38 30,68 68,68 38,0 68,-30 68,-68 0,-37 -30,-68 -68,-68m-1024 4608l1919 0c106,0 192,-86 192,-191l0 -4267c0,-106 -86,-192 -192,-192l-1790 0c-106,0 -192,86 -192,192l0 4267c0,105 86,191 192,191l144 0c53,0 84,13 123,50"/>
 </g>
</svg>
