<?xml version="1.0" encoding="UTF-8"?>
<!DOCTYPE svg PUBLIC "-//W3C//DTD SVG 1.1//EN" "http://www.w3.org/Graphics/SVG/1.1/DTD/svg11.dtd">
<!-- Creator: CorelDRAW X8 -->
<svg xmlns="http://www.w3.org/2000/svg" xml:space="preserve" width="40mm" height="60mm" version="1.1" style="shape-rendering:geometricPrecision; text-rendering:geometricPrecision; image-rendering:optimizeQuality; fill-rule:evenodd; clip-rule:evenodd"
viewBox="0 0 4000 6000"
 xmlns:xlink="http://www.w3.org/1999/xlink">
 <defs>
  <style type="text/css">
   <![CDATA[
    .str0 {stroke:#222222;stroke-width:20}
    .fil0 {fill:none}
   ]]>
  </style>
 </defs>
 <g id="图层_x0020_1">
  <metadata id="CorelCorpID_0Corel-Layer"/>
  <path class="fil0 str0" d="M-32245 -379c463,-59 922,-101 1382,-182 -512,177 -706,484 -727,1025l-5 -3c-272,-28 -415,-4 -680,23l0 5522c267,27 406,62 682,28l5 0c0,607 262,798 773,1030 -477,-82 -953,-126 -1433,-193l-12 695 6000 0 0 -357c7,-119 81,-193 200,-200l1520 0c119,7 193,81 200,200l0 357 845 0 8822 0 -20 -692 -417 47 -953 128c501,-173 713,-488 713,-1020 277,33 416,5 685,-23l0 -120 -370 0c-68,-12 -87,-35 -100,-102l0 -1058c12,-66 34,-87 100,-100l370 0 0 -837 -348 0c-127,-8 -184,-79 -200,-200l0 -660c16,-121 74,-192 200,-200l348 0 0 -448 -373 0c-68,-13 -87,-31 -100,-100l0 -235c14,-65 35,-87 100,-100l373 0 0 -530 -378 0c-357,-32 -348,-498 0,-530l378 0 0 -300c-267,-27 -405,-56 -680,-22 -31,-556 -230,-874 -770,-1035 476,69 944,134 1422,187l25 -690 -9235 0 0 345c-13,69 -31,87 -100,100l-2507 0c-69,-14 -82,-34 -100,-100l0 -345 -1033 0 0 355c-13,66 -34,88 -100,100l-1845 0c-65,-12 -86,-34 -100,-100l0 -355 -2577 0 20 695z"/>
  <path class="fil0 str0" d="M-31028 4391l0 1538c24,276 174,415 445,445l3210 0c277,-31 416,-167 448,-445l0 -1538c-31,-276 -171,-417 -448,-447l-3210 0c-271,30 -422,172 -445,447z"/>
  <path class="fil0 str0" d="M-30933 4451l0 1415c23,251 160,387 410,410l3100 0c258,-23 380,-159 410,-410l0 -1415c-30,-251 -152,-386 -410,-410l-3100 0c-250,23 -387,160 -410,410z"/>
  <path class="fil0 str0" d="M-30212 5817c-46,0 -336,-46 -336,-226 0,-179 146,-325 325,-325 180,0 325,146 325,325 0,180 -145,325 -325,325 -179,0 -325,-145 -325,-325"/>
  <path class="fil0 str0" d="M-28952 5817c-46,0 -335,-46 -335,-226 0,-179 145,-325 325,-325 179,0 325,146 325,325 0,180 -146,325 -325,325 -180,0 -325,-145 -325,-325"/>
  <path class="fil0 str0" d="M-27672 5817c-46,0 -335,-46 -335,-226 0,-179 145,-325 325,-325 179,0 325,146 325,325 0,180 -146,325 -325,325 -180,0 -325,-145 -325,-325"/>
  <path class="fil0 str0" d="M-30159 4482c0,159 -191,219 -272,219 -81,0 -147,-66 -147,-147l0 0c0,-81 66,-148 147,-148l400 0c81,0 147,67 147,148l0 0c0,81 -66,147 -147,147l-400 0"/>
  <g id="_1830861261696">
   <path class="fil0 str0" d="M2967 658c16,124 28,246 49,369 -47,-137 -129,-189 -273,-194l0 -2c8,-72 2,-110 -6,-181l-1474 0c-7,71 -16,108 -7,182l0 1c-162,0 -213,70 -275,207 22,-128 34,-255 52,-383l-186 -3 0 1601 95 0c32,2 52,22 54,54l0 405c-2,32 -22,52 -54,54l-95 0 0 225 0 2355 185 -5 -13 -112 -34 -254c46,133 130,190 272,190 -9,74 -1,111 6,183l32 0 0 -99c4,-18 10,-23 28,-26l282 0c18,3 23,9 27,26l0 99 223 0 0 -93c2,-34 21,-49 54,-53l176 0c32,4 51,20 53,53l0 93 120 0 0 -99c3,-19 8,-24 26,-27l63 0c18,3 23,9 27,27l0 99 141 0 0 -101c9,-95 133,-93 142,0l0 101 80 0c7,-71 15,-108 6,-181 148,-9 233,-62 276,-206 -19,127 -36,252 -50,380l184 6 0 -2464 -92 0c-18,-4 -23,-9 -27,-27l0 -669c4,-19 9,-22 27,-27l92 0 0 -276 -95 0c-17,-3 -23,-9 -26,-26l0 -493c3,-17 9,-23 26,-26l95 0 0 -688 -186 5z"/>
   <path class="fil0 str0" d="M1694 983l-410 0c-74,6 -111,46 -119,119l0 856c9,74 45,111 119,120l410 0c74,-8 112,-46 120,-120l0 -856c-8,-73 -46,-113 -120,-119z"/>
   <path class="fil0 str0" d="M1678 1008l-377 0c-67,6 -104,43 -110,110l0 827c7,69 43,101 110,110l377 0c67,-9 104,-41 110,-110l0 -827c-6,-67 -43,-104 -110,-110z"/>
   <path class="fil0 str0" d="M1314 1201c0,-13 12,-90 60,-90 48,0 87,39 87,87 0,48 -39,87 -87,87 -48,0 -87,-39 -87,-87 0,-48 39,-87 87,-87"/>
   <path class="fil0 str0" d="M1314 1537c0,-12 12,-90 60,-90 48,0 87,39 87,87 0,48 -39,87 -87,87 -48,0 -87,-39 -87,-87 0,-48 39,-87 87,-87"/>
   <path class="fil0 str0" d="M1314 1878c0,-12 12,-89 60,-89 48,0 87,39 87,87 0,48 -39,86 -87,86 -48,0 -87,-38 -87,-86 0,-48 39,-87 87,-87"/>
   <path class="fil0 str0" d="M1670 1215c-42,0 -58,-51 -58,-73 0,-21 17,-39 39,-39l0 0c22,0 39,18 39,39l0 107c0,22 -17,39 -39,39l0 0c-22,0 -39,-17 -39,-39l0 -107"/>
  </g>
 </g>
</svg>
