<?xml version="1.0" encoding="UTF-8"?>
<!DOCTYPE svg PUBLIC "-//W3C//DTD SVG 1.1//EN" "http://www.w3.org/Graphics/SVG/1.1/DTD/svg11.dtd">
<!-- Creator: CorelDRAW X8 -->
<svg xmlns="http://www.w3.org/2000/svg" xml:space="preserve" width="40mm" height="60mm" version="1.1" style="shape-rendering:geometricPrecision; text-rendering:geometricPrecision; image-rendering:optimizeQuality; fill-rule:evenodd; clip-rule:evenodd"
viewBox="0 0 4000 6000"
 xmlns:xlink="http://www.w3.org/1999/xlink">
 <defs>
  <style type="text/css">
   <![CDATA[
    .str0 {stroke:#332C2B;stroke-width:20}
    .fil0 {fill:none}
   ]]>
  </style>
 </defs>
 <g id="图层_x0020_1">
  <metadata id="CorelCorpID_0Corel-Layer"/>
  <path class="fil0 str0" d="M1040 650l1920 0c131,0 238,107 238,238l0 4224c0,131 -107,238 -238,238l-1920 0c-131,0 -238,-107 -238,-238l0 -4224c0,-131 107,-238 238,-238zm348 289c173,0 314,140 314,313 0,173 -141,313 -314,313 -173,0 -313,-140 -313,-313 0,-173 140,-313 313,-313zm612 4063c39,0 70,32 70,70 0,39 -31,71 -70,71 -39,0 -70,-32 -70,-71 0,-38 31,-70 70,-70z"/>
 </g>
</svg>
