<?xml version="1.0" encoding="UTF-8"?>
<!DOCTYPE svg PUBLIC "-//W3C//DTD SVG 1.1//EN" "http://www.w3.org/Graphics/SVG/1.1/DTD/svg11.dtd">
<!-- Creator: CorelDRAW X8 -->
<svg xmlns="http://www.w3.org/2000/svg" xml:space="preserve" width="40mm" height="60mm" version="1.1" style="shape-rendering:geometricPrecision; text-rendering:geometricPrecision; image-rendering:optimizeQuality; fill-rule:evenodd; clip-rule:evenodd"
viewBox="0 0 4000 6000"
 xmlns:xlink="http://www.w3.org/1999/xlink">
 <defs>
  <style type="text/css">
   <![CDATA[
    .str0 {stroke:#332C2B;stroke-width:20}
    .fil0 {fill:none}
   ]]>
  </style>
 </defs>
 <g id="图层_x0020_1">
  <metadata id="CorelCorpID_0Corel-Layer"/>
  <path class="fil0 str0" d="M538 5332l2826 0c83,0 151,-68 151,-151l0 -4381c0,-82 -68,-150 -151,-150l-2728 0c-83,0 -151,68 -151,150l0 2134c0,10 9,19 19,19l60 0c11,0 19,8 19,18l0 364c0,10 -8,18 -19,18l-60 0c-10,0 -19,9 -19,19l0 1809c0,83 68,151 151,151l31 0c39,0 65,6 77,18"/>
 </g>
</svg>
