<?xml version="1.0" encoding="UTF-8"?>
<!DOCTYPE svg PUBLIC "-//W3C//DTD SVG 1.1//EN" "http://www.w3.org/Graphics/SVG/1.1/DTD/svg11.dtd">
<!-- Creator: CorelDRAW X8 -->
<svg xmlns="http://www.w3.org/2000/svg" xml:space="preserve" width="40mm" height="60mm" version="1.1" style="shape-rendering:geometricPrecision; text-rendering:geometricPrecision; image-rendering:optimizeQuality; fill-rule:evenodd; clip-rule:evenodd"
viewBox="0 0 4000 6000"
 xmlns:xlink="http://www.w3.org/1999/xlink">
 <defs>
  <style type="text/css">
   <![CDATA[
    .str0 {stroke:black;stroke-width:7.62}
    .fil0 {fill:none}
   ]]>
  </style>
 </defs>
 <g id="图层_x0020_1">
  <metadata id="CorelCorpID_0Corel-Layer"/>
  <path class="fil0 str0" d="M903 5340l2091 0c70,0 128,-58 128,-128l0 -4435c0,-70 -58,-127 -128,-127l-759 0c-28,0 -44,14 -44,42l0 88c0,13 -11,24 -24,24l-323 0c-13,0 -24,-11 -24,-24l0 -87c0,-33 -17,-43 -32,-43 -234,1 -302,0 -782,0 -70,0 -128,57 -128,127l0 4435c0,70 58,128 128,128 19,0 39,2 56,10"/>
 </g>
</svg>
