<?xml version="1.0" encoding="UTF-8"?>
<!DOCTYPE svg PUBLIC "-//W3C//DTD SVG 1.1//EN" "http://www.w3.org/Graphics/SVG/1.1/DTD/svg11.dtd">
<!-- Creator: CorelDRAW X8 -->
<svg xmlns="http://www.w3.org/2000/svg" xml:space="preserve" width="40mm" height="60mm" version="1.1" style="shape-rendering:geometricPrecision; text-rendering:geometricPrecision; image-rendering:optimizeQuality; fill-rule:evenodd; clip-rule:evenodd"
viewBox="0 0 4000 6000"
 xmlns:xlink="http://www.w3.org/1999/xlink">
 <defs>
  <style type="text/css">
   <![CDATA[
    .str0 {stroke:black;stroke-width:7.62}
    .fil0 {fill:none}
   ]]>
  </style>
 </defs>
 <g id="图层_x0020_1">
  <metadata id="CorelCorpID_0Corel-Layer"/>
  <path class="fil0 str0" d="M1186 5350l1600 0c5,0 8,-4 8,-8l0 -186c101,-8 192,-93 192,-196l0 351c0,5 4,9 9,9l167 0c4,0 8,-4 8,-9l0 -4653c0,-4 -4,-8 -8,-8l-167 0c-5,0 -9,4 -9,8l0 373 0 0c-7,-103 -103,-185 -207,-185l0 -185c0,-5 -4,-8 -8,-8l-1558 0c-5,0 -9,3 -9,8l0 185c-101,3 -184,84 -190,185l0 0 0 -373c0,-4 -4,-8 -9,-8l-167 0c-4,0 -8,4 -8,8l0 4653c0,5 4,9 8,9l167 0c5,0 9,-4 9,-9l0 -351c0,107 86,194 192,197l0 185c0,4 3,8 8,8l24 0m131 -3857c-1,-9 -8,-16 -23,-17 -53,0 -97,43 -97,96 0,54 44,97 97,97 53,0 97,-43 97,-97 0,-53 -44,-96 -97,-96m-460 1346c-14,4 -25,11 -25,45l0 29c0,15 12,27 28,27l0 0c15,0 27,-12 27,-27l0 -242c0,-16 -12,-28 -27,-28l0 0c-16,0 -28,12 -28,28l0 213m777 -953c-10,3 -17,6 -17,22l0 14c0,19 16,35 35,35l0 0c19,0 34,-16 34,-35l0 -116c0,-19 -15,-34 -34,-34l0 0c-19,0 -35,15 -35,34l0 102m-733 418c-13,4 -24,12 -24,45l0 29c0,15 12,28 27,28l0 0c16,0 28,-13 28,-28l0 -521c0,-15 -12,-28 -28,-28l0 0c-15,0 -27,13 -27,28l0 492m765 -906c0,-9 -8,-16 -23,-17 -53,0 -96,43 -96,96 0,54 43,97 96,97 54,0 97,-43 97,-97 0,-53 -43,-96 -97,-96m-92 -377c-1,-13 -13,-26 -37,-28 -88,0 -159,72 -159,159 0,88 71,159 159,159 87,0 159,-71 159,-159 0,-87 -72,-159 -159,-159m-202 -65l400 0c39,0 71,32 71,71l0 904c0,39 -32,72 -71,72l-400 0c-39,0 -72,-33 -72,-72l0 -904c0,-39 33,-71 72,-71zm-31 -44l461 0c46,0 83,37 83,83l0 969c0,46 -37,83 -83,83l-461 0c-45,0 -82,-37 -82,-83l0 -969c0,-46 37,-83 82,-83zm167 -285c-1,-2 -3,-4 -7,-5 -15,0 -27,13 -27,28 0,15 12,28 27,28 15,0 28,-13 28,-28 0,-15 -13,-28 -28,-28m852 4558c0,-2 -2,-4 -5,-4 -14,0 -25,11 -25,25 0,13 11,24 25,24 13,0 24,-11 24,-24 0,-14 -11,-25 -24,-25m-872 19c-4,-13 -11,-24 -45,-24l-29 0c-15,0 -28,12 -28,27l0 0c0,16 13,28 28,28l317 0c15,0 27,-12 27,-28l0 0c0,-15 -12,-27 -27,-27l-288 0m638 -7c-3,-13 -8,-22 -29,-22l-17 0c-25,0 -44,20 -44,44l0 0c0,25 19,45 44,45l159 0c25,0 45,-20 45,-45l0 0c0,-24 -20,-44 -45,-44l-142 0m439 38c-3,-12 -7,-20 -27,-20l-16 0c-23,0 -42,18 -42,41l0 0c0,23 19,42 42,42l365 0c23,0 41,-19 41,-42l0 0c0,-23 -18,-41 -41,-41l-349 0"/>
 </g>
</svg>
