<?xml version="1.0" encoding="UTF-8"?>
<!DOCTYPE svg PUBLIC "-//W3C//DTD SVG 1.1//EN" "http://www.w3.org/Graphics/SVG/1.1/DTD/svg11.dtd">
<!-- Creator: CorelDRAW 2020 (64-Bit) -->
<svg xmlns="http://www.w3.org/2000/svg" xml:space="preserve" width="40mm" height="60mm" version="1.1" style="shape-rendering:geometricPrecision; text-rendering:geometricPrecision; image-rendering:optimizeQuality; fill-rule:evenodd; clip-rule:evenodd"
viewBox="0 0 4000 6000"
 xmlns:xlink="http://www.w3.org/1999/xlink"
 xmlns:xodm="http://www.corel.com/coreldraw/odm/2003">
 <defs>
  <style type="text/css">
   <![CDATA[
    .str1 {stroke:#332C2B;stroke-width:20;stroke-miterlimit:22.9256}
    .str0 {stroke:#E62129;stroke-width:20;stroke-miterlimit:22.9256}
    .fil0 {fill:none}
   ]]>
  </style>
   <clipPath id="id0">
    <rect x="-30575" y="-1314.62" width="4856.42" height="5014.78"/>
   </clipPath>
 </defs>
 <g id="图层_x0020_1">
  <metadata id="CorelCorpID_0Corel-Layer"/>
  <g style="clip-path:url(#id0)">
   <image x="-30575" y="-1314.62" width="4856.42" height="5014.78" xlink:href="Watch D Sharp -11i_Images\Watch D Sharp -11i_ImgID1.png"/>
  </g>
  <rect class="fil0 str0" x="-30281.05" y="-1210.25" width="3840" height="4635.85"/>
  <rect class="fil0 str0" x="-30121.97" y="-1040.91" width="3521.84" height="4285.31" rx="820" ry="991.64"/>
  <path class="fil0 str1" d="M-15258.56 6240.46l0 -2403.08c0,-450.99 -369,-820 -819.99,-820l-2645.31 0c-451,0 -820,369 -820,820l0 1881.84c0,451 369,820 820,820l2645.31 0c451,0 819.99,-369 819.99,-820 0,-451 47.65,-788.71 109.83,-932.91"/>
  <path class="fil0 str1" d="M-15258.56 1784.87l0 -2403.08c0,-450.99 -369,-820 -819.99,-820l-2645.31 0c-451,0 -820,369 -820,820l0 1881.84c0,451 369,820 820,820l2645.31 0c451,0 819.99,-369 819.99,-820 0,-451 47.65,-788.71 109.83,-932.91"/>
  <path class="fil0 str1" d="M-10570.13 6240.46l0 -2403.08c0,-450.99 -369,-820 -819.99,-820l-2645.31 0c-451,0 -820,369 -820,820l0 1881.84c0,451 369,820 820,820l2645.31 0c451,0 819.99,-369 819.99,-820 0,-451 47.65,-788.71 109.83,-932.91"/>
  <path class="fil0 str1" d="M-5881.7 6240.46l0 -2403.08c0,-450.99 -369,-820 -819.99,-820l-2645.31 0c-451,0 -820,369 -820,820l0 1881.84c0,451 369,820 820,820l2645.31 0c451,0 819.99,-369 819.99,-820 0,-451 47.65,-788.71 109.83,-932.91"/>
  <path class="fil0 str1" d="M-10570.13 1784.87l0 -2403.08c0,-450.99 -369,-820 -819.99,-820l-2645.31 0c-451,0 -820,369 -820,820l0 1881.84c0,451 369,820 820,820l2645.31 0c451,0 819.99,-369 819.99,-820 0,-451 47.65,-788.71 109.83,-932.91"/>
  <path class="fil0 str1" d="M-5881.7 1784.87l0 -2403.08c0,-450.99 -369,-820 -819.99,-820l-2645.31 0c-451,0 -820,369 -820,820l0 1881.84c0,451 369,820 820,820l2645.31 0c451,0 819.99,-369 819.99,-820 0,-451 47.65,-788.71 109.83,-932.91"/>
  <g id="_2932626980128">
   <path class="fil0 str1" d="M733.59 2112.99l820.1 0c153.91,0 279.85,-125.93 279.85,-279.84l0 -902.77c0,-153.92 -125.93,-279.85 -279.85,-279.85l-642.22 0c-153.91,0 -279.84,125.93 -279.84,279.85l0 902.77c0,153.91 125.93,279.84 279.84,279.84 153.92,0 269.17,16.26 318.38,37.48"/>
   <path class="fil0 str1" d="M2254.16 2112.99l820.1 0c153.92,0 279.85,-125.93 279.85,-279.84l0 -902.77c0,-153.92 -125.93,-279.85 -279.85,-279.85l-642.22 0c-153.91,0 -279.84,125.93 -279.84,279.85l0 902.77c0,153.91 125.93,279.84 279.84,279.84 153.92,0 269.17,16.26 318.38,37.48"/>
   <path class="fil0 str1" d="M733.59 3713.02l820.1 0c153.91,0 279.85,-125.93 279.85,-279.84l0 -902.77c0,-153.92 -125.93,-279.85 -279.85,-279.85l-642.22 0c-153.91,0 -279.84,125.93 -279.84,279.85l0 902.77c0,153.91 125.93,279.84 279.84,279.84 153.92,0 269.17,16.26 318.38,37.48"/>
   <path class="fil0 str1" d="M733.59 5313.05l820.1 0c153.91,0 279.85,-125.93 279.85,-279.84l0 -902.77c0,-153.92 -125.93,-279.84 -279.85,-279.84l-642.22 0c-153.91,0 -279.84,125.92 -279.84,279.84l0 902.77c0,153.91 125.93,279.84 279.84,279.84 153.92,0 269.17,16.26 318.38,37.48"/>
   <path class="fil0 str1" d="M2254.16 3713.02l820.1 0c153.92,0 279.85,-125.93 279.85,-279.84l0 -902.77c0,-153.92 -125.93,-279.85 -279.85,-279.85l-642.22 0c-153.91,0 -279.84,125.93 -279.84,279.85l0 902.77c0,153.91 125.93,279.84 279.84,279.84 153.92,0 269.17,16.26 318.38,37.48"/>
   <path class="fil0 str1" d="M2254.16 5313.05l820.1 0c153.92,0 279.85,-125.93 279.85,-279.84l0 -902.77c0,-153.92 -125.93,-279.84 -279.85,-279.84l-642.22 0c-153.91,0 -279.84,125.92 -279.84,279.84l0 902.77c0,153.91 125.93,279.84 279.84,279.84 153.92,0 269.17,16.26 318.38,37.48"/>
  </g>
 </g>
</svg>
