<?xml version="1.0" encoding="UTF-8"?>
<!DOCTYPE svg PUBLIC "-//W3C//DTD SVG 1.1//EN" "http://www.w3.org/Graphics/SVG/1.1/DTD/svg11.dtd">
<!-- Creator: CorelDRAW -->
<svg xmlns="http://www.w3.org/2000/svg" xml:space="preserve" width="40mm" height="60mm" style="shape-rendering:geometricPrecision; text-rendering:geometricPrecision; image-rendering:optimizeQuality; fill-rule:evenodd; clip-rule:evenodd"
viewBox="0 0 40 60"
 xmlns:xlink="http://www.w3.org/1999/xlink">
 <defs>
  <style type="text/css">
   <![CDATA[
    .str0 {stroke:#1F1A17;stroke-width:0.194}
    .fil0 {fill:none;fill-rule:nonzero}
   ]]>
  </style>
 </defs>
 <g id="图层_x0020_1">
  <metadata id="CorelCorpID_0Corel-Layer"/>
  <g id="_273411328">
   <line id="_274509984" class="fil0 str0" x1="12.8897" y1="12.2085" x2="12.8897" y2= "12.3004" />
   <path id="_273410896" class="fil0 str0" d="M12.8897 12.3004c-0.0589,-0.0159 -0.0929,-0.0549 -0.0929,-0.1059 -0.5697,-0.03 -1.0985,-0.6637 -1.0985,-1.3183 0,-0.7536 0.6087,-1.3663 1.3553,-1.3663 0.7496,0 1.3623,0.6117 1.3623,1.3593 0,0.7466 -0.5997,1.3653 -1.3223,1.3653 -0.1089,0 -0.1499,-0.005 -0.4098,-0.055"/>
   <path id="_273981944" class="fil0 str0" d="M15.7222 12.2085c-0.7356,-0.102 -1.2273,-0.6437 -1.2273,-1.3523 0,-0.7516 0.6086,-1.3623 1.3592,-1.3623 0.7546,0 1.3653,0.6087 1.3653,1.3593 0,0.7516 -0.6047,1.3633 -1.3493,1.3633 -0.0939,0 -0.1329,-0.004 -0.3458,-0.037"/>
   <path id="_273981344" class="fil0 str0" d="M18.2509 11.5348c-0.4258,-0.0579 -0.6597,-0.2938 -0.6597,-0.6626 0,-0.3638 0.2919,-0.6566 0.6557,-0.6566 0.3658,0 0.6586,0.2928 0.6586,0.6586 0,0.3628 -0.2878,0.6526 -0.6476,0.6526 -0.051,0 -0.074,-0.0019 -0.2339,-0.0199"/>
   <line id="_274509768" class="fil0 str0" x1="30.3764" y1="30.022" x2="30.2845" y2= "30.007" />
   <path id="_274499904" class="fil0 str0" d="M30.2845 30.007c0.0189,-0.062 0.0439,-0.085 0.0919,-0.085"/>
   <line id="_274506720" class="fil0 str0" x1="30.3764" y1="29.922" x2="30.3694" y2= "10.0756" />
   <path id="_273412120" class="fil0 str0" d="M30.3694 10.0756c-0.1089,-0.9974 -0.9495,-1.849 -1.9619,-1.9869"/>
   <line id="_46849696" class="fil0 str0" x1="28.4075" y1="8.0887" x2="12.0052" y2= "8.0447" />
   <path id="_273410584" class="fil0 str0" d="M12.0052 8.0447c-0.8855,0.035 -1.6141,0.4138 -2.012,1.0455 -0.2168,0.3448 -0.3708,0.7775 -0.3777,1.0624"/>
   <line id="_273410392" class="fil0 str0" x1="9.6155" y1="10.1526" x2="9.6175" y2= "49.9444" />
   <path id="_274509600" class="fil0 str0" d="M9.6175 49.9444c0.0879,0.9714 0.9634,1.86 1.9689,1.9969"/>
   <polyline id="_274509024" class="fil0 str0" points="11.5864,51.9413 11.9712,51.9553 28.2315,51.9373 "/>
   <path id="_274509408" class="fil0 str0" d="M28.2315 51.9373c0.032,0.002 0.063,0.002 0.092,0.002 0.2139,0 0.3888,-0.0439 0.6676,-0.1689 0.8516,-0.3818 1.3793,-1.1534 1.3793,-2.0189"/>
   <polyline id="_274509312" class="fil0 str0" points="30.3704,49.7515 30.3774,29.979 30.3804,29.8641 30.3824,29.8241 30.3844,29.8021 "/>
  </g>
 </g>
</svg>
