<?xml version="1.0" encoding="UTF-8"?>
<!DOCTYPE svg PUBLIC "-//W3C//DTD SVG 1.1//EN" "http://www.w3.org/Graphics/SVG/1.1/DTD/svg11.dtd">
<!-- Creator: CorelDRAW -->
<svg xmlns="http://www.w3.org/2000/svg" xml:space="preserve" width="40mm" height="60mm" style="shape-rendering:geometricPrecision; text-rendering:geometricPrecision; image-rendering:optimizeQuality; fill-rule:evenodd; clip-rule:evenodd"
viewBox="0 0 40 60"
 xmlns:xlink="http://www.w3.org/1999/xlink">
 <defs>
  <style type="text/css">
   <![CDATA[
    .str0 {stroke:#1F1A17;stroke-width:0.194}
    .fil0 {fill:none;fill-rule:nonzero}
    .fil1 {fill:#1F1A17;fill-rule:nonzero}
   ]]>
  </style>
 </defs>
 <g id="图层_x0020_1">
  <metadata id="CorelCorpID_0Corel-Layer"/>
  <g id="_247917952">
   <line id="_248366376" class="fil0 str0" x1="20.8443" y1="10.4119" x2="20.8443" y2= "10.4993" />
   <line id="_248366328" class="fil0 str0" x1="20.7568" y1="10.4119" x2="20.2999" y2= "10.4129" />
   <path id="_248579240" class="fil0 str0" d="M20.2999 10.4129c-0.3365,0.001 -0.459,-0.0041 -0.5536,-0.0237 -0.0937,-0.0206 -0.1482,-0.0514 -0.246,-0.143 -0.1183,-0.1112 -0.1873,-0.2799 -0.1873,-0.4569 0,-0.178 0.069,-0.3458 0.1873,-0.4569 0.1122,-0.106 0.1677,-0.1338 0.3015,-0.1534 0.1338,-0.0195 0.3015,-0.0247 0.9118,-0.0247"/>
   <line id="_248578904" class="fil0 str0" x1="20.7136" y1="9.1543" x2="20.7424" y2= "9.1543" />
   <path id="_248579288" class="fil0 str0" d="M20.7424 9.1543c0.7851,0 0.956,0.0041 1.1062,0.0216 0.0854,0.0114 0.1431,0.0268 0.1914,0.0525 0.037,0.0196 0.0617,0.0391 0.1276,0.1009"/>
   <line id="_248578928" class="fil0 str0" x1="22.1676" y1="9.3293" x2="22.1717" y2= "9.3324" />
   <path id="_248579528" class="fil0 str0" d="M22.1717 9.3324c0.1173,0.1091 0.1811,0.2686 0.1811,0.4517 0,0.354 -0.212,0.5917 -0.5556,0.6226 -0.0659,0.0062 -0.2347,0.0093 -0.4569,0.0093 -0.2532,0 -0.5413,-0.0041 -0.7585,-0.0114"/>
   <line id="_248578856" class="fil0 str0" x1="16.2279" y1="8.859" x2="16.1404" y2= "8.8508" />
   <path id="_248579432" class="fil0 str0" d="M16.2207 8.9382c-0.0504,0.3386 -0.3097,0.565 -0.6452,0.565 -0.4415,0 -0.6617,-0.2182 -0.6617,-0.6545 0,-0.3653 0.2984,-0.6648 0.6617,-0.6637 0.3633,0 0.6524,0.2902 0.6524,0.6524"/>
   <line id="_248579480" class="fil0 str0" x1="16.2279" y1="8.8374" x2="16.2279" y2= "8.8466" />
   <path id="_248579024" class="fil0 str0" d="M16.2279 8.8466c0,0.0299 0,0.0299 -0.0165,0.1781"/>
   <line id="_248579192" class="fil0 str0" x1="16.2114" y1="9.0247" x2="16.2063" y2= "9.07" />
   <path id="_248580224" class="fil0 str0" d="M18.569 8.8806c-0.035,0.3921 -0.2778,0.6349 -0.6339,0.6349 -0.3519,0 -0.6328,-0.2809 -0.6328,-0.6338 0,-0.3551 0.2778,-0.6319 0.6328,-0.6319 0.3571,0 0.6288,0.2706 0.6288,0.6257 0,0.0473 -0.0031,0.0916 -0.0165,0.2089"/>
   <line id="_248439744" class="fil0 str0" x1="18.9559" y1="51.9424" x2="18.8901" y2= "51.9424" />
   <path id="_248369568" class="fil0 str0" d="M18.8901 51.9424c-0.1153,-0.2738 -0.1307,-0.3005 -0.4158,-0.7502"/>
   <line id="_247916872" class="fil0 str0" x1="18.4743" y1="51.1922" x2="18.3385" y2= "50.9637" />
   <path id="_248368920" class="fil0 str0" d="M18.3385 50.9637c-0.1276,-0.2428 -0.1904,-0.5114 -0.1914,-0.8057 0,-1.3038 1.0085,-2.3802 2.2279,-2.3802 1.274,0 2.2824,1.0362 2.2824,2.3452"/>
   <line id="_248369520" class="fil0 str0" x1="22.6574" y1="50.123" x2="22.6574" y2= "50.1899" />
   <path id="_248369664" class="fil0 str0" d="M22.6574 50.1899c0.0011,0.4209 0.0011,0.4209 -0.639,1.664"/>
   <line id="_248369736" class="fil0 str0" x1="22.0184" y1="51.8539" x2="21.9165" y2= "52.0525" />
   <path id="_247918072" class="fil0 str0" d="M21.9165 52.0525c0.0175,0.0051 0.0329,0.0082 0.0474,0.0082 0.0061,0 0.0154,-0.001 0.0257,-0.001"/>
   <polyline id="_248365848" class="fil0 str0" points="21.9896,52.0597 22.0256,52.0298 22.0987,52.0885 "/>
   <path id="_247916800" class="fil0 str0" d="M22.0987 52.0885c0.0061,-0.0103 0.0102,-0.0185 0.0143,-0.0216"/>
   <polyline id="_247916680" class="fil0 str0" points="22.113,52.0669 22.113,52.0443 22.113,52.0597 22.1933,52.0813 22.1933,52.0525 "/>
   <path id="_248210512" class="fil1" d="M12.4135 7.8112l15.173 0c0.5358,0 1.0231,0.2192 1.3761,0.5722 0.353,0.353 0.5722,0.8403 0.5722,1.3761l0 40.4811c0,0.5358 -0.2192,1.0231 -0.5722,1.3761 -0.353,0.353 -0.8403,0.5722 -1.3761,0.5722l-5.7195 0 0 -0.2 5.7195 0c0.4807,0 0.9179,-0.1968 1.2347,-0.5136 0.3168,-0.3168 0.5136,-0.754 0.5136,-1.2347l0 -40.4811c0,-0.4807 -0.1968,-0.9179 -0.5136,-1.2347 -0.3168,-0.3168 -0.754,-0.5136 -1.2347,-0.5136l-15.173 0c-0.4807,0 -0.9179,0.1968 -1.2347,0.5136 -0.3168,0.3168 -0.5136,0.754 -0.5136,1.2347l0 40.4811c0,0.4807 0.1968,0.9179 0.5136,1.2347 0.3168,0.3168 0.754,0.5136 1.2347,0.5136l6.5129 0 0 0.2 -6.5129 0c-0.5358,0 -1.0231,-0.2192 -1.3761,-0.5722 -0.353,-0.353 -0.5722,-0.8403 -0.5722,-1.3761l0 -40.4811c0,-0.5358 0.2192,-1.0231 0.5722,-1.3761 0.353,-0.353 0.8403,-0.5722 1.3761,-0.5722z"/>
  </g>
 </g>
</svg>
