<?xml version="1.0" encoding="UTF-8"?>
<!DOCTYPE svg PUBLIC "-//W3C//DTD SVG 1.1//EN" "http://www.w3.org/Graphics/SVG/1.1/DTD/svg11.dtd">
<!-- Creator: CorelDRAW 2020 (64-Bit) -->
<svg xmlns="http://www.w3.org/2000/svg" xml:space="preserve" width="40mm" height="60mm" version="1.1" style="shape-rendering:geometricPrecision; text-rendering:geometricPrecision; image-rendering:optimizeQuality; fill-rule:evenodd; clip-rule:evenodd"
viewBox="0 0 4000 6000"
 xmlns:xlink="http://www.w3.org/1999/xlink"
 xmlns:xodm="http://www.corel.com/coreldraw/odm/2003">
 <defs>
  <style type="text/css">
   <![CDATA[
    .str0 {stroke:black;stroke-width:7.62;stroke-miterlimit:22.9256}
    .fil0 {fill:none}
   ]]>
  </style>
 </defs>
 <g id="图层_x0020_1">
  <metadata id="CorelCorpID_0Corel-Layer"/>
  <path class="fil0 str0" d="M2018.95 721.91c2.46,-15.83 -10.85,-26.93 -17.46,-27.44 -23.49,0 -42.54,19.05 -42.54,42.55 0,23.5 19.05,42.55 42.54,42.55 23.5,0 42.55,-19.05 42.55,-42.55 0,-23.5 -19.05,-42.55 -42.55,-42.55m-1397.19 4641.48l2679.65 0c69.13,0 125.69,-56.56 125.69,-125.68l0 -4428.91c0,-69.13 -56.56,-125.69 -125.69,-125.69l-2581.1 0c-69.13,0 -125.69,56.56 -125.69,125.69l0 4428.91c0,69.12 56.56,125.68 125.69,125.68l37.75 0c42.36,0 68.22,6.58 72.97,19.72"/>
 </g>
</svg>
