<?xml version="1.0" encoding="UTF-8"?>
<!DOCTYPE svg PUBLIC "-//W3C//DTD SVG 1.1//EN" "http://www.w3.org/Graphics/SVG/1.1/DTD/svg11.dtd">
<!-- Creator: CorelDRAW X8 -->
<svg xmlns="http://www.w3.org/2000/svg" xml:space="preserve" width="40mm" height="60mm" version="1.1" style="shape-rendering:geometricPrecision; text-rendering:geometricPrecision; image-rendering:optimizeQuality; fill-rule:evenodd; clip-rule:evenodd"
viewBox="0 0 4000 6000"
 xmlns:xlink="http://www.w3.org/1999/xlink">
 <defs>
  <style type="text/css">
   <![CDATA[
    .fil0 {fill:#34312E;fill-rule:nonzero}
   ]]>
  </style>
 </defs>
 <g id="图层_x0020_1">
  <metadata id="CorelCorpID_0Corel-Layer"/>
  <g>
   <path class="fil0" d="M781 4881l0 -3762 8 0 0 3762 0 0 -8 0zm0 441l0 -441 8 0 0 441 -4 4 -4 -4zm4 4l-4 0 0 -4 4 4zm161 0l-161 0 0 -8 161 0 4 4 -4 4zm4 -4l0 4 -4 0 4 -4zm0 -410l0 410 -8 0 0 -410 8 0zm-8 8l0 -8 8 0 0 8 0 0 -8 0zm296 271l-8 0 4 4 -15 -1 -15 -1 -14 -2 -14 -2 -14 -3 -14 -4 -14 -4 -13 -5 -13 -5 -12 -6 -12 -7 -12 -7 -12 -7 -11 -8 -10 -9 -11 -9 -9 -9 -10 -10 -8 -11 -9 -10 -7 -12 -7 -11 -7 -12 -6 -12 -5 -13 -5 -12 -4 -13 -3 -14 -3 -13 -2 -14 -1 -14 0 -15 8 0 0 14 1 14 2 13 3 13 3 13 4 13 4 13 5 12 6 11 6 12 7 11 8 11 8 10 8 10 9 10 10 9 10 9 10 8 11 8 11 8 11 7 12 6 13 6 12 5 13 5 13 4 14 3 13 3 14 3 14 1 14 1 15 1 4 4zm-4 -4l4 0 0 4 -4 -4zm-4 163l0 -159 8 0 0 159 -4 4 -4 -4zm4 4l-4 0 0 -4 4 4zm1532 0l-1532 0 0 -8 1532 0 4 4 -4 4zm4 -4l0 4 -4 0 4 -4zm0 -159l0 159 -8 0 0 -159 4 -4 4 4zm-8 0l0 -4 4 0 -4 4zm288 -271l8 0 0 0 0 15 -1 14 -2 14 -3 13 -3 14 -4 13 -5 12 -5 13 -6 12 -7 12 -7 11 -7 12 -9 10 -8 11 -10 10 -9 9 -11 9 -10 9 -11 8 -12 7 -12 7 -12 7 -12 6 -13 5 -13 5 -14 4 -14 4 -14 3 -14 2 -14 2 -15 1 -15 1 0 -8 15 -1 14 -1 14 -1 14 -3 13 -3 14 -3 13 -4 13 -5 12 -5 13 -6 12 -6 11 -7 11 -8 11 -8 10 -8 10 -9 10 -9 9 -10 8 -10 8 -10 8 -11 7 -11 6 -12 6 -11 5 -12 4 -13 4 -13 3 -13 3 -13 2 -13 1 -14 0 -14 0 0zm8 -8l0 8 -8 0 0 -8 8 0zm-8 410l0 -410 8 0 0 410 -4 4 -4 -4zm4 4l-4 0 0 -4 4 4zm161 0l-161 0 0 -8 161 0 4 4 -4 4zm4 -4l0 4 -4 0 4 -4zm0 -441l0 441 -8 0 0 -441 0 0 8 0zm0 -3762l0 3762 -8 0 0 -3762 0 0 8 0zm0 -440l0 440 -8 0 0 -440 4 -4 4 4zm-4 -4l4 0 0 4 -4 -4zm-161 0l161 0 0 7 -161 0 -4 -3 4 -4zm-4 4l0 -4 4 0 -4 4zm0 409l0 -409 8 0 0 409 -8 0zm8 -8l0 8 -8 0 0 -8 0 0 8 0zm-296 -271l8 0 -4 -4 15 1 15 1 14 2 14 2 14 3 14 4 14 4 13 5 13 5 12 6 12 7 12 7 12 7 11 8 10 9 11 9 9 9 10 10 8 11 9 10 7 12 7 11 7 12 6 12 5 13 5 12 4 13 3 14 3 13 2 14 1 14 0 15 -8 0 0 -14 -1 -14 -2 -13 -3 -13 -3 -13 -4 -13 -4 -13 -5 -12 -6 -11 -6 -12 -7 -11 -8 -11 -8 -10 -8 -10 -9 -10 -10 -9 -10 -9 -10 -8 -11 -8 -11 -8 -11 -7 -12 -6 -13 -6 -12 -5 -13 -5 -13 -4 -14 -3 -13 -3 -14 -3 -14 -1 -14 -1 -15 -1 -4 -4zm4 4l-4 0 0 -4 4 4zm4 -163l0 159 -8 0 0 -159 4 -4 4 4zm-4 -4l4 0 0 4 -4 -4zm-1532 0l1532 0 0 8 -1532 0 -4 -4 4 -4zm-4 4l0 -4 4 0 -4 4zm0 159l0 -159 8 0 0 159 -4 4 -4 -4zm8 0l0 4 -4 0 4 -4zm-288 271l-8 0 0 0 0 -15 1 -14 2 -14 3 -13 3 -14 4 -13 5 -12 5 -13 6 -12 7 -12 7 -11 7 -12 9 -10 8 -11 10 -10 9 -9 11 -9 10 -9 11 -8 12 -7 12 -7 12 -7 12 -6 13 -5 13 -5 14 -4 14 -4 14 -3 14 -2 14 -2 15 -1 15 -1 0 8 -15 1 -14 1 -14 1 -14 3 -13 3 -14 3 -13 4 -13 5 -12 5 -13 6 -12 6 -11 7 -11 8 -11 8 -10 8 -10 9 -10 9 -9 10 -8 10 -8 10 -8 11 -7 11 -6 12 -6 11 -5 12 -4 13 -4 13 -3 13 -3 13 -2 13 -1 14 0 14 0 0zm-8 8l0 -8 8 0 0 8 -8 0zm8 -409l0 409 -8 0 0 -409 4 -4 4 4zm-4 -4l4 0 0 4 -4 -4zm-161 0l161 0 0 7 -161 0 -4 -3 4 -4zm-4 4l0 -4 4 0 -4 4zm0 440l0 -440 8 0 0 440 0 0 -8 0zm531 1017l0 -7 0 0 8 -1 9 0 8 -1 8 -1 8 -2 7 -2 7 -3 7 -2 7 -4 7 -3 6 -4 6 -4 6 -4 6 -5 5 -5 5 -5 5 -5 5 -6 4 -6 4 -6 4 -7 3 -6 4 -7 2 -7 3 -8 2 -7 2 -8 2 -8 1 -8 1 -8 0 -8 0 -9 8 0 0 9 -1 9 0 8 -2 9 -1 8 -2 8 -3 8 -2 8 -3 7 -4 7 -3 7 -4 7 -4 7 -5 6 -5 6 -5 6 -5 5 -6 5 -6 5 -6 5 -7 4 -6 4 -7 3 -8 4 -7 3 -8 2 -8 2 -8 2 -8 2 -9 1 -8 0 -9 0 0 0zm0 -3l0 0 0 0 0 0 0 3 0 -3zm-153 -164l8 0 0 0 0 9 1 8 1 8 1 8 2 8 1 8 3 7 2 8 3 7 3 7 3 6 4 7 4 6 4 6 5 6 4 5 5 5 5 5 6 5 5 4 6 4 6 4 7 3 6 4 7 2 6 3 7 2 8 2 7 1 7 1 8 0 8 1 0 7 -8 0 -8 0 -8 -1 -8 -2 -8 -2 -7 -2 -7 -2 -7 -3 -7 -4 -7 -3 -6 -4 -6 -4 -6 -5 -6 -5 -5 -5 -6 -5 -4 -6 -5 -6 -5 -7 -4 -6 -4 -7 -3 -7 -3 -7 -3 -7 -3 -8 -2 -8 -2 -8 -2 -8 -1 -9 -1 -8 0 -9 -1 -9 0 0zm8 -847l0 847 -8 0 0 -847 0 0 8 0zm145 -167l0 8 0 0 -8 0 -8 0 -7 1 -7 2 -8 1 -7 2 -6 3 -7 3 -6 3 -7 3 -6 4 -6 4 -5 4 -6 5 -5 5 -5 5 -4 5 -5 6 -4 6 -4 6 -4 7 -3 6 -3 7 -3 7 -2 8 -3 7 -1 8 -2 8 -1 8 -1 8 -1 8 0 9 -8 0 1 -9 0 -9 1 -8 1 -9 2 -8 2 -8 2 -8 3 -7 3 -8 3 -7 3 -7 4 -7 4 -6 5 -7 5 -6 4 -5 6 -6 5 -5 6 -5 6 -4 6 -5 6 -4 7 -3 7 -4 7 -2 7 -3 7 -2 8 -2 8 -1 8 -1 8 -1 8 0 0 0zm0 4l0 0 0 0 0 0 0 -4 0 4zm160 163l-8 0 0 0 0 -9 0 -8 -1 -8 -1 -8 -2 -8 -2 -8 -2 -7 -3 -8 -2 -7 -4 -7 -3 -6 -4 -7 -4 -6 -4 -6 -5 -6 -5 -5 -5 -5 -5 -5 -6 -5 -6 -4 -6 -4 -6 -4 -7 -3 -7 -3 -7 -3 -7 -3 -7 -2 -8 -1 -8 -2 -8 -1 -9 0 -8 0 0 -8 9 0 8 1 9 1 8 1 8 2 8 2 8 3 7 2 8 4 7 3 6 4 7 4 6 5 6 5 6 5 5 6 5 5 5 6 5 7 4 6 4 7 3 7 4 7 3 8 2 7 3 8 2 8 1 8 2 9 0 8 1 9 0 9 0 0zm-8 847l0 -847 8 0 0 847 0 0 -8 0zm-598 352l0 -8 0 0 1 0 2 0 1 0 1 -1 1 0 2 0 1 -1 1 0 1 -1 1 0 2 -1 1 -1 1 -1 1 0 1 -1 1 -1 1 -1 1 -1 1 -1 1 -1 0 -1 1 -1 1 -2 0 -1 1 -1 0 -1 1 -1 0 -1 0 -1 0 -2 1 -1 0 -1 7 0 0 2 0 1 0 2 0 2 -1 1 0 2 -1 1 -1 2 0 1 -1 2 -1 1 -1 1 -1 2 -1 1 -1 1 -2 1 -1 2 -1 1 -1 1 -2 1 -1 1 -2 0 -1 1 -2 1 -1 1 -2 0 -1 1 -2 0 -2 0 -1 1 -2 0 -2 0 0 0zm-43 -34l8 0 0 0 0 1 0 1 0 2 1 1 0 1 0 1 1 1 0 1 1 1 1 1 0 2 1 1 1 1 1 1 1 1 1 1 1 0 2 1 1 1 1 1 2 1 1 0 2 1 1 1 2 0 2 1 2 0 1 0 2 1 2 0 2 0 2 0 0 8 -2 0 -2 0 -3 -1 -2 0 -2 0 -2 -1 -2 0 -2 -1 -2 -1 -2 0 -2 -1 -1 -1 -2 -1 -2 -1 -1 -1 -2 -1 -1 -2 -1 -1 -2 -1 -1 -1 -1 -2 -1 -1 -1 -2 -1 -1 0 -2 -1 -1 -1 -2 0 -1 0 -2 -1 -2 0 -1 0 -2 0 0zm8 -476l0 476 -8 0 0 -476 0 0 8 0zm35 -33l0 8 0 0 -2 0 -2 0 -2 0 -2 0 -1 0 -2 1 -2 0 -2 1 -1 0 -2 1 -1 1 -2 1 -1 0 -1 1 -2 1 -1 1 -1 1 -1 1 -1 1 -1 1 -1 1 0 1 -1 1 -1 1 0 1 -1 1 0 2 0 1 -1 1 0 1 0 1 0 1 -8 0 0 -1 0 -2 1 -2 0 -1 0 -2 1 -1 1 -2 0 -1 1 -2 1 -1 1 -2 1 -1 1 -1 2 -2 1 -1 1 -1 2 -1 1 -1 2 -1 2 -1 1 -1 2 -1 2 -1 2 -1 2 0 2 -1 2 0 2 -1 2 0 3 0 2 0 2 0 0 0zm35 33l-7 0 0 0 0 -1 -1 -1 0 -1 0 -1 0 -1 -1 -2 0 -1 -1 -1 0 -1 -1 -1 -1 -1 0 -1 -1 -1 -1 -1 -1 -1 -1 -1 -1 -1 -1 -1 -1 -1 -1 -1 -1 0 -2 -1 -1 -1 -1 0 -1 -1 -1 0 -2 -1 -1 0 -1 0 -1 0 -2 0 -1 0 0 -8 2 0 2 0 1 0 2 0 2 1 1 0 2 1 1 1 2 0 1 1 2 1 1 1 2 1 1 1 1 1 1 1 2 1 1 1 1 2 1 1 1 1 1 2 1 1 0 2 1 1 1 2 0 1 1 2 0 1 0 2 0 2 0 1 0 0zm-7 476l0 -476 7 0 0 476 0 0 -7 0zm-28 684l0 -8 0 0 4 0 3 0 4 -1 3 0 3 -1 4 -1 3 -1 3 -1 4 -2 3 -1 3 -2 3 -1 3 -2 3 -2 3 -2 2 -3 3 -2 2 -2 3 -3 2 -3 2 -2 2 -3 2 -3 1 -3 2 -3 1 -3 1 -3 1 -3 1 -4 0 -3 0 -3 0 -4 8 0 0 4 0 4 -1 4 -1 4 -1 3 -1 4 -1 3 -2 4 -2 3 -2 3 -2 3 -2 3 -2 3 -3 3 -3 3 -2 2 -3 3 -3 2 -4 2 -3 2 -3 2 -4 2 -3 2 -4 1 -3 1 -4 1 -4 1 -3 1 -4 1 -4 0 -4 1 -4 0 0 0zm0 -4l0 0 0 0 0 0 0 4 0 -4zm-74 -71l8 0 0 0 0 4 0 3 0 4 1 3 1 3 1 3 1 3 1 3 1 3 2 3 1 3 2 3 2 2 2 3 2 2 2 3 2 2 3 2 2 2 3 2 3 1 2 2 3 1 3 2 3 1 3 1 3 1 4 1 3 0 3 1 4 0 3 0 0 8 -4 0 -3 -1 -4 0 -4 -1 -3 -1 -4 -1 -3 -1 -4 -1 -3 -2 -3 -1 -3 -2 -3 -2 -3 -2 -3 -2 -3 -2 -2 -3 -3 -3 -2 -2 -2 -3 -2 -3 -2 -3 -2 -3 -2 -3 -1 -4 -2 -3 -1 -3 -1 -4 -1 -4 0 -3 -1 -4 0 -4 0 -4 0 0zm8 -422l0 422 -8 0 0 -422 0 0 8 0zm66 -75l0 8 0 0 -3 0 -4 0 -3 1 -3 0 -4 1 -3 1 -3 1 -3 1 -3 1 -3 2 -2 2 -3 1 -3 2 -2 2 -3 2 -2 2 -2 3 -2 2 -2 3 -2 2 -2 3 -1 3 -2 3 -1 2 -1 4 -1 3 -1 3 -1 3 -1 3 0 4 0 3 0 4 -8 0 0 -4 0 -4 1 -4 0 -4 1 -3 1 -4 1 -3 2 -4 1 -3 2 -3 2 -3 2 -3 2 -3 2 -3 2 -3 3 -2 2 -3 3 -2 3 -2 3 -2 3 -2 3 -2 3 -2 3 -1 4 -1 3 -2 4 -1 3 0 4 -1 4 0 3 -1 4 0 0 0zm0 4l0 0 0 0 0 0 0 -4 0 4zm82 71l-8 0 0 0 0 -4 0 -3 0 -4 -1 -3 -1 -3 -1 -3 -1 -3 -2 -3 -1 -3 -2 -3 -2 -3 -2 -3 -2 -2 -3 -3 -2 -2 -3 -2 -2 -3 -3 -2 -3 -2 -3 -2 -3 -1 -3 -2 -3 -1 -4 -2 -3 -1 -3 -1 -4 -1 -3 -1 -3 0 -4 -1 -3 0 -4 0 0 -8 4 0 4 1 4 0 4 1 3 0 4 1 4 2 3 1 4 1 3 2 4 2 3 2 3 2 4 2 3 2 3 3 2 2 3 3 3 3 2 3 2 3 2 3 2 3 2 3 2 4 1 3 1 4 1 3 1 4 1 4 0 4 0 4 0 0zm-8 422l0 -422 8 0 0 422 0 0 -8 0zm2194 -1086l0 -7 0 0 1 0 1 -1 2 0 1 0 1 0 1 -1 1 0 2 -1 1 0 1 -1 1 -1 1 0 1 -1 1 -1 2 -1 1 -1 1 -1 0 -1 1 -1 1 -1 1 -1 1 -2 0 -1 1 -1 0 -1 1 -1 0 -2 1 -1 0 -1 0 -1 0 -2 0 -1 8 0 0 2 0 2 0 1 -1 2 0 2 -1 1 0 2 -1 1 -1 2 -1 1 -1 2 0 1 -2 2 -1 1 -1 1 -1 1 -1 2 -1 1 -2 1 -1 1 -2 1 -1 1 -2 1 -1 0 -2 1 -1 1 -2 0 -1 1 -2 0 -2 0 -1 0 -2 0 0 0zm-43 -35l8 0 0 0 0 1 0 2 0 1 0 1 1 1 0 2 0 1 1 1 1 1 0 1 1 1 1 2 1 1 1 1 1 1 1 1 1 1 1 1 2 0 1 1 2 1 1 1 2 1 1 0 2 1 1 0 2 1 2 0 2 0 2 0 2 1 2 0 0 7 -3 0 -2 0 -2 0 -2 0 -2 -1 -2 0 -3 -1 -2 -1 -1 0 -2 -1 -2 -1 -2 -1 -1 -1 -2 -1 -2 -1 -1 -1 -1 -2 -2 -1 -1 -1 -1 -2 -1 -1 -1 -2 -1 -1 -1 -2 -1 -1 0 -2 -1 -1 0 -2 -1 -2 0 -1 0 -2 0 -2 0 0zm8 -478l0 478 -8 0 0 -478 0 0 8 0zm35 -43l0 8 0 0 -2 0 -2 0 -2 1 -2 0 -2 0 -1 1 -2 0 -2 1 -1 0 -2 1 -1 1 -2 1 -1 1 -1 1 -2 1 -1 1 -1 1 -1 1 -1 2 -1 1 -1 1 0 2 -1 1 -1 2 0 1 -1 2 0 2 -1 2 0 2 0 1 0 2 0 2 -8 0 0 -2 0 -2 0 -2 1 -3 0 -2 1 -2 0 -2 1 -2 1 -2 1 -2 1 -2 1 -1 1 -2 1 -2 1 -1 2 -2 1 -1 2 -1 1 -2 2 -1 2 -1 2 -1 1 -1 2 -1 2 0 2 -1 3 0 2 -1 2 0 2 0 2 -1 3 0 0 0zm35 43l-8 0 0 0 0 -2 0 -2 0 -1 0 -2 -1 -2 0 -2 -1 -2 0 -1 -1 -2 -1 -1 0 -2 -1 -1 -1 -2 -1 -1 -1 -1 -1 -1 -1 -1 -1 -2 -1 -1 -1 0 -1 -1 -1 -1 -1 -1 -1 0 -2 -1 -1 0 -1 -1 -1 0 -2 0 -1 -1 -1 0 -1 0 0 -8 2 0 1 1 2 0 2 0 1 1 2 0 1 1 2 1 2 0 1 1 2 1 1 1 1 2 2 1 1 1 1 2 1 1 2 2 1 1 1 2 1 2 1 1 0 2 1 2 1 2 0 2 1 2 0 2 1 3 0 2 0 2 0 2 0 0zm-8 478l0 -478 8 0 0 478 0 0 -8 0zm-1736 193l8 0 0 0 0 7 -1 6 0 7 -1 6 -2 6 -2 6 -2 6 -2 6 -2 5 -3 5 -3 6 -3 4 -4 5 -3 5 -4 4 -4 4 -5 4 -4 4 -5 3 -4 3 -5 3 -5 3 -6 2 -5 3 -5 2 -6 2 -6 1 -5 1 -6 1 -6 1 -6 0 -6 0 0 -7 6 0 5 -1 6 -1 5 0 6 -2 5 -1 5 -2 5 -2 5 -2 5 -2 5 -3 4 -2 5 -3 4 -4 4 -3 4 -4 4 -3 4 -4 3 -5 3 -4 3 -5 3 -4 3 -5 2 -5 2 -6 2 -5 2 -6 1 -5 1 -6 1 -6 0 -7 0 -6 0 0zm8 -853l0 853 -8 0 0 -853 0 0 8 0zm-121 -114l0 -8 0 0 6 0 6 1 6 0 6 1 5 2 6 1 6 2 5 2 5 2 6 3 5 2 5 3 4 4 5 3 4 4 5 4 4 4 4 4 3 4 4 5 3 5 3 5 3 5 2 6 2 6 2 5 2 6 2 6 1 7 0 6 1 7 0 7 -8 0 0 -7 0 -6 -1 -6 -1 -6 -1 -6 -2 -5 -2 -6 -2 -5 -2 -5 -3 -5 -3 -5 -3 -4 -3 -5 -3 -4 -4 -4 -4 -4 -4 -3 -4 -4 -4 -3 -5 -3 -4 -3 -5 -2 -5 -3 -5 -2 -5 -2 -5 -1 -5 -2 -6 -1 -5 -1 -6 -1 -5 0 -6 0 0 0zm-106 114l-7 0 0 0 0 -7 0 -7 1 -6 1 -6 1 -7 1 -6 2 -5 2 -6 2 -5 3 -6 2 -5 3 -5 3 -4 4 -5 3 -4 4 -4 4 -4 4 -4 4 -3 5 -4 4 -3 5 -2 5 -3 5 -2 5 -2 5 -2 6 -1 5 -2 6 -1 6 0 6 -1 6 0 0 8 -6 0 -5 0 -6 1 -5 1 -5 1 -5 2 -5 1 -5 2 -5 2 -4 3 -5 2 -4 3 -4 3 -4 3 -4 3 -3 4 -4 4 -3 4 -3 4 -3 4 -3 5 -2 5 -3 5 -2 5 -1 5 -2 6 -1 5 -2 6 0 6 -1 6 -1 6 0 7 0 0zm-7 853l0 -853 7 0 0 853 0 0 -7 0zm113 114l0 7 0 0 -6 0 -6 0 -6 -1 -6 -1 -5 -1 -6 -2 -5 -1 -5 -2 -5 -3 -5 -2 -5 -3 -4 -3 -5 -3 -4 -3 -4 -4 -4 -4 -4 -4 -3 -4 -4 -5 -3 -5 -3 -5 -2 -5 -3 -5 -2 -5 -2 -6 -2 -6 -1 -6 -1 -6 -1 -6 -1 -7 0 -6 0 -7 7 0 0 6 1 7 1 6 0 6 2 5 1 6 2 6 1 5 2 5 3 5 2 5 3 4 3 5 3 4 3 4 4 4 3 3 4 4 4 3 4 3 4 3 5 2 4 2 5 3 5 1 5 2 5 1 5 2 5 0 6 1 5 1 6 0 0 0zm0 4l0 0 0 0 0 0 0 -4 0 4zm560 3165l0 0 0 0 0 0 -4 0 4 0zm42 -46l0 8 0 0 -2 0 -2 0 -2 0 -1 0 -2 1 -2 0 -2 1 -2 1 -1 0 -2 1 -2 1 -1 1 -2 1 -1 1 -2 2 -1 1 -1 1 -2 2 -1 1 -1 2 -1 1 -1 2 -1 2 0 1 -1 2 -1 2 0 2 -1 2 0 2 0 1 0 2 0 2 -8 0 0 -2 0 -2 0 -3 1 -2 0 -2 1 -2 1 -3 0 -2 1 -2 1 -2 1 -2 2 -2 1 -1 1 -2 2 -2 1 -2 2 -1 2 -2 2 -1 1 -1 2 -1 2 -2 2 -1 2 -1 2 0 3 -1 2 -1 2 0 2 -1 3 0 2 0 2 0 0 0zm172 8l-172 0 0 -8 172 0 0 0 0 8zm46 38l-8 0 0 0 0 -2 0 -2 0 -1 0 -2 -1 -2 0 -2 -1 -2 -1 -2 0 -1 -1 -2 -1 -2 -1 -1 -1 -2 -1 -1 -2 -2 -1 -1 -1 -1 -2 -2 -1 -1 -2 -1 -1 -1 -2 -1 -2 -1 -1 0 -2 -1 -2 -1 -2 0 -2 -1 -2 0 -1 0 -2 0 -2 0 0 -8 2 0 2 0 3 0 2 1 2 0 2 1 3 1 2 0 2 1 2 1 2 2 2 1 1 1 2 1 2 2 2 1 1 2 2 2 1 2 1 1 1 2 2 2 1 2 1 2 0 2 1 3 1 2 0 2 1 2 0 3 0 2 0 2 0 0zm-4 0l0 0 0 0 0 0 4 0 -4 0zm-42 47l0 -8 0 0 2 0 2 0 1 0 2 0 2 -1 2 0 2 -1 2 -1 1 -1 2 0 2 -1 1 -1 2 -1 1 -2 2 -1 1 -1 1 -1 2 -2 1 -1 1 -2 1 -1 1 -2 1 -2 0 -1 1 -2 1 -2 0 -2 1 -2 0 -2 0 -2 0 -2 0 -2 8 0 0 3 0 2 0 3 -1 2 0 2 -1 2 -1 2 0 3 -1 2 -1 2 -2 2 -1 2 -1 1 -1 2 -2 2 -1 1 -2 2 -2 1 -2 2 -1 1 -2 1 -2 1 -2 2 -2 0 -2 1 -3 1 -2 1 -2 0 -2 1 -3 0 -2 0 -2 0 0 0zm-172 -8l172 0 0 8 -172 0 0 0 0 -8zm-46 -39l8 0 0 0 0 2 0 2 0 2 0 2 1 2 0 2 1 2 1 2 0 1 1 2 1 2 1 1 1 2 1 1 2 2 1 1 1 1 2 1 1 2 2 1 1 1 2 1 2 0 1 1 2 1 2 1 2 0 2 1 1 0 2 0 2 0 2 0 0 8 -2 0 -2 0 -3 0 -2 -1 -2 0 -2 -1 -3 -1 -2 -1 -2 0 -2 -2 -2 -1 -2 -1 -1 -1 -2 -2 -2 -1 -2 -2 -1 -1 -2 -2 -1 -2 -1 -1 -2 -2 -1 -2 -1 -2 -1 -2 0 -3 -1 -2 -1 -2 0 -2 -1 -2 0 -3 0 -2 0 -3 0 0zm542 22l8 0 0 0 0 1 0 1 0 1 0 0 0 1 0 1 1 1 0 1 0 0 1 1 0 1 1 1 0 0 1 1 0 1 1 0 0 1 1 0 1 1 0 0 1 1 1 0 0 1 1 0 1 0 1 1 1 0 1 0 0 0 1 0 1 0 1 0 0 8 -1 0 -2 0 -1 0 -1 0 -1 -1 -1 0 -2 0 -1 -1 -1 0 -1 -1 -1 -1 -1 0 -1 -1 -1 -1 -1 0 -1 -1 -1 -1 0 -1 -1 -1 -1 -1 -1 -1 0 -1 -1 -1 0 -1 -1 -1 0 -2 0 -1 -1 -1 0 -1 0 -2 0 -1 0 -1 0 0zm25 -25l0 7 0 0 -1 0 -1 0 -1 1 0 0 -1 0 -1 0 -1 0 -1 1 -1 0 0 0 -1 1 -1 0 0 1 -1 0 -1 1 0 0 -1 1 0 1 -1 0 0 1 -1 1 0 1 -1 0 0 1 0 1 -1 1 0 0 0 1 0 1 0 1 0 1 0 1 -8 0 0 -1 0 -2 0 -1 0 -1 1 -1 0 -2 0 -1 1 -1 0 -1 1 -1 0 -1 1 -1 1 -1 1 -1 0 -1 1 -1 1 -1 1 -1 1 0 1 -1 1 -1 1 0 1 -1 1 0 1 -1 2 0 1 -1 1 0 1 0 1 0 2 0 1 0 0 0zm25 25l-7 0 0 0 0 -1 -1 -1 0 -1 0 -1 0 -1 0 0 0 -1 -1 -1 0 -1 -1 0 0 -1 0 -1 -1 -1 0 0 -1 -1 -1 -1 0 0 -1 -1 0 0 -1 -1 -1 0 -1 -1 0 0 -1 0 -1 -1 -1 0 -1 0 0 0 -1 0 -1 -1 -1 0 -1 0 0 -7 1 0 2 0 1 0 1 0 1 0 2 1 1 0 1 1 1 0 1 1 1 0 1 1 1 1 1 0 1 1 1 1 1 1 1 1 0 1 1 1 1 1 0 1 1 1 0 1 1 1 0 1 1 2 0 1 0 1 0 1 0 2 0 1 0 0zm-25 25l0 -8 0 0 1 0 1 0 1 0 1 0 0 0 1 0 1 -1 1 0 1 0 0 -1 1 0 1 -1 1 0 0 -1 1 0 0 -1 1 0 1 -1 0 -1 1 0 0 -1 0 -1 1 -1 0 0 1 -1 0 -1 0 -1 0 -1 0 0 0 -1 1 -1 0 -1 7 0 0 1 0 1 0 2 0 1 0 1 -1 1 0 2 -1 1 0 1 -1 1 0 1 -1 1 -1 1 0 1 -1 1 -1 1 -1 1 -1 0 -1 1 -1 1 -1 0 -1 1 -1 1 -1 0 -1 1 -1 0 -2 0 -1 1 -1 0 -1 0 -2 0 -1 0 0 0zm-900 -32l8 0 0 0 0 1 0 1 0 1 1 2 0 1 0 1 1 1 0 1 1 1 0 1 1 1 0 1 1 1 1 1 1 1 0 1 1 1 1 1 1 0 1 1 1 1 1 0 1 1 1 0 1 1 2 0 1 1 1 0 1 0 1 0 2 0 1 0 0 8 -2 0 -1 0 -2 0 -2 -1 -1 0 -2 0 -1 -1 -2 0 -1 -1 -2 -1 -1 -1 -1 0 -2 -1 -1 -1 -1 -1 -1 -1 -1 -2 -1 -1 -1 -1 -1 -1 -1 -1 -1 -2 0 -1 -1 -2 -1 -1 0 -2 -1 -1 0 -2 0 -1 0 -2 -1 -2 0 -1 0 0zm33 -33l0 8 0 0 -1 0 -2 0 -1 0 -1 1 -1 0 -1 0 -2 1 -1 0 -1 0 -1 1 -1 1 -1 0 -1 1 -1 1 -1 0 -1 1 0 1 -1 1 -1 1 -1 1 0 1 -1 1 0 1 -1 1 0 1 -1 1 0 2 0 1 -1 1 0 1 0 1 0 2 -8 0 0 -2 1 -2 0 -1 0 -2 0 -1 1 -2 0 -1 1 -2 1 -1 0 -2 1 -1 1 -1 1 -2 1 -1 1 -1 1 -1 1 -1 1 -1 1 -1 2 -1 1 -1 1 -1 2 -1 1 0 2 -1 1 0 2 -1 1 0 2 0 2 -1 1 0 2 0 0 0zm32 33l-8 0 0 0 0 -2 0 -1 0 -1 0 -1 0 -1 -1 -2 0 -1 0 -1 -1 -1 -1 -1 0 -1 -1 -1 0 -1 -1 -1 -1 -1 -1 -1 -1 -1 0 0 -1 -1 -1 -1 -1 0 -1 -1 -1 -1 -2 0 -1 0 -1 -1 -1 0 -1 0 -1 -1 -2 0 -1 0 -1 0 0 -8 2 0 1 0 2 1 1 0 2 0 1 1 2 0 1 1 2 0 1 1 2 1 1 1 1 1 1 1 2 1 1 1 1 1 1 1 1 1 1 2 1 1 0 1 1 2 1 1 0 2 1 1 0 2 1 1 0 2 0 1 0 2 0 2 0 0zm-32 32l0 -8 0 0 1 0 1 0 2 0 1 0 1 0 1 -1 1 0 1 -1 2 0 1 -1 1 0 1 -1 1 -1 0 0 1 -1 1 -1 1 -1 1 -1 1 -1 0 -1 1 -1 0 -1 1 -1 1 -1 0 -1 0 -1 1 -1 0 -1 0 -2 0 -1 0 -1 0 -1 8 0 0 1 0 2 0 2 0 1 -1 2 0 1 -1 2 0 1 -1 2 -1 1 0 2 -1 1 -1 1 -1 1 -1 2 -1 1 -1 1 -2 1 -1 1 -1 1 -1 0 -2 1 -1 1 -2 1 -1 0 -2 1 -1 0 -2 0 -1 1 -2 0 -1 0 -2 0 0 0zm694 -4598l8 0 0 0 0 1 0 1 0 1 0 0 1 1 0 1 0 1 0 1 1 1 0 0 1 1 0 1 0 0 1 1 1 1 0 0 1 1 0 0 1 1 1 0 0 1 1 0 1 1 1 0 1 0 0 1 1 0 1 0 1 0 1 0 1 0 1 0 0 8 -2 0 -1 0 -1 0 -2 0 -1 -1 -1 0 -1 0 -1 -1 -1 0 -2 -1 -1 0 -1 -1 -1 -1 -1 -1 0 0 -1 -1 -1 -1 -1 -1 -1 -1 0 -1 -1 -1 -1 -1 0 -1 -1 -1 0 -1 -1 -2 0 -1 0 -1 0 -1 -1 -1 0 -2 0 -1 0 0zm26 -25l0 7 0 0 -1 0 -1 1 -1 0 -1 0 -1 0 -1 0 0 1 -1 0 -1 0 -1 1 -1 0 0 0 -1 1 -1 0 0 1 -1 1 0 0 -1 1 -1 0 0 1 0 1 -1 1 0 0 -1 1 0 1 0 1 0 1 -1 0 0 1 0 1 0 1 0 1 -8 0 0 -1 0 -2 1 -1 0 -1 0 -1 0 -2 1 -1 0 -1 1 -1 0 -1 1 -1 1 -1 0 -1 1 -1 1 -1 1 -1 1 -1 0 -1 1 0 1 -1 1 -1 1 0 2 -1 1 0 1 -1 1 0 1 -1 1 0 2 0 1 0 1 0 2 0 0 0zm25 25l-8 0 0 0 0 -1 0 -1 0 -1 0 -1 -1 0 0 -1 0 -1 0 -1 -1 -1 0 0 -1 -1 0 -1 0 -1 -1 0 -1 -1 0 0 -1 -1 0 -1 -1 0 -1 -1 0 0 -1 0 -1 -1 -1 0 0 0 -1 -1 -1 0 -1 0 -1 0 -1 0 -1 -1 0 0 0 -7 1 0 1 0 1 0 2 0 1 0 1 1 1 0 1 1 1 0 2 1 1 0 1 1 1 1 1 0 1 1 0 1 1 1 1 1 1 1 1 1 0 1 1 1 0 1 1 1 0 1 1 1 0 2 0 1 1 1 0 1 0 2 0 1 0 0zm-25 25l0 -8 0 0 0 0 1 0 1 0 1 0 1 0 1 0 1 -1 0 0 1 0 1 -1 1 0 0 -1 1 0 1 -1 0 0 1 -1 0 0 1 -1 1 -1 0 0 0 -1 1 -1 0 0 1 -1 0 -1 0 -1 0 -1 1 -1 0 0 0 -1 0 -1 0 -1 8 0 0 1 0 2 0 1 -1 1 0 1 0 1 -1 2 0 1 -1 1 0 1 -1 1 0 1 -1 1 -1 1 -1 1 -1 1 0 1 -1 0 -1 1 -1 1 -1 1 -1 0 -2 1 -1 0 -1 1 -1 0 -1 0 -1 1 -2 0 -1 0 -1 0 -1 0 0 0zm-678 -24l0 0 0 0 0 0 -4 0 4 0zm28 -32l0 8 0 0 -1 0 -1 0 -1 0 -1 0 -2 1 -1 0 -1 0 -1 1 -1 0 -1 1 -1 0 -1 1 -1 1 -1 0 -1 1 -1 1 -1 1 -1 1 0 1 -1 1 -1 1 0 1 -1 1 0 1 -1 1 0 1 0 1 -1 1 0 2 0 1 0 1 0 1 -8 0 0 -1 0 -2 0 -2 1 -1 0 -2 1 -1 0 -2 1 -1 0 -2 1 -1 1 -1 1 -2 0 -1 1 -1 1 -1 2 -2 1 -1 1 -1 1 -1 1 -1 2 0 1 -1 1 -1 2 -1 1 0 2 -1 1 0 2 0 2 -1 1 0 2 0 1 0 0 0zm43 8l-43 0 0 -8 43 0 0 0 0 8zm33 24l-8 0 0 0 0 -1 0 -1 0 -1 -1 -2 0 -1 0 -1 -1 -1 0 -1 -1 -1 0 -1 -1 -1 0 -1 -1 -1 -1 -1 -1 -1 0 -1 -1 -1 -1 -1 -1 0 -1 -1 -1 -1 -1 0 -1 -1 -1 0 -1 -1 -1 0 -2 0 -1 -1 -1 0 -1 0 -1 0 -2 0 0 -8 2 0 2 0 1 0 2 1 1 0 2 0 1 1 2 0 1 1 2 1 1 1 1 0 2 1 1 1 1 1 1 1 1 2 1 1 1 1 1 1 1 2 1 1 0 1 1 2 1 1 0 2 1 1 0 2 0 1 1 2 0 2 0 1 0 0zm-4 0l0 0 0 0 0 0 4 0 -4 0zm-29 33l0 -8 0 0 2 0 1 0 1 0 1 -1 1 0 2 0 1 -1 1 0 1 0 1 -1 1 -1 1 0 1 -1 1 -1 1 0 1 -1 0 -1 1 -1 1 -1 1 -1 0 -1 1 -1 0 -1 1 -1 0 -1 1 -1 0 -2 0 -1 1 -1 0 -1 0 -1 0 -2 8 0 0 2 0 2 -1 1 0 2 0 1 -1 2 0 1 -1 2 -1 1 0 2 -1 1 -1 1 -1 2 -1 1 -1 1 -1 1 -1 1 -1 1 -1 1 -2 1 -1 1 -1 1 -2 1 -1 0 -2 1 -1 0 -2 1 -1 0 -2 0 -1 1 -2 0 -2 0 0 0zm-43 -8l43 0 0 8 -43 0 0 0 0 -8zm-32 -25l8 0 0 0 0 2 0 1 0 1 0 1 1 1 0 2 0 1 1 1 0 1 1 1 0 1 1 1 1 1 0 1 1 1 1 1 1 1 1 0 1 1 1 1 1 0 1 1 1 1 1 0 1 0 1 1 1 0 2 0 1 1 1 0 1 0 1 0 0 8 -1 0 -2 0 -1 -1 -2 0 -2 0 -1 -1 -2 0 -1 -1 -2 0 -1 -1 -1 -1 -2 -1 -1 -1 -1 -1 -1 -1 -1 -1 -2 -1 -1 -1 -1 -1 0 -2 -1 -1 -1 -1 -1 -2 0 -1 -1 -2 0 -1 -1 -2 0 -1 -1 -2 0 -1 0 -2 0 -2 0 0zm-142 4565l8 0 0 0 0 1 0 1 0 1 0 2 1 1 0 1 0 1 1 1 0 1 1 1 0 1 1 1 1 1 1 1 0 1 1 1 1 1 1 1 1 0 1 1 1 1 1 0 1 1 1 0 1 1 1 0 1 1 2 0 1 0 1 0 1 0 2 0 0 8 -2 0 -2 0 -1 0 -2 -1 -2 0 -1 0 -2 -1 -1 0 -2 -1 -1 -1 -1 -1 -2 0 -1 -1 -1 -1 -1 -1 -1 -1 -2 -2 -1 -1 0 -1 -1 -1 -1 -1 -1 -2 -1 -1 0 -2 -1 -1 0 -2 -1 -1 0 -2 -1 -1 0 -2 0 -2 0 -1 0 0zm33 -33l0 8 0 0 -2 0 -1 0 -1 0 -1 1 -2 0 -1 0 -1 1 -1 0 -1 0 -1 1 -1 1 -1 0 -1 1 -1 1 -1 0 -1 1 -1 1 0 1 -1 1 -1 1 -1 1 0 1 -1 1 0 1 -1 1 0 1 0 2 -1 1 0 1 0 1 0 1 0 2 -8 0 0 -2 0 -2 0 -1 1 -2 0 -1 1 -2 0 -1 1 -2 0 -1 1 -2 1 -1 1 -1 1 -2 0 -1 2 -1 1 -1 1 -1 1 -1 1 -1 1 -1 2 -1 1 -1 1 -1 2 0 1 -1 2 0 1 -1 2 0 2 0 1 -1 2 0 2 0 0 0zm32 33l-8 0 0 0 0 -2 0 -1 0 -1 0 -1 -1 -1 0 -2 0 -1 -1 -1 0 -1 -1 -1 0 -1 -1 -1 -1 -1 0 -1 -1 -1 -1 -1 -1 -1 -1 0 -1 -1 -1 -1 -1 0 -1 -1 -1 -1 -1 0 -1 0 -1 -1 -1 0 -2 0 -1 -1 -1 0 -1 0 -1 0 0 -8 1 0 2 0 1 1 2 0 2 0 1 1 2 0 1 1 2 0 1 1 1 1 2 1 1 1 1 1 1 1 1 1 2 1 1 1 1 1 0 2 1 1 1 1 1 2 0 1 1 2 0 1 1 2 0 1 1 2 0 1 0 2 0 2 0 0zm-32 32l0 -8 0 0 1 0 1 0 1 0 1 0 2 0 1 -1 1 0 1 -1 1 0 1 -1 1 0 1 -1 1 -1 1 0 1 -1 1 -1 1 -1 1 -1 0 -1 1 -1 1 -1 0 -1 1 -1 0 -1 1 -1 0 -1 0 -1 1 -1 0 -2 0 -1 0 -1 0 -1 8 0 0 1 0 2 0 2 -1 1 0 2 -1 1 0 2 -1 1 0 2 -1 1 -1 2 -1 1 0 1 -1 1 -1 2 -2 1 -1 1 -1 1 -1 1 -1 1 -2 0 -1 1 -1 1 -2 1 -1 0 -2 1 -1 0 -2 0 -2 1 -1 0 -2 0 -1 0 0 0zm-104 -32l8 0 0 0 0 1 0 1 0 1 0 2 0 1 1 1 0 1 0 1 1 1 1 1 0 1 1 1 0 1 1 1 1 1 1 1 1 1 1 1 0 0 1 1 1 1 1 0 2 1 1 0 1 1 1 0 1 1 1 0 1 0 2 0 1 0 1 0 0 8 -1 0 -2 0 -2 0 -1 -1 -2 0 -1 0 -2 -1 -1 0 -2 -1 -1 -1 -2 -1 -1 0 -1 -1 -1 -1 -2 -1 -1 -1 -1 -2 -1 -1 -1 -1 -1 -1 -1 -1 0 -2 -1 -1 -1 -2 0 -1 -1 -2 0 -1 -1 -2 0 -1 0 -2 0 -2 0 -1 0 0zm32 -33l0 8 0 0 -1 0 -1 0 -2 0 -1 1 -1 0 -1 0 -1 1 -1 0 -1 0 -2 1 -1 1 -1 0 -1 1 0 1 -1 0 -1 1 -1 1 -1 1 -1 1 0 1 -1 1 0 1 -1 1 -1 1 0 1 0 1 -1 2 0 1 0 1 0 1 0 1 0 2 -8 0 0 -2 0 -2 0 -1 0 -2 1 -1 0 -2 1 -1 0 -2 1 -1 1 -2 0 -1 1 -1 1 -2 1 -1 1 -1 1 -1 1 -1 2 -1 1 -1 1 -1 1 -1 2 -1 1 -1 2 0 1 -1 2 0 1 -1 2 0 1 0 2 -1 2 0 1 0 0 0zm33 33l-8 0 0 0 0 -2 0 -1 0 -1 -1 -1 0 -1 0 -2 -1 -1 0 -1 -1 -1 0 -1 -1 -1 0 -1 -1 -1 -1 -1 -1 -1 0 -1 -1 -1 -1 0 -1 -1 -1 -1 -1 0 -1 -1 -1 -1 -1 0 -1 0 -1 -1 -2 0 -1 0 -1 -1 -1 0 -2 0 -1 0 0 -8 2 0 1 0 2 1 2 0 1 0 2 1 1 0 2 1 1 0 2 1 1 1 1 1 2 1 1 1 1 1 1 1 1 1 1 1 1 1 1 2 1 1 1 1 0 2 1 1 1 2 0 1 1 2 0 1 0 2 0 1 1 2 0 2 0 0zm-33 32l0 -8 0 0 1 0 2 0 1 0 1 0 1 0 2 -1 1 0 1 -1 1 0 1 -1 1 0 1 -1 1 -1 1 0 1 -1 1 -1 0 -1 1 -1 1 -1 1 -1 0 -1 1 -1 0 -1 1 -1 0 -1 1 -1 0 -1 0 -1 1 -2 0 -1 0 -1 0 -1 8 0 0 1 -1 2 0 2 0 1 0 2 -1 1 0 2 -1 1 -1 2 0 1 -1 2 -1 1 -1 1 -1 1 -1 2 -1 1 -1 1 -1 1 -1 1 -2 1 -1 0 -1 1 -2 1 -1 1 -2 0 -1 1 -2 0 -1 0 -2 1 -2 0 -1 0 -2 0 0 0zm-104 -32l8 0 0 0 0 1 0 1 1 1 0 2 0 1 0 1 1 1 0 1 1 1 0 1 1 1 0 1 1 1 1 1 1 1 0 1 1 1 1 1 1 0 1 1 1 1 1 0 1 1 1 0 1 1 2 0 1 1 1 0 1 0 1 0 2 0 1 0 0 8 -2 0 -1 0 -2 0 -2 -1 -1 0 -2 0 -1 -1 -2 0 -1 -1 -2 -1 -1 -1 -1 0 -2 -1 -1 -1 -1 -1 -1 -1 -1 -2 -1 -1 -1 -1 -1 -1 -1 -1 -1 -2 0 -1 -1 -2 -1 -1 0 -2 -1 -1 0 -2 0 -1 0 -2 -1 -2 0 -1 0 0zm33 -33l0 8 0 0 -1 0 -2 0 -1 0 -1 1 -1 0 -1 0 -2 1 -1 0 -1 0 -1 1 -1 1 -1 0 -1 1 -1 1 -1 0 -1 1 0 1 -1 1 -1 1 -1 1 0 1 -1 1 0 1 -1 1 0 1 -1 1 0 2 0 1 0 1 -1 1 0 1 0 2 -8 0 0 -2 1 -2 0 -1 0 -2 0 -1 1 -2 0 -1 1 -2 1 -1 0 -2 1 -1 1 -1 1 -2 1 -1 1 -1 1 -1 1 -1 1 -1 1 -1 2 -1 1 -1 1 -1 2 -1 1 0 2 -1 1 0 2 -1 1 0 2 0 2 -1 1 0 2 0 0 0zm32 33l-8 0 0 0 0 -2 0 -1 0 -1 0 -1 0 -1 -1 -2 0 -1 0 -1 -1 -1 0 -1 -1 -1 -1 -1 0 -1 -1 -1 -1 -1 -1 -1 -1 -1 0 0 -1 -1 -1 -1 -1 0 -1 -1 -1 -1 -2 0 -1 0 -1 -1 -1 0 -1 0 -1 -1 -2 0 -1 0 -1 0 0 -8 2 0 1 0 2 1 1 0 2 0 2 1 1 0 1 1 2 0 1 1 2 1 1 1 1 1 2 1 1 1 1 1 1 1 1 1 1 1 1 2 1 1 0 1 1 2 1 1 0 2 1 1 0 2 1 1 0 2 0 1 0 2 0 2 0 0zm-32 32l0 -8 0 0 1 0 1 0 2 0 1 0 1 0 1 -1 1 0 1 -1 2 0 1 -1 1 0 1 -1 1 -1 1 0 0 -1 1 -1 1 -1 1 -1 1 -1 0 -1 1 -1 1 -1 0 -1 1 -1 0 -1 0 -1 1 -1 0 -1 0 -2 0 -1 0 -1 0 -1 8 0 0 1 0 2 0 2 0 1 -1 2 0 1 -1 2 0 1 -1 2 -1 1 0 2 -1 1 -1 1 -1 1 -1 2 -1 1 -1 1 -1 1 -2 1 -1 1 -1 0 -2 1 -1 1 -2 1 -1 0 -1 1 -2 0 -2 0 -1 1 -2 0 -1 0 -2 0 0 0zm-104 -32l8 0 0 0 0 1 0 1 0 1 0 2 1 1 0 1 0 1 1 1 0 1 1 1 0 1 1 1 1 1 1 1 0 1 1 1 1 1 1 1 1 0 1 1 1 1 1 0 1 1 1 0 1 1 1 0 1 1 2 0 1 0 1 0 1 0 2 0 0 8 -2 0 -2 0 -1 0 -2 -1 -2 0 -1 0 -2 -1 -1 0 -2 -1 -1 -1 -1 -1 -2 0 -1 -1 -1 -1 -1 -1 -1 -1 -1 -2 -1 -1 -1 -1 -1 -1 -1 -1 -1 -2 -1 -1 0 -2 -1 -1 0 -2 -1 -1 0 -2 -1 -1 0 -2 0 -2 0 -1 0 0zm33 -33l0 8 0 0 -2 0 -1 0 -1 0 -1 1 -2 0 -1 0 -1 1 -1 0 -1 0 -1 1 -1 1 -1 0 -1 1 -1 1 -1 0 -1 1 -1 1 0 1 -1 1 -1 1 -1 1 0 1 -1 1 0 1 -1 1 0 1 0 2 -1 1 0 1 0 1 0 1 0 2 -8 0 0 -2 0 -2 0 -1 1 -2 0 -1 1 -2 0 -1 1 -2 0 -1 1 -2 1 -1 1 -1 1 -2 1 -1 1 -1 1 -1 1 -1 1 -1 1 -1 1 -1 2 -1 1 -1 1 -1 2 0 1 -1 2 0 1 -1 2 0 2 0 1 -1 2 0 2 0 0 0zm32 33l-8 0 0 0 0 -2 0 -1 0 -1 0 -1 -1 -1 0 -2 0 -1 -1 -1 0 -1 -1 -1 0 -1 -1 -1 -1 -1 0 -1 -1 -1 -1 -1 -1 -1 -1 0 -1 -1 -1 -1 -1 0 -1 -1 -1 -1 -1 0 -1 0 -1 -1 -1 0 -2 0 -1 -1 -1 0 -1 0 -1 0 0 -8 1 0 2 0 1 1 2 0 2 0 1 1 2 0 1 1 2 0 1 1 1 1 2 1 1 1 1 1 1 1 1 1 2 1 1 1 1 1 0 2 1 1 1 1 1 2 0 1 1 2 1 1 0 2 0 1 1 2 0 1 0 2 0 2 0 0zm-32 32l0 -8 0 0 1 0 1 0 1 0 1 0 2 0 1 -1 1 0 1 -1 1 0 1 -1 1 0 1 -1 1 -1 1 0 1 -1 1 -1 1 -1 1 -1 0 -1 1 -1 1 -1 0 -1 1 -1 0 -1 1 -1 0 -1 0 -1 1 -1 0 -2 0 -1 0 -1 0 -1 8 0 0 1 0 2 0 2 -1 1 0 2 0 1 -1 2 -1 1 0 2 -1 1 -1 2 -1 1 0 1 -1 1 -1 2 -2 1 -1 1 -1 1 -1 1 -1 1 -2 0 -1 1 -1 1 -2 1 -1 0 -2 1 -1 0 -2 0 -2 1 -1 0 -2 0 -1 0 0 0zm-64 -4195l8 0 0 0 0 4 0 5 1 4 1 5 1 4 1 4 1 4 2 4 2 4 2 4 2 4 2 3 3 4 2 3 3 3 3 4 3 3 3 2 4 3 3 2 4 3 3 2 4 2 4 2 4 1 4 2 5 1 4 1 4 1 5 0 4 0 5 1 0 7 -5 0 -5 0 -5 -1 -5 -1 -4 -1 -5 -1 -4 -1 -5 -2 -4 -2 -4 -2 -4 -3 -4 -2 -4 -3 -4 -3 -3 -3 -4 -3 -3 -3 -3 -4 -3 -3 -2 -4 -3 -4 -2 -4 -2 -4 -2 -5 -2 -4 -1 -5 -2 -4 -1 -5 -1 -5 0 -4 -1 -5 0 -5 0 0zm97 -97l0 8 0 0 -5 0 -4 0 -5 1 -4 1 -4 1 -5 1 -4 1 -4 2 -4 2 -4 2 -3 2 -4 2 -3 3 -4 2 -3 3 -3 3 -3 3 -3 3 -2 4 -3 3 -2 4 -2 3 -2 4 -2 4 -2 4 -1 4 -1 5 -1 4 -1 4 -1 5 0 4 0 5 -8 0 0 -5 1 -5 0 -5 1 -5 1 -4 2 -5 1 -4 2 -5 2 -4 2 -4 2 -4 3 -4 2 -4 3 -4 3 -3 3 -4 4 -3 3 -3 4 -3 4 -2 4 -3 4 -2 4 -2 4 -2 5 -2 4 -2 5 -1 4 -1 5 -1 5 0 5 -1 5 0 0 0zm96 97l-7 0 0 0 -1 -5 0 -4 0 -5 -1 -4 -1 -4 -1 -5 -2 -4 -1 -4 -2 -4 -2 -4 -2 -3 -3 -4 -2 -3 -3 -4 -2 -3 -3 -3 -3 -3 -4 -3 -3 -2 -4 -3 -3 -2 -4 -2 -4 -2 -4 -2 -4 -2 -4 -1 -4 -1 -4 -1 -5 -1 -4 -1 -5 0 -4 0 0 -8 5 0 5 1 5 0 4 1 5 1 5 1 4 2 4 2 5 2 4 2 4 2 4 3 4 2 3 3 4 3 3 3 3 4 3 3 3 4 3 4 2 4 3 4 2 4 2 4 2 5 1 4 1 5 1 4 1 5 1 5 0 5 0 5 0 0zm-96 96l0 -7 0 0 4 -1 5 0 4 0 5 -1 4 -1 4 -1 4 -2 4 -1 4 -2 4 -2 4 -2 3 -3 4 -2 3 -3 4 -2 3 -3 3 -4 2 -3 3 -3 2 -4 3 -3 2 -4 2 -4 2 -4 1 -4 2 -4 1 -4 1 -4 1 -5 0 -4 0 -5 1 -4 7 0 0 5 0 5 -1 4 -1 5 -1 5 -1 4 -1 5 -2 4 -2 5 -2 4 -3 4 -2 4 -3 4 -3 3 -3 4 -3 3 -3 3 -4 3 -3 3 -4 3 -4 2 -4 3 -4 2 -5 2 -4 2 -4 1 -5 1 -5 1 -4 1 -5 1 -5 0 -5 0 0 0zm-90 244l8 0 0 0 0 5 1 4 0 4 1 4 1 4 1 4 1 3 2 4 1 4 2 3 2 4 2 3 2 3 3 3 2 3 3 3 3 3 3 2 3 3 3 2 3 2 4 2 3 2 4 2 4 1 4 1 3 2 4 0 4 1 4 1 5 0 4 0 0 8 -5 0 -4 -1 -5 0 -4 -1 -5 -1 -4 -1 -4 -2 -4 -1 -4 -2 -4 -2 -4 -2 -3 -2 -4 -3 -3 -3 -3 -2 -3 -3 -3 -3 -3 -4 -3 -3 -2 -4 -3 -3 -2 -4 -2 -4 -2 -4 -1 -4 -2 -4 -1 -4 -1 -5 -1 -4 0 -4 -1 -5 0 -5 0 0zm90 -89l0 8 0 0 -4 0 -5 0 -4 1 -4 0 -4 1 -3 1 -4 2 -4 1 -4 2 -3 2 -4 2 -3 2 -3 2 -3 2 -3 3 -3 3 -3 2 -2 3 -3 4 -2 3 -2 3 -2 3 -2 4 -1 4 -2 3 -1 4 -1 4 -1 4 -1 4 0 4 -1 4 0 4 -8 0 0 -4 1 -5 0 -4 1 -5 1 -4 1 -4 2 -4 1 -4 2 -4 2 -4 2 -4 3 -4 2 -3 3 -4 3 -3 3 -3 3 -3 3 -3 3 -2 4 -3 3 -2 4 -2 4 -2 4 -2 4 -2 4 -1 4 -1 5 -1 4 -1 5 -1 4 0 5 0 0 0zm89 89l-8 0 0 0 0 -4 0 -4 0 -4 -1 -4 -1 -4 -1 -4 -1 -4 -2 -3 -2 -4 -1 -4 -2 -3 -2 -3 -3 -3 -2 -4 -3 -3 -2 -2 -3 -3 -3 -3 -3 -2 -4 -2 -3 -2 -3 -2 -4 -2 -3 -2 -4 -1 -4 -2 -4 -1 -4 -1 -4 0 -4 -1 -4 0 -4 0 0 -8 4 0 5 0 4 1 5 1 4 1 4 1 5 1 4 2 4 2 3 2 4 2 4 2 3 3 4 2 3 3 3 3 3 3 3 3 3 4 2 3 2 4 2 4 2 4 2 4 2 4 1 4 1 4 1 4 1 5 1 4 0 5 0 4 0 0zm-89 90l0 -8 0 0 4 0 4 0 4 -1 4 -1 4 0 4 -2 4 -1 4 -1 3 -2 4 -2 3 -2 3 -2 4 -2 3 -3 3 -2 3 -3 2 -3 3 -3 2 -3 3 -3 2 -3 2 -4 1 -3 2 -4 2 -3 1 -4 1 -4 1 -4 1 -4 0 -4 0 -4 0 -5 8 0 0 5 0 5 -1 4 -1 4 -1 5 -1 4 -1 4 -2 4 -2 4 -2 4 -2 4 -2 3 -2 4 -3 3 -3 4 -3 3 -3 3 -3 2 -4 3 -3 3 -4 2 -4 2 -3 2 -4 2 -4 1 -5 2 -4 1 -4 1 -5 1 -4 0 -5 1 -4 0 0 0zm-97 235l8 0 0 0 0 5 0 4 1 5 1 4 1 5 1 4 1 4 2 4 2 4 2 4 2 3 2 4 3 4 2 3 3 3 3 3 3 3 3 3 4 3 3 2 4 2 3 2 4 2 4 2 4 2 4 1 5 1 4 1 4 1 5 1 4 0 5 0 0 8 -5 0 -5 0 -5 -1 -5 -1 -4 -1 -5 -1 -4 -2 -5 -2 -4 -2 -4 -2 -4 -2 -4 -2 -4 -3 -4 -3 -3 -3 -4 -3 -3 -4 -3 -3 -3 -4 -2 -4 -3 -3 -2 -5 -2 -4 -2 -4 -2 -4 -1 -5 -2 -4 -1 -5 -1 -5 0 -5 -1 -5 0 -5 0 0zm97 -96l0 8 0 0 -5 0 -4 0 -5 1 -4 0 -4 1 -5 2 -4 1 -4 2 -4 1 -4 2 -3 2 -4 3 -3 2 -4 3 -3 3 -3 3 -3 3 -3 3 -2 3 -3 4 -2 3 -2 4 -2 4 -2 4 -2 4 -1 4 -1 4 -1 4 -1 5 -1 4 0 5 0 4 -8 0 0 -5 1 -4 0 -5 1 -5 1 -5 2 -4 1 -5 2 -4 2 -5 2 -4 2 -4 3 -4 2 -3 3 -4 3 -4 3 -3 4 -3 3 -3 4 -3 4 -3 4 -2 4 -3 4 -2 4 -2 5 -1 4 -2 5 -1 4 -1 5 -1 5 -1 5 0 5 0 0 0zm96 96l-7 0 0 0 -1 -4 0 -5 0 -4 -1 -5 -1 -4 -1 -4 -2 -4 -1 -4 -2 -4 -2 -4 -2 -4 -3 -3 -2 -4 -3 -3 -2 -3 -3 -3 -3 -3 -4 -3 -3 -3 -4 -2 -3 -3 -4 -2 -4 -2 -4 -1 -4 -2 -4 -1 -4 -2 -4 -1 -5 0 -4 -1 -5 0 -4 0 0 -8 5 0 5 0 5 1 4 1 5 1 5 1 4 2 4 1 5 2 4 2 4 3 4 2 4 3 3 3 4 3 3 3 3 3 3 4 3 4 3 3 2 4 3 4 2 5 2 4 2 4 1 5 1 4 1 5 1 5 1 5 0 4 0 5 0 0zm-96 97l0 -8 0 0 4 0 5 0 4 -1 5 -1 4 -1 4 -1 4 -1 4 -2 4 -2 4 -2 4 -2 3 -2 4 -2 3 -3 4 -3 3 -3 3 -3 2 -3 3 -3 2 -4 3 -4 2 -3 2 -4 2 -4 1 -4 2 -4 1 -4 1 -5 1 -4 0 -5 0 -4 1 -5 7 0 0 5 0 5 -1 5 -1 5 -1 5 -1 4 -1 5 -2 4 -2 4 -2 4 -3 5 -2 3 -3 4 -3 4 -3 3 -3 4 -3 3 -4 3 -3 3 -4 3 -4 2 -4 2 -4 2 -5 2 -4 2 -4 2 -5 1 -5 1 -4 1 -5 1 -5 0 -5 0 0 0zm-61 119l8 0 0 0 0 2 0 3 0 3 1 2 0 3 1 3 1 2 1 2 1 3 1 2 1 2 2 2 1 3 2 2 1 1 2 2 2 2 2 2 2 1 2 2 2 1 2 1 3 2 2 1 3 1 2 1 3 0 2 1 3 0 2 1 3 0 3 0 0 8 -3 0 -3 -1 -3 0 -3 -1 -3 0 -3 -1 -3 -1 -3 -1 -3 -1 -2 -2 -3 -1 -2 -2 -3 -1 -2 -2 -2 -2 -2 -2 -2 -2 -2 -2 -2 -3 -2 -2 -1 -3 -2 -2 -1 -3 -1 -3 -1 -2 -1 -3 -1 -3 -1 -3 0 -3 -1 -3 0 -3 0 -3 0 0zm61 -61l0 8 0 0 -3 0 -3 0 -2 0 -3 1 -2 0 -3 1 -2 1 -3 1 -2 1 -3 1 -2 1 -2 2 -2 1 -2 2 -2 1 -2 2 -2 2 -1 2 -2 2 -1 2 -2 2 -1 2 -1 3 -1 2 -1 2 -1 3 -1 2 0 3 -1 3 0 2 0 3 0 3 -8 0 0 -3 0 -3 1 -4 0 -3 1 -2 1 -3 1 -3 1 -3 1 -3 1 -2 2 -3 1 -2 2 -3 2 -2 2 -2 2 -2 2 -2 2 -2 2 -2 3 -2 2 -1 3 -2 2 -1 3 -1 3 -2 3 0 3 -1 3 -1 3 -1 3 0 3 0 3 0 0 0zm61 61l-8 0 0 0 0 -3 0 -3 -1 -2 0 -3 -1 -3 0 -2 -1 -3 -1 -2 -1 -2 -1 -3 -2 -2 -1 -2 -2 -2 -1 -2 -2 -2 -2 -2 -1 -2 -2 -1 -2 -2 -2 -1 -3 -2 -2 -1 -2 -1 -3 -1 -2 -1 -2 -1 -3 -1 -2 0 -3 -1 -3 0 -2 0 -3 0 0 -8 3 0 3 0 3 0 3 1 3 1 3 1 3 0 3 2 2 1 3 1 2 2 3 1 2 2 3 2 2 2 2 2 2 2 2 2 2 2 1 3 2 2 1 3 2 2 1 3 1 3 1 3 1 3 1 2 0 3 0 4 1 3 0 3 0 0zm-61 61l0 -8 0 0 3 0 2 0 3 -1 3 0 2 -1 3 0 2 -1 2 -1 3 -1 2 -2 2 -1 3 -1 2 -2 2 -1 2 -2 1 -2 2 -2 2 -1 1 -2 2 -3 1 -2 2 -2 1 -2 1 -3 1 -2 1 -2 0 -3 1 -3 0 -2 1 -3 0 -3 0 -2 8 0 0 3 -1 3 0 3 0 3 -1 3 -1 3 -1 3 -1 2 -1 3 -2 3 -1 2 -2 3 -1 2 -2 3 -2 2 -2 2 -2 2 -2 2 -3 2 -2 1 -3 2 -2 1 -3 2 -2 1 -3 1 -3 1 -3 1 -3 0 -3 1 -3 0 -3 1 -3 0 0 0z"/>
  </g>
 </g>
</svg>
