<?xml version="1.0" encoding="UTF-8"?>
<!DOCTYPE svg PUBLIC "-//W3C//DTD SVG 1.1//EN" "http://www.w3.org/Graphics/SVG/1.1/DTD/svg11.dtd">
<!-- Creator: CorelDRAW X8 -->
<svg xmlns="http://www.w3.org/2000/svg" xml:space="preserve" width="40mm" height="60mm" version="1.1" style="shape-rendering:geometricPrecision; text-rendering:geometricPrecision; image-rendering:optimizeQuality; fill-rule:evenodd; clip-rule:evenodd"
viewBox="0 0 4000 6000"
 xmlns:xlink="http://www.w3.org/1999/xlink">
 <defs>
  <style type="text/css">
   <![CDATA[
    .str0 {stroke:black;stroke-width:7.62}
    .fil0 {fill:none}
   ]]>
  </style>
 </defs>
 <g id="图层_x0020_1">
  <metadata id="CorelCorpID_0Corel-Layer"/>
  <path class="fil0 str0" d="M1328 746c0,-5 -4,-9 -12,-10 -29,0 -53,24 -53,53 0,29 24,52 53,52 29,0 52,-23 52,-52 0,-29 -23,-53 -52,-53m424 44c-6,-22 -18,-40 -73,-40l-47 0c-25,0 -45,20 -45,45l0 0c0,25 20,45 45,45l779 0c25,0 45,-20 45,-45l0 0c0,-25 -20,-45 -45,-45l-732 0m73 4404c-6,-23 -18,-40 -73,-40l-47 0c-25,0 -45,20 -45,45l0 0c0,24 20,44 45,44l779 0c25,0 45,-20 45,-44l0 0c0,-25 -20,-45 -45,-45l-732 0m-394 246c-36,-63 -82,-91 -124,-91 -131,0 -238,-107 -238,-238l0 -4133c0,-131 107,-238 238,-238l1702 0c131,0 238,107 238,238l0 4133c0,131 -107,238 -238,238l-1869 0"/>
 </g>
</svg>
