<?xml version="1.0" encoding="UTF-8"?>
<!DOCTYPE svg PUBLIC "-//W3C//DTD SVG 1.1//EN" "http://www.w3.org/Graphics/SVG/1.1/DTD/svg11.dtd">
<!-- Creator: CorelDRAW X8 -->
<svg xmlns="http://www.w3.org/2000/svg" xml:space="preserve" width="40mm" height="60mm" version="1.1" style="shape-rendering:geometricPrecision; text-rendering:geometricPrecision; image-rendering:optimizeQuality; fill-rule:evenodd; clip-rule:evenodd"
viewBox="0 0 4000 6000"
 xmlns:xlink="http://www.w3.org/1999/xlink">
 <defs>
  <style type="text/css">
   <![CDATA[
    .str0 {stroke:black;stroke-width:7.62}
    .fil0 {fill:none}
   ]]>
  </style>
 </defs>
 <g id="图层_x0020_1">
  <metadata id="CorelCorpID_0Corel-Layer"/>
  <path class="fil0 str0" d="M2356 1050c0,-6 -5,-11 -16,-12 -38,0 -69,31 -69,69 0,38 31,69 69,69 38,0 69,-31 69,-69 0,-38 -31,-69 -69,-69m-302 -102c-2,-19 -18,-36 -51,-38 -119,0 -216,96 -216,215 0,119 97,216 216,216 119,0 215,-97 215,-216 0,-119 -96,-215 -215,-215m-805 4452c-17,-35 -61,-83 -95,-83 -124,0 -226,-102 -226,-226l0 -4166c0,-124 102,-225 226,-225l1826 0c124,0 226,101 226,225l0 4166c0,124 -102,226 -226,226l-1965 0"/>
 </g>
</svg>
