<?xml version="1.0" encoding="UTF-8"?>
<!DOCTYPE svg PUBLIC "-//W3C//DTD SVG 1.1//EN" "http://www.w3.org/Graphics/SVG/1.1/DTD/svg11.dtd">
<!-- Creator: CorelDRAW X8 -->
<svg xmlns="http://www.w3.org/2000/svg" xml:space="preserve" width="40mm" height="60mm" version="1.1" style="shape-rendering:geometricPrecision; text-rendering:geometricPrecision; image-rendering:optimizeQuality; fill-rule:evenodd; clip-rule:evenodd"
viewBox="0 0 4000 6000"
 xmlns:xlink="http://www.w3.org/1999/xlink">
 <defs>
  <style type="text/css">
   <![CDATA[
    .str0 {stroke:#332C2B;stroke-width:20}
    .fil0 {fill:none}
   ]]>
  </style>
 </defs>
 <g id="图层_x0020_1">
  <metadata id="CorelCorpID_0Corel-Layer"/>
  <path class="fil0 str0" d="M-1178 6447l0 -6317c0,-440 -355,-800 -787,-800l-14188 0c-433,0 -787,360 -787,800l0 1518 79 82 0 795 214 0c154,0 280,128 280,284l0 0c0,157 -126,285 -280,285l-214 0 0 851 -79 74 0 1608c0,440 354,800 787,800l14188 0c432,0 787,-360 787,-800 0,-440 189,-770 445,-770"/>
  <path class="fil0 str0" d="M968 5221l1832 0c128,0 232,-103 232,-228l0 -4115c0,-125 -104,-228 -232,-228l-440 0 -24 23 -230 0 0 62c0,44 -38,81 -83,81l0 0c-45,0 -82,-37 -82,-81l0 -62 -247 0 -22 -23 -466 0c-128,0 -232,103 -232,228l0 4115c0,125 104,228 232,228 127,0 223,55 223,129"/>
 </g>
</svg>
