<?xml version="1.0" encoding="UTF-8"?>
<!DOCTYPE svg PUBLIC "-//W3C//DTD SVG 1.1//EN" "http://www.w3.org/Graphics/SVG/1.1/DTD/svg11.dtd">
<!-- Creator: CorelDRAW 2020 (64-Bit) -->
<svg xmlns="http://www.w3.org/2000/svg" xml:space="preserve" width="40mm" height="60mm" version="1.1" style="shape-rendering:geometricPrecision; text-rendering:geometricPrecision; image-rendering:optimizeQuality; fill-rule:evenodd; clip-rule:evenodd"
viewBox="0 0 4000 6000"
 xmlns:xlink="http://www.w3.org/1999/xlink"
 xmlns:xodm="http://www.corel.com/coreldraw/odm/2003">
 <defs>
  <style type="text/css">
   <![CDATA[
    .str0 {stroke:#332C2B;stroke-width:19.05;stroke-linecap:round;stroke-linejoin:round;stroke-miterlimit:10}
    .str1 {stroke:#332C2B;stroke-width:19.05;stroke-linecap:round;stroke-linejoin:bevel;stroke-miterlimit:10}
    .str2 {stroke:#332C2B;stroke-width:25.4;stroke-linecap:round;stroke-linejoin:bevel;stroke-miterlimit:10}
    .fil0 {fill:none;fill-rule:nonzero}
   ]]>
  </style>
 </defs>
 <g id="图层_x0020_1">
  <metadata id="CorelCorpID_0Corel-Layer"/>
  <g id="_1281311329008">
   <line class="fil0 str0" x1="2260.61" y1="1126.33" x2="1733.41" y2= "1126.33" />
   <polyline class="fil0 str1" points="1682.02,1079.91 1685.34,1094.83 1693.63,1108.09 1705.23,1118.04 1718.49,1124.67 1733.41,1126.33 "/>
   <polyline class="fil0 str1" points="1680.36,1081.57 1675.39,1063.33 1665.44,1046.75 1650.52,1033.49 1633.94,1026.86 1615.71,1023.54 "/>
   <line class="fil0 str0" x1="1615.71" y1="1021.89" x2="1169.75" y2= "1021.89" />
   <polyline class="fil0 str1" points="1169.75,1023.54 1143.22,1025.2 1116.69,1031.83 1091.83,1041.78 1068.62,1056.7 1048.72,1073.28 1032.14,1093.17 1017.22,1116.38 1007.28,1141.25 1000.64,1167.77 998.99,1194.3 "/>
   <line class="fil0 str0" x1="997.33" y1="1194.3" x2="997.33" y2= "4806.75" />
   <polyline class="fil0 str1" points="998.99,4806.75 1000.64,4833.28 1007.28,4859.8 1017.22,4884.67 1032.14,4907.88 1048.72,4927.77 1068.62,4944.36 1091.83,4959.27 1116.69,4969.22 1143.22,4975.85 1169.75,4977.51 "/>
   <line class="fil0 str0" x1="1169.75" y1="4979.17" x2="2815.99" y2= "4979.17" />
   <polyline class="fil0 str1" points="2815.99,4977.51 2842.52,4975.85 2869.04,4969.22 2893.91,4959.27 2917.12,4944.36 2937.02,4927.77 2953.59,4907.88 2968.51,4884.67 2978.46,4859.8 2985.09,4833.28 2986.75,4806.75 "/>
   <line class="fil0 str0" x1="2988.41" y1="4806.75" x2="2988.41" y2= "1194.3" />
   <polyline class="fil0 str1" points="2986.75,1194.3 2985.09,1167.77 2978.46,1141.25 2968.51,1116.38 2953.59,1093.17 2937.02,1073.28 2917.12,1056.7 2893.91,1041.78 2869.04,1031.83 2842.52,1025.2 2815.99,1023.54 "/>
   <line class="fil0 str0" x1="2815.99" y1="1021.89" x2="2376.66" y2= "1021.89" />
   <polyline class="fil0 str1" points="2376.66,1023.54 2358.43,1026.86 2341.85,1033.49 2326.93,1046.75 2316.98,1063.33 2312.01,1081.57 "/>
   <polyline class="fil0 str1" points="2260.61,1126.33 2275.53,1124.67 2288.8,1118.04 2300.4,1108.09 2308.69,1094.83 2312.01,1079.91 "/>
   <polygon class="fil0 str2" points="1272.53,5217.9 1255.95,5219.56 1241.03,5226.19 1227.77,5236.13 1216.16,5249.4 1209.53,5264.32 1206.22,5279.24 1207.88,5295.82 1212.85,5312.4 1221.14,5325.66 1232.74,5337.27 1247.66,5345.55 1264.24,5350.53 1280.82,5350.53 1297.4,5345.55 1312.32,5337.27 1323.93,5325.66 1332.21,5312.4 1337.19,5295.82 1338.85,5279.24 1335.53,5264.32 1328.9,5249.4 1317.29,5236.13 1304.03,5226.19 1289.11,5219.56 "/>
   <polygon class="fil0 str2" points="2713.21,5217.9 2696.63,5219.56 2681.71,5226.19 2668.44,5236.13 2656.84,5249.4 2650.21,5264.32 2646.89,5279.24 2648.55,5295.82 2653.52,5312.4 2661.81,5325.66 2673.42,5337.27 2688.34,5345.55 2704.92,5350.53 2721.49,5350.53 2738.07,5345.55 2752.99,5337.27 2764.6,5325.66 2772.89,5312.4 2777.86,5295.82 2779.52,5279.24 2776.2,5264.32 2769.57,5249.4 2757.97,5236.13 2744.7,5226.19 2729.78,5219.56 "/>
   <polygon class="fil0 str2" points="2675.07,650.53 2658.5,652.19 2643.58,658.82 2630.31,668.76 2618.71,682.03 2612.08,696.95 2608.76,711.87 2610.42,728.44 2615.39,745.03 2623.68,758.29 2635.29,769.89 2650.21,778.18 2666.79,783.15 2683.36,783.15 2699.94,778.18 2714.86,769.89 2726.47,758.29 2734.76,745.03 2739.73,728.44 2741.39,711.87 2738.07,696.95 2731.44,682.03 2719.84,668.76 2706.57,658.82 2691.65,652.19 "/>
   <polygon class="fil0 str2" points="1312.32,650.53 1295.74,652.19 1280.82,658.82 1267.56,668.76 1255.95,682.03 1249.32,696.95 1246.01,711.87 1247.66,728.44 1252.64,745.03 1260.93,758.29 1272.53,769.89 1287.45,778.18 1304.03,783.15 1320.61,783.15 1337.19,778.18 1352.11,769.89 1363.71,758.29 1372,745.03 1376.98,728.44 1378.63,711.87 1375.32,696.95 1368.69,682.03 1357.08,668.76 1343.82,658.82 1328.9,652.19 "/>
  </g>
  <line class="fil0 str0" x1="-24770.99" y1="1468.55" x2="-24770.99" y2= "3488.66" />
  <polyline class="fil0 str1" points="-24948.85,3685.59 -24891.68,3672.89 -24840.86,3641.12 -24802.75,3596.66 -24777.35,3545.83 -24770.99,3488.66 "/>
  <polyline class="fil0 str1" points="-24942.5,3691.94 -25012.38,3711 -25075.92,3749.12 -25126.74,3806.29 -25152.14,3869.82 -25164.84,3939.69 "/>
  <line class="fil0 str0" x1="-25171.19" y1="3939.69" x2="-25171.19" y2= "5648.53" />
  <polyline class="fil0 str1" points="-25164.84,5648.53 -25158.49,5750.18 -25133.09,5851.82 -25094.97,5947.11 -25037.8,6036.04 -24974.27,6112.27 -24898.03,6175.8 -24809.11,6232.97 -24713.82,6271.09 -24612.18,6296.5 -24510.54,6302.85 "/>
  <line class="fil0 str0" x1="-24510.54" y1="6309.2" x2="-10668.29" y2= "6309.2" />
  <polyline class="fil0 str1" points="-10668.29,6302.85 -10566.64,6296.5 -10465.01,6271.09 -10369.71,6232.97 -10280.79,6175.8 -10204.56,6112.27 -10141.02,6036.04 -10083.86,5947.11 -10045.74,5851.82 -10020.33,5750.18 -10013.97,5648.53 "/>
  <line class="fil0 str0" x1="-10007.62" y1="5648.53" x2="-10007.62" y2= "-659.56" />
  <polyline class="fil0 str1" points="-10013.97,-659.56 -10020.33,-761.21 -10045.74,-862.85 -10083.86,-958.14 -10141.02,-1047.07 -10204.56,-1123.3 -10280.79,-1186.83 -10369.71,-1244 -10465.01,-1282.12 -10566.64,-1307.53 -10668.29,-1313.88 "/>
  <line class="fil0 str0" x1="-10668.29" y1="-1320.23" x2="-24510.54" y2= "-1320.23" />
  <polyline class="fil0 str1" points="-24510.54,-1313.88 -24612.18,-1307.53 -24713.82,-1282.12 -24809.11,-1244 -24898.03,-1186.83 -24974.27,-1123.3 -25037.8,-1047.07 -25094.97,-958.14 -25133.09,-862.85 -25158.49,-761.21 -25164.84,-659.56 "/>
  <line class="fil0 str0" x1="-25171.19" y1="-659.56" x2="-25171.19" y2= "1023.87" />
  <polyline class="fil0 str1" points="-25164.84,1023.87 -25152.14,1093.74 -25126.74,1157.27 -25075.92,1214.44 -25012.38,1252.56 -24942.5,1271.62 "/>
  <polyline class="fil0 str1" points="-24770.99,1468.55 -24777.35,1411.37 -24802.75,1360.55 -24840.86,1316.08 -24891.68,1284.32 -24948.85,1271.62 "/>
  <polygon class="fil0 str2" points="-9092.86,5254.68 -9086.49,5318.2 -9061.08,5375.37 -9022.98,5426.19 -8972.16,5470.66 -8914.97,5496.07 -8857.8,5508.78 -8794.28,5502.43 -8730.76,5483.37 -8679.94,5451.61 -8635.46,5407.14 -8603.71,5349.96 -8584.64,5286.44 -8584.64,5222.91 -8603.71,5159.39 -8635.46,5102.21 -8679.94,5057.75 -8730.76,5025.98 -8794.28,5006.93 -8857.8,5000.57 -8914.97,5013.28 -8972.16,5038.69 -9022.98,5083.16 -9061.08,5133.98 -9086.49,5191.15 "/>
  <polygon class="fil0 str2" points="-9092.86,-265.71 -9086.49,-202.18 -9061.08,-145.01 -9022.98,-94.19 -8972.16,-49.72 -8914.97,-24.31 -8857.8,-11.6 -8794.28,-17.96 -8730.76,-37.01 -8679.94,-68.78 -8635.46,-113.24 -8603.71,-170.42 -8584.64,-233.94 -8584.64,-297.47 -8603.71,-360.99 -8635.46,-418.17 -8679.94,-462.64 -8730.76,-494.4 -8794.28,-513.46 -8857.8,-519.81 -8914.97,-507.1 -8972.16,-481.69 -9022.98,-437.22 -9061.08,-386.4 -9086.49,-329.23 "/>
  <polygon class="fil0 str2" points="-26594.17,-119.6 -26587.82,-56.07 -26562.42,1.1 -26524.3,51.92 -26473.47,96.39 -26416.31,121.8 -26359.13,134.51 -26295.61,128.15 -26232.07,109.1 -26181.26,77.33 -26136.79,32.87 -26105.02,-24.31 -26085.97,-87.83 -26085.97,-151.36 -26105.02,-214.89 -26136.79,-272.06 -26181.26,-316.53 -26232.07,-348.29 -26295.61,-367.35 -26359.13,-373.7 -26416.31,-360.99 -26473.47,-335.58 -26524.3,-291.12 -26562.42,-240.3 -26587.82,-183.12 "/>
  <polygon class="fil0 str2" points="-26594.17,5102.21 -26587.82,5165.74 -26562.42,5222.91 -26524.3,5273.73 -26473.47,5318.2 -26416.31,5343.61 -26359.13,5356.32 -26295.61,5349.96 -26232.07,5330.91 -26181.26,5299.14 -26136.79,5254.68 -26105.02,5197.5 -26085.97,5133.98 -26085.97,5070.45 -26105.02,5006.93 -26136.79,4949.75 -26181.26,4905.28 -26232.07,4873.52 -26295.61,4854.46 -26359.13,4848.11 -26416.31,4860.82 -26473.47,4886.23 -26524.3,4930.69 -26562.42,4981.52 -26587.82,5038.69 "/>
 </g>
</svg>
