<?xml version="1.0" encoding="UTF-8"?>
<!DOCTYPE svg PUBLIC "-//W3C//DTD SVG 1.1//EN" "http://www.w3.org/Graphics/SVG/1.1/DTD/svg11.dtd">
<!-- Creator: CorelDRAW X8 -->
<svg xmlns="http://www.w3.org/2000/svg" xml:space="preserve" width="40mm" height="60mm" version="1.1" style="shape-rendering:geometricPrecision; text-rendering:geometricPrecision; image-rendering:optimizeQuality; fill-rule:evenodd; clip-rule:evenodd"
viewBox="0 0 4000 6000"
 xmlns:xlink="http://www.w3.org/1999/xlink">
 <defs>
  <style type="text/css">
   <![CDATA[
    .str0 {stroke:black;stroke-width:7.62}
    .fil0 {fill:none}
   ]]>
  </style>
 </defs>
 <g id="图层_x0020_1">
  <metadata id="CorelCorpID_0Corel-Layer"/>
  <path class="fil0 str0" d="M2770 723c0,-5 -5,-10 -15,-11 -34,0 -62,28 -62,63 0,35 28,63 62,63 35,0 63,-28 63,-63 0,-35 -28,-63 -63,-63m-367 38c-3,-10 -6,-17 -24,-17l-14 0c-20,0 -36,16 -36,36l0 0c0,20 16,36 36,36l91 0c20,0 36,-16 36,-36l0 0c0,-20 -16,-36 -36,-36l-77 0m-443 30c-5,-19 -16,-35 -64,-35l-41 0c-21,0 -39,18 -39,40l0 0c0,21 18,39 39,39l385 0c21,0 39,-18 39,-39l0 0c0,-22 -18,-40 -39,-40l-344 0m-422 -11c0,-5 -5,-10 -15,-11 -34,0 -62,28 -62,63 0,34 28,62 62,62 35,0 63,-28 63,-62 0,-35 -28,-63 -63,-63m520 4362c-7,-26 -16,-45 -61,-45l-37 0c-52,0 -95,42 -95,94l0 0c0,52 43,94 95,94l322 0c51,0 94,-42 94,-94l0 0c0,-52 -43,-94 -94,-94l-285 0m-966 285l1979 0c148,0 269,-121 269,-268l0 -4122c0,-147 -121,-268 -269,-268l-1784 0c-148,0 -269,121 -269,268l0 4122c0,147 121,268 269,268l52 0c37,0 78,26 101,42"/>
 </g>
</svg>
