<?xml version="1.0" encoding="UTF-8"?>
<!DOCTYPE svg PUBLIC "-//W3C//DTD SVG 1.1//EN" "http://www.w3.org/Graphics/SVG/1.1/DTD/svg11.dtd">
<!-- Creator: CorelDRAW X8 -->
<svg xmlns="http://www.w3.org/2000/svg" xml:space="preserve" width="40mm" height="60mm" version="1.1" style="shape-rendering:geometricPrecision; text-rendering:geometricPrecision; image-rendering:optimizeQuality; fill-rule:evenodd; clip-rule:evenodd"
viewBox="0 0 4000 6000"
 xmlns:xlink="http://www.w3.org/1999/xlink">
 <defs>
  <style type="text/css">
   <![CDATA[
    .str0 {stroke:#332C2B;stroke-width:7.62}
    .fil0 {fill:none}
   ]]>
  </style>
 </defs>
 <g id="图层_x0020_1">
  <metadata id="CorelCorpID_0Corel-Layer"/>
  <g id="_2430737286480">
   <path class="fil0 str0" d="M830 5051l2103 0c140,0 237,-114 237,-254l0 -3893c0,-140 -97,-254 -237,-254l-1629 0c-140,0 -237,114 -237,254l0 3893c0,140 97,254 237,254 139,0 299,94 299,299"/>
   <path class="fil0 str0" d="M1534 825c0,-17 -34,-20 -34,-20l81 0c17,0 30,14 30,30l0 0c0,17 -13,30 -30,30l-81 0c-17,0 -30,-13 -30,-30l0 0c0,-16 13,-30 30,-30"/>
   <path class="fil0 str0" d="M1989 836c0,-16 -7,-22 -19,-22 -11,0 -21,10 -21,22l0 0c0,11 10,21 21,21l289 0c12,0 22,-10 22,-21l0 0c0,-12 -10,-22 -22,-22l-289 0"/>
   <path class="fil0 str0" d="M2467 836c0,-24 2,-50 29,-50 27,0 49,22 49,50 0,27 -22,49 -49,49 -27,0 -49,-22 -49,-49 0,-28 22,-50 49,-50"/>
  </g>
 </g>
</svg>
