<?xml version="1.0" encoding="UTF-8"?>
<!DOCTYPE svg PUBLIC "-//W3C//DTD SVG 1.1//EN" "http://www.w3.org/Graphics/SVG/1.1/DTD/svg11.dtd">
<!-- Creator: CorelDRAW X8 -->
<svg xmlns="http://www.w3.org/2000/svg" xml:space="preserve" width="40mm" height="60mm" version="1.1" style="shape-rendering:geometricPrecision; text-rendering:geometricPrecision; image-rendering:optimizeQuality; fill-rule:evenodd; clip-rule:evenodd"
viewBox="0 0 4000 6000"
 xmlns:xlink="http://www.w3.org/1999/xlink">
 <defs>
  <style type="text/css">
   <![CDATA[
    .str1 {stroke:#332C2B;stroke-width:20}
    .str0 {stroke:#332C2B;stroke-width:10}
    .fil0 {fill:none}
   ]]>
  </style>
 </defs>
 <g id="图层_x0020_1">
  <metadata id="CorelCorpID_0Corel-Layer"/>
  <g id="_2848859357056">
   <path class="fil0 str0" d="M849 5152l1951 0c193,0 351,-158 351,-351l0 -3800c0,-193 -158,-351 -351,-351l-1586 0c-193,0 -351,158 -351,351l0 3800c0,193 158,351 351,351 193,0 343,70 343,198"/>
   <path class="fil0 str0" d="M1884 812c0,-69 -105,-76 -132,-76 -27,0 -49,22 -49,49l0 0c0,27 22,50 49,50l504 0c27,0 49,-23 49,-50l0 0c0,-27 -22,-49 -49,-49l-504 0"/>
   <path class="fil0 str0" d="M2040 4975c0,-178 -143,-185 -206,-185 -64,0 -116,52 -116,115l0 0c0,64 52,115 116,115l348 0c63,0 115,-51 115,-115l0 0c0,-63 -52,-115 -115,-115l-348 0"/>
  </g>
  <path class="fil0 str1" d="M-867 6253l0 -5559c0,-550 -450,-1000 -1000,-1000l-10824 0c-550,0 -1000,450 -1000,1000l0 4519c0,550 450,1000 1000,1000l10824 0c550,0 1000,-450 1000,-1000 0,-550 200,-977 564,-977"/>
  <path class="fil0 str1" d="M-13228 3303c-199,0 -217,299 -217,376 0,77 63,140 140,140l0 0c77,0 140,-63 140,-140l0 -1434c0,-77 -63,-140 -140,-140l0 0c-77,0 -141,63 -140,140l0 1434"/>
  <path class="fil0 str1" d="M-1372 2860c-505,0 -525,407 -525,587 0,181 147,328 328,328l0 0c180,0 328,-147 328,-328l0 -991c0,-180 -148,-328 -328,-328l0 0c-181,0 -330,148 -328,328l0 991"/>
 </g>
</svg>
