<?xml version="1.0" encoding="UTF-8"?>
<!DOCTYPE svg PUBLIC "-//W3C//DTD SVG 1.1//EN" "http://www.w3.org/Graphics/SVG/1.1/DTD/svg11.dtd">
<!-- Creator: CorelDRAW X8 -->
<svg xmlns="http://www.w3.org/2000/svg" xml:space="preserve" width="40mm" height="60mm" version="1.1" style="shape-rendering:geometricPrecision; text-rendering:geometricPrecision; image-rendering:optimizeQuality; fill-rule:evenodd; clip-rule:evenodd"
viewBox="0 0 4000 6000"
 xmlns:xlink="http://www.w3.org/1999/xlink">
 <defs>
  <style type="text/css">
   <![CDATA[
    .str0 {stroke:black;stroke-width:20}
    .fil0 {fill:none}
   ]]>
  </style>
 </defs>
 <g id="图层_x0020_1">
  <metadata id="CorelCorpID_0Corel-Layer"/>
  <path class="fil0 str0" d="M1048 5350l1774 0c127,0 230,-104 230,-231l0 -4238c0,-127 -103,-231 -230,-231l-1644 0c-127,0 -230,104 -230,231l0 4238c0,127 103,231 230,231l55 0m57 -4465c-1,-8 -8,-16 -24,-18 -56,0 -101,46 -101,101 0,56 45,101 101,101 56,0 101,-45 101,-101 0,-55 -45,-101 -101,-101m24 318c-1,-8 -8,-16 -24,-17 -56,0 -101,45 -101,101 0,55 45,101 101,101 56,0 101,-46 101,-101 0,-56 -45,-101 -101,-101m24 315c-1,-9 -8,-17 -24,-18 -56,0 -101,45 -101,101 0,56 45,101 101,101 56,0 101,-45 101,-101 0,-56 -45,-101 -101,-101m186 -500c-12,3 -21,7 -21,28l0 17c0,24 19,43 43,43l0 0c24,0 43,-19 43,-43l0 -86c0,-24 -19,-44 -43,-44l0 0c-24,0 -43,20 -43,44l0 69m-206 -196l265 0c62,0 112,50 112,112l0 715c0,61 -50,111 -112,111l-265 0c-61,0 -112,-50 -112,-111l0 -715c0,-62 51,-112 112,-112zm0 28l263 0c50,0 92,42 92,92l0 698c0,51 -42,92 -92,92l-263 0c-51,0 -92,-41 -92,-92l0 -698c0,-50 41,-92 92,-92zm817 870c-1,-15 -14,-29 -41,-31 -96,0 -173,77 -173,173 0,96 77,173 173,173 96,0 173,-77 173,-173 0,-96 -77,-173 -173,-173"/>
 </g>
</svg>
