<?xml version="1.0" encoding="UTF-8"?>
<!DOCTYPE svg PUBLIC "-//W3C//DTD SVG 1.1//EN" "http://www.w3.org/Graphics/SVG/1.1/DTD/svg11.dtd">
<!-- Creator: CorelDRAW -->
<svg xmlns="http://www.w3.org/2000/svg" xml:space="preserve" width="40mm" height="60mm" style="shape-rendering:geometricPrecision; text-rendering:geometricPrecision; image-rendering:optimizeQuality; fill-rule:evenodd; clip-rule:evenodd"
viewBox="0 0 40 60"
 xmlns:xlink="http://www.w3.org/1999/xlink">
 <defs>
  <style type="text/css">
   <![CDATA[
    .str0 {stroke:#1F1A17;stroke-width:0.194}
    .str2 {stroke:#1F1A17;stroke-width:0.2}
    .str1 {stroke:#1F1A17;stroke-width:0.2}
    .fil0 {fill:none}
   ]]>
  </style>
 </defs>
 <g id="图层_x0020_1">
  <metadata id="CorelCorpID_0Corel-Layer"/>
  <path id="_164363584" class="fil0 str0" d="M19.9968 52.594c-0.0876,0.0028 -0.1697,0.0037 -0.246,0.0037 -0.6074,0 -0.7829,-0.0943 -0.7829,-0.4216 0,-0.1735 0.0981,-0.3131 0.2547,-0.3602 0.1264,-0.0387 0.4348,-0.0548 1.0411,-0.0548 0.6555,0 0.8347,0.0906 0.8347,0.4235 0,0.2764 -0.2085,0.4112 -0.6328,0.4112"/>
  <line id="_164338160" class="fil0 str0" x1="20.4656" y1="52.5958" x2="19.8026" y2= "52.594" />
  <path id="_120883320" class="fil0 str0" d="M29.6414 8.0342l0.0067 -0.0934 0 0.1802m-0.0067 -0.0868z"/>
  <path id="_120883824" class="fil0 str0" d="M29.6481 8.121c0.0132,0.3027 0.0499,0.4272 0.3083,1.0412 0.2189,0.5206 0.2509,0.6725 0.3396,1.6326"/>
  <path id="_120876544" class="fil0 str0" d="M30.2696 10.6137c-0.2443,-1.128 -1.0082,-1.84 -1.9986,-1.8627"/>
  <line id="_120900008" class="fil0 str0" x1="28.271" y1="8.751" x2="27.8032" y2= "8.7491" />
  <line id="_120854088" class="fil0 str0" x1="27.89" y1="8.6557" x2="27.89" y2= "6.6506" />
  <path id="_120911544" class="fil0 str0" d="M27.8164 6.6836l-0.0132 0.0538 -15.7731 0.0066m15.7863 -0.0604z"/>
  <line id="_120909472" class="fil0 str0" x1="12.1169" y1="6.8307" x2="12.1169" y2= "8.8359" />
  <path id="_120860136" class="fil0 str0" d="M12.0301 8.7491c-0.0292,0 -0.0575,0 -0.0849,0 -0.8356,0 -1.3279,0.233 -1.7806,0.8432 -0.3132,0.4207 -0.4188,0.7498 -0.4603,1.4364"/>
  <path id="_164806232" class="fil0 str0" d="M9.7175 10.8476c0,-0.7875 0.0773,-1.1657 0.3867,-1.8787"/>
  <line id="_166358520" class="fil0 str0" x1="10.1042" y1="8.9689" x2="10.2627" y2= "8.5567" />
  <path id="_167884000" class="fil0 str0" d="M10.2627 8.5567c0.0669,-0.2216 0.0811,-0.3339 0.1094,-0.8573"/>
  <line id="_169215176" class="fil0 str0" x1="10.2787" y1="7.7937" x2="8.2735" y2= "7.7937" />
  <line id="_165002920" class="fil0 str0" x1="8.3603" y1="7.8805" x2="8.3603" y2= "52.1327" />
  <line id="_169163376" class="fil0 str0" x1="8.4537" y1="52.046" x2="10.4588" y2= "52.046" />
  <path id="_168984280" class="fil0 str0" d="M10.3655 51.9526c-0.0406,-0.5602 -0.0528,-0.6055 -0.3556,-1.311 -0.0217,-0.049 -0.0406,-0.0952 -0.0566,-0.1396 -0.1632,-0.43 -0.1679,-0.4602 -0.2424,-1.3902"/>
  <path id="_167852864" class="fil0 str0" d="M9.7373 49.292c0.1085,1.0582 0.9385,1.9259 1.876,1.9636"/>
  <line id="_167884560" class="fil0 str0" x1="11.6133" y1="51.2556" x2="12.2103" y2= "51.2575" />
  <line id="_164347792" class="fil0 str0" x1="12.1169" y1="51.3443" x2="12.1169" y2= "53.3494" />
  <line id="_164848848" class="fil0 str0" x1="12.2103" y1="53.2626" x2="27.9834" y2= "53.2626" />
  <line id="_165023864" class="fil0 str0" x1="27.89" y1="53.1693" x2="27.89" y2= "51.1641" />
  <path id="_165023640" class="fil0 str0" d="M27.9834 51.2575c0.0434,0 0.0839,0 0.1207,0 0.8092,0 1.2874,-0.2348 1.7486,-0.8592 0.2396,-0.3254 0.3188,-0.5263 0.4499,-1.1393"/>
  <path id="_120882480" class="fil0 str0" d="M30.2026 49.4061l0.067 0.033 -0.0208 0.2235m-0.0462 -0.2565z"/>
  <path id="_113197192" class="fil0 str0" d="M30.2488 49.6626c-0.0405,0.4395 -0.0405,0.4395 -0.3055,1.1007"/>
  <line id="_119917184" class="fil0 str0" x1="29.9433" y1="50.7633" x2="29.8103" y2= "51.0962" />
  <path id="_166476272" class="fil0 str0" d="M29.8103 51.0962c-0.1396,0.348 -0.1588,0.3837 -0.1787,0.9779 0.0585,-0.0038 0,0.008 0.09,0.0058"/>
  <line id="_119932976" class="fil0 str0" x1="29.7216" y1="52.0799" x2="31.7266" y2= "52.0865" />
  <line id="_165006840" class="fil0 str0" x1="31.6333" y1="51.9922" x2="31.6333" y2= "7.7399" />
  <line id="_119932472" class="fil0 str0" x1="31.5466" y1="7.8333" x2="29.5415" y2= "7.8333" />
  <line id="_119883584" class="fil0 str0" x1="29.6348" y1="7.9201" x2="29.6678" y2= "8.2276" />
  <line id="_120859296" class="fil0 str0" x1="8.6892" y1="44.0805" x2="8.7833" y2= "44.0938" />
  <line id="_164979792" class="fil0 str0" x1="13.2234" y1="52.1919" x2="13.2303" y2= "52.1573" />
  <path id="_82951808" class="fil0 str0" d="M13.2303 52.1573c0.0139,-0.0692 0.0139,-0.0692 0.0139,-0.0752"/>
  <line id="_164817488" class="fil0 str0" x1="13.2442" y1="52.0821" x2="13.2452" y2= "52.0792" />
  <path id="_165027168" class="fil0 str0" d="M12.6452 52.0792c0.0801,-0.1197 0.1632,-0.1771 0.2572,-0.1771 0.1533,0 0.2829,0.1316 0.2829,0.2879 0,0.1573 -0.1236,0.278 -0.2849,0.278 -0.2018,0 -0.3027,-0.1504 -0.2582,-0.3819 0.005,-0.0267 0.0069,-0.0327 0.0237,-0.1049"/>
  <line id="_164849296" class="fil0 str0" x1="13.8477" y1="52.1919" x2="13.8546" y2= "52.1573" />
  <path id="_164978224" class="fil0 str0" d="M13.8546 52.1573c0.0138,-0.0692 0.0138,-0.0692 0.0138,-0.0752"/>
  <line id="_164800576" class="fil0 str0" x1="13.8684" y1="52.0821" x2="13.8684" y2= "52.0792" />
  <path id="_166818400" class="fil0 str0" d="M13.2684 52.0792c0.0722,-0.1188 0.1563,-0.1781 0.2533,-0.1781 0.1563,0 0.2859,0.1306 0.2869,0.2879 0,0.1583 -0.1247,0.279 -0.2879,0.279 -0.1682,0 -0.2671,-0.101 -0.2671,-0.2731 0,-0.0554 0.0049,-0.0851 0.0366,-0.2137"/>
  <path id="_164977384" class="fil0 str0" d="M13.9454 52.0736c0.0712,-0.1178 0.1563,-0.1781 0.2532,-0.1781 0.1543,0 0.2829,0.1306 0.2829,0.2879 0,0.1593 -0.1226,0.279 -0.2839,0.279 -0.1662,0 -0.2691,-0.1019 -0.2691,-0.2662 0,-0.0593 0.006,-0.09 0.0446,-0.2206"/>
  <path id="_164977104" class="fil0 str0" d="M14.61 52.0792c0.0801,-0.1188 0.1652,-0.1771 0.2602,-0.1771 0.1523,0 0.279,0.1296 0.2799,0.2879 0,0.1583 -0.1216,0.278 -0.2819,0.278 -0.1702,0 -0.2721,-0.1039 -0.2721,-0.278 0,-0.0534 0.006,-0.0871 0.0347,-0.2088"/>
  <path id="_164976992" class="fil0 str0" d="M15.2332 52.0792c0.0713,-0.1178 0.1563,-0.1781 0.2533,-0.1781 0.1543,0 0.2829,0.1306 0.2829,0.2879 0,0.1593 -0.1216,0.279 -0.2839,0.279 -0.1662,0 -0.2691,-0.1019 -0.2691,-0.2662 0,-0.0593 0.0069,-0.09 0.0455,-0.2206"/>
  <path id="_164976992_0" class="fil0 str0" d="M15.7862 52.0792c0.0713,-0.1178 0.1563,-0.1781 0.2533,-0.1781 0.1543,0 0.2829,0.1306 0.2829,0.2879 0,0.1593 -0.1216,0.279 -0.2839,0.279 -0.1662,0 -0.2691,-0.1019 -0.2691,-0.2662 0,-0.0593 0.0069,-0.09 0.0455,-0.2206"/>
  <path id="_164541096" class="fil0 str0" d="M8.9285 25.8091l0.0139 -0.0989 -0.0139 0 -0.0049 -0.8953m0.0049 0.9942z"/>
  <path id="_113198200" class="fil0 str0" d="M8.9236 24.8149c-0.004,-0.5303 0.0514,-0.6401 0.3185,-0.6401"/>
  <line id="_82954888" class="fil0 str0" x1="9.2421" y1="24.1748" x2="9.2451" y2= "24.1748" />
  <path id="_165111472" class="fil0 str0" d="M9.2451 24.1748c0.1049,0 0.1385,0.005 0.1731,0.0248 0.0436,0.0267 0.0713,0.0791 0.0891,0.1751 0.0326,0.1681 0.0386,0.3848 0.0386,1.3978"/>
  <line id="_164980072" class="fil0 str0" x1="9.5459" y1="25.7725" x2="9.5459" y2= "25.7844" />
  <path id="_113197584" class="fil0 str0" d="M9.5459 25.7844c0,0.9754 -0.009,1.2861 -0.0386,1.4434 -0.0297,0.1573 -0.0881,0.1998 -0.2701,0.1998 -0.1623,0 -0.2266,-0.0336 -0.2661,-0.1415 -0.0396,-0.1078 -0.0525,-0.2839 -0.0525,-0.7291 0,-0.3423 0.007,-0.7251 0.0169,-0.9655"/>
  <path id="_82956960" class="fil0 str0" d="M8.9285 19.2393l0.007 -0.098 -0.007 0 -0.0128 -2.1774m0.0128 2.2754z"/>
  <path id="_164793408" class="fil0 str0" d="M8.9157 16.9639c-0.003,-0.4679 0.0089,-0.6559 0.0494,-0.7706 0.0406,-0.1148 0.1069,-0.1514 0.2731,-0.1514 0.1029,0 0.1949,0.0376 0.2335,0.0969"/>
  <line id="_164983040" class="fil0 str0" x1="9.4717" y1="16.1388" x2="9.4806" y2= "16.1517" />
  <path id="_113197416" class="fil0 str0" d="M9.4806 16.1517c0.0653,0.1019 0.0653,0.1019 0.0672,2.7077"/>
  <line id="_165034896" class="fil0 str0" x1="9.5478" y1="18.8594" x2="9.5478" y2= "19.2007" />
  <path id="_164805616" class="fil0 str0" d="M9.5478 19.2007c0.001,2.2655 -0.0029,2.7255 -0.0247,2.954 -0.0227,0.2285 -0.0673,0.2711 -0.2849,0.2711 -0.3087,0 -0.3235,-0.0525 -0.3235,-1.1397 0,-0.8171 0.0039,-1.2109 0.0208,-2.2635"/>
  <ellipse class="fil0 str1" cx="24.7496" cy="52.2762" rx="0.256099" ry="0.244099"/>
  <ellipse class="fil0 str1" cx="25.2616" cy="52.2762" rx="0.256099" ry="0.244099"/>
  <ellipse class="fil0 str1" cx="25.7736" cy="52.2762" rx="0.256099" ry="0.244099"/>
  <ellipse class="fil0 str1" cx="26.2856" cy="52.2762" rx="0.256099" ry="0.244099"/>
  <ellipse class="fil0 str1" cx="26.7976" cy="52.2762" rx="0.256099" ry="0.244099"/>
  <ellipse class="fil0 str1" cx="27.3096" cy="52.2762" rx="0.256099" ry="0.244099"/>
  <path id="_168796496" class="fil0 str0" d="M17.9802 18.4673c0.1087,-0.9032 0.7867,-1.5214 1.6683,-1.5214 0.9443,0 1.7036,0.7563 1.7036,1.6958 0,0.9315 -0.7622,1.6898 -1.6997,1.6898 -0.9306,0 -1.684,-0.7485 -1.684,-1.6741 0,-0.1078 0.001,-0.1176 0.0392,-0.3988"/>
  <path class="fil0 str1" d="M11.2502 11.332l0 -0.1146c0,-0.6978 0.5658,-1.2636 1.2635,-1.2636l3.4472 0.0001c0.6977,-0.0001 1.2635,0.5657 1.2635,1.2634l0 0.1147c0,0.6976 -0.5658,1.2634 -1.2635,1.2634l-3.4472 0.0001c-0.6977,-0.0001 -1.2635,-0.5659 -1.2635,-1.2636z"/>
  <ellipse class="fil0 str1" cx="22.8125" cy="7.8965" rx="0.664199" ry="0.689099"/>
  <path class="fil0 str1" d="M30.6888 16.9685l0.0001 0c0.292,0 0.5288,0.1704 0.5288,0.3805l0 4.0668c0,0.2101 -0.2368,0.3805 -0.5288,0.3805l-0.0001 0c-0.292,0 -0.5289,-0.1704 -0.5289,-0.3805l0 -4.0668c0,-0.2101 0.2369,-0.3805 0.5289,-0.3805z"/>
  <ellipse class="fil0 str2" cx="25.1435" cy="7.9655" rx="0.3937" ry="0.3683"/>
  <ellipse class="fil0 str2" cx="9.3021" cy="51.6122" rx="0.2355" ry="0.2361"/>
 </g>
</svg>
