<?xml version="1.0" encoding="UTF-8"?>
<!DOCTYPE svg PUBLIC "-//W3C//DTD SVG 1.1//EN" "http://www.w3.org/Graphics/SVG/1.1/DTD/svg11.dtd">
<!-- Creator: CorelDRAW X8 -->
<svg xmlns="http://www.w3.org/2000/svg" xml:space="preserve" width="40mm" height="60mm" version="1.1" style="shape-rendering:geometricPrecision; text-rendering:geometricPrecision; image-rendering:optimizeQuality; fill-rule:evenodd; clip-rule:evenodd"
viewBox="0 0 4000 6000"
 xmlns:xlink="http://www.w3.org/1999/xlink">
 <defs>
  <style type="text/css">
   <![CDATA[
    .str0 {stroke:black;stroke-width:7.62}
    .fil0 {fill:none}
   ]]>
  </style>
 </defs>
 <g id="图层_x0020_1">
  <metadata id="CorelCorpID_0Corel-Layer"/>
  <path class="fil0 str0" d="M1201 740l488 0c67,0 121,55 121,122l0 960c0,67 -54,121 -121,121l-488 0c-67,0 -122,-54 -122,-121l0 -960c0,-67 55,-122 122,-122zm17 35l454 0c57,0 103,47 103,104l0 926c0,57 -46,103 -103,103l-454 0c-57,0 -104,-46 -104,-103l0 -926c0,-57 47,-104 104,-104zm133 49c-1,-15 -14,-29 -41,-31 -97,0 -175,78 -175,175 0,97 78,175 175,175 97,0 175,-78 175,-175 0,-97 -78,-175 -175,-175m271 238c-29,7 -50,18 -50,67l0 41c0,57 46,104 103,104l0 0c57,0 104,-47 104,-104l0 -235c0,-57 -47,-103 -104,-103l0 0c-57,0 -103,46 -103,103l0 194m-180 100c-1,-14 -14,-28 -41,-30 -97,0 -175,78 -175,175 0,97 78,175 175,175 97,0 175,-78 175,-175 0,-97 -78,-175 -175,-175m41 407c-1,-15 -14,-28 -41,-31 -97,0 -175,79 -175,176 0,96 78,175 175,175 97,0 175,-79 175,-175 0,-97 -78,-176 -175,-176m-289 3773l1832 0c109,0 198,-89 198,-198l0 -4271c0,-109 -89,-198 -198,-198l-1706 0c-109,0 -198,89 -198,198l0 4271c0,109 89,198 198,198l105 0c102,0 162,15 180,33"/>
 </g>
</svg>
