<?xml version="1.0" encoding="UTF-8"?>
<!DOCTYPE svg PUBLIC "-//W3C//DTD SVG 1.1//EN" "http://www.w3.org/Graphics/SVG/1.1/DTD/svg11.dtd">
<!-- Creator: CorelDRAW X8 -->
<svg xmlns="http://www.w3.org/2000/svg" xml:space="preserve" width="40mm" height="60mm" version="1.1" style="shape-rendering:geometricPrecision; text-rendering:geometricPrecision; image-rendering:optimizeQuality; fill-rule:evenodd; clip-rule:evenodd"
viewBox="0 0 4000 6000"
 xmlns:xlink="http://www.w3.org/1999/xlink">
 <defs>
  <style type="text/css">
   <![CDATA[
    .str0 {stroke:black;stroke-width:7.62}
    .fil0 {fill:none}
   ]]>
  </style>
 </defs>
 <g id="图层_x0020_1">
  <metadata id="CorelCorpID_0Corel-Layer"/>
  <path class="fil0 str0" d="M1050 5350l1730 0c164,0 299,-135 299,-299l0 -4102c0,-164 -135,-299 -299,-299l-1560 0c-164,0 -299,135 -299,299l0 4102c0,164 135,299 299,299l108 0m304 -4530c0,-5 -4,-9 -12,-9 -30,0 -53,23 -53,52 0,30 23,53 53,53 29,0 52,-23 52,-53 0,-29 -23,-52 -52,-52m287 53c-5,-18 -14,-32 -57,-32l-37 0c-20,0 -36,16 -36,35l0 0c0,20 16,36 36,36l362 0c19,0 35,-16 35,-36l0 0c0,-19 -16,-35 -35,-35l-325 0m194 4124c-1,-17 -15,-32 -45,-34 -105,0 -190,85 -190,190 0,106 85,191 190,191 105,0 191,-85 191,-191 0,-105 -86,-190 -191,-190m5 -4238c0,-3 -3,-6 -9,-7 -22,0 -39,18 -39,39 0,22 17,39 39,39 21,0 38,-17 38,-39 0,-21 -17,-39 -38,-39"/>
 </g>
</svg>
