<?xml version="1.0" encoding="UTF-8"?>
<!DOCTYPE svg PUBLIC "-//W3C//DTD SVG 1.1//EN" "http://www.w3.org/Graphics/SVG/1.1/DTD/svg11.dtd">
<!-- Creator: CorelDRAW X8 -->
<svg xmlns="http://www.w3.org/2000/svg" xml:space="preserve" width="40mm" height="60mm" version="1.1" style="shape-rendering:geometricPrecision; text-rendering:geometricPrecision; image-rendering:optimizeQuality; fill-rule:evenodd; clip-rule:evenodd"
viewBox="0 0 4000 6000"
 xmlns:xlink="http://www.w3.org/1999/xlink">
 <defs>
  <style type="text/css">
   <![CDATA[
    .str0 {stroke:#332C2B;stroke-width:10;stroke-linecap:round;stroke-linejoin:round}
    .fil0 {fill:none;fill-rule:nonzero}
   ]]>
  </style>
 </defs>
 <g id="图层_x0020_1">
  <metadata id="CorelCorpID_0Corel-Layer"/>
  <g id="_2929716824144">
   <g>
    <line class="fil0 str0" x1="3148" y1="650" x2="3148" y2= "686" />
    <polyline class="fil0 str0" points="3148,3002 3148,3014 3156,3012 3160,3006 3160,2998 3156,2991 3148,2990 "/>
    <path class="fil0 str0" d="M3148 2990c0,-748 0,-1495 1,-2243 -2,-51 -23,-72 -77,-77 -113,-11 -608,-20 -1010,-19 -309,1 -618,4 -927,9 -199,3 -243,7 -265,24"/>
    <line class="fil0 str0" x1="870" y1="684" x2="861" y2= "689" />
    <path class="fil0 str0" d="M861 689c-21,13 -21,13 -21,250"/>
    <line class="fil0 str0" x1="840" y1="939" x2="841" y2= "5237" />
    <path class="fil0 str0" d="M841 5237c0,52 1,54 19,74"/>
    <line class="fil0 str0" x1="860" y1="5311" x2="864" y2= "5314" />
    <path class="fil0 str0" d="M864 5314c20,23 20,23 511,30"/>
    <line class="fil0 str0" x1="1375" y1="5344" x2="1450" y2= "5345" />
    <path class="fil0 str0" d="M1450 5345c205,3 411,5 616,5 401,1 1013,-14 1042,-24 15,-6 33,-25 37,-38 4,-18 5,-25 4,-424"/>
    <line class="fil0 str0" x1="3149" y1="4864" x2="3148" y2= "2954" />
    <line class="fil0 str0" x1="1995" y1="1191" x2="1995" y2= "1178" />
    <path class="fil0 str0" d="M1995 1178c7,1 10,3 12,11 39,0 76,-43 76,-88 0,-49 -40,-89 -90,-89 -50,0 -90,40 -90,90 0,49 39,89 87,89 8,0 15,-1 35,-4"/>
    <polyline class="fil0 str0" points="1995,1261 2007,1259 2007,1261 "/>
    <path class="fil0 str0" d="M2007 1261c8,0 15,0 21,0 70,0 102,-14 124,-55 12,-23 15,-51 15,-127 0,-67 -7,-93 -34,-119 -30,-29 -45,-33 -139,-33 -82,0 -96,3 -120,20 -38,26 -49,52 -49,121 0,69 2,97 6,117 4,19 11,31 30,47 25,23 47,29 97,29 29,0 57,0 85,-1"/>
    <polyline class="fil0 str0" points="1337,4690 1349,4690 1349,4689 "/>
    <path class="fil0 str0" d="M1349 4689c14,0 24,0 32,0 30,0 40,2 61,11"/>
    <polyline class="fil0 str0" points="1442,4700 1442,4702 1441,4703 1440,4705 1436,4706 "/>
    <path class="fil0 str0" d="M1436 4706c0,3 0,6 0,10 0,20 -2,64 -10,181 -4,-3 -6,-5 -6,-7 -4,2 -14,2 -29,2 -48,0 -101,-4 -159,-12 3,-3 5,-5 7,-6"/>
    <line class="fil0 str0" x1="1239" y1="4874" x2="1238" y2= "4873" />
    <path class="fil0 str0" d="M1238 4873c-2,-54 -3,-86 -3,-109 0,-44 3,-60 13,-80"/>
    <polyline class="fil0 str0" points="1248,4684 1250,4684 1251,4686 1253,4687 1255,4690 1385,4690 "/>
    <polyline class="fil0 str0" points="2539,1100 2552,1099 2552,1094 "/>
    <path class="fil0 str0" d="M2552 1094c-3,-3 -5,-4 -8,-7"/>
    <line class="fil0 str0" x1="2544" y1="1087" x2="2539" y2= "1087" />
    <path class="fil0 str0" d="M2539 1087c0,-2 0,-4 0,-7 0,-57 -19,-73 -89,-73 -39,0 -60,5 -73,17 -13,12 -18,32 -18,69 0,48 4,69 16,82 12,13 31,17 75,17 23,1 37,0 48,-3 13,-2 21,-7 27,-14 11,-13 15,-34 15,-89"/>
    <line class="fil0 str0" x1="2540" y1="1086" x2="2540" y2= "1051" />
    <line class="fil0 str0" x1="1995" y1="1881" x2="1995" y2= "1868" />
    <path class="fil0 str0" d="M1995 1868c7,0 12,6 12,13"/>
    <line class="fil0 str0" x1="2007" y1="1881" x2="2093" y2= "1881" />
    <path class="fil0 str0" d="M2093 1881c49,-4 60,-25 60,-119 0,-34 -3,-60 -8,-72 -9,-23 -58,-35 -148,-35 -54,0 -73,1 -91,2 -23,2 -37,5 -46,11 -10,6 -15,16 -17,31 -3,11 -3,23 -3,59 0,34 1,53 2,68 2,17 6,29 12,37 11,15 28,19 78,19 37,0 74,-1 111,-1"/>
    <line class="fil0 str0" x1="2163" y1="1770" x2="2176" y2= "1770" />
    <path class="fil0 str0" d="M2176 1770c0,-7 -4,-11 -13,-12"/>
    <line class="fil0 str0" x1="2163" y1="1758" x2="2163" y2= "1543" />
    <path class="fil0 str0" d="M2163 1543c0,-122 0,-122 -6,-138"/>
    <line class="fil0 str0" x1="2157" y1="1405" x2="2155" y2= "1402" />
    <path class="fil0 str0" d="M2155 1402c-23,-53 -58,-67 -168,-67 -89,0 -118,11 -148,57 -15,23 -15,30 -15,508"/>
    <line class="fil0 str0" x1="1824" y1="1900" x2="1824" y2= "1905" />
    <path class="fil0 str0" d="M1824 1905c0,150 1,182 5,211 4,28 9,37 32,57"/>
    <line class="fil0 str0" x1="1861" y1="2173" x2="1862" y2= "2174" />
    <path class="fil0 str0" d="M1862 2174c27,23 44,28 108,28 69,0 95,-1 114,-5 19,-4 30,-10 47,-26 29,-28 33,-43 33,-120"/>
    <line class="fil0 str0" x1="2164" y1="2051" x2="2163" y2= "1801" />
    <path class="fil0 str0" d="M2163 1801c0,-42 0,-55 1,-79"/>
    <line class="fil0 str0" x1="1995" y1="866" x2="1995" y2= "854" />
    <path class="fil0 str0" d="M1995 854c-7,0 -11,4 -12,12"/>
    <line class="fil0 str0" x1="1983" y1="866" x2="1955" y2= "866" />
    <path class="fil0 str0" d="M1955 866c-54,0 -54,0 -64,2"/>
    <line class="fil0 str0" x1="1891" y1="868" x2="1886" y2= "869" />
    <path class="fil0 str0" d="M1886 869c-59,12 -110,65 -114,121 -6,320 -8,595 -8,859 0,178 1,232 7,273 5,41 14,59 43,88 38,39 60,44 179,44 123,0 148,-7 188,-50 20,-23 33,-50 35,-76"/>
    <line class="fil0 str0" x1="2216" y1="2128" x2="2213" y2= "975" />
    <path class="fil0 str0" d="M2213 975c-7,-38 -45,-82 -84,-98 -25,-10 -34,-11 -102,-11"/>
    <line class="fil0 str0" x1="2027" y1="866" x2="1947" y2= "866" />
   </g>
  </g>
 </g>
</svg>
