<?xml version="1.0" encoding="UTF-8"?>
<!DOCTYPE svg PUBLIC "-//W3C//DTD SVG 1.1//EN" "http://www.w3.org/Graphics/SVG/1.1/DTD/svg11.dtd">
<!-- Creator: CorelDRAW X8 -->
<svg xmlns="http://www.w3.org/2000/svg" xml:space="preserve" width="40mm" height="60mm" version="1.1" style="shape-rendering:geometricPrecision; text-rendering:geometricPrecision; image-rendering:optimizeQuality; fill-rule:evenodd; clip-rule:evenodd"
viewBox="0 0 4000 6000"
 xmlns:xlink="http://www.w3.org/1999/xlink">
 <defs>
  <style type="text/css">
   <![CDATA[
    .str0 {stroke:black;stroke-width:7.62}
    .fil0 {fill:none}
   ]]>
  </style>
 </defs>
 <g id="图层_x0020_1">
  <metadata id="CorelCorpID_0Corel-Layer"/>
  <path class="fil0 str0" d="M2834 690c-1,-5 -5,-10 -15,-11 -34,0 -61,28 -61,62 0,34 27,62 61,62 34,0 62,-28 62,-62 0,-34 -28,-62 -62,-62m-1029 53c-5,-19 -16,-34 -61,-34l-39 0c-21,0 -38,17 -38,38l0 0c0,20 17,37 38,37l626 0c21,0 38,-17 38,-37l0 0c0,-21 -17,-38 -38,-38l-587 0m792 -8c-1,-5 -5,-10 -15,-11 -34,0 -62,28 -62,62 0,34 28,62 62,62 34,0 62,-28 62,-62 0,-34 -28,-62 -62,-62m-992 2c0,-6 -6,-12 -17,-13 -41,0 -73,33 -73,73 0,40 32,73 73,73 40,0 73,-33 73,-73 0,-40 -33,-73 -73,-73m-291 19c0,-5 -5,-10 -14,-11 -34,0 -62,28 -62,62 0,34 28,62 62,62 34,0 61,-28 61,-62 0,-34 -27,-62 -61,-62m-195 4674c-4,-9 -23,-24 -37,-24 -17,0 -32,-15 -32,-32l0 -4612c0,-18 15,-32 32,-32l2080 0c17,0 32,14 32,32l0 4612c0,17 -15,32 -32,32l-2108 0"/>
 </g>
</svg>
