<?xml version="1.0" encoding="UTF-8"?>
<!DOCTYPE svg PUBLIC "-//W3C//DTD SVG 1.1//EN" "http://www.w3.org/Graphics/SVG/1.1/DTD/svg11.dtd">
<!-- Creator: CorelDRAW 2020 (64-Bit) -->
<svg xmlns="http://www.w3.org/2000/svg" xml:space="preserve" width="40mm" height="60mm" version="1.1" style="shape-rendering:geometricPrecision; text-rendering:geometricPrecision; image-rendering:optimizeQuality; fill-rule:evenodd; clip-rule:evenodd"
viewBox="0 0 4000 6000"
 xmlns:xlink="http://www.w3.org/1999/xlink"
 xmlns:xodm="http://www.corel.com/coreldraw/odm/2003">
 <defs>
  <style type="text/css">
   <![CDATA[
    .str0 {stroke:black;stroke-width:7.62;stroke-miterlimit:22.9256}
    .fil0 {fill:none}
   ]]>
  </style>
 </defs>
 <g id="图层_x0020_1">
  <metadata id="CorelCorpID_0Corel-Layer"/>
  <path class="fil0 str0" d="M993.59 5230.95l1788.8 0c159.95,0 290.85,-130.9 290.85,-290.85l0 -4067.22c0,-23.92 -6.06,-52.73 -15.92,-66.34 -38.11,-52.64 -83.02,-101.85 -130.83,-142.68 -17.79,-15.19 -24.6,-13.82 -54.68,-13.82l-736.77 0c-12.98,0 -30.86,6.58 -30.86,30.85l0 143.19c0,53.42 -43.73,97.15 -97.15,97.15l0 0c-53.43,0 -97.16,-43.72 -97.16,-97.15l0 -138.14c0,-27.92 -13.7,-35.9 -39.36,-35.9l-720.3 0c-39.83,0 -46.97,1.34 -71.07,20.14 -52.27,40.77 -98.31,93.03 -138.38,155.83 -6.94,10.89 -14,33.63 -14,65.4l0 4048.69c0,159.96 130.9,290.85 290.85,290.85l57.2 0c186.62,0 214.47,32.19 245.15,119.06"/>
 </g>
</svg>
