<?xml version="1.0" encoding="UTF-8"?>
<!DOCTYPE svg PUBLIC "-//W3C//DTD SVG 1.1//EN" "http://www.w3.org/Graphics/SVG/1.1/DTD/svg11.dtd">
<!-- Creator: CorelDRAW X8 -->
<svg xmlns="http://www.w3.org/2000/svg" xml:space="preserve" width="40mm" height="60mm" version="1.1" style="shape-rendering:geometricPrecision; text-rendering:geometricPrecision; image-rendering:optimizeQuality; fill-rule:evenodd; clip-rule:evenodd"
viewBox="0 0 4000 6000"
 xmlns:xlink="http://www.w3.org/1999/xlink">
 <defs>
  <style type="text/css">
   <![CDATA[
    .str0 {stroke:black;stroke-width:20}
    .fil0 {fill:none}
   ]]>
  </style>
 </defs>
 <g id="图层_x0020_1">
  <metadata id="CorelCorpID_0Corel-Layer"/>
  <path class="fil0 str0" d="M885 5350l2038 0c120,0 218,-98 218,-218l0 -4264c0,-120 -98,-218 -218,-218l-1846 0c-120,0 -218,98 -218,218l0 4264c0,120 98,218 218,218l104 0m459 -4568c-1,-4 -4,-8 -12,-9 -28,0 -51,23 -51,51 0,27 23,50 51,50 28,0 50,-23 50,-50 0,-28 -22,-51 -50,-51m275 46c-5,-19 -16,-35 -63,-35l-40 0c-21,0 -39,18 -39,39l0 0c0,21 18,39 39,39l399 0c21,0 39,-18 39,-39l0 0c0,-21 -18,-39 -39,-39l-359 0m678 21c-3,-12 -8,-20 -28,-20l-16 0c-23,0 -42,19 -42,42l0 0c0,23 19,42 42,42l84 0c23,0 42,-19 42,-42l0 0c0,-23 -19,-42 -42,-42l-68 0m-1338 -10c-1,-5 -5,-10 -14,-11 -33,0 -59,27 -59,59 0,33 26,59 59,59 32,0 59,-26 59,-59 0,-32 -27,-59 -59,-59"/>
 </g>
</svg>
