<?xml version="1.0" encoding="UTF-8"?>
<!DOCTYPE svg PUBLIC "-//W3C//DTD SVG 1.1//EN" "http://www.w3.org/Graphics/SVG/1.1/DTD/svg11.dtd">
<!-- Creator: CorelDRAW X8 -->
<svg xmlns="http://www.w3.org/2000/svg" xml:space="preserve" width="40mm" height="60mm" version="1.1" style="shape-rendering:geometricPrecision; text-rendering:geometricPrecision; image-rendering:optimizeQuality; fill-rule:evenodd; clip-rule:evenodd"
viewBox="0 0 4000 6000"
 xmlns:xlink="http://www.w3.org/1999/xlink">
 <defs>
  <style type="text/css">
   <![CDATA[
    .str0 {stroke:#332C2B;stroke-width:19.4}
    .fil0 {fill:none;fill-rule:nonzero}
   ]]>
  </style>
 </defs>
 <g id="图层_x0020_1">
  <metadata id="CorelCorpID_0Corel-Layer"/>
  <g id="_2482209814544">
   <g>
    <line class="fil0 str0" x1="3078" y1="651" x2="3078" y2= "682" />
    <polyline class="fil0 str0" points="2822,5263 2822,5273 2817,5271 2816,5270 "/>
    <path class="fil0 str0" d="M2816 5270c-1,-2 -1,-2 -3,-4"/>
    <line class="fil0 str0" x1="2813" y1="5266" x2="2813" y2= "5265" />
    <path class="fil0 str0" d="M2813 5265c-83,14 -121,32 -182,85"/>
    <line class="fil0 str0" x1="2127" y1="4943" x2="2120" y2= "4949" />
    <path class="fil0 str0" d="M2120 4949c0,-1 -1,-2 -1,-2"/>
    <polyline class="fil0 str0" points="2119,4947 2119,4944 2118,4943 "/>
    <path class="fil0 str0" d="M2118 4943c-101,0 -76,0 -177,0 -81,0 -91,1 -115,11 -49,20 -80,67 -80,120 0,60 43,114 102,127 15,3 46,3 157,3 96,0 122,0 144,-3 21,-2 30,-6 50,-19 36,-26 58,-66 58,-109 0,-72 -54,-125 -134,-130 -17,-1 -30,-2 -39,-2"/>
    <line class="fil0 str0" x1="2084" y1="4941" x2="2080" y2= "4941" />
    <path class="fil0 str0" d="M2080 4941c-30,0 -30,0 -135,90"/>
    <line class="fil0 str0" x1="1945" y1="5031" x2="1929" y2= "5044" />
    <line class="fil0 str0" x1="2110" y1="803" x2="2103" y2= "808" />
    <path class="fil0 str0" d="M2103 808c0,-1 -1,-1 -1,-2"/>
    <line class="fil0 str0" x1="2102" y1="806" x2="2102" y2= "806" />
    <path class="fil0 str0" d="M2102 806c0,-1 0,-1 -1,-3"/>
    <polyline class="fil0 str0" points="2101,803 2101,802 1877,801 "/>
    <path class="fil0 str0" d="M1877 801c-37,1 -54,3 -65,8 -10,5 -14,13 -14,31 0,16 7,28 20,32 12,4 30,4 181,4"/>
    <line class="fil0 str0" x1="1999" y1="876" x2="2013" y2= "876" />
    <path class="fil0 str0" d="M2013 876c110,0 134,0 153,-1 11,-1 18,-2 22,-4 4,-1 6,-2 9,-6"/>
    <line class="fil0 str0" x1="2197" y1="865" x2="2198" y2= "864" />
    <path class="fil0 str0" d="M2198 864c5,-5 7,-14 7,-24 0,-33 -15,-39 -99,-39"/>
    <line class="fil0 str0" x1="2106" y1="801" x2="2094" y2= "801" />
    <path class="fil0 str0" d="M2094 801c-36,0 -45,0 -57,5 -12,4 -20,10 -56,37"/>
    <line class="fil0 str0" x1="1981" y1="843" x2="1969" y2= "853" />
    <line class="fil0 str0" x1="1555" y1="860" x2="1548" y2= "865" />
    <path class="fil0 str0" d="M1548 865c-1,-4 -1,-4 -1,-8"/>
    <line class="fil0 str0" x1="1547" y1="857" x2="1549" y2= "853" />
    <path class="fil0 str0" d="M1549 853c3,-1 5,-1 9,-2 0,-3 0,-7 0,-10 0,-39 -30,-70 -68,-70 -39,0 -70,31 -70,70 0,38 31,69 70,69 38,0 67,-28 67,-65 0,-8 -1,-12 -3,-26"/>
    <polyline class="fil0 str0" points="1554,819 1552,819 1551,820 1546,813 1545,813 1544,815 1537,809 1537,810 1536,810 "/>
    <path class="fil0 str0" d="M1536 810c0,1 0,2 -1,2"/>
    <polyline class="fil0 str0" points="1535,812 1520,808 1520,812 "/>
    <path class="fil0 str0" d="M1520 812c-10,4 -13,5 -51,28"/>
    <polyline class="fil0 str0" points="3027,5264 3019,5269 3019,5267 3019,5267 3019,5265 3018,5264 "/>
    <path class="fil0 str0" d="M3018 5264c-603,0 -1206,0 -1809,0 -167,-3 -257,-76 -277,-225"/>
    <line class="fil0 str0" x1="932" y1="5039" x2="931" y2= "5034" />
    <path class="fil0 str0" d="M931 5034c-5,-35 -5,-35 -5,-84"/>
    <line class="fil0 str0" x1="926" y1="4950" x2="922" y2= "991" />
    <path class="fil0 str0" d="M922 991c1,-50 2,-62 7,-93 12,-94 29,-134 74,-177 51,-49 111,-69 213,-69"/>
    <line class="fil0 str0" x1="1216" y1="652" x2="2248" y2= "650" />
    <path class="fil0 str0" d="M2248 650c554,0 579,0 606,4 141,24 206,99 222,256"/>
    <polyline class="fil0 str0" points="3076,910 3078,973 3075,5001 "/>
    <path class="fil0 str0" d="M3075 5001c0,146 -87,245 -229,260"/>
    <line class="fil0 str0" x1="2846" y1="5261" x2="2790" y2= "5264" />
   </g>
  </g>
 </g>
</svg>
