<?xml version="1.0" encoding="UTF-8"?>
<!DOCTYPE svg PUBLIC "-//W3C//DTD SVG 1.1//EN" "http://www.w3.org/Graphics/SVG/1.1/DTD/svg11.dtd">
<!-- Creator: CorelDRAW X8 -->
<svg xmlns="http://www.w3.org/2000/svg" xml:space="preserve" width="40mm" height="60mm" version="1.1" style="shape-rendering:geometricPrecision; text-rendering:geometricPrecision; image-rendering:optimizeQuality; fill-rule:evenodd; clip-rule:evenodd"
viewBox="0 0 4000 6000"
 xmlns:xlink="http://www.w3.org/1999/xlink">
 <defs>
  <style type="text/css">
   <![CDATA[
    .str0 {stroke:#332C2B;stroke-width:10}
    .fil0 {fill:none}
   ]]>
  </style>
 </defs>
 <g id="图层_x0020_1">
  <metadata id="CorelCorpID_0Corel-Layer"/>
  <path class="fil0 str0" d="M2564 899c1,-22 -25,-39 -34,-39 -32,0 -59,26 -59,59 0,33 27,59 59,59 33,0 59,-26 59,-59 0,-33 -26,-59 -59,-59m-596 -58c-6,-21 -17,-37 -69,-37l-44 0c-23,0 -42,19 -42,42l0 0c0,23 19,42 42,42l353 0c24,0 43,-19 43,-42l0 0c0,-23 -19,-42 -43,-42l-309 0m-571 129c-3,-12 -7,-20 -27,-20l-17 0c-23,0 -42,19 -42,42l0 0c0,23 19,42 42,42l152 0c24,0 43,-19 43,-42l0 0c0,-23 -19,-42 -43,-42l-135 0m-335 4476l2008 0c115,0 210,-94 210,-210l0 -4280c0,-116 -95,-210 -210,-210l-1880 0c-115,0 -210,94 -210,210l0 4280c0,116 95,210 210,210l260 0"/>
 </g>
</svg>
