<?xml version="1.0" encoding="UTF-8"?>
<!DOCTYPE svg PUBLIC "-//W3C//DTD SVG 1.1//EN" "http://www.w3.org/Graphics/SVG/1.1/DTD/svg11.dtd">
<!-- Creator: CorelDRAW X8 -->
<svg xmlns="http://www.w3.org/2000/svg" xml:space="preserve" width="40mm" height="60mm" version="1.1" style="shape-rendering:geometricPrecision; text-rendering:geometricPrecision; image-rendering:optimizeQuality; fill-rule:evenodd; clip-rule:evenodd"
viewBox="0 0 4000 6000"
 xmlns:xlink="http://www.w3.org/1999/xlink">
 <defs>
  <style type="text/css">
   <![CDATA[
    .str0 {stroke:black;stroke-width:7.62}
    .fil0 {fill:none}
   ]]>
  </style>
 </defs>
 <g id="图层_x0020_1">
  <metadata id="CorelCorpID_0Corel-Layer"/>
  <path class="fil0 str0" d="M1027 5350l1815 0c114,0 207,-93 207,-207l0 -4286c0,-114 -93,-207 -207,-207l-526 0c-2,0 -3,0 -4,2l-6 7c-2,2 -3,2 -5,2l-178 0c-18,0 -31,7 -31,32l0 17c0,47 -38,84 -84,84l0 0c-46,0 -84,-37 -84,-84l0 -14c0,-28 -14,-35 -35,-35l-175 0c-2,0 -3,0 -4,-2l-6 -7c-1,-2 -2,-2 -4,-2l-542 0c-114,0 -207,93 -207,207l0 4286c0,114 93,207 207,207l217 0"/>
 </g>
</svg>
