<?xml version="1.0" encoding="UTF-8"?>
<!DOCTYPE svg PUBLIC "-//W3C//DTD SVG 1.1//EN" "http://www.w3.org/Graphics/SVG/1.1/DTD/svg11.dtd">
<!-- Creator: CorelDRAW X8 -->
<svg xmlns="http://www.w3.org/2000/svg" xml:space="preserve" width="40mm" height="60mm" version="1.1" style="shape-rendering:geometricPrecision; text-rendering:geometricPrecision; image-rendering:optimizeQuality; fill-rule:evenodd; clip-rule:evenodd"
viewBox="0 0 4000 6000"
 xmlns:xlink="http://www.w3.org/1999/xlink">
 <defs>
  <style type="text/css">
   <![CDATA[
    .str0 {stroke:#332C2B;stroke-width:10;stroke-linecap:round;stroke-linejoin:round}
    .fil0 {fill:none;fill-rule:nonzero}
   ]]>
  </style>
 </defs>
 <g id="图层_x0020_1">
  <metadata id="CorelCorpID_0Corel-Layer"/>
  <g id="_1875413276352">
   <g>
    <line class="fil0 str0" x1="3149" y1="655" x2="3149" y2= "685" />
    <polyline class="fil0 str0" points="2151,1435 2151,1445 2158,1444 2162,1438 2162,1432 2158,1427 2151,1425 2151,1352 "/>
    <path class="fil0 str0" d="M2151 1352c0,-86 0,-86 -4,-101"/>
    <line class="fil0 str0" x1="2147" y1="1251" x2="2146" y2= "1247" />
    <path class="fil0 str0" d="M2146 1247c-18,-65 -78,-110 -147,-110 -78,0 -145,62 -150,140 -1,13 -1,80 -1,159 0,77 0,143 1,156 5,78 72,140 151,140 75,0 139,-55 150,-129"/>
    <line class="fil0 str0" x1="2150" y1="1603" x2="2150" y2= "1600" />
    <path class="fil0 str0" d="M2150 1600c1,-6 1,-6 1,-138"/>
    <line class="fil0 str0" x1="2151" y1="1462" x2="2151" y2= "1395" />
    <line class="fil0 str0" x1="3122" y1="2029" x2="3122" y2= "1956" />
    <path class="fil0 str0" d="M3122 1956c0,-94 0,-115 -1,-131 -1,-10 -2,-16 -4,-19 -1,-4 -3,-5 -7,-9"/>
    <line class="fil0 str0" x1="3110" y1="1797" x2="3110" y2= "1797" />
    <path class="fil0 str0" d="M3110 1797c-7,-5 -16,-8 -27,-9 -5,-1 -10,-2 -22,-5"/>
    <polyline class="fil0 str0" points="3061,1783 3061,1786 3051,1790 3052,1790 3052,1790 3053,1791 3053,1792 3040,1810 3040,1810 3041,1810 3042,1810 "/>
    <path class="fil0 str0" d="M3042 1810c0,2 -1,2 -4,11"/>
    <polyline class="fil0 str0" points="3038,1821 3032,1811 3041,1821 3040,1822 3041,2221 "/>
    <path class="fil0 str0" d="M3041 2221c0,27 1,32 4,37 4,5 10,9 25,19 1,-2 1,-2 1,-3"/>
    <polyline class="fil0 str0" points="3071,2274 3071,2272 3071,2275 3081,2279 3061,2275 3081,2276 3081,2276 "/>
    <path class="fil0 str0" d="M3081 2276c31,-4 41,-15 41,-48"/>
    <line class="fil0 str0" x1="3122" y1="2228" x2="3122" y2= "1989" />
    <polyline class="fil0 str0" points="3040,1458 3040,1448 3047,1449 3051,1455 3051,1461 3047,1467 3040,1468 "/>
    <path class="fil0 str0" d="M3040 1468c0,96 0,72 0,168 -1,46 0,60 3,79"/>
    <polyline class="fil0 str0" points="3043,1715 3046,1715 3046,1714 "/>
    <path class="fil0 str0" d="M3046 1714c1,1 1,2 4,10"/>
    <polyline class="fil0 str0" points="3050,1724 3051,1723 3052,1723 3052,1724 3070,1736 "/>
    <path class="fil0 str0" d="M3070 1736c1,-1 1,-2 1,-3"/>
    <polyline class="fil0 str0" points="3071,1733 3071,1731 3071,1734 3081,1738 3061,1734 3081,1735 3081,1736 "/>
    <path class="fil0 str0" d="M3081 1736c27,-4 39,-14 41,-36 0,-68 1,-137 1,-205 0,-143 -1,-274 -2,-281 -3,-21 -17,-31 -43,-31 -4,0 -4,0 -17,1"/>
    <polyline class="fil0 str0" points="3061,1184 3061,1184 3061,1187 3051,1191 3052,1191 3052,1192 3053,1192 3053,1193 "/>
    <path class="fil0 str0" d="M3053 1193c-9,7 -11,16 -11,43 0,7 0,16 0,26"/>
    <line class="fil0 str0" x1="3042" y1="1262" x2="3046" y2= "1386" />
    <path class="fil0 str0" d="M3046 1386c1,26 2,41 2,53 0,24 -2,35 -8,59"/>
    <polyline class="fil0 str0" points="960,2171 960,2180 966,2179 970,2173 970,2167 966,2162 960,2160 960,2116 "/>
    <path class="fil0 str0" d="M960 2116c0,-23 0,-30 -3,-48"/>
    <polyline class="fil0 str0" points="957,2068 955,2068 951,2059 951,2059 950,2059 949,2061 948,2061 "/>
    <path class="fil0 str0" d="M948 2061c-12,-9 -22,-13 -31,-13 -9,0 -18,4 -27,12 -12,10 -13,16 -13,73"/>
    <line class="fil0 str0" x1="877" y1="2133" x2="877" y2= "2140" />
    <path class="fil0 str0" d="M877 2140c0,86 1,104 3,120 1,8 3,14 6,18 2,3 4,4 11,8"/>
    <line class="fil0 str0" x1="897" y1="2286" x2="899" y2= "2287" />
    <path class="fil0 str0" d="M899 2287c7,4 14,6 20,6 14,0 25,-7 42,-29"/>
    <line class="fil0 str0" x1="961" y1="2264" x2="960" y2= "2262" />
    <path class="fil0 str0" d="M960 2262c-1,0 -4,0 -4,0"/>
    <polyline class="fil0 str0" points="956,2262 959,2262 963,2252 949,2262 960,2252 960,2130 "/>
    <polyline class="fil0 str0" points="878,1654 878,1644 885,1645 889,1650 889,1656 885,1661 879,1664 878,1903 "/>
    <path class="fil0 str0" d="M878 1903c0,35 2,42 19,56"/>
    <polyline class="fil0 str0" points="897,1959 898,1958 898,1957 899,1956 899,1957 907,1963 "/>
    <path class="fil0 str0" d="M907 1963c1,-1 1,-2 1,-2"/>
    <line class="fil0 str0" x1="908" y1="1961" x2="908" y2= "1962" />
    <path class="fil0 str0" d="M908 1962c6,0 10,1 13,1 15,0 23,-6 40,-30 -2,0 -2,0 -3,-1"/>
    <polyline class="fil0 str0" points="958,1932 956,1932 959,1932 963,1922 949,1933 960,1922 957,1366 955,1366 951,1356 951,1357 950,1357 949,1358 948,1358 931,1344 931,1345 930,1346 930,1346 "/>
    <path class="fil0 str0" d="M930 1346c-2,0 -3,0 -10,-3"/>
    <polyline class="fil0 str0" points="920,1343 920,1347 920,1346 "/>
    <path class="fil0 str0" d="M920 1346c-27,2 -39,17 -39,46"/>
    <line class="fil0 str0" x1="881" y1="1392" x2="889" y2= "1510" />
    <path class="fil0 str0" d="M889 1510c3,47 5,84 5,108 0,36 -4,54 -16,75"/>
    <polyline class="fil0 str0" points="1020,827 1020,837 1027,835 1031,830 1031,823 1027,818 1021,817 1025,708 "/>
    <path class="fil0 str0" d="M1025 708c0,-29 -2,-43 -10,-57 -2,0 -3,2 -5,4 -1,0 -2,0 -4,0"/>
    <polyline class="fil0 str0" points="1006,655 846,662 847,663 847,664 848,666 852,668 860,5349 "/>
    <path class="fil0 str0" d="M860 5349c2,-1 4,-3 6,-6"/>
    <polyline class="fil0 str0" points="866,5343 866,5344 958,5346 "/>
    <path class="fil0 str0" d="M958 5346c38,0 54,-2 71,-11 -2,-3 -5,-5 -7,-6"/>
    <polyline class="fil0 str0" points="1022,5329 1023,5329 1017,5002 "/>
    <path class="fil0 str0" d="M1017 5002c3,0 5,0 7,1"/>
    <polyline class="fil0 str0" points="1024,5003 1025,5005 1028,5002 1030,5003 "/>
    <path class="fil0 str0" d="M1030 5003c0,2 1,4 1,5 0,2 -1,4 -2,7"/>
    <line class="fil0 str0" x1="1029" y1="5015" x2="1032" y2= "5017" />
    <path class="fil0 str0" d="M1032 5017c-1,1 -3,2 -4,3 31,73 96,120 173,126"/>
    <line class="fil0 str0" x1="1201" y1="5146" x2="1257" y2= "5147" />
    <path class="fil0 str0" d="M1257 5147c4,0 8,0 13,0 0,6 -3,8 -10,10"/>
    <line class="fil0 str0" x1="1260" y1="5157" x2="1257" y2= "5249" />
    <path class="fil0 str0" d="M1257 5249c0,38 3,53 12,68"/>
    <polyline class="fil0 str0" points="1269,5317 1272,5316 1272,5314 1274,5314 1274,5312 1275,5313 "/>
    <path class="fil0 str0" d="M1275 5313c614,6 461,5 1075,9 274,1 372,-3 395,-18"/>
    <polyline class="fil0 str0" points="2745,5304 2744,5301 2742,5300 2742,5299 2740,5299 2740,5137 2744,5137 2751,5143 2751,5146 "/>
    <path class="fil0 str0" d="M2751 5146c8,1 16,1 24,1 100,0 159,-42 206,-145"/>
    <polyline class="fil0 str0" points="2981,5002 2982,5002 2983,5003 2984,5003 2985,5005 2989,5003 "/>
    <path class="fil0 str0" d="M2989 5003c0,2 1,4 1,6 0,1 -1,3 -1,5"/>
    <polyline class="fil0 str0" points="2989,5014 2987,5016 2990,5019 2989,5020 "/>
    <path class="fil0 str0" d="M2989 5020c-2,1 -4,2 -6,2"/>
    <line class="fil0 str0" x1="2983" y1="5022" x2="2975" y2= "5275" />
    <path class="fil0 str0" d="M2975 5275c0,39 3,59 10,75 3,-2 5,-4 6,-7"/>
    <polyline class="fil0 str0" points="2991,5343 2991,5343 2992,5344 3087,5346 "/>
    <path class="fil0 str0" d="M3087 5346c37,0 51,-2 67,-9"/>
    <polyline class="fil0 str0" points="3154,5337 3154,5335 3152,5334 3152,5332 "/>
    <path class="fil0 str0" d="M3152 5332c-2,0 -2,-1 -3,-1"/>
    <polyline class="fil0 str0" points="3149,5331 3141,650 3140,650 3139,651 3137,652 3136,654 2972,663 "/>
    <path class="fil0 str0" d="M2972 663c1,2 2,3 5,6"/>
    <line class="fil0 str0" x1="2977" y1="669" x2="2983" y2= "994" />
    <path class="fil0 str0" d="M2983 994c-3,0 -5,-1 -7,-3"/>
    <polyline class="fil0 str0" points="2976,991 2973,994 2971,992 "/>
    <path class="fil0 str0" d="M2971 992c-1,-2 -1,-4 -1,-6 0,-1 0,-3 1,-4"/>
    <line class="fil0 str0" x1="2971" y1="982" x2="2968" y2= "981" />
    <path class="fil0 str0" d="M2968 981c3,-3 4,-5 5,-5 -35,-75 -97,-120 -174,-126"/>
    <line class="fil0 str0" x1="2799" y1="850" x2="2746" y2= "849" />
    <path class="fil0 str0" d="M2746 849c-5,0 -10,0 -15,0 0,-6 3,-9 10,-10"/>
    <line class="fil0 str0" x1="2741" y1="839" x2="2742" y2= "759" />
    <path class="fil0 str0" d="M2742 759c0,-39 -2,-53 -10,-70 -2,1 -3,2 -5,5"/>
    <line class="fil0 str0" x1="2727" y1="694" x2="1255" y2= "703" />
    <path class="fil0 str0" d="M1255 703c1,2 2,3 6,5"/>
    <line class="fil0 str0" x1="1261" y1="708" x2="1260" y2= "859" />
    <path class="fil0 str0" d="M1260 859c-6,-2 -9,-5 -10,-10 -125,0 -183,37 -230,146"/>
    <line class="fil0 str0" x1="1020" y1="995" x2="1017" y2= "994" />
    <path class="fil0 str0" d="M1017 994c0,-2 -1,-3 -2,-4"/>
    <line class="fil0 str0" x1="1015" y1="990" x2="1012" y2= "992" />
    <path class="fil0 str0" d="M1012 992c-1,-2 -1,-4 -1,-5 0,-2 0,-4 1,-6"/>
    <polyline class="fil0 str0" points="1012,981 1014,980 1011,977 "/>
    <path class="fil0 str0" d="M1011 977c2,-2 4,-3 7,-3"/>
    <line class="fil0 str0" x1="1018" y1="974" x2="1022" y2= "787" />
    <line class="fil0 str0" x1="2001" y1="5183" x2="2001" y2= "5173" />
    <path class="fil0 str0" d="M2001 5173c-6,0 -9,3 -10,10 -28,-1 -47,-1 -59,-1 -28,0 -39,2 -54,9 0,2 2,4 5,6 -1,4 -1,7 -1,26"/>
    <polyline class="fil0 str0" points="1882,5223 1882,5255 1885,5255 1887,5261 1888,5261 1889,5260 1890,5260 1890,5260 1894,5265 1895,5264 1895,5263 1896,5263 1916,5281 1918,5280 "/>
    <path class="fil0 str0" d="M1918 5280c0,-2 0,-3 1,-5"/>
    <polyline class="fil0 str0" points="1919,5275 1919,5278 1928,5282 1928,5277 1928,5278 2093,5277 2093,5274 2102,5270 2101,5269 2101,5268 2100,5267 2123,5247 2122,5246 2122,5246 2122,5246 2121,5246 2122,5246 2125,5240 "/>
    <path class="fil0 str0" d="M2125 5240c-2,0 -2,0 -3,-1"/>
    <polyline class="fil0 str0" points="2122,5239 2120,5239 2121,5233 2110,5243 2120,5233 "/>
    <path class="fil0 str0" d="M2120 5233c0,-2 0,-3 0,-5 0,-26 -1,-31 -7,-51 -2,2 -2,2 -4,3 -1,1 -1,1 -2,3"/>
    <line class="fil0 str0" x1="2107" y1="5183" x2="1962" y2= "5183" />
    <polyline class="fil0 str0" points="1564,5194 1458,5194 1458,5196 1448,5197 1448,5199 1449,5200 1440,5203 1440,5204 1441,5205 1441,5206 1433,5211 1434,5211 1434,5211 1435,5211 1435,5212 1435,5213 1429,5221 "/>
    <path class="fil0 str0" d="M1429 5221c1,0 1,0 3,1"/>
    <polyline class="fil0 str0" points="1432,5222 1428,5231 1427,5231 "/>
    <path class="fil0 str0" d="M1427 5231c1,0 2,0 4,1"/>
    <polyline class="fil0 str0" points="1431,5232 1430,5241 1429,5241 1432,5241 1433,5251 1435,5251 1436,5250 1440,5259 1441,5259 1441,5258 1442,5258 1442,5257 1448,5265 1449,5265 1449,5264 1449,5264 1449,5263 1457,5269 1458,5269 1458,5269 1458,5268 1458,5267 1467,5271 1468,5270 1468,5268 1468,5269 1478,5270 1478,5268 1478,5269 1669,5269 1669,5266 1679,5265 1679,5263 1678,5263 1687,5259 1687,5258 1687,5257 1687,5257 1686,5257 1693,5251 1693,5250 1692,5250 1692,5249 1692,5249 1698,5242 1698,5241 1697,5241 1696,5240 1695,5240 1699,5232 1698,5231 1696,5231 1697,5231 1698,5221 1695,5221 1693,5211 1692,5211 1691,5212 1687,5203 1687,5203 1686,5204 1685,5204 1679,5196 1679,5197 1678,5197 1678,5197 1678,5197 1677,5198 1669,5193 "/>
    <path class="fil0 str0" d="M1669 5193c0,0 0,1 0,2"/>
    <polyline class="fil0 str0" points="1669,5195 1660,5191 1660,5191 "/>
    <path class="fil0 str0" d="M1660 5191c0,1 0,1 -1,3"/>
    <polyline class="fil0 str0" points="1659,5194 1650,5192 1650,5191 1650,5194 1524,5194 "/>
    <line class="fil0 str0" x1="2132" y1="1435" x2="2122" y2= "1435" />
    <path class="fil0 str0" d="M2122 1435c1,-6 3,-9 10,-10"/>
    <line class="fil0 str0" x1="2132" y1="1425" x2="2132" y2= "1335" />
    <path class="fil0 str0" d="M2132 1335c0,-68 0,-68 -5,-82"/>
    <line class="fil0 str0" x1="2127" y1="1253" x2="2126" y2= "1250" />
    <path class="fil0 str0" d="M2126 1250c-18,-57 -68,-95 -125,-95 -70,0 -128,55 -133,123 0,13 -1,81 -1,160 0,116 1,142 3,166 3,23 7,32 23,54 25,35 64,54 108,54 62,0 115,-42 128,-103"/>
    <line class="fil0 str0" x1="2129" y1="1609" x2="2129" y2= "1607" />
    <path class="fil0 str0" d="M2129 1607c3,-12 3,-12 3,-66"/>
    <line class="fil0 str0" x1="2132" y1="1541" x2="2132" y2= "1413" />
    <path class="fil0 str0" d="M2132 1413c0,-6 0,-12 0,-18"/>
    <line class="fil0 str0" x1="2000" y1="1072" x2="2000" y2= "1062" />
    <path class="fil0 str0" d="M2000 1062c6,0 8,2 10,8"/>
    <polyline class="fil0 str0" points="2010,1070 2019,1069 2019,1067 2019,1066 2019,1066 2018,1065 2018,1064 2024,1059 2023,1058 2022,1058 2022,1057 2022,1057 2027,1050 "/>
    <path class="fil0 str0" d="M2027 1050c-1,0 -2,-1 -3,-1"/>
    <polyline class="fil0 str0" points="2024,1049 2022,1049 2023,1049 2024,1040 2021,1040 2019,1031 2018,1031 2017,1032 "/>
    <path class="fil0 str0" d="M2017 1032c0,0 -1,0 -2,0"/>
    <polyline class="fil0 str0" points="2015,1032 2010,1026 2010,1026 2009,1026 2009,1027 2008,1027 2007,1028 2001,1023 2001,1023 2000,1024 "/>
    <path class="fil0 str0" d="M2000 1024c0,1 0,1 -1,3"/>
    <polyline class="fil0 str0" points="1999,1027 1990,1026 1990,1025 1990,1029 1981,1031 1981,1032 1982,1033 "/>
    <path class="fil0 str0" d="M1982 1033c0,1 1,2 1,2"/>
    <polyline class="fil0 str0" points="1983,1035 1976,1041 1977,1041 1977,1041 1978,1041 1978,1042 1979,1043 1973,1049 1974,1049 1975,1050 1975,1050 "/>
    <path class="fil0 str0" d="M1975 1050c1,0 1,0 2,1"/>
    <polyline class="fil0 str0" points="1977,1051 1978,1051 1976,1060 1976,1060 1980,1060 1981,1069 1983,1069 1984,1068 1984,1068 1985,1067 1986,1067 1991,1074 1993,1072 1993,1072 1993,1071 1993,1072 2000,1077 "/>
    <path class="fil0 str0" d="M2000 1077c1,-2 1,-2 1,-3"/>
    <polyline class="fil0 str0" points="2001,1074 2001,1072 2001,1072 2010,1074 2010,1070 2019,1069 "/>
    <polyline class="fil0 str0" points="2000,1357 2010,1355 2010,1355 "/>
    <path class="fil0 str0" d="M2010 1355c38,-2 57,-24 57,-65 0,-38 -31,-69 -69,-69 -37,0 -68,31 -68,69 0,36 31,67 67,67 6,0 12,0 27,-3"/>
    <path class="fil0 str0" d="M2000 1656c48,-6 74,-32 74,-74 0,-41 -32,-74 -74,-74 -41,0 -74,33 -74,74 0,41 33,73 73,73 6,0 12,0 26,-2"/>
    <polyline class="fil0 str0" points="2370,5265 2391,5262 2391,5259 2389,5257 2389,5257 2397,5251 2396,5249 2395,5249 2394,5249 "/>
    <path class="fil0 str0" d="M2394 5249c1,-6 2,-9 2,-12 0,-4 -1,-8 -3,-20"/>
    <polyline class="fil0 str0" points="2393,5217 2391,5217 2391,5218 "/>
    <path class="fil0 str0" d="M2391 5218c-1,0 -2,0 -3,1"/>
    <polyline class="fil0 str0" points="2388,5219 2382,5211 2382,5211 2382,5211 2382,5212 2381,5212 2380,5213 2372,5207 2372,5208 2371,5209 "/>
    <path class="fil0 str0" d="M2371 5209c0,0 0,0 -1,2"/>
    <polyline class="fil0 str0" points="2370,5211 2350,5215 2350,5217 2350,5217 "/>
    <path class="fil0 str0" d="M2350 5217c0,1 1,1 1,3"/>
    <polyline class="fil0 str0" points="2351,5220 2343,5226 2344,5226 2344,5226 2345,5226 2345,5227 2345,5228 2339,5236 2340,5236 2341,5237 "/>
    <path class="fil0 str0" d="M2341 5237c1,0 1,0 3,0"/>
    <line class="fil0 str0" x1="2344" y1="5237" x2="2343" y2= "5238" />
    <path class="fil0 str0" d="M2343 5238c3,11 4,13 14,28"/>
    <polyline class="fil0 str0" points="2357,5266 2359,5264 2359,5264 2360,5263 2368,5269 2368,5269 "/>
    <path class="fil0 str0" d="M2368 5269c1,-1 1,-1 2,-3"/>
    <polyline class="fil0 str0" points="2370,5266 2370,5266 2370,5264 2370,5265 2391,5262 "/>
    <path class="fil0 str0" d="M1552 838c43,-6 67,-30 67,-67 0,-36 -30,-66 -67,-66 -36,0 -66,30 -66,66 0,37 29,66 65,66 5,0 8,0 24,-2"/>
   </g>
  </g>
 </g>
</svg>
