<?xml version="1.0" encoding="UTF-8"?>
<!DOCTYPE svg PUBLIC "-//W3C//DTD SVG 1.1//EN" "http://www.w3.org/Graphics/SVG/1.1/DTD/svg11.dtd">
<!-- Creator: CorelDRAW X8 -->
<svg xmlns="http://www.w3.org/2000/svg" xml:space="preserve" width="40mm" height="60mm" version="1.1" style="shape-rendering:geometricPrecision; text-rendering:geometricPrecision; image-rendering:optimizeQuality; fill-rule:evenodd; clip-rule:evenodd"
viewBox="0 0 4000 6000"
 xmlns:xlink="http://www.w3.org/1999/xlink">
 <defs>
  <style type="text/css">
   <![CDATA[
    .str0 {stroke:black;stroke-width:7.62}
    .fil0 {fill:none}
   ]]>
  </style>
 </defs>
 <g id="图层_x0020_1">
  <metadata id="CorelCorpID_0Corel-Layer"/>
  <path class="fil0 str0" d="M917 5286l1929 0c131,0 237,-109 237,-241l0 -4154c0,-133 -106,-241 -237,-241l-749 0c-5,0 -8,5 -8,10l0 47c0,28 -23,51 -51,51 -28,0 -51,-23 -51,-51l0 -47c0,-5 -2,-10 -7,-10l-753 0c-130,0 -237,108 -237,241l0 4154c0,132 107,241 237,241 131,0 236,21 236,64"/>
 </g>
</svg>
