<?xml version="1.0" encoding="UTF-8"?>
<!DOCTYPE svg PUBLIC "-//W3C//DTD SVG 1.1//EN" "http://www.w3.org/Graphics/SVG/1.1/DTD/svg11.dtd">
<!-- Creator: CorelDRAW X8 -->
<svg xmlns="http://www.w3.org/2000/svg" xml:space="preserve" width="40mm" height="60mm" version="1.1" style="shape-rendering:geometricPrecision; text-rendering:geometricPrecision; image-rendering:optimizeQuality; fill-rule:evenodd; clip-rule:evenodd"
viewBox="0 0 4000 6000"
 xmlns:xlink="http://www.w3.org/1999/xlink">
 <defs>
  <style type="text/css">
   <![CDATA[
    .str0 {stroke:black;stroke-width:20}
    .fil0 {fill:none}
   ]]>
  </style>
 </defs>
 <g id="图层_x0020_1">
  <metadata id="CorelCorpID_0Corel-Layer"/>
  <path class="fil0 str0" d="M981 5350l1904 0c120,0 218,-98 218,-218l0 -4264c0,-120 -98,-218 -218,-218l-1770 0c-120,0 -218,98 -218,218l0 4264c0,120 98,218 218,218l116 0m344 -4469c-1,-7 -6,-13 -18,-14 -42,0 -76,34 -76,76 0,42 34,76 76,76 42,0 76,-34 76,-76 0,-42 -34,-76 -76,-76m-307 -9c0,-9 -9,-18 -26,-19 -61,0 -110,49 -110,110 0,61 49,110 110,110 61,0 111,-49 111,-110 0,-61 -50,-110 -111,-110m26 343c0,-9 -9,-18 -26,-19 -61,0 -110,49 -110,110 0,61 49,110 110,110 61,0 111,-49 111,-110 0,-61 -50,-110 -111,-110m360 19c-1,-9 -9,-18 -26,-19 -61,0 -110,49 -110,110 0,61 49,110 110,110 61,0 110,-49 110,-110 0,-61 -49,-110 -110,-110m-309 343c-1,-9 -9,-18 -26,-19 -60,0 -109,49 -109,109 0,60 49,109 109,109 60,0 109,-49 109,-109 0,-60 -49,-109 -109,-109m344 72c0,-4 -3,-7 -9,-7 -21,0 -38,17 -38,38 0,21 17,38 38,38 21,0 38,-17 38,-38 0,-21 -17,-38 -38,-38m-349 -723l359 0c60,0 110,50 110,111l0 672c0,61 -50,111 -110,111l-359 0c-61,0 -111,-50 -111,-111l0 -672c0,-61 50,-111 111,-111zm-5 -40l368 0c75,0 136,61 136,137l0 693c0,76 -61,137 -136,137l-368 0c-76,0 -137,-61 -137,-137l0 -693c0,-76 61,-137 137,-137z"/>
 </g>
</svg>
