<?xml version="1.0" encoding="UTF-8"?>
<!DOCTYPE svg PUBLIC "-//W3C//DTD SVG 1.1//EN" "http://www.w3.org/Graphics/SVG/1.1/DTD/svg11.dtd">
<!-- Creator: CorelDRAW 2020 (64-Bit) -->
<svg xmlns="http://www.w3.org/2000/svg" xml:space="preserve" width="40mm" height="60mm" version="1.1" style="shape-rendering:geometricPrecision; text-rendering:geometricPrecision; image-rendering:optimizeQuality; fill-rule:evenodd; clip-rule:evenodd"
viewBox="0 0 4000 6000"
 xmlns:xlink="http://www.w3.org/1999/xlink"
 xmlns:xodm="http://www.corel.com/coreldraw/odm/2003">
 <defs>
  <style type="text/css">
   <![CDATA[
    .str0 {stroke:#332C2B;stroke-width:20;stroke-miterlimit:22.9256}
    .fil0 {fill:none}
   ]]>
  </style>
 </defs>
 <g id="图层_x0020_1">
  <metadata id="CorelCorpID_0Corel-Layer"/>
  <path class="fil0 str0" d="M-36523.12 3356.63l0.66 -5588.77 611.2 -6.93 44.98 364.79 44.33 -379.68 15255.56 -14.56 38.7 212.67 49.27 -209.35 545.36 5.94c40.35,5.95 77.37,15.9 78.69,113.8l0 5481.47 -681.3 6.62c0,0 -29.12,681.3 -635.02,713.05 0,0 384.98,5.29 627.07,-41.01l54.22 152.15 10.59 -158.09c0,0 361.81,-50.29 422.67,-58.23l96.58 617.81 -874.46 80.7 -6876.04 6.45c-91.46,0 -115.37,-89.52 -121.39,-142.7l-19.18 -169.39c-15.47,-136.63 -84.72,-198.41 -222.22,-198.41l-1264.78 0c-214.81,0 -313.1,182.53 -502.27,182.53l-1924.33 0c-66,0 -119.99,53.99 -119.99,119.99l0 141.03c0,26.33 -7.28,70.62 -66.16,70.62l-3274.33 3.08 -1148.3 -29.1c0,0 -60.85,-436.58 21.17,-629.72 0,0 226.22,-42.34 452.44,14.55l38.37 91.29 25.13 -92.61c0,0 494.78,35.72 638.98,17.2 0,0 -601.94,-5.31 -665.44,-669.42l-660.76 -7.77zm182.39 -1783.52c0,-66.3 53.75,-120.05 120.05,-120.05 66.3,0 120.05,53.75 120.05,120.05 0,66.3 -53.75,120.05 -120.05,120.05 -66.3,0 -120.05,-53.75 -120.05,-120.05zm-22.18 -2404.43c0,-70.51 57.16,-127.67 127.67,-127.67 70.51,0 127.67,57.16 127.67,127.67 0,70.51 -57.16,127.67 -127.67,127.67 -70.51,0 -127.67,-57.16 -127.67,-127.67zm1074.26 3399.87l0 -0.01c0,-483.14 395.28,-878.42 878.42,-878.42l3614.2 0c483.14,0 878.42,395.28 878.42,878.42l0 0.01c0,483.14 -395.28,878.42 -878.42,878.42l-3614.2 0c-483.14,0 -878.42,-395.28 -878.42,-878.42zm100.66 7.19l0 0c0,-426.02 348.56,-774.58 774.58,-774.58l3575.82 0c426.02,0 774.58,348.56 774.58,774.58l0 0c0,426.02 -348.56,774.58 -774.58,774.58l-3575.82 0c-426.02,0 -774.58,-348.56 -774.58,-774.58zm126.33 4.59c0,-367.87 298.22,-666.09 666.09,-666.09 367.87,0 666.09,298.22 666.09,666.09 0,367.87 -298.22,666.09 -666.09,666.09 -367.87,0 -666.09,-298.22 -666.09,-666.09zm1385.74 0c0,-367.87 298.22,-666.09 666.09,-666.09 367.87,0 666.09,298.22 666.09,666.09 0,367.87 -298.22,666.09 -666.09,666.09 -367.87,0 -666.09,-298.22 -666.09,-666.09zm1420.81 0c0,-367.87 298.22,-666.09 666.09,-666.09 367.87,0 666.09,298.22 666.09,666.09 0,367.87 -298.22,666.09 -666.09,666.09 -367.87,0 -666.09,-298.22 -666.09,-666.09zm1457.2 0c0,-124.2 100.69,-224.89 224.89,-224.89 124.2,0 224.89,100.69 224.89,224.89 0,124.2 -100.69,224.89 -224.89,224.89 -124.2,0 -224.89,-100.69 -224.89,-224.89zm10404.08 -1364.63l0 -636.32c0,-100.42 82.15,-182.57 182.56,-182.57l0 0c100.43,0 182.58,82.15 182.58,182.57l0 636.32c0,100.42 -82.15,182.57 -182.58,182.57l0 0c-100.41,0 -182.56,-82.15 -182.56,-182.57zm77.02 -1571.67c0,-72.15 58.49,-130.64 130.64,-130.64 72.15,0 130.64,58.49 130.64,130.64 0,72.15 -58.49,130.64 -130.64,130.64 -72.15,0 -130.64,-58.49 -130.64,-130.64zm-16053.94 -2131.89l0 -453.52c0,-55 45.04,-100 100.01,-100l9893.87 0c54.95,0 257.44,45.03 257.44,100l0 466.28c0,54.97 -213.04,87.24 -268.02,87.24l-9883.29 0c-54.98,0 -100.01,-45 -100.01,-100zm5851.32 -213.57l0 -0.01c0,-65.49 53.57,-119.06 119.06,-119.06l725.65 0c65.49,0 119.06,53.57 119.06,119.06l0 0.01c0,65.49 -53.57,119.06 -119.06,119.06l-725.65 0c-65.49,0 -119.06,-53.57 -119.06,-119.06zm1126.47 0l0 -0.01c0,-65.49 53.57,-119.06 119.06,-119.06l725.65 0c65.49,0 119.06,53.57 119.06,119.06l0 0.01c0,65.49 -53.57,119.06 -119.06,119.06l-725.65 0c-65.49,0 -119.06,-53.57 -119.06,-119.06zm-7202.69 -535.2l0 -453.52c0,-55 77.47,-100 172.02,-100l17346.21 0c94.52,0 114.73,45.04 114.73,100l0 466.28c0,54.96 -38.34,87.24 -132.93,87.24l-17328.01 0c-94.56,0 -172.02,-45 -172.02,-100zm1384.12 -195.41c0,-70.5 57.16,-127.66 127.66,-127.66 70.5,0 127.66,57.16 127.66,127.66 0,70.5 -57.16,127.66 -127.66,127.66 -70.5,0 -127.66,-57.16 -127.66,-127.66zm884.45 -28.48l0 -0.01c0,-68.4 55.95,-124.35 124.35,-124.35l693.23 0c68.4,0 124.35,55.95 124.35,124.35l0 0.01c0,68.4 -55.95,124.35 -124.35,124.35l-693.23 0c-68.4,0 -124.35,-55.95 -124.35,-124.35zm1106.6 0l0 -0.01c0,-68.4 55.95,-124.35 124.35,-124.35l693.23 0c68.4,0 124.35,55.95 124.35,124.35l0 0.01c0,68.4 -55.95,124.35 -124.35,124.35l-693.23 0c-68.4,0 -124.35,-55.95 -124.35,-124.35zm4913.32 18.44l0 -0.01c0,-76.4 62.51,-138.9 138.89,-138.9l1373.22 0c76.38,0 138.89,62.5 138.89,138.9l0 0.01c0,76.4 -62.51,138.9 -138.89,138.9l-1373.22 0c-76.38,0 -138.89,-62.5 -138.89,-138.9z"/>
  <path class="fil0 str0" d="M1214.92 675l1489.67 0.18 1.85 162.91 -97.23 11.99 101.2 11.82 3.88 4066.31 -56.69 10.32 55.8 13.13 -1.58 145.36c-1.58,10.76 -4.24,20.62 -30.33,20.98l-1461.07 0 -1.77 -181.6c0,0 -181.59,-7.76 -190.06,-169.26 0,0 -1.41,102.61 10.93,167.14l-40.55 14.45 42.14 2.82c0,0 13.4,96.44 15.52,112.66l-164.68 25.75 -21.51 -233.09 -1.72 -1832.78c0,-24.38 23.87,-30.75 38.04,-32.36l45.15 -5.11c36.42,-4.12 52.89,-22.58 52.89,-59.23l0 -337.12c0,-57.26 -48.66,-83.46 -48.66,-133.88l0 -512.92c0,-17.59 -14.39,-31.99 -31.98,-31.99l-37.59 0c-7.02,0 -18.82,-1.94 -18.82,-17.63l-0.82 -872.76 7.75 -306.08c0,0 116.37,-16.22 167.85,5.65 0,0 11.29,60.29 -3.88,120.59l-24.33 10.23 24.69 6.7c0,0 -9.53,131.88 -4.59,170.32 0,0 1.42,-160.45 178.43,-177.37l2.07 -176.13zm475.39 48.62c17.68,0 32,14.32 32,32 0,17.67 -14.32,32 -32,32 -17.67,0 -31.99,-14.33 -31.99,-32 0,-17.68 14.32,-32 31.99,-32zm640.9 -5.91c18.79,0 34.03,15.23 34.03,34.03 0,18.79 -15.24,34.03 -34.03,34.03 -18.8,0 -34.03,-15.24 -34.03,-34.03 0,-18.8 15.23,-34.03 34.03,-34.03zm-906.23 286.34l0.01 0c128.78,0 234.14,105.36 234.14,234.14l0 963.35c0,128.78 -105.36,234.14 -234.14,234.14l-0.01 0c-128.78,0 -234.14,-105.36 -234.14,-234.14l0 -963.35c0,-128.78 105.36,-234.14 234.14,-234.14zm-1.91 26.83l0 0c113.55,0 206.46,92.9 206.46,206.46l0 953.12c0,113.55 -92.91,206.46 -206.46,206.46l0 0c-113.56,0 -206.46,-92.91 -206.46,-206.46l0 -953.12c0,-113.56 92.9,-206.46 206.46,-206.46zm-1.23 33.67c98.06,0 177.55,79.49 177.55,177.54 0,98.06 -79.49,177.55 -177.55,177.55 -98.05,0 -177.54,-79.49 -177.54,-177.55 0,-98.05 79.49,-177.54 177.54,-177.54zm0 369.36c98.06,0 177.55,79.49 177.55,177.55 0,98.05 -79.49,177.54 -177.55,177.54 -98.05,0 -177.54,-79.49 -177.54,-177.54 0,-98.06 79.49,-177.55 177.54,-177.55zm0 378.71c98.06,0 177.55,79.49 177.55,177.55 0,98.05 -79.49,177.54 -177.55,177.54 -98.05,0 -177.54,-79.49 -177.54,-177.54 0,-98.06 79.49,-177.55 177.54,-177.55zm0 388.42c33.11,0 59.95,26.83 59.95,59.94 0,33.1 -26.84,59.94 -59.95,59.94 -33.1,0 -59.94,-26.84 -59.94,-59.94 0,-33.11 26.84,-59.94 59.94,-59.94zm363.74 2773.16l169.61 0c26.77,0 48.66,21.9 48.66,48.67l0 0c0,26.76 -21.89,48.66 -48.66,48.66l-169.61 0c-26.77,0 -48.66,-21.9 -48.66,-48.66l0 0c0,-26.77 21.89,-48.67 48.66,-48.67zm418.93 20.53c19.23,0 34.82,15.59 34.82,34.83 0,19.23 -15.59,34.82 -34.82,34.82 -19.24,0 -34.83,-15.59 -34.83,-34.82 0,-19.24 15.59,-34.83 34.83,-34.83zm568.24 -4279.11l120.89 0c14.66,0 26.65,12 26.65,26.65l0 2637.18c0,14.64 -12,68.62 -26.65,68.62l-124.29 0c-14.65,0 -23.25,-56.79 -23.25,-71.44l0 -2634.36c0,-14.65 11.99,-26.65 26.65,-26.65zm56.93 1559.64l0 0c17.46,0 31.74,14.28 31.74,31.74l0 193.42c0,17.45 -14.28,31.73 -31.74,31.73l0 0c-17.46,0 -31.74,-14.28 -31.74,-31.73l0 -193.42c0,-17.46 14.28,-31.74 31.74,-31.74zm0 300.26l0 0c17.46,0 31.74,14.28 31.74,31.74l0 193.41c0,17.46 -14.28,31.74 -31.74,31.74l0 0c-17.46,0 -31.74,-14.28 -31.74,-31.74l0 -193.41c0,-17.46 14.28,-31.74 31.74,-31.74zm142.66 -1919.85l120.88 0c14.66,0 26.65,20.65 26.65,45.85l0 4623.57c0,25.19 -12,30.58 -26.65,30.58l-124.29 0c-14.64,0 -23.25,-10.22 -23.25,-35.43l0 -4618.72c0,-25.2 12,-45.85 26.66,-45.85zm52.08 368.93c18.79,0 34.03,15.24 34.03,34.03 0,18.79 -15.24,34.03 -34.03,34.03 -18.79,0 -34.03,-15.24 -34.03,-34.03 0,-18.79 15.24,-34.03 34.03,-34.03zm7.59 235.75l0.01 0c18.23,0 33.14,14.91 33.14,33.14l0 184.78c0,18.23 -14.91,33.15 -33.14,33.15l-0.01 0c-18.23,0 -33.14,-14.92 -33.14,-33.15l0 -184.78c0,-18.23 14.91,-33.14 33.14,-33.14zm0 294.96l0.01 0c18.23,0 33.14,14.91 33.14,33.14l0 184.78c0,18.23 -14.91,33.15 -33.14,33.15l-0.01 0c-18.23,0 -33.14,-14.92 -33.14,-33.15l0 -184.78c0,-18.23 14.91,-33.14 33.14,-33.14zm-4.91 1309.63l0 0c20.36,0 37.02,16.66 37.02,37.02l0 366.02c0,20.36 -16.66,37.02 -37.02,37.02l0 0c-20.37,0 -37.03,-16.66 -37.03,-37.02l0 -366.02c0,-20.36 16.66,-37.02 37.03,-37.02z"/>
 </g>
</svg>
