<?xml version="1.0" encoding="UTF-8"?>
<!DOCTYPE svg PUBLIC "-//W3C//DTD SVG 1.1//EN" "http://www.w3.org/Graphics/SVG/1.1/DTD/svg11.dtd">
<!-- Creator: CorelDRAW 2020 (64-Bit) -->
<svg xmlns="http://www.w3.org/2000/svg" xml:space="preserve" width="40mm" height="60mm" version="1.1" style="shape-rendering:geometricPrecision; text-rendering:geometricPrecision; image-rendering:optimizeQuality; fill-rule:evenodd; clip-rule:evenodd"
viewBox="0 0 4000 6000"
 xmlns:xlink="http://www.w3.org/1999/xlink"
 xmlns:xodm="http://www.corel.com/coreldraw/odm/2003">
 <defs>
  <style type="text/css">
   <![CDATA[
    .str0 {stroke:black;stroke-width:7.62;stroke-miterlimit:22.9256}
    .fil0 {fill:none}
   ]]>
  </style>
 </defs>
 <g id="图层_x0020_1">
  <metadata id="CorelCorpID_0Corel-Layer"/>
  <path class="fil0 str0" d="M1040.56 5343.52l1743.33 0c147.94,0 268.99,-121.06 268.99,-268.99l0 -4149.87c0,-147.94 -121.04,-268.99 -268.99,-268.99l-674.38 0c-23.98,0 -43.54,19.56 -43.54,43.54l0 35.61c0,39.91 -32.65,72.57 -72.57,72.57l0 0c-39.92,0 -72.57,-32.66 -72.57,-72.57l0 -35.61c0,-23.97 -19.56,-43.54 -43.54,-43.54l-674.38 0c-147.95,0 -268.99,121.04 -268.99,268.99l0 4149.87c0,147.94 121.05,268.99 268.99,268.99l36.37 0c33.32,0 52.08,4.99 57.9,12.15"/>
 </g>
</svg>
