<?xml version="1.0" encoding="UTF-8"?>
<!DOCTYPE svg PUBLIC "-//W3C//DTD SVG 1.1//EN" "http://www.w3.org/Graphics/SVG/1.1/DTD/svg11.dtd">
<!-- Creator: CorelDRAW X8 -->
<svg xmlns="http://www.w3.org/2000/svg" xml:space="preserve" width="40mm" height="60mm" version="1.1" style="shape-rendering:geometricPrecision; text-rendering:geometricPrecision; image-rendering:optimizeQuality; fill-rule:evenodd; clip-rule:evenodd"
viewBox="0 0 4000 6000"
 xmlns:xlink="http://www.w3.org/1999/xlink">
 <defs>
  <style type="text/css">
   <![CDATA[
    .str0 {stroke:black;stroke-width:10}
    .fil0 {fill:none}
   ]]>
  </style>
 </defs>
 <g id="图层_x0020_1">
  <metadata id="CorelCorpID_0Corel-Layer"/>
  <path class="fil0 str0" d="M-13280 8594c-3,-49 -46,-94 -135,-101 -318,0 -575,257 -575,575 0,317 257,575 575,575 317,0 575,-258 575,-575 0,-318 -258,-575 -575,-575"/>
  <path class="fil0 str0" d="M-20217 10641c0,-388 -1018,-737 -1518,-737 -501,0 -910,-409 -910,-910l0 -21780c0,-500 409,-910 910,-910l16480 0c500,0 910,410 910,910l0 21780c0,501 -410,910 -910,910l-17662 0"/>
  <g id="_2460010825488">
   <path class="fil0 str0" d="M2068 4955c-1,-10 -9,-19 -26,-20 -62,0 -111,50 -111,111 0,61 49,111 111,111 61,0 111,-50 111,-111 0,-61 -50,-111 -111,-111"/>
   <path class="fil0 str0" d="M728 5350c0,-75 -196,-142 -293,-142 -97,0 -176,-79 -176,-176l0 -4206c0,-97 79,-176 176,-176l3183 0c96,0 175,79 175,176l0 4206c0,97 -79,176 -175,176l-3411 0"/>
  </g>
 </g>
</svg>
