<?xml version="1.0" encoding="UTF-8"?>
<!DOCTYPE svg PUBLIC "-//W3C//DTD SVG 1.1//EN" "http://www.w3.org/Graphics/SVG/1.1/DTD/svg11.dtd">
<!-- Creator: CorelDRAW 2020 (64-Bit) -->
<svg xmlns="http://www.w3.org/2000/svg" xml:space="preserve" width="40mm" height="60mm" version="1.1" style="shape-rendering:geometricPrecision; text-rendering:geometricPrecision; image-rendering:optimizeQuality; fill-rule:evenodd; clip-rule:evenodd"
viewBox="0 0 4000 6000"
 xmlns:xlink="http://www.w3.org/1999/xlink"
 xmlns:xodm="http://www.corel.com/coreldraw/odm/2003">
 <defs>
  <style type="text/css">
   <![CDATA[
    .str0 {stroke:#332C2B;stroke-width:20;stroke-miterlimit:22.9256}
    .fil0 {fill:none}
   ]]>
  </style>
 </defs>
 <g id="图层_x0020_1">
  <metadata id="CorelCorpID_0Corel-Layer"/>
  <path class="fil0 str0" d="M2930.81 5320.64l251.36 0c14.97,0 27.23,-12.25 27.23,-27.22l0 -4599.32c0,-14.97 -12.25,-27.22 -27.23,-27.22l-209.63 0c-14.98,0 -27.23,12.25 -27.23,27.22l0 4599.32c0,14.97 12.25,27.22 27.23,27.22 14.97,0 64.84,6.35 64.84,23.82m-2005.01 -4514.44l524.66 0c40.34,0 73.36,33.01 73.36,73.36l0 496.1c0,40.35 -33.02,73.36 -73.36,73.36l-524.66 0c-40.34,0 -73.35,-33.01 -73.35,-73.36l0 -496.1c0,-40.35 33.01,-73.36 73.35,-73.36zm824.11 -8.31c82.97,0 150.23,67.26 150.23,150.23 0,82.97 -67.26,150.22 -150.23,150.22 -82.97,0 -150.23,-67.25 -150.23,-150.22 0,-82.97 67.26,-150.23 150.23,-150.23zm318.04 75.51c42.16,0 76.35,34.19 76.35,76.36 0,42.16 -34.19,76.35 -76.35,76.35 -42.17,0 -76.36,-34.19 -76.36,-76.35 0,-42.17 34.19,-76.36 76.36,-76.36zm-409.29 275.2l185.73 0c32.27,0 58.68,26.41 58.68,58.68l0 188.21c0,32.27 -26.41,58.68 -58.68,58.68l-185.73 0c-32.27,0 -58.68,-26.41 -58.68,-58.68l0 -188.21c0,-32.27 26.41,-58.68 58.68,-58.68zm345.02 86.95l131.68 0c37.57,0 68.32,30.74 68.32,68.32l0 0c0,37.58 -30.75,68.32 -68.32,68.32l-131.68 0c-37.57,0 -68.31,-30.74 -68.31,-68.32l0 0c0,-37.58 30.74,-68.32 68.31,-68.32zm-1070.58 -477l1562.31 0c66.37,0 120.67,54.3 120.67,120.67l0 496.52c0,66.37 -54.3,120.67 -120.67,120.67l-1562.31 0c-66.36,0 -120.66,-54.3 -120.66,-120.67l0 -496.52c0,-66.37 54.3,-120.67 120.66,-120.67zm-23.4 -34.78l1606.64 0c72.62,0 132.04,59.42 132.04,132.04l0 543.34c0,72.62 -59.42,132.04 -132.04,132.04l-1606.64 0c-72.62,0 -132.04,-59.42 -132.04,-132.04l0 -543.34c0,-72.62 59.42,-132.04 132.04,-132.04zm-201 4573.71l1938.84 0c56.48,0 102.7,-46.22 102.7,-102.7l0 -4460.23c0,-56.49 -46.22,-102.7 -102.7,-102.7l-1874.01 0c-56.49,0 -102.7,46.21 -102.7,102.7l0 978.82c0,39.67 49.68,83.95 49.68,122.06l0 1113.13c0,38.11 -49.68,71.41 -49.68,116.9l0 2129.32c0,56.48 46.22,102.7 102.7,102.7 56.48,0 114.23,10.11 140.05,34.37"/>
 </g>
</svg>
