<?xml version="1.0" encoding="UTF-8"?>
<!DOCTYPE svg PUBLIC "-//W3C//DTD SVG 1.1//EN" "http://www.w3.org/Graphics/SVG/1.1/DTD/svg11.dtd">
<!-- Creator: CorelDRAW 2020 (64-Bit) -->
<svg xmlns="http://www.w3.org/2000/svg" xml:space="preserve" width="40mm" height="60mm" version="1.1" style="shape-rendering:geometricPrecision; text-rendering:geometricPrecision; image-rendering:optimizeQuality; fill-rule:evenodd; clip-rule:evenodd"
viewBox="0 0 4000 6000"
 xmlns:xlink="http://www.w3.org/1999/xlink"
 xmlns:xodm="http://www.corel.com/coreldraw/odm/2003">
 <defs>
  <style type="text/css">
   <![CDATA[
    .str1 {stroke:#332C2B;stroke-width:20;stroke-miterlimit:22.9256}
    .str0 {stroke:#E62129;stroke-width:20;stroke-miterlimit:22.9256}
    .fil0 {fill:none}
   ]]>
  </style>
   <clipPath id="id0">
    <rect x="-95858.36" y="-11725.9" width="36241.16" height="25081.36"/>
   </clipPath>
 </defs>
 <g id="图层_x0020_1">
  <metadata id="CorelCorpID_0Corel-Layer"/>
  <g style="clip-path:url(#id0)">
   <image x="-95858.36" y="-11725.9" width="36241.16" height="25081.36" xlink:href="Surface Laptop 4 13.5 -11i（背膜）_Images\Surface Laptop 4 13.5 -11i（背膜）_ImgID1.png"/>
  </g>
  <rect class="fil0 str0" x="-93694.58" y="-10396.77" width="30800" height="22300"/>
  <rect class="fil0 str0" x="-93563.22" y="-10219.71" width="30537.28" height="21945.88" rx="517.24" ry="600"/>
  <path class="fil0 str1" d="M-27277.72 16021.87l21238.01 0c329.99,0 599.99,-270 599.99,-599.99l0 -29337.3c0,-330 -269.99,-599.99 -599.99,-599.99l-20745.89 0c-330,0 -600,269.99 -600,599.99l0 29337.3c0,330 270,599.99 600,599.99 330,0 606.86,56.71 724.6,133.44"/>
  <path class="fil0 str1" d="M328.43 5335.22l3254.53 0c50.57,0 91.94,-41.37 91.94,-91.94l0 -4495.67c0,-50.57 -41.37,-91.94 -91.94,-91.94l-3179.12 0c-50.57,0 -91.94,41.37 -91.94,91.94l0 4495.67c0,50.57 41.37,91.94 91.94,91.94 50.57,0 93,8.69 111.04,20.45"/>
 </g>
</svg>
