<?xml version="1.0" encoding="UTF-8"?>
<!DOCTYPE svg PUBLIC "-//W3C//DTD SVG 1.1//EN" "http://www.w3.org/Graphics/SVG/1.1/DTD/svg11.dtd">
<!-- Creator: CorelDRAW 2020 (64-Bit) -->
<svg xmlns="http://www.w3.org/2000/svg" xml:space="preserve" width="40mm" height="60mm" version="1.1" style="shape-rendering:geometricPrecision; text-rendering:geometricPrecision; image-rendering:optimizeQuality; fill-rule:evenodd; clip-rule:evenodd"
viewBox="0 0 4000 6000"
 xmlns:xlink="http://www.w3.org/1999/xlink"
 xmlns:xodm="http://www.corel.com/coreldraw/odm/2003">
 <defs>
  <style type="text/css">
   <![CDATA[
    .str0 {stroke:#332C2B;stroke-width:19.05;stroke-linecap:round;stroke-linejoin:round;stroke-miterlimit:10}
    .str1 {stroke:#332C2B;stroke-width:19.05;stroke-linecap:round;stroke-linejoin:bevel;stroke-miterlimit:10}
    .str2 {stroke:#332C2B;stroke-width:25.4;stroke-linecap:round;stroke-linejoin:bevel;stroke-miterlimit:10}
    .fil0 {fill:none;fill-rule:nonzero}
   ]]>
  </style>
 </defs>
 <g id="图层_x0020_1">
  <metadata id="CorelCorpID_0Corel-Layer"/>
  <g id="_2006161930256">
   <line class="fil0 str0" x1="2250.93" y1="1189.7" x2="1740.13" y2= "1189.7" />
   <polyline class="fil0 str1" points="1628.4,1090.38 1646.13,1092.15 1662.09,1101.02 1676.28,1113.44 1685.15,1127.62 1690.47,1145.36 1695.79,1163.1 1706.43,1177.29 1722.4,1186.15 1740.13,1189.7 "/>
   <line class="fil0 str0" x1="1628.4" y1="1088.61" x2="1195.64" y2= "1088.61" />
   <polyline class="fil0 str1" points="1195.64,1088.61 1167.26,1090.38 1138.89,1099.25 1112.28,1111.66 1089.23,1127.62 1067.94,1148.91 1051.98,1171.96 1039.56,1198.57 1030.7,1226.94 1028.92,1255.32 "/>
   <line class="fil0 str0" x1="1028.92" y1="1255.32" x2="1028.92" y2= "4754.6" />
   <polyline class="fil0 str1" points="1028.92,4754.6 1030.7,4782.98 1039.56,4811.36 1051.98,4837.96 1067.94,4861.02 1089.23,4882.3 1112.28,4898.26 1138.89,4910.68 1167.26,4919.55 1195.64,4921.32 "/>
   <line class="fil0 str0" x1="1195.64" y1="4921.32" x2="2790.1" y2= "4921.32" />
   <polyline class="fil0 str1" points="2790.1,4921.32 2818.47,4919.55 2846.85,4910.68 2873.46,4898.26 2896.51,4882.3 2917.79,4861.02 2933.76,4837.96 2946.17,4811.36 2955.04,4782.98 2956.81,4754.6 "/>
   <line class="fil0 str0" x1="2956.81" y1="4754.6" x2="2956.81" y2= "1255.32" />
   <polyline class="fil0 str1" points="2956.81,1255.32 2955.04,1226.94 2946.17,1198.57 2933.76,1171.96 2917.79,1148.91 2896.51,1127.62 2873.46,1111.66 2846.85,1099.25 2818.47,1090.38 2790.1,1088.61 "/>
   <line class="fil0 str0" x1="2790.1" y1="1088.61" x2="2364.44" y2= "1088.61" />
   <polyline class="fil0 str1" points="2364.44,1090.38 2346.7,1092.15 2330.74,1101.02 2316.55,1113.44 2307.68,1127.62 2302.36,1145.36 "/>
   <polyline class="fil0 str1" points="2250.93,1189.7 2268.66,1186.15 2284.62,1177.29 2295.27,1163.1 2300.59,1145.36 "/>
   <polygon class="fil0 str2" points="1294.96,5219.28 1277.23,5221.06 1261.26,5228.15 1248.85,5238.79 1238.21,5252.98 1231.11,5267.17 1229.34,5284.9 1231.11,5302.64 1238.21,5318.6 1248.85,5331.02 1263.04,5341.66 1277.23,5348.75 1294.96,5350.53 1312.7,5348.75 1328.66,5341.66 1341.07,5331.02 1351.72,5316.83 1358.81,5302.64 1360.58,5284.9 1358.81,5267.17 1351.72,5252.98 1341.07,5238.79 1326.89,5228.15 1312.7,5221.06 "/>
   <polygon class="fil0 str2" points="2690.78,5219.28 2673.04,5221.06 2657.08,5228.15 2644.66,5238.79 2634.02,5252.98 2626.93,5267.17 2625.15,5284.9 2626.93,5302.64 2634.02,5318.6 2644.66,5331.02 2658.85,5341.66 2673.04,5348.75 2690.78,5350.53 2708.51,5348.75 2724.47,5341.66 2736.89,5331.02 2747.53,5316.83 2754.62,5302.64 2756.4,5284.9 2754.62,5267.17 2747.53,5252.98 2736.89,5238.79 2722.7,5228.15 2708.51,5221.06 "/>
   <polygon class="fil0 str2" points="2665.95,650.53 2648.21,652.3 2632.25,659.4 2619.83,670.04 2609.19,684.23 2602.1,698.42 2600.32,716.15 2602.1,733.89 2609.19,749.85 2619.83,762.27 2634.02,772.91 2648.21,780 2665.95,781.77 2683.68,780 2699.64,772.91 2712.06,762.27 2722.7,748.08 2729.79,733.89 2731.57,716.15 2729.79,698.42 2722.7,684.23 2712.06,670.04 2697.87,659.4 2683.68,652.3 "/>
   <polygon class="fil0 str2" points="1319.79,650.53 1302.06,652.3 1286.09,659.4 1273.68,670.04 1263.04,684.23 1255.94,698.42 1254.17,716.15 1255.94,733.89 1263.04,749.85 1273.68,762.27 1287.87,772.91 1302.06,780 1319.79,781.77 1337.53,780 1353.49,772.91 1365.91,762.27 1376.55,748.08 1383.64,733.89 1385.41,716.15 1383.64,698.42 1376.55,684.23 1365.91,670.04 1351.72,659.4 1337.53,652.3 "/>
  </g>
  <line class="fil0 str0" x1="-25734.37" y1="1018.34" x2="-25734.37" y2= "3038.21" />
  <polyline class="fil0 str1" points="-26127.12,3480.06 -26120.12,3409.92 -26085.04,3346.8 -26035.95,3290.69 -25979.85,3255.63 -25909.71,3234.59 -25839.57,3213.55 -25783.47,3171.47 -25748.41,3108.35 -25734.37,3038.21 "/>
  <line class="fil0 str0" x1="-26134.14" y1="3480.06" x2="-26134.14" y2= "5191.34" />
  <polyline class="fil0 str1" points="-26134.14,5191.34 -26127.12,5303.55 -26092.06,5415.77 -26042.97,5520.97 -25979.85,5612.14 -25895.68,5696.31 -25804.52,5759.43 -25699.31,5808.52 -25587.1,5843.59 -25474.88,5850.6 "/>
  <line class="fil0 str0" x1="-25474.88" y1="5850.6" x2="-11637.36" y2= "5850.6" />
  <polyline class="fil0 str1" points="-11637.36,5850.6 -11525.14,5843.59 -11412.94,5808.52 -11307.73,5759.43 -11216.56,5696.31 -11132.4,5612.14 -11069.28,5520.97 -11020.17,5415.77 -10985.12,5303.55 -10978.09,5191.34 "/>
  <line class="fil0 str0" x1="-10978.09" y1="5191.34" x2="-10978.09" y2= "-1113.75" />
  <polyline class="fil0 str1" points="-10978.09,-1113.75 -10985.12,-1225.96 -11020.17,-1338.18 -11069.28,-1443.38 -11132.4,-1534.55 -11216.56,-1618.71 -11307.73,-1681.84 -11412.94,-1730.93 -11525.14,-1766 -11637.36,-1773.01 "/>
  <line class="fil0 str0" x1="-11637.36" y1="-1773.01" x2="-25474.88" y2= "-1773.01" />
  <polyline class="fil0 str1" points="-25474.88,-1773.01 -25587.1,-1766 -25699.31,-1730.93 -25804.52,-1681.84 -25895.68,-1618.71 -25979.85,-1534.55 -26042.97,-1443.38 -26092.06,-1338.18 -26127.12,-1225.96 -26134.14,-1113.75 "/>
  <line class="fil0 str0" x1="-26134.14" y1="-1113.75" x2="-26134.14" y2= "569.48" />
  <polyline class="fil0 str1" points="-26127.12,569.48 -26120.12,639.61 -26085.04,702.73 -26035.95,758.84 -25979.85,793.91 -25909.71,814.95 "/>
  <polyline class="fil0 str1" points="-25734.37,1018.34 -25748.41,948.21 -25783.47,885.08 -25839.57,843 -25909.71,821.96 "/>
  <polygon class="fil0 str2" points="-9799.84,4798.58 -9792.82,4868.72 -9764.77,4931.84 -9722.69,4980.93 -9666.59,5023.02 -9610.48,5051.07 -9540.35,5058.08 -9470.2,5051.07 -9407.09,5023.02 -9357.99,4980.93 -9315.92,4924.83 -9287.86,4868.72 -9280.84,4798.58 -9287.86,4728.45 -9315.92,4665.33 -9357.99,4616.24 -9414.09,4574.15 -9470.2,4546.1 -9540.35,4539.09 -9610.48,4546.1 -9666.59,4574.15 -9722.69,4616.24 -9764.77,4672.34 -9792.82,4728.45 "/>
  <polygon class="fil0 str2" points="-9799.84,-720.99 -9792.82,-650.86 -9764.77,-587.74 -9722.69,-538.64 -9666.59,-496.56 -9610.48,-468.51 -9540.35,-461.5 -9470.2,-468.51 -9407.09,-496.56 -9357.99,-538.64 -9315.92,-594.75 -9287.86,-650.86 -9280.84,-720.99 -9287.86,-791.13 -9315.92,-854.25 -9357.99,-903.34 -9414.09,-945.42 -9470.2,-973.48 -9540.35,-980.49 -9610.48,-973.48 -9666.59,-945.42 -9722.69,-903.34 -9764.77,-847.24 -9792.82,-791.13 "/>
  <polygon class="fil0 str2" points="-27866.47,-622.81 -27859.45,-552.67 -27831.39,-489.55 -27789.31,-440.46 -27733.21,-398.38 -27677.11,-370.32 -27606.96,-363.31 -27536.83,-370.32 -27473.7,-398.38 -27424.61,-440.46 -27382.54,-496.56 -27354.48,-552.67 -27347.47,-622.81 -27354.48,-692.94 -27382.54,-756.06 -27424.61,-805.16 -27480.72,-847.24 -27536.83,-875.29 -27606.96,-882.3 -27677.11,-875.29 -27733.21,-847.24 -27789.31,-805.16 -27831.39,-749.05 -27859.45,-692.94 "/>
  <polygon class="fil0 str2" points="-27866.47,4700.4 -27859.45,4770.53 -27831.39,4833.65 -27789.31,4882.75 -27733.21,4924.83 -27677.11,4952.88 -27606.96,4959.89 -27536.83,4952.88 -27473.7,4924.83 -27424.61,4882.75 -27382.54,4826.64 -27354.48,4770.53 -27347.47,4700.4 -27354.48,4630.26 -27382.54,4567.14 -27424.61,4518.05 -27480.72,4475.97 -27536.83,4447.91 -27606.96,4440.9 -27677.11,4447.91 -27733.21,4475.97 -27789.31,4518.05 -27831.39,4574.15 -27859.45,4630.26 "/>
 </g>
</svg>
