<?xml version="1.0" encoding="UTF-8"?>
<!DOCTYPE svg PUBLIC "-//W3C//DTD SVG 1.1//EN" "http://www.w3.org/Graphics/SVG/1.1/DTD/svg11.dtd">
<!-- Creator: CorelDRAW X8 -->
<svg xmlns="http://www.w3.org/2000/svg" xml:space="preserve" width="40mm" height="60mm" version="1.1" style="shape-rendering:geometricPrecision; text-rendering:geometricPrecision; image-rendering:optimizeQuality; fill-rule:evenodd; clip-rule:evenodd"
viewBox="0 0 4000 6000"
 xmlns:xlink="http://www.w3.org/1999/xlink">
 <defs>
  <style type="text/css">
   <![CDATA[
    .str0 {stroke:#332C2B;stroke-width:19.4}
    .fil0 {fill:none;fill-rule:nonzero}
   ]]>
  </style>
 </defs>
 <g id="图层_x0020_1">
  <metadata id="CorelCorpID_0Corel-Layer"/>
  <g id="_2173106131552">
   <g>
    <line class="fil0 str0" x1="3190" y1="650" x2="3190" y2= "683" />
    <line class="fil0 str0" x1="883" y1="5300" x2="883" y2= "5310" />
    <path class="fil0 str0" d="M883 5310c6,-1 9,-4 10,-10 607,45 726,50 1170,50 242,0 434,-7 697,-24 273,-17 274,-18 314,-37 55,-25 102,-82 114,-138"/>
    <line class="fil0 str0" x1="3188" y1="5151" x2="3193" y2= "2999" />
    <path class="fil0 str0" d="M3193 2999c2,-699 2,-1398 0,-2097 -3,-81 -25,-129 -80,-172 -28,-21 -60,-35 -92,-40 -109,-17 -692,-40 -1010,-40 -314,0 -705,12 -725,23 -11,6 -14,16 -13,52"/>
    <polyline class="fil0 str0" points="1273,725 1273,777 1274,776 1274,777 1273,778 1273,777 1270,777 1272,777 "/>
    <path class="fil0 str0" d="M1272 777c-5,42 -37,70 -80,70 -48,0 -74,-28 -82,-89"/>
    <polyline class="fil0 str0" points="1110,758 1111,758 1112,757 1112,756 1111,756 "/>
    <path class="fil0 str0" d="M1111 756c1,-9 1,-16 1,-22 0,-44 -8,-53 -45,-53 -142,0 -223,49 -257,155 -4,12 -4,17 -4,65"/>
    <line class="fil0 str0" x1="806" y1="901" x2="808" y2= "5119" />
    <path class="fil0 str0" d="M808 5119c0,88 60,160 151,182"/>
    <line class="fil0 str0" x1="959" y1="5301" x2="996" y2= "5308" />
    <path class="fil0 str0" d="M996 5308c35,7 48,13 84,41"/>
   </g>
  </g>
 </g>
</svg>
