<?xml version="1.0" encoding="UTF-8"?>
<!DOCTYPE svg PUBLIC "-//W3C//DTD SVG 1.1//EN" "http://www.w3.org/Graphics/SVG/1.1/DTD/svg11.dtd">
<!-- Creator: CorelDRAW -->
<svg xmlns="http://www.w3.org/2000/svg" xml:space="preserve" width="40mm" height="60mm" style="shape-rendering:geometricPrecision; text-rendering:geometricPrecision; image-rendering:optimizeQuality; fill-rule:evenodd; clip-rule:evenodd"
viewBox="0 0 40 60"
 xmlns:xlink="http://www.w3.org/1999/xlink">
 <defs>
  <style type="text/css">
   <![CDATA[
    .str0 {stroke:#1F1A17;stroke-width:0.194}
    .fil0 {fill:none;fill-rule:nonzero}
   ]]>
  </style>
 </defs>
 <g id="图层_x0020_1">
  <metadata id="CorelCorpID_0Corel-Layer"/>
  <g id="_149054680">
   <g>
    <line id="_149053024" class="fil0 str0" x1="32.1194" y1="6.5571" x2="32.1194" y2= "6.8748" />
    <line id="_149052520" class="fil0 str0" x1="19.9824" y1="14.3904" x2="19.9824" y2= "14.4933" />
    <path id="_149052400" class="fil0 str0" d="M19.9824 14.4933c0.0715,-0.0045 0.0906,-0.0213 0.1107,-0.1029 0.3479,0.1342 0.499,0.3244 0.499,0.6276 0,0.349 -0.2853,0.6321 -0.6355,0.6321 -0.3457,0 -0.6332,-0.2909 -0.6332,-0.6399 0,-0.3457 0.2864,-0.6243 0.6444,-0.6243 0.0548,0 0.0694,0 0.2517,0.0123"/>
    <polyline id="_149054224" class="fil0 str0" points="19.9824,11.8609 20.0931,11.8609 20.0931,11.8531 20.0931,11.8688 "/>
    <path id="_149054248" class="fil0 str0" d="M20.0931 11.8688c0.3457,0.1107 0.537,0.3389 0.537,0.6376 0,0.4207 -0.2551,0.6791 -0.6679,0.6791 -0.3714,0 -0.6667,-0.2942 -0.6667,-0.6645 0,-0.3692 0.3054,-0.6668 0.6757,-0.6601 0.057,0.0012 0.0715,0.0023 0.2561,0.0235"/>
    <line id="_149055352" class="fil0 str0" x1="25.0323" y1="13.5099" x2="25.143" y2= "13.5178" />
    <path id="_149055256" class="fil0 str0" d="M25.143 13.5178c-0.0067,0.057 -0.0347,0.0805 -0.1107,0.0951 0.0033,0.462 0.0033,0.3468 0.0044,0.8088 0.0023,0.3446 -0.0022,0.3681 -0.1073,0.5952 -0.0123,-0.0067 -0.0168,-0.009 -0.0247,-0.0168"/>
    <polyline id="_149055856" class="fil0 str0" points="24.9047,15.0001 24.8969,15.0001 24.8891,14.9923 24.8969,14.9923 24.8253,15.0639 "/>
    <path id="_149055544" class="fil0 str0" d="M24.8253 15.0639c-0.0112,-0.0056 -0.0157,-0.009 -0.0235,-0.0157"/>
    <polyline id="_149055616" class="fil0 str0" points="24.8018,15.0482 24.8018,15.0404 24.794,15.0325 24.794,15.0247 24.7067,15.056 24.7067,14.9923 24.7067,15.0169 24.5244,15.0169 24.5244,15.0247 24.5244,14.9844 24.4371,14.9531 24.4427,14.9408 24.4449,14.9341 24.4449,14.9296 24.4528,14.9218 24.4606,14.9218 24.4606,14.9128 24.3823,14.8423 24.4058,14.8177 24.4215,14.8177 24.4136,14.8177 "/>
    <path id="_149055496" class="fil0 str0" d="M24.4136 14.8177c-0.0145,-0.1018 -0.0268,-0.7059 -0.0268,-1.3659 0,-0.6679 0.0033,-0.8592 0.0167,-1.0203 0.0135,-0.1622 0.0325,-0.2428 0.1052,-0.4352"/>
    <polyline id="_149055736" class="fil0 str0" points="24.5087,11.9963 24.5244,11.9963 24.5322,12.0041 24.5322,12.012 24.5479,12.0198 24.6273,11.9482 24.643,11.9639 24.6441,11.9695 24.6463,11.9762 24.6519,11.9885 24.7392,11.956 24.7392,11.9963 24.9215,11.9885 24.9215,12.0276 25.0077,12.059 25.0077,12.0433 "/>
    <path id="_149055832" class="fil0 str0" d="M25.0077 12.0433c-0.0023,0.0212 -0.0045,0.028 -0.0157,0.0481"/>
    <polyline id="_149048128" class="fil0 str0" points="24.992,12.0914 24.9763,12.0992 25.0479,12.1708 25.0479,12.1787 25.0401,12.1865 25.0323,12.1865 25.0244,12.1943 25.0166,12.1943 25.0166,12.5881 "/>
    <path id="_149047888" class="fil0 str0" d="M25.0166 12.5881c0.0011,0.9521 0.0011,0.9521 0.0168,1.2273"/>
    <line id="_149048320" class="fil0 str0" x1="25.0334" y1="13.8154" x2="25.0401" y2= "13.9306" />
    <path id="_149048152" class="fil0 str0" d="M21.5911 13.5256c0.0022,0.2181 0.0033,0.4173 0.0033,0.5974 0,0.7719 -0.0167,1.0606 -0.0716,1.2787 -0.0548,0.2182 -0.1432,0.3412 -0.3893,0.5448 -0.3155,0.2607 -0.7328,0.386 -1.2854,0.386 -0.4072,0 -0.9487,-0.2607 -1.216,-0.584 -0.2696,-0.3266 -0.2887,-0.5135 -0.2887,-2.8292 0,-0.8156 0.0123,-1.0953 0.056,-1.3146 0.0436,-0.2181 0.1118,-0.3378 0.3188,-0.5627 0.2752,-0.2964 0.7182,-0.4844 1.14,-0.4844 0.5828,0 0.9251,0.0962 1.2384,0.348 0.4027,0.3255 0.4967,0.5738 0.4967,1.3167"/>
    <line id="_149048032" class="fil0 str0" x1="21.5933" y1="12.2223" x2="21.5911" y2= "13.9463" />
    <polyline id="_149048224" class="fil0 str0" points="22.0274,13.4943 22.0274,13.5972 22.0352,13.5972 22.0375,14.4888 "/>
    <path id="_149047936" class="fil0 str0" d="M22.0375 14.4888c0.0022,0.9319 -0.0168,1.0774 -0.1779,1.375 -0.3211,0.5906 -1.0706,0.9755 -1.8974,0.9755 -1.0359,0 -1.9566,-0.6343 -2.0461,-1.4107 -0.0202,-0.169 -0.0347,-0.9867 -0.0347,-1.9365 0,-1.3683 0.0123,-1.7341 0.0649,-2.0328 0.0537,-0.2998 0.1298,-0.424 0.4218,-0.6947 0.3993,-0.3692 0.9811,-0.5829 1.5897,-0.5829 1.0538,0 1.9476,0.6176 2.0528,1.4186 0.0201,0.1544 0.0246,0.2539 0.0224,0.6041"/>
    <line id="_149048440" class="fil0 str0" x1="22.033" y1="12.2044" x2="22.0274" y2= "13.9149" />
    <line id="_149048464" class="fil0 str0" x1="19.9902" y1="6.5571" x2="19.9902" y2= "6.66" />
    <path id="_149048968" class="fil0 str0" d="M19.9902 6.66c0.0716,-0.0034 0.0906,-0.0213 0.1107,-0.1029"/>
    <line id="_149049136" class="fil0 str0" x1="20.1009" y1="6.5571" x2="27.376" y2= "6.5459" />
    <path id="_149049160" class="fil0 str0" d="M27.376 6.5459c2.2889,-0.0034 2.3863,0.0022 2.8069,0.1622 1.0248,0.3904 1.7597,1.4331 1.9265,2.733"/>
    <polyline id="_149049304" class="fil0 str0" points="32.1094,9.4411 32.1127,9.4668 32.125,9.8618 32.238,42.758 "/>
    <path id="_149049040" class="fil0 str0" d="M32.238 42.758c0.0179,5.3441 -0.0101,7.4205 -0.1074,7.7818"/>
    <polyline id="_149048656" class="fil0 str0" points="32.1306,50.5398 32.125,50.5633 32.0847,50.7748 32.078,50.8218 "/>
    <path id="_149048560" class="fil0 str0" d="M32.078 50.8218c-0.2047,1.4017 -1.3302,2.6077 -2.5003,2.6782"/>
    <line id="_149049016" class="fil0 str0" x1="29.5777" y1="53.5" x2="10.8737" y2= "53.4877" />
    <path id="_149048704" class="fil0 str0" d="M10.8737 53.4877c-0.6354,-0.0011 -0.7753,-0.0179 -1.065,-0.132 -1.0774,-0.4218 -1.8325,-1.5349 -1.9332,-2.8461"/>
    <line id="_149049112" class="fil0 str0" x1="7.8755" y1="50.5096" x2="7.8934" y2= "16.4712" />
    <path id="_149049760" class="fil0 str0" d="M7.8934 16.4712c0.0011,-1.3525 -0.0056,-1.6501 -0.0492,-2.3191 0.0213,0.0011 0.0425,0.0034 0.0637,0.0078"/>
    <polyline id="_149049664" class="fil0 str0" points="7.9079,14.1599 7.9236,14.1756 8.1295,13.9463 8.1138,13.9306 "/>
    <path id="_149049568" class="fil0 str0" d="M8.1138 13.9306c-0.0224,-0.0023 -0.0403,-0.0045 -0.0559,-0.0078"/>
    <polyline id="_149050048" class="fil0 str0" points="8.0579,13.9228 8.0825,11.3374 8.0422,11.3374 8.0221,11.353 8.0053,11.3665 7.9874,11.3855 7.7569,11.2344 7.7972,11.1986 7.8129,11.1875 7.852,11.1875 "/>
    <path id="_149049520" class="fil0 str0" d="M7.852 11.1875c0,-1.8336 0.0157,-2.0126 0.2305,-2.6089 0.4016,-1.1187 1.2843,-1.9052 2.2587,-2.0137 0.2595,-0.0291 4.3362,-0.0649 7.4228,-0.0649 2.0226,0 2.4007,0.0078 2.6535,0.0571"/>
   </g>
  </g>
 </g>
</svg>
