<?xml version="1.0" encoding="UTF-8"?>
<!DOCTYPE svg PUBLIC "-//W3C//DTD SVG 1.1//EN" "http://www.w3.org/Graphics/SVG/1.1/DTD/svg11.dtd">
<!-- Creator: CorelDRAW X8 -->
<svg xmlns="http://www.w3.org/2000/svg" xml:space="preserve" width="40mm" height="60mm" version="1.1" style="shape-rendering:geometricPrecision; text-rendering:geometricPrecision; image-rendering:optimizeQuality; fill-rule:evenodd; clip-rule:evenodd"
viewBox="0 0 4000 6000"
 xmlns:xlink="http://www.w3.org/1999/xlink">
 <defs>
  <style type="text/css">
   <![CDATA[
    .str0 {stroke:black;stroke-width:20}
    .fil0 {fill:none}
   ]]>
  </style>
 </defs>
 <g id="图层_x0020_1">
  <metadata id="CorelCorpID_0Corel-Layer"/>
  <path class="fil0 str0" d="M948 5350l0 -4373c0,-169 138,-299 307,-307 558,-27 1118,-26 1680,0 169,8 307,138 307,307l0 4043c0,169 -138,297 -307,307 -554,32 -1115,29 -1680,0 -169,-9 -307,-138 -307,-307 0,-169 -131,-188 -190,-188m1016 -4031c22,-21 -5,-68 -39,-68 -33,0 -60,27 -60,61l0 0c0,33 27,60 60,60l720 0c34,0 61,-27 61,-60l0 0c0,-34 -27,-61 -61,-61l-720 0m1095 88c-21,-12 -11,-76 20,-76 31,0 56,25 56,56 0,30 -25,56 -56,56 -31,0 -56,-26 -56,-56 0,-31 25,-56 56,-56"/>
 </g>
</svg>
