<?xml version="1.0" encoding="UTF-8"?>
<!DOCTYPE svg PUBLIC "-//W3C//DTD SVG 1.1//EN" "http://www.w3.org/Graphics/SVG/1.1/DTD/svg11.dtd">
<!-- Creator: CorelDRAW X7 -->
<svg xmlns="http://www.w3.org/2000/svg" xml:space="preserve" width="40mm" height="60mm" version="1.1" style="shape-rendering:geometricPrecision; text-rendering:geometricPrecision; image-rendering:optimizeQuality; fill-rule:evenodd; clip-rule:evenodd"
viewBox="0 0 4000 6000"
 xmlns:xlink="http://www.w3.org/1999/xlink">
 <defs>
  <style type="text/css">
   <![CDATA[
    .str0 {stroke:black;stroke-width:20}
    .fil0 {fill:none}
   ]]>
  </style>
 </defs>
 <g id="图层_x0020_1">
  <metadata id="CorelCorpID_0Corel-Layer"/>
  <path class="fil0 str0" d="M924 5282l1996 0c91,0 156,-75 156,-167l0 -4298c0,-78 -93,-167 -156,-167l-641 0c-6,0 -11,3 -11,9l0 48c0,28 -23,52 -52,52l0 0c-21,0 -39,-13 -47,-19 -4,-4 -5,-5 -10,-5l-229 0c-5,0 -7,0 -13,-2 -39,-14 -36,-45 -36,-78 0,-2 -2,-5 -6,-5l-737 0c-91,0 -174,75 -174,167l0 4298c0,92 83,167 174,167 91,0 253,31 253,68"/>
 </g>
</svg>
