<?xml version="1.0" encoding="UTF-8"?>
<!DOCTYPE svg PUBLIC "-//W3C//DTD SVG 1.1//EN" "http://www.w3.org/Graphics/SVG/1.1/DTD/svg11.dtd">
<!-- Creator: CorelDRAW X8 -->
<svg xmlns="http://www.w3.org/2000/svg" xml:space="preserve" width="40mm" height="60mm" version="1.1" style="shape-rendering:geometricPrecision; text-rendering:geometricPrecision; image-rendering:optimizeQuality; fill-rule:evenodd; clip-rule:evenodd"
viewBox="0 0 4000 6000"
 xmlns:xlink="http://www.w3.org/1999/xlink">
 <defs>
  <style type="text/css">
   <![CDATA[
    .str0 {stroke:#332C2B;stroke-width:19.4}
    .fil0 {fill:none;fill-rule:nonzero}
   ]]>
  </style>
 </defs>
 <g id="图层_x0020_1">
  <metadata id="CorelCorpID_0Corel-Layer"/>
  <g id="_1774307576240">
   <g>
    <line class="fil0 str0" x1="3070" y1="650" x2="3070" y2= "682" />
    <line class="fil0 str0" x1="3051" y1="5256" x2="3051" y2= "5266" />
    <path class="fil0 str0" d="M3051 5266c-5,-2 -7,-5 -9,-11"/>
    <line class="fil0 str0" x1="3042" y1="5255" x2="1836" y2= "5257" />
    <path class="fil0 str0" d="M1836 5257c-230,0 -459,0 -689,-1 -105,-3 -179,-60 -209,-161 -3,-10 -3,-12 -3,-61"/>
    <line class="fil0 str0" x1="935" y1="5034" x2="930" y2= "873" />
    <path class="fil0 str0" d="M930 873c4,-63 22,-113 58,-153 25,-28 47,-42 67,-42 29,0 46,20 47,55"/>
    <line class="fil0 str0" x1="1102" y1="733" x2="1102" y2= "836" />
    <path class="fil0 str0" d="M1102 836c1,79 55,136 128,136 40,0 50,-5 106,-52 39,-33 77,-45 140,-45"/>
    <line class="fil0 str0" x1="1476" y1="875" x2="1532" y2= "874" />
    <path class="fil0 str0" d="M1532 874c46,-3 67,-24 67,-66"/>
    <line class="fil0 str0" x1="1599" y1="808" x2="1599" y2= "737" />
    <path class="fil0 str0" d="M1599 737c0,-1 0,-2 0,-2 0,-63 7,-80 35,-84"/>
    <line class="fil0 str0" x1="1634" y1="651" x2="2846" y2= "650" />
    <path class="fil0 str0" d="M2846 650c41,0 50,1 63,5 78,22 128,71 156,153 4,12 4,18 4,64"/>
    <line class="fil0 str0" x1="3069" y1="872" x2="3066" y2= "5072" />
    <path class="fil0 str0" d="M3066 5072c1,2 1,4 1,5 0,43 -37,105 -82,138 -26,20 -58,33 -95,38"/>
    <line class="fil0 str0" x1="2890" y1="5253" x2="2840" y2= "5261" />
    <path class="fil0 str0" d="M2840 5261c-52,12 -80,33 -117,89"/>
   </g>
  </g>
 </g>
</svg>
