<?xml version="1.0" encoding="UTF-8"?>
<!DOCTYPE svg PUBLIC "-//W3C//DTD SVG 1.1//EN" "http://www.w3.org/Graphics/SVG/1.1/DTD/svg11.dtd">
<!-- Creator: CorelDRAW 2020 (64-Bit) -->
<svg xmlns="http://www.w3.org/2000/svg" xml:space="preserve" width="40mm" height="60mm" version="1.1" style="shape-rendering:geometricPrecision; text-rendering:geometricPrecision; image-rendering:optimizeQuality; fill-rule:evenodd; clip-rule:evenodd"
viewBox="0 0 4000 6000"
 xmlns:xlink="http://www.w3.org/1999/xlink"
 xmlns:xodm="http://www.corel.com/coreldraw/odm/2003">
 <defs>
  <style type="text/css">
   <![CDATA[
    .str0 {stroke:#332C2B;stroke-width:20;stroke-miterlimit:22.9256}
    .fil0 {fill:none}
   ]]>
  </style>
 </defs>
 <g id="图层_x0020_1">
  <metadata id="CorelCorpID_0Corel-Layer"/>
  <path class="fil0 str0" d="M-33899.14 3485.32l0 -885.98c0,-90.62 62.03,-81.82 86.24,-81.82l115.78 0c61.47,0 111.78,-50.3 111.78,-111.78l0 -0.02c0,-61.48 -50.3,-111.78 -111.78,-111.78l-115.78 0c-24.23,0 -86.24,4.5 -86.24,-76.2l0 -739.24c0,-98.23 76.59,-92.74 100.8,-92.74l123.7 0c61.47,0 111.78,-50.3 111.78,-111.78l0 -0.02c0,-61.48 -50.3,-111.78 -111.78,-111.78l-123.7 0c-24.23,0 -100.8,6.47 -100.8,-76.54l0 -4136.72 141.79 -17.11 420.69 0.17 16515.09 7.67c0,0 136.25,-2.7 128.32,198.38l6.57 1263.21c0,136.9 -102.2,124.15 -137.63,124.15l-127.31 0c-64.03,0 -116.41,52.39 -116.41,116.41l0 0.01c0,64.02 52.39,116.41 116.41,116.41l127.31 0c35.79,0 138.32,-9.8 138.32,119.35l5.66 896.53c0,140.53 -76.91,128.46 -123.35,128.46l-78.9 0c-110,0 -200,90 -200,200l0 642.86c0,110 90,200 200,200l78.9 0c48.44,0 127.74,-4.94 127.74,108.33l2.56 248.81c0,108 -80.64,103.54 -130.3,103.54l-78.9 0c-110,0 -200,90 -200,200l0 1216.31c0,110 90,200 200,200l78.9 0c53,0 137.27,-16.94 137.27,115.78l2.28 324.72 -418.05 17.2c0,0 29.1,673.34 -669.4,723.62l1038.5 -21.16 3.28 457.07 -1022.63 25.8 -7697.5 8.72c-79.14,0 -103.17,-60.5 -110.13,-96.51l-24.47 -126.62c-15.65,-81 -43.03,-134.79 -125.53,-134.79l-3435.93 0c-82.5,0 -115.7,68.79 -130.16,150l-19.84 111.41c-6.77,37.98 -26.86,100.58 -88.01,100.58l-4402.22 5.04 -14.56 -442.51 904.88 -10.61c0,0 -709.09,-21.18 -657.5,-736.89l-365.74 -7.94zm1242.35 -197.45l0 -5413.95c0,-165 135,-300 300,-300l3477.25 0c165,0 300,135 300,300l0 5413.95c0,165.01 -135,300 -300,300l-3477.25 0c-165,0 -300,-134.99 -300,-300zm31.81 -55.19l0 -5292.56c0,-158.58 129.73,-288.31 288.31,-288.31l3341.87 0c158.58,0 288.31,129.73 288.31,288.31l0 5292.56c0,158.58 -129.73,288.31 -288.31,288.31l-3341.87 0c-158.58,0 -288.31,-129.73 -288.31,-288.31zm146.25 -1706.22c0,-1019.23 826.24,-1845.47 1845.47,-1845.47 1019.23,0 1845.47,826.24 1845.47,1845.47 0,1019.23 -826.24,1845.47 -1845.47,1845.47 -1019.23,0 -1845.47,-826.24 -1845.47,-1845.47zm502.7 5.34c0,-69.05 55.97,-125.02 125.02,-125.02 69.05,0 125.02,55.97 125.02,125.02 0,69.05 -55.97,125.02 -125.02,125.02 -69.05,0 -125.02,-55.97 -125.02,-125.02zm235.49 715.01c0,-237.45 192.5,-429.95 429.95,-429.95 237.45,0 429.95,192.5 429.95,429.95 0,237.45 -192.5,429.95 -429.95,429.95 -237.45,0 -429.95,-192.5 -429.95,-429.95zm0 -1426.85c0,-237.45 192.5,-429.95 429.95,-429.95 237.45,0 429.95,192.5 429.95,429.95 0,237.45 -192.5,429.95 -429.95,429.95 -237.45,0 -429.95,-192.5 -429.95,-429.95zm1325.57 1426.85c0,-237.45 192.5,-429.95 429.95,-429.95 237.45,0 429.95,192.5 429.95,429.95 0,237.45 -192.5,429.95 -429.95,429.95 -237.45,0 -429.95,-192.5 -429.95,-429.95zm0 -1426.85c0,-237.45 192.5,-429.95 429.95,-429.95 237.45,0 429.95,192.5 429.95,429.95 0,237.45 -192.5,429.95 -429.95,429.95 -237.45,0 -429.95,-192.5 -429.95,-429.95zm-931.65 718.69l0 0c0,-54.77 44.79,-99.56 99.55,-99.56l242.76 0c54.76,0 99.55,44.79 99.55,99.56l0 0c0,54.75 -44.79,99.54 -99.55,99.54l-242.76 0c-54.76,0 -99.55,-44.79 -99.55,-99.54zm1565 -2459.65c0,-152.7 123.79,-276.49 276.5,-276.49 152.7,0 276.49,123.79 276.49,276.49 0,152.71 -123.79,276.5 -276.49,276.5 -152.71,0 -276.5,-123.79 -276.5,-276.5zm-4132.78 -2387.33l0 -413.84c0,-55 45.04,-100 100.05,-100l6720.93 0 568.2 201.1 7491.5 5.82c54.98,0.03 100.05,45.03 100.05,100l0 206.92c0,54.97 -45.04,99.98 -100.05,100l-10405.34 5.68c-56.97,0 -78.34,-48.34 -81.88,-66.12l-20.5 -102.95c-10.74,-53.94 -39.71,-90.74 -94.71,-90.74l-1378.91 0c-55,0 -77.63,41.83 -86.77,96.04l-13.23 78.46c-3.01,17.85 -13.64,79.63 -93.75,79.63l-2605.54 0c-55.01,0 -100.05,-45 -100.05,-100zm15206.4 -580.94l0 -435c0,-55 -45.03,-100 -100.02,-100l-9008.84 0c-104.01,0 -123.62,92.28 -126.43,138.21l-5.95 97c-3.36,54.88 -45.02,100 -100,100l-776.31 0c-54.99,0 -100,-45 -100,-100l0 -126.11c0,-22.24 4.04,-109.1 -104.61,-109.1l-4686.21 0c-54.98,0 -100.02,45.02 -100.02,100l0 216.71c0,54.98 45.02,99.77 100.02,100l7584.83 33.08 826.55 173.88 61.78 -189.1 75.4 200.43 6359.79 0c55,0 100.02,-45 100.02,-100zm-2085.92 -271.98l0 -0.01c0,-53.68 -43.91,-97.59 -97.59,-97.59l-1395.29 0c-53.68,0 -97.59,43.91 -97.59,97.59l0 0.01c0,53.68 43.91,97.59 97.59,97.59l1395.29 0c53.68,0 97.59,-43.91 97.59,-97.59z"/>
  <path class="fil0 str0" d="M1078.54 654.69l241.4 0c24.69,0 22.29,16.9 22.29,23.49l0 31.55c0,16.75 13.7,30.45 30.46,30.45l0 0c16.75,0 30.46,-13.7 30.46,-30.45l0 -31.55c0,-6.6 -1.23,-23.49 20.76,-23.49l201.41 0c26.77,0 25.27,20.86 25.27,27.46l0 33.7c0,16.75 13.7,30.46 30.46,30.46l0 0c16.75,0 30.46,-13.71 30.46,-30.46l0 -33.7c0,-6.6 -1.77,-27.46 20.85,-27.46l1127.09 0 4.66 38.63 -0.04 114.62 -2.09 4499.69c0,0 0.73,37.13 -54.05,34.96l-344.18 1.79c-37.3,0 -33.82,-27.84 -33.82,-37.49l0 -34.69c0,-17.45 -14.28,-31.72 -31.72,-31.72l0 0c-17.45,0 -31.72,14.28 -31.72,31.72l0 34.69c0,9.75 2.67,37.68 -32.52,37.68l-244.27 1.54c-38.29,0 -35,-20.95 -35,-33.6l0 -21.5c0,-29.97 -24.52,-54.49 -54.49,-54.49l-175.15 0c-29.97,0 -54.5,24.52 -54.5,54.49l0 21.5c0,13.19 1.35,34.8 -29.51,34.8l-67.79 0.7c-29.43,0 -28.21,-21.97 -28.21,-35.5l0 -21.5c0,-29.97 -24.52,-54.49 -54.49,-54.49l-331.4 0c-29.97,0 -54.49,24.52 -54.49,54.49l0 21.5c0,14.44 4.61,37.4 -31.55,37.4l-88.47 0.62 -4.69 -113.9c0,0 -183.46,7.93 -197.15,-182.39l5.76 282.95 -124.53 0.9 -7.03 -278.63 -2.38 -2097.26c0,-21.56 16.49,-28.11 26.3,-30l34.5 -6.67c22.07,-4.26 36.72,-11.72 36.72,-34.2l0 -936.15c0,-22.48 -18.74,-31.53 -40.87,-35.47l-30.35 -5.4c-10.35,-1.85 -27.41,-7.32 -27.41,-23.98l-1.37 -1199.43 120.57 -3.97 2.89 246.55c0,0 5.77,-193.2 200.77,-179.14l2.16 -99.65zm53.8 338.49l1475.09 0c44.95,0 81.73,36.78 81.73,81.73l0 947.41c0,44.96 -36.78,81.74 -81.73,81.74l-1475.09 0c-44.96,0 -81.74,-36.78 -81.74,-81.74l0 -947.41c0,-44.95 36.78,-81.73 81.74,-81.73zm15.04 8.66l1442.01 0c43.21,0 78.55,35.35 78.55,78.56l0 910.52c0,43.21 -35.34,78.55 -78.55,78.55l-1442.01 0c-43.21,0 -78.56,-35.34 -78.56,-78.55l0 -910.52c0,-43.21 35.35,-78.56 78.56,-78.56zm464.87 39.85c277.7,0 502.82,225.12 502.82,502.82 0,277.7 -225.12,502.81 -502.82,502.81 -277.7,0 -502.81,-225.11 -502.81,-502.81 0,-277.7 225.11,-502.82 502.81,-502.82zm-1.45 136.97c18.81,0 34.06,15.25 34.06,34.06 0,18.81 -15.25,34.06 -34.06,34.06 -18.81,0 -34.06,-15.25 -34.06,-34.06 0,-18.81 15.25,-34.06 34.06,-34.06zm-194.81 64.16c64.69,0 117.14,52.45 117.14,117.14 0,64.7 -52.45,117.15 -117.14,117.15 -64.7,0 -117.15,-52.45 -117.15,-117.15 0,-64.69 52.45,-117.14 117.15,-117.14zm388.76 0c64.69,0 117.14,52.45 117.14,117.14 0,64.7 -52.45,117.15 -117.14,117.15 -64.7,0 -117.15,-52.45 -117.15,-117.15 0,-64.69 52.45,-117.14 117.15,-117.14zm-388.76 361.16c64.69,0 117.14,52.45 117.14,117.15 0,64.69 -52.45,117.14 -117.14,117.14 -64.7,0 -117.15,-52.45 -117.15,-117.14 0,-64.7 52.45,-117.15 117.15,-117.15zm388.76 0c64.69,0 117.14,52.45 117.14,117.15 0,64.69 -52.45,117.14 -117.14,117.14 -64.7,0 -117.15,-52.45 -117.15,-117.14 0,-64.7 52.45,-117.15 117.15,-117.15zm-195.82 -253.84l0 0c14.93,0 27.13,12.21 27.13,27.13l0 66.14c0,14.92 -12.2,27.12 -27.13,27.12l0 0c-14.91,0 -27.12,-12.2 -27.12,-27.12l0 -66.14c0,-14.92 12.21,-27.13 27.12,-27.13zm670.16 426.4c41.6,0 75.33,33.73 75.33,75.34 0,41.6 -33.73,75.33 -75.33,75.33 -41.61,0 -75.34,-33.73 -75.34,-75.33 0,-41.61 33.73,-75.34 75.34,-75.34zm650.45 -1126.01l112.76 0c14.98,0 27.24,12.27 27.24,27.26l0 1831.18 -54.79 154.81 -1.59 2041.13c0,14.98 -12.26,27.26 -27.24,27.26l-56.38 0c-14.98,0 -27.24,-12.27 -27.24,-27.26l-1.55 -2835.03c0,-15.52 13.17,-21.35 18.01,-22.31l28.05 -5.59c14.7,-2.92 24.73,-10.82 24.73,-25.8l0 -375.7c0,-14.98 -11.4,-21.15 -26.17,-23.64l-21.38 -3.6c-4.86,-0.82 -21.69,-3.72 -21.69,-25.55l0 -709.9c0,-14.99 12.26,-27.26 27.24,-27.26zm158.28 4143.13l118.52 0c14.99,0 27.25,-12.27 27.25,-27.25l0 -2454.55c0,-28.34 -25.14,-33.68 -37.66,-34.45l-26.43 -1.62c-14.95,-0.91 -27.24,-12.26 -27.24,-27.24l0 -211.52c0,-14.98 12.26,-27.24 27.24,-27.24l34.36 0c6.06,0 29.73,1.1 29.73,-28.5l0 -1276.81c0,-14.98 -12.27,-27.25 -27.25,-27.25l-59.04 0c-14.98,0 -27.18,12.27 -27.25,27.25l-9.01 2066.56 -47.38 225.2 51.53 16.84 -54.61 20.54 0 1732.79c0,14.98 12.26,27.25 27.24,27.25zm74.11 -568.33l0 0c14.63,0 26.59,-11.97 26.59,-26.59l0 -380.16c0,-14.63 -11.96,-26.59 -26.59,-26.59l0 0c-14.63,0 -26.59,11.96 -26.59,26.59l0 380.16c0,14.62 11.96,26.59 26.59,26.59z"/>
 </g>
</svg>
