<?xml version="1.0" encoding="UTF-8"?>
<!DOCTYPE svg PUBLIC "-//W3C//DTD SVG 1.1//EN" "http://www.w3.org/Graphics/SVG/1.1/DTD/svg11.dtd">
<!-- Creator: CorelDRAW 2020 (64-Bit) -->
<svg xmlns="http://www.w3.org/2000/svg" xml:space="preserve" width="40mm" height="60mm" version="1.1" style="shape-rendering:geometricPrecision; text-rendering:geometricPrecision; image-rendering:optimizeQuality; fill-rule:evenodd; clip-rule:evenodd"
viewBox="0 0 4000 6000"
 xmlns:xlink="http://www.w3.org/1999/xlink"
 xmlns:xodm="http://www.corel.com/coreldraw/odm/2003">
 <defs>
  <style type="text/css">
   <![CDATA[
    .str0 {stroke:black;stroke-width:7.62;stroke-miterlimit:22.9256}
    .fil0 {fill:none}
   ]]>
  </style>
 </defs>
 <g id="图层_x0020_1">
  <metadata id="CorelCorpID_0Corel-Layer"/>
  <path class="fil0 str0" d="M2558.12 865.46c3.4,-21.84 -14.97,-37.15 -24.08,-37.86 -32.42,0 -58.7,26.28 -58.7,58.7 0,32.42 26.28,58.71 58.7,58.71 32.42,0 58.7,-26.29 58.7,-58.71 0,-32.42 -26.28,-58.7 -58.7,-58.7m-1068.9 37.29c-3.11,-11.64 -7.35,-20.18 -27.32,-20.18l-16.56 0c-23.06,0 -41.93,18.86 -41.93,41.92l0 0.01c0,23.05 18.87,41.93 41.93,41.93l67.09 0c23.07,0 41.93,-18.87 41.93,-41.93l0 -0.01c0,-23.06 -18.88,-41.92 -41.93,-41.92l-50.53 0m-432.73 4490.32l1876.81 0c87.85,0 159.75,-71.89 159.75,-159.74l0 -4359.88c0,-87.83 -71.89,-159.74 -159.75,-159.74l-625.1 0c-2.6,0 -4.83,0.63 -7.04,2l-9.62 5.94c-2.22,1.37 -4.45,2 -7.05,2l-481.91 0c-1.9,0 -3.51,-0.33 -5.25,-1.07l-18.36 -7.8c-1.74,-0.74 -3.36,-1.07 -5.25,-1.07l-617.42 0c-87.86,0 -159.75,71.88 -159.75,159.74l0 4359.88c0,87.86 71.9,159.74 159.75,159.74l22.5 0c49.7,0 76.52,8.22 91.25,20.64"/>
 </g>
</svg>
