<?xml version="1.0" encoding="UTF-8"?>
<!DOCTYPE svg PUBLIC "-//W3C//DTD SVG 1.1//EN" "http://www.w3.org/Graphics/SVG/1.1/DTD/svg11.dtd">
<!-- Creator: CorelDRAW X8 -->
<svg xmlns="http://www.w3.org/2000/svg" xml:space="preserve" width="40mm" height="60mm" version="1.1" style="shape-rendering:geometricPrecision; text-rendering:geometricPrecision; image-rendering:optimizeQuality; fill-rule:evenodd; clip-rule:evenodd"
viewBox="0 0 4000 6000"
 xmlns:xlink="http://www.w3.org/1999/xlink">
 <defs>
  <style type="text/css">
   <![CDATA[
    .str0 {stroke:black;stroke-width:20;stroke-linejoin:bevel}
    .fil0 {fill:none}
   ]]>
  </style>
 </defs>
 <g id="图层_x0020_1">
  <metadata id="CorelCorpID_0Corel-Layer"/>
  <path class="fil0 str0" d="M3151 1405c0,0 13,0 13,0 16,0 30,15 30,33 0,0 0,119 0,119 0,18 -14,33 -30,33 0,0 -13,0 -13,0 -17,0 -30,-15 -30,-33 0,0 0,-119 0,-119 0,-18 13,-33 30,-33zm4 318c0,0 0,0 0,0 23,0 41,18 41,41 0,0 0,246 0,246 0,23 -18,41 -41,41 0,0 0,0 0,0 -22,0 -41,-18 -41,-41 0,0 0,-246 0,-246 0,-23 19,-41 41,-41zm0 401c0,0 0,0 0,0 23,0 41,18 41,41 0,0 0,244 0,244 0,23 -18,41 -41,41 0,0 0,0 0,0 -22,0 -41,-18 -41,-41 0,0 0,-244 0,-244 0,-23 19,-41 41,-41zm-1701 -950c0,0 0,409 0,409 0,94 -77,171 -172,171 0,0 -17,0 -17,0 -94,0 -171,-77 -171,-171 0,0 0,-409 0,-409 0,-94 77,-172 171,-172 0,0 17,0 17,0 95,0 172,78 172,172zm609 786c16,-19 29,-47 27,-76 -25,1 -54,15 -72,35 -17,18 -31,46 -28,73 27,3 55,-12 73,-32l0 0zm128 275c-11,25 -16,36 -31,59 -20,31 -48,70 -83,70 -31,0 -39,-21 -81,-21 -42,0 -51,21 -82,20 -35,0 -61,-36 -81,-67 -33,-53 -48,-110 -48,-160 0,-34 8,-64 22,-86 25,-39 63,-61 100,-61 37,0 60,21 90,21 30,0 48,-20 91,-20 32,0 66,18 91,50 -81,45 -68,163 12,195l0 0zm-1351 -433c34,0 63,28 63,63 0,0 0,422 0,422 0,35 -29,63 -63,63 -35,0 -63,-28 -63,-63 0,0 0,-422 0,-422 0,-35 28,-63 63,-63zm-4 917c33,0 60,27 60,60 0,0 0,423 0,423 0,33 -27,60 -60,60 0,0 -8,0 -8,0 -33,0 -60,-27 -60,-60 0,0 0,-423 0,-423 0,-33 27,-60 60,-60 0,0 8,0 8,0zm444 2502c0,0 354,0 354,0 18,0 32,14 32,32 0,17 -14,32 -32,32 0,0 -354,0 -354,0 -18,0 -32,-15 -32,-32 0,-18 14,-32 32,-32zm604 -33c0,0 212,0 212,0 29,0 53,24 53,53 0,0 0,22 0,22 0,29 -24,53 -53,53 0,0 -212,0 -212,0 -30,0 -53,-24 -53,-53 0,0 0,-22 0,-22 0,-29 23,-53 53,-53zm464 30c0,0 350,0 350,0 20,0 37,17 37,38 0,20 -17,37 -37,37 0,0 -350,0 -350,0 -20,0 -37,-17 -37,-37 0,-21 17,-38 37,-38zm906 -3955c0,0 -210,0 -210,0 0,0 0,-88 0,-88 0,-151 -111,-278 -256,-303 -74,-13 -65,-53 5,-53 175,0 351,0 526,0 25,0 23,-1 23,-19 0,-31 0,-62 0,-94 0,-25 2,-25 -30,-25 0,0 -497,0 -497,0 0,0 0,-31 0,-31 0,0 -1630,0 -1630,0 0,0 0,31 0,31 -171,0 -342,0 -514,0 -15,0 -13,-2 -13,12 0,36 0,73 0,109 0,21 -1,17 25,17 0,0 542,0 542,0 83,0 94,39 3,52 -148,21 -264,150 -264,304 0,0 0,88 0,88 0,0 -231,0 -231,0 0,0 0,3483 0,3483 0,0 207,0 207,0 0,0 0,115 0,115 0,146 113,266 255,277 58,5 56,42 2,42 -172,0 -345,0 -517,0 -26,0 -22,-4 -22,21 0,37 0,75 0,113 0,18 -2,14 18,14 0,0 509,0 509,0 0,0 0,22 0,22 0,0 1630,0 1630,0 0,0 0,-22 0,-22 173,0 346,0 519,0 5,0 8,-3 8,-7 0,-34 0,-88 0,-130 0,-11 1,-11 -11,-11 0,0 -547,0 -547,0 -73,0 -54,-41 -16,-41 153,0 278,-124 278,-278 0,0 0,-114 0,-114 0,0 208,0 208,0 0,-1287 0,-2425 0,-3484z"/>
 </g>
</svg>
