<?xml version="1.0" encoding="UTF-8"?>
<!DOCTYPE svg PUBLIC "-//W3C//DTD SVG 1.1//EN" "http://www.w3.org/Graphics/SVG/1.1/DTD/svg11.dtd">
<!-- Creator: CorelDRAW -->
<svg xmlns="http://www.w3.org/2000/svg" xml:space="preserve" width="40mm" height="60mm" style="shape-rendering:geometricPrecision; text-rendering:geometricPrecision; image-rendering:optimizeQuality; fill-rule:evenodd; clip-rule:evenodd"
viewBox="0 0 40 60"
 xmlns:xlink="http://www.w3.org/1999/xlink">
 <defs>
  <style type="text/css">
   <![CDATA[
    .str1 {stroke:#1F1A17;stroke-width:0.0762}
    .str0 {stroke:#1F1A17;stroke-width:0.0762}
    .fil1 {fill:none}
    .fil0 {fill:none;fill-rule:nonzero}
   ]]>
  </style>
 </defs>
 <g id="图层_x0020_1">
  <metadata id="CorelCorpID_0Corel-Layer"/>
  <g id="_253718448">
   <path id="_254219384" class="fil0 str0" d="M9.1475 29.9129c0,-6.8936 0,-13.7872 0,-20.6808 0.0709,-1.8207 0.8888,-2.6031 2.8352,-2.7085"/>
   <line id="_253721136" class="fil0 str0" x1="11.9827" y1="6.5236" x2="27.3671" y2= "6.5" />
   <path id="_252828520" class="fil0 str0" d="M27.3671 6.5c0.5169,0 0.6438,0.0064 0.9662,0.0548 0.8727,0.129 0.991,0.1591 1.3155,0.33 0.6503,0.3418 1.0017,0.8953 1.1662,1.8303 0.0344,0.1946 0.0376,0.5213 0.0376,3.3823"/>
   <line id="_256608504" class="fil0 str0" x1="30.8526" y1="12.0974" x2="30.8494" y2= "50.6743" />
   <path id="_253722672" class="fil0 str0" d="M30.8494 50.6743c-0.0323,1.5584 -0.6277,2.4505 -1.7874,2.6773 -0.5997,0.1171 -0.9716,0.1504 -1.6756,0.1483"/>
   <line id="_253020856" class="fil0 str0" x1="27.3864" y1="53.4999" x2="11.6377" y2= "53.4612" />
   <path id="_253721520" class="fil0 str0" d="M11.6377 53.4612c-0.8415,-0.1042 -1.1769,-0.2063 -1.538,-0.4664 -0.6362,-0.4601 -0.9286,-1.1576 -0.9522,-2.2764"/>
   <line id="_256619112" class="fil0 str0" x1="9.1475" y1="50.7184" x2="9.1475" y2= "29.6077" />
   <path id="_228356600" class="fil1 str1" d="M16.1521 7.0828c0.2414,0 0.4372,0.1957 0.4372,0.4371 0,0.2415 -0.1958,0.4372 -0.4372,0.4372 -0.2415,0 -0.4372,-0.1957 -0.4372,-0.4372 0,-0.2414 0.1957,-0.4371 0.4372,-0.4371z"/>
   <path id="_253020424" class="fil1 str1" d="M22.8246 7.1041c0.2414,0 0.4372,0.1958 0.4372,0.4372 0,0.2414 -0.1958,0.4372 -0.4372,0.4372 -0.2414,0 -0.4372,-0.1958 -0.4372,-0.4372 0,-0.2414 0.1958,-0.4372 0.4372,-0.4372z"/>
   <path id="_253721808" class="fil1 str1" d="M18.5971 7.2457l2.8131 0c0.1263,0 0.2296,0.1262 0.2296,0.2805l0 0c0,0.1543 -0.1033,0.2805 -0.2296,0.2805l-2.8131 0c-0.1263,0 -0.2296,-0.1262 -0.2296,-0.2805l0 0c0,-0.1543 0.1033,-0.2805 0.2296,-0.2805z"/>
  </g>
 </g>
</svg>
