<?xml version="1.0" encoding="UTF-8"?>
<!DOCTYPE svg PUBLIC "-//W3C//DTD SVG 1.1//EN" "http://www.w3.org/Graphics/SVG/1.1/DTD/svg11.dtd">
<!-- Creator: CorelDRAW X8 -->
<svg xmlns="http://www.w3.org/2000/svg" xml:space="preserve" width="40mm" height="60mm" version="1.1" style="shape-rendering:geometricPrecision; text-rendering:geometricPrecision; image-rendering:optimizeQuality; fill-rule:evenodd; clip-rule:evenodd"
viewBox="0 0 4000 6000"
 xmlns:xlink="http://www.w3.org/1999/xlink">
 <defs>
  <style type="text/css">
   <![CDATA[
    .str0 {stroke:#222222;stroke-width:20}
    .str1 {stroke:#332C2B;stroke-width:10}
    .fil0 {fill:none}
   ]]>
  </style>
 </defs>
 <g id="图层_x0020_1">
  <metadata id="CorelCorpID_0Corel-Layer"/>
  <path class="fil0 str0" d="M941 5262l1943 0c96,0 175,-78 175,-174l0 -4265c0,-95 -79,-173 -175,-173l-437 0 -21 17 -838 0 -22 -17 -408 0c-96,0 -175,78 -175,173l0 4265c0,96 79,174 175,174 97,0 192,61 192,88"/>
  <path class="fil0 str0" d="M-3819 24153l0 -6444c0,-325 -267,-591 -593,-591l-14574 0c-326,0 -593,266 -593,591l0 1468 60 72 0 2820 -60 73 0 1372c0,325 267,591 593,591l14574 0c326,0 593,-266 593,-591 0,-326 265,-696 432,-696"/>
  <path class="fil0 str1" d="M-18799 20738c-16,0 -333,21 -333,-93 0,-115 92,-207 207,-207 114,0 207,92 207,207 0,114 -93,207 -207,207 -115,0 -207,-93 -207,-207"/>
  <path class="fil0 str0" d="M-3463 5255c-229,0 -356,506 -356,831 0,326 -267,592 -593,592l-14574 0c-326,0 -593,-266 -593,-592l0 -1371 60 -74 0 -2819 -60 -72 0 -1468c0,-325 267,-591 593,-591l14574 0c326,0 593,266 593,591l0 6459"/>
  <g id="_1881125357600">
   <path class="fil0 str0" d="M584 22860l1871 0c94,0 171,-78 171,-172l0 -4231c0,-94 -77,-172 -171,-172l-426 0 -21 18 -819 0 -21 -18 -398 0c-95,0 -172,78 -172,172l0 4231c0,95 77,172 172,172 94,0 202,77 202,125"/>
   <path class="fil0 str1" d="M1576 18512c0,-5 -7,-97 27,-97 33,0 60,27 60,60 0,33 -27,60 -60,60 -34,0 -60,-27 -60,-60 0,-33 26,-60 60,-60"/>
  </g>
 </g>
</svg>
