<?xml version="1.0" encoding="UTF-8"?>
<!DOCTYPE svg PUBLIC "-//W3C//DTD SVG 1.1//EN" "http://www.w3.org/Graphics/SVG/1.1/DTD/svg11.dtd">
<!-- Creator: CorelDRAW X8 -->
<svg xmlns="http://www.w3.org/2000/svg" xml:space="preserve" width="40mm" height="60mm" version="1.1" style="shape-rendering:geometricPrecision; text-rendering:geometricPrecision; image-rendering:optimizeQuality; fill-rule:evenodd; clip-rule:evenodd"
viewBox="0 0 4000 6000"
 xmlns:xlink="http://www.w3.org/1999/xlink">
 <defs>
  <style type="text/css">
   <![CDATA[
    .str0 {stroke:black;stroke-width:20}
    .fil0 {fill:none}
   ]]>
  </style>
 </defs>
 <g id="图层_x0020_1">
  <metadata id="CorelCorpID_0Corel-Layer"/>
  <path class="fil0 str0" d="M912 5350l1992 0c130,0 236,-106 236,-237l0 -4226c0,-131 -106,-237 -236,-237l-1808 0c-130,0 -236,106 -236,237l0 4226c0,131 106,237 236,237l225 0m313 -4650c0,-6 -6,-12 -16,-12 -39,0 -69,31 -69,69 0,38 30,69 69,69 38,0 69,-31 69,-69 0,-38 -31,-69 -69,-69m335 73c-6,-21 -18,-38 -71,-38l-45 0c-24,0 -43,19 -43,43l0 0c0,24 19,43 43,43l379 0c23,0 43,-19 43,-43l0 0c0,-24 -20,-43 -43,-43l-334 0m123 4325c-10,-37 -24,-64 -88,-64l-53 0c-74,0 -135,60 -135,134l0 0c0,74 61,135 135,135l318 0c74,0 135,-61 135,-135l0 0c0,-74 -61,-134 -135,-134l-265 0"/>
 </g>
</svg>
