<?xml version="1.0" encoding="UTF-8"?>
<!DOCTYPE svg PUBLIC "-//W3C//DTD SVG 1.1//EN" "http://www.w3.org/Graphics/SVG/1.1/DTD/svg11.dtd">
<!-- Creator: CorelDRAW X8 -->
<svg xmlns="http://www.w3.org/2000/svg" xml:space="preserve" width="40mm" height="60mm" version="1.1" style="shape-rendering:geometricPrecision; text-rendering:geometricPrecision; image-rendering:optimizeQuality; fill-rule:evenodd; clip-rule:evenodd"
viewBox="0 0 4000 6000"
 xmlns:xlink="http://www.w3.org/1999/xlink">
 <defs>
  <style type="text/css">
   <![CDATA[
    .str1 {stroke:#332C2B;stroke-width:20}
    .str0 {stroke:#332C2B;stroke-width:10}
    .fil0 {fill:none}
   ]]>
  </style>
 </defs>
 <g id="图层_x0020_1">
  <metadata id="CorelCorpID_0Corel-Layer"/>
  <g id="_2444807613744">
   <path class="fil0 str0" d="M952 5307l0 -4439 224 -218 167 0 44 31 1289 1 40 -32 166 0 232 225 0 4255c0,0 -174,176 -197,200 -23,23 -38,20 -38,20l-151 0 -46 -29 -1295 1 -38 26 -145 0c0,0 -27,2 -44,-19 -19,-20 -208,-202 -208,-202l-66 -67"/>
   <path class="fil0 str0" d="M1979 884c0,-103 -77,-114 -114,-114 -37,0 -67,30 -67,67l0 0c0,37 30,67 67,67l511 0c37,0 67,-30 67,-67l0 0c0,-37 -30,-67 -67,-67l-511 0"/>
   <path class="fil0 str0" d="M1681 862c-51,0 -76,-26 -76,-54 0,-29 23,-52 52,-52l0 0c29,0 52,23 52,52l0 79c0,29 -23,52 -52,52l0 0c-29,0 -52,-23 -52,-52l0 -79"/>
  </g>
  <path class="fil0 str1" d="M-1171 6506l-14304 0 -702 -720 0 -538 100 -142 2 -4153 -101 -130 -1 -533 724 -749 13712 2c0,0 568,559 643,634 75,74 66,123 66,123l0 484 -94 148 5 4174 82 122 0 467c0,0 6,87 -60,141 -65,64 -652,670 -652,670l-214 215"/>
  <path class="fil0 str1" d="M-15422 3198c-332,0 -367,248 -367,367 0,119 97,217 215,217l0 0c119,0 216,-97 216,-216l0 -1647c0,-119 -97,-216 -216,-216l0 0c-118,0 -215,97 -215,216l0 1646"/>
  <path class="fil0 str1" d="M-15494 4158c0,165 -82,247 -174,247 -93,0 -169,-76 -169,-168l0 0c0,-93 76,-169 169,-169l255 0c93,0 168,76 168,169l0 0c0,92 -75,168 -168,168l-255 0"/>
 </g>
</svg>
