<?xml version="1.0" encoding="UTF-8"?>
<!DOCTYPE svg PUBLIC "-//W3C//DTD SVG 1.1//EN" "http://www.w3.org/Graphics/SVG/1.1/DTD/svg11.dtd">
<!-- Creator: CorelDRAW 2020 (64-Bit) -->
<svg xmlns="http://www.w3.org/2000/svg" xml:space="preserve" width="40mm" height="60mm" version="1.1" style="shape-rendering:geometricPrecision; text-rendering:geometricPrecision; image-rendering:optimizeQuality; fill-rule:evenodd; clip-rule:evenodd"
viewBox="0 0 4000 6000"
 xmlns:xlink="http://www.w3.org/1999/xlink"
 xmlns:xodm="http://www.corel.com/coreldraw/odm/2003">
 <defs>
  <style type="text/css">
   <![CDATA[
    .str1 {stroke:#332C2B;stroke-width:20;stroke-miterlimit:22.9256}
    .str0 {stroke:#E62129;stroke-width:20;stroke-miterlimit:22.9256}
    .fil0 {fill:none}
   ]]>
  </style>
   <clipPath id="id0">
    <rect x="-73749.42" y="-14134.58" width="26276.73" height="29014.8"/>
   </clipPath>
 </defs>
 <g id="图层_x0020_1">
  <metadata id="CorelCorpID_0Corel-Layer"/>
  <g style="clip-path:url(#id0)">
   <image transform="matrix(3.31547E-14 1.25185 -1.25185 3.31547E-14 -47472.7 -14134.6)" x="0" y="0" width="23177.5" height="20990.28" xlink:href="MatePad 11 (2021) -11i（前膜带壳）_Images\MatePad 11 (2021) -11i（前膜带壳）_ImgID1.png"/>
  </g>
  <rect class="fil0 str0" x="-73276.34" y="-2090.11" width="25380" height="16530"/>
  <path class="fil0 str0" d="M-72083.9 -1804.91l11260.23 0 0 245.19c0,147.71 120.84,268.55 268.55,268.55l0.01 0c147.71,0 268.55,-120.84 268.55,-268.55l0 -245.19 11197.76 0c495.01,0 900.01,405 900.01,900l0 14170.91c0,495 -405,900 -900.01,900l-22995.1 0c-494.99,0 -899.99,-405 -899.99,-900l0 -14170.91c0,-495 405,-900 899.99,-900z"/>
  <path class="fil0 str1" d="M-24235.75 14294.75l14632.51 0c491.89,0 894.37,-403.38 894.37,-896.36l0 -22902.36c0,-493.01 -402.47,-896.38 -894.37,-896.38l-14082.17 0c-491.9,0 -894.37,403.37 -894.37,896.38l0 11152.6 243.66 0c146.78,0 266.87,120.35 266.87,267.47l0 0.01c0,147.11 -120.09,267.46 -266.87,267.46l-243.66 0 0 11214.82c0,492.99 402.47,896.36 894.37,896.36 491.9,0 738.82,34.03 933.29,131.93"/>
  <path class="fil0 str1" d="M574.33 5327.33l2754.98 0c93.37,0 169.76,-76.39 169.76,-169.75l0 -4337.29c0,-93.37 -76.39,-169.76 -169.76,-169.76l-2672.88 0c-93.37,0 -169.76,76.39 -169.76,169.76l0 2112.1 46.25 0c27.86,0 50.65,22.79 50.65,50.65l0 0c0,27.86 -22.79,50.66 -50.65,50.66l-46.25 0 0 2123.88c0,93.36 76.39,169.75 169.76,169.75 93.36,0 125.99,10.47 141.71,23.2"/>
 </g>
</svg>
