<?xml version="1.0" encoding="UTF-8"?>
<!DOCTYPE svg PUBLIC "-//W3C//DTD SVG 1.1//EN" "http://www.w3.org/Graphics/SVG/1.1/DTD/svg11.dtd">
<!-- Creator: CorelDRAW X8 -->
<svg xmlns="http://www.w3.org/2000/svg" xml:space="preserve" width="40mm" height="60mm" version="1.1" style="shape-rendering:geometricPrecision; text-rendering:geometricPrecision; image-rendering:optimizeQuality; fill-rule:evenodd; clip-rule:evenodd"
viewBox="0 0 4000 6000"
 xmlns:xlink="http://www.w3.org/1999/xlink">
 <defs>
  <style type="text/css">
   <![CDATA[
    .str0 {stroke:black;stroke-width:7.62;stroke-linejoin:bevel}
    .fil0 {fill:none}
   ]]>
  </style>
 </defs>
 <g id="图层_x0020_1">
  <metadata id="CorelCorpID_0Corel-Layer"/>
  <path class="fil0 str0" d="M379 3931l1065 0c93,0 182,-33 252,-92l-25 -70 70 25c60,-70 92,-159 92,-252l0 -1084c0,-93 -32,-182 -92,-252l-70 25 25 -70c-70,-60 -159,-92 -252,-92l-805 0c-92,0 -182,33 -252,92l25 70 -69 -25c-60,70 -93,159 -93,252l0 1084c0,93 33,182 93,252l69 -25 -25 70c70,60 160,92 252,92l131 0m1526 0l1065 0c92,0 182,-33 252,-92l-25 -70 69 25c60,-70 93,-159 93,-252l0 -1084c0,-93 -33,-182 -93,-252l-69 25 25 -70c-70,-60 -160,-92 -252,-92l-805 0c-93,0 -182,33 -252,92l25 70 -70 -25c-60,70 -92,159 -92,252l0 1084c0,93 32,182 92,252l70 -25 -25 70c70,60 159,92 252,92l130 0"/>
 </g>
</svg>
