<?xml version="1.0" encoding="UTF-8"?>
<!DOCTYPE svg PUBLIC "-//W3C//DTD SVG 1.1//EN" "http://www.w3.org/Graphics/SVG/1.1/DTD/svg11.dtd">
<!-- Creator: CorelDRAW X8 -->
<svg xmlns="http://www.w3.org/2000/svg" xml:space="preserve" width="40mm" height="60mm" version="1.1" style="shape-rendering:geometricPrecision; text-rendering:geometricPrecision; image-rendering:optimizeQuality; fill-rule:evenodd; clip-rule:evenodd"
viewBox="0 0 4000 6000"
 xmlns:xlink="http://www.w3.org/1999/xlink">
 <defs>
  <style type="text/css">
   <![CDATA[
    .str0 {stroke:#332C2B;stroke-width:20}
    .fil0 {fill:none}
   ]]>
  </style>
 </defs>
 <g id="图层_x0020_1">
  <metadata id="CorelCorpID_0Corel-Layer"/>
  <path class="fil0 str0" d="M460 3927c0,0 328,0 721,0 392,0 711,319 711,712 0,393 -319,711 -711,711 -393,0 -712,-318 -712,-711 0,-393 319,-712 712,-712m-721 -1638c0,0 328,0 721,0 392,0 711,318 711,711 0,393 -319,711 -711,711 -393,0 -712,-318 -712,-711 0,-393 319,-711 712,-711m-721 -1639c0,0 328,0 721,0 392,0 711,318 711,711 0,393 -319,712 -711,712 -393,0 -712,-319 -712,-712 0,-393 319,-711 712,-711m927 3277c0,0 327,0 720,0 393,0 712,319 712,712 0,393 -319,711 -712,711 -393,0 -711,-318 -711,-711 0,-393 318,-712 711,-712m-720 -1638c0,0 327,0 720,0 393,0 712,318 712,711 0,393 -319,711 -712,711 -393,0 -711,-318 -711,-711 0,-393 318,-711 711,-711m-720 -1639c0,0 327,0 720,0 393,0 712,318 712,711 0,393 -319,712 -712,712 -393,0 -711,-319 -711,-712 0,-393 318,-711 711,-711"/>
 </g>
</svg>
