<?xml version="1.0" encoding="UTF-8"?>
<!DOCTYPE svg PUBLIC "-//W3C//DTD SVG 1.1//EN" "http://www.w3.org/Graphics/SVG/1.1/DTD/svg11.dtd">
<!-- Creator: CorelDRAW X8 -->
<svg xmlns="http://www.w3.org/2000/svg" xml:space="preserve" width="40mm" height="60mm" version="1.1" style="shape-rendering:geometricPrecision; text-rendering:geometricPrecision; image-rendering:optimizeQuality; fill-rule:evenodd; clip-rule:evenodd"
viewBox="0 0 4000 6000"
 xmlns:xlink="http://www.w3.org/1999/xlink">
 <defs>
  <style type="text/css">
   <![CDATA[
    .str0 {stroke:black;stroke-width:7.62}
    .fil0 {fill:none}
   ]]>
  </style>
 </defs>
 <g id="图层_x0020_1">
  <metadata id="CorelCorpID_0Corel-Layer"/>
  <path class="fil0 str0" d="M1954 867c-6,-23 -18,-42 -75,-42l-48 0c-26,0 -46,21 -46,47l0 0c0,25 20,46 46,46l350 0c25,0 46,-21 46,-46l0 0c0,-26 -21,-47 -46,-47l-302 0m-492 12c-6,-19 -13,-33 -46,-33l-28 0c-39,0 -70,31 -70,70l0 0c0,39 31,70 70,70l173 0c38,0 70,-31 70,-70l0 0c0,-39 -32,-70 -70,-70l-145 0m-374 4546l1919 0c141,0 259,-114 259,-255l0 -4188c0,-141 -115,-257 -256,-257l-1778 0c-141,0 -256,116 -256,257l0 4188c0,141 113,255 254,255l64 0"/>
 </g>
</svg>
