<?xml version="1.0" encoding="UTF-8"?>
<!DOCTYPE svg PUBLIC "-//W3C//DTD SVG 1.1//EN" "http://www.w3.org/Graphics/SVG/1.1/DTD/svg11.dtd">
<!-- Creator: CorelDRAW -->
<svg xmlns="http://www.w3.org/2000/svg" xml:space="preserve" width="40mm" height="60mm" style="shape-rendering:geometricPrecision; text-rendering:geometricPrecision; image-rendering:optimizeQuality; fill-rule:evenodd; clip-rule:evenodd"
viewBox="0 0 40 60"
 xmlns:xlink="http://www.w3.org/1999/xlink">
 <defs>
  <style type="text/css">
   <![CDATA[
    .str0 {stroke:#1F1A17;stroke-width:0.0762}
    .fil0 {fill:none}
   ]]>
  </style>
 </defs>
 <g id="图层_x0020_1">
  <metadata id="CorelCorpID_0Corel-Layer"/>
  <path class="fil0 str0" d="M8.7329 8.36l3.4811 -0.0564c-0.051,0.0355 -0.7244,0.1273 -0.7788,0.1625 -0.53,0.3431 -1.2029,0.714 -1.2716,1.5392l-1.86 0 0.0256 1.8602 -0.3833 37.9861 1.7169 0c0.2568,0 0.4182,0.9216 0.5895,1.1274 0.2506,0.3012 0.6062,0.4137 0.9109,0.6214 0.0496,0.0338 0.7181,0.0707 0.7646,0.1112l-3.4811 0 0 1.6453 4.8646 0 -0.0564 -0.7153 0.071 -0.1285 0.1284 -0.0428 4.0777 0.0282c0.1648,0 0.2146,0.0497 0.2146,0.2146l0 0.7154 0.8584 0 0 -0.5723c0,-0.509 0.1835,-0.5032 0.2862,-0.7869l2.1461 0c0.0131,-0.0165 0.1431,0.3771 0.1431,0.5007l0 0.7869 0.046 0.097 0.097 0.0461 3.4338 0c0.1232,-0.5288 -0.0636,-1.5738 0.5723,-1.5738l0.2146 0c0.2951,0 0.6439,0.2404 0.6439,0.5007l0 1.0016c0.1604,0.0373 0.1645,0.0715 0.3577,0.0715l4.793 0 0 -1.6454 -2.6807 0 -0.7593 -0.0281c0.0739,-0.0514 0.6598,-0.0751 0.7404,-0.1278 0.5666,-0.3703 1.2504,-0.8034 1.2688,-1.6325l1.6454 0c0.3779,0 0.2146,-1.6524 0.2146,-2.0746 0,-0.763 0.0006,-1.5261 0,-2.2892 -0.0012,-1.3319 0.0134,-3.0895 0.0688,-4.5095 0.113,-2.8953 0.0743,-6.0697 0.0743,-9.0825 0,-6.0707 0.1431,-12.039 0.1431,-18.1705l0 -3.5769c0,-0.1648 -0.0498,-0.2146 -0.2147,-0.2146l-1.6453 0c0,-0.5052 -0.2111,-0.7597 -0.5578,-1.1591 -0.1534,-0.1768 -0.4565,-0.3278 -0.6461,-0.4414 -0.074,-0.0443 -0.6946,-0.1118 -0.7186,-0.1446l3.4963 0.0282 0 -1.7169 -0.5006 -0.0155 -22.5344 -0.1991 0 1.86zm6.0091 2.5753l0 0.2862c0,0.6339 0.6096,1.1446 1.2877,1.1446 0.6569,0 1.2876,-0.6104 1.2876,-1.2877l0 -0.1431c0,-0.5498 -0.535,-1.1446 -1.073,-1.1446l-0.3577 0c-0.6125,0 -1.1446,0.5757 -1.1446,1.1446zm-2.7466 0l0 0.2862c0,0.5455 0.5275,1.073 1.0731,1.073l0.0715 0c0.7404,0 1.2877,-0.4131 1.2877,-1.1446l0 -0.3577c0,-0.4089 -0.5211,-0.9299 -0.93,-0.9299l-0.4292 0c-0.4953,0 -1.0731,0.612 -1.0731,1.073zm19.1001 0.678l-0.043 0.1089 0 5.0076c0,0.1649 0.0498,0.2146 0.2146,0.2146l0.1431 0c0.4306,0.2204 0.2836,-2.1169 0.3295,-2.7184l0.0282 -2.2892c-0.0021,-0.2394 -0.0415,-0.3755 -0.2988,-0.3671 -0.1464,0.0047 -0.1081,0.0094 -0.2735,0.0094l-0.1001 0.0342zm-12.6585 -4.798c0.1615,0 0.2925,0.131 0.2925,0.2925 0,0.1616 -0.131,0.2926 -0.2925,0.2926 -0.1616,0 -0.2926,-0.131 -0.2926,-0.2926 0,-0.1615 0.131,-0.2925 0.2926,-0.2925zm0.0712 3.8656c0.2233,0 0.4044,0.1811 0.4044,0.4044 0,0.2233 -0.1811,0.4044 -0.4044,0.4044 -0.2233,0 -0.4044,-0.1811 -0.4044,-0.4044 0,-0.2233 0.1811,-0.4044 0.4044,-0.4044zm-9.6109 12.2743l0 0c0.2082,0 0.3786,0.1703 0.3786,0.3786l0 2.0822c0,0.2082 -0.1704,0.3786 -0.3786,0.3786l0 0c-0.2083,0 -0.3786,-0.1704 -0.3786,-0.3786l0 -2.0822c0,-0.2083 0.1703,-0.3786 0.3786,-0.3786zm0.0602 -7.8126l0 0c0.2224,0 0.4044,0.1819 0.4044,0.4044l0 5.1625c0,0.2224 -0.182,0.4044 -0.4044,0.4044l0 0c-0.2224,0 -0.4044,-0.182 -0.4044,-0.4044l0 -5.1625c0,-0.2225 0.182,-0.4044 0.4044,-0.4044z"/>
 </g>
</svg>
