<?xml version="1.0" encoding="UTF-8"?>
<!DOCTYPE svg PUBLIC "-//W3C//DTD SVG 1.1//EN" "http://www.w3.org/Graphics/SVG/1.1/DTD/svg11.dtd">
<!-- Creator: CorelDRAW X8 -->
<svg xmlns="http://www.w3.org/2000/svg" xml:space="preserve" width="40mm" height="60mm" version="1.1" style="shape-rendering:geometricPrecision; text-rendering:geometricPrecision; image-rendering:optimizeQuality; fill-rule:evenodd; clip-rule:evenodd"
viewBox="0 0 4000 6000"
 xmlns:xlink="http://www.w3.org/1999/xlink">
 <defs>
  <style type="text/css">
   <![CDATA[
    .fil0 {fill:#222222;fill-rule:nonzero}
   ]]>
  </style>
 </defs>
 <g id="图层_x0020_1">
  <metadata id="CorelCorpID_0Corel-Layer"/>
  <g>
   <path class="fil0" d="M978 5354c-2,0 -4,-2 -4,-4 0,-2 2,-4 4,-4l0 8zm1858 0l-1858 0 0 -8 1858 0 0 0 0 8zm0 -8c3,0 4,2 4,4 0,2 -1,4 -4,4l0 -8zm226 -226l8 0 0 0 0 12 -1 12 -2 12 -2 11 -2 12 -3 11 -4 11 -4 10 -5 10 -5 11 -6 9 -6 10 -6 9 -7 9 -8 8 -7 8 -8 8 -9 7 -9 7 -9 7 -9 6 -10 6 -10 5 -11 4 -10 5 -11 3 -11 3 -11 3 -12 2 -12 2 -12 1 -12 0 0 -8 12 0 12 -1 11 -1 11 -2 11 -3 11 -3 10 -4 10 -4 10 -4 10 -5 10 -6 9 -5 9 -7 8 -6 8 -8 8 -7 8 -8 7 -8 7 -9 6 -8 6 -10 5 -9 5 -10 5 -10 4 -10 3 -11 3 -10 3 -11 2 -11 1 -12 1 -11 0 -12 0 0zm0 0c0,-2 2,-4 4,-4 2,0 4,2 4,4l-8 0zm8 -4234l0 4234 -8 0 0 -4234 0 0 8 0zm-8 0c0,-2 2,-4 4,-4 2,0 4,2 4,4l-8 0zm-232 -232l0 -8 0 0 13 0 12 1 12 2 12 2 11 3 12 3 11 4 11 4 10 5 11 5 10 6 9 6 10 7 9 7 9 7 8 8 8 9 7 8 7 9 7 10 6 10 6 10 5 10 5 11 5 10 3 12 4 11 2 12 2 11 2 12 1 13 0 12 -8 0 0 -12 -1 -12 -1 -11 -2 -12 -3 -11 -3 -11 -4 -11 -4 -10 -4 -11 -6 -10 -5 -9 -6 -10 -7 -9 -7 -9 -7 -8 -8 -8 -8 -8 -8 -7 -9 -7 -9 -7 -9 -6 -10 -5 -10 -5 -10 -5 -11 -4 -11 -4 -11 -3 -11 -2 -11 -2 -12 -2 -12 -1 -12 0 0 0zm0 0c-2,0 -4,-2 -4,-4 0,-2 2,-4 4,-4l0 8zm-669 -8l669 0 0 8 -669 0 0 0 0 -8zm0 8c-3,0 -4,-2 -4,-4 0,-2 1,-4 4,-4l0 8zm-73 68l-8 0 0 0 1 -4 0 -4 1 -4 1 -3 1 -4 1 -4 1 -3 2 -4 2 -3 1 -3 2 -4 3 -3 2 -3 2 -3 3 -2 2 -3 3 -2 3 -3 3 -2 3 -2 3 -2 4 -2 3 -1 3 -2 4 -1 4 -1 3 -1 4 -1 4 -1 4 0 4 -1 4 0 0 8 -4 0 -4 0 -3 1 -4 0 -3 1 -3 1 -4 1 -3 1 -3 1 -3 2 -3 2 -3 1 -3 2 -2 2 -3 2 -2 3 -3 2 -2 3 -2 2 -2 3 -2 3 -2 2 -2 3 -1 3 -2 4 -1 3 -1 3 -1 3 -1 4 0 3 -1 4 0 3 0 0zm0 0c0,3 -2,4 -4,4 -2,0 -4,-2 -4,-4l8 0zm-83 83l0 -7 0 0 3 -1 4 0 4 -1 3 -1 4 -1 4 -1 3 -1 3 -1 4 -2 3 -2 3 -2 3 -2 3 -2 3 -2 2 -2 3 -3 2 -2 3 -3 2 -3 2 -3 2 -3 2 -3 2 -3 1 -3 2 -4 1 -3 1 -4 1 -3 1 -4 1 -3 0 -4 0 -4 8 0 0 5 -1 4 -1 4 -1 4 -1 4 -1 3 -1 4 -2 4 -2 3 -1 4 -2 3 -3 4 -2 3 -2 3 -3 3 -3 3 -3 2 -3 3 -3 2 -3 3 -3 2 -3 2 -4 2 -4 2 -3 1 -4 2 -4 1 -4 1 -4 1 -4 1 -4 0 -4 0 0 0zm0 0c-2,0 -4,-1 -4,-3 0,-2 1,-4 4,-4l0 7zm-93 -83l8 0 0 0 0 4 1 4 0 4 1 4 1 4 2 4 1 3 2 4 2 3 2 4 2 3 2 3 2 3 3 3 3 3 2 2 3 3 3 2 4 3 3 2 3 1 4 2 3 2 4 1 4 1 4 1 3 1 4 1 4 0 4 1 4 0 5 0 0 7 -4 1 -5 -1 -4 0 -5 0 -4 -1 -4 -1 -5 -1 -4 -2 -4 -1 -3 -2 -4 -2 -4 -2 -4 -2 -3 -3 -3 -2 -4 -3 -3 -3 -3 -3 -2 -3 -3 -3 -3 -4 -2 -3 -2 -4 -2 -4 -2 -4 -1 -4 -2 -4 -1 -4 -1 -4 -1 -5 -1 -4 0 -5 0 0zm0 0c0,-2 2,-3 4,-4 2,0 4,2 4,4l-8 0zm-73 -68l0 -8 0 0 4 0 4 1 4 0 4 1 4 1 3 1 4 1 4 1 3 2 3 1 4 2 3 2 3 2 3 2 3 3 3 2 2 3 3 2 2 3 2 3 3 3 2 4 1 3 2 3 2 4 1 3 1 4 1 4 1 3 1 4 0 4 1 4 -8 0 0 -3 -1 -4 0 -3 -1 -4 -1 -3 -1 -3 -1 -3 -2 -4 -1 -3 -2 -3 -2 -2 -2 -3 -2 -3 -2 -2 -2 -3 -3 -2 -2 -3 -3 -2 -2 -2 -3 -2 -3 -1 -3 -2 -3 -2 -3 -1 -3 -1 -4 -1 -3 -1 -3 -1 -4 0 -3 -1 -4 0 -4 0 0 0zm0 0c-2,0 -3,-2 -3,-4 0,-2 1,-4 3,-4l0 8zm-669 -8l669 0 0 8 -669 0 0 0 0 -8zm0 8c-2,0 -4,-2 -4,-4 0,-2 2,-4 4,-4l0 8zm-232 232l-8 0 0 0 0 -12 1 -13 2 -12 2 -11 2 -12 4 -11 3 -12 5 -10 5 -11 5 -10 6 -10 6 -10 7 -10 7 -9 7 -8 8 -9 8 -8 9 -7 9 -7 10 -7 9 -6 10 -6 11 -5 10 -5 11 -4 11 -4 12 -3 11 -3 12 -2 12 -2 12 -1 13 0 0 8 -12 0 -12 1 -12 2 -11 2 -11 2 -11 3 -11 4 -11 4 -10 5 -10 5 -10 5 -9 6 -9 7 -9 7 -8 7 -8 8 -8 8 -7 8 -7 9 -7 9 -6 10 -5 9 -6 10 -4 11 -4 10 -4 11 -3 11 -3 11 -2 12 -1 11 -1 12 0 12 0 0zm0 0c0,2 -2,4 -4,4 -2,0 -4,-2 -4,-4l8 0zm-8 4234l0 -4234 8 0 0 4234 0 0 -8 0zm8 0c0,2 -2,4 -4,4 -2,0 -4,-2 -4,-4l8 0zm226 226l0 8 0 0 -12 0 -12 -1 -12 -2 -12 -2 -11 -3 -11 -3 -11 -3 -10 -5 -11 -4 -10 -5 -10 -6 -9 -6 -9 -7 -9 -7 -9 -7 -8 -8 -7 -8 -8 -8 -7 -9 -6 -9 -6 -10 -6 -9 -5 -11 -5 -10 -4 -10 -4 -11 -3 -11 -2 -12 -2 -11 -2 -12 -1 -12 0 -12 8 0 0 12 1 11 1 12 2 11 3 11 3 10 3 11 4 10 5 10 5 10 5 9 6 10 6 8 7 9 7 8 8 8 8 7 8 8 8 6 9 7 9 5 10 6 10 5 10 4 10 4 10 4 11 3 11 3 11 2 11 1 12 1 12 0 0 0zm0 0c2,0 3,2 3,4 0,2 -1,4 -3,4l0 -8zm92 8l-92 0 0 -8 92 0 0 8zm0 -8c2,0 4,2 4,4 0,2 -2,4 -4,4l0 -8z"/>
  </g>
 </g>
</svg>
