<?xml version="1.0" encoding="UTF-8"?>
<!DOCTYPE svg PUBLIC "-//W3C//DTD SVG 1.1//EN" "http://www.w3.org/Graphics/SVG/1.1/DTD/svg11.dtd">
<!-- Creator: CorelDRAW X8 -->
<svg xmlns="http://www.w3.org/2000/svg" xml:space="preserve" width="40mm" height="60mm" version="1.1" style="shape-rendering:geometricPrecision; text-rendering:geometricPrecision; image-rendering:optimizeQuality; fill-rule:evenodd; clip-rule:evenodd"
viewBox="0 0 4000 6000"
 xmlns:xlink="http://www.w3.org/1999/xlink">
 <defs>
  <style type="text/css">
   <![CDATA[
    .str0 {stroke:#332C2B;stroke-width:20}
    .fil0 {fill:none}
   ]]>
  </style>
 </defs>
 <g id="图层_x0020_1">
  <metadata id="CorelCorpID_0Corel-Layer"/>
  <path class="fil0 str0" d="M896 5276l1940 0c148,0 268,-121 268,-268l0 -4089c0,-148 -120,-269 -268,-269l-307 0c-41,0 -65,25 -65,70l0 76c0,27 -22,49 -49,49l-829 0c-27,0 -50,-22 -50,-49l0 -76c0,-49 -9,-70 -67,-70l-292 0c-148,0 -269,121 -269,269l0 4089c0,147 121,268 269,268 148,0 276,44 276,74"/>
 </g>
</svg>
