<?xml version="1.0" encoding="UTF-8"?>
<!DOCTYPE svg PUBLIC "-//W3C//DTD SVG 1.1//EN" "http://www.w3.org/Graphics/SVG/1.1/DTD/svg11.dtd">
<!-- Creator: CorelDRAW X8 -->
<svg xmlns="http://www.w3.org/2000/svg" xml:space="preserve" width="40mm" height="60mm" version="1.1" style="shape-rendering:geometricPrecision; text-rendering:geometricPrecision; image-rendering:optimizeQuality; fill-rule:evenodd; clip-rule:evenodd"
viewBox="0 0 4000 6000"
 xmlns:xlink="http://www.w3.org/1999/xlink">
 <defs>
  <style type="text/css">
   <![CDATA[
    .str0 {stroke:black;stroke-width:7.62}
    .fil0 {fill:none}
   ]]>
  </style>
 </defs>
 <g id="图层_x0020_1">
  <metadata id="CorelCorpID_0Corel-Layer"/>
  <path class="fil0 str0" d="M987 5350l1822 0c128,0 234,-105 234,-234l0 -4232c0,-129 -106,-234 -234,-234l-430 0c-5,0 -7,0 -11,5l-14 17c-4,4 -7,5 -13,5l-673 0c-7,0 -7,0 -10,-6l-10 -15c-3,-5 -5,-6 -13,-6l-127 0c-12,0 -14,3 -14,13l0 38c0,23 -20,43 -43,43l0 0c-24,0 -44,-20 -44,-43l0 -36c0,-12 -6,-15 -14,-15l-202 0c-128,0 -234,105 -234,234l0 4232c0,129 106,234 234,234l95 0"/>
 </g>
</svg>
