<?xml version="1.0" encoding="UTF-8"?>
<!DOCTYPE svg PUBLIC "-//W3C//DTD SVG 1.1//EN" "http://www.w3.org/Graphics/SVG/1.1/DTD/svg11.dtd">
<!-- Creator: CorelDRAW 2020 (64-Bit) -->
<svg xmlns="http://www.w3.org/2000/svg" xml:space="preserve" width="40mm" height="60mm" version="1.1" style="shape-rendering:geometricPrecision; text-rendering:geometricPrecision; image-rendering:optimizeQuality; fill-rule:evenodd; clip-rule:evenodd"
viewBox="0 0 4000 6000"
 xmlns:xlink="http://www.w3.org/1999/xlink"
 xmlns:xodm="http://www.corel.com/coreldraw/odm/2003">
 <defs>
  <style type="text/css">
   <![CDATA[
    .str1 {stroke:#332C2B;stroke-width:20;stroke-miterlimit:22.9256}
    .str0 {stroke:#E62129;stroke-width:20;stroke-miterlimit:22.9256}
    .fil0 {fill:none}
   ]]>
  </style>
   <clipPath id="id0">
    <rect x="-53271.18" y="-3313.37" width="11888.17" height="16817.73"/>
   </clipPath>
 </defs>
 <g id="图层_x0020_1">
  <metadata id="CorelCorpID_0Corel-Layer"/>
  <g style="clip-path:url(#id0)">
   <image x="-53271.18" y="-3313.37" width="11888.17" height="16817.73" xlink:href="V40 -11i（背膜）_Images\V40 -11i（背膜）_ImgID1.png"/>
  </g>
  <rect class="fil0 str0" x="-53054.78" y="-3051.88" width="7650" height="16350"/>
  <rect class="fil0 str0" x="-52953.2" y="-3012.19" width="7446.84" height="16282.33" rx="1200" ry="1260.18"/>
  <rect class="fil0 str0" x="-52295.79" y="-2386.75" width="1047" height="3076.73" rx="600" ry="629.39"/>
  <circle class="fil0 str0" cx="-50437.79" cy="-1694.67" r="253.56"/>
  <circle class="fil0 str0" cx="-49238.92" cy="957.12" r="632.28"/>
  <path class="fil0 str1" d="M-2757.7 5701.72l0 -5584.83c0,-659.99 -540.01,-1200 -1200,-1200l-13882.34 0c-659.99,0 -1200,540 -1200,1200l0 5046.84c0,660 540.01,1200 1200,1200l13882.34 0c660,0 1200,-540 1200,-1200 0,-660 147.84,-1031.12 243.75,-1128.14"/>
  <path class="fil0 str1" d="M-18414.6 5182.82c0,287.93 235.57,523.5 523.5,523.5l2029.73 0c287.93,0 523.5,-235.57 523.5,-523.5l0 0c0,-287.93 -235.57,-523.5 -523.5,-523.5l-2029.73 0c-287.93,0 -523.5,235.57 -523.5,523.5 0,287.93 361.34,406.18 420.87,419.41"/>
  <path class="fil0 str1" d="M-17976.08 3848.32c0,140.03 113.53,253.56 253.56,253.56 140.03,0 253.56,-113.53 253.56,-253.56 0,-140.03 -113.53,-253.56 -253.56,-253.56 -140.03,0 -253.56,113.53 -253.56,253.56 0,140.03 166.45,192.86 201.18,198.93"/>
  <path class="fil0 str1" d="M-15703.02 2649.45c0,349.19 283.09,632.28 632.29,632.28 349.19,0 632.28,-283.09 632.28,-632.28 0,-349.2 -283.09,-632.29 -632.28,-632.29 -349.2,0 -632.29,283.09 -632.29,632.29 0,349.2 397.59,482.2 469.25,498.74"/>
  <g id="_2407070419712">
   <path class="fil0 str1" d="M1122.74 5286.35l1588.32 0c187.7,0 341.28,-153.58 341.28,-341.28l0 -3948.12c0,-187.7 -153.58,-341.28 -341.28,-341.28l-1435.32 0c-187.7,0 -341.28,153.58 -341.28,341.28l0 3948.12c0,187.7 153.58,341.28 341.28,341.28 187.71,0 293.25,42.04 320.84,69.32"/>
   <path class="fil0 str1" d="M1270.31 833.55c-81.88,0 -148.88,66.99 -148.88,148.88l0 577.25c0,81.89 67,148.88 148.88,148.88l0 0c81.89,0 148.89,-66.99 148.89,-148.88l0 -577.25c0,-81.89 -67,-148.88 -148.89,-148.88 -81.88,0 -115.51,102.76 -119.28,119.69"/>
   <path class="fil0 str1" d="M1649.84 958.26c-39.82,0 -72.11,32.29 -72.11,72.11 0,39.83 32.29,72.11 72.11,72.11 39.83,0 72.12,-32.28 72.12,-72.11 0,-39.82 -32.29,-72.11 -72.12,-72.11 -39.82,0 -54.85,47.34 -56.57,57.22"/>
   <path class="fil0 str1" d="M1990.8 1604.72c-99.31,0 -179.82,80.51 -179.82,179.82 0,99.31 80.51,179.82 179.82,179.82 99.31,0 179.82,-80.51 179.82,-179.82 0,-99.31 -80.51,-179.82 -179.82,-179.82 -99.31,0 -137.14,113.07 -141.84,133.45"/>
  </g>
 </g>
</svg>
