<?xml version="1.0" encoding="UTF-8"?>
<!DOCTYPE svg PUBLIC "-//W3C//DTD SVG 1.1//EN" "http://www.w3.org/Graphics/SVG/1.1/DTD/svg11.dtd">
<!-- Creator: CorelDRAW 2020 (64-Bit) -->
<svg xmlns="http://www.w3.org/2000/svg" xml:space="preserve" width="40mm" height="60mm" version="1.1" style="shape-rendering:geometricPrecision; text-rendering:geometricPrecision; image-rendering:optimizeQuality; fill-rule:evenodd; clip-rule:evenodd"
viewBox="0 0 4000 6000"
 xmlns:xlink="http://www.w3.org/1999/xlink"
 xmlns:xodm="http://www.corel.com/coreldraw/odm/2003">
 <defs>
  <style type="text/css">
   <![CDATA[
    .str1 {stroke:#332C2B;stroke-width:20;stroke-miterlimit:22.9256}
    .str0 {stroke:#222222;stroke-width:20;stroke-miterlimit:22.9256}
    .fil0 {fill:none}
   ]]>
  </style>
 </defs>
 <g id="图层_x0020_1">
  <metadata id="CorelCorpID_0Corel-Layer"/>
  <path class="fil0 str0" d="M-12885.03 6924.31l-0.1 -321.17c495,0 900,-405 900,-900l49.99 -0.27 100.17 1233.06c4.45,54.75 45,99.89 99.99,99.89l153.46 0c54.99,0 99.99,-44.97 99.99,-99.89l0 -7986.41c0,-54.92 -45.01,-99.89 -99.99,-99.89l-153.46 0c-54.98,0 -95.56,45.17 -99.99,99.89l-100.12 1233.55 -50.04 -0.04c0,-495 -405.01,-900.01 -900,-900.01l0.1 -321.17c0.01,-27.49 -22.52,-50 -49.93,-50l-7320.41 0c1.46,6.75 2.22,13.75 2.22,20.92l0 157.19c0,55 -45,100 -100,100l-2437.02 0c-55,0 -100,-45 -100,-100l0 -157.19c0,-7.17 0.76,-14.17 2.22,-20.92l-2124.42 0c1.46,6.75 2.22,13.75 2.22,20.92l0 157.19c0,55 -45,100 -100,100l-2051.17 0c-55,0 -100,-45 -100,-100l0 -157.19c0,-7.17 0.76,-14.17 2.22,-20.92l-33.03 0c-27.41,0 -49.94,22.5 -49.93,50l0.06 321.17c-495,0 -900,405.01 -900,900.01l-49.85 0.52 -98.98 -1234.03c-4.39,-54.73 -45.03,-99.89 -99.99,-99.89l-154.79 0c-54.99,0 -99.99,44.97 -99.99,99.89l0 7986.41c0,54.92 45.01,99.89 99.99,99.89l154.13 0c54.98,0 95.59,-45.16 99.99,-99.89l99.38 -1233.29 50.11 0.5c0,495 405,900 900,900l-0.06 321.17c0,27.49 22.51,50 49.93,50l4404.08 0c357.02,0 311.16,-434.1 586.14,-434.1l1415.53 0c274.98,0 220.3,434.1 586.14,434.1l7365.28 0c27.42,0 49.93,-22.52 49.93,-50z"/>
  <path class="fil0 str1" d="M-27758.29 5615.19c0,302.5 247.5,550 550,550l2907.13 0c302.5,0 550,-247.5 550,-550l0 -1895.09c0,-302.5 -247.5,-550 -550,-550l-2907.13 0c-302.5,0 -550,247.5 -550,550l0 1895.09c0,0 50.44,-1021.31 264.75,-1248.85"/>
  <path class="fil0 str1" d="M-11845.22 5557.25c0,64.76 52.98,117.74 117.74,117.74l0 0c64.76,0 117.74,-52.98 117.74,-117.74l0 -1113.91c0,-64.76 -52.98,-117.74 -117.74,-117.74l0 0c-64.76,0 -117.74,52.98 -117.74,117.74l0 1113.91c0,0 0.48,-199.88 61.33,-294.47"/>
  <path class="fil0 str1" d="M-11905.36 3266.6c0,88.41 72.33,160.73 160.73,160.73l0 0c88.41,0 160.74,-72.32 160.74,-160.73l0 -641.65c0,-88.41 -72.33,-160.73 -160.74,-160.73l0 0c-88.4,0 -160.73,72.32 -160.73,160.73l0 641.65c0,0 -0.94,-213.09 83.73,-305.04"/>
  <path class="fil0 str1" d="M-11817.54 1788.26c0,44.75 36.6,81.35 81.35,81.35l0.02 0c44.75,0 81.35,-36.6 81.35,-81.35l0 -125.7c0,-44.75 -36.6,-81.35 -81.35,-81.35l-0.02 0c-44.75,0 -81.35,36.6 -81.35,81.35l0 125.7c0,0 1.84,-96.72 46.16,-116.56"/>
  <path class="fil0 str1" d="M-11972.33 604.13c0,124.2 100.69,224.89 224.89,224.89 124.2,0 224.89,-100.69 224.89,-224.89 0,-124.2 -100.69,-224.89 -224.89,-224.89 -124.2,0 -224.89,100.69 -224.89,224.89 0,124.2 142.41,151.44 188.71,144.83"/>
  <path class="fil0 str1" d="M-28657.72 5166.79c0,50.78 41.16,91.94 91.94,91.94 50.78,0 91.94,-41.16 91.94,-91.94 0,-50.78 -41.16,-91.94 -91.94,-91.94 -50.78,0 -91.94,41.16 -91.94,91.94 0,50.78 55.88,59.85 75.06,58.19"/>
  <g id="_2609407961696">
   <path class="fil0 str0" d="M909.45 4973.58l87.43 -0.03c0,134.76 110.26,245.02 245.02,245.02l0.07 13.61 -335.69 27.27c-14.9,1.21 -27.19,12.25 -27.19,27.22l0 41.78c0,14.97 12.24,27.22 27.19,27.22l2174.23 0c14.96,0 27.2,-12.25 27.2,-27.22l0 -41.78c0,-14.97 -12.3,-26.02 -27.2,-27.22l-335.82 -27.26 0.01 -13.62c134.76,0 245.02,-110.26 245.02,-245.02l87.44 0.03c7.48,0 13.61,-6.13 13.61,-13.6l0 -1992.92c-1.84,0.4 -3.74,0.61 -5.7,0.61l-42.79 0c-14.97,0 -27.22,-12.25 -27.22,-27.23l0 -663.45c0,-14.98 12.25,-27.23 27.22,-27.23l42.79 0c1.96,0 3.86,0.21 5.7,0.61l0 -578.36c-1.84,0.4 -3.74,0.6 -5.7,0.6l-42.79 0c-14.97,0 -27.22,-12.25 -27.22,-27.22l0 -558.41c0,-14.98 12.25,-27.23 27.22,-27.23l42.79 0c1.96,0 3.86,0.21 5.7,0.61l0 -9c0,-7.46 -6.13,-13.59 -13.61,-13.59l-87.44 0.02c0,-134.76 -110.26,-245.02 -245.02,-245.02l-0.14 -13.57 335.95 -26.95c14.9,-1.19 27.2,-12.26 27.2,-27.22l0 -42.14c0,-14.97 -12.24,-27.22 -27.2,-27.22l-2174.23 0c-14.95,0 -27.19,12.25 -27.19,27.22l0 41.96c0,14.97 12.29,26.02 27.19,27.22l335.76 27.06 -0.14 13.64c-134.76,0 -245.02,110.26 -245.02,245.02l-87.43 -0.02c-7.49,0 -13.62,6.13 -13.62,13.59l0 1198.98c0,97.19 118.18,84.71 118.18,159.57l0 385.37c0,74.86 -118.18,59.97 -118.18,159.57l0 2005.13c0,7.47 6.14,13.6 13.62,13.6z"/>
   <path class="fil0 str1" d="M1265.84 924.46c-82.35,0 -149.73,67.38 -149.73,149.73l0 791.44c0,82.35 67.38,149.73 149.73,149.73l515.92 0c82.36,0 149.74,-67.38 149.74,-149.73l0 -791.44c0,-82.35 -67.38,-149.73 -149.74,-149.73l-515.92 0c0,0 278.05,13.73 339.99,72.07"/>
   <path class="fil0 str1" d="M1281.62 5256.66c-17.63,0 -32.06,14.42 -32.06,32.05l0 0c0,17.63 14.43,32.05 32.06,32.05l303.25 0c17.63,0 32.05,-14.42 32.05,-32.05l0 0c0,-17.63 -14.42,-32.05 -32.05,-32.05l-303.25 0c0,0 54.41,0.13 80.16,16.69"/>
   <path class="fil0 str1" d="M1905.23 5240.28c-24.07,0 -43.76,19.7 -43.76,43.76l0 0c0,24.07 19.69,43.76 43.76,43.76l174.68 0c24.07,0 43.76,-19.69 43.76,-43.76l0 0c0,-24.06 -19.69,-43.76 -43.76,-43.76l-174.68 0c0,0 58.01,-0.25 83.04,22.8"/>
   <path class="fil0 str1" d="M2307.69 5264.19c-12.18,0 -22.15,9.97 -22.15,22.15l0 0c0,12.19 9.97,22.15 22.15,22.15l34.22 0c12.19,0 22.15,-9.96 22.15,-22.15l0 0c0,-12.18 -9.96,-22.15 -22.15,-22.15l-34.22 0c0,0 26.33,0.5 31.73,12.57"/>
   <path class="fil0 str1" d="M2630.06 5222.05c-33.81,0 -61.22,27.41 -61.22,61.23 0,33.81 27.41,61.22 61.22,61.22 33.81,0 61.23,-27.41 61.23,-61.22 0,-33.82 -27.42,-61.23 -61.23,-61.23 -33.81,0 -41.23,38.77 -39.43,51.38"/>
   <path class="fil0 str1" d="M1387.92 679.59c-13.83,0 -25.03,11.21 -25.03,25.03 0,13.83 11.2,25.03 25.03,25.03 13.82,0 25.03,-11.2 25.03,-25.03 0,-13.82 -11.21,-25.03 -25.03,-25.03 -13.83,0 -16.3,15.22 -15.85,20.44"/>
  </g>
 </g>
</svg>
