<?xml version="1.0" encoding="UTF-8"?>
<!DOCTYPE svg PUBLIC "-//W3C//DTD SVG 1.1//EN" "http://www.w3.org/Graphics/SVG/1.1/DTD/svg11.dtd">
<!-- Creator: CorelDRAW X8 -->
<svg xmlns="http://www.w3.org/2000/svg" xml:space="preserve" width="40mm" height="60mm" version="1.1" style="shape-rendering:geometricPrecision; text-rendering:geometricPrecision; image-rendering:optimizeQuality; fill-rule:evenodd; clip-rule:evenodd"
viewBox="0 0 4000 6000"
 xmlns:xlink="http://www.w3.org/1999/xlink">
 <defs>
  <style type="text/css">
   <![CDATA[
    .str0 {stroke:#332C2B;stroke-width:20}
    .fil0 {fill:none}
   ]]>
  </style>
 </defs>
 <g id="图层_x0020_1">
  <metadata id="CorelCorpID_0Corel-Layer"/>
  <path class="fil0 str0" d="M3186 5032l0 -3984c0,-67 -55,-122 -122,-122l-124 0c-68,0 -123,55 -123,122l0 3904c0,67 55,122 123,122l124 0c67,0 122,-55 122,-122l0 -28m-1959 -4189c0,-2 -2,-4 -6,-4 -13,0 -24,11 -24,24 0,14 11,25 24,25 14,0 25,-11 25,-25 0,-13 -11,-24 -25,-24m420 494c-1,-4 -5,-8 -13,-9 -28,0 -51,23 -51,52 0,28 23,51 51,51 29,0 52,-23 52,-51 0,-29 -23,-52 -52,-52m-247 -61c0,-12 -11,-23 -33,-25 -77,0 -140,63 -140,140 0,78 63,141 140,141 78,0 141,-63 141,-141 0,-77 -63,-140 -141,-140m33 359c0,-12 -11,-23 -33,-25 -77,0 -140,63 -140,140 0,78 63,141 140,141 78,0 141,-63 141,-141 0,-77 -63,-140 -141,-140m33 364c0,-12 -11,-23 -33,-24 -77,0 -140,62 -140,140 0,77 63,140 140,140 78,0 141,-63 141,-140 0,-78 -63,-140 -141,-140m-94 -728l398 0c46,0 83,38 83,84l0 889c0,46 -37,84 -83,84l-398 0c-46,0 -84,-38 -84,-84l0 -889c0,-46 38,-84 84,-84zm-5 -30l406 0c59,0 107,48 107,107l0 904c0,59 -48,107 -107,107l-406 0c-59,0 -107,-48 -107,-107l0 -904c0,-59 48,-107 107,-107zm-389 1388c-14,4 -24,11 -24,44l0 29c0,15 12,27 27,27l0 0c15,0 27,-12 27,-27l0 -470c0,-15 -12,-28 -27,-28l0 0c-15,0 -27,13 -27,28l0 441m977 2703c-3,-13 -8,-22 -29,-22l-18 0c-25,0 -45,20 -45,45l0 0c0,25 20,45 45,45l155 0c25,0 45,-20 45,-45l0 0c0,-25 -20,-45 -45,-45l-137 0m379 32c-1,-2 -2,-4 -6,-4 -13,0 -24,11 -24,24 0,13 11,24 24,24 13,0 24,-11 24,-24 0,-13 -11,-24 -24,-24m-1113 -4331l119 0 0 -146c0,-5 4,-8 8,-8l1475 0c4,0 8,3 8,8l0 146 0 68 0 4069 0 113 0 149c0,6 -5,10 -10,10l-1425 0c-5,0 -10,-4 -10,-10l0 -149 -165 0c-53,0 -93,-37 -104,-86l35 322c1,4 -3,8 -8,8l-145 0c-4,0 -8,-4 -8,-8l0 -2268c0,-14 5,-18 19,-18l29 0c29,0 54,-24 54,-54l0 -314c0,-30 -25,-54 -54,-54l-34 0c-7,0 -14,-7 -14,-15l0 -1961c0,-4 4,-8 8,-8l140 0c4,0 9,4 8,8l-40 288 2 0c11,-51 57,-90 112,-90z"/>
 </g>
</svg>
