<?xml version="1.0" encoding="UTF-8"?>
<!DOCTYPE svg PUBLIC "-//W3C//DTD SVG 1.1//EN" "http://www.w3.org/Graphics/SVG/1.1/DTD/svg11.dtd">
<!-- Creator: CorelDRAW X8 -->
<svg xmlns="http://www.w3.org/2000/svg" xml:space="preserve" width="40mm" height="60mm" version="1.1" style="shape-rendering:geometricPrecision; text-rendering:geometricPrecision; image-rendering:optimizeQuality; fill-rule:evenodd; clip-rule:evenodd"
viewBox="0 0 4000 6000"
 xmlns:xlink="http://www.w3.org/1999/xlink">
 <defs>
  <style type="text/css">
   <![CDATA[
    .str0 {stroke:black;stroke-width:7.62}
    .fil0 {fill:none}
   ]]>
  </style>
 </defs>
 <g id="图层_x0020_1">
  <metadata id="CorelCorpID_0Corel-Layer"/>
  <path class="fil0 str0" d="M994 5350l1829 0c129,0 235,-106 235,-235l0 -4230c0,-129 -106,-235 -235,-235l-433 0c-6,0 -9,1 -13,6l-8 9c-3,4 -4,4 -9,4l-213 0c-23,0 -47,14 -47,41l0 16c0,52 -42,94 -94,94l0 0c-52,0 -95,-42 -95,-94l0 -11c0,-33 -14,-46 -50,-46l-210 0c-5,0 -6,0 -8,-3l-10 -13c-2,-2 -5,-3 -7,-3l-448 0c-130,0 -235,106 -235,235l0 4230c0,129 105,235 235,235l98 0"/>
 </g>
</svg>
