<?xml version="1.0" encoding="UTF-8"?>
<!DOCTYPE svg PUBLIC "-//W3C//DTD SVG 1.1//EN" "http://www.w3.org/Graphics/SVG/1.1/DTD/svg11.dtd">
<!-- Creator: CorelDRAW X8 -->
<svg xmlns="http://www.w3.org/2000/svg" xml:space="preserve" width="40mm" height="60mm" version="1.1" style="shape-rendering:geometricPrecision; text-rendering:geometricPrecision; image-rendering:optimizeQuality; fill-rule:evenodd; clip-rule:evenodd"
viewBox="0 0 4000 6000"
 xmlns:xlink="http://www.w3.org/1999/xlink">
 <defs>
  <style type="text/css">
   <![CDATA[
    .fil0 {fill:#222222;fill-rule:nonzero}
   ]]>
  </style>
 </defs>
 <g id="图层_x0020_1">
  <metadata id="CorelCorpID_0Corel-Layer"/>
  <g>
   <path class="fil0" d="M1053 5360c-6,0 -10,-4 -10,-10 0,-6 4,-10 10,-10l0 20zm1808 0l-1808 0 0 -20 1808 0 0 0 0 20zm0 -20c5,0 10,4 10,10 0,6 -5,10 -10,10l0 -20zm219 -220l20 0 0 0 0 13 -1 12 -1 12 -2 12 -3 11 -3 12 -4 11 -4 11 -5 10 -5 11 -6 10 -6 9 -7 10 -7 9 -8 8 -8 9 -8 8 -9 7 -9 7 -9 7 -10 6 -10 6 -10 5 -11 5 -11 4 -11 4 -11 3 -12 3 -12 2 -12 2 -12 1 -12 0 0 -20 11 0 11 -1 11 -2 11 -1 11 -3 10 -3 10 -3 10 -4 10 -5 9 -5 10 -5 9 -6 8 -6 8 -6 8 -7 8 -7 7 -8 7 -8 7 -8 6 -9 6 -9 5 -9 5 -9 4 -10 4 -10 4 -10 3 -11 2 -10 2 -11 1 -11 1 -11 0 -12 0 0zm0 0c0,-5 5,-10 10,-10 6,0 10,5 10,10l-20 0zm20 -4240l0 4240 -20 0 0 -4240 0 0 20 0zm-20 0c0,-6 5,-10 10,-10 6,0 10,4 10,10l-20 0zm-219 -220l0 -20 0 0 12 0 12 1 12 2 12 2 12 3 11 3 11 4 11 4 11 5 10 5 10 6 10 6 9 7 9 7 9 7 8 8 8 9 8 8 7 9 7 10 6 9 6 10 5 11 5 10 4 11 4 11 3 12 3 11 2 12 1 12 1 12 0 13 -20 0 0 -12 -1 -11 -1 -11 -2 -11 -2 -10 -3 -11 -4 -10 -4 -10 -4 -9 -5 -10 -5 -9 -6 -9 -6 -9 -7 -8 -7 -8 -7 -8 -8 -7 -8 -7 -8 -6 -8 -6 -9 -6 -10 -5 -9 -5 -10 -5 -10 -4 -10 -3 -10 -3 -11 -3 -11 -1 -11 -2 -11 -1 -11 0 0 0zm0 0c-6,0 -10,-4 -10,-10 0,-6 4,-10 10,-10l0 20zm-1722 -20l1722 0 0 20 -1722 0 0 0 0 -20zm0 20c-5,0 -10,-4 -10,-10 0,-6 5,-10 10,-10l0 20zm-219 220l-20 0 0 0 0 -13 1 -12 1 -12 2 -12 3 -11 3 -12 4 -11 4 -11 5 -10 5 -11 6 -10 6 -9 7 -10 7 -9 8 -8 8 -9 8 -8 9 -7 9 -7 9 -7 10 -6 10 -6 10 -5 11 -5 11 -4 11 -4 11 -3 12 -3 12 -2 12 -2 12 -1 12 0 0 20 -11 0 -11 1 -11 2 -11 1 -11 3 -10 3 -10 3 -10 4 -10 5 -9 5 -10 5 -9 6 -8 6 -9 6 -7 7 -8 7 -7 8 -7 8 -7 8 -6 9 -6 9 -5 9 -5 10 -4 9 -4 10 -4 10 -3 11 -2 10 -2 11 -1 11 -1 11 0 12 0 0zm0 0c0,5 -5,10 -10,10 -6,0 -10,-5 -10,-10l20 0zm-20 4240l0 -4240 20 0 0 4240 0 0 -20 0zm20 0c0,6 -5,10 -10,10 -6,0 -10,-4 -10,-10l20 0zm219 220l0 20 0 0 -12 0 -12 -1 -12 -2 -12 -2 -12 -3 -11 -3 -11 -4 -11 -4 -11 -5 -10 -5 -10 -6 -10 -6 -9 -7 -9 -7 -9 -7 -8 -8 -8 -9 -8 -8 -7 -9 -7 -10 -6 -9 -6 -10 -5 -11 -5 -10 -4 -11 -4 -11 -3 -12 -3 -11 -2 -12 -1 -12 -1 -12 0 -13 20 0 0 12 1 11 1 11 2 11 2 10 3 11 4 10 4 10 4 10 5 9 5 9 6 9 6 9 7 8 7 8 7 8 8 7 7 7 9 6 8 6 9 6 10 5 9 5 10 5 10 4 10 3 10 3 11 3 11 1 11 2 11 1 11 0 0 0zm0 0c6,0 10,4 10,10 0,6 -4,10 -10,10l0 -20zm48 20l-48 0 0 -20 48 0 0 20zm0 -20c6,0 10,4 10,10 0,6 -4,10 -10,10l0 -20z"/>
  </g>
 </g>
</svg>
