<?xml version="1.0" encoding="UTF-8"?>
<!DOCTYPE svg PUBLIC "-//W3C//DTD SVG 1.1//EN" "http://www.w3.org/Graphics/SVG/1.1/DTD/svg11.dtd">
<!-- Creator: CorelDRAW X8 -->
<svg xmlns="http://www.w3.org/2000/svg" xml:space="preserve" width="40mm" height="60mm" version="1.1" style="shape-rendering:geometricPrecision; text-rendering:geometricPrecision; image-rendering:optimizeQuality; fill-rule:evenodd; clip-rule:evenodd"
viewBox="0 0 4000 6000"
 xmlns:xlink="http://www.w3.org/1999/xlink">
 <defs>
  <style type="text/css">
   <![CDATA[
    .fil0 {fill:#332C2B;fill-rule:nonzero}
   ]]>
  </style>
 </defs>
 <g id="图层_x0020_1">
  <metadata id="CorelCorpID_0Corel-Layer"/>
  <g>
   <path class="fil0" d="M2792 4430l-15 0 0 0 0 -4 0 -6 0 -6 0 -8 0 -8 1 -10 0 -10 0 -10 0 -12 1 -12 0 -13 0 -13 1 -13 0 -14 1 -14 0 -14 1 -14 0 -15 1 -14 0 -15 1 -14 0 -14 1 -13 0 -14 0 -12 1 -13 0 -12 1 -11 0 -11 0 -10 1 -9 0 -8 15 1 -1 8 0 9 0 10 -1 10 0 12 -1 12 0 12 0 13 -1 13 0 14 -1 14 0 14 -1 14 0 15 -1 14 0 14 -1 15 0 14 -1 13 0 14 -1 13 0 12 0 12 0 12 -1 11 0 10 0 9 0 8 0 8 0 6 0 6 0 4 0 0zm0 0c0,4 -3,7 -7,7 -4,0 -7,-3 -8,-7l15 0zm11 126l-13 5 0 0 -2 -4 -1 -4 -1 -5 -1 -4 -1 -4 0 -4 -1 -4 -1 -4 0 -4 -1 -4 0 -4 -1 -4 0 -5 0 -4 -1 -4 0 -4 0 -4 0 -4 0 -4 -1 -4 0 -4 0 -4 0 -4 0 -5 0 -4 0 -4 0 -4 0 -4 0 -4 0 -4 0 -4 -1 -4 15 0 0 4 0 4 0 4 0 4 1 4 0 4 0 4 0 4 0 4 0 4 0 4 0 4 0 4 0 4 0 4 1 4 0 4 0 4 0 4 1 4 0 4 0 4 1 4 1 4 0 4 1 4 1 3 0 4 1 4 1 4 1 4 1 3 0 0zm0 0c2,4 0,8 -4,9 -4,2 -8,0 -9,-4l13 -5zm24 53l-11 9 0 0 -1 -2 -2 -1 -1 -2 -1 -2 -1 -1 -1 -2 -1 -2 -1 -2 -1 -1 -1 -2 -1 -2 -1 -2 -1 -2 -1 -1 -1 -2 0 -2 -1 -2 -1 -2 -1 -2 0 -1 -1 -2 0 -2 -1 -2 -1 -2 0 -2 -1 -1 -1 -2 0 -2 -1 -2 0 -2 -1 -1 0 -2 13 -5 1 2 1 2 0 2 1 2 0 1 1 2 0 2 1 2 1 1 0 2 1 2 0 2 1 1 1 2 0 2 1 1 1 2 0 2 1 1 1 2 1 2 1 1 0 2 1 1 1 2 1 1 1 2 1 1 1 2 1 1 1 1 1 2 0 0zm0 0c3,3 2,7 -1,10 -3,3 -8,2 -10,-1l11 -9zm79 -8l13 7 0 0 -2 3 -2 4 -2 3 -3 3 -3 3 -2 3 -3 2 -3 3 -3 2 -3 2 -4 1 -3 2 -4 1 -3 1 -4 1 -3 1 -4 0 -4 0 -3 0 -4 -1 -4 0 -3 -1 -4 -1 -4 -2 -3 -1 -4 -2 -3 -2 -4 -3 -3 -2 -3 -3 -3 -4 -3 -3 11 -9 3 3 2 2 3 3 2 2 3 2 3 1 2 2 3 1 3 1 2 1 3 1 3 0 3 0 2 0 3 0 3 0 3 0 2 -1 3 -1 2 -1 3 -1 2 -1 3 -2 2 -1 3 -2 2 -2 2 -2 2 -2 2 -3 2 -2 2 -3 1 -3 0 0zm0 0c2,-4 7,-5 10,-3 4,2 5,6 3,10l-13 -7zm25 -79l14 3 0 0 -1 3 0 2 -1 3 -1 2 0 3 -1 3 -1 2 0 3 -1 2 0 3 -1 3 -1 2 0 3 -1 2 -1 3 0 3 -1 2 -1 3 -1 2 0 3 -1 3 -1 2 -1 3 -1 2 -1 3 -1 2 -1 3 -1 2 -1 3 -1 3 -2 2 -1 3 -13 -7 1 -2 2 -3 1 -2 1 -2 1 -3 1 -2 1 -2 0 -3 1 -2 1 -3 1 -2 1 -2 0 -3 1 -2 1 -3 1 -2 0 -3 1 -2 1 -3 0 -2 1 -3 1 -2 0 -3 1 -3 0 -2 1 -3 1 -2 0 -3 1 -2 0 -3 1 -3 1 -2 0 0zm0 0c1,-4 5,-6 8,-5 4,0 7,4 6,8l-14 -3zm26 -196l14 2 0 0 0 6 -1 6 0 6 -1 6 -1 7 0 6 -1 6 0 6 -1 6 0 6 -1 7 -1 6 0 6 -1 6 -1 6 0 7 -1 6 -1 6 -1 6 0 6 -1 7 -1 6 -1 6 -1 6 -1 6 -1 6 -1 7 -2 6 -1 6 -1 6 -2 6 -1 6 -14 -3 1 -6 1 -6 2 -6 1 -6 1 -6 1 -6 1 -6 2 -6 0 -6 1 -6 1 -7 1 -6 1 -6 1 -6 1 -6 0 -6 1 -6 1 -6 0 -6 1 -7 0 -6 1 -6 1 -6 0 -6 1 -6 0 -7 1 -6 1 -6 0 -6 1 -6 0 -7 1 -6 0 0zm0 0c0,-4 4,-7 8,-6 4,0 7,4 6,8l-14 -2zm24 -356l15 1 0 0 -1 6 0 7 -1 8 0 9 -1 9 0 11 -1 11 -1 11 0 12 -1 13 -1 13 -1 13 -1 14 -1 13 0 14 -1 14 -1 14 -1 14 -1 14 -1 13 -1 13 -1 13 -1 13 -1 12 -1 12 -1 11 0 10 -1 10 -1 8 -1 8 0 8 -1 6 -14 -2 0 -6 1 -7 1 -8 0 -9 1 -9 1 -10 1 -11 1 -12 1 -12 0 -13 1 -13 1 -13 1 -13 1 -14 1 -14 1 -14 1 -14 1 -14 1 -13 1 -14 1 -13 0 -13 1 -13 1 -12 1 -11 0 -11 1 -10 0 -10 1 -9 0 -8 1 -7 0 -6 0 0zm0 0c0,-4 4,-7 8,-7 4,0 7,4 7,8l-15 -1zm30 -975l15 0 0 0 0 8 0 12 -1 17 0 20 -1 24 -1 27 0 30 -1 33 -1 35 -2 37 -1 39 -1 41 -1 41 -2 43 -1 43 -1 43 -2 43 -1 43 -1 42 -2 42 -1 40 -1 38 -2 37 -1 35 -1 32 -1 29 -1 26 -1 23 0 20 -1 15 0 11 0 7 -15 -1 0 -6 1 -12 0 -15 1 -19 1 -23 1 -27 1 -29 1 -32 1 -34 1 -37 1 -39 2 -40 1 -41 1 -42 2 -43 1 -43 2 -44 1 -43 1 -42 2 -42 1 -40 1 -39 1 -37 1 -35 1 -33 1 -30 1 -27 0 -24 1 -20 0 -17 0 -12 0 -8 0 0zm0 0c0,-4 3,-7 7,-7 4,0 8,3 8,7l-15 0zm-6 -582l14 0 0 0 1 8 0 10 0 12 0 14 0 15 1 16 0 18 0 19 0 20 0 21 1 22 0 23 0 23 0 23 1 24 0 24 0 23 0 24 1 23 0 23 0 23 0 22 0 20 1 21 0 19 0 17 0 17 0 15 0 13 1 12 0 10 0 8 -15 0 0 -8 0 -10 0 -11 0 -14 0 -15 -1 -16 0 -18 0 -19 0 -20 0 -21 -1 -22 0 -23 0 -23 0 -23 0 -24 -1 -23 0 -24 0 -24 0 -23 -1 -23 0 -23 0 -21 0 -21 -1 -21 0 -19 0 -18 0 -16 0 -15 -1 -14 0 -12 0 -10 0 -8 0 0zm0 0c0,-4 3,-7 7,-7 4,0 7,3 7,7l-14 0zm-5 -418l14 0 0 0 0 5 0 7 0 8 0 9 0 10 1 11 0 11 0 13 0 13 0 14 0 14 0 15 0 15 1 16 0 16 0 16 0 16 0 16 1 17 0 16 0 16 0 15 1 16 0 15 0 15 0 14 0 13 1 13 0 12 0 11 0 11 0 9 -14 0 0 -9 0 -10 -1 -12 0 -12 0 -13 0 -13 -1 -14 0 -15 0 -15 0 -15 0 -16 -1 -16 0 -16 0 -16 0 -17 -1 -16 0 -16 0 -16 0 -16 0 -15 0 -15 -1 -14 0 -14 0 -13 0 -13 0 -11 0 -11 0 -10 0 -9 0 -8 0 -7 0 -5 0 0zm0 0c0,-4 3,-8 7,-7 4,0 7,3 7,7l-14 0zm-12 -290l14 -1 0 0 1 2 0 4 0 4 0 5 1 6 0 7 0 7 1 8 0 9 1 9 0 10 1 10 0 10 1 11 0 11 1 12 0 11 1 12 0 11 1 12 0 12 1 11 0 11 0 11 1 11 0 11 0 10 1 10 0 9 0 8 0 8 0 8 -14 0 0 -7 0 -8 -1 -9 0 -9 0 -10 0 -10 -1 -10 0 -11 -1 -11 0 -11 0 -12 -1 -11 0 -12 -1 -12 0 -11 -1 -12 0 -11 -1 -11 0 -11 -1 -10 0 -11 -1 -9 0 -10 -1 -8 0 -8 0 -8 -1 -6 0 -6 0 -5 -1 -5 0 -3 0 -2 0 0zm0 0c0,-4 3,-8 7,-8 4,0 7,3 7,7l-14 1zm-15 -151l14 -2 0 0 1 5 1 4 0 5 1 5 1 5 0 4 1 5 0 5 1 5 1 4 0 5 1 5 0 5 1 4 0 5 1 5 0 5 0 4 1 5 0 5 1 5 0 4 0 5 1 5 0 5 0 4 1 5 0 5 1 5 0 4 0 5 0 5 -14 1 0 -5 -1 -5 0 -4 0 -5 -1 -5 0 -5 0 -4 -1 -5 0 -5 0 -5 -1 -4 0 -5 -1 -5 0 -4 0 -5 -1 -5 0 -5 -1 -4 0 -5 -1 -5 0 -4 -1 -5 0 -5 -1 -4 -1 -5 0 -5 -1 -4 0 -5 -1 -5 -1 -5 -1 -4 0 -5 0 0zm0 0c-1,-4 2,-8 6,-8 4,-1 7,2 8,6l-14 2zm-11 -56l15 -3 0 0 0 2 0 2 1 1 0 2 1 2 0 2 0 2 1 1 0 2 0 2 1 2 0 1 0 2 1 2 0 2 0 1 1 2 0 2 0 2 0 2 1 1 0 2 0 2 1 2 0 1 0 2 1 2 0 2 0 1 0 2 1 2 0 2 -14 2 -1 -2 0 -1 0 -2 0 -2 -1 -2 0 -1 0 -2 -1 -2 0 -2 0 -1 -1 -2 0 -2 0 -2 0 -1 -1 -2 0 -2 0 -2 -1 -1 0 -2 0 -2 -1 -2 0 -1 0 -2 -1 -2 0 -2 0 -1 -1 -2 0 -2 0 -2 -1 -1 0 -2 -1 -2 0 0zm0 0c0,-4 2,-8 6,-8 4,-1 8,1 9,5l-15 3zm-67 -43l-4 -13 0 0 3 -1 4 -1 4 -1 3 0 4 -1 4 0 3 0 4 1 3 0 3 1 4 1 3 1 3 1 3 2 3 1 3 2 3 2 3 2 3 2 2 3 3 2 2 3 2 3 2 3 2 3 2 3 2 3 1 4 2 3 1 4 1 3 1 4 -15 3 0 -3 -1 -3 -1 -3 -1 -3 -1 -3 -2 -2 -1 -3 -2 -2 -1 -3 -2 -2 -2 -2 -2 -2 -2 -2 -2 -1 -2 -2 -2 -2 -3 -1 -2 -1 -2 -1 -3 -1 -2 -1 -3 -1 -3 0 -2 -1 -3 0 -3 0 -2 0 -3 0 -3 0 -3 1 -3 1 -3 0 0 0zm0 0c-4,2 -8,0 -9,-4 -1,-4 1,-8 5,-9l4 13zm-29 34l-12 -8 0 0 1 -2 1 -1 1 -1 0 -1 1 -2 1 -1 1 -1 1 -1 1 -2 0 -1 1 -2 1 -1 1 -1 1 -2 1 -1 1 -2 1 -1 1 -1 1 -2 1 -1 2 -1 1 -2 1 -1 1 -1 2 -1 1 -1 2 -1 2 -1 1 -1 2 -1 2 -1 2 0 4 13 -1 1 -1 0 -1 1 -1 0 -1 1 -1 1 -1 0 -1 1 -1 1 -1 1 -1 1 -1 1 -1 1 -1 1 0 1 -1 1 -1 1 -1 1 -1 2 -1 1 0 1 -1 2 -1 1 -1 1 -1 2 -1 1 -1 1 0 2 -1 1 -1 1 -1 2 -1 1 0 0zm0 0c-3,3 -7,4 -10,2 -4,-3 -4,-7 -2,-10l12 8zm-24 67l-14 -3 0 0 1 -2 0 -2 1 -3 0 -2 1 -2 0 -3 1 -2 0 -2 1 -3 0 -2 1 -2 1 -2 0 -3 1 -2 0 -2 1 -3 1 -2 1 -2 0 -3 1 -2 1 -2 1 -3 1 -2 1 -2 1 -2 1 -3 1 -2 2 -2 1 -2 1 -2 2 -2 1 -2 12 8 -1 2 -2 2 -1 2 -1 1 -1 2 -1 2 -1 2 -1 2 -1 2 -1 2 0 2 -1 2 -1 2 -1 2 0 2 -1 3 -1 2 0 2 -1 2 0 2 -1 2 -1 3 0 2 -1 2 0 2 -1 3 0 2 -1 2 0 3 -1 2 0 2 -1 2 0 0zm0 0c-1,4 -5,7 -9,6 -4,-1 -6,-5 -5,-9l14 3zm-12 115l-15 -1 0 0 0 -4 1 -3 0 -4 0 -4 0 -3 1 -4 0 -4 0 -3 0 -4 0 -3 1 -4 0 -4 0 -3 0 -4 1 -4 0 -3 0 -4 1 -4 0 -3 1 -4 0 -4 0 -3 1 -4 0 -4 1 -3 1 -4 0 -4 1 -3 1 -4 0 -4 1 -3 1 -4 14 3 -1 4 0 3 -1 4 -1 3 0 4 -1 3 -1 4 0 3 -1 4 0 3 -1 4 0 4 0 3 -1 4 0 3 0 4 -1 3 0 4 0 4 -1 3 0 4 0 3 0 4 -1 4 0 3 0 4 0 4 0 3 -1 4 0 4 0 3 0 4 0 0zm0 0c-1,4 -4,7 -8,7 -4,-1 -7,-4 -7,-8l15 1zm-20 656l-14 1 0 0 0 -6 0 -8 0 -11 0 -13 0 -15 1 -18 0 -19 0 -21 1 -22 0 -24 1 -25 1 -25 0 -27 1 -27 1 -28 1 -28 1 -28 0 -28 1 -28 1 -27 1 -27 1 -26 1 -25 1 -24 0 -22 1 -21 1 -19 1 -18 0 -15 1 -14 1 -11 0 -8 15 1 -1 8 -1 11 0 13 -1 16 -1 17 0 20 -1 21 -1 22 -1 24 -1 25 0 26 -1 26 -1 28 -1 27 -1 28 -1 28 0 28 -1 28 -1 27 -1 27 0 26 -1 25 -1 23 0 23 -1 21 0 19 0 17 -1 15 0 13 0 11 0 8 0 5 0 0zm0 0c1,4 -3,8 -7,8 -4,0 -7,-3 -7,-7l14 -1zm-7 1738l-15 -1 0 0 0 -16 1 -25 0 -31 1 -39 0 -45 1 -50 0 -56 0 -60 1 -65 0 -68 0 -71 1 -73 0 -75 0 -77 1 -77 0 -78 0 -77 1 -77 0 -75 0 -73 0 -71 0 -68 1 -64 0 -60 0 -55 0 -50 0 -44 0 -38 0 -31 0 -24 0 -16 0 -7 14 -1 0 8 1 16 0 24 0 31 0 38 -1 44 0 50 0 55 0 60 0 64 0 68 0 71 -1 73 0 75 0 77 0 77 -1 78 0 77 0 77 -1 75 0 73 0 71 -1 68 0 65 -1 60 0 56 0 50 -1 45 0 39 -1 32 0 24 0 17 0 0zm0 0c-1,4 -4,7 -8,7 -4,0 -7,-4 -7,-8l15 1zm-2072 -3400c3,-3 8,-3 11,0 2,3 2,7 -1,10l-10 -10zm-188 41l0 -15 0 0 11 1 10 0 10 0 10 0 9 -1 9 0 9 0 9 -1 8 0 7 -1 8 0 7 -1 7 -1 7 -1 6 -1 6 -1 5 -1 6 -1 5 -1 5 -1 4 -1 4 -2 4 -1 4 -1 3 -1 3 -2 3 -1 2 -1 3 -2 1 -1 2 -1 1 -1 10 10 -2 2 -2 2 -3 1 -2 2 -3 2 -4 1 -3 2 -4 1 -4 2 -4 1 -5 2 -5 1 -5 1 -5 1 -6 1 -6 2 -6 1 -6 1 -7 0 -7 1 -8 1 -7 1 -8 0 -9 1 -8 0 -9 1 -9 0 -10 0 -10 0 -10 0 -10 0 -11 0 0 0zm0 0c-4,0 -7,-3 -7,-7 0,-4 3,-8 7,-8l0 15zm-65 59l-14 -2 0 0 1 -4 0 -4 1 -3 2 -4 1 -3 1 -3 2 -4 2 -3 1 -3 2 -3 2 -3 3 -3 2 -3 2 -2 3 -3 2 -2 3 -3 3 -2 3 -2 3 -2 3 -2 3 -2 3 -1 3 -2 4 -1 3 -1 3 -1 4 -1 3 -1 4 0 4 0 3 -1 0 15 -3 0 -2 0 -3 1 -3 0 -3 1 -3 1 -2 1 -3 1 -3 1 -2 1 -3 2 -2 1 -3 2 -2 2 -3 2 -2 2 -2 2 -2 2 -2 2 -2 2 -2 3 -2 2 -1 3 -2 2 -1 3 -1 3 -2 2 -1 3 -1 3 0 3 -1 3 -1 3 0 0zm0 0c0,4 -4,7 -8,6 -4,-1 -7,-4 -6,-8l14 2zm1 94l-15 2 0 0 0 -3 -1 -3 0 -3 0 -3 0 -3 -1 -3 0 -3 0 -3 0 -4 -1 -3 0 -3 0 -3 0 -3 0 -3 0 -3 0 -3 0 -3 0 -3 0 -3 0 -3 0 -3 0 -4 0 -3 0 -3 1 -3 0 -3 0 -3 0 -3 1 -3 0 -3 1 -3 0 -3 14 2 0 3 0 3 -1 3 0 3 0 2 -1 3 0 3 0 3 0 3 0 3 -1 3 0 3 0 3 0 3 0 3 0 3 0 3 0 3 0 3 1 3 0 3 0 3 0 3 0 2 0 3 1 3 0 3 0 3 1 3 0 3 0 3 1 3 0 0zm0 0c0,4 -3,8 -7,8 -4,1 -7,-2 -8,-6l15 -2zm38 670l-15 2 0 0 0 -7 -1 -9 -1 -12 0 -14 -1 -17 -1 -18 -2 -21 -1 -22 -1 -23 -1 -25 -2 -25 -1 -27 -2 -28 -1 -28 -2 -28 -1 -29 -2 -28 -1 -29 -2 -28 -1 -28 -1 -26 -2 -26 -1 -25 -2 -24 -1 -22 -1 -21 -1 -19 -1 -17 -1 -15 -1 -12 -1 -10 -1 -7 15 -2 0 8 1 10 1 12 1 15 1 17 1 19 2 21 1 22 1 24 2 25 1 26 1 27 2 27 1 28 2 29 1 29 2 28 1 29 2 28 1 27 2 27 1 26 1 24 2 24 1 22 1 20 1 18 1 17 1 14 1 12 0 9 1 6 0 0zm0 0c0,4 -3,8 -7,8 -4,1 -7,-2 -8,-6l15 -2zm29 325l-15 1 0 0 0 -5 -1 -7 0 -7 -1 -8 -1 -9 -1 -10 -1 -10 -1 -10 -1 -11 -1 -12 -1 -12 -1 -12 -1 -12 -1 -13 -1 -12 -1 -13 -1 -13 -1 -12 -2 -13 -1 -12 -1 -12 -1 -12 -1 -11 -1 -11 -1 -11 -1 -10 0 -9 -1 -8 -1 -8 0 -8 -1 -6 -1 -5 15 -2 0 6 1 6 1 7 0 8 1 9 1 9 1 10 1 11 1 11 1 11 1 12 1 12 1 12 1 12 1 13 1 13 1 12 1 13 1 12 2 13 1 12 1 12 1 11 1 11 1 11 1 10 0 9 1 9 1 8 1 8 0 6 1 6 0 0zm0 0c0,4 -3,8 -7,8 -4,0 -7,-3 -8,-7l15 -1zm42 449l-14 2 0 0 -1 -6 0 -8 -1 -9 -1 -10 -1 -11 -1 -13 -1 -13 -2 -15 -1 -15 -2 -17 -1 -16 -2 -18 -1 -17 -2 -19 -2 -18 -2 -18 -1 -19 -2 -18 -2 -18 -2 -18 -1 -17 -2 -17 -1 -17 -2 -15 -1 -15 -2 -14 -1 -13 -1 -12 -1 -10 -1 -9 -1 -8 -1 -7 15 -1 1 6 0 8 1 9 1 11 1 12 2 13 1 14 1 14 2 16 2 16 1 17 2 18 2 18 1 18 2 18 2 18 2 19 1 18 2 18 2 18 1 17 2 17 1 16 2 16 1 14 1 14 1 12 2 12 0 10 1 9 1 8 0 5 0 0zm0 0c1,4 -2,8 -6,8 -4,1 -8,-2 -8,-6l14 -2zm25 332l-14 1 0 0 0 -6 -1 -6 -1 -7 0 -9 -1 -9 -1 -9 0 -10 -1 -11 -1 -11 -1 -12 -1 -12 -1 -12 -1 -13 -1 -13 -1 -13 -1 -12 -1 -13 -1 -13 -1 -13 -1 -13 0 -12 -1 -12 -1 -12 -1 -11 -1 -11 -1 -10 0 -10 -1 -9 -1 -8 0 -7 -1 -7 0 -5 14 -2 1 6 0 7 1 7 0 8 1 9 1 10 1 10 0 11 1 11 1 12 1 12 1 12 1 13 1 13 1 12 1 13 1 13 1 13 1 13 1 13 1 12 1 12 0 12 1 11 1 11 1 10 1 9 0 9 1 8 1 8 0 6 0 6 0 0zm0 0c1,4 -2,7 -6,8 -4,0 -8,-3 -8,-7l14 -1zm10 176l-15 0 0 0 0 -5 0 -6 0 -5 -1 -6 0 -5 0 -6 0 -5 -1 -6 0 -5 0 -6 0 -5 -1 -6 0 -5 0 -6 0 -5 -1 -6 0 -5 0 -5 0 -6 -1 -5 0 -6 0 -5 -1 -6 0 -5 0 -6 -1 -5 0 -6 0 -5 -1 -6 0 -5 -1 -5 0 -6 14 -1 1 5 0 6 1 5 0 6 1 5 0 6 0 5 1 6 0 5 0 6 1 5 0 6 0 5 0 6 1 5 0 6 0 5 0 6 1 5 0 6 0 5 0 6 1 5 0 6 0 5 0 6 1 5 0 6 0 5 0 6 1 5 0 6 0 0zm0 0c0,4 -3,7 -7,7 -4,0 -7,-3 -8,-7l15 0zm8 258l-15 0 0 0 1 -9 0 -8 0 -8 0 -8 -1 -8 0 -8 0 -8 0 -8 0 -8 0 -8 0 -8 -1 -8 0 -8 0 -8 0 -8 -1 -8 0 -8 0 -8 -1 -8 0 -8 -1 -8 0 -8 0 -8 -1 -8 0 -8 0 -8 -1 -9 0 -8 -1 -8 0 -8 0 -8 -1 -8 15 0 0 8 1 8 0 8 0 8 1 8 0 8 0 8 1 8 0 8 1 8 0 8 0 8 1 8 0 8 0 8 1 8 0 8 0 9 1 8 0 8 0 8 0 8 1 8 0 8 0 8 0 8 0 8 0 8 0 8 0 9 0 8 0 8 0 0zm0 0c0,4 -3,7 -7,7 -4,0 -8,-3 -8,-7l15 0zm-6 303l-14 -1 0 0 0 -9 1 -10 0 -9 1 -9 0 -10 0 -9 1 -10 0 -9 0 -10 0 -9 0 -10 1 -9 0 -10 0 -9 0 -9 0 -10 0 -9 0 -10 0 -9 0 -10 1 -9 0 -10 0 -9 0 -10 0 -9 0 -10 0 -9 0 -10 0 -9 0 -10 0 -9 0 -9 15 0 0 9 0 10 0 9 0 10 -1 9 0 9 0 10 0 9 0 10 0 9 0 10 0 9 0 10 0 9 0 10 0 9 0 10 -1 9 0 10 0 9 0 10 0 9 0 10 -1 9 0 10 0 9 -1 10 0 9 0 10 -1 9 0 10 -1 9 0 0zm0 0c0,4 -3,7 -7,7 -4,0 -7,-4 -7,-8l14 1zm-14 249l-15 -1 0 0 1 -8 0 -8 1 -7 0 -8 1 -8 0 -8 1 -7 0 -8 1 -8 0 -8 0 -8 1 -7 0 -8 1 -8 0 -8 1 -7 0 -8 1 -8 0 -8 1 -7 0 -8 1 -8 0 -8 1 -7 0 -8 0 -8 1 -8 0 -8 1 -7 0 -8 1 -8 0 -8 14 1 0 8 0 8 -1 7 0 8 -1 8 0 8 0 8 -1 7 0 8 -1 8 0 8 -1 7 0 8 -1 8 0 8 -1 8 0 7 -1 8 0 8 -1 8 0 7 0 8 -1 8 0 8 -1 7 0 8 -1 8 0 8 -1 8 0 7 -1 8 0 8 0 0zm0 0c-1,4 -4,7 -8,7 -4,-1 -7,-4 -7,-8l15 1zm-19 254l-15 -1 0 0 1 -8 0 -8 1 -8 1 -8 0 -8 1 -8 0 -8 1 -8 1 -8 0 -8 1 -8 1 -7 0 -8 1 -8 0 -8 1 -8 1 -8 0 -8 1 -8 0 -8 1 -8 1 -8 0 -8 1 -8 0 -8 1 -7 0 -8 1 -8 0 -8 1 -8 0 -8 1 -8 15 1 -1 8 -1 8 0 8 -1 8 0 8 -1 8 0 7 -1 8 0 8 -1 8 -1 8 0 8 -1 8 0 8 -1 8 -1 8 0 8 -1 8 0 8 -1 8 -1 8 0 8 -1 7 0 8 -1 8 -1 8 0 8 -1 8 -1 8 0 8 -1 8 0 8 0 0zm0 0c-1,4 -4,7 -8,7 -4,-1 -7,-4 -7,-8l15 1zm-31 401l-14 -1 0 0 0 -7 1 -8 0 -9 1 -10 1 -11 0 -11 1 -12 1 -13 1 -14 1 -14 1 -15 2 -14 1 -16 1 -15 1 -16 1 -15 2 -16 1 -15 1 -16 1 -15 1 -15 2 -15 1 -14 1 -13 1 -13 1 -13 1 -11 0 -11 1 -10 1 -9 1 -8 0 -7 15 1 -1 7 -1 8 0 9 -1 10 -1 11 -1 11 -1 13 -1 13 -1 13 -1 15 -1 14 -1 15 -2 15 -1 16 -1 15 -1 16 -1 16 -2 15 -1 16 -1 15 -1 15 -1 14 -1 14 -1 14 -1 13 -1 12 -1 12 -1 10 0 10 -1 9 0 8 -1 7 0 0zm0 0c0,4 -3,7 -7,6 -4,0 -8,-3 -7,-7l14 1zm-31 420l-14 -1 0 0 0 -5 1 -7 0 -7 1 -10 1 -10 1 -11 1 -12 1 -14 1 -14 1 -15 1 -15 2 -16 1 -16 1 -17 1 -17 2 -17 1 -17 1 -17 1 -17 2 -17 1 -16 1 -16 1 -16 1 -15 1 -14 1 -14 1 -12 0 -12 1 -10 1 -9 0 -9 1 -6 14 1 0 6 -1 8 0 10 -1 10 -1 12 -1 12 -1 14 -1 14 -1 15 -1 16 -1 16 -1 16 -1 17 -1 17 -2 17 -1 17 -1 17 -1 17 -2 17 -1 16 -1 16 -1 16 -1 14 -1 14 -2 14 -1 12 0 11 -1 11 -1 9 -1 8 -1 6 0 5 0 0zm0 0c-1,4 -4,7 -8,7 -4,-1 -7,-4 -6,-8l14 1zm-46 610l-14 4 0 0 0 -5 0 -6 0 -10 0 -11 1 -14 1 -17 1 -18 2 -20 1 -22 2 -24 1 -24 2 -26 2 -26 2 -27 3 -28 2 -27 2 -28 2 -28 2 -27 2 -26 3 -26 2 -25 2 -24 1 -22 2 -21 2 -19 1 -16 1 -15 2 -13 0 -9 1 -7 1 -4 14 1 0 4 -1 7 -1 10 -1 12 -1 15 -2 17 -1 19 -2 20 -2 23 -2 23 -2 25 -2 26 -2 26 -2 28 -3 27 -2 28 -2 28 -2 27 -2 27 -2 26 -2 26 -2 24 -1 24 -2 22 -1 20 -1 18 -1 16 -1 14 -1 12 0 9 0 5 0 2 0 0zm0 0c1,3 -1,8 -5,9 -3,1 -8,-1 -9,-5l14 -4zm64 36l2 14 0 0 -4 1 -4 0 -3 0 -4 0 -3 0 -4 0 -3 0 -3 -1 -3 0 -3 -1 -3 -1 -3 -1 -3 -1 -3 -1 -3 -2 -2 -1 -3 -2 -2 -1 -3 -2 -2 -2 -2 -2 -2 -2 -2 -3 -2 -2 -1 -2 -2 -3 -2 -3 -1 -2 -1 -3 -2 -3 -1 -3 -1 -3 14 -4 1 2 1 3 1 2 1 2 1 2 1 3 2 2 1 1 1 2 2 2 1 2 2 1 2 2 1 1 2 1 2 1 2 1 2 2 2 0 2 1 3 1 2 1 3 0 2 1 3 0 3 0 2 1 3 0 3 0 3 0 4 -1 3 0 0 0zm0 0c4,-1 8,2 8,6 1,4 -2,8 -6,8l-2 -14zm469 -40l2 15 0 0 -5 0 -7 1 -8 0 -10 1 -12 1 -13 1 -15 2 -15 1 -17 1 -17 2 -18 1 -19 2 -19 1 -20 2 -20 1 -20 2 -20 2 -20 1 -20 2 -19 2 -19 1 -18 2 -17 1 -17 2 -15 1 -15 1 -13 1 -11 1 -11 1 -8 1 -7 1 -4 0 -2 -14 5 -1 7 0 8 -1 10 -1 12 -1 13 -1 14 -2 16 -1 16 -1 18 -2 18 -1 19 -2 19 -1 20 -2 20 -2 20 -1 20 -2 20 -2 20 -1 19 -2 19 -1 18 -2 17 -1 17 -2 15 -1 15 -1 13 -1 11 -1 11 -1 8 -1 7 0 4 -1 0 0zm0 0c4,0 8,3 8,7 1,4 -2,7 -6,8l-2 -15zm2148 -179l2 14 0 0 -42 5 -49 5 -55 6 -61 6 -66 6 -71 7 -75 7 -80 7 -82 7 -85 7 -87 7 -89 8 -90 7 -91 7 -91 8 -90 7 -89 7 -88 7 -85 6 -83 7 -80 6 -76 6 -72 5 -68 5 -62 5 -56 4 -50 4 -43 3 -35 3 -28 2 -19 2 -10 1 -2 -15 11 -1 19 -1 28 -2 35 -3 43 -3 50 -4 56 -4 62 -5 68 -5 71 -6 77 -6 79 -6 83 -6 86 -7 88 -7 89 -7 90 -7 91 -7 90 -8 90 -7 89 -7 88 -8 85 -7 82 -7 79 -7 76 -7 71 -6 66 -6 61 -6 55 -6 48 -5 42 -5 0 0zm0 0c4,-1 8,2 8,6 1,4 -2,8 -6,8l-2 -14zm110 -93l14 3 0 0 -1 6 -2 5 -2 6 -2 5 -2 5 -3 5 -3 4 -3 5 -3 4 -3 5 -4 4 -4 4 -3 4 -4 3 -4 4 -5 3 -4 3 -4 3 -5 3 -4 3 -5 3 -5 2 -4 2 -5 2 -5 2 -5 2 -4 2 -5 1 -5 1 -5 1 -4 1 -5 1 -2 -14 4 -1 4 -1 5 -1 4 -1 4 -1 5 -2 4 -1 4 -2 5 -2 4 -2 4 -2 4 -3 5 -2 4 -3 4 -2 4 -3 3 -3 4 -3 4 -4 3 -3 3 -4 3 -3 3 -4 3 -4 3 -4 2 -4 3 -5 2 -4 2 -5 1 -4 2 -5 1 -5 0 0zm0 0c1,-4 5,-6 9,-6 4,1 6,5 5,9l-14 -3zm8 -49l14 3 0 0 0 2 0 1 0 2 -1 1 0 1 0 2 -1 1 0 2 0 1 0 2 0 1 -1 2 0 1 0 2 0 1 -1 2 0 2 0 1 0 2 0 1 -1 2 0 1 0 2 0 1 -1 2 0 2 0 1 -1 2 0 1 0 2 0 2 -1 1 -14 -3 0 -2 1 -1 0 -1 0 -2 0 -1 1 -2 0 -1 0 -2 0 -1 1 -2 0 -1 0 -2 0 -1 1 -2 0 -2 0 -1 0 -2 0 -1 1 -2 0 -1 0 -2 0 -1 1 -2 0 -1 0 -2 0 -2 1 -1 0 -2 0 -1 1 -2 0 -1 0 -2 0 0zm0 0c1,-4 5,-6 9,-5 4,0 6,4 5,8l-14 -3zm93 -404l15 3 0 0 -2 7 -1 7 -2 9 -2 10 -3 11 -2 12 -3 13 -3 13 -4 14 -3 15 -4 15 -3 16 -4 16 -4 17 -4 16 -3 17 -4 16 -4 16 -4 16 -4 16 -3 16 -4 14 -3 15 -3 13 -3 13 -3 12 -3 11 -2 10 -2 9 -2 8 -1 6 -2 5 -14 -3 1 -5 2 -6 2 -8 2 -9 2 -10 3 -11 3 -12 3 -13 3 -14 3 -14 4 -15 3 -15 4 -16 4 -16 4 -16 4 -17 3 -16 4 -17 4 -16 4 -16 3 -16 4 -15 3 -15 4 -14 3 -14 3 -12 2 -12 3 -11 2 -10 2 -9 1 -7 1 -7 0 0zm0 0c1,-3 5,-6 9,-5 4,1 6,4 6,8l-15 -3zm30 -150l15 3 0 0 -1 5 -1 4 -1 5 -1 5 -1 4 -1 5 -1 5 -1 5 -1 4 -1 5 -1 5 -1 4 0 5 -1 5 -1 4 -1 5 -1 5 -1 5 -1 4 -1 5 -1 5 -1 4 -1 5 -1 5 -1 4 -1 5 -1 5 -1 4 -1 5 0 5 -1 5 -1 4 -15 -3 1 -4 1 -5 1 -5 1 -4 1 -5 1 -5 1 -4 1 -5 1 -5 1 -5 1 -4 1 -5 1 -5 1 -4 0 -5 1 -5 1 -4 1 -5 1 -5 1 -4 1 -5 1 -5 1 -5 1 -4 1 -5 1 -5 1 -4 1 -5 1 -5 0 -4 1 -5 1 -5 0 0zm0 0c1,-4 5,-6 9,-6 4,1 6,5 6,9l-15 -3zm71 -410l15 2 0 0 -1 5 -1 7 -2 9 -1 9 -2 11 -2 12 -2 12 -2 14 -3 14 -2 15 -3 16 -3 16 -3 16 -3 17 -2 17 -3 17 -3 17 -3 17 -3 16 -3 17 -3 16 -3 15 -2 15 -3 14 -2 14 -2 12 -2 12 -2 10 -2 9 -1 8 -1 7 -1 5 -15 -3 1 -5 1 -6 2 -8 2 -10 1 -10 2 -12 3 -12 2 -13 3 -14 2 -15 3 -16 3 -16 3 -16 2 -17 3 -16 3 -17 3 -17 3 -17 3 -17 3 -16 3 -16 2 -16 3 -15 2 -14 3 -14 2 -13 2 -12 2 -10 1 -10 1 -8 2 -7 0 -5 0 0zm0 0c1,-4 5,-7 9,-7 4,1 6,5 6,9l-15 -2zm39 -285l15 1 0 0 -1 5 -1 6 0 6 -1 7 -1 7 -1 8 -2 9 -1 9 -1 10 -1 10 -2 10 -1 11 -2 10 -1 11 -2 11 -1 12 -2 11 -1 11 -2 11 -1 11 -2 10 -1 11 -2 10 -1 10 -1 9 -1 9 -2 8 -1 8 -1 7 -1 7 -1 6 0 5 -15 -2 1 -6 1 -5 1 -7 1 -7 1 -8 1 -8 1 -9 2 -9 1 -10 2 -10 1 -11 1 -10 2 -11 1 -11 2 -11 1 -11 2 -12 1 -11 2 -11 1 -10 2 -11 1 -10 2 -10 1 -10 1 -9 1 -8 1 -9 1 -7 1 -7 1 -6 1 -6 0 -4 0 0zm0 0c1,-4 4,-7 8,-7 4,1 7,4 7,8l-15 -1zm25 -245l14 1 0 0 -1 8 0 8 -1 7 -1 8 -1 7 0 8 -1 8 -1 7 -1 8 0 8 -1 7 -1 8 0 8 -1 7 -1 8 -1 8 0 7 -1 8 -1 8 -1 7 0 8 -1 8 -1 7 -1 8 0 8 -1 7 -1 8 -1 8 -1 7 -1 8 -1 8 0 7 -15 -1 1 -8 1 -8 1 -7 1 -8 0 -8 1 -7 1 -8 1 -7 1 -8 0 -8 1 -7 1 -8 1 -8 0 -7 1 -8 1 -8 1 -7 0 -8 1 -8 1 -7 0 -8 1 -8 1 -7 1 -8 0 -8 1 -7 1 -8 1 -8 0 -7 1 -8 1 -8 1 -7 0 0zm0 0c0,-4 4,-7 8,-7 4,1 7,4 6,8l-14 -1zm21 -317l14 1 0 0 0 10 0 10 -1 10 0 10 -1 9 0 10 0 10 -1 10 0 10 -1 10 0 10 -1 10 -1 10 0 10 -1 10 0 10 -1 10 -1 10 0 9 -1 10 -1 10 -1 10 0 10 -1 10 -1 10 -1 10 -1 10 -1 10 -1 10 -1 9 -1 10 -1 10 -14 -1 1 -10 1 -10 1 -10 1 -10 1 -10 1 -9 0 -10 1 -10 1 -10 1 -10 1 -10 0 -10 1 -10 1 -9 0 -10 1 -10 1 -10 0 -10 1 -10 1 -10 0 -10 1 -10 0 -10 1 -9 0 -10 1 -10 0 -10 0 -10 1 -10 0 -10 1 -10 0 -10 0 0zm0 0c0,-4 3,-7 7,-7 4,0 8,4 7,8l-14 -1zm4 -189l15 0 0 0 0 6 0 6 0 6 -1 6 0 6 0 6 0 6 0 6 0 5 0 6 0 6 0 6 0 6 0 6 -1 6 0 6 0 6 0 6 0 6 0 6 0 6 -1 6 0 6 0 5 0 6 0 6 -1 6 0 6 0 6 0 6 0 6 -1 6 -14 -1 0 -6 0 -6 1 -5 0 -6 0 -6 0 -6 0 -6 1 -6 0 -6 0 -6 0 -6 0 -6 0 -6 1 -5 0 -6 0 -6 0 -6 0 -6 0 -6 0 -6 0 -6 1 -6 0 -6 0 -6 0 -6 0 -5 0 -6 0 -6 0 -6 0 -6 0 -6 0 -6 0 0zm0 0c0,-4 3,-7 7,-7 4,0 8,3 8,7l-15 0zm-10 -271l14 -1 0 0 1 9 1 8 0 8 1 9 0 8 1 9 0 8 1 8 0 9 1 8 0 8 0 9 1 8 0 8 1 9 0 8 0 8 1 9 0 8 0 9 0 8 1 9 0 8 0 9 0 8 0 9 0 9 0 9 1 8 0 9 0 9 0 9 -15 0 0 -9 0 -9 0 -9 0 -8 0 -9 0 -9 0 -8 -1 -9 0 -8 0 -9 0 -8 0 -9 -1 -8 0 -9 0 -8 -1 -8 0 -9 0 -8 -1 -8 0 -9 0 -8 -1 -8 0 -9 -1 -8 0 -8 -1 -9 0 -8 -1 -8 0 -9 -1 -8 0 -8 -1 -9 0 0zm0 0c0,-4 3,-7 7,-8 4,0 7,3 7,7l-14 1zm-10 -138l14 -2 0 0 1 5 0 4 1 4 0 5 0 4 1 4 0 5 0 4 1 4 0 5 0 4 1 4 0 5 0 4 1 4 0 5 0 4 0 4 1 5 0 4 0 4 1 5 0 4 0 4 0 5 1 4 0 4 0 5 1 4 0 4 0 5 0 4 -14 1 0 -4 -1 -5 0 -4 0 -4 -1 -5 0 -4 0 -4 0 -5 -1 -4 0 -4 0 -5 0 -4 -1 -4 0 -5 0 -4 -1 -4 0 -5 0 -4 0 -4 -1 -5 0 -4 0 -4 -1 -5 0 -4 0 -4 -1 -4 0 -5 -1 -4 0 -4 0 -5 -1 -4 0 -4 0 0zm0 0c-1,-4 2,-8 6,-8 4,-1 8,2 8,6l-14 2zm-11 -120l14 -1 0 0 1 4 0 3 0 4 1 4 0 4 0 3 1 4 0 4 0 4 1 3 0 4 0 4 1 4 0 3 0 4 1 4 0 3 0 4 1 4 0 4 0 3 1 4 0 4 0 4 1 3 0 4 0 4 1 3 0 4 0 4 1 4 0 3 -14 2 -1 -4 0 -4 0 -3 -1 -4 0 -4 0 -4 -1 -3 0 -4 0 -4 -1 -4 0 -3 0 -4 -1 -4 0 -4 0 -3 -1 -4 0 -4 0 -3 -1 -4 0 -4 0 -4 -1 -3 0 -4 0 -4 -1 -4 0 -3 0 -4 -1 -4 0 -3 0 -4 -1 -4 0 -4 0 0zm0 0c0,-4 2,-7 6,-8 4,0 8,3 8,7l-14 1zm-22 -198l15 -2 0 0 0 4 0 4 1 4 1 5 0 5 1 6 0 6 1 6 1 7 1 7 1 7 0 7 1 8 1 8 1 7 1 8 1 8 0 8 1 7 1 8 1 7 1 7 0 7 1 7 1 7 1 6 0 6 1 5 0 5 1 4 0 5 0 3 -14 1 0 -3 -1 -4 0 -5 -1 -5 0 -5 -1 -6 -1 -6 0 -6 -1 -7 -1 -7 -1 -7 0 -8 -1 -7 -1 -8 -1 -8 -1 -7 -1 -8 0 -8 -1 -7 -1 -8 -1 -7 -1 -7 -1 -7 0 -7 -1 -6 -1 -6 0 -6 -1 -5 0 -5 -1 -5 0 -3 -1 -4 0 0zm0 0c0,-4 3,-7 7,-8 4,0 7,3 8,6l-15 2zm-27 -216l15 -2 0 0 0 5 1 5 1 5 1 6 0 6 1 7 1 7 1 7 1 8 1 8 1 8 1 8 1 8 1 9 1 8 1 8 1 9 1 8 1 8 1 9 1 7 1 8 1 7 1 7 1 7 0 6 1 6 1 6 0 4 1 5 0 3 1 3 -15 2 0 -3 -1 -4 0 -4 -1 -5 0 -5 -1 -6 -1 -6 -1 -7 0 -7 -1 -7 -1 -8 -1 -8 -1 -8 -1 -8 -1 -8 -1 -9 -1 -8 -1 -9 -1 -8 -1 -8 -1 -9 -1 -8 -1 -7 -1 -8 -1 -7 -1 -7 -1 -7 -1 -6 -1 -6 0 -5 -1 -5 -1 -5 0 0zm0 0c0,-4 3,-7 7,-8 4,0 7,2 8,6l-15 2zm-130 -786l14 -3 0 0 1 5 2 7 1 9 2 10 2 12 3 13 2 15 3 16 4 18 3 19 4 21 4 21 4 23 4 24 4 25 5 26 5 28 4 28 5 29 5 30 6 30 5 32 5 32 5 33 6 34 5 34 5 34 6 35 5 36 5 36 6 36 5 36 -15 2 -5 -36 -5 -36 -5 -36 -6 -35 -5 -35 -5 -35 -6 -34 -5 -34 -5 -32 -6 -33 -5 -31 -5 -31 -5 -30 -5 -29 -5 -28 -4 -27 -5 -26 -4 -25 -5 -24 -4 -23 -3 -22 -4 -20 -4 -19 -3 -18 -3 -16 -3 -15 -2 -14 -2 -11 -2 -11 -2 -8 -1 -7 -1 -5 0 0zm0 0c-1,-4 2,-8 6,-9 4,0 8,2 8,6l-14 3zm-53 -221l12 -8 0 0 2 3 2 4 2 5 2 5 1 5 2 6 2 7 2 7 2 7 2 8 2 8 2 8 2 8 2 9 2 8 2 9 2 9 2 9 2 9 2 8 2 9 1 8 2 9 2 8 1 7 2 8 1 7 1 6 1 7 1 5 1 6 1 4 -14 3 -1 -5 -1 -5 -1 -6 -1 -6 -1 -6 -2 -7 -1 -8 -2 -8 -1 -8 -2 -8 -2 -8 -1 -9 -2 -8 -2 -9 -2 -9 -2 -9 -2 -8 -2 -9 -2 -9 -2 -8 -2 -8 -2 -8 -2 -7 -2 -7 -2 -7 -1 -6 -2 -6 -2 -5 -2 -5 -2 -4 -1 -3 -1 -2 0 0zm0 0c-3,-4 -2,-8 2,-10 3,-2 8,-1 10,2l-12 8zm-81 -65l3 -15 0 0 4 1 4 1 3 1 4 2 3 1 4 1 3 2 4 2 3 1 3 2 3 2 3 2 3 2 3 2 3 3 2 2 3 2 3 3 2 2 3 3 2 3 3 2 2 3 2 3 3 3 2 3 2 3 2 3 3 3 2 3 2 3 2 3 -12 8 -2 -3 -2 -3 -2 -3 -2 -3 -2 -3 -3 -3 -2 -2 -2 -3 -2 -3 -2 -2 -2 -3 -3 -2 -2 -2 -2 -3 -3 -2 -2 -2 -3 -2 -2 -2 -3 -2 -2 -2 -3 -2 -3 -1 -2 -2 -3 -2 -3 -1 -3 -1 -3 -2 -3 -1 -3 -1 -3 -1 -4 -1 -3 0 0 0zm0 0c-4,-1 -6,-5 -6,-9 1,-4 5,-6 9,-6l-3 15zm-76 -12l2 -14 0 0 2 0 3 0 2 1 3 0 2 0 2 0 3 1 2 0 3 0 2 1 2 0 3 0 2 1 3 0 2 0 2 1 3 0 2 0 3 1 2 0 3 0 2 1 2 0 3 1 2 0 3 1 2 0 2 0 3 1 2 0 3 1 2 0 -3 15 -2 -1 -3 0 -2 -1 -2 0 -3 -1 -2 0 -2 -1 -3 0 -2 0 -2 -1 -3 0 -2 -1 -2 0 -3 0 -2 -1 -3 0 -2 0 -2 -1 -3 0 -2 0 -3 -1 -2 0 -2 0 -3 -1 -2 0 -3 0 -2 0 -2 -1 -3 0 -2 0 -3 -1 -2 0 0 0zm0 0c-4,-1 -7,-4 -6,-8 0,-4 4,-7 8,-6l-2 14zm-788 -97l2 -15 0 0 5 1 9 1 12 1 15 2 18 2 20 3 24 3 25 3 27 3 29 4 31 4 31 3 33 5 34 4 34 4 34 4 35 4 34 5 34 4 34 4 32 4 32 4 30 4 29 3 27 4 25 3 23 2 20 3 18 2 14 2 12 2 8 1 -2 14 -8 -1 -12 -2 -14 -1 -18 -3 -20 -2 -23 -3 -25 -3 -27 -3 -28 -4 -31 -4 -31 -4 -33 -4 -33 -4 -34 -4 -35 -4 -34 -4 -35 -5 -34 -4 -34 -4 -32 -4 -32 -4 -31 -4 -29 -3 -27 -4 -25 -3 -23 -3 -21 -2 -18 -2 -15 -2 -12 -2 -9 -1 -5 0 0 0zm0 0c-4,-1 -7,-5 -6,-9 0,-4 4,-6 8,-6l-2 15zm-379 -40l1 -15 0 0 8 1 9 1 10 1 10 1 12 1 12 1 12 1 14 1 13 2 14 1 14 2 15 1 15 2 15 1 14 2 15 1 15 2 15 1 14 2 14 2 14 1 13 2 13 1 12 1 11 2 11 1 10 1 9 1 8 1 8 1 6 1 5 0 -2 15 -5 -1 -6 -1 -7 -1 -8 -1 -9 -1 -10 -1 -11 -1 -12 -1 -12 -2 -13 -1 -13 -2 -14 -1 -14 -2 -14 -1 -15 -2 -14 -1 -15 -2 -15 -1 -15 -2 -15 -1 -14 -2 -14 -1 -14 -2 -14 -1 -13 -1 -13 -2 -12 -1 -11 -1 -10 -1 -10 -1 -9 -1 -8 0 0 0zm0 0c-4,0 -7,-4 -7,-8 1,-4 4,-7 8,-7l-1 15zm-994 -85l1 -14 0 0 8 1 13 1 17 1 20 2 24 2 27 2 29 2 33 3 34 3 37 3 39 4 39 3 42 4 42 3 42 4 43 3 43 4 43 4 42 3 42 4 40 3 39 4 38 3 35 3 34 3 31 2 28 3 25 2 22 2 18 1 15 2 10 0 -1 15 -10 -1 -15 -1 -18 -2 -22 -2 -25 -2 -28 -2 -31 -3 -34 -3 -35 -3 -38 -3 -39 -3 -40 -4 -42 -3 -42 -4 -43 -3 -43 -4 -43 -4 -43 -3 -42 -4 -41 -4 -40 -3 -38 -3 -37 -3 -35 -3 -32 -3 -30 -3 -26 -2 -24 -2 -21 -2 -16 -1 -13 -1 -8 -1 0 0zm0 0c-4,0 -7,-3 -7,-7 1,-4 4,-7 8,-7l-1 14zm-442 -26l1 -15 -1 0 7 0 8 1 9 0 11 0 12 1 13 0 13 1 15 1 15 0 16 1 17 1 17 1 17 1 17 2 18 1 18 1 18 1 18 1 17 1 17 1 17 2 17 1 15 1 16 1 14 1 13 1 13 1 11 1 11 0 9 1 8 1 6 0 -1 14 -6 0 -8 -1 -9 0 -11 -1 -11 -1 -13 -1 -13 -1 -14 -1 -16 -1 -15 -1 -17 -1 -17 -1 -17 -1 -17 -1 -18 -2 -18 -1 -18 -1 -18 -1 -17 -1 -17 -1 -17 -1 -17 -1 -16 -1 -15 -1 -14 -1 -14 0 -13 -1 -11 0 -11 -1 -9 0 -8 0 -7 0 0 0zm0 0c-4,0 -7,-3 -7,-7 0,-4 3,-8 7,-8l0 15zm-121 -50l9 -12 3 3 3 2 3 2 3 2 3 2 3 2 3 2 3 2 3 2 4 2 3 2 3 2 3 2 4 2 3 1 4 2 3 2 4 1 3 1 4 2 4 1 3 1 4 1 4 1 4 1 4 1 4 1 4 1 4 0 4 1 4 0 5 0 -1 15 -5 0 -4 -1 -5 0 -4 -1 -5 -1 -4 0 -4 -1 -5 -1 -4 -2 -4 -1 -4 -1 -4 -1 -4 -2 -4 -2 -4 -1 -3 -2 -4 -2 -4 -1 -3 -2 -4 -2 -3 -2 -4 -2 -3 -2 -4 -2 -3 -2 -3 -3 -3 -2 -4 -2 -3 -2 -3 -3 -3 -2 -3 -2zm0 0c-3,-3 -3,-7 -1,-10 2,-4 7,-4 10,-2l-9 12z"/>
  </g>
 </g>
</svg>
