<?xml version="1.0" encoding="UTF-8"?>
<!DOCTYPE svg PUBLIC "-//W3C//DTD SVG 1.1//EN" "http://www.w3.org/Graphics/SVG/1.1/DTD/svg11.dtd">
<!-- Creator: CorelDRAW X8 -->
<svg xmlns="http://www.w3.org/2000/svg" xml:space="preserve" width="40mm" height="60mm" version="1.1" style="shape-rendering:geometricPrecision; text-rendering:geometricPrecision; image-rendering:optimizeQuality; fill-rule:evenodd; clip-rule:evenodd"
viewBox="0 0 4000 6000"
 xmlns:xlink="http://www.w3.org/1999/xlink">
 <defs>
  <style type="text/css">
   <![CDATA[
    .str0 {stroke:black;stroke-width:7.62}
    .fil0 {fill:none}
   ]]>
  </style>
 </defs>
 <g id="图层_x0020_1">
  <metadata id="CorelCorpID_0Corel-Layer"/>
  <path class="fil0 str0" d="M1295 899c-1,-9 -8,-17 -23,-18 -55,0 -99,44 -99,99 0,54 44,99 99,99 54,0 98,-45 98,-99 0,-55 -44,-99 -98,-99m19 309c-1,-6 -6,-11 -16,-12 -36,0 -66,30 -66,66 0,36 30,66 66,66 36,0 66,-30 66,-66 0,-36 -30,-66 -66,-66m20 244c-1,-8 -8,-16 -23,-17 -55,0 -99,44 -99,99 0,54 44,99 99,99 54,0 98,-45 98,-99 0,-55 -44,-99 -98,-99m-42 -560l307 0c54,0 98,44 98,98l0 609c0,54 -44,98 -98,98l-307 0c-55,0 -99,-44 -99,-98l0 -609c0,-54 44,-98 99,-98zm-28 -43l358 0c61,0 110,50 110,110l0 666c0,60 -49,110 -110,110l-358 0c-60,0 -110,-50 -110,-110l0 -666c0,-60 50,-110 110,-110zm-195 4521l1854 0c142,0 258,-116 258,-258l0 -4157c0,-142 -116,-258 -258,-258l-1722 0c-142,0 -258,116 -258,258l0 4157c0,142 116,258 258,258l70 0c77,0 120,10 129,27"/>
 </g>
</svg>
