<?xml version="1.0" encoding="UTF-8"?>
<!DOCTYPE svg PUBLIC "-//W3C//DTD SVG 1.1//EN" "http://www.w3.org/Graphics/SVG/1.1/DTD/svg11.dtd">
<!-- Creator: CorelDRAW X8 -->
<svg xmlns="http://www.w3.org/2000/svg" xml:space="preserve" width="40mm" height="60mm" version="1.1" style="shape-rendering:geometricPrecision; text-rendering:geometricPrecision; image-rendering:optimizeQuality; fill-rule:evenodd; clip-rule:evenodd"
viewBox="0 0 4000 6000"
 xmlns:xlink="http://www.w3.org/1999/xlink">
 <defs>
  <style type="text/css">
   <![CDATA[
    .str0 {stroke:#332C2B;stroke-width:19.4}
    .fil0 {fill:none;fill-rule:nonzero}
   ]]>
  </style>
 </defs>
 <g id="图层_x0020_1">
  <metadata id="CorelCorpID_0Corel-Layer"/>
  <g id="_2060491767456">
   <line class="fil0 str0" x1="2851" y1="5349" x2="1152" y2= "5349" />
   <path class="fil0 str0" d="M1152 5349c-120,-6 -233,-117 -237,-234"/>
   <line class="fil0 str0" x1="915" y1="5115" x2="909" y2= "3001" />
   <path class="fil0 str0" d="M909 3001c-2,-693 -2,-1386 0,-2080 9,-152 111,-264 245,-269"/>
   <line class="fil0 str0" x1="1154" y1="652" x2="1369" y2= "651" />
   <path class="fil0 str0" d="M1369 651c195,-1 229,0 245,3 17,3 20,10 20,49 0,3 0,6 0,9"/>
   <line class="fil0 str0" x1="1634" y1="712" x2="1634" y2= "750" />
   <path class="fil0 str0" d="M1634 750c0,48 19,72 55,72 35,0 55,-23 56,-61"/>
   <line class="fil0 str0" x1="1745" y1="761" x2="1745" y2= "708" />
   <path class="fil0 str0" d="M1745 708c0,-45 8,-57 41,-57 37,0 45,9 45,53 0,0 0,1 0,1"/>
   <line class="fil0 str0" x1="1831" y1="705" x2="1830" y2= "760" />
   <path class="fil0 str0" d="M1830 760c-1,41 -1,41 147,41"/>
   <line class="fil0 str0" x1="1977" y1="801" x2="2020" y2= "801" />
   <path class="fil0 str0" d="M2020 801c104,-1 129,-2 142,-6 12,-4 15,-13 15,-50"/>
   <polyline class="fil0 str0" points="2177,745 2177,708 2176,688 "/>
   <path class="fil0 str0" d="M2176 688c-3,-39 -3,-39 172,-38"/>
   <line class="fil0 str0" x1="2348" y1="650" x2="2845" y2= "652" />
   <path class="fil0 str0" d="M2845 652c41,2 58,6 90,20 90,38 155,126 158,213"/>
   <polyline class="fil0 str0" points="3093,885 3088,5079 3092,5126 "/>
   <path class="fil0 str0" d="M3092 5126c0,29 -29,95 -57,130 -41,51 -106,85 -176,92"/>
   <line class="fil0 str0" x1="2859" y1="5348" x2="2838" y2= "5350" />
  </g>
 </g>
</svg>
