<?xml version="1.0" encoding="UTF-8"?>
<!DOCTYPE svg PUBLIC "-//W3C//DTD SVG 1.1//EN" "http://www.w3.org/Graphics/SVG/1.1/DTD/svg11.dtd">
<!-- Creator: CorelDRAW 2020 (64-Bit) -->
<svg xmlns="http://www.w3.org/2000/svg" xml:space="preserve" width="40mm" height="60mm" version="1.1" style="shape-rendering:geometricPrecision; text-rendering:geometricPrecision; image-rendering:optimizeQuality; fill-rule:evenodd; clip-rule:evenodd"
viewBox="0 0 4000 6000"
 xmlns:xlink="http://www.w3.org/1999/xlink"
 xmlns:xodm="http://www.corel.com/coreldraw/odm/2003">
 <defs>
  <style type="text/css">
   <![CDATA[
    .str0 {stroke:black;stroke-width:7.62;stroke-miterlimit:22.9256}
    .fil0 {fill:none}
   ]]>
  </style>
 </defs>
 <g id="图层_x0020_1">
  <metadata id="CorelCorpID_0Corel-Layer"/>
  <path class="fil0 str0" d="M1442.32 1015.77c11.58,-74.47 -51.03,-126.65 -82.1,-129.05 -110.52,0 -200.1,89.58 -200.1,200.1 0,110.51 89.58,200.09 200.1,200.09 110.51,0 200.1,-89.58 200.1,-200.09 0,-110.52 -89.59,-200.1 -200.1,-200.1m82.1 624.48c11.58,-74.47 -51.03,-126.65 -82.1,-129.05 -110.52,0 -200.1,89.58 -200.1,200.1 0,110.51 89.58,200.09 200.1,200.09 110.51,0 200.1,-89.58 200.1,-200.09 0,-110.52 -89.59,-200.1 -200.1,-200.1m581.02 -135.18c13.57,-87.3 -59.83,-148.48 -96.26,-151.3 -129.57,0 -234.6,105.03 -234.6,234.6 0,129.57 105.03,234.6 234.6,234.6 129.57,0 234.6,-105.03 234.6,-234.6 0,-129.57 -105.03,-234.6 -234.6,-234.6m28.44 555.35c3.99,-25.67 -17.6,-43.67 -28.31,-44.5 -38.11,0 -69,30.89 -69,69 0,38.11 30.89,69 69,69 38.11,0 69,-30.89 69,-69 0,-38.11 -30.89,-69 -69,-69m383.22 -495.27l454.67 0c12.53,0 22.77,10.25 22.77,22.78l0 403.53c0,12.54 -10.24,22.78 -22.77,22.78l-454.67 0c-12.53,0 -22.77,-10.24 -22.77,-22.78l0 -403.53c0,-12.53 10.24,-22.78 22.77,-22.78zm-867.11 -249.19l1259.68 0c125.51,0 228.19,102.69 228.19,228.2l0 498.4c0,125.51 -102.68,228.2 -228.19,228.2l-1259.68 0c-125.51,0 -228.2,-102.69 -228.2,-228.2l0 -498.4c0,-125.51 102.69,-228.2 228.2,-228.2zm-18.47 -42.9l1297.77 0c138.56,0 251.93,113.37 251.93,251.94l0 533.9c0,138.56 -113.37,251.93 -251.93,251.93l-1297.77 0c-138.56,0 -251.93,-113.37 -251.93,-251.93l0 -533.9c0,-138.57 113.37,-251.94 251.93,-251.94zm-335.18 4500.87l1731.45 0c197.1,0 358.37,-161.26 358.37,-358.37l0 -3947.62c0,-197.11 -161.27,-358.37 -358.37,-358.37l-1491.24 0c-197.1,0 -358.37,161.26 -358.37,358.37l0 3947.62c0,197.11 161.27,358.37 358.37,358.37l106.66 0c132.07,0 217.84,11.73 261.06,35.64"/>
 </g>
</svg>
