<?xml version="1.0" encoding="UTF-8"?>
<!DOCTYPE svg PUBLIC "-//W3C//DTD SVG 1.1//EN" "http://www.w3.org/Graphics/SVG/1.1/DTD/svg11.dtd">
<!-- Creator: CorelDRAW X8 -->
<svg xmlns="http://www.w3.org/2000/svg" xml:space="preserve" width="40mm" height="60mm" version="1.1" style="shape-rendering:geometricPrecision; text-rendering:geometricPrecision; image-rendering:optimizeQuality; fill-rule:evenodd; clip-rule:evenodd"
viewBox="0 0 4000 6000"
 xmlns:xlink="http://www.w3.org/1999/xlink">
 <defs>
  <style type="text/css">
   <![CDATA[
    .str0 {stroke:#332C2B;stroke-width:7.62}
    .fil0 {fill:none}
   ]]>
  </style>
 </defs>
 <g id="图层_x0020_1">
  <metadata id="CorelCorpID_0Corel-Layer"/>
  <path class="fil0 str0" d="M957 5350l1986 0c105,0 191,-86 191,-192l0 -4316c0,-106 -86,-192 -191,-192l-1886 0c-105,0 -191,86 -191,192l0 4316c0,106 86,192 191,192l183 0m738 -156c-11,-40 -33,-72 -132,-72l-78 0c-45,0 -81,36 -81,81l0 0c0,44 36,81 81,81l477 0c44,0 81,-37 81,-81l0 0c0,-45 -37,-81 -81,-81l-399 0m928 -4404c1,-23 -27,-42 -37,-43 -36,0 -65,29 -65,65 0,36 29,65 65,65 36,0 65,-29 65,-65 0,-36 -29,-65 -65,-65m-881 26c-5,-16 -14,-29 -53,-29l-34 0c-18,0 -33,14 -33,32l0 0c0,18 15,33 33,33l479 0c17,0 32,-15 32,-33l0 0c0,-18 -15,-32 -32,-32l-445 0"/>
 </g>
</svg>
