<?xml version="1.0" encoding="UTF-8"?>
<!DOCTYPE svg PUBLIC "-//W3C//DTD SVG 1.1//EN" "http://www.w3.org/Graphics/SVG/1.1/DTD/svg11.dtd">
<!-- Creator: CorelDRAW X8 -->
<svg xmlns="http://www.w3.org/2000/svg" xml:space="preserve" width="40mm" height="60mm" version="1.1" style="shape-rendering:geometricPrecision; text-rendering:geometricPrecision; image-rendering:optimizeQuality; fill-rule:evenodd; clip-rule:evenodd"
viewBox="0 0 4000 6000"
 xmlns:xlink="http://www.w3.org/1999/xlink">
 <defs>
  <style type="text/css">
   <![CDATA[
    .str0 {stroke:black;stroke-width:7.62}
    .fil0 {fill:none}
   ]]>
  </style>
 </defs>
 <g id="图层_x0020_1">
  <metadata id="CorelCorpID_0Corel-Layer"/>
  <path class="fil0 str0" d="M1741 776c-1,-4 -4,-7 -11,-8 -27,0 -48,21 -48,47 0,27 21,48 48,48 26,0 47,-21 47,-48 0,-26 -21,-47 -47,-47m229 41c-5,-18 -14,-32 -59,-32l-38 0c-20,0 -36,16 -36,36l0 0c0,20 16,36 36,36l275 0c20,0 36,-16 36,-36l0 0c0,-20 -16,-36 -36,-36l-237 0m-596 4573c-11,-13 -27,-27 -50,-27l-24 0c-158,0 -288,-129 -288,-287l0 -4098c0,-159 130,-288 288,-288l1540 0c158,0 288,129 288,288l0 4098c0,158 -130,287 -288,287l-1650 0"/>
 </g>
</svg>
