<?xml version="1.0" encoding="UTF-8"?>
<!DOCTYPE svg PUBLIC "-//W3C//DTD SVG 1.1//EN" "http://www.w3.org/Graphics/SVG/1.1/DTD/svg11.dtd">
<!-- Creator: CorelDRAW X8 -->
<svg xmlns="http://www.w3.org/2000/svg" xml:space="preserve" width="40mm" height="60mm" version="1.1" style="shape-rendering:geometricPrecision; text-rendering:geometricPrecision; image-rendering:optimizeQuality; fill-rule:evenodd; clip-rule:evenodd"
viewBox="0 0 4000 6000"
 xmlns:xlink="http://www.w3.org/1999/xlink">
 <defs>
  <style type="text/css">
   <![CDATA[
    .str0 {stroke:black;stroke-width:20}
    .fil0 {fill:none}
   ]]>
  </style>
 </defs>
 <g id="图层_x0020_1">
  <metadata id="CorelCorpID_0Corel-Layer"/>
  <path class="fil0 str0" d="M927 5350l326 0 1662 0c114,0 207,-93 207,-207l0 -4286c0,-114 -93,-207 -207,-207l-719 0c-21,6 -13,40 -39,40l-321 0c-28,0 -16,-40 -34,-40 -239,0 -478,0 -717,0 -114,0 -207,93 -207,207l0 4286c0,114 93,207 207,207m1675 -4561c-6,-22 -14,-39 -52,-39l-32 0c-44,0 -79,36 -79,80l0 0c0,44 35,80 79,80l221 0c43,0 79,-36 79,-80l0 0c0,-44 -36,-80 -79,-80l-189 0"/>
 </g>
</svg>
