<?xml version="1.0" encoding="UTF-8"?>
<!DOCTYPE svg PUBLIC "-//W3C//DTD SVG 1.1//EN" "http://www.w3.org/Graphics/SVG/1.1/DTD/svg11.dtd">
<!-- Creator: CorelDRAW X8 -->
<svg xmlns="http://www.w3.org/2000/svg" xml:space="preserve" width="40mm" height="60mm" version="1.1" style="shape-rendering:geometricPrecision; text-rendering:geometricPrecision; image-rendering:optimizeQuality; fill-rule:evenodd; clip-rule:evenodd"
viewBox="0 0 4000 6000"
 xmlns:xlink="http://www.w3.org/1999/xlink">
 <defs>
  <style type="text/css">
   <![CDATA[
    .str0 {stroke:black;stroke-width:7.62}
    .fil0 {fill:none;fill-rule:nonzero}
   ]]>
  </style>
 </defs>
 <g id="图层_x0020_1">
  <metadata id="CorelCorpID_0Corel-Layer"/>
  <path class="fil0 str0" d="M3178 1985c0,20 -17,37 -38,37 -21,0 -37,-17 -37,-37l0 -236c0,-21 16,-37 37,-37 21,0 38,16 38,37l0 236zm0 372c0,21 -17,38 -38,38 -21,0 -37,-17 -37,-38l0 -235c0,-21 16,-38 37,-38 21,0 38,17 38,38l0 235zm-72 -915c0,-11 9,-20 20,-20l30 0c12,0 21,9 21,20l0 128c0,11 -9,20 -21,20l-30 0c-11,0 -20,-9 -20,-20l0 -128zm-592 3820c-12,0 -22,-10 -22,-22 0,-12 10,-22 22,-22 12,0 21,10 21,22 0,12 -9,22 -21,22zm-62 0c-12,0 -22,-10 -22,-22 0,-12 10,-22 22,-22 12,0 21,10 21,22 0,12 -9,22 -21,22zm-63 0c-12,0 -21,-10 -21,-22 0,-12 9,-22 21,-22 13,0 22,10 22,22 0,12 -9,22 -22,22zm-62 0c-12,0 -21,-10 -21,-22 0,-12 9,-22 21,-22 12,0 22,10 22,22 0,12 -10,22 -22,22zm-125 -2198c-12,32 -28,63 -52,90 -11,13 -23,25 -41,28 -34,6 -63,-18 -96,-18 -21,0 -36,6 -53,11 -16,6 -32,12 -49,7 -27,-7 -46,-34 -61,-56 -18,-28 -33,-58 -43,-89 -11,-35 -16,-73 -13,-109 6,-56 40,-111 97,-126 29,-8 57,0 84,10 9,4 18,7 27,8 18,1 36,-8 53,-15 15,-5 31,-8 46,-8 27,0 54,9 76,26 7,6 21,23 21,23 -40,26 -58,60 -55,106 3,44 24,74 65,96 0,0 -4,12 -6,16zm-24 2200c-13,0 -24,-11 -24,-24 0,-14 11,-25 24,-25 13,0 24,11 24,25 0,13 -11,24 -24,24zm-53 -24c0,24 -20,43 -43,43l-156 0c-24,0 -46,-19 -46,-43l0 -1c0,-23 20,-43 43,-43l159 0c23,0 43,20 43,43l0 1zm-298 24c-13,0 -24,-11 -24,-24 0,-14 11,-25 24,-25 13,0 24,11 24,25 0,13 -11,24 -24,24zm-249 -3481l-288 0c-210,0 -241,-151 -241,-241l0 -347c0,-90 31,-240 241,-240l288 0c209,0 240,150 240,240l0 347c0,90 -31,241 -240,241zm101 3479c-12,0 -22,-10 -22,-22 0,-12 10,-22 22,-22 12,0 22,10 22,22 0,12 -10,22 -22,22zm-62 0c-12,0 -22,-10 -22,-22 0,-12 10,-22 22,-22 12,0 22,10 22,22 0,12 -10,22 -22,22zm-62 0c-12,0 -22,-10 -22,-22 0,-12 10,-22 22,-22 12,0 22,10 22,22 0,12 -10,22 -22,22zm-62 0c-12,0 -22,-10 -22,-22 0,-12 10,-22 22,-22 12,0 21,10 21,22 0,12 -9,22 -21,22zm-62 0c-12,0 -22,-10 -22,-22 0,-12 10,-22 22,-22 12,0 21,10 21,22 0,12 -9,22 -21,22zm-62 0c-12,0 -22,-10 -22,-22 0,-12 10,-22 22,-22 12,0 21,10 21,22 0,12 -9,22 -21,22zm-62 0c-13,0 -22,-10 -22,-22 0,-12 9,-22 22,-22 12,0 21,10 21,22 0,12 -9,22 -21,22zm696 -2490c6,-40 25,-69 62,-88 12,-6 26,-10 38,-11 2,31 -12,71 -38,92 -11,10 -29,20 -44,23 -3,1 -18,2 -18,2 -1,-6 -1,-12 0,-18zm-1100 431c0,27 -21,48 -48,48 -27,0 -48,-21 -48,-48l0 -363c0,-26 21,-48 48,-48 27,0 48,22 48,48l0 363zm-90 -1342c0,-23 16,-44 41,-44 23,0 42,18 42,44l0 398c0,25 -19,44 -42,44 -22,0 -41,-19 -41,-44l0 -398zm2426 -1206l-93 -5c-9,0 -18,0 -26,0l-96 3c0,0 -4,458 -4,458 -12,-158 -119,-236 -250,-237l0 0 -5 0 0 -217 0 0 0 0 -765 -1 -773 1 0 0 0 0 0 217c-130,2 -239,84 -247,237 0,0 -4,-455 -4,-455l-96 -4c-8,-1 -17,-1 -26,0l-93 5 -6 2342 6 2344 93 7c9,0 18,0 26,0l96 -5c0,0 4,-458 4,-457 12,152 117,237 250,237l0 0 0 0 5 0 0 217 0 0 1 0 764 1 765 -1 0 0 0 0 0 -217 5 0 0 0c134,1 238,-85 250,-237 0,-1 4,457 4,457l96 5c8,0 17,0 26,0l93 -7 6 -2344 -6 -2344zm-1625 880c-94,0 -170,-76 -170,-170 0,-94 76,-170 170,-170 93,0 170,76 170,170 0,94 -77,170 -170,170zm-1 147c-19,0 -35,-16 -35,-35 0,-19 16,-34 35,-34 19,0 35,15 35,34 0,19 -16,35 -35,35zm-355 -352c-94,0 -170,-76 -170,-170 0,-94 76,-170 170,-170 94,0 170,76 170,170 0,94 -76,170 -170,170zm0 411c-94,0 -170,-77 -170,-170 0,-94 76,-171 170,-171 94,0 170,77 170,171 0,93 -76,170 -170,170zm357 -736c41,0 77,35 77,78 0,43 -36,78 -77,78 -43,0 -78,-35 -78,-78 0,-43 35,-78 78,-78zm-40 -37l-282 0c-197,0 -226,142 -226,227l0 341c0,84 29,226 226,226l282 0c198,0 227,-142 227,-226l0 -341c0,-85 -29,-227 -227,-227zm-720 2217c-11,0 -21,10 -21,21 0,12 10,21 21,21 12,0 21,-9 21,-21 0,-11 -9,-21 -21,-21z"/>
 </g>
</svg>
