<?xml version="1.0" encoding="UTF-8"?>
<!DOCTYPE svg PUBLIC "-//W3C//DTD SVG 1.1//EN" "http://www.w3.org/Graphics/SVG/1.1/DTD/svg11.dtd">
<!-- Creator: CorelDRAW -->
<svg xmlns="http://www.w3.org/2000/svg" xml:space="preserve" width="40mm" height="60mm" style="shape-rendering:geometricPrecision; text-rendering:geometricPrecision; image-rendering:optimizeQuality; fill-rule:evenodd; clip-rule:evenodd"
viewBox="0 0 40 60"
 xmlns:xlink="http://www.w3.org/1999/xlink">
 <defs>
  <style type="text/css">
   <![CDATA[
    .str1 {stroke:#1F1A17;stroke-width:0.0762;stroke-linejoin:bevel}
    .str0 {stroke:#1F1A17;stroke-width:0.0762;stroke-linejoin:bevel}
    .fil0 {fill:none}
   ]]>
  </style>
 </defs>
 <g id="图层_x0020_1">
  <metadata id="CorelCorpID_0Corel-Layer"/>
  <g id="_171589592">
   <path id="_140260896" class="fil0 str0" d="M11.631 6.5l16.738 0c0.639,-0.0004 1.2519,0.253 1.704,0.7045 0.4521,0.4515 0.7063,1.0672 0.7066,1.7061l0 42.1787c0.0005,0.639 -0.253,1.2519 -0.7045,1.704 -0.4515,0.4521 -1.0671,0.7063 -1.7061,0.7067l-16.738 0c-0.639,0.0004 -1.2519,-0.2531 -1.704,-0.7046 -0.4521,-0.4515 -0.7063,-1.0671 -0.7066,-1.7061l0 -42.1787c-0.0005,-0.6389 0.253,-1.2518 0.7045,-1.7039 0.4515,-0.4521 1.0671,-0.7063 1.7061,-0.7067z"/>
   <path id="_140260728" class="fil0 str1" d="M21.6677 18.4458l0 -1.5715c-0.0002,-0.5879 -0.3972,-1.101 -0.9665,-1.2478 -0.46,-0.1187 -0.9424,-0.1188 -1.4024,0 -0.5692,0.1472 -0.9667,0.6599 -0.9665,1.2478l0 1.5715c0.0002,0.5879 0.3972,1.101 0.9665,1.2478 0.46,0.1187 0.9424,0.1188 1.4024,0 0.5692,-0.1472 0.9667,-0.6599 0.9665,-1.2478z"/>
   <path id="_140260560" class="fil0 str1" d="M12.0447 7.669c-0.4023,0.0002 -0.7881,0.1603 -1.0724,0.445 -0.2843,0.2847 -0.4439,0.6687 -0.4437,1.0711l-0.0001 6.5055c0.0003,0.4024 0.1603,0.7882 0.445,1.0725 0.2847,0.2843 0.6688,0.4439 1.0711,0.4437l2.4164 0c0.4024,-0.0002 0.7882,-0.1603 1.0725,-0.445 0.2843,-0.2847 0.4439,-0.6687 0.4437,-1.0711l0.0001 -6.5055c-0.0003,-0.4024 -0.1603,-0.7882 -0.445,-1.0725 -0.2847,-0.2843 -0.6688,-0.4439 -1.0711,-0.4437l-2.4165 0z"/>
  </g>
 </g>
</svg>
