<?xml version="1.0" encoding="UTF-8"?>
<!DOCTYPE svg PUBLIC "-//W3C//DTD SVG 1.1//EN" "http://www.w3.org/Graphics/SVG/1.1/DTD/svg11.dtd">
<!-- Creator: CorelDRAW X8 -->
<svg xmlns="http://www.w3.org/2000/svg" xml:space="preserve" width="40mm" height="60mm" version="1.1" style="shape-rendering:geometricPrecision; text-rendering:geometricPrecision; image-rendering:optimizeQuality; fill-rule:evenodd; clip-rule:evenodd"
viewBox="0 0 4000 6000"
 xmlns:xlink="http://www.w3.org/1999/xlink">
 <defs>
  <style type="text/css">
   <![CDATA[
    .str0 {stroke:#332C2B;stroke-width:7.62}
    .fil0 {fill:none}
   ]]>
  </style>
 </defs>
 <g id="图层_x0020_1">
  <metadata id="CorelCorpID_0Corel-Layer"/>
  <path class="fil0 str0" d="M873 5280l2024 0c126,0 230,-103 230,-230l0 -4170c0,-126 -104,-230 -230,-230l-1759 0c-126,0 -230,104 -230,230l0 4170c0,127 104,230 230,230 127,0 150,48 150,70m-96 -4532l309 0c90,0 164,74 164,164l0 667c0,90 -74,164 -164,164l-309 0c-90,0 -164,-74 -164,-164l0 -667c0,-90 74,-164 164,-164zm105 3775l0 0c20,0 36,16 36,35l0 370c0,20 -16,36 -36,36l0 0c-19,0 -35,-16 -35,-36l0 -370c0,-19 16,-35 35,-35z"/>
 </g>
</svg>
