<?xml version="1.0" encoding="UTF-8"?>
<!DOCTYPE svg PUBLIC "-//W3C//DTD SVG 1.1//EN" "http://www.w3.org/Graphics/SVG/1.1/DTD/svg11.dtd">
<!-- Creator: CorelDRAW X8 -->
<svg xmlns="http://www.w3.org/2000/svg" xml:space="preserve" width="40mm" height="60mm" version="1.1" style="shape-rendering:geometricPrecision; text-rendering:geometricPrecision; image-rendering:optimizeQuality; fill-rule:evenodd; clip-rule:evenodd"
viewBox="0 0 4000 6000"
 xmlns:xlink="http://www.w3.org/1999/xlink">
 <defs>
  <style type="text/css">
   <![CDATA[
    .fil0 {fill:#332C2B;fill-rule:nonzero}
   ]]>
  </style>
 </defs>
 <g id="图层_x0020_1">
  <metadata id="CorelCorpID_0Corel-Layer"/>
  <g>
   <path class="fil0" d="M2376 4910l12 -5 0 0 3 9 3 9 3 8 2 9 3 8 1 9 2 8 1 9 1 8 1 9 1 8 0 9 0 8 0 8 -1 8 -1 9 -1 8 -2 8 -2 8 -2 8 -2 8 -3 8 -4 8 -3 7 -4 8 -5 8 -4 7 -5 8 -6 7 -6 8 -6 7 -7 7 -9 -9 6 -7 6 -7 5 -7 5 -7 5 -7 5 -7 4 -7 4 -8 3 -7 3 -7 3 -8 2 -7 2 -8 2 -7 2 -8 1 -7 1 -8 0 -8 1 -7 0 -8 -1 -8 0 -8 -1 -8 -1 -8 -1 -8 -2 -8 -2 -8 -2 -9 -2 -8 -3 -8 -2 -9 -3 -8 0 0zm0 0c-2,-4 0,-7 4,-9 3,-1 7,1 8,4l-12 5zm-192 -129l0 -14 0 0 8 0 9 1 8 1 8 1 8 2 8 2 8 2 8 2 7 3 8 3 8 3 7 4 8 3 7 4 7 5 7 4 7 5 6 5 7 5 6 5 6 6 5 6 6 6 5 6 5 6 5 6 5 7 4 7 4 7 3 7 3 7 3 7 -12 5 -3 -7 -3 -6 -3 -7 -4 -6 -4 -7 -4 -6 -4 -6 -5 -6 -5 -5 -5 -6 -6 -5 -5 -6 -6 -5 -6 -4 -6 -5 -7 -5 -6 -4 -7 -4 -7 -4 -7 -3 -7 -3 -7 -4 -7 -2 -8 -3 -7 -2 -7 -2 -8 -2 -8 -1 -7 -2 -8 0 -7 -1 -8 0 0 0zm0 0c-4,0 -7,-3 -7,-7 1,-4 4,-7 7,-7l0 14zm-229 190l-13 -2 0 0 1 -11 2 -11 3 -11 3 -11 3 -10 4 -10 4 -10 5 -9 5 -10 5 -8 6 -9 7 -8 7 -8 7 -8 7 -7 8 -7 8 -6 9 -6 9 -6 9 -5 10 -5 9 -5 10 -4 11 -3 10 -4 11 -2 11 -3 11 -2 12 -1 11 -1 12 -1 12 0 0 14 -11 0 -12 0 -11 1 -11 2 -10 1 -11 3 -10 2 -10 3 -10 4 -9 4 -10 4 -8 5 -9 5 -8 5 -8 6 -8 6 -8 6 -7 7 -6 7 -7 7 -6 8 -5 8 -6 8 -4 9 -5 9 -4 9 -3 9 -3 10 -3 10 -2 11 -2 10 -2 11 0 0zm0 0c0,4 -3,6 -7,6 -4,0 -6,-4 -6,-8l13 2zm177 243l-4 13 0 0 -12 -3 -12 -4 -12 -5 -11 -4 -11 -5 -10 -6 -10 -6 -9 -6 -9 -6 -9 -7 -8 -7 -8 -7 -7 -8 -7 -7 -7 -9 -6 -8 -5 -9 -5 -8 -5 -9 -5 -10 -4 -9 -3 -10 -3 -10 -3 -10 -2 -10 -2 -10 -1 -11 -1 -10 0 -11 0 -11 0 -11 1 -11 13 2 0 10 -1 11 0 10 1 10 1 10 1 10 1 10 2 9 3 10 3 9 3 9 4 9 4 9 4 8 5 8 6 8 5 8 6 8 7 7 7 7 7 7 8 7 8 6 8 6 9 6 10 5 10 5 10 5 10 5 11 4 12 4 12 3 0 0zm0 0c3,1 5,5 4,9 -1,3 -4,5 -8,4l4 -13zm204 -59l9 9 0 1 -4 4 -5 5 -6 4 -5 4 -6 4 -6 4 -6 4 -6 4 -7 3 -6 4 -7 3 -7 3 -7 3 -7 3 -8 2 -7 3 -7 2 -8 2 -7 1 -8 2 -7 1 -8 1 -7 1 -8 0 -7 1 -8 0 -7 0 -7 -1 -7 -1 -7 -1 -7 -1 -7 -2 4 -13 6 2 6 1 6 1 7 1 7 0 7 0 6 0 7 0 7 -1 8 0 7 -1 7 -2 7 -1 7 -2 7 -1 7 -2 7 -3 7 -2 7 -3 7 -2 6 -3 7 -3 6 -4 6 -3 6 -3 6 -4 5 -4 6 -4 5 -4 5 -4 4 -4 5 -4 0 0zm0 0c2,-3 7,-3 9,0 3,3 3,7 0,10l-9 -10zm-113 -4365l3 -13 0 0 13 4 12 4 11 5 11 5 11 6 11 7 10 7 9 7 9 8 9 8 8 9 8 9 7 10 6 9 7 11 5 10 5 11 5 11 4 11 3 12 3 11 2 12 2 12 1 12 0 12 0 13 -1 12 -1 13 -3 12 -3 13 -3 12 -4 12 -13 -4 4 -12 3 -12 3 -12 2 -11 2 -12 0 -12 1 -12 -1 -11 -1 -11 -1 -12 -2 -11 -3 -11 -3 -11 -4 -10 -4 -11 -5 -10 -5 -10 -6 -9 -6 -9 -7 -9 -7 -9 -8 -8 -8 -8 -9 -7 -9 -7 -9 -7 -10 -6 -10 -6 -10 -5 -11 -5 -12 -4 -11 -3 0 0zm0 0c-4,-1 -6,-5 -5,-8 1,-4 5,-6 8,-5l-3 13zm-277 269l-14 3 0 0 -2 -18 -2 -17 -1 -17 0 -17 2 -16 2 -16 3 -15 4 -15 5 -15 5 -14 7 -13 7 -13 8 -12 9 -12 10 -11 10 -11 10 -9 12 -9 12 -9 12 -7 13 -7 14 -6 14 -5 14 -4 15 -3 15 -2 15 -1 16 -1 16 1 16 2 17 3 16 4 -3 13 -16 -4 -16 -3 -15 -1 -15 -1 -15 0 -15 1 -14 2 -14 3 -13 4 -13 5 -13 5 -12 7 -12 7 -11 8 -11 8 -10 9 -9 10 -9 10 -9 11 -7 12 -7 12 -6 13 -6 13 -4 14 -4 14 -3 15 -2 15 -1 15 0 16 0 16 2 16 3 17 0 0zm0 0c0,4 -2,7 -6,8 -3,1 -7,-2 -8,-5l14 -3zm205 162l-1 14 0 0 -9 -1 -10 -2 -9 -1 -10 -2 -9 -3 -9 -3 -9 -3 -9 -3 -9 -4 -9 -4 -9 -4 -8 -4 -8 -5 -8 -5 -8 -6 -7 -5 -7 -6 -7 -6 -7 -6 -7 -7 -6 -7 -6 -7 -5 -7 -5 -7 -5 -8 -4 -8 -5 -7 -3 -9 -3 -8 -3 -8 -3 -9 -2 -8 14 -3 2 8 2 8 2 8 3 7 4 8 3 7 5 7 4 7 5 7 5 7 5 6 6 7 6 6 7 6 6 5 7 6 7 5 8 5 7 5 8 5 8 4 8 4 8 4 9 3 8 4 9 3 9 2 8 2 9 2 9 2 9 1 9 1 0 0zm0 0c4,1 7,4 7,8 -1,3 -4,6 -8,6l1 -14zm219 -138l13 4 0 0 -3 8 -4 8 -3 7 -5 8 -4 7 -5 7 -5 7 -5 7 -6 7 -6 7 -6 6 -6 7 -7 6 -7 6 -7 5 -8 6 -8 5 -7 4 -9 5 -8 4 -9 4 -8 4 -9 3 -9 3 -10 2 -9 2 -10 2 -10 1 -9 0 -10 1 -11 0 -10 -1 1 -14 10 1 10 0 9 0 9 -1 9 -1 9 -1 9 -2 9 -3 8 -2 9 -3 8 -3 8 -4 8 -4 8 -4 7 -5 8 -5 7 -5 6 -5 7 -5 6 -6 7 -6 5 -6 6 -7 5 -6 5 -7 5 -6 5 -7 4 -7 4 -7 3 -7 3 -7 3 -7 0 0zm0 0c1,-4 5,-6 9,-4 3,1 5,5 4,8l-13 -4zm-1583 -252c-3,0 -6,-4 -6,-8 1,-3 4,-6 8,-5l-2 13zm77 -3l2 13 -1 0 -3 1 -2 0 -3 0 -3 0 -2 0 -3 0 -2 -1 -2 0 -3 0 -2 0 -2 -1 -2 0 -2 0 -2 -1 -3 0 -2 -1 -2 0 -2 0 -2 -1 -2 0 -2 -1 -3 0 -2 -1 -2 0 -3 -1 -2 0 -3 -1 -3 0 -2 -1 -3 0 -4 -1 -3 0 2 -13 3 0 3 0 4 1 3 0 2 1 3 0 3 1 2 0 3 1 2 0 3 1 2 0 2 1 2 0 2 1 2 0 2 1 2 0 2 0 2 1 2 0 2 0 2 1 2 0 2 0 2 0 2 0 2 0 3 0 2 0 3 0 2 0 0 0zm0 0c4,0 7,2 8,6 0,4 -3,7 -7,7l-1 -13zm2301 -185l1 14 0 0 -72 2 -71 2 -70 2 -69 2 -68 3 -68 2 -67 3 -66 3 -66 4 -66 3 -66 4 -65 4 -66 5 -66 4 -66 5 -67 5 -67 6 -68 6 -69 6 -70 6 -71 7 -71 7 -73 8 -75 8 -76 8 -77 9 -79 9 -81 9 -83 10 -85 10 -87 11 -89 11 -2 -13 89 -11 87 -11 85 -10 83 -10 81 -10 79 -9 78 -9 76 -8 74 -8 73 -7 72 -7 71 -7 70 -7 68 -6 68 -6 68 -5 67 -5 66 -5 66 -5 66 -4 66 -4 65 -4 66 -4 66 -3 67 -3 67 -3 67 -3 68 -2 69 -3 70 -2 71 -2 72 -2 0 0zm0 0c4,0 7,3 7,7 0,4 -3,7 -6,7l-1 -14zm51 33l-14 0 0 0 0 -2 0 -1 0 -2 -1 -1 0 -1 -1 -2 0 -1 -1 -1 -1 0 -1 -1 -1 -1 -1 -1 -1 -1 -1 0 -2 -1 -1 0 -2 -1 -1 0 -2 -1 -1 0 -2 0 -2 -1 -1 0 -2 0 -1 0 -2 0 -1 0 -2 0 -1 0 -2 0 -1 0 -1 0 -1 -14 2 0 1 0 2 0 1 0 2 0 2 0 2 0 1 1 2 0 2 0 2 0 2 1 2 0 2 1 2 0 2 1 2 1 2 1 2 1 2 1 2 1 2 1 2 2 1 2 2 2 1 2 1 2 1 2 1 3 0 2 1 3 0 3 0 0zm0 0c0,4 -3,7 -7,7 -4,0 -7,-3 -7,-7l14 0zm-25 4421l-14 0 0 0 1 -59 1 -70 1 -78 1 -88 1 -96 1 -104 2 -111 1 -118 1 -125 2 -131 1 -136 2 -142 1 -146 1 -150 2 -154 1 -157 1 -159 2 -162 1 -164 1 -165 1 -166 0 -166 1 -166 1 -165 0 -164 0 -163 0 -160 0 -158 0 -155 -1 -152 -1 -148 -1 -143 14 0 1 143 1 148 0 152 1 155 0 158 0 160 -1 163 0 164 0 166 -1 165 -1 167 -1 165 -1 165 -1 164 -1 162 -1 159 -2 157 -1 154 -2 150 -1 146 -1 142 -2 136 -1 131 -2 125 -1 118 -1 111 -1 104 -2 96 -1 88 -1 78 -1 70 0 59 0 0zm0 0c0,4 -3,7 -7,7 -4,0 -7,-3 -7,-7l14 0zm-17 219l-14 -1 0 0 1 -7 0 -7 1 -6 1 -7 0 -7 1 -7 1 -7 0 -7 1 -6 1 -7 0 -7 1 -7 1 -7 0 -6 1 -7 1 -7 0 -7 1 -7 0 -6 1 -7 1 -7 0 -7 1 -7 0 -6 0 -7 1 -7 0 -7 0 -7 1 -6 0 -7 0 -7 0 -7 14 0 0 7 -1 7 0 7 0 7 0 7 -1 7 0 7 -1 7 0 6 0 7 -1 7 -1 7 0 7 -1 7 0 6 -1 7 -1 7 0 7 -1 7 -1 7 0 6 -1 7 -1 7 0 7 -1 7 -1 6 0 7 -1 7 -1 7 0 7 -1 6 0 7 0 0zm0 0c-1,4 -4,7 -8,6 -3,0 -6,-3 -6,-7l14 1zm-47 41l0 -14 0 0 2 0 3 0 2 0 2 0 2 0 1 -1 2 0 2 0 1 -1 2 0 1 -1 1 0 1 -1 1 0 1 -1 1 -1 1 0 0 -1 1 -1 1 -1 0 -1 1 -1 1 -1 0 -1 1 -2 0 -1 1 -2 0 -2 0 -1 1 -2 0 -3 0 -2 14 1 -1 3 0 2 0 3 -1 2 0 2 -1 2 0 3 -1 2 -1 2 -1 1 -1 2 -1 2 -1 2 -2 1 -1 2 -1 1 -2 1 -2 1 -1 1 -2 1 -2 1 -2 1 -2 0 -2 1 -2 0 -2 1 -3 0 -2 0 -2 0 -3 1 -2 0 -3 0 0 0zm0 0c-4,0 -7,-3 -7,-7 0,-4 3,-7 7,-7l0 14zm-2245 -164l2 -14 0 0 76 8 80 7 83 7 84 8 87 7 88 7 90 8 90 7 91 7 92 7 91 7 91 7 90 6 89 7 87 6 86 6 83 6 81 5 79 5 75 5 71 5 68 4 64 4 59 4 54 3 49 3 43 3 38 2 31 1 25 1 18 1 10 0 0 14 -11 0 -18 -1 -25 -1 -31 -2 -37 -2 -44 -2 -49 -3 -54 -3 -59 -4 -64 -4 -68 -5 -71 -4 -75 -5 -78 -5 -82 -6 -83 -6 -86 -6 -87 -6 -89 -6 -90 -7 -91 -7 -91 -7 -92 -7 -91 -7 -90 -7 -90 -7 -88 -7 -87 -8 -85 -7 -82 -7 -80 -8 -77 -7 0 0zm0 0c-3,0 -6,-4 -6,-7 1,-4 4,-7 8,-7l-2 14zm-54 -57l14 0 0 0 0 3 0 3 0 2 0 3 0 2 1 2 0 3 0 2 1 1 1 2 0 2 1 1 1 2 1 1 1 2 1 1 1 1 1 1 1 1 2 1 1 1 2 1 2 1 2 0 2 1 2 1 3 0 2 1 3 0 3 1 3 0 4 0 -2 14 -3 0 -4 -1 -3 0 -3 -1 -3 0 -3 -1 -3 -1 -3 -1 -2 -1 -3 -1 -2 -1 -3 -2 -2 -1 -2 -2 -2 -1 -1 -2 -2 -2 -2 -2 -1 -2 -1 -2 -1 -3 -1 -2 -1 -3 -1 -2 0 -3 -1 -2 0 -3 -1 -3 0 -3 0 -3 0 -3 0 -3 0 0zm0 0c0,-4 3,-7 7,-7 4,0 7,3 7,7l-14 0zm-15 -4216l14 0 0 0 0 28 0 50 0 68 0 87 0 102 1 118 0 132 1 144 0 155 1 165 1 172 0 179 1 185 1 188 0 190 1 192 1 192 1 189 0 187 1 181 1 176 0 169 1 159 1 149 0 138 0 125 1 110 0 95 0 77 1 58 0 39 0 17 -14 0 0 -17 0 -39 0 -58 0 -77 -1 -95 0 -110 0 -125 -1 -137 -1 -150 0 -159 -1 -169 0 -176 -1 -181 -1 -187 -1 -189 0 -192 -1 -191 -1 -191 -1 -188 0 -185 -1 -179 -1 -172 0 -165 -1 -155 0 -144 -1 -131 0 -119 -1 -102 0 -87 0 -68 0 -50 0 -28 0 0zm0 0c0,-4 3,-7 7,-7 4,0 7,3 7,7l-14 0zm51 -92l2 13 -1 0 -3 1 -4 0 -4 1 -3 0 -3 1 -2 1 -2 1 -3 1 -1 1 -2 1 -2 1 -1 1 -1 1 -1 1 -1 2 -1 2 -1 2 0 2 -1 2 -1 3 0 3 -1 3 0 4 0 3 0 4 -1 5 0 4 0 5 0 5 0 6 0 6 1 6 -14 0 0 -6 0 -6 0 -5 0 -6 0 -5 0 -5 0 -4 0 -4 1 -5 0 -3 0 -4 1 -4 1 -3 1 -3 1 -3 1 -3 1 -3 2 -2 2 -3 2 -2 2 -2 2 -2 3 -1 3 -2 3 -1 3 -1 3 -1 3 -1 4 -1 4 0 4 -1 4 0 0 0zm0 0c4,-1 7,2 8,6 0,4 -3,7 -7,7l-1 -13zm163 -65l12 7 -3 4 -4 4 -3 4 -4 4 -3 3 -4 3 -5 3 -4 3 -5 3 -4 3 -5 2 -5 3 -6 2 -5 2 -5 2 -6 2 -6 2 -6 2 -5 2 -7 1 -6 2 -6 2 -6 1 -7 2 -6 1 -7 1 -6 2 -7 1 -7 1 -6 2 -7 1 -7 1 -2 -13 6 -1 7 -2 7 -1 6 -1 7 -2 7 -1 6 -1 6 -2 7 -1 6 -2 6 -1 6 -2 6 -1 6 -2 5 -2 6 -2 5 -2 5 -2 5 -2 5 -2 5 -2 4 -2 5 -3 4 -2 4 -3 3 -3 4 -2 3 -3 3 -3 3 -4 3 -3 2 -3zm0 0c2,-3 7,-4 10,-2 3,2 4,6 2,9l-12 -7z"/>
  </g>
 </g>
</svg>
