<?xml version="1.0" encoding="UTF-8"?>
<!DOCTYPE svg PUBLIC "-//W3C//DTD SVG 1.1//EN" "http://www.w3.org/Graphics/SVG/1.1/DTD/svg11.dtd">
<!-- Creator: CorelDRAW X8 -->
<svg xmlns="http://www.w3.org/2000/svg" xml:space="preserve" width="40mm" height="60mm" version="1.1" style="shape-rendering:geometricPrecision; text-rendering:geometricPrecision; image-rendering:optimizeQuality; fill-rule:evenodd; clip-rule:evenodd"
viewBox="0 0 4000 6000"
 xmlns:xlink="http://www.w3.org/1999/xlink">
 <defs>
  <style type="text/css">
   <![CDATA[
    .str0 {stroke:#222222;stroke-width:20}
    .fil0 {fill:none}
   ]]>
  </style>
 </defs>
 <g id="图层_x0020_1">
  <metadata id="CorelCorpID_0Corel-Layer"/>
  <path class="fil0 str0" d="M953 5257l1835 0c142,0 259,-117 259,-260l0 -4088c0,-142 -117,-259 -259,-259l-692 0 0 94c0,41 -34,75 -75,75l0 0c-42,0 -75,-34 -75,-75l0 -94 -697 0c-142,0 -259,117 -259,259l0 4088c0,143 117,260 259,260 143,0 230,58 230,93"/>
  <path class="fil0 str0" d="M-7229 6236c-132,0 -317,391 -317,825 0,433 -354,788 -788,788l-14377 0c-434,0 -788,-355 -788,-788l0 -2535 245 0c120,0 218,-98 218,-218l0 0c0,-119 -98,-217 -218,-217l-245 0 0 -2559c0,-433 354,-788 788,-788l14377 0c434,0 788,355 788,788l0 6492"/>
 </g>
</svg>
