<?xml version="1.0" encoding="UTF-8"?>
<!DOCTYPE svg PUBLIC "-//W3C//DTD SVG 1.1//EN" "http://www.w3.org/Graphics/SVG/1.1/DTD/svg11.dtd">
<!-- Creator: CorelDRAW X8 -->
<svg xmlns="http://www.w3.org/2000/svg" xml:space="preserve" width="40mm" height="60mm" version="1.1" style="shape-rendering:geometricPrecision; text-rendering:geometricPrecision; image-rendering:optimizeQuality; fill-rule:evenodd; clip-rule:evenodd"
viewBox="0 0 4000 6000"
 xmlns:xlink="http://www.w3.org/1999/xlink">
 <defs>
  <style type="text/css">
   <![CDATA[
    .str0 {stroke:black;stroke-width:7.62}
    .fil0 {fill:none}
   ]]>
  </style>
 </defs>
 <g id="图层_x0020_1">
  <metadata id="CorelCorpID_0Corel-Layer"/>
  <path class="fil0 str0" d="M2041 995c-1,-11 -11,-21 -30,-23 -71,0 -128,57 -128,128 0,70 57,127 128,127 70,0 127,-57 127,-127 0,-71 -57,-128 -127,-128m30 410c-1,-11 -11,-21 -30,-23 -71,0 -128,57 -128,128 0,70 57,127 128,127 70,0 127,-57 127,-127 0,-71 -57,-128 -127,-128m-45 -427l95 0c64,0 116,52 116,116l0 485c0,64 -52,116 -116,116l-95 0c-64,0 -116,-52 -116,-116l0 -485c0,-64 52,-116 116,-116zm-16 -21l123 0c71,0 128,57 128,127l0 511c0,70 -57,128 -128,128l-123 0c-70,0 -128,-58 -128,-128l0 -511c0,-70 58,-127 128,-127zm359 379c-15,4 -25,9 -25,33l0 20c0,28 23,51 51,51l0 0c28,0 51,-23 51,-51l0 -98c0,-28 -23,-51 -51,-51l0 0c-28,0 -51,23 -51,51l0 78m-319 451l92 0c76,0 137,62 137,137l0 92c0,76 -61,137 -137,137l-92 0c-76,0 -137,-61 -137,-137l0 -92c0,-75 61,-137 137,-137zm-1039 3576l1950 0c158,0 287,-129 287,-287l0 -4126c0,-158 -129,-287 -287,-287l-1752 0c-158,0 -287,129 -287,287l0 4126c0,158 129,287 287,287l70 0"/>
 </g>
</svg>
