<?xml version="1.0" encoding="UTF-8"?>
<!DOCTYPE svg PUBLIC "-//W3C//DTD SVG 1.1//EN" "http://www.w3.org/Graphics/SVG/1.1/DTD/svg11.dtd">
<!-- Creator: CorelDRAW 2020 (64-Bit) -->
<svg xmlns="http://www.w3.org/2000/svg" xml:space="preserve" width="40mm" height="60mm" version="1.1" style="shape-rendering:geometricPrecision; text-rendering:geometricPrecision; image-rendering:optimizeQuality; fill-rule:evenodd; clip-rule:evenodd"
viewBox="0 0 4000 6000"
 xmlns:xlink="http://www.w3.org/1999/xlink"
 xmlns:xodm="http://www.corel.com/coreldraw/odm/2003">
 <defs>
  <style type="text/css">
   <![CDATA[
    .str0 {stroke:black;stroke-width:7.62;stroke-miterlimit:22.9256}
    .fil0 {fill:none}
   ]]>
  </style>
 </defs>
 <g id="图层_x0020_1">
  <metadata id="CorelCorpID_0Corel-Layer"/>
  <path class="fil0 str0" d="M2012.33 772.78c3.13,-20.14 -13.81,-34.26 -22.21,-34.91 -29.9,0 -54.13,24.23 -54.13,54.13 0,29.9 24.23,54.13 54.13,54.13 29.9,0 54.13,-24.23 54.13,-54.13 0,-29.9 -24.23,-54.13 -54.13,-54.13m-1042.67 4579.59l1902.36 0c133.43,0 242.6,-109.18 242.6,-242.61l0 -4176.58c0,-133.42 -109.16,-242.6 -242.6,-242.6l-409.57 0c-2.71,0 -5.05,0.97 -6.96,2.88l-4.08 4.08c-1.92,1.91 -4.25,2.88 -6.96,2.88l-857.68 0c-2.71,0 -5.05,-0.97 -6.96,-2.88l-4.08 -4.08c-1.91,-1.91 -4.25,-2.88 -6.96,-2.88l-409.57 0c-133.43,0 -242.6,109.17 -242.6,242.6l0 4176.58c0,133.44 109.17,242.61 242.6,242.61l70.86 0c130.65,0 190.51,18.67 215.92,38.21"/>
 </g>
</svg>
