<?xml version="1.0" encoding="UTF-8"?>
<!DOCTYPE svg PUBLIC "-//W3C//DTD SVG 1.1//EN" "http://www.w3.org/Graphics/SVG/1.1/DTD/svg11.dtd">
<!-- Creator: CorelDRAW X8 -->
<svg xmlns="http://www.w3.org/2000/svg" xml:space="preserve" width="40mm" height="60mm" version="1.1" style="shape-rendering:geometricPrecision; text-rendering:geometricPrecision; image-rendering:optimizeQuality; fill-rule:evenodd; clip-rule:evenodd"
viewBox="0 0 4000 6000"
 xmlns:xlink="http://www.w3.org/1999/xlink">
 <defs>
  <style type="text/css">
   <![CDATA[
    .str0 {stroke:#332C2B;stroke-width:20}
    .fil0 {fill:none}
   ]]>
  </style>
 </defs>
 <g id="图层_x0020_1">
  <metadata id="CorelCorpID_0Corel-Layer"/>
  <g id="_1587529472528">
   <path class="fil0 str0" d="M3066 891c0,0 5,-24 -32,-73 -37,-48 -131,-135 -131,-135 0,0 -32,-33 -86,-33l-224 0 -21 39 -1155 0 -24 -39 -204 0c-55,0 -88,34 -88,34 0,0 -99,85 -136,135 -36,47 -32,71 -32,71l0 4220c0,0 -3,23 35,72 39,48 139,135 139,135 0,0 33,33 90,33l0 0 201 0 108 0m-108 0l32 -45 1148 0 28 45 199 0c57,0 90,-34 90,-34 0,0 98,-88 137,-137 39,-50 35,-75 35,-75l0 -4214"/>
   <path class="fil0 str0" d="M2003 883c0,-68 -111,-84 -141,-84 -30,0 -55,25 -55,55l0 0c0,30 25,55 55,55l264 0c31,0 55,-25 55,-55l0 0c0,-30 -24,-55 -55,-55l-264 0"/>
  </g>
  <path class="fil0 str0" d="M-16002 -264c0,0 -81,-16 -242,108 -161,123 -448,435 -448,435 0,0 -111,106 -111,286l0 743 130 71 0 3839 -130 80 1 677c0,181 111,291 111,291 0,0 285,329 449,453 157,118 237,106 237,106l14025 0c0,0 76,12 237,-116 162,-129 449,-460 449,-460 0,0 111,-110 111,-301l0 0 0 -667 0 -361m0 360l-150 -105 0 -3815 150 -94 0 -661c0,-188 -113,-299 -113,-299 0,0 -293,-328 -457,-457 -164,-130 -247,-114 -247,-114l-14005 0"/>
  <path class="fil0 str0" d="M-16030 3269c-224,0 -278,369 -278,470 0,100 83,183 184,183l0 0c100,0 183,-83 183,-183l0 -879c0,-101 -83,-183 -183,-183l0 0c-101,0 -185,83 -184,183l0 879"/>
 </g>
</svg>
