<?xml version="1.0" encoding="UTF-8"?>
<!DOCTYPE svg PUBLIC "-//W3C//DTD SVG 1.1//EN" "http://www.w3.org/Graphics/SVG/1.1/DTD/svg11.dtd">
<!-- Creator: CorelDRAW X8 -->
<svg xmlns="http://www.w3.org/2000/svg" xml:space="preserve" width="40mm" height="60mm" version="1.1" style="shape-rendering:geometricPrecision; text-rendering:geometricPrecision; image-rendering:optimizeQuality; fill-rule:evenodd; clip-rule:evenodd"
viewBox="0 0 4000 6000"
 xmlns:xlink="http://www.w3.org/1999/xlink">
 <defs>
  <style type="text/css">
   <![CDATA[
    .str0 {stroke:black;stroke-width:7.62}
    .fil0 {fill:none}
   ]]>
  </style>
 </defs>
 <g id="图层_x0020_1">
  <metadata id="CorelCorpID_0Corel-Layer"/>
  <path class="fil0 str0" d="M1301 774c-5,-20 -13,-35 -48,-35l-29 0c-40,0 -73,33 -73,74l0 0c0,40 33,73 73,73l312 0c41,0 74,-33 74,-73l0 0c0,-41 -33,-74 -74,-74l-283 0m-202 4588l1760 0c148,0 270,-118 277,-265l124 0c13,0 23,-11 23,-24l0 -2183c0,-8 -6,-15 -14,-15l-88 0c-8,0 -14,-6 -14,-14l0 -265c0,-8 6,-15 14,-15l88 0c8,0 14,-6 14,-15l0 -110c0,-8 -6,-15 -14,-15l-88 0c-8,0 -14,-7 -14,-15l0 -559c0,-8 6,-14 14,-14l88 0c8,0 14,-7 14,-15l0 -865c0,-13 -10,-23 -23,-23l-124 0c-7,-147 -129,-265 -277,-265 -562,0 -1060,0 -1622,0 -148,0 -270,118 -277,265l-124 0c-13,0 -23,10 -23,23l0 4100c0,13 10,24 23,24l124 0c7,147 129,265 277,265l41 0c100,0 155,12 163,23"/>
 </g>
</svg>
