<?xml version="1.0" encoding="UTF-8"?>
<!DOCTYPE svg PUBLIC "-//W3C//DTD SVG 1.1//EN" "http://www.w3.org/Graphics/SVG/1.1/DTD/svg11.dtd">
<!-- Creator: CorelDRAW X8 -->
<svg xmlns="http://www.w3.org/2000/svg" xml:space="preserve" width="40mm" height="60mm" version="1.1" style="shape-rendering:geometricPrecision; text-rendering:geometricPrecision; image-rendering:optimizeQuality; fill-rule:evenodd; clip-rule:evenodd"
viewBox="0 0 4000 6000"
 xmlns:xlink="http://www.w3.org/1999/xlink">
 <defs>
  <style type="text/css">
   <![CDATA[
    .str0 {stroke:black;stroke-width:7.62}
    .fil0 {fill:none}
   ]]>
  </style>
 </defs>
 <g id="图层_x0020_1">
  <metadata id="CorelCorpID_0Corel-Layer"/>
  <path class="fil0 str0" d="M868 5350l2092 0c103,0 188,-84 188,-187l0 -4326c0,-103 -85,-187 -188,-187l-1920 0c-103,0 -188,84 -188,187l0 4326c0,103 85,187 188,187l97 0m1511 -4583c0,-4 -4,-9 -13,-9 -30,0 -54,24 -54,54 0,31 24,55 54,55 31,0 55,-24 55,-55 0,-30 -24,-54 -55,-54m-687 53c-5,-17 -15,-32 -59,-32l-37 0c-20,0 -36,16 -36,36l0 0c0,20 16,36 36,36l309 0c20,0 36,-16 36,-36l0 0c0,-20 -16,-36 -36,-36l-272 0m494 -12c-1,-4 -5,-9 -13,-9 -30,0 -55,24 -55,54 0,31 25,55 55,55 30,0 54,-24 54,-55 0,-30 -24,-54 -54,-54"/>
 </g>
</svg>
