<?xml version="1.0" encoding="UTF-8"?>
<!DOCTYPE svg PUBLIC "-//W3C//DTD SVG 1.1//EN" "http://www.w3.org/Graphics/SVG/1.1/DTD/svg11.dtd">
<!-- Creator: CorelDRAW 2020 (64-Bit) -->
<svg xmlns="http://www.w3.org/2000/svg" xml:space="preserve" width="40mm" height="60mm" version="1.1" style="shape-rendering:geometricPrecision; text-rendering:geometricPrecision; image-rendering:optimizeQuality; fill-rule:evenodd; clip-rule:evenodd"
viewBox="0 0 4000 6000"
 xmlns:xlink="http://www.w3.org/1999/xlink"
 xmlns:xodm="http://www.corel.com/coreldraw/odm/2003">
 <defs>
  <style type="text/css">
   <![CDATA[
    .str0 {stroke:black;stroke-width:7.62;stroke-miterlimit:22.9256}
    .fil0 {fill:none}
   ]]>
  </style>
 </defs>
 <g id="图层_x0020_1">
  <metadata id="CorelCorpID_0Corel-Layer"/>
  <path class="fil0 str0" d="M1072.32 5332.78l1718.75 0c127.52,0 231.89,-104.36 231.89,-231.88l0 -4213.35c0,-127.51 -104.35,-231.88 -231.89,-231.88l-398.99 0 -294.3 0c-19.44,0 -35.3,15.86 -35.3,35.3l0 60.16c0,36.4 -29.79,66.19 -66.19,66.19l0 0c-36.4,0 -66.18,-29.8 -66.18,-66.19l0 -60.16c0,-19.43 -15.87,-35.3 -35.3,-35.3l-294.31 0 -404.77 0c-127.54,0 -231.89,104.35 -231.89,231.88l0 4213.35c0,127.53 104.37,231.88 231.89,231.88l31.28 0c77.11,0 116.02,11.05 129.88,22.89"/>
 </g>
</svg>
