<?xml version="1.0" encoding="UTF-8"?>
<!DOCTYPE svg PUBLIC "-//W3C//DTD SVG 1.1//EN" "http://www.w3.org/Graphics/SVG/1.1/DTD/svg11.dtd">
<!-- Creator: CorelDRAW X8 -->
<svg xmlns="http://www.w3.org/2000/svg" xml:space="preserve" width="40mm" height="60mm" version="1.1" style="shape-rendering:geometricPrecision; text-rendering:geometricPrecision; image-rendering:optimizeQuality; fill-rule:evenodd; clip-rule:evenodd"
viewBox="0 0 4000 6000"
 xmlns:xlink="http://www.w3.org/1999/xlink">
 <defs>
  <style type="text/css">
   <![CDATA[
    .str0 {stroke:black;stroke-width:7.62}
    .fil0 {fill:none}
   ]]>
  </style>
 </defs>
 <g id="图层_x0020_1">
  <metadata id="CorelCorpID_0Corel-Layer"/>
  <path class="fil0 str0" d="M1275 5350c-14,-13 -41,-34 -73,-34l-43 0c-107,0 -194,-87 -194,-193l0 -4280c0,-106 87,-193 194,-193l503 0 231 0c18,0 32,8 32,35l0 10c0,44 35,79 79,79l0 0c43,0 78,-35 78,-79l0 -20c0,-16 10,-25 24,-25l242 0 493 0c107,0 194,87 194,193l0 4280c0,106 -87,193 -194,193l-1800 0"/>
 </g>
</svg>
