<?xml version="1.0" encoding="UTF-8"?>
<!DOCTYPE svg PUBLIC "-//W3C//DTD SVG 1.1//EN" "http://www.w3.org/Graphics/SVG/1.1/DTD/svg11.dtd">
<!-- Creator: CorelDRAW 2020 (64-Bit) -->
<svg xmlns="http://www.w3.org/2000/svg" xml:space="preserve" width="40mm" height="60mm" version="1.1" style="shape-rendering:geometricPrecision; text-rendering:geometricPrecision; image-rendering:optimizeQuality; fill-rule:evenodd; clip-rule:evenodd"
viewBox="0 0 4000 6000"
 xmlns:xlink="http://www.w3.org/1999/xlink"
 xmlns:xodm="http://www.corel.com/coreldraw/odm/2003">
 <defs>
  <style type="text/css">
   <![CDATA[
    .str0 {stroke:black;stroke-width:7.62;stroke-miterlimit:22.9256}
    .fil0 {fill:none}
   ]]>
  </style>
 </defs>
 <g id="图层_x0020_1">
  <metadata id="CorelCorpID_0Corel-Layer"/>
  <path class="fil0 str0" d="M2464.99 733.12c3.57,-22.95 -15.72,-39.03 -25.29,-39.77 -34.05,0 -61.65,27.61 -61.65,61.65 0,34.05 27.6,61.65 61.65,61.65 34.05,0 61.65,-27.6 61.65,-61.65 0,-34.04 -27.6,-61.65 -61.65,-61.65m-588.05 97.81c-5.4,-20.16 -16.41,-36.16 -65.97,-36.16l-42.39 0c-22.28,0 -40.51,18.23 -40.51,40.51l0 0.01c0,22.27 18.23,40.51 40.51,40.51l503.78 0c22.28,0 40.5,-18.23 40.5,-40.51l0 -0.01c0,-22.28 -18.24,-40.51 -40.5,-40.51l-461.39 0m-937.86 4586.04l2235.49 0c49.63,0 90.24,-40.61 90.24,-90.24l0 -4504.89c0,-49.64 -40.61,-90.24 -90.24,-90.24l-2179.82 0c-49.63,0 -90.24,40.6 -90.24,90.24l0 4504.89c0,49.64 40.61,90.24 90.24,90.24l26.18 0c29.72,0 43.59,7.06 53.31,14.63"/>
 </g>
</svg>
