<?xml version="1.0" encoding="UTF-8"?>
<!DOCTYPE svg PUBLIC "-//W3C//DTD SVG 1.1//EN" "http://www.w3.org/Graphics/SVG/1.1/DTD/svg11.dtd">
<!-- Creator: CorelDRAW X8 -->
<svg xmlns="http://www.w3.org/2000/svg" xml:space="preserve" width="40mm" height="60mm" version="1.1" style="shape-rendering:geometricPrecision; text-rendering:geometricPrecision; image-rendering:optimizeQuality; fill-rule:evenodd; clip-rule:evenodd"
viewBox="0 0 4000 6000"
 xmlns:xlink="http://www.w3.org/1999/xlink">
 <defs>
  <style type="text/css">
   <![CDATA[
    .fil0 {fill:black;fill-rule:nonzero}
   ]]>
  </style>
 </defs>
 <g id="图层_x0020_1">
  <metadata id="CorelCorpID_0Corel-Layer"/>
  <g>
   <path class="fil0" d="M1742 725l0 5 0 0 -24 0 -23 0 -23 -1 -23 0 -22 0 -22 -1 -21 0 -21 -1 -21 -1 -20 0 -20 -1 -19 -1 -19 -1 -18 -1 -18 -2 -18 -1 -17 -1 -17 -2 -16 -2 -16 -2 -15 -2 -15 -2 -15 -2 -14 -3 -14 -3 -13 -3 -13 -3 -13 -3 -12 -4 -11 -4 -12 -4 -10 -4 2 -5 10 4 12 4 11 4 12 3 12 4 13 3 13 3 14 3 14 2 15 2 14 3 16 2 16 2 16 1 17 2 17 1 17 2 18 1 19 1 18 1 20 1 19 1 20 1 21 0 21 1 21 0 22 1 22 0 23 1 23 0 23 0 24 1 0 0zm406 26l-1 6 0 0 -9 -2 -10 -1 -10 -2 -11 -1 -10 -2 -11 -1 -11 -1 -11 -2 -12 -1 -12 -1 -12 -1 -12 -1 -13 -1 -12 -1 -13 -1 -13 0 -13 -1 -13 -1 -14 -1 -13 0 -14 -1 -14 0 -14 -1 -14 0 -14 -1 -14 0 -14 0 -15 -1 -14 0 -14 0 -15 0 -14 -1 0 -5 14 0 15 0 14 0 15 1 14 0 14 0 14 1 14 0 15 1 13 0 14 1 14 0 14 1 13 0 13 1 13 1 13 1 13 1 13 0 12 1 13 1 12 1 11 2 12 1 11 1 12 1 11 2 10 1 11 1 10 2 10 2 9 1 0 0zm693 760l-6 0 0 0 -1 -31 -2 -30 -3 -31 -4 -30 -5 -30 -6 -30 -6 -30 -8 -30 -9 -29 -11 -29 -11 -28 -13 -28 -14 -28 -16 -26 -17 -27 -18 -26 -20 -25 -22 -24 -23 -23 -25 -23 -27 -22 -29 -21 -30 -20 -33 -20 -34 -18 -37 -17 -38 -16 -41 -15 -43 -14 -45 -12 -47 -11 -50 -10 1 -6 50 10 48 11 45 13 43 14 41 15 39 16 36 17 35 18 33 20 30 20 29 21 27 22 26 23 23 24 22 25 20 25 19 26 17 27 16 27 14 27 13 29 12 28 10 29 9 30 8 29 7 30 6 31 5 30 3 31 3 30 2 31 2 31 0 0zm-35 2624l-6 0 0 0 4 -63 3 -66 4 -69 3 -71 3 -74 3 -76 2 -78 3 -80 3 -82 2 -84 2 -85 2 -86 2 -87 2 -88 1 -89 2 -89 1 -90 1 -89 1 -90 0 -90 1 -89 0 -89 0 -88 0 -87 -1 -86 0 -85 -1 -84 -1 -82 -2 -80 -1 -78 -2 -76 -2 -74 6 0 2 74 2 76 1 78 1 80 2 82 0 84 1 85 0 86 1 87 0 88 -1 89 0 89 -1 90 0 90 -1 89 -2 90 -1 89 -2 89 -1 88 -2 87 -2 87 -2 84 -3 84 -2 82 -3 80 -3 78 -3 76 -3 74 -3 72 -3 68 -3 66 -4 63 0 0zm-51 503l-6 -2 0 0 3 -11 2 -13 3 -13 2 -14 2 -15 3 -15 2 -15 2 -16 2 -16 2 -17 2 -17 2 -17 2 -17 1 -18 2 -17 2 -18 1 -18 2 -17 1 -18 1 -17 2 -18 1 -17 1 -16 1 -17 1 -16 1 -16 1 -15 1 -14 1 -15 1 -13 1 -13 0 -12 6 0 -1 12 0 13 -1 14 -1 14 -1 15 -1 15 -1 15 -1 17 -1 16 -1 17 -2 17 -1 17 -1 17 -2 18 -1 18 -2 17 -1 18 -2 18 -2 17 -1 18 -2 17 -2 17 -2 16 -2 17 -2 16 -3 15 -2 15 -2 15 -3 14 -2 13 -3 13 -2 12 0 0zm-513 670l-2 -5 0 0 32 -13 30 -12 29 -13 27 -14 26 -14 25 -14 23 -15 23 -15 21 -16 20 -17 19 -16 17 -18 17 -18 16 -19 15 -19 15 -20 13 -20 13 -21 12 -22 11 -22 11 -24 10 -23 10 -25 10 -25 9 -26 8 -27 8 -28 9 -28 7 -30 8 -30 8 -31 7 -32 6 2 -8 32 -7 31 -8 30 -8 29 -8 29 -8 27 -9 27 -9 27 -9 25 -10 25 -11 24 -11 23 -11 23 -12 22 -13 21 -14 21 -14 20 -15 19 -17 19 -17 18 -18 18 -19 17 -20 16 -21 16 -22 16 -24 15 -25 14 -26 14 -28 14 -29 13 -30 13 -32 12 0 0zm-751 -4l2 -6 0 0 19 6 20 5 21 5 22 4 22 4 23 4 24 4 25 3 25 3 25 3 25 2 26 2 27 1 26 2 26 0 26 1 27 0 26 0 26 -1 25 -1 26 -1 24 -2 25 -2 24 -2 23 -3 22 -4 22 -3 21 -4 20 -5 19 -5 18 -5 17 -6 2 5 -17 6 -18 5 -20 6 -20 4 -21 4 -22 4 -22 3 -24 3 -24 3 -24 2 -25 2 -25 1 -26 1 -26 1 -26 0 -27 0 -26 -1 -26 -1 -27 -1 -26 -2 -26 -2 -26 -2 -25 -2 -25 -3 -24 -4 -24 -3 -24 -4 -22 -4 -22 -5 -21 -5 -21 -5 -19 -5 0 0zm-339 -469l6 0 0 0 1 24 2 23 2 22 2 22 4 21 3 20 5 20 5 19 5 18 6 18 7 17 7 17 8 16 9 16 9 15 10 14 10 14 11 13 12 13 13 12 13 12 14 11 14 11 15 10 16 10 17 9 17 9 18 8 19 8 19 8 21 7 21 6 -2 6 -21 -7 -20 -7 -20 -8 -19 -8 -18 -8 -18 -9 -17 -9 -16 -10 -15 -11 -15 -10 -14 -12 -13 -12 -13 -12 -12 -13 -11 -14 -11 -14 -10 -14 -9 -15 -9 -16 -8 -17 -7 -16 -7 -18 -6 -18 -6 -19 -5 -19 -4 -20 -4 -20 -3 -22 -3 -21 -2 -23 -2 -23 -1 -24 0 0zm48 -2944l5 0 0 0 -1 73 -2 78 -1 83 -2 87 -2 91 -2 95 -3 98 -2 101 -2 103 -3 105 -2 106 -3 108 -2 109 -3 109 -2 109 -2 109 -2 108 -3 107 -2 105 -1 104 -2 101 -2 99 -1 96 -1 92 -1 88 -1 85 0 79 0 75 0 69 1 64 1 57 1 51 -6 0 -1 -51 -1 -57 0 -64 -1 -69 0 -75 1 -80 0 -84 1 -88 1 -92 2 -96 1 -99 2 -101 2 -104 2 -105 2 -107 2 -108 2 -109 3 -109 2 -109 3 -109 2 -108 3 -107 2 -105 2 -103 3 -100 2 -98 2 -95 2 -91 2 -87 2 -83 1 -78 2 -73 0 0zm33 -685l5 0 0 0 -1 17 -2 17 -1 18 -1 19 -2 20 -1 21 -2 21 -1 22 -1 22 -2 23 -1 23 -1 23 -1 24 -2 24 -1 24 -1 24 -1 24 -1 24 -1 24 -1 24 -1 23 -1 23 -1 23 0 22 -1 22 -1 22 -1 20 0 20 -1 19 0 19 0 17 -1 17 -5 0 0 -17 0 -17 1 -19 0 -19 1 -20 0 -21 1 -21 1 -22 1 -22 0 -23 1 -23 1 -23 1 -24 1 -24 1 -24 1 -24 1 -24 2 -24 1 -24 1 -24 1 -23 2 -23 1 -23 1 -22 2 -22 1 -21 1 -21 2 -20 1 -19 2 -18 1 -18 2 -16 0 0zm509 -481l0 5 0 0 -32 1 -30 1 -29 3 -28 4 -26 5 -26 7 -25 7 -23 9 -23 10 -21 10 -20 12 -20 13 -18 13 -18 15 -16 15 -15 16 -15 17 -14 17 -13 18 -11 19 -11 20 -11 20 -9 20 -9 21 -7 22 -7 22 -7 22 -5 23 -5 23 -4 24 -3 23 -3 24 -5 0 2 -24 4 -24 4 -24 4 -23 6 -23 6 -23 7 -22 8 -22 9 -21 9 -21 11 -20 11 -20 12 -19 13 -18 14 -18 14 -17 16 -16 17 -16 17 -14 19 -14 20 -13 20 -12 22 -11 23 -9 24 -9 24 -8 26 -6 27 -6 29 -4 29 -2 30 -2 32 0 0 0zm0 5l0 0 0 0 0 0zm300 -82l4 4 -6 5 -7 4 -7 5 -7 4 -7 4 -7 4 -7 4 -8 3 -8 4 -8 3 -9 4 -8 3 -9 3 -9 2 -9 3 -10 3 -9 2 -10 2 -10 2 -10 2 -11 2 -10 2 -11 1 -11 1 -11 2 -12 1 -12 1 -12 1 -12 0 -12 1 -12 0 -13 0 0 -5 12 -1 13 0 12 0 12 -1 12 -1 12 -1 11 -1 11 -1 11 -2 11 -1 10 -2 11 -1 10 -2 10 -2 10 -3 9 -2 9 -2 9 -3 9 -3 9 -3 8 -3 9 -3 8 -3 7 -4 8 -3 7 -4 8 -4 7 -4 6 -4 7 -4 6 -5 6 -4z"/>
  </g>
 </g>
</svg>
